<svg id="Capa_1" data-name="Capa 1" xmlns="http://www.w3.org/2000/svg" viewBox="0 0 444.3 111.74"><defs><style>.cls-1{fill:#798eab;}.cls-2{fill:#447ab7;}</style></defs><title>nuestrosProductos</title><g id="Capa_8" data-name="Capa 8"><g id="Capa_8-2" data-name="Capa 8"><path class="cls-1" d="M33.72,150.3a4.78,4.78,0,0,1-1-3.26V104.71a5.19,5.19,0,0,1,1-3.26c.61-.81,1.83-1,3.46-1H55.09c7.53,0,13,1.43,16.28,4.48,3.46,3,5.09,7.53,5.09,13.43s-1.63,10.38-5.09,13.44-9,4.47-16.28,4.47H50.61v11a5.17,5.17,0,0,1-1,3.26c-.61.82-1.83,1-3.66,1H37A6,6,0,0,1,33.72,150.3Zm19.94-26.87a5.85,5.85,0,0,0,3.87-1.22c1-.81,1.42-2,1.42-3.87s-.4-3-1.42-3.86a5.85,5.85,0,0,0-3.87-1.22H48.58v10.17Z" transform="translate(-32.7 -40.8)"/><path class="cls-1" d="M79.92,150.3a4.78,4.78,0,0,1-1-3.26V104.71a5.19,5.19,0,0,1,1-3.26c.61-.81,1.83-1,3.46-1h17.91c7.53,0,13,1.43,16.28,4.48,3.46,3,5.09,7.53,5.09,13.43a20.39,20.39,0,0,1-1.83,9.16,12,12,0,0,1-5.7,5.7l6.92,14.86a3.05,3.05,0,0,1,.2,1.42,1.85,1.85,0,0,1-.61,1.43,1.83,1.83,0,0,1-1.42.61H107.6a3.93,3.93,0,0,1-1.83-.41,2.05,2.05,0,0,1-1-1.22l-5.5-13.84H96.61v11.19a5.17,5.17,0,0,1-1,3.26c-.61.82-1.83,1-3.66,1H83A6,6,0,0,1,79.92,150.3Zm19.74-26.87a5.85,5.85,0,0,0,3.87-1.22c1-.81,1.42-2,1.42-3.87s-.4-3-1.42-3.86a5.85,5.85,0,0,0-3.87-1.22H94.57v10.17Z" transform="translate(-32.7 -40.8)"/><path class="cls-1" d="M132,145.62c-4.68-4.68-6.92-11.2-6.92-19.75s2.24-15.06,6.92-19.74,11.4-6.92,20.15-6.92,15.67,2.24,20.15,6.92,6.92,11.2,6.92,19.74-2.24,15.07-6.92,19.75-11.4,6.92-20.15,6.92S136.5,150.09,132,145.62Zm27.07-9.16c1.43-2.24,2.24-5.9,2.24-10.59s-.81-8.34-2.24-10.58-3.87-3.46-7.12-3.46-5.7,1.22-7.13,3.46-2.24,5.9-2.24,10.58.82,8.15,2.24,10.59c1.43,2.24,3.87,3.46,7.13,3.46S157.67,138.7,159.09,136.46Z" transform="translate(-32.7 -40.8)"/><path class="cls-1" d="M183.92,150.3a4.78,4.78,0,0,1-1-3.26V104.71a5.19,5.19,0,0,1,1-3.26c.61-.81,1.83-1,3.46-1h17.3c17.71,0,26.46,8.55,26.46,25.44q0,12.52-6.72,18.93c-4.48,4.28-11,6.52-19.74,6.52h-17.3A5.38,5.38,0,0,1,183.92,150.3Zm21.37-11.6c2.85,0,4.89-1,6.11-2.85s1.83-5.09,1.83-10-.61-8.14-1.83-10-3.26-2.85-6.11-2.85h-4.48v25.44l4.48.21Z" transform="translate(-32.7 -40.8)"/><path class="cls-1" d="M246.2,150.09a20.36,20.36,0,0,1-8.55-6.71,18.56,18.56,0,0,1-3.05-10.59V104.71a5.19,5.19,0,0,1,1-3.26c.61-.81,1.83-1,3.46-1H248a6.08,6.08,0,0,1,3.67,1c.81.61,1,1.83,1,3.26V133a7,7,0,0,0,1.83,5.29,6.51,6.51,0,0,0,4.89,1.63,7.41,7.41,0,0,0,4.88-1.63,6.92,6.92,0,0,0,1.84-5.29V104.71a5.19,5.19,0,0,1,1-3.26c.61-.81,1.84-1,3.46-1h9a6,6,0,0,1,3.66,1c.82.61,1,1.83,1,3.26v28.08a18.09,18.09,0,0,1-3.05,10.59,18.91,18.91,0,0,1-8.55,6.71,31.29,31.29,0,0,1-12.82,2.45A35.4,35.4,0,0,1,246.2,150.09Z" transform="translate(-32.7 -40.8)"/><path class="cls-1" d="M294.64,145.82c-5.09-4.48-7.53-11.19-7.53-19.95s2.44-15.46,7.33-19.94,11.8-6.72,21-6.72a45.63,45.63,0,0,1,11,1.22,20.62,20.62,0,0,1,7.94,3.46,1.77,1.77,0,0,1,.81,1.43,4.59,4.59,0,0,1-.61,1.83l-3.66,6.51c-.41.61-.82,1-1.43,1a3.24,3.24,0,0,1-1.63-.61,29.47,29.47,0,0,0-4.47-1.63,20.89,20.89,0,0,0-5.29-.61c-4.08,0-7.33,1.22-9.57,3.66s-3.26,5.91-3.26,10.38,1.22,7.94,3.67,10.38a13.18,13.18,0,0,0,9.77,3.67,23.19,23.19,0,0,0,10-2.24,5.31,5.31,0,0,1,1.63-.61c.61,0,1,.41,1.42,1l3.66,6.51a4.65,4.65,0,0,1,.62,1.83,2.07,2.07,0,0,1-.82,1.43,27.5,27.5,0,0,1-8.14,3.46,45.63,45.63,0,0,1-11,1.22Q302,152.54,294.64,145.82Z" transform="translate(-32.7 -40.8)"/><path class="cls-1" d="M350.61,150.3a4.78,4.78,0,0,1-1-3.26v-34H338.8a4.38,4.38,0,0,1-3.25-1,4.8,4.8,0,0,1-.82-3.25V104.5a4.8,4.8,0,0,1,.82-3.25,4.42,4.42,0,0,1,3.25-1h39.49a4.45,4.45,0,0,1,3.26,1,4.8,4.8,0,0,1,.81,3.25v4.28a4.8,4.8,0,0,1-.81,3.25,4.4,4.4,0,0,1-3.26,1H367.5v34a5.13,5.13,0,0,1-1,3.26c-.61.81-1.83,1-3.66,1h-8.95A4.78,4.78,0,0,1,350.61,150.3Z" transform="translate(-32.7 -40.8)"/><path class="cls-1" d="M386.63,145.62c-4.68-4.68-6.92-11.2-6.92-19.75s2.24-15.06,6.92-19.74,11.4-6.92,20.15-6.92,15.67,2.24,20.15,6.92,6.92,11.2,6.92,19.74-2.24,15.07-6.92,19.75-11.4,6.92-20.15,6.92S391.31,150.09,386.63,145.62Zm27.28-9.16c1.42-2.24,2.23-5.9,2.23-10.59s-.81-8.34-2.23-10.58-3.87-3.46-7.13-3.46-5.7,1.22-7.12,3.46-2.24,5.9-2.24,10.58.61,8.15,2.24,10.59c1.42,2.24,3.87,3.46,7.12,3.46S412.48,138.7,413.91,136.46Z" transform="translate(-32.7 -40.8)"/><path class="cls-1" d="M444,151.11c-3.87-1-7.13-2.24-9.36-4.07a2.55,2.55,0,0,1-1.43-2,2.2,2.2,0,0,1,.61-1.43l4.28-6.72c.4-.61.81-1,1.42-1a2.71,2.71,0,0,1,1.43.61,27.4,27.4,0,0,0,6.1,2.64,27,27,0,0,0,6.72,1,7.19,7.19,0,0,0,4.07-.81,2.56,2.56,0,0,0,1.22-2.24,3.5,3.5,0,0,0-1.63-2.85,25.24,25.24,0,0,0-5.7-2.65c-5.09-2-8.95-4.07-11.8-6.71a12.24,12.24,0,0,1-4.28-9.77c0-5.09,1.84-9.16,5.5-11.81s8.55-3.86,14.65-3.86a56.17,56.17,0,0,1,11,1,28.6,28.6,0,0,1,7.94,3.46,2.57,2.57,0,0,1,1.43,2,2.2,2.2,0,0,1-.61,1.42l-4.28,6.72c-.41.61-.81,1-1.42,1a2.77,2.77,0,0,1-1.43-.61,20.41,20.41,0,0,0-4.27-2,15.19,15.19,0,0,0-5.29-.81,7.58,7.58,0,0,0-4.07.81,2.47,2.47,0,0,0-1.43,2.44,3.26,3.26,0,0,0,1,2.24,12.55,12.55,0,0,0,2.44,1.63c1,.41,2.65,1,4.89,2a44.05,44.05,0,0,1,8.75,4.27,18.55,18.55,0,0,1,4.88,4.88c1.22,1.84,1.63,4.28,1.63,7.33a12.87,12.87,0,0,1-5.09,10.79c-3.46,2.85-8.34,4.07-15.06,4.07A42.33,42.33,0,0,1,444,151.11Z" transform="translate(-32.7 -40.8)"/></g></g><g id="Capa_9" data-name="Capa 9"><g id="Capa_9-2" data-name="Capa 9"><path class="cls-2" d="M36.16,92.09a4.78,4.78,0,0,1-1-3.26V46.3a5.17,5.17,0,0,1,1-3.26c.61-.82,1.83-1,3.66-1H47a7.43,7.43,0,0,1,2.44.41A3.14,3.14,0,0,1,51,44.06L64.65,64.21V46.3a5.17,5.17,0,0,1,1-3.26c.61-.82,1.83-1,3.46-1h9a6,6,0,0,1,3.66,1c.81.61,1,1.83,1,3.26V88.83a5.19,5.19,0,0,1-1,3.26c-.61.81-1.83,1-3.66,1H71a7.7,7.7,0,0,1-2.44-.41,3.14,3.14,0,0,1-1.63-1.63L53.26,70.92V88.83a5.19,5.19,0,0,1-1,3.26c-.61.81-1.83,1-3.66,1h-9A5,5,0,0,1,36.16,92.09Z" transform="translate(-32.7 -40.8)"/><path class="cls-2" d="M99.05,91.89a20.45,20.45,0,0,1-8.55-6.72,18.5,18.5,0,0,1-3-10.58V46.5a5.19,5.19,0,0,1,1-3.26c.61-.81,1.83-1,3.46-1h8.95a6,6,0,0,1,3.66,1c.82.61,1,1.83,1,3.26V74.79a7,7,0,0,0,1.83,5.29,6.51,6.51,0,0,0,4.89,1.63,7.41,7.41,0,0,0,4.88-1.63A7,7,0,0,0,119,74.79V46.5a5.19,5.19,0,0,1,1-3.26c.61-.81,1.83-1,3.46-1h9a6,6,0,0,1,3.66,1c.82.61,1,1.83,1,3.26V74.59a18.06,18.06,0,0,1-3.05,10.58,19,19,0,0,1-8.55,6.72,31.49,31.49,0,0,1-12.82,2.44A39.84,39.84,0,0,1,99.05,91.89Z" transform="translate(-32.7 -40.8)"/><path class="cls-2" d="M142.4,92.09a4.78,4.78,0,0,1-1-3.26V46.5a5.19,5.19,0,0,1,1-3.26c.61-.81,1.83-1,3.46-1H176.8a4.4,4.4,0,0,1,3.25,1,4.81,4.81,0,0,1,.82,3.26v4.27a4.81,4.81,0,0,1-.82,3.26,4.4,4.4,0,0,1-3.25,1H159.29v6.51h10.79a4.43,4.43,0,0,1,3.26,1,4.8,4.8,0,0,1,.81,3.25V69.9a4.82,4.82,0,0,1-.81,3.26,4.43,4.43,0,0,1-3.26,1H159.29v6.51H176.8a4.4,4.4,0,0,1,3.25,1,4.81,4.81,0,0,1,.82,3.26v4.27a4.83,4.83,0,0,1-.82,3.26,4.4,4.4,0,0,1-3.25,1H145.86A7.89,7.89,0,0,1,142.4,92.09Z" transform="translate(-32.7 -40.8)"/><path class="cls-2" d="M193.89,92.7c-3.86-1-7.12-2.24-9.36-4.07a2.55,2.55,0,0,1-1.42-2,2.19,2.19,0,0,1,.61-1.42L188,78.45c.41-.61.82-1,1.43-1a2.72,2.72,0,0,1,1.42.62A28,28,0,0,0,197,80.69a27,27,0,0,0,6.71,1c1.83,0,3.26-.2,4.07-.82A2.53,2.53,0,0,0,209,78.66a3.5,3.5,0,0,0-1.62-2.85,40.77,40.77,0,0,0-5.7-2.65c-5.09-2-9-4.07-12-6.72a12.19,12.19,0,0,1-4.27-9.76c0-5.09,1.83-9.16,5.49-11.81S199.39,41,205.49,41a56.28,56.28,0,0,1,11,1,20,20,0,0,1,7.93,3.46,2.57,2.57,0,0,1,1.43,2,2.24,2.24,0,0,1-.61,1.42L221,55.86c-.4.61-.81,1-1.42,1a3.47,3.47,0,0,1-1.43-.61,20.41,20.41,0,0,0-4.27-2,15.19,15.19,0,0,0-5.29-.81,7.6,7.6,0,0,0-4.07.81,2.47,2.47,0,0,0-1.43,2.45,2.59,2.59,0,0,0,1,2.23,24.58,24.58,0,0,0,2.44,1.63c1,.41,2.65,1.22,4.89,2a44.05,44.05,0,0,1,8.75,4.27A15.88,15.88,0,0,1,225,71.74a15,15,0,0,1,1.63,7.32,12.87,12.87,0,0,1-5.09,10.79c-3.46,2.85-8.34,4.07-15.06,4.07A42.3,42.3,0,0,1,193.89,92.7Z" transform="translate(-32.7 -40.8)"/><path class="cls-2" d="M241.52,92.09a4.78,4.78,0,0,1-1-3.26v-34H229.71a4.42,4.42,0,0,1-3.25-1,4.83,4.83,0,0,1-.82-3.26V46.3a4.81,4.81,0,0,1,.82-3.26,4.42,4.42,0,0,1,3.25-1H269.2a4.4,4.4,0,0,1,3.25,1,4.76,4.76,0,0,1,.82,3.26v4.27a4.78,4.78,0,0,1-.82,3.26,4.4,4.4,0,0,1-3.25,1H258.41v34a5.19,5.19,0,0,1-1,3.26c-.61.81-1.83,1-3.66,1H245A5,5,0,0,1,241.52,92.09Z" transform="translate(-32.7 -40.8)"/><path class="cls-2" d="M276.53,92.09a4.73,4.73,0,0,1-1-3.26V46.5a5.13,5.13,0,0,1,1-3.26c.61-.81,1.83-1,3.46-1H297.9c7.53,0,13,1.43,16.28,4.48s5.09,7.53,5.09,13.44a20.23,20.23,0,0,1-1.84,9.15,11.89,11.89,0,0,1-5.69,5.7l6.92,14.86a3,3,0,0,1,.4,1.42,1.84,1.84,0,0,1-.61,1.43,1.82,1.82,0,0,1-1.42.61H304.41a3.93,3.93,0,0,1-1.83-.41,2.05,2.05,0,0,1-1-1.22l-5.5-13.84h-2.64V89a5.16,5.16,0,0,1-1,3.25c-.61.82-1.83,1-3.66,1h-9A6.77,6.77,0,0,1,276.53,92.09Zm19.94-26.87A5.85,5.85,0,0,0,300.34,64c1-.81,1.42-2,1.42-3.86s-.4-3.06-1.42-3.87a5.85,5.85,0,0,0-3.87-1.22h-5.09V65.22Z" transform="translate(-32.7 -40.8)"/><path class="cls-2" d="M328.63,87.2C324,82.52,321.71,76,321.71,67.46S324,52.4,328.63,47.72,340,40.8,348.78,40.8s15.67,2.24,20.15,6.92,6.92,11.19,6.92,19.74-2.24,15.06-6.92,19.74-11.4,6.92-20.15,6.92S333.11,91.89,328.63,87.2Zm27.27-9.15c1.43-2.24,2.24-5.91,2.24-10.59s-.81-8.34-2.24-10.58-3.87-3.46-7.12-3.46-5.7,1.22-7.13,3.46-2.23,5.9-2.23,10.58.61,8.14,2.23,10.59c1.43,2.23,3.87,3.46,7.13,3.46S354.48,80.49,355.9,78.05Z" transform="translate(-32.7 -40.8)"/><path class="cls-2" d="M385.82,92.7c-3.87-1-7.12-2.24-9.36-4.07a2.57,2.57,0,0,1-1.43-2,2.24,2.24,0,0,1,.61-1.42l4.28-6.72c.4-.61.81-1,1.42-1a2.71,2.71,0,0,1,1.43.62,27.87,27.87,0,0,0,6.1,2.64,27,27,0,0,0,6.72,1c1.83,0,3.26-.2,4.07-.82a2.56,2.56,0,0,0,1.22-2.23,3.49,3.49,0,0,0-1.63-2.85,40.2,40.2,0,0,0-5.7-2.65c-5.08-2-8.95-4.07-11.8-6.72a12.2,12.2,0,0,1-4.28-9.76c0-5.09,1.84-9.16,5.5-11.81S391.52,41,397.62,41a56.1,56.1,0,0,1,11,1,23.54,23.54,0,0,1,7.94,3.46,2.57,2.57,0,0,1,1.43,2,2.24,2.24,0,0,1-.61,1.42l-4.28,6.92c-.4.61-.81,1-1.42,1a2.68,2.68,0,0,1-1.43-.61,20.41,20.41,0,0,0-4.27-2,15.19,15.19,0,0,0-5.29-.81,7.6,7.6,0,0,0-4.07.81,2.47,2.47,0,0,0-1.43,2.45,3.26,3.26,0,0,0,1,2.23,12.55,12.55,0,0,0,2.44,1.63c1,.41,2.65,1.22,4.89,2a44.05,44.05,0,0,1,8.75,4.27,18.58,18.58,0,0,1,4.88,4.89,15,15,0,0,1,1.63,7.32,12.87,12.87,0,0,1-5.09,10.79c-3.46,2.85-8.34,4.07-15.06,4.07A43,43,0,0,1,385.82,92.7Z" transform="translate(-32.7 -40.8)"/></g></g></svg>