<?xml version="1.0" encoding="utf-8"?>
<!-- Generator: Adobe Illustrator 23.0.0, SVG Export Plug-In . SVG Version: 6.00 Build 0)  -->
<svg version="1.1" id="Capa_1" xmlns="http://www.w3.org/2000/svg" xmlns:xlink="http://www.w3.org/1999/xlink" x="0px" y="0px"
	 viewBox="0 0 500 500" style="enable-background:new 0 0 500 500;" xml:space="preserve">
<style type="text/css">
	.st0{fill:#384F13;}
	.st1{fill:#89B749;}
	.st2{fill:#FFFFFF;}
</style>
<circle class="st0" cx="305.8" cy="157" r="140"/>
<circle class="st0" cx="160" cy="261.4" r="140"/>
<circle class="st0" cx="342" cy="327.6" r="140"/>
<g>
	<g>
		<circle class="st1" cx="269" cy="253.4" r="194.8"/>
	</g>
	<g>
		<g>
			<path class="st2" d="M152,249.5c-1-0.9-1.4-2.4-1.3-4.4l0.9-57.2c-0.1-1.9,0.6-3.4,1.6-4.4c0.9-1,2.4-1.4,4.7-1.4l30.7,0.6
				c8.1,0.1,14.3,1.9,18,5.5c3.7,3.6,5.7,8.5,5.4,15c0,3.1-0.7,5.6-2.1,8s-3.1,4-5.3,4.7c6.1,2.2,8.9,7,8.7,14.3
				c0,6.4-2.4,11.5-7,15.3c-4.6,3.9-11.2,5.9-19.8,5.4l-29.9-0.6C154.3,250.9,152.7,250.5,152,249.5z M184.3,234.5
				c1.5,0.1,2.6-0.4,3.5-1.4c0.9-1,1.3-2,1.3-3.7c0-1.7-0.5-2.8-1.2-3.6c-1-0.9-2-1.3-3.5-1.4l-9.4-0.3l-0.2,10.2L184.3,234.5z
				 M183,208.8c3.1,0,4.7-1.4,4.6-4.4c0-3.1-1.5-4.3-4.6-4.5l-7.6-0.1l-0.2,9L183,208.8z"/>
			<path class="st2" d="M219.3,250.6c-1-0.9-1.4-2.4-1.3-4.4l1.1-57.3c-0.1-1.9,0.6-3.4,1.6-4.4c0.9-1,2.4-1.4,4.7-1.4l41.7,0.7
				c2.3,0,3.6,0.5,4.4,1.6c0.8,1,1.1,2.3,1,4.5l-0.1,5.6c-0.2,2-0.5,3.6-1.2,4.5c-0.7,0.9-2.2,1.3-4.4,1.3l-23.7-0.5l-0.1,8.7
				l14.7,0.3c2.3,0,3.6,0.5,4.4,1.6s1.1,2.3,1,4.5l-0.2,5.4c-0.2,2-0.5,3.6-1.3,4.3c-0.7,0.9-2.2,1.3-4.4,1.3l-14.7-0.3l-0.1,8.7
				l23.4,0.4c2.3,0,3.6,0.5,4.4,1.6c0.8,1,1.1,2.3,1,4.5l-0.1,5.6c-0.2,2-0.5,3.6-1.3,4.3c-0.8,0.7-2.2,1.3-4.4,1.3l-41.7-0.7
				C221.8,252.3,220.3,251.6,219.3,250.6z"/>
			<path class="st2" d="M288.9,252.9c-5.2-1.5-9.4-3.4-12.7-5.5c-1.3-1-2-1.9-1.9-2.8c0-0.6,0.3-1.2,0.7-2l6.1-9
				c0.7-0.9,1.3-1.4,1.8-1.4c0.6,0,1.2,0.3,2,0.7c2.5,1.6,5.1,2.6,8.2,3.7c3.1,0.7,6.2,1.3,9.1,1.6c2.5-0.1,4.3-0.4,5.4-0.9
				c1.1-0.5,1.7-1.7,1.6-3c0.1-1.5-0.7-2.7-2.1-3.8c-1.6-0.9-4.1-2.2-7.6-3.7c-6.8-2.6-12-5.8-15.8-9.3c-3.9-3.5-5.7-7.9-5.5-13.3
				c0-7,2.6-12.2,7.7-15.7c4.8-3.4,11.5-5.2,19.8-4.9c5.6,0.1,10.7,0.8,14.8,1.7c4.2,1.1,7.7,2.8,10.7,5c1.3,1,2,1.9,1.9,2.8
				c0,0.6-0.3,1.2-0.7,2l-6.1,9c-0.7,0.9-1.3,1.4-1.8,1.4c-0.3-0.1-1-0.4-1.8-0.8c-1.7-1.2-3.5-2-5.8-2.8c-2.2-0.6-4.7-1.1-7.2-1.1
				c-2.3,0-4.1,0.3-5.4,0.9c-1.1,0.5-2,1.8-1.9,3.1c0,1.1,0.5,2.3,1.2,3.1c0.9,0.7,1.9,1.6,3.2,2.1c1.1,0.6,3.6,1.7,6.7,3
				c4.9,2.1,9,4.2,11.8,6.1c2.9,2,5,4.1,6.5,6.7c1.5,2.6,2,6,2.2,9.9c-0.1,6.2-2.4,10.9-7.1,14.5c-4.7,3.6-11.4,5.4-20.5,5.2
				C299.7,255.1,294.1,254.4,288.9,252.9z"/>
			<path class="st2" d="M353,253.1c-1-0.9-1.4-2.4-1.3-4.4l0.8-45.6l-14.7-0.3c-2.3,0-3.6-0.5-4.4-1.6s-1.1-2.3-1-4.5l0.1-5.6
				c0.2-2,0.5-3.6,1.3-4.3c0.7-0.9,2.2-1.3,4.4-1.3l53.3,1c2.3,0,3.6,0.5,4.4,1.6s1.1,2.3,1,4.5l-0.1,5.6c-0.2,2-0.5,3.6-1.3,4.3
				c-0.7,0.9-2.2,1.3-4.4,1.3l-14.7-0.3l-0.8,45.6c0.1,1.9-0.6,3.4-1.6,4.4c-0.9,1-2.4,1.4-4.9,1.5l-12.1-0.1
				C355.4,254.7,354,254,353,253.1z"/>
		</g>
	</g>
	<g>
		<g>
			<path class="st2" d="M176.7,332.6c-1-0.9-1.4-2.4-1.3-4.4l1.1-57.8c-0.1-1.9,0.6-3.4,1.6-4.4c0.9-1,2.4-1.4,4.7-1.4l23.4,0.4
				c24,0.4,36,12.3,35.5,35.5c-0.1,11.5-3.4,20-9.6,25.8c-6.2,5.7-15.2,8.6-27.1,8.3l-23.4-0.4C179.4,334.1,177.7,333.5,176.7,332.6
				z M206.3,317.1c3.7,0.2,6.5-1.1,8.3-3.7c1.6-2.5,2.5-7.1,2.8-13.6c0.3-6.6-0.5-11.2-2.3-13.7c-1.8-2.5-4.3-3.8-8.3-3.9l-6-0.2
				l-0.6,34.7L206.3,317.1z"/>
			<path class="st2" d="M247.8,333.9c-1-0.9-1.4-2.4-1.3-4.4l1.1-57.8c-0.1-1.9,0.6-3.4,1.6-4.4c0.9-1,2.4-1.4,4.7-1.4L266,266
				c2.3,0,3.9,0.7,4.8,1.3c1,0.9,1.4,2.4,1.3,4.4l-1.1,57.8c0.1,1.9-0.6,3.4-1.6,4.4s-2.6,1.5-4.9,1.5l-12.1-0.1
				C250.1,335.3,248.8,334.8,247.8,333.9z"/>
			<path class="st2" d="M279.4,334.6c-1-0.9-1.4-2.4-1.3-4.4l1.1-57.8c-0.1-1.9,0.6-3.4,1.6-4.4c0.9-1,2.4-1.4,4.7-1.4l23.4,0.4
				c24,0.4,36,12.3,35.5,35.5c-0.1,11.5-3.4,20-9.8,25.9c-6.2,5.7-15.2,8.6-27.1,8.3l-23.4-0.4C282,335.9,280.4,335.5,279.4,334.6z
				 M308.9,318.9c4,0.1,6.5-1.1,8.3-3.7c1.9-2.6,2.5-7.1,2.8-13.6c0.3-6.6-0.5-11.2-2.3-13.7s-4.3-3.8-8.3-3.9l-6-0.2l-0.6,34.7
				L308.9,318.9z"/>
		</g>
	</g>
</g>
</svg>
