<?xml version="1.0" encoding="utf-8"?>
<!-- Generator: Adobe Illustrator 23.0.0, SVG Export Plug-In . SVG Version: 6.00 Build 0)  -->
<svg version="1.1" id="Capa_1" xmlns="http://www.w3.org/2000/svg" xmlns:xlink="http://www.w3.org/1999/xlink" x="0px" y="0px"
	 viewBox="0 0 500 500" style="enable-background:new 0 0 500 500;" xml:space="preserve">
<style type="text/css">
	.st0{fill:#0E2C49;}
	.st1{fill:#798EAB;}
	.st2{fill:#FFFFFF;}
</style>
<circle class="st0" cx="299.8" cy="161" r="140"/>
<circle class="st0" cx="154" cy="265.4" r="140"/>
<circle class="st0" cx="336" cy="331.6" r="140"/>
<g>
	<g>
		<circle class="st1" cx="258.2" cy="256.6" r="204.4"/>
	</g>
	<g>
		<g>
			<path class="st2" d="M153.5,185.7c-0.6-0.6-0.8-1.5-0.8-2.7l-0.3-35.5c-0.1-1.2,0.4-2.2,0.8-2.6c0.5-0.4,1.5-0.8,3.1-1l19,0
				c5-0.1,8.9,1,11.2,3.2s3.6,5.1,3.5,9.2c0.1,1.8-0.4,3.6-1.1,5.1c-0.7,1.5-1.9,2.4-3.1,3c3.8,1.4,5.5,4.2,5.8,8.7
				c0.1,3.8-1.4,7-4.2,9.5c-2.9,2.5-6.9,3.7-12.2,3.7l-18.4,0C155.1,186.7,154.1,186.3,153.5,185.7z M173.4,175.9
				c0.8,0.1,1.5-0.2,2.1-0.8c0.6-0.6,0.9-1.4,0.7-2.3c0.1-0.8-0.3-1.9-0.7-2.4c-0.4-0.5-1.1-0.8-2.2-1l-5.9,0l0.2,6.2L173.4,175.9z
				 M172.2,160.1c2,0,2.8-1.1,3-2.8c0.2-1.7-1.1-2.8-2.9-2.7l-4.7,0l0.1,5.6L172.2,160.1z"/>
			<path class="st2" d="M195.3,185.6c-0.6-0.6-0.8-1.5-0.8-2.7l-0.3-35.5c-0.1-1.2,0.4-2.2,0.8-2.6c0.6-0.6,1.5-0.8,3.1-1l26.1-0.1
				c1.4,0.1,2.3,0.1,2.8,1c0.5,0.8,0.8,1.5,0.8,2.7l-0.1,3.5c0.1,1.2-0.1,2.3-0.6,2.7c-0.6,0.6-1.3,0.9-2.7,0.8l-14.7,0.2l0,5.3
				l9.1,0c1.4,0.1,2.3,0.1,2.8,1c0.5,0.8,0.8,1.5,0.8,2.7l-0.1,3.5c0.1,1.2-0.1,2.3-0.6,2.7c-0.6,0.6-1.3,0.9-2.7,0.8l-9.1,0l0,5.3
				l14.6,0.1c1.4,0.1,2.3,0.1,2.8,1c0.5,0.8,0.8,1.5,0.8,2.7l-0.1,3.5c0.1,1.2-0.1,2.3-0.6,2.7c-0.6,0.6-1.3,0.9-2.7,0.8l-25.8,0.2
				C196.8,186.3,196,186.2,195.3,185.6z"/>
			<path class="st2" d="M238.4,186.1c-3.1-0.8-5.9-1.8-7.9-3.2c-0.9-0.7-1.2-1.1-1.3-1.7c-0.1-0.4,0.1-0.8,0.5-1.2l3.7-5.7
				c0.2-0.5,0.7-0.9,1.3-0.9c0.2,0.1,0.8,0.1,1.2,0.5c1.4,0.9,3.3,1.8,5.2,2c1.8,0.5,3.7,0.8,5.8,0.8c1.4,0.1,2.7-0.2,3.2-0.6
				c0.8-0.5,1-1,0.9-2c0.1-0.8-0.4-1.7-1.3-2.3s-2.6-1.4-4.9-2.2c-4.3-1.6-7.6-3.4-10.1-5.6c-2.4-1.9-3.7-4.9-3.6-8.3
				c-0.1-4.4,1.6-7.5,4.3-9.8c3-2.2,7-3.3,12.3-3.3c3.5,0.1,6.6,0.3,9.3,0.9c2.7,0.6,4.9,1.6,6.6,2.9c0.9,0.7,1.2,1.1,1.3,1.7
				c0.1,0.4-0.1,0.8-0.5,1.2l-3.7,5.7c-0.3,0.7-0.7,0.9-1.3,0.9c-0.2-0.1-0.7-0.3-1.2-0.5c-1.1-0.8-2.1-1.2-3.7-1.6
				c-1.6-0.4-2.9-0.7-4.4-0.5c-1.4-0.1-2.7,0.2-3.2,0.6c-0.8,0.5-1,1-1.2,2.1c-0.1,0.8,0.3,1.3,0.9,1.9c0.6,0.6,1.1,0.8,2.1,1.2
				c0.7,0.3,2.2,1,4.2,1.8c3.2,1.4,5.6,2.5,7.5,3.6c1.8,1.1,3.2,2.6,4,4.1c0.8,1.5,1.4,3.5,1.4,6.2c0.1,3.8-1.3,6.8-4.1,9.3
				c-2.8,2.3-7.1,3.6-12.6,3.4C245.3,187.1,241.7,186.7,238.4,186.1z"/>
			<path class="st2" d="M278.3,185.1c-0.6-0.6-0.8-1.5-0.8-2.7l-0.2-28.5l-9.1,0c-1.4-0.1-2.3-0.1-2.8-1c-0.5-0.8-0.8-1.5-0.8-2.7
				l0.1-3.5c-0.1-1.2,0.1-2.3,0.6-2.7c0.6-0.6,1.3-0.9,2.7-0.8l33.1-0.2c1.4,0.1,2.3,0.1,2.8,1c0.5,0.8,0.8,1.5,0.8,2.7l-0.1,3.5
				c0.1,1.2-0.1,2.3-0.6,2.7c-0.6,0.6-1.3,0.9-2.7,0.8l-9.1,0l0.2,28.5c0.1,1.2-0.4,2.2-0.8,2.6c-0.5,0.4-1.5,0.8-3.1,1l-7.4,0.2
				C279.7,186,278.9,186,278.3,185.1z"/>
		</g>
	</g>
	<g>
		<g>
			<path class="st2" d="M151.5,230.8c-4.2-3.6-6.4-9.3-6.4-16.6c0-7.3,1.9-12.9,6-16.7c4-3.8,9.8-5.6,17.5-5.7
				c3.5,0.1,6.6,0.3,9.3,0.9c2.7,0.6,4.9,1.6,6.7,2.7c0.5,0.2,0.8,0.9,0.9,1.3c0.1,0.4-0.1,0.8-0.7,1.5l-3,5.4
				c-0.3,0.7-0.7,0.9-1.3,0.9c-0.2-0.1-0.8-0.1-1.5-0.7c-1.2-0.5-2.4-1.1-3.8-1.4c-1.3-0.3-2.8-0.4-4.4-0.5
				c-3.5-0.1-6.1,1.1-8.1,3.1s-2.8,4.9-2.7,8.7c0.1,3.8,1.1,6.6,3.1,8.7c2,2.1,4.8,3,8.3,3.1c3-0.1,5.8-0.6,8.2-1.9
				c0.7-0.3,1.1-0.4,1.4-0.5c0.6,0,0.7,0.3,1.1,0.8l3.1,5.5c0.3,0.7,0.7,1.2,0.4,1.7c0,0.6-0.3,0.7-0.8,1.1c-1.7,1.3-4,2.3-6.8,2.8
				s-5.7,1-9.3,1.1C161.7,236.2,155.8,234.4,151.5,230.8z"/>
			<path class="st2" d="M186.4,234c-0.1-0.4,0.1-0.8,0.3-1.3l15.5-37.5c0.4-1,0.7-1.5,1.1-1.8s1.2-0.7,2-0.6l6.7,0.1
				c0.8,0.1,1.7,0.2,2.1,0.6s1,1,1.3,1.7l15.8,37.5c0.3,0.7,0.4,1.1,0.3,1.3c-0.1,0.8-0.5,1.2-1.5,1.4l-11.7,0
				c-1.2,0.1-2.1-0.6-2.5-1.7l-1.5-4.5l-11.1,0l-1.5,4.6c-0.2,1.1-1.1,1.8-2.6,1.8l-11.7,0C186.7,235.3,186.3,234.9,186.4,234z
				 M211.5,218.9l-2.4-7.8l-2.3,7.8L211.5,218.9z"/>
			<path class="st2" d="M235.7,234.3c-0.6-0.6-0.8-1.5-0.8-2.7l-0.3-35.5c-0.1-1.2,0.4-2.2,0.8-2.6c0.5-0.4,1.5-0.8,3.1-1l7.4-0.2
				c1.4,0.1,2.5,0.2,2.9,0.7c0.6,0.6,0.8,1.5,0.8,2.7l0.2,28.5l14.6,0.1c1.4,0.1,2.3,0.1,2.8,1c0.5,0.8,0.8,1.5,0.8,2.7l-0.1,3.5
				c0.1,1.2-0.1,2.3-0.6,2.7c-0.6,0.6-1.3,0.9-2.7,0.8l-25.8,0.2C237.2,235,236.1,234.8,235.7,234.3z"/>
			<path class="st2" d="M270.6,234.1c-0.6-0.6-0.8-1.5-0.8-2.7l-0.3-35.5c-0.1-1.2,0.4-2.2,0.8-2.6c0.5-0.4,1.5-0.8,3.1-1l7.4-0.2
				c1.4,0.1,2.5,0.2,2.9,0.7c0.6,0.6,0.8,1.5,0.8,2.7l0.2,28.5l14.6,0.1c1.4,0.1,2.3,0.1,2.8,1c0.5,0.8,0.8,1.5,0.8,2.7l-0.1,3.5
				c0.1,1.2-0.1,2.3-0.6,2.7c-0.6,0.6-1.3,0.9-2.7,0.8l-25.8,0.2C272,235,271.2,234.6,270.6,234.1z"/>
		</g>
	</g>
	<g>
		<g>
			<path class="st2" d="M156.3,282.6c-4.2-3.6-6.4-9.3-6.4-16.6c0-7.3,1.9-12.9,6-16.7c4-3.8,9.8-5.6,17.5-5.7
				c3.5,0.1,6.6,0.3,9.3,0.9c2.7,0.6,4.9,1.6,6.7,2.7c0.5,0.2,0.8,0.9,0.9,1.3c0.1,0.4-0.1,0.8-0.7,1.5l-3,5.4
				c-0.3,0.7-0.7,0.9-1.3,0.9c-0.2-0.1-0.8-0.1-1.5-0.7c-1.2-0.5-2.4-1.1-3.8-1.4c-1.3-0.3-2.8-0.4-4.4-0.5
				c-3.5-0.1-6.1,1.1-8.1,3.1s-2.8,4.9-2.7,8.7c0.1,3.8,1.1,6.6,3.1,8.7c2,2.1,4.8,3,8.3,3.1c3-0.1,5.8-0.6,8.2-1.9
				c0.7-0.3,1.1-0.4,1.4-0.5c0.6,0,0.7,0.3,1.1,0.8l3.1,5.5c0.3,0.7,0.7,1.2,0.4,1.7c0,0.6-0.3,0.7-0.8,1.1c-1.7,1.3-4,2.3-6.8,2.8
				c-2.7,0.8-5.7,1-9.3,1.1C166.3,288.3,160.4,286.5,156.3,282.6z"/>
			<path class="st2" d="M194.7,286.3c-0.6-0.6-0.8-1.5-0.8-2.7l-0.3-35.5c-0.1-1.2,0.4-2.2,0.8-2.6s1.5-0.8,3.1-1l26.1-0.1
				c1.4,0.1,2.3,0.1,2.8,1c0.5,0.8,0.8,1.5,0.8,2.7l-0.1,3.5c0.1,1.2-0.1,2.3-0.6,2.7c-0.6,0.6-1.3,0.9-2.7,0.8l-14.7,0.2l0,5.3
				l9.1,0c1.4,0.1,2.3,0.1,2.8,1s0.8,1.5,0.8,2.7l-0.1,3.5c0.1,1.2-0.1,2.3-0.6,2.7c-0.6,0.6-1.3,0.9-2.7,0.8l-9.1,0l0,5.3l14.6,0.1
				c1.4,0.1,2.3,0.1,2.8,1c0.5,0.8,0.8,1.5,0.8,2.7l-0.1,3.5c0.1,1.2-0.1,2.3-0.6,2.7c-0.6,0.6-1.3,0.9-2.7,0.8l-25.8,0.2
				C196.3,287.3,195.3,286.9,194.7,286.3z"/>
			<path class="st2" d="M230.7,286.2c-0.6-0.6-0.8-1.5-0.8-2.7l-0.3-35.5c-0.1-1.2,0.4-2.2,0.8-2.6c0.6-0.6,1.5-0.8,3.1-1l5.9,0
				c0.8,0.1,1.4,0.1,2.2,0.4c0.5,0.2,0.9,0.7,1.5,1.2l11.5,16.8l-0.1-15c-0.1-1.2,0.4-2.2,0.8-2.6s1.5-0.8,3.1-1l7.4-0.2
				c1.4,0.1,2.5,0.2,2.9,0.7c0.6,0.6,0.8,1.5,0.8,2.7l0.3,35.5c0.1,1.2-0.4,2.2-0.8,2.6c-0.6,0.6-1.5,0.8-3.1,1l-5.9,0
				c-0.8-0.1-1.4-0.1-2.2-0.4c-0.7-0.3-0.9-0.7-1.5-1.2l-11.5-16.8l0.1,15c0.1,1.2-0.4,2.2-0.8,2.6c-0.6,0.6-1.5,0.8-3.1,1l-7.4,0.2
				C232.3,287.2,231.3,286.8,230.7,286.2z"/>
			<path class="st2" d="M284.7,286c-0.6-0.6-0.8-1.5-0.8-2.7l-0.2-28.5l-9.1,0c-1.4-0.1-2.3-0.1-2.8-1c-0.5-0.8-0.8-1.5-0.8-2.7
				l0.1-3.5c-0.1-1.2,0.1-2.3,0.6-2.7c0.6-0.6,1.3-0.9,2.7-0.8l33.1-0.2c1.4,0.1,2.3,0.1,2.8,1c0.5,0.8,0.8,1.5,0.8,2.7l-0.1,3.5
				c0.1,1.2-0.1,2.3-0.6,2.7c-0.6,0.6-1.3,0.9-2.7,0.8l-9.1,0l0.2,28.5c0.1,1.2-0.4,2.2-0.8,2.6c-0.5,0.4-1.5,0.8-3.1,1l-7.4,0.2
				C286.3,287,285.3,286.5,284.7,286z"/>
			<path class="st2" d="M314.2,285.9c-0.6-0.6-0.8-1.5-0.8-2.7l-0.3-35.5c-0.1-1.2,0.4-2.2,0.8-2.6c0.5-0.4,1.5-0.8,3.1-1l26.1-0.1
				c1.4,0.1,2.3,0.1,2.8,1s0.8,1.5,0.8,2.7l-0.1,3.5c0.1,1.2-0.1,2.3-0.6,2.7c-0.6,0.6-1.3,0.9-2.7,0.8l-14.7,0.2l0,5.3l9.1,0
				c1.4,0.1,2.3,0.1,2.8,1c0.5,0.8,0.8,1.5,0.8,2.7l-0.1,3.5c0.1,1.2-0.1,2.3-0.6,2.7c-0.6,0.6-1.3,0.9-2.7,0.8l-9.1,0l0,5.3
				l14.6,0.1c1.4,0.1,2.3,0.1,2.8,1c0.5,0.8,0.8,1.5,0.8,2.7l-0.1,3.5c0.1,1.2-0.1,2.3-0.6,2.7c-0.6,0.6-1.3,0.9-2.7,0.8l-25.8,0.2
				C315.6,286.8,314.6,286.4,314.2,285.9z"/>
			<path class="st2" d="M350,285.8c-0.6-0.6-0.8-1.5-0.8-2.7l-0.3-35.5c-0.1-1.2,0.4-2.2,0.8-2.6c0.5-0.4,1.5-0.8,3.1-1l15-0.1
				c6.2-0.2,10.8,1.3,13.8,3.8c3,2.5,4.2,6.3,4.3,11.3c0.1,3-0.5,5.6-1.6,7.5c-1,2.2-2.6,3.8-4.8,4.9l5.8,12.5
				c0.1,0.4,0.3,0.7,0.4,1.1c0,0.6-0.1,0.8-0.5,1.2c-0.5,0.4-0.8,0.5-1.3,0.3l-10.5,0c-0.6,0-1.2,0.1-1.7-0.2
				c-0.5-0.2-0.6-0.6-0.8-0.9l-4.7-11.8l-2,0l-0.1,9.3c0.1,1.2-0.4,2.2-0.8,2.6c-0.5,0.4-1.5,0.8-3.1,1l-7.4,0.2
				C351.7,286.5,350.6,286.3,350,285.8z M366.5,263c1.4,0.1,2.5-0.4,3.1-1c0.6-0.6,1.1-1.8,1.2-3.3c0.1-1.4-0.4-2.5-1.2-3.2
				c-0.9-0.7-1.8-1.1-3-1.1l-4.4,0.1l0,8.5L366.5,263z"/>
		</g>
	</g>
	<g>
		<g>
			<path class="st2" d="M157.7,343.2c-0.6-0.6-0.8-1.5-0.8-2.7l-0.3-35.5c-0.1-1.2,0.4-2.2,0.8-2.6s1.5-0.8,3.1-1l15-0.1
				c6.2-0.2,10.8,1.3,13.8,3.8c3,2.5,4.2,6.3,4.3,11.3c0.1,5-1.3,8.8-4.2,11.3c-2.9,2.5-7.5,3.7-13.7,3.8l-3.8,0.1l0,9.1
				c0.1,1.2-0.4,2.2-0.8,2.6c-0.6,0.6-1.5,0.8-3.1,1l-7.4,0.2C159,344.1,158.3,343.8,157.7,343.2z M174.1,320.7
				c1.4,0.1,2.5-0.4,3.1-1c0.6-0.6,1.1-1.8,1.2-3.3c0.1-1.4-0.4-2.5-1.2-3.2c-0.9-0.7-1.8-1.1-3-1.1l-4.4,0.1l0,8.5L174.1,320.7z"/>
			<path class="st2" d="M196.3,343.2c-0.6-0.6-0.8-1.5-0.8-2.7l-0.3-35.5c-0.1-1.2,0.4-2.2,0.8-2.6s1.5-0.8,3.1-1l15-0.1
				c6.2-0.2,10.8,1.3,13.8,3.8c3,2.5,4.2,6.3,4.3,11.3c0.1,3-0.5,5.6-1.6,7.5c-1,2.2-2.6,3.8-4.8,4.9l5.8,12.5
				c0.1,0.4,0.3,0.7,0.4,1.1c0,0.6-0.1,0.8-0.5,1.2s-0.8,0.5-1.3,0.3l-10.5,0c-0.6,0-1.2,0.1-1.7-0.2c-0.5-0.2-0.6-0.6-0.8-0.9
				l-4.7-11.8l-2,0l-0.1,9.3c0.1,1.2-0.4,2.2-0.8,2.6s-1.5,0.8-3.1,1l-7.4,0.2C197.8,343.8,196.9,343.7,196.3,343.2z M212.8,320.7
				c1.4,0.1,2.5-0.4,3.1-1c0.6-0.6,1.1-1.8,1.2-3.3c0.1-1.4-0.4-2.5-1.2-3.2c-0.9-0.7-1.8-1.1-3-1.1l-4.4,0.1l0,8.5L212.8,320.7z"/>
			<path class="st2" d="M239.8,338.8c-3.9-3.8-5.8-9.3-5.9-16.4c-0.1-7.1,1.8-12.6,5.6-16.5c3.8-3.9,9.6-5.7,17-5.9
				c7.3,0,13.1,2,17,5.8c3.9,3.8,5.8,9.3,5.9,16.4c0.1,7.1-1.8,12.6-5.6,16.5s-9.6,5.7-17,5.9C249.1,344.7,243.6,342.8,239.8,338.8z
				 M262.5,331.1c1.1-1.8,1.8-4.7,1.9-8.8c-0.1-3.8-0.7-7-1.9-8.8c-1.2-2-3.1-2.9-6-3c-2.6,0-4.7,0.8-6,2.9s-1.8,4.7-1.9,8.8
				c0.1,3.8,0.7,7,1.9,8.8c1.3,1.7,3.1,2.9,6,3C259.4,334.1,261.3,333.2,262.5,331.1z"/>
		</g>
	</g>
</g>
</svg>
