<?xml version="1.0" encoding="utf-8"?>
<!-- Generator: Adobe Illustrator 23.0.0, SVG Export Plug-In . SVG Version: 6.00 Build 0)  -->
<svg version="1.1" id="Capa_1" xmlns="http://www.w3.org/2000/svg" xmlns:xlink="http://www.w3.org/1999/xlink" x="0px" y="0px"
	 viewBox="0 0 500 500" style="enable-background:new 0 0 500 500;" xml:space="preserve">
<style type="text/css">
	.st0{fill:#0E2C49;}
	.st1{fill:#728FAB;}
	.st2{fill:#FFFFFF;}
</style>
<circle class="st0" cx="299.8" cy="161" r="140"/>
<circle class="st0" cx="154" cy="265.4" r="140"/>
<circle class="st0" cx="336" cy="331.6" r="140"/>
<g>
	<g>
		<ellipse class="st1" cx="257.4" cy="252.7" rx="204.6" ry="198.4"/>
	</g>
</g>
<g>
	<g>
		<path class="st2" d="M109.9,236.6c-0.8-0.8-1.1-1.9-1.1-3.2v-42.6c0-1.3,0.3-2.7,1.1-3.2c0.8-0.5,1.9-1.1,3.5-1.1H137
			c6.4,0,11,1.3,13.9,4s4.6,6.4,4.6,11.3c0,2.1-0.5,4.3-1.6,5.9c-1.1,1.9-2.4,2.9-4,3.8c4.6,1.6,7,5.1,7,10.5
			c0,4.8-1.6,8.6-5.1,11.5s-8.6,4.6-15.3,4.6h-23.1C111.8,237.7,110.7,237.4,109.9,236.6z M134.6,225.1c1.1,0,1.9-0.3,2.7-1.1
			s1.1-1.6,1.1-2.7c0-1.3-0.3-2.1-1.1-2.7c-0.8-0.5-1.6-1.1-2.7-1.1h-7.2v7.5L134.6,225.1L134.6,225.1z M133.2,205.8
			c2.4,0,3.5-1.1,3.5-3.2c0-2.1-1.1-3.2-3.5-3.2h-5.9v6.7L133.2,205.8L133.2,205.8z"/>
		<path class="st2" d="M161.9,236.6c-0.8-0.8-1.1-1.9-1.1-3.2v-42.6c0-1.3,0.3-2.7,1.1-3.2s1.9-1.1,3.5-1.1h32.2
			c1.6,0,2.7,0.3,3.5,1.1c0.5,0.8,0.8,1.9,0.8,3.2v4.3c0,1.6-0.3,2.7-0.8,3.2c-0.5,0.8-1.6,1.1-3.5,1.1h-18.2v6.4h11.3
			c1.6,0,2.7,0.3,3.5,1.1c0.5,0.8,0.8,1.9,0.8,3.2v4c0,1.6-0.3,2.7-0.8,3.2c-0.5,0.8-1.6,1.1-3.5,1.1h-11.3v6.4h18.2
			c1.6,0,2.7,0.3,3.5,1.1s0.8,1.9,0.8,3.2v4.3c0,1.6-0.3,2.7-0.8,3.2s-1.6,1.1-3.5,1.1h-32.2C163.8,237.7,162.5,237.4,161.9,236.6z"
			/>
		<path class="st2" d="M215.3,237.4c-4-1.1-7.2-2.1-9.9-4c-1.1-0.8-1.6-1.3-1.6-2.1c0-0.5,0.3-0.8,0.5-1.3l4.6-7
			c0.5-0.5,0.8-1.1,1.3-1.1s0.8,0.3,1.3,0.5c1.9,1.1,4,1.9,6.4,2.7s4.8,0.8,7,0.8c1.9,0,3.2-0.3,4-0.8s1.3-1.3,1.3-2.4
			s-0.5-2.1-1.6-2.7c-1.1-0.8-3.2-1.6-5.9-2.7c-5.4-1.9-9.4-4.3-12.3-6.7c-2.9-2.4-4.6-5.9-4.6-9.9c0-5.4,1.9-9.1,5.6-11.8
			c3.8-2.7,8.8-4,15.3-4c4.6,0,8.3,0.3,11.3,1.1c3.2,0.8,5.9,1.9,8.3,3.5c1.1,0.8,1.6,1.3,1.6,2.1c0,0.5-0.3,0.8-0.5,1.3l-4.6,7
			c-0.5,0.8-0.8,1.1-1.3,1.1c-0.3,0-0.8-0.3-1.3-0.5c-1.3-0.8-2.7-1.3-4.6-1.9c-1.6-0.5-3.5-0.8-5.6-0.8c-1.9,0-3.2,0.3-4,0.8
			s-1.3,1.3-1.3,2.4c0,0.8,0.3,1.6,1.1,2.1c0.5,0.5,1.3,1.1,2.4,1.6c1.1,0.5,2.7,1.1,5.1,2.1c4,1.6,7,2.9,9.1,4.3
			c2.1,1.3,4,2.9,5.1,4.8c1.1,1.9,1.6,4.3,1.6,7.2c0,4.6-1.9,8-5.4,11c-3.5,2.9-8.8,4.3-15.6,4.3
			C223.6,238.8,219.3,238.5,215.3,237.4z"/>
		<path class="st2" d="M264.6,236.6c-0.8-0.8-1.1-1.9-1.1-3.2v-34.1h-11.3c-1.6,0-2.7-0.3-3.5-1.1c-0.5-0.8-0.8-1.9-0.8-3.2v-4.3
			c0-1.6,0.3-2.7,0.8-3.2c0.5-0.8,1.6-1.1,3.5-1.1h41c1.6,0,2.7,0.3,3.5,1.1s0.8,1.9,0.8,3.2v4.3c0,1.6-0.3,2.7-0.8,3.2
			s-1.6,1.1-3.5,1.1h-11.3v34.1c0,1.3-0.3,2.7-1.1,3.2c-0.8,0.5-1.9,1.1-3.8,1.1h-9.1C266.5,237.7,265.2,237.4,264.6,236.6z"/>
	</g>
</g>
<g>
	<g>
		<path class="st2" d="M107.5,295.6c-0.8-0.8-1.1-1.9-1.1-3.2v-42.6c0-1.3,0.3-2.7,1.1-3.2c0.8-0.5,1.9-1.1,3.5-1.1h9.4
			c1.9,0,2.9,0.3,3.8,1.1c0.8,0.8,1.1,1.9,1.1,3.2v42.6c0,1.3-0.3,2.7-1.1,3.2c-0.8,0.5-1.9,1.1-3.8,1.1H111
			C109.4,296.7,108,296.4,107.5,295.6z"/>
		<path class="st2" d="M131.6,295.6c-0.8-0.8-1.1-1.9-1.1-3.2v-42.6c0-1.3,0.3-2.7,1.1-3.2s1.9-1.1,3.5-1.1h18.5
			c7.8,0,13.4,1.6,16.9,4.6s5.4,7.5,5.4,13.4s-1.9,10.5-5.4,13.4s-9.1,4.6-16.9,4.6H149v11c0,1.3-0.3,2.7-1.1,3.2s-1.9,1.1-3.8,1.1
			h-9.4C133.5,296.7,132.2,296.4,131.6,295.6z M152,268.6c1.6,0,2.9-0.5,4-1.3s1.3-2.1,1.3-3.8c0-1.9-0.5-2.9-1.3-4s-2.1-1.3-4-1.3
			h-5.4v10.2h5.4V268.6z"/>
		<path class="st2" d="M189.8,295.6c-0.8-0.8-1.1-1.9-1.1-3.2v-34.1h-11.3c-1.6,0-2.7-0.3-3.5-1.1c-0.5-0.8-0.8-1.9-0.8-3.2v-4.3
			c0-1.6,0.3-2.7,0.8-3.2c0.5-0.8,1.6-1.1,3.5-1.1h41c1.6,0,2.7,0.3,3.5,1.1c0.5,0.8,0.8,1.9,0.8,3.2v4.3c0,1.6-0.3,2.7-0.8,3.2
			c-0.5,0.8-1.6,1.1-3.5,1.1h-11.3v34.1c0,1.3-0.3,2.7-1.1,3.2s-1.9,1.1-3.8,1.1H193C191.7,296.7,190.4,296.4,189.8,295.6z"/>
		<path class="st2" d="M226.3,295.6c-0.8-0.8-1.1-1.9-1.1-3.2v-42.6c0-1.3,0.3-2.7,1.1-3.2s1.9-1.1,3.5-1.1h18.5
			c7.8,0,13.4,1.6,16.9,4.6c3.5,2.9,5.4,7.5,5.4,13.4c0,3.5-0.5,6.7-1.9,9.1c-1.3,2.4-3.2,4.6-5.9,5.9l7.2,15
			c0.3,0.5,0.3,0.8,0.3,1.3s-0.3,1.1-0.5,1.3c-0.3,0.3-0.8,0.5-1.6,0.5H255c-0.8,0-1.6,0-1.9-0.3c-0.5-0.3-0.8-0.5-1.1-1.1
			l-5.6-13.9h-2.7v11.3c0,1.3-0.3,2.7-1.1,3.2s-1.9,1.1-3.8,1.1h-9.4C228.2,296.7,226.8,296.4,226.3,295.6z M246.7,268.6
			c1.6,0,2.9-0.5,4-1.3s1.3-2.1,1.3-3.8c0-1.9-0.5-2.9-1.3-4s-2.1-1.3-4-1.3h-5.4v10.2h5.4V268.6z"/>
		<path class="st2" d="M286.4,295.6c-3.8-1.6-6.7-3.8-8.8-7c-2.1-2.9-3.2-6.4-3.2-10.7v-28.2c0-1.3,0.3-2.7,1.1-3.2
			c0.8-0.5,1.9-1.1,3.8-1.1h9.4c1.9,0,2.9,0.3,3.8,1.1c0.8,0.8,1.1,1.9,1.1,3.2v28.4c0,2.4,0.5,4,1.9,5.4c1.3,1.1,2.9,1.9,5.1,1.9
			c2.1,0,3.8-0.5,5.1-1.9c1.3-1.1,1.9-2.9,1.9-5.4v-28.4c0-1.3,0.3-2.7,1.1-3.2c0.8-0.5,1.9-1.1,3.8-1.1h9.4c1.9,0,2.9,0.3,3.8,1.1
			c0.8,0.8,1.1,1.9,1.1,3.2v28.2c0,4-1.1,7.8-3.2,10.7c-2.1,2.9-5.1,5.4-8.8,7s-8.3,2.4-13.4,2.4C295.7,298.1,290.1,297,286.4,295.6
			z"/>
		<path class="st2" d="M331.1,295.6c-0.8-0.8-1.1-1.9-1.1-3.2v-42.6c0-1.3,0.3-2.4,1.1-3.2c0.8-0.8,1.9-1.1,3.8-1.1h7.5
			c1.1,0,1.9,0,2.4,0.5c0.5,0.3,1.1,0.8,1.6,1.6l13.9,20.1v-18c0-1.3,0.3-2.7,1.1-3.2c0.8-0.5,1.9-1.1,3.8-1.1h9.4
			c1.9,0,2.9,0.3,3.8,1.1c0.8,0.8,1.1,1.9,1.1,3.2v42.6c0,1.3-0.3,2.4-1.1,3.2c-0.8,0.8-1.9,1.1-3.8,1.1h-7.5c-1.1,0-1.9,0-2.4-0.5
			c-0.5-0.3-1.1-0.8-1.6-1.6l-13.9-20.1v18c0,1.3-0.3,2.4-1.1,3.2s-1.9,1.1-3.8,1.1h-9.4C333,296.7,331.9,296.4,331.1,295.6z"/>
		<path class="st2" d="M385.8,295.6c-0.8-0.8-1.1-1.9-1.1-3.2v-42.6c0-1.3,0.3-2.7,1.1-3.2s1.9-1.1,3.8-1.1h9.4
			c1.9,0,2.9,0.3,3.8,1.1c0.8,0.8,1.1,1.9,1.1,3.2v12.3l9.7-15.6c0.3-0.5,0.5-0.8,1.1-0.8c0.3-0.3,1.1-0.3,1.9-0.3h14.5
			c0.5,0,1.1,0.3,1.3,0.5c0.3,0.3,0.5,0.8,0.5,1.3s-0.3,1.1-0.5,1.6l-14.7,22l15.6,22.8c0.3,0.5,0.5,1.1,0.5,1.6s-0.3,0.8-0.5,1.3
			c-0.3,0.3-0.8,0.5-1.3,0.5h-14.5c-0.8,0-1.3,0-1.9-0.3c-0.3-0.3-0.8-0.5-1.1-0.8L404,279.8V293c0,1.3-0.3,2.7-1.1,3.2
			c-0.8,0.5-1.9,1.1-3.8,1.1h-9.4C387.7,296.7,386.4,296.4,385.8,295.6z"/>
	</g>
</g>
</svg>
