<?xml version="1.0" encoding="utf-8"?>
<!-- Generator: Adobe Illustrator 23.0.0, SVG Export Plug-In . SVG Version: 6.00 Build 0)  -->
<svg version="1.1" id="Capa_1" xmlns="http://www.w3.org/2000/svg" xmlns:xlink="http://www.w3.org/1999/xlink" x="0px" y="0px"
	 viewBox="0 0 500 500" style="enable-background:new 0 0 500 500;" xml:space="preserve">
<style type="text/css">
	.st0{fill:#0E2C49;}
	.st1{fill:#447AB7;}
	.st2{fill:#FFFFFF;}
</style>
<circle class="st0" cx="299.8" cy="161" r="140"/>
<circle class="st0" cx="154" cy="265.4" r="140"/>
<circle class="st0" cx="336" cy="331.6" r="140"/>
<g>
	<path class="st1" d="M249.4,445c-107.7,0-195.1-87.3-195.1-195.1S141.7,54.8,249.4,54.8"/>
	<path class="st1" d="M249.4,54.8c107.7,0,195.1,87.3,195.1,195.1S357.2,445,249.4,445"/>
	<g>
		<g>
			<path class="st2" d="M134.2,174.8c-0.5-0.5-0.8-1.5-0.8-2.5v-34c0-1.3,0.3-2,0.8-2.5s1.5-0.8,2.8-0.8h18c4.8,0,8.4,1,10.7,3
				s3.6,5.1,3.6,8.9c0,1.8-0.3,3.3-1.3,4.8s-1.8,2.3-3,2.8c3.6,1.3,5.3,4.1,5.3,8.4c0,3.8-1.3,6.8-4.1,9.1
				c-2.5,2.3-6.6,3.6-11.7,3.6h-17.8C135.8,175.5,134.8,175.3,134.2,174.8z M152.3,150.2c1.8,0,2.8-0.8,2.8-2.5s-1-2.5-2.8-2.5h-4.6
				v5.3L152.3,150.2L152.3,150.2z M153.3,165.4c0.8,0,1.5-0.3,2-0.8s0.8-1.3,0.8-2.3s-0.3-1.8-0.8-2.3s-1.3-0.8-2-0.8h-5.6v6.1
				C147.7,165.4,153.3,165.4,153.3,165.4z"/>
			<path class="st2" d="M174.3,174.8c-0.5-0.5-0.8-1.5-0.8-2.5v-34c0-1.3,0.3-2,0.8-2.5s1.5-0.8,2.8-0.8H202c1.3,0,2,0.3,2.5,0.8
				s0.8,1.5,0.8,2.5v3.3c0,1.3-0.3,2-0.8,2.5s-1.3,0.8-2.5,0.8h-14v5.1h8.6c1.3,0,2,0.3,2.5,0.8s0.8,1.5,0.8,2.5v3.3
				c0,1.3-0.3,2-0.8,2.5s-1.3,0.8-2.5,0.8H188v5.1h14c1.3,0,2,0.3,2.5,0.8s0.8,1.5,0.8,2.5v3.3c0,1.3-0.3,2-0.8,2.5
				s-1.3,0.8-2.5,0.8h-24.6C175.6,175.5,174.8,175.3,174.3,174.8z"/>
			<path class="st2" d="M215.4,175.3c-3-0.8-5.6-1.8-7.6-3.3c-0.8-0.5-1.3-1-1.3-1.5c0-0.3,0.3-0.8,0.5-1l3.6-5.6
				c0.3-0.5,0.8-0.8,1-0.8c0.3,0,0.8,0.3,1.3,0.5c1.5,0.8,3,1.5,4.8,2s3.6,0.8,5.3,0.8c1.5,0,2.5-0.3,3.3-0.5c0.8-0.5,1-1,1-1.8
				c0-1-0.5-1.8-1.3-2.3c-1-0.5-2.3-1.3-4.6-2c-4.1-1.5-7.1-3.3-9.6-5.3s-3.6-4.6-3.6-7.9c0-4.1,1.5-7.4,4.3-9.4s6.8-3,11.7-3
				c3.6,0,6.3,0.3,8.9,0.8c2.5,0.5,4.6,1.5,6.3,2.8c0.8,0.5,1.3,1,1.3,1.5c0,0.3-0.3,0.8-0.5,1l-3.6,5.6c-0.3,0.5-0.8,0.8-1,0.8
				c-0.3,0-0.5-0.3-1.3-0.5c-1-0.8-2-1.3-3.3-1.5c-1.3-0.5-2.8-0.8-4.3-0.8c-1.3,0-2.5,0.3-3.3,0.5c-0.8,0.3-1,1-1,2
				c0,0.8,0.3,1.3,0.8,1.8s1,0.8,1.8,1.3c0.8,0.3,2,0.8,4.1,1.8c3,1.3,5.3,2.3,7.1,3.6c1.8,1,3,2.3,3.8,4.1c0.8,1.5,1.3,3.6,1.3,5.8
				c0,3.6-1.3,6.6-4.1,8.6s-6.6,3.3-12.2,3.3C221.8,176.3,218.5,176.1,215.4,175.3z"/>
			<path class="st2" d="M253.5,174.8c-0.5-0.5-0.8-1.5-0.8-2.5v-27.1h-8.6c-1.3,0-2-0.3-2.5-0.8s-0.8-1.5-0.8-2.5v-3.3
				c0-1.3,0.3-2,0.8-2.5s1.3-0.8,2.5-0.8h31.7c1.3,0,2,0.3,2.5,0.8s0.8,1.5,0.8,2.5v3.3c0,1.3-0.3,2-0.8,2.5s-1.3,0.8-2.5,0.8h-8.6
				v27.1c0,1.3-0.3,2-0.8,2.5s-1.5,0.8-2.8,0.8h-7.1C254.7,175.5,254,175.3,253.5,174.8z"/>
		</g>
	</g>
	<g>
		<g>
			<path class="st2" d="M133.5,217.7c-4.1-3.6-6.1-8.9-6.1-16s2-12.4,5.8-16s9.4-5.3,16.7-5.3c3.3,0,6.1,0.3,8.6,1s4.8,1.5,6.3,2.8
				c0.5,0.3,0.8,0.8,0.8,1.3c0,0.3-0.3,0.8-0.5,1.5l-3,5.1c-0.3,0.5-0.8,0.8-1.3,0.8c-0.3,0-0.8-0.3-1.3-0.5c-1-0.5-2.3-1-3.6-1.3
				s-2.5-0.5-4.3-0.5c-3.3,0-5.8,1-7.6,2.8s-2.5,4.6-2.5,8.4c0,3.6,1,6.3,2.8,8.4c1.8,2,4.6,2.8,7.9,2.8c2.8,0,5.6-0.5,7.9-1.8
				c0.8-0.3,1-0.5,1.3-0.5c0.5,0,0.8,0.3,1.3,0.8l3,5.1c0.3,0.8,0.5,1,0.5,1.5s-0.3,0.8-0.8,1.3c-1.8,1.3-3.8,2-6.3,2.8
				s-5.6,1-8.9,1C143.1,223,137.5,221.2,133.5,217.7z"/>
			<path class="st2" d="M171,217.4c-3.8-3.6-5.6-8.9-5.6-15.7s1.8-11.9,5.6-15.7c3.8-3.6,9.1-5.6,16.2-5.6c7.1,0,12.4,1.8,16.2,5.6
				s5.6,8.9,5.6,15.7s-1.8,11.9-5.6,15.7s-9.1,5.6-16.2,5.6C180.2,223,174.6,221.2,171,217.4z M192.6,210.3c1.3-1.8,1.8-4.6,1.8-8.4
				c0-3.8-0.5-6.6-1.8-8.4c-1.3-1.8-3-2.8-5.6-2.8s-4.6,1-5.6,2.8s-1.8,4.6-1.8,8.4c0,3.8,0.5,6.6,1.8,8.4c1.3,1.8,3,2.8,5.6,2.8
				S191.6,212.1,192.6,210.3z"/>
			<path class="st2" d="M212.6,221.2c-0.5-0.5-0.8-1.5-0.8-2.5v-34c0-1.3,0.3-2,0.8-2.5s1.5-0.8,2.8-0.8h5.6c0.8,0,1.5,0,2,0.3
				s1,0.8,1.3,1.3l10.9,16v-14.2c0-1.3,0.3-2,0.8-2.5s1.5-0.8,2.8-0.8h7.1c1.3,0,2.3,0.3,2.8,0.8s0.8,1.5,0.8,2.5v34
				c0,1.3-0.3,2-0.8,2.5s-1.5,0.8-2.8,0.8h-5.6c-0.8,0-1.5,0-2-0.3s-1-0.8-1.3-1.3l-10.9-16V219c0,1.3-0.3,2-0.8,2.5
				s-1.5,0.8-2.8,0.8h-7.1C213.9,222,213.1,221.7,212.6,221.2z"/>
			<path class="st2" d="M263.9,221.2c-0.5-0.5-0.8-1.5-0.8-2.5v-27.1h-8.6c-1.3,0-2-0.3-2.5-0.8s-0.8-1.5-0.8-2.5V185
				c0-1.3,0.3-2,0.8-2.5s1.3-0.8,2.5-0.8h31.7c1.3,0,2,0.3,2.5,0.8s0.8,1.5,0.8,2.5v3.3c0,1.3-0.3,2-0.8,2.5s-1.3,0.8-2.5,0.8h-8.6
				v27.1c0,1.3-0.3,2-0.8,2.5s-1.5,0.8-2.8,0.8h-7.1C265.4,222,264.6,221.7,263.9,221.2z"/>
			<path class="st2" d="M282.7,221c0-0.3,0-0.8,0.3-1.3l15-35.8c0.3-0.8,0.8-1.5,1.3-1.8s1-0.5,2-0.5h6.6c0.8,0,1.5,0.3,2,0.5
				c0.5,0.3,0.8,1,1.3,1.8l14.7,35.8c0.3,0.5,0.3,1,0.3,1.3c0,0.8-0.5,1.3-1.3,1.3h-11.2c-1.3,0-2-0.5-2.3-1.5l-1.5-4.3h-10.7
				l-1.3,4.3c-0.3,1-1,1.5-2.3,1.5h-11.2C282.9,222,282.7,221.7,282.7,221z M306.5,206.5l-2.3-7.4l-2.3,7.4H306.5z"/>
			<path class="st2" d="M330.3,217.7c-4.1-3.6-6.1-8.9-6.1-16s2-12.4,5.8-16s9.4-5.3,16.7-5.3c3.3,0,6.1,0.3,8.6,1
				c2.5,0.8,4.6,1.5,6.3,2.8c0.5,0.3,0.8,0.8,0.8,1.3c0,0.3-0.3,0.8-0.5,1.5l-3,5.1c-0.3,0.5-0.8,0.8-1.3,0.8
				c-0.3,0-0.8-0.3-1.3-0.5c-1-0.5-2.3-1-3.6-1.3c-1.3-0.3-2.5-0.5-4.3-0.5c-3.3,0-5.8,1-7.6,2.8c-1.8,1.8-2.5,4.6-2.5,8.4
				c0,3.6,1,6.3,2.8,8.4c1.8,2,4.6,2.8,7.9,2.8c2.8,0,5.6-0.5,7.9-1.8c0.8-0.3,1-0.5,1.3-0.5c0.5,0,0.8,0.3,1.3,0.8l3,5.1
				c0.3,0.8,0.5,1,0.5,1.5s-0.3,0.8-0.8,1.3c-1.8,1.3-3.8,2-6.3,2.8s-5.6,1-8.9,1C340,223,334.4,221.2,330.3,217.7z"/>
			<path class="st2" d="M375,221.2c-0.5-0.5-0.8-1.5-0.8-2.5v-27.1h-8.6c-1.3,0-2-0.3-2.5-0.8s-0.8-1.5-0.8-2.5V185
				c0-1.3,0.3-2,0.8-2.5s1.3-0.8,2.5-0.8h31.7c1.3,0,2,0.3,2.5,0.8s0.8,1.5,0.8,2.5v3.3c0,1.3-0.3,2-0.8,2.5s-1.3,0.8-2.5,0.8h-8.6
				v27.1c0,1.3-0.3,2-0.8,2.5s-1.5,0.8-2.8,0.8H378C376.5,222,375.5,221.7,375,221.2z"/>
		</g>
	</g>
	<g>
		<g>
			<path class="st2" d="M134,266.1c-4.1-3.6-6.1-8.9-6.1-16s2-12.4,5.8-16s9.4-5.3,16.7-5.3c3.3,0,6.1,0.3,8.6,1s4.8,1.5,6.3,2.8
				c0.5,0.3,0.8,0.8,0.8,1.3c0,0.3-0.3,0.8-0.5,1.5l-3,5.1c-0.3,0.5-0.8,0.8-1.3,0.8c-0.3,0-0.8-0.3-1.3-0.5c-1-0.5-2.3-1-3.6-1.3
				s-2.5-0.5-4.3-0.5c-3.3,0-5.8,1-7.6,2.8s-2.5,4.6-2.5,8.4c0,3.6,1,6.3,2.8,8.4s4.6,2.8,7.9,2.8c2.8,0,5.6-0.5,7.9-1.8
				c0.8-0.3,1-0.5,1.3-0.5c0.5,0,0.8,0.3,1.3,0.8l3,5.1c0.3,0.8,0.5,1,0.5,1.5s-0.3,0.8-0.8,1.3c-1.8,1.3-3.8,2-6.3,2.8
				s-5.6,1-8.9,1C143.6,271.4,138.1,269.7,134,266.1z"/>
			<path class="st2" d="M170.8,269.7c-0.5-0.5-0.8-1.5-0.8-2.5v-33.7c0-1.3,0.3-2,0.8-2.5s1.5-0.8,2.8-0.8h24.9c1.3,0,2,0.3,2.5,0.8
				s0.8,1.5,0.8,2.5v3.3c0,1.3-0.3,2-0.8,2.5s-1.3,0.8-2.5,0.8h-14v5.1h8.6c1.3,0,2,0.3,2.5,0.8s0.8,1.5,0.8,2.5v3.3
				c0,1.3-0.3,2-0.8,2.5c-0.5,0.5-1.3,0.8-2.5,0.8h-8.6v5.1h14c1.3,0,2,0.3,2.5,0.8s0.8,1.5,0.8,2.5v3.3c0,1.3-0.3,2-0.8,2.5
				s-1.3,0.8-2.5,0.8h-24.6C172,270.4,171.3,270.2,170.8,269.7z"/>
			<path class="st2" d="M205,269.7c-0.5-0.5-0.8-1.5-0.8-2.5v-34c0-1.3,0.3-2,0.8-2.5s1.5-0.8,2.8-0.8h5.6c0.8,0,1.5,0,2,0.3
				s1,0.8,1.3,1.3l10.9,16v-14.2c0-1.3,0.3-2,0.8-2.5s1.5-0.8,2.8-0.8h7.1c1.3,0,2.3,0.3,2.8,0.8s0.8,1.5,0.8,2.5v34
				c0,1.3-0.3,2-0.8,2.5s-1.5,0.8-2.8,0.8h-5.6c-0.8,0-1.5,0-2-0.3s-1-0.8-1.3-1.3l-10.9-16v14.5c0,1.3-0.3,2-0.8,2.5
				s-1.5,0.8-2.8,0.8h-7.1C206.5,270.4,205.5,270.2,205,269.7z"/>
			<path class="st2" d="M256.5,269.7c-0.5-0.5-0.8-1.5-0.8-2.5V240h-8.6c-1.3,0-2-0.3-2.5-0.8s-0.8-1.5-0.8-2.5v-3.3
				c0-1.3,0.3-2,0.8-2.5s1.3-0.8,2.5-0.8h31.7c1.3,0,2,0.3,2.5,0.8s0.8,1.5,0.8,2.5v3.3c0,1.3-0.3,2-0.8,2.5s-1.3,0.8-2.5,0.8h-8.6
				v27.1c0,1.3-0.3,2-0.8,2.5s-1.5,0.8-2.8,0.8h-7.1C258,270.4,257,270.2,256.5,269.7z"/>
			<path class="st2" d="M284.7,269.7c-0.5-0.5-0.8-1.5-0.8-2.5v-33.7c0-1.3,0.3-2,0.8-2.5s1.5-0.8,2.8-0.8h24.9c1.3,0,2,0.3,2.5,0.8
				s0.8,1.5,0.8,2.5v3.3c0,1.3-0.3,2-0.8,2.5s-1.3,0.8-2.5,0.8h-14v5.1h8.6c1.3,0,2,0.3,2.5,0.8s0.8,1.5,0.8,2.5v3.3
				c0,1.3-0.3,2-0.8,2.5c-0.5,0.5-1.3,0.8-2.5,0.8h-8.6v5.1h14c1.3,0,2,0.3,2.5,0.8s0.8,1.5,0.8,2.5v3.3c0,1.3-0.3,2-0.8,2.5
				s-1.3,0.8-2.5,0.8h-24.6C285.9,270.4,285.2,270.2,284.7,269.7z"/>
			<path class="st2" d="M318.9,269.7c-0.5-0.5-0.8-1.5-0.8-2.5v-33.7c0-1.3,0.3-2,0.8-2.5s1.5-0.8,2.8-0.8h14.2
				c6.1,0,10.4,1.3,13.2,3.6c2.8,2.3,4.1,5.8,4.1,10.7c0,2.8-0.5,5.3-1.5,7.4c-1,2-2.5,3.6-4.6,4.6l5.6,11.9c0.3,0.3,0.3,0.8,0.3,1
				c0,0.5-0.3,0.8-0.5,1c-0.3,0.3-0.8,0.5-1.3,0.5H341c-0.8,0-1.3,0-1.5-0.3c-0.5-0.3-0.8-0.5-0.8-1l-4.3-11.2h-2v8.9
				c0,1.3-0.3,2-0.8,2.5s-1.5,0.8-2.8,0.8h-7.1C320.4,270.4,319.4,270.2,318.9,269.7z M334.7,248.1c1.3,0,2.3-0.3,3-1
				c0.8-0.8,1-1.8,1-3c0-1.5-0.5-2.5-1-3c-0.8-0.8-1.8-1-3-1h-4.1v8.1h4.1V248.1z"/>
		</g>
	</g>
	<g>
		<g>
			<path class="st2" d="M135,323.7c-0.5-0.5-0.8-1.5-0.8-2.5v-33.7c0-1.3,0.3-2,0.8-2.5s1.5-0.8,2.8-0.8H152
				c6.1,0,10.4,1.3,12.9,3.6c2.8,2.3,4.1,6.1,4.1,10.7s-1.3,8.4-4.1,10.7c-2.8,2.3-7.1,3.6-12.9,3.6h-3.6v8.6c0,1.3-0.3,2-0.8,2.5
				s-1.5,0.8-2.8,0.8h-7.1C136.5,324.7,135.5,324.5,135,323.7z M151,302.4c1.3,0,2.3-0.3,3-1c0.8-0.8,1-1.8,1-3c0-1.5-0.3-2.5-1-3
				c-0.8-0.8-1.8-1-3-1h-4.1v8.1L151,302.4L151,302.4z"/>
			<path class="st2" d="M171.8,323.7c-0.5-0.5-0.8-1.5-0.8-2.5v-33.7c0-1.3,0.3-2,0.8-2.5s1.5-0.8,2.8-0.8h14.2
				c6.1,0,10.4,1.3,12.9,3.6c2.8,2.3,4.1,6.1,4.1,10.7c0,2.8-0.5,5.3-1.5,7.4c-1,2-2.5,3.6-4.6,4.6l5.6,11.9c0.3,0.3,0.3,0.8,0.3,1
				c0,0.5-0.3,0.8-0.5,1c-0.3,0.3-0.8,0.5-1.3,0.5h-10.1c-0.8,0-1.3,0-1.5-0.3c-0.3-0.3-0.8-0.5-0.8-1l-4.3-11.2h-2v8.9
				c0,1.3-0.3,2-0.8,2.5s-1.5,0.8-2.8,0.8h-7.1C173.3,324.7,172.6,324.5,171.8,323.7z M187.8,302.4c1.3,0,2.3-0.3,3-1
				c0.8-0.8,1-1.8,1-3c0-1.5-0.3-2.5-1-3c-0.8-0.8-1.8-1-3-1h-4.1v8.1L187.8,302.4L187.8,302.4z"/>
			<path class="st2" d="M213.4,319.9c-3.8-3.6-5.6-8.9-5.6-15.7s1.8-11.9,5.6-15.7c3.8-3.6,9.1-5.6,16.2-5.6
				c7.1,0,12.4,1.8,16.2,5.6c3.8,3.8,5.6,8.9,5.6,15.7s-1.8,11.9-5.6,15.7c-3.8,3.8-9.1,5.6-16.2,5.6S217.2,323.7,213.4,319.9z
				 M235.2,312.8c1.3-1.8,1.8-4.6,1.8-8.4s-0.5-6.6-1.8-8.4s-3-2.8-5.6-2.8s-4.6,1-5.6,2.8s-1.8,4.6-1.8,8.4s0.5,6.6,1.8,8.4
				s3,2.8,5.6,2.8S233.9,314.6,235.2,312.8z"/>
		</g>
	</g>
</g>
</svg>
