<?xml version="1.0" encoding="utf-8"?>
<!-- Generator: Adobe Illustrator 23.0.0, SVG Export Plug-In . SVG Version: 6.00 Build 0)  -->
<svg version="1.1" id="Capa_1" xmlns="http://www.w3.org/2000/svg" xmlns:xlink="http://www.w3.org/1999/xlink" x="0px" y="0px"
	 viewBox="0 0 500 500" style="enable-background:new 0 0 500 500;" xml:space="preserve">
<style type="text/css">
	.st0{fill:#0E2C49;}
	.st1{fill:#447AB7;}
	.st2{fill:#FFFFFF;}
</style>
<circle class="st0" cx="299.8" cy="161" r="140"/>
<circle class="st0" cx="154" cy="265.4" r="140"/>
<circle class="st0" cx="336" cy="331.6" r="140"/>
<g>
	<g>
		<circle class="st1" cx="260.2" cy="256.3" r="186.9"/>
	</g>
	<g>
		<g>
			<path class="st2" d="M145.8,244c-1-0.9-1.4-2.3-1.2-4.3l0.1-55.7c-0.1-1.9,0.4-3.2,1.3-4.2c0.9-1,2.3-1.4,4.5-1.4l29.7-0.1
				c7.9,0,13.9,1.8,17.7,5.1c3.8,3.4,5.6,8.2,5.6,14.5c0.1,3-0.6,5.5-2,7.8c-1.4,2.3-3,3.9-5,4.9c5.8,1.9,8.6,6.5,8.8,13.8
				c0,6.3-2.3,11.2-6.4,15.1c-4.1,3.9-10.9,5.8-19.3,5.7l-29.2,0.1C148,245.4,146.5,245,145.8,244z M175.4,203.9
				c3-0.1,4.5-1.4,4.5-4.3c-0.1-3-1.5-4.2-4.5-4.4l-7.4,0l0.1,8.7L175.4,203.9z M176.9,228.8c1.3-0.1,2.5-0.4,3.4-1.4
				c0.9-1,1.2-2,1.3-3.6c0-1.6-0.5-2.8-1.3-3.8c-0.8-1-2-1.2-3.4-1.4l-9.2,0.1l0.1,9.8L176.9,228.8z"/>
			<path class="st2" d="M211.2,244c-1-0.9-1.4-2.3-1.2-4.3l-0.1-55.3c-0.1-1.9,0.4-3.2,1.3-4.2c0.9-1,2.3-1.4,4.5-1.4l40.6-0.1
				c2.2,0,3.5,0.5,4.2,1.3s1.1,2.2,1.2,4.3l-0.1,5.5c0.1,1.9-0.3,3.4-1.2,4.4s-2.1,1.3-4.3,1.2l-22.9,0.1l0,8.5l14.2,0
				c2.2,0,3.5,0.5,4.2,1.3c0.6,0.8,1.2,2.4,1.2,4.3l0,5.2c-0.1,2-0.3,3.4-1.2,4.4c-0.9,1-2.1,1.3-4.3,1.2l-14.2,0l0,8.5l22.9-0.1
				c2.2,0,3.5,0.5,4.2,1.3c0.6,0.8,1.2,2.4,1.2,4.3l-0.1,5.5c0.1,1.9-0.3,3.4-1.2,4.4s-2.1,1.3-4.3,1.2l-40.6,0.1
				C213.8,245.5,212.2,244.9,211.2,244z"/>
			<path class="st2" d="M278.9,245.2c-5-1.4-9.3-2.9-12.3-5.3c-1.3-1-2-1.8-2-2.6c0-0.5,0.2-1.2,0.7-2l5.8-9
				c0.7-0.9,1.2-1.4,1.8-1.4c0.5,0,1.2,0.2,2,0.7c2.3,1.4,5,2.5,8.2,3.4c3.1,0.7,6,1.2,8.8,1.2c2.4-0.1,4.2-0.4,5.3-0.9
				s1.7-1.6,1.6-2.9c0-1.6-0.7-2.7-2-3.7c-1.5-0.9-3.9-1.9-7.4-3.5c-6.7-2.5-11.9-5.5-15.6-8.6c-3.8-3.4-5.8-7.6-5.6-12.9
				c0-6.8,2.4-12.1,7.1-15.4s11.2-5.1,19.1-5.1c5.7,0,10.3,0.5,14.4,1.6c4.1,1.1,7.4,2.4,10.4,4.6c1.3,1,2,1.8,2,2.6
				c0,0.5-0.2,1.2-0.7,2l-5.8,9c-0.7,0.9-1.2,1.4-1.8,1.4c-0.3-0.1-1-0.3-1.7-0.8c-1.6-1.1-3.4-1.9-5.6-2.5c-2.2-0.6-4.6-1.1-7-1
				c-2.2,0-4,0.3-5.3,0.9c-1.3,0.6-1.9,1.7-1.8,3.1c0,1.1,0.5,2.2,1.2,3c0.9,0.7,1.8,1.6,3.2,2c1.3,0.5,3.4,1.4,6.4,2.6
				c5,2,8.6,3.8,11.7,5.6c2.7,1.7,4.9,3.9,6.4,6.5s2.2,5.8,2.1,9.6c0.1,5.9-2.3,10.6-6.5,14.3c-4.2,3.7-11,5.5-19.8,5.4
				C289.5,246.9,284,246.2,278.9,245.2z"/>
			<path class="st2" d="M341.3,243.9c-1-0.9-1.4-2.3-1.2-4.3l0-44.4l-14.2,0c-2.2,0-3.5-0.5-4.2-1.3c-0.6-0.8-1.1-2.2-1.2-4.3
				l0.1-5.5c-0.1-1.9,0.3-3.4,1.2-4.4s2.1-1.3,4.3-1.2l51.8,0c2.2,0,3.5,0.5,4.2,1.3c0.6,0.8,1.1,2.2,1.2,4.3l-0.1,5.5
				c0.1,1.9-0.3,3.4-1.2,4.4c-0.9,1-2.1,1.3-4.3,1.2l-14.2,0l0,44.4c0.1,1.9-0.4,3.2-1.3,4.2c-0.9,1-2.3,1.4-4.8,1.5l-11.8-0.1
				C343.7,245.5,342,244.9,341.3,243.9z"/>
		</g>
	</g>
	<g>
		<g>
			<path class="st2" d="M166,325.5c-1-0.9-1.4-2.3-1.2-4.3l0.1-55.7c-0.1-1.9,0.4-3.2,1.3-4.2c0.9-1,2.3-1.4,4.5-1.4l23.4,0
				c9.8-0.1,17,1.9,21.4,5.9c4.6,3.8,6.9,9.8,6.7,17.5c-0.1,7.7-2.2,13.6-6.6,17.6c-4.5,3.8-11.7,5.9-21.4,5.9l-5.9,0.1l0.1,14.4
				c0.1,1.9-0.4,3.2-1.3,4.2c-0.9,1-2.3,1.4-4.8,1.5l-11.8-0.1C168.4,327,166.7,326.5,166,325.5z M192,290.4c2.2,0,3.8-0.7,5-1.6
				c1.1-1.1,1.7-2.7,1.7-4.9c0-2.2-0.6-4.1-1.9-5.1c-1.3-1-2.9-1.6-4.9-1.7l-6.8,0l-0.1,13.4L192,290.4z"/>
			<path class="st2" d="M226.6,325.6c-1-0.9-1.4-2.3-1.2-4.3l0.1-55.7c-0.1-1.9,0.4-3.2,1.3-4.2c0.9-1,2.3-1.4,4.5-1.4l29.7-0.1
				c7.9,0,13.9,1.8,17.7,5.1c3.8,3.4,5.6,8.2,5.6,14.5c0.1,3-0.6,5.5-2,7.8c-1.4,2.3-3,3.9-5,4.9c5.8,1.9,8.6,6.5,8.8,13.8
				c0,6.3-2.3,11.2-6.4,15.1s-10.9,5.8-19.3,5.7l-29.2,0.1C228.9,327,227.2,326.4,226.6,325.6z M256.1,285.3c3-0.1,4.5-1.4,4.5-4.3
				c-0.1-3-1.6-4.4-4.5-4.4l-7.4,0l0.1,8.7L256.1,285.3z M257.7,310.4c1.3-0.1,2.5-0.4,3.4-1.4s1.2-2,1.3-3.6c0-1.6-0.5-2.8-1.3-3.8
				c-0.8-1-2-1.2-3.4-1.4l-9.2,0.1l0.1,9.8L257.7,310.4z"/>
			<path class="st2" d="M285,326.2c-0.4-0.3-0.6-0.8-0.7-1.6c0-0.5,0.2-1.2,0.7-2l22.5-30.4l-20.8-28c-0.6-0.8-0.6-1.3-0.7-2.1
				c0-0.5,0.2-1.2,0.7-1.4c0.4-0.2,1-0.8,1.9-0.6l18.3,0c1.1,0,1.8,0.2,2.3,0.3c0.4,0.3,1.1,0.6,1.4,1.2l10,13.5l9.9-13.5
				c0.3-0.4,0.9-1,1.3-1.2c0.4-0.2,1.2-0.3,2.3-0.3l18.3,0c0.8-0.1,1.4,0.1,1.7,0.8s0.6,0.8,0.7,1.6c0,0.5-0.2,1.2-0.7,2l-20.7,27.9
				l22.7,30.3c0.6,0.8,0.6,1.3,0.7,2.1c0,0.5-0.2,1.2-0.7,1.4c-0.3,0.4-1,0.8-1.9,0.6l-18.3,0c-1.1,0-1.8-0.2-2.3-0.3
				c-0.5,0-1.1-0.6-1.4-1.2l-11.7-15.9l-11.8,15.8c-0.3,0.4-0.9,1-1.3,1.2c-0.4,0.2-1.2,0.3-2.3,0.3l-18.3,0
				C286.1,326.8,285.4,326.6,285,326.2z"/>
		</g>
	</g>
</g>
</svg>
