<?xml version="1.0" encoding="utf-8"?>
<!-- Generator: Adobe Illustrator 23.0.0, SVG Export Plug-In . SVG Version: 6.00 Build 0)  -->
<svg version="1.1" id="Capa_1" xmlns="http://www.w3.org/2000/svg" xmlns:xlink="http://www.w3.org/1999/xlink" x="0px" y="0px"
	 viewBox="0 0 500 500" style="enable-background:new 0 0 500 500;" xml:space="preserve">
<style type="text/css">
	.st0{fill:#384F13;}
	.st1{fill:#89B749;}
	.st2{fill:#FFFFFF;}
</style>
<circle class="st0" cx="305.8" cy="157" r="140"/>
<circle class="st0" cx="160" cy="261.4" r="140"/>
<circle class="st0" cx="342" cy="327.6" r="140"/>
<g>
	
		<ellipse transform="matrix(0.7071 -0.7071 0.7071 0.7071 -105.1865 258.9726)" class="st1" cx="260" cy="256.5" rx="193.4" ry="193.4"/>
</g>
<g>
	<g>
		<path class="st2" d="M118.3,312.2c-0.6-0.6-0.8-1.5-0.8-3l0.1-38.4c-0.1-1.2,0.4-2.2,0.9-2.9c0.6-0.6,1.6-1.1,3.4-0.9l7.7,0
			c0.9,0.1,1.7,0.1,2.5,0.5c0.5,0.2,1.1,0.8,1.4,1.5l7.8,19.9l7.9-20c0.3-0.8,0.8-1.1,1.2-1.5c0.7-0.3,1.3-0.3,2.3-0.5l7.7,0
			c1.5,0,2.6,0.2,3.1,1c0.5,0.8,0.8,1.5,0.9,2.7l-0.1,38.4c0.1,1.2-0.4,2.2-0.9,2.9c-0.6,0.6-1.6,1.1-3.1,1l-6.5-0.1
			c-1.5,0-2.6-0.2-3.1-1c-0.6-0.6-1.1-1.6-0.9-2.7l0.2-18.5l-3.9,9.3c-0.5,1.3-1.2,2.1-1.8,2.8c-0.6,0.6-1.5,0.8-3,0.8
			s-2.6-0.2-3.2-0.8c-0.6-0.6-1.2-1.4-1.8-2.8l-4.1-9.1l-0.2,18.5c0.1,1.2-0.4,2.2-0.9,2.9c-0.6,0.6-1.6,1.1-3.4,0.9l-6.5-0.1
			C120.1,312.9,119,312.7,118.3,312.2z"/>
		<path class="st2" d="M166.4,311.6c-0.1-0.4,0.1-0.9,0.4-1.6l17-40.7c0.4-1,1-1.6,1.5-2c0.5-0.4,1.2-0.7,2.3-0.5l7.4-0.1
			c0.9,0.1,1.7,0.1,2.1,0.6s1,1,1.5,2.1l16.8,40.5c0.3,0.7,0.4,1.1,0.2,1.6c-0.1,0.9-0.6,1.5-1.5,1.4l-12.7-0.1
			c-1.5,0-2.4-0.7-2.8-1.8l-1.7-5.1l-12.1-0.1l-1.5,5c-0.3,1.4-1.4,1.8-2.6,1.9l-12.7-0.1C166.7,313.2,166.3,312.8,166.4,311.6z
			 M193.4,295.6l-2.6-8.5l-2.7,8.3L193.4,295.6z"/>
		<path class="st2" d="M224.1,313.1c-3.5-0.9-6.2-2.1-8.5-3.6c-0.9-0.7-1.3-1.1-1.3-1.7c-0.1-0.4,0.1-0.9,0.5-1.3l4.1-6.2
			c0.6-0.6,0.7-0.9,1.3-0.9c0.4-0.1,0.9,0.1,1.3,0.5c1.6,1,3.4,1.7,5.5,2.3c2.1,0.6,4.1,0.8,6.1,0.8c1.7,0.1,2.8-0.3,3.5-0.6
			c0.8-0.5,1.1-1.3,1.2-2.1c0.1-0.9-0.4-1.9-1.6-2.5c-0.9-0.7-2.6-1.4-5.2-2.5c-4.6-1.7-8.2-3.8-10.7-6c-2.6-2.3-4-5.2-3.8-9
			c0-4.8,1.7-8.1,4.8-10.7c3.4-2.4,7.7-3.5,13.3-3.5c3.9-0.1,7.2,0.4,9.9,1c2.7,0.6,5.1,1.9,7.2,3.3c0.9,0.7,1.3,1.1,1.3,1.7
			c0.1,0.4-0.1,0.9-0.5,1.3l-4.1,6.2c-0.3,0.8-0.7,0.9-1.3,0.9c-0.3-0.1-0.8-0.3-1.3-0.5c-1.1-0.8-2.4-1.3-3.9-2
			c-1.6-0.4-3.2-0.8-4.8-0.6c-1.5,0-2.8,0.3-3.5,0.6c-0.8,0.5-1.1,1.3-1.2,2.1c-0.1,0.9,0.2,1.6,0.9,2.1c0.6,0.6,1.3,1.1,2,1.5
			c0.8,0.3,2.3,1,4.5,1.9c3.3,1.4,6,2.6,8,4c1.9,1.1,3.3,2.6,4.3,4.5c1,1.9,1.6,3.9,1.6,6.6c0,4.1-1.6,7.3-4.5,9.9
			c-3.1,2.5-7.6,3.9-13.7,3.6C231.5,314.5,227.6,313.7,224.1,313.1z"/>
		<path class="st2" d="M258,312.5c-0.6-0.6-0.8-1.5-0.8-3l0.1-38.4c-0.1-1.2,0.4-2.2,0.9-2.9c0.6-0.6,1.6-1.1,3.1-1l8-0.1
			c1.5,0,2.6,0.2,3.1,1c0.6,0.6,0.8,1.5,0.8,3l-0.1,38.4c0.1,1.2-0.4,2.2-0.9,2.9c-0.6,0.6-1.6,1.1-3.4,0.9l-8,0.1
			C259.7,313.5,258.7,313,258,312.5z"/>
		<path class="st2" d="M294.8,313c-0.4-0.5-1-1-1.2-2l-16.2-40.6c-0.3-0.7-0.4-1.1-0.2-1.6c0.1-0.9,0.6-1.5,1.5-1.4l12.7,0.1
			c1.5,0,2.4,0.7,2.8,1.8l6.9,22.1l7-22.1c0.3-1.4,1.4-1.8,2.6-1.9l12.7,0.1c0.9,0.1,1.6,0.4,1.4,1.5c0.1,0.4-0.1,0.9-0.4,1.6
			l-16.4,40.6c-0.4,1-0.7,1.8-1.5,2c-0.5,0.4-1.2,0.7-2.3,0.5l-7.4,0.1C296,313.5,295.3,313.2,294.8,313z"/>
		<path class="st2" d="M328.4,308.4c-4.2-4.1-6.4-10.1-6.3-17.8c0-7.7,2.2-13.5,6.3-17.7c4.1-4.2,10.3-6.2,18.3-6.1
			c8-0.1,14.2,2.2,18.3,6.3s6.4,10.1,6.3,17.8c0,7.7-2.2,13.5-6.3,17.7c-4.1,4.2-10.3,6.2-18.3,6.1
			C338.7,314.5,332.5,312.5,328.4,308.4z M353.1,300.3c1.2-2.1,2-5.4,2-9.5c0.1-4.4-0.7-7.4-1.8-9.6c-1.2-2-3.4-3.2-6.4-3
			c-2.9-0.1-5.2,1.1-6.4,3.2c-1.2,2.1-2,5.4-2,9.5c0,4.1,0.7,7.4,1.9,9.4c1.2,2,3.4,3.2,6.3,3.3
			C349.5,303.2,351.6,302.3,353.1,300.3z"/>
		<path class="st2" d="M380,313.5c-3.5-0.9-6.2-2.1-8.5-3.6c-0.9-0.7-1.3-1.1-1.3-1.7c-0.1-0.4,0.1-0.9,0.5-1.3l4.1-6.2
			c0.6-0.6,0.7-0.9,1.3-0.9c0.4-0.1,0.9,0.1,1.3,0.5c1.6,1,3.4,1.7,5.5,2.3c2.1,0.6,4.1,0.8,6.1,0.8c1.7,0.1,2.8-0.3,3.5-0.6
			c0.8-0.5,1.1-1.3,1.2-2.1c0.1-0.9-0.4-1.9-1.6-2.5c-0.9-0.7-2.6-1.4-5.2-2.5c-4.6-1.7-8.2-3.8-10.7-6c-2.6-2.3-4-5.2-3.8-9
			c0-4.8,1.7-8.1,4.8-10.7c3.4-2.4,7.7-3.5,13.3-3.5c3.9-0.1,7.2,0.4,9.9,1c2.7,0.6,5.1,1.9,7.2,3.3c0.9,0.7,1.3,1.1,1.3,1.7
			c0.1,0.4-0.1,0.9-0.5,1.3l-4.1,6.2c-0.3,0.8-0.7,0.9-1.3,0.9c-0.3-0.1-0.8-0.3-1.3-0.5c-1.1-0.8-2.4-1.3-3.9-2
			c-1.5-0.6-3.2-0.8-4.8-0.6c-1.5,0-2.8,0.3-3.5,0.6c-0.8,0.5-1.1,1.3-1.2,2.1c-0.1,0.9,0.2,1.6,0.9,2.1s1.3,1.1,2,1.5
			c0.8,0.3,2.3,1,4.5,1.9c3.3,1.4,6,2.6,8,4c1.9,1.1,3.3,2.6,4.3,4.5c1,1.9,1.6,3.9,1.6,6.6c0,4.1-1.6,7.3-4.5,9.9
			c-3.1,2.5-7.6,3.9-13.7,3.6C387.4,314.8,383.7,314.5,380,313.5z"/>
	</g>
</g>
<g>
	<path class="st2" d="M161.7,261.8c-6.2-1.4-10.9-3.5-14.6-5.9c-1.6-1-2.3-2.2-2.3-3c0-0.6,0.3-1.4,0.9-2l6.7-10.2
		c0.7-0.9,1.5-1.4,2.1-1.5c0.6,0,1.4,0.3,2.4,0.7c2.8,1.8,6.2,2.9,9.6,3.8c3.5,0.9,7.1,1.3,10.7,1.3c2.9,0.1,4.9-0.3,6.1-1.2
		c1.2-0.7,2-1.8,1.8-3.6c-0.1-1.8-0.8-3-2.7-4.1c-1.6-1-4.7-2.3-9-3.8c-8-2.8-14.2-6.3-18.5-10c-4.6-3.7-6.7-8.5-6.8-14.7
		c0-7.7,2.8-13.6,8.4-17.7c5.6-4.1,13.2-5.9,22.9-5.9c6.8-0.1,12.5,0.6,17,1.6c4.8,1.2,8.8,2.9,12.3,5.2c1.6,1,2.3,2.2,2.3,3
		c0,0.6-0.3,1.4-0.9,2l-6.7,10.2c-0.8,1.1-1.2,1.5-2.1,1.5c-0.6,0-1.4-0.3-2.3-1c-1.9-1.1-4.1-2.1-6.8-2.9c-2.6-0.8-5.4-1.1-8.4-1.2
		c-2.7,0-4.9,0.3-6.1,1.2c-1.5,0.8-2.1,2.1-2.1,3.5c0,1.5,0.4,2.5,1.5,3.3c1,1,2.3,1.6,3.8,2.2c1.5,0.6,4,1.7,7.9,3
		c5.9,2.2,10.5,4.5,13.8,6.5c3.3,2,5.8,4.5,7.5,7.3c1.8,2.8,2.6,6.4,2.7,10.9c0.1,6.8-2.5,12.2-7.9,16.5c-5.3,4.2-13,6.3-23.4,6.3
		C174.3,264,167.8,263.3,161.7,261.8z"/>
	<path class="st2" d="M220.5,260.5c-1-1-1.5-2.7-1.5-4.8l-0.3-64c0-2.1,0.5-3.9,1.4-4.7c1-1,3-1.4,5.6-1.4l13.4-0.2
		c1.7,0.1,3.2,0.2,4.2,0.6c1,0.4,1.8,1.4,2.2,2.4l13.7,33l13.4-33c0.5-1.3,1.5-2,2.3-2.6c1.1-0.4,2.4-0.8,4.1-0.6l13.4-0.2
		c2.7,0,4.5,0.5,5.6,1.5c1,1,1.5,2.7,1.5,4.8l0.3,64c0,2.1-0.5,3.9-1.5,5s-2.7,1.5-5.4,1.6l-11.2,0c-2.7,0-4.5-0.5-5.6-1.5
		c-1-1-1.5-2.7-1.8-4.9l-0.2-30.8l-6.9,15.4c-1,2.3-1.8,3.6-2.9,4.7c-1,1-3,1.4-5.4,1.6c-2.4,0.1-4.3-0.3-5.3-1.4
		c-1-1-2.2-2.4-3.1-4.6l-7-15.4l0.2,30.8c0,2.1-0.5,3.9-1.5,5c-1,1-3.1,1.7-5.4,1.6l-11.2,0C223.4,262,221.5,261.6,220.5,260.5z"/>
	<path class="st2" d="M323.1,261c-6.2-1.4-10.9-3.5-14.6-5.9c-1.6-1-2.3-2.2-2.3-3c0-0.6,0.3-1.4,0.9-2l6.7-10.2
		c0.7-0.9,1.5-1.4,2.1-1.5c0.6,0,1.4,0.3,2.4,0.7c2.8,1.8,6.2,2.9,9.6,3.8c3.7,1,7.1,1.3,10.7,1.3c2.9,0.1,4.9-0.3,6.1-1.2
		c1.2-0.7,2-1.8,1.8-3.6c-0.1-1.8-0.8-3-2.7-4.1c-1.6-1-4.7-2.3-9-3.8c-8-2.8-14.2-6.3-18.5-10c-4.6-3.7-6.7-8.5-6.8-14.7
		c0-7.7,2.8-13.6,8.4-17.7s13.2-5.9,22.9-5.9c6.8-0.1,12.5,0.6,17,1.6c4.8,1.2,8.8,2.9,12.3,5.2c1.6,1,2.3,2.2,2.3,3
		c0,0.6-0.3,1.4-0.9,2l-6.7,10.2c-0.8,1.1-1.2,1.5-2.1,1.5c-0.6,0-1.4-0.3-2.3-1c-1.9-1.1-4.1-2.1-6.8-2.9c-2.6-0.8-5.4-1.1-8.4-1.2
		c-2.7,0-4.9,0.3-6.1,1.2c-1.5,0.8-2.1,2.1-2.1,3.5c0,1.5,0.4,2.5,1.5,3.3c1,1,2.3,1.6,3.8,2.2c1.5,0.6,4,1.7,7.9,3
		c5.9,2.2,10.5,4.5,13.8,6.5c3.3,2,5.8,4.5,7.5,7.3c1.8,2.8,2.6,6.4,2.7,10.9c0.1,6.8-2.5,12.2-7.9,16.5c-5.3,4.2-13,6.3-23.4,6.3
		C335.8,263.2,329.3,262.5,323.1,261z"/>
</g>
</svg>
