<svg xmlns="http://www.w3.org/2000/svg" xml:space="preserve" id="Capa_1" x="0" y="0" version="1.1" viewBox="0 0 400 400"><style>.st1{fill:#fff}.st5{fill:#866a5e}.st6{fill:#f7ddcb}.st9{fill:#1c1b1a}.st10{fill:#f5f5f5}.st14{fill:#11100f}</style><circle cx="207.5" cy="192.5" r="154.5" style="fill:#00d13c"/><path d="M118.86 262.17c-.27-.28-.41-.71-.41-1.29v-17.01c0-.58.14-1 .41-1.27s.74-.41 1.42-.41h3.45c.44 0 .79.06 1.05.17s.46.32.6.64l3.51 8.79 3.51-8.79c.14-.32.34-.54.6-.64.26-.11.61-.17 1.05-.17h3.45c.68 0 1.15.13 1.42.41s.41.7.41 1.27v17.01c0 .58-.14 1.01-.41 1.29s-.73.42-1.4.42h-2.88q-.99 0-1.41-.42t-.42-1.29v-8.19l-1.77 4.08c-.24.58-.5 1-.78 1.25s-.74.38-1.38.38-1.1-.12-1.38-.38c-.28-.25-.54-.66-.78-1.25l-1.77-4.08v8.19c0 .58-.14 1.01-.41 1.29s-.75.42-1.42.42h-2.88c-.64 0-1.11-.14-1.38-.42M142.55 260.26c-1.84-1.85-2.76-4.47-2.76-7.88 0-3.4.92-6.02 2.76-7.88 1.84-1.85 4.54-2.77 8.1-2.77s6.26.92 8.1 2.77 2.76 4.48 2.76 7.88-.92 6.03-2.76 7.88-4.54 2.78-8.1 2.78-6.26-.93-8.1-2.78m10.92-3.66c.58-.93.87-2.33.87-4.21q0-2.85-.87-4.23c-.87-1.38-1.52-1.38-2.82-1.38q-1.95 0-2.82 1.38t-.87 4.23c0 1.88.29 3.29.87 4.21.58.93 1.52 1.4 2.82 1.4s2.24-.47 2.82-1.4M163.41 262.17c-.27-.28-.41-.71-.41-1.29V243.9c0-.58.14-1.01.41-1.29s.73-.42 1.4-.42h6.9q10.59 0 10.59 10.2c0 3.36-.9 5.9-2.71 7.62s-4.44 2.58-7.88 2.58h-6.9c-.66 0-1.13-.14-1.4-.42m8.57-4.68c1.12 0 1.92-.37 2.42-1.11.49-.74.73-2.07.73-3.99s-.25-3.25-.73-3.99c-.49-.74-1.3-1.11-2.42-1.11h-1.77v10.2zM188.33 262.09q-2.22-.945-3.45-2.73c-.82-1.19-1.23-2.61-1.23-4.25V243.9c0-.58.14-1.01.41-1.29s.73-.42 1.4-.42h3.57c.68 0 1.15.13 1.42.41s.41.71.41 1.31v11.31c0 .94.23 1.64.71 2.1.47.46 1.11.69 1.94.69.82 0 1.46-.23 1.93-.69s.71-1.16.71-2.1V243.9c0-.58.14-1.01.41-1.29s.73-.42 1.4-.42h3.57c.68 0 1.15.13 1.42.41s.41.71.41 1.31v11.22c0 1.64-.41 3.05-1.23 4.25q-1.23 1.785-3.45 2.73c-2.22.945-3.2.95-5.16.95-1.99-.02-3.71-.34-5.19-.97M205.68 262.17c-.27-.28-.41-.71-.41-1.29V243.9c0-.58.14-1.01.41-1.29s.73-.42 1.4-.42h3.57c.68 0 1.16.13 1.43.41s.4.71.4 1.31v13.59h6.99c.64 0 1.07.13 1.3.4s.35.71.35 1.31v1.68c0 .6-.12 1.04-.35 1.3-.23.27-.67.41-1.3.41h-12.39c-.66-.01-1.13-.15-1.4-.43M222.83 260.26c-1.84-1.85-2.76-4.47-2.76-7.88 0-3.4.92-6.02 2.76-7.88 1.84-1.85 4.54-2.77 8.1-2.77s6.26.92 8.1 2.77 2.76 4.48 2.76 7.88-.92 6.03-2.76 7.88-4.54 2.78-8.1 2.78-6.26-.93-8.1-2.78m10.92-3.66c.58-.93.87-2.33.87-4.21q0-2.85-.87-4.23c-.87-1.38-1.52-1.38-2.82-1.38q-1.95 0-2.82 1.38t-.87 4.23c0 1.88.29 3.29.87 4.21.58.93 1.52 1.4 2.82 1.4s2.24-.47 2.82-1.4M252.69 262.17c-.27-.28-.41-.71-.41-1.29V243.9c0-.58.14-1.01.41-1.29s.73-.42 1.4-.42h6.9q10.59 0 10.59 10.2c0 3.36-.9 5.9-2.71 7.62s-4.44 2.58-7.88 2.58h-6.9c-.66 0-1.13-.14-1.4-.42m8.57-4.68c1.12 0 1.92-.37 2.42-1.11.49-.74.73-2.07.73-3.99s-.25-3.25-.73-3.99c-.49-.74-1.3-1.11-2.42-1.11h-1.77v10.2zM273.48 262.17c-.27-.28-.41-.71-.41-1.29V243.9c0-.58.14-1.01.41-1.29s.73-.42 1.4-.42h12.42c.64 0 1.07.13 1.31.41.23.27.34.71.34 1.31v1.68c0 .6-.12 1.04-.34 1.3-.23.27-.67.41-1.31.41h-7.02v2.58h4.32c.64 0 1.08.14 1.31.41s.35.71.35 1.3v1.62c0 .6-.12 1.03-.35 1.3s-.67.41-1.31.41h-4.32v2.58h6.99c.64 0 1.07.13 1.3.4s.35.71.35 1.31v1.68c0 .6-.12 1.04-.35 1.3-.23.27-.67.41-1.3.41h-12.39c-.66-.01-1.13-.15-1.4-.43M135.71 288.44q0-.27.15-.66l7.47-17.97c.18-.42.39-.71.62-.88s.56-.25.98-.25h3.27c.42 0 .74.08.97.25s.44.46.62.88l7.44 17.97q.15.39.15.66 0 .63-.66.63h-5.64q-.93 0-1.17-.81l-.72-2.22h-5.31l-.69 2.22q-.24.81-1.17.81h-5.64c-.45 0-.67-.21-.67-.63m12-7.14-1.17-3.72-1.17 3.72zM161.3 286.83c-2.02-1.79-3.03-4.45-3.03-7.96q0-5.25 3.03-7.95t8.46-2.7q2.46 0 4.41.48t3.24 1.35q.36.27.36.6 0 .27-.27.75l-1.5 2.58q-.24.42-.57.42-.21 0-.69-.24-1.8-.9-3.96-.9c-1.66 0-2.97.48-3.92 1.42-.95.95-1.42 2.35-1.42 4.19 0 1.9.4 3.3 1.2 4.21s1.99 1.37 3.57 1.37c.28 0 .59-.03.94-.08s.63-.1.85-.17v-2.73h-1.92c-.64 0-1.08-.13-1.31-.38s-.34-.67-.34-1.28v-1.65c0-.6.11-1.02.34-1.27s.67-.38 1.31-.38h6.45c.78 0 1.32.17 1.62.52s.45.91.45 1.67v7.02c0 .44-.06.78-.17 1.01s-.33.46-.65.71q-2.88 2.07-8.01 2.07c-3.62.01-6.45-.89-8.47-2.68M180.51 288.65c-.27-.28-.41-.71-.41-1.29v-16.98c0-.58.14-1.01.41-1.29s.73-.42 1.4-.42h12.42c.64 0 1.07.13 1.31.41.23.27.34.71.34 1.3v1.68c0 .6-.12 1.04-.34 1.3-.23.27-.67.41-1.31.41h-7.02v2.58h4.32c.64 0 1.08.14 1.31.41s.35.71.35 1.3v1.62c0 .6-.12 1.04-.35 1.31s-.67.4-1.31.4h-4.32v2.58h6.99c.64 0 1.07.13 1.3.41s.35.7.35 1.3v1.68c0 .6-.12 1.04-.35 1.3s-.67.4-1.3.4h-12.39c-.66.01-1.13-.13-1.4-.41M197.73 288.65c-.27-.28-.41-.71-.41-1.29v-17.01c0-.58.14-1 .41-1.27s.74-.41 1.42-.41H202c.42 0 .74.06.98.17.23.11.45.33.67.64l5.43 8.07v-7.17c0-.58.13-1.01.4-1.29s.74-.42 1.4-.42h3.57c.68 0 1.15.13 1.42.41.27.27.4.71.4 1.3v17.01c0 .58-.13 1.01-.4 1.28s-.75.4-1.42.4h-2.85c-.42 0-.75-.05-.98-.16s-.46-.33-.67-.65l-5.43-8.07v7.2c0 .58-.13 1.01-.4 1.28s-.75.4-1.43.4h-3.57c-.65 0-1.12-.14-1.39-.42M223.56 288.65c-.27-.28-.41-.71-.41-1.29v-13.59h-4.32c-.64 0-1.08-.14-1.31-.41s-.34-.71-.34-1.3v-1.68c0-.6.12-1.04.34-1.3.23-.27.67-.41 1.31-.41h15.84c.64 0 1.08.13 1.31.41.23.27.35.71.35 1.3v1.68c0 .6-.12 1.04-.35 1.3-.23.27-.67.41-1.31.41h-4.32v13.59c0 .58-.14 1.01-.4 1.29-.27.28-.75.42-1.43.42h-3.57c-.65 0-1.12-.14-1.39-.42M237.63 288.65c-.27-.28-.41-.71-.41-1.29v-16.98c0-.58.14-1.01.41-1.29s.73-.42 1.4-.42h12.42c.64 0 1.07.13 1.31.41.23.27.34.71.34 1.3v1.68c0 .6-.12 1.04-.34 1.3-.23.27-.67.41-1.31.41h-7.02v2.58h4.32c.64 0 1.08.14 1.31.41s.35.71.35 1.3v1.62c0 .6-.12 1.04-.35 1.31s-.67.4-1.31.4h-4.32v2.58h6.99c.64 0 1.07.13 1.3.41s.35.7.35 1.3v1.68c0 .6-.12 1.04-.35 1.3s-.67.4-1.3.4h-12.39c-.66.01-1.13-.13-1.4-.41M258.26 288.95q-2.34-.57-3.78-1.59-.6-.42-.6-.81 0-.27.21-.57l1.74-2.73q.27-.39.54-.39.24 0 .57.21c.72.44 1.54.79 2.48 1.04.93.25 1.83.38 2.71.38.74 0 1.27-.1 1.6-.3s.5-.51.5-.93q0-.69-.66-1.11t-2.28-1.05c-2.02-.78-3.61-1.67-4.77-2.66s-1.74-2.3-1.74-3.95c0-2.08.72-3.64 2.18-4.69 1.45-1.05 3.4-1.58 5.86-1.58 1.72 0 3.18.15 4.4.45 1.21.3 2.27.77 3.17 1.41q.6.42.6.81 0 .27-.21.57l-1.74 2.73q-.27.42-.54.42-.18 0-.57-.24c-.48-.32-1.05-.59-1.71-.79-.66-.21-1.37-.32-2.13-.32q-1.05 0-1.59.3t-.54.96c0 .36.13.66.38.9s.56.45.95.61c.38.17 1.04.45 1.98.83 1.5.6 2.68 1.17 3.54 1.72q1.29.825 1.95 1.98c.44.77.66 1.74.66 2.92 0 1.8-.67 3.26-2.02 4.37s-3.37 1.67-6.04 1.67c-1.85 0-3.54-.19-5.1-.57" class="st1"/><path d="m219 59-25 162" style="fill:none;stroke:#0085b0;stroke-width:7;stroke-miterlimit:10"/><circle id="XMLID_8242_" cx="205.76" cy="145.07" r="82.02" style="fill:#f2f2f2"/><g id="XMLID_7515_"><path id="XMLID_7538_" d="M228.57 141.85c1.07-2.6 1.61-4.66 1.72-5.2a.45.45 0 0 1-.24-.15c-.17-.25.33-2.9.1-3.09a.4.4 0 0 0-.09-.05c-.3.94-.85 1.71-1.49 2.26.02 2.03.02 4.13 0 6.23" style="fill:none"/><path id="XMLID_7537_" d="M224.88 136.66c-1.22-.87-1.17 11.42-6.21 16.29q-.54.525-1.11 1.02c-.38.34-.79.64-1.18.96 0 .17 0 .34.01.52 4.65-1.36 7.92-5.48 9.96-9.02.91-1.58 1.65-3.16 2.23-4.57.01-2.11.02-4.2.01-6.24-.39.33-.8.57-1.2.71-.71.72-1.55.97-2.51.33" class="st5"/><path id="XMLID_7536_" d="M185.73 169.38c-.13.06-.52.29-.89.88.26-.25.55-.54.89-.88" class="st5"/><path id="XMLID_7535_" d="M216.41 156.09c.12 2.7.66 6.26 2.87 9.48.73-.65 1.13-.79 1.4-.34 1.63 2.76 3.34 4.23 4.28 5.17-.48-.83-1.02-1.05-1.02-1.05s1.17-.45 3.19 1.26c.47.4 1.29.96 2.19 1.71-1.06-5.25-.84-17.15-.75-28.88-.48 1.06-1.03 2.17-1.67 3.28-2.92 5.08-6.5 8.26-10.49 9.37" class="st5"/><path id="XMLID_7534_" d="M185.76 169.36c.93-.93 2.09-2.21 3.21-4.12.27-.46.68-.3 1.44.37 2.56-3.73 2.91-7.9 2.93-10.69-.79-.62-1.57-1.28-2.29-1.98-5.04-4.86-5-17.16-6.21-16.29-.94.63-1.77.4-2.46-.3-.25-.08-.5-.19-.75-.34-.04 13.42.53 29.17-.64 35.84.67-.52 1.25-.93 1.62-1.24 1.9-1.62 3.04-1.29 3.15-1.25" class="st5"/><path id="XMLID_7533_" d="M215.36 155.69c.35-.07.69-.15 1.03-.25 0-.18-.01-.35-.01-.52-.34.27-.67.53-1.02.77" class="st6"/><path id="XMLID_7532_" d="M204.68 178.51c.08.06.12.14.14.23.02-.08.06-.17.14-.23 8.79-6.73 12.54-11.36 14.31-12.93-2.21-3.23-2.75-6.78-2.87-9.48-.73.2-1.47.33-2.22.4-.22.93-1.17 2.64-4.4 2.61-.67-.01-1.23-.09-1.7-.22-.49.09-.98.18-1.48.23-1.5.15-3.03.11-4.52-.13-1.22-.19-2.42-.52-3.57-.97a20 20 0 0 1-3.67-1.94c-.53-.35-1.03-.74-1.53-1.14-.02 2.79-.36 6.96-2.93 10.69 1.82 1.59 5.58 6.2 14.3 12.88" class="st6"/><path id="XMLID_7531_" d="M204.82 178.95c0 .02-.01.03-.01.05h.02c0-.02-.01-.03-.01-.05" class="st6"/><path id="XMLID_7530_" d="M198.53 158c1.15.45 2.35.78 3.57.97 1.49.24 3.02.28 4.52.13.5-.05.99-.13 1.48-.23-2.15-.61-2.3-2.31-2.36-2.88.08-.69.33-3.05 4.12-3.02 3.44.04 4.26 1.99 4.38 2.87.39-.04.76-.09 1.13-.16.35-.25.69-.5 1.02-.77.4-.31.8-.62 1.18-.96q.57-.495 1.11-1.02c5.04-4.86 5-17.16 6.21-16.29.96.64 1.79.39 2.5-.33-.59.21-1.15.23-1.57-.03-.69-.43.03-3.86.52-9.13-.07.02-.15.05-.22.1-.96.61-2.15-7.58-6.75-11.4s-4.98-6.41-4.98-6.41c-4.6.52-9.11 2.19-16.7 8.23-6.01 4.78-11.37 9.55-13.79 10.19-.22.06-.37-.18-.55-.51.49 5.16 1.18 8.51.5 8.93-.39.24-.92.24-1.47.07.7.7 1.52.93 2.46.3 1.22-.87 1.17 11.42 6.21 16.29.73.7 1.5 1.36 2.29 1.98.5.39 1 .79 1.53 1.14 1.14.77 2.37 1.44 3.66 1.94" style="fill:#ffe6d4"/><path id="XMLID_7529_" d="M181.43 118.2c.23-4.5 4.36-20.83 23.39-20.83s23.16 16.33 23.39 20.83c.15 2.92-.14 4.6.09 5.61.09-.98.15-2.25.15-3.94 0-8.6-3.49-17.46-9.12-18.94-2.71-.71-3.06-3.34-9.08-5.14-9.62-2.88-20.48 1.11-26.02 10.35-3.88 6.47-4.08 15.53-3.68 18.67 1.37-.7.66-2.35.88-6.61" class="st5"/><path id="XMLID_7528_" d="M183.89 127.87c2.42-.64 7.78-5.41 13.79-10.19 7.59-6.04 12.1-7.71 16.7-8.23 0 0 .37 2.59 4.98 6.41 4.6 3.82 5.8 12.01 6.75 11.4.07-.05.14-.07.22-.1.05-.54.1-1.1.14-1.67.47-6.21.41-8.24-.2-10.49-4.7-17.34-21.45-16.1-21.45-16.1s-16.17-1.52-21.37 15.83c-.69 2.3-.75 4.56-.28 10.77.05.65.1 1.27.16 1.87.19.32.34.56.56.5" class="st5"/><path id="XMLID_7527_" d="M183.83 136.3c.68-.42-.01-3.78-.5-8.93-.06-.6-.11-1.22-.16-1.87-.47-6.21-.41-8.46.28-10.77 5.2-17.35 21.37-15.83 21.37-15.83s16.75-1.23 21.45 16.1c.61 2.26.67 4.28.2 10.49-.04.58-.09 1.13-.14 1.67-.49 5.27-1.2 8.7-.52 9.13.42.26.98.24 1.57.03.41-.14.82-.38 1.2-.71.64-.54 1.19-1.32 1.49-2.26-.24-.07-.59.14-.79-.27-.22-.47-.11-2.59.08-3.04s.39-.67 1.12-.54c.04.01.08.03.11.04.08-2.12-.18-4.16-1.29-4.59-.6-.23-.87-.59-1-1.14-.24-1.01.05-2.7-.09-5.61-.23-4.5-4.36-20.83-23.39-20.83s-23.16 16.33-23.39 20.83c-.22 4.26.49 5.9-.87 6.62-.08.04-.13.09-.22.12-1.7.66-1.42 5.06-.95 7.78a4.84 4.84 0 0 0 2.22 3.28c.25.15.5.27.75.34.55.19 1.08.2 1.47-.04" style="fill:#2d2d2d"/><path id="XMLID_7526_" d="M229.37 130.05c-.19.46-.31 2.57-.08 3.04.2.42.55.2.79.27.03.01.06.02.09.05.23.19-.27 2.84-.1 3.09.05.07.14.12.24.15-.11.54-.65 2.6-1.72 5.2-.58 1.42-1.32 2.99-2.23 4.57-2.04 3.54-5.31 7.66-9.96 9.02-.34.1-.68.18-1.03.25-.37.07-.75.13-1.13.16-.12-.88-.94-2.83-4.38-2.87-3.79-.04-4.04 2.32-4.12 3.02.06.57.21 2.27 2.36 2.88.47.13 1.02.22 1.7.22 3.23.03 4.19-1.68 4.4-2.61.75-.06 1.5-.19 2.22-.4 3.99-1.11 7.57-4.29 10.49-9.37.63-1.1 1.19-2.21 1.67-3.28 1.53-3.38 2.29-6.27 2.37-6.82.04-.02.09-.03.12-.05.27-.18.46-1.92.62-3.91.16-1.88-.43-2.91-1.08-3.12-.04-.01-.08-.03-.11-.04-.74-.12-.94.09-1.13.55" class="st9"/><path id="XMLID_7525_" d="M201.49 193.02c-1.38-3.08-2.91-4.84-3.06-7.41-1.02 1.26-1.72 2.55-1.6 3.77.38 4.07-11.65-9.87-12.79-16.56-.21 1.28-.22 3.96 3.49 9.22 2.51 3.56 8.39 13.7 12.68 22.8.85-5.49 1.54-9.71 1.83-11.29-.24-.13-.45-.3-.55-.53" class="st10"/><path id="XMLID_7524_" d="M212.82 189.39c.12-1.22-.59-2.52-1.6-3.77-.15 2.57-1.68 4.32-3.06 7.41-.1.23-.31.4-.54.54.3 1.65 1.03 6.15 1.93 11.96 4.16-9.27 10.07-19.82 12.64-23.46 3.9-5.53 3.7-8.21 3.46-9.4-.97 6.6-13.22 20.82-12.83 16.72" class="st10"/><path id="XMLID_7523_" d="M185.99 185.99c.01.01.01.02.02.03l.03-.03z" class="st10"/><path id="XMLID_7522_" d="M208.16 193.02c1.38-3.08 2.91-4.84 3.06-7.41-2.26-2.79-6.1-5.38-6.39-6.61h-.02c-.28 1.23-4.12 3.82-6.39 6.61.15 2.57 1.68 4.32 3.06 7.41.1.23.31.4.54.53-.29 1.58-.97 5.8-1.83 11.29 2.55 5.42 4.53 10.46 4.9 13.54.35-2.95 2.13-7.71 4.45-12.87-.9-5.81-1.63-10.31-1.93-11.96.24-.13.44-.3.55-.53" style="fill:#77181c"/><path id="XMLID_7521_" d="M220.67 165.24c-.27-.45-.67-.31-1.4.34-1.77 1.57-5.52 6.2-14.31 12.93-.08.06-.12.14-.14.23a.4.4 0 0 0-.14-.23c-8.72-6.68-12.48-11.29-14.27-12.9-.75-.68-1.16-.84-1.44-.37-1.12 1.9-2.29 3.19-3.21 4.12.01 0 .02.01.02.01s-.02.01-.05.02c-.34.34-.63.62-.89.88-.27.42-.53 1.02-.67 1.87-.03.16-.09.39-.14.7 1.15 6.69 13.18 20.62 12.79 16.56-.12-1.22.59-2.52 1.6-3.77 2.26-2.79 6.1-5.38 6.39-6.61 0-.02.01-.03.01-.05 0 .02.01.03.01.05.28 1.23 4.12 3.82 6.39 6.61 1.02 1.26 1.72 2.55 1.6 3.77-.39 4.1 11.87-10.12 12.83-16.74-.04-.22-.09-.39-.11-.52-.13-.76-.35-1.31-.59-1.72-.94-.95-2.65-2.42-4.28-5.18" style="fill:#eaeaea"/><path id="XMLID_7520_" d="M253.18 182.41c-.74-1.01-16.98-6.61-22.26-8.55.54.59 1.05 1.26 1.47 2.02 2.33 4.16 2.45 6.71 4.1 7.94 1.64 1.22-12.82 2.18-12.82 2.18l9.11 6.88s-10.21 11.68-17.11 16.71c-2.14 1.56-8.89 7.8-10.54 10.5.38 1.81 1.04 4.52 1.19 5.61q.09.705.18 1.38c12.57-.15 24.47-3.12 35.07-8.32.32-6.29-.76-31.04 11.14-36.31.25-.11.53.15.85.69v-.01c-.12-.26-.24-.52-.38-.72" class="st9"/><path id="XMLID_7519_" d="M205.13 220.08c-1.92-1.68-8.94-8.94-11.08-10.5-6.91-5.03-17.11-16.71-17.11-16.71l9.08-6.85c-.01-.01-.01-.02-.02-.03-.93-.06-14.36-.99-12.77-2.17 1.64-1.22 1.77-3.78 4.1-7.94.46-.82 1.02-1.53 1.61-2.16-5.51 2.01-21.28 7.46-22.01 8.46 12.72.66 11.46 28.98 11.7 36.15a81.6 81.6 0 0 0 36.89 8.77c.33 0 .66-.02.99-.03-.06-.46-.11-.91-.18-1.38-.16-1.08-.82-3.8-1.2-5.61" style="fill:#262525"/><path id="XMLID_7518_" d="M177.32 175.88c-2.33 4.16-2.45 6.71-4.1 7.94-1.59 1.18 11.84 2.11 12.77 2.17h.05l-.03.03-9.08 6.85s10.21 11.68 17.11 16.71c2.14 1.56 9.16 8.83 11.08 10.5 1.64-2.7 8.4-8.94 10.54-10.5 6.91-5.03 17.11-16.71 17.11-16.71l-9.11-6.88s14.47-.95 12.82-2.18c-1.64-1.22-1.77-3.78-4.1-7.94-.43-.76-.94-1.43-1.47-2.02-.53-.58-1.08-1.09-1.61-1.53-.9-.75-1.72-1.31-2.19-1.71-2.02-1.71-3.19-1.26-3.19-1.26s.54.22 1.02 1.05c.24.41.46.96.59 1.72.02.13.07.3.11.52.24 1.19.44 3.87-3.46 9.4-2.57 3.65-8.48 14.2-12.64 23.46-2.32 5.16-4.09 9.92-4.45 12.87-.37-3.08-2.35-8.13-4.9-13.54-4.28-9.1-10.17-19.24-12.68-22.8-3.71-5.26-3.71-7.94-3.49-9.22.05-.31.11-.54.14-.7.14-.85.4-1.45.67-1.87.37-.58.76-.81.89-.88.03-.01.05-.02.05-.02s-.02 0-.02-.01c-.11-.04-1.24-.36-3.17 1.27-.37.31-.95.72-1.62 1.24-.64.5-1.36 1.12-2.05 1.86-.57.64-1.13 1.35-1.59 2.18" class="st14"/><path id="XMLID_7517_" d="M156.92 182.18c-.73-.04-3.13 11.09-5.56 24.48 5.21 4.58 11 8.51 17.26 11.67-.24-7.17 1.02-35.49-11.7-36.15" class="st14"/><path id="XMLID_7516_" d="M252.7 182.44c-11.9 5.26-10.81 30.01-11.14 36.31a82.2 82.2 0 0 0 17.7-11.76c-2.04-11.42-4.21-21.2-5.72-23.85-.3-.55-.59-.81-.84-.7" class="st14"/></g></svg>