<svg xmlns="http://www.w3.org/2000/svg" xml:space="preserve" id="Capa_1" x="0" y="0" version="1.1" viewBox="0 0 400 400"><style>.st1{fill:#fff}.st3{fill:none}.st5{fill:#9baec9}</style><circle cx="207.5" cy="192.5" r="154.5" style="fill:#0085b0"/><path d="M111.1 252.4c-2-1.8-3-4.4-3-8 0-3.5 1-6.2 2.9-8s4.7-2.7 8.3-2.7c1.6 0 3.1.2 4.4.5s2.3.8 3.2 1.4c.2.2.4.4.4.6s-.1.4-.3.8l-1.5 2.6c-.2.3-.3.4-.6.4-.1 0-.4-.1-.7-.2-.6-.3-1.2-.5-1.8-.7s-1.3-.2-2.2-.2c-1.7 0-2.9.5-3.8 1.4s-1.3 2.4-1.3 4.2.5 3.2 1.4 4.2 2.3 1.5 3.9 1.5c1.4 0 2.8-.3 4-.9.3-.2.6-.2.7-.2.2 0 .4.1.6.4l1.5 2.6c.2.3.3.6.3.8s-.1.4-.4.6c-.9.6-1.9 1-3.2 1.4-1.3.3-2.8.5-4.4.5-3.6-.4-6.4-1.3-8.4-3" class="st1"/><path d="M129.9 252.3c-1.8-1.9-2.8-4.5-2.8-7.9s.9-6 2.8-7.9c1.8-1.9 4.5-2.8 8.1-2.8s6.3.9 8.1 2.8 2.8 4.5 2.8 7.9-.9 6-2.8 7.9-4.5 2.8-8.1 2.8c-3.6-.1-6.3-1-8.1-2.8m10.9-3.7q.9-1.35.9-4.2t-.9-4.2c-.9-1.35-1.5-1.4-2.8-1.4s-2.2.5-2.8 1.4-.9 2.3-.9 4.2q0 2.85.9 4.2c.6.9 1.5 1.4 2.8 1.4s2.2-.5 2.8-1.4M150.8 254.2c-.3-.3-.4-.7-.4-1.3v-17c0-.6.1-1 .4-1.3s.7-.4 1.4-.4h2.9c.4 0 .7.1 1 .2.2.1.4.3.7.6l5.4 8.1v-7.2c0-.6.1-1 .4-1.3s.7-.4 1.4-.4h3.6c.7 0 1.1.1 1.4.4s.4.7.4 1.3v17c0 .6-.1 1-.4 1.3s-.8.4-1.4.4h-2.9c-.4 0-.8-.1-1-.2s-.5-.3-.7-.6l-5.4-8.1v7.2c0 .6-.1 1-.4 1.3s-.8.4-1.4.4h-3.6c-.7 0-1.2-.2-1.4-.4M175.2 254.5c-1.6-.4-2.8-.9-3.8-1.6-.4-.3-.6-.6-.6-.8s.1-.4.2-.6l1.7-2.7c.2-.3.4-.4.5-.4.2 0 .4.1.6.2.7.4 1.5.8 2.5 1 .9.3 1.8.4 2.7.4.7 0 1.3-.1 1.6-.3s.5-.5.5-.9c0-.5-.2-.8-.7-1.1s-1.2-.6-2.3-1.1c-2-.8-3.6-1.7-4.8-2.6-1.2-1-1.7-2.3-1.7-3.9 0-2.1.7-3.6 2.2-4.7 1.4-1.1 3.4-1.6 5.9-1.6 1.7 0 3.2.1 4.4.4s2.3.8 3.2 1.4c.4.3.6.6.6.8s-.1.4-.2.6l-1.7 2.7c-.2.3-.4.4-.5.4s-.3-.1-.6-.2c-.5-.3-1.1-.6-1.7-.8s-1.4-.3-2.1-.3-1.2.1-1.6.3-.5.5-.5 1c0 .4.1.7.4.9l.9.6c.4.2 1 .4 2 .8 1.5.6 2.7 1.2 3.5 1.7.9.6 1.5 1.2 1.9 2s.7 1.8.7 2.9c0 1.8-.7 3.3-2 4.4-1.4 1.1-3.4 1.7-6 1.7-1.9-.1-3.6-.2-5.2-.6M194.4 254.1c-1.5-.6-2.6-1.5-3.4-2.7s-1.2-2.6-1.2-4.3v-11.2c0-.6.1-1 .4-1.3s.7-.4 1.4-.4h3.6c.7 0 1.1.1 1.4.4s.4.7.4 1.3v11.3c0 .9.2 1.6.7 2.1s1.1.7 1.9.7 1.5-.2 1.9-.7c.5-.5.7-1.2.7-2.1v-11.3c0-.6.1-1 .4-1.3s.7-.4 1.4-.4h3.6c.7 0 1.1.1 1.4.4s.4.7.4 1.3v11.2c0 1.6-.4 3.1-1.2 4.3s-2 2.1-3.4 2.7-3.2.9-5.2.9-3.7-.3-5.2-.9M211.8 254.2c-.3-.3-.4-.7-.4-1.3v-17c0-.6.1-1 .4-1.3s.7-.4 1.4-.4h3.6c.7 0 1.2.1 1.4.4s.4.7.4 1.3v13.6h7c.6 0 1.1.1 1.3.4s.4.7.4 1.3v1.7c0 .6-.1 1-.4 1.3-.2.3-.7.4-1.3.4h-12.4c-.7 0-1.2-.2-1.4-.4M229.2 254.2c-.3-.3-.4-.7-.4-1.3v-13.6h-4.3c-.6 0-1.1-.1-1.3-.4s-.3-.7-.3-1.3v-1.7c0-.6.1-1 .3-1.3s.7-.4 1.3-.4h15.8c.6 0 1.1.1 1.3.4s.4.7.4 1.3v1.7c0 .6-.1 1-.4 1.3-.2.3-.7.4-1.3.4H236v13.6c0 .6-.1 1-.4 1.3s-.8.4-1.4.4h-3.6c-.7 0-1.1-.2-1.4-.4" class="st1"/><path d="M243.7 252.3c-1.8-1.9-2.8-4.5-2.8-7.9s.9-6 2.8-7.9c1.8-1.9 4.5-2.8 8.1-2.8s6.3.9 8.1 2.8 2.8 4.5 2.8 7.9-.9 6-2.8 7.9-4.5 2.8-8.1 2.8-6.3-1-8.1-2.8m10.9-3.7q.9-1.35.9-4.2t-.9-4.2c-.9-1.35-1.5-1.4-2.8-1.4s-2.2.5-2.8 1.4-.9 2.3-.9 4.2q0 2.85.9 4.2c.6.9 1.5 1.4 2.8 1.4s2.2-.5 2.8-1.4M264.6 254.2c-.3-.3-.4-.7-.4-1.3v-17c0-.6.1-1 .4-1.3s.7-.4 1.4-.4h7.2q4.5 0 6.6 1.8c1.4 1.2 2 3 2 5.4 0 1.4-.3 2.7-.7 3.6-.5 1-1.3 1.8-2.3 2.3l2.8 6c.1.2.1.3.1.5s-.1.4-.2.5-.3.2-.6.2h-5.1c-.3 0-.6 0-.8-.1s-.3-.3-.4-.5l-2.2-5.6h-1v4.5c0 .6-.1 1-.4 1.3s-.8.4-1.4.4H266c-.7.1-1.2-.1-1.4-.3m7.9-10.8c.6 0 1.1-.2 1.5-.5s.6-.9.6-1.5c0-.7-.2-1.2-.6-1.6s-.9-.5-1.5-.5h-2v4.1zM283.6 254.2c-.3-.3-.4-.7-.4-1.3v-17c0-.6.1-1 .4-1.3s.7-.4 1.4-.4h3.6c.7 0 1.2.1 1.4.4s.4.7.4 1.3v17c0 .6-.1 1-.4 1.3s-.8.4-1.4.4H285c-.6 0-1.1-.2-1.4-.4M291.9 254c0-.2 0-.4.1-.7l7.5-18q.3-.6.6-.9c.2-.2.6-.3 1-.3h3.3c.4 0 .7.1 1 .3s.4.5.6.9l7.4 18c.1.3.1.5.1.7 0 .4-.2.6-.7.6h-5.6c-.6 0-1-.3-1.2-.8l-.7-2.2H300l-.7 2.2c-.2.5-.5.8-1.2.8h-5.6q-.6 0-.6-.6m12-7.2-1.2-3.7-1.2 3.7z" class="st1"/><circle id="XMLID_8234_" cx="208" cy="139.6" r="77.4" style="fill:#f2f2f2"/><g id="XMLID_7856_"><path id="XMLID_7872_" d="M228 159.3c.2.1.3.3.4.4-.1-.1-.2-.3-.4-.4" class="st3"/><path id="XMLID_7871_" d="M189.6 159.2c-.2.1-.5.3-.7.7z" class="st3"/><path id="XMLID_7870_" d="M208.6 167.9c.1.1.1.1.1.2 0-.1.1-.1.1-.2 9.2-7.1 12.8-11.8 14.4-13-1.1-2.4-1.6-4.7-1.7-6.6-.2.2-.4.4-.6.5-1.1 1-2.3 1.9-3.6 2.6-1.1.6-2.2 1.2-3.4 1.5-1.1.4-2.2.6-3.3.7-1.4.1-2.9.1-4.3-.1-1.1-.2-2.3-.5-3.4-.9-1.2-.5-2.4-1.1-3.4-1.8-1.3-.9-2.5-1.9-3.6-2.9-.1 2-.6 4.6-1.8 7.1 1.8 1.2 5.4 5.9 14.5 12.9" style="fill:#f7ddcb"/><path id="XMLID_7869_" d="M205.7 181c-1.2-2.8-2.6-4.4-2.8-6.7-1.3 1.4-2.2 2.9-2.1 4.3.4 3.9-11.1-9.3-12.6-16-.1 1.2-.2 3.9 3.4 9.2 1.8 2.6 6.5 16.2 11.2 30.8 1.5-9.8 2.9-18.8 3.3-21.1-.1-.1-.3-.3-.4-.5" class="st5"/><path id="XMLID_7868_" d="M211.8 181c-.1.2-.3.4-.5.5.4 2.4 1.9 11.8 3.4 21.9 4-13.6 8.9-28.4 11.1-31.6 3.5-5.1 3.5-7.8 3.4-9.1-1.6 6.8-12.9 19.8-12.5 15.9.1-1.4-.8-2.9-2.1-4.3-.2 2.3-1.6 3.9-2.8 6.7" class="st5"/><path id="XMLID_7867_" d="m227.2 175.7.1.1v-.1z" class="st5"/><path id="XMLID_7866_" d="M214.7 203.4c-1.5-10.1-3-19.5-3.4-21.9.2-.1.4-.3.5-.5 1.2-2.8 2.6-4.4 2.8-6.7-2.2-2.5-5.5-4.8-5.8-5.9-.3 1.1-3.6 3.4-5.8 5.9.1 2.3 1.5 3.9 2.8 6.7.1.2.3.4.5.5-.4 2.4-1.9 11.3-3.3 21.1 1.5 4.8 3.1 9.7 4.5 14.3h.9c.9 0 1.8 0 2.7-.1.9-3.8 2.2-8.5 3.6-13.4" style="fill:#9d2b3b"/><path id="XMLID_7865_" d="m189.6 159.2-.7.7c-.3.4-.6 1.1-.5 2.1 0 .1 0 .3-.1.6 1.4 6.7 12.9 20 12.6 16-.1-1.4.8-2.9 2.1-4.3 2.2-2.5 5.5-4.8 5.8-5.9.3 1.1 3.6 3.4 5.8 5.9 1.3 1.4 2.2 2.9 2.1 4.3-.4 3.9 10.9-9.1 12.5-15.9 0-.4-.1-.6-.1-.8.1-1.1-.3-1.8-.6-2.3l-.4-.4-.4-.2h.1c-.9-.9-2.2-2.3-3.4-4.3-.2-.4-.5-.3-1.1.1-1.6 1.3-5.2 6-14.4 13-.1.1-.1.1-.1.2 0-.1-.1-.1-.1-.2-9.1-7-12.8-11.7-14.4-13-.6-.4-.9-.5-1.1-.1-1.2 2-2.4 3.4-3.4 4.3h.1s-.2.1-.3.2" style="fill:#c1d4f2"/><path id="XMLID_7864_" d="M199.6 150.7c1.1.7 2.2 1.4 3.4 1.8 1.1.4 2.2.7 3.4.9 1.4.2 2.8.3 4.3.1 1.1-.1 2.3-.3 3.3-.7 1.2-.4 2.3-.9 3.4-1.5 1.3-.7 2.4-1.6 3.6-2.6.2-.2.4-.4.6-.5s.3-.3.5-.4c4.7-4.6 4.7-16.1 5.9-15.3 2.6 1.8 4.3-3.5 4.6-6.6.3-2.7-.7-4-1.8-3.5-.3.7-.7 1.2-1.1 1.4 0 0-1.6 6.8-2.3 6.5-.7-.2-.4-6.3.7-13.5 1.2-7.6-8.2-4.3-14.7-4.5-6.6-.2-21.7-1.5-22.9 2.1s1.1 14.5.2 14.9-2.1-4.9-3-6c-.1-.2-.3-.6-.5-1.1-.9-.1-1.7 1.3-1.4 3.6.3 3.1 2 8.3 4.6 6.6 1.1-.8 1.1 10.7 5.8 15.3.9 1.2 2.2 2.2 3.4 3" style="fill:#ffe6d4"/><path id="XMLID_7863_" d="M190.5 129.4c.9-.4-1.4-11.3-.2-14.9s16.3-2.3 22.9-2.1 15.9-3.1 14.7 4.5c-1.1 7.2-1.4 13.2-.7 13.5s2.3-6.6 2.3-6.6c.5-.3.8-.8 1.1-1.4 1.8-4.1 1-14.5 1-16.3 0-2.1-3.3-5.7-4.7-5.7s-.2-5.9-9.8-8.5-18-1.3-22.7 1.1c-4.7 2.3-8.2 6.3-10.3 7-2.1.6.7 2.1-.9 3.6s1.2 3.4 1.6 6.3c.4 2.5 1.3 9.6 2.1 12.4.2.6.3.9.5 1.1 1 1 2.2 6.4 3.1 6" style="fill:#534d46"/><path id="XMLID_7862_" d="M235.9 165.7c2.3 4.1 2.4 6.6 4.1 7.9 1.5 1.1-11.2 2.1-12.6 2.1v.1l8.9 6.7s-7.8 10.6-11.9 16.7c-1.5 2.2-5.1 8.4-7.1 12-.6 1-1.7 3.1-3 5.5 12.1-.9 23.4-4.6 33.3-10.5 1.3-15.2 4.8-35.7 11.7-34.6-2.7-1.2-10.3-2.7-15.5-4.8-4.5-1.8-8-4.1-10.2-4.1.8.9 1.6 1.8 2.3 3" style="fill:#191819"/><path id="XMLID_7861_" d="M228 159.3c.1.1.3.2.4.4.4.4.7 1.2.6 2.3 0 .1 0 .4.1.8.1 1.3.1 3.9-3.4 9.1-2.2 3.3-7.1 18-11.1 31.6-1.4 4.9-2.7 9.6-3.7 13.5 1.1 0 2.2-.1 3.2-.2 1.3-2.4 2.4-4.5 3-5.5 2-3.6 5.7-9.8 7.1-12 4.1-6.2 11.9-16.7 11.9-16.7l-8.9-6.7-.1-.1h.1c1.4-.1 14.1-1 12.6-2.1-1.6-1.2-1.8-3.7-4.1-7.9-.6-1.2-1.5-2.1-2.4-2.9-1.1-1.1-2.3-1.8-2.9-2.3-1.6-1.4-2.6-1.5-2.9-1.4h-.1s.4 0 .6.1"/><path id="XMLID_7860_" d="M171 207.4c9.6 5.3 20.3 8.5 31.8 9.3-1.2-2.8-2.2-4.9-2.6-5.6-2-3.6-5.7-9.8-7.1-12-4.1-6.2-11.9-16.7-11.9-16.7l9-6.8s-14.3-.9-12.7-2.1 1.8-3.7 4.1-7.9c.7-1.2 1.6-2.2 2.4-3-2.2.6-5.2 2.4-8.8 3.9-5.7 2.3-14.4 3.9-16.2 5.1 7.2-1.6 10.8 20.4 12 35.8" style="fill:#222123"/><path id="XMLID_7859_" d="M181.6 165.7c-2.3 4.1-2.4 6.6-4.1 7.9s12.7 2.1 12.7 2.1l-9 6.8s7.8 10.6 11.9 16.7c1.5 2.2 5.1 8.4 7.1 12 .4.6 1.3 2.8 2.6 5.6 1.5.1 3 .2 4.6.2-1.4-4.7-2.9-9.6-4.5-14.3-4.7-14.6-9.4-28.2-11.2-30.8-3.6-5.3-3.5-8-3.4-9.2 0-.3.1-.5.1-.6-.1-1 .2-1.6.5-2.1.3-.4.6-.6.7-.7s.2-.1.2-.1h-.1c-.3 0-1.2 0-2.9 1.4-.6.5-1.7 1.2-2.8 2.2-.9.7-1.8 1.7-2.4 2.9"/><path id="XMLID_7858_" d="M171 207.4c-1.2-15.5-4.8-37.4-12-35.7l-.9.3c-1.6.8-3.3 9.4-5.4 21.4 5.4 5.6 11.5 10.3 18.3 14"/><path id="XMLID_7857_" d="M247.6 206.3c6.7-3.9 12.7-8.8 17.9-14.5-2-11.1-3.5-18.9-5.1-19.7-.4-.2-.8-.3-1.1-.4-6.9-1.2-10.5 19.4-11.7 34.6"/></g><path d="M100 285.4c-.4-.4-.5-.9-.5-1.7v-22.6c0-.8.2-1.3.5-1.7s1-.6 1.9-.6h9.6q6 0 8.7 2.4t2.7 7.2-2.7 7.2-8.7 2.4h-2.4v5.8c0 .8-.2 1.3-.5 1.7-.4.4-1 .6-1.9.6h-4.8c-.9-.1-1.5-.3-1.9-.7m10.6-14.3c.9 0 1.5-.2 2-.7s.7-1.1.7-2-.2-1.6-.7-2.1-1.2-.7-2-.7h-2.7v5.5z" class="st1"/><path d="M126 282.9c-2.5-2.5-3.7-6-3.7-10.5s1.2-8 3.7-10.5 6.1-3.7 10.8-3.7 8.3 1.2 10.8 3.7 3.7 6 3.7 10.5-1.2 8-3.7 10.5-6.1 3.7-10.8 3.7c-4.8 0-8.4-1.2-10.8-3.7m14.5-4.9c.8-1.2 1.2-3.1 1.2-5.6s-.4-4.4-1.2-5.6-2-1.8-3.8-1.8c-1.7 0-3 .6-3.8 1.8s-1.2 3.1-1.2 5.6.4 4.4 1.2 5.6 2 1.9 3.8 1.9 3.1-.6 3.8-1.9" class="st1"/><path d="M156.5 285.8c-2.1-.5-3.8-1.2-5-2.1-.5-.4-.8-.7-.8-1.1 0-.2.1-.5.3-.8l2.3-3.6c.2-.3.5-.5.7-.5s.5.1.8.3c1 .6 2.1 1 3.3 1.4 1.2.3 2.4.5 3.6.5 1 0 1.7-.1 2.1-.4s.7-.7.7-1.2q0-.9-.9-1.5c-.6-.4-1.6-.8-3-1.4-2.7-1-4.8-2.2-6.4-3.5-1.5-1.3-2.3-3.1-2.3-5.3 0-2.8 1-4.9 2.9-6.3q2.85-2.1 7.8-2.1c2.3 0 4.2.2 5.9.6 1.6.4 3 1 4.2 1.9.5.4.8.7.8 1.1 0 .2-.1.5-.3.8l-2.3 3.6c-.2.4-.5.6-.7.6s-.4-.1-.8-.3c-.6-.4-1.4-.8-2.3-1.1s-1.8-.4-2.8-.4c-.9 0-1.6.1-2.1.4s-.7.7-.7 1.3c0 .5.2.9.5 1.2s.8.6 1.3.8 1.4.6 2.6 1.1c2 .8 3.6 1.6 4.7 2.3s2 1.6 2.6 2.6q.9 1.5.9 3.9c0 2.4-.9 4.3-2.7 5.8s-4.5 2.2-8.1 2.2c-2.4 0-4.7-.3-6.8-.8" class="st1"/><path d="M182 285.4c-.4-.4-.5-.9-.5-1.7v-18.1h-5.8c-.9 0-1.4-.2-1.7-.5-.3-.4-.5-.9-.5-1.7v-2.2c0-.8.2-1.4.5-1.7.3-.4.9-.5 1.7-.5h21.1c.9 0 1.4.2 1.7.5.3.4.5.9.5 1.7v2.2c0 .8-.2 1.4-.5 1.7-.3.4-.9.5-1.7.5H191v18.1c0 .8-.2 1.3-.5 1.7-.4.4-1 .6-1.9.6h-4.8q-1.35 0-1.8-.6M209.9 285.7c-.3-.2-.6-.6-.8-1.2l-9.6-24c-.1-.3-.2-.6-.2-.9 0-.6.3-.8.9-.8h7.5c.8 0 1.3.4 1.6 1.1l4.1 13 4.1-13c.2-.7.7-1.1 1.6-1.1h7.5c.6 0 .9.3.9.8 0 .2-.1.5-.2.9l-9.5 24c-.2.6-.5 1-.8 1.2s-.8.3-1.3.3h-4.4c-.6 0-1.1-.1-1.4-.3M230 285.4c-.4-.4-.5-.9-.5-1.7v-22.6c0-.8.2-1.3.5-1.7.4-.4 1-.6 1.9-.6h16.6c.9 0 1.4.2 1.7.5.3.4.5.9.5 1.7v2.2c0 .8-.2 1.4-.5 1.7-.3.4-.9.5-1.7.5h-9.4v3.4h5.8c.9 0 1.4.2 1.7.5s.5.9.5 1.7v2.2c0 .8-.2 1.4-.5 1.7-.3.4-.9.5-1.7.5h-5.8v3.4h9.3c.9 0 1.4.2 1.7.5.3.4.5.9.5 1.7v2.2c0 .8-.2 1.4-.5 1.7s-.9.5-1.7.5h-16.5c-.9.6-1.5.4-1.9 0M253 285.4c-.4-.4-.5-.9-.5-1.7V261c0-.8.2-1.3.5-1.7.4-.4 1-.5 1.9-.5h3.8c.6 0 1 .1 1.3.2q.45.15.9.9l7.2 10.8v-9.6c0-.8.2-1.3.5-1.7s1-.6 1.9-.6h4.8c.9 0 1.5.2 1.9.5.4.4.5.9.5 1.7v22.7c0 .8-.2 1.3-.5 1.7-.4.4-1 .5-1.9.5h-3.8c-.6 0-1-.1-1.3-.2s-.6-.4-.9-.9l-7.2-10.8v9.6c0 .8-.2 1.3-.5 1.7s-1 .5-1.9.5h-4.8c-1 .2-1.6 0-1.9-.4M287.4 285.4c-.4-.4-.5-.9-.5-1.7v-18.1h-5.8c-.9 0-1.4-.2-1.7-.5-.3-.4-.5-.9-.5-1.7v-2.2c0-.8.2-1.4.5-1.7.3-.4.9-.5 1.7-.5h21.1c.9 0 1.4.2 1.7.5.3.4.5.9.5 1.7v2.2c0 .8-.2 1.4-.5 1.7-.3.4-.9.5-1.7.5h-5.8v18.1c0 .8-.2 1.3-.5 1.7-.4.4-1 .6-1.9.6h-4.8q-1.2 0-1.8-.6M299.8 285.2c0-.2.1-.5.2-.9l10-24c.2-.6.5-1 .8-1.2s.7-.3 1.3-.3h4.4c.6 0 1 .1 1.3.3s.6.6.8 1.2l9.9 24c.1.3.2.6.2.9 0 .6-.3.8-.9.8h-7.5c-.8 0-1.3-.4-1.6-1.1l-1-3h-7.1l-.9 3c-.2.7-.7 1.1-1.6 1.1h-7.5c-.5 0-.8-.3-.8-.8m16-9.6-1.6-5-1.6 5z" class="st1"/></svg>