<svg xmlns="http://www.w3.org/2000/svg" xml:space="preserve" id="Capa_1" x="0" y="0" version="1.1" viewBox="0 0 400 400"><style>.st1{fill:#fff}</style><circle cx="207.5" cy="192.5" r="154.5" style="fill:#0085b0"/><path d="M104.9 262.17c-.27-.28-.41-.71-.41-1.29V243.9c0-.58.14-1.01.41-1.29s.73-.42 1.4-.42h12.42c.64 0 1.07.13 1.31.41.23.27.34.71.34 1.31v1.68c0 .6-.12 1.04-.34 1.3-.23.27-.67.41-1.31.41h-7.02v2.58h4.32c.64 0 1.08.14 1.31.41s.35.71.35 1.3v1.62c0 .6-.12 1.03-.35 1.3s-.67.41-1.31.41h-4.32v2.58h6.99c.64 0 1.07.13 1.3.4s.35.71.35 1.31v1.68c0 .6-.12 1.04-.35 1.3-.23.27-.67.41-1.3.41H106.3c-.67-.01-1.13-.15-1.4-.43M122.12 262.17c-.27-.28-.41-.71-.41-1.29v-17.01c0-.58.14-1 .41-1.27s.74-.41 1.42-.41h2.85c.42 0 .74.06.98.17.23.11.45.32.67.64l5.43 8.07v-7.17c0-.58.13-1.01.4-1.29s.74-.42 1.4-.42h3.57c.68 0 1.15.13 1.42.41s.4.71.4 1.31v17.01c0 .58-.13 1-.4 1.27s-.75.41-1.42.41h-2.85c-.42 0-.75-.05-.98-.17-.23-.11-.46-.33-.67-.64l-5.43-8.07v7.2c0 .58-.13 1-.4 1.27s-.75.41-1.43.41h-3.57c-.66-.01-1.12-.15-1.39-.43M145.2 260.35c-2.02-1.79-3.03-4.44-3.03-7.96 0-3.54.97-6.2 2.92-7.98s4.73-2.67 8.35-2.67q2.46 0 4.38.48t3.21 1.35q.36.27.36.6 0 .27-.27.75l-1.5 2.58q-.24.42-.57.42-.21 0-.69-.24c-.56-.28-1.15-.5-1.75-.66-.61-.16-1.33-.24-2.15-.24q-2.49 0-3.81 1.44t-1.32 4.17c0 1.8.48 3.19 1.44 4.16s2.27 1.46 3.93 1.46q2.16 0 3.96-.9.48-.24.69-.24.33 0 .57.42l1.5 2.58q.27.48.27.75 0 .33-.36.6-1.29.87-3.24 1.35t-4.41.48c-3.63-.01-6.46-.91-8.48-2.7M167.73 262.09q-2.22-.945-3.45-2.73c-.82-1.19-1.23-2.61-1.23-4.25V243.9c0-.58.14-1.01.41-1.29s.73-.42 1.4-.42h3.57c.68 0 1.15.13 1.42.41s.41.71.41 1.31v11.31c0 .94.23 1.64.71 2.1.47.46 1.11.69 1.94.69.82 0 1.46-.23 1.93-.69s.71-1.16.71-2.1V243.9c0-.58.14-1.01.41-1.29s.73-.42 1.4-.42h3.57c.68 0 1.15.13 1.42.41s.41.71.41 1.31v11.22c0 1.64-.41 3.05-1.23 4.25q-1.23 1.785-3.45 2.73c-2.22.945-3.2.95-5.16.95-1.99-.02-3.71-.34-5.19-.97M185.09 262.17c-.27-.28-.41-.71-.41-1.29V243.9c0-.58.14-1.01.41-1.29s.73-.42 1.4-.42h12.42c.64 0 1.07.13 1.31.41.23.27.34.71.34 1.31v1.68c0 .6-.12 1.04-.34 1.3-.23.27-.67.41-1.31.41h-7.02v2.58h4.32c.64 0 1.08.14 1.31.41s.35.71.35 1.3v1.62c0 .6-.12 1.03-.35 1.3s-.67.41-1.31.41h-4.32v2.58h6.99c.64 0 1.07.13 1.3.4s.35.71.35 1.31v1.68c0 .6-.12 1.04-.35 1.3-.23.27-.67.41-1.3.41h-12.39c-.67-.01-1.13-.15-1.4-.43M205.71 262.47q-2.34-.57-3.78-1.59-.6-.42-.6-.81 0-.27.21-.57l1.74-2.73q.27-.39.54-.39.24 0 .57.21c.72.44 1.54.79 2.48 1.04.93.25 1.83.38 2.71.38.74 0 1.27-.1 1.6-.3s.5-.51.5-.93q0-.69-.66-1.11c-.66-.42-1.2-.63-2.28-1.05-2.02-.78-3.61-1.66-4.77-2.65s-1.74-2.3-1.74-3.95c0-2.08.72-3.64 2.18-4.7 1.45-1.05 3.4-1.57 5.86-1.57 1.72 0 3.18.15 4.4.45 1.21.3 2.27.77 3.17 1.41q.6.42.6.81 0 .27-.21.57l-1.74 2.73q-.27.42-.54.42-.18 0-.57-.24c-.48-.32-1.05-.58-1.71-.79s-1.37-.32-2.13-.32q-1.05 0-1.59.3t-.54.96c0 .36.13.66.38.9s.56.45.95.62c.38.17 1.04.45 1.98.83 1.5.6 2.68 1.17 3.54 1.73q1.29.825 1.95 1.98c.44.77.66 1.75.66 2.92 0 1.8-.67 3.25-2.02 4.37-1.35 1.11-3.37 1.67-6.04 1.67-1.85-.03-3.54-.22-5.1-.6" class="st1"/><path d="M224.78 262.17c-.27-.28-.41-.71-.41-1.29v-13.59h-4.32c-.64 0-1.08-.14-1.31-.41s-.34-.71-.34-1.3v-1.68c0-.6.12-1.04.34-1.31.23-.27.67-.41 1.31-.41h15.84c.64 0 1.08.13 1.31.41.23.27.35.71.35 1.31v1.68c0 .6-.12 1.04-.35 1.3-.23.27-.67.41-1.31.41h-4.32v13.59c0 .58-.14 1.01-.4 1.29-.27.28-.75.42-1.43.42h-3.57c-.66 0-1.12-.14-1.39-.42M234.09 261.96q0-.27.15-.66l7.47-17.97c.18-.42.39-.71.62-.88s.56-.26.98-.26h3.27c.42 0 .74.09.97.26s.44.46.62.88l7.44 17.97q.15.39.15.66 0 .63-.66.63h-5.64q-.93 0-1.17-.81l-.72-2.22h-5.31l-.69 2.22q-.24.81-1.17.81h-5.64c-.45 0-.67-.21-.67-.63m12-7.14-1.17-3.72-1.17 3.72zM266.66 262.17c-.27-.28-.41-.71-.41-1.29V243.9c0-.58.14-1.01.41-1.29s.73-.42 1.4-.42h6.9q10.59 0 10.59 10.2c0 3.36-.9 5.9-2.71 7.62s-4.44 2.58-7.88 2.58h-6.9c-.67 0-1.13-.14-1.4-.42m8.56-4.68c1.12 0 1.92-.37 2.42-1.11.49-.74.73-2.07.73-3.99s-.25-3.25-.73-3.99c-.49-.74-1.3-1.11-2.42-1.11h-1.77v10.2zM287.45 262.17c-.27-.28-.41-.71-.41-1.29V243.9c0-.58.14-1.01.41-1.29s.73-.42 1.4-.42h12.42c.64 0 1.07.13 1.31.41.23.27.34.71.34 1.31v1.68c0 .6-.12 1.04-.34 1.3-.23.27-.67.41-1.31.41h-7.02v2.58h4.32c.64 0 1.08.14 1.31.41s.35.71.35 1.3v1.62c0 .6-.12 1.03-.35 1.3s-.67.41-1.31.41h-4.32v2.58h6.99c.64 0 1.07.13 1.3.4s.35.71.35 1.31v1.68c0 .6-.12 1.04-.35 1.3-.23.27-.67.41-1.3.41h-12.39c-.67-.01-1.13-.15-1.4-.43M103.73 288.95q-2.34-.57-3.78-1.59-.6-.42-.6-.81 0-.27.21-.57l1.74-2.73q.27-.39.54-.39.24 0 .57.21c.72.44 1.54.79 2.48 1.04.93.25 1.83.38 2.71.38.74 0 1.27-.1 1.6-.3s.5-.51.5-.93q0-.69-.66-1.11t-2.28-1.05c-2.02-.78-3.61-1.67-4.77-2.66s-1.74-2.3-1.74-3.95c0-2.08.72-3.64 2.18-4.69 1.45-1.05 3.4-1.58 5.86-1.58 1.72 0 3.18.15 4.4.45 1.21.3 2.27.77 3.17 1.41q.6.42.6.81 0 .27-.21.57l-1.74 2.73q-.27.42-.54.42-.18 0-.57-.24c-.48-.32-1.05-.59-1.71-.79-.66-.21-1.37-.32-2.13-.32q-1.05 0-1.59.3t-.54.96c0 .36.13.66.38.9s.56.45.95.61c.38.17 1.04.45 1.98.83 1.5.6 2.68 1.17 3.54 1.72q1.29.825 1.95 1.98c.44.77.66 1.74.66 2.92 0 1.8-.67 3.26-2.02 4.37s-3.37 1.67-6.04 1.67c-1.85 0-3.54-.19-5.1-.57M116.42 288.44q0-.27.15-.66l7.47-17.97c.18-.42.39-.71.62-.88s.56-.25.98-.25h3.27c.42 0 .74.08.97.25s.44.46.62.88l7.44 17.97q.15.39.15.66 0 .63-.66.63h-5.64q-.93 0-1.17-.81l-.72-2.22h-5.31l-.69 2.22q-.24.81-1.17.81h-5.64c-.45 0-.67-.21-.67-.63m12-7.14-1.17-3.72-1.17 3.72zM141 288.65c-.27-.28-.41-.71-.41-1.29v-13.59h-4.32c-.64 0-1.08-.14-1.31-.41s-.34-.71-.34-1.3v-1.68c0-.6.12-1.04.34-1.3.23-.27.67-.41 1.31-.41h15.84c.64 0 1.08.13 1.31.41.23.27.35.71.35 1.3v1.68c0 .6-.12 1.04-.35 1.3-.23.27-.67.41-1.31.41h-4.32v13.59c0 .58-.14 1.01-.4 1.29-.27.28-.75.42-1.43.42h-3.57c-.65 0-1.12-.14-1.39-.42M155.07 288.65c-.27-.28-.41-.71-.41-1.29v-16.98c0-.58.14-1.01.41-1.29s.73-.42 1.4-.42h3.57c.68 0 1.16.13 1.43.41.27.27.4.71.4 1.3v16.98c0 .58-.13 1.01-.4 1.29s-.75.42-1.43.42h-3.57c-.66 0-1.13-.14-1.4-.42M167.78 288.95q-2.34-.57-3.78-1.59-.6-.42-.6-.81 0-.27.21-.57l1.74-2.73q.27-.39.54-.39.24 0 .57.21c.72.44 1.54.79 2.48 1.04.93.25 1.83.38 2.71.38.74 0 1.27-.1 1.6-.3s.5-.51.5-.93q0-.69-.66-1.11t-2.28-1.05c-2.02-.78-3.61-1.67-4.77-2.66s-1.74-2.3-1.74-3.95c0-2.08.72-3.64 2.18-4.69 1.45-1.05 3.4-1.58 5.86-1.58 1.72 0 3.18.15 4.4.45 1.21.3 2.27.77 3.17 1.41q.6.42.6.81 0 .27-.21.57l-1.74 2.73q-.27.42-.54.42-.18 0-.57-.24c-.48-.32-1.05-.59-1.71-.79-.66-.21-1.37-.32-2.13-.32q-1.05 0-1.59.3t-.54.96c0 .36.13.66.38.9s.56.45.95.61c.38.17 1.04.45 1.98.83 1.5.6 2.68 1.17 3.54 1.72q1.29.825 1.95 1.98c.44.77.66 1.74.66 2.92 0 1.8-.67 3.26-2.02 4.37s-3.37 1.67-6.04 1.67c-1.85 0-3.54-.19-5.1-.57M182.82 288.65c-.27-.28-.41-.71-.41-1.29v-16.98c0-.58.14-1.01.41-1.29s.73-.42 1.4-.42h12.42c.64 0 1.07.13 1.31.41.23.27.34.71.34 1.3v1.68c0 .6-.12 1.04-.34 1.3-.23.27-.67.41-1.31.41h-7.02v2.55h4.32c.64 0 1.08.13 1.31.41.23.27.35.71.35 1.31v1.68c0 .6-.12 1.04-.35 1.3-.23.27-.67.41-1.31.41h-4.32v5.94c0 .58-.13 1.01-.4 1.29s-.75.42-1.43.42h-3.57c-.66-.01-1.13-.15-1.4-.43M194.69 288.44q0-.27.15-.66l7.47-17.97c.18-.42.39-.71.62-.88s.56-.25.98-.25h3.27c.42 0 .74.08.97.25s.44.46.62.88l7.44 17.97q.15.39.15.66 0 .63-.66.63h-5.64q-.93 0-1.17-.81l-.72-2.22h-5.31l-.69 2.22q-.24.81-1.17.81h-5.64c-.45 0-.67-.21-.67-.63m12-7.14-1.17-3.72-1.17 3.72zM218.63 286.83c-2.02-1.79-3.03-4.45-3.03-7.96 0-3.54.97-6.2 2.92-7.98s4.73-2.67 8.35-2.67q2.46 0 4.38.48c1.92.48 2.35.77 3.21 1.35q.36.27.36.6 0 .27-.27.75l-1.5 2.58q-.24.42-.57.42-.21 0-.69-.24c-.56-.28-1.15-.5-1.75-.66-.61-.16-1.33-.24-2.15-.24q-2.49 0-3.81 1.44t-1.32 4.17c0 1.8.48 3.19 1.44 4.15.96.97 2.27 1.46 3.93 1.46q2.16 0 3.96-.9.48-.24.69-.24.33 0 .57.42l1.5 2.58q.27.48.27.75 0 .33-.36.6-1.29.87-3.24 1.35t-4.41.48c-3.63 0-6.46-.9-8.48-2.69M238.31 286.83c-2.02-1.79-3.03-4.45-3.03-7.96 0-3.54.97-6.2 2.92-7.98s4.73-2.67 8.35-2.67q2.46 0 4.38.48c1.92.48 2.35.77 3.21 1.35q.36.27.36.6 0 .27-.27.75l-1.5 2.58q-.24.42-.57.42-.21 0-.69-.24c-.56-.28-1.15-.5-1.75-.66-.61-.16-1.33-.24-2.15-.24q-2.49 0-3.81 1.44t-1.32 4.17c0 1.8.48 3.19 1.44 4.15.96.97 2.27 1.46 3.93 1.46q2.16 0 3.96-.9.48-.24.69-.24.33 0 .57.42l1.5 2.58q.27.48.27.75 0 .33-.36.6-1.29.87-3.24 1.35t-4.41.48c-3.63 0-6.46-.9-8.48-2.69M256.71 288.65c-.27-.28-.41-.71-.41-1.29v-16.98c0-.58.14-1.01.41-1.29s.73-.42 1.4-.42h3.57c.68 0 1.16.13 1.43.41.27.27.4.71.4 1.3v16.98c0 .58-.13 1.01-.4 1.29s-.75.42-1.43.42h-3.57c-.66 0-1.13-.14-1.4-.42" class="st1"/><path d="M267.77 286.74c-1.84-1.85-2.76-4.47-2.76-7.88s.92-6.03 2.76-7.88 4.54-2.78 8.1-2.78 6.26.93 8.1 2.78 2.76 4.47 2.76 7.88-.92 6.03-2.76 7.88-4.54 2.78-8.1 2.78-6.26-.93-8.1-2.78m10.92-3.66c.58-.93.87-2.33.87-4.21q0-2.85-.87-4.23c-.87-1.38-1.52-1.38-2.82-1.38q-1.95 0-2.82 1.38t-.87 4.23c0 1.88.29 3.29.87 4.21.58.93 1.52 1.39 2.82 1.39 1.3.01 2.24-.46 2.82-1.39m-6-16.93q0-.24.09-.51l1.26-3.48q.24-.69.57-.93c.33-.24.63-.24 1.23-.24h4.29c.42 0 .75.08.99.23s.36.37.36.65q0 .36-.24.75l-1.92 3.24q-.42.72-.81.93t-1.41.21h-3.21c-.8-.01-1.2-.29-1.2-.85M288.63 288.65c-.27-.28-.41-.71-.41-1.29v-17.01c0-.58.14-1 .41-1.27s.74-.41 1.42-.41h2.85c.42 0 .74.06.98.17.23.11.45.33.67.64l5.43 8.07v-7.17c0-.58.13-1.01.4-1.29s.74-.42 1.4-.42h3.57c.68 0 1.15.13 1.42.41.27.27.4.71.4 1.3v17.01c0 .58-.13 1.01-.4 1.28s-.75.4-1.42.4h-2.85c-.42 0-.75-.05-.98-.16s-.46-.33-.67-.65l-5.43-8.07v7.2c0 .58-.13 1.01-.4 1.28s-.75.4-1.43.4h-3.57c-.65 0-1.12-.14-1.39-.42" class="st1"/><circle cx="207.5" cy="140.5" r="91.5" class="st1"/><path d="M153.39 106.2s13.87 21.3 28.23 0" style="fill:none;stroke:#fff;stroke-width:11;stroke-miterlimit:10"/><path d="M237.04 159.42H223.6c-3.45 0-6.28-2.83-6.28-6.28 0-2.54 1.53-4.74 3.71-5.73a6.06 6.06 0 0 1-1.97-4.47c0-2.1 1.08-3.97 2.72-5.06-1.39-1.12-2.29-2.83-2.29-4.74 0-2.1 1.08-3.97 2.72-5.06-1.39-1.12-2.29-2.83-2.29-4.74 0-3.34 2.73-6.07 6.07-6.07h16.55l.41-.09 16.16.69 1.46 2.24-.25 36.05c0 .05-6.35 6.14-10.55 10.28-3.27 3.23-7.46 15.48-7.52 15.49-10.3 1.34-9.03-14.63-5.85-20.72.3-.55.5-1.17.64-1.79m40.28.21H267c-1.7 0-3.1-1.39-3.1-3.1v-35.44c0-1.7 1.39-3.1 3.1-3.1h10.32c1.7 0 3.1 1.39 3.1 3.1v35.44c0 1.7-1.4 3.1-3.1 3.1" style="fill-rule:evenodd;clip-rule:evenodd;fill:#e51f1f"/><path d="M177.7 119.76h13.44c3.45 0 6.28 2.83 6.28 6.28 0 2.54-1.53 4.74-3.71 5.73a6.06 6.06 0 0 1 1.97 4.47c0 2.1-1.08 3.97-2.72 5.06 1.39 1.12 2.29 2.83 2.29 4.74 0 2.1-1.08 3.97-2.72 5.06 1.39 1.12 2.29 2.83 2.29 4.74 0 3.34-2.73 6.07-6.07 6.07H172.2l-.41.09-16.16-.69-1.46-2.24.25-36.05c0-.05 6.35-6.14 10.55-10.28 3.27-3.23 7.46-15.48 7.52-15.49 10.3-1.34 9.03 14.63 5.85 20.72-.3.55-.5 1.17-.64 1.79m-40.28-.21h10.32c1.7 0 3.1 1.39 3.1 3.1v35.44c0 1.7-1.39 3.1-3.1 3.1h-10.32c-1.7 0-3.1-1.39-3.1-3.1v-35.44c0-1.7 1.39-3.1 3.1-3.1" style="fill-rule:evenodd;clip-rule:evenodd;fill:#0edb26"/><path d="m219 59-25 162" style="fill:none;stroke:#0085b0;stroke-width:7;stroke-miterlimit:10"/></svg>