<svg xmlns="http://www.w3.org/2000/svg" xml:space="preserve" id="Capa_1" x="0" y="0" version="1.1" viewBox="0 0 400 400"><style>.st1{fill:#fff}.st2{fill:#1f3642}.st3{fill:#a9bdda}.st5{fill:#74c475}</style><circle cx="207.5" cy="192.5" r="154.5" style="fill:#00d13c"/><path d="M159.08 254.17c-.27-.28-.41-.71-.41-1.29V235.9c0-.58.14-1.01.41-1.29s.73-.42 1.4-.42h9.09c2.44 0 4.23.52 5.39 1.56 1.15 1.04 1.72 2.52 1.72 4.44 0 .9-.19 1.7-.58 2.38-.39.69-.9 1.18-1.54 1.46q2.67.9 2.67 4.2c0 1.88-.67 3.41-1.99 4.59-1.33 1.18-3.29 1.77-5.87 1.77h-8.88c-.68 0-1.14-.14-1.41-.42m9.04-12.27q1.38 0 1.38-1.32c0-1.32-.46-1.32-1.38-1.32h-2.28v2.64zm.51 7.62c.42 0 .76-.13 1.02-.4s.39-.63.39-1.1c0-.48-.13-.85-.38-1.11s-.6-.39-1.04-.39h-2.79v3zM180.12 252.26c-1.84-1.85-2.76-4.47-2.76-7.88 0-3.4.92-6.02 2.76-7.88 1.84-1.85 4.54-2.77 8.1-2.77s6.26.92 8.1 2.77 2.76 4.48 2.76 7.88-.92 6.03-2.76 7.88-4.54 2.78-8.1 2.78-6.26-.93-8.1-2.78m10.92-3.66c.58-.93.87-2.33.87-4.21q0-2.85-.87-4.23c-.87-1.38-1.52-1.38-2.82-1.38q-1.95 0-2.82 1.38t-.87 4.23c0 1.88.29 3.29.87 4.21.58.93 1.52 1.4 2.82 1.4s2.24-.47 2.82-1.4" class="st1"/><path d="M204.41 254.17c-.27-.28-.41-.71-.41-1.29v-13.59h-4.32c-.64 0-1.08-.14-1.31-.41s-.34-.71-.34-1.3v-1.68c0-.6.12-1.04.34-1.31.23-.27.67-.41 1.31-.41h15.84c.64 0 1.08.13 1.31.41.23.27.35.71.35 1.31v1.68c0 .6-.12 1.04-.35 1.3-.23.27-.67.41-1.31.41h-4.32v13.59c0 .58-.14 1.01-.4 1.29-.27.28-.75.42-1.43.42h-3.57c-.66 0-1.12-.14-1.39-.42M227.48 254.17c-.27-.28-.41-.71-.41-1.29V235.9c0-.58.14-1.01.41-1.29s.73-.42 1.4-.42h6.9q10.59 0 10.59 10.2c0 3.36-.9 5.9-2.71 7.62s-4.44 2.58-7.88 2.58h-6.9c-.67 0-1.13-.14-1.4-.42m8.56-4.68c1.12 0 1.92-.37 2.42-1.11.49-.74.73-2.07.73-3.99s-.25-3.25-.73-3.99c-.49-.74-1.3-1.11-2.42-1.11h-1.77v10.2zM248.27 254.17c-.27-.28-.41-.71-.41-1.29V235.9c0-.58.14-1.01.41-1.29s.73-.42 1.4-.42h12.42c.64 0 1.07.13 1.31.41.23.27.34.71.34 1.31v1.68c0 .6-.12 1.04-.34 1.3-.23.27-.67.41-1.31.41h-7.02v2.58h4.32c.64 0 1.08.14 1.31.41s.35.71.35 1.3v1.62c0 .6-.12 1.03-.35 1.3s-.67.41-1.31.41h-4.32v2.58h6.99c.64 0 1.07.13 1.3.4s.35.71.35 1.31v1.68c0 .6-.12 1.04-.35 1.3-.23.27-.67.41-1.3.41h-12.39c-.67-.01-1.13-.15-1.4-.43M125.25 280.65c-.27-.28-.41-.71-.41-1.29v-16.98c0-.58.14-1.01.41-1.29s.73-.42 1.4-.42h7.17c3 0 5.19.59 6.56 1.78s2.05 2.99 2.05 5.39-.69 4.19-2.05 5.37c-1.37 1.18-3.55 1.77-6.53 1.77h-1.8v4.38c0 .58-.13 1.01-.4 1.29s-.75.42-1.43.42h-3.57c-.66 0-1.13-.14-1.4-.42m7.94-10.77c.64 0 1.14-.17 1.51-.51s.56-.85.56-1.53c0-.7-.19-1.22-.56-1.56s-.88-.51-1.51-.51h-2.04v4.11zM143.73 280.65c-.27-.28-.41-.71-.41-1.29v-16.98c0-.58.14-1.01.41-1.29s.73-.42 1.4-.42h7.17c3 0 5.19.59 6.56 1.78s2.05 2.99 2.05 5.39c0 1.44-.25 2.66-.73 3.65-.49.99-1.25 1.76-2.27 2.32l2.79 5.97q.12.24.12.54c0 .22-.08.4-.23.54a.8.8 0 0 1-.58.21h-5.07c-.32 0-.58-.04-.77-.13a.74.74 0 0 1-.4-.46l-2.22-5.58h-1.02v4.47c0 .58-.13 1.01-.4 1.29s-.75.42-1.43.42h-3.57c-.66-.01-1.13-.15-1.4-.43m7.94-10.77c.64 0 1.14-.17 1.51-.51s.56-.85.56-1.53c0-.7-.19-1.22-.56-1.56s-.88-.51-1.51-.51h-2.04v4.11zM166.94 280.57q-2.22-.945-3.45-2.73c-.82-1.19-1.23-2.61-1.23-4.25v-11.22c0-.58.14-1.01.41-1.29s.73-.42 1.4-.42h3.57c.68 0 1.15.13 1.42.41.27.27.41.71.41 1.3v11.31c0 .94.23 1.64.71 2.1.47.46 1.11.69 1.94.69.82 0 1.46-.23 1.93-.69s.71-1.16.71-2.1v-11.31c0-.58.14-1.01.41-1.29s.73-.42 1.4-.42h3.57c.68 0 1.15.13 1.42.41.27.27.41.71.41 1.3v11.22c0 1.64-.41 3.06-1.23 4.25q-1.23 1.785-3.45 2.73c-1.48.63-3.2.95-5.16.95-1.99 0-3.71-.32-5.19-.95M184.29 280.65c-.27-.28-.41-.71-.41-1.29v-16.98c0-.58.14-1.01.41-1.29s.73-.42 1.4-.42h12.42c.64 0 1.07.13 1.31.41.23.27.34.71.34 1.3v1.68c0 .6-.12 1.04-.34 1.3-.23.27-.67.41-1.31.41h-7.02v2.58h4.32c.64 0 1.08.14 1.31.41s.35.71.35 1.3v1.62c0 .6-.12 1.04-.35 1.31s-.67.4-1.31.4h-4.32v2.58h6.99c.64 0 1.07.13 1.3.41s.35.7.35 1.3v1.68c0 .6-.12 1.04-.35 1.3s-.67.4-1.3.4h-12.39c-.66.01-1.13-.13-1.4-.41M201.51 280.65c-.27-.28-.41-.71-.41-1.29v-16.98c0-.58.14-1.01.41-1.29s.73-.42 1.4-.42H212c2.44 0 4.23.52 5.39 1.56 1.15 1.04 1.72 2.52 1.72 4.44 0 .9-.19 1.69-.58 2.38s-.9 1.17-1.54 1.46q2.67.9 2.67 4.2c0 1.88-.67 3.41-1.99 4.59-1.33 1.18-3.29 1.77-5.87 1.77h-8.88q-1.005 0-1.41-.42m9.05-12.27q1.38 0 1.38-1.32t-1.38-1.32h-2.28v2.64zm.51 7.62c.42 0 .76-.14 1.02-.41s.39-.63.39-1.09c0-.48-.13-.85-.38-1.11s-.6-.39-1.04-.39h-2.79v3zM218.6 280.44q0-.27.15-.66l7.47-17.97c.18-.42.39-.71.62-.88s.56-.25.98-.25h3.27c.42 0 .74.08.97.25s.44.46.62.88l7.44 17.97q.15.39.15.66 0 .63-.66.63h-5.64q-.93 0-1.17-.81l-.72-2.22h-5.31l-.69 2.22q-.24.81-1.17.81h-5.64c-.45 0-.67-.21-.67-.63m12-7.14-1.17-3.72-1.17 3.72zM244.22 280.95q-2.34-.57-3.78-1.59-.6-.42-.6-.81 0-.27.21-.57l1.74-2.73q.27-.39.54-.39.24 0 .57.21c.72.44 1.54.79 2.48 1.04.93.25 1.83.38 2.71.38.74 0 1.27-.1 1.6-.3s.5-.51.5-.93q0-.69-.66-1.11t-2.28-1.05c-2.02-.78-3.61-1.67-4.77-2.66s-1.74-2.3-1.74-3.95c0-2.08.72-3.64 2.18-4.69 1.45-1.05 3.4-1.58 5.86-1.58 1.72 0 3.18.15 4.4.45 1.21.3 2.27.77 3.17 1.41q.6.42.6.81 0 .27-.21.57l-1.74 2.73q-.27.42-.54.42-.18 0-.57-.24c-.48-.32-1.05-.59-1.71-.79-.66-.21-1.37-.32-2.13-.32q-1.05 0-1.59.3t-.54.96c0 .36.13.66.38.9s.56.45.95.61c.38.17 1.04.45 1.98.83 1.5.6 2.68 1.17 3.54 1.72q1.29.825 1.95 1.98c.44.77.66 1.74.66 2.92 0 1.8-.67 3.26-2.02 4.37s-3.37 1.67-6.04 1.67c-1.85 0-3.54-.19-5.1-.57M274.86 280.65c-.27-.28-.41-.71-.41-1.29v-5.43l-6.99-11.97q-.18-.33-.18-.63 0-.66.69-.66h5.64c.3 0 .53.07.69.19.16.13.32.34.48.62l3.27 5.88 3.27-5.88c.16-.28.32-.48.48-.62.16-.13.39-.19.69-.19h5.64q.69 0 .69.66 0 .3-.18.63l-6.99 11.97v5.43c0 .58-.14 1.01-.41 1.29s-.75.42-1.42.42h-3.57c-.65 0-1.12-.14-1.39-.42M187.11 300.98c-1.14-.28-2.07-.67-2.77-1.17-.29-.21-.44-.4-.44-.59q0-.195.15-.42l1.28-2c.13-.19.26-.29.4-.29q.18 0 .42.15c.53.32 1.13.58 1.81.76s1.35.28 1.99.28c.54 0 .94-.07 1.18-.22s.36-.37.36-.68q0-.51-.48-.81c-.32-.21-.88-.46-1.67-.77-1.48-.57-2.65-1.22-3.5-1.95s-1.28-1.69-1.28-2.89c0-1.53.53-2.67 1.59-3.44s2.5-1.15 4.3-1.15c1.26 0 2.34.11 3.22.33.89.22 1.66.56 2.32 1.03.29.21.44.4.44.59q0 .195-.15.42l-1.28 2c-.13.21-.26.31-.4.31q-.135 0-.42-.18c-.35-.23-.77-.43-1.25-.58s-1-.23-1.56-.23c-.51 0-.9.07-1.17.22s-.4.38-.4.7q0 .39.27.66t.69.45c.42.18.76.33 1.45.61 1.1.44 1.97.86 2.6 1.26s1.11.89 1.43 1.45.48 1.28.48 2.14c0 1.32-.5 2.39-1.49 3.2s-2.47 1.22-4.43 1.22c-1.31.01-2.55-.13-3.69-.41M198.14 300.76c-.2-.21-.3-.52-.3-.95v-12.45c0-.43.1-.74.3-.95s.54-.31 1.02-.31h2.62c.5 0 .85.1 1.04.3q.3.3.3.96v9.96h5.13q.705 0 .96.3c.255.3.25.52.25.96v1.23c0 .44-.08.76-.25.96q-.255.3-.96.3h-9.09c-.48 0-.82-.1-1.02-.31" class="st1"/><path d="M209.35 300.61c0-.13.04-.29.11-.48l5.48-13.18c.13-.31.28-.53.45-.65s.41-.19.71-.19h2.4c.31 0 .55.06.71.19s.32.34.45.65l5.46 13.18c.07.19.11.35.11.48 0 .31-.16.46-.48.46h-4.14c-.46 0-.74-.2-.86-.59l-.53-1.63h-3.89l-.51 1.63c-.12.4-.4.59-.86.59h-4.14c-.31 0-.47-.15-.47-.46m8.8-5.24-.86-2.73-.86 2.73zM226.38 300.21c-.32-.18-.48-.35-.48-.53 0-.1.04-.23.13-.37l1.08-1.94c.1-.18.23-.26.37-.26.12 0 .26.04.44.13.4.21.91.4 1.54.58q.945.27 1.65.27c.31 0 .52-.03.64-.08s.18-.13.18-.25-.11-.22-.32-.31-.57-.2-1.07-.33c-.15-.04-.29-.08-.43-.12l-.41-.12q-1.83-.555-2.61-1.26c-.78-.705-.78-1.14-.78-1.99 0-1.11.48-1.97 1.45-2.56s2.28-.89 3.94-.89c1.03 0 1.9.08 2.63.25s1.44.44 2.15.8c.31.18.46.36.46.55 0 .12-.06.27-.18.46l-1.06 1.67c-.12.18-.23.26-.33.26q-.06 0-.42-.15c-.34-.16-.73-.3-1.17-.41s-.84-.17-1.21-.17c-.79 0-1.19.13-1.19.4 0 .12.13.22.38.31.26.09.69.21 1.31.35.81.19 1.36.34 1.67.44.66.23 1.17.48 1.52.73s.6.54.74.87q.21.495.21 1.29c0 .65-.2 1.24-.6 1.78s-1.02.97-1.85 1.3c-.83.32-1.85.48-3.07.48-2.1.01-3.87-.39-5.31-1.18" class="st1"/><circle cx="209" cy="146" r="78" class="st1"/><path d="M206.29 121.22v51.06c30.77 0 55.71-11.43 55.71-25.53s-24.94-25.53-55.71-25.53" class="st2"/><path d="M258.49 137.81c-.72-.88-1.53-1.73-2.45-2.56.47 8.12-1.13 17.69-4.31 26.27 1.23-.8 2.37-1.62 3.4-2.48 2.23-7.09 3.39-14.53 3.36-21.23" class="st3"/><path d="M221.77 182.91a145.4 145.4 0 0 0-32.97-.65c-25.29 2.37-34.29-34.2-30.68-52.61 1.84-9.39 12.67-16.11 21.82-18.2 16.58-3.79 34.29-4.02 50.96-.65 8.94 1.84 17.79 7.69 21.27 16.11 7.27 17.59-5.69 59.31-30.4 56" class="st3"/><path d="M180.48 128.6c1.84-9.39 12.67-16.11 21.82-18.2 3.32-.76 6.69-1.38 10.09-1.85-10.9-.48-21.91.49-32.45 2.9-9.15 2.09-19.98 8.81-21.82 18.2-3.61 18.41 5.39 54.98 30.68 52.61 11-1.03-11.93-35.25-8.32-53.66" style="opacity:.46;fill:#a6b4bc"/><path d="M238.25 164.71c-3.38 1.58-7 2.55-10.33 3.1-10.61 1.75-23.36.83-32.66-6.1-4.18-3.11-7.42-7.77-8.21-13.73-.06-.48-.13-.96-.19-1.44-1.5-11.4 5.42-21.87 14.99-22.76 11.54-1.08 23.12-1.08 34.66 0 9.57.89 16.49 11.36 14.99 22.76l-.18 1.36c-1.14 8.64-6.68 13.82-13.07 16.81" class="st2"/><path d="M233.22 156.4c0 2.2-3.8 6.03-8.5 6.03-4.69 0-8.5-3.83-8.5-6.03s3.8-1.94 8.5-1.94 8.5-.26 8.5 1.94M207.37 139.19c0 1.82-1.22 3.29-2.73 3.29s-2.73-1.47-2.73-3.29 1.22-3.29 2.73-3.29 2.73 1.47 2.73 3.29M242.66 139.19c0 1.82-1.22 3.29-2.73 3.29s-2.73-1.47-2.73-3.29 1.22-3.29 2.73-3.29 2.73 1.47 2.73 3.29" class="st5"/><path d="M262 146.75c0 4.45-2.49 8.64-6.87 12.29-.52.43-1.05.85-1.63 1.26-.14.1-.28.21-.43.31-.44.31-.89.61-1.35.91 3.18-8.59 4.78-18.15 4.31-26.27.21.19.43.39.63.59l.12.12.39.39c.12.12.23.24.34.36.06.06.12.12.17.19.14.15.28.31.41.47.13.14.25.29.37.44v.01c2.3 2.77 3.54 5.78 3.54 8.93" class="st2"/><path d="M258.49 137.81c.03 6.7-1.13 14.15-3.36 21.23-.52.43-1.05.85-1.63 1.26-.14.1-.28.21-.43.31-.44.31-.89.61-1.35.91 3.18-8.59 4.78-18.15 4.31-26.27.21.19.43.39.63.59l.12.12.39.39c.12.12.23.24.34.36.06.06.12.12.17.19.14.15.28.31.41.47.16.14.28.29.4.44" class="st3"/><path d="M168.6 127.95c-.6 0-18.01 11.75-18.01 18.8 0 7.04 17.41 18.79 18 18.79 3.37 0 6.09-8.41 6.09-18.79.01-10.38-2.71-18.79-6.08-18.8" class="st2"/><path d="M162.37 132.25c1.15 2.67 2.35 7.55 2.35 14.5s-1.2 11.82-2.35 14.5c1.19.93 2.3 1.75 3.25 2.42 2.09-4.06 3.08-10.63 3.08-16.91s-.99-12.86-3.08-16.91c-.95.65-2.07 1.47-3.25 2.4" class="st3"/></svg>