<svg xmlns="http://www.w3.org/2000/svg" xml:space="preserve" id="Capa_1" x="0" y="0" version="1.1" viewBox="0 0 400 400"><style>.st1{fill:#fff}.st2{fill:#daa449}.st8{fill:#253452}.st10{fill:#c2c2c2}.st15{fill:#a2cade}</style><circle cx="207.5" cy="192.5" r="154.5" style="fill:#0085b0"/><path d="M121.86 254.17c-.27-.28-.41-.71-.41-1.29v-17.01c0-.58.14-1 .41-1.27s.74-.41 1.42-.41h3.45c.44 0 .79.06 1.05.17s.46.32.6.64l3.51 8.79 3.51-8.79c.14-.32.34-.54.6-.64.26-.11.61-.17 1.05-.17h3.45c.68 0 1.15.13 1.42.41s.41.7.41 1.27v17.01c0 .58-.14 1.01-.41 1.29s-.73.42-1.4.42h-2.88q-.99 0-1.41-.42t-.42-1.29v-8.19l-1.77 4.08c-.24.58-.5 1-.78 1.25s-.74.38-1.38.38-1.1-.12-1.38-.38c-.28-.25-.54-.66-.78-1.25l-1.77-4.08v8.19c0 .58-.14 1.01-.41 1.29s-.75.42-1.42.42h-2.88c-.64 0-1.11-.14-1.38-.42M145.55 252.26c-1.84-1.85-2.76-4.47-2.76-7.88 0-3.4.92-6.02 2.76-7.88 1.84-1.85 4.54-2.77 8.1-2.77s6.26.92 8.1 2.77 2.76 4.48 2.76 7.88-.92 6.03-2.76 7.88-4.54 2.78-8.1 2.78-6.26-.93-8.1-2.78m10.92-3.66c.58-.93.87-2.33.87-4.21q0-2.85-.87-4.23c-.87-1.38-1.52-1.38-2.82-1.38q-1.95 0-2.82 1.38t-.87 4.23c0 1.88.29 3.29.87 4.21.58.93 1.52 1.4 2.82 1.4s2.24-.47 2.82-1.4M166.41 254.17c-.27-.28-.41-.71-.41-1.29V235.9c0-.58.14-1.01.41-1.29s.73-.42 1.4-.42h6.9q10.59 0 10.59 10.2c0 3.36-.9 5.9-2.71 7.62s-4.44 2.58-7.88 2.58h-6.9c-.66 0-1.13-.14-1.4-.42m8.57-4.68c1.12 0 1.92-.37 2.42-1.11.49-.74.73-2.07.73-3.99s-.25-3.25-.73-3.99c-.49-.74-1.3-1.11-2.42-1.11h-1.77v10.2zM191.33 254.09q-2.22-.945-3.45-2.73c-.82-1.19-1.23-2.61-1.23-4.25V235.9c0-.58.14-1.01.41-1.29s.73-.42 1.4-.42h3.57c.68 0 1.15.13 1.42.41s.41.71.41 1.31v11.31c0 .94.23 1.64.71 2.1.47.46 1.11.69 1.94.69.82 0 1.46-.23 1.93-.69s.71-1.16.71-2.1V235.9c0-.58.14-1.01.41-1.29s.73-.42 1.4-.42h3.57c.68 0 1.15.13 1.42.41s.41.71.41 1.31v11.22c0 1.64-.41 3.05-1.23 4.25q-1.23 1.785-3.45 2.73c-2.22.945-3.2.95-5.16.95-1.99-.02-3.71-.34-5.19-.97M208.68 254.17c-.27-.28-.41-.71-.41-1.29V235.9c0-.58.14-1.01.41-1.29s.73-.42 1.4-.42h3.57c.68 0 1.16.13 1.43.41s.4.71.4 1.31v13.59h6.99c.64 0 1.07.13 1.3.4s.35.71.35 1.31v1.68c0 .6-.12 1.04-.35 1.3-.23.27-.67.41-1.3.41h-12.39c-.66-.01-1.13-.15-1.4-.43M225.83 252.26c-1.84-1.85-2.76-4.47-2.76-7.88 0-3.4.92-6.02 2.76-7.88 1.84-1.85 4.54-2.77 8.1-2.77s6.26.92 8.1 2.77 2.76 4.48 2.76 7.88-.92 6.03-2.76 7.88-4.54 2.78-8.1 2.78-6.26-.93-8.1-2.78m10.92-3.66c.58-.93.87-2.33.87-4.21q0-2.85-.87-4.23c-.87-1.38-1.52-1.38-2.82-1.38q-1.95 0-2.82 1.38t-.87 4.23c0 1.88.29 3.29.87 4.21.58.93 1.52 1.4 2.82 1.4s2.24-.47 2.82-1.4M255.69 254.17c-.27-.28-.41-.71-.41-1.29V235.9c0-.58.14-1.01.41-1.29s.73-.42 1.4-.42h6.9q10.59 0 10.59 10.2c0 3.36-.9 5.9-2.71 7.62s-4.44 2.58-7.88 2.58h-6.9c-.66 0-1.13-.14-1.4-.42m8.57-4.68c1.12 0 1.92-.37 2.42-1.11.49-.74.73-2.07.73-3.99s-.25-3.25-.73-3.99c-.49-.74-1.3-1.11-2.42-1.11h-1.77v10.2zM276.48 254.17c-.27-.28-.41-.71-.41-1.29V235.9c0-.58.14-1.01.41-1.29s.73-.42 1.4-.42h12.42c.64 0 1.07.13 1.31.41.23.27.34.71.34 1.31v1.68c0 .6-.12 1.04-.34 1.3-.23.27-.67.41-1.31.41h-7.02v2.58h4.32c.64 0 1.08.14 1.31.41s.35.71.35 1.3v1.62c0 .6-.12 1.03-.35 1.3s-.67.41-1.31.41h-4.32v2.58h6.99c.64 0 1.07.13 1.3.4s.35.71.35 1.31v1.68c0 .6-.12 1.04-.35 1.3-.23.27-.67.41-1.3.41h-12.39c-.66-.01-1.13-.15-1.4-.43M117.66 280.65c-.27-.28-.41-.71-.41-1.29v-16.98c0-.58.14-1.01.41-1.29s.73-.42 1.4-.42h7.17c3 0 5.19.59 6.56 1.78s2.05 2.99 2.05 5.39c0 1.44-.25 2.66-.73 3.65-.49.99-1.25 1.76-2.27 2.32l2.79 5.97q.12.24.12.54c0 .22-.08.4-.23.54a.8.8 0 0 1-.58.21h-5.07c-.32 0-.58-.04-.77-.13a.74.74 0 0 1-.4-.46l-2.22-5.58h-1.02v4.47c0 .58-.13 1.01-.4 1.29s-.75.42-1.43.42h-3.57c-.66-.01-1.13-.15-1.4-.43m7.94-10.77c.64 0 1.14-.17 1.51-.51s.56-.85.56-1.53c0-.7-.19-1.22-.56-1.56s-.88-.51-1.51-.51h-2.04v4.11zM136.74 280.65c-.27-.28-.41-.71-.41-1.29v-16.98c0-.58.14-1.01.41-1.29s.73-.42 1.4-.42h12.42c.64 0 1.07.13 1.31.41.23.27.34.71.34 1.3v1.68c0 .6-.12 1.04-.34 1.3-.23.27-.67.41-1.31.41h-7.02v2.58h4.32c.64 0 1.08.14 1.31.41s.35.71.35 1.3v1.62c0 .6-.12 1.04-.35 1.31s-.67.4-1.31.4h-4.32v2.58h6.99c.64 0 1.07.13 1.3.41s.35.7.35 1.3v1.68c0 .6-.12 1.04-.35 1.3s-.67.4-1.3.4h-12.39c-.66.01-1.13-.13-1.4-.41M153.96 280.65c-.27-.28-.41-.71-.41-1.29v-16.98c0-.58.14-1.01.41-1.29s.73-.42 1.4-.42h7.17c3 0 5.19.59 6.56 1.78s2.05 2.99 2.05 5.39-.69 4.19-2.05 5.37c-1.37 1.18-3.55 1.77-6.53 1.77h-1.8v4.38c0 .58-.13 1.01-.4 1.29s-.75.42-1.43.42h-3.57c-.66 0-1.13-.14-1.4-.42m7.94-10.77c.64 0 1.14-.17 1.51-.51s.56-.85.56-1.53c0-.7-.19-1.22-.56-1.56s-.88-.51-1.51-.51h-2.04v4.11z" class="st1"/><path d="M173.45 278.74c-1.84-1.85-2.76-4.47-2.76-7.88s.92-6.03 2.76-7.88 4.54-2.78 8.1-2.78 6.26.93 8.1 2.78 2.76 4.47 2.76 7.88-.92 6.03-2.76 7.88-4.54 2.78-8.1 2.78-6.26-.93-8.1-2.78m10.92-3.66c.58-.93.87-2.33.87-4.21q0-2.85-.87-4.23c-.87-1.38-1.52-1.38-2.82-1.38q-1.95 0-2.82 1.38t-.87 4.23c0 1.88.29 3.29.87 4.21.58.93 1.52 1.39 2.82 1.39 1.3.01 2.24-.46 2.82-1.39M194.31 280.65c-.27-.28-.41-.71-.41-1.29v-16.98c0-.58.14-1.01.41-1.29s.73-.42 1.4-.42h7.17c3 0 5.19.59 6.56 1.78s2.05 2.99 2.05 5.39c0 1.44-.25 2.66-.73 3.65-.49.99-1.25 1.76-2.27 2.32l2.79 5.97q.12.24.12.54c0 .22-.08.4-.23.54a.8.8 0 0 1-.58.21h-5.07c-.32 0-.58-.04-.77-.13a.74.74 0 0 1-.4-.46l-2.22-5.58h-1.02v4.47c0 .58-.13 1.01-.4 1.29s-.75.42-1.43.42h-3.57c-.66-.01-1.13-.15-1.4-.43m7.94-10.77c.64 0 1.14-.17 1.51-.51s.56-.85.56-1.53c0-.7-.19-1.22-.56-1.56s-.88-.51-1.51-.51h-2.04v4.11z" class="st1"/><path d="M217.11 280.65c-.27-.28-.41-.71-.41-1.29v-13.59h-4.32c-.64 0-1.08-.14-1.31-.41s-.34-.71-.34-1.3v-1.68c0-.6.12-1.04.34-1.3.23-.27.67-.41 1.31-.41h15.84c.64 0 1.08.13 1.31.41.23.27.35.71.35 1.3v1.68c0 .6-.12 1.04-.35 1.3-.23.27-.67.41-1.31.41h-4.32v13.59c0 .58-.14 1.01-.4 1.29-.27.28-.75.42-1.43.42h-3.57c-.65 0-1.12-.14-1.39-.42M231.18 280.65c-.27-.28-.41-.71-.41-1.29v-16.98c0-.58.14-1.01.41-1.29s.73-.42 1.4-.42H245c.64 0 1.07.13 1.31.41.23.27.34.71.34 1.3v1.68c0 .6-.12 1.04-.34 1.3-.23.27-.67.41-1.31.41h-7.02v2.58h4.32c.64 0 1.08.14 1.31.41s.35.71.35 1.3v1.62c0 .6-.12 1.04-.35 1.31s-.67.4-1.31.4h-4.32v2.58h6.99c.64 0 1.07.13 1.3.41s.35.7.35 1.3v1.68c0 .6-.12 1.04-.35 1.3s-.67.4-1.3.4h-12.39c-.66.01-1.13-.13-1.4-.41M251.81 280.95q-2.34-.57-3.78-1.59-.6-.42-.6-.81 0-.27.21-.57l1.74-2.73q.27-.39.54-.39.24 0 .57.21c.72.44 1.54.79 2.48 1.04.93.25 1.83.38 2.71.38.74 0 1.27-.1 1.6-.3s.5-.51.5-.93q0-.69-.66-1.11t-2.28-1.05c-2.02-.78-3.61-1.67-4.77-2.66s-1.74-2.3-1.74-3.95c0-2.08.72-3.64 2.18-4.69 1.45-1.05 3.4-1.58 5.86-1.58 1.72 0 3.18.15 4.4.45 1.21.3 2.27.77 3.17 1.41q.6.42.6.81 0 .27-.21.57l-1.74 2.73q-.27.42-.54.42-.18 0-.57-.24c-.48-.32-1.05-.59-1.71-.79-.66-.21-1.37-.32-2.13-.32q-1.05 0-1.59.3t-.54.96c0 .36.13.66.38.9s.56.45.95.61c.38.17 1.04.45 1.98.83 1.5.6 2.68 1.17 3.54 1.72q1.29.825 1.95 1.98c.44.77.66 1.74.66 2.92 0 1.8-.67 3.26-2.02 4.37s-3.37 1.67-6.04 1.67c-1.85 0-3.54-.19-5.1-.57M282.45 280.65c-.27-.28-.41-.71-.41-1.29v-5.43l-6.99-11.97q-.18-.33-.18-.63 0-.66.69-.66h5.64c.3 0 .53.07.69.19.16.13.32.34.48.62l3.27 5.88 3.27-5.88c.16-.28.32-.48.48-.62.16-.13.39-.19.69-.19h5.64q.69 0 .69.66 0 .3-.18.63l-6.99 11.97v5.43c0 .58-.14 1.01-.41 1.29s-.75.42-1.42.42h-3.57c-.65 0-1.12-.14-1.39-.42M117.54 300.61c0-.13.04-.29.11-.48l5.48-13.18c.13-.31.28-.53.45-.65s.41-.19.71-.19h2.4c.31 0 .55.06.71.19s.32.34.45.65l5.46 13.18c.07.19.11.35.11.48 0 .31-.16.46-.48.46h-4.14c-.46 0-.74-.2-.86-.59l-.53-1.63h-3.89l-.51 1.63c-.12.4-.4.59-.86.59h-4.14c-.31 0-.47-.15-.47-.46m8.8-5.24-.86-2.73-.86 2.73zM134.82 300.76c-.2-.21-.3-.52-.3-.95v-12.45c0-.43.1-.74.3-.95s.54-.31 1.02-.31h5.06c5.18 0 7.77 2.49 7.77 7.48 0 2.46-.66 4.33-1.99 5.59s-3.25 1.89-5.77 1.89h-5.06c-.49.01-.83-.09-1.03-.3m6.28-3.43q1.23 0 1.77-.81c.36-.54.54-1.52.54-2.93s-.18-2.38-.54-2.93q-.54-.81-1.77-.81h-1.3v7.48zM150.06 300.76c-.2-.21-.3-.52-.3-.95v-12.47c0-.42.1-.74.3-.93.2-.2.55-.3 1.04-.3h2.53c.32 0 .58.04.77.12s.34.24.44.47l2.57 6.45 2.57-6.45c.1-.23.25-.39.44-.47s.45-.12.77-.12h2.53c.5 0 .85.1 1.04.3q.3.3.3.93v12.47c0 .43-.1.74-.3.95s-.54.31-1.02.31h-2.11c-.48 0-.83-.1-1.03-.31-.21-.21-.31-.52-.31-.95v-6.01l-1.3 2.99c-.18.43-.37.73-.57.91-.21.18-.54.27-1.01.27s-.81-.09-1.01-.27c-.21-.18-.4-.49-.57-.91l-1.3-2.99v6.01c0 .43-.1.74-.3.95s-.55.31-1.04.31h-2.11c-.48 0-.82-.1-1.02-.31M166.92 300.76c-.2-.21-.3-.52-.3-.95v-12.45c0-.43.1-.74.3-.95s.54-.31 1.02-.31h2.62c.5 0 .85.1 1.04.3q.3.3.3.96v12.45c0 .43-.1.74-.3.95s-.55.31-1.04.31h-2.62c-.49 0-.83-.1-1.02-.31M173.73 300.76c-.2-.21-.3-.52-.3-.95v-12.47c0-.42.1-.74.3-.93.2-.2.55-.3 1.04-.3h2.09c.31 0 .55.04.71.12.17.08.33.24.5.47l3.98 5.92v-5.26c0-.43.1-.74.3-.95s.54-.31 1.02-.31H186c.5 0 .85.1 1.04.3q.3.3.3.96v12.47c0 .42-.1.74-.3.93-.2.2-.55.3-1.04.3h-2.09q-.465 0-.72-.12c-.17-.08-.33-.24-.49-.47l-3.98-5.92v5.28c0 .42-.1.74-.3.93-.2.2-.55.3-1.04.3h-2.62c-.49.01-.83-.09-1.03-.3M189.18 300.76c-.2-.21-.3-.52-.3-.95v-12.45c0-.43.1-.74.3-.95s.54-.31 1.02-.31h2.62c.5 0 .85.1 1.04.3q.3.3.3.96v12.45c0 .43-.1.74-.3.95s-.55.31-1.04.31h-2.62c-.48 0-.82-.1-1.02-.31M198.5 300.98c-1.14-.28-2.07-.67-2.77-1.17-.29-.21-.44-.4-.44-.59q0-.195.15-.42l1.28-2c.13-.19.26-.29.4-.29q.18 0 .42.15c.53.32 1.13.58 1.81.76s1.35.28 1.99.28c.54 0 .94-.07 1.18-.22s.36-.37.36-.68q0-.51-.48-.81c-.32-.21-.88-.46-1.67-.77-1.48-.57-2.65-1.22-3.5-1.95s-1.28-1.69-1.28-2.89c0-1.53.53-2.67 1.59-3.44s2.5-1.15 4.3-1.15c1.26 0 2.34.11 3.22.33.89.22 1.66.56 2.32 1.03.29.21.44.4.44.59q0 .195-.15.42l-1.28 2c-.13.21-.26.31-.4.31q-.135 0-.42-.18c-.35-.23-.77-.43-1.25-.58s-1-.23-1.56-.23c-.51 0-.9.07-1.17.22s-.4.38-.4.7q0 .39.27.66t.69.45c.42.18.76.33 1.45.61 1.1.44 1.97.86 2.6 1.26s1.11.89 1.43 1.45.48 1.28.48 2.14c0 1.32-.5 2.39-1.49 3.2s-2.47 1.22-4.43 1.22c-1.31.01-2.55-.13-3.69-.41" class="st1"/><path d="M212.48 300.76c-.2-.21-.3-.52-.3-.95v-9.97h-3.17q-.705 0-.96-.3c-.255-.3-.25-.52-.25-.96v-1.23c0-.44.08-.76.25-.96q.255-.3.96-.3h11.62q.705 0 .96.3c.17.2.25.52.25.96v1.23c0 .44-.08.76-.25.96s-.49.3-.96.3h-3.17v9.97c0 .43-.1.74-.3.95s-.55.31-1.04.31h-2.62c-.48 0-.82-.1-1.02-.31M222.79 300.76c-.2-.21-.3-.52-.3-.95v-12.45c0-.43.1-.74.3-.95s.54-.31 1.02-.31h5.26c2.2 0 3.8.44 4.81 1.31 1 .87 1.51 2.19 1.51 3.95q0 1.59-.54 2.67c-.54 1.08-.91 1.29-1.66 1.7l2.05 4.38c.06.12.09.25.09.4 0 .16-.06.29-.17.4-.11.1-.25.15-.43.15h-3.72c-.23 0-.42-.03-.56-.1a.6.6 0 0 1-.3-.34l-1.63-4.09h-.75v3.28c0 .43-.1.74-.3.95s-.55.31-1.04.31h-2.62c-.48 0-.82-.1-1.02-.31m5.82-7.9c.47 0 .84-.13 1.11-.38s.41-.62.41-1.12c0-.51-.14-.89-.41-1.14s-.64-.37-1.11-.37h-1.5v3.01z" class="st1"/><path d="M235.06 300.61c0-.13.04-.29.11-.48l5.48-13.18c.13-.31.28-.53.45-.65s.41-.19.71-.19h2.4c.31 0 .55.06.71.19s.32.34.45.65l5.46 13.18c.07.19.11.35.11.48 0 .31-.16.46-.48.46h-4.14c-.46 0-.74-.2-.86-.59l-.53-1.63h-3.89l-.51 1.63c-.12.4-.4.59-.86.59h-4.14c-.31 0-.47-.15-.47-.46m8.8-5.24-.86-2.73-.86 2.73zM252.62 299.43c-1.48-1.31-2.22-3.26-2.22-5.84 0-2.6.71-4.55 2.15-5.85 1.43-1.3 3.47-1.96 6.13-1.96 1.2 0 2.27.12 3.21.35s1.72.56 2.35.99c.18.13.26.28.26.44 0 .13-.07.32-.2.55l-1.1 1.89c-.12.21-.26.31-.42.31q-.15 0-.51-.18-.615-.315-1.29-.48c-.45-.12-.97-.18-1.57-.18-1.22 0-2.15.35-2.79 1.06-.65.7-.97 1.72-.97 3.06 0 1.32.35 2.34 1.06 3.05.7.71 1.66 1.07 2.88 1.07 1.06 0 2.02-.22 2.9-.66q.345-.18.51-.18c.16 0 .3.1.42.31l1.1 1.89c.13.24.2.42.2.55 0 .16-.09.31-.26.44-.63.43-1.42.76-2.38.99-.95.23-2.03.35-3.23.35-2.68 0-4.75-.66-6.23-1.97M266.11 300.76c-.2-.21-.3-.52-.3-.95v-12.45c0-.43.1-.74.3-.95s.54-.31 1.02-.31h2.62c.5 0 .85.1 1.04.3q.3.3.3.96v12.45c0 .43-.1.74-.3.95s-.55.31-1.04.31h-2.62c-.48 0-.82-.1-1.02-.31M274.22 299.36c-1.35-1.36-2.02-3.28-2.02-5.77s.67-4.42 2.02-5.77q2.025-2.04 5.94-2.04t5.94 2.04c1.35 1.36 2.02 3.28 2.02 5.77s-.67 4.42-2.02 5.77q-2.025 2.04-5.94 2.04t-5.94-2.04m8.01-2.68c.43-.68.64-1.71.64-3.09 0-1.39-.21-2.43-.64-3.1s-1.11-1.01-2.07-1.01c-.95 0-1.64.34-2.07 1.01-.43.68-.64 1.71-.64 3.1 0 1.38.21 2.41.64 3.09s1.11 1.02 2.07 1.02q1.425 0 2.07-1.02m-4.4-12.42c0-.12.02-.24.07-.37l.92-2.55c.12-.34.26-.56.42-.68q.24-.18.9-.18h3.15c.31 0 .55.05.73.17.18.11.26.27.26.47 0 .18-.06.36-.18.55l-1.41 2.38c-.21.35-.4.58-.59.68s-.54.15-1.03.15h-2.35c-.6 0-.89-.21-.89-.62M289.52 300.76c-.2-.21-.3-.52-.3-.95v-12.47c0-.42.1-.74.3-.93.2-.2.55-.3 1.04-.3h2.09c.31 0 .55.04.71.12.17.08.33.24.5.47l3.98 5.92v-5.26c0-.43.1-.74.3-.95s.54-.31 1.02-.31h2.62c.5 0 .85.1 1.04.3q.3.3.3.96v12.47c0 .42-.1.74-.3.93-.2.2-.55.3-1.04.3h-2.09q-.465 0-.72-.12c-.17-.08-.33-.24-.49-.47l-3.98-5.92v5.28c0 .42-.1.74-.3.93-.2.2-.55.3-1.04.3h-2.62q-.72.015-1.02-.3" class="st1"/><circle cx="209" cy="146" r="78" class="st1"/><path d="M222.09 137.71H182.7l-3.66-5.47h-31.61l12.42 53.89h73.12z" class="st2"/><path d="M159.85 146.1h69.18v39.62h-69.18z" class="st1"/><path d="M232.97 186.13h-73.12l14.91-34.55h73.11z" style="fill:#f1cc4b"/><path d="M190.07 151.58v29.11H162.2l-2.35 5.44h73.12l14.9-34.55z" class="st2"/><path d="M191.08 101.6h64.34v81.41h-64.34z" style="fill:#d4d4d4"/><path d="M188.73 101.6h64.34v81.41h-64.34z" class="st1"/><path d="M194 138h16v32h-16z" style="fill:#cd7054"/><path d="M213 127h16v43h-16z" style="fill:#61dbd2"/><path d="M233 112h16v58h-16z" style="fill:#50d81d"/><path d="M263.97 165.42c0-1.88-1.61-3.41-3.58-3.41l-11.61.02-11.62.02c-1.97 0-3.58 1.54-3.57 3.42l.07 27.49c0 1.88 1.62 3.41 3.59 3.41l11.61-.02 11.62-.02c1.97 0 3.58-1.54 3.57-3.42z" class="st8"/><path d="M261.69 165.42c0-1.88-1.61-3.41-3.58-3.41l-11.61.02-11.62.02c-1.97 0-3.58 1.54-3.57 3.42l.07 27.49c0 1.88 1.62 3.41 3.59 3.41l11.61-.02 11.62-.02c1.97 0 3.58-1.54 3.57-3.42z" style="fill:#2a3d60"/><path d="M258.05 177.08h-2.64c-1.41 0-2.55 1.14-2.55 2.55v11.309999999999999c0 1.41 1.14 2.55 2.55 2.55h2.64c1.41 0 2.55-1.14 2.55-2.55v-11.31c.01-1.4-1.14-2.55-2.55-2.55M241.27 182.28c0 1.41-1.14 2.55-2.55 2.55h-2.64c-1.41 0-2.55-1.14-2.55-2.55v-2.64c0-1.41 1.14-2.55 2.55-2.55h2.64c1.41 0 2.55 1.14 2.55 2.55zM241.27 190.95c0 1.41-1.14 2.55-2.55 2.55h-2.64c-1.41 0-2.55-1.14-2.55-2.55v-2.64c0-1.41 1.14-2.55 2.55-2.55h2.64c1.41 0 2.55 1.14 2.55 2.55zM250.89 182.28c0 1.41-1.14 2.55-2.55 2.55h-2.64c-1.41 0-2.56-1.14-2.56-2.55v-2.64a2.55 2.55 0 0 1 2.56-2.55h2.64c1.41 0 2.55 1.14 2.55 2.55zM250.89 190.95c0 1.41-1.14 2.55-2.55 2.55h-2.64c-1.41 0-2.56-1.14-2.56-2.55v-2.64a2.55 2.55 0 0 1 2.56-2.55h2.64c1.41 0 2.55 1.14 2.55 2.55z" class="st10"/><path d="M257.07 177.08h-2.64c-1.41 0-2.55 1.14-2.55 2.55v11.309999999999999c0 1.41 1.14 2.55 2.55 2.55h2.64c1.41 0 2.56-1.14 2.56-2.55v-11.31a2.57 2.57 0 0 0-2.56-2.55M240.29 182.28c0 1.41-1.14 2.55-2.55 2.55h-2.64c-1.41 0-2.55-1.14-2.55-2.55v-2.64c0-1.41 1.14-2.55 2.55-2.55h2.64c1.41 0 2.55 1.14 2.55 2.55zM240.29 190.95c0 1.41-1.14 2.55-2.55 2.55h-2.64c-1.41 0-2.55-1.14-2.55-2.55v-2.64c0-1.41 1.14-2.55 2.55-2.55h2.64c1.41 0 2.55 1.14 2.55 2.55zM249.9 182.28c0 1.41-1.14 2.55-2.55 2.55h-2.64c-1.41 0-2.55-1.14-2.55-2.55v-2.64c0-1.41 1.14-2.55 2.55-2.55h2.64c1.41 0 2.55 1.14 2.55 2.55zM249.9 190.95c0 1.41-1.14 2.55-2.55 2.55h-2.64c-1.41 0-2.55-1.14-2.55-2.55v-2.64c0-1.41 1.14-2.55 2.55-2.55h2.64c1.41 0 2.55 1.14 2.55 2.55z" class="st1"/><path d="M233.93 180.16h1.67v-1.69h1.6v1.69h1.7v1.6h-1.7v1.69h-1.6v-1.69h-1.67zM234.09 190.81l1.18-1.18-1.19-1.19 1.13-1.13 1.19 1.19 1.2-1.2 1.13 1.13-1.2 1.2 1.19 1.19-1.13 1.13-1.19-1.19-1.18 1.18zM243.62 180.16h4.82v1.6h-4.82z" class="st8"/><path d="M253.57 183.51h4.34v1.36h-4.34zm0 2.2h4.34v1.36h-4.34z" style="fill:#6c92d5"/><path d="M243.62 188.83h4.82v1.6h-4.82zM246.77 187.5c0-.41-.33-.74-.74-.74s-.74.33-.74.74.33.74.74.74c.41.01.74-.33.74-.74M246.77 191.75c0-.41-.33-.74-.74-.74s-.74.33-.74.74.33.74.74.74.74-.33.74-.74" class="st8"/><path d="M260.08 170.12a2.59 2.59 0 0 1-2.59 2.59h-21.92a2.59 2.59 0 0 1-2.59-2.59v-3.15a2.59 2.59 0 0 1 2.59-2.59h21.92a2.59 2.59 0 0 1 2.59 2.59z" style="fill:#81c378"/><path d="M246.93 170.42h1.88c.44 0 .42-.24.42-.38v-.22c0-.24-.07-.38-.34-.38h-.31c-.23 0-.31.1-.31.32h-1.33l.16-3.31h3.3v1.24h-1.95l-.03.73c.19-.11.37-.14.46-.14.19-.01.45-.01.54 0 .83.07 1.2.64 1.2 1.4v.67c0 .98-.75 1.35-1.45 1.35-.88 0-1.28-.01-2.24-.17zM252.33 166.44c.71-.11 1.7.01 2.37.15v1.06h-1.56c-.65 0-.65.39-.65.91.26-.14.49-.15 1.09-.15 1.04 0 1.29.57 1.29 1.35v.65c0 .93-.53 1.28-1.36 1.28h-.98c-.87 0-1.42-.5-1.42-2.74-.01-1.91.59-2.41 1.22-2.51m.73 3.99h.12c.23 0 .31-.06.31-.33v-.14c0-.31-.01-.39-.27-.39h-.73c0 .76.1.86.57.86M255.22 166.45h3.43l.33.56-1.63 4.66h-1.47l1.41-3.98h-2.07z" class="st1"/><path d="M259.69 165.62c-.47-.45-1.09-.73-1.8-.73h-21.92a2.59 2.59 0 0 0-2.59 2.59v3.15c0 .5.14.97.38 1.36-.48-.47-.79-1.13-.79-1.86v-3.15a2.59 2.59 0 0 1 2.59-2.59h21.92c.94-.01 1.75.48 2.21 1.23" style="fill:#587955"/><g style="opacity:.5"><path d="m239.21 164.39-6.18 6.18c.11.64.45 1.19.94 1.58l7.76-7.76zM244.7 164.39l-8.33 8.33h10.23l8.33-8.33z" class="st15"/></g></svg>