<svg xmlns="http://www.w3.org/2000/svg" xml:space="preserve" viewBox="0 0 1000 1000"><style>.st0{fill:#f2f2f2}.st1{fill:none;stroke:#798eab;stroke-width:12;stroke-miterlimit:10;stroke-dasharray:12}.st2{fill:#2e4968}.st3{fill:#3f3d56}.st4{fill:#6c63ff}.st5{fill:#ccc}.st7{fill:#89b749}.st8{fill:#fff}.st9{fill:#447ab7}.st10{fill:#798eab}.st11,.st12{fill:none;stroke:#89b749;stroke-width:13;stroke-miterlimit:10}.st12{stroke-dasharray:11.5314,11.5314}.st13{fill:#5b772d}.st14{fill:none;stroke:#447ab7;stroke-width:10;stroke-miterlimit:10}.st16{fill:#38638e}.st17{fill:none;stroke:#798eab;stroke-width:12;stroke-miterlimit:10}</style><g id="Capa_1"><path d="M637.29 465.59c-17.31.08-31.4.34-31.4.34s16.75-22.18 31.33-13.96c14.59 8.22 31.35 13.67 31.35 13.67s-13.97-.13-31.28-.05M411.75 390.22c-17.31.08-31.4.34-31.4.34s16.75-22.18 31.33-13.96 31.35 13.67 31.35 13.67-13.97-.13-31.28-.05" class="st0"/><path d="M421 808h177" class="st1"/><path d="m433.27 822.93-18.12-15.86L433 786.93zM587.57 787.35l16.69 17.36-19.5 18.53z" class="st2"/></g><g id="Capa_2"><path d="m389.23 667-.56-.13c6.27-27.89 22.03-53.21 44.38-71.31 54.98-44.45 135.58-35.93 180.04 19.05a128 128 0 0 1 25.24 51.92l-.56.13c-13.28-58.29-64.36-99-124.23-99-59.09.01-111.36 41.78-124.31 99.34" class="st3"/><path d="M402.42 663.44c.49 1.8 2.16 2.92 2.16 2.92s.88-1.81.39-3.61-2.16-2.92-2.16-2.92-.88 1.81-.39 3.61" class="st3"/><path d="M403.13 663.06c1.34 1.3 1.5 3.31 1.5 3.31s-2.01-.11-3.35-1.41-1.5-3.31-1.5-3.31 2.01.1 3.35 1.41" class="st4"/><path d="M439.6 663.44c.49 1.8 2.16 2.92 2.16 2.92s.88-1.81.39-3.61-2.16-2.92-2.16-2.92-.88 1.81-.39 3.61" class="st3"/><path d="M440.32 663.06c1.34 1.3 1.5 3.31 1.5 3.31s-2.01-.11-3.35-1.41-1.5-3.31-1.5-3.31 2.01.1 3.35 1.41" class="st4"/><path d="m446.97 519.67-5.88-4.71 32.97-29.44h83.59v25.91l-54.16 36.5z" class="st3"/><path d="M572.9 502.03v-15.92h-11.1v3.9l-4.15-4.49-27.08 29.44-10.59 7.06-16.44 120.05 24.78 24.78h57.59V516.14z" class="st5"/><path d="M441.09 514.96h89.49v151.89h-89.49z" class="st0"/><path d="M475.82 629.76h16.48v37.09h-16.48z" class="st5"/><path d="M458.16 640.36v-5.89h-7.06v5.89h6.47zM457.57 645.07h-6.47v5.88h7.06v-5.88zM462.87 634.47h7.06v5.89h-7.06zM462.87 645.07h7.06v5.89h-7.06zM506.43 640.36v-5.89h-7.06v5.89h6.48zM505.85 645.07h-6.48v5.88h7.06v-5.88zM511.14 634.47h7.06v5.89h-7.06zM511.14 645.07h7.06v5.89h-7.06zM555.89 571.76v-5.88h-7.07v5.88h6.48z" class="st3"/><path d="M555.3 560.29h-6.48v5.89h7.07v-5.89zM560.6 549.69h7.06v5.89h-7.06zM560.6 560.29h7.06v5.89h-7.06zM555.89 588.55v-5.89h-7.07v5.89h6.48zM555.3 593.26h-6.48v5.89h7.07v-5.89zM560.6 582.66h7.06v5.89h-7.06zM560.6 593.26h7.06v5.89h-7.06zM555.89 621.52v-5.89h-7.07v5.89h6.48zM555.3 626.23h-6.48v5.88h7.07v-5.88zM560.6 615.63h7.06v5.89h-7.06zM560.6 626.23h7.06v5.89h-7.06zM451.1 550.87h68.29V565H451.1zM451.1 579.13h68.29v14.13H451.1zM451.1 607.39h68.29v14.13H451.1zM349.63 666.26h327.74v.58H349.63z" class="st3"/><path d="M404.51 599.69h1.69v66.89h-1.69z" class="st3"/><path d="M421.84 608.22c.11 23.39-16.35 42.43-16.35 42.43s-16.63-18.88-16.74-42.27 16.35-42.43 16.35-42.43 16.63 18.88 16.74 42.27" class="st4"/><path d="M421.84 608.22c.11 23.39-16.35 42.43-16.35 42.43s-16.63-18.88-16.74-42.27 16.35-42.43 16.35-42.43 16.63 18.88 16.74 42.27" style="opacity:.1"/><path d="M399.82 608.22c.11 23.39-16.35 42.43-16.35 42.43s-16.63-18.88-16.74-42.27 16.35-42.43 16.35-42.43 16.63 18.88 16.74 42.27" class="st4"/><path d="M647.98 599.69h1.69v66.89h-1.69z" class="st3"/><path d="M665.3 608.22c.11 23.39-16.35 42.43-16.35 42.43s-16.63-18.88-16.74-42.27 16.35-42.43 16.35-42.43 16.63 18.88 16.74 42.27" class="st4"/><path d="M587.34 625.06h17.09v-4.12h9.43v4.12h17.68v18.27h-17.68v22.99h-9.43v-22.99h-17.09l-8.84-10.02zM350.28 582.67h2.2v86.79h-2.2z" class="st3"/></g><g id="Capa_3"><circle cx="141.5" cy="429.5" r="83.5" class="st7"/><path d="M82.61 440.85c-2.15-1.91-3.23-4.74-3.23-8.5 0-3.78 1.04-6.61 3.12-8.51q3.12-2.85 8.91-2.85c1.75 0 3.31.17 4.67.51s2.51.82 3.42 1.44c.26.19.38.41.38.64 0 .19-.1.46-.29.8l-1.6 2.75c-.17.3-.37.45-.61.45-.15 0-.4-.08-.74-.26-.6-.3-1.22-.53-1.87-.7s-1.41-.26-2.29-.26c-1.77 0-3.13.51-4.06 1.54-.94 1.02-1.41 2.51-1.41 4.45 0 1.92.51 3.4 1.54 4.43 1.02 1.04 2.42 1.55 4.19 1.55 1.54 0 2.94-.32 4.22-.96.34-.17.59-.26.74-.26.23 0 .44.15.61.45l1.6 2.75c.19.34.29.61.29.8 0 .23-.13.45-.38.64-.92.62-2.07 1.1-3.46 1.44s-2.96.51-4.7.51c-3.88.01-6.9-.94-9.05-2.85" class="st8"/><path d="M102.67 440.75q-2.94-2.955-2.94-8.4t2.94-8.4c2.94-2.955 4.84-2.96 8.64-2.96s6.68.99 8.64 2.96q2.94 2.955 2.94 8.4t-2.94 8.4c-1.96 1.97-4.84 2.96-8.64 2.96s-6.68-.98-8.64-2.96m11.65-3.9q.93-1.485.93-4.5c0-2.03-.31-3.53-.93-4.51s-1.62-1.47-3.01-1.47-2.39.49-3.01 1.47-.93 2.49-.93 4.51c0 2.01.31 3.5.93 4.5.62.99 1.62 1.49 3.01 1.49s2.39-.5 3.01-1.49M124.93 442.79c-.29-.3-.43-.76-.43-1.38V423.3c0-.62.14-1.08.43-1.38s.78-.45 1.49-.45h7.65c3.2 0 5.53.63 6.99 1.9s2.19 3.18 2.19 5.74c0 1.54-.26 2.83-.78 3.89s-1.33 1.88-2.42 2.48l2.98 6.37c.08.17.13.36.13.58 0 .23-.08.43-.24.58s-.37.22-.62.22h-5.41c-.34 0-.61-.05-.82-.14-.2-.1-.35-.26-.43-.5l-2.37-5.95h-1.09v4.77c0 .62-.14 1.08-.43 1.38s-.79.45-1.52.45h-3.81c-.71-.01-1.21-.16-1.49-.45m8.46-11.49q1.02 0 1.62-.54c.39-.36.59-.91.59-1.63 0-.75-.2-1.3-.59-1.66-.4-.36-.93-.54-1.62-.54h-2.18v4.38h2.18zM145.28 442.79c-.29-.3-.43-.76-.43-1.38V423.3c0-.62.14-1.08.43-1.38s.78-.45 1.49-.45h7.65c3.2 0 5.53.63 6.99 1.9s2.19 3.18 2.19 5.74c0 1.54-.26 2.83-.78 3.89s-1.33 1.88-2.42 2.48l2.98 6.37c.08.17.13.36.13.58 0 .23-.08.43-.24.58s-.37.22-.62.22h-5.41c-.34 0-.61-.05-.82-.14-.2-.1-.35-.26-.43-.5l-2.37-5.95h-1.09v4.77c0 .62-.14 1.08-.43 1.38s-.79.45-1.52.45h-3.81c-.71-.01-1.21-.16-1.49-.45m8.46-11.49q1.02 0 1.62-.54c.39-.36.59-.91.59-1.63 0-.75-.2-1.3-.59-1.66-.4-.36-.93-.54-1.62-.54h-2.18v4.38h2.18zM165.63 442.79c-.29-.3-.43-.76-.43-1.38V423.3c0-.62.14-1.08.43-1.38s.78-.45 1.49-.45h13.25c.68 0 1.15.14 1.39.43s.37.75.37 1.39v1.79c0 .64-.12 1.1-.37 1.39s-.71.43-1.39.43h-7.49v2.75h4.61c.68 0 1.15.14 1.39.43.25.29.37.75.37 1.39v1.73c0 .64-.12 1.1-.37 1.39s-.71.43-1.39.43h-4.61v2.75h7.46c.68 0 1.15.14 1.39.43.25.29.37.75.37 1.39v1.79c0 .64-.12 1.1-.37 1.39s-.71.43-1.39.43h-13.22c-.71.03-1.2-.12-1.49-.41" class="st8"/><path d="M184.75 440.75q-2.94-2.955-2.94-8.4t2.94-8.4c2.94-2.955 4.84-2.96 8.64-2.96s6.68.99 8.64 2.96q2.94 2.955 2.94 8.4t-2.94 8.4c-1.96 1.97-4.84 2.96-8.64 2.96s-6.68-.98-8.64-2.96m11.65-3.9q.93-1.485.93-4.5c0-2.03-.31-3.53-.93-4.51s-1.62-1.47-3.01-1.47-2.39.49-3.01 1.47-.93 2.49-.93 4.51c0 2.01.31 3.5.93 4.5.62.99 1.62 1.49 3.01 1.49s2.39-.5 3.01-1.49" class="st8"/></g><g id="Capa_4"><circle cx="184.5" cy="236.5" r="83.5" class="st9"/><path d="M145.98 228.85c-2.15-1.91-3.23-4.74-3.23-8.5 0-3.78 1.04-6.61 3.12-8.51q3.12-2.85 8.91-2.85c1.75 0 3.31.17 4.67.51s2.51.82 3.42 1.44c.26.19.38.41.38.64 0 .19-.1.46-.29.8l-1.6 2.75c-.17.3-.37.45-.61.45-.15 0-.4-.08-.74-.26-.6-.3-1.22-.53-1.87-.7s-1.41-.26-2.29-.26c-1.77 0-3.13.51-4.06 1.54-.94 1.02-1.41 2.51-1.41 4.45 0 1.92.51 3.4 1.54 4.43 1.02 1.04 2.42 1.55 4.19 1.55 1.54 0 2.94-.32 4.22-.96.34-.17.59-.26.74-.26.23 0 .44.15.61.45l1.6 2.75c.19.34.29.61.29.8 0 .23-.13.45-.38.64-.92.62-2.07 1.1-3.46 1.44s-2.96.51-4.7.51c-3.88.01-6.89-.94-9.05-2.85M165.61 230.79c-.29-.3-.43-.76-.43-1.38V211.3c0-.62.14-1.08.43-1.38s.78-.45 1.49-.45h3.81c.73 0 1.23.14 1.52.43s.43.75.43 1.39v6.34h5.7v-6.34c0-.62.14-1.08.43-1.38s.78-.45 1.49-.45h3.81c.73 0 1.23.14 1.52.43s.43.75.43 1.39v18.11c0 .62-.14 1.08-.43 1.38s-.79.45-1.52.45h-3.81c-.7 0-1.2-.15-1.49-.45s-.43-.76-.43-1.38v-6.34h-5.7v6.34c0 .62-.14 1.08-.43 1.38s-.79.45-1.52.45h-3.81c-.7.01-1.2-.14-1.49-.43M187.84 230.56c0-.19.05-.43.16-.7l7.97-19.17c.19-.45.41-.76.66-.94.24-.18.59-.27 1.04-.27h3.49c.45 0 .79.09 1.04.27s.46.5.66.94l7.94 19.17c.11.28.16.51.16.7 0 .45-.23.67-.7.67h-6.02c-.66 0-1.08-.29-1.25-.86l-.77-2.37h-5.66l-.74 2.37c-.17.58-.59.86-1.25.86h-6.02c-.48 0-.71-.22-.71-.67m12.8-7.61-1.25-3.97-1.25 3.97zM214.06 230.79c-.29-.3-.43-.76-.43-1.38v-14.5h-4.61c-.68 0-1.15-.14-1.39-.43s-.37-.75-.37-1.39v-1.79c0-.64.12-1.1.37-1.39s.71-.43 1.39-.43h16.9c.68 0 1.15.14 1.39.43s.37.75.37 1.39v1.79c0 .64-.12 1.1-.37 1.39s-.71.43-1.39.43h-4.61v14.5c0 .62-.14 1.08-.43 1.38s-.79.45-1.52.45h-3.81c-.7-.01-1.2-.16-1.49-.45M107.67 252.58c-.16-.17-.24-.43-.24-.77v-10.19c0-.35.08-.61.24-.77s.44-.25.84-.25h4.3c1.8 0 3.11.36 3.93 1.07s1.23 1.79 1.23 3.23c0 .86-.15 1.59-.44 2.19-.29.59-.75 1.06-1.36 1.4l1.67 3.58c.05.1.07.2.07.32 0 .13-.04.24-.14.32a.52.52 0 0 1-.35.13h-3.04c-.19 0-.35-.03-.46-.08a.45.45 0 0 1-.24-.28l-1.33-3.35h-.61v2.68c0 .35-.08.61-.24.77s-.45.25-.85.25h-2.14c-.4 0-.68-.08-.84-.25m4.76-6.46c.38 0 .69-.1.91-.31s.33-.51.33-.92c0-.42-.11-.73-.33-.94s-.52-.31-.91-.31h-1.22v2.47h1.22zM119.11 252.58c-.16-.17-.24-.43-.24-.77v-10.19c0-.35.08-.61.24-.77s.44-.25.84-.25h7.45c.38 0 .65.08.78.24q.21.24.21.78v1.01q0 .54-.21.78t-.78.24h-4.21v1.55h2.59c.38 0 .65.08.78.24q.21.24.21.78v.97q0 .54-.21.78t-.78.24h-2.59v1.55h4.19c.38 0 .65.08.78.24q.21.24.21.78v1.01q0 .54-.21.78t-.78.24h-7.43c-.4.02-.67-.06-.84-.23M129.45 252.58c-.16-.17-.24-.43-.24-.77v-10.19c0-.35.08-.61.24-.77s.44-.25.84-.25h4.14c4.24 0 6.35 2.04 6.35 6.12 0 2.02-.54 3.54-1.63 4.57s-2.66 1.55-4.73 1.55h-4.14c-.39-.01-.67-.09-.83-.26m5.13-2.81c.67 0 1.15-.22 1.45-.67.29-.44.44-1.24.44-2.39s-.15-1.95-.44-2.39-.78-.67-1.45-.67h-1.06v6.12zM141.92 252.58c-.16-.17-.24-.43-.24-.77v-10.19c0-.35.08-.61.24-.77s.44-.25.84-.25h7.45c.38 0 .65.08.78.24q.21.24.21.78v1.01q0 .54-.21.78t-.78.24H146v1.55h2.59c.38 0 .65.08.78.24q.21.24.21.78v.97q0 .54-.21.78t-.78.24H146v1.55h4.19c.38 0 .65.08.78.24q.21.24.21.78v1.01q0 .54-.21.78t-.78.24h-7.43c-.4.02-.68-.06-.84-.23M154.29 252.76c-.94-.23-1.69-.55-2.27-.95-.24-.17-.36-.33-.36-.49 0-.11.04-.22.13-.34l1.04-1.64c.11-.16.22-.23.32-.23s.21.04.34.13c.43.26.93.47 1.48.62.56.15 1.1.23 1.63.23.44 0 .77-.06.96-.18.2-.12.3-.31.3-.56 0-.28-.13-.5-.4-.67-.26-.17-.72-.38-1.37-.63-1.21-.47-2.17-1-2.86-1.59-.7-.59-1.04-1.38-1.04-2.37 0-1.25.43-2.19 1.3-2.82s2.04-.94 3.52-.94q1.545 0 2.64.27c.73.18 1.36.46 1.9.85.24.17.36.33.36.49 0 .11-.04.22-.13.34l-1.04 1.64c-.11.17-.22.25-.32.25-.07 0-.19-.05-.34-.14-.29-.19-.63-.35-1.03-.48s-.82-.19-1.28-.19c-.42 0-.74.06-.95.18-.22.12-.32.31-.32.58 0 .22.07.4.23.54.15.14.34.27.57.37s.62.27 1.19.49c.9.36 1.61.71 2.12 1.04s.91.73 1.17 1.19.4 1.05.4 1.75c0 1.08-.4 1.95-1.21 2.62s-2.02 1-3.63 1c-1.1-.02-2.11-.13-3.05-.36M168.32 248.61q-.21-.24-.21-.78v-1.01q0-.54.21-.78t.78-.24h5.89c.38 0 .65.08.78.24q.21.24.21.78v1.01q0 .54-.21.78t-.78.24h-5.89c-.38.01-.64-.08-.78-.24M179.17 252.76c-.94-.23-1.69-.55-2.27-.95-.24-.17-.36-.33-.36-.49 0-.11.04-.22.13-.34l1.04-1.64c.11-.16.22-.23.32-.23s.21.04.34.13c.43.26.93.47 1.48.62.56.15 1.1.23 1.63.23.44 0 .77-.06.96-.18.2-.12.3-.31.3-.56 0-.28-.13-.5-.4-.67-.26-.17-.72-.38-1.37-.63-1.21-.47-2.17-1-2.86-1.59-.7-.59-1.04-1.38-1.04-2.37 0-1.25.43-2.19 1.3-2.82s2.04-.94 3.52-.94q1.545 0 2.64.27c.73.18 1.36.46 1.9.85.24.17.36.33.36.49 0 .11-.04.22-.13.34l-1.04 1.64c-.11.17-.22.25-.32.25-.07 0-.19-.05-.34-.14-.29-.19-.63-.35-1.03-.48s-.82-.19-1.28-.19c-.42 0-.74.06-.95.18-.22.12-.32.31-.32.58 0 .22.07.4.23.54.15.14.34.27.57.37s.62.27 1.19.49c.9.36 1.61.71 2.12 1.04s.91.73 1.17 1.19.4 1.05.4 1.75c0 1.08-.4 1.95-1.21 2.62s-2.02 1-3.63 1c-1.1-.02-2.11-.13-3.05-.36M189.25 251.44c-1.1-1.11-1.66-2.68-1.66-4.73 0-2.04.55-3.61 1.66-4.73 1.1-1.11 2.72-1.66 4.86-1.66s3.76.56 4.86 1.66c1.1 1.11 1.66 2.69 1.66 4.73s-.55 3.62-1.66 4.73c-1.1 1.11-2.72 1.67-4.86 1.67-2.14-.01-3.76-.56-4.86-1.67m6.55-2.2c.35-.56.52-1.4.52-2.53 0-1.14-.17-1.99-.52-2.54s-.91-.83-1.69-.83-1.34.28-1.69.83-.52 1.4-.52 2.54c0 1.13.17 1.97.52 2.53s.91.84 1.69.84 1.34-.28 1.69-.84M202.53 251.49c-1.21-1.07-1.82-2.67-1.82-4.78 0-2.12.58-3.72 1.75-4.79s2.84-1.6 5.01-1.6c.98 0 1.86.1 2.63.29s1.41.46 1.93.81c.14.11.22.23.22.36 0 .11-.05.26-.16.45l-.9 1.55c-.1.17-.21.25-.34.25-.08 0-.22-.05-.41-.14-.34-.17-.69-.3-1.05-.4-.37-.1-.79-.14-1.29-.14-1 0-1.76.29-2.29.86-.53.58-.79 1.41-.79 2.5 0 1.08.29 1.91.86 2.49s1.36.87 2.36.87c.86 0 1.66-.18 2.38-.54.19-.1.33-.14.41-.14.13 0 .25.08.34.25l.9 1.55c.11.19.16.34.16.45 0 .13-.07.25-.22.36-.52.35-1.16.62-1.94.81s-1.66.29-2.65.29c-2.18 0-3.87-.53-5.09-1.61M213.58 252.58c-.16-.17-.24-.43-.24-.77v-10.19c0-.35.08-.61.24-.77s.44-.25.84-.25h2.14c.41 0 .69.08.85.24s.24.42.24.78v10.19c0 .35-.08.61-.24.77s-.45.25-.85.25h-2.14c-.4 0-.68-.08-.84-.25M218.55 252.46c0-.11.03-.24.09-.4l4.48-10.78c.11-.25.23-.43.37-.53s.33-.15.58-.15h1.96c.25 0 .45.05.58.15.14.1.26.28.37.53l4.46 10.78c.06.16.09.29.09.4 0 .25-.13.38-.4.38h-3.38c-.37 0-.61-.16-.7-.49l-.43-1.33h-3.19l-.41 1.33c-.1.32-.33.49-.7.49h-3.38c-.25-.01-.39-.13-.39-.38m7.2-4.29-.7-2.23-.7 2.23zM232.69 252.58c-.16-.17-.24-.43-.24-.77v-10.19c0-.35.08-.61.24-.77s.44-.25.84-.25h2.14c.41 0 .69.08.85.24s.24.42.24.78v8.15h4.19c.38 0 .65.08.78.24q.21.24.21.78v1.01q0 .54-.21.78t-.78.24h-7.43c-.39.01-.67-.07-.83-.24M242.47 252.58c-.16-.17-.24-.43-.24-.77v-10.19c0-.35.08-.61.24-.77s.44-.25.84-.25h7.45c.38 0 .65.08.78.24q.21.24.21.78v1.01q0 .54-.21.78t-.78.24h-4.21v1.55h2.59c.38 0 .65.08.78.24q.21.24.21.78v.97q0 .54-.21.78t-.78.24h-2.59v1.55h4.19c.38 0 .65.08.78.24q.21.24.21.78v1.01q0 .54-.21.78t-.78.24h-7.43c-.4.02-.68-.06-.84-.23M254.84 252.76c-.94-.23-1.69-.55-2.27-.95-.24-.17-.36-.33-.36-.49 0-.11.04-.22.13-.34l1.04-1.64c.11-.16.22-.23.32-.23s.21.04.34.13c.43.26.93.47 1.48.62.56.15 1.1.23 1.63.23.44 0 .77-.06.96-.18.2-.12.3-.31.3-.56 0-.28-.13-.5-.4-.67-.26-.17-.72-.38-1.37-.63-1.21-.47-2.17-1-2.86-1.59-.7-.59-1.04-1.38-1.04-2.37 0-1.25.43-2.19 1.3-2.82s2.04-.94 3.52-.94q1.545 0 2.64.27c.73.18 1.36.46 1.9.85.24.17.36.33.36.49 0 .11-.04.22-.13.34l-1.04 1.64c-.11.17-.22.25-.32.25-.07 0-.19-.05-.34-.14-.29-.19-.63-.35-1.03-.48s-.82-.19-1.28-.19c-.42 0-.74.06-.95.18-.22.12-.32.31-.32.58 0 .22.07.4.23.54.15.14.34.27.57.37s.62.27 1.19.49c.9.36 1.61.71 2.12 1.04s.91.73 1.17 1.19.4 1.05.4 1.75c0 1.08-.4 1.95-1.21 2.62s-2.02 1-3.63 1c-1.1-.02-2.11-.13-3.05-.36" class="st8"/></g><g id="Capa_5"><circle cx="385.5" cy="319.5" r="83.5" class="st10"/><path d="M357.69 289.85c-2.15-1.91-3.23-4.74-3.23-8.5 0-3.78 1.04-6.61 3.12-8.51q3.12-2.85 8.91-2.85c1.75 0 3.31.17 4.67.51s2.51.82 3.42 1.44c.26.19.38.41.38.64 0 .19-.1.46-.29.8l-1.6 2.75c-.17.3-.37.45-.61.45-.15 0-.4-.08-.74-.26-.6-.3-1.22-.53-1.87-.7s-1.41-.26-2.29-.26c-1.77 0-3.13.51-4.06 1.54-.94 1.02-1.41 2.51-1.41 4.45 0 1.92.51 3.4 1.54 4.43 1.02 1.04 2.42 1.55 4.19 1.55 1.54 0 2.94-.32 4.22-.96.34-.17.59-.26.74-.26.23 0 .44.15.61.45l1.6 2.75c.19.34.29.61.29.8 0 .23-.13.45-.38.64-.92.62-2.07 1.1-3.46 1.44s-2.96.51-4.7.51c-3.87.01-6.89-.94-9.05-2.85M377.33 291.79c-.29-.3-.43-.76-.43-1.38V272.3c0-.62.14-1.08.43-1.38s.78-.45 1.49-.45h7.65c3.2 0 5.53.63 6.99 1.9s2.19 3.18 2.19 5.74c0 1.54-.26 2.83-.78 3.89s-1.33 1.88-2.42 2.48l2.98 6.37c.08.17.13.36.13.58 0 .23-.08.43-.24.58s-.37.22-.62.22h-5.41c-.34 0-.61-.05-.82-.14-.2-.1-.35-.26-.43-.5l-2.37-5.95h-1.09v4.77c0 .62-.14 1.08-.43 1.38s-.79.45-1.52.45h-3.81c-.71-.01-1.21-.16-1.49-.45m8.46-11.49q1.02 0 1.62-.54c.39-.36.59-.91.59-1.63 0-.75-.2-1.3-.59-1.66-.4-.36-.93-.54-1.62-.54h-2.18v4.38h2.18zM401.31 292.11c-1.66-.41-3.01-.97-4.03-1.7-.43-.3-.64-.59-.64-.86 0-.19.07-.39.22-.61l1.86-2.91c.19-.28.38-.42.58-.42.17 0 .37.08.61.22.77.47 1.65.84 2.64 1.1.99.27 1.96.4 2.9.4.79 0 1.36-.11 1.71-.32s.53-.54.53-.99c0-.49-.23-.88-.7-1.18s-1.28-.67-2.43-1.12c-2.15-.83-3.85-1.78-5.09-2.83-1.24-1.06-1.86-2.46-1.86-4.21 0-2.22.77-3.89 2.32-5.01s3.63-1.68 6.26-1.68c1.83 0 3.4.16 4.69.48s2.42.82 3.38 1.5c.43.3.64.59.64.86 0 .19-.08.4-.22.61l-1.86 2.91c-.19.3-.38.45-.58.45-.13 0-.33-.08-.61-.26-.51-.34-1.12-.62-1.82-.85-.7-.22-1.46-.34-2.27-.34-.75 0-1.31.11-1.7.32-.38.21-.58.56-.58 1.02 0 .38.13.7.4.96s.6.48 1.01.66 1.11.47 2.11.88c1.6.64 2.86 1.25 3.78 1.84s1.61 1.29 2.08 2.11.7 1.86.7 3.12c0 1.92-.72 3.47-2.16 4.66s-3.59 1.78-6.45 1.78c-1.95.01-3.76-.19-5.42-.59M335.99 312.57c-.88-.22-1.6-.52-2.14-.9-.23-.16-.34-.31-.34-.46 0-.1.04-.21.12-.32l.99-1.55c.1-.15.2-.22.31-.22.09 0 .2.04.32.12.41.25.88.44 1.4.59.53.14 1.04.21 1.54.21.42 0 .72-.06.91-.17s.28-.29.28-.53c0-.26-.13-.47-.37-.63q-.375-.24-1.29-.6-1.725-.66-2.7-1.5c-.66-.56-.99-1.31-.99-2.24 0-1.18.41-2.07 1.23-2.66.82-.6 1.93-.89 3.32-.89.97 0 1.8.08 2.49.25s1.28.44 1.79.8c.23.16.34.31.34.46 0 .1-.04.21-.12.32l-.99 1.55c-.1.16-.2.24-.31.24-.07 0-.18-.05-.32-.14-.27-.18-.6-.33-.97-.45s-.78-.18-1.21-.18c-.4 0-.7.06-.9.17s-.31.29-.31.54q0 .3.21.51c.14.14.32.25.54.35s.59.25 1.12.47c.85.34 1.52.67 2.01.98s.86.69 1.1 1.12c.25.44.37.99.37 1.66 0 1.02-.38 1.84-1.15 2.47s-1.91.94-3.43.94c-1 .01-1.96-.1-2.85-.31M344.52 312.4c-.15-.16-.23-.4-.23-.73v-9.62c0-.33.08-.57.23-.73s.42-.24.79-.24h2.02c.38 0 .65.08.81.23.15.15.23.4.23.74v9.62c0 .33-.08.57-.23.73q-.225.24-.81.24h-2.02c-.37-.01-.64-.09-.79-.24M351.72 312.57c-.88-.22-1.6-.52-2.14-.9-.23-.16-.34-.31-.34-.46 0-.1.04-.21.12-.32l.99-1.55c.1-.15.2-.22.31-.22.09 0 .2.04.32.12.41.25.88.44 1.4.59.53.14 1.04.21 1.54.21.42 0 .72-.06.91-.17s.28-.29.28-.53c0-.26-.13-.47-.37-.63q-.375-.24-1.29-.6-1.725-.66-2.7-1.5c-.66-.56-.99-1.31-.99-2.24 0-1.18.41-2.07 1.23-2.66.82-.6 1.93-.89 3.32-.89.97 0 1.8.08 2.49.25s1.28.44 1.79.8c.23.16.34.31.34.46 0 .1-.04.21-.12.32l-.99 1.55c-.1.16-.2.24-.31.24-.07 0-.18-.05-.32-.14-.27-.18-.6-.33-.97-.45s-.78-.18-1.21-.18c-.4 0-.7.06-.9.17s-.31.29-.31.54q0 .3.21.51c.14.14.32.25.54.35s.59.25 1.12.47c.85.34 1.52.67 2.01.98s.86.69 1.1 1.12c.25.44.37.99.37 1.66 0 1.02-.38 1.84-1.15 2.47s-1.91.94-3.43.94c-1.01.01-1.97-.1-2.85-.31" class="st8"/><path d="M362.52 312.4c-.15-.16-.23-.4-.23-.73v-7.7h-2.45c-.36 0-.61-.08-.74-.23s-.2-.4-.2-.74v-.95c0-.34.07-.59.2-.74s.38-.23.74-.23h8.98c.36 0 .61.08.74.23s.2.4.2.74v.95c0 .34-.07.59-.2.74s-.38.23-.74.23h-2.45v7.7c0 .33-.08.57-.23.73s-.42.24-.81.24h-2.02c-.37-.01-.63-.09-.79-.24M370.5 312.4c-.15-.16-.23-.4-.23-.73v-9.62c0-.33.08-.57.23-.73s.42-.24.79-.24h7.04c.36 0 .61.08.74.23s.2.4.2.74v.95c0 .34-.07.59-.2.74s-.38.23-.74.23h-3.98v1.46h2.45c.36 0 .61.08.74.23s.2.4.2.74v.92c0 .34-.07.59-.2.74s-.38.23-.74.23h-2.45v1.46h3.96c.36 0 .61.08.74.23s.2.4.2.74v.95c0 .34-.06.59-.2.74s-.38.23-.74.23h-7.02c-.38-.01-.64-.09-.79-.24M380.25 312.4c-.15-.16-.23-.4-.23-.73v-9.64c0-.33.08-.57.23-.72s.42-.23.81-.23h1.96q.375 0 .6.09c.15.06.26.18.34.37l1.99 4.98 1.99-4.98c.08-.18.19-.3.34-.37q.225-.09.6-.09h1.96c.39 0 .65.08.81.23.15.15.23.39.23.72v9.64c0 .33-.08.57-.23.73s-.42.24-.79.24h-1.63c-.37 0-.64-.08-.8-.24s-.24-.4-.24-.73v-4.64l-1 2.31c-.14.33-.28.56-.44.71s-.42.21-.78.21q-.54 0-.78-.21c-.24-.21-.31-.38-.44-.71l-1-2.31v4.64c0 .33-.08.57-.23.73q-.225.24-.81.24h-1.63c-.41-.01-.67-.09-.83-.24M392.28 312.28c0-.1.03-.23.08-.37l4.23-10.18c.1-.24.22-.4.35-.5s.31-.14.55-.14h1.85c.24 0 .42.05.55.14.13.1.25.26.35.5l4.22 10.18c.06.15.08.27.08.37 0 .24-.12.36-.37.36h-3.2c-.35 0-.57-.15-.66-.46l-.41-1.26h-3.01l-.39 1.26c-.09.31-.31.46-.66.46h-3.2q-.36-.015-.36-.36m6.8-4.05-.66-2.11-.66 2.11zM410.73 312.4c-.15-.16-.23-.4-.23-.73v-9.62c0-.33.08-.57.23-.73s.42-.24.79-.24h3.91c4 0 6 1.93 6 5.78 0 1.9-.51 3.34-1.54 4.32s-2.51 1.46-4.46 1.46h-3.91c-.37-.01-.63-.09-.79-.24m4.86-2.66c.63 0 1.09-.21 1.37-.63s.42-1.17.42-2.26-.14-1.84-.42-2.26-.73-.63-1.37-.63h-1v5.78zM422.51 312.4c-.15-.16-.23-.4-.23-.73v-9.62c0-.33.08-.57.23-.73s.42-.24.79-.24h7.04c.36 0 .61.08.74.23s.2.4.2.74v.95c0 .34-.07.59-.2.74s-.38.23-.74.23h-3.98v1.46h2.45c.36 0 .61.08.74.23s.2.4.2.74v.92c0 .34-.07.59-.2.74s-.38.23-.74.23h-2.45v1.46h3.96c.36 0 .61.08.74.23s.2.4.2.74v.95c0 .34-.06.59-.2.74s-.38.23-.74.23h-7.02c-.37-.01-.63-.09-.79-.24M321.57 332.8c-.15-.16-.23-.4-.23-.73v-9.62c0-.33.08-.57.23-.73s.42-.24.79-.24h7.04c.36 0 .61.08.74.23s.2.4.2.74v.95c0 .34-.07.59-.2.74s-.38.23-.74.23h-3.98v1.46h2.45c.36 0 .61.08.74.23s.2.4.2.74v.92c0 .34-.07.59-.2.74s-.38.23-.74.23h-2.45v1.46h3.96c.36 0 .61.08.74.23s.2.4.2.74v.95c0 .34-.06.59-.2.74s-.38.23-.74.23h-7.02c-.37-.01-.64-.09-.79-.24M331.33 332.8c-.15-.16-.23-.4-.23-.73v-9.64c0-.33.08-.57.23-.72s.42-.23.81-.23h1.62c.24 0 .42.03.55.09s.26.18.38.37l3.08 4.57v-4.06c0-.33.08-.57.23-.73s.42-.24.79-.24h2.02c.39 0 .65.08.81.23.15.15.23.4.23.74v9.64c0 .33-.08.57-.23.72s-.42.23-.81.23h-1.61c-.24 0-.42-.03-.55-.09s-.26-.18-.38-.37l-3.08-4.57v4.08c0 .33-.08.57-.23.72s-.42.23-.81.23h-2.02c-.39-.01-.65-.09-.8-.24M343.26 332.8c-.15-.16-.23-.4-.23-.73v-9.62c0-.33.08-.57.23-.73s.42-.24.79-.24h4.06c1.7 0 2.94.34 3.71 1.01.78.67 1.16 1.69 1.16 3.05 0 .82-.14 1.5-.42 2.07-.28.56-.71 1-1.28 1.32l1.58 3.38c.05.09.07.19.07.31s-.04.23-.13.31c-.08.08-.2.12-.33.12h-2.87c-.18 0-.33-.03-.43-.08a.46.46 0 0 1-.23-.26l-1.26-3.16h-.58v2.53c0 .33-.08.57-.23.73q-.225.24-.81.24h-2.02c-.36-.02-.63-.1-.78-.25m4.5-6.11c.36 0 .65-.1.86-.29s.31-.48.31-.87c0-.4-.1-.69-.31-.88s-.5-.29-.86-.29h-1.16v2.33zM356.41 332.75c-.84-.36-1.49-.87-1.96-1.55-.46-.67-.7-1.48-.7-2.41v-6.36c0-.33.08-.57.23-.73s.42-.24.79-.24h2.02c.38 0 .65.08.81.23.15.15.23.4.23.74v6.41c0 .53.13.93.4 1.19s.63.39 1.1.39.83-.13 1.1-.39.4-.66.4-1.19v-6.41c0-.33.08-.57.23-.73s.42-.24.79-.24h2.02c.39 0 .65.08.81.23.15.15.23.4.23.74v6.36c0 .93-.23 1.73-.7 2.41-.46.67-1.12 1.19-1.96 1.55s-1.81.54-2.92.54-2.08-.18-2.92-.54M368.95 332.8c-.15-.16-.23-.4-.23-.73v-7.7h-2.45c-.36 0-.61-.08-.74-.23s-.2-.4-.2-.74v-.95c0-.34.07-.59.2-.74s.38-.23.74-.23h8.98c.36 0 .61.08.74.23s.2.4.2.74v.95c0 .34-.07.59-.2.74s-.38.23-.74.23h-2.45v7.7c0 .33-.08.57-.23.73s-.42.24-.81.24h-2.02c-.38-.01-.64-.09-.79-.24M374.23 332.68c0-.1.03-.23.08-.37l4.23-10.18c.1-.24.22-.4.35-.5s.31-.14.55-.14h1.85c.24 0 .42.05.55.14.13.1.25.26.35.5l4.22 10.18c.06.15.08.27.08.37 0 .24-.12.36-.37.36h-3.2c-.35 0-.57-.15-.66-.46l-.41-1.26h-3.01l-.39 1.26c-.09.31-.31.46-.66.46h-3.2q-.36-.015-.36-.36m6.8-4.05-.66-2.11-.66 2.11zM387.15 332.8c-.15-.16-.23-.4-.23-.73v-9.64c0-.33.08-.57.23-.72s.42-.23.81-.23h1.96q.375 0 .6.09c.15.06.26.18.34.37l1.99 4.98 1.99-4.98c.08-.18.19-.3.34-.37q.225-.09.6-.09h1.96c.39 0 .65.08.81.23.15.15.23.39.23.72v9.64c0 .33-.08.57-.23.73s-.42.24-.79.24h-1.63c-.37 0-.64-.08-.8-.24s-.24-.4-.24-.73v-4.64l-1 2.31c-.14.33-.28.56-.44.71s-.42.21-.78.21q-.54 0-.78-.21c-.24-.21-.31-.38-.44-.71l-1-2.31v4.64c0 .33-.08.57-.23.73q-.225.24-.81.24h-1.63c-.41-.01-.67-.09-.83-.24M400.18 332.8c-.15-.16-.23-.4-.23-.73v-9.62c0-.33.08-.57.23-.73s.42-.24.79-.24h2.02c.38 0 .65.08.81.23.15.15.23.4.23.74v9.62c0 .33-.08.57-.23.73q-.225.24-.81.24h-2.02c-.38-.01-.64-.09-.79-.24M405.45 332.8c-.15-.16-.23-.4-.23-.73v-9.62c0-.33.08-.57.23-.73s.42-.24.79-.24h7.04c.36 0 .61.08.74.23s.2.4.2.74v.95c0 .34-.07.59-.2.74s-.38.23-.74.23h-3.98v1.46h2.45c.36 0 .61.08.74.23s.2.4.2.74v.92c0 .34-.07.59-.2.74s-.38.23-.74.23h-2.45v1.46h3.96c.36 0 .61.08.74.23s.2.4.2.74v.95c0 .34-.06.59-.2.74s-.38.23-.74.23h-7.02c-.38-.01-.64-.09-.79-.24M415.2 332.8c-.15-.16-.23-.4-.23-.73v-9.64c0-.33.08-.57.23-.72s.42-.23.81-.23h1.62c.24 0 .42.03.55.09s.26.18.38.37l3.08 4.57v-4.06c0-.33.08-.57.23-.73s.42-.24.79-.24h2.02c.39 0 .65.08.81.23.15.15.23.4.23.74v9.64c0 .33-.08.57-.23.72s-.42.23-.81.23h-1.61c-.24 0-.42-.03-.55-.09s-.26-.18-.38-.37l-3.08-4.57v4.08c0 .33-.08.57-.23.72s-.42.23-.81.23H416c-.38-.01-.64-.09-.8-.24M429.84 332.8c-.15-.16-.23-.4-.23-.73v-7.7h-2.45c-.36 0-.61-.08-.74-.23s-.2-.4-.2-.74v-.95c0-.34.07-.59.2-.74s.38-.23.74-.23h8.98c.36 0 .61.08.74.23s.2.4.2.74v.95c0 .34-.07.59-.2.74s-.38.23-.74.23h-2.45v7.7c0 .33-.08.57-.23.73s-.42.24-.81.24h-2.02c-.37-.01-.64-.09-.79-.24" class="st8"/><path d="M438.04 331.72c-1.04-1.05-1.56-2.54-1.56-4.46s.52-3.41 1.56-4.46 2.57-1.57 4.59-1.57 3.55.52 4.59 1.57 1.56 2.54 1.56 4.46-.52 3.41-1.56 4.46-2.57 1.57-4.59 1.57c-2.01 0-3.54-.53-4.59-1.57m6.19-2.08c.33-.53.49-1.32.49-2.39 0-1.08-.16-1.88-.49-2.4s-.86-.78-1.6-.78-1.27.26-1.6.78-.49 1.32-.49 2.4c0 1.07.16 1.86.49 2.39s.86.79 1.6.79 1.27-.26 1.6-.79M324.2 353.2c-.15-.16-.23-.4-.23-.73v-9.62c0-.33.08-.57.23-.73s.42-.24.79-.24h3.91c4 0 6 1.93 6 5.78 0 1.9-.51 3.34-1.54 4.32s-2.51 1.46-4.46 1.46H325c-.38-.01-.64-.09-.8-.24m4.86-2.66c.63 0 1.09-.21 1.37-.63s.42-1.17.42-2.26-.14-1.84-.42-2.26-.73-.63-1.37-.63h-1v5.78zM335.99 353.2c-.15-.16-.23-.4-.23-.73v-9.62c0-.33.08-.57.23-.73s.42-.24.79-.24h7.04c.36 0 .61.08.74.23s.2.4.2.74v.95c0 .34-.07.59-.2.74s-.38.23-.74.23h-3.98v1.46h2.45c.36 0 .61.08.74.23s.2.4.2.74v.92c0 .34-.07.59-.2.74s-.38.23-.74.23h-2.45v1.46h3.96c.36 0 .61.08.74.23s.2.4.2.74v.95c0 .34-.06.59-.2.74s-.38.23-.74.23h-7.02c-.38-.01-.64-.09-.79-.24M351.84 352.12c-1.04-1.05-1.56-2.54-1.56-4.46s.52-3.41 1.56-4.46 2.57-1.57 4.59-1.57 3.55.52 4.59 1.57 1.56 2.54 1.56 4.46-.52 3.41-1.56 4.46-2.57 1.57-4.59 1.57-3.55-.52-4.59-1.57m6.19-2.08c.33-.53.49-1.32.49-2.39 0-1.08-.16-1.88-.49-2.4s-.86-.78-1.6-.78-1.27.26-1.6.78-.49 1.32-.49 2.4c0 1.07.16 1.86.49 2.39s.86.79 1.6.79c.73 0 1.27-.26 1.6-.79M363.66 353.2c-.15-.16-.23-.4-.23-.73v-9.62c0-.33.08-.57.23-.73s.42-.24.79-.24h4.06c1.7 0 2.94.34 3.71 1.01.78.67 1.16 1.69 1.16 3.05s-.39 2.37-1.16 3.04c-.78.67-2.01 1-3.7 1h-1.02v2.48c0 .33-.08.57-.23.73q-.225.24-.81.24h-2.02c-.36 0-.63-.08-.78-.23m4.5-6.11c.36 0 .65-.1.86-.29s.31-.48.31-.87c0-.4-.1-.69-.31-.88s-.5-.29-.86-.29H367v2.33zM374.13 353.2c-.15-.16-.23-.4-.23-.73v-9.62c0-.33.08-.57.23-.73s.42-.24.79-.24h7.04c.36 0 .61.08.74.23s.2.4.2.74v.95c0 .34-.07.59-.2.74s-.38.23-.74.23h-3.98v1.46h2.45c.36 0 .61.08.74.23s.2.4.2.74v.92c0 .34-.07.59-.2.74s-.38.23-.74.23h-2.45v1.46h3.96c.36 0 .61.08.74.23s.2.4.2.74v.95c0 .34-.06.59-.2.74s-.38.23-.74.23h-7.02c-.37-.01-.63-.09-.79-.24M383.89 353.2c-.15-.16-.23-.4-.23-.73v-9.62c0-.33.08-.57.23-.73s.42-.24.79-.24h4.06c1.7 0 2.94.34 3.71 1.01.78.67 1.16 1.69 1.16 3.05 0 .82-.14 1.5-.42 2.07-.28.56-.71 1-1.28 1.32l1.58 3.38c.05.09.07.19.07.31s-.04.23-.13.31c-.08.08-.2.12-.33.12h-2.87c-.18 0-.33-.03-.43-.08a.46.46 0 0 1-.23-.26l-1.26-3.16h-.58v2.53c0 .33-.08.57-.23.73q-.225.24-.81.24h-2.02c-.36-.02-.63-.1-.78-.25m4.5-6.11c.36 0 .65-.1.86-.29s.31-.48.31-.87c0-.4-.1-.69-.31-.88s-.5-.29-.86-.29h-1.16v2.33z" class="st8"/><path d="M393.37 353.08c0-.1.03-.23.08-.37l4.23-10.18c.1-.24.22-.4.35-.5s.31-.14.55-.14h1.85c.24 0 .42.05.55.14.13.1.25.26.35.5l4.22 10.18c.06.15.08.27.08.37 0 .24-.12.36-.37.36h-3.2c-.35 0-.57-.15-.66-.46l-.41-1.26h-3.01l-.39 1.26c-.09.31-.31.46-.66.46h-3.2q-.36-.015-.36-.36m6.8-4.05-.66-2.11-.66 2.11zM406.72 353.2c-.15-.16-.23-.4-.23-.73v-9.62c0-.33.08-.57.23-.73s.42-.24.79-.24h3.91c4 0 6 1.93 6 5.78 0 1.9-.51 3.34-1.54 4.32s-2.51 1.46-4.46 1.46h-3.91c-.37-.01-.64-.09-.79-.24m4.86-2.66c.63 0 1.09-.21 1.37-.63s.42-1.17.42-2.26-.14-1.84-.42-2.26-.73-.63-1.37-.63h-1v5.78zM419.5 352.12c-1.04-1.05-1.56-2.54-1.56-4.46s.52-3.41 1.56-4.46 2.57-1.57 4.59-1.57 3.55.52 4.59 1.57 1.56 2.54 1.56 4.46-.52 3.41-1.56 4.46-2.57 1.57-4.59 1.57-3.55-.52-4.59-1.57m6.18-2.08c.33-.53.49-1.32.49-2.39 0-1.08-.16-1.88-.49-2.4s-.86-.78-1.6-.78-1.27.26-1.6.78-.49 1.32-.49 2.4c0 1.07.16 1.86.49 2.39s.86.79 1.6.79 1.28-.26 1.6-.79M431.32 353.2c-.15-.16-.23-.4-.23-.73v-9.62c0-.33.08-.57.23-.73s.42-.24.79-.24h4.06c1.7 0 2.94.34 3.71 1.01.78.67 1.16 1.69 1.16 3.05 0 .82-.14 1.5-.42 2.07-.28.56-.71 1-1.28 1.32l1.58 3.38c.05.09.07.19.07.31s-.04.23-.13.31c-.08.08-.2.12-.33.12h-2.87c-.18 0-.33-.03-.43-.08a.46.46 0 0 1-.23-.26l-1.26-3.16h-.58v2.53c0 .33-.08.57-.23.73q-.225.24-.81.24h-2.02c-.36-.02-.63-.1-.78-.25m4.5-6.11c.36 0 .65-.1.86-.29s.31-.48.31-.87c0-.4-.1-.69-.31-.88s-.5-.29-.86-.29h-1.16v2.33z" class="st8"/></g><g id="Capa_6"><path d="M601 175.5c0 46.12-36.88 83.5-83 83.5s-84-37.38-84-83.5S471.38 92 517.5 92s83.5 37.38 83.5 83.5" class="st7"/><path d="M445.25 187.84c-.25-.26-.38-.66-.38-1.2v-15.85c0-.54.13-.94.38-1.2s.69-.39 1.3-.39h3.33c.63 0 1.08.13 1.33.38s.38.66.38 1.22v12.68h6.52c.6 0 1 .13 1.22.38.21.25.32.66.32 1.22v1.57c0 .56-.11.97-.32 1.22s-.62.38-1.22.38h-11.56c-.61-.02-1.05-.15-1.3-.41M460.88 187.84c-.25-.26-.38-.66-.38-1.2v-15.85c0-.54.13-.94.38-1.2s.69-.39 1.3-.39h3.33c.63 0 1.08.13 1.33.38s.38.66.38 1.22v12.68h6.52c.6 0 1 .13 1.22.38.21.25.32.66.32 1.22v1.57c0 .56-.11.97-.32 1.22s-.62.38-1.22.38h-11.56c-.62-.02-1.05-.15-1.3-.41" class="st8"/><path d="M475.14 187.65c0-.17.05-.37.14-.62l6.97-16.77c.17-.39.36-.67.57-.83s.52-.24.91-.24h3.05c.39 0 .7.08.91.24s.41.43.57.83l6.94 16.77c.09.24.14.45.14.62 0 .39-.21.59-.62.59h-5.26c-.58 0-.94-.25-1.09-.76l-.67-2.07h-4.96l-.64 2.07c-.15.5-.51.76-1.09.76h-5.26c-.4-.01-.61-.2-.61-.59m11.2-6.67-1.09-3.47-1.09 3.47zM496.44 187.84c-.25-.26-.38-.66-.38-1.2v-15.88c0-.54.13-.94.38-1.19s.7-.38 1.33-.38h3.22c.41 0 .74.05.98.15s.43.3.56.6l3.28 8.2 3.28-8.2c.13-.3.32-.5.56-.6s.57-.15.98-.15h3.22c.63 0 1.08.13 1.33.38s.38.65.38 1.19v15.88c0 .54-.13.94-.38 1.2s-.69.39-1.3.39h-2.69c-.62 0-1.05-.13-1.32-.39q-.39-.39-.39-1.2V179l-1.65 3.81c-.22.54-.47.93-.73 1.16s-.69.35-1.29.35-1.03-.12-1.29-.35-.5-.62-.73-1.16l-1.65-3.81v7.64c0 .54-.13.94-.38 1.2s-.7.39-1.33.39h-2.69c-.62 0-1.05-.13-1.3-.39M516.25 187.65c0-.17.05-.37.14-.62l6.97-16.77c.17-.39.36-.67.57-.83s.52-.24.91-.24h3.05c.39 0 .7.08.91.24s.41.43.57.83l6.94 16.77c.09.24.14.45.14.62 0 .39-.21.59-.62.59h-5.26c-.58 0-.94-.25-1.09-.76l-.67-2.07h-4.96l-.64 2.07c-.15.5-.51.76-1.09.76h-5.26c-.41-.01-.61-.2-.61-.59m11.2-6.67-1.09-3.47-1.09 3.47zM538.24 187.84c-.25-.26-.38-.66-.38-1.2v-15.85c0-.54.13-.94.38-1.2s.69-.39 1.3-.39h6.44c6.59 0 9.88 3.17 9.88 9.52 0 3.14-.84 5.51-2.53 7.11-1.69 1.61-4.14 2.41-7.35 2.41h-6.44c-.61-.01-1.05-.14-1.3-.4m7.99-4.37c1.04 0 1.8-.35 2.25-1.04q.69-1.035.69-3.72c0-2.685-.23-3.03-.69-3.72s-1.21-1.04-2.25-1.04h-1.65v9.52zM555.45 187.65c0-.17.05-.37.14-.62l6.97-16.77c.17-.39.36-.67.57-.83s.52-.24.91-.24h3.05c.39 0 .7.08.91.24s.41.43.57.83l6.94 16.77c.09.24.14.45.14.62 0 .39-.21.59-.62.59h-5.26c-.58 0-.94-.25-1.09-.76l-.67-2.07h-4.96l-.64 2.07c-.15.5-.51.76-1.09.76h-5.26c-.41-.01-.61-.2-.61-.59m11.2-6.67-1.09-3.47-1.09 3.47zM579.36 188.12c-1.46-.35-2.63-.85-3.53-1.48-.37-.26-.56-.51-.56-.76 0-.17.06-.35.2-.53l1.62-2.55c.17-.24.34-.36.5-.36.15 0 .33.07.53.2.67.41 1.44.73 2.31.97.87.23 1.71.35 2.53.35.69 0 1.19-.09 1.5-.28s.46-.48.46-.87c0-.43-.21-.77-.62-1.04-.41-.26-1.12-.59-2.13-.98-1.89-.73-3.37-1.55-4.45-2.48-1.08-.92-1.62-2.15-1.62-3.68 0-1.94.68-3.4 2.03-4.38s3.18-1.47 5.47-1.47c1.6 0 2.97.14 4.1.42s2.11.72 2.95 1.32c.37.26.56.51.56.76 0 .17-.07.35-.2.53l-1.62 2.55c-.17.26-.34.39-.5.39-.11 0-.29-.07-.53-.22-.45-.3-.98-.55-1.6-.74-.62-.2-1.28-.29-1.99-.29-.65 0-1.15.09-1.48.28-.34.19-.5.49-.5.9 0 .34.12.62.35.84s.53.42.88.57c.35.16.97.42 1.85.77 1.4.56 2.5 1.1 3.3 1.61s1.41 1.13 1.82 1.85.62 1.63.62 2.73c0 1.68-.63 3.04-1.89 4.07-1.26 1.04-3.14 1.55-5.64 1.55-1.69-.02-3.27-.19-4.72-.55" class="st8"/></g><g id="Capa_7"><circle cx="665.5" cy="321.5" r="83.5" class="st9"/><path d="M607.83 320.83c-.21-.14-.35-.38-.43-.73l-3.72-15.08-.05-.3c0-.35.25-.52.74-.52h4.21c.31 0 .54.05.69.16q.225.165.27.51l.97 5.9 1.49-4.51c.1-.3.23-.5.38-.61.16-.11.4-.16.73-.16h1.93c.33 0 .57.05.73.16s.28.31.38.61l1.49 4.51.97-5.9q.045-.345.27-.51c.15-.11.38-.16.69-.16h4.24c.5 0 .74.17.74.52l-.05.3-3.74 15.08c-.08.35-.23.59-.43.73-.21.14-.5.21-.88.21h-2.7c-.36 0-.65-.07-.85-.21-.21-.14-.36-.38-.46-.73l-1.36-4.81-1.36 4.81c-.1.35-.25.59-.46.73s-.49.21-.85.21h-2.7c-.38 0-.67-.07-.88-.21M626.14 320.69c-.22-.23-.33-.59-.33-1.07V305.6c0-.48.11-.83.33-1.07.22-.23.61-.35 1.15-.35h2.95c.56 0 .95.11 1.18.33q.33.33.33 1.08v4.9h4.41v-4.9c0-.48.11-.83.33-1.07.22-.23.61-.35 1.15-.35h2.95c.56 0 .95.11 1.18.33q.33.33.33 1.08v14.02c0 .48-.11.83-.33 1.07-.22.23-.62.35-1.18.35h-2.95c-.54 0-.93-.12-1.15-.35s-.33-.59-.33-1.07v-4.9h-4.41v4.9c0 .48-.11.83-.33 1.07-.22.23-.62.35-1.18.35h-2.95c-.55.02-.93-.1-1.15-.33M643.34 320.52q0-.225.12-.54l6.17-14.84c.15-.35.32-.59.51-.73q.285-.21.81-.21h2.7q.525 0 .81.21c.19.14.36.38.51.73l6.14 14.84c.08.21.12.4.12.54 0 .35-.18.52-.55.52h-4.66c-.51 0-.83-.22-.97-.67l-.59-1.83h-4.38l-.57 1.83c-.13.45-.45.67-.97.67h-4.66c-.36 0-.54-.18-.54-.52m9.91-5.9-.97-3.07-.97 3.07zM663.64 320.69c-.22-.23-.33-.59-.33-1.07V308.4h-3.57q-.795 0-1.08-.33c-.19-.22-.29-.58-.29-1.08v-1.39c0-.5.1-.85.29-1.08q.285-.33 1.08-.33h13.08q.795 0 1.08.33c.19.22.29.58.29 1.08v1.39c0 .5-.1.85-.29 1.08q-.285.33-1.08.33h-3.57v11.22c0 .48-.11.83-.33 1.07-.22.23-.62.35-1.18.35h-2.95c-.54 0-.93-.12-1.15-.35M676.95 320.94c-1.29-.31-2.33-.75-3.12-1.31-.33-.23-.5-.45-.5-.67 0-.15.06-.31.17-.47l1.44-2.25c.15-.21.3-.32.45-.32.13 0 .29.06.47.17.59.36 1.28.65 2.04.85.77.21 1.52.31 2.24.31.61 0 1.05-.08 1.33-.25.27-.17.41-.42.41-.77 0-.38-.18-.69-.54-.92s-.99-.52-1.88-.87c-1.67-.64-2.98-1.37-3.94-2.19s-1.44-1.9-1.44-3.26c0-1.72.6-3.01 1.8-3.88s2.81-1.3 4.84-1.3c1.42 0 2.63.12 3.63.37s1.87.64 2.61 1.16c.33.23.5.45.5.67 0 .15-.06.31-.17.47l-1.44 2.25c-.15.23-.3.35-.45.35-.1 0-.26-.07-.47-.2q-.6-.39-1.41-.66c-.81-.27-1.13-.26-1.76-.26-.58 0-1.02.08-1.31.25s-.45.43-.45.79c0 .3.1.54.31.74q.315.3.78.51c.31.14.86.37 1.63.68 1.24.5 2.21.97 2.92 1.42s1.25 1 1.61 1.63c.36.64.54 1.44.54 2.42 0 1.49-.56 2.69-1.67 3.6-1.11.92-2.78 1.38-4.99 1.38-1.49.03-2.89-.13-4.18-.44M687.43 320.52q0-.225.12-.54l6.17-14.84c.15-.35.32-.59.51-.73q.285-.21.81-.21h2.7q.525 0 .81.21c.19.14.36.38.51.73l6.14 14.84c.08.21.12.4.12.54 0 .35-.18.52-.55.52h-4.66c-.51 0-.83-.22-.97-.67l-.59-1.83h-4.38l-.57 1.83c-.13.45-.45.67-.97.67h-4.66c-.36 0-.54-.18-.54-.52m9.91-5.9-.97-3.07-.97 3.07zM706.89 320.69c-.22-.23-.33-.59-.33-1.07V305.6c0-.48.11-.83.33-1.07.22-.23.61-.35 1.15-.35h5.92c2.48 0 4.28.49 5.41 1.47s1.7 2.46 1.7 4.45c0 1.98-.57 3.46-1.7 4.43s-2.93 1.46-5.39 1.46h-1.49v3.62c0 .48-.11.83-.33 1.07-.22.23-.62.35-1.18.35h-2.95c-.54.01-.92-.11-1.14-.34m6.55-8.89c.53 0 .95-.14 1.25-.42s.46-.7.46-1.26c0-.58-.15-1.01-.46-1.29s-.72-.42-1.25-.42h-1.68v3.39zM721.77 320.69c-.22-.23-.33-.59-.33-1.07V305.6c0-.48.11-.83.33-1.07.22-.23.61-.35 1.15-.35h5.92c2.48 0 4.28.49 5.41 1.47s1.7 2.46 1.7 4.45c0 1.98-.57 3.46-1.7 4.43s-2.93 1.46-5.39 1.46h-1.49v3.62c0 .48-.11.83-.33 1.07-.22.23-.62.35-1.18.35h-2.95c-.53.01-.91-.11-1.14-.34m6.56-8.89c.53 0 .95-.14 1.25-.42s.46-.7.46-1.26c0-.58-.15-1.01-.46-1.29s-.72-.42-1.25-.42h-1.68v3.39zM637.15 337.56c-.13-.13-.19-.33-.19-.6v-6.31h-2.01c-.3 0-.5-.06-.61-.19s-.16-.33-.16-.61v-.78c0-.28.05-.48.16-.61s.31-.19.61-.19h7.36c.3 0 .5.06.61.19s.16.33.16.61v.78c0 .28-.05.48-.16.61s-.31.19-.61.19h-2.01v6.31c0 .27-.06.47-.19.6s-.35.19-.66.19h-1.66c-.3.01-.52-.06-.64-.19M643.68 337.56c-.13-.13-.19-.33-.19-.6v-7.89c0-.27.06-.47.19-.6s.34-.2.65-.2h5.77c.3 0 .5.06.61.19s.16.33.16.61v.78c0 .28-.05.48-.16.61s-.31.19-.61.19h-3.26v1.2h2.01c.3 0 .5.06.61.19s.16.33.16.61v.75c0 .28-.05.48-.16.61s-.31.19-.61.19h-2.01v1.2h3.25c.3 0 .5.06.61.19s.16.33.16.61v.78c0 .28-.05.48-.16.61s-.31.19-.61.19h-5.75c-.32-.02-.53-.09-.66-.22M651.68 337.56c-.13-.13-.19-.33-.19-.6v-7.89c0-.27.06-.47.19-.6s.34-.2.65-.2h1.66c.32 0 .54.06.66.19s.19.33.19.61v6.31h3.25c.3 0 .5.06.61.19s.16.33.16.61v.78c0 .28-.05.48-.16.61s-.31.19-.61.19h-5.75c-.32 0-.54-.07-.66-.2M659.24 337.56c-.13-.13-.19-.33-.19-.6v-7.89c0-.27.06-.47.19-.6s.34-.2.65-.2h5.77c.3 0 .5.06.61.19s.16.33.16.61v.78c0 .28-.05.48-.16.61s-.31.19-.61.19h-3.26v1.2h2.01c.3 0 .5.06.61.19s.16.33.16.61v.75c0 .28-.05.48-.16.61s-.31.19-.61.19h-2.01v1.2h3.25c.3 0 .5.06.61.19s.16.33.16.61v.78c0 .28-.05.48-.16.61s-.31.19-.61.19h-5.75c-.32-.02-.53-.09-.66-.22" class="st8"/><path d="M667.55 336.72c-.94-.83-1.41-2.06-1.41-3.7q0-2.445 1.41-3.69c.94-.84 2.25-1.25 3.93-1.25.76 0 1.44.07 2.05.22q.9.225 1.5.63c.11.08.17.18.17.28 0 .08-.04.2-.13.35l-.7 1.2c-.07.13-.16.19-.26.19-.06 0-.17-.04-.32-.11-.56-.28-1.17-.42-1.84-.42-.77 0-1.38.22-1.82.66s-.66 1.09-.66 1.94c0 .88.19 1.54.56 1.96s.92.63 1.66.63c.13 0 .28-.01.44-.04.16-.02.29-.05.4-.08v-1.27h-.89c-.3 0-.5-.06-.61-.17-.11-.12-.16-.31-.16-.59v-.77c0-.28.05-.48.16-.59.11-.12.31-.17.61-.17h3q.54 0 .75.24c.21.24.21.42.21.77v3.26c0 .2-.03.36-.08.47q-.075.165-.3.33-1.335.96-3.72.96c-1.69.01-3.01-.41-3.95-1.24M676.48 337.56c-.13-.13-.19-.33-.19-.6v-7.89c0-.27.06-.47.19-.6s.34-.2.65-.2h3.33c1.39 0 2.41.28 3.04.83.64.55.95 1.39.95 2.5 0 .67-.11 1.23-.34 1.69s-.58.82-1.05 1.08l1.3 2.77c.04.07.06.16.06.25 0 .1-.04.19-.1.25-.07.07-.16.1-.27.1h-2.35a.9.9 0 0 1-.36-.06.35.35 0 0 1-.19-.22l-1.03-2.59h-.47v2.08c0 .27-.06.47-.19.6s-.35.19-.66.19h-1.66c-.32.02-.54-.05-.66-.18m3.68-5c.3 0 .53-.08.7-.24s.26-.39.26-.71c0-.33-.09-.57-.26-.72-.17-.16-.41-.24-.7-.24h-.95v1.91z" class="st8"/><path d="M684.25 337.46c0-.08.02-.19.07-.31l3.47-8.35c.08-.19.18-.33.29-.41q.165-.12.45-.12h1.52c.19 0 .35.04.45.12.11.08.2.22.29.41l3.46 8.35a.8.8 0 0 1 .07.31c0 .19-.1.29-.31.29h-2.62c-.29 0-.47-.13-.54-.38l-.33-1.03h-2.47l-.32 1.03c-.07.25-.26.38-.54.38h-2.62c-.22.01-.32-.09-.32-.29m5.57-3.31-.54-1.73-.54 1.73zM694.84 337.56c-.13-.13-.19-.33-.19-.6v-7.9c0-.27.06-.47.19-.59s.35-.19.66-.19h1.6c.2 0 .37.03.49.08s.21.15.28.3l1.63 4.08 1.63-4.08a.52.52 0 0 1 .28-.3c.12-.05.28-.08.49-.08h1.6c.32 0 .54.06.66.19s.19.32.19.59v7.9c0 .27-.06.47-.19.6s-.34.19-.65.19h-1.34c-.31 0-.52-.06-.65-.19s-.2-.33-.2-.6v-3.8l-.82 1.9c-.11.27-.23.46-.36.58s-.34.17-.64.17-.51-.06-.64-.17c-.13-.12-.25-.31-.36-.58l-.82-1.9v3.8c0 .27-.06.47-.19.6s-.35.19-.66.19h-1.34c-.31.01-.52-.06-.65-.19" class="st8"/></g><g id="Capa_8"><circle cx="859.5" cy="226.5" r="83.5" class="st10"/><path d="M825.8 235.96c-.27-.18-.45-.5-.56-.94l-4.8-19.49-.06-.38c0-.45.32-.67.96-.67h5.44c.41 0 .7.07.9.21s.31.36.35.66l1.25 7.62 1.92-5.82c.13-.38.29-.65.5-.78.2-.14.52-.21.94-.21h2.5c.43 0 .74.07.94.21s.37.4.5.78l1.92 5.82 1.25-7.62c.04-.3.16-.52.35-.66s.49-.21.9-.21h5.47c.64 0 .96.22.96.67l-.06.38-4.83 19.49c-.11.45-.29.76-.56.94q-.405.27-1.14.27h-3.49c-.47 0-.84-.09-1.1-.27-.27-.18-.46-.5-.59-.94l-1.76-6.21-1.76 6.21c-.13.45-.33.76-.59.94-.27.18-.63.27-1.1.27h-3.49c-.52 0-.9-.09-1.16-.27M853.32 235.96c-.27-.18-.45-.5-.56-.94l-4.8-19.49-.06-.38c0-.45.32-.67.96-.67h5.44c.41 0 .7.07.9.21s.31.36.35.66l1.25 7.62 1.92-5.82c.13-.38.29-.65.5-.78.2-.14.52-.21.94-.21h2.5c.43 0 .74.07.94.21s.37.4.5.78l1.92 5.82 1.25-7.62c.04-.3.16-.52.35-.66s.49-.21.9-.21h5.47c.64 0 .96.22.96.67l-.06.38-4.83 19.49c-.11.45-.29.76-.56.94q-.405.27-1.14.27h-3.49c-.47 0-.84-.09-1.1-.27-.27-.18-.46-.5-.59-.94l-1.76-6.21-1.76 6.21c-.13.45-.33.76-.59.94-.27.18-.63.27-1.1.27h-3.49c-.52 0-.9-.09-1.16-.27M880.84 235.96c-.27-.18-.45-.5-.56-.94l-4.8-19.49-.06-.38c0-.45.32-.67.96-.67h5.44c.41 0 .7.07.9.21s.31.36.35.66l1.25 7.62 1.92-5.82c.13-.38.29-.65.5-.78.2-.14.52-.21.94-.21h2.5c.43 0 .74.07.94.21s.37.4.5.78l1.92 5.82 1.25-7.62c.04-.3.16-.52.35-.66s.49-.21.9-.21h5.47c.64 0 .96.22.96.67l-.06.38-4.83 19.49c-.11.45-.29.76-.56.94q-.405.27-1.14.27h-3.49c-.47 0-.84-.09-1.1-.27-.27-.18-.46-.5-.59-.94l-1.76-6.21-1.76 6.21c-.13.45-.33.76-.59.94-.27.18-.63.27-1.1.27H882c-.52 0-.9-.09-1.16-.27" class="st8"/></g><g id="Capa_9"><circle cx="874.5" cy="453.5" r="83.5" class="st7"/><path d="M806.65 449.84c-.25-.26-.38-.66-.38-1.2v-15.88c0-.54.13-.94.38-1.19s.7-.38 1.33-.38h3.22c.41 0 .74.05.98.15s.43.3.56.6l3.28 8.2 3.28-8.2c.13-.3.32-.5.56-.6s.57-.15.98-.15h3.22c.63 0 1.08.13 1.33.38s.38.65.38 1.19v15.88c0 .54-.13.94-.38 1.2s-.69.39-1.3.39h-2.69c-.62 0-1.05-.13-1.32-.39q-.39-.39-.39-1.2V441l-1.65 3.81c-.22.54-.47.93-.73 1.16s-.69.35-1.29.35-1.03-.12-1.29-.35-.5-.62-.73-1.16l-1.65-3.81v7.64c0 .54-.13.94-.38 1.2s-.7.39-1.33.39h-2.69c-.61 0-1.05-.13-1.3-.39M828.1 449.84c-.25-.26-.38-.66-.38-1.2v-15.85c0-.54.13-.94.38-1.2s.69-.39 1.3-.39h11.59c.6 0 1 .13 1.22.38.21.25.32.66.32 1.22v1.57c0 .56-.11.97-.32 1.22s-.62.38-1.22.38h-6.55v2.41h4.03c.6 0 1 .13 1.22.38.21.25.32.66.32 1.22v1.51c0 .56-.11.97-.32 1.22s-.62.38-1.22.38h-4.03v2.41h6.52c.6 0 1 .13 1.22.38.21.25.32.66.32 1.22v1.57c0 .56-.11.97-.32 1.22s-.62.38-1.22.38H829.4c-.62-.04-1.05-.17-1.3-.43M844.17 449.84c-.25-.26-.38-.66-.38-1.2v-15.88c0-.54.13-.94.38-1.19s.7-.38 1.33-.38h2.66c.39 0 .69.05.91.15q.315.15.63.6l5.07 7.53v-6.69c0-.54.13-.94.38-1.2s.69-.39 1.3-.39h3.33c.63 0 1.08.13 1.33.38s.38.66.38 1.22v15.88c0 .54-.13.94-.38 1.19s-.7.38-1.33.38h-2.66c-.39 0-.7-.05-.91-.15q-.315-.15-.63-.6l-5.07-7.53v6.72c0 .54-.13.94-.38 1.19s-.7.38-1.33.38h-3.33c-.61-.02-1.05-.15-1.3-.41M867 450.12c-1.46-.35-2.63-.85-3.53-1.48-.37-.26-.56-.51-.56-.76 0-.17.06-.35.2-.53l1.62-2.55c.17-.24.34-.36.5-.36.15 0 .33.07.53.2.67.41 1.44.73 2.31.97.87.23 1.71.35 2.53.35.69 0 1.19-.09 1.5-.28s.46-.48.46-.87c0-.43-.21-.77-.62-1.04-.41-.26-1.12-.59-2.13-.98-1.89-.73-3.37-1.55-4.45-2.48-1.08-.92-1.62-2.15-1.62-3.68 0-1.94.68-3.4 2.03-4.38s3.18-1.47 5.47-1.47c1.6 0 2.97.14 4.1.42s2.11.72 2.95 1.32c.37.26.56.51.56.76 0 .17-.07.35-.2.53l-1.62 2.55c-.17.26-.34.39-.5.39-.11 0-.29-.07-.53-.22-.45-.3-.98-.55-1.6-.74-.62-.2-1.28-.29-1.99-.29-.65 0-1.15.09-1.48.28-.34.19-.5.49-.5.9 0 .34.12.62.35.84s.53.42.88.57c.35.16.97.42 1.85.77 1.4.56 2.5 1.1 3.3 1.61s1.41 1.13 1.82 1.85.62 1.63.62 2.73c0 1.68-.63 3.04-1.89 4.07-1.26 1.04-3.14 1.55-5.64 1.55-1.68-.02-3.26-.19-4.72-.55M878.85 449.65c0-.17.05-.37.14-.62l6.97-16.77c.17-.39.36-.67.57-.83s.52-.24.91-.24h3.05c.39 0 .7.08.91.24s.41.43.57.83l6.94 16.77c.09.24.14.45.14.62 0 .39-.21.59-.62.59h-5.26c-.58 0-.94-.25-1.09-.76l-.67-2.07h-4.96l-.64 2.07c-.15.5-.51.76-1.09.76h-5.26c-.41-.01-.61-.2-.61-.59m11.2-6.67-1.09-3.47-1.09 3.47z" class="st8"/><path d="M898.7 448.81c-.22-.17-.34-.35-.34-.56 0-.17.08-.4.25-.7l1.4-2.41c.19-.3.38-.45.59-.45.13 0 .32.08.56.25.9.67 1.75 1.01 2.58 1.01 1.27 0 1.9-.61 1.9-1.82v-11.34c0-.54.13-.94.38-1.2s.69-.39 1.3-.39h3.33c.63 0 1.08.13 1.33.38s.38.66.38 1.22v11.4c0 1.98-.62 3.55-1.85 4.72s-3.01 1.75-5.32 1.75c-2.65-.02-4.81-.63-6.49-1.86M914.56 449.84c-.25-.26-.38-.66-.38-1.2v-15.85c0-.54.13-.94.38-1.2s.69-.39 1.3-.39h11.59c.6 0 1 .13 1.22.38.21.25.32.66.32 1.22v1.57c0 .56-.11.97-.32 1.22s-.62.38-1.22.38h-6.55v2.41h4.03c.6 0 1 .13 1.22.38.21.25.32.66.32 1.22v1.51c0 .56-.11.97-.32 1.22s-.62.38-1.22.38h-4.03v2.41h6.52c.6 0 1 .13 1.22.38.21.25.32.66.32 1.22v1.57c0 .56-.11.97-.32 1.22s-.62.38-1.22.38h-11.56c-.61-.04-1.05-.17-1.3-.43M933.81 450.12c-1.46-.35-2.63-.85-3.53-1.48-.37-.26-.56-.51-.56-.76 0-.17.06-.35.2-.53l1.62-2.55c.17-.24.34-.36.5-.36.15 0 .33.07.53.2.67.41 1.44.73 2.31.97.87.23 1.71.35 2.53.35.69 0 1.19-.09 1.5-.28s.46-.48.46-.87c0-.43-.21-.77-.62-1.04-.41-.26-1.12-.59-2.13-.98-1.89-.73-3.37-1.55-4.45-2.48-1.08-.92-1.62-2.15-1.62-3.68 0-1.94.68-3.4 2.03-4.38s3.18-1.47 5.47-1.47c1.6 0 2.97.14 4.1.42s2.11.72 2.95 1.32c.37.26.56.51.56.76 0 .17-.07.35-.2.53l-1.62 2.55c-.17.26-.34.39-.5.39-.11 0-.29-.07-.53-.22-.45-.3-.98-.55-1.6-.74-.62-.2-1.28-.29-1.99-.29-.65 0-1.15.09-1.48.28-.34.19-.5.49-.5.9 0 .34.12.62.35.84s.53.42.88.57c.35.16.97.42 1.85.77 1.4.56 2.5 1.1 3.3 1.61s1.41 1.13 1.82 1.85.62 1.63.62 2.73c0 1.68-.63 3.04-1.89 4.07-1.26 1.04-3.14 1.55-5.64 1.55-1.69-.02-3.26-.19-4.72-.55M835.77 483.44c-.25-.26-.38-.66-.38-1.2v-12.68h-4.03c-.6 0-1-.13-1.22-.38-.21-.25-.32-.66-.32-1.22v-1.57c0-.56.11-.97.32-1.22s.62-.38 1.22-.38h14.78c.6 0 1 .13 1.22.38.21.25.32.66.32 1.22v1.57c0 .56-.11.97-.32 1.22s-.62.38-1.22.38h-4.03v12.68c0 .54-.13.94-.38 1.2s-.7.39-1.33.39h-3.33c-.61 0-1.05-.13-1.3-.39M848.9 483.44c-.25-.26-.38-.66-.38-1.2v-15.85c0-.54.13-.94.38-1.2s.69-.39 1.3-.39h11.59c.6 0 1 .13 1.22.38.21.25.32.66.32 1.22v1.57c0 .56-.11.97-.32 1.22s-.62.38-1.22.38h-6.55v2.41h4.03c.6 0 1 .13 1.22.38.21.25.32.66.32 1.22v1.51c0 .56-.11.97-.32 1.22s-.62.38-1.22.38h-4.03v2.41h6.52c.6 0 1 .13 1.22.38.21.25.32.66.32 1.22v1.57c0 .56-.11.97-.32 1.22s-.62.38-1.22.38H850.2c-.61-.04-1.05-.17-1.3-.43M863.52 483.65a.6.6 0 0 1-.18-.43c0-.19.07-.38.22-.59l6.41-8.65-5.91-7.98c-.15-.21-.22-.4-.22-.59 0-.17.06-.31.18-.43s.29-.18.52-.18h5.24c.28 0 .49.03.64.1s.28.17.39.32l2.83 3.84 2.86-3.84a.9.9 0 0 1 .39-.32c.15-.07.36-.1.64-.1h5.24c.22 0 .4.06.52.18s.18.27.18.43c0 .19-.07.38-.22.59l-5.94 7.98 6.44 8.65c.15.21.22.4.22.59 0 .17-.06.31-.18.43s-.29.18-.52.18h-5.24c-.28 0-.5-.03-.64-.1a.9.9 0 0 1-.39-.32l-3.36-4.51-3.33 4.51a.9.9 0 0 1-.39.32c-.15.07-.36.1-.64.1h-5.24c-.23 0-.4-.06-.52-.18M890.2 483.44c-.25-.26-.38-.66-.38-1.2v-12.68h-4.03c-.6 0-1-.13-1.22-.38-.21-.25-.32-.66-.32-1.22v-1.57c0-.56.11-.97.32-1.22s.62-.38 1.22-.38h14.78c.6 0 1 .13 1.22.38.21.25.32.66.32 1.22v1.57c0 .56-.11.97-.32 1.22s-.62.38-1.22.38h-4.03v12.68c0 .54-.13.94-.38 1.2s-.7.39-1.33.39h-3.33c-.61 0-1.05-.13-1.3-.39" class="st8"/><path d="M903.71 481.66q-2.58-2.595-2.58-7.35t2.58-7.35c1.72-1.73 4.24-2.59 7.56-2.59s5.84.86 7.56 2.59q2.58 2.595 2.58 7.35t-2.58 7.35c-1.72 1.73-4.24 2.59-7.56 2.59s-5.84-.86-7.56-2.59m10.19-3.41q.81-1.305.81-3.93c0-1.77-.27-3.09-.81-3.95s-1.42-1.29-2.63-1.29-2.09.43-2.63 1.29-.81 2.17-.81 3.95c0 1.75.27 3.07.81 3.93s1.42 1.3 2.63 1.3 2.09-.43 2.63-1.3" class="st8"/></g><g id="Capa_10"><circle cx="317.5" cy="804.5" r="83.5" class="st7"/><path d="M254.31 814.65c0-.17.05-.37.14-.62l6.97-16.77c.17-.39.36-.67.57-.83s.52-.24.91-.24h3.05c.39 0 .7.08.91.24s.41.43.57.83l6.94 16.77c.09.24.14.45.14.62 0 .39-.21.59-.62.59h-5.26c-.58 0-.94-.25-1.09-.76l-.67-2.07h-4.96l-.64 2.07c-.15.5-.51.76-1.09.76h-5.26c-.4-.01-.61-.2-.61-.59m11.2-6.67-1.09-3.47-1.09 3.47zM278.2 813.15c-1.89-1.67-2.83-4.15-2.83-7.43 0-3.27.94-5.74 2.83-7.42s4.52-2.52 7.9-2.52c1.53 0 2.9.15 4.12.45 1.21.3 2.22.72 3.02 1.26.22.17.34.35.34.56 0 .17-.08.4-.25.7l-1.4 2.41c-.15.26-.33.39-.53.39-.13 0-.35-.08-.64-.22-1.12-.56-2.35-.84-3.7-.84-1.55 0-2.77.44-3.65 1.33s-1.33 2.19-1.33 3.91c0 1.77.37 3.08 1.12 3.93s1.86 1.27 3.33 1.27c.26 0 .56-.02.88-.07.33-.05.59-.1.8-.15v-2.55h-1.79c-.6 0-1-.12-1.22-.35-.21-.23-.32-.63-.32-1.19v-1.54c0-.56.11-.96.32-1.19s.62-.35 1.22-.35h6.02c.73 0 1.23.16 1.51.49s.42.85.42 1.55v6.55c0 .41-.05.72-.15.94q-.15.315-.6.66c-1.79 1.29-4.28 1.93-7.48 1.93-3.42-.01-6.06-.84-7.94-2.51M296.13 814.84c-.25-.26-.38-.66-.38-1.2v-15.85c0-.54.13-.94.38-1.2s.69-.39 1.3-.39h11.59c.6 0 1 .13 1.22.38.21.25.32.66.32 1.22v1.57c0 .56-.11.97-.32 1.22s-.62.38-1.22.38h-6.55v2.41h4.03c.6 0 1 .13 1.22.38.21.25.32.66.32 1.22v1.51c0 .56-.11.97-.32 1.22s-.62.38-1.22.38h-4.03v2.41H309c.6 0 1 .13 1.22.38.21.25.32.66.32 1.22v1.57c0 .56-.11.97-.32 1.22s-.62.38-1.22.38h-11.56c-.62-.04-1.06-.17-1.31-.43M312.2 814.84c-.25-.26-.38-.66-.38-1.2v-15.88c0-.54.13-.94.38-1.19s.7-.38 1.33-.38h2.66c.39 0 .69.05.91.15q.315.15.63.6l5.07 7.53v-6.69c0-.54.13-.94.38-1.2s.69-.39 1.3-.39h3.33c.63 0 1.08.13 1.33.38s.38.66.38 1.22v15.88c0 .54-.13.94-.38 1.19s-.7.38-1.33.38h-2.66c-.39 0-.7-.05-.91-.15q-.315-.15-.63-.6l-5.07-7.53v6.72c0 .54-.13.94-.38 1.19s-.7.38-1.33.38h-3.33c-.61-.02-1.04-.15-1.3-.41M336.31 814.84c-.25-.26-.38-.66-.38-1.2v-12.68h-4.03c-.6 0-1-.13-1.22-.38s-.32-.66-.32-1.22v-1.57c0-.56.11-.97.32-1.22s.62-.38 1.22-.38h14.78c.6 0 1 .13 1.22.38.21.25.32.66.32 1.22v1.57c0 .56-.11.97-.32 1.22s-.62.38-1.22.38h-4.03v12.68c0 .54-.13.94-.38 1.2s-.7.39-1.33.39h-3.33c-.61 0-1.05-.13-1.3-.39M349.44 814.84c-.25-.26-.38-.66-.38-1.2v-15.85c0-.54.13-.94.38-1.2s.69-.39 1.3-.39h11.59c.6 0 1 .13 1.22.38.21.25.32.66.32 1.22v1.57c0 .56-.11.97-.32 1.22s-.62.38-1.22.38h-6.55v2.41h4.03c.6 0 1 .13 1.22.38.21.25.32.66.32 1.22v1.51c0 .56-.11.97-.32 1.22s-.62.38-1.22.38h-4.03v2.41h6.52c.6 0 1 .13 1.22.38.21.25.32.66.32 1.22v1.57c0 .56-.11.97-.32 1.22s-.62.38-1.22.38h-11.56c-.61-.04-1.05-.17-1.3-.43M368.69 815.12c-1.46-.35-2.63-.85-3.53-1.48-.37-.26-.56-.51-.56-.76 0-.17.06-.34.2-.53l1.62-2.55c.17-.24.34-.36.5-.36.15 0 .33.07.53.2.67.41 1.44.73 2.31.97.87.23 1.71.35 2.53.35.69 0 1.19-.09 1.5-.28s.46-.48.46-.87c0-.43-.21-.77-.62-1.04-.41-.26-1.12-.59-2.13-.98-1.89-.73-3.37-1.55-4.45-2.48-1.08-.92-1.62-2.15-1.62-3.68 0-1.94.68-3.4 2.03-4.38s3.18-1.47 5.47-1.47c1.6 0 2.97.14 4.1.42s2.11.72 2.95 1.32c.37.26.56.51.56.76 0 .17-.07.35-.2.53l-1.62 2.55c-.17.26-.34.39-.5.39-.11 0-.29-.07-.53-.22-.45-.3-.98-.55-1.6-.74-.62-.2-1.28-.29-1.99-.29-.65 0-1.15.09-1.48.28-.34.19-.5.49-.5.9 0 .34.12.62.35.84s.53.42.88.57.97.42 1.85.77c1.4.56 2.5 1.1 3.3 1.61s1.41 1.13 1.82 1.85.62 1.63.62 2.73c0 1.68-.63 3.04-1.89 4.07-1.26 1.04-3.14 1.55-5.64 1.55-1.68-.02-3.26-.19-4.72-.55" class="st8"/></g><g id="Capa_11"><circle cx="706.5" cy="804.5" r="83.5" class="st9"/><path d="M650.03 808.88c-1.95-1.73-2.93-4.3-2.93-7.7 0-3.42.94-5.99 2.83-7.71 1.88-1.72 4.58-2.58 8.08-2.58 1.58 0 3 .15 4.23.46 1.24.31 2.27.75 3.1 1.3.23.17.35.37.35.58 0 .17-.09.42-.26.73l-1.45 2.49c-.15.27-.34.41-.55.41-.14 0-.36-.08-.67-.23-.54-.27-1.11-.48-1.7-.64-.59-.15-1.28-.23-2.07-.23-1.6 0-2.83.46-3.68 1.39s-1.28 2.27-1.28 4.03c0 1.74.46 3.08 1.39 4.02s2.19 1.41 3.8 1.41c1.39 0 2.67-.29 3.83-.87.31-.15.53-.23.67-.23.21 0 .4.14.55.41l1.45 2.49c.17.31.26.55.26.72 0 .21-.12.41-.35.58-.83.56-1.88 1-3.13 1.31-1.26.31-2.68.46-4.26.46-3.52-.01-6.26-.87-8.21-2.6M666.12 810.43c0-.17.05-.39.15-.64l7.22-17.37c.17-.41.37-.69.59-.86.22-.16.54-.25.94-.25h3.16c.41 0 .72.08.94.25s.42.45.59.86l7.19 17.37c.1.25.15.46.15.64 0 .41-.21.61-.64.61h-5.45c-.6 0-.98-.26-1.13-.78l-.7-2.15H674l-.67 2.15c-.15.52-.53.78-1.13.78h-5.45c-.41 0-.63-.21-.63-.61m11.6-6.9-1.13-3.6-1.13 3.6zM688.9 810.63c-.26-.27-.39-.69-.39-1.25v-16.41c0-.56.13-.98.39-1.25s.71-.41 1.35-.41h6.93c2.9 0 5.01.58 6.34 1.73s1.99 2.89 1.99 5.21c0 1.39-.24 2.57-.71 3.52s-1.2 1.71-2.19 2.25l2.7 5.77c.08.15.12.33.12.52 0 .21-.07.39-.22.52-.15.14-.33.2-.57.2h-4.9c-.31 0-.56-.04-.74-.13a.8.8 0 0 1-.39-.45l-2.15-5.39h-.99v4.32c0 .56-.13.98-.39 1.25s-.72.41-1.38.41h-3.45c-.64 0-1.09-.14-1.35-.41m7.67-10.41c.62 0 1.11-.16 1.46-.49.36-.33.54-.82.54-1.48 0-.68-.18-1.18-.54-1.51s-.85-.49-1.46-.49h-1.97v3.97zM707.35 810.63c-.26-.27-.39-.69-.39-1.25v-16.41c0-.56.13-.98.39-1.25s.71-.41 1.35-.41h3.45q.99 0 1.38.39t.39 1.26v16.41c0 .56-.13.98-.39 1.25s-.72.41-1.38.41h-3.45c-.64.01-1.09-.13-1.35-.4M724.07 810.43c0-.17.05-.39.15-.64l7.22-17.37c.17-.41.37-.69.59-.86.22-.16.54-.25.94-.25h3.16c.41 0 .72.08.94.25s.42.45.59.86l7.19 17.37c.1.25.15.46.15.64 0 .41-.21.61-.64.61h-5.45c-.6 0-.98-.26-1.13-.78l-.7-2.15h-5.13l-.67 2.15c-.15.52-.53.78-1.13.78h-5.45c-.42 0-.63-.21-.63-.61m11.6-6.9-1.13-3.6-1.13 3.6zM746.85 810.63c-.26-.27-.39-.69-.39-1.25v-16.41c0-.56.13-.98.39-1.25s.71-.41 1.35-.41h3.45q.99 0 1.38.39t.39 1.26v16.41c0 .56-.13.98-.39 1.25s-.72.41-1.38.41h-3.45c-.64.01-1.09-.13-1.35-.4" class="st8"/></g><g id="Capa_12"><path d="M289 618s-2.1.71-5.76 1.68" class="st11"/><path d="M272 622.21c-33.05 6.21-103 8.91-105.99-78.44" class="st12"/><path d="M165.91 538q0-2.94.09-6" class="st11"/><path d="m150 543 16-18 20 18zM293.91 601.91l23.25 6.28-7.18 25.93z" class="st13"/></g><g id="Capa_13"><path d="m228 337 3.98 4.49" class="st14"/><path d="m239.75 350.26 120.39 135.87" style="fill:none;stroke:#447ab7;stroke-width:10;stroke-miterlimit:10;stroke-dasharray:11.7119,11.7119"/><path d="M364.02 490.51 368 495" class="st14"/><path d="m380.31 481.89 1.48 24.04-26.87 1.48zM222.9 356.41l3.48-23.83 26.6 4.05z" class="st16"/></g><g id="Capa_14"><path d="m434 417 3.56 4.83" class="st17"/><path d="m445.52 432.61 11.94 16.17" style="fill:none;stroke:#798eab;stroke-width:12;stroke-miterlimit:10;stroke-dasharray:13.4005,13.4005"/><path d="M461.44 454.17 465 459" class="st17"/><path d="m427.9 437.41 3.48-23.83 26.6 4.05zM473.59 438.8l-1.46 24.04-26.84-1.8z" class="st2"/></g><g id="Capa_15"><path d="m525.5 280 .02 141" style="fill:none;stroke:#89b749;stroke-width:13;stroke-miterlimit:10;stroke-dasharray:12"/><path d="m507.84 413.69 16.66 17.38 19.31-18.74zM543.48 288.34l-16.64-17.41-19.34 18.72z" class="st13"/></g><g id="Capa_16"><path d="m653.21 469.05-.9 24.07 26.9.83zM810.08 339.41l-3.48-23.83-26.6 4.05z" class="st16"/><path d="M795 339s-77 114-132 143" style="fill:none;stroke:#447ab7;stroke-width:10;stroke-miterlimit:10;stroke-dasharray:12"/></g><g id="Capa_20"><path d="m622.5 410-3.57 4.83" class="st14"/><path d="m610.98 425.61-11.94 16.17" style="fill:none;stroke:#447ab7;stroke-width:10;stroke-miterlimit:10;stroke-dasharray:13.4005,13.4005"/><path d="M595.06 447.17 591.5 452" class="st14"/><path d="m628.59 430.41-3.48-23.83-26.6 4.05zM582.9 431.8l1.46 24.04 26.85-1.8z" class="st16"/></g><g id="Capa_17"><path d="M738.16 647s2.1.71 5.76 1.68" class="st11"/><path d="M755.17 651.21c33.05 6.21 103 8.91 105.99-78.44" class="st12"/><path d="M861.25 567q0-2.94-.09-6" class="st11"/><path d="m877.16 572-16-18-20 18zM733.25 630.91 710 637.19l7.19 25.93z" class="st13"/></g><g id="Capa_18"><path d="m514 669-1.79 140" class="st1"/></g></svg>