<svg xmlns="http://www.w3.org/2000/svg" id="Capa_1" data-name="Capa 1" viewBox="0 0 431.48 113.61"><defs><style>.cls-1{fill:#acb1ba}.cls-2{fill:#92b95b}</style></defs><path d="M3.36 19.55Q0 16.67 0 11.22A10.87 10.87 0 0 1 1.58 5.3a10.4 10.4 0 0 1 4.57-3.92A17 17 0 0 1 13.28 0a19.3 19.3 0 0 1 5.24.61 13.2 13.2 0 0 1 3.83 1.76 1.13 1.13 0 0 1 .53.88 2.55 2.55 0 0 1-.4 1.1L20.37 8a1 1 0 0 1-.88.66 1.8 1.8 0 0 1-1-.39 8.3 8.3 0 0 0-2-1 7 7 0 0 0-2.27-.31 3.53 3.53 0 0 0-2.65 1.17 4.43 4.43 0 0 0-1.06 3.13 4.26 4.26 0 0 0 1.08 3.12 3.87 3.87 0 0 0 2.88 1.1 6.8 6.8 0 0 0 2.22-.35 13 13 0 0 0 2.16-1 2.2 2.2 0 0 1 1-.4c.32 0 .6.22.83.66l2.34 4a1.6 1.6 0 0 1 .26.75 1 1 0 0 1-.62.88 16.6 16.6 0 0 1-4.24 1.85 20.2 20.2 0 0 1-5.35.62q-6.38-.05-9.71-2.94M30.69 21.05a10 10 0 0 1-4.51-3.92 11.1 11.1 0 0 1-1.49-5.91 11.24 11.24 0 0 1 1.54-6 10 10 0 0 1 4.46-3.86A16.8 16.8 0 0 1 37.75 0q6.19 0 9.68 3a10.33 10.33 0 0 1 3.47 8.21 11 11 0 0 1-1.56 5.92 10.2 10.2 0 0 1-4.51 3.92 16.6 16.6 0 0 1-7.08 1.39 16.6 16.6 0 0 1-7.06-1.39m9.7-9.83a4.87 4.87 0 0 0-.68-2.91 2.36 2.36 0 0 0-2-.88 2.3 2.3 0 0 0-1.94.88 5 5 0 0 0-.66 2.91q0 3.82 2.6 3.82t2.68-3.82M53.69 21.13a2.57 2.57 0 0 1-.62-1.89V2.13A1.54 1.54 0 0 1 53.4.96a2.2 2.2 0 0 1 1.34-.28h5.55a2.4 2.4 0 0 1 .86.11.63.63 0 0 1 .37.5l.27 1.1A9 9 0 0 1 64.87.68a12.6 12.6 0 0 1 4.18-.66 8.2 8.2 0 0 1 5.8 2q2.2 2 2.2 6v11.22a2.66 2.66 0 0 1-.59 1.89 2.8 2.8 0 0 1-2 .62h-5.23a2.86 2.86 0 0 1-2.07-.62 2.57 2.57 0 0 1-.62-1.89V8.71a2.17 2.17 0 0 0-.31-1.3 1.2 1.2 0 0 0-1-.42 1.41 1.41 0 0 0-1.17.42 2.1 2.1 0 0 0-.33 1.3v10.56a2.66 2.66 0 0 1-.59 1.89 2.8 2.8 0 0 1-2 .62h-5.35a2.86 2.86 0 0 1-2.1-.65" class="cls-1"/><path d="M2.82 75.54a4.33 4.33 0 0 1-1-3.09V31.7a4.35 4.35 0 0 1 1-3.1 4.56 4.56 0 0 1 3.35-1h21.82q8.78 0 12.92 3.75T45.05 42a11.53 11.53 0 0 1-1.4 5.73 7.9 7.9 0 0 1-3.71 3.49q6.41 2.16 6.41 10.08a14 14 0 0 1-4.79 11q-4.78 4.26-14.08 4.25H6.17a4.52 4.52 0 0 1-3.35-1.01m21.71-29.41q3.31 0 3.31-3.17t-3.31-3.17h-5.47v6.34Zm1.23 18.28a3.22 3.22 0 0 0 2.44-1 3.6 3.6 0 0 0 .94-2.63 3.68 3.68 0 0 0-.9-2.66 3.3 3.3 0 0 0-2.48-.94h-6.7v7.2ZM50.92 75.54a4.3 4.3 0 0 1-1-3.09V31.7a4.3 4.3 0 0 1 1-3.1 4.55 4.55 0 0 1 3.35-1h29.81a4 4 0 0 1 3.13 1 4.84 4.84 0 0 1 .83 3.14v4a4.8 4.8 0 0 1-.83 3.13 4 4 0 0 1-3.13 1H67.23v6.19H77.6a4 4 0 0 1 3.13 1 4.8 4.8 0 0 1 .83 3.13v3.89a4.8 4.8 0 0 1-.87 3.05 4 4 0 0 1-3.13 1H67.23v6.19H84a4.06 4.06 0 0 1 3.14 1 4.84 4.84 0 0 1 .82 3.14v4a4.8 4.8 0 0 1-.82 3.13c-.56.65-1.6 1-3.14 1H54.27a4.5 4.5 0 0 1-3.35-1.05M100.42 76.26a26.4 26.4 0 0 1-9.07-3.81q-1.44-1-1.44-1.95a2.36 2.36 0 0 1 .5-1.36l4.18-6.56q.65-.93 1.29-.93a2.7 2.7 0 0 1 1.37.5 22.5 22.5 0 0 0 5.94 2.49 25 25 0 0 0 6.52.9 7.75 7.75 0 0 0 3.85-.72 2.44 2.44 0 0 0 1.19-2.24 3 3 0 0 0-1.59-2.66 35 35 0 0 0-5.47-2.52 39.7 39.7 0 0 1-11.45-6.37 11.84 11.84 0 0 1-4.17-9.47q0-7.49 5.22-11.27t14.07-3.78a44.4 44.4 0 0 1 10.55 1.08 22.2 22.2 0 0 1 7.6 3.39c1 .67 1.44 1.32 1.44 1.94a2.4 2.4 0 0 1-.51 1.37l-4.17 6.55c-.43.67-.87 1-1.3 1a3.1 3.1 0 0 1-1.37-.58 16.75 16.75 0 0 0-9.21-2.66 8.1 8.1 0 0 0-3.82.72 2.45 2.45 0 0 0-1.3 2.3 2.85 2.85 0 0 0 .9 2.16 7.9 7.9 0 0 0 2.27 1.48c.91.41 2.5 1.07 4.75 2a52 52 0 0 1 8.5 4.14 12.65 12.65 0 0 1 6.27 11.73 12.9 12.9 0 0 1-4.87 10.48q-4.85 4-14.5 4a51.4 51.4 0 0 1-12.17-1.35" class="cls-2"/><path d="M146.17 75.54a4.33 4.33 0 0 1-1-3.09V39.83h-10.34c-1.53 0-2.58-.32-3.13-1a4.8 4.8 0 0 1-.83-3.13v-4a4.84 4.84 0 0 1 .83-3.14 4 4 0 0 1 3.13-1h38a4 4 0 0 1 3.13 1 4.84 4.84 0 0 1 .83 3.14v4a4.8 4.8 0 0 1-.83 3.13c-.55.65-1.59 1-3.13 1h-10.35v32.62a4.3 4.3 0 0 1-1 3.09 4.63 4.63 0 0 1-3.42 1h-8.57a4.52 4.52 0 0 1-3.32-1M196.5 75.94a4.63 4.63 0 0 1-1.4-2.12l-17.21-43.13a4.6 4.6 0 0 1-.36-1.59c0-1 .53-1.51 1.58-1.51h13.58a2.62 2.62 0 0 1 2.81 1.95l7.34 23.47 7.35-23.47a2.6 2.6 0 0 1 2.8-1.95h13.5c1.05 0 1.58.51 1.58 1.51a4.6 4.6 0 0 1-.36 1.59l-17.13 43.13a4.64 4.64 0 0 1-1.41 2.12 4 4 0 0 1-2.41.61h-7.85a4 4 0 0 1-2.41-.61M232.18 70.97q-6.63-6.66-6.63-18.9t6.63-18.9q6.61-6.66 19.44-6.66t19.44 6.62q6.61 6.66 6.62 18.9t-6.62 18.9-19.44 6.66-19.44-6.62m26.21-8.78q2.08-3.34 2.08-10.12t-2.08-10.15c-1.4-2.21-3.65-3.31-6.77-3.31s-5.38 1.1-6.77 3.31-2.09 5.59-2.09 10.15.7 7.89 2.09 10.12 3.65 3.35 6.77 3.35 5.37-1.12 6.77-3.35M282.25 75.54a4.33 4.33 0 0 1-1-3.09V31.7a4.35 4.35 0 0 1 1-3.1 4.56 4.56 0 0 1 3.35-1h8.57a4.82 4.82 0 0 1 3.42 1 4.3 4.3 0 0 1 1 3.14v40.75a4.3 4.3 0 0 1-1 3.09 4.63 4.63 0 0 1-3.42 1h-8.57a4.52 4.52 0 0 1-3.35-1.04M304.57 75.54a4.33 4.33 0 0 1-1-3.09V31.7a4.35 4.35 0 0 1 1-3.1 4.56 4.56 0 0 1 3.35-1h17.21q10.8 0 15.73 4.29t4.93 12.92q0 8.64-4.93 12.89t-15.66 4.25h-4.32v10.51a4.3 4.3 0 0 1-1 3.09 4.63 4.63 0 0 1-3.42 1h-8.57a4.52 4.52 0 0 1-3.32-1.01m19.05-25.84a5.13 5.13 0 0 0 3.63-1.23 4.73 4.73 0 0 0 1.34-3.67 4.82 4.82 0 0 0-1.34-3.74 5.13 5.13 0 0 0-3.63-1.23h-4.93v9.87ZM348.93 75.54a4.3 4.3 0 0 1-1-3.09V31.7a4.3 4.3 0 0 1 1-3.1 4.52 4.52 0 0 1 3.34-1h29.81a4 4 0 0 1 3.13 1 4.78 4.78 0 0 1 .83 3.14v4a4.75 4.75 0 0 1-.83 3.13c-.55.65-1.59 1-3.13 1h-16.85v6.19h10.37c1.54 0 2.58.33 3.13 1a4.73 4.73 0 0 1 .83 3.13v3.89a4.75 4.75 0 0 1-.87 3.05c-.55.65-1.59 1-3.13 1h-10.33v6.19h16.78a4 4 0 0 1 3.13 1 4.84 4.84 0 0 1 .83 3.14v4a4.8 4.8 0 0 1-.83 3.13c-.55.65-1.59 1-3.13 1h-29.74a4.48 4.48 0 0 1-3.34-1.05M390.25 75.54a4.33 4.33 0 0 1-1-3.09V31.7a4.35 4.35 0 0 1 1-3.1 4.56 4.56 0 0 1 3.35-1h17.21q10.8 0 15.73 4.29t4.93 12.92a19.55 19.55 0 0 1-1.76 8.75 12.8 12.8 0 0 1-5.44 5.58l6.7 14.33a2.85 2.85 0 0 1 .29 1.29 1.7 1.7 0 0 1-.54 1.3 2 2 0 0 1-1.41.5h-12.16a4.4 4.4 0 0 1-1.84-.32 1.87 1.87 0 0 1-1-1.12l-5.33-13.39h-2.45v10.73a4.3 4.3 0 0 1-1 3.09 4.63 4.63 0 0 1-3.42 1h-8.57a4.52 4.52 0 0 1-3.29-1.01M409.3 49.7a5.15 5.15 0 0 0 3.63-1.23 4.73 4.73 0 0 0 1.34-3.67 4.82 4.82 0 0 0-1.34-3.74 5.15 5.15 0 0 0-3.63-1.23h-4.9v9.87Z" class="cls-2"/><path d="M3.81 103.91Q.45 101.03.45 95.57a10.9 10.9 0 0 1 1.58-5.92 10.4 10.4 0 0 1 4.58-3.91 16.7 16.7 0 0 1 7.08-1.39 19.3 19.3 0 0 1 5.24.62 13 13 0 0 1 3.83 1.76 1.1 1.1 0 0 1 .53.88 2.6 2.6 0 0 1-.4 1.1l-2.11 3.65a1 1 0 0 1-.88.66 1.77 1.77 0 0 1-1-.4 8.7 8.7 0 0 0-2-1 7.2 7.2 0 0 0-2.26-.31 3.51 3.51 0 0 0-2.73 1.15 4.4 4.4 0 0 0-1.06 3.12 4.26 4.26 0 0 0 1.08 3.12 3.83 3.83 0 0 0 2.88 1.1 6.5 6.5 0 0 0 2.2-.35 12 12 0 0 0 2.16-1 2.3 2.3 0 0 1 1-.4q.48 0 .84.66l2.33 4a1.56 1.56 0 0 1 .26.75 1 1 0 0 1-.61.88 16.8 16.8 0 0 1-4.13 1.79 20.2 20.2 0 0 1-5.35.62q-6.33.04-9.7-2.84M26.58 105.51a2.57 2.57 0 0 1-.61-1.89V86.46a1.53 1.53 0 0 1 .33-1.16 2.16 2.16 0 0 1 1.34-.29h5.54a2.6 2.6 0 0 1 .86.11.61.61 0 0 1 .37.51l.27 1.1a9 9 0 0 1 6.16-2.38 11.7 11.7 0 0 1 2.73.26 5.6 5.6 0 0 1 1.89.93 1 1 0 0 1 .48.75 1.7 1.7 0 0 1-.13.61l-1.72 4.67c-.17.47-.41.7-.7.7a1.2 1.2 0 0 1-.62-.22 6.2 6.2 0 0 0-1.36-.57 6.7 6.7 0 0 0-1.72-.18 3.4 3.4 0 0 0-2.28.75 2.5 2.5 0 0 0-.88 2v9.55a2.6 2.6 0 0 1-.6 1.89 2.76 2.76 0 0 1-2 .62h-5.24a2.86 2.86 0 0 1-2.11-.6M52.69 105.51a10.4 10.4 0 0 1-4.65-3.76 10.55 10.55 0 0 1-1.67-6q0-5.55 3.24-8.47t9.35-2.93q6 0 9.06 2.88a10.25 10.25 0 0 1 3.08 7.86 2.86 2.86 0 0 1-.53 1.89 2 2 0 0 1-1.63.61H56.28a2.35 2.35 0 0 0 1.28 2.09 6.73 6.73 0 0 0 3.52.77 11 11 0 0 0 2.77-.28 12.5 12.5 0 0 0 2.29-.9 2 2 0 0 1 .83-.27c.27 0 .52.21.75.62l1.72 3.25a1.66 1.66 0 0 1 .26.8 1 1 0 0 1-.61.83 18.2 18.2 0 0 1-9.64 2.29 17 17 0 0 1-6.76-1.28m9.08-12.84c0-1.59-.92-2.38-2.77-2.38a2.9 2.9 0 0 0-2 .64 2.27 2.27 0 0 0-.68 1.74ZM75.8 103.91q-3.37-2.88-3.37-8.34a11 11 0 0 1 1.58-5.92 10.4 10.4 0 0 1 4.58-3.91 16.7 16.7 0 0 1 7.13-1.39 19.2 19.2 0 0 1 5.23.62 12.8 12.8 0 0 1 3.83 1.76 1.1 1.1 0 0 1 .53.88 2.46 2.46 0 0 1-.4 1.1l-2.11 3.65a1 1 0 0 1-.88.66 1.83 1.83 0 0 1-1-.4 8.7 8.7 0 0 0-2-1 7.3 7.3 0 0 0-2.27-.31 3.53 3.53 0 0 0-2.73 1.15 4.43 4.43 0 0 0-1 3.12 4.25 4.25 0 0 0 1.07 3.12 3.84 3.84 0 0 0 2.89 1.1 6.6 6.6 0 0 0 2.2-.35 12.4 12.4 0 0 0 2.15-1 2.3 2.3 0 0 1 1-.4q.49 0 .84.66l2.33 4a1.5 1.5 0 0 1 .27.75 1 1 0 0 1-.62.88 16.8 16.8 0 0 1-4.25 1.84 20.2 20.2 0 0 1-5.34.62q-6.3-.01-9.66-2.89M103.38 105.51a10.37 10.37 0 0 1-4.64-3.76 10.55 10.55 0 0 1-1.67-6q0-5.55 3.23-8.47t9.35-2.93q6 0 9.07 2.88a10.25 10.25 0 0 1 3.08 7.86 2.86 2.86 0 0 1-.53 1.89 2 2 0 0 1-1.63.61h-12.67a2.33 2.33 0 0 0 1.28 2.09 6.73 6.73 0 0 0 3.52.77 11 11 0 0 0 2.77-.28 13 13 0 0 0 2.29-.9 2 2 0 0 1 .83-.27c.27 0 .51.21.75.62l1.72 3.25a1.66 1.66 0 0 1 .26.8 1 1 0 0 1-.62.83 18.16 18.16 0 0 1-9.63 2.29 17 17 0 0 1-6.76-1.28m9.09-12.84c0-1.59-.92-2.38-2.77-2.38a2.9 2.9 0 0 0-2 .64 2.27 2.27 0 0 0-.68 1.74ZM124.61 105.51a2.57 2.57 0 0 1-.61-1.89V86.46a1.53 1.53 0 0 1 .33-1.16 2.16 2.16 0 0 1 1.34-.29h5.1a2.6 2.6 0 0 1 .86.11.64.64 0 0 1 .38.51l.26 1.1a10.5 10.5 0 0 1 2.75-1.74 8.4 8.4 0 0 1 3.41-.64 7.6 7.6 0 0 1 3.06.55 6.9 6.9 0 0 1 2.31 1.74 9.4 9.4 0 0 1 2.68-1.7 9.7 9.7 0 0 1 3.61-.59 7.16 7.16 0 0 1 5.43 2c1.28 1.34 1.92 3.35 1.92 6v11.22a2.6 2.6 0 0 1-.6 1.89 2.75 2.75 0 0 1-2 .62h-4.36a2.86 2.86 0 0 1-2.07-.62 2.57 2.57 0 0 1-.61-1.89V93.06c0-1.14-.38-1.71-1.15-1.71a1.12 1.12 0 0 0-1 .41 2.2 2.2 0 0 0-.31 1.3v10.56a2.6 2.6 0 0 1-.6 1.89 2.75 2.75 0 0 1-2 .62h-3.92a2.86 2.86 0 0 1-2.07-.62 2.57 2.57 0 0 1-.61-1.89V93.06c0-1.14-.38-1.71-1.15-1.71a1.12 1.12 0 0 0-1 .41 2.2 2.2 0 0 0-.31 1.3v10.56a2.6 2.6 0 0 1-.6 1.89 2.75 2.75 0 0 1-2 .62h-4.39a2.86 2.86 0 0 1-2.08-.62M164.81 105.4a10.1 10.1 0 0 1-4.51-3.91 12.23 12.23 0 0 1 0-11.88 10 10 0 0 1 4.51-3.9 16.8 16.8 0 0 1 7.06-1.36q6.21 0 9.68 3a10.3 10.3 0 0 1 3.48 8.21 11.06 11.06 0 0 1-1.57 5.92 10.25 10.25 0 0 1-4.51 3.91 18.68 18.68 0 0 1-14.14 0Zm9.7-9.83a4.8 4.8 0 0 0-.68-2.9 2.33 2.33 0 0 0-2-.88 2.27 2.27 0 0 0-1.94.88 4.9 4.9 0 0 0-.66 2.9q0 3.82 2.6 3.83t2.68-3.83M186.21 104.41q-1-.52-1-1a1.46 1.46 0 0 1 .26-.75l2.16-3.87a.87.87 0 0 1 .74-.53 2.1 2.1 0 0 1 .88.26 18 18 0 0 0 3.08 1.17 12 12 0 0 0 3.3.55 3.7 3.7 0 0 0 1.28-.15.54.54 0 0 0 .35-.51c0-.23-.21-.44-.64-.62a21 21 0 0 0-2.13-.66l-.86-.24q-.42-.11-.81-.24a13.7 13.7 0 0 1-5.22-2.53 5.12 5.12 0 0 1-1.56-4 5.68 5.68 0 0 1 2.95-5.16 14.94 14.94 0 0 1 7.87-1.78 23.4 23.4 0 0 1 5.26.51 18 18 0 0 1 4.29 1.6c.62.35.92.72.92 1.1a1.86 1.86 0 0 1-.35.93l-2.11 3.34c-.24.35-.45.53-.66.53a3.6 3.6 0 0 1-.84-.31 12.4 12.4 0 0 0-2.33-.81 10 10 0 0 0-2.42-.33c-1.58 0-2.37.26-2.37.79 0 .23.25.44.77.61s1.38.41 2.61.71c1.62.38 2.73.67 3.35.88a12.6 12.6 0 0 1 3 1.45 4.1 4.1 0 0 1 1.51 1.78 6.7 6.7 0 0 1 .42 2.57 5.92 5.92 0 0 1-1.22 3.53 8.14 8.14 0 0 1-3.7 2.59 16.9 16.9 0 0 1-6.14 1 21.8 21.8 0 0 1-10.64-2.41M215.69 110.71a1.12 1.12 0 0 1-.52-.88 2.46 2.46 0 0 1 .39-1.1l2.2-3.79c.29-.47.6-.7.93-.7a1.86 1.86 0 0 1 .88.39 6.77 6.77 0 0 0 4 1.59c2 0 3-1 3-2.86V87.52a2.6 2.6 0 0 1 .59-1.89 2.8 2.8 0 0 1 2.05-.62h5.23a2.93 2.93 0 0 1 2.09.59 2.63 2.63 0 0 1 .6 1.92v15.93a9.72 9.72 0 0 1-2.91 7.41q-2.9 2.75-8.36 2.75a16.9 16.9 0 0 1-10.17-2.9m11.6-28.14a3 3 0 0 1-.9-2.18v-1.1a3 3 0 0 1 .9-2.18 3.54 3.54 0 0 1 2.62-.9h3.78a3.6 3.6 0 0 1 2.64.9 2.93 2.93 0 0 1 .93 2.18v1.1a2.93 2.93 0 0 1-.93 2.18 3.6 3.6 0 0 1-2.64.9h-3.82a3.54 3.54 0 0 1-2.58-.9M242.14 104.74q-2.11-2-2.12-6.18v-11a2.6 2.6 0 0 1 .6-1.89 2.8 2.8 0 0 1 2.05-.62h5.23a2.93 2.93 0 0 1 2.09.59 2.63 2.63 0 0 1 .6 1.92v10.57a2.1 2.1 0 0 0 .33 1.3 1.27 1.27 0 0 0 1.07.41 1.35 1.35 0 0 0 1.15-.41 2.24 2.24 0 0 0 .31-1.3V87.52a2.6 2.6 0 0 1 .59-1.89 2.8 2.8 0 0 1 2-.62h5.23a2.93 2.93 0 0 1 2.09.59 2.63 2.63 0 0 1 .59 1.92v17.16a1.53 1.53 0 0 1-.32 1.16 2.13 2.13 0 0 1-1.35.29h-5.49a2.6 2.6 0 0 1-.86-.11.63.63 0 0 1-.37-.51l-.27-1.1a8.9 8.9 0 0 1-3.14 1.72 13.2 13.2 0 0 1-4.25.66 7.9 7.9 0 0 1-5.76-2.05M267.69 105.51a2.57 2.57 0 0 1-.62-1.89V86.46a1.53 1.53 0 0 1 .33-1.16 2.2 2.2 0 0 1 1.35-.29h5.54a2.6 2.6 0 0 1 .86.11.63.63 0 0 1 .37.51l.27 1.1a8.9 8.9 0 0 1 3.08-1.72 12.6 12.6 0 0 1 4.18-.66 8.26 8.26 0 0 1 5.8 2q2.2 2 2.2 6v11.22a2.6 2.6 0 0 1-.59 1.89 2.8 2.8 0 0 1-2 .62h-5.27a2.86 2.86 0 0 1-2.07-.62 2.57 2.57 0 0 1-.62-1.89V93.06a2.27 2.27 0 0 0-.3-1.3 1.26 1.26 0 0 0-1.06-.41 1.44 1.44 0 0 0-1.17.41 2.1 2.1 0 0 0-.33 1.3v10.56a2.6 2.6 0 0 1-.59 1.89 2.8 2.8 0 0 1-2.05.62h-5.23a2.86 2.86 0 0 1-2.08-.62M298.85 104.35a9.27 9.27 0 0 1-2.42-6.8v-5.5h-1.41a2.46 2.46 0 0 1-1.91-.59 2.94 2.94 0 0 1-.51-1.92v-2a2.94 2.94 0 0 1 .51-1.92 2.46 2.46 0 0 1 1.91-.59h1.41v-.48a5.2 5.2 0 0 1 .57-2.31c.38-.78.91-1.74 1.59-2.89a3.16 3.16 0 0 1 .92-1.1 3.6 3.6 0 0 1 1.63-.26h3.17a3 3 0 0 1 2.09.59 2.67 2.67 0 0 1 .59 1.92v4.53h2.64a2.5 2.5 0 0 1 1.92.59 3 3 0 0 1 .5 1.92v2a3 3 0 0 1-.5 1.92 2.5 2.5 0 0 1-1.92.59h-2.64v5.32a2.34 2.34 0 0 0 .42 1.52 1.64 1.64 0 0 0 1.34.51 2.9 2.9 0 0 0 1-.13 9 9 0 0 0 .92-.53 1.4 1.4 0 0 1 .75-.27 1 1 0 0 1 .88.62l2.07 3.56a2.6 2.6 0 0 1 .4 1.15 1 1 0 0 1-.53.83 13 13 0 0 1-3.63 1.61 18.3 18.3 0 0 1-4.82.55c-3.02 0-5.33-.81-6.94-2.44" class="cls-1"/><path d="M319.69 105.4a10.1 10.1 0 0 1-4.51-3.91 12.23 12.23 0 0 1 0-11.88 10 10 0 0 1 4.51-3.9 16.8 16.8 0 0 1 7.06-1.36q6.19 0 9.68 3a10.33 10.33 0 0 1 3.47 8.21 11.06 11.06 0 0 1-1.56 5.92 10.25 10.25 0 0 1-4.51 3.91 18.68 18.68 0 0 1-14.14 0Zm9.7-9.83a4.8 4.8 0 0 0-.68-2.9 2.33 2.33 0 0 0-2-.88 2.27 2.27 0 0 0-1.94.88 4.9 4.9 0 0 0-.66 2.9q0 3.82 2.6 3.83t2.68-3.83M341.09 104.41c-.64-.35-1-.7-1-1a1.5 1.5 0 0 1 .27-.75l2.15-3.87a.9.9 0 0 1 .75-.53 2.1 2.1 0 0 1 .88.26 17.6 17.6 0 0 0 3.08 1.17 12 12 0 0 0 3.3.55 3.7 3.7 0 0 0 1.28-.15.54.54 0 0 0 .35-.51c0-.23-.21-.44-.64-.62a22 22 0 0 0-2.13-.66l-.86-.24q-.42-.11-.81-.24a13.7 13.7 0 0 1-5.22-2.53 5.12 5.12 0 0 1-1.56-4 5.69 5.69 0 0 1 2.9-5.13 15 15 0 0 1 7.88-1.78 23.4 23.4 0 0 1 5.26.51 18 18 0 0 1 4.29 1.6c.61.35.92.72.92 1.1a2 2 0 0 1-.35.93l-2.11 3.34c-.24.35-.46.53-.66.53a3.6 3.6 0 0 1-.84-.31 12.4 12.4 0 0 0-2.33-.81 10 10 0 0 0-2.42-.33c-1.58 0-2.38.26-2.38.79 0 .23.26.44.77.61s1.39.41 2.62.71c1.61.38 2.73.67 3.35.88a12.6 12.6 0 0 1 3 1.45 4.1 4.1 0 0 1 1.48 1.74 6.9 6.9 0 0 1 .41 2.57 5.85 5.85 0 0 1-1.21 3.57 8.1 8.1 0 0 1-3.69 2.59 16.9 16.9 0 0 1-6.14 1 21.8 21.8 0 0 1-10.59-2.44" class="cls-1"/></svg>