<svg xmlns="http://www.w3.org/2000/svg" xml:space="preserve" viewBox="0 0 1222 500"><style>.st0{fill:none}.st1{fill:#1a3060}.st2{fill:#004f69}.st3{fill:#1f3642}.st4{fill:#a9bdda}.st6{fill:#74c475}.st8{fill:#3fc1ff}.st9{fill:#fff}.st10{fill:#38b1e0}.st11{fill:#3097b7}.st14{fill:#fcc083}.st17{fill:#a14329}.st19{fill:#505050}.st20{fill:#53c2c9}.st21{fill:#ff9c48}.st22{fill:#d18622}.st23{fill:#33768a}.st33{fill:#b8c0dd}.st34{fill:#1749ff}.st36{fill:#b9dbd5}.st37{fill:#1c278c}</style><g id="Capa_1"><path d="M904.45 229.72h86.05v1.2h-86.05zM389.27 232.17h4.53z" class="st0"/><path d="M294.5 230.55q-1.5-1.47-1.5-4.29c0-1.89.49-3.33 1.46-4.3s2.36-1.46 4.16-1.46c.78 0 1.49.08 2.12.25s1.16.4 1.59.71c.11.08.17.17.17.29 0 .08-.04.19-.11.34l-.66 1.18q-.09.21-.24.21c-.06 0-.16-.04-.31-.11-.61-.36-1.33-.54-2.15-.54q-1.425 0-2.19.87c-.51.58-.77 1.43-.77 2.56s.27 1.98.82 2.56 1.3.88 2.24.88c.83 0 1.57-.18 2.21-.54.14-.08.24-.11.31-.11.09 0 .17.06.24.19l.69 1.25c.06.11.09.21.09.29 0 .1-.06.19-.18.29-.85.63-2.12.94-3.79.94-1.8.01-3.2-.48-4.2-1.46M302.99 231.48c0-.09.03-.19.08-.32l3.88-9.87c.08-.21.17-.35.27-.43s.24-.12.44-.12h1.39c.19 0 .34.04.44.12s.19.22.27.43l3.88 9.87c.05.13.08.23.08.31 0 .1-.03.17-.08.23-.06.05-.14.08-.24.08H311c-.14 0-.25-.03-.34-.09a.63.63 0 0 1-.2-.3l-.53-1.56h-3.21l-.52 1.56c-.05.14-.12.24-.2.3s-.2.09-.35.09h-2.35c-.21-.01-.31-.11-.31-.3m6.27-3.86-.93-2.76-.93 2.76zM314.87 231.58c-.12-.13-.18-.34-.18-.62v-9.41c0-.28.06-.49.18-.62s.33-.19.63-.19h1.21c.18 0 .33.03.44.08s.21.16.31.32l3.53 5.39v-4.97q0-.42.18-.63c.18-.21.33-.2.61-.2h1.48c.3 0 .5.07.63.2s.18.34.18.63v9.41c0 .28-.06.48-.18.61s-.33.19-.63.19h-1.21c-.19 0-.34-.02-.44-.07s-.2-.15-.31-.32l-3.53-5.39v4.98c0 .28-.06.48-.18.61s-.33.19-.63.19h-1.48c-.29 0-.49-.06-.61-.19M325.07 231.48c0-.09.03-.19.08-.32l3.88-9.87c.08-.21.17-.35.27-.43s.24-.12.44-.12h1.39c.19 0 .34.04.44.12s.19.22.27.43l3.88 9.87c.05.13.08.23.08.31 0 .1-.03.17-.08.23-.06.05-.14.08-.24.08h-2.37c-.14 0-.25-.03-.34-.09a.63.63 0 0 1-.2-.3l-.53-1.56h-3.21l-.52 1.56c-.05.14-.12.24-.2.3s-.2.09-.35.09h-2.35c-.23-.01-.34-.11-.34-.3m6.28-3.86-.93-2.76-.93 2.76zM336.96 231.58c-.12-.13-.18-.34-.18-.62v-9.4q0-.42.18-.63c.12-.14.33-.2.61-.2h1.48c.3 0 .5.07.63.2s.18.34.18.63v7.86h3.94c.28 0 .48.06.58.19q.15.18.15.63v.75c0 .28-.05.48-.15.61-.1.12-.3.19-.58.19h-6.23c-.29-.02-.49-.08-.61-.21M345.19 231.58c-.12-.13-.18-.34-.18-.62v-9.4q0-.42.18-.63c.12-.14.33-.2.61-.2h6.33c.28 0 .48.06.58.19q.15.18.15.63v.75q0 .435-.15.63c-.1.12-.3.19-.58.19h-4.05v1.98h2.67c.28 0 .48.06.59.19.11.12.16.33.16.62v.71c0 .29-.05.5-.16.63-.11.12-.3.19-.59.19h-2.67v2h4.03c.29 0 .48.06.58.19q.15.18.15.63v.75c0 .28-.05.48-.15.61s-.29.19-.58.19h-6.32c-.28-.04-.49-.1-.6-.23M355.53 231.73c-.76-.19-1.38-.46-1.85-.8-.17-.12-.26-.24-.26-.37 0-.09.03-.18.09-.28l.75-1.27c.08-.13.16-.19.24-.19.05 0 .14.04.26.11.38.23.8.41 1.28.55s.95.21 1.42.21c.48 0 .83-.08 1.06-.23s.34-.4.34-.73c0-.32-.13-.58-.37-.76-.25-.18-.72-.42-1.4-.7-1.03-.41-1.83-.87-2.4-1.39-.57-.51-.86-1.21-.86-2.1 0-1.07.36-1.89 1.08-2.45q1.08-.84 2.88-.84c.83 0 1.55.08 2.15.24s1.1.4 1.52.72c.17.14.26.27.26.39 0 .08-.03.16-.09.26l-.75 1.27c-.09.13-.17.19-.24.19-.05 0-.14-.04-.26-.11-.59-.41-1.29-.62-2.11-.62-.44 0-.77.08-1.01.23-.23.15-.35.4-.35.75 0 .24.06.43.18.58s.29.28.5.4c.21.11.53.26.97.43l.29.11c.75.31 1.35.61 1.78.9s.76.64.98 1.06.34.94.34 1.57q0 1.44-1.02 2.31c-.68.57-1.67.86-2.98.86-.85-.01-1.66-.11-2.42-.3M368.17 231.58c-.12-.13-.18-.34-.18-.62v-9.4q0-.42.18-.63c.12-.14.33-.2.61-.2h3.36c1.75 0 3.08.45 3.99 1.34s1.37 2.29 1.37 4.18c0 1.85-.46 3.23-1.37 4.15-.92.91-2.24 1.37-3.98 1.37h-3.36c-.29 0-.5-.06-.62-.19m4.12-2.16c.73 0 1.27-.24 1.63-.71s.53-1.29.53-2.46-.18-1.99-.53-2.45-.89-.7-1.63-.7h-1.21v6.31h1.21zM378.69 231.58c-.12-.13-.18-.34-.18-.62v-9.4q0-.42.18-.63c.12-.14.33-.2.61-.2h6.33c.28 0 .48.06.58.19q.15.18.15.63v.75q0 .435-.15.63c-.1.12-.3.19-.58.19h-4.05v1.98h2.67c.28 0 .48.06.59.19.11.12.16.33.16.62v.71c0 .29-.05.5-.16.63-.11.12-.3.19-.59.19h-2.67v2h4.03c.29 0 .48.06.58.19q.15.18.15.63v.75c0 .28-.05.48-.15.61s-.29.19-.58.19h-6.32c-.28-.04-.48-.1-.6-.23M304.86 250.96c0-.09.03-.19.08-.32l3.88-9.87c.08-.21.17-.35.27-.43s.24-.12.44-.12h1.39c.19 0 .34.04.44.12s.19.22.27.43l3.88 9.87c.05.13.08.23.08.31 0 .1-.03.17-.08.23-.06.05-.14.08-.24.08h-2.37c-.14 0-.25-.03-.34-.09a.63.63 0 0 1-.2-.3l-.53-1.56h-3.21l-.52 1.56c-.05.14-.12.24-.2.3s-.2.09-.35.09h-2.35c-.24-.01-.34-.11-.34-.3m6.27-3.87-.93-2.76-.93 2.76zM317.31 251.05c-.12-.13-.18-.33-.18-.62v-7.86h-2.35c-.28 0-.48-.06-.58-.19s-.15-.33-.15-.61v-.76c0-.28.05-.49.15-.62s.3-.19.58-.19h7.8c.29 0 .48.06.59.19s.16.34.16.62v.76c0 .28-.05.48-.16.61s-.3.19-.59.19h-2.35v7.86c0 .28-.06.49-.18.62s-.33.2-.63.2h-1.48c-.3 0-.5-.06-.63-.2M324.21 251.05c-.12-.13-.18-.33-.18-.62v-9.4q0-.42.18-.63c.12-.14.33-.2.61-.2h6.33c.28 0 .48.06.58.19q.15.18.15.63v.75q0 .435-.15.63c-.1.12-.3.19-.58.19h-4.05v1.98h2.67c.28 0 .48.06.59.19.11.12.16.33.16.62v.71c0 .29-.05.5-.16.63-.11.12-.3.19-.59.19h-2.67v2h4.03c.29 0 .48.06.58.19q.15.18.15.63v.75c0 .28-.05.48-.15.61-.1.12-.29.19-.58.19h-6.32c-.28-.03-.49-.09-.6-.23M332.92 251.05c-.12-.13-.18-.33-.18-.62v-9.41c0-.28.06-.49.18-.62s.33-.19.63-.19h1.21c.18 0 .33.03.44.08s.21.16.31.32l3.53 5.39v-4.97q0-.42.18-.63c.18-.21.33-.2.61-.2h1.48c.3 0 .5.07.63.2s.18.34.18.63v9.41c0 .28-.06.48-.18.61-.12.12-.33.19-.63.19h-1.21c-.19 0-.34-.02-.44-.07s-.2-.15-.31-.32l-3.53-5.39v4.98c0 .28-.06.48-.18.61-.12.12-.33.19-.63.19h-1.48c-.29.01-.49-.05-.61-.19M344.62 250.02q-1.5-1.47-1.5-4.29c0-1.89.49-3.33 1.46-4.3s2.36-1.46 4.16-1.46c.78 0 1.49.08 2.12.25s1.16.4 1.59.71c.11.08.17.17.17.29 0 .08-.04.19-.11.34l-.66 1.18q-.09.21-.24.21c-.06 0-.16-.04-.31-.11-.61-.36-1.33-.54-2.15-.54q-1.425 0-2.19.87c-.51.58-.77 1.43-.77 2.56s.27 1.98.82 2.56 1.3.88 2.24.88c.83 0 1.57-.18 2.21-.54.14-.08.24-.11.31-.11.09 0 .17.06.24.19l.69 1.25c.06.11.09.21.09.29 0 .1-.06.19-.18.29-.85.63-2.12.94-3.79.94-1.8.01-3.2-.48-4.2-1.46M353.97 251.05c-.12-.13-.18-.33-.18-.62v-9.4q0-.42.18-.63c.12-.14.33-.2.61-.2h1.48c.3 0 .5.07.63.2s.18.34.18.63v9.4c0 .28-.06.49-.18.62s-.33.2-.63.2h-1.48c-.29 0-.49-.06-.61-.2M359.27 249.99q-1.38-1.5-1.38-4.26t1.38-4.26c1.38-1.5 2.27-1.5 4.04-1.5s3.12.5 4.04 1.5q1.38 1.5 1.38 4.26t-1.38 4.26c-.92 1-2.27 1.5-4.04 1.5s-3.12-.5-4.04-1.5m5.81-1.68q.57-.855.57-2.58c0-1.14-.19-1.99-.57-2.56s-.97-.86-1.78-.86c-.8 0-1.4.29-1.78.86s-.57 1.43-.57 2.56q0 1.725.57 2.58c.38.57.97.86 1.78.86s1.4-.28 1.78-.86m-3.15-9.49c0-.09.02-.17.05-.24l.67-1.96c.07-.22.15-.36.25-.44s.28-.11.54-.11h1.83c.18 0 .33.04.44.11s.16.17.16.3c0 .12-.04.24-.11.36l-.99 1.87c-.12.22-.24.36-.35.43s-.32.11-.61.11h-1.36c-.35-.03-.52-.16-.52-.43M369.91 251.05c-.12-.13-.18-.33-.18-.62v-9.41c0-.28.06-.49.18-.62s.33-.19.63-.19h1.21c.18 0 .33.03.44.08s.21.16.31.32l3.53 5.39v-4.97q0-.42.18-.63c.18-.21.33-.2.61-.2h1.48c.3 0 .5.07.63.2s.18.34.18.63v9.41c0 .28-.06.48-.18.61-.12.12-.33.19-.63.19h-1.21c-.19 0-.34-.02-.44-.07s-.2-.15-.31-.32l-3.53-5.39v4.98c0 .28-.06.48-.18.61-.12.12-.33.19-.63.19h-1.48c-.29.01-.5-.05-.61-.19" class="st1"/><path d="M340.96 135.5c-52.2 0-94.52 45-94.52 100.51s42.32 100.51 94.52 100.51 94.52-45 94.52-100.51-42.32-100.51-94.52-100.51m-.59 179.79c-41.5 0-75.15-35.78-75.15-79.91s33.65-79.91 75.15-79.91 75.15 35.78 75.15 79.91c0 44.14-33.64 79.91-75.15 79.91" class="st2"/><ellipse cx="646.32" cy="229.24" class="st3" rx="50.42" ry="24.08"/><path d="M601.78 240.54c.89.8 1.88 1.58 2.95 2.32-2.61-7.99-3.74-16.86-3.47-24.45-.82.78-1.56 1.59-2.21 2.41.03 6.26.92 13.17 2.73 19.72M693.57 220.81c-.65-.83-1.39-1.63-2.22-2.42.42 7.66-1.02 16.68-3.9 24.78 1.12-.75 2.15-1.53 3.08-2.34 2.02-6.68 3.07-13.7 3.04-20.02M660.02 263.35c-9.34-1.38-18.82-1.59-28.23-.62-21.66 2.24-29.36-32.26-26.28-49.62 1.57-8.85 10.85-15.2 18.69-17.17 14.2-3.57 29.36-3.8 43.64-.61 7.66 1.73 15.23 7.26 18.21 15.2 6.23 16.59-4.87 55.94-26.03 52.82" class="st4"/><path d="M686.05 210.54c-1.47-3.92-4.07-7.26-7.24-9.84a22 22 0 0 1 2.62 4.92c6.23 16.59-4.87 55.93-26.03 52.81-9.34-1.38-18.82-1.59-28.23-.62-5.14.53-9.49-1.01-13.1-3.89 4.3 5.89 10.16 9.59 17.73 8.81 9.42-.97 18.89-.76 28.23.62 21.15 3.12 32.25-36.23 26.02-52.81" style="opacity:.46;fill:#a6b4bc"/><path d="M667.01 247.17c-3.61 1.49-7.47 2.4-11.03 2.92-11.33 1.65-24.93.79-34.86-5.75-4.46-2.94-7.92-7.32-8.76-12.95-.07-.45-.14-.91-.2-1.36-1.6-10.76 5.79-20.63 16-21.47 12.31-1.02 24.68-1.02 37 0 10.21.84 17.6 10.72 16 21.47-.06.43-.13.85-.19 1.28-1.23 8.16-7.14 13.04-13.96 15.86" class="st3"/><path d="M656.2 239.34c0 2.08-4.06 5.69-9.07 5.69s-9.07-3.61-9.07-5.69 4.06-1.83 9.07-1.83c5.01-.01 9.07-.25 9.07 1.83M634.07 226.21c0 1.71-1.31 3.1-2.92 3.1s-2.92-1.39-2.92-3.1 1.31-3.1 2.92-3.1c1.62-.01 2.92 1.38 2.92 3.1M664.37 225.21c0 1.71-1.31 3.1-2.92 3.1s-2.92-1.39-2.92-3.1 1.31-3.1 2.92-3.1 2.92 1.39 2.92 3.1" class="st6"/><path d="m645.32 195.86 1.02.02.09-4.98 4.63-1.53-6.5-2.11 1.96-1.1.09-5.29-1.01-.02-.09 4.65-3.6 2.02 5.71 1.86-2.19.72zM643.95 178.47c-.02 1.29.94 2.36 2.15 2.38 1.21.03 2.22-1 2.24-2.29s-.94-2.36-2.15-2.38-2.22 1-2.24 2.29"/><path d="M640.75 197.34c-.03 1.54 2.44 2.85 5.52 2.91 3.07.06 5.59-1.14 5.62-2.68s-2.44-2.85-5.52-2.91c-3.07-.06-5.59 1.14-5.62 2.68" style="fill:#221f21"/></g><path id="Capa_2" d="M638.77 377.83c-73.29 0-132.84-59.15-134.07-132.58h-10.4c1.84 79.96 66.85 144.21 146.78 144.21s144.93-64.25 146.78-144.21h-15.01c-1.25 73.43-60.79 132.58-134.08 132.58" class="st8"/><g id="Capa_22"><path d="m714.7 305.29 57.33 60.96c32.74-33.12 53.89-79.05 56.34-130.25h-81.23c-2.38 27.37-14.4 51.76-32.44 69.29" class="st8"/><path d="M748.81 294.19h-2.13v-6.02l-1.55 3.88h-1.46l-1.55-3.88v6.02h-2.02v-9.08h2.47l1.89 4.48 1.89-4.48h2.47v9.08zM749.66 294.19l2.88-9.08h2.34l2.88 9.08h-2.21l-.53-1.85h-2.68l-.53 1.85zm4.9-3.5-.87-2.99-.87 2.99zM766.51 294.19h-2.61l-2.38-3.33h-.77v3.33h-2.13v-9.08h3.43c.47 0 .89.03 1.24.09s.68.19.97.39c.31.21.55.47.73.79s.27.72.27 1.22c0 .69-.15 1.26-.44 1.69s-.69.78-1.18 1.03zm-3.45-6.3c0-.23-.04-.42-.12-.59s-.22-.29-.41-.38q-.195-.09-.45-.12c-.16-.02-.37-.02-.61-.02h-.72v2.44h.61c.3 0 .55-.02.76-.06s.38-.12.53-.25c.14-.11.24-.25.31-.41s.1-.35.1-.61M774.62 294.19h-2.59l-2.33-3.69-.42.62v3.07h-2.14v-9.08h2.14v4.03l2.73-4.03h2.48l-3.04 4.21zM775.32 294.19v-9.08h5.77v1.73h-3.64v1.59h3.35v1.73h-3.35v2.29h3.64v1.73h-5.77zM784.18 294.19v-7.35h-2.52v-1.73h7.19v1.73h-2.52v7.35zM793.98 294.19h-4.6v-1.58h1.23v-5.91h-1.23v-1.59h4.6v1.59h-1.23v5.91h1.23zM802.72 294.19h-2.06l-3.29-6.33v6.33h-1.96v-9.08h2.63l2.72 5.2v-5.2h1.96zM811.59 293.67c-.37.16-.86.32-1.46.48s-1.19.23-1.77.23c-1.34 0-2.41-.41-3.21-1.24-.8-.82-1.2-1.99-1.2-3.5q0-2.13 1.2-3.42t3.27-1.29c.71 0 1.3.07 1.74.22s.91.34 1.39.59v2.13h-.19c-.1-.08-.25-.21-.44-.36a3.916 3.916 0 0 0-1.3-.74c-.28-.09-.58-.14-.89-.14-.37 0-.7.06-1 .18s-.57.31-.81.56c-.23.24-.4.55-.54.93-.13.37-.2.81-.2 1.3 0 1.06.25 1.84.75 2.35.5.5 1.19.76 2.05.76.08 0 .17 0 .27-.01s.19-.01.27-.02v-1.78h-1.66v-1.7h3.73z" class="st9"/></g><g id="Capa_23"><path d="M747.58 218.01c0 3.37-.16 6.7-.45 9.99h81.23q.24-4.965.24-9.99c0-50.74-18.37-96.91-48.42-131.43L722.8 147.6c15.42 18.85 24.78 43.46 24.78 70.41" class="st10"/><path d="m742.57 177.57 2.31-7.26h1.87l2.31 7.26h-1.77l-.43-1.48h-2.15l-.43 1.48zm3.92-2.8-.7-2.4-.7 2.4zM752.5 177.72c-.92 0-1.62-.24-2.12-.71-.49-.47-.74-1.16-.74-2.07v-4.64h1.72v4.53c0 .5.09.88.27 1.13s.47.37.87.37q.585 0 .87-.36c.285-.36.28-.62.28-1.14v-4.53h1.72v4.63c0 .89-.24 1.58-.72 2.06-.49.49-1.21.73-2.15.73M757.99 177.57v-5.88h-2.02v-1.39h5.75v1.39h-2.02v5.88zM762.43 177.57v-7.26h4.62v1.39h-2.91v1.27h2.68v1.39h-2.68v1.83h2.91v1.39h-4.62zM774.06 177.57h-1.65l-2.63-5.06v5.06h-1.57v-7.26h2.1l2.18 4.16v-4.16h1.57zM776.76 177.57v-5.88h-2.02v-1.39h5.75v1.39h-2.02v5.88zM784.6 177.57h-3.68v-1.27h.98v-4.73h-.98v-1.27h3.68v1.27h-.98v4.73h.98zM788.68 177.71c-1.02 0-1.84-.33-2.44-.99s-.9-1.58-.9-2.78c0-1.15.3-2.07.91-2.75.6-.68 1.42-1.03 2.44-1.03.27 0 .52.02.73.05.22.03.42.08.62.14a5.944 5.944 0 0 1 .95.42v1.73h-.17c-.08-.08-.19-.17-.31-.28a3.281 3.281 0 0 0-.96-.59c-.19-.07-.39-.11-.6-.11-.25 0-.47.04-.68.12s-.4.23-.59.43q-.255.285-.42.75c-.11.32-.16.69-.16 1.12 0 .45.06.83.17 1.14s.26.56.44.74.38.31.59.4c.22.08.44.12.65.12.23 0 .44-.04.65-.12.2-.08.38-.17.52-.27.15-.1.29-.2.4-.31.12-.1.22-.2.3-.28h.18v1.71c-.13.06-.27.13-.44.21s-.33.15-.51.2c-.21.07-.41.12-.6.16-.18.05-.44.07-.77.07M791.28 177.57l2.31-7.26h1.87l2.31 7.26H796l-.43-1.48h-2.15l-.43 1.48zm3.91-2.8-.7-2.4-.7 2.4zM801.38 177.71c-1.02 0-1.84-.33-2.44-.99s-.9-1.58-.9-2.78c0-1.15.3-2.07.91-2.75.6-.68 1.42-1.03 2.44-1.03.27 0 .52.02.73.05.22.03.42.08.62.14a5.944 5.944 0 0 1 .95.42v1.73h-.17c-.08-.08-.19-.17-.31-.28a3.281 3.281 0 0 0-.96-.59c-.19-.07-.39-.11-.6-.11-.25 0-.47.04-.68.12s-.4.23-.59.43q-.255.285-.42.75c-.11.32-.16.69-.16 1.12 0 .45.06.83.17 1.14s.26.56.44.74.38.31.59.4c.22.08.44.12.65.12.23 0 .44-.04.65-.12.2-.08.38-.17.52-.27.15-.1.29-.2.4-.31.12-.1.22-.2.3-.28h.16v1.71c-.13.06-.27.13-.44.21s-.33.15-.51.2c-.21.07-.41.12-.6.16-.16.05-.42.07-.75.07M808.11 177.57h-3.68v-1.27h.98v-4.73h-.98v-1.27h3.68v1.27h-.98v4.73h.98zM815.47 173.94c0 1.17-.29 2.1-.89 2.77-.59.67-1.4 1.01-2.43 1.01q-1.545 0-2.43-1.02c-.885-1.02-.88-1.6-.88-2.76 0-1.17.29-2.09.88-2.77s1.4-1.02 2.43-1.02 1.84.34 2.43 1.01c.6.68.89 1.6.89 2.78m-1.77-.01c0-.43-.04-.8-.13-1.1-.08-.3-.2-.55-.34-.75-.15-.2-.31-.34-.5-.43-.18-.09-.38-.13-.58-.13q-.315 0-.57.12c-.17.08-.34.22-.5.43-.14.19-.25.44-.34.75s-.13.68-.13 1.12c0 .45.04.81.12 1.11s.2.54.34.74c.15.2.31.35.5.43a1.33 1.33 0 0 0 1.17-.01c.19-.09.35-.24.49-.43.15-.21.26-.46.34-.74s.13-.65.13-1.11m-.13-6.36-1.38 1.92h-1.09l.95-1.92zM822.34 177.57h-1.65l-2.63-5.06v5.06h-1.57v-7.26h2.1l2.18 4.16v-4.16h1.57z" class="st9"/></g><g id="Capa_24"><path d="m722.03 146.11 57.38-61.01c-33-37.9-80.08-61.73-132.41-62.09v86.17c29.95.37 56.75 14.59 75.03 36.93" class="st11"/><path d="m656.59 78.69 2.6-8.17h2.11l2.6 8.17h-1.99l-.48-1.67H659l-.48 1.67zm4.41-3.14-.78-2.69-.78 2.69zM671.07 78.23c-.34.15-.77.29-1.31.43q-.81.21-1.59.21c-1.21 0-2.17-.37-2.89-1.11q-1.08-1.11-1.08-3.15c0-1.28.36-2.31 1.08-3.08s1.7-1.16 2.94-1.16c.64 0 1.17.06 1.57.19s.82.31 1.25.53V73h-.18c-.09-.08-.23-.19-.4-.33q-.255-.21-.51-.36a3 3 0 0 0-.67-.3c-.25-.08-.52-.13-.8-.13-.33 0-.63.05-.9.16s-.51.28-.73.5c-.2.22-.36.5-.48.83s-.18.73-.18 1.17c0 .95.23 1.66.68 2.11s1.07.68 1.85.68c.07 0 .15 0 .24-.01.09 0 .17-.01.24-.02v-1.6h-1.49v-1.53h3.36zM672.52 78.69v-8.17h5.2v1.56h-3.28v1.43h3.02v1.56h-3.02v2.06h3.28v1.56zM685.61 78.69h-1.86l-2.96-5.7v5.7h-1.77v-8.17h2.37l2.45 4.68v-4.68h1.76v8.17zM694.03 74.62c0 .76-.16 1.44-.47 2.04s-.71 1.06-1.19 1.39c-.4.27-.83.45-1.3.53q-.705.12-1.5.12h-2.4v-8.17h2.38c.54 0 1.05.04 1.52.11s.91.25 1.33.53c.51.34.9.81 1.2 1.39.28.58.43 1.27.43 2.06m-1.98-.02c0-.54-.09-1-.26-1.38s-.44-.68-.8-.9c-.26-.15-.54-.24-.82-.25s-.63-.02-1.03-.02h-.04v5.11h.04c.43 0 .8-.01 1.1-.02.3-.02.58-.11.85-.29.32-.21.56-.5.72-.88s.24-.83.24-1.37M694.34 78.69l2.6-8.17h2.11l2.6 8.17h-1.99l-.48-1.67h-2.42l-.48 1.67zm4.41-3.14-.78-2.69-.78 2.69zM710.25 78.69h-1.92v-5.42l-1.4 3.5h-1.32l-1.4-3.5v5.42h-1.82v-8.17h2.22l1.7 4.03 1.7-4.03h2.22v8.17zM715.67 78.69h-4.14v-1.43h1.1v-5.32h-1.1v-1.43h4.14v1.43h-1.1v5.32h1.1zM716.95 78.69v-8.17h5.2v1.56h-3.28v1.43h3.02v1.56h-3.02v2.06h3.28v1.56zM730.04 78.69h-1.86l-2.96-5.7v5.7h-1.77v-8.17h2.37l2.45 4.68v-4.68h1.76v8.17zM733.07 78.69v-6.61h-2.27v-1.56h6.47v1.56H735v6.61zM745.06 74.61c0 1.32-.33 2.36-1 3.12q-.99 1.14-2.73 1.14c-1.16 0-2.07-.38-2.73-1.15s-.99-1.8-.99-3.1c0-1.31.33-2.35.99-3.11q.99-1.14 2.73-1.14t2.73 1.14c.67.74 1 1.78 1 3.1m-1.99 0c0-.49-.05-.9-.14-1.24s-.22-.62-.38-.84c-.17-.22-.35-.38-.56-.48s-.42-.15-.65-.15c-.24 0-.45.04-.65.13-.19.09-.38.25-.56.48-.16.21-.29.49-.38.84q-.15.525-.15 1.26c0 .5.05.92.14 1.25s.22.61.38.83c.17.23.35.39.56.49s.43.15.65.15c.23 0 .45-.05.66-.16.21-.1.4-.27.55-.49.17-.24.29-.51.38-.83.11-.32.15-.73.15-1.24M683.59 88.1c0 .76-.16 1.44-.47 2.04s-.71 1.06-1.19 1.39c-.4.27-.83.45-1.3.53q-.705.12-1.5.12h-2.4v-8.17h2.38c.54 0 1.05.04 1.52.11s.91.25 1.33.53c.51.34.9.81 1.2 1.39.28.59.43 1.27.43 2.06m-1.98-.01c0-.54-.09-1-.26-1.38s-.44-.68-.8-.9c-.26-.15-.54-.24-.82-.25s-.63-.02-1.03-.02h-.04v5.11h.04c.43 0 .8-.01 1.1-.02.3-.02.58-.11.85-.29.32-.21.56-.5.72-.88s.24-.84.24-1.37M684.73 92.18v-8.17h5.2v1.56h-3.28V87h3.02v1.56h-3.02v2.06h3.28v1.56zM697.64 92.34c-1.15 0-2.07-.37-2.75-1.11s-1.02-1.78-1.02-3.12c0-1.29.34-2.33 1.02-3.1s1.6-1.15 2.75-1.15c.31 0 .58.02.83.05.24.04.48.09.7.15.18.05.37.13.57.23.21.1.37.18.5.25v1.95h-.2c-.09-.09-.21-.19-.35-.32q-.21-.18-.48-.36c-.18-.12-.38-.22-.59-.3-.22-.08-.44-.12-.67-.12-.28 0-.53.05-.77.14-.23.09-.45.25-.66.49-.19.21-.35.49-.47.85q-.18.525-.18 1.26c0 .51.06.94.19 1.28.13.35.29.62.5.84.2.2.42.35.67.44s.49.14.74.14.5-.04.73-.13.42-.19.58-.3c.17-.11.32-.23.45-.35s.24-.22.34-.31h.18v1.92c-.14.07-.3.15-.49.24s-.38.17-.57.23c-.24.08-.47.14-.68.18-.21.01-.5.03-.87.03M705.21 92.18h-4.14v-1.43h1.1v-5.32h-1.1V84h4.14v1.43h-1.1v5.32h1.1zM707.97 92.18v-6.61h-2.27v-1.56h6.47v1.56h-2.27v6.61zM712.14 92.18l2.6-8.17h2.11l2.6 8.17h-1.99l-.48-1.67h-2.42l-.48 1.67zm4.4-3.15-.78-2.69-.78 2.69zM722.57 92.33c-.59 0-1.11-.06-1.55-.18-.45-.12-.86-.27-1.24-.45v-1.94h.18c.39.35.81.61 1.27.8s.92.28 1.35.28c.11 0 .26-.01.44-.04s.33-.07.44-.12c.13-.06.25-.15.34-.26s.14-.26.14-.44c0-.21-.08-.37-.23-.5a1.4 1.4 0 0 0-.54-.28q-.39-.105-.84-.21c-.3-.07-.58-.15-.83-.24-.6-.22-1.02-.52-1.28-.9s-.39-.85-.39-1.42c0-.76.3-1.38.91-1.86s1.37-.71 2.28-.71c.46 0 .91.05 1.36.15s.86.23 1.22.4v1.87h-.17c-.29-.26-.63-.48-1.04-.66s-.83-.27-1.27-.27c-.17 0-.32.01-.45.04s-.28.08-.42.15c-.12.06-.22.15-.31.26s-.13.24-.13.39c0 .21.07.37.21.5q.21.18.81.33.39.09.75.18c.24.06.49.14.77.24.53.21.93.48 1.19.83s.39.8.39 1.37c0 .81-.3 1.46-.9 1.96-.63.48-1.44.73-2.46.73" class="st9"/></g><g id="Capa_25"><path d="M642.83 109.15c.39 0 .78.03 1.17.03V23.02c-.39 0-.78-.02-1.17-.02-51.9 0-98.73 23.1-131.88 60.16l57.33 60.96c18.45-21.49 45.02-34.97 74.55-34.97" class="st11"/><path d="M549.86 69.62c0 .76-.16 1.44-.47 2.04s-.71 1.06-1.19 1.39c-.4.27-.83.45-1.3.53q-.705.12-1.5.12H543v-8.17h2.38c.54 0 1.05.04 1.52.11s.91.25 1.33.53c.51.34.9.81 1.2 1.39.29.59.43 1.27.43 2.06m-1.98-.01c0-.54-.09-1-.26-1.38s-.44-.68-.8-.9c-.26-.15-.54-.24-.82-.25s-.63-.02-1.03-.02h-.04v5.11h.04c.43 0 .8-.01 1.1-.02.3-.02.58-.11.85-.29.32-.21.56-.5.72-.88s.24-.84.24-1.37M554.83 73.7h-4.14v-1.43h1.1v-5.32h-1.1v-1.43h4.14v1.43h-1.1v5.32h1.1zM562.53 73.23c-.34.15-.77.29-1.31.43q-.81.21-1.59.21c-1.21 0-2.17-.37-2.89-1.11q-1.08-1.11-1.08-3.15c0-1.28.36-2.31 1.08-3.08s1.7-1.16 2.94-1.16c.64 0 1.17.06 1.57.19s.82.31 1.25.53v1.92h-.18c-.09-.08-.23-.19-.4-.33q-.255-.21-.51-.36a3 3 0 0 0-.67-.3c-.25-.08-.52-.13-.8-.13-.33 0-.63.05-.9.16s-.51.28-.73.5c-.2.22-.36.5-.48.83s-.18.73-.18 1.17c0 .95.23 1.66.68 2.11s1.07.68 1.85.68c.07 0 .15 0 .24-.01.09 0 .17-.01.24-.02v-1.6h-1.49v-1.53h3.36zM567.82 73.7h-4.14v-1.43h1.1v-5.32h-1.1v-1.43h4.14v1.43h-1.1v5.32h1.1zM570.57 73.7v-6.61h-2.27v-1.56h6.47v1.56h-2.27v6.61zM574.74 73.7l2.6-8.17h2.11l2.6 8.17h-1.99l-.48-1.67h-2.42l-.48 1.67zm4.41-3.15-.78-2.69-.78 2.69zM587.93 73.7h-5.13v-8.17h1.93v6.61h3.2zM592.68 73.7h-4.14v-1.43h1.1v-5.32h-1.1v-1.43h4.14v1.43h-1.1v5.32h1.1zM599.53 73.7h-6.09v-1.53l3.53-5.08h-3.35v-1.56h5.7v1.56l-3.53 5.05h3.74zM599.71 73.7l2.6-8.17h2.11l2.6 8.17h-1.99l-.48-1.67h-2.42l-.48 1.67zm4.41-3.15-.78-2.69-.78 2.69zM611.08 73.86c-1.15 0-2.07-.37-2.75-1.11s-1.02-1.78-1.02-3.12c0-1.29.34-2.33 1.02-3.1s1.6-1.15 2.75-1.15c.31 0 .58.02.83.05.24.04.48.09.7.15.18.05.37.13.57.23.21.1.37.18.5.25V68h-.2c-.09-.09-.21-.19-.35-.32q-.21-.18-.48-.36c-.18-.12-.38-.22-.59-.3-.22-.08-.44-.12-.67-.12-.28 0-.53.05-.77.14-.23.09-.45.25-.66.49-.19.21-.35.49-.47.85q-.18.525-.18 1.26c0 .51.06.94.19 1.28.13.35.29.62.5.84.2.2.42.35.67.44s.49.14.74.14.5-.04.73-.13.42-.19.58-.3c.17-.11.32-.23.45-.35s.24-.22.34-.31h.18v1.92c-.14.07-.3.15-.49.24s-.38.17-.57.23c-.24.08-.47.14-.68.18-.21.02-.5.04-.87.04M618.65 73.7h-4.14v-1.43h1.1v-5.32h-1.1v-1.43h4.14v1.43h-1.1v5.32h1.1zM626.93 69.62c0 1.32-.33 2.36-1 3.12q-.99 1.14-2.73 1.14c-1.16 0-2.07-.38-2.73-1.15s-.99-1.8-.99-3.1c0-1.31.33-2.35.99-3.11q.99-1.14 2.73-1.14t2.73 1.14c.67.74 1 1.78 1 3.1m-1.99-.01c0-.49-.05-.9-.14-1.24s-.22-.62-.38-.84c-.17-.22-.35-.38-.56-.48s-.42-.15-.65-.15c-.24 0-.45.04-.65.13-.19.09-.38.25-.56.48-.16.21-.29.49-.38.84q-.15.525-.15 1.26c0 .5.05.92.14 1.25s.22.61.38.83c.17.23.35.39.56.49s.43.15.65.15c.23 0 .45-.05.66-.16.21-.1.4-.27.55-.49.17-.24.29-.51.38-.83.1-.31.15-.73.15-1.24m-.15-7.15-1.55 2.16h-1.23l1.07-2.16zM634.65 73.7h-1.86l-2.96-5.7v5.7h-1.77v-8.17h2.37l2.45 4.68v-4.68h1.76v8.17zM546.65 87.18h-4.14v-1.43h1.1v-5.32h-1.1V79h4.14v1.43h-1.1v5.32h1.1zM554.52 87.18h-1.86l-2.96-5.7v5.7h-1.77v-8.17h2.37l2.45 4.68v-4.68h1.76v8.17zM557.55 87.18v-6.61h-2.27v-1.56h6.47v1.56h-2.27v6.61zM562.54 87.18v-8.17h5.2v1.56h-3.28V82h3.02v1.56h-3.02v2.06h3.28v1.56zM574.18 87.18h-5.13v-8.17h1.93v6.61h3.2zM578.92 87.18h-4.14v-1.43h1.1v-5.32h-1.1V79h4.14v1.43h-1.1v5.32h1.1zM586.62 86.72c-.34.15-.77.29-1.31.43q-.81.21-1.59.21c-1.21 0-2.17-.37-2.89-1.11q-1.08-1.11-1.08-3.15c0-1.28.36-2.31 1.08-3.08s1.7-1.16 2.94-1.16c.64 0 1.17.06 1.57.19s.82.31 1.25.53v1.92h-.18c-.09-.08-.23-.19-.4-.33q-.255-.21-.51-.36a3 3 0 0 0-.67-.3c-.25-.08-.52-.13-.8-.13-.33 0-.63.05-.9.16s-.51.28-.73.5c-.2.22-.36.5-.48.83s-.18.73-.18 1.17c0 .95.23 1.66.68 2.11s1.07.68 1.85.68c.07 0 .15 0 .24-.01.09 0 .17-.01.24-.02v-1.6h-1.49v-1.5h3.36zM588.08 87.18v-8.17h5.2v1.56H590V82h3.02v1.56H590v2.06h3.28v1.56zM601.16 87.18h-1.86l-2.96-5.7v5.7h-1.77v-8.17h2.37l2.45 4.68v-4.68h1.76v8.17zM604.2 87.18v-6.61h-2.27v-1.56h6.47v1.56h-2.27v6.61zM609.19 87.18v-8.17h5.2v1.56h-3.28V82h3.02v1.56h-3.02v2.06h3.28v1.56zM625.65 83.11c0 .76-.16 1.44-.47 2.04s-.71 1.06-1.19 1.39c-.4.27-.83.45-1.3.53q-.705.12-1.5.12h-2.4v-8.17h2.38c.54 0 1.05.04 1.52.11s.91.25 1.33.53c.51.34.9.81 1.2 1.39.29.58.43 1.27.43 2.06m-1.98-.02c0-.54-.09-1-.26-1.38s-.44-.68-.8-.9c-.26-.15-.54-.24-.82-.25s-.63-.02-1.03-.02h-.04v5.11h.04c.43 0 .8-.01 1.1-.02.3-.02.58-.11.85-.29.32-.21.56-.5.72-.88s.24-.83.24-1.37M626.79 87.18v-8.17h5.2v1.56h-3.28V82h3.02v1.56h-3.02v2.06h3.28v1.56zM558.28 96.59c0 .76-.16 1.44-.47 2.04s-.71 1.06-1.19 1.39c-.4.27-.83.45-1.3.53q-.705.12-1.5.12h-2.4V92.5h2.38c.54 0 1.05.04 1.52.11s.91.25 1.33.53c.51.34.9.81 1.2 1.39.28.59.43 1.27.43 2.06m-1.98-.01c0-.54-.09-1-.26-1.38s-.44-.68-.8-.9c-.26-.15-.54-.24-.82-.25s-.63-.02-1.03-.02h-.04v5.11h.04c.43 0 .8-.01 1.1-.02.3-.02.58-.11.85-.29.32-.21.56-.5.72-.88.15-.38.24-.84.24-1.37M566.42 96.59c0 1.32-.33 2.36-1 3.12q-.99 1.14-2.73 1.14c-1.16 0-2.07-.38-2.73-1.15s-.99-1.8-.99-3.1c0-1.31.33-2.35.99-3.11q.99-1.14 2.73-1.14t2.73 1.14c.66.74 1 1.78 1 3.1m-2-.01c0-.49-.05-.9-.14-1.24s-.22-.62-.38-.84c-.17-.22-.35-.38-.56-.48s-.42-.15-.65-.15c-.24 0-.45.04-.65.13-.19.09-.38.25-.56.48-.16.21-.29.49-.38.84q-.15.525-.15 1.26c0 .5.05.92.14 1.25s.22.61.38.83c.17.23.35.39.56.49s.43.15.65.15c.23 0 .45-.05.66-.16.21-.1.4-.27.55-.49.17-.24.29-.51.38-.83.11-.31.15-.73.15-1.24M570.87 100.83c-1.15 0-2.07-.37-2.75-1.11s-1.02-1.78-1.02-3.12c0-1.29.34-2.33 1.02-3.1s1.6-1.15 2.75-1.15c.31 0 .58.02.83.05.24.04.48.09.7.15.18.05.37.13.57.23.21.1.37.18.5.25v1.95h-.2c-.09-.09-.21-.19-.35-.32q-.21-.18-.48-.36c-.18-.12-.38-.22-.59-.3-.22-.08-.44-.12-.67-.12-.28 0-.53.05-.77.14-.23.09-.45.25-.66.49-.19.21-.35.49-.47.85q-.18.525-.18 1.26c0 .51.06.94.19 1.28.13.35.29.62.5.84.2.2.42.35.67.44s.49.14.74.14.5-.04.73-.13.42-.19.58-.3c.17-.11.32-.23.45-.35s.24-.22.34-.31h.18v1.92c-.14.07-.3.15-.49.24s-.38.17-.57.23c-.24.08-.47.14-.68.18-.21.01-.5.03-.87.03M577.72 100.84c-1.03 0-1.83-.27-2.38-.8s-.83-1.31-.83-2.33V92.5h1.93v5.1c0 .57.1.99.3 1.27s.53.42.98.42c.44 0 .77-.13.98-.4s.31-.7.31-1.28v-5.1h1.93v5.21c0 1.01-.27 1.78-.81 2.32-.55.53-1.35.8-2.41.8M590.27 100.67h-1.92v-5.42l-1.4 3.5h-1.32l-1.4-3.5v5.42h-1.82V92.5h2.22l1.7 4.03 1.7-4.03h2.22v8.17zM591.85 100.67V92.5h5.2v1.56h-3.28v1.43h3.02v1.56h-3.02v2.06h3.28v1.56zM604.94 100.67h-1.86l-2.96-5.7v5.7h-1.77V92.5h2.37l2.45 4.68V92.5h1.76v8.17zM607.97 100.67v-6.61h-2.27V92.5h6.47v1.56h-2.27v6.61zM619.97 96.59c0 1.32-.33 2.36-1 3.12q-.99 1.14-2.73 1.14c-1.16 0-2.07-.38-2.73-1.15s-.99-1.8-.99-3.1c0-1.31.33-2.35.99-3.11q.99-1.14 2.73-1.14t2.73 1.14c.66.74 1 1.78 1 3.1m-2-.01c0-.49-.05-.9-.14-1.24s-.22-.62-.38-.84c-.17-.22-.35-.38-.56-.48s-.42-.15-.65-.15c-.24 0-.45.04-.65.13-.19.09-.38.25-.56.48-.16.21-.29.49-.38.84q-.15.525-.15 1.26c0 .5.05.92.14 1.25s.22.61.38.83c.17.23.35.39.56.49s.43.15.65.15c.23 0 .45-.05.66-.16.21-.1.4-.27.55-.49.17-.24.29-.51.38-.83.11-.31.15-.73.15-1.24M623.48 100.82c-.59 0-1.11-.06-1.55-.18-.45-.12-.86-.27-1.24-.45v-1.94h.18c.39.35.81.61 1.27.8s.92.28 1.35.28c.11 0 .26-.01.44-.04s.33-.07.44-.12c.13-.06.25-.15.34-.26s.14-.26.14-.44c0-.21-.08-.37-.23-.5a1.4 1.4 0 0 0-.54-.28q-.39-.105-.84-.21c-.3-.07-.58-.15-.83-.24-.6-.22-1.02-.52-1.28-.9s-.39-.85-.39-1.42c0-.76.3-1.38.91-1.86s1.37-.71 2.28-.71c.46 0 .91.05 1.36.15s.86.23 1.22.4v1.87h-.17c-.29-.26-.63-.48-1.04-.66s-.83-.27-1.27-.27c-.17 0-.32.01-.45.04s-.28.08-.42.15c-.12.06-.22.15-.31.26s-.13.24-.13.39c0 .21.07.37.21.5q.21.18.81.33.39.09.75.18c.24.06.49.14.77.24.53.21.93.48 1.19.83s.39.8.39 1.37c0 .81-.3 1.46-.9 1.96-.63.48-1.44.73-2.46.73" class="st9"/></g><g id="Capa_26"><path d="M540.23 218.01c0-27.9 10.01-53.32 26.42-72.41l-57.33-60.96c-31.06 34.71-50.12 81.67-50.12 133.37q0 5.025.24 9.99h81.23c-.28-3.29-.44-6.62-.44-9.99" class="st10"/><path d="M484.27 163.83h-2.13v-6.02l-1.55 3.88h-1.46l-1.55-3.88v6.02h-2.02v-9.08h2.47l1.89 4.48 1.89-4.48h2.47v9.08zM493.81 159.3c0 1.47-.37 2.62-1.11 3.46q-1.11 1.26-3.03 1.26c-1.29 0-2.3-.43-3.03-1.28s-1.1-2-1.1-3.45c0-1.46.37-2.61 1.1-3.46s1.75-1.27 3.03-1.27 2.29.42 3.03 1.27c.74.84 1.11 2 1.11 3.47m-2.22-.01c0-.54-.05-1-.16-1.38-.1-.38-.25-.69-.42-.94-.18-.25-.39-.43-.62-.53-.23-.11-.47-.16-.72-.16q-.39 0-.72.15c-.21.1-.42.28-.62.53-.18.24-.32.55-.43.94s-.16.86-.16 1.4c0 .56.05 1.02.15 1.39s.24.68.42.92q.27.375.63.54c.23.11.47.16.72.16s.5-.06.73-.17c.24-.12.44-.3.61-.54.18-.26.32-.57.42-.92.12-.36.17-.82.17-1.39m-.16-7.95-1.72 2.4h-1.36l1.19-2.4zM502.7 159.3c0 .85-.17 1.6-.52 2.27s-.79 1.18-1.32 1.54c-.44.3-.93.5-1.45.59s-1.08.13-1.67.13h-2.67v-9.08h2.65c.6 0 1.16.04 1.69.12.52.08 1.02.28 1.47.59.56.38 1.01.9 1.33 1.55s.49 1.41.49 2.29m-2.2-.02c0-.6-.1-1.11-.29-1.53s-.49-.76-.89-1c-.29-.17-.6-.26-.91-.28-.32-.02-.7-.02-1.14-.02h-.04v5.68h.04c.48 0 .89-.01 1.22-.03s.65-.13.94-.33c.35-.24.62-.56.8-.98.18-.4.27-.91.27-1.51M507.42 164.02c-1.15 0-2.03-.29-2.65-.88s-.93-1.45-.93-2.58v-5.8h2.14v5.66c0 .63.11 1.1.34 1.41.22.31.59.46 1.09.46.49 0 .85-.15 1.09-.44.23-.3.35-.77.35-1.43v-5.66H511v5.79q0 1.68-.9 2.58c-.61.59-1.5.89-2.68.89M518.34 163.83h-5.7v-9.08h2.14v7.35h3.55v1.73zM527.14 159.3c0 1.47-.37 2.62-1.11 3.46q-1.11 1.26-3.03 1.26c-1.29 0-2.3-.43-3.03-1.28s-1.1-2-1.1-3.45c0-1.46.37-2.61 1.1-3.46s1.75-1.27 3.03-1.27 2.29.42 3.03 1.27c.74.84 1.11 2 1.11 3.47m-2.22-.01c0-.54-.05-1-.16-1.38-.1-.38-.25-.69-.42-.94-.18-.25-.39-.43-.62-.53-.23-.11-.47-.16-.72-.16q-.39 0-.72.15c-.21.1-.42.28-.62.53-.18.24-.32.55-.43.94s-.16.86-.16 1.4c0 .56.05 1.02.15 1.39s.24.68.42.92q.27.375.63.54c.23.11.47.16.72.16s.5-.06.73-.17c.24-.12.44-.3.61-.54.18-.26.32-.57.42-.92.12-.36.17-.82.17-1.39M539.47 159.3c0 .85-.17 1.6-.52 2.27s-.79 1.18-1.32 1.54c-.44.3-.93.5-1.45.59s-1.08.13-1.67.13h-2.67v-9.08h2.65c.6 0 1.16.04 1.69.12.52.08 1.02.28 1.47.59.56.38 1.01.9 1.33 1.55s.49 1.41.49 2.29m-2.2-.02c0-.6-.1-1.11-.29-1.53s-.49-.76-.89-1c-.29-.17-.6-.26-.91-.28-.32-.02-.7-.02-1.14-.02H534v5.68h.04c.48 0 .89-.01 1.22-.03s.65-.13.94-.33c.35-.24.62-.56.8-.98.17-.4.27-.91.27-1.51M540.74 163.83v-9.08h5.77v1.73h-3.64v1.59h3.35v1.73h-3.35v2.29h3.64v1.73h-5.77zM483.38 178.81l2.88-9.08h2.34l2.88 9.08h-2.21l-.53-1.85h-2.68l-.53 1.85zm4.9-3.49-.87-2.99-.87 2.99zM499.47 178.3c-.37.16-.86.32-1.46.48-.6.15-1.19.23-1.77.23q-2.01 0-3.21-1.23c-.8-.82-1.2-1.99-1.2-3.5q0-2.13 1.2-3.42t3.27-1.29c.71 0 1.3.07 1.74.22s.91.34 1.39.59v2.13h-.19c-.1-.08-.25-.21-.44-.36a3.916 3.916 0 0 0-1.3-.74c-.28-.09-.58-.14-.89-.14-.37 0-.7.06-1 .18s-.57.31-.81.56c-.23.24-.4.55-.54.93s-.2.81-.2 1.3c0 1.06.25 1.84.75 2.35.5.5 1.19.76 2.05.76.08 0 .17 0 .27-.01.1 0 .19-.01.27-.02v-1.78h-1.66v-1.7h3.73zM501.09 178.81v-9.08h5.77v1.73h-3.64v1.59h3.35v1.73h-3.35v2.29h3.64v1.73h-5.77zM515.63 178.81h-2.06l-3.29-6.33v6.33h-1.96v-9.08h2.63l2.72 5.2v-5.2h1.96zM519 178.81v-7.35h-2.52v-1.73h7.19v1.73h-2.52v7.35zM524.55 178.81v-9.08h5.77v1.73h-3.64v1.59h3.35v1.73h-3.35v2.29h3.64v1.73h-5.77zM534.41 178.98c-.65 0-1.23-.07-1.72-.2s-.95-.3-1.38-.5v-2.16h.19c.43.39.9.68 1.42.89s1.02.31 1.5.31c.12 0 .28-.01.48-.04s.36-.07.48-.13c.15-.07.27-.17.38-.29.1-.12.16-.29.16-.49a.67.67 0 0 0-.25-.55 1.6 1.6 0 0 0-.6-.31c-.29-.08-.6-.16-.93-.23s-.64-.16-.93-.27c-.66-.25-1.14-.58-1.42-1-.29-.42-.43-.94-.43-1.57 0-.85.34-1.54 1.01-2.06.68-.53 1.52-.79 2.53-.79.51 0 1.01.05 1.52.16s.95.26 1.35.44v2.07h-.19c-.32-.29-.7-.53-1.16-.73q-.69-.3-1.41-.3c-.19 0-.36.01-.5.04s-.31.08-.47.16c-.13.06-.25.16-.35.29s-.15.27-.15.43c0 .23.08.42.23.55s.45.26.9.37c.29.07.56.14.83.2.27.07.55.15.85.27.59.23 1.03.53 1.32.92s.43.89.43 1.52c0 .9-.33 1.63-1 2.18-.66.55-1.56.82-2.69.82" class="st9"/></g><g id="Capa_27"><path d="M540.68 236h-81.23c2.49 52.13 24.39 98.81 58.16 132.05l57.38-61.01c-19.07-17.64-31.86-42.74-34.31-71.04" class="st8"/><path d="m478.78 286.7 2.88-9.08H484l2.88 9.08h-2.21l-.53-1.85h-2.68l-.53 1.85zm4.9-3.5-.87-2.99-.87 2.99zM490.37 286.87c-.65 0-1.23-.07-1.72-.2-.5-.13-.95-.3-1.38-.5v-2.16h.19c.43.39.9.68 1.42.89s1.02.31 1.5.31c.12 0 .28-.01.48-.04s.36-.07.48-.13c.15-.07.27-.17.38-.29.1-.12.16-.29.16-.49a.67.67 0 0 0-.25-.55 1.6 1.6 0 0 0-.6-.31c-.29-.08-.6-.16-.93-.23s-.64-.16-.93-.27c-.66-.25-1.14-.58-1.42-1-.29-.42-.43-.94-.43-1.57 0-.85.34-1.54 1.01-2.06.68-.53 1.52-.79 2.53-.79.51 0 1.01.05 1.52.16q.75.165 1.35.45v2.07h-.19c-.32-.29-.7-.53-1.16-.73q-.69-.3-1.41-.3c-.19 0-.36.01-.5.04-.15.03-.31.08-.47.17-.13.07-.25.16-.35.29s-.15.27-.15.43c0 .23.08.42.23.55.15.14.45.26.9.37.29.07.56.14.83.2.27.07.55.15.85.27.59.23 1.03.53 1.32.92.29.38.43.89.43 1.52 0 .9-.33 1.63-1 2.18s-1.55.8-2.69.8M499.43 286.7h-4.6v-1.58h1.23v-5.91h-1.23v-1.59h4.6v1.59h-1.23v5.91h1.23zM503.48 286.87c-.65 0-1.23-.07-1.72-.2-.5-.13-.95-.3-1.38-.5v-2.16h.19c.43.39.9.68 1.42.89s1.02.31 1.5.31c.12 0 .28-.01.48-.04s.36-.07.48-.13c.15-.07.27-.17.38-.29.1-.12.16-.29.16-.49a.67.67 0 0 0-.25-.55 1.6 1.6 0 0 0-.6-.31c-.29-.08-.6-.16-.93-.23s-.64-.16-.93-.27c-.66-.25-1.14-.58-1.42-1-.29-.42-.43-.94-.43-1.57 0-.85.34-1.54 1.01-2.06.68-.53 1.52-.79 2.53-.79.51 0 1.01.05 1.52.16q.75.165 1.35.45v2.07h-.19c-.32-.29-.7-.53-1.16-.73q-.69-.3-1.41-.3c-.19 0-.36.01-.5.04-.15.03-.31.08-.47.17-.13.07-.25.16-.35.29s-.15.27-.15.43c0 .23.08.42.23.55.15.14.45.26.9.37.29.07.56.14.83.2.27.07.55.15.85.27.59.23 1.03.53 1.32.92.29.38.43.89.43 1.52 0 .9-.33 1.63-1 2.18s-1.55.8-2.69.8M509.92 286.7v-7.35h-2.52v-1.73h7.19v1.73h-2.52v7.35zM515.47 286.7v-9.08h5.77v1.73h-3.64v1.59h3.35v1.73h-3.35v2.29h3.64v1.73h-5.77zM530.01 286.7h-2.06l-3.29-6.33v6.33h-1.96v-9.08h2.63l2.72 5.2v-5.2h1.96zM533.38 286.7v-7.35h-2.52v-1.73h7.19v1.73h-2.52v7.35zM538.93 286.7v-9.08h5.77v1.73h-3.64v1.59h3.35v1.73h-3.35v2.29h3.64v1.73h-5.77zM493.69 292.6l-2.94 9.08h-2.24l-2.94-9.08h2.22l1.86 6.15 1.86-6.15zM498.73 301.68h-4.6v-1.58h1.23v-5.91h-1.23v-1.59h4.6v1.59h-1.23v5.91h1.23zM508.05 301.68h-2.61l-2.38-3.33h-.77v3.33h-2.13v-9.08h3.43c.47 0 .89.03 1.24.09s.68.19.97.39c.31.21.55.47.73.79s.27.72.27 1.22c0 .69-.15 1.26-.44 1.69s-.69.78-1.18 1.03zm-3.45-6.3c0-.23-.04-.42-.12-.59s-.22-.29-.41-.38q-.195-.09-.45-.12c-.16-.02-.37-.02-.61-.02h-.72v2.44h.61c.3 0 .55-.02.76-.06s.38-.12.53-.25c.14-.11.24-.25.31-.41s.1-.35.1-.61M510.32 301.68v-7.35h-2.52v-1.73h7.19v1.73h-2.52v7.35zM519.32 301.87c-1.15 0-2.03-.29-2.65-.88q-.93-.885-.93-2.58v-5.8h2.14v5.66c0 .63.11 1.1.34 1.41s.59.46 1.09.46c.49 0 .85-.15 1.09-.45s.35-.77.35-1.43v-5.66h2.14v5.79q0 1.68-.9 2.58c-.9.9-1.49.9-2.67.9M523.63 301.68l2.88-9.08h2.34l2.88 9.08h-2.21l-.53-1.85h-2.68l-.53 1.85zm4.89-3.5-.87-2.99-.87 2.99zM538.28 301.68h-5.7v-9.08h2.14v7.35h3.55v1.73z" class="st9"/></g><path id="Capa_9" d="M229.97 232.96c0-64.84 48.64-117.52 109.03-118.61v-9.19c-65.76 1.63-118.59 59.14-118.59 129.85S273.24 363.23 339 364.86v-13.28c-60.39-1.1-109.03-53.78-109.03-118.62" style="fill:#004c6c"/><g id="Capa_3"><ellipse cx="640.9" cy="395.83" rx="62.23" ry="66.17" style="fill:#00506a"/><path d="M648.39 398.21h-14.12s2.16 13.04-8.11 23.82l14.49 18.61h1.36l14.49-18.61c-10.26-10.79-8.11-23.82-8.11-23.82" class="st14"/><path d="M633.52 408.75a29.55 29.55 0 0 1-7.35 13.27l14.49 18.61h1.36l14.49-18.61c-4.19-4.4-6.31-9.17-7.35-13.27l-7.75 4.55z" class="st9"/><path d="M633.52 408.75c-1.04 4.11 6.82 10.56 6.82 10.56l-3.93 21.33 4.92 3.14 4.91-3.14-3.7-21.22s7.65-6.56 6.6-10.67l-7.75 4.55z" style="fill:#d40000"/><path d="M648.39 398.21h-14.12s.28 1.7.16 4.37c2.42 1.29 4.86 2.08 6.82 2.08 2.01 0 4.51-.84 6.98-2.2-.11-2.6.16-4.25.16-4.25" style="fill:#e8aa63"/><path d="M659.92 373.57c-.54-1.49-1.5-.72-2.24.26.21-11.59-5.54-17.48-5.54-17.48h-21.62s-5.79 5.87-5.61 17.39c-.73-.94-1.64-1.63-2.17-.18-.98 2.69 1.33 6.39.88 10.13-.3 2.53 1.58 2.28 2.77 1.57.45 1.91 1.11 4.17 2.18 6.81 2.26 5.59 8.75 10.68 12.73 10.68s10.37-5.13 12.73-10.68c1.08-2.55 1.76-4.67 2.19-6.85 1.18.73 3.13 1.03 2.82-1.54-.44-3.72 1.87-7.42.88-10.11" class="st14"/><path d="M654.35 355.15s-19.8 18.86-32.62-5.04c0 0 3.56-.15 14.39-4.29 9.92-3.79 16.63 1.75 18.23 9.33" class="st17"/><path d="m653.13 355.03-4.6 1.27c.6 1.2 3.68 5.18 5.37 10.03 1.59 4.55 1.83 9.87 1.67 14.37l.84-1.52c1.2-2.17 1.92-4.6 2.14-7.11.59-6.82.91-19.65-5.42-17.04M625.78 379.19l.84 1.52c-.16-4.51.08-9.82 1.67-14.37 1.7-4.86 4.77-8.84 5.37-10.03l-4.6-1.27c-6.33-2.61-6.01 10.23-5.42 17.05.21 2.5.94 4.92 2.14 7.1" class="st17"/><path d="m652.73 411.15-4.11-2.56-7.21 4.71-7.22-4.71-4.11 2.56 7.09 10.68 4.24-6.7 4.24 6.7z" style="opacity:.35;fill:#7d7d7d"/><path d="M625.64 374.02c-.12-4.7.34-10.49 2.61-15.06 2.56-5.16 6.97-7.8 13.09-7.8s10.53 2.64 13.09 7.8c2.27 4.57 2.72 10.36 2.61 15.06h2.05c.14-5.19-.37-11.68-2.97-16.96-2.96-6.01-7.94-9.09-14.77-9.09s-11.82 3.09-14.77 9.09c-2.6 5.28-3.12 11.76-2.97 16.96z" class="st19"/><path d="M624.54 372.49c-.43-.22-.9-.34-1.38-.34-2.35 0-4.25 2.8-4.25 6.26s1.9 6.26 4.25 6.26c.48 0 .95-.12 1.38-.34z" class="st19"/><path d="M626.09 370.89a2.34 2.34 0 0 0-1.19-.33h-.05c-1.39 0-2.51 1.2-2.51 2.67v10.86c0 1.48 1.13 2.67 2.51 2.67h.05c.43 0 .83-.13 1.19-.33z" class="st20"/><path d="M658.69 384.32h-1.13c0 .45-.17 10.43-11.74 11.46-.22-.35-.57-.59-1-.59h-4.41c-.67 0-1.22.58-1.22 1.3v.03c0 .72.55 1.3 1.22 1.3h4.41c.52 0 .96-.35 1.13-.84 12.56-1.17 12.74-12.54 12.74-12.66" class="st19"/><path d="M658.13 372.49c.43-.22.9-.34 1.38-.34 2.35 0 4.25 2.8 4.25 6.26s-1.9 6.26-4.25 6.26c-.48 0-.95-.12-1.38-.34z" class="st19"/><path d="M656.58 370.89c.36-.21.76-.33 1.19-.33h.05c1.39 0 2.52 1.2 2.52 2.67v10.86c0 1.48-1.13 2.67-2.52 2.67h-.05c-.43 0-.83-.13-1.19-.33z" class="st20"/><path d="m641.41 413.3 4.24 6.14 7.08-10.69-4.11-2.55zM641.41 413.3l-4.24 6.14-7.09-10.69 4.11-2.55z" class="st9"/><path d="M674.51 419.15c-1.71-3.62-5.32-6.37-9.78-7.45l-14.83-4.61s.7 7.37-2.54 17.91c-2.6 8.47-5.99 17.25-5.99 17.25s-3.57-8.71-6-17.26c-2.99-10.54-2.58-17.91-2.58-17.91l-14.72 4.61c-4.46 1.07-8.07 3.82-9.78 7.45 0 0-5.13 17.82-2.01 19.31 5.79 2.78 12.06 4.45 18.46 5.15 11.07 1.21 22.24 1.21 33.32 0 6.4-.7 12.66-2.37 18.46-5.15 3.12-1.48-2.01-19.3-2.01-19.3" class="st19"/></g><g id="Capa_4"><path d="m440.94 233.01 123.29-1.25" class="st21"/><path d="m440.907 230.476 123.287-1.258.051 5-123.287 1.257z" class="st22"/><path d="m440.94 233.01 15.26-14.98" class="st21"/><path d="m439.177 231.237 15.264-14.984 3.502 3.568-15.264 14.984z" class="st22"/><path d="m440.94 231.76 15.26 14.98" class="st21"/><path d="m439.203 233.534 3.502-3.569 15.266 14.984-3.502 3.568z" class="st22"/><path d="m568.93 231.76-15.27-14.98" class="st21"/><path d="m551.93 218.546 3.503-3.569 15.266 14.984-3.503 3.569z" class="st22"/><path d="m568.93 230.51-15.27 14.98" class="st21"/><path d="m551.892 243.724 15.263-14.983 3.503 3.568-15.264 14.983z" class="st22"/></g><g id="Capa_5"><path d="m711.66 232.51 123.29-1.25" class="st21"/><path d="m711.614 229.974 123.287-1.258.051 5-123.287 1.257z" class="st22"/><path d="m711.66 232.51 15.26-14.98" class="st21"/><path d="m709.89 230.745 15.266-14.981 3.502 3.568-15.266 14.982z" class="st22"/><path d="m711.66 231.26 15.26 14.99" class="st21"/><path d="m709.923 233.023 3.502-3.568 15.266 14.984-3.502 3.568z" class="st22"/><path d="m839.65 231.26-15.27-14.98" class="st21"/><path d="m822.647 218.04 3.502-3.568 15.266 14.984-3.502 3.568z" class="st22"/><path d="M839.65 230.01 824.38 245" class="st21"/><path d="m822.611 243.24 15.264-14.983 3.502 3.568-15.263 14.983z" class="st22"/></g><g id="Capa_6"><path d="M234.21 99.95H29.24c-6.89 0-12.5-5.61-12.5-12.5V74.39c0-6.89 5.61-12.5 12.5-12.5h204.97c6.89 0 12.5 5.61 12.5 12.5v13.06c0 6.89-5.61 12.5-12.5 12.5M29.24 62.89c-6.34 0-11.5 5.16-11.5 11.5v13.06c0 6.34 5.16 11.5 11.5 11.5h204.97c6.34 0 11.5-5.16 11.5-11.5V74.39c0-6.34-5.16-11.5-11.5-11.5z" class="st23"/><path d="M105.37 79.62c0-7.15-5.41-12.94-12.1-12.94-6.68 0-12.1 5.79-12.1 12.94 0 6.46 4.42 11.81 10.21 12.78v-9.04h-3.07v-3.74h3.07v-2.85c0-3.24 1.8-5.03 4.57-5.03 1.32 0 2.71.25 2.71.25v3.18h-1.53c-1.5 0-1.97 1-1.97 2.02v2.43h3.35l-.54 3.74h-2.82v9.04c5.8-.96 10.22-6.32 10.22-12.78" style="fill:#294dd3"/><path d="M94.66 93V82.86h2.88l.39-2.74h-3.28v-2.93c0-1.58.92-2.52 2.47-2.52h1.03v-2.26c-.5-.07-1.37-.18-2.21-.18-2.59 0-4.07 1.65-4.07 4.53v3.35H88.8v2.74h3.07V93l-.58-.1c-6.16-1.03-10.62-6.62-10.62-13.28 0-7.41 5.65-13.44 12.6-13.44s12.6 6.03 12.6 13.44c0 6.66-4.47 12.24-10.62 13.28zm-1.39-25.82c-6.39 0-11.6 5.58-11.6 12.44 0 5.96 3.84 10.98 9.21 12.18v-7.94h-3.07v-4.74h3.07v-2.35c0-3.41 1.94-5.53 5.07-5.53 1.35 0 2.74.25 2.8.26l.41.07v4.1h-2.03c-.36 0-1.47 0-1.47 1.52v1.93h3.43l-.68 4.74h-2.75v7.94c5.37-1.2 9.21-6.22 9.21-12.18 0-6.86-5.2-12.44-11.6-12.44" style="fill:#15b3ff"/><path d="M122.65 76.77c-1.52 0-2.74 1.24-2.74 2.77s1.23 2.77 2.74 2.77 2.74-1.24 2.74-2.77-1.22-2.77-2.74-2.77m6.41-2.13c-.28-.72-.85-1.29-1.56-1.58-1.08-.43-3.65-.33-4.85-.33s-3.77-.1-4.85.33c-.72.29-1.28.86-1.56 1.58-.43 1.09-.33 3.69-.33 4.9s-.1 3.81.33 4.9c.28.72.85 1.29 1.56 1.58 1.08.43 3.65.33 4.85.33s3.77.1 4.85-.33c.72-.29 1.28-.86 1.56-1.58.43-1.09.33-3.69.33-4.9s.11-3.8-.33-4.9m-6.41 9.17c-2.33 0-4.22-1.91-4.22-4.26s1.89-4.26 4.22-4.26 4.22 1.91 4.22 4.26-1.88 4.26-4.21 4.26zm4.39-7.71c-.54 0-.98-.44-.98-.99s.44-.99.98-.99.98.44.98.99c.01.54-.43.99-.98.99.01 0 0 0 0 0m4.66-8.19h-18.1c-1.36 0-2.47 1.12-2.47 2.49v18.29a2.48 2.48 0 0 0 2.47 2.49h18.1c1.36 0 2.47-1.12 2.47-2.49V70.4c0-1.38-1.1-2.49-2.47-2.49m-.88 15.06c-.07 1.33-.37 2.51-1.33 3.48s-2.13 1.28-3.45 1.34c-1.36.08-5.43.08-6.79 0-1.32-.07-2.48-.37-3.45-1.34s-1.27-2.15-1.33-3.48c-.08-1.37-.08-5.49 0-6.86.07-1.33.36-2.51 1.33-3.48s2.13-1.28 3.45-1.34c1.36-.08 5.43-.08 6.79 0 1.32.07 2.49.37 3.45 1.34s1.27 2.15 1.33 3.48c.08 1.38.08 5.49 0 6.86" style="fill:#db0f8e"/><path d="M162.17 66.68h-18.56c-1.4 0-2.53 1.21-2.53 2.69V89.1c0 1.49 1.13 2.69 2.53 2.69h18.56c1.4 0 2.53-1.21 2.53-2.69V69.37c0-1.48-1.13-2.69-2.53-2.69m-2.58 8.9c.01.16.01.32.01.48 0 4.86-3.48 10.46-9.84 10.46-1.96 0-3.78-.61-5.31-1.65.28.03.55.04.83.04 1.62 0 3.11-.58 4.29-1.57-1.52-.03-2.79-1.09-3.23-2.55.53.08 1.01.08 1.56-.07-1.58-.34-2.77-1.82-2.77-3.61v-.04c.46.27 1 .44 1.56.47-.96-.68-1.54-1.83-1.54-3.06 0-.68.17-1.31.47-1.86 1.7 2.23 4.26 3.69 7.13 3.85-.49-2.49 1.27-4.52 3.37-4.52 1 0 1.89.44 2.53 1.16.78-.16 1.53-.47 2.19-.89-.26.85-.8 1.57-1.52 2.02.7-.08 1.37-.29 1.99-.57-.45.74-1.04 1.39-1.72 1.91" style="fill:#c8edfb"/><path d="M37.11 72.5c-3.46 0-6.27 2.99-6.27 6.67 0 1.26.33 2.49.96 3.55l.15.25-.63 2.46 2.37-.66.23.15c.96.61 2.06.93 3.19.93 3.45 0 6.34-2.99 6.34-6.67 0-1.78-.72-3.46-1.91-4.71-1.19-1.28-2.76-1.97-4.43-1.97m3.69 9.53c-.16.47-.91.9-1.27.95-.6.1-1.07.05-2.26-.5-1.89-.87-3.13-2.89-3.22-3.03-.1-.13-.77-1.09-.77-2.07s.49-1.47.66-1.67.38-.25.5-.25.25 0 .36.01.27-.05.42.34c.16.4.53 1.39.58 1.49s.08.22.01.35c-.36.77-.75.74-.55 1.09.73 1.33 1.46 1.79 2.56 2.38.19.1.3.09.41-.05.11-.13.47-.59.59-.78.12-.2.25-.17.42-.1s1.1.55 1.29.65.31.15.36.23c.06.09.06.5-.09.96m4.68-14.12H28.74c-1.26 0-2.28 1.09-2.28 2.43v17.81c0 1.34 1.02 2.43 2.28 2.43h16.75c1.26 0 2.28-1.09 2.28-2.43V70.34c0-1.35-1.03-2.43-2.29-2.43m-8.37 19.28c-1.27 0-2.51-.34-3.61-.98l-4 1.12 1.07-4.16a8.4 8.4 0 0 1-1.01-4.01c0-4.42 3.39-8.02 7.55-8.02 2.02 0 3.91.83 5.34 2.35 1.42 1.52 2.28 3.53 2.28 5.68-.01 4.42-3.47 8.02-7.62 8.02" style="fill:#4dba5e"/><path d="M64.76 66.68c-6.52 0-11.81 5.62-11.81 12.56 0 6.93 5.29 12.56 11.81 12.56s11.81-5.62 11.81-12.56-5.29-12.56-11.81-12.56m5.47 8.54c-.18 1.99-.95 6.8-1.34 9.03-.17.94-.49 1.26-.81 1.29-.69.07-1.21-.48-1.87-.94-1.04-.72-1.63-1.18-2.64-1.88-1.17-.82-.41-1.27.25-2 .17-.19 3.2-3.11 3.25-3.38.01-.03.01-.16-.05-.22s-.17-.04-.24-.03c-.1.03-1.76 1.19-4.98 3.5-.47.34-.9.51-1.28.5-.42-.01-1.23-.25-1.84-.46-.74-.26-1.33-.39-1.28-.82.03-.23.32-.46.88-.69 3.44-1.59 5.74-2.65 6.89-3.15 3.28-1.45 3.96-1.7 4.4-1.71.1 0 .32.02.46.15.09.09.15.21.17.34.04.14.04.31.03.47" style="fill:#37b6d7"/><path d="M193.38 77.45c-.09-.1-.13-.25-.13-.45v-5.89c0-.2.04-.35.13-.45s.24-.15.46-.15h2.34c.98 0 1.69.21 2.14.62s.67 1.04.67 1.87c0 .5-.08.92-.24 1.27-.16.34-.41.61-.74.81l.91 2.07c.03.06.04.12.04.19 0 .08-.02.14-.07.19s-.11.07-.19.07h-1.65c-.1 0-.19-.02-.25-.05s-.11-.08-.13-.16l-.72-1.94h-.33V77c0 .2-.04.35-.13.45s-.24.15-.46.15h-1.17c-.24 0-.39-.05-.48-.15m2.59-3.74c.21 0 .37-.06.49-.18s.18-.29.18-.53q0-.36-.18-.54a.67.67 0 0 0-.49-.18h-.67v1.43zM199.61 77.45c-.09-.1-.13-.25-.13-.45v-5.89c0-.2.04-.35.13-.45s.24-.15.46-.15h4.05c.21 0 .35.05.43.14s.11.24.11.45v.58c0 .21-.04.36-.11.45s-.22.14-.43.14h-2.29v.9h1.41c.21 0 .35.05.43.14s.11.24.11.45v.56c0 .21-.04.36-.11.45s-.22.14-.43.14h-1.41v.9h2.28c.21 0 .35.05.43.14s.11.24.11.45v.6c0 .21-.04.36-.11.45s-.22.14-.43.14h-4.04c-.22.01-.37-.04-.46-.14M205.23 77.45c-.09-.1-.13-.25-.13-.45v-5.89c0-.2.04-.35.13-.45s.24-.15.46-.15h2.25c2.3 0 3.46 1.18 3.46 3.54 0 1.17-.3 2.05-.89 2.65s-1.45.9-2.57.9h-2.25c-.22 0-.37-.05-.46-.15m2.8-1.62c.37 0 .63-.13.79-.39s.24-.72.24-1.39q0-1.005-.24-1.38c-.16-.26-.42-.39-.79-.39h-.58v3.54h.58zM212.02 77.45c-.09-.1-.13-.25-.13-.45v-5.89c0-.2.04-.35.13-.45s.24-.15.46-.15h4.05c.21 0 .35.05.43.14s.11.24.11.45v.58c0 .21-.04.36-.11.45s-.22.14-.43.14h-2.29v.9h1.41c.21 0 .35.05.43.14s.11.24.11.45v.56c0 .21-.04.36-.11.45s-.22.14-.43.14h-1.41v.9h2.28c.21 0 .35.05.43.14s.11.24.11.45v.6c0 .21-.04.36-.11.45s-.22.14-.43.14h-4.04c-.22.01-.38-.04-.46-.14M218.75 77.56c-.51-.13-.92-.32-1.23-.55-.13-.1-.2-.19-.2-.28 0-.06.02-.13.07-.2l.57-.95c.06-.09.12-.14.18-.14.05 0 .11.02.19.07.24.15.5.27.81.36s.6.13.89.13c.24 0 .42-.03.52-.1s.16-.18.16-.32c0-.16-.07-.29-.22-.39-.14-.1-.39-.22-.74-.36-.66-.27-1.18-.58-1.56-.92s-.57-.8-.57-1.37c0-.72.24-1.27.71-1.63s1.11-.55 1.91-.55c.56 0 1.04.05 1.43.16s.74.27 1.03.49c.13.1.2.19.2.28 0 .06-.02.13-.07.2l-.57.95q-.09.15-.18.15c-.04 0-.1-.03-.19-.08-.16-.11-.34-.2-.56-.28-.22-.07-.45-.11-.69-.11-.23 0-.4.03-.52.1q-.18.105-.18.33c0 .13.04.23.12.31s.18.15.31.21c.12.06.34.15.65.29.49.21.87.41 1.16.6s.49.42.64.69c.14.27.22.61.22 1.02 0 .62-.22 1.13-.66 1.51-.44.39-1.1.58-1.97.58a7.2 7.2 0 0 1-1.66-.2M186.04 90.05c-.51-.13-.92-.32-1.23-.55-.13-.1-.2-.19-.2-.28 0-.06.02-.13.07-.2l.57-.95c.06-.09.12-.14.18-.14.05 0 .11.02.19.07.24.15.5.27.81.36s.6.13.89.13c.24 0 .42-.03.52-.1s.16-.18.16-.32c0-.16-.07-.29-.22-.39-.14-.1-.39-.22-.74-.36-.66-.27-1.18-.58-1.56-.92s-.57-.8-.57-1.37c0-.72.24-1.27.71-1.63s1.11-.55 1.91-.55c.56 0 1.04.05 1.43.16s.74.27 1.03.49c.13.1.2.19.2.28 0 .06-.02.13-.07.2l-.57.95q-.09.15-.18.15c-.04 0-.1-.03-.19-.08-.16-.11-.34-.2-.56-.28-.22-.07-.45-.11-.69-.11-.23 0-.4.03-.52.1q-.18.105-.18.33c0 .13.04.23.12.31s.18.15.31.21c.12.06.34.15.65.29.49.21.87.41 1.16.6s.49.42.64.69c.14.27.22.61.22 1.02 0 .62-.22 1.13-.66 1.51-.44.39-1.1.58-1.97.58-.6 0-1.15-.07-1.66-.2M191.52 89.29q-.9-.96-.9-2.73t.9-2.73c.9-.96 1.48-.96 2.64-.96q1.74 0 2.64.96t.9 2.73-.9 2.73-2.64.96-2.64-.96m3.57-1.27c.19-.32.28-.81.28-1.46 0-.66-.09-1.15-.28-1.47s-.5-.48-.92-.48-.73.16-.92.48-.28.81-.28 1.47c0 .65.09 1.14.28 1.46s.5.48.92.48.73-.16.92-.48M198.75 89.32q-.99-.93-.99-2.76c0-1.23.32-2.15.95-2.77q.96-.93 2.73-.93c.54 0 1.01.06 1.43.17s.77.27 1.05.47q.12.09.12.21c0 .06-.03.15-.09.26l-.49.9c-.05.1-.11.15-.19.15-.05 0-.12-.03-.23-.08-.18-.1-.37-.17-.57-.23s-.43-.08-.7-.08c-.54 0-.96.17-1.24.5-.29.33-.43.82-.43 1.45s.16 1.11.47 1.44c.31.34.74.5 1.28.5.47 0 .9-.1 1.29-.31.1-.06.18-.08.23-.08.07 0 .13.05.19.15l.49.9c.06.11.09.2.09.26q0 .12-.12.21c-.28.2-.63.36-1.06.47-.42.11-.9.17-1.44.17-1.19-.04-2.11-.35-2.77-.97M204.76 89.95c-.09-.1-.13-.25-.13-.45v-5.89c0-.2.04-.35.13-.45s.24-.15.46-.15h1.17c.22 0 .38.05.46.14.09.09.13.24.13.45v5.89c0 .2-.04.35-.13.45s-.24.15-.46.15h-1.17c-.22 0-.38-.05-.46-.14M207.46 89.87c0-.06.02-.14.05-.23l2.44-6.24c.06-.15.13-.25.2-.31s.18-.09.32-.09h1.07c.14 0 .24.03.32.09s.14.16.2.31l2.43 6.24c.03.09.05.17.05.23 0 .15-.07.22-.22.22h-1.84c-.2 0-.33-.09-.38-.28l-.24-.77h-1.73l-.23.77c-.05.19-.18.28-.38.28h-1.84c-.14 0-.22-.07-.22-.22m3.92-2.47-.38-1.29-.38 1.29zM215.16 89.95c-.09-.1-.13-.25-.13-.45v-5.89c0-.2.04-.35.13-.45s.24-.15.46-.15h1.17c.22 0 .38.05.46.14.09.09.13.24.13.45v4.72h2.28c.21 0 .35.05.43.14s.11.24.11.45v.58c0 .21-.04.36-.11.45s-.22.14-.43.14h-4.04c-.22.01-.38-.04-.46-.13M220.47 89.95c-.09-.1-.13-.25-.13-.45v-5.89c0-.2.04-.35.13-.45s.24-.15.46-.15h4.05c.21 0 .35.05.43.14s.11.24.11.45v.58c0 .21-.04.36-.11.45s-.22.14-.43.14h-2.29v.9h1.41c.21 0 .35.05.43.14s.11.24.11.45v.56c0 .21-.04.36-.11.45s-.22.14-.43.14h-1.41v.9h2.28c.21 0 .35.05.43.14s.11.24.11.45v.58c0 .21-.04.36-.11.45s-.22.14-.43.14h-4.04c-.22.02-.37-.03-.46-.12M227.2 90.05c-.51-.13-.92-.32-1.23-.55-.13-.1-.2-.19-.2-.28 0-.06.02-.13.07-.2l.57-.95c.06-.09.12-.14.18-.14.05 0 .11.02.19.07.24.15.5.27.81.36s.6.13.89.13c.24 0 .42-.03.52-.1s.16-.18.16-.32c0-.16-.07-.29-.22-.39-.14-.1-.39-.22-.74-.36-.66-.27-1.18-.58-1.56-.92s-.57-.8-.57-1.37c0-.72.24-1.27.71-1.63s1.11-.55 1.91-.55c.56 0 1.04.05 1.43.16s.74.27 1.03.49c.13.1.2.19.2.28 0 .06-.02.13-.07.2l-.57.95q-.09.15-.18.15c-.04 0-.1-.03-.19-.08-.16-.11-.34-.2-.56-.28-.22-.07-.45-.11-.69-.11-.23 0-.4.03-.52.1q-.18.105-.18.33c0 .13.04.23.12.31s.18.15.31.21c.12.06.34.15.65.29.49.21.87.41 1.16.6s.49.42.64.69c.14.27.22.61.22 1.02 0 .62-.22 1.13-.66 1.51-.44.39-1.1.58-1.97.58-.59 0-1.15-.07-1.66-.2" class="st23"/><path d="m235.328 100.63 4.133-2.815 24.66 36.21-4.132 2.814z" class="st2"/></g><g id="Capa_7"><path d="M173.24 231.6H18.96c-6.89 0-12.5-5.61-12.5-12.5v-12.44c0-6.89 5.61-12.5 12.5-12.5h154.28c6.89 0 12.5 5.61 12.5 12.5v12.44c0 6.89-5.61 12.5-12.5 12.5M18.96 195.15c-6.34 0-11.5 5.16-11.5 11.5v12.44c0 6.34 5.16 11.5 11.5 11.5h154.28c6.34 0 11.5-5.16 11.5-11.5v-12.44c0-6.34-5.16-11.5-11.5-11.5z" class="st23"/><path d="m39.19 218.98-.99 4.58c-.14.65-.68 1.1-1.3 1.1-10.79 0-19.56-9.33-19.56-20.8 0-.67.43-1.24 1.04-1.38l4.31-1.06c.63-.15 1.27.19 1.53.82l1.99 4.93c.23.58.08 1.26-.38 1.66l-2.3 1.97c1.45 3.15 3.86 5.71 6.82 7.25l1.88-2.45c.37-.49 1.01-.66 1.56-.41l4.64 2.11c.54.33.9 1.02.76 1.68" style="fill:#00749b"/><path d="M61.68 217.09c-.78 0-1.56-.27-2.23-.82l-9.87-8.16v11.4c0 1.33 1.02 2.41 2.27 2.41h19.66c1.25 0 2.27-1.08 2.27-2.41v-11.4l-9.87 8.16c-.66.55-1.45.82-2.23.82M50.36 206.7l10.03 8.3c.77.63 1.84.63 2.6 0l10.03-8.3c.44-.4.77-1.02.77-1.67 0-1.33-1.02-2.41-2.27-2.41H51.86c-1.25 0-2.27 1.08-2.27 2.41 0 .65.28 1.27.77 1.67" style="fill:#e0011c"/><path d="M107.29 207.86q-.99-.93-.99-2.76c0-1.23.32-2.15.95-2.77q.96-.93 2.73-.93c.54 0 1.01.06 1.43.17s.77.27 1.05.47q.12.09.12.21c0 .06-.03.15-.09.26l-.49.9c-.05.1-.11.15-.19.15-.05 0-.12-.03-.23-.08-.18-.1-.37-.17-.57-.23s-.43-.08-.7-.08c-.54 0-.96.17-1.24.5-.29.33-.43.82-.43 1.45s.16 1.11.47 1.44c.31.34.74.5 1.28.5.47 0 .9-.1 1.29-.31.1-.06.18-.08.23-.08.07 0 .13.05.19.15l.49.9c.06.11.09.2.09.26q0 .12-.12.21c-.28.2-.63.36-1.06.47-.42.11-.9.17-1.44.17-1.19-.04-2.11-.35-2.77-.97M112.73 208.41c0-.06.02-.14.05-.23l2.44-6.24c.06-.15.13-.25.2-.31s.18-.09.32-.09h1.07c.14 0 .24.03.32.09s.14.16.2.31l2.43 6.24c.03.09.05.17.05.23 0 .15-.07.22-.22.22h-1.84c-.2 0-.33-.09-.38-.28l-.24-.77h-1.73l-.23.77c-.05.19-.18.28-.38.28h-1.84c-.15 0-.22-.07-.22-.22m3.91-2.47-.38-1.29-.38 1.29zM120.42 208.49c-.09-.1-.13-.25-.13-.45v-5.9c0-.2.04-.35.13-.44s.24-.14.46-.14h.93c.14 0 .24.02.32.06s.15.11.22.22l1.77 2.8v-2.49c0-.2.04-.35.13-.45s.24-.15.46-.15h1.17c.22 0 .38.05.47.14s.13.24.13.45v5.9c0 .2-.04.35-.13.44s-.24.14-.47.14h-.93c-.14 0-.24-.02-.32-.06s-.15-.11-.22-.22l-1.77-2.8v2.5c0 .2-.04.35-.13.44s-.24.14-.46.14h-1.17c-.22.01-.37-.04-.46-.13M126.96 208.41c0-.06.02-.14.05-.23l2.44-6.24c.06-.15.13-.25.2-.31s.18-.09.32-.09h1.07c.14 0 .24.03.32.09s.14.16.2.31l2.43 6.24c.03.09.05.17.05.23 0 .15-.07.22-.22.22h-1.84c-.2 0-.33-.09-.38-.28l-.24-.77h-1.73l-.23.77c-.05.19-.18.28-.38.28h-1.84c-.14 0-.22-.07-.22-.22m3.92-2.47-.38-1.29-.38 1.29zM134.66 208.49c-.09-.1-.13-.25-.13-.45v-5.89c0-.2.04-.35.13-.45s.24-.15.46-.15h1.17c.22 0 .38.05.46.14.09.09.13.24.13.45v4.72h2.28c.21 0 .35.05.43.14s.11.24.11.45v.58c0 .21-.04.36-.11.45s-.22.14-.43.14h-4.04c-.22.01-.38-.04-.46-.13M139.97 208.49c-.09-.1-.13-.25-.13-.45v-5.89c0-.2.04-.35.13-.45s.24-.15.46-.15h4.05c.21 0 .35.05.43.14s.11.24.11.45v.58c0 .21-.04.36-.11.45s-.22.14-.43.14h-2.29v.9h1.41c.21 0 .35.05.43.14s.11.24.11.45v.56c0 .21-.04.36-.11.45s-.22.14-.43.14h-1.41v.9h2.28c.21 0 .35.05.43.14s.11.24.11.45v.58c0 .21-.04.36-.11.45s-.22.14-.43.14h-4.04c-.22.02-.37-.03-.46-.12M146.71 208.59c-.51-.13-.92-.32-1.23-.55-.13-.1-.2-.19-.2-.28 0-.06.02-.13.07-.2l.57-.95c.06-.09.12-.14.18-.14.05 0 .11.02.19.07.24.15.5.27.81.36s.6.13.89.13c.24 0 .42-.03.52-.1s.16-.18.16-.32c0-.16-.07-.29-.22-.39-.14-.1-.39-.22-.74-.36-.66-.27-1.18-.58-1.56-.92s-.57-.8-.57-1.37c0-.72.24-1.27.71-1.63s1.11-.55 1.91-.55c.56 0 1.04.05 1.43.16s.74.27 1.03.49c.13.1.2.19.2.28 0 .06-.02.13-.07.2l-.57.95q-.09.15-.18.15c-.04 0-.1-.03-.19-.08-.16-.11-.34-.2-.56-.28-.22-.07-.45-.11-.69-.11-.23 0-.4.03-.52.1q-.18.105-.18.33c0 .13.04.23.12.31s.18.15.31.21c.12.06.34.15.65.29.49.21.87.41 1.16.6s.49.42.64.69c.14.27.22.61.22 1.02 0 .62-.22 1.13-.66 1.51-.44.39-1.1.58-1.97.58-.6 0-1.16-.07-1.66-.2M84.03 220.98c-.09-.1-.13-.25-.13-.45v-4.72h-1.41c-.21 0-.35-.05-.43-.14-.07-.09-.11-.24-.11-.45v-.58c0-.21.04-.36.11-.45.08-.09.22-.14.43-.14h5.17c.21 0 .35.05.43.14s.11.24.11.45v.58c0 .21-.04.36-.11.45s-.22.14-.43.14h-1.41v4.72c0 .2-.04.35-.13.45s-.24.15-.47.15h-1.17q-.315 0-.45-.15M88.63 220.98c-.09-.1-.13-.25-.13-.45v-5.89c0-.2.04-.35.13-.45s.24-.15.46-.15h2.34c.98 0 1.69.21 2.14.62s.67 1.04.67 1.87c0 .5-.08.92-.24 1.27-.16.34-.41.61-.74.81l.91 2.07c.03.06.04.12.04.19 0 .08-.02.14-.07.19s-.11.07-.19.07H92.3c-.1 0-.19-.02-.25-.05s-.11-.08-.13-.16l-.72-1.94h-.33v1.55c0 .2-.04.35-.13.45s-.24.15-.46.15h-1.17q-.36 0-.48-.15m2.59-3.74c.21 0 .37-.06.49-.18s.18-.29.18-.53q0-.36-.18-.54a.67.67 0 0 0-.49-.18h-.67v1.43z" class="st23"/><path d="M94.09 220.91c0-.06.02-.14.05-.23l2.44-6.24c.06-.15.13-.25.2-.31s.18-.09.32-.09h1.07c.14 0 .24.03.32.09s.14.16.2.31l2.43 6.24c.03.09.05.17.05.23 0 .15-.07.22-.22.22H99.1c-.2 0-.33-.09-.38-.28l-.24-.77h-1.73l-.23.77c-.05.19-.18.28-.38.28H94.3c-.14 0-.21-.08-.21-.22m3.91-2.48-.38-1.29-.38 1.29zM101.78 220.98c-.09-.1-.13-.25-.13-.45v-5.9c0-.2.04-.35.13-.44s.24-.14.46-.14h.93c.14 0 .24.02.32.06s.15.11.22.22l1.77 2.8v-2.49c0-.2.04-.35.13-.45s.24-.15.46-.15h1.17c.22 0 .38.05.47.14s.13.24.13.45v5.9c0 .2-.04.35-.13.44s-.24.14-.47.14h-.93c-.14 0-.24-.02-.32-.06s-.15-.11-.22-.22l-1.77-2.8v2.5c0 .2-.04.35-.13.44s-.24.14-.46.14h-1.17c-.22.02-.37-.03-.46-.13M109.76 221.09c-.51-.13-.92-.32-1.23-.55-.13-.1-.2-.19-.2-.28 0-.06.02-.13.07-.2l.57-.95c.06-.09.12-.14.18-.14.05 0 .11.02.19.07.24.15.5.27.81.36s.6.13.89.13c.24 0 .42-.03.52-.1s.16-.18.16-.32c0-.16-.07-.29-.22-.39-.14-.1-.39-.22-.74-.36-.66-.27-1.18-.58-1.56-.92s-.57-.8-.57-1.37c0-.72.24-1.27.71-1.63s1.11-.55 1.91-.55c.56 0 1.04.05 1.43.16s.74.27 1.03.49c.13.1.2.19.2.28 0 .06-.02.13-.07.2l-.57.95q-.09.15-.18.15c-.04 0-.1-.03-.19-.08-.16-.11-.34-.2-.56-.28-.22-.07-.45-.11-.69-.11-.23 0-.4.03-.52.1q-.18.105-.18.33c0 .13.04.23.12.31s.18.15.31.21c.12.06.34.15.65.29.49.21.87.41 1.16.6s.49.42.64.69c.14.27.22.61.22 1.02 0 .62-.22 1.13-.66 1.51-.44.39-1.1.58-1.97.58a7.2 7.2 0 0 1-1.66-.2M113.91 220.91c0-.06.02-.14.05-.23l2.44-6.24c.06-.15.13-.25.2-.31s.18-.09.32-.09h1.07c.14 0 .24.03.32.09s.14.16.2.31l2.43 6.24c.03.09.05.17.05.23 0 .15-.07.22-.22.22h-1.84c-.2 0-.33-.09-.38-.28l-.24-.77h-1.73l-.23.77c-.05.19-.18.28-.38.28h-1.84c-.15 0-.22-.08-.22-.22m3.91-2.48-.38-1.29-.38 1.29zM121.72 220.35q-.99-.93-.99-2.76c0-1.23.32-2.15.95-2.77q.96-.93 2.73-.93c.54 0 1.01.06 1.43.17s.77.27 1.05.47q.12.09.12.21c0 .06-.03.15-.09.26l-.49.9c-.05.1-.11.15-.19.15-.05 0-.12-.03-.23-.08-.18-.1-.37-.17-.57-.23s-.43-.08-.7-.08c-.54 0-.96.17-1.24.5-.29.33-.43.82-.43 1.45s.16 1.11.47 1.44c.31.34.74.5 1.28.5.47 0 .9-.1 1.29-.31.1-.06.18-.08.23-.08.07 0 .13.05.19.15l.49.9c.06.11.09.2.09.26q0 .12-.12.21c-.28.2-.63.36-1.06.47-.42.11-.9.17-1.44.17-1.19-.04-2.11-.35-2.77-.97M128.14 220.35q-.99-.93-.99-2.76c0-1.23.32-2.15.95-2.77q.96-.93 2.73-.93c.54 0 1.01.06 1.43.17s.77.27 1.05.47q.12.09.12.21c0 .06-.03.15-.09.26l-.49.9c-.05.1-.11.15-.19.15-.05 0-.12-.03-.23-.08-.18-.1-.37-.17-.57-.23s-.43-.08-.7-.08c-.54 0-.96.17-1.24.5-.29.33-.43.82-.43 1.45s.16 1.11.47 1.44c.31.34.74.5 1.28.5.47 0 .9-.1 1.29-.31.1-.06.18-.08.23-.08.07 0 .13.05.19.15l.49.9c.06.11.09.2.09.26q0 .12-.12.21c-.28.2-.63.36-1.06.47-.42.11-.9.17-1.44.17-1.18-.04-2.11-.35-2.77-.97M134.15 220.98c-.09-.1-.13-.25-.13-.45v-5.89c0-.2.04-.35.13-.45s.24-.15.46-.15h1.17c.22 0 .38.05.46.14.09.09.13.24.13.45v5.89c0 .2-.04.35-.13.45s-.24.15-.46.15h-1.17c-.22.01-.37-.04-.46-.14M137.76 220.32q-.9-.96-.9-2.73t.9-2.73c.9-.96 1.48-.96 2.64-.96q1.74 0 2.64.96t.9 2.73-.9 2.73-2.64.96-2.64-.96m3.56-1.27c.19-.32.28-.81.28-1.46 0-.66-.09-1.15-.28-1.47s-.5-.48-.92-.48-.73.16-.92.48-.28.81-.28 1.47c0 .65.09 1.14.28 1.46s.5.48.92.48c.43 0 .74-.16.92-.48M144.57 220.98c-.09-.1-.13-.25-.13-.45v-5.9c0-.2.04-.35.13-.44s.24-.14.46-.14h.93c.14 0 .24.02.32.06s.15.11.22.22l1.77 2.8v-2.49c0-.2.04-.35.13-.45s.24-.15.46-.15h1.17c.22 0 .38.05.47.14s.13.24.13.45v5.9c0 .2-.04.35-.13.44s-.24.14-.47.14h-.93c-.14 0-.24-.02-.32-.06s-.15-.11-.22-.22l-1.77-2.8v2.5c0 .2-.04.35-.13.44s-.24.14-.46.14h-1.17c-.22.02-.37-.03-.46-.13M151.12 220.91c0-.06.02-.14.05-.23l2.44-6.24c.06-.15.13-.25.2-.31s.18-.09.32-.09h1.07c.14 0 .24.03.32.09s.14.16.2.31l2.43 6.24c.03.09.05.17.05.23 0 .15-.07.22-.22.22h-1.84c-.2 0-.33-.09-.38-.28l-.24-.77h-1.73l-.23.77c-.05.19-.18.28-.38.28h-1.84c-.15 0-.22-.08-.22-.22m3.91-2.48-.38-1.29-.38 1.29zM158.81 220.98c-.09-.1-.13-.25-.13-.45v-5.89c0-.2.04-.35.13-.45s.24-.15.46-.15h1.17c.22 0 .38.05.46.14.09.09.13.24.13.45v4.72h2.28c.21 0 .35.05.43.14s.11.24.11.45v.58c0 .21-.04.36-.11.45s-.22.14-.43.14h-4.04c-.22.02-.37-.03-.46-.13M164.13 220.98c-.09-.1-.13-.25-.13-.45v-5.89c0-.2.04-.35.13-.45s.24-.15.46-.15h4.05c.21 0 .35.05.43.14s.11.24.11.45v.58c0 .21-.04.36-.11.45s-.22.14-.43.14h-2.29v.9h1.41c.21 0 .35.05.43.14s.11.24.11.45v.56c0 .21-.04.36-.11.45s-.22.14-.43.14h-1.41v.9h2.28c.21 0 .35.05.43.14s.11.24.11.45v.58c0 .21-.04.36-.11.45s-.22.14-.43.14h-4.04c-.22.03-.38-.02-.46-.12M170.86 221.09c-.51-.13-.92-.32-1.23-.55-.13-.1-.2-.19-.2-.28 0-.06.02-.13.07-.2l.57-.95c.06-.09.12-.14.18-.14.05 0 .11.02.19.07.24.15.5.27.81.36s.6.13.89.13c.24 0 .42-.03.52-.1s.16-.18.16-.32c0-.16-.07-.29-.22-.39-.14-.1-.39-.22-.74-.36-.66-.27-1.18-.58-1.56-.92s-.57-.8-.57-1.37c0-.72.24-1.27.71-1.63s1.11-.55 1.91-.55c.56 0 1.04.05 1.43.16s.74.27 1.03.49c.13.1.2.19.2.28 0 .06-.02.13-.07.2l-.57.95q-.09.15-.18.15c-.04 0-.1-.03-.19-.08-.16-.11-.34-.2-.56-.28-.22-.07-.45-.11-.69-.11-.23 0-.4.03-.52.1q-.18.105-.18.33c0 .13.04.23.12.31s.18.15.31.21c.12.06.34.15.65.29.49.21.87.41 1.16.6s.49.42.64.69c.14.27.22.61.22 1.02 0 .62-.22 1.13-.66 1.51-.44.39-1.1.58-1.97.58a7.2 7.2 0 0 1-1.66-.2" class="st23"/><path d="M183.14 211.91h38.16v5h-38.16z" class="st2"/></g><g id="Capa_8"><path d="M182.59 345.68H76.13c-6.89 0-12.5-5.61-12.5-12.5v-13.67c0-6.89 5.61-12.5 12.5-12.5H182.6c6.89 0 12.5 5.61 12.5 12.5v13.67c-.01 6.9-5.61 12.5-12.51 12.5M76.13 308.01c-6.34 0-11.5 5.16-11.5 11.5v13.67c0 6.34 5.16 11.5 11.5 11.5H182.6c6.34 0 11.5-5.16 11.5-11.5v-13.67c0-6.34-5.16-11.5-11.5-11.5z" class="st23"/><path d="M94.22 325.28c0 1.17-.06 2.29-.16 3.37h-9.18c-.1-1.07-.21-2.2-.21-3.37s.1-2.3.21-3.37h9.18c.1 1.07.16 2.2.16 3.37m7.52-3.37a14.4 14.4 0 0 1 0 6.74h-6.09c.1-1.08.16-2.26.16-3.37 0-1.16-.05-2.28-.16-3.37zm-.52-1.69h-5.78c-.5-3.36-1.48-6.18-2.74-7.98 3.89 1.09 7.04 4.09 8.52 7.98m-7.38 0H85.1c.3-1.92.77-3.61 1.34-4.98.52-1.24 1.1-2.14 1.66-2.71.55-.56 1.01-.73 1.38-.73s.82.17 1.38.73c.56.57 1.14 1.47 1.66 2.71.55 1.37 1.02 3.07 1.32 4.98m-16.12 0c1.48-3.9 4.63-6.89 8.51-7.98-1.26 1.8-2.24 4.62-2.74 7.98zm5.57 1.69c-.1 1.08-.2 2.21-.2 3.37 0 1.11.1 2.28.2 3.37h-6.1a14.4 14.4 0 0 1 0-6.74zm3.15 13.4c-.57-1.37-1.03-3.06-1.34-4.98h8.74c-.3 1.92-.77 3.61-1.34 4.98-.52 1.25-1.1 2.15-1.66 2.72-.55.56-1.01.73-1.42.73-.32 0-.78-.17-1.33-.73-.56-.57-1.13-1.47-1.65-2.72m-.21 3c-3.88-1.09-7.03-4.08-8.51-7.98h5.78c.49 3.36 1.47 6.18 2.73 7.98m6.48 0c1.26-1.8 2.24-4.62 2.74-7.98h5.78c-1.49 3.9-4.64 6.89-8.52 7.98" style="fill:#ffe43f"/><path d="M118.32 328.7c-.09-.1-.13-.25-.13-.45v-5.89c0-.2.04-.35.13-.45s.24-.15.46-.15h2.34c.98 0 1.69.21 2.14.62s.67 1.04.67 1.87-.22 1.45-.67 1.86-1.16.62-2.13.62h-.59v1.52c0 .2-.04.35-.13.45s-.24.15-.46.15h-1.17c-.22-.01-.37-.06-.46-.15m2.59-3.74c.21 0 .37-.06.49-.18s.18-.29.18-.53q0-.36-.18-.54a.67.67 0 0 0-.49-.18h-.67v1.43zM124.35 328.7c-.09-.1-.13-.25-.13-.45v-5.89c0-.2.04-.35.13-.45s.24-.15.46-.15h2.34c.98 0 1.69.21 2.14.62s.67 1.04.67 1.87q0 .75-.24 1.26c-.16.34-.41.61-.74.81l.91 2.07c.03.05.04.12.04.19 0 .08-.02.14-.07.19s-.11.07-.19.07h-1.65c-.1 0-.19-.02-.25-.05s-.11-.08-.13-.16l-.72-1.94h-.33v1.55c0 .2-.04.35-.13.45s-.24.15-.46.15h-1.17c-.24 0-.39-.05-.48-.14m2.59-3.74c.21 0 .37-.06.49-.18s.18-.29.18-.53q0-.36-.18-.54a.67.67 0 0 0-.49-.18h-.67v1.43zM131.15 328.04q-.9-.96-.9-2.73t.9-2.73 2.64-.96 2.64.96.9 2.73-.9 2.73-2.64.96c-1.15 0-2.04-.32-2.64-.96m3.57-1.27c.19-.32.28-.81.28-1.46 0-.66-.09-1.15-.28-1.47s-.5-.48-.92-.48-.73.16-.92.48-.28.81-.28 1.47c0 .65.09 1.14.28 1.46s.5.48.92.48.73-.16.92-.48M138.38 328.07q-.99-.93-.99-2.76c0-1.23.32-2.15.95-2.77q.96-.93 2.73-.93c.54 0 1.01.06 1.43.17s.77.27 1.05.47q.12.09.12.21c0 .06-.03.15-.09.26l-.49.9c-.05.1-.11.15-.19.15-.05 0-.12-.03-.23-.08-.18-.1-.37-.17-.57-.23s-.43-.08-.7-.08c-.54 0-.96.17-1.24.5-.29.33-.43.82-.43 1.45 0 .62.16 1.11.47 1.44.31.34.74.5 1.28.5.47 0 .9-.1 1.29-.31.1-.06.18-.08.23-.08.07 0 .13.05.19.15l.49.9c.06.11.09.2.09.26q0 .12-.12.21c-.28.2-.63.36-1.06.47-.42.11-.9.17-1.44.17-1.19-.04-2.11-.35-2.77-.97M144.39 328.7c-.09-.1-.13-.25-.13-.45v-5.89c0-.2.04-.35.13-.45s.24-.15.46-.15h4.05c.21 0 .35.05.43.14s.11.25.11.45v.58c0 .21-.04.36-.11.45s-.22.14-.43.14h-2.29v.9h1.41c.21 0 .35.05.43.14s.11.25.11.45v.56c0 .21-.04.36-.11.45s-.22.14-.43.14h-1.41v.9h2.28c.21 0 .35.05.43.14s.11.25.11.45v.58c0 .21-.04.36-.11.45s-.22.14-.43.14h-4.04c-.22.02-.37-.03-.46-.12M151.12 328.8c-.51-.13-.92-.32-1.23-.55-.13-.1-.2-.19-.2-.28 0-.06.02-.13.07-.2l.57-.95c.06-.09.12-.13.18-.13.05 0 .11.02.19.07.24.15.5.27.81.36.3.09.6.13.89.13.24 0 .42-.04.52-.1s.16-.18.16-.32a.42.42 0 0 0-.22-.38c-.14-.1-.39-.22-.74-.36-.66-.27-1.18-.58-1.56-.92s-.57-.8-.57-1.37c0-.72.24-1.26.71-1.63.47-.36 1.11-.55 1.91-.55.56 0 1.04.05 1.43.16.4.1.74.27 1.03.49.13.1.2.19.2.28 0 .06-.02.13-.07.2l-.57.95q-.09.15-.18.15c-.04 0-.1-.03-.19-.08-.16-.11-.34-.2-.56-.28-.22-.07-.45-.11-.69-.11-.23 0-.4.04-.52.1q-.18.105-.18.33c0 .13.04.23.12.31s.18.15.31.21c.12.06.34.15.65.29.49.21.87.41 1.16.6.28.19.49.42.64.69.14.27.22.61.22 1.02 0 .63-.22 1.13-.66 1.51-.44.39-1.1.58-1.97.58-.6-.02-1.15-.09-1.66-.22M156.6 328.04q-.9-.96-.9-2.73t.9-2.73 2.64-.96 2.64.96.9 2.73-.9 2.73-2.64.96q-1.725 0-2.64-.96m3.57-1.27c.19-.32.28-.81.28-1.46 0-.66-.09-1.15-.28-1.47s-.5-.48-.92-.48-.73.16-.92.48-.28.81-.28 1.47c0 .65.09 1.14.28 1.46s.5.48.92.48.73-.16.92-.48" class="st23"/><path d="M164.09 328.8c-.51-.13-.92-.32-1.23-.55-.13-.1-.2-.19-.2-.28 0-.06.02-.13.07-.2l.57-.95c.06-.09.12-.13.18-.13.05 0 .11.02.19.07.24.15.5.27.81.36.3.09.6.13.89.13.24 0 .42-.04.52-.1s.16-.18.16-.32a.42.42 0 0 0-.22-.38c-.14-.1-.39-.22-.74-.36-.66-.27-1.18-.58-1.56-.92s-.57-.8-.57-1.37c0-.72.24-1.26.71-1.63.47-.36 1.11-.55 1.91-.55.56 0 1.04.05 1.43.16.4.1.74.27 1.03.49.13.1.2.19.2.28 0 .06-.02.13-.07.2l-.57.95q-.09.15-.18.15c-.04 0-.1-.03-.19-.08-.16-.11-.34-.2-.56-.28-.22-.07-.45-.11-.69-.11-.23 0-.4.04-.52.1q-.18.105-.18.33c0 .13.04.23.12.31s.18.15.31.21c.12.06.34.15.65.29.49.21.87.41 1.16.6.28.19.49.42.64.69.14.27.22.61.22 1.02 0 .63-.22 1.13-.66 1.51-.44.39-1.1.58-1.97.58-.6-.02-1.15-.09-1.66-.22" class="st23"/><path d="m194.757 315.42 38.16-19.36 2.262 4.46-38.16 19.358z" class="st2"/></g><g id="Capa_10"><ellipse cx="265.4" cy="140.49" class="st33" rx="5.87" ry="6.24"/><path d="M265.4 147.24c-3.51 0-6.37-3.02-6.37-6.74s2.86-6.74 6.37-6.74 6.37 3.02 6.37 6.74c0 3.71-2.86 6.74-6.37 6.74m0-12.49c-2.96 0-5.37 2.58-5.37 5.74 0 3.17 2.41 5.74 5.37 5.74s5.37-2.58 5.37-5.74-2.41-5.74-5.37-5.74" class="st34"/><ellipse cx="226.65" cy="214.16" class="st33" rx="5.87" ry="6.24"/><path d="M226.65 220.9c-3.51 0-6.37-3.02-6.37-6.74s2.86-6.74 6.37-6.74 6.37 3.02 6.37 6.74-2.86 6.74-6.37 6.74m0-12.48c-2.96 0-5.37 2.58-5.37 5.74 0 3.17 2.41 5.74 5.37 5.74s5.37-2.58 5.37-5.74c0-3.17-2.41-5.74-5.37-5.74" class="st34"/><ellipse cx="238.39" cy="295.32" class="st33" rx="5.87" ry="6.24"/><path d="M238.39 302.06c-3.51 0-6.37-3.03-6.37-6.74s2.86-6.74 6.37-6.74 6.37 3.02 6.37 6.74-2.86 6.74-6.37 6.74m0-12.49c-2.96 0-5.37 2.58-5.37 5.74 0 3.17 2.41 5.74 5.37 5.74s5.37-2.58 5.37-5.74-2.41-5.74-5.37-5.74" class="st34"/></g><g id="Capa_11"><path d="m641.8 277.7.81 34.28" class="st21"/><path d="m639.305 277.718 4.999-.118.809 34.28-4.999.118z" class="st22"/><path d="m641.8 277.7 9.69 4.24" class="st21"/><path d="m640.823 279.958 2.007-4.58 9.69 4.246-2.006 4.58z" class="st22"/><path d="m642.61 277.7-9.69 4.24" class="st21"/><path d="m631.892 279.662 9.69-4.245 2.007 4.579-9.69 4.246z" class="st22"/><path d="m642.61 313.28 9.69-4.24" class="st21"/><path d="m641.58 311 9.69-4.245 2.007 4.58-9.69 4.245z" class="st22"/><path d="m643.42 313.28-9.69-4.24" class="st21"/><path d="m632.749 311.306 2.006-4.58 9.692 4.245-2.007 4.58z" class="st22"/></g><g id="Capa_12"><path d="M845.69 231.26c0 55.51 42.32 100.51 94.52 100.51s94.52-45 94.52-100.51-42.32-100.51-94.52-100.51-94.52 45-94.52 100.51m19.96-.62c0-44.13 33.65-79.91 75.15-79.91s75.15 35.78 75.15 79.91-33.65 79.91-75.15 79.91-75.15-35.78-75.15-79.91" class="st2"/><path d="M881.59 235.57c-.12-.13-.18-.34-.18-.62v-9.4q0-.42.18-.63c.12-.14.33-.2.61-.2h1.48c.3 0 .5.07.63.2s.18.34.18.63v9.4c0 .28-.06.49-.18.62s-.33.19-.63.19h-1.48c-.29.01-.5-.06-.61-.19M885.98 235.57c-.12-.13-.18-.34-.18-.62v-9.41c0-.28.06-.49.18-.62s.33-.19.63-.19h1.21c.18 0 .33.03.44.08s.21.16.31.32l3.53 5.39v-4.97q0-.42.18-.63c.18-.21.33-.2.61-.2h1.48c.3 0 .5.07.63.2s.18.34.18.63v9.41c0 .28-.06.48-.18.61s-.33.19-.63.19h-1.21c-.19 0-.34-.02-.44-.07s-.2-.15-.31-.32l-3.53-5.39v4.98c0 .28-.06.48-.18.61s-.33.19-.63.19h-1.48c-.29.01-.49-.06-.61-.19M899.15 235.57c-.12-.13-.18-.34-.18-.62v-7.86h-2.35c-.28 0-.48-.06-.58-.19s-.15-.33-.15-.61v-.76c0-.28.05-.49.15-.62s.3-.19.58-.19h7.8c.29 0 .48.06.59.19s.16.34.16.62v.76c0 .28-.05.48-.16.61s-.3.19-.59.19h-2.35v7.86c0 .28-.06.49-.18.62s-.33.19-.63.19h-1.48c-.3.01-.51-.06-.63-.19M906.04 235.57c-.12-.13-.18-.34-.18-.62v-9.4q0-.42.18-.63c.12-.14.33-.2.61-.2h6.33c.28 0 .48.06.58.19q.15.18.15.63v.75q0 .435-.15.63c-.1.12-.3.19-.58.19h-4.05v1.98h2.67c.28 0 .48.06.59.19.11.12.16.33.16.62v.71c0 .29-.05.5-.16.63-.11.12-.3.19-.59.19h-2.67v2h4.03c.29 0 .48.06.58.19q.15.18.15.63v.75c0 .28-.05.48-.15.61s-.29.19-.58.19h-6.32c-.28-.03-.48-.1-.6-.23" class="st1"/><path d="M915.08 234.54q-1.5-1.47-1.5-4.29c0-2.82.5-3.31 1.5-4.29s2.4-1.47 4.21-1.47c.78 0 1.5.08 2.14.25s1.18.4 1.6.71c.11.08.17.17.17.28 0 .06-.04.17-.11.32l-.67 1.22q-.09.21-.24.21c-.06 0-.16-.04-.31-.11-.65-.36-1.37-.54-2.17-.54-.95 0-1.69.29-2.24.86-.54.57-.82 1.43-.82 2.56 0 1.16.24 2.02.73 2.58s1.19.84 2.09.84c.22 0 .46-.02.71-.06s.45-.1.6-.16v-1.98h-1.31c-.29 0-.48-.06-.59-.18s-.16-.32-.16-.62v-.73c0-.28.05-.48.16-.6s.3-.18.59-.18h3.25c.35 0 .58.08.72.25s.2.42.2.77v3.96c0 .21-.02.37-.07.48a.84.84 0 0 1-.28.33c-.94.7-2.27 1.06-4 1.06-1.79 0-3.2-.49-4.2-1.47M924.83 235.57c-.12-.13-.18-.34-.18-.62v-9.4q0-.42.18-.63c.12-.14.33-.2.61-.2h3.75c1.41 0 2.46.31 3.13.94s1.01 1.56 1.01 2.81c0 1.55-.56 2.61-1.68 3.2l1.51 3.49c.04.09.06.17.06.26 0 .1-.03.18-.1.24s-.16.1-.27.1h-2.14a.9.9 0 0 1-.36-.06c-.09-.04-.15-.12-.19-.24l-1.27-3.29h-1.18v2.79c0 .28-.06.49-.18.62s-.33.19-.63.19h-1.48c-.27 0-.47-.07-.59-.2m4.04-5.73c.93 0 1.39-.45 1.39-1.36 0-.92-.44-1.38-1.31-1.38h-1.21v2.74zM933.36 235.47c0-.09.03-.19.08-.32l3.88-9.87c.08-.21.17-.35.27-.43s.24-.12.44-.12h1.39c.19 0 .34.04.44.12s.19.22.27.43l3.88 9.87c.05.13.08.23.08.31 0 .1-.03.17-.08.23-.06.05-.14.08-.24.08h-2.37c-.14 0-.25-.03-.34-.09a.63.63 0 0 1-.2-.3l-.53-1.56h-3.21l-.52 1.56c-.05.14-.12.24-.2.3s-.2.09-.35.09h-2.35c-.24 0-.34-.1-.34-.3m6.27-3.86-.93-2.76-.93 2.76zM945.42 234.54q-1.5-1.47-1.5-4.29c0-1.89.49-3.33 1.46-4.3s2.36-1.46 4.16-1.46c.78 0 1.49.08 2.12.25s1.16.4 1.59.71c.11.08.17.17.17.29 0 .08-.04.19-.11.34l-.66 1.18q-.09.21-.24.21c-.06 0-.16-.04-.31-.11-.61-.36-1.33-.54-2.15-.54q-1.425 0-2.19.87c-.51.58-.77 1.43-.77 2.56s.27 1.98.82 2.56 1.3.88 2.24.88c.83 0 1.57-.18 2.21-.54.14-.08.24-.11.31-.11.09 0 .17.06.24.19l.69 1.25c.06.11.09.21.09.29 0 .1-.06.19-.18.29-.85.63-2.12.94-3.79.94-1.8.01-3.21-.48-4.2-1.46M954.76 235.57c-.12-.13-.18-.34-.18-.62v-9.4q0-.42.18-.63c.12-.14.33-.2.61-.2h1.48c.3 0 .5.07.63.2s.18.34.18.63v9.4c0 .28-.06.49-.18.62s-.33.19-.63.19h-1.48c-.28.01-.49-.06-.61-.19M960.06 234.51q-1.38-1.5-1.38-4.26t1.38-4.26c1.38-1.5 2.27-1.5 4.04-1.5s3.12.5 4.04 1.5q1.38 1.5 1.38 4.26t-1.38 4.26c-.92 1-2.27 1.5-4.04 1.5s-3.12-.5-4.04-1.5m5.82-1.68q.57-.855.57-2.58c0-1.14-.19-1.99-.57-2.56s-.97-.86-1.78-.86c-.8 0-1.4.29-1.78.86s-.57 1.43-.57 2.56q0 1.725.57 2.58c.38.57.97.86 1.78.86.8 0 1.4-.29 1.78-.86M970.7 235.57c-.12-.13-.18-.34-.18-.62v-9.41c0-.28.06-.49.18-.62s.33-.19.63-.19h1.21c.18 0 .33.03.44.08s.21.16.31.32l3.53 5.39v-4.97q0-.42.18-.63c.18-.21.33-.2.61-.2h1.48c.3 0 .5.07.63.2s.18.34.18.63v9.41c0 .28-.06.48-.18.61s-.33.19-.63.19h-1.21c-.19 0-.34-.02-.44-.07s-.2-.15-.31-.32l-3.53-5.39v4.98c0 .28-.06.48-.18.61s-.33.19-.63.19h-1.48c-.29.01-.49-.06-.61-.19M981.39 235.57c-.12-.13-.18-.34-.18-.62v-9.4q0-.42.18-.63c.12-.14.33-.2.61-.2h6.33c.28 0 .48.06.58.19q.15.18.15.63v.75q0 .435-.15.63c-.1.12-.3.19-.58.19h-4.05v1.98h2.67c.28 0 .48.06.59.19.11.12.16.33.16.62v.71c0 .29-.05.5-.16.63-.11.12-.3.19-.59.19h-2.67v2h4.03c.29 0 .48.06.58.19q.15.18.15.63v.75c0 .28-.05.48-.15.61s-.29.19-.58.19H982c-.29-.03-.5-.1-.61-.23M991.73 235.73c-.76-.19-1.38-.46-1.85-.8-.17-.12-.26-.24-.26-.37 0-.09.03-.18.09-.28l.75-1.27c.08-.13.16-.19.24-.19.05 0 .14.04.26.11.38.23.8.41 1.28.55s.95.21 1.42.21c.48 0 .83-.08 1.06-.23s.34-.4.34-.73c0-.32-.13-.58-.37-.76-.25-.18-.72-.42-1.4-.7-1.03-.41-1.83-.87-2.4-1.39-.57-.51-.86-1.21-.86-2.1 0-1.07.36-1.89 1.08-2.45q1.08-.84 2.88-.84c.83 0 1.55.08 2.15.24s1.1.4 1.52.72c.17.14.26.27.26.39 0 .08-.03.16-.09.26l-.75 1.27c-.09.13-.17.19-.24.19-.05 0-.14-.04-.26-.11-.59-.41-1.29-.62-2.11-.62-.44 0-.77.08-1.01.23-.23.15-.35.4-.35.75 0 .24.06.43.18.58s.29.28.5.4c.21.11.53.26.97.43l.29.11c.75.31 1.35.61 1.78.9s.76.64.98 1.06.34.94.34 1.57q0 1.44-1.02 2.31c-.68.57-1.67.86-2.98.86-.85-.02-1.66-.12-2.42-.3" class="st1"/></g><path id="Capa_13" d="M1056.42 227.22c0-64.84-48.64-117.52-109.03-118.61v-9.19c65.76 1.63 118.59 59.14 118.59 129.85s-52.84 128.22-118.59 129.85v-13.28c60.39-1.1 109.03-53.78 109.03-118.62" style="fill:#35c5c5"/><g id="Capa_14"><ellipse cx="952.09" cy="104.78" class="st33" rx="5.87" ry="6.24"/><path d="M952.09 111.52c-3.51 0-6.37-3.02-6.37-6.74s2.86-6.74 6.37-6.74 6.37 3.02 6.37 6.74-2.86 6.74-6.37 6.74m0-12.48c-2.96 0-5.37 2.58-5.37 5.74 0 3.17 2.41 5.74 5.37 5.74s5.37-2.58 5.37-5.74c0-3.17-2.41-5.74-5.37-5.74" class="st34"/><ellipse cx="953.26" cy="353.25" class="st33" rx="5.87" ry="6.24"/><path d="M953.26 359.99c-3.51 0-6.37-3.03-6.37-6.74s2.86-6.74 6.37-6.74 6.37 3.03 6.37 6.74-2.86 6.74-6.37 6.74m0-12.49c-2.96 0-5.37 2.58-5.37 5.74s2.41 5.74 5.37 5.74 5.37-2.58 5.37-5.74-2.41-5.74-5.37-5.74" class="st34"/><ellipse cx="1061.29" cy="220.9" class="st33" rx="5.87" ry="6.24"/><path d="M1061.29 227.64c-3.51 0-6.37-3.02-6.37-6.74s2.86-6.74 6.37-6.74 6.37 3.02 6.37 6.74-2.86 6.74-6.37 6.74m0-12.48c-2.96 0-5.37 2.58-5.37 5.74 0 3.17 2.41 5.74 5.37 5.74s5.37-2.58 5.37-5.74c0-3.17-2.41-5.74-5.37-5.74" class="st34"/><ellipse cx="1029.59" cy="143.49" class="st33" rx="5.87" ry="6.24"/><path d="M1029.58 150.23c-3.51 0-6.37-3.02-6.37-6.74s2.86-6.74 6.37-6.74 6.37 3.02 6.37 6.74c.01 3.72-2.85 6.74-6.37 6.74m0-12.49c-2.96 0-5.37 2.58-5.37 5.74 0 3.17 2.41 5.74 5.37 5.74s5.37-2.58 5.37-5.74c.01-3.16-2.4-5.74-5.37-5.74" class="st34"/><ellipse cx="1034.28" cy="307.05" class="st33" rx="5.87" ry="6.24"/><path d="M1034.28 313.79c-3.51 0-6.37-3.03-6.37-6.74s2.86-6.74 6.37-6.74 6.37 3.02 6.37 6.74-2.86 6.74-6.37 6.74m0-12.48c-2.96 0-5.37 2.58-5.37 5.74 0 3.17 2.41 5.74 5.37 5.74s5.37-2.58 5.37-5.74c0-3.17-2.41-5.74-5.37-5.74" class="st34"/></g><g id="Capa_15"><path d="M1107.94 43.36h-69.82a24.5 24.5 0 0 0-14.52-4.74c-13.61 0-24.64 11.04-24.64 24.66s11.03 24.66 24.64 24.66c5.99 0 11.47-2.14 15.74-5.69h68.6c6.25 0 11.37-5.12 11.37-11.38V54.74c0-6.26-5.11-11.38-11.37-11.38" class="st33"/><ellipse cx="1023.6" cy="63.28" class="st9" rx="19.9" ry="19.92"/><ellipse cx="1023.84" cy="63.51" class="st36" rx="12.56" ry="12.57"/><path d="M1055.32 58.89c-1.15 0-2.07-.37-2.75-1.11s-1.02-1.78-1.02-3.12c0-1.29.34-2.33 1.02-3.1s1.59-1.15 2.75-1.15c.31 0 .58.02.82.05.25.04.48.09.7.15.17.05.37.13.57.23.21.1.37.18.5.25v1.95h-.2c-.09-.09-.21-.19-.35-.32q-.21-.18-.48-.36c-.18-.12-.38-.22-.59-.3s-.44-.12-.67-.12c-.28 0-.53.05-.77.14s-.45.25-.66.49c-.19.21-.35.49-.47.85q-.18.525-.18 1.26c0 .51.06.94.19 1.28.13.35.29.62.5.84.2.2.42.35.67.44s.49.14.74.14.5-.04.73-.13.42-.19.58-.3c.17-.11.32-.23.45-.35s.24-.22.34-.31h.18v1.92c-.14.07-.3.15-.49.24s-.38.17-.57.23c-.24.08-.47.14-.68.18-.2.01-.49.03-.86.03M1066.06 54.65c0 1.32-.33 2.36-1 3.12q-.99 1.14-2.73 1.14c-1.16 0-2.07-.38-2.73-1.15s-.99-1.8-.99-3.1c0-1.31.33-2.35.99-3.11q.99-1.14 2.73-1.14t2.73 1.14c.66.74 1 1.78 1 3.1m-2-.01c0-.49-.05-.9-.14-1.24s-.22-.62-.38-.84c-.17-.22-.35-.38-.56-.48s-.42-.15-.65-.15c-.24 0-.45.04-.64.13s-.38.25-.56.48c-.16.21-.29.49-.38.84q-.15.525-.15 1.26c0 .5.05.92.14 1.25s.22.61.38.83c.17.23.35.39.56.49s.43.15.65.15c.23 0 .45-.05.66-.16.21-.1.4-.27.55-.49.17-.24.29-.51.38-.83.1-.31.14-.73.14-1.24M1073.78 58.73h-1.86l-2.96-5.7v5.7h-1.76v-8.17h2.37l2.45 4.68v-4.68h1.76zM1076.82 58.73v-6.61h-2.27v-1.56h6.47v1.56h-2.27v6.61zM1080.98 58.73l2.6-8.17h2.11l2.6 8.17h-1.99l-.48-1.67h-2.42l-.48 1.67zm4.41-3.15-.78-2.69-.79 2.69zM1092.36 58.89c-1.15 0-2.07-.37-2.75-1.11s-1.02-1.78-1.02-3.12c0-1.29.34-2.33 1.02-3.1s1.59-1.15 2.75-1.15c.31 0 .58.02.83.05.24.04.48.09.7.15.18.05.37.13.57.23.21.1.37.18.5.25v1.95h-.2c-.09-.09-.21-.19-.35-.32q-.21-.18-.48-.36c-.18-.12-.38-.22-.59-.3s-.44-.12-.67-.12c-.28 0-.53.05-.77.14-.23.09-.45.25-.66.49-.19.21-.35.49-.47.85q-.18.525-.18 1.26c0 .51.06.94.19 1.28s.29.62.5.84c.2.2.42.35.67.44s.49.14.74.14.5-.04.73-.13.42-.19.58-.3c.17-.11.32-.23.45-.35s.24-.22.34-.31h.17v1.92c-.14.07-.3.15-.49.24s-.38.17-.57.23c-.24.08-.47.14-.68.18-.21.01-.49.03-.86.03M1097.57 58.73v-6.61h-2.27v-1.56h6.47v1.56h-2.27v6.61zM1055.32 72.37c-1.15 0-2.07-.37-2.75-1.11s-1.02-1.78-1.02-3.12c0-1.29.34-2.33 1.02-3.1s1.59-1.15 2.75-1.15c.31 0 .58.02.82.05.25.04.48.09.7.15.17.05.37.13.57.23.21.1.37.18.5.25v1.95h-.2c-.09-.09-.21-.19-.35-.32q-.21-.18-.48-.36c-.18-.12-.38-.22-.59-.3s-.44-.12-.67-.12c-.28 0-.53.05-.77.14s-.45.25-.66.49c-.19.21-.35.49-.47.85q-.18.525-.18 1.26c0 .51.06.94.19 1.28.13.35.29.62.5.84.2.2.42.35.67.44s.49.14.74.14.5-.04.73-.13.42-.19.58-.3c.17-.11.32-.23.45-.35s.24-.22.34-.31h.18v1.92c-.14.07-.3.15-.49.24s-.38.17-.57.23c-.24.08-.47.14-.68.18-.2.01-.49.03-.86.03M1059.06 72.21v-8.17h5.2v1.56h-3.28v1.43h3.02v1.56h-3.02v2.06h3.28v1.56zM1072.15 72.21h-1.86l-2.96-5.7v5.7h-1.76v-8.17h2.37l2.45 4.68v-4.68h1.76zM1075.18 72.21V65.6h-2.27v-1.56h6.47v1.56h-2.27v6.61zM1080.17 72.21v-8.17h5.2v1.56h-3.28v1.43h3.02v1.56h-3.02v2.06h3.28v1.56zM1093.78 72.21h-2.35l-2.14-3h-.69v3h-1.92v-8.17h3.09c.43 0 .8.03 1.11.08s.61.17.88.35c.28.19.49.42.66.71.16.29.24.65.24 1.09 0 .63-.13 1.13-.4 1.52s-.62.7-1.06.93zm-3.1-5.66c0-.2-.04-.38-.11-.53a.73.73 0 0 0-.37-.34c-.12-.05-.25-.09-.4-.1s-.33-.02-.55-.02h-.65v2.2h.55c.27 0 .5-.02.68-.05a1.01 1.01 0 0 0 .76-.59c.06-.16.09-.34.09-.57" class="st37"/></g><g id="Capa_16"><path d="M1169.97 116.02h-69.82a24.5 24.5 0 0 0-14.52-4.74c-13.61 0-24.64 11.04-24.64 24.66s11.03 24.66 24.64 24.66c5.99 0 11.47-2.14 15.74-5.69h68.6c6.25 0 11.37-5.12 11.37-11.38V127.4c0-6.26-5.12-11.38-11.37-11.38" class="st33"/><ellipse cx="1085.63" cy="135.93" class="st9" rx="19.9" ry="19.92"/><ellipse cx="1085.86" cy="136.17" class="st36" rx="12.56" ry="12.57"/><path d="M1124.04 131.38h-1.93v-3.62h-2.63v3.62h-1.93v-8.17h1.93v2.99h2.63v-2.99h1.93zM1125.63 131.38v-8.17h5.2v1.56h-3.28v1.43h3.02v1.56h-3.02v2.06h3.28v1.56zM1137.26 131.38h-5.13v-8.17h1.93v6.61h3.2zM1144.09 125.79c0 .38-.06.74-.17 1.09-.11.34-.28.63-.49.86-.13.14-.27.27-.43.4-.16.12-.33.22-.52.31-.19.08-.4.15-.62.2s-.47.07-.75.07h-1.01v2.67h-1.93v-8.17h2.98c.44 0 .83.04 1.15.13s.61.22.87.41c.29.21.51.48.67.82.17.33.25.74.25 1.21m-1.98.05q0-.345-.15-.6a.8.8 0 0 0-.37-.34c-.18-.08-.36-.13-.52-.15s-.39-.02-.68-.02h-.27v2.45h.13c.18 0 .35 0 .52-.01.16 0 .3-.02.42-.04.1-.02.21-.05.33-.11q.165-.075.27-.18.195-.21.27-.42c.03-.13.05-.33.05-.58M1124.42 140.79c0 .76-.16 1.44-.47 2.04s-.71 1.06-1.19 1.39c-.4.27-.83.45-1.3.53q-.705.12-1.5.12h-2.4v-8.17h2.38c.54 0 1.05.04 1.52.11s.91.25 1.33.53c.51.34.91.81 1.2 1.39.28.58.43 1.27.43 2.06m-1.98-.02c0-.54-.09-1-.26-1.38s-.44-.68-.8-.9c-.26-.15-.54-.24-.82-.25s-.63-.02-1.03-.02h-.04v5.11h.04c.43 0 .8-.01 1.1-.02.3-.02.58-.11.85-.29.32-.21.56-.5.72-.88s.24-.83.24-1.37M1125.56 144.87v-8.17h5.2v1.56h-3.28v1.43h3.02v1.56h-3.02v2.06h3.28v1.56zM1134.43 145.02a6 6 0 0 1-1.55-.18c-.45-.12-.86-.27-1.24-.45v-1.94h.17c.39.35.81.61 1.28.8.46.19.91.28 1.35.28.11 0 .25-.01.44-.04.18-.03.33-.07.44-.12.13-.06.25-.15.34-.26s.14-.26.14-.44c0-.21-.08-.37-.23-.5s-.33-.22-.54-.28q-.39-.105-.84-.21c-.3-.07-.58-.15-.83-.24-.59-.22-1.02-.52-1.28-.9s-.39-.85-.39-1.42c0-.76.3-1.38.91-1.86.61-.47 1.37-.71 2.28-.71.46 0 .91.05 1.37.15.45.1.86.23 1.21.4v1.87h-.17c-.29-.26-.63-.48-1.04-.66s-.83-.27-1.27-.27c-.17 0-.32.01-.45.04q-.195.045-.42.15c-.12.06-.22.15-.31.26-.09.12-.13.24-.13.39 0 .21.07.37.21.5q.21.18.81.33.39.09.75.18c.24.06.5.14.77.24.53.21.93.48 1.19.83s.39.8.39 1.37c0 .81-.3 1.46-.9 1.96-.62.48-1.43.73-2.46.73M1145.49 144.87h-2.33l-2.09-3.32-.38.56v2.76h-1.93v-8.17h1.93v3.63l2.46-3.63h2.23l-2.74 3.79z" class="st37"/></g><g id="Capa_17"><path d="M1194.63 194.67h-69.82a24.5 24.5 0 0 0-14.52-4.74c-13.61 0-24.64 11.04-24.64 24.66s11.03 24.66 24.64 24.66c5.99 0 11.47-2.14 15.74-5.69h68.6c6.25 0 11.37-5.12 11.37-11.38v-16.12c0-6.27-5.12-11.39-11.37-11.39" class="st33"/><ellipse cx="1110.28" cy="214.59" class="st9" rx="19.9" ry="19.92"/><ellipse cx="1110.52" cy="214.82" class="st36" rx="12.56" ry="12.57"/><path d="M1142.51 217.53v-6.61h-2.27v-1.56h6.47v1.56h-2.27v6.61zM1151.34 217.53h-4.14v-1.43h1.1v-5.32h-1.1v-1.43h4.14v1.43h-1.1v5.32h1.1zM1155.93 217.69c-1.15 0-2.07-.37-2.75-1.11s-1.02-1.78-1.02-3.12c0-1.29.34-2.33 1.02-3.1s1.59-1.15 2.75-1.15c.31 0 .58.02.83.05.24.04.48.09.7.15.18.05.37.13.57.23.21.1.37.18.5.25v1.95h-.2c-.09-.09-.21-.19-.35-.32q-.21-.18-.48-.36c-.18-.12-.38-.22-.59-.3s-.44-.12-.67-.12c-.28 0-.53.05-.77.14-.23.09-.45.25-.66.49-.19.21-.35.49-.47.85q-.18.525-.18 1.26c0 .51.06.94.19 1.28s.29.62.5.84c.2.2.42.35.67.44s.49.14.74.14.5-.04.73-.13.42-.19.58-.3c.17-.11.32-.23.45-.35s.24-.22.34-.31h.17v1.92c-.14.07-.3.15-.49.24s-.38.17-.57.23c-.24.08-.47.14-.68.18-.2.01-.49.03-.86.03M1166.41 217.53h-2.33l-2.09-3.32-.38.56v2.76h-1.93v-8.17h1.93v3.63l2.46-3.63h2.23l-2.74 3.79zM1167.03 217.53v-8.17h5.2v1.56h-3.28v1.43h3.02v1.56h-3.02v2.06h3.28v1.56zM1175.01 217.53v-6.61h-2.27v-1.56h6.47v1.56h-2.27v6.61zM1182.38 217.68a6 6 0 0 1-1.55-.18c-.45-.12-.86-.27-1.24-.45v-1.94h.17c.39.35.81.61 1.28.8.46.19.91.28 1.35.28.11 0 .25-.01.44-.04.18-.03.33-.07.44-.12.13-.06.25-.15.34-.26s.14-.26.14-.44c0-.21-.08-.37-.23-.5s-.33-.22-.54-.28q-.39-.105-.84-.21c-.3-.07-.58-.15-.83-.24-.59-.22-1.02-.52-1.28-.9s-.39-.85-.39-1.42c0-.76.3-1.38.91-1.86.61-.47 1.37-.71 2.28-.71.46 0 .91.05 1.37.15.45.1.86.23 1.21.4v1.87h-.17c-.29-.26-.63-.48-1.04-.66s-.83-.27-1.27-.27c-.17 0-.32.01-.45.04q-.195.045-.42.15c-.12.06-.22.15-.31.26-.09.12-.13.24-.13.39 0 .21.07.37.21.5q.21.18.81.33.39.09.75.18c.24.06.5.14.77.24.53.21.93.48 1.19.83s.39.8.39 1.37c0 .81-.3 1.46-.9 1.96-.63.48-1.44.73-2.46.73" class="st37"/></g><g id="Capa_18"><path d="M1171.4 295.56h-69.82a24.5 24.5 0 0 0-14.52-4.74c-13.61 0-24.64 11.04-24.64 24.66s11.03 24.66 24.64 24.66c5.99 0 11.47-2.14 15.74-5.69h68.6c6.25 0 11.37-5.12 11.37-11.38v-16.12c0-6.27-5.11-11.39-11.37-11.39" class="st33"/><ellipse cx="1087.06" cy="315.47" class="st9" rx="19.9" ry="19.92"/><ellipse cx="1087.29" cy="315.71" class="st36" rx="12.56" ry="12.57"/><path d="M1117.81 310.92v-8.17h5.2v1.56h-3.28v1.43h3.02v1.56h-3.02v2.06h3.28v1.56zM1131.42 310.92h-2.35l-2.14-3h-.69v3h-1.92v-8.17h3.09c.43 0 .8.03 1.11.08s.61.17.88.35c.28.19.49.42.66.71.16.29.24.65.24 1.09 0 .63-.13 1.13-.4 1.52s-.62.7-1.06.93zm-3.11-5.66c0-.21-.04-.38-.11-.53s-.2-.26-.37-.34c-.12-.06-.25-.09-.4-.1s-.33-.02-.55-.02h-.65v2.2h.55c.27 0 .5-.02.68-.05a1.01 1.01 0 0 0 .76-.59c.06-.16.09-.34.09-.57M1137.9 305.33c0 .38-.06.74-.17 1.09-.11.34-.28.63-.49.86-.13.14-.27.27-.43.4-.16.12-.33.22-.52.31-.19.08-.4.15-.62.2s-.47.07-.75.07h-1.01v2.67h-1.93v-8.17h2.98c.44 0 .83.04 1.15.13s.61.22.87.41c.29.2.51.48.67.82.17.33.25.74.25 1.21m-1.98.05c0-.23-.05-.43-.15-.59a.8.8 0 0 0-.37-.34c-.18-.08-.36-.13-.52-.14-.17-.01-.39-.02-.68-.02h-.27v2.45h.13c.18 0 .35 0 .52-.01.16 0 .3-.02.42-.04.1-.02.21-.05.33-.11q.165-.075.27-.18.195-.21.27-.42c.03-.15.05-.35.05-.6M1121.13 324.57c-1.15 0-2.07-.37-2.75-1.11s-1.02-1.78-1.02-3.13c0-1.29.34-2.33 1.02-3.1s1.59-1.16 2.75-1.16c.31 0 .58.02.83.05.24.04.48.09.7.15.18.05.37.13.57.22.21.09.37.18.5.25v1.95h-.2c-.09-.09-.21-.19-.35-.32q-.21-.18-.48-.36c-.27-.18-.38-.22-.59-.3s-.44-.12-.67-.12c-.28 0-.53.05-.77.14-.23.09-.45.25-.66.49a2.4 2.4 0 0 0-.47.84c-.12.36-.18.77-.18 1.26 0 .51.06.94.19 1.28s.29.63.5.84c.2.21.42.35.67.44s.49.14.74.14.5-.04.73-.13.42-.19.58-.3c.17-.11.32-.23.45-.34.13-.12.24-.22.34-.31h.17v1.92c-.14.07-.3.15-.49.24s-.38.17-.57.23c-.24.08-.47.14-.68.18s-.5.06-.86.06M1131.97 324.41h-2.35l-2.14-3h-.69v3h-1.92v-8.17h3.09c.43 0 .8.03 1.11.08s.61.17.88.35c.28.19.49.42.66.71.16.29.24.65.24 1.09 0 .63-.13 1.13-.4 1.52s-.62.7-1.06.93zm-3.1-5.67c0-.21-.04-.38-.11-.53s-.2-.26-.37-.34c-.12-.06-.25-.09-.4-.1s-.33-.02-.55-.02h-.65v2.2h.55c.27 0 .5-.02.68-.05a1.01 1.01 0 0 0 .76-.59q.09-.225.09-.57M1140.39 324.41h-1.92v-5.42l-1.4 3.5h-1.32l-1.4-3.5v5.42h-1.82v-8.17h2.22l1.7 4.03 1.7-4.03h2.22v8.17z" class="st37"/></g><g id="Capa_19"><path d="M1104.68 364.71h-69.82a24.5 24.5 0 0 0-14.52-4.74c-13.61 0-24.64 11.04-24.64 24.66s11.03 24.66 24.64 24.66c5.99 0 11.47-2.14 15.74-5.69h68.6c6.25 0 11.37-5.12 11.37-11.38V376.1c0-6.27-5.12-11.39-11.37-11.39" class="st33"/><ellipse cx="1020.33" cy="384.62" class="st9" rx="19.9" ry="19.92"/><ellipse cx="1020.57" cy="384.86" class="st36" rx="12.56" ry="12.57"/><path d="M1058.41 377.57c0 .41-.07.76-.22 1.07-.14.31-.34.56-.58.76-.29.24-.61.41-.95.52s-.79.15-1.32.15h-3.08v-8.17h2.71c.56 0 .99.02 1.28.07s.56.14.82.29c.28.16.48.37.62.63s.2.57.2.91c0 .4-.09.75-.28 1.06s-.45.54-.78.69v.04c.47.11.86.32 1.14.65s.44.78.44 1.33m-2.47-3.36c0-.13-.03-.27-.1-.41a.55.55 0 0 0-.3-.3 1.2 1.2 0 0 0-.45-.1c-.17 0-.43-.01-.78-.01h-.13v1.73h.24c.33 0 .56 0 .69-.01s.27-.04.41-.12c.16-.08.26-.18.32-.32.07-.12.1-.28.1-.46m.48 3.32c0-.25-.05-.45-.14-.59a.9.9 0 0 0-.43-.32c-.12-.05-.28-.07-.48-.08s-.48-.01-.82-.01h-.36v2.05h.1c.5 0 .85 0 1.04-.01s.39-.06.59-.15c.18-.08.3-.2.38-.35q.12-.24.12-.54M1058.69 380.07l2.6-8.17h2.11l2.6 8.17h-2l-.48-1.67h-2.42l-.48 1.67zm4.4-3.15-.78-2.69-.79 2.69zM1070.06 380.23c-1.15 0-2.07-.37-2.75-1.11s-1.02-1.78-1.02-3.13c0-1.29.34-2.33 1.02-3.1s1.59-1.16 2.75-1.16c.31 0 .58.02.82.05.25.04.48.09.7.15.17.05.37.13.57.22.21.09.37.18.5.25v1.95h-.2c-.09-.09-.21-.19-.35-.32q-.21-.18-.48-.36c-.27-.18-.38-.22-.59-.3s-.44-.12-.67-.12c-.28 0-.53.05-.77.14-.23.09-.45.25-.66.49a2.4 2.4 0 0 0-.47.84c-.12.36-.18.77-.18 1.26 0 .51.06.94.19 1.28.13.35.29.63.5.84.2.21.42.35.67.44s.49.14.74.14.5-.04.73-.13.42-.19.58-.3c.17-.11.32-.23.45-.34.13-.12.24-.22.34-.31h.17v1.92c-.14.07-.3.15-.49.24s-.38.17-.57.23c-.24.08-.47.14-.68.18-.19.04-.48.06-.85.06M1080.54 380.07h-2.33l-2.09-3.32-.38.56v2.76h-1.93v-8.17h1.93v3.63l2.46-3.63h2.23l-2.74 3.79zM1059.26 389.48c0 1.32-.33 2.36-1 3.12q-.99 1.14-2.73 1.14c-1.16 0-2.07-.38-2.73-1.15s-.99-1.8-.99-3.1c0-1.31.33-2.35.99-3.11q.99-1.14 2.73-1.14t2.73 1.14c.67.74 1 1.78 1 3.1m-1.99-.01c0-.49-.05-.9-.14-1.24s-.22-.62-.38-.84c-.17-.22-.35-.38-.56-.48s-.42-.14-.65-.14c-.24 0-.45.04-.65.13-.19.09-.38.25-.56.48-.16.21-.29.49-.38.84q-.15.525-.15 1.26c0 .5.05.92.14 1.25s.22.61.38.83c.16.23.35.39.56.49s.43.15.65.15c.23 0 .45-.05.66-.16.21-.1.4-.27.55-.49.17-.24.29-.51.38-.83s.15-.74.15-1.25M1065.55 386.95h-3.23v1.54h2.97v1.56h-2.97v3.51h-1.92v-8.17h5.15zM1071.69 386.95h-3.22v1.54h2.97v1.56h-2.97v3.51h-1.92v-8.17h5.14zM1076.51 393.56h-4.14v-1.43h1.1v-5.32h-1.1v-1.43h4.14v1.43h-1.1v5.32h1.1zM1081.1 393.72c-1.15 0-2.07-.37-2.75-1.11s-1.02-1.78-1.02-3.13c0-1.29.34-2.33 1.02-3.1s1.59-1.16 2.75-1.16c.31 0 .58.02.83.05.24.04.48.09.7.15.18.05.37.13.57.22.21.09.37.18.5.25v1.95h-.2c-.09-.09-.21-.19-.35-.32q-.21-.18-.48-.36c-.27-.18-.38-.22-.59-.3s-.44-.12-.67-.12c-.28 0-.53.05-.77.14-.23.09-.45.25-.66.49a2.4 2.4 0 0 0-.47.84c-.12.36-.18.77-.18 1.26 0 .51.06.94.19 1.28s.29.63.5.84c.2.21.42.35.67.44s.49.14.74.14.5-.04.73-.13.42-.19.58-.3c.17-.11.32-.23.45-.34.13-.12.24-.22.34-.31h.17v1.92c-.14.07-.3.15-.49.24s-.38.17-.57.23c-.24.08-.47.14-.68.18s-.49.06-.86.06M1084.84 393.56v-8.17h5.2v1.56h-3.28v1.43h3.02v1.56h-3.02V392h3.28v1.56z" class="st37"/></g><g id="Capa_20"><ellipse cx="424.5" cy="232.01" class="st33" rx="8.81" ry="9.36"/><path d="M424.5 241.87c-5.13 0-9.31-4.43-9.31-9.86 0-5.44 4.17-9.86 9.31-9.86s9.31 4.43 9.31 9.86c0 5.44-4.18 9.86-9.31 9.86m0-18.73c-4.58 0-8.31 3.98-8.31 8.86 0 4.89 3.73 8.86 8.31 8.86s8.31-3.98 8.31-8.86-3.73-8.86-8.31-8.86" class="st34"/></g><g id="Capa_21"><ellipse cx="855.26" cy="230.77" class="st33" rx="8.81" ry="9.36"/><path d="M855.26 240.63c-5.13 0-9.31-4.43-9.31-9.86s4.17-9.86 9.31-9.86 9.31 4.43 9.31 9.86-4.18 9.86-9.31 9.86m0-18.73c-4.58 0-8.31 3.98-8.31 8.86s3.73 8.86 8.31 8.86 8.31-3.98 8.31-8.86-3.73-8.86-8.31-8.86" class="st34"/></g></svg>