<svg xmlns="http://www.w3.org/2000/svg" xml:space="preserve" viewBox="0 0 1000 613"><style>.st1{fill:#fff}.st2{fill:none;stroke:#348dd6;stroke-width:16;stroke-miterlimit:10;stroke-dasharray:12}.st3{fill:#f2f2f2}.st5{fill:#eaccb0}.st6{fill:#f2d4b6}.st7{fill:#c1d4f2}.st8{fill:#9baec9}.st9{fill:#447ab7}.st10{fill:none}.st12{fill:#4d342f}.st13{fill:#674843}.st14{fill:#264847}.st16{fill:#543b39}.st18{fill:#3a3a3a}.st19{fill:#89b749}.st20{fill:#f7ddcb}.st22{fill:#ffe6d4}.st23{fill:#534d46}.st26{fill:#f5f5f5}.st27{fill:#eaeaea}.st29{fill:#fcc232}.st30{fill:#f9b234}.st33{fill:#939393}.st35{fill:#828282}.st36,.st37{fill:none;stroke-width:16;stroke-miterlimit:10}.st36{stroke:#3b7f0e;stroke-dasharray:12}.st37{stroke:#348dd6}</style><g id="Capa_1"><path d="M790 161H271c-6.6 0-12-5.4-12-12V77c0-6.6 5.4-12 12-12h519c6.6 0 12 5.4 12 12v72c0 6.6-5.4 12-12 12" style="fill:#2c6093"/><path d="M314.32 135.93c-3.48-.79-6.25-1.9-8.33-3.33-.59-.44-.89-.94-.89-1.48 0-.44.22-1.06.67-1.85l3.7-6.36c.39-.69.86-1.04 1.41-1.04.34 0 .91.2 1.7.59 1.28.64 2.85 1.17 4.7 1.59s3.69.63 5.51.63c2.47 0 4.3-.37 5.51-1.11s1.81-1.87 1.81-3.4c0-2.37-1.6-3.55-4.81-3.55h-5.7c-1.63 0-2.78-.34-3.44-1.04-.67-.69-1-1.75-1-3.18v-4c0-1.43.33-2.49 1-3.18s1.81-1.04 3.44-1.04h4.51c1.63 0 2.81-.3 3.55-.89s1.11-1.5 1.11-2.74c0-2.37-2.05-3.55-6.14-3.55-3.31 0-6.44.74-9.4 2.22-.79.4-1.36.59-1.7.59-.54 0-1.01-.34-1.41-1.04l-3.7-6.36c-.44-.79-.67-1.41-.67-1.85 0-.54.3-1.04.89-1.48q3.18-2.145 7.92-3.33c3.16-.79 6.76-1.18 10.8-1.18 4.29 0 8.03.63 11.21 1.89s5.62 3.05 7.33 5.36c1.7 2.32 2.55 5.06 2.55 8.21 0 4.34-1.5 7.7-4.51 10.06q5.85 3.405 5.85 10.8c0 4.98-1.9 8.93-5.7 11.84s-9.28 4.37-16.43 4.37c-4.07.01-7.86-.39-11.34-1.17M359.24 135.93c-3.48-.79-6.25-1.9-8.33-3.33-.59-.44-.89-.94-.89-1.48 0-.44.22-1.06.67-1.85l3.7-6.36c.39-.69.86-1.04 1.41-1.04.34 0 .91.2 1.7.59 1.28.64 2.85 1.17 4.7 1.59s3.69.63 5.51.63c2.47 0 4.3-.37 5.51-1.11s1.81-1.87 1.81-3.4c0-2.37-1.6-3.55-4.81-3.55h-5.7c-1.63 0-2.78-.34-3.44-1.04-.67-.69-1-1.75-1-3.18v-4c0-1.43.33-2.49 1-3.18s1.81-1.04 3.44-1.04h4.51c1.63 0 2.81-.3 3.55-.89s1.11-1.5 1.11-2.74c0-2.37-2.05-3.55-6.14-3.55-3.31 0-6.44.74-9.4 2.22-.79.4-1.36.59-1.7.59-.54 0-1.01-.34-1.41-1.04l-3.7-6.36c-.44-.79-.67-1.41-.67-1.85 0-.54.3-1.04.89-1.48q3.18-2.145 7.92-3.33c3.16-.79 6.76-1.18 10.8-1.18 4.29 0 8.03.63 11.21 1.89s5.62 3.05 7.33 5.36c1.7 2.32 2.55 5.06 2.55 8.21 0 4.34-1.5 7.7-4.51 10.06q5.85 3.405 5.85 10.8c0 4.98-1.9 8.93-5.7 11.84s-9.28 4.37-16.43 4.37c-4.08.01-7.86-.39-11.34-1.17M404.16 135.93c-3.48-.79-6.25-1.9-8.33-3.33-.59-.44-.89-.94-.89-1.48 0-.44.22-1.06.67-1.85l3.7-6.36c.39-.69.86-1.04 1.41-1.04.34 0 .91.2 1.7.59 1.28.64 2.85 1.17 4.7 1.59s3.69.63 5.51.63c2.47 0 4.3-.37 5.51-1.11s1.81-1.87 1.81-3.4c0-2.37-1.6-3.55-4.81-3.55h-5.7c-1.63 0-2.78-.34-3.44-1.04-.67-.69-1-1.75-1-3.18v-4c0-1.43.33-2.49 1-3.18s1.81-1.04 3.44-1.04h4.51c1.63 0 2.81-.3 3.55-.89s1.11-1.5 1.11-2.74c0-2.37-2.05-3.55-6.14-3.55-3.31 0-6.44.74-9.4 2.22-.79.4-1.36.59-1.7.59-.54 0-1.01-.34-1.41-1.04l-3.7-6.36c-.44-.79-.67-1.41-.67-1.85 0-.54.3-1.04.89-1.48q3.18-2.145 7.92-3.33c3.16-.79 6.76-1.18 10.8-1.18 4.29 0 8.03.63 11.21 1.89s5.62 3.05 7.33 5.36c1.7 2.32 2.55 5.06 2.55 8.21 0 4.34-1.5 7.7-4.51 10.06q5.85 3.405 5.85 10.8c0 4.98-1.9 8.93-5.7 11.84s-9.28 4.37-16.43 4.37c-4.08.01-7.86-.39-11.34-1.17M446.45 130.41c-4.39-4.46-6.59-10.99-6.59-19.57s2.19-15.11 6.59-19.57c4.39-4.46 11-6.7 19.83-6.7s15.44 2.23 19.83 6.7 6.59 10.99 6.59 19.57-2.2 15.11-6.59 19.57c-4.39 4.47-11 6.7-19.83 6.7s-15.44-2.23-19.83-6.7m23.09-32.89c-.89-.34-1.97-.52-3.26-.52-3.21 0-5.46 1.09-6.77 3.26s-1.96 5.7-1.96 10.58c0 1.58.02 2.71.07 3.4zm3.51 23.86c1.31-2.19 1.96-5.71 1.96-10.54 0-.99-.05-2.27-.15-3.85l-12.14 17.17c.89.35 2.07.52 3.55.52q4.83 0 6.78-3.3M504.13 135.93c-3.48-.79-6.25-1.9-8.33-3.33-.59-.44-.89-.94-.89-1.48 0-.44.22-1.06.67-1.85l3.7-6.36c.39-.69.86-1.04 1.41-1.04.34 0 .91.2 1.7.59 1.28.64 2.85 1.17 4.7 1.59s3.69.63 5.51.63c2.47 0 4.3-.37 5.51-1.11s1.81-1.87 1.81-3.4c0-2.37-1.6-3.55-4.81-3.55h-5.7c-1.63 0-2.78-.34-3.44-1.04-.67-.69-1-1.75-1-3.18v-4c0-1.43.33-2.49 1-3.18s1.81-1.04 3.44-1.04h4.51c1.63 0 2.81-.3 3.55-.89s1.11-1.5 1.11-2.74c0-2.37-2.05-3.55-6.14-3.55-3.31 0-6.44.74-9.4 2.22-.79.4-1.36.59-1.7.59-.54 0-1.01-.34-1.41-1.04l-3.7-6.36c-.44-.79-.67-1.41-.67-1.85 0-.54.3-1.04.89-1.48q3.18-2.145 7.92-3.33c3.16-.79 6.76-1.18 10.8-1.18 4.29 0 8.03.63 11.21 1.89s5.62 3.05 7.33 5.36c1.7 2.32 2.55 5.06 2.55 8.21 0 4.34-1.5 7.7-4.51 10.06q5.85 3.405 5.85 10.8c0 4.98-1.9 8.93-5.7 11.84s-9.28 4.37-16.43 4.37c-4.07.01-7.86-.39-11.34-1.17M549.05 135.93c-3.48-.79-6.25-1.9-8.33-3.33-.59-.44-.89-.94-.89-1.48 0-.44.22-1.06.67-1.85l3.7-6.36c.39-.69.86-1.04 1.41-1.04.34 0 .91.2 1.7.59 1.28.64 2.85 1.17 4.7 1.59s3.69.63 5.51.63c2.47 0 4.3-.37 5.51-1.11s1.81-1.87 1.81-3.4c0-2.37-1.6-3.55-4.81-3.55h-5.7c-1.63 0-2.78-.34-3.44-1.04-.67-.69-1-1.75-1-3.18v-4c0-1.43.33-2.49 1-3.18s1.81-1.04 3.44-1.04h4.51c1.63 0 2.81-.3 3.55-.89s1.11-1.5 1.11-2.74c0-2.37-2.05-3.55-6.14-3.55-3.31 0-6.44.74-9.4 2.22-.79.4-1.36.59-1.7.59-.54 0-1.01-.34-1.41-1.04l-3.7-6.36c-.44-.79-.67-1.41-.67-1.85 0-.54.3-1.04.89-1.48q3.18-2.145 7.92-3.33c3.16-.79 6.76-1.18 10.8-1.18 4.29 0 8.03.63 11.21 1.89s5.62 3.05 7.33 5.36c1.7 2.32 2.55 5.06 2.55 8.21 0 4.34-1.5 7.7-4.51 10.06q5.85 3.405 5.85 10.8c0 4.98-1.9 8.93-5.7 11.84s-9.28 4.37-16.43 4.37c-4.08.01-7.86-.39-11.34-1.17M593.97 135.93c-3.48-.79-6.25-1.9-8.33-3.33-.59-.44-.89-.94-.89-1.48 0-.44.22-1.06.67-1.85l3.7-6.36c.39-.69.86-1.04 1.41-1.04.34 0 .91.2 1.7.59 1.28.64 2.85 1.17 4.7 1.59s3.69.63 5.51.63c2.47 0 4.3-.37 5.51-1.11s1.81-1.87 1.81-3.4c0-2.37-1.6-3.55-4.81-3.55h-5.7c-1.63 0-2.78-.34-3.44-1.04-.67-.69-1-1.75-1-3.18v-4c0-1.43.33-2.49 1-3.18s1.81-1.04 3.44-1.04h4.51c1.63 0 2.81-.3 3.55-.89s1.11-1.5 1.11-2.74c0-2.37-2.05-3.55-6.14-3.55-3.31 0-6.44.74-9.4 2.22-.79.4-1.36.59-1.7.59-.54 0-1.01-.34-1.41-1.04l-3.7-6.36c-.44-.79-.67-1.41-.67-1.85 0-.54.3-1.04.89-1.48q3.18-2.145 7.92-3.33c3.16-.79 6.76-1.18 10.8-1.18 4.29 0 8.03.63 11.21 1.89s5.62 3.05 7.33 5.36c1.7 2.32 2.55 5.06 2.55 8.21 0 4.34-1.5 7.7-4.51 10.06q5.85 3.405 5.85 10.8c0 4.98-1.9 8.93-5.7 11.84s-9.28 4.37-16.43 4.37c-4.08.01-7.86-.39-11.34-1.17M636.26 130.41c-4.39-4.46-6.59-10.99-6.59-19.57s2.19-15.11 6.59-19.57c4.39-4.46 11-6.7 19.83-6.7s15.44 2.23 19.83 6.7 6.59 10.99 6.59 19.57-2.2 15.11-6.59 19.57c-4.39 4.47-11 6.7-19.83 6.7s-15.44-2.23-19.83-6.7m23.09-32.89c-.89-.34-1.97-.52-3.26-.52-3.21 0-5.46 1.09-6.77 3.26s-1.96 5.7-1.96 10.58c0 1.58.02 2.71.07 3.4zm3.51 23.86c1.31-2.19 1.96-5.71 1.96-10.54 0-.99-.05-2.27-.15-3.85l-12.14 17.17c.89.35 2.07.52 3.55.52 3.22 0 5.47-1.1 6.78-3.3M687.87 135c-.57-.67-.85-1.74-.85-3.22v-4.14c0-1.48.28-2.55.85-3.22s1.64-1 3.22-1h4.66v-19.31l-3.03 1.92c-.25.2-.54.3-.89.3-.44 0-.81-.22-1.11-.67l-5.62-8.58q-.3-.375-.3-.81c0-.49.27-.89.81-1.18l13.99-8.44c.59-.34 1.16-.59 1.7-.74s1.33-.22 2.37-.22h5.4c1.63 0 2.78.35 3.44 1.04.67.69 1 1.75 1 3.18v33.52h4.74c1.58 0 2.65.33 3.22 1s.85 1.74.85 3.22v4.14c0 1.48-.28 2.55-.85 3.22s-1.64 1-3.22 1h-27.16c-1.58-.01-2.65-.34-3.22-1.01" class="st1"/><path d="M743.04 135.15q-.96-.855-.96-3v-5.77h-17.83c-1.78 0-2.66-.86-2.66-2.59v-6.81q0-1.695.3-2.52c.2-.54.67-1.26 1.41-2.15l20.13-24.27q1.26-1.485 2.07-1.92c.54-.3 1.48-.44 2.81-.44h7.1c1.63 0 2.77.35 3.44 1.04s1 1.75 1 3.18v23.9h2.81c1.58 0 2.65.33 3.22 1s.85 1.74.85 3.22v4.14c0 1.48-.28 2.55-.85 3.22s-1.64 1-3.22 1h-2.81v5.77c0 1.43-.33 2.43-1 3s-1.84.85-3.51.85h-8.81c-1.69 0-2.85-.28-3.49-.85M746 113.8v-9.69l-7.1 9.69z" class="st1"/></g><g id="Capa_2"><circle id="XMLID_96_" cx="135.72" cy="411.2" r="67.25" class="st3"/><g id="XMLID_84_"><path id="XMLID_95_" d="m111.93 433.99 3.75-1.22c1.49-.49 2.64-.88 3.16-1.08.22-.08.38-.07.52-.02.21-.13.44-.27.67-.41 5.88-3.52 6.42-9.26 6.44-12.56-.57-.46-1.13-.94-1.66-1.45-4.04-3.9-4.01-13.77-4.99-13.07-2.23 1.5-3.66-2.96-3.94-5.61-.22-2.05.46-3.17 1.29-3.06.35.38.82.13 1.33 1.13.41.81.81-3.16 4.5-6.23l4.45-3.88c3.7.42 5.04 1.46 11.53 4.88 5.46 2.87 12.4 5.18 13.37 5.97.43.35.77-1.29 2.43-1.77.02 0 .04-.05.05-.07.73.1 1.27 1.19 1.07 3.05-.28 2.65-1.71 7.11-3.94 5.61-.98-.7-.94 9.17-4.99 13.07-.29.28-.59.55-.89.82-.24.21-.49.4-.74.6.01 3.29.54 9.06 6.44 12.6.23.14.46.27.67.4.14-.04.3-.05.51.03 1.26.49 6.15 2.01 10.78 3.52.2-1.52-.21-3.12-1.67-4.67-6.97-7.46.86-6.4.53-14.57-.21-5.2-5.79-7.15-4.02-12.71 2.81-8.85-1.41-24.33-8.08-26.93-15.78-10.64-31.04-4.93-36.33 9.45-5.55 15.06 3.99 17.1-2.92 24-2.28 2.28-3.08 5.87-2.17 8.19 1.77 4.5 6.03 9.09 3.04 11.93-1.92 1.82-3.44 3.5-3.87 5.31 1.25-.45 2.5-.86 3.68-1.25" style="fill:#754193"/><path id="XMLID_94_" d="M145.35 418.66c-.73.59-1.48 1.14-2.29 1.62-.92.54-1.9.99-2.92 1.31-.92.3-1.88.49-2.85.59-1.2.12-2.43.08-3.62-.1-.98-.16-1.94-.42-2.86-.78-1.04-.41-2.02-.94-2.94-1.55q-.735-.495-1.41-1.05c-.02 3.3-.56 9.04-6.44 12.56-.23.14-.46.28-.67.41 1.47.52-.74 8.03 5 14.61 2.54 2.91 7.52 4.11 11.63 4.08s9.2-1.42 11.46-4.08c5.6-6.6 3.49-14.13 5.01-14.61-.21-.13-.44-.26-.67-.4-5.89-3.55-6.41-9.31-6.43-12.61" class="st5"/><path id="XMLID_93_" d="M130.82 421.3c.92.36 1.88.62 2.86.78 1.19.19 2.42.23 3.62.1.97-.1 1.92-.29 2.85-.59 1.02-.33 1.99-.78 2.92-1.31.81-.47 1.56-1.03 2.29-1.62.25-.2.5-.39.74-.6.3-.27.6-.54.89-.82 4.04-3.9 4.01-13.77 4.99-13.07 2.23 1.5 3.66-2.96 3.94-5.61.2-1.86-.35-2.95-1.07-3.05-.02.03-.04.07-.05.07-1.66.48-1.99 2.12-2.43 1.77-.98-.79-7.92-3.1-13.37-5.97-6.49-3.41-7.83-4.46-11.53-4.88l-4.47 3.9c-3.7 3.07-4.09 7.04-4.5 6.23-.51-1-.98-.75-1.33-1.13-.83-.11-1.51 1.01-1.29 3.06.28 2.65 1.71 7.11 3.94 5.61.98-.7.94 9.17 4.99 13.07.53.51 1.08.99 1.66 1.45.46.37.92.72 1.41 1.05.92.63 1.9 1.16 2.94 1.56" class="st6"/><path id="XMLID_92_" d="m112.8 462.1 3.93.02zc0-.01-.29-20.17-.86-28.1-1.19.39-2.44.8-3.67 1.2-4.65 1.54-9.1 3.08-9.44 3.52v.01c.14-.06.29-.09.43-.09 4.58 0 8.85 24.99 9.14 29.91.06 1.09.23 2.45.34 4.2 1.41.62 2.84 1.2 4.3 1.73-.14-6.72-.53-12-.24-12.38" class="st7"/><path id="XMLID_89_" d="M172.38 438.63c.2-.08.39-.07.59-.02v-.01c-.33-.44-4.65-1.91-9.21-3.39-4.63-1.51-9.52-3.03-10.78-3.52a.77.77 0 0 0-.51-.03c-1.52.48.6 8.01-5.01 14.61-2.27 2.67-7.35 4.06-11.46 4.08-4.11.03-9.09-1.17-11.63-4.08-5.74-6.58-3.53-14.09-5-14.61-.14-.05-.3-.06-.52.02-.52.2-1.67.59-3.16 1.08.79 3.94 1.05 29.35 1.05 29.35l19.09.11 23.02-.13c.29.38-.1 5.66-.23 12.38 1.48-.54 2.94-1.13 4.37-1.76.06-1.74.19-3.07.26-4.17.28-4.92 4.17-27.93 9.13-29.91m-13.55 23.46-3.93.03s.27-25.47 1.06-29.41l3.74 1.22c-.59 7.92-.87 28.16-.87 28.16" class="st7"/><path id="XMLID_88_" d="m158.85 462.1-23.02.13-19.09-.11s-.26-25.41-1.05-29.35l-3.75 1.22c.57 7.93.86 28.1.86 28.1l3.93.03-3.93-.02c-.28.38.1 5.66.24 12.38a67.2 67.2 0 0 0 22.79 3.97c8 0 15.67-1.4 22.79-3.97.13-6.72.51-12 .23-12.38"/><path id="XMLID_87_" d="M179.44 462.36c-1.69-12.15-3.97-23.1-6.48-23.75a1 1 0 0 0-.59.02c-4.96 1.97-8.85 24.99-9.14 29.91-.06 1.1-.19 2.42-.26 4.17a67 67 0 0 0 16.47-10.35" class="st8"/><path id="XMLID_86_" d="M99.26 438.63c-.15 0-.29.04-.43.09-2.69 1.05-4.99 11.74-6.66 23.6a67.3 67.3 0 0 0 16.57 10.42c-.1-1.75-.27-3.11-.34-4.2-.29-4.92-4.56-29.91-9.14-29.91" class="st8"/><path id="XMLID_85_" d="m159.69 433.93-3.74-1.22c-.79 3.94-1.06 29.41-1.06 29.41l3.93-.03c.01 0 .29-20.24.87-28.16"/></g><circle cx="72.5" cy="450.5" r="36.5" class="st9"/><path d="m93.44 468.15-8.48-10.99a.45.45 0 0 0-.64-.08l-4.35 3.36a.45.45 0 0 0-.08.64l.08.1c-3.03-.26-8.5-4.06-11.72-8.17-3.16-4.16-5.45-10.41-4.94-13.41l.08.1c.15.2.44.24.64.08l4.35-3.36c.2-.15.24-.44.08-.64l-8.49-10.99a.45.45 0 0 0-.64-.08l-4.35 3.36c-.2.15-.23.44-.08.64-2.3 2.39-3.08 5.18-2.27 9.12.4 1.97 1.43 9.86 9.28 20.06 7.88 10.17 15.27 13.17 17.07 14.06 3.61 1.78 6.5 1.73 9.4.11.15.2.44.23.64.08l4.35-3.36c.19-.14.23-.43.07-.63" class="st1"/></g><g id="Capa_3"><circle id="XMLID_8235_" cx="308.06" cy="434.49" r="67.25" class="st3"/><g id="XMLID_7873_"><path id="XMLID_7895_" d="M294.84 445.7c.05-.15.09-.3.13-.45z" class="st10"/><path id="XMLID_7894_" d="M294.98 445.26c-.04.15-.09.3-.13.45l-.39 1.29c-2.1 3.95 1.14 8.83 4.28 12.17 0 0 4.52 3.91 8 9.99 3.48-6.07 8-9.99 8-9.99 3.14-3.34 6.38-8.22 4.28-12.17l-.48-2.46c-.19-.76-.32-1.49-.4-2.19-.03.02-.05.05-.08.07-1.02.89-2.11 1.71-3.27 2.4-1 .58-2.05 1.07-3.15 1.42-1 .32-2.03.53-3.08.64-1.3.13-2.63.09-3.92-.11-1.06-.17-2.1-.45-3.1-.84-1.12-.44-2.18-1.01-3.18-1.68-.98-.65-1.89-1.41-2.76-2.21-.07.78-.2 1.63-.42 2.51.01 0 .02-.01.02-.01z" style="fill:#c69a81"/><path id="XMLID_7893_" d="M262.78 461.14c-.11-.17.03-.36.37-.55-.11.02-.21.03-.32.06-2.83.79-5.92 8.08-8.14 16.05a67.6 67.6 0 0 0 16.49 14.68c-.44-4.26-.75-8.23-.91-11.42-.55-10.62-6.77-17.75-7.49-18.82" class="st12"/><path id="XMLID_7892_" d="M351.24 460.79c.12.12.15.23.08.34-.72 1.08-6.94 8.2-7.48 18.82-.16 3.15-.53 7.14-1.03 11.46 6.19-3.9 11.71-8.77 16.32-14.42-2.14-7.77-5.12-14.93-7.89-16.2" class="st12"/><path id="XMLID_7891_" d="M320.88 461.3c-1.5 1.23-3.6 3.39-5.86 7.15-3.78 6.26-4.65 12.6-4.81 14.17l-.03.37h-6.87l-.03-.37c-.16-1.57-1.04-7.91-4.81-14.17-2.27-3.76-4.37-5.93-5.86-7.15-2.89.27-9.18 1.56-9.42 1.61 1.49 10.15 3.36 26.63 4.34 35.94 4.03 1.22 8.22 2.08 12.53 2.53h13.99a66.7 66.7 0 0 0 11.9-2.35c.97-9.28 2.86-25.91 4.36-36.13-.49-.1-6.59-1.34-9.43-1.6" class="st13"/><path id="XMLID_7890_" d="M263.14 460.58c-.34.2-.48.38-.37.55.72 1.08 6.94 8.2 7.48 18.82.16 3.19.48 7.16.91 11.42 2.24 1.42 4.57 2.71 6.98 3.86-1.3-12.91-3.1-33.24-3.58-38.12-4.54 1.5-9.92 2.61-11.42 3.47" class="st13"/><path id="XMLID_7889_" d="M330.3 462.8c.74-5.02 1.39-8.47 1.78-8.68h.03c-2.4-1.02-4.84-1.97-6.78-2.37 1.54 2.77 3.2 6.4 4.97 11.05" class="st13"/><path id="XMLID_7888_" d="M283.16 462.85c1.82-4.79 3.55-8.49 5.18-11.29-1.92.48-4.4 1.58-6.86 2.7.4.72 1 3.99 1.68 8.59" class="st13"/><path id="XMLID_7887_" d="M351.33 461.14c.07-.11.04-.22-.08-.34-.93-.93-7.31-2.16-12.36-3.89-.44 4.54-2.31 25.55-3.63 38.62 2.61-1.21 5.13-2.58 7.55-4.11.51-4.32.87-8.31 1.03-11.46.54-10.62 6.77-17.75 7.49-18.82" class="st13"/><path id="XMLID_7886_" d="M338.89 456.9c.13-1.38-6.17-2.99-6.78-2.78h-.03c-.4.21-1.04 3.66-1.78 8.68.01.04.03.07.04.1 0 0-.04-.01-.05-.01-1.5 10.21-3.39 26.85-4.36 36.13 3.22-.94 6.34-2.11 9.34-3.5 1.31-13.07 3.17-34.08 3.62-38.62" class="st14"/><path id="XMLID_7885_" d="m283.16 462.9-.03.01c.01-.02.01-.03.02-.05-.68-4.6-1.28-7.88-1.68-8.59a.5.5 0 0 0-.11-.14c-.48-.26-6.95 1.38-6.81 2.78.01.06.01.14.02.21.47 4.88 2.28 25.21 3.58 38.12a65.5 65.5 0 0 0 9.35 3.61c-.97-9.32-2.84-25.8-4.34-35.95" class="st14"/><path id="XMLID_7884_" d="M301.53 445.91c1 .39 2.04.67 3.1.84 1.29.2 2.62.24 3.92.11 1.05-.11 2.08-.32 3.08-.64 1.1-.35 2.16-.84 3.15-1.42 1.17-.68 2.26-1.5 3.27-2.4.03-.02.05-.05.08-.07.3-.27.6-.54.89-.82 4.37-4.22 4.34-14.89 5.39-14.14 2.41 1.62 3.96-3.21 4.26-6.07.3-2.87-1.01-4.07-2.21-2.87-.07.07-.13.12-.19.18-.37.73-1.71.47-2.27 1.39-.45.74-.43-1.55-.74-3.32-.04-.01-.08 0-.12-.01-1.95-.56-4.1-4.46-12.08-5.47-1.2-.04-2.46-.11-3.75-.24-.09 0-.17-.01-.26-.01-11.34 0-13.85 5.07-16.09 5.72-.23.07-.44.05-.63-.01-.24 1.97.09 3.82-.57 3.23-.97-.86-1.96-.93-2.28-1.53 0 0-.01-.02-.01-.03-1.17-.99-2.37.21-2.08 2.97.3 2.87 1.85 7.69 4.26 6.07 1.06-.75 1.02 9.92 5.39 14.14.18.17.38.33.56.5.87.8 1.78 1.55 2.76 2.21.99.68 2.05 1.25 3.17 1.69" style="fill:#d1a385"/><path id="XMLID_7883_" d="M306.74 469.15c-3.48-6.07-8-9.99-8-9.99 1.76 1.57 5.13 5.71 5.13 5.71-4.87-4.86-8.81-3.24-9.96-3.59-.2-.06-.68-.05-1.31.01 1.5 1.23 3.6 3.39 5.86 7.15 3.78 6.26 4.65 12.6 4.81 14.17l-.28-2.98c.53-3.89 2.01-7.45 3.75-10.48" class="st16"/><path id="XMLID_7882_" d="m310.21 482.61-.03.37z" class="st16"/><path id="XMLID_7881_" d="M283.16 462.85c-.01.02-.01.03-.02.05 0 0 .02 0 .03-.01.25-.05 6.54-1.33 9.42-1.61.63-.06 1.11-.07 1.31-.01 1.14.35 5.08-1.27 9.96 3.59 0 0-3.37-4.14-5.13-5.71-3.14-3.34-6.38-8.22-4.28-12.17l.39-1.29.13-.45.22-.73c-.01 0-.02.01-.02.01-1.97.49-4.28 2.64-6.83 7.03-1.63 2.81-3.36 6.52-5.18 11.3" class="st12"/><path id="XMLID_7880_" d="M319.57 461.29c-1.14.35-5.08-1.27-9.96 3.59 0 0 3.37-4.14 5.13-5.71 0 0-4.52 3.91-8 9.99-1.74 3.03-3.22 6.59-3.75 10.48l.28 2.98.03.37h6.87s.01-.14.03-.37c.16-1.57 1.04-7.91 4.81-14.17 2.27-3.76 4.37-5.93 5.86-7.15-.62-.06-1.1-.08-1.3-.01" style="fill:#604340"/><path id="XMLID_7879_" d="M319.02 446.99c2.1 3.95-1.14 8.83-4.28 12.17-1.76 1.57-5.13 5.71-5.13 5.71 4.87-4.86 8.81-3.24 9.96-3.59.2-.06.68-.05 1.31.01 2.83.27 8.94 1.51 9.4 1.6.02 0 .05.01.05.01-.01-.04-.03-.07-.04-.1-1.77-4.65-3.42-8.29-4.97-11.05-2.54-4.53-4.78-6.73-6.79-7.22z" class="st12"/><path id="XMLID_7878_" d="M325.77 411.52c-.06.78-.55 5.54-2.5 5.18.31 1.77.29 4.06.74 3.32.56-.92 1.9-.66 2.27-1.39.04-.07.07-.14.09-.23.08-.5 1.13-3.03 1.53-6.57l-.19 1.05c-.32-.2-.96-.69-1.94-1.36" class="st18"/><path id="XMLID_7877_" d="M289.75 419.91c.66.59.33-1.26.57-3.23-1.55-.47-1.94-4.51-1.99-5.15-.99.67-1.62 1.16-1.94 1.36l-.1-.58c.39 3.29 1.05 5.77 1.16 6.05 0 .01.01.02.01.03.33.59 1.32.66 2.29 1.52" class="st18"/><path id="XMLID_7876_" d="M311.06 411.21c-1.13-.14-2.38-.23-3.75-.24 1.28.13 2.55.2 3.75.24" class="st18"/><path id="XMLID_7875_" d="M288.33 411.52c0-.06-.01-.09-.01-.09 7.78-8.25 18.72-7.18 18.72-7.18s10.95-1.09 18.73 7.15c0 0 0 .05-.01.12.99.67 1.62 1.17 1.94 1.36l.19-1.05.65-3.63s.19-8.51-4.68-13.82c-4.36-4.77-9.71-7.43-15.18-7.91 0-.03.01-.07.01-.1 0-.83-.74-1.5-1.65-1.5s-1.65.67-1.65 1.5c0 .03.01.07.01.1-5.47.48-10.82 3.14-15.18 7.91-4.86 5.31-4.68 13.82-4.68 13.82l.73 4.1.1.58c.35-.2.98-.69 1.96-1.36" class="st12"/><path id="XMLID_7874_" d="M325.77 411.52c.01-.07.01-.12.01-.12-7.78-8.25-18.73-7.15-18.73-7.15s-10.94-1.06-18.72 7.18c0 0 0 .04.01.09.05.64.44 4.68 1.99 5.15.19.06.4.08.63.01 2.24-.65 4.75-5.72 16.09-5.72.09 0 .17.01.26.01q2.07.015 3.75.24c7.98 1.01 10.13 4.91 12.08 5.47.04.01.08.01.12.01 1.96.37 2.44-4.39 2.51-5.17" class="st13"/></g><circle cx="254.5" cy="475.5" r="36.5" class="st19"/><path d="m275.44 493.15-8.48-10.99a.45.45 0 0 0-.64-.08l-4.35 3.36a.45.45 0 0 0-.08.64l.08.1c-3.03-.26-8.5-4.06-11.72-8.17-3.16-4.16-5.45-10.41-4.94-13.41l.08.1c.15.2.44.24.64.08l4.35-3.36c.2-.15.24-.44.08-.64l-8.49-10.99a.45.45 0 0 0-.64-.08l-4.35 3.36c-.2.15-.23.44-.08.64-2.3 2.39-3.08 5.18-2.27 9.12.4 1.97 1.43 9.86 9.28 20.06 7.88 10.17 15.27 13.17 17.07 14.06 3.61 1.78 6.5 1.73 9.4.11.15.2.44.23.64.08l4.35-3.36c.19-.14.23-.43.07-.63" class="st1"/></g><g id="Capa_4"><circle id="XMLID_59_" cx="499.89" cy="453.49" r="67.25" class="st3"/><g id="XMLID_42_"><path id="XMLID_58_" d="M517.27 470.6c.14.13.26.26.38.37-.13-.16-.26-.28-.38-.37" class="st10"/><path id="XMLID_57_" d="M483.88 470.49c-.16.1-.41.3-.64.63.18-.18.39-.39.64-.63" class="st10"/><path id="XMLID_56_" d="M500.4 478.05c.06.05.1.11.12.17.02-.06.06-.12.12-.17 8-6.13 11.15-10.24 12.55-11.32-.96-2.06-1.35-4.09-1.51-5.77-.17.15-.33.31-.5.46-.96.84-1.98 1.61-3.09 2.26-.94.55-1.93 1.01-2.97 1.34-.94.3-1.92.5-2.9.6-1.22.12-2.48.09-3.7-.11-1-.16-1.98-.42-2.92-.79-1.06-.41-2.06-.96-3-1.58-1.12-.75-2.16-1.62-3.13-2.55l-.01-.01c-.13 1.76-.52 3.97-1.57 6.19 1.43 1.13 4.58 5.22 12.51 11.28" class="st20"/><path id="XMLID_55_" d="M497.88 489.45c-1.08-2.42-2.29-3.81-2.42-5.81-1.1 1.23-1.92 2.53-1.8 3.75.32 3.43-9.67-8.1-10.92-13.94-.13 1.03-.21 3.38 2.93 8.01 1.55 2.29 5.68 14.09 9.75 26.79 1.28-8.55 2.51-16.31 2.89-18.38-.19-.11-.35-.24-.43-.42" class="st8"/><path id="XMLID_54_" d="M503.16 489.45c-.08.18-.24.32-.43.42.39 2.12 1.67 10.24 2.99 19.05 3.44-11.8 7.69-24.64 9.61-27.46 3.01-4.43 3.06-6.77 2.95-7.86-1.39 5.88-11.22 17.19-10.89 13.79.11-1.22-.7-2.51-1.8-3.75-.14 2-1.35 3.39-2.43 5.81" class="st8"/><path id="XMLID_53_" d="m516.59 484.85.08.06c.01-.02.02-.05.03-.07-.06 0-.11.01-.11.01" class="st8"/><path id="XMLID_52_" d="M505.72 508.92c-1.32-8.81-2.6-16.93-2.99-19.05.18-.11.35-.25.43-.42 1.08-2.42 2.29-3.81 2.42-5.81-1.94-2.17-4.77-4.14-5.06-5.13-.29.99-3.12 2.96-5.06 5.13.13 2.01 1.34 3.39 2.42 5.81.08.18.24.32.43.42-.38 2.07-1.6 9.83-2.89 18.38 1.33 4.16 2.66 8.41 3.88 12.46.26 0 .52.02.79.02.8 0 1.59-.03 2.38-.06.89-3.45 2.01-7.53 3.25-11.75" style="fill:#9d2b3b"/><path id="XMLID_51_" d="M483.88 470.49c-.24.24-.46.45-.64.63-.27.39-.49.97-.45 1.82.01.11-.03.27-.05.51 1.25 5.84 11.25 17.37 10.92 13.94-.11-1.22.7-2.51 1.8-3.75 1.94-2.17 4.77-4.14 5.06-5.13.29.99 3.12 2.96 5.06 5.13 1.1 1.23 1.92 2.53 1.8 3.75-.32 3.4 9.51-7.9 10.89-13.79-.03-.31-.08-.53-.07-.66.05-.96-.24-1.58-.55-1.97-.12-.11-.24-.24-.38-.37-.18-.13-.32-.2-.32-.2s.04-.01.11-.01c-.82-.81-1.9-1.96-2.95-3.72-.19-.33-.47-.3-.93.06-1.4 1.09-4.54 5.19-12.55 11.32-.06.05-.1.11-.12.17a.4.4 0 0 0-.12-.17c-7.92-6.07-11.08-10.15-12.5-11.29-.49-.39-.77-.44-.97-.1-1.04 1.77-2.13 2.92-2.95 3.73.04 0 .06.01.06.01s-.06.03-.15.09" class="st7"/><path id="XMLID_50_" d="M492.6 463.14c.94.63 1.95 1.17 3 1.58.94.37 1.92.64 2.92.79 1.22.19 2.47.23 3.7.11.99-.1 1.96-.3 2.9-.6 1.04-.33 2.03-.79 2.97-1.34 1.1-.65 2.13-1.42 3.09-2.26.17-.15.33-.31.5-.46l.41-.38c4.12-3.98 4.09-14.04 5.08-13.33 2.27 1.53 3.73-3.02 4.02-5.72.24-2.32-.63-3.47-1.6-3.04-.26.58-.58 1.01-.98 1.24 0 0-1.42 5.88-2.03 5.7s-.34-5.49.61-11.7c1.02-6.61-7.11-3.73-12.8-3.91s-18.85-1.29-19.87 1.83.97 12.56.16 12.92c-.81.37-1.83-4.28-2.64-5.2-.13-.15-.27-.5-.4-.97-.82-.04-1.47 1.1-1.25 3.14.28 2.7 1.74 7.25 4.02 5.72.99-.71.96 9.32 5.07 13.31l.01.01c.95.94 1.99 1.81 3.11 2.56" class="st22"/><path id="XMLID_49_" d="M484.67 444.58c.81-.37-1.17-9.8-.16-12.92 1.02-3.12 14.18-2.01 19.87-1.83s13.82-2.7 12.8 3.91c-.95 6.21-1.22 11.52-.61 11.7s2.03-5.7 2.03-5.7c.4-.23.72-.67.98-1.24 1.6-3.55.85-12.61.85-14.19 0-1.84-2.84-4.96-4.06-4.96s-.2-5.14-8.53-7.35c-8.33-2.2-15.65-1.1-19.71.92s-7.11 5.51-8.94 6.06.61 1.84-.81 3.12c-1.42 1.29 1.02 2.94 1.42 5.51.34 2.16 1.11 8.31 1.83 10.78.14.47.27.83.4.97.82.93 1.83 5.58 2.64 5.22" class="st23"/><path id="XMLID_48_" d="M524.09 476.16c2 3.58 2.11 5.77 3.52 6.82 1.34.99-9.71 1.78-10.9 1.86-.01.02-.02.05-.03.07l7.74 5.85s-6.73 9.17-10.34 14.54c-1.27 1.89-4.44 7.33-6.21 10.44-.5.88-1.48 2.72-2.58 4.78 10.52-.81 20.36-4.02 28.96-9.11 1.09-13.22 4.16-31.06 10.13-30.03-2.37-1.01-8.99-2.33-13.47-4.15-3.87-1.57-6.95-3.55-8.87-3.58.74.67 1.48 1.49 2.05 2.51" style="fill:#191819"/><path id="XMLID_47_" d="M517.27 470.6c.12.09.25.21.38.37.31.39.6 1 .55 1.97-.01.13.04.34.07.66.11 1.09.06 3.44-2.95 7.86-1.92 2.82-6.16 15.66-9.61 27.46-1.23 4.22-2.36 8.3-3.24 11.75.94-.03 1.88-.09 2.82-.16 1.1-2.06 2.08-3.91 2.58-4.78 1.77-3.11 4.95-8.55 6.21-10.44 3.61-5.37 10.34-14.54 10.34-14.54l-7.74-5.85-.08-.06s.04 0 .11-.01c1.2-.08 12.24-.87 10.9-1.86-1.41-1.05-1.52-3.24-3.52-6.82-.57-1.02-1.31-1.84-2.04-2.52-1-.92-1.98-1.57-2.49-2-1.4-1.19-2.23-1.27-2.5-1.25-.06 0-.11.01-.11.01s.14.07.32.21"/><path id="XMLID_46_" d="M467.71 512.43c8.3 4.57 17.67 7.42 27.64 8.12-1.08-2.43-1.9-4.25-2.23-4.82-1.77-3.11-4.95-8.55-6.21-10.44-3.61-5.37-10.34-14.54-10.34-14.54l7.83-5.91s-12.43-.82-11.02-1.87 1.52-3.24 3.52-6.82c.59-1.05 1.36-1.89 2.11-2.58-1.9.56-4.51 2.1-7.64 3.37-4.94 2.01-12.48 3.41-14.06 4.45 6.26-1.48 9.38 17.61 10.4 31.04" style="fill:#222123"/><path id="XMLID_45_" d="M476.9 476.16c-2 3.58-2.11 5.77-3.52 6.82s11.02 1.87 11.02 1.87l-7.83 5.91s6.73 9.17 10.34 14.54c1.27 1.89 4.44 7.33 6.21 10.44.32.57 1.15 2.39 2.23 4.82 1.31.09 2.62.15 3.95.17-1.23-4.05-2.55-8.31-3.88-12.46-4.07-12.7-8.2-24.5-9.75-26.79-3.15-4.63-3.06-6.99-2.93-8.01.03-.23.06-.4.05-.51-.04-.85.18-1.43.45-1.82a2.16 2.16 0 0 1 .8-.72s-.03 0-.06-.01c-.22-.02-1.06 0-2.54 1.25-.49.42-1.44 1.05-2.42 1.93-.76.68-1.53 1.52-2.12 2.57"/><path id="XMLID_44_" d="M467.71 512.43c-1.02-13.44-4.15-32.52-10.4-31.04-.26.06-.52.15-.79.29-1.44.71-2.89 8.19-4.7 18.61 4.65 4.79 10 8.9 15.89 12.14"/><path id="XMLID_43_" d="M534.25 511.4a68 68 0 0 0 15.55-12.63c-1.69-9.62-3.07-16.42-4.44-17.09-.33-.17-.66-.25-.97-.31-5.97-1.02-9.05 16.82-10.14 30.03"/></g><circle cx="457.5" cy="496.5" r="36.5" class="st9"/><path d="m478.44 514.15-8.48-10.99a.45.45 0 0 0-.64-.08l-4.35 3.36a.45.45 0 0 0-.08.64l.08.1c-3.03-.26-8.5-4.06-11.72-8.17-3.16-4.16-5.45-10.41-4.94-13.41l.08.1c.15.2.44.24.64.08l4.35-3.36c.2-.15.24-.44.08-.64l-8.49-10.99a.45.45 0 0 0-.64-.08l-4.35 3.36c-.2.15-.23.44-.08.64-2.3 2.39-3.08 5.18-2.27 9.12.4 1.97 1.43 9.86 9.28 20.06 7.88 10.17 15.27 13.17 17.07 14.06 3.61 1.78 6.5 1.73 9.4.11.15.2.44.23.64.08l4.35-3.36c.19-.14.23-.43.07-.63" class="st1"/></g><g id="Capa_5"><circle id="XMLID_8233_" cx="713.42" cy="440.49" r="67.25" class="st3"/><g id="XMLID_7837_"><path id="XMLID_7855_" d="M701.61 452.42s-.8 3.99 1.72 7.5c2.2 3.06 5.6 8.65 7.24 11.56.08.13.15.28.23.42.03.06.07.13.1.18.05.09.1.19.15.28.2.38.34.66.41.83 1.4 2.98 2.41 6.49 2.8 7.96.27-1.08.7-2.58 1.33-4.3.42-1.2.92-2.48 1.48-3.67.07-.16.21-.45.41-.83.05-.1.1-.19.15-.28.03-.06.07-.12.1-.18.08-.14.15-.28.23-.42 1.64-2.92 5.04-8.5 7.24-11.56 2.53-3.51 1.72-7.5 1.72-7.5l-.39-1.32c-.4-1.27-.61-2.5-.71-3.62-4.57 3.88-6.2 5.2-11.82 5-5.46.19-7.15-1.05-11.43-4.67-.09.84-.24 1.73-.49 2.65.03-.01.07-.02.1-.04z" class="st5"/><path id="XMLID_7854_" d="M696.6 468.1c.09-4.04.66-9.32 1.16-12.16-1.25.78-2.83 1.52-4.59 2.25l.01.01c.85 2.62 2.03 6.07 3.42 9.9" class="st26"/><path id="XMLID_7853_" d="M714.1 481.86s0-.01 0 0c.03-.15.07-.31.11-.47-.42-.81-1.44-2.6-3.38-5.01-2.01-2.5-3.26-2.8-3.26-2.8s-1.3-.65.23-1.44l.99-.49c-5.69-3.23-8.26.27-10.3 1.52 4.35 11.29 10.11 24.02 15.28 28.67.03.03.06.09.09.17v-19.05c.01-.01.08-.41.24-1.1" class="st26"/><path id="XMLID_7852_" d="M731.88 466.31c1.14-3.18 2.11-6.03 2.84-8.29-1.47-.63-2.8-1.25-3.91-1.91.42 2.46.89 6.58 1.07 10.2" class="st27"/><path id="XMLID_7851_" d="M714.27 481.18c.23-.88.69-2.5 1.33-4.32-.63 1.72-1.06 3.22-1.33 4.3z" class="st27"/><path id="XMLID_7850_" d="m719.75 471.64.99.49c1.54.79.23 1.44.23 1.44s-.9.62-3.26 2.8c-2.1 1.94-3.05 3.93-3.41 4.89.1.37.15.6.15.6s-.07-.16-.21-.43c-.09.26-.13.42-.14.43-.16.69-.23 1.09-.23 1.09V502c.02.06.04.15.06.24.06-.33.12-.53.19-.59 5.2-4.68 11-17.54 15.36-28.87-1.96-1.44-4.55-4.07-9.73-1.14" class="st27"/><path id="XMLID_7849_" d="M714.22 481.39s-.01 0 0 0c-.05.16-.08.31-.12.46.01-.02.04-.18.12-.46" class="st27"/><path id="XMLID_7848_" d="M671 466.16c-.29.02-.6.06-.93.15-3.27.87-5.13 9.43-7.39 18.29a67.7 67.7 0 0 0 16.57 13.81c0-2.63-.11-5.03-.45-6.92-1.08-5.99-8.08-23.22-7.8-25.33" class="st26"/><path id="XMLID_7847_" d="M757.86 466.31c-.34-.09-.65-.13-.95-.15-.08 2.78-6.76 19.3-7.82 25.14-.32 1.78-.43 4.02-.45 6.47 6.2-3.82 11.73-8.61 16.38-14.17-2.03-8.52-4.02-16.45-7.16-17.29" class="st26"/><path id="XMLID_7846_" d="M756.91 466.16c.01-.22-.02-.36-.11-.4-1.12-.5-21.65-9.04-22.07-7.76v.01c-.74 2.25-1.7 5.11-2.84 8.29.2 4 .06 7.38-.88 7.24-.48-.07-.98-.38-1.52-.78-4.36 11.34-10.16 24.19-15.36 28.87-.07.06-.13.27-.19.59.18.8.32 2.75.42 5.47 12.57-.17 24.3-3.78 34.3-9.94.02-2.45.13-4.69.45-6.47 1.04-5.82 7.72-22.34 7.8-25.12" style="fill:#ea9334"/><path id="XMLID_7845_" d="M714.02 452.49c5.62.19 7.25-1.12 11.82-5 .06-.05.11-.09.16-.14 4.94-4.19 2.45-12.94 5.45-12.39 2.94.54 6.29-7.44 4.17-9.45-1.03-.1-1.87.87-2.66 2.2-.89 1.49-.54 3.79-1.42 3.73-1.07-3.62-.96-6.88-.76-10.54-4.9 1.28-10.92 2.28-16.33 2.28-4.88 0-10.41-.87-15.12-2.01.08.84.13 1.65.17 2.1.24 2.46-1.3 5.5-1.86 6.08-.37.38-1.27 1.95-1.8 2.09-.44.11-.14-2.47-1.61-4.69-1.16-1.75-1.7-1.37-1.7-1.37-2.36 1.82 1.07 10.11 4.07 9.57 3-.55.51 8.2 5.45 12.39.19.16.37.31.55.47 4.26 3.63 5.96 4.87 11.42 4.68" class="st6"/><path id="XMLID_7844_" d="M730.78 420.9c-.2 3.66-.31 6.92.76 10.54.88.05.54-2.24 1.42-3.73.79-1.33 1.63-2.3 2.66-2.2.13.01.25.03.38.08.94-1.99 1.55-4.46 1.82-7.04-1.73.78-4.19 1.61-7.04 2.35" class="st23"/><path id="XMLID_7843_" d="M694.22 426.76c1.47 2.22 1.17 4.79 1.61 4.69.54-.13 1.43-1.71 1.8-2.09.57-.58 2.1-3.62 1.86-6.08-.04-.45-.09-1.26-.17-2.1-3.39-.82-6.35-1.79-8.34-2.68.01.17.02.34.04.51.11 1.14.81 5.36 1.49 6.39.01-.01.55-.39 1.71 1.36" class="st23"/><path id="XMLID_7842_" d="M717.83 419.09c3.45-.24 8.69-.68 11.51-1.28 5.68-1.21 8.5-2.07 9.89-2.27.2-.08.3-.13.3-.13 0-6.84-1.55-19.13-11.78-24.83-.67 1.13-9.32 15.89-9.92 28.51" class="st29"/><path id="XMLID_7841_" d="M699.55 417.8c2.82.6 8.06 1.04 11.51 1.28-.6-12.62-9.25-27.37-9.93-28.51-10.22 5.7-11.78 18-11.78 24.83 0 0 .1.05.3.13 1.41.2 4.23 1.07 9.9 2.27" class="st29"/><path id="XMLID_7840_" d="M699.33 421.18c4.71 1.14 10.24 2.01 15.12 2.01 5.41 0 11.43-1.01 16.33-2.28 2.85-.74 5.31-1.57 7.05-2.35 1.71-.76 2.73-1.48 2.73-2.01 0-.89-.2-1.17-1.32-1.01-1.39.2-4.22 1.06-9.89 2.27-2.82.6-8.06 1.04-11.51 1.28.6-12.62 9.25-27.37 9.93-28.51.03-.05.05-.08.05-.08-2.95-2.98-8.76-4.76-13.79-4.71-4.79.04-10.22 1.97-12.93 4.71 0 0 .02.03.05.08.68 1.14 9.34 15.89 9.93 28.51-3.45-.24-8.69-.68-11.51-1.28-5.68-1.21-8.5-2.07-9.89-2.27-1.12-.16-1.32.12-1.32 1.01 0 .51.99 1.21 2.65 1.95 1.97.89 4.93 1.85 8.32 2.68" class="st30"/><path id="XMLID_7839_" d="M713.93 502.24c-.02-.09-.04-.18-.06-.24-.03-.08-.06-.15-.09-.17-5.17-4.65-10.93-17.38-15.28-28.67-.33.2-.64.34-.95.39-.79.12-1.02-2.29-.95-5.45-1.4-3.83-2.57-7.28-3.43-9.9l-.01-.01c-.49-1.25-20.95 7.26-22.07 7.76-.06.02-.08.11-.1.21-.28 2.11 6.72 19.33 7.81 25.32.34 1.89.45 4.29.45 6.92a66.9 66.9 0 0 0 34.16 9.33c.31 0 .62-.02.93-.02-.1-2.72-.23-4.67-.41-5.47" style="fill:#f7a037"/><path id="XMLID_7838_" d="M696.6 468.1c-.07 3.16.15 5.57.95 5.45.31-.05.62-.19.95-.39 2.04-1.24 4.61-4.74 10.3-1.52l-.99.49c-1.54.79-.23 1.44-.23 1.44s1.25.29 3.26 2.8c1.93 2.41 2.96 4.2 3.38 5.01v.01c-.07.28-.11.43-.12.46v.01c0-.01.04-.17.14-.43.14.28.21.43.21.43s-.05-.22-.15-.6c.36-.96 1.31-2.95 3.41-4.89 2.36-2.17 3.26-2.8 3.26-2.8s1.3-.65-.23-1.44l-.99-.49c5.18-2.93 7.77-.3 9.73 1.13.54.39 1.03.7 1.52.78.94.14 1.08-3.24.88-7.24-.18-3.62-.65-7.74-1.06-10.19-.11-.66-.22-1.2-.32-1.58-.87-3.36-2.53-3.48-4.15-4.1l.2.67.39 1.32s.8 3.99-1.72 7.5c-2.2 3.06-5.6 8.65-7.24 11.56-.08.13-.15.28-.23.42-.03.06-.07.13-.1.18-.05.09-.1.19-.15.28-.2.38-.34.66-.41.83-.56 1.19-1.06 2.47-1.48 3.67-.64 1.81-1.09 3.44-1.33 4.32 0-.01 0-.01-.01-.02-.39-1.47-1.39-4.99-2.8-7.96-.07-.16-.21-.45-.41-.83-.05-.1-.1-.19-.15-.28-.03-.06-.07-.12-.1-.18-.08-.14-.15-.28-.23-.42-1.64-2.92-5.04-8.5-7.24-11.56-2.53-3.51-1.72-7.5-1.72-7.5l.58-1.99c-.03.01-.07.02-.1.04-1.58.59-3.2.78-4.05 4.06-.09.34-.19.83-.29 1.4-.5 2.82-1.07 8.1-1.16 12.15" style="fill:#e0e0e0"/></g><circle cx="662.5" cy="482.5" r="36.5" class="st19"/><path d="m684.44 500.15-8.48-10.99a.45.45 0 0 0-.64-.08l-4.35 3.36a.45.45 0 0 0-.08.64l.08.1c-3.03-.26-8.5-4.06-11.72-8.17-3.16-4.16-5.45-10.41-4.94-13.41l.08.1c.15.2.44.24.64.08l4.35-3.36c.2-.15.24-.44.08-.64l-8.49-10.99a.45.45 0 0 0-.64-.08l-4.35 3.36c-.2.15-.23.44-.08.64-2.3 2.39-3.08 5.18-2.27 9.12.4 1.97 1.43 9.86 9.28 20.06 7.88 10.17 15.27 13.17 17.07 14.06 3.61 1.78 6.5 1.73 9.4.11.15.2.44.23.64.08l4.35-3.36c.19-.14.23-.43.07-.63" class="st1"/></g><g id="Capa_6"><circle id="XMLID_21_" cx="900.68" cy="403.49" r="67.25" class="st3"/><g id="XMLID_1_"><path id="XMLID_20_" d="M882.27 387.22c.13.07.27.17.4.3.15.15.28.26.4.33-.19-.26-.44-.51-.8-.63" class="st10"/><path id="XMLID_19_" d="M901.03 430.44c7.46-5.72 10.48-9.58 11.86-10.71-1.62-2.35-2.16-4.91-2.34-7.02-1.4.22-2.77.43-4.02.61-.38.16-.76.32-1.16.45a14.3 14.3 0 0 1-6.61.49c-1-.16-1.98-.43-2.92-.8-.17-.07-.33-.16-.5-.23-1.21-.18-2.51-.37-3.83-.59-.17 2.12-.7 4.71-2.34 7.08 1.38 1.13 4.4 5 11.86 10.72" class="st20"/><path id="XMLID_18_" d="M907.43 439.38c.28-3.01-5.34-6.52-6.4-8.18-1.06 1.65-6.68 5.17-6.4 8.18.32 3.41-10.01-8.63-10.54-13.95-.01.03-.02.06-.02.09-.11.68-1.03 2.78 2.75 8.13 3.28 4.65 13.43 22.9 14.24 29.66.81-6.76 10.9-25.01 14.18-29.66 3.77-5.35 2.86-7.45 2.75-8.13a.3.3 0 0 1-.02-.09c-.53 5.32-10.87 17.37-10.54 13.95" class="st26"/><path id="XMLID_17_" d="M917.45 395.96c-1-.71-.96 9.37-5.09 13.35-.3.29-.6.57-.91.84-.96.84-1.99 1.62-3.09 2.26-.58.34-1.2.63-1.82.9 1.25-.18 2.63-.39 4.02-.61 5.79-.93 11.93-2.17 10.99-3.13-1.67-1.7-1-9.27-1.06-15.46-.71 1.62-1.74 2.73-3.04 1.85"/><path id="XMLID_16_" d="M892.84 411.88c-1.12-.75-2.16-1.62-3.13-2.56-4.13-3.99-4.1-14.07-5.09-13.35-1.07.72-1.96.08-2.64-1.07-.01 6.03.54 13.05-1.06 14.68-.92.94 4.92 2.14 10.6 3.07 1.31.21 2.62.41 3.83.59-.88-.39-1.72-.84-2.51-1.36"/><path id="XMLID_15_" d="M884.61 395.96c1-.71.96 9.37 5.09 13.35.97.94 2.01 1.81 3.13 2.56.79.53 1.63.97 2.5 1.35.17.07.33.17.5.23.94.37 1.92.64 2.92.8 1.22.19 2.48.23 3.7.11q1.485-.15 2.91-.6c.39-.13.78-.29 1.16-.45.62-.26 1.24-.55 1.82-.9 1.1-.65 2.13-1.42 3.09-2.26.31-.27.61-.55.91-.84 4.13-3.99 4.1-14.07 5.09-13.35 1.3.87 2.33-.23 3.03-1.85.53-1.22.87-2.72.99-3.89.24-2.26-.59-3.4-1.53-3.07-.4 1.22-1.01.79-1.49 1.1-.36.23-.91-1.4-1.75-3.53-4.41 1.36-10.58 2.57-16.02 2.57-4.47 0-9.59-.87-13.76-1.96-1.47 1.77-2.57 2.99-3.09 3.41-.24.19-.39-.39-.76-.91-.12-.07-.25-.17-.4-.33a1.7 1.7 0 0 0-.4-.3c-.24-.08-.52-.1-.86-.03-.6.32-1 1.38-.82 3.04.15 1.43.63 3.37 1.39 4.66.69 1.18 1.58 1.82 2.65 1.09" class="st22"/><path id="XMLID_14_" d="M916.7 384.74c.85 2.13 1.39 3.76 1.75 3.53.48-.3 1.09.13 1.49-1.1.22-.66.37-1.79.42-3.78-.97.44-2.22.9-3.66 1.35"/><path id="XMLID_13_" d="M882.27 387.22c.36.12.61.37.8.63.38.52.53 1.1.76.91.52-.42 1.62-1.64 3.09-3.41-2.4-.63-4.47-1.33-5.93-1.98-.05 2.31.18 3.87.39 3.82h.02c.35-.07.63-.05.87.03"/><path id="XMLID_12_" d="M940.67 433.52c.07.14.16.36.25.63.01-.03.02-.07.03-.08-.08-.2-.17-.4-.28-.55" class="st33"/><path id="XMLID_11_" d="M940.65 433.47v.01z" class="st33"/><path id="XMLID_10_" d="M930.57 460.11c.16-3.77-.85-26.19 9.84-26.83-2.04-1.26-15.76-5.96-18.77-7.11.71.65 1.42 1.44 1.97 2.42 1.91 3.41 2.01 5.51 3.36 6.51s-10.51 1.78-10.51 1.78l7.47 5.64s-8.37 9.57-14.03 13.7c-1.75 1.28-7.24 6.16-8.59 8.37.29 1.35.72 3.16.88 4.1 10.18-.22 19.8-2.7 28.38-6.96-.02-.66-.02-1.21 0-1.62" class="st33"/><path id="XMLID_9_" d="M884.09 425.43c.52 5.32 10.86 17.36 10.54 13.95-.28-3.01 5.34-6.52 6.4-8.18 1.06 1.65 6.68 5.17 6.4 8.18-.32 3.41 10.01-8.63 10.54-13.95-.34-1.8-1.3-2.18-1.3-2.18s.04-.01.1-.02c-.79-.78-1.87-1.89-2.9-3.64-.2-.34-.49-.27-.98.13-1.38 1.13-4.4 5-11.86 10.71-7.46-5.72-10.48-9.58-11.86-10.71-.49-.4-.78-.47-.98-.13-1.04 1.75-2.11 2.87-2.9 3.64.06.01.1.02.1.02s-.96.38-1.3 2.18" class="st27"/><path id="XMLID_8_" d="M901.3 464.6c-1.58-1.38-7.38-7.09-9.13-8.37-5.66-4.13-14.03-13.7-14.03-13.7l7.47-5.64s-11.86-.78-10.51-1.78 1.45-3.1 3.36-6.51c.58-1.04 1.35-1.87 2.1-2.54-3.52 1.33-18.19 6.35-18.83 7.23 10.75.56 9.73 23.06 9.9 26.83.02.48.02 1.19 0 2.03 8.8 4.22 18.65 6.59 29.06 6.59.5 0 1-.03 1.5-.04-.17-.95-.6-2.75-.89-4.1" style="fill:#9b9b9b"/><path id="XMLID_7_" d="M878.45 428.6c-1.91 3.41-2.01 5.51-3.36 6.51s10.51 1.78 10.51 1.78l-7.47 5.64s8.37 9.57 14.03 13.7c1.75 1.28 7.56 6.99 9.13 8.37 1.35-2.21 6.84-7.09 8.59-8.37 5.66-4.13 14.03-13.7 14.03-13.7l-7.47-5.64s11.86-.78 10.51-1.78-1.45-3.1-3.36-6.51c-.55-.98-1.26-1.77-1.97-2.42-.95-.87-1.87-1.48-2.36-1.89-1.36-1.15-2.24-1.11-2.51-1.06-.06.01-.1.02-.1.02s.96.38 1.3 2.18c.01.03.02.06.02.09.11.68 1.03 2.78-2.75 8.13-3.28 4.65-13.37 22.9-14.18 29.66-.81-6.76-10.96-25.01-14.24-29.66-3.77-5.35-2.86-7.45-2.75-8.13.01-.03.02-.06.02-.09.34-1.8 1.3-2.18 1.3-2.18s-.04-.01-.1-.02c-.27-.05-1.15-.1-2.51 1.06-.46.39-1.32.96-2.22 1.77-.73.67-1.51 1.5-2.09 2.54" class="st35"/><path id="XMLID_6_" d="M871.62 460.11c-.16-3.77.85-26.27-9.9-26.83-.59-.03-2.5 8.8-4.46 19.54a67.4 67.4 0 0 0 14.36 9.32c.02-.84.02-1.54 0-2.03" class="st35"/><path id="XMLID_5_" d="M940.65 433.48c-.07-.13-.14-.2-.19-.2-.02 0-.04.01-.06.01-10.69.64-9.67 23.06-9.84 26.83-.02.41-.02.96-.01 1.62 5.17-2.57 9.95-5.78 14.26-9.53-1.56-8.48-3.07-15.66-3.89-18.06-.09-.27-.18-.48-.25-.63-.01-.02-.01-.03-.02-.04" class="st35"/><path id="XMLID_4_" d="M888.19 382.79c2.37.5 6.76.87 9.66 1.07-.5-10.59-7.76-22.96-8.33-23.92-8.58 4.78-9.88 15.09-9.88 20.83l.25.11c1.17.18 3.54.9 8.3 1.91" class="st29"/><path id="XMLID_3_" d="M903.52 383.87c2.9-.2 7.29-.57 9.66-1.07 4.76-1.01 7.13-1.74 8.3-1.9.17-.07.25-.11.25-.11 0-5.74-1.3-16.05-9.88-20.83-.57.95-7.83 13.32-8.33 23.91" class="st29"/><path id="XMLID_2_" d="M886.93 385.35c4.16 1.09 9.28 1.96 13.76 1.96 5.44 0 11.61-1.21 16.02-2.57 1.44-.45 2.69-.91 3.66-1.35 1.39-.63 2.22-1.22 2.22-1.65 0-.75-.17-.98-1.11-.85-1.17.16-3.54.89-8.3 1.9-2.37.5-6.76.87-9.66 1.07.5-10.59 7.76-22.96 8.33-23.92.02-.04.04-.07.04-.07-2.48-2.5-7.34-3.99-11.57-3.95-4.02.04-8.57 1.65-10.84 3.95 0 0 .02.03.04.07.57.96 7.83 13.33 8.33 23.92-2.9-.2-7.29-.57-9.66-1.07-4.76-1.01-7.13-1.74-8.3-1.9-.94-.13-1.11.1-1.11.85 0 .43.83 1.01 2.21 1.63 1.47.66 3.54 1.36 5.94 1.98" class="st30"/></g><circle cx="851.5" cy="437.5" r="36.5" class="st9"/><path d="m872.44 455.15-8.48-10.99a.45.45 0 0 0-.64-.08l-4.35 3.36a.45.45 0 0 0-.08.64l.08.1c-3.03-.26-8.5-4.06-11.72-8.17-3.16-4.16-5.45-10.41-4.94-13.41l.08.1c.15.2.44.24.64.08l4.35-3.36c.2-.15.24-.44.08-.64l-8.49-10.99a.45.45 0 0 0-.64-.08l-4.35 3.36c-.2.15-.23.44-.08.64-2.3 2.39-3.08 5.18-2.27 9.12.4 1.97 1.43 9.86 9.28 20.06 7.88 10.17 15.27 13.17 17.07 14.06 3.61 1.78 6.5 1.73 9.4.11.15.2.44.23.64.08l4.35-3.36c.19-.14.23-.43.07-.63" class="st1"/></g><path id="Capa_7" d="m164 342 140-157" class="st2"/><path id="Capa_8" d="m315 356 73-159" class="st36"/><g id="Capa_9"><path d="M506 387v-6" class="st37"/><path d="M506 368.87v-163.8" style="fill:none;stroke:#348dd6;stroke-width:16;stroke-miterlimit:10;stroke-dasharray:12.1333,12.1333"/><path d="M506 199v-6" class="st37"/></g><path id="Capa_10" d="m703 346-70-158" class="st36"/><g id="Capa_11"><path d="M864 321 747 182" class="st2"/></g></svg>