<svg xmlns="http://www.w3.org/2000/svg" xml:space="preserve" id="Capa_1" x="0" y="0" version="1.1" viewBox="0 0 407.68 695.27"><style>.st0{fill:#0085b0}.st1{fill:#e0ef18}.st3{fill:#fff}.st50{fill:#1e1d1e}</style><path d="M11.52 204.63c0 22 13.29 27.86 29.54 13.03 0 0 156.99-143.3 353.09 26.97V50.27c0-22-18-40-40-40H51.52c-22 0-40 18-40 40zM393.68 642.27c0 22-18 40-40 40H52c-22 0-40-18-40-40V596c0-22 18-40 40-40h301.68c22 0 40 18 40 40z" class="st0"/><path d="M160.8 385.69c-.34-.35-.51-.9-.51-1.63v-21.55q0-1.095.51-1.62c.51-.525.94-.51 1.8-.51h4.37c.56 0 1 .07 1.33.21s.58.41.76.82l4.45 11.13 4.45-11.13c.18-.41.43-.68.76-.82s.77-.21 1.33-.21h4.37q1.29 0 1.8.51c.51.51.51.88.51 1.62v21.55c0 .74-.17 1.28-.51 1.63-.34.36-.93.53-1.77.53h-3.65c-.84 0-1.43-.18-1.79-.53-.35-.35-.53-.9-.53-1.63v-10.37l-2.24 5.17c-.3.74-.63 1.26-.99 1.58s-.94.47-1.75.47-1.39-.16-1.75-.47c-.35-.32-.68-.84-.99-1.58l-2.24-5.17v10.37c0 .74-.17 1.28-.51 1.63-.34.36-.94.53-1.81.53h-3.65c-.82 0-1.41-.18-1.75-.53M187.69 385.42c0-.23.06-.51.19-.84l9.46-22.76c.23-.53.49-.91.78-1.12s.7-.32 1.23-.32h4.14c.53 0 .94.11 1.23.32s.55.59.78 1.12l9.42 22.76c.13.33.19.61.19.84 0 .53-.28.8-.84.8h-7.14c-.79 0-1.28-.34-1.48-1.03l-.91-2.81h-6.73l-.87 2.81c-.2.68-.7 1.03-1.48 1.03h-7.14c-.55 0-.83-.26-.83-.8m9.65-27.32c0-.2.04-.42.11-.65l1.6-4.41c.2-.58.44-.98.72-1.18q.42-.3 1.56-.3h5.43c.53 0 .95.09 1.25.28s.46.46.46.82c0 .3-.1.62-.3.95l-2.43 4.1c-.36.61-.7 1-1.03 1.18s-.92.27-1.79.27h-4.07c-1.01.01-1.51-.35-1.51-1.06m5.55 18.28-1.48-4.71-1.48 4.71zM220.14 386.07c-1.98-.48-3.57-1.15-4.79-2.01-.51-.35-.76-.7-.76-1.03q0-.345.27-.72l2.21-3.46c.23-.33.46-.49.68-.49q.3 0 .72.27c.91.56 1.96.99 3.14 1.31s2.32.47 3.44.47c.94 0 1.61-.13 2.03-.38s.63-.65.63-1.18q0-.87-.84-1.41c-.56-.35-1.52-.8-2.89-1.33-2.56-.99-4.57-2.11-6.04-3.36s-2.2-2.92-2.2-5c0-2.63.92-4.62 2.75-5.95 1.84-1.33 4.31-2 7.43-2 2.18 0 4.03.19 5.57.57s2.87.98 4.01 1.79c.51.36.76.7.76 1.03q0 .345-.27.72l-2.21 3.46c-.23.35-.46.53-.68.53q-.225 0-.72-.3c-.61-.41-1.33-.74-2.17-1.01s-1.74-.4-2.7-.4c-.89 0-1.56.13-2.01.38-.46.25-.68.66-.68 1.22 0 .46.16.84.47 1.14.32.3.71.56 1.2.78.48.21 1.32.56 2.51 1.04 1.9.76 3.39 1.49 4.48 2.18 1.09.7 1.91 1.53 2.47 2.51s.84 2.21.84 3.71c0 2.28-.85 4.12-2.56 5.53s-4.26 2.11-7.66 2.11c-2.32 0-4.46-.24-6.43-.72M28.41 431.29c-.34-.35-.51-.9-.51-1.63v-21.51c0-.73.17-1.28.51-1.63s.93-.53 1.77-.53h15.73q1.215 0 1.65.51c.29.34.44.89.44 1.65v2.13c0 .76-.15 1.31-.44 1.65q-.435.51-1.65.51h-8.89v3.23h5.47q1.215 0 1.65.51c.29.34.44.89.44 1.65v2.13c0 .76-.15 1.31-.44 1.65q-.435.51-1.65.51h-5.47v7.52c0 .74-.17 1.28-.51 1.63-.34.36-.94.53-1.8.53h-4.52c-.85.02-1.44-.16-1.78-.51M55.07 431.19c-1.88-.8-3.33-1.95-4.37-3.46s-1.56-3.3-1.56-5.38v-14.21c0-.73.17-1.28.51-1.63s.93-.53 1.77-.53h4.52c.86 0 1.46.17 1.81.51q.51.51.51 1.65v14.33c0 1.19.3 2.08.89 2.66s1.41.87 2.45.87 1.86-.29 2.45-.87.89-1.47.89-2.66v-14.33c0-.73.17-1.28.51-1.63s.93-.53 1.77-.53h4.52c.86 0 1.46.17 1.81.51q.51.51.51 1.65v14.21c0 2.08-.52 3.87-1.56 5.38s-2.49 2.66-4.37 3.46-4.05 1.2-6.54 1.2c-2.47 0-4.65-.4-6.52-1.2M77.05 431.29c-.34-.35-.51-.9-.51-1.63v-21.55q0-1.095.51-1.62c.51-.525.94-.51 1.8-.51h3.61c.53 0 .94.07 1.24.21.29.14.58.41.86.82l6.88 10.22v-9.08c0-.73.17-1.28.51-1.63s.93-.53 1.77-.53h4.52q1.29 0 1.8.51c.51.51.51.89.51 1.65v21.55c0 .74-.17 1.27-.51 1.62q-.51.51-1.8.51h-3.61c-.53 0-.94-.07-1.24-.21-.29-.14-.58-.41-.85-.82l-6.88-10.22v9.12c0 .74-.17 1.27-.51 1.62q-.51.51-1.8.51h-4.52c-.85-.01-1.44-.19-1.78-.54M106.29 428.99c-2.56-2.27-3.84-5.63-3.84-10.09 0-4.48 1.24-7.85 3.71-10.11 2.47-2.25 6-3.38 10.58-3.38 2.08 0 3.93.2 5.55.61s2.98.98 4.07 1.71c.3.23.46.48.46.76 0 .23-.11.54-.34.95l-1.9 3.27c-.2.36-.44.53-.72.53q-.27 0-.87-.3-1.065-.525-2.22-.84c-.77-.2-1.68-.3-2.72-.3-2.1 0-3.71.61-4.83 1.82-1.12 1.22-1.67 2.98-1.67 5.28 0 2.28.61 4.03 1.82 5.26 1.22 1.23 2.88 1.84 4.98 1.84 1.82 0 3.5-.38 5.02-1.14q.615-.3.87-.3c.28 0 .52.18.72.53l1.9 3.27c.23.41.34.72.34.95 0 .28-.15.53-.46.76-1.09.74-2.46 1.3-4.1 1.71-1.65.41-3.51.61-5.59.61-4.62 0-8.2-1.13-10.76-3.4M129.6 431.29c-.34-.35-.51-.9-.51-1.63v-21.51c0-.73.17-1.28.51-1.63s.93-.53 1.77-.53h4.52q1.29 0 1.8.51c.51.51.51.89.51 1.65v21.51c0 .74-.17 1.28-.51 1.63-.34.36-.94.53-1.8.53h-4.52c-.84 0-1.42-.18-1.77-.53M143.61 428.88c-2.33-2.34-3.5-5.67-3.5-9.97s1.17-7.63 3.5-9.97 5.75-3.52 10.26-3.52 7.93 1.17 10.26 3.52c2.33 2.34 3.5 5.67 3.5 9.97s-1.17 7.63-3.5 9.97-5.75 3.52-10.26 3.52c-4.51-.01-7.93-1.18-10.26-3.52m13.83-4.64c.73-1.18 1.1-2.96 1.1-5.34 0-2.41-.37-4.19-1.1-5.36s-1.92-1.75-3.57-1.75-2.84.58-3.57 1.75c-.74 1.17-1.1 2.95-1.1 5.36 0 2.38.37 4.16 1.1 5.34q1.095 1.77 3.57 1.77 2.46 0 3.57-1.77M170.04 431.29c-.34-.35-.51-.9-.51-1.63v-21.55q0-1.095.51-1.62c.51-.525.94-.51 1.8-.51h3.61c.53 0 .94.07 1.24.21.29.14.58.41.85.82l6.88 10.22v-9.08c0-.73.17-1.28.51-1.63s.93-.53 1.77-.53h4.52c.86 0 1.46.17 1.81.51s.51.89.51 1.65v21.55c0 .74-.17 1.27-.51 1.62-.34.34-.94.51-1.81.51h-3.61q-.795 0-1.23-.21c-.29-.14-.58-.41-.86-.82l-6.88-10.22v9.12c0 .74-.17 1.27-.51 1.62q-.51.51-1.8.51h-4.52q-1.26-.015-1.77-.54M195.44 431.02c0-.23.06-.51.19-.84l9.46-22.76c.23-.53.49-.91.78-1.12.29-.22.7-.32 1.23-.32h4.14c.53 0 .94.11 1.23.32s.55.59.78 1.12l9.42 22.76c.13.33.19.61.19.84 0 .53-.28.8-.84.8h-7.14c-.79 0-1.28-.34-1.48-1.03l-.91-2.81h-6.73l-.87 2.81c-.2.68-.7 1.03-1.48 1.03h-7.14c-.55 0-.83-.26-.83-.8m15.2-9.04-1.48-4.71-1.48 4.71zM225.29 431.29c-.34-.35-.51-.9-.51-1.63v-21.51c0-.73.17-1.28.51-1.63s.93-.53 1.77-.53h4.52q1.29 0 1.8.51c.51.51.51.89.51 1.65v17.21h8.85q1.215 0 1.65.51c.435.51.44.89.44 1.65v2.13c0 .76-.15 1.31-.44 1.65q-.435.51-1.65.51h-15.69c-.83.01-1.42-.17-1.76-.52M246.49 431.29c-.34-.35-.51-.9-.51-1.63v-21.51c0-.73.17-1.28.51-1.63s.93-.53 1.77-.53h4.52q1.29 0 1.8.51c.51.51.51.89.51 1.65v21.51c0 .74-.17 1.28-.51 1.63-.34.36-.94.53-1.8.53h-4.52c-.84 0-1.43-.18-1.77-.53M258.27 431.29c-.34-.35-.51-.9-.51-1.63v-21.51c0-.73.17-1.28.51-1.63s.93-.53 1.77-.53h8.74c8.94 0 13.41 4.31 13.41 12.92 0 4.26-1.15 7.47-3.44 9.65s-5.62 3.27-9.98 3.27h-8.74c-.83-.01-1.42-.19-1.76-.54m10.85-5.93q2.13 0 3.06-1.41c.62-.94.93-2.62.93-5.05s-.31-4.12-.93-5.05q-.93-1.41-3.06-1.41h-2.24v12.92zM281.62 431.02c0-.23.06-.51.19-.84l9.46-22.76c.23-.53.49-.91.78-1.12.29-.22.7-.32 1.23-.32h4.14c.53 0 .94.11 1.23.32s.55.59.78 1.12l9.42 22.76c.13.33.19.61.19.84 0 .53-.28.8-.84.8h-7.14c-.79 0-1.28-.34-1.48-1.03l-.91-2.81h-6.73l-.87 2.81c-.2.68-.7 1.03-1.48 1.03h-7.14c-.55 0-.83-.26-.83-.8m15.2-9.04-1.48-4.71-1.48 4.71zM311.47 431.29c-.34-.35-.51-.9-.51-1.63v-21.51c0-.73.17-1.28.51-1.63s.93-.53 1.77-.53h8.74c8.94 0 13.41 4.31 13.41 12.92 0 4.26-1.15 7.47-3.44 9.65s-5.62 3.27-9.98 3.27h-8.74c-.83-.01-1.42-.19-1.76-.54m10.85-5.93q2.13 0 3.06-1.41c.62-.94.93-2.62.93-5.05s-.31-4.12-.93-5.05q-.93-1.41-3.06-1.41h-2.24v12.92zM337.8 431.29c-.34-.35-.51-.9-.51-1.63v-21.51c0-.73.17-1.28.51-1.63s.93-.53 1.77-.53h15.73q1.215 0 1.65.51c.29.34.44.89.44 1.65v2.13c0 .76-.15 1.31-.44 1.65q-.435.51-1.65.51h-8.89v3.27h5.47q1.215 0 1.65.51c.29.34.44.89.44 1.65v2.05c0 .76-.15 1.31-.44 1.65q-.435.51-1.65.51h-5.47v3.27h8.85q1.215 0 1.65.51c.435.51.44.89.44 1.65v2.13c0 .76-.15 1.31-.44 1.65q-.435.51-1.65.51h-15.7c-.83.02-1.41-.16-1.76-.51M363.93 431.67c-1.97-.48-3.57-1.15-4.79-2.01-.51-.35-.76-.7-.76-1.03q0-.345.27-.72l2.2-3.46c.23-.33.46-.49.68-.49q.3 0 .72.27c.91.56 1.96.99 3.14 1.31s2.32.47 3.44.47c.94 0 1.62-.13 2.03-.38.42-.25.63-.65.63-1.18q0-.87-.84-1.41c-.56-.35-1.52-.8-2.89-1.33-2.56-.99-4.57-2.11-6.04-3.36s-2.2-2.92-2.2-5c0-2.63.92-4.62 2.75-5.95 1.84-1.33 4.31-2 7.43-2 2.18 0 4.03.19 5.57.57 1.53.38 2.87.98 4.01 1.79.51.35.76.7.76 1.03q0 .345-.27.72l-2.2 3.46c-.23.35-.46.53-.68.53q-.225 0-.72-.3c-.61-.41-1.33-.74-2.17-1.01s-1.74-.4-2.7-.4c-.89 0-1.56.13-2.01.38-.46.25-.68.66-.68 1.22q0 .69.48 1.14c.32.3.71.56 1.2.78s1.32.56 2.51 1.04c1.9.76 3.39 1.49 4.48 2.18 1.09.7 1.91 1.53 2.47 2.51s.84 2.21.84 3.71c0 2.28-.86 4.12-2.56 5.53-1.71 1.41-4.26 2.11-7.66 2.11-2.32 0-4.47-.24-6.44-.72M37.61 477.27c-1.97-.48-3.57-1.15-4.79-2.01-.51-.35-.76-.7-.76-1.03q0-.345.27-.72l2.2-3.46c.23-.33.46-.49.68-.49q.3 0 .72.27c.91.56 1.96.99 3.14 1.31s2.32.47 3.44.47c.94 0 1.62-.13 2.03-.38.42-.25.63-.65.63-1.18q0-.87-.84-1.41c-.56-.35-1.52-.8-2.89-1.33-2.56-.99-4.57-2.11-6.04-3.36s-2.2-2.92-2.2-5c0-2.63.92-4.62 2.75-5.95 1.84-1.33 4.31-2 7.43-2 2.18 0 4.03.19 5.57.57 1.53.38 2.87.98 4.01 1.79.51.35.76.7.76 1.03q0 .345-.27.72l-2.2 3.46c-.23.35-.46.53-.68.53q-.225 0-.72-.3c-.61-.41-1.33-.74-2.17-1.01s-1.74-.4-2.7-.4c-.89 0-1.56.13-2.01.38-.46.25-.68.66-.68 1.22q0 .69.48 1.14c.32.3.71.56 1.2.78s1.32.56 2.51 1.04c1.9.76 3.39 1.49 4.48 2.18 1.09.7 1.91 1.53 2.47 2.51s.84 2.21.84 3.71c0 2.28-.86 4.12-2.56 5.53-1.71 1.41-4.26 2.11-7.66 2.11-2.33 0-4.47-.24-6.44-.72M56.66 476.89c-.34-.35-.51-.9-.51-1.63v-21.51c0-.73.17-1.28.51-1.63s.93-.53 1.77-.53h15.73q1.215 0 1.65.51c.435.51.44.89.44 1.65v2.13c0 .76-.15 1.31-.44 1.65q-.435.51-1.65.51h-8.89v3.27h5.47q1.215 0 1.65.51c.29.34.44.89.44 1.65v2.05c0 .76-.15 1.31-.44 1.65s-.84.51-1.65.51h-5.47v3.27h8.85q1.215 0 1.65.51c.29.34.44.89.44 1.65v2.13c0 .76-.15 1.31-.44 1.65q-.435.51-1.65.51H58.43c-.84.02-1.42-.16-1.77-.51"/><path d="M79.33 474.59c-2.56-2.27-3.84-5.63-3.84-10.09 0-4.43 1.28-7.79 3.84-10.07q3.84-3.42 10.71-3.42c2.08 0 3.94.2 5.59.61s3.02.98 4.1 1.71c.3.23.46.48.46.76 0 .23-.11.54-.34.95l-1.9 3.27c-.2.36-.44.53-.72.53q-.27 0-.87-.3c-1.52-.76-3.19-1.14-5.02-1.14-2.1 0-3.76.6-4.96 1.81-1.2 1.2-1.81 2.97-1.81 5.3 0 2.41.51 4.19 1.52 5.34s2.52 1.73 4.52 1.73c.35 0 .75-.03 1.2-.1q.66-.09 1.08-.21v-3.46h-2.43c-.81 0-1.36-.16-1.65-.47-.29-.32-.44-.86-.44-1.62v-2.09c0-.76.15-1.3.44-1.62s.84-.47 1.65-.47h8.17c.99 0 1.67.22 2.05.67.38.44.57 1.15.57 2.11v8.89c0 .56-.07.98-.21 1.27s-.41.59-.82.89c-2.43 1.75-5.81 2.62-10.15 2.62-4.6 0-8.18-1.13-10.74-3.4M110.03 476.79c-1.88-.8-3.33-1.95-4.37-3.46s-1.56-3.3-1.56-5.38v-14.21c0-.73.17-1.28.51-1.63s.93-.53 1.77-.53h4.52c.86 0 1.46.17 1.81.51q.51.51.51 1.65v14.33c0 1.19.3 2.08.89 2.66s1.41.87 2.45.87 1.86-.29 2.45-.87c.6-.58.89-1.47.89-2.66v-14.33c0-.73.17-1.28.51-1.63s.93-.53 1.77-.53h4.52q1.29 0 1.8.51t.51 1.65v14.21c0 2.08-.52 3.87-1.56 5.38s-2.5 2.66-4.37 3.46c-1.88.8-4.05 1.2-6.54 1.2-2.45 0-4.63-.4-6.51-1.2m2.66-28.4c0-.2.04-.42.11-.65l1.6-4.41c.2-.58.44-.97.72-1.18s.8-.3 1.56-.3h5.43c.53 0 .95.1 1.25.29s.46.46.46.82c0 .3-.1.62-.3.95l-2.43 4.1c-.36.61-.7 1-1.03 1.18s-.92.27-1.79.27h-4.07c-1-.01-1.51-.36-1.51-1.07M130.88 476.89c-.34-.35-.51-.9-.51-1.63v-21.55q0-1.095.51-1.62c.34-.34.94-.51 1.81-.51h3.61q.795 0 1.23.21c.29.14.58.41.86.82l6.88 10.22v-9.08c0-.73.17-1.28.51-1.63s.93-.53 1.77-.53h4.52q1.29 0 1.8.51c.51.51.51.89.51 1.65v21.55c0 .74-.17 1.27-.51 1.62q-.51.51-1.8.51h-3.61c-.53 0-.94-.07-1.24-.21-.29-.14-.58-.41-.85-.82l-6.88-10.22v9.12c0 .74-.17 1.27-.51 1.62-.34.34-.94.51-1.81.51h-4.52q-1.26-.015-1.77-.54M168.95 476.89c-.34-.35-.51-.9-.51-1.63v-21.55q0-1.095.51-1.62c.51-.525.94-.51 1.8-.51h3.61c.53 0 .94.07 1.24.21.29.14.58.41.86.82l6.88 10.22v-9.08c0-.73.17-1.28.51-1.63s.93-.53 1.77-.53h4.52q1.29 0 1.8.51c.51.51.51.89.51 1.65v21.55c0 .74-.17 1.27-.51 1.62q-.51.51-1.8.51h-3.61c-.53 0-.94-.07-1.24-.21-.29-.14-.58-.41-.85-.82l-6.88-10.22v9.12c0 .74-.17 1.27-.51 1.62q-.51.51-1.8.51h-4.52c-.85-.01-1.44-.19-1.78-.54M195.63 476.89c-.34-.35-.51-.9-.51-1.63v-21.51c0-.73.17-1.28.51-1.63s.93-.53 1.77-.53h15.73q1.215 0 1.65.51c.435.51.44.89.44 1.65v2.13c0 .76-.15 1.31-.44 1.65q-.435.51-1.65.51h-8.89v3.27h5.47q1.215 0 1.65.51c.29.34.44.89.44 1.65v2.05c0 .76-.15 1.31-.44 1.65s-.84.51-1.65.51h-5.47v3.27h8.85q1.215 0 1.65.51c.29.34.44.89.44 1.65v2.13c0 .76-.15 1.31-.44 1.65q-.435.51-1.65.51H197.4c-.84.02-1.43-.16-1.77-.51"/><path d="M218.29 474.59c-2.56-2.27-3.84-5.63-3.84-10.09 0-4.48 1.24-7.85 3.71-10.11 2.47-2.25 6-3.38 10.58-3.38 2.08 0 3.93.2 5.55.61s2.98.98 4.07 1.71c.3.23.46.48.46.76 0 .23-.12.54-.34.95l-1.9 3.27c-.2.36-.44.53-.72.53q-.27 0-.87-.3-1.065-.525-2.22-.84c-.77-.2-1.68-.3-2.72-.3-2.1 0-3.71.61-4.83 1.82-1.12 1.22-1.67 2.98-1.67 5.28 0 2.28.61 4.03 1.82 5.26 1.22 1.23 2.88 1.84 4.98 1.84 1.82 0 3.5-.38 5.02-1.14.41-.2.7-.3.88-.3.28 0 .52.18.72.53l1.9 3.27c.23.41.34.72.34.95 0 .28-.15.53-.46.76-1.09.74-2.46 1.3-4.1 1.71-1.65.41-3.51.61-5.59.61-4.62 0-8.21-1.13-10.77-3.4M241.61 476.89c-.34-.35-.51-.9-.51-1.63v-21.51c0-.73.17-1.28.51-1.63s.93-.53 1.77-.53h15.73q1.215 0 1.65.51c.29.34.44.89.44 1.65v2.13c0 .76-.15 1.31-.44 1.65q-.435.51-1.65.51h-8.89v3.27h5.47q1.215 0 1.65.51c.29.34.44.89.44 1.65v2.05c0 .76-.15 1.31-.44 1.65q-.435.51-1.65.51h-5.47v3.27h8.85q1.215 0 1.65.51c.435.51.44.89.44 1.65v2.13c0 .76-.15 1.31-.44 1.65q-.435.51-1.65.51h-15.7c-.83.02-1.42-.16-1.76-.51M267.73 477.27c-1.97-.48-3.57-1.15-4.79-2.01-.51-.35-.76-.7-.76-1.03q0-.345.27-.72l2.2-3.46c.23-.33.46-.49.68-.49q.3 0 .72.27c.91.56 1.96.99 3.14 1.31s2.32.47 3.44.47c.94 0 1.62-.13 2.03-.38.42-.25.63-.65.63-1.18q0-.87-.84-1.41c-.56-.35-1.52-.8-2.89-1.33-2.56-.99-4.57-2.11-6.04-3.36s-2.2-2.92-2.2-5c0-2.63.92-4.62 2.75-5.95 1.84-1.33 4.31-2 7.43-2 2.18 0 4.03.19 5.57.57 1.53.38 2.87.98 4.01 1.79.51.35.76.7.76 1.03q0 .345-.27.72l-2.2 3.46c-.23.35-.46.53-.68.53q-.225 0-.72-.3c-.61-.41-1.33-.74-2.17-1.01s-1.74-.4-2.7-.4c-.89 0-1.56.13-2.01.38-.46.25-.68.66-.68 1.22q0 .69.48 1.14c.32.3.71.56 1.2.78s1.32.56 2.51 1.04c1.9.76 3.39 1.49 4.48 2.18 1.09.7 1.91 1.53 2.47 2.51s.84 2.21.84 3.71c0 2.28-.86 4.12-2.56 5.53-1.71 1.41-4.26 2.11-7.66 2.11-2.32 0-4.46-.24-6.44-.72M286.79 476.89c-.34-.35-.51-.9-.51-1.63v-21.51c0-.73.17-1.28.51-1.63s.93-.53 1.77-.53h4.52c.86 0 1.46.17 1.81.51s.51.89.51 1.65v21.51c0 .74-.17 1.28-.51 1.63-.34.36-.94.53-1.81.53h-4.52c-.84 0-1.43-.18-1.77-.53M298.57 476.89c-.34-.35-.51-.9-.51-1.63v-21.51c0-.73.17-1.28.51-1.63s.93-.53 1.77-.53h8.74c8.94 0 13.41 4.31 13.41 12.92 0 4.26-1.15 7.47-3.44 9.65s-5.62 3.27-9.98 3.27h-8.74c-.83-.01-1.42-.19-1.76-.54m10.85-5.93q2.13 0 3.06-1.41c.62-.94.93-2.62.93-5.05s-.31-4.12-.93-5.05q-.93-1.41-3.06-1.41h-2.24v12.92zM321.92 476.62c0-.23.06-.51.19-.84l9.46-22.76c.23-.53.49-.91.78-1.12.29-.22.7-.32 1.23-.32h4.14c.53 0 .94.11 1.23.32s.55.59.78 1.12l9.42 22.76c.13.33.19.61.19.84 0 .53-.28.8-.84.8h-7.14c-.79 0-1.28-.34-1.48-1.03l-.91-2.81h-6.73l-.87 2.81c-.2.68-.7 1.03-1.48 1.03h-7.14c-.55 0-.83-.26-.83-.8m15.2-9.04-1.48-4.71-1.48 4.71zM351.77 476.89c-.34-.35-.51-.9-.51-1.63v-21.51c0-.73.17-1.28.51-1.63s.93-.53 1.77-.53h8.74c8.94 0 13.41 4.31 13.41 12.92 0 4.26-1.15 7.47-3.44 9.65s-5.62 3.27-9.97 3.27h-8.74q-1.26-.015-1.77-.54m10.85-5.93q2.13 0 3.06-1.41c.62-.94.93-2.62.93-5.05s-.31-4.12-.93-5.05-1.64-1.41-3.06-1.41h-2.24v12.92zM88.81 522.49c-.34-.35-.51-.9-.51-1.63v-21.51c0-.73.17-1.28.51-1.63s.93-.53 1.77-.53h8.74c8.94 0 13.41 4.31 13.41 12.92 0 4.26-1.15 7.47-3.44 9.65s-5.62 3.27-9.97 3.27h-8.74q-1.26-.015-1.77-.54m10.85-5.93q2.13 0 3.06-1.41c.62-.94.93-2.62.93-5.05s-.31-4.12-.93-5.05-1.64-1.41-3.06-1.41h-2.24v12.92zM115.14 522.49c-.34-.35-.51-.9-.51-1.63v-21.51c0-.73.17-1.28.51-1.63s.93-.53 1.77-.53h15.73q1.215 0 1.65.51c.435.51.44.89.44 1.65v2.13c0 .76-.15 1.31-.44 1.65q-.435.51-1.65.51h-8.89v3.27h5.47q1.215 0 1.65.51c.29.34.44.89.44 1.65v2.05c0 .76-.15 1.31-.44 1.65s-.84.51-1.65.51h-5.47v3.27h8.85q1.215 0 1.65.51c.29.34.44.89.44 1.65v2.13c0 .76-.15 1.31-.44 1.65q-.435.51-1.65.51h-15.69c-.83.02-1.42-.16-1.77-.51M136.96 522.49c-.34-.35-.51-.9-.51-1.63v-21.51c0-.73.17-1.28.51-1.63s.93-.53 1.77-.53h4.52c.86 0 1.46.17 1.81.51s.51.89.51 1.65v17.21h8.85q1.215 0 1.65.51c.435.51.44.89.44 1.65v2.13c0 .76-.15 1.31-.44 1.65q-.435.51-1.65.51h-15.7c-.83.01-1.42-.17-1.76-.52M172.13 520.19c-2.56-2.27-3.84-5.63-3.84-10.09 0-4.48 1.23-7.85 3.71-10.11 2.47-2.25 6-3.38 10.58-3.38 2.08 0 3.93.2 5.55.61s2.98.98 4.07 1.71c.3.23.46.48.46.76 0 .23-.11.54-.34.95l-1.9 3.27c-.2.36-.44.53-.72.53q-.27 0-.87-.3-1.065-.525-2.22-.84c-.77-.2-1.68-.3-2.72-.3-2.1 0-3.71.61-4.83 1.82-1.12 1.22-1.67 2.98-1.67 5.28 0 2.28.61 4.03 1.82 5.26s2.88 1.84 4.98 1.84c1.82 0 3.5-.38 5.02-1.14.4-.2.7-.3.87-.3.28 0 .52.18.72.53l1.9 3.27c.23.41.34.72.34.95 0 .28-.15.53-.46.76-1.09.74-2.46 1.3-4.1 1.71s-3.51.61-5.59.61c-4.62 0-8.21-1.13-10.76-3.4M195.44 522.49c-.34-.35-.51-.9-.51-1.63v-21.51c0-.73.17-1.28.51-1.63s.93-.53 1.77-.53h4.52q1.29 0 1.8.51c.51.51.51.89.51 1.65v17.21h8.85q1.215 0 1.65.51c.29.34.44.89.44 1.65v2.13c0 .76-.15 1.31-.44 1.65q-.435.51-1.65.51H197.2c-.83.01-1.42-.17-1.76-.52M216.64 522.49c-.34-.35-.51-.9-.51-1.63v-21.51c0-.73.17-1.28.51-1.63s.93-.53 1.77-.53h4.52c.86 0 1.46.17 1.81.51s.51.89.51 1.65v21.51c0 .74-.17 1.28-.51 1.63-.34.36-.94.53-1.81.53h-4.52c-.84 0-1.43-.18-1.77-.53M228.42 522.49c-.34-.35-.51-.9-.51-1.63v-21.51c0-.73.17-1.28.51-1.63s.93-.53 1.77-.53h15.73q1.215 0 1.65.51c.29.34.44.89.44 1.65v2.13c0 .76-.15 1.31-.44 1.65q-.435.51-1.65.51h-8.89v3.27h5.47q1.215 0 1.65.51c.29.34.44.89.44 1.65v2.05c0 .76-.15 1.31-.44 1.65q-.435.51-1.65.51h-5.47v3.27h8.85q1.215 0 1.65.51c.435.51.44.89.44 1.65v2.13c0 .76-.15 1.31-.44 1.65q-.435.51-1.65.51h-15.69c-.84.02-1.43-.16-1.77-.51M250.23 522.49c-.34-.35-.51-.9-.51-1.63v-21.55q0-1.095.51-1.62c.34-.34.94-.51 1.81-.51h3.61q.795 0 1.23.21c.29.14.58.41.86.82l6.88 10.22v-9.08c0-.73.17-1.28.51-1.63s.93-.53 1.77-.53h4.52q1.29 0 1.8.51c.51.51.51.89.51 1.65v21.55c0 .74-.17 1.27-.51 1.62q-.51.51-1.8.51h-3.61c-.53 0-.94-.07-1.24-.21-.29-.14-.58-.41-.85-.82l-6.88-10.22v9.12c0 .74-.17 1.27-.51 1.62-.34.34-.94.51-1.81.51H252c-.84-.01-1.42-.19-1.77-.54M282.95 522.49c-.34-.35-.51-.9-.51-1.63v-17.21h-5.47q-1.215 0-1.65-.51c-.29-.34-.44-.89-.44-1.65v-2.13c0-.76.15-1.31.44-1.65s.84-.51 1.65-.51h20.06q1.215 0 1.65.51c.29.34.44.89.44 1.65v2.13c0 .76-.15 1.31-.44 1.65q-.435.51-1.65.51h-5.47v17.21c0 .74-.17 1.28-.51 1.63-.34.36-.94.53-1.8.53h-4.52c-.85 0-1.44-.18-1.78-.53M300.77 522.49c-.34-.35-.51-.9-.51-1.63v-21.51c0-.73.17-1.28.51-1.63s.93-.53 1.77-.53h15.73q1.215 0 1.65.51c.29.34.44.89.44 1.65v2.13c0 .76-.15 1.31-.44 1.65q-.435.51-1.65.51h-8.89v3.27h5.47q1.215 0 1.65.51c.29.34.44.89.44 1.65v2.05c0 .76-.15 1.31-.44 1.65q-.435.51-1.65.51h-5.47v3.27h8.85q1.215 0 1.65.51c.435.51.44.89.44 1.65v2.13c0 .76-.15 1.31-.44 1.65q-.435.51-1.65.51h-15.7c-.83.02-1.41-.16-1.76-.51"/><path d="m202.78 92.2 13.47 27.29 30.11 4.37-21.79 21.24 5.15 30-26.94-14.16-26.93 14.16 5.14-30-21.79-21.24 30.12-4.37zM140.6 175.42l8.74 17.71 19.54 2.84-14.14 13.78 3.34 19.46-17.48-9.19-17.47 9.19 3.34-19.46-14.14-13.78 19.54-2.84zM270.7 175.42l8.74 17.71 19.54 2.84-14.14 13.78 3.34 19.46-17.48-9.19-17.47 9.19 3.33-19.46-14.13-13.78 19.53-2.84z" class="st1"/><circle cx="203.8" cy="209.24" r="121.96" style="fill:#cecece"/><circle cx="202.84" cy="195.85" r="121.96" class="st3"/><path d="M181.52 636.24c-3.99-2.85-5.99-6.87-5.99-12.08 0-2.14.54-4.16 1.61-6.06q1.605-2.85 4.53-4.53c-1.66-1.07-2.88-2.38-3.69-3.94-.8-1.56-1.21-3.24-1.21-5.04 0-5.11 1.84-9.04 5.51-11.79s8.97-4.13 15.88-4.13 12.2 1.38 15.88 4.13c3.67 2.75 5.51 6.68 5.51 11.79q0 2.7-1.2 5.04c-.8 1.56-2.03 2.87-3.69 3.94 1.95 1.12 3.45 2.63 4.53 4.53 1.07 1.9 1.61 3.92 1.61 6.06 0 5.21-2 9.23-5.99 12.08s-9.54 4.27-16.64 4.27c-7.11 0-12.66-1.43-16.65-4.27m21.9-12.23c0-1.41-.44-2.48-1.31-3.21-.88-.73-2.19-1.09-3.94-1.09-3.46 0-5.18 1.44-5.18 4.31 0 2.82 1.73 4.23 5.18 4.23 3.5-.01 5.25-1.42 5.25-4.24m-1.31-19.35c0-1.31-.32-2.26-.95-2.85-.63-.58-1.63-.88-2.99-.88s-2.36.29-2.99.88c-.63.58-.95 1.53-.95 2.85 0 2.14 1.31 3.21 3.94 3.21s3.94-1.06 3.94-3.21" class="st3"/><circle id="XMLID_159_" cx="197.73" cy="199.96" r="82.04" style="fill:#f2f2f2"/><path id="XMLID_157_" d="M197.68 217.54c6.53 0 12.37-4.25 14.39-4.68-.17-1.44-.2-2.74-.19-3.81-4.97 4.19-7.16 5.62-13.75 5.39-6.85.24-8.95-1.32-14.35-5.9.02 1.16.02 2.67-.19 4.37 2.17.64 7.77 4.62 14.09 4.63" style="fill:#eaccb0"/><path id="XMLID_155_" d="M251.64 235.74c-1.29-1.35-11.06-3.18-17.37-5.87-7.02-2.99-14.24-5.4-17.85-8.32-.05.07-.1.14-.17.2-7.42 7.26-18.56 6.71-18.56 6.71v-.01s-11.05.56-18.47-6.7c-.07-.07-.12-.14-.17-.2-3.62 2.93-10.83 5.33-17.85 8.32-6.63 2.82-17.08 4.71-17.5 6.07 7.64-3.08 11.62 18.5 13.1 35.1C168.83 278 182.81 282 197.73 282c15.1 0 29.23-4.09 41.38-11.21 1.45-16.17 5.27-36.93 12.53-35.05" style="fill:#272728"/><path id="XMLID_153_" d="M198.13 214.44c6.59.23 8.78-1.21 13.75-5.39.39-.33.78-.66 1.21-1.02 6.16-5.23 3.06-16.15 6.8-15.46s8.02-9.67 5.08-11.94c-.06-.05-.12-.08-.18-.12-1.47-.51-2.63.77-3.71 2.59s-.66 4.62-1.74 4.56c-1.45-4.92-1.13-9.3-.84-14.41-10.08 2.96-20.46 4.49-28.86-1.67-1.72-1.26-3.39-2.92-5.99-2.88-3.01.05-4.22 1.84-3.8 4.73.21 1.45.32 3.41.4 4.27.29 3.01-1.58 6.71-2.27 7.42-.45.46-1.54 2.38-2.2 2.54-.54.13-.17-3.01-1.97-5.72-1.02-1.53-1.63-1.72-1.91-1.71-.19.11-.39.24-.6.4-2.94 2.27 1.34 12.62 5.08 11.94s.64 10.23 6.8 15.46c.21.18.4.34.6.51 5.4 4.58 7.5 6.14 14.35 5.9" style="fill:#f2d4b6"/><path id="XMLID_151_" d="M143.69 235.94c-.11.05-.23.07-.34.13-1.69.84-4.94 6.52-7.48 17.73a82.4 82.4 0 0 0 20.92 17.23c-1.49-16.59-5.47-38.17-13.1-35.09" class="st50"/><path id="XMLID_146_" d="M252.52 236.07c-.3-.15-.59-.25-.88-.33-7.25-1.88-11.08 18.88-12.54 35.05a82.4 82.4 0 0 0 20.81-17.36c-2.52-10.96-5.72-16.53-7.39-17.36" class="st50"/><path id="XMLID_145_" d="M197.68 228.46v.01s11.13.55 18.56-6.71c.07-.07.12-.14.17-.2.91-1.26-1.47-2.59-1.77-4.02-.32-1.52-.54-5.01-2.46-4.7-.03.01-.07.02-.11.03-2.02.43-7.85 4.68-14.39 4.68v-.01c-6.33 0-11.92-3.97-14.1-4.62-.11-.03-.22-.06-.31-.08-1.92-.31-2.14 3.18-2.46 4.7-.3 1.44-2.68 2.76-1.77 4.02.05.07.1.14.17.2 7.43 7.25 18.47 6.7 18.47 6.7" class="st50"/><path id="XMLID_144_" d="M173.8 181.93c1.79 2.71 1.43 5.85 1.97 5.72.65-.16 1.75-2.08 2.2-2.54.69-.71 2.56-4.41 2.27-7.42-.08-.86-.19-2.82-.4-4.27-.42-2.89.79-4.68 3.8-4.73 2.61-.04 4.27 1.62 5.99 2.88 8.4 6.17 18.78 4.63 28.86 1.67-.28 5.11-.61 9.49.84 14.41 1.07.07.65-2.74 1.74-4.56 1.08-1.82 2.24-3.1 3.71-2.59 2.99-6.37 3.31-16.72.35-23.1s-7.69-9.37-12.37-14.69c.43 1.44-1.52 3.6-3.36 3.77-1.53.14-4.09-.69-5.62-.87-7.75-.94-12.18-1.29-18.52.94-3.27 1.15-6.36 2.76-8.81 5.15-3.17 3.08-5.8 8.67-6.32 12.99-.27 2.24-.55 4.52-.22 7.78.14 1.39.99 6.54 1.82 7.79 0 0 .06-.03.17-.04.27-.01.89.18 1.9 1.71" style="fill:#170623"/><circle cx="267" cy="154" r="34" class="st0"/><path d="M260.55 170.09c-.86-.73-1.29-2.12-1.29-4.16v-4.59h-6.78c-2.04 0-3.42-.43-4.16-1.29-.73-.86-1.1-2.25-1.1-4.16v-5.35c0-1.91.37-3.29 1.1-4.16.73-.86 2.12-1.29 4.16-1.29h6.78v-4.68c0-2.04.43-3.42 1.29-4.16.86-.73 2.25-1.1 4.16-1.1h6.69c1.91 0 3.3.37 4.16 1.1s1.29 2.12 1.29 4.16v4.68h6.88c2.04 0 3.42.43 4.16 1.29.73.86 1.1 2.25 1.1 4.16v5.35c0 1.91-.37 3.3-1.1 4.16s-2.12 1.29-4.16 1.29h-6.88v4.59c0 2.04-.43 3.43-1.29 4.16s-2.25 1.1-4.16 1.1h-6.69c-1.91 0-3.3-.36-4.16-1.1" class="st3"/></svg>