<svg xmlns="http://www.w3.org/2000/svg" xml:space="preserve" id="Capa_1" x="0" y="0" version="1.1" viewBox="0 0 400 702"><style>.st1{fill:#e0ef18}.st3{fill:#fff}.st18{fill:#00d13c}.st50{fill:#1e1d1e}</style><path d="M9.5 209.36c0 22 13.29 27.86 29.54 13.03 0 0 156.99-143.3 353.09 26.97V55c0-22-18-40-40-40H49.5c-22 0-40 18-40 40zM391.66 647c0 22-18 40-40 40H49.98c-22 0-40-18-40-40v-46.27c0-22 18-40 40-40h301.68c22 0 40 18 40 40z" class="st18"/><path d="M168.31 389.48c-.31-.32-.46-.8-.46-1.46v-19.28c0-.66.15-1.14.46-1.45s.84-.46 1.62-.46h3.91c.5 0 .9.06 1.19.19s.52.37.68.73l3.98 9.96 3.98-9.96c.16-.36.39-.61.68-.73.29-.13.69-.19 1.19-.19h3.91c.77 0 1.31.15 1.62.46s.46.79.46 1.45v19.28c0 .66-.15 1.15-.46 1.46s-.83.48-1.58.48h-3.26c-.75 0-1.28-.16-1.6-.48s-.48-.8-.48-1.46v-9.28l-2.01 4.62c-.27.66-.57 1.13-.88 1.41q-.48.42-1.56.42c-1.08 0-1.25-.14-1.56-.42-.32-.28-.61-.75-.88-1.41l-2.01-4.62v9.28c0 .66-.15 1.15-.46 1.46-.31.32-.84.48-1.62.48h-3.26c-.77-.01-1.29-.17-1.6-.48M192.37 389.24c0-.2.06-.45.17-.75l8.46-20.37c.21-.48.44-.81.7-1s.63-.29 1.11-.29h3.71c.48 0 .84.1 1.11.29.26.19.49.53.7 1l8.43 20.37c.11.29.17.54.17.75 0 .48-.25.71-.75.71h-6.39c-.7 0-1.15-.31-1.33-.92l-.82-2.52h-6.02l-.78 2.52c-.18.61-.62.92-1.33.92h-6.39c-.5 0-.75-.24-.75-.71m8.63-24.45c0-.18.04-.37.1-.58l1.43-3.95c.18-.52.4-.87.65-1.05s.71-.27 1.39-.27h4.86c.48 0 .85.08 1.12.25s.41.41.41.73c0 .27-.09.56-.27.85l-2.18 3.67c-.32.54-.62.9-.92 1.05-.29.16-.83.24-1.6.24h-3.64c-.89.01-1.35-.3-1.35-.94m4.97 16.36-1.33-4.22-1.33 4.22zM221.4 389.82c-1.77-.43-3.2-1.03-4.28-1.8-.45-.32-.68-.62-.68-.92 0-.2.08-.42.24-.65l1.97-3.09c.2-.29.41-.44.61-.44.18 0 .4.08.65.24.82.5 1.75.89 2.8 1.17s2.08.42 3.08.42c.84 0 1.44-.11 1.82-.34s.56-.58.56-1.05q0-.78-.75-1.26c-.5-.32-1.36-.71-2.58-1.19-2.29-.88-4.09-1.89-5.41-3.01s-1.97-2.61-1.97-4.47c0-2.36.82-4.13 2.46-5.32s3.86-1.79 6.65-1.79q2.925 0 4.98.51c1.37.34 2.57.87 3.59 1.6.45.32.68.62.68.92 0 .2-.08.42-.24.65l-1.97 3.09c-.2.32-.41.48-.61.48-.14 0-.35-.09-.65-.27-.54-.36-1.19-.66-1.94-.9s-1.55-.36-2.41-.36c-.79 0-1.39.11-1.8.34s-.61.59-.61 1.09c0 .41.14.75.43 1.02.28.27.64.5 1.07.7.43.19 1.18.5 2.24.94 1.7.68 3.04 1.33 4.01 1.96s1.71 1.37 2.21 2.24.75 1.98.75 3.31c0 2.04-.77 3.69-2.29 4.95-1.53 1.26-3.81 1.89-6.85 1.89-2.07-.02-3.99-.23-5.76-.66M49.86 430.28c-.31-.32-.46-.8-.46-1.46v-19.24c0-.66.15-1.14.46-1.46s.83-.48 1.58-.48h14.08c.72 0 1.22.15 1.48.46s.39.8.39 1.48v1.9c0 .68-.13 1.17-.39 1.48s-.75.46-1.48.46h-7.96v2.89h4.9c.72 0 1.22.15 1.48.46s.39.8.39 1.48v1.9c0 .68-.13 1.17-.39 1.48s-.75.46-1.48.46h-4.9v6.73c0 .66-.15 1.15-.46 1.46-.31.32-.84.48-1.62.48h-4.04c-.75-.01-1.28-.17-1.58-.48M73.71 430.19c-1.68-.71-2.98-1.75-3.91-3.09-.93-1.35-1.39-2.95-1.39-4.81v-12.72c0-.66.15-1.14.46-1.46s.83-.48 1.58-.48h4.04c.77 0 1.31.15 1.62.46s.46.8.46 1.48v12.82c0 1.07.27 1.86.8 2.38q.795.78 2.19.78c1.395 0 1.66-.26 2.19-.78s.8-1.31.8-2.38v-12.82c0-.66.15-1.14.46-1.46s.83-.48 1.58-.48h4.05c.77 0 1.31.15 1.62.46s.46.8.46 1.48v12.72c0 1.86-.46 3.46-1.39 4.81s-2.23 2.38-3.91 3.09-3.63 1.07-5.85 1.07c-2.24 0-4.19-.35-5.86-1.07M93.38 430.28c-.31-.32-.46-.8-.46-1.46v-19.28c0-.66.15-1.14.46-1.45s.84-.46 1.62-.46h3.23c.48 0 .84.06 1.11.19.26.12.51.37.76.73l6.15 9.15v-8.13c0-.66.15-1.14.46-1.46s.83-.48 1.58-.48h4.04c.77 0 1.31.15 1.62.46s.46.8.46 1.48v19.28c0 .66-.15 1.14-.46 1.45s-.84.46-1.62.46h-3.23c-.48 0-.84-.06-1.1-.19s-.52-.37-.77-.73l-6.15-9.15v8.16c0 .66-.15 1.14-.46 1.45s-.84.46-1.62.46h-4.04c-.75-.01-1.28-.17-1.58-.48M119.54 428.22c-2.29-2.03-3.43-5.04-3.43-9.03 0-4.01 1.11-7.03 3.32-9.04 2.21-2.02 5.37-3.03 9.47-3.03 1.86 0 3.51.18 4.96.54s2.66.87 3.64 1.53c.27.2.41.43.41.68 0 .2-.1.49-.31.85l-1.7 2.92c-.18.32-.4.48-.65.48q-.24 0-.78-.27c-.63-.32-1.3-.57-1.99-.75q-1.035-.27-2.43-.27c-1.88 0-3.32.54-4.32 1.63s-1.5 2.66-1.5 4.73c0 2.04.54 3.61 1.63 4.71s2.57 1.65 4.45 1.65c1.63 0 3.13-.34 4.49-1.02q.54-.27.78-.27c.25 0 .46.16.65.48l1.7 2.92c.21.36.31.65.31.85 0 .25-.14.48-.41.68-.97.66-2.2 1.17-3.67 1.53s-3.14.54-5 .54c-4.12 0-7.33-1.01-9.62-3.04M140.4 430.28c-.31-.32-.46-.8-.46-1.46v-19.24c0-.66.15-1.14.46-1.46s.83-.48 1.58-.48h4.05c.77 0 1.31.15 1.62.46s.46.8.46 1.48v19.24c0 .66-.15 1.15-.46 1.46s-.84.48-1.62.48h-4.05c-.75-.01-1.28-.17-1.58-.48M152.93 428.12c-2.09-2.1-3.13-5.07-3.13-8.92s1.04-6.83 3.13-8.93 5.15-3.14 9.18-3.14c4.04 0 7.09 1.05 9.18 3.14 2.08 2.1 3.13 5.07 3.13 8.93s-1.04 6.83-3.13 8.92c-2.09 2.1-5.15 3.14-9.18 3.14-4.04 0-7.1-1.05-9.18-3.14m12.37-4.15c.66-1.05.99-2.65.99-4.78 0-2.15-.33-3.75-.99-4.79s-1.72-1.56-3.2-1.56c-1.47 0-2.54.52-3.2 1.56s-.99 2.64-.99 4.79c0 2.13.33 3.72.99 4.78.66 1.05 1.72 1.58 3.2 1.58s2.54-.53 3.2-1.58M176.57 430.28c-.31-.32-.46-.8-.46-1.46v-19.28c0-.66.15-1.14.46-1.45s.84-.46 1.62-.46h3.23c.48 0 .84.06 1.11.19.26.12.52.37.76.73l6.15 9.15v-8.13c0-.66.15-1.14.46-1.46s.83-.48 1.58-.48h4.05c.77 0 1.31.15 1.62.46s.46.8.46 1.48v19.28c0 .66-.15 1.14-.46 1.45s-.84.46-1.62.46h-3.23c-.48 0-.85-.06-1.11-.19s-.52-.37-.77-.73l-6.15-9.15v8.16c0 .66-.15 1.14-.46 1.45s-.84.46-1.62.46h-4.05c-.73-.01-1.26-.17-1.57-.48M199.3 430.04c0-.2.06-.45.17-.75l8.46-20.37c.21-.48.44-.81.7-1s.63-.29 1.11-.29h3.71c.48 0 .84.1 1.11.29.26.19.49.53.7 1l8.43 20.37c.11.29.17.54.17.75 0 .48-.25.71-.75.71h-6.39c-.7 0-1.15-.31-1.33-.92l-.82-2.52h-6.02l-.78 2.52c-.18.61-.62.92-1.33.92h-6.39c-.5 0-.75-.24-.75-.71m13.6-8.09-1.33-4.22-1.33 4.22zM226.01 430.28c-.31-.32-.46-.8-.46-1.46v-19.24c0-.66.15-1.14.46-1.46s.83-.48 1.58-.48h4.05c.77 0 1.31.15 1.62.46s.46.8.46 1.48v15.4h7.92c.73 0 1.22.15 1.48.46s.39.8.39 1.48v1.9c0 .68-.13 1.17-.39 1.48s-.75.46-1.48.46H227.6q-1.14-.015-1.59-.48M244.98 430.28c-.31-.32-.46-.8-.46-1.46v-19.24c0-.66.15-1.14.46-1.46s.83-.48 1.58-.48h4.04c.77 0 1.31.15 1.62.46s.46.8.46 1.48v19.24c0 .66-.15 1.15-.46 1.46-.31.32-.84.48-1.62.48h-4.04c-.75-.01-1.27-.17-1.58-.48M255.52 430.28c-.31-.32-.46-.8-.46-1.46v-19.24c0-.66.15-1.14.46-1.46s.83-.48 1.58-.48h7.82c8 0 12 3.85 12 11.56 0 3.81-1.03 6.69-3.08 8.64s-5.03 2.92-8.93 2.92h-7.82c-.74-.01-1.26-.17-1.57-.48m9.71-5.31c1.27 0 2.18-.42 2.74-1.26.55-.84.83-2.35.83-4.52 0-2.18-.28-3.68-.83-4.52-.56-.84-1.47-1.26-2.74-1.26h-2.01v11.56zM276.41 430.04c0-.2.06-.45.17-.75l8.47-20.37c.2-.48.44-.81.7-1s.63-.29 1.11-.29h3.71c.48 0 .84.1 1.1.29s.49.53.7 1l8.43 20.37c.11.29.17.54.17.75 0 .48-.25.71-.75.71h-6.39c-.7 0-1.15-.31-1.33-.92l-.82-2.52h-6.02l-.78 2.52c-.18.61-.62.92-1.33.92h-6.39c-.5 0-.75-.24-.75-.71m13.6-8.09-1.33-4.22-1.33 4.22zM303.12 430.28c-.31-.32-.46-.8-.46-1.46v-19.24c0-.66.15-1.14.46-1.46s.83-.48 1.58-.48h7.82c8 0 12 3.85 12 11.56 0 3.81-1.03 6.69-3.08 8.64s-5.03 2.92-8.93 2.92h-7.82c-.74-.01-1.26-.17-1.57-.48m9.71-5.31c1.27 0 2.18-.42 2.74-1.26.55-.84.83-2.35.83-4.52 0-2.18-.28-3.68-.83-4.52-.56-.84-1.47-1.26-2.74-1.26h-2.01v11.56zM326.68 430.28c-.31-.32-.46-.8-.46-1.46v-19.24c0-.66.15-1.14.46-1.46s.83-.48 1.58-.48h14.08c.72 0 1.22.15 1.48.46s.39.8.39 1.48v1.9c0 .68-.13 1.17-.39 1.48s-.75.46-1.48.46h-7.96v2.92h4.9c.72 0 1.22.15 1.48.46s.39.8.39 1.48v1.84c0 .68-.13 1.17-.39 1.48s-.75.46-1.48.46h-4.9v2.92h7.92c.73 0 1.22.15 1.48.46s.39.8.39 1.48v1.9c0 .68-.13 1.17-.39 1.48s-.75.46-1.48.46h-14.04c-.74-.01-1.27-.17-1.58-.48M350.06 430.62c-1.77-.43-3.2-1.03-4.28-1.8-.45-.32-.68-.62-.68-.92 0-.2.08-.42.24-.65l1.97-3.09c.2-.29.41-.44.61-.44.18 0 .4.08.65.24.82.5 1.75.89 2.8 1.17s2.08.42 3.08.42c.84 0 1.44-.11 1.82-.34s.56-.58.56-1.05q0-.78-.75-1.26c-.5-.32-1.36-.71-2.58-1.19-2.29-.88-4.09-1.89-5.41-3.01s-1.97-2.61-1.97-4.47c0-2.36.82-4.13 2.46-5.32s3.86-1.79 6.65-1.79q2.925 0 4.98.51c1.37.34 2.57.87 3.59 1.6.45.32.68.62.68.92 0 .2-.08.42-.24.65l-1.97 3.09c-.2.32-.41.48-.61.48-.14 0-.35-.09-.65-.27-.54-.36-1.19-.66-1.94-.9s-1.55-.36-2.41-.36c-.79 0-1.39.11-1.8.34s-.61.59-.61 1.09c0 .41.14.75.43 1.02.28.27.64.5 1.07.7.43.19 1.18.5 2.24.94 1.7.68 3.04 1.33 4.01 1.96s1.71 1.37 2.21 2.24.75 1.98.75 3.31c0 2.04-.77 3.69-2.29 4.95-1.53 1.26-3.81 1.89-6.85 1.89-2.08-.02-4-.23-5.76-.66M58.08 471.42c-1.77-.43-3.2-1.03-4.28-1.8-.45-.32-.68-.62-.68-.92 0-.2.08-.42.24-.65l1.97-3.09c.21-.29.41-.44.61-.44.18 0 .4.08.65.24.82.5 1.75.89 2.8 1.17s2.08.42 3.08.42c.84 0 1.45-.11 1.82-.34.38-.23.56-.58.56-1.05q0-.78-.75-1.26c-.75-.48-1.36-.71-2.58-1.19-2.29-.88-4.09-1.89-5.41-3.01s-1.97-2.61-1.97-4.47c0-2.36.82-4.13 2.46-5.32s3.86-1.79 6.65-1.79q2.925 0 4.98.51c1.37.34 2.57.87 3.59 1.6.45.32.68.62.68.92 0 .2-.08.42-.24.65l-1.97 3.09c-.21.32-.41.48-.61.48-.14 0-.35-.09-.65-.27-.54-.36-1.19-.66-1.94-.9s-1.55-.36-2.41-.36c-.79 0-1.39.11-1.8.34s-.61.59-.61 1.09q0 .615.42 1.02c.28.27.64.5 1.07.7.43.19 1.18.5 2.24.94 1.7.68 3.04 1.33 4.01 1.96s1.71 1.37 2.21 2.24.75 1.98.75 3.31c0 2.04-.77 3.69-2.29 4.95s-3.81 1.89-6.85 1.89c-2.06-.02-3.98-.23-5.75-.66M75.13 471.08c-.31-.32-.46-.8-.46-1.46v-19.24c0-.66.15-1.14.46-1.46s.83-.48 1.58-.48h14.08c.72 0 1.22.15 1.48.46s.39.8.39 1.48v1.9c0 .68-.13 1.17-.39 1.48s-.75.46-1.48.46h-7.96v2.92h4.9c.72 0 1.22.15 1.48.46s.39.8.39 1.48v1.84c0 .68-.13 1.17-.39 1.48s-.75.46-1.48.46h-4.9v2.92h7.92c.73 0 1.22.15 1.48.46s.39.8.39 1.48v1.9c0 .68-.13 1.17-.39 1.48s-.75.46-1.48.46H76.72q-1.125-.015-1.59-.48"/><path d="M95.42 469.02c-2.29-2.03-3.43-5.04-3.43-9.03 0-3.97 1.14-6.97 3.43-9.01s5.49-3.06 9.59-3.06c1.86 0 3.52.18 5 .54 1.47.36 2.7.87 3.67 1.53.27.2.41.43.41.68 0 .2-.1.49-.31.85l-1.7 2.92c-.18.32-.4.48-.65.48q-.24 0-.78-.27c-1.36-.68-2.86-1.02-4.49-1.02q-2.82 0-4.44 1.62c-1.62 1.62-1.61 2.66-1.61 4.74 0 2.15.45 3.75 1.36 4.78s2.25 1.55 4.04 1.55a8.7 8.7 0 0 0 2.04-.27v-3.09h-2.18c-.73 0-1.22-.14-1.48-.43q-.39-.42-.39-1.44v-1.87c0-.68.13-1.16.39-1.45.26-.28.75-.42 1.48-.42h7.31c.88 0 1.5.2 1.84.59q.51.6.51 1.89v7.96c0 .5-.06.88-.19 1.14s-.37.53-.73.8c-2.18 1.56-5.2 2.35-9.08 2.35-4.12-.02-7.32-1.03-9.61-3.06M122.89 470.99c-1.68-.71-2.98-1.75-3.91-3.09-.93-1.35-1.39-2.95-1.39-4.81v-12.72c0-.66.15-1.14.46-1.46s.83-.48 1.58-.48h4.05c.77 0 1.31.15 1.62.46s.46.8.46 1.48v12.82c0 1.07.27 1.86.8 2.38q.795.78 2.19.78t2.19-.78c.53-.52.8-1.31.8-2.38v-12.82c0-.66.15-1.14.46-1.46s.83-.48 1.58-.48h4.05c.77 0 1.31.15 1.61.46s.46.8.46 1.48v12.72c0 1.86-.46 3.46-1.39 4.81s-2.23 2.38-3.91 3.09-3.63 1.07-5.85 1.07c-2.24 0-4.19-.35-5.86-1.07m2.38-25.41c0-.18.03-.37.1-.58l1.43-3.94c.18-.52.4-.87.65-1.05s.71-.27 1.39-.27h4.86c.48 0 .85.08 1.12.25s.41.41.41.73c0 .27-.09.56-.27.85l-2.18 3.67c-.32.54-.62.9-.92 1.05-.29.16-.83.24-1.6.24h-3.64c-.9 0-1.35-.32-1.35-.95M141.54 471.08c-.31-.32-.46-.8-.46-1.46v-19.28c0-.66.15-1.14.46-1.45s.84-.46 1.62-.46h3.23c.48 0 .84.06 1.11.19.26.12.52.37.76.73l6.15 9.15v-8.13c0-.66.15-1.14.46-1.46s.83-.48 1.58-.48h4.05c.77 0 1.31.15 1.62.46s.46.8.46 1.48v19.28c0 .66-.15 1.14-.46 1.45s-.84.46-1.62.46h-3.23c-.48 0-.85-.06-1.11-.19s-.52-.37-.77-.73l-6.15-9.15v8.16c0 .66-.15 1.14-.46 1.45s-.84.46-1.62.46h-4.05c-.74-.01-1.27-.17-1.57-.48M175.6 471.08c-.31-.32-.46-.8-.46-1.46v-19.28c0-.66.15-1.14.46-1.45s.84-.46 1.62-.46h3.23c.48 0 .84.06 1.11.19.26.12.51.37.76.73l6.15 9.15v-8.13c0-.66.15-1.14.46-1.46s.83-.48 1.58-.48h4.04c.77 0 1.31.15 1.62.46s.46.8.46 1.48v19.28c0 .66-.15 1.14-.46 1.45s-.84.46-1.62.46h-3.23c-.48 0-.84-.06-1.1-.19s-.52-.37-.77-.73l-6.15-9.15v8.16c0 .66-.15 1.14-.46 1.45s-.84.46-1.62.46h-4.04c-.74-.01-1.27-.17-1.58-.48M199.47 471.08c-.31-.32-.46-.8-.46-1.46v-19.24c0-.66.15-1.14.46-1.46s.83-.48 1.58-.48h14.08c.72 0 1.22.15 1.48.46s.39.8.39 1.48v1.9c0 .68-.13 1.17-.39 1.48s-.75.46-1.48.46h-7.96v2.92h4.9c.73 0 1.22.15 1.48.46s.39.8.39 1.48v1.84c0 .68-.13 1.17-.39 1.48s-.75.46-1.48.46h-4.9v2.92h7.92c.73 0 1.22.15 1.48.46s.39.8.39 1.48v1.9c0 .68-.13 1.17-.39 1.48s-.75.46-1.48.46h-14.04c-.75-.01-1.27-.17-1.58-.48"/><path d="M219.75 469.02c-2.29-2.03-3.43-5.04-3.43-9.03 0-4.01 1.11-7.03 3.32-9.04s5.37-3.03 9.47-3.03c1.86 0 3.51.18 4.96.54s2.66.87 3.64 1.53c.27.2.41.43.41.68 0 .2-.1.49-.31.85l-1.7 2.92c-.18.32-.4.48-.65.48q-.24 0-.78-.27c-.63-.32-1.3-.57-1.99-.75q-1.035-.27-2.43-.27c-1.88 0-3.32.54-4.32 1.63s-1.5 2.66-1.5 4.73c0 2.04.54 3.61 1.63 4.71s2.57 1.65 4.46 1.65c1.63 0 3.13-.34 4.49-1.02q.54-.27.78-.27c.25 0 .46.16.65.48l1.7 2.92c.2.36.31.65.31.85 0 .25-.14.48-.41.68-.97.66-2.2 1.17-3.67 1.53s-3.14.54-5 .54c-4.13 0-7.34-1.01-9.63-3.04M240.61 471.08c-.31-.32-.46-.8-.46-1.46v-19.24c0-.66.15-1.14.46-1.46s.83-.48 1.58-.48h14.08c.73 0 1.22.15 1.48.46s.39.8.39 1.48v1.9c0 .68-.13 1.17-.39 1.48s-.75.46-1.48.46h-7.96v2.92h4.9c.72 0 1.22.15 1.48.46s.39.8.39 1.48v1.84c0 .68-.13 1.17-.39 1.48s-.75.46-1.48.46h-4.9v2.92h7.92c.72 0 1.22.15 1.48.46s.39.8.39 1.48v1.9c0 .68-.13 1.17-.39 1.48s-.75.46-1.48.46h-14.04c-.75-.01-1.27-.17-1.58-.48M263.99 471.42c-1.77-.43-3.2-1.03-4.28-1.8-.45-.32-.68-.62-.68-.92 0-.2.08-.42.24-.65l1.97-3.09c.2-.29.41-.44.61-.44.18 0 .4.08.65.24.82.5 1.75.89 2.8 1.17s2.08.42 3.08.42c.84 0 1.44-.11 1.82-.34.37-.23.56-.58.56-1.05q0-.78-.75-1.26c-.75-.48-1.36-.71-2.58-1.19-2.29-.88-4.09-1.89-5.41-3.01s-1.97-2.61-1.97-4.47c0-2.36.82-4.13 2.46-5.32s3.86-1.79 6.65-1.79q2.925 0 4.98.51c2.055.51 2.57.87 3.59 1.6.45.32.68.62.68.92 0 .2-.08.42-.24.65l-1.97 3.09c-.2.32-.41.48-.61.48-.14 0-.35-.09-.65-.27-.54-.36-1.19-.66-1.94-.9s-1.55-.36-2.41-.36c-.79 0-1.39.11-1.8.34s-.61.59-.61 1.09c0 .41.14.75.43 1.02.28.27.64.5 1.07.7.43.19 1.18.5 2.24.94 1.7.68 3.04 1.33 4.01 1.96s1.71 1.37 2.21 2.24.75 1.98.75 3.31c0 2.04-.76 3.69-2.29 4.95s-3.81 1.89-6.85 1.89c-2.08-.02-4-.23-5.76-.66M281.04 471.08c-.31-.32-.46-.8-.46-1.46v-19.24c0-.66.15-1.14.46-1.46s.83-.48 1.58-.48h4.05c.77 0 1.31.15 1.62.46.3.31.46.8.46 1.48v19.24c0 .66-.15 1.15-.46 1.46q-.465.48-1.62.48h-4.05c-.75-.01-1.28-.17-1.58-.48M291.58 471.08c-.31-.32-.46-.8-.46-1.46v-19.24c0-.66.15-1.14.46-1.46s.83-.48 1.58-.48h7.82c8 0 12 3.85 12 11.56 0 3.81-1.03 6.69-3.08 8.64s-5.03 2.92-8.92 2.92h-7.82c-.75-.01-1.28-.17-1.58-.48m9.7-5.31c1.27 0 2.18-.42 2.74-1.26s.83-2.35.83-4.52c0-2.18-.28-3.68-.83-4.52-.56-.84-1.47-1.26-2.74-1.26h-2.01v11.56zM312.47 470.84c0-.2.06-.45.17-.75l8.47-20.37c.2-.48.44-.81.7-1s.63-.29 1.11-.29h3.71c.48 0 .84.1 1.11.29.26.19.49.53.7 1l8.43 20.37c.11.29.17.54.17.75 0 .48-.25.71-.75.71h-6.39c-.7 0-1.14-.31-1.33-.92l-.82-2.52h-6.02l-.78 2.52c-.18.61-.62.92-1.33.92h-6.39c-.51 0-.76-.24-.76-.71m13.6-8.09-1.33-4.22-1.33 4.22zM339.18 471.08c-.31-.32-.46-.8-.46-1.46v-19.24c0-.66.15-1.14.46-1.46s.83-.48 1.58-.48h7.82c8 0 12 3.85 12 11.56 0 3.81-1.03 6.69-3.08 8.64s-5.03 2.92-8.92 2.92h-7.82c-.75-.01-1.28-.17-1.58-.48m9.7-5.31c1.27 0 2.18-.42 2.74-1.26s.83-2.35.83-4.52c0-2.18-.28-3.68-.83-4.52-.56-.84-1.47-1.26-2.74-1.26h-2.01v11.56zM103.9 511.88c-.31-.32-.46-.8-.46-1.46v-19.24c0-.66.15-1.14.46-1.46s.83-.48 1.58-.48h7.82c8 0 12 3.85 12 11.56 0 3.81-1.03 6.69-3.08 8.64s-5.03 2.92-8.92 2.92h-7.82c-.75-.01-1.27-.17-1.58-.48m9.71-5.31c1.27 0 2.18-.42 2.74-1.26s.83-2.35.83-4.52c0-2.18-.28-3.68-.83-4.52-.56-.84-1.47-1.26-2.74-1.26h-2.01v11.56zM127.46 511.88c-.31-.32-.46-.8-.46-1.46v-19.24c0-.66.15-1.14.46-1.46s.83-.48 1.58-.48h14.08c.73 0 1.22.15 1.48.46s.39.8.39 1.48v1.9c0 .68-.13 1.17-.39 1.48s-.75.46-1.48.46h-7.96v2.92h4.9c.73 0 1.22.15 1.48.46s.39.8.39 1.48v1.84c0 .68-.13 1.17-.39 1.48s-.75.46-1.48.46h-4.9v2.92h7.92c.72 0 1.22.15 1.48.46s.39.8.39 1.48v1.9c0 .68-.13 1.17-.39 1.48s-.75.46-1.48.46h-14.04c-.75-.01-1.27-.17-1.58-.48M146.98 511.88c-.31-.32-.46-.8-.46-1.46v-19.24c0-.66.15-1.14.46-1.46s.83-.48 1.58-.48h4.05c.77 0 1.31.15 1.62.46s.46.8.46 1.48v15.4h7.92c.72 0 1.22.15 1.48.46s.39.8.39 1.48v1.9c0 .68-.13 1.17-.39 1.48s-.75.46-1.48.46h-14.04q-1.14-.015-1.59-.48M178.44 509.82c-2.29-2.03-3.43-5.04-3.43-9.03 0-4.01 1.11-7.03 3.32-9.04s5.37-3.03 9.47-3.03c1.86 0 3.51.18 4.96.54s2.66.87 3.64 1.53c.27.2.41.43.41.68 0 .2-.1.49-.31.85l-1.7 2.92c-.18.32-.4.48-.65.48q-.24 0-.78-.27c-.63-.32-1.3-.57-1.99-.75q-1.035-.27-2.43-.27c-1.88 0-3.32.54-4.32 1.63s-1.5 2.66-1.5 4.73c0 2.04.54 3.61 1.63 4.71s2.57 1.65 4.45 1.65c1.63 0 3.13-.34 4.49-1.02q.54-.27.78-.27c.25 0 .46.16.65.48l1.7 2.92c.2.36.31.65.31.85 0 .25-.14.48-.41.68-.97.66-2.2 1.17-3.67 1.53s-3.14.54-5 .54c-4.12 0-7.33-1.01-9.62-3.04M199.3 511.88c-.31-.32-.46-.8-.46-1.46v-19.24c0-.66.15-1.14.46-1.46s.83-.48 1.58-.48h4.05c.77 0 1.31.15 1.62.46s.46.8.46 1.48v15.4h7.92c.73 0 1.22.15 1.48.46s.39.8.39 1.48v1.9c0 .68-.13 1.17-.39 1.48s-.75.46-1.48.46h-14.04c-.76-.01-1.28-.17-1.59-.48M218.27 511.88c-.31-.32-.46-.8-.46-1.46v-19.24c0-.66.15-1.14.46-1.46s.83-.48 1.58-.48h4.04c.77 0 1.31.15 1.62.46s.46.8.46 1.48v19.24c0 .66-.15 1.15-.46 1.46-.31.32-.84.48-1.62.48h-4.04c-.74-.01-1.27-.17-1.58-.48M228.81 511.88c-.31-.32-.46-.8-.46-1.46v-19.24c0-.66.15-1.14.46-1.46s.83-.48 1.58-.48h14.08c.73 0 1.22.15 1.48.46s.39.8.39 1.48v1.9c0 .68-.13 1.17-.39 1.48s-.75.46-1.48.46h-7.96v2.92h4.9c.73 0 1.22.15 1.48.46s.39.8.39 1.48v1.84c0 .68-.13 1.17-.39 1.48s-.75.46-1.48.46h-4.9v2.92h7.92c.72 0 1.22.15 1.48.46s.39.8.39 1.48v1.9c0 .68-.13 1.17-.39 1.48s-.75.46-1.48.46h-14.04c-.74-.01-1.27-.17-1.58-.48M248.33 511.88c-.31-.32-.46-.8-.46-1.46v-19.28c0-.66.15-1.14.46-1.45s.84-.46 1.62-.46h3.23c.48 0 .84.06 1.1.19.26.12.52.37.77.73l6.15 9.15v-8.13c0-.66.15-1.14.46-1.46s.83-.48 1.58-.48h4.05c.77 0 1.31.15 1.62.46.3.31.46.8.46 1.48v19.28c0 .66-.15 1.14-.46 1.45s-.85.46-1.62.46h-3.23c-.48 0-.84-.06-1.11-.19-.26-.13-.52-.37-.76-.73l-6.15-9.15v8.16c0 .66-.15 1.14-.46 1.45s-.85.46-1.62.46h-4.05c-.75-.01-1.27-.17-1.58-.48M277.6 511.88c-.31-.32-.46-.8-.46-1.46v-15.4h-4.9c-.73 0-1.22-.15-1.48-.46s-.39-.8-.39-1.48v-1.9c0-.68.13-1.17.39-1.48s.75-.46 1.48-.46h17.95c.73 0 1.22.15 1.48.46s.39.8.39 1.48v1.9c0 .68-.13 1.17-.39 1.48s-.75.46-1.48.46h-4.9v15.4c0 .66-.15 1.15-.46 1.46q-.465.48-1.62.48h-4.05c-.72-.01-1.25-.17-1.56-.48M293.55 511.88c-.31-.32-.46-.8-.46-1.46v-19.24c0-.66.15-1.14.46-1.46s.83-.48 1.58-.48h14.08c.73 0 1.22.15 1.48.46s.39.8.39 1.48v1.9c0 .68-.13 1.17-.39 1.48s-.75.46-1.48.46h-7.96v2.92h4.9c.72 0 1.22.15 1.48.46s.39.8.39 1.48v1.84c0 .68-.13 1.17-.39 1.48s-.75.46-1.48.46h-4.9v2.92h7.92c.72 0 1.22.15 1.48.46s.39.8.39 1.48v1.9c0 .68-.13 1.17-.39 1.48s-.75.46-1.48.46h-14.04c-.75-.01-1.27-.17-1.58-.48"/><path d="m200.76 96.93 13.47 27.29 30.11 4.37-21.79 21.24 5.15 30-26.94-14.16-26.93 14.16 5.14-30-21.79-21.24 30.11-4.37zM138.58 180.15l8.74 17.71 19.54 2.84-14.14 13.78 3.34 19.46-17.48-9.19-17.47 9.19 3.34-19.46-14.14-13.78 19.54-2.84zM268.68 180.15l8.74 17.71 19.53 2.84-14.13 13.78 3.33 19.46-17.47-9.19-17.48 9.19 3.34-19.46-14.14-13.78 19.54-2.84z" class="st1"/><circle cx="201.77" cy="213.97" r="121.96" style="fill:#cecece"/><circle cx="200.82" cy="200.58" r="121.96" class="st3"/><path d="M179.35 642.61c0-.49.15-1.02.44-1.61l16.86-34.09h-18.1q-2.34 0-3.18-.99c-.56-.66-.84-1.71-.84-3.17v-4.09q0-2.19.84-3.18t3.18-.99h33.87c2.09 0 3.5.3 4.23.91s1.1 1.74 1.1 3.39c0 1.85-.32 3.36-.95 4.53l-19.2 38.84c-.34.68-.72 1.18-1.13 1.5s-.99.47-1.72.47h-13.72c-1.12.01-1.68-.5-1.68-1.52" class="st3"/><circle id="XMLID_215_" cx="201.73" cy="193.96" r="82.04" style="fill:#f2f2f2"/><path id="XMLID_214_" d="M201.68 211.54c6.53 0 12.37-4.25 14.39-4.68-.17-1.44-.2-2.74-.19-3.81-4.97 4.19-7.16 5.62-13.75 5.39-6.85.24-8.95-1.32-14.35-5.9.02 1.16.02 2.67-.19 4.37 2.17.64 7.77 4.62 14.09 4.63" style="fill:#eaccb0"/><path id="XMLID_213_" d="M255.64 229.74c-1.29-1.35-11.06-3.18-17.37-5.87-7.02-2.99-14.24-5.4-17.85-8.32-.05.07-.1.14-.17.2-7.42 7.26-18.56 6.71-18.56 6.71v-.01s-11.05.56-18.47-6.7c-.07-.07-.12-.14-.17-.2-3.62 2.93-10.83 5.33-17.85 8.32-6.63 2.82-17.08 4.71-17.5 6.07 7.64-3.08 11.62 18.5 13.1 35.1C172.83 272 186.81 276 201.73 276c15.1 0 29.23-4.09 41.38-11.21 1.45-16.17 5.27-36.93 12.53-35.05" style="fill:#272728"/><path id="XMLID_212_" d="M202.13 208.44c6.59.23 8.78-1.21 13.75-5.39.39-.33.78-.66 1.21-1.02 6.16-5.23 3.06-16.15 6.8-15.46s8.02-9.67 5.08-11.94c-.06-.05-.12-.08-.18-.12-1.47-.51-2.63.77-3.71 2.59s-.66 4.62-1.74 4.56c-1.45-4.92-1.13-9.3-.84-14.41-10.08 2.96-20.46 4.49-28.86-1.67-1.72-1.26-3.39-2.92-5.99-2.88-3.01.05-4.22 1.84-3.8 4.73.21 1.45.32 3.41.4 4.27.29 3.01-1.58 6.71-2.27 7.42-.45.46-1.54 2.38-2.2 2.54-.54.13-.17-3.01-1.97-5.72-1.02-1.53-1.63-1.72-1.91-1.71-.19.11-.39.24-.6.4-2.94 2.27 1.34 12.62 5.08 11.94s.64 10.23 6.8 15.46c.21.18.4.34.6.51 5.4 4.58 7.5 6.14 14.35 5.9" style="fill:#f2d4b6"/><path id="XMLID_211_" d="M147.69 229.94c-.11.05-.23.07-.34.13-1.69.84-4.94 6.52-7.48 17.73a82.4 82.4 0 0 0 20.92 17.23c-1.49-16.59-5.47-38.17-13.1-35.09" class="st50"/><path id="XMLID_210_" d="M256.52 230.07c-.3-.15-.59-.25-.88-.33-7.25-1.88-11.08 18.88-12.54 35.05a82.4 82.4 0 0 0 20.81-17.36c-2.52-10.96-5.72-16.53-7.39-17.36" class="st50"/><path id="XMLID_209_" d="M201.68 222.46v.01s11.13.55 18.56-6.71c.07-.07.12-.14.17-.2.91-1.26-1.47-2.59-1.77-4.02-.32-1.52-.54-5.01-2.46-4.7-.03.01-.07.02-.11.03-2.02.43-7.85 4.68-14.39 4.68v-.01c-6.33 0-11.92-3.97-14.1-4.62-.11-.03-.22-.06-.31-.08-1.92-.31-2.14 3.18-2.46 4.7-.3 1.44-2.68 2.76-1.77 4.02.05.07.1.14.17.2 7.43 7.25 18.47 6.7 18.47 6.7" class="st50"/><path id="XMLID_208_" d="M177.8 175.93c1.79 2.71 1.43 5.85 1.97 5.72.65-.16 1.75-2.08 2.2-2.54.69-.71 2.56-4.41 2.27-7.42-.08-.86-.19-2.82-.4-4.27-.42-2.89.79-4.68 3.8-4.73 2.61-.04 4.27 1.62 5.99 2.88 8.4 6.17 18.78 4.63 28.86 1.67-.28 5.11-.61 9.49.84 14.41 1.07.07.65-2.74 1.74-4.56 1.08-1.82 2.24-3.1 3.71-2.59 2.99-6.37 3.31-16.72.35-23.1s-7.69-9.37-12.37-14.69c.43 1.44-1.52 3.6-3.36 3.77-1.53.14-4.09-.69-5.62-.87-7.75-.94-12.18-1.29-18.52.94-3.27 1.15-6.36 2.76-8.81 5.15-3.17 3.08-5.8 8.67-6.32 12.99-.27 2.24-.55 4.52-.22 7.78.14 1.39.99 6.54 1.82 7.79 0 0 .06-.03.17-.04.27-.01.89.18 1.9 1.71" style="fill:#170623"/><circle cx="271" cy="148" r="34" style="fill:#158231"/><path d="M264.55 164.09c-.86-.73-1.29-2.12-1.29-4.16v-4.59h-6.78c-2.04 0-3.42-.43-4.16-1.29-.73-.86-1.1-2.25-1.1-4.16v-5.35c0-1.91.37-3.3 1.1-4.16s2.12-1.29 4.16-1.29h6.78v-4.68c0-2.04.43-3.42 1.29-4.16.86-.73 2.25-1.1 4.16-1.1h6.69c1.91 0 3.3.37 4.16 1.1s1.29 2.12 1.29 4.16v4.68h6.88c2.04 0 3.42.43 4.16 1.29.73.86 1.1 2.25 1.1 4.16v5.35c0 1.91-.37 3.3-1.1 4.16s-2.12 1.29-4.16 1.29h-6.88v4.59c0 2.04-.43 3.42-1.29 4.16-.86.73-2.25 1.1-4.16 1.1h-6.69c-1.91 0-3.3-.36-4.16-1.1" class="st3"/></svg>