<svg xmlns="http://www.w3.org/2000/svg" xml:space="preserve" viewBox="0 0 1000 1000"><style>.st0{fill:#1f3642}.st1{fill:#a9bdda}.st2{opacity:.46;fill:#a6b4bc}.st3{fill:#638fbd}.st4{fill:#c6d9e5}.st5{fill:#192a33}.st7{fill:#688092}.st8{fill:#74c475}</style><g id="Capa_1"><path d="M474.15 588.54h45.02v81.91h-45.02z" class="st0"/><path d="M439.35 860.49c-7.88-.93-13.52-8.07-12.6-15.95l20.64-175.76c.92-7.88 8.05-13.53 15.95-12.6 7.88.93 13.52 8.07 12.6 15.95L455.3 847.89c-.93 7.92-8.1 13.53-15.95 12.6M560.06 855.66l-26.73-183.12c-1.15-7.86 4.29-15.15 12.15-16.3 7.85-1.15 15.15 4.29 16.3 12.15l26.73 183.12c1.15 7.85-4.29 15.15-12.15 16.3-7.9 1.14-15.16-4.34-16.3-12.15" class="st0"/><path d="m463.3 781.25 2.44 159.99-88.05-3.38L416.39 781c2.03-8.23 6.28-15.9 11.63-18.58 5.78-2.9 14.13-2.35 20.2-.6 6.79 1.96 15.08 12.11 15.08 19.43" class="st1"/><path d="M463.3 781.25c0-1.72-.46-3.59-1.24-5.47-6.93 61.46-26.91 154.64-84.37 162.08l88.05 3.38z" class="st2"/><path d="m421.82 939.55 4.65-54.3 38.47 4.06-.04-2.55-38.22-4.03 10.48-122.33c-.85.02-1.7.08-2.54.18l-7.74 90.36h-27.75l-.27 1.1c-.12.48-.24.96-.35 1.44h28.16l-7.36 85.99z" class="st3"/><path d="M429.7 879.25c0 .61.49 1.11 1.1 1.11s1.1-.5 1.1-1.11-.49-1.11-1.1-1.11c-.61.01-1.1.5-1.1 1.11M423.72 847.24c0 .73.59 1.32 1.31 1.32s1.31-.59 1.31-1.32-.59-1.32-1.31-1.32-1.31.59-1.31 1.32" class="st3"/><path d="M472.03 962.8s-106.49 1.27-114.46-2.54c-7.97-3.8 20.93-28.41 36.06-32.97 28.09-8.45 68.76 2.11 75.47 17.75 6.7 15.65 2.93 17.76 2.93 17.76" class="st4"/><path d="M462.02 954.34s3.77-2.11-2.93-17.75c-.37-.86-.84-1.71-1.41-2.53 5.58 3.15 9.66 6.89 11.41 10.99 6.71 15.64 2.93 17.75 2.93 17.75s-106.49 1.27-114.46-2.54c-2.18-1.04-1.6-3.65.72-6.98 28.9 1.96 103.74 1.06 103.74 1.06" class="st0"/><path d="m545.74 775.31-2.46 160.15 88.85-3.38-39.05-157.01c-2.05-8.24-6.34-15.92-11.73-18.6-5.83-2.9-14.26-2.35-20.38-.6-6.85 1.95-15.23 12.11-15.23 19.44" class="st1"/><path d="M545.74 775.31c0-1.72.46-3.59 1.25-5.47 7 61.53 27.16 154.8 85.14 162.24l-88.85 3.38z" class="st2"/><path d="M582.71 847.6h28.41c-.19-.78-.38-1.55-.58-2.32l-.05-.22h-28l-7.81-90.45c-.84-.1-1.7-.16-2.56-.18l10.57 122.46-38.57 4.04v.41l-.03 2.15 38.83-4.07 4.69 54.36.87-.03 1.67-.06z" class="st3"/><path d="M579.66 873.41c0 .61-.5 1.11-1.11 1.11s-1.11-.5-1.11-1.11.5-1.11 1.11-1.11 1.11.5 1.11 1.11M585.69 841.36c0 .73-.59 1.32-1.32 1.32s-1.32-.59-1.32-1.32.59-1.32 1.32-1.32 1.32.59 1.32 1.32" class="st3"/><path d="M536.94 957.04s107.47 1.27 115.5-2.54c8.04-3.81-21.12-28.44-36.39-33-28.35-8.46-69.39 2.12-76.16 17.77-6.76 15.65-2.95 17.77-2.95 17.77" class="st4"/><path d="M547.04 948.57s-3.81-2.12 2.96-17.77c.37-.86.85-1.71 1.42-2.54-5.63 3.15-9.75 6.9-11.52 11-6.77 15.65-2.96 17.77-2.96 17.77s107.47 1.27 115.5-2.54c2.2-1.04 1.61-3.65-.72-6.99-29.16 1.96-104.68 1.07-104.68 1.07" class="st0"/><path d="M433.66 648.48c-34.12 0 22.4 87.24 69.4 87.24 39.05 0 99.7-86.65 65.57-86.65z" class="st1"/><path d="m568.64 649.07-15.31-.07c-13.09 25.31-45.59 58.59-69.79 58.59-19.12 0-39.81-14.43-55.33-31.55 12.34 25.56 45.46 59.68 74.86 59.68 39.05 0 99.7-86.65 65.57-86.65" class="st2"/><path d="M573.96 673.11H428.47c-6.62 0-11.99-5.37-11.99-11.99v-7.56c0-6.62 5.37-11.99 11.99-11.99h145.49c6.62 0 11.99 5.37 11.99 11.99v7.56c0 6.63-5.37 11.99-11.99 11.99" class="st0"/><path d="M431.25 620.36h125.27c22.2-23.53 47.9-53.01 51.96-82.52 2-15.18 3.77-36.04-1.36-48.68-10.42-25.67-44.7-40.6-58.01-42.18a587 587 0 0 0-104.73-3.02c-4.25.26-8.07 2.18-12.02 3.81-20.72 8.53-42.56 26.14-49.98 43.59-5.74 13.49-1.63 36.01.35 51.06 4.07 29.5 26.32 54.41 48.52 77.94" class="st1"/><ellipse cx="495.5" cy="458.36" class="st5" rx="44.8" ry="15.47"/><path d="M495.5 442.89c-1.15 0-2.3.02-3.43.04 23.14.6 41.37 7.28 41.37 15.43s-18.23 14.82-41.37 15.43c1.13.03 2.27.05 3.43.05 24.74 0 44.8-6.93 44.8-15.47 0-8.55-20.06-15.48-44.8-15.48" style="fill:#a6b4bc"/><path d="M519.19 620.36c5.49-58.36 15.26-119.45 52.85-165.37-3.46-1.78-6.85-3.27-10.01-4.48-15.21 19.21-25.93 40.83-33.67 63.71-21.95-1.92-43.86-.1-65.75 2.02-6.51-24.21-15.8-47.37-30.94-68.18-3.21 1.35-6.43 2.91-9.63 4.66 36.15 47.71 38.59 110.6 49.21 167.63h10.76c-5.96-30.89-9.53-63-16.79-93.75 19.93-1.91 39.87-3.45 59.86-2.03-9.15 30.87-13.46 63.68-16.49 95.78h10.6z" class="st3"/><path d="M607.12 489.16c-5.84-14.4-19.19-25.42-32.14-32.6 5.68 13.25 3.59 35.04 1.69 49.46-5.7 41.45-47.74 82.52-102.52 82.52h-70.44c8.18 11.04 17.87 21.56 27.54 31.81h125.27c22.2-23.53 47.9-53.01 51.96-82.52 2-15.17 3.77-36.03-1.36-48.67" class="st2"/><path d="M519.08 406.82c-1.05 51.08 2.46 55.73-3.48 65.37-6.05 1.06-12.87 1.65-20.09 1.65-7.23 0-14.06-.58-20.11-1.65-2.21-3.59-3.48-7.8-3.48-12.32v-53.05z" class="st0"/><path d="m519.08 445.2.01 1.8c29.04 9.29 11.2 25.78-27.01 26.78 1.13.03 2.27.05 3.43.05 44.46.01 62.15-20.36 23.57-28.63" class="st7"/><path d="M602.26 485.5c-8.43-1.41-18.58 17.22-22.67 41.62-4.1 24.4-.58 45.33 7.84 46.74 8.43 1.41 18.58-17.22 22.67-41.62 4.1-24.4.59-45.32-7.84-46.74" class="st5"/><path d="M610.11 532.24c-.19 1.14-.39 2.26-.61 3.37 3.23-22.92-.33-42.01-8.37-43.35-8.03-1.35-17.64 15.53-22.06 38.25.16-1.12.33-2.25.52-3.39 4.1-24.4 14.25-43.03 22.67-41.62 8.43 1.42 11.94 22.34 7.85 46.74" class="st7"/><path d="M389.01 490.03c8.43-1.42 18.58 17.22 22.67 41.62 4.1 24.4.58 45.33-7.84 46.74-8.43 1.42-18.58-17.22-22.67-41.62-4.1-24.4-.59-45.33 7.84-46.74" class="st5"/><path d="M381.17 536.77c.19 1.14.39 2.26.61 3.37-3.23-22.92.33-42.01 8.37-43.35 8.04-1.35 17.64 15.53 22.06 38.25-.16-1.12-.33-2.25-.52-3.39-4.1-24.4-14.25-43.03-22.67-41.62-8.44 1.41-11.95 22.34-7.85 46.74" class="st7"/></g><g id="Capa_2"><ellipse cx="496.91" cy="253.3" class="st0" rx="245.79" ry="110.39"/><path d="M279.81 305.11c4.36 3.68 9.17 7.23 14.4 10.65-12.73-36.63-18.25-77.3-16.92-112.07-4.02 3.58-7.61 7.27-10.76 11.05.11 28.67 4.46 60.33 13.28 90.37M727.21 214.65c-3.16-3.8-6.77-7.49-10.81-11.08 2.06 35.1-4.97 76.47-19.01 113.6 5.44-3.44 10.46-7.03 15.01-10.74 9.84-30.61 14.96-62.81 14.81-91.78M563.71 409.66a587.5 587.5 0 0 0-137.61-2.83c-105.57 10.26-143.13-147.86-128.08-227.44 7.68-40.58 52.9-69.66 91.09-78.69 69.2-16.37 143.14-17.4 212.7-2.8 37.33 7.95 74.24 33.27 88.78 69.66 30.35 76.03-23.76 256.41-126.88 242.1" class="st1"/><path d="M690.58 167.57c-7.18-17.99-19.84-33.27-35.31-45.09 5.2 6.92 9.53 14.45 12.75 22.54 30.36 76.03-23.75 256.41-126.87 242.1a587.6 587.6 0 0 0-137.62-2.83c-25.04 2.43-46.26-4.61-63.86-17.83 20.94 27 49.52 43.97 86.41 40.38 45.9-4.46 92.09-3.49 137.61 2.83 103.14 14.3 157.25-166.08 126.89-242.1" class="st2"/><path d="M597.76 335.5c-17.59 6.83-36.42 11.02-53.77 13.4-55.22 7.56-121.54 3.61-169.93-26.38-21.73-13.47-38.62-33.58-42.7-59.38l-.99-6.23c-7.81-49.3 28.21-94.56 77.98-98.42 60.02-4.66 120.31-4.66 180.33 0 49.77 3.87 85.79 49.12 77.98 98.42l-.93 5.87c-5.91 37.43-34.72 59.8-67.97 72.72" class="st0"/><path d="M545.09 299.58c0 9.52-19.79 26.09-44.21 26.09s-44.21-16.57-44.21-26.09 19.79-8.39 44.21-8.39 44.21-1.13 44.21 8.39M437.22 239.39c0 7.85-6.36 14.22-14.22 14.22-7.85 0-14.22-6.37-14.22-14.22s6.36-14.22 14.22-14.22 14.22 6.37 14.22 14.22M584.88 234.84c0 7.85-6.36 14.22-14.22 14.22-7.85 0-14.22-6.37-14.22-14.22s6.36-14.22 14.22-14.22c7.85 0 14.22 6.37 14.22 14.22" class="st8"/><path d="m492.05 100.27 4.95.1.44-22.82 22.58-7.02-31.7-9.69 9.55-5.03.47-24.25-4.94-.1-.42 21.33-17.57 9.27 27.83 8.51-10.67 3.32z"/><path d="M485.37 20.59c-.11 5.92 4.59 10.8 10.5 10.92s10.8-4.59 10.92-10.5-4.59-10.8-10.5-10.92c-5.92-.12-10.81 4.58-10.92 10.5"/><path d="M469.77 107.07c-.14 7.08 11.9 13.06 26.88 13.35 14.99.29 27.25-5.21 27.39-12.29s-11.9-13.06-26.88-13.35c-14.99-.29-27.25 5.21-27.39 12.29" style="fill:#221f21"/></g><g id="Capa_3"><path d="M668.8 574.22c-43.47 0-68.71-35.7-69.91-37.43-4.51-6.53-2.88-15.48 3.65-20 6.51-4.5 15.43-2.89 19.96 3.6 1.02 1.44 23.24 32 59.13 23.53 12.89-3.04 27.24-23.06 39.36-54.91 2.82-7.42 11.11-11.15 18.54-8.32 7.42 2.82 11.15 11.13 8.32 18.54-16.25 42.72-36.31 67.17-59.63 72.67-6.82 1.61-13.3 2.32-19.42 2.32" class="st0"/><path d="M761.47 454.17s-13.21 88.53-31.08 105.26-58.36-14.11-55.64-26.04c2.23-9.79 64.67-91.75 64.67-91.75z" class="st1"/><path d="m725.17 497.63 23.85-50.52-3.08-1.75-52.4 111.01c1 .62 2.03 1.22 3.06 1.8l27.05-57.31c9.74 5.92 19.37 7.39 26.54 7.39h.61c.29-1.2.59-2.41.87-3.61-6.88.17-16.72-.98-26.5-7.01" class="st3"/><path d="M719.71 401.11c-2.86.34-4.08 3.89-2.22 6.09 2.86 3.37 7.1 8.91 8.93 13.95 2.87 7.93 5.62 25.52 14.11 29.5 8.49 3.97 18.01 6.08 26.1-.48s11.45-21.46 15.61-22.96c4.16-1.51 18.39-18.52 14.73-22.43-2.52-2.7-17.68 16.66-21.02 15.1-3.35-1.57 12.51-25.04 11-29.2-1.51-4.15-5.46-4.75-7.69.01s-11.38 21.96-13.31 21.06 7.05-27.13 7.02-30.74c-.03-3.62-5.28-5.14-6.6-2.31s-9.13 27.88-11.2 28.63c-2.08.75-.84-26.48-.7-29.66.13-3.12-5.42-5.51-8.08-2.84s.71 34.99-2.65 37.49c-3.37 2.5-6.56 4.3-8.96.04-1.89-3.36-8.62-12-15.07-11.25" class="st0"/></g><g id="Capa_4"><path d="M330.6 688.97c-13.01-80.66 25.51-157.68 47.64-181.14 5.44-5.78 14.54-6.05 20.32-.61 5.76 5.43 6.05 14.49.65 20.27-.43.48-25.71 28.55-38.6 87.32-4.91 22.41-5.46 45.82-1.63 69.58 1.26 7.84-4.06 15.22-11.9 16.48s-15.21-4.07-16.48-11.9" class="st0"/><path d="M332.61 708.73s-29.5-84.52-21.47-107.64 58.23-14.66 61.37-2.84c2.58 9.71-14.55 111.3-14.55 111.3z" class="st1"/><path d="m344.51 653.38 2.4 55.82 3.55.11-5.26-122.64a70 70 0 0 0-3.55-.17l2.72 63.32c-11.37-.71-20.58 2.47-26.93 5.81-.18.09-.36.19-.54.29.3 1.2.6 2.4.91 3.6 5.99-3.37 15.24-6.93 26.7-6.14" class="st3"/><path d="M328.07 711.25s6.38-13 24.04-9.01 12.29 21.68 17.35 29.7 10.44 19.2 6.83 21.48-16.98-10.03-19.77-14.44c-2.78-4.41-11.2 19.13-12.75 25.99-1.55 6.87 9.97 27.35 5.56 30.13s-22.84-25.96-25.24-29.77c-2.4-3.79 2.5-47.54 3.98-54.08" class="st0"/></g></svg>