<?xml version="1.0" encoding="utf-8"?>
<!-- Generator: Adobe Illustrator 23.0.0, SVG Export Plug-In . SVG Version: 6.00 Build 0)  -->
<svg version="1.1" id="Capa_1" xmlns="http://www.w3.org/2000/svg" xmlns:xlink="http://www.w3.org/1999/xlink" x="0px" y="0px"
	 viewBox="0 0 400 400" style="enable-background:new 0 0 400 400;" xml:space="preserve">
<style type="text/css">
	.st0{fill:#00D13C;}
	.st1{fill:#FFFFFF;}
	.st2{fill:#1F3642;}
	.st3{fill:#A9BDDA;}
	.st4{opacity:0.46;fill:#A6B4BC;}
	.st5{fill:#74C475;}
</style>
<g>
	<circle class="st0" cx="207.5" cy="192.5" r="154.5"/>
</g>
<g>
	<path class="st1" d="M159.08,254.17c-0.27-0.28-0.41-0.71-0.41-1.29V235.9c0-0.58,0.14-1.01,0.41-1.29
		c0.27-0.28,0.73-0.42,1.4-0.42h9.09c2.44,0,4.23,0.52,5.39,1.56c1.15,1.04,1.72,2.52,1.72,4.44c0,0.9-0.19,1.7-0.58,2.38
		c-0.39,0.69-0.9,1.18-1.54,1.46c1.78,0.6,2.67,2,2.67,4.2c0,1.88-0.67,3.41-1.99,4.59c-1.33,1.18-3.29,1.77-5.87,1.77h-8.88
		C159.81,254.59,159.35,254.45,159.08,254.17z M168.12,241.9c0.92,0,1.38-0.44,1.38-1.32s-0.46-1.32-1.38-1.32h-2.28v2.64H168.12z
		 M168.63,249.52c0.42,0,0.76-0.13,1.02-0.4c0.26-0.27,0.39-0.63,0.39-1.1c0-0.48-0.13-0.85-0.38-1.11s-0.6-0.39-1.04-0.39h-2.79v3
		H168.63z"/>
	<path class="st1" d="M180.12,252.26c-1.84-1.85-2.76-4.47-2.76-7.88c0-3.4,0.92-6.02,2.76-7.88c1.84-1.85,4.54-2.77,8.1-2.77
		c3.56,0,6.26,0.92,8.1,2.77c1.84,1.85,2.76,4.48,2.76,7.88c0,3.4-0.92,6.03-2.76,7.88c-1.84,1.85-4.54,2.78-8.1,2.78
		C184.66,255.04,181.96,254.11,180.12,252.26z M191.04,248.6c0.58-0.93,0.87-2.33,0.87-4.21c0-1.9-0.29-3.31-0.87-4.23
		s-1.52-1.38-2.82-1.38c-1.3,0-2.24,0.46-2.82,1.38c-0.58,0.92-0.87,2.33-0.87,4.23c0,1.88,0.29,3.29,0.87,4.21
		c0.58,0.93,1.52,1.4,2.82,1.4C189.52,250,190.46,249.53,191.04,248.6z"/>
	<path class="st1" d="M204.41,254.17c-0.27-0.28-0.41-0.71-0.41-1.29v-13.59h-4.32c-0.64,0-1.08-0.14-1.31-0.41
		c-0.23-0.27-0.34-0.71-0.34-1.3v-1.68c0-0.6,0.12-1.04,0.34-1.31c0.23-0.27,0.67-0.41,1.31-0.41h15.84c0.64,0,1.08,0.13,1.31,0.41
		c0.23,0.27,0.35,0.71,0.35,1.31v1.68c0,0.6-0.12,1.04-0.35,1.3c-0.23,0.27-0.67,0.41-1.31,0.41h-4.32v13.59
		c0,0.58-0.14,1.01-0.4,1.29c-0.27,0.28-0.75,0.42-1.43,0.42h-3.57C205.14,254.59,204.68,254.45,204.41,254.17z"/>
	<path class="st1" d="M227.48,254.17c-0.27-0.28-0.41-0.71-0.41-1.29V235.9c0-0.58,0.14-1.01,0.41-1.29
		c0.27-0.28,0.73-0.42,1.4-0.42h6.9c7.06,0,10.59,3.4,10.59,10.2c0,3.36-0.9,5.9-2.71,7.62c-1.81,1.72-4.44,2.58-7.88,2.58h-6.9
		C228.21,254.59,227.75,254.45,227.48,254.17z M236.04,249.49c1.12,0,1.92-0.37,2.42-1.11c0.49-0.74,0.73-2.07,0.73-3.99
		s-0.25-3.25-0.73-3.99c-0.49-0.74-1.3-1.11-2.42-1.11h-1.77v10.2H236.04z"/>
	<path class="st1" d="M248.27,254.17c-0.27-0.28-0.41-0.71-0.41-1.29V235.9c0-0.58,0.14-1.01,0.41-1.29
		c0.27-0.28,0.73-0.42,1.4-0.42h12.42c0.64,0,1.07,0.13,1.31,0.41c0.23,0.27,0.34,0.71,0.34,1.31v1.68c0,0.6-0.12,1.04-0.34,1.3
		c-0.23,0.27-0.67,0.41-1.31,0.41h-7.02v2.58h4.32c0.64,0,1.08,0.14,1.31,0.41c0.23,0.27,0.35,0.71,0.35,1.3v1.62
		c0,0.6-0.12,1.03-0.35,1.3c-0.23,0.27-0.67,0.41-1.31,0.41h-4.32v2.58h6.99c0.64,0,1.07,0.13,1.3,0.4
		c0.23,0.27,0.35,0.71,0.35,1.31v1.68c0,0.6-0.12,1.04-0.35,1.3c-0.23,0.27-0.67,0.41-1.3,0.41h-12.39
		C249,254.59,248.54,254.45,248.27,254.17z"/>
</g>
<g>
	<path class="st1" d="M125.25,280.65c-0.27-0.28-0.41-0.71-0.41-1.29v-16.98c0-0.58,0.14-1.01,0.41-1.29s0.73-0.42,1.4-0.42h7.17
		c3,0,5.19,0.59,6.56,1.78c1.37,1.19,2.05,2.99,2.05,5.39s-0.69,4.19-2.05,5.37c-1.37,1.18-3.55,1.77-6.53,1.77h-1.8v4.38
		c0,0.58-0.13,1.01-0.4,1.29c-0.27,0.28-0.75,0.42-1.43,0.42h-3.57C125.99,281.07,125.52,280.93,125.25,280.65z M133.19,269.88
		c0.64,0,1.14-0.17,1.51-0.51s0.56-0.85,0.56-1.53c0-0.7-0.19-1.22-0.56-1.56s-0.88-0.51-1.51-0.51h-2.04v4.11H133.19z"/>
	<path class="st1" d="M143.73,280.65c-0.27-0.28-0.41-0.71-0.41-1.29v-16.98c0-0.58,0.14-1.01,0.41-1.29s0.73-0.42,1.4-0.42h7.17
		c3,0,5.19,0.59,6.56,1.78c1.37,1.19,2.05,2.99,2.05,5.39c0,1.44-0.25,2.66-0.73,3.65c-0.49,0.99-1.25,1.76-2.27,2.32l2.79,5.97
		c0.08,0.16,0.12,0.34,0.12,0.54c0,0.22-0.08,0.4-0.23,0.54c-0.15,0.14-0.34,0.21-0.58,0.21h-5.07c-0.32,0-0.58-0.04-0.77-0.13
		c-0.19-0.09-0.33-0.24-0.4-0.46l-2.22-5.58h-1.02v4.47c0,0.58-0.13,1.01-0.4,1.29c-0.27,0.28-0.75,0.42-1.43,0.42h-3.57
		C144.47,281.07,144,280.93,143.73,280.65z M151.67,269.88c0.64,0,1.14-0.17,1.51-0.51s0.56-0.85,0.56-1.53
		c0-0.7-0.19-1.22-0.56-1.56s-0.88-0.51-1.51-0.51h-2.04v4.11H151.67z"/>
	<path class="st1" d="M166.94,280.57c-1.48-0.63-2.63-1.54-3.45-2.73c-0.82-1.19-1.23-2.61-1.23-4.25v-11.22
		c0-0.58,0.14-1.01,0.41-1.29s0.73-0.42,1.4-0.42h3.57c0.68,0,1.15,0.13,1.42,0.41c0.27,0.27,0.41,0.71,0.41,1.3v11.31
		c0,0.94,0.23,1.64,0.71,2.1c0.47,0.46,1.11,0.69,1.94,0.69c0.82,0,1.46-0.23,1.93-0.69s0.71-1.16,0.71-2.1v-11.31
		c0-0.58,0.14-1.01,0.41-1.29s0.73-0.42,1.4-0.42h3.57c0.68,0,1.15,0.13,1.42,0.41c0.27,0.27,0.41,0.71,0.41,1.3v11.22
		c0,1.64-0.41,3.06-1.23,4.25c-0.82,1.19-1.97,2.1-3.45,2.73c-1.48,0.63-3.2,0.95-5.16,0.95
		C170.14,281.52,168.42,281.2,166.94,280.57z"/>
	<path class="st1" d="M184.29,280.65c-0.27-0.28-0.41-0.71-0.41-1.29v-16.98c0-0.58,0.14-1.01,0.41-1.29s0.73-0.42,1.4-0.42h12.42
		c0.64,0,1.07,0.13,1.31,0.41c0.23,0.27,0.34,0.71,0.34,1.3v1.68c0,0.6-0.12,1.04-0.34,1.3c-0.23,0.27-0.67,0.41-1.31,0.41h-7.02
		v2.58h4.32c0.64,0,1.08,0.14,1.31,0.41c0.23,0.27,0.35,0.71,0.35,1.3v1.62c0,0.6-0.12,1.04-0.35,1.31c-0.23,0.27-0.67,0.4-1.31,0.4
		h-4.32v2.58h6.99c0.64,0,1.07,0.13,1.3,0.41s0.35,0.7,0.35,1.3v1.68c0,0.6-0.12,1.04-0.35,1.3s-0.67,0.4-1.3,0.4h-12.39
		C185.03,281.07,184.56,280.93,184.29,280.65z"/>
	<path class="st1" d="M201.51,280.65c-0.27-0.28-0.41-0.71-0.41-1.29v-16.98c0-0.58,0.14-1.01,0.41-1.29s0.73-0.42,1.4-0.42H212
		c2.44,0,4.23,0.52,5.39,1.56c1.15,1.04,1.72,2.52,1.72,4.44c0,0.9-0.19,1.69-0.58,2.38c-0.39,0.69-0.9,1.17-1.54,1.46
		c1.78,0.6,2.67,2,2.67,4.2c0,1.88-0.67,3.41-1.99,4.59c-1.33,1.18-3.29,1.77-5.87,1.77h-8.88
		C202.25,281.07,201.78,280.93,201.51,280.65z M210.56,268.38c0.92,0,1.38-0.44,1.38-1.32c0-0.88-0.46-1.32-1.38-1.32h-2.28v2.64
		H210.56z M211.07,276c0.42,0,0.76-0.14,1.02-0.41s0.39-0.63,0.39-1.09c0-0.48-0.13-0.85-0.38-1.11s-0.6-0.39-1.04-0.39h-2.79v3
		H211.07z"/>
	<path class="st1" d="M218.6,280.44c0-0.18,0.05-0.4,0.15-0.66l7.47-17.97c0.18-0.42,0.39-0.71,0.62-0.88
		c0.23-0.17,0.56-0.25,0.98-0.25h3.27c0.42,0,0.74,0.08,0.97,0.25s0.44,0.46,0.62,0.88l7.44,17.97c0.1,0.26,0.15,0.48,0.15,0.66
		c0,0.42-0.22,0.63-0.66,0.63h-5.64c-0.62,0-1.01-0.27-1.17-0.81l-0.72-2.22h-5.31l-0.69,2.22c-0.16,0.54-0.55,0.81-1.17,0.81h-5.64
		C218.82,281.07,218.6,280.86,218.6,280.44z M230.6,273.3l-1.17-3.72l-1.17,3.72H230.6z"/>
	<path class="st1" d="M244.22,280.95c-1.56-0.38-2.82-0.91-3.78-1.59c-0.4-0.28-0.6-0.55-0.6-0.81c0-0.18,0.07-0.37,0.21-0.57
		l1.74-2.73c0.18-0.26,0.36-0.39,0.54-0.39c0.16,0,0.35,0.07,0.57,0.21c0.72,0.44,1.54,0.79,2.48,1.04
		c0.93,0.25,1.83,0.38,2.71,0.38c0.74,0,1.27-0.1,1.6-0.3s0.5-0.51,0.5-0.93c0-0.46-0.22-0.83-0.66-1.11
		c-0.44-0.28-1.2-0.63-2.28-1.05c-2.02-0.78-3.61-1.67-4.77-2.66c-1.16-0.99-1.74-2.3-1.74-3.95c0-2.08,0.72-3.64,2.18-4.69
		c1.45-1.05,3.4-1.58,5.86-1.58c1.72,0,3.18,0.15,4.4,0.45c1.21,0.3,2.27,0.77,3.17,1.41c0.4,0.28,0.6,0.55,0.6,0.81
		c0,0.18-0.07,0.37-0.21,0.57l-1.74,2.73c-0.18,0.28-0.36,0.42-0.54,0.42c-0.12,0-0.31-0.08-0.57-0.24
		c-0.48-0.32-1.05-0.59-1.71-0.79c-0.66-0.21-1.37-0.32-2.13-0.32c-0.7,0-1.23,0.1-1.59,0.3c-0.36,0.2-0.54,0.52-0.54,0.96
		c0,0.36,0.13,0.66,0.38,0.9c0.25,0.24,0.56,0.45,0.95,0.61c0.38,0.17,1.04,0.45,1.98,0.83c1.5,0.6,2.68,1.17,3.54,1.72
		c0.86,0.55,1.51,1.21,1.95,1.98c0.44,0.77,0.66,1.74,0.66,2.92c0,1.8-0.67,3.26-2.02,4.37c-1.35,1.11-3.37,1.67-6.04,1.67
		C247.47,281.52,245.78,281.33,244.22,280.95z"/>
	<path class="st1" d="M274.86,280.65c-0.27-0.28-0.41-0.71-0.41-1.29v-5.43l-6.99-11.97c-0.12-0.22-0.18-0.43-0.18-0.63
		c0-0.44,0.23-0.66,0.69-0.66h5.64c0.3,0,0.53,0.07,0.69,0.19c0.16,0.13,0.32,0.34,0.48,0.62l3.27,5.88l3.27-5.88
		c0.16-0.28,0.32-0.48,0.48-0.62c0.16-0.13,0.39-0.19,0.69-0.19h5.64c0.46,0,0.69,0.22,0.69,0.66c0,0.2-0.06,0.41-0.18,0.63
		l-6.99,11.97v5.43c0,0.58-0.14,1.01-0.41,1.29c-0.27,0.28-0.75,0.42-1.42,0.42h-3.57C275.6,281.07,275.13,280.93,274.86,280.65z"/>
</g>
<g>
	<path class="st1" d="M187.11,300.98c-1.14-0.28-2.07-0.67-2.77-1.17c-0.29-0.21-0.44-0.4-0.44-0.59c0-0.13,0.05-0.27,0.15-0.42
		l1.28-2c0.13-0.19,0.26-0.29,0.4-0.29c0.12,0,0.26,0.05,0.42,0.15c0.53,0.32,1.13,0.58,1.81,0.76c0.68,0.18,1.35,0.28,1.99,0.28
		c0.54,0,0.94-0.07,1.18-0.22c0.24-0.15,0.36-0.37,0.36-0.68c0-0.34-0.16-0.61-0.48-0.81c-0.32-0.21-0.88-0.46-1.67-0.77
		c-1.48-0.57-2.65-1.22-3.5-1.95c-0.85-0.73-1.28-1.69-1.28-2.89c0-1.53,0.53-2.67,1.59-3.44s2.5-1.15,4.3-1.15
		c1.26,0,2.34,0.11,3.22,0.33c0.89,0.22,1.66,0.56,2.32,1.03c0.29,0.21,0.44,0.4,0.44,0.59c0,0.13-0.05,0.27-0.15,0.42l-1.28,2
		c-0.13,0.21-0.26,0.31-0.4,0.31c-0.09,0-0.23-0.06-0.42-0.18c-0.35-0.23-0.77-0.43-1.25-0.58c-0.48-0.15-1-0.23-1.56-0.23
		c-0.51,0-0.9,0.07-1.17,0.22s-0.4,0.38-0.4,0.7c0,0.26,0.09,0.48,0.27,0.66c0.18,0.18,0.41,0.33,0.69,0.45s0.76,0.33,1.45,0.61
		c1.1,0.44,1.97,0.86,2.6,1.26c0.63,0.4,1.11,0.89,1.43,1.45s0.48,1.28,0.48,2.14c0,1.32-0.5,2.39-1.49,3.2
		c-0.99,0.81-2.47,1.22-4.43,1.22C189.49,301.4,188.25,301.26,187.11,300.98z"/>
	<path class="st1" d="M198.14,300.76c-0.2-0.21-0.3-0.52-0.3-0.95v-12.45c0-0.43,0.1-0.74,0.3-0.95c0.2-0.21,0.54-0.31,1.02-0.31
		h2.62c0.5,0,0.85,0.1,1.04,0.3c0.2,0.2,0.3,0.52,0.3,0.96v9.96h5.13c0.47,0,0.79,0.1,0.96,0.3s0.25,0.52,0.25,0.96v1.23
		c0,0.44-0.08,0.76-0.25,0.96c-0.17,0.2-0.49,0.3-0.96,0.3h-9.09C198.68,301.07,198.34,300.97,198.14,300.76z"/>
	<path class="st1" d="M209.35,300.61c0-0.13,0.04-0.29,0.11-0.48l5.48-13.18c0.13-0.31,0.28-0.53,0.45-0.65
		c0.17-0.12,0.41-0.19,0.71-0.19h2.4c0.31,0,0.55,0.06,0.71,0.19s0.32,0.34,0.45,0.65l5.46,13.18c0.07,0.19,0.11,0.35,0.11,0.48
		c0,0.31-0.16,0.46-0.48,0.46h-4.14c-0.46,0-0.74-0.2-0.86-0.59l-0.53-1.63h-3.89l-0.51,1.63c-0.12,0.4-0.4,0.59-0.86,0.59h-4.14
		C209.51,301.07,209.35,300.92,209.35,300.61z M218.15,295.37l-0.86-2.73l-0.86,2.73H218.15z"/>
	<path class="st1" d="M226.38,300.21c-0.32-0.18-0.48-0.35-0.48-0.53c0-0.1,0.04-0.23,0.13-0.37l1.08-1.94
		c0.1-0.18,0.23-0.26,0.37-0.26c0.12,0,0.26,0.04,0.44,0.13c0.4,0.21,0.91,0.4,1.54,0.58c0.63,0.18,1.18,0.27,1.65,0.27
		c0.31,0,0.52-0.03,0.64-0.08c0.12-0.05,0.18-0.13,0.18-0.25s-0.11-0.22-0.32-0.31c-0.21-0.09-0.57-0.2-1.07-0.33
		c-0.15-0.04-0.29-0.08-0.43-0.12c-0.14-0.04-0.27-0.08-0.41-0.12c-1.22-0.37-2.09-0.79-2.61-1.26s-0.78-1.14-0.78-1.99
		c0-1.11,0.48-1.97,1.45-2.56c0.97-0.59,2.28-0.89,3.94-0.89c1.03,0,1.9,0.08,2.63,0.25c0.73,0.17,1.44,0.44,2.15,0.8
		c0.31,0.18,0.46,0.36,0.46,0.55c0,0.12-0.06,0.27-0.18,0.46l-1.06,1.67c-0.12,0.18-0.23,0.26-0.33,0.26
		c-0.04,0-0.18-0.05-0.42-0.15c-0.34-0.16-0.73-0.3-1.17-0.41s-0.84-0.17-1.21-0.17c-0.79,0-1.19,0.13-1.19,0.4
		c0,0.12,0.13,0.22,0.38,0.31c0.26,0.09,0.69,0.21,1.31,0.35c0.81,0.19,1.36,0.34,1.67,0.44c0.66,0.23,1.17,0.48,1.52,0.73
		s0.6,0.54,0.74,0.87c0.14,0.33,0.21,0.76,0.21,1.29c0,0.65-0.2,1.24-0.6,1.78c-0.4,0.54-1.02,0.97-1.85,1.3
		c-0.83,0.32-1.85,0.48-3.07,0.48C229.59,301.4,227.82,301,226.38,300.21z"/>
</g>
<circle class="st1" cx="209" cy="146" r="78"/>
<g>
	<g>
		<path class="st2" d="M206.29,121.22v51.06c30.77,0,55.71-11.43,55.71-25.53C262,132.65,237.06,121.22,206.29,121.22z"/>
		<g>
			<path class="st3" d="M258.49,137.81c-0.72-0.88-1.53-1.73-2.45-2.56c0.47,8.12-1.13,17.69-4.31,26.27
				c1.23-0.8,2.37-1.62,3.4-2.48C257.36,151.95,258.52,144.51,258.49,137.81z"/>
		</g>
	</g>
	<path class="st3" d="M221.77,182.91c-10.91-1.46-21.97-1.69-32.97-0.65c-25.29,2.37-34.29-34.2-30.68-52.61
		c1.84-9.39,12.67-16.11,21.82-18.2c16.58-3.79,34.29-4.02,50.96-0.65c8.94,1.84,17.79,7.69,21.27,16.11
		C259.44,144.5,246.48,186.22,221.77,182.91z"/>
	<path class="st4" d="M180.48,128.6c1.84-9.39,12.67-16.11,21.82-18.2c3.32-0.76,6.69-1.38,10.09-1.85
		c-10.9-0.48-21.91,0.49-32.45,2.9c-9.15,2.09-19.98,8.81-21.82,18.2c-3.61,18.41,5.39,54.98,30.68,52.61
		C199.8,181.23,176.87,147.01,180.48,128.6z"/>
	<path class="st2" d="M238.25,164.71c-3.38,1.58-7,2.55-10.33,3.1c-10.61,1.75-23.36,0.83-32.66-6.1
		c-4.18-3.11-7.42-7.77-8.21-13.73c-0.06-0.48-0.13-0.96-0.19-1.44c-1.5-11.4,5.42-21.87,14.99-22.76c11.54-1.08,23.12-1.08,34.66,0
		c9.57,0.89,16.49,11.36,14.99,22.76c-0.06,0.45-0.12,0.91-0.18,1.36C250.18,156.54,244.64,161.72,238.25,164.71z"/>
	<path class="st5" d="M233.22,156.4c0,2.2-3.8,6.03-8.5,6.03c-4.69,0-8.5-3.83-8.5-6.03c0-2.2,3.8-1.94,8.5-1.94
		C229.42,154.46,233.22,154.2,233.22,156.4z"/>
	<path class="st5" d="M207.37,139.19c0,1.82-1.22,3.29-2.73,3.29c-1.51,0-2.73-1.47-2.73-3.29c0-1.82,1.22-3.29,2.73-3.29
		C206.15,135.9,207.37,137.37,207.37,139.19z"/>
	<path class="st5" d="M242.66,139.19c0,1.82-1.22,3.29-2.73,3.29c-1.51,0-2.73-1.47-2.73-3.29c0-1.82,1.22-3.29,2.73-3.29
		C241.44,135.9,242.66,137.37,242.66,139.19z"/>
	<path class="st2" d="M262,146.75c0,4.45-2.49,8.64-6.87,12.29c-0.52,0.43-1.05,0.85-1.63,1.26c-0.14,0.1-0.28,0.21-0.43,0.31
		c-0.44,0.31-0.89,0.61-1.35,0.91c3.18-8.59,4.78-18.15,4.31-26.27c0.21,0.19,0.43,0.39,0.63,0.59c0.04,0.04,0.08,0.08,0.12,0.12
		c0.13,0.13,0.26,0.26,0.39,0.39c0.12,0.12,0.23,0.24,0.34,0.36c0.06,0.06,0.12,0.12,0.17,0.19c0.14,0.15,0.28,0.31,0.41,0.47
		c0.13,0.14,0.25,0.29,0.37,0.44v0.01C260.76,140.59,262,143.6,262,146.75z"/>
	<g>
		<path class="st3" d="M258.49,137.81L258.49,137.81c0.03,6.7-1.13,14.15-3.36,21.23c-0.52,0.43-1.05,0.85-1.63,1.26
			c-0.14,0.1-0.28,0.21-0.43,0.31c-0.44,0.31-0.89,0.61-1.35,0.91c3.18-8.59,4.78-18.15,4.31-26.27c0.21,0.19,0.43,0.39,0.63,0.59
			c0.04,0.04,0.08,0.08,0.12,0.12c0.13,0.13,0.26,0.26,0.39,0.39c0.12,0.12,0.23,0.24,0.34,0.36c0.06,0.06,0.12,0.12,0.17,0.19
			c0.14,0.15,0.28,0.31,0.41,0.47C258.25,137.51,258.37,137.66,258.49,137.81z"/>
	</g>
	<path class="st2" d="M168.6,127.95L168.6,127.95c-0.6,0-18.01,11.75-18.01,18.8c0,7.04,17.41,18.79,18,18.79h0
		c3.37,0,6.09-8.41,6.09-18.79C174.69,136.37,171.97,127.96,168.6,127.95z"/>
	<path class="st3" d="M162.37,132.25c1.15,2.67,2.35,7.55,2.35,14.5c0,6.95-1.2,11.82-2.35,14.5c1.19,0.93,2.3,1.75,3.25,2.42
		c2.09-4.06,3.08-10.63,3.08-16.91c0-6.28-0.99-12.86-3.08-16.91C164.67,130.5,163.55,131.32,162.37,132.25z"/>
</g>
<g>
</g>
<g>
</g>
<g>
</g>
<g>
</g>
<g>
</g>
<g>
</g>
<g>
</g>
<g>
</g>
<g>
</g>
<g>
</g>
<g>
</g>
<g>
</g>
<g>
</g>
<g>
</g>
<g>
</g>
</svg>
