<?xml version="1.0" encoding="utf-8"?>
<!-- Generator: Adobe Illustrator 23.0.0, SVG Export Plug-In . SVG Version: 6.00 Build 0)  -->
<svg version="1.1" id="Capa_1" xmlns="http://www.w3.org/2000/svg" xmlns:xlink="http://www.w3.org/1999/xlink" x="0px" y="0px"
	 viewBox="0 0 400 400" style="enable-background:new 0 0 400 400;" xml:space="preserve">
<style type="text/css">
	.st0{fill:#00D13C;}
	.st1{fill:#FFFFFF;}
	.st2{fill:none;stroke:#0085B0;stroke-width:7;stroke-miterlimit:10;}
	.st3{fill:#F2F2F2;}
	.st4{fill:none;}
	.st5{fill:#866A5E;}
	.st6{fill:#F7DDCB;}
	.st7{fill:#FFE6D4;}
	.st8{fill:#2D2D2D;}
	.st9{fill:#1C1B1A;}
	.st10{fill:#F5F5F5;}
	.st11{fill:#77181C;}
	.st12{fill:#EAEAEA;}
	.st13{fill:#262525;}
	.st14{fill:#11100F;}
</style>
<g>
	<circle class="st0" cx="207.5" cy="192.5" r="154.5"/>
</g>
<g>
	<path class="st1" d="M118.86,262.17c-0.27-0.28-0.41-0.71-0.41-1.29v-17.01c0-0.58,0.14-1,0.41-1.27s0.74-0.41,1.42-0.41h3.45
		c0.44,0,0.79,0.06,1.05,0.17c0.26,0.11,0.46,0.32,0.6,0.64l3.51,8.79l3.51-8.79c0.14-0.32,0.34-0.54,0.6-0.64
		c0.26-0.11,0.61-0.17,1.05-0.17h3.45c0.68,0,1.15,0.13,1.42,0.41s0.41,0.7,0.41,1.27v17.01c0,0.58-0.14,1.01-0.41,1.29
		s-0.73,0.42-1.4,0.42h-2.88c-0.66,0-1.13-0.14-1.41-0.42c-0.28-0.28-0.42-0.71-0.42-1.29v-8.19l-1.77,4.08
		c-0.24,0.58-0.5,1-0.78,1.25c-0.28,0.25-0.74,0.38-1.38,0.38c-0.64,0-1.1-0.12-1.38-0.38c-0.28-0.25-0.54-0.66-0.78-1.25
		l-1.77-4.08v8.19c0,0.58-0.14,1.01-0.41,1.29s-0.75,0.42-1.42,0.42h-2.88C119.6,262.59,119.13,262.45,118.86,262.17z"/>
	<path class="st1" d="M142.55,260.26c-1.84-1.85-2.76-4.47-2.76-7.88c0-3.4,0.92-6.02,2.76-7.88c1.84-1.85,4.54-2.77,8.1-2.77
		c3.56,0,6.26,0.92,8.1,2.77c1.84,1.85,2.76,4.48,2.76,7.88c0,3.4-0.92,6.03-2.76,7.88c-1.84,1.85-4.54,2.78-8.1,2.78
		C147.09,263.04,144.39,262.11,142.55,260.26z M153.47,256.6c0.58-0.93,0.87-2.33,0.87-4.21c0-1.9-0.29-3.31-0.87-4.23
		s-1.52-1.38-2.82-1.38c-1.3,0-2.24,0.46-2.82,1.38c-0.58,0.92-0.87,2.33-0.87,4.23c0,1.88,0.29,3.29,0.87,4.21
		c0.58,0.93,1.52,1.4,2.82,1.4C151.95,258,152.89,257.53,153.47,256.6z"/>
	<path class="st1" d="M163.41,262.17c-0.27-0.28-0.41-0.71-0.41-1.29V243.9c0-0.58,0.14-1.01,0.41-1.29
		c0.27-0.28,0.73-0.42,1.4-0.42h6.9c7.06,0,10.59,3.4,10.59,10.2c0,3.36-0.9,5.9-2.71,7.62c-1.81,1.72-4.44,2.58-7.88,2.58h-6.9
		C164.15,262.59,163.68,262.45,163.41,262.17z M171.98,257.49c1.12,0,1.92-0.37,2.42-1.11c0.49-0.74,0.73-2.07,0.73-3.99
		s-0.25-3.25-0.73-3.99c-0.49-0.74-1.3-1.11-2.42-1.11h-1.77v10.2H171.98z"/>
	<path class="st1" d="M188.33,262.09c-1.48-0.63-2.63-1.54-3.45-2.73c-0.82-1.19-1.23-2.61-1.23-4.25V243.9
		c0-0.58,0.14-1.01,0.41-1.29c0.27-0.28,0.73-0.42,1.4-0.42h3.57c0.68,0,1.15,0.13,1.42,0.41s0.41,0.71,0.41,1.31v11.31
		c0,0.94,0.23,1.64,0.71,2.1c0.47,0.46,1.11,0.69,1.94,0.69c0.82,0,1.46-0.23,1.93-0.69c0.47-0.46,0.71-1.16,0.71-2.1V243.9
		c0-0.58,0.14-1.01,0.41-1.29c0.27-0.28,0.73-0.42,1.4-0.42h3.57c0.68,0,1.15,0.13,1.42,0.41s0.41,0.71,0.41,1.31v11.22
		c0,1.64-0.41,3.05-1.23,4.25c-0.82,1.19-1.97,2.1-3.45,2.73s-3.2,0.95-5.16,0.95C191.53,263.04,189.81,262.72,188.33,262.09z"/>
	<path class="st1" d="M205.68,262.17c-0.27-0.28-0.41-0.71-0.41-1.29V243.9c0-0.58,0.14-1.01,0.41-1.29
		c0.27-0.28,0.73-0.42,1.4-0.42h3.57c0.68,0,1.16,0.13,1.43,0.41s0.4,0.71,0.4,1.31v13.59h6.99c0.64,0,1.07,0.13,1.3,0.4
		c0.23,0.27,0.35,0.71,0.35,1.31v1.68c0,0.6-0.12,1.04-0.35,1.3c-0.23,0.27-0.67,0.41-1.3,0.41h-12.39
		C206.42,262.59,205.95,262.45,205.68,262.17z"/>
	<path class="st1" d="M222.83,260.26c-1.84-1.85-2.76-4.47-2.76-7.88c0-3.4,0.92-6.02,2.76-7.88c1.84-1.85,4.54-2.77,8.1-2.77
		c3.56,0,6.26,0.92,8.1,2.77c1.84,1.85,2.76,4.48,2.76,7.88c0,3.4-0.92,6.03-2.76,7.88c-1.84,1.85-4.54,2.78-8.1,2.78
		C227.37,263.04,224.67,262.11,222.83,260.26z M233.75,256.6c0.58-0.93,0.87-2.33,0.87-4.21c0-1.9-0.29-3.31-0.87-4.23
		s-1.52-1.38-2.82-1.38c-1.3,0-2.24,0.46-2.82,1.38c-0.58,0.92-0.87,2.33-0.87,4.23c0,1.88,0.29,3.29,0.87,4.21
		c0.58,0.93,1.52,1.4,2.82,1.4C232.23,258,233.17,257.53,233.75,256.6z"/>
	<path class="st1" d="M252.69,262.17c-0.27-0.28-0.41-0.71-0.41-1.29V243.9c0-0.58,0.14-1.01,0.41-1.29
		c0.27-0.28,0.73-0.42,1.4-0.42h6.9c7.06,0,10.59,3.4,10.59,10.2c0,3.36-0.9,5.9-2.71,7.62c-1.81,1.72-4.44,2.58-7.88,2.58h-6.9
		C253.43,262.59,252.96,262.45,252.69,262.17z M261.26,257.49c1.12,0,1.92-0.37,2.42-1.11c0.49-0.74,0.73-2.07,0.73-3.99
		s-0.25-3.25-0.73-3.99c-0.49-0.74-1.3-1.11-2.42-1.11h-1.77v10.2H261.26z"/>
	<path class="st1" d="M273.48,262.17c-0.27-0.28-0.41-0.71-0.41-1.29V243.9c0-0.58,0.14-1.01,0.41-1.29
		c0.27-0.28,0.73-0.42,1.4-0.42h12.42c0.64,0,1.07,0.13,1.31,0.41c0.23,0.27,0.34,0.71,0.34,1.31v1.68c0,0.6-0.12,1.04-0.34,1.3
		c-0.23,0.27-0.67,0.41-1.31,0.41h-7.02v2.58h4.32c0.64,0,1.08,0.14,1.31,0.41c0.23,0.27,0.35,0.71,0.35,1.3v1.62
		c0,0.6-0.12,1.03-0.35,1.3c-0.23,0.27-0.67,0.41-1.31,0.41h-4.32v2.58h6.99c0.64,0,1.07,0.13,1.3,0.4
		c0.23,0.27,0.35,0.71,0.35,1.31v1.68c0,0.6-0.12,1.04-0.35,1.3c-0.23,0.27-0.67,0.41-1.3,0.41h-12.39
		C274.22,262.59,273.75,262.45,273.48,262.17z"/>
</g>
<g>
	<path class="st1" d="M135.71,288.44c0-0.18,0.05-0.4,0.15-0.66l7.47-17.97c0.18-0.42,0.39-0.71,0.62-0.88
		c0.23-0.17,0.56-0.25,0.98-0.25h3.27c0.42,0,0.74,0.08,0.97,0.25s0.44,0.46,0.62,0.88l7.44,17.97c0.1,0.26,0.15,0.48,0.15,0.66
		c0,0.42-0.22,0.63-0.66,0.63h-5.64c-0.62,0-1.01-0.27-1.17-0.81l-0.72-2.22h-5.31l-0.69,2.22c-0.16,0.54-0.55,0.81-1.17,0.81h-5.64
		C135.93,289.07,135.71,288.86,135.71,288.44z M147.71,281.3l-1.17-3.72l-1.17,3.72H147.71z"/>
	<path class="st1" d="M161.3,286.83c-2.02-1.79-3.03-4.45-3.03-7.96c0-3.5,1.01-6.15,3.03-7.95c2.02-1.8,4.84-2.7,8.46-2.7
		c1.64,0,3.11,0.16,4.41,0.48c1.3,0.32,2.38,0.77,3.24,1.35c0.24,0.18,0.36,0.38,0.36,0.6c0,0.18-0.09,0.43-0.27,0.75l-1.5,2.58
		c-0.16,0.28-0.35,0.42-0.57,0.42c-0.14,0-0.37-0.08-0.69-0.24c-1.2-0.6-2.52-0.9-3.96-0.9c-1.66,0-2.97,0.48-3.92,1.42
		c-0.95,0.95-1.42,2.35-1.42,4.19c0,1.9,0.4,3.3,1.2,4.21s1.99,1.37,3.57,1.37c0.28,0,0.59-0.03,0.94-0.08
		c0.35-0.05,0.63-0.1,0.85-0.17v-2.73h-1.92c-0.64,0-1.08-0.13-1.31-0.38s-0.34-0.67-0.34-1.28v-1.65c0-0.6,0.11-1.02,0.34-1.27
		s0.67-0.38,1.31-0.38h6.45c0.78,0,1.32,0.17,1.62,0.52c0.3,0.35,0.45,0.91,0.45,1.67v7.02c0,0.44-0.06,0.78-0.17,1.01
		c-0.11,0.23-0.33,0.46-0.65,0.71c-1.92,1.38-4.59,2.07-8.01,2.07C166.15,289.52,163.32,288.62,161.3,286.83z"/>
	<path class="st1" d="M180.51,288.65c-0.27-0.28-0.41-0.71-0.41-1.29v-16.98c0-0.58,0.14-1.01,0.41-1.29s0.73-0.42,1.4-0.42h12.42
		c0.64,0,1.07,0.13,1.31,0.41c0.23,0.27,0.34,0.71,0.34,1.3v1.68c0,0.6-0.12,1.04-0.34,1.3c-0.23,0.27-0.67,0.41-1.31,0.41h-7.02
		v2.58h4.32c0.64,0,1.08,0.14,1.31,0.41c0.23,0.27,0.35,0.71,0.35,1.3v1.62c0,0.6-0.12,1.04-0.35,1.31c-0.23,0.27-0.67,0.4-1.31,0.4
		h-4.32v2.58h6.99c0.64,0,1.07,0.13,1.3,0.41s0.35,0.7,0.35,1.3v1.68c0,0.6-0.12,1.04-0.35,1.3s-0.67,0.4-1.3,0.4h-12.39
		C181.25,289.07,180.78,288.93,180.51,288.65z"/>
	<path class="st1" d="M197.73,288.65c-0.27-0.28-0.41-0.71-0.41-1.29v-17.01c0-0.58,0.14-1,0.41-1.27c0.27-0.27,0.74-0.41,1.42-0.41
		h2.85c0.42,0,0.74,0.06,0.98,0.17c0.23,0.11,0.45,0.33,0.67,0.64l5.43,8.07v-7.17c0-0.58,0.13-1.01,0.4-1.29s0.74-0.42,1.4-0.42
		h3.57c0.68,0,1.15,0.13,1.42,0.41c0.27,0.27,0.4,0.71,0.4,1.3v17.01c0,0.58-0.13,1.01-0.4,1.28s-0.75,0.4-1.42,0.4h-2.85
		c-0.42,0-0.75-0.05-0.98-0.16c-0.23-0.11-0.46-0.33-0.67-0.65l-5.43-8.07v7.2c0,0.58-0.13,1.01-0.4,1.28s-0.75,0.4-1.43,0.4h-3.57
		C198.47,289.07,198,288.93,197.73,288.65z"/>
	<path class="st1" d="M223.56,288.65c-0.27-0.28-0.41-0.71-0.41-1.29v-13.59h-4.32c-0.64,0-1.08-0.14-1.31-0.41
		c-0.23-0.27-0.34-0.71-0.34-1.3v-1.68c0-0.6,0.12-1.04,0.34-1.3c0.23-0.27,0.67-0.41,1.31-0.41h15.84c0.64,0,1.08,0.13,1.31,0.41
		c0.23,0.27,0.35,0.71,0.35,1.3v1.68c0,0.6-0.12,1.04-0.35,1.3c-0.23,0.27-0.67,0.41-1.31,0.41h-4.32v13.59
		c0,0.58-0.14,1.01-0.4,1.29c-0.27,0.28-0.75,0.42-1.43,0.42h-3.57C224.3,289.07,223.83,288.93,223.56,288.65z"/>
	<path class="st1" d="M237.63,288.65c-0.27-0.28-0.41-0.71-0.41-1.29v-16.98c0-0.58,0.14-1.01,0.41-1.29s0.73-0.42,1.4-0.42h12.42
		c0.64,0,1.07,0.13,1.31,0.41c0.23,0.27,0.34,0.71,0.34,1.3v1.68c0,0.6-0.12,1.04-0.34,1.3c-0.23,0.27-0.67,0.41-1.31,0.41h-7.02
		v2.58h4.32c0.64,0,1.08,0.14,1.31,0.41c0.23,0.27,0.35,0.71,0.35,1.3v1.62c0,0.6-0.12,1.04-0.35,1.31c-0.23,0.27-0.67,0.4-1.31,0.4
		h-4.32v2.58h6.99c0.64,0,1.07,0.13,1.3,0.41s0.35,0.7,0.35,1.3v1.68c0,0.6-0.12,1.04-0.35,1.3s-0.67,0.4-1.3,0.4h-12.39
		C238.37,289.07,237.9,288.93,237.63,288.65z"/>
	<path class="st1" d="M258.26,288.95c-1.56-0.38-2.82-0.91-3.78-1.59c-0.4-0.28-0.6-0.55-0.6-0.81c0-0.18,0.07-0.37,0.21-0.57
		l1.74-2.73c0.18-0.26,0.36-0.39,0.54-0.39c0.16,0,0.35,0.07,0.57,0.21c0.72,0.44,1.54,0.79,2.48,1.04
		c0.93,0.25,1.83,0.38,2.71,0.38c0.74,0,1.27-0.1,1.6-0.3s0.5-0.51,0.5-0.93c0-0.46-0.22-0.83-0.66-1.11
		c-0.44-0.28-1.2-0.63-2.28-1.05c-2.02-0.78-3.61-1.67-4.77-2.66c-1.16-0.99-1.74-2.3-1.74-3.95c0-2.08,0.72-3.64,2.18-4.69
		c1.45-1.05,3.4-1.58,5.86-1.58c1.72,0,3.18,0.15,4.4,0.45c1.21,0.3,2.27,0.77,3.17,1.41c0.4,0.28,0.6,0.55,0.6,0.81
		c0,0.18-0.07,0.37-0.21,0.57l-1.74,2.73c-0.18,0.28-0.36,0.42-0.54,0.42c-0.12,0-0.31-0.08-0.57-0.24
		c-0.48-0.32-1.05-0.59-1.71-0.79c-0.66-0.21-1.37-0.32-2.13-0.32c-0.7,0-1.23,0.1-1.59,0.3c-0.36,0.2-0.54,0.52-0.54,0.96
		c0,0.36,0.13,0.66,0.38,0.9c0.25,0.24,0.56,0.45,0.95,0.61c0.38,0.17,1.04,0.45,1.98,0.83c1.5,0.6,2.68,1.17,3.54,1.72
		c0.86,0.55,1.51,1.21,1.95,1.98c0.44,0.77,0.66,1.74,0.66,2.92c0,1.8-0.67,3.26-2.02,4.37c-1.35,1.11-3.37,1.67-6.04,1.67
		C261.51,289.52,259.82,289.33,258.26,288.95z"/>
</g>
<line class="st2" x1="219" y1="59" x2="194" y2="221"/>
<circle id="XMLID_8242_" class="st3" cx="205.76" cy="145.07" r="82.02"/>
<g id="XMLID_7515_">
	<path id="XMLID_7538_" class="st4" d="M228.57,141.85c1.07-2.6,1.61-4.66,1.72-5.2c-0.1-0.03-0.19-0.08-0.24-0.15
		c-0.17-0.25,0.33-2.9,0.1-3.09c-0.03-0.02-0.06-0.04-0.09-0.05c-0.3,0.94-0.85,1.71-1.49,2.26
		C228.59,137.65,228.59,139.75,228.57,141.85z"/>
	<path id="XMLID_7537_" class="st5" d="M224.88,136.66c-1.22-0.87-1.17,11.42-6.21,16.29c-0.36,0.35-0.73,0.69-1.11,1.02
		c-0.38,0.34-0.79,0.64-1.18,0.96c0,0.17,0,0.34,0.01,0.52c4.65-1.36,7.92-5.48,9.96-9.02c0.91-1.58,1.65-3.16,2.23-4.57
		c0.01-2.11,0.02-4.2,0.01-6.24c-0.39,0.33-0.8,0.57-1.2,0.71C226.68,137.05,225.84,137.3,224.88,136.66z"/>
	<path id="XMLID_7536_" class="st5" d="M185.73,169.38c-0.13,0.06-0.52,0.29-0.89,0.88C185.1,170.01,185.39,169.72,185.73,169.38z"
		/>
	<path id="XMLID_7535_" class="st5" d="M216.41,156.09c0.12,2.7,0.66,6.26,2.87,9.48c0.73-0.65,1.13-0.79,1.4-0.34
		c1.63,2.76,3.34,4.23,4.28,5.17c-0.48-0.83-1.02-1.05-1.02-1.05s1.17-0.45,3.19,1.26c0.47,0.4,1.29,0.96,2.19,1.71
		c-1.06-5.25-0.84-17.15-0.75-28.88c-0.48,1.06-1.03,2.17-1.67,3.28C223.98,151.8,220.4,154.98,216.41,156.09z"/>
	<path id="XMLID_7534_" class="st5" d="M185.76,169.36c0.93-0.93,2.09-2.21,3.21-4.12c0.27-0.46,0.68-0.3,1.44,0.37
		c2.56-3.73,2.91-7.9,2.93-10.69c-0.79-0.62-1.57-1.28-2.29-1.98c-5.04-4.86-5-17.16-6.21-16.29c-0.94,0.63-1.77,0.4-2.46-0.3
		c-0.25-0.08-0.5-0.19-0.75-0.34c-0.04,13.42,0.53,29.17-0.64,35.84c0.67-0.52,1.25-0.93,1.62-1.24
		C184.51,168.99,185.65,169.32,185.76,169.36z"/>
	<path id="XMLID_7533_" class="st6" d="M215.36,155.69c0.35-0.07,0.69-0.15,1.03-0.25c0-0.18-0.01-0.35-0.01-0.52
		C216.04,155.19,215.71,155.45,215.36,155.69z"/>
	<path id="XMLID_7532_" class="st6" d="M204.68,178.51c0.08,0.06,0.12,0.14,0.14,0.23c0.02-0.08,0.06-0.17,0.14-0.23
		c8.79-6.73,12.54-11.36,14.31-12.93c-2.21-3.23-2.75-6.78-2.87-9.48c-0.73,0.2-1.47,0.33-2.22,0.4c-0.22,0.93-1.17,2.64-4.4,2.61
		c-0.67-0.01-1.23-0.09-1.7-0.22c-0.49,0.09-0.98,0.18-1.48,0.23c-1.5,0.15-3.03,0.11-4.52-0.13c-1.22-0.19-2.42-0.52-3.57-0.97
		c-1.29-0.51-2.51-1.17-3.67-1.94c-0.53-0.35-1.03-0.74-1.53-1.14c-0.02,2.79-0.36,6.96-2.93,10.69
		C192.2,167.22,195.96,171.83,204.68,178.51z"/>
	<path id="XMLID_7531_" class="st6" d="M204.82,178.95c0,0.02-0.01,0.03-0.01,0.05h0.02C204.83,178.98,204.82,178.97,204.82,178.95z
		"/>
	<path id="XMLID_7530_" class="st7" d="M198.53,158c1.15,0.45,2.35,0.78,3.57,0.97c1.49,0.24,3.02,0.28,4.52,0.13
		c0.5-0.05,0.99-0.13,1.48-0.23c-2.15-0.61-2.3-2.31-2.36-2.88c0.08-0.69,0.33-3.05,4.12-3.02c3.44,0.04,4.26,1.99,4.38,2.87
		c0.39-0.04,0.76-0.09,1.13-0.16c0.35-0.25,0.69-0.5,1.02-0.77c0.4-0.31,0.8-0.62,1.18-0.96c0.38-0.33,0.75-0.67,1.11-1.02
		c5.04-4.86,5-17.16,6.21-16.29c0.96,0.64,1.79,0.39,2.5-0.33c-0.59,0.21-1.15,0.23-1.57-0.03c-0.69-0.43,0.03-3.86,0.52-9.13
		c-0.07,0.02-0.15,0.05-0.22,0.1c-0.96,0.61-2.15-7.58-6.75-11.4c-4.6-3.82-4.98-6.41-4.98-6.41c-4.6,0.52-9.11,2.19-16.7,8.23
		c-6.01,4.78-11.37,9.55-13.79,10.19c-0.22,0.06-0.37-0.18-0.55-0.51c0.49,5.16,1.18,8.51,0.5,8.93c-0.39,0.24-0.92,0.24-1.47,0.07
		c0.7,0.7,1.52,0.93,2.46,0.3c1.22-0.87,1.17,11.42,6.21,16.29c0.73,0.7,1.5,1.36,2.29,1.98c0.5,0.39,1,0.79,1.53,1.14
		C196.01,156.83,197.24,157.5,198.53,158z"/>
	<path id="XMLID_7529_" class="st5" d="M181.43,118.2c0.23-4.5,4.36-20.83,23.39-20.83c19.03,0,23.16,16.33,23.39,20.83
		c0.15,2.92-0.14,4.6,0.09,5.61c0.09-0.98,0.15-2.25,0.15-3.94c0-8.6-3.49-17.46-9.12-18.94c-2.71-0.71-3.06-3.34-9.08-5.14
		c-9.62-2.88-20.48,1.11-26.02,10.35c-3.88,6.47-4.08,15.53-3.68,18.67C181.92,124.11,181.21,122.46,181.43,118.2z"/>
	<path id="XMLID_7528_" class="st5" d="M183.89,127.87c2.42-0.64,7.78-5.41,13.79-10.19c7.59-6.04,12.1-7.71,16.7-8.23
		c0,0,0.37,2.59,4.98,6.41c4.6,3.82,5.8,12.01,6.75,11.4c0.07-0.05,0.14-0.07,0.22-0.1c0.05-0.54,0.1-1.1,0.14-1.67
		c0.47-6.21,0.41-8.24-0.2-10.49c-4.7-17.34-21.45-16.1-21.45-16.1s-16.17-1.52-21.37,15.83c-0.69,2.3-0.75,4.56-0.28,10.77
		c0.05,0.65,0.1,1.27,0.16,1.87C183.52,127.69,183.67,127.93,183.89,127.87z"/>
	<path id="XMLID_7527_" class="st8" d="M183.83,136.3c0.68-0.42-0.01-3.78-0.5-8.93c-0.06-0.6-0.11-1.22-0.16-1.87
		c-0.47-6.21-0.41-8.46,0.28-10.77c5.2-17.35,21.37-15.83,21.37-15.83s16.75-1.23,21.45,16.1c0.61,2.26,0.67,4.28,0.2,10.49
		c-0.04,0.58-0.09,1.13-0.14,1.67c-0.49,5.27-1.2,8.7-0.52,9.13c0.42,0.26,0.98,0.24,1.57,0.03c0.41-0.14,0.82-0.38,1.2-0.71
		c0.64-0.54,1.19-1.32,1.49-2.26c-0.24-0.07-0.59,0.14-0.79-0.27c-0.22-0.47-0.11-2.59,0.08-3.04c0.19-0.45,0.39-0.67,1.12-0.54
		c0.04,0.01,0.08,0.03,0.11,0.04c0.08-2.12-0.18-4.16-1.29-4.59c-0.6-0.23-0.87-0.59-1-1.14c-0.24-1.01,0.05-2.7-0.09-5.61
		c-0.23-4.5-4.36-20.83-23.39-20.83c-19.03,0-23.16,16.33-23.39,20.83c-0.22,4.26,0.49,5.9-0.87,6.62
		c-0.08,0.04-0.13,0.09-0.22,0.12c-1.7,0.66-1.42,5.06-0.95,7.78c0.26,1.51,1.21,2.67,2.22,3.28c0.25,0.15,0.5,0.27,0.75,0.34
		C182.91,136.53,183.44,136.54,183.83,136.3z"/>
	<path id="XMLID_7526_" class="st9" d="M229.37,130.05c-0.19,0.46-0.31,2.57-0.08,3.04c0.2,0.42,0.55,0.2,0.79,0.27
		c0.03,0.01,0.06,0.02,0.09,0.05c0.23,0.19-0.27,2.84-0.1,3.09c0.05,0.07,0.14,0.12,0.24,0.15c-0.11,0.54-0.65,2.6-1.72,5.2
		c-0.58,1.42-1.32,2.99-2.23,4.57c-2.04,3.54-5.31,7.66-9.96,9.02c-0.34,0.1-0.68,0.18-1.03,0.25c-0.37,0.07-0.75,0.13-1.13,0.16
		c-0.12-0.88-0.94-2.83-4.38-2.87c-3.79-0.04-4.04,2.32-4.12,3.02c0.06,0.57,0.21,2.27,2.36,2.88c0.47,0.13,1.02,0.22,1.7,0.22
		c3.23,0.03,4.19-1.68,4.4-2.61c0.75-0.06,1.5-0.19,2.22-0.4c3.99-1.11,7.57-4.29,10.49-9.37c0.63-1.1,1.19-2.21,1.67-3.28
		c1.53-3.38,2.29-6.27,2.37-6.82c0.04-0.02,0.09-0.03,0.12-0.05c0.27-0.18,0.46-1.92,0.62-3.91c0.16-1.88-0.43-2.91-1.08-3.12
		c-0.04-0.01-0.08-0.03-0.11-0.04C229.76,129.38,229.56,129.59,229.37,130.05z"/>
	<path id="XMLID_7525_" class="st10" d="M201.49,193.02c-1.38-3.08-2.91-4.84-3.06-7.41c-1.02,1.26-1.72,2.55-1.6,3.77
		c0.38,4.07-11.65-9.87-12.79-16.56c-0.21,1.28-0.22,3.96,3.49,9.22c2.51,3.56,8.39,13.7,12.68,22.8c0.85-5.49,1.54-9.71,1.83-11.29
		C201.8,193.42,201.59,193.25,201.49,193.02z"/>
	<path id="XMLID_7524_" class="st10" d="M212.82,189.39c0.12-1.22-0.59-2.52-1.6-3.77c-0.15,2.57-1.68,4.32-3.06,7.41
		c-0.1,0.23-0.31,0.4-0.54,0.54c0.3,1.65,1.03,6.15,1.93,11.96c4.16-9.27,10.07-19.82,12.64-23.46c3.9-5.53,3.7-8.21,3.46-9.4
		C224.68,179.27,212.43,193.49,212.82,189.39z"/>
	<path id="XMLID_7523_" class="st10" d="M185.99,185.99c0.01,0.01,0.01,0.02,0.02,0.03l0.03-0.03
		C186.04,185.99,186.02,185.99,185.99,185.99z"/>
	<path id="XMLID_7522_" class="st11" d="M208.16,193.02c1.38-3.08,2.91-4.84,3.06-7.41c-2.26-2.79-6.1-5.38-6.39-6.61h-0.02
		c-0.28,1.23-4.12,3.82-6.39,6.61c0.15,2.57,1.68,4.32,3.06,7.41c0.1,0.23,0.31,0.4,0.54,0.53c-0.29,1.58-0.97,5.8-1.83,11.29
		c2.55,5.42,4.53,10.46,4.9,13.54c0.35-2.95,2.13-7.71,4.45-12.87c-0.9-5.81-1.63-10.31-1.93-11.96
		C207.85,193.42,208.05,193.25,208.16,193.02z"/>
	<path id="XMLID_7521_" class="st12" d="M220.67,165.24c-0.27-0.45-0.67-0.31-1.4,0.34c-1.77,1.57-5.52,6.2-14.31,12.93
		c-0.08,0.06-0.12,0.14-0.14,0.23c-0.02-0.08-0.06-0.17-0.14-0.23c-8.72-6.68-12.48-11.29-14.27-12.9
		c-0.75-0.68-1.16-0.84-1.44-0.37c-1.12,1.9-2.29,3.19-3.21,4.12c0.01,0,0.02,0.01,0.02,0.01s-0.02,0.01-0.05,0.02
		c-0.34,0.34-0.63,0.62-0.89,0.88c-0.27,0.42-0.53,1.02-0.67,1.87c-0.03,0.16-0.09,0.39-0.14,0.7c1.15,6.69,13.18,20.62,12.79,16.56
		c-0.12-1.22,0.59-2.52,1.6-3.77c2.26-2.79,6.1-5.38,6.39-6.61c0-0.02,0.01-0.03,0.01-0.05c0,0.02,0.01,0.03,0.01,0.05
		c0.28,1.23,4.12,3.82,6.39,6.61c1.02,1.26,1.72,2.55,1.6,3.77c-0.39,4.1,11.87-10.12,12.83-16.74c-0.04-0.22-0.09-0.39-0.11-0.52
		c-0.13-0.76-0.35-1.31-0.59-1.72C224.01,169.47,222.3,168,220.67,165.24z"/>
	<path id="XMLID_7520_" class="st9" d="M253.18,182.41c-0.74-1.01-16.98-6.61-22.26-8.55c0.54,0.59,1.05,1.26,1.47,2.02
		c2.33,4.16,2.45,6.71,4.1,7.94c1.64,1.22-12.82,2.18-12.82,2.18l9.11,6.88c0,0-10.21,11.68-17.11,16.71
		c-2.14,1.56-8.89,7.8-10.54,10.5c0.38,1.81,1.04,4.52,1.19,5.61c0.06,0.47,0.12,0.93,0.18,1.38c12.57-0.15,24.47-3.12,35.07-8.32
		c0.32-6.29-0.76-31.04,11.14-36.31c0.25-0.11,0.53,0.15,0.85,0.69c0,0,0-0.01,0-0.01C253.44,182.87,253.32,182.61,253.18,182.41z"
		/>
	<path id="XMLID_7519_" class="st13" d="M205.13,220.08L205.13,220.08c-1.92-1.68-8.94-8.94-11.08-10.5
		c-6.91-5.03-17.11-16.71-17.11-16.71l9.08-6.85c-0.01-0.01-0.01-0.02-0.02-0.03c-0.93-0.06-14.36-0.99-12.77-2.17
		c1.64-1.22,1.77-3.78,4.1-7.94c0.46-0.82,1.02-1.53,1.61-2.16c-5.51,2.01-21.28,7.46-22.01,8.46c12.72,0.66,11.46,28.98,11.7,36.15
		c11.09,5.6,23.62,8.77,36.89,8.77c0.33,0,0.66-0.02,0.99-0.03c-0.06-0.46-0.11-0.91-0.18-1.38
		C206.17,224.61,205.51,221.89,205.13,220.08z"/>
	<path id="XMLID_7518_" class="st14" d="M177.32,175.88c-2.33,4.16-2.45,6.71-4.1,7.94c-1.59,1.18,11.84,2.11,12.77,2.17
		c0.03,0,0.05,0,0.05,0l-0.03,0.03l-9.08,6.85c0,0,10.21,11.68,17.11,16.71c2.14,1.56,9.16,8.83,11.08,10.5l0,0
		c1.64-2.7,8.4-8.94,10.54-10.5c6.91-5.03,17.11-16.71,17.11-16.71l-9.11-6.88c0,0,14.47-0.95,12.82-2.18
		c-1.64-1.22-1.77-3.78-4.1-7.94c-0.43-0.76-0.94-1.43-1.47-2.02c-0.53-0.58-1.08-1.09-1.61-1.53c-0.9-0.75-1.72-1.31-2.19-1.71
		c-2.02-1.71-3.19-1.26-3.19-1.26s0.54,0.22,1.02,1.05c0.24,0.41,0.46,0.96,0.59,1.72c0.02,0.13,0.07,0.3,0.11,0.52
		c0.24,1.19,0.44,3.87-3.46,9.4c-2.57,3.65-8.48,14.2-12.64,23.46c-2.32,5.16-4.09,9.92-4.45,12.87c-0.37-3.08-2.35-8.13-4.9-13.54
		c-4.28-9.1-10.17-19.24-12.68-22.8c-3.71-5.26-3.71-7.94-3.49-9.22c0.05-0.31,0.11-0.54,0.14-0.7c0.14-0.85,0.4-1.45,0.67-1.87
		c0.37-0.58,0.76-0.81,0.89-0.88c0.03-0.01,0.05-0.02,0.05-0.02s-0.02,0-0.02-0.01c-0.11-0.04-1.24-0.36-3.17,1.27
		c-0.37,0.31-0.95,0.72-1.62,1.24c-0.64,0.5-1.36,1.12-2.05,1.86C178.34,174.34,177.78,175.05,177.32,175.88z"/>
	<path id="XMLID_7517_" class="st14" d="M156.92,182.18c-0.73-0.04-3.13,11.09-5.56,24.48c5.21,4.58,11,8.51,17.26,11.67
		C168.38,211.16,169.64,182.84,156.92,182.18z"/>
	<path id="XMLID_7516_" class="st14" d="M252.7,182.44c-11.9,5.26-10.81,30.01-11.14,36.31c6.42-3.15,12.36-7.12,17.7-11.76
		c-2.04-11.42-4.21-21.2-5.72-23.85C253.24,182.59,252.95,182.33,252.7,182.44z"/>
</g>
<g>
</g>
<g>
</g>
<g>
</g>
<g>
</g>
<g>
</g>
<g>
</g>
<g>
</g>
<g>
</g>
<g>
</g>
<g>
</g>
<g>
</g>
<g>
</g>
<g>
</g>
<g>
</g>
<g>
</g>
</svg>
