<?xml version="1.0" encoding="utf-8"?>
<!-- Generator: Adobe Illustrator 23.0.0, SVG Export Plug-In . SVG Version: 6.00 Build 0)  -->
<svg version="1.1" id="Capa_1" xmlns="http://www.w3.org/2000/svg" xmlns:xlink="http://www.w3.org/1999/xlink" x="0px" y="0px"
	 viewBox="0 0 400 400" style="enable-background:new 0 0 400 400;" xml:space="preserve">
<style type="text/css">
	.st0{fill:#0085B0;}
	.st1{fill:#FFFFFF;}
	.st2{fill:#DAA449;}
	.st3{fill:#F1CC4B;}
	.st4{fill:#D4D4D4;}
	.st5{fill:#CD7054;}
	.st6{fill:#61DBD2;}
	.st7{fill:#50D81D;}
	.st8{fill:#253452;}
	.st9{fill:#2A3D60;}
	.st10{fill:#C2C2C2;}
	.st11{fill:#6C92D5;}
	.st12{fill:#81C378;}
	.st13{fill:#587955;}
	.st14{opacity:0.5;}
	.st15{fill:#A2CADE;}
</style>
<g>
	<circle class="st0" cx="207.5" cy="192.5" r="154.5"/>
</g>
<g>
	<path class="st1" d="M121.86,254.17c-0.27-0.28-0.41-0.71-0.41-1.29v-17.01c0-0.58,0.14-1,0.41-1.27s0.74-0.41,1.42-0.41h3.45
		c0.44,0,0.79,0.06,1.05,0.17c0.26,0.11,0.46,0.32,0.6,0.64l3.51,8.79l3.51-8.79c0.14-0.32,0.34-0.54,0.6-0.64
		c0.26-0.11,0.61-0.17,1.05-0.17h3.45c0.68,0,1.15,0.13,1.42,0.41s0.41,0.7,0.41,1.27v17.01c0,0.58-0.14,1.01-0.41,1.29
		s-0.73,0.42-1.4,0.42h-2.88c-0.66,0-1.13-0.14-1.41-0.42c-0.28-0.28-0.42-0.71-0.42-1.29v-8.19l-1.77,4.08
		c-0.24,0.58-0.5,1-0.78,1.25c-0.28,0.25-0.74,0.38-1.38,0.38c-0.64,0-1.1-0.12-1.38-0.38c-0.28-0.25-0.54-0.66-0.78-1.25
		l-1.77-4.08v8.19c0,0.58-0.14,1.01-0.41,1.29s-0.75,0.42-1.42,0.42h-2.88C122.6,254.59,122.13,254.45,121.86,254.17z"/>
	<path class="st1" d="M145.55,252.26c-1.84-1.85-2.76-4.47-2.76-7.88c0-3.4,0.92-6.02,2.76-7.88c1.84-1.85,4.54-2.77,8.1-2.77
		c3.56,0,6.26,0.92,8.1,2.77c1.84,1.85,2.76,4.48,2.76,7.88c0,3.4-0.92,6.03-2.76,7.88c-1.84,1.85-4.54,2.78-8.1,2.78
		C150.09,255.04,147.39,254.11,145.55,252.26z M156.47,248.6c0.58-0.93,0.87-2.33,0.87-4.21c0-1.9-0.29-3.31-0.87-4.23
		s-1.52-1.38-2.82-1.38c-1.3,0-2.24,0.46-2.82,1.38c-0.58,0.92-0.87,2.33-0.87,4.23c0,1.88,0.29,3.29,0.87,4.21
		c0.58,0.93,1.52,1.4,2.82,1.4C154.95,250,155.89,249.53,156.47,248.6z"/>
	<path class="st1" d="M166.41,254.17c-0.27-0.28-0.41-0.71-0.41-1.29V235.9c0-0.58,0.14-1.01,0.41-1.29
		c0.27-0.28,0.73-0.42,1.4-0.42h6.9c7.06,0,10.59,3.4,10.59,10.2c0,3.36-0.9,5.9-2.71,7.62c-1.81,1.72-4.44,2.58-7.88,2.58h-6.9
		C167.15,254.59,166.68,254.45,166.41,254.17z M174.98,249.49c1.12,0,1.92-0.37,2.42-1.11c0.49-0.74,0.73-2.07,0.73-3.99
		s-0.25-3.25-0.73-3.99c-0.49-0.74-1.3-1.11-2.42-1.11h-1.77v10.2H174.98z"/>
	<path class="st1" d="M191.33,254.09c-1.48-0.63-2.63-1.54-3.45-2.73c-0.82-1.19-1.23-2.61-1.23-4.25V235.9
		c0-0.58,0.14-1.01,0.41-1.29c0.27-0.28,0.73-0.42,1.4-0.42h3.57c0.68,0,1.15,0.13,1.42,0.41s0.41,0.71,0.41,1.31v11.31
		c0,0.94,0.23,1.64,0.71,2.1c0.47,0.46,1.11,0.69,1.94,0.69c0.82,0,1.46-0.23,1.93-0.69c0.47-0.46,0.71-1.16,0.71-2.1V235.9
		c0-0.58,0.14-1.01,0.41-1.29c0.27-0.28,0.73-0.42,1.4-0.42h3.57c0.68,0,1.15,0.13,1.42,0.41s0.41,0.71,0.41,1.31v11.22
		c0,1.64-0.41,3.05-1.23,4.25c-0.82,1.19-1.97,2.1-3.45,2.73s-3.2,0.95-5.16,0.95C194.53,255.04,192.81,254.72,191.33,254.09z"/>
	<path class="st1" d="M208.68,254.17c-0.27-0.28-0.41-0.71-0.41-1.29V235.9c0-0.58,0.14-1.01,0.41-1.29
		c0.27-0.28,0.73-0.42,1.4-0.42h3.57c0.68,0,1.16,0.13,1.43,0.41s0.4,0.71,0.4,1.31v13.59h6.99c0.64,0,1.07,0.13,1.3,0.4
		c0.23,0.27,0.35,0.71,0.35,1.31v1.68c0,0.6-0.12,1.04-0.35,1.3c-0.23,0.27-0.67,0.41-1.3,0.41h-12.39
		C209.42,254.59,208.95,254.45,208.68,254.17z"/>
	<path class="st1" d="M225.83,252.26c-1.84-1.85-2.76-4.47-2.76-7.88c0-3.4,0.92-6.02,2.76-7.88c1.84-1.85,4.54-2.77,8.1-2.77
		c3.56,0,6.26,0.92,8.1,2.77c1.84,1.85,2.76,4.48,2.76,7.88c0,3.4-0.92,6.03-2.76,7.88c-1.84,1.85-4.54,2.78-8.1,2.78
		C230.37,255.04,227.67,254.11,225.83,252.26z M236.75,248.6c0.58-0.93,0.87-2.33,0.87-4.21c0-1.9-0.29-3.31-0.87-4.23
		s-1.52-1.38-2.82-1.38c-1.3,0-2.24,0.46-2.82,1.38c-0.58,0.92-0.87,2.33-0.87,4.23c0,1.88,0.29,3.29,0.87,4.21
		c0.58,0.93,1.52,1.4,2.82,1.4C235.23,250,236.17,249.53,236.75,248.6z"/>
	<path class="st1" d="M255.69,254.17c-0.27-0.28-0.41-0.71-0.41-1.29V235.9c0-0.58,0.14-1.01,0.41-1.29
		c0.27-0.28,0.73-0.42,1.4-0.42h6.9c7.06,0,10.59,3.4,10.59,10.2c0,3.36-0.9,5.9-2.71,7.62c-1.81,1.72-4.44,2.58-7.88,2.58h-6.9
		C256.43,254.59,255.96,254.45,255.69,254.17z M264.26,249.49c1.12,0,1.92-0.37,2.42-1.11c0.49-0.74,0.73-2.07,0.73-3.99
		s-0.25-3.25-0.73-3.99c-0.49-0.74-1.3-1.11-2.42-1.11h-1.77v10.2H264.26z"/>
	<path class="st1" d="M276.48,254.17c-0.27-0.28-0.41-0.71-0.41-1.29V235.9c0-0.58,0.14-1.01,0.41-1.29
		c0.27-0.28,0.73-0.42,1.4-0.42h12.42c0.64,0,1.07,0.13,1.31,0.41c0.23,0.27,0.34,0.71,0.34,1.31v1.68c0,0.6-0.12,1.04-0.34,1.3
		c-0.23,0.27-0.67,0.41-1.31,0.41h-7.02v2.58h4.32c0.64,0,1.08,0.14,1.31,0.41c0.23,0.27,0.35,0.71,0.35,1.3v1.62
		c0,0.6-0.12,1.03-0.35,1.3c-0.23,0.27-0.67,0.41-1.31,0.41h-4.32v2.58h6.99c0.64,0,1.07,0.13,1.3,0.4
		c0.23,0.27,0.35,0.71,0.35,1.31v1.68c0,0.6-0.12,1.04-0.35,1.3c-0.23,0.27-0.67,0.41-1.3,0.41h-12.39
		C277.22,254.59,276.75,254.45,276.48,254.17z"/>
</g>
<g>
	<path class="st1" d="M117.66,280.65c-0.27-0.28-0.41-0.71-0.41-1.29v-16.98c0-0.58,0.14-1.01,0.41-1.29s0.73-0.42,1.4-0.42h7.17
		c3,0,5.19,0.59,6.56,1.78c1.37,1.19,2.05,2.99,2.05,5.39c0,1.44-0.25,2.66-0.73,3.65c-0.49,0.99-1.25,1.76-2.27,2.32l2.79,5.97
		c0.08,0.16,0.12,0.34,0.12,0.54c0,0.22-0.08,0.4-0.23,0.54c-0.15,0.14-0.34,0.21-0.58,0.21h-5.07c-0.32,0-0.58-0.04-0.77-0.13
		c-0.19-0.09-0.33-0.24-0.4-0.46l-2.22-5.58h-1.02v4.47c0,0.58-0.13,1.01-0.4,1.29c-0.27,0.28-0.75,0.42-1.43,0.42h-3.57
		C118.4,281.07,117.93,280.93,117.66,280.65z M125.6,269.88c0.64,0,1.14-0.17,1.51-0.51s0.56-0.85,0.56-1.53
		c0-0.7-0.19-1.22-0.56-1.56s-0.88-0.51-1.51-0.51h-2.04v4.11H125.6z"/>
	<path class="st1" d="M136.74,280.65c-0.27-0.28-0.41-0.71-0.41-1.29v-16.98c0-0.58,0.14-1.01,0.41-1.29s0.73-0.42,1.4-0.42h12.42
		c0.64,0,1.07,0.13,1.31,0.41c0.23,0.27,0.34,0.71,0.34,1.3v1.68c0,0.6-0.12,1.04-0.34,1.3c-0.23,0.27-0.67,0.41-1.31,0.41h-7.02
		v2.58h4.32c0.64,0,1.08,0.14,1.31,0.41c0.23,0.27,0.35,0.71,0.35,1.3v1.62c0,0.6-0.12,1.04-0.35,1.31c-0.23,0.27-0.67,0.4-1.31,0.4
		h-4.32v2.58h6.99c0.64,0,1.07,0.13,1.3,0.41s0.35,0.7,0.35,1.3v1.68c0,0.6-0.12,1.04-0.35,1.3s-0.67,0.4-1.3,0.4h-12.39
		C137.48,281.07,137.01,280.93,136.74,280.65z"/>
	<path class="st1" d="M153.96,280.65c-0.27-0.28-0.41-0.71-0.41-1.29v-16.98c0-0.58,0.14-1.01,0.41-1.29s0.73-0.42,1.4-0.42h7.17
		c3,0,5.19,0.59,6.56,1.78c1.37,1.19,2.05,2.99,2.05,5.39s-0.69,4.19-2.05,5.37c-1.37,1.18-3.55,1.77-6.53,1.77h-1.8v4.38
		c0,0.58-0.13,1.01-0.4,1.29c-0.27,0.28-0.75,0.42-1.43,0.42h-3.57C154.7,281.07,154.23,280.93,153.96,280.65z M161.9,269.88
		c0.64,0,1.14-0.17,1.51-0.51s0.56-0.85,0.56-1.53c0-0.7-0.19-1.22-0.56-1.56s-0.88-0.51-1.51-0.51h-2.04v4.11H161.9z"/>
	<path class="st1" d="M173.45,278.74c-1.84-1.85-2.76-4.47-2.76-7.88s0.92-6.03,2.76-7.88c1.84-1.85,4.54-2.78,8.1-2.78
		c3.56,0,6.26,0.93,8.1,2.78c1.84,1.85,2.76,4.47,2.76,7.88s-0.92,6.03-2.76,7.88c-1.84,1.85-4.54,2.78-8.1,2.78
		C177.99,281.52,175.29,280.59,173.45,278.74z M184.37,275.08c0.58-0.93,0.87-2.33,0.87-4.21c0-1.9-0.29-3.31-0.87-4.23
		s-1.52-1.38-2.82-1.38c-1.3,0-2.24,0.46-2.82,1.38c-0.58,0.92-0.87,2.33-0.87,4.23c0,1.88,0.29,3.29,0.87,4.21
		c0.58,0.93,1.52,1.39,2.82,1.39C182.85,276.48,183.79,276.01,184.37,275.08z"/>
	<path class="st1" d="M194.31,280.65c-0.27-0.28-0.41-0.71-0.41-1.29v-16.98c0-0.58,0.14-1.01,0.41-1.29s0.73-0.42,1.4-0.42h7.17
		c3,0,5.19,0.59,6.56,1.78c1.37,1.19,2.05,2.99,2.05,5.39c0,1.44-0.25,2.66-0.73,3.65c-0.49,0.99-1.25,1.76-2.27,2.32l2.79,5.97
		c0.08,0.16,0.12,0.34,0.12,0.54c0,0.22-0.08,0.4-0.23,0.54c-0.15,0.14-0.34,0.21-0.58,0.21h-5.07c-0.32,0-0.58-0.04-0.77-0.13
		c-0.19-0.09-0.33-0.24-0.4-0.46l-2.22-5.58h-1.02v4.47c0,0.58-0.13,1.01-0.4,1.29c-0.27,0.28-0.75,0.42-1.43,0.42h-3.57
		C195.05,281.07,194.58,280.93,194.31,280.65z M202.25,269.88c0.64,0,1.14-0.17,1.51-0.51s0.56-0.85,0.56-1.53
		c0-0.7-0.19-1.22-0.56-1.56s-0.88-0.51-1.51-0.51h-2.04v4.11H202.25z"/>
	<path class="st1" d="M217.11,280.65c-0.27-0.28-0.41-0.71-0.41-1.29v-13.59h-4.32c-0.64,0-1.08-0.14-1.31-0.41
		c-0.23-0.27-0.34-0.71-0.34-1.3v-1.68c0-0.6,0.12-1.04,0.34-1.3c0.23-0.27,0.67-0.41,1.31-0.41h15.84c0.64,0,1.08,0.13,1.31,0.41
		c0.23,0.27,0.35,0.71,0.35,1.3v1.68c0,0.6-0.12,1.04-0.35,1.3c-0.23,0.27-0.67,0.41-1.31,0.41h-4.32v13.59
		c0,0.58-0.14,1.01-0.4,1.29c-0.27,0.28-0.75,0.42-1.43,0.42h-3.57C217.85,281.07,217.38,280.93,217.11,280.65z"/>
	<path class="st1" d="M231.18,280.65c-0.27-0.28-0.41-0.71-0.41-1.29v-16.98c0-0.58,0.14-1.01,0.41-1.29s0.73-0.42,1.4-0.42H245
		c0.64,0,1.07,0.13,1.31,0.41c0.23,0.27,0.34,0.71,0.34,1.3v1.68c0,0.6-0.12,1.04-0.34,1.3c-0.23,0.27-0.67,0.41-1.31,0.41h-7.02
		v2.58h4.32c0.64,0,1.08,0.14,1.31,0.41c0.23,0.27,0.35,0.71,0.35,1.3v1.62c0,0.6-0.12,1.04-0.35,1.31c-0.23,0.27-0.67,0.4-1.31,0.4
		h-4.32v2.58h6.99c0.64,0,1.07,0.13,1.3,0.41s0.35,0.7,0.35,1.3v1.68c0,0.6-0.12,1.04-0.35,1.3s-0.67,0.4-1.3,0.4h-12.39
		C231.92,281.07,231.45,280.93,231.18,280.65z"/>
	<path class="st1" d="M251.81,280.95c-1.56-0.38-2.82-0.91-3.78-1.59c-0.4-0.28-0.6-0.55-0.6-0.81c0-0.18,0.07-0.37,0.21-0.57
		l1.74-2.73c0.18-0.26,0.36-0.39,0.54-0.39c0.16,0,0.35,0.07,0.57,0.21c0.72,0.44,1.54,0.79,2.48,1.04
		c0.93,0.25,1.83,0.38,2.71,0.38c0.74,0,1.27-0.1,1.6-0.3s0.5-0.51,0.5-0.93c0-0.46-0.22-0.83-0.66-1.11
		c-0.44-0.28-1.2-0.63-2.28-1.05c-2.02-0.78-3.61-1.67-4.77-2.66c-1.16-0.99-1.74-2.3-1.74-3.95c0-2.08,0.72-3.64,2.18-4.69
		c1.45-1.05,3.4-1.58,5.86-1.58c1.72,0,3.18,0.15,4.4,0.45c1.21,0.3,2.27,0.77,3.17,1.41c0.4,0.28,0.6,0.55,0.6,0.81
		c0,0.18-0.07,0.37-0.21,0.57l-1.74,2.73c-0.18,0.28-0.36,0.42-0.54,0.42c-0.12,0-0.31-0.08-0.57-0.24
		c-0.48-0.32-1.05-0.59-1.71-0.79c-0.66-0.21-1.37-0.32-2.13-0.32c-0.7,0-1.23,0.1-1.59,0.3c-0.36,0.2-0.54,0.52-0.54,0.96
		c0,0.36,0.13,0.66,0.38,0.9c0.25,0.24,0.56,0.45,0.95,0.61c0.38,0.17,1.04,0.45,1.98,0.83c1.5,0.6,2.68,1.17,3.54,1.72
		c0.86,0.55,1.51,1.21,1.95,1.98c0.44,0.77,0.66,1.74,0.66,2.92c0,1.8-0.67,3.26-2.02,4.37c-1.35,1.11-3.37,1.67-6.04,1.67
		C255.06,281.52,253.37,281.33,251.81,280.95z"/>
	<path class="st1" d="M282.45,280.65c-0.27-0.28-0.41-0.71-0.41-1.29v-5.43l-6.99-11.97c-0.12-0.22-0.18-0.43-0.18-0.63
		c0-0.44,0.23-0.66,0.69-0.66h5.64c0.3,0,0.53,0.07,0.69,0.19c0.16,0.13,0.32,0.34,0.48,0.62l3.27,5.88l3.27-5.88
		c0.16-0.28,0.32-0.48,0.48-0.62c0.16-0.13,0.39-0.19,0.69-0.19h5.64c0.46,0,0.69,0.22,0.69,0.66c0,0.2-0.06,0.41-0.18,0.63
		l-6.99,11.97v5.43c0,0.58-0.14,1.01-0.41,1.29c-0.27,0.28-0.75,0.42-1.42,0.42h-3.57C283.19,281.07,282.72,280.93,282.45,280.65z"
		/>
</g>
<g>
	<path class="st1" d="M117.54,300.61c0-0.13,0.04-0.29,0.11-0.48l5.48-13.18c0.13-0.31,0.28-0.53,0.45-0.65
		c0.17-0.12,0.41-0.19,0.71-0.19h2.4c0.31,0,0.55,0.06,0.71,0.19s0.32,0.34,0.45,0.65l5.46,13.18c0.07,0.19,0.11,0.35,0.11,0.48
		c0,0.31-0.16,0.46-0.48,0.46h-4.14c-0.46,0-0.74-0.2-0.86-0.59l-0.53-1.63h-3.89l-0.51,1.63c-0.12,0.4-0.4,0.59-0.86,0.59h-4.14
		C117.7,301.07,117.54,300.92,117.54,300.61z M126.34,295.37l-0.86-2.73l-0.86,2.73H126.34z"/>
	<path class="st1" d="M134.82,300.76c-0.2-0.21-0.3-0.52-0.3-0.95v-12.45c0-0.43,0.1-0.74,0.3-0.95c0.2-0.21,0.54-0.31,1.02-0.31
		h5.06c5.18,0,7.77,2.49,7.77,7.48c0,2.46-0.66,4.33-1.99,5.59c-1.33,1.26-3.25,1.89-5.77,1.89h-5.06
		C135.36,301.07,135.02,300.97,134.82,300.76z M141.1,297.33c0.82,0,1.41-0.27,1.77-0.81c0.36-0.54,0.54-1.52,0.54-2.93
		s-0.18-2.38-0.54-2.93c-0.36-0.54-0.95-0.81-1.77-0.81h-1.3v7.48H141.1z"/>
	<path class="st1" d="M150.06,300.76c-0.2-0.21-0.3-0.52-0.3-0.95v-12.47c0-0.42,0.1-0.74,0.3-0.93c0.2-0.2,0.55-0.3,1.04-0.3h2.53
		c0.32,0,0.58,0.04,0.77,0.12c0.19,0.08,0.34,0.24,0.44,0.47l2.57,6.45l2.57-6.45c0.1-0.23,0.25-0.39,0.44-0.47
		c0.19-0.08,0.45-0.12,0.77-0.12h2.53c0.5,0,0.85,0.1,1.04,0.3c0.2,0.2,0.3,0.51,0.3,0.93v12.47c0,0.43-0.1,0.74-0.3,0.95
		c-0.2,0.21-0.54,0.31-1.02,0.31h-2.11c-0.48,0-0.83-0.1-1.03-0.31c-0.21-0.21-0.31-0.52-0.31-0.95v-6.01l-1.3,2.99
		c-0.18,0.43-0.37,0.73-0.57,0.91c-0.21,0.18-0.54,0.27-1.01,0.27s-0.81-0.09-1.01-0.27c-0.21-0.18-0.4-0.49-0.57-0.91l-1.3-2.99
		v6.01c0,0.43-0.1,0.74-0.3,0.95c-0.2,0.21-0.55,0.31-1.04,0.31h-2.11C150.6,301.07,150.26,300.97,150.06,300.76z"/>
	<path class="st1" d="M166.92,300.76c-0.2-0.21-0.3-0.52-0.3-0.95v-12.45c0-0.43,0.1-0.74,0.3-0.95c0.2-0.21,0.54-0.31,1.02-0.31
		h2.62c0.5,0,0.85,0.1,1.04,0.3c0.2,0.2,0.3,0.52,0.3,0.96v12.45c0,0.43-0.1,0.74-0.3,0.95c-0.2,0.21-0.55,0.31-1.04,0.31h-2.62
		C167.45,301.07,167.11,300.97,166.92,300.76z"/>
	<path class="st1" d="M173.73,300.76c-0.2-0.21-0.3-0.52-0.3-0.95v-12.47c0-0.42,0.1-0.74,0.3-0.93c0.2-0.2,0.55-0.3,1.04-0.3h2.09
		c0.31,0,0.55,0.04,0.71,0.12c0.17,0.08,0.33,0.24,0.5,0.47l3.98,5.92v-5.26c0-0.43,0.1-0.74,0.3-0.95c0.2-0.21,0.54-0.31,1.02-0.31
		H186c0.5,0,0.85,0.1,1.04,0.3c0.2,0.2,0.3,0.52,0.3,0.96v12.47c0,0.42-0.1,0.74-0.3,0.93c-0.2,0.2-0.55,0.3-1.04,0.3h-2.09
		c-0.31,0-0.55-0.04-0.72-0.12c-0.17-0.08-0.33-0.24-0.49-0.47l-3.98-5.92v5.28c0,0.42-0.1,0.74-0.3,0.93
		c-0.2,0.2-0.55,0.3-1.04,0.3h-2.62C174.27,301.07,173.93,300.97,173.73,300.76z"/>
	<path class="st1" d="M189.18,300.76c-0.2-0.21-0.3-0.52-0.3-0.95v-12.45c0-0.43,0.1-0.74,0.3-0.95c0.2-0.21,0.54-0.31,1.02-0.31
		h2.62c0.5,0,0.85,0.1,1.04,0.3c0.2,0.2,0.3,0.52,0.3,0.96v12.45c0,0.43-0.1,0.74-0.3,0.95c-0.2,0.21-0.55,0.31-1.04,0.31h-2.62
		C189.72,301.07,189.38,300.97,189.18,300.76z"/>
	<path class="st1" d="M198.5,300.98c-1.14-0.28-2.07-0.67-2.77-1.17c-0.29-0.21-0.44-0.4-0.44-0.59c0-0.13,0.05-0.27,0.15-0.42
		l1.28-2c0.13-0.19,0.26-0.29,0.4-0.29c0.12,0,0.26,0.05,0.42,0.15c0.53,0.32,1.13,0.58,1.81,0.76c0.68,0.18,1.35,0.28,1.99,0.28
		c0.54,0,0.94-0.07,1.18-0.22c0.24-0.15,0.36-0.37,0.36-0.68c0-0.34-0.16-0.61-0.48-0.81c-0.32-0.21-0.88-0.46-1.67-0.77
		c-1.48-0.57-2.65-1.22-3.5-1.95c-0.85-0.73-1.28-1.69-1.28-2.89c0-1.53,0.53-2.67,1.59-3.44s2.5-1.15,4.3-1.15
		c1.26,0,2.34,0.11,3.22,0.33c0.89,0.22,1.66,0.56,2.32,1.03c0.29,0.21,0.44,0.4,0.44,0.59c0,0.13-0.05,0.27-0.15,0.42l-1.28,2
		c-0.13,0.21-0.26,0.31-0.4,0.31c-0.09,0-0.23-0.06-0.42-0.18c-0.35-0.23-0.77-0.43-1.25-0.58c-0.48-0.15-1-0.23-1.56-0.23
		c-0.51,0-0.9,0.07-1.17,0.22s-0.4,0.38-0.4,0.7c0,0.26,0.09,0.48,0.27,0.66c0.18,0.18,0.41,0.33,0.69,0.45s0.76,0.33,1.45,0.61
		c1.1,0.44,1.97,0.86,2.6,1.26c0.63,0.4,1.11,0.89,1.43,1.45s0.48,1.28,0.48,2.14c0,1.32-0.5,2.39-1.49,3.2
		c-0.99,0.81-2.47,1.22-4.43,1.22C200.88,301.4,199.64,301.26,198.5,300.98z"/>
	<path class="st1" d="M212.48,300.76c-0.2-0.21-0.3-0.52-0.3-0.95v-9.97h-3.17c-0.47,0-0.79-0.1-0.96-0.3s-0.25-0.52-0.25-0.96
		v-1.23c0-0.44,0.08-0.76,0.25-0.96c0.17-0.2,0.49-0.3,0.96-0.3h11.62c0.47,0,0.79,0.1,0.96,0.3c0.17,0.2,0.25,0.52,0.25,0.96v1.23
		c0,0.44-0.08,0.76-0.25,0.96s-0.49,0.3-0.96,0.3h-3.17v9.97c0,0.43-0.1,0.74-0.3,0.95c-0.2,0.21-0.55,0.31-1.04,0.31h-2.62
		C213.02,301.07,212.68,300.97,212.48,300.76z"/>
	<path class="st1" d="M222.79,300.76c-0.2-0.21-0.3-0.52-0.3-0.95v-12.45c0-0.43,0.1-0.74,0.3-0.95c0.2-0.21,0.54-0.31,1.02-0.31
		h5.26c2.2,0,3.8,0.44,4.81,1.31c1,0.87,1.51,2.19,1.51,3.95c0,1.06-0.18,1.95-0.54,2.67s-0.91,1.29-1.66,1.7l2.05,4.38
		c0.06,0.12,0.09,0.25,0.09,0.4c0,0.16-0.06,0.29-0.17,0.4c-0.11,0.1-0.25,0.15-0.43,0.15h-3.72c-0.23,0-0.42-0.03-0.56-0.1
		c-0.14-0.07-0.24-0.18-0.3-0.34l-1.63-4.09h-0.75v3.28c0,0.43-0.1,0.74-0.3,0.95c-0.2,0.21-0.55,0.31-1.04,0.31h-2.62
		C223.33,301.07,222.99,300.97,222.79,300.76z M228.61,292.86c0.47,0,0.84-0.13,1.11-0.38c0.27-0.25,0.41-0.62,0.41-1.12
		c0-0.51-0.14-0.89-0.41-1.14c-0.27-0.25-0.64-0.37-1.11-0.37h-1.5v3.01H228.61z"/>
	<path class="st1" d="M235.06,300.61c0-0.13,0.04-0.29,0.11-0.48l5.48-13.18c0.13-0.31,0.28-0.53,0.45-0.65
		c0.17-0.12,0.41-0.19,0.71-0.19h2.4c0.31,0,0.55,0.06,0.71,0.19s0.32,0.34,0.45,0.65l5.46,13.18c0.07,0.19,0.11,0.35,0.11,0.48
		c0,0.31-0.16,0.46-0.48,0.46h-4.14c-0.46,0-0.74-0.2-0.86-0.59l-0.53-1.63h-3.89l-0.51,1.63c-0.12,0.4-0.4,0.59-0.86,0.59h-4.14
		C235.22,301.07,235.06,300.92,235.06,300.61z M243.86,295.37l-0.86-2.73l-0.86,2.73H243.86z"/>
	<path class="st1" d="M252.62,299.43c-1.48-1.31-2.22-3.26-2.22-5.84c0-2.6,0.71-4.55,2.15-5.85c1.43-1.3,3.47-1.96,6.13-1.96
		c1.2,0,2.27,0.12,3.21,0.35c0.94,0.23,1.72,0.56,2.35,0.99c0.18,0.13,0.26,0.28,0.26,0.44c0,0.13-0.07,0.32-0.2,0.55l-1.1,1.89
		c-0.12,0.21-0.26,0.31-0.42,0.31c-0.1,0-0.27-0.06-0.51-0.18c-0.41-0.21-0.84-0.37-1.29-0.48c-0.45-0.12-0.97-0.18-1.57-0.18
		c-1.22,0-2.15,0.35-2.79,1.06c-0.65,0.7-0.97,1.72-0.97,3.06c0,1.32,0.35,2.34,1.06,3.05c0.7,0.71,1.66,1.07,2.88,1.07
		c1.06,0,2.02-0.22,2.9-0.66c0.23-0.12,0.4-0.18,0.51-0.18c0.16,0,0.3,0.1,0.42,0.31l1.1,1.89c0.13,0.24,0.2,0.42,0.2,0.55
		c0,0.16-0.09,0.31-0.26,0.44c-0.63,0.43-1.42,0.76-2.38,0.99c-0.95,0.23-2.03,0.35-3.23,0.35
		C256.17,301.4,254.1,300.74,252.62,299.43z"/>
	<path class="st1" d="M266.11,300.76c-0.2-0.21-0.3-0.52-0.3-0.95v-12.45c0-0.43,0.1-0.74,0.3-0.95c0.2-0.21,0.54-0.31,1.02-0.31
		h2.62c0.5,0,0.85,0.1,1.04,0.3c0.2,0.2,0.3,0.52,0.3,0.96v12.45c0,0.43-0.1,0.74-0.3,0.95c-0.2,0.21-0.55,0.31-1.04,0.31h-2.62
		C266.65,301.07,266.31,300.97,266.11,300.76z"/>
	<path class="st1" d="M274.22,299.36c-1.35-1.36-2.02-3.28-2.02-5.77s0.67-4.42,2.02-5.77c1.35-1.36,3.33-2.04,5.94-2.04
		c2.61,0,4.59,0.68,5.94,2.04c1.35,1.36,2.02,3.28,2.02,5.77s-0.67,4.42-2.02,5.77c-1.35,1.36-3.33,2.04-5.94,2.04
		C277.55,301.4,275.57,300.72,274.22,299.36z M282.23,296.68c0.43-0.68,0.64-1.71,0.64-3.09c0-1.39-0.21-2.43-0.64-3.1
		c-0.43-0.67-1.11-1.01-2.07-1.01c-0.95,0-1.64,0.34-2.07,1.01c-0.43,0.68-0.64,1.71-0.64,3.1c0,1.38,0.21,2.41,0.64,3.09
		c0.43,0.68,1.11,1.02,2.07,1.02C281.11,297.7,281.8,297.36,282.23,296.68z M277.83,284.26c0-0.12,0.02-0.24,0.07-0.37l0.92-2.55
		c0.12-0.34,0.26-0.56,0.42-0.68c0.16-0.12,0.46-0.18,0.9-0.18h3.15c0.31,0,0.55,0.05,0.73,0.17c0.18,0.11,0.26,0.27,0.26,0.47
		c0,0.18-0.06,0.36-0.18,0.55l-1.41,2.38c-0.21,0.35-0.4,0.58-0.59,0.68c-0.19,0.1-0.54,0.15-1.03,0.15h-2.35
		C278.12,284.88,277.83,284.67,277.83,284.26z"/>
	<path class="st1" d="M289.52,300.76c-0.2-0.21-0.3-0.52-0.3-0.95v-12.47c0-0.42,0.1-0.74,0.3-0.93c0.2-0.2,0.55-0.3,1.04-0.3h2.09
		c0.31,0,0.55,0.04,0.71,0.12c0.17,0.08,0.33,0.24,0.5,0.47l3.98,5.92v-5.26c0-0.43,0.1-0.74,0.3-0.95c0.2-0.21,0.54-0.31,1.02-0.31
		h2.62c0.5,0,0.85,0.1,1.04,0.3c0.2,0.2,0.3,0.52,0.3,0.96v12.47c0,0.42-0.1,0.74-0.3,0.93c-0.2,0.2-0.55,0.3-1.04,0.3h-2.09
		c-0.31,0-0.55-0.04-0.72-0.12c-0.17-0.08-0.33-0.24-0.49-0.47l-3.98-5.92v5.28c0,0.42-0.1,0.74-0.3,0.93
		c-0.2,0.2-0.55,0.3-1.04,0.3h-2.62C290.06,301.07,289.72,300.97,289.52,300.76z"/>
</g>
<circle class="st1" cx="209" cy="146" r="78"/>
<g>
	<g>
		<polygon class="st2" points="222.09,137.71 182.7,137.71 179.04,132.24 147.43,132.24 159.85,186.13 232.97,186.13 		"/>
		<rect x="159.85" y="146.1" class="st1" width="69.18" height="39.62"/>
		<polygon class="st3" points="232.97,186.13 159.85,186.13 174.76,151.58 247.87,151.58 		"/>
		<polygon class="st2" points="190.07,151.58 190.07,180.69 162.2,180.69 159.85,186.13 232.97,186.13 247.87,151.58 		"/>
	</g>
	<rect x="191.08" y="101.6" class="st4" width="64.34" height="81.41"/>
	<rect x="188.73" y="101.6" class="st1" width="64.34" height="81.41"/>
	<rect x="194" y="138" class="st5" width="16" height="32"/>
	<rect x="213" y="127" class="st6" width="16" height="43"/>
	<rect x="233" y="112" class="st7" width="16" height="58"/>
	<g>
		<path class="st8" d="M263.97,165.42c0-1.88-1.61-3.41-3.58-3.41l-11.61,0.02l-11.62,0.02c-1.97,0-3.58,1.54-3.57,3.42l0.07,27.49
			c0,1.88,1.62,3.41,3.59,3.41l11.61-0.02l11.62-0.02c1.97,0,3.58-1.54,3.57-3.42L263.97,165.42z"/>
		<path class="st9" d="M261.69,165.42c0-1.88-1.61-3.41-3.58-3.41l-11.61,0.02l-11.62,0.02c-1.97,0-3.58,1.54-3.57,3.42l0.07,27.49
			c0,1.88,1.62,3.41,3.59,3.41l11.61-0.02l11.62-0.02c1.97,0,3.58-1.54,3.57-3.42L261.69,165.42z"/>
		<g>
			<path class="st10" d="M258.05,177.08h-2.64c-1.41,0-2.55,1.14-2.55,2.55v8.67v2.35v0.29c0,1.41,1.14,2.55,2.55,2.55h2.64
				c1.41,0,2.55-1.14,2.55-2.55v-0.29v-2.35v-8.67C260.61,178.23,259.46,177.08,258.05,177.08z"/>
			<path class="st10" d="M241.27,182.28c0,1.41-1.14,2.55-2.55,2.55h-2.64c-1.41,0-2.55-1.14-2.55-2.55v-2.64
				c0-1.41,1.14-2.55,2.55-2.55h2.64c1.41,0,2.55,1.14,2.55,2.55V182.28z"/>
			<path class="st10" d="M241.27,190.95c0,1.41-1.14,2.55-2.55,2.55h-2.64c-1.41,0-2.55-1.14-2.55-2.55v-2.64
				c0-1.41,1.14-2.55,2.55-2.55h2.64c1.41,0,2.55,1.14,2.55,2.55V190.95z"/>
			<path class="st10" d="M250.89,182.28c0,1.41-1.14,2.55-2.55,2.55h-2.64c-1.41,0-2.56-1.14-2.56-2.55v-2.64
				c0-1.41,1.14-2.55,2.56-2.55h2.64c1.41,0,2.55,1.14,2.55,2.55V182.28z"/>
			<path class="st10" d="M250.89,190.95c0,1.41-1.14,2.55-2.55,2.55h-2.64c-1.41,0-2.56-1.14-2.56-2.55v-2.64
				c0-1.41,1.14-2.55,2.56-2.55h2.64c1.41,0,2.55,1.14,2.55,2.55V190.95z"/>
		</g>
		<g>
			<path class="st1" d="M257.07,177.08h-2.64c-1.41,0-2.55,1.14-2.55,2.55v8.67v2.35v0.29c0,1.41,1.14,2.55,2.55,2.55h2.64
				c1.41,0,2.56-1.14,2.56-2.55v-0.29v-2.35v-8.67C259.62,178.23,258.48,177.08,257.07,177.08z"/>
			<path class="st1" d="M240.29,182.28c0,1.41-1.14,2.55-2.55,2.55h-2.64c-1.41,0-2.55-1.14-2.55-2.55v-2.64
				c0-1.41,1.14-2.55,2.55-2.55h2.64c1.41,0,2.55,1.14,2.55,2.55V182.28z"/>
			<path class="st1" d="M240.29,190.95c0,1.41-1.14,2.55-2.55,2.55h-2.64c-1.41,0-2.55-1.14-2.55-2.55v-2.64
				c0-1.41,1.14-2.55,2.55-2.55h2.64c1.41,0,2.55,1.14,2.55,2.55V190.95z"/>
			<path class="st1" d="M249.9,182.28c0,1.41-1.14,2.55-2.55,2.55h-2.64c-1.41,0-2.55-1.14-2.55-2.55v-2.64
				c0-1.41,1.14-2.55,2.55-2.55h2.64c1.41,0,2.55,1.14,2.55,2.55V182.28z"/>
			<path class="st1" d="M249.9,190.95c0,1.41-1.14,2.55-2.55,2.55h-2.64c-1.41,0-2.55-1.14-2.55-2.55v-2.64
				c0-1.41,1.14-2.55,2.55-2.55h2.64c1.41,0,2.55,1.14,2.55,2.55V190.95z"/>
		</g>
		<g>
			<path class="st8" d="M233.93,180.16h1.67v-1.69h1.6v1.69h1.7v1.6h-1.7v1.69h-1.6v-1.69h-1.67V180.16z"/>
		</g>
		<g>
			<path class="st8" d="M234.09,190.81l1.18-1.18l-1.19-1.19l1.13-1.13l1.19,1.19l1.2-1.2l1.13,1.13l-1.2,1.2l1.19,1.19l-1.13,1.13
				l-1.19-1.19l-1.18,1.18L234.09,190.81z"/>
		</g>
		<g>
			<path class="st8" d="M243.62,180.16h4.82v1.6h-4.82V180.16z"/>
		</g>
		<g>
			<path class="st11" d="M253.57,183.51h4.34v1.36h-4.34V183.51z M253.57,185.71h4.34v1.36h-4.34V185.71z"/>
		</g>
		<g>
			<g>
				<path class="st8" d="M243.62,188.83h4.82v1.6h-4.82V188.83z"/>
			</g>
			<g>
				<path class="st8" d="M246.77,187.5c0-0.41-0.33-0.74-0.74-0.74c-0.41,0-0.74,0.33-0.74,0.74c0,0.41,0.33,0.74,0.74,0.74
					C246.44,188.25,246.77,187.91,246.77,187.5z"/>
				<path class="st8" d="M246.77,191.75c0-0.41-0.33-0.74-0.74-0.74c-0.41,0-0.74,0.33-0.74,0.74c0,0.41,0.33,0.74,0.74,0.74
					C246.44,192.49,246.77,192.16,246.77,191.75z"/>
			</g>
		</g>
		<path class="st12" d="M260.08,170.12c0,1.43-1.16,2.59-2.59,2.59h-21.92c-1.43,0-2.59-1.16-2.59-2.59v-3.15
			c0-1.43,1.16-2.59,2.59-2.59h21.92c1.43,0,2.59,1.16,2.59,2.59V170.12z"/>
		<g>
			<path class="st1" d="M246.93,170.42h1.88c0.44,0,0.42-0.24,0.42-0.38v-0.22c0-0.24-0.07-0.38-0.34-0.38h-0.31
				c-0.23,0-0.31,0.1-0.31,0.32h-1.33l0.16-3.31h3.3v1.24h-1.95l-0.03,0.73c0.19-0.11,0.37-0.14,0.46-0.14
				c0.19-0.01,0.45-0.01,0.54,0c0.83,0.07,1.2,0.64,1.2,1.4v0.67c0,0.98-0.75,1.35-1.45,1.35c-0.88,0-1.28-0.01-2.24-0.17V170.42z"
				/>
			<path class="st1" d="M252.33,166.44c0.71-0.11,1.7,0.01,2.37,0.15v1.06h-1.56c-0.65,0-0.65,0.39-0.65,0.91
				c0.26-0.14,0.49-0.15,1.09-0.15c1.04,0,1.29,0.57,1.29,1.35v0.65c0,0.93-0.53,1.28-1.36,1.28h-0.98c-0.87,0-1.42-0.5-1.42-2.74
				C251.1,167.04,251.7,166.54,252.33,166.44z M253.06,170.43h0.12c0.23,0,0.31-0.06,0.31-0.33v-0.14c0-0.31-0.01-0.39-0.27-0.39
				h-0.73C252.49,170.33,252.59,170.43,253.06,170.43z"/>
			<path class="st1" d="M255.22,166.45h3.43l0.33,0.56l-1.63,4.66h-1.47l1.41-3.98h-2.07V166.45z"/>
		</g>
		<path class="st13" d="M259.69,165.62c-0.47-0.45-1.09-0.73-1.8-0.73h-21.92c-1.43,0-2.59,1.16-2.59,2.59v3.15
			c0,0.5,0.14,0.97,0.38,1.36c-0.48-0.47-0.79-1.13-0.79-1.86v-3.15c0-1.43,1.16-2.59,2.59-2.59h21.92
			C258.42,164.38,259.23,164.87,259.69,165.62z"/>
		<g class="st14">
			<path class="st15" d="M239.21,164.39l-6.18,6.18c0.11,0.64,0.45,1.19,0.94,1.58l7.76-7.76H239.21z"/>
			<polygon class="st15" points="244.7,164.39 236.37,172.72 246.6,172.72 254.93,164.39 			"/>
		</g>
	</g>
</g>
<g>
</g>
<g>
</g>
<g>
</g>
<g>
</g>
<g>
</g>
<g>
</g>
<g>
</g>
<g>
</g>
<g>
</g>
<g>
</g>
<g>
</g>
<g>
</g>
<g>
</g>
<g>
</g>
<g>
</g>
</svg>
