<?xml version="1.0" encoding="utf-8"?>
<!-- Generator: Adobe Illustrator 23.0.0, SVG Export Plug-In . SVG Version: 6.00 Build 0)  -->
<svg version="1.1" id="Capa_1" xmlns="http://www.w3.org/2000/svg" xmlns:xlink="http://www.w3.org/1999/xlink" x="0px" y="0px"
	 viewBox="0 0 400 400" style="enable-background:new 0 0 400 400;" xml:space="preserve">
<style type="text/css">
	.st0{fill:#0085B0;}
	.st1{fill:#FFFFFF;}
	.st2{fill:#F2F2F2;}
	.st3{fill:none;}
	.st4{fill:#F7DDCB;}
	.st5{fill:#9BAEC9;}
	.st6{fill:#9D2B3B;}
	.st7{fill:#C1D4F2;}
	.st8{fill:#FFE6D4;}
	.st9{fill:#534D46;}
	.st10{fill:#191819;}
	.st11{fill:#222123;}
</style>
<g>
	<circle class="st0" cx="207.5" cy="192.5" r="154.5"/>
</g>
<g>
	<path class="st1" d="M111.1,252.4c-2-1.8-3-4.4-3-8c0-3.5,1-6.2,2.9-8s4.7-2.7,8.3-2.7c1.6,0,3.1,0.2,4.4,0.5
		c1.3,0.3,2.3,0.8,3.2,1.4c0.2,0.2,0.4,0.4,0.4,0.6c0,0.2-0.1,0.4-0.3,0.8l-1.5,2.6c-0.2,0.3-0.3,0.4-0.6,0.4
		c-0.1,0-0.4-0.1-0.7-0.2c-0.6-0.3-1.2-0.5-1.8-0.7c-0.6-0.2-1.3-0.2-2.2-0.2c-1.7,0-2.9,0.5-3.8,1.4s-1.3,2.4-1.3,4.2
		c0,1.8,0.5,3.2,1.4,4.2s2.3,1.5,3.9,1.5c1.4,0,2.8-0.3,4-0.9c0.3-0.2,0.6-0.2,0.7-0.2c0.2,0,0.4,0.1,0.6,0.4l1.5,2.6
		c0.2,0.3,0.3,0.6,0.3,0.8c0,0.2-0.1,0.4-0.4,0.6c-0.9,0.6-1.9,1-3.2,1.4c-1.3,0.3-2.8,0.5-4.4,0.5
		C115.9,255,113.1,254.1,111.1,252.4z"/>
	<path class="st1" d="M129.9,252.3c-1.8-1.9-2.8-4.5-2.8-7.9c0-3.4,0.9-6,2.8-7.9c1.8-1.9,4.5-2.8,8.1-2.8c3.6,0,6.3,0.9,8.1,2.8
		c1.8,1.9,2.8,4.5,2.8,7.9c0,3.4-0.9,6-2.8,7.9s-4.5,2.8-8.1,2.8C134.4,255,131.7,254.1,129.9,252.3z M140.8,248.6
		c0.6-0.9,0.9-2.3,0.9-4.2c0-1.9-0.3-3.3-0.9-4.2s-1.5-1.4-2.8-1.4s-2.2,0.5-2.8,1.4s-0.9,2.3-0.9,4.2c0,1.9,0.3,3.3,0.9,4.2
		c0.6,0.9,1.5,1.4,2.8,1.4S140.2,249.5,140.8,248.6z"/>
	<path class="st1" d="M150.8,254.2c-0.3-0.3-0.4-0.7-0.4-1.3v-17c0-0.6,0.1-1,0.4-1.3s0.7-0.4,1.4-0.4h2.9c0.4,0,0.7,0.1,1,0.2
		c0.2,0.1,0.4,0.3,0.7,0.6l5.4,8.1v-7.2c0-0.6,0.1-1,0.4-1.3c0.3-0.3,0.7-0.4,1.4-0.4h3.6c0.7,0,1.1,0.1,1.4,0.4s0.4,0.7,0.4,1.3v17
		c0,0.6-0.1,1-0.4,1.3c-0.3,0.3-0.8,0.4-1.4,0.4h-2.9c-0.4,0-0.8-0.1-1-0.2c-0.2-0.1-0.5-0.3-0.7-0.6l-5.4-8.1v7.2
		c0,0.6-0.1,1-0.4,1.3c-0.3,0.3-0.8,0.4-1.4,0.4h-3.6C151.5,254.6,151,254.4,150.8,254.2z"/>
	<path class="st1" d="M175.2,254.5c-1.6-0.4-2.8-0.9-3.8-1.6c-0.4-0.3-0.6-0.6-0.6-0.8c0-0.2,0.1-0.4,0.2-0.6l1.7-2.7
		c0.2-0.3,0.4-0.4,0.5-0.4c0.2,0,0.4,0.1,0.6,0.2c0.7,0.4,1.5,0.8,2.5,1c0.9,0.3,1.8,0.4,2.7,0.4c0.7,0,1.3-0.1,1.6-0.3
		s0.5-0.5,0.5-0.9c0-0.5-0.2-0.8-0.7-1.1s-1.2-0.6-2.3-1.1c-2-0.8-3.6-1.7-4.8-2.6c-1.2-1-1.7-2.3-1.7-3.9c0-2.1,0.7-3.6,2.2-4.7
		c1.4-1.1,3.4-1.6,5.9-1.6c1.7,0,3.2,0.1,4.4,0.4c1.2,0.3,2.3,0.8,3.2,1.4c0.4,0.3,0.6,0.6,0.6,0.8c0,0.2-0.1,0.4-0.2,0.6l-1.7,2.7
		c-0.2,0.3-0.4,0.4-0.5,0.4c-0.1,0-0.3-0.1-0.6-0.2c-0.5-0.3-1.1-0.6-1.7-0.8s-1.4-0.3-2.1-0.3c-0.7,0-1.2,0.1-1.6,0.3
		s-0.5,0.5-0.5,1c0,0.4,0.1,0.7,0.4,0.9s0.6,0.4,0.9,0.6c0.4,0.2,1,0.4,2,0.8c1.5,0.6,2.7,1.2,3.5,1.7c0.9,0.6,1.5,1.2,1.9,2
		c0.4,0.8,0.7,1.8,0.7,2.9c0,1.8-0.7,3.3-2,4.4c-1.4,1.1-3.4,1.7-6,1.7C178.5,255,176.8,254.9,175.2,254.5z"/>
	<path class="st1" d="M194.4,254.1c-1.5-0.6-2.6-1.5-3.4-2.7c-0.8-1.2-1.2-2.6-1.2-4.3v-11.2c0-0.6,0.1-1,0.4-1.3s0.7-0.4,1.4-0.4
		h3.6c0.7,0,1.1,0.1,1.4,0.4s0.4,0.7,0.4,1.3v11.3c0,0.9,0.2,1.6,0.7,2.1c0.5,0.5,1.1,0.7,1.9,0.7c0.8,0,1.5-0.2,1.9-0.7
		c0.5-0.5,0.7-1.2,0.7-2.1v-11.3c0-0.6,0.1-1,0.4-1.3s0.7-0.4,1.4-0.4h3.6c0.7,0,1.1,0.1,1.4,0.4s0.4,0.7,0.4,1.3v11.2
		c0,1.6-0.4,3.1-1.2,4.3c-0.8,1.2-2,2.1-3.4,2.7s-3.2,0.9-5.2,0.9C197.6,255,195.9,254.7,194.4,254.1z"/>
	<path class="st1" d="M211.8,254.2c-0.3-0.3-0.4-0.7-0.4-1.3v-17c0-0.6,0.1-1,0.4-1.3s0.7-0.4,1.4-0.4h3.6c0.7,0,1.2,0.1,1.4,0.4
		s0.4,0.7,0.4,1.3v13.6h7c0.6,0,1.1,0.1,1.3,0.4c0.2,0.3,0.4,0.7,0.4,1.3v1.7c0,0.6-0.1,1-0.4,1.3c-0.2,0.3-0.7,0.4-1.3,0.4h-12.4
		C212.5,254.6,212,254.4,211.8,254.2z"/>
	<path class="st1" d="M229.2,254.2c-0.3-0.3-0.4-0.7-0.4-1.3v-13.6h-4.3c-0.6,0-1.1-0.1-1.3-0.4s-0.3-0.7-0.3-1.3v-1.7
		c0-0.6,0.1-1,0.3-1.3c0.2-0.3,0.7-0.4,1.3-0.4h15.8c0.6,0,1.1,0.1,1.3,0.4c0.2,0.3,0.4,0.7,0.4,1.3v1.7c0,0.6-0.1,1-0.4,1.3
		c-0.2,0.3-0.7,0.4-1.3,0.4H236v13.6c0,0.6-0.1,1-0.4,1.3c-0.3,0.3-0.8,0.4-1.4,0.4h-3.6C229.9,254.6,229.5,254.4,229.2,254.2z"/>
	<path class="st1" d="M243.7,252.3c-1.8-1.9-2.8-4.5-2.8-7.9c0-3.4,0.9-6,2.8-7.9c1.8-1.9,4.5-2.8,8.1-2.8c3.6,0,6.3,0.9,8.1,2.8
		s2.8,4.5,2.8,7.9c0,3.4-0.9,6-2.8,7.9s-4.5,2.8-8.1,2.8S245.5,254.1,243.7,252.3z M254.6,248.6c0.6-0.9,0.9-2.3,0.9-4.2
		c0-1.9-0.3-3.3-0.9-4.2s-1.5-1.4-2.8-1.4s-2.2,0.5-2.8,1.4s-0.9,2.3-0.9,4.2c0,1.9,0.3,3.3,0.9,4.2c0.6,0.9,1.5,1.4,2.8,1.4
		S254,249.5,254.6,248.6z"/>
	<path class="st1" d="M264.6,254.2c-0.3-0.3-0.4-0.7-0.4-1.3v-17c0-0.6,0.1-1,0.4-1.3s0.7-0.4,1.4-0.4h7.2c3,0,5.2,0.6,6.6,1.8
		c1.4,1.2,2,3,2,5.4c0,1.4-0.3,2.7-0.7,3.6c-0.5,1-1.3,1.8-2.3,2.3l2.8,6c0.1,0.2,0.1,0.3,0.1,0.5c0,0.2-0.1,0.4-0.2,0.5
		s-0.3,0.2-0.6,0.2h-5.1c-0.3,0-0.6,0-0.8-0.1c-0.2-0.1-0.3-0.3-0.4-0.5l-2.2-5.6h-1v4.5c0,0.6-0.1,1-0.4,1.3s-0.8,0.4-1.4,0.4H266
		C265.3,254.6,264.8,254.4,264.6,254.2z M272.5,243.4c0.6,0,1.1-0.2,1.5-0.5s0.6-0.9,0.6-1.5c0-0.7-0.2-1.2-0.6-1.6
		s-0.9-0.5-1.5-0.5h-2v4.1L272.5,243.4L272.5,243.4z"/>
	<path class="st1" d="M283.6,254.2c-0.3-0.3-0.4-0.7-0.4-1.3v-17c0-0.6,0.1-1,0.4-1.3s0.7-0.4,1.4-0.4h3.6c0.7,0,1.2,0.1,1.4,0.4
		s0.4,0.7,0.4,1.3v17c0,0.6-0.1,1-0.4,1.3s-0.8,0.4-1.4,0.4H285C284.4,254.6,283.9,254.4,283.6,254.2z"/>
	<path class="st1" d="M291.9,254c0-0.2,0-0.4,0.1-0.7l7.5-18c0.2-0.4,0.4-0.7,0.6-0.9c0.2-0.2,0.6-0.3,1-0.3h3.3
		c0.4,0,0.7,0.1,1,0.3s0.4,0.5,0.6,0.9l7.4,18c0.1,0.3,0.1,0.5,0.1,0.7c0,0.4-0.2,0.6-0.7,0.6h-5.6c-0.6,0-1-0.3-1.2-0.8l-0.7-2.2
		h-5.3l-0.7,2.2c-0.2,0.5-0.5,0.8-1.2,0.8h-5.6C292.1,254.6,291.9,254.4,291.9,254z M303.9,246.8l-1.2-3.7l-1.2,3.7H303.9z"/>
</g>
<g>
	<circle id="XMLID_8234_" class="st2" cx="208" cy="139.6" r="77.4"/>
	<g id="XMLID_7856_">
		<path id="XMLID_7872_" class="st3" d="M228,159.3c0.2,0.1,0.3,0.3,0.4,0.4C228.3,159.6,228.2,159.4,228,159.3z"/>
		<path id="XMLID_7871_" class="st3" d="M189.6,159.2c-0.2,0.1-0.5,0.3-0.7,0.7C189.1,159.7,189.3,159.5,189.6,159.2z"/>
		<path id="XMLID_7870_" class="st4" d="M208.6,167.9c0.1,0.1,0.1,0.1,0.1,0.2c0-0.1,0.1-0.1,0.1-0.2c9.2-7.1,12.8-11.8,14.4-13
			c-1.1-2.4-1.6-4.7-1.7-6.6c-0.2,0.2-0.4,0.4-0.6,0.5c-1.1,1-2.3,1.9-3.6,2.6c-1.1,0.6-2.2,1.2-3.4,1.5c-1.1,0.4-2.2,0.6-3.3,0.7
			c-1.4,0.1-2.9,0.1-4.3-0.1c-1.1-0.2-2.3-0.5-3.4-0.9c-1.2-0.5-2.4-1.1-3.4-1.8c-1.3-0.9-2.5-1.9-3.6-2.9c0,0,0,0,0,0
			c-0.1,2-0.6,4.6-1.8,7.1C195.9,156.2,199.5,160.9,208.6,167.9z"/>
		<path id="XMLID_7869_" class="st5" d="M205.7,181c-1.2-2.8-2.6-4.4-2.8-6.7c-1.3,1.4-2.2,2.9-2.1,4.3c0.4,3.9-11.1-9.3-12.6-16
			c-0.1,1.2-0.2,3.9,3.4,9.2c1.8,2.6,6.5,16.2,11.2,30.8c1.5-9.8,2.9-18.8,3.3-21.1C206,181.4,205.8,181.2,205.7,181z"/>
		<path id="XMLID_7868_" class="st5" d="M211.8,181c-0.1,0.2-0.3,0.4-0.5,0.5c0.4,2.4,1.9,11.8,3.4,21.9c4-13.6,8.9-28.4,11.1-31.6
			c3.5-5.1,3.5-7.8,3.4-9.1c-1.6,6.8-12.9,19.8-12.5,15.9c0.1-1.4-0.8-2.9-2.1-4.3C214.4,176.6,213,178.2,211.8,181z"/>
		<path id="XMLID_7867_" class="st5" d="M227.2,175.7l0.1,0.1c0,0,0-0.1,0-0.1C227.3,175.7,227.2,175.7,227.2,175.7z"/>
		<path id="XMLID_7866_" class="st6" d="M214.7,203.4c-1.5-10.1-3-19.5-3.4-21.9c0.2-0.1,0.4-0.3,0.5-0.5c1.2-2.8,2.6-4.4,2.8-6.7
			c-2.2-2.5-5.5-4.8-5.8-5.9c-0.3,1.1-3.6,3.4-5.8,5.9c0.1,2.3,1.5,3.9,2.8,6.7c0.1,0.2,0.3,0.4,0.5,0.5c-0.4,2.4-1.9,11.3-3.3,21.1
			c1.5,4.8,3.1,9.7,4.5,14.3c0.3,0,0.6,0,0.9,0c0.9,0,1.8,0,2.7-0.1C212,213,213.3,208.3,214.7,203.4z"/>
		<path id="XMLID_7865_" class="st7" d="M189.6,159.2c-0.3,0.3-0.5,0.5-0.7,0.7c-0.3,0.4-0.6,1.1-0.5,2.1c0,0.1,0,0.3-0.1,0.6
			c1.4,6.7,12.9,20,12.6,16c-0.1-1.4,0.8-2.9,2.1-4.3c2.2-2.5,5.5-4.8,5.8-5.9c0.3,1.1,3.6,3.4,5.8,5.9c1.3,1.4,2.2,2.9,2.1,4.3
			c-0.4,3.9,10.9-9.1,12.5-15.9c0-0.4-0.1-0.6-0.1-0.8c0.1-1.1-0.3-1.8-0.6-2.3c-0.1-0.1-0.3-0.3-0.4-0.4c-0.2-0.1-0.4-0.2-0.4-0.2
			s0.1,0,0.1,0c-0.9-0.9-2.2-2.3-3.4-4.3c-0.2-0.4-0.5-0.3-1.1,0.1c-1.6,1.3-5.2,6-14.4,13c-0.1,0.1-0.1,0.1-0.1,0.2
			c0-0.1-0.1-0.1-0.1-0.2c-9.1-7-12.8-11.7-14.4-13c-0.6-0.4-0.9-0.5-1.1-0.1c-1.2,2-2.4,3.4-3.4,4.3c0,0,0.1,0,0.1,0
			S189.7,159.1,189.6,159.2z"/>
		<path id="XMLID_7864_" class="st8" d="M199.6,150.7c1.1,0.7,2.2,1.4,3.4,1.8c1.1,0.4,2.2,0.7,3.4,0.9c1.4,0.2,2.8,0.3,4.3,0.1
			c1.1-0.1,2.3-0.3,3.3-0.7c1.2-0.4,2.3-0.9,3.4-1.5c1.3-0.7,2.4-1.6,3.6-2.6c0.2-0.2,0.4-0.4,0.6-0.5c0.2-0.1,0.3-0.3,0.5-0.4
			c4.7-4.6,4.7-16.1,5.9-15.3c2.6,1.8,4.3-3.5,4.6-6.6c0.3-2.7-0.7-4-1.8-3.5c-0.3,0.7-0.7,1.2-1.1,1.4c0,0-1.6,6.8-2.3,6.5
			c-0.7-0.2-0.4-6.3,0.7-13.5c1.2-7.6-8.2-4.3-14.7-4.5c-6.6-0.2-21.7-1.5-22.9,2.1c-1.2,3.6,1.1,14.5,0.2,14.9s-2.1-4.9-3-6
			c-0.1-0.2-0.3-0.6-0.5-1.1c-0.9-0.1-1.7,1.3-1.4,3.6c0.3,3.1,2,8.3,4.6,6.6c1.1-0.8,1.1,10.7,5.8,15.3c0,0,0,0,0,0
			C197.1,148.9,198.4,149.9,199.6,150.7z"/>
		<path id="XMLID_7863_" class="st9" d="M190.5,129.4c0.9-0.4-1.4-11.3-0.2-14.9c1.2-3.6,16.3-2.3,22.9-2.1s15.9-3.1,14.7,4.5
			c-1.1,7.2-1.4,13.2-0.7,13.5s2.3-6.6,2.3-6.6c0.5-0.3,0.8-0.8,1.1-1.4c1.8-4.1,1-14.5,1-16.3c0-2.1-3.3-5.7-4.7-5.7
			c-1.4,0-0.2-5.9-9.8-8.5s-18-1.3-22.7,1.1c-4.7,2.3-8.2,6.3-10.3,7c-2.1,0.6,0.7,2.1-0.9,3.6c-1.6,1.5,1.2,3.4,1.6,6.3
			c0.4,2.5,1.3,9.6,2.1,12.4c0.2,0.6,0.3,0.9,0.5,1.1C188.4,124.4,189.6,129.8,190.5,129.4z"/>
		<path id="XMLID_7862_" class="st10" d="M235.9,165.7c2.3,4.1,2.4,6.6,4.1,7.9c1.5,1.1-11.2,2.1-12.6,2.1c0,0,0,0.1,0,0.1l8.9,6.7
			c0,0-7.8,10.6-11.9,16.7c-1.5,2.2-5.1,8.4-7.1,12c-0.6,1-1.7,3.1-3,5.5c12.1-0.9,23.4-4.6,33.3-10.5c1.3-15.2,4.8-35.7,11.7-34.6
			c-2.7-1.2-10.3-2.7-15.5-4.8c-4.5-1.8-8-4.1-10.2-4.1C234.4,163.6,235.2,164.5,235.9,165.7z"/>
		<path id="XMLID_7861_" d="M228,159.3c0.1,0.1,0.3,0.2,0.4,0.4c0.4,0.4,0.7,1.2,0.6,2.3c0,0.1,0,0.4,0.1,0.8
			c0.1,1.3,0.1,3.9-3.4,9.1c-2.2,3.3-7.1,18-11.1,31.6c-1.4,4.9-2.7,9.6-3.7,13.5c1.1,0,2.2-0.1,3.2-0.2c1.3-2.4,2.4-4.5,3-5.5
			c2-3.6,5.7-9.8,7.1-12c4.1-6.2,11.9-16.7,11.9-16.7l-8.9-6.7l-0.1-0.1c0,0,0.1,0,0.1,0c1.4-0.1,14.1-1,12.6-2.1
			c-1.6-1.2-1.8-3.7-4.1-7.9c-0.6-1.2-1.5-2.1-2.4-2.9c-1.1-1.1-2.3-1.8-2.9-2.3c-1.6-1.4-2.6-1.5-2.9-1.4c-0.1,0-0.1,0-0.1,0
			S227.8,159.2,228,159.3z"/>
		<path id="XMLID_7860_" class="st11" d="M171,207.4c9.6,5.3,20.3,8.5,31.8,9.3c-1.2-2.8-2.2-4.9-2.6-5.6c-2-3.6-5.7-9.8-7.1-12
			c-4.1-6.2-11.9-16.7-11.9-16.7l9-6.8c0,0-14.3-0.9-12.7-2.1c1.6-1.2,1.8-3.7,4.1-7.9c0.7-1.2,1.6-2.2,2.4-3
			c-2.2,0.6-5.2,2.4-8.8,3.9c-5.7,2.3-14.4,3.9-16.2,5.1C166.2,170,169.8,192,171,207.4z"/>
		<path id="XMLID_7859_" d="M181.6,165.7c-2.3,4.1-2.4,6.6-4.1,7.9s12.7,2.1,12.7,2.1l-9,6.8c0,0,7.8,10.6,11.9,16.7
			c1.5,2.2,5.1,8.4,7.1,12c0.4,0.6,1.3,2.8,2.6,5.6c1.5,0.1,3,0.2,4.6,0.2c-1.4-4.7-2.9-9.6-4.5-14.3c-4.7-14.6-9.4-28.2-11.2-30.8
			c-3.6-5.3-3.5-8-3.4-9.2c0-0.3,0.1-0.5,0.1-0.6c-0.1-1,0.2-1.6,0.5-2.1c0.3-0.4,0.6-0.6,0.7-0.7c0.1-0.1,0.2-0.1,0.2-0.1
			s0,0-0.1,0c-0.3,0-1.2,0-2.9,1.4c-0.6,0.5-1.7,1.2-2.8,2.2C183.1,163.5,182.2,164.5,181.6,165.7z"/>
		<path id="XMLID_7858_" d="M171,207.4c-1.2-15.5-4.8-37.4-12-35.7c-0.3,0.1-0.6,0.2-0.9,0.3c-1.6,0.8-3.3,9.4-5.4,21.4
			C158.1,199,164.2,203.7,171,207.4z"/>
		<path id="XMLID_7857_" d="M247.6,206.3c6.7-3.9,12.7-8.8,17.9-14.5c-2-11.1-3.5-18.9-5.1-19.7c-0.4-0.2-0.8-0.3-1.1-0.4
			C252.4,170.5,248.8,191.1,247.6,206.3z"/>
	</g>
</g>
<g>
	<path class="st1" d="M100,285.4c-0.4-0.4-0.5-0.9-0.5-1.7v-22.6c0-0.8,0.2-1.3,0.5-1.7s1-0.6,1.9-0.6h9.6c4,0,6.9,0.8,8.7,2.4
		c1.8,1.6,2.7,4,2.7,7.2c0,3.2-0.9,5.6-2.7,7.2c-1.8,1.6-4.7,2.4-8.7,2.4h-2.4v5.8c0,0.8-0.2,1.3-0.5,1.7c-0.4,0.4-1,0.6-1.9,0.6
		h-4.8C101,286,100.4,285.8,100,285.4z M110.6,271.1c0.9,0,1.5-0.2,2-0.7c0.5-0.5,0.7-1.1,0.7-2c0-0.9-0.2-1.6-0.7-2.1
		c-0.5-0.5-1.2-0.7-2-0.7h-2.7v5.5H110.6z"/>
	<path class="st1" d="M126,282.9c-2.5-2.5-3.7-6-3.7-10.5s1.2-8,3.7-10.5c2.5-2.5,6.1-3.7,10.8-3.7c4.7,0,8.3,1.2,10.8,3.7
		s3.7,6,3.7,10.5s-1.2,8-3.7,10.5s-6.1,3.7-10.8,3.7C132,286.6,128.4,285.4,126,282.9z M140.5,278c0.8-1.2,1.2-3.1,1.2-5.6
		c0-2.5-0.4-4.4-1.2-5.6c-0.8-1.2-2-1.8-3.8-1.8c-1.7,0-3,0.6-3.8,1.8c-0.8,1.2-1.2,3.1-1.2,5.6c0,2.5,0.4,4.4,1.2,5.6
		c0.8,1.2,2,1.9,3.8,1.9C138.5,279.9,139.8,279.3,140.5,278z"/>
	<path class="st1" d="M156.5,285.8c-2.1-0.5-3.8-1.2-5-2.1c-0.5-0.4-0.8-0.7-0.8-1.1c0-0.2,0.1-0.5,0.3-0.8l2.3-3.6
		c0.2-0.3,0.5-0.5,0.7-0.5c0.2,0,0.5,0.1,0.8,0.3c1,0.6,2.1,1,3.3,1.4c1.2,0.3,2.4,0.5,3.6,0.5c1,0,1.7-0.1,2.1-0.4
		c0.4-0.3,0.7-0.7,0.7-1.2c0-0.6-0.3-1.1-0.9-1.5c-0.6-0.4-1.6-0.8-3-1.4c-2.7-1-4.8-2.2-6.4-3.5c-1.5-1.3-2.3-3.1-2.3-5.3
		c0-2.8,1-4.9,2.9-6.3c1.9-1.4,4.5-2.1,7.8-2.1c2.3,0,4.2,0.2,5.9,0.6c1.6,0.4,3,1,4.2,1.9c0.5,0.4,0.8,0.7,0.8,1.1
		c0,0.2-0.1,0.5-0.3,0.8l-2.3,3.6c-0.2,0.4-0.5,0.6-0.7,0.6c-0.2,0-0.4-0.1-0.8-0.3c-0.6-0.4-1.4-0.8-2.3-1.1s-1.8-0.4-2.8-0.4
		c-0.9,0-1.6,0.1-2.1,0.4c-0.5,0.3-0.7,0.7-0.7,1.3c0,0.5,0.2,0.9,0.5,1.2c0.3,0.3,0.8,0.6,1.3,0.8c0.5,0.2,1.4,0.6,2.6,1.1
		c2,0.8,3.6,1.6,4.7,2.3c1.1,0.7,2,1.6,2.6,2.6c0.6,1,0.9,2.3,0.9,3.9c0,2.4-0.9,4.3-2.7,5.8c-1.8,1.5-4.5,2.2-8.1,2.2
		C160.9,286.6,158.6,286.3,156.5,285.8z"/>
	<path class="st1" d="M182,285.4c-0.4-0.4-0.5-0.9-0.5-1.7v-18.1h-5.8c-0.9,0-1.4-0.2-1.7-0.5c-0.3-0.4-0.5-0.9-0.5-1.7v-2.2
		c0-0.8,0.2-1.4,0.5-1.7c0.3-0.4,0.9-0.5,1.7-0.5h21.1c0.9,0,1.4,0.2,1.7,0.5c0.3,0.4,0.5,0.9,0.5,1.7v2.2c0,0.8-0.2,1.4-0.5,1.7
		c-0.3,0.4-0.9,0.5-1.7,0.5H191v18.1c0,0.8-0.2,1.3-0.5,1.7c-0.4,0.4-1,0.6-1.9,0.6h-4.8C182.9,286,182.3,285.8,182,285.4z"/>
	<path class="st1" d="M209.9,285.7c-0.3-0.2-0.6-0.6-0.8-1.2l-9.6-24c-0.1-0.3-0.2-0.6-0.2-0.9c0-0.6,0.3-0.8,0.9-0.8h7.5
		c0.8,0,1.3,0.4,1.6,1.1l4.1,13l4.1-13c0.2-0.7,0.7-1.1,1.6-1.1h7.5c0.6,0,0.9,0.3,0.9,0.8c0,0.2-0.1,0.5-0.2,0.9l-9.5,24
		c-0.2,0.6-0.5,1-0.8,1.2s-0.8,0.3-1.3,0.3h-4.4C210.7,286,210.2,285.9,209.9,285.7z"/>
	<path class="st1" d="M230,285.4c-0.4-0.4-0.5-0.9-0.5-1.7v-22.6c0-0.8,0.2-1.3,0.5-1.7c0.4-0.4,1-0.6,1.9-0.6h16.6
		c0.9,0,1.4,0.2,1.7,0.5c0.3,0.4,0.5,0.9,0.5,1.7v2.2c0,0.8-0.2,1.4-0.5,1.7c-0.3,0.4-0.9,0.5-1.7,0.5h-9.4v3.4h5.8
		c0.9,0,1.4,0.2,1.7,0.5s0.5,0.9,0.5,1.7v2.2c0,0.8-0.2,1.4-0.5,1.7c-0.3,0.4-0.9,0.5-1.7,0.5h-5.8v3.4h9.3c0.9,0,1.4,0.2,1.7,0.5
		c0.3,0.4,0.5,0.9,0.5,1.7v2.2c0,0.8-0.2,1.4-0.5,1.7s-0.9,0.5-1.7,0.5h-16.5C231,286,230.4,285.8,230,285.4z"/>
	<path class="st1" d="M253,285.4c-0.4-0.4-0.5-0.9-0.5-1.7V261c0-0.8,0.2-1.3,0.5-1.7c0.4-0.4,1-0.5,1.9-0.5h3.8
		c0.6,0,1,0.1,1.3,0.2c0.3,0.1,0.6,0.4,0.9,0.9l7.2,10.8v-9.6c0-0.8,0.2-1.3,0.5-1.7s1-0.6,1.9-0.6h4.8c0.9,0,1.5,0.2,1.9,0.5
		c0.4,0.4,0.5,0.9,0.5,1.7v22.7c0,0.8-0.2,1.3-0.5,1.7c-0.4,0.4-1,0.5-1.9,0.5h-3.8c-0.6,0-1-0.1-1.3-0.2s-0.6-0.4-0.9-0.9
		l-7.2-10.8v9.6c0,0.8-0.2,1.3-0.5,1.7s-1,0.5-1.9,0.5h-4.8C253.9,286,253.3,285.8,253,285.4z"/>
	<path class="st1" d="M287.4,285.4c-0.4-0.4-0.5-0.9-0.5-1.7v-18.1h-5.8c-0.9,0-1.4-0.2-1.7-0.5c-0.3-0.4-0.5-0.9-0.5-1.7v-2.2
		c0-0.8,0.2-1.4,0.5-1.7c0.3-0.4,0.9-0.5,1.7-0.5h21.1c0.9,0,1.4,0.2,1.7,0.5c0.3,0.4,0.5,0.9,0.5,1.7v2.2c0,0.8-0.2,1.4-0.5,1.7
		c-0.3,0.4-0.9,0.5-1.7,0.5h-5.8v18.1c0,0.8-0.2,1.3-0.5,1.7c-0.4,0.4-1,0.6-1.9,0.6h-4.8C288.4,286,287.8,285.8,287.4,285.4z"/>
	<path class="st1" d="M299.8,285.2c0-0.2,0.1-0.5,0.2-0.9l10-24c0.2-0.6,0.5-1,0.8-1.2c0.3-0.2,0.7-0.3,1.3-0.3h4.4
		c0.6,0,1,0.1,1.3,0.3c0.3,0.2,0.6,0.6,0.8,1.2l9.9,24c0.1,0.3,0.2,0.6,0.2,0.9c0,0.6-0.3,0.8-0.9,0.8h-7.5c-0.8,0-1.3-0.4-1.6-1.1
		l-1-3h-7.1l-0.9,3c-0.2,0.7-0.7,1.1-1.6,1.1h-7.5C300.1,286,299.8,285.7,299.8,285.2z M315.8,275.6l-1.6-5l-1.6,5H315.8z"/>
</g>
</svg>
