<?xml version="1.0" encoding="utf-8"?>
<!-- Generator: Adobe Illustrator 23.0.0, SVG Export Plug-In . SVG Version: 6.00 Build 0)  -->
<svg version="1.1" id="Capa_1" xmlns="http://www.w3.org/2000/svg" xmlns:xlink="http://www.w3.org/1999/xlink" x="0px" y="0px"
	 viewBox="0 0 400 400" style="enable-background:new 0 0 400 400;" xml:space="preserve">
<style type="text/css">
	.st0{fill:#0085B0;}
	.st1{fill:#FFFFFF;}
	.st2{fill:none;stroke:#FFFFFF;stroke-width:11;stroke-miterlimit:10;}
	.st3{fill-rule:evenodd;clip-rule:evenodd;fill:#E51F1F;}
	.st4{fill-rule:evenodd;clip-rule:evenodd;fill:#0EDB26;}
	.st5{fill:none;stroke:#0085B0;stroke-width:7;stroke-miterlimit:10;}
</style>
<g>
	<circle class="st0" cx="207.5" cy="192.5" r="154.5"/>
</g>
<g>
	<path class="st1" d="M104.9,262.17c-0.27-0.28-0.41-0.71-0.41-1.29V243.9c0-0.58,0.14-1.01,0.41-1.29c0.27-0.28,0.73-0.42,1.4-0.42
		h12.42c0.64,0,1.07,0.13,1.31,0.41c0.23,0.27,0.34,0.71,0.34,1.31v1.68c0,0.6-0.12,1.04-0.34,1.3c-0.23,0.27-0.67,0.41-1.31,0.41
		h-7.02v2.58h4.32c0.64,0,1.08,0.14,1.31,0.41c0.23,0.27,0.35,0.71,0.35,1.3v1.62c0,0.6-0.12,1.03-0.35,1.3
		c-0.23,0.27-0.67,0.41-1.31,0.41h-4.32v2.58h6.99c0.64,0,1.07,0.13,1.3,0.4c0.23,0.27,0.35,0.71,0.35,1.31v1.68
		c0,0.6-0.12,1.04-0.35,1.3c-0.23,0.27-0.67,0.41-1.3,0.41h-12.39C105.63,262.59,105.17,262.45,104.9,262.17z"/>
	<path class="st1" d="M122.12,262.17c-0.27-0.28-0.41-0.71-0.41-1.29v-17.01c0-0.58,0.14-1,0.41-1.27s0.74-0.41,1.42-0.41h2.85
		c0.42,0,0.74,0.06,0.98,0.17c0.23,0.11,0.45,0.32,0.67,0.64l5.43,8.07v-7.17c0-0.58,0.13-1.01,0.4-1.29
		c0.27-0.28,0.74-0.42,1.4-0.42h3.57c0.68,0,1.15,0.13,1.42,0.41s0.4,0.71,0.4,1.31v17.01c0,0.58-0.13,1-0.4,1.27
		c-0.27,0.27-0.75,0.41-1.42,0.41h-2.85c-0.42,0-0.75-0.05-0.98-0.17c-0.23-0.11-0.46-0.33-0.67-0.64l-5.43-8.07v7.2
		c0,0.58-0.13,1-0.4,1.27c-0.27,0.27-0.75,0.41-1.43,0.41h-3.57C122.85,262.59,122.39,262.45,122.12,262.17z"/>
	<path class="st1" d="M145.2,260.35c-2.02-1.79-3.03-4.44-3.03-7.96c0-3.54,0.97-6.2,2.92-7.98c1.95-1.78,4.73-2.67,8.35-2.67
		c1.64,0,3.1,0.16,4.38,0.48c1.28,0.32,2.35,0.77,3.21,1.35c0.24,0.18,0.36,0.38,0.36,0.6c0,0.18-0.09,0.43-0.27,0.75l-1.5,2.58
		c-0.16,0.28-0.35,0.42-0.57,0.42c-0.14,0-0.37-0.08-0.69-0.24c-0.56-0.28-1.15-0.5-1.75-0.66c-0.61-0.16-1.33-0.24-2.15-0.24
		c-1.66,0-2.93,0.48-3.81,1.44c-0.88,0.96-1.32,2.35-1.32,4.17c0,1.8,0.48,3.19,1.44,4.16c0.96,0.97,2.27,1.46,3.93,1.46
		c1.44,0,2.76-0.3,3.96-0.9c0.32-0.16,0.55-0.24,0.69-0.24c0.22,0,0.41,0.14,0.57,0.42l1.5,2.58c0.18,0.32,0.27,0.57,0.27,0.75
		c0,0.22-0.12,0.42-0.36,0.6c-0.86,0.58-1.94,1.03-3.24,1.35c-1.3,0.32-2.77,0.48-4.41,0.48
		C150.05,263.04,147.22,262.14,145.2,260.35z"/>
	<path class="st1" d="M167.73,262.09c-1.48-0.63-2.63-1.54-3.45-2.73c-0.82-1.19-1.23-2.61-1.23-4.25V243.9
		c0-0.58,0.14-1.01,0.41-1.29c0.27-0.28,0.73-0.42,1.4-0.42h3.57c0.68,0,1.15,0.13,1.42,0.41s0.41,0.71,0.41,1.31v11.31
		c0,0.94,0.23,1.64,0.71,2.1c0.47,0.46,1.11,0.69,1.94,0.69c0.82,0,1.46-0.23,1.93-0.69c0.47-0.46,0.71-1.16,0.71-2.1V243.9
		c0-0.58,0.14-1.01,0.41-1.29c0.27-0.28,0.73-0.42,1.4-0.42h3.57c0.68,0,1.15,0.13,1.42,0.41s0.41,0.71,0.41,1.31v11.22
		c0,1.64-0.41,3.05-1.23,4.25c-0.82,1.19-1.97,2.1-3.45,2.73s-3.2,0.95-5.16,0.95C170.93,263.04,169.21,262.72,167.73,262.09z"/>
	<path class="st1" d="M185.09,262.17c-0.27-0.28-0.41-0.71-0.41-1.29V243.9c0-0.58,0.14-1.01,0.41-1.29
		c0.27-0.28,0.73-0.42,1.4-0.42h12.42c0.64,0,1.07,0.13,1.31,0.41c0.23,0.27,0.34,0.71,0.34,1.31v1.68c0,0.6-0.12,1.04-0.34,1.3
		c-0.23,0.27-0.67,0.41-1.31,0.41h-7.02v2.58h4.32c0.64,0,1.08,0.14,1.31,0.41c0.23,0.27,0.35,0.71,0.35,1.3v1.62
		c0,0.6-0.12,1.03-0.35,1.3c-0.23,0.27-0.67,0.41-1.31,0.41h-4.32v2.58h6.99c0.64,0,1.07,0.13,1.3,0.4
		c0.23,0.27,0.35,0.71,0.35,1.31v1.68c0,0.6-0.12,1.04-0.35,1.3c-0.23,0.27-0.67,0.41-1.3,0.41h-12.39
		C185.82,262.59,185.36,262.45,185.09,262.17z"/>
	<path class="st1" d="M205.71,262.47c-1.56-0.38-2.82-0.91-3.78-1.59c-0.4-0.28-0.6-0.55-0.6-0.81c0-0.18,0.07-0.37,0.21-0.57
		l1.74-2.73c0.18-0.26,0.36-0.39,0.54-0.39c0.16,0,0.35,0.07,0.57,0.21c0.72,0.44,1.54,0.79,2.48,1.04
		c0.93,0.25,1.83,0.38,2.71,0.38c0.74,0,1.27-0.1,1.6-0.3s0.5-0.51,0.5-0.93c0-0.46-0.22-0.83-0.66-1.11s-1.2-0.63-2.28-1.05
		c-2.02-0.78-3.61-1.66-4.77-2.65c-1.16-0.99-1.74-2.3-1.74-3.95c0-2.08,0.72-3.64,2.18-4.7c1.45-1.05,3.4-1.57,5.86-1.57
		c1.72,0,3.18,0.15,4.4,0.45c1.21,0.3,2.27,0.77,3.17,1.41c0.4,0.28,0.6,0.55,0.6,0.81c0,0.18-0.07,0.37-0.21,0.57l-1.74,2.73
		c-0.18,0.28-0.36,0.42-0.54,0.42c-0.12,0-0.31-0.08-0.57-0.24c-0.48-0.32-1.05-0.58-1.71-0.79s-1.37-0.32-2.13-0.32
		c-0.7,0-1.23,0.1-1.59,0.3c-0.36,0.2-0.54,0.52-0.54,0.96c0,0.36,0.13,0.66,0.38,0.9s0.56,0.45,0.95,0.62
		c0.38,0.17,1.04,0.45,1.98,0.83c1.5,0.6,2.68,1.17,3.54,1.73c0.86,0.55,1.51,1.21,1.95,1.98c0.44,0.77,0.66,1.75,0.66,2.92
		c0,1.8-0.67,3.25-2.02,4.37c-1.35,1.11-3.37,1.67-6.04,1.67C208.96,263.04,207.27,262.85,205.71,262.47z"/>
	<path class="st1" d="M224.78,262.17c-0.27-0.28-0.41-0.71-0.41-1.29v-13.59h-4.32c-0.64,0-1.08-0.14-1.31-0.41
		c-0.23-0.27-0.34-0.71-0.34-1.3v-1.68c0-0.6,0.12-1.04,0.34-1.31c0.23-0.27,0.67-0.41,1.31-0.41h15.84c0.64,0,1.08,0.13,1.31,0.41
		c0.23,0.27,0.35,0.71,0.35,1.31v1.68c0,0.6-0.12,1.04-0.35,1.3c-0.23,0.27-0.67,0.41-1.31,0.41h-4.32v13.59
		c0,0.58-0.14,1.01-0.4,1.29c-0.27,0.28-0.75,0.42-1.43,0.42h-3.57C225.51,262.59,225.05,262.45,224.78,262.17z"/>
	<path class="st1" d="M234.09,261.96c0-0.18,0.05-0.4,0.15-0.66l7.47-17.97c0.18-0.42,0.39-0.71,0.62-0.88
		c0.23-0.17,0.56-0.26,0.98-0.26h3.27c0.42,0,0.74,0.09,0.97,0.26s0.44,0.46,0.62,0.88l7.44,17.97c0.1,0.26,0.15,0.48,0.15,0.66
		c0,0.42-0.22,0.63-0.66,0.63h-5.64c-0.62,0-1.01-0.27-1.17-0.81l-0.72-2.22h-5.31l-0.69,2.22c-0.16,0.54-0.55,0.81-1.17,0.81h-5.64
		C234.31,262.59,234.09,262.38,234.09,261.96z M246.09,254.82l-1.17-3.72l-1.17,3.72H246.09z"/>
	<path class="st1" d="M266.66,262.17c-0.27-0.28-0.41-0.71-0.41-1.29V243.9c0-0.58,0.14-1.01,0.41-1.29
		c0.27-0.28,0.73-0.42,1.4-0.42h6.9c7.06,0,10.59,3.4,10.59,10.2c0,3.36-0.9,5.9-2.71,7.62c-1.81,1.72-4.44,2.58-7.88,2.58h-6.9
		C267.39,262.59,266.93,262.45,266.66,262.17z M275.22,257.49c1.12,0,1.92-0.37,2.42-1.11c0.49-0.74,0.73-2.07,0.73-3.99
		s-0.25-3.25-0.73-3.99c-0.49-0.74-1.3-1.11-2.42-1.11h-1.77v10.2H275.22z"/>
	<path class="st1" d="M287.45,262.17c-0.27-0.28-0.41-0.71-0.41-1.29V243.9c0-0.58,0.14-1.01,0.41-1.29
		c0.27-0.28,0.73-0.42,1.4-0.42h12.42c0.64,0,1.07,0.13,1.31,0.41c0.23,0.27,0.34,0.71,0.34,1.31v1.68c0,0.6-0.12,1.04-0.34,1.3
		c-0.23,0.27-0.67,0.41-1.31,0.41h-7.02v2.58h4.32c0.64,0,1.08,0.14,1.31,0.41c0.23,0.27,0.35,0.71,0.35,1.3v1.62
		c0,0.6-0.12,1.03-0.35,1.3c-0.23,0.27-0.67,0.41-1.31,0.41h-4.32v2.58h6.99c0.64,0,1.07,0.13,1.3,0.4
		c0.23,0.27,0.35,0.71,0.35,1.31v1.68c0,0.6-0.12,1.04-0.35,1.3c-0.23,0.27-0.67,0.41-1.3,0.41h-12.39
		C288.18,262.59,287.72,262.45,287.45,262.17z"/>
</g>
<g>
	<path class="st1" d="M103.73,288.95c-1.56-0.38-2.82-0.91-3.78-1.59c-0.4-0.28-0.6-0.55-0.6-0.81c0-0.18,0.07-0.37,0.21-0.57
		l1.74-2.73c0.18-0.26,0.36-0.39,0.54-0.39c0.16,0,0.35,0.07,0.57,0.21c0.72,0.44,1.54,0.79,2.48,1.04
		c0.93,0.25,1.83,0.38,2.71,0.38c0.74,0,1.27-0.1,1.6-0.3s0.5-0.51,0.5-0.93c0-0.46-0.22-0.83-0.66-1.11
		c-0.44-0.28-1.2-0.63-2.28-1.05c-2.02-0.78-3.61-1.67-4.77-2.66c-1.16-0.99-1.74-2.3-1.74-3.95c0-2.08,0.72-3.64,2.18-4.69
		c1.45-1.05,3.4-1.58,5.86-1.58c1.72,0,3.18,0.15,4.4,0.45c1.21,0.3,2.27,0.77,3.17,1.41c0.4,0.28,0.6,0.55,0.6,0.81
		c0,0.18-0.07,0.37-0.21,0.57l-1.74,2.73c-0.18,0.28-0.36,0.42-0.54,0.42c-0.12,0-0.31-0.08-0.57-0.24
		c-0.48-0.32-1.05-0.59-1.71-0.79c-0.66-0.21-1.37-0.32-2.13-0.32c-0.7,0-1.23,0.1-1.59,0.3c-0.36,0.2-0.54,0.52-0.54,0.96
		c0,0.36,0.13,0.66,0.38,0.9c0.25,0.24,0.56,0.45,0.95,0.61c0.38,0.17,1.04,0.45,1.98,0.83c1.5,0.6,2.68,1.17,3.54,1.72
		c0.86,0.55,1.51,1.21,1.95,1.98c0.44,0.77,0.66,1.74,0.66,2.92c0,1.8-0.67,3.26-2.02,4.37c-1.35,1.11-3.37,1.67-6.04,1.67
		C106.98,289.52,105.29,289.33,103.73,288.95z"/>
	<path class="st1" d="M116.42,288.44c0-0.18,0.05-0.4,0.15-0.66l7.47-17.97c0.18-0.42,0.39-0.71,0.62-0.88
		c0.23-0.17,0.56-0.25,0.98-0.25h3.27c0.42,0,0.74,0.08,0.97,0.25s0.44,0.46,0.62,0.88l7.44,17.97c0.1,0.26,0.15,0.48,0.15,0.66
		c0,0.42-0.22,0.63-0.66,0.63h-5.64c-0.62,0-1.01-0.27-1.17-0.81l-0.72-2.22h-5.31l-0.69,2.22c-0.16,0.54-0.55,0.81-1.17,0.81h-5.64
		C116.64,289.07,116.42,288.86,116.42,288.44z M128.42,281.3l-1.17-3.72l-1.17,3.72H128.42z"/>
	<path class="st1" d="M141,288.65c-0.27-0.28-0.41-0.71-0.41-1.29v-13.59h-4.32c-0.64,0-1.08-0.14-1.31-0.41
		c-0.23-0.27-0.34-0.71-0.34-1.3v-1.68c0-0.6,0.12-1.04,0.34-1.3c0.23-0.27,0.67-0.41,1.31-0.41h15.84c0.64,0,1.08,0.13,1.31,0.41
		c0.23,0.27,0.35,0.71,0.35,1.3v1.68c0,0.6-0.12,1.04-0.35,1.3c-0.23,0.27-0.67,0.41-1.31,0.41h-4.32v13.59
		c0,0.58-0.14,1.01-0.4,1.29c-0.27,0.28-0.75,0.42-1.43,0.42h-3.57C141.74,289.07,141.27,288.93,141,288.65z"/>
	<path class="st1" d="M155.07,288.65c-0.27-0.28-0.41-0.71-0.41-1.29v-16.98c0-0.58,0.14-1.01,0.41-1.29s0.73-0.42,1.4-0.42h3.57
		c0.68,0,1.16,0.13,1.43,0.41c0.27,0.27,0.4,0.71,0.4,1.3v16.98c0,0.58-0.13,1.01-0.4,1.29c-0.27,0.28-0.75,0.42-1.43,0.42h-3.57
		C155.81,289.07,155.34,288.93,155.07,288.65z"/>
	<path class="st1" d="M167.78,288.95c-1.56-0.38-2.82-0.91-3.78-1.59c-0.4-0.28-0.6-0.55-0.6-0.81c0-0.18,0.07-0.37,0.21-0.57
		l1.74-2.73c0.18-0.26,0.36-0.39,0.54-0.39c0.16,0,0.35,0.07,0.57,0.21c0.72,0.44,1.54,0.79,2.48,1.04
		c0.93,0.25,1.83,0.38,2.71,0.38c0.74,0,1.27-0.1,1.6-0.3s0.5-0.51,0.5-0.93c0-0.46-0.22-0.83-0.66-1.11
		c-0.44-0.28-1.2-0.63-2.28-1.05c-2.02-0.78-3.61-1.67-4.77-2.66c-1.16-0.99-1.74-2.3-1.74-3.95c0-2.08,0.72-3.64,2.18-4.69
		c1.45-1.05,3.4-1.58,5.86-1.58c1.72,0,3.18,0.15,4.4,0.45c1.21,0.3,2.27,0.77,3.17,1.41c0.4,0.28,0.6,0.55,0.6,0.81
		c0,0.18-0.07,0.37-0.21,0.57l-1.74,2.73c-0.18,0.28-0.36,0.42-0.54,0.42c-0.12,0-0.31-0.08-0.57-0.24
		c-0.48-0.32-1.05-0.59-1.71-0.79c-0.66-0.21-1.37-0.32-2.13-0.32c-0.7,0-1.23,0.1-1.59,0.3c-0.36,0.2-0.54,0.52-0.54,0.96
		c0,0.36,0.13,0.66,0.38,0.9c0.25,0.24,0.56,0.45,0.95,0.61c0.38,0.17,1.04,0.45,1.98,0.83c1.5,0.6,2.68,1.17,3.54,1.72
		c0.86,0.55,1.51,1.21,1.95,1.98c0.44,0.77,0.66,1.74,0.66,2.92c0,1.8-0.67,3.26-2.02,4.37c-1.35,1.11-3.37,1.67-6.04,1.67
		C171.03,289.52,169.34,289.33,167.78,288.95z"/>
	<path class="st1" d="M182.82,288.65c-0.27-0.28-0.41-0.71-0.41-1.29v-16.98c0-0.58,0.14-1.01,0.41-1.29s0.73-0.42,1.4-0.42h12.42
		c0.64,0,1.07,0.13,1.31,0.41c0.23,0.27,0.34,0.71,0.34,1.3v1.68c0,0.6-0.12,1.04-0.34,1.3c-0.23,0.27-0.67,0.41-1.31,0.41h-7.02
		v2.55h4.32c0.64,0,1.08,0.13,1.31,0.41c0.23,0.27,0.35,0.71,0.35,1.31v1.68c0,0.6-0.12,1.04-0.35,1.3
		c-0.23,0.27-0.67,0.41-1.31,0.41h-4.32v5.94c0,0.58-0.13,1.01-0.4,1.29c-0.27,0.28-0.75,0.42-1.43,0.42h-3.57
		C183.56,289.07,183.09,288.93,182.82,288.65z"/>
	<path class="st1" d="M194.69,288.44c0-0.18,0.05-0.4,0.15-0.66l7.47-17.97c0.18-0.42,0.39-0.71,0.62-0.88
		c0.23-0.17,0.56-0.25,0.98-0.25h3.27c0.42,0,0.74,0.08,0.97,0.25s0.44,0.46,0.62,0.88l7.44,17.97c0.1,0.26,0.15,0.48,0.15,0.66
		c0,0.42-0.22,0.63-0.66,0.63h-5.64c-0.62,0-1.01-0.27-1.17-0.81l-0.72-2.22h-5.31l-0.69,2.22c-0.16,0.54-0.55,0.81-1.17,0.81h-5.64
		C194.91,289.07,194.69,288.86,194.69,288.44z M206.69,281.3l-1.17-3.72l-1.17,3.72H206.69z"/>
	<path class="st1" d="M218.63,286.83c-2.02-1.79-3.03-4.45-3.03-7.96c0-3.54,0.97-6.2,2.92-7.98c1.95-1.78,4.73-2.67,8.35-2.67
		c1.64,0,3.1,0.16,4.38,0.48s2.35,0.77,3.21,1.35c0.24,0.18,0.36,0.38,0.36,0.6c0,0.18-0.09,0.43-0.27,0.75l-1.5,2.58
		c-0.16,0.28-0.35,0.42-0.57,0.42c-0.14,0-0.37-0.08-0.69-0.24c-0.56-0.28-1.15-0.5-1.75-0.66c-0.61-0.16-1.33-0.24-2.15-0.24
		c-1.66,0-2.93,0.48-3.81,1.44c-0.88,0.96-1.32,2.35-1.32,4.17c0,1.8,0.48,3.19,1.44,4.15c0.96,0.97,2.27,1.46,3.93,1.46
		c1.44,0,2.76-0.3,3.96-0.9c0.32-0.16,0.55-0.24,0.69-0.24c0.22,0,0.41,0.14,0.57,0.42l1.5,2.58c0.18,0.32,0.27,0.57,0.27,0.75
		c0,0.22-0.12,0.42-0.36,0.6c-0.86,0.58-1.94,1.03-3.24,1.35c-1.3,0.32-2.77,0.48-4.41,0.48
		C223.48,289.52,220.65,288.62,218.63,286.83z"/>
	<path class="st1" d="M238.31,286.83c-2.02-1.79-3.03-4.45-3.03-7.96c0-3.54,0.97-6.2,2.92-7.98c1.95-1.78,4.73-2.67,8.35-2.67
		c1.64,0,3.1,0.16,4.38,0.48s2.35,0.77,3.21,1.35c0.24,0.18,0.36,0.38,0.36,0.6c0,0.18-0.09,0.43-0.27,0.75l-1.5,2.58
		c-0.16,0.28-0.35,0.42-0.57,0.42c-0.14,0-0.37-0.08-0.69-0.24c-0.56-0.28-1.15-0.5-1.75-0.66c-0.61-0.16-1.33-0.24-2.15-0.24
		c-1.66,0-2.93,0.48-3.81,1.44c-0.88,0.96-1.32,2.35-1.32,4.17c0,1.8,0.48,3.19,1.44,4.15c0.96,0.97,2.27,1.46,3.93,1.46
		c1.44,0,2.76-0.3,3.96-0.9c0.32-0.16,0.55-0.24,0.69-0.24c0.22,0,0.41,0.14,0.57,0.42l1.5,2.58c0.18,0.32,0.27,0.57,0.27,0.75
		c0,0.22-0.12,0.42-0.36,0.6c-0.86,0.58-1.94,1.03-3.24,1.35c-1.3,0.32-2.77,0.48-4.41,0.48
		C243.16,289.52,240.33,288.62,238.31,286.83z"/>
	<path class="st1" d="M256.71,288.65c-0.27-0.28-0.41-0.71-0.41-1.29v-16.98c0-0.58,0.14-1.01,0.41-1.29s0.73-0.42,1.4-0.42h3.57
		c0.68,0,1.16,0.13,1.43,0.41c0.27,0.27,0.4,0.71,0.4,1.3v16.98c0,0.58-0.13,1.01-0.4,1.29c-0.27,0.28-0.75,0.42-1.43,0.42h-3.57
		C257.45,289.07,256.98,288.93,256.71,288.65z"/>
	<path class="st1" d="M267.77,286.74c-1.84-1.85-2.76-4.47-2.76-7.88s0.92-6.03,2.76-7.88c1.84-1.85,4.54-2.78,8.1-2.78
		c3.56,0,6.26,0.93,8.1,2.78c1.84,1.85,2.76,4.47,2.76,7.88s-0.92,6.03-2.76,7.88c-1.84,1.85-4.54,2.78-8.1,2.78
		C272.31,289.52,269.61,288.59,267.77,286.74z M278.69,283.08c0.58-0.93,0.87-2.33,0.87-4.21c0-1.9-0.29-3.31-0.87-4.23
		s-1.52-1.38-2.82-1.38c-1.3,0-2.24,0.46-2.82,1.38c-0.58,0.92-0.87,2.33-0.87,4.23c0,1.88,0.29,3.29,0.87,4.21
		c0.58,0.93,1.52,1.39,2.82,1.39C277.17,284.48,278.11,284.01,278.69,283.08z M272.69,266.15c0-0.16,0.03-0.33,0.09-0.51l1.26-3.48
		c0.16-0.46,0.35-0.77,0.57-0.93s0.63-0.24,1.23-0.24h4.29c0.42,0,0.75,0.08,0.99,0.23c0.24,0.15,0.36,0.37,0.36,0.65
		c0,0.24-0.08,0.49-0.24,0.75l-1.92,3.24c-0.28,0.48-0.55,0.79-0.81,0.93c-0.26,0.14-0.73,0.21-1.41,0.21h-3.21
		C273.09,266.99,272.69,266.71,272.69,266.15z"/>
	<path class="st1" d="M288.63,288.65c-0.27-0.28-0.41-0.71-0.41-1.29v-17.01c0-0.58,0.14-1,0.41-1.27c0.27-0.27,0.74-0.41,1.42-0.41
		h2.85c0.42,0,0.74,0.06,0.98,0.17c0.23,0.11,0.45,0.33,0.67,0.64l5.43,8.07v-7.17c0-0.58,0.13-1.01,0.4-1.29s0.74-0.42,1.4-0.42
		h3.57c0.68,0,1.15,0.13,1.42,0.41c0.27,0.27,0.4,0.71,0.4,1.3v17.01c0,0.58-0.13,1.01-0.4,1.28s-0.75,0.4-1.42,0.4h-2.85
		c-0.42,0-0.75-0.05-0.98-0.16c-0.23-0.11-0.46-0.33-0.67-0.65l-5.43-8.07v7.2c0,0.58-0.13,1.01-0.4,1.28s-0.75,0.4-1.43,0.4h-3.57
		C289.37,289.07,288.9,288.93,288.63,288.65z"/>
</g>
<circle class="st1" cx="207.5" cy="140.5" r="91.5"/>
<path class="st2" d="M153.39,106.2c0,0,13.87,21.3,28.23,0"/>
<path class="st3" d="M237.04,159.42H223.6c-3.45,0-6.28-2.83-6.28-6.28l0,0c0-2.54,1.53-4.74,3.71-5.73
	c-1.21-1.11-1.97-2.71-1.97-4.47l0,0c0-2.1,1.08-3.97,2.72-5.06c-1.39-1.12-2.29-2.83-2.29-4.74l0,0c0-2.1,1.08-3.97,2.72-5.06
	c-1.39-1.12-2.29-2.83-2.29-4.74v0c0-3.34,2.73-6.07,6.07-6.07h16.55l0.41-0.09l16.16,0.69l1.46,2.24l-0.25,36.05
	c0,0.05-6.35,6.14-10.55,10.28c-3.27,3.23-7.46,15.48-7.52,15.49c-10.3,1.34-9.03-14.63-5.85-20.72
	C236.7,160.66,236.9,160.04,237.04,159.42L237.04,159.42z M277.32,159.63H267c-1.7,0-3.1-1.39-3.1-3.1v-35.44
	c0-1.7,1.39-3.1,3.1-3.1h10.32c1.7,0,3.1,1.39,3.1,3.1v35.44C280.42,158.23,279.02,159.63,277.32,159.63z"/>
<path class="st4" d="M177.7,119.76h13.44c3.45,0,6.28,2.83,6.28,6.28l0,0c0,2.54-1.53,4.74-3.71,5.73c1.21,1.11,1.97,2.71,1.97,4.47
	l0,0c0,2.1-1.08,3.97-2.72,5.06c1.39,1.12,2.29,2.83,2.29,4.74l0,0c0,2.1-1.08,3.97-2.72,5.06c1.39,1.12,2.29,2.83,2.29,4.74v0
	c0,3.34-2.73,6.07-6.07,6.07H172.2l-0.41,0.09l-16.16-0.69l-1.46-2.24l0.25-36.05c0-0.05,6.35-6.14,10.55-10.28
	c3.27-3.23,7.46-15.48,7.52-15.49c10.3-1.34,9.03,14.63,5.85,20.72C178.04,118.52,177.84,119.14,177.7,119.76L177.7,119.76z
	 M137.42,119.55h10.32c1.7,0,3.1,1.39,3.1,3.1v35.44c0,1.7-1.39,3.1-3.1,3.1h-10.32c-1.7,0-3.1-1.39-3.1-3.1v-35.44
	C134.32,120.95,135.71,119.55,137.42,119.55z"/>
<line class="st5" x1="219" y1="59" x2="194" y2="221"/>
<g>
</g>
<g>
</g>
<g>
</g>
<g>
</g>
<g>
</g>
<g>
</g>
<g>
</g>
<g>
</g>
<g>
</g>
<g>
</g>
<g>
</g>
<g>
</g>
<g>
</g>
<g>
</g>
<g>
</g>
</svg>
