<?xml version="1.0" encoding="utf-8"?>
<!-- Generator: Adobe Illustrator 23.0.0, SVG Export Plug-In . SVG Version: 6.00 Build 0)  -->
<svg version="1.1" id="Capa_1" xmlns="http://www.w3.org/2000/svg" xmlns:xlink="http://www.w3.org/1999/xlink" x="0px" y="0px"
	 viewBox="0 0 500 500" style="enable-background:new 0 0 500 500;" xml:space="preserve">
<style type="text/css">
	.st0{fill:#0C2D44;}
	.st1{fill:#2C83AF;}
	.st2{fill:#FFFFFF;}
	.st3{fill:#00791D;}
	.st4{fill:#00D13C;}
	.st5{fill:#F2F2F2;}
	.st6{fill:#727272;}
	.st7{fill:#A3A3A3;}
	.st8{fill:#BCBCBC;}
	.st9{fill:none;}
	.st10{fill:#866A5E;}
	.st11{fill:#F7DDCB;}
	.st12{fill:#FFE6D4;}
	.st13{fill:#2D2D2D;}
	.st14{fill:#1C1B1A;}
	.st15{fill:#F5F5F5;}
	.st16{fill:#77181C;}
	.st17{fill:#EAEAEA;}
	.st18{fill:#262525;}
	.st19{fill:#11100F;}
	.st20{fill:#CCCDCE;}
	.st21{fill:#DFDFDF;}
	.st22{fill:#C2C2C2;}
	.st23{fill:#0085B0;}
	.st24{fill:#2A5936;}
	.st25{fill:#CD7054;}
	.st26{fill:#F1CC4B;}
	.st27{fill:#22272F;}
	.st28{fill:#1B2538;}
	.st29{fill:#253452;}
	.st30{fill:#F9F9F9;}
	.st31{fill:#2D3543;}
	.st32{fill:#2A3D60;}
	.st33{fill:#ACACAC;}
	.st34{fill:#6C92D5;}
	.st35{fill:#587955;}
	.st36{fill:#DAA449;}
	.st37{fill:#D4D4D4;}
	.st38{fill:#85B681;}
	.st39{fill:#A1DC9B;}
	.st40{fill:#90C58B;}
	.st41{fill:#81C378;}
	.st42{opacity:0.5;}
	.st43{fill:#A2CADE;}
	.st44{fill:#9BAEC9;}
	.st45{fill:#9D2B3B;}
	.st46{fill:#C1D4F2;}
	.st47{fill:#534D46;}
	.st48{fill:#191819;}
	.st49{fill:#222123;}
	.st50{fill:#F3FF00;}
	.st51{fill:none;stroke:#5A605A;stroke-width:4;stroke-miterlimit:10;}
	.st52{fill:#505050;}
	.st53{fill:#FFB412;}
	.st54{fill:#53C2C9;}
	.st55{fill:#008B9C;}
	.st56{fill:none;stroke:#00550B;stroke-width:4;stroke-miterlimit:10;}
</style>
<g>
	<g>
		<g>
			<circle class="st3" cx="268.5" cy="143.1" r="112"/>
			<circle class="st3" cx="157" cy="298.1" r="111.9"/>
			<circle class="st3" cx="342" cy="338.4" r="112"/>
		</g>
	</g>
	<g>
		<circle class="st4" cx="264.4" cy="267.1" r="161.6"/>
	</g>
	<g>
		<g>
			<circle id="XMLID_125_" class="st5" cx="260.9" cy="204.6" r="72.4"/>
			<g id="XMLID_108_">
				<path id="XMLID_124_" class="st9" d="M279.6,223c0.1,0.1,0.3,0.3,0.4,0.4C279.9,223.2,279.8,223.1,279.6,223z"/>
				<path id="XMLID_123_" class="st9" d="M243.7,222.9c-0.2,0.1-0.4,0.3-0.7,0.7C243.2,223.4,243.4,223.1,243.7,222.9z"/>
				<path id="XMLID_122_" class="st11" d="M261.5,231c0.1,0.1,0.1,0.1,0.1,0.2c0-0.1,0.1-0.1,0.1-0.2c8.6-6.6,12-11,13.5-12.2
					c-1-2.2-1.5-4.4-1.6-6.2c-0.2,0.2-0.4,0.3-0.5,0.5c-1,0.9-2.1,1.7-3.3,2.4c-1,0.6-2.1,1.1-3.2,1.4c-1,0.3-2.1,0.5-3.1,0.6
					c-1.3,0.1-2.7,0.1-4-0.1c-1.1-0.2-2.1-0.5-3.1-0.9c-1.1-0.4-2.2-1-3.2-1.7c-1.2-0.8-2.3-1.7-3.4-2.7c0,0,0,0,0,0
					c-0.1,1.9-0.6,4.3-1.7,6.7C249.6,220.1,252.9,224.5,261.5,231z"/>
				<path id="XMLID_121_" class="st44" d="M258.8,243.3c-1.2-2.6-2.5-4.1-2.6-6.3c-1.2,1.3-2.1,2.7-1.9,4c0.3,3.7-10.4-8.7-11.8-15
					c-0.1,1.1-0.2,3.6,3.2,8.6c1.7,2.5,6.1,15.2,10.5,28.8c1.4-9.2,2.7-17.5,3.1-19.8C259,243.6,258.9,243.5,258.8,243.3z"/>
				<path id="XMLID_120_" class="st44" d="M264.4,243.3c-0.1,0.2-0.3,0.3-0.5,0.5c0.4,2.3,1.8,11,3.2,20.5
					c3.7-12.7,8.3-26.5,10.3-29.5c3.2-4.8,3.3-7.3,3.2-8.5c-1.5,6.3-12.1,18.5-11.7,14.8c0.1-1.3-0.8-2.7-1.9-4
					C266.9,239.2,265.6,240.7,264.4,243.3z"/>
				<path id="XMLID_119_" class="st44" d="M278.9,238.3L278.9,238.3c0.1,0,0.1,0,0.1,0C278.9,238.3,278.9,238.3,278.9,238.3z"/>
				<path id="XMLID_118_" class="st45" d="M267.2,264.2c-1.4-9.5-2.8-18.2-3.2-20.5c0.2-0.1,0.4-0.3,0.5-0.5
					c1.2-2.6,2.5-4.1,2.6-6.3c-2.1-2.3-5.1-4.5-5.4-5.5c-0.3,1.1-3.4,3.2-5.4,5.5c0.1,2.2,1.4,3.6,2.6,6.3c0.1,0.2,0.3,0.3,0.5,0.5
					c-0.4,2.2-1.7,10.6-3.1,19.8c1.4,4.5,2.9,9.1,4.2,13.4c0.3,0,0.6,0,0.8,0c0.9,0,1.7,0,2.6-0.1
					C264.7,273.2,265.9,268.8,267.2,264.2z"/>
				<path id="XMLID_117_" class="st46" d="M243.7,222.9c-0.3,0.3-0.5,0.5-0.7,0.7c-0.3,0.4-0.5,1-0.5,2c0,0.1,0,0.3-0.1,0.5
					c1.3,6.3,12.1,18.7,11.8,15c-0.1-1.3,0.8-2.7,1.9-4c2.1-2.3,5.1-4.5,5.4-5.5c0.3,1.1,3.4,3.2,5.4,5.5c1.2,1.3,2.1,2.7,1.9,4
					c-0.3,3.7,10.2-8.5,11.7-14.8c0-0.3-0.1-0.6-0.1-0.7c0.1-1-0.3-1.7-0.6-2.1c-0.1-0.1-0.3-0.3-0.4-0.4c-0.2-0.1-0.3-0.2-0.3-0.2
					s0,0,0.1,0c-0.9-0.9-2-2.1-3.2-4c-0.2-0.4-0.5-0.3-1,0.1c-1.5,1.2-4.9,5.6-13.5,12.2c-0.1,0.1-0.1,0.1-0.1,0.2
					c0-0.1-0.1-0.1-0.1-0.2c-8.5-6.5-11.9-10.9-13.5-12.1c-0.5-0.4-0.8-0.5-1-0.1c-1.1,1.9-2.3,3.1-3.2,4c0,0,0.1,0,0.1,0
					S243.8,222.8,243.7,222.9z"/>
				<path id="XMLID_116_" class="st12" d="M253.1,215c1,0.7,2.1,1.3,3.2,1.7c1,0.4,2.1,0.7,3.1,0.9c1.3,0.2,2.7,0.2,4,0.1
					c1.1-0.1,2.1-0.3,3.1-0.6c1.1-0.4,2.2-0.9,3.2-1.4c1.2-0.7,2.3-1.5,3.3-2.4c0.2-0.2,0.4-0.3,0.5-0.5c0.1-0.1,0.3-0.3,0.4-0.4
					c4.4-4.3,4.4-15.1,5.5-14.3c2.4,1.6,4-3.3,4.3-6.2c0.3-2.5-0.7-3.7-1.7-3.3c-0.3,0.6-0.6,1.1-1.1,1.3c0,0-1.5,6.3-2.2,6.1
					c-0.7-0.2-0.4-5.9,0.7-12.6c1.1-7.1-7.7-4-13.8-4.2c-6.1-0.2-20.3-1.4-21.4,2c-1.1,3.4,1,13.5,0.2,13.9c-0.9,0.4-2-4.6-2.8-5.6
					c-0.1-0.2-0.3-0.5-0.4-1c-0.9,0-1.6,1.2-1.3,3.4c0.3,2.9,1.9,7.8,4.3,6.2c1.1-0.8,1,10,5.5,14.3c0,0,0,0,0,0
					C250.8,213.2,251.9,214.2,253.1,215z"/>
				<path id="XMLID_115_" class="st47" d="M244.6,195c0.9-0.4-1.3-10.5-0.2-13.9c1.1-3.4,15.3-2.2,21.4-2c6.1,0.2,14.9-2.9,13.8,4.2
					c-1,6.7-1.3,12.4-0.7,12.6c0.7,0.2,2.2-6.1,2.2-6.1c0.4-0.2,0.8-0.7,1.1-1.3c1.7-3.8,0.9-13.6,0.9-15.3c0-2-3.1-5.3-4.4-5.3
					s-0.2-5.5-9.2-7.9c-9-2.4-16.8-1.2-21.2,1c-4.4,2.2-7.7,5.9-9.6,6.5c-2,0.6,0.7,2-0.9,3.4c-1.5,1.4,1.1,3.2,1.5,5.9
					c0.4,2.3,1.2,8.9,2,11.6c0.1,0.5,0.3,0.9,0.4,1C242.6,190.4,243.7,195.4,244.6,195z"/>
				<path id="XMLID_114_" class="st48" d="M287,229c2.1,3.8,2.3,6.2,3.8,7.3c1.4,1.1-10.4,1.9-11.7,2c0,0,0,0.1,0,0.1l8.3,6.3
					c0,0-7.2,9.9-11.1,15.6c-1.4,2-4.8,7.9-6.7,11.2c-0.5,0.9-1.6,2.9-2.8,5.1c11.3-0.9,21.9-4.3,31.2-9.8
					c1.2-14.2,4.5-33.4,10.9-32.3c-2.6-1.1-9.7-2.5-14.5-4.5c-4.2-1.7-7.5-3.8-9.5-3.9C285.6,227,286.4,227.9,287,229z"/>
				<path id="XMLID_113_" d="M279.6,223c0.1,0.1,0.3,0.2,0.4,0.4c0.3,0.4,0.6,1.1,0.6,2.1c0,0.1,0,0.4,0.1,0.7
					c0.1,1.2,0.1,3.7-3.2,8.5c-2.1,3-6.6,16.8-10.3,29.5c-1.3,4.5-2.5,8.9-3.5,12.6c1,0,2-0.1,3-0.2c1.2-2.2,2.2-4.2,2.8-5.1
					c1.9-3.3,5.3-9.2,6.7-11.2c3.9-5.8,11.1-15.6,11.1-15.6l-8.3-6.3l-0.1-0.1c0,0,0,0,0.1,0c1.3-0.1,13.2-0.9,11.7-2
					c-1.5-1.1-1.6-3.5-3.8-7.3c-0.6-1.1-1.4-2-2.2-2.7c-1.1-1-2.1-1.7-2.7-2.1c-1.5-1.3-2.4-1.4-2.7-1.3c-0.1,0-0.1,0-0.1,0
					S279.4,222.9,279.6,223z"/>
				<path id="XMLID_112_" class="st49" d="M226.3,268c8.9,4.9,19,8,29.7,8.7c-1.2-2.6-2-4.6-2.4-5.2c-1.9-3.3-5.3-9.2-6.7-11.2
					c-3.9-5.8-11.1-15.6-11.1-15.6l8.4-6.4c0,0-13.4-0.9-11.9-2c1.5-1.1,1.6-3.5,3.8-7.3c0.6-1.1,1.5-2,2.3-2.8
					c-2,0.6-4.9,2.3-8.2,3.6c-5.3,2.2-13.4,3.7-15.1,4.8C221.8,233,225.2,253.6,226.3,268z"/>
				<path id="XMLID_111_" d="M236.2,229c-2.1,3.8-2.3,6.2-3.8,7.3c-1.5,1.1,11.9,2,11.9,2l-8.4,6.4c0,0,7.2,9.9,11.1,15.6
					c1.4,2,4.8,7.9,6.7,11.2c0.3,0.6,1.2,2.6,2.4,5.2c1.4,0.1,2.8,0.2,4.3,0.2c-1.3-4.4-2.7-8.9-4.2-13.4
					c-4.4-13.7-8.8-26.4-10.5-28.8c-3.4-5-3.3-7.5-3.2-8.6c0-0.3,0.1-0.4,0.1-0.5c0-0.9,0.2-1.5,0.5-2c0.2-0.4,0.5-0.6,0.7-0.7
					c0.1-0.1,0.2-0.1,0.2-0.1s0,0-0.1,0c-0.2,0-1.1,0-2.7,1.3c-0.5,0.5-1.6,1.1-2.6,2.1C237.7,226.9,236.8,227.9,236.2,229z"/>
				<path id="XMLID_110_" d="M226.3,268c-1.1-14.5-4.5-35-11.2-33.4c-0.3,0.1-0.6,0.2-0.8,0.3c-1.5,0.8-3.1,8.8-5.1,20
					C214.2,260.1,220,264.5,226.3,268z"/>
				<path id="XMLID_109_" d="M297.9,266.9c6.2-3.7,11.9-8.3,16.7-13.6c-1.8-10.4-3.3-17.7-4.8-18.4c-0.4-0.2-0.7-0.3-1-0.3
					C302.4,233.5,299.1,252.7,297.9,266.9z"/>
			</g>
		</g>
		<path class="st35" d="M328,297.4H195c-6.6,0-12-5.4-12-12v-14.6c0-6.6,5.4-12,12-12h133c6.6,0,12,5.4,12,12v14.6
			C340,292,334.6,297.4,328,297.4z"/>
		<polygon class="st50" points="208.4,262.1 213.3,272 224.1,273.5 216.3,281.2 218.1,292.1 208.4,286.9 198.7,292.1 200.5,281.2 
			192.6,273.5 203.5,272 		"/>
		<polygon class="st50" points="260.4,261.3 265.3,271.1 276.2,272.7 268.3,280.4 270.2,291.2 260.4,286.1 250.7,291.2 252.6,280.4 
			244.7,272.7 255.6,271.1 		"/>
		<polygon class="st50" points="315,261.3 319.9,271.1 330.8,272.7 322.9,280.4 324.8,291.2 315,286.1 305.3,291.2 307.1,280.4 
			299.3,272.7 310.2,271.1 		"/>
	</g>
	<g>
		<path class="st2" d="M199.8,328.1c-1.7-1.5-2.5-3.7-2.5-6.6c0-2.9,0.8-5.2,2.4-6.7c1.6-1.5,3.9-2.2,7-2.2c1.4,0,2.6,0.1,3.6,0.4
			c1.1,0.3,2,0.6,2.7,1.1c0.2,0.2,0.3,0.3,0.3,0.5c0,0.2-0.1,0.4-0.2,0.6l-1.3,2.2c-0.1,0.2-0.3,0.3-0.5,0.3c-0.1,0-0.3-0.1-0.6-0.2
			c-0.5-0.2-1-0.4-1.5-0.6c-0.5-0.1-1.1-0.2-1.8-0.2c-1.4,0-2.4,0.4-3.2,1.2s-1.1,2-1.1,3.5c0,1.5,0.4,2.7,1.2,3.5
			c0.8,0.8,1.9,1.2,3.3,1.2c1.2,0,2.3-0.3,3.3-0.8c0.3-0.1,0.5-0.2,0.6-0.2c0.2,0,0.3,0.1,0.5,0.4l1.3,2.1c0.2,0.3,0.2,0.5,0.2,0.6
			c0,0.2-0.1,0.4-0.3,0.5c-0.7,0.5-1.6,0.9-2.7,1.1c-1.1,0.3-2.3,0.4-3.7,0.4C203.8,330.3,201.5,329.6,199.8,328.1z"/>
		<path class="st2" d="M213.7,329.4c0-0.1,0-0.3,0.1-0.5l6.2-15c0.2-0.4,0.3-0.6,0.5-0.7c0.2-0.1,0.5-0.2,0.8-0.2h2.7
			c0.4,0,0.6,0.1,0.8,0.2c0.2,0.1,0.4,0.4,0.5,0.7l6.2,15c0.1,0.2,0.1,0.4,0.1,0.5c0,0.4-0.2,0.5-0.5,0.5h-4.7c-0.5,0-0.8-0.2-1-0.7
			l-0.6-1.9h-4.4l-0.6,1.9c-0.1,0.4-0.5,0.7-1,0.7h-4.7C213.9,329.9,213.7,329.8,213.7,329.4z M223.7,323.5l-1-3.1l-1,3.1H223.7z"/>
		<path class="st2" d="M232.7,329.6c-0.2-0.2-0.3-0.6-0.3-1.1v-14.2c0-0.5,0.1-0.8,0.3-1.1c0.2-0.2,0.6-0.3,1.2-0.3h2.9
			c0.4,0,0.7,0,0.9,0.1c0.2,0.1,0.4,0.3,0.5,0.5l2.9,7.3l2.9-7.3c0.1-0.3,0.3-0.4,0.5-0.5s0.5-0.1,0.9-0.1h2.9c0.6,0,1,0.1,1.2,0.3
			c0.2,0.2,0.3,0.6,0.3,1.1v14.2c0,0.5-0.1,0.8-0.3,1.1c-0.2,0.2-0.6,0.3-1.2,0.3h-2.4c-0.5,0-0.9-0.1-1.2-0.3
			c-0.2-0.2-0.3-0.6-0.3-1.1v-6.8l-1.5,3.4c-0.2,0.5-0.4,0.8-0.6,1c-0.2,0.2-0.6,0.3-1.2,0.3s-0.9-0.1-1.2-0.3
			c-0.2-0.2-0.4-0.6-0.6-1l-1.5-3.4v6.8c0,0.5-0.1,0.8-0.3,1.1c-0.2,0.2-0.6,0.3-1.2,0.3h-2.4C233.3,329.9,232.9,329.8,232.7,329.6z
			"/>
		<path class="st2" d="M251.8,329.6c-0.2-0.2-0.3-0.6-0.3-1.1v-14.2c0-0.5,0.1-0.8,0.3-1.1c0.2-0.2,0.6-0.3,1.2-0.3h6
			c2.5,0,4.3,0.5,5.5,1.5s1.7,2.5,1.7,4.5s-0.6,3.5-1.7,4.5c-1.1,1-3,1.5-5.4,1.5h-1.5v3.7c0,0.5-0.1,0.8-0.3,1.1
			c-0.2,0.2-0.6,0.3-1.2,0.3h-3C252.5,329.9,252.1,329.8,251.8,329.6z M258.5,320.6c0.5,0,1-0.1,1.3-0.4s0.5-0.7,0.5-1.3
			c0-0.6-0.2-1-0.5-1.3s-0.7-0.4-1.3-0.4h-1.7v3.4H258.5z"/>
		<path class="st2" d="M263.9,329.4c0-0.1,0-0.3,0.1-0.5l6.2-15c0.1-0.4,0.3-0.6,0.5-0.7c0.2-0.1,0.5-0.2,0.8-0.2h2.7
			c0.3,0,0.6,0.1,0.8,0.2c0.2,0.1,0.4,0.4,0.5,0.7l6.2,15c0.1,0.2,0.1,0.4,0.1,0.5c0,0.4-0.2,0.5-0.5,0.5h-4.7c-0.5,0-0.8-0.2-1-0.7
			l-0.6-1.9h-4.4l-0.6,1.9c-0.1,0.4-0.5,0.7-1,0.7h-4.7C264.1,329.9,263.9,329.8,263.9,329.4z M273.9,323.5l-1-3.1l-1,3.1H273.9z"/>
		<path class="st2" d="M283.5,329.6c-0.2-0.2-0.3-0.6-0.3-1.1v-14.2c0-0.5,0.1-0.8,0.3-1.1c0.2-0.2,0.6-0.3,1.2-0.3h2.4
			c0.4,0,0.6,0,0.8,0.1s0.4,0.3,0.6,0.5l4.5,6.7v-6c0-0.5,0.1-0.8,0.3-1.1c0.2-0.2,0.6-0.3,1.2-0.3h3c0.6,0,1,0.1,1.2,0.3
			c0.2,0.2,0.3,0.6,0.3,1.1v14.2c0,0.5-0.1,0.8-0.3,1.1c-0.2,0.2-0.6,0.3-1.2,0.3h-2.4c-0.3,0-0.6,0-0.8-0.1s-0.4-0.3-0.6-0.5
			l-4.5-6.7v6c0,0.5-0.1,0.8-0.3,1.1c-0.2,0.2-0.6,0.3-1.2,0.3h-3C284.2,329.9,283.8,329.8,283.5,329.6z M292.4,311.5
			c-0.3-0.1-0.7-0.3-1.1-0.5c-0.4-0.2-0.7-0.3-1-0.4c-0.2-0.1-0.5-0.1-0.7-0.1c-0.3,0-0.5,0.1-0.7,0.2c-0.2,0.1-0.4,0.3-0.7,0.7
			c-0.2,0.2-0.4,0.3-0.6,0.3c-0.3,0-0.8-0.3-1.5-0.8c-0.3-0.3-0.6-0.5-0.8-0.7c-0.2-0.2-0.2-0.4-0.2-0.5c0-0.2,0.1-0.5,0.4-0.9
			c0.6-0.8,1.1-1.4,1.6-1.8c0.5-0.4,1.1-0.5,1.8-0.5c0.5,0,0.9,0.1,1.3,0.2c0.4,0.1,0.8,0.3,1.2,0.6c0.3,0.2,0.6,0.3,0.8,0.4
			s0.4,0.1,0.6,0.1c0.3,0,0.5-0.1,0.7-0.2s0.4-0.3,0.7-0.6c0.2-0.2,0.4-0.3,0.6-0.3c0.3,0,0.8,0.3,1.5,0.8c0.3,0.2,0.6,0.4,0.7,0.6
			c0.1,0.2,0.2,0.4,0.2,0.6c0,0.2-0.1,0.5-0.4,0.9c-0.5,0.8-1.1,1.4-1.6,1.7c-0.5,0.3-1.1,0.5-1.8,0.5
			C293,311.7,292.7,311.7,292.4,311.5z"/>
		<path class="st2" d="M300.3,329.4c0-0.1,0-0.3,0.1-0.5l6.2-15c0.2-0.4,0.3-0.6,0.5-0.7c0.2-0.1,0.5-0.2,0.8-0.2h2.7
			c0.4,0,0.6,0.1,0.8,0.2c0.2,0.1,0.4,0.4,0.5,0.7l6.2,15c0.1,0.2,0.1,0.4,0.1,0.5c0,0.4-0.2,0.5-0.5,0.5h-4.7c-0.5,0-0.8-0.2-1-0.7
			l-0.6-1.9h-4.4l-0.6,1.9c-0.1,0.4-0.5,0.7-1,0.7h-4.7C300.4,329.9,300.3,329.8,300.3,329.4z M310.3,323.5l-1-3.1l-1,3.1H310.3z"/>
		<path class="st2" d="M321.6,329.8c-1.3-0.3-2.3-0.8-3.2-1.3c-0.3-0.2-0.5-0.5-0.5-0.7c0-0.2,0.1-0.3,0.2-0.5l1.4-2.3
			c0.2-0.2,0.3-0.3,0.5-0.3c0.1,0,0.3,0.1,0.5,0.2c0.6,0.4,1.3,0.7,2.1,0.9c0.8,0.2,1.5,0.3,2.3,0.3c0.6,0,1.1-0.1,1.3-0.3
			s0.4-0.4,0.4-0.8c0-0.4-0.2-0.7-0.5-0.9c-0.4-0.2-1-0.5-1.9-0.9c-1.7-0.6-3-1.4-4-2.2c-1-0.8-1.5-1.9-1.5-3.3c0-1.7,0.6-3,1.8-3.9
			c1.2-0.9,2.8-1.3,4.9-1.3c1.4,0,2.7,0.1,3.7,0.4c1,0.3,1.9,0.6,2.6,1.2c0.3,0.2,0.5,0.5,0.5,0.7c0,0.2-0.1,0.3-0.2,0.5l-1.5,2.3
			c-0.1,0.2-0.3,0.4-0.4,0.4c-0.1,0-0.3-0.1-0.5-0.2c-0.4-0.3-0.9-0.5-1.4-0.7s-1.1-0.3-1.8-0.3c-0.6,0-1,0.1-1.3,0.3
			c-0.3,0.2-0.5,0.4-0.5,0.8c0,0.3,0.1,0.6,0.3,0.8c0.2,0.2,0.5,0.4,0.8,0.5c0.3,0.1,0.9,0.4,1.7,0.7c1.3,0.5,2.2,1,3,1.4
			c0.7,0.5,1.3,1,1.6,1.6c0.4,0.6,0.5,1.5,0.5,2.4c0,1.5-0.6,2.7-1.7,3.6c-1.1,0.9-2.8,1.4-5,1.4
			C324.3,330.3,322.9,330.1,321.6,329.8z"/>
		<path class="st2" d="M161.9,359.6c-0.2-0.2-0.3-0.6-0.3-1.1v-14.2c0-0.5,0.1-0.8,0.3-1.1c0.2-0.2,0.6-0.3,1.2-0.3h5.8
			c5.9,0,8.8,2.8,8.8,8.5c0,2.8-0.8,4.9-2.3,6.3c-1.5,1.4-3.7,2.2-6.6,2.2h-5.8C162.5,359.9,162.2,359.8,161.9,359.6z M169.1,355.7
			c0.9,0,1.6-0.3,2-0.9c0.4-0.6,0.6-1.7,0.6-3.3s-0.2-2.7-0.6-3.3s-1.1-0.9-2-0.9h-1.5v8.5H169.1z"/>
		<path class="st2" d="M179.3,359.6c-0.2-0.2-0.3-0.6-0.3-1.1v-14.2c0-0.5,0.1-0.8,0.3-1.1c0.2-0.2,0.6-0.3,1.2-0.3h10.4
			c0.5,0,0.9,0.1,1.1,0.3s0.3,0.6,0.3,1.1v1.4c0,0.5-0.1,0.9-0.3,1.1c-0.2,0.2-0.6,0.3-1.1,0.3h-5.9v2.2h3.6c0.5,0,0.9,0.1,1.1,0.3
			s0.3,0.6,0.3,1.1v1.3c0,0.5-0.1,0.9-0.3,1.1c-0.2,0.2-0.6,0.3-1.1,0.3h-3.6v2.2h5.8c0.5,0,0.9,0.1,1.1,0.3
			c0.2,0.2,0.3,0.6,0.3,1.1v1.4c0,0.5-0.1,0.9-0.3,1.1c-0.2,0.2-0.6,0.3-1.1,0.3h-10.3C179.9,359.9,179.5,359.8,179.3,359.6z"/>
		<path class="st2" d="M201.1,359.6c-0.2-0.2-0.3-0.6-0.3-1.1v-14.2c0-0.5,0.1-0.8,0.3-1.1c0.2-0.2,0.6-0.3,1.2-0.3h10.4
			c0.5,0,0.9,0.1,1.1,0.3s0.3,0.6,0.3,1.1v1.4c0,0.5-0.1,0.9-0.3,1.1c-0.2,0.2-0.6,0.3-1.1,0.3h-5.9v2.1h3.6c0.5,0,0.9,0.1,1.1,0.3
			s0.3,0.6,0.3,1.1v1.4c0,0.5-0.1,0.9-0.3,1.1c-0.2,0.2-0.6,0.3-1.1,0.3h-3.6v5c0,0.5-0.1,0.8-0.3,1.1c-0.2,0.2-0.6,0.3-1.2,0.3h-3
			C201.7,359.9,201.3,359.8,201.1,359.6z"/>
		<path class="st2" d="M215.2,359.6c-0.2-0.2-0.3-0.6-0.3-1.1v-14.2c0-0.5,0.1-0.8,0.3-1.1c0.2-0.2,0.6-0.3,1.2-0.3h3
			c0.6,0,1,0.1,1.2,0.3c0.2,0.2,0.3,0.6,0.3,1.1v14.2c0,0.5-0.1,0.8-0.3,1.1c-0.2,0.2-0.6,0.3-1.2,0.3h-3
			C215.8,359.9,215.4,359.8,215.2,359.6z"/>
		<path class="st2" d="M223,359.6c-0.2-0.2-0.3-0.6-0.3-1.1v-14.2c0-0.5,0.1-0.8,0.3-1.1c0.2-0.2,0.6-0.3,1.2-0.3h5.8
			c5.9,0,8.8,2.8,8.8,8.5c0,2.8-0.8,4.9-2.3,6.3c-1.5,1.4-3.7,2.2-6.6,2.2h-5.8C223.6,359.9,223.2,359.8,223,359.6z M230.1,355.7
			c0.9,0,1.6-0.3,2-0.9c0.4-0.6,0.6-1.7,0.6-3.3s-0.2-2.7-0.6-3.3s-1.1-0.9-2-0.9h-1.5v8.5H230.1z"/>
		<path class="st2" d="M240.3,359.6c-0.2-0.2-0.3-0.6-0.3-1.1v-14.2c0-0.5,0.1-0.8,0.3-1.1c0.2-0.2,0.6-0.3,1.2-0.3h10.4
			c0.5,0,0.9,0.1,1.1,0.3s0.3,0.6,0.3,1.1v1.4c0,0.5-0.1,0.9-0.3,1.1c-0.2,0.2-0.6,0.3-1.1,0.3h-5.9v2.2h3.6c0.5,0,0.9,0.1,1.1,0.3
			s0.3,0.6,0.3,1.1v1.3c0,0.5-0.1,0.9-0.3,1.1c-0.2,0.2-0.6,0.3-1.1,0.3h-3.6v2.2h5.8c0.5,0,0.9,0.1,1.1,0.3
			c0.2,0.2,0.3,0.6,0.3,1.1v1.4c0,0.5-0.1,0.9-0.3,1.1c-0.2,0.2-0.6,0.3-1.1,0.3h-10.3C240.9,359.9,240.5,359.8,240.3,359.6z"/>
		<path class="st2" d="M254.6,359.6c-0.2-0.2-0.3-0.6-0.3-1.1v-14.2c0-0.5,0.1-0.8,0.3-1.1c0.2-0.2,0.6-0.3,1.2-0.3h3
			c0.6,0,1,0.1,1.2,0.3c0.2,0.2,0.3,0.6,0.3,1.1v11.3h5.8c0.5,0,0.9,0.1,1.1,0.3c0.2,0.2,0.3,0.6,0.3,1.1v1.4c0,0.5-0.1,0.9-0.3,1.1
			c-0.2,0.2-0.6,0.3-1.1,0.3h-10.3C255.2,359.9,254.8,359.8,254.6,359.6z"/>
		<path class="st2" d="M268.6,359.6c-0.2-0.2-0.3-0.6-0.3-1.1v-14.2c0-0.5,0.1-0.8,0.3-1.1c0.2-0.2,0.6-0.3,1.2-0.3h3
			c0.6,0,1,0.1,1.2,0.3c0.2,0.2,0.3,0.6,0.3,1.1v14.2c0,0.5-0.1,0.8-0.3,1.1c-0.2,0.2-0.6,0.3-1.2,0.3h-3
			C269.2,359.9,268.8,359.8,268.6,359.6z"/>
		<path class="st2" d="M275.7,359.6c-0.2-0.2-0.3-0.5-0.3-1.1c0-0.5,0-0.9,0.1-1.3c0.1-0.3,0.3-0.7,0.7-1.2l6.6-9h-5.8
			c-0.5,0-0.9-0.1-1.2-0.3c-0.2-0.2-0.3-0.6-0.3-1.1v-1.4c0-0.5,0.1-0.8,0.3-1.1c0.2-0.2,0.6-0.3,1.2-0.3h12.3c0.5,0,0.8,0.1,1,0.3
			c0.2,0.2,0.3,0.5,0.3,1.1c0,0.5,0,0.9-0.1,1.2c-0.1,0.3-0.3,0.7-0.7,1.2l-6.5,9h5.9c0.6,0,0.9,0.1,1.2,0.3
			c0.2,0.2,0.3,0.6,0.3,1.1v1.4c0,0.5-0.1,0.8-0.3,1.1c-0.2,0.2-0.6,0.3-1.2,0.3h-12.5C276.2,359.9,275.9,359.8,275.7,359.6z"/>
		<path class="st2" d="M290.9,359.4c0-0.1,0-0.3,0.1-0.5l6.2-15c0.1-0.4,0.3-0.6,0.5-0.7c0.2-0.1,0.5-0.2,0.8-0.2h2.7
			c0.3,0,0.6,0.1,0.8,0.2c0.2,0.1,0.4,0.4,0.5,0.7l6.2,15c0.1,0.2,0.1,0.4,0.1,0.5c0,0.4-0.2,0.5-0.5,0.5h-4.7c-0.5,0-0.8-0.2-1-0.7
			l-0.6-1.9h-4.4l-0.6,1.9c-0.1,0.4-0.5,0.7-1,0.7h-4.7C291.1,359.9,290.9,359.8,290.9,359.4z M300.9,353.5l-1-3.1l-1,3.1H300.9z"/>
		<path class="st2" d="M310.8,358.1c-1.7-1.5-2.5-3.7-2.5-6.6c0-2.9,0.8-5.2,2.4-6.7c1.6-1.5,3.9-2.2,7-2.2c1.4,0,2.6,0.1,3.7,0.4
			c1.1,0.3,2,0.6,2.7,1.1c0.2,0.2,0.3,0.3,0.3,0.5c0,0.2-0.1,0.4-0.2,0.6l-1.3,2.2c-0.1,0.2-0.3,0.3-0.5,0.3c-0.1,0-0.3-0.1-0.6-0.2
			c-0.5-0.2-1-0.4-1.5-0.6s-1.1-0.2-1.8-0.2c-1.4,0-2.4,0.4-3.2,1.2c-0.7,0.8-1.1,2-1.1,3.5c0,1.5,0.4,2.7,1.2,3.5s1.9,1.2,3.3,1.2
			c1.2,0,2.3-0.3,3.3-0.8c0.3-0.1,0.5-0.2,0.6-0.2c0.2,0,0.3,0.1,0.5,0.4l1.3,2.1c0.2,0.3,0.2,0.5,0.2,0.6c0,0.2-0.1,0.4-0.3,0.5
			c-0.7,0.5-1.6,0.9-2.7,1.1c-1.1,0.3-2.3,0.4-3.7,0.4C314.9,360.3,312.5,359.6,310.8,358.1z"/>
		<path class="st2" d="M326.2,359.6c-0.2-0.2-0.3-0.6-0.3-1.1v-14.2c0-0.5,0.1-0.8,0.3-1.1c0.2-0.2,0.6-0.3,1.2-0.3h3
			c0.6,0,1,0.1,1.2,0.3c0.2,0.2,0.3,0.6,0.3,1.1v14.2c0,0.5-0.1,0.8-0.3,1.1c-0.2,0.2-0.6,0.3-1.2,0.3h-3
			C326.8,359.9,326.4,359.8,326.2,359.6z"/>
		<path class="st2" d="M335.4,358c-1.5-1.5-2.3-3.7-2.3-6.6c0-2.8,0.8-5,2.3-6.6c1.5-1.5,3.8-2.3,6.8-2.3s5.2,0.8,6.8,2.3
			c1.5,1.5,2.3,3.7,2.3,6.6c0,2.8-0.8,5-2.3,6.6c-1.5,1.5-3.8,2.3-6.8,2.3S336.9,359.5,335.4,358z M344.5,354.9
			c0.5-0.8,0.7-1.9,0.7-3.5c0-1.6-0.2-2.8-0.7-3.5c-0.5-0.8-1.3-1.1-2.4-1.1c-1.1,0-1.9,0.4-2.3,1.1c-0.5,0.8-0.7,1.9-0.7,3.5
			c0,1.6,0.2,2.7,0.7,3.5c0.5,0.8,1.3,1.2,2.3,1.2C343.2,356.1,344,355.7,344.5,354.9z M339.5,340.8c0-0.1,0-0.3,0.1-0.4l1-2.9
			c0.1-0.4,0.3-0.6,0.5-0.8s0.5-0.2,1-0.2h3.6c0.3,0,0.6,0.1,0.8,0.2c0.2,0.1,0.3,0.3,0.3,0.5c0,0.2-0.1,0.4-0.2,0.6l-1.6,2.7
			c-0.2,0.4-0.5,0.7-0.7,0.8s-0.6,0.2-1.2,0.2h-2.7C339.8,341.5,339.5,341.3,339.5,340.8z"/>
		<path class="st2" d="M352.8,359.6c-0.2-0.2-0.3-0.6-0.3-1.1v-14.2c0-0.5,0.1-0.8,0.3-1.1c0.2-0.2,0.6-0.3,1.2-0.3h2.4
			c0.4,0,0.6,0,0.8,0.1s0.4,0.3,0.6,0.5l4.5,6.7v-6c0-0.5,0.1-0.8,0.3-1.1c0.2-0.2,0.6-0.3,1.2-0.3h3c0.6,0,1,0.1,1.2,0.3
			c0.2,0.2,0.3,0.6,0.3,1.1v14.2c0,0.5-0.1,0.8-0.3,1.1c-0.2,0.2-0.6,0.3-1.2,0.3h-2.4c-0.3,0-0.6,0-0.8-0.1s-0.4-0.3-0.6-0.5
			l-4.5-6.7v6c0,0.5-0.1,0.8-0.3,1.1c-0.2,0.2-0.6,0.3-1.2,0.3h-3C353.4,359.9,353,359.8,352.8,359.6z"/>
	</g>
</g>
</svg>
