<?xml version="1.0" encoding="utf-8"?>
<!-- Generator: Adobe Illustrator 23.0.0, SVG Export Plug-In . SVG Version: 6.00 Build 0)  -->
<svg version="1.1" id="Capa_1" xmlns="http://www.w3.org/2000/svg" xmlns:xlink="http://www.w3.org/1999/xlink" x="0px" y="0px"
	 viewBox="0 0 500 500" style="enable-background:new 0 0 500 500;" xml:space="preserve">
<style type="text/css">
	.st0{fill:#0C2D44;}
	.st1{fill:#2C83AF;}
	.st2{fill:#FFFFFF;}
	.st3{fill:#00791D;}
	.st4{fill:#00D13C;}
	.st5{fill:#F2F2F2;}
	.st6{fill:#727272;}
	.st7{fill:#A3A3A3;}
	.st8{fill:#BCBCBC;}
	.st9{fill:none;}
	.st10{fill:#866A5E;}
	.st11{fill:#F7DDCB;}
	.st12{fill:#FFE6D4;}
	.st13{fill:#2D2D2D;}
	.st14{fill:#1C1B1A;}
	.st15{fill:#F5F5F5;}
	.st16{fill:#77181C;}
	.st17{fill:#EAEAEA;}
	.st18{fill:#262525;}
	.st19{fill:#11100F;}
	.st20{fill:#CCCDCE;}
	.st21{fill:#DFDFDF;}
	.st22{fill:#C2C2C2;}
	.st23{fill:#0085B0;}
	.st24{fill:#2A5936;}
	.st25{fill:#CD7054;}
	.st26{fill:#F1CC4B;}
	.st27{fill:#22272F;}
	.st28{fill:#1B2538;}
	.st29{fill:#253452;}
	.st30{fill:#F9F9F9;}
	.st31{fill:#2D3543;}
	.st32{fill:#2A3D60;}
	.st33{fill:#ACACAC;}
	.st34{fill:#6C92D5;}
	.st35{fill:#587955;}
	.st36{fill:#DAA449;}
	.st37{fill:#D4D4D4;}
	.st38{fill:#85B681;}
	.st39{fill:#A1DC9B;}
	.st40{fill:#90C58B;}
	.st41{fill:#81C378;}
	.st42{opacity:0.5;}
	.st43{fill:#A2CADE;}
	.st44{fill:#9BAEC9;}
	.st45{fill:#9D2B3B;}
	.st46{fill:#C1D4F2;}
	.st47{fill:#534D46;}
	.st48{fill:#191819;}
	.st49{fill:#222123;}
	.st50{fill:#F3FF00;}
	.st51{fill:none;stroke:#5A605A;stroke-width:4;stroke-miterlimit:10;}
	.st52{fill:#505050;}
	.st53{fill:#FFB412;}
	.st54{fill:#53C2C9;}
	.st55{fill:#008B9C;}
	.st56{fill:none;stroke:#00550B;stroke-width:4;stroke-miterlimit:10;}
</style>
<g>
	<g>
		<g>
			<circle class="st3" cx="268.5" cy="143.1" r="112"/>
			<circle class="st3" cx="157" cy="298.1" r="111.9"/>
			<circle class="st3" cx="342" cy="338.4" r="112"/>
		</g>
	</g>
	<g>
		<circle class="st4" cx="264.4" cy="267.1" r="161.6"/>
	</g>
	<g>
		<g>
			<circle id="XMLID_240_" class="st5" cx="258.6" cy="167.4" r="37"/>
			<g id="XMLID_216_">
				<path id="XMLID_239_" class="st9" d="M268.9,166c0.5-1.2,0.7-2.1,0.8-2.3c0,0-0.1,0-0.1-0.1c-0.1-0.1,0.2-1.3,0-1.4c0,0,0,0,0,0
					c-0.1,0.4-0.4,0.8-0.7,1C268.9,164.1,268.9,165,268.9,166z"/>
				<path id="XMLID_238_" class="st10" d="M267.2,163.6c-0.5-0.4-0.5,5.2-2.8,7.3c-0.2,0.2-0.3,0.3-0.5,0.5
					c-0.2,0.2-0.4,0.3-0.5,0.4c0,0.1,0,0.2,0,0.2c2.1-0.6,3.6-2.5,4.5-4.1c0.4-0.7,0.7-1.4,1-2.1c0-1,0-1.9,0-2.8
					c-0.2,0.1-0.4,0.3-0.5,0.3C268,163.8,267.6,163.9,267.2,163.6z"/>
				<path id="XMLID_237_" class="st10" d="M249.5,178.4c-0.1,0-0.2,0.1-0.4,0.4C249.3,178.7,249.4,178.5,249.5,178.4z"/>
				<path id="XMLID_236_" class="st10" d="M263.4,172.4c0.1,1.2,0.3,2.8,1.3,4.3c0.3-0.3,0.5-0.4,0.6-0.2c0.7,1.2,1.5,1.9,1.9,2.3
					c-0.2-0.4-0.5-0.5-0.5-0.5s0.5-0.2,1.4,0.6c0.2,0.2,0.6,0.4,1,0.8c-0.5-2.4-0.4-7.7-0.3-13c-0.2,0.5-0.5,1-0.8,1.5
					C266.8,170.4,265.2,171.9,263.4,172.4z"/>
				<path id="XMLID_235_" class="st10" d="M249.6,178.4c0.4-0.4,0.9-1,1.4-1.9c0.1-0.2,0.3-0.1,0.6,0.2c1.2-1.7,1.3-3.6,1.3-4.8
					c-0.4-0.3-0.7-0.6-1-0.9c-2.3-2.2-2.3-7.7-2.8-7.3c-0.4,0.3-0.8,0.2-1.1-0.1c-0.1,0-0.2-0.1-0.3-0.2c0,6.1,0.2,13.2-0.3,16.2
					c0.3-0.2,0.6-0.4,0.7-0.6C249,178.2,249.5,178.3,249.6,178.4z"/>
				<path id="XMLID_234_" class="st11" d="M262.9,172.2c0.2,0,0.3-0.1,0.5-0.1c0-0.1,0-0.2,0-0.2C263.2,172,263.1,172.1,262.9,172.2
					z"/>
				<path id="XMLID_233_" class="st11" d="M258.1,182.5c0,0,0.1,0.1,0.1,0.1c0,0,0-0.1,0.1-0.1c4-3,5.7-5.1,6.5-5.8
					c-1-1.5-1.2-3.1-1.3-4.3c-0.3,0.1-0.7,0.2-1,0.2c-0.1,0.4-0.5,1.2-2,1.2c-0.3,0-0.6,0-0.8-0.1c-0.2,0-0.4,0.1-0.7,0.1
					c-0.7,0.1-1.4,0-2-0.1c-0.5-0.1-1.1-0.2-1.6-0.4c-0.6-0.2-1.1-0.5-1.7-0.9c-0.2-0.2-0.5-0.3-0.7-0.5c0,1.3-0.2,3.1-1.3,4.8
					C252.5,177.4,254.2,179.5,258.1,182.5z"/>
				<path id="XMLID_232_" class="st11" d="M258.2,182.7C258.2,182.7,258.2,182.7,258.2,182.7L258.2,182.7
					C258.2,182.7,258.2,182.7,258.2,182.7z"/>
				<path id="XMLID_231_" class="st12" d="M255.3,173.2c0.5,0.2,1.1,0.4,1.6,0.4c0.7,0.1,1.4,0.1,2,0.1c0.2,0,0.4-0.1,0.7-0.1
					c-1-0.3-1-1-1.1-1.3c0-0.3,0.1-1.4,1.9-1.4c1.6,0,1.9,0.9,2,1.3c0.2,0,0.3,0,0.5-0.1c0.2-0.1,0.3-0.2,0.5-0.3
					c0.2-0.1,0.4-0.3,0.5-0.4c0.2-0.1,0.3-0.3,0.5-0.5c2.3-2.2,2.3-7.7,2.8-7.3c0.4,0.3,0.8,0.2,1.1-0.1c-0.3,0.1-0.5,0.1-0.7,0
					c-0.3-0.2,0-1.7,0.2-4.1c0,0-0.1,0-0.1,0c-0.4,0.3-1-3.4-3-5.1c-2.1-1.7-2.2-2.9-2.2-2.9c-2.1,0.2-4.1,1-7.5,3.7
					c-2.7,2.2-5.1,4.3-6.2,4.6c-0.1,0-0.2-0.1-0.2-0.2c0.2,2.3,0.5,3.8,0.2,4c-0.2,0.1-0.4,0.1-0.7,0c0.3,0.3,0.7,0.4,1.1,0.1
					c0.5-0.4,0.5,5.2,2.8,7.3c0.3,0.3,0.7,0.6,1,0.9c0.2,0.2,0.5,0.4,0.7,0.5C254.2,172.7,254.7,173,255.3,173.2z"/>
				<path id="XMLID_230_" class="st10" d="M247.6,155.3c0.1-2,2-9.4,10.5-9.4c8.6,0,10.4,7.4,10.5,9.4c0.1,1.3-0.1,2.1,0,2.5
					c0-0.4,0.1-1,0.1-1.8c0-3.9-1.6-7.9-4.1-8.5c-1.2-0.3-1.4-1.5-4.1-2.3c-4.3-1.3-9.2,0.5-11.7,4.7c-1.8,2.9-1.8,7-1.7,8.4
					C247.8,158,247.5,157.2,247.6,155.3z"/>
				<path id="XMLID_229_" class="st10" d="M248.7,159.7c1.1-0.3,3.5-2.4,6.2-4.6c3.4-2.7,5.5-3.5,7.5-3.7c0,0,0.2,1.2,2.2,2.9
					c2.1,1.7,2.6,5.4,3,5.1c0,0,0.1,0,0.1,0c0-0.2,0-0.5,0.1-0.8c0.2-2.8,0.2-3.7-0.1-4.7c-2.1-7.8-9.7-7.3-9.7-7.3
					s-7.3-0.7-9.6,7.1c-0.3,1-0.3,2.1-0.1,4.9c0,0.3,0,0.6,0.1,0.8C248.6,159.6,248.6,159.7,248.7,159.7z"/>
				<path id="XMLID_228_" class="st13" d="M248.7,163.5c0.3-0.2,0-1.7-0.2-4c0-0.3-0.1-0.6-0.1-0.8c-0.2-2.8-0.2-3.8,0.1-4.9
					c2.3-7.8,9.6-7.1,9.6-7.1s7.6-0.6,9.7,7.3c0.3,1,0.3,1.9,0.1,4.7c0,0.3,0,0.5-0.1,0.8c-0.2,2.4-0.5,3.9-0.2,4.1
					c0.2,0.1,0.4,0.1,0.7,0c0.2-0.1,0.4-0.2,0.5-0.3c0.3-0.2,0.5-0.6,0.7-1c-0.1,0-0.3,0.1-0.4-0.1c-0.1-0.2,0-1.2,0-1.4
					c0.1-0.2,0.2-0.3,0.5-0.2c0,0,0,0,0.1,0c0-1-0.1-1.9-0.6-2.1c-0.3-0.1-0.4-0.3-0.5-0.5c-0.1-0.5,0-1.2,0-2.5
					c-0.1-2-2-9.4-10.5-9.4c-8.6,0-10.4,7.4-10.5,9.4c-0.1,1.9,0.2,2.7-0.4,3c0,0-0.1,0-0.1,0.1c-0.8,0.3-0.6,2.3-0.4,3.5
					c0.1,0.7,0.5,1.2,1,1.5c0.1,0.1,0.2,0.1,0.3,0.2C248.3,163.6,248.5,163.6,248.7,163.5z"/>
				<path id="XMLID_227_" class="st14" d="M269.2,160.6c-0.1,0.2-0.1,1.2,0,1.4c0.1,0.2,0.2,0.1,0.4,0.1c0,0,0,0,0,0
					c0.1,0.1-0.1,1.3,0,1.4c0,0,0.1,0.1,0.1,0.1c-0.1,0.2-0.3,1.2-0.8,2.3c-0.3,0.6-0.6,1.3-1,2.1c-0.9,1.6-2.4,3.5-4.5,4.1
					c-0.2,0-0.3,0.1-0.5,0.1c-0.2,0-0.3,0.1-0.5,0.1c-0.1-0.4-0.4-1.3-2-1.3c-1.7,0-1.8,1-1.9,1.4c0,0.3,0.1,1,1.1,1.3
					c0.2,0.1,0.5,0.1,0.8,0.1c1.5,0,1.9-0.8,2-1.2c0.3,0,0.7-0.1,1-0.2c1.8-0.5,3.4-1.9,4.7-4.2c0.3-0.5,0.5-1,0.8-1.5
					c0.7-1.5,1-2.8,1.1-3.1c0,0,0,0,0.1,0c0.1-0.1,0.2-0.9,0.3-1.8c0.1-0.8-0.2-1.3-0.5-1.4c0,0,0,0-0.1,0
					C269.4,160.3,269.3,160.4,269.2,160.6z"/>
				<path id="XMLID_226_" class="st15" d="M256.7,189c-0.6-1.4-1.3-2.2-1.4-3.3c-0.5,0.6-0.8,1.1-0.7,1.7c0.2,1.8-5.3-4.4-5.8-7.5
					c-0.1,0.6-0.1,1.8,1.6,4.2c1.1,1.6,3.8,6.2,5.7,10.3c0.4-2.5,0.7-4.4,0.8-5.1C256.8,189.2,256.7,189.1,256.7,189z"/>
				<path id="XMLID_225_" class="st15" d="M261.8,187.4c0.1-0.6-0.3-1.1-0.7-1.7c-0.1,1.2-0.8,1.9-1.4,3.3c0,0.1-0.1,0.2-0.2,0.2
					c0.1,0.7,0.5,2.8,0.9,5.4c1.9-4.2,4.5-8.9,5.7-10.6c1.8-2.5,1.7-3.7,1.6-4.2C267.1,182.8,261.6,189.2,261.8,187.4z"/>
				<path id="XMLID_224_" class="st15" d="M249.7,185.9C249.7,185.9,249.7,185.9,249.7,185.9L249.7,185.9
					C249.7,185.9,249.7,185.9,249.7,185.9z"/>
				<path id="XMLID_223_" class="st16" d="M259.7,189c0.6-1.4,1.3-2.2,1.4-3.3c-1-1.3-2.8-2.4-2.9-3h0c-0.1,0.6-1.9,1.7-2.9,3
					c0.1,1.2,0.8,1.9,1.4,3.3c0,0.1,0.1,0.2,0.2,0.2c-0.1,0.7-0.4,2.6-0.8,5.1c1.1,2.4,2,4.7,2.2,6.1c0.2-1.3,1-3.5,2-5.8
					c-0.4-2.6-0.7-4.6-0.9-5.4C259.5,189.2,259.6,189.1,259.7,189z"/>
				<path id="XMLID_222_" class="st17" d="M265.3,176.5c-0.1-0.2-0.3-0.1-0.6,0.2c-0.8,0.7-2.5,2.8-6.5,5.8c0,0-0.1,0.1-0.1,0.1
					c0,0,0-0.1-0.1-0.1c-3.9-3-5.6-5.1-6.4-5.8c-0.3-0.3-0.5-0.4-0.6-0.2c-0.5,0.9-1,1.4-1.4,1.9c0,0,0,0,0,0s0,0,0,0
					c-0.2,0.2-0.3,0.3-0.4,0.4c-0.1,0.2-0.2,0.5-0.3,0.8c0,0.1,0,0.2-0.1,0.3c0.5,3,5.9,9.3,5.8,7.5c-0.1-0.6,0.3-1.1,0.7-1.7
					c1-1.3,2.8-2.4,2.9-3c0,0,0,0,0,0c0,0,0,0,0,0c0.1,0.6,1.9,1.7,2.9,3c0.5,0.6,0.8,1.1,0.7,1.7c-0.2,1.8,5.4-4.6,5.8-7.5
					c0-0.1,0-0.2,0-0.2c-0.1-0.3-0.2-0.6-0.3-0.8C266.8,178.4,266,177.8,265.3,176.5z"/>
				<path id="XMLID_221_" class="st14" d="M280,184.2c-0.3-0.5-7.7-3-10-3.9c0.2,0.3,0.5,0.6,0.7,0.9c1,1.9,1.1,3,1.8,3.6
					c0.7,0.6-5.8,1-5.8,1l4.1,3.1c0,0-4.6,5.3-7.7,7.5c-1,0.7-4,3.5-4.8,4.7c0.2,0.8,0.5,2,0.5,2.5c0,0.2,0.1,0.4,0.1,0.6
					c5.7-0.1,11-1.4,15.8-3.8c0.1-2.8-0.3-14,5-16.4c0.1,0,0.2,0.1,0.4,0.3c0,0,0,0,0,0C280.1,184.5,280,184.3,280,184.2z"/>
				<path id="XMLID_220_" class="st18" d="M258.3,201.2L258.3,201.2c-0.9-0.8-4-4-5-4.7c-3.1-2.3-7.7-7.5-7.7-7.5l4.1-3.1
					c0,0,0,0,0,0c-0.4,0-6.5-0.4-5.8-1c0.7-0.6,0.8-1.7,1.8-3.6c0.2-0.4,0.5-0.7,0.7-1c-2.5,0.9-9.6,3.4-9.9,3.8
					c5.7,0.3,5.2,13.1,5.3,16.3c5,2.5,10.6,4,16.6,4c0.2,0,0.3,0,0.4,0c0-0.2-0.1-0.4-0.1-0.6C258.8,203.3,258.5,202.1,258.3,201.2z
					"/>
				<path id="XMLID_219_" class="st19" d="M245.8,181.3c-1,1.9-1.1,3-1.8,3.6c-0.7,0.5,5.3,1,5.8,1c0,0,0,0,0,0l0,0l-4.1,3.1
					c0,0,4.6,5.3,7.7,7.5c1,0.7,4.1,4,5,4.7l0,0c0.7-1.2,3.8-4,4.8-4.7c3.1-2.3,7.7-7.5,7.7-7.5l-4.1-3.1c0,0,6.5-0.4,5.8-1
					c-0.7-0.6-0.8-1.7-1.8-3.6c-0.2-0.3-0.4-0.6-0.7-0.9c-0.2-0.3-0.5-0.5-0.7-0.7c-0.4-0.3-0.8-0.6-1-0.8c-0.9-0.8-1.4-0.6-1.4-0.6
					s0.2,0.1,0.5,0.5c0.1,0.2,0.2,0.4,0.3,0.8c0,0.1,0,0.1,0,0.2c0.1,0.5,0.2,1.7-1.6,4.2c-1.2,1.6-3.8,6.4-5.7,10.6
					c-1,2.3-1.8,4.5-2,5.8c-0.2-1.4-1.1-3.7-2.2-6.1c-1.9-4.1-4.6-8.7-5.7-10.3c-1.7-2.4-1.7-3.6-1.6-4.2c0-0.1,0.1-0.2,0.1-0.3
					c0.1-0.4,0.2-0.7,0.3-0.8c0.2-0.3,0.3-0.4,0.4-0.4c0,0,0,0,0,0s0,0,0,0c0,0-0.6-0.2-1.4,0.6c-0.2,0.1-0.4,0.3-0.7,0.6
					c-0.3,0.2-0.6,0.5-0.9,0.8C246.2,180.6,246,180.9,245.8,181.3z"/>
				<path id="XMLID_218_" class="st19" d="M236.6,184.1c-0.3,0-1.4,5-2.5,11c2.3,2.1,5,3.8,7.8,5.3
					C241.7,197.2,242.3,184.4,236.6,184.1z"/>
				<path id="XMLID_217_" class="st19" d="M279.7,184.3c-5.4,2.4-4.9,13.5-5,16.4c2.9-1.4,5.6-3.2,8-5.3c-0.9-5.1-1.9-9.6-2.6-10.8
					C280,184.3,279.9,184.2,279.7,184.3z"/>
			</g>
		</g>
		<g>
			<circle id="XMLID_215_" class="st5" cx="188.6" cy="208.5" r="29"/>
			<g id="XMLID_198_">
				<path id="XMLID_214_" class="st9" d="M196.1,215.9c0.1,0.1,0.1,0.1,0.2,0.2C196.2,216,196.2,215.9,196.1,215.9z"/>
				<path id="XMLID_213_" class="st9" d="M181.7,215.8c-0.1,0-0.2,0.1-0.3,0.3C181.5,216,181.6,215.9,181.7,215.8z"/>
				<path id="XMLID_212_" class="st11" d="M188.8,219.1C188.9,219.1,188.9,219.1,188.8,219.1c0.1,0,0.1,0,0.1,0
					c3.4-2.6,4.8-4.4,5.4-4.9c-0.4-0.9-0.6-1.8-0.7-2.5c-0.1,0.1-0.1,0.1-0.2,0.2c-0.4,0.4-0.9,0.7-1.3,1c-0.4,0.2-0.8,0.4-1.3,0.6
					c-0.4,0.1-0.8,0.2-1.3,0.3c-0.5,0.1-1.1,0-1.6,0c-0.4-0.1-0.9-0.2-1.3-0.3c-0.5-0.2-0.9-0.4-1.3-0.7c-0.5-0.3-0.9-0.7-1.3-1.1
					c0,0,0,0,0,0c-0.1,0.8-0.2,1.7-0.7,2.7C184.1,214.7,185.4,216.5,188.8,219.1z"/>
				<path id="XMLID_211_" class="st44" d="M187.7,224c-0.5-1-1-1.6-1-2.5c-0.5,0.5-0.8,1.1-0.8,1.6c0.1,1.5-4.2-3.5-4.7-6
					c-0.1,0.4-0.1,1.5,1.3,3.5c0.7,1,2.4,6.1,4.2,11.5c0.6-3.7,1.1-7,1.2-7.9C187.9,224.1,187.8,224.1,187.7,224z"/>
				<path id="XMLID_210_" class="st44" d="M190,224c0,0.1-0.1,0.1-0.2,0.2c0.2,0.9,0.7,4.4,1.3,8.2c1.5-5.1,3.3-10.6,4.1-11.8
					c1.3-1.9,1.3-2.9,1.3-3.4c-0.6,2.5-4.8,7.4-4.7,5.9c0-0.5-0.3-1.1-0.8-1.6C191,222.3,190.5,222.9,190,224z"/>
				<path id="XMLID_209_" class="st44" d="M195.8,222L195.8,222C195.8,222,195.9,222,195.8,222C195.8,222,195.8,222,195.8,222z"/>
				<path id="XMLID_208_" class="st45" d="M191.1,232.4c-0.6-3.8-1.1-7.3-1.3-8.2c0.1,0,0.1-0.1,0.2-0.2c0.5-1,1-1.6,1-2.5
					c-0.8-0.9-2.1-1.8-2.2-2.2c-0.1,0.4-1.3,1.3-2.2,2.2c0.1,0.9,0.6,1.5,1,2.5c0,0.1,0.1,0.1,0.2,0.2c-0.2,0.9-0.7,4.2-1.2,7.9
					c0.6,1.8,1.1,3.6,1.7,5.4c0.1,0,0.2,0,0.3,0c0.3,0,0.7,0,1,0C190.1,235.9,190.6,234.2,191.1,232.4z"/>
				<path id="XMLID_207_" class="st46" d="M181.7,215.8c-0.1,0.1-0.2,0.2-0.3,0.3c-0.1,0.2-0.2,0.4-0.2,0.8c0,0,0,0.1,0,0.2
					c0.5,2.5,4.8,7.5,4.7,6c0-0.5,0.3-1.1,0.8-1.6c0.8-0.9,2.1-1.8,2.2-2.2c0.1,0.4,1.3,1.3,2.2,2.2c0.5,0.5,0.8,1.1,0.8,1.6
					c-0.1,1.5,4.1-3.4,4.7-5.9c0-0.1,0-0.2,0-0.3c0-0.4-0.1-0.7-0.2-0.8c-0.1,0-0.1-0.1-0.2-0.2c-0.1-0.1-0.1-0.1-0.1-0.1s0,0,0,0
					c-0.4-0.3-0.8-0.8-1.3-1.6c-0.1-0.1-0.2-0.1-0.4,0c-0.6,0.5-2,2.2-5.4,4.9c0,0,0,0-0.1,0.1c0,0,0-0.1-0.1-0.1
					c-3.4-2.6-4.8-4.4-5.4-4.9c-0.2-0.2-0.3-0.2-0.4,0C182.6,214.9,182.1,215.4,181.7,215.8C181.8,215.8,181.8,215.8,181.7,215.8
					C181.8,215.8,181.8,215.8,181.7,215.8z"/>
				<path id="XMLID_206_" class="st12" d="M185.5,212.6c0.4,0.3,0.8,0.5,1.3,0.7c0.4,0.2,0.8,0.3,1.3,0.3c0.5,0.1,1.1,0.1,1.6,0
					c0.4,0,0.8-0.1,1.3-0.3c0.4-0.1,0.9-0.3,1.3-0.6c0.5-0.3,0.9-0.6,1.3-1c0.1-0.1,0.1-0.1,0.2-0.2c0.1-0.1,0.1-0.1,0.2-0.2
					c1.8-1.7,1.8-6,2.2-5.7c1,0.7,1.6-1.3,1.7-2.5c0.1-1-0.3-1.5-0.7-1.3c-0.1,0.2-0.2,0.4-0.4,0.5c0,0-0.6,2.5-0.9,2.5
					c-0.3-0.1-0.1-2.4,0.3-5c0.4-2.8-3.1-1.6-5.5-1.7c-2.5-0.1-8.1-0.6-8.6,0.8c-0.4,1.3,0.4,5.4,0.1,5.6c-0.4,0.2-0.8-1.8-1.1-2.2
					c-0.1-0.1-0.1-0.2-0.2-0.4c-0.4,0-0.6,0.5-0.5,1.4c0.1,1.2,0.8,3.1,1.7,2.5c0.4-0.3,0.4,4,2.2,5.7c0,0,0,0,0,0
					C184.5,212,185,212.3,185.5,212.6z"/>
				<path id="XMLID_205_" class="st47" d="M182.1,204.7c0.4-0.2-0.5-4.2-0.1-5.6c0.4-1.3,6.1-0.9,8.6-0.8c2.5,0.1,6-1.2,5.5,1.7
					c-0.4,2.7-0.5,5-0.3,5c0.3,0.1,0.9-2.5,0.9-2.5c0.2-0.1,0.3-0.3,0.4-0.5c0.7-1.5,0.4-5.4,0.4-6.1c0-0.8-1.2-2.1-1.8-2.1
					s-0.1-2.2-3.7-3.2c-3.6-0.9-6.7-0.5-8.5,0.4c-1.8,0.9-3.1,2.4-3.9,2.6c-0.8,0.2,0.3,0.8-0.4,1.3c-0.6,0.6,0.4,1.3,0.6,2.4
					c0.1,0.9,0.5,3.6,0.8,4.6c0.1,0.2,0.1,0.4,0.2,0.4C181.3,202.8,181.7,204.8,182.1,204.7z"/>
				<path id="XMLID_204_" class="st48" d="M199,218.3c0.9,1.5,0.9,2.5,1.5,2.9c0.6,0.4-4.2,0.8-4.7,0.8c0,0,0,0,0,0l3.3,2.5
					c0,0-2.9,3.9-4.5,6.3c-0.5,0.8-1.9,3.2-2.7,4.5c-0.2,0.4-0.6,1.2-1.1,2.1c4.5-0.3,8.8-1.7,12.5-3.9c0.5-5.7,1.8-13.4,4.4-12.9
					c-1-0.4-3.9-1-5.8-1.8c-1.7-0.7-3-1.5-3.8-1.5C198.5,217.5,198.8,217.8,199,218.3z"/>
				<path id="XMLID_203_" d="M196.1,215.9c0.1,0,0.1,0.1,0.2,0.2c0.1,0.2,0.3,0.4,0.2,0.8c0,0.1,0,0.1,0,0.3c0,0.5,0,1.5-1.3,3.4
					c-0.8,1.2-2.7,6.7-4.1,11.8c-0.5,1.8-1,3.6-1.4,5.1c0.4,0,0.8,0,1.2-0.1c0.5-0.9,0.9-1.7,1.1-2.1c0.8-1.3,2.1-3.7,2.7-4.5
					c1.6-2.3,4.5-6.3,4.5-6.3l-3.3-2.5l0,0c0,0,0,0,0,0c0.5,0,5.3-0.4,4.7-0.8c-0.6-0.5-0.7-1.4-1.5-2.9c-0.2-0.4-0.6-0.8-0.9-1.1
					c-0.4-0.4-0.9-0.7-1.1-0.9C196.5,215.8,196.1,215.8,196.1,215.9c-0.1-0.1-0.1-0.1-0.1-0.1S196,215.8,196.1,215.9z"/>
				<path id="XMLID_202_" class="st49" d="M174.8,233.9c3.6,2,7.6,3.2,11.9,3.5c-0.5-1-0.8-1.8-1-2.1c-0.8-1.3-2.1-3.7-2.7-4.5
					c-1.6-2.3-4.5-6.3-4.5-6.3l3.4-2.5c0,0-5.4-0.4-4.7-0.8c0.6-0.5,0.7-1.4,1.5-2.9c0.3-0.5,0.6-0.8,0.9-1.1
					c-0.8,0.2-1.9,0.9-3.3,1.5c-2.1,0.9-5.4,1.5-6.1,1.9C173,219.9,174.3,228.1,174.8,233.9z"/>
				<path id="XMLID_201_" d="M178.7,218.3c-0.9,1.5-0.9,2.5-1.5,2.9c-0.6,0.5,4.7,0.8,4.7,0.8l-3.4,2.5c0,0,2.9,3.9,4.5,6.3
					c0.5,0.8,1.9,3.2,2.7,4.5c0.1,0.2,0.5,1,1,2.1c0.6,0,1.1,0.1,1.7,0.1c-0.5-1.7-1.1-3.6-1.7-5.4c-1.8-5.5-3.5-10.6-4.2-11.5
					c-1.4-2-1.3-3-1.3-3.5c0-0.1,0-0.2,0-0.2c0-0.4,0.1-0.6,0.2-0.8c0.1-0.1,0.2-0.2,0.3-0.3c0,0,0.1,0,0.1,0s0,0,0,0
					c-0.1,0-0.5,0-1.1,0.5c-0.2,0.2-0.6,0.5-1,0.8C179.3,217.4,179,217.8,178.7,218.3z"/>
				<path id="XMLID_200_" d="M174.8,233.9c-0.4-5.8-1.8-14-4.5-13.4c-0.1,0-0.2,0.1-0.3,0.1c-0.6,0.3-1.2,3.5-2,8
					C169.9,230.7,172.2,232.5,174.8,233.9z"/>
				<path id="XMLID_199_" d="M203.4,233.4c2.5-1.5,4.8-3.3,6.7-5.4c-0.7-4.1-1.3-7.1-1.9-7.4c-0.1-0.1-0.3-0.1-0.4-0.1
					C205.2,220.1,203.9,227.7,203.4,233.4z"/>
			</g>
		</g>
		<g>
			<circle id="XMLID_197_" class="st5" cx="236.9" cy="261.9" r="29"/>
			<g id="XMLID_180_">
				<path id="XMLID_196_" class="st9" d="M244.4,269.3c0.1,0.1,0.1,0.1,0.2,0.2C244.5,269.4,244.5,269.3,244.4,269.3z"/>
				<path id="XMLID_195_" class="st9" d="M230,269.2c-0.1,0-0.2,0.1-0.3,0.3C229.8,269.4,229.9,269.3,230,269.2z"/>
				<path id="XMLID_194_" class="st11" d="M237.1,272.5C237.2,272.5,237.2,272.5,237.1,272.5c0.1,0,0.1,0,0.1,0
					c3.4-2.6,4.8-4.4,5.4-4.9c-0.4-0.9-0.6-1.8-0.7-2.5c-0.1,0.1-0.1,0.1-0.2,0.2c-0.4,0.4-0.9,0.7-1.3,1c-0.4,0.2-0.8,0.4-1.3,0.6
					c-0.4,0.1-0.8,0.2-1.3,0.3c-0.5,0.1-1.1,0-1.6,0c-0.4-0.1-0.9-0.2-1.3-0.3c-0.5-0.2-0.9-0.4-1.3-0.7c-0.5-0.3-0.9-0.7-1.3-1.1
					c0,0,0,0,0,0c-0.1,0.8-0.2,1.7-0.7,2.7C232.4,268.1,233.7,269.9,237.1,272.5z"/>
				<path id="XMLID_193_" class="st44" d="M236.1,277.4c-0.5-1-1-1.6-1-2.5c-0.5,0.5-0.8,1.1-0.8,1.6c0.1,1.5-4.2-3.5-4.7-6
					c-0.1,0.4-0.1,1.5,1.3,3.5c0.7,1,2.4,6.1,4.2,11.5c0.6-3.7,1.1-7,1.2-7.9C236.2,277.5,236.1,277.5,236.1,277.4z"/>
				<path id="XMLID_192_" class="st44" d="M238.3,277.4c0,0.1-0.1,0.1-0.2,0.2c0.2,0.9,0.7,4.4,1.3,8.2c1.5-5.1,3.3-10.6,4.1-11.8
					c1.3-1.9,1.3-2.9,1.3-3.4c-0.6,2.5-4.8,7.4-4.7,5.9c0-0.5-0.3-1.1-0.8-1.6C239.3,275.7,238.8,276.3,238.3,277.4z"/>
				<path id="XMLID_191_" class="st44" d="M244.1,275.4L244.1,275.4C244.2,275.4,244.2,275.4,244.1,275.4
					C244.1,275.4,244.1,275.4,244.1,275.4z"/>
				<path id="XMLID_190_" class="st45" d="M239.4,285.8c-0.6-3.8-1.1-7.3-1.3-8.2c0.1,0,0.1-0.1,0.2-0.2c0.5-1,1-1.6,1-2.5
					c-0.8-0.9-2.1-1.8-2.2-2.2c-0.1,0.4-1.3,1.3-2.2,2.2c0.1,0.9,0.6,1.5,1,2.5c0,0.1,0.1,0.1,0.2,0.2c-0.2,0.9-0.7,4.2-1.2,7.9
					c0.6,1.8,1.1,3.6,1.7,5.4c0.1,0,0.2,0,0.3,0c0.3,0,0.7,0,1,0C238.4,289.3,238.9,287.6,239.4,285.8z"/>
				<path id="XMLID_189_" class="st46" d="M230,269.2c-0.1,0.1-0.2,0.2-0.3,0.3c-0.1,0.2-0.2,0.4-0.2,0.8c0,0,0,0.1,0,0.2
					c0.5,2.5,4.8,7.5,4.7,6c0-0.5,0.3-1.1,0.8-1.6c0.8-0.9,2.1-1.8,2.2-2.2c0.1,0.4,1.3,1.3,2.2,2.2c0.5,0.5,0.8,1.1,0.8,1.6
					c-0.1,1.5,4.1-3.4,4.7-5.9c0-0.1,0-0.2,0-0.3c0-0.4-0.1-0.7-0.2-0.8c-0.1,0-0.1-0.1-0.2-0.2c-0.1-0.1-0.1-0.1-0.1-0.1s0,0,0,0
					c-0.4-0.3-0.8-0.8-1.3-1.6c-0.1-0.1-0.2-0.1-0.4,0c-0.6,0.5-2,2.2-5.4,4.9c0,0,0,0-0.1,0.1c0,0,0-0.1-0.1-0.1
					c-3.4-2.6-4.8-4.4-5.4-4.9c-0.2-0.2-0.3-0.2-0.4,0C230.9,268.3,230.4,268.8,230,269.2C230.1,269.2,230.1,269.2,230,269.2
					C230.1,269.2,230.1,269.2,230,269.2z"/>
				<path id="XMLID_188_" class="st12" d="M233.8,266c0.4,0.3,0.8,0.5,1.3,0.7c0.4,0.2,0.8,0.3,1.3,0.3c0.5,0.1,1.1,0.1,1.6,0
					c0.4,0,0.8-0.1,1.3-0.3c0.4-0.1,0.9-0.3,1.3-0.6c0.5-0.3,0.9-0.6,1.3-1c0.1-0.1,0.1-0.1,0.2-0.2c0.1-0.1,0.1-0.1,0.2-0.2
					c1.8-1.7,1.8-6,2.2-5.7c1,0.7,1.6-1.3,1.7-2.5c0.1-1-0.3-1.5-0.7-1.3c-0.1,0.2-0.2,0.4-0.4,0.5c0,0-0.6,2.5-0.9,2.5
					c-0.3-0.1-0.1-2.4,0.3-5c0.4-2.8-3.1-1.6-5.5-1.7c-2.5-0.1-8.1-0.6-8.6,0.8c-0.4,1.3,0.4,5.4,0.1,5.6c-0.4,0.2-0.8-1.8-1.1-2.2
					c-0.1-0.1-0.1-0.2-0.2-0.4c-0.4,0-0.6,0.5-0.5,1.4c0.1,1.2,0.8,3.1,1.7,2.5c0.4-0.3,0.4,4,2.2,5.7c0,0,0,0,0,0
					C232.9,265.4,233.3,265.7,233.8,266z"/>
				<path id="XMLID_187_" class="st47" d="M230.4,258.1c0.4-0.2-0.5-4.2-0.1-5.6c0.4-1.3,6.1-0.9,8.6-0.8c2.5,0.1,6-1.2,5.5,1.7
					c-0.4,2.7-0.5,5-0.3,5c0.3,0.1,0.9-2.5,0.9-2.5c0.2-0.1,0.3-0.3,0.4-0.5c0.7-1.5,0.4-5.4,0.4-6.1c0-0.8-1.2-2.1-1.8-2.1
					s-0.1-2.2-3.7-3.2c-3.6-0.9-6.7-0.5-8.5,0.4c-1.8,0.9-3.1,2.4-3.9,2.6c-0.8,0.2,0.3,0.8-0.4,1.3c-0.6,0.6,0.4,1.3,0.6,2.4
					c0.1,0.9,0.5,3.6,0.8,4.6c0.1,0.2,0.1,0.4,0.2,0.4C229.6,256.2,230,258.2,230.4,258.1z"/>
				<path id="XMLID_186_" class="st48" d="M247.4,271.7c0.9,1.5,0.9,2.5,1.5,2.9c0.6,0.4-4.2,0.8-4.7,0.8c0,0,0,0,0,0l3.3,2.5
					c0,0-2.9,3.9-4.5,6.3c-0.5,0.8-1.9,3.2-2.7,4.5c-0.2,0.4-0.6,1.2-1.1,2.1c4.5-0.3,8.8-1.7,12.5-3.9c0.5-5.7,1.8-13.4,4.4-12.9
					c-1-0.4-3.9-1-5.8-1.8c-1.7-0.7-3-1.5-3.8-1.5C246.8,270.9,247.1,271.2,247.4,271.7z"/>
				<path id="XMLID_185_" d="M244.4,269.3c0.1,0,0.1,0.1,0.2,0.2c0.1,0.2,0.3,0.4,0.2,0.8c0,0.1,0,0.1,0,0.3c0,0.5,0,1.5-1.3,3.4
					c-0.8,1.2-2.7,6.7-4.1,11.8c-0.5,1.8-1,3.6-1.4,5.1c0.4,0,0.8,0,1.2-0.1c0.5-0.9,0.9-1.7,1.1-2.1c0.8-1.3,2.1-3.7,2.7-4.5
					c1.6-2.3,4.5-6.3,4.5-6.3l-3.3-2.5l0,0c0,0,0,0,0,0c0.5,0,5.3-0.4,4.7-0.8c-0.6-0.5-0.7-1.4-1.5-2.9c-0.2-0.4-0.6-0.8-0.9-1.1
					c-0.4-0.4-0.9-0.7-1.1-0.9C244.8,269.2,244.4,269.2,244.4,269.3c-0.1-0.1-0.1-0.1-0.1-0.1S244.3,269.2,244.4,269.3z"/>
				<path id="XMLID_184_" class="st49" d="M223.1,287.3c3.6,2,7.6,3.2,11.9,3.5c-0.5-1-0.8-1.8-1-2.1c-0.8-1.3-2.1-3.7-2.7-4.5
					c-1.6-2.3-4.5-6.3-4.5-6.3l3.4-2.5c0,0-5.4-0.4-4.7-0.8c0.6-0.5,0.7-1.4,1.5-2.9c0.3-0.5,0.6-0.8,0.9-1.1
					c-0.8,0.2-1.9,0.9-3.3,1.5c-2.1,0.9-5.4,1.5-6.1,1.9C221.3,273.3,222.6,281.5,223.1,287.3z"/>
				<path id="XMLID_183_" d="M227,271.7c-0.9,1.5-0.9,2.5-1.5,2.9c-0.6,0.5,4.7,0.8,4.7,0.8l-3.4,2.5c0,0,2.9,3.9,4.5,6.3
					c0.5,0.8,1.9,3.2,2.7,4.5c0.1,0.2,0.5,1,1,2.1c0.6,0,1.1,0.1,1.7,0.1c-0.5-1.7-1.1-3.6-1.7-5.4c-1.8-5.5-3.5-10.6-4.2-11.5
					c-1.4-2-1.3-3-1.3-3.5c0-0.1,0-0.2,0-0.2c0-0.4,0.1-0.6,0.2-0.8c0.1-0.1,0.2-0.2,0.3-0.3c0,0,0.1,0,0.1,0s0,0,0,0
					c-0.1,0-0.5,0-1.1,0.5c-0.2,0.2-0.6,0.5-1,0.8C227.6,270.8,227.3,271.2,227,271.7z"/>
				<path id="XMLID_182_" d="M223.1,287.3c-0.4-5.8-1.8-14-4.5-13.4c-0.1,0-0.2,0.1-0.3,0.1c-0.6,0.3-1.2,3.5-2,8
					C218.2,284.1,220.5,285.9,223.1,287.3z"/>
				<path id="XMLID_181_" d="M251.7,286.8c2.5-1.5,4.8-3.3,6.7-5.4c-0.7-4.1-1.3-7.1-1.9-7.4c-0.1-0.1-0.3-0.1-0.4-0.1
					C253.5,273.5,252.2,281.1,251.7,286.8z"/>
			</g>
		</g>
		<g>
			<circle id="XMLID_179_" class="st5" cx="297.1" cy="261.9" r="29"/>
			<g id="XMLID_162_">
				<path id="XMLID_178_" class="st9" d="M304.6,269.3c0.1,0.1,0.1,0.1,0.2,0.2C304.7,269.4,304.6,269.3,304.6,269.3z"/>
				<path id="XMLID_177_" class="st9" d="M290.2,269.2c-0.1,0-0.2,0.1-0.3,0.3C290,269.4,290.1,269.3,290.2,269.2z"/>
				<path id="XMLID_176_" class="st11" d="M297.3,272.5C297.4,272.5,297.4,272.5,297.3,272.5c0.1,0,0.1,0,0.1,0
					c3.4-2.6,4.8-4.4,5.4-4.9c-0.4-0.9-0.6-1.8-0.7-2.5c-0.1,0.1-0.1,0.1-0.2,0.2c-0.4,0.4-0.9,0.7-1.3,1c-0.4,0.2-0.8,0.4-1.3,0.6
					c-0.4,0.1-0.8,0.2-1.3,0.3c-0.5,0.1-1.1,0-1.6,0c-0.4-0.1-0.9-0.2-1.3-0.3c-0.5-0.2-0.9-0.4-1.3-0.7c-0.5-0.3-0.9-0.7-1.3-1.1
					c0,0,0,0,0,0c-0.1,0.8-0.2,1.7-0.7,2.7C292.6,268.1,293.9,269.9,297.3,272.5z"/>
				<path id="XMLID_175_" class="st44" d="M296.2,277.4c-0.5-1-1-1.6-1-2.5c-0.5,0.5-0.8,1.1-0.8,1.6c0.1,1.5-4.2-3.5-4.7-6
					c-0.1,0.4-0.1,1.5,1.3,3.5c0.7,1,2.4,6.1,4.2,11.5c0.6-3.7,1.1-7,1.2-7.9C296.3,277.5,296.3,277.5,296.2,277.4z"/>
				<path id="XMLID_174_" class="st44" d="M298.5,277.4c0,0.1-0.1,0.1-0.2,0.2c0.2,0.9,0.7,4.4,1.3,8.2c1.5-5.1,3.3-10.6,4.1-11.8
					c1.3-1.9,1.3-2.9,1.3-3.4c-0.6,2.5-4.8,7.4-4.7,5.9c0-0.5-0.3-1.1-0.8-1.6C299.5,275.7,299,276.3,298.5,277.4z"/>
				<path id="XMLID_173_" class="st44" d="M304.3,275.4L304.3,275.4C304.3,275.4,304.3,275.4,304.3,275.4
					C304.3,275.4,304.3,275.4,304.3,275.4z"/>
				<path id="XMLID_172_" class="st45" d="M299.6,285.8c-0.6-3.8-1.1-7.3-1.3-8.2c0.1,0,0.1-0.1,0.2-0.2c0.5-1,1-1.6,1-2.5
					c-0.8-0.9-2.1-1.8-2.2-2.2c-0.1,0.4-1.3,1.3-2.2,2.2c0.1,0.9,0.6,1.5,1,2.5c0,0.1,0.1,0.1,0.2,0.2c-0.2,0.9-0.7,4.2-1.2,7.9
					c0.6,1.8,1.1,3.6,1.7,5.4c0.1,0,0.2,0,0.3,0c0.3,0,0.7,0,1,0C298.6,289.3,299.1,287.6,299.6,285.8z"/>
				<path id="XMLID_171_" class="st46" d="M290.2,269.2c-0.1,0.1-0.2,0.2-0.3,0.3c-0.1,0.2-0.2,0.4-0.2,0.8c0,0,0,0.1,0,0.2
					c0.5,2.5,4.8,7.5,4.7,6c0-0.5,0.3-1.1,0.8-1.6c0.8-0.9,2.1-1.8,2.2-2.2c0.1,0.4,1.3,1.3,2.2,2.2c0.5,0.5,0.8,1.1,0.8,1.6
					c-0.1,1.5,4.1-3.4,4.7-5.9c0-0.1,0-0.2,0-0.3c0-0.4-0.1-0.7-0.2-0.8c-0.1,0-0.1-0.1-0.2-0.2c-0.1-0.1-0.1-0.1-0.1-0.1s0,0,0,0
					c-0.4-0.3-0.8-0.8-1.3-1.6c-0.1-0.1-0.2-0.1-0.4,0c-0.6,0.5-2,2.2-5.4,4.9c0,0,0,0-0.1,0.1c0,0,0-0.1-0.1-0.1
					c-3.4-2.6-4.8-4.4-5.4-4.9c-0.2-0.2-0.3-0.2-0.4,0C291.1,268.3,290.6,268.8,290.2,269.2C290.3,269.2,290.3,269.2,290.2,269.2
					C290.3,269.2,290.2,269.2,290.2,269.2z"/>
				<path id="XMLID_170_" class="st12" d="M294,266c0.4,0.3,0.8,0.5,1.3,0.7c0.4,0.2,0.8,0.3,1.3,0.3c0.5,0.1,1.1,0.1,1.6,0
					c0.4,0,0.8-0.1,1.3-0.3c0.4-0.1,0.9-0.3,1.3-0.6c0.5-0.3,0.9-0.6,1.3-1c0.1-0.1,0.1-0.1,0.2-0.2c0.1-0.1,0.1-0.1,0.2-0.2
					c1.8-1.7,1.8-6,2.2-5.7c1,0.7,1.6-1.3,1.7-2.5c0.1-1-0.3-1.5-0.7-1.3c-0.1,0.2-0.2,0.4-0.4,0.5c0,0-0.6,2.5-0.9,2.5
					c-0.3-0.1-0.1-2.4,0.3-5c0.4-2.8-3.1-1.6-5.5-1.7c-2.5-0.1-8.1-0.6-8.6,0.8c-0.4,1.3,0.4,5.4,0.1,5.6c-0.4,0.2-0.8-1.8-1.1-2.2
					c-0.1-0.1-0.1-0.2-0.2-0.4c-0.4,0-0.6,0.5-0.5,1.4c0.1,1.2,0.8,3.1,1.7,2.5c0.4-0.3,0.4,4,2.2,5.7c0,0,0,0,0,0
					C293,265.4,293.5,265.7,294,266z"/>
				<path id="XMLID_169_" class="st47" d="M290.6,258.1c0.4-0.2-0.5-4.2-0.1-5.6c0.4-1.3,6.1-0.9,8.6-0.8c2.5,0.1,6-1.2,5.5,1.7
					c-0.4,2.7-0.5,5-0.3,5c0.3,0.1,0.9-2.5,0.9-2.5c0.2-0.1,0.3-0.3,0.4-0.5c0.7-1.5,0.4-5.4,0.4-6.1c0-0.8-1.2-2.1-1.8-2.1
					c-0.5,0-0.1-2.2-3.7-3.2s-6.7-0.5-8.5,0.4c-1.8,0.9-3.1,2.4-3.9,2.6c-0.8,0.2,0.3,0.8-0.4,1.3c-0.6,0.6,0.4,1.3,0.6,2.4
					c0.1,0.9,0.5,3.6,0.8,4.6c0.1,0.2,0.1,0.4,0.2,0.4C289.8,256.2,290.2,258.2,290.6,258.1z"/>
				<path id="XMLID_168_" class="st48" d="M307.5,271.7c0.9,1.5,0.9,2.5,1.5,2.9c0.6,0.4-4.2,0.8-4.7,0.8c0,0,0,0,0,0l3.3,2.5
					c0,0-2.9,3.9-4.5,6.3c-0.5,0.8-1.9,3.2-2.7,4.5c-0.2,0.4-0.6,1.2-1.1,2.1c4.5-0.3,8.8-1.7,12.5-3.9c0.5-5.7,1.8-13.4,4.4-12.9
					c-1-0.4-3.9-1-5.8-1.8c-1.7-0.7-3-1.5-3.8-1.5C307,270.9,307.3,271.2,307.5,271.7z"/>
				<path id="XMLID_167_" d="M304.6,269.3c0.1,0,0.1,0.1,0.2,0.2c0.1,0.2,0.3,0.4,0.2,0.8c0,0.1,0,0.1,0,0.3c0,0.5,0,1.5-1.3,3.4
					c-0.8,1.2-2.7,6.7-4.1,11.8c-0.5,1.8-1,3.6-1.4,5.1c0.4,0,0.8,0,1.2-0.1c0.5-0.9,0.9-1.7,1.1-2.1c0.8-1.3,2.1-3.7,2.7-4.5
					c1.6-2.3,4.5-6.3,4.5-6.3l-3.3-2.5l0,0c0,0,0,0,0,0c0.5,0,5.3-0.4,4.7-0.8c-0.6-0.5-0.7-1.4-1.5-2.9c-0.2-0.4-0.6-0.8-0.9-1.1
					c-0.4-0.4-0.9-0.7-1.1-0.9C305,269.2,304.6,269.2,304.6,269.3c-0.1-0.1-0.1-0.1-0.1-0.1S304.5,269.2,304.6,269.3z"/>
				<path id="XMLID_166_" class="st49" d="M283.2,287.3c3.6,2,7.6,3.2,11.9,3.5c-0.5-1-0.8-1.8-1-2.1c-0.8-1.3-2.1-3.7-2.7-4.5
					c-1.6-2.3-4.5-6.3-4.5-6.3l3.4-2.5c0,0-5.4-0.4-4.7-0.8c0.6-0.5,0.7-1.4,1.5-2.9c0.3-0.5,0.6-0.8,0.9-1.1
					c-0.8,0.2-1.9,0.9-3.3,1.5c-2.1,0.9-5.4,1.5-6.1,1.9C281.5,273.3,282.8,281.5,283.2,287.3z"/>
				<path id="XMLID_165_" d="M287.2,271.7c-0.9,1.5-0.9,2.5-1.5,2.9c-0.6,0.5,4.7,0.8,4.7,0.8l-3.4,2.5c0,0,2.9,3.9,4.5,6.3
					c0.5,0.8,1.9,3.2,2.7,4.5c0.1,0.2,0.5,1,1,2.1c0.6,0,1.1,0.1,1.7,0.1c-0.5-1.7-1.1-3.6-1.7-5.4c-1.8-5.5-3.5-10.6-4.2-11.5
					c-1.4-2-1.3-3-1.3-3.5c0-0.1,0-0.2,0-0.2c0-0.4,0.1-0.6,0.2-0.8c0.1-0.1,0.2-0.2,0.3-0.3c0,0,0.1,0,0.1,0s0,0,0,0
					c-0.1,0-0.5,0-1.1,0.5c-0.2,0.2-0.6,0.5-1,0.8C287.8,270.8,287.5,271.2,287.2,271.7z"/>
				<path id="XMLID_164_" d="M283.2,287.3c-0.4-5.8-1.8-14-4.5-13.4c-0.1,0-0.2,0.1-0.3,0.1c-0.6,0.3-1.2,3.5-2,8
					C278.4,284.1,280.7,285.9,283.2,287.3z"/>
				<path id="XMLID_163_" d="M311.9,286.8c2.5-1.5,4.8-3.3,6.7-5.4c-0.7-4.1-1.3-7.1-1.9-7.4c-0.1-0.1-0.3-0.1-0.4-0.1
					C313.7,273.5,312.4,281.1,311.9,286.8z"/>
			</g>
		</g>
		<g>
			<circle id="XMLID_161_" class="st5" cx="342" cy="211.9" r="29"/>
			<g id="XMLID_144_">
				<path id="XMLID_160_" class="st9" d="M349.5,219.3c0.1,0.1,0.1,0.1,0.2,0.2C349.6,219.3,349.6,219.3,349.5,219.3z"/>
				<path id="XMLID_159_" class="st9" d="M335.1,219.2c-0.1,0-0.2,0.1-0.3,0.3C334.9,219.4,335,219.3,335.1,219.2z"/>
				<path id="XMLID_158_" class="st11" d="M342.2,222.5C342.3,222.5,342.3,222.5,342.2,222.5c0.1,0,0.1,0,0.1,0
					c3.4-2.6,4.8-4.4,5.4-4.9c-0.4-0.9-0.6-1.8-0.7-2.5c-0.1,0.1-0.1,0.1-0.2,0.2c-0.4,0.4-0.9,0.7-1.3,1c-0.4,0.2-0.8,0.4-1.3,0.6
					c-0.4,0.1-0.8,0.2-1.3,0.3c-0.5,0.1-1.1,0-1.6,0c-0.4-0.1-0.9-0.2-1.3-0.3c-0.5-0.2-0.9-0.4-1.3-0.7c-0.5-0.3-0.9-0.7-1.3-1.1
					c0,0,0,0,0,0c-0.1,0.8-0.2,1.7-0.7,2.7C337.5,218.1,338.8,219.9,342.2,222.5z"/>
				<path id="XMLID_157_" class="st44" d="M341.2,227.4c-0.5-1-1-1.6-1-2.5c-0.5,0.5-0.8,1.1-0.8,1.6c0.1,1.5-4.2-3.5-4.7-6
					c-0.1,0.4-0.1,1.5,1.3,3.5c0.7,1,2.4,6.1,4.2,11.5c0.6-3.7,1.1-7,1.2-7.9C341.3,227.5,341.2,227.5,341.2,227.4z"/>
				<path id="XMLID_156_" class="st44" d="M343.4,227.4c0,0.1-0.1,0.1-0.2,0.2c0.2,0.9,0.7,4.4,1.3,8.2c1.5-5.1,3.3-10.6,4.1-11.8
					c1.3-1.9,1.3-2.9,1.3-3.4c-0.6,2.5-4.8,7.4-4.7,5.9c0-0.5-0.3-1.1-0.8-1.6C344.4,225.7,343.9,226.3,343.4,227.4z"/>
				<path id="XMLID_155_" class="st44" d="M349.2,225.4L349.2,225.4C349.3,225.4,349.3,225.4,349.2,225.4
					C349.2,225.4,349.2,225.4,349.2,225.4z"/>
				<path id="XMLID_154_" class="st45" d="M344.5,235.8c-0.6-3.8-1.1-7.3-1.3-8.2c0.1,0,0.1-0.1,0.2-0.2c0.5-1,1-1.6,1-2.5
					c-0.8-0.9-2.1-1.8-2.2-2.2c-0.1,0.4-1.3,1.3-2.2,2.2c0.1,0.9,0.6,1.5,1,2.5c0,0.1,0.1,0.1,0.2,0.2c-0.2,0.9-0.7,4.2-1.2,7.9
					c0.6,1.8,1.1,3.6,1.7,5.4c0.1,0,0.2,0,0.3,0c0.3,0,0.7,0,1,0C343.5,239.3,344,237.6,344.5,235.8z"/>
				<path id="XMLID_153_" class="st46" d="M335.1,219.2c-0.1,0.1-0.2,0.2-0.3,0.3c-0.1,0.2-0.2,0.4-0.2,0.8c0,0,0,0.1,0,0.2
					c0.5,2.5,4.8,7.5,4.7,6c0-0.5,0.3-1.1,0.8-1.6c0.8-0.9,2.1-1.8,2.2-2.2c0.1,0.4,1.3,1.3,2.2,2.2c0.5,0.5,0.8,1.1,0.8,1.6
					c-0.1,1.5,4.1-3.4,4.7-5.9c0-0.1,0-0.2,0-0.3c0-0.4-0.1-0.7-0.2-0.8c-0.1,0-0.1-0.1-0.2-0.2c-0.1-0.1-0.1-0.1-0.1-0.1s0,0,0,0
					c-0.4-0.3-0.8-0.8-1.3-1.6c-0.1-0.1-0.2-0.1-0.4,0c-0.6,0.5-2,2.2-5.4,4.9c0,0,0,0-0.1,0.1c0,0,0-0.1-0.1-0.1
					c-3.4-2.6-4.8-4.4-5.4-4.9c-0.2-0.2-0.3-0.2-0.4,0C336,218.3,335.5,218.8,335.1,219.2C335.2,219.2,335.2,219.2,335.1,219.2
					C335.2,219.2,335.2,219.2,335.1,219.2z"/>
				<path id="XMLID_152_" class="st12" d="M338.9,216c0.4,0.3,0.8,0.5,1.3,0.7c0.4,0.2,0.8,0.3,1.3,0.3c0.5,0.1,1.1,0.1,1.6,0
					c0.4,0,0.8-0.1,1.3-0.3c0.4-0.1,0.9-0.3,1.3-0.6c0.5-0.3,0.9-0.6,1.3-1c0.1-0.1,0.1-0.1,0.2-0.2c0.1-0.1,0.1-0.1,0.2-0.2
					c1.8-1.7,1.8-6,2.2-5.7c1,0.7,1.6-1.3,1.7-2.5c0.1-1-0.3-1.5-0.7-1.3c-0.1,0.2-0.2,0.4-0.4,0.5c0,0-0.6,2.5-0.9,2.5
					c-0.3-0.1-0.1-2.4,0.3-5c0.4-2.8-3.1-1.6-5.5-1.7c-2.5-0.1-8.1-0.6-8.6,0.8c-0.4,1.3,0.4,5.4,0.1,5.6c-0.4,0.2-0.8-1.8-1.1-2.2
					c-0.1-0.1-0.1-0.2-0.2-0.4c-0.4,0-0.6,0.5-0.5,1.4c0.1,1.2,0.8,3.1,1.7,2.5c0.4-0.3,0.4,4,2.2,5.7c0,0,0,0,0,0
					C338,215.3,338.4,215.7,338.9,216z"/>
				<path id="XMLID_151_" class="st47" d="M335.5,208c0.4-0.2-0.5-4.2-0.1-5.6c0.4-1.3,6.1-0.9,8.6-0.8c2.5,0.1,6-1.2,5.5,1.7
					c-0.4,2.7-0.5,5-0.3,5c0.3,0.1,0.9-2.5,0.9-2.5c0.2-0.1,0.3-0.3,0.4-0.5c0.7-1.5,0.4-5.4,0.4-6.1c0-0.8-1.2-2.1-1.8-2.1
					c-0.5,0-0.1-2.2-3.7-3.2c-3.6-0.9-6.7-0.5-8.5,0.4c-1.8,0.9-3.1,2.4-3.9,2.6c-0.8,0.2,0.3,0.8-0.4,1.3c-0.6,0.6,0.4,1.3,0.6,2.4
					c0.1,0.9,0.5,3.6,0.8,4.6c0.1,0.2,0.1,0.4,0.2,0.4C334.7,206.2,335.1,208.2,335.5,208z"/>
				<path id="XMLID_150_" class="st48" d="M352.5,221.6c0.9,1.5,0.9,2.5,1.5,2.9c0.6,0.4-4.2,0.8-4.7,0.8c0,0,0,0,0,0l3.3,2.5
					c0,0-2.9,3.9-4.5,6.3c-0.5,0.8-1.9,3.2-2.7,4.5c-0.2,0.4-0.6,1.2-1.1,2.1c4.5-0.3,8.8-1.7,12.5-3.9c0.5-5.7,1.8-13.4,4.4-12.9
					c-1-0.4-3.9-1-5.8-1.8c-1.7-0.7-3-1.5-3.8-1.5C351.9,220.9,352.2,221.2,352.5,221.6z"/>
				<path id="XMLID_149_" d="M349.5,219.3c0.1,0,0.1,0.1,0.2,0.2c0.1,0.2,0.3,0.4,0.2,0.8c0,0.1,0,0.1,0,0.3c0,0.5,0,1.5-1.3,3.4
					c-0.8,1.2-2.7,6.7-4.1,11.8c-0.5,1.8-1,3.6-1.4,5.1c0.4,0,0.8,0,1.2-0.1c0.5-0.9,0.9-1.7,1.1-2.1c0.8-1.3,2.1-3.7,2.7-4.5
					c1.6-2.3,4.5-6.3,4.5-6.3l-3.3-2.5l0,0c0,0,0,0,0,0c0.5,0,5.3-0.4,4.7-0.8c-0.6-0.5-0.7-1.4-1.5-2.9c-0.2-0.4-0.6-0.8-0.9-1.1
					c-0.4-0.4-0.9-0.7-1.1-0.9C349.9,219.2,349.5,219.2,349.5,219.3c-0.1-0.1-0.1-0.1-0.1-0.1S349.4,219.2,349.5,219.3z"/>
				<path id="XMLID_148_" class="st49" d="M328.2,237.3c3.6,2,7.6,3.2,11.9,3.5c-0.5-1-0.8-1.8-1-2.1c-0.8-1.3-2.1-3.7-2.7-4.5
					c-1.6-2.3-4.5-6.3-4.5-6.3l3.4-2.5c0,0-5.4-0.4-4.7-0.8c0.6-0.5,0.7-1.4,1.5-2.9c0.3-0.5,0.6-0.8,0.9-1.1
					c-0.8,0.2-1.9,0.9-3.3,1.5c-2.1,0.9-5.4,1.5-6.1,1.9C326.4,223.3,327.7,231.5,328.2,237.3z"/>
				<path id="XMLID_147_" d="M332.1,221.6c-0.9,1.5-0.9,2.5-1.5,2.9c-0.6,0.5,4.7,0.8,4.7,0.8l-3.4,2.5c0,0,2.9,3.9,4.5,6.3
					c0.5,0.8,1.9,3.2,2.7,4.5c0.1,0.2,0.5,1,1,2.1c0.6,0,1.1,0.1,1.7,0.1c-0.5-1.7-1.1-3.6-1.7-5.4c-1.8-5.5-3.5-10.6-4.2-11.5
					c-1.4-2-1.3-3-1.3-3.5c0-0.1,0-0.2,0-0.2c0-0.4,0.1-0.6,0.2-0.8c0.1-0.1,0.2-0.2,0.3-0.3c0,0,0.1,0,0.1,0s0,0,0,0
					c-0.1,0-0.5,0-1.1,0.5c-0.2,0.2-0.6,0.5-1,0.8C332.7,220.8,332.4,221.2,332.1,221.6z"/>
				<path id="XMLID_146_" d="M328.2,237.3c-0.4-5.8-1.8-14-4.5-13.4c-0.1,0-0.2,0.1-0.3,0.1c-0.6,0.3-1.2,3.5-2,8
					C323.3,234.1,325.6,235.9,328.2,237.3z"/>
				<path id="XMLID_145_" d="M356.8,236.8c2.5-1.5,4.8-3.3,6.7-5.4c-0.7-4.1-1.3-7.1-1.9-7.4c-0.1-0.1-0.3-0.1-0.4-0.1
					C358.6,223.5,357.3,231.1,356.8,236.8z"/>
			</g>
		</g>
		<line class="st51" x1="229.4" y1="196.3" x2="210" y2="214.9"/>
		<line class="st51" x1="248.1" y1="209" x2="241.3" y2="232.7"/>
		<line class="st51" x1="276.1" y1="209" x2="287.1" y2="232.7"/>
		<line class="st51" x1="289.6" y1="190.3" x2="315.1" y2="205.6"/>
	</g>
	<g>
		<path class="st2" d="M186,325.8c-2-1.7-2.9-4.3-2.9-7.7c0-3.4,0.9-6,2.8-7.7c1.9-1.7,4.6-2.6,8.1-2.6c1.6,0,3,0.2,4.2,0.5
			c1.2,0.3,2.3,0.7,3.1,1.3c0.2,0.2,0.3,0.4,0.3,0.6c0,0.2-0.1,0.4-0.3,0.7l-1.5,2.5c-0.2,0.3-0.3,0.4-0.6,0.4
			c-0.1,0-0.4-0.1-0.7-0.2c-0.5-0.3-1.1-0.5-1.7-0.6c-0.6-0.2-1.3-0.2-2.1-0.2c-1.6,0-2.8,0.5-3.7,1.4s-1.3,2.3-1.3,4
			c0,1.7,0.5,3.1,1.4,4c0.9,0.9,2.2,1.4,3.8,1.4c1.4,0,2.7-0.3,3.8-0.9c0.3-0.2,0.5-0.2,0.7-0.2c0.2,0,0.4,0.1,0.6,0.4l1.5,2.5
			c0.2,0.3,0.3,0.6,0.3,0.7c0,0.2-0.1,0.4-0.3,0.6c-0.8,0.6-1.9,1-3.1,1.3c-1.3,0.3-2.7,0.5-4.3,0.5
			C190.7,328.4,188,327.5,186,325.8z"/>
		<path class="st2" d="M202.1,327.3c0-0.2,0-0.4,0.1-0.6l7.2-17.4c0.2-0.4,0.4-0.7,0.6-0.9c0.2-0.2,0.5-0.2,0.9-0.2h3.2
			c0.4,0,0.7,0.1,0.9,0.2c0.2,0.2,0.4,0.4,0.6,0.9l7.2,17.4c0.1,0.3,0.1,0.5,0.1,0.6c0,0.4-0.2,0.6-0.6,0.6H217
			c-0.6,0-1-0.3-1.1-0.8l-0.7-2.1H210l-0.7,2.1c-0.2,0.5-0.5,0.8-1.1,0.8h-5.5C202.3,327.9,202.1,327.7,202.1,327.3z M213.7,320.4
			l-1.1-3.6l-1.1,3.6H213.7z"/>
		<path class="st2" d="M224.2,327.5c-0.3-0.3-0.4-0.7-0.4-1.2v-16.4c0-0.6,0.1-1,0.4-1.2s0.7-0.4,1.4-0.4h3.3c0.4,0,0.8,0.1,1,0.2
			c0.3,0.1,0.4,0.3,0.6,0.6l3.4,8.5l3.4-8.5c0.1-0.3,0.3-0.5,0.6-0.6c0.3-0.1,0.6-0.2,1-0.2h3.3c0.7,0,1.1,0.1,1.4,0.4
			c0.3,0.3,0.4,0.7,0.4,1.2v16.4c0,0.6-0.1,1-0.4,1.2c-0.3,0.3-0.7,0.4-1.3,0.4h-2.8c-0.6,0-1.1-0.1-1.4-0.4
			c-0.3-0.3-0.4-0.7-0.4-1.2v-7.9l-1.7,3.9c-0.2,0.6-0.5,1-0.8,1.2s-0.7,0.4-1.3,0.4s-1.1-0.1-1.3-0.4s-0.5-0.6-0.8-1.2l-1.7-3.9
			v7.9c0,0.6-0.1,1-0.4,1.2c-0.3,0.3-0.7,0.4-1.4,0.4h-2.8C224.9,327.9,224.4,327.8,224.2,327.5z"/>
		<path class="st2" d="M246.4,327.5c-0.3-0.3-0.4-0.7-0.4-1.2v-16.4c0-0.6,0.1-1,0.4-1.2c0.3-0.3,0.7-0.4,1.3-0.4h6.9
			c2.9,0,5,0.6,6.3,1.7s2,2.9,2,5.2s-0.7,4.1-2,5.2s-3.4,1.7-6.3,1.7H253v4.2c0,0.6-0.1,1-0.4,1.2c-0.3,0.3-0.7,0.4-1.4,0.4h-3.5
			C247.1,327.9,246.7,327.8,246.4,327.5z M254.1,317.1c0.6,0,1.1-0.2,1.5-0.5c0.4-0.3,0.5-0.8,0.5-1.5c0-0.7-0.2-1.2-0.5-1.5
			c-0.4-0.3-0.8-0.5-1.5-0.5h-2v4H254.1z"/>
		<path class="st2" d="M260.4,327.3c0-0.2,0-0.4,0.1-0.6l7.2-17.4c0.2-0.4,0.4-0.7,0.6-0.9c0.2-0.2,0.5-0.2,0.9-0.2h3.2
			c0.4,0,0.7,0.1,0.9,0.2c0.2,0.2,0.4,0.4,0.6,0.9l7.2,17.4c0.1,0.3,0.1,0.5,0.1,0.6c0,0.4-0.2,0.6-0.6,0.6h-5.5
			c-0.6,0-1-0.3-1.1-0.8l-0.7-2.1h-5.1l-0.7,2.1c-0.2,0.5-0.5,0.8-1.1,0.8H261C260.6,327.9,260.4,327.7,260.4,327.3z M272,320.4
			l-1.1-3.6l-1.1,3.6H272z"/>
		<path class="st2" d="M283.2,327.5c-0.3-0.3-0.4-0.7-0.4-1.2v-16.4c0-0.6,0.1-1,0.4-1.2c0.3-0.3,0.7-0.4,1.4-0.4h2.8
			c0.4,0,0.7,0.1,0.9,0.2c0.2,0.1,0.4,0.3,0.7,0.6l5.2,7.8v-6.9c0-0.6,0.1-1,0.4-1.2c0.3-0.3,0.7-0.4,1.3-0.4h3.5
			c0.7,0,1.1,0.1,1.4,0.4c0.3,0.3,0.4,0.7,0.4,1.3v16.4c0,0.6-0.1,1-0.4,1.2c-0.3,0.3-0.7,0.4-1.4,0.4h-2.8c-0.4,0-0.7-0.1-0.9-0.2
			c-0.2-0.1-0.4-0.3-0.7-0.6l-5.2-7.8v7c0,0.6-0.1,1-0.4,1.2c-0.3,0.3-0.7,0.4-1.4,0.4h-3.5C283.9,327.9,283.4,327.8,283.2,327.5z
			 M293.4,306.6c-0.3-0.1-0.8-0.3-1.3-0.6c-0.5-0.2-0.9-0.4-1.1-0.5c-0.3-0.1-0.5-0.1-0.8-0.1c-0.3,0-0.6,0.1-0.9,0.2
			c-0.2,0.1-0.5,0.4-0.8,0.8c-0.2,0.3-0.4,0.4-0.7,0.4c-0.4,0-1-0.3-1.8-0.9c-0.4-0.3-0.7-0.6-0.9-0.8s-0.3-0.4-0.3-0.6
			c0-0.3,0.1-0.6,0.4-1c0.7-0.9,1.3-1.6,1.8-2c0.6-0.4,1.3-0.6,2.1-0.6c0.6,0,1.1,0.1,1.5,0.2c0.4,0.2,0.9,0.4,1.4,0.6
			c0.4,0.2,0.7,0.3,0.9,0.4s0.5,0.1,0.7,0.1c0.3,0,0.6-0.1,0.8-0.2s0.5-0.4,0.8-0.8c0.2-0.3,0.4-0.4,0.7-0.4c0.4,0,1,0.3,1.8,0.9
			c0.4,0.3,0.7,0.5,0.8,0.7c0.2,0.2,0.2,0.5,0.2,0.7c0,0.3-0.1,0.6-0.4,1c-0.6,0.9-1.2,1.6-1.8,2s-1.3,0.6-2.1,0.6
			C294.1,306.8,293.7,306.7,293.4,306.6z"/>
		<path class="st2" d="M302.6,327.3c0-0.2,0-0.4,0.1-0.6l7.2-17.4c0.2-0.4,0.4-0.7,0.6-0.9c0.2-0.2,0.5-0.2,0.9-0.2h3.2
			c0.4,0,0.7,0.1,0.9,0.2c0.2,0.2,0.4,0.4,0.6,0.9l7.2,17.4c0.1,0.3,0.1,0.5,0.1,0.6c0,0.4-0.2,0.6-0.6,0.6h-5.5
			c-0.6,0-1-0.3-1.1-0.8l-0.7-2.1h-5.1l-0.7,2.1c-0.2,0.5-0.5,0.8-1.1,0.8h-5.5C302.8,327.9,302.6,327.7,302.6,327.3z M314.2,320.4
			l-1.1-3.6l-1.1,3.6H314.2z"/>
		<path class="st2" d="M327.3,327.8c-1.5-0.4-2.7-0.9-3.7-1.5c-0.4-0.3-0.6-0.5-0.6-0.8c0-0.2,0.1-0.4,0.2-0.6l1.7-2.6
			c0.2-0.3,0.3-0.4,0.5-0.4c0.2,0,0.3,0.1,0.6,0.2c0.7,0.4,1.5,0.8,2.4,1c0.9,0.2,1.8,0.4,2.6,0.4c0.7,0,1.2-0.1,1.6-0.3
			s0.5-0.5,0.5-0.9c0-0.4-0.2-0.8-0.6-1.1c-0.4-0.3-1.2-0.6-2.2-1c-2-0.8-3.5-1.6-4.6-2.6s-1.7-2.2-1.7-3.8c0-2,0.7-3.5,2.1-4.5
			c1.4-1,3.3-1.5,5.7-1.5c1.7,0,3.1,0.1,4.2,0.4c1.2,0.3,2.2,0.7,3.1,1.4c0.4,0.3,0.6,0.5,0.6,0.8c0,0.2-0.1,0.4-0.2,0.6l-1.7,2.6
			c-0.2,0.3-0.3,0.4-0.5,0.4c-0.1,0-0.3-0.1-0.6-0.2c-0.5-0.3-1-0.6-1.7-0.8s-1.3-0.3-2.1-0.3c-0.7,0-1.2,0.1-1.5,0.3
			c-0.3,0.2-0.5,0.5-0.5,0.9c0,0.3,0.1,0.6,0.4,0.9c0.2,0.2,0.5,0.4,0.9,0.6c0.4,0.2,1,0.4,1.9,0.8c1.4,0.6,2.6,1.1,3.4,1.7
			c0.8,0.5,1.5,1.2,1.9,1.9c0.4,0.7,0.6,1.7,0.6,2.8c0,1.7-0.7,3.1-2,4.2s-3.3,1.6-5.8,1.6C330.5,328.4,328.8,328.2,327.3,327.8z"/>
		<path class="st2" d="M168,362.3c-0.3-0.3-0.4-0.7-0.4-1.2v-16.4c0-0.6,0.1-1,0.4-1.2s0.7-0.4,1.3-0.4h6.7c6.8,0,10.2,3.3,10.2,9.9
			c0,3.2-0.9,5.7-2.6,7.4s-4.3,2.5-7.6,2.5h-6.7C168.7,362.7,168.2,362.6,168,362.3z M176.2,357.8c1.1,0,1.9-0.4,2.3-1.1
			c0.5-0.7,0.7-2,0.7-3.9c0-1.9-0.2-3.1-0.7-3.9c-0.5-0.7-1.3-1.1-2.3-1.1h-1.7v9.9H176.2z"/>
		<path class="st2" d="M188.1,362.3c-0.3-0.3-0.4-0.7-0.4-1.2v-16.4c0-0.6,0.1-1,0.4-1.2s0.7-0.4,1.3-0.4h12c0.6,0,1,0.1,1.3,0.4
			c0.2,0.3,0.3,0.7,0.3,1.3v1.6c0,0.6-0.1,1-0.3,1.3c-0.2,0.3-0.6,0.4-1.3,0.4h-6.8v2.5h4.2c0.6,0,1,0.1,1.3,0.4
			c0.2,0.3,0.3,0.7,0.3,1.3v1.6c0,0.6-0.1,1-0.3,1.3c-0.2,0.3-0.6,0.4-1.3,0.4h-4.2v2.5h6.8c0.6,0,1,0.1,1.3,0.4
			c0.2,0.3,0.3,0.7,0.3,1.3v1.6c0,0.6-0.1,1-0.3,1.3c-0.2,0.3-0.6,0.4-1.3,0.4h-12C188.8,362.7,188.3,362.6,188.1,362.3z"/>
		<path class="st2" d="M215.4,360.6c-2-1.7-2.9-4.3-2.9-7.7c0-3.4,0.9-6,2.8-7.7c1.9-1.7,4.6-2.6,8.1-2.6c1.6,0,3,0.2,4.2,0.5
			c1.2,0.3,2.3,0.7,3.1,1.3c0.2,0.2,0.3,0.4,0.3,0.6c0,0.2-0.1,0.4-0.3,0.7l-1.5,2.5c-0.2,0.3-0.3,0.4-0.6,0.4
			c-0.1,0-0.4-0.1-0.7-0.2c-0.5-0.3-1.1-0.5-1.7-0.6c-0.6-0.2-1.3-0.2-2.1-0.2c-1.6,0-2.8,0.5-3.7,1.4c-0.9,0.9-1.3,2.3-1.3,4
			c0,1.7,0.5,3.1,1.4,4s2.2,1.4,3.8,1.4c1.4,0,2.7-0.3,3.8-0.9c0.3-0.2,0.5-0.2,0.7-0.2c0.2,0,0.4,0.1,0.6,0.4l1.5,2.5
			c0.2,0.3,0.3,0.6,0.3,0.7c0,0.2-0.1,0.4-0.3,0.6c-0.8,0.6-1.9,1-3.1,1.3c-1.3,0.3-2.7,0.5-4.3,0.5
			C220.1,363.2,217.3,362.3,215.4,360.6z"/>
		<path class="st2" d="M233.5,360.5c-1.8-1.8-2.7-4.3-2.7-7.6c0-3.3,0.9-5.8,2.7-7.6c1.8-1.8,4.4-2.7,7.8-2.7c3.4,0,6.1,0.9,7.8,2.7
			c1.8,1.8,2.7,4.3,2.7,7.6c0,3.3-0.9,5.8-2.7,7.6c-1.8,1.8-4.4,2.7-7.8,2.7C237.9,363.2,235.3,362.3,233.5,360.5z M244.1,356.9
			c0.6-0.9,0.8-2.3,0.8-4.1c0-1.8-0.3-3.2-0.8-4.1s-1.5-1.3-2.7-1.3c-1.3,0-2.2,0.4-2.7,1.3s-0.8,2.3-0.8,4.1c0,1.8,0.3,3.2,0.8,4.1
			c0.6,0.9,1.5,1.3,2.7,1.3C242.6,358.3,243.5,357.8,244.1,356.9z"/>
		<path class="st2" d="M253.7,362.3c-0.3-0.3-0.4-0.7-0.4-1.2v-16.4c0-0.6,0.1-1,0.4-1.2c0.3-0.3,0.7-0.4,1.4-0.4h2.8
			c0.4,0,0.7,0.1,0.9,0.2c0.2,0.1,0.4,0.3,0.7,0.6l5.2,7.8v-6.9c0-0.6,0.1-1,0.4-1.2s0.7-0.4,1.3-0.4h3.5c0.7,0,1.1,0.1,1.4,0.4
			c0.3,0.3,0.4,0.7,0.4,1.3v16.4c0,0.6-0.1,1-0.4,1.2c-0.3,0.3-0.7,0.4-1.4,0.4h-2.8c-0.4,0-0.7-0.1-0.9-0.2
			c-0.2-0.1-0.4-0.3-0.7-0.6l-5.2-7.8v7c0,0.6-0.1,1-0.4,1.2c-0.3,0.3-0.7,0.4-1.4,0.4h-3.5C254.4,362.7,254,362.6,253.7,362.3z"/>
		<path class="st2" d="M278.7,362.3c-0.3-0.3-0.4-0.7-0.4-1.2v-13.1h-4.2c-0.6,0-1-0.1-1.3-0.4c-0.2-0.3-0.3-0.7-0.3-1.3v-1.6
			c0-0.6,0.1-1,0.3-1.3c0.2-0.3,0.6-0.4,1.3-0.4h15.3c0.6,0,1,0.1,1.3,0.4c0.2,0.3,0.3,0.7,0.3,1.3v1.6c0,0.6-0.1,1-0.3,1.3
			c-0.2,0.3-0.6,0.4-1.3,0.4h-4.2v13.1c0,0.6-0.1,1-0.4,1.2c-0.3,0.3-0.7,0.4-1.4,0.4H280C279.4,362.7,278.9,362.6,278.7,362.3z"/>
		<path class="st2" d="M287.7,362.1c0-0.2,0-0.4,0.1-0.6l7.2-17.4c0.2-0.4,0.4-0.7,0.6-0.9c0.2-0.2,0.5-0.2,0.9-0.2h3.2
			c0.4,0,0.7,0.1,0.9,0.2c0.2,0.2,0.4,0.4,0.6,0.9l7.2,17.4c0.1,0.3,0.1,0.5,0.1,0.6c0,0.4-0.2,0.6-0.6,0.6h-5.5
			c-0.6,0-1-0.3-1.1-0.8l-0.7-2.1h-5.1l-0.7,2.1c-0.2,0.5-0.5,0.8-1.1,0.8h-5.5C287.9,362.7,287.7,362.5,287.7,362.1z M299.3,355.2
			l-1.1-3.6l-1.1,3.6H299.3z"/>
		<path class="st2" d="M310.8,360.6c-2-1.7-2.9-4.3-2.9-7.7c0-3.4,0.9-6,2.8-7.7c1.9-1.7,4.6-2.6,8.1-2.6c1.6,0,3,0.2,4.2,0.5
			c1.2,0.3,2.3,0.7,3.1,1.3c0.2,0.2,0.3,0.4,0.3,0.6c0,0.2-0.1,0.4-0.3,0.7l-1.5,2.5c-0.2,0.3-0.3,0.4-0.6,0.4
			c-0.1,0-0.4-0.1-0.7-0.2c-0.5-0.3-1.1-0.5-1.7-0.6c-0.6-0.2-1.3-0.2-2.1-0.2c-1.6,0-2.8,0.5-3.7,1.4c-0.9,0.9-1.3,2.3-1.3,4
			c0,1.7,0.5,3.1,1.4,4s2.2,1.4,3.8,1.4c1.4,0,2.7-0.3,3.8-0.9c0.3-0.2,0.5-0.2,0.7-0.2c0.2,0,0.4,0.1,0.6,0.4l1.5,2.5
			c0.2,0.3,0.3,0.6,0.3,0.7c0,0.2-0.1,0.4-0.3,0.6c-0.8,0.6-1.9,1-3.1,1.3c-1.3,0.3-2.7,0.5-4.3,0.5
			C315.5,363.2,312.8,362.3,310.8,360.6z"/>
		<path class="st2" d="M332.5,362.3c-0.3-0.3-0.4-0.7-0.4-1.2v-13.1h-4.2c-0.6,0-1-0.1-1.3-0.4c-0.2-0.3-0.3-0.7-0.3-1.3v-1.6
			c0-0.6,0.1-1,0.3-1.3c0.2-0.3,0.6-0.4,1.3-0.4h15.3c0.6,0,1,0.1,1.3,0.4c0.2,0.3,0.3,0.7,0.3,1.3v1.6c0,0.6-0.1,1-0.3,1.3
			c-0.2,0.3-0.6,0.4-1.3,0.4h-4.2v13.1c0,0.6-0.1,1-0.4,1.2c-0.3,0.3-0.7,0.4-1.4,0.4h-3.5C333.2,362.7,332.8,362.6,332.5,362.3z"/>
		<path class="st2" d="M346.5,360.5c-1.8-1.8-2.7-4.3-2.7-7.6c0-3.3,0.9-5.8,2.7-7.6s4.4-2.7,7.8-2.7s6.1,0.9,7.8,2.7
			c1.8,1.8,2.7,4.3,2.7,7.6c0,3.3-0.9,5.8-2.7,7.6c-1.8,1.8-4.4,2.7-7.8,2.7S348.3,362.3,346.5,360.5z M357.1,356.9
			c0.6-0.9,0.8-2.3,0.8-4.1c0-1.8-0.3-3.2-0.8-4.1c-0.6-0.9-1.5-1.3-2.7-1.3s-2.2,0.4-2.7,1.3c-0.6,0.9-0.8,2.3-0.8,4.1
			c0,1.8,0.3,3.2,0.8,4.1c0.6,0.9,1.5,1.3,2.7,1.3S356.5,357.8,357.1,356.9z"/>
		<path class="st2" d="M212.3,397.1c-0.3-0.3-0.4-0.7-0.4-1.2v-16.4c0-0.6,0.1-1,0.4-1.2s0.7-0.4,1.4-0.4h3.3c0.4,0,0.8,0.1,1,0.2
			c0.3,0.1,0.4,0.3,0.6,0.6l3.4,8.5l3.4-8.5c0.1-0.3,0.3-0.5,0.6-0.6c0.3-0.1,0.6-0.2,1-0.2h3.3c0.7,0,1.1,0.1,1.4,0.4
			c0.3,0.3,0.4,0.7,0.4,1.2v16.4c0,0.6-0.1,1-0.4,1.2c-0.3,0.3-0.7,0.4-1.3,0.4h-2.8c-0.6,0-1.1-0.1-1.4-0.4
			c-0.3-0.3-0.4-0.7-0.4-1.2V388l-1.7,3.9c-0.2,0.6-0.5,1-0.8,1.2s-0.7,0.4-1.3,0.4s-1.1-0.1-1.3-0.4s-0.5-0.6-0.8-1.2l-1.7-3.9v7.9
			c0,0.6-0.1,1-0.4,1.2c-0.3,0.3-0.7,0.4-1.4,0.4h-2.8C213,397.5,212.6,397.4,212.3,397.1z"/>
		<path class="st2" d="M232.8,396.9c0-0.2,0-0.4,0.1-0.6l7.2-17.4c0.2-0.4,0.4-0.7,0.6-0.9s0.5-0.2,0.9-0.2h3.2
			c0.4,0,0.7,0.1,0.9,0.2c0.2,0.2,0.4,0.4,0.6,0.9l7.2,17.4c0.1,0.3,0.1,0.5,0.1,0.6c0,0.4-0.2,0.6-0.6,0.6h-5.5
			c-0.6,0-1-0.3-1.1-0.8l-0.7-2.1h-5.1l-0.7,2.1c-0.2,0.5-0.5,0.8-1.1,0.8h-5.5C233,397.5,232.8,397.3,232.8,396.9z M244.4,390
			l-1.1-3.6l-1.1,3.6H244.4z"/>
		<path class="st2" d="M257.6,397.4c-1.5-0.4-2.7-0.9-3.7-1.5c-0.4-0.3-0.6-0.5-0.6-0.8c0-0.2,0.1-0.4,0.2-0.6l1.7-2.6
			c0.2-0.3,0.3-0.4,0.5-0.4c0.2,0,0.3,0.1,0.6,0.2c0.7,0.4,1.5,0.8,2.4,1c0.9,0.2,1.8,0.4,2.6,0.4c0.7,0,1.2-0.1,1.6-0.3
			s0.5-0.5,0.5-0.9c0-0.4-0.2-0.8-0.6-1.1c-0.4-0.3-1.2-0.6-2.2-1c-2-0.8-3.5-1.6-4.6-2.6s-1.7-2.2-1.7-3.8c0-2,0.7-3.5,2.1-4.5
			c1.4-1,3.3-1.5,5.7-1.5c1.7,0,3.1,0.1,4.2,0.4c1.2,0.3,2.2,0.7,3.1,1.4c0.4,0.3,0.6,0.5,0.6,0.8c0,0.2-0.1,0.4-0.2,0.6l-1.7,2.6
			c-0.2,0.3-0.3,0.4-0.5,0.4c-0.1,0-0.3-0.1-0.6-0.2c-0.5-0.3-1-0.6-1.7-0.8s-1.3-0.3-2.1-0.3c-0.7,0-1.2,0.1-1.5,0.3
			c-0.3,0.2-0.5,0.5-0.5,0.9c0,0.3,0.1,0.6,0.4,0.9c0.2,0.2,0.5,0.4,0.9,0.6c0.4,0.2,1,0.4,1.9,0.8c1.4,0.6,2.6,1.1,3.4,1.7
			c0.8,0.5,1.5,1.2,1.9,1.9c0.4,0.7,0.6,1.7,0.6,2.8c0,1.7-0.7,3.1-2,4.2s-3.3,1.6-5.8,1.6C260.7,398,259.1,397.8,257.6,397.4z"/>
		<path class="st2" d="M272.1,397.1c-0.3-0.3-0.4-0.7-0.4-1.2v-16.4c0-0.6,0.1-1,0.4-1.2c0.3-0.3,0.7-0.4,1.3-0.4h3.5
			c0.7,0,1.1,0.1,1.4,0.4c0.3,0.3,0.4,0.7,0.4,1.3v16.4c0,0.6-0.1,1-0.4,1.2c-0.3,0.3-0.7,0.4-1.4,0.4h-3.5
			C272.8,397.5,272.4,397.4,272.1,397.1z"/>
		<path class="st2" d="M287.8,397.3c-0.2-0.2-0.4-0.4-0.6-0.9l-6.9-17.4c-0.1-0.3-0.1-0.5-0.1-0.6c0-0.4,0.2-0.6,0.6-0.6h5.5
			c0.6,0,1,0.3,1.1,0.8l3,9.5l3-9.5c0.2-0.5,0.5-0.8,1.1-0.8h5.5c0.4,0,0.6,0.2,0.6,0.6c0,0.2,0,0.4-0.1,0.6l-6.9,17.4
			c-0.2,0.4-0.3,0.7-0.6,0.9c-0.2,0.2-0.5,0.2-1,0.2h-3.2C288.3,397.5,288,397.4,287.8,397.3z"/>
		<path class="st2" d="M302.2,395.3c-1.8-1.8-2.7-4.3-2.7-7.6s0.9-5.8,2.7-7.6c1.8-1.8,4.4-2.7,7.8-2.7c3.4,0,6.1,0.9,7.8,2.7
			c1.8,1.8,2.7,4.3,2.7,7.6s-0.9,5.8-2.7,7.6c-1.8,1.8-4.4,2.7-7.8,2.7C306.6,398,303.9,397.1,302.2,395.3z M312.7,391.7
			c0.6-0.9,0.8-2.3,0.8-4.1c0-1.8-0.3-3.2-0.8-4.1c-0.6-0.9-1.5-1.3-2.7-1.3c-1.3,0-2.2,0.4-2.7,1.3c-0.6,0.9-0.8,2.3-0.8,4.1
			c0,1.8,0.3,3.2,0.8,4.1s1.5,1.3,2.7,1.3C311.2,393.1,312.2,392.6,312.7,391.7z"/>
	</g>
</g>
</svg>
