<?xml version="1.0" encoding="utf-8"?>
<!-- Generator: Adobe Illustrator 23.0.0, SVG Export Plug-In . SVG Version: 6.00 Build 0)  -->
<svg version="1.1" id="Capa_1" xmlns="http://www.w3.org/2000/svg" xmlns:xlink="http://www.w3.org/1999/xlink" x="0px" y="0px"
	 viewBox="0 0 500 500" style="enable-background:new 0 0 500 500;" xml:space="preserve">
<style type="text/css">
	.st0{fill:#0C2D44;}
	.st1{fill:#2C83AF;}
	.st2{fill:#FFFFFF;}
	.st3{fill:#00791D;}
	.st4{fill:#00D13C;}
	.st5{fill:#F2F2F2;}
	.st6{fill:#727272;}
	.st7{fill:#A3A3A3;}
	.st8{fill:#BCBCBC;}
	.st9{fill:none;}
	.st10{fill:#866A5E;}
	.st11{fill:#F7DDCB;}
	.st12{fill:#FFE6D4;}
	.st13{fill:#2D2D2D;}
	.st14{fill:#1C1B1A;}
	.st15{fill:#F5F5F5;}
	.st16{fill:#77181C;}
	.st17{fill:#EAEAEA;}
	.st18{fill:#262525;}
	.st19{fill:#11100F;}
	.st20{fill:#CCCDCE;}
	.st21{fill:#DFDFDF;}
	.st22{fill:#C2C2C2;}
	.st23{fill:#0085B0;}
	.st24{fill:#2A5936;}
	.st25{fill:#CD7054;}
	.st26{fill:#F1CC4B;}
	.st27{fill:#22272F;}
	.st28{fill:#1B2538;}
	.st29{fill:#253452;}
	.st30{fill:#F9F9F9;}
	.st31{fill:#2D3543;}
	.st32{fill:#2A3D60;}
	.st33{fill:#ACACAC;}
	.st34{fill:#6C92D5;}
	.st35{fill:#587955;}
	.st36{fill:#DAA449;}
	.st37{fill:#D4D4D4;}
	.st38{fill:#85B681;}
	.st39{fill:#A1DC9B;}
	.st40{fill:#90C58B;}
	.st41{fill:#81C378;}
	.st42{opacity:0.5;}
	.st43{fill:#A2CADE;}
	.st44{fill:#9BAEC9;}
	.st45{fill:#9D2B3B;}
	.st46{fill:#C1D4F2;}
	.st47{fill:#534D46;}
	.st48{fill:#191819;}
	.st49{fill:#222123;}
	.st50{fill:#F3FF00;}
	.st51{fill:none;stroke:#5A605A;stroke-width:4;stroke-miterlimit:10;}
	.st52{fill:#505050;}
	.st53{fill:#FFB412;}
	.st54{fill:#53C2C9;}
	.st55{fill:#008B9C;}
	.st56{fill:none;stroke:#00550B;stroke-width:4;stroke-miterlimit:10;}
</style>
<g>
	<g>
		<circle class="st0" cx="254.5" cy="144.1" r="112"/>
		<circle class="st0" cx="143" cy="299.1" r="111.9"/>
		<circle class="st0" cx="328" cy="339.4" r="112"/>
	</g>
	<g>
		<circle class="st1" cx="250.4" cy="268.1" r="161.6"/>
	</g>
	<g>
		<path class="st2" d="M171.8,335.7c-2-1.8-3-4.4-3-8c0-3.5,1-6.2,2.9-8c2-1.8,4.7-2.7,8.4-2.7c1.6,0,3.1,0.2,4.4,0.5
			s2.4,0.8,3.2,1.3c0.2,0.2,0.4,0.4,0.4,0.6c0,0.2-0.1,0.4-0.3,0.8l-1.5,2.6c-0.2,0.3-0.4,0.4-0.6,0.4c-0.1,0-0.4-0.1-0.7-0.2
			c-0.6-0.3-1.1-0.5-1.8-0.7c-0.6-0.2-1.3-0.2-2.1-0.2c-1.7,0-2.9,0.5-3.8,1.4c-0.9,1-1.3,2.3-1.3,4.2c0,1.8,0.5,3.2,1.4,4.2
			c1,1,2.3,1.5,3.9,1.5c1.4,0,2.8-0.3,4-0.9c0.3-0.2,0.5-0.2,0.7-0.2c0.2,0,0.4,0.1,0.6,0.4l1.5,2.6c0.2,0.3,0.3,0.6,0.3,0.8
			c0,0.2-0.1,0.4-0.4,0.6c-0.9,0.6-1.9,1-3.2,1.3c-1.3,0.3-2.8,0.5-4.4,0.5C176.6,338.4,173.8,337.5,171.8,335.7z"/>
		<path class="st2" d="M188.4,337.3c0-0.2,0-0.4,0.1-0.7l7.5-18c0.2-0.4,0.4-0.7,0.6-0.9c0.2-0.2,0.6-0.3,1-0.3h3.3
			c0.4,0,0.7,0.1,1,0.3s0.4,0.5,0.6,0.9l7.4,18c0.1,0.3,0.1,0.5,0.1,0.7c0,0.4-0.2,0.6-0.7,0.6h-5.6c-0.6,0-1-0.3-1.2-0.8l-0.7-2.2
			h-5.3l-0.7,2.2c-0.2,0.5-0.6,0.8-1.2,0.8h-5.6C188.6,337.9,188.4,337.7,188.4,337.3z M200.4,330.2l-1.2-3.7l-1.2,3.7H200.4z"/>
		<path class="st2" d="M211.2,337.5c-0.3-0.3-0.4-0.7-0.4-1.3v-17c0-0.6,0.1-1,0.4-1.3s0.7-0.4,1.4-0.4h3.5c0.4,0,0.8,0.1,1,0.2
			c0.3,0.1,0.5,0.3,0.6,0.6l3.5,8.8l3.5-8.8c0.1-0.3,0.3-0.5,0.6-0.6c0.3-0.1,0.6-0.2,1-0.2h3.5c0.7,0,1.2,0.1,1.4,0.4
			s0.4,0.7,0.4,1.3v17c0,0.6-0.1,1-0.4,1.3c-0.3,0.3-0.7,0.4-1.4,0.4H227c-0.7,0-1.1-0.1-1.4-0.4c-0.3-0.3-0.4-0.7-0.4-1.3V328
			l-1.8,4.1c-0.2,0.6-0.5,1-0.8,1.2c-0.3,0.3-0.7,0.4-1.4,0.4c-0.6,0-1.1-0.1-1.4-0.4c-0.3-0.3-0.5-0.7-0.8-1.2l-1.8-4.1v8.2
			c0,0.6-0.1,1-0.4,1.3c-0.3,0.3-0.7,0.4-1.4,0.4h-2.9C212,337.9,211.5,337.8,211.2,337.5z"/>
		<path class="st2" d="M234.2,337.5c-0.3-0.3-0.4-0.7-0.4-1.3v-17c0-0.6,0.1-1,0.4-1.3c0.3-0.3,0.7-0.4,1.4-0.4h7.2
			c3,0,5.2,0.6,6.6,1.8c1.4,1.2,2.1,3,2.1,5.4c0,2.4-0.7,4.2-2.1,5.4c-1.4,1.2-3.5,1.8-6.5,1.8H241v4.4c0,0.6-0.1,1-0.4,1.3
			c-0.3,0.3-0.7,0.4-1.4,0.4h-3.6C235,337.9,234.5,337.8,234.2,337.5z M242.2,326.7c0.6,0,1.1-0.2,1.5-0.5s0.6-0.8,0.6-1.5
			c0-0.7-0.2-1.2-0.6-1.6s-0.9-0.5-1.5-0.5h-2v4.1H242.2z"/>
		<path class="st2" d="M248.7,337.3c0-0.2,0-0.4,0.1-0.7l7.5-18c0.2-0.4,0.4-0.7,0.6-0.9c0.2-0.2,0.6-0.3,1-0.3h3.3
			c0.4,0,0.7,0.1,1,0.3s0.4,0.5,0.6,0.9l7.4,18c0.1,0.3,0.1,0.5,0.1,0.7c0,0.4-0.2,0.6-0.7,0.6h-5.6c-0.6,0-1-0.3-1.2-0.8l-0.7-2.2
			h-5.3l-0.7,2.2c-0.2,0.5-0.6,0.8-1.2,0.8h-5.6C248.9,337.9,248.7,337.7,248.7,337.3z M260.7,330.2l-1.2-3.7l-1.2,3.7H260.7z"/>
		<path class="st2" d="M272.3,337.5c-0.3-0.3-0.4-0.7-0.4-1.3v-17c0-0.6,0.1-1,0.4-1.3s0.7-0.4,1.4-0.4h2.9c0.4,0,0.7,0.1,1,0.2
			c0.2,0.1,0.5,0.3,0.7,0.6l5.4,8.1v-7.2c0-0.6,0.1-1,0.4-1.3c0.3-0.3,0.7-0.4,1.4-0.4h3.6c0.7,0,1.2,0.1,1.4,0.4s0.4,0.7,0.4,1.3
			v17c0,0.6-0.1,1-0.4,1.3s-0.7,0.4-1.4,0.4h-2.9c-0.4,0-0.7-0.1-1-0.2c-0.2-0.1-0.5-0.3-0.7-0.6l-5.4-8.1v7.2c0,0.6-0.1,1-0.4,1.3
			s-0.7,0.4-1.4,0.4h-3.6C273,337.9,272.5,337.8,272.3,337.5z M282.8,315.9c-0.4-0.1-0.8-0.3-1.3-0.6c-0.5-0.2-0.9-0.4-1.2-0.5
			s-0.6-0.2-0.9-0.2c-0.3,0-0.6,0.1-0.9,0.2c-0.3,0.1-0.5,0.4-0.8,0.8c-0.2,0.3-0.5,0.4-0.8,0.4c-0.4,0-1-0.3-1.8-0.9
			c-0.4-0.3-0.7-0.6-0.9-0.8c-0.2-0.2-0.3-0.4-0.3-0.6c0-0.3,0.1-0.6,0.4-1c0.7-1,1.3-1.7,1.9-2.1c0.6-0.4,1.3-0.6,2.2-0.6
			c0.6,0,1.1,0.1,1.6,0.2c0.4,0.2,0.9,0.4,1.5,0.7c0.4,0.2,0.7,0.3,0.9,0.4c0.2,0.1,0.5,0.1,0.7,0.1c0.3,0,0.6-0.1,0.8-0.2
			c0.2-0.1,0.5-0.4,0.8-0.8c0.2-0.3,0.5-0.4,0.8-0.4c0.4,0,1,0.3,1.8,0.9c0.4,0.3,0.7,0.5,0.9,0.8c0.2,0.2,0.3,0.5,0.3,0.7
			c0,0.3-0.1,0.6-0.5,1.1c-0.7,1-1.3,1.7-1.9,2.1s-1.3,0.6-2.2,0.6C283.6,316.1,283.2,316,282.8,315.9z"/>
		<path class="st2" d="M292.3,337.3c0-0.2,0-0.4,0.1-0.7l7.5-18c0.2-0.4,0.4-0.7,0.6-0.9c0.2-0.2,0.6-0.3,1-0.3h3.3
			c0.4,0,0.7,0.1,1,0.3s0.4,0.5,0.6,0.9l7.4,18c0.1,0.3,0.1,0.5,0.1,0.7c0,0.4-0.2,0.6-0.7,0.6h-5.6c-0.6,0-1-0.3-1.2-0.8l-0.7-2.2
			h-5.3l-0.7,2.2c-0.2,0.5-0.6,0.8-1.2,0.8H293C292.5,337.9,292.3,337.7,292.3,337.3z M304.3,330.2l-1.2-3.7l-1.2,3.7H304.3z"/>
		<path class="st2" d="M317.9,337.8c-1.6-0.4-2.8-0.9-3.8-1.6c-0.4-0.3-0.6-0.6-0.6-0.8c0-0.2,0.1-0.4,0.2-0.6l1.7-2.7
			c0.2-0.3,0.4-0.4,0.5-0.4c0.2,0,0.3,0.1,0.6,0.2c0.7,0.4,1.5,0.8,2.5,1c0.9,0.3,1.8,0.4,2.7,0.4c0.7,0,1.3-0.1,1.6-0.3
			c0.3-0.2,0.5-0.5,0.5-0.9c0-0.5-0.2-0.8-0.7-1.1c-0.4-0.3-1.2-0.6-2.3-1.1c-2-0.8-3.6-1.7-4.8-2.7c-1.2-1-1.7-2.3-1.7-3.9
			c0-2.1,0.7-3.6,2.2-4.7c1.4-1,3.4-1.6,5.9-1.6c1.7,0,3.2,0.2,4.4,0.4c1.2,0.3,2.3,0.8,3.2,1.4c0.4,0.3,0.6,0.6,0.6,0.8
			c0,0.2-0.1,0.4-0.2,0.6l-1.7,2.7c-0.2,0.3-0.4,0.4-0.5,0.4c-0.1,0-0.3-0.1-0.6-0.2c-0.5-0.3-1-0.6-1.7-0.8
			c-0.7-0.2-1.4-0.3-2.1-0.3c-0.7,0-1.2,0.1-1.6,0.3c-0.4,0.2-0.5,0.5-0.5,1c0,0.4,0.1,0.7,0.4,0.9c0.3,0.2,0.6,0.4,0.9,0.6
			c0.4,0.2,1,0.4,2,0.8c1.5,0.6,2.7,1.2,3.5,1.7c0.9,0.6,1.5,1.2,1.9,2s0.7,1.7,0.7,2.9c0,1.8-0.7,3.3-2,4.4s-3.4,1.7-6,1.7
			C321.2,338.4,319.5,338.2,317.9,337.8z"/>
		<path class="st2" d="M159.6,373.5c-0.3-0.3-0.4-0.7-0.4-1.3v-17c0-0.6,0.1-1,0.4-1.3c0.3-0.3,0.7-0.4,1.4-0.4h6.9
			c7.1,0,10.6,3.4,10.6,10.2c0,3.4-0.9,5.9-2.7,7.6c-1.8,1.7-4.4,2.6-7.9,2.6h-6.9C160.3,373.9,159.8,373.8,159.6,373.5z
			 M168.1,368.8c1.1,0,1.9-0.4,2.4-1.1c0.5-0.7,0.7-2.1,0.7-4s-0.2-3.3-0.7-4c-0.5-0.7-1.3-1.1-2.4-1.1h-1.8v10.2H168.1z"/>
		<path class="st2" d="M180.3,373.5c-0.3-0.3-0.4-0.7-0.4-1.3v-17c0-0.6,0.1-1,0.4-1.3c0.3-0.3,0.7-0.4,1.4-0.4h12.4
			c0.6,0,1.1,0.1,1.3,0.4c0.2,0.3,0.3,0.7,0.3,1.3v1.7c0,0.6-0.1,1-0.3,1.3c-0.2,0.3-0.7,0.4-1.3,0.4h-7v2.6h4.3
			c0.6,0,1.1,0.1,1.3,0.4c0.2,0.3,0.3,0.7,0.3,1.3v1.6c0,0.6-0.1,1-0.3,1.3c-0.2,0.3-0.7,0.4-1.3,0.4h-4.3v2.6h7
			c0.6,0,1.1,0.1,1.3,0.4c0.2,0.3,0.3,0.7,0.3,1.3v1.7c0,0.6-0.1,1-0.3,1.3s-0.7,0.4-1.3,0.4h-12.4
			C181.1,373.9,180.6,373.8,180.3,373.5z"/>
		<path class="st2" d="M208.6,371.7c-2-1.8-3-4.4-3-8c0-3.5,1-6.2,2.9-8c2-1.8,4.7-2.7,8.4-2.7c1.6,0,3.1,0.2,4.4,0.5
			s2.4,0.8,3.2,1.3c0.2,0.2,0.4,0.4,0.4,0.6c0,0.2-0.1,0.4-0.3,0.8l-1.5,2.6c-0.2,0.3-0.4,0.4-0.6,0.4c-0.1,0-0.4-0.1-0.7-0.2
			c-0.6-0.3-1.1-0.5-1.8-0.7c-0.6-0.2-1.3-0.2-2.1-0.2c-1.7,0-2.9,0.5-3.8,1.4c-0.9,1-1.3,2.3-1.3,4.2c0,1.8,0.5,3.2,1.4,4.2
			c1,1,2.3,1.5,3.9,1.5c1.4,0,2.8-0.3,4-0.9c0.3-0.2,0.5-0.2,0.7-0.2c0.2,0,0.4,0.1,0.6,0.4l1.5,2.6c0.2,0.3,0.3,0.6,0.3,0.8
			c0,0.2-0.1,0.4-0.4,0.6c-0.9,0.6-1.9,1-3.2,1.3c-1.3,0.3-2.8,0.5-4.4,0.5C213.4,374.4,210.6,373.5,208.6,371.7z"/>
		<path class="st2" d="M225.2,373.3c0-0.2,0-0.4,0.1-0.7l7.5-18c0.2-0.4,0.4-0.7,0.6-0.9c0.2-0.2,0.6-0.3,1-0.3h3.3
			c0.4,0,0.7,0.1,1,0.3s0.4,0.5,0.6,0.9l7.4,18c0.1,0.3,0.1,0.5,0.1,0.7c0,0.4-0.2,0.6-0.7,0.6h-5.6c-0.6,0-1-0.3-1.2-0.8l-0.7-2.2
			h-5.3l-0.7,2.2c-0.2,0.5-0.6,0.8-1.2,0.8h-5.6C225.5,373.9,225.2,373.7,225.2,373.3z M237.2,366.2l-1.2-3.7l-1.2,3.7H237.2z"/>
		<path class="st2" d="M248.8,373.5c-0.3-0.3-0.4-0.7-0.4-1.3v-17c0-0.6,0.1-1,0.4-1.3c0.3-0.3,0.7-0.4,1.4-0.4h7.2
			c3,0,5.2,0.6,6.6,1.8c1.4,1.2,2.1,3,2.1,5.4c0,1.4-0.2,2.7-0.7,3.6c-0.5,1-1.2,1.8-2.3,2.3l2.8,6c0.1,0.2,0.1,0.3,0.1,0.5
			c0,0.2-0.1,0.4-0.2,0.5c-0.1,0.1-0.3,0.2-0.6,0.2H260c-0.3,0-0.6,0-0.8-0.1c-0.2-0.1-0.3-0.2-0.4-0.5l-2.2-5.6h-1v4.5
			c0,0.6-0.1,1-0.4,1.3c-0.3,0.3-0.7,0.4-1.4,0.4h-3.6C249.5,373.9,249.1,373.8,248.8,373.5z M256.7,362.7c0.6,0,1.1-0.2,1.5-0.5
			s0.6-0.8,0.6-1.5c0-0.7-0.2-1.2-0.6-1.6s-0.9-0.5-1.5-0.5h-2v4.1H256.7z"/>
		<path class="st2" d="M271.6,373.5c-0.3-0.3-0.4-0.7-0.4-1.3v-13.6h-4.3c-0.6,0-1.1-0.1-1.3-0.4c-0.2-0.3-0.3-0.7-0.3-1.3v-1.7
			c0-0.6,0.1-1,0.3-1.3c0.2-0.3,0.7-0.4,1.3-0.4h15.8c0.6,0,1.1,0.1,1.3,0.4c0.2,0.3,0.3,0.7,0.3,1.3v1.7c0,0.6-0.1,1-0.3,1.3
			c-0.2,0.3-0.7,0.4-1.3,0.4h-4.3v13.6c0,0.6-0.1,1-0.4,1.3c-0.3,0.3-0.7,0.4-1.4,0.4H273C272.3,373.9,271.9,373.8,271.6,373.5z"/>
		<path class="st2" d="M285.7,373.5c-0.3-0.3-0.4-0.7-0.4-1.3v-17c0-0.6,0.1-1,0.4-1.3c0.3-0.3,0.7-0.4,1.4-0.4h12.4
			c0.6,0,1.1,0.1,1.3,0.4c0.2,0.3,0.3,0.7,0.3,1.3v1.7c0,0.6-0.1,1-0.3,1.3c-0.2,0.3-0.7,0.4-1.3,0.4h-7v2.6h4.3
			c0.6,0,1.1,0.1,1.3,0.4c0.2,0.3,0.3,0.7,0.3,1.3v1.6c0,0.6-0.1,1-0.3,1.3c-0.2,0.3-0.7,0.4-1.3,0.4h-4.3v2.6h7
			c0.6,0,1.1,0.1,1.3,0.4c0.2,0.3,0.3,0.7,0.3,1.3v1.7c0,0.6-0.1,1-0.3,1.3s-0.7,0.4-1.3,0.4h-12.4
			C286.4,373.9,285.9,373.8,285.7,373.5z"/>
		<path class="st2" d="M302.9,373.5c-0.3-0.3-0.4-0.7-0.4-1.3v-17c0-0.6,0.1-1,0.4-1.3c0.3-0.3,0.7-0.4,1.4-0.4h7.2
			c3,0,5.2,0.6,6.6,1.8c1.4,1.2,2.1,3,2.1,5.4c0,1.4-0.2,2.7-0.7,3.6c-0.5,1-1.2,1.8-2.3,2.3l2.8,6c0.1,0.2,0.1,0.3,0.1,0.5
			c0,0.2-0.1,0.4-0.2,0.5c-0.1,0.1-0.3,0.2-0.6,0.2h-5.1c-0.3,0-0.6,0-0.8-0.1c-0.2-0.1-0.3-0.2-0.4-0.5l-2.2-5.6h-1v4.5
			c0,0.6-0.1,1-0.4,1.3c-0.3,0.3-0.7,0.4-1.4,0.4h-3.6C303.6,373.9,303.2,373.8,302.9,373.5z M310.8,362.7c0.6,0,1.1-0.2,1.5-0.5
			s0.6-0.8,0.6-1.5c0-0.7-0.2-1.2-0.6-1.6s-0.9-0.5-1.5-0.5h-2v4.1H310.8z"/>
		<path class="st2" d="M319.6,373.3c0-0.2,0-0.4,0.1-0.7l7.5-18c0.2-0.4,0.4-0.7,0.6-0.9c0.2-0.2,0.6-0.3,1-0.3h3.3
			c0.4,0,0.7,0.1,1,0.3s0.4,0.5,0.6,0.9l7.4,18c0.1,0.3,0.1,0.5,0.1,0.7c0,0.4-0.2,0.6-0.7,0.6H335c-0.6,0-1-0.3-1.2-0.8l-0.7-2.2
			h-5.3l-0.7,2.2c-0.2,0.5-0.6,0.8-1.2,0.8h-5.6C319.8,373.9,319.6,373.7,319.6,373.3z M331.6,366.2l-1.2-3.7l-1.2,3.7H331.6z"/>
	</g>
	<g>
		<g>
			<polygon class="st36" points="268.3,202.1 205.6,202.1 199.8,193.4 149.4,193.4 169.2,279.2 285.6,279.2 			"/>
			<rect x="169.2" y="215.4" class="st2" width="110.1" height="63.1"/>
			<polygon class="st26" points="285.6,279.2 169.2,279.2 192.9,224.2 309.3,224.2 			"/>
			<polygon class="st36" points="217.3,224.2 217.3,270.5 172.9,270.5 169.2,279.2 285.6,279.2 309.3,224.2 			"/>
		</g>
		<rect x="218.9" y="144.6" class="st37" width="102.4" height="129.6"/>
		<g>
			<g>
				<rect x="221.6" y="179.7" class="st21" width="68.9" height="13.6"/>
				<rect x="221.6" y="202.3" class="st21" width="68.9" height="13.6"/>
				<rect x="221.6" y="224.9" class="st21" width="68.9" height="13.6"/>
				<rect x="221.6" y="247.6" class="st21" width="68.9" height="13.6"/>
			</g>
			<g>
				<rect x="297.4" y="179.7" class="st21" width="13.7" height="13.6"/>
				<rect x="297.4" y="202.3" class="st21" width="13.7" height="13.6"/>
				<rect x="297.4" y="224.9" class="st21" width="13.7" height="13.6"/>
				<rect x="297.4" y="247.6" class="st22" width="13.7" height="13.6"/>
			</g>
		</g>
		<g>
			<g>
				<polygon class="st38" points="306.1,270.6 304.3,271.7 271.3,217.2 273.1,216.2 				"/>
				<g>
					
						<rect x="256.6" y="221.3" transform="matrix(0.8551 -0.5184 0.5184 0.8551 -91.6328 178.3964)" class="st39" width="33.6" height="63.7"/>
					<path class="st35" d="M252.2,237l16.7-10.1l25.7,42.4l-16.7,10.1L252.2,237L252.2,237z M245.7,235.4l30.6,50.5l24.7-15
						l-30.6-50.5L245.7,235.4L245.7,235.4z"/>
					<path class="st35" d="M271.2,277.5c4.6-2.8,10.7-1.3,13.5,3.3l-8.4,5.1L271.2,277.5z"/>
					<path class="st35" d="M250.8,243.8c4.6-2.8,6.1-8.9,3.3-13.5l-8.4,5.1L250.8,243.8z"/>
					<path class="st35" d="M296,262.5c-4.6,2.8-6.1,8.8-3.3,13.5l8.4-5.1L296,262.5z"/>
					<path class="st35" d="M275.6,228.8c-4.6,2.8-10.7,1.3-13.5-3.3l8.4-5.1L275.6,228.8z"/>
					<path class="st35" d="M280.3,264.1c-2.2,1.3-2.9,4.2-1.6,6.4c1.3,2.2,4.2,2.9,6.4,1.6c2.2-1.3,2.9-4.2,1.6-6.4
						C285.3,263.5,282.5,262.8,280.3,264.1z"/>
					<path class="st35" d="M268.9,245.7c-4.1,2.5-5.4,7.8-2.9,11.9c2.5,4.1,7.8,5.4,11.9,2.9c4.1-2.5,5.4-7.8,2.9-11.9
						C278.3,244.6,273,243.3,268.9,245.7z"/>
					<path class="st35" d="M262.9,235.4c-2.2,1.3-2.9,4.2-1.6,6.4c1.3,2.2,4.2,2.9,6.4,1.6c2.2-1.3,2.9-4.2,1.6-6.4
						C268,234.8,265.1,234.1,262.9,235.4z"/>
					<path class="st40" d="M273,257.6c-1.8,1.1-3.1,0.3-4-1l-1.1,0.7l-0.7-1.2l1.1-0.7c-0.5-0.9-0.8-1.7-1-2.4l1.6-1
						c0.4,0.8,1.2,2.2,1.5,2.8c0.4,0.7,0.7,1.1,1.4,0.6l0.3-0.2c0.5-0.3,0.6-0.7,0.2-1.4l-0.6-1c-1.1-1.9,0.2-3.2,1.2-3.8l0.5-0.3
						c2.2-1.3,3.4-0.3,4.2,0.9l1-0.6l0.7,1.2l-1.1,0.6c0.6,1.1,0.7,1.5,1,2.5l-1.6,1c-0.3-0.5-0.9-1.8-1.7-3
						c-0.3-0.5-0.7-0.9-1.3-0.6l-0.4,0.2c-0.5,0.3-0.6,0.6-0.3,1.2l0.6,1c1.4,2.3-0.4,3.6-1.1,4L273,257.6z"/>
				</g>
			</g>
			<g>
				<polygon class="st38" points="293.1,273.3 292,275.2 237.1,242.9 238.2,241.1 				"/>
				<g>
					
						<rect x="239.2" y="241.7" transform="matrix(0.5065 -0.8623 0.8623 0.5065 -109.5002 355.7817)" class="st39" width="33.6" height="63.7"/>
					<path class="st35" d="M229.7,269.4l9.9-16.9l42.8,25.1l-9.9,16.9L229.7,269.4L229.7,269.4z M223.3,271.1l50.9,29.9l14.7-25
						l-50.9-29.9L223.3,271.1L223.3,271.1z"/>
					<path class="st35" d="M265.7,296c2.8-4.7,8.8-6.3,13.4-3.5l-5,8.5L265.7,296z"/>
					<path class="st35" d="M231.7,276.1c2.7-4.7,1.2-10.7-3.5-13.5l-5,8.5L231.7,276.1z"/>
					<path class="st35" d="M280.3,271c-2.7,4.7-1.2,10.7,3.5,13.4l5-8.5L280.3,271z"/>
					<path class="st35" d="M246.4,251.1c-2.7,4.7-8.8,6.2-13.4,3.5l5-8.5L246.4,251.1z"/>
					<path class="st35" d="M267.3,279.9c-1.3,2.2-0.6,5.1,1.7,6.4c2.2,1.3,5.1,0.6,6.4-1.7c1.3-2.2,0.6-5.1-1.7-6.4
						C271.5,277,268.6,277.7,267.3,279.9z"/>
					<path class="st35" d="M248.5,269.1c-2.4,4.1-1,9.4,3.1,11.9c4.1,2.4,9.4,1,11.9-3.1c2.4-4.1,1-9.5-3.1-11.9
						C256.3,263.6,251,265,248.5,269.1z"/>
					<path class="st35" d="M238.4,262.9c-1.3,2.2-0.6,5.1,1.7,6.4c2.2,1.3,5.1,0.6,6.4-1.7c1.3-2.2,0.6-5.1-1.7-6.4
						C242.5,260,239.7,260.7,238.4,262.9z"/>
					<path class="st40" d="M257.8,277.7c-1.1,1.8-2.6,1.8-4,1l-0.6,1.1L252,279l0.7-1.1c-0.9-0.6-1.5-1.1-2-1.7l1-1.6
						c0.7,0.5,2.1,1.4,2.7,1.8c0.7,0.4,1.1,0.6,1.6-0.1l0.2-0.3c0.3-0.6,0.2-0.9-0.4-1.3l-1-0.6c-1.9-1.1-1.4-2.9-0.8-3.9l0.3-0.5
						c1.3-2.2,2.9-1.9,4.1-1.2l0.6-1.1l1.2,0.7l-0.6,1.1c1,0.6,1.3,1,2,1.7l-0.9,1.6c-0.5-0.3-1.7-1.2-2.9-1.9
						c-0.5-0.3-1-0.4-1.4,0.1l-0.2,0.4c-0.3,0.5-0.3,0.8,0.3,1.2l1,0.6c2.3,1.3,1.4,3.3,0.9,4L257.8,277.7z"/>
				</g>
			</g>
		</g>
		<g>
			<path class="st29" d="M334.9,246.2c0-3-2.6-5.4-5.7-5.4l-18.5,0l-18.5,0c-3.1,0-5.7,2.5-5.7,5.4l0.1,43.8c0,3,2.6,5.4,5.7,5.4
				l18.5,0l18.5,0c3.1,0,5.7-2.5,5.7-5.4L334.9,246.2z"/>
			<path class="st32" d="M331.3,246.2c0-3-2.6-5.4-5.7-5.4l-18.5,0l-18.5,0c-3.1,0-5.7,2.5-5.7,5.4L283,290c0,3,2.6,5.4,5.7,5.4
				l18.5,0l18.5,0c3.1,0,5.7-2.5,5.7-5.4L331.3,246.2z"/>
			<g>
				<path class="st22" d="M325.5,264.8h-4.2c-2.2,0-4.1,1.8-4.1,4.1v13.8v3.7v0.5c0,2.2,1.8,4.1,4.1,4.1h4.2c2.2,0,4.1-1.8,4.1-4.1
					v-0.5v-3.7v-13.8C329.6,266.6,327.8,264.8,325.5,264.8z"/>
				<path class="st22" d="M298.8,273c0,2.2-1.8,4.1-4.1,4.1h-4.2c-2.2,0-4.1-1.8-4.1-4.1v-4.2c0-2.2,1.8-4.1,4.1-4.1h4.2
					c2.2,0,4.1,1.8,4.1,4.1V273z"/>
				<path class="st22" d="M298.8,286.8c0,2.2-1.8,4.1-4.1,4.1h-4.2c-2.2,0-4.1-1.8-4.1-4.1v-4.2c0-2.2,1.8-4.1,4.1-4.1h4.2
					c2.2,0,4.1,1.8,4.1,4.1V286.8z"/>
				<path class="st22" d="M314.1,273c0,2.2-1.8,4.1-4.1,4.1h-4.2c-2.2,0-4.1-1.8-4.1-4.1v-4.2c0-2.2,1.8-4.1,4.1-4.1h4.2
					c2.2,0,4.1,1.8,4.1,4.1V273z"/>
				<path class="st22" d="M314.1,286.8c0,2.2-1.8,4.1-4.1,4.1h-4.2c-2.2,0-4.1-1.8-4.1-4.1v-4.2c0-2.2,1.8-4.1,4.1-4.1h4.2
					c2.2,0,4.1,1.8,4.1,4.1V286.8z"/>
			</g>
			<g>
				<path class="st2" d="M323.9,264.8h-4.2c-2.2,0-4.1,1.8-4.1,4.1v13.8v3.7v0.5c0,2.2,1.8,4.1,4.1,4.1h4.2c2.2,0,4.1-1.8,4.1-4.1
					v-0.5v-3.7v-13.8C328,266.6,326.2,264.8,323.9,264.8z"/>
				<path class="st2" d="M297.2,273c0,2.2-1.8,4.1-4.1,4.1H289c-2.2,0-4.1-1.8-4.1-4.1v-4.2c0-2.2,1.8-4.1,4.1-4.1h4.2
					c2.2,0,4.1,1.8,4.1,4.1V273z"/>
				<path class="st2" d="M297.2,286.8c0,2.2-1.8,4.1-4.1,4.1H289c-2.2,0-4.1-1.8-4.1-4.1v-4.2c0-2.2,1.8-4.1,4.1-4.1h4.2
					c2.2,0,4.1,1.8,4.1,4.1V286.8z"/>
				<path class="st2" d="M312.5,273c0,2.2-1.8,4.1-4.1,4.1h-4.2c-2.2,0-4.1-1.8-4.1-4.1v-4.2c0-2.2,1.8-4.1,4.1-4.1h4.2
					c2.2,0,4.1,1.8,4.1,4.1V273z"/>
				<path class="st2" d="M312.5,286.8c0,2.2-1.8,4.1-4.1,4.1h-4.2c-2.2,0-4.1-1.8-4.1-4.1v-4.2c0-2.2,1.8-4.1,4.1-4.1h4.2
					c2.2,0,4.1,1.8,4.1,4.1V286.8z"/>
			</g>
			<g>
				<path class="st29" d="M287.1,269.6h2.7V267h2.6v2.7h2.7v2.5h-2.7v2.7h-2.6v-2.7h-2.7V269.6z"/>
			</g>
			<g>
				<path class="st29" d="M287.4,286.6l1.9-1.9l-1.9-1.9l1.8-1.8l1.9,1.9l1.9-1.9l1.8,1.8l-1.9,1.9l1.9,1.9l-1.8,1.8l-1.9-1.9
					l-1.9,1.9L287.4,286.6z"/>
			</g>
			<g>
				<path class="st29" d="M302.5,269.6h7.7v2.5h-7.7V269.6z"/>
			</g>
			<g>
				<path class="st34" d="M318.4,275h6.9v2.2h-6.9V275z M318.4,278.5h6.9v2.2h-6.9V278.5z"/>
			</g>
			<g>
				<g>
					<path class="st29" d="M302.5,283.4h7.7v2.5h-7.7V283.4z"/>
				</g>
				<g>
					<path class="st29" d="M307.6,281.3c0-0.7-0.5-1.2-1.2-1.2c-0.7,0-1.2,0.5-1.2,1.2c0,0.7,0.5,1.2,1.2,1.2
						C307,282.5,307.6,282,307.6,281.3z"/>
					<path class="st29" d="M307.6,288.1c0-0.7-0.5-1.2-1.2-1.2c-0.7,0-1.2,0.5-1.2,1.2c0,0.7,0.5,1.2,1.2,1.2
						C307,289.3,307.6,288.7,307.6,288.1z"/>
				</g>
			</g>
			<path class="st41" d="M328.7,253.7c0,2.3-1.8,4.1-4.1,4.1h-34.9c-2.3,0-4.1-1.8-4.1-4.1v-5c0-2.3,1.8-4.1,4.1-4.1h34.9
				c2.3,0,4.1,1.8,4.1,4.1V253.7z"/>
			<g>
				<path class="st2" d="M307.8,254.1h3c0.7,0,0.7-0.4,0.7-0.6v-0.4c0-0.4-0.1-0.6-0.5-0.6h-0.5c-0.4,0-0.5,0.2-0.5,0.5h-2.1
					l0.2-5.3h5.3v2h-3.1l0,1.2c0.3-0.2,0.6-0.2,0.7-0.2c0.3,0,0.7,0,0.9,0c1.3,0.1,1.9,1,1.9,2.2v1.1c0,1.6-1.2,2.2-2.3,2.2
					c-1.4,0-2,0-3.6-0.3V254.1z"/>
				<path class="st2" d="M316.4,247.8c1.1-0.2,2.7,0,3.8,0.2v1.7h-2.5c-1,0-1,0.6-1,1.4c0.4-0.2,0.8-0.2,1.7-0.2
					c1.7,0,2.1,0.9,2.1,2.1v1c0,1.5-0.9,2-2.2,2h-1.6c-1.4,0-2.3-0.8-2.3-4.4C314.5,248.8,315.4,248,316.4,247.8z M317.6,254.2h0.2
					c0.4,0,0.5-0.1,0.5-0.5v-0.2c0-0.5,0-0.6-0.4-0.6h-1.2C316.7,254,316.8,254.2,317.6,254.2z"/>
				<path class="st2" d="M321,247.8h5.5l0.5,0.9l-2.6,7.4h-2.3l2.2-6.3H321V247.8z"/>
			</g>
			<path class="st35" d="M328.1,246.5c-0.7-0.7-1.7-1.2-2.9-1.2h-34.9c-2.3,0-4.1,1.9-4.1,4.1v5c0,0.8,0.2,1.5,0.6,2.2
				c-0.8-0.7-1.3-1.8-1.3-3v-5c0-2.3,1.9-4.1,4.1-4.1h34.9C326.1,244.5,327.4,245.3,328.1,246.5z"/>
			<g class="st42">
				<path class="st43" d="M295.5,244.5l-9.8,9.8c0.2,1,0.7,1.9,1.5,2.5l12.3-12.3H295.5z"/>
				<polygon class="st43" points="304.3,244.5 291,257.8 307.3,257.8 320.5,244.5 				"/>
			</g>
		</g>
		<g>
			<path class="st35" d="M223.9,164.1c-1.3-1.2-2-3-2-5.3c0-2.4,0.7-4.1,2-5.3s3.2-1.8,5.6-1.8c1.1,0,2.1,0.1,2.9,0.3
				c0.9,0.2,1.6,0.5,2.1,0.9c0.2,0.1,0.2,0.3,0.2,0.4c0,0.1-0.1,0.3-0.2,0.5l-1,1.7c-0.1,0.2-0.2,0.3-0.4,0.3
				c-0.1,0-0.2-0.1-0.5-0.2c-0.4-0.2-0.8-0.3-1.2-0.4c-0.4-0.1-0.9-0.2-1.4-0.2c-1.1,0-2,0.3-2.5,1s-0.9,1.6-0.9,2.8
				c0,1.2,0.3,2.1,1,2.8c0.6,0.6,1.5,1,2.6,1c1,0,1.8-0.2,2.6-0.6c0.2-0.1,0.4-0.2,0.5-0.2c0.1,0,0.3,0.1,0.4,0.3l1,1.7
				c0.1,0.2,0.2,0.4,0.2,0.5c0,0.1-0.1,0.3-0.2,0.4c-0.6,0.4-1.3,0.7-2.2,0.9c-0.9,0.2-1.8,0.3-2.9,0.3
				C227.1,165.9,225.2,165.3,223.9,164.1z"/>
			<path class="st35" d="M235,165.2c0-0.1,0-0.3,0.1-0.4l5-12c0.1-0.3,0.3-0.5,0.4-0.6s0.4-0.2,0.7-0.2h2.2c0.3,0,0.5,0.1,0.6,0.2
				s0.3,0.3,0.4,0.6l5,12c0.1,0.2,0.1,0.3,0.1,0.4c0,0.3-0.1,0.4-0.4,0.4h-3.8c-0.4,0-0.7-0.2-0.8-0.5l-0.5-1.5h-3.5L240,165
				c-0.1,0.4-0.4,0.5-0.8,0.5h-3.8C235.1,165.6,235,165.4,235,165.2z M243,160.4l-0.8-2.5l-0.8,2.5H243z"/>
			<path class="st35" d="M250.7,165.3c-0.2-0.2-0.3-0.5-0.3-0.9v-11.3c0-0.4,0.1-0.7,0.3-0.9c0.2-0.2,0.5-0.3,0.9-0.3h4.8
				c2,0,3.5,0.4,4.4,1.2c0.9,0.8,1.4,2,1.4,3.6c0,1-0.2,1.8-0.5,2.4c-0.3,0.7-0.8,1.2-1.5,1.5l1.9,4c0.1,0.1,0.1,0.2,0.1,0.4
				c0,0.1-0.1,0.3-0.2,0.4c-0.1,0.1-0.2,0.1-0.4,0.1h-3.4c-0.2,0-0.4,0-0.5-0.1c-0.1-0.1-0.2-0.2-0.3-0.3l-1.5-3.7h-0.7v3
				c0,0.4-0.1,0.7-0.3,0.9c-0.2,0.2-0.5,0.3-1,0.3h-2.4C251.2,165.6,250.9,165.5,250.7,165.3z M256,158.1c0.4,0,0.8-0.1,1-0.3
				c0.2-0.2,0.4-0.6,0.4-1c0-0.5-0.1-0.8-0.4-1c-0.2-0.2-0.6-0.3-1-0.3h-1.4v2.7H256z"/>
			<path class="st35" d="M265.9,165.3c-0.2-0.2-0.3-0.5-0.3-0.9v-9.1h-2.9c-0.4,0-0.7-0.1-0.9-0.3c-0.2-0.2-0.2-0.5-0.2-0.9v-1.1
				c0-0.4,0.1-0.7,0.2-0.9s0.4-0.3,0.9-0.3h10.6c0.4,0,0.7,0.1,0.9,0.3s0.2,0.5,0.2,0.9v1.1c0,0.4-0.1,0.7-0.2,0.9
				c-0.2,0.2-0.4,0.3-0.9,0.3h-2.9v9.1c0,0.4-0.1,0.7-0.3,0.9c-0.2,0.2-0.5,0.3-1,0.3h-2.4C266.4,165.6,266.1,165.5,265.9,165.3z"/>
			<path class="st35" d="M275.3,165.3c-0.2-0.2-0.3-0.5-0.3-0.9v-11.3c0-0.4,0.1-0.7,0.3-0.9c0.2-0.2,0.5-0.3,0.9-0.3h8.3
				c0.4,0,0.7,0.1,0.9,0.3s0.2,0.5,0.2,0.9v1.1c0,0.4-0.1,0.7-0.2,0.9c-0.2,0.2-0.4,0.3-0.9,0.3h-4.7v1.7h2.9c0.4,0,0.7,0.1,0.9,0.3
				s0.2,0.5,0.2,0.9v1.1c0,0.4-0.1,0.7-0.2,0.9c-0.2,0.2-0.4,0.3-0.9,0.3h-2.9v1.7h4.7c0.4,0,0.7,0.1,0.9,0.3s0.2,0.5,0.2,0.9v1.1
				c0,0.4-0.1,0.7-0.2,0.9c-0.2,0.2-0.4,0.3-0.9,0.3h-8.3C275.8,165.6,275.5,165.5,275.3,165.3z"/>
			<path class="st35" d="M286.8,165.3c-0.2-0.2-0.3-0.5-0.3-0.9v-11.3c0-0.4,0.1-0.7,0.3-0.9c0.2-0.2,0.5-0.3,0.9-0.3h4.8
				c2,0,3.5,0.4,4.4,1.2c0.9,0.8,1.4,2,1.4,3.6c0,1-0.2,1.8-0.5,2.4c-0.3,0.7-0.8,1.2-1.5,1.5l1.9,4c0.1,0.1,0.1,0.2,0.1,0.4
				c0,0.1-0.1,0.3-0.2,0.4c-0.1,0.1-0.2,0.1-0.4,0.1h-3.4c-0.2,0-0.4,0-0.5-0.1c-0.1-0.1-0.2-0.2-0.3-0.3l-1.5-3.7h-0.7v3
				c0,0.4-0.1,0.7-0.3,0.9c-0.2,0.2-0.5,0.3-1,0.3h-2.4C287.3,165.6,286.9,165.5,286.8,165.3z M292.1,158.1c0.4,0,0.8-0.1,1-0.3
				c0.2-0.2,0.4-0.6,0.4-1c0-0.5-0.1-0.8-0.4-1c-0.2-0.2-0.6-0.3-1-0.3h-1.4v2.7H292.1z"/>
			<path class="st35" d="M297.9,165.2c0-0.1,0-0.3,0.1-0.4l5-12c0.1-0.3,0.3-0.5,0.4-0.6s0.4-0.2,0.7-0.2h2.2c0.3,0,0.5,0.1,0.6,0.2
				s0.3,0.3,0.4,0.6l5,12c0.1,0.2,0.1,0.3,0.1,0.4c0,0.3-0.1,0.4-0.4,0.4h-3.8c-0.4,0-0.7-0.2-0.8-0.5l-0.5-1.5h-3.5l-0.5,1.5
				c-0.1,0.4-0.4,0.5-0.8,0.5h-3.8C298.1,165.6,297.9,165.4,297.9,165.2z M305.9,160.4l-0.8-2.5l-0.8,2.5H305.9z"/>
		</g>
	</g>
</g>
</svg>
