<?xml version="1.0" encoding="utf-8"?>
<!-- Generator: Adobe Illustrator 23.0.0, SVG Export Plug-In . SVG Version: 6.00 Build 0)  -->
<svg version="1.1" id="Capa_1" xmlns="http://www.w3.org/2000/svg" xmlns:xlink="http://www.w3.org/1999/xlink" x="0px" y="0px"
	 viewBox="0 0 500 500" style="enable-background:new 0 0 500 500;" xml:space="preserve">
<style type="text/css">
	.st0{fill:#0C2D44;}
	.st1{fill:#2C83AF;}
	.st2{fill:#FFFFFF;}
	.st3{fill:#00791D;}
	.st4{fill:#00D13C;}
	.st5{fill:#F2F2F2;}
	.st6{fill:#727272;}
	.st7{fill:#A3A3A3;}
	.st8{fill:#BCBCBC;}
	.st9{fill:none;}
	.st10{fill:#866A5E;}
	.st11{fill:#F7DDCB;}
	.st12{fill:#FFE6D4;}
	.st13{fill:#2D2D2D;}
	.st14{fill:#1C1B1A;}
	.st15{fill:#F5F5F5;}
	.st16{fill:#77181C;}
	.st17{fill:#EAEAEA;}
	.st18{fill:#262525;}
	.st19{fill:#11100F;}
	.st20{fill:#CCCDCE;}
	.st21{fill:#DFDFDF;}
	.st22{fill:#C2C2C2;}
	.st23{fill:#0085B0;}
	.st24{fill:#2A5936;}
	.st25{fill:#CD7054;}
	.st26{fill:#F1CC4B;}
	.st27{fill:#22272F;}
	.st28{fill:#1B2538;}
	.st29{fill:#253452;}
	.st30{fill:#F9F9F9;}
	.st31{fill:#2D3543;}
	.st32{fill:#2A3D60;}
	.st33{fill:#ACACAC;}
	.st34{fill:#6C92D5;}
	.st35{fill:#587955;}
	.st36{fill:#DAA449;}
	.st37{fill:#D4D4D4;}
	.st38{fill:#85B681;}
	.st39{fill:#A1DC9B;}
	.st40{fill:#90C58B;}
	.st41{fill:#81C378;}
	.st42{opacity:0.5;}
	.st43{fill:#A2CADE;}
	.st44{fill:#9BAEC9;}
	.st45{fill:#9D2B3B;}
	.st46{fill:#C1D4F2;}
	.st47{fill:#534D46;}
	.st48{fill:#191819;}
	.st49{fill:#222123;}
	.st50{fill:#F3FF00;}
	.st51{fill:none;stroke:#5A605A;stroke-width:4;stroke-miterlimit:10;}
	.st52{fill:#505050;}
	.st53{fill:#FFB412;}
	.st54{fill:#53C2C9;}
	.st55{fill:#008B9C;}
	.st56{fill:none;stroke:#00550B;stroke-width:4;stroke-miterlimit:10;}
</style>
<g>
	<g>
		<circle class="st0" cx="254.5" cy="144.1" r="112"/>
		<circle class="st0" cx="143" cy="299.1" r="111.9"/>
		<circle class="st0" cx="328" cy="339.4" r="112"/>
	</g>
	<g>
		<circle class="st1" cx="250.4" cy="268.1" r="161.6"/>
	</g>
	<g>
		<path class="st2" d="M181.1,326.1c-1.7-1.5-2.5-3.7-2.5-6.6c0-2.9,0.8-5.2,2.4-6.7c1.6-1.5,3.9-2.2,7-2.2c1.4,0,2.6,0.1,3.6,0.4
			c1.1,0.3,2,0.6,2.7,1.1c0.2,0.2,0.3,0.3,0.3,0.5c0,0.2-0.1,0.4-0.2,0.6l-1.3,2.2c-0.1,0.2-0.3,0.3-0.5,0.3c-0.1,0-0.3-0.1-0.6-0.2
			c-0.5-0.2-1-0.4-1.5-0.6c-0.5-0.1-1.1-0.2-1.8-0.2c-1.4,0-2.4,0.4-3.2,1.2c-0.7,0.8-1.1,2-1.1,3.5c0,1.5,0.4,2.7,1.2,3.5
			c0.8,0.8,1.9,1.2,3.3,1.2c1.2,0,2.3-0.3,3.3-0.8c0.3-0.1,0.5-0.2,0.6-0.2c0.2,0,0.3,0.1,0.5,0.4l1.3,2.1c0.2,0.3,0.2,0.5,0.2,0.6
			c0,0.2-0.1,0.4-0.3,0.5c-0.7,0.5-1.6,0.9-2.7,1.1c-1.1,0.3-2.3,0.4-3.7,0.4C185.1,328.3,182.7,327.6,181.1,326.1z"/>
		<path class="st2" d="M194.9,327.4c0-0.1,0-0.3,0.1-0.5l6.2-15c0.1-0.4,0.3-0.6,0.5-0.7c0.2-0.1,0.5-0.2,0.8-0.2h2.7
			c0.4,0,0.6,0.1,0.8,0.2c0.2,0.1,0.4,0.4,0.5,0.7l6.2,15c0.1,0.2,0.1,0.4,0.1,0.5c0,0.4-0.2,0.5-0.5,0.5h-4.7c-0.5,0-0.8-0.2-1-0.7
			l-0.6-1.9h-4.4l-0.6,1.9c-0.1,0.4-0.5,0.7-1,0.7h-4.7C195.1,327.9,194.9,327.8,194.9,327.4z M204.9,321.5l-1-3.1l-1,3.1H204.9z"/>
		<path class="st2" d="M213.9,327.6c-0.2-0.2-0.3-0.6-0.3-1.1v-14.2c0-0.5,0.1-0.8,0.3-1.1s0.6-0.3,1.2-0.3h2.9c0.4,0,0.7,0,0.9,0.1
			c0.2,0.1,0.4,0.3,0.5,0.5l2.9,7.3l2.9-7.3c0.1-0.3,0.3-0.4,0.5-0.5c0.2-0.1,0.5-0.1,0.9-0.1h2.9c0.6,0,1,0.1,1.2,0.3
			s0.3,0.6,0.3,1.1v14.2c0,0.5-0.1,0.8-0.3,1.1c-0.2,0.2-0.6,0.3-1.2,0.3h-2.4c-0.5,0-0.9-0.1-1.2-0.3c-0.2-0.2-0.4-0.6-0.4-1.1
			v-6.8l-1.5,3.4c-0.2,0.5-0.4,0.8-0.6,1c-0.2,0.2-0.6,0.3-1.1,0.3c-0.5,0-0.9-0.1-1.2-0.3c-0.2-0.2-0.4-0.6-0.6-1l-1.5-3.4v6.8
			c0,0.5-0.1,0.8-0.3,1.1c-0.2,0.2-0.6,0.3-1.2,0.3h-2.4C214.6,327.9,214.2,327.8,213.9,327.6z"/>
		<path class="st2" d="M233.1,327.6c-0.2-0.2-0.3-0.6-0.3-1.1v-14.2c0-0.5,0.1-0.8,0.3-1.1c0.2-0.2,0.6-0.3,1.2-0.3h6
			c2.5,0,4.3,0.5,5.5,1.5s1.7,2.5,1.7,4.5s-0.6,3.5-1.7,4.5c-1.1,1-3,1.5-5.4,1.5h-1.5v3.7c0,0.5-0.1,0.8-0.3,1.1
			c-0.2,0.2-0.6,0.3-1.2,0.3h-3C233.7,327.9,233.3,327.8,233.1,327.6z M239.7,318.6c0.5,0,1-0.1,1.3-0.4c0.3-0.3,0.5-0.7,0.5-1.3
			c0-0.6-0.2-1-0.5-1.3c-0.3-0.3-0.7-0.4-1.3-0.4H238v3.4H239.7z"/>
		<path class="st2" d="M245.2,327.4c0-0.1,0-0.3,0.1-0.5l6.2-15c0.1-0.4,0.3-0.6,0.5-0.7c0.2-0.1,0.5-0.2,0.8-0.2h2.7
			c0.4,0,0.6,0.1,0.8,0.2c0.2,0.1,0.4,0.4,0.5,0.7l6.2,15c0.1,0.2,0.1,0.4,0.1,0.5c0,0.4-0.2,0.5-0.5,0.5H258c-0.5,0-0.8-0.2-1-0.7
			l-0.6-1.9H252l-0.6,1.9c-0.1,0.4-0.5,0.7-1,0.7h-4.7C245.3,327.9,245.2,327.8,245.2,327.4z M255.2,321.5l-1-3.1l-1,3.1H255.2z"/>
		<path class="st2" d="M264.8,327.6c-0.2-0.2-0.3-0.6-0.3-1.1v-14.2c0-0.5,0.1-0.8,0.3-1.1s0.6-0.3,1.2-0.3h2.4c0.4,0,0.6,0,0.8,0.1
			c0.2,0.1,0.4,0.3,0.6,0.5l4.5,6.7v-6c0-0.5,0.1-0.8,0.3-1.1c0.2-0.2,0.6-0.3,1.2-0.3h3c0.6,0,1,0.1,1.2,0.3s0.3,0.6,0.3,1.1v14.2
			c0,0.5-0.1,0.8-0.3,1.1c-0.2,0.2-0.6,0.3-1.2,0.3h-2.4c-0.4,0-0.6,0-0.8-0.1c-0.2-0.1-0.4-0.3-0.6-0.5l-4.5-6.7v6
			c0,0.5-0.1,0.8-0.3,1.1c-0.2,0.2-0.6,0.3-1.2,0.3h-3C265.4,327.9,265,327.8,264.8,327.6z M273.6,309.5c-0.3-0.1-0.7-0.3-1.1-0.5
			c-0.4-0.2-0.7-0.3-1-0.4s-0.5-0.1-0.7-0.1c-0.3,0-0.5,0.1-0.7,0.2c-0.2,0.1-0.4,0.3-0.7,0.7c-0.2,0.2-0.4,0.3-0.6,0.3
			c-0.3,0-0.8-0.3-1.5-0.8c-0.3-0.3-0.6-0.5-0.8-0.7c-0.1-0.2-0.2-0.4-0.2-0.5c0-0.2,0.1-0.5,0.4-0.9c0.6-0.8,1.1-1.4,1.6-1.8
			c0.5-0.4,1.1-0.5,1.8-0.5c0.5,0,0.9,0.1,1.3,0.2c0.4,0.1,0.8,0.3,1.2,0.6c0.3,0.2,0.6,0.3,0.8,0.4c0.2,0.1,0.4,0.1,0.6,0.1
			c0.3,0,0.5-0.1,0.7-0.2c0.2-0.1,0.4-0.3,0.7-0.6c0.2-0.2,0.4-0.3,0.6-0.3c0.3,0,0.8,0.3,1.5,0.8c0.3,0.2,0.6,0.4,0.7,0.6
			c0.1,0.2,0.2,0.4,0.2,0.6c0,0.2-0.1,0.5-0.4,0.9c-0.5,0.8-1.1,1.4-1.6,1.7s-1.1,0.5-1.8,0.5C274.2,309.7,273.9,309.7,273.6,309.5z
			"/>
		<path class="st2" d="M281.5,327.4c0-0.1,0-0.3,0.1-0.5l6.2-15c0.1-0.4,0.3-0.6,0.5-0.7c0.2-0.1,0.5-0.2,0.8-0.2h2.7
			c0.4,0,0.6,0.1,0.8,0.2c0.2,0.1,0.4,0.4,0.5,0.7l6.2,15c0.1,0.2,0.1,0.4,0.1,0.5c0,0.4-0.2,0.5-0.5,0.5h-4.7c-0.5,0-0.8-0.2-1-0.7
			l-0.6-1.9h-4.4l-0.6,1.9c-0.1,0.4-0.5,0.7-1,0.7h-4.7C281.7,327.9,281.5,327.8,281.5,327.4z M291.5,321.5l-1-3.1l-1,3.1H291.5z"/>
		<path class="st2" d="M302.9,327.8c-1.3-0.3-2.3-0.8-3.1-1.3c-0.3-0.2-0.5-0.5-0.5-0.7c0-0.2,0.1-0.3,0.2-0.5l1.4-2.3
			c0.1-0.2,0.3-0.3,0.5-0.3c0.1,0,0.3,0.1,0.5,0.2c0.6,0.4,1.3,0.7,2.1,0.9c0.8,0.2,1.5,0.3,2.3,0.3c0.6,0,1.1-0.1,1.3-0.3
			c0.3-0.2,0.4-0.4,0.4-0.8c0-0.4-0.2-0.7-0.5-0.9c-0.4-0.2-1-0.5-1.9-0.9c-1.7-0.6-3-1.4-4-2.2c-1-0.8-1.5-1.9-1.5-3.3
			c0-1.7,0.6-3,1.8-3.9s2.8-1.3,4.9-1.3c1.4,0,2.7,0.1,3.7,0.4c1,0.3,1.9,0.6,2.6,1.2c0.3,0.2,0.5,0.5,0.5,0.7
			c0,0.2-0.1,0.3-0.2,0.5l-1.5,2.3c-0.1,0.2-0.3,0.4-0.4,0.4c-0.1,0-0.3-0.1-0.5-0.2c-0.4-0.3-0.9-0.5-1.4-0.7
			c-0.5-0.2-1.1-0.3-1.8-0.3c-0.6,0-1,0.1-1.3,0.3c-0.3,0.2-0.5,0.4-0.5,0.8c0,0.3,0.1,0.6,0.3,0.8c0.2,0.2,0.5,0.4,0.8,0.5
			c0.3,0.1,0.9,0.4,1.6,0.7c1.3,0.5,2.2,1,3,1.4c0.7,0.5,1.3,1,1.6,1.6c0.4,0.6,0.5,1.5,0.5,2.4c0,1.5-0.6,2.7-1.7,3.6
			c-1.1,0.9-2.8,1.4-5,1.4C305.6,328.3,304.2,328.1,302.9,327.8z"/>
		<path class="st2" d="M169.3,357.6c-0.2-0.2-0.3-0.6-0.3-1.1v-14.2c0-0.5,0.1-0.8,0.3-1.1c0.2-0.2,0.6-0.3,1.2-0.3h5.8
			c5.9,0,8.8,2.8,8.8,8.5c0,2.8-0.8,4.9-2.3,6.3c-1.5,1.4-3.7,2.2-6.6,2.2h-5.8C169.9,357.9,169.5,357.8,169.3,357.6z M176.5,353.7
			c0.9,0,1.6-0.3,2-0.9c0.4-0.6,0.6-1.7,0.6-3.3s-0.2-2.7-0.6-3.3s-1.1-0.9-2-0.9H175v8.5H176.5z"/>
		<path class="st2" d="M186.6,357.6c-0.2-0.2-0.3-0.6-0.3-1.1v-14.2c0-0.5,0.1-0.8,0.3-1.1c0.2-0.2,0.6-0.3,1.2-0.3h10.4
			c0.5,0,0.9,0.1,1.1,0.3c0.2,0.2,0.3,0.6,0.3,1.1v1.4c0,0.5-0.1,0.9-0.3,1.1c-0.2,0.2-0.6,0.3-1.1,0.3h-5.9v2.2h3.6
			c0.5,0,0.9,0.1,1.1,0.3c0.2,0.2,0.3,0.6,0.3,1.1v1.3c0,0.5-0.1,0.9-0.3,1.1c-0.2,0.2-0.6,0.3-1.1,0.3h-3.6v2.2h5.8
			c0.5,0,0.9,0.1,1.1,0.3c0.2,0.2,0.3,0.6,0.3,1.1v1.4c0,0.5-0.1,0.9-0.3,1.1c-0.2,0.2-0.6,0.3-1.1,0.3h-10.3
			C187.3,357.9,186.9,357.8,186.6,357.6z"/>
		<path class="st2" d="M207.7,357.4c0-0.1,0-0.3,0.1-0.5l6.2-15c0.1-0.4,0.3-0.6,0.5-0.7c0.2-0.1,0.5-0.2,0.8-0.2h2.7
			c0.4,0,0.6,0.1,0.8,0.2c0.2,0.1,0.4,0.4,0.5,0.7l6.2,15c0.1,0.2,0.1,0.4,0.1,0.5c0,0.4-0.2,0.5-0.5,0.5h-4.7c-0.5,0-0.8-0.2-1-0.7
			l-0.6-1.9h-4.4l-0.6,1.9c-0.1,0.4-0.5,0.7-1,0.7h-4.7C207.8,357.9,207.7,357.8,207.7,357.4z M217.7,351.5l-1-3.1l-1,3.1H217.7z"/>
		<path class="st2" d="M228.1,357.6c-0.2-0.2-0.3-0.6-0.3-1.1v-11.3h-3.6c-0.5,0-0.9-0.1-1.1-0.3c-0.2-0.2-0.3-0.6-0.3-1.1v-1.4
			c0-0.5,0.1-0.9,0.3-1.1s0.6-0.3,1.1-0.3h13.2c0.5,0,0.9,0.1,1.1,0.3c0.2,0.2,0.3,0.6,0.3,1.1v1.4c0,0.5-0.1,0.9-0.3,1.1
			c-0.2,0.2-0.6,0.3-1.1,0.3h-3.6v11.3c0,0.5-0.1,0.8-0.3,1.1c-0.2,0.2-0.6,0.3-1.2,0.3h-3C228.8,357.9,228.4,357.8,228.1,357.6z"/>
		<path class="st2" d="M239.9,357.6c-0.2-0.2-0.3-0.6-0.3-1.1v-14.2c0-0.5,0.1-0.8,0.3-1.1c0.2-0.2,0.6-0.3,1.2-0.3h10.4
			c0.5,0,0.9,0.1,1.1,0.3c0.2,0.2,0.3,0.6,0.3,1.1v1.4c0,0.5-0.1,0.9-0.3,1.1c-0.2,0.2-0.6,0.3-1.1,0.3h-5.9v2.2h3.6
			c0.5,0,0.9,0.1,1.1,0.3c0.2,0.2,0.3,0.6,0.3,1.1v1.3c0,0.5-0.1,0.9-0.3,1.1c-0.2,0.2-0.6,0.3-1.1,0.3h-3.6v2.2h5.8
			c0.5,0,0.9,0.1,1.1,0.3c0.2,0.2,0.3,0.6,0.3,1.1v1.4c0,0.5-0.1,0.9-0.3,1.1c-0.2,0.2-0.6,0.3-1.1,0.3H241
			C240.5,357.9,240.1,357.8,239.9,357.6z"/>
		<path class="st2" d="M254.2,357.6c-0.2-0.2-0.3-0.6-0.3-1.1v-14.2c0-0.5,0.1-0.8,0.3-1.1s0.6-0.3,1.2-0.3h2.4c0.4,0,0.6,0,0.8,0.1
			c0.2,0.1,0.4,0.3,0.6,0.5l4.5,6.7v-6c0-0.5,0.1-0.8,0.3-1.1c0.2-0.2,0.6-0.3,1.2-0.3h3c0.6,0,1,0.1,1.2,0.3s0.3,0.6,0.3,1.1v14.2
			c0,0.5-0.1,0.8-0.3,1.1c-0.2,0.2-0.6,0.3-1.2,0.3h-2.4c-0.4,0-0.6,0-0.8-0.1c-0.2-0.1-0.4-0.3-0.6-0.5l-4.5-6.7v6
			c0,0.5-0.1,0.8-0.3,1.1c-0.2,0.2-0.6,0.3-1.2,0.3h-3C254.8,357.9,254.4,357.8,254.2,357.6z"/>
		<path class="st2" d="M273.5,356.1c-1.7-1.5-2.5-3.7-2.5-6.6c0-2.9,0.8-5.2,2.4-6.7c1.6-1.5,3.9-2.2,7-2.2c1.4,0,2.6,0.1,3.6,0.4
			c1.1,0.3,2,0.6,2.7,1.1c0.2,0.2,0.3,0.3,0.3,0.5c0,0.2-0.1,0.4-0.2,0.6l-1.3,2.2c-0.1,0.2-0.3,0.3-0.5,0.3c-0.1,0-0.3-0.1-0.6-0.2
			c-0.5-0.2-1-0.4-1.5-0.6c-0.5-0.1-1.1-0.2-1.8-0.2c-1.4,0-2.4,0.4-3.2,1.2c-0.7,0.8-1.1,2-1.1,3.5c0,1.5,0.4,2.7,1.2,3.5
			c0.8,0.8,1.9,1.2,3.3,1.2c1.2,0,2.3-0.3,3.3-0.8c0.3-0.1,0.5-0.2,0.6-0.2c0.2,0,0.3,0.1,0.5,0.4l1.3,2.1c0.2,0.3,0.2,0.5,0.2,0.6
			c0,0.2-0.1,0.4-0.3,0.5c-0.7,0.5-1.6,0.9-2.7,1.1c-1.1,0.3-2.3,0.4-3.7,0.4C277.5,358.3,275.1,357.6,273.5,356.1z"/>
		<path class="st2" d="M288.8,357.6c-0.2-0.2-0.3-0.6-0.3-1.1v-14.2c0-0.5,0.1-0.8,0.3-1.1c0.2-0.2,0.6-0.3,1.2-0.3h3
			c0.6,0,1,0.1,1.2,0.3s0.3,0.6,0.3,1.1v14.2c0,0.5-0.1,0.8-0.3,1.1c-0.2,0.2-0.6,0.3-1.2,0.3h-3C289.4,357.9,289,357.8,288.8,357.6
			z"/>
		<path class="st2" d="M298,356c-1.5-1.5-2.3-3.7-2.3-6.6c0-2.8,0.8-5,2.3-6.6c1.5-1.5,3.8-2.3,6.8-2.3s5.2,0.8,6.8,2.3
			c1.5,1.5,2.3,3.7,2.3,6.6c0,2.8-0.8,5-2.3,6.6c-1.5,1.5-3.8,2.3-6.8,2.3S299.5,357.5,298,356z M307.1,352.9
			c0.5-0.8,0.7-1.9,0.7-3.5c0-1.6-0.2-2.8-0.7-3.5c-0.5-0.8-1.3-1.1-2.4-1.1s-1.9,0.4-2.3,1.1c-0.5,0.8-0.7,1.9-0.7,3.5
			c0,1.6,0.2,2.7,0.7,3.5c0.5,0.8,1.3,1.2,2.3,1.2S306.6,353.7,307.1,352.9z M302.1,338.8c0-0.1,0-0.3,0.1-0.4l1-2.9
			c0.1-0.4,0.3-0.6,0.5-0.8c0.2-0.1,0.5-0.2,1-0.2h3.6c0.4,0,0.6,0.1,0.8,0.2c0.2,0.1,0.3,0.3,0.3,0.5c0,0.2-0.1,0.4-0.2,0.6
			l-1.6,2.7c-0.2,0.4-0.5,0.7-0.7,0.8c-0.2,0.1-0.6,0.2-1.2,0.2h-2.7C302.4,339.5,302.1,339.3,302.1,338.8z"/>
		<path class="st2" d="M315.4,357.6c-0.2-0.2-0.3-0.6-0.3-1.1v-14.2c0-0.5,0.1-0.8,0.3-1.1s0.6-0.3,1.2-0.3h2.4c0.4,0,0.6,0,0.8,0.1
			c0.2,0.1,0.4,0.3,0.6,0.5l4.5,6.7v-6c0-0.5,0.1-0.8,0.3-1.1c0.2-0.2,0.6-0.3,1.2-0.3h3c0.6,0,1,0.1,1.2,0.3s0.3,0.6,0.3,1.1v14.2
			c0,0.5-0.1,0.8-0.3,1.1c-0.2,0.2-0.6,0.3-1.2,0.3H327c-0.4,0-0.6,0-0.8-0.1c-0.2-0.1-0.4-0.3-0.6-0.5l-4.5-6.7v6
			c0,0.5-0.1,0.8-0.3,1.1c-0.2,0.2-0.6,0.3-1.2,0.3h-3C316,357.9,315.6,357.8,315.4,357.6z"/>
		<path class="st2" d="M179.8,387.4c0-0.1,0-0.3,0.1-0.5l6.2-15c0.1-0.4,0.3-0.6,0.5-0.7c0.2-0.1,0.5-0.2,0.8-0.2h2.7
			c0.4,0,0.6,0.1,0.8,0.2c0.2,0.1,0.4,0.4,0.5,0.7l6.2,15c0.1,0.2,0.1,0.4,0.1,0.5c0,0.4-0.2,0.5-0.5,0.5h-4.7c-0.5,0-0.8-0.2-1-0.7
			l-0.6-1.9h-4.4l-0.6,1.9c-0.1,0.4-0.5,0.7-1,0.7h-4.7C180,387.9,179.8,387.8,179.8,387.4z M189.8,381.5l-1-3.1l-1,3.1H189.8z"/>
		<path class="st2" d="M199.5,387.6c-0.2-0.2-0.3-0.6-0.3-1.1v-14.2c0-0.5,0.1-0.8,0.3-1.1c0.2-0.2,0.6-0.3,1.2-0.3h3
			c0.6,0,1,0.1,1.2,0.3s0.3,0.6,0.3,1.1v11.3h5.8c0.5,0,0.9,0.1,1.1,0.3c0.2,0.2,0.3,0.6,0.3,1.1v1.4c0,0.5-0.1,0.9-0.3,1.1
			c-0.2,0.2-0.6,0.3-1.1,0.3h-10.3C200.1,387.9,199.7,387.8,199.5,387.6z"/>
		<path class="st2" d="M222.6,386.1c-1.7-1.5-2.5-3.7-2.5-6.6c0-2.9,0.8-5.2,2.4-6.7c1.6-1.5,3.9-2.2,7-2.2c1.4,0,2.6,0.1,3.6,0.4
			c1.1,0.3,2,0.6,2.7,1.1c0.2,0.2,0.3,0.3,0.3,0.5c0,0.2-0.1,0.4-0.2,0.6l-1.3,2.2c-0.1,0.2-0.3,0.3-0.5,0.3c-0.1,0-0.3-0.1-0.6-0.2
			c-0.5-0.2-1-0.4-1.5-0.6c-0.5-0.1-1.1-0.2-1.8-0.2c-1.4,0-2.4,0.4-3.2,1.2c-0.7,0.8-1.1,2-1.1,3.5c0,1.5,0.4,2.7,1.2,3.5
			c0.8,0.8,1.9,1.2,3.3,1.2c1.2,0,2.3-0.3,3.3-0.8c0.3-0.1,0.5-0.2,0.6-0.2c0.2,0,0.3,0.1,0.5,0.4l1.3,2.1c0.2,0.3,0.2,0.5,0.2,0.6
			c0,0.2-0.1,0.4-0.3,0.5c-0.7,0.5-1.6,0.9-2.7,1.1c-1.1,0.3-2.3,0.4-3.7,0.4C226.6,388.3,224.3,387.6,222.6,386.1z"/>
		<path class="st2" d="M237.9,387.6c-0.2-0.2-0.3-0.6-0.3-1.1v-14.2c0-0.5,0.1-0.8,0.3-1.1c0.2-0.2,0.6-0.3,1.2-0.3h3
			c0.6,0,1,0.1,1.2,0.3s0.3,0.6,0.3,1.1v11.3h5.8c0.5,0,0.9,0.1,1.1,0.3c0.2,0.2,0.3,0.6,0.3,1.1v1.4c0,0.5-0.1,0.9-0.3,1.1
			c-0.2,0.2-0.6,0.3-1.1,0.3h-10.3C238.6,387.9,238.2,387.8,237.9,387.6z"/>
		<path class="st2" d="M251.9,387.6c-0.2-0.2-0.3-0.6-0.3-1.1v-14.2c0-0.5,0.1-0.8,0.3-1.1c0.2-0.2,0.6-0.3,1.2-0.3h3
			c0.6,0,1,0.1,1.2,0.3s0.3,0.6,0.3,1.1v14.2c0,0.5-0.1,0.8-0.3,1.1c-0.2,0.2-0.6,0.3-1.2,0.3h-3
			C252.5,387.9,252.1,387.8,251.9,387.6z"/>
		<path class="st2" d="M259.6,387.6c-0.2-0.2-0.3-0.6-0.3-1.1v-14.2c0-0.5,0.1-0.8,0.3-1.1c0.2-0.2,0.6-0.3,1.2-0.3h10.4
			c0.5,0,0.9,0.1,1.1,0.3c0.2,0.2,0.3,0.6,0.3,1.1v1.4c0,0.5-0.1,0.9-0.3,1.1c-0.2,0.2-0.6,0.3-1.1,0.3h-5.9v2.2h3.6
			c0.5,0,0.9,0.1,1.1,0.3c0.2,0.2,0.3,0.6,0.3,1.1v1.3c0,0.5-0.1,0.9-0.3,1.1c-0.2,0.2-0.6,0.3-1.1,0.3h-3.6v2.2h5.8
			c0.5,0,0.9,0.1,1.1,0.3c0.2,0.2,0.3,0.6,0.3,1.1v1.4c0,0.5-0.1,0.9-0.3,1.1c-0.2,0.2-0.6,0.3-1.1,0.3h-10.3
			C260.3,387.9,259.9,387.8,259.6,387.6z"/>
		<path class="st2" d="M274,387.6c-0.2-0.2-0.3-0.6-0.3-1.1v-14.2c0-0.5,0.1-0.8,0.3-1.1s0.6-0.3,1.2-0.3h2.4c0.4,0,0.6,0,0.8,0.1
			c0.2,0.1,0.4,0.3,0.6,0.5l4.5,6.7v-6c0-0.5,0.1-0.8,0.3-1.1c0.2-0.2,0.6-0.3,1.2-0.3h3c0.6,0,1,0.1,1.2,0.3s0.3,0.6,0.3,1.1v14.2
			c0,0.5-0.1,0.8-0.3,1.1c-0.2,0.2-0.6,0.3-1.2,0.3h-2.4c-0.4,0-0.6,0-0.8-0.1c-0.2-0.1-0.4-0.3-0.6-0.5l-4.5-6.7v6
			c0,0.5-0.1,0.8-0.3,1.1c-0.2,0.2-0.6,0.3-1.2,0.3h-3C274.6,387.9,274.2,387.8,274,387.6z"/>
		<path class="st2" d="M295.5,387.6c-0.2-0.2-0.3-0.6-0.3-1.1v-11.3h-3.6c-0.5,0-0.9-0.1-1.1-0.3c-0.2-0.2-0.3-0.6-0.3-1.1v-1.4
			c0-0.5,0.1-0.9,0.3-1.1s0.6-0.3,1.1-0.3h13.2c0.5,0,0.9,0.1,1.1,0.3c0.2,0.2,0.3,0.6,0.3,1.1v1.4c0,0.5-0.1,0.9-0.3,1.1
			c-0.2,0.2-0.6,0.3-1.1,0.3h-3.6v11.3c0,0.5-0.1,0.8-0.3,1.1c-0.2,0.2-0.6,0.3-1.2,0.3h-3C296.1,387.9,295.7,387.8,295.5,387.6z"/>
		<path class="st2" d="M307.2,387.6c-0.2-0.2-0.3-0.6-0.3-1.1v-14.2c0-0.5,0.1-0.8,0.3-1.1c0.2-0.2,0.6-0.3,1.2-0.3h10.4
			c0.5,0,0.9,0.1,1.1,0.3c0.2,0.2,0.3,0.6,0.3,1.1v1.4c0,0.5-0.1,0.9-0.3,1.1c-0.2,0.2-0.6,0.3-1.1,0.3h-5.9v2.2h3.6
			c0.5,0,0.9,0.1,1.1,0.3c0.2,0.2,0.3,0.6,0.3,1.1v1.3c0,0.5-0.1,0.9-0.3,1.1c-0.2,0.2-0.6,0.3-1.1,0.3h-3.6v2.2h5.8
			c0.5,0,0.9,0.1,1.1,0.3c0.2,0.2,0.3,0.6,0.3,1.1v1.4c0,0.5-0.1,0.9-0.3,1.1c-0.2,0.2-0.6,0.3-1.1,0.3h-10.3
			C307.9,387.9,307.5,387.8,307.2,387.6z"/>
	</g>
	<g>
		<circle id="XMLID_380_" class="st5" cx="248.8" cy="210.4" r="86.2"/>
		<g id="XMLID_363_">
			<path id="XMLID_379_" class="st9" d="M271.1,232.3c0.2,0.2,0.3,0.3,0.5,0.5C271.4,232.6,271.2,232.5,271.1,232.3z"/>
			<path id="XMLID_378_" class="st9" d="M228.3,232.2c-0.2,0.1-0.5,0.4-0.8,0.8C227.7,232.8,228,232.5,228.3,232.2z"/>
			<path id="XMLID_377_" class="st11" d="M249.5,241.9c0.1,0.1,0.1,0.1,0.2,0.2c0-0.1,0.1-0.2,0.2-0.2c10.3-7.9,14.3-13.1,16.1-14.5
				c-1.2-2.6-1.7-5.2-1.9-7.4c-0.2,0.2-0.4,0.4-0.6,0.6c-1.2,1.1-2.5,2.1-4,2.9c-1.2,0.7-2.5,1.3-3.8,1.7c-1.2,0.4-2.5,0.6-3.7,0.8
				c-1.6,0.2-3.2,0.1-4.7-0.1c-1.3-0.2-2.5-0.5-3.7-1c-1.4-0.5-2.6-1.2-3.8-2c-1.4-1-2.8-2.1-4-3.3c0,0,0,0,0,0
				c-0.2,2.3-0.7,5.1-2,7.9C235.3,228.9,239.3,234.1,249.5,241.9z"/>
			<path id="XMLID_376_" class="st44" d="M246.2,256.5c-1.4-3.1-2.9-4.9-3.1-7.4c-1.4,1.6-2.5,3.2-2.3,4.8
				c0.4,4.4-12.4-10.4-14-17.9c-0.2,1.3-0.3,4.3,3.8,10.3c2,2.9,7.3,18.1,12.5,34.3c1.6-11,3.2-20.9,3.7-23.6
				C246.6,256.9,246.3,256.7,246.2,256.5z"/>
			<path id="XMLID_375_" class="st44" d="M253,256.5c-0.1,0.2-0.3,0.4-0.5,0.5c0.5,2.7,2.1,13.1,3.8,24.4
				c4.4-15.1,9.9-31.6,12.3-35.2c3.9-5.7,3.9-8.7,3.8-10.1c-1.8,7.5-14.4,22-14,17.7c0.1-1.6-0.9-3.2-2.3-4.8
				C255.9,251.6,254.4,253.4,253,256.5z"/>
			<path id="XMLID_374_" class="st44" d="M270.2,250.6l0.1,0.1c0,0,0-0.1,0-0.1C270.3,250.6,270.2,250.6,270.2,250.6z"/>
			<path id="XMLID_373_" class="st45" d="M256.3,281.5c-1.7-11.3-3.3-21.7-3.8-24.4c0.2-0.1,0.4-0.3,0.5-0.5
				c1.4-3.1,2.9-4.9,3.1-7.4c-2.5-2.8-6.1-5.3-6.5-6.6c-0.4,1.3-4,3.8-6.5,6.6c0.2,2.6,1.7,4.3,3.1,7.4c0.1,0.2,0.3,0.4,0.5,0.5
				c-0.5,2.6-2.1,12.6-3.7,23.6c1.7,5.3,3.4,10.8,5,16c0.3,0,0.7,0,1,0c1,0,2,0,3.1-0.1C253.3,292.1,254.7,286.9,256.3,281.5z"/>
			<path id="XMLID_372_" class="st46" d="M228.3,232.2c-0.3,0.3-0.6,0.6-0.8,0.8c-0.3,0.5-0.6,1.2-0.6,2.3c0,0.1,0,0.3-0.1,0.6
				c1.6,7.5,14.4,22.3,14,17.9c-0.1-1.6,0.9-3.2,2.3-4.8c2.5-2.8,6.1-5.3,6.5-6.6c0.4,1.3,4,3.8,6.5,6.6c1.4,1.6,2.5,3.2,2.3,4.8
				c-0.4,4.4,12.2-10.1,14-17.7c0-0.4-0.1-0.7-0.1-0.8c0.1-1.2-0.3-2-0.7-2.5c-0.1-0.1-0.3-0.3-0.5-0.5c-0.2-0.2-0.4-0.3-0.4-0.3
				s0.1,0,0.1,0c-1.1-1-2.4-2.5-3.8-4.8c-0.2-0.4-0.6-0.4-1.2,0.1c-1.8,1.4-5.8,6.7-16.1,14.5c-0.1,0.1-0.1,0.1-0.2,0.2
				c0-0.1-0.1-0.2-0.2-0.2c-10.2-7.8-14.2-13-16-14.5c-0.6-0.5-1-0.6-1.2-0.1c-1.3,2.3-2.7,3.7-3.8,4.8c0,0,0.1,0,0.1,0
				S228.4,232.1,228.3,232.2z"/>
			<path id="XMLID_371_" class="st12" d="M239.5,222.8c1.2,0.8,2.5,1.5,3.8,2c1.2,0.5,2.5,0.8,3.7,1c1.6,0.2,3.2,0.3,4.7,0.1
				c1.3-0.1,2.5-0.4,3.7-0.8c1.3-0.4,2.6-1,3.8-1.7c1.4-0.8,2.7-1.8,4-2.9c0.2-0.2,0.4-0.4,0.6-0.6c0.2-0.2,0.4-0.3,0.5-0.5
				c5.3-5.1,5.2-18,6.5-17.1c2.9,2,4.8-3.9,5.1-7.3c0.3-3-0.8-4.4-2-3.9c-0.3,0.7-0.7,1.3-1.3,1.6c0,0-1.8,7.5-2.6,7.3
				c-0.8-0.2-0.4-7,0.8-15c1.3-8.5-9.1-4.8-16.4-5c-7.3-0.2-24.2-1.7-25.5,2.3c-1.3,4,1.2,16.1,0.2,16.6c-1,0.5-2.3-5.5-3.4-6.7
				c-0.2-0.2-0.3-0.6-0.5-1.2c-1-0.1-1.9,1.4-1.6,4c0.4,3.5,2.2,9.3,5.1,7.3c1.3-0.9,1.2,11.9,6.5,17.1c0,0,0,0,0,0
				C236.7,220.7,238,221.8,239.5,222.8z"/>
			<path id="XMLID_370_" class="st47" d="M229.3,199c1-0.5-1.5-12.6-0.2-16.6c1.3-4,18.2-2.6,25.5-2.3c7.3,0.2,17.7-3.5,16.4,5
				c-1.2,8-1.6,14.8-0.8,15c0.8,0.2,2.6-7.3,2.6-7.3c0.5-0.3,0.9-0.9,1.3-1.6c2.1-4.6,1.1-16.2,1.1-18.2c0-2.4-3.6-6.4-5.2-6.4
				c-1.6,0-0.3-6.6-10.9-9.4c-10.7-2.8-20-1.4-25.3,1.2c-5.2,2.6-9.1,7.1-11.5,7.8c-2.3,0.7,0.8,2.4-1,4c-1.8,1.6,1.3,3.8,1.8,7.1
				c0.4,2.8,1.4,10.7,2.3,13.8c0.2,0.6,0.4,1.1,0.5,1.2C227,193.5,228.3,199.5,229.3,199z"/>
			<path id="XMLID_369_" class="st48" d="M279.8,239.5c2.6,4.6,2.7,7.4,4.5,8.7c1.7,1.3-12.4,2.3-14,2.4c0,0,0,0.1,0,0.1l9.9,7.5
				c0,0-8.6,11.7-13.3,18.6c-1.6,2.4-5.7,9.4-8,13.4c-0.6,1.1-1.9,3.5-3.3,6.1c13.5-1,26.1-5.2,37.1-11.7c1.4-16.9,5.3-39.8,13-38.5
				c-3-1.3-11.5-3-17.3-5.3c-5-2-8.9-4.5-11.4-4.6C278.2,237.1,279.1,238.2,279.8,239.5z"/>
			<path id="XMLID_368_" d="M271.1,232.3c0.2,0.1,0.3,0.3,0.5,0.5c0.4,0.5,0.8,1.3,0.7,2.5c0,0.2,0,0.4,0.1,0.8
				c0.1,1.4,0.1,4.4-3.8,10.1c-2.5,3.6-7.9,20.1-12.3,35.2c-1.6,5.4-3,10.6-4.2,15.1c1.2,0,2.4-0.1,3.6-0.2c1.4-2.6,2.7-5,3.3-6.1
				c2.3-4,6.3-11,8-13.4c4.6-6.9,13.3-18.6,13.3-18.6l-9.9-7.5l-0.1-0.1c0,0,0.1,0,0.1,0c1.5-0.1,15.7-1.1,14-2.4
				c-1.8-1.3-1.9-4.2-4.5-8.7c-0.7-1.3-1.7-2.4-2.6-3.2c-1.3-1.2-2.5-2-3.2-2.6c-1.8-1.5-2.9-1.6-3.2-1.6c-0.1,0-0.1,0-0.1,0
				S270.9,232.2,271.1,232.3z"/>
			<path id="XMLID_367_" class="st49" d="M207.6,286c10.6,5.9,22.6,9.5,35.4,10.4c-1.4-3.1-2.4-5.5-2.9-6.2c-2.3-4-6.3-11-8-13.4
				c-4.6-6.9-13.3-18.6-13.3-18.6l10-7.6c0,0-15.9-1-14.1-2.4c1.8-1.3,1.9-4.2,4.5-8.7c0.8-1.3,1.7-2.4,2.7-3.3
				c-2.4,0.7-5.8,2.7-9.8,4.3c-6.3,2.6-16,4.4-18,5.7C202.3,244.3,206.3,268.7,207.6,286z"/>
			<path id="XMLID_366_" d="M219.4,239.5c-2.6,4.6-2.7,7.4-4.5,8.7c-1.8,1.3,14.1,2.4,14.1,2.4l-10,7.6c0,0,8.6,11.7,13.3,18.6
				c1.6,2.4,5.7,9.4,8,13.4c0.4,0.7,1.5,3.1,2.9,6.2c1.7,0.1,3.4,0.2,5.1,0.2c-1.6-5.2-3.3-10.6-5-16c-5.2-16.3-10.5-31.4-12.5-34.3
				c-4-5.9-3.9-9-3.8-10.3c0-0.3,0.1-0.5,0.1-0.6c-0.1-1.1,0.2-1.8,0.6-2.3c0.3-0.4,0.6-0.7,0.8-0.8c0.1-0.1,0.2-0.1,0.2-0.1
				s0,0-0.1,0c-0.3,0-1.4,0-3.3,1.6c-0.6,0.5-1.9,1.3-3.1,2.5C221.1,237,220.1,238.1,219.4,239.5z"/>
			<path id="XMLID_365_" d="M207.6,286c-1.3-17.2-5.3-41.7-13.3-39.8c-0.3,0.1-0.7,0.2-1,0.4c-1.8,0.9-3.7,10.5-6,23.8
				C193.2,276.5,200,281.8,207.6,286z"/>
			<path id="XMLID_364_" d="M292.9,284.6c7.4-4.4,14.1-9.8,19.9-16.2c-2.2-12.3-3.9-21-5.7-21.9c-0.4-0.2-0.8-0.3-1.2-0.4
				C298.2,244.8,294.3,267.7,292.9,284.6z"/>
		</g>
	</g>
</g>
</svg>
