<?xml version="1.0" encoding="utf-8"?>
<!-- Generator: Adobe Illustrator 23.0.0, SVG Export Plug-In . SVG Version: 6.00 Build 0)  -->
<svg version="1.1" id="Capa_1" xmlns="http://www.w3.org/2000/svg" xmlns:xlink="http://www.w3.org/1999/xlink" x="0px" y="0px"
	 viewBox="0 0 500 500" style="enable-background:new 0 0 500 500;" xml:space="preserve">
<style type="text/css">
	.st0{fill:#0C2D44;}
	.st1{fill:#2C83AF;}
	.st2{fill:#FFFFFF;}
	.st3{fill:#00791D;}
	.st4{fill:#00D13C;}
	.st5{fill:#F2F2F2;}
	.st6{fill:#727272;}
	.st7{fill:#A3A3A3;}
	.st8{fill:#BCBCBC;}
	.st9{fill:none;}
	.st10{fill:#866A5E;}
	.st11{fill:#F7DDCB;}
	.st12{fill:#FFE6D4;}
	.st13{fill:#2D2D2D;}
	.st14{fill:#1C1B1A;}
	.st15{fill:#F5F5F5;}
	.st16{fill:#77181C;}
	.st17{fill:#EAEAEA;}
	.st18{fill:#262525;}
	.st19{fill:#11100F;}
	.st20{fill:#CCCDCE;}
	.st21{fill:#DFDFDF;}
	.st22{fill:#C2C2C2;}
	.st23{fill:#0085B0;}
	.st24{fill:#2A5936;}
	.st25{fill:#CD7054;}
	.st26{fill:#F1CC4B;}
	.st27{fill:#22272F;}
	.st28{fill:#1B2538;}
	.st29{fill:#253452;}
	.st30{fill:#F9F9F9;}
	.st31{fill:#2D3543;}
	.st32{fill:#2A3D60;}
	.st33{fill:#ACACAC;}
	.st34{fill:#6C92D5;}
	.st35{fill:#587955;}
	.st36{fill:#DAA449;}
	.st37{fill:#D4D4D4;}
	.st38{fill:#85B681;}
	.st39{fill:#A1DC9B;}
	.st40{fill:#90C58B;}
	.st41{fill:#81C378;}
	.st42{opacity:0.5;}
	.st43{fill:#A2CADE;}
	.st44{fill:#9BAEC9;}
	.st45{fill:#9D2B3B;}
	.st46{fill:#C1D4F2;}
	.st47{fill:#534D46;}
	.st48{fill:#191819;}
	.st49{fill:#222123;}
	.st50{fill:#F3FF00;}
	.st51{fill:none;stroke:#5A605A;stroke-width:4;stroke-miterlimit:10;}
	.st52{fill:#505050;}
	.st53{fill:#FFB412;}
	.st54{fill:#53C2C9;}
	.st55{fill:#008B9C;}
	.st56{fill:none;stroke:#00550B;stroke-width:4;stroke-miterlimit:10;}
</style>
<g>
	<g>
		<circle class="st3" cx="268.5" cy="143.1" r="112"/>
		<circle class="st3" cx="157" cy="298.1" r="111.9"/>
		<circle class="st3" cx="342" cy="338.4" r="112"/>
	</g>
</g>
<g>
	<circle class="st4" cx="264.4" cy="267.1" r="161.6"/>
</g>
<g>
	<circle id="XMLID_50_" class="st5" cx="258.9" cy="214.1" r="77.1"/>
	<g id="XMLID_26_">
		<path id="XMLID_49_" class="st9" d="M280.3,211.1c1-2.4,1.5-4.4,1.6-4.9c-0.1,0-0.2-0.1-0.2-0.1c-0.2-0.2,0.3-2.7,0.1-2.9
			c0,0-0.1,0-0.1,0c-0.3,0.9-0.8,1.6-1.4,2.1C280.3,207.1,280.3,209.1,280.3,211.1z"/>
		<path id="XMLID_48_" class="st10" d="M276.9,206.2c-1.1-0.8-1.1,10.7-5.8,15.3c-0.3,0.3-0.7,0.6-1,1c-0.4,0.3-0.7,0.6-1.1,0.9
			c0,0.2,0,0.3,0,0.5c4.4-1.3,7.5-5.1,9.4-8.5c0.9-1.5,1.5-3,2.1-4.3c0-2,0-4,0-5.9c-0.4,0.3-0.8,0.5-1.1,0.7
			C278.5,206.6,277.8,206.8,276.9,206.2z"/>
		<path id="XMLID_47_" class="st10" d="M240,237c-0.1,0.1-0.5,0.3-0.8,0.8C239.4,237.5,239.7,237.3,240,237z"/>
		<path id="XMLID_46_" class="st10" d="M268.9,224.5c0.1,2.5,0.6,5.9,2.7,8.9c0.7-0.6,1.1-0.7,1.3-0.3c1.5,2.6,3.1,4,4,4.9
			c-0.4-0.8-1-1-1-1s1.1-0.4,3,1.2c0.4,0.4,1.2,0.9,2.1,1.6c-1-4.9-0.8-16.1-0.7-27.2c-0.5,1-1,2-1.6,3.1
			C276,220.4,272.6,223.4,268.9,224.5z"/>
		<path id="XMLID_45_" class="st10" d="M240.1,236.9c0.9-0.9,2-2.1,3-3.9c0.3-0.4,0.6-0.3,1.4,0.4c2.4-3.5,2.7-7.4,2.8-10
			c-0.7-0.6-1.5-1.2-2.2-1.9c-4.7-4.6-4.7-16.1-5.8-15.3c-0.9,0.6-1.7,0.4-2.3-0.3c-0.2-0.1-0.5-0.2-0.7-0.3
			c0,12.6,0.5,27.4-0.6,33.7c0.6-0.5,1.2-0.9,1.5-1.2C238.9,236.6,240,236.9,240.1,236.9z"/>
		<path id="XMLID_44_" class="st11" d="M267.9,224.1c0.3-0.1,0.7-0.1,1-0.2c0-0.2,0-0.3,0-0.5C268.5,223.6,268.2,223.9,267.9,224.1z
			"/>
		<path id="XMLID_43_" class="st11" d="M257.9,245.5c0.1,0.1,0.1,0.1,0.1,0.2c0-0.1,0.1-0.2,0.1-0.2c8.3-6.3,11.8-10.7,13.5-12.2
			c-2.1-3-2.6-6.4-2.7-8.9c-0.7,0.2-1.4,0.3-2.1,0.4c-0.2,0.9-1.1,2.5-4.1,2.5c-0.6,0-1.2-0.1-1.6-0.2c-0.5,0.1-0.9,0.2-1.4,0.2
			c-1.4,0.1-2.9,0.1-4.2-0.1c-1.1-0.2-2.3-0.5-3.4-0.9c-1.2-0.5-2.4-1.1-3.4-1.8c-0.5-0.3-1-0.7-1.4-1.1c0,2.6-0.3,6.5-2.8,10
			C246.1,234.9,249.7,239.3,257.9,245.5z"/>
		<path id="XMLID_42_" class="st11" d="M258,246C258,246,258,246,258,246L258,246C258,246,258,246,258,246z"/>
		<path id="XMLID_41_" class="st12" d="M252.1,226.3c1.1,0.4,2.2,0.7,3.4,0.9c1.4,0.2,2.8,0.3,4.2,0.1c0.5,0,0.9-0.1,1.4-0.2
			c-2-0.6-2.2-2.2-2.2-2.7c0.1-0.7,0.3-2.9,3.9-2.8c3.2,0,4,1.9,4.1,2.7c0.4,0,0.7-0.1,1.1-0.2c0.3-0.2,0.6-0.5,1-0.7
			c0.4-0.3,0.8-0.6,1.1-0.9c0.4-0.3,0.7-0.6,1-1c4.7-4.6,4.7-16.1,5.8-15.3c0.9,0.6,1.7,0.4,2.3-0.3c-0.6,0.2-1.1,0.2-1.5,0
			c-0.6-0.4,0-3.6,0.5-8.6c-0.1,0-0.1,0-0.2,0.1c-0.9,0.6-2-7.1-6.3-10.7c-4.3-3.6-4.7-6-4.7-6c-4.3,0.5-8.6,2.1-15.7,7.7
			c-5.7,4.5-10.7,9-13,9.6c-0.2,0.1-0.3-0.2-0.5-0.5c0.5,4.8,1.1,8,0.5,8.4c-0.4,0.2-0.9,0.2-1.4,0.1c0.7,0.7,1.4,0.9,2.3,0.3
			c1.1-0.8,1.1,10.7,5.8,15.3c0.7,0.7,1.4,1.3,2.2,1.9c0.5,0.4,0.9,0.7,1.4,1.1C249.7,225.2,250.9,225.8,252.1,226.3z"/>
		<path id="XMLID_40_" class="st10" d="M236,188.8c0.2-4.2,4.1-19.6,22-19.6c17.9,0,21.8,15.4,22,19.6c0.1,2.7-0.1,4.3,0.1,5.3
			c0.1-0.9,0.1-2.1,0.1-3.7c0-8.1-3.3-16.4-8.6-17.8c-2.5-0.7-2.9-3.1-8.5-4.8c-9-2.7-19.3,1-24.5,9.7c-3.7,6.1-3.8,14.6-3.5,17.6
			C236.5,194.4,235.8,192.8,236,188.8z"/>
		<path id="XMLID_39_" class="st10" d="M238.3,197.9c2.3-0.6,7.3-5.1,13-9.6c7.1-5.7,11.4-7.2,15.7-7.7c0,0,0.3,2.4,4.7,6
			c4.3,3.6,5.5,11.3,6.3,10.7c0.1,0,0.1-0.1,0.2-0.1c0-0.5,0.1-1,0.1-1.6c0.4-5.8,0.4-7.7-0.2-9.9c-4.4-16.3-20.2-15.1-20.2-15.1
			s-15.2-1.4-20.1,14.9c-0.6,2.2-0.7,4.3-0.3,10.1c0,0.6,0.1,1.2,0.2,1.8C238,197.8,238.1,198,238.3,197.9z"/>
		<path id="XMLID_38_" class="st13" d="M238.3,205.8c0.6-0.4,0-3.6-0.5-8.4c-0.1-0.6-0.1-1.1-0.2-1.8c-0.4-5.8-0.4-8,0.3-10.1
			c4.9-16.3,20.1-14.9,20.1-14.9s15.8-1.2,20.2,15.1c0.6,2.1,0.6,4,0.2,9.9c0,0.5-0.1,1.1-0.1,1.6c-0.5,5-1.1,8.2-0.5,8.6
			c0.4,0.2,0.9,0.2,1.5,0c0.4-0.1,0.8-0.4,1.1-0.7c0.6-0.5,1.1-1.2,1.4-2.1c-0.2-0.1-0.6,0.1-0.7-0.3c-0.2-0.4-0.1-2.4,0.1-2.9
			c0.2-0.4,0.4-0.6,1.1-0.5c0,0,0.1,0,0.1,0c0.1-2-0.2-3.9-1.2-4.3c-0.6-0.2-0.8-0.6-0.9-1.1c-0.2-1,0.1-2.5-0.1-5.3
			c-0.2-4.2-4.1-19.6-22-19.6c-17.9,0-21.8,15.4-22,19.6c-0.2,4,0.5,5.6-0.8,6.2c-0.1,0-0.1,0.1-0.2,0.1c-1.6,0.6-1.3,4.8-0.9,7.3
			c0.2,1.4,1.1,2.5,2.1,3.1c0.2,0.1,0.5,0.3,0.7,0.3C237.4,206.1,237.9,206.1,238.3,205.8z"/>
		<path id="XMLID_37_" class="st14" d="M281.1,200c-0.2,0.4-0.3,2.4-0.1,2.9c0.2,0.4,0.5,0.2,0.7,0.3c0,0,0.1,0,0.1,0
			c0.2,0.2-0.3,2.7-0.1,2.9c0,0.1,0.1,0.1,0.2,0.1c-0.1,0.5-0.6,2.4-1.6,4.9c-0.5,1.3-1.2,2.8-2.1,4.3c-1.9,3.3-5,7.2-9.4,8.5
			c-0.3,0.1-0.6,0.2-1,0.2c-0.3,0.1-0.7,0.1-1.1,0.2c-0.1-0.8-0.9-2.7-4.1-2.7c-3.6,0-3.8,2.2-3.9,2.8c0.1,0.5,0.2,2.1,2.2,2.7
			c0.4,0.1,1,0.2,1.6,0.2c3,0,3.9-1.6,4.1-2.5c0.7-0.1,1.4-0.2,2.1-0.4c3.7-1,7.1-4,9.9-8.8c0.6-1,1.1-2.1,1.6-3.1
			c1.4-3.2,2.2-5.9,2.2-6.4c0,0,0.1,0,0.1,0c0.2-0.2,0.4-1.8,0.6-3.7c0.1-1.8-0.4-2.7-1-2.9c0,0-0.1,0-0.1,0
			C281.4,199.3,281.2,199.5,281.1,200z"/>
		<path id="XMLID_36_" class="st15" d="M254.9,259.2c-1.3-2.9-2.7-4.6-2.9-7c-1,1.2-1.6,2.4-1.5,3.5c0.4,3.8-11-9.3-12-15.6
			c-0.2,1.2-0.2,3.7,3.3,8.7c2.4,3.3,7.9,12.9,11.9,21.4c0.8-5.2,1.4-9.1,1.7-10.6C255.1,259.6,254.9,259.4,254.9,259.2z"/>
		<path id="XMLID_35_" class="st15" d="M265.5,255.8c0.1-1.2-0.6-2.4-1.5-3.5c-0.1,2.4-1.6,4.1-2.9,7c-0.1,0.2-0.3,0.4-0.5,0.5
			c0.3,1.5,1,5.8,1.8,11.2c3.9-8.7,9.5-18.6,11.9-22.1c3.7-5.2,3.5-7.7,3.3-8.8C276.7,246.2,265.1,259.6,265.5,255.8z"/>
		<path id="XMLID_34_" class="st15" d="M240.3,252.6C240.3,252.6,240.3,252.6,240.3,252.6L240.3,252.6
			C240.3,252.6,240.3,252.6,240.3,252.6z"/>
		<path id="XMLID_33_" class="st16" d="M261.1,259.2c1.3-2.9,2.7-4.6,2.9-7c-2.1-2.6-5.7-5.1-6-6.2h0c-0.3,1.2-3.9,3.6-6,6.2
			c0.1,2.4,1.6,4.1,2.9,7c0.1,0.2,0.3,0.4,0.5,0.5c-0.3,1.5-0.9,5.5-1.7,10.6c2.4,5.1,4.3,9.8,4.6,12.7c0.3-2.8,2-7.3,4.2-12.1
			c-0.8-5.5-1.5-9.7-1.8-11.2C260.8,259.6,261,259.4,261.1,259.2z"/>
		<path id="XMLID_32_" class="st17" d="M272.9,233.1c-0.3-0.4-0.6-0.3-1.3,0.3c-1.7,1.5-5.2,5.8-13.5,12.2c-0.1,0.1-0.1,0.1-0.1,0.2
			c0-0.1-0.1-0.2-0.1-0.2c-8.2-6.3-11.7-10.6-13.4-12.1c-0.7-0.6-1.1-0.8-1.4-0.4c-1.1,1.8-2.1,3-3,3.9c0,0,0,0,0,0s0,0,0,0
			c-0.3,0.3-0.6,0.6-0.8,0.8c-0.3,0.4-0.5,1-0.6,1.8c0,0.2-0.1,0.4-0.1,0.7c1.1,6.3,12.4,19.4,12,15.6c-0.1-1.2,0.6-2.4,1.5-3.5
			c2.1-2.6,5.7-5.1,6-6.2c0,0,0,0,0,0c0,0,0,0,0,0c0.3,1.2,3.9,3.6,6,6.2c1,1.2,1.6,2.4,1.5,3.5c-0.4,3.9,11.2-9.5,12.1-15.7
			c0-0.2-0.1-0.4-0.1-0.5c-0.1-0.7-0.3-1.2-0.6-1.6C276,237,274.4,235.7,272.9,233.1z"/>
		<path id="XMLID_31_" class="st14" d="M303.5,249.2c-0.7-1-16-6.2-20.9-8c0.5,0.6,1,1.2,1.4,1.9c2.2,3.9,2.3,6.3,3.9,7.5
			c1.5,1.2-12.1,2-12.1,2l8.6,6.5c0,0-9.6,11-16.1,15.7c-2,1.5-8.4,7.3-9.9,9.9c0.4,1.7,1,4.3,1.1,5.3c0.1,0.4,0.1,0.9,0.2,1.3
			c11.8-0.1,23-2.9,33-7.8c0.3-5.9-0.7-29.2,10.5-34.1c0.2-0.1,0.5,0.1,0.8,0.7c0,0,0,0,0,0C303.7,249.6,303.6,249.4,303.5,249.2z"
			/>
		<path id="XMLID_30_" class="st18" d="M258.3,284.6L258.3,284.6c-1.8-1.6-8.4-8.4-10.4-9.9c-6.5-4.7-16.1-15.7-16.1-15.7l8.5-6.4
			c0,0,0,0,0,0c-0.9-0.1-13.5-0.9-12-2c1.5-1.2,1.7-3.6,3.9-7.5c0.4-0.8,1-1.4,1.5-2c-5.2,1.9-20,7-20.7,8c12,0.6,10.8,27.3,11,34
			c10.4,5.3,22.2,8.2,34.7,8.2c0.3,0,0.6,0,0.9,0c-0.1-0.4-0.1-0.9-0.2-1.3C259.3,288.9,258.6,286.3,258.3,284.6z"/>
		<path id="XMLID_29_" class="st19" d="M232.1,243.1c-2.2,3.9-2.3,6.3-3.9,7.5c-1.5,1.1,11.1,2,12,2c0,0,0.1,0,0.1,0l0,0l-8.5,6.4
			c0,0,9.6,11,16.1,15.7c2,1.5,8.6,8.3,10.4,9.9l0,0c1.5-2.5,7.9-8.4,9.9-9.9c6.5-4.7,16.1-15.7,16.1-15.7l-8.6-6.5
			c0,0,13.6-0.9,12.1-2c-1.5-1.2-1.7-3.6-3.9-7.5c-0.4-0.7-0.9-1.3-1.4-1.9c-0.5-0.6-1-1-1.5-1.4c-0.8-0.7-1.6-1.2-2.1-1.6
			c-1.9-1.6-3-1.2-3-1.2s0.5,0.2,1,1c0.2,0.4,0.4,0.9,0.6,1.6c0,0.1,0.1,0.3,0.1,0.5c0.2,1.1,0.4,3.6-3.3,8.8
			c-2.4,3.4-8,13.4-11.9,22.1c-2.2,4.9-3.8,9.3-4.2,12.1c-0.3-2.9-2.2-7.6-4.6-12.7c-4-8.6-9.6-18.1-11.9-21.4
			c-3.5-4.9-3.5-7.5-3.3-8.7c0-0.3,0.1-0.5,0.1-0.7c0.1-0.8,0.4-1.4,0.6-1.8c0.3-0.5,0.7-0.8,0.8-0.8c0,0,0,0,0,0s0,0,0,0
			c-0.1,0-1.2-0.3-3,1.2c-0.3,0.3-0.9,0.7-1.5,1.2c-0.6,0.5-1.3,1.1-1.9,1.7C233.1,241.6,232.6,242.3,232.1,243.1z"/>
		<path id="XMLID_28_" class="st19" d="M212.9,249c-0.7,0-2.9,10.4-5.2,23c4.9,4.3,10.3,8,16.2,11
			C223.7,276.2,224.9,249.6,212.9,249z"/>
		<path id="XMLID_27_" class="st19" d="M303,249.2c-11.2,5-10.2,28.2-10.5,34.1c6-3,11.6-6.7,16.6-11.1c-1.9-10.7-4-19.9-5.4-22.4
			C303.5,249.4,303.2,249.1,303,249.2z"/>
	</g>
</g>
<g>
	<path class="st2" d="M170.1,327.5c-0.3-0.3-0.4-0.7-0.4-1.2v-15.8c0-0.5,0.1-0.9,0.4-1.2c0.3-0.3,0.7-0.4,1.3-0.4h6.7
		c2.8,0,4.8,0.6,6.1,1.7c1.3,1.1,1.9,2.8,1.9,5c0,1.3-0.2,2.5-0.7,3.4c-0.5,0.9-1.2,1.6-2.1,2.2l2.6,5.6c0.1,0.1,0.1,0.3,0.1,0.5
		c0,0.2-0.1,0.4-0.2,0.5s-0.3,0.2-0.5,0.2h-4.7c-0.3,0-0.5,0-0.7-0.1s-0.3-0.2-0.4-0.4l-2.1-5.2h-1v4.2c0,0.5-0.1,0.9-0.4,1.2
		c-0.3,0.3-0.7,0.4-1.3,0.4h-3.3C170.7,327.9,170.3,327.8,170.1,327.5z M177.5,317.5c0.6,0,1.1-0.2,1.4-0.5c0.3-0.3,0.5-0.8,0.5-1.4
		c0-0.7-0.2-1.1-0.5-1.5c-0.3-0.3-0.8-0.5-1.4-0.5h-1.9v3.8H177.5z"/>
	<path class="st2" d="M187.9,327.5c-0.3-0.3-0.4-0.7-0.4-1.2v-15.8c0-0.5,0.1-0.9,0.4-1.2c0.3-0.3,0.7-0.4,1.3-0.4h11.6
		c0.6,0,1,0.1,1.2,0.4s0.3,0.7,0.3,1.2v1.6c0,0.6-0.1,1-0.3,1.2s-0.6,0.4-1.2,0.4h-6.6v2.4h4c0.6,0,1,0.1,1.2,0.4
		c0.2,0.3,0.3,0.7,0.3,1.2v1.5c0,0.6-0.1,1-0.3,1.2c-0.2,0.3-0.6,0.4-1.2,0.4h-4v2.4h6.5c0.6,0,1,0.1,1.2,0.4s0.3,0.7,0.3,1.2v1.6
		c0,0.6-0.1,1-0.3,1.2s-0.6,0.4-1.2,0.4h-11.6C188.5,327.9,188.1,327.8,187.9,327.5z"/>
	<path class="st2" d="M204.6,325.8c-1.9-1.7-2.8-4.1-2.8-7.4c0-3.3,0.9-5.8,2.7-7.4c1.8-1.7,4.4-2.5,7.8-2.5c1.5,0,2.9,0.1,4.1,0.4
		c1.2,0.3,2.2,0.7,3,1.3c0.2,0.2,0.3,0.4,0.3,0.6c0,0.2-0.1,0.4-0.3,0.7l-1.4,2.4c-0.1,0.3-0.3,0.4-0.5,0.4c-0.1,0-0.3-0.1-0.6-0.2
		c-0.5-0.3-1.1-0.5-1.6-0.6c-0.6-0.2-1.2-0.2-2-0.2c-1.5,0-2.7,0.4-3.6,1.3c-0.8,0.9-1.2,2.2-1.2,3.9c0,1.7,0.4,3,1.3,3.9
		c0.9,0.9,2.1,1.4,3.7,1.4c1.3,0,2.6-0.3,3.7-0.8c0.3-0.2,0.5-0.2,0.6-0.2c0.2,0,0.4,0.1,0.5,0.4l1.4,2.4c0.2,0.3,0.3,0.5,0.3,0.7
		c0,0.2-0.1,0.4-0.3,0.6c-0.8,0.5-1.8,1-3,1.3c-1.2,0.3-2.6,0.4-4.1,0.4C209.1,328.4,206.4,327.5,204.6,325.8z"/>
	<path class="st2" d="M222.1,325.8c-1.7-1.7-2.6-4.2-2.6-7.3s0.9-5.6,2.6-7.3s4.2-2.6,7.6-2.6c3.3,0,5.8,0.9,7.6,2.6
		c1.7,1.7,2.6,4.2,2.6,7.3s-0.9,5.6-2.6,7.3c-1.7,1.7-4.2,2.6-7.6,2.6C226.4,328.4,223.8,327.5,222.1,325.8z M232.3,322.3
		c0.5-0.9,0.8-2.2,0.8-3.9c0-1.8-0.3-3.1-0.8-3.9c-0.5-0.9-1.4-1.3-2.6-1.3c-1.2,0-2.1,0.4-2.6,1.3c-0.5,0.9-0.8,2.2-0.8,3.9
		c0,1.8,0.3,3.1,0.8,3.9c0.5,0.9,1.4,1.3,2.6,1.3C230.9,323.6,231.8,323.2,232.3,322.3z"/>
	<path class="st2" d="M241.6,327.5c-0.3-0.3-0.4-0.7-0.4-1.2v-15.8c0-0.5,0.1-0.9,0.4-1.2c0.3-0.3,0.7-0.4,1.3-0.4h3.3
		c0.6,0,1.1,0.1,1.3,0.4s0.4,0.7,0.4,1.2v12.7h6.5c0.6,0,1,0.1,1.2,0.4c0.2,0.3,0.3,0.7,0.3,1.2v1.6c0,0.6-0.1,1-0.3,1.2
		c-0.2,0.3-0.6,0.4-1.2,0.4h-11.6C242.3,327.9,241.8,327.8,241.6,327.5z"/>
	<path class="st2" d="M256.8,327.5c-0.3-0.3-0.4-0.7-0.4-1.2v-15.8c0-0.5,0.1-0.9,0.4-1.2c0.3-0.3,0.7-0.4,1.3-0.4h11.6
		c0.6,0,1,0.1,1.2,0.4s0.3,0.7,0.3,1.2v1.6c0,0.6-0.1,1-0.3,1.2s-0.6,0.4-1.2,0.4h-6.6v2.4h4c0.6,0,1,0.1,1.2,0.4
		c0.2,0.3,0.3,0.7,0.3,1.2v1.5c0,0.6-0.1,1-0.3,1.2c-0.2,0.3-0.6,0.4-1.2,0.4h-4v2.4h6.5c0.6,0,1,0.1,1.2,0.4s0.3,0.7,0.3,1.2v1.6
		c0,0.6-0.1,1-0.3,1.2s-0.6,0.4-1.2,0.4h-11.6C257.5,327.9,257,327.8,256.8,327.5z"/>
	<path class="st2" d="M273.5,325.8c-1.9-1.7-2.8-4.1-2.8-7.4c0-3.3,0.9-5.8,2.7-7.4c1.8-1.7,4.4-2.5,7.8-2.5c1.5,0,2.9,0.1,4.1,0.4
		s2.2,0.7,3,1.3c0.2,0.2,0.3,0.4,0.3,0.6c0,0.2-0.1,0.4-0.3,0.7l-1.4,2.4c-0.1,0.3-0.3,0.4-0.5,0.4c-0.1,0-0.3-0.1-0.6-0.2
		c-0.5-0.3-1.1-0.5-1.6-0.6c-0.6-0.2-1.2-0.2-2-0.2c-1.5,0-2.7,0.4-3.6,1.3c-0.8,0.9-1.2,2.2-1.2,3.9c0,1.7,0.4,3,1.3,3.9
		c0.9,0.9,2.1,1.4,3.7,1.4c1.3,0,2.6-0.3,3.7-0.8c0.3-0.2,0.5-0.2,0.6-0.2c0.2,0,0.4,0.1,0.5,0.4l1.4,2.4c0.2,0.3,0.3,0.5,0.3,0.7
		c0,0.2-0.1,0.4-0.3,0.6c-0.8,0.5-1.8,1-3,1.3c-1.2,0.3-2.6,0.4-4.1,0.4C278,328.4,275.4,327.5,273.5,325.8z"/>
	<path class="st2" d="M291.9,325.8c-1.9-1.7-2.8-4.1-2.8-7.4c0-3.3,0.9-5.8,2.7-7.4c1.8-1.7,4.4-2.5,7.8-2.5c1.5,0,2.9,0.1,4.1,0.4
		s2.2,0.7,3,1.3c0.2,0.2,0.3,0.4,0.3,0.6c0,0.2-0.1,0.4-0.3,0.7l-1.4,2.4c-0.1,0.3-0.3,0.4-0.5,0.4c-0.1,0-0.3-0.1-0.6-0.2
		c-0.5-0.3-1.1-0.5-1.6-0.6c-0.6-0.2-1.2-0.2-2-0.2c-1.5,0-2.7,0.4-3.6,1.3c-0.8,0.9-1.2,2.2-1.2,3.9c0,1.7,0.4,3,1.3,3.9
		c0.9,0.9,2.1,1.4,3.7,1.4c1.3,0,2.6-0.3,3.7-0.8c0.3-0.2,0.5-0.2,0.6-0.2c0.2,0,0.4,0.1,0.5,0.4l1.4,2.4c0.2,0.3,0.3,0.5,0.3,0.7
		c0,0.2-0.1,0.4-0.3,0.6c-0.8,0.5-1.8,1-3,1.3c-1.2,0.3-2.6,0.4-4.1,0.4C296.4,328.4,293.8,327.5,291.9,325.8z"/>
	<path class="st2" d="M309,327.5c-0.3-0.3-0.4-0.7-0.4-1.2v-15.8c0-0.5,0.1-0.9,0.4-1.2c0.3-0.3,0.7-0.4,1.3-0.4h3.3
		c0.6,0,1.1,0.1,1.3,0.4c0.3,0.3,0.4,0.7,0.4,1.2v15.8c0,0.5-0.1,0.9-0.4,1.2c-0.3,0.3-0.7,0.4-1.3,0.4h-3.3
		C309.7,327.9,309.3,327.8,309,327.5z"/>
	<path class="st2" d="M319.4,325.8c-1.7-1.7-2.6-4.2-2.6-7.3s0.9-5.6,2.6-7.3s4.2-2.6,7.6-2.6c3.3,0,5.8,0.9,7.6,2.6
		c1.7,1.7,2.6,4.2,2.6,7.3s-0.9,5.6-2.6,7.3c-1.7,1.7-4.2,2.6-7.6,2.6C323.6,328.4,321.1,327.5,319.4,325.8z M329.6,322.3
		c0.5-0.9,0.8-2.2,0.8-3.9c0-1.8-0.3-3.1-0.8-3.9c-0.5-0.9-1.4-1.3-2.6-1.3c-1.2,0-2.1,0.4-2.6,1.3c-0.5,0.9-0.8,2.2-0.8,3.9
		c0,1.8,0.3,3.1,0.8,3.9c0.5,0.9,1.4,1.3,2.6,1.3C328.1,323.6,329,323.2,329.6,322.3z M324,306.5c0-0.2,0-0.3,0.1-0.5l1.2-3.2
		c0.1-0.4,0.3-0.7,0.5-0.9s0.6-0.2,1.1-0.2h4c0.4,0,0.7,0.1,0.9,0.2c0.2,0.1,0.3,0.3,0.3,0.6c0,0.2-0.1,0.5-0.2,0.7l-1.8,3
		c-0.3,0.4-0.5,0.7-0.8,0.9c-0.2,0.1-0.7,0.2-1.3,0.2h-3C324.3,307.3,324,307.1,324,306.5z"/>
	<path class="st2" d="M338.8,327.5c-0.3-0.3-0.4-0.7-0.4-1.2v-15.9c0-0.5,0.1-0.9,0.4-1.2s0.7-0.4,1.3-0.4h2.7
		c0.4,0,0.7,0.1,0.9,0.2c0.2,0.1,0.4,0.3,0.6,0.6l5.1,7.5v-6.7c0-0.5,0.1-0.9,0.4-1.2c0.3-0.3,0.7-0.4,1.3-0.4h3.3
		c0.6,0,1.1,0.1,1.3,0.4s0.4,0.7,0.4,1.2v15.9c0,0.5-0.1,0.9-0.4,1.2s-0.7,0.4-1.3,0.4h-2.7c-0.4,0-0.7-0.1-0.9-0.2
		c-0.2-0.1-0.4-0.3-0.6-0.6l-5.1-7.5v6.7c0,0.5-0.1,0.9-0.4,1.2c-0.3,0.3-0.7,0.4-1.3,0.4h-3.3C339.5,327.9,339.1,327.8,338.8,327.5
		z"/>
	<path class="st2" d="M147,361.1c-0.3-0.3-0.4-0.7-0.4-1.2v-15.8c0-0.5,0.1-0.9,0.4-1.2c0.3-0.3,0.7-0.4,1.3-0.4h6.4
		c6.6,0,9.9,3.2,9.9,9.5c0,3.1-0.8,5.5-2.5,7.1s-4.1,2.4-7.3,2.4h-6.4C147.7,361.5,147.3,361.4,147,361.1z M155,356.8
		c1,0,1.8-0.3,2.3-1c0.5-0.7,0.7-1.9,0.7-3.7c0-1.8-0.2-3-0.7-3.7c-0.5-0.7-1.2-1-2.3-1h-1.7v9.5H155z"/>
	<path class="st2" d="M166.5,361.1c-0.3-0.3-0.4-0.7-0.4-1.2v-15.8c0-0.5,0.1-0.9,0.4-1.2c0.3-0.3,0.7-0.4,1.3-0.4h11.6
		c0.6,0,1,0.1,1.2,0.4s0.3,0.7,0.3,1.2v1.6c0,0.6-0.1,1-0.3,1.2s-0.6,0.4-1.2,0.4h-6.6v2.4h4c0.6,0,1,0.1,1.2,0.4
		c0.2,0.3,0.3,0.7,0.3,1.2v1.5c0,0.6-0.1,1-0.3,1.2c-0.2,0.3-0.6,0.4-1.2,0.4h-4v2.4h6.5c0.6,0,1,0.1,1.2,0.4s0.3,0.7,0.3,1.2v1.6
		c0,0.6-0.1,1-0.3,1.2s-0.6,0.4-1.2,0.4h-11.6C167.1,361.5,166.7,361.4,166.5,361.1z"/>
	<path class="st2" d="M190.9,361.1c-0.3-0.3-0.4-0.7-0.4-1.2v-15.8c0-0.5,0.1-0.9,0.4-1.2c0.3-0.3,0.7-0.4,1.3-0.4h3.3
		c0.6,0,1.1,0.1,1.3,0.4s0.4,0.7,0.4,1.2v15.8c0,0.5-0.1,0.9-0.4,1.2c-0.3,0.3-0.7,0.4-1.3,0.4h-3.3
		C191.6,361.5,191.2,361.4,190.9,361.1z"/>
	<path class="st2" d="M199.6,361.1c-0.3-0.3-0.4-0.7-0.4-1.2v-15.9c0-0.5,0.1-0.9,0.4-1.2s0.7-0.4,1.3-0.4h2.7
		c0.4,0,0.7,0.1,0.9,0.2c0.2,0.1,0.4,0.3,0.6,0.6l5.1,7.5v-6.7c0-0.5,0.1-0.9,0.4-1.2c0.3-0.3,0.7-0.4,1.3-0.4h3.3
		c0.6,0,1.1,0.1,1.3,0.4s0.4,0.7,0.4,1.2V360c0,0.5-0.1,0.9-0.4,1.2s-0.7,0.4-1.3,0.4h-2.7c-0.4,0-0.7-0.1-0.9-0.2
		c-0.2-0.1-0.4-0.3-0.6-0.6l-5.1-7.5v6.7c0,0.5-0.1,0.9-0.4,1.2c-0.3,0.3-0.7,0.4-1.3,0.4h-3.3C200.3,361.5,199.9,361.4,199.6,361.1
		z"/>
	<path class="st2" d="M219.3,361.1c-0.3-0.3-0.4-0.7-0.4-1.2v-15.8c0-0.5,0.1-0.9,0.4-1.2c0.3-0.3,0.7-0.4,1.3-0.4h11.6
		c0.6,0,1,0.1,1.2,0.4c0.2,0.3,0.3,0.7,0.3,1.2v1.6c0,0.6-0.1,1-0.3,1.2c-0.2,0.3-0.6,0.4-1.2,0.4h-6.6v2.4h4c0.6,0,1,0.1,1.2,0.4
		s0.3,0.7,0.3,1.2v1.6c0,0.6-0.1,1-0.3,1.2s-0.6,0.4-1.2,0.4h-4v5.5c0,0.5-0.1,0.9-0.4,1.2c-0.3,0.3-0.7,0.4-1.3,0.4h-3.3
		C219.9,361.5,219.5,361.4,219.3,361.1z"/>
	<path class="st2" d="M235.4,359.4c-1.7-1.7-2.6-4.2-2.6-7.3s0.9-5.6,2.6-7.3c1.7-1.7,4.2-2.6,7.6-2.6s5.8,0.9,7.6,2.6
		c1.7,1.7,2.6,4.2,2.6,7.3s-0.9,5.6-2.6,7.3c-1.7,1.7-4.2,2.6-7.6,2.6S237.1,361.1,235.4,359.4z M245.6,355.9
		c0.5-0.9,0.8-2.2,0.8-3.9c0-1.8-0.3-3.1-0.8-3.9c-0.5-0.9-1.4-1.3-2.6-1.3c-1.2,0-2.1,0.4-2.6,1.3c-0.5,0.9-0.8,2.2-0.8,3.9
		c0,1.8,0.3,3.1,0.8,3.9c0.5,0.9,1.4,1.3,2.6,1.3C244.2,357.2,245.1,356.8,245.6,355.9z"/>
	<path class="st2" d="M254.9,361.1c-0.3-0.3-0.4-0.7-0.4-1.2v-15.8c0-0.5,0.1-0.9,0.4-1.2c0.3-0.3,0.7-0.4,1.3-0.4h6.7
		c2.8,0,4.8,0.6,6.1,1.7c1.3,1.1,1.9,2.8,1.9,5c0,1.3-0.2,2.5-0.7,3.4c-0.5,0.9-1.2,1.6-2.1,2.2l2.6,5.6c0.1,0.1,0.1,0.3,0.1,0.5
		c0,0.2-0.1,0.4-0.2,0.5s-0.3,0.2-0.5,0.2h-4.7c-0.3,0-0.5,0-0.7-0.1s-0.3-0.2-0.4-0.4l-2.1-5.2h-1v4.2c0,0.5-0.1,0.9-0.4,1.2
		c-0.3,0.3-0.7,0.4-1.3,0.4h-3.3C255.6,361.5,255.2,361.4,254.9,361.1z M262.3,351.1c0.6,0,1.1-0.2,1.4-0.5c0.3-0.3,0.5-0.8,0.5-1.4
		c0-0.7-0.2-1.1-0.5-1.5c-0.3-0.3-0.8-0.5-1.4-0.5h-1.9v3.8H262.3z"/>
	<path class="st2" d="M272.7,361.1c-0.3-0.3-0.4-0.7-0.4-1.2v-15.9c0-0.5,0.1-0.9,0.4-1.2s0.7-0.4,1.3-0.4h3.2c0.4,0,0.7,0.1,1,0.2
		c0.2,0.1,0.4,0.3,0.6,0.6l3.3,8.2l3.3-8.2c0.1-0.3,0.3-0.5,0.6-0.6c0.2-0.1,0.6-0.2,1-0.2h3.2c0.6,0,1.1,0.1,1.3,0.4
		s0.4,0.6,0.4,1.2v15.9c0,0.5-0.1,0.9-0.4,1.2c-0.3,0.3-0.7,0.4-1.3,0.4h-2.7c-0.6,0-1.1-0.1-1.3-0.4c-0.3-0.3-0.4-0.7-0.4-1.2v-7.6
		l-1.7,3.8c-0.2,0.5-0.5,0.9-0.7,1.2c-0.3,0.2-0.7,0.3-1.3,0.3s-1-0.1-1.3-0.3c-0.3-0.2-0.5-0.6-0.7-1.2l-1.7-3.8v7.6
		c0,0.5-0.1,0.9-0.4,1.2c-0.3,0.3-0.7,0.4-1.3,0.4H274C273.4,361.5,273,361.4,272.7,361.1z"/>
	<path class="st2" d="M292.5,360.9c0-0.2,0-0.4,0.1-0.6l7-16.8c0.2-0.4,0.4-0.7,0.6-0.8s0.5-0.2,0.9-0.2h3.1c0.4,0,0.7,0.1,0.9,0.2
		s0.4,0.4,0.6,0.8l6.9,16.8c0.1,0.2,0.1,0.4,0.1,0.6c0,0.4-0.2,0.6-0.6,0.6h-5.3c-0.6,0-0.9-0.3-1.1-0.8l-0.7-2.1h-5l-0.6,2.1
		c-0.1,0.5-0.5,0.8-1.1,0.8h-5.3C292.7,361.5,292.5,361.3,292.5,360.9z M303.7,354.3l-1.1-3.5l-1.1,3.5H303.7z"/>
	<path class="st2" d="M314.9,359.4c-1.9-1.7-2.8-4.1-2.8-7.4c0-3.3,0.9-5.8,2.7-7.4c1.8-1.7,4.4-2.5,7.8-2.5c1.5,0,2.9,0.1,4.1,0.4
		s2.2,0.7,3,1.3c0.2,0.2,0.3,0.4,0.3,0.6c0,0.2-0.1,0.4-0.3,0.7l-1.4,2.4c-0.1,0.3-0.3,0.4-0.5,0.4c-0.1,0-0.3-0.1-0.6-0.2
		c-0.5-0.3-1.1-0.5-1.6-0.6c-0.6-0.2-1.2-0.2-2-0.2c-1.5,0-2.7,0.4-3.6,1.3c-0.8,0.9-1.2,2.2-1.2,3.9c0,1.7,0.4,3,1.3,3.9
		c0.9,0.9,2.1,1.4,3.7,1.4c1.3,0,2.6-0.3,3.7-0.8c0.3-0.2,0.5-0.2,0.6-0.2c0.2,0,0.4,0.1,0.5,0.4l1.4,2.4c0.2,0.3,0.3,0.5,0.3,0.7
		c0,0.2-0.1,0.4-0.3,0.6c-0.8,0.5-1.8,1-3,1.3c-1.2,0.3-2.6,0.4-4.1,0.4C319.4,362,316.8,361.1,314.9,359.4z"/>
	<path class="st2" d="M332,361.1c-0.3-0.3-0.4-0.7-0.4-1.2v-15.8c0-0.5,0.1-0.9,0.4-1.2c0.3-0.3,0.7-0.4,1.3-0.4h3.3
		c0.6,0,1.1,0.1,1.3,0.4c0.3,0.3,0.4,0.7,0.4,1.2v15.8c0,0.5-0.1,0.9-0.4,1.2c-0.3,0.3-0.7,0.4-1.3,0.4h-3.3
		C332.7,361.5,332.3,361.4,332,361.1z"/>
	<path class="st2" d="M342.4,359.4c-1.7-1.7-2.6-4.2-2.6-7.3s0.9-5.6,2.6-7.3c1.7-1.7,4.2-2.6,7.6-2.6s5.8,0.9,7.6,2.6
		c1.7,1.7,2.6,4.2,2.6,7.3s-0.9,5.6-2.6,7.3c-1.7,1.7-4.2,2.6-7.6,2.6S344.1,361.1,342.4,359.4z M352.6,355.9
		c0.5-0.9,0.8-2.2,0.8-3.9c0-1.8-0.3-3.1-0.8-3.9c-0.5-0.9-1.4-1.3-2.6-1.3c-1.2,0-2.1,0.4-2.6,1.3c-0.5,0.9-0.8,2.2-0.8,3.9
		c0,1.8,0.3,3.1,0.8,3.9c0.5,0.9,1.4,1.3,2.6,1.3C351.1,357.2,352,356.8,352.6,355.9z M347,340.1c0-0.2,0-0.3,0.1-0.5l1.2-3.2
		c0.1-0.4,0.3-0.7,0.5-0.9c0.2-0.1,0.6-0.2,1.1-0.2h4c0.4,0,0.7,0.1,0.9,0.2c0.2,0.1,0.3,0.3,0.3,0.6c0,0.2-0.1,0.5-0.2,0.7l-1.8,3
		c-0.3,0.4-0.5,0.7-0.8,0.9s-0.7,0.2-1.3,0.2h-3C347.3,340.9,347,340.7,347,340.1z"/>
	<path class="st2" d="M361.8,361.1c-0.3-0.3-0.4-0.7-0.4-1.2v-15.9c0-0.5,0.1-0.9,0.4-1.2s0.7-0.4,1.3-0.4h2.7
		c0.4,0,0.7,0.1,0.9,0.2c0.2,0.1,0.4,0.3,0.6,0.6l5.1,7.5v-6.7c0-0.5,0.1-0.9,0.4-1.2c0.3-0.3,0.7-0.4,1.3-0.4h3.3
		c0.6,0,1.1,0.1,1.3,0.4s0.4,0.7,0.4,1.2V360c0,0.5-0.1,0.9-0.4,1.2s-0.7,0.4-1.3,0.4h-2.7c-0.4,0-0.7-0.1-0.9-0.2
		c-0.2-0.1-0.4-0.3-0.6-0.6l-5.1-7.5v6.7c0,0.5-0.1,0.9-0.4,1.2c-0.3,0.3-0.7,0.4-1.3,0.4h-3.3C362.5,361.5,362.1,361.4,361.8,361.1
		z"/>
</g>
</svg>
