<?xml version="1.0" encoding="utf-8"?>
<!-- Generator: Adobe Illustrator 23.0.0, SVG Export Plug-In . SVG Version: 6.00 Build 0)  -->
<svg version="1.1" id="Capa_1" xmlns="http://www.w3.org/2000/svg" xmlns:xlink="http://www.w3.org/1999/xlink" x="0px" y="0px"
	 viewBox="0 0 500 500" style="enable-background:new 0 0 500 500;" xml:space="preserve">
<style type="text/css">
	.st0{fill:#0C2D44;}
	.st1{fill:#2C83AF;}
	.st2{fill:#FFFFFF;}
	.st3{fill:#00791D;}
	.st4{fill:#00D13C;}
	.st5{fill:#F2F2F2;}
	.st6{fill:#727272;}
	.st7{fill:#A3A3A3;}
	.st8{fill:#BCBCBC;}
	.st9{fill:none;}
	.st10{fill:#866A5E;}
	.st11{fill:#F7DDCB;}
	.st12{fill:#FFE6D4;}
	.st13{fill:#2D2D2D;}
	.st14{fill:#1C1B1A;}
	.st15{fill:#F5F5F5;}
	.st16{fill:#77181C;}
	.st17{fill:#EAEAEA;}
	.st18{fill:#262525;}
	.st19{fill:#11100F;}
	.st20{fill:#CCCDCE;}
	.st21{fill:#DFDFDF;}
	.st22{fill:#C2C2C2;}
	.st23{fill:#0085B0;}
	.st24{fill:#2A5936;}
	.st25{fill:#CD7054;}
	.st26{fill:#F1CC4B;}
	.st27{fill:#22272F;}
	.st28{fill:#1B2538;}
	.st29{fill:#253452;}
	.st30{fill:#F9F9F9;}
	.st31{fill:#2D3543;}
	.st32{fill:#2A3D60;}
	.st33{fill:#ACACAC;}
	.st34{fill:#6C92D5;}
	.st35{fill:#587955;}
	.st36{fill:#DAA449;}
	.st37{fill:#D4D4D4;}
	.st38{fill:#85B681;}
	.st39{fill:#A1DC9B;}
	.st40{fill:#90C58B;}
	.st41{fill:#81C378;}
	.st42{opacity:0.5;}
	.st43{fill:#A2CADE;}
	.st44{fill:#9BAEC9;}
	.st45{fill:#9D2B3B;}
	.st46{fill:#C1D4F2;}
	.st47{fill:#534D46;}
	.st48{fill:#191819;}
	.st49{fill:#222123;}
	.st50{fill:#F3FF00;}
	.st51{fill:none;stroke:#5A605A;stroke-width:4;stroke-miterlimit:10;}
	.st52{fill:#505050;}
	.st53{fill:#FFB412;}
	.st54{fill:#53C2C9;}
	.st55{fill:#008B9C;}
	.st56{fill:none;stroke:#00550B;stroke-width:4;stroke-miterlimit:10;}
</style>
<g>
	<g>
		<g>
			<circle class="st3" cx="268.5" cy="143.1" r="112"/>
			<circle class="st3" cx="157" cy="298.1" r="111.9"/>
			<circle class="st3" cx="342" cy="338.4" r="112"/>
		</g>
	</g>
	<g>
		<circle class="st4" cx="264.4" cy="267.1" r="161.6"/>
	</g>
	<g>
		<g>
			<g>
				<path class="st27" d="M372.4,258.4c0,4.3-3.5,7.8-7.8,7.8H207.5c-4.3,0-7.8-3.5-7.8-7.8v-91c0-4.2,3.5-7.7,7.8-7.7h157.1
					c4.3,0,7.8,3.5,7.8,7.7V258.4z"/>
				<path class="st28" d="M371.6,159.7h-77.7h-79.4c-4.3,0-7.8,3.5-7.8,7.7v91c0,4.3,3.5,7.8,7.8,7.8h79.4h77.7
					c4.3,0,7.8-3.5,7.8-7.8v-91C379.4,163.2,375.9,159.7,371.6,159.7z"/>
				<path class="st29" d="M364.6,159.7h-77.7h-79.4c-4.3,0-7.8,3.5-7.8,7.7v91c0,4.3,3.5,7.8,7.8,7.8h79.4h77.7
					c4.3,0,7.8-3.5,7.8-7.8v-91C372.4,163.2,368.9,159.7,364.6,159.7z"/>
				<path class="st30" d="M361.5,166.6h-74.6h-76.3c-2.6,0-4.7,2.1-4.7,4.7v83.3c0,2.6,2.1,4.7,4.7,4.7h76.3h74.6
					c2.6,0,4.7-2.1,4.7-4.7v-83.3C366.2,168.7,364.1,166.6,361.5,166.6z"/>
			</g>
			<g>
				<path class="st28" d="M291.3,266.2V282h85.9c7.7,0,14-6.3,14-14v-1.8H291.3z"/>
				<path class="st31" d="M185.3,266.2v1.8c0,7.7,6.3,14,14,14h87.6v-15.8H185.3z"/>
			</g>
			<path class="st32" d="M242.6,266.2H141v1.8c0,7.7,6.3,14,14,14h87.6h85.9c7.7,0,14-6.3,14-14v-1.8H242.6z"/>
		</g>
		<g>
			<g>
				<g>
					<rect x="208.1" y="196" class="st26" width="12.8" height="11.2"/>
					<rect x="225" y="196" class="st33" width="61.8" height="11.2"/>
				</g>
				<g>
					<rect x="208.1" y="210.4" class="st34" width="12.8" height="11.2"/>
					<rect x="225" y="210.4" class="st33" width="61.8" height="11.2"/>
				</g>
				<g>
					<rect x="208.1" y="224.7" class="st35" width="12.8" height="11.2"/>
					<rect x="225" y="224.7" class="st33" width="61.8" height="11.2"/>
				</g>
				<g>
					<rect x="208.1" y="239.1" class="st25" width="12.8" height="11.2"/>
					<rect x="225" y="239.1" class="st33" width="61.8" height="11.2"/>
				</g>
			</g>
			<g>
				<path class="st34" d="M208.5,187.9c-0.2-0.2-0.3-0.5-0.3-0.9v-11.2c0-0.4,0.1-0.7,0.3-0.9c0.2-0.2,0.5-0.3,0.9-0.3h4.7
					c2,0,3.4,0.4,4.3,1.2c0.9,0.8,1.4,2,1.4,3.6c0,1.6-0.5,2.8-1.4,3.6c-0.9,0.8-2.3,1.2-4.3,1.2H213v2.9c0,0.4-0.1,0.7-0.3,0.9
					c-0.2,0.2-0.5,0.3-0.9,0.3h-2.4C209,188.2,208.7,188.1,208.5,187.9z M213.7,180.8c0.4,0,0.8-0.1,1-0.3c0.2-0.2,0.4-0.6,0.4-1
					c0-0.5-0.1-0.8-0.4-1c-0.2-0.2-0.6-0.3-1-0.3h-1.3v2.7H213.7z"/>
				<path class="st34" d="M218.1,187.7c0-0.1,0-0.3,0.1-0.4l4.9-11.9c0.1-0.3,0.3-0.5,0.4-0.6c0.2-0.1,0.4-0.2,0.6-0.2h2.2
					c0.3,0,0.5,0.1,0.6,0.2c0.2,0.1,0.3,0.3,0.4,0.6l4.9,11.9c0.1,0.2,0.1,0.3,0.1,0.4c0,0.3-0.1,0.4-0.4,0.4h-3.7
					c-0.4,0-0.7-0.2-0.8-0.5l-0.5-1.5h-3.5l-0.5,1.5c-0.1,0.4-0.4,0.5-0.8,0.5h-3.7C218.2,188.2,218.1,188,218.1,187.7z M226,183
					l-0.8-2.5l-0.8,2.5H226z"/>
				<path class="st34" d="M233.7,187.9c-0.2-0.2-0.3-0.5-0.3-0.9v-11.2c0-0.4,0.1-0.7,0.3-0.8s0.5-0.3,0.9-0.3h1.9
					c0.3,0,0.5,0,0.6,0.1c0.2,0.1,0.3,0.2,0.4,0.4l3.6,5.3v-4.7c0-0.4,0.1-0.7,0.3-0.9c0.2-0.2,0.5-0.3,0.9-0.3h2.4
					c0.4,0,0.8,0.1,0.9,0.3c0.2,0.2,0.3,0.5,0.3,0.9V187c0,0.4-0.1,0.7-0.3,0.8c-0.2,0.2-0.5,0.3-0.9,0.3h-1.9c-0.3,0-0.5,0-0.6-0.1
					c-0.2-0.1-0.3-0.2-0.4-0.4l-3.6-5.3v4.8c0,0.4-0.1,0.7-0.3,0.8s-0.5,0.3-0.9,0.3h-2.4C234.1,188.2,233.8,188.1,233.7,187.9z"/>
				<path class="st34" d="M247.6,187.9c-0.2-0.2-0.3-0.5-0.3-0.9v-11.2c0-0.4,0.1-0.7,0.3-0.9c0.2-0.2,0.5-0.3,0.9-0.3h8.2
					c0.4,0,0.7,0.1,0.9,0.3c0.2,0.2,0.2,0.5,0.2,0.9v1.1c0,0.4-0.1,0.7-0.2,0.9c-0.2,0.2-0.4,0.3-0.9,0.3h-4.6v1.7h2.9
					c0.4,0,0.7,0.1,0.9,0.3s0.2,0.5,0.2,0.9v1.1c0,0.4-0.1,0.7-0.2,0.9s-0.4,0.3-0.9,0.3h-2.9v1.7h4.6c0.4,0,0.7,0.1,0.9,0.3
					c0.2,0.2,0.2,0.5,0.2,0.9v1.1c0,0.4-0.1,0.7-0.2,0.9s-0.4,0.3-0.9,0.3h-8.2C248.1,188.2,247.8,188.1,247.6,187.9z"/>
				<path class="st34" d="M259,187.9c-0.2-0.2-0.3-0.5-0.3-0.9v-11.2c0-0.4,0.1-0.7,0.3-0.9c0.2-0.2,0.5-0.3,0.9-0.3h2.4
					c0.4,0,0.8,0.1,0.9,0.3s0.3,0.5,0.3,0.9v9h4.6c0.4,0,0.7,0.1,0.9,0.3c0.2,0.2,0.2,0.5,0.2,0.9v1.1c0,0.4-0.1,0.7-0.2,0.9
					s-0.4,0.3-0.9,0.3h-8.2C259.5,188.2,259.2,188.1,259,187.9z"/>
				<path class="st34" d="M277.3,186.7c-1.3-1.2-2-2.9-2-5.3c0-2.3,0.6-4.1,1.9-5.3c1.3-1.2,3.1-1.8,5.5-1.8c1.1,0,2,0.1,2.9,0.3
					c0.8,0.2,1.6,0.5,2.1,0.9c0.2,0.1,0.2,0.3,0.2,0.4c0,0.1-0.1,0.3-0.2,0.5l-1,1.7c-0.1,0.2-0.2,0.3-0.4,0.3
					c-0.1,0-0.2-0.1-0.5-0.2c-0.4-0.2-0.8-0.3-1.2-0.4s-0.9-0.2-1.4-0.2c-1.1,0-1.9,0.3-2.5,1c-0.6,0.6-0.9,1.6-0.9,2.8
					c0,1.2,0.3,2.1,1,2.7c0.6,0.6,1.5,1,2.6,1c1,0,1.8-0.2,2.6-0.6c0.2-0.1,0.4-0.2,0.5-0.2c0.1,0,0.3,0.1,0.4,0.3l1,1.7
					c0.1,0.2,0.2,0.4,0.2,0.5c0,0.1-0.1,0.3-0.2,0.4c-0.6,0.4-1.3,0.7-2.1,0.9c-0.9,0.2-1.8,0.3-2.9,0.3
					C280.5,188.5,278.7,187.9,277.3,186.7z"/>
				<path class="st34" d="M289.8,186.6c-1.2-1.2-1.8-3-1.8-5.2c0-2.2,0.6-4,1.8-5.2c1.2-1.2,3-1.8,5.4-1.8s4.1,0.6,5.4,1.8
					c1.2,1.2,1.8,3,1.8,5.2c0,2.2-0.6,4-1.8,5.2c-1.2,1.2-3,1.8-5.4,1.8S291,187.8,289.8,186.6z M297,184.2c0.4-0.6,0.6-1.5,0.6-2.8
					c0-1.3-0.2-2.2-0.6-2.8s-1-0.9-1.9-0.9s-1.5,0.3-1.9,0.9s-0.6,1.5-0.6,2.8c0,1.2,0.2,2.2,0.6,2.8s1,0.9,1.9,0.9
					S296.6,184.8,297,184.2z"/>
				<path class="st34" d="M303.6,187.9c-0.2-0.2-0.3-0.5-0.3-0.9v-11.2c0-0.4,0.1-0.7,0.3-0.8s0.5-0.3,0.9-0.3h1.9
					c0.3,0,0.5,0,0.6,0.1c0.2,0.1,0.3,0.2,0.4,0.4l3.6,5.3v-4.7c0-0.4,0.1-0.7,0.3-0.9c0.2-0.2,0.5-0.3,0.9-0.3h2.4
					c0.4,0,0.8,0.1,0.9,0.3c0.2,0.2,0.3,0.5,0.3,0.9V187c0,0.4-0.1,0.7-0.3,0.8c-0.2,0.2-0.5,0.3-0.9,0.3h-1.9c-0.3,0-0.5,0-0.6-0.1
					c-0.2-0.1-0.3-0.2-0.4-0.4l-3.6-5.3v4.8c0,0.4-0.1,0.7-0.3,0.8s-0.5,0.3-0.9,0.3h-2.4C304.1,188.2,303.8,188.1,303.6,187.9z"/>
				<path class="st34" d="M320.7,187.9c-0.2-0.2-0.3-0.5-0.3-0.9v-9h-2.9c-0.4,0-0.7-0.1-0.9-0.3c-0.2-0.2-0.2-0.5-0.2-0.9v-1.1
					c0-0.4,0.1-0.7,0.2-0.9c0.2-0.2,0.4-0.3,0.9-0.3H328c0.4,0,0.7,0.1,0.9,0.3c0.2,0.2,0.2,0.5,0.2,0.9v1.1c0,0.4-0.1,0.7-0.2,0.9
					c-0.2,0.2-0.4,0.3-0.9,0.3h-2.9v9c0,0.4-0.1,0.7-0.3,0.9c-0.2,0.2-0.5,0.3-0.9,0.3h-2.4C321.1,188.2,320.8,188.1,320.7,187.9z"
					/>
				<path class="st34" d="M330,187.9c-0.2-0.2-0.3-0.5-0.3-0.9v-11.2c0-0.4,0.1-0.7,0.3-0.9c0.2-0.2,0.5-0.3,0.9-0.3h4.7
					c2,0,3.4,0.4,4.3,1.2c0.9,0.8,1.4,2,1.4,3.6c0,1-0.2,1.8-0.5,2.4c-0.3,0.7-0.8,1.2-1.5,1.5l1.8,3.9c0.1,0.1,0.1,0.2,0.1,0.4
					c0,0.1,0,0.3-0.1,0.4s-0.2,0.1-0.4,0.1h-3.4c-0.2,0-0.4,0-0.5-0.1s-0.2-0.2-0.3-0.3l-1.5-3.7h-0.7v3c0,0.4-0.1,0.7-0.3,0.9
					c-0.2,0.2-0.5,0.3-0.9,0.3h-2.4C330.4,188.2,330.1,188.1,330,187.9z M335.2,180.8c0.4,0,0.8-0.1,1-0.3c0.2-0.2,0.4-0.6,0.4-1
					c0-0.5-0.1-0.8-0.4-1c-0.2-0.2-0.6-0.3-1-0.3h-1.3v2.7H335.2z"/>
				<path class="st34" d="M343.7,186.6c-1.2-1.2-1.8-3-1.8-5.2c0-2.2,0.6-4,1.8-5.2c1.2-1.2,3-1.8,5.4-1.8s4.1,0.6,5.4,1.8
					c1.2,1.2,1.8,3,1.8,5.2c0,2.2-0.6,4-1.8,5.2c-1.2,1.2-3,1.8-5.4,1.8S345,187.8,343.7,186.6z M351,184.2c0.4-0.6,0.6-1.5,0.6-2.8
					c0-1.3-0.2-2.2-0.6-2.8s-1-0.9-1.9-0.9s-1.5,0.3-1.9,0.9s-0.6,1.5-0.6,2.8c0,1.2,0.2,2.2,0.6,2.8s1,0.9,1.9,0.9
					S350.6,184.8,351,184.2z"/>
				<path class="st34" d="M357.5,187.9c-0.2-0.2-0.3-0.5-0.3-0.9v-11.2c0-0.4,0.1-0.7,0.3-0.9c0.2-0.2,0.5-0.3,0.9-0.3h2.4
					c0.4,0,0.8,0.1,0.9,0.3s0.3,0.5,0.3,0.9v9h4.6c0.4,0,0.7,0.1,0.9,0.3c0.2,0.2,0.2,0.5,0.2,0.9v1.1c0,0.4-0.1,0.7-0.2,0.9
					s-0.4,0.3-0.9,0.3h-8.2C358,188.2,357.7,188.1,357.5,187.9z"/>
			</g>
			<g>
				<circle id="XMLID_107_" class="st5" cx="332.8" cy="227.2" r="29.8"/>
				<g id="XMLID_83_">
					<path id="XMLID_106_" class="st9" d="M341.1,226c0.4-0.9,0.6-1.7,0.6-1.9c0,0-0.1,0-0.1-0.1c-0.1-0.1,0.1-1.1,0-1.1
						c0,0,0,0,0,0c-0.1,0.3-0.3,0.6-0.5,0.8C341.1,224.5,341.1,225.2,341.1,226z"/>
					<path id="XMLID_105_" class="st10" d="M339.7,224.1c-0.4-0.3-0.4,4.1-2.3,5.9c-0.1,0.1-0.3,0.3-0.4,0.4
						c-0.1,0.1-0.3,0.2-0.4,0.3c0,0.1,0,0.1,0,0.2c1.7-0.5,2.9-2,3.6-3.3c0.3-0.6,0.6-1.1,0.8-1.7c0-0.8,0-1.5,0-2.3
						c-0.1,0.1-0.3,0.2-0.4,0.3C340.4,224.3,340.1,224.3,339.7,224.1z"/>
					<path id="XMLID_104_" class="st10" d="M325.5,236c0,0-0.2,0.1-0.3,0.3C325.3,236.2,325.4,236.1,325.5,236z"/>
					<path id="XMLID_103_" class="st10" d="M336.7,231.2c0,1,0.2,2.3,1,3.4c0.3-0.2,0.4-0.3,0.5-0.1c0.6,1,1.2,1.5,1.6,1.9
						c-0.2-0.3-0.4-0.4-0.4-0.4s0.4-0.2,1.2,0.5c0.2,0.1,0.5,0.3,0.8,0.6c-0.4-1.9-0.3-6.2-0.3-10.5c-0.2,0.4-0.4,0.8-0.6,1.2
						C339.4,229.6,338.1,230.8,336.7,231.2z"/>
					<path id="XMLID_102_" class="st10" d="M325.5,236c0.3-0.3,0.8-0.8,1.2-1.5c0.1-0.2,0.2-0.1,0.5,0.1c0.9-1.4,1.1-2.9,1.1-3.9
						c-0.3-0.2-0.6-0.5-0.8-0.7c-1.8-1.8-1.8-6.2-2.3-5.9c-0.3,0.2-0.6,0.1-0.9-0.1c-0.1,0-0.2-0.1-0.3-0.1c0,4.9,0.2,10.6-0.2,13
						c0.2-0.2,0.5-0.3,0.6-0.4C325.1,235.9,325.5,236,325.5,236z"/>
					<path id="XMLID_101_" class="st11" d="M336.3,231c0.1,0,0.3-0.1,0.4-0.1c0-0.1,0-0.1,0-0.2C336.5,230.8,336.4,230.9,336.3,231z
						"/>
					<path id="XMLID_100_" class="st11" d="M332.4,239.3C332.4,239.3,332.4,239.4,332.4,239.3c0.1,0.1,0.1,0,0.1,0
						c3.2-2.4,4.6-4.1,5.2-4.7c-0.8-1.2-1-2.5-1-3.4c-0.3,0.1-0.5,0.1-0.8,0.1c-0.1,0.3-0.4,1-1.6,0.9c-0.2,0-0.4,0-0.6-0.1
						c-0.2,0-0.4,0.1-0.5,0.1c-0.5,0.1-1.1,0-1.6,0c-0.4-0.1-0.9-0.2-1.3-0.4c-0.5-0.2-0.9-0.4-1.3-0.7c-0.2-0.1-0.4-0.3-0.6-0.4
						c0,1-0.1,2.5-1.1,3.9C327.9,235.2,329.2,236.9,332.4,239.3z"/>
					<path id="XMLID_99_" class="st11" d="M332.5,239.5C332.5,239.5,332.5,239.5,332.5,239.5L332.5,239.5
						C332.5,239.5,332.5,239.5,332.5,239.5z"/>
					<path id="XMLID_98_" class="st12" d="M330.2,231.9c0.4,0.2,0.9,0.3,1.3,0.4c0.5,0.1,1.1,0.1,1.6,0c0.2,0,0.4,0,0.5-0.1
						c-0.8-0.2-0.8-0.8-0.9-1c0-0.3,0.1-1.1,1.5-1.1c1.2,0,1.5,0.7,1.6,1c0.1,0,0.3,0,0.4-0.1c0.1-0.1,0.2-0.2,0.4-0.3
						c0.1-0.1,0.3-0.2,0.4-0.3c0.1-0.1,0.3-0.2,0.4-0.4c1.8-1.8,1.8-6.2,2.3-5.9c0.3,0.2,0.7,0.1,0.9-0.1c-0.2,0.1-0.4,0.1-0.6,0
						c-0.2-0.2,0-1.4,0.2-3.3c0,0-0.1,0-0.1,0c-0.3,0.2-0.8-2.8-2.5-4.1c-1.7-1.4-1.8-2.3-1.8-2.3c-1.7,0.2-3.3,0.8-6.1,3
						c-2.2,1.7-4.1,3.5-5,3.7c-0.1,0-0.1-0.1-0.2-0.2c0.2,1.9,0.4,3.1,0.2,3.2c-0.1,0.1-0.3,0.1-0.5,0c0.3,0.3,0.6,0.3,0.9,0.1
						c0.4-0.3,0.4,4.1,2.3,5.9c0.3,0.3,0.5,0.5,0.8,0.7c0.2,0.1,0.4,0.3,0.6,0.4C329.3,231.4,329.7,231.7,330.2,231.9z"/>
					<path id="XMLID_97_" class="st10" d="M324,217.4c0.1-1.6,1.6-7.6,8.5-7.6c6.9,0,8.4,5.9,8.5,7.6c0.1,1.1-0.1,1.7,0,2
						c0-0.4,0.1-0.8,0.1-1.4c0-3.1-1.3-6.3-3.3-6.9c-1-0.3-1.1-1.2-3.3-1.9c-3.5-1-7.4,0.4-9.4,3.8c-1.4,2.3-1.5,5.6-1.3,6.8
						C324.1,219.6,323.9,219,324,217.4z"/>
					<path id="XMLID_96_" class="st10" d="M324.9,220.9c0.9-0.2,2.8-2,5-3.7c2.8-2.2,4.4-2.8,6.1-3c0,0,0.1,0.9,1.8,2.3
						c1.7,1.4,2.1,4.4,2.5,4.1c0,0,0.1,0,0.1,0c0-0.2,0-0.4,0.1-0.6c0.2-2.3,0.1-3-0.1-3.8c-1.7-6.3-7.8-5.8-7.8-5.8
						s-5.9-0.6-7.8,5.7c-0.3,0.8-0.3,1.7-0.1,3.9c0,0.2,0,0.5,0.1,0.7C324.7,220.9,324.8,220.9,324.9,220.9z"/>
					<path id="XMLID_95_" class="st13" d="M324.8,224c0.2-0.2,0-1.4-0.2-3.2c0-0.2,0-0.4-0.1-0.7c-0.2-2.3-0.1-3.1,0.1-3.9
						c1.9-6.3,7.8-5.7,7.8-5.7s6.1-0.4,7.8,5.8c0.2,0.8,0.2,1.6,0.1,3.8c0,0.2,0,0.4-0.1,0.6c-0.2,1.9-0.4,3.2-0.2,3.3
						c0.2,0.1,0.4,0.1,0.6,0c0.1-0.1,0.3-0.1,0.4-0.3c0.2-0.2,0.4-0.5,0.5-0.8c-0.1,0-0.2,0.1-0.3-0.1c-0.1-0.2,0-0.9,0-1.1
						c0.1-0.2,0.1-0.2,0.4-0.2c0,0,0,0,0,0c0-0.8-0.1-1.5-0.5-1.7c-0.2-0.1-0.3-0.2-0.4-0.4c-0.1-0.4,0-1,0-2
						c-0.1-1.6-1.6-7.6-8.5-7.6c-6.9,0-8.4,5.9-8.5,7.6c-0.1,1.5,0.2,2.1-0.3,2.4c0,0,0,0-0.1,0c-0.6,0.2-0.5,1.8-0.3,2.8
						c0.1,0.5,0.4,1,0.8,1.2c0.1,0.1,0.2,0.1,0.3,0.1C324.5,224.1,324.7,224.1,324.8,224z"/>
					<path id="XMLID_94_" class="st14" d="M341.4,221.7c-0.1,0.2-0.1,0.9,0,1.1c0.1,0.2,0.2,0.1,0.3,0.1c0,0,0,0,0,0
						c0.1,0.1-0.1,1,0,1.1c0,0,0,0,0.1,0.1c0,0.2-0.2,0.9-0.6,1.9c-0.2,0.5-0.5,1.1-0.8,1.7c-0.7,1.3-1.9,2.8-3.6,3.3
						c-0.1,0-0.2,0.1-0.4,0.1c-0.1,0-0.3,0-0.4,0.1c0-0.3-0.3-1-1.6-1c-1.4,0-1.5,0.8-1.5,1.1c0,0.2,0.1,0.8,0.9,1
						c0.2,0,0.4,0.1,0.6,0.1c1.2,0,1.5-0.6,1.6-0.9c0.3,0,0.5-0.1,0.8-0.1c1.4-0.4,2.7-1.6,3.8-3.4c0.2-0.4,0.4-0.8,0.6-1.2
						c0.6-1.2,0.8-2.3,0.9-2.5c0,0,0,0,0,0c0.1-0.1,0.2-0.7,0.2-1.4c0.1-0.7-0.2-1.1-0.4-1.1c0,0,0,0,0,0
						C341.5,221.5,341.4,221.5,341.4,221.7z"/>
					<path id="XMLID_93_" class="st15" d="M331.2,244.6c-0.5-1.1-1.1-1.8-1.1-2.7c-0.4,0.5-0.6,0.9-0.6,1.4c0.1,1.5-4.2-3.6-4.6-6
						c-0.1,0.5-0.1,1.4,1.3,3.3c0.9,1.3,3,5,4.6,8.3c0.3-2,0.6-3.5,0.7-4.1C331.4,244.7,331.3,244.7,331.2,244.6z"/>
					<path id="XMLID_92_" class="st15" d="M335.4,243.3c0-0.4-0.2-0.9-0.6-1.4c-0.1,0.9-0.6,1.6-1.1,2.7c0,0.1-0.1,0.1-0.2,0.2
						c0.1,0.6,0.4,2.2,0.7,4.3c1.5-3.4,3.7-7.2,4.6-8.5c1.4-2,1.3-3,1.3-3.4C339.7,239.6,335.2,244.7,335.4,243.3z"/>
					<path id="XMLID_91_" class="st15" d="M325.6,242C325.6,242,325.6,242,325.6,242L325.6,242C325.6,242,325.6,242,325.6,242z"/>
					<path id="XMLID_90_" class="st16" d="M333.7,244.6c0.5-1.1,1.1-1.8,1.1-2.7c-0.8-1-2.2-2-2.3-2.4h0c-0.1,0.4-1.5,1.4-2.3,2.4
						c0.1,0.9,0.6,1.6,1.1,2.7c0,0.1,0.1,0.1,0.2,0.2c-0.1,0.6-0.4,2.1-0.7,4.1c0.9,2,1.6,3.8,1.8,4.9c0.1-1.1,0.8-2.8,1.6-4.7
						c-0.3-2.1-0.6-3.7-0.7-4.3C333.6,244.7,333.6,244.7,333.7,244.6z"/>
					<path id="XMLID_89_" class="st17" d="M338.2,234.5c-0.1-0.2-0.2-0.1-0.5,0.1c-0.6,0.6-2,2.3-5.2,4.7c0,0,0,0.1-0.1,0.1
						c0,0,0-0.1-0.1-0.1c-3.2-2.4-4.5-4.1-5.2-4.7c-0.3-0.2-0.4-0.3-0.5-0.1c-0.4,0.7-0.8,1.2-1.2,1.5c0,0,0,0,0,0s0,0,0,0
						c-0.1,0.1-0.2,0.2-0.3,0.3c-0.1,0.2-0.2,0.4-0.2,0.7c0,0.1,0,0.1-0.1,0.3c0.4,2.4,4.8,7.5,4.6,6c0-0.4,0.2-0.9,0.6-1.4
						c0.8-1,2.2-2,2.3-2.4c0,0,0,0,0,0c0,0,0,0,0,0c0.1,0.4,1.5,1.4,2.3,2.4c0.4,0.5,0.6,0.9,0.6,1.4c-0.1,1.5,4.3-3.7,4.7-6.1
						c0-0.1,0-0.1,0-0.2c0-0.3-0.1-0.5-0.2-0.6C339.4,236,338.8,235.5,338.2,234.5z"/>
					<path id="XMLID_88_" class="st14" d="M350,240.7c-0.3-0.4-6.2-2.4-8.1-3.1c0.2,0.2,0.4,0.5,0.5,0.7c0.8,1.5,0.9,2.4,1.5,2.9
						c0.6,0.4-4.7,0.8-4.7,0.8l3.3,2.5c0,0-3.7,4.2-6.2,6.1c-0.8,0.6-3.2,2.8-3.8,3.8c0.1,0.7,0.4,1.6,0.4,2c0,0.2,0,0.3,0.1,0.5
						c4.6-0.1,8.9-1.1,12.7-3c0.1-2.3-0.3-11.3,4-13.2c0.1,0,0.2,0.1,0.3,0.3c0,0,0,0,0,0C350.1,240.9,350.1,240.8,350,240.7z"/>
					<path id="XMLID_87_" class="st18" d="M332.6,254.4L332.6,254.4c-0.7-0.6-3.2-3.2-4-3.8c-2.5-1.8-6.2-6.1-6.2-6.1l3.3-2.5
						c0,0,0,0,0,0c-0.3,0-5.2-0.4-4.6-0.8c0.6-0.4,0.6-1.4,1.5-2.9c0.2-0.3,0.4-0.6,0.6-0.8c-2,0.7-7.7,2.7-8,3.1
						c4.6,0.2,4.2,10.5,4.2,13.1c4,2,8.6,3.2,13.4,3.2c0.1,0,0.2,0,0.4,0c0-0.2,0-0.3-0.1-0.5C332.9,256,332.7,255.1,332.6,254.4z"
						/>
					<path id="XMLID_86_" class="st19" d="M322.5,238.4c-0.8,1.5-0.9,2.4-1.5,2.9c-0.6,0.4,4.3,0.8,4.6,0.8c0,0,0,0,0,0l0,0
						l-3.3,2.5c0,0,3.7,4.2,6.2,6.1c0.8,0.6,3.3,3.2,4,3.8l0,0c0.6-1,3-3.2,3.8-3.8c2.5-1.8,6.2-6.1,6.2-6.1l-3.3-2.5
						c0,0,5.3-0.3,4.7-0.8c-0.6-0.4-0.6-1.4-1.5-2.9c-0.2-0.3-0.3-0.5-0.5-0.7c-0.2-0.2-0.4-0.4-0.6-0.6c-0.3-0.3-0.6-0.5-0.8-0.6
						c-0.7-0.6-1.2-0.5-1.2-0.5s0.2,0.1,0.4,0.4c0.1,0.1,0.2,0.3,0.2,0.6c0,0,0,0.1,0,0.2c0.1,0.4,0.2,1.4-1.3,3.4
						c-0.9,1.3-3.1,5.2-4.6,8.5c-0.8,1.9-1.5,3.6-1.6,4.7c-0.1-1.1-0.9-3-1.8-4.9c-1.6-3.3-3.7-7-4.6-8.3c-1.3-1.9-1.3-2.9-1.3-3.3
						c0-0.1,0-0.2,0.1-0.3c0.1-0.3,0.1-0.5,0.2-0.7c0.1-0.2,0.3-0.3,0.3-0.3c0,0,0,0,0,0s0,0,0,0c0,0-0.5-0.1-1.1,0.5
						c-0.1,0.1-0.3,0.3-0.6,0.4c-0.2,0.2-0.5,0.4-0.7,0.7C322.8,237.8,322.6,238.1,322.5,238.4z"/>
					<path id="XMLID_85_" class="st19" d="M315.1,240.6c-0.3,0-1.1,4-2,8.9c1.9,1.7,4,3.1,6.3,4.2
						C319.2,251.2,319.7,240.9,315.1,240.6z"/>
					<path id="XMLID_84_" class="st19" d="M349.8,240.7c-4.3,1.9-3.9,10.9-4,13.2c2.3-1.1,4.5-2.6,6.4-4.3c-0.7-4.1-1.5-7.7-2.1-8.7
						C350,240.8,349.9,240.7,349.8,240.7z"/>
				</g>
			</g>
		</g>
	</g>
	<g>
		<path class="st2" d="M165.5,313.6c-0.2-0.2-0.3-0.6-0.3-1.1v-14.2c0-0.5,0.1-0.8,0.3-1.1c0.2-0.2,0.6-0.3,1.2-0.3h3
			c0.6,0,1,0.1,1.2,0.3c0.2,0.2,0.3,0.6,0.3,1.1v14.2c0,0.5-0.1,0.8-0.3,1.1c-0.2,0.2-0.6,0.3-1.2,0.3h-3
			C166.1,313.9,165.7,313.8,165.5,313.6z"/>
		<path class="st2" d="M173.2,313.6c-0.2-0.2-0.3-0.6-0.3-1.1v-14.2c0-0.5,0.1-0.8,0.3-1.1c0.2-0.2,0.6-0.3,1.2-0.3h2.4
			c0.3,0,0.6,0,0.8,0.1c0.2,0.1,0.4,0.3,0.6,0.5l4.5,6.7v-6c0-0.5,0.1-0.8,0.3-1.1c0.2-0.2,0.6-0.3,1.2-0.3h3c0.6,0,1,0.1,1.2,0.3
			c0.2,0.2,0.3,0.6,0.3,1.1v14.2c0,0.5-0.1,0.8-0.3,1.1c-0.2,0.2-0.6,0.3-1.2,0.3h-2.4c-0.4,0-0.6,0-0.8-0.1
			c-0.2-0.1-0.4-0.3-0.6-0.5l-4.5-6.7v6c0,0.5-0.1,0.8-0.3,1.1c-0.2,0.2-0.6,0.3-1.2,0.3h-3C173.8,313.9,173.4,313.8,173.2,313.6z"
			/>
		<path class="st2" d="M190.8,313.6c-0.2-0.2-0.3-0.6-0.3-1.1v-14.2c0-0.5,0.1-0.8,0.3-1.1c0.2-0.2,0.6-0.3,1.2-0.3h10.4
			c0.5,0,0.9,0.1,1.1,0.3s0.3,0.6,0.3,1.1v1.4c0,0.5-0.1,0.9-0.3,1.1c-0.2,0.2-0.6,0.3-1.1,0.3h-5.9v2.1h3.6c0.5,0,0.9,0.1,1.1,0.3
			s0.3,0.6,0.3,1.1v1.4c0,0.5-0.1,0.9-0.3,1.1c-0.2,0.2-0.6,0.3-1.1,0.3h-3.6v5c0,0.5-0.1,0.8-0.3,1.1c-0.2,0.2-0.6,0.3-1.2,0.3h-3
			C191.4,313.9,191,313.8,190.8,313.6z"/>
		<path class="st2" d="M205.2,312c-1.5-1.5-2.3-3.7-2.3-6.6c0-2.8,0.8-5,2.3-6.6c1.5-1.5,3.8-2.3,6.8-2.3s5.2,0.8,6.8,2.3
			c1.5,1.5,2.3,3.7,2.3,6.6c0,2.8-0.8,5-2.3,6.6c-1.5,1.5-3.8,2.3-6.8,2.3S206.7,313.5,205.2,312z M214.3,308.9
			c0.5-0.8,0.7-1.9,0.7-3.5c0-1.6-0.2-2.8-0.7-3.5c-0.5-0.8-1.3-1.1-2.3-1.1c-1.1,0-1.9,0.4-2.3,1.1c-0.5,0.8-0.7,1.9-0.7,3.5
			c0,1.6,0.2,2.7,0.7,3.5c0.5,0.8,1.3,1.2,2.3,1.2C213,310.1,213.8,309.7,214.3,308.9z"/>
		<path class="st2" d="M222.6,313.6c-0.2-0.2-0.3-0.6-0.3-1.1v-14.2c0-0.5,0.1-0.8,0.3-1.1c0.2-0.2,0.6-0.3,1.2-0.3h6
			c2.5,0,4.3,0.5,5.5,1.5s1.7,2.5,1.7,4.5c0,1.2-0.2,2.2-0.6,3c-0.4,0.8-1,1.5-1.9,1.9l2.3,5c0.1,0.1,0.1,0.3,0.1,0.4
			c0,0.2-0.1,0.3-0.2,0.5c-0.1,0.1-0.3,0.2-0.5,0.2h-4.2c-0.3,0-0.5,0-0.6-0.1c-0.2-0.1-0.3-0.2-0.3-0.4l-1.9-4.7h-0.8v3.7
			c0,0.5-0.1,0.8-0.3,1.1c-0.2,0.2-0.6,0.3-1.2,0.3h-3C223.2,313.9,222.8,313.8,222.6,313.6z M229.2,304.6c0.5,0,1-0.1,1.3-0.4
			s0.5-0.7,0.5-1.3c0-0.6-0.2-1-0.5-1.3s-0.7-0.4-1.3-0.4h-1.7v3.4H229.2z"/>
		<path class="st2" d="M238.5,313.6c-0.2-0.2-0.3-0.6-0.3-1.1v-14.2c0-0.5,0.1-0.8,0.3-1.1c0.2-0.2,0.6-0.3,1.2-0.3h2.9
			c0.4,0,0.7,0,0.9,0.1c0.2,0.1,0.4,0.3,0.5,0.5l2.9,7.3l2.9-7.3c0.1-0.3,0.3-0.4,0.5-0.5s0.5-0.1,0.9-0.1h2.9c0.6,0,1,0.1,1.2,0.3
			c0.2,0.2,0.3,0.6,0.3,1.1v14.2c0,0.5-0.1,0.8-0.3,1.1c-0.2,0.2-0.6,0.3-1.2,0.3h-2.4c-0.5,0-0.9-0.1-1.2-0.3
			c-0.2-0.2-0.3-0.6-0.3-1.1v-6.8l-1.5,3.4c-0.2,0.5-0.4,0.8-0.6,1c-0.2,0.2-0.6,0.3-1.2,0.3s-0.9-0.1-1.2-0.3
			c-0.2-0.2-0.4-0.6-0.6-1l-1.5-3.4v6.8c0,0.5-0.1,0.8-0.3,1.1c-0.2,0.2-0.6,0.3-1.2,0.3h-2.4C239.1,313.9,238.7,313.8,238.5,313.6z
			"/>
		<path class="st2" d="M256.2,313.4c0-0.1,0-0.3,0.1-0.5l6.2-15c0.2-0.4,0.3-0.6,0.5-0.7c0.2-0.1,0.5-0.2,0.8-0.2h2.7
			c0.4,0,0.6,0.1,0.8,0.2c0.2,0.1,0.4,0.4,0.5,0.7l6.2,15c0.1,0.2,0.1,0.4,0.1,0.5c0,0.4-0.2,0.5-0.5,0.5H269c-0.5,0-0.8-0.2-1-0.7
			l-0.6-1.9H263l-0.6,1.9c-0.1,0.4-0.5,0.7-1,0.7h-4.7C256.4,313.9,256.2,313.8,256.2,313.4z M266.2,307.5l-1-3.1l-1,3.1H266.2z"/>
		<path class="st2" d="M276.1,312.1c-1.7-1.5-2.5-3.7-2.5-6.6c0-2.9,0.8-5.2,2.4-6.7c1.6-1.5,3.9-2.2,7-2.2c1.4,0,2.6,0.1,3.6,0.4
			c1.1,0.3,2,0.6,2.7,1.1c0.2,0.2,0.3,0.3,0.3,0.5c0,0.2-0.1,0.4-0.2,0.6l-1.3,2.2c-0.1,0.2-0.3,0.3-0.5,0.3c-0.1,0-0.3-0.1-0.6-0.2
			c-0.5-0.2-1-0.4-1.5-0.6c-0.5-0.1-1.1-0.2-1.8-0.2c-1.4,0-2.4,0.4-3.2,1.2s-1.1,2-1.1,3.5c0,1.5,0.4,2.7,1.2,3.5
			c0.8,0.8,1.9,1.2,3.3,1.2c1.2,0,2.3-0.3,3.3-0.8c0.3-0.1,0.5-0.2,0.6-0.2c0.2,0,0.3,0.1,0.5,0.4l1.3,2.1c0.2,0.3,0.2,0.5,0.2,0.6
			c0,0.2-0.1,0.4-0.3,0.5c-0.7,0.5-1.6,0.9-2.7,1.1c-1.1,0.3-2.3,0.4-3.7,0.4C280.2,314.3,277.8,313.6,276.1,312.1z"/>
		<path class="st2" d="M291.5,313.6c-0.2-0.2-0.3-0.6-0.3-1.1v-14.2c0-0.5,0.1-0.8,0.3-1.1c0.2-0.2,0.6-0.3,1.2-0.3h3
			c0.6,0,1,0.1,1.2,0.3c0.2,0.2,0.3,0.6,0.3,1.1v14.2c0,0.5-0.1,0.8-0.3,1.1c-0.2,0.2-0.6,0.3-1.2,0.3h-3
			C292.1,313.9,291.7,313.8,291.5,313.6z"/>
		<path class="st2" d="M300.7,312c-1.5-1.5-2.3-3.7-2.3-6.6c0-2.8,0.8-5,2.3-6.6c1.5-1.5,3.8-2.3,6.8-2.3s5.2,0.8,6.8,2.3
			c1.5,1.5,2.3,3.7,2.3,6.6c0,2.8-0.8,5-2.3,6.6c-1.5,1.5-3.8,2.3-6.8,2.3S302.2,313.5,300.7,312z M309.8,308.9
			c0.5-0.8,0.7-1.9,0.7-3.5c0-1.6-0.2-2.8-0.7-3.5c-0.5-0.8-1.3-1.1-2.3-1.1c-1.1,0-1.9,0.4-2.3,1.1c-0.5,0.8-0.7,1.9-0.7,3.5
			c0,1.6,0.2,2.7,0.7,3.5c0.5,0.8,1.3,1.2,2.3,1.2C308.5,310.1,309.3,309.7,309.8,308.9z M304.8,294.8c0-0.1,0-0.3,0.1-0.4l1-2.9
			c0.1-0.4,0.3-0.6,0.5-0.8c0.2-0.1,0.5-0.2,1-0.2h3.6c0.4,0,0.6,0.1,0.8,0.2s0.3,0.3,0.3,0.5c0,0.2-0.1,0.4-0.2,0.6l-1.6,2.7
			c-0.2,0.4-0.5,0.7-0.7,0.8c-0.2,0.1-0.6,0.2-1.2,0.2h-2.7C305.1,295.5,304.8,295.3,304.8,294.8z"/>
		<path class="st2" d="M318.1,313.6c-0.2-0.2-0.3-0.6-0.3-1.1v-14.2c0-0.5,0.1-0.8,0.3-1.1c0.2-0.2,0.6-0.3,1.2-0.3h2.4
			c0.4,0,0.6,0,0.8,0.1s0.4,0.3,0.6,0.5l4.5,6.7v-6c0-0.5,0.1-0.8,0.3-1.1c0.2-0.2,0.6-0.3,1.2-0.3h3c0.6,0,1,0.1,1.2,0.3
			c0.2,0.2,0.3,0.6,0.3,1.1v14.2c0,0.5-0.1,0.8-0.3,1.1c-0.2,0.2-0.6,0.3-1.2,0.3h-2.4c-0.3,0-0.6,0-0.8-0.1s-0.4-0.3-0.6-0.5
			l-4.5-6.7v6c0,0.5-0.1,0.8-0.3,1.1c-0.2,0.2-0.6,0.3-1.2,0.3h-3C318.7,313.9,318.3,313.8,318.1,313.6z"/>
		<path class="st2" d="M343.1,313.6c-0.2-0.2-0.3-0.6-0.3-1.1v-14.2c0-0.5,0.1-0.8,0.3-1.1c0.2-0.2,0.6-0.3,1.2-0.3h5.8
			c5.9,0,8.8,2.8,8.8,8.5c0,2.8-0.8,4.9-2.3,6.3c-1.5,1.4-3.7,2.2-6.6,2.2h-5.8C343.7,313.9,343.3,313.8,343.1,313.6z M350.3,309.7
			c0.9,0,1.6-0.3,2-0.9c0.4-0.6,0.6-1.7,0.6-3.3s-0.2-2.7-0.6-3.3s-1.1-0.9-2-0.9h-1.5v8.5H350.3z"/>
		<path class="st2" d="M360.4,313.6c-0.2-0.2-0.3-0.6-0.3-1.1v-14.2c0-0.5,0.1-0.8,0.3-1.1c0.2-0.2,0.6-0.3,1.2-0.3H372
			c0.5,0,0.9,0.1,1.1,0.3s0.3,0.6,0.3,1.1v1.4c0,0.5-0.1,0.9-0.3,1.1c-0.2,0.2-0.6,0.3-1.1,0.3h-5.9v2.2h3.6c0.5,0,0.9,0.1,1.1,0.3
			s0.3,0.6,0.3,1.1v1.3c0,0.5-0.1,0.9-0.3,1.1c-0.2,0.2-0.6,0.3-1.1,0.3h-3.6v2.2h5.8c0.5,0,0.9,0.1,1.1,0.3
			c0.2,0.2,0.3,0.6,0.3,1.1v1.4c0,0.5-0.1,0.9-0.3,1.1c-0.2,0.2-0.6,0.3-1.1,0.3h-10.3C361,313.9,360.7,313.8,360.4,313.6z"/>
		<path class="st2" d="M197.8,343.6c-0.2-0.2-0.3-0.6-0.3-1.1v-14.2c0-0.5,0.1-0.8,0.3-1.1c0.2-0.2,0.6-0.3,1.2-0.3h10.3
			c0.5,0,0.9,0.1,1.1,0.3c0.2,0.2,0.3,0.6,0.3,1.1v1.4c0,0.5-0.1,0.9-0.3,1.1c-0.2,0.2-0.6,0.3-1.1,0.3h-5.8v2.2h3.6
			c0.5,0,0.9,0.1,1.1,0.3c0.2,0.2,0.3,0.6,0.3,1.1v1.3c0,0.5-0.1,0.9-0.3,1.1c-0.2,0.2-0.6,0.3-1.1,0.3h-3.6v2.2h5.8
			c0.5,0,0.9,0.1,1.1,0.3s0.3,0.6,0.3,1.1v1.4c0,0.5-0.1,0.9-0.3,1.1c-0.2,0.2-0.6,0.3-1.1,0.3H199
			C198.4,343.9,198,343.8,197.8,343.6z"/>
		<path class="st2" d="M215,343.8c-1.3-0.3-2.3-0.8-3.2-1.3c-0.3-0.2-0.5-0.5-0.5-0.7c0-0.2,0.1-0.3,0.2-0.5l1.4-2.3
			c0.2-0.2,0.3-0.3,0.5-0.3c0.1,0,0.3,0.1,0.5,0.2c0.6,0.4,1.3,0.7,2.1,0.9c0.8,0.2,1.5,0.3,2.3,0.3c0.6,0,1.1-0.1,1.3-0.3
			s0.4-0.4,0.4-0.8c0-0.4-0.2-0.7-0.5-0.9c-0.4-0.2-1-0.5-1.9-0.9c-1.7-0.6-3-1.4-4-2.2c-1-0.8-1.5-1.9-1.5-3.3c0-1.7,0.6-3,1.8-3.9
			c1.2-0.9,2.8-1.3,4.9-1.3c1.4,0,2.7,0.1,3.7,0.4c1,0.3,1.9,0.6,2.6,1.2c0.3,0.2,0.5,0.5,0.5,0.7c0,0.2-0.1,0.3-0.2,0.5l-1.5,2.3
			c-0.1,0.2-0.3,0.4-0.4,0.4c-0.1,0-0.3-0.1-0.5-0.2c-0.4-0.3-0.9-0.5-1.4-0.7s-1.1-0.3-1.8-0.3c-0.6,0-1,0.1-1.3,0.3
			c-0.3,0.2-0.5,0.4-0.5,0.8c0,0.3,0.1,0.6,0.3,0.8c0.2,0.2,0.5,0.4,0.8,0.5c0.3,0.1,0.9,0.4,1.7,0.7c1.3,0.5,2.2,1,3,1.4
			c0.7,0.5,1.3,1,1.6,1.6c0.4,0.6,0.5,1.5,0.5,2.4c0,1.5-0.6,2.7-1.7,3.6c-1.1,0.9-2.8,1.4-5,1.4C217.7,344.3,216.3,344.1,215,343.8
			z"/>
		<path class="st2" d="M230.9,343.6c-0.2-0.2-0.3-0.6-0.3-1.1v-11.3h-3.6c-0.5,0-0.9-0.1-1.1-0.3c-0.2-0.2-0.3-0.6-0.3-1.1v-1.4
			c0-0.5,0.1-0.9,0.3-1.1s0.6-0.3,1.1-0.3h13.2c0.5,0,0.9,0.1,1.1,0.3s0.3,0.6,0.3,1.1v1.4c0,0.5-0.1,0.9-0.3,1.1
			c-0.2,0.2-0.6,0.3-1.1,0.3h-3.6v11.3c0,0.5-0.1,0.8-0.3,1.1c-0.2,0.2-0.6,0.3-1.2,0.3h-3C231.5,343.9,231.1,343.8,230.9,343.6z"/>
		<path class="st2" d="M238.6,343.4c0-0.1,0-0.3,0.1-0.5l6.2-15c0.1-0.4,0.3-0.6,0.5-0.7c0.2-0.1,0.5-0.2,0.8-0.2h2.7
			c0.3,0,0.6,0.1,0.8,0.2c0.2,0.1,0.4,0.4,0.5,0.7l6.2,15c0.1,0.2,0.1,0.4,0.1,0.5c0,0.4-0.2,0.5-0.5,0.5h-4.7c-0.5,0-0.8-0.2-1-0.7
			l-0.6-1.9h-4.4l-0.6,1.9c-0.1,0.4-0.5,0.7-1,0.7h-4.7C238.8,343.9,238.6,343.8,238.6,343.4z M248.6,337.5l-1-3.1l-1,3.1H248.6z"/>
		<path class="st2" d="M258.3,343.6c-0.2-0.2-0.3-0.6-0.3-1.1v-14.2c0-0.5,0.1-0.8,0.3-1.1c0.2-0.2,0.6-0.3,1.2-0.3h5.8
			c5.9,0,8.8,2.8,8.8,8.5c0,2.8-0.8,4.9-2.3,6.3c-1.5,1.4-3.7,2.2-6.6,2.2h-5.8C258.9,343.9,258.5,343.8,258.3,343.6z M265.4,339.7
			c0.9,0,1.6-0.3,2-0.9c0.4-0.6,0.6-1.7,0.6-3.3s-0.2-2.7-0.6-3.3s-1.1-0.9-2-0.9h-1.5v8.5H265.4z"/>
		<path class="st2" d="M277.1,342c-1.5-1.5-2.3-3.7-2.3-6.6c0-2.8,0.8-5,2.3-6.6c1.5-1.5,3.8-2.3,6.8-2.3s5.2,0.8,6.8,2.3
			c1.5,1.5,2.3,3.7,2.3,6.6c0,2.8-0.8,5-2.3,6.6c-1.5,1.5-3.8,2.3-6.8,2.3S278.6,343.5,277.1,342z M286.2,338.9
			c0.5-0.8,0.7-1.9,0.7-3.5c0-1.6-0.2-2.8-0.7-3.5c-0.5-0.8-1.3-1.1-2.4-1.1c-1.1,0-1.9,0.4-2.3,1.1c-0.5,0.8-0.7,1.9-0.7,3.5
			c0,1.6,0.2,2.7,0.7,3.5c0.5,0.8,1.3,1.2,2.3,1.2C284.9,340.1,285.7,339.7,286.2,338.9z"/>
		<path class="st2" d="M296.2,343.8c-1.3-0.3-2.3-0.8-3.2-1.3c-0.3-0.2-0.5-0.5-0.5-0.7c0-0.2,0.1-0.3,0.2-0.5l1.4-2.3
			c0.2-0.2,0.3-0.3,0.5-0.3c0.1,0,0.3,0.1,0.5,0.2c0.6,0.4,1.3,0.7,2.1,0.9c0.8,0.2,1.5,0.3,2.3,0.3c0.6,0,1.1-0.1,1.3-0.3
			s0.4-0.4,0.4-0.8c0-0.4-0.2-0.7-0.5-0.9c-0.4-0.2-1-0.5-1.9-0.9c-1.7-0.6-3-1.4-4-2.2c-1-0.8-1.5-1.9-1.5-3.3c0-1.7,0.6-3,1.8-3.9
			c1.2-0.9,2.8-1.3,4.9-1.3c1.4,0,2.7,0.1,3.7,0.4c1,0.3,1.9,0.6,2.6,1.2c0.3,0.2,0.5,0.5,0.5,0.7c0,0.2-0.1,0.3-0.2,0.5l-1.5,2.3
			c-0.1,0.2-0.3,0.4-0.4,0.4c-0.1,0-0.3-0.1-0.5-0.2c-0.4-0.3-0.9-0.5-1.4-0.7s-1.1-0.3-1.8-0.3c-0.6,0-1,0.1-1.3,0.3
			c-0.3,0.2-0.5,0.4-0.5,0.8c0,0.3,0.1,0.6,0.3,0.8c0.2,0.2,0.5,0.4,0.8,0.5c0.3,0.1,0.9,0.4,1.7,0.7c1.3,0.5,2.2,1,3,1.4
			c0.7,0.5,1.3,1,1.6,1.6c0.4,0.6,0.5,1.5,0.5,2.4c0,1.5-0.6,2.7-1.7,3.6c-1.1,0.9-2.8,1.4-5,1.4
			C298.9,344.3,297.5,344.1,296.2,343.8z"/>
		<path class="st2" d="M321.7,343.6c-0.2-0.2-0.3-0.6-0.3-1.1V338l-5.8-10c-0.1-0.2-0.2-0.4-0.2-0.5c0-0.4,0.2-0.6,0.6-0.6h4.7
			c0.3,0,0.4,0.1,0.6,0.2c0.1,0.1,0.3,0.3,0.4,0.5l2.7,4.9l2.7-4.9c0.1-0.2,0.3-0.4,0.4-0.5c0.1-0.1,0.3-0.2,0.6-0.2h4.7
			c0.4,0,0.6,0.2,0.6,0.6c0,0.2,0,0.3-0.1,0.5l-5.8,10v4.5c0,0.5-0.1,0.8-0.3,1.1c-0.2,0.2-0.6,0.3-1.2,0.3h-3
			C322.3,343.9,321.9,343.8,321.7,343.6z"/>
		<path class="st2" d="M185.2,373.7c-0.2-0.1-0.4-0.4-0.5-0.7l-6-15c-0.1-0.2-0.1-0.4-0.1-0.6c0-0.3,0.2-0.5,0.5-0.5h4.7
			c0.5,0,0.8,0.2,1,0.7l2.5,8.2l2.5-8.2c0.1-0.5,0.5-0.7,1-0.7h4.7c0.4,0,0.5,0.2,0.5,0.5c0,0.2,0,0.3-0.1,0.6l-5.9,15
			c-0.1,0.3-0.3,0.6-0.5,0.7c-0.2,0.1-0.5,0.2-0.8,0.2H186C185.6,373.9,185.3,373.9,185.2,373.7z"/>
		<path class="st2" d="M197.7,373.6c-0.2-0.2-0.3-0.6-0.3-1.1v-14.2c0-0.5,0.1-0.8,0.3-1.1c0.2-0.2,0.6-0.3,1.2-0.3h10.4
			c0.5,0,0.9,0.1,1.1,0.3s0.3,0.6,0.3,1.1v1.4c0,0.5-0.1,0.9-0.3,1.1c-0.2,0.2-0.6,0.3-1.1,0.3h-5.9v2.2h3.6c0.5,0,0.9,0.1,1.1,0.3
			s0.3,0.6,0.3,1.1v1.3c0,0.5-0.1,0.9-0.3,1.1c-0.2,0.2-0.6,0.3-1.1,0.3h-3.6v2.2h5.8c0.5,0,0.9,0.1,1.1,0.3
			c0.2,0.2,0.3,0.6,0.3,1.1v1.4c0,0.5-0.1,0.9-0.3,1.1c-0.2,0.2-0.6,0.3-1.1,0.3h-10.3C198.3,373.9,197.9,373.8,197.7,373.6z"/>
		<path class="st2" d="M212.1,373.6c-0.2-0.2-0.3-0.6-0.3-1.1v-14.2c0-0.5,0.1-0.8,0.3-1.1c0.2-0.2,0.6-0.3,1.2-0.3h2.4
			c0.3,0,0.6,0,0.8,0.1c0.2,0.1,0.4,0.3,0.6,0.5l4.5,6.7v-6c0-0.5,0.1-0.8,0.3-1.1c0.2-0.2,0.6-0.3,1.2-0.3h3c0.6,0,1,0.1,1.2,0.3
			c0.2,0.2,0.3,0.6,0.3,1.1v14.2c0,0.5-0.1,0.8-0.3,1.1c-0.2,0.2-0.6,0.3-1.2,0.3h-2.4c-0.4,0-0.6,0-0.8-0.1
			c-0.2-0.1-0.4-0.3-0.6-0.5l-4.5-6.7v6c0,0.5-0.1,0.8-0.3,1.1c-0.2,0.2-0.6,0.3-1.2,0.3h-3C212.7,373.9,212.3,373.8,212.1,373.6z"
			/>
		<path class="st2" d="M231.3,372.1c-1.7-1.5-2.5-3.7-2.5-6.6c0-2.9,0.8-5.2,2.4-6.7c1.6-1.5,3.9-2.2,7-2.2c1.4,0,2.6,0.1,3.7,0.4
			c1.1,0.3,2,0.6,2.7,1.1c0.2,0.2,0.3,0.3,0.3,0.5c0,0.2-0.1,0.4-0.2,0.6l-1.3,2.2c-0.1,0.2-0.3,0.3-0.5,0.3c-0.1,0-0.3-0.1-0.6-0.2
			c-0.5-0.2-1-0.4-1.5-0.6s-1.1-0.2-1.8-0.2c-1.4,0-2.4,0.4-3.2,1.2c-0.7,0.8-1.1,2-1.1,3.5c0,1.5,0.4,2.7,1.2,3.5s1.9,1.2,3.3,1.2
			c1.2,0,2.3-0.3,3.3-0.8c0.3-0.1,0.5-0.2,0.6-0.2c0.2,0,0.3,0.1,0.5,0.4l1.3,2.1c0.2,0.3,0.2,0.5,0.2,0.6c0,0.2-0.1,0.4-0.3,0.5
			c-0.7,0.5-1.6,0.9-2.7,1.1c-1.1,0.3-2.3,0.4-3.7,0.4C235.3,374.3,233,373.6,231.3,372.1z"/>
		<path class="st2" d="M246.6,373.6c-0.2-0.2-0.3-0.6-0.3-1.1v-14.2c0-0.5,0.1-0.8,0.3-1.1c0.2-0.2,0.6-0.3,1.2-0.3h3
			c0.6,0,1,0.1,1.2,0.3c0.2,0.2,0.3,0.6,0.3,1.1v14.2c0,0.5-0.1,0.8-0.3,1.1c-0.2,0.2-0.6,0.3-1.2,0.3h-3
			C247.2,373.9,246.9,373.8,246.6,373.6z"/>
		<path class="st2" d="M254.4,373.6c-0.2-0.2-0.3-0.6-0.3-1.1v-14.2c0-0.5,0.1-0.8,0.3-1.1c0.2-0.2,0.6-0.3,1.2-0.3h2.9
			c0.4,0,0.7,0,0.9,0.1c0.2,0.1,0.4,0.3,0.5,0.5l2.9,7.3l2.9-7.3c0.1-0.3,0.3-0.4,0.5-0.5s0.5-0.1,0.9-0.1h2.9c0.6,0,1,0.1,1.2,0.3
			c0.2,0.2,0.3,0.6,0.3,1.1v14.2c0,0.5-0.1,0.8-0.3,1.1c-0.2,0.2-0.6,0.3-1.2,0.3h-2.4c-0.5,0-0.9-0.1-1.2-0.3
			c-0.2-0.2-0.3-0.6-0.3-1.1v-6.8l-1.5,3.4c-0.2,0.5-0.4,0.8-0.6,1c-0.2,0.2-0.6,0.3-1.2,0.3s-0.9-0.1-1.2-0.3
			c-0.2-0.2-0.4-0.6-0.6-1l-1.5-3.4v6.8c0,0.5-0.1,0.8-0.3,1.1c-0.2,0.2-0.6,0.3-1.2,0.3h-2.4C255,373.9,254.6,373.8,254.4,373.6z"
			/>
		<path class="st2" d="M273.5,373.6c-0.2-0.2-0.3-0.6-0.3-1.1v-14.2c0-0.5,0.1-0.8,0.3-1.1c0.2-0.2,0.6-0.3,1.2-0.3h3
			c0.6,0,1,0.1,1.2,0.3c0.2,0.2,0.3,0.6,0.3,1.1v14.2c0,0.5-0.1,0.8-0.3,1.1c-0.2,0.2-0.6,0.3-1.2,0.3h-3
			C274.1,373.9,273.8,373.8,273.5,373.6z"/>
		<path class="st2" d="M281.3,373.6c-0.2-0.2-0.3-0.6-0.3-1.1v-14.2c0-0.5,0.1-0.8,0.3-1.1c0.2-0.2,0.6-0.3,1.2-0.3h10.4
			c0.5,0,0.9,0.1,1.1,0.3s0.3,0.6,0.3,1.1v1.4c0,0.5-0.1,0.9-0.3,1.1c-0.2,0.2-0.6,0.3-1.1,0.3h-5.9v2.2h3.6c0.5,0,0.9,0.1,1.1,0.3
			s0.3,0.6,0.3,1.1v1.3c0,0.5-0.1,0.9-0.3,1.1c-0.2,0.2-0.6,0.3-1.1,0.3h-3.6v2.2h5.8c0.5,0,0.9,0.1,1.1,0.3
			c0.2,0.2,0.3,0.6,0.3,1.1v1.4c0,0.5-0.1,0.9-0.3,1.1c-0.2,0.2-0.6,0.3-1.1,0.3h-10.3C281.9,373.9,281.5,373.8,281.3,373.6z"/>
		<path class="st2" d="M295.6,373.6c-0.2-0.2-0.3-0.6-0.3-1.1v-14.2c0-0.5,0.1-0.8,0.3-1.1c0.2-0.2,0.6-0.3,1.2-0.3h2.4
			c0.4,0,0.6,0,0.8,0.1s0.4,0.3,0.6,0.5l4.5,6.7v-6c0-0.5,0.1-0.8,0.3-1.1c0.2-0.2,0.6-0.3,1.2-0.3h3c0.6,0,1,0.1,1.2,0.3
			c0.2,0.2,0.3,0.6,0.3,1.1v14.2c0,0.5-0.1,0.8-0.3,1.1c-0.2,0.2-0.6,0.3-1.2,0.3h-2.4c-0.3,0-0.6,0-0.8-0.1s-0.4-0.3-0.6-0.5
			l-4.5-6.7v6c0,0.5-0.1,0.8-0.3,1.1c-0.2,0.2-0.6,0.3-1.2,0.3h-3C296.2,373.9,295.9,373.8,295.6,373.6z"/>
		<path class="st2" d="M317.2,373.6c-0.2-0.2-0.3-0.6-0.3-1.1v-11.3h-3.6c-0.5,0-0.9-0.1-1.1-0.3c-0.2-0.2-0.3-0.6-0.3-1.1v-1.4
			c0-0.5,0.1-0.9,0.3-1.1s0.6-0.3,1.1-0.3h13.2c0.5,0,0.9,0.1,1.1,0.3s0.3,0.6,0.3,1.1v1.4c0,0.5-0.1,0.9-0.3,1.1
			c-0.2,0.2-0.6,0.3-1.1,0.3h-3.6v11.3c0,0.5-0.1,0.8-0.3,1.1c-0.2,0.2-0.6,0.3-1.2,0.3h-3C317.8,373.9,317.4,373.8,317.2,373.6z"/>
		<path class="st2" d="M329.2,372c-1.5-1.5-2.3-3.7-2.3-6.6c0-2.8,0.8-5,2.3-6.6c1.5-1.5,3.8-2.3,6.8-2.3s5.2,0.8,6.8,2.3
			c1.5,1.5,2.3,3.7,2.3,6.6c0,2.8-0.8,5-2.3,6.6c-1.5,1.5-3.8,2.3-6.8,2.3S330.7,373.5,329.2,372z M338.3,368.9
			c0.5-0.8,0.7-1.9,0.7-3.5c0-1.6-0.2-2.8-0.7-3.5c-0.5-0.8-1.3-1.1-2.4-1.1c-1.1,0-1.9,0.4-2.3,1.1c-0.5,0.8-0.7,1.9-0.7,3.5
			c0,1.6,0.2,2.7,0.7,3.5c0.5,0.8,1.3,1.2,2.3,1.2C337,370.1,337.8,369.7,338.3,368.9z"/>
		<path class="st2" d="M348.3,373.8c-1.3-0.3-2.3-0.8-3.2-1.3c-0.3-0.2-0.5-0.5-0.5-0.7c0-0.2,0.1-0.3,0.2-0.5l1.4-2.3
			c0.2-0.2,0.3-0.3,0.5-0.3c0.1,0,0.3,0.1,0.5,0.2c0.6,0.4,1.3,0.7,2.1,0.9c0.8,0.2,1.5,0.3,2.3,0.3c0.6,0,1.1-0.1,1.3-0.3
			s0.4-0.4,0.4-0.8c0-0.4-0.2-0.7-0.5-0.9c-0.4-0.2-1-0.5-1.9-0.9c-1.7-0.6-3-1.4-4-2.2c-1-0.8-1.5-1.9-1.5-3.3c0-1.7,0.6-3,1.8-3.9
			c1.2-0.9,2.8-1.3,4.9-1.3c1.4,0,2.7,0.1,3.7,0.4c1,0.3,1.9,0.6,2.6,1.2c0.3,0.2,0.5,0.5,0.5,0.7c0,0.2-0.1,0.3-0.2,0.5l-1.5,2.3
			c-0.1,0.2-0.3,0.4-0.4,0.4c-0.1,0-0.3-0.1-0.5-0.2c-0.4-0.3-0.9-0.5-1.4-0.7s-1.1-0.3-1.8-0.3c-0.6,0-1,0.1-1.3,0.3
			c-0.3,0.2-0.5,0.4-0.5,0.8c0,0.3,0.1,0.6,0.3,0.8c0.2,0.2,0.5,0.4,0.8,0.5c0.3,0.1,0.9,0.4,1.7,0.7c1.3,0.5,2.2,1,3,1.4
			c0.7,0.5,1.3,1,1.6,1.6c0.4,0.6,0.5,1.5,0.5,2.4c0,1.5-0.6,2.7-1.7,3.6c-1.1,0.9-2.8,1.4-5,1.4C351,374.3,349.6,374.1,348.3,373.8
			z"/>
	</g>
</g>
</svg>
