<?xml version="1.0" encoding="utf-8"?>
<!-- Generator: Adobe Illustrator 23.0.0, SVG Export Plug-In . SVG Version: 6.00 Build 0)  -->
<svg version="1.1" id="Capa_1" xmlns="http://www.w3.org/2000/svg" xmlns:xlink="http://www.w3.org/1999/xlink" x="0px" y="0px"
	 viewBox="0 0 500 500" style="enable-background:new 0 0 500 500;" xml:space="preserve">
<style type="text/css">
	.st0{fill:#0C2D44;}
	.st1{fill:#2C83AF;}
	.st2{fill:#FFFFFF;}
	.st3{fill:#00791D;}
	.st4{fill:#00D13C;}
	.st5{fill:#F2F2F2;}
	.st6{fill:#727272;}
	.st7{fill:#A3A3A3;}
	.st8{fill:#BCBCBC;}
	.st9{fill:none;}
	.st10{fill:#866A5E;}
	.st11{fill:#F7DDCB;}
	.st12{fill:#FFE6D4;}
	.st13{fill:#2D2D2D;}
	.st14{fill:#1C1B1A;}
	.st15{fill:#F5F5F5;}
	.st16{fill:#77181C;}
	.st17{fill:#EAEAEA;}
	.st18{fill:#262525;}
	.st19{fill:#11100F;}
	.st20{fill:#CCCDCE;}
	.st21{fill:#DFDFDF;}
	.st22{fill:#C2C2C2;}
	.st23{fill:#0085B0;}
	.st24{fill:#2A5936;}
	.st25{fill:#CD7054;}
	.st26{fill:#F1CC4B;}
	.st27{fill:#22272F;}
	.st28{fill:#1B2538;}
	.st29{fill:#253452;}
	.st30{fill:#F9F9F9;}
	.st31{fill:#2D3543;}
	.st32{fill:#2A3D60;}
	.st33{fill:#ACACAC;}
	.st34{fill:#6C92D5;}
	.st35{fill:#587955;}
	.st36{fill:#DAA449;}
	.st37{fill:#D4D4D4;}
	.st38{fill:#85B681;}
	.st39{fill:#A1DC9B;}
	.st40{fill:#90C58B;}
	.st41{fill:#81C378;}
	.st42{opacity:0.5;}
	.st43{fill:#A2CADE;}
	.st44{fill:#9BAEC9;}
	.st45{fill:#9D2B3B;}
	.st46{fill:#C1D4F2;}
	.st47{fill:#534D46;}
	.st48{fill:#191819;}
	.st49{fill:#222123;}
	.st50{fill:#F3FF00;}
	.st51{fill:none;stroke:#5A605A;stroke-width:4;stroke-miterlimit:10;}
	.st52{fill:#505050;}
	.st53{fill:#FFB412;}
	.st54{fill:#53C2C9;}
	.st55{fill:#008B9C;}
	.st56{fill:none;stroke:#00550B;stroke-width:4;stroke-miterlimit:10;}
</style>
<g>
	<g>
		<circle class="st0" cx="258.5" cy="144.1" r="112"/>
		<circle class="st0" cx="147" cy="299.1" r="111.9"/>
		<circle class="st0" cx="332" cy="339.4" r="112"/>
	</g>
	<g>
		<circle class="st1" cx="254.4" cy="268.1" r="161.6"/>
	</g>
	<g>
		<path class="st2" d="M166.9,326.1c-1.6-1.4-2.4-3.6-2.4-6.4c0-2.8,0.8-5,2.3-6.4c1.6-1.4,3.8-2.1,6.7-2.1c1.3,0,2.5,0.1,3.5,0.4
			c1,0.3,1.9,0.6,2.6,1.1c0.2,0.1,0.3,0.3,0.3,0.5c0,0.1-0.1,0.3-0.2,0.6l-1.2,2.1c-0.1,0.2-0.3,0.3-0.5,0.3c-0.1,0-0.3-0.1-0.6-0.2
			c-0.4-0.2-0.9-0.4-1.4-0.5c-0.5-0.1-1.1-0.2-1.7-0.2c-1.3,0-2.3,0.4-3,1.2c-0.7,0.8-1.1,1.9-1.1,3.3c0,1.4,0.4,2.5,1.2,3.3
			c0.8,0.8,1.8,1.2,3.1,1.2c1.2,0,2.2-0.2,3.2-0.7c0.3-0.1,0.4-0.2,0.6-0.2c0.2,0,0.3,0.1,0.5,0.3l1.2,2.1c0.1,0.3,0.2,0.5,0.2,0.6
			c0,0.2-0.1,0.3-0.3,0.5c-0.7,0.5-1.6,0.8-2.6,1.1s-2.2,0.4-3.5,0.4C170.7,328.3,168.5,327.6,166.9,326.1z"/>
		<path class="st2" d="M181.9,326.1c-1.5-1.5-2.2-3.6-2.2-6.3c0-2.7,0.7-4.8,2.2-6.3s3.6-2.2,6.5-2.2c2.8,0,5,0.7,6.5,2.2
			s2.2,3.6,2.2,6.3c0,2.7-0.7,4.8-2.2,6.3s-3.6,2.2-6.5,2.2C185.5,328.3,183.4,327.6,181.9,326.1z M190.6,323.1
			c0.5-0.7,0.7-1.9,0.7-3.4c0-1.5-0.2-2.6-0.7-3.4c-0.5-0.7-1.2-1.1-2.3-1.1s-1.8,0.4-2.3,1.1c-0.5,0.7-0.7,1.9-0.7,3.4
			c0,1.5,0.2,2.6,0.7,3.4c0.5,0.7,1.2,1.1,2.3,1.1S190.2,323.9,190.6,323.1z"/>
		<path class="st2" d="M198.6,327.6c-0.2-0.2-0.3-0.6-0.3-1V313c0-0.5,0.1-0.8,0.3-1c0.2-0.2,0.6-0.3,1.1-0.3h2.3
			c0.3,0,0.6,0,0.8,0.1s0.4,0.3,0.5,0.5l4.3,6.5V313c0-0.5,0.1-0.8,0.3-1c0.2-0.2,0.6-0.3,1.1-0.3h2.9c0.5,0,0.9,0.1,1.1,0.3
			c0.2,0.2,0.3,0.6,0.3,1v13.6c0,0.5-0.1,0.8-0.3,1c-0.2,0.2-0.6,0.3-1.1,0.3h-2.3c-0.3,0-0.6,0-0.8-0.1s-0.4-0.3-0.5-0.5l-4.3-6.5
			v5.8c0,0.5-0.1,0.8-0.3,1c-0.2,0.2-0.6,0.3-1.1,0.3h-2.9C199.2,327.9,198.8,327.8,198.6,327.6z"/>
		<path class="st2" d="M215.4,327.6c-0.2-0.2-0.3-0.6-0.3-1V313c0-0.5,0.1-0.8,0.3-1c0.2-0.2,0.6-0.3,1.1-0.3h9.9
			c0.5,0,0.9,0.1,1,0.3c0.2,0.2,0.3,0.6,0.3,1v1.3c0,0.5-0.1,0.8-0.3,1c-0.2,0.2-0.5,0.3-1,0.3h-5.6v2h3.5c0.5,0,0.9,0.1,1,0.3
			c0.2,0.2,0.3,0.6,0.3,1v1.3c0,0.5-0.1,0.8-0.3,1c-0.2,0.2-0.5,0.3-1,0.3h-3.5v4.8c0,0.5-0.1,0.8-0.3,1c-0.2,0.2-0.6,0.3-1.1,0.3
			h-2.9C216,327.9,215.7,327.8,215.4,327.6z"/>
		<path class="st2" d="M229,327.6c-0.2-0.2-0.3-0.6-0.3-1V313c0-0.5,0.1-0.8,0.3-1c0.2-0.2,0.6-0.3,1.1-0.3h2.9
			c0.5,0,0.9,0.1,1.1,0.3c0.2,0.2,0.3,0.6,0.3,1v13.6c0,0.5-0.1,0.8-0.3,1c-0.2,0.2-0.6,0.3-1.1,0.3h-2.9
			C229.6,327.9,229.2,327.8,229,327.6z"/>
		<path class="st2" d="M236.4,327.6c-0.2-0.2-0.3-0.6-0.3-1V313c0-0.5,0.1-0.8,0.3-1c0.2-0.2,0.6-0.3,1.1-0.3h5.7
			c2.4,0,4.1,0.5,5.2,1.4c1.1,1,1.6,2.4,1.6,4.3c0,1.2-0.2,2.1-0.6,2.9c-0.4,0.8-1,1.4-1.8,1.9l2.2,4.8c0.1,0.1,0.1,0.3,0.1,0.4
			c0,0.2-0.1,0.3-0.2,0.4c-0.1,0.1-0.3,0.2-0.5,0.2h-4.1c-0.3,0-0.5,0-0.6-0.1c-0.2-0.1-0.3-0.2-0.3-0.4l-1.8-4.5h-0.8v3.6
			c0,0.5-0.1,0.8-0.3,1c-0.2,0.2-0.6,0.3-1.1,0.3h-2.9C237,327.9,236.6,327.8,236.4,327.6z M242.8,319c0.5,0,0.9-0.1,1.2-0.4
			c0.3-0.3,0.4-0.7,0.4-1.2c0-0.6-0.1-1-0.4-1.2c-0.3-0.3-0.7-0.4-1.2-0.4h-1.6v3.3H242.8z"/>
		<path class="st2" d="M251.7,327.6c-0.2-0.2-0.3-0.6-0.3-1V313c0-0.5,0.1-0.8,0.3-1c0.2-0.2,0.6-0.3,1.1-0.3h2.8
			c0.4,0,0.6,0,0.8,0.1s0.4,0.3,0.5,0.5l2.8,7l2.8-7c0.1-0.3,0.3-0.4,0.5-0.5s0.5-0.1,0.8-0.1h2.8c0.5,0,0.9,0.1,1.1,0.3
			c0.2,0.2,0.3,0.6,0.3,1v13.6c0,0.5-0.1,0.8-0.3,1c-0.2,0.2-0.6,0.3-1.1,0.3h-2.3c-0.5,0-0.9-0.1-1.1-0.3c-0.2-0.2-0.3-0.6-0.3-1
			V320l-1.4,3.3c-0.2,0.5-0.4,0.8-0.6,1c-0.2,0.2-0.6,0.3-1.1,0.3s-0.9-0.1-1.1-0.3c-0.2-0.2-0.4-0.5-0.6-1l-1.4-3.3v6.6
			c0,0.5-0.1,0.8-0.3,1c-0.2,0.2-0.6,0.3-1.1,0.3h-2.3C252.3,327.9,251.9,327.8,251.7,327.6z"/>
		<path class="st2" d="M268.7,327.4c0-0.1,0-0.3,0.1-0.5l6-14.4c0.1-0.3,0.3-0.6,0.5-0.7c0.2-0.1,0.4-0.2,0.8-0.2h2.6
			c0.3,0,0.6,0.1,0.8,0.2c0.2,0.1,0.3,0.4,0.5,0.7l6,14.4c0.1,0.2,0.1,0.4,0.1,0.5c0,0.3-0.2,0.5-0.5,0.5h-4.5
			c-0.5,0-0.8-0.2-0.9-0.6l-0.6-1.8h-4.2l-0.6,1.8c-0.1,0.4-0.4,0.6-0.9,0.6h-4.5C268.8,327.9,268.7,327.8,268.7,327.4z
			 M278.3,321.7l-0.9-3l-0.9,3H278.3z"/>
		<path class="st2" d="M287.8,326.1c-1.6-1.4-2.4-3.6-2.4-6.4c0-2.8,0.8-5,2.3-6.4c1.6-1.4,3.8-2.1,6.7-2.1c1.3,0,2.5,0.1,3.5,0.4
			c1,0.3,1.9,0.6,2.6,1.1c0.2,0.1,0.3,0.3,0.3,0.5c0,0.1-0.1,0.3-0.2,0.6l-1.2,2.1c-0.1,0.2-0.3,0.3-0.5,0.3c-0.1,0-0.3-0.1-0.6-0.2
			c-0.4-0.2-0.9-0.4-1.4-0.5c-0.5-0.1-1.1-0.2-1.7-0.2c-1.3,0-2.3,0.4-3,1.2c-0.7,0.8-1.1,1.9-1.1,3.3c0,1.4,0.4,2.5,1.2,3.3
			c0.8,0.8,1.8,1.2,3.1,1.2c1.2,0,2.2-0.2,3.2-0.7c0.3-0.1,0.4-0.2,0.6-0.2c0.2,0,0.3,0.1,0.5,0.3l1.2,2.1c0.1,0.3,0.2,0.5,0.2,0.6
			c0,0.2-0.1,0.3-0.3,0.5c-0.7,0.5-1.6,0.8-2.6,1.1s-2.2,0.4-3.5,0.4C291.7,328.3,289.4,327.6,287.8,326.1z"/>
		<path class="st2" d="M302.5,327.6c-0.2-0.2-0.3-0.6-0.3-1V313c0-0.5,0.1-0.8,0.3-1c0.2-0.2,0.6-0.3,1.1-0.3h2.9
			c0.5,0,0.9,0.1,1.1,0.3c0.2,0.2,0.3,0.6,0.3,1v13.6c0,0.5-0.1,0.8-0.3,1c-0.2,0.2-0.6,0.3-1.1,0.3h-2.9
			C303.1,327.9,302.8,327.8,302.5,327.6z"/>
		<path class="st2" d="M311.4,326.1c-1.5-1.5-2.2-3.6-2.2-6.3c0-2.7,0.7-4.8,2.2-6.3s3.6-2.2,6.5-2.2c2.8,0,5,0.7,6.5,2.2
			s2.2,3.6,2.2,6.3c0,2.7-0.7,4.8-2.2,6.3s-3.6,2.2-6.5,2.2C315,328.3,312.9,327.6,311.4,326.1z M320.1,323.1
			c0.5-0.7,0.7-1.9,0.7-3.4c0-1.5-0.2-2.6-0.7-3.4c-0.5-0.7-1.2-1.1-2.3-1.1s-1.8,0.4-2.3,1.1c-0.5,0.7-0.7,1.9-0.7,3.4
			c0,1.5,0.2,2.6,0.7,3.4c0.5,0.7,1.2,1.1,2.3,1.1S319.7,323.9,320.1,323.1z M315.3,309.6c0-0.1,0-0.3,0.1-0.4l1-2.8
			c0.1-0.4,0.3-0.6,0.5-0.7c0.2-0.1,0.5-0.2,1-0.2h3.4c0.3,0,0.6,0.1,0.8,0.2c0.2,0.1,0.3,0.3,0.3,0.5c0,0.2-0.1,0.4-0.2,0.6
			l-1.5,2.6c-0.2,0.4-0.4,0.6-0.6,0.7c-0.2,0.1-0.6,0.2-1.1,0.2h-2.6C315.6,310.3,315.3,310,315.3,309.6z"/>
		<path class="st2" d="M328.1,327.6c-0.2-0.2-0.3-0.6-0.3-1V313c0-0.5,0.1-0.8,0.3-1c0.2-0.2,0.6-0.3,1.1-0.3h2.3
			c0.3,0,0.6,0,0.8,0.1s0.4,0.3,0.5,0.5l4.3,6.5V313c0-0.5,0.1-0.8,0.3-1c0.2-0.2,0.6-0.3,1.1-0.3h2.9c0.5,0,0.9,0.1,1.1,0.3
			c0.2,0.2,0.3,0.6,0.3,1v13.6c0,0.5-0.1,0.8-0.3,1c-0.2,0.2-0.6,0.3-1.1,0.3h-2.3c-0.3,0-0.6,0-0.8-0.1s-0.4-0.3-0.5-0.5l-4.3-6.5
			v5.8c0,0.5-0.1,0.8-0.3,1c-0.2,0.2-0.6,0.3-1.1,0.3h-2.9C328.7,327.9,328.3,327.8,328.1,327.6z"/>
		<path class="st2" d="M175.6,356.4c-0.2-0.2-0.3-0.6-0.3-1v-13.6c0-0.5,0.1-0.8,0.3-1s0.6-0.3,1.1-0.3h5.5c5.6,0,8.5,2.7,8.5,8.2
			c0,2.7-0.7,4.7-2.2,6.1c-1.4,1.4-3.5,2.1-6.3,2.1h-5.5C176.2,356.7,175.8,356.6,175.6,356.4z M182.5,352.7c0.9,0,1.5-0.3,1.9-0.9
			c0.4-0.6,0.6-1.7,0.6-3.2c0-1.5-0.2-2.6-0.6-3.2c-0.4-0.6-1-0.9-1.9-0.9H181v8.2H182.5z"/>
		<path class="st2" d="M192.2,356.4c-0.2-0.2-0.3-0.6-0.3-1v-13.6c0-0.5,0.1-0.8,0.3-1s0.6-0.3,1.1-0.3h9.9c0.5,0,0.9,0.1,1,0.3
			c0.2,0.2,0.3,0.6,0.3,1v1.3c0,0.5-0.1,0.8-0.3,1s-0.5,0.3-1,0.3h-5.6v2.1h3.5c0.5,0,0.9,0.1,1,0.3c0.2,0.2,0.3,0.6,0.3,1v1.3
			c0,0.5-0.1,0.8-0.3,1c-0.2,0.2-0.5,0.3-1,0.3h-3.5v2.1h5.6c0.5,0,0.9,0.1,1,0.3c0.2,0.2,0.3,0.6,0.3,1v1.3c0,0.5-0.1,0.8-0.3,1
			c-0.2,0.2-0.5,0.3-1,0.3h-9.9C192.8,356.7,192.4,356.6,192.2,356.4z"/>
		<path class="st2" d="M217,356.4c-0.2-0.2-0.3-0.6-0.3-1v-10.9h-3.5c-0.5,0-0.9-0.1-1-0.3c-0.2-0.2-0.3-0.6-0.3-1v-1.3
			c0-0.5,0.1-0.8,0.3-1c0.2-0.2,0.5-0.3,1-0.3h12.7c0.5,0,0.9,0.1,1,0.3c0.2,0.2,0.3,0.6,0.3,1v1.3c0,0.5-0.1,0.8-0.3,1
			c-0.2,0.2-0.5,0.3-1,0.3h-3.5v10.9c0,0.5-0.1,0.8-0.3,1c-0.2,0.2-0.6,0.3-1.1,0.3h-2.9C217.6,356.7,217.2,356.6,217,356.4z"/>
		<path class="st2" d="M231.6,356.3c-1.2-0.5-2.1-1.2-2.8-2.2c-0.7-1-1-2.1-1-3.4v-9c0-0.5,0.1-0.8,0.3-1s0.6-0.3,1.1-0.3h2.9
			c0.5,0,0.9,0.1,1.1,0.3c0.2,0.2,0.3,0.6,0.3,1v9c0,0.8,0.2,1.3,0.6,1.7c0.4,0.4,0.9,0.6,1.5,0.6s1.2-0.2,1.5-0.6
			c0.4-0.4,0.6-0.9,0.6-1.7v-9c0-0.5,0.1-0.8,0.3-1c0.2-0.2,0.6-0.3,1.1-0.3h2.9c0.5,0,0.9,0.1,1.1,0.3c0.2,0.2,0.3,0.6,0.3,1v9
			c0,1.3-0.3,2.4-1,3.4c-0.7,1-1.6,1.7-2.8,2.2c-1.2,0.5-2.6,0.8-4.1,0.8S232.8,356.8,231.6,356.3z"/>
		<path class="st2" d="M245.5,356.4c-0.2-0.2-0.3-0.6-0.3-1v-13.6c0-0.5,0.1-0.8,0.3-1s0.6-0.3,1.1-0.3h5.7c2.4,0,4.1,0.5,5.2,1.4
			c1.1,1,1.6,2.4,1.6,4.3c0,1.2-0.2,2.1-0.6,2.9c-0.4,0.8-1,1.4-1.8,1.9l2.2,4.8c0.1,0.1,0.1,0.3,0.1,0.4c0,0.2-0.1,0.3-0.2,0.4
			c-0.1,0.1-0.3,0.2-0.5,0.2h-4.1c-0.3,0-0.5,0-0.6-0.1c-0.2-0.1-0.3-0.2-0.3-0.4l-1.8-4.5h-0.8v3.6c0,0.5-0.1,0.8-0.3,1
			c-0.2,0.2-0.6,0.3-1.1,0.3h-2.9C246.1,356.7,245.7,356.6,245.5,356.4z M251.8,347.8c0.5,0,0.9-0.1,1.2-0.4
			c0.3-0.3,0.4-0.7,0.4-1.2c0-0.6-0.1-1-0.4-1.2c-0.3-0.3-0.7-0.4-1.2-0.4h-1.6v3.3H251.8z"/>
		<path class="st2" d="M260.7,356.4c-0.2-0.2-0.3-0.6-0.3-1v-13.6c0-0.5,0.1-0.8,0.3-1c0.2-0.2,0.6-0.3,1.1-0.3h2.3
			c0.3,0,0.6,0,0.8,0.1c0.2,0.1,0.4,0.3,0.5,0.5l4.3,6.5v-5.7c0-0.5,0.1-0.8,0.3-1c0.2-0.2,0.6-0.3,1.1-0.3h2.9
			c0.5,0,0.9,0.1,1.1,0.3c0.2,0.2,0.3,0.6,0.3,1v13.6c0,0.5-0.1,0.8-0.3,1c-0.2,0.2-0.6,0.3-1.1,0.3h-2.3c-0.3,0-0.6,0-0.8-0.1
			s-0.4-0.3-0.5-0.5l-4.3-6.5v5.8c0,0.5-0.1,0.8-0.3,1c-0.2,0.2-0.6,0.3-1.1,0.3h-2.9C261.3,356.7,260.9,356.6,260.7,356.4z"/>
		<path class="st2" d="M279,354.9c-1.5-1.5-2.2-3.6-2.2-6.3s0.7-4.8,2.2-6.3c1.5-1.5,3.6-2.2,6.5-2.2c2.8,0,5,0.7,6.5,2.2
			c1.5,1.5,2.2,3.6,2.2,6.3s-0.7,4.8-2.2,6.3c-1.5,1.5-3.6,2.2-6.5,2.2C282.6,357.1,280.5,356.4,279,354.9z M287.7,351.9
			c0.5-0.7,0.7-1.9,0.7-3.4c0-1.5-0.2-2.6-0.7-3.4c-0.5-0.7-1.2-1.1-2.3-1.1s-1.8,0.4-2.3,1.1c-0.5,0.7-0.7,1.9-0.7,3.4
			c0,1.5,0.2,2.6,0.7,3.4c0.5,0.7,1.2,1.1,2.3,1.1S287.3,352.7,287.7,351.9z"/>
		<path class="st2" d="M297.3,356.6c-1.2-0.3-2.3-0.7-3-1.3c-0.3-0.2-0.5-0.4-0.5-0.6c0-0.1,0.1-0.3,0.2-0.5l1.4-2.2
			c0.1-0.2,0.3-0.3,0.4-0.3c0.1,0,0.3,0.1,0.5,0.2c0.6,0.4,1.2,0.6,2,0.8c0.7,0.2,1.5,0.3,2.2,0.3c0.6,0,1-0.1,1.3-0.2
			s0.4-0.4,0.4-0.7c0-0.4-0.2-0.7-0.5-0.9c-0.4-0.2-1-0.5-1.8-0.8c-1.6-0.6-2.9-1.3-3.8-2.1c-0.9-0.8-1.4-1.8-1.4-3.2
			c0-1.7,0.6-2.9,1.7-3.8c1.2-0.8,2.7-1.3,4.7-1.3c1.4,0,2.5,0.1,3.5,0.4c1,0.2,1.8,0.6,2.5,1.1c0.3,0.2,0.5,0.4,0.5,0.6
			c0,0.1-0.1,0.3-0.2,0.5l-1.4,2.2c-0.1,0.2-0.3,0.3-0.4,0.3c-0.1,0-0.2-0.1-0.5-0.2c-0.4-0.3-0.8-0.5-1.4-0.6s-1.1-0.3-1.7-0.3
			c-0.6,0-1,0.1-1.3,0.2s-0.4,0.4-0.4,0.8c0,0.3,0.1,0.5,0.3,0.7c0.2,0.2,0.5,0.4,0.8,0.5c0.3,0.1,0.8,0.4,1.6,0.7
			c1.2,0.5,2.1,0.9,2.8,1.4c0.7,0.4,1.2,1,1.6,1.6c0.4,0.6,0.5,1.4,0.5,2.3c0,1.4-0.5,2.6-1.6,3.5c-1.1,0.9-2.7,1.3-4.8,1.3
			C299.9,357.1,298.6,356.9,297.3,356.6z"/>
		<path class="st2" d="M321.8,356.4c-0.2-0.2-0.3-0.6-0.3-1V351l-5.6-9.6c-0.1-0.2-0.1-0.3-0.1-0.5c0-0.4,0.2-0.5,0.6-0.5h4.5
			c0.2,0,0.4,0.1,0.6,0.2c0.1,0.1,0.3,0.3,0.4,0.5l2.6,4.7l2.6-4.7c0.1-0.2,0.3-0.4,0.4-0.5c0.1-0.1,0.3-0.2,0.6-0.2h4.5
			c0.4,0,0.6,0.2,0.6,0.5c0,0.2,0,0.3-0.1,0.5l-5.6,9.6v4.3c0,0.5-0.1,0.8-0.3,1c-0.2,0.2-0.6,0.3-1.1,0.3h-2.9
			C322.4,356.7,322,356.6,321.8,356.4z"/>
		<path class="st2" d="M177,385c0-0.1,0-0.3,0.1-0.5l6-14.4c0.1-0.3,0.3-0.6,0.5-0.7c0.2-0.1,0.4-0.2,0.8-0.2h2.6
			c0.3,0,0.6,0.1,0.8,0.2c0.2,0.1,0.3,0.4,0.5,0.7l6,14.4c0.1,0.2,0.1,0.4,0.1,0.5c0,0.3-0.2,0.5-0.5,0.5h-4.5
			c-0.5,0-0.8-0.2-0.9-0.6l-0.6-1.8h-4.2l-0.6,1.8c-0.1,0.4-0.4,0.6-0.9,0.6h-4.5C177.2,385.5,177,385.4,177,385z M186.6,379.3
			l-0.9-3l-0.9,3H186.6z"/>
		<path class="st2" d="M197.5,385.4c-1.2-0.3-2.3-0.7-3-1.3c-0.3-0.2-0.5-0.4-0.5-0.6c0-0.1,0.1-0.3,0.2-0.5l1.4-2.2
			c0.1-0.2,0.3-0.3,0.4-0.3c0.1,0,0.3,0.1,0.5,0.2c0.6,0.4,1.2,0.6,2,0.8c0.7,0.2,1.5,0.3,2.2,0.3c0.6,0,1-0.1,1.3-0.2
			c0.3-0.2,0.4-0.4,0.4-0.7c0-0.4-0.2-0.7-0.5-0.9c-0.4-0.2-1-0.5-1.8-0.8c-1.6-0.6-2.9-1.3-3.8-2.1c-0.9-0.8-1.4-1.8-1.4-3.2
			c0-1.7,0.6-2.9,1.7-3.8c1.2-0.8,2.7-1.3,4.7-1.3c1.4,0,2.5,0.1,3.5,0.4c1,0.2,1.8,0.6,2.5,1.1c0.3,0.2,0.5,0.4,0.5,0.6
			c0,0.1-0.1,0.3-0.2,0.5l-1.4,2.2c-0.1,0.2-0.3,0.3-0.4,0.3c-0.1,0-0.2-0.1-0.5-0.2c-0.4-0.3-0.8-0.5-1.4-0.6
			c-0.5-0.2-1.1-0.3-1.7-0.3c-0.6,0-1,0.1-1.3,0.2c-0.3,0.2-0.4,0.4-0.4,0.8c0,0.3,0.1,0.5,0.3,0.7c0.2,0.2,0.5,0.4,0.8,0.5
			c0.3,0.1,0.8,0.4,1.6,0.7c1.2,0.5,2.1,0.9,2.8,1.4c0.7,0.4,1.2,1,1.6,1.6c0.4,0.6,0.5,1.4,0.5,2.3c0,1.4-0.5,2.6-1.6,3.5
			c-1.1,0.9-2.7,1.3-4.8,1.3C200.1,385.9,198.7,385.7,197.5,385.4z"/>
		<path class="st2" d="M209.5,385.2c-0.2-0.2-0.3-0.6-0.3-1v-13.6c0-0.5,0.1-0.8,0.3-1c0.2-0.2,0.6-0.3,1.1-0.3h2.9
			c0.5,0,0.9,0.1,1.1,0.3c0.2,0.2,0.3,0.6,0.3,1v13.6c0,0.5-0.1,0.8-0.3,1c-0.2,0.2-0.6,0.3-1.1,0.3h-2.9
			C210.1,385.5,209.8,385.4,209.5,385.2z"/>
		<path class="st2" d="M219.7,385.4c-1.2-0.3-2.3-0.7-3-1.3c-0.3-0.2-0.5-0.4-0.5-0.6c0-0.1,0.1-0.3,0.2-0.5l1.4-2.2
			c0.1-0.2,0.3-0.3,0.4-0.3c0.1,0,0.3,0.1,0.5,0.2c0.6,0.4,1.2,0.6,2,0.8c0.7,0.2,1.5,0.3,2.2,0.3c0.6,0,1-0.1,1.3-0.2
			c0.3-0.2,0.4-0.4,0.4-0.7c0-0.4-0.2-0.7-0.5-0.9c-0.4-0.2-1-0.5-1.8-0.8c-1.6-0.6-2.9-1.3-3.8-2.1c-0.9-0.8-1.4-1.8-1.4-3.2
			c0-1.7,0.6-2.9,1.7-3.8c1.2-0.8,2.7-1.3,4.7-1.3c1.4,0,2.5,0.1,3.5,0.4c1,0.2,1.8,0.6,2.5,1.1c0.3,0.2,0.5,0.4,0.5,0.6
			c0,0.1-0.1,0.3-0.2,0.5l-1.4,2.2c-0.1,0.2-0.3,0.3-0.4,0.3c-0.1,0-0.2-0.1-0.5-0.2c-0.4-0.3-0.8-0.5-1.4-0.6
			c-0.5-0.2-1.1-0.3-1.7-0.3c-0.6,0-1,0.1-1.3,0.2c-0.3,0.2-0.4,0.4-0.4,0.8c0,0.3,0.1,0.5,0.3,0.7c0.2,0.2,0.5,0.4,0.8,0.5
			c0.3,0.1,0.8,0.4,1.6,0.7c1.2,0.5,2.1,0.9,2.8,1.4c0.7,0.4,1.2,1,1.6,1.6c0.4,0.6,0.5,1.4,0.5,2.3c0,1.4-0.5,2.6-1.6,3.5
			c-1.1,0.9-2.7,1.3-4.8,1.3C222.3,385.9,220.9,385.7,219.7,385.4z"/>
		<path class="st2" d="M235,385.2c-0.2-0.2-0.3-0.6-0.3-1v-10.9h-3.5c-0.5,0-0.9-0.1-1-0.3c-0.2-0.2-0.3-0.6-0.3-1v-1.3
			c0-0.5,0.1-0.8,0.3-1c0.2-0.2,0.5-0.3,1-0.3h12.7c0.5,0,0.9,0.1,1,0.3c0.2,0.2,0.3,0.6,0.3,1v1.3c0,0.5-0.1,0.8-0.3,1
			c-0.2,0.2-0.5,0.3-1,0.3h-3.5v10.9c0,0.5-0.1,0.8-0.3,1c-0.2,0.2-0.6,0.3-1.1,0.3h-2.9C235.5,385.5,235.2,385.4,235,385.2z"/>
		<path class="st2" d="M246.2,385.2c-0.2-0.2-0.3-0.6-0.3-1v-13.6c0-0.5,0.1-0.8,0.3-1c0.2-0.2,0.6-0.3,1.1-0.3h9.9
			c0.5,0,0.9,0.1,1,0.3c0.2,0.2,0.3,0.6,0.3,1v1.3c0,0.5-0.1,0.8-0.3,1c-0.2,0.2-0.5,0.3-1,0.3h-5.6v2.1h3.5c0.5,0,0.9,0.1,1,0.3
			c0.2,0.2,0.3,0.6,0.3,1v1.3c0,0.5-0.1,0.8-0.3,1c-0.2,0.2-0.5,0.3-1,0.3h-3.5v2.1h5.6c0.5,0,0.9,0.1,1,0.3c0.2,0.2,0.3,0.6,0.3,1
			v1.3c0,0.5-0.1,0.8-0.3,1c-0.2,0.2-0.5,0.3-1,0.3h-9.9C246.8,385.5,246.4,385.4,246.2,385.2z"/>
		<path class="st2" d="M260,385.2c-0.2-0.2-0.3-0.6-0.3-1v-13.6c0-0.5,0.1-0.8,0.3-1c0.2-0.2,0.6-0.3,1.1-0.3h2.3
			c0.3,0,0.6,0,0.8,0.1s0.4,0.3,0.5,0.5l4.3,6.5v-5.7c0-0.5,0.1-0.8,0.3-1c0.2-0.2,0.6-0.3,1.1-0.3h2.9c0.5,0,0.9,0.1,1.1,0.3
			c0.2,0.2,0.3,0.6,0.3,1v13.6c0,0.5-0.1,0.8-0.3,1c-0.2,0.2-0.6,0.3-1.1,0.3h-2.3c-0.3,0-0.6,0-0.8-0.1s-0.4-0.3-0.5-0.5l-4.3-6.5
			v5.8c0,0.5-0.1,0.8-0.3,1c-0.2,0.2-0.6,0.3-1.1,0.3h-2.9C260.6,385.5,260.2,385.4,260,385.2z"/>
		<path class="st2" d="M278.5,383.7c-1.6-1.4-2.4-3.6-2.4-6.4c0-2.8,0.8-5,2.3-6.4c1.6-1.4,3.8-2.1,6.7-2.1c1.3,0,2.5,0.1,3.5,0.4
			c1,0.3,1.9,0.6,2.6,1.1c0.2,0.1,0.3,0.3,0.3,0.5c0,0.1-0.1,0.3-0.2,0.6l-1.2,2.1c-0.1,0.2-0.3,0.3-0.5,0.3c-0.1,0-0.3-0.1-0.6-0.2
			c-0.4-0.2-0.9-0.4-1.4-0.5c-0.5-0.1-1.1-0.2-1.7-0.2c-1.3,0-2.3,0.4-3,1.2c-0.7,0.8-1.1,1.9-1.1,3.3c0,1.4,0.4,2.5,1.2,3.3
			c0.8,0.8,1.8,1.2,3.1,1.2c1.2,0,2.2-0.2,3.2-0.7c0.3-0.1,0.4-0.2,0.6-0.2c0.2,0,0.3,0.1,0.5,0.3l1.2,2.1c0.1,0.3,0.2,0.5,0.2,0.6
			c0,0.2-0.1,0.3-0.3,0.5c-0.7,0.5-1.6,0.8-2.6,1.1s-2.2,0.4-3.5,0.4C282.3,385.9,280.1,385.2,278.5,383.7z"/>
		<path class="st2" d="M293.2,385.2c-0.2-0.2-0.3-0.6-0.3-1v-13.6c0-0.5,0.1-0.8,0.3-1c0.2-0.2,0.6-0.3,1.1-0.3h2.9
			c0.5,0,0.9,0.1,1.1,0.3c0.2,0.2,0.3,0.6,0.3,1v13.6c0,0.5-0.1,0.8-0.3,1c-0.2,0.2-0.6,0.3-1.1,0.3h-2.9
			C293.8,385.5,293.4,385.4,293.2,385.2z"/>
		<path class="st2" d="M299.8,385c0-0.1,0-0.3,0.1-0.5l6-14.4c0.1-0.3,0.3-0.6,0.5-0.7c0.2-0.1,0.4-0.2,0.8-0.2h2.6
			c0.3,0,0.6,0.1,0.8,0.2c0.2,0.1,0.3,0.4,0.5,0.7l6,14.4c0.1,0.2,0.1,0.4,0.1,0.5c0,0.3-0.2,0.5-0.5,0.5h-4.5
			c-0.5,0-0.8-0.2-0.9-0.6l-0.6-1.8h-4.2l-0.6,1.8c-0.1,0.4-0.4,0.6-0.9,0.6h-4.5C300,385.5,299.8,385.4,299.8,385z M309.4,379.3
			l-0.9-3l-0.9,3H309.4z"/>
		<path class="st2" d="M320.3,385.4c-1.2-0.3-2.3-0.7-3-1.3c-0.3-0.2-0.5-0.4-0.5-0.6c0-0.1,0.1-0.3,0.2-0.5l1.4-2.2
			c0.1-0.2,0.3-0.3,0.4-0.3c0.1,0,0.3,0.1,0.5,0.2c0.6,0.4,1.2,0.6,2,0.8c0.7,0.2,1.5,0.3,2.2,0.3c0.6,0,1-0.1,1.3-0.2
			c0.3-0.2,0.4-0.4,0.4-0.7c0-0.4-0.2-0.7-0.5-0.9c-0.4-0.2-1-0.5-1.8-0.8c-1.6-0.6-2.9-1.3-3.8-2.1c-0.9-0.8-1.4-1.8-1.4-3.2
			c0-1.7,0.6-2.9,1.7-3.8c1.2-0.8,2.7-1.3,4.7-1.3c1.4,0,2.5,0.1,3.5,0.4c1,0.2,1.8,0.6,2.5,1.1c0.3,0.2,0.5,0.4,0.5,0.6
			c0,0.1-0.1,0.3-0.2,0.5l-1.4,2.2c-0.1,0.2-0.3,0.3-0.4,0.3c-0.1,0-0.2-0.1-0.5-0.2c-0.4-0.3-0.8-0.5-1.4-0.6
			c-0.5-0.2-1.1-0.3-1.7-0.3c-0.6,0-1,0.1-1.3,0.2c-0.3,0.2-0.4,0.4-0.4,0.8c0,0.3,0.1,0.5,0.3,0.7c0.2,0.2,0.5,0.4,0.8,0.5
			c0.3,0.1,0.8,0.4,1.6,0.7c1.2,0.5,2.1,0.9,2.8,1.4c0.7,0.4,1.2,1,1.6,1.6c0.4,0.6,0.5,1.4,0.5,2.3c0,1.4-0.5,2.6-1.6,3.5
			c-1.1,0.9-2.7,1.3-4.8,1.3C322.9,385.9,321.6,385.7,320.3,385.4z"/>
	</g>
	<g>
		<path class="st24" d="M338,183.5v85.3c0,4.2-3.4,7.6-7.6,7.6H194.6c-4.2,0-7.6-3.4-7.6-7.6v-85.3H338z"/>
		<path class="st2" d="M338,168.8v14.7H187v-14.7c0-4.2,3.4-7.6,7.6-7.6h135.8C334.6,161.2,338,164.6,338,168.8z"/>
		<rect x="243.3" y="197.9" class="st2" width="17.3" height="17.3"/>
		<rect x="266.6" y="197.9" class="st2" width="17.3" height="17.3"/>
		<rect x="289.9" y="197.9" class="st2" width="17.3" height="17.3"/>
		<rect x="313.3" y="197.9" class="st2" width="17.3" height="17.3"/>
		<rect x="220" y="221.3" class="st2" width="17.3" height="17.3"/>
		<rect x="243.3" y="221.3" class="st2" width="17.3" height="17.3"/>
		<rect x="266.6" y="221.3" class="st2" width="17.3" height="17.3"/>
		<rect x="289.9" y="221.3" class="st2" width="17.3" height="17.3"/>
		<rect x="313.3" y="221.3" class="st2" width="17.3" height="17.3"/>
		<rect x="220" y="244.6" class="st2" width="17.3" height="17.3"/>
		<rect x="243.3" y="244.6" class="st2" width="17.3" height="17.3"/>
		<rect x="266.6" y="244.6" class="st2" width="17.3" height="17.3"/>
		<rect x="289.9" y="244.6" class="st2" width="17.3" height="17.3"/>
		<rect x="313.3" y="244.6" class="st2" width="17.3" height="17.3"/>
		<g>
			<path class="st25" d="M311.7,244.3c-3.5,5.2-7.5,10.1-11.3,15.1c-0.9,1.2-2.7,1.3-3.9,0.7c-3.3-1.7-5.1-5.5-7.5-7.9
				c-2-2.6,1.5-3.2,3.3-1.9c2.2,1.6,3.8,3.9,5.8,5.6c3.5-4.1,7.8-7.8,10.8-12.2C310.2,241.8,313.4,241.8,311.7,244.3z"/>
		</g>
		<path class="st26" d="M209.9,171.9c0,2.6-2.1,4.8-4.8,4.8l0,0c-2.6,0-4.8-2.1-4.8-4.8V154c0-2.6,2.1-4.8,4.8-4.8l0,0
			c2.7,0,4.8,2.1,4.8,4.8V171.9z"/>
		<path class="st26" d="M267.3,171.9c0,2.6-2.1,4.8-4.8,4.8l0,0c-2.7,0-4.8-2.1-4.8-4.8V154c0-2.6,2.1-4.8,4.8-4.8l0,0
			c2.6,0,4.8,2.1,4.8,4.8V171.9z"/>
		<path class="st26" d="M324.8,171.9c0,2.6-2.1,4.8-4.8,4.8l0,0c-2.6,0-4.8-2.1-4.8-4.8V154c0-2.6,2.1-4.8,4.8-4.8l0,0
			c2.6,0,4.8,2.1,4.8,4.8V171.9z"/>
		<g>
			<circle id="XMLID_75_" class="st5" cx="190.6" cy="262.1" r="37.9"/>
			<g id="XMLID_51_">
				<path id="XMLID_74_" class="st9" d="M201.2,260.6c0.5-1.2,0.7-2.2,0.8-2.4c0,0-0.1,0-0.1-0.1c-0.1-0.1,0.2-1.3,0-1.4
					c0,0,0,0,0,0c-0.1,0.4-0.4,0.8-0.7,1C201.2,258.7,201.2,259.7,201.2,260.6z"/>
				<path id="XMLID_73_" class="st10" d="M199.5,258.2c-0.6-0.4-0.5,5.3-2.9,7.5c-0.2,0.2-0.3,0.3-0.5,0.5c-0.2,0.2-0.4,0.3-0.5,0.4
					c0,0.1,0,0.2,0,0.2c2.1-0.6,3.7-2.5,4.6-4.2c0.4-0.7,0.8-1.5,1-2.1c0-1,0-1.9,0-2.9c-0.2,0.2-0.4,0.3-0.6,0.3
					C200.3,258.4,199.9,258.5,199.5,258.2z"/>
				<path id="XMLID_72_" class="st10" d="M181.4,273.4c-0.1,0-0.2,0.1-0.4,0.4C181.1,273.6,181.2,273.5,181.4,273.4z"/>
				<path id="XMLID_71_" class="st10" d="M195.6,267.2c0.1,1.2,0.3,2.9,1.3,4.4c0.3-0.3,0.5-0.4,0.6-0.2c0.8,1.3,1.5,2,2,2.4
					c-0.2-0.4-0.5-0.5-0.5-0.5s0.5-0.2,1.5,0.6c0.2,0.2,0.6,0.4,1,0.8c-0.5-2.4-0.4-7.9-0.3-13.3c-0.2,0.5-0.5,1-0.8,1.5
					C199.1,265.2,197.4,266.7,195.6,267.2z"/>
				<path id="XMLID_70_" class="st10" d="M181.4,273.3c0.4-0.4,1-1,1.5-1.9c0.1-0.2,0.3-0.1,0.7,0.2c1.2-1.7,1.3-3.6,1.4-4.9
					c-0.4-0.3-0.7-0.6-1.1-0.9c-2.3-2.2-2.3-7.9-2.9-7.5c-0.4,0.3-0.8,0.2-1.1-0.1c-0.1,0-0.2-0.1-0.3-0.2c0,6.2,0.2,13.5-0.3,16.6
					c0.3-0.2,0.6-0.4,0.7-0.6C180.8,273.2,181.3,273.3,181.4,273.3z"/>
				<path id="XMLID_69_" class="st11" d="M195.1,267c0.2,0,0.3-0.1,0.5-0.1c0-0.1,0-0.2,0-0.2C195.4,266.8,195.2,266.9,195.1,267z"
					/>
				<path id="XMLID_68_" class="st11" d="M190.1,277.6c0,0,0.1,0.1,0.1,0.1c0,0,0-0.1,0.1-0.1c4.1-3.1,5.8-5.2,6.6-6
					c-1-1.5-1.3-3.1-1.3-4.4c-0.3,0.1-0.7,0.2-1,0.2c-0.1,0.4-0.5,1.2-2,1.2c-0.3,0-0.6,0-0.8-0.1c-0.2,0-0.5,0.1-0.7,0.1
					c-0.7,0.1-1.4,0-2.1-0.1c-0.6-0.1-1.1-0.2-1.6-0.4c-0.6-0.2-1.2-0.5-1.7-0.9c-0.2-0.2-0.5-0.3-0.7-0.5c0,1.3-0.2,3.2-1.4,4.9
					C184.4,272.4,186.1,274.5,190.1,277.6z"/>
				<path id="XMLID_67_" class="st11" d="M190.2,277.8C190.2,277.8,190.2,277.8,190.2,277.8L190.2,277.8
					C190.2,277.8,190.2,277.8,190.2,277.8z"/>
				<path id="XMLID_66_" class="st12" d="M187.3,268.1c0.5,0.2,1.1,0.4,1.6,0.4c0.7,0.1,1.4,0.1,2.1,0.1c0.2,0,0.5-0.1,0.7-0.1
					c-1-0.3-1.1-1.1-1.1-1.3c0-0.3,0.2-1.4,1.9-1.4c1.6,0,2,0.9,2,1.3c0.2,0,0.4,0,0.5-0.1c0.2-0.1,0.3-0.2,0.5-0.4
					c0.2-0.1,0.4-0.3,0.5-0.4c0.2-0.2,0.3-0.3,0.5-0.5c2.3-2.2,2.3-7.9,2.9-7.5c0.4,0.3,0.8,0.2,1.2-0.2c-0.3,0.1-0.5,0.1-0.7,0
					c-0.3-0.2,0-1.8,0.2-4.2c0,0-0.1,0-0.1,0c-0.4,0.3-1-3.5-3.1-5.3c-2.1-1.8-2.3-3-2.3-3c-2.1,0.2-4.2,1-7.7,3.8
					c-2.8,2.2-5.3,4.4-6.4,4.7c-0.1,0-0.2-0.1-0.3-0.2c0.2,2.4,0.5,3.9,0.2,4.1c-0.2,0.1-0.4,0.1-0.7,0c0.3,0.3,0.7,0.4,1.1,0.1
					c0.6-0.4,0.5,5.3,2.9,7.5c0.3,0.3,0.7,0.6,1.1,0.9c0.2,0.2,0.5,0.4,0.7,0.5C186.1,267.6,186.7,267.9,187.3,268.1z"/>
				<path id="XMLID_65_" class="st10" d="M179.4,249.7c0.1-2.1,2-9.6,10.8-9.6c8.8,0,10.7,7.5,10.8,9.6c0.1,1.3-0.1,2.1,0,2.6
					c0-0.5,0.1-1,0.1-1.8c0-4-1.6-8.1-4.2-8.8c-1.3-0.3-1.4-1.5-4.2-2.4c-4.4-1.3-9.5,0.5-12,4.8c-1.8,3-1.9,7.2-1.7,8.6
					C179.6,252.4,179.3,251.7,179.4,249.7z"/>
				<path id="XMLID_64_" class="st10" d="M180.5,254.2c1.1-0.3,3.6-2.5,6.4-4.7c3.5-2.8,5.6-3.6,7.7-3.8c0,0,0.2,1.2,2.3,3
					c2.1,1.8,2.7,5.5,3.1,5.3c0,0,0.1,0,0.1,0c0-0.2,0-0.5,0.1-0.8c0.2-2.9,0.2-3.8-0.1-4.9c-2.2-8-9.9-7.4-9.9-7.4
					s-7.5-0.7-9.9,7.3c-0.3,1.1-0.3,2.1-0.1,5c0,0.3,0,0.6,0.1,0.9C180.4,254.1,180.4,254.2,180.5,254.2z"/>
				<path id="XMLID_63_" class="st13" d="M180.5,258.1c0.3-0.2,0-1.7-0.2-4.1c0-0.3-0.1-0.6-0.1-0.9c-0.2-2.9-0.2-3.9,0.1-5
					c2.4-8,9.9-7.3,9.9-7.3s7.7-0.6,9.9,7.4c0.3,1,0.3,2,0.1,4.9c0,0.3,0,0.5-0.1,0.8c-0.2,2.4-0.6,4-0.2,4.2c0.2,0.1,0.5,0.1,0.7,0
					c0.2-0.1,0.4-0.2,0.6-0.3c0.3-0.3,0.6-0.6,0.7-1c-0.1,0-0.3,0.1-0.4-0.1c-0.1-0.2,0-1.2,0-1.4c0.1-0.2,0.2-0.3,0.5-0.3
					c0,0,0,0,0.1,0c0-1-0.1-1.9-0.6-2.1c-0.3-0.1-0.4-0.3-0.5-0.5c-0.1-0.5,0-1.2,0-2.6c-0.1-2.1-2-9.6-10.8-9.6
					c-8.8,0-10.7,7.5-10.8,9.6c-0.1,2,0.2,2.7-0.4,3.1c0,0-0.1,0-0.1,0.1c-0.8,0.3-0.7,2.3-0.4,3.6c0.1,0.7,0.6,1.2,1,1.5
					c0.1,0.1,0.2,0.1,0.3,0.2C180.1,258.2,180.3,258.2,180.5,258.1z"/>
				<path id="XMLID_62_" class="st14" d="M201.5,255.2c-0.1,0.2-0.1,1.2,0,1.4c0.1,0.2,0.3,0.1,0.4,0.1c0,0,0,0,0,0
					c0.1,0.1-0.1,1.3,0,1.4c0,0,0.1,0.1,0.1,0.1c-0.1,0.3-0.3,1.2-0.8,2.4c-0.3,0.7-0.6,1.4-1,2.1c-0.9,1.6-2.5,3.5-4.6,4.2
					c-0.2,0-0.3,0.1-0.5,0.1c-0.2,0-0.3,0.1-0.5,0.1c-0.1-0.4-0.4-1.3-2-1.3c-1.8,0-1.9,1.1-1.9,1.4c0,0.3,0.1,1,1.1,1.3
					c0.2,0.1,0.5,0.1,0.8,0.1c1.5,0,1.9-0.8,2-1.2c0.3,0,0.7-0.1,1-0.2c1.8-0.5,3.5-2,4.8-4.3c0.3-0.5,0.5-1,0.8-1.5
					c0.7-1.6,1.1-2.9,1.1-3.2c0,0,0,0,0.1,0c0.1-0.1,0.2-0.9,0.3-1.8c0.1-0.9-0.2-1.3-0.5-1.4c0,0,0,0-0.1,0
					C201.7,254.9,201.6,255,201.5,255.2z"/>
				<path id="XMLID_61_" class="st15" d="M188.7,284.3c-0.6-1.4-1.3-2.2-1.4-3.4c-0.5,0.6-0.8,1.2-0.7,1.7c0.2,1.9-5.4-4.6-5.9-7.7
					c-0.1,0.6-0.1,1.8,1.6,4.3c1.2,1.6,3.9,6.3,5.9,10.5c0.4-2.5,0.7-4.5,0.8-5.2C188.8,284.5,188.7,284.4,188.7,284.3z"/>
				<path id="XMLID_60_" class="st15" d="M193.9,282.6c0.1-0.6-0.3-1.2-0.7-1.7c-0.1,1.2-0.8,2-1.4,3.4c0,0.1-0.1,0.2-0.2,0.2
					c0.1,0.8,0.5,2.8,0.9,5.5c1.9-4.3,4.7-9.2,5.8-10.8c1.8-2.6,1.7-3.8,1.6-4.3C199.4,277.9,193.7,284.5,193.9,282.6z"/>
				<path id="XMLID_59_" class="st15" d="M181.5,281C181.5,281,181.5,281,181.5,281L181.5,281C181.5,281,181.5,281,181.5,281z"/>
				<path id="XMLID_58_" class="st16" d="M191.7,284.3c0.6-1.4,1.3-2.2,1.4-3.4c-1-1.3-2.8-2.5-3-3.1h0c-0.1,0.6-1.9,1.8-3,3.1
					c0.1,1.2,0.8,2,1.4,3.4c0,0.1,0.1,0.2,0.2,0.2c-0.1,0.7-0.4,2.7-0.8,5.2c1.2,2.5,2.1,4.8,2.3,6.3c0.2-1.4,1-3.6,2.1-5.9
					c-0.4-2.7-0.8-4.8-0.9-5.5C191.6,284.5,191.7,284.4,191.7,284.3z"/>
				<path id="XMLID_57_" class="st17" d="M197.5,271.4c-0.1-0.2-0.3-0.1-0.6,0.2c-0.8,0.7-2.6,2.9-6.6,6c0,0-0.1,0.1-0.1,0.1
					c0,0,0-0.1-0.1-0.1c-4-3.1-5.8-5.2-6.6-6c-0.3-0.3-0.5-0.4-0.7-0.2c-0.5,0.9-1.1,1.5-1.5,1.9c0,0,0,0,0,0s0,0,0,0
					c-0.2,0.2-0.3,0.3-0.4,0.4c-0.1,0.2-0.2,0.5-0.3,0.9c0,0.1,0,0.2-0.1,0.3c0.5,3.1,6.1,9.5,5.9,7.7c-0.1-0.6,0.3-1.2,0.7-1.7
					c1-1.3,2.8-2.5,3-3.1c0,0,0,0,0,0c0,0,0,0,0,0c0.1,0.6,1.9,1.8,3,3.1c0.5,0.6,0.8,1.2,0.7,1.7c-0.2,1.9,5.5-4.7,5.9-7.7
					c0-0.1,0-0.2-0.1-0.2c-0.1-0.4-0.2-0.6-0.3-0.8C199.1,273.4,198.3,272.7,197.5,271.4z"/>
				<path id="XMLID_56_" class="st14" d="M212.6,279.4c-0.3-0.5-7.8-3.1-10.3-4c0.2,0.3,0.5,0.6,0.7,0.9c1.1,1.9,1.1,3.1,1.9,3.7
					c0.8,0.6-5.9,1-5.9,1l4.2,3.2c0,0-4.7,5.4-7.9,7.7c-1,0.7-4.1,3.6-4.9,4.9c0.2,0.8,0.5,2.1,0.5,2.6c0,0.2,0.1,0.4,0.1,0.6
					c5.8-0.1,11.3-1.4,16.2-3.8c0.1-2.9-0.4-14.3,5.1-16.8c0.1-0.1,0.2,0.1,0.4,0.3c0,0,0,0,0,0
					C212.7,279.6,212.6,279.5,212.6,279.4z"/>
				<path id="XMLID_55_" class="st18" d="M190.3,296.8L190.3,296.8c-0.9-0.8-4.1-4.1-5.1-4.9c-3.2-2.3-7.9-7.7-7.9-7.7l4.2-3.2
					c0,0,0,0,0,0c-0.4,0-6.6-0.5-5.9-1c0.8-0.6,0.8-1.7,1.9-3.7c0.2-0.4,0.5-0.7,0.7-1c-2.5,0.9-9.8,3.4-10.2,3.9
					c5.9,0.3,5.3,13.4,5.4,16.7c5.1,2.6,10.9,4.1,17,4.1c0.2,0,0.3,0,0.5,0c0-0.2-0.1-0.4-0.1-0.6
					C190.8,298.9,190.5,297.6,190.3,296.8z"/>
				<path id="XMLID_54_" class="st19" d="M177.5,276.4c-1.1,1.9-1.1,3.1-1.9,3.7c-0.7,0.5,5.5,1,5.9,1c0,0,0,0,0,0l0,0l-4.2,3.2
					c0,0,4.7,5.4,7.9,7.7c1,0.7,4.2,4.1,5.1,4.9l0,0c0.8-1.2,3.9-4.1,4.9-4.9c3.2-2.3,7.9-7.7,7.9-7.7l-4.2-3.2c0,0,6.7-0.4,5.9-1
					c-0.8-0.6-0.8-1.7-1.9-3.7c-0.2-0.4-0.4-0.7-0.7-0.9c-0.2-0.3-0.5-0.5-0.7-0.7c-0.4-0.3-0.8-0.6-1-0.8c-0.9-0.8-1.5-0.6-1.5-0.6
					s0.3,0.1,0.5,0.5c0.1,0.2,0.2,0.4,0.3,0.8c0,0.1,0,0.1,0.1,0.2c0.1,0.6,0.2,1.8-1.6,4.3c-1.2,1.7-3.9,6.6-5.8,10.8
					c-1.1,2.4-1.9,4.6-2.1,5.9c-0.2-1.4-1.1-3.8-2.3-6.3c-2-4.2-4.7-8.9-5.9-10.5c-1.7-2.4-1.7-3.7-1.6-4.3c0-0.1,0.1-0.2,0.1-0.3
					c0.1-0.4,0.2-0.7,0.3-0.9c0.2-0.3,0.3-0.4,0.4-0.4c0,0,0,0,0,0s0,0,0,0c0,0-0.6-0.2-1.5,0.6c-0.2,0.1-0.4,0.3-0.7,0.6
					c-0.3,0.2-0.6,0.5-0.9,0.9C178,275.6,177.7,276,177.5,276.4z"/>
				<path id="XMLID_53_" class="st19" d="M168.1,279.3c-0.3,0-1.4,5.1-2.6,11.3c2.4,2.1,5.1,3.9,8,5.4
					C173.4,292.7,173.9,279.6,168.1,279.3z"/>
				<path id="XMLID_52_" class="st19" d="M212.3,279.4c-5.5,2.4-5,13.9-5.1,16.8c3-1.5,5.7-3.3,8.2-5.4c-0.9-5.3-1.9-9.8-2.6-11
					C212.6,279.5,212.4,279.3,212.3,279.4z"/>
			</g>
		</g>
	</g>
</g>
</svg>
