<?xml version="1.0" encoding="utf-8"?>
<!-- Generator: Adobe Illustrator 23.0.0, SVG Export Plug-In . SVG Version: 6.00 Build 0)  -->
<svg version="1.1" id="Capa_1" xmlns="http://www.w3.org/2000/svg" xmlns:xlink="http://www.w3.org/1999/xlink" x="0px" y="0px"
	 viewBox="0 0 500 500" style="enable-background:new 0 0 500 500;" xml:space="preserve">
<style type="text/css">
	.st0{fill:#0C2D44;}
	.st1{fill:#2C83AF;}
	.st2{fill:#FFFFFF;}
	.st3{fill:#00791D;}
	.st4{fill:#00D13C;}
	.st5{fill:#F2F2F2;}
	.st6{fill:#727272;}
	.st7{fill:#A3A3A3;}
	.st8{fill:#BCBCBC;}
	.st9{fill:none;}
	.st10{fill:#866A5E;}
	.st11{fill:#F7DDCB;}
	.st12{fill:#FFE6D4;}
	.st13{fill:#2D2D2D;}
	.st14{fill:#1C1B1A;}
	.st15{fill:#F5F5F5;}
	.st16{fill:#77181C;}
	.st17{fill:#EAEAEA;}
	.st18{fill:#262525;}
	.st19{fill:#11100F;}
	.st20{fill:#CCCDCE;}
	.st21{fill:#DFDFDF;}
	.st22{fill:#C2C2C2;}
	.st23{fill:#0085B0;}
	.st24{fill:#2A5936;}
	.st25{fill:#CD7054;}
	.st26{fill:#F1CC4B;}
	.st27{fill:#22272F;}
	.st28{fill:#1B2538;}
	.st29{fill:#253452;}
	.st30{fill:#F9F9F9;}
	.st31{fill:#2D3543;}
	.st32{fill:#2A3D60;}
	.st33{fill:#ACACAC;}
	.st34{fill:#6C92D5;}
	.st35{fill:#587955;}
	.st36{fill:#DAA449;}
	.st37{fill:#D4D4D4;}
	.st38{fill:#85B681;}
	.st39{fill:#A1DC9B;}
	.st40{fill:#90C58B;}
	.st41{fill:#81C378;}
	.st42{opacity:0.5;}
	.st43{fill:#A2CADE;}
	.st44{fill:#9BAEC9;}
	.st45{fill:#9D2B3B;}
	.st46{fill:#C1D4F2;}
	.st47{fill:#534D46;}
	.st48{fill:#191819;}
	.st49{fill:#222123;}
	.st50{fill:#F3FF00;}
	.st51{fill:none;stroke:#5A605A;stroke-width:4;stroke-miterlimit:10;}
	.st52{fill:#505050;}
	.st53{fill:#FFB412;}
	.st54{fill:#53C2C9;}
	.st55{fill:#008B9C;}
	.st56{fill:none;stroke:#00550B;stroke-width:4;stroke-miterlimit:10;}
</style>
<g>
	<circle class="st0" cx="258.5" cy="144.1" r="112"/>
	<circle class="st0" cx="147" cy="299.1" r="111.9"/>
	<circle class="st0" cx="332" cy="339.4" r="112"/>
</g>
<g>
	<circle class="st1" cx="254.4" cy="268.1" r="161.6"/>
</g>
<g>
	<path class="st2" d="M166.8,329.6c-0.2-0.2-0.3-0.6-0.3-1.1v-14.2c0-0.5,0.1-0.8,0.3-1.1c0.2-0.2,0.6-0.3,1.2-0.3h6
		c2.5,0,4.3,0.5,5.5,1.5s1.7,2.5,1.7,4.5s-0.6,3.5-1.7,4.5c-1.1,1-3,1.5-5.4,1.5h-1.5v3.7c0,0.5-0.1,0.8-0.3,1.1
		c-0.2,0.2-0.6,0.3-1.2,0.3h-3C167.4,329.9,167,329.8,166.8,329.6z M173.4,320.6c0.5,0,1-0.1,1.3-0.4c0.3-0.3,0.5-0.7,0.5-1.3
		c0-0.6-0.2-1-0.5-1.3c-0.3-0.3-0.7-0.4-1.3-0.4h-1.7v3.4H173.4z"/>
	<path class="st2" d="M182.2,329.6c-0.2-0.2-0.3-0.6-0.3-1.1v-14.2c0-0.5,0.1-0.8,0.3-1.1c0.2-0.2,0.6-0.3,1.2-0.3h6
		c2.5,0,4.3,0.5,5.5,1.5s1.7,2.5,1.7,4.5c0,1.2-0.2,2.2-0.6,3c-0.4,0.8-1,1.5-1.9,1.9l2.3,5c0.1,0.1,0.1,0.3,0.1,0.4
		c0,0.2-0.1,0.3-0.2,0.5c-0.1,0.1-0.3,0.2-0.5,0.2h-4.2c-0.3,0-0.5,0-0.6-0.1c-0.2-0.1-0.3-0.2-0.3-0.4l-1.9-4.7h-0.9v3.7
		c0,0.5-0.1,0.8-0.3,1.1c-0.2,0.2-0.6,0.3-1.2,0.3h-3C182.8,329.9,182.4,329.8,182.2,329.6z M188.8,320.6c0.5,0,1-0.1,1.3-0.4
		c0.3-0.3,0.5-0.7,0.5-1.3c0-0.6-0.2-1-0.5-1.3c-0.3-0.3-0.7-0.4-1.3-0.4h-1.7v3.4H188.8z"/>
	<path class="st2" d="M199.6,328c-1.5-1.5-2.3-3.7-2.3-6.6c0-2.8,0.8-5,2.3-6.6c1.5-1.5,3.8-2.3,6.8-2.3s5.2,0.8,6.8,2.3
		c1.5,1.5,2.3,3.7,2.3,6.6c0,2.8-0.8,5-2.3,6.6c-1.5,1.5-3.8,2.3-6.8,2.3S201.1,329.5,199.6,328z M208.7,324.9
		c0.5-0.8,0.7-1.9,0.7-3.5c0-1.6-0.2-2.8-0.7-3.5c-0.5-0.8-1.3-1.1-2.4-1.1s-1.9,0.4-2.3,1.1c-0.5,0.8-0.7,1.9-0.7,3.5
		c0,1.6,0.2,2.7,0.7,3.5c0.5,0.8,1.3,1.2,2.3,1.2S208.2,325.7,208.7,324.9z"/>
	<path class="st2" d="M216.1,329.6c-0.2-0.2-0.3-0.6-0.3-1.1v-14.2c0-0.5,0.1-0.8,0.3-1.1s0.6-0.3,1.2-0.3h2.9c0.4,0,0.7,0,0.9,0.1
		c0.2,0.1,0.4,0.3,0.5,0.5l2.9,7.3l2.9-7.3c0.1-0.3,0.3-0.4,0.5-0.5c0.2-0.1,0.5-0.1,0.9-0.1h2.9c0.6,0,1,0.1,1.2,0.3
		s0.3,0.6,0.3,1.1v14.2c0,0.5-0.1,0.8-0.3,1.1c-0.2,0.2-0.6,0.3-1.2,0.3h-2.4c-0.5,0-0.9-0.1-1.2-0.3c-0.2-0.2-0.4-0.6-0.4-1.1v-6.8
		l-1.5,3.4c-0.2,0.5-0.4,0.8-0.6,1c-0.2,0.2-0.6,0.3-1.1,0.3c-0.5,0-0.9-0.1-1.2-0.3c-0.2-0.2-0.4-0.6-0.6-1l-1.5-3.4v6.8
		c0,0.5-0.1,0.8-0.3,1.1c-0.2,0.2-0.6,0.3-1.2,0.3h-2.4C216.7,329.9,216.3,329.8,216.1,329.6z"/>
	<path class="st2" d="M235.8,328c-1.5-1.5-2.3-3.7-2.3-6.6c0-2.8,0.8-5,2.3-6.6c1.5-1.5,3.8-2.3,6.8-2.3s5.2,0.8,6.8,2.3
		c1.5,1.5,2.3,3.7,2.3,6.6c0,2.8-0.8,5-2.3,6.6c-1.5,1.5-3.8,2.3-6.8,2.3S237.3,329.5,235.8,328z M244.9,324.9
		c0.5-0.8,0.7-1.9,0.7-3.5c0-1.6-0.2-2.8-0.7-3.5c-0.5-0.8-1.3-1.1-2.4-1.1s-1.9,0.4-2.3,1.1c-0.5,0.8-0.7,1.9-0.7,3.5
		c0,1.6,0.2,2.7,0.7,3.5c0.5,0.8,1.3,1.2,2.3,1.2S244.4,325.7,244.9,324.9z"/>
	<path class="st2" d="M254.3,328.1c-1.7-1.5-2.5-3.7-2.5-6.6c0-2.9,0.8-5.2,2.4-6.7c1.6-1.5,3.9-2.2,7-2.2c1.4,0,2.6,0.1,3.6,0.4
		c1.1,0.3,2,0.6,2.7,1.1c0.2,0.2,0.3,0.3,0.3,0.5c0,0.2-0.1,0.4-0.2,0.6l-1.3,2.2c-0.1,0.2-0.3,0.3-0.5,0.3c-0.1,0-0.3-0.1-0.6-0.2
		c-0.5-0.2-1-0.4-1.5-0.6c-0.5-0.1-1.1-0.2-1.8-0.2c-1.4,0-2.4,0.4-3.2,1.2c-0.7,0.8-1.1,2-1.1,3.5c0,1.5,0.4,2.7,1.2,3.5
		c0.8,0.8,1.9,1.2,3.3,1.2c1.2,0,2.3-0.3,3.3-0.8c0.3-0.1,0.5-0.2,0.6-0.2c0.2,0,0.3,0.1,0.5,0.4l1.3,2.1c0.2,0.3,0.2,0.5,0.2,0.6
		c0,0.2-0.1,0.4-0.3,0.5c-0.7,0.5-1.6,0.9-2.7,1.1c-1.1,0.3-2.3,0.4-3.7,0.4C258.3,330.3,255.9,329.6,254.3,328.1z"/>
	<path class="st2" d="M269.6,329.6c-0.2-0.2-0.3-0.6-0.3-1.1v-14.2c0-0.5,0.1-0.8,0.3-1.1c0.2-0.2,0.6-0.3,1.2-0.3h3
		c0.6,0,1,0.1,1.2,0.3s0.3,0.6,0.3,1.1v14.2c0,0.5-0.1,0.8-0.3,1.1c-0.2,0.2-0.6,0.3-1.2,0.3h-3
		C270.2,329.9,269.8,329.8,269.6,329.6z"/>
	<path class="st2" d="M278.8,328c-1.5-1.5-2.3-3.7-2.3-6.6c0-2.8,0.8-5,2.3-6.6c1.5-1.5,3.8-2.3,6.8-2.3s5.2,0.8,6.8,2.3
		c1.5,1.5,2.3,3.7,2.3,6.6c0,2.8-0.8,5-2.3,6.6c-1.5,1.5-3.8,2.3-6.8,2.3S280.3,329.5,278.8,328z M287.9,324.9
		c0.5-0.8,0.7-1.9,0.7-3.5c0-1.6-0.2-2.8-0.7-3.5c-0.5-0.8-1.3-1.1-2.4-1.1s-1.9,0.4-2.3,1.1c-0.5,0.8-0.7,1.9-0.7,3.5
		c0,1.6,0.2,2.7,0.7,3.5c0.5,0.8,1.3,1.2,2.3,1.2S287.4,325.7,287.9,324.9z"/>
	<path class="st2" d="M296.2,329.6c-0.2-0.2-0.3-0.6-0.3-1.1v-14.2c0-0.5,0.1-0.8,0.3-1.1s0.6-0.3,1.2-0.3h2.4c0.4,0,0.6,0,0.8,0.1
		c0.2,0.1,0.4,0.3,0.6,0.5l4.5,6.7v-6c0-0.5,0.1-0.8,0.3-1.1c0.2-0.2,0.6-0.3,1.2-0.3h3c0.6,0,1,0.1,1.2,0.3s0.3,0.6,0.3,1.1v14.2
		c0,0.5-0.1,0.8-0.3,1.1c-0.2,0.2-0.6,0.3-1.2,0.3h-2.4c-0.4,0-0.6,0-0.8-0.1c-0.2-0.1-0.4-0.3-0.6-0.5l-4.5-6.7v6
		c0,0.5-0.1,0.8-0.3,1.1c-0.2,0.2-0.6,0.3-1.2,0.3h-3C296.8,329.9,296.4,329.8,296.2,329.6z"/>
	<path class="st2" d="M313.7,329.6c-0.2-0.2-0.3-0.6-0.3-1.1v-14.2c0-0.5,0.1-0.8,0.3-1.1c0.2-0.2,0.6-0.3,1.2-0.3h10.4
		c0.5,0,0.9,0.1,1.1,0.3c0.2,0.2,0.3,0.6,0.3,1.1v1.4c0,0.5-0.1,0.9-0.3,1.1c-0.2,0.2-0.6,0.3-1.1,0.3h-5.9v2.2h3.6
		c0.5,0,0.9,0.1,1.1,0.3c0.2,0.2,0.3,0.6,0.3,1.1v1.3c0,0.5-0.1,0.9-0.3,1.1c-0.2,0.2-0.6,0.3-1.1,0.3h-3.6v2.2h5.8
		c0.5,0,0.9,0.1,1.1,0.3c0.2,0.2,0.3,0.6,0.3,1.1v1.4c0,0.5-0.1,0.9-0.3,1.1c-0.2,0.2-0.6,0.3-1.1,0.3h-10.3
		C314.4,329.9,314,329.8,313.7,329.6z"/>
	<path class="st2" d="M330.9,329.8c-1.3-0.3-2.3-0.8-3.1-1.3c-0.3-0.2-0.5-0.5-0.5-0.7c0-0.2,0.1-0.3,0.2-0.5l1.4-2.3
		c0.1-0.2,0.3-0.3,0.5-0.3c0.1,0,0.3,0.1,0.5,0.2c0.6,0.4,1.3,0.7,2.1,0.9c0.8,0.2,1.5,0.3,2.3,0.3c0.6,0,1.1-0.1,1.3-0.3
		c0.3-0.2,0.4-0.4,0.4-0.8c0-0.4-0.2-0.7-0.5-0.9c-0.4-0.2-1-0.5-1.9-0.9c-1.7-0.6-3-1.4-4-2.2c-1-0.8-1.5-1.9-1.5-3.3
		c0-1.7,0.6-3,1.8-3.9s2.8-1.3,4.9-1.3c1.4,0,2.7,0.1,3.7,0.4c1,0.3,1.9,0.6,2.6,1.2c0.3,0.2,0.5,0.5,0.5,0.7c0,0.2-0.1,0.3-0.2,0.5
		l-1.5,2.3c-0.1,0.2-0.3,0.4-0.4,0.4c-0.1,0-0.3-0.1-0.5-0.2c-0.4-0.3-0.9-0.5-1.4-0.7c-0.5-0.2-1.1-0.3-1.8-0.3
		c-0.6,0-1,0.1-1.3,0.3c-0.3,0.2-0.5,0.4-0.5,0.8c0,0.3,0.1,0.6,0.3,0.8c0.2,0.2,0.5,0.4,0.8,0.5c0.3,0.1,0.9,0.4,1.6,0.7
		c1.3,0.5,2.2,1,3,1.4c0.7,0.5,1.3,1,1.6,1.6c0.4,0.6,0.5,1.5,0.5,2.4c0,1.5-0.6,2.7-1.7,3.6c-1.1,0.9-2.8,1.4-5,1.4
		C333.6,330.3,332.2,330.1,330.9,329.8z"/>
	<path class="st2" d="M173.9,359.6c-0.2-0.2-0.3-0.6-0.3-1.1V354l-5.8-10c-0.1-0.2-0.1-0.4-0.1-0.5c0-0.4,0.2-0.6,0.6-0.6h4.7
		c0.3,0,0.4,0.1,0.6,0.2c0.1,0.1,0.3,0.3,0.4,0.5l2.7,4.9l2.7-4.9c0.1-0.2,0.3-0.4,0.4-0.5c0.1-0.1,0.3-0.2,0.6-0.2h4.7
		c0.4,0,0.6,0.2,0.6,0.6c0,0.2-0.1,0.3-0.1,0.5l-5.8,10v4.5c0,0.5-0.1,0.8-0.3,1.1c-0.2,0.2-0.6,0.3-1.2,0.3h-3
		C174.6,359.9,174.2,359.8,173.9,359.6z"/>
	<path class="st2" d="M196.2,358c-1.5-1.5-2.3-3.7-2.3-6.6c0-2.8,0.8-5,2.3-6.6c1.5-1.5,3.8-2.3,6.8-2.3s5.2,0.8,6.8,2.3
		c1.5,1.5,2.3,3.7,2.3,6.6c0,2.8-0.8,5-2.3,6.6c-1.5,1.5-3.8,2.3-6.8,2.3S197.7,359.5,196.2,358z M205.3,354.9
		c0.5-0.8,0.7-1.9,0.7-3.5c0-1.6-0.2-2.8-0.7-3.5c-0.5-0.8-1.3-1.1-2.4-1.1s-1.9,0.4-2.3,1.1c-0.5,0.8-0.7,1.9-0.7,3.5
		c0,1.6,0.2,2.7,0.7,3.5c0.5,0.8,1.3,1.2,2.3,1.2S204.8,355.7,205.3,354.9z"/>
	<path class="st2" d="M213.5,359.6c-0.2-0.2-0.3-0.6-0.3-1.1v-14.2c0-0.5,0.1-0.8,0.3-1.1c0.2-0.2,0.6-0.3,1.2-0.3h10.4
		c0.5,0,0.9,0.1,1.1,0.3c0.2,0.2,0.3,0.6,0.3,1.1v1.4c0,0.5-0.1,0.9-0.3,1.1c-0.2,0.2-0.6,0.3-1.1,0.3h-5.9v2.1h3.6
		c0.5,0,0.9,0.1,1.1,0.3c0.2,0.2,0.3,0.6,0.3,1.1v1.4c0,0.5-0.1,0.9-0.3,1.1c-0.2,0.2-0.6,0.3-1.1,0.3h-3.6v5c0,0.5-0.1,0.8-0.3,1.1
		c-0.2,0.2-0.6,0.3-1.2,0.3h-3C214.2,359.9,213.8,359.8,213.5,359.6z"/>
	<path class="st2" d="M227.6,359.6c-0.2-0.2-0.3-0.6-0.3-1.1v-14.2c0-0.5,0.1-0.8,0.3-1.1c0.2-0.2,0.6-0.3,1.2-0.3h10.4
		c0.5,0,0.9,0.1,1.1,0.3c0.2,0.2,0.3,0.6,0.3,1.1v1.4c0,0.5-0.1,0.9-0.3,1.1c-0.2,0.2-0.6,0.3-1.1,0.3h-5.9v2.2h3.6
		c0.5,0,0.9,0.1,1.1,0.3c0.2,0.2,0.3,0.6,0.3,1.1v1.3c0,0.5-0.1,0.9-0.3,1.1c-0.2,0.2-0.6,0.3-1.1,0.3h-3.6v2.2h5.8
		c0.5,0,0.9,0.1,1.1,0.3c0.2,0.2,0.3,0.6,0.3,1.1v1.4c0,0.5-0.1,0.9-0.3,1.1c-0.2,0.2-0.6,0.3-1.1,0.3h-10.3
		C228.3,359.9,227.9,359.8,227.6,359.6z"/>
	<path class="st2" d="M242,359.6c-0.2-0.2-0.3-0.6-0.3-1.1v-14.2c0-0.5,0.1-0.8,0.3-1.1c0.2-0.2,0.6-0.3,1.2-0.3h6
		c2.5,0,4.3,0.5,5.5,1.5s1.7,2.5,1.7,4.5c0,1.2-0.2,2.2-0.6,3c-0.4,0.8-1,1.5-1.9,1.9l2.3,5c0.1,0.1,0.1,0.3,0.1,0.4
		c0,0.2-0.1,0.3-0.2,0.5c-0.1,0.1-0.3,0.2-0.5,0.2h-4.2c-0.3,0-0.5,0-0.6-0.1c-0.2-0.1-0.3-0.2-0.3-0.4l-1.9-4.7h-0.9v3.7
		c0,0.5-0.1,0.8-0.3,1.1c-0.2,0.2-0.6,0.3-1.2,0.3h-3C242.6,359.9,242.2,359.8,242,359.6z M248.6,350.6c0.5,0,1-0.1,1.3-0.4
		c0.3-0.3,0.5-0.7,0.5-1.3c0-0.6-0.2-1-0.5-1.3c-0.3-0.3-0.7-0.4-1.3-0.4h-1.7v3.4H248.6z"/>
	<path class="st2" d="M261,359.6c-0.2-0.2-0.3-0.6-0.3-1.1v-11.3h-3.6c-0.5,0-0.9-0.1-1.1-0.3c-0.2-0.2-0.3-0.6-0.3-1.1v-1.4
		c0-0.5,0.1-0.9,0.3-1.1s0.6-0.3,1.1-0.3h13.2c0.5,0,0.9,0.1,1.1,0.3c0.2,0.2,0.3,0.6,0.3,1.1v1.4c0,0.5-0.1,0.9-0.3,1.1
		c-0.2,0.2-0.6,0.3-1.1,0.3h-3.6v11.3c0,0.5-0.1,0.8-0.3,1.1c-0.2,0.2-0.6,0.3-1.2,0.3h-3C261.6,359.9,261.2,359.8,261,359.6z"/>
	<path class="st2" d="M268.8,359.4c0-0.1,0-0.3,0.1-0.5l6.2-15c0.1-0.4,0.3-0.6,0.5-0.7c0.2-0.1,0.5-0.2,0.8-0.2h2.7
		c0.4,0,0.6,0.1,0.8,0.2c0.2,0.1,0.4,0.4,0.5,0.7l6.2,15c0.1,0.2,0.1,0.4,0.1,0.5c0,0.4-0.2,0.5-0.5,0.5h-4.7c-0.5,0-0.8-0.2-1-0.7
		l-0.6-1.9h-4.4l-0.6,1.9c-0.1,0.4-0.5,0.7-1,0.7h-4.7C268.9,359.9,268.8,359.8,268.8,359.4z M278.8,353.5l-1-3.1l-1,3.1H278.8z"/>
	<path class="st2" d="M290.1,359.8c-1.3-0.3-2.3-0.8-3.1-1.3c-0.3-0.2-0.5-0.5-0.5-0.7c0-0.2,0.1-0.3,0.2-0.5l1.4-2.3
		c0.1-0.2,0.3-0.3,0.5-0.3c0.1,0,0.3,0.1,0.5,0.2c0.6,0.4,1.3,0.7,2.1,0.9c0.8,0.2,1.5,0.3,2.3,0.3c0.6,0,1.1-0.1,1.3-0.3
		c0.3-0.2,0.4-0.4,0.4-0.8c0-0.4-0.2-0.7-0.5-0.9c-0.4-0.2-1-0.5-1.9-0.9c-1.7-0.6-3-1.4-4-2.2c-1-0.8-1.5-1.9-1.5-3.3
		c0-1.7,0.6-3,1.8-3.9s2.8-1.3,4.9-1.3c1.4,0,2.7,0.1,3.7,0.4c1,0.3,1.9,0.6,2.6,1.2c0.3,0.2,0.5,0.5,0.5,0.7c0,0.2-0.1,0.3-0.2,0.5
		l-1.5,2.3c-0.1,0.2-0.3,0.4-0.4,0.4c-0.1,0-0.3-0.1-0.5-0.2c-0.4-0.3-0.9-0.5-1.4-0.7c-0.5-0.2-1.1-0.3-1.8-0.3
		c-0.6,0-1,0.1-1.3,0.3c-0.3,0.2-0.5,0.4-0.5,0.8c0,0.3,0.1,0.6,0.3,0.8c0.2,0.2,0.5,0.4,0.8,0.5c0.3,0.1,0.9,0.4,1.6,0.7
		c1.3,0.5,2.2,1,3,1.4c0.7,0.5,1.3,1,1.6,1.6c0.4,0.6,0.5,1.5,0.5,2.4c0,1.5-0.6,2.7-1.7,3.6c-1.1,0.9-2.8,1.4-5,1.4
		C292.8,360.3,291.4,360.1,290.1,359.8z"/>
	<path class="st2" d="M310.1,359.6c-0.2-0.2-0.3-0.6-0.3-1.1v-14.2c0-0.5,0.1-0.8,0.3-1.1c0.2-0.2,0.6-0.3,1.2-0.3h5.8
		c5.9,0,8.8,2.8,8.8,8.5c0,2.8-0.8,4.9-2.3,6.3c-1.5,1.4-3.7,2.2-6.6,2.2h-5.8C310.8,359.9,310.4,359.8,310.1,359.6z M317.3,355.7
		c0.9,0,1.6-0.3,2-0.9c0.4-0.6,0.6-1.7,0.6-3.3s-0.2-2.7-0.6-3.3s-1.1-0.9-2-0.9h-1.5v8.5H317.3z"/>
	<path class="st2" d="M327.5,359.6c-0.2-0.2-0.3-0.6-0.3-1.1v-14.2c0-0.5,0.1-0.8,0.3-1.1c0.2-0.2,0.6-0.3,1.2-0.3H339
		c0.5,0,0.9,0.1,1.1,0.3c0.2,0.2,0.3,0.6,0.3,1.1v1.4c0,0.5-0.1,0.9-0.3,1.1c-0.2,0.2-0.6,0.3-1.1,0.3h-5.9v2.2h3.6
		c0.5,0,0.9,0.1,1.1,0.3c0.2,0.2,0.3,0.6,0.3,1.1v1.3c0,0.5-0.1,0.9-0.3,1.1c-0.2,0.2-0.6,0.3-1.1,0.3h-3.6v2.2h5.8
		c0.5,0,0.9,0.1,1.1,0.3c0.2,0.2,0.3,0.6,0.3,1.1v1.4c0,0.5-0.1,0.9-0.3,1.1c-0.2,0.2-0.6,0.3-1.1,0.3h-10.3
		C328.1,359.9,327.7,359.8,327.5,359.6z"/>
	<path class="st2" d="M180.4,389.6c-0.2-0.2-0.3-0.6-0.3-1.1v-14.2c0-0.5,0.1-0.8,0.3-1.1c0.2-0.2,0.6-0.3,1.2-0.3h6
		c2.5,0,4.3,0.5,5.5,1.5s1.7,2.5,1.7,4.5s-0.6,3.5-1.7,4.5c-1.1,1-3,1.5-5.4,1.5h-1.5v3.7c0,0.5-0.1,0.8-0.3,1.1
		c-0.2,0.2-0.6,0.3-1.2,0.3h-3C181,389.9,180.6,389.8,180.4,389.6z M187,380.6c0.5,0,1-0.1,1.3-0.4c0.3-0.3,0.5-0.7,0.5-1.3
		c0-0.6-0.2-1-0.5-1.3c-0.3-0.3-0.7-0.4-1.3-0.4h-1.7v3.4H187z"/>
	<path class="st2" d="M195.8,389.6c-0.2-0.2-0.3-0.6-0.3-1.1v-14.2c0-0.5,0.1-0.8,0.3-1.1c0.2-0.2,0.6-0.3,1.2-0.3h6
		c2.5,0,4.3,0.5,5.5,1.5s1.7,2.5,1.7,4.5c0,1.2-0.2,2.2-0.6,3c-0.4,0.8-1,1.5-1.9,1.9l2.3,5c0.1,0.1,0.1,0.3,0.1,0.4
		c0,0.2-0.1,0.3-0.2,0.5c-0.1,0.1-0.3,0.2-0.5,0.2h-4.2c-0.3,0-0.5,0-0.6-0.1c-0.2-0.1-0.3-0.2-0.3-0.4l-1.9-4.7h-0.9v3.7
		c0,0.5-0.1,0.8-0.3,1.1c-0.2,0.2-0.6,0.3-1.2,0.3h-3C196.4,389.9,196,389.8,195.8,389.6z M202.4,380.6c0.5,0,1-0.1,1.3-0.4
		c0.3-0.3,0.5-0.7,0.5-1.3c0-0.6-0.2-1-0.5-1.3c-0.3-0.3-0.7-0.4-1.3-0.4h-1.7v3.4H202.4z"/>
	<path class="st2" d="M213.2,388c-1.5-1.5-2.3-3.7-2.3-6.6c0-2.8,0.8-5,2.3-6.6c1.5-1.5,3.8-2.3,6.8-2.3s5.2,0.8,6.8,2.3
		c1.5,1.5,2.3,3.7,2.3,6.6c0,2.8-0.8,5-2.3,6.6c-1.5,1.5-3.8,2.3-6.8,2.3S214.7,389.5,213.2,388z M222.3,384.9
		c0.5-0.8,0.7-1.9,0.7-3.5c0-1.6-0.2-2.8-0.7-3.5c-0.5-0.8-1.3-1.1-2.4-1.1s-1.9,0.4-2.3,1.1c-0.5,0.8-0.7,1.9-0.7,3.5
		c0,1.6,0.2,2.7,0.7,3.5c0.5,0.8,1.3,1.2,2.3,1.2S221.8,385.7,222.3,384.9z"/>
	<path class="st2" d="M230.6,389.6c-0.2-0.2-0.3-0.6-0.3-1.1v-14.2c0-0.5,0.1-0.8,0.3-1.1c0.2-0.2,0.6-0.3,1.2-0.3h5.8
		c5.9,0,8.8,2.8,8.8,8.5c0,2.8-0.8,4.9-2.3,6.3c-1.5,1.4-3.7,2.2-6.6,2.2h-5.8C231.2,389.9,230.8,389.8,230.6,389.6z M237.7,385.7
		c0.9,0,1.6-0.3,2-0.9c0.4-0.6,0.6-1.7,0.6-3.3s-0.2-2.7-0.6-3.3s-1.1-0.9-2-0.9h-1.5v8.5H237.7z"/>
	<path class="st2" d="M251.3,389.5c-1.2-0.5-2.2-1.3-2.9-2.3c-0.7-1-1-2.2-1-3.5v-9.3c0-0.5,0.1-0.8,0.3-1.1
		c0.2-0.2,0.6-0.3,1.2-0.3h3c0.6,0,1,0.1,1.2,0.3s0.3,0.6,0.3,1.1v9.4c0,0.8,0.2,1.4,0.6,1.8c0.4,0.4,0.9,0.6,1.6,0.6
		c0.7,0,1.2-0.2,1.6-0.6c0.4-0.4,0.6-1,0.6-1.8v-9.4c0-0.5,0.1-0.8,0.3-1.1c0.2-0.2,0.6-0.3,1.2-0.3h3c0.6,0,1,0.1,1.2,0.3
		s0.3,0.6,0.3,1.1v9.3c0,1.4-0.3,2.5-1,3.5c-0.7,1-1.6,1.8-2.9,2.3s-2.7,0.8-4.3,0.8C254,390.3,252.5,390,251.3,389.5z"/>
	<path class="st2" d="M267.5,388.1c-1.7-1.5-2.5-3.7-2.5-6.6c0-2.9,0.8-5.2,2.4-6.7c1.6-1.5,3.9-2.2,7-2.2c1.4,0,2.6,0.1,3.6,0.4
		c1.1,0.3,2,0.6,2.7,1.1c0.2,0.2,0.3,0.3,0.3,0.5c0,0.2-0.1,0.4-0.2,0.6l-1.3,2.2c-0.1,0.2-0.3,0.3-0.5,0.3c-0.1,0-0.3-0.1-0.6-0.2
		c-0.5-0.2-1-0.4-1.5-0.6c-0.5-0.1-1.1-0.2-1.8-0.2c-1.4,0-2.4,0.4-3.2,1.2c-0.7,0.8-1.1,2-1.1,3.5c0,1.5,0.4,2.7,1.2,3.5
		c0.8,0.8,1.9,1.2,3.3,1.2c1.2,0,2.3-0.3,3.3-0.8c0.3-0.1,0.5-0.2,0.6-0.2c0.2,0,0.3,0.1,0.5,0.4l1.3,2.1c0.2,0.3,0.2,0.5,0.2,0.6
		c0,0.2-0.1,0.4-0.3,0.5c-0.7,0.5-1.6,0.9-2.7,1.1c-1.1,0.3-2.3,0.4-3.7,0.4C271.5,390.3,269.1,389.6,267.5,388.1z"/>
	<path class="st2" d="M286.2,389.6c-0.2-0.2-0.3-0.6-0.3-1.1v-11.3h-3.6c-0.5,0-0.9-0.1-1.1-0.3c-0.2-0.2-0.3-0.6-0.3-1.1v-1.4
		c0-0.5,0.1-0.9,0.3-1.1s0.6-0.3,1.1-0.3h13.2c0.5,0,0.9,0.1,1.1,0.3c0.2,0.2,0.3,0.6,0.3,1.1v1.4c0,0.5-0.1,0.9-0.3,1.1
		c-0.2,0.2-0.6,0.3-1.1,0.3h-3.6v11.3c0,0.5-0.1,0.8-0.3,1.1c-0.2,0.2-0.6,0.3-1.2,0.3h-3C286.8,389.9,286.4,389.8,286.2,389.6z"/>
	<path class="st2" d="M298.2,388c-1.5-1.5-2.3-3.7-2.3-6.6c0-2.8,0.8-5,2.3-6.6c1.5-1.5,3.8-2.3,6.8-2.3s5.2,0.8,6.8,2.3
		c1.5,1.5,2.3,3.7,2.3,6.6c0,2.8-0.8,5-2.3,6.6c-1.5,1.5-3.8,2.3-6.8,2.3S299.7,389.5,298.2,388z M307.3,384.9
		c0.5-0.8,0.7-1.9,0.7-3.5c0-1.6-0.2-2.8-0.7-3.5c-0.5-0.8-1.3-1.1-2.4-1.1s-1.9,0.4-2.3,1.1c-0.5,0.8-0.7,1.9-0.7,3.5
		c0,1.6,0.2,2.7,0.7,3.5c0.5,0.8,1.3,1.2,2.3,1.2S306.8,385.7,307.3,384.9z"/>
	<path class="st2" d="M317.3,389.8c-1.3-0.3-2.3-0.8-3.1-1.3c-0.3-0.2-0.5-0.5-0.5-0.7c0-0.2,0.1-0.3,0.2-0.5l1.4-2.3
		c0.1-0.2,0.3-0.3,0.5-0.3c0.1,0,0.3,0.1,0.5,0.2c0.6,0.4,1.3,0.7,2.1,0.9c0.8,0.2,1.5,0.3,2.3,0.3c0.6,0,1.1-0.1,1.3-0.3
		c0.3-0.2,0.4-0.4,0.4-0.8c0-0.4-0.2-0.7-0.5-0.9c-0.4-0.2-1-0.5-1.9-0.9c-1.7-0.6-3-1.4-4-2.2c-1-0.8-1.5-1.9-1.5-3.3
		c0-1.7,0.6-3,1.8-3.9s2.8-1.3,4.9-1.3c1.4,0,2.7,0.1,3.7,0.4c1,0.3,1.9,0.6,2.6,1.2c0.3,0.2,0.5,0.5,0.5,0.7c0,0.2-0.1,0.3-0.2,0.5
		l-1.5,2.3c-0.1,0.2-0.3,0.4-0.4,0.4c-0.1,0-0.3-0.1-0.5-0.2c-0.4-0.3-0.9-0.5-1.4-0.7c-0.5-0.2-1.1-0.3-1.8-0.3
		c-0.6,0-1,0.1-1.3,0.3c-0.3,0.2-0.5,0.4-0.5,0.8c0,0.3,0.1,0.6,0.3,0.8c0.2,0.2,0.5,0.4,0.8,0.5c0.3,0.1,0.9,0.4,1.6,0.7
		c1.3,0.5,2.2,1,3,1.4c0.7,0.5,1.3,1,1.6,1.6c0.4,0.6,0.5,1.5,0.5,2.4c0,1.5-0.6,2.7-1.7,3.6c-1.1,0.9-2.8,1.4-5,1.4
		C320,390.3,318.6,390.1,317.3,389.8z"/>
</g>
<circle class="st5" cx="249.5" cy="213.4" r="89.5"/>
<g>
	<ellipse transform="matrix(0.9636 -0.2672 0.2672 0.9636 -46.408 73.3417)" class="st6" cx="246.3" cy="207.2" rx="8" ry="7.8"/>
	
		<ellipse transform="matrix(0.9636 -0.2672 0.2672 0.9636 -52.82 60.3375)" class="st0" cx="195.3" cy="224.3" rx="16.2" ry="15.9"/>
	<polygon class="st0" points="236.7,180.3 213.8,201.1 222.7,233.3 253,239.3 	"/>
	
		<rect x="201.5" y="204.3" transform="matrix(0.9636 -0.2672 0.2672 0.9636 -50.8136 64.0468)" class="st7" width="16.8" height="29"/>
	<path class="st7" d="M224.8,265.5l-3.5,1c-3.5,1-7.1-1.1-8.1-4.6l-7-25.3c-1-3.5,1.1-7.1,4.6-8.1l3.5-1c3.5-1,7.1,1.1,8.1,4.6
		l7,25.3C230.3,260.9,228.3,264.6,224.8,265.5z"/>
	<g>
		<path class="st8" d="M309.9,199.3l-26.8,8.2c-3.2,1-6.6-0.8-7.6-4l-1-3.2c-1-3.2,0.8-6.6,4-7.6l26.8-8.2c3.2-1,6.6,0.8,7.6,4
			l1,3.2C314.9,194.9,313.1,198.4,309.9,199.3z"/>
		<path class="st8" d="M294.3,164.2l-21.8,17.6c-2.6,2.1-6.5,1.7-8.6-0.9l-2.1-2.6c-2.1-2.6-1.7-6.5,0.9-8.6l21.8-17.6
			c2.6-2.1,6.5-1.7,8.6,0.9l2.1,2.6C297.3,158.2,296.9,162.1,294.3,164.2z"/>
		<path class="st8" d="M284,236.6l27.9,2.3c3.3,0.3,6.3-2.2,6.6-5.6l0.3-3.4c0.3-3.3-2.2-6.3-5.6-6.6l-27.9-2.3
			c-3.3-0.3-6.3,2.2-6.6,5.6l-0.3,3.4C278.1,233.3,280.6,236.3,284,236.6z"/>
	</g>
</g>
</svg>
