<?xml version="1.0" encoding="utf-8"?>
<!-- Generator: Adobe Illustrator 23.0.0, SVG Export Plug-In . SVG Version: 6.00 Build 0)  -->
<svg version="1.1" id="Capa_1" xmlns="http://www.w3.org/2000/svg" xmlns:xlink="http://www.w3.org/1999/xlink" x="0px" y="0px"
	 viewBox="0 0 500 500" style="enable-background:new 0 0 500 500;" xml:space="preserve">
<style type="text/css">
	.st0{fill:#0C2D44;}
	.st1{fill:#2C83AF;}
	.st2{fill:#FFFFFF;}
	.st3{fill:#00791D;}
	.st4{fill:#00D13C;}
	.st5{fill:#F2F2F2;}
	.st6{fill:#727272;}
	.st7{fill:#A3A3A3;}
	.st8{fill:#BCBCBC;}
	.st9{fill:none;}
	.st10{fill:#866A5E;}
	.st11{fill:#F7DDCB;}
	.st12{fill:#FFE6D4;}
	.st13{fill:#2D2D2D;}
	.st14{fill:#1C1B1A;}
	.st15{fill:#F5F5F5;}
	.st16{fill:#77181C;}
	.st17{fill:#EAEAEA;}
	.st18{fill:#262525;}
	.st19{fill:#11100F;}
	.st20{fill:#CCCDCE;}
	.st21{fill:#DFDFDF;}
	.st22{fill:#C2C2C2;}
	.st23{fill:#0085B0;}
	.st24{fill:#2A5936;}
	.st25{fill:#CD7054;}
	.st26{fill:#F1CC4B;}
	.st27{fill:#22272F;}
	.st28{fill:#1B2538;}
	.st29{fill:#253452;}
	.st30{fill:#F9F9F9;}
	.st31{fill:#2D3543;}
	.st32{fill:#2A3D60;}
	.st33{fill:#ACACAC;}
	.st34{fill:#6C92D5;}
	.st35{fill:#587955;}
	.st36{fill:#DAA449;}
	.st37{fill:#D4D4D4;}
	.st38{fill:#85B681;}
	.st39{fill:#A1DC9B;}
	.st40{fill:#90C58B;}
	.st41{fill:#81C378;}
	.st42{opacity:0.5;}
	.st43{fill:#A2CADE;}
	.st44{fill:#9BAEC9;}
	.st45{fill:#9D2B3B;}
	.st46{fill:#C1D4F2;}
	.st47{fill:#534D46;}
	.st48{fill:#191819;}
	.st49{fill:#222123;}
	.st50{fill:#F3FF00;}
	.st51{fill:none;stroke:#5A605A;stroke-width:4;stroke-miterlimit:10;}
	.st52{fill:#505050;}
	.st53{fill:#FFB412;}
	.st54{fill:#53C2C9;}
	.st55{fill:#008B9C;}
	.st56{fill:none;stroke:#00550B;stroke-width:4;stroke-miterlimit:10;}
</style>
<g>
	<g>
		<circle class="st3" cx="268.5" cy="143.1" r="112"/>
		<circle class="st3" cx="157" cy="298.1" r="111.9"/>
		<circle class="st3" cx="342" cy="338.4" r="112"/>
	</g>
</g>
<g>
	<circle class="st4" cx="264.4" cy="267.1" r="161.6"/>
</g>
<g>
	<g>
		<circle id="XMLID_961_" class="st5" cx="268.2" cy="225.5" r="69.5"/>
		<g id="XMLID_76_">
			<path id="XMLID_960_" class="st9" d="M287.6,222.8c0.9-2.2,1.4-3.9,1.5-4.4c-0.1,0-0.2-0.1-0.2-0.1c-0.1-0.2,0.3-2.5,0.1-2.6
				c0,0,0,0-0.1,0c-0.3,0.8-0.7,1.5-1.3,1.9C287.6,219.2,287.6,221,287.6,222.8z"/>
			<path id="XMLID_959_" class="st10" d="M284.4,218.4c-1-0.7-1,9.7-5.3,13.8c-0.3,0.3-0.6,0.6-0.9,0.9c-0.3,0.3-0.7,0.5-1,0.8
				c0,0.1,0,0.3,0,0.4c3.9-1.2,6.7-4.6,8.4-7.6c0.8-1.3,1.4-2.7,1.9-3.9c0-1.8,0-3.6,0-5.3c-0.3,0.3-0.7,0.5-1,0.6
				C286,218.7,285.3,218.9,284.4,218.4z"/>
			<path id="XMLID_958_" class="st10" d="M251.3,246.1c-0.1,0.1-0.4,0.2-0.8,0.7C250.7,246.6,251,246.4,251.3,246.1z"/>
			<path id="XMLID_957_" class="st10" d="M277.3,234.8c0.1,2.3,0.6,5.3,2.4,8c0.6-0.5,1-0.7,1.2-0.3c1.4,2.3,2.8,3.6,3.6,4.4
				c-0.4-0.7-0.9-0.9-0.9-0.9s1-0.4,2.7,1.1c0.4,0.3,1.1,0.8,1.9,1.4c-0.9-4.4-0.7-14.5-0.6-24.5c-0.4,0.9-0.9,1.8-1.4,2.8
				C283.7,231.2,280.6,233.9,277.3,234.8z"/>
			<path id="XMLID_956_" class="st10" d="M251.3,246.1c0.8-0.8,1.8-1.9,2.7-3.5c0.2-0.4,0.6-0.3,1.2,0.3c2.2-3.2,2.5-6.7,2.5-9.1
				c-0.7-0.5-1.3-1.1-1.9-1.7c-4.3-4.1-4.2-14.5-5.3-13.8c-0.8,0.5-1.5,0.3-2.1-0.3c-0.2-0.1-0.4-0.2-0.6-0.3
				c0,11.4,0.4,24.7-0.5,30.4c0.6-0.4,1.1-0.8,1.4-1C250.2,245.8,251.2,246,251.3,246.1z"/>
			<path id="XMLID_955_" class="st11" d="M276.4,234.5c0.3-0.1,0.6-0.1,0.9-0.2c0-0.2,0-0.3,0-0.4
				C277,234.1,276.7,234.3,276.4,234.5z"/>
			<path id="XMLID_954_" class="st11" d="M267.3,253.8c0.1,0.1,0.1,0.1,0.1,0.2c0-0.1,0.1-0.1,0.1-0.2c7.4-5.7,10.6-9.6,12.1-11
				c-1.9-2.7-2.3-5.7-2.4-8c-0.6,0.2-1.2,0.3-1.9,0.3c-0.2,0.8-1,2.2-3.7,2.2c-0.6,0-1-0.1-1.4-0.2c-0.4,0.1-0.8,0.1-1.3,0.2
				c-1.3,0.1-2.6,0.1-3.8-0.1c-1-0.2-2-0.4-3-0.8c-1.1-0.4-2.1-1-3.1-1.6c-0.4-0.3-0.9-0.6-1.3-1c0,2.4-0.3,5.9-2.5,9.1
				C256.7,244.3,259.9,248.2,267.3,253.8z"/>
			<path id="XMLID_953_" class="st11" d="M267.4,254.2C267.4,254.2,267.4,254.2,267.4,254.2L267.4,254.2
				C267.4,254.2,267.4,254.2,267.4,254.2z"/>
			<path id="XMLID_952_" class="st12" d="M262.1,236.4c1,0.4,2,0.7,3,0.8c1.3,0.2,2.6,0.2,3.8,0.1c0.4,0,0.8-0.1,1.3-0.2
				c-1.8-0.5-2-2-2-2.4c0.1-0.6,0.3-2.6,3.5-2.6c2.9,0,3.6,1.7,3.7,2.4c0.3,0,0.6-0.1,1-0.1c0.3-0.2,0.6-0.4,0.9-0.7
				c0.3-0.3,0.7-0.5,1-0.8c0.3-0.3,0.6-0.6,0.9-0.9c4.3-4.1,4.2-14.5,5.3-13.8c0.8,0.5,1.5,0.3,2.1-0.3c-0.5,0.2-1,0.2-1.3,0
				c-0.6-0.4,0-3.3,0.4-7.7c-0.1,0-0.1,0-0.2,0.1c-0.8,0.5-1.8-6.4-5.7-9.7c-3.9-3.2-4.2-5.4-4.2-5.4c-3.9,0.4-7.7,1.9-14.2,7
				c-5.1,4.1-9.6,8.1-11.7,8.6c-0.2,0-0.3-0.2-0.5-0.4c0.4,4.4,1,7.2,0.4,7.6c-0.3,0.2-0.8,0.2-1.2,0.1c0.6,0.6,1.3,0.8,2.1,0.3
				c1-0.7,1,9.7,5.3,13.8c0.6,0.6,1.3,1.1,1.9,1.7c0.4,0.3,0.8,0.7,1.3,1C260,235.5,261,236,262.1,236.4z"/>
			<path id="XMLID_951_" class="st10" d="M247.6,202.7c0.2-3.8,3.7-17.7,19.8-17.7c16.1,0,19.6,13.8,19.8,17.7
				c0.1,2.5-0.1,3.9,0.1,4.8c0.1-0.8,0.1-1.9,0.1-3.3c0-7.3-3-14.8-7.7-16c-2.3-0.6-2.6-2.8-7.7-4.4c-8.2-2.4-17.4,0.9-22,8.8
				c-3.3,5.5-3.5,13.2-3.1,15.8C248,207.7,247.4,206.3,247.6,202.7z"/>
			<path id="XMLID_950_" class="st10" d="M249.7,210.9c2.1-0.5,6.6-4.6,11.7-8.6c6.4-5.1,10.3-6.5,14.2-7c0,0,0.3,2.2,4.2,5.4
				c3.9,3.2,4.9,10.2,5.7,9.7c0.1,0,0.1-0.1,0.2-0.1c0-0.5,0.1-0.9,0.1-1.4c0.4-5.3,0.3-7-0.2-8.9c-4-14.7-18.2-13.6-18.2-13.6
				s-13.7-1.3-18.1,13.4c-0.6,2-0.6,3.9-0.2,9.1c0,0.5,0.1,1.1,0.1,1.6C249.4,210.8,249.5,211,249.7,210.9z"/>
			<path id="XMLID_949_" class="st13" d="M249.7,218.1c0.6-0.4,0-3.2-0.4-7.6c0-0.5-0.1-1-0.1-1.6c-0.4-5.3-0.3-7.2,0.2-9.1
				c4.4-14.7,18.1-13.4,18.1-13.4s14.2-1,18.2,13.6c0.5,1.9,0.6,3.6,0.2,8.9c0,0.5-0.1,1-0.1,1.4c-0.4,4.5-1,7.4-0.4,7.7
				c0.4,0.2,0.8,0.2,1.3,0c0.3-0.1,0.7-0.3,1-0.6c0.5-0.5,1-1.1,1.3-1.9c-0.2-0.1-0.5,0.1-0.7-0.2c-0.2-0.4-0.1-2.2,0.1-2.6
				c0.2-0.4,0.3-0.6,0.9-0.5c0,0,0.1,0,0.1,0c0.1-1.8-0.1-3.5-1.1-3.9c-0.5-0.2-0.7-0.5-0.8-1c-0.2-0.9,0-2.3-0.1-4.8
				c-0.2-3.8-3.7-17.7-19.8-17.7c-16.1,0-19.6,13.8-19.8,17.7c-0.2,3.6,0.4,5-0.7,5.6c-0.1,0-0.1,0.1-0.2,0.1
				c-1.4,0.6-1.2,4.3-0.8,6.6c0.2,1.3,1,2.3,1.9,2.8c0.2,0.1,0.4,0.2,0.6,0.3C248.9,218.3,249.3,218.3,249.7,218.1z"/>
			<path id="XMLID_948_" class="st14" d="M288.2,212.8c-0.2,0.4-0.3,2.2-0.1,2.6c0.2,0.4,0.5,0.2,0.7,0.2c0,0,0.1,0,0.1,0
				c0.2,0.2-0.2,2.4-0.1,2.6c0,0.1,0.1,0.1,0.2,0.1c-0.1,0.5-0.6,2.2-1.5,4.4c-0.5,1.2-1.1,2.5-1.9,3.9c-1.7,3-4.5,6.5-8.4,7.6
				c-0.3,0.1-0.6,0.2-0.9,0.2c-0.3,0.1-0.6,0.1-1,0.1c-0.1-0.7-0.8-2.4-3.7-2.4c-3.2,0-3.4,2-3.5,2.6c0,0.5,0.2,1.9,2,2.4
				c0.4,0.1,0.9,0.2,1.4,0.2c2.7,0,3.5-1.4,3.7-2.2c0.6-0.1,1.3-0.2,1.9-0.3c3.4-0.9,6.4-3.6,8.9-7.9c0.5-0.9,1-1.9,1.4-2.8
				c1.3-2.9,1.9-5.3,2-5.8c0,0,0.1,0,0.1,0c0.2-0.2,0.4-1.6,0.5-3.3c0.1-1.6-0.4-2.5-0.9-2.6c0,0-0.1,0-0.1,0
				C288.6,212.2,288.4,212.4,288.2,212.8z"/>
			<path id="XMLID_947_" class="st15" d="M264.6,266.1c-1.2-2.6-2.5-4.1-2.6-6.3c-0.9,1.1-1.5,2.2-1.4,3.2c0.3,3.4-9.9-8.4-10.8-14
				c-0.2,1.1-0.2,3.4,3,7.8c2.1,3,7.1,11.6,10.7,19.3c0.7-4.7,1.3-8.2,1.5-9.6C264.9,266.5,264.7,266.3,264.6,266.1z"/>
			<path id="XMLID_946_" class="st15" d="M274.2,263c0.1-1-0.5-2.1-1.4-3.2c-0.1,2.2-1.4,3.7-2.6,6.3c-0.1,0.2-0.3,0.3-0.5,0.5
				c0.3,1.4,0.9,5.2,1.6,10.1c3.5-7.9,8.5-16.8,10.7-19.9c3.3-4.7,3.1-7,2.9-8C284.3,254.5,273.9,266.5,274.2,263z"/>
			<path id="XMLID_945_" class="st15" d="M251.5,260.2C251.5,260.2,251.5,260.2,251.5,260.2L251.5,260.2
				C251.5,260.2,251.5,260.2,251.5,260.2z"/>
			<path id="XMLID_944_" class="st16" d="M270.3,266.1c1.2-2.6,2.5-4.1,2.6-6.3c-1.9-2.4-5.2-4.6-5.4-5.6h0c-0.2,1-3.5,3.2-5.4,5.6
				c0.1,2.2,1.4,3.7,2.6,6.3c0.1,0.2,0.3,0.3,0.5,0.5c-0.2,1.3-0.8,4.9-1.5,9.6c2.2,4.6,3.8,8.9,4.2,11.5c0.3-2.5,1.8-6.5,3.8-10.9
				c-0.8-4.9-1.4-8.7-1.6-10.1C270,266.5,270.2,266.3,270.3,266.1z"/>
			<path id="XMLID_82_" class="st17" d="M280.9,242.6c-0.2-0.4-0.6-0.3-1.2,0.3c-1.5,1.3-4.7,5.3-12.1,11c-0.1,0.1-0.1,0.1-0.1,0.2
				c0-0.1-0.1-0.1-0.1-0.2c-7.4-5.7-10.6-9.6-12.1-10.9c-0.6-0.6-1-0.7-1.2-0.3c-1,1.6-1.9,2.7-2.7,3.5c0,0,0,0,0,0s0,0,0,0
				c-0.3,0.3-0.5,0.5-0.8,0.7c-0.2,0.4-0.4,0.9-0.6,1.6c0,0.1-0.1,0.3-0.1,0.6c1,5.7,11.2,17.5,10.8,14c-0.1-1,0.5-2.1,1.4-3.2
				c1.9-2.4,5.2-4.6,5.4-5.6c0,0,0,0,0,0c0,0,0,0,0,0c0.2,1,3.5,3.2,5.4,5.6c0.9,1.1,1.5,2.2,1.4,3.2c-0.3,3.5,10.1-8.6,10.9-14.2
				c0-0.2-0.1-0.3-0.1-0.4c-0.1-0.6-0.3-1.1-0.5-1.5C283.7,246.2,282.3,244.9,280.9,242.6z"/>
			<path id="XMLID_81_" class="st14" d="M308.4,257.1c-0.6-0.9-14.4-5.6-18.9-7.2c0.5,0.5,0.9,1.1,1.2,1.7c2,3.5,2.1,5.7,3.5,6.7
				c1.4,1-10.9,1.8-10.9,1.8l7.7,5.8c0,0-8.7,9.9-14.5,14.2c-1.8,1.3-7.5,6.6-8.9,8.9c0.3,1.5,0.9,3.8,1,4.8
				c0.1,0.4,0.1,0.8,0.2,1.2c10.7-0.1,20.7-2.6,29.7-7.1c0.3-5.3-0.6-26.3,9.4-30.8c0.2-0.1,0.5,0.1,0.7,0.6c0,0,0,0,0,0
				C308.6,257.5,308.5,257.3,308.4,257.1z"/>
			<path id="XMLID_80_" class="st18" d="M267.7,289.1L267.7,289.1c-1.6-1.4-7.6-7.6-9.4-8.9c-5.9-4.3-14.5-14.2-14.5-14.2l7.7-5.8
				c0,0,0,0,0,0c-0.8-0.1-12.2-0.8-10.8-1.8c1.4-1,1.5-3.2,3.5-6.7c0.4-0.7,0.9-1.3,1.4-1.8c-4.7,1.7-18,6.3-18.6,7.2
				c10.8,0.6,9.7,24.6,9.9,30.6c9.4,4.7,20,7.4,31.3,7.4c0.3,0,0.6,0,0.8,0c0-0.4-0.1-0.8-0.2-1.2
				C268.6,292.9,268,290.6,267.7,289.1z"/>
			<path id="XMLID_79_" class="st19" d="M244.1,251.6c-2,3.5-2.1,5.7-3.5,6.7c-1.3,1,10,1.8,10.8,1.8c0,0,0,0,0,0l0,0l-7.7,5.8
				c0,0,8.7,9.9,14.5,14.2c1.8,1.3,7.8,7.5,9.4,8.9l0,0c1.4-2.3,7.1-7.6,8.9-8.9c5.9-4.3,14.5-14.2,14.5-14.2l-7.7-5.8
				c0,0,12.3-0.8,10.9-1.8c-1.4-1-1.5-3.2-3.5-6.7c-0.4-0.6-0.8-1.2-1.2-1.7c-0.4-0.5-0.9-0.9-1.4-1.3c-0.8-0.6-1.5-1.1-1.9-1.4
				c-1.7-1.5-2.7-1.1-2.7-1.1s0.5,0.2,0.9,0.9c0.2,0.3,0.4,0.8,0.5,1.5c0,0.1,0.1,0.3,0.1,0.4c0.2,1,0.4,3.3-2.9,8
				c-2.2,3.1-7.2,12-10.7,19.9c-2,4.4-3.5,8.4-3.8,10.9c-0.3-2.6-2-6.9-4.2-11.5c-3.6-7.7-8.6-16.3-10.7-19.3
				c-3.1-4.5-3.1-6.7-3-7.8c0-0.3,0.1-0.5,0.1-0.6c0.1-0.7,0.3-1.2,0.6-1.6c0.3-0.5,0.6-0.7,0.8-0.7c0,0,0,0,0,0s0,0,0,0
				c-0.1,0-1.1-0.3-2.7,1.1c-0.3,0.3-0.8,0.6-1.4,1c-0.5,0.4-1.2,0.9-1.7,1.6C245,250.3,244.5,250.9,244.1,251.6z"/>
			<path id="XMLID_78_" class="st19" d="M226.9,256.9c-0.6,0-2.7,9.4-4.7,20.7c4.4,3.9,9.3,7.2,14.6,9.9
				C236.6,281.5,237.6,257.5,226.9,256.9z"/>
			<path id="XMLID_77_" class="st19" d="M308,257.2c-10.1,4.5-9.2,25.4-9.4,30.8c5.4-2.7,10.5-6,15-10c-1.7-9.7-3.6-18-4.8-20.2
				C308.5,257.3,308.2,257.1,308,257.2z"/>
		</g>
	</g>
	<g>
		<ellipse class="st20" cx="328.4" cy="178.3" rx="34" ry="26.3"/>
		<polygon class="st20" points="316.4,188.4 325.8,195.6 314.9,200.2 303.9,204.7 305.5,193 307,181.2 		"/>
	</g>
</g>
<g>
	<path class="st2" d="M232.5,335.5c-0.3-0.3-0.4-0.8-0.4-1.4v-14.9h-4.8c-0.7,0-1.2-0.1-1.4-0.4s-0.4-0.8-0.4-1.4v-1.8
		c0-0.7,0.1-1.1,0.4-1.4s0.7-0.4,1.4-0.4h17.4c0.7,0,1.2,0.1,1.4,0.4s0.4,0.8,0.4,1.4v1.8c0,0.7-0.1,1.1-0.4,1.4s-0.7,0.4-1.4,0.4
		H240v14.9c0,0.6-0.1,1.1-0.4,1.4s-0.8,0.5-1.6,0.5H234C233.3,335.9,232.8,335.8,232.5,335.5z"/>
	<path class="st2" d="M248,335.5c-0.3-0.3-0.4-0.8-0.4-1.4v-18.7c0-0.6,0.1-1.1,0.4-1.4c0.3-0.3,0.8-0.5,1.5-0.5h13.7
		c0.7,0,1.2,0.1,1.4,0.4s0.4,0.8,0.4,1.4v1.8c0,0.7-0.1,1.1-0.4,1.4s-0.7,0.4-1.4,0.4h-7.7v2.8h4.8c0.7,0,1.2,0.1,1.4,0.4
		c0.3,0.3,0.4,0.8,0.4,1.4v1.8c0,0.7-0.1,1.1-0.4,1.4s-0.7,0.4-1.4,0.4h-4.8v2.8h7.7c0.7,0,1.2,0.1,1.4,0.4c0.3,0.3,0.4,0.8,0.4,1.4
		v1.8c0,0.7-0.1,1.1-0.4,1.4c-0.3,0.3-0.7,0.4-1.4,0.4h-13.6C248.8,335.9,248.3,335.8,248,335.5z"/>
	<path class="st2" d="M266.9,335.5c-0.3-0.3-0.4-0.8-0.4-1.4v-18.7c0-0.6,0.1-1.1,0.4-1.4c0.3-0.3,0.8-0.5,1.5-0.5h3.9
		c0.7,0,1.3,0.1,1.6,0.4s0.4,0.8,0.4,1.4v14.9h7.7c0.7,0,1.2,0.1,1.4,0.4s0.4,0.8,0.4,1.4v1.8c0,0.7-0.1,1.1-0.4,1.4
		s-0.7,0.4-1.4,0.4h-13.6C267.7,335.9,267.2,335.8,266.9,335.5z"/>
	<path class="st2" d="M284.8,335.5c-0.3-0.3-0.4-0.8-0.4-1.4v-18.7c0-0.6,0.1-1.1,0.4-1.4c0.3-0.3,0.8-0.5,1.5-0.5H300
		c0.7,0,1.2,0.1,1.4,0.4s0.4,0.8,0.4,1.4v1.8c0,0.7-0.1,1.1-0.4,1.4s-0.7,0.4-1.4,0.4h-7.7v2.8h4.8c0.7,0,1.2,0.1,1.4,0.4
		c0.3,0.3,0.4,0.8,0.4,1.4v1.8c0,0.7-0.1,1.1-0.4,1.4c-0.3,0.3-0.7,0.4-1.4,0.4h-4.8v2.8h7.7c0.7,0,1.2,0.1,1.4,0.4s0.4,0.8,0.4,1.4
		v1.8c0,0.7-0.1,1.1-0.4,1.4s-0.7,0.4-1.4,0.4h-13.6C285.6,335.9,285.1,335.8,284.8,335.5z"/>
	<path class="st2" d="M159.8,365.4c-0.3-0.3-0.5-0.9-0.5-1.6v-21c0-0.7,0.2-1.2,0.5-1.6c0.3-0.3,0.9-0.5,1.8-0.5h4.3
		c0.5,0,1,0.1,1.3,0.2c0.3,0.1,0.6,0.4,0.7,0.8l4.3,10.8l4.3-10.8c0.2-0.4,0.4-0.7,0.7-0.8c0.3-0.1,0.8-0.2,1.3-0.2h4.3
		c0.8,0,1.4,0.2,1.8,0.5c0.3,0.3,0.5,0.9,0.5,1.6v21c0,0.7-0.2,1.2-0.5,1.6s-0.9,0.5-1.7,0.5h-3.6c-0.8,0-1.4-0.2-1.7-0.5
		s-0.5-0.9-0.5-1.6v-10.1l-2.2,5c-0.3,0.7-0.6,1.2-1,1.5c-0.3,0.3-0.9,0.5-1.7,0.5s-1.4-0.2-1.7-0.5c-0.3-0.3-0.7-0.8-1-1.5l-2.2-5
		v10.1c0,0.7-0.2,1.2-0.5,1.6s-0.9,0.5-1.8,0.5h-3.6C160.7,365.9,160.2,365.8,159.8,365.4z"/>
	<path class="st2" d="M186,365.2c0-0.2,0.1-0.5,0.2-0.8l9.2-22.2c0.2-0.5,0.5-0.9,0.8-1.1c0.3-0.2,0.7-0.3,1.2-0.3h4
		c0.5,0,0.9,0.1,1.2,0.3c0.3,0.2,0.5,0.6,0.8,1.1l9.2,22.2c0.1,0.3,0.2,0.6,0.2,0.8c0,0.5-0.3,0.8-0.8,0.8h-7c-0.8,0-1.2-0.3-1.4-1
		l-0.9-2.7h-6.5l-0.9,2.7c-0.2,0.7-0.7,1-1.4,1h-7C186.3,365.9,186,365.7,186,365.2z M200.8,356.3l-1.4-4.6l-1.4,4.6H200.8z"/>
	<path class="st2" d="M215.1,365.4c-0.3-0.3-0.5-0.9-0.5-1.6v-20.9c0-0.7,0.2-1.2,0.5-1.6s0.9-0.5,1.7-0.5h8.8
		c3.7,0,6.4,0.7,8.1,2.2c1.7,1.5,2.5,3.7,2.5,6.6c0,1.8-0.3,3.3-0.9,4.5c-0.6,1.2-1.5,2.2-2.8,2.9l3.4,7.4c0.1,0.2,0.1,0.4,0.1,0.7
		c0,0.3-0.1,0.5-0.3,0.7c-0.2,0.2-0.4,0.3-0.7,0.3h-6.3c-0.4,0-0.7-0.1-0.9-0.2s-0.4-0.3-0.5-0.6l-2.7-6.9h-1.3v5.5
		c0,0.7-0.2,1.2-0.5,1.6s-0.9,0.5-1.8,0.5h-4.4C216,365.9,215.4,365.8,215.1,365.4z M224.9,352.1c0.8,0,1.4-0.2,1.9-0.6
		c0.5-0.4,0.7-1,0.7-1.9c0-0.9-0.2-1.5-0.7-1.9c-0.5-0.4-1.1-0.6-1.9-0.6h-2.5v5.1H224.9z"/>
	<path class="st2" d="M238.6,365.4c-0.3-0.3-0.5-0.9-0.5-1.6v-20.9c0-0.7,0.2-1.2,0.5-1.6s0.9-0.5,1.7-0.5h4.4
		c0.8,0,1.4,0.2,1.8,0.5c0.3,0.3,0.5,0.9,0.5,1.6v6.1l4.7-7.6c0.1-0.2,0.3-0.4,0.5-0.4c0.2-0.1,0.5-0.1,0.9-0.1h6.8
		c0.3,0,0.5,0.1,0.7,0.2c0.1,0.1,0.2,0.3,0.2,0.6c0,0.3-0.1,0.5-0.3,0.8l-7.1,10.8l7.4,11.1c0.2,0.2,0.3,0.5,0.3,0.8
		c0,0.2-0.1,0.4-0.2,0.6c-0.1,0.1-0.4,0.2-0.7,0.2h-6.8c-0.4,0-0.7,0-0.9-0.1c-0.2-0.1-0.4-0.2-0.5-0.4l-5-7.9v6.3
		c0,0.7-0.2,1.2-0.5,1.6s-0.9,0.5-1.8,0.5h-4.4C239.5,365.9,238.9,365.8,238.6,365.4z"/>
	<path class="st2" d="M263.5,365.4c-0.3-0.3-0.5-0.9-0.5-1.6v-20.9c0-0.7,0.2-1.2,0.5-1.6s0.9-0.5,1.7-0.5h15.3
		c0.8,0,1.3,0.2,1.6,0.5c0.3,0.3,0.4,0.9,0.4,1.6v2.1c0,0.7-0.1,1.3-0.4,1.6c-0.3,0.3-0.8,0.5-1.6,0.5h-8.7v3.2h5.3
		c0.8,0,1.3,0.2,1.6,0.5c0.3,0.3,0.4,0.9,0.4,1.6v2c0,0.7-0.1,1.3-0.4,1.6c-0.3,0.3-0.8,0.5-1.6,0.5h-5.3v3.2h8.6
		c0.8,0,1.3,0.2,1.6,0.5c0.3,0.3,0.4,0.9,0.4,1.6v2.1c0,0.7-0.1,1.3-0.4,1.6c-0.3,0.3-0.8,0.5-1.6,0.5h-15.3
		C264.4,365.9,263.8,365.8,263.5,365.4z"/>
	<path class="st2" d="M290.6,365.4c-0.3-0.3-0.5-0.9-0.5-1.6v-16.8h-5.3c-0.8,0-1.3-0.2-1.6-0.5c-0.3-0.3-0.4-0.9-0.4-1.6v-2.1
		c0-0.7,0.1-1.3,0.4-1.6c0.3-0.3,0.8-0.5,1.6-0.5h19.5c0.8,0,1.3,0.2,1.6,0.5c0.3,0.3,0.4,0.9,0.4,1.6v2.1c0,0.7-0.1,1.3-0.4,1.6
		c-0.3,0.3-0.8,0.5-1.6,0.5H299v16.8c0,0.7-0.2,1.2-0.5,1.6s-0.9,0.5-1.8,0.5h-4.4C291.5,365.9,290.9,365.8,290.6,365.4z"/>
	<path class="st2" d="M307.9,365.4c-0.3-0.3-0.5-0.9-0.5-1.6v-20.9c0-0.7,0.2-1.2,0.5-1.6s0.9-0.5,1.7-0.5h4.4
		c0.8,0,1.4,0.2,1.8,0.5c0.3,0.3,0.5,0.9,0.5,1.6v20.9c0,0.7-0.2,1.2-0.5,1.6s-0.9,0.5-1.8,0.5h-4.4
		C308.8,365.9,308.3,365.8,307.9,365.4z"/>
	<path class="st2" d="M319.4,365.4c-0.3-0.3-0.5-0.9-0.5-1.6v-21c0-0.7,0.2-1.2,0.5-1.6c0.3-0.3,0.9-0.5,1.8-0.5h3.5
		c0.5,0,0.9,0.1,1.2,0.2c0.3,0.1,0.6,0.4,0.8,0.8l6.7,10v-8.8c0-0.7,0.2-1.2,0.5-1.6s0.9-0.5,1.7-0.5h4.4c0.8,0,1.4,0.2,1.8,0.5
		c0.3,0.3,0.5,0.9,0.5,1.6v21c0,0.7-0.2,1.2-0.5,1.6c-0.3,0.3-0.9,0.5-1.8,0.5h-3.5c-0.5,0-0.9-0.1-1.2-0.2
		c-0.3-0.1-0.6-0.4-0.8-0.8l-6.7-10v8.9c0,0.7-0.2,1.2-0.5,1.6c-0.3,0.3-0.9,0.5-1.8,0.5h-4.4C320.3,365.9,319.7,365.8,319.4,365.4z
		"/>
	<path class="st2" d="M347.9,363.2c-2.5-2.2-3.7-5.5-3.7-9.8c0-4.3,1.2-7.6,3.7-9.8c2.5-2.2,6-3.3,10.4-3.3c2,0,3.8,0.2,5.4,0.6
		c1.6,0.4,2.9,1,4,1.7c0.3,0.2,0.4,0.5,0.4,0.7c0,0.2-0.1,0.5-0.3,0.9l-1.8,3.2c-0.2,0.3-0.4,0.5-0.7,0.5c-0.2,0-0.5-0.1-0.9-0.3
		c-1.5-0.7-3.1-1.1-4.9-1.1c-2,0-3.7,0.6-4.8,1.8c-1.2,1.2-1.8,2.9-1.8,5.2c0,2.3,0.5,4.1,1.5,5.2c1,1.1,2.5,1.7,4.4,1.7
		c0.3,0,0.7,0,1.2-0.1c0.4-0.1,0.8-0.1,1.1-0.2v-3.4h-2.4c-0.8,0-1.3-0.2-1.6-0.5c-0.3-0.3-0.4-0.8-0.4-1.6v-2
		c0-0.7,0.1-1.3,0.4-1.6c0.3-0.3,0.8-0.5,1.6-0.5h8c1,0,1.6,0.2,2,0.6s0.6,1.1,0.6,2.1v8.7c0,0.5-0.1,1-0.2,1.2
		c-0.1,0.3-0.4,0.6-0.8,0.9c-2.4,1.7-5.7,2.6-9.9,2.6C353.9,366.5,350.4,365.4,347.9,363.2z"/>
</g>
</svg>
