<?xml version="1.0" encoding="utf-8"?>
<!-- Generator: Adobe Illustrator 23.0.0, SVG Export Plug-In . SVG Version: 6.00 Build 0)  -->
<svg version="1.1" id="Capa_1" xmlns="http://www.w3.org/2000/svg" xmlns:xlink="http://www.w3.org/1999/xlink" x="0px" y="0px"
	 viewBox="0 0 522 489" style="enable-background:new 0 0 522 489;" xml:space="preserve">
<style type="text/css">
	.st0{fill:#002E44;}
	.st1{fill:#0085B0;}
	.st2{fill:#FFFFFF;}
	.st3{opacity:0.7;fill:#7F7F7F;}
	.st4{fill:#253452;}
	.st5{fill:#E9E9E9;}
	.st6{fill:#767677;}
	.st7{fill:#B7B8B8;}
	.st8{fill:#CBCCCE;}
	.st9{fill:#9FA1A3;}
	.st10{fill:#B6B6B6;}
	.st11{fill:#2A3D60;}
	.st12{fill:#6C92D5;}
	.st13{fill:#EFEFEF;}
	.st14{fill:#DCDCDC;}
	.st15{fill:#E3E3E3;}
	.st16{fill:#85B681;}
	.st17{fill:#A1DC9B;}
	.st18{fill:#587955;}
	.st19{fill:#90C58B;}
	.st20{fill:#DAA449;}
	.st21{fill:#F1CC4B;}
	.st22{fill:#DD9225;}
	.st23{opacity:0.3;}
</style>
<g>
	<g>
		<circle class="st0" cx="272.5" cy="141.1" r="111.95"/>
		<circle class="st0" cx="161.03" cy="296.15" r="111.95"/>
		<circle class="st0" cx="346.05" cy="336.39" r="111.95"/>
	</g>
</g>
<g>
	<circle class="st1" cx="268.37" cy="265.14" r="161.61"/>
</g>
<g>
	<path class="st2" d="M146.26,322.98c-0.24-0.25-0.36-0.64-0.36-1.16v-15.28c0-0.52,0.12-0.91,0.36-1.16
		c0.24-0.25,0.66-0.38,1.26-0.38h11.18c0.58,0,0.97,0.12,1.17,0.37c0.21,0.24,0.31,0.63,0.31,1.17v1.51c0,0.54-0.1,0.93-0.31,1.17
		c-0.21,0.24-0.6,0.37-1.17,0.37h-6.32v2.29h3.89c0.58,0,0.97,0.12,1.17,0.36s0.31,0.63,0.31,1.17v1.51c0,0.54-0.1,0.93-0.31,1.17
		c-0.21,0.24-0.6,0.36-1.17,0.36h-3.89v5.35c0,0.52-0.12,0.91-0.36,1.16s-0.67,0.38-1.28,0.38h-3.21
		C146.92,323.36,146.51,323.24,146.26,322.98z"/>
	<path class="st2" d="M165.2,322.92c-1.33-0.57-2.37-1.39-3.1-2.46c-0.74-1.07-1.11-2.34-1.11-3.82v-10.1
		c0-0.52,0.12-0.91,0.36-1.16c0.24-0.25,0.66-0.38,1.26-0.38h3.21c0.61,0,1.04,0.12,1.28,0.37c0.24,0.24,0.36,0.63,0.36,1.17v10.18
		c0,0.85,0.21,1.48,0.63,1.89s1,0.62,1.74,0.62c0.74,0,1.32-0.21,1.74-0.62c0.42-0.41,0.63-1.04,0.63-1.89v-10.18
		c0-0.52,0.12-0.91,0.36-1.16c0.24-0.25,0.66-0.38,1.26-0.38h3.21c0.61,0,1.04,0.12,1.28,0.37c0.24,0.24,0.36,0.63,0.36,1.17v10.1
		c0,1.48-0.37,2.75-1.11,3.82c-0.74,1.07-1.77,1.89-3.1,2.46c-1.33,0.57-2.88,0.85-4.64,0.85
		C168.08,323.77,166.54,323.48,165.2,322.92z"/>
	<path class="st2" d="M180.82,322.98c-0.24-0.25-0.36-0.64-0.36-1.16v-15.31c0-0.52,0.12-0.91,0.36-1.15
		c0.24-0.24,0.67-0.37,1.28-0.37h2.57c0.38,0,0.67,0.05,0.88,0.15c0.21,0.1,0.41,0.29,0.61,0.58l4.89,7.26v-6.45
		c0-0.52,0.12-0.91,0.36-1.16c0.24-0.25,0.66-0.38,1.26-0.38h3.21c0.61,0,1.04,0.12,1.28,0.37c0.24,0.24,0.36,0.63,0.36,1.17v15.31
		c0,0.52-0.12,0.9-0.36,1.15s-0.67,0.36-1.28,0.36h-2.56c-0.38,0-0.67-0.05-0.88-0.15c-0.21-0.1-0.41-0.29-0.61-0.58l-4.89-7.26
		v6.48c0,0.52-0.12,0.9-0.36,1.15s-0.67,0.36-1.28,0.36h-3.21C181.48,323.36,181.07,323.24,180.82,322.98z"/>
	<path class="st2" d="M201.6,321.35c-1.82-1.61-2.73-4-2.73-7.17c0-3.19,0.88-5.58,2.63-7.18c1.75-1.6,4.26-2.4,7.52-2.4
		c1.48,0,2.79,0.14,3.94,0.43c1.15,0.29,2.11,0.69,2.89,1.21c0.22,0.16,0.32,0.34,0.32,0.54c0,0.16-0.08,0.39-0.24,0.67l-1.35,2.32
		c-0.14,0.25-0.32,0.38-0.51,0.38c-0.13,0-0.33-0.07-0.62-0.22c-0.5-0.25-1.03-0.45-1.58-0.59c-0.55-0.14-1.19-0.22-1.93-0.22
		c-1.49,0-2.64,0.43-3.43,1.3c-0.79,0.86-1.19,2.12-1.19,3.75c0,1.62,0.43,2.87,1.3,3.74c0.86,0.87,2.04,1.31,3.54,1.31
		c1.3,0,2.48-0.27,3.56-0.81c0.29-0.14,0.5-0.22,0.62-0.22c0.2,0,0.37,0.13,0.51,0.38l1.35,2.32c0.16,0.29,0.24,0.51,0.24,0.67
		c0,0.2-0.11,0.38-0.32,0.54c-0.77,0.52-1.75,0.93-2.92,1.21c-1.17,0.29-2.49,0.43-3.97,0.43
		C205.96,323.77,203.42,322.96,201.6,321.35z"/>
	<path class="st2" d="M218.16,322.98c-0.24-0.25-0.36-0.64-0.36-1.16v-15.28c0-0.52,0.12-0.91,0.36-1.16
		c0.24-0.25,0.66-0.38,1.26-0.38h3.21c0.61,0,1.04,0.12,1.28,0.37c0.24,0.24,0.36,0.63,0.36,1.17v15.28c0,0.52-0.12,0.91-0.36,1.16
		s-0.67,0.38-1.28,0.38h-3.21C218.82,323.36,218.41,323.24,218.16,322.98z"/>
	<path class="st2" d="M228.11,321.27c-1.66-1.66-2.48-4.03-2.48-7.09c0-3.06,0.83-5.42,2.48-7.09c1.66-1.67,4.09-2.5,7.29-2.5
		c3.2,0,5.63,0.83,7.29,2.5c1.66,1.67,2.48,4.03,2.48,7.09c0,3.06-0.83,5.42-2.48,7.09c-1.66,1.67-4.09,2.5-7.29,2.5
		C232.2,323.77,229.77,322.93,228.11,321.27z M237.94,317.98c0.52-0.84,0.78-2.1,0.78-3.79c0-1.71-0.26-2.98-0.78-3.81
		c-0.52-0.83-1.37-1.24-2.54-1.24c-1.17,0-2.02,0.41-2.54,1.24c-0.52,0.83-0.78,2.1-0.78,3.81c0,1.69,0.26,2.96,0.78,3.79
		c0.52,0.84,1.37,1.26,2.54,1.26C236.57,319.23,237.42,318.81,237.94,317.98z"/>
	<path class="st2" d="M246.89,322.98c-0.24-0.25-0.36-0.64-0.36-1.16v-15.31c0-0.52,0.12-0.91,0.36-1.15
		c0.24-0.24,0.67-0.37,1.28-0.37h2.57c0.38,0,0.67,0.05,0.88,0.15c0.21,0.1,0.41,0.29,0.61,0.58l4.89,7.26v-6.45
		c0-0.52,0.12-0.91,0.36-1.16c0.24-0.25,0.66-0.38,1.26-0.38h3.21c0.61,0,1.04,0.12,1.28,0.37c0.24,0.24,0.36,0.63,0.36,1.17v15.31
		c0,0.52-0.12,0.9-0.36,1.15s-0.67,0.36-1.28,0.36h-2.56c-0.38,0-0.67-0.05-0.88-0.15c-0.21-0.1-0.41-0.29-0.61-0.58l-4.89-7.26
		v6.48c0,0.52-0.12,0.9-0.36,1.15s-0.67,0.36-1.28,0.36h-3.21C247.55,323.36,247.13,323.24,246.89,322.98z"/>
	<path class="st2" d="M264.94,322.79c0-0.16,0.04-0.36,0.14-0.59l6.72-16.17c0.16-0.38,0.35-0.64,0.55-0.8
		c0.21-0.15,0.5-0.23,0.88-0.23h2.94c0.38,0,0.67,0.08,0.88,0.23c0.21,0.15,0.39,0.42,0.55,0.8l6.7,16.17
		c0.09,0.23,0.13,0.43,0.13,0.59c0,0.38-0.2,0.57-0.59,0.57h-5.08c-0.56,0-0.91-0.24-1.05-0.73l-0.65-2h-4.78l-0.62,2
		c-0.14,0.49-0.5,0.73-1.05,0.73h-5.08C265.14,323.36,264.94,323.17,264.94,322.79z M275.74,316.37l-1.05-3.35l-1.05,3.35H275.74z"
		/>
	<path class="st2" d="M286.15,322.98c-0.24-0.25-0.36-0.64-0.36-1.16v-15.28c0-0.52,0.12-0.91,0.36-1.16
		c0.24-0.25,0.66-0.38,1.26-0.38h3.21c0.61,0,1.04,0.12,1.28,0.37c0.24,0.24,0.36,0.63,0.36,1.17v12.23h6.29
		c0.58,0,0.97,0.12,1.17,0.36c0.21,0.24,0.31,0.63,0.31,1.17v1.51c0,0.54-0.1,0.93-0.31,1.17c-0.21,0.24-0.6,0.36-1.17,0.36H287.4
		C286.81,323.36,286.39,323.24,286.15,322.98z"/>
	<path class="st2" d="M301.21,322.98c-0.24-0.25-0.36-0.64-0.36-1.16v-15.28c0-0.52,0.12-0.91,0.36-1.16
		c0.24-0.25,0.66-0.38,1.26-0.38h3.21c0.61,0,1.04,0.12,1.28,0.37c0.24,0.24,0.36,0.63,0.36,1.17v15.28c0,0.52-0.12,0.91-0.36,1.16
		s-0.67,0.38-1.28,0.38h-3.21C301.88,323.36,301.46,323.24,301.21,322.98z"/>
	<path class="st2" d="M309.58,322.98c-0.24-0.25-0.36-0.64-0.36-1.16v-15.28c0-0.52,0.12-0.91,0.36-1.16
		c0.24-0.25,0.66-0.38,1.26-0.38h6.21c6.35,0,9.53,3.06,9.53,9.18c0,3.02-0.81,5.31-2.44,6.86c-1.63,1.55-3.99,2.32-7.09,2.32h-6.21
		C310.25,323.36,309.83,323.24,309.58,322.98z M317.29,318.77c1.01,0,1.73-0.33,2.17-1c0.44-0.67,0.66-1.86,0.66-3.59
		c0-1.73-0.22-2.92-0.66-3.59c-0.44-0.67-1.17-1-2.17-1h-1.59v9.18H317.29z"/>
	<path class="st2" d="M326.18,322.79c0-0.16,0.04-0.36,0.14-0.59l6.72-16.17c0.16-0.38,0.35-0.64,0.55-0.8
		c0.21-0.15,0.5-0.23,0.88-0.23h2.94c0.38,0,0.67,0.08,0.88,0.23c0.21,0.15,0.39,0.42,0.55,0.8l6.7,16.17
		c0.09,0.23,0.13,0.43,0.13,0.59c0,0.38-0.2,0.57-0.59,0.57H340c-0.56,0-0.91-0.24-1.05-0.73l-0.65-2h-4.78l-0.62,2
		c-0.14,0.49-0.5,0.73-1.05,0.73h-5.08C326.37,323.36,326.18,323.17,326.18,322.79z M336.98,316.37l-1.05-3.35l-1.05,3.35H336.98z"
		/>
	<path class="st2" d="M347.38,322.98c-0.24-0.25-0.36-0.64-0.36-1.16v-15.28c0-0.52,0.12-0.91,0.36-1.16
		c0.24-0.25,0.66-0.38,1.26-0.38h6.21c6.35,0,9.53,3.06,9.53,9.18c0,3.02-0.81,5.31-2.44,6.86c-1.63,1.55-3.99,2.32-7.09,2.32h-6.21
		C348.05,323.36,347.63,323.24,347.38,322.98z M355.09,318.77c1.01,0,1.73-0.33,2.17-1c0.44-0.67,0.66-1.86,0.66-3.59
		c0-1.73-0.22-2.92-0.66-3.59c-0.44-0.67-1.17-1-2.17-1h-1.59v9.18H355.09z"/>
	<path class="st2" d="M366.1,322.98c-0.24-0.25-0.36-0.64-0.36-1.16v-15.28c0-0.52,0.12-0.91,0.36-1.16
		c0.24-0.25,0.66-0.38,1.26-0.38h11.18c0.58,0,0.97,0.12,1.17,0.37c0.21,0.24,0.31,0.63,0.31,1.17v1.51c0,0.54-0.1,0.93-0.31,1.17
		c-0.21,0.24-0.6,0.37-1.17,0.37h-6.32v2.32h3.89c0.58,0,0.97,0.12,1.17,0.36c0.21,0.24,0.31,0.63,0.31,1.17v1.46
		c0,0.54-0.1,0.93-0.31,1.17s-0.6,0.36-1.17,0.36h-3.89v2.32h6.29c0.58,0,0.97,0.12,1.17,0.36c0.21,0.24,0.31,0.63,0.31,1.17v1.51
		c0,0.54-0.1,0.93-0.31,1.17c-0.21,0.24-0.6,0.36-1.17,0.36h-11.15C366.76,323.36,366.34,323.24,366.1,322.98z"/>
	<path class="st2" d="M384.66,323.25c-1.4-0.34-2.54-0.82-3.4-1.43c-0.36-0.25-0.54-0.5-0.54-0.73c0-0.16,0.06-0.33,0.19-0.51
		l1.57-2.46c0.16-0.23,0.32-0.35,0.49-0.35c0.14,0,0.31,0.06,0.51,0.19c0.65,0.4,1.39,0.71,2.23,0.93c0.84,0.23,1.65,0.34,2.44,0.34
		c0.67,0,1.15-0.09,1.44-0.27c0.3-0.18,0.45-0.46,0.45-0.84c0-0.41-0.2-0.75-0.59-1c-0.4-0.25-1.08-0.57-2.05-0.94
		c-1.82-0.7-3.25-1.5-4.29-2.39c-1.04-0.89-1.57-2.07-1.57-3.55c0-1.87,0.65-3.28,1.96-4.23c1.3-0.95,3.06-1.42,5.28-1.42
		c1.55,0,2.87,0.13,3.96,0.4c1.09,0.27,2.04,0.69,2.85,1.27c0.36,0.25,0.54,0.5,0.54,0.73c0,0.16-0.06,0.33-0.19,0.51l-1.57,2.46
		c-0.16,0.25-0.32,0.38-0.49,0.38c-0.11,0-0.28-0.07-0.51-0.22c-0.43-0.29-0.94-0.53-1.54-0.71c-0.59-0.19-1.23-0.28-1.92-0.28
		c-0.63,0-1.11,0.09-1.43,0.27c-0.32,0.18-0.49,0.47-0.49,0.86c0,0.32,0.11,0.59,0.34,0.81c0.22,0.22,0.51,0.4,0.85,0.55
		c0.34,0.15,0.94,0.4,1.78,0.74c1.35,0.54,2.41,1.06,3.19,1.55c0.77,0.5,1.36,1.09,1.75,1.78s0.59,1.57,0.59,2.63
		c0,1.62-0.61,2.93-1.82,3.93s-3.03,1.5-5.44,1.5C387.58,323.77,386.06,323.6,384.66,323.25z"/>
	<path class="st2" d="M148.62,348.48c-1.09-0.27-1.97-0.64-2.65-1.11c-0.28-0.2-0.42-0.38-0.42-0.57c0-0.13,0.05-0.26,0.15-0.4
		l1.22-1.91c0.13-0.18,0.25-0.27,0.38-0.27c0.11,0,0.24,0.05,0.4,0.15c0.5,0.31,1.08,0.55,1.73,0.72c0.65,0.18,1.28,0.26,1.9,0.26
		c0.52,0,0.89-0.07,1.12-0.21s0.35-0.36,0.35-0.65c0-0.32-0.15-0.58-0.46-0.78c-0.31-0.2-0.84-0.44-1.6-0.74
		c-1.41-0.55-2.53-1.17-3.34-1.86c-0.81-0.69-1.22-1.61-1.22-2.76c0-1.46,0.51-2.55,1.52-3.29c1.02-0.74,2.38-1.1,4.11-1.1
		c1.2,0,2.23,0.1,3.08,0.31s1.59,0.54,2.22,0.99c0.28,0.2,0.42,0.38,0.42,0.57c0,0.13-0.05,0.26-0.15,0.4l-1.22,1.91
		c-0.13,0.2-0.25,0.29-0.38,0.29c-0.08,0-0.22-0.06-0.4-0.17c-0.34-0.22-0.73-0.41-1.2-0.56c-0.46-0.15-0.96-0.22-1.49-0.22
		c-0.49,0-0.86,0.07-1.11,0.21c-0.25,0.14-0.38,0.36-0.38,0.67c0,0.25,0.09,0.46,0.26,0.63c0.17,0.17,0.4,0.31,0.66,0.43
		c0.27,0.12,0.73,0.31,1.39,0.58c1.05,0.42,1.88,0.82,2.48,1.21c0.6,0.39,1.06,0.85,1.37,1.39c0.31,0.54,0.46,1.22,0.46,2.05
		c0,1.26-0.47,2.28-1.42,3.06c-0.95,0.78-2.36,1.17-4.23,1.17C150.89,348.88,149.71,348.74,148.62,348.48z"/>
	<path class="st2" d="M159.15,348.27c-0.19-0.2-0.28-0.5-0.28-0.9v-11.89c0-0.41,0.09-0.71,0.28-0.9c0.19-0.2,0.51-0.29,0.98-0.29
		h8.69c0.45,0,0.75,0.09,0.91,0.28c0.16,0.19,0.24,0.49,0.24,0.91v1.18c0,0.42-0.08,0.72-0.24,0.91c-0.16,0.19-0.47,0.28-0.91,0.28
		h-4.91v1.81h3.02c0.45,0,0.75,0.09,0.91,0.28c0.16,0.19,0.24,0.49,0.24,0.91v1.13c0,0.42-0.08,0.72-0.24,0.91
		c-0.16,0.19-0.47,0.28-0.91,0.28h-3.02v1.81h4.89c0.45,0,0.75,0.09,0.91,0.28c0.16,0.19,0.24,0.49,0.24,0.91v1.18
		c0,0.42-0.08,0.72-0.24,0.91c-0.16,0.19-0.47,0.28-0.91,0.28h-8.67C159.66,348.56,159.34,348.46,159.15,348.27z"/>
	<path class="st2" d="M171.2,348.27c-0.19-0.2-0.28-0.5-0.28-0.9v-11.89c0-0.41,0.09-0.71,0.28-0.9c0.19-0.2,0.51-0.29,0.98-0.29
		h5.02c2.1,0,3.63,0.42,4.59,1.25s1.44,2.09,1.44,3.77c0,1.01-0.17,1.86-0.51,2.55c-0.34,0.69-0.87,1.24-1.59,1.63l1.95,4.18
		c0.06,0.11,0.08,0.24,0.08,0.38c0,0.15-0.05,0.28-0.16,0.38c-0.1,0.1-0.24,0.15-0.41,0.15h-3.55c-0.22,0-0.4-0.03-0.54-0.09
		c-0.13-0.06-0.23-0.17-0.28-0.33l-1.55-3.91h-0.71v3.13c0,0.41-0.09,0.71-0.28,0.9s-0.52,0.29-1,0.29h-2.5
		C171.72,348.56,171.39,348.46,171.2,348.27z M176.76,340.73c0.45,0,0.8-0.12,1.06-0.36c0.26-0.24,0.39-0.59,0.39-1.07
		c0-0.49-0.13-0.85-0.39-1.09c-0.26-0.24-0.61-0.36-1.06-0.36h-1.43v2.88H176.76z"/>
	<path class="st2" d="M188.02,348.38c-0.16-0.12-0.3-0.33-0.41-0.62l-5.02-12.58c-0.07-0.18-0.1-0.34-0.1-0.46
		c0-0.29,0.15-0.44,0.46-0.44h3.95c0.43,0,0.71,0.19,0.82,0.57l2.14,6.85l2.14-6.85c0.11-0.38,0.38-0.57,0.82-0.57h3.95
		c0.31,0,0.46,0.15,0.46,0.44c0,0.13-0.04,0.28-0.1,0.46l-5,12.58c-0.11,0.29-0.25,0.5-0.41,0.62c-0.16,0.12-0.4,0.18-0.7,0.18
		h-2.29C188.42,348.56,188.18,348.5,188.02,348.38z"/>
	<path class="st2" d="M198.57,348.27c-0.19-0.2-0.28-0.5-0.28-0.9v-11.89c0-0.41,0.09-0.71,0.28-0.9c0.19-0.2,0.51-0.29,0.98-0.29
		h2.5c0.48,0,0.81,0.09,1,0.28c0.19,0.19,0.28,0.49,0.28,0.91v11.89c0,0.41-0.09,0.71-0.28,0.9s-0.52,0.29-1,0.29h-2.5
		C199.08,348.56,198.75,348.46,198.57,348.27z"/>
	<path class="st2" d="M206.49,347c-1.41-1.25-2.12-3.11-2.12-5.58c0-2.48,0.68-4.34,2.05-5.59c1.37-1.25,3.31-1.87,5.85-1.87
		c1.15,0,2.17,0.11,3.07,0.34s1.65,0.54,2.25,0.94c0.17,0.13,0.25,0.27,0.25,0.42c0,0.13-0.06,0.3-0.19,0.52l-1.05,1.81
		c-0.11,0.2-0.25,0.29-0.4,0.29c-0.1,0-0.26-0.06-0.48-0.17c-0.39-0.2-0.8-0.35-1.23-0.46c-0.43-0.11-0.93-0.17-1.5-0.17
		c-1.16,0-2.05,0.34-2.67,1.01c-0.62,0.67-0.92,1.64-0.92,2.92c0,1.26,0.34,2.23,1.01,2.91c0.67,0.68,1.59,1.02,2.75,1.02
		c1.01,0,1.93-0.21,2.77-0.63c0.22-0.11,0.38-0.17,0.48-0.17c0.15,0,0.29,0.1,0.4,0.29l1.05,1.81c0.13,0.22,0.19,0.4,0.19,0.53
		c0,0.15-0.08,0.29-0.25,0.42c-0.6,0.41-1.36,0.72-2.27,0.94c-0.91,0.22-1.94,0.34-3.09,0.34
		C209.89,348.88,207.91,348.25,206.49,347z"/>
	<path class="st2" d="M219.38,348.27c-0.19-0.2-0.28-0.5-0.28-0.9v-11.89c0-0.41,0.09-0.71,0.28-0.9c0.19-0.2,0.51-0.29,0.98-0.29
		h2.5c0.48,0,0.81,0.09,1,0.28c0.19,0.19,0.28,0.49,0.28,0.91v11.89c0,0.41-0.09,0.71-0.28,0.9s-0.52,0.29-1,0.29h-2.5
		C219.89,348.56,219.57,348.46,219.38,348.27z"/>
	<path class="st2" d="M227.12,346.93c-1.29-1.29-1.93-3.13-1.93-5.51s0.64-4.22,1.93-5.51c1.29-1.29,3.18-1.94,5.67-1.94
		c2.49,0,4.38,0.65,5.67,1.94s1.93,3.13,1.93,5.51s-0.64,4.22-1.93,5.51c-1.29,1.3-3.18,1.94-5.67,1.94
		C230.29,348.88,228.4,348.23,227.12,346.93z M234.76,344.37c0.41-0.65,0.61-1.63,0.61-2.95c0-1.33-0.2-2.32-0.61-2.96
		c-0.41-0.64-1.06-0.97-1.97-0.97c-0.91,0-1.57,0.32-1.97,0.97c-0.41,0.64-0.61,1.63-0.61,2.96c0,1.32,0.2,2.3,0.61,2.95
		s1.06,0.98,1.97,0.98C233.69,345.35,234.35,345.02,234.76,344.37z"/>
	<path class="st2" d="M243.16,348.48c-1.09-0.27-1.97-0.64-2.65-1.11c-0.28-0.2-0.42-0.38-0.42-0.57c0-0.13,0.05-0.26,0.15-0.4
		l1.22-1.91c0.13-0.18,0.25-0.27,0.38-0.27c0.11,0,0.24,0.05,0.4,0.15c0.5,0.31,1.08,0.55,1.73,0.72c0.65,0.18,1.28,0.26,1.9,0.26
		c0.52,0,0.89-0.07,1.12-0.21s0.35-0.36,0.35-0.65c0-0.32-0.15-0.58-0.46-0.78c-0.31-0.2-0.84-0.44-1.6-0.74
		c-1.41-0.55-2.53-1.17-3.34-1.86c-0.81-0.69-1.22-1.61-1.22-2.76c0-1.46,0.51-2.55,1.52-3.29c1.02-0.74,2.38-1.1,4.11-1.1
		c1.2,0,2.23,0.1,3.08,0.31s1.59,0.54,2.22,0.99c0.28,0.2,0.42,0.38,0.42,0.57c0,0.13-0.05,0.26-0.15,0.4l-1.22,1.91
		c-0.13,0.2-0.25,0.29-0.38,0.29c-0.08,0-0.22-0.06-0.4-0.17c-0.34-0.22-0.73-0.41-1.2-0.56c-0.46-0.15-0.96-0.22-1.49-0.22
		c-0.49,0-0.86,0.07-1.11,0.21c-0.25,0.14-0.38,0.36-0.38,0.67c0,0.25,0.09,0.46,0.26,0.63c0.17,0.17,0.4,0.31,0.66,0.43
		c0.27,0.12,0.73,0.31,1.39,0.58c1.05,0.42,1.88,0.82,2.48,1.21c0.6,0.39,1.06,0.85,1.37,1.39c0.31,0.54,0.46,1.22,0.46,2.05
		c0,1.26-0.47,2.28-1.42,3.06c-0.95,0.78-2.36,1.17-4.23,1.17C245.43,348.88,244.25,348.74,243.16,348.48z"/>
	<path class="st2" d="M259.99,348.27c-0.19-0.2-0.28-0.5-0.28-0.9v-11.89c0-0.41,0.09-0.71,0.28-0.9c0.19-0.2,0.51-0.29,0.98-0.29
		h8.69c0.45,0,0.75,0.09,0.91,0.28c0.16,0.19,0.24,0.49,0.24,0.91v1.18c0,0.42-0.08,0.72-0.24,0.91c-0.16,0.19-0.47,0.28-0.91,0.28
		h-4.91v1.79h3.02c0.45,0,0.75,0.09,0.91,0.28c0.16,0.19,0.24,0.49,0.24,0.91v1.18c0,0.42-0.08,0.72-0.24,0.91
		c-0.16,0.19-0.47,0.28-0.91,0.28h-3.02v4.16c0,0.41-0.09,0.71-0.28,0.9s-0.52,0.29-1,0.29h-2.5
		C260.5,348.56,260.18,348.46,259.99,348.27z"/>
	<path class="st2" d="M271.83,348.27c-0.19-0.2-0.28-0.5-0.28-0.9v-11.89c0-0.41,0.09-0.71,0.28-0.9c0.19-0.2,0.51-0.29,0.98-0.29
		h2.5c0.48,0,0.81,0.09,1,0.28c0.19,0.19,0.28,0.49,0.28,0.91v11.89c0,0.41-0.09,0.71-0.28,0.9s-0.52,0.29-1,0.29h-2.5
		C272.35,348.56,272.02,348.46,271.83,348.27z"/>
	<path class="st2" d="M278.34,348.27c-0.19-0.2-0.28-0.5-0.28-0.9v-11.91c0-0.41,0.09-0.7,0.28-0.89c0.19-0.19,0.52-0.28,1-0.28h2
		c0.29,0,0.52,0.04,0.68,0.12s0.32,0.23,0.47,0.45l3.8,5.65v-5.02c0-0.41,0.09-0.71,0.28-0.9c0.19-0.2,0.51-0.29,0.98-0.29h2.5
		c0.48,0,0.81,0.09,1,0.28c0.19,0.19,0.28,0.49,0.28,0.91v11.91c0,0.41-0.09,0.7-0.28,0.89c-0.19,0.19-0.52,0.28-1,0.28h-2
		c-0.29,0-0.52-0.04-0.68-0.12s-0.32-0.23-0.47-0.45l-3.8-5.65v5.04c0,0.41-0.09,0.7-0.28,0.89c-0.19,0.19-0.52,0.28-1,0.28h-2.5
		C278.86,348.56,278.53,348.46,278.34,348.27z"/>
	<path class="st2" d="M292.38,348.12c0-0.13,0.03-0.28,0.1-0.46l5.23-12.58c0.13-0.29,0.27-0.5,0.43-0.62
		c0.16-0.12,0.39-0.18,0.68-0.18h2.29c0.29,0,0.52,0.06,0.68,0.18c0.16,0.12,0.3,0.33,0.43,0.62l5.21,12.58
		c0.07,0.18,0.1,0.34,0.1,0.46c0,0.29-0.15,0.44-0.46,0.44h-3.95c-0.43,0-0.71-0.19-0.82-0.57l-0.5-1.55h-3.72l-0.48,1.55
		c-0.11,0.38-0.39,0.57-0.82,0.57h-3.95C292.54,348.56,292.38,348.42,292.38,348.12z M300.78,343.12l-0.82-2.6l-0.82,2.6H300.78z"/>
	<path class="st2" d="M308.88,348.27c-0.19-0.2-0.28-0.5-0.28-0.9v-11.91c0-0.41,0.09-0.7,0.28-0.89c0.19-0.19,0.52-0.28,1-0.28h2
		c0.29,0,0.52,0.04,0.68,0.12s0.32,0.23,0.47,0.45l3.8,5.65v-5.02c0-0.41,0.09-0.71,0.28-0.9c0.19-0.2,0.51-0.29,0.98-0.29h2.5
		c0.48,0,0.81,0.09,1,0.28c0.19,0.19,0.28,0.49,0.28,0.91v11.91c0,0.41-0.09,0.7-0.28,0.89c-0.19,0.19-0.52,0.28-1,0.28h-2
		c-0.29,0-0.52-0.04-0.68-0.12s-0.32-0.23-0.47-0.45l-3.8-5.65v5.04c0,0.41-0.09,0.7-0.28,0.89c-0.19,0.19-0.52,0.28-1,0.28h-2.5
		C309.39,348.56,309.07,348.46,308.88,348.27z"/>
	<path class="st2" d="M325.04,347c-1.41-1.25-2.12-3.11-2.12-5.58c0-2.48,0.68-4.34,2.05-5.59c1.37-1.25,3.31-1.87,5.85-1.87
		c1.15,0,2.17,0.11,3.07,0.34s1.65,0.54,2.25,0.94c0.17,0.13,0.25,0.27,0.25,0.42c0,0.13-0.06,0.3-0.19,0.52l-1.05,1.81
		c-0.11,0.2-0.25,0.29-0.4,0.29c-0.1,0-0.26-0.06-0.48-0.17c-0.39-0.2-0.8-0.35-1.23-0.46c-0.43-0.11-0.93-0.17-1.5-0.17
		c-1.16,0-2.05,0.34-2.67,1.01c-0.62,0.67-0.92,1.64-0.92,2.92c0,1.26,0.34,2.23,1.01,2.91c0.67,0.68,1.59,1.02,2.75,1.02
		c1.01,0,1.93-0.21,2.77-0.63c0.22-0.11,0.38-0.17,0.48-0.17c0.15,0,0.29,0.1,0.4,0.29l1.05,1.81c0.13,0.22,0.19,0.4,0.19,0.53
		c0,0.15-0.08,0.29-0.25,0.42c-0.6,0.41-1.36,0.72-2.27,0.94c-0.91,0.22-1.94,0.34-3.09,0.34
		C328.43,348.88,326.45,348.25,325.04,347z"/>
	<path class="st2" d="M337.92,348.27c-0.19-0.2-0.28-0.5-0.28-0.9v-11.89c0-0.41,0.09-0.71,0.28-0.9c0.19-0.2,0.51-0.29,0.98-0.29
		h2.5c0.48,0,0.81,0.09,1,0.28c0.19,0.19,0.28,0.49,0.28,0.91v11.89c0,0.41-0.09,0.71-0.28,0.9s-0.52,0.29-1,0.29h-2.5
		C338.44,348.56,338.11,348.46,337.92,348.27z"/>
	<path class="st2" d="M344.43,348.27c-0.19-0.2-0.28-0.5-0.28-0.9v-11.89c0-0.41,0.09-0.71,0.28-0.9c0.19-0.2,0.51-0.29,0.98-0.29
		h8.69c0.45,0,0.75,0.09,0.91,0.28c0.16,0.19,0.24,0.49,0.24,0.91v1.18c0,0.42-0.08,0.72-0.24,0.91c-0.16,0.19-0.47,0.28-0.91,0.28
		h-4.91v1.81h3.02c0.45,0,0.75,0.09,0.91,0.28c0.16,0.19,0.24,0.49,0.24,0.91v1.13c0,0.42-0.08,0.72-0.24,0.91
		c-0.16,0.19-0.47,0.28-0.91,0.28h-3.02v1.81h4.89c0.45,0,0.75,0.09,0.91,0.28c0.16,0.19,0.24,0.49,0.24,0.91v1.18
		c0,0.42-0.08,0.72-0.24,0.91c-0.16,0.19-0.47,0.28-0.91,0.28h-8.67C344.95,348.56,344.62,348.46,344.43,348.27z"/>
	<path class="st2" d="M356.48,348.27c-0.19-0.2-0.28-0.5-0.28-0.9v-11.89c0-0.41,0.09-0.71,0.28-0.9c0.19-0.2,0.51-0.29,0.98-0.29
		h5.02c2.1,0,3.63,0.42,4.59,1.25s1.44,2.09,1.44,3.77c0,1.01-0.17,1.86-0.51,2.55c-0.34,0.69-0.87,1.24-1.59,1.63l1.95,4.18
		c0.06,0.11,0.08,0.24,0.08,0.38c0,0.15-0.05,0.28-0.16,0.38c-0.1,0.1-0.24,0.15-0.41,0.15h-3.55c-0.22,0-0.4-0.03-0.54-0.09
		c-0.13-0.06-0.23-0.17-0.28-0.33l-1.55-3.91h-0.71v3.13c0,0.41-0.09,0.71-0.28,0.9s-0.52,0.29-1,0.29h-2.5
		C357,348.56,356.67,348.46,356.48,348.27z M362.04,340.73c0.45,0,0.8-0.12,1.06-0.36c0.26-0.24,0.39-0.59,0.39-1.07
		c0-0.49-0.13-0.85-0.39-1.09c-0.26-0.24-0.61-0.36-1.06-0.36h-1.43v2.88H362.04z"/>
	<path class="st2" d="M371.07,346.93c-1.29-1.29-1.93-3.13-1.93-5.51s0.64-4.22,1.93-5.51c1.29-1.29,3.18-1.94,5.67-1.94
		c2.49,0,4.38,0.65,5.67,1.94s1.93,3.13,1.93,5.51s-0.64,4.22-1.93,5.51c-1.29,1.3-3.18,1.94-5.67,1.94
		C374.25,348.88,372.36,348.23,371.07,346.93z M378.71,344.37c0.41-0.65,0.61-1.63,0.61-2.95c0-1.33-0.2-2.32-0.61-2.96
		c-0.41-0.64-1.06-0.97-1.97-0.97c-0.91,0-1.57,0.32-1.97,0.97c-0.41,0.64-0.61,1.63-0.61,2.96c0,1.32,0.2,2.3,0.61,2.95
		s1.06,0.98,1.97,0.98C377.65,345.35,378.31,345.02,378.71,344.37z"/>
	<path class="st2" d="M387.11,348.48c-1.09-0.27-1.97-0.64-2.65-1.11c-0.28-0.2-0.42-0.38-0.42-0.57c0-0.13,0.05-0.26,0.15-0.4
		l1.22-1.91c0.13-0.18,0.25-0.27,0.38-0.27c0.11,0,0.24,0.05,0.4,0.15c0.5,0.31,1.08,0.55,1.73,0.72c0.65,0.18,1.28,0.26,1.9,0.26
		c0.52,0,0.89-0.07,1.12-0.21s0.35-0.36,0.35-0.65c0-0.32-0.15-0.58-0.46-0.78c-0.31-0.2-0.84-0.44-1.6-0.74
		c-1.41-0.55-2.53-1.17-3.34-1.86c-0.81-0.69-1.22-1.61-1.22-2.76c0-1.46,0.51-2.55,1.52-3.29c1.02-0.74,2.38-1.1,4.11-1.1
		c1.2,0,2.23,0.1,3.08,0.31s1.59,0.54,2.22,0.99c0.28,0.2,0.42,0.38,0.42,0.57c0,0.13-0.05,0.26-0.15,0.4l-1.22,1.91
		c-0.13,0.2-0.25,0.29-0.38,0.29c-0.08,0-0.22-0.06-0.4-0.17c-0.34-0.22-0.73-0.41-1.2-0.56c-0.46-0.15-0.96-0.22-1.49-0.22
		c-0.49,0-0.86,0.07-1.11,0.21c-0.25,0.14-0.38,0.36-0.38,0.67c0,0.25,0.09,0.46,0.26,0.63c0.17,0.17,0.4,0.31,0.66,0.43
		c0.27,0.12,0.73,0.31,1.39,0.58c1.05,0.42,1.88,0.82,2.48,1.21c0.6,0.39,1.06,0.85,1.37,1.39c0.31,0.54,0.46,1.22,0.46,2.05
		c0,1.26-0.47,2.28-1.42,3.06c-0.95,0.78-2.36,1.17-4.23,1.17C389.39,348.88,388.21,348.74,387.11,348.48z"/>
</g>
<g>
	<path class="st3" d="M340.29,273.13v-1.6h-4.48v-1.72v-1.21c0.12-0.26,0.21-0.54,0.32-0.8l36.02-14.6l-0.8-2.05l-13.16-32.51
		l-15.84,6.41l9.89-11.96l-1.68-1.42l-27.01-22.36l-7.17,8.66l-35.9-28.39h-44.92l-54.59,43.16v2h3.37
		c-0.49,0.61-0.79,1.37-0.79,2.21c0,1.96,1.58,3.54,3.55,3.54c0.71,0,1.36-0.21,1.92-0.57v42.35h-2.23v5.95h-6.57v1.59v1.72h-4.48
		v1.6v1.71h-3.86v1.6v1.71h44.91h64.63c0.46,0.44,0.93,0.86,1.41,1.27c0.17,0.15,0.34,0.29,0.51,0.43c0.11,0.09,0.22,0.19,0.33,0.28
		l0.02-0.02c5.14,4.04,11.6,6.48,18.64,6.48c0.99,0,1.96-0.06,2.93-0.15c0.96,0.09,1.94,0.15,2.93,0.15c1.95,0,3.86-0.18,5.71-0.54
		c5.85-1.12,11.1-3.94,15.23-7.91h15.02v-1.71v-1.6h-3.86V273.13z M266.25,214.75h-4.18l0,0L266.25,214.75L266.25,214.75z
		 M253.96,214.75h-4.18l0,0L253.96,214.75L253.96,214.75z M238.95,214.75h-4.18l0,0L238.95,214.75L238.95,214.75z M289.39,214.87
		h-2.52c-0.03-0.04-0.07-0.08-0.1-0.12l2.62,0V214.87z M281.26,214.75h-4.18l0,0L281.26,214.75L281.26,214.75z M226.66,214.75
		C226.66,214.75,226.66,214.75,226.66,214.75l-9.5,0c0,0,0,0,0,0L226.66,214.75z M211.65,214.75c-0.03,0.04-0.07,0.08-0.1,0.13
		h-6.58c-0.03-0.04-0.07-0.08-0.1-0.13L211.65,214.75z M199.36,214.75L199.36,214.75l-9.5,0l0,0L199.36,214.75z"/>
	<g>
		<g>
			<rect x="287.81" y="209.28" class="st4" width="31.65" height="57.76"/>
			<g>
				<g>
					<g>
						<polygon class="st5" points="332.72,210.57 278.9,168 233.98,168 224.31,213.17 332.72,213.17 						"/>
					</g>
					<g>
						<g>
							<g>
								<rect x="232.35" y="215.63" class="st6" width="5.21" height="45.06"/>
								<rect x="237.56" y="215.63" class="st6" width="5.97" height="45.06"/>
							</g>
							<g>
								<rect x="230.12" y="260.69" class="st6" width="7.44" height="5.95"/>
								<rect x="237.56" y="260.69" class="st6" width="8.53" height="5.95"/>
							</g>
							<g>
								<rect x="257.44" y="260.69" class="st6" width="7.44" height="5.95"/>
								<rect x="264.88" y="260.69" class="st6" width="8.53" height="5.95"/>
							</g>
							<g>
								<rect x="312.05" y="260.69" class="st7" width="7.43" height="5.95"/>
								<rect x="319.48" y="260.69" class="st8" width="8.53" height="5.95"/>
							</g>
							<g>
								<rect x="231.84" y="213.17" class="st6" width="11.36" height="4.41"/>
								<g>
									<path class="st6" d="M233.97,215.38c0,1.96-1.59,3.54-3.55,3.54c-1.96,0-3.54-1.58-3.54-3.54c0-1.96,1.58-3.55,3.54-3.55
										C232.39,211.83,233.97,213.42,233.97,215.38z"/>
									<path class="st6" d="M232.51,215.38c0,1.15-0.93,2.08-2.09,2.08c-1.14,0-2.08-0.93-2.08-2.08c0-1.15,0.93-2.08,2.08-2.08
										C231.59,213.29,232.51,214.23,232.51,215.38z"/>
								</g>
								<g>
									<path class="st6" d="M248.99,215.38c0,1.96-1.59,3.54-3.55,3.54c-1.96,0-3.55-1.58-3.55-3.54c0-1.96,1.59-3.55,3.55-3.55
										C247.4,211.83,248.99,213.42,248.99,215.38z"/>
									<path class="st6" d="M247.53,215.38c0,1.15-0.93,2.08-2.08,2.08c-1.14,0-2.08-0.93-2.08-2.08c0-1.15,0.94-2.08,2.08-2.08
										C246.6,213.29,247.53,214.23,247.53,215.38z"/>
								</g>
							</g>
						</g>
						<g>
							<g>
								<rect x="259.65" y="215.63" class="st6" width="5.21" height="45.06"/>
								<rect x="264.86" y="215.63" class="st6" width="5.97" height="45.06"/>
							</g>
							<g>
								<rect x="259.14" y="213.17" class="st6" width="11.36" height="4.41"/>
								<g>
									<path class="st6" d="M261.27,215.38c0,1.96-1.58,3.54-3.54,3.54c-1.96,0-3.54-1.58-3.54-3.54c0-1.96,1.58-3.55,3.54-3.55
										C259.69,211.83,261.27,213.42,261.27,215.38z"/>
									<path class="st6" d="M259.82,215.38c0,1.15-0.93,2.08-2.08,2.08c-1.15,0-2.09-0.93-2.09-2.08c0-1.15,0.94-2.08,2.09-2.08
										C258.88,213.29,259.82,214.23,259.82,215.38z"/>
								</g>
								<g>
									<path class="st6" d="M276.29,215.38c0,1.96-1.59,3.54-3.55,3.54c-1.96,0-3.54-1.58-3.54-3.54c0-1.96,1.58-3.55,3.54-3.55
										C274.7,211.83,276.29,213.42,276.29,215.38z"/>
									<path class="st6" d="M274.83,215.38c0,1.15-0.93,2.08-2.08,2.08c-1.14,0-2.08-0.93-2.08-2.08c0-1.15,0.93-2.08,2.08-2.08
										C273.9,213.29,274.83,214.23,274.83,215.38z"/>
								</g>
							</g>
						</g>
						<g>
							<g>
								<rect x="314.26" y="215.63" class="st8" width="5.2" height="45.06"/>
								<rect x="319.46" y="215.63" class="st7" width="5.97" height="45.06"/>
							</g>
							<g>
								<rect x="313.74" y="213.17" class="st7" width="11.36" height="4.41"/>
								<g>
									<path class="st9" d="M315.88,215.38c0,1.96-1.58,3.54-3.54,3.54c-1.96,0-3.55-1.58-3.55-3.54c0-1.96,1.59-3.55,3.55-3.55
										C314.29,211.83,315.88,213.42,315.88,215.38z"/>
									<path class="st7" d="M314.42,215.38c0,1.15-0.93,2.08-2.08,2.08c-1.15,0-2.08-0.93-2.08-2.08c0-1.15,0.94-2.08,2.08-2.08
										C313.49,213.29,314.42,214.23,314.42,215.38z"/>
								</g>
								<g>
									<path class="st9" d="M330.89,215.38c0,1.96-1.58,3.54-3.54,3.54c-1.96,0-3.54-1.58-3.54-3.54c0-1.96,1.58-3.55,3.54-3.55
										C329.31,211.83,330.89,213.42,330.89,215.38z"/>
									<path class="st7" d="M329.43,215.38c0,1.15-0.93,2.08-2.08,2.08c-1.15,0-2.08-0.93-2.08-2.08c0-1.15,0.93-2.08,2.08-2.08
										C328.5,213.29,329.43,214.23,329.43,215.38z"/>
								</g>
							</g>
						</g>
					</g>
					<polygon class="st8" points="223.55,266.65 223.55,268.24 223.55,269.95 334.23,269.95 334.23,268.24 334.23,266.65 					"/>
					<polygon class="st10" points="219.06,269.95 219.06,271.55 219.06,273.26 338.71,273.26 338.71,271.55 338.71,269.95 					"/>
					<polygon class="st8" points="215.21,273.26 215.21,274.86 215.21,276.57 342.57,276.57 342.57,274.86 342.57,273.26 					"/>
				</g>
			</g>
			<g>
				<g>
					<rect x="189.55" y="213.29" class="st11" width="98.25" height="53.77"/>
					<g>
						<polygon class="st2" points="287.81,210.57 233.98,168 179.39,211.16 179.39,213.17 287.81,213.17 						"/>
					</g>
					<g>
						<polygon class="st12" points="275.8,207.27 233.9,174.12 191.41,207.72 191.41,209.28 275.8,209.28 						"/>
					</g>
					<g>
						<g>
							<g>
								<rect x="187.44" y="215.63" class="st2" width="5.21" height="45.06"/>
								<rect x="192.65" y="215.63" class="st13" width="5.96" height="45.06"/>
							</g>
							<g>
								<rect x="185.21" y="260.69" class="st13" width="7.44" height="5.95"/>
								<rect x="192.65" y="260.69" class="st2" width="8.53" height="5.95"/>
							</g>
							<g>
								<rect x="212.53" y="260.69" class="st13" width="7.44" height="5.95"/>
								<rect x="219.97" y="260.69" class="st2" width="8.53" height="5.95"/>
							</g>
							<g>
								<rect x="239.83" y="260.69" class="st13" width="7.44" height="5.95"/>
								<rect x="247.27" y="260.69" class="st2" width="8.53" height="5.95"/>
							</g>
							<g>
								<rect x="267.13" y="260.69" class="st13" width="7.43" height="5.95"/>
								<rect x="274.57" y="260.69" class="st2" width="8.53" height="5.95"/>
							</g>
							<g>
								<rect x="186.92" y="213.17" class="st13" width="11.36" height="4.41"/>
								<g>
									<path class="st14" d="M189.07,215.38c0,1.96-1.59,3.54-3.55,3.54c-1.96,0-3.55-1.58-3.55-3.54c0-1.96,1.58-3.55,3.55-3.55
										C187.48,211.83,189.07,213.42,189.07,215.38z"/>
									<path class="st13" d="M187.6,215.38c0,1.15-0.93,2.08-2.08,2.08c-1.15,0-2.09-0.93-2.09-2.08c0-1.15,0.93-2.08,2.09-2.08
										C186.67,213.29,187.6,214.23,187.6,215.38z"/>
								</g>
								<g>
									<path class="st14" d="M204.08,215.38c0,1.96-1.59,3.54-3.54,3.54c-1.96,0-3.54-1.58-3.54-3.54c0-1.96,1.58-3.55,3.54-3.55
										C202.49,211.83,204.08,213.42,204.08,215.38z"/>
									<path class="st13" d="M202.61,215.38c0,1.15-0.94,2.08-2.08,2.08c-1.15,0-2.08-0.93-2.08-2.08c0-1.15,0.93-2.08,2.08-2.08
										C201.68,213.29,202.61,214.23,202.61,215.38z"/>
								</g>
							</g>
						</g>
						<g>
							<g>
								<rect x="214.74" y="215.63" class="st2" width="5.21" height="45.06"/>
								<rect x="219.95" y="215.63" class="st13" width="5.97" height="45.06"/>
							</g>
							<g>
								<rect x="214.23" y="213.17" class="st13" width="11.36" height="4.41"/>
								<g>
									<path class="st14" d="M216.36,215.38c0,1.96-1.58,3.54-3.54,3.54c-1.96,0-3.54-1.58-3.54-3.54c0-1.96,1.58-3.55,3.54-3.55
										C214.78,211.83,216.36,213.42,216.36,215.38z"/>
									<path class="st13" d="M214.9,215.38c0,1.15-0.93,2.08-2.08,2.08c-1.15,0-2.09-0.93-2.09-2.08c0-1.15,0.94-2.08,2.09-2.08
										C213.97,213.29,214.9,214.23,214.9,215.38z"/>
								</g>
								<g>
									<path class="st14" d="M231.38,215.38c0,1.96-1.59,3.54-3.54,3.54c-1.96,0-3.54-1.58-3.54-3.54c0-1.96,1.59-3.55,3.54-3.55
										C229.79,211.83,231.38,213.42,231.38,215.38z"/>
									<path class="st13" d="M229.91,215.38c0,1.15-0.93,2.08-2.08,2.08c-1.15,0-2.08-0.93-2.08-2.08c0-1.15,0.93-2.08,2.08-2.08
										C228.98,213.29,229.91,214.23,229.91,215.38z"/>
								</g>
							</g>
						</g>
						<g>
							<g>
								<rect x="242.04" y="215.63" class="st2" width="5.21" height="45.06"/>
								<rect x="247.25" y="215.63" class="st13" width="5.96" height="45.06"/>
							</g>
							<g>
								<rect x="241.52" y="213.17" class="st13" width="11.36" height="4.41"/>
								<g>
									<path class="st14" d="M243.66,215.38c0,1.96-1.59,3.54-3.54,3.54c-1.96,0-3.54-1.58-3.54-3.54c0-1.96,1.59-3.55,3.54-3.55
										C242.08,211.83,243.66,213.42,243.66,215.38z"/>
									<path class="st13" d="M242.2,215.38c0,1.15-0.93,2.08-2.08,2.08c-1.15,0-2.08-0.93-2.08-2.08c0-1.15,0.94-2.08,2.08-2.08
										C241.27,213.29,242.2,214.23,242.2,215.38z"/>
								</g>
								<g>
									<path class="st14" d="M258.68,215.38c0,1.96-1.59,3.54-3.55,3.54c-1.96,0-3.54-1.58-3.54-3.54c0-1.96,1.59-3.55,3.54-3.55
										C257.09,211.83,258.68,213.42,258.68,215.38z"/>
									<path class="st13" d="M257.21,215.38c0,1.15-0.93,2.08-2.08,2.08c-1.15,0-2.08-0.93-2.08-2.08c0-1.15,0.93-2.08,2.08-2.08
										C256.28,213.29,257.21,214.23,257.21,215.38z"/>
								</g>
							</g>
						</g>
						<g>
							<g>
								<rect x="269.34" y="215.63" class="st2" width="5.21" height="45.06"/>
								<rect x="274.55" y="215.63" class="st13" width="5.96" height="45.06"/>
							</g>
							<g>
								<rect x="268.82" y="213.17" class="st13" width="11.36" height="4.41"/>
								<g>
									<path class="st14" d="M270.97,215.38c0,1.96-1.59,3.54-3.54,3.54c-1.96,0-3.55-1.58-3.55-3.54c0-1.96,1.59-3.55,3.55-3.55
										C269.38,211.83,270.97,213.42,270.97,215.38z"/>
									<path class="st13" d="M269.5,215.38c0,1.15-0.93,2.08-2.08,2.08c-1.15,0-2.09-0.93-2.09-2.08c0-1.15,0.94-2.08,2.09-2.08
										C268.57,213.29,269.5,214.23,269.5,215.38z"/>
								</g>
								<g>
									<path class="st14" d="M285.98,215.38c0,1.96-1.59,3.54-3.54,3.54c-1.96,0-3.54-1.58-3.54-3.54c0-1.96,1.59-3.55,3.54-3.55
										C284.39,211.83,285.98,213.42,285.98,215.38z"/>
									<path class="st13" d="M284.51,215.38c0,1.15-0.93,2.08-2.07,2.08c-1.15,0-2.08-0.93-2.08-2.08c0-1.15,0.93-2.08,2.08-2.08
										C283.58,213.29,284.51,214.23,284.51,215.38z"/>
								</g>
							</g>
						</g>
					</g>
					<polygon class="st2" points="178.64,266.65 178.64,268.24 178.64,269.95 289.32,269.95 289.32,268.24 289.32,266.65 					"/>
					<polygon class="st15" points="174.16,269.95 174.16,271.55 174.16,273.26 293.8,273.26 293.8,271.55 293.8,269.95 					"/>
					<polygon class="st2" points="170.29,273.26 170.29,274.86 170.29,276.57 297.66,276.57 297.66,274.86 297.66,273.26 					"/>
				</g>
				<g>
					<path class="st2" d="M223.31,201.37c0,2.32-1.86,3.05-4.43,3.05h-3.18v-10.58h2.77c2.73,0,4.38,0.77,4.38,2.7
						c0,1.32-0.95,2.06-1.96,2.28C222.1,199.04,223.31,199.61,223.31,201.37z M217.72,198.18h1.24c1.11,0,1.82-0.49,1.82-1.48
						c0-1.07-0.74-1.38-2.11-1.38h-0.95V198.18z M221.19,201.3c0-1.28-0.9-1.71-2.08-1.71h-1.4v3.31h1.18
						C220.23,202.9,221.19,202.62,221.19,201.3z"/>
					<path class="st2" d="M226.22,201.96l-0.66,2.45h-2.1l3.3-10.58h2.49l3.28,10.58h-2.14l-0.66-2.45H226.22z M227.97,195.38
						l-1.35,5.06h2.69L227.97,195.38z"/>
					<path class="st2" d="M238.9,204.42l-3.63-8.56c0.11,0.94,0.27,2.29,0.27,4.24v4.32h-1.84v-10.58h2.56l3.69,8.58
						c-0.09-0.58-0.27-2.11-0.27-3.61v-4.97h1.84v10.58H238.9z"/>
					<path class="st2" d="M244,204.42v-10.58h2.02v10.58H244z M252.25,204.42h-2.4l-3.73-5.65l3.66-4.93h2.19l-3.66,4.8
						L252.25,204.42z"/>
				</g>
			</g>
		</g>
		<g>
			<g>
				<polygon class="st16" points="309.01,276.57 308.18,274.5 369.77,249.57 370.57,251.62 				"/>
				<g>
					
						<rect x="299.18" y="228.25" transform="matrix(0.9269 -0.3752 0.3752 0.9269 -67.9322 142.6681)" class="st17" width="66.45" height="35.07"/>
					<path class="st18" d="M352.57,226.6l7.66,18.91l-48.01,19.44l-7.66-18.91L352.57,226.6L352.57,226.6z M355.26,220.22
						l-57.08,23.11l11.34,27.99l57.07-23.11L355.26,220.22L355.26,220.22z"/>
					<path class="st18" d="M307.69,239.48c2.12,5.25-0.4,11.24-5.64,13.36l-3.86-9.51L307.69,239.48z"/>
					<path class="st18" d="M345.77,224.07c2.12,5.25,8.1,7.79,13.35,5.67l-3.86-9.52L345.77,224.07z"/>
					<path class="st18" d="M319.02,267.48c-2.12-5.24-8.09-7.77-13.34-5.65l3.85,9.49L319.02,267.48z"/>
					<path class="st18" d="M357.1,252.07c-2.12-5.25,0.41-11.22,5.66-13.35l3.85,9.5L357.1,252.07z"/>
					<path class="st18" d="M319.96,251.06c-1.01-2.48-3.84-3.68-6.32-2.68c-2.49,1.01-3.68,3.84-2.68,6.32
						c1.01,2.48,3.83,3.68,6.31,2.68C319.76,256.37,320.96,253.54,319.96,251.06z"/>
					<path class="st18" d="M340.8,242.38c-1.88-4.64-7.15-6.87-11.78-4.99c-4.64,1.87-6.88,7.15-5,11.79
						c1.88,4.63,7.17,6.87,11.79,5C340.44,252.29,342.67,247.01,340.8,242.38z"/>
					<path class="st18" d="M352.4,237.93c-1-2.48-3.83-3.68-6.32-2.68c-2.48,1-3.68,3.85-2.68,6.32c1,2.48,3.84,3.67,6.32,2.67
						C352.2,243.24,353.4,240.41,352.4,237.93z"/>
					<path class="st19" d="M327.84,244.65c-0.83-2.05,0.16-3.23,1.72-3.92l-0.5-1.23l1.37-0.55l0.5,1.24
						c1.04-0.35,1.87-0.51,2.67-0.59l0.74,1.85c-0.9,0.27-2.47,0.82-3.17,1.1c-0.83,0.34-1.22,0.57-0.89,1.37l0.13,0.34
						c0.25,0.62,0.62,0.77,1.37,0.46l1.15-0.46c2.13-0.87,3.28,0.7,3.74,1.84l0.24,0.6c0.99,2.44-0.24,3.57-1.67,4.14l0.48,1.19
						l-1.37,0.55l-0.48-1.2c-1.19,0.44-1.64,0.5-2.69,0.58l-0.74-1.82c0.59-0.19,2.05-0.67,3.38-1.2c0.6-0.24,1.04-0.59,0.78-1.21
						l-0.17-0.42c-0.21-0.51-0.5-0.75-1.2-0.48l-1.11,0.45c-2.56,1.04-3.61-0.99-3.93-1.78L327.84,244.65z"/>
				</g>
			</g>
			<g>
				<polygon class="st16" points="308.33,262.7 306.62,261.28 348.98,210.09 350.66,211.52 				"/>
				<g>
					<polygon class="st17" points="306.62,261.28 279.6,238.91 321.97,187.73 348.98,210.09 					"/>
					<path class="st18" d="M322.94,198.05l15.71,13.01l-33.02,39.9l-15.71-13.01L322.94,198.05L322.94,198.05z M322.28,191.15
						l-39.26,47.43l23.27,19.26l39.26-47.43L322.28,191.15L322.28,191.15z"/>
					<path class="st18" d="M289.55,230.7c4.37,3.61,4.99,10.08,1.38,14.43l-7.91-6.54L289.55,230.7z"/>
					<path class="st18" d="M315.74,199.05c4.37,3.61,10.84,3.01,14.45-1.35l-7.91-6.54L315.74,199.05z"/>
					<path class="st18" d="M312.82,249.95c-4.36-3.61-10.82-3-14.43,1.36l7.9,6.53L312.82,249.95z"/>
					<path class="st18" d="M339.02,218.31c-4.36-3.61-4.97-10.07-1.36-14.43l7.89,6.53L339.02,218.31z"/>
					<path class="st18" d="M305.85,235.06c-2.06-1.7-5.12-1.42-6.83,0.64c-1.71,2.07-1.41,5.13,0.64,6.83
						c2.06,1.71,5.12,1.42,6.82-0.64C308.2,239.82,307.91,236.76,305.85,235.06z"/>
					<path class="st18" d="M320.07,217.52c-3.85-3.19-9.56-2.65-12.74,1.2c-3.19,3.85-2.65,9.56,1.2,12.75
						c3.85,3.19,9.56,2.65,12.75-1.21C324.46,226.42,323.92,220.71,320.07,217.52z"/>
					<path class="st18" d="M328.17,208.1c-2.06-1.7-5.12-1.42-6.83,0.64c-1.71,2.06-1.42,5.13,0.64,6.83
						c2.06,1.71,5.12,1.41,6.83-0.65C330.51,212.86,330.22,209.81,328.17,208.1z"/>
					<path class="st19" d="M309.75,225.68c-1.71-1.41-1.4-2.92-0.35-4.27l-1.02-0.85l0.94-1.13l1.03,0.86
						c0.75-0.8,1.4-1.34,2.07-1.78l1.53,1.27c-0.67,0.66-1.79,1.89-2.27,2.48c-0.58,0.7-0.8,1.08-0.14,1.62l0.29,0.24
						c0.51,0.42,0.9,0.39,1.42-0.24l0.79-0.96c1.46-1.77,3.21-0.93,4.16-0.15l0.5,0.41c2.03,1.68,1.48,3.26,0.5,4.45l0.99,0.81
						l-0.94,1.13l-0.99-0.82c-0.83,0.95-1.2,1.22-2.09,1.79l-1.51-1.25c0.43-0.44,1.48-1.55,2.4-2.65c0.41-0.5,0.63-1,0.11-1.43
						l-0.34-0.29c-0.43-0.35-0.8-0.43-1.28,0.15l-0.76,0.92c-1.77,2.14-3.65,0.85-4.3,0.31L309.75,225.68z"/>
				</g>
			</g>
		</g>
		<g>
			<g>
				<g>
					<g>
						<path class="st20" d="M276.43,254.83c0,16.67,13.51,30.19,30.19,30.19v-60.38C289.94,224.64,276.43,238.15,276.43,254.83z"/>
						<path class="st20" d="M336.81,254.83c0,3.16-0.49,6.19-1.38,9.05c-1.29,4.11-3.44,7.85-6.24,10.99
							c-4.32,4.87-10.21,8.33-16.86,9.6c-1.84,0.35-3.75,0.54-5.71,0.54v-60.38c0.68,0,1.36,0.02,2.04,0.07
							C324.37,225.76,336.81,238.84,336.81,254.83z"/>
					</g>
					<path class="st21" d="M300.76,224.64c-16.67,0-30.19,13.51-30.19,30.19c0,16.67,13.51,30.19,30.19,30.19
						c16.67,0,30.19-13.52,30.19-30.19C330.95,238.15,317.43,224.64,300.76,224.64z"/>
					<g>
						<path class="st20" d="M275.65,254.83c0,13.87,11.24,25.11,25.11,25.11v-50.22C286.89,229.72,275.65,240.96,275.65,254.83z"/>
						<path class="st22" d="M300.76,229.72v50.22c13.87,0,25.11-11.24,25.11-25.11C325.87,240.96,314.62,229.72,300.76,229.72z"/>
					</g>
					<path class="st21" d="M300.76,276.13c-11.75,0-21.31-9.56-21.31-21.3c0-11.75,9.56-21.31,21.31-21.31
						c11.75,0,21.3,9.56,21.3,21.31C322.06,266.58,312.51,276.13,300.76,276.13z M300.76,234.47c-11.23,0-20.36,9.13-20.36,20.36
						c0,11.23,9.13,20.36,20.36,20.36c11.23,0,20.35-9.13,20.35-20.36C321.11,243.6,311.99,234.47,300.76,234.47z"/>
					<g>
						<path class="st21" d="M285.78,247.35c0-2.75,1.23-4.37,4.5-4.37h3.27c3.17,0,4.44,1.62,4.44,4.37v3.66
							c0,2.75-1.23,4.37-4.5,4.37h-3.27c-3.17,0-4.43-1.62-4.43-4.37V247.35z M291.03,251.33h1.65c1.1,0,1.26-0.58,1.26-1.3v-1.72
							c0-1.07-0.39-1.29-1.2-1.29h-1.65c-0.71,0-1.27,0.19-1.27,1.29v1.72C289.82,250.75,289.96,251.33,291.03,251.33z
							 M305.92,242.98h4.01l-14.47,23.7h-4.24L305.92,242.98z M303.4,258.55c0-2.76,1.2-4.37,4.47-4.37h3.3
							c3.17,0,4.44,1.62,4.44,4.37v3.66c0,2.75-1.23,4.37-4.5,4.37h-3.3c-3.17,0-4.4-1.62-4.4-4.37V258.55z M308.64,262.53h1.62
							c1.1,0,1.3-0.58,1.3-1.29v-1.72c0-1.07-0.42-1.29-1.23-1.29h-1.62c-0.71,0-1.26,0.19-1.26,1.29v1.72
							C307.44,261.95,307.57,262.53,308.64,262.53z"/>
					</g>
				</g>
				<g class="st23">
					<path class="st21" d="M293.48,225.53l-22.02,22.02c-0.57,2.31-0.88,4.73-0.88,7.21l30.12-30.12
						C298.21,224.65,295.79,224.95,293.48,225.53z"/>
					<path class="st21" d="M311.27,226.52l-38.82,38.82c1.95,5.25,5.32,9.81,9.65,13.21l42.39-42.39
						C321.09,231.85,316.52,228.48,311.27,226.52z"/>
				</g>
			</g>
		</g>
	</g>
</g>
<g>
</g>
<g>
</g>
<g>
</g>
<g>
</g>
<g>
</g>
<g>
</g>
<g>
</g>
<g>
</g>
<g>
</g>
<g>
</g>
<g>
</g>
<g>
</g>
<g>
</g>
<g>
</g>
<g>
</g>
</svg>
