<?xml version="1.0" encoding="utf-8"?>
<!-- Generator: Adobe Illustrator 23.0.0, SVG Export Plug-In . SVG Version: 6.00 Build 0)  -->
<svg version="1.1" id="Capa_1" xmlns="http://www.w3.org/2000/svg" xmlns:xlink="http://www.w3.org/1999/xlink" x="0px" y="0px"
	 viewBox="0 0 522 489" style="enable-background:new 0 0 522 489;" xml:space="preserve">
<style type="text/css">
	.st0{fill:#002E44;}
	.st1{fill:#0085B0;}
	.st2{fill:#FFFFFF;}
	.st3{fill:#F2F2F2;}
	.st4{fill:#0C387D;}
	.st5{fill:#C69A81;}
	.st6{fill:#D1A385;}
	.st7{fill:#534D46;}
	.st8{fill:#EAEAEA;}
	.st9{fill:#093E8C;}
	.st10{fill:#0B2A62;}
</style>
<g>
	<g>
		<circle class="st0" cx="272.5" cy="141.1" r="111.95"/>
		<circle class="st0" cx="161.03" cy="296.15" r="111.95"/>
		<circle class="st0" cx="346.05" cy="336.39" r="111.95"/>
	</g>
</g>
<g>
	<circle class="st1" cx="268.37" cy="265.14" r="161.61"/>
</g>
<g>
	<path class="st2" d="M148.26,311.98c-0.24-0.25-0.36-0.64-0.36-1.16v-15.28c0-0.52,0.12-0.91,0.36-1.16
		c0.24-0.25,0.66-0.38,1.26-0.38h11.18c0.58,0,0.97,0.12,1.17,0.37c0.21,0.24,0.31,0.63,0.31,1.17v1.51c0,0.54-0.1,0.93-0.31,1.17
		c-0.21,0.24-0.6,0.37-1.17,0.37h-6.32v2.29h3.89c0.58,0,0.97,0.12,1.17,0.36s0.31,0.63,0.31,1.17v1.51c0,0.54-0.1,0.93-0.31,1.17
		c-0.21,0.24-0.6,0.36-1.17,0.36h-3.89v5.35c0,0.52-0.12,0.91-0.36,1.16s-0.67,0.38-1.28,0.38h-3.21
		C148.92,312.36,148.51,312.24,148.26,311.98z"/>
	<path class="st2" d="M167.2,311.92c-1.33-0.57-2.37-1.39-3.1-2.46c-0.74-1.07-1.11-2.34-1.11-3.82v-10.1
		c0-0.52,0.12-0.91,0.36-1.16c0.24-0.25,0.66-0.38,1.26-0.38h3.21c0.61,0,1.04,0.12,1.28,0.37c0.24,0.24,0.36,0.63,0.36,1.17v10.18
		c0,0.85,0.21,1.48,0.63,1.89s1,0.62,1.74,0.62c0.74,0,1.32-0.21,1.74-0.62c0.42-0.41,0.63-1.04,0.63-1.89v-10.18
		c0-0.52,0.12-0.91,0.36-1.16c0.24-0.25,0.66-0.38,1.26-0.38h3.21c0.61,0,1.04,0.12,1.28,0.37c0.24,0.24,0.36,0.63,0.36,1.17v10.1
		c0,1.48-0.37,2.75-1.11,3.82c-0.74,1.07-1.77,1.89-3.1,2.46c-1.33,0.57-2.88,0.85-4.64,0.85
		C170.08,312.77,168.54,312.48,167.2,311.92z"/>
	<path class="st2" d="M182.82,311.98c-0.24-0.25-0.36-0.64-0.36-1.16v-15.31c0-0.52,0.12-0.91,0.36-1.15
		c0.24-0.24,0.67-0.37,1.28-0.37h2.57c0.38,0,0.67,0.05,0.88,0.15c0.21,0.1,0.41,0.29,0.61,0.58l4.89,7.26v-6.45
		c0-0.52,0.12-0.91,0.36-1.16c0.24-0.25,0.66-0.38,1.26-0.38h3.21c0.61,0,1.04,0.12,1.28,0.37c0.24,0.24,0.36,0.63,0.36,1.17v15.31
		c0,0.52-0.12,0.9-0.36,1.15s-0.67,0.36-1.28,0.36h-2.56c-0.38,0-0.67-0.05-0.88-0.15c-0.21-0.1-0.41-0.29-0.61-0.58l-4.89-7.26
		v6.48c0,0.52-0.12,0.9-0.36,1.15s-0.67,0.36-1.28,0.36h-3.21C183.48,312.36,183.07,312.24,182.82,311.98z"/>
	<path class="st2" d="M203.6,310.35c-1.82-1.61-2.73-4-2.73-7.17c0-3.19,0.88-5.58,2.63-7.18c1.75-1.6,4.26-2.4,7.52-2.4
		c1.48,0,2.79,0.14,3.94,0.43c1.15,0.29,2.11,0.69,2.89,1.21c0.22,0.16,0.32,0.34,0.32,0.54c0,0.16-0.08,0.39-0.24,0.67l-1.35,2.32
		c-0.14,0.25-0.32,0.38-0.51,0.38c-0.13,0-0.33-0.07-0.62-0.22c-0.5-0.25-1.03-0.45-1.58-0.59c-0.55-0.14-1.19-0.22-1.93-0.22
		c-1.49,0-2.64,0.43-3.43,1.3c-0.79,0.86-1.19,2.12-1.19,3.75c0,1.62,0.43,2.87,1.3,3.74c0.86,0.87,2.04,1.31,3.54,1.31
		c1.3,0,2.48-0.27,3.56-0.81c0.29-0.14,0.5-0.22,0.62-0.22c0.2,0,0.37,0.13,0.51,0.38l1.35,2.32c0.16,0.29,0.24,0.51,0.24,0.67
		c0,0.2-0.11,0.38-0.32,0.54c-0.77,0.52-1.75,0.93-2.92,1.21c-1.17,0.29-2.49,0.43-3.97,0.43
		C207.96,312.77,205.42,311.96,203.6,310.35z"/>
	<path class="st2" d="M220.16,311.98c-0.24-0.25-0.36-0.64-0.36-1.16v-15.28c0-0.52,0.12-0.91,0.36-1.16
		c0.24-0.25,0.66-0.38,1.26-0.38h3.21c0.61,0,1.04,0.12,1.28,0.37c0.24,0.24,0.36,0.63,0.36,1.17v15.28c0,0.52-0.12,0.91-0.36,1.16
		s-0.67,0.38-1.28,0.38h-3.21C220.82,312.36,220.41,312.24,220.16,311.98z"/>
	<path class="st2" d="M230.11,310.27c-1.66-1.66-2.48-4.03-2.48-7.09c0-3.06,0.83-5.42,2.48-7.09c1.66-1.67,4.09-2.5,7.29-2.5
		c3.2,0,5.63,0.83,7.29,2.5c1.66,1.67,2.48,4.03,2.48,7.09c0,3.06-0.83,5.42-2.48,7.09c-1.66,1.67-4.09,2.5-7.29,2.5
		C234.2,312.77,231.77,311.93,230.11,310.27z M239.94,306.98c0.52-0.84,0.78-2.1,0.78-3.79c0-1.71-0.26-2.98-0.78-3.81
		c-0.52-0.83-1.37-1.24-2.54-1.24c-1.17,0-2.02,0.41-2.54,1.24c-0.52,0.83-0.78,2.1-0.78,3.81c0,1.69,0.26,2.96,0.78,3.79
		c0.52,0.84,1.37,1.26,2.54,1.26C238.57,308.23,239.42,307.81,239.94,306.98z"/>
	<path class="st2" d="M248.89,311.98c-0.24-0.25-0.36-0.64-0.36-1.16v-15.31c0-0.52,0.12-0.91,0.36-1.15
		c0.24-0.24,0.67-0.37,1.28-0.37h2.57c0.38,0,0.67,0.05,0.88,0.15c0.21,0.1,0.41,0.29,0.61,0.58l4.89,7.26v-6.45
		c0-0.52,0.12-0.91,0.36-1.16c0.24-0.25,0.66-0.38,1.26-0.38h3.21c0.61,0,1.04,0.12,1.28,0.37c0.24,0.24,0.36,0.63,0.36,1.17v15.31
		c0,0.52-0.12,0.9-0.36,1.15s-0.67,0.36-1.28,0.36h-2.56c-0.38,0-0.67-0.05-0.88-0.15c-0.21-0.1-0.41-0.29-0.61-0.58l-4.89-7.26
		v6.48c0,0.52-0.12,0.9-0.36,1.15s-0.67,0.36-1.28,0.36h-3.21C249.55,312.36,249.13,312.24,248.89,311.98z"/>
	<path class="st2" d="M266.94,311.79c0-0.16,0.04-0.36,0.14-0.59l6.72-16.17c0.16-0.38,0.35-0.64,0.55-0.8
		c0.21-0.15,0.5-0.23,0.88-0.23h2.94c0.38,0,0.67,0.08,0.88,0.23c0.21,0.15,0.39,0.42,0.55,0.8l6.7,16.17
		c0.09,0.23,0.13,0.43,0.13,0.59c0,0.38-0.2,0.57-0.59,0.57h-5.08c-0.56,0-0.91-0.24-1.05-0.73l-0.65-2h-4.78l-0.62,2
		c-0.14,0.49-0.5,0.73-1.05,0.73h-5.08C267.14,312.36,266.94,312.17,266.94,311.79z M277.74,305.37l-1.05-3.35l-1.05,3.35H277.74z"
		/>
	<path class="st2" d="M288.15,311.98c-0.24-0.25-0.36-0.64-0.36-1.16v-15.28c0-0.52,0.12-0.91,0.36-1.16
		c0.24-0.25,0.66-0.38,1.26-0.38h3.21c0.61,0,1.04,0.12,1.28,0.37c0.24,0.24,0.36,0.63,0.36,1.17v12.23h6.29
		c0.58,0,0.97,0.12,1.17,0.36c0.21,0.24,0.31,0.63,0.31,1.17v1.51c0,0.54-0.1,0.93-0.31,1.17c-0.21,0.24-0.6,0.36-1.17,0.36H289.4
		C288.81,312.36,288.39,312.24,288.15,311.98z"/>
	<path class="st2" d="M303.21,311.98c-0.24-0.25-0.36-0.64-0.36-1.16v-15.28c0-0.52,0.12-0.91,0.36-1.16
		c0.24-0.25,0.66-0.38,1.26-0.38h3.21c0.61,0,1.04,0.12,1.28,0.37c0.24,0.24,0.36,0.63,0.36,1.17v15.28c0,0.52-0.12,0.91-0.36,1.16
		s-0.67,0.38-1.28,0.38h-3.21C303.88,312.36,303.46,312.24,303.21,311.98z"/>
	<path class="st2" d="M311.58,311.98c-0.24-0.25-0.36-0.64-0.36-1.16v-15.28c0-0.52,0.12-0.91,0.36-1.16
		c0.24-0.25,0.66-0.38,1.26-0.38h6.21c6.35,0,9.53,3.06,9.53,9.18c0,3.02-0.81,5.31-2.44,6.86c-1.63,1.55-3.99,2.32-7.09,2.32h-6.21
		C312.25,312.36,311.83,312.24,311.58,311.98z M319.29,307.77c1.01,0,1.73-0.33,2.17-1c0.44-0.67,0.66-1.86,0.66-3.59
		c0-1.73-0.22-2.92-0.66-3.59c-0.44-0.67-1.17-1-2.17-1h-1.59v9.18H319.29z"/>
	<path class="st2" d="M328.18,311.79c0-0.16,0.04-0.36,0.14-0.59l6.72-16.17c0.16-0.38,0.35-0.64,0.55-0.8
		c0.21-0.15,0.5-0.23,0.88-0.23h2.94c0.38,0,0.67,0.08,0.88,0.23c0.21,0.15,0.39,0.42,0.55,0.8l6.7,16.17
		c0.09,0.23,0.13,0.43,0.13,0.59c0,0.38-0.2,0.57-0.59,0.57H342c-0.56,0-0.91-0.24-1.05-0.73l-0.65-2h-4.78l-0.62,2
		c-0.14,0.49-0.5,0.73-1.05,0.73h-5.08C328.37,312.36,328.18,312.17,328.18,311.79z M338.98,305.37l-1.05-3.35l-1.05,3.35H338.98z"
		/>
	<path class="st2" d="M349.38,311.98c-0.24-0.25-0.36-0.64-0.36-1.16v-15.28c0-0.52,0.12-0.91,0.36-1.16
		c0.24-0.25,0.66-0.38,1.26-0.38h6.21c6.35,0,9.53,3.06,9.53,9.18c0,3.02-0.81,5.31-2.44,6.86c-1.63,1.55-3.99,2.32-7.09,2.32h-6.21
		C350.05,312.36,349.63,312.24,349.38,311.98z M357.09,307.77c1.01,0,1.73-0.33,2.17-1c0.44-0.67,0.66-1.86,0.66-3.59
		c0-1.73-0.22-2.92-0.66-3.59c-0.44-0.67-1.17-1-2.17-1h-1.59v9.18H357.09z"/>
	<path class="st2" d="M368.1,311.98c-0.24-0.25-0.36-0.64-0.36-1.16v-15.28c0-0.52,0.12-0.91,0.36-1.16
		c0.24-0.25,0.66-0.38,1.26-0.38h11.18c0.58,0,0.97,0.12,1.17,0.37c0.21,0.24,0.31,0.63,0.31,1.17v1.51c0,0.54-0.1,0.93-0.31,1.17
		c-0.21,0.24-0.6,0.37-1.17,0.37h-6.32v2.32h3.89c0.58,0,0.97,0.12,1.17,0.36c0.21,0.24,0.31,0.63,0.31,1.17v1.46
		c0,0.54-0.1,0.93-0.31,1.17s-0.6,0.36-1.17,0.36h-3.89v2.32h6.29c0.58,0,0.97,0.12,1.17,0.36c0.21,0.24,0.31,0.63,0.31,1.17v1.51
		c0,0.54-0.1,0.93-0.31,1.17c-0.21,0.24-0.6,0.36-1.17,0.36h-11.15C368.76,312.36,368.34,312.24,368.1,311.98z"/>
	<path class="st2" d="M386.66,312.25c-1.4-0.34-2.54-0.82-3.4-1.43c-0.36-0.25-0.54-0.5-0.54-0.73c0-0.16,0.06-0.33,0.19-0.51
		l1.57-2.46c0.16-0.23,0.32-0.35,0.49-0.35c0.14,0,0.31,0.06,0.51,0.19c0.65,0.4,1.39,0.71,2.23,0.93c0.84,0.23,1.65,0.34,2.44,0.34
		c0.67,0,1.15-0.09,1.44-0.27c0.3-0.18,0.45-0.46,0.45-0.84c0-0.41-0.2-0.75-0.59-1c-0.4-0.25-1.08-0.57-2.05-0.94
		c-1.82-0.7-3.25-1.5-4.29-2.39c-1.04-0.89-1.57-2.07-1.57-3.55c0-1.87,0.65-3.28,1.96-4.23c1.3-0.95,3.06-1.42,5.28-1.42
		c1.55,0,2.87,0.13,3.96,0.4c1.09,0.27,2.04,0.69,2.85,1.27c0.36,0.25,0.54,0.5,0.54,0.73c0,0.16-0.06,0.33-0.19,0.51l-1.57,2.46
		c-0.16,0.25-0.32,0.38-0.49,0.38c-0.11,0-0.28-0.07-0.51-0.22c-0.43-0.29-0.94-0.53-1.54-0.71c-0.59-0.19-1.23-0.28-1.92-0.28
		c-0.63,0-1.11,0.09-1.43,0.27c-0.32,0.18-0.49,0.47-0.49,0.86c0,0.32,0.11,0.59,0.34,0.81c0.22,0.22,0.51,0.4,0.85,0.55
		c0.34,0.15,0.94,0.4,1.78,0.74c1.35,0.54,2.41,1.06,3.19,1.55c0.77,0.5,1.36,1.09,1.75,1.78s0.59,1.57,0.59,2.63
		c0,1.62-0.61,2.93-1.82,3.93s-3.03,1.5-5.44,1.5C389.58,312.77,388.06,312.6,386.66,312.25z"/>
</g>
<g>
	<path class="st2" d="M198.64,341.23c-1.77-0.43-3.2-1.03-4.28-1.8c-0.45-0.32-0.68-0.62-0.68-0.92c0-0.2,0.08-0.42,0.24-0.65
		l1.97-3.09c0.2-0.29,0.41-0.44,0.61-0.44c0.18,0,0.4,0.08,0.65,0.24c0.82,0.5,1.75,0.89,2.8,1.17c1.05,0.28,2.08,0.42,3.08,0.42
		c0.84,0,1.44-0.11,1.82-0.34s0.56-0.58,0.56-1.05c0-0.52-0.25-0.94-0.75-1.26s-1.36-0.71-2.58-1.19c-2.29-0.88-4.09-1.89-5.41-3.01
		c-1.31-1.12-1.97-2.61-1.97-4.47c0-2.36,0.82-4.13,2.46-5.32c1.64-1.19,3.86-1.79,6.65-1.79c1.95,0,3.61,0.17,4.98,0.51
		c1.37,0.34,2.57,0.87,3.59,1.6c0.45,0.32,0.68,0.62,0.68,0.92c0,0.2-0.08,0.42-0.24,0.65l-1.97,3.09c-0.2,0.32-0.41,0.48-0.61,0.48
		c-0.14,0-0.35-0.09-0.65-0.27c-0.54-0.36-1.19-0.66-1.94-0.9c-0.75-0.24-1.55-0.36-2.41-0.36c-0.79,0-1.39,0.11-1.8,0.34
		c-0.41,0.23-0.61,0.59-0.61,1.09c0,0.41,0.14,0.75,0.43,1.02c0.28,0.27,0.64,0.5,1.07,0.7c0.43,0.19,1.18,0.5,2.24,0.94
		c1.7,0.68,3.04,1.33,4.01,1.96s1.71,1.37,2.21,2.24c0.5,0.87,0.75,1.98,0.75,3.31c0,2.04-0.77,3.69-2.29,4.95s-3.81,1.89-6.85,1.89
		C202.32,341.87,200.41,341.66,198.64,341.23z"/>
	<path class="st2" d="M217.68,338.73c-2.09-2.1-3.13-5.07-3.13-8.92s1.04-6.83,3.13-8.93c2.08-2.1,5.15-3.14,9.18-3.14
		s7.09,1.05,9.18,3.14c2.08,2.1,3.13,5.07,3.13,8.93s-1.04,6.83-3.13,8.92c-2.09,2.1-5.15,3.14-9.18,3.14
		S219.77,340.82,217.68,338.73z M230.06,334.58c0.66-1.05,0.99-2.65,0.99-4.78c0-2.15-0.33-3.75-0.99-4.79
		c-0.66-1.04-1.72-1.56-3.2-1.56c-1.47,0-2.54,0.52-3.2,1.56c-0.66,1.04-0.99,2.64-0.99,4.79c0,2.13,0.33,3.72,0.99,4.78
		c0.66,1.05,1.72,1.58,3.2,1.58C228.33,336.16,229.4,335.63,230.06,334.58z"/>
	<path class="st2" d="M241.33,340.89c-0.31-0.32-0.46-0.8-0.46-1.46v-19.24c0-0.66,0.15-1.14,0.46-1.46s0.83-0.48,1.58-0.48h8.13
		c3.4,0,5.88,0.67,7.43,2.02c1.55,1.35,2.33,3.38,2.33,6.1s-0.78,4.75-2.33,6.09c-1.55,1.34-4.02,2.01-7.4,2.01h-2.04v4.96
		c0,0.66-0.15,1.15-0.46,1.46c-0.31,0.32-0.84,0.48-1.62,0.48h-4.05C242.16,341.36,241.63,341.2,241.33,340.89z M250.32,328.68
		c0.73,0,1.3-0.19,1.72-0.58s0.63-0.96,0.63-1.73c0-0.79-0.21-1.38-0.63-1.77s-0.99-0.58-1.72-0.58h-2.31v4.66H250.32z"/>
	<path class="st2" d="M263.41,338.73c-2.09-2.1-3.13-5.07-3.13-8.92s1.04-6.83,3.13-8.93c2.08-2.1,5.15-3.14,9.18-3.14
		s7.09,1.05,9.18,3.14c2.08,2.1,3.13,5.07,3.13,8.93s-1.04,6.83-3.13,8.92c-2.09,2.1-5.15,3.14-9.18,3.14
		S265.5,340.82,263.41,338.73z M275.79,334.58c0.66-1.05,0.99-2.65,0.99-4.78c0-2.15-0.33-3.75-0.99-4.79
		c-0.66-1.04-1.72-1.56-3.2-1.56c-1.47,0-2.54,0.52-3.2,1.56c-0.66,1.04-0.99,2.64-0.99,4.79c0,2.13,0.33,3.72,0.99,4.78
		c0.66,1.05,1.72,1.58,3.2,1.58C274.06,336.16,275.13,335.63,275.79,334.58z"/>
	<path class="st2" d="M287.06,340.89c-0.31-0.32-0.46-0.8-0.46-1.46v-19.24c0-0.66,0.15-1.14,0.46-1.46s0.83-0.48,1.58-0.48h8.13
		c3.4,0,5.88,0.67,7.43,2.02c1.55,1.35,2.33,3.38,2.33,6.1c0,1.63-0.28,3.01-0.83,4.13c-0.56,1.12-1.41,2-2.57,2.64l3.16,6.77
		c0.09,0.18,0.14,0.39,0.14,0.61c0,0.25-0.09,0.45-0.26,0.61c-0.17,0.16-0.39,0.24-0.66,0.24h-5.75c-0.36,0-0.65-0.05-0.87-0.15
		c-0.22-0.1-0.37-0.28-0.46-0.53l-2.52-6.32h-1.16v5.07c0,0.66-0.15,1.15-0.46,1.46c-0.31,0.32-0.84,0.48-1.62,0.48h-4.05
		C287.89,341.36,287.36,341.2,287.06,340.89z M296.05,328.68c0.73,0,1.3-0.19,1.72-0.58s0.63-0.96,0.63-1.73
		c0-0.79-0.21-1.38-0.63-1.77s-0.99-0.58-1.72-0.58h-2.31v4.66H296.05z"/>
	<path class="st2" d="M312.9,340.89c-0.31-0.32-0.46-0.8-0.46-1.46v-15.4h-4.9c-0.73,0-1.22-0.15-1.48-0.46
		c-0.26-0.31-0.39-0.8-0.39-1.48v-1.9c0-0.68,0.13-1.17,0.39-1.48c0.26-0.31,0.75-0.46,1.48-0.46h17.95c0.73,0,1.22,0.15,1.48,0.46
		c0.26,0.31,0.39,0.8,0.39,1.48v1.9c0,0.68-0.13,1.17-0.39,1.48c-0.26,0.31-0.75,0.46-1.48,0.46h-4.9v15.4
		c0,0.66-0.15,1.15-0.46,1.46c-0.31,0.32-0.84,0.48-1.61,0.48h-4.05C313.73,341.36,313.2,341.2,312.9,340.89z"/>
	<path class="st2" d="M328.84,340.89c-0.31-0.32-0.46-0.8-0.46-1.46v-19.24c0-0.66,0.15-1.14,0.46-1.46s0.83-0.48,1.58-0.48h14.08
		c0.73,0,1.22,0.15,1.48,0.46c0.26,0.31,0.39,0.8,0.39,1.48v1.9c0,0.68-0.13,1.17-0.39,1.48c-0.26,0.31-0.75,0.46-1.48,0.46h-7.96
		v2.92h4.9c0.73,0,1.22,0.15,1.48,0.46c0.26,0.31,0.39,0.8,0.39,1.48v1.84c0,0.68-0.13,1.17-0.39,1.48
		c-0.26,0.31-0.75,0.46-1.48,0.46h-4.9v2.92h7.92c0.73,0,1.22,0.15,1.48,0.46c0.26,0.31,0.39,0.8,0.39,1.48v1.9
		c0,0.68-0.13,1.17-0.39,1.48c-0.26,0.31-0.75,0.46-1.48,0.46h-14.04C329.68,341.36,329.15,341.2,328.84,340.89z"/>
</g>
<g>
	<path class="st2" d="M217.68,366.98c-0.24-0.25-0.36-0.64-0.36-1.16v-12.23h-3.89c-0.58,0-0.97-0.12-1.17-0.37
		c-0.21-0.24-0.31-0.63-0.31-1.17v-1.51c0-0.54,0.1-0.93,0.31-1.17c0.21-0.24,0.6-0.37,1.17-0.37h14.26c0.58,0,0.97,0.12,1.17,0.37
		c0.21,0.24,0.31,0.63,0.31,1.17v1.51c0,0.54-0.1,0.93-0.31,1.17s-0.6,0.37-1.17,0.37h-3.89v12.23c0,0.52-0.12,0.91-0.36,1.16
		s-0.67,0.38-1.28,0.38h-3.21C218.34,367.36,217.92,367.24,217.68,366.98z"/>
	<path class="st2" d="M230.34,366.98c-0.24-0.25-0.36-0.64-0.36-1.16v-15.28c0-0.52,0.12-0.91,0.36-1.16
		c0.24-0.25,0.66-0.38,1.26-0.38h11.18c0.58,0,0.97,0.12,1.17,0.37c0.21,0.24,0.31,0.63,0.31,1.17v1.51c0,0.54-0.1,0.93-0.31,1.17
		c-0.21,0.24-0.6,0.37-1.17,0.37h-6.32v2.32h3.89c0.58,0,0.97,0.12,1.17,0.36c0.21,0.24,0.31,0.63,0.31,1.17v1.46
		c0,0.54-0.1,0.93-0.31,1.17s-0.6,0.36-1.17,0.36h-3.89v2.32h6.29c0.58,0,0.97,0.12,1.17,0.36c0.21,0.24,0.31,0.63,0.31,1.17v1.51
		c0,0.54-0.1,0.93-0.31,1.17c-0.21,0.24-0.6,0.36-1.17,0.36h-11.15C231,367.36,230.58,367.24,230.34,366.98z M233.65,346.73
		c0-0.14,0.03-0.3,0.08-0.46l1.13-3.13c0.14-0.41,0.31-0.69,0.51-0.84c0.2-0.14,0.57-0.22,1.11-0.22h3.86c0.38,0,0.67,0.07,0.89,0.2
		c0.22,0.13,0.32,0.33,0.32,0.58c0,0.22-0.07,0.44-0.22,0.67l-1.73,2.92c-0.25,0.43-0.5,0.71-0.73,0.84s-0.66,0.19-1.27,0.19h-2.89
		C234.01,347.49,233.65,347.24,233.65,346.73z"/>
	<path class="st2" d="M247.66,365.35c-1.82-1.61-2.73-4-2.73-7.17c0-3.19,0.88-5.58,2.63-7.18c1.75-1.6,4.26-2.4,7.52-2.4
		c1.48,0,2.79,0.14,3.94,0.43c1.15,0.29,2.11,0.69,2.89,1.21c0.22,0.16,0.32,0.34,0.32,0.54c0,0.16-0.08,0.39-0.24,0.67l-1.35,2.32
		c-0.14,0.25-0.32,0.38-0.51,0.38c-0.13,0-0.33-0.07-0.62-0.22c-0.5-0.25-1.03-0.45-1.58-0.59c-0.55-0.14-1.19-0.22-1.93-0.22
		c-1.49,0-2.64,0.43-3.43,1.3c-0.79,0.86-1.19,2.12-1.19,3.75c0,1.62,0.43,2.87,1.3,3.74c0.86,0.87,2.04,1.31,3.54,1.31
		c1.3,0,2.48-0.27,3.56-0.81c0.29-0.14,0.5-0.22,0.62-0.22c0.2,0,0.37,0.13,0.51,0.38l1.35,2.32c0.16,0.29,0.24,0.51,0.24,0.67
		c0,0.2-0.11,0.38-0.32,0.54c-0.77,0.52-1.75,0.93-2.92,1.21c-1.17,0.29-2.49,0.43-3.97,0.43
		C252.02,367.77,249.48,366.96,247.66,365.35z"/>
	<path class="st2" d="M264.22,366.98c-0.24-0.25-0.36-0.64-0.36-1.16v-15.31c0-0.52,0.12-0.91,0.36-1.15
		c0.24-0.24,0.67-0.37,1.28-0.37h2.57c0.38,0,0.67,0.05,0.88,0.15c0.21,0.1,0.41,0.29,0.61,0.58l4.89,7.26v-6.45
		c0-0.52,0.12-0.91,0.36-1.16c0.24-0.25,0.66-0.38,1.26-0.38h3.21c0.61,0,1.04,0.12,1.28,0.37c0.24,0.24,0.36,0.63,0.36,1.17v15.31
		c0,0.52-0.12,0.9-0.36,1.15s-0.67,0.36-1.28,0.36h-2.56c-0.38,0-0.67-0.05-0.88-0.15c-0.21-0.1-0.41-0.29-0.61-0.58l-4.89-7.26
		v6.48c0,0.52-0.12,0.9-0.36,1.15s-0.67,0.36-1.28,0.36h-3.21C264.89,367.36,264.47,367.24,264.22,366.98z"/>
	<path class="st2" d="M283.18,366.98c-0.24-0.25-0.36-0.64-0.36-1.16v-15.28c0-0.52,0.12-0.91,0.36-1.16
		c0.24-0.25,0.66-0.38,1.26-0.38h3.21c0.61,0,1.04,0.12,1.28,0.37c0.24,0.24,0.36,0.63,0.36,1.17v15.28c0,0.52-0.12,0.91-0.36,1.16
		s-0.67,0.38-1.28,0.38h-3.21C283.84,367.36,283.42,367.24,283.18,366.98z"/>
	<path class="st2" d="M293.37,365.35c-1.82-1.61-2.73-4-2.73-7.17c0-3.19,0.88-5.58,2.63-7.18c1.75-1.6,4.26-2.4,7.52-2.4
		c1.48,0,2.79,0.14,3.94,0.43c1.15,0.29,2.11,0.69,2.89,1.21c0.22,0.16,0.32,0.34,0.32,0.54c0,0.16-0.08,0.39-0.24,0.67l-1.35,2.32
		c-0.14,0.25-0.32,0.38-0.51,0.38c-0.13,0-0.33-0.07-0.62-0.22c-0.5-0.25-1.03-0.45-1.58-0.59c-0.55-0.14-1.19-0.22-1.93-0.22
		c-1.49,0-2.64,0.43-3.43,1.3c-0.79,0.86-1.19,2.12-1.19,3.75c0,1.62,0.43,2.87,1.3,3.74c0.86,0.87,2.04,1.31,3.54,1.31
		c1.3,0,2.48-0.27,3.56-0.81c0.29-0.14,0.5-0.22,0.62-0.22c0.2,0,0.37,0.13,0.51,0.38l1.35,2.32c0.16,0.29,0.24,0.51,0.24,0.67
		c0,0.2-0.11,0.38-0.32,0.54c-0.77,0.52-1.75,0.93-2.92,1.21c-1.17,0.29-2.49,0.43-3.97,0.43
		C297.73,367.77,295.19,366.96,293.37,365.35z"/>
	<path class="st2" d="M310.3,365.27c-1.66-1.66-2.48-4.03-2.48-7.09c0-3.06,0.83-5.42,2.48-7.09c1.66-1.67,4.09-2.5,7.29-2.5
		c3.2,0,5.63,0.83,7.29,2.5c1.66,1.67,2.48,4.03,2.48,7.09c0,3.06-0.83,5.42-2.48,7.09c-1.66,1.67-4.09,2.5-7.29,2.5
		C314.39,367.77,311.96,366.93,310.3,365.27z M320.13,361.98c0.52-0.84,0.78-2.1,0.78-3.79c0-1.71-0.26-2.98-0.78-3.81
		c-0.52-0.83-1.37-1.24-2.54-1.24c-1.17,0-2.02,0.41-2.54,1.24c-0.52,0.83-0.78,2.1-0.78,3.81c0,1.69,0.26,2.96,0.78,3.79
		c0.52,0.84,1.37,1.26,2.54,1.26C318.76,363.23,319.6,362.81,320.13,361.98z"/>
</g>
<circle id="XMLID_8266_" class="st3" cx="262.81" cy="214.49" r="67.25"/>
<g id="XMLID_7896_">
	<path id="XMLID_7920_" class="st4" d="M309.22,243.98c-0.74,1.15-8.37,18.11-10.02,25.84c-0.1,0.48-0.2,0.94-0.3,1.39
		c6.62-4.22,12.45-9.56,17.22-15.76C313.62,250.17,311.41,246.09,309.22,243.98z"/>
	<path id="XMLID_7919_" class="st5" d="M262.97,234.17c6.41,0,10.7-3.5,12.9-6.42c0.2-1.7,0.02-3.34-0.71-4.72l-0.72-2.38
		c-0.27,0.35-0.57,0.69-0.92,1c-4.25,3.84-5.89,5.3-10.55,5.32c-4.67-0.02-6.3-1.48-10.55-5.32c-0.34-0.3-0.63-0.63-0.9-0.98
		l-0.71,2.35c-0.74,1.39-0.92,3.05-0.71,4.76C252.31,230.7,256.6,234.17,262.97,234.17z"/>
	<polygon id="XMLID_7918_" class="st5" points="251.46,220.59 251.45,220.59 251.46,220.59 	"/>
	<path id="XMLID_7917_" class="st5" d="M274.53,220.6c0-0.02-0.01-0.03-0.01-0.05c-0.01,0.01-0.02,0.03-0.03,0.04
		C274.5,220.59,274.52,220.59,274.53,220.6z"/>
	<path id="XMLID_7916_" class="st6" d="M251.56,220.57l-0.03,0.11c0.27,0.34,0.56,0.67,0.9,0.98c4.25,3.84,5.89,5.3,10.55,5.32
		c4.67-0.02,6.3-1.48,10.55-5.32c0.34-0.31,0.64-0.65,0.92-1l-0.03-0.09c0.02,0.01,0.05,0.01,0.07,0.02
		c0.01-0.01,0.02-0.03,0.03-0.04c3.37-4.48,1.68-11.8,4.14-11.71c3.79,0.15,5.43-3.13,4.54-7.38c-0.56-2.65-2.55-2.44-3.63-1.64
		c-0.31,0.88-0.61,1.54-0.82,1.48c-0.6-0.18-0.34-5.39,0.6-11.49c1-6.5-6.99-3.67-12.57-3.85c-5.59-0.18-18.96-1.39-19.96,1.68
		c-1,3.07,1.4,12.45,0.6,12.81c-0.11,0.05-0.22,0-0.34-0.11c0.04,0.33,0.03,0.44-0.05,0.24c-0.49-1.22-3.57-2.52-4.28,0.88
		c-0.89,4.24,0.75,7.53,4.54,7.38c2.47-0.1,0.76,7.27,4.17,11.75c0,0,0,0,0,0C251.49,220.58,251.52,220.58,251.56,220.57z"/>
	<path id="XMLID_7915_" class="st7" d="M247.41,200.45c0.8-0.36-1.6-9.75-0.6-12.81c1-3.07,14.37-1.86,19.96-1.68
		c5.59,0.18,13.57-2.65,12.57,3.85c-0.94,6.1-1.2,11.31-0.6,11.49c0.21,0.06,0.51-0.6,0.82-1.48c0.58-1.66,1.18-4.12,1.18-4.12
		c2.79-1.62,1.8-13.35,1.8-15.16c0-1.8-2.79-4.87-3.99-4.87s-0.2-5.05-8.38-7.22c-8.18-2.17-15.37-1.08-19.36,0.9
		c-3.99,1.99-6.99,5.41-8.78,5.96c-1.8,0.54,0.6,1.8-0.8,3.07c-1.4,1.26,1,2.89,1.4,5.41c0.4,2.53,1.4,10.65,2.2,11.55
		c0.69,0.78,1.53,4.28,2.26,5C247.19,200.45,247.3,200.5,247.41,200.45z"/>
	<path id="XMLID_7914_" class="st2" d="M263.07,254.88c-0.05,0.05-0.11,0.1-0.16,0.13C262.95,255,263.01,254.95,263.07,254.88z"/>
	<path id="XMLID_7913_" class="st2" d="M271.75,236.42c0.8-0.85,1.54-1.87,2.18-2.99c-5.32,3.83-10.96,3.48-10.96,3.48
		s-5.63,0.31-10.93-3.48c0.64,1.12,1.38,2.14,2.17,2.99c6.11,8.39,8.69,18.59,8.69,18.59l0,0
		C262.91,255.02,265.65,244.81,271.75,236.42z"/>
	<polygon id="XMLID_7912_" class="st2" points="262.91,255.02 262.91,255.02 262.91,255.02 	"/>
	<path id="XMLID_7911_" class="st8" d="M262.97,236.91c0,0,5.64,0.35,10.96-3.48c1-1.76,1.71-3.75,1.94-5.68
		c-2.2,2.92-6.49,6.42-12.9,6.42c-6.38,0-10.66-3.47-12.87-6.38c0.23,1.92,0.95,3.9,1.94,5.64
		C257.35,237.23,262.97,236.91,262.97,236.91z"/>
	<path id="XMLID_7910_" class="st4" d="M216.35,243.92L216.35,243.92c-2.19,2.08-4.42,6.16-6.93,11.45
		c4.78,6.24,10.64,11.61,17.29,15.85c-0.1-0.46-0.2-0.92-0.3-1.4C224.73,261.93,216.83,244.46,216.35,243.92z"/>
	<path id="XMLID_7907_" class="st9" d="M309.22,243.98c0.01-0.02,0.03-0.05,0.04-0.06c0.48-0.55-5.01-3.51-11.99-6.64
		c-4.38-1.96-8.1-4.62-11.73-6.6c0.64,1.29,1.27,2.74,1.9,4.39c0,0-10.59,1.9-11.73,2.26c-1.14,0.35-0.16,1.42-1.62,2.98
		c-6.68,7.1-9.65,13.4-11.01,14.58c-0.06,0.07-0.12,0.12-0.16,0.13c0,0,0,0,0,0l0.62,0v26.7c13.01-0.14,25.13-3.97,35.37-10.5
		c0.1-0.46,0.19-0.92,0.3-1.39C300.85,262.08,308.48,245.13,309.22,243.98z M296.99,270.72h-30.18v-1.53h30.18V270.72z"/>
	<polygon id="XMLID_7906_" class="st9" points="262.91,255.02 262.91,255.02 262.91,255.02 	"/>
	<polygon id="XMLID_7905_" class="st9" points="262.91,255.02 262.91,255.02 262.91,255.02 	"/>
	<path id="XMLID_7902_" class="st9" d="M262.08,255.02h0.83l0,0c-1.29-0.8-4.08-7.33-11.03-14.72c-1.47-1.56-0.48-2.63-1.62-2.98
		c-1.14-0.35-11.73-2.26-11.73-2.26c0.54-1.41,1.08-2.67,1.62-3.81c-3.7,1.78-7.55,4.11-11.81,6.02
		c-6.98,3.13-12.47,6.09-11.99,6.64v0c0.48,0.55,8.38,18.02,10.06,25.9c0.1,0.48,0.2,0.94,0.3,1.4
		c10.24,6.53,22.36,10.36,35.37,10.5V255.02z M228.68,270.72v-1.53h30.18v1.53H228.68z"/>
	<rect id="XMLID_7901_" x="228.68" y="269.19" class="st8" width="30.18" height="1.53"/>
	<rect id="XMLID_7900_" x="266.81" y="269.19" class="st8" width="30.18" height="1.53"/>
	<path id="XMLID_7899_" class="st8" d="M263.53,255.02h-0.62h0h-0.83v26.7c0.24,0,0.48,0.02,0.72,0.02c0.24,0,0.48-0.02,0.72-0.02
		V255.02z"/>
	<path id="XMLID_7898_" class="st10" d="M238.53,235.07c0,0,10.59,1.9,11.73,2.26c1.14,0.35,0.16,1.42,1.62,2.98
		c6.95,7.39,9.73,13.92,11.03,14.72l0,0l0,0v0c0,0-2.58-10.21-8.69-18.59c-0.79-0.84-1.54-1.87-2.17-2.99
		c-0.99-1.75-1.71-3.73-1.94-5.64c-0.21-1.71-0.03-3.37,0.71-4.76l0.71-2.35l0.03-0.11c-0.03,0.01-0.07,0.02-0.1,0.02c0,0,0,0,0,0
		c-2.87,0.7-7.14,1.92-11.31,10.66C239.61,232.39,239.07,233.65,238.53,235.07z"/>
	<path id="XMLID_7897_" class="st10" d="M274.42,220.57l0.03,0.09l0.72,2.38c0.73,1.38,0.91,3.02,0.71,4.72
		c-0.23,1.93-0.94,3.92-1.94,5.68c-0.64,1.12-1.38,2.15-2.18,2.99c-6.11,8.39-8.84,18.59-8.84,18.59l0,0c0,0,0,0,0,0
		c0.05-0.03,0.11-0.09,0.16-0.13c1.37-1.19,4.34-7.48,11.01-14.58c1.47-1.56,0.48-2.63,1.62-2.98c1.14-0.35,11.73-2.26,11.73-2.26
		c-0.63-1.66-1.26-3.11-1.9-4.39c-4.07-8.2-8.21-9.39-11.01-10.08c-0.01,0-0.03-0.01-0.04-0.01
		C274.47,220.58,274.44,220.57,274.42,220.57z"/>
</g>
<g>
	<polygon class="st0" points="258.78,202.71 249.29,202.71 249.29,198.43 258.78,198.43 258.78,200.14 260,200.14 260,198 248,198 
		248,204 260,204 260,201.43 258.78,201.43 	"/>
	<polygon class="st0" points="266.43,198 266.43,200.14 267.71,200.14 267.71,198.43 277.2,198.43 277.2,202.71 267.71,202.71 
		267.71,201.43 266.43,201.43 266.43,204 278.43,204 278.43,198 	"/>
	<rect x="260" y="200.14" class="st0" width="6.43" height="1.29"/>
	<rect x="258.78" y="200.14" class="st0" width="1.22" height="1.29"/>
	<rect x="266.43" y="200.14" class="st0" width="1.29" height="1.29"/>
</g>
<g>
</g>
<g>
</g>
<g>
</g>
<g>
</g>
<g>
</g>
<g>
</g>
<g>
</g>
<g>
</g>
<g>
</g>
<g>
</g>
<g>
</g>
<g>
</g>
<g>
</g>
<g>
</g>
<g>
</g>
</svg>
