<?xml version="1.0" encoding="utf-8"?>
<!-- Generator: Adobe Illustrator 23.0.0, SVG Export Plug-In . SVG Version: 6.00 Build 0)  -->
<svg version="1.1" xmlns="http://www.w3.org/2000/svg" xmlns:xlink="http://www.w3.org/1999/xlink" x="0px" y="0px"
	 viewBox="0 0 1000 1000" style="enable-background:new 0 0 1000 1000;" xml:space="preserve">
<style type="text/css">
	.st0{fill:#F2F2F2;}
	.st1{fill:none;stroke:#798EAB;stroke-width:12;stroke-miterlimit:10;stroke-dasharray:12;}
	.st2{fill:#2E4968;}
	.st3{fill:#3F3D56;}
	.st4{fill:#6C63FF;}
	.st5{fill:#CCCCCC;}
	.st6{opacity:0.1;enable-background:new    ;}
	.st7{fill:#89B749;}
	.st8{fill:#FFFFFF;}
	.st9{fill:#447AB7;}
	.st10{fill:#798EAB;}
	.st11{fill:none;stroke:#89B749;stroke-width:13;stroke-miterlimit:10;}
	.st12{fill:none;stroke:#89B749;stroke-width:13;stroke-miterlimit:10;stroke-dasharray:11.5314,11.5314;}
	.st13{fill:#5B772D;}
	.st14{fill:none;stroke:#447AB7;stroke-width:10;stroke-miterlimit:10;}
	.st15{fill:none;stroke:#447AB7;stroke-width:10;stroke-miterlimit:10;stroke-dasharray:11.7119,11.7119;}
	.st16{fill:#38638E;}
	.st17{fill:none;stroke:#798EAB;stroke-width:12;stroke-miterlimit:10;}
	.st18{fill:none;stroke:#798EAB;stroke-width:12;stroke-miterlimit:10;stroke-dasharray:13.4005,13.4005;}
	.st19{fill:none;stroke:#89B749;stroke-width:13;stroke-miterlimit:10;stroke-dasharray:12;}
	.st20{fill:none;stroke:#447AB7;stroke-width:10;stroke-miterlimit:10;stroke-dasharray:12;}
	.st21{fill:none;stroke:#447AB7;stroke-width:10;stroke-miterlimit:10;stroke-dasharray:13.4005,13.4005;}
</style>
<g id="Capa_1">
	<title>coming home</title>
	<path class="st0" d="M637.29,465.59c-17.31,0.08-31.4,0.34-31.4,0.34s16.75-22.18,31.33-13.96c14.59,8.22,31.35,13.67,31.35,13.67
		S654.6,465.51,637.29,465.59z"/>
	<path class="st0" d="M411.75,390.22c-17.31,0.08-31.4,0.34-31.4,0.34s16.75-22.18,31.33-13.96s31.35,13.67,31.35,13.67
		S429.06,390.14,411.75,390.22z"/>
	<g>
		<line class="st1" x1="421" y1="808" x2="598" y2="808"/>
	</g>
	<g>
		<polygon class="st2" points="433.27,822.93 415.15,807.07 433,786.93 		"/>
	</g>
	<g>
		<polygon class="st2" points="587.57,787.35 604.26,804.71 584.76,823.24 		"/>
	</g>
</g>
<g id="Capa_2">
	<g>
		<path class="st3" d="M389.23,667l-0.56-0.13c6.27-27.89,22.03-53.21,44.38-71.31c54.98-44.45,135.58-35.93,180.04,19.05
			c12.26,15.16,20.89,32.92,25.24,51.92l-0.56,0.13c-13.28-58.29-64.36-99-124.23-99C454.45,567.67,402.18,609.44,389.23,667z"/>
		<path class="st3" d="M402.42,663.44c0.49,1.8,2.16,2.92,2.16,2.92s0.88-1.81,0.39-3.61c-0.49-1.8-2.16-2.92-2.16-2.92
			S401.93,661.64,402.42,663.44z"/>
		<path class="st4" d="M403.13,663.06c1.34,1.3,1.5,3.31,1.5,3.31s-2.01-0.11-3.35-1.41c-1.34-1.3-1.5-3.31-1.5-3.31
			S401.79,661.75,403.13,663.06z"/>
		<path class="st3" d="M439.6,663.44c0.49,1.8,2.16,2.92,2.16,2.92s0.88-1.81,0.39-3.61c-0.49-1.8-2.16-2.92-2.16-2.92
			S439.11,661.64,439.6,663.44z"/>
		<path class="st4" d="M440.32,663.06c1.34,1.3,1.5,3.31,1.5,3.31s-2.01-0.11-3.35-1.41c-1.34-1.3-1.5-3.31-1.5-3.31
			S438.98,661.75,440.32,663.06z"/>
		<polygon class="st3" points="446.97,519.67 441.09,514.96 474.06,485.52 557.65,485.52 557.65,511.43 503.49,547.93 		"/>
		<polygon class="st5" points="572.9,502.03 572.9,486.11 561.8,486.11 561.8,490.01 557.65,485.52 530.57,514.96 519.98,522.02 
			503.54,642.07 528.32,666.85 585.91,666.85 585.91,516.14 		"/>
		<rect x="441.09" y="514.96" class="st0" width="89.49" height="151.89"/>
		<rect x="475.82" y="629.76" class="st5" width="16.48" height="37.09"/>
		<polygon class="st3" points="458.16,640.36 458.16,634.47 451.1,634.47 451.1,640.36 457.57,640.36 		"/>
		<polygon class="st3" points="457.57,645.07 451.1,645.07 451.1,650.95 458.16,650.95 458.16,645.07 		"/>
		<rect x="462.87" y="634.47" class="st3" width="7.06" height="5.89"/>
		<rect x="462.87" y="645.07" class="st3" width="7.06" height="5.89"/>
		<polygon class="st3" points="506.43,640.36 506.43,634.47 499.37,634.47 499.37,640.36 505.85,640.36 		"/>
		<polygon class="st3" points="505.85,645.07 499.37,645.07 499.37,650.95 506.43,650.95 506.43,645.07 		"/>
		<rect x="511.14" y="634.47" class="st3" width="7.06" height="5.89"/>
		<rect x="511.14" y="645.07" class="st3" width="7.06" height="5.89"/>
		<polygon class="st3" points="555.89,571.76 555.89,565.88 548.82,565.88 548.82,571.76 555.3,571.76 		"/>
		<polygon class="st3" points="555.3,560.29 548.82,560.29 548.82,566.18 555.89,566.18 555.89,560.29 		"/>
		<rect x="560.6" y="549.69" class="st3" width="7.06" height="5.89"/>
		<rect x="560.6" y="560.29" class="st3" width="7.06" height="5.89"/>
		<polygon class="st3" points="555.89,588.55 555.89,582.66 548.82,582.66 548.82,588.55 555.3,588.55 		"/>
		<polygon class="st3" points="555.3,593.26 548.82,593.26 548.82,599.15 555.89,599.15 555.89,593.26 		"/>
		<rect x="560.6" y="582.66" class="st3" width="7.06" height="5.89"/>
		<rect x="560.6" y="593.26" class="st3" width="7.06" height="5.89"/>
		<polygon class="st3" points="555.89,621.52 555.89,615.63 548.82,615.63 548.82,621.52 555.3,621.52 		"/>
		<polygon class="st3" points="555.3,626.23 548.82,626.23 548.82,632.11 555.89,632.11 555.89,626.23 		"/>
		<rect x="560.6" y="615.63" class="st3" width="7.06" height="5.89"/>
		<rect x="560.6" y="626.23" class="st3" width="7.06" height="5.89"/>
		<rect x="451.1" y="550.87" class="st3" width="68.29" height="14.13"/>
		<rect x="451.1" y="579.13" class="st3" width="68.29" height="14.13"/>
		<rect x="451.1" y="607.39" class="st3" width="68.29" height="14.13"/>
		<rect x="349.63" y="666.26" class="st3" width="327.74" height="0.58"/>
		<rect x="404.51" y="599.69" class="st3" width="1.69" height="66.89"/>
		<path class="st4" d="M421.84,608.22c0.11,23.39-16.35,42.43-16.35,42.43s-16.63-18.88-16.74-42.27s16.35-42.43,16.35-42.43
			S421.73,584.83,421.84,608.22z"/>
		<path class="st6" d="M421.84,608.22c0.11,23.39-16.35,42.43-16.35,42.43s-16.63-18.88-16.74-42.27s16.35-42.43,16.35-42.43
			S421.73,584.83,421.84,608.22z"/>
		<path class="st4" d="M399.82,608.22c0.11,23.39-16.35,42.43-16.35,42.43s-16.63-18.88-16.74-42.27s16.35-42.43,16.35-42.43
			S399.71,584.83,399.82,608.22z"/>
		<rect x="647.98" y="599.69" class="st3" width="1.69" height="66.89"/>
		<path class="st4" d="M665.3,608.22c0.11,23.39-16.35,42.43-16.35,42.43s-16.63-18.88-16.74-42.27s16.35-42.43,16.35-42.43
			S665.19,584.83,665.3,608.22z"/>
		<polygon class="st3" points="587.34,625.06 604.43,625.06 604.43,620.94 613.86,620.94 613.86,625.06 631.54,625.06 
			631.54,643.33 613.86,643.33 613.86,666.32 604.43,666.32 604.43,643.33 587.34,643.33 578.5,633.31 		"/>
	</g>
	<rect x="350.28" y="582.67" class="st3" width="2.2" height="86.79"/>
</g>
<g id="Capa_3">
	<g>
		<g>
			<circle class="st7" cx="141.5" cy="429.5" r="83.5"/>
		</g>
		<g>
			<path class="st8" d="M82.61,440.85c-2.15-1.91-3.23-4.74-3.23-8.5c0-3.78,1.04-6.61,3.12-8.51c2.08-1.9,5.05-2.85,8.91-2.85
				c1.75,0,3.31,0.17,4.67,0.51c1.36,0.34,2.51,0.82,3.42,1.44c0.26,0.19,0.38,0.41,0.38,0.64c0,0.19-0.1,0.46-0.29,0.8l-1.6,2.75
				c-0.17,0.3-0.37,0.45-0.61,0.45c-0.15,0-0.4-0.08-0.74-0.26c-0.6-0.3-1.22-0.53-1.87-0.7c-0.65-0.17-1.41-0.26-2.29-0.26
				c-1.77,0-3.13,0.51-4.06,1.54c-0.94,1.02-1.41,2.51-1.41,4.45c0,1.92,0.51,3.4,1.54,4.43c1.02,1.04,2.42,1.55,4.19,1.55
				c1.54,0,2.94-0.32,4.22-0.96c0.34-0.17,0.59-0.26,0.74-0.26c0.23,0,0.44,0.15,0.61,0.45l1.6,2.75c0.19,0.34,0.29,0.61,0.29,0.8
				c0,0.23-0.13,0.45-0.38,0.64c-0.92,0.62-2.07,1.1-3.46,1.44c-1.39,0.34-2.96,0.51-4.7,0.51
				C87.78,443.71,84.76,442.76,82.61,440.85z"/>
			<path class="st8" d="M102.67,440.75c-1.96-1.97-2.94-4.77-2.94-8.4c0-3.63,0.98-6.43,2.94-8.4s4.84-2.96,8.64-2.96
				c3.8,0,6.68,0.99,8.64,2.96c1.96,1.97,2.94,4.77,2.94,8.4c0,3.63-0.98,6.43-2.94,8.4c-1.96,1.97-4.84,2.96-8.64,2.96
				C107.51,443.71,104.63,442.73,102.67,440.75z M114.32,436.85c0.62-0.99,0.93-2.49,0.93-4.5c0-2.03-0.31-3.53-0.93-4.51
				c-0.62-0.98-1.62-1.47-3.01-1.47c-1.39,0-2.39,0.49-3.01,1.47c-0.62,0.98-0.93,2.49-0.93,4.51c0,2.01,0.31,3.5,0.93,4.5
				c0.62,0.99,1.62,1.49,3.01,1.49C112.7,438.34,113.7,437.84,114.32,436.85z"/>
			<path class="st8" d="M124.93,442.79c-0.29-0.3-0.43-0.76-0.43-1.38V423.3c0-0.62,0.14-1.08,0.43-1.38
				c0.29-0.3,0.78-0.45,1.49-0.45h7.65c3.2,0,5.53,0.63,6.99,1.9c1.46,1.27,2.19,3.18,2.19,5.74c0,1.54-0.26,2.83-0.78,3.89
				c-0.52,1.06-1.33,1.88-2.42,2.48l2.98,6.37c0.08,0.17,0.13,0.36,0.13,0.58c0,0.23-0.08,0.43-0.24,0.58
				c-0.16,0.15-0.37,0.22-0.62,0.22h-5.41c-0.34,0-0.61-0.05-0.82-0.14c-0.2-0.1-0.35-0.26-0.43-0.5l-2.37-5.95h-1.09v4.77
				c0,0.62-0.14,1.08-0.43,1.38c-0.29,0.3-0.79,0.45-1.52,0.45h-3.81C125.71,443.23,125.21,443.08,124.93,442.79z M133.39,431.3
				c0.68,0,1.22-0.18,1.62-0.54c0.39-0.36,0.59-0.91,0.59-1.63c0-0.75-0.2-1.3-0.59-1.66c-0.4-0.36-0.93-0.54-1.62-0.54h-2.18v4.38
				H133.39z"/>
			<path class="st8" d="M145.28,442.79c-0.29-0.3-0.43-0.76-0.43-1.38V423.3c0-0.62,0.14-1.08,0.43-1.38
				c0.29-0.3,0.78-0.45,1.49-0.45h7.65c3.2,0,5.53,0.63,6.99,1.9c1.46,1.27,2.19,3.18,2.19,5.74c0,1.54-0.26,2.83-0.78,3.89
				c-0.52,1.06-1.33,1.88-2.42,2.48l2.98,6.37c0.08,0.17,0.13,0.36,0.13,0.58c0,0.23-0.08,0.43-0.24,0.58
				c-0.16,0.15-0.37,0.22-0.62,0.22h-5.41c-0.34,0-0.61-0.05-0.82-0.14c-0.2-0.1-0.35-0.26-0.43-0.5l-2.37-5.95h-1.09v4.77
				c0,0.62-0.14,1.08-0.43,1.38c-0.29,0.3-0.79,0.45-1.52,0.45h-3.81C146.06,443.23,145.56,443.08,145.28,442.79z M153.74,431.3
				c0.68,0,1.22-0.18,1.62-0.54c0.39-0.36,0.59-0.91,0.59-1.63c0-0.75-0.2-1.3-0.59-1.66c-0.4-0.36-0.93-0.54-1.62-0.54h-2.18v4.38
				H153.74z"/>
			<path class="st8" d="M165.63,442.79c-0.29-0.3-0.43-0.76-0.43-1.38V423.3c0-0.62,0.14-1.08,0.43-1.38
				c0.29-0.3,0.78-0.45,1.49-0.45h13.25c0.68,0,1.15,0.14,1.39,0.43c0.24,0.29,0.37,0.75,0.37,1.39v1.79c0,0.64-0.12,1.1-0.37,1.39
				c-0.25,0.29-0.71,0.43-1.39,0.43h-7.49v2.75h4.61c0.68,0,1.15,0.14,1.39,0.43c0.25,0.29,0.37,0.75,0.37,1.39v1.73
				c0,0.64-0.12,1.1-0.37,1.39s-0.71,0.43-1.39,0.43h-4.61v2.75h7.46c0.68,0,1.15,0.14,1.39,0.43c0.25,0.29,0.37,0.75,0.37,1.39
				v1.79c0,0.64-0.12,1.1-0.37,1.39c-0.25,0.29-0.71,0.43-1.39,0.43h-13.22C166.41,443.23,165.92,443.08,165.63,442.79z"/>
			<path class="st8" d="M184.75,440.75c-1.96-1.97-2.94-4.77-2.94-8.4c0-3.63,0.98-6.43,2.94-8.4s4.84-2.96,8.64-2.96
				c3.8,0,6.68,0.99,8.64,2.96c1.96,1.97,2.94,4.77,2.94,8.4c0,3.63-0.98,6.43-2.94,8.4c-1.96,1.97-4.84,2.96-8.64,2.96
				C189.59,443.71,186.71,442.73,184.75,440.75z M196.4,436.85c0.62-0.99,0.93-2.49,0.93-4.5c0-2.03-0.31-3.53-0.93-4.51
				c-0.62-0.98-1.62-1.47-3.01-1.47c-1.39,0-2.39,0.49-3.01,1.47c-0.62,0.98-0.93,2.49-0.93,4.51c0,2.01,0.31,3.5,0.93,4.5
				c0.62,0.99,1.62,1.49,3.01,1.49C194.78,438.34,195.78,437.84,196.4,436.85z"/>
		</g>
	</g>
</g>
<g id="Capa_4">
	<g>
		<g>
			<circle class="st9" cx="184.5" cy="236.5" r="83.5"/>
		</g>
		<g>
			<path class="st8" d="M145.98,228.85c-2.15-1.91-3.23-4.74-3.23-8.5c0-3.78,1.04-6.61,3.12-8.51c2.08-1.9,5.05-2.85,8.91-2.85
				c1.75,0,3.31,0.17,4.67,0.51c1.36,0.34,2.51,0.82,3.42,1.44c0.26,0.19,0.38,0.41,0.38,0.64c0,0.19-0.1,0.46-0.29,0.8l-1.6,2.75
				c-0.17,0.3-0.37,0.45-0.61,0.45c-0.15,0-0.4-0.08-0.74-0.26c-0.6-0.3-1.22-0.53-1.87-0.7c-0.65-0.17-1.41-0.26-2.29-0.26
				c-1.77,0-3.13,0.51-4.06,1.54c-0.94,1.02-1.41,2.51-1.41,4.45c0,1.92,0.51,3.4,1.54,4.43c1.02,1.04,2.42,1.55,4.19,1.55
				c1.54,0,2.94-0.32,4.22-0.96c0.34-0.17,0.59-0.26,0.74-0.26c0.23,0,0.44,0.15,0.61,0.45l1.6,2.75c0.19,0.34,0.29,0.61,0.29,0.8
				c0,0.23-0.13,0.45-0.38,0.64c-0.92,0.62-2.07,1.1-3.46,1.44c-1.39,0.34-2.96,0.51-4.7,0.51
				C151.15,231.71,148.14,230.76,145.98,228.85z"/>
			<path class="st8" d="M165.61,230.79c-0.29-0.3-0.43-0.76-0.43-1.38V211.3c0-0.62,0.14-1.08,0.43-1.38
				c0.29-0.3,0.78-0.45,1.49-0.45h3.81c0.73,0,1.23,0.14,1.52,0.43c0.29,0.29,0.43,0.75,0.43,1.39v6.34h5.7v-6.34
				c0-0.62,0.14-1.08,0.43-1.38c0.29-0.3,0.78-0.45,1.49-0.45h3.81c0.73,0,1.23,0.14,1.52,0.43s0.43,0.75,0.43,1.39v18.11
				c0,0.62-0.14,1.08-0.43,1.38c-0.29,0.3-0.79,0.45-1.52,0.45h-3.81c-0.7,0-1.2-0.15-1.49-0.45c-0.29-0.3-0.43-0.76-0.43-1.38
				v-6.34h-5.7v6.34c0,0.62-0.14,1.08-0.43,1.38c-0.29,0.3-0.79,0.45-1.52,0.45h-3.81C166.4,231.23,165.9,231.08,165.61,230.79z"/>
			<path class="st8" d="M187.84,230.56c0-0.19,0.05-0.43,0.16-0.7l7.97-19.17c0.19-0.45,0.41-0.76,0.66-0.94
				c0.24-0.18,0.59-0.27,1.04-0.27h3.49c0.45,0,0.79,0.09,1.04,0.27c0.25,0.18,0.46,0.5,0.66,0.94l7.94,19.17
				c0.11,0.28,0.16,0.51,0.16,0.7c0,0.45-0.23,0.67-0.7,0.67h-6.02c-0.66,0-1.08-0.29-1.25-0.86l-0.77-2.37h-5.66l-0.74,2.37
				c-0.17,0.58-0.59,0.86-1.25,0.86h-6.02C188.07,231.23,187.84,231.01,187.84,230.56z M200.64,222.95l-1.25-3.97l-1.25,3.97H200.64
				z"/>
			<path class="st8" d="M214.06,230.79c-0.29-0.3-0.43-0.76-0.43-1.38v-14.5h-4.61c-0.68,0-1.15-0.14-1.39-0.43
				s-0.37-0.75-0.37-1.39v-1.79c0-0.64,0.12-1.1,0.37-1.39s0.71-0.43,1.39-0.43h16.9c0.68,0,1.15,0.14,1.39,0.43
				c0.24,0.29,0.37,0.75,0.37,1.39v1.79c0,0.64-0.12,1.1-0.37,1.39c-0.25,0.29-0.71,0.43-1.39,0.43h-4.61v14.5
				c0,0.62-0.14,1.08-0.43,1.38c-0.29,0.3-0.79,0.45-1.52,0.45h-3.81C214.85,231.23,214.35,231.08,214.06,230.79z"/>
			<path class="st8" d="M107.67,252.58c-0.16-0.17-0.24-0.43-0.24-0.77v-10.19c0-0.35,0.08-0.61,0.24-0.77s0.44-0.25,0.84-0.25h4.3
				c1.8,0,3.11,0.36,3.93,1.07s1.23,1.79,1.23,3.23c0,0.86-0.15,1.59-0.44,2.19c-0.29,0.59-0.75,1.06-1.36,1.4l1.67,3.58
				c0.05,0.1,0.07,0.2,0.07,0.32c0,0.13-0.04,0.24-0.14,0.32c-0.09,0.08-0.21,0.13-0.35,0.13h-3.04c-0.19,0-0.35-0.03-0.46-0.08
				c-0.11-0.05-0.2-0.15-0.24-0.28l-1.33-3.35h-0.61v2.68c0,0.35-0.08,0.61-0.24,0.77s-0.45,0.25-0.85,0.25h-2.14
				C108.11,252.83,107.83,252.75,107.67,252.58z M112.43,246.12c0.38,0,0.69-0.1,0.91-0.31s0.33-0.51,0.33-0.92
				c0-0.42-0.11-0.73-0.33-0.94s-0.52-0.31-0.91-0.31h-1.22v2.47H112.43z"/>
			<path class="st8" d="M119.11,252.58c-0.16-0.17-0.24-0.43-0.24-0.77v-10.19c0-0.35,0.08-0.61,0.24-0.77s0.44-0.25,0.84-0.25h7.45
				c0.38,0,0.65,0.08,0.78,0.24c0.14,0.16,0.21,0.42,0.21,0.78v1.01c0,0.36-0.07,0.62-0.21,0.78c-0.14,0.16-0.4,0.24-0.78,0.24
				h-4.21v1.55h2.59c0.38,0,0.65,0.08,0.78,0.24c0.14,0.16,0.21,0.42,0.21,0.78v0.97c0,0.36-0.07,0.62-0.21,0.78
				c-0.14,0.16-0.4,0.24-0.78,0.24h-2.59v1.55h4.19c0.38,0,0.65,0.08,0.78,0.24c0.14,0.16,0.21,0.42,0.21,0.78v1.01
				c0,0.36-0.07,0.62-0.21,0.78c-0.14,0.16-0.4,0.24-0.78,0.24h-7.43C119.55,252.83,119.28,252.75,119.11,252.58z"/>
			<path class="st8" d="M129.45,252.58c-0.16-0.17-0.24-0.43-0.24-0.77v-10.19c0-0.35,0.08-0.61,0.24-0.77s0.44-0.25,0.84-0.25h4.14
				c4.24,0,6.35,2.04,6.35,6.12c0,2.02-0.54,3.54-1.63,4.57c-1.09,1.03-2.66,1.55-4.73,1.55h-4.14
				C129.89,252.83,129.61,252.75,129.45,252.58z M134.58,249.77c0.67,0,1.15-0.22,1.45-0.67c0.29-0.44,0.44-1.24,0.44-2.39
				c0-1.15-0.15-1.95-0.44-2.39c-0.29-0.44-0.78-0.67-1.45-0.67h-1.06v6.12H134.58z"/>
			<path class="st8" d="M141.92,252.58c-0.16-0.17-0.24-0.43-0.24-0.77v-10.19c0-0.35,0.08-0.61,0.24-0.77s0.44-0.25,0.84-0.25h7.45
				c0.38,0,0.65,0.08,0.78,0.24c0.14,0.16,0.21,0.42,0.21,0.78v1.01c0,0.36-0.07,0.62-0.21,0.78c-0.14,0.16-0.4,0.24-0.78,0.24H146
				v1.55h2.59c0.38,0,0.65,0.08,0.78,0.24c0.14,0.16,0.21,0.42,0.21,0.78v0.97c0,0.36-0.07,0.62-0.21,0.78
				c-0.14,0.16-0.4,0.24-0.78,0.24H146v1.55h4.19c0.38,0,0.65,0.08,0.78,0.24c0.14,0.16,0.21,0.42,0.21,0.78v1.01
				c0,0.36-0.07,0.62-0.21,0.78c-0.14,0.16-0.4,0.24-0.78,0.24h-7.43C142.36,252.83,142.08,252.75,141.92,252.58z"/>
			<path class="st8" d="M154.29,252.76c-0.94-0.23-1.69-0.55-2.27-0.95c-0.24-0.17-0.36-0.33-0.36-0.49c0-0.11,0.04-0.22,0.13-0.34
				l1.04-1.64c0.11-0.16,0.22-0.23,0.32-0.23c0.1,0,0.21,0.04,0.34,0.13c0.43,0.26,0.93,0.47,1.48,0.62
				c0.56,0.15,1.1,0.23,1.63,0.23c0.44,0,0.77-0.06,0.96-0.18c0.2-0.12,0.3-0.31,0.3-0.56c0-0.28-0.13-0.5-0.4-0.67
				c-0.26-0.17-0.72-0.38-1.37-0.63c-1.21-0.47-2.17-1-2.86-1.59c-0.7-0.59-1.04-1.38-1.04-2.37c0-1.25,0.43-2.19,1.3-2.82
				s2.04-0.94,3.52-0.94c1.03,0,1.91,0.09,2.64,0.27c0.73,0.18,1.36,0.46,1.9,0.85c0.24,0.17,0.36,0.33,0.36,0.49
				c0,0.11-0.04,0.22-0.13,0.34l-1.04,1.64c-0.11,0.17-0.22,0.25-0.32,0.25c-0.07,0-0.19-0.05-0.34-0.14
				c-0.29-0.19-0.63-0.35-1.03-0.48s-0.82-0.19-1.28-0.19c-0.42,0-0.74,0.06-0.95,0.18c-0.22,0.12-0.32,0.31-0.32,0.58
				c0,0.22,0.07,0.4,0.23,0.54c0.15,0.14,0.34,0.27,0.57,0.37s0.62,0.27,1.19,0.49c0.9,0.36,1.61,0.71,2.12,1.04
				s0.91,0.73,1.17,1.19c0.26,0.46,0.4,1.05,0.4,1.75c0,1.08-0.4,1.95-1.21,2.62s-2.02,1-3.63,1
				C156.24,253.1,155.23,252.99,154.29,252.76z"/>
			<path class="st8" d="M168.32,248.61c-0.14-0.16-0.21-0.42-0.21-0.78v-1.01c0-0.36,0.07-0.62,0.21-0.78
				c0.14-0.16,0.4-0.24,0.78-0.24h5.89c0.38,0,0.65,0.08,0.78,0.24c0.14,0.16,0.21,0.42,0.21,0.78v1.01c0,0.36-0.07,0.62-0.21,0.78
				c-0.14,0.16-0.4,0.24-0.78,0.24h-5.89C168.72,248.86,168.46,248.77,168.32,248.61z"/>
			<path class="st8" d="M179.17,252.76c-0.94-0.23-1.69-0.55-2.27-0.95c-0.24-0.17-0.36-0.33-0.36-0.49c0-0.11,0.04-0.22,0.13-0.34
				l1.04-1.64c0.11-0.16,0.22-0.23,0.32-0.23c0.1,0,0.21,0.04,0.34,0.13c0.43,0.26,0.93,0.47,1.48,0.62
				c0.56,0.15,1.1,0.23,1.63,0.23c0.44,0,0.77-0.06,0.96-0.18c0.2-0.12,0.3-0.31,0.3-0.56c0-0.28-0.13-0.5-0.4-0.67
				c-0.26-0.17-0.72-0.38-1.37-0.63c-1.21-0.47-2.17-1-2.86-1.59c-0.7-0.59-1.04-1.38-1.04-2.37c0-1.25,0.43-2.19,1.3-2.82
				s2.04-0.94,3.52-0.94c1.03,0,1.91,0.09,2.64,0.27c0.73,0.18,1.36,0.46,1.9,0.85c0.24,0.17,0.36,0.33,0.36,0.49
				c0,0.11-0.04,0.22-0.13,0.34l-1.04,1.64c-0.11,0.17-0.22,0.25-0.32,0.25c-0.07,0-0.19-0.05-0.34-0.14
				c-0.29-0.19-0.63-0.35-1.03-0.48s-0.82-0.19-1.28-0.19c-0.42,0-0.74,0.06-0.95,0.18c-0.22,0.12-0.32,0.31-0.32,0.58
				c0,0.22,0.07,0.4,0.23,0.54c0.15,0.14,0.34,0.27,0.57,0.37s0.62,0.27,1.19,0.49c0.9,0.36,1.61,0.71,2.12,1.04
				s0.91,0.73,1.17,1.19c0.26,0.46,0.4,1.05,0.4,1.75c0,1.08-0.4,1.95-1.21,2.62s-2.02,1-3.63,1
				C181.12,253.1,180.11,252.99,179.17,252.76z"/>
			<path class="st8" d="M189.25,251.44c-1.1-1.11-1.66-2.68-1.66-4.73c0-2.04,0.55-3.61,1.66-4.73c1.1-1.11,2.72-1.66,4.86-1.66
				c2.14,0,3.76,0.56,4.86,1.66c1.1,1.11,1.66,2.69,1.66,4.73c0,2.04-0.55,3.62-1.66,4.73c-1.1,1.11-2.72,1.67-4.86,1.67
				C191.97,253.1,190.35,252.55,189.25,251.44z M195.8,249.24c0.35-0.56,0.52-1.4,0.52-2.53c0-1.14-0.17-1.99-0.52-2.54
				c-0.35-0.55-0.91-0.83-1.69-0.83c-0.78,0-1.34,0.28-1.69,0.83c-0.35,0.55-0.52,1.4-0.52,2.54c0,1.13,0.17,1.97,0.52,2.53
				c0.35,0.56,0.91,0.84,1.69,0.84C194.89,250.08,195.45,249.8,195.8,249.24z"/>
			<path class="st8" d="M202.53,251.49c-1.21-1.07-1.82-2.67-1.82-4.78c0-2.12,0.58-3.72,1.75-4.79c1.17-1.07,2.84-1.6,5.01-1.6
				c0.98,0,1.86,0.1,2.63,0.29c0.77,0.19,1.41,0.46,1.93,0.81c0.14,0.11,0.22,0.23,0.22,0.36c0,0.11-0.05,0.26-0.16,0.45l-0.9,1.55
				c-0.1,0.17-0.21,0.25-0.34,0.25c-0.08,0-0.22-0.05-0.41-0.14c-0.34-0.17-0.69-0.3-1.05-0.4c-0.37-0.1-0.79-0.14-1.29-0.14
				c-1,0-1.76,0.29-2.29,0.86c-0.53,0.58-0.79,1.41-0.79,2.5c0,1.08,0.29,1.91,0.86,2.49s1.36,0.87,2.36,0.87
				c0.86,0,1.66-0.18,2.38-0.54c0.19-0.1,0.33-0.14,0.41-0.14c0.13,0,0.25,0.08,0.34,0.25l0.9,1.55c0.11,0.19,0.16,0.34,0.16,0.45
				c0,0.13-0.07,0.25-0.22,0.36c-0.52,0.35-1.16,0.62-1.94,0.81c-0.78,0.19-1.66,0.29-2.65,0.29
				C205.44,253.1,203.75,252.57,202.53,251.49z"/>
			<path class="st8" d="M213.58,252.58c-0.16-0.17-0.24-0.43-0.24-0.77v-10.19c0-0.35,0.08-0.61,0.24-0.77s0.44-0.25,0.84-0.25h2.14
				c0.41,0,0.69,0.08,0.85,0.24s0.24,0.42,0.24,0.78v10.19c0,0.35-0.08,0.61-0.24,0.77s-0.45,0.25-0.85,0.25h-2.14
				C214.02,252.83,213.74,252.75,213.58,252.58z"/>
			<path class="st8" d="M218.55,252.46c0-0.11,0.03-0.24,0.09-0.4l4.48-10.78c0.11-0.25,0.23-0.43,0.37-0.53
				c0.14-0.1,0.33-0.15,0.58-0.15h1.96c0.25,0,0.45,0.05,0.58,0.15c0.14,0.1,0.26,0.28,0.37,0.53l4.46,10.78
				c0.06,0.16,0.09,0.29,0.09,0.4c0,0.25-0.13,0.38-0.4,0.38h-3.38c-0.37,0-0.61-0.16-0.7-0.49l-0.43-1.33h-3.19l-0.41,1.33
				c-0.1,0.32-0.33,0.49-0.7,0.49h-3.38C218.69,252.83,218.55,252.71,218.55,252.46z M225.75,248.17l-0.7-2.23l-0.7,2.23H225.75z"/>
			<path class="st8" d="M232.69,252.58c-0.16-0.17-0.24-0.43-0.24-0.77v-10.19c0-0.35,0.08-0.61,0.24-0.77s0.44-0.25,0.84-0.25h2.14
				c0.41,0,0.69,0.08,0.85,0.24s0.24,0.42,0.24,0.78v8.15h4.19c0.38,0,0.65,0.08,0.78,0.24c0.14,0.16,0.21,0.42,0.21,0.78v1.01
				c0,0.36-0.07,0.62-0.21,0.78c-0.14,0.16-0.4,0.24-0.78,0.24h-7.43C233.13,252.83,232.85,252.75,232.69,252.58z"/>
			<path class="st8" d="M242.47,252.58c-0.16-0.17-0.24-0.43-0.24-0.77v-10.19c0-0.35,0.08-0.61,0.24-0.77s0.44-0.25,0.84-0.25h7.45
				c0.38,0,0.65,0.08,0.78,0.24c0.14,0.16,0.21,0.42,0.21,0.78v1.01c0,0.36-0.07,0.62-0.21,0.78c-0.14,0.16-0.4,0.24-0.78,0.24
				h-4.21v1.55h2.59c0.38,0,0.65,0.08,0.78,0.24c0.14,0.16,0.21,0.42,0.21,0.78v0.97c0,0.36-0.07,0.62-0.21,0.78
				c-0.14,0.16-0.4,0.24-0.78,0.24h-2.59v1.55h4.19c0.38,0,0.65,0.08,0.78,0.24c0.14,0.16,0.21,0.42,0.21,0.78v1.01
				c0,0.36-0.07,0.62-0.21,0.78c-0.14,0.16-0.4,0.24-0.78,0.24h-7.43C242.91,252.83,242.63,252.75,242.47,252.58z"/>
			<path class="st8" d="M254.84,252.76c-0.94-0.23-1.69-0.55-2.27-0.95c-0.24-0.17-0.36-0.33-0.36-0.49c0-0.11,0.04-0.22,0.13-0.34
				l1.04-1.64c0.11-0.16,0.22-0.23,0.32-0.23c0.1,0,0.21,0.04,0.34,0.13c0.43,0.26,0.93,0.47,1.48,0.62
				c0.56,0.15,1.1,0.23,1.63,0.23c0.44,0,0.77-0.06,0.96-0.18c0.2-0.12,0.3-0.31,0.3-0.56c0-0.28-0.13-0.5-0.4-0.67
				c-0.26-0.17-0.72-0.38-1.37-0.63c-1.21-0.47-2.17-1-2.86-1.59c-0.7-0.59-1.04-1.38-1.04-2.37c0-1.25,0.43-2.19,1.3-2.82
				s2.04-0.94,3.52-0.94c1.03,0,1.91,0.09,2.64,0.27c0.73,0.18,1.36,0.46,1.9,0.85c0.24,0.17,0.36,0.33,0.36,0.49
				c0,0.11-0.04,0.22-0.13,0.34l-1.04,1.64c-0.11,0.17-0.22,0.25-0.32,0.25c-0.07,0-0.19-0.05-0.34-0.14
				c-0.29-0.19-0.63-0.35-1.03-0.48s-0.82-0.19-1.28-0.19c-0.42,0-0.74,0.06-0.95,0.18c-0.22,0.12-0.32,0.31-0.32,0.58
				c0,0.22,0.07,0.4,0.23,0.54c0.15,0.14,0.34,0.27,0.57,0.37s0.62,0.27,1.19,0.49c0.9,0.36,1.61,0.71,2.12,1.04
				s0.91,0.73,1.17,1.19c0.26,0.46,0.4,1.05,0.4,1.75c0,1.08-0.4,1.95-1.21,2.62s-2.02,1-3.63,1
				C256.79,253.1,255.78,252.99,254.84,252.76z"/>
		</g>
	</g>
</g>
<g id="Capa_5">
	<g>
		<g>
			<circle class="st10" cx="385.5" cy="319.5" r="83.5"/>
		</g>
		<g>
			<path class="st8" d="M357.69,289.85c-2.15-1.91-3.23-4.74-3.23-8.5c0-3.78,1.04-6.61,3.12-8.51c2.08-1.9,5.05-2.85,8.91-2.85
				c1.75,0,3.31,0.17,4.67,0.51c1.36,0.34,2.51,0.82,3.42,1.44c0.26,0.19,0.38,0.41,0.38,0.64c0,0.19-0.1,0.46-0.29,0.8l-1.6,2.75
				c-0.17,0.3-0.37,0.45-0.61,0.45c-0.15,0-0.4-0.08-0.74-0.26c-0.6-0.3-1.22-0.53-1.87-0.7c-0.65-0.17-1.41-0.26-2.29-0.26
				c-1.77,0-3.13,0.51-4.06,1.54c-0.94,1.02-1.41,2.51-1.41,4.45c0,1.92,0.51,3.4,1.54,4.43c1.02,1.04,2.42,1.55,4.19,1.55
				c1.54,0,2.94-0.32,4.22-0.96c0.34-0.17,0.59-0.26,0.74-0.26c0.23,0,0.44,0.15,0.61,0.45l1.6,2.75c0.19,0.34,0.29,0.61,0.29,0.8
				c0,0.23-0.13,0.45-0.38,0.64c-0.92,0.62-2.07,1.1-3.46,1.44c-1.39,0.34-2.96,0.51-4.7,0.51
				C362.87,292.71,359.85,291.76,357.69,289.85z"/>
			<path class="st8" d="M377.33,291.79c-0.29-0.3-0.43-0.76-0.43-1.38V272.3c0-0.62,0.14-1.08,0.43-1.38
				c0.29-0.3,0.78-0.45,1.49-0.45h7.65c3.2,0,5.53,0.63,6.99,1.9c1.46,1.27,2.19,3.18,2.19,5.74c0,1.54-0.26,2.83-0.78,3.89
				c-0.52,1.06-1.33,1.88-2.42,2.48l2.98,6.37c0.08,0.17,0.13,0.36,0.13,0.58c0,0.23-0.08,0.43-0.24,0.58
				c-0.16,0.15-0.37,0.22-0.62,0.22h-5.41c-0.34,0-0.61-0.05-0.82-0.14c-0.2-0.1-0.35-0.26-0.43-0.5l-2.37-5.95h-1.09v4.77
				c0,0.62-0.14,1.08-0.43,1.38c-0.29,0.3-0.79,0.45-1.52,0.45h-3.81C378.11,292.23,377.61,292.08,377.33,291.79z M385.79,280.3
				c0.68,0,1.22-0.18,1.62-0.54c0.39-0.36,0.59-0.91,0.59-1.63c0-0.75-0.2-1.3-0.59-1.66c-0.4-0.36-0.93-0.54-1.62-0.54h-2.18v4.38
				H385.79z"/>
			<path class="st8" d="M401.31,292.11c-1.66-0.41-3.01-0.97-4.03-1.7c-0.43-0.3-0.64-0.59-0.64-0.86c0-0.19,0.07-0.39,0.22-0.61
				l1.86-2.91c0.19-0.28,0.38-0.42,0.58-0.42c0.17,0,0.37,0.08,0.61,0.22c0.77,0.47,1.65,0.84,2.64,1.1c0.99,0.27,1.96,0.4,2.9,0.4
				c0.79,0,1.36-0.11,1.71-0.32s0.53-0.54,0.53-0.99c0-0.49-0.23-0.88-0.7-1.18c-0.47-0.3-1.28-0.67-2.43-1.12
				c-2.15-0.83-3.85-1.78-5.09-2.83c-1.24-1.06-1.86-2.46-1.86-4.21c0-2.22,0.77-3.89,2.32-5.01c1.55-1.12,3.63-1.68,6.26-1.68
				c1.83,0,3.4,0.16,4.69,0.48c1.29,0.32,2.42,0.82,3.38,1.5c0.43,0.3,0.64,0.59,0.64,0.86c0,0.19-0.08,0.4-0.22,0.61l-1.86,2.91
				c-0.19,0.3-0.38,0.45-0.58,0.45c-0.13,0-0.33-0.08-0.61-0.26c-0.51-0.34-1.12-0.62-1.82-0.85c-0.7-0.22-1.46-0.34-2.27-0.34
				c-0.75,0-1.31,0.11-1.7,0.32c-0.38,0.21-0.58,0.56-0.58,1.02c0,0.38,0.13,0.7,0.4,0.96c0.27,0.26,0.6,0.48,1.01,0.66
				s1.11,0.47,2.11,0.88c1.6,0.64,2.86,1.25,3.78,1.84c0.92,0.59,1.61,1.29,2.08,2.11c0.47,0.82,0.7,1.86,0.7,3.12
				c0,1.92-0.72,3.47-2.16,4.66s-3.59,1.78-6.45,1.78C404.78,292.71,402.97,292.51,401.31,292.11z"/>
			<path class="st8" d="M335.99,312.57c-0.88-0.22-1.6-0.52-2.14-0.9c-0.23-0.16-0.34-0.31-0.34-0.46c0-0.1,0.04-0.21,0.12-0.32
				l0.99-1.55c0.1-0.15,0.2-0.22,0.31-0.22c0.09,0,0.2,0.04,0.32,0.12c0.41,0.25,0.88,0.44,1.4,0.59c0.53,0.14,1.04,0.21,1.54,0.21
				c0.42,0,0.72-0.06,0.91-0.17s0.28-0.29,0.28-0.53c0-0.26-0.13-0.47-0.37-0.63c-0.25-0.16-0.68-0.36-1.29-0.6
				c-1.15-0.44-2.05-0.94-2.7-1.5c-0.66-0.56-0.99-1.31-0.99-2.24c0-1.18,0.41-2.07,1.23-2.66c0.82-0.6,1.93-0.89,3.32-0.89
				c0.97,0,1.8,0.08,2.49,0.25c0.69,0.17,1.28,0.44,1.79,0.8c0.23,0.16,0.34,0.31,0.34,0.46c0,0.1-0.04,0.21-0.12,0.32l-0.99,1.55
				c-0.1,0.16-0.2,0.24-0.31,0.24c-0.07,0-0.18-0.05-0.32-0.14c-0.27-0.18-0.6-0.33-0.97-0.45c-0.37-0.12-0.78-0.18-1.21-0.18
				c-0.4,0-0.7,0.06-0.9,0.17s-0.31,0.29-0.31,0.54c0,0.2,0.07,0.37,0.21,0.51c0.14,0.14,0.32,0.25,0.54,0.35
				c0.22,0.1,0.59,0.25,1.12,0.47c0.85,0.34,1.52,0.67,2.01,0.98c0.49,0.31,0.86,0.69,1.1,1.12c0.25,0.44,0.37,0.99,0.37,1.66
				c0,1.02-0.38,1.84-1.15,2.47c-0.77,0.63-1.91,0.94-3.43,0.94C337.84,312.89,336.88,312.78,335.99,312.57z"/>
			<path class="st8" d="M344.52,312.4c-0.15-0.16-0.23-0.4-0.23-0.73v-9.62c0-0.33,0.08-0.57,0.23-0.73
				c0.15-0.16,0.42-0.24,0.79-0.24h2.02c0.38,0,0.65,0.08,0.81,0.23c0.15,0.15,0.23,0.4,0.23,0.74v9.62c0,0.33-0.08,0.57-0.23,0.73
				c-0.15,0.16-0.42,0.24-0.81,0.24h-2.02C344.94,312.63,344.67,312.55,344.52,312.4z"/>
			<path class="st8" d="M351.72,312.57c-0.88-0.22-1.6-0.52-2.14-0.9c-0.23-0.16-0.34-0.31-0.34-0.46c0-0.1,0.04-0.21,0.12-0.32
				l0.99-1.55c0.1-0.15,0.2-0.22,0.31-0.22c0.09,0,0.2,0.04,0.32,0.12c0.41,0.25,0.88,0.44,1.4,0.59c0.53,0.14,1.04,0.21,1.54,0.21
				c0.42,0,0.72-0.06,0.91-0.17s0.28-0.29,0.28-0.53c0-0.26-0.13-0.47-0.37-0.63c-0.25-0.16-0.68-0.36-1.29-0.6
				c-1.15-0.44-2.05-0.94-2.7-1.5c-0.66-0.56-0.99-1.31-0.99-2.24c0-1.18,0.41-2.07,1.23-2.66c0.82-0.6,1.93-0.89,3.32-0.89
				c0.97,0,1.8,0.08,2.49,0.25c0.69,0.17,1.28,0.44,1.79,0.8c0.23,0.16,0.34,0.31,0.34,0.46c0,0.1-0.04,0.21-0.12,0.32l-0.99,1.55
				c-0.1,0.16-0.2,0.24-0.31,0.24c-0.07,0-0.18-0.05-0.32-0.14c-0.27-0.18-0.6-0.33-0.97-0.45c-0.37-0.12-0.78-0.18-1.21-0.18
				c-0.4,0-0.7,0.06-0.9,0.17s-0.31,0.29-0.31,0.54c0,0.2,0.07,0.37,0.21,0.51c0.14,0.14,0.32,0.25,0.54,0.35
				c0.22,0.1,0.59,0.25,1.12,0.47c0.85,0.34,1.52,0.67,2.01,0.98c0.49,0.31,0.86,0.69,1.1,1.12c0.25,0.44,0.37,0.99,0.37,1.66
				c0,1.02-0.38,1.84-1.15,2.47c-0.77,0.63-1.91,0.94-3.43,0.94C353.56,312.89,352.6,312.78,351.72,312.57z"/>
			<path class="st8" d="M362.52,312.4c-0.15-0.16-0.23-0.4-0.23-0.73v-7.7h-2.45c-0.36,0-0.61-0.08-0.74-0.23
				c-0.13-0.15-0.2-0.4-0.2-0.74v-0.95c0-0.34,0.07-0.59,0.2-0.74c0.13-0.15,0.38-0.23,0.74-0.23h8.98c0.36,0,0.61,0.08,0.74,0.23
				s0.2,0.4,0.2,0.74v0.95c0,0.34-0.07,0.59-0.2,0.74c-0.13,0.15-0.38,0.23-0.74,0.23h-2.45v7.7c0,0.33-0.08,0.57-0.23,0.73
				s-0.42,0.24-0.81,0.24h-2.02C362.94,312.63,362.68,312.55,362.52,312.4z"/>
			<path class="st8" d="M370.5,312.4c-0.15-0.16-0.23-0.4-0.23-0.73v-9.62c0-0.33,0.08-0.57,0.23-0.73
				c0.15-0.16,0.42-0.24,0.79-0.24h7.04c0.36,0,0.61,0.08,0.74,0.23c0.13,0.15,0.2,0.4,0.2,0.74v0.95c0,0.34-0.07,0.59-0.2,0.74
				c-0.13,0.15-0.38,0.23-0.74,0.23h-3.98v1.46h2.45c0.36,0,0.61,0.08,0.74,0.23s0.2,0.4,0.2,0.74v0.92c0,0.34-0.07,0.59-0.2,0.74
				s-0.38,0.23-0.74,0.23h-2.45v1.46h3.96c0.36,0,0.61,0.08,0.74,0.23c0.13,0.15,0.2,0.4,0.2,0.74v0.95c0,0.34-0.06,0.59-0.2,0.74
				s-0.38,0.23-0.74,0.23h-7.02C370.91,312.63,370.65,312.55,370.5,312.4z"/>
			<path class="st8" d="M380.25,312.4c-0.15-0.16-0.23-0.4-0.23-0.73v-9.64c0-0.33,0.08-0.57,0.23-0.72
				c0.15-0.15,0.42-0.23,0.81-0.23h1.96c0.25,0,0.45,0.03,0.6,0.09c0.15,0.06,0.26,0.18,0.34,0.37l1.99,4.98l1.99-4.98
				c0.08-0.18,0.19-0.3,0.34-0.37c0.15-0.06,0.35-0.09,0.6-0.09h1.96c0.39,0,0.65,0.08,0.81,0.23c0.15,0.15,0.23,0.39,0.23,0.72
				v9.64c0,0.33-0.08,0.57-0.23,0.73c-0.15,0.16-0.42,0.24-0.79,0.24h-1.63c-0.37,0-0.64-0.08-0.8-0.24s-0.24-0.4-0.24-0.73v-4.64
				l-1,2.31c-0.14,0.33-0.28,0.56-0.44,0.71s-0.42,0.21-0.78,0.21c-0.36,0-0.62-0.07-0.78-0.21s-0.31-0.38-0.44-0.71l-1-2.31v4.64
				c0,0.33-0.08,0.57-0.23,0.73c-0.15,0.16-0.42,0.24-0.81,0.24h-1.63C380.67,312.63,380.41,312.55,380.25,312.4z"/>
			<path class="st8" d="M392.28,312.28c0-0.1,0.03-0.23,0.08-0.37l4.23-10.18c0.1-0.24,0.22-0.4,0.35-0.5
				c0.13-0.1,0.31-0.14,0.55-0.14h1.85c0.24,0,0.42,0.05,0.55,0.14c0.13,0.1,0.25,0.26,0.35,0.5l4.22,10.18
				c0.06,0.15,0.08,0.27,0.08,0.37c0,0.24-0.12,0.36-0.37,0.36h-3.2c-0.35,0-0.57-0.15-0.66-0.46l-0.41-1.26h-3.01l-0.39,1.26
				c-0.09,0.31-0.31,0.46-0.66,0.46h-3.2C392.4,312.63,392.28,312.51,392.28,312.28z M399.08,308.23l-0.66-2.11l-0.66,2.11H399.08z"
				/>
			<path class="st8" d="M410.73,312.4c-0.15-0.16-0.23-0.4-0.23-0.73v-9.62c0-0.33,0.08-0.57,0.23-0.73
				c0.15-0.16,0.42-0.24,0.79-0.24h3.91c4,0,6,1.93,6,5.78c0,1.9-0.51,3.34-1.54,4.32s-2.51,1.46-4.46,1.46h-3.91
				C411.15,312.63,410.89,312.55,410.73,312.4z M415.59,309.74c0.63,0,1.09-0.21,1.37-0.63c0.28-0.42,0.42-1.17,0.42-2.26
				c0-1.09-0.14-1.84-0.42-2.26c-0.28-0.42-0.73-0.63-1.37-0.63h-1v5.78H415.59z"/>
			<path class="st8" d="M422.51,312.4c-0.15-0.16-0.23-0.4-0.23-0.73v-9.62c0-0.33,0.08-0.57,0.23-0.73
				c0.15-0.16,0.42-0.24,0.79-0.24h7.04c0.36,0,0.61,0.08,0.74,0.23c0.13,0.15,0.2,0.4,0.2,0.74v0.95c0,0.34-0.07,0.59-0.2,0.74
				c-0.13,0.15-0.38,0.23-0.74,0.23h-3.98v1.46h2.45c0.36,0,0.61,0.08,0.74,0.23s0.2,0.4,0.2,0.74v0.92c0,0.34-0.07,0.59-0.2,0.74
				s-0.38,0.23-0.74,0.23h-2.45v1.46h3.96c0.36,0,0.61,0.08,0.74,0.23c0.13,0.15,0.2,0.4,0.2,0.74v0.95c0,0.34-0.06,0.59-0.2,0.74
				s-0.38,0.23-0.74,0.23h-7.02C422.93,312.63,422.67,312.55,422.51,312.4z"/>
			<path class="st8" d="M321.57,332.8c-0.15-0.16-0.23-0.4-0.23-0.73v-9.62c0-0.33,0.08-0.57,0.23-0.73
				c0.15-0.16,0.42-0.24,0.79-0.24h7.04c0.36,0,0.61,0.08,0.74,0.23c0.13,0.15,0.2,0.4,0.2,0.74v0.95c0,0.34-0.07,0.59-0.2,0.74
				c-0.13,0.15-0.38,0.23-0.74,0.23h-3.98v1.46h2.45c0.36,0,0.61,0.08,0.74,0.23s0.2,0.4,0.2,0.74v0.92c0,0.34-0.07,0.59-0.2,0.74
				s-0.38,0.23-0.74,0.23h-2.45v1.46h3.96c0.36,0,0.61,0.08,0.74,0.23c0.13,0.15,0.2,0.4,0.2,0.74v0.95c0,0.34-0.06,0.59-0.2,0.74
				s-0.38,0.23-0.74,0.23h-7.02C321.99,333.03,321.72,332.95,321.57,332.8z"/>
			<path class="st8" d="M331.33,332.8c-0.15-0.16-0.23-0.4-0.23-0.73v-9.64c0-0.33,0.08-0.57,0.23-0.72
				c0.15-0.15,0.42-0.23,0.81-0.23h1.62c0.24,0,0.42,0.03,0.55,0.09c0.13,0.06,0.26,0.18,0.38,0.37l3.08,4.57v-4.06
				c0-0.33,0.08-0.57,0.23-0.73c0.15-0.16,0.42-0.24,0.79-0.24h2.02c0.39,0,0.65,0.08,0.81,0.23c0.15,0.15,0.23,0.4,0.23,0.74v9.64
				c0,0.33-0.08,0.57-0.23,0.72c-0.15,0.15-0.42,0.23-0.81,0.23h-1.61c-0.24,0-0.42-0.03-0.55-0.09c-0.13-0.06-0.26-0.18-0.38-0.37
				l-3.08-4.57v4.08c0,0.33-0.08,0.57-0.23,0.72c-0.15,0.15-0.42,0.23-0.81,0.23h-2.02C331.74,333.03,331.48,332.95,331.33,332.8z"
				/>
			<path class="st8" d="M343.26,332.8c-0.15-0.16-0.23-0.4-0.23-0.73v-9.62c0-0.33,0.08-0.57,0.23-0.73
				c0.15-0.16,0.42-0.24,0.79-0.24h4.06c1.7,0,2.94,0.34,3.71,1.01c0.78,0.67,1.16,1.69,1.16,3.05c0,0.82-0.14,1.5-0.42,2.07
				c-0.28,0.56-0.71,1-1.28,1.32l1.58,3.38c0.05,0.09,0.07,0.19,0.07,0.31c0,0.12-0.04,0.23-0.13,0.31
				c-0.08,0.08-0.2,0.12-0.33,0.12h-2.87c-0.18,0-0.33-0.03-0.43-0.08c-0.11-0.05-0.18-0.14-0.23-0.26l-1.26-3.16h-0.58v2.53
				c0,0.33-0.08,0.57-0.23,0.73c-0.15,0.16-0.42,0.24-0.81,0.24h-2.02C343.68,333.03,343.41,332.95,343.26,332.8z M347.76,326.69
				c0.36,0,0.65-0.1,0.86-0.29c0.21-0.19,0.31-0.48,0.31-0.87c0-0.4-0.1-0.69-0.31-0.88c-0.21-0.19-0.5-0.29-0.86-0.29h-1.16v2.33
				H347.76z"/>
			<path class="st8" d="M356.41,332.75c-0.84-0.36-1.49-0.87-1.96-1.55c-0.46-0.67-0.7-1.48-0.7-2.41v-6.36
				c0-0.33,0.08-0.57,0.23-0.73c0.15-0.16,0.42-0.24,0.79-0.24h2.02c0.38,0,0.65,0.08,0.81,0.23c0.15,0.15,0.23,0.4,0.23,0.74v6.41
				c0,0.53,0.13,0.93,0.4,1.19c0.27,0.26,0.63,0.39,1.1,0.39s0.83-0.13,1.1-0.39c0.27-0.26,0.4-0.66,0.4-1.19v-6.41
				c0-0.33,0.08-0.57,0.23-0.73s0.42-0.24,0.79-0.24h2.02c0.39,0,0.65,0.08,0.81,0.23c0.15,0.15,0.23,0.4,0.23,0.74v6.36
				c0,0.93-0.23,1.73-0.7,2.41c-0.46,0.67-1.12,1.19-1.96,1.55c-0.84,0.36-1.81,0.54-2.92,0.54S357.25,333.11,356.41,332.75z"/>
			<path class="st8" d="M368.95,332.8c-0.15-0.16-0.23-0.4-0.23-0.73v-7.7h-2.45c-0.36,0-0.61-0.08-0.74-0.23
				c-0.13-0.15-0.2-0.4-0.2-0.74v-0.95c0-0.34,0.07-0.59,0.2-0.74c0.13-0.15,0.38-0.23,0.74-0.23h8.98c0.36,0,0.61,0.08,0.74,0.23
				s0.2,0.4,0.2,0.74v0.95c0,0.34-0.07,0.59-0.2,0.74c-0.13,0.15-0.38,0.23-0.74,0.23h-2.45v7.7c0,0.33-0.08,0.57-0.23,0.73
				s-0.42,0.24-0.81,0.24h-2.02C369.36,333.03,369.1,332.95,368.95,332.8z"/>
			<path class="st8" d="M374.23,332.68c0-0.1,0.03-0.23,0.08-0.37l4.23-10.18c0.1-0.24,0.22-0.4,0.35-0.5
				c0.13-0.1,0.31-0.14,0.55-0.14h1.85c0.24,0,0.42,0.05,0.55,0.14c0.13,0.1,0.25,0.26,0.35,0.5l4.22,10.18
				c0.06,0.15,0.08,0.27,0.08,0.37c0,0.24-0.12,0.36-0.37,0.36h-3.2c-0.35,0-0.57-0.15-0.66-0.46l-0.41-1.26h-3.01l-0.39,1.26
				c-0.09,0.31-0.31,0.46-0.66,0.46h-3.2C374.35,333.03,374.23,332.91,374.23,332.68z M381.03,328.63l-0.66-2.11l-0.66,2.11H381.03z
				"/>
			<path class="st8" d="M387.15,332.8c-0.15-0.16-0.23-0.4-0.23-0.73v-9.64c0-0.33,0.08-0.57,0.23-0.72
				c0.15-0.15,0.42-0.23,0.81-0.23h1.96c0.25,0,0.45,0.03,0.6,0.09c0.15,0.06,0.26,0.18,0.34,0.37l1.99,4.98l1.99-4.98
				c0.08-0.18,0.19-0.3,0.34-0.37c0.15-0.06,0.35-0.09,0.6-0.09h1.96c0.39,0,0.65,0.08,0.81,0.23c0.15,0.15,0.23,0.39,0.23,0.72
				v9.64c0,0.33-0.08,0.57-0.23,0.73c-0.15,0.16-0.42,0.24-0.79,0.24h-1.63c-0.37,0-0.64-0.08-0.8-0.24s-0.24-0.4-0.24-0.73v-4.64
				l-1,2.31c-0.14,0.33-0.28,0.56-0.44,0.71s-0.42,0.21-0.78,0.21c-0.36,0-0.62-0.07-0.78-0.21s-0.31-0.38-0.44-0.71l-1-2.31v4.64
				c0,0.33-0.08,0.57-0.23,0.73c-0.15,0.16-0.42,0.24-0.81,0.24h-1.63C387.57,333.03,387.31,332.95,387.15,332.8z"/>
			<path class="st8" d="M400.18,332.8c-0.15-0.16-0.23-0.4-0.23-0.73v-9.62c0-0.33,0.08-0.57,0.23-0.73
				c0.15-0.16,0.42-0.24,0.79-0.24h2.02c0.38,0,0.65,0.08,0.81,0.23c0.15,0.15,0.23,0.4,0.23,0.74v9.62c0,0.33-0.08,0.57-0.23,0.73
				c-0.15,0.16-0.42,0.24-0.81,0.24h-2.02C400.59,333.03,400.33,332.95,400.18,332.8z"/>
			<path class="st8" d="M405.45,332.8c-0.15-0.16-0.23-0.4-0.23-0.73v-9.62c0-0.33,0.08-0.57,0.23-0.73
				c0.15-0.16,0.42-0.24,0.79-0.24h7.04c0.36,0,0.61,0.08,0.74,0.23c0.13,0.15,0.2,0.4,0.2,0.74v0.95c0,0.34-0.07,0.59-0.2,0.74
				c-0.13,0.15-0.38,0.23-0.74,0.23h-3.98v1.46h2.45c0.36,0,0.61,0.08,0.74,0.23s0.2,0.4,0.2,0.74v0.92c0,0.34-0.07,0.59-0.2,0.74
				s-0.38,0.23-0.74,0.23h-2.45v1.46h3.96c0.36,0,0.61,0.08,0.74,0.23c0.13,0.15,0.2,0.4,0.2,0.74v0.95c0,0.34-0.06,0.59-0.2,0.74
				s-0.38,0.23-0.74,0.23h-7.02C405.86,333.03,405.6,332.95,405.45,332.8z"/>
			<path class="st8" d="M415.2,332.8c-0.15-0.16-0.23-0.4-0.23-0.73v-9.64c0-0.33,0.08-0.57,0.23-0.72
				c0.15-0.15,0.42-0.23,0.81-0.23h1.62c0.24,0,0.42,0.03,0.55,0.09c0.13,0.06,0.26,0.18,0.38,0.37l3.08,4.57v-4.06
				c0-0.33,0.08-0.57,0.23-0.73c0.15-0.16,0.42-0.24,0.79-0.24h2.02c0.39,0,0.65,0.08,0.81,0.23c0.15,0.15,0.23,0.4,0.23,0.74v9.64
				c0,0.33-0.08,0.57-0.23,0.72c-0.15,0.15-0.42,0.23-0.81,0.23h-1.61c-0.24,0-0.42-0.03-0.55-0.09c-0.13-0.06-0.26-0.18-0.38-0.37
				l-3.08-4.57v4.08c0,0.33-0.08,0.57-0.23,0.72c-0.15,0.15-0.42,0.23-0.81,0.23h-2.02C415.62,333.03,415.36,332.95,415.2,332.8z"/>
			<path class="st8" d="M429.84,332.8c-0.15-0.16-0.23-0.4-0.23-0.73v-7.7h-2.45c-0.36,0-0.61-0.08-0.74-0.23
				c-0.13-0.15-0.2-0.4-0.2-0.74v-0.95c0-0.34,0.07-0.59,0.2-0.74c0.13-0.15,0.38-0.23,0.74-0.23h8.98c0.36,0,0.61,0.08,0.74,0.23
				s0.2,0.4,0.2,0.74v0.95c0,0.34-0.07,0.59-0.2,0.74c-0.13,0.15-0.38,0.23-0.74,0.23h-2.45v7.7c0,0.33-0.08,0.57-0.23,0.73
				s-0.42,0.24-0.81,0.24h-2.02C430.26,333.03,429.99,332.95,429.84,332.8z"/>
			<path class="st8" d="M438.04,331.72c-1.04-1.05-1.56-2.54-1.56-4.46s0.52-3.41,1.56-4.46c1.04-1.05,2.57-1.57,4.59-1.57
				c2.02,0,3.55,0.52,4.59,1.57c1.04,1.05,1.56,2.54,1.56,4.46s-0.52,3.41-1.56,4.46c-1.04,1.05-2.57,1.57-4.59,1.57
				C440.62,333.29,439.09,332.76,438.04,331.72z M444.23,329.64c0.33-0.53,0.49-1.32,0.49-2.39c0-1.08-0.16-1.88-0.49-2.4
				c-0.33-0.52-0.86-0.78-1.6-0.78c-0.74,0-1.27,0.26-1.6,0.78c-0.33,0.52-0.49,1.32-0.49,2.4c0,1.07,0.16,1.86,0.49,2.39
				c0.33,0.53,0.86,0.79,1.6,0.79C443.37,330.43,443.9,330.17,444.23,329.64z"/>
			<path class="st8" d="M324.2,353.2c-0.15-0.16-0.23-0.4-0.23-0.73v-9.62c0-0.33,0.08-0.57,0.23-0.73
				c0.15-0.16,0.42-0.24,0.79-0.24h3.91c4,0,6,1.93,6,5.78c0,1.9-0.51,3.34-1.54,4.32s-2.51,1.46-4.46,1.46H325
				C324.62,353.43,324.36,353.35,324.2,353.2z M329.06,350.54c0.63,0,1.09-0.21,1.37-0.63c0.28-0.42,0.42-1.17,0.42-2.26
				c0-1.09-0.14-1.84-0.42-2.26c-0.28-0.42-0.73-0.63-1.37-0.63h-1v5.78H329.06z"/>
			<path class="st8" d="M335.99,353.2c-0.15-0.16-0.23-0.4-0.23-0.73v-9.62c0-0.33,0.08-0.57,0.23-0.73
				c0.15-0.16,0.42-0.24,0.79-0.24h7.04c0.36,0,0.61,0.08,0.74,0.23c0.13,0.15,0.2,0.4,0.2,0.74v0.95c0,0.34-0.07,0.59-0.2,0.74
				c-0.13,0.15-0.38,0.23-0.74,0.23h-3.98v1.46h2.45c0.36,0,0.61,0.08,0.74,0.23s0.2,0.4,0.2,0.74v0.92c0,0.34-0.07,0.59-0.2,0.74
				s-0.38,0.23-0.74,0.23h-2.45v1.46h3.96c0.36,0,0.61,0.08,0.74,0.23c0.13,0.15,0.2,0.4,0.2,0.74v0.95c0,0.34-0.06,0.59-0.2,0.74
				s-0.38,0.23-0.74,0.23h-7.02C336.4,353.43,336.14,353.35,335.99,353.2z"/>
			<path class="st8" d="M351.84,352.12c-1.04-1.05-1.56-2.54-1.56-4.46s0.52-3.41,1.56-4.46c1.04-1.05,2.57-1.57,4.59-1.57
				c2.02,0,3.55,0.52,4.59,1.57c1.04,1.05,1.56,2.54,1.56,4.46s-0.52,3.41-1.56,4.46c-1.04,1.05-2.57,1.57-4.59,1.57
				C354.41,353.69,352.88,353.17,351.84,352.12z M358.03,350.04c0.33-0.53,0.49-1.32,0.49-2.39c0-1.08-0.16-1.88-0.49-2.4
				c-0.33-0.52-0.86-0.78-1.6-0.78c-0.74,0-1.27,0.26-1.6,0.78c-0.33,0.52-0.49,1.32-0.49,2.4c0,1.07,0.16,1.86,0.49,2.39
				c0.33,0.53,0.86,0.79,1.6,0.79C357.16,350.83,357.7,350.57,358.03,350.04z"/>
			<path class="st8" d="M363.66,353.2c-0.15-0.16-0.23-0.4-0.23-0.73v-9.62c0-0.33,0.08-0.57,0.23-0.73
				c0.15-0.16,0.42-0.24,0.79-0.24h4.06c1.7,0,2.94,0.34,3.71,1.01c0.78,0.67,1.16,1.69,1.16,3.05s-0.39,2.37-1.16,3.04
				c-0.78,0.67-2.01,1-3.7,1h-1.02v2.48c0,0.33-0.08,0.57-0.23,0.73c-0.15,0.16-0.42,0.24-0.81,0.24h-2.02
				C364.08,353.43,363.81,353.35,363.66,353.2z M368.16,347.09c0.36,0,0.65-0.1,0.86-0.29c0.21-0.19,0.31-0.48,0.31-0.87
				c0-0.4-0.1-0.69-0.31-0.88c-0.21-0.19-0.5-0.29-0.86-0.29H367v2.33H368.16z"/>
			<path class="st8" d="M374.13,353.2c-0.15-0.16-0.23-0.4-0.23-0.73v-9.62c0-0.33,0.08-0.57,0.23-0.73
				c0.15-0.16,0.42-0.24,0.79-0.24h7.04c0.36,0,0.61,0.08,0.74,0.23c0.13,0.15,0.2,0.4,0.2,0.74v0.95c0,0.34-0.07,0.59-0.2,0.74
				c-0.13,0.15-0.38,0.23-0.74,0.23h-3.98v1.46h2.45c0.36,0,0.61,0.08,0.74,0.23s0.2,0.4,0.2,0.74v0.92c0,0.34-0.07,0.59-0.2,0.74
				s-0.38,0.23-0.74,0.23h-2.45v1.46h3.96c0.36,0,0.61,0.08,0.74,0.23c0.13,0.15,0.2,0.4,0.2,0.74v0.95c0,0.34-0.06,0.59-0.2,0.74
				s-0.38,0.23-0.74,0.23h-7.02C374.55,353.43,374.29,353.35,374.13,353.2z"/>
			<path class="st8" d="M383.89,353.2c-0.15-0.16-0.23-0.4-0.23-0.73v-9.62c0-0.33,0.08-0.57,0.23-0.73
				c0.15-0.16,0.42-0.24,0.79-0.24h4.06c1.7,0,2.94,0.34,3.71,1.01c0.78,0.67,1.16,1.69,1.16,3.05c0,0.82-0.14,1.5-0.42,2.07
				c-0.28,0.56-0.71,1-1.28,1.32l1.58,3.38c0.05,0.09,0.07,0.19,0.07,0.31c0,0.12-0.04,0.23-0.13,0.31
				c-0.08,0.08-0.2,0.12-0.33,0.12h-2.87c-0.18,0-0.33-0.03-0.43-0.08c-0.11-0.05-0.18-0.14-0.23-0.26l-1.26-3.16h-0.58v2.53
				c0,0.33-0.08,0.57-0.23,0.73c-0.15,0.16-0.42,0.24-0.81,0.24h-2.02C384.31,353.43,384.04,353.35,383.89,353.2z M388.39,347.09
				c0.36,0,0.65-0.1,0.86-0.29c0.21-0.19,0.31-0.48,0.31-0.87c0-0.4-0.1-0.69-0.31-0.88c-0.21-0.19-0.5-0.29-0.86-0.29h-1.16v2.33
				H388.39z"/>
			<path class="st8" d="M393.37,353.08c0-0.1,0.03-0.23,0.08-0.37l4.23-10.18c0.1-0.24,0.22-0.4,0.35-0.5
				c0.13-0.1,0.31-0.14,0.55-0.14h1.85c0.24,0,0.42,0.05,0.55,0.14c0.13,0.1,0.25,0.26,0.35,0.5l4.22,10.18
				c0.06,0.15,0.08,0.27,0.08,0.37c0,0.24-0.12,0.36-0.37,0.36h-3.2c-0.35,0-0.57-0.15-0.66-0.46l-0.41-1.26h-3.01l-0.39,1.26
				c-0.09,0.31-0.31,0.46-0.66,0.46h-3.2C393.49,353.43,393.37,353.31,393.37,353.08z M400.17,349.03l-0.66-2.11l-0.66,2.11H400.17z
				"/>
			<path class="st8" d="M406.72,353.2c-0.15-0.16-0.23-0.4-0.23-0.73v-9.62c0-0.33,0.08-0.57,0.23-0.73
				c0.15-0.16,0.42-0.24,0.79-0.24h3.91c4,0,6,1.93,6,5.78c0,1.9-0.51,3.34-1.54,4.32s-2.51,1.46-4.46,1.46h-3.91
				C407.14,353.43,406.87,353.35,406.72,353.2z M411.58,350.54c0.63,0,1.09-0.21,1.37-0.63c0.28-0.42,0.42-1.17,0.42-2.26
				c0-1.09-0.14-1.84-0.42-2.26c-0.28-0.42-0.73-0.63-1.37-0.63h-1v5.78H411.58z"/>
			<path class="st8" d="M419.5,352.12c-1.04-1.05-1.56-2.54-1.56-4.46s0.52-3.41,1.56-4.46c1.04-1.05,2.57-1.57,4.59-1.57
				c2.02,0,3.55,0.52,4.59,1.57c1.04,1.05,1.56,2.54,1.56,4.46s-0.52,3.41-1.56,4.46c-1.04,1.05-2.57,1.57-4.59,1.57
				C422.07,353.69,420.54,353.17,419.5,352.12z M425.68,350.04c0.33-0.53,0.49-1.32,0.49-2.39c0-1.08-0.16-1.88-0.49-2.4
				c-0.33-0.52-0.86-0.78-1.6-0.78c-0.74,0-1.27,0.26-1.6,0.78c-0.33,0.52-0.49,1.32-0.49,2.4c0,1.07,0.16,1.86,0.49,2.39
				c0.33,0.53,0.86,0.79,1.6,0.79C424.82,350.83,425.36,350.57,425.68,350.04z"/>
			<path class="st8" d="M431.32,353.2c-0.15-0.16-0.23-0.4-0.23-0.73v-9.62c0-0.33,0.08-0.57,0.23-0.73
				c0.15-0.16,0.42-0.24,0.79-0.24h4.06c1.7,0,2.94,0.34,3.71,1.01c0.78,0.67,1.16,1.69,1.16,3.05c0,0.82-0.14,1.5-0.42,2.07
				c-0.28,0.56-0.71,1-1.28,1.32l1.58,3.38c0.05,0.09,0.07,0.19,0.07,0.31c0,0.12-0.04,0.23-0.13,0.31
				c-0.08,0.08-0.2,0.12-0.33,0.12h-2.87c-0.18,0-0.33-0.03-0.43-0.08c-0.11-0.05-0.18-0.14-0.23-0.26l-1.26-3.16h-0.58v2.53
				c0,0.33-0.08,0.57-0.23,0.73c-0.15,0.16-0.42,0.24-0.81,0.24h-2.02C431.74,353.43,431.47,353.35,431.32,353.2z M435.82,347.09
				c0.36,0,0.65-0.1,0.86-0.29c0.21-0.19,0.31-0.48,0.31-0.87c0-0.4-0.1-0.69-0.31-0.88c-0.21-0.19-0.5-0.29-0.86-0.29h-1.16v2.33
				H435.82z"/>
		</g>
	</g>
</g>
<g id="Capa_6">
	<g>
		<g>
			<path class="st7" d="M601,175.5c0,46.12-36.88,83.5-83,83.5s-84-37.38-84-83.5S471.38,92,517.5,92S601,129.38,601,175.5z"/>
		</g>
		<g>
			<path class="st8" d="M445.25,187.84c-0.25-0.26-0.38-0.66-0.38-1.2v-15.85c0-0.54,0.13-0.94,0.38-1.2
				c0.25-0.26,0.69-0.39,1.3-0.39h3.33c0.63,0,1.08,0.13,1.33,0.38c0.25,0.25,0.38,0.66,0.38,1.22v12.68h6.52
				c0.6,0,1,0.13,1.22,0.38c0.21,0.25,0.32,0.66,0.32,1.22v1.57c0,0.56-0.11,0.97-0.32,1.22c-0.21,0.25-0.62,0.38-1.22,0.38h-11.56
				C445.94,188.23,445.5,188.1,445.25,187.84z"/>
			<path class="st8" d="M460.88,187.84c-0.25-0.26-0.38-0.66-0.38-1.2v-15.85c0-0.54,0.13-0.94,0.38-1.2
				c0.25-0.26,0.69-0.39,1.3-0.39h3.33c0.63,0,1.08,0.13,1.33,0.38c0.25,0.25,0.38,0.66,0.38,1.22v12.68h6.52
				c0.6,0,1,0.13,1.22,0.38c0.21,0.25,0.32,0.66,0.32,1.22v1.57c0,0.56-0.11,0.97-0.32,1.22c-0.21,0.25-0.62,0.38-1.22,0.38h-11.56
				C461.56,188.23,461.13,188.1,460.88,187.84z"/>
			<path class="st8" d="M475.14,187.65c0-0.17,0.05-0.37,0.14-0.62l6.97-16.77c0.17-0.39,0.36-0.67,0.57-0.83
				c0.21-0.16,0.52-0.24,0.91-0.24h3.05c0.39,0,0.7,0.08,0.91,0.24c0.21,0.16,0.41,0.43,0.57,0.83l6.94,16.77
				c0.09,0.24,0.14,0.45,0.14,0.62c0,0.39-0.21,0.59-0.62,0.59h-5.26c-0.58,0-0.94-0.25-1.09-0.76l-0.67-2.07h-4.96l-0.64,2.07
				c-0.15,0.5-0.51,0.76-1.09,0.76h-5.26C475.35,188.23,475.14,188.04,475.14,187.65z M486.34,180.98l-1.09-3.47l-1.09,3.47H486.34z
				"/>
			<path class="st8" d="M496.44,187.84c-0.25-0.26-0.38-0.66-0.38-1.2v-15.88c0-0.54,0.13-0.94,0.38-1.19s0.7-0.38,1.33-0.38h3.22
				c0.41,0,0.74,0.05,0.98,0.15c0.24,0.1,0.43,0.3,0.56,0.6l3.28,8.2l3.28-8.2c0.13-0.3,0.32-0.5,0.56-0.6
				c0.24-0.1,0.57-0.15,0.98-0.15h3.22c0.63,0,1.08,0.13,1.33,0.38s0.38,0.65,0.38,1.19v15.88c0,0.54-0.13,0.94-0.38,1.2
				c-0.25,0.26-0.69,0.39-1.3,0.39h-2.69c-0.62,0-1.05-0.13-1.32-0.39c-0.26-0.26-0.39-0.66-0.39-1.2v-7.64l-1.65,3.81
				c-0.22,0.54-0.47,0.93-0.73,1.16c-0.26,0.23-0.69,0.35-1.29,0.35c-0.6,0-1.03-0.12-1.29-0.35c-0.26-0.23-0.5-0.62-0.73-1.16
				l-1.65-3.81v7.64c0,0.54-0.13,0.94-0.38,1.2c-0.25,0.26-0.7,0.39-1.33,0.39h-2.69C497.12,188.23,496.69,188.1,496.44,187.84z"/>
			<path class="st8" d="M516.25,187.65c0-0.17,0.05-0.37,0.14-0.62l6.97-16.77c0.17-0.39,0.36-0.67,0.57-0.83
				c0.21-0.16,0.52-0.24,0.91-0.24h3.05c0.39,0,0.7,0.08,0.91,0.24c0.21,0.16,0.41,0.43,0.57,0.83l6.94,16.77
				c0.09,0.24,0.14,0.45,0.14,0.62c0,0.39-0.21,0.59-0.62,0.59h-5.26c-0.58,0-0.94-0.25-1.09-0.76l-0.67-2.07h-4.96l-0.64,2.07
				c-0.15,0.5-0.51,0.76-1.09,0.76h-5.26C516.45,188.23,516.25,188.04,516.25,187.65z M527.45,180.98l-1.09-3.47l-1.09,3.47H527.45z
				"/>
			<path class="st8" d="M538.24,187.84c-0.25-0.26-0.38-0.66-0.38-1.2v-15.85c0-0.54,0.13-0.94,0.38-1.2
				c0.25-0.26,0.69-0.39,1.3-0.39h6.44c6.59,0,9.88,3.17,9.88,9.52c0,3.14-0.84,5.51-2.53,7.11c-1.69,1.61-4.14,2.41-7.35,2.41
				h-6.44C538.93,188.23,538.49,188.1,538.24,187.84z M546.23,183.47c1.04,0,1.8-0.35,2.25-1.04c0.46-0.69,0.69-1.93,0.69-3.72
				s-0.23-3.03-0.69-3.72c-0.46-0.69-1.21-1.04-2.25-1.04h-1.65v9.52H546.23z"/>
			<path class="st8" d="M555.45,187.65c0-0.17,0.05-0.37,0.14-0.62l6.97-16.77c0.17-0.39,0.36-0.67,0.57-0.83
				c0.21-0.16,0.52-0.24,0.91-0.24h3.05c0.39,0,0.7,0.08,0.91,0.24c0.21,0.16,0.41,0.43,0.57,0.83l6.94,16.77
				c0.09,0.24,0.14,0.45,0.14,0.62c0,0.39-0.21,0.59-0.62,0.59h-5.26c-0.58,0-0.94-0.25-1.09-0.76l-0.67-2.07h-4.96l-0.64,2.07
				c-0.15,0.5-0.51,0.76-1.09,0.76h-5.26C555.65,188.23,555.45,188.04,555.45,187.65z M566.65,180.98l-1.09-3.47l-1.09,3.47H566.65z
				"/>
			<path class="st8" d="M579.36,188.12c-1.46-0.35-2.63-0.85-3.53-1.48c-0.37-0.26-0.56-0.51-0.56-0.76c0-0.17,0.06-0.35,0.2-0.53
				l1.62-2.55c0.17-0.24,0.34-0.36,0.5-0.36c0.15,0,0.33,0.07,0.53,0.2c0.67,0.41,1.44,0.73,2.31,0.97
				c0.87,0.23,1.71,0.35,2.53,0.35c0.69,0,1.19-0.09,1.5-0.28c0.31-0.19,0.46-0.48,0.46-0.87c0-0.43-0.21-0.77-0.62-1.04
				c-0.41-0.26-1.12-0.59-2.13-0.98c-1.89-0.73-3.37-1.55-4.45-2.48c-1.08-0.92-1.62-2.15-1.62-3.68c0-1.94,0.68-3.4,2.03-4.38
				c1.35-0.98,3.18-1.47,5.47-1.47c1.6,0,2.97,0.14,4.1,0.42c1.13,0.28,2.11,0.72,2.95,1.32c0.37,0.26,0.56,0.51,0.56,0.76
				c0,0.17-0.07,0.35-0.2,0.53l-1.62,2.55c-0.17,0.26-0.34,0.39-0.5,0.39c-0.11,0-0.29-0.07-0.53-0.22c-0.45-0.3-0.98-0.55-1.6-0.74
				c-0.62-0.2-1.28-0.29-1.99-0.29c-0.65,0-1.15,0.09-1.48,0.28c-0.34,0.19-0.5,0.49-0.5,0.9c0,0.34,0.12,0.62,0.35,0.84
				c0.23,0.22,0.53,0.42,0.88,0.57c0.35,0.16,0.97,0.42,1.85,0.77c1.4,0.56,2.5,1.1,3.3,1.61c0.8,0.51,1.41,1.13,1.82,1.85
				c0.41,0.72,0.62,1.63,0.62,2.73c0,1.68-0.63,3.04-1.89,4.07c-1.26,1.04-3.14,1.55-5.64,1.55
				C582.39,188.65,580.81,188.48,579.36,188.12z"/>
		</g>
	</g>
</g>
<g id="Capa_7">
	<g>
		<g>
			<circle class="st9" cx="665.5" cy="321.5" r="83.5"/>
		</g>
		<g>
			<path class="st8" d="M607.83,320.83c-0.21-0.14-0.35-0.38-0.43-0.73l-3.72-15.08l-0.05-0.3c0-0.35,0.25-0.52,0.74-0.52h4.21
				c0.31,0,0.54,0.05,0.69,0.16c0.15,0.11,0.24,0.28,0.27,0.51l0.97,5.9l1.49-4.51c0.1-0.3,0.23-0.5,0.38-0.61
				c0.16-0.11,0.4-0.16,0.73-0.16h1.93c0.33,0,0.57,0.05,0.73,0.16c0.16,0.11,0.28,0.31,0.38,0.61l1.49,4.51l0.97-5.9
				c0.03-0.23,0.12-0.4,0.27-0.51c0.15-0.11,0.38-0.16,0.69-0.16h4.24c0.5,0,0.74,0.17,0.74,0.52l-0.05,0.3l-3.74,15.08
				c-0.08,0.35-0.23,0.59-0.43,0.73c-0.21,0.14-0.5,0.21-0.88,0.21h-2.7c-0.36,0-0.65-0.07-0.85-0.21
				c-0.21-0.14-0.36-0.38-0.46-0.73l-1.36-4.81l-1.36,4.81c-0.1,0.35-0.25,0.59-0.46,0.73c-0.21,0.14-0.49,0.21-0.85,0.21h-2.7
				C608.33,321.04,608.04,320.97,607.83,320.83z"/>
			<path class="st8" d="M626.14,320.69c-0.22-0.23-0.33-0.59-0.33-1.07v-14.02c0-0.48,0.11-0.83,0.33-1.07
				c0.22-0.23,0.61-0.35,1.15-0.35h2.95c0.56,0,0.95,0.11,1.18,0.33c0.22,0.22,0.33,0.58,0.33,1.08v4.9h4.41v-4.9
				c0-0.48,0.11-0.83,0.33-1.07c0.22-0.23,0.61-0.35,1.15-0.35h2.95c0.56,0,0.95,0.11,1.18,0.33c0.22,0.22,0.33,0.58,0.33,1.08
				v14.02c0,0.48-0.11,0.83-0.33,1.07c-0.22,0.23-0.62,0.35-1.18,0.35h-2.95c-0.54,0-0.93-0.12-1.15-0.35
				c-0.22-0.23-0.33-0.59-0.33-1.07v-4.9h-4.41v4.9c0,0.48-0.11,0.83-0.33,1.07c-0.22,0.23-0.62,0.35-1.18,0.35h-2.95
				C626.74,321.04,626.36,320.92,626.14,320.69z"/>
			<path class="st8" d="M643.34,320.52c0-0.15,0.04-0.33,0.12-0.54l6.17-14.84c0.15-0.35,0.32-0.59,0.51-0.73
				c0.19-0.14,0.46-0.21,0.81-0.21h2.7c0.35,0,0.62,0.07,0.81,0.21c0.19,0.14,0.36,0.38,0.51,0.73l6.14,14.84
				c0.08,0.21,0.12,0.4,0.12,0.54c0,0.35-0.18,0.52-0.55,0.52h-4.66c-0.51,0-0.83-0.22-0.97-0.67l-0.59-1.83h-4.38l-0.57,1.83
				c-0.13,0.45-0.45,0.67-0.97,0.67h-4.66C643.52,321.04,643.34,320.86,643.34,320.52z M653.25,314.62l-0.97-3.07l-0.97,3.07H653.25
				z"/>
			<path class="st8" d="M663.64,320.69c-0.22-0.23-0.33-0.59-0.33-1.07V308.4h-3.57c-0.53,0-0.89-0.11-1.08-0.33
				c-0.19-0.22-0.29-0.58-0.29-1.08v-1.39c0-0.5,0.1-0.85,0.29-1.08c0.19-0.22,0.55-0.33,1.08-0.33h13.08
				c0.53,0,0.89,0.11,1.08,0.33c0.19,0.22,0.29,0.58,0.29,1.08v1.39c0,0.5-0.1,0.85-0.29,1.08c-0.19,0.22-0.55,0.33-1.08,0.33h-3.57
				v11.22c0,0.48-0.11,0.83-0.33,1.07c-0.22,0.23-0.62,0.35-1.18,0.35h-2.95C664.25,321.04,663.86,320.92,663.64,320.69z"/>
			<path class="st8" d="M676.95,320.94c-1.29-0.31-2.33-0.75-3.12-1.31c-0.33-0.23-0.5-0.45-0.5-0.67c0-0.15,0.06-0.31,0.17-0.47
				l1.44-2.25c0.15-0.21,0.3-0.32,0.45-0.32c0.13,0,0.29,0.06,0.47,0.17c0.59,0.36,1.28,0.65,2.04,0.85
				c0.77,0.21,1.52,0.31,2.24,0.31c0.61,0,1.05-0.08,1.33-0.25c0.27-0.17,0.41-0.42,0.41-0.77c0-0.38-0.18-0.69-0.54-0.92
				s-0.99-0.52-1.88-0.87c-1.67-0.64-2.98-1.37-3.94-2.19c-0.96-0.82-1.44-1.9-1.44-3.26c0-1.72,0.6-3.01,1.8-3.88
				c1.2-0.87,2.81-1.3,4.84-1.3c1.42,0,2.63,0.12,3.63,0.37c1,0.25,1.87,0.64,2.61,1.16c0.33,0.23,0.5,0.45,0.5,0.67
				c0,0.15-0.06,0.31-0.17,0.47l-1.44,2.25c-0.15,0.23-0.3,0.35-0.45,0.35c-0.1,0-0.26-0.07-0.47-0.2c-0.4-0.26-0.87-0.48-1.41-0.66
				s-1.13-0.26-1.76-0.26c-0.58,0-1.02,0.08-1.31,0.25s-0.45,0.43-0.45,0.79c0,0.3,0.1,0.54,0.31,0.74c0.21,0.2,0.47,0.37,0.78,0.51
				c0.31,0.14,0.86,0.37,1.63,0.68c1.24,0.5,2.21,0.97,2.92,1.42c0.71,0.45,1.25,1,1.61,1.63c0.36,0.64,0.54,1.44,0.54,2.42
				c0,1.49-0.56,2.69-1.67,3.6c-1.11,0.92-2.78,1.38-4.99,1.38C679.64,321.41,678.24,321.25,676.95,320.94z"/>
			<path class="st8" d="M687.43,320.52c0-0.15,0.04-0.33,0.12-0.54l6.17-14.84c0.15-0.35,0.32-0.59,0.51-0.73
				c0.19-0.14,0.46-0.21,0.81-0.21h2.7c0.35,0,0.62,0.07,0.81,0.21c0.19,0.14,0.36,0.38,0.51,0.73l6.14,14.84
				c0.08,0.21,0.12,0.4,0.12,0.54c0,0.35-0.18,0.52-0.55,0.52h-4.66c-0.51,0-0.83-0.22-0.97-0.67l-0.59-1.83h-4.38l-0.57,1.83
				c-0.13,0.45-0.45,0.67-0.97,0.67h-4.66C687.61,321.04,687.43,320.86,687.43,320.52z M697.34,314.62l-0.97-3.07l-0.97,3.07H697.34
				z"/>
			<path class="st8" d="M706.89,320.69c-0.22-0.23-0.33-0.59-0.33-1.07v-14.02c0-0.48,0.11-0.83,0.33-1.07
				c0.22-0.23,0.61-0.35,1.15-0.35h5.92c2.48,0,4.28,0.49,5.41,1.47c1.13,0.98,1.7,2.46,1.7,4.45c0,1.98-0.57,3.46-1.7,4.43
				c-1.13,0.97-2.93,1.46-5.39,1.46h-1.49v3.62c0,0.48-0.11,0.83-0.33,1.07c-0.22,0.23-0.62,0.35-1.18,0.35h-2.95
				C707.49,321.04,707.11,320.92,706.89,320.69z M713.44,311.8c0.53,0,0.95-0.14,1.25-0.42s0.46-0.7,0.46-1.26
				c0-0.58-0.15-1.01-0.46-1.29c-0.31-0.28-0.72-0.42-1.25-0.42h-1.68v3.39H713.44z"/>
			<path class="st8" d="M721.77,320.69c-0.22-0.23-0.33-0.59-0.33-1.07v-14.02c0-0.48,0.11-0.83,0.33-1.07
				c0.22-0.23,0.61-0.35,1.15-0.35h5.92c2.48,0,4.28,0.49,5.41,1.47c1.13,0.98,1.7,2.46,1.7,4.45c0,1.98-0.57,3.46-1.7,4.43
				c-1.13,0.97-2.93,1.46-5.39,1.46h-1.49v3.62c0,0.48-0.11,0.83-0.33,1.07c-0.22,0.23-0.62,0.35-1.18,0.35h-2.95
				C722.38,321.04,722,320.92,721.77,320.69z M728.33,311.8c0.53,0,0.95-0.14,1.25-0.42s0.46-0.7,0.46-1.26
				c0-0.58-0.15-1.01-0.46-1.29c-0.31-0.28-0.72-0.42-1.25-0.42h-1.68v3.39H728.33z"/>
			<path class="st8" d="M637.15,337.56c-0.13-0.13-0.19-0.33-0.19-0.6v-6.31h-2.01c-0.3,0-0.5-0.06-0.61-0.19
				c-0.11-0.13-0.16-0.33-0.16-0.61v-0.78c0-0.28,0.05-0.48,0.16-0.61c0.11-0.13,0.31-0.19,0.61-0.19h7.36c0.3,0,0.5,0.06,0.61,0.19
				c0.11,0.13,0.16,0.33,0.16,0.61v0.78c0,0.28-0.05,0.48-0.16,0.61c-0.11,0.13-0.31,0.19-0.61,0.19h-2.01v6.31
				c0,0.27-0.06,0.47-0.19,0.6c-0.13,0.13-0.35,0.19-0.66,0.19h-1.66C637.49,337.76,637.27,337.69,637.15,337.56z"/>
			<path class="st8" d="M643.68,337.56c-0.13-0.13-0.19-0.33-0.19-0.6v-7.89c0-0.27,0.06-0.47,0.19-0.6c0.13-0.13,0.34-0.2,0.65-0.2
				h5.77c0.3,0,0.5,0.06,0.61,0.19c0.11,0.13,0.16,0.33,0.16,0.61v0.78c0,0.28-0.05,0.48-0.16,0.61c-0.11,0.13-0.31,0.19-0.61,0.19
				h-3.26v1.2h2.01c0.3,0,0.5,0.06,0.61,0.19c0.11,0.13,0.16,0.33,0.16,0.61v0.75c0,0.28-0.05,0.48-0.16,0.61
				c-0.11,0.13-0.31,0.19-0.61,0.19h-2.01v1.2h3.25c0.3,0,0.5,0.06,0.61,0.19s0.16,0.33,0.16,0.61v0.78c0,0.28-0.05,0.48-0.16,0.61
				s-0.31,0.19-0.61,0.19h-5.75C644.02,337.76,643.81,337.69,643.68,337.56z"/>
			<path class="st8" d="M651.68,337.56c-0.13-0.13-0.19-0.33-0.19-0.6v-7.89c0-0.27,0.06-0.47,0.19-0.6c0.13-0.13,0.34-0.2,0.65-0.2
				h1.66c0.32,0,0.54,0.06,0.66,0.19s0.19,0.33,0.19,0.61v6.31h3.25c0.3,0,0.5,0.06,0.61,0.19s0.16,0.33,0.16,0.61v0.78
				c0,0.28-0.05,0.48-0.16,0.61s-0.31,0.19-0.61,0.19h-5.75C652.02,337.76,651.8,337.69,651.68,337.56z"/>
			<path class="st8" d="M659.24,337.56c-0.13-0.13-0.19-0.33-0.19-0.6v-7.89c0-0.27,0.06-0.47,0.19-0.6c0.13-0.13,0.34-0.2,0.65-0.2
				h5.77c0.3,0,0.5,0.06,0.61,0.19c0.11,0.13,0.16,0.33,0.16,0.61v0.78c0,0.28-0.05,0.48-0.16,0.61c-0.11,0.13-0.31,0.19-0.61,0.19
				h-3.26v1.2h2.01c0.3,0,0.5,0.06,0.61,0.19c0.11,0.13,0.16,0.33,0.16,0.61v0.75c0,0.28-0.05,0.48-0.16,0.61
				c-0.11,0.13-0.31,0.19-0.61,0.19h-2.01v1.2h3.25c0.3,0,0.5,0.06,0.61,0.19s0.16,0.33,0.16,0.61v0.78c0,0.28-0.05,0.48-0.16,0.61
				s-0.31,0.19-0.61,0.19h-5.75C659.58,337.76,659.37,337.69,659.24,337.56z"/>
			<path class="st8" d="M667.55,336.72c-0.94-0.83-1.41-2.06-1.41-3.7c0-1.63,0.47-2.86,1.41-3.69c0.94-0.84,2.25-1.25,3.93-1.25
				c0.76,0,1.44,0.07,2.05,0.22c0.6,0.15,1.1,0.36,1.5,0.63c0.11,0.08,0.17,0.18,0.17,0.28c0,0.08-0.04,0.2-0.13,0.35l-0.7,1.2
				c-0.07,0.13-0.16,0.19-0.26,0.19c-0.06,0-0.17-0.04-0.32-0.11c-0.56-0.28-1.17-0.42-1.84-0.42c-0.77,0-1.38,0.22-1.82,0.66
				c-0.44,0.44-0.66,1.09-0.66,1.94c0,0.88,0.19,1.54,0.56,1.96c0.37,0.42,0.92,0.63,1.66,0.63c0.13,0,0.28-0.01,0.44-0.04
				c0.16-0.02,0.29-0.05,0.4-0.08v-1.27h-0.89c-0.3,0-0.5-0.06-0.61-0.17c-0.11-0.12-0.16-0.31-0.16-0.59v-0.77
				c0-0.28,0.05-0.48,0.16-0.59c0.11-0.12,0.31-0.17,0.61-0.17h3c0.36,0,0.61,0.08,0.75,0.24s0.21,0.42,0.21,0.77v3.26
				c0,0.2-0.03,0.36-0.08,0.47c-0.05,0.11-0.15,0.22-0.3,0.33c-0.89,0.64-2.13,0.96-3.72,0.96
				C669.81,337.97,668.49,337.55,667.55,336.72z"/>
			<path class="st8" d="M676.48,337.56c-0.13-0.13-0.19-0.33-0.19-0.6v-7.89c0-0.27,0.06-0.47,0.19-0.6c0.13-0.13,0.34-0.2,0.65-0.2
				h3.33c1.39,0,2.41,0.28,3.04,0.83c0.64,0.55,0.95,1.39,0.95,2.5c0,0.67-0.11,1.23-0.34,1.69s-0.58,0.82-1.05,1.08l1.3,2.77
				c0.04,0.07,0.06,0.16,0.06,0.25c0,0.1-0.04,0.19-0.1,0.25c-0.07,0.07-0.16,0.1-0.27,0.1h-2.35c-0.15,0-0.27-0.02-0.36-0.06
				c-0.09-0.04-0.15-0.11-0.19-0.22l-1.03-2.59h-0.47v2.08c0,0.27-0.06,0.47-0.19,0.6c-0.13,0.13-0.35,0.19-0.66,0.19h-1.66
				C676.82,337.76,676.6,337.69,676.48,337.56z M680.16,332.56c0.3,0,0.53-0.08,0.7-0.24c0.17-0.16,0.26-0.39,0.26-0.71
				c0-0.33-0.09-0.57-0.26-0.72c-0.17-0.16-0.41-0.24-0.7-0.24h-0.95v1.91H680.16z"/>
			<path class="st8" d="M684.25,337.46c0-0.08,0.02-0.19,0.07-0.31l3.47-8.35c0.08-0.19,0.18-0.33,0.29-0.41
				c0.11-0.08,0.26-0.12,0.45-0.12h1.52c0.19,0,0.35,0.04,0.45,0.12c0.11,0.08,0.2,0.22,0.29,0.41l3.46,8.35
				c0.05,0.12,0.07,0.22,0.07,0.31c0,0.19-0.1,0.29-0.31,0.29h-2.62c-0.29,0-0.47-0.13-0.54-0.38l-0.33-1.03h-2.47l-0.32,1.03
				c-0.07,0.25-0.26,0.38-0.54,0.38h-2.62C684.35,337.76,684.25,337.66,684.25,337.46z M689.82,334.15l-0.54-1.73l-0.54,1.73H689.82
				z"/>
			<path class="st8" d="M694.84,337.56c-0.13-0.13-0.19-0.33-0.19-0.6v-7.9c0-0.27,0.06-0.47,0.19-0.59s0.35-0.19,0.66-0.19h1.6
				c0.2,0,0.37,0.03,0.49,0.08c0.12,0.05,0.21,0.15,0.28,0.3l1.63,4.08l1.63-4.08c0.06-0.15,0.16-0.25,0.28-0.3
				c0.12-0.05,0.28-0.08,0.49-0.08h1.6c0.32,0,0.54,0.06,0.66,0.19s0.19,0.32,0.19,0.59v7.9c0,0.27-0.06,0.47-0.19,0.6
				c-0.13,0.13-0.34,0.19-0.65,0.19h-1.34c-0.31,0-0.52-0.06-0.65-0.19c-0.13-0.13-0.2-0.33-0.2-0.6v-3.8l-0.82,1.9
				c-0.11,0.27-0.23,0.46-0.36,0.58c-0.13,0.12-0.34,0.17-0.64,0.17s-0.51-0.06-0.64-0.17c-0.13-0.12-0.25-0.31-0.36-0.58l-0.82-1.9
				v3.8c0,0.27-0.06,0.47-0.19,0.6c-0.13,0.13-0.35,0.19-0.66,0.19h-1.34C695.18,337.76,694.97,337.69,694.84,337.56z"/>
		</g>
	</g>
</g>
<g id="Capa_8">
	<g>
		<g>
			<circle class="st10" cx="859.5" cy="226.5" r="83.5"/>
		</g>
		<g>
			<path class="st8" d="M825.8,235.96c-0.27-0.18-0.45-0.5-0.56-0.94l-4.8-19.49l-0.06-0.38c0-0.45,0.32-0.67,0.96-0.67h5.44
				c0.41,0,0.7,0.07,0.9,0.21s0.31,0.36,0.35,0.66l1.25,7.62l1.92-5.82c0.13-0.38,0.29-0.65,0.5-0.78c0.2-0.14,0.52-0.21,0.94-0.21
				h2.5c0.43,0,0.74,0.07,0.94,0.21c0.2,0.14,0.37,0.4,0.5,0.78l1.92,5.82l1.25-7.62c0.04-0.3,0.16-0.52,0.35-0.66
				s0.49-0.21,0.9-0.21h5.47c0.64,0,0.96,0.22,0.96,0.67l-0.06,0.38l-4.83,19.49c-0.11,0.45-0.29,0.76-0.56,0.94
				c-0.27,0.18-0.65,0.27-1.14,0.27h-3.49c-0.47,0-0.84-0.09-1.1-0.27c-0.27-0.18-0.46-0.5-0.59-0.94l-1.76-6.21l-1.76,6.21
				c-0.13,0.45-0.33,0.76-0.59,0.94c-0.27,0.18-0.63,0.27-1.1,0.27h-3.49C826.44,236.23,826.06,236.14,825.8,235.96z"/>
			<path class="st8" d="M853.32,235.96c-0.27-0.18-0.45-0.5-0.56-0.94l-4.8-19.49l-0.06-0.38c0-0.45,0.32-0.67,0.96-0.67h5.44
				c0.41,0,0.7,0.07,0.9,0.21s0.31,0.36,0.35,0.66l1.25,7.62l1.92-5.82c0.13-0.38,0.29-0.65,0.5-0.78c0.2-0.14,0.52-0.21,0.94-0.21
				h2.5c0.43,0,0.74,0.07,0.94,0.21c0.2,0.14,0.37,0.4,0.5,0.78l1.92,5.82l1.25-7.62c0.04-0.3,0.16-0.52,0.35-0.66
				s0.49-0.21,0.9-0.21h5.47c0.64,0,0.96,0.22,0.96,0.67l-0.06,0.38l-4.83,19.49c-0.11,0.45-0.29,0.76-0.56,0.94
				c-0.27,0.18-0.65,0.27-1.14,0.27h-3.49c-0.47,0-0.84-0.09-1.1-0.27c-0.27-0.18-0.46-0.5-0.59-0.94l-1.76-6.21l-1.76,6.21
				c-0.13,0.45-0.33,0.76-0.59,0.94c-0.27,0.18-0.63,0.27-1.1,0.27h-3.49C853.96,236.23,853.58,236.14,853.32,235.96z"/>
			<path class="st8" d="M880.84,235.96c-0.27-0.18-0.45-0.5-0.56-0.94l-4.8-19.49l-0.06-0.38c0-0.45,0.32-0.67,0.96-0.67h5.44
				c0.41,0,0.7,0.07,0.9,0.21s0.31,0.36,0.35,0.66l1.25,7.62l1.92-5.82c0.13-0.38,0.29-0.65,0.5-0.78c0.2-0.14,0.52-0.21,0.94-0.21
				h2.5c0.43,0,0.74,0.07,0.94,0.21c0.2,0.14,0.37,0.4,0.5,0.78l1.92,5.82l1.25-7.62c0.04-0.3,0.16-0.52,0.35-0.66
				s0.49-0.21,0.9-0.21h5.47c0.64,0,0.96,0.22,0.96,0.67l-0.06,0.38l-4.83,19.49c-0.11,0.45-0.29,0.76-0.56,0.94
				c-0.27,0.18-0.65,0.27-1.14,0.27h-3.49c-0.47,0-0.84-0.09-1.1-0.27c-0.27-0.18-0.46-0.5-0.59-0.94l-1.76-6.21l-1.76,6.21
				c-0.13,0.45-0.33,0.76-0.59,0.94c-0.27,0.18-0.63,0.27-1.1,0.27h-3.49C881.48,236.23,881.1,236.14,880.84,235.96z"/>
		</g>
	</g>
</g>
<g id="Capa_9">
	<g>
		<g>
			<circle class="st7" cx="874.5" cy="453.5" r="83.5"/>
		</g>
		<g>
			<path class="st8" d="M806.65,449.84c-0.25-0.26-0.38-0.66-0.38-1.2v-15.88c0-0.54,0.13-0.94,0.38-1.19s0.7-0.38,1.33-0.38h3.22
				c0.41,0,0.74,0.05,0.98,0.15c0.24,0.1,0.43,0.3,0.56,0.6l3.28,8.2l3.28-8.2c0.13-0.3,0.32-0.5,0.56-0.6
				c0.24-0.1,0.57-0.15,0.98-0.15h3.22c0.63,0,1.08,0.13,1.33,0.38s0.38,0.65,0.38,1.19v15.88c0,0.54-0.13,0.94-0.38,1.2
				c-0.25,0.26-0.69,0.39-1.3,0.39h-2.69c-0.62,0-1.05-0.13-1.32-0.39c-0.26-0.26-0.39-0.66-0.39-1.2v-7.64l-1.65,3.81
				c-0.22,0.54-0.47,0.93-0.73,1.16c-0.26,0.23-0.69,0.35-1.29,0.35c-0.6,0-1.03-0.12-1.29-0.35c-0.26-0.23-0.5-0.62-0.73-1.16
				l-1.65-3.81v7.64c0,0.54-0.13,0.94-0.38,1.2c-0.25,0.26-0.7,0.39-1.33,0.39h-2.69C807.34,450.23,806.9,450.1,806.65,449.84z"/>
			<path class="st8" d="M828.1,449.84c-0.25-0.26-0.38-0.66-0.38-1.2v-15.85c0-0.54,0.13-0.94,0.38-1.2
				c0.25-0.26,0.69-0.39,1.3-0.39h11.59c0.6,0,1,0.13,1.22,0.38c0.21,0.25,0.32,0.66,0.32,1.22v1.57c0,0.56-0.11,0.97-0.32,1.22
				c-0.21,0.25-0.62,0.38-1.22,0.38h-6.55v2.41h4.03c0.6,0,1,0.13,1.22,0.38c0.21,0.25,0.32,0.66,0.32,1.22v1.51
				c0,0.56-0.11,0.97-0.32,1.22c-0.21,0.25-0.62,0.38-1.22,0.38h-4.03v2.41h6.52c0.6,0,1,0.13,1.22,0.38
				c0.21,0.25,0.32,0.66,0.32,1.22v1.57c0,0.56-0.11,0.97-0.32,1.22c-0.21,0.25-0.62,0.38-1.22,0.38H829.4
				C828.78,450.23,828.35,450.1,828.1,449.84z"/>
			<path class="st8" d="M844.17,449.84c-0.25-0.26-0.38-0.66-0.38-1.2v-15.88c0-0.54,0.13-0.94,0.38-1.19s0.7-0.38,1.33-0.38h2.66
				c0.39,0,0.69,0.05,0.91,0.15c0.21,0.1,0.42,0.3,0.63,0.6l5.07,7.53v-6.69c0-0.54,0.13-0.94,0.38-1.2
				c0.25-0.26,0.69-0.39,1.3-0.39h3.33c0.63,0,1.08,0.13,1.33,0.38s0.38,0.66,0.38,1.22v15.88c0,0.54-0.13,0.94-0.38,1.19
				s-0.7,0.38-1.33,0.38h-2.66c-0.39,0-0.7-0.05-0.91-0.15c-0.21-0.1-0.42-0.3-0.63-0.6l-5.07-7.53v6.72c0,0.54-0.13,0.94-0.38,1.19
				c-0.25,0.25-0.7,0.38-1.33,0.38h-3.33C844.86,450.23,844.42,450.1,844.17,449.84z"/>
			<path class="st8" d="M867,450.12c-1.46-0.35-2.63-0.85-3.53-1.48c-0.37-0.26-0.56-0.51-0.56-0.76c0-0.17,0.06-0.35,0.2-0.53
				l1.62-2.55c0.17-0.24,0.34-0.36,0.5-0.36c0.15,0,0.33,0.07,0.53,0.2c0.67,0.41,1.44,0.73,2.31,0.97
				c0.87,0.23,1.71,0.35,2.53,0.35c0.69,0,1.19-0.09,1.5-0.28c0.31-0.19,0.46-0.48,0.46-0.87c0-0.43-0.21-0.77-0.62-1.04
				c-0.41-0.26-1.12-0.59-2.13-0.98c-1.89-0.73-3.37-1.55-4.45-2.48c-1.08-0.92-1.62-2.15-1.62-3.68c0-1.94,0.68-3.4,2.03-4.38
				c1.35-0.98,3.18-1.47,5.47-1.47c1.6,0,2.97,0.14,4.1,0.42c1.13,0.28,2.11,0.72,2.95,1.32c0.37,0.26,0.56,0.51,0.56,0.76
				c0,0.17-0.07,0.35-0.2,0.53l-1.62,2.55c-0.17,0.26-0.34,0.39-0.5,0.39c-0.11,0-0.29-0.07-0.53-0.22c-0.45-0.3-0.98-0.55-1.6-0.74
				c-0.62-0.2-1.28-0.29-1.99-0.29c-0.65,0-1.15,0.09-1.48,0.28c-0.34,0.19-0.5,0.49-0.5,0.9c0,0.34,0.12,0.62,0.35,0.84
				c0.23,0.22,0.53,0.42,0.88,0.57c0.35,0.16,0.97,0.42,1.85,0.77c1.4,0.56,2.5,1.1,3.3,1.61c0.8,0.51,1.41,1.13,1.82,1.85
				c0.41,0.72,0.62,1.63,0.62,2.73c0,1.68-0.63,3.04-1.89,4.07c-1.26,1.04-3.14,1.55-5.64,1.55
				C870.04,450.65,868.46,450.48,867,450.12z"/>
			<path class="st8" d="M878.85,449.65c0-0.17,0.05-0.37,0.14-0.62l6.97-16.77c0.17-0.39,0.36-0.67,0.57-0.83
				c0.21-0.16,0.52-0.24,0.91-0.24h3.05c0.39,0,0.7,0.08,0.91,0.24c0.21,0.16,0.41,0.43,0.57,0.83l6.94,16.77
				c0.09,0.24,0.14,0.45,0.14,0.62c0,0.39-0.21,0.59-0.62,0.59h-5.26c-0.58,0-0.94-0.25-1.09-0.76l-0.67-2.07h-4.96l-0.64,2.07
				c-0.15,0.5-0.51,0.76-1.09,0.76h-5.26C879.05,450.23,878.85,450.04,878.85,449.65z M890.05,442.98l-1.09-3.47l-1.09,3.47H890.05z
				"/>
			<path class="st8" d="M898.7,448.81c-0.22-0.17-0.34-0.35-0.34-0.56c0-0.17,0.08-0.4,0.25-0.7l1.4-2.41
				c0.19-0.3,0.38-0.45,0.59-0.45c0.13,0,0.32,0.08,0.56,0.25c0.9,0.67,1.75,1.01,2.58,1.01c1.27,0,1.9-0.61,1.9-1.82v-11.34
				c0-0.54,0.13-0.94,0.38-1.2c0.25-0.26,0.69-0.39,1.3-0.39h3.33c0.63,0,1.08,0.13,1.33,0.38s0.38,0.66,0.38,1.22v11.4
				c0,1.98-0.62,3.55-1.85,4.72c-1.23,1.17-3.01,1.75-5.32,1.75C902.54,450.65,900.38,450.04,898.7,448.81z"/>
			<path class="st8" d="M914.56,449.84c-0.25-0.26-0.38-0.66-0.38-1.2v-15.85c0-0.54,0.13-0.94,0.38-1.2
				c0.25-0.26,0.69-0.39,1.3-0.39h11.59c0.6,0,1,0.13,1.22,0.38c0.21,0.25,0.32,0.66,0.32,1.22v1.57c0,0.56-0.11,0.97-0.32,1.22
				c-0.21,0.25-0.62,0.38-1.22,0.38h-6.55v2.41h4.03c0.6,0,1,0.13,1.22,0.38c0.21,0.25,0.32,0.66,0.32,1.22v1.51
				c0,0.56-0.11,0.97-0.32,1.22c-0.21,0.25-0.62,0.38-1.22,0.38h-4.03v2.41h6.52c0.6,0,1,0.13,1.22,0.38
				c0.21,0.25,0.32,0.66,0.32,1.22v1.57c0,0.56-0.11,0.97-0.32,1.22c-0.21,0.25-0.62,0.38-1.22,0.38h-11.56
				C915.25,450.23,914.81,450.1,914.56,449.84z"/>
			<path class="st8" d="M933.81,450.12c-1.46-0.35-2.63-0.85-3.53-1.48c-0.37-0.26-0.56-0.51-0.56-0.76c0-0.17,0.06-0.35,0.2-0.53
				l1.62-2.55c0.17-0.24,0.34-0.36,0.5-0.36c0.15,0,0.33,0.07,0.53,0.2c0.67,0.41,1.44,0.73,2.31,0.97
				c0.87,0.23,1.71,0.35,2.53,0.35c0.69,0,1.19-0.09,1.5-0.28c0.31-0.19,0.46-0.48,0.46-0.87c0-0.43-0.21-0.77-0.62-1.04
				c-0.41-0.26-1.12-0.59-2.13-0.98c-1.89-0.73-3.37-1.55-4.45-2.48c-1.08-0.92-1.62-2.15-1.62-3.68c0-1.94,0.68-3.4,2.03-4.38
				c1.35-0.98,3.18-1.47,5.47-1.47c1.6,0,2.97,0.14,4.1,0.42c1.13,0.28,2.11,0.72,2.95,1.32c0.37,0.26,0.56,0.51,0.56,0.76
				c0,0.17-0.07,0.35-0.2,0.53l-1.62,2.55c-0.17,0.26-0.34,0.39-0.5,0.39c-0.11,0-0.29-0.07-0.53-0.22c-0.45-0.3-0.98-0.55-1.6-0.74
				c-0.62-0.2-1.28-0.29-1.99-0.29c-0.65,0-1.15,0.09-1.48,0.28c-0.34,0.19-0.5,0.49-0.5,0.9c0,0.34,0.12,0.62,0.35,0.84
				c0.23,0.22,0.53,0.42,0.88,0.57c0.35,0.16,0.97,0.42,1.85,0.77c1.4,0.56,2.5,1.1,3.3,1.61c0.8,0.51,1.41,1.13,1.82,1.85
				c0.41,0.72,0.62,1.63,0.62,2.73c0,1.68-0.63,3.04-1.89,4.07c-1.26,1.04-3.14,1.55-5.64,1.55
				C936.84,450.65,935.27,450.48,933.81,450.12z"/>
			<path class="st8" d="M835.77,483.44c-0.25-0.26-0.38-0.66-0.38-1.2v-12.68h-4.03c-0.6,0-1-0.13-1.22-0.38
				c-0.21-0.25-0.32-0.66-0.32-1.22v-1.57c0-0.56,0.11-0.97,0.32-1.22s0.62-0.38,1.22-0.38h14.78c0.6,0,1,0.13,1.22,0.38
				c0.21,0.25,0.32,0.66,0.32,1.22v1.57c0,0.56-0.11,0.97-0.32,1.22c-0.21,0.25-0.62,0.38-1.22,0.38h-4.03v12.68
				c0,0.54-0.13,0.94-0.38,1.2c-0.25,0.26-0.7,0.39-1.33,0.39h-3.33C836.46,483.83,836.02,483.7,835.77,483.44z"/>
			<path class="st8" d="M848.9,483.44c-0.25-0.26-0.38-0.66-0.38-1.2v-15.85c0-0.54,0.13-0.94,0.38-1.2
				c0.25-0.26,0.69-0.39,1.3-0.39h11.59c0.6,0,1,0.13,1.22,0.38c0.21,0.25,0.32,0.66,0.32,1.22v1.57c0,0.56-0.11,0.97-0.32,1.22
				c-0.21,0.25-0.62,0.38-1.22,0.38h-6.55v2.41h4.03c0.6,0,1,0.13,1.22,0.38c0.21,0.25,0.32,0.66,0.32,1.22v1.51
				c0,0.56-0.11,0.97-0.32,1.22c-0.21,0.25-0.62,0.38-1.22,0.38h-4.03v2.41h6.52c0.6,0,1,0.13,1.22,0.38
				c0.21,0.25,0.32,0.66,0.32,1.22v1.57c0,0.56-0.11,0.97-0.32,1.22c-0.21,0.25-0.62,0.38-1.22,0.38H850.2
				C849.59,483.83,849.15,483.7,848.9,483.44z"/>
			<path class="st8" d="M863.52,483.65c-0.12-0.12-0.18-0.27-0.18-0.43c0-0.19,0.07-0.38,0.22-0.59l6.41-8.65l-5.91-7.98
				c-0.15-0.21-0.22-0.4-0.22-0.59c0-0.17,0.06-0.31,0.18-0.43c0.12-0.12,0.29-0.18,0.52-0.18h5.24c0.28,0,0.49,0.03,0.64,0.1
				s0.28,0.17,0.39,0.32l2.83,3.84l2.86-3.84c0.11-0.15,0.24-0.26,0.39-0.32c0.15-0.07,0.36-0.1,0.64-0.1h5.24
				c0.22,0,0.4,0.06,0.52,0.18c0.12,0.12,0.18,0.27,0.18,0.43c0,0.19-0.07,0.38-0.22,0.59l-5.94,7.98l6.44,8.65
				c0.15,0.21,0.22,0.4,0.22,0.59c0,0.17-0.06,0.31-0.18,0.43c-0.12,0.12-0.29,0.18-0.52,0.18h-5.24c-0.28,0-0.5-0.03-0.64-0.1
				c-0.15-0.06-0.28-0.17-0.39-0.32l-3.36-4.51l-3.33,4.51c-0.11,0.15-0.24,0.26-0.39,0.32c-0.15,0.07-0.36,0.1-0.64,0.1h-5.24
				C863.81,483.83,863.64,483.77,863.52,483.65z"/>
			<path class="st8" d="M890.2,483.44c-0.25-0.26-0.38-0.66-0.38-1.2v-12.68h-4.03c-0.6,0-1-0.13-1.22-0.38
				c-0.21-0.25-0.32-0.66-0.32-1.22v-1.57c0-0.56,0.11-0.97,0.32-1.22s0.62-0.38,1.22-0.38h14.78c0.6,0,1,0.13,1.22,0.38
				c0.21,0.25,0.32,0.66,0.32,1.22v1.57c0,0.56-0.11,0.97-0.32,1.22c-0.21,0.25-0.62,0.38-1.22,0.38h-4.03v12.68
				c0,0.54-0.13,0.94-0.38,1.2c-0.25,0.26-0.7,0.39-1.33,0.39h-3.33C890.89,483.83,890.45,483.7,890.2,483.44z"/>
			<path class="st8" d="M903.71,481.66c-1.72-1.73-2.58-4.18-2.58-7.35c0-3.17,0.86-5.62,2.58-7.35c1.72-1.73,4.24-2.59,7.56-2.59
				c3.32,0,5.84,0.86,7.56,2.59c1.72,1.73,2.58,4.18,2.58,7.35c0,3.17-0.86,5.62-2.58,7.35c-1.72,1.73-4.24,2.59-7.56,2.59
				C907.95,484.25,905.43,483.39,903.71,481.66z M913.9,478.25c0.54-0.87,0.81-2.18,0.81-3.93c0-1.77-0.27-3.09-0.81-3.95
				c-0.54-0.86-1.42-1.29-2.63-1.29c-1.21,0-2.09,0.43-2.63,1.29s-0.81,2.17-0.81,3.95c0,1.75,0.27,3.07,0.81,3.93
				s1.42,1.3,2.63,1.3C912.48,479.55,913.36,479.12,913.9,478.25z"/>
		</g>
	</g>
</g>
<g id="Capa_10">
	<g>
		<g>
			<circle class="st7" cx="317.5" cy="804.5" r="83.5"/>
		</g>
		<g>
			<path class="st8" d="M254.31,814.65c0-0.17,0.05-0.37,0.14-0.62l6.97-16.77c0.17-0.39,0.36-0.67,0.57-0.83
				c0.21-0.16,0.52-0.24,0.91-0.24h3.05c0.39,0,0.7,0.08,0.91,0.24c0.21,0.16,0.41,0.43,0.57,0.83l6.94,16.77
				c0.09,0.24,0.14,0.45,0.14,0.62c0,0.39-0.21,0.59-0.62,0.59h-5.26c-0.58,0-0.94-0.25-1.09-0.76l-0.67-2.07h-4.96l-0.64,2.07
				c-0.15,0.5-0.51,0.76-1.09,0.76h-5.26C254.52,815.23,254.31,815.04,254.31,814.65z M265.51,807.98l-1.09-3.47l-1.09,3.47H265.51z
				"/>
			<path class="st8" d="M278.2,813.15c-1.89-1.67-2.83-4.15-2.83-7.43c0-3.27,0.94-5.74,2.83-7.42c1.89-1.68,4.52-2.52,7.9-2.52
				c1.53,0,2.9,0.15,4.12,0.45c1.21,0.3,2.22,0.72,3.02,1.26c0.22,0.17,0.34,0.35,0.34,0.56c0,0.17-0.08,0.4-0.25,0.7l-1.4,2.41
				c-0.15,0.26-0.33,0.39-0.53,0.39c-0.13,0-0.35-0.08-0.64-0.22c-1.12-0.56-2.35-0.84-3.7-0.84c-1.55,0-2.77,0.44-3.65,1.33
				s-1.33,2.19-1.33,3.91c0,1.77,0.37,3.08,1.12,3.93s1.86,1.27,3.33,1.27c0.26,0,0.56-0.02,0.88-0.07c0.33-0.05,0.59-0.1,0.8-0.15
				v-2.55h-1.79c-0.6,0-1-0.12-1.22-0.35c-0.21-0.23-0.32-0.63-0.32-1.19v-1.54c0-0.56,0.11-0.96,0.32-1.19
				c0.21-0.23,0.62-0.35,1.22-0.35h6.02c0.73,0,1.23,0.16,1.51,0.49c0.28,0.33,0.42,0.85,0.42,1.55v6.55c0,0.41-0.05,0.72-0.15,0.94
				c-0.1,0.21-0.3,0.43-0.6,0.66c-1.79,1.29-4.28,1.93-7.48,1.93C282.72,815.65,280.08,814.82,278.2,813.15z"/>
			<path class="st8" d="M296.13,814.84c-0.25-0.26-0.38-0.66-0.38-1.2v-15.85c0-0.54,0.13-0.94,0.38-1.2s0.69-0.39,1.3-0.39h11.59
				c0.6,0,1,0.13,1.22,0.38c0.21,0.25,0.32,0.66,0.32,1.22v1.57c0,0.56-0.11,0.97-0.32,1.22c-0.21,0.25-0.62,0.38-1.22,0.38h-6.55
				v2.41h4.03c0.6,0,1,0.13,1.22,0.38c0.21,0.25,0.32,0.66,0.32,1.22v1.51c0,0.56-0.11,0.97-0.32,1.22
				c-0.21,0.25-0.62,0.38-1.22,0.38h-4.03v2.41H309c0.6,0,1,0.13,1.22,0.38c0.21,0.25,0.32,0.66,0.32,1.22v1.57
				c0,0.56-0.11,0.97-0.32,1.22c-0.21,0.25-0.62,0.38-1.22,0.38h-11.56C296.82,815.23,296.38,815.1,296.13,814.84z"/>
			<path class="st8" d="M312.2,814.84c-0.25-0.26-0.38-0.66-0.38-1.2v-15.88c0-0.54,0.13-0.94,0.38-1.19s0.7-0.38,1.33-0.38h2.66
				c0.39,0,0.69,0.05,0.91,0.15c0.21,0.1,0.42,0.3,0.63,0.6l5.07,7.53v-6.69c0-0.54,0.13-0.94,0.38-1.2s0.69-0.39,1.3-0.39h3.33
				c0.63,0,1.08,0.13,1.33,0.38s0.38,0.66,0.38,1.22v15.88c0,0.54-0.13,0.94-0.38,1.19s-0.7,0.38-1.33,0.38h-2.66
				c-0.39,0-0.7-0.05-0.91-0.15c-0.21-0.1-0.42-0.3-0.63-0.6l-5.07-7.53v6.72c0,0.54-0.13,0.94-0.38,1.19
				c-0.25,0.25-0.7,0.38-1.33,0.38h-3.33C312.89,815.23,312.46,815.1,312.2,814.84z"/>
			<path class="st8" d="M336.31,814.84c-0.25-0.26-0.38-0.66-0.38-1.2v-12.68h-4.03c-0.6,0-1-0.13-1.22-0.38s-0.32-0.66-0.32-1.22
				v-1.57c0-0.56,0.11-0.97,0.32-1.22s0.62-0.38,1.22-0.38h14.78c0.6,0,1,0.13,1.22,0.38c0.21,0.25,0.32,0.66,0.32,1.22v1.57
				c0,0.56-0.11,0.97-0.32,1.22c-0.21,0.25-0.62,0.38-1.22,0.38h-4.03v12.68c0,0.54-0.13,0.94-0.38,1.2s-0.7,0.39-1.33,0.39h-3.33
				C337,815.23,336.56,815.1,336.31,814.84z"/>
			<path class="st8" d="M349.44,814.84c-0.25-0.26-0.38-0.66-0.38-1.2v-15.85c0-0.54,0.13-0.94,0.38-1.2s0.69-0.39,1.3-0.39h11.59
				c0.6,0,1,0.13,1.22,0.38c0.21,0.25,0.32,0.66,0.32,1.22v1.57c0,0.56-0.11,0.97-0.32,1.22c-0.21,0.25-0.62,0.38-1.22,0.38h-6.55
				v2.41h4.03c0.6,0,1,0.13,1.22,0.38c0.21,0.25,0.32,0.66,0.32,1.22v1.51c0,0.56-0.11,0.97-0.32,1.22
				c-0.21,0.25-0.62,0.38-1.22,0.38h-4.03v2.41h6.52c0.6,0,1,0.13,1.22,0.38c0.21,0.25,0.32,0.66,0.32,1.22v1.57
				c0,0.56-0.11,0.97-0.32,1.22c-0.21,0.25-0.62,0.38-1.22,0.38h-11.56C350.13,815.23,349.69,815.1,349.44,814.84z"/>
			<path class="st8" d="M368.69,815.12c-1.46-0.35-2.63-0.85-3.53-1.48c-0.37-0.26-0.56-0.51-0.56-0.76c0-0.17,0.06-0.34,0.2-0.53
				l1.62-2.55c0.17-0.24,0.34-0.36,0.5-0.36c0.15,0,0.33,0.07,0.53,0.2c0.67,0.41,1.44,0.73,2.31,0.97
				c0.87,0.23,1.71,0.35,2.53,0.35c0.69,0,1.19-0.09,1.5-0.28c0.31-0.19,0.46-0.48,0.46-0.87c0-0.43-0.21-0.77-0.62-1.04
				c-0.41-0.26-1.12-0.59-2.13-0.98c-1.89-0.73-3.37-1.55-4.45-2.48c-1.08-0.92-1.62-2.15-1.62-3.68c0-1.94,0.68-3.4,2.03-4.38
				s3.18-1.47,5.47-1.47c1.6,0,2.97,0.14,4.1,0.42c1.13,0.28,2.11,0.72,2.95,1.32c0.37,0.26,0.56,0.51,0.56,0.76
				c0,0.17-0.07,0.35-0.2,0.53l-1.62,2.55c-0.17,0.26-0.34,0.39-0.5,0.39c-0.11,0-0.29-0.07-0.53-0.22c-0.45-0.3-0.98-0.55-1.6-0.74
				c-0.62-0.2-1.28-0.29-1.99-0.29c-0.65,0-1.15,0.09-1.48,0.28c-0.34,0.19-0.5,0.49-0.5,0.9c0,0.34,0.12,0.62,0.35,0.84
				c0.23,0.22,0.53,0.42,0.88,0.57s0.97,0.42,1.85,0.77c1.4,0.56,2.5,1.1,3.3,1.61c0.8,0.51,1.41,1.13,1.82,1.85
				c0.41,0.72,0.62,1.63,0.62,2.73c0,1.68-0.63,3.04-1.89,4.07c-1.26,1.04-3.14,1.55-5.64,1.55
				C371.73,815.65,370.15,815.48,368.69,815.12z"/>
		</g>
	</g>
</g>
<g id="Capa_11">
	<g>
		<g>
			<circle class="st9" cx="706.5" cy="804.5" r="83.5"/>
		</g>
		<g>
			<path class="st8" d="M650.03,808.88c-1.95-1.73-2.93-4.3-2.93-7.7c0-3.42,0.94-5.99,2.83-7.71c1.88-1.72,4.58-2.58,8.08-2.58
				c1.58,0,3,0.15,4.23,0.46c1.24,0.31,2.27,0.75,3.1,1.3c0.23,0.17,0.35,0.37,0.35,0.58c0,0.17-0.09,0.42-0.26,0.73l-1.45,2.49
				c-0.15,0.27-0.34,0.41-0.55,0.41c-0.14,0-0.36-0.08-0.67-0.23c-0.54-0.27-1.11-0.48-1.7-0.64c-0.59-0.15-1.28-0.23-2.07-0.23
				c-1.6,0-2.83,0.46-3.68,1.39c-0.85,0.93-1.28,2.27-1.28,4.03c0,1.74,0.46,3.08,1.39,4.02c0.93,0.94,2.19,1.41,3.8,1.41
				c1.39,0,2.67-0.29,3.83-0.87c0.31-0.15,0.53-0.23,0.67-0.23c0.21,0,0.4,0.14,0.55,0.41l1.45,2.49c0.17,0.31,0.26,0.55,0.26,0.72
				c0,0.21-0.12,0.41-0.35,0.58c-0.83,0.56-1.88,1-3.13,1.31c-1.26,0.31-2.68,0.46-4.26,0.46
				C654.72,811.47,651.98,810.61,650.03,808.88z"/>
			<path class="st8" d="M666.12,810.43c0-0.17,0.05-0.39,0.15-0.64l7.22-17.37c0.17-0.41,0.37-0.69,0.59-0.86
				c0.22-0.16,0.54-0.25,0.94-0.25h3.16c0.41,0,0.72,0.08,0.94,0.25s0.42,0.45,0.59,0.86l7.19,17.37c0.1,0.25,0.15,0.46,0.15,0.64
				c0,0.41-0.21,0.61-0.64,0.61h-5.45c-0.6,0-0.98-0.26-1.13-0.78l-0.7-2.15h-5.13l-0.67,2.15c-0.15,0.52-0.53,0.78-1.13,0.78h-5.45
				C666.34,811.04,666.12,810.83,666.12,810.43z M677.72,803.53l-1.13-3.6l-1.13,3.6H677.72z"/>
			<path class="st8" d="M688.9,810.63c-0.26-0.27-0.39-0.69-0.39-1.25v-16.41c0-0.56,0.13-0.98,0.39-1.25
				c0.26-0.27,0.71-0.41,1.35-0.41h6.93c2.9,0,5.01,0.58,6.34,1.73s1.99,2.89,1.99,5.21c0,1.39-0.24,2.57-0.71,3.52
				s-1.2,1.71-2.19,2.25l2.7,5.77c0.08,0.15,0.12,0.33,0.12,0.52c0,0.21-0.07,0.39-0.22,0.52c-0.15,0.14-0.33,0.2-0.57,0.2h-4.9
				c-0.31,0-0.56-0.04-0.74-0.13c-0.18-0.09-0.31-0.24-0.39-0.45l-2.15-5.39h-0.99v4.32c0,0.56-0.13,0.98-0.39,1.25
				s-0.72,0.41-1.38,0.41h-3.45C689.61,811.04,689.16,810.9,688.9,810.63z M696.57,800.22c0.62,0,1.11-0.16,1.46-0.49
				c0.36-0.33,0.54-0.82,0.54-1.48c0-0.68-0.18-1.18-0.54-1.51c-0.36-0.33-0.85-0.49-1.46-0.49h-1.97v3.97H696.57z"/>
			<path class="st8" d="M707.35,810.63c-0.26-0.27-0.39-0.69-0.39-1.25v-16.41c0-0.56,0.13-0.98,0.39-1.25
				c0.26-0.27,0.71-0.41,1.35-0.41h3.45c0.66,0,1.12,0.13,1.38,0.39c0.26,0.26,0.39,0.68,0.39,1.26v16.41
				c0,0.56-0.13,0.98-0.39,1.25s-0.72,0.41-1.38,0.41h-3.45C708.06,811.04,707.61,810.9,707.35,810.63z"/>
			<path class="st8" d="M724.07,810.43c0-0.17,0.05-0.39,0.15-0.64l7.22-17.37c0.17-0.41,0.37-0.69,0.59-0.86
				c0.22-0.16,0.54-0.25,0.94-0.25h3.16c0.41,0,0.72,0.08,0.94,0.25s0.42,0.45,0.59,0.86l7.19,17.37c0.1,0.25,0.15,0.46,0.15,0.64
				c0,0.41-0.21,0.61-0.64,0.61h-5.45c-0.6,0-0.98-0.26-1.13-0.78l-0.7-2.15h-5.13l-0.67,2.15c-0.15,0.52-0.53,0.78-1.13,0.78h-5.45
				C724.28,811.04,724.07,810.83,724.07,810.43z M735.67,803.53l-1.13-3.6l-1.13,3.6H735.67z"/>
			<path class="st8" d="M746.85,810.63c-0.26-0.27-0.39-0.69-0.39-1.25v-16.41c0-0.56,0.13-0.98,0.39-1.25
				c0.26-0.27,0.71-0.41,1.35-0.41h3.45c0.66,0,1.12,0.13,1.38,0.39c0.26,0.26,0.39,0.68,0.39,1.26v16.41
				c0,0.56-0.13,0.98-0.39,1.25s-0.72,0.41-1.38,0.41h-3.45C747.56,811.04,747.11,810.9,746.85,810.63z"/>
		</g>
	</g>
</g>
<g id="Capa_12">
	<g>
		<g>
			<g>
				<path class="st11" d="M289,618c0,0-2.1,0.71-5.76,1.68"/>
				<path class="st12" d="M272,622.21c-33.05,6.21-103,8.91-105.99-78.44"/>
				<path class="st11" d="M165.91,538c0-1.96,0.03-3.96,0.09-6"/>
			</g>
		</g>
		<g>
			<polygon class="st13" points="150,543 166,525 186,543 			"/>
		</g>
		<g>
			<polygon class="st13" points="293.91,601.91 317.16,608.19 309.98,634.12 			"/>
		</g>
	</g>
</g>
<g id="Capa_13">
	<g>
		<g>
			<g>
				<line class="st14" x1="228" y1="337" x2="231.98" y2="341.49"/>
				<line class="st15" x1="239.75" y1="350.26" x2="360.14" y2="486.13"/>
				<line class="st14" x1="364.02" y1="490.51" x2="368" y2="495"/>
			</g>
		</g>
		<g>
			<polygon class="st16" points="380.31,481.89 381.79,505.93 354.92,507.41 			"/>
		</g>
		<g>
			<polygon class="st16" points="222.9,356.41 226.38,332.58 252.98,336.63 			"/>
		</g>
	</g>
</g>
<g id="Capa_14">
	<g>
		<g>
			<g>
				<line class="st17" x1="434" y1="417" x2="437.56" y2="421.83"/>
				<line class="st18" x1="445.52" y1="432.61" x2="457.46" y2="448.78"/>
				<line class="st17" x1="461.44" y1="454.17" x2="465" y2="459"/>
			</g>
		</g>
		<g>
			<polygon class="st2" points="427.9,437.41 431.38,413.58 457.98,417.63 			"/>
		</g>
		<g>
			<polygon class="st2" points="473.59,438.8 472.13,462.84 445.29,461.04 			"/>
		</g>
	</g>
</g>
<g id="Capa_15">
	<g>
		<line class="st19" x1="525.5" y1="280" x2="525.52" y2="421"/>
		<g>
			<polygon class="st13" points="507.84,413.69 524.5,431.07 543.81,412.33 			"/>
		</g>
		<g>
			<polygon class="st13" points="543.48,288.34 526.84,270.93 507.5,289.65 			"/>
		</g>
	</g>
</g>
<g id="Capa_16">
	<g>
		<g>
			<polygon class="st16" points="653.21,469.05 652.31,493.12 679.21,493.95 			"/>
		</g>
		<g>
			<polygon class="st16" points="810.08,339.41 806.6,315.58 780,319.63 			"/>
		</g>
		<path class="st20" d="M795,339c0,0-77,114-132,143"/>
	</g>
</g>
<g id="Capa_20">
	<g>
		<g>
			<g>
				<line class="st14" x1="622.5" y1="410" x2="618.93" y2="414.83"/>
				<line class="st21" x1="610.98" y1="425.61" x2="599.04" y2="441.78"/>
				<line class="st14" x1="595.06" y1="447.17" x2="591.5" y2="452"/>
			</g>
		</g>
		<g>
			<polygon class="st16" points="628.59,430.41 625.11,406.58 598.51,410.63 			"/>
		</g>
		<g>
			<polygon class="st16" points="582.9,431.8 584.36,455.84 611.21,454.04 			"/>
		</g>
	</g>
</g>
<g id="Capa_17">
	<g>
		<g>
			<g>
				<path class="st11" d="M738.16,647c0,0,2.1,0.71,5.76,1.68"/>
				<path class="st12" d="M755.17,651.21c33.05,6.21,103,8.91,105.99-78.44"/>
				<path class="st11" d="M861.25,567c0-1.96-0.03-3.96-0.09-6"/>
			</g>
		</g>
		<g>
			<polygon class="st13" points="877.16,572 861.16,554 841.16,572 			"/>
		</g>
		<g>
			<polygon class="st13" points="733.25,630.91 710,637.19 717.19,663.12 			"/>
		</g>
	</g>
</g>
<g id="Capa_18">
	<g>
		<line class="st1" x1="514" y1="669" x2="512.21" y2="809"/>
	</g>
	<g>
	</g>
	<g>
	</g>
	<g>
	</g>
	<g>
	</g>
	<g>
	</g>
	<g>
	</g>
	<g>
	</g>
	<g>
	</g>
	<g>
	</g>
	<g>
	</g>
	<g>
	</g>
	<g>
	</g>
	<g>
	</g>
	<g>
	</g>
	<g>
	</g>
</g>
</svg>
