<?xml version="1.0" encoding="utf-8"?>
<!-- Generator: Adobe Illustrator 23.0.0, SVG Export Plug-In . SVG Version: 6.00 Build 0)  -->
<svg version="1.1" id="Capa_1" xmlns="http://www.w3.org/2000/svg" xmlns:xlink="http://www.w3.org/1999/xlink" x="0px" y="0px"
	 viewBox="0 0 522 489" style="enable-background:new 0 0 522 489;" xml:space="preserve">
<style type="text/css">
	.st0{fill:#0C2D44;}
	.st1{fill:#2C83AF;}
	.st2{fill:#1F3642;}
	.st3{fill:#A9BDDA;}
	.st4{opacity:0.46;fill:#A6B4BC;}
	.st5{fill:#74C475;}
	.st6{fill:#221F21;}
	.st7{fill:#FFFFFF;}
</style>
<g>
	<g>
		<circle class="st0" cx="272.5" cy="141.1" r="111.95"/>
		<circle class="st0" cx="161.03" cy="296.15" r="111.95"/>
		<circle class="st0" cx="346.05" cy="336.39" r="111.95"/>
	</g>
	<g>
		<circle class="st1" cx="268.37" cy="265.14" r="161.61"/>
	</g>
	<g>
		<g>
			<g>
				<ellipse class="st2" cx="263.93" cy="226.16" rx="93.73" ry="42.09"/>
				<g>
					<path class="st3" d="M181.14,245.92c1.66,1.4,3.5,2.76,5.49,4.06c-4.86-13.97-6.96-29.48-6.45-42.74
						c-1.53,1.36-2.9,2.77-4.1,4.22C176.12,222.39,177.78,234.46,181.14,245.92z"/>
					<path class="st3" d="M351.76,211.43c-1.21-1.45-2.58-2.86-4.12-4.22c0.79,13.39-1.9,29.16-7.25,43.32
						c2.08-1.31,3.99-2.68,5.72-4.1C349.86,234.75,351.82,222.47,351.76,211.43z"/>
				</g>
			</g>
			<path class="st3" d="M289.41,285.79c-17.36-2.41-34.97-2.78-52.48-1.08c-40.26,3.91-54.58-56.39-48.84-86.73
				c2.93-15.47,20.17-26.56,34.74-30.01c26.39-6.24,54.58-6.64,81.11-1.07c14.23,3.03,28.31,12.69,33.86,26.56
				C349.37,222.46,328.73,291.25,289.41,285.79z"/>
			<path class="st4" d="M337.79,193.47c-2.74-6.86-7.57-12.69-13.46-17.19c1.98,2.64,3.63,5.51,4.86,8.59
				c11.58,28.99-9.06,97.78-48.38,92.32c-17.36-2.41-34.97-2.78-52.48-1.08c-9.55,0.93-17.64-1.76-24.35-6.8
				c7.98,10.29,18.88,16.77,32.95,15.4c17.5-1.7,35.12-1.33,52.48,1.08C328.73,291.25,349.37,222.46,337.79,193.47z"/>
			<path class="st2" d="M302.39,257.51c-6.71,2.61-13.89,4.2-20.5,5.11c-21.06,2.88-46.35,1.38-64.8-10.06
				c-8.29-5.14-14.73-12.8-16.28-22.64c-0.13-0.79-0.25-1.58-0.38-2.37c-2.98-18.8,10.76-36.06,29.74-37.53
				c22.89-1.78,45.88-1.78,68.77,0c18.98,1.48,32.72,18.73,29.74,37.53c-0.12,0.75-0.24,1.49-0.35,2.24
				C326.06,244.05,315.07,252.58,302.39,257.51z"/>
			<path class="st5" d="M282.31,243.81c0,3.63-7.55,9.95-16.86,9.95c-9.31,0-16.86-6.32-16.86-9.95c0-3.63,7.55-3.2,16.86-3.2
				C274.76,240.61,282.31,240.18,282.31,243.81z"/>
			<path class="st5" d="M241.17,220.86c0,2.99-2.43,5.42-5.42,5.42c-2.99,0-5.42-2.43-5.42-5.42c0-2.99,2.43-5.42,5.42-5.42
				C238.75,215.44,241.17,217.86,241.17,220.86z"/>
			<path class="st5" d="M297.48,219.12c0,2.99-2.43,5.42-5.42,5.42c-2.99,0-5.42-2.43-5.42-5.42c0-2.99,2.43-5.42,5.42-5.42
				C295.05,213.7,297.48,216.13,297.48,219.12z"/>
		</g>
		<g>
			<g>
				<polygon points="262.08,167.81 263.97,167.84 264.14,159.14 272.75,156.47 260.66,152.77 264.3,150.85 264.48,141.6 
					262.6,141.57 262.44,149.7 255.73,153.24 266.35,156.48 262.28,157.75 				"/>
			</g>
			<path d="M259.53,137.42c-0.04,2.26,1.75,4.12,4,4.16c2.26,0.04,4.12-1.75,4.16-4c0.04-2.26-1.75-4.12-4-4.16
				C261.44,133.37,259.58,135.16,259.53,137.42z"/>
			<path class="st6" d="M253.59,170.4c-0.05,2.7,4.54,4.98,10.25,5.09c5.71,0.11,10.39-1.99,10.44-4.69
				c0.05-2.7-4.54-4.98-10.25-5.09C258.31,165.6,253.64,167.7,253.59,170.4z"/>
		</g>
	</g>
	<g>
		<path class="st7" d="M141.9,328.97c-0.25-0.26-0.38-0.66-0.38-1.2v-15.82c0-0.54,0.13-0.94,0.38-1.2c0.25-0.26,0.68-0.39,1.3-0.39
			h11.57c0.6,0,1,0.13,1.22,0.38c0.21,0.25,0.32,0.66,0.32,1.22v1.56c0,0.56-0.11,0.96-0.32,1.22c-0.21,0.25-0.62,0.38-1.22,0.38
			h-6.54v2.38h4.02c0.6,0,1,0.13,1.22,0.38c0.21,0.25,0.32,0.66,0.32,1.22v1.56c0,0.56-0.11,0.96-0.32,1.22
			c-0.21,0.25-0.62,0.38-1.22,0.38h-4.02v5.53c0,0.54-0.13,0.94-0.38,1.2c-0.25,0.26-0.69,0.39-1.33,0.39h-3.33
			C142.59,329.36,142.15,329.23,141.9,328.97z"/>
		<path class="st7" d="M161.51,328.9c-1.38-0.59-2.45-1.43-3.21-2.54c-0.76-1.11-1.15-2.43-1.15-3.95v-10.45
			c0-0.54,0.13-0.94,0.38-1.2c0.25-0.26,0.69-0.39,1.3-0.39h3.33c0.63,0,1.08,0.13,1.33,0.38c0.25,0.25,0.38,0.66,0.38,1.22v10.54
			c0,0.88,0.22,1.53,0.66,1.96c0.44,0.43,1.04,0.64,1.8,0.64c0.76,0,1.36-0.21,1.8-0.64c0.44-0.43,0.66-1.08,0.66-1.96v-10.54
			c0-0.54,0.13-0.94,0.38-1.2c0.25-0.26,0.68-0.39,1.3-0.39h3.33c0.63,0,1.08,0.13,1.33,0.38c0.25,0.25,0.38,0.66,0.38,1.22v10.45
			c0,1.53-0.38,2.85-1.15,3.95c-0.76,1.11-1.83,1.96-3.21,2.54c-1.38,0.59-2.98,0.88-4.81,0.88S162.88,329.49,161.51,328.9z"/>
		<path class="st7" d="M177.67,328.97c-0.25-0.26-0.38-0.66-0.38-1.2v-15.84c0-0.54,0.13-0.94,0.38-1.19
			c0.25-0.25,0.69-0.38,1.33-0.38h2.65c0.39,0,0.69,0.05,0.91,0.15c0.21,0.1,0.42,0.3,0.63,0.6l5.06,7.52v-6.68
			c0-0.54,0.13-0.94,0.38-1.2c0.25-0.26,0.68-0.39,1.3-0.39h3.33c0.63,0,1.08,0.13,1.33,0.38c0.25,0.25,0.38,0.66,0.38,1.22v15.84
			c0,0.54-0.13,0.94-0.38,1.19c-0.25,0.25-0.69,0.38-1.33,0.38h-2.65c-0.39,0-0.69-0.05-0.91-0.15s-0.42-0.3-0.63-0.6l-5.06-7.52
			v6.71c0,0.54-0.13,0.94-0.38,1.19c-0.25,0.25-0.69,0.38-1.33,0.38h-3.33C178.36,329.36,177.92,329.23,177.67,328.97z"/>
		<path class="st7" d="M199.17,327.28c-1.88-1.67-2.82-4.14-2.82-7.42c0-3.3,0.91-5.78,2.72-7.43c1.82-1.66,4.41-2.49,7.78-2.49
			c1.53,0,2.89,0.15,4.08,0.45c1.19,0.3,2.19,0.72,2.99,1.26c0.22,0.17,0.34,0.35,0.34,0.56c0,0.17-0.08,0.4-0.25,0.7l-1.4,2.4
			c-0.15,0.26-0.33,0.39-0.53,0.39c-0.13,0-0.35-0.07-0.64-0.22c-0.52-0.26-1.07-0.46-1.63-0.61c-0.57-0.15-1.23-0.22-2-0.22
			c-1.55,0-2.73,0.45-3.55,1.34c-0.82,0.89-1.23,2.19-1.23,3.88c0,1.68,0.45,2.97,1.34,3.87c0.89,0.9,2.11,1.36,3.66,1.36
			c1.34,0,2.57-0.28,3.69-0.84c0.3-0.15,0.51-0.22,0.64-0.22c0.2,0,0.38,0.13,0.53,0.39l1.4,2.4c0.17,0.3,0.25,0.53,0.25,0.7
			c0,0.21-0.11,0.39-0.34,0.56c-0.8,0.54-1.81,0.96-3.02,1.26s-2.58,0.45-4.11,0.45C203.69,329.78,201.06,328.95,199.17,327.28z"/>
		<path class="st7" d="M216.32,328.97c-0.25-0.26-0.38-0.66-0.38-1.2v-15.82c0-0.54,0.13-0.94,0.38-1.2
			c0.25-0.26,0.68-0.39,1.3-0.39h3.33c0.63,0,1.08,0.13,1.33,0.38c0.25,0.25,0.38,0.66,0.38,1.22v15.82c0,0.54-0.13,0.94-0.38,1.2
			c-0.25,0.26-0.69,0.39-1.33,0.39h-3.33C217,329.36,216.57,329.23,216.32,328.97z"/>
		<path class="st7" d="M226.62,327.2c-1.71-1.72-2.57-4.17-2.57-7.33s0.86-5.61,2.57-7.33c1.71-1.72,4.23-2.58,7.54-2.58
			c3.32,0,5.83,0.86,7.54,2.58c1.71,1.72,2.57,4.17,2.57,7.33s-0.86,5.61-2.57,7.33c-1.71,1.72-4.23,2.58-7.54,2.58
			C230.84,329.78,228.33,328.92,226.62,327.2z M236.79,323.79c0.54-0.87,0.81-2.17,0.81-3.93c0-1.77-0.27-3.08-0.81-3.94
			c-0.54-0.86-1.42-1.29-2.63-1.29c-1.21,0-2.09,0.43-2.63,1.29c-0.54,0.86-0.81,2.17-0.81,3.94c0,1.75,0.27,3.06,0.81,3.93
			c0.54,0.87,1.42,1.3,2.63,1.3C235.37,325.09,236.25,324.65,236.79,323.79z"/>
		<path class="st7" d="M246.05,328.97c-0.25-0.26-0.38-0.66-0.38-1.2v-15.84c0-0.54,0.13-0.94,0.38-1.19
			c0.25-0.25,0.69-0.38,1.33-0.38h2.65c0.39,0,0.69,0.05,0.91,0.15c0.21,0.1,0.42,0.3,0.63,0.6l5.06,7.52v-6.68
			c0-0.54,0.13-0.94,0.38-1.2c0.25-0.26,0.68-0.39,1.3-0.39h3.33c0.63,0,1.08,0.13,1.33,0.38c0.25,0.25,0.38,0.66,0.38,1.22v15.84
			c0,0.54-0.13,0.94-0.38,1.19c-0.25,0.25-0.69,0.38-1.33,0.38h-2.65c-0.39,0-0.69-0.05-0.91-0.15s-0.42-0.3-0.63-0.6l-5.06-7.52
			v6.71c0,0.54-0.13,0.94-0.38,1.19c-0.25,0.25-0.69,0.38-1.33,0.38h-3.33C246.74,329.36,246.3,329.23,246.05,328.97z"/>
		<path class="st7" d="M264.73,328.78c0-0.17,0.05-0.37,0.14-0.61l6.96-16.74c0.17-0.39,0.36-0.67,0.57-0.82
			c0.21-0.16,0.52-0.24,0.91-0.24h3.05c0.39,0,0.69,0.08,0.91,0.24c0.21,0.16,0.41,0.43,0.57,0.82l6.93,16.74
			c0.09,0.24,0.14,0.45,0.14,0.61c0,0.39-0.21,0.59-0.61,0.59h-5.25c-0.58,0-0.94-0.25-1.09-0.75l-0.67-2.07h-4.95l-0.64,2.07
			c-0.15,0.5-0.51,0.75-1.09,0.75h-5.25C264.94,329.36,264.73,329.17,264.73,328.78z M275.91,322.13l-1.09-3.47l-1.09,3.47H275.91z"
			/>
		<path class="st7" d="M286.68,328.97c-0.25-0.26-0.38-0.66-0.38-1.2v-15.82c0-0.54,0.13-0.94,0.38-1.2
			c0.25-0.26,0.68-0.39,1.3-0.39h3.33c0.63,0,1.08,0.13,1.33,0.38c0.25,0.25,0.38,0.66,0.38,1.22v12.66h6.51c0.6,0,1,0.13,1.22,0.38
			c0.21,0.25,0.32,0.66,0.32,1.22v1.56c0,0.56-0.11,0.96-0.32,1.22c-0.21,0.25-0.62,0.38-1.22,0.38h-11.54
			C287.37,329.36,286.93,329.23,286.68,328.97z"/>
		<path class="st7" d="M302.27,328.97c-0.25-0.26-0.38-0.66-0.38-1.2v-15.82c0-0.54,0.13-0.94,0.38-1.2
			c0.25-0.26,0.68-0.39,1.3-0.39h3.33c0.63,0,1.08,0.13,1.33,0.38c0.25,0.25,0.38,0.66,0.38,1.22v15.82c0,0.54-0.13,0.94-0.38,1.2
			c-0.25,0.26-0.69,0.39-1.33,0.39h-3.33C302.96,329.36,302.53,329.23,302.27,328.97z"/>
		<path class="st7" d="M310.94,328.97c-0.25-0.26-0.38-0.66-0.38-1.2v-15.82c0-0.54,0.13-0.94,0.38-1.2
			c0.25-0.26,0.68-0.39,1.3-0.39h6.43c6.58,0,9.86,3.17,9.86,9.5c0,3.13-0.84,5.5-2.53,7.1c-1.69,1.6-4.13,2.4-7.33,2.4h-6.43
			C311.62,329.36,311.19,329.23,310.94,328.97z M318.92,324.61c1.04,0,1.79-0.34,2.25-1.03c0.46-0.69,0.68-1.93,0.68-3.72
			s-0.23-3.03-0.68-3.72c-0.46-0.69-1.21-1.03-2.25-1.03h-1.65v9.5H318.92z"/>
		<path class="st7" d="M328.11,328.78c0-0.17,0.05-0.37,0.14-0.61l6.96-16.74c0.17-0.39,0.36-0.67,0.57-0.82
			c0.21-0.16,0.52-0.24,0.91-0.24h3.05c0.39,0,0.69,0.08,0.91,0.24c0.21,0.16,0.41,0.43,0.57,0.82l6.93,16.74
			c0.09,0.24,0.14,0.45,0.14,0.61c0,0.39-0.21,0.59-0.61,0.59h-5.25c-0.58,0-0.94-0.25-1.09-0.75l-0.67-2.07h-4.95l-0.64,2.07
			c-0.15,0.5-0.51,0.75-1.09,0.75h-5.25C328.31,329.36,328.11,329.17,328.11,328.78z M339.29,322.13l-1.09-3.47l-1.09,3.47H339.29z"
			/>
		<path class="st7" d="M350.06,328.97c-0.25-0.26-0.38-0.66-0.38-1.2v-15.82c0-0.54,0.13-0.94,0.38-1.2
			c0.25-0.26,0.68-0.39,1.3-0.39h6.43c6.58,0,9.86,3.17,9.86,9.5c0,3.13-0.84,5.5-2.53,7.1c-1.69,1.6-4.13,2.4-7.33,2.4h-6.43
			C350.74,329.36,350.31,329.23,350.06,328.97z M358.04,324.61c1.04,0,1.79-0.34,2.25-1.03c0.46-0.69,0.68-1.93,0.68-3.72
			s-0.23-3.03-0.68-3.72c-0.46-0.69-1.21-1.03-2.25-1.03h-1.65v9.5H358.04z"/>
		<path class="st7" d="M369.42,328.97c-0.25-0.26-0.38-0.66-0.38-1.2v-15.82c0-0.54,0.13-0.94,0.38-1.2
			c0.25-0.26,0.68-0.39,1.3-0.39h11.57c0.6,0,1,0.13,1.22,0.38c0.21,0.25,0.32,0.66,0.32,1.22v1.56c0,0.56-0.11,0.96-0.32,1.22
			c-0.21,0.25-0.62,0.38-1.22,0.38h-6.54v2.4h4.02c0.6,0,1,0.13,1.22,0.38c0.21,0.25,0.32,0.66,0.32,1.21v1.51
			c0,0.56-0.11,0.96-0.32,1.21c-0.21,0.25-0.62,0.38-1.22,0.38h-4.02v2.4h6.51c0.6,0,1,0.13,1.22,0.38
			c0.21,0.25,0.32,0.66,0.32,1.22v1.56c0,0.56-0.11,0.96-0.32,1.22c-0.21,0.25-0.62,0.38-1.22,0.38h-11.54
			C370.11,329.36,369.68,329.23,369.42,328.97z"/>
		<path class="st7" d="M388.63,329.25c-1.45-0.35-2.63-0.85-3.52-1.48c-0.37-0.26-0.56-0.51-0.56-0.75c0-0.17,0.06-0.34,0.2-0.53
			l1.62-2.54c0.17-0.24,0.33-0.36,0.5-0.36c0.15,0,0.33,0.07,0.53,0.2c0.67,0.41,1.44,0.73,2.31,0.96c0.87,0.23,1.71,0.35,2.53,0.35
			c0.69,0,1.19-0.09,1.5-0.28c0.31-0.19,0.46-0.48,0.46-0.87c0-0.43-0.21-0.77-0.61-1.03c-0.41-0.26-1.12-0.59-2.12-0.98
			c-1.88-0.73-3.36-1.55-4.44-2.47c-1.08-0.92-1.62-2.15-1.62-3.67c0-1.94,0.67-3.4,2.03-4.37c1.35-0.98,3.17-1.47,5.46-1.47
			c1.6,0,2.97,0.14,4.09,0.42c1.13,0.28,2.11,0.72,2.95,1.31c0.37,0.26,0.56,0.51,0.56,0.75c0,0.17-0.07,0.35-0.2,0.53l-1.62,2.54
			c-0.17,0.26-0.34,0.39-0.5,0.39c-0.11,0-0.29-0.07-0.53-0.22c-0.45-0.3-0.98-0.54-1.59-0.74c-0.61-0.2-1.28-0.29-1.98-0.29
			c-0.65,0-1.15,0.09-1.48,0.28c-0.34,0.19-0.5,0.48-0.5,0.89c0,0.33,0.12,0.61,0.35,0.84c0.23,0.22,0.53,0.42,0.88,0.57
			c0.35,0.16,0.97,0.42,1.84,0.77c1.4,0.56,2.5,1.09,3.3,1.61c0.8,0.51,1.41,1.13,1.82,1.84c0.41,0.72,0.61,1.63,0.61,2.72
			c0,1.68-0.63,3.03-1.89,4.07s-3.13,1.55-5.63,1.55C391.66,329.78,390.09,329.6,388.63,329.25z"/>
		<path class="st7" d="M195.46,360.81c-1.88-1.67-2.82-4.14-2.82-7.42c0-3.26,0.94-5.73,2.82-7.41c1.88-1.68,4.51-2.51,7.88-2.51
			c1.53,0,2.9,0.15,4.11,0.45c1.21,0.3,2.22,0.72,3.02,1.26c0.22,0.17,0.34,0.35,0.34,0.56c0,0.17-0.08,0.4-0.25,0.7l-1.4,2.4
			c-0.15,0.26-0.33,0.39-0.53,0.39c-0.13,0-0.35-0.07-0.64-0.22c-1.12-0.56-2.35-0.84-3.69-0.84c-1.55,0-2.76,0.44-3.65,1.33
			c-0.89,0.88-1.33,2.18-1.33,3.9c0,1.77,0.37,3.08,1.12,3.93c0.74,0.85,1.85,1.27,3.33,1.27c0.26,0,0.55-0.02,0.88-0.07
			c0.33-0.05,0.59-0.1,0.8-0.15v-2.54h-1.79c-0.6,0-1-0.12-1.22-0.35s-0.32-0.63-0.32-1.19v-1.54c0-0.56,0.11-0.96,0.32-1.19
			c0.21-0.23,0.62-0.35,1.22-0.35h6.01c0.73,0,1.23,0.16,1.51,0.49c0.28,0.33,0.42,0.84,0.42,1.55v6.54c0,0.41-0.05,0.72-0.15,0.94
			c-0.1,0.21-0.3,0.43-0.6,0.66c-1.79,1.29-4.28,1.93-7.46,1.93C199.98,363.31,197.34,362.48,195.46,360.81z"/>
		<path class="st7" d="M213.36,362.5c-0.25-0.26-0.38-0.66-0.38-1.2v-15.82c0-0.54,0.13-0.94,0.38-1.2c0.25-0.26,0.68-0.39,1.3-0.39
			h11.57c0.6,0,1,0.13,1.22,0.38c0.21,0.25,0.32,0.66,0.32,1.22v1.56c0,0.56-0.11,0.96-0.32,1.22c-0.21,0.25-0.62,0.38-1.22,0.38
			h-6.54v2.4h4.02c0.6,0,1,0.13,1.22,0.38c0.21,0.25,0.32,0.66,0.32,1.21v1.51c0,0.56-0.11,0.96-0.32,1.21
			c-0.21,0.25-0.62,0.38-1.22,0.38h-4.02v2.4h6.51c0.6,0,1,0.13,1.22,0.38c0.21,0.25,0.32,0.66,0.32,1.22v1.56
			c0,0.56-0.11,0.96-0.32,1.22c-0.21,0.25-0.62,0.38-1.22,0.38h-11.54C214.04,362.9,213.61,362.77,213.36,362.5z"/>
		<path class="st7" d="M229.4,362.5c-0.25-0.26-0.38-0.66-0.38-1.2v-15.84c0-0.54,0.13-0.94,0.38-1.19
			c0.25-0.25,0.69-0.38,1.33-0.38h2.65c0.39,0,0.69,0.05,0.91,0.15c0.21,0.1,0.42,0.3,0.63,0.6l5.06,7.52v-6.68
			c0-0.54,0.13-0.94,0.38-1.2c0.25-0.26,0.68-0.39,1.3-0.39h3.33c0.63,0,1.08,0.13,1.33,0.38c0.25,0.25,0.38,0.66,0.38,1.22v15.84
			c0,0.54-0.13,0.94-0.38,1.19c-0.25,0.25-0.69,0.38-1.33,0.38h-2.65c-0.39,0-0.69-0.05-0.91-0.15s-0.42-0.3-0.63-0.6l-5.06-7.52
			v6.71c0,0.54-0.13,0.94-0.38,1.19c-0.25,0.25-0.69,0.38-1.33,0.38h-3.33C230.08,362.9,229.65,362.77,229.4,362.5z"/>
		<path class="st7" d="M249.01,362.5c-0.25-0.26-0.38-0.66-0.38-1.2v-15.82c0-0.54,0.13-0.94,0.38-1.2c0.25-0.26,0.68-0.39,1.3-0.39
			h11.57c0.6,0,1,0.13,1.22,0.38c0.21,0.25,0.32,0.66,0.32,1.22v1.56c0,0.56-0.11,0.96-0.32,1.22c-0.21,0.25-0.62,0.38-1.22,0.38
			h-6.54v2.4h4.02c0.6,0,1,0.13,1.22,0.38c0.21,0.25,0.32,0.66,0.32,1.21v1.51c0,0.56-0.11,0.96-0.32,1.21
			c-0.21,0.25-0.62,0.38-1.22,0.38h-4.02v2.4h6.51c0.6,0,1,0.13,1.22,0.38c0.21,0.25,0.32,0.66,0.32,1.22v1.56
			c0,0.56-0.11,0.96-0.32,1.22c-0.21,0.25-0.62,0.38-1.22,0.38h-11.54C249.7,362.9,249.26,362.77,249.01,362.5z"/>
		<path class="st7" d="M265.05,362.5c-0.25-0.26-0.38-0.66-0.38-1.2v-15.82c0-0.54,0.13-0.94,0.38-1.2c0.25-0.26,0.68-0.39,1.3-0.39
			h6.68c2.79,0,4.83,0.55,6.11,1.66c1.28,1.11,1.91,2.78,1.91,5.02c0,1.34-0.23,2.47-0.68,3.4c-0.46,0.92-1.16,1.64-2.11,2.17
			l2.6,5.56c0.07,0.15,0.11,0.32,0.11,0.5c0,0.21-0.07,0.37-0.21,0.5c-0.14,0.13-0.32,0.2-0.54,0.2h-4.72
			c-0.3,0-0.54-0.04-0.71-0.13c-0.18-0.08-0.3-0.23-0.38-0.43l-2.07-5.2h-0.95v4.16c0,0.54-0.13,0.94-0.38,1.2
			c-0.25,0.26-0.69,0.39-1.33,0.39h-3.33C265.74,362.9,265.3,362.77,265.05,362.5z M272.44,352.47c0.6,0,1.07-0.16,1.41-0.48
			c0.34-0.32,0.52-0.79,0.52-1.42c0-0.65-0.17-1.14-0.52-1.45s-0.81-0.48-1.41-0.48h-1.9v3.83H272.44z"/>
		<path class="st7" d="M280.63,362.31c0-0.17,0.05-0.37,0.14-0.61l6.96-16.74c0.17-0.39,0.36-0.67,0.57-0.82
			c0.21-0.16,0.52-0.24,0.91-0.24h3.05c0.39,0,0.69,0.08,0.91,0.24c0.21,0.16,0.41,0.43,0.57,0.82l6.93,16.74
			c0.09,0.24,0.14,0.45,0.14,0.61c0,0.39-0.21,0.59-0.61,0.59h-5.25c-0.58,0-0.94-0.25-1.09-0.75l-0.67-2.07h-4.95l-0.64,2.07
			c-0.15,0.5-0.51,0.75-1.09,0.75h-5.25C280.84,362.9,280.63,362.7,280.63,362.31z M291.81,355.66l-1.09-3.47l-1.09,3.47H291.81z"/>
		<path class="st7" d="M302.58,362.5c-0.25-0.26-0.38-0.66-0.38-1.2v-15.82c0-0.54,0.13-0.94,0.38-1.2c0.25-0.26,0.68-0.39,1.3-0.39
			h3.33c0.63,0,1.08,0.13,1.33,0.38c0.25,0.25,0.38,0.66,0.38,1.22v12.66h6.51c0.6,0,1,0.13,1.22,0.38
			c0.21,0.25,0.32,0.66,0.32,1.22v1.56c0,0.56-0.11,0.96-0.32,1.22c-0.21,0.25-0.62,0.38-1.22,0.38h-11.54
			C303.27,362.9,302.83,362.77,302.58,362.5z"/>
		<path class="st7" d="M317.75,362.5c-0.25-0.26-0.38-0.66-0.38-1.2v-15.82c0-0.54,0.13-0.94,0.38-1.2c0.25-0.26,0.68-0.39,1.3-0.39
			h11.57c0.6,0,1,0.13,1.22,0.38c0.21,0.25,0.32,0.66,0.32,1.22v1.56c0,0.56-0.11,0.96-0.32,1.22c-0.21,0.25-0.62,0.38-1.22,0.38
			h-6.54v2.4h4.02c0.6,0,1,0.13,1.22,0.38c0.21,0.25,0.32,0.66,0.32,1.21v1.51c0,0.56-0.11,0.96-0.32,1.21
			c-0.21,0.25-0.62,0.38-1.22,0.38h-4.02v2.4h6.51c0.6,0,1,0.13,1.22,0.38c0.21,0.25,0.32,0.66,0.32,1.22v1.56
			c0,0.56-0.11,0.96-0.32,1.22c-0.21,0.25-0.62,0.38-1.22,0.38h-11.54C318.44,362.9,318.01,362.77,317.75,362.5z"/>
		<path class="st7" d="M336.97,362.78c-1.45-0.35-2.63-0.85-3.52-1.48c-0.37-0.26-0.56-0.51-0.56-0.75c0-0.17,0.06-0.34,0.2-0.53
			l1.62-2.54c0.17-0.24,0.33-0.36,0.5-0.36c0.15,0,0.33,0.07,0.53,0.2c0.67,0.41,1.44,0.73,2.31,0.96c0.87,0.23,1.71,0.35,2.53,0.35
			c0.69,0,1.19-0.09,1.5-0.28c0.31-0.19,0.46-0.48,0.46-0.87c0-0.43-0.21-0.77-0.61-1.03c-0.41-0.26-1.12-0.59-2.12-0.98
			c-1.88-0.73-3.36-1.55-4.44-2.47c-1.08-0.92-1.62-2.15-1.62-3.67c0-1.94,0.67-3.4,2.03-4.37c1.35-0.98,3.17-1.47,5.46-1.47
			c1.6,0,2.97,0.14,4.09,0.42c1.13,0.28,2.11,0.72,2.95,1.31c0.37,0.26,0.56,0.51,0.56,0.75c0,0.17-0.07,0.35-0.2,0.53l-1.62,2.54
			c-0.17,0.26-0.34,0.39-0.5,0.39c-0.11,0-0.29-0.07-0.53-0.22c-0.45-0.3-0.98-0.54-1.59-0.74c-0.61-0.2-1.28-0.29-1.98-0.29
			c-0.65,0-1.15,0.09-1.48,0.28c-0.34,0.19-0.5,0.48-0.5,0.89c0,0.33,0.12,0.61,0.35,0.84c0.23,0.22,0.53,0.42,0.88,0.57
			c0.35,0.16,0.97,0.42,1.84,0.77c1.4,0.56,2.5,1.09,3.3,1.61c0.8,0.51,1.41,1.13,1.82,1.84c0.41,0.72,0.61,1.63,0.61,2.72
			c0,1.68-0.63,3.03-1.89,4.07s-3.13,1.55-5.63,1.55C339.99,363.31,338.42,363.14,336.97,362.78z"/>
	</g>
</g>
<g>
</g>
<g>
</g>
<g>
</g>
<g>
</g>
<g>
</g>
<g>
</g>
<g>
</g>
<g>
</g>
<g>
</g>
<g>
</g>
<g>
</g>
<g>
</g>
<g>
</g>
<g>
</g>
<g>
</g>
</svg>
