<?xml version="1.0" encoding="utf-8"?>
<!-- Generator: Adobe Illustrator 23.0.0, SVG Export Plug-In . SVG Version: 6.00 Build 0)  -->
<svg version="1.1" id="Capa_1" xmlns="http://www.w3.org/2000/svg" xmlns:xlink="http://www.w3.org/1999/xlink" x="0px" y="0px"
	 viewBox="0 0 522 489" style="enable-background:new 0 0 522 489;" xml:space="preserve">
<style type="text/css">
	.st0{fill:#00791D;}
	.st1{fill:#00D13C;}
	.st2{fill:#FFFFFF;}
	.st3{opacity:0.7;fill:#7F7F7F;}
	.st4{fill:#C2C2C2;}
	.st5{fill:#A1DC9B;}
	.st6{fill:#587955;}
	.st7{fill:#90C58B;}
	.st8{fill:#85B681;}
	.st9{fill:#22272F;}
	.st10{fill:#1B2538;}
	.st11{fill:#253452;}
	.st12{fill:#F9F9F9;}
	.st13{fill:#2D3543;}
	.st14{fill:#2A3D60;}
	.st15{fill:#6C92D5;}
	.st16{fill:#CD7054;}
	.st17{fill:#F1CC4B;}
	.st18{fill:#DFDFDF;}
	.st19{fill:#ACACAC;}
	.st20{opacity:0.4;}
</style>
<g>
	<g>
		<circle class="st0" cx="272.5" cy="141.1" r="111.95"/>
		<circle class="st0" cx="161.03" cy="296.15" r="111.95"/>
		<circle class="st0" cx="346.05" cy="336.39" r="111.95"/>
	</g>
</g>
<g>
	<circle class="st1" cx="268.37" cy="265.14" r="161.61"/>
</g>
<g>
	<path class="st2" d="M148.26,312.98c-0.24-0.25-0.36-0.64-0.36-1.16v-15.28c0-0.52,0.12-0.91,0.36-1.16
		c0.24-0.25,0.66-0.38,1.26-0.38h11.18c0.58,0,0.97,0.12,1.17,0.37c0.21,0.24,0.31,0.63,0.31,1.17v1.51c0,0.54-0.1,0.93-0.31,1.17
		c-0.21,0.24-0.6,0.37-1.17,0.37h-6.32v2.29h3.89c0.58,0,0.97,0.12,1.17,0.36s0.31,0.63,0.31,1.17v1.51c0,0.54-0.1,0.93-0.31,1.17
		c-0.21,0.24-0.6,0.36-1.17,0.36h-3.89v5.35c0,0.52-0.12,0.91-0.36,1.16s-0.67,0.38-1.28,0.38h-3.21
		C148.92,313.36,148.51,313.24,148.26,312.98z"/>
	<path class="st2" d="M167.2,312.92c-1.33-0.57-2.37-1.39-3.1-2.46c-0.74-1.07-1.11-2.34-1.11-3.82v-10.1
		c0-0.52,0.12-0.91,0.36-1.16c0.24-0.25,0.66-0.38,1.26-0.38h3.21c0.61,0,1.04,0.12,1.28,0.37c0.24,0.24,0.36,0.63,0.36,1.17v10.18
		c0,0.85,0.21,1.48,0.63,1.89s1,0.62,1.74,0.62c0.74,0,1.32-0.21,1.74-0.62c0.42-0.41,0.63-1.04,0.63-1.89v-10.18
		c0-0.52,0.12-0.91,0.36-1.16c0.24-0.25,0.66-0.38,1.26-0.38h3.21c0.61,0,1.04,0.12,1.28,0.37c0.24,0.24,0.36,0.63,0.36,1.17v10.1
		c0,1.48-0.37,2.75-1.11,3.82c-0.74,1.07-1.77,1.89-3.1,2.46c-1.33,0.57-2.88,0.85-4.64,0.85
		C170.08,313.77,168.54,313.48,167.2,312.92z"/>
	<path class="st2" d="M182.82,312.98c-0.24-0.25-0.36-0.64-0.36-1.16v-15.31c0-0.52,0.12-0.91,0.36-1.15
		c0.24-0.24,0.67-0.37,1.28-0.37h2.57c0.38,0,0.67,0.05,0.88,0.15c0.21,0.1,0.41,0.29,0.61,0.58l4.89,7.26v-6.45
		c0-0.52,0.12-0.91,0.36-1.16c0.24-0.25,0.66-0.38,1.26-0.38h3.21c0.61,0,1.04,0.12,1.28,0.37c0.24,0.24,0.36,0.63,0.36,1.17v15.31
		c0,0.52-0.12,0.9-0.36,1.15s-0.67,0.36-1.28,0.36h-2.56c-0.38,0-0.67-0.05-0.88-0.15c-0.21-0.1-0.41-0.29-0.61-0.58l-4.89-7.26
		v6.48c0,0.52-0.12,0.9-0.36,1.15s-0.67,0.36-1.28,0.36h-3.21C183.48,313.36,183.07,313.24,182.82,312.98z"/>
	<path class="st2" d="M203.6,311.35c-1.82-1.61-2.73-4-2.73-7.17c0-3.19,0.88-5.58,2.63-7.18c1.75-1.6,4.26-2.4,7.52-2.4
		c1.48,0,2.79,0.14,3.94,0.43c1.15,0.29,2.11,0.69,2.89,1.21c0.22,0.16,0.32,0.34,0.32,0.54c0,0.16-0.08,0.39-0.24,0.67l-1.35,2.32
		c-0.14,0.25-0.32,0.38-0.51,0.38c-0.13,0-0.33-0.07-0.62-0.22c-0.5-0.25-1.03-0.45-1.58-0.59c-0.55-0.14-1.19-0.22-1.93-0.22
		c-1.49,0-2.64,0.43-3.43,1.3c-0.79,0.86-1.19,2.12-1.19,3.75c0,1.62,0.43,2.87,1.3,3.74c0.86,0.87,2.04,1.31,3.54,1.31
		c1.3,0,2.48-0.27,3.56-0.81c0.29-0.14,0.5-0.22,0.62-0.22c0.2,0,0.37,0.13,0.51,0.38l1.35,2.32c0.16,0.29,0.24,0.51,0.24,0.67
		c0,0.2-0.11,0.38-0.32,0.54c-0.77,0.52-1.75,0.93-2.92,1.21c-1.17,0.29-2.49,0.43-3.97,0.43
		C207.96,313.77,205.42,312.96,203.6,311.35z"/>
	<path class="st2" d="M220.16,312.98c-0.24-0.25-0.36-0.64-0.36-1.16v-15.28c0-0.52,0.12-0.91,0.36-1.16
		c0.24-0.25,0.66-0.38,1.26-0.38h3.21c0.61,0,1.04,0.12,1.28,0.37c0.24,0.24,0.36,0.63,0.36,1.17v15.28c0,0.52-0.12,0.91-0.36,1.16
		s-0.67,0.38-1.28,0.38h-3.21C220.82,313.36,220.41,313.24,220.16,312.98z"/>
	<path class="st2" d="M230.11,311.27c-1.66-1.66-2.48-4.03-2.48-7.09c0-3.06,0.83-5.42,2.48-7.09c1.66-1.67,4.09-2.5,7.29-2.5
		c3.2,0,5.63,0.83,7.29,2.5c1.66,1.67,2.48,4.03,2.48,7.09c0,3.06-0.83,5.42-2.48,7.09c-1.66,1.67-4.09,2.5-7.29,2.5
		C234.2,313.77,231.77,312.93,230.11,311.27z M239.94,307.98c0.52-0.84,0.78-2.1,0.78-3.79c0-1.71-0.26-2.98-0.78-3.81
		c-0.52-0.83-1.37-1.24-2.54-1.24c-1.17,0-2.02,0.41-2.54,1.24c-0.52,0.83-0.78,2.1-0.78,3.81c0,1.69,0.26,2.96,0.78,3.79
		c0.52,0.84,1.37,1.26,2.54,1.26C238.57,309.23,239.42,308.81,239.94,307.98z"/>
	<path class="st2" d="M248.89,312.98c-0.24-0.25-0.36-0.64-0.36-1.16v-15.31c0-0.52,0.12-0.91,0.36-1.15
		c0.24-0.24,0.67-0.37,1.28-0.37h2.57c0.38,0,0.67,0.05,0.88,0.15c0.21,0.1,0.41,0.29,0.61,0.58l4.89,7.26v-6.45
		c0-0.52,0.12-0.91,0.36-1.16c0.24-0.25,0.66-0.38,1.26-0.38h3.21c0.61,0,1.04,0.12,1.28,0.37c0.24,0.24,0.36,0.63,0.36,1.17v15.31
		c0,0.52-0.12,0.9-0.36,1.15s-0.67,0.36-1.28,0.36h-2.56c-0.38,0-0.67-0.05-0.88-0.15c-0.21-0.1-0.41-0.29-0.61-0.58l-4.89-7.26
		v6.48c0,0.52-0.12,0.9-0.36,1.15s-0.67,0.36-1.28,0.36h-3.21C249.55,313.36,249.13,313.24,248.89,312.98z"/>
	<path class="st2" d="M266.94,312.79c0-0.16,0.04-0.36,0.14-0.59l6.72-16.17c0.16-0.38,0.35-0.64,0.55-0.8
		c0.21-0.15,0.5-0.23,0.88-0.23h2.94c0.38,0,0.67,0.08,0.88,0.23c0.21,0.15,0.39,0.42,0.55,0.8l6.7,16.17
		c0.09,0.23,0.13,0.43,0.13,0.59c0,0.38-0.2,0.57-0.59,0.57h-5.08c-0.56,0-0.91-0.24-1.05-0.73l-0.65-2h-4.78l-0.62,2
		c-0.14,0.49-0.5,0.73-1.05,0.73h-5.08C267.14,313.36,266.94,313.17,266.94,312.79z M277.74,306.37l-1.05-3.35l-1.05,3.35H277.74z"
		/>
	<path class="st2" d="M288.15,312.98c-0.24-0.25-0.36-0.64-0.36-1.16v-15.28c0-0.52,0.12-0.91,0.36-1.16
		c0.24-0.25,0.66-0.38,1.26-0.38h3.21c0.61,0,1.04,0.12,1.28,0.37c0.24,0.24,0.36,0.63,0.36,1.17v12.23h6.29
		c0.58,0,0.97,0.12,1.17,0.36c0.21,0.24,0.31,0.63,0.31,1.17v1.51c0,0.54-0.1,0.93-0.31,1.17c-0.21,0.24-0.6,0.36-1.17,0.36H289.4
		C288.81,313.36,288.39,313.24,288.15,312.98z"/>
	<path class="st2" d="M303.21,312.98c-0.24-0.25-0.36-0.64-0.36-1.16v-15.28c0-0.52,0.12-0.91,0.36-1.16
		c0.24-0.25,0.66-0.38,1.26-0.38h3.21c0.61,0,1.04,0.12,1.28,0.37c0.24,0.24,0.36,0.63,0.36,1.17v15.28c0,0.52-0.12,0.91-0.36,1.16
		s-0.67,0.38-1.28,0.38h-3.21C303.88,313.36,303.46,313.24,303.21,312.98z"/>
	<path class="st2" d="M311.58,312.98c-0.24-0.25-0.36-0.64-0.36-1.16v-15.28c0-0.52,0.12-0.91,0.36-1.16
		c0.24-0.25,0.66-0.38,1.26-0.38h6.21c6.35,0,9.53,3.06,9.53,9.18c0,3.02-0.81,5.31-2.44,6.86c-1.63,1.55-3.99,2.32-7.09,2.32h-6.21
		C312.25,313.36,311.83,313.24,311.58,312.98z M319.29,308.77c1.01,0,1.73-0.33,2.17-1c0.44-0.67,0.66-1.86,0.66-3.59
		c0-1.73-0.22-2.92-0.66-3.59c-0.44-0.67-1.17-1-2.17-1h-1.59v9.18H319.29z"/>
	<path class="st2" d="M328.18,312.79c0-0.16,0.04-0.36,0.14-0.59l6.72-16.17c0.16-0.38,0.35-0.64,0.55-0.8
		c0.21-0.15,0.5-0.23,0.88-0.23h2.94c0.38,0,0.67,0.08,0.88,0.23c0.21,0.15,0.39,0.42,0.55,0.8l6.7,16.17
		c0.09,0.23,0.13,0.43,0.13,0.59c0,0.38-0.2,0.57-0.59,0.57H342c-0.56,0-0.91-0.24-1.05-0.73l-0.65-2h-4.78l-0.62,2
		c-0.14,0.49-0.5,0.73-1.05,0.73h-5.08C328.37,313.36,328.18,313.17,328.18,312.79z M338.98,306.37l-1.05-3.35l-1.05,3.35H338.98z"
		/>
	<path class="st2" d="M349.38,312.98c-0.24-0.25-0.36-0.64-0.36-1.16v-15.28c0-0.52,0.12-0.91,0.36-1.16
		c0.24-0.25,0.66-0.38,1.26-0.38h6.21c6.35,0,9.53,3.06,9.53,9.18c0,3.02-0.81,5.31-2.44,6.86c-1.63,1.55-3.99,2.32-7.09,2.32h-6.21
		C350.05,313.36,349.63,313.24,349.38,312.98z M357.09,308.77c1.01,0,1.73-0.33,2.17-1c0.44-0.67,0.66-1.86,0.66-3.59
		c0-1.73-0.22-2.92-0.66-3.59c-0.44-0.67-1.17-1-2.17-1h-1.59v9.18H357.09z"/>
	<path class="st2" d="M368.1,312.98c-0.24-0.25-0.36-0.64-0.36-1.16v-15.28c0-0.52,0.12-0.91,0.36-1.16
		c0.24-0.25,0.66-0.38,1.26-0.38h11.18c0.58,0,0.97,0.12,1.17,0.37c0.21,0.24,0.31,0.63,0.31,1.17v1.51c0,0.54-0.1,0.93-0.31,1.17
		c-0.21,0.24-0.6,0.37-1.17,0.37h-6.32v2.32h3.89c0.58,0,0.97,0.12,1.17,0.36c0.21,0.24,0.31,0.63,0.31,1.17v1.46
		c0,0.54-0.1,0.93-0.31,1.17s-0.6,0.36-1.17,0.36h-3.89v2.32h6.29c0.58,0,0.97,0.12,1.17,0.36c0.21,0.24,0.31,0.63,0.31,1.17v1.51
		c0,0.54-0.1,0.93-0.31,1.17c-0.21,0.24-0.6,0.36-1.17,0.36h-11.15C368.76,313.36,368.34,313.24,368.1,312.98z"/>
	<path class="st2" d="M386.66,313.25c-1.4-0.34-2.54-0.82-3.4-1.43c-0.36-0.25-0.54-0.5-0.54-0.73c0-0.16,0.06-0.33,0.19-0.51
		l1.57-2.46c0.16-0.23,0.32-0.35,0.49-0.35c0.14,0,0.31,0.06,0.51,0.19c0.65,0.4,1.39,0.71,2.23,0.93c0.84,0.23,1.65,0.34,2.44,0.34
		c0.67,0,1.15-0.09,1.44-0.27c0.3-0.18,0.45-0.46,0.45-0.84c0-0.41-0.2-0.75-0.59-1c-0.4-0.25-1.08-0.57-2.05-0.94
		c-1.82-0.7-3.25-1.5-4.29-2.39c-1.04-0.89-1.57-2.07-1.57-3.55c0-1.87,0.65-3.28,1.96-4.23c1.3-0.95,3.06-1.42,5.28-1.42
		c1.55,0,2.87,0.13,3.96,0.4c1.09,0.27,2.04,0.69,2.85,1.27c0.36,0.25,0.54,0.5,0.54,0.73c0,0.16-0.06,0.33-0.19,0.51l-1.57,2.46
		c-0.16,0.25-0.32,0.38-0.49,0.38c-0.11,0-0.28-0.07-0.51-0.22c-0.43-0.29-0.94-0.53-1.54-0.71c-0.59-0.19-1.23-0.28-1.92-0.28
		c-0.63,0-1.11,0.09-1.43,0.27c-0.32,0.18-0.49,0.47-0.49,0.86c0,0.32,0.11,0.59,0.34,0.81c0.22,0.22,0.51,0.4,0.85,0.55
		c0.34,0.15,0.94,0.4,1.78,0.74c1.35,0.54,2.41,1.06,3.19,1.55c0.77,0.5,1.36,1.09,1.75,1.78s0.59,1.57,0.59,2.63
		c0,1.62-0.61,2.93-1.82,3.93s-3.03,1.5-5.44,1.5C389.58,313.77,388.06,313.6,386.66,313.25z"/>
</g>
<g>
	<path class="st2" d="M152.21,355.14c-2.91-0.71-5.26-1.7-7.06-2.97c-0.75-0.52-1.12-1.03-1.12-1.51c0-0.34,0.13-0.69,0.39-1.06
		l3.25-5.1c0.34-0.48,0.67-0.73,1.01-0.73c0.3,0,0.65,0.13,1.06,0.39c1.34,0.82,2.88,1.47,4.62,1.93s3.42,0.7,5.07,0.7
		c1.38,0,2.38-0.19,3-0.56c0.62-0.37,0.92-0.95,0.92-1.74c0-0.86-0.41-1.55-1.23-2.07c-0.82-0.52-2.24-1.18-4.26-1.96
		c-3.77-1.46-6.74-3.11-8.9-4.96c-2.17-1.85-3.25-4.3-3.25-7.36c0-3.88,1.35-6.8,4.06-8.76c2.71-1.96,6.36-2.94,10.95-2.94
		c3.21,0,5.94,0.28,8.2,0.84c2.26,0.56,4.23,1.44,5.91,2.63c0.75,0.52,1.12,1.03,1.12,1.51c0,0.34-0.13,0.69-0.39,1.06l-3.25,5.1
		c-0.34,0.52-0.67,0.78-1.01,0.78c-0.22,0-0.58-0.15-1.06-0.45c-0.9-0.6-1.96-1.09-3.19-1.48c-1.23-0.39-2.56-0.59-3.98-0.59
		c-1.31,0-2.3,0.19-2.97,0.56c-0.67,0.37-1.01,0.97-1.01,1.79c0,0.67,0.23,1.23,0.7,1.68c0.47,0.45,1.05,0.83,1.76,1.15
		c0.71,0.32,1.94,0.83,3.7,1.54c2.8,1.12,5,2.19,6.61,3.22c1.6,1.03,2.82,2.26,3.64,3.7c0.82,1.44,1.23,3.26,1.23,5.46
		c0,3.36-1.26,6.08-3.78,8.15c-2.52,2.07-6.28,3.11-11.28,3.11C158.28,356.2,155.12,355.85,152.21,355.14z"/>
	<path class="st2" d="M180.29,354.58c-0.5-0.52-0.76-1.32-0.76-2.41v-31.7c0-1.08,0.25-1.88,0.76-2.41c0.5-0.52,1.37-0.78,2.6-0.78
		h23.18c1.19,0,2.01,0.25,2.44,0.76c0.43,0.5,0.64,1.32,0.64,2.44v3.14c0,1.12-0.22,1.93-0.64,2.44c-0.43,0.5-1.24,0.76-2.44,0.76
		h-13.1v4.82h8.06c1.19,0,2.01,0.25,2.44,0.76c0.43,0.5,0.64,1.32,0.64,2.44v3.02c0,1.12-0.22,1.93-0.64,2.44
		c-0.43,0.5-1.24,0.76-2.44,0.76h-8.06v4.82h13.05c1.19,0,2.01,0.25,2.44,0.76s0.64,1.32,0.64,2.44v3.14c0,1.12-0.21,1.93-0.64,2.44
		s-1.24,0.76-2.44,0.76H182.9C181.67,355.36,180.8,355.1,180.29,354.58z"/>
	<path class="st2" d="M213.7,351.19c-3.77-3.34-5.66-8.3-5.66-14.87c0-6.53,1.88-11.48,5.66-14.84c3.77-3.36,9.03-5.04,15.79-5.04
		c3.06,0,5.8,0.3,8.23,0.9c2.43,0.6,4.44,1.44,6.05,2.52c0.45,0.34,0.67,0.71,0.67,1.12c0,0.34-0.17,0.8-0.5,1.4l-2.8,4.82
		c-0.3,0.52-0.65,0.78-1.06,0.78c-0.26,0-0.69-0.15-1.29-0.45c-2.24-1.12-4.7-1.68-7.39-1.68c-3.1,0-5.54,0.89-7.31,2.66
		c-1.77,1.77-2.66,4.38-2.66,7.81c0,3.55,0.75,6.17,2.24,7.87c1.49,1.7,3.71,2.55,6.66,2.55c0.52,0,1.11-0.05,1.76-0.14
		c0.65-0.09,1.18-0.2,1.6-0.31v-5.1h-3.58c-1.19,0-2.01-0.23-2.44-0.7c-0.43-0.47-0.64-1.26-0.64-2.38v-3.08
		c0-1.12,0.21-1.91,0.64-2.38s1.24-0.7,2.44-0.7h12.04c1.46,0,2.46,0.33,3.02,0.98c0.56,0.65,0.84,1.69,0.84,3.11v13.1
		c0,0.82-0.1,1.45-0.31,1.88c-0.21,0.43-0.61,0.87-1.2,1.32c-3.58,2.58-8.57,3.86-14.95,3.86
		C222.75,356.2,217.47,354.53,213.7,351.19z"/>
	<path class="st2" d="M257.27,354.44c-2.76-1.18-4.91-2.88-6.44-5.1c-1.53-2.22-2.3-4.86-2.3-7.92v-20.94
		c0-1.08,0.25-1.88,0.76-2.41c0.5-0.52,1.37-0.78,2.6-0.78h6.66c1.27,0,2.16,0.25,2.66,0.76c0.5,0.5,0.76,1.32,0.76,2.44v21.11
		c0,1.76,0.44,3.06,1.32,3.92c0.88,0.86,2.08,1.29,3.61,1.29c1.53,0,2.73-0.43,3.61-1.29c0.88-0.86,1.32-2.16,1.32-3.92v-21.11
		c0-1.08,0.25-1.88,0.76-2.41c0.5-0.52,1.37-0.78,2.6-0.78h6.66c1.27,0,2.16,0.25,2.66,0.76c0.5,0.5,0.76,1.32,0.76,2.44v20.94
		c0,3.06-0.77,5.7-2.3,7.92c-1.53,2.22-3.68,3.92-6.44,5.1c-2.76,1.18-5.97,1.76-9.63,1.76
		C263.24,356.2,260.03,355.61,257.27,354.44z"/>
	<path class="st2" d="M289.66,354.58c-0.5-0.52-0.76-1.32-0.76-2.41v-31.7c0-1.08,0.25-1.88,0.76-2.41c0.5-0.52,1.37-0.78,2.6-0.78
		h13.38c5.6,0,9.68,1.11,12.24,3.33c2.56,2.22,3.84,5.57,3.84,10.05c0,2.69-0.46,4.96-1.37,6.8c-0.92,1.85-2.32,3.29-4.23,4.34
		l5.21,11.14c0.15,0.3,0.22,0.64,0.22,1.01c0,0.41-0.14,0.75-0.42,1.01s-0.64,0.39-1.09,0.39h-9.46c-0.6,0-1.07-0.08-1.43-0.25
		c-0.36-0.17-0.61-0.46-0.76-0.87l-4.14-10.42h-1.9v8.34c0,1.08-0.25,1.89-0.76,2.41c-0.5,0.52-1.39,0.78-2.66,0.78h-6.66
		C291.03,355.36,290.16,355.1,289.66,354.58z M304.47,334.47c1.19,0,2.14-0.32,2.83-0.95c0.69-0.63,1.04-1.59,1.04-2.86
		c0-1.31-0.35-2.28-1.04-2.91c-0.69-0.63-1.63-0.95-2.83-0.95h-3.81v7.67H304.47z"/>
	<path class="st2" d="M328.55,351.02c-3.44-3.45-5.15-8.35-5.15-14.7c0-6.35,1.72-11.25,5.15-14.7c3.43-3.45,8.47-5.18,15.12-5.18
		c6.65,0,11.69,1.73,15.12,5.18c3.43,3.45,5.15,8.35,5.15,14.7c0,6.35-1.72,11.25-5.15,14.7c-3.44,3.45-8.48,5.18-15.12,5.18
		C337.03,356.2,331.99,354.48,328.55,351.02z M348.94,344.19c1.08-1.74,1.62-4.36,1.62-7.87c0-3.55-0.54-6.18-1.62-7.9
		c-1.08-1.72-2.84-2.58-5.26-2.58c-2.43,0-4.18,0.86-5.26,2.58c-1.08,1.72-1.62,4.35-1.62,7.9c0,3.51,0.54,6.13,1.62,7.87
		c1.08,1.74,2.84,2.6,5.26,2.6C346.1,346.79,347.85,345.93,348.94,344.19z"/>
	<path class="st2" d="M371.34,355.14c-2.91-0.71-5.26-1.7-7.06-2.97c-0.75-0.52-1.12-1.03-1.12-1.51c0-0.34,0.13-0.69,0.39-1.06
		l3.25-5.1c0.34-0.48,0.67-0.73,1.01-0.73c0.3,0,0.65,0.13,1.06,0.39c1.34,0.82,2.88,1.47,4.62,1.93s3.42,0.7,5.07,0.7
		c1.38,0,2.38-0.19,3-0.56c0.62-0.37,0.92-0.95,0.92-1.74c0-0.86-0.41-1.55-1.23-2.07c-0.82-0.52-2.24-1.18-4.26-1.96
		c-3.77-1.46-6.74-3.11-8.9-4.96c-2.17-1.85-3.25-4.3-3.25-7.36c0-3.88,1.35-6.8,4.06-8.76c2.71-1.96,6.36-2.94,10.95-2.94
		c3.21,0,5.94,0.28,8.2,0.84c2.26,0.56,4.23,1.44,5.91,2.63c0.75,0.52,1.12,1.03,1.12,1.51c0,0.34-0.13,0.69-0.39,1.06l-3.25,5.1
		c-0.34,0.52-0.67,0.78-1.01,0.78c-0.22,0-0.58-0.15-1.06-0.45c-0.9-0.6-1.96-1.09-3.19-1.48c-1.23-0.39-2.56-0.59-3.98-0.59
		c-1.31,0-2.3,0.19-2.97,0.56c-0.67,0.37-1.01,0.97-1.01,1.79c0,0.67,0.23,1.23,0.7,1.68c0.47,0.45,1.05,0.83,1.76,1.15
		c0.71,0.32,1.94,0.83,3.7,1.54c2.8,1.12,5,2.19,6.61,3.22c1.6,1.03,2.82,2.26,3.64,3.7c0.82,1.44,1.23,3.26,1.23,5.46
		c0,3.36-1.26,6.08-3.78,8.15c-2.52,2.07-6.28,3.11-11.28,3.11C377.4,356.2,374.25,355.85,371.34,355.14z"/>
</g>
<g>
	<path class="st3" d="M342.92,270.53c3.42,0,6.22-2.8,6.22-6.23v-72.93c0-3.41-2.8-6.21-6.22-6.21h-5.61h-56.7h-5.6h-58.05h-5.6
		c-2.77,0-5.1,1.84-5.9,4.34l-27.7,11.94l7.35,17.04l-13.22-10.45l-1.51,1.86l-23.63,29.87l38.87,30.75h-27.65V272
		c0,6.19,5.02,11.21,11.22,11.21h32.47l1.69,1.34l1.06-1.34h0.34h34.69h35.56h3.52h29.82h39.08c6.19,0,11.21-5.02,11.21-11.21v-1.48
		H342.92z"/>
	<g>
		<g>
			<g>
				<g>
					<polygon class="st4" points="242.39,250.53 240.16,251.48 211.59,185.2 213.79,184.29 					"/>
					<g>
						
							<rect x="189.34" y="189.79" transform="matrix(0.9183 -0.3959 0.3959 0.9183 -72.3951 100.9441)" class="st5" width="38.1" height="72.17"/>
						<path class="st6" d="M187.06,204.43l20.36-8.77l22.27,51.67l-20.35,8.77L187.06,204.43L187.06,204.43z M180.07,201.67
							l26.48,61.42l30.12-13l-26.48-61.42L180.07,201.67L180.07,201.67z"/>
						<path class="st6" d="M202.14,252.87c5.65-2.43,12.22,0.16,14.65,5.8l-10.24,4.42L202.14,252.87z"/>
						<path class="st6" d="M184.48,211.89c5.65-2.44,8.26-8.99,5.83-14.64l-10.24,4.42L184.48,211.89z"/>
						<path class="st6" d="M232.27,239.88c-5.64,2.43-8.25,8.98-5.81,14.62l10.22-4.41L232.27,239.88z"/>
						<path class="st6" d="M214.61,198.9c-5.65,2.43-12.2-0.18-14.63-5.82l10.22-4.41L214.61,198.9z"/>
						<path class="st6" d="M214.42,239.26c-2.67,1.15-3.91,4.25-2.76,6.92c1.15,2.67,4.26,3.9,6.93,2.75
							c2.67-1.15,3.9-4.25,2.75-6.92C220.19,239.34,217.09,238.12,214.42,239.26z"/>
						<path class="st6" d="M204.48,216.84c-4.99,2.15-7.28,7.94-5.14,12.92c2.15,4.99,7.93,7.29,12.92,5.14
							c4.99-2.15,7.29-7.95,5.14-12.93C215.25,216.98,209.47,214.69,204.48,216.84z"/>
						<path class="st6" d="M199.37,204.36c-2.66,1.15-3.9,4.25-2.75,6.93c1.15,2.67,4.26,3.9,6.92,2.75
							c2.67-1.15,3.9-4.26,2.75-6.92C205.14,204.43,202.04,203.21,199.37,204.36z"/>
						<path class="st7" d="M207.27,230.86c-2.21,0.95-3.52-0.09-4.3-1.77l-1.32,0.57l-0.63-1.47l1.33-0.58
							c-0.4-1.12-0.6-2.02-0.7-2.88l1.98-0.85c0.31,0.97,0.95,2.66,1.27,3.42c0.38,0.9,0.64,1.31,1.51,0.93l0.37-0.15
							c0.66-0.29,0.82-0.69,0.47-1.5l-0.54-1.24c-0.99-2.29,0.68-3.58,1.92-4.11l0.64-0.28c2.63-1.13,3.89,0.18,4.54,1.71l1.28-0.55
							l0.63,1.48l-1.29,0.55c0.51,1.28,0.59,1.77,0.7,2.91l-1.96,0.84c-0.22-0.63-0.77-2.2-1.39-3.63
							c-0.28-0.65-0.66-1.11-1.33-0.82l-0.45,0.19c-0.55,0.24-0.81,0.56-0.49,1.32l0.51,1.19c1.2,2.76-0.98,3.94-1.83,4.31
							L207.27,230.86z"/>
					</g>
				</g>
				<g>
					<polygon class="st8" points="227.35,251.61 225.83,253.5 169.22,208.74 170.73,206.88 					"/>
					<g>
						
							<rect x="166.67" y="209.98" transform="matrix(0.6202 -0.7844 0.7844 0.6202 -122.4882 239.1353)" class="st5" width="38.09" height="72.17"/>
						<path class="st6" d="M156.78,237.3l13.74-17.38l44.13,34.89L200.9,272.2L156.78,237.3L156.78,237.3z M149.31,238.19
							l52.46,41.48l20.35-25.74l-52.46-41.48L149.31,238.19L149.31,238.19z"/>
						<path class="st6" d="M193.04,272.78c3.82-4.83,10.82-5.66,15.64-1.85l-6.91,8.75L193.04,272.78z"/>
						<path class="st6" d="M158.04,245.1c3.82-4.83,3-11.84-1.82-15.66l-6.91,8.75L158.04,245.1z"/>
						<path class="st6" d="M213.39,247.04c-3.82,4.82-3,11.82,1.82,15.63l6.9-8.74L213.39,247.04z"/>
						<path class="st6" d="M178.39,219.36c-3.81,4.83-10.82,5.64-15.64,1.83l6.9-8.73L178.39,219.36z"/>
						<path class="st6" d="M197.38,254.97c-1.8,2.28-1.42,5.6,0.87,7.41c2.29,1.81,5.61,1.41,7.41-0.87
							c1.8-2.28,1.41-5.59-0.87-7.39C202.5,252.3,199.18,252.7,197.38,254.97z"/>
						<path class="st6" d="M177.99,239.96c-3.37,4.26-2.65,10.44,1.61,13.81c4.26,3.37,10.44,2.65,13.81-1.61
							c3.37-4.26,2.65-10.44-1.62-13.81C187.54,234.97,181.36,235.7,177.99,239.96z"/>
						<path class="st6" d="M167.57,231.39c-1.8,2.28-1.42,5.6,0.86,7.4c2.29,1.8,5.61,1.41,7.4-0.86c1.8-2.28,1.41-5.6-0.87-7.4
							C172.68,228.73,169.37,229.12,167.57,231.39z"/>
						<path class="st7" d="M187.1,250.97c-1.49,1.89-3.14,1.59-4.62,0.48l-0.89,1.12l-1.25-0.99l0.91-1.14
							c-0.89-0.79-1.49-1.49-1.98-2.2l1.34-1.7c0.73,0.72,2.1,1.9,2.75,2.41c0.76,0.61,1.19,0.84,1.77,0.12l0.25-0.32
							c0.45-0.56,0.4-0.99-0.3-1.54l-1.06-0.84c-1.96-1.54-1.09-3.46-0.26-4.52l0.42-0.55c1.78-2.24,3.51-1.69,4.82-0.65l0.86-1.09
							l1.25,0.99l-0.87,1.1c1.05,0.88,1.35,1.27,1.99,2.23l-1.32,1.67c-0.49-0.46-1.72-1.57-2.94-2.54
							c-0.55-0.43-1.11-0.66-1.56-0.09l-0.31,0.38c-0.37,0.47-0.45,0.88,0.2,1.39l1.02,0.8c2.36,1.87,1.01,3.94,0.44,4.67
							L187.1,250.97z"/>
					</g>
				</g>
			</g>
			<g>
				<g>
					<g>
						<path class="st9" d="M342.38,263.14c0,3.43-2.81,6.23-6.23,6.23H210.2c-3.43,0-6.22-2.8-6.22-6.23v-72.93
							c0-3.41,2.8-6.21,6.22-6.21h125.95c3.42,0,6.23,2.8,6.23,6.21V263.14z"/>
						<path class="st10" d="M341.76,184h-62.31H215.8c-3.43,0-6.22,2.8-6.22,6.21v72.93c0,3.43,2.8,6.23,6.22,6.23h63.65h62.31
							c3.42,0,6.22-2.8,6.22-6.23v-72.93C347.98,186.8,345.18,184,341.76,184z"/>
						<path class="st11" d="M336.15,184h-62.3H210.2c-3.43,0-6.22,2.8-6.22,6.21v72.93c0,3.43,2.8,6.23,6.22,6.23h63.65h62.3
							c3.42,0,6.23-2.8,6.23-6.23v-72.93C342.38,186.8,339.57,184,336.15,184z"/>
						<path class="st12" d="M333.65,189.55h-59.79h-61.14c-2.05,0-3.73,1.7-3.73,3.74v66.77c0,2.06,1.68,3.73,3.73,3.73h61.14h59.79
							c2.05,0,3.73-1.68,3.73-3.73V193.3C337.38,191.25,335.69,189.55,333.65,189.55z"/>
					</g>
					<g>
						<path class="st10" d="M277.37,269.36v12.69h68.9c6.19,0,11.21-5.02,11.21-11.21v-1.48H277.37z"/>
						<path class="st13" d="M192.39,269.36v1.48c0,6.19,5.02,11.21,11.22,11.21h70.25v-12.69H192.39z"/>
					</g>
					<path class="st14" d="M238.29,269.36h-81.47v1.48c0,6.19,5.02,11.21,11.22,11.21h70.25h68.9c6.19,0,11.22-5.02,11.22-11.21
						v-1.48H238.29z"/>
				</g>
				<g id="_x39_">
					<path class="st15" d="M307.96,235.7l-0.28,0.02l0.57,25.26c3.43-0.08,6.89-0.85,10.19-2.4c1.71-0.8,3.28-1.78,4.71-2.89
						c3.96-3.06,6.83-7.18,8.41-11.75L307.96,235.7z"/>
					<path class="st6" d="M326.31,218.65c-7.27-7.94-19.12-10.61-29.38-5.79c-2.09,0.99-3.98,2.22-5.66,3.66l16.41,19.21l0.16-0.01
						l18.71-16.79C326.46,218.83,326.39,218.74,326.31,218.65z"/>
					<path class="st16" d="M332.86,233.61c-0.24-2.92-1-5.84-2.32-8.64c-1.06-2.26-2.42-4.28-4-6.05l-18.71,16.79l0.12-0.01
						l23.6,8.26C332.69,240.67,333.16,237.15,332.86,233.61z"/>
					<path class="st17" d="M307.68,235.72l-16.41-19.21c-5.81,4.96-9.01,12.28-8.85,19.79c0.08,3.42,0.85,6.88,2.4,10.17
						c4.39,9.33,13.75,14.72,23.43,14.51L307.68,235.72z"/>
				</g>
				<g>
					<path class="st15" d="M228.31,193.55h6.41c2.01,0,4.45,0.49,4.45,4.66c0,4.62-2.64,5-4.45,4.86c-0.79-0.06-2.5-0.33-2.6-0.39
						v5.27h-3.81V193.55z M234.33,199.84c0.75,0,1.01-0.57,1.01-1.57c0-0.98-0.32-1.48-1.01-1.48h-2.2v3.05H234.33z"/>
					<path class="st15" d="M240.52,193.55h3.81v9.95c0,1.04,0.65,1.02,1.22,1.02h4.05v3.42h-5.83c-1.79,0-3.26-0.85-3.26-3.07
						V193.55z"/>
					<path class="st15" d="M254.97,193.55h4.5l4.37,14.4h-3.91l-0.85-2.52h-3.87l-0.83,2.52h-3.91L254.97,193.55z M258.32,202.18
						l-1.04-3.85l-1.2,3.85H258.32z"/>
					<path class="st15" d="M264.84,193.55h3.85l4.11,7.36v-7.36h3.81v14.4h-3.81l-4.13-7.16v7.16h-3.83V193.55z"/>
					<path class="st15" d="M278.16,193.55h3.85l4.11,7.36v-7.36h3.81v14.4h-3.81l-4.13-7.16v7.16h-3.83V193.55z"/>
					<path class="st15" d="M291.47,193.55h3.81v14.4h-3.81V193.55z"/>
					<path class="st15" d="M301.32,193.39c3.13,0,3.32,0,5.98,0.73v2.93c-0.12,0-2.3-0.43-4.8-0.43c-1.83,0-2.15,0.88-2.15,4.09
						c0,3.23,0.12,3.84,1.85,3.84c1.22,0,1.42-0.9,1.42-0.9v-1.48h-0.97v-2.36c0.89-0.47,2.15-0.49,3.44-0.49
						c0.41,0,0.87,0.02,1.34,0.06v8.58h-2.69l-1.08-0.96c-0.55,0.73-0.87,0.96-2.44,1.06c-4.07,0.26-4.68-3.32-4.68-7.38
						C296.54,196.28,297.41,193.39,301.32,193.39z"/>
				</g>
				<rect x="212.8" y="210.99" class="st18" width="65.79" height="48.09"/>
				<g>
					<g>
						<rect x="215.43" y="214.12" class="st17" width="9.85" height="8.66"/>
						<rect x="228.42" y="214.12" class="st19" width="47.54" height="8.66"/>
					</g>
					<g>
						<rect x="215.43" y="225.18" class="st15" width="9.85" height="8.66"/>
						<rect x="228.42" y="225.18" class="st19" width="47.54" height="8.66"/>
					</g>
					<g>
						<rect x="215.43" y="236.23" class="st6" width="9.85" height="8.66"/>
						<rect x="228.42" y="236.23" class="st19" width="47.54" height="8.66"/>
					</g>
					<g>
						<rect x="215.43" y="247.29" class="st16" width="9.85" height="8.66"/>
						<rect x="228.42" y="247.29" class="st19" width="47.54" height="8.66"/>
					</g>
				</g>
			</g>
		</g>
		<g class="st20">
			<polygon class="st2" points="235.28,189.55 208.98,215.86 208.98,237.73 257.15,189.55 			"/>
			<path class="st2" d="M286.61,189.55l-74.22,74.22c0.1,0.01,0.21,0.03,0.31,0.03h39.27l74.25-74.25H286.61z"/>
		</g>
	</g>
</g>
<g>
</g>
<g>
</g>
<g>
</g>
<g>
</g>
<g>
</g>
<g>
</g>
<g>
</g>
<g>
</g>
<g>
</g>
<g>
</g>
<g>
</g>
<g>
</g>
<g>
</g>
<g>
</g>
<g>
</g>
</svg>
