<?xml version="1.0" encoding="utf-8"?>
<!-- Generator: Adobe Illustrator 23.0.0, SVG Export Plug-In . SVG Version: 6.00 Build 0)  -->
<svg version="1.1" id="Capa_1" xmlns="http://www.w3.org/2000/svg" xmlns:xlink="http://www.w3.org/1999/xlink" x="0px" y="0px"
	 viewBox="0 0 522 489" style="enable-background:new 0 0 522 489;" xml:space="preserve">
<style type="text/css">
	.st0{fill:#2F770E;}
	.st1{fill:#41CE24;}
	.st2{fill:#FFFFFF;}
	.st3{fill:#F2F2F2;}
	.st4{fill:#EACCB0;}
	.st5{fill:#9B9B9B;}
	.st6{fill:#939393;}
	.st7{fill:#EFEFEF;}
	.st8{fill:#828282;}
	.st9{fill:#2C2A2D;}
	.st10{fill:#202021;}
	.st11{fill:#F2D4B6;}
	.st12{fill:#534D46;}
</style>
<g>
	<g>
		<circle class="st0" cx="272.5" cy="141.1" r="111.95"/>
		<circle class="st0" cx="161.03" cy="296.15" r="111.95"/>
		<circle class="st0" cx="346.05" cy="336.39" r="111.95"/>
	</g>
</g>
<g>
	<circle class="st1" cx="268.37" cy="265.14" r="161.61"/>
</g>
<g>
	<path class="st2" d="M141.9,328.97c-0.25-0.26-0.38-0.66-0.38-1.2v-15.82c0-0.54,0.13-0.94,0.38-1.2c0.25-0.26,0.68-0.39,1.3-0.39
		h11.57c0.6,0,1,0.13,1.22,0.38c0.21,0.25,0.32,0.66,0.32,1.22v1.56c0,0.56-0.11,0.96-0.32,1.22c-0.21,0.25-0.62,0.38-1.22,0.38
		h-6.54v2.38h4.02c0.6,0,1,0.13,1.22,0.38c0.21,0.25,0.32,0.66,0.32,1.22v1.56c0,0.56-0.11,0.96-0.32,1.22
		c-0.21,0.25-0.62,0.38-1.22,0.38h-4.02v5.53c0,0.54-0.13,0.94-0.38,1.2c-0.25,0.26-0.69,0.39-1.33,0.39h-3.33
		C142.59,329.36,142.15,329.23,141.9,328.97z"/>
	<path class="st2" d="M161.51,328.9c-1.38-0.59-2.45-1.43-3.21-2.54c-0.76-1.11-1.15-2.43-1.15-3.95v-10.45
		c0-0.54,0.13-0.94,0.38-1.2c0.25-0.26,0.69-0.39,1.3-0.39h3.33c0.63,0,1.08,0.13,1.33,0.38c0.25,0.25,0.38,0.66,0.38,1.22v10.54
		c0,0.88,0.22,1.53,0.66,1.96c0.44,0.43,1.04,0.64,1.8,0.64c0.76,0,1.36-0.21,1.8-0.64c0.44-0.43,0.66-1.08,0.66-1.96v-10.54
		c0-0.54,0.13-0.94,0.38-1.2c0.25-0.26,0.68-0.39,1.3-0.39h3.33c0.63,0,1.08,0.13,1.33,0.38c0.25,0.25,0.38,0.66,0.38,1.22v10.45
		c0,1.53-0.38,2.85-1.15,3.95c-0.76,1.11-1.83,1.96-3.21,2.54c-1.38,0.59-2.98,0.88-4.81,0.88S162.88,329.49,161.51,328.9z"/>
	<path class="st2" d="M177.67,328.97c-0.25-0.26-0.38-0.66-0.38-1.2v-15.84c0-0.54,0.13-0.94,0.38-1.19
		c0.25-0.25,0.69-0.38,1.33-0.38h2.65c0.39,0,0.69,0.05,0.91,0.15c0.21,0.1,0.42,0.3,0.63,0.6l5.06,7.52v-6.68
		c0-0.54,0.13-0.94,0.38-1.2c0.25-0.26,0.68-0.39,1.3-0.39h3.33c0.63,0,1.08,0.13,1.33,0.38c0.25,0.25,0.38,0.66,0.38,1.22v15.84
		c0,0.54-0.13,0.94-0.38,1.19c-0.25,0.25-0.69,0.38-1.33,0.38h-2.65c-0.39,0-0.69-0.05-0.91-0.15s-0.42-0.3-0.63-0.6l-5.06-7.52
		v6.71c0,0.54-0.13,0.94-0.38,1.19c-0.25,0.25-0.69,0.38-1.33,0.38h-3.33C178.36,329.36,177.92,329.23,177.67,328.97z"/>
	<path class="st2" d="M199.17,327.28c-1.88-1.67-2.82-4.14-2.82-7.42c0-3.3,0.91-5.78,2.72-7.43c1.82-1.66,4.41-2.49,7.78-2.49
		c1.53,0,2.89,0.15,4.08,0.45c1.19,0.3,2.19,0.72,2.99,1.26c0.22,0.17,0.34,0.35,0.34,0.56c0,0.17-0.08,0.4-0.25,0.7l-1.4,2.4
		c-0.15,0.26-0.33,0.39-0.53,0.39c-0.13,0-0.35-0.07-0.64-0.22c-0.52-0.26-1.07-0.46-1.63-0.61c-0.57-0.15-1.23-0.22-2-0.22
		c-1.55,0-2.73,0.45-3.55,1.34c-0.82,0.89-1.23,2.19-1.23,3.88c0,1.68,0.45,2.97,1.34,3.87c0.89,0.9,2.11,1.36,3.66,1.36
		c1.34,0,2.57-0.28,3.69-0.84c0.3-0.15,0.51-0.22,0.64-0.22c0.2,0,0.38,0.13,0.53,0.39l1.4,2.4c0.17,0.3,0.25,0.53,0.25,0.7
		c0,0.21-0.11,0.39-0.34,0.56c-0.8,0.54-1.81,0.96-3.02,1.26s-2.58,0.45-4.11,0.45C203.69,329.78,201.06,328.95,199.17,327.28z"/>
	<path class="st2" d="M216.32,328.97c-0.25-0.26-0.38-0.66-0.38-1.2v-15.82c0-0.54,0.13-0.94,0.38-1.2c0.25-0.26,0.68-0.39,1.3-0.39
		h3.33c0.63,0,1.08,0.13,1.33,0.38c0.25,0.25,0.38,0.66,0.38,1.22v15.82c0,0.54-0.13,0.94-0.38,1.2c-0.25,0.26-0.69,0.39-1.33,0.39
		h-3.33C217,329.36,216.57,329.23,216.32,328.97z"/>
	<path class="st2" d="M226.62,327.2c-1.71-1.72-2.57-4.17-2.57-7.33s0.86-5.61,2.57-7.33c1.71-1.72,4.23-2.58,7.54-2.58
		c3.32,0,5.83,0.86,7.54,2.58c1.71,1.72,2.57,4.17,2.57,7.33s-0.86,5.61-2.57,7.33c-1.71,1.72-4.23,2.58-7.54,2.58
		C230.84,329.78,228.33,328.92,226.62,327.2z M236.79,323.79c0.54-0.87,0.81-2.17,0.81-3.93c0-1.77-0.27-3.08-0.81-3.94
		c-0.54-0.86-1.42-1.29-2.63-1.29c-1.21,0-2.09,0.43-2.63,1.29c-0.54,0.86-0.81,2.17-0.81,3.94c0,1.75,0.27,3.06,0.81,3.93
		c0.54,0.87,1.42,1.3,2.63,1.3C235.37,325.09,236.25,324.65,236.79,323.79z"/>
	<path class="st2" d="M246.05,328.97c-0.25-0.26-0.38-0.66-0.38-1.2v-15.84c0-0.54,0.13-0.94,0.38-1.19
		c0.25-0.25,0.69-0.38,1.33-0.38h2.65c0.39,0,0.69,0.05,0.91,0.15c0.21,0.1,0.42,0.3,0.63,0.6l5.06,7.52v-6.68
		c0-0.54,0.13-0.94,0.38-1.2c0.25-0.26,0.68-0.39,1.3-0.39h3.33c0.63,0,1.08,0.13,1.33,0.38c0.25,0.25,0.38,0.66,0.38,1.22v15.84
		c0,0.54-0.13,0.94-0.38,1.19c-0.25,0.25-0.69,0.38-1.33,0.38h-2.65c-0.39,0-0.69-0.05-0.91-0.15s-0.42-0.3-0.63-0.6l-5.06-7.52
		v6.71c0,0.54-0.13,0.94-0.38,1.19c-0.25,0.25-0.69,0.38-1.33,0.38h-3.33C246.74,329.36,246.3,329.23,246.05,328.97z"/>
	<path class="st2" d="M264.73,328.78c0-0.17,0.05-0.37,0.14-0.61l6.96-16.74c0.17-0.39,0.36-0.67,0.57-0.82
		c0.21-0.16,0.52-0.24,0.91-0.24h3.05c0.39,0,0.69,0.08,0.91,0.24c0.21,0.16,0.41,0.43,0.57,0.82l6.93,16.74
		c0.09,0.24,0.14,0.45,0.14,0.61c0,0.39-0.21,0.59-0.61,0.59h-5.25c-0.58,0-0.94-0.25-1.09-0.75l-0.67-2.07h-4.95l-0.64,2.07
		c-0.15,0.5-0.51,0.75-1.09,0.75h-5.25C264.94,329.36,264.73,329.17,264.73,328.78z M275.91,322.13l-1.09-3.47l-1.09,3.47H275.91z"
		/>
	<path class="st2" d="M286.68,328.97c-0.25-0.26-0.38-0.66-0.38-1.2v-15.82c0-0.54,0.13-0.94,0.38-1.2c0.25-0.26,0.68-0.39,1.3-0.39
		h3.33c0.63,0,1.08,0.13,1.33,0.38c0.25,0.25,0.38,0.66,0.38,1.22v12.66h6.51c0.6,0,1,0.13,1.22,0.38c0.21,0.25,0.32,0.66,0.32,1.22
		v1.56c0,0.56-0.11,0.96-0.32,1.22c-0.21,0.25-0.62,0.38-1.22,0.38h-11.54C287.37,329.36,286.93,329.23,286.68,328.97z"/>
	<path class="st2" d="M302.27,328.97c-0.25-0.26-0.38-0.66-0.38-1.2v-15.82c0-0.54,0.13-0.94,0.38-1.2c0.25-0.26,0.68-0.39,1.3-0.39
		h3.33c0.63,0,1.08,0.13,1.33,0.38c0.25,0.25,0.38,0.66,0.38,1.22v15.82c0,0.54-0.13,0.94-0.38,1.2c-0.25,0.26-0.69,0.39-1.33,0.39
		h-3.33C302.96,329.36,302.53,329.23,302.27,328.97z"/>
	<path class="st2" d="M310.94,328.97c-0.25-0.26-0.38-0.66-0.38-1.2v-15.82c0-0.54,0.13-0.94,0.38-1.2c0.25-0.26,0.68-0.39,1.3-0.39
		h6.43c6.58,0,9.86,3.17,9.86,9.5c0,3.13-0.84,5.5-2.53,7.1c-1.69,1.6-4.13,2.4-7.33,2.4h-6.43
		C311.62,329.36,311.19,329.23,310.94,328.97z M318.92,324.61c1.04,0,1.79-0.34,2.25-1.03c0.46-0.69,0.68-1.93,0.68-3.72
		s-0.23-3.03-0.68-3.72c-0.46-0.69-1.21-1.03-2.25-1.03h-1.65v9.5H318.92z"/>
	<path class="st2" d="M328.11,328.78c0-0.17,0.05-0.37,0.14-0.61l6.96-16.74c0.17-0.39,0.36-0.67,0.57-0.82
		c0.21-0.16,0.52-0.24,0.91-0.24h3.05c0.39,0,0.69,0.08,0.91,0.24c0.21,0.16,0.41,0.43,0.57,0.82l6.93,16.74
		c0.09,0.24,0.14,0.45,0.14,0.61c0,0.39-0.21,0.59-0.61,0.59h-5.25c-0.58,0-0.94-0.25-1.09-0.75l-0.67-2.07h-4.95l-0.64,2.07
		c-0.15,0.5-0.51,0.75-1.09,0.75h-5.25C328.31,329.36,328.11,329.17,328.11,328.78z M339.29,322.13l-1.09-3.47l-1.09,3.47H339.29z"
		/>
	<path class="st2" d="M350.06,328.97c-0.25-0.26-0.38-0.66-0.38-1.2v-15.82c0-0.54,0.13-0.94,0.38-1.2c0.25-0.26,0.68-0.39,1.3-0.39
		h6.43c6.58,0,9.86,3.17,9.86,9.5c0,3.13-0.84,5.5-2.53,7.1c-1.69,1.6-4.13,2.4-7.33,2.4h-6.43
		C350.74,329.36,350.31,329.23,350.06,328.97z M358.04,324.61c1.04,0,1.79-0.34,2.25-1.03c0.46-0.69,0.68-1.93,0.68-3.72
		s-0.23-3.03-0.68-3.72c-0.46-0.69-1.21-1.03-2.25-1.03h-1.65v9.5H358.04z"/>
	<path class="st2" d="M369.42,328.97c-0.25-0.26-0.38-0.66-0.38-1.2v-15.82c0-0.54,0.13-0.94,0.38-1.2c0.25-0.26,0.68-0.39,1.3-0.39
		h11.57c0.6,0,1,0.13,1.22,0.38c0.21,0.25,0.32,0.66,0.32,1.22v1.56c0,0.56-0.11,0.96-0.32,1.22c-0.21,0.25-0.62,0.38-1.22,0.38
		h-6.54v2.4h4.02c0.6,0,1,0.13,1.22,0.38c0.21,0.25,0.32,0.66,0.32,1.21v1.51c0,0.56-0.11,0.96-0.32,1.21
		c-0.21,0.25-0.62,0.38-1.22,0.38h-4.02v2.4h6.51c0.6,0,1,0.13,1.22,0.38c0.21,0.25,0.32,0.66,0.32,1.22v1.56
		c0,0.56-0.11,0.96-0.32,1.22c-0.21,0.25-0.62,0.38-1.22,0.38h-11.54C370.11,329.36,369.68,329.23,369.42,328.97z"/>
	<path class="st2" d="M388.63,329.25c-1.45-0.35-2.63-0.85-3.52-1.48c-0.37-0.26-0.56-0.51-0.56-0.75c0-0.17,0.06-0.34,0.2-0.53
		l1.62-2.54c0.17-0.24,0.33-0.36,0.5-0.36c0.15,0,0.33,0.07,0.53,0.2c0.67,0.41,1.44,0.73,2.31,0.96c0.87,0.23,1.71,0.35,2.53,0.35
		c0.69,0,1.19-0.09,1.5-0.28c0.31-0.19,0.46-0.48,0.46-0.87c0-0.43-0.21-0.77-0.61-1.03c-0.41-0.26-1.12-0.59-2.12-0.98
		c-1.88-0.73-3.36-1.55-4.44-2.47c-1.08-0.92-1.62-2.15-1.62-3.67c0-1.94,0.67-3.4,2.03-4.37c1.35-0.98,3.17-1.47,5.46-1.47
		c1.6,0,2.97,0.14,4.09,0.42c1.13,0.28,2.11,0.72,2.95,1.31c0.37,0.26,0.56,0.51,0.56,0.75c0,0.17-0.07,0.35-0.2,0.53l-1.62,2.54
		c-0.17,0.26-0.34,0.39-0.5,0.39c-0.11,0-0.29-0.07-0.53-0.22c-0.45-0.3-0.98-0.54-1.59-0.74c-0.61-0.2-1.28-0.29-1.98-0.29
		c-0.65,0-1.15,0.09-1.48,0.28c-0.34,0.19-0.5,0.48-0.5,0.89c0,0.33,0.12,0.61,0.35,0.84c0.23,0.22,0.53,0.42,0.88,0.57
		c0.35,0.16,0.97,0.42,1.84,0.77c1.4,0.56,2.5,1.09,3.3,1.61c0.8,0.51,1.41,1.13,1.82,1.84c0.41,0.72,0.61,1.63,0.61,2.72
		c0,1.68-0.63,3.03-1.89,4.07s-3.13,1.55-5.63,1.55C391.66,329.78,390.09,329.6,388.63,329.25z"/>
	<path class="st2" d="M185.04,362.5c-0.25-0.26-0.38-0.66-0.38-1.2v-15.82c0-0.54,0.13-0.94,0.38-1.2c0.25-0.26,0.68-0.39,1.3-0.39
		h6.68c2.79,0,4.83,0.55,6.11,1.66c1.28,1.11,1.91,2.78,1.91,5.02s-0.64,3.9-1.91,5c-1.28,1.1-3.3,1.65-6.08,1.65h-1.68v4.08
		c0,0.54-0.13,0.94-0.38,1.2c-0.25,0.26-0.69,0.39-1.33,0.39h-3.33C185.72,362.9,185.29,362.77,185.04,362.5z M192.43,352.47
		c0.6,0,1.07-0.16,1.41-0.48c0.34-0.32,0.52-0.79,0.52-1.42c0-0.65-0.17-1.14-0.52-1.45s-0.81-0.48-1.41-0.48h-1.9v3.83H192.43z"/>
	<path class="st2" d="M198.52,362.31c0-0.17,0.05-0.37,0.14-0.61l6.96-16.74c0.17-0.39,0.36-0.67,0.57-0.82
		c0.21-0.16,0.52-0.24,0.91-0.24h3.05c0.39,0,0.69,0.08,0.91,0.24c0.21,0.16,0.41,0.43,0.57,0.82l6.93,16.74
		c0.09,0.24,0.14,0.45,0.14,0.61c0,0.39-0.21,0.59-0.61,0.59h-5.25c-0.58,0-0.94-0.25-1.09-0.75l-0.67-2.07h-4.95l-0.64,2.07
		c-0.15,0.5-0.51,0.75-1.09,0.75h-5.25C198.72,362.9,198.52,362.7,198.52,362.31z M209.7,355.66l-1.09-3.47l-1.09,3.47H209.7z"/>
	<path class="st2" d="M220.47,362.5c-0.25-0.26-0.38-0.66-0.38-1.2v-15.82c0-0.54,0.13-0.94,0.38-1.2c0.25-0.26,0.68-0.39,1.3-0.39
		h6.68c2.79,0,4.83,0.55,6.11,1.66c1.28,1.11,1.91,2.78,1.91,5.02c0,1.34-0.23,2.47-0.68,3.4c-0.46,0.92-1.16,1.64-2.11,2.17
		l2.6,5.56c0.07,0.15,0.11,0.32,0.11,0.5c0,0.21-0.07,0.37-0.21,0.5c-0.14,0.13-0.32,0.2-0.54,0.2h-4.72c-0.3,0-0.54-0.04-0.71-0.13
		c-0.18-0.08-0.3-0.23-0.38-0.43l-2.07-5.2h-0.95v4.16c0,0.54-0.13,0.94-0.38,1.2c-0.25,0.26-0.69,0.39-1.33,0.39h-3.33
		C221.15,362.9,220.72,362.77,220.47,362.5z M227.86,352.47c0.6,0,1.07-0.16,1.41-0.48c0.34-0.32,0.52-0.79,0.52-1.42
		c0-0.65-0.17-1.14-0.52-1.45s-0.81-0.48-1.41-0.48h-1.9v3.83H227.86z"/>
	<path class="st2" d="M236.05,362.31c0-0.17,0.05-0.37,0.14-0.61l6.96-16.74c0.17-0.39,0.36-0.67,0.57-0.82
		c0.21-0.16,0.52-0.24,0.91-0.24h3.05c0.39,0,0.69,0.08,0.91,0.24c0.21,0.16,0.41,0.43,0.57,0.82l6.93,16.74
		c0.09,0.24,0.14,0.45,0.14,0.61c0,0.39-0.21,0.59-0.61,0.59h-5.25c-0.58,0-0.94-0.25-1.09-0.75l-0.67-2.07h-4.95l-0.64,2.07
		c-0.15,0.5-0.51,0.75-1.09,0.75h-5.25C236.25,362.9,236.05,362.7,236.05,362.31z M247.22,355.66l-1.09-3.47l-1.09,3.47H247.22z"/>
	<path class="st2" d="M266.38,362.5c-0.25-0.26-0.38-0.66-0.38-1.2v-15.82c0-0.54,0.13-0.94,0.38-1.2c0.25-0.26,0.68-0.39,1.3-0.39
		h6.68c2.79,0,4.83,0.55,6.11,1.66c1.28,1.11,1.91,2.78,1.91,5.02c0,1.34-0.23,2.47-0.68,3.4c-0.46,0.92-1.16,1.64-2.11,2.17
		l2.6,5.56c0.07,0.15,0.11,0.32,0.11,0.5c0,0.21-0.07,0.37-0.21,0.5c-0.14,0.13-0.32,0.2-0.54,0.2h-4.72c-0.3,0-0.54-0.04-0.71-0.13
		c-0.18-0.08-0.3-0.23-0.38-0.43l-2.07-5.2h-0.95v4.16c0,0.54-0.13,0.94-0.38,1.2c-0.25,0.26-0.69,0.39-1.33,0.39h-3.33
		C267.06,362.9,266.63,362.77,266.38,362.5z M273.77,352.47c0.6,0,1.07-0.16,1.41-0.48c0.34-0.32,0.52-0.79,0.52-1.42
		c0-0.65-0.17-1.14-0.52-1.45s-0.81-0.48-1.41-0.48h-1.9v3.83H273.77z"/>
	<path class="st2" d="M284.15,362.5c-0.25-0.26-0.38-0.66-0.38-1.2v-15.82c0-0.54,0.13-0.94,0.38-1.2c0.25-0.26,0.68-0.39,1.3-0.39
		h11.57c0.6,0,1,0.13,1.22,0.38c0.21,0.25,0.32,0.66,0.32,1.22v1.56c0,0.56-0.11,0.96-0.32,1.22c-0.21,0.25-0.62,0.38-1.22,0.38
		h-6.54v2.4h4.02c0.6,0,1,0.13,1.22,0.38c0.21,0.25,0.32,0.66,0.32,1.21v1.51c0,0.56-0.11,0.96-0.32,1.21
		c-0.21,0.25-0.62,0.38-1.22,0.38h-4.02v2.4h6.51c0.6,0,1,0.13,1.22,0.38c0.21,0.25,0.32,0.66,0.32,1.22v1.56
		c0,0.56-0.11,0.96-0.32,1.22c-0.21,0.25-0.62,0.38-1.22,0.38h-11.54C284.84,362.9,284.4,362.77,284.15,362.5z"/>
	<path class="st2" d="M304.63,362.5c-0.25-0.26-0.38-0.66-0.38-1.2v-12.66h-4.02c-0.6,0-1-0.13-1.22-0.38
		c-0.21-0.25-0.32-0.66-0.32-1.22v-1.56c0-0.56,0.11-0.96,0.32-1.22c0.21-0.25,0.62-0.38,1.22-0.38h14.75c0.6,0,1,0.13,1.22,0.38
		c0.21,0.25,0.32,0.66,0.32,1.22v1.56c0,0.56-0.11,0.96-0.32,1.22c-0.21,0.25-0.62,0.38-1.22,0.38h-4.02v12.66
		c0,0.54-0.13,0.94-0.38,1.2c-0.25,0.26-0.69,0.39-1.33,0.39h-3.33C305.32,362.9,304.89,362.77,304.63,362.5z"/>
	<path class="st2" d="M313.31,362.31c0-0.17,0.05-0.37,0.14-0.61l6.96-16.74c0.17-0.39,0.36-0.67,0.57-0.82
		c0.21-0.16,0.52-0.24,0.91-0.24h3.05c0.39,0,0.69,0.08,0.91,0.24c0.21,0.16,0.41,0.43,0.57,0.82l6.93,16.74
		c0.09,0.24,0.14,0.45,0.14,0.61c0,0.39-0.21,0.59-0.61,0.59h-5.25c-0.58,0-0.94-0.25-1.09-0.75l-0.67-2.07h-4.95l-0.64,2.07
		c-0.15,0.5-0.51,0.75-1.09,0.75h-5.25C313.52,362.9,313.31,362.7,313.31,362.31z M324.49,355.66l-1.09-3.47l-1.09,3.47H324.49z"/>
	<path class="st2" d="M335.26,362.5c-0.25-0.26-0.38-0.66-0.38-1.2v-15.82c0-0.54,0.13-0.94,0.38-1.2c0.25-0.26,0.68-0.39,1.3-0.39
		h3.33c0.63,0,1.08,0.13,1.33,0.38c0.25,0.25,0.38,0.66,0.38,1.22v15.82c0,0.54-0.13,0.94-0.38,1.2c-0.25,0.26-0.69,0.39-1.33,0.39
		h-3.33C335.95,362.9,335.51,362.77,335.26,362.5z"/>
	<path class="st2" d="M343.92,362.5c-0.25-0.26-0.38-0.66-0.38-1.2v-15.82c0-0.54,0.13-0.94,0.38-1.2c0.25-0.26,0.68-0.39,1.3-0.39
		h3.33c0.63,0,1.08,0.13,1.33,0.38c0.25,0.25,0.38,0.66,0.38,1.22v12.66h6.51c0.6,0,1,0.13,1.22,0.38c0.21,0.25,0.32,0.66,0.32,1.22
		v1.56c0,0.56-0.11,0.96-0.32,1.22c-0.21,0.25-0.62,0.38-1.22,0.38h-11.54C344.61,362.9,344.18,362.77,343.92,362.5z"/>
</g>
<circle id="XMLID_8221_" class="st3" cx="268.48" cy="213.22" r="86.78"/>
<g id="XMLID_1_">
	<polygon id="XMLID_68_" class="st4" points="216.28,239.21 216.28,239.21 216.28,239.21 	"/>
	<path id="XMLID_67_" class="st4" d="M218.16,229c6.36-4.88,8.64-8.05,9.61-8.64c-0.35-1.19-0.49-2.33-0.54-3.32
		c-3.12,2.63-4.5,3.53-8.64,3.38c-4.47,0.15-5.72-0.9-9.41-4.03c-0.02-0.02-0.04-0.04-0.06-0.06c-0.02,1.12-0.12,2.54-0.57,4.03
		C209.52,220.94,211.79,224.12,218.16,229z"/>
	<path id="XMLID_66_" class="st5" d="M213.99,253.72c0.24-1.61,0.48-3.17,0.71-4.64v0c0-0.03,0.01-0.05,0.01-0.08
		c0.73-4.74,1.34-8.53,1.57-9.8l0,0c-0.12-0.07-0.21-0.16-0.29-0.26v0c-0.02-0.03-0.06-0.06-0.07-0.1c0,0,0,0,0,0
		c-0.12-0.28-0.25-0.54-0.38-0.79c-0.03-0.05-0.05-0.1-0.08-0.16c-0.68-1.32-1.32-2.3-1.53-3.48c-0.02-0.12-0.04-0.24-0.05-0.36
		c0-0.01,0-0.02-0.01-0.04c-0.5,0.7-0.82,1.4-0.75,2.08c0.26,2.79-8.5-7.5-8.36-11.46c-0.9,0.51-1.96,1-3.13,1.49c0,0,0,0,0,0
		C203.66,232.35,208.91,245.02,213.99,253.72z"/>
	<path id="XMLID_65_" class="st5" d="M184.22,232.07C184.22,232.07,184.22,232.07,184.22,232.07c-0.01,0.01-0.04,0.01-0.06,0.02
		c0.01,0,0.03,0,0.04,0C184.21,232.09,184.21,232.07,184.22,232.07z"/>
	<path id="XMLID_64_" class="st5" d="M223.2,236.1c0.06-0.67-0.25-1.38-0.75-2.07c0,0.01,0,0.02,0,0.03
		c-0.01,0.12-0.03,0.24-0.05,0.36c-0.04,0.24-0.1,0.48-0.18,0.71c0,0,0,0,0,0l0,0c-0.3,0.88-0.81,1.71-1.34,2.76
		c-0.03,0.06-0.06,0.11-0.09,0.17c-0.13,0.25-0.25,0.51-0.38,0.79c-0.02,0.04-0.05,0.07-0.07,0.1v0c-0.07,0.1-0.17,0.19-0.29,0.26
		c0.23,1.26,0.83,4.99,1.55,9.67c0.01,0.07,0.02,0.14,0.03,0.21v0c0.19,1.21,0.38,2.47,0.58,3.77c5.13-8.7,10.26-21.1,12.12-26.82
		c0,0,0,0,0,0c-1.02-0.43-1.95-0.87-2.76-1.31C231.58,228.74,222.94,238.87,223.2,236.1z"/>
	<path id="XMLID_63_" class="st5" d="M251.77,232.11c0.16,0.02,0.32,0.05,0.49,0.09c-0.16-0.07-0.35-0.15-0.57-0.22c0,0,0,0,0.01,0
		C251.74,231.99,251.76,232.04,251.77,232.11z"/>
	<path id="XMLID_62_" class="st6" d="M184.2,232.09c-0.01,0-0.03,0-0.04,0c-0.21,0.02-0.43,0.05-0.66,0.12
		c-2.37,0.63-3.99,6.37-5.45,12.76c3.6,4.28,7.86,7.98,12.64,10.94c-0.04-1.36-0.14-2.6-0.33-3.64
		C189.47,247.37,183.46,232.75,184.2,232.09z"/>
	<path id="XMLID_61_" class="st6" d="M252.34,232.21c-0.02-0.01-0.04-0.01-0.07-0.01c-0.17-0.04-0.33-0.07-0.49-0.09
		c0.3,1.5-5.35,15.42-6.21,20.16c-0.22,1.19-0.31,2.65-0.34,4.24c4.8-2.83,9.11-6.4,12.78-10.55
		C256.41,239.19,254.82,232.87,252.34,232.21z"/>
	<path id="XMLID_47_" class="st7" d="M221.62,251.69h-1.29v-2.93h1.24c0.01,0.04,0.01,0.08,0.02,0.11
		c-0.72-4.68-1.32-8.41-1.55-9.67c-0.03,0.02-0.05,0.04-0.08,0.05c-0.07,0.03-0.14,0.05-0.22,0.07v0.07h-0.67l-0.7,0.04v0.03
		l-0.22-0.01l-0.22,0.01v-0.03l-0.7-0.04h-0.67v-0.07c-0.07-0.02-0.15-0.03-0.22-0.07c-0.03-0.01-0.05-0.04-0.08-0.05l0,0
		c-0.23,1.27-0.84,5.05-1.57,9.8c0.01-0.08,0.02-0.16,0.04-0.24h1.24v2.93h-1.29v-2.6c-0.23,1.47-0.46,3.03-0.71,4.64c0,0,0,0,0,0
		c0.04-0.27,0.08-0.54,0.12-0.8v1c0.2,0.33,0.39,0.66,0.59,0.98v-2.05h1.29v2.93h-0.75c0.45,0.72,0.9,1.39,1.34,2.03v-0.86h1.29
		v2.21c0.19-0.23,0.39-0.47,0.59-0.72v-1.5h1.12c0.27-0.38,0.53-0.77,0.8-1.17h-0.04v-2.93h1.29v0.96c0.19-0.31,0.38-0.64,0.58-0.96
		c-0.2-1.3-0.39-2.57-0.58-3.77V251.69z M220.33,240.9c0.12,0.71,0.26,1.59,0.42,2.59h-0.42V240.9z M220.33,244.66h0.6
		c0.14,0.91,0.3,1.88,0.46,2.93h-1.06V244.66z M217.87,240.57v2.93h-1.29v-2.93H217.87z M215.99,247.59h-1.06
		c0.16-1.04,0.31-2.02,0.46-2.93h0.61V247.59z M215.99,243.49h-0.42c0.16-1,0.3-1.88,0.42-2.6V243.49z M217.87,255.78h-1.29v-2.93
		h1.29V255.78z M217.87,251.69h-1.29v-2.93h1.29V251.69z M217.87,247.59h-1.29v-2.93h1.29V247.59z M219.75,255.78h-1.29v-2.93h1.29
		V255.78z M219.75,251.69h-1.29v-2.93h1.29V251.69z M219.75,247.59h-1.29v-2.93h1.29V247.59z M219.75,243.49h-1.29v-2.93h1.29
		V243.49z"/>
	<path id="XMLID_46_" class="st2" d="M215.54,238.06c0.13,0.25,0.25,0.51,0.38,0.79c0,0,0,0,0,0c0,0,0,0,0,0
		C215.79,238.57,215.66,238.31,215.54,238.06z"/>
	<path id="XMLID_45_" class="st2" d="M213.87,234.02c0,0.01,0,0.02,0.01,0.04C213.87,234.05,213.87,234.03,213.87,234.02
		C213.87,234.02,213.87,234.02,213.87,234.02z"/>
	<path id="XMLID_44_" class="st2" d="M222.39,234.42c-0.05,0.24-0.1,0.48-0.18,0.71C222.29,234.9,222.35,234.66,222.39,234.42z"/>
	<path id="XMLID_43_" class="st2" d="M222.45,234.03C222.45,234.02,222.45,234.02,222.45,234.03c0,0.01,0,0.02,0,0.03
		C222.45,234.05,222.45,234.04,222.45,234.03z"/>
	<path id="XMLID_42_" class="st2" d="M220.78,238.06c-0.13,0.25-0.25,0.51-0.38,0.79C220.53,238.57,220.65,238.31,220.78,238.06z"/>
	<path id="XMLID_38_" class="st2" d="M216.36,239.26c0.07,0.03,0.14,0.05,0.22,0.07v-2.85h1.29v2.93h-0.62l0.7,0.04v0.03l0.22-0.01
		l0.22,0.01v-0.03l0.7-0.04h-0.62v-2.93h1.29v2.85c0.07-0.02,0.15-0.03,0.22-0.07c0.03-0.01,0.05-0.04,0.08-0.05
		c0.12-0.07,0.21-0.16,0.29-0.26v-2.47h1.29c-0.23,0.44-0.49,0.91-0.75,1.42c0.54-1.04,1.05-1.88,1.34-2.76v-1.43
		c-0.18-0.23-0.38-0.45-0.59-0.67v2.27h-1.29v-2.93h0.64c-0.43-0.41-0.87-0.8-1.28-1.17h-1.24v-1.18c-0.12-0.13-0.22-0.25-0.29-0.37
		c-0.08,0.11-0.17,0.23-0.29,0.36v1.18h-1.25c-0.41,0.37-0.85,0.76-1.28,1.17h0.65v2.93h-1.29v-2.27c-0.21,0.22-0.4,0.45-0.59,0.67
		v1.43c-0.08-0.23-0.14-0.47-0.18-0.72c0.21,1.18,0.85,2.16,1.53,3.48c-0.26-0.52-0.52-0.99-0.76-1.43h1.29v2.47
		c0.07,0.1,0.17,0.19,0.29,0.26l0,0C216.3,239.22,216.33,239.25,216.36,239.26z M218.45,232.37h1.29v2.93h-1.29V232.37z
		 M216.57,232.37h1.29v2.93h-1.29V232.37z"/>
	<polygon id="XMLID_37_" points="217.87,236.47 216.57,236.47 216.57,239.33 216.57,239.4 217.24,239.4 217.87,239.4 	"/>
	<rect id="XMLID_36_" x="216.57" y="240.57" width="1.29" height="2.93"/>
	<rect id="XMLID_35_" x="216.57" y="232.37" width="1.29" height="2.93"/>
	<rect id="XMLID_34_" x="216.57" y="244.66" width="1.29" height="2.93"/>
	<path id="XMLID_33_" d="M216.57,256.95v0.86c0.38,0.55,0.76,1.06,1.14,1.54c0.05-0.06,0.1-0.12,0.16-0.18v-2.21H216.57z"/>
	<rect id="XMLID_32_" x="216.57" y="252.86" width="1.29" height="2.93"/>
	<rect id="XMLID_31_" x="216.57" y="248.76" width="1.29" height="2.93"/>
	<path id="XMLID_30_" d="M213.99,253.73c0.04,0.07,0.08,0.14,0.12,0.2v-1C214.07,253.19,214.03,253.46,213.99,253.73z"/>
	<path id="XMLID_29_" d="M214.7,235.3h1.29v-2.93h-0.65c-0.22,0.21-0.44,0.43-0.65,0.66V235.3z"/>
	<path id="XMLID_28_" d="M214.11,233.71c-0.08,0.1-0.16,0.21-0.24,0.31c0,0.01,0,0.03,0,0.04c0.01,0.12,0.03,0.24,0.05,0.36
		c0.05,0.25,0.1,0.48,0.18,0.72V233.71z"/>
	<path id="XMLID_27_" d="M215.99,236.47h-1.29c0.23,0.44,0.49,0.91,0.76,1.43c0.03,0.05,0.05,0.1,0.08,0.16
		c0.13,0.25,0.25,0.51,0.38,0.79c0,0,0,0,0,0c0.02,0.04,0.05,0.07,0.07,0.1v0V236.47z"/>
	<path id="XMLID_26_" d="M215.99,252.86h-1.29v2.05c0.18,0.3,0.36,0.59,0.54,0.87h0.75V252.86z"/>
	<path id="XMLID_25_" d="M215.99,251.69v-2.93h-1.24c-0.01,0.08-0.03,0.16-0.04,0.24c0,0.03-0.01,0.05-0.01,0.08v0v2.6H215.99z"/>
	<path id="XMLID_24_" d="M215.99,243.49v-2.6c-0.12,0.72-0.26,1.6-0.42,2.6H215.99z"/>
	<path id="XMLID_23_" d="M214.93,247.59h1.06v-2.93h-0.61C215.24,245.57,215.09,246.55,214.93,247.59z"/>
	<path id="XMLID_22_" d="M220.33,252.86v2.93h0.04c0.42-0.63,0.83-1.28,1.25-1.97v-0.96H220.33z"/>
	<path id="XMLID_21_" d="M220.33,248.76v2.93h1.29v-2.6v0c-0.01-0.07-0.02-0.14-0.03-0.21c-0.01-0.04-0.01-0.08-0.02-0.11H220.33z"
		/>
	<path id="XMLID_20_" d="M217.87,230.02c-0.31,0.34-0.75,0.74-1.25,1.18h1.25V230.02z"/>
	<path id="XMLID_19_" d="M219.7,231.2c-0.49-0.44-0.93-0.84-1.24-1.18v1.18H219.7z"/>
	<rect id="XMLID_18_" x="218.45" y="244.66" width="1.29" height="2.93"/>
	<rect id="XMLID_17_" x="218.45" y="252.86" width="1.29" height="2.93"/>
	<rect id="XMLID_16_" x="218.45" y="248.76" width="1.29" height="2.93"/>
	<polygon id="XMLID_15_" points="219.75,236.47 218.45,236.47 218.45,239.4 219.08,239.4 219.75,239.4 219.75,239.33 	"/>
	<rect id="XMLID_14_" x="218.45" y="240.57" width="1.29" height="2.93"/>
	<path id="XMLID_13_" d="M218.45,258.45c0.37-0.47,0.74-0.96,1.12-1.5h-1.12V258.45z"/>
	<rect id="XMLID_12_" x="218.45" y="232.37" width="1.29" height="2.93"/>
	<path id="XMLID_11_" d="M220.33,240.9v2.59h0.42C220.59,242.49,220.45,241.62,220.33,240.9z"/>
	<path id="XMLID_10_" d="M220.33,236.47v2.47v0c0.02-0.03,0.06-0.06,0.07-0.1c0.12-0.28,0.25-0.54,0.38-0.79
		c0.03-0.06,0.06-0.11,0.09-0.17c0.26-0.51,0.52-0.98,0.75-1.42H220.33z"/>
	<path id="XMLID_9_" d="M222.21,235.14C222.21,235.14,222.21,235.13,222.21,235.14c0.08-0.24,0.14-0.47,0.18-0.72
		c0.02-0.12,0.04-0.24,0.05-0.36c0-0.01,0-0.03,0-0.04c-0.08-0.11-0.16-0.21-0.24-0.31V235.14L222.21,235.14z"/>
	<path id="XMLID_8_" d="M220.33,235.3h1.29v-2.27c-0.21-0.22-0.43-0.44-0.65-0.66h-0.64V235.3z"/>
	<path id="XMLID_7_" d="M220.94,244.66h-0.6v2.93h1.06C221.23,246.55,221.08,245.57,220.94,244.66z"/>
	<path id="XMLID_6_" class="st8" d="M213.11,236.1c-0.06-0.67,0.26-1.38,0.75-2.08c0,0,0,0,0,0c0.08-0.1,0.16-0.21,0.24-0.31
		c0.18-0.23,0.38-0.45,0.59-0.67c0.21-0.22,0.43-0.44,0.65-0.66c0.43-0.41,0.87-0.8,1.28-1.17c0.49-0.44,0.94-0.84,1.25-1.18
		c0.12-0.13,0.22-0.25,0.29-0.36c0.08,0.11,0.17,0.23,0.29,0.37c0.31,0.34,0.75,0.74,1.24,1.18c0.41,0.37,0.85,0.76,1.28,1.17
		c0.22,0.22,0.44,0.44,0.65,0.66c0.21,0.22,0.4,0.45,0.59,0.67c0.08,0.1,0.16,0.21,0.24,0.31c0,0,0,0,0,0
		c0.5,0.7,0.82,1.4,0.75,2.07c-0.26,2.77,8.38-7.36,8.36-11.38c0-0.1,0-0.2-0.01-0.29c-0.07-0.57-1.72-1.43-3.25-4.01
		c-0.12-0.21-0.29-0.22-0.54-0.07c-0.97,0.59-3.25,3.76-9.61,8.64c-6.37-4.88-8.64-8.05-9.61-8.64c-0.25-0.15-0.41-0.14-0.53,0.07
		c-1.53,2.58-3.18,3.44-3.25,4.01c-0.01,0.06-0.01,0.14-0.01,0.21C204.62,228.6,213.38,238.89,213.11,236.1z"/>
	<path id="XMLID_5_" class="st9" d="M214.72,261.93c0.93-0.47,1.94-1.38,2.99-2.59c-0.37-0.48-0.75-0.99-1.14-1.54
		c-0.44-0.63-0.89-1.31-1.34-2.03c-0.18-0.29-0.36-0.57-0.54-0.87c-0.19-0.32-0.39-0.65-0.59-0.98c-0.04-0.07-0.08-0.14-0.12-0.2
		c0,0,0,0,0,0c-5.08-8.71-10.33-21.38-12.36-27.59c0,0,0,0,0,0c-0.38-0.98-16.46,5.52-17.4,5.93c0,0-0.01,0-0.01,0
		c-0.01,0-0.01,0.02-0.02,0.02c-0.74,0.65,5.27,15.27,6.16,20.17c0.19,1.04,0.29,2.28,0.33,3.64c6.97,4.32,15.03,7.06,23.67,7.72
		C214.45,262.62,214.57,262.01,214.72,261.93z"/>
	<path id="XMLID_4_" class="st10" d="M251.77,232.11c-0.01-0.07-0.03-0.12-0.07-0.13c0,0,0,0-0.01,0
		c-0.92-0.41-17.03-6.93-17.37-5.93c0,0,0,0,0,0c-1.87,5.72-6.99,18.12-12.12,26.82c-0.19,0.33-0.38,0.65-0.58,0.96
		c-0.42,0.69-0.84,1.34-1.25,1.97c-0.27,0.4-0.53,0.8-0.8,1.17c-0.38,0.53-0.75,1.03-1.12,1.5c-0.2,0.25-0.39,0.49-0.59,0.72
		c-0.05,0.06-0.1,0.12-0.16,0.18c-1.05,1.21-2.06,2.12-2.99,2.59c-0.15,0.08-0.27,0.69-0.37,1.69c1.35,0.1,2.72,0.17,4.1,0.17
		c9.77,0,18.92-2.67,26.77-7.3c0.03-1.59,0.13-3.04,0.34-4.24C246.42,247.53,252.08,233.61,251.77,232.11z"/>
	<path id="XMLID_3_" class="st11" d="M218.58,220.42c4.14,0.14,5.52-0.76,8.64-3.38c0.25-0.21,0.5-0.42,0.77-0.65
		c3.87-3.29,1.92-10.15,4.27-9.72c2.31,0.42,4.93-5.84,3.28-7.41c-0.81-0.08-1.47,0.69-2.09,1.73c-0.7,1.17-0.43,2.97-1.12,2.93
		c-0.93-3.16-0.72-5.98-0.54-9.27c-6.48,1.9-13.16,2.89-18.57-1.08c-1.11-0.81-2.18-1.88-3.86-1.85c-1.94,0.03-2.71,1.18-2.44,3.04
		c0.14,0.93,0.2,2.19,0.26,2.75c0.19,1.93-1.02,4.32-1.46,4.77c-0.29,0.3-0.99,1.53-1.41,1.64c-0.35,0.08-0.11-1.94-1.27-3.68
		c-0.91-1.38-1.33-1.07-1.33-1.07c-1.85,1.43,0.84,7.94,3.19,7.51c2.34-0.43,0.43,6.35,4.21,9.66c0.02,0.02,0.04,0.04,0.06,0.06
		C212.87,219.52,214.12,220.58,218.58,220.42z"/>
	<path id="XMLID_2_" class="st12" d="M203.04,200.23c1.15,1.74,0.92,3.76,1.27,3.68c0.42-0.1,1.13-1.34,1.41-1.64
		c0.44-0.46,1.65-2.84,1.46-4.77c-0.05-0.55-0.12-1.81-0.26-2.75c-0.27-1.86,0.51-3.01,2.44-3.04c1.68-0.03,2.75,1.04,3.86,1.85
		c5.4,3.97,12.08,2.98,18.57,1.08c-0.18,3.29-0.39,6.1,0.54,9.27c0.69,0.04,0.42-1.76,1.12-2.93c0.62-1.04,1.28-1.8,2.09-1.73
		c0.1,0.01,0.2,0.03,0.3,0.06c1.93-4.09,2.13-10.76,0.23-14.86c-1.91-4.1-4.95-6.03-7.96-9.45c0.28,0.93-0.98,2.32-2.16,2.42
		c-0.99,0.09-2.63-0.44-3.62-0.56c-4.99-0.6-7.83-0.83-11.92,0.6c-2.1,0.74-4.09,1.78-5.67,3.31c-2.04,1.98-3.73,5.58-4.07,8.36
		c-0.17,1.44-0.35,2.91-0.14,5c0.09,0.9,0.64,4.21,1.17,5.01C201.71,199.16,202.13,198.86,203.04,200.23z"/>
</g>
<g id="XMLID_69_">
	<polygon id="XMLID_136_" class="st4" points="318.28,236.21 318.28,236.21 318.28,236.21 	"/>
	<path id="XMLID_135_" class="st4" d="M320.16,226c6.36-4.88,8.64-8.05,9.61-8.64c-0.35-1.19-0.49-2.33-0.54-3.32
		c-3.12,2.63-4.5,3.53-8.64,3.38c-4.47,0.15-5.72-0.9-9.41-4.03c-0.02-0.02-0.04-0.04-0.06-0.06c-0.02,1.12-0.12,2.54-0.57,4.03
		C311.52,217.94,313.79,221.12,320.16,226z"/>
	<path id="XMLID_134_" class="st5" d="M315.99,250.72c0.24-1.61,0.48-3.17,0.71-4.64v0c0-0.03,0.01-0.05,0.01-0.08
		c0.73-4.74,1.34-8.53,1.57-9.8l0,0c-0.12-0.07-0.21-0.16-0.29-0.26v0c-0.02-0.03-0.06-0.06-0.07-0.1c0,0,0,0,0,0
		c-0.12-0.28-0.25-0.54-0.38-0.79c-0.03-0.05-0.05-0.1-0.08-0.16c-0.68-1.32-1.32-2.3-1.53-3.48c-0.02-0.12-0.04-0.24-0.05-0.36
		c0-0.01,0-0.02-0.01-0.04c-0.5,0.7-0.82,1.4-0.75,2.08c0.26,2.79-8.5-7.5-8.36-11.46c-0.9,0.51-1.96,1-3.13,1.49c0,0,0,0,0,0
		C305.66,229.35,310.91,242.02,315.99,250.72z"/>
	<path id="XMLID_133_" class="st5" d="M286.22,229.07C286.22,229.07,286.22,229.07,286.22,229.07c-0.02,0.01-0.04,0.01-0.06,0.02
		c0.01,0,0.03,0,0.04,0C286.21,229.09,286.21,229.07,286.22,229.07z"/>
	<path id="XMLID_132_" class="st5" d="M325.2,233.1c0.06-0.67-0.25-1.38-0.75-2.07c0,0.01,0,0.02,0,0.03
		c-0.01,0.12-0.03,0.24-0.05,0.36c-0.04,0.24-0.1,0.48-0.18,0.71c0,0,0,0,0,0l0,0c-0.3,0.88-0.81,1.71-1.34,2.76
		c-0.03,0.06-0.06,0.11-0.09,0.17c-0.13,0.25-0.25,0.51-0.38,0.79c-0.02,0.04-0.05,0.07-0.07,0.1v0c-0.07,0.1-0.17,0.19-0.29,0.26
		c0.23,1.26,0.83,4.99,1.55,9.67c0.01,0.07,0.02,0.14,0.03,0.21v0c0.19,1.21,0.38,2.47,0.58,3.77c5.13-8.7,10.26-21.1,12.12-26.82
		c0,0,0,0,0,0c-1.02-0.43-1.95-0.87-2.76-1.31C333.58,225.74,324.94,235.87,325.2,233.1z"/>
	<path id="XMLID_131_" class="st5" d="M353.77,229.11c0.16,0.02,0.32,0.05,0.49,0.09c-0.16-0.07-0.35-0.15-0.57-0.22c0,0,0,0,0.01,0
		C353.74,228.99,353.76,229.04,353.77,229.11z"/>
	<path id="XMLID_130_" class="st6" d="M286.2,229.09c-0.01,0-0.03,0-0.04,0c-0.21,0.02-0.43,0.05-0.66,0.12
		c-2.37,0.63-3.99,6.37-5.45,12.76c3.6,4.28,7.86,7.98,12.64,10.94c-0.04-1.36-0.14-2.6-0.33-3.64
		C291.47,244.37,285.46,229.75,286.2,229.09z"/>
	<path id="XMLID_129_" class="st6" d="M354.34,229.21c-0.02-0.01-0.04-0.01-0.07-0.01c-0.17-0.04-0.33-0.07-0.49-0.09
		c0.3,1.5-5.35,15.42-6.21,20.16c-0.22,1.19-0.31,2.65-0.34,4.24c4.8-2.83,9.11-6.4,12.78-10.55
		C358.41,236.19,356.82,229.87,354.34,229.21z"/>
	<path id="XMLID_115_" class="st7" d="M323.62,248.69h-1.29v-2.93h1.24c0.01,0.04,0.01,0.08,0.02,0.11
		c-0.72-4.68-1.32-8.41-1.55-9.67c-0.03,0.02-0.05,0.04-0.08,0.05c-0.07,0.03-0.14,0.05-0.22,0.07v0.07h-0.67l-0.7,0.04v0.03
		l-0.22-0.01l-0.22,0.01v-0.03l-0.7-0.04h-0.67v-0.07c-0.07-0.02-0.15-0.03-0.22-0.07c-0.03-0.01-0.05-0.04-0.08-0.05l0,0
		c-0.23,1.27-0.84,5.05-1.57,9.8c0.01-0.08,0.02-0.16,0.04-0.24h1.24v2.93h-1.29v-2.6c-0.23,1.47-0.46,3.03-0.71,4.64c0,0,0,0,0,0
		c0.04-0.27,0.08-0.54,0.12-0.8v1c0.2,0.33,0.39,0.66,0.59,0.98v-2.05h1.29v2.93h-0.75c0.45,0.72,0.9,1.39,1.34,2.03v-0.86h1.29
		v2.21c0.19-0.23,0.39-0.47,0.59-0.72v-1.5h1.12c0.27-0.38,0.53-0.77,0.8-1.17h-0.04v-2.93h1.29v0.96c0.19-0.31,0.38-0.64,0.58-0.96
		c-0.2-1.3-0.39-2.57-0.58-3.77V248.69z M322.33,237.9c0.12,0.71,0.26,1.59,0.42,2.59h-0.42V237.9z M322.33,241.66h0.6
		c0.14,0.91,0.3,1.88,0.46,2.93h-1.06V241.66z M319.87,237.57v2.93h-1.29v-2.93H319.87z M317.99,244.59h-1.06
		c0.16-1.04,0.31-2.02,0.46-2.93h0.61V244.59z M317.99,240.49h-0.42c0.16-1,0.3-1.88,0.42-2.6V240.49z M319.87,252.78h-1.29v-2.93
		h1.29V252.78z M319.87,248.69h-1.29v-2.93h1.29V248.69z M319.87,244.59h-1.29v-2.93h1.29V244.59z M321.75,252.78h-1.29v-2.93h1.29
		V252.78z M321.75,248.69h-1.29v-2.93h1.29V248.69z M321.75,244.59h-1.29v-2.93h1.29V244.59z M321.75,240.49h-1.29v-2.93h1.29
		V240.49z"/>
	<path id="XMLID_114_" class="st2" d="M317.54,235.06c0.13,0.25,0.25,0.51,0.38,0.79c0,0,0,0,0,0c0,0,0,0,0,0
		C317.79,235.57,317.66,235.31,317.54,235.06z"/>
	<path id="XMLID_113_" class="st2" d="M315.87,231.02c0,0.01,0,0.02,0.01,0.04C315.87,231.05,315.87,231.03,315.87,231.02
		C315.87,231.02,315.87,231.02,315.87,231.02z"/>
	<path id="XMLID_112_" class="st2" d="M324.39,231.42c-0.05,0.24-0.1,0.48-0.18,0.71C324.29,231.9,324.35,231.66,324.39,231.42z"/>
	<path id="XMLID_111_" class="st2" d="M324.45,231.03C324.45,231.02,324.45,231.02,324.45,231.03c0,0.01,0,0.02,0,0.03
		C324.45,231.05,324.45,231.04,324.45,231.03z"/>
	<path id="XMLID_110_" class="st2" d="M322.78,235.06c-0.13,0.25-0.25,0.51-0.38,0.79C322.53,235.57,322.65,235.31,322.78,235.06z"
		/>
	<path id="XMLID_106_" class="st2" d="M318.36,236.26c0.07,0.03,0.14,0.05,0.22,0.07v-2.85h1.29v2.93h-0.62l0.7,0.04v0.03l0.22-0.01
		l0.22,0.01v-0.03l0.7-0.04h-0.62v-2.93h1.29v2.85c0.07-0.02,0.15-0.03,0.22-0.07c0.03-0.01,0.05-0.04,0.08-0.05
		c0.12-0.07,0.21-0.16,0.29-0.26v-2.47h1.29c-0.23,0.44-0.49,0.91-0.75,1.42c0.54-1.04,1.05-1.88,1.34-2.76v-1.43
		c-0.18-0.23-0.38-0.45-0.59-0.67v2.27h-1.29v-2.93h0.64c-0.43-0.41-0.87-0.8-1.28-1.17h-1.24v-1.18c-0.12-0.13-0.22-0.25-0.29-0.37
		c-0.08,0.11-0.17,0.23-0.29,0.36v1.18h-1.25c-0.41,0.37-0.85,0.76-1.28,1.17h0.65v2.93h-1.29v-2.27c-0.21,0.22-0.4,0.45-0.59,0.67
		v1.43c-0.08-0.23-0.14-0.47-0.18-0.72c0.21,1.18,0.85,2.16,1.53,3.48c-0.26-0.52-0.52-0.99-0.76-1.43h1.29v2.47
		c0.07,0.1,0.17,0.19,0.29,0.26l0,0C318.3,236.22,318.33,236.25,318.36,236.26z M320.45,229.37h1.29v2.93h-1.29V229.37z
		 M318.57,229.37h1.29v2.93h-1.29V229.37z"/>
	<polygon id="XMLID_105_" points="319.87,233.47 318.57,233.47 318.57,236.33 318.57,236.4 319.24,236.4 319.87,236.4 	"/>
	<rect id="XMLID_104_" x="318.57" y="237.57" width="1.29" height="2.93"/>
	<rect id="XMLID_103_" x="318.57" y="229.37" width="1.29" height="2.93"/>
	<rect id="XMLID_102_" x="318.57" y="241.66" width="1.29" height="2.93"/>
	<path id="XMLID_101_" d="M318.57,253.95v0.86c0.38,0.55,0.76,1.06,1.14,1.54c0.05-0.06,0.1-0.12,0.16-0.18v-2.21H318.57z"/>
	<rect id="XMLID_100_" x="318.57" y="249.86" width="1.29" height="2.93"/>
	<rect id="XMLID_99_" x="318.57" y="245.76" width="1.29" height="2.93"/>
	<path id="XMLID_98_" d="M315.99,250.73c0.04,0.07,0.08,0.14,0.12,0.2v-1C316.07,250.19,316.03,250.46,315.99,250.73z"/>
	<path id="XMLID_97_" d="M316.7,232.3h1.29v-2.93h-0.65c-0.22,0.21-0.44,0.43-0.65,0.66V232.3z"/>
	<path id="XMLID_96_" d="M316.11,230.71c-0.08,0.1-0.16,0.21-0.24,0.31c0,0.01,0,0.03,0,0.04c0.01,0.12,0.03,0.24,0.05,0.36
		c0.05,0.25,0.1,0.48,0.18,0.72V230.71z"/>
	<path id="XMLID_95_" d="M317.99,233.47h-1.29c0.23,0.44,0.49,0.91,0.76,1.43c0.03,0.05,0.05,0.1,0.08,0.16
		c0.13,0.25,0.25,0.51,0.38,0.79c0,0,0,0,0,0c0.02,0.04,0.05,0.07,0.07,0.1v0V233.47z"/>
	<path id="XMLID_94_" d="M317.99,249.86h-1.29v2.05c0.18,0.3,0.36,0.59,0.54,0.87h0.75V249.86z"/>
	<path id="XMLID_93_" d="M317.99,248.69v-2.93h-1.24c-0.01,0.08-0.03,0.16-0.04,0.24c0,0.03-0.01,0.05-0.01,0.08v0v2.6H317.99z"/>
	<path id="XMLID_92_" d="M317.99,240.49v-2.6c-0.12,0.72-0.26,1.6-0.42,2.6H317.99z"/>
	<path id="XMLID_91_" d="M316.93,244.59h1.06v-2.93h-0.61C317.24,242.57,317.09,243.55,316.93,244.59z"/>
	<path id="XMLID_90_" d="M322.33,249.86v2.93h0.04c0.42-0.63,0.83-1.28,1.25-1.97v-0.96H322.33z"/>
	<path id="XMLID_89_" d="M322.33,245.76v2.93h1.29v-2.6v0c-0.01-0.07-0.02-0.14-0.03-0.21c-0.01-0.04-0.01-0.08-0.02-0.11H322.33z"
		/>
	<path id="XMLID_88_" d="M319.87,227.02c-0.31,0.34-0.75,0.74-1.25,1.18h1.25V227.02z"/>
	<path id="XMLID_87_" d="M321.7,228.2c-0.49-0.44-0.93-0.84-1.24-1.18v1.18H321.7z"/>
	<rect id="XMLID_86_" x="320.45" y="241.66" width="1.29" height="2.93"/>
	<rect id="XMLID_85_" x="320.45" y="249.86" width="1.29" height="2.93"/>
	<rect id="XMLID_84_" x="320.45" y="245.76" width="1.29" height="2.93"/>
	<polygon id="XMLID_83_" points="321.75,233.47 320.45,233.47 320.45,236.4 321.08,236.4 321.75,236.4 321.75,236.33 	"/>
	<rect id="XMLID_82_" x="320.45" y="237.57" width="1.29" height="2.93"/>
	<path id="XMLID_81_" d="M320.45,255.45c0.37-0.47,0.74-0.96,1.12-1.5h-1.12V255.45z"/>
	<rect id="XMLID_80_" x="320.45" y="229.37" width="1.29" height="2.93"/>
	<path id="XMLID_79_" d="M322.33,237.9v2.59h0.42C322.59,239.49,322.45,238.62,322.33,237.9z"/>
	<path id="XMLID_78_" d="M322.33,233.47v2.47v0c0.02-0.03,0.06-0.06,0.07-0.1c0.12-0.28,0.25-0.54,0.38-0.79
		c0.03-0.06,0.06-0.11,0.09-0.17c0.26-0.51,0.52-0.98,0.75-1.42H322.33z"/>
	<path id="XMLID_77_" d="M324.21,232.14C324.21,232.14,324.21,232.13,324.21,232.14c0.08-0.24,0.14-0.47,0.18-0.72
		c0.02-0.12,0.04-0.24,0.05-0.36c0-0.01,0-0.03,0-0.04c-0.08-0.11-0.16-0.21-0.24-0.31V232.14L324.21,232.14z"/>
	<path id="XMLID_76_" d="M322.33,232.3h1.29v-2.27c-0.21-0.22-0.43-0.44-0.65-0.66h-0.64V232.3z"/>
	<path id="XMLID_75_" d="M322.94,241.66h-0.6v2.93h1.06C323.23,243.55,323.08,242.57,322.94,241.66z"/>
	<path id="XMLID_74_" class="st8" d="M315.11,233.1c-0.06-0.67,0.26-1.38,0.75-2.08c0,0,0,0,0,0c0.08-0.1,0.16-0.21,0.24-0.31
		c0.18-0.23,0.38-0.45,0.59-0.67c0.21-0.22,0.43-0.44,0.65-0.66c0.43-0.41,0.87-0.8,1.28-1.17c0.49-0.44,0.94-0.84,1.25-1.18
		c0.12-0.13,0.22-0.25,0.29-0.36c0.08,0.11,0.17,0.23,0.29,0.37c0.31,0.34,0.75,0.74,1.24,1.18c0.41,0.37,0.85,0.76,1.28,1.17
		c0.22,0.22,0.44,0.44,0.65,0.66c0.21,0.22,0.4,0.45,0.59,0.67c0.08,0.1,0.16,0.21,0.24,0.31c0,0,0,0,0,0
		c0.5,0.7,0.82,1.4,0.75,2.07c-0.26,2.77,8.38-7.36,8.36-11.38c0-0.1,0-0.2-0.01-0.29c-0.07-0.57-1.72-1.43-3.25-4.01
		c-0.12-0.21-0.29-0.22-0.54-0.07c-0.97,0.59-3.25,3.76-9.61,8.64c-6.37-4.88-8.64-8.05-9.61-8.64c-0.25-0.15-0.41-0.14-0.53,0.07
		c-1.53,2.58-3.18,3.44-3.25,4.01c-0.01,0.06-0.01,0.14-0.01,0.21C306.62,225.6,315.38,235.89,315.11,233.1z"/>
	<path id="XMLID_73_" class="st9" d="M316.72,258.93c0.93-0.47,1.94-1.38,2.99-2.59c-0.37-0.48-0.75-0.99-1.14-1.54
		c-0.44-0.63-0.89-1.31-1.34-2.03c-0.18-0.29-0.36-0.57-0.54-0.87c-0.19-0.32-0.39-0.65-0.59-0.98c-0.04-0.07-0.08-0.14-0.12-0.2
		c0,0,0,0,0,0c-5.08-8.71-10.33-21.38-12.36-27.59c0,0,0,0,0,0c-0.38-0.98-16.46,5.52-17.4,5.93c0,0-0.01,0-0.01,0
		c-0.01,0-0.01,0.02-0.02,0.02c-0.74,0.65,5.27,15.27,6.16,20.17c0.19,1.04,0.29,2.28,0.33,3.64c6.97,4.32,15.03,7.06,23.67,7.72
		C316.45,259.62,316.57,259.01,316.72,258.93z"/>
	<path id="XMLID_72_" class="st10" d="M353.77,229.11c-0.01-0.07-0.03-0.12-0.07-0.13c0,0,0,0-0.01,0
		c-0.92-0.41-17.03-6.93-17.37-5.93c0,0,0,0,0,0c-1.87,5.72-6.99,18.12-12.12,26.82c-0.19,0.33-0.38,0.65-0.58,0.96
		c-0.42,0.69-0.84,1.34-1.25,1.97c-0.27,0.4-0.53,0.8-0.8,1.17c-0.38,0.53-0.75,1.03-1.12,1.5c-0.2,0.25-0.39,0.49-0.59,0.72
		c-0.05,0.06-0.1,0.12-0.16,0.18c-1.05,1.21-2.06,2.12-2.99,2.59c-0.15,0.08-0.27,0.69-0.37,1.69c1.35,0.1,2.72,0.17,4.1,0.17
		c9.77,0,18.92-2.67,26.77-7.3c0.03-1.59,0.13-3.04,0.34-4.24C348.42,244.53,354.08,230.61,353.77,229.11z"/>
	<path id="XMLID_71_" class="st11" d="M320.58,217.42c4.14,0.14,5.52-0.76,8.64-3.38c0.25-0.21,0.5-0.42,0.77-0.65
		c3.87-3.29,1.92-10.15,4.27-9.72c2.31,0.42,4.93-5.84,3.28-7.41c-0.81-0.08-1.47,0.69-2.09,1.73c-0.7,1.17-0.43,2.97-1.12,2.93
		c-0.93-3.16-0.72-5.98-0.54-9.27c-6.48,1.9-13.16,2.89-18.57-1.08c-1.11-0.81-2.18-1.88-3.86-1.85c-1.94,0.03-2.71,1.18-2.44,3.04
		c0.14,0.93,0.2,2.19,0.26,2.75c0.19,1.93-1.02,4.32-1.46,4.77c-0.29,0.3-0.99,1.53-1.41,1.64c-0.35,0.08-0.11-1.94-1.27-3.68
		c-0.91-1.38-1.33-1.07-1.33-1.07c-1.85,1.43,0.84,7.94,3.19,7.51c2.34-0.43,0.43,6.35,4.21,9.66c0.02,0.02,0.04,0.04,0.06,0.06
		C314.87,216.52,316.12,217.58,320.58,217.42z"/>
	<path id="XMLID_70_" class="st12" d="M305.04,197.23c1.15,1.74,0.92,3.76,1.27,3.68c0.42-0.1,1.13-1.34,1.41-1.64
		c0.44-0.46,1.65-2.84,1.46-4.77c-0.05-0.55-0.12-1.81-0.26-2.75c-0.27-1.86,0.51-3.01,2.44-3.04c1.68-0.03,2.75,1.04,3.86,1.85
		c5.4,3.97,12.08,2.98,18.57,1.08c-0.18,3.29-0.39,6.1,0.54,9.27c0.69,0.04,0.42-1.76,1.12-2.93c0.62-1.04,1.28-1.8,2.09-1.73
		c0.1,0.01,0.2,0.03,0.3,0.06c1.93-4.09,2.13-10.76,0.23-14.86c-1.91-4.1-4.95-6.03-7.96-9.45c0.28,0.93-0.98,2.32-2.16,2.42
		c-0.99,0.09-2.63-0.44-3.62-0.56c-4.99-0.6-7.83-0.83-11.92,0.6c-2.1,0.74-4.09,1.78-5.67,3.31c-2.04,1.98-3.73,5.58-4.07,8.36
		c-0.17,1.44-0.35,2.91-0.14,5c0.09,0.9,0.64,4.21,1.17,5.01C303.71,196.16,304.13,195.86,305.04,197.23z"/>
</g>
<g id="XMLID_8003_">
	<polygon id="XMLID_8070_" class="st4" points="264.9,259.56 264.9,259.57 264.9,259.56 	"/>
	<path id="XMLID_8069_" class="st4" d="M268,242.78c10.46-8.02,14.2-13.23,15.79-14.2c-0.58-1.96-0.81-3.84-0.89-5.46
		c-5.13,4.32-7.4,5.8-14.2,5.56c-7.34,0.25-9.4-1.48-15.46-6.63c-0.04-0.03-0.06-0.07-0.1-0.1c-0.03,1.85-0.2,4.18-0.93,6.62
		C253.79,229.54,257.53,234.75,268,242.78z"/>
	<path id="XMLID_8068_" class="st5" d="M261.14,283.43c0.4-2.64,0.79-5.21,1.16-7.63v0c0.01-0.05,0.01-0.09,0.02-0.13
		c1.2-7.79,2.2-14.02,2.58-16.1l0,0c-0.19-0.11-0.35-0.26-0.47-0.43v0.01c-0.04-0.05-0.09-0.1-0.12-0.16c0,0,0,0,0,0
		c-0.21-0.46-0.41-0.89-0.62-1.3c-0.04-0.09-0.09-0.17-0.13-0.26c-1.12-2.17-2.16-3.79-2.52-5.73c-0.04-0.19-0.07-0.39-0.09-0.59
		c0-0.02-0.01-0.04-0.01-0.06c-0.82,1.14-1.34,2.31-1.24,3.41c0.43,4.59-13.97-12.33-13.74-18.84c-1.47,0.84-3.22,1.64-5.15,2.45
		c0,0,0.01,0,0.01,0C244.16,248.28,252.79,269.12,261.14,283.43z"/>
	<path id="XMLID_8067_" class="st5" d="M212.19,247.83c0,0,0.01,0,0.01-0.01c-0.04,0.01-0.07,0.03-0.11,0.04c0.02,0,0.04,0,0.06,0
		C212.17,247.86,212.18,247.83,212.19,247.83z"/>
	<path id="XMLID_8066_" class="st5" d="M276.29,254.45c0.1-1.11-0.42-2.27-1.24-3.41c0,0.02-0.01,0.04-0.01,0.06
		c-0.02,0.2-0.05,0.4-0.09,0.59c-0.07,0.4-0.17,0.79-0.3,1.17c0,0,0,0,0,0.01l0,0c-0.49,1.45-1.33,2.82-2.21,4.53
		c-0.05,0.09-0.09,0.18-0.14,0.27c-0.21,0.41-0.41,0.84-0.62,1.29c-0.03,0.06-0.08,0.11-0.12,0.17v-0.01
		c-0.12,0.17-0.28,0.32-0.47,0.43c0.38,2.07,1.36,8.2,2.55,15.9c0.02,0.11,0.04,0.23,0.05,0.34v0c0.3,1.98,0.62,4.06,0.95,6.2
		c8.44-14.31,16.86-34.69,19.93-44.1c0,0,0,0,0,0c-1.68-0.71-3.21-1.42-4.54-2.16C290.07,242.35,275.86,259.01,276.29,254.45z"/>
	<path id="XMLID_8065_" class="st5" d="M323.26,247.89c0.26,0.03,0.53,0.08,0.81,0.15c-0.27-0.12-0.58-0.24-0.94-0.37
		c0,0,0.01,0,0.01,0C323.21,247.7,323.24,247.78,323.26,247.89z"/>
	<path id="XMLID_8064_" class="st6" d="M212.16,247.87c-0.02,0-0.04,0-0.06,0c-0.34,0.03-0.7,0.09-1.08,0.19
		c-3.89,1.04-6.56,10.47-8.97,20.98c5.92,7.04,12.93,13.12,20.78,17.98c-0.07-2.23-0.23-4.27-0.54-5.98
		C220.83,272.98,210.94,248.94,212.16,247.87z"/>
	<path id="XMLID_8063_" class="st6" d="M324.19,248.06c-0.04-0.01-0.07-0.01-0.11-0.02c-0.28-0.07-0.55-0.12-0.81-0.15
		c0.5,2.47-8.8,25.36-10.21,33.15c-0.36,1.96-0.51,4.35-0.56,6.97c7.89-4.65,14.98-10.52,21.01-17.34
		C330.89,259.54,328.28,249.15,324.19,248.06z"/>
	<path id="XMLID_8049_" class="st7" d="M273.69,280.08h-2.13v-4.81h2.04c0.01,0.06,0.02,0.13,0.03,0.19
		c-1.19-7.7-2.17-13.83-2.55-15.9c-0.05,0.03-0.08,0.06-0.13,0.09c-0.11,0.06-0.23,0.08-0.36,0.11v0.12h-1.1l-1.14,0.07V260
		l-0.36-0.02l-0.36,0.02v-0.05l-1.14-0.07h-1.1v-0.12c-0.12-0.03-0.25-0.05-0.36-0.11c-0.05-0.02-0.09-0.06-0.13-0.09l0,0
		c-0.38,2.09-1.38,8.31-2.58,16.1c0.02-0.13,0.04-0.26,0.06-0.4h2.05v4.81h-2.13v-4.28c-0.37,2.42-0.76,4.99-1.16,7.63c0,0,0,0,0,0
		c0.07-0.44,0.13-0.88,0.2-1.32v1.65c0.32,0.55,0.64,1.09,0.96,1.61v-3.38h2.13v4.81h-1.24c0.74,1.18,1.48,2.29,2.2,3.33v-1.41h2.13
		v3.64c0.32-0.37,0.64-0.77,0.96-1.18v-2.46h1.84c0.44-0.62,0.88-1.26,1.32-1.92h-0.07v-4.81h2.13v1.58
		c0.32-0.52,0.63-1.05,0.95-1.58c-0.32-2.14-0.64-4.22-0.95-6.2V280.08z M271.57,262.35c0.19,1.18,0.43,2.62,0.69,4.26h-0.69V262.35
		z M271.57,268.54h0.99c0.24,1.49,0.49,3.1,0.75,4.81h-1.75V268.54z M267.52,261.8v4.81h-2.13v-4.81H267.52z M264.43,273.35h-1.75
		c0.27-1.72,0.52-3.32,0.75-4.81h1V273.35z M264.43,266.61h-0.69c0.26-1.65,0.5-3.1,0.69-4.27V266.61z M267.52,286.82h-2.13v-4.81
		h2.13V286.82z M267.52,280.08h-2.13v-4.81h2.13V280.08z M267.52,273.35h-2.13v-4.81h2.13V273.35z M270.6,286.82h-2.13v-4.81h2.13
		V286.82z M270.6,280.08h-2.13v-4.81h2.13V280.08z M270.6,273.35h-2.13v-4.81h2.13V273.35z M270.6,266.61h-2.13v-4.81h2.13V266.61z"
		/>
	<path id="XMLID_8048_" class="st2" d="M263.69,257.67c0.21,0.41,0.42,0.84,0.62,1.3c0,0,0,0,0,0c0,0,0,0,0,0
		C264.1,258.51,263.89,258.09,263.69,257.67z"/>
	<path id="XMLID_8047_" class="st2" d="M260.94,251.04c0,0.02,0.01,0.04,0.01,0.06C260.95,251.08,260.95,251.06,260.94,251.04
		C260.94,251.04,260.94,251.04,260.94,251.04z"/>
	<path id="XMLID_8046_" class="st2" d="M274.96,251.69c-0.08,0.4-0.17,0.79-0.3,1.17C274.78,252.49,274.88,252.09,274.96,251.69z"/>
	<path id="XMLID_8045_" class="st2" d="M275.05,251.04C275.05,251.04,275.05,251.04,275.05,251.04c-0.01,0.02-0.01,0.04-0.01,0.06
		C275.05,251.08,275.05,251.06,275.05,251.04z"/>
	<path id="XMLID_8044_" class="st2" d="M272.31,257.68c-0.21,0.41-0.41,0.83-0.62,1.29C271.89,258.51,272.1,258.09,272.31,257.68z"
		/>
	<path id="XMLID_8040_" class="st2" d="M265.03,259.65c0.11,0.06,0.24,0.08,0.36,0.11v-4.69h2.13v4.81h-1.03l1.14,0.07V260
		l0.36-0.02l0.36,0.02v-0.05l1.14-0.07h-1.02v-4.81h2.13v4.69c0.12-0.03,0.25-0.05,0.36-0.11c0.05-0.02,0.09-0.06,0.13-0.09
		c0.19-0.11,0.35-0.26,0.47-0.43v-4.07h2.12c-0.38,0.73-0.81,1.49-1.24,2.34c0.88-1.71,1.72-3.08,2.21-4.53v-2.35
		c-0.3-0.37-0.62-0.74-0.96-1.11v3.73h-2.13v-4.81h1.06c-0.71-0.68-1.43-1.32-2.1-1.92h-2.05v-1.94c-0.2-0.22-0.36-0.42-0.48-0.6
		c-0.12,0.18-0.28,0.38-0.48,0.6v1.94h-2.05c-0.67,0.6-1.39,1.25-2.1,1.92h1.06v4.81h-2.13v-3.73c-0.34,0.37-0.66,0.73-0.96,1.11
		v2.35c-0.13-0.38-0.23-0.78-0.3-1.18c0.35,1.94,1.4,3.55,2.52,5.73c-0.43-0.85-0.86-1.62-1.24-2.35h2.12v4.07
		c0.12,0.17,0.28,0.32,0.47,0.43l0,0C264.95,259.59,264.99,259.63,265.03,259.65z M268.48,248.33h2.13v4.81h-2.13V248.33z
		 M265.39,248.33h2.13v4.81h-2.13V248.33z"/>
	<polygon id="XMLID_8039_" points="267.52,255.06 265.39,255.06 265.39,259.76 265.39,259.88 266.49,259.88 267.52,259.88 	"/>
	<rect id="XMLID_8038_" x="265.39" y="261.8" width="2.13" height="4.81"/>
	<rect id="XMLID_8037_" x="265.39" y="248.33" width="2.13" height="4.81"/>
	<rect id="XMLID_8036_" x="265.39" y="268.54" width="2.13" height="4.81"/>
	<path id="XMLID_8035_" d="M265.39,288.74v1.41c0.63,0.91,1.26,1.74,1.87,2.53c0.09-0.1,0.17-0.19,0.26-0.29v-3.64H265.39z"/>
	<rect id="XMLID_8034_" x="265.39" y="282.01" width="2.13" height="4.81"/>
	<rect id="XMLID_8033_" x="265.39" y="275.27" width="2.13" height="4.81"/>
	<path id="XMLID_8032_" d="M261.14,283.43c0.07,0.11,0.13,0.22,0.2,0.34v-1.65C261.27,282.55,261.21,283,261.14,283.43z"/>
	<path id="XMLID_8031_" d="M262.3,253.14h2.13v-4.81h-1.06c-0.37,0.35-0.72,0.71-1.07,1.08V253.14z"/>
	<path id="XMLID_8030_" d="M261.34,250.52c-0.14,0.17-0.27,0.34-0.39,0.52c0,0.02,0,0.04,0.01,0.07c0.02,0.2,0.05,0.4,0.09,0.59
		c0.08,0.4,0.17,0.8,0.3,1.18V250.52z"/>
	<path id="XMLID_8029_" d="M264.43,255.06h-2.12c0.38,0.73,0.81,1.5,1.24,2.35c0.04,0.09,0.09,0.17,0.13,0.26
		c0.21,0.41,0.41,0.84,0.62,1.3c0,0,0,0,0,0c0.03,0.06,0.08,0.11,0.12,0.16v-0.01V255.06z"/>
	<path id="XMLID_8028_" d="M264.43,282.01h-2.13v3.38c0.3,0.49,0.59,0.96,0.89,1.43h1.24V282.01z"/>
	<path id="XMLID_8027_" d="M264.43,280.08v-4.81h-2.05c-0.02,0.13-0.04,0.27-0.06,0.4c-0.01,0.04-0.01,0.09-0.02,0.13v0v4.28H264.43
		z"/>
	<path id="XMLID_8026_" d="M264.43,266.61v-4.27c-0.19,1.18-0.43,2.63-0.69,4.27H264.43z"/>
	<path id="XMLID_8025_" d="M262.68,273.35h1.75v-4.81h-1C263.2,270.03,262.95,271.63,262.68,273.35z"/>
	<path id="XMLID_8024_" d="M271.57,282.01v4.81h0.07c0.68-1.03,1.37-2.1,2.06-3.23v-1.58H271.57z"/>
	<path id="XMLID_8023_" d="M271.57,275.27v4.81h2.13v-4.28v0c-0.02-0.12-0.04-0.23-0.05-0.34c-0.01-0.06-0.02-0.13-0.03-0.19H271.57
		z"/>
	<path id="XMLID_8022_" d="M267.52,244.46c-0.51,0.56-1.24,1.21-2.05,1.94h2.05V244.46z"/>
	<path id="XMLID_8021_" d="M270.52,246.4c-0.81-0.72-1.53-1.38-2.05-1.94v1.94H270.52z"/>
	<rect id="XMLID_8020_" x="268.48" y="268.54" width="2.13" height="4.81"/>
	<rect id="XMLID_8019_" x="268.48" y="282.01" width="2.13" height="4.81"/>
	<rect id="XMLID_8018_" x="268.48" y="275.27" width="2.13" height="4.81"/>
	<polygon id="XMLID_8017_" points="270.6,255.06 268.48,255.06 268.48,259.88 269.5,259.88 270.6,259.88 270.6,259.76 	"/>
	<rect id="XMLID_8016_" x="268.48" y="261.8" width="2.13" height="4.81"/>
	<path id="XMLID_8015_" d="M268.48,291.2c0.61-0.77,1.22-1.59,1.84-2.46h-1.84V291.2z"/>
	<rect id="XMLID_8014_" x="268.48" y="248.33" width="2.13" height="4.81"/>
	<path id="XMLID_8013_" d="M271.57,262.35v4.26h0.69C271.99,264.97,271.76,263.52,271.57,262.35z"/>
	<path id="XMLID_8012_" d="M271.57,255.06v4.07v0.01c0.04-0.06,0.09-0.1,0.12-0.17c0.2-0.46,0.41-0.88,0.62-1.29
		c0.05-0.09,0.09-0.18,0.14-0.27c0.43-0.85,0.86-1.61,1.24-2.34H271.57z"/>
	<path id="XMLID_8011_" d="M274.65,252.87C274.66,252.87,274.66,252.87,274.65,252.87c0.13-0.39,0.23-0.78,0.3-1.18
		c0.04-0.19,0.07-0.39,0.09-0.59c0-0.02,0-0.04,0.01-0.06c-0.12-0.17-0.26-0.35-0.39-0.52V252.87L274.65,252.87z"/>
	<path id="XMLID_8010_" d="M271.57,253.14h2.13v-3.73c-0.34-0.37-0.7-0.73-1.07-1.08h-1.06V253.14z"/>
	<path id="XMLID_8009_" d="M272.56,268.54h-0.99v4.81h1.75C273.05,271.63,272.8,270.03,272.56,268.54z"/>
	<path id="XMLID_8008_" class="st8" d="M259.7,254.45c-0.1-1.11,0.42-2.27,1.24-3.41c0,0,0,0,0-0.01c0.12-0.17,0.26-0.34,0.39-0.52
		c0.3-0.37,0.62-0.74,0.96-1.11c0.34-0.37,0.7-0.73,1.07-1.08c0.71-0.68,1.43-1.32,2.1-1.92c0.81-0.73,1.54-1.38,2.05-1.94
		c0.2-0.22,0.35-0.41,0.48-0.6c0.13,0.19,0.28,0.39,0.48,0.6c0.51,0.56,1.23,1.21,2.05,1.94c0.67,0.6,1.39,1.25,2.1,1.92
		c0.37,0.35,0.72,0.72,1.07,1.08c0.34,0.37,0.66,0.74,0.96,1.11c0.14,0.17,0.27,0.34,0.39,0.52c0,0,0,0,0,0.01
		c0.82,1.14,1.34,2.3,1.24,3.41c-0.43,4.56,13.78-12.1,13.75-18.7c0-0.16,0-0.32-0.02-0.47c-0.11-0.93-2.83-2.34-5.34-6.59
		c-0.2-0.34-0.47-0.36-0.88-0.11c-1.59,0.97-5.34,6.18-15.79,14.2c-10.47-8.03-14.21-13.24-15.8-14.2
		c-0.41-0.25-0.68-0.23-0.88,0.11c-2.51,4.25-5.23,5.66-5.34,6.59c-0.01,0.11-0.01,0.23-0.01,0.34
		C245.73,242.12,260.14,259.05,259.7,254.45z"/>
	<path id="XMLID_8007_" class="st9" d="M262.35,296.93c1.53-0.78,3.19-2.26,4.92-4.25c-0.61-0.78-1.24-1.62-1.87-2.53
		c-0.72-1.04-1.46-2.15-2.2-3.33c-0.3-0.47-0.59-0.94-0.89-1.43c-0.32-0.53-0.64-1.07-0.96-1.61c-0.07-0.11-0.13-0.22-0.2-0.34
		c0,0,0,0,0,0c-8.35-14.32-16.99-35.15-20.32-45.36c0,0-0.01,0-0.01-0.01c-0.63-1.61-27.06,9.07-28.61,9.76c0,0-0.01,0-0.01,0.01
		c-0.01,0.01-0.02,0.03-0.03,0.04c-1.22,1.08,8.67,25.11,10.12,33.17c0.31,1.71,0.47,3.75,0.54,5.98
		c11.47,7.11,24.71,11.61,38.92,12.7C261.9,298.07,262.1,297.06,262.35,296.93z"/>
	<path id="XMLID_8006_" class="st10" d="M323.26,247.89c-0.02-0.11-0.06-0.19-0.12-0.22c0,0-0.01,0-0.01,0
		c-1.51-0.67-28-11.4-28.56-9.76c0,0,0,0,0,0c-3.07,9.41-11.49,29.79-19.93,44.1c-0.32,0.53-0.63,1.06-0.95,1.58
		c-0.69,1.13-1.38,2.2-2.06,3.23c-0.44,0.66-0.88,1.31-1.32,1.92c-0.62,0.88-1.23,1.69-1.84,2.46c-0.32,0.41-0.64,0.8-0.96,1.18
		c-0.09,0.1-0.17,0.19-0.26,0.29c-1.73,1.99-3.39,3.48-4.92,4.25c-0.25,0.13-0.45,1.14-0.61,2.78c2.23,0.17,4.47,0.29,6.74,0.29
		c16.07,0,31.11-4.38,44.01-12c0.05-2.62,0.21-5.01,0.56-6.97C314.47,273.24,323.76,250.36,323.26,247.89z"/>
	<path id="XMLID_8005_" class="st11" d="M268.69,228.68c6.81,0.23,9.07-1.24,14.2-5.56c0.4-0.34,0.82-0.69,1.26-1.07
		c6.37-5.41,3.16-16.69,7.03-15.99c3.8,0.69,8.11-9.6,5.39-12.19c-1.32-0.13-2.41,1.13-3.43,2.84c-1.14,1.92-0.7,4.89-1.84,4.82
		c-1.53-5.2-1.19-9.84-0.89-15.24c-10.66,3.13-21.64,4.75-30.53-1.77c-1.82-1.34-3.58-3.09-6.34-3.05c-3.19,0.05-4.46,1.94-4.02,5
		c0.22,1.53,0.33,3.6,0.42,4.51c0.31,3.18-1.67,7.1-2.4,7.85c-0.47,0.49-1.63,2.52-2.33,2.69c-0.57,0.14-0.18-3.18-2.08-6.05
		c-1.5-2.26-2.19-1.76-2.19-1.76c-3.04,2.35,1.38,13.05,5.25,12.34c3.85-0.7,0.7,10.45,6.93,15.89c0.04,0.03,0.06,0.07,0.1,0.1
		C259.29,227.2,261.35,228.94,268.69,228.68z"/>
	<path id="XMLID_8004_" class="st12" d="M243.14,195.48c1.9,2.87,1.51,6.19,2.08,6.05c0.69-0.17,1.85-2.2,2.33-2.69
		c0.73-0.75,2.71-4.67,2.4-7.85c-0.09-0.91-0.2-2.98-0.42-4.51c-0.45-3.06,0.83-4.95,4.02-5c2.76-0.05,4.52,1.71,6.34,3.05
		c8.88,6.52,19.86,4.9,30.53,1.77c-0.3,5.4-0.64,10.04,0.89,15.24c1.14,0.07,0.69-2.9,1.84-4.82c1.02-1.71,2.11-2.97,3.43-2.84
		c0.16,0.02,0.33,0.04,0.5,0.1c3.17-6.73,3.51-17.69,0.38-24.44c-3.13-6.75-8.13-9.91-13.09-15.54c0.46,1.53-1.61,3.81-3.55,3.99
		c-1.62,0.15-4.32-0.73-5.95-0.92c-8.2-0.99-12.88-1.36-19.59,0.99c-3.46,1.21-6.72,2.92-9.32,5.45c-3.35,3.26-6.13,9.17-6.69,13.75
		c-0.28,2.37-0.58,4.78-0.24,8.23c0.15,1.47,1.04,6.91,1.92,8.24C240.95,193.72,241.65,193.22,243.14,195.48z"/>
</g>
<g>
</g>
<g>
</g>
<g>
</g>
<g>
</g>
<g>
</g>
<g>
</g>
<g>
</g>
<g>
</g>
<g>
</g>
<g>
</g>
<g>
</g>
<g>
</g>
<g>
</g>
<g>
</g>
<g>
</g>
</svg>
