<?xml version="1.0" encoding="utf-8"?>
<!-- Generator: Adobe Illustrator 23.0.0, SVG Export Plug-In . SVG Version: 6.00 Build 0)  -->
<svg version="1.1" id="Capa_1" xmlns="http://www.w3.org/2000/svg" xmlns:xlink="http://www.w3.org/1999/xlink" x="0px" y="0px"
	 viewBox="0 0 522 489" style="enable-background:new 0 0 522 489;" xml:space="preserve">
<style type="text/css">
	.st0{fill:#002E44;}
	.st1{fill:#0085B0;}
	.st2{fill:#FFFFFF;}
	.st3{fill:#F2F2F2;}
	.st4{fill:none;}
	.st5{fill:#7A5F56;}
	.st6{fill:#76A2CF;}
	.st7{fill:#866A5E;}
	.st8{fill:#3A3A3A;}
	.st9{fill:#3A63AD;}
	.st10{fill:#3C66BC;}
	.st11{fill:#C3DFF7;}
	.st12{fill:#F5F5F5;}
	.st13{fill:#E2E2E2;}
	.st14{fill:#EDEDED;}
	.st15{fill:#E0E0E0;}
	.st16{fill:#A3A3A3;}
	.st17{fill:#E5E5E5;}
</style>
<g>
	<g>
		<circle class="st0" cx="272.5" cy="141.1" r="111.95"/>
		<circle class="st0" cx="161.03" cy="296.15" r="111.95"/>
		<circle class="st0" cx="346.05" cy="336.39" r="111.95"/>
	</g>
</g>
<g>
	<circle class="st1" cx="268.37" cy="265.14" r="161.61"/>
</g>
<g>
	<path class="st2" d="M148.26,312.98c-0.24-0.25-0.36-0.64-0.36-1.16v-15.28c0-0.52,0.12-0.91,0.36-1.16
		c0.24-0.25,0.66-0.38,1.26-0.38h11.18c0.58,0,0.97,0.12,1.17,0.37c0.21,0.24,0.31,0.63,0.31,1.17v1.51c0,0.54-0.1,0.93-0.31,1.17
		c-0.21,0.24-0.6,0.37-1.17,0.37h-6.32v2.29h3.89c0.58,0,0.97,0.12,1.17,0.36s0.31,0.63,0.31,1.17v1.51c0,0.54-0.1,0.93-0.31,1.17
		c-0.21,0.24-0.6,0.36-1.17,0.36h-3.89v5.35c0,0.52-0.12,0.91-0.36,1.16s-0.67,0.38-1.28,0.38h-3.21
		C148.92,313.36,148.51,313.24,148.26,312.98z"/>
	<path class="st2" d="M167.2,312.92c-1.33-0.57-2.37-1.39-3.1-2.46c-0.74-1.07-1.11-2.34-1.11-3.82v-10.1
		c0-0.52,0.12-0.91,0.36-1.16c0.24-0.25,0.66-0.38,1.26-0.38h3.21c0.61,0,1.04,0.12,1.28,0.37c0.24,0.24,0.36,0.63,0.36,1.17v10.18
		c0,0.85,0.21,1.48,0.63,1.89s1,0.62,1.74,0.62c0.74,0,1.32-0.21,1.74-0.62c0.42-0.41,0.63-1.04,0.63-1.89v-10.18
		c0-0.52,0.12-0.91,0.36-1.16c0.24-0.25,0.66-0.38,1.26-0.38h3.21c0.61,0,1.04,0.12,1.28,0.37c0.24,0.24,0.36,0.63,0.36,1.17v10.1
		c0,1.48-0.37,2.75-1.11,3.82c-0.74,1.07-1.77,1.89-3.1,2.46c-1.33,0.57-2.88,0.85-4.64,0.85
		C170.08,313.77,168.54,313.48,167.2,312.92z"/>
	<path class="st2" d="M182.82,312.98c-0.24-0.25-0.36-0.64-0.36-1.16v-15.31c0-0.52,0.12-0.91,0.36-1.15
		c0.24-0.24,0.67-0.37,1.28-0.37h2.57c0.38,0,0.67,0.05,0.88,0.15c0.21,0.1,0.41,0.29,0.61,0.58l4.89,7.26v-6.45
		c0-0.52,0.12-0.91,0.36-1.16c0.24-0.25,0.66-0.38,1.26-0.38h3.21c0.61,0,1.04,0.12,1.28,0.37c0.24,0.24,0.36,0.63,0.36,1.17v15.31
		c0,0.52-0.12,0.9-0.36,1.15s-0.67,0.36-1.28,0.36h-2.56c-0.38,0-0.67-0.05-0.88-0.15c-0.21-0.1-0.41-0.29-0.61-0.58l-4.89-7.26
		v6.48c0,0.52-0.12,0.9-0.36,1.15s-0.67,0.36-1.28,0.36h-3.21C183.48,313.36,183.07,313.24,182.82,312.98z"/>
	<path class="st2" d="M203.6,311.35c-1.82-1.61-2.73-4-2.73-7.17c0-3.19,0.88-5.58,2.63-7.18c1.75-1.6,4.26-2.4,7.52-2.4
		c1.48,0,2.79,0.14,3.94,0.43c1.15,0.29,2.11,0.69,2.89,1.21c0.22,0.16,0.32,0.34,0.32,0.54c0,0.16-0.08,0.39-0.24,0.67l-1.35,2.32
		c-0.14,0.25-0.32,0.38-0.51,0.38c-0.13,0-0.33-0.07-0.62-0.22c-0.5-0.25-1.03-0.45-1.58-0.59c-0.55-0.14-1.19-0.22-1.93-0.22
		c-1.49,0-2.64,0.43-3.43,1.3c-0.79,0.86-1.19,2.12-1.19,3.75c0,1.62,0.43,2.87,1.3,3.74c0.86,0.87,2.04,1.31,3.54,1.31
		c1.3,0,2.48-0.27,3.56-0.81c0.29-0.14,0.5-0.22,0.62-0.22c0.2,0,0.37,0.13,0.51,0.38l1.35,2.32c0.16,0.29,0.24,0.51,0.24,0.67
		c0,0.2-0.11,0.38-0.32,0.54c-0.77,0.52-1.75,0.93-2.92,1.21c-1.17,0.29-2.49,0.43-3.97,0.43
		C207.96,313.77,205.42,312.96,203.6,311.35z"/>
	<path class="st2" d="M220.16,312.98c-0.24-0.25-0.36-0.64-0.36-1.16v-15.28c0-0.52,0.12-0.91,0.36-1.16
		c0.24-0.25,0.66-0.38,1.26-0.38h3.21c0.61,0,1.04,0.12,1.28,0.37c0.24,0.24,0.36,0.63,0.36,1.17v15.28c0,0.52-0.12,0.91-0.36,1.16
		s-0.67,0.38-1.28,0.38h-3.21C220.82,313.36,220.41,313.24,220.16,312.98z"/>
	<path class="st2" d="M230.11,311.27c-1.66-1.66-2.48-4.03-2.48-7.09c0-3.06,0.83-5.42,2.48-7.09c1.66-1.67,4.09-2.5,7.29-2.5
		c3.2,0,5.63,0.83,7.29,2.5c1.66,1.67,2.48,4.03,2.48,7.09c0,3.06-0.83,5.42-2.48,7.09c-1.66,1.67-4.09,2.5-7.29,2.5
		C234.2,313.77,231.77,312.93,230.11,311.27z M239.94,307.98c0.52-0.84,0.78-2.1,0.78-3.79c0-1.71-0.26-2.98-0.78-3.81
		c-0.52-0.83-1.37-1.24-2.54-1.24c-1.17,0-2.02,0.41-2.54,1.24c-0.52,0.83-0.78,2.1-0.78,3.81c0,1.69,0.26,2.96,0.78,3.79
		c0.52,0.84,1.37,1.26,2.54,1.26C238.57,309.23,239.42,308.81,239.94,307.98z"/>
	<path class="st2" d="M248.89,312.98c-0.24-0.25-0.36-0.64-0.36-1.16v-15.31c0-0.52,0.12-0.91,0.36-1.15
		c0.24-0.24,0.67-0.37,1.28-0.37h2.57c0.38,0,0.67,0.05,0.88,0.15c0.21,0.1,0.41,0.29,0.61,0.58l4.89,7.26v-6.45
		c0-0.52,0.12-0.91,0.36-1.16c0.24-0.25,0.66-0.38,1.26-0.38h3.21c0.61,0,1.04,0.12,1.28,0.37c0.24,0.24,0.36,0.63,0.36,1.17v15.31
		c0,0.52-0.12,0.9-0.36,1.15s-0.67,0.36-1.28,0.36h-2.56c-0.38,0-0.67-0.05-0.88-0.15c-0.21-0.1-0.41-0.29-0.61-0.58l-4.89-7.26
		v6.48c0,0.52-0.12,0.9-0.36,1.15s-0.67,0.36-1.28,0.36h-3.21C249.55,313.36,249.13,313.24,248.89,312.98z"/>
	<path class="st2" d="M266.94,312.79c0-0.16,0.04-0.36,0.14-0.59l6.72-16.17c0.16-0.38,0.35-0.64,0.55-0.8
		c0.21-0.15,0.5-0.23,0.88-0.23h2.94c0.38,0,0.67,0.08,0.88,0.23c0.21,0.15,0.39,0.42,0.55,0.8l6.7,16.17
		c0.09,0.23,0.13,0.43,0.13,0.59c0,0.38-0.2,0.57-0.59,0.57h-5.08c-0.56,0-0.91-0.24-1.05-0.73l-0.65-2h-4.78l-0.62,2
		c-0.14,0.49-0.5,0.73-1.05,0.73h-5.08C267.14,313.36,266.94,313.17,266.94,312.79z M277.74,306.37l-1.05-3.35l-1.05,3.35H277.74z"
		/>
	<path class="st2" d="M288.15,312.98c-0.24-0.25-0.36-0.64-0.36-1.16v-15.28c0-0.52,0.12-0.91,0.36-1.16
		c0.24-0.25,0.66-0.38,1.26-0.38h3.21c0.61,0,1.04,0.12,1.28,0.37c0.24,0.24,0.36,0.63,0.36,1.17v12.23h6.29
		c0.58,0,0.97,0.12,1.17,0.36c0.21,0.24,0.31,0.63,0.31,1.17v1.51c0,0.54-0.1,0.93-0.31,1.17c-0.21,0.24-0.6,0.36-1.17,0.36H289.4
		C288.81,313.36,288.39,313.24,288.15,312.98z"/>
	<path class="st2" d="M303.21,312.98c-0.24-0.25-0.36-0.64-0.36-1.16v-15.28c0-0.52,0.12-0.91,0.36-1.16
		c0.24-0.25,0.66-0.38,1.26-0.38h3.21c0.61,0,1.04,0.12,1.28,0.37c0.24,0.24,0.36,0.63,0.36,1.17v15.28c0,0.52-0.12,0.91-0.36,1.16
		s-0.67,0.38-1.28,0.38h-3.21C303.88,313.36,303.46,313.24,303.21,312.98z"/>
	<path class="st2" d="M311.58,312.98c-0.24-0.25-0.36-0.64-0.36-1.16v-15.28c0-0.52,0.12-0.91,0.36-1.16
		c0.24-0.25,0.66-0.38,1.26-0.38h6.21c6.35,0,9.53,3.06,9.53,9.18c0,3.02-0.81,5.31-2.44,6.86c-1.63,1.55-3.99,2.32-7.09,2.32h-6.21
		C312.25,313.36,311.83,313.24,311.58,312.98z M319.29,308.77c1.01,0,1.73-0.33,2.17-1c0.44-0.67,0.66-1.86,0.66-3.59
		c0-1.73-0.22-2.92-0.66-3.59c-0.44-0.67-1.17-1-2.17-1h-1.59v9.18H319.29z"/>
	<path class="st2" d="M328.18,312.79c0-0.16,0.04-0.36,0.14-0.59l6.72-16.17c0.16-0.38,0.35-0.64,0.55-0.8
		c0.21-0.15,0.5-0.23,0.88-0.23h2.94c0.38,0,0.67,0.08,0.88,0.23c0.21,0.15,0.39,0.42,0.55,0.8l6.7,16.17
		c0.09,0.23,0.13,0.43,0.13,0.59c0,0.38-0.2,0.57-0.59,0.57H342c-0.56,0-0.91-0.24-1.05-0.73l-0.65-2h-4.78l-0.62,2
		c-0.14,0.49-0.5,0.73-1.05,0.73h-5.08C328.37,313.36,328.18,313.17,328.18,312.79z M338.98,306.37l-1.05-3.35l-1.05,3.35H338.98z"
		/>
	<path class="st2" d="M349.38,312.98c-0.24-0.25-0.36-0.64-0.36-1.16v-15.28c0-0.52,0.12-0.91,0.36-1.16
		c0.24-0.25,0.66-0.38,1.26-0.38h6.21c6.35,0,9.53,3.06,9.53,9.18c0,3.02-0.81,5.31-2.44,6.86c-1.63,1.55-3.99,2.32-7.09,2.32h-6.21
		C350.05,313.36,349.63,313.24,349.38,312.98z M357.09,308.77c1.01,0,1.73-0.33,2.17-1c0.44-0.67,0.66-1.86,0.66-3.59
		c0-1.73-0.22-2.92-0.66-3.59c-0.44-0.67-1.17-1-2.17-1h-1.59v9.18H357.09z"/>
	<path class="st2" d="M368.1,312.98c-0.24-0.25-0.36-0.64-0.36-1.16v-15.28c0-0.52,0.12-0.91,0.36-1.16
		c0.24-0.25,0.66-0.38,1.26-0.38h11.18c0.58,0,0.97,0.12,1.17,0.37c0.21,0.24,0.31,0.63,0.31,1.17v1.51c0,0.54-0.1,0.93-0.31,1.17
		c-0.21,0.24-0.6,0.37-1.17,0.37h-6.32v2.32h3.89c0.58,0,0.97,0.12,1.17,0.36c0.21,0.24,0.31,0.63,0.31,1.17v1.46
		c0,0.54-0.1,0.93-0.31,1.17s-0.6,0.36-1.17,0.36h-3.89v2.32h6.29c0.58,0,0.97,0.12,1.17,0.36c0.21,0.24,0.31,0.63,0.31,1.17v1.51
		c0,0.54-0.1,0.93-0.31,1.17c-0.21,0.24-0.6,0.36-1.17,0.36h-11.15C368.76,313.36,368.34,313.24,368.1,312.98z"/>
	<path class="st2" d="M386.66,313.25c-1.4-0.34-2.54-0.82-3.4-1.43c-0.36-0.25-0.54-0.5-0.54-0.73c0-0.16,0.06-0.33,0.19-0.51
		l1.57-2.46c0.16-0.23,0.32-0.35,0.49-0.35c0.14,0,0.31,0.06,0.51,0.19c0.65,0.4,1.39,0.71,2.23,0.93c0.84,0.23,1.65,0.34,2.44,0.34
		c0.67,0,1.15-0.09,1.44-0.27c0.3-0.18,0.45-0.46,0.45-0.84c0-0.41-0.2-0.75-0.59-1c-0.4-0.25-1.08-0.57-2.05-0.94
		c-1.82-0.7-3.25-1.5-4.29-2.39c-1.04-0.89-1.57-2.07-1.57-3.55c0-1.87,0.65-3.28,1.96-4.23c1.3-0.95,3.06-1.42,5.28-1.42
		c1.55,0,2.87,0.13,3.96,0.4c1.09,0.27,2.04,0.69,2.85,1.27c0.36,0.25,0.54,0.5,0.54,0.73c0,0.16-0.06,0.33-0.19,0.51l-1.57,2.46
		c-0.16,0.25-0.32,0.38-0.49,0.38c-0.11,0-0.28-0.07-0.51-0.22c-0.43-0.29-0.94-0.53-1.54-0.71c-0.59-0.19-1.23-0.28-1.92-0.28
		c-0.63,0-1.11,0.09-1.43,0.27c-0.32,0.18-0.49,0.47-0.49,0.86c0,0.32,0.11,0.59,0.34,0.81c0.22,0.22,0.51,0.4,0.85,0.55
		c0.34,0.15,0.94,0.4,1.78,0.74c1.35,0.54,2.41,1.06,3.19,1.55c0.77,0.5,1.36,1.09,1.75,1.78s0.59,1.57,0.59,2.63
		c0,1.62-0.61,2.93-1.82,3.93s-3.03,1.5-5.44,1.5C389.58,313.77,388.06,313.6,386.66,313.25z"/>
</g>
<g>
	<path class="st2" d="M187.88,355.14c-2.91-0.71-5.26-1.7-7.06-2.97c-0.75-0.52-1.12-1.03-1.12-1.51c0-0.34,0.13-0.69,0.39-1.06
		l3.25-5.1c0.34-0.48,0.67-0.73,1.01-0.73c0.3,0,0.65,0.13,1.06,0.39c1.34,0.82,2.88,1.47,4.62,1.93s3.42,0.7,5.07,0.7
		c1.38,0,2.38-0.19,3-0.56c0.62-0.37,0.92-0.95,0.92-1.74c0-0.86-0.41-1.55-1.23-2.07c-0.82-0.52-2.24-1.18-4.26-1.96
		c-3.77-1.46-6.74-3.11-8.9-4.96c-2.17-1.85-3.25-4.3-3.25-7.36c0-3.88,1.35-6.8,4.06-8.76c2.71-1.96,6.36-2.94,10.95-2.94
		c3.21,0,5.94,0.28,8.2,0.84c2.26,0.56,4.23,1.44,5.91,2.63c0.75,0.52,1.12,1.03,1.12,1.51c0,0.34-0.13,0.69-0.39,1.06l-3.25,5.1
		c-0.34,0.52-0.67,0.78-1.01,0.78c-0.22,0-0.58-0.15-1.06-0.45c-0.9-0.6-1.96-1.09-3.19-1.48c-1.23-0.39-2.56-0.59-3.98-0.59
		c-1.31,0-2.3,0.19-2.97,0.56c-0.67,0.37-1.01,0.97-1.01,1.79c0,0.67,0.23,1.23,0.7,1.68c0.47,0.45,1.05,0.83,1.76,1.15
		c0.71,0.32,1.94,0.83,3.7,1.54c2.8,1.12,5,2.19,6.61,3.22c1.6,1.03,2.82,2.26,3.64,3.7c0.82,1.44,1.23,3.26,1.23,5.46
		c0,3.36-1.26,6.08-3.78,8.15c-2.52,2.07-6.28,3.11-11.28,3.11C193.95,356.2,190.79,355.85,187.88,355.14z"/>
	<path class="st2" d="M211.57,354.19c0-0.34,0.09-0.75,0.28-1.23l13.94-33.54c0.34-0.78,0.72-1.33,1.15-1.65
		c0.43-0.32,1.04-0.48,1.82-0.48h6.1c0.78,0,1.39,0.16,1.82,0.48c0.43,0.32,0.81,0.87,1.15,1.65l13.89,33.54
		c0.19,0.49,0.28,0.9,0.28,1.23c0,0.78-0.41,1.18-1.23,1.18h-10.53c-1.16,0-1.89-0.5-2.18-1.51l-1.34-4.14h-9.91l-1.29,4.14
		c-0.3,1.01-1.03,1.51-2.18,1.51H212.8C211.98,355.36,211.57,354.97,211.57,354.19z M233.97,340.86l-2.18-6.94l-2.18,6.94H233.97z"
		/>
	<path class="st2" d="M255.56,354.58c-0.5-0.52-0.76-1.32-0.76-2.41v-31.7c0-1.08,0.25-1.88,0.76-2.41c0.5-0.52,1.37-0.78,2.6-0.78
		h6.66c1.27,0,2.16,0.25,2.66,0.76s0.76,1.32,0.76,2.44v25.37h13.05c1.19,0,2.01,0.25,2.44,0.76s0.64,1.32,0.64,2.44v3.14
		c0,1.12-0.21,1.93-0.64,2.44s-1.24,0.76-2.44,0.76h-23.13C256.93,355.36,256.06,355.1,255.56,354.58z"/>
	<path class="st2" d="M292.55,354.44c-2.76-1.18-4.91-2.88-6.44-5.1c-1.53-2.22-2.3-4.86-2.3-7.92v-20.94
		c0-1.08,0.25-1.88,0.76-2.41c0.5-0.52,1.37-0.78,2.6-0.78h6.66c1.27,0,2.16,0.25,2.66,0.76c0.5,0.5,0.76,1.32,0.76,2.44v21.11
		c0,1.76,0.44,3.06,1.32,3.92c0.88,0.86,2.08,1.29,3.61,1.29c1.53,0,2.73-0.43,3.61-1.29c0.88-0.86,1.32-2.16,1.32-3.92v-21.11
		c0-1.08,0.25-1.88,0.76-2.41c0.5-0.52,1.37-0.78,2.6-0.78h6.66c1.27,0,2.16,0.25,2.66,0.76c0.5,0.5,0.76,1.32,0.76,2.44v20.94
		c0,3.06-0.77,5.7-2.3,7.92c-1.53,2.22-3.68,3.92-6.44,5.1c-2.76,1.18-5.97,1.76-9.63,1.76
		C298.52,356.2,295.31,355.61,292.55,354.44z"/>
	<path class="st2" d="M324.94,354.58c-0.5-0.52-0.76-1.32-0.76-2.41v-31.7c0-1.08,0.25-1.88,0.76-2.41c0.5-0.52,1.37-0.78,2.6-0.78
		h12.88c13.18,0,19.77,6.35,19.77,19.04c0,6.27-1.69,11.01-5.07,14.22c-3.38,3.21-8.28,4.82-14.7,4.82h-12.88
		C326.31,355.36,325.45,355.1,324.94,354.58z M340.93,345.84c2.09,0,3.59-0.69,4.51-2.07c0.91-1.38,1.37-3.86,1.37-7.45
		s-0.46-6.07-1.37-7.45c-0.92-1.38-2.42-2.07-4.51-2.07h-3.3v19.04H340.93z"/>
</g>
<circle id="XMLID_8267_" class="st3" cx="267.81" cy="217.6" r="67.25"/>
<g id="XMLID_8187_">
	<path id="XMLID_8217_" class="st4" d="M248.93,202.23c-0.05-0.03-0.1-0.05-0.15-0.07C248.84,202.19,248.89,202.21,248.93,202.23z"
		/>
	<path id="XMLID_8216_" class="st4" d="M283.71,231.17c-0.2-0.21-0.36-0.38-0.51-0.53C283.38,230.83,283.55,231.01,283.71,231.17z"
		/>
	<path id="XMLID_8215_" class="st4" d="M249.55,233.76c0-0.01,0-0.01,0-0.02C249.55,233.75,249.54,233.76,249.55,233.76
		C249.54,233.76,249.55,233.76,249.55,233.76z"/>
	<path id="XMLID_8214_" class="st5" d="M267.32,239.11c0.06,0.05,0.1,0.11,0.12,0.17c0.02-0.06,0.06-0.12,0.12-0.17
		c8.57-6.56,11.56-10.8,12.82-11.5c-0.41-0.99-0.68-1.98-0.87-2.92c-0.31,0.3-0.63,0.59-0.95,0.88c-1.01,0.89-2.09,1.7-3.25,2.38
		c-0.99,0.58-2.04,1.06-3.13,1.41c-0.99,0.32-2.02,0.53-3.05,0.63c-1.29,0.13-2.61,0.09-3.89-0.11c-1.05-0.17-2.08-0.45-3.07-0.84
		c-1.11-0.44-2.16-1.01-3.16-1.67c-1.16-0.78-2.24-1.68-3.25-2.65c-0.2,1-0.5,2.05-0.95,3.1
		C256.24,228.96,259.4,233.04,267.32,239.11z"/>
	<path id="XMLID_8213_" class="st6" d="M249.53,233.81c-0.17,0.7-1.08,2.91,2.88,8.52c2.23,3.16,7.6,11.51,11.34,18.93
		c0.78-5.01,1.41-8.95,1.66-10.33c-0.18-0.11-0.35-0.25-0.43-0.42c-1.11-2.5-2.36-3.9-2.42-6.01c-1.19,1.29-2.1,2.66-1.98,3.94
		c0.34,3.59-10.58-9.15-11.03-14.68c0,0-0.01,0-0.01,0C249.54,233.78,249.53,233.8,249.53,233.81z"/>
	<path id="XMLID_8212_" class="st6" d="M244.02,236.44c-0.17,0.11-0.33,0.22-0.49,0.33c0.13-0.04,0.24-0.08,0.36-0.12
		C243.93,236.58,243.97,236.51,244.02,236.44z"/>
	<path id="XMLID_8211_" class="st6" d="M269.83,250.93c0.25,1.36,0.87,5.19,1.62,10.09c3.56-7.34,8.58-15.52,10.73-18.68
		c2.72-4.01,3.02-6.31,2.97-7.52c-1.52,5.92-11.17,17-10.85,13.63c0.11-1.16-0.62-2.39-1.65-3.57c-0.19,1.91-1.35,3.29-2.4,5.64
		C270.18,250.68,270.01,250.82,269.83,250.93z"/>
	<path id="XMLID_8210_" class="st7" d="M262.18,229.04c0.99,0.39,2.02,0.67,3.07,0.84c1.28,0.2,2.6,0.24,3.89,0.11
		c1.04-0.11,2.06-0.31,3.05-0.63c1.09-0.35,2.14-0.83,3.13-1.41c1.16-0.68,2.24-1.49,3.25-2.38c0.32-0.28,0.64-0.58,0.95-0.88
		c0,0,0,0,0,0c4.34-4.19,4.3-14.77,5.35-14.02c2.39,1.61,3.93-3.18,4.23-6.02c0.25-2.36-0.6-3.56-1.58-3.22
		c-0.21,1.02-1.78,0.61-2.41,1.64c-0.63,1.03-0.36-3.64-1.26-4.96c-0.9-1.32-1.39-3.65-3.28-4c-1.89-0.35-15.71,1.18-24.1-3.28
		c-2.92-1.55-3.4,3.85-5.02,6.23c-1.62,2.38-0.45,6.79-1.44,5.9c-0.36-0.32-0.73-0.54-1.07-0.71c-0.05-0.02-0.1-0.04-0.15-0.07
		c-0.49-0.24-0.9-0.42-1.1-0.75c-0.95-0.26-1.77,0.93-1.52,3.24c0.3,2.84,1.83,7.63,4.23,6.02c1.05-0.75,1.01,9.83,5.35,14.02
		c0.01,0.01,0.03,0.02,0.04,0.04c1.01,0.97,2.09,1.87,3.25,2.65C260.01,228.03,261.07,228.6,262.18,229.04z"/>
	<path id="XMLID_8209_" class="st8" d="M248.78,202.15c0.05,0.02,0.1,0.05,0.15,0.07c0.34,0.17,0.7,0.39,1.07,0.71
		c0.99,0.88-0.18-3.53,1.44-5.9c1.62-2.38,2.1-7.78,5.02-6.23c8.39,4.46,22.21,2.93,24.1,3.28c1.89,0.35,2.38,2.68,3.28,4
		c0.9,1.32,0.63,5.99,1.26,4.96c0.62-1.02,2.2-0.62,2.41-1.64c0-0.01,0.01-0.02,0.01-0.03c0.18-1.06,4.6-11.06-1.43-20.75
		c-6.03-9.69-17.63-10.55-24.26-8.99c-8.56,2-9.49,5.91-9.94,6.35c-0.45,0.44-2.28,0.96-3.63,2.9c-4.23,6.96-0.79,20.12-0.6,20.47
		c0.01,0.01,0.02,0.02,0.02,0.03C247.88,201.73,248.29,201.91,248.78,202.15z"/>
	<path id="XMLID_8208_" class="st9" d="M269.74,250.99c-0.21,0.11-0.47,0.12-0.71,0.14l-1.15,0.07v0.03l-0.26-0.02l-0.26,0.02v-0.03
		l-1.15-0.07c-0.24-0.02-0.5-0.03-0.71-0.14c-0.03-0.02-0.06-0.04-0.09-0.06c-0.25,1.39-0.89,5.32-1.66,10.33
		c2.03,4.02,3.58,7.77,3.87,10.26c0.3-2.55,1.84-6.39,3.84-10.51c-0.76-4.89-1.37-8.72-1.62-10.09
		C269.8,250.95,269.77,250.97,269.74,250.99z"/>
	<path id="XMLID_8207_" class="st10" d="M264.98,250.5c0.08,0.18,0.24,0.32,0.43,0.42c0.03,0.02,0.06,0.05,0.09,0.06
		c0.21,0.11,0.47,0.12,0.71,0.14l1.15,0.07v0.03l0.26-0.02l0.26,0.02v-0.03l1.15-0.07c0.24-0.02,0.5-0.03,0.71-0.14
		c0.03-0.02,0.06-0.04,0.09-0.06c0.18-0.11,0.35-0.25,0.43-0.42c1.05-2.35,2.21-3.72,2.4-5.64c-1.94-2.24-4.92-4.29-5.21-5.31
		c-0.28,0.96-2.95,2.84-4.88,4.93C262.63,246.61,263.87,248.01,264.98,250.5z"/>
	<path id="XMLID_8206_" class="st11" d="M252.7,229.45c-0.55,0.72-1.54,1.78-2.15,2.37c-0.32,0.39-0.78,1.06-1,1.92
		c0,0.01,0,0.01,0,0.02c0.45,5.52,11.37,18.26,11.03,14.68c-0.12-1.28,0.79-2.65,1.98-3.94c1.93-2.09,4.6-3.97,4.88-4.93
		c0.3,1.02,3.28,3.07,5.21,5.31c1.02,1.18,1.75,2.41,1.65,3.57c-0.32,3.37,9.33-7.7,10.85-13.63c-0.02-0.51-0.1-0.83-0.09-1
		c0.03-0.64-0.09-1.11-0.26-1.48c-0.29-0.4-0.69-0.73-0.99-1.06c-0.04-0.04-0.07-0.07-0.1-0.1c-0.16-0.17-0.33-0.34-0.51-0.53
		c-0.27-0.28-0.53-0.58-1.01-1.2c-0.02-0.03-0.04-0.07-0.07-0.09c0,0,0.01,0,0.01-0.01c-0.36-0.48-0.73-1-1.1-1.62
		c-0.15-0.26-0.36-0.29-0.66-0.12c-1.25,0.7-4.25,4.95-12.82,11.5c-0.06,0.05-0.1,0.11-0.12,0.17c-0.02-0.06-0.06-0.12-0.12-0.17
		c-7.92-6.07-11.08-10.15-12.5-11.29c-0.49-0.39-0.77-0.44-0.97-0.1c-0.33,0.56-0.67,1.05-1,1.49c0,0,0.01,0,0.01,0
		C252.85,229.24,252.7,229.43,252.7,229.45z"/>
	<path id="XMLID_8205_" class="st12" d="M253.16,281.53l-0.04-0.37c-0.78-7-1.2-10.95-1.27-11.74l-0.2,0.02
		c-0.28,0.02-0.52-0.18-0.55-0.46c-0.48-4.53-2.76-11.45-8.54-10.98c-5.67,0.46-5.59,9.76-5.47,12.11c0.01,0.29-0.21,0.54-0.5,0.56
		l-0.22,0.02l0,0c0.05,0.56,0.17,2.75,0.37,6.49c5.15,2.7,10.7,4.76,16.53,6.06C253.27,282.62,253.22,282.03,253.16,281.53z"/>
	<path id="XMLID_8204_" class="st12" d="M235.73,270.73c-0.3,0.02-0.56-0.21-0.57-0.51c-0.07-1.32-0.12-4.37,0.62-7.31
		c1.16-4.62,3.58-6.23,5.69-6.7c-0.01-0.04-0.03-0.08-0.03-0.12c-0.1-4.46,0.22-8.18,0.8-11.3c-1.57-0.27-2.58-0.59-2.12-0.93
		c1.41-1.05,1.52-3.24,3.52-6.82c0.08-0.14,0.17-0.26,0.25-0.39c-0.12,0.04-0.23,0.08-0.36,0.12c-4.08,1.38-13.89,4.42-16.81,6.33
		c0,0,0,0.04,0.01,0.07c0.59-0.31,1.07-0.43,1.27-0.14c2.62,3.33,3.52,11.07,4.43,19.34c0.28,2.55,0.55,7.91,0.68,12.76
		c0.97,0.59,1.97,1.15,2.97,1.7C235.89,273.32,235.77,271.27,235.73,270.73C235.73,270.73,235.73,270.73,235.73,270.73z"/>
	<path id="XMLID_8203_" class="st12" d="M251.13,245.72c0,0-3.8-0.25-6.96-0.65c-0.36,1.92-0.61,4.06-0.73,6.46L251.13,245.72z"/>
	<path id="XMLID_8202_" class="st12" d="M263.17,271.49c-1.51-1.69-3.32-4.17-5.16-5.51c-5.53-4.03-13.51-13-14.58-14.21
		c-0.06,1.35-0.09,2.76-0.06,4.27c0,0,0,0,0,0.01c5.8,0.17,9,6.3,9.66,12.75c0.03,0.29-0.19,0.54-0.47,0.56l-0.06,0.01
		c0.06,0.79,0.49,4.73,1.27,11.72l0.04,0.39c0.06,0.53,0.12,1.2,0.12,1.9c2.44,0.52,4.94,0.91,7.47,1.15h3.64h2.78
		c0.07-3.36,0.14-5.99,0.19-7.7C266.37,275.39,264.9,273.43,263.17,271.49z"/>
	<path id="XMLID_8201_" class="st13" d="M228,243.03c-0.2-0.29-0.68-0.17-1.27,0.14c-1.5,0.79-3.75,2.9-4.07,3.23
		c-2.79,2.76-4.38,7.22-6.3,14.33c4.75,5.67,10.4,10.55,16.75,14.41c-0.13-4.85-0.4-10.21-0.68-12.76
		C231.52,254.1,230.62,246.36,228,243.03z"/>
	<path id="XMLID_8200_" class="st14" d="M308,243.03c0.2-0.3,0.71-0.17,1.32,0.16c0.02-0.06,0.02-0.09,0.02-0.1
		c-3.31-2.17-15.51-5.8-18.12-6.8c-0.03-0.01-0.07-0.02-0.1-0.03c0.95,1.73,1.6,3.62,2.02,5.59c0.37,0.88,0.74,1.54,1.34,1.99
		c0.32,0.24-0.09,0.47-0.9,0.68c0.64,5.43-0.07,11.09-0.59,15.14c-0.21,1.68-0.4,3.12-0.4,3.99c0,0.09-0.03,0.17-0.05,0.26
		c1.07,0.54,1.8,1.64,1.8,2.91c0,1.81-1.47,3.28-3.28,3.28c-1.81,0-3.28-1.47-3.28-3.28c0-1.67,1.26-3.03,2.87-3.24
		c0.01-0.98,0.18-2.39,0.41-4.17c0.5-3.89,1.15-9.34,0.52-14.52c-3.3,0.49-8.12,0.81-8.12,0.81l7.83,5.91c0,0-8.77,10.03-14.7,14.35
		c-1.84,1.34-3.65,3.81-5.16,5.51c-1.74,1.95-1.96,3.05-3.37,5.37c-0.01-0.01-0.03-0.03-0.04-0.04c-0.06,1.71-0.12,4.34-0.19,7.7
		h0.38h2.04h4.24c10.33-1,19.98-4.33,28.41-9.47c0.13-4.83,0.4-10.15,0.68-12.69C304.47,254.1,305.38,246.36,308,243.03z"/>
	<path id="XMLID_8199_" class="st15" d="M243.64,237.03c-2,3.58-2.11,5.77-3.52,6.82c-0.46,0.34,0.55,0.66,2.12,0.93
		c0.97-5.25,2.68-8.77,4.42-11.11c-0.86,0.68-1.85,1.58-2.64,2.76c-0.05,0.07-0.09,0.14-0.13,0.21
		C243.8,236.78,243.71,236.9,243.64,237.03z"/>
	<path id="XMLID_8198_" class="st15" d="M294.47,243.85c-0.6-0.45-0.97-1.11-1.34-1.99c0.19,0.88,0.33,1.77,0.44,2.67
		C294.38,244.32,294.79,244.09,294.47,243.85z"/>
	<path id="XMLID_8197_" class="st15" d="M284.83,232.36c-0.01-0.01-0.02-0.02-0.03-0.03c0.17,0.37,0.29,0.84,0.26,1.48
		c-0.01,0.17,0.07,0.49,0.09,1c0.05,1.21-0.25,3.51-2.97,7.52c-2.15,3.16-7.17,11.34-10.73,18.68c-1.99,4.11-3.53,7.96-3.84,10.51
		c-0.3-2.49-1.85-6.24-3.87-10.26c-3.74-7.41-9.11-15.77-11.34-18.93c-3.95-5.61-3.04-7.82-2.88-8.52c0-0.02,0.01-0.03,0.01-0.05
		c0-0.01,0.01-0.02,0.01-0.02c0.22-0.86,0.68-1.53,1-1.92l0,0c-2.04,1.71-4.97,5.71-6.38,13.25c3.16,0.4,6.96,0.65,6.96,0.65
		l-7.7,5.81c0,0.08-0.01,0.16-0.01,0.24c1.07,1.21,9.05,10.19,14.58,14.21c1.84,1.34,3.65,3.81,5.16,5.51
		c1.73,1.94,3.21,3.89,4.84,5.33c0.01,0.01,0.03,0.03,0.04,0.04c1.41-2.32,1.63-3.42,3.37-5.37c1.51-1.69,3.32-4.17,5.16-5.51
		c5.93-4.32,14.7-14.35,14.7-14.35l-7.83-5.91c0,0,4.83-0.32,8.12-0.81C290.96,239.92,289.15,235.19,284.83,232.36z"/>
	<path id="XMLID_8196_" d="M282.2,229.44c0.48,0.62,0.74,0.91,1.01,1.2c0.15,0.16,0.31,0.32,0.51,0.53c0.03,0.04,0.06,0.07,0.1,0.1
		c0.3,0.33,0.7,0.66,0.99,1.06c0.01,0.01,0.02,0.02,0.03,0.03c4.32,2.83,6.14,7.56,6.75,12.55c0.64,5.18-0.02,10.64-0.52,14.52
		c-0.23,1.78-0.4,3.18-0.41,4.17c0.13-0.02,0.27-0.04,0.41-0.04c0.53,0,1.03,0.14,1.47,0.37c0.02-0.08,0.05-0.17,0.05-0.26
		c0-0.86,0.18-2.31,0.4-3.99c0.52-4.05,1.23-9.71,0.59-15.14c-0.11-0.9-0.25-1.79-0.44-2.67c-0.42-1.97-1.07-3.86-2.02-5.59
		c-1.64-3-4.19-5.51-8.07-7.03c-0.33-0.13-0.64-0.1-0.9,0.11c0,0-0.01,0-0.01,0.01C282.15,229.37,282.18,229.41,282.2,229.44z"/>
	<path id="XMLID_8193_" class="st16" d="M290.64,263.6c-1.62,0.2-2.87,1.57-2.87,3.24c0,1.81,1.47,3.28,3.28,3.28
		c1.81,0,3.28-1.47,3.28-3.28c0-1.28-0.74-2.37-1.8-2.91c-0.44-0.23-0.94-0.37-1.47-0.37C290.91,263.56,290.78,263.58,290.64,263.6z
		 M293.33,266.84c0,1.26-1.02,2.28-2.28,2.28c-1.26,0-2.28-1.02-2.28-2.28c0-1.26,1.02-2.28,2.28-2.28
		C292.31,264.55,293.33,265.58,293.33,266.84z"/>
	<path id="XMLID_8192_" class="st2" d="M291.05,264.55c-1.26,0-2.28,1.02-2.28,2.28c0,1.26,1.02,2.28,2.28,2.28
		c1.26,0,2.28-1.02,2.28-2.28C293.33,265.58,292.31,264.55,291.05,264.55z"/>
	<path id="XMLID_8191_" d="M242.23,244.78c-0.58,3.12-0.89,6.84-0.8,11.3c0,0.04,0.02,0.08,0.03,0.12c-2.11,0.47-4.53,2.09-5.69,6.7
		c-0.74,2.94-0.69,5.99-0.62,7.31c0.02,0.3,0.27,0.53,0.57,0.51c0,0,0.01,0,0.01,0l0.63-0.05l0.22-0.02
		c0.29-0.02,0.51-0.27,0.5-0.56c-0.11-2.35-0.2-11.64,5.47-12.11c5.78-0.47,8.06,6.46,8.54,10.98c0.03,0.28,0.27,0.48,0.55,0.46
		l0.2-0.02l0.64-0.05l0.06-0.01c0.29-0.02,0.5-0.28,0.47-0.56c-0.66-6.45-3.86-12.58-9.66-12.75c0,0,0,0,0,0
		c-0.03-1.51,0-2.92,0.06-4.27c0-0.08,0.01-0.16,0.01-0.24c0.12-2.4,0.38-4.54,0.73-6.46c1.4-7.54,4.33-11.54,6.38-13.25l0,0
		c0.61-0.59,1.6-1.65,2.15-2.37c0.01-0.02,0.15-0.21,0.16-0.23c0,0-0.01,0-0.01,0c-0.24-0.12-0.65,0.02-0.91,0.12
		c-0.81,0.31-3.06,1.37-5.27,4.34C244.92,236.01,243.21,239.53,242.23,244.78z"/>
	<path id="XMLID_8190_" class="st17" d="M236.37,270.68l-0.63,0.05c0,0-0.01,0-0.01,0c0,0,0,0,0,0c0.04,0.54,0.16,2.59,0.35,6.1
		c0.22,0.12,0.44,0.22,0.66,0.34C236.54,273.42,236.42,271.24,236.37,270.68L236.37,270.68z"/>
	<path id="XMLID_8189_" class="st17" d="M253.8,281.48l-0.04-0.39c-0.78-6.99-1.2-10.94-1.27-11.72l-0.64,0.05
		c0.06,0.79,0.49,4.74,1.27,11.74l0.04,0.37c0.06,0.5,0.11,1.09,0.11,1.69c0.22,0.05,0.43,0.1,0.65,0.15
		C253.93,282.68,253.86,282.01,253.8,281.48z"/>
	<path id="XMLID_8188_" class="st13" d="M309.32,243.2c-0.62-0.33-1.12-0.46-1.32-0.16c-2.62,3.33-3.52,11.07-4.43,19.34
		c-0.28,2.54-0.55,7.85-0.68,12.69c6.34-3.87,11.99-8.76,16.72-14.43c-1.91-7.05-3.5-11.48-6.28-14.23
		C313.02,246.08,310.82,244.01,309.32,243.2z"/>
</g>
<g>
</g>
<g>
</g>
<g>
</g>
<g>
</g>
<g>
</g>
<g>
</g>
<g>
</g>
<g>
</g>
<g>
</g>
<g>
</g>
<g>
</g>
<g>
</g>
<g>
</g>
<g>
</g>
<g>
</g>
</svg>
