<?xml version="1.0" encoding="utf-8"?>
<!-- Generator: Adobe Illustrator 23.0.0, SVG Export Plug-In . SVG Version: 6.00 Build 0)  -->
<svg version="1.1" id="Capa_1" xmlns="http://www.w3.org/2000/svg" xmlns:xlink="http://www.w3.org/1999/xlink" x="0px" y="0px"
	 viewBox="0 0 400 689" style="enable-background:new 0 0 400 689;" xml:space="preserve">
<style type="text/css">
	.st0{fill:#E2E2E2;}
	.st1{fill:#FFFFFF;}
	.st2{fill:#CCCDCE;}
	.st3{fill:#F2F2F2;}
	.st4{fill:none;}
	.st5{fill:#0085B0;}
	.st6{fill:#E0EF18;}
	.st7{fill:#CECECE;}
	.st8{fill:#22272F;}
	.st9{fill:#1B2538;}
	.st10{fill:#253452;}
	.st11{fill:#F9F9F9;}
	.st12{fill:#2D3543;}
	.st13{fill:#2A3D60;}
	.st14{fill:#6C92D5;}
	.st15{fill:#587955;}
	.st16{fill:#CD7054;}
	.st17{fill:#F1CC4B;}
	.st18{fill:#DFDFDF;}
	.st19{fill:#ACACAC;}
	.st20{fill:#00D13C;}
	.st21{fill:#866A5E;}
	.st22{fill:#F7DDCB;}
	.st23{fill:#FFE6D4;}
	.st24{fill:#2D2D2D;}
	.st25{fill:#1C1B1A;}
	.st26{fill:#F5F5F5;}
	.st27{fill:#77181C;}
	.st28{fill:#EAEAEA;}
	.st29{fill:#262525;}
	.st30{fill:#11100F;}
	.st31{fill:#FFFFFF;stroke:#000000;stroke-width:6;stroke-miterlimit:10;}
	.st32{fill:#D4D4D4;}
	.st33{fill:#C2C2C2;}
	.st34{fill:#505050;}
	.st35{fill:#53C2C9;}
	.st36{fill:#008B9C;}
	.st37{fill:none;stroke:#00550B;stroke-width:4;stroke-miterlimit:10;}
	.st38{fill:#CE2458;}
	.st39{fill:#155500;}
	.st40{fill:#1549FF;}
	.st41{fill:#606060;stroke:#C6C8CC;stroke-width:6;stroke-miterlimit:10;}
	.st42{fill:#727272;}
	.st43{fill:#207235;}
	.st44{fill:#A3A3A3;}
	.st45{fill:#BCBCBC;}
	.st46{fill:#2A5936;}
	.st47{opacity:0.7;fill:#7F7F7F;}
	.st48{fill:#DAA449;}
	.st49{fill:#85B681;}
	.st50{fill:#A1DC9B;}
	.st51{fill:#90C58B;}
	.st52{fill:#DD9225;}
	.st53{opacity:0.3;}
	.st54{fill:#81C378;}
	.st55{opacity:0.5;}
	.st56{fill:#A2CADE;}
	.st57{fill:#9BAEC9;}
	.st58{fill:#9D2B3B;}
	.st59{fill:#C1D4F2;}
	.st60{fill:#534D46;}
	.st61{fill:#191819;}
	.st62{fill:#222123;}
	.st63{fill:#F3FF00;}
	.st64{fill-rule:evenodd;clip-rule:evenodd;fill:#FFFFFF;}
	.st65{fill-rule:evenodd;clip-rule:evenodd;fill:#1996B8;}
	.st66{fill:none;stroke:#5A605A;stroke-width:4;stroke-miterlimit:10;}
	.st67{fill:#FFB412;}
	.st68{fill:#BACDD1;}
	.st69{fill:#1C4D59;}
	.st70{fill:#A14329;}
	.st71{fill:#FCC083;}
	.st72{fill:#E8AA63;}
	.st73{fill:#D40000;}
	.st74{opacity:0.35;fill:#7D7D7D;}
	.st75{fill:#E5E3E3;}
	.st76{fill:#121F5E;}
	.st77{fill:#A3ADAF;}
	.st78{fill:#C2C6C6;}
	.st79{fill:#E5E5E5;stroke:#FFFFFF;stroke-miterlimit:10;}
	.st80{fill:#ACB4B5;}
	.st81{fill:#7F8384;}
	.st82{fill:#282828;}
	.st83{fill:none;stroke:#46A508;stroke-width:6;stroke-miterlimit:10;}
	.st84{fill:none;stroke:#46A508;stroke-width:6;stroke-miterlimit:10;stroke-dasharray:11.7425,11.7425;}
	.st85{fill:#C89D76;}
	.st86{opacity:0.4;}
	.st87{fill:#ADADAD;}
	.st88{fill:#76A172;}
	.st89{fill:#62835F;}
	.st90{fill:#96D090;}
	.st91{fill:#EDC3A6;}
	.st92{opacity:0.69;}
	.st93{fill:#E5D3D6;}
	.st94{opacity:0.44;}
	.st95{fill:#A5A5A5;}
	.st96{fill:#DDE5E4;}
	.st97{fill:#FDFDFD;}
	.st98{fill:#E0C348;}
	.st99{fill:#606060;}
</style>
<g>
	<g>
		<path class="st5" d="M8.5,199.36c0,22,13.29,27.86,29.54,13.03c0,0,156.99-143.3,353.09,26.97V45c0-22-18-40-40-40H48.5
			c-22,0-40,18-40,40V199.36z"/>
	</g>
	<g>
		<path class="st5" d="M390.66,637c0,22-18,40-40,40H48.98c-22,0-40-18-40-40v-46.27c0-22,18-40,40-40h301.68c22,0,40,18,40,40V637z
			"/>
	</g>
	<g>
		<path d="M123.47,383.36c-0.38-0.39-0.57-0.99-0.57-1.81v-19.03h-6.05c-0.9,0-1.51-0.19-1.83-0.57c-0.32-0.38-0.48-0.99-0.48-1.83
			v-2.35c0-0.84,0.16-1.45,0.48-1.83c0.32-0.38,0.93-0.57,1.83-0.57h22.18c0.9,0,1.5,0.19,1.83,0.57s0.48,0.99,0.48,1.83v2.35
			c0,0.84-0.16,1.45-0.48,1.83c-0.32,0.38-0.93,0.57-1.83,0.57h-6.05v19.03c0,0.81-0.19,1.41-0.57,1.81c-0.38,0.39-1.04,0.59-2,0.59
			h-5C124.5,383.95,123.85,383.76,123.47,383.36z"/>
		<path d="M136.51,383.07c0-0.25,0.07-0.56,0.21-0.92l10.46-25.16c0.25-0.59,0.54-1,0.86-1.24c0.32-0.24,0.78-0.36,1.37-0.36h4.58
			c0.59,0,1.04,0.12,1.37,0.36c0.32,0.24,0.61,0.65,0.86,1.24l10.42,25.16c0.14,0.36,0.21,0.67,0.21,0.92
			c0,0.59-0.31,0.88-0.92,0.88h-7.9c-0.87,0-1.41-0.38-1.64-1.13l-1.01-3.11h-7.43l-0.97,3.11c-0.22,0.76-0.77,1.13-1.64,1.13h-7.9
			C136.82,383.95,136.51,383.66,136.51,383.07z M153.31,373.07l-1.64-5.21l-1.64,5.21H153.31z"/>
		<path d="M172.38,383.78c-2.18-0.53-3.95-1.27-5.29-2.23c-0.56-0.39-0.84-0.77-0.84-1.13c0-0.25,0.1-0.52,0.29-0.8l2.44-3.82
			c0.25-0.36,0.5-0.55,0.76-0.55c0.22,0,0.49,0.1,0.8,0.29c1.01,0.62,2.16,1.1,3.46,1.45c1.3,0.35,2.57,0.53,3.8,0.53
			c1.04,0,1.79-0.14,2.25-0.42s0.69-0.71,0.69-1.3c0-0.64-0.31-1.16-0.92-1.55c-0.62-0.39-1.68-0.88-3.19-1.47
			c-2.83-1.09-5.05-2.33-6.68-3.72c-1.63-1.39-2.44-3.23-2.44-5.52c0-2.91,1.01-5.1,3.04-6.57c2.03-1.47,4.77-2.21,8.21-2.21
			c2.41,0,4.46,0.21,6.15,0.63c1.69,0.42,3.17,1.08,4.43,1.97c0.56,0.39,0.84,0.77,0.84,1.13c0,0.25-0.1,0.52-0.29,0.8l-2.44,3.82
			c-0.25,0.39-0.5,0.59-0.76,0.59c-0.17,0-0.44-0.11-0.8-0.34c-0.67-0.45-1.47-0.82-2.39-1.11c-0.92-0.29-1.92-0.44-2.98-0.44
			c-0.98,0-1.72,0.14-2.23,0.42c-0.5,0.28-0.76,0.73-0.76,1.34c0,0.5,0.17,0.92,0.53,1.26c0.35,0.34,0.79,0.62,1.32,0.86
			c0.53,0.24,1.46,0.62,2.77,1.16c2.1,0.84,3.75,1.64,4.96,2.42c1.2,0.77,2.11,1.69,2.73,2.77c0.62,1.08,0.92,2.44,0.92,4.1
			c0,2.52-0.95,4.56-2.84,6.11c-1.89,1.55-4.71,2.33-8.46,2.33C176.93,384.58,174.56,384.32,172.38,383.78z"/>
		<path d="M190.14,383.07c0-0.25,0.07-0.56,0.21-0.92l10.46-25.16c0.25-0.59,0.54-1,0.86-1.24c0.32-0.24,0.78-0.36,1.36-0.36h4.58
			c0.59,0,1.04,0.12,1.36,0.36c0.32,0.24,0.61,0.65,0.86,1.24l10.42,25.16c0.14,0.36,0.21,0.67,0.21,0.92
			c0,0.59-0.31,0.88-0.92,0.88h-7.9c-0.87,0-1.41-0.38-1.64-1.13l-1.01-3.11h-7.43l-0.97,3.11c-0.22,0.76-0.77,1.13-1.64,1.13h-7.9
			C190.45,383.95,190.14,383.66,190.14,383.07z M206.94,373.07l-1.64-5.21l-1.64,5.21H206.94z"/>
		<path d="M235.73,383.36c-0.38-0.39-0.57-0.99-0.57-1.81v-23.77c0-0.81,0.19-1.41,0.57-1.81c0.38-0.39,1.03-0.59,1.95-0.59h9.66
			c9.88,0,14.83,4.76,14.83,14.28c0,4.7-1.27,8.26-3.8,10.67c-2.54,2.41-6.21,3.61-11.03,3.61h-9.66
			C236.76,383.95,236.11,383.76,235.73,383.36z M247.73,376.81c1.57,0,2.69-0.52,3.38-1.55c0.69-1.04,1.03-2.9,1.03-5.59
			c0-2.69-0.34-4.55-1.03-5.59c-0.69-1.04-1.81-1.55-3.38-1.55h-2.48v14.28H247.73z"/>
		<path d="M264.84,383.36c-0.38-0.39-0.57-0.99-0.57-1.81v-23.77c0-0.81,0.19-1.41,0.57-1.81c0.38-0.39,1.03-0.59,1.95-0.59h17.39
			c0.9,0,1.5,0.19,1.83,0.57s0.48,0.99,0.48,1.83v2.35c0,0.84-0.16,1.45-0.48,1.83c-0.32,0.38-0.93,0.57-1.83,0.57h-9.83v3.61h6.05
			c0.9,0,1.5,0.19,1.83,0.57c0.32,0.38,0.48,0.99,0.48,1.83v2.27c0,0.84-0.16,1.45-0.48,1.83c-0.32,0.38-0.93,0.57-1.83,0.57h-6.05
			v3.61h9.79c0.9,0,1.51,0.19,1.83,0.57c0.32,0.38,0.48,0.99,0.48,1.83v2.35c0,0.84-0.16,1.45-0.48,1.83
			c-0.32,0.38-0.93,0.57-1.83,0.57h-17.35C265.87,383.95,265.22,383.76,264.84,383.36z"/>
		<path d="M85.33,433.47c0-0.25,0.07-0.56,0.21-0.92L96,407.39c0.25-0.59,0.54-1,0.86-1.24c0.32-0.24,0.78-0.36,1.37-0.36h4.58
			c0.59,0,1.04,0.12,1.36,0.36c0.32,0.24,0.61,0.65,0.86,1.24l10.42,25.16c0.14,0.36,0.21,0.67,0.21,0.92
			c0,0.59-0.31,0.88-0.92,0.88h-7.9c-0.87,0-1.41-0.38-1.64-1.13l-1.01-3.11h-7.43l-0.97,3.11c-0.22,0.76-0.77,1.13-1.64,1.13h-7.9
			C85.64,434.35,85.33,434.06,85.33,433.47z M102.13,423.47l-1.64-5.21l-1.64,5.21H102.13z"/>
		<path d="M118.33,433.76c-0.38-0.39-0.57-0.99-0.57-1.81v-23.77c0-0.81,0.19-1.41,0.57-1.81s1.03-0.59,1.95-0.59h10.04
			c4.2,0,7.26,0.83,9.18,2.5c1.92,1.67,2.88,4.18,2.88,7.54c0,3.36-0.96,5.87-2.88,7.52c-1.92,1.65-4.96,2.48-9.14,2.48h-2.52v6.13
			c0,0.81-0.19,1.41-0.57,1.81c-0.38,0.39-1.04,0.59-2,0.59h-5C119.35,434.35,118.7,434.16,118.33,433.76z M129.43,418.69
			c0.9,0,1.6-0.24,2.12-0.71c0.52-0.48,0.78-1.19,0.78-2.14c0-0.98-0.26-1.71-0.78-2.18c-0.52-0.48-1.22-0.71-2.12-0.71h-2.86v5.75
			H129.43z"/>
		<path d="M144.2,433.76c-0.38-0.39-0.57-0.99-0.57-1.81v-23.77c0-0.81,0.19-1.41,0.57-1.81s1.03-0.59,1.95-0.59h17.39
			c0.9,0,1.5,0.19,1.83,0.57c0.32,0.38,0.48,0.99,0.48,1.83v2.35c0,0.84-0.16,1.45-0.48,1.83c-0.32,0.38-0.93,0.57-1.83,0.57h-9.83
			v3.61h6.05c0.9,0,1.5,0.19,1.83,0.57c0.32,0.38,0.48,0.99,0.48,1.83v2.27c0,0.84-0.16,1.45-0.48,1.83
			c-0.32,0.38-0.93,0.57-1.83,0.57h-6.05v3.61h9.79c0.9,0,1.5,0.19,1.83,0.57c0.32,0.38,0.48,0.99,0.48,1.83v2.35
			c0,0.84-0.16,1.45-0.48,1.83c-0.32,0.38-0.93,0.57-1.83,0.57h-17.35C145.23,434.35,144.58,434.16,144.2,433.76z"/>
		<path d="M168.3,433.76c-0.38-0.39-0.57-0.99-0.57-1.81v-23.77c0-0.81,0.19-1.41,0.57-1.81s1.03-0.59,1.95-0.59h10.04
			c4.2,0,7.26,0.83,9.18,2.5s2.88,4.18,2.88,7.54c0,2.02-0.34,3.72-1.03,5.1s-1.74,2.47-3.17,3.25l3.91,8.36
			c0.11,0.22,0.17,0.48,0.17,0.76c0,0.31-0.1,0.56-0.32,0.76c-0.21,0.2-0.48,0.29-0.82,0.29h-7.1c-0.45,0-0.81-0.06-1.07-0.19
			c-0.27-0.13-0.46-0.34-0.57-0.65l-3.11-7.81h-1.43v6.26c0,0.81-0.19,1.41-0.57,1.81c-0.38,0.39-1.04,0.59-1.99,0.59h-5
			C169.33,434.35,168.68,434.16,168.3,433.76z M179.41,418.69c0.9,0,1.6-0.24,2.12-0.71c0.52-0.48,0.78-1.19,0.78-2.14
			c0-0.98-0.26-1.71-0.78-2.18c-0.52-0.48-1.23-0.71-2.12-0.71h-2.86v5.75H179.41z"/>
		<path d="M200.22,433.76c-0.38-0.39-0.57-0.99-0.57-1.81v-19.03h-6.05c-0.9,0-1.51-0.19-1.83-0.57s-0.48-0.99-0.48-1.83v-2.35
			c0-0.84,0.16-1.45,0.48-1.83s0.93-0.57,1.83-0.57h22.18c0.9,0,1.5,0.19,1.83,0.57c0.32,0.38,0.48,0.99,0.48,1.83v2.35
			c0,0.84-0.16,1.45-0.48,1.83c-0.32,0.38-0.93,0.57-1.83,0.57h-6.05v19.03c0,0.81-0.19,1.41-0.57,1.81
			c-0.38,0.39-1.04,0.59-1.99,0.59h-5C201.25,434.35,200.6,434.16,200.22,433.76z"/>
		<path d="M225.7,433.66c-2.07-0.88-3.68-2.16-4.83-3.82s-1.72-3.65-1.72-5.94v-15.71c0-0.81,0.19-1.41,0.57-1.81
			c0.38-0.39,1.03-0.59,1.95-0.59h5c0.95,0,1.62,0.19,2,0.57s0.57,0.99,0.57,1.83v15.83c0,1.32,0.33,2.3,0.99,2.94
			c0.66,0.64,1.56,0.97,2.71,0.97c1.15,0,2.05-0.32,2.71-0.97c0.66-0.64,0.99-1.62,0.99-2.94v-15.83c0-0.81,0.19-1.41,0.57-1.81
			c0.38-0.39,1.03-0.59,1.95-0.59h5c0.95,0,1.62,0.19,2,0.57c0.38,0.38,0.57,0.99,0.57,1.83v15.71c0,2.3-0.57,4.28-1.72,5.94
			s-2.76,2.94-4.83,3.82c-2.07,0.88-4.48,1.32-7.22,1.32C230.18,434.98,227.77,434.54,225.7,433.66z"/>
		<path d="M249.99,433.76c-0.38-0.39-0.57-0.99-0.57-1.81v-23.77c0-0.81,0.19-1.41,0.57-1.81c0.38-0.39,1.03-0.59,1.95-0.59h10.04
			c4.2,0,7.26,0.83,9.18,2.5c1.92,1.67,2.88,4.18,2.88,7.54c0,2.02-0.34,3.72-1.03,5.1c-0.69,1.39-1.74,2.47-3.17,3.25l3.91,8.36
			c0.11,0.22,0.17,0.48,0.17,0.76c0,0.31-0.1,0.56-0.31,0.76c-0.21,0.2-0.48,0.29-0.82,0.29h-7.1c-0.45,0-0.81-0.06-1.07-0.19
			s-0.46-0.34-0.57-0.65l-3.11-7.81h-1.43v6.26c0,0.81-0.19,1.41-0.57,1.81c-0.38,0.39-1.04,0.59-2,0.59h-5
			C251.02,434.35,250.37,434.16,249.99,433.76z M261.1,418.69c0.9,0,1.6-0.24,2.12-0.71c0.52-0.48,0.78-1.19,0.78-2.14
			c0-0.98-0.26-1.71-0.78-2.18c-0.52-0.48-1.23-0.71-2.12-0.71h-2.86v5.75H261.1z"/>
		<path d="M273.41,433.47c0-0.25,0.07-0.56,0.21-0.92l10.46-25.16c0.25-0.59,0.54-1,0.86-1.24c0.32-0.24,0.78-0.36,1.36-0.36h4.58
			c0.59,0,1.04,0.12,1.36,0.36c0.32,0.24,0.61,0.65,0.86,1.24l10.42,25.16c0.14,0.36,0.21,0.67,0.21,0.92
			c0,0.59-0.31,0.88-0.92,0.88h-7.9c-0.87,0-1.41-0.38-1.64-1.13l-1.01-3.11h-7.43l-0.97,3.11c-0.22,0.76-0.77,1.13-1.64,1.13h-7.9
			C273.72,434.35,273.41,434.06,273.41,433.47z M290.21,423.47l-1.64-5.21l-1.64,5.21H290.21z"/>
		<path d="M114.5,484.16c-0.38-0.39-0.57-0.99-0.57-1.81v-23.77c0-0.81,0.19-1.41,0.57-1.81c0.38-0.39,1.03-0.59,1.95-0.59h9.66
			c9.88,0,14.83,4.76,14.83,14.28c0,4.7-1.27,8.26-3.8,10.67c-2.53,2.41-6.21,3.61-11.02,3.61h-9.66
			C115.53,484.75,114.88,484.56,114.5,484.16z M126.49,477.61c1.57,0,2.7-0.52,3.38-1.55c0.69-1.04,1.03-2.9,1.03-5.59
			c0-2.69-0.34-4.55-1.03-5.59c-0.69-1.04-1.81-1.55-3.38-1.55h-2.48v14.28H126.49z"/>
		<path d="M143.61,484.16c-0.38-0.39-0.57-0.99-0.57-1.81v-23.77c0-0.81,0.19-1.41,0.57-1.81s1.03-0.59,1.95-0.59h17.39
			c0.9,0,1.5,0.19,1.83,0.57c0.32,0.38,0.48,0.99,0.48,1.83v2.35c0,0.84-0.16,1.45-0.48,1.83c-0.32,0.38-0.93,0.57-1.83,0.57h-9.83
			v3.61h6.05c0.9,0,1.5,0.19,1.83,0.57c0.32,0.38,0.48,0.99,0.48,1.83v2.27c0,0.84-0.16,1.45-0.48,1.83
			c-0.32,0.38-0.93,0.57-1.83,0.57h-6.05v3.61h9.79c0.9,0,1.5,0.19,1.83,0.57c0.32,0.38,0.48,0.99,0.48,1.83v2.35
			c0,0.84-0.16,1.45-0.48,1.83c-0.32,0.38-0.93,0.57-1.83,0.57h-17.35C144.64,484.75,143.99,484.56,143.61,484.16z"/>
		<path d="M167.72,484.16c-0.38-0.39-0.57-0.99-0.57-1.81v-23.77c0-0.81,0.19-1.41,0.57-1.81s1.03-0.59,1.95-0.59h5
			c0.95,0,1.62,0.19,1.99,0.57c0.38,0.38,0.57,0.99,0.57,1.83v19.03h9.79c0.9,0,1.5,0.19,1.83,0.57c0.32,0.38,0.48,0.99,0.48,1.83
			v2.35c0,0.84-0.16,1.45-0.48,1.83c-0.32,0.38-0.93,0.57-1.83,0.57h-17.35C168.75,484.75,168.09,484.56,167.72,484.16z"/>
		<path d="M205.12,482.9c-0.34-0.25-0.5-0.53-0.5-0.84c0-0.25,0.13-0.6,0.38-1.05l2.02-3.49c0.22-0.39,0.49-0.59,0.8-0.59
			c0.2,0,0.52,0.11,0.97,0.34c1.31,0.7,3.01,1.05,5.08,1.05c1.6,0,2.83-0.3,3.7-0.9c0.87-0.6,1.51-1.49,1.93-2.67
			c-1.65,0.98-3.81,1.47-6.47,1.47c-2.35,0-4.33-0.43-5.92-1.28s-2.79-1.99-3.57-3.4c-0.79-1.41-1.18-2.97-1.18-4.68
			c0-3.81,1.13-6.64,3.4-8.51c2.27-1.86,5.5-2.79,9.7-2.79c3.81,0,6.89,1.1,9.26,3.3s3.55,5.59,3.55,10.18
			c0,3.75-0.62,6.85-1.87,9.28c-1.25,2.44-2.89,4.22-4.93,5.35c-2.04,1.13-4.31,1.7-6.8,1.7
			C210.73,485.38,207.55,484.56,205.12,482.9z M217.55,469.72c0.42-0.64,0.63-1.67,0.63-3.07s-0.21-2.42-0.63-3.07
			c-0.42-0.64-1.13-0.97-2.14-0.97c-1.09,0-1.87,0.32-2.33,0.97c-0.46,0.64-0.69,1.67-0.69,3.07s0.23,2.42,0.69,3.07
			c0.46,0.64,1.24,0.97,2.33,0.97C216.42,470.68,217.13,470.36,217.55,469.72z"/>
		<path d="M235.1,484.58c-2.04-0.53-3.74-1.27-5.08-2.23c-0.34-0.25-0.5-0.53-0.5-0.84c0-0.25,0.13-0.6,0.38-1.05l2.1-3.61
			c0.25-0.42,0.52-0.63,0.8-0.63c0.14,0,0.46,0.13,0.97,0.38c2.04,1.15,4.42,1.72,7.14,1.72c1.37,0,2.45-0.29,3.23-0.88
			c0.78-0.59,1.18-1.46,1.18-2.6c0-2.24-1.2-3.36-3.61-3.36c-0.76,0-1.53,0.06-2.33,0.19c-0.8,0.13-1.46,0.29-1.99,0.48
			c-0.81,0.28-1.68,0.42-2.6,0.42c-1.29,0-2.33-0.31-3.13-0.92s-1.16-1.54-1.07-2.77l0.67-10.58c0.06-0.73,0.25-1.26,0.59-1.6
			s0.94-0.5,1.81-0.5h17.93c0.9,0,1.5,0.19,1.83,0.57c0.32,0.38,0.48,0.99,0.48,1.83v2.39c0,0.84-0.16,1.45-0.48,1.83
			c-0.32,0.38-0.93,0.57-1.83,0.57H239.3l-0.13,2.02c0.45-0.11,1.11-0.2,2-0.27c0.88-0.07,1.59-0.11,2.12-0.11
			c3.84,0,6.8,0.75,8.9,2.25c2.1,1.5,3.15,4.03,3.15,7.58c0,2.18-0.59,4.07-1.79,5.67s-2.83,2.81-4.91,3.63
			c-2.09,0.83-4.45,1.24-7.08,1.24C239.3,485.38,237.15,485.12,235.1,484.58z"/>
		<path d="M260.01,468.41c-1.04-0.59-1.86-1.4-2.48-2.44c-0.62-1.04-0.92-2.21-0.92-3.53s0.31-2.5,0.92-3.55
			c0.62-1.05,1.44-1.87,2.48-2.46c1.04-0.59,2.18-0.88,3.44-0.88c1.26,0,2.42,0.29,3.46,0.88c1.05,0.59,1.88,1.41,2.5,2.46
			c0.62,1.05,0.92,2.23,0.92,3.55s-0.31,2.49-0.92,3.53c-0.62,1.04-1.45,1.85-2.5,2.44s-2.21,0.88-3.46,0.88
			C262.19,469.3,261.04,469,260.01,468.41z M258.81,484.48c-0.18-0.18-0.27-0.4-0.27-0.65c0-0.31,0.1-0.6,0.29-0.88l17.68-25.62
			c0.28-0.39,0.55-0.68,0.82-0.86c0.27-0.18,0.61-0.27,1.03-0.27h7.1c0.34,0,0.59,0.08,0.76,0.25c0.17,0.17,0.25,0.39,0.25,0.67
			c0,0.31-0.1,0.6-0.29,0.88l-17.89,25.91c-0.25,0.36-0.45,0.59-0.59,0.69c-0.14,0.1-0.42,0.15-0.84,0.15h-7.31
			C259.24,484.75,258.99,484.66,258.81,484.48z M264.97,463.94c0.42-0.41,0.63-0.9,0.63-1.49c0-0.62-0.21-1.13-0.63-1.53
			c-0.42-0.41-0.92-0.61-1.51-0.61s-1.08,0.2-1.49,0.61c-0.41,0.41-0.61,0.92-0.61,1.53c0,0.59,0.2,1.08,0.61,1.49
			s0.9,0.61,1.49,0.61S264.55,464.35,264.97,463.94z M278.24,484.5c-1.04-0.59-1.86-1.4-2.48-2.44c-0.62-1.04-0.92-2.21-0.92-3.53
			s0.31-2.5,0.92-3.55c0.62-1.05,1.44-1.87,2.48-2.46c1.04-0.59,2.18-0.88,3.44-0.88s2.42,0.29,3.46,0.88
			c1.05,0.59,1.88,1.41,2.5,2.46c0.62,1.05,0.92,2.23,0.92,3.55s-0.31,2.49-0.92,3.53c-0.62,1.04-1.45,1.85-2.5,2.44
			c-1.05,0.59-2.21,0.88-3.46,0.88S279.27,485.09,278.24,484.5z M283.19,480.03c0.42-0.41,0.63-0.9,0.63-1.49
			c0-0.62-0.21-1.13-0.63-1.53c-0.42-0.41-0.92-0.61-1.51-0.61s-1.08,0.2-1.49,0.61c-0.41,0.41-0.61,0.92-0.61,1.53
			c0,0.59,0.2,1.08,0.61,1.49c0.41,0.41,0.9,0.61,1.49,0.61S282.77,480.43,283.19,480.03z"/>
	</g>
	<polygon class="st6" points="199.76,86.93 213.23,114.22 243.34,118.59 221.55,139.83 226.7,169.83 199.76,155.67 172.83,169.83 
		177.97,139.83 156.18,118.59 186.29,114.22 	"/>
	<polygon class="st6" points="137.58,170.15 146.32,187.86 165.86,190.7 151.72,204.48 155.06,223.94 137.58,214.75 120.11,223.94 
		123.45,204.48 109.31,190.7 128.85,187.86 	"/>
	<polygon class="st6" points="267.68,170.15 276.42,187.86 295.95,190.7 281.82,204.48 285.15,223.94 267.68,214.75 250.2,223.94 
		253.54,204.48 239.4,190.7 258.94,187.86 	"/>
	<circle class="st7" cx="200.77" cy="203.97" r="121.96"/>
	<circle class="st1" cx="199.82" cy="190.58" r="121.96"/>
	<g>
		<path class="st1" d="M183.17,634.07c-3.43-0.78-6.17-1.87-8.21-3.29c-0.58-0.44-0.88-0.92-0.88-1.46c0-0.44,0.22-1.05,0.66-1.82
			l3.65-6.28c0.39-0.68,0.85-1.02,1.39-1.02c0.34,0,0.9,0.2,1.68,0.58c1.27,0.63,2.81,1.16,4.64,1.57c1.82,0.41,3.64,0.62,5.44,0.62
			c2.43,0,4.25-0.37,5.44-1.09c1.19-0.73,1.79-1.85,1.79-3.36c0-2.34-1.58-3.5-4.75-3.5h-5.62c-1.61,0-2.74-0.34-3.39-1.02
			c-0.66-0.68-0.99-1.73-0.99-3.14v-3.94c0-1.41,0.33-2.46,0.99-3.14c0.66-0.68,1.79-1.02,3.39-1.02h4.45c1.61,0,2.77-0.29,3.5-0.88
			s1.1-1.48,1.1-2.7c0-2.34-2.02-3.5-6.06-3.5c-3.26,0-6.35,0.73-9.27,2.19c-0.78,0.39-1.34,0.58-1.68,0.58
			c-0.54,0-1-0.34-1.39-1.02l-3.65-6.28c-0.44-0.78-0.66-1.39-0.66-1.83c0-0.54,0.29-1.02,0.88-1.46c2.09-1.41,4.7-2.51,7.81-3.29
			c3.11-0.78,6.67-1.17,10.66-1.17c4.23,0,7.92,0.62,11.06,1.86c3.14,1.24,5.55,3,7.23,5.29c1.68,2.29,2.52,4.99,2.52,8.1
			c0,4.28-1.49,7.59-4.45,9.93c3.84,2.24,5.77,5.79,5.77,10.66c0,4.92-1.87,8.81-5.62,11.68c-3.75,2.87-9.15,4.31-16.21,4.31
			C190.34,635.24,186.6,634.85,183.17,634.07z"/>
	</g>
	<g>
		<rect x="147" y="189" class="st38" width="28" height="61"/>
		<g>
			<rect x="186" y="159" class="st39" width="28" height="92"/>
			<rect x="226" y="179" class="st40" width="28" height="71"/>
			<line class="st41" x1="132" y1="125" x2="132" y2="252"/>
			<line class="st41" x1="270" y1="254" x2="132" y2="254"/>
		</g>
	</g>
</g>
</svg>
