<?xml version="1.0" encoding="utf-8"?>
<!-- Generator: Adobe Illustrator 23.0.0, SVG Export Plug-In . SVG Version: 6.00 Build 0)  -->
<svg version="1.1" id="Capa_1" xmlns="http://www.w3.org/2000/svg" xmlns:xlink="http://www.w3.org/1999/xlink" x="0px" y="0px"
	 viewBox="0 0 400 689" style="enable-background:new 0 0 400 689;" xml:space="preserve">
<style type="text/css">
	.st0{fill:#E2E2E2;}
	.st1{fill:#FFFFFF;}
	.st2{fill:#CCCDCE;}
	.st3{fill:#F2F2F2;}
	.st4{fill:none;}
	.st5{fill:#0085B0;}
	.st6{fill:#E0EF18;}
	.st7{fill:#CECECE;}
	.st8{fill:#22272F;}
	.st9{fill:#1B2538;}
	.st10{fill:#253452;}
	.st11{fill:#F9F9F9;}
	.st12{fill:#2D3543;}
	.st13{fill:#2A3D60;}
	.st14{fill:#6C92D5;}
	.st15{fill:#587955;}
	.st16{fill:#CD7054;}
	.st17{fill:#F1CC4B;}
	.st18{fill:#DFDFDF;}
	.st19{fill:#ACACAC;}
	.st20{fill:#00D13C;}
	.st21{fill:#866A5E;}
	.st22{fill:#F7DDCB;}
	.st23{fill:#FFE6D4;}
	.st24{fill:#2D2D2D;}
	.st25{fill:#1C1B1A;}
	.st26{fill:#F5F5F5;}
	.st27{fill:#77181C;}
	.st28{fill:#EAEAEA;}
	.st29{fill:#262525;}
	.st30{fill:#11100F;}
	.st31{fill:#FFFFFF;stroke:#000000;stroke-width:6;stroke-miterlimit:10;}
	.st32{fill:#D4D4D4;}
	.st33{fill:#C2C2C2;}
	.st34{fill:#505050;}
	.st35{fill:#53C2C9;}
	.st36{fill:#008B9C;}
	.st37{fill:none;stroke:#00550B;stroke-width:4;stroke-miterlimit:10;}
	.st38{fill:#CE2458;}
	.st39{fill:#155500;}
	.st40{fill:#1549FF;}
	.st41{fill:#606060;stroke:#C6C8CC;stroke-width:6;stroke-miterlimit:10;}
	.st42{fill:#727272;}
	.st43{fill:#207235;}
	.st44{fill:#A3A3A3;}
	.st45{fill:#BCBCBC;}
	.st46{fill:#2A5936;}
	.st47{opacity:0.7;fill:#7F7F7F;}
	.st48{fill:#DAA449;}
	.st49{fill:#85B681;}
	.st50{fill:#A1DC9B;}
	.st51{fill:#90C58B;}
	.st52{fill:#DD9225;}
	.st53{opacity:0.3;}
	.st54{fill:#81C378;}
	.st55{opacity:0.5;}
	.st56{fill:#A2CADE;}
	.st57{fill:#9BAEC9;}
	.st58{fill:#9D2B3B;}
	.st59{fill:#C1D4F2;}
	.st60{fill:#534D46;}
	.st61{fill:#191819;}
	.st62{fill:#222123;}
	.st63{fill:#F3FF00;}
	.st64{fill-rule:evenodd;clip-rule:evenodd;fill:#FFFFFF;}
	.st65{fill-rule:evenodd;clip-rule:evenodd;fill:#1996B8;}
	.st66{fill:none;stroke:#5A605A;stroke-width:4;stroke-miterlimit:10;}
	.st67{fill:#FFB412;}
	.st68{fill:#BACDD1;}
	.st69{fill:#1C4D59;}
	.st70{fill:#A14329;}
	.st71{fill:#FCC083;}
	.st72{fill:#E8AA63;}
	.st73{fill:#D40000;}
	.st74{opacity:0.35;fill:#7D7D7D;}
	.st75{fill:#E5E3E3;}
	.st76{fill:#121F5E;}
	.st77{fill:#A3ADAF;}
	.st78{fill:#C2C6C6;}
	.st79{fill:#E5E5E5;stroke:#FFFFFF;stroke-miterlimit:10;}
	.st80{fill:#ACB4B5;}
	.st81{fill:#7F8384;}
	.st82{fill:#282828;}
	.st83{fill:none;stroke:#46A508;stroke-width:6;stroke-miterlimit:10;}
	.st84{fill:none;stroke:#46A508;stroke-width:6;stroke-miterlimit:10;stroke-dasharray:11.7425,11.7425;}
	.st85{fill:#C89D76;}
	.st86{opacity:0.4;}
	.st87{fill:#ADADAD;}
	.st88{fill:#76A172;}
	.st89{fill:#62835F;}
	.st90{fill:#96D090;}
	.st91{fill:#EDC3A6;}
	.st92{opacity:0.69;}
	.st93{fill:#E5D3D6;}
	.st94{opacity:0.44;}
	.st95{fill:#A5A5A5;}
	.st96{fill:#DDE5E4;}
	.st97{fill:#FDFDFD;}
	.st98{fill:#E0C348;}
	.st99{fill:#606060;}
</style>
<g>
	<g>
		<path class="st20" d="M8.5,199.36c0,22,13.29,27.86,29.54,13.03c0,0,156.99-143.3,353.09,26.97V45c0-22-18-40-40-40H48.5
			c-22,0-40,18-40,40V199.36z"/>
	</g>
	<g>
		<path class="st20" d="M390.66,637c0,22-18,40-40,40H48.98c-22,0-40-18-40-40v-46.27c0-22,18-40,40-40h301.68c22,0,40,18,40,40V637
			z"/>
	</g>
	<g>
		<path d="M135.13,360.57c-0.24-0.25-0.36-0.64-0.36-1.16V344.1c0-0.52,0.12-0.91,0.36-1.15c0.24-0.24,0.67-0.37,1.28-0.37h3.1
			c0.4,0,0.71,0.05,0.95,0.15c0.23,0.1,0.41,0.29,0.54,0.58l3.16,7.91l3.16-7.91c0.13-0.29,0.3-0.48,0.54-0.58
			c0.23-0.1,0.55-0.15,0.95-0.15h3.11c0.61,0,1.04,0.12,1.28,0.37c0.24,0.24,0.36,0.63,0.36,1.15v15.31c0,0.52-0.12,0.91-0.36,1.16
			s-0.66,0.38-1.25,0.38h-2.59c-0.59,0-1.02-0.13-1.27-0.38s-0.38-0.64-0.38-1.16v-7.37l-1.59,3.67c-0.22,0.52-0.45,0.9-0.7,1.12
			c-0.25,0.22-0.67,0.34-1.24,0.34s-0.99-0.11-1.24-0.34c-0.25-0.23-0.49-0.6-0.7-1.12l-1.59-3.67v7.37c0,0.52-0.12,0.91-0.36,1.16
			c-0.24,0.25-0.67,0.38-1.28,0.38h-2.59C135.79,360.95,135.37,360.83,135.13,360.57z"/>
		<path d="M155.81,360.57c-0.24-0.25-0.36-0.64-0.36-1.16v-15.28c0-0.52,0.12-0.91,0.36-1.16c0.24-0.25,0.66-0.38,1.26-0.38h11.18
			c0.58,0,0.97,0.12,1.17,0.37c0.21,0.24,0.31,0.63,0.31,1.17v1.51c0,0.54-0.1,0.93-0.31,1.17c-0.21,0.24-0.6,0.37-1.17,0.37h-6.32
			v2.32h3.89c0.58,0,0.97,0.12,1.17,0.36c0.21,0.24,0.31,0.63,0.31,1.17v1.46c0,0.54-0.1,0.93-0.31,1.17s-0.6,0.36-1.17,0.36h-3.89
			v2.32h6.29c0.58,0,0.97,0.12,1.18,0.36c0.21,0.24,0.31,0.63,0.31,1.17v1.51c0,0.54-0.1,0.93-0.31,1.17
			c-0.21,0.24-0.6,0.36-1.18,0.36h-11.15C156.47,360.95,156.05,360.83,155.81,360.57z"/>
		<path d="M171.31,360.57c-0.24-0.25-0.36-0.64-0.36-1.16v-15.28c0-0.52,0.12-0.91,0.36-1.16c0.24-0.25,0.66-0.38,1.26-0.38h6.21
			c6.35,0,9.53,3.06,9.53,9.18c0,3.02-0.82,5.31-2.44,6.86c-1.63,1.55-3.99,2.32-7.09,2.32h-6.21
			C171.97,360.95,171.55,360.83,171.31,360.57z M179.02,356.36c1.01,0,1.73-0.33,2.17-1c0.44-0.67,0.66-1.86,0.66-3.59
			c0-1.73-0.22-2.92-0.66-3.59c-0.44-0.67-1.17-1-2.17-1h-1.59v9.18H179.02z"/>
		<path d="M190.02,360.57c-0.24-0.25-0.37-0.64-0.37-1.16v-15.28c0-0.52,0.12-0.91,0.37-1.16c0.24-0.25,0.66-0.38,1.26-0.38h3.21
			c0.61,0,1.04,0.12,1.28,0.37c0.24,0.24,0.36,0.63,0.36,1.17v15.28c0,0.52-0.12,0.91-0.36,1.16s-0.67,0.38-1.28,0.38h-3.21
			C190.68,360.95,190.26,360.83,190.02,360.57z"/>
		<path d="M199.97,358.86c-1.66-1.66-2.48-4.03-2.48-7.09c0-3.06,0.83-5.42,2.48-7.09s4.09-2.5,7.29-2.5c3.2,0,5.63,0.83,7.29,2.5
			s2.48,4.03,2.48,7.09c0,3.06-0.83,5.42-2.48,7.09c-1.66,1.67-4.09,2.5-7.29,2.5C204.05,361.36,201.63,360.52,199.97,358.86z
			 M209.8,355.57c0.52-0.84,0.78-2.1,0.78-3.79c0-1.71-0.26-2.98-0.78-3.81c-0.52-0.83-1.37-1.24-2.54-1.24
			c-1.17,0-2.02,0.41-2.54,1.24c-0.52,0.83-0.78,2.1-0.78,3.81c0,1.69,0.26,2.96,0.78,3.79c0.52,0.84,1.37,1.26,2.54,1.26
			C208.43,356.82,209.28,356.4,209.8,355.57z"/>
		<path d="M226.85,360.57c-0.24-0.25-0.37-0.64-0.37-1.16v-15.28c0-0.52,0.12-0.91,0.37-1.16c0.24-0.25,0.66-0.38,1.25-0.38h6.21
			c6.35,0,9.53,3.06,9.53,9.18c0,3.02-0.81,5.31-2.44,6.86c-1.63,1.55-3.99,2.32-7.09,2.32h-6.21
			C227.51,360.95,227.09,360.83,226.85,360.57z M234.56,356.36c1.01,0,1.73-0.33,2.17-1s0.66-1.86,0.66-3.59
			c0-1.73-0.22-2.92-0.66-3.59c-0.44-0.67-1.17-1-2.17-1h-1.59v9.18H234.56z"/>
		<path d="M245.56,360.57c-0.24-0.25-0.37-0.64-0.37-1.16v-15.28c0-0.52,0.12-0.91,0.37-1.16c0.24-0.25,0.66-0.38,1.25-0.38h11.18
			c0.58,0,0.97,0.12,1.17,0.37c0.21,0.24,0.31,0.63,0.31,1.17v1.51c0,0.54-0.1,0.93-0.31,1.17s-0.6,0.37-1.17,0.37h-6.32v2.32h3.89
			c0.58,0,0.97,0.12,1.17,0.36c0.21,0.24,0.31,0.63,0.31,1.17v1.46c0,0.54-0.1,0.93-0.31,1.17s-0.6,0.36-1.17,0.36h-3.89v2.32h6.29
			c0.58,0,0.97,0.12,1.17,0.36s0.31,0.63,0.31,1.17v1.51c0,0.54-0.1,0.93-0.31,1.17s-0.6,0.36-1.17,0.36h-11.15
			C246.22,360.95,245.8,360.83,245.56,360.57z"/>
		<path d="M100.7,391.34c-1.82-1.61-2.73-4-2.73-7.17c0-3.19,0.88-5.58,2.63-7.18c1.75-1.6,4.26-2.4,7.52-2.4
			c1.48,0,2.79,0.14,3.94,0.43s2.12,0.69,2.89,1.21c0.22,0.16,0.32,0.34,0.32,0.54c0,0.16-0.08,0.39-0.24,0.67l-1.35,2.32
			c-0.14,0.25-0.32,0.38-0.51,0.38c-0.13,0-0.33-0.07-0.62-0.22c-0.5-0.25-1.03-0.45-1.58-0.59c-0.55-0.14-1.19-0.22-1.93-0.22
			c-1.49,0-2.64,0.43-3.43,1.3c-0.79,0.86-1.19,2.12-1.19,3.75c0,1.62,0.43,2.87,1.3,3.74s2.04,1.31,3.54,1.31
			c1.3,0,2.48-0.27,3.56-0.81c0.29-0.14,0.5-0.22,0.62-0.22c0.2,0,0.37,0.13,0.51,0.38l1.35,2.32c0.16,0.29,0.24,0.51,0.24,0.67
			c0,0.2-0.11,0.38-0.32,0.54c-0.78,0.52-1.75,0.93-2.92,1.21c-1.17,0.29-2.49,0.43-3.97,0.43
			C105.07,393.76,102.52,392.95,100.7,391.34z"/>
		<path d="M117.63,391.26c-1.66-1.66-2.48-4.03-2.48-7.09c0-3.06,0.83-5.42,2.48-7.09s4.09-2.5,7.29-2.5s5.63,0.83,7.29,2.5
			s2.48,4.03,2.48,7.09c0,3.06-0.83,5.42-2.48,7.09c-1.66,1.67-4.09,2.5-7.29,2.5S119.29,392.92,117.63,391.26z M127.46,387.97
			c0.52-0.84,0.78-2.1,0.78-3.79c0-1.71-0.26-2.98-0.78-3.81c-0.52-0.83-1.37-1.24-2.54-1.24c-1.17,0-2.02,0.41-2.54,1.24
			c-0.52,0.83-0.78,2.1-0.78,3.81c0,1.69,0.26,2.96,0.78,3.79c0.52,0.84,1.37,1.26,2.54,1.26
			C126.09,389.22,126.94,388.8,127.46,387.97z"/>
		<path d="M135.47,392.97c-0.24-0.25-0.37-0.64-0.37-1.16V376.5c0-0.52,0.12-0.91,0.37-1.15c0.24-0.24,0.67-0.37,1.28-0.37h3.1
			c0.4,0,0.71,0.05,0.95,0.15c0.23,0.1,0.41,0.29,0.54,0.58l3.16,7.91l3.16-7.91c0.13-0.29,0.31-0.48,0.54-0.58
			c0.23-0.1,0.55-0.15,0.95-0.15h3.1c0.61,0,1.04,0.12,1.28,0.37c0.24,0.24,0.37,0.63,0.37,1.15v15.31c0,0.52-0.12,0.91-0.37,1.16
			c-0.24,0.25-0.66,0.38-1.25,0.38h-2.59c-0.59,0-1.02-0.13-1.27-0.38s-0.38-0.64-0.38-1.16v-7.37l-1.59,3.67
			c-0.22,0.52-0.45,0.9-0.7,1.12c-0.25,0.22-0.67,0.34-1.24,0.34s-0.99-0.11-1.24-0.34c-0.25-0.23-0.49-0.6-0.7-1.12l-1.59-3.67
			v7.37c0,0.52-0.12,0.91-0.36,1.16s-0.67,0.38-1.28,0.38h-2.59C136.13,393.35,135.71,393.23,135.47,392.97z"/>
		<path d="M159.86,392.91c-1.33-0.57-2.37-1.39-3.11-2.46s-1.11-2.34-1.11-3.82v-10.1c0-0.52,0.12-0.91,0.37-1.16
			c0.24-0.25,0.66-0.38,1.26-0.38h3.21c0.61,0,1.04,0.12,1.28,0.37c0.24,0.24,0.37,0.63,0.37,1.17v10.18c0,0.85,0.21,1.48,0.63,1.89
			c0.42,0.41,1,0.62,1.74,0.62c0.74,0,1.32-0.21,1.74-0.62s0.63-1.04,0.63-1.89v-10.18c0-0.52,0.12-0.91,0.37-1.16
			c0.24-0.25,0.66-0.38,1.25-0.38h3.21c0.61,0,1.04,0.12,1.28,0.37c0.24,0.24,0.37,0.63,0.37,1.17v10.1c0,1.48-0.37,2.75-1.11,3.82
			s-1.77,1.89-3.11,2.46c-1.33,0.57-2.88,0.85-4.64,0.85C162.74,393.76,161.19,393.47,159.86,392.91z"/>
		<path d="M175.48,392.97c-0.24-0.25-0.37-0.64-0.37-1.16V376.5c0-0.52,0.12-0.91,0.37-1.15c0.24-0.24,0.67-0.37,1.28-0.37h2.57
			c0.38,0,0.67,0.05,0.88,0.15c0.21,0.1,0.41,0.29,0.61,0.58l4.89,7.26v-6.45c0-0.52,0.12-0.91,0.37-1.16
			c0.24-0.25,0.66-0.38,1.25-0.38h3.21c0.61,0,1.04,0.12,1.28,0.37c0.24,0.24,0.37,0.63,0.37,1.17v15.31c0,0.52-0.12,0.9-0.37,1.15
			c-0.24,0.24-0.67,0.36-1.28,0.36h-2.57c-0.38,0-0.67-0.05-0.88-0.15s-0.41-0.29-0.61-0.58l-4.89-7.26v6.48
			c0,0.52-0.12,0.9-0.37,1.15c-0.24,0.24-0.67,0.36-1.28,0.36h-3.21C176.14,393.35,175.72,393.23,175.48,392.97z"/>
		<path d="M194.43,392.97c-0.24-0.25-0.36-0.64-0.36-1.16v-15.28c0-0.52,0.12-0.91,0.36-1.16c0.24-0.25,0.66-0.38,1.26-0.38h3.21
			c0.61,0,1.04,0.12,1.28,0.37c0.24,0.24,0.36,0.63,0.36,1.17v15.28c0,0.52-0.12,0.91-0.36,1.16c-0.24,0.25-0.67,0.38-1.28,0.38
			h-3.21C195.1,393.35,194.68,393.23,194.43,392.97z"/>
		<path d="M204.63,391.34c-1.82-1.61-2.73-4-2.73-7.17c0-3.19,0.88-5.58,2.63-7.18c1.76-1.6,4.26-2.4,7.52-2.4
			c1.48,0,2.79,0.14,3.94,0.43c1.15,0.29,2.11,0.69,2.89,1.21c0.21,0.16,0.32,0.34,0.32,0.54c0,0.16-0.08,0.39-0.24,0.67l-1.35,2.32
			c-0.14,0.25-0.32,0.38-0.51,0.38c-0.13,0-0.33-0.07-0.62-0.22c-0.5-0.25-1.03-0.45-1.58-0.59c-0.55-0.14-1.19-0.22-1.93-0.22
			c-1.49,0-2.64,0.43-3.43,1.3c-0.79,0.86-1.19,2.12-1.19,3.75c0,1.62,0.43,2.87,1.3,3.74c0.86,0.87,2.04,1.31,3.54,1.31
			c1.29,0,2.48-0.27,3.56-0.81c0.29-0.14,0.5-0.22,0.62-0.22c0.2,0,0.37,0.13,0.51,0.38l1.35,2.32c0.16,0.29,0.24,0.51,0.24,0.67
			c0,0.2-0.11,0.38-0.32,0.54c-0.77,0.52-1.75,0.93-2.92,1.21c-1.17,0.29-2.49,0.43-3.97,0.43
			C208.99,393.76,206.44,392.95,204.63,391.34z"/>
		<path d="M219.61,392.79c0-0.16,0.04-0.36,0.13-0.59l6.72-16.17c0.16-0.38,0.35-0.64,0.55-0.8c0.21-0.15,0.5-0.23,0.88-0.23h2.94
			c0.38,0,0.67,0.08,0.88,0.23c0.21,0.15,0.39,0.42,0.55,0.8l6.7,16.17c0.09,0.23,0.13,0.43,0.13,0.59c0,0.38-0.2,0.57-0.59,0.57
			h-5.08c-0.56,0-0.91-0.24-1.05-0.73l-0.65-2h-4.78l-0.62,2c-0.14,0.49-0.49,0.73-1.05,0.73h-5.08
			C219.81,393.35,219.61,393.16,219.61,392.79z M230.41,386.36l-1.05-3.35l-1.05,3.35H230.41z"/>
		<path d="M241.16,391.34c-1.82-1.61-2.73-4-2.73-7.17c0-3.19,0.88-5.58,2.63-7.18c1.75-1.6,4.26-2.4,7.52-2.4
			c1.48,0,2.79,0.14,3.94,0.43c1.15,0.29,2.11,0.69,2.89,1.21c0.22,0.16,0.32,0.34,0.32,0.54c0,0.16-0.08,0.39-0.24,0.67l-1.35,2.32
			c-0.14,0.25-0.31,0.38-0.51,0.38c-0.13,0-0.33-0.07-0.62-0.22c-0.5-0.25-1.03-0.45-1.58-0.59c-0.55-0.14-1.19-0.22-1.93-0.22
			c-1.49,0-2.64,0.43-3.43,1.3c-0.79,0.86-1.19,2.12-1.19,3.75c0,1.62,0.43,2.87,1.3,3.74c0.86,0.87,2.04,1.31,3.54,1.31
			c1.3,0,2.48-0.27,3.56-0.81c0.29-0.14,0.49-0.22,0.62-0.22c0.2,0,0.37,0.13,0.51,0.38l1.35,2.32c0.16,0.29,0.24,0.51,0.24,0.67
			c0,0.2-0.11,0.38-0.32,0.54c-0.77,0.52-1.75,0.93-2.92,1.21c-1.17,0.29-2.49,0.43-3.97,0.43
			C245.52,393.76,242.98,392.95,241.16,391.34z"/>
		<path d="M257.72,392.97c-0.24-0.25-0.37-0.64-0.37-1.16v-15.28c0-0.52,0.12-0.91,0.37-1.16c0.24-0.25,0.66-0.38,1.25-0.38h3.21
			c0.61,0,1.04,0.12,1.28,0.37c0.24,0.24,0.37,0.63,0.37,1.17v15.28c0,0.52-0.12,0.91-0.37,1.16c-0.24,0.25-0.67,0.38-1.28,0.38
			h-3.21C258.38,393.35,257.96,393.23,257.72,392.97z"/>
		<path d="M267.67,391.26c-1.66-1.66-2.48-4.03-2.48-7.09c0-3.06,0.83-5.42,2.48-7.09s4.09-2.5,7.29-2.5s5.63,0.83,7.29,2.5
			s2.48,4.03,2.48,7.09c0,3.06-0.83,5.42-2.48,7.09c-1.66,1.67-4.09,2.5-7.29,2.5S269.33,392.92,267.67,391.26z M277.5,387.97
			c0.52-0.84,0.78-2.1,0.78-3.79c0-1.71-0.26-2.98-0.78-3.81c-0.52-0.83-1.37-1.24-2.54-1.24c-1.17,0-2.02,0.41-2.54,1.24
			c-0.52,0.83-0.78,2.1-0.78,3.81c0,1.69,0.26,2.96,0.78,3.79c0.52,0.84,1.37,1.26,2.54,1.26
			C276.13,389.22,276.98,388.8,277.5,387.97z M272.1,372.72c0-0.14,0.03-0.3,0.08-0.46l1.13-3.13c0.14-0.41,0.31-0.69,0.51-0.84
			c0.2-0.14,0.57-0.22,1.11-0.22h3.86c0.38,0,0.67,0.07,0.89,0.2s0.32,0.33,0.32,0.58c0,0.22-0.07,0.44-0.22,0.67l-1.73,2.92
			c-0.25,0.43-0.5,0.71-0.73,0.84c-0.23,0.13-0.66,0.19-1.27,0.19h-2.89C272.46,373.48,272.1,373.23,272.1,372.72z"/>
		<path d="M286.45,392.97c-0.24-0.25-0.36-0.64-0.36-1.16V376.5c0-0.52,0.12-0.91,0.36-1.15c0.24-0.24,0.67-0.37,1.28-0.37h2.57
			c0.38,0,0.67,0.05,0.88,0.15c0.21,0.1,0.41,0.29,0.61,0.58l4.89,7.26v-6.45c0-0.52,0.12-0.91,0.36-1.16
			c0.24-0.25,0.66-0.38,1.25-0.38h3.21c0.61,0,1.04,0.12,1.28,0.37c0.24,0.24,0.36,0.63,0.36,1.17v15.31c0,0.52-0.12,0.9-0.36,1.15
			s-0.67,0.36-1.28,0.36h-2.56c-0.38,0-0.67-0.05-0.88-0.15c-0.21-0.1-0.41-0.29-0.61-0.58l-4.89-7.26v6.48
			c0,0.52-0.12,0.9-0.36,1.15s-0.67,0.36-1.28,0.36h-3.21C287.11,393.35,286.69,393.23,286.45,392.97z"/>
		<path d="M123.24,425.37c-0.24-0.25-0.37-0.64-0.37-1.16V408.9c0-0.52,0.12-0.91,0.37-1.15c0.24-0.24,0.67-0.37,1.28-0.37h3.11
			c0.4,0,0.71,0.05,0.95,0.15c0.23,0.1,0.41,0.29,0.54,0.58l3.16,7.91l3.16-7.91c0.13-0.29,0.31-0.48,0.54-0.58
			c0.23-0.1,0.55-0.15,0.94-0.15h3.1c0.61,0,1.04,0.12,1.28,0.37c0.24,0.24,0.36,0.63,0.36,1.15v15.31c0,0.52-0.12,0.91-0.36,1.16
			s-0.66,0.38-1.26,0.38h-2.59c-0.59,0-1.02-0.13-1.27-0.38s-0.38-0.64-0.38-1.16v-7.37l-1.59,3.67c-0.22,0.52-0.45,0.9-0.7,1.12
			c-0.25,0.22-0.67,0.34-1.24,0.34s-0.99-0.11-1.24-0.34c-0.25-0.23-0.49-0.6-0.7-1.12l-1.59-3.67v7.37c0,0.52-0.12,0.91-0.37,1.16
			c-0.24,0.25-0.67,0.38-1.28,0.38h-2.59C123.9,425.75,123.48,425.63,123.24,425.37z"/>
		<path d="M142.34,425.18c0-0.16,0.04-0.36,0.13-0.59l6.72-16.17c0.16-0.38,0.35-0.64,0.55-0.8c0.21-0.15,0.5-0.23,0.88-0.23h2.94
			c0.38,0,0.67,0.08,0.88,0.23c0.21,0.15,0.39,0.42,0.55,0.8l6.7,16.17c0.09,0.23,0.13,0.43,0.13,0.59c0,0.38-0.2,0.57-0.59,0.57
			h-5.08c-0.56,0-0.91-0.24-1.05-0.73l-0.65-2h-4.78l-0.62,2c-0.14,0.49-0.49,0.73-1.05,0.73h-5.08
			C142.54,425.75,142.34,425.56,142.34,425.18z M149.2,405.77c0-0.14,0.03-0.3,0.08-0.46l1.13-3.13c0.14-0.41,0.31-0.69,0.51-0.84
			c0.2-0.14,0.57-0.22,1.11-0.22h3.86c0.38,0,0.67,0.07,0.89,0.2c0.22,0.14,0.32,0.33,0.32,0.58c0,0.22-0.07,0.44-0.22,0.67
			l-1.73,2.92c-0.25,0.43-0.5,0.71-0.73,0.84c-0.23,0.13-0.66,0.19-1.27,0.19h-2.89C149.56,406.53,149.2,406.28,149.2,405.77z
			 M153.14,418.76l-1.05-3.35l-1.05,3.35H153.14z"/>
		<path d="M165.4,425.64c-1.4-0.34-2.54-0.82-3.4-1.43c-0.36-0.25-0.54-0.5-0.54-0.73c0-0.16,0.06-0.33,0.19-0.51l1.57-2.46
			c0.16-0.23,0.32-0.35,0.49-0.35c0.14,0,0.31,0.06,0.51,0.19c0.65,0.4,1.39,0.71,2.23,0.93c0.84,0.23,1.65,0.34,2.44,0.34
			c0.67,0,1.15-0.09,1.45-0.27c0.3-0.18,0.45-0.46,0.45-0.84c0-0.41-0.2-0.75-0.59-1c-0.4-0.25-1.08-0.57-2.05-0.94
			c-1.82-0.7-3.25-1.5-4.29-2.39c-1.04-0.89-1.57-2.07-1.57-3.55c0-1.87,0.65-3.28,1.96-4.23c1.3-0.95,3.06-1.42,5.28-1.42
			c1.55,0,2.87,0.13,3.96,0.4c1.09,0.27,2.04,0.69,2.85,1.27c0.36,0.25,0.54,0.5,0.54,0.73c0,0.16-0.06,0.33-0.19,0.51l-1.57,2.46
			c-0.16,0.25-0.32,0.38-0.49,0.38c-0.11,0-0.28-0.07-0.51-0.22c-0.43-0.29-0.94-0.53-1.54-0.71c-0.59-0.19-1.23-0.28-1.92-0.28
			c-0.63,0-1.11,0.09-1.43,0.27s-0.49,0.47-0.49,0.86c0,0.32,0.11,0.59,0.34,0.81s0.51,0.4,0.85,0.55c0.34,0.15,0.94,0.4,1.78,0.74
			c1.35,0.54,2.41,1.06,3.19,1.55s1.36,1.09,1.76,1.78c0.4,0.69,0.59,1.57,0.59,2.63c0,1.62-0.61,2.93-1.82,3.93s-3.03,1.5-5.44,1.5
			C168.32,426.16,166.8,425.99,165.4,425.64z"/>
		<path d="M187.04,425.37c-0.24-0.25-0.36-0.64-0.36-1.16v-15.28c0-0.52,0.12-0.91,0.36-1.16c0.24-0.25,0.66-0.38,1.25-0.38h11.18
			c0.58,0,0.97,0.12,1.17,0.37c0.21,0.24,0.31,0.63,0.31,1.17v1.51c0,0.54-0.1,0.93-0.31,1.17c-0.21,0.24-0.6,0.37-1.17,0.37h-6.32
			v2.32h3.89c0.58,0,0.97,0.12,1.17,0.36c0.21,0.24,0.31,0.63,0.31,1.17v1.46c0,0.54-0.1,0.93-0.31,1.17s-0.6,0.36-1.17,0.36h-3.89
			v2.32h6.29c0.58,0,0.97,0.12,1.17,0.36s0.31,0.63,0.31,1.17v1.51c0,0.54-0.1,0.93-0.31,1.17s-0.6,0.36-1.17,0.36h-11.15
			C187.7,425.75,187.28,425.63,187.04,425.37z"/>
		<path d="M202.53,425.37c-0.24-0.25-0.36-0.64-0.36-1.16v-15.28c0-0.52,0.12-0.91,0.36-1.16c0.24-0.25,0.66-0.38,1.26-0.38h11.18
			c0.58,0,0.97,0.12,1.17,0.37c0.21,0.24,0.31,0.63,0.31,1.17v1.51c0,0.54-0.1,0.93-0.31,1.17c-0.21,0.24-0.6,0.37-1.17,0.37h-6.32
			v2.29h3.89c0.58,0,0.97,0.12,1.17,0.36s0.31,0.63,0.31,1.17v1.51c0,0.54-0.1,0.93-0.31,1.17c-0.21,0.24-0.6,0.36-1.17,0.36h-3.89
			v5.35c0,0.52-0.12,0.91-0.36,1.16c-0.24,0.25-0.67,0.38-1.28,0.38h-3.21C203.2,425.75,202.78,425.63,202.53,425.37z"/>
		<path d="M217.76,425.37c-0.24-0.25-0.37-0.64-0.37-1.16v-15.28c0-0.52,0.12-0.91,0.37-1.16c0.24-0.25,0.66-0.38,1.26-0.38h3.21
			c0.61,0,1.04,0.12,1.28,0.37c0.24,0.24,0.36,0.63,0.36,1.17v15.28c0,0.52-0.12,0.91-0.36,1.16s-0.67,0.38-1.28,0.38h-3.21
			C218.42,425.75,218,425.63,217.76,425.37z"/>
		<path d="M227.95,423.74c-1.82-1.61-2.73-4-2.73-7.17c0-3.19,0.88-5.58,2.63-7.18c1.76-1.6,4.26-2.4,7.52-2.4
			c1.48,0,2.79,0.14,3.94,0.43c1.15,0.29,2.11,0.69,2.89,1.21c0.21,0.16,0.32,0.34,0.32,0.54c0,0.16-0.08,0.39-0.24,0.67l-1.35,2.32
			c-0.14,0.25-0.32,0.38-0.51,0.38c-0.13,0-0.33-0.07-0.62-0.22c-0.5-0.25-1.03-0.45-1.58-0.59c-0.55-0.14-1.19-0.22-1.93-0.22
			c-1.49,0-2.64,0.43-3.43,1.3c-0.79,0.86-1.19,2.12-1.19,3.75c0,1.62,0.43,2.87,1.3,3.74c0.86,0.87,2.04,1.31,3.54,1.31
			c1.29,0,2.48-0.27,3.56-0.81c0.29-0.14,0.5-0.22,0.62-0.22c0.2,0,0.37,0.13,0.51,0.38l1.35,2.32c0.16,0.29,0.24,0.51,0.24,0.67
			c0,0.2-0.11,0.38-0.32,0.54c-0.77,0.52-1.75,0.93-2.92,1.21c-1.17,0.29-2.49,0.43-3.97,0.43
			C232.32,426.16,229.77,425.35,227.95,423.74z"/>
		<path d="M242.94,425.18c0-0.16,0.04-0.36,0.13-0.59l6.72-16.17c0.16-0.38,0.35-0.64,0.55-0.8c0.21-0.15,0.5-0.23,0.88-0.23h2.94
			c0.38,0,0.67,0.08,0.88,0.23c0.21,0.15,0.39,0.42,0.55,0.8l6.7,16.17c0.09,0.23,0.13,0.43,0.13,0.59c0,0.38-0.2,0.57-0.59,0.57
			h-5.08c-0.56,0-0.91-0.24-1.05-0.73l-0.65-2h-4.78l-0.62,2c-0.14,0.49-0.5,0.73-1.05,0.73h-5.08
			C243.14,425.75,242.94,425.56,242.94,425.18z M253.74,418.76l-1.05-3.35l-1.05,3.35H253.74z"/>
		<path d="M263.11,425.44c-0.18-0.21-0.27-0.59-0.27-1.15c0-0.58,0.05-1.03,0.15-1.35c0.1-0.32,0.35-0.75,0.74-1.27l7.1-9.69h-6.24
			c-0.59,0-1.01-0.13-1.26-0.38c-0.24-0.25-0.37-0.64-0.37-1.16v-1.51c0-0.52,0.12-0.91,0.37-1.16c0.24-0.25,0.66-0.38,1.26-0.38
			h13.34c0.54,0,0.9,0.1,1.08,0.31c0.18,0.21,0.27,0.59,0.27,1.15c0,0.56-0.05,1-0.15,1.32c-0.1,0.32-0.35,0.76-0.74,1.3l-7.05,9.69
			h6.37c0.59,0,1.01,0.13,1.26,0.38c0.24,0.25,0.36,0.64,0.36,1.16v1.51c0,0.52-0.12,0.91-0.36,1.16c-0.24,0.25-0.66,0.38-1.26,0.38
			h-13.53C263.65,425.75,263.29,425.65,263.11,425.44z"/>
		<path d="M93.08,457.77c-0.24-0.25-0.36-0.64-0.36-1.16v-15.28c0-0.52,0.12-0.91,0.36-1.16c0.24-0.25,0.66-0.38,1.26-0.38h6.45
			c2.7,0,4.67,0.54,5.9,1.61c1.23,1.07,1.85,2.69,1.85,4.85s-0.62,3.77-1.85,4.83c-1.23,1.06-3.19,1.59-5.87,1.59h-1.62v3.94
			c0,0.52-0.12,0.91-0.36,1.16c-0.24,0.25-0.67,0.38-1.28,0.38h-3.21C93.74,458.15,93.32,458.03,93.08,457.77z M100.22,448.08
			c0.58,0,1.03-0.15,1.36-0.46c0.33-0.31,0.5-0.76,0.5-1.38c0-0.63-0.17-1.1-0.5-1.4c-0.33-0.31-0.79-0.46-1.36-0.46h-1.84v3.7
			H100.22z"/>
		<path d="M106.1,457.58c0-0.16,0.04-0.36,0.14-0.59l6.72-16.17c0.16-0.38,0.35-0.64,0.55-0.8c0.21-0.15,0.5-0.23,0.88-0.23h2.94
			c0.38,0,0.67,0.08,0.88,0.23c0.21,0.15,0.39,0.42,0.55,0.8l6.7,16.17c0.09,0.23,0.13,0.43,0.13,0.59c0,0.38-0.2,0.57-0.59,0.57
			h-5.08c-0.56,0-0.91-0.24-1.05-0.73l-0.65-2h-4.78l-0.62,2c-0.14,0.49-0.5,0.73-1.05,0.73h-5.08
			C106.3,458.15,106.1,457.96,106.1,457.58z M116.9,451.16l-1.05-3.35l-1.05,3.35H116.9z"/>
		<path d="M127.31,457.77c-0.24-0.25-0.36-0.64-0.36-1.16v-15.28c0-0.52,0.12-0.91,0.36-1.16c0.24-0.25,0.66-0.38,1.26-0.38h6.45
			c2.7,0,4.67,0.54,5.9,1.61c1.23,1.07,1.85,2.69,1.85,4.85c0,1.3-0.22,2.39-0.66,3.28c-0.44,0.89-1.12,1.59-2.04,2.09l2.51,5.37
			c0.07,0.14,0.11,0.31,0.11,0.49c0,0.2-0.07,0.36-0.2,0.49c-0.13,0.13-0.31,0.19-0.53,0.19h-4.56c-0.29,0-0.52-0.04-0.69-0.12
			c-0.17-0.08-0.29-0.22-0.37-0.42l-2-5.02h-0.92v4.02c0,0.52-0.12,0.91-0.36,1.16c-0.24,0.25-0.67,0.38-1.28,0.38h-3.21
			C127.97,458.15,127.56,458.03,127.31,457.77z M134.46,448.08c0.58,0,1.03-0.15,1.36-0.46c0.33-0.31,0.5-0.76,0.5-1.38
			c0-0.63-0.17-1.1-0.5-1.4c-0.33-0.31-0.79-0.46-1.36-0.46h-1.84v3.7H134.46z"/>
		<path d="M142.37,457.58c0-0.16,0.04-0.36,0.13-0.59l6.72-16.17c0.16-0.38,0.35-0.64,0.55-0.8c0.21-0.15,0.5-0.23,0.88-0.23h2.94
			c0.38,0,0.67,0.08,0.88,0.23c0.21,0.15,0.39,0.42,0.55,0.8l6.7,16.17c0.09,0.23,0.13,0.43,0.13,0.59c0,0.38-0.2,0.57-0.59,0.57
			h-5.08c-0.56,0-0.91-0.24-1.05-0.73l-0.65-2h-4.78l-0.62,2c-0.14,0.49-0.5,0.73-1.05,0.73h-5.08
			C142.56,458.15,142.37,457.96,142.37,457.58z M153.17,451.16l-1.05-3.35l-1.05,3.35H153.17z"/>
		<path d="M173.5,456.14c-1.82-1.61-2.73-4-2.73-7.17c0-3.19,0.88-5.58,2.63-7.18c1.75-1.6,4.26-2.4,7.52-2.4
			c1.48,0,2.79,0.14,3.94,0.43c1.15,0.29,2.11,0.69,2.89,1.21c0.22,0.16,0.32,0.34,0.32,0.54c0,0.16-0.08,0.39-0.24,0.67l-1.35,2.32
			c-0.14,0.25-0.31,0.38-0.51,0.38c-0.13,0-0.33-0.07-0.62-0.22c-0.5-0.25-1.03-0.45-1.58-0.59c-0.55-0.14-1.19-0.22-1.93-0.22
			c-1.49,0-2.64,0.43-3.43,1.3c-0.79,0.86-1.19,2.12-1.19,3.75c0,1.62,0.43,2.87,1.3,3.74c0.86,0.87,2.04,1.31,3.54,1.31
			c1.3,0,2.48-0.27,3.56-0.81c0.29-0.14,0.49-0.22,0.62-0.22c0.2,0,0.37,0.13,0.51,0.38l1.35,2.32c0.16,0.29,0.24,0.51,0.24,0.67
			c0,0.2-0.11,0.38-0.32,0.54c-0.77,0.52-1.75,0.93-2.92,1.21c-1.17,0.29-2.49,0.43-3.97,0.43
			C177.86,458.56,175.31,457.75,173.5,456.14z"/>
		<path d="M190.42,456.06c-1.66-1.66-2.48-4.03-2.48-7.09c0-3.06,0.83-5.42,2.48-7.09c1.66-1.67,4.09-2.5,7.29-2.5
			c3.2,0,5.63,0.83,7.29,2.5c1.66,1.67,2.48,4.03,2.48,7.09c0,3.06-0.83,5.42-2.48,7.09c-1.66,1.67-4.09,2.5-7.29,2.5
			C194.51,458.56,192.08,457.72,190.42,456.06z M200.25,452.77c0.52-0.84,0.78-2.1,0.78-3.79c0-1.71-0.26-2.98-0.78-3.81
			c-0.52-0.83-1.37-1.24-2.54-1.24s-2.02,0.41-2.54,1.24c-0.52,0.83-0.78,2.1-0.78,3.81c0,1.69,0.26,2.96,0.78,3.79
			s1.37,1.26,2.54,1.26S199.73,453.6,200.25,452.77z"/>
		<path d="M209.2,457.77c-0.24-0.25-0.37-0.64-0.37-1.16V441.3c0-0.52,0.12-0.91,0.37-1.15c0.24-0.24,0.67-0.37,1.28-0.37h2.57
			c0.38,0,0.67,0.05,0.88,0.15c0.21,0.1,0.41,0.29,0.61,0.58l4.89,7.26v-6.45c0-0.52,0.12-0.91,0.37-1.16
			c0.24-0.25,0.66-0.38,1.26-0.38h3.21c0.61,0,1.04,0.12,1.28,0.37c0.24,0.24,0.36,0.63,0.36,1.17v15.31c0,0.52-0.12,0.9-0.36,1.15
			s-0.67,0.36-1.28,0.36h-2.57c-0.38,0-0.67-0.05-0.88-0.15s-0.41-0.29-0.61-0.58l-4.89-7.26v6.48c0,0.52-0.12,0.9-0.36,1.15
			s-0.67,0.36-1.28,0.36h-3.21C209.87,458.15,209.45,458.03,209.2,457.77z"/>
		<path d="M228.16,457.77c-0.24-0.25-0.36-0.64-0.36-1.16v-15.28c0-0.52,0.12-0.91,0.36-1.16c0.24-0.25,0.66-0.38,1.25-0.38h11.18
			c0.58,0,0.97,0.12,1.17,0.37c0.21,0.24,0.31,0.63,0.31,1.17v1.51c0,0.54-0.1,0.93-0.31,1.17c-0.21,0.24-0.6,0.37-1.17,0.37h-6.32
			v2.32h3.89c0.58,0,0.97,0.12,1.17,0.36c0.21,0.24,0.31,0.63,0.31,1.17v1.46c0,0.54-0.1,0.93-0.31,1.17s-0.6,0.36-1.17,0.36h-3.89
			v2.32h6.29c0.58,0,0.97,0.12,1.17,0.36s0.31,0.63,0.31,1.17v1.51c0,0.54-0.1,0.93-0.31,1.17s-0.6,0.36-1.17,0.36h-11.15
			C228.82,458.15,228.4,458.03,228.16,457.77z"/>
		<path d="M244.26,456.14c-1.82-1.61-2.73-4-2.73-7.17c0-3.19,0.88-5.58,2.63-7.18c1.75-1.6,4.26-2.4,7.52-2.4
			c1.48,0,2.79,0.14,3.94,0.43s2.12,0.69,2.89,1.21c0.22,0.16,0.32,0.34,0.32,0.54c0,0.16-0.08,0.39-0.24,0.67l-1.35,2.32
			c-0.14,0.25-0.32,0.38-0.51,0.38c-0.13,0-0.33-0.07-0.62-0.22c-0.5-0.25-1.03-0.45-1.58-0.59c-0.55-0.14-1.19-0.22-1.93-0.22
			c-1.49,0-2.64,0.43-3.43,1.3c-0.79,0.86-1.19,2.12-1.19,3.75c0,1.62,0.43,2.87,1.3,3.74s2.04,1.31,3.54,1.31
			c1.3,0,2.48-0.27,3.56-0.81c0.29-0.14,0.5-0.22,0.62-0.22c0.2,0,0.37,0.13,0.51,0.38l1.35,2.32c0.16,0.29,0.24,0.51,0.24,0.67
			c0,0.2-0.11,0.38-0.32,0.54c-0.78,0.52-1.75,0.93-2.92,1.21c-1.17,0.29-2.49,0.43-3.97,0.43
			C248.63,458.56,246.08,457.75,244.26,456.14z"/>
		<path d="M264.45,457.77c-0.24-0.25-0.37-0.64-0.37-1.16v-12.23h-3.89c-0.58,0-0.97-0.12-1.17-0.37s-0.31-0.63-0.31-1.17v-1.51
			c0-0.54,0.1-0.93,0.31-1.17c0.21-0.24,0.6-0.37,1.17-0.37h14.26c0.58,0,0.97,0.12,1.17,0.37c0.21,0.24,0.31,0.63,0.31,1.17v1.51
			c0,0.54-0.1,0.93-0.31,1.17s-0.6,0.37-1.17,0.37h-3.89v12.23c0,0.52-0.12,0.91-0.37,1.16c-0.24,0.25-0.67,0.38-1.28,0.38h-3.21
			C265.11,458.15,264.69,458.03,264.45,457.77z"/>
		<path d="M272.83,457.58c0-0.16,0.04-0.36,0.13-0.59l6.72-16.17c0.16-0.38,0.35-0.64,0.55-0.8c0.21-0.15,0.5-0.23,0.88-0.23h2.94
			c0.38,0,0.67,0.08,0.88,0.23c0.21,0.15,0.39,0.42,0.55,0.8l6.7,16.17c0.09,0.23,0.13,0.43,0.13,0.59c0,0.38-0.2,0.57-0.59,0.57
			h-5.08c-0.56,0-0.91-0.24-1.05-0.73l-0.65-2h-4.78l-0.62,2c-0.14,0.49-0.49,0.73-1.05,0.73h-5.08
			C273.03,458.15,272.83,457.96,272.83,457.58z M283.63,451.16l-1.05-3.35l-1.05,3.35H283.63z"/>
		<path d="M294.04,457.77c-0.24-0.25-0.37-0.64-0.37-1.16v-15.28c0-0.52,0.12-0.91,0.37-1.16c0.24-0.25,0.66-0.38,1.25-0.38h6.45
			c2.7,0,4.67,0.54,5.9,1.61c1.23,1.07,1.85,2.69,1.85,4.85c0,1.3-0.22,2.39-0.66,3.28c-0.44,0.89-1.12,1.59-2.04,2.09l2.51,5.37
			c0.07,0.14,0.11,0.31,0.11,0.49c0,0.2-0.07,0.36-0.2,0.49c-0.13,0.13-0.31,0.19-0.53,0.19h-4.56c-0.29,0-0.52-0.04-0.69-0.12
			s-0.29-0.22-0.36-0.42l-2-5.02h-0.92v4.02c0,0.52-0.12,0.91-0.37,1.16c-0.24,0.25-0.67,0.38-1.28,0.38h-3.21
			C294.7,458.15,294.28,458.03,294.04,457.77z M301.18,448.08c0.58,0,1.03-0.15,1.36-0.46c0.33-0.31,0.5-0.76,0.5-1.38
			c0-0.63-0.17-1.1-0.5-1.4c-0.33-0.31-0.79-0.46-1.36-0.46h-1.84v3.7H301.18z"/>
		<path d="M78.51,488.54c-1.82-1.61-2.73-4-2.73-7.17c0-3.19,0.88-5.58,2.63-7.18c1.76-1.6,4.26-2.4,7.52-2.4
			c1.48,0,2.79,0.14,3.94,0.43c1.15,0.29,2.11,0.69,2.89,1.21c0.21,0.16,0.32,0.34,0.32,0.54c0,0.16-0.08,0.39-0.24,0.67l-1.35,2.32
			c-0.14,0.25-0.32,0.38-0.51,0.38c-0.13,0-0.33-0.07-0.62-0.22c-0.5-0.25-1.03-0.45-1.58-0.59c-0.55-0.14-1.19-0.22-1.93-0.22
			c-1.49,0-2.64,0.43-3.43,1.3c-0.79,0.86-1.19,2.12-1.19,3.75c0,1.62,0.43,2.87,1.3,3.74c0.86,0.87,2.04,1.31,3.54,1.31
			c1.29,0,2.48-0.27,3.56-0.81c0.29-0.14,0.5-0.22,0.62-0.22c0.2,0,0.37,0.13,0.51,0.38l1.35,2.32c0.16,0.29,0.24,0.51,0.24,0.67
			c0,0.2-0.11,0.38-0.32,0.54c-0.77,0.52-1.75,0.93-2.92,1.21c-1.17,0.29-2.49,0.43-3.97,0.43
			C82.88,490.96,80.33,490.15,78.51,488.54z"/>
		<path d="M95.44,488.46c-1.66-1.66-2.48-4.03-2.48-7.09c0-3.06,0.83-5.42,2.48-7.09s4.09-2.5,7.29-2.5c3.2,0,5.63,0.83,7.29,2.5
			s2.48,4.03,2.48,7.09c0,3.06-0.83,5.42-2.48,7.09c-1.66,1.67-4.09,2.5-7.29,2.5C99.53,490.96,97.1,490.12,95.44,488.46z
			 M105.27,485.17c0.52-0.84,0.78-2.1,0.78-3.79c0-1.71-0.26-2.98-0.78-3.81c-0.52-0.83-1.37-1.24-2.54-1.24
			c-1.17,0-2.02,0.41-2.54,1.24c-0.52,0.83-0.78,2.1-0.78,3.81c0,1.69,0.26,2.96,0.78,3.79c0.52,0.84,1.37,1.26,2.54,1.26
			C103.9,486.42,104.75,486,105.27,485.17z"/>
		<path d="M114.22,490.17c-0.24-0.25-0.37-0.64-0.37-1.16V473.7c0-0.52,0.12-0.91,0.37-1.15c0.24-0.24,0.67-0.37,1.28-0.37h2.57
			c0.38,0,0.67,0.05,0.88,0.15c0.21,0.1,0.41,0.29,0.61,0.58l4.89,7.26v-6.45c0-0.52,0.12-0.91,0.37-1.16
			c0.24-0.25,0.66-0.38,1.25-0.38h3.21c0.61,0,1.04,0.12,1.28,0.37c0.24,0.24,0.37,0.63,0.37,1.17v15.31c0,0.52-0.12,0.9-0.37,1.15
			c-0.24,0.24-0.67,0.36-1.28,0.36h-2.57c-0.38,0-0.67-0.05-0.88-0.15s-0.41-0.29-0.61-0.58l-4.89-7.26v6.48
			c0,0.52-0.12,0.9-0.37,1.15c-0.24,0.24-0.67,0.36-1.28,0.36h-3.21C114.88,490.55,114.46,490.43,114.22,490.17z"/>
		<path d="M145.56,490.17c-0.24-0.25-0.36-0.64-0.36-1.16v-12.23h-3.89c-0.58,0-0.97-0.12-1.17-0.37c-0.21-0.24-0.31-0.63-0.31-1.17
			v-1.51c0-0.54,0.1-0.93,0.31-1.17c0.21-0.24,0.6-0.37,1.17-0.37h14.26c0.58,0,0.97,0.12,1.17,0.37c0.21,0.24,0.31,0.63,0.31,1.17
			v1.51c0,0.54-0.1,0.93-0.31,1.17s-0.6,0.37-1.17,0.37h-3.89v12.23c0,0.52-0.12,0.91-0.36,1.16c-0.24,0.25-0.67,0.38-1.28,0.38
			h-3.21C146.23,490.55,145.81,490.43,145.56,490.17z"/>
		<path d="M161.94,490.11c-1.33-0.57-2.37-1.39-3.1-2.46c-0.74-1.07-1.11-2.34-1.11-3.82v-10.1c0-0.52,0.12-0.91,0.36-1.16
			c0.24-0.25,0.66-0.38,1.26-0.38h3.21c0.61,0,1.04,0.12,1.28,0.37c0.24,0.24,0.36,0.63,0.36,1.17v10.18c0,0.85,0.21,1.48,0.63,1.89
			c0.42,0.41,1,0.62,1.74,0.62s1.32-0.21,1.74-0.62c0.42-0.41,0.63-1.04,0.63-1.89v-10.18c0-0.52,0.12-0.91,0.36-1.16
			c0.24-0.25,0.66-0.38,1.26-0.38h3.21c0.61,0,1.04,0.12,1.28,0.37c0.24,0.24,0.36,0.63,0.36,1.17v10.1c0,1.48-0.37,2.75-1.11,3.82
			c-0.74,1.07-1.77,1.89-3.1,2.46c-1.33,0.57-2.88,0.85-4.64,0.85S163.27,490.67,161.94,490.11z"/>
		<path d="M180.62,490.44c-1.4-0.34-2.54-0.82-3.4-1.43c-0.36-0.25-0.54-0.5-0.54-0.73c0-0.16,0.06-0.33,0.19-0.51l1.57-2.46
			c0.16-0.23,0.32-0.35,0.49-0.35c0.14,0,0.32,0.06,0.51,0.19c0.65,0.4,1.39,0.71,2.23,0.93c0.84,0.23,1.65,0.34,2.44,0.34
			c0.67,0,1.15-0.09,1.44-0.27c0.3-0.18,0.45-0.46,0.45-0.84c0-0.41-0.2-0.75-0.59-1c-0.4-0.25-1.08-0.57-2.05-0.94
			c-1.82-0.7-3.25-1.5-4.29-2.39c-1.04-0.89-1.57-2.07-1.57-3.55c0-1.87,0.65-3.28,1.96-4.23s3.06-1.42,5.28-1.42
			c1.55,0,2.87,0.13,3.96,0.4c1.09,0.27,2.04,0.69,2.85,1.27c0.36,0.25,0.54,0.5,0.54,0.73c0,0.16-0.06,0.33-0.19,0.51l-1.57,2.46
			c-0.16,0.25-0.32,0.38-0.49,0.38c-0.11,0-0.28-0.07-0.51-0.22c-0.43-0.29-0.95-0.53-1.54-0.71c-0.59-0.19-1.23-0.28-1.92-0.28
			c-0.63,0-1.11,0.09-1.43,0.27c-0.32,0.18-0.49,0.47-0.49,0.86c0,0.32,0.11,0.59,0.34,0.81c0.22,0.22,0.51,0.4,0.85,0.55
			c0.34,0.15,0.94,0.4,1.78,0.74c1.35,0.54,2.41,1.06,3.19,1.55c0.77,0.5,1.36,1.09,1.75,1.78c0.4,0.69,0.59,1.57,0.59,2.63
			c0,1.62-0.61,2.93-1.82,3.93s-3.03,1.5-5.44,1.5C183.55,490.96,182.03,490.79,180.62,490.44z"/>
		<path d="M204.09,488.54c-1.82-1.61-2.73-4-2.73-7.17c0-3.19,0.88-5.58,2.63-7.18c1.75-1.6,4.26-2.4,7.52-2.4
			c1.47,0,2.79,0.14,3.94,0.43s2.12,0.69,2.89,1.21c0.22,0.16,0.32,0.34,0.32,0.54c0,0.16-0.08,0.39-0.24,0.67l-1.35,2.32
			c-0.14,0.25-0.32,0.38-0.51,0.38c-0.13,0-0.33-0.07-0.62-0.22c-0.5-0.25-1.03-0.45-1.58-0.59c-0.55-0.14-1.19-0.22-1.93-0.22
			c-1.49,0-2.64,0.43-3.43,1.3c-0.79,0.86-1.19,2.12-1.19,3.75c0,1.62,0.43,2.87,1.29,3.74c0.87,0.87,2.04,1.31,3.54,1.31
			c1.3,0,2.48-0.27,3.56-0.81c0.29-0.14,0.5-0.22,0.62-0.22c0.2,0,0.37,0.13,0.51,0.38l1.35,2.32c0.16,0.29,0.24,0.51,0.24,0.67
			c0,0.2-0.11,0.38-0.32,0.54c-0.77,0.52-1.75,0.93-2.92,1.21c-1.17,0.29-2.49,0.43-3.97,0.43
			C208.45,490.96,205.9,490.15,204.09,488.54z"/>
		<path d="M220.65,490.17c-0.24-0.25-0.36-0.64-0.36-1.16v-15.28c0-0.52,0.12-0.91,0.36-1.16c0.24-0.25,0.66-0.38,1.26-0.38h3.21
			c0.61,0,1.04,0.12,1.28,0.37c0.24,0.24,0.36,0.63,0.36,1.17v12.23h6.29c0.58,0,0.97,0.12,1.18,0.36c0.21,0.24,0.31,0.63,0.31,1.17
			v1.51c0,0.54-0.1,0.93-0.31,1.17c-0.21,0.24-0.6,0.36-1.18,0.36h-11.15C221.31,490.55,220.89,490.43,220.65,490.17z"/>
		<path d="M235.72,490.17c-0.24-0.25-0.37-0.64-0.37-1.16v-15.28c0-0.52,0.12-0.91,0.37-1.16c0.24-0.25,0.66-0.38,1.26-0.38h3.21
			c0.61,0,1.04,0.12,1.28,0.37c0.24,0.24,0.36,0.63,0.36,1.17v15.28c0,0.52-0.12,0.91-0.36,1.16s-0.67,0.38-1.28,0.38h-3.21
			C236.38,490.55,235.96,490.43,235.72,490.17z"/>
		<path d="M244.09,490.17c-0.24-0.25-0.36-0.64-0.36-1.16v-15.28c0-0.52,0.12-0.91,0.36-1.16c0.24-0.25,0.66-0.38,1.25-0.38h11.18
			c0.58,0,0.97,0.12,1.17,0.37c0.21,0.24,0.31,0.63,0.31,1.17v1.51c0,0.54-0.1,0.93-0.31,1.17c-0.21,0.24-0.6,0.37-1.17,0.37h-6.32
			v2.32h3.89c0.58,0,0.97,0.12,1.17,0.36c0.21,0.24,0.31,0.63,0.31,1.17v1.46c0,0.54-0.1,0.93-0.31,1.17s-0.6,0.36-1.17,0.36h-3.89
			v2.32h6.29c0.58,0,0.97,0.12,1.17,0.36s0.31,0.63,0.31,1.17v1.51c0,0.54-0.1,0.93-0.31,1.17s-0.6,0.36-1.17,0.36h-11.15
			C244.75,490.55,244.33,490.43,244.09,490.17z"/>
		<path d="M259.58,490.17c-0.24-0.25-0.36-0.64-0.36-1.16V473.7c0-0.52,0.12-0.91,0.36-1.15c0.24-0.24,0.67-0.37,1.28-0.37h2.56
			c0.38,0,0.67,0.05,0.88,0.15c0.21,0.1,0.41,0.29,0.61,0.58l4.89,7.26v-6.45c0-0.52,0.12-0.91,0.36-1.16
			c0.24-0.25,0.66-0.38,1.26-0.38h3.21c0.61,0,1.04,0.12,1.28,0.37c0.24,0.24,0.36,0.63,0.36,1.17v15.31c0,0.52-0.12,0.9-0.36,1.15
			c-0.24,0.24-0.67,0.36-1.28,0.36h-2.56c-0.38,0-0.67-0.05-0.88-0.15c-0.21-0.1-0.41-0.29-0.61-0.58l-4.89-7.26v6.48
			c0,0.52-0.12,0.9-0.36,1.15c-0.24,0.24-0.67,0.36-1.28,0.36h-3.21C260.25,490.55,259.83,490.43,259.58,490.17z"/>
		<path d="M282.83,490.17c-0.24-0.25-0.37-0.64-0.37-1.16v-12.23h-3.89c-0.58,0-0.97-0.12-1.17-0.37s-0.31-0.63-0.31-1.17v-1.51
			c0-0.54,0.1-0.93,0.31-1.17c0.21-0.24,0.6-0.37,1.17-0.37h14.26c0.58,0,0.97,0.12,1.17,0.37c0.21,0.24,0.31,0.63,0.31,1.17v1.51
			c0,0.54-0.1,0.93-0.31,1.17s-0.6,0.37-1.17,0.37h-3.89v12.23c0,0.52-0.12,0.91-0.37,1.16c-0.24,0.25-0.67,0.38-1.28,0.38h-3.21
			C283.49,490.55,283.07,490.43,282.83,490.17z"/>
		<path d="M295.49,490.17c-0.24-0.25-0.37-0.64-0.37-1.16v-15.28c0-0.52,0.12-0.91,0.37-1.16c0.24-0.25,0.66-0.38,1.26-0.38h11.18
			c0.58,0,0.97,0.12,1.17,0.37c0.21,0.24,0.31,0.63,0.31,1.17v1.51c0,0.54-0.1,0.93-0.31,1.17s-0.6,0.37-1.17,0.37h-6.32v2.32h3.89
			c0.58,0,0.97,0.12,1.17,0.36c0.21,0.24,0.31,0.63,0.31,1.17v1.46c0,0.54-0.1,0.93-0.31,1.17s-0.6,0.36-1.17,0.36h-3.89v2.32h6.29
			c0.58,0,0.97,0.12,1.17,0.36c0.21,0.24,0.31,0.63,0.31,1.17v1.51c0,0.54-0.1,0.93-0.31,1.17c-0.21,0.24-0.6,0.36-1.17,0.36h-11.15
			C296.16,490.55,295.74,490.43,295.49,490.17z"/>
		<path d="M314.06,490.44c-1.4-0.34-2.54-0.82-3.4-1.43c-0.36-0.25-0.54-0.5-0.54-0.73c0-0.16,0.06-0.33,0.19-0.51l1.57-2.46
			c0.16-0.23,0.32-0.35,0.49-0.35c0.14,0,0.31,0.06,0.51,0.19c0.65,0.4,1.39,0.71,2.23,0.93c0.84,0.23,1.65,0.34,2.44,0.34
			c0.67,0,1.15-0.09,1.44-0.27c0.3-0.18,0.45-0.46,0.45-0.84c0-0.41-0.2-0.75-0.59-1c-0.4-0.25-1.08-0.57-2.05-0.94
			c-1.82-0.7-3.25-1.5-4.29-2.39c-1.04-0.89-1.57-2.07-1.57-3.55c0-1.87,0.65-3.28,1.96-4.23c1.3-0.95,3.06-1.42,5.28-1.42
			c1.55,0,2.87,0.13,3.96,0.4c1.09,0.27,2.04,0.69,2.85,1.27c0.36,0.25,0.54,0.5,0.54,0.73c0,0.16-0.06,0.33-0.19,0.51l-1.57,2.46
			c-0.16,0.25-0.32,0.38-0.49,0.38c-0.11,0-0.28-0.07-0.51-0.22c-0.43-0.29-0.95-0.53-1.54-0.71c-0.59-0.19-1.23-0.28-1.92-0.28
			c-0.63,0-1.11,0.09-1.43,0.27s-0.49,0.47-0.49,0.86c0,0.32,0.11,0.59,0.34,0.81c0.22,0.22,0.51,0.4,0.85,0.55
			c0.34,0.15,0.94,0.4,1.78,0.74c1.35,0.54,2.41,1.06,3.19,1.55c0.77,0.5,1.36,1.09,1.75,1.78s0.59,1.57,0.59,2.63
			c0,1.62-0.61,2.93-1.82,3.93s-3.03,1.5-5.44,1.5C316.98,490.96,315.46,490.79,314.06,490.44z"/>
		<path d="M126.35,522.57c-0.24-0.25-0.36-0.64-0.36-1.16v-4.89l-6.29-10.77c-0.11-0.2-0.16-0.39-0.16-0.57
			c0-0.4,0.21-0.59,0.62-0.59h5.08c0.27,0,0.48,0.06,0.62,0.18c0.14,0.12,0.29,0.3,0.43,0.55l2.94,5.29l2.94-5.29
			c0.14-0.25,0.29-0.44,0.43-0.55c0.14-0.12,0.35-0.18,0.62-0.18h5.08c0.41,0,0.62,0.2,0.62,0.59c0,0.18-0.05,0.37-0.16,0.57
			l-6.29,10.77v4.89c0,0.52-0.12,0.91-0.37,1.16s-0.67,0.38-1.28,0.38h-3.21C127.02,522.95,126.6,522.83,126.35,522.57z"/>
		<path d="M152.48,522.51c-1.33-0.57-2.37-1.39-3.11-2.46s-1.11-2.34-1.11-3.82v-10.1c0-0.52,0.12-0.91,0.36-1.16
			c0.24-0.25,0.66-0.38,1.26-0.38h3.21c0.61,0,1.04,0.12,1.28,0.37c0.24,0.24,0.36,0.63,0.36,1.17v10.18c0,0.85,0.21,1.48,0.63,1.89
			s1,0.62,1.74,0.62c0.74,0,1.32-0.21,1.74-0.62s0.63-1.04,0.63-1.89v-10.18c0-0.52,0.12-0.91,0.37-1.16
			c0.24-0.25,0.66-0.38,1.26-0.38h3.21c0.61,0,1.04,0.12,1.28,0.37c0.24,0.24,0.36,0.63,0.36,1.17v10.1c0,1.48-0.37,2.75-1.11,3.82
			s-1.77,1.89-3.1,2.46c-1.33,0.57-2.88,0.85-4.64,0.85C155.36,523.36,153.81,523.07,152.48,522.51z"/>
		<path d="M171.16,522.84c-1.4-0.34-2.54-0.82-3.4-1.43c-0.36-0.25-0.54-0.5-0.54-0.73c0-0.16,0.06-0.33,0.19-0.51l1.57-2.46
			c0.16-0.23,0.32-0.35,0.49-0.35c0.14,0,0.31,0.06,0.51,0.19c0.65,0.4,1.39,0.71,2.23,0.93c0.84,0.23,1.65,0.34,2.44,0.34
			c0.67,0,1.15-0.09,1.45-0.27c0.3-0.18,0.45-0.46,0.45-0.84c0-0.41-0.2-0.75-0.59-1c-0.4-0.25-1.08-0.57-2.05-0.94
			c-1.82-0.7-3.25-1.5-4.29-2.39c-1.04-0.89-1.57-2.07-1.57-3.55c0-1.87,0.65-3.28,1.96-4.23c1.3-0.95,3.06-1.42,5.28-1.42
			c1.55,0,2.87,0.13,3.96,0.4c1.09,0.27,2.04,0.69,2.85,1.27c0.36,0.25,0.54,0.5,0.54,0.73c0,0.16-0.06,0.33-0.19,0.51l-1.57,2.46
			c-0.16,0.25-0.32,0.38-0.49,0.38c-0.11,0-0.28-0.07-0.51-0.22c-0.43-0.29-0.94-0.53-1.54-0.71c-0.59-0.19-1.23-0.28-1.92-0.28
			c-0.63,0-1.11,0.09-1.43,0.27s-0.49,0.47-0.49,0.86c0,0.32,0.11,0.59,0.34,0.81s0.51,0.4,0.85,0.55c0.34,0.15,0.94,0.4,1.78,0.74
			c1.35,0.54,2.41,1.06,3.19,1.55s1.36,1.09,1.76,1.78c0.4,0.69,0.59,1.57,0.59,2.63c0,1.62-0.61,2.93-1.82,3.93s-3.03,1.5-5.44,1.5
			C174.08,523.36,172.56,523.19,171.16,522.84z"/>
		<path d="M188.41,522.51c-1.33-0.57-2.37-1.39-3.1-2.46c-0.74-1.07-1.11-2.34-1.11-3.82v-10.1c0-0.52,0.12-0.91,0.36-1.16
			c0.24-0.25,0.66-0.38,1.26-0.38h3.21c0.61,0,1.04,0.12,1.28,0.37c0.24,0.24,0.37,0.63,0.37,1.17v10.18c0,0.85,0.21,1.48,0.63,1.89
			s1,0.62,1.74,0.62s1.32-0.21,1.74-0.62c0.42-0.41,0.63-1.04,0.63-1.89v-10.18c0-0.52,0.12-0.91,0.36-1.16
			c0.24-0.25,0.66-0.38,1.25-0.38h3.21c0.61,0,1.04,0.12,1.28,0.37c0.24,0.24,0.36,0.63,0.36,1.17v10.1c0,1.48-0.37,2.75-1.11,3.82
			c-0.74,1.07-1.77,1.89-3.11,2.46c-1.33,0.57-2.88,0.85-4.64,0.85S189.75,523.07,188.41,522.51z"/>
		<path d="M201.37,522.38c0-0.16,0.04-0.36,0.13-0.59l6.72-16.17c0.16-0.38,0.35-0.64,0.55-0.8c0.21-0.15,0.5-0.23,0.88-0.23h2.94
			c0.38,0,0.67,0.08,0.88,0.23c0.21,0.15,0.39,0.42,0.55,0.8l6.7,16.17c0.09,0.23,0.13,0.43,0.13,0.59c0,0.38-0.2,0.57-0.59,0.57
			h-5.08c-0.56,0-0.91-0.24-1.05-0.73l-0.65-2h-4.78l-0.62,2c-0.14,0.49-0.49,0.73-1.05,0.73h-5.08
			C201.57,522.95,201.37,522.76,201.37,522.38z M212.17,515.96l-1.05-3.35l-1.05,3.35H212.17z"/>
		<path d="M222.58,522.57c-0.24-0.25-0.37-0.64-0.37-1.16v-15.28c0-0.52,0.12-0.91,0.37-1.16c0.24-0.25,0.66-0.38,1.25-0.38h6.45
			c2.7,0,4.67,0.54,5.9,1.61c1.23,1.07,1.85,2.69,1.85,4.85c0,1.3-0.22,2.39-0.66,3.28c-0.44,0.89-1.12,1.59-2.04,2.09l2.51,5.37
			c0.07,0.14,0.11,0.31,0.11,0.49c0,0.2-0.07,0.36-0.2,0.49c-0.13,0.13-0.31,0.19-0.53,0.19h-4.56c-0.29,0-0.52-0.04-0.69-0.12
			s-0.29-0.22-0.36-0.42l-2-5.02h-0.92v4.02c0,0.52-0.12,0.91-0.37,1.16c-0.24,0.25-0.67,0.38-1.28,0.38h-3.21
			C223.24,522.95,222.82,522.83,222.58,522.57z M229.72,512.88c0.58,0,1.03-0.15,1.36-0.46c0.33-0.31,0.5-0.76,0.5-1.38
			c0-0.63-0.17-1.1-0.5-1.4c-0.33-0.31-0.79-0.46-1.36-0.46h-1.84v3.7H229.72z"/>
		<path d="M239.75,522.57c-0.24-0.25-0.37-0.64-0.37-1.16v-15.28c0-0.52,0.12-0.91,0.37-1.16c0.24-0.25,0.66-0.38,1.25-0.38h3.21
			c0.61,0,1.04,0.12,1.28,0.37c0.24,0.24,0.37,0.63,0.37,1.17v15.28c0,0.52-0.12,0.91-0.37,1.16c-0.24,0.25-0.67,0.38-1.28,0.38
			h-3.21C240.42,522.95,240,522.83,239.75,522.57z"/>
		<path d="M249.7,520.86c-1.66-1.66-2.48-4.03-2.48-7.09c0-3.06,0.83-5.42,2.48-7.09c1.66-1.67,4.09-2.5,7.29-2.5
			c3.2,0,5.63,0.83,7.29,2.5c1.66,1.67,2.48,4.03,2.48,7.09c0,3.06-0.83,5.42-2.48,7.09c-1.66,1.67-4.09,2.5-7.29,2.5
			C253.79,523.36,251.36,522.52,249.7,520.86z M259.53,517.57c0.52-0.84,0.78-2.1,0.78-3.79c0-1.71-0.26-2.98-0.78-3.81
			c-0.52-0.83-1.37-1.24-2.54-1.24s-2.02,0.41-2.54,1.24c-0.52,0.83-0.78,2.1-0.78,3.81c0,1.69,0.26,2.96,0.78,3.79
			c0.52,0.84,1.37,1.26,2.54,1.26S259.01,518.4,259.53,517.57z"/>
		<path d="M270.33,522.84c-1.4-0.34-2.54-0.82-3.4-1.43c-0.36-0.25-0.54-0.5-0.54-0.73c0-0.16,0.06-0.33,0.19-0.51l1.57-2.46
			c0.16-0.23,0.32-0.35,0.49-0.35c0.14,0,0.32,0.06,0.51,0.19c0.65,0.4,1.39,0.71,2.23,0.93c0.84,0.23,1.65,0.34,2.44,0.34
			c0.67,0,1.15-0.09,1.44-0.27c0.3-0.18,0.45-0.46,0.45-0.84c0-0.41-0.2-0.75-0.59-1c-0.4-0.25-1.08-0.57-2.05-0.94
			c-1.82-0.7-3.25-1.5-4.29-2.39c-1.04-0.89-1.57-2.07-1.57-3.55c0-1.87,0.65-3.28,1.96-4.23c1.3-0.95,3.06-1.42,5.28-1.42
			c1.55,0,2.87,0.13,3.96,0.4c1.09,0.27,2.04,0.69,2.85,1.27c0.36,0.25,0.54,0.5,0.54,0.73c0,0.16-0.06,0.33-0.19,0.51l-1.57,2.46
			c-0.16,0.25-0.32,0.38-0.49,0.38c-0.11,0-0.28-0.07-0.51-0.22c-0.43-0.29-0.94-0.53-1.54-0.71c-0.59-0.19-1.23-0.28-1.92-0.28
			c-0.63,0-1.11,0.09-1.43,0.27c-0.32,0.18-0.49,0.47-0.49,0.86c0,0.32,0.11,0.59,0.34,0.81c0.22,0.22,0.51,0.4,0.85,0.55
			c0.34,0.15,0.94,0.4,1.78,0.74c1.35,0.54,2.41,1.06,3.19,1.55c0.77,0.5,1.36,1.09,1.75,1.78s0.59,1.57,0.59,2.63
			c0,1.62-0.61,2.93-1.82,3.93s-3.03,1.5-5.44,1.5C273.26,523.36,271.73,523.19,270.33,522.84z"/>
	</g>
	<polygon class="st6" points="199.76,86.93 213.23,114.22 243.34,118.59 221.55,139.83 226.7,169.83 199.76,155.67 172.83,169.83 
		177.97,139.83 156.18,118.59 186.29,114.22 	"/>
	<polygon class="st6" points="137.58,170.15 146.32,187.86 165.86,190.7 151.72,204.48 155.06,223.94 137.58,214.75 120.11,223.94 
		123.45,204.48 109.31,190.7 128.85,187.86 	"/>
	<polygon class="st6" points="267.68,170.15 276.42,187.86 295.95,190.7 281.82,204.48 285.15,223.94 267.68,214.75 250.2,223.94 
		253.54,204.48 239.4,190.7 258.94,187.86 	"/>
	<circle class="st7" cx="200.77" cy="203.97" r="121.96"/>
	<circle class="st1" cx="199.82" cy="190.58" r="121.96"/>
	<g>
		<path class="st1" d="M194.05,633.3c-0.63-0.56-0.95-1.54-0.95-2.96v-5.69h-17.59c-1.75,0-2.63-0.85-2.63-2.55v-6.72
			c0-1.12,0.1-1.95,0.29-2.48c0.19-0.54,0.66-1.24,1.39-2.12l19.86-23.94c0.83-0.97,1.51-1.61,2.04-1.9
			c0.54-0.29,1.46-0.44,2.77-0.44h7.01c1.61,0,2.74,0.34,3.39,1.02c0.66,0.68,0.99,1.73,0.99,3.14v23.58h2.77
			c1.56,0,2.62,0.33,3.18,0.99c0.56,0.66,0.84,1.71,0.84,3.17v4.09c0,1.46-0.28,2.52-0.84,3.18c-0.56,0.66-1.62,0.99-3.18,0.99
			h-2.77v5.69c0,1.41-0.33,2.4-0.99,2.96c-0.66,0.56-1.81,0.84-3.47,0.84h-8.69C195.82,634.14,194.68,633.86,194.05,633.3z
			 M196.97,612.24v-9.56l-7.01,9.56H196.97z"/>
	</g>
	<g>
		<circle id="XMLID_371_" class="st3" cx="158" cy="153.59" r="45"/>
		<g id="XMLID_354_">
			<path id="XMLID_370_" class="st4" d="M169.63,165.04c0.09,0.09,0.18,0.17,0.25,0.25C169.8,165.18,169.71,165.1,169.63,165.04z"/>
			<path id="XMLID_369_" class="st4" d="M147.28,164.97c-0.11,0.06-0.28,0.2-0.43,0.42C146.98,165.27,147.12,165.13,147.28,164.97z"
				/>
			<path id="XMLID_368_" class="st22" d="M158.34,170.03c0.04,0.03,0.07,0.07,0.08,0.11c0.02-0.04,0.04-0.08,0.08-0.11
				c5.36-4.1,7.46-6.85,8.4-7.58c-0.64-1.38-0.91-2.73-1.01-3.86c-0.11,0.1-0.22,0.21-0.33,0.31c-0.64,0.56-1.33,1.08-2.07,1.51
				c-0.63,0.37-1.29,0.67-1.99,0.9c-0.63,0.2-1.28,0.34-1.94,0.4c-0.82,0.08-1.66,0.06-2.47-0.07c-0.67-0.11-1.32-0.28-1.95-0.53
				c-0.71-0.28-1.38-0.64-2.01-1.06c-0.75-0.5-1.44-1.08-2.09-1.71c0,0-0.01-0.01-0.01-0.01c-0.09,1.18-0.34,2.66-1.05,4.14
				C150.92,163.24,153.03,165.97,158.34,170.03z"/>
			<path id="XMLID_367_" class="st57" d="M156.65,177.66c-0.72-1.62-1.53-2.55-1.62-3.89c-0.74,0.83-1.28,1.69-1.2,2.51
				c0.22,2.3-6.47-5.42-7.31-9.33c-0.08,0.69-0.14,2.26,1.96,5.36c1.04,1.53,3.8,9.43,6.52,17.93c0.86-5.72,1.68-10.91,1.93-12.3
				C156.82,177.87,156.71,177.78,156.65,177.66z"/>
			<path id="XMLID_366_" class="st57" d="M160.18,177.66c-0.05,0.12-0.16,0.21-0.29,0.28c0.26,1.42,1.12,6.85,2,12.75
				c2.31-7.9,5.15-16.49,6.43-18.38c2.01-2.96,2.05-4.53,1.97-5.26c-0.93,3.94-7.5,11.5-7.29,9.23c0.08-0.81-0.47-1.68-1.2-2.51
				C161.72,175.11,160.91,176.04,160.18,177.66z"/>
			<path id="XMLID_365_" class="st57" d="M169.18,174.58l0.06,0.04c0.01-0.02,0.01-0.03,0.02-0.05
				C169.2,174.58,169.18,174.58,169.18,174.58z"/>
			<path id="XMLID_364_" class="st58" d="M161.9,190.69c-0.88-5.9-1.74-11.33-2-12.75c0.12-0.07,0.23-0.16,0.29-0.28
				c0.72-1.62,1.53-2.55,1.62-3.89c-1.3-1.45-3.19-2.77-3.39-3.43c-0.19,0.66-2.09,1.98-3.39,3.43c0.09,1.34,0.9,2.27,1.62,3.89
				c0.05,0.12,0.16,0.21,0.28,0.28c-0.25,1.38-1.07,6.58-1.93,12.3c0.89,2.78,1.78,5.63,2.6,8.34c0.18,0,0.35,0.01,0.53,0.01
				c0.54,0,1.06-0.02,1.6-0.04C160.32,196.25,161.07,193.51,161.9,190.69z"/>
			<path id="XMLID_363_" class="st59" d="M147.28,164.97c-0.16,0.16-0.31,0.3-0.43,0.42c-0.18,0.26-0.33,0.65-0.3,1.22
				c0,0.07-0.02,0.18-0.04,0.34c0.84,3.9,7.53,11.62,7.31,9.33c-0.08-0.81,0.47-1.68,1.2-2.51c1.3-1.45,3.19-2.77,3.39-3.43
				c0.19,0.66,2.09,1.98,3.39,3.43c0.74,0.83,1.28,1.69,1.2,2.51c-0.22,2.28,6.36-5.29,7.29-9.23c-0.02-0.21-0.05-0.35-0.05-0.44
				c0.03-0.64-0.16-1.06-0.37-1.32c-0.08-0.08-0.16-0.16-0.25-0.25c-0.12-0.09-0.21-0.13-0.21-0.13s0.03,0,0.07-0.01
				c-0.55-0.54-1.27-1.31-1.97-2.49c-0.13-0.22-0.31-0.2-0.62,0.04c-0.94,0.73-3.04,3.48-8.4,7.58c-0.04,0.03-0.07,0.07-0.08,0.11
				c-0.02-0.04-0.04-0.08-0.08-0.11c-5.3-4.06-7.41-6.79-8.37-7.55c-0.32-0.26-0.52-0.29-0.65-0.06c-0.7,1.18-1.42,1.95-1.97,2.49
				c0.03,0,0.04,0.01,0.04,0.01S147.34,164.93,147.28,164.97z"/>
			<path id="XMLID_362_" class="st23" d="M153.12,160.05c0.63,0.42,1.3,0.78,2.01,1.06c0.63,0.25,1.28,0.43,1.95,0.53
				c0.81,0.13,1.65,0.15,2.47,0.07c0.66-0.07,1.31-0.2,1.94-0.4c0.69-0.22,1.36-0.53,1.99-0.9c0.74-0.43,1.42-0.95,2.07-1.51
				c0.11-0.1,0.22-0.21,0.33-0.31c0.09-0.08,0.18-0.17,0.27-0.25c2.76-2.66,2.74-9.39,3.4-8.92c1.52,1.02,2.5-2.02,2.69-3.83
				c0.16-1.55-0.42-2.32-1.07-2.03c-0.17,0.39-0.39,0.68-0.65,0.83c0,0-0.95,3.93-1.36,3.81c-0.41-0.12-0.23-3.67,0.41-7.83
				c0.68-4.43-4.76-2.5-8.57-2.62c-3.81-0.12-12.61-0.87-13.29,1.22c-0.68,2.09,0.65,8.4,0.11,8.65c-0.54,0.25-1.22-2.87-1.77-3.48
				c-0.09-0.1-0.18-0.34-0.27-0.65c-0.55-0.03-0.98,0.74-0.84,2.1c0.19,1.81,1.17,4.85,2.69,3.83c0.67-0.48,0.64,6.24,3.39,8.91
				c0,0,0.01,0.01,0.01,0.01C151.68,158.97,152.37,159.55,153.12,160.05z"/>
			<path id="XMLID_361_" class="st60" d="M147.82,147.63c0.54-0.25-0.79-6.56-0.11-8.65c0.68-2.09,9.49-1.35,13.29-1.22
				c3.81,0.12,9.25-1.81,8.57,2.62c-0.64,4.16-0.82,7.71-0.41,7.83c0.41,0.12,1.36-3.81,1.36-3.81c0.27-0.15,0.48-0.45,0.65-0.83
				c1.07-2.38,0.57-8.44,0.57-9.49c0-1.23-1.9-3.32-2.72-3.32s-0.14-3.44-5.71-4.92c-5.57-1.48-10.47-0.74-13.19,0.61
				c-2.72,1.35-4.76,3.69-5.98,4.06c-1.22,0.37,0.41,1.23-0.54,2.09c-0.95,0.86,0.68,1.97,0.95,3.69c0.23,1.44,0.74,5.56,1.22,7.22
				c0.09,0.32,0.18,0.55,0.27,0.65C146.59,144.77,147.27,147.88,147.82,147.63z"/>
			<path id="XMLID_360_" class="st61" d="M174.19,168.76c1.34,2.39,1.41,3.86,2.35,4.56c0.89,0.67-6.5,1.19-7.3,1.25
				c-0.01,0.02-0.01,0.03-0.02,0.05l5.18,3.91c0,0-4.51,6.13-6.92,9.73c-0.85,1.26-2.97,4.91-4.16,6.99
				c-0.34,0.59-0.99,1.82-1.73,3.2c7.04-0.54,13.62-2.69,19.38-6.1c0.73-8.84,2.79-20.78,6.78-20.1c-1.59-0.67-6.01-1.56-9.01-2.77
				c-2.59-1.05-4.65-2.38-5.93-2.4C173.32,167.53,173.81,168.08,174.19,168.76z"/>
			<path id="XMLID_359_" d="M169.63,165.04c0.08,0.06,0.17,0.14,0.25,0.25c0.21,0.26,0.4,0.67,0.37,1.32c0,0.09,0.03,0.23,0.05,0.44
				c0.07,0.73,0.04,2.3-1.97,5.26c-1.28,1.89-4.12,10.48-6.43,18.38c-0.82,2.82-1.58,5.56-2.17,7.87c0.63-0.02,1.26-0.06,1.88-0.11
				c0.73-1.38,1.39-2.61,1.73-3.2c1.19-2.08,3.31-5.72,4.16-6.99c2.41-3.59,6.92-9.73,6.92-9.73l-5.18-3.91l-0.06-0.04
				c0,0,0.03,0,0.07-0.01c0.8-0.05,8.19-0.58,7.3-1.25c-0.95-0.7-1.02-2.17-2.35-4.56c-0.38-0.68-0.88-1.23-1.37-1.68
				c-0.67-0.62-1.33-1.05-1.67-1.34c-0.94-0.8-1.49-0.85-1.67-0.84c-0.04,0-0.07,0.01-0.07,0.01S169.51,164.95,169.63,165.04z"/>
			<path id="XMLID_358_" class="st62" d="M136.47,193.04c5.55,3.06,11.82,4.97,18.49,5.43c-0.72-1.63-1.27-2.85-1.49-3.22
				c-1.19-2.08-3.31-5.72-4.16-6.99c-2.41-3.59-6.92-9.73-6.92-9.73l5.24-3.95c0,0-8.32-0.55-7.37-1.25
				c0.95-0.7,1.02-2.17,2.35-4.56c0.39-0.7,0.91-1.27,1.41-1.73c-1.27,0.38-3.02,1.4-5.12,2.25c-3.31,1.34-8.35,2.28-9.41,2.98
				C133.69,171.27,135.78,184.05,136.47,193.04z"/>
			<path id="XMLID_357_" d="M142.61,168.76c-1.34,2.39-1.41,3.86-2.35,4.56c-0.95,0.7,7.37,1.25,7.37,1.25l-5.24,3.95
				c0,0,4.51,6.13,6.92,9.73c0.85,1.26,2.97,4.91,4.16,6.99c0.22,0.38,0.77,1.6,1.49,3.22c0.88,0.06,1.76,0.1,2.64,0.11
				c-0.82-2.71-1.71-5.56-2.6-8.34c-2.72-8.5-5.49-16.4-6.52-17.93c-2.1-3.1-2.05-4.68-1.96-5.36c0.02-0.16,0.04-0.27,0.04-0.34
				c-0.03-0.57,0.12-0.95,0.3-1.22c0.15-0.22,0.32-0.36,0.43-0.42c0.06-0.04,0.11-0.06,0.11-0.06s-0.02,0-0.04-0.01
				c-0.15-0.01-0.71,0-1.7,0.84c-0.33,0.28-0.97,0.7-1.62,1.29C143.52,167.5,143.01,168.06,142.61,168.76z"/>
			<path id="XMLID_356_" d="M136.47,193.04c-0.69-8.99-2.78-21.76-6.96-20.77c-0.17,0.04-0.35,0.1-0.53,0.19
				c-0.96,0.48-1.93,5.48-3.15,12.45C128.94,188.12,132.52,190.87,136.47,193.04z"/>
			<path id="XMLID_355_" d="M180.99,192.35c3.88-2.29,7.39-5.14,10.4-8.45c-1.13-6.44-2.06-10.99-2.97-11.44
				c-0.22-0.11-0.44-0.17-0.65-0.21C183.78,171.57,181.72,183.51,180.99,192.35z"/>
		</g>
	</g>
	<g>
		<g>
			<path class="st83" d="M155,198c0,0-0.57,2.19-1.31,5.85"/>
			<path class="st84" d="M151.74,215.43c-4.36,32.39-3.47,94.63,79.94,49.46"/>
			<path class="st83" d="M236.82,262.03c1.69-0.97,3.42-1.98,5.18-3.03"/>
		</g>
	</g>
	<g>
		<circle id="XMLID_372_" class="st3" cx="241.98" cy="213.54" r="49.46"/>
		<g id="XMLID_330_">
			<path id="XMLID_353_" class="st4" d="M255.74,211.6c0.64-1.57,0.97-2.81,1.04-3.14c-0.06-0.02-0.11-0.05-0.14-0.09
				c-0.1-0.15,0.2-1.75,0.06-1.86c-0.02-0.01-0.03-0.02-0.05-0.03c-0.18,0.57-0.51,1.03-0.9,1.36
				C255.75,209.07,255.75,210.33,255.74,211.6z"/>
			<path id="XMLID_352_" class="st21" d="M253.52,208.47c-0.73-0.52-0.71,6.89-3.75,9.82c-0.22,0.21-0.44,0.42-0.67,0.62
				c-0.23,0.2-0.47,0.39-0.71,0.58c0,0.1,0,0.21,0,0.31c2.8-0.82,4.78-3.3,6.01-5.44c0.55-0.95,0.99-1.9,1.34-2.76
				c0.01-1.27,0.01-2.53,0.01-3.76c-0.23,0.2-0.48,0.34-0.73,0.43C254.6,208.7,254.09,208.85,253.52,208.47z"/>
			<path id="XMLID_351_" class="st21" d="M229.91,228.2c-0.08,0.04-0.31,0.18-0.53,0.53C229.53,228.58,229.7,228.4,229.91,228.2z"/>
			<path id="XMLID_350_" class="st21" d="M248.41,220.19c0.07,1.63,0.4,3.77,1.73,5.72c0.44-0.39,0.68-0.48,0.84-0.2
				c0.98,1.66,2.01,2.55,2.58,3.12c-0.29-0.5-0.61-0.63-0.61-0.63s0.7-0.27,1.92,0.76c0.28,0.24,0.78,0.58,1.32,1.03
				c-0.64-3.17-0.5-10.34-0.45-17.41c-0.29,0.64-0.62,1.31-1.01,1.98C252.97,217.6,250.81,219.52,248.41,220.19z"/>
			<path id="XMLID_349_" class="st21" d="M229.92,228.18c0.56-0.56,1.26-1.33,1.94-2.48c0.16-0.28,0.41-0.18,0.87,0.23
				c1.55-2.25,1.75-4.76,1.76-6.44c-0.48-0.38-0.94-0.77-1.38-1.19c-3.04-2.93-3.01-10.35-3.75-9.82c-0.57,0.38-1.07,0.24-1.49-0.18
				c-0.15-0.05-0.3-0.12-0.45-0.21c-0.03,8.09,0.32,17.59-0.38,21.61c0.4-0.31,0.75-0.56,0.97-0.75
				C229.17,227.96,229.86,228.16,229.92,228.18z"/>
			<path id="XMLID_348_" class="st22" d="M247.77,219.94c0.21-0.04,0.42-0.09,0.62-0.15c0-0.11,0-0.21,0-0.31
				C248.19,219.64,247.98,219.8,247.77,219.94z"/>
			<path id="XMLID_347_" class="st22" d="M241.33,233.7c0.05,0.04,0.07,0.09,0.09,0.14c0.01-0.05,0.04-0.1,0.09-0.14
				c5.3-4.06,7.56-6.85,8.63-7.8c-1.33-1.95-1.66-4.09-1.73-5.72c-0.44,0.12-0.89,0.2-1.34,0.24c-0.13,0.56-0.71,1.59-2.65,1.57
				c-0.41,0-0.74-0.05-1.02-0.13c-0.29,0.06-0.59,0.11-0.89,0.14c-0.9,0.09-1.83,0.06-2.72-0.08c-0.74-0.12-1.46-0.31-2.15-0.59
				c-0.78-0.31-1.52-0.7-2.21-1.17c-0.32-0.21-0.62-0.45-0.92-0.69c-0.01,1.68-0.22,4.2-1.76,6.44
				C233.81,226.9,236.07,229.68,241.33,233.7z"/>
			<path id="XMLID_346_" class="st22" d="M241.42,233.97c0,0.01,0,0.02-0.01,0.03h0.01C241.42,233.99,241.42,233.98,241.42,233.97z"
				/>
			<path id="XMLID_345_" class="st23" d="M237.62,221.34c0.69,0.27,1.41,0.47,2.15,0.59c0.9,0.14,1.82,0.17,2.72,0.08
				c0.3-0.03,0.59-0.08,0.89-0.14c-1.3-0.37-1.39-1.39-1.42-1.73c0.05-0.42,0.2-1.84,2.48-1.82c2.08,0.02,2.57,1.2,2.64,1.73
				c0.23-0.02,0.46-0.05,0.68-0.1c0.21-0.15,0.41-0.3,0.62-0.46c0.24-0.19,0.48-0.37,0.71-0.58c0.23-0.2,0.45-0.41,0.67-0.62
				c3.04-2.93,3.01-10.35,3.75-9.82c0.58,0.39,1.08,0.24,1.5-0.2c-0.35,0.12-0.69,0.14-0.95-0.02c-0.41-0.26,0.02-2.33,0.31-5.51
				c-0.05,0.01-0.09,0.03-0.13,0.06c-0.58,0.37-1.29-4.57-4.07-6.87c-2.78-2.3-3-3.86-3-3.86c-2.78,0.31-5.49,1.32-10.07,4.96
				c-3.62,2.88-6.86,5.76-8.32,6.14c-0.13,0.03-0.22-0.11-0.33-0.31c0.3,3.11,0.71,5.13,0.3,5.39c-0.24,0.15-0.55,0.14-0.89,0.04
				c0.42,0.42,0.92,0.56,1.49,0.18c0.73-0.52,0.71,6.89,3.75,9.82c0.44,0.42,0.9,0.82,1.38,1.19c0.3,0.24,0.6,0.47,0.92,0.69
				C236.11,220.63,236.85,221.03,237.62,221.34z"/>
			<path id="XMLID_344_" class="st21" d="M227.31,197.34c0.14-2.71,2.63-12.56,14.1-12.56c11.48,0,13.97,9.85,14.1,12.56
				c0.09,1.76-0.09,2.77,0.06,3.38c0.06-0.59,0.09-1.36,0.09-2.37c0-5.19-2.11-10.53-5.5-11.42c-1.63-0.43-1.84-2.01-5.47-3.1
				c-5.8-1.74-12.35,0.67-15.69,6.24c-2.34,3.9-2.46,9.36-2.22,11.26C227.61,200.9,227.18,199.91,227.31,197.34z"/>
			<path id="XMLID_343_" class="st21" d="M228.8,203.17c1.46-0.39,4.69-3.26,8.32-6.14c4.58-3.64,7.29-4.65,10.07-4.96
				c0,0,0.22,1.56,3,3.86c2.78,2.3,3.49,7.24,4.07,6.87c0.04-0.03,0.09-0.04,0.13-0.06c0.03-0.33,0.06-0.66,0.09-1.01
				c0.29-3.74,0.25-4.97-0.12-6.33c-2.83-10.46-12.93-9.71-12.93-9.71s-9.75-0.92-12.89,9.55c-0.42,1.39-0.45,2.75-0.17,6.49
				c0.03,0.39,0.06,0.77,0.1,1.13C228.57,203.06,228.66,203.2,228.8,203.17z"/>
			<path id="XMLID_342_" class="st24" d="M228.76,208.25c0.41-0.25-0.01-2.28-0.3-5.39c-0.03-0.36-0.07-0.74-0.1-1.13
				c-0.29-3.74-0.25-5.1,0.17-6.49c3.14-10.46,12.89-9.55,12.89-9.55s10.1-0.74,12.93,9.71c0.37,1.36,0.41,2.58,0.12,6.33
				c-0.03,0.35-0.06,0.68-0.09,1.01c-0.3,3.18-0.73,5.25-0.31,5.51c0.25,0.16,0.59,0.14,0.95,0.02c0.25-0.09,0.49-0.23,0.73-0.43
				c0.39-0.33,0.72-0.79,0.9-1.36c-0.14-0.04-0.36,0.09-0.48-0.16c-0.14-0.28-0.06-1.56,0.05-1.83c0.11-0.27,0.24-0.4,0.67-0.33
				c0.02,0,0.05,0.02,0.07,0.02c0.05-1.28-0.11-2.51-0.78-2.77c-0.36-0.14-0.53-0.36-0.6-0.69c-0.14-0.61,0.03-1.63-0.06-3.38
				c-0.14-2.71-2.63-12.56-14.1-12.56c-11.48,0-13.97,9.85-14.1,12.56c-0.13,2.57,0.3,3.56-0.53,3.99
				c-0.05,0.02-0.08,0.05-0.13,0.08c-1.03,0.4-0.86,3.05-0.57,4.69c0.16,0.91,0.73,1.61,1.34,1.98c0.15,0.09,0.3,0.16,0.45,0.21
				C228.21,208.39,228.53,208.39,228.76,208.25z"/>
			<path id="XMLID_341_" class="st25" d="M256.22,204.48c-0.11,0.27-0.18,1.55-0.05,1.83c0.12,0.25,0.33,0.12,0.48,0.16
				c0.02,0.01,0.04,0.01,0.05,0.03c0.14,0.11-0.16,1.71-0.06,1.86c0.03,0.04,0.08,0.07,0.14,0.09c-0.07,0.33-0.39,1.57-1.04,3.14
				c-0.35,0.85-0.79,1.8-1.34,2.76c-1.23,2.13-3.2,4.62-6.01,5.44c-0.2,0.06-0.41,0.11-0.62,0.15c-0.22,0.04-0.45,0.08-0.68,0.1
				c-0.07-0.53-0.56-1.71-2.64-1.73c-2.28-0.02-2.44,1.4-2.48,1.82c0.03,0.34,0.12,1.37,1.42,1.73c0.28,0.08,0.62,0.13,1.02,0.13
				c1.95,0.02,2.52-1.01,2.65-1.57c0.45-0.04,0.9-0.12,1.34-0.24c2.4-0.67,4.56-2.59,6.32-5.65c0.38-0.66,0.72-1.33,1.01-1.98
				c0.92-2.04,1.38-3.78,1.43-4.11c0.03-0.01,0.05-0.02,0.07-0.03c0.16-0.11,0.28-1.16,0.38-2.36c0.09-1.14-0.26-1.75-0.65-1.88
				c-0.02-0.01-0.05-0.02-0.07-0.02C256.46,204.08,256.33,204.2,256.22,204.48z"/>
			<path id="XMLID_340_" class="st26" d="M239.41,242.45c-0.83-1.86-1.76-2.92-1.84-4.47c-0.61,0.76-1.04,1.54-0.97,2.28
				c0.23,2.45-7.02-5.95-7.71-9.98c-0.13,0.77-0.13,2.39,2.11,5.56c1.51,2.15,5.06,8.26,7.64,13.75c0.51-3.31,0.93-5.85,1.1-6.81
				C239.59,242.69,239.47,242.59,239.41,242.45z"/>
			<path id="XMLID_339_" class="st26" d="M246.24,240.26c0.07-0.74-0.35-1.52-0.97-2.28c-0.09,1.55-1.01,2.61-1.84,4.47
				c-0.06,0.14-0.19,0.24-0.32,0.32c0.18,0.99,0.62,3.71,1.16,7.21c2.51-5.59,6.07-11.95,7.62-14.15c2.35-3.33,2.23-4.95,2.09-5.67
				C253.4,234.16,246.01,242.73,246.24,240.26z"/>
			<path id="XMLID_338_" class="st26" d="M230.06,238.21c0,0.01,0.01,0.01,0.01,0.02l0.02-0.02
				C230.1,238.21,230.08,238.21,230.06,238.21z"/>
			<path id="XMLID_337_" class="st27" d="M243.43,242.45c0.83-1.86,1.76-2.92,1.84-4.47c-1.36-1.68-3.68-3.25-3.85-3.99h-0.01
				c-0.17,0.74-2.49,2.3-3.85,3.99c0.09,1.55,1.01,2.61,1.84,4.47c0.06,0.14,0.19,0.24,0.32,0.32c-0.17,0.95-0.59,3.5-1.1,6.81
				c1.54,3.27,2.73,6.31,2.95,8.17c0.21-1.78,1.28-4.65,2.68-7.76c-0.54-3.5-0.98-6.22-1.16-7.21
				C243.24,242.69,243.37,242.59,243.43,242.45z"/>
			<path id="XMLID_336_" class="st28" d="M250.98,225.7c-0.16-0.27-0.4-0.18-0.84,0.2c-1.07,0.95-3.33,3.74-8.63,7.8
				c-0.05,0.04-0.07,0.09-0.09,0.14c-0.01-0.05-0.04-0.1-0.09-0.14c-5.26-4.03-7.53-6.81-8.61-7.78c-0.45-0.41-0.7-0.5-0.87-0.23
				c-0.68,1.15-1.38,1.92-1.94,2.48c0,0,0.01,0,0.01,0s-0.01,0-0.03,0.01c-0.2,0.2-0.38,0.38-0.53,0.53
				c-0.16,0.25-0.32,0.61-0.4,1.13c-0.02,0.1-0.05,0.23-0.09,0.42c0.69,4.04,7.95,12.44,7.71,9.98c-0.07-0.74,0.35-1.52,0.97-2.28
				c1.36-1.68,3.68-3.25,3.85-3.99c0-0.01,0-0.02,0.01-0.03c0,0.01,0,0.02,0.01,0.03c0.17,0.74,2.49,2.3,3.85,3.99
				c0.61,0.76,1.04,1.54,0.97,2.28c-0.23,2.47,7.16-6.1,7.74-10.09c-0.03-0.13-0.05-0.23-0.07-0.31c-0.08-0.46-0.21-0.79-0.35-1.04
				C252.99,228.25,251.96,227.36,250.98,225.7z"/>
			<path id="XMLID_335_" class="st25" d="M270.58,236.05c-0.44-0.61-10.24-3.99-13.42-5.16c0.32,0.36,0.63,0.76,0.89,1.22
				c1.4,2.51,1.48,4.05,2.47,4.79c0.99,0.74-7.73,1.31-7.73,1.31l5.5,4.15c0,0-6.16,7.04-10.32,10.08
				c-1.29,0.94-5.36,4.71-6.35,6.33c0.23,1.09,0.63,2.73,0.72,3.38c0.04,0.29,0.07,0.56,0.11,0.83c7.58-0.09,14.75-1.88,21.15-5.02
				c0.2-3.79-0.46-18.72,6.72-21.89c0.15-0.07,0.32,0.09,0.51,0.42c0,0,0-0.01,0-0.01C270.73,236.33,270.66,236.17,270.58,236.05z"
				/>
			<path id="XMLID_334_" class="st29" d="M241.6,258.77L241.6,258.77c-1.16-1.01-5.39-5.39-6.68-6.33
				c-4.16-3.03-10.32-10.08-10.32-10.08l5.48-4.13c0-0.01-0.01-0.01-0.01-0.02c-0.56-0.04-8.66-0.6-7.7-1.31
				c0.99-0.74,1.07-2.28,2.47-4.79c0.28-0.5,0.62-0.92,0.97-1.3c-3.32,1.21-12.83,4.5-13.27,5.1c7.67,0.4,6.91,17.48,7.05,21.8
				c6.69,3.37,14.24,5.29,22.24,5.29c0.2,0,0.4-0.01,0.6-0.02c-0.03-0.28-0.07-0.55-0.11-0.83
				C242.23,261.5,241.83,259.86,241.6,258.77z"/>
			<path id="XMLID_333_" class="st30" d="M224.83,232.11c-1.4,2.51-1.48,4.05-2.47,4.79c-0.96,0.71,7.14,1.27,7.7,1.31
				c0.02,0,0.03,0,0.03,0l-0.02,0.02l-5.48,4.13c0,0,6.16,7.04,10.32,10.08c1.29,0.94,5.52,5.32,6.68,6.33l0,0
				c0.99-1.63,5.06-5.39,6.35-6.33c4.16-3.03,10.32-10.08,10.32-10.08l-5.5-4.15c0,0,8.72-0.57,7.73-1.31
				c-0.99-0.74-1.07-2.28-2.47-4.79c-0.26-0.46-0.56-0.86-0.89-1.22c-0.32-0.35-0.65-0.66-0.97-0.92c-0.54-0.45-1.04-0.79-1.32-1.03
				c-1.22-1.03-1.92-0.76-1.92-0.76s0.33,0.13,0.61,0.63c0.14,0.25,0.28,0.58,0.35,1.04c0.01,0.08,0.04,0.18,0.07,0.31
				c0.14,0.72,0.26,2.34-2.09,5.67c-1.55,2.2-5.11,8.56-7.62,14.15c-1.4,3.11-2.47,5.98-2.68,7.76c-0.22-1.86-1.42-4.9-2.95-8.17
				c-2.58-5.49-6.13-11.6-7.64-13.75c-2.24-3.17-2.24-4.79-2.11-5.56c0.03-0.19,0.07-0.32,0.09-0.42c0.09-0.51,0.24-0.88,0.4-1.13
				c0.22-0.35,0.46-0.49,0.53-0.53c0.02-0.01,0.03-0.01,0.03-0.01s-0.01,0-0.01,0c-0.06-0.02-0.75-0.22-1.91,0.76
				c-0.22,0.19-0.57,0.43-0.97,0.75c-0.39,0.3-0.82,0.67-1.24,1.12C225.45,231.19,225.11,231.62,224.83,232.11z"/>
			<path id="XMLID_332_" class="st30" d="M212.53,235.91c-0.44-0.02-1.89,6.69-3.35,14.76c3.14,2.76,6.63,5.13,10.41,7.04
				C219.44,253.39,220.2,236.31,212.53,235.91z"/>
			<path id="XMLID_331_" class="st30" d="M270.29,236.07c-7.17,3.17-6.52,18.1-6.72,21.89c3.87-1.9,7.45-4.29,10.67-7.09
				c-1.23-6.88-2.54-12.79-3.45-14.38C270.61,236.16,270.44,236.01,270.29,236.07z"/>
		</g>
	</g>
</g>
</svg>
