<?xml version="1.0" encoding="utf-8"?>
<!-- Generator: Adobe Illustrator 23.0.0, SVG Export Plug-In . SVG Version: 6.00 Build 0)  -->
<svg version="1.1" id="Capa_1" xmlns="http://www.w3.org/2000/svg" xmlns:xlink="http://www.w3.org/1999/xlink" x="0px" y="0px"
	 viewBox="0 0 400 689" style="enable-background:new 0 0 400 689;" xml:space="preserve">
<style type="text/css">
	.st0{fill:#E2E2E2;}
	.st1{fill:#FFFFFF;}
	.st2{fill:#CCCDCE;}
	.st3{fill:#F2F2F2;}
	.st4{fill:none;}
	.st5{fill:#0085B0;}
	.st6{fill:#E0EF18;}
	.st7{fill:#CECECE;}
	.st8{fill:#22272F;}
	.st9{fill:#1B2538;}
	.st10{fill:#253452;}
	.st11{fill:#F9F9F9;}
	.st12{fill:#2D3543;}
	.st13{fill:#2A3D60;}
	.st14{fill:#6C92D5;}
	.st15{fill:#587955;}
	.st16{fill:#CD7054;}
	.st17{fill:#F1CC4B;}
	.st18{fill:#DFDFDF;}
	.st19{fill:#ACACAC;}
	.st20{fill:#00D13C;}
	.st21{fill:#866A5E;}
	.st22{fill:#F7DDCB;}
	.st23{fill:#FFE6D4;}
	.st24{fill:#2D2D2D;}
	.st25{fill:#1C1B1A;}
	.st26{fill:#F5F5F5;}
	.st27{fill:#77181C;}
	.st28{fill:#EAEAEA;}
	.st29{fill:#262525;}
	.st30{fill:#11100F;}
	.st31{fill:#FFFFFF;stroke:#000000;stroke-width:6;stroke-miterlimit:10;}
	.st32{fill:#D4D4D4;}
	.st33{fill:#C2C2C2;}
	.st34{fill:#505050;}
	.st35{fill:#53C2C9;}
	.st36{fill:#008B9C;}
	.st37{fill:none;stroke:#00550B;stroke-width:4;stroke-miterlimit:10;}
	.st38{fill:#CE2458;}
	.st39{fill:#155500;}
	.st40{fill:#1549FF;}
	.st41{fill:#606060;stroke:#C6C8CC;stroke-width:6;stroke-miterlimit:10;}
	.st42{fill:#727272;}
	.st43{fill:#207235;}
	.st44{fill:#A3A3A3;}
	.st45{fill:#BCBCBC;}
	.st46{fill:#2A5936;}
	.st47{opacity:0.7;fill:#7F7F7F;}
	.st48{fill:#DAA449;}
	.st49{fill:#85B681;}
	.st50{fill:#A1DC9B;}
	.st51{fill:#90C58B;}
	.st52{fill:#DD9225;}
	.st53{opacity:0.3;}
	.st54{fill:#81C378;}
	.st55{opacity:0.5;}
	.st56{fill:#A2CADE;}
	.st57{fill:#9BAEC9;}
	.st58{fill:#9D2B3B;}
	.st59{fill:#C1D4F2;}
	.st60{fill:#534D46;}
	.st61{fill:#191819;}
	.st62{fill:#222123;}
	.st63{fill:#F3FF00;}
	.st64{fill-rule:evenodd;clip-rule:evenodd;fill:#FFFFFF;}
	.st65{fill-rule:evenodd;clip-rule:evenodd;fill:#1996B8;}
	.st66{fill:none;stroke:#5A605A;stroke-width:4;stroke-miterlimit:10;}
	.st67{fill:#FFB412;}
	.st68{fill:#BACDD1;}
	.st69{fill:#1C4D59;}
	.st70{fill:#A14329;}
	.st71{fill:#FCC083;}
	.st72{fill:#E8AA63;}
	.st73{fill:#D40000;}
	.st74{opacity:0.35;fill:#7D7D7D;}
	.st75{fill:#E5E3E3;}
	.st76{fill:#121F5E;}
	.st77{fill:#A3ADAF;}
	.st78{fill:#C2C6C6;}
	.st79{fill:#E5E5E5;stroke:#FFFFFF;stroke-miterlimit:10;}
	.st80{fill:#ACB4B5;}
	.st81{fill:#7F8384;}
	.st82{fill:#282828;}
	.st83{fill:none;stroke:#46A508;stroke-width:6;stroke-miterlimit:10;}
	.st84{fill:none;stroke:#46A508;stroke-width:6;stroke-miterlimit:10;stroke-dasharray:11.7425,11.7425;}
	.st85{fill:#C89D76;}
	.st86{opacity:0.4;}
	.st87{fill:#ADADAD;}
	.st88{fill:#76A172;}
	.st89{fill:#62835F;}
	.st90{fill:#96D090;}
	.st91{fill:#EDC3A6;}
	.st92{opacity:0.69;}
	.st93{fill:#E5D3D6;}
	.st94{opacity:0.44;}
	.st95{fill:#A5A5A5;}
	.st96{fill:#DDE5E4;}
	.st97{fill:#FDFDFD;}
	.st98{fill:#E0C348;}
	.st99{fill:#606060;}
</style>
<g>
	<g>
		<path class="st5" d="M8.5,199.36c0,22,13.29,27.86,29.54,13.03c0,0,156.99-143.3,353.09,26.97V45c0-22-18-40-40-40H48.5
			c-22,0-40,18-40,40V199.36z"/>
	</g>
	<g>
		<path class="st5" d="M390.66,637c0,22-18,40-40,40H48.98c-22,0-40-18-40-40v-46.27c0-22,18-40,40-40h301.68c22,0,40,18,40,40V637z
			"/>
	</g>
	<g>
		<path d="M90.08,383.48c-0.31-0.32-0.46-0.8-0.46-1.46v-19.24c0-0.66,0.15-1.14,0.46-1.46c0.31-0.32,0.83-0.48,1.58-0.48h4.05
			c0.77,0,1.31,0.15,1.62,0.46c0.31,0.31,0.46,0.8,0.46,1.48v19.24c0,0.66-0.15,1.15-0.46,1.46c-0.31,0.32-0.84,0.48-1.62,0.48
			h-4.05C90.91,383.95,90.38,383.79,90.08,383.48z"/>
		<path d="M100.62,383.48c-0.31-0.32-0.46-0.8-0.46-1.46v-19.28c0-0.66,0.15-1.14,0.46-1.45c0.31-0.31,0.84-0.46,1.62-0.46h3.23
			c0.48,0,0.84,0.06,1.1,0.19c0.26,0.13,0.52,0.37,0.76,0.73l6.15,9.15v-8.13c0-0.66,0.15-1.14,0.46-1.46
			c0.31-0.32,0.83-0.48,1.58-0.48h4.05c0.77,0,1.31,0.15,1.62,0.46c0.31,0.31,0.46,0.8,0.46,1.48v19.28c0,0.66-0.15,1.14-0.46,1.45
			c-0.31,0.31-0.84,0.46-1.62,0.46h-3.23c-0.48,0-0.84-0.06-1.1-0.19c-0.26-0.13-0.52-0.37-0.77-0.73l-6.15-9.15v8.16
			c0,0.66-0.15,1.14-0.46,1.45c-0.31,0.31-0.84,0.46-1.62,0.46h-4.05C101.45,383.95,100.92,383.79,100.62,383.48z"/>
		<path d="M129.89,383.48c-0.31-0.32-0.46-0.8-0.46-1.46v-15.4h-4.9c-0.73,0-1.22-0.15-1.48-0.46c-0.26-0.31-0.39-0.8-0.39-1.48
			v-1.9c0-0.68,0.13-1.17,0.39-1.48c0.26-0.31,0.75-0.46,1.48-0.46h17.95c0.73,0,1.22,0.15,1.48,0.46c0.26,0.31,0.39,0.8,0.39,1.48
			v1.9c0,0.68-0.13,1.17-0.39,1.48c-0.26,0.31-0.75,0.46-1.48,0.46h-4.9v15.4c0,0.66-0.15,1.15-0.46,1.46
			c-0.31,0.32-0.84,0.48-1.61,0.48h-4.05C130.73,383.95,130.2,383.79,129.89,383.48z"/>
		<path d="M145.84,383.48c-0.31-0.32-0.46-0.8-0.46-1.46v-19.24c0-0.66,0.15-1.14,0.46-1.46c0.31-0.32,0.83-0.48,1.58-0.48h14.08
			c0.73,0,1.22,0.15,1.48,0.46c0.26,0.31,0.39,0.8,0.39,1.48v1.9c0,0.68-0.13,1.17-0.39,1.48c-0.26,0.31-0.75,0.46-1.48,0.46h-7.96
			v2.92h4.9c0.73,0,1.22,0.15,1.48,0.46c0.26,0.31,0.39,0.8,0.39,1.48v1.84c0,0.68-0.13,1.17-0.39,1.48
			c-0.26,0.31-0.75,0.46-1.48,0.46h-4.9v2.92h7.92c0.73,0,1.22,0.15,1.48,0.46c0.26,0.31,0.39,0.8,0.39,1.48v1.9
			c0,0.68-0.13,1.17-0.39,1.48c-0.26,0.31-0.75,0.46-1.48,0.46h-14.04C146.67,383.95,146.14,383.79,145.84,383.48z"/>
		<path d="M166.12,381.42c-2.29-2.03-3.43-5.04-3.43-9.03c0-3.97,1.14-6.97,3.43-9.01c2.29-2.04,5.49-3.06,9.59-3.06
			c1.86,0,3.52,0.18,5,0.54c1.47,0.36,2.7,0.87,3.67,1.53c0.27,0.2,0.41,0.43,0.41,0.68c0,0.2-0.1,0.49-0.31,0.85l-1.7,2.92
			c-0.18,0.32-0.4,0.48-0.65,0.48c-0.16,0-0.42-0.09-0.78-0.27c-1.36-0.68-2.86-1.02-4.49-1.02c-1.88,0-3.36,0.54-4.44,1.62
			c-1.08,1.08-1.61,2.66-1.61,4.74c0,2.15,0.45,3.75,1.36,4.78c0.91,1.03,2.25,1.55,4.05,1.55c0.32,0,0.67-0.03,1.07-0.08
			c0.4-0.06,0.72-0.12,0.97-0.19v-3.09h-2.18c-0.73,0-1.22-0.14-1.48-0.43c-0.26-0.28-0.39-0.76-0.39-1.44v-1.87
			c0-0.68,0.13-1.16,0.39-1.45c0.26-0.28,0.75-0.42,1.48-0.42h7.31c0.88,0,1.5,0.2,1.84,0.59c0.34,0.4,0.51,1.03,0.51,1.89v7.96
			c0,0.5-0.06,0.88-0.19,1.14c-0.13,0.26-0.37,0.53-0.73,0.8c-2.18,1.56-5.2,2.35-9.08,2.35
			C171.62,384.46,168.41,383.45,166.12,381.42z"/>
		<path d="M187.9,383.48c-0.31-0.32-0.46-0.8-0.46-1.46v-19.24c0-0.66,0.15-1.14,0.46-1.46c0.31-0.32,0.83-0.48,1.58-0.48h8.13
			c3.4,0,5.88,0.67,7.43,2.02c1.55,1.35,2.33,3.38,2.33,6.1c0,1.63-0.28,3.01-0.83,4.13c-0.56,1.12-1.41,2-2.57,2.64l3.16,6.77
			c0.09,0.18,0.14,0.39,0.14,0.61c0,0.25-0.09,0.45-0.26,0.61c-0.17,0.16-0.39,0.24-0.66,0.24h-5.75c-0.36,0-0.65-0.05-0.87-0.15
			c-0.22-0.1-0.37-0.28-0.46-0.53l-2.52-6.32h-1.16v5.07c0,0.66-0.15,1.15-0.46,1.46c-0.31,0.32-0.84,0.48-1.62,0.48h-4.05
			C188.73,383.95,188.2,383.79,187.9,383.48z M196.89,371.27c0.73,0,1.3-0.19,1.72-0.58s0.63-0.96,0.63-1.73
			c0-0.79-0.21-1.38-0.63-1.77s-0.99-0.58-1.72-0.58h-2.31v4.66H196.89z"/>
		<path d="M206.85,383.24c0-0.2,0.06-0.45,0.17-0.75l8.47-20.37c0.2-0.48,0.44-0.81,0.7-1c0.26-0.19,0.63-0.29,1.11-0.29h3.71
			c0.48,0,0.84,0.1,1.1,0.29c0.26,0.19,0.49,0.53,0.7,1l8.43,20.37c0.11,0.29,0.17,0.54,0.17,0.75c0,0.48-0.25,0.71-0.75,0.71h-6.39
			c-0.7,0-1.15-0.31-1.33-0.92l-0.82-2.52h-6.02l-0.78,2.52c-0.18,0.61-0.62,0.92-1.33,0.92h-6.39
			C207.1,383.95,206.85,383.71,206.85,383.24z M220.45,375.15l-1.33-4.22l-1.33,4.22H220.45z"/>
		<path d="M233.98,381.42c-2.29-2.03-3.43-5.04-3.43-9.03c0-4.01,1.11-7.03,3.32-9.04s5.37-3.03,9.47-3.03
			c1.86,0,3.51,0.18,4.96,0.54c1.45,0.36,2.66,0.87,3.64,1.53c0.27,0.2,0.41,0.43,0.41,0.68c0,0.2-0.1,0.49-0.31,0.85l-1.7,2.92
			c-0.18,0.32-0.4,0.48-0.65,0.48c-0.16,0-0.42-0.09-0.78-0.27c-0.63-0.32-1.3-0.57-1.99-0.75c-0.69-0.18-1.5-0.27-2.43-0.27
			c-1.88,0-3.32,0.54-4.32,1.63s-1.5,2.66-1.5,4.73c0,2.04,0.54,3.61,1.63,4.71s2.57,1.65,4.45,1.65c1.63,0,3.13-0.34,4.49-1.02
			c0.36-0.18,0.62-0.27,0.78-0.27c0.25,0,0.46,0.16,0.65,0.48l1.7,2.92c0.2,0.36,0.31,0.65,0.31,0.85c0,0.25-0.14,0.48-0.41,0.68
			c-0.97,0.66-2.2,1.17-3.67,1.53c-1.47,0.36-3.14,0.54-5,0.54C239.48,384.46,236.27,383.45,233.98,381.42z"/>
		<path d="M254.84,383.48c-0.31-0.32-0.46-0.8-0.46-1.46v-19.24c0-0.66,0.15-1.14,0.46-1.46c0.31-0.32,0.83-0.48,1.58-0.48h4.05
			c0.77,0,1.31,0.15,1.62,0.46c0.31,0.31,0.46,0.8,0.46,1.48v19.24c0,0.66-0.15,1.15-0.46,1.46c-0.31,0.32-0.84,0.48-1.62,0.48
			h-4.05C255.67,383.95,255.15,383.79,254.84,383.48z"/>
		<path d="M267.37,381.32c-2.09-2.1-3.13-5.07-3.13-8.92s1.04-6.83,3.13-8.93c2.08-2.1,5.15-3.14,9.18-3.14s7.09,1.05,9.18,3.14
			c2.08,2.1,3.13,5.07,3.13,8.93s-1.04,6.83-3.13,8.92c-2.09,2.1-5.15,3.14-9.18,3.14S269.46,383.41,267.37,381.32z M279.75,377.17
			c0.66-1.05,0.99-2.65,0.99-4.78c0-2.15-0.33-3.75-0.99-4.79c-0.66-1.04-1.72-1.56-3.2-1.56c-1.47,0-2.54,0.52-3.2,1.56
			c-0.66,1.04-0.99,2.64-0.99,4.79c0,2.13,0.33,3.72,0.99,4.78c0.66,1.05,1.72,1.58,3.2,1.58
			C278.02,378.75,279.09,378.22,279.75,377.17z M272.95,357.98c0-0.18,0.03-0.37,0.1-0.58l1.43-3.94c0.18-0.52,0.4-0.87,0.65-1.05
			c0.25-0.18,0.71-0.27,1.39-0.27h4.86c0.48,0,0.85,0.09,1.12,0.26s0.41,0.41,0.41,0.73c0,0.27-0.09,0.56-0.27,0.85l-2.18,3.67
			c-0.32,0.54-0.62,0.9-0.92,1.05c-0.29,0.16-0.83,0.24-1.6,0.24h-3.64C273.4,358.93,272.95,358.61,272.95,357.98z"/>
		<path d="M291.02,383.48c-0.31-0.32-0.46-0.8-0.46-1.46v-19.28c0-0.66,0.15-1.14,0.46-1.45c0.31-0.31,0.84-0.46,1.62-0.46h3.23
			c0.48,0,0.84,0.06,1.1,0.19c0.26,0.13,0.52,0.37,0.76,0.73l6.15,9.15v-8.13c0-0.66,0.15-1.14,0.46-1.46
			c0.31-0.32,0.83-0.48,1.58-0.48h4.05c0.77,0,1.31,0.15,1.62,0.46c0.31,0.31,0.46,0.8,0.46,1.48v19.28c0,0.66-0.15,1.14-0.46,1.45
			c-0.31,0.31-0.84,0.46-1.62,0.46h-3.23c-0.48,0-0.84-0.06-1.1-0.19c-0.26-0.13-0.52-0.37-0.77-0.73l-6.15-9.15v8.16
			c0,0.66-0.15,1.14-0.46,1.45c-0.31,0.31-0.84,0.46-1.62,0.46h-4.05C291.85,383.95,291.32,383.79,291.02,383.48z"/>
		<path d="M86.85,422.22c-2.29-2.03-3.43-5.04-3.43-9.03c0-4.01,1.11-7.03,3.32-9.04s5.37-3.03,9.47-3.03
			c1.86,0,3.51,0.18,4.96,0.54s2.66,0.87,3.64,1.53c0.27,0.2,0.41,0.43,0.41,0.68c0,0.2-0.1,0.49-0.31,0.85l-1.7,2.92
			c-0.18,0.32-0.4,0.48-0.65,0.48c-0.16,0-0.42-0.09-0.78-0.27c-0.63-0.32-1.3-0.57-1.99-0.75c-0.69-0.18-1.5-0.27-2.43-0.27
			c-1.88,0-3.32,0.54-4.32,1.63s-1.5,2.66-1.5,4.73c0,2.04,0.54,3.61,1.63,4.71s2.57,1.65,4.45,1.65c1.63,0,3.13-0.34,4.49-1.02
			c0.36-0.18,0.62-0.27,0.78-0.27c0.25,0,0.46,0.16,0.65,0.48l1.7,2.92c0.2,0.36,0.31,0.65,0.31,0.85c0,0.25-0.14,0.48-0.41,0.68
			c-0.97,0.66-2.2,1.17-3.67,1.53c-1.47,0.36-3.14,0.54-5,0.54C92.35,425.26,89.14,424.25,86.85,422.22z"/>
		<path d="M108.17,422.12c-2.09-2.1-3.13-5.07-3.13-8.92s1.04-6.83,3.13-8.93c2.08-2.1,5.15-3.14,9.18-3.14s7.09,1.05,9.18,3.14
			c2.08,2.1,3.13,5.07,3.13,8.93s-1.04,6.83-3.13,8.92c-2.09,2.1-5.15,3.14-9.18,3.14S110.25,424.21,108.17,422.12z M120.54,417.97
			c0.66-1.05,0.99-2.65,0.99-4.78c0-2.15-0.33-3.75-0.99-4.79c-0.66-1.04-1.72-1.56-3.2-1.56c-1.47,0-2.54,0.52-3.2,1.56
			c-0.66,1.04-0.99,2.64-0.99,4.79c0,2.13,0.33,3.72,0.99,4.78c0.66,1.05,1.72,1.58,3.2,1.58
			C118.82,419.55,119.89,419.02,120.54,417.97z"/>
		<path d="M131.81,424.28c-0.31-0.32-0.46-0.8-0.46-1.46v-19.28c0-0.66,0.15-1.14,0.46-1.45s0.84-0.46,1.62-0.46h3.23
			c0.48,0,0.84,0.06,1.1,0.19c0.26,0.12,0.52,0.37,0.76,0.73l6.15,9.15v-8.13c0-0.66,0.15-1.14,0.46-1.46s0.83-0.48,1.58-0.48h4.05
			c0.77,0,1.31,0.15,1.62,0.46c0.31,0.31,0.46,0.8,0.46,1.48v19.28c0,0.66-0.15,1.14-0.46,1.45c-0.31,0.31-0.84,0.46-1.62,0.46
			h-3.23c-0.48,0-0.84-0.06-1.1-0.19c-0.26-0.13-0.52-0.37-0.77-0.73l-6.15-9.15v8.16c0,0.66-0.15,1.14-0.46,1.45
			c-0.31,0.31-0.84,0.46-1.62,0.46h-4.05C132.65,424.75,132.12,424.59,131.81,424.28z"/>
		<path d="M165.88,424.28c-0.31-0.32-0.46-0.8-0.46-1.46v-19.24c0-0.66,0.15-1.14,0.46-1.46s0.83-0.48,1.58-0.48h4.05
			c0.77,0,1.31,0.15,1.62,0.46c0.31,0.31,0.46,0.8,0.46,1.48v19.24c0,0.66-0.15,1.15-0.46,1.46c-0.31,0.32-0.84,0.48-1.62,0.48
			h-4.05C166.71,424.75,166.19,424.59,165.88,424.28z"/>
		<path d="M184.24,424.46c-0.26-0.19-0.48-0.53-0.66-1l-8.13-20.37c-0.11-0.29-0.17-0.54-0.17-0.75c0-0.48,0.25-0.71,0.75-0.71h6.39
			c0.7,0,1.14,0.31,1.33,0.92l3.47,11.08l3.47-11.08c0.18-0.61,0.62-0.92,1.33-0.92h6.39c0.5,0,0.75,0.24,0.75,0.71
			c0,0.2-0.06,0.45-0.17,0.75l-8.09,20.37c-0.18,0.48-0.4,0.81-0.66,1c-0.26,0.19-0.64,0.29-1.14,0.29h-3.71
			C184.88,424.75,184.5,424.66,184.24,424.46z"/>
		<path d="M200.12,424.28c-0.31-0.32-0.46-0.8-0.46-1.46v-19.24c0-0.66,0.15-1.14,0.46-1.46s0.83-0.48,1.58-0.48h8.13
			c3.4,0,5.88,0.67,7.43,2.02c1.55,1.35,2.33,3.38,2.33,6.1c0,1.63-0.28,3.01-0.83,4.13c-0.56,1.12-1.41,2-2.57,2.64l3.16,6.77
			c0.09,0.18,0.14,0.39,0.14,0.61c0,0.25-0.09,0.45-0.26,0.61c-0.17,0.16-0.39,0.24-0.66,0.24h-5.75c-0.36,0-0.65-0.05-0.87-0.15
			c-0.22-0.1-0.37-0.28-0.46-0.53l-2.52-6.32h-1.16v5.07c0,0.66-0.15,1.15-0.46,1.46c-0.31,0.32-0.84,0.48-1.62,0.48h-4.05
			C200.95,424.75,200.43,424.59,200.12,424.28z M209.11,412.07c0.73,0,1.3-0.19,1.72-0.58s0.63-0.96,0.63-1.73
			c0-0.79-0.21-1.38-0.63-1.77s-0.99-0.58-1.72-0.58h-2.31v4.66H209.11z"/>
		<path d="M219.45,428.02c0-0.09,0.02-0.25,0.07-0.48l1.67-5.95c0.16-0.59,0.37-0.97,0.63-1.16c0.26-0.18,0.7-0.27,1.31-0.27h3.2
			c0.52,0,0.9,0.07,1.12,0.2c0.23,0.14,0.34,0.35,0.34,0.65c0,0.32-0.09,0.69-0.27,1.12l-2.45,5.78c-0.14,0.29-0.31,0.52-0.53,0.66
			c-0.22,0.15-0.53,0.22-0.94,0.22h-3.13C219.79,428.8,219.45,428.54,219.45,428.02z"/>
		<path d="M242.47,422.22c-2.29-2.03-3.43-5.04-3.43-9.03c0-4.01,1.11-7.03,3.32-9.04s5.37-3.03,9.47-3.03
			c1.86,0,3.51,0.18,4.96,0.54s2.66,0.87,3.64,1.53c0.27,0.2,0.41,0.43,0.41,0.68c0,0.2-0.1,0.49-0.31,0.85l-1.7,2.92
			c-0.18,0.32-0.4,0.48-0.65,0.48c-0.16,0-0.42-0.09-0.78-0.27c-0.63-0.32-1.3-0.57-1.99-0.75c-0.69-0.18-1.5-0.27-2.43-0.27
			c-1.88,0-3.32,0.54-4.32,1.63s-1.5,2.66-1.5,4.73c0,2.04,0.54,3.61,1.63,4.71s2.57,1.65,4.45,1.65c1.63,0,3.13-0.34,4.49-1.02
			c0.36-0.18,0.62-0.27,0.78-0.27c0.25,0,0.46,0.16,0.65,0.48l1.7,2.92c0.2,0.36,0.31,0.65,0.31,0.85c0,0.25-0.14,0.48-0.41,0.68
			c-0.97,0.66-2.2,1.17-3.67,1.53c-1.47,0.36-3.14,0.54-5,0.54C247.96,425.26,244.76,424.25,242.47,422.22z"/>
		<path d="M263.33,424.28c-0.31-0.32-0.46-0.8-0.46-1.46v-19.24c0-0.66,0.15-1.14,0.46-1.46s0.83-0.48,1.58-0.48h8.13
			c3.4,0,5.88,0.67,7.43,2.02c1.55,1.35,2.33,3.38,2.33,6.1c0,1.63-0.28,3.01-0.83,4.13c-0.56,1.12-1.41,2-2.57,2.64l3.16,6.77
			c0.09,0.18,0.14,0.39,0.14,0.61c0,0.25-0.09,0.45-0.26,0.61c-0.17,0.16-0.39,0.24-0.66,0.24h-5.75c-0.36,0-0.65-0.05-0.87-0.15
			c-0.22-0.1-0.37-0.28-0.46-0.53l-2.52-6.32h-1.16v5.07c0,0.66-0.15,1.15-0.46,1.46c-0.31,0.32-0.84,0.48-1.62,0.48h-4.05
			C264.16,424.75,263.63,424.59,263.33,424.28z M272.32,412.07c0.73,0,1.3-0.19,1.72-0.58s0.63-0.96,0.63-1.73
			c0-0.79-0.21-1.38-0.63-1.77s-0.99-0.58-1.72-0.58h-2.31v4.66H272.32z"/>
		<path d="M284.95,424.28c-0.31-0.32-0.46-0.8-0.46-1.46v-19.28c0-0.66,0.15-1.14,0.46-1.45s0.84-0.46,1.62-0.46h3.91
			c0.5,0,0.9,0.06,1.19,0.19c0.29,0.12,0.52,0.37,0.68,0.73l3.98,9.96l3.98-9.96c0.16-0.36,0.39-0.61,0.68-0.73
			c0.29-0.13,0.69-0.19,1.19-0.19h3.91c0.77,0,1.31,0.15,1.62,0.46s0.46,0.79,0.46,1.45v19.28c0,0.66-0.15,1.15-0.46,1.46
			s-0.83,0.48-1.58,0.48h-3.26c-0.75,0-1.28-0.16-1.6-0.48c-0.32-0.32-0.48-0.8-0.48-1.46v-9.28l-2.01,4.62
			c-0.27,0.66-0.57,1.13-0.88,1.41s-0.84,0.42-1.56,0.42c-0.73,0-1.25-0.14-1.56-0.42c-0.32-0.28-0.61-0.75-0.88-1.41l-2.01-4.62
			v9.28c0,0.66-0.15,1.15-0.46,1.46c-0.31,0.32-0.84,0.48-1.61,0.48h-3.26C285.78,424.75,285.25,424.59,284.95,424.28z"/>
		<path d="M309.89,428.02c0-0.09,0.02-0.25,0.07-0.48l1.67-5.95c0.16-0.59,0.37-0.97,0.63-1.16c0.26-0.18,0.7-0.27,1.31-0.27h3.2
			c0.52,0,0.9,0.07,1.12,0.2c0.23,0.14,0.34,0.35,0.34,0.65c0,0.32-0.09,0.69-0.27,1.12l-2.45,5.78c-0.14,0.29-0.31,0.52-0.53,0.66
			c-0.22,0.15-0.53,0.22-0.94,0.22h-3.13C310.23,428.8,309.89,428.54,309.89,428.02z"/>
		<path d="M87.36,465.26c-0.28-0.19-0.48-0.53-0.59-1l-5.1-20.71l-0.07-0.41c0-0.48,0.34-0.71,1.02-0.71h5.78
			c0.43,0,0.75,0.07,0.95,0.22c0.2,0.15,0.33,0.38,0.37,0.7l1.33,8.09l2.04-6.19c0.14-0.41,0.31-0.69,0.53-0.83s0.55-0.22,1-0.22
			h2.65c0.45,0,0.79,0.07,1,0.22c0.22,0.15,0.39,0.42,0.53,0.83l2.04,6.19l1.33-8.09c0.04-0.32,0.17-0.55,0.37-0.7
			c0.2-0.15,0.52-0.22,0.95-0.22h5.81c0.68,0,1.02,0.24,1.02,0.71l-0.07,0.41l-5.13,20.71c-0.11,0.48-0.31,0.81-0.6,1
			c-0.28,0.19-0.69,0.29-1.21,0.29h-3.71c-0.5,0-0.89-0.1-1.17-0.29c-0.28-0.19-0.49-0.53-0.63-1l-1.87-6.6l-1.87,6.6
			c-0.14,0.48-0.35,0.81-0.63,1c-0.28,0.19-0.67,0.29-1.17,0.29h-3.71C88.04,465.55,87.64,465.46,87.36,465.26z"/>
		<path d="M112.49,465.08c-0.31-0.32-0.46-0.8-0.46-1.46v-19.24c0-0.66,0.15-1.14,0.46-1.46s0.83-0.48,1.58-0.48h14.08
			c0.73,0,1.22,0.15,1.48,0.46c0.26,0.31,0.39,0.8,0.39,1.48v1.9c0,0.68-0.13,1.17-0.39,1.48c-0.26,0.31-0.75,0.46-1.48,0.46h-7.96
			v2.92h4.9c0.73,0,1.22,0.15,1.48,0.46c0.26,0.31,0.39,0.8,0.39,1.48v1.84c0,0.68-0.13,1.17-0.39,1.48
			c-0.26,0.31-0.75,0.46-1.48,0.46h-4.9v2.92h7.92c0.73,0,1.22,0.15,1.48,0.46c0.26,0.31,0.39,0.8,0.39,1.48v1.9
			c0,0.68-0.13,1.17-0.39,1.48c-0.26,0.31-0.75,0.46-1.48,0.46h-14.04C113.32,465.55,112.79,465.39,112.49,465.08z"/>
		<path d="M132,465.08c-0.31-0.32-0.46-0.8-0.46-1.46v-19.24c0-0.66,0.15-1.14,0.46-1.46s0.83-0.48,1.58-0.48h10.3
			c2.77,0,4.8,0.59,6.1,1.77s1.96,2.86,1.96,5.03c0,1.02-0.22,1.92-0.66,2.7c-0.44,0.78-1.03,1.33-1.75,1.65
			c2.02,0.68,3.03,2.27,3.03,4.76c0,2.13-0.75,3.87-2.26,5.2c-1.51,1.34-3.72,2.01-6.65,2.01h-10.06
			C132.83,465.55,132.31,465.39,132,465.08z M142.25,451.17c1.04,0,1.56-0.5,1.56-1.5c0-1-0.52-1.5-1.56-1.5h-2.58v2.99H142.25z
			 M142.83,459.81c0.48,0,0.86-0.15,1.16-0.46s0.44-0.72,0.44-1.24c0-0.54-0.14-0.96-0.43-1.26c-0.28-0.29-0.67-0.44-1.17-0.44
			h-3.16v3.4H142.83z"/>
		<path d="M157.04,465.42c-1.77-0.43-3.2-1.03-4.28-1.8c-0.45-0.32-0.68-0.62-0.68-0.92c0-0.2,0.08-0.42,0.24-0.65l1.97-3.09
			c0.2-0.29,0.41-0.44,0.61-0.44c0.18,0,0.4,0.08,0.65,0.24c0.82,0.5,1.75,0.89,2.8,1.17c1.05,0.28,2.08,0.42,3.08,0.42
			c0.84,0,1.44-0.11,1.82-0.34s0.56-0.58,0.56-1.05c0-0.52-0.25-0.94-0.75-1.26s-1.36-0.71-2.58-1.19
			c-2.29-0.88-4.09-1.89-5.41-3.01c-1.31-1.12-1.97-2.61-1.97-4.47c0-2.36,0.82-4.13,2.46-5.32c1.64-1.19,3.86-1.79,6.65-1.79
			c1.95,0,3.61,0.17,4.98,0.51c1.37,0.34,2.57,0.87,3.59,1.6c0.45,0.32,0.68,0.62,0.68,0.92c0,0.2-0.08,0.42-0.24,0.65l-1.97,3.09
			c-0.2,0.32-0.41,0.48-0.61,0.48c-0.14,0-0.35-0.09-0.65-0.27c-0.54-0.36-1.19-0.66-1.94-0.9c-0.75-0.24-1.55-0.36-2.41-0.36
			c-0.79,0-1.39,0.11-1.8,0.34c-0.41,0.23-0.61,0.59-0.61,1.09c0,0.41,0.14,0.75,0.43,1.02c0.28,0.27,0.64,0.5,1.07,0.7
			c0.43,0.19,1.18,0.5,2.24,0.94c1.7,0.68,3.04,1.33,4.01,1.96s1.71,1.37,2.21,2.24c0.5,0.87,0.75,1.98,0.75,3.31
			c0,2.04-0.77,3.69-2.29,4.95s-3.81,1.89-6.85,1.89C160.73,466.06,158.81,465.85,157.04,465.42z"/>
		<path d="M174.09,465.08c-0.31-0.32-0.46-0.8-0.46-1.46v-19.24c0-0.66,0.15-1.14,0.46-1.46s0.83-0.48,1.58-0.48h14.08
			c0.73,0,1.22,0.15,1.48,0.46c0.26,0.31,0.39,0.8,0.39,1.48v1.9c0,0.68-0.13,1.17-0.39,1.48c-0.26,0.31-0.75,0.46-1.48,0.46h-7.96
			v2.92h4.9c0.73,0,1.22,0.15,1.48,0.46c0.26,0.31,0.39,0.8,0.39,1.48v1.84c0,0.68-0.13,1.17-0.39,1.48
			c-0.26,0.31-0.75,0.46-1.48,0.46h-4.9v2.92h7.92c0.73,0,1.22,0.15,1.48,0.46c0.26,0.31,0.39,0.8,0.39,1.48v1.9
			c0,0.68-0.13,1.17-0.39,1.48c-0.26,0.31-0.75,0.46-1.48,0.46h-14.04C174.93,465.55,174.4,465.39,174.09,465.08z"/>
		<path d="M193.61,465.08c-0.31-0.32-0.46-0.8-0.46-1.46v-19.24c0-0.66,0.15-1.14,0.46-1.46s0.83-0.48,1.58-0.48h8.13
			c3.4,0,5.88,0.67,7.43,2.02c1.55,1.35,2.33,3.38,2.33,6.1c0,1.63-0.28,3.01-0.83,4.13c-0.56,1.12-1.41,2-2.57,2.64l3.16,6.77
			c0.09,0.18,0.14,0.39,0.14,0.61c0,0.25-0.09,0.45-0.26,0.61c-0.17,0.16-0.39,0.24-0.66,0.24h-5.75c-0.36,0-0.65-0.05-0.87-0.15
			c-0.22-0.1-0.37-0.28-0.46-0.53l-2.52-6.32h-1.16v5.07c0,0.66-0.15,1.15-0.46,1.46c-0.31,0.32-0.84,0.48-1.62,0.48h-4.05
			C194.44,465.55,193.91,465.39,193.61,465.08z M202.6,452.87c0.73,0,1.3-0.19,1.72-0.58s0.63-0.96,0.63-1.73
			c0-0.79-0.21-1.38-0.63-1.77s-0.99-0.58-1.72-0.58h-2.31v4.66H202.6z"/>
		<path d="M220.84,465.26c-0.26-0.19-0.48-0.53-0.66-1l-8.13-20.37c-0.11-0.29-0.17-0.54-0.17-0.75c0-0.48,0.25-0.71,0.75-0.71h6.39
			c0.7,0,1.14,0.31,1.33,0.92l3.47,11.08l3.47-11.08c0.18-0.61,0.62-0.92,1.33-0.92H235c0.5,0,0.75,0.24,0.75,0.71
			c0,0.2-0.06,0.45-0.17,0.75l-8.09,20.37c-0.18,0.48-0.4,0.81-0.66,1c-0.26,0.19-0.64,0.29-1.14,0.29h-3.71
			C221.48,465.55,221.1,465.46,220.84,465.26z"/>
		<path d="M237.91,465.08c-0.31-0.32-0.46-0.8-0.46-1.46v-19.24c0-0.66,0.15-1.14,0.46-1.46s0.83-0.48,1.58-0.48h4.05
			c0.77,0,1.31,0.15,1.62,0.46c0.31,0.31,0.46,0.8,0.46,1.48v19.24c0,0.66-0.15,1.15-0.46,1.46c-0.31,0.32-0.84,0.48-1.62,0.48
			h-4.05C238.74,465.55,238.22,465.39,237.91,465.08z"/>
		<path d="M250.75,463.02c-2.29-2.03-3.43-5.04-3.43-9.03c0-4.01,1.11-7.03,3.32-9.04s5.37-3.03,9.47-3.03
			c1.86,0,3.51,0.18,4.96,0.54s2.66,0.87,3.64,1.53c0.27,0.2,0.41,0.43,0.41,0.68c0,0.2-0.1,0.49-0.31,0.85l-1.7,2.92
			c-0.18,0.32-0.4,0.48-0.65,0.48c-0.16,0-0.42-0.09-0.78-0.27c-0.63-0.32-1.3-0.57-1.99-0.75c-0.69-0.18-1.5-0.27-2.43-0.27
			c-1.88,0-3.32,0.54-4.32,1.63s-1.5,2.66-1.5,4.73c0,2.04,0.54,3.61,1.63,4.71s2.57,1.65,4.45,1.65c1.63,0,3.13-0.34,4.49-1.02
			c0.36-0.18,0.62-0.27,0.78-0.27c0.25,0,0.46,0.16,0.65,0.48l1.7,2.92c0.2,0.36,0.31,0.65,0.31,0.85c0,0.25-0.14,0.48-0.41,0.68
			c-0.97,0.66-2.2,1.17-3.67,1.53c-1.47,0.36-3.14,0.54-5,0.54C256.24,466.06,253.03,465.05,250.75,463.02z"/>
		<path d="M271.6,465.08c-0.31-0.32-0.46-0.8-0.46-1.46v-19.24c0-0.66,0.15-1.14,0.46-1.46s0.83-0.48,1.58-0.48h14.08
			c0.73,0,1.22,0.15,1.48,0.46c0.26,0.31,0.39,0.8,0.39,1.48v1.9c0,0.68-0.13,1.17-0.39,1.48c-0.26,0.31-0.75,0.46-1.48,0.46h-7.96
			v2.92h4.9c0.73,0,1.22,0.15,1.48,0.46c0.26,0.31,0.39,0.8,0.39,1.48v1.84c0,0.68-0.13,1.17-0.39,1.48
			c-0.26,0.31-0.75,0.46-1.48,0.46h-4.9v2.92h7.92c0.73,0,1.22,0.15,1.48,0.46c0.26,0.31,0.39,0.8,0.39,1.48v1.9
			c0,0.68-0.13,1.17-0.39,1.48c-0.26,0.31-0.75,0.46-1.48,0.46h-14.04C272.44,465.55,271.91,465.39,271.6,465.08z"/>
		<path d="M294.98,465.42c-1.77-0.43-3.2-1.03-4.28-1.8c-0.45-0.32-0.68-0.62-0.68-0.92c0-0.2,0.08-0.42,0.24-0.65l1.97-3.09
			c0.2-0.29,0.41-0.44,0.61-0.44c0.18,0,0.4,0.08,0.65,0.24c0.82,0.5,1.75,0.89,2.8,1.17c1.05,0.28,2.08,0.42,3.08,0.42
			c0.84,0,1.44-0.11,1.82-0.34s0.56-0.58,0.56-1.05c0-0.52-0.25-0.94-0.75-1.26s-1.36-0.71-2.58-1.19
			c-2.29-0.88-4.09-1.89-5.41-3.01c-1.31-1.12-1.97-2.61-1.97-4.47c0-2.36,0.82-4.13,2.46-5.32c1.64-1.19,3.86-1.79,6.65-1.79
			c1.95,0,3.61,0.17,4.98,0.51c1.37,0.34,2.57,0.87,3.59,1.6c0.45,0.32,0.68,0.62,0.68,0.92c0,0.2-0.08,0.42-0.24,0.65l-1.97,3.09
			c-0.2,0.32-0.41,0.48-0.61,0.48c-0.14,0-0.35-0.09-0.65-0.27c-0.54-0.36-1.19-0.66-1.94-0.9c-0.75-0.24-1.55-0.36-2.41-0.36
			c-0.79,0-1.39,0.11-1.8,0.34c-0.41,0.23-0.61,0.59-0.61,1.09c0,0.41,0.14,0.75,0.43,1.02c0.28,0.27,0.64,0.5,1.07,0.7
			c0.43,0.19,1.18,0.5,2.24,0.94c1.7,0.68,3.04,1.33,4.01,1.96s1.71,1.37,2.21,2.24c0.5,0.87,0.75,1.98,0.75,3.31
			c0,2.04-0.77,3.69-2.29,4.95s-3.81,1.89-6.85,1.89C298.66,466.06,296.75,465.85,294.98,465.42z"/>
		<path d="M85.47,505.88c-0.31-0.32-0.46-0.8-0.46-1.46v-6.15l-7.92-13.57c-0.14-0.25-0.2-0.49-0.2-0.71c0-0.5,0.26-0.75,0.78-0.75
			h6.39c0.34,0,0.6,0.07,0.78,0.22c0.18,0.15,0.36,0.38,0.54,0.7l3.71,6.66l3.71-6.66c0.18-0.32,0.36-0.55,0.54-0.7
			c0.18-0.15,0.44-0.22,0.78-0.22h6.39c0.52,0,0.78,0.25,0.78,0.75c0,0.23-0.07,0.46-0.2,0.71l-7.92,13.57v6.15
			c0,0.66-0.15,1.15-0.46,1.46c-0.31,0.32-0.84,0.48-1.62,0.48h-4.05C86.31,506.35,85.78,506.19,85.47,505.88z"/>
		<path d="M113.69,505.88c-0.31-0.32-0.46-0.8-0.46-1.46v-19.24c0-0.66,0.15-1.14,0.46-1.46s0.83-0.48,1.58-0.48h7.82
			c8,0,12,3.85,12,11.56c0,3.81-1.03,6.69-3.08,8.64c-2.05,1.95-5.03,2.92-8.93,2.92h-7.82C114.52,506.35,114,506.19,113.69,505.88z
			 M123.4,500.57c1.27,0,2.18-0.42,2.74-1.26c0.56-0.84,0.83-2.35,0.83-4.52c0-2.18-0.28-3.68-0.83-4.52
			c-0.56-0.84-1.47-1.26-2.74-1.26h-2.01v11.56H123.4z"/>
		<path d="M137.25,505.88c-0.31-0.32-0.46-0.8-0.46-1.46v-19.24c0-0.66,0.15-1.14,0.46-1.46s0.83-0.48,1.58-0.48h4.05
			c0.77,0,1.31,0.15,1.62,0.46c0.31,0.31,0.46,0.8,0.46,1.48v19.24c0,0.66-0.15,1.15-0.46,1.46c-0.31,0.32-0.84,0.48-1.62,0.48
			h-4.05C138.09,506.35,137.56,506.19,137.25,505.88z"/>
		<path d="M151.65,506.22c-1.77-0.43-3.2-1.03-4.28-1.8c-0.45-0.32-0.68-0.62-0.68-0.92c0-0.2,0.08-0.42,0.24-0.65l1.97-3.09
			c0.2-0.29,0.41-0.44,0.61-0.44c0.18,0,0.4,0.08,0.65,0.24c0.82,0.5,1.75,0.89,2.8,1.17c1.05,0.28,2.08,0.42,3.08,0.42
			c0.84,0,1.44-0.11,1.82-0.34s0.56-0.58,0.56-1.05c0-0.52-0.25-0.94-0.75-1.26s-1.36-0.71-2.58-1.19
			c-2.29-0.88-4.09-1.89-5.41-3.01c-1.31-1.12-1.97-2.61-1.97-4.47c0-2.36,0.82-4.13,2.46-5.32c1.64-1.19,3.86-1.79,6.65-1.79
			c1.95,0,3.61,0.17,4.98,0.51c1.37,0.34,2.57,0.87,3.59,1.6c0.45,0.32,0.68,0.62,0.68,0.92c0,0.2-0.08,0.42-0.24,0.65l-1.97,3.09
			c-0.2,0.32-0.41,0.48-0.61,0.48c-0.14,0-0.35-0.09-0.65-0.27c-0.54-0.36-1.19-0.66-1.94-0.9c-0.75-0.24-1.55-0.36-2.41-0.36
			c-0.79,0-1.39,0.11-1.8,0.34c-0.41,0.23-0.61,0.59-0.61,1.09c0,0.41,0.14,0.75,0.43,1.02c0.28,0.27,0.64,0.5,1.07,0.7
			c0.43,0.19,1.18,0.5,2.24,0.94c1.7,0.68,3.04,1.33,4.01,1.96s1.71,1.37,2.21,2.24c0.5,0.87,0.75,1.98,0.75,3.31
			c0,2.04-0.77,3.69-2.29,4.95s-3.81,1.89-6.85,1.89C155.34,506.86,153.42,506.65,151.65,506.22z"/>
		<path d="M170.15,503.82c-2.29-2.03-3.43-5.04-3.43-9.03c0-4.01,1.11-7.03,3.32-9.04s5.37-3.03,9.47-3.03
			c1.86,0,3.51,0.18,4.96,0.54s2.66,0.87,3.64,1.53c0.27,0.2,0.41,0.43,0.41,0.68c0,0.2-0.1,0.49-0.31,0.85l-1.7,2.92
			c-0.18,0.32-0.4,0.48-0.65,0.48c-0.16,0-0.42-0.09-0.78-0.27c-0.63-0.32-1.3-0.57-1.99-0.75c-0.69-0.18-1.5-0.27-2.43-0.27
			c-1.88,0-3.32,0.54-4.32,1.63s-1.5,2.66-1.5,4.73c0,2.04,0.54,3.61,1.63,4.71s2.57,1.65,4.45,1.65c1.63,0,3.13-0.34,4.49-1.02
			c0.36-0.18,0.62-0.27,0.78-0.27c0.25,0,0.46,0.16,0.65,0.48l1.7,2.92c0.2,0.36,0.31,0.65,0.31,0.85c0,0.25-0.14,0.48-0.41,0.68
			c-0.97,0.66-2.2,1.17-3.67,1.53c-1.47,0.36-3.14,0.54-5,0.54C175.65,506.86,172.44,505.85,170.15,503.82z"/>
		<path d="M189.02,505.64c0-0.2,0.06-0.45,0.17-0.75l8.47-20.37c0.2-0.48,0.44-0.81,0.7-1c0.26-0.19,0.63-0.29,1.11-0.29h3.71
			c0.48,0,0.84,0.1,1.1,0.29c0.26,0.19,0.49,0.53,0.7,1l8.43,20.37c0.11,0.29,0.17,0.54,0.17,0.75c0,0.48-0.25,0.71-0.75,0.71h-6.39
			c-0.7,0-1.15-0.31-1.33-0.92l-0.82-2.52h-6.02l-0.78,2.52c-0.18,0.61-0.62,0.92-1.33,0.92h-6.39
			C189.27,506.35,189.02,506.11,189.02,505.64z M202.62,497.55l-1.33-4.22l-1.33,4.22H202.62z"/>
		<path d="M215.73,505.88c-0.31-0.32-0.46-0.8-0.46-1.46v-19.24c0-0.66,0.15-1.14,0.46-1.46s0.83-0.48,1.58-0.48h7.82
			c8,0,12,3.85,12,11.56c0,3.81-1.03,6.69-3.08,8.64c-2.05,1.95-5.03,2.92-8.93,2.92h-7.82
			C216.56,506.35,216.03,506.19,215.73,505.88z M225.43,500.57c1.27,0,2.18-0.42,2.74-1.26c0.56-0.84,0.83-2.35,0.83-4.52
			c0-2.18-0.28-3.68-0.83-4.52c-0.56-0.84-1.47-1.26-2.74-1.26h-2.01v11.56H225.43z"/>
		<path d="M241.28,503.72c-2.09-2.1-3.13-5.07-3.13-8.92s1.04-6.83,3.13-8.93c2.08-2.1,5.15-3.14,9.18-3.14s7.09,1.05,9.18,3.14
			c2.08,2.1,3.13,5.07,3.13,8.93s-1.04,6.83-3.13,8.92c-2.09,2.1-5.15,3.14-9.18,3.14S243.36,505.81,241.28,503.72z M253.65,499.57
			c0.66-1.05,0.99-2.65,0.99-4.78c0-2.15-0.33-3.75-0.99-4.79c-0.66-1.04-1.72-1.56-3.2-1.56c-1.47,0-2.54,0.52-3.2,1.56
			c-0.66,1.04-0.99,2.64-0.99,4.79c0,2.13,0.33,3.72,0.99,4.78c0.66,1.05,1.72,1.58,3.2,1.58
			C251.93,501.15,252.99,500.62,253.65,499.57z"/>
		<path d="M264.92,505.88c-0.31-0.32-0.46-0.8-0.46-1.46v-19.24c0-0.66,0.15-1.14,0.46-1.46s0.83-0.48,1.58-0.48h8.13
			c3.4,0,5.88,0.67,7.43,2.02c1.55,1.35,2.33,3.38,2.33,6.1c0,1.63-0.28,3.01-0.83,4.13c-0.56,1.12-1.41,2-2.57,2.64l3.16,6.77
			c0.09,0.18,0.14,0.39,0.14,0.61c0,0.25-0.09,0.45-0.26,0.61c-0.17,0.16-0.39,0.24-0.66,0.24h-5.75c-0.36,0-0.65-0.05-0.87-0.15
			c-0.22-0.1-0.37-0.28-0.46-0.53l-2.52-6.32h-1.16v5.07c0,0.66-0.15,1.15-0.46,1.46c-0.31,0.32-0.84,0.48-1.62,0.48h-4.05
			C265.76,506.35,265.23,506.19,264.92,505.88z M273.92,493.67c0.73,0,1.3-0.19,1.72-0.58s0.63-0.96,0.63-1.73
			c0-0.79-0.21-1.38-0.63-1.77s-0.99-0.58-1.72-0.58h-2.31v4.66H273.92z"/>
		<path d="M286.55,505.88c-0.31-0.32-0.46-0.8-0.46-1.46v-19.24c0-0.66,0.15-1.14,0.46-1.46s0.83-0.48,1.58-0.48h14.08
			c0.73,0,1.22,0.15,1.48,0.46c0.26,0.31,0.39,0.8,0.39,1.48v1.9c0,0.68-0.13,1.17-0.39,1.48c-0.26,0.31-0.75,0.46-1.48,0.46h-7.96
			v2.92h4.9c0.73,0,1.22,0.15,1.48,0.46c0.26,0.31,0.39,0.8,0.39,1.48v1.84c0,0.68-0.13,1.17-0.39,1.48
			c-0.26,0.31-0.75,0.46-1.48,0.46h-4.9v2.92h7.92c0.73,0,1.22,0.15,1.48,0.46c0.26,0.31,0.39,0.8,0.39,1.48v1.9
			c0,0.68-0.13,1.17-0.39,1.48c-0.26,0.31-0.75,0.46-1.48,0.46h-14.04C287.38,506.35,286.85,506.19,286.55,505.88z"/>
		<path d="M309.92,506.22c-1.77-0.43-3.2-1.03-4.28-1.8c-0.45-0.32-0.68-0.62-0.68-0.92c0-0.2,0.08-0.42,0.24-0.65l1.97-3.09
			c0.2-0.29,0.41-0.44,0.61-0.44c0.18,0,0.4,0.08,0.65,0.24c0.82,0.5,1.75,0.89,2.8,1.17c1.05,0.28,2.08,0.42,3.08,0.42
			c0.84,0,1.44-0.11,1.82-0.34s0.56-0.58,0.56-1.05c0-0.52-0.25-0.94-0.75-1.26s-1.36-0.71-2.58-1.19
			c-2.29-0.88-4.09-1.89-5.41-3.01c-1.31-1.12-1.97-2.61-1.97-4.47c0-2.36,0.82-4.13,2.46-5.32c1.64-1.19,3.86-1.79,6.65-1.79
			c1.95,0,3.61,0.17,4.98,0.51c1.37,0.34,2.57,0.87,3.59,1.6c0.45,0.32,0.68,0.62,0.68,0.92c0,0.2-0.08,0.42-0.24,0.65l-1.97,3.09
			c-0.2,0.32-0.41,0.48-0.61,0.48c-0.14,0-0.35-0.09-0.65-0.27c-0.54-0.36-1.19-0.66-1.94-0.9c-0.75-0.24-1.55-0.36-2.41-0.36
			c-0.79,0-1.39,0.11-1.8,0.34c-0.41,0.23-0.61,0.59-0.61,1.09c0,0.41,0.14,0.75,0.43,1.02c0.28,0.27,0.64,0.5,1.07,0.7
			c0.43,0.19,1.18,0.5,2.24,0.94c1.7,0.68,3.04,1.33,4.01,1.96s1.71,1.37,2.21,2.24c0.5,0.87,0.75,1.98,0.75,3.31
			c0,2.04-0.77,3.69-2.29,4.95s-3.81,1.89-6.85,1.89C313.6,506.86,311.69,506.65,309.92,506.22z"/>
	</g>
	<polygon class="st6" points="199.76,86.93 213.23,114.22 243.34,118.59 221.55,139.83 226.7,169.83 199.76,155.67 172.83,169.83 
		177.97,139.83 156.18,118.59 186.29,114.22 	"/>
	<polygon class="st6" points="137.58,170.15 146.32,187.86 165.86,190.7 151.72,204.48 155.06,223.94 137.58,214.75 120.11,223.94 
		123.45,204.48 109.31,190.7 128.85,187.86 	"/>
	<polygon class="st6" points="267.68,170.15 276.42,187.86 295.95,190.7 281.82,204.48 285.15,223.94 267.68,214.75 250.2,223.94 
		253.54,204.48 239.4,190.7 258.94,187.86 	"/>
	<circle class="st7" cx="200.77" cy="203.97" r="121.96"/>
	<circle class="st1" cx="199.82" cy="190.58" r="121.96"/>
	<g>
		<path class="st1" d="M180.43,633.16c-0.56-0.66-0.84-1.72-0.84-3.18v-4.09c0-1.46,0.28-2.52,0.84-3.18
			c0.56-0.66,1.62-0.99,3.18-0.99h4.6v-19.05l-2.99,1.9c-0.24,0.2-0.54,0.29-0.88,0.29c-0.44,0-0.8-0.22-1.1-0.66l-5.55-8.47
			c-0.19-0.24-0.29-0.51-0.29-0.8c0-0.49,0.27-0.88,0.8-1.17l13.8-8.32c0.58-0.34,1.14-0.58,1.68-0.73
			c0.54-0.15,1.31-0.22,2.34-0.22h5.33c1.61,0,2.74,0.34,3.39,1.02c0.66,0.68,0.99,1.73,0.99,3.14v33.07h4.67
			c1.56,0,2.62,0.33,3.18,0.99c0.56,0.66,0.84,1.72,0.84,3.18v4.09c0,1.46-0.28,2.52-0.84,3.18c-0.56,0.66-1.62,0.99-3.18,0.99
			h-26.79C182.05,634.14,180.99,633.81,180.43,633.16z"/>
	</g>
	<g>
		<g>
			<g>
				<path class="st8" d="M267.16,221.24c0,3.14-2.57,5.71-5.71,5.71H145.99c-3.14,0-5.71-2.57-5.71-5.71v-66.85
					c0-3.12,2.56-5.69,5.71-5.69h115.45c3.14,0,5.71,2.57,5.71,5.69V221.24z"/>
				<path class="st9" d="M266.59,148.7h-57.11h-58.34c-3.14,0-5.7,2.57-5.7,5.69v66.85c0,3.14,2.56,5.71,5.7,5.71h58.34h57.11
					c3.13,0,5.7-2.57,5.7-5.71v-66.85C272.29,151.27,269.72,148.7,266.59,148.7z"/>
				<path class="st10" d="M261.45,148.7h-57.11h-58.35c-3.14,0-5.71,2.57-5.71,5.69v66.85c0,3.14,2.56,5.71,5.71,5.71h58.35h57.11
					c3.14,0,5.71-2.57,5.71-5.71v-66.85C267.16,151.27,264.58,148.7,261.45,148.7z"/>
				<path class="st11" d="M259.15,153.79h-54.81h-56.05c-1.88,0-3.42,1.56-3.42,3.43v61.21c0,1.89,1.54,3.42,3.42,3.42h56.05h54.81
					c1.87,0,3.42-1.54,3.42-3.42v-61.21C262.57,155.34,261.03,153.79,259.15,153.79z"/>
			</g>
			<g>
				<path class="st9" d="M207.56,226.95v11.63h63.16c5.68,0,10.28-4.6,10.28-10.28v-1.35H207.56z"/>
				<path class="st12" d="M129.66,226.95v1.35c0,5.67,4.61,10.28,10.28,10.28h64.4v-11.63H129.66z"/>
			</g>
			<path class="st13" d="M171.74,226.95H97.06v1.35c0,5.67,4.61,10.28,10.29,10.28h64.4h63.16c5.68,0,10.28-4.6,10.28-10.28v-1.35
				H171.74z"/>
		</g>
		<g id="_x39_">
			<path class="st14" d="M235.6,196.09l-0.26,0.02l0.52,23.16c3.14-0.07,6.32-0.78,9.34-2.2c1.56-0.74,3.01-1.63,4.32-2.65
				c3.63-2.81,6.26-6.58,7.71-10.77L235.6,196.09z"/>
			<path class="st15" d="M252.42,180.46c-6.67-7.28-17.53-9.72-26.93-5.3c-1.92,0.91-3.65,2.04-5.19,3.35l15.04,17.61l0.15-0.01
				l17.15-15.39C252.57,180.63,252.5,180.54,252.42,180.46z"/>
			<path class="st16" d="M258.43,194.18c-0.22-2.67-0.91-5.35-2.12-7.92c-0.97-2.07-2.22-3.92-3.66-5.54l-17.15,15.39l0.11-0.01
				l21.63,7.57C258.27,200.65,258.7,197.42,258.43,194.18z"/>
			<path class="st17" d="M235.35,196.11l-15.04-17.61c-5.32,4.54-8.26,11.25-8.11,18.14c0.07,3.14,0.78,6.3,2.2,9.32
				c4.02,8.56,12.6,13.49,21.48,13.3L235.35,196.11z"/>
		</g>
		<rect x="148.37" y="173.44" class="st18" width="60.31" height="44.08"/>
		<g>
			<g>
				<rect x="150.78" y="176.31" class="st17" width="9.03" height="7.94"/>
				<rect x="162.7" y="176.31" class="st19" width="43.58" height="7.94"/>
			</g>
			<g>
				<rect x="150.78" y="186.45" class="st14" width="9.03" height="7.94"/>
				<rect x="162.7" y="186.45" class="st19" width="43.58" height="7.94"/>
			</g>
			<g>
				<rect x="150.78" y="196.58" class="st15" width="9.03" height="7.94"/>
				<rect x="162.7" y="196.58" class="st19" width="43.58" height="7.94"/>
			</g>
			<g>
				<rect x="150.78" y="206.71" class="st16" width="9.03" height="7.94"/>
				<rect x="162.7" y="206.71" class="st19" width="43.58" height="7.94"/>
			</g>
		</g>
		<g>
			<path class="st14" d="M158.44,169.44c-1.21-1.07-1.81-2.66-1.81-4.76c0-2.12,0.58-3.7,1.75-4.77c1.17-1.06,2.83-1.6,4.99-1.6
				c0.98,0,1.85,0.1,2.62,0.29c0.76,0.19,1.4,0.46,1.92,0.81c0.14,0.11,0.21,0.23,0.21,0.36c0,0.11-0.05,0.26-0.16,0.45l-0.9,1.54
				c-0.1,0.17-0.21,0.25-0.34,0.25c-0.08,0-0.22-0.05-0.41-0.14c-0.33-0.17-0.68-0.3-1.05-0.39c-0.36-0.1-0.79-0.14-1.28-0.14
				c-0.99,0-1.75,0.29-2.28,0.86c-0.53,0.57-0.79,1.4-0.79,2.49c0,1.08,0.29,1.9,0.86,2.48c0.57,0.58,1.36,0.87,2.35,0.87
				c0.86,0,1.65-0.18,2.37-0.54c0.19-0.1,0.33-0.14,0.41-0.14c0.13,0,0.24,0.08,0.34,0.25l0.9,1.54c0.11,0.19,0.16,0.34,0.16,0.45
				c0,0.13-0.07,0.25-0.21,0.36c-0.51,0.35-1.16,0.62-1.94,0.81s-1.65,0.29-2.63,0.29C161.34,171.05,159.65,170.51,158.44,169.44z"
				/>
			<path class="st14" d="M169.44,170.53c-0.16-0.17-0.24-0.42-0.24-0.77v-10.15c0-0.35,0.08-0.6,0.24-0.77
				c0.16-0.17,0.44-0.25,0.83-0.25h4.28c1.79,0,3.1,0.36,3.92,1.07c0.82,0.71,1.23,1.78,1.23,3.22c0,0.86-0.15,1.59-0.44,2.18
				c-0.29,0.59-0.74,1.05-1.35,1.39l1.67,3.57c0.05,0.1,0.07,0.2,0.07,0.32c0,0.13-0.04,0.24-0.13,0.32
				c-0.09,0.08-0.21,0.13-0.35,0.13h-3.03c-0.19,0-0.34-0.03-0.46-0.08c-0.11-0.05-0.19-0.15-0.24-0.28l-1.33-3.33h-0.61v2.67
				c0,0.35-0.08,0.6-0.24,0.77c-0.16,0.17-0.45,0.25-0.85,0.25h-2.13C169.88,170.78,169.6,170.7,169.44,170.53z M174.18,164.09
				c0.38,0,0.68-0.1,0.91-0.3c0.22-0.2,0.33-0.51,0.33-0.91c0-0.42-0.11-0.73-0.33-0.93c-0.22-0.2-0.52-0.3-0.91-0.3h-1.22v2.46
				H174.18z"/>
			<path class="st14" d="M180.83,170.53c-0.16-0.17-0.24-0.42-0.24-0.77V159.6c0-0.35,0.08-0.6,0.24-0.76
				c0.16-0.16,0.45-0.24,0.85-0.24h2.06c0.26,0,0.47,0.03,0.63,0.1c0.16,0.07,0.27,0.19,0.36,0.39l2.1,5.25l2.1-5.25
				c0.08-0.19,0.2-0.32,0.36-0.39c0.16-0.07,0.36-0.1,0.63-0.1h2.06c0.41,0,0.69,0.08,0.85,0.24c0.16,0.16,0.24,0.42,0.24,0.76
				v10.16c0,0.35-0.08,0.6-0.24,0.77c-0.16,0.17-0.44,0.25-0.83,0.25h-1.72c-0.39,0-0.68-0.08-0.84-0.25
				c-0.17-0.17-0.25-0.42-0.25-0.77v-4.89l-1.06,2.44c-0.14,0.35-0.3,0.59-0.47,0.74s-0.44,0.22-0.82,0.22
				c-0.38,0-0.66-0.07-0.82-0.22s-0.32-0.4-0.47-0.74l-1.06-2.44v4.89c0,0.35-0.08,0.6-0.24,0.77c-0.16,0.17-0.45,0.25-0.85,0.25
				h-1.72C181.27,170.78,181,170.7,180.83,170.53z"/>
		</g>
	</g>
</g>
</svg>
