<?xml version="1.0" encoding="utf-8"?>
<!-- Generator: Adobe Illustrator 23.0.0, SVG Export Plug-In . SVG Version: 6.00 Build 0)  -->
<svg version="1.1" id="Capa_1" xmlns="http://www.w3.org/2000/svg" xmlns:xlink="http://www.w3.org/1999/xlink" x="0px" y="0px"
	 viewBox="0 0 400 689" style="enable-background:new 0 0 400 689;" xml:space="preserve">
<style type="text/css">
	.st0{fill:#E2E2E2;}
	.st1{fill:#FFFFFF;}
	.st2{fill:#CCCDCE;}
	.st3{fill:#F2F2F2;}
	.st4{fill:none;}
	.st5{fill:#0085B0;}
	.st6{fill:#E0EF18;}
	.st7{fill:#CECECE;}
	.st8{fill:#22272F;}
	.st9{fill:#1B2538;}
	.st10{fill:#253452;}
	.st11{fill:#F9F9F9;}
	.st12{fill:#2D3543;}
	.st13{fill:#2A3D60;}
	.st14{fill:#6C92D5;}
	.st15{fill:#587955;}
	.st16{fill:#CD7054;}
	.st17{fill:#F1CC4B;}
	.st18{fill:#DFDFDF;}
	.st19{fill:#ACACAC;}
	.st20{fill:#00D13C;}
	.st21{fill:#866A5E;}
	.st22{fill:#F7DDCB;}
	.st23{fill:#FFE6D4;}
	.st24{fill:#2D2D2D;}
	.st25{fill:#1C1B1A;}
	.st26{fill:#F5F5F5;}
	.st27{fill:#77181C;}
	.st28{fill:#EAEAEA;}
	.st29{fill:#262525;}
	.st30{fill:#11100F;}
	.st31{fill:#FFFFFF;stroke:#000000;stroke-width:6;stroke-miterlimit:10;}
	.st32{fill:#D4D4D4;}
	.st33{fill:#C2C2C2;}
	.st34{fill:#505050;}
	.st35{fill:#53C2C9;}
	.st36{fill:#008B9C;}
	.st37{fill:none;stroke:#00550B;stroke-width:4;stroke-miterlimit:10;}
	.st38{fill:#CE2458;}
	.st39{fill:#155500;}
	.st40{fill:#1549FF;}
	.st41{fill:#606060;stroke:#C6C8CC;stroke-width:6;stroke-miterlimit:10;}
	.st42{fill:#727272;}
	.st43{fill:#207235;}
	.st44{fill:#A3A3A3;}
	.st45{fill:#BCBCBC;}
	.st46{fill:#2A5936;}
	.st47{opacity:0.7;fill:#7F7F7F;}
	.st48{fill:#DAA449;}
	.st49{fill:#85B681;}
	.st50{fill:#A1DC9B;}
	.st51{fill:#90C58B;}
	.st52{fill:#DD9225;}
	.st53{opacity:0.3;}
	.st54{fill:#81C378;}
	.st55{opacity:0.5;}
	.st56{fill:#A2CADE;}
	.st57{fill:#9BAEC9;}
	.st58{fill:#9D2B3B;}
	.st59{fill:#C1D4F2;}
	.st60{fill:#534D46;}
	.st61{fill:#191819;}
	.st62{fill:#222123;}
	.st63{fill:#F3FF00;}
	.st64{fill-rule:evenodd;clip-rule:evenodd;fill:#FFFFFF;}
	.st65{fill-rule:evenodd;clip-rule:evenodd;fill:#1996B8;}
	.st66{fill:none;stroke:#5A605A;stroke-width:4;stroke-miterlimit:10;}
	.st67{fill:#FFB412;}
	.st68{fill:#BACDD1;}
	.st69{fill:#1C4D59;}
	.st70{fill:#A14329;}
	.st71{fill:#FCC083;}
	.st72{fill:#E8AA63;}
	.st73{fill:#D40000;}
	.st74{opacity:0.35;fill:#7D7D7D;}
	.st75{fill:#E5E3E3;}
	.st76{fill:#121F5E;}
	.st77{fill:#A3ADAF;}
	.st78{fill:#C2C6C6;}
	.st79{fill:#E5E5E5;stroke:#FFFFFF;stroke-miterlimit:10;}
	.st80{fill:#ACB4B5;}
	.st81{fill:#7F8384;}
	.st82{fill:#282828;}
	.st83{fill:none;stroke:#46A508;stroke-width:6;stroke-miterlimit:10;}
	.st84{fill:none;stroke:#46A508;stroke-width:6;stroke-miterlimit:10;stroke-dasharray:11.7425,11.7425;}
	.st85{fill:#C89D76;}
	.st86{opacity:0.4;}
	.st87{fill:#ADADAD;}
	.st88{fill:#76A172;}
	.st89{fill:#62835F;}
	.st90{fill:#96D090;}
	.st91{fill:#EDC3A6;}
	.st92{opacity:0.69;}
	.st93{fill:#E5D3D6;}
	.st94{opacity:0.44;}
	.st95{fill:#A5A5A5;}
	.st96{fill:#DDE5E4;}
	.st97{fill:#FDFDFD;}
	.st98{fill:#E0C348;}
	.st99{fill:#606060;}
</style>
<g>
	<g>
		<path class="st20" d="M10.5,201.36c0,22,13.29,27.86,29.54,13.03c0,0,156.99-143.3,353.09,26.97V47c0-22-18-40-40-40H50.5
			c-22,0-40,18-40,40V201.36z"/>
	</g>
	<g>
		<path class="st20" d="M392.66,639c0,22-18,40-40,40H50.98c-22,0-40-18-40-40v-46.27c0-22,18-40,40-40h301.68c22,0,40,18,40,40V639
			z"/>
	</g>
	<g>
		<path d="M56.19,365.5c-0.29-0.3-0.43-0.76-0.43-1.38v-18.11c0-0.62,0.14-1.08,0.43-1.38s0.78-0.45,1.49-0.45h7.65
			c3.2,0,5.53,0.63,6.99,1.9c1.46,1.27,2.19,3.18,2.19,5.74c0,2.56-0.73,4.47-2.19,5.73s-3.78,1.89-6.96,1.89h-1.92v4.67
			c0,0.62-0.14,1.08-0.43,1.38c-0.29,0.3-0.79,0.45-1.52,0.45h-3.81C56.98,365.95,56.48,365.8,56.19,365.5z M64.66,354.02
			c0.68,0,1.22-0.18,1.62-0.54c0.39-0.36,0.59-0.91,0.59-1.63c0-0.75-0.2-1.3-0.59-1.66c-0.4-0.36-0.93-0.54-1.62-0.54h-2.18v4.38
			H64.66z"/>
		<path d="M71.63,365.28c0-0.19,0.05-0.43,0.16-0.7l7.97-19.17c0.19-0.45,0.41-0.76,0.66-0.94c0.25-0.18,0.59-0.27,1.04-0.27h3.49
			c0.45,0,0.79,0.09,1.04,0.27c0.25,0.18,0.46,0.5,0.66,0.94l7.94,19.17c0.11,0.28,0.16,0.51,0.16,0.7c0,0.45-0.23,0.67-0.7,0.67
			h-6.02c-0.66,0-1.08-0.29-1.25-0.86L86,362.72h-5.66l-0.74,2.37c-0.17,0.58-0.59,0.86-1.25,0.86h-6.02
			C71.87,365.95,71.63,365.73,71.63,365.28z M84.43,357.66l-1.25-3.97l-1.25,3.97H84.43z"/>
		<path d="M96.77,365.5c-0.29-0.3-0.43-0.76-0.43-1.38v-18.14c0-0.62,0.14-1.07,0.43-1.36s0.79-0.43,1.52-0.43h3.04
			c0.45,0,0.79,0.06,1.04,0.18c0.24,0.12,0.48,0.35,0.72,0.69l5.79,8.61v-7.65c0-0.62,0.14-1.08,0.43-1.38
			c0.29-0.3,0.78-0.45,1.49-0.45h3.81c0.72,0,1.23,0.14,1.52,0.43s0.43,0.75,0.43,1.39v18.14c0,0.62-0.14,1.07-0.43,1.36
			s-0.79,0.43-1.52,0.43h-3.04c-0.45,0-0.79-0.06-1.04-0.18c-0.25-0.12-0.49-0.35-0.72-0.69l-5.79-8.61v7.68
			c0,0.62-0.14,1.07-0.43,1.36s-0.79,0.43-1.52,0.43h-3.81C97.55,365.95,97.06,365.8,96.77,365.5z"/>
		<path d="M119.23,365.5c-0.29-0.3-0.43-0.76-0.43-1.38v-18.11c0-0.62,0.14-1.08,0.43-1.38c0.29-0.3,0.78-0.45,1.49-0.45h13.25
			c0.68,0,1.15,0.14,1.39,0.43c0.24,0.29,0.37,0.75,0.37,1.39v1.79c0,0.64-0.12,1.1-0.37,1.39c-0.25,0.29-0.71,0.43-1.39,0.43h-7.49
			v2.75h4.61c0.68,0,1.15,0.14,1.39,0.43s0.37,0.75,0.37,1.39v1.73c0,0.64-0.12,1.1-0.37,1.39s-0.71,0.43-1.39,0.43h-4.61v2.75h7.46
			c0.68,0,1.15,0.14,1.39,0.43c0.25,0.29,0.37,0.75,0.37,1.39v1.79c0,0.64-0.12,1.1-0.37,1.39c-0.25,0.29-0.71,0.43-1.39,0.43
			h-13.22C120.02,365.95,119.52,365.8,119.23,365.5z"/>
		<path d="M137.6,365.5c-0.29-0.3-0.43-0.76-0.43-1.38v-18.11c0-0.62,0.14-1.08,0.43-1.38c0.29-0.3,0.79-0.45,1.49-0.45h3.81
			c0.72,0,1.23,0.14,1.52,0.43c0.29,0.29,0.43,0.75,0.43,1.39v14.5h7.46c0.68,0,1.15,0.14,1.39,0.43s0.37,0.75,0.37,1.39v1.79
			c0,0.64-0.12,1.1-0.37,1.39s-0.71,0.43-1.39,0.43h-13.22C138.39,365.95,137.89,365.8,137.6,365.5z"/>
		<path d="M165.06,365.5c-0.29-0.3-0.43-0.76-0.43-1.38v-18.11c0-0.62,0.14-1.08,0.43-1.38s0.78-0.45,1.49-0.45h7.36
			c7.53,0,11.29,3.63,11.29,10.88c0,3.58-0.96,6.29-2.9,8.13s-4.73,2.75-8.4,2.75h-7.36C165.84,365.95,165.35,365.8,165.06,365.5z
			 M174.19,360.51c1.2,0,2.05-0.39,2.58-1.18c0.52-0.79,0.78-2.21,0.78-4.26s-0.26-3.47-0.78-4.26c-0.52-0.79-1.38-1.18-2.58-1.18
			h-1.89v10.88H174.19z"/>
		<path d="M187.23,365.5c-0.29-0.3-0.43-0.76-0.43-1.38v-18.11c0-0.62,0.14-1.08,0.43-1.38s0.78-0.45,1.49-0.45h13.25
			c0.68,0,1.15,0.14,1.39,0.43s0.37,0.75,0.37,1.39v1.79c0,0.64-0.12,1.1-0.37,1.39s-0.71,0.43-1.39,0.43h-7.49v2.75h4.61
			c0.68,0,1.15,0.14,1.39,0.43s0.37,0.75,0.37,1.39v1.73c0,0.64-0.12,1.1-0.37,1.39s-0.71,0.43-1.39,0.43h-4.61v2.75h7.46
			c0.68,0,1.15,0.14,1.39,0.43c0.24,0.29,0.37,0.75,0.37,1.39v1.79c0,0.64-0.12,1.1-0.37,1.39c-0.25,0.29-0.71,0.43-1.39,0.43
			h-13.22C188.02,365.95,187.52,365.8,187.23,365.5z"/>
		<path d="M217.36,363.57c-2.16-1.91-3.23-4.74-3.23-8.5c0-3.78,1.04-6.61,3.12-8.51s5.05-2.85,8.91-2.85
			c1.75,0,3.31,0.17,4.67,0.51c1.36,0.34,2.51,0.82,3.42,1.44c0.26,0.19,0.38,0.41,0.38,0.64c0,0.19-0.1,0.46-0.29,0.8l-1.6,2.75
			c-0.17,0.3-0.37,0.45-0.61,0.45c-0.15,0-0.39-0.08-0.74-0.26c-0.6-0.3-1.22-0.53-1.87-0.7c-0.65-0.17-1.41-0.26-2.29-0.26
			c-1.77,0-3.13,0.51-4.06,1.54c-0.94,1.02-1.41,2.51-1.41,4.45c0,1.92,0.51,3.4,1.54,4.43c1.02,1.04,2.42,1.55,4.19,1.55
			c1.54,0,2.94-0.32,4.22-0.96c0.34-0.17,0.59-0.26,0.74-0.26c0.23,0,0.44,0.15,0.61,0.45l1.6,2.75c0.19,0.34,0.29,0.61,0.29,0.8
			c0,0.24-0.13,0.45-0.38,0.64c-0.92,0.62-2.07,1.1-3.46,1.44s-2.96,0.51-4.7,0.51C222.53,366.43,219.52,365.48,217.36,363.57z"/>
		<path d="M237.42,363.47c-1.96-1.97-2.94-4.77-2.94-8.4s0.98-6.43,2.94-8.4c1.96-1.97,4.84-2.96,8.64-2.96s6.68,0.99,8.64,2.96
			c1.96,1.97,2.94,4.77,2.94,8.4s-0.98,6.43-2.94,8.4c-1.96,1.97-4.84,2.96-8.64,2.96S239.39,365.45,237.42,363.47z M249.07,359.57
			c0.62-0.99,0.93-2.49,0.93-4.5c0-2.03-0.31-3.53-0.93-4.51c-0.62-0.98-1.62-1.47-3.01-1.47s-2.39,0.49-3.01,1.47
			s-0.93,2.49-0.93,4.51c0,2.01,0.31,3.5,0.93,4.5s1.62,1.49,3.01,1.49S248.45,360.56,249.07,359.57z"/>
		<path d="M259.68,365.5c-0.29-0.3-0.43-0.76-0.43-1.38v-18.14c0-0.62,0.14-1.07,0.43-1.36s0.79-0.43,1.52-0.43h3.04
			c0.45,0,0.79,0.06,1.04,0.18c0.24,0.12,0.48,0.35,0.72,0.69l5.79,8.61v-7.65c0-0.62,0.14-1.08,0.43-1.38
			c0.29-0.3,0.78-0.45,1.49-0.45h3.81c0.72,0,1.23,0.14,1.52,0.43s0.43,0.75,0.43,1.39v18.14c0,0.62-0.14,1.07-0.43,1.36
			s-0.79,0.43-1.52,0.43h-3.04c-0.45,0-0.79-0.06-1.04-0.18c-0.25-0.12-0.49-0.35-0.72-0.69l-5.79-8.61v7.68
			c0,0.62-0.14,1.07-0.43,1.36s-0.79,0.43-1.52,0.43h-3.81C260.46,365.95,259.97,365.8,259.68,365.5z"/>
		<path d="M287.23,365.5c-0.29-0.3-0.43-0.76-0.43-1.38v-14.5h-4.61c-0.68,0-1.15-0.14-1.39-0.43s-0.37-0.75-0.37-1.39v-1.79
			c0-0.64,0.12-1.1,0.37-1.39s0.71-0.43,1.39-0.43h16.9c0.68,0,1.15,0.14,1.39,0.43s0.37,0.75,0.37,1.39v1.79
			c0,0.64-0.12,1.1-0.37,1.39s-0.71,0.43-1.39,0.43h-4.61v14.5c0,0.62-0.14,1.08-0.43,1.38c-0.29,0.3-0.79,0.45-1.52,0.45h-3.81
			C288.02,365.95,287.52,365.8,287.23,365.5z"/>
		<path d="M302.24,365.5c-0.29-0.3-0.43-0.76-0.43-1.38v-18.11c0-0.62,0.14-1.08,0.43-1.38c0.29-0.3,0.78-0.45,1.49-0.45h7.65
			c3.2,0,5.53,0.63,6.99,1.9c1.46,1.27,2.19,3.18,2.19,5.74c0,1.54-0.26,2.83-0.78,3.89c-0.52,1.06-1.33,1.88-2.42,2.48l2.98,6.37
			c0.09,0.17,0.13,0.36,0.13,0.58c0,0.23-0.08,0.43-0.24,0.58s-0.37,0.22-0.62,0.22h-5.41c-0.34,0-0.61-0.05-0.82-0.14
			c-0.2-0.1-0.35-0.26-0.43-0.5l-2.37-5.95h-1.09v4.77c0,0.62-0.14,1.08-0.43,1.38c-0.29,0.3-0.79,0.45-1.52,0.45h-3.81
			C303.02,365.95,302.53,365.8,302.24,365.5z M310.71,354.02c0.68,0,1.22-0.18,1.62-0.54c0.39-0.36,0.59-0.91,0.59-1.63
			c0-0.75-0.2-1.3-0.59-1.66c-0.39-0.36-0.93-0.54-1.62-0.54h-2.18v4.38H310.71z"/>
		<path d="M324.46,363.47c-1.96-1.97-2.94-4.77-2.94-8.4s0.98-6.43,2.94-8.4c1.96-1.97,4.84-2.96,8.64-2.96s6.68,0.99,8.64,2.96
			c1.96,1.97,2.94,4.77,2.94,8.4s-0.98,6.43-2.94,8.4c-1.96,1.97-4.84,2.96-8.64,2.96S326.43,365.45,324.46,363.47z M336.11,359.57
			c0.62-0.99,0.93-2.49,0.93-4.5c0-2.03-0.31-3.53-0.93-4.51c-0.62-0.98-1.62-1.47-3.01-1.47s-2.39,0.49-3.01,1.47
			s-0.93,2.49-0.93,4.51c0,2.01,0.31,3.5,0.93,4.5s1.62,1.49,3.01,1.49S335.49,360.56,336.11,359.57z"/>
		<path d="M346.72,365.5c-0.29-0.3-0.43-0.76-0.43-1.38v-18.11c0-0.62,0.14-1.08,0.43-1.38s0.78-0.45,1.49-0.45h3.81
			c0.73,0,1.23,0.14,1.52,0.43s0.43,0.75,0.43,1.39v14.5h7.46c0.68,0,1.15,0.14,1.39,0.43c0.24,0.29,0.37,0.75,0.37,1.39v1.79
			c0,0.64-0.12,1.1-0.37,1.39c-0.25,0.29-0.71,0.43-1.39,0.43h-13.22C347.5,365.95,347.01,365.8,346.72,365.5z"/>
		<path d="M71.6,403.9c-0.29-0.3-0.43-0.76-0.43-1.38v-18.11c0-0.62,0.14-1.08,0.43-1.38c0.29-0.3,0.78-0.45,1.49-0.45h7.65
			c3.2,0,5.53,0.63,6.99,1.9c1.46,1.27,2.19,3.18,2.19,5.74c0,2.56-0.73,4.47-2.19,5.73c-1.46,1.26-3.78,1.89-6.96,1.89h-1.92v4.67
			c0,0.62-0.14,1.08-0.43,1.38c-0.29,0.3-0.79,0.45-1.52,0.45h-3.81C72.39,404.35,71.89,404.2,71.6,403.9z M80.07,392.42
			c0.68,0,1.22-0.18,1.62-0.54c0.39-0.36,0.59-0.91,0.59-1.63c0-0.75-0.2-1.3-0.59-1.66c-0.39-0.36-0.93-0.54-1.62-0.54h-2.18v4.38
			H80.07z"/>
		<path d="M87.04,403.68c0-0.19,0.05-0.43,0.16-0.7l7.97-19.17c0.19-0.45,0.41-0.76,0.66-0.94c0.24-0.18,0.59-0.27,1.04-0.27h3.49
			c0.45,0,0.79,0.09,1.04,0.27c0.24,0.18,0.46,0.5,0.66,0.94l7.94,19.17c0.11,0.28,0.16,0.51,0.16,0.7c0,0.45-0.24,0.67-0.71,0.67
			h-6.02c-0.66,0-1.08-0.29-1.25-0.86l-0.77-2.37h-5.66l-0.74,2.37c-0.17,0.58-0.59,0.86-1.25,0.86h-6.02
			C87.28,404.35,87.04,404.13,87.04,403.68z M99.84,396.06l-1.25-3.97l-1.25,3.97H99.84z"/>
		<path d="M112.18,403.9c-0.29-0.3-0.43-0.76-0.43-1.38v-18.11c0-0.62,0.14-1.08,0.43-1.38c0.29-0.3,0.78-0.45,1.49-0.45h7.65
			c3.2,0,5.53,0.63,6.99,1.9c1.46,1.27,2.19,3.18,2.19,5.74c0,1.54-0.26,2.83-0.78,3.89c-0.52,1.06-1.33,1.88-2.42,2.48l2.98,6.37
			c0.09,0.17,0.13,0.36,0.13,0.58c0,0.23-0.08,0.43-0.24,0.58s-0.37,0.22-0.62,0.22h-5.41c-0.34,0-0.61-0.05-0.82-0.14
			c-0.2-0.1-0.35-0.26-0.43-0.5l-2.37-5.95h-1.09v4.77c0,0.62-0.14,1.08-0.43,1.38c-0.29,0.3-0.79,0.45-1.52,0.45h-3.81
			C112.96,404.35,112.47,404.2,112.18,403.9z M120.64,392.42c0.68,0,1.22-0.18,1.62-0.54c0.39-0.36,0.59-0.91,0.59-1.63
			c0-0.75-0.2-1.3-0.59-1.66c-0.39-0.36-0.93-0.54-1.62-0.54h-2.18v4.38H120.64z"/>
		<path d="M130.02,403.68c0-0.19,0.05-0.43,0.16-0.7l7.97-19.17c0.19-0.45,0.41-0.76,0.66-0.94c0.25-0.18,0.59-0.27,1.04-0.27h3.49
			c0.45,0,0.79,0.09,1.04,0.27c0.25,0.18,0.46,0.5,0.66,0.94l7.94,19.17c0.11,0.28,0.16,0.51,0.16,0.7c0,0.45-0.23,0.67-0.7,0.67
			h-6.02c-0.66,0-1.08-0.29-1.25-0.86l-0.77-2.37h-5.66l-0.74,2.37c-0.17,0.58-0.59,0.86-1.25,0.86h-6.02
			C130.25,404.35,130.02,404.13,130.02,403.68z M142.82,396.06l-1.25-3.97l-1.25,3.97H142.82z"/>
		<path d="M164.75,403.9c-0.29-0.3-0.43-0.76-0.43-1.38v-18.14c0-0.62,0.14-1.07,0.43-1.36s0.79-0.43,1.52-0.43h3.68
			c0.47,0,0.84,0.06,1.12,0.18c0.28,0.12,0.49,0.35,0.64,0.69l3.74,9.38l3.74-9.38c0.15-0.34,0.36-0.57,0.64-0.69
			c0.28-0.12,0.65-0.18,1.12-0.18h3.68c0.73,0,1.23,0.14,1.52,0.43s0.43,0.74,0.43,1.36v18.14c0,0.62-0.14,1.08-0.43,1.38
			c-0.29,0.3-0.78,0.45-1.49,0.45h-3.07c-0.71,0-1.21-0.15-1.5-0.45c-0.3-0.3-0.45-0.76-0.45-1.38v-8.74l-1.89,4.35
			c-0.26,0.62-0.53,1.06-0.83,1.33c-0.3,0.27-0.79,0.4-1.47,0.4s-1.17-0.13-1.47-0.4c-0.3-0.27-0.58-0.71-0.83-1.33l-1.89-4.35v8.74
			c0,0.62-0.14,1.08-0.43,1.38c-0.29,0.3-0.79,0.45-1.52,0.45h-3.07C165.54,404.35,165.04,404.2,164.75,403.9z"/>
		<path d="M190.02,401.87c-1.96-1.97-2.94-4.77-2.94-8.4s0.98-6.43,2.94-8.4c1.96-1.97,4.84-2.96,8.64-2.96
			c3.8,0,6.68,0.99,8.64,2.96c1.96,1.97,2.94,4.77,2.94,8.4s-0.98,6.43-2.94,8.4c-1.96,1.97-4.84,2.96-8.64,2.96
			C194.86,404.83,191.98,403.85,190.02,401.87z M201.67,397.97c0.62-0.99,0.93-2.49,0.93-4.5c0-2.03-0.31-3.53-0.93-4.51
			s-1.62-1.47-3.01-1.47c-1.39,0-2.39,0.49-3.01,1.47c-0.62,0.98-0.93,2.49-0.93,4.51c0,2.01,0.31,3.5,0.93,4.5
			c0.62,0.99,1.62,1.49,3.01,1.49C200.04,399.46,201.05,398.96,201.67,397.97z"/>
		<path d="M212.27,403.9c-0.29-0.3-0.43-0.76-0.43-1.38v-18.14c0-0.62,0.14-1.07,0.43-1.36c0.29-0.29,0.79-0.43,1.52-0.43h3.04
			c0.45,0,0.79,0.06,1.04,0.18s0.49,0.35,0.72,0.69l5.79,8.61v-7.65c0-0.62,0.14-1.08,0.43-1.38s0.78-0.45,1.49-0.45h3.81
			c0.72,0,1.23,0.14,1.52,0.43c0.29,0.29,0.43,0.75,0.43,1.39v18.14c0,0.62-0.14,1.07-0.43,1.36c-0.29,0.29-0.79,0.43-1.52,0.43
			h-3.04c-0.45,0-0.79-0.06-1.04-0.18c-0.25-0.12-0.49-0.35-0.72-0.69l-5.79-8.61v7.68c0,0.62-0.14,1.07-0.43,1.36
			c-0.29,0.29-0.79,0.43-1.52,0.43h-3.81C213.06,404.35,212.56,404.2,212.27,403.9z"/>
		<path d="M234.74,403.9c-0.29-0.3-0.43-0.76-0.43-1.38v-18.11c0-0.62,0.14-1.08,0.43-1.38c0.29-0.3,0.79-0.45,1.49-0.45h3.81
			c0.72,0,1.23,0.14,1.52,0.43c0.29,0.29,0.43,0.75,0.43,1.39v18.11c0,0.62-0.14,1.08-0.43,1.38c-0.29,0.3-0.79,0.45-1.52,0.45
			h-3.81C235.52,404.35,235.03,404.2,234.74,403.9z"/>
		<path d="M249.75,403.9c-0.29-0.3-0.43-0.76-0.43-1.38v-14.5h-4.61c-0.68,0-1.15-0.14-1.39-0.43c-0.24-0.29-0.37-0.75-0.37-1.39
			v-1.79c0-0.64,0.12-1.1,0.37-1.39c0.25-0.29,0.71-0.43,1.39-0.43h16.9c0.68,0,1.15,0.14,1.39,0.43s0.37,0.75,0.37,1.39v1.79
			c0,0.64-0.12,1.1-0.37,1.39s-0.71,0.43-1.39,0.43h-4.61v14.5c0,0.62-0.14,1.08-0.43,1.38c-0.29,0.3-0.79,0.45-1.52,0.45h-3.81
			C250.53,404.35,250.03,404.2,249.75,403.9z"/>
		<path d="M265.18,401.87c-1.96-1.97-2.94-4.77-2.94-8.4s0.98-6.43,2.94-8.4c1.96-1.97,4.84-2.96,8.64-2.96s6.68,0.99,8.64,2.96
			c1.96,1.97,2.94,4.77,2.94,8.4s-0.98,6.43-2.94,8.4c-1.96,1.97-4.84,2.96-8.64,2.96S267.15,403.85,265.18,401.87z M276.83,397.97
			c0.62-0.99,0.93-2.49,0.93-4.5c0-2.03-0.31-3.53-0.93-4.51c-0.62-0.98-1.62-1.47-3.01-1.47s-2.39,0.49-3.01,1.47
			s-0.93,2.49-0.93,4.51c0,2.01,0.31,3.5,0.93,4.5s1.62,1.49,3.01,1.49S276.21,398.96,276.83,397.97z"/>
		<path d="M287.44,403.9c-0.29-0.3-0.43-0.76-0.43-1.38v-18.11c0-0.62,0.14-1.08,0.43-1.38s0.78-0.45,1.49-0.45h7.65
			c3.2,0,5.53,0.63,6.99,1.9c1.46,1.27,2.19,3.18,2.19,5.74c0,1.54-0.26,2.83-0.78,3.89c-0.52,1.06-1.33,1.88-2.42,2.48l2.98,6.37
			c0.08,0.17,0.13,0.36,0.13,0.58c0,0.23-0.08,0.43-0.24,0.58c-0.16,0.15-0.37,0.22-0.62,0.22h-5.41c-0.34,0-0.61-0.05-0.82-0.14
			c-0.2-0.1-0.35-0.26-0.43-0.5l-2.37-5.95h-1.09v4.77c0,0.62-0.14,1.08-0.43,1.38c-0.29,0.3-0.79,0.45-1.52,0.45h-3.81
			C288.22,404.35,287.73,404.2,287.44,403.9z M295.9,392.42c0.68,0,1.22-0.18,1.62-0.54c0.39-0.36,0.59-0.91,0.59-1.63
			c0-0.75-0.2-1.3-0.59-1.66c-0.4-0.36-0.93-0.54-1.62-0.54h-2.18v4.38H295.9z"/>
		<path d="M307.79,403.9c-0.29-0.3-0.43-0.76-0.43-1.38v-18.11c0-0.62,0.14-1.08,0.43-1.38s0.78-0.45,1.49-0.45h13.25
			c0.68,0,1.15,0.14,1.39,0.43s0.37,0.75,0.37,1.39v1.79c0,0.64-0.12,1.1-0.37,1.39s-0.71,0.43-1.39,0.43h-7.49v2.75h4.61
			c0.68,0,1.15,0.14,1.39,0.43s0.37,0.75,0.37,1.39v1.73c0,0.64-0.12,1.1-0.37,1.39s-0.71,0.43-1.39,0.43h-4.61v2.75h7.46
			c0.68,0,1.15,0.14,1.39,0.43c0.24,0.29,0.37,0.75,0.37,1.39v1.79c0,0.64-0.12,1.1-0.37,1.39c-0.25,0.29-0.71,0.43-1.39,0.43
			h-13.22C308.58,404.35,308.08,404.2,307.79,403.9z"/>
		<path d="M326.91,401.87c-1.96-1.97-2.94-4.77-2.94-8.4s0.98-6.43,2.94-8.4c1.96-1.97,4.84-2.96,8.64-2.96
			c3.8,0,6.68,0.99,8.64,2.96c1.96,1.97,2.94,4.77,2.94,8.4s-0.98,6.43-2.94,8.4c-1.96,1.97-4.84,2.96-8.64,2.96
			C331.75,404.83,328.88,403.85,326.91,401.87z M338.56,397.97c0.62-0.99,0.93-2.49,0.93-4.5c0-2.03-0.31-3.53-0.93-4.51
			c-0.62-0.98-1.62-1.47-3.01-1.47c-1.39,0-2.39,0.49-3.01,1.47c-0.62,0.98-0.93,2.49-0.93,4.51c0,2.01,0.31,3.5,0.93,4.5
			c0.62,0.99,1.62,1.49,3.01,1.49C336.94,399.46,337.94,398.96,338.56,397.97z"/>
		<path d="M82.08,442.3c-0.29-0.3-0.43-0.76-0.43-1.38v-18.11c0-0.62,0.14-1.08,0.43-1.38c0.29-0.3,0.78-0.45,1.49-0.45h13.25
			c0.68,0,1.15,0.14,1.39,0.43c0.24,0.29,0.37,0.75,0.37,1.39v1.79c0,0.64-0.12,1.1-0.37,1.39c-0.25,0.29-0.71,0.43-1.39,0.43h-7.49
			v2.75h4.61c0.68,0,1.15,0.14,1.39,0.43s0.37,0.75,0.37,1.39v1.73c0,0.64-0.12,1.1-0.37,1.39s-0.71,0.43-1.39,0.43h-4.61v2.75h7.46
			c0.68,0,1.15,0.14,1.39,0.43c0.25,0.29,0.37,0.75,0.37,1.39v1.79c0,0.64-0.12,1.1-0.37,1.39c-0.25,0.29-0.71,0.43-1.39,0.43H83.57
			C82.87,442.75,82.37,442.6,82.08,442.3z"/>
		<path d="M100.45,442.3c-0.29-0.3-0.43-0.76-0.43-1.38v-18.14c0-0.62,0.14-1.07,0.43-1.36c0.29-0.29,0.79-0.43,1.52-0.43h3.04
			c0.45,0,0.79,0.06,1.04,0.18s0.49,0.35,0.72,0.69l5.79,8.61v-7.65c0-0.62,0.14-1.08,0.43-1.38c0.29-0.3,0.78-0.45,1.49-0.45h3.81
			c0.73,0,1.23,0.14,1.52,0.43c0.29,0.29,0.43,0.75,0.43,1.39v18.14c0,0.62-0.14,1.07-0.43,1.36c-0.29,0.29-0.79,0.43-1.52,0.43
			h-3.04c-0.45,0-0.79-0.06-1.04-0.18s-0.49-0.35-0.72-0.69l-5.79-8.61v7.68c0,0.62-0.14,1.07-0.43,1.36
			c-0.29,0.29-0.79,0.43-1.52,0.43h-3.81C101.23,442.75,100.74,442.6,100.45,442.3z"/>
		<path d="M137.6,442.3c-0.29-0.3-0.43-0.76-0.43-1.38v-14.5h-4.61c-0.68,0-1.15-0.14-1.39-0.43c-0.25-0.29-0.37-0.75-0.37-1.39
			v-1.79c0-0.64,0.12-1.1,0.37-1.39c0.24-0.29,0.71-0.43,1.39-0.43h16.9c0.68,0,1.15,0.14,1.39,0.43c0.24,0.29,0.37,0.75,0.37,1.39
			v1.79c0,0.64-0.12,1.1-0.37,1.39c-0.25,0.29-0.71,0.43-1.39,0.43h-4.61v14.5c0,0.62-0.14,1.08-0.43,1.38
			c-0.29,0.3-0.79,0.45-1.52,0.45h-3.81C138.38,442.75,137.89,442.6,137.6,442.3z"/>
		<path d="M152.61,442.3c-0.29-0.3-0.43-0.76-0.43-1.38v-18.11c0-0.62,0.14-1.08,0.43-1.38c0.29-0.3,0.78-0.45,1.49-0.45h3.81
			c0.73,0,1.23,0.14,1.52,0.43c0.29,0.29,0.43,0.75,0.43,1.39v18.11c0,0.62-0.14,1.08-0.43,1.38c-0.29,0.3-0.79,0.45-1.52,0.45
			h-3.81C153.39,442.75,152.9,442.6,152.61,442.3z"/>
		<path d="M162.53,442.3c-0.29-0.3-0.43-0.76-0.43-1.38v-18.11c0-0.62,0.14-1.08,0.43-1.38c0.29-0.3,0.78-0.45,1.49-0.45h13.25
			c0.68,0,1.15,0.14,1.39,0.43s0.37,0.75,0.37,1.39v1.79c0,0.64-0.12,1.1-0.37,1.39s-0.71,0.43-1.39,0.43h-7.49v2.75h4.61
			c0.68,0,1.15,0.14,1.39,0.43c0.24,0.29,0.37,0.75,0.37,1.39v1.73c0,0.64-0.12,1.1-0.37,1.39c-0.25,0.29-0.71,0.43-1.39,0.43h-4.61
			v2.75h7.46c0.68,0,1.15,0.14,1.39,0.43c0.25,0.29,0.37,0.75,0.37,1.39v1.79c0,0.64-0.12,1.1-0.37,1.39
			c-0.25,0.29-0.71,0.43-1.39,0.43h-13.21C163.31,442.75,162.82,442.6,162.53,442.3z"/>
		<path d="M180.9,442.3c-0.29-0.3-0.43-0.76-0.43-1.38v-18.14c0-0.62,0.14-1.07,0.43-1.36c0.29-0.29,0.79-0.43,1.52-0.43h3.68
			c0.47,0,0.84,0.06,1.12,0.18s0.49,0.35,0.64,0.69l3.74,9.38l3.74-9.38c0.15-0.34,0.36-0.57,0.64-0.69s0.65-0.18,1.12-0.18h3.68
			c0.72,0,1.23,0.14,1.52,0.43s0.43,0.74,0.43,1.36v18.14c0,0.62-0.14,1.08-0.43,1.38c-0.29,0.3-0.78,0.45-1.49,0.45h-3.07
			c-0.7,0-1.21-0.15-1.5-0.45c-0.3-0.3-0.45-0.76-0.45-1.38v-8.74l-1.89,4.35c-0.26,0.62-0.53,1.06-0.83,1.33s-0.79,0.4-1.47,0.4
			s-1.17-0.13-1.47-0.4s-0.58-0.71-0.83-1.33l-1.89-4.35v8.74c0,0.62-0.14,1.08-0.43,1.38c-0.29,0.3-0.79,0.45-1.52,0.45h-3.07
			C181.68,442.75,181.18,442.6,180.9,442.3z"/>
		<path d="M205.41,442.3c-0.29-0.3-0.43-0.76-0.43-1.38v-18.11c0-0.62,0.14-1.08,0.43-1.38c0.29-0.3,0.78-0.45,1.49-0.45h7.65
			c3.2,0,5.53,0.63,6.99,1.9c1.46,1.27,2.19,3.18,2.19,5.74c0,2.56-0.73,4.47-2.19,5.73c-1.46,1.26-3.78,1.89-6.96,1.89h-1.92v4.67
			c0,0.62-0.14,1.08-0.43,1.38c-0.29,0.3-0.79,0.45-1.52,0.45h-3.81C206.19,442.75,205.7,442.6,205.41,442.3z M213.87,430.82
			c0.68,0,1.22-0.18,1.62-0.54c0.39-0.36,0.59-0.91,0.59-1.63c0-0.75-0.2-1.3-0.59-1.66c-0.39-0.36-0.93-0.54-1.62-0.54h-2.18v4.38
			H213.87z"/>
		<path d="M226.19,440.27c-1.96-1.97-2.94-4.77-2.94-8.4s0.98-6.43,2.94-8.4c1.96-1.97,4.84-2.96,8.64-2.96s6.68,0.99,8.64,2.96
			c1.96,1.97,2.94,4.77,2.94,8.4s-0.98,6.43-2.94,8.4c-1.96,1.97-4.84,2.96-8.64,2.96S228.16,442.25,226.19,440.27z M237.84,436.37
			c0.62-0.99,0.93-2.49,0.93-4.5c0-2.03-0.31-3.53-0.93-4.51c-0.62-0.98-1.62-1.47-3.01-1.47s-2.39,0.49-3.01,1.47
			s-0.93,2.49-0.93,4.51c0,2.01,0.31,3.5,0.93,4.5s1.62,1.49,3.01,1.49S237.22,437.36,237.84,436.37z"/>
		<path d="M258.05,442.3c-0.29-0.3-0.43-0.76-0.43-1.38v-18.11c0-0.62,0.14-1.08,0.43-1.38s0.78-0.45,1.49-0.45h7.65
			c3.2,0,5.53,0.63,6.99,1.9c1.46,1.27,2.19,3.18,2.19,5.74c0,1.54-0.26,2.83-0.78,3.89c-0.52,1.06-1.33,1.88-2.42,2.48l2.98,6.37
			c0.08,0.17,0.13,0.36,0.13,0.58c0,0.23-0.08,0.43-0.24,0.58c-0.16,0.15-0.37,0.22-0.62,0.22H270c-0.34,0-0.61-0.05-0.82-0.14
			c-0.2-0.1-0.35-0.26-0.43-0.5l-2.37-5.95h-1.09v4.77c0,0.62-0.14,1.08-0.43,1.38c-0.29,0.3-0.79,0.45-1.52,0.45h-3.81
			C258.83,442.75,258.34,442.6,258.05,442.3z M266.51,430.82c0.68,0,1.22-0.18,1.62-0.54c0.39-0.36,0.59-0.91,0.59-1.63
			c0-0.75-0.2-1.3-0.59-1.66c-0.4-0.36-0.93-0.54-1.62-0.54h-2.18v4.38H266.51z"/>
		<path d="M278.4,442.3c-0.29-0.3-0.43-0.76-0.43-1.38v-18.11c0-0.62,0.14-1.08,0.43-1.38s0.78-0.45,1.49-0.45h13.25
			c0.68,0,1.15,0.14,1.39,0.43s0.37,0.75,0.37,1.39v1.79c0,0.64-0.12,1.1-0.37,1.39s-0.71,0.43-1.39,0.43h-7.49v2.75h4.61
			c0.68,0,1.15,0.14,1.39,0.43s0.37,0.75,0.37,1.39v1.73c0,0.64-0.12,1.1-0.37,1.39s-0.71,0.43-1.39,0.43h-4.61v2.75h7.46
			c0.68,0,1.15,0.14,1.39,0.43c0.24,0.29,0.37,0.75,0.37,1.39v1.79c0,0.64-0.12,1.1-0.37,1.39c-0.25,0.29-0.71,0.43-1.39,0.43
			h-13.22C279.18,442.75,278.69,442.6,278.4,442.3z"/>
		<path d="M295.7,442.08c0-0.19,0.05-0.43,0.16-0.7l7.97-19.17c0.19-0.45,0.41-0.76,0.66-0.94c0.25-0.18,0.59-0.27,1.04-0.27h3.49
			c0.45,0,0.79,0.09,1.04,0.27c0.25,0.18,0.46,0.5,0.66,0.94l7.94,19.17c0.11,0.28,0.16,0.51,0.16,0.7c0,0.45-0.23,0.67-0.7,0.67
			h-6.02c-0.66,0-1.08-0.29-1.25-0.86l-0.77-2.37h-5.66l-0.74,2.37c-0.17,0.58-0.59,0.86-1.25,0.86h-6.02
			C295.93,442.75,295.7,442.53,295.7,442.08z M308.5,434.46l-1.25-3.97l-1.25,3.97H308.5z"/>
		<path d="M320.83,442.3c-0.29-0.3-0.43-0.76-0.43-1.38v-18.11c0-0.62,0.14-1.08,0.43-1.38s0.78-0.45,1.49-0.45h3.81
			c0.73,0,1.23,0.14,1.52,0.43s0.43,0.75,0.43,1.39v14.5h7.46c0.68,0,1.15,0.14,1.39,0.43c0.24,0.29,0.37,0.75,0.37,1.39v1.79
			c0,0.64-0.12,1.1-0.37,1.39c-0.25,0.29-0.71,0.43-1.39,0.43h-13.22C321.62,442.75,321.12,442.6,320.83,442.3z"/>
		<path d="M95.86,480.7c-0.29-0.3-0.43-0.76-0.43-1.38v-18.11c0-0.62,0.14-1.08,0.43-1.38c0.29-0.3,0.78-0.45,1.49-0.45h7.36
			c7.53,0,11.3,3.63,11.3,10.88c0,3.58-0.97,6.29-2.9,8.13s-4.73,2.75-8.4,2.75h-7.36C96.64,481.15,96.15,481,95.86,480.7z
			 M104.99,475.71c1.19,0,2.05-0.39,2.58-1.18c0.52-0.79,0.78-2.21,0.78-4.26s-0.26-3.47-0.78-4.26c-0.52-0.79-1.38-1.18-2.58-1.18
			h-1.89v10.88H104.99z"/>
		<path d="M118.03,480.7c-0.29-0.3-0.43-0.76-0.43-1.38v-18.11c0-0.62,0.14-1.08,0.43-1.38c0.29-0.3,0.78-0.45,1.49-0.45h13.25
			c0.68,0,1.15,0.14,1.39,0.43c0.24,0.29,0.37,0.75,0.37,1.39v1.79c0,0.64-0.12,1.1-0.37,1.39c-0.25,0.29-0.71,0.43-1.39,0.43h-7.49
			v2.75h4.61c0.68,0,1.15,0.14,1.39,0.43s0.37,0.75,0.37,1.39v1.73c0,0.64-0.12,1.1-0.37,1.39s-0.71,0.43-1.39,0.43h-4.61v2.75h7.46
			c0.68,0,1.15,0.14,1.39,0.43c0.25,0.29,0.37,0.75,0.37,1.39v1.79c0,0.64-0.12,1.1-0.37,1.39c-0.25,0.29-0.71,0.43-1.39,0.43
			h-13.22C118.82,481.15,118.32,481,118.03,480.7z"/>
		<path d="M146,480.7c-0.29-0.3-0.43-0.76-0.43-1.38v-18.11c0-0.62,0.14-1.08,0.43-1.38c0.29-0.3,0.79-0.45,1.49-0.45h3.81
			c0.72,0,1.23,0.14,1.52,0.43c0.29,0.29,0.43,0.75,0.43,1.39v14.5h7.46c0.68,0,1.15,0.14,1.39,0.43s0.37,0.75,0.37,1.39v1.79
			c0,0.64-0.12,1.1-0.37,1.39s-0.71,0.43-1.39,0.43h-13.22C146.79,481.15,146.29,481,146,480.7z"/>
		<path d="M163.86,480.7c-0.29-0.3-0.43-0.76-0.43-1.38v-18.11c0-0.62,0.14-1.08,0.43-1.38s0.78-0.45,1.49-0.45h3.81
			c0.73,0,1.23,0.14,1.52,0.43s0.43,0.75,0.43,1.39v14.5h7.46c0.68,0,1.15,0.14,1.39,0.43c0.24,0.29,0.37,0.75,0.37,1.39v1.79
			c0,0.64-0.12,1.1-0.37,1.39c-0.25,0.29-0.71,0.43-1.39,0.43h-13.22C164.64,481.15,164.14,481,163.86,480.7z"/>
		<path d="M180.16,480.48c0-0.19,0.05-0.43,0.16-0.7l7.97-19.17c0.19-0.45,0.41-0.76,0.66-0.94c0.24-0.18,0.59-0.27,1.04-0.27h3.49
			c0.45,0,0.79,0.09,1.04,0.27c0.25,0.18,0.46,0.5,0.66,0.94l7.94,19.17c0.11,0.28,0.16,0.51,0.16,0.7c0,0.45-0.24,0.67-0.7,0.67
			h-6.02c-0.66,0-1.08-0.29-1.25-0.86l-0.77-2.37h-5.66l-0.74,2.37c-0.17,0.58-0.59,0.86-1.25,0.86h-6.02
			C180.39,481.15,180.16,480.93,180.16,480.48z M192.96,472.86l-1.25-3.97l-1.25,3.97H192.96z"/>
		<path d="M204.5,480.7c-0.29-0.3-0.43-0.76-0.43-1.38v-18.14c0-0.62,0.14-1.07,0.43-1.36c0.29-0.29,0.79-0.43,1.52-0.43h3.68
			c0.47,0,0.84,0.06,1.12,0.18s0.49,0.35,0.64,0.69l3.74,9.38l3.74-9.38c0.15-0.34,0.36-0.57,0.64-0.69
			c0.28-0.12,0.65-0.18,1.12-0.18h3.68c0.72,0,1.23,0.14,1.52,0.43c0.29,0.29,0.43,0.74,0.43,1.36v18.14c0,0.62-0.14,1.08-0.43,1.38
			c-0.29,0.3-0.78,0.45-1.49,0.45h-3.07c-0.7,0-1.21-0.15-1.5-0.45c-0.3-0.3-0.45-0.76-0.45-1.38v-8.74l-1.89,4.35
			c-0.26,0.62-0.53,1.06-0.83,1.33c-0.3,0.27-0.79,0.4-1.47,0.4c-0.68,0-1.17-0.13-1.47-0.4s-0.58-0.71-0.83-1.33l-1.89-4.35v8.74
			c0,0.62-0.14,1.08-0.43,1.38c-0.29,0.3-0.79,0.45-1.52,0.45h-3.07C205.28,481.15,204.79,481,204.5,480.7z"/>
		<path d="M227.14,480.48c0-0.19,0.05-0.43,0.16-0.7l7.97-19.17c0.19-0.45,0.41-0.76,0.66-0.94c0.25-0.18,0.59-0.27,1.04-0.27h3.49
			c0.45,0,0.79,0.09,1.04,0.27c0.25,0.18,0.46,0.5,0.66,0.94l7.94,19.17c0.11,0.28,0.16,0.51,0.16,0.7c0,0.45-0.23,0.67-0.7,0.67
			h-6.02c-0.66,0-1.08-0.29-1.25-0.86l-0.77-2.37h-5.66l-0.74,2.37c-0.17,0.58-0.59,0.86-1.25,0.86h-6.02
			C227.37,481.15,227.14,480.93,227.14,480.48z M239.94,472.86l-1.25-3.97l-1.25,3.97H239.94z"/>
		<path d="M252.27,480.7c-0.29-0.3-0.43-0.76-0.43-1.38v-18.11c0-0.62,0.14-1.08,0.43-1.38s0.78-0.45,1.49-0.45h7.36
			c7.53,0,11.29,3.63,11.29,10.88c0,3.58-0.96,6.29-2.9,8.13s-4.73,2.75-8.4,2.75h-7.36C253.06,481.15,252.56,481,252.27,480.7z
			 M261.41,475.71c1.2,0,2.05-0.39,2.58-1.18c0.52-0.79,0.78-2.21,0.78-4.26s-0.26-3.47-0.78-4.26c-0.52-0.79-1.38-1.18-2.58-1.18
			h-1.89v10.88H261.41z"/>
		<path d="M271.94,480.48c0-0.19,0.05-0.43,0.16-0.7l7.97-19.17c0.19-0.45,0.41-0.76,0.66-0.94c0.24-0.18,0.59-0.27,1.04-0.27h3.49
			c0.45,0,0.79,0.09,1.04,0.27c0.24,0.18,0.46,0.5,0.66,0.94l7.94,19.17c0.11,0.28,0.16,0.51,0.16,0.7c0,0.45-0.24,0.67-0.71,0.67
			h-6.02c-0.66,0-1.08-0.29-1.25-0.86l-0.77-2.37h-5.66l-0.74,2.37c-0.17,0.58-0.59,0.86-1.25,0.86h-6.02
			C272.17,481.15,271.94,480.93,271.94,480.48z M284.74,472.86l-1.25-3.97l-1.25,3.97H284.74z"/>
		<path d="M299.26,481.02c-1.66-0.41-3.01-0.97-4.03-1.7c-0.43-0.3-0.64-0.59-0.64-0.86c0-0.19,0.07-0.39,0.22-0.61l1.86-2.91
			c0.19-0.28,0.38-0.42,0.58-0.42c0.17,0,0.37,0.08,0.61,0.22c0.77,0.47,1.65,0.84,2.64,1.1s1.96,0.4,2.9,0.4
			c0.79,0,1.36-0.11,1.71-0.32s0.53-0.54,0.53-0.99c0-0.49-0.24-0.88-0.7-1.18c-0.47-0.3-1.28-0.67-2.43-1.12
			c-2.15-0.83-3.85-1.78-5.09-2.83c-1.24-1.06-1.86-2.46-1.86-4.21c0-2.22,0.77-3.89,2.32-5.01c1.55-1.12,3.63-1.68,6.26-1.68
			c1.83,0,3.4,0.16,4.69,0.48c1.29,0.32,2.42,0.82,3.38,1.5c0.43,0.3,0.64,0.59,0.64,0.86c0,0.19-0.07,0.39-0.22,0.61l-1.86,2.91
			c-0.19,0.3-0.38,0.45-0.58,0.45c-0.13,0-0.33-0.08-0.61-0.26c-0.51-0.34-1.12-0.62-1.82-0.85c-0.7-0.22-1.46-0.34-2.27-0.34
			c-0.75,0-1.31,0.11-1.7,0.32c-0.38,0.21-0.58,0.55-0.58,1.02c0,0.38,0.13,0.7,0.4,0.96c0.27,0.26,0.6,0.47,1.01,0.66
			c0.41,0.18,1.11,0.48,2.11,0.88c1.6,0.64,2.86,1.25,3.78,1.84c0.92,0.59,1.61,1.29,2.08,2.11c0.47,0.82,0.71,1.86,0.71,3.12
			c0,1.92-0.72,3.47-2.16,4.66c-1.44,1.18-3.59,1.78-6.45,1.78C302.73,481.63,300.93,481.43,299.26,481.02z"/>
		<path d="M119.19,519.1c-0.29-0.3-0.43-0.76-0.43-1.38v-5.79l-7.46-12.77c-0.13-0.23-0.19-0.46-0.19-0.67c0-0.47,0.25-0.7,0.74-0.7
			h6.02c0.32,0,0.57,0.07,0.74,0.21c0.17,0.14,0.34,0.36,0.51,0.66l3.49,6.27l3.49-6.27c0.17-0.3,0.34-0.52,0.51-0.66
			c0.17-0.14,0.42-0.21,0.74-0.21h6.02c0.49,0,0.74,0.23,0.74,0.7c0,0.21-0.06,0.44-0.19,0.67l-7.46,12.77v5.79
			c0,0.62-0.14,1.08-0.43,1.38c-0.29,0.3-0.79,0.45-1.52,0.45h-3.81C119.97,519.55,119.47,519.4,119.19,519.1z"/>
		<path d="M144.67,518.88c0-0.19,0.05-0.43,0.16-0.7l7.97-19.17c0.19-0.45,0.41-0.76,0.66-0.94c0.25-0.18,0.59-0.27,1.04-0.27h3.49
			c0.45,0,0.79,0.09,1.04,0.27c0.25,0.18,0.46,0.5,0.66,0.94l7.94,19.17c0.11,0.28,0.16,0.51,0.16,0.7c0,0.45-0.23,0.67-0.7,0.67
			h-6.02c-0.66,0-1.08-0.29-1.25-0.86l-0.77-2.37h-5.66l-0.74,2.37c-0.17,0.58-0.59,0.86-1.25,0.86h-6.02
			C144.91,519.55,144.67,519.33,144.67,518.88z M157.47,511.26l-1.25-3.97l-1.25,3.97H157.47z"/>
		<path d="M172,519.42c-1.66-0.41-3.01-0.97-4.03-1.7c-0.43-0.3-0.64-0.59-0.64-0.86c0-0.19,0.07-0.39,0.22-0.61l1.86-2.91
			c0.19-0.28,0.38-0.42,0.58-0.42c0.17,0,0.37,0.08,0.61,0.22c0.77,0.47,1.65,0.84,2.64,1.1s1.96,0.4,2.9,0.4
			c0.79,0,1.36-0.11,1.71-0.32s0.53-0.54,0.53-0.99c0-0.49-0.23-0.88-0.7-1.18c-0.47-0.3-1.28-0.67-2.43-1.12
			c-2.16-0.83-3.85-1.78-5.09-2.83c-1.24-1.06-1.86-2.46-1.86-4.21c0-2.22,0.77-3.89,2.32-5.01c1.55-1.12,3.63-1.68,6.26-1.68
			c1.83,0,3.4,0.16,4.69,0.48c1.29,0.32,2.42,0.82,3.38,1.5c0.43,0.3,0.64,0.59,0.64,0.86c0,0.19-0.08,0.39-0.22,0.61l-1.86,2.91
			c-0.19,0.3-0.38,0.45-0.58,0.45c-0.13,0-0.33-0.08-0.61-0.26c-0.51-0.34-1.12-0.62-1.82-0.85c-0.71-0.22-1.46-0.34-2.27-0.34
			c-0.75,0-1.31,0.11-1.7,0.32c-0.38,0.21-0.58,0.55-0.58,1.02c0,0.38,0.13,0.7,0.4,0.96c0.27,0.26,0.6,0.47,1.01,0.66
			c0.41,0.18,1.11,0.48,2.11,0.88c1.6,0.64,2.86,1.25,3.78,1.84c0.92,0.59,1.61,1.29,2.08,2.11c0.47,0.82,0.7,1.86,0.7,3.12
			c0,1.92-0.72,3.47-2.16,4.66c-1.44,1.18-3.59,1.78-6.45,1.78C175.47,520.03,173.67,519.83,172,519.42z"/>
		<path d="M188.05,519.1c-0.29-0.3-0.43-0.76-0.43-1.38v-18.11c0-0.62,0.14-1.08,0.43-1.38c0.29-0.3,0.79-0.45,1.49-0.45h13.25
			c0.68,0,1.15,0.14,1.39,0.43c0.24,0.29,0.37,0.75,0.37,1.39v1.79c0,0.64-0.12,1.1-0.37,1.39c-0.25,0.29-0.71,0.43-1.39,0.43h-7.49
			v2.75h4.61c0.68,0,1.15,0.14,1.39,0.43c0.25,0.29,0.37,0.75,0.37,1.39v1.73c0,0.64-0.12,1.1-0.37,1.39
			c-0.24,0.29-0.71,0.43-1.39,0.43h-4.61v2.75h7.46c0.68,0,1.15,0.14,1.39,0.43s0.37,0.75,0.37,1.39v1.79c0,0.64-0.12,1.1-0.37,1.39
			s-0.71,0.43-1.39,0.43h-13.22C188.83,519.55,188.34,519.4,188.05,519.1z"/>
		<path d="M210.05,519.42c-1.66-0.41-3.01-0.97-4.03-1.7c-0.43-0.3-0.64-0.59-0.64-0.86c0-0.19,0.07-0.39,0.22-0.61l1.86-2.91
			c0.19-0.28,0.38-0.42,0.58-0.42c0.17,0,0.37,0.08,0.61,0.22c0.77,0.47,1.65,0.84,2.64,1.1s1.96,0.4,2.9,0.4
			c0.79,0,1.36-0.11,1.71-0.32c0.35-0.21,0.53-0.54,0.53-0.99c0-0.49-0.24-0.88-0.7-1.18s-1.28-0.67-2.43-1.12
			c-2.15-0.83-3.85-1.78-5.09-2.83c-1.24-1.06-1.86-2.46-1.86-4.21c0-2.22,0.77-3.89,2.32-5.01c1.55-1.12,3.63-1.68,6.26-1.68
			c1.83,0,3.4,0.16,4.69,0.48c1.29,0.32,2.42,0.82,3.38,1.5c0.43,0.3,0.64,0.59,0.64,0.86c0,0.19-0.08,0.39-0.22,0.61l-1.86,2.91
			c-0.19,0.3-0.38,0.45-0.58,0.45c-0.13,0-0.33-0.08-0.61-0.26c-0.51-0.34-1.12-0.62-1.82-0.85c-0.7-0.22-1.46-0.34-2.27-0.34
			c-0.75,0-1.31,0.11-1.7,0.32c-0.38,0.21-0.58,0.55-0.58,1.02c0,0.38,0.13,0.7,0.4,0.96c0.27,0.26,0.6,0.47,1.01,0.66
			c0.41,0.18,1.11,0.48,2.11,0.88c1.6,0.64,2.86,1.25,3.78,1.84c0.92,0.59,1.61,1.29,2.08,2.11c0.47,0.82,0.7,1.86,0.7,3.12
			c0,1.92-0.72,3.47-2.16,4.66c-1.44,1.18-3.59,1.78-6.45,1.78C213.52,520.03,211.71,519.83,210.05,519.42z"/>
		<path d="M227.97,517.07c-1.96-1.97-2.94-4.77-2.94-8.4s0.98-6.43,2.94-8.4c1.96-1.97,4.84-2.96,8.64-2.96
			c3.8,0,6.68,0.99,8.64,2.96c1.96,1.97,2.94,4.77,2.94,8.4s-0.98,6.43-2.94,8.4c-1.96,1.97-4.84,2.96-8.64,2.96
			C232.81,520.03,229.93,519.04,227.97,517.07z M239.62,513.17c0.62-0.99,0.93-2.49,0.93-4.5c0-2.03-0.31-3.53-0.93-4.51
			c-0.62-0.98-1.62-1.47-3.01-1.47c-1.39,0-2.39,0.49-3.01,1.47c-0.62,0.98-0.93,2.49-0.93,4.51c0,2.01,0.31,3.5,0.93,4.5
			c0.62,0.99,1.62,1.49,3.01,1.49C238,514.66,239,514.16,239.62,513.17z"/>
		<path d="M250.22,519.1c-0.29-0.3-0.43-0.76-0.43-1.38v-18.11c0-0.62,0.14-1.08,0.43-1.38c0.29-0.3,0.78-0.45,1.49-0.45h7.65
			c3.2,0,5.53,0.63,6.99,1.9c1.46,1.27,2.19,3.18,2.19,5.74c0,1.54-0.26,2.83-0.78,3.89c-0.52,1.06-1.33,1.88-2.42,2.48l2.98,6.37
			c0.09,0.17,0.13,0.36,0.13,0.58c0,0.23-0.08,0.43-0.24,0.58s-0.37,0.22-0.62,0.22h-5.41c-0.34,0-0.61-0.05-0.82-0.14
			c-0.2-0.1-0.35-0.26-0.43-0.5l-2.37-5.95h-1.09v4.77c0,0.62-0.14,1.08-0.43,1.38c-0.29,0.3-0.79,0.45-1.52,0.45h-3.81
			C251.01,519.55,250.51,519.4,250.22,519.1z M258.69,507.62c0.68,0,1.22-0.18,1.62-0.54c0.39-0.36,0.59-0.91,0.59-1.63
			c0-0.75-0.2-1.3-0.59-1.66c-0.39-0.36-0.93-0.54-1.62-0.54h-2.18v4.38H258.69z"/>
		<path d="M270.58,519.1c-0.29-0.3-0.43-0.76-0.43-1.38v-18.11c0-0.62,0.14-1.08,0.43-1.38c0.29-0.3,0.78-0.45,1.49-0.45h13.25
			c0.68,0,1.15,0.14,1.39,0.43c0.24,0.29,0.37,0.75,0.37,1.39v1.79c0,0.64-0.12,1.1-0.37,1.39c-0.25,0.29-0.71,0.43-1.39,0.43h-7.49
			v2.75h4.61c0.68,0,1.15,0.14,1.39,0.43s0.37,0.75,0.37,1.39v1.73c0,0.64-0.12,1.1-0.37,1.39s-0.71,0.43-1.39,0.43h-4.61v2.75h7.46
			c0.68,0,1.15,0.14,1.39,0.43c0.25,0.29,0.37,0.75,0.37,1.39v1.79c0,0.64-0.12,1.1-0.37,1.39c-0.25,0.29-0.71,0.43-1.39,0.43
			h-13.22C271.36,519.55,270.86,519.4,270.58,519.1z"/>
		<path d="M292.58,519.42c-1.66-0.41-3.01-0.97-4.03-1.7c-0.43-0.3-0.64-0.59-0.64-0.86c0-0.19,0.07-0.39,0.22-0.61l1.86-2.91
			c0.19-0.28,0.38-0.42,0.58-0.42c0.17,0,0.37,0.08,0.61,0.22c0.77,0.47,1.65,0.84,2.64,1.1s1.96,0.4,2.9,0.4
			c0.79,0,1.36-0.11,1.71-0.32s0.53-0.54,0.53-0.99c0-0.49-0.23-0.88-0.7-1.18c-0.47-0.3-1.28-0.67-2.43-1.12
			c-2.16-0.83-3.85-1.78-5.09-2.83c-1.24-1.06-1.86-2.46-1.86-4.21c0-2.22,0.77-3.89,2.32-5.01c1.55-1.12,3.63-1.68,6.26-1.68
			c1.83,0,3.4,0.16,4.69,0.48c1.29,0.32,2.42,0.82,3.38,1.5c0.43,0.3,0.64,0.59,0.64,0.86c0,0.19-0.08,0.39-0.22,0.61l-1.86,2.91
			c-0.19,0.3-0.38,0.45-0.58,0.45c-0.13,0-0.33-0.08-0.61-0.26c-0.51-0.34-1.12-0.62-1.82-0.85c-0.71-0.22-1.46-0.34-2.27-0.34
			c-0.75,0-1.31,0.11-1.7,0.32c-0.38,0.21-0.58,0.55-0.58,1.02c0,0.38,0.13,0.7,0.4,0.96c0.27,0.26,0.6,0.47,1.01,0.66
			c0.41,0.18,1.11,0.48,2.11,0.88c1.6,0.64,2.86,1.25,3.78,1.84c0.92,0.59,1.61,1.29,2.08,2.11c0.47,0.82,0.7,1.86,0.7,3.12
			c0,1.92-0.72,3.47-2.16,4.66c-1.44,1.18-3.59,1.78-6.45,1.78C296.04,520.03,294.24,519.83,292.58,519.42z"/>
	</g>
	<polygon class="st6" points="201.76,88.93 215.23,116.22 245.34,120.59 223.55,141.83 228.7,171.83 201.76,157.67 174.83,171.83 
		179.97,141.83 158.18,120.59 188.29,116.22 	"/>
	<polygon class="st6" points="139.58,172.15 148.32,189.86 167.86,192.7 153.72,206.48 157.06,225.94 139.58,216.75 122.11,225.94 
		125.45,206.48 111.31,192.7 130.85,189.86 	"/>
	<polygon class="st6" points="269.68,172.15 278.42,189.86 297.95,192.7 283.82,206.48 287.15,225.94 269.68,216.75 252.2,225.94 
		255.54,206.48 241.4,192.7 260.94,189.86 	"/>
	<circle class="st7" cx="202.77" cy="205.97" r="121.96"/>
	<circle class="st1" cx="201.82" cy="192.58" r="121.96"/>
	<g>
		<path class="st1" d="M177.43,632.35v-4.31c0-2.87,0.97-5.57,2.92-8.1c1.95-2.53,5.35-5.5,10.22-8.91c1.7-1.17,2.75-1.87,3.14-2.12
			c1.75-1.17,2.97-2.04,3.65-2.63c0.68-0.58,1.19-1.22,1.53-1.9c0.34-0.68,0.51-1.56,0.51-2.63c0-1.22-0.45-2.2-1.35-2.96
			c-0.9-0.75-2.28-1.13-4.13-1.13c-3.12,0-6.28,0.8-9.49,2.41c-0.78,0.39-1.34,0.58-1.68,0.58c-0.54,0-1-0.34-1.39-1.02l-3.65-6.28
			c-0.44-0.78-0.66-1.39-0.66-1.82c0-0.54,0.29-1.02,0.88-1.46c2.09-1.41,4.79-2.54,8.1-3.39c3.31-0.85,6.93-1.28,10.88-1.28
			c6.13,0,10.99,1.28,14.56,3.83c3.58,2.55,5.37,6.17,5.37,10.84c0,3.6-1,6.66-2.99,9.16c-2,2.51-5.26,5.22-9.78,8.14
			c-4.82,3.12-7.71,5.21-8.69,6.28h17.81c1.56,0,2.62,0.33,3.18,0.99c0.56,0.66,0.84,1.71,0.84,3.17v4.16
			c0,1.46-0.28,2.52-0.84,3.18c-0.56,0.66-1.62,0.99-3.18,0.99h-32.12C178.65,636.14,177.43,634.88,177.43,632.35z"/>
	</g>
	<rect x="156.37" y="164.44" class="st18" width="60.31" height="44.08"/>
	<g>
		<g>
			<g>
				<g>
					<path class="st8" d="M274.3,219.49c0,3.11-2.54,5.65-5.65,5.65H154.39c-3.11,0-5.65-2.54-5.65-5.65v-66.16
						c0-3.09,2.54-5.63,5.65-5.63h114.26c3.1,0,5.65,2.54,5.65,5.63V219.49z"/>
					<path class="st9" d="M273.74,147.7h-56.53h-57.74c-3.11,0-5.65,2.54-5.65,5.63v66.16c0,3.11,2.54,5.65,5.65,5.65h57.74h56.53
						c3.1,0,5.64-2.54,5.64-5.65v-66.16C279.38,150.24,276.84,147.7,273.74,147.7z"/>
					<path class="st10" d="M268.65,147.7h-56.52h-57.74c-3.11,0-5.65,2.54-5.65,5.63v66.16c0,3.11,2.54,5.65,5.65,5.65h57.74h56.52
						c3.1,0,5.65-2.54,5.65-5.65v-66.16C274.3,150.24,271.75,147.7,268.65,147.7z"/>
					<path class="st11" d="M266.38,152.74h-54.25h-55.47c-1.86,0-3.39,1.54-3.39,3.4v60.58c0,1.87,1.53,3.39,3.39,3.39h55.47h54.25
						c1.86,0,3.38-1.52,3.38-3.39v-60.58C269.76,154.28,268.23,152.74,266.38,152.74z"/>
				</g>
				<g>
					<path class="st9" d="M215.32,225.14v11.51h62.51c5.62,0,10.17-4.55,10.17-10.17v-1.34H215.32z"/>
					<path class="st12" d="M138.22,225.14v1.34c0,5.62,4.56,10.17,10.18,10.17h63.73v-11.51H138.22z"/>
				</g>
				<path class="st13" d="M179.87,225.14h-73.91v1.34c0,5.62,4.56,10.17,10.18,10.17h63.73h62.51c5.62,0,10.18-4.55,10.18-10.17
					v-1.34H179.87z"/>
			</g>
			<g>
				<g>
					<g>
						<rect x="154.82" y="174.1" class="st17" width="9.3" height="8.18"/>
						<rect x="167.09" y="174.1" class="st19" width="44.92" height="8.18"/>
					</g>
					<g>
						<rect x="154.82" y="184.54" class="st14" width="9.3" height="8.18"/>
						<rect x="167.09" y="184.54" class="st19" width="44.92" height="8.18"/>
					</g>
					<g>
						<rect x="154.82" y="194.99" class="st15" width="9.3" height="8.18"/>
						<rect x="167.09" y="194.99" class="st19" width="44.92" height="8.18"/>
					</g>
					<g>
						<rect x="154.82" y="205.43" class="st16" width="9.3" height="8.18"/>
						<rect x="167.09" y="205.43" class="st19" width="44.92" height="8.18"/>
					</g>
				</g>
				<g>
					<path class="st14" d="M155.08,168.19c-0.13-0.13-0.2-0.34-0.2-0.62v-8.17c0-0.28,0.07-0.49,0.2-0.62
						c0.13-0.13,0.35-0.2,0.67-0.2h3.45c1.44,0,2.49,0.29,3.15,0.86c0.66,0.57,0.99,1.44,0.99,2.59c0,1.15-0.33,2.02-0.99,2.58
						c-0.66,0.57-1.71,0.85-3.14,0.85h-0.87v2.11c0,0.28-0.06,0.49-0.19,0.62c-0.13,0.13-0.36,0.2-0.69,0.2h-1.72
						C155.44,168.4,155.21,168.33,155.08,168.19z M158.9,163.01c0.31,0,0.55-0.08,0.73-0.25s0.27-0.41,0.27-0.74
						c0-0.34-0.09-0.59-0.27-0.75s-0.42-0.25-0.73-0.25h-0.98v1.98H158.9z"/>
					<path class="st14" d="M162.04,168.09c0-0.09,0.02-0.19,0.07-0.32l3.59-8.64c0.09-0.2,0.18-0.34,0.3-0.43
						c0.11-0.08,0.27-0.12,0.47-0.12h1.57c0.2,0,0.36,0.04,0.47,0.12c0.11,0.08,0.21,0.22,0.3,0.43l3.58,8.64
						c0.05,0.13,0.07,0.23,0.07,0.32c0,0.2-0.11,0.3-0.32,0.3h-2.71c-0.3,0-0.49-0.13-0.56-0.39l-0.35-1.07h-2.55l-0.33,1.07
						c-0.08,0.26-0.26,0.39-0.56,0.39h-2.71C162.15,168.4,162.04,168.29,162.04,168.09z M167.82,164.66l-0.56-1.79l-0.56,1.79
						H167.82z"/>
					<path class="st14" d="M173.38,168.19c-0.13-0.13-0.2-0.34-0.2-0.62v-8.18c0-0.28,0.07-0.48,0.2-0.61
						c0.13-0.13,0.36-0.19,0.69-0.19h1.37c0.2,0,0.36,0.03,0.47,0.08c0.11,0.05,0.22,0.16,0.33,0.31l2.61,3.88v-3.45
						c0-0.28,0.07-0.49,0.2-0.62c0.13-0.13,0.35-0.2,0.67-0.2h1.72c0.33,0,0.56,0.06,0.69,0.19c0.13,0.13,0.2,0.34,0.2,0.63v8.18
						c0,0.28-0.07,0.48-0.2,0.61s-0.36,0.19-0.69,0.19h-1.37c-0.2,0-0.36-0.03-0.47-0.08c-0.11-0.05-0.22-0.16-0.32-0.31l-2.61-3.88
						v3.46c0,0.28-0.06,0.48-0.19,0.61s-0.36,0.19-0.69,0.19h-1.72C173.73,168.4,173.51,168.33,173.38,168.19z"/>
					<path class="st14" d="M183.51,168.19c-0.13-0.13-0.2-0.34-0.2-0.62v-8.17c0-0.28,0.07-0.49,0.2-0.62
						c0.13-0.13,0.35-0.2,0.67-0.2h5.97c0.31,0,0.52,0.06,0.63,0.19c0.11,0.13,0.17,0.34,0.17,0.63v0.81c0,0.29-0.06,0.5-0.17,0.63
						c-0.11,0.13-0.32,0.19-0.63,0.19h-3.38v1.24h2.08c0.31,0,0.52,0.06,0.63,0.19s0.17,0.34,0.17,0.63v0.78
						c0,0.29-0.06,0.5-0.17,0.63s-0.32,0.19-0.63,0.19h-2.08v1.24h3.36c0.31,0,0.52,0.06,0.63,0.19s0.17,0.34,0.17,0.63v0.81
						c0,0.29-0.06,0.5-0.17,0.63s-0.32,0.19-0.63,0.19h-5.96C183.86,168.4,183.64,168.33,183.51,168.19z"/>
					<path class="st14" d="M191.79,168.19c-0.13-0.13-0.2-0.34-0.2-0.62v-8.17c0-0.28,0.07-0.49,0.2-0.62
						c0.13-0.13,0.35-0.2,0.67-0.2h1.72c0.33,0,0.56,0.06,0.69,0.19c0.13,0.13,0.19,0.34,0.19,0.63v6.54h3.36
						c0.31,0,0.52,0.06,0.63,0.19s0.17,0.34,0.17,0.63v0.81c0,0.29-0.06,0.5-0.17,0.63s-0.32,0.19-0.63,0.19h-5.96
						C192.14,168.4,191.92,168.33,191.79,168.19z"/>
					<path class="st14" d="M205.15,167.32c-0.97-0.86-1.46-2.14-1.46-3.83c0-1.7,0.47-2.98,1.41-3.84c0.94-0.86,2.28-1.28,4.02-1.28
						c0.79,0,1.49,0.08,2.11,0.23c0.62,0.15,1.13,0.37,1.54,0.65c0.12,0.09,0.17,0.18,0.17,0.29c0,0.09-0.04,0.21-0.13,0.36
						l-0.72,1.24c-0.08,0.13-0.17,0.2-0.27,0.2c-0.07,0-0.18-0.04-0.33-0.12c-0.27-0.13-0.55-0.24-0.84-0.32
						c-0.29-0.08-0.64-0.12-1.03-0.12c-0.8,0-1.41,0.23-1.83,0.69c-0.42,0.46-0.63,1.13-0.63,2.01c0,0.87,0.23,1.53,0.69,2
						c0.46,0.47,1.09,0.7,1.89,0.7c0.69,0,1.33-0.14,1.9-0.43c0.15-0.08,0.26-0.12,0.33-0.12c0.11,0,0.2,0.07,0.27,0.2l0.72,1.24
						c0.09,0.15,0.13,0.27,0.13,0.36c0,0.11-0.06,0.2-0.17,0.29c-0.41,0.28-0.93,0.5-1.56,0.65c-0.63,0.15-1.33,0.23-2.12,0.23
						C207.48,168.61,206.12,168.18,205.15,167.32z"/>
					<path class="st14" d="M214.19,167.28c-0.88-0.89-1.33-2.15-1.33-3.79c0-1.64,0.44-2.9,1.33-3.79s2.18-1.33,3.9-1.33
						c1.71,0,3.01,0.45,3.9,1.33s1.33,2.15,1.33,3.79c0,1.64-0.44,2.9-1.33,3.79s-2.18,1.33-3.9,1.33
						C216.38,168.61,215.08,168.17,214.19,167.28z M219.45,165.52c0.28-0.45,0.42-1.12,0.42-2.03c0-0.91-0.14-1.59-0.42-2.03
						c-0.28-0.44-0.73-0.66-1.36-0.66c-0.63,0-1.08,0.22-1.36,0.66c-0.28,0.44-0.42,1.12-0.42,2.03c0,0.9,0.14,1.58,0.42,2.03
						c0.28,0.45,0.73,0.67,1.36,0.67C218.71,166.19,219.17,165.96,219.45,165.52z"/>
					<path class="st14" d="M224.23,168.19c-0.13-0.13-0.2-0.34-0.2-0.62v-8.18c0-0.28,0.07-0.48,0.2-0.61
						c0.13-0.13,0.36-0.19,0.69-0.19h1.37c0.2,0,0.36,0.03,0.47,0.08c0.11,0.05,0.22,0.16,0.33,0.31l2.61,3.88v-3.45
						c0-0.28,0.07-0.49,0.2-0.62c0.13-0.13,0.35-0.2,0.67-0.2h1.72c0.33,0,0.56,0.06,0.69,0.19c0.13,0.13,0.2,0.34,0.2,0.63v8.18
						c0,0.28-0.07,0.48-0.2,0.61s-0.36,0.19-0.69,0.19h-1.37c-0.2,0-0.36-0.03-0.47-0.08c-0.11-0.05-0.22-0.16-0.32-0.31l-2.61-3.88
						v3.46c0,0.28-0.06,0.48-0.19,0.61s-0.36,0.19-0.69,0.19h-1.72C224.58,168.4,224.36,168.33,224.23,168.19z"/>
					<path class="st14" d="M236.65,168.19c-0.13-0.13-0.19-0.34-0.19-0.62v-6.54h-2.08c-0.31,0-0.52-0.06-0.63-0.19
						s-0.17-0.34-0.17-0.63v-0.81c0-0.29,0.06-0.5,0.17-0.63c0.11-0.13,0.32-0.19,0.63-0.19H242c0.31,0,0.52,0.06,0.63,0.19
						c0.11,0.13,0.17,0.34,0.17,0.63v0.81c0,0.29-0.06,0.5-0.17,0.63s-0.32,0.19-0.63,0.19h-2.08v6.54c0,0.28-0.07,0.49-0.2,0.62
						c-0.13,0.13-0.36,0.2-0.69,0.2h-1.72C237.01,168.4,236.78,168.33,236.65,168.19z"/>
					<path class="st14" d="M243.42,168.19c-0.13-0.13-0.2-0.34-0.2-0.62v-8.17c0-0.28,0.07-0.49,0.2-0.62
						c0.13-0.13,0.35-0.2,0.67-0.2h3.45c1.44,0,2.49,0.29,3.15,0.86c0.66,0.57,0.99,1.44,0.99,2.59c0,0.69-0.12,1.28-0.35,1.75
						c-0.24,0.48-0.6,0.85-1.09,1.12l1.34,2.87c0.04,0.08,0.06,0.16,0.06,0.26c0,0.11-0.04,0.19-0.11,0.26
						c-0.07,0.07-0.17,0.1-0.28,0.1h-2.44c-0.15,0-0.28-0.02-0.37-0.06c-0.09-0.04-0.16-0.12-0.2-0.22l-1.07-2.68h-0.49v2.15
						c0,0.28-0.06,0.49-0.19,0.62c-0.13,0.13-0.36,0.2-0.69,0.2h-1.72C243.77,168.4,243.55,168.33,243.42,168.19z M247.24,163.01
						c0.31,0,0.55-0.08,0.73-0.25s0.27-0.41,0.27-0.74c0-0.34-0.09-0.59-0.27-0.75s-0.42-0.25-0.73-0.25h-0.98v1.98H247.24z"/>
					<path class="st14" d="M253.44,167.28c-0.88-0.89-1.33-2.15-1.33-3.79c0-1.64,0.44-2.9,1.33-3.79s2.18-1.33,3.9-1.33
						c1.71,0,3.01,0.45,3.9,1.33s1.33,2.15,1.33,3.79c0,1.64-0.44,2.9-1.33,3.79s-2.18,1.33-3.9,1.33
						C255.63,168.61,254.33,168.17,253.44,167.28z M258.69,165.52c0.28-0.45,0.42-1.12,0.42-2.03c0-0.91-0.14-1.59-0.42-2.03
						c-0.28-0.44-0.73-0.66-1.36-0.66c-0.63,0-1.08,0.22-1.36,0.66c-0.28,0.44-0.42,1.12-0.42,2.03c0,0.9,0.14,1.58,0.42,2.03
						c0.28,0.45,0.73,0.67,1.36,0.67C257.96,166.19,258.42,165.96,258.69,165.52z"/>
					<path class="st14" d="M263.48,168.19c-0.13-0.13-0.2-0.34-0.2-0.62v-8.17c0-0.28,0.07-0.49,0.2-0.62
						c0.13-0.13,0.35-0.2,0.67-0.2h1.72c0.33,0,0.56,0.06,0.69,0.19c0.13,0.13,0.19,0.34,0.19,0.63v6.54h3.36
						c0.31,0,0.52,0.06,0.63,0.19s0.17,0.34,0.17,0.63v0.81c0,0.29-0.06,0.5-0.17,0.63s-0.32,0.19-0.63,0.19h-5.96
						C263.83,168.4,263.61,168.33,263.48,168.19z"/>
				</g>
				<g>
					<circle id="XMLID_8242_" class="st3" cx="245.48" cy="196.77" r="21.66"/>
					<g id="XMLID_7515_">
						<path id="XMLID_7538_" class="st4" d="M251.5,195.92c0.28-0.69,0.42-1.23,0.45-1.37c-0.03-0.01-0.05-0.02-0.06-0.04
							c-0.04-0.07,0.09-0.77,0.03-0.82c-0.01-0.01-0.02-0.01-0.02-0.01c-0.08,0.25-0.22,0.45-0.39,0.6
							C251.51,194.81,251.51,195.36,251.5,195.92z"/>
						<path id="XMLID_7537_" class="st21" d="M250.53,194.55c-0.32-0.23-0.31,3.02-1.64,4.3c-0.1,0.09-0.19,0.18-0.29,0.27
							c-0.1,0.09-0.21,0.17-0.31,0.25c0,0.04,0,0.09,0,0.14c1.23-0.36,2.09-1.45,2.63-2.38c0.24-0.42,0.43-0.83,0.59-1.21
							c0-0.56,0-1.11,0-1.65c-0.1,0.09-0.21,0.15-0.32,0.19C251,194.65,250.78,194.72,250.53,194.55z"/>
						<path id="XMLID_7536_" class="st21" d="M240.19,203.19c-0.03,0.02-0.14,0.08-0.23,0.23
							C240.02,203.35,240.1,203.28,240.19,203.19z"/>
						<path id="XMLID_7535_" class="st21" d="M248.29,199.68c0.03,0.71,0.17,1.65,0.76,2.5c0.19-0.17,0.3-0.21,0.37-0.09
							c0.43,0.73,0.88,1.12,1.13,1.37c-0.13-0.22-0.27-0.28-0.27-0.28s0.31-0.12,0.84,0.33c0.12,0.11,0.34,0.25,0.58,0.45
							c-0.28-1.39-0.22-4.53-0.2-7.63c-0.13,0.28-0.27,0.57-0.44,0.87C250.29,198.55,249.35,199.39,248.29,199.68z"/>
						<path id="XMLID_7534_" class="st21" d="M240.2,203.18c0.24-0.25,0.55-0.58,0.85-1.09c0.07-0.12,0.18-0.08,0.38,0.1
							c0.68-0.98,0.77-2.09,0.77-2.82c-0.21-0.16-0.41-0.34-0.61-0.52c-1.33-1.28-1.32-4.53-1.64-4.3
							c-0.25,0.17-0.47,0.11-0.65-0.08c-0.07-0.02-0.13-0.05-0.2-0.09c-0.01,3.54,0.14,7.7-0.17,9.46c0.18-0.14,0.33-0.24,0.43-0.33
							C239.87,203.09,240.17,203.17,240.2,203.18z"/>
						<path id="XMLID_7533_" class="st22" d="M248.01,199.57c0.09-0.02,0.18-0.04,0.27-0.07c0-0.05,0-0.09,0-0.14
							C248.2,199.44,248.11,199.51,248.01,199.57z"/>
						<path id="XMLID_7532_" class="st22" d="M245.19,205.6c0.02,0.02,0.03,0.04,0.04,0.06c0.01-0.02,0.02-0.04,0.04-0.06
							c2.32-1.78,3.31-3,3.78-3.42c-0.58-0.85-0.73-1.79-0.76-2.5c-0.19,0.05-0.39,0.09-0.59,0.1c-0.06,0.25-0.31,0.7-1.16,0.69
							c-0.18,0-0.33-0.02-0.45-0.06c-0.13,0.02-0.26,0.05-0.39,0.06c-0.39,0.04-0.8,0.03-1.19-0.03c-0.32-0.05-0.64-0.14-0.94-0.26
							c-0.34-0.13-0.66-0.31-0.97-0.51c-0.14-0.09-0.27-0.2-0.4-0.3c-0.01,0.74-0.1,1.84-0.77,2.82
							C241.9,202.62,242.89,203.84,245.19,205.6z"/>
						<path id="XMLID_7531_" class="st22" d="M245.23,205.72c0,0,0,0.01,0,0.01h0C245.23,205.72,245.23,205.72,245.23,205.72z"/>
						<path id="XMLID_7530_" class="st23" d="M243.57,200.18c0.3,0.12,0.62,0.21,0.94,0.26c0.39,0.06,0.8,0.07,1.19,0.03
							c0.13-0.01,0.26-0.04,0.39-0.06c-0.57-0.16-0.61-0.61-0.62-0.76c0.02-0.18,0.09-0.81,1.09-0.8c0.91,0.01,1.13,0.53,1.16,0.76
							c0.1-0.01,0.2-0.02,0.3-0.04c0.09-0.07,0.18-0.13,0.27-0.2c0.11-0.08,0.21-0.16,0.31-0.25c0.1-0.09,0.2-0.18,0.29-0.27
							c1.33-1.28,1.32-4.53,1.64-4.3c0.25,0.17,0.47,0.1,0.66-0.09c-0.15,0.05-0.3,0.06-0.41-0.01c-0.18-0.11,0.01-1.02,0.14-2.41
							c-0.02,0.01-0.04,0.01-0.06,0.03c-0.25,0.16-0.57-2-1.78-3.01c-1.22-1.01-1.31-1.69-1.31-1.69c-1.22,0.14-2.41,0.58-4.41,2.17
							c-1.59,1.26-3,2.52-3.64,2.69c-0.06,0.02-0.1-0.05-0.15-0.13c0.13,1.36,0.31,2.25,0.13,2.36c-0.1,0.06-0.24,0.06-0.39,0.02
							c0.18,0.18,0.4,0.25,0.65,0.08c0.32-0.23,0.31,3.02,1.64,4.3c0.19,0.19,0.4,0.36,0.61,0.52c0.13,0.1,0.26,0.21,0.4,0.3
							C242.91,199.87,243.23,200.05,243.57,200.18z"/>
						<path id="XMLID_7529_" class="st21" d="M239.06,189.67c0.06-1.19,1.15-5.5,6.18-5.5c5.03,0,6.12,4.31,6.18,5.5
							c0.04,0.77-0.04,1.22,0.02,1.48c0.02-0.26,0.04-0.6,0.04-1.04c0-2.27-0.92-4.61-2.41-5c-0.71-0.19-0.81-0.88-2.4-1.36
							c-2.54-0.76-5.41,0.29-6.87,2.73c-1.03,1.71-1.08,4.1-0.97,4.93C239.19,191.23,239,190.8,239.06,189.67z"/>
						<path id="XMLID_7528_" class="st21" d="M239.7,192.23c0.64-0.17,2.05-1.43,3.64-2.69c2-1.59,3.19-2.03,4.41-2.17
							c0,0,0.1,0.68,1.31,1.69c1.22,1.01,1.53,3.17,1.78,3.01c0.02-0.01,0.04-0.02,0.06-0.03c0.01-0.14,0.03-0.29,0.04-0.44
							c0.12-1.64,0.11-2.18-0.05-2.77c-1.24-4.58-5.66-4.25-5.66-4.25s-4.27-0.4-5.64,4.18c-0.18,0.61-0.2,1.2-0.07,2.84
							c0.01,0.17,0.03,0.34,0.04,0.49C239.61,192.18,239.65,192.24,239.7,192.23z"/>
						<path id="XMLID_7527_" class="st24" d="M239.69,194.45c0.18-0.11,0-1-0.13-2.36c-0.02-0.16-0.03-0.32-0.04-0.49
							c-0.12-1.64-0.11-2.24,0.07-2.84c1.37-4.58,5.64-4.18,5.64-4.18s4.42-0.33,5.66,4.25c0.16,0.6,0.18,1.13,0.05,2.77
							c-0.01,0.15-0.02,0.3-0.04,0.44c-0.13,1.39-0.32,2.3-0.14,2.41c0.11,0.07,0.26,0.06,0.41,0.01c0.11-0.04,0.22-0.1,0.32-0.19
							c0.17-0.14,0.31-0.35,0.39-0.6c-0.06-0.02-0.16,0.04-0.21-0.07c-0.06-0.12-0.03-0.68,0.02-0.8c0.05-0.12,0.1-0.18,0.3-0.14
							c0.01,0,0.02,0.01,0.03,0.01c0.02-0.56-0.05-1.1-0.34-1.21c-0.16-0.06-0.23-0.16-0.26-0.3c-0.06-0.27,0.01-0.71-0.02-1.48
							c-0.06-1.19-1.15-5.5-6.18-5.5c-5.03,0-6.12,4.31-6.18,5.5c-0.06,1.13,0.13,1.56-0.23,1.75c-0.02,0.01-0.04,0.02-0.06,0.03
							c-0.45,0.17-0.37,1.34-0.25,2.05c0.07,0.4,0.32,0.71,0.59,0.87c0.07,0.04,0.13,0.07,0.2,0.09
							C239.45,194.51,239.59,194.52,239.69,194.45z"/>
						<path id="XMLID_7526_" class="st25" d="M251.71,192.8c-0.05,0.12-0.08,0.68-0.02,0.8c0.05,0.11,0.15,0.05,0.21,0.07
							c0.01,0,0.02,0.01,0.02,0.01c0.06,0.05-0.07,0.75-0.03,0.82c0.01,0.02,0.04,0.03,0.06,0.04c-0.03,0.14-0.17,0.69-0.45,1.37
							c-0.15,0.37-0.35,0.79-0.59,1.21c-0.54,0.93-1.4,2.02-2.63,2.38c-0.09,0.03-0.18,0.05-0.27,0.07c-0.1,0.02-0.2,0.03-0.3,0.04
							c-0.03-0.23-0.25-0.75-1.16-0.76c-1-0.01-1.07,0.61-1.09,0.8c0.01,0.15,0.05,0.6,0.62,0.76c0.12,0.03,0.27,0.06,0.45,0.06
							c0.85,0.01,1.11-0.44,1.16-0.69c0.2-0.02,0.39-0.05,0.59-0.1c1.05-0.29,2-1.13,2.77-2.47c0.17-0.29,0.31-0.58,0.44-0.87
							c0.4-0.89,0.61-1.66,0.63-1.8c0.01,0,0.02-0.01,0.03-0.01c0.07-0.05,0.12-0.51,0.16-1.03c0.04-0.5-0.11-0.77-0.29-0.82
							c-0.01,0-0.02-0.01-0.03-0.01C251.82,192.62,251.76,192.68,251.71,192.8z"/>
						<path id="XMLID_7525_" class="st26" d="M244.35,209.43c-0.36-0.81-0.77-1.28-0.81-1.96c-0.27,0.33-0.45,0.67-0.42,1
							c0.1,1.07-3.08-2.61-3.38-4.37c-0.06,0.34-0.06,1.05,0.92,2.44c0.66,0.94,2.22,3.62,3.35,6.02c0.23-1.45,0.41-2.56,0.48-2.98
							C244.43,209.54,244.38,209.49,244.35,209.43z"/>
						<path id="XMLID_7524_" class="st26" d="M247.34,208.47c0.03-0.32-0.15-0.66-0.42-1c-0.04,0.68-0.44,1.14-0.81,1.96
							c-0.03,0.06-0.08,0.11-0.14,0.14c0.08,0.44,0.27,1.62,0.51,3.16c1.1-2.45,2.66-5.23,3.34-6.2c1.03-1.46,0.98-2.17,0.91-2.48
							C250.48,205.8,247.24,209.55,247.34,208.47z"/>
						<path id="XMLID_7523_" class="st26" d="M240.26,207.57C240.26,207.58,240.26,207.58,240.26,207.57l0.01,0
							C240.27,207.57,240.27,207.57,240.26,207.57z"/>
						<path id="XMLID_7522_" class="st27" d="M246.11,209.43c0.36-0.81,0.77-1.28,0.81-1.96c-0.6-0.74-1.61-1.42-1.69-1.75h0
							c-0.07,0.32-1.09,1.01-1.69,1.75c0.04,0.68,0.44,1.14,0.81,1.96c0.03,0.06,0.08,0.11,0.14,0.14
							c-0.08,0.42-0.26,1.53-0.48,2.98c0.67,1.43,1.2,2.76,1.29,3.58c0.09-0.78,0.56-2.04,1.17-3.4c-0.24-1.53-0.43-2.72-0.51-3.16
							C246.03,209.54,246.09,209.49,246.11,209.43z"/>
						<path id="XMLID_7521_" class="st28" d="M249.42,202.09c-0.07-0.12-0.18-0.08-0.37,0.09c-0.47,0.42-1.46,1.64-3.78,3.42
							c-0.02,0.02-0.03,0.04-0.04,0.06c-0.01-0.02-0.02-0.04-0.04-0.06c-2.3-1.76-3.3-2.98-3.77-3.41c-0.2-0.18-0.31-0.22-0.38-0.1
							c-0.3,0.5-0.6,0.84-0.85,1.09c0,0,0.01,0,0.01,0s-0.01,0-0.01,0.01c-0.09,0.09-0.17,0.16-0.23,0.23
							c-0.07,0.11-0.14,0.27-0.18,0.49c-0.01,0.04-0.02,0.1-0.04,0.18c0.3,1.77,3.48,5.45,3.38,4.37c-0.03-0.32,0.15-0.66,0.42-1
							c0.6-0.74,1.61-1.42,1.69-1.75c0,0,0-0.01,0-0.01c0,0,0,0.01,0,0.01c0.07,0.32,1.09,1.01,1.69,1.75
							c0.27,0.33,0.45,0.67,0.42,1c-0.1,1.08,3.13-2.67,3.39-4.42c-0.01-0.06-0.02-0.1-0.03-0.14c-0.03-0.2-0.09-0.35-0.16-0.45
							C250.3,203.21,249.85,202.82,249.42,202.09z"/>
						<path id="XMLID_7520_" class="st25" d="M258,206.63c-0.19-0.27-4.48-1.75-5.88-2.26c0.14,0.16,0.28,0.33,0.39,0.53
							c0.61,1.1,0.65,1.77,1.08,2.1c0.43,0.32-3.39,0.57-3.39,0.57l2.41,1.82c0,0-2.7,3.08-4.52,4.41
							c-0.56,0.41-2.35,2.06-2.78,2.77c0.1,0.48,0.27,1.19,0.31,1.48c0.02,0.13,0.03,0.24,0.05,0.37c3.32-0.04,6.46-0.82,9.26-2.2
							c0.09-1.66-0.2-8.2,2.94-9.59c0.07-0.03,0.14,0.04,0.22,0.18c0,0,0,0,0,0C258.07,206.75,258.04,206.68,258,206.63z"/>
						<path id="XMLID_7519_" class="st29" d="M245.31,216.58L245.31,216.58c-0.51-0.44-2.36-2.36-2.93-2.77
							c-1.82-1.33-4.52-4.41-4.52-4.41l2.4-1.81c0,0,0-0.01-0.01-0.01c-0.25-0.02-3.79-0.26-3.37-0.57c0.43-0.32,0.47-1,1.08-2.1
							c0.12-0.22,0.27-0.4,0.42-0.57c-1.46,0.53-5.62,1.97-5.81,2.23c3.36,0.17,3.03,7.65,3.09,9.55c2.93,1.48,6.24,2.32,9.74,2.32
							c0.09,0,0.17-0.01,0.26-0.01c-0.02-0.12-0.03-0.24-0.05-0.37C245.59,217.77,245.41,217.05,245.31,216.58z"/>
						<path id="XMLID_7518_" class="st30" d="M237.97,204.9c-0.61,1.1-0.65,1.77-1.08,2.1c-0.42,0.31,3.13,0.56,3.37,0.57
							c0.01,0,0.01,0,0.01,0l-0.01,0.01l-2.4,1.81c0,0,2.7,3.08,4.52,4.41c0.56,0.41,2.42,2.33,2.93,2.77l0,0
							c0.43-0.71,2.22-2.36,2.78-2.77c1.82-1.33,4.52-4.41,4.52-4.41l-2.41-1.82c0,0,3.82-0.25,3.39-0.57
							c-0.43-0.32-0.47-1-1.08-2.1c-0.11-0.2-0.25-0.38-0.39-0.53c-0.14-0.15-0.29-0.29-0.42-0.4c-0.24-0.2-0.46-0.35-0.58-0.45
							c-0.53-0.45-0.84-0.33-0.84-0.33s0.14,0.06,0.27,0.28c0.06,0.11,0.12,0.25,0.16,0.45c0.01,0.03,0.02,0.08,0.03,0.14
							c0.06,0.32,0.12,1.02-0.91,2.48c-0.68,0.96-2.24,3.75-3.34,6.2c-0.61,1.36-1.08,2.62-1.17,3.4c-0.1-0.81-0.62-2.15-1.29-3.58
							c-1.13-2.4-2.68-5.08-3.35-6.02c-0.98-1.39-0.98-2.1-0.92-2.44c0.01-0.08,0.03-0.14,0.04-0.18c0.04-0.23,0.11-0.38,0.18-0.49
							c0.1-0.15,0.2-0.21,0.23-0.23c0.01,0,0.01-0.01,0.01-0.01s0,0-0.01,0c-0.03-0.01-0.33-0.1-0.84,0.33
							c-0.1,0.08-0.25,0.19-0.43,0.33c-0.17,0.13-0.36,0.3-0.54,0.49C238.24,204.5,238.09,204.69,237.97,204.9z"/>
						<path id="XMLID_7517_" class="st30" d="M232.58,206.57c-0.19-0.01-0.83,2.93-1.47,6.47c1.38,1.21,2.91,2.25,4.56,3.08
							C235.61,214.22,235.94,206.74,232.58,206.57z"/>
						<path id="XMLID_7516_" class="st30" d="M257.88,206.64c-3.14,1.39-2.86,7.93-2.94,9.59c1.7-0.83,3.26-1.88,4.67-3.11
							c-0.54-3.01-1.11-5.6-1.51-6.3C258.02,206.68,257.94,206.61,257.88,206.64z"/>
					</g>
				</g>
			</g>
		</g>
		<g>
			<circle class="st31" cx="268.69" cy="225.9" r="12.09"/>
			<rect x="267.97" y="216.03" transform="matrix(0.9956 0.0942 -0.0942 0.9956 22.0556 -24.3497)" width="1.78" height="10.67"/>
			<rect x="265.82" y="225.04" transform="matrix(0.6191 0.7853 -0.7853 0.6191 280.3412 -122.7763)" width="1.83" height="5.13"/>
		</g>
	</g>
</g>
</svg>
