<?xml version="1.0" encoding="utf-8"?>
<!-- Generator: Adobe Illustrator 23.0.0, SVG Export Plug-In . SVG Version: 6.00 Build 0)  -->
<svg version="1.1" id="Capa_1" xmlns="http://www.w3.org/2000/svg" xmlns:xlink="http://www.w3.org/1999/xlink" x="0px" y="0px"
	 viewBox="0 0 400 689" style="enable-background:new 0 0 400 689;" xml:space="preserve">
<style type="text/css">
	.st0{fill:#E2E2E2;}
	.st1{fill:#FFFFFF;}
	.st2{fill:#CCCDCE;}
	.st3{fill:#F2F2F2;}
	.st4{fill:none;}
	.st5{fill:#0085B0;}
	.st6{fill:#E0EF18;}
	.st7{fill:#CECECE;}
	.st8{fill:#22272F;}
	.st9{fill:#1B2538;}
	.st10{fill:#253452;}
	.st11{fill:#F9F9F9;}
	.st12{fill:#2D3543;}
	.st13{fill:#2A3D60;}
	.st14{fill:#6C92D5;}
	.st15{fill:#587955;}
	.st16{fill:#CD7054;}
	.st17{fill:#F1CC4B;}
	.st18{fill:#DFDFDF;}
	.st19{fill:#ACACAC;}
	.st20{fill:#00D13C;}
	.st21{fill:#866A5E;}
	.st22{fill:#F7DDCB;}
	.st23{fill:#FFE6D4;}
	.st24{fill:#2D2D2D;}
	.st25{fill:#1C1B1A;}
	.st26{fill:#F5F5F5;}
	.st27{fill:#77181C;}
	.st28{fill:#EAEAEA;}
	.st29{fill:#262525;}
	.st30{fill:#11100F;}
	.st31{fill:#FFFFFF;stroke:#000000;stroke-width:6;stroke-miterlimit:10;}
	.st32{fill:#D4D4D4;}
	.st33{fill:#C2C2C2;}
	.st34{fill:#505050;}
	.st35{fill:#53C2C9;}
	.st36{fill:#008B9C;}
	.st37{fill:none;stroke:#00550B;stroke-width:4;stroke-miterlimit:10;}
	.st38{fill:#CE2458;}
	.st39{fill:#155500;}
	.st40{fill:#1549FF;}
	.st41{fill:#606060;stroke:#C6C8CC;stroke-width:6;stroke-miterlimit:10;}
	.st42{fill:#727272;}
	.st43{fill:#207235;}
	.st44{fill:#A3A3A3;}
	.st45{fill:#BCBCBC;}
	.st46{fill:#2A5936;}
	.st47{opacity:0.7;fill:#7F7F7F;}
	.st48{fill:#DAA449;}
	.st49{fill:#85B681;}
	.st50{fill:#A1DC9B;}
	.st51{fill:#90C58B;}
	.st52{fill:#DD9225;}
	.st53{opacity:0.3;}
	.st54{fill:#81C378;}
	.st55{opacity:0.5;}
	.st56{fill:#A2CADE;}
	.st57{fill:#9BAEC9;}
	.st58{fill:#9D2B3B;}
	.st59{fill:#C1D4F2;}
	.st60{fill:#534D46;}
	.st61{fill:#191819;}
	.st62{fill:#222123;}
	.st63{fill:#F3FF00;}
	.st64{fill-rule:evenodd;clip-rule:evenodd;fill:#FFFFFF;}
	.st65{fill-rule:evenodd;clip-rule:evenodd;fill:#1996B8;}
	.st66{fill:none;stroke:#5A605A;stroke-width:4;stroke-miterlimit:10;}
	.st67{fill:#FFB412;}
	.st68{fill:#BACDD1;}
	.st69{fill:#1C4D59;}
	.st70{fill:#A14329;}
	.st71{fill:#FCC083;}
	.st72{fill:#E8AA63;}
	.st73{fill:#D40000;}
	.st74{opacity:0.35;fill:#7D7D7D;}
	.st75{fill:#E5E3E3;}
	.st76{fill:#121F5E;}
	.st77{fill:#A3ADAF;}
	.st78{fill:#C2C6C6;}
	.st79{fill:#E5E5E5;stroke:#FFFFFF;stroke-miterlimit:10;}
	.st80{fill:#ACB4B5;}
	.st81{fill:#7F8384;}
	.st82{fill:#282828;}
	.st83{fill:none;stroke:#46A508;stroke-width:6;stroke-miterlimit:10;}
	.st84{fill:none;stroke:#46A508;stroke-width:6;stroke-miterlimit:10;stroke-dasharray:11.7425,11.7425;}
	.st85{fill:#C89D76;}
	.st86{opacity:0.4;}
	.st87{fill:#ADADAD;}
	.st88{fill:#76A172;}
	.st89{fill:#62835F;}
	.st90{fill:#96D090;}
	.st91{fill:#EDC3A6;}
	.st92{opacity:0.69;}
	.st93{fill:#E5D3D6;}
	.st94{opacity:0.44;}
	.st95{fill:#A5A5A5;}
	.st96{fill:#DDE5E4;}
	.st97{fill:#FDFDFD;}
	.st98{fill:#E0C348;}
	.st99{fill:#606060;}
</style>
<g>
	<g>
		<path class="st5" d="M10.5,201.36c0,22,13.29,27.86,29.54,13.03c0,0,156.99-143.3,353.09,26.97V47c0-22-18-40-40-40H50.5
			c-22,0-40,18-40,40V201.36z"/>
	</g>
	<g>
		<path class="st5" d="M392.66,639c0,22-18,40-40,40H50.98c-22,0-40-18-40-40v-46.27c0-22,18-40,40-40h301.68c22,0,40,18,40,40V639z
			"/>
	</g>
	<g>
		<path d="M119.86,379.82c-1.72-0.42-3.1-1-4.16-1.75c-0.44-0.31-0.66-0.6-0.66-0.89c0-0.2,0.08-0.41,0.23-0.63l1.91-3
			c0.2-0.29,0.4-0.43,0.59-0.43c0.18,0,0.38,0.08,0.63,0.23c0.79,0.48,1.7,0.86,2.72,1.14c1.02,0.28,2.02,0.41,2.99,0.41
			c0.81,0,1.4-0.11,1.77-0.33c0.36-0.22,0.54-0.56,0.54-1.02c0-0.51-0.24-0.91-0.73-1.22c-0.48-0.31-1.32-0.69-2.51-1.16
			c-2.22-0.86-3.97-1.83-5.25-2.92s-1.91-2.54-1.91-4.34c0-2.29,0.8-4.01,2.39-5.16c1.6-1.16,3.75-1.73,6.45-1.73
			c1.89,0,3.5,0.17,4.83,0.5s2.49,0.85,3.48,1.55c0.44,0.31,0.66,0.61,0.66,0.89c0,0.2-0.08,0.41-0.23,0.63l-1.91,3
			c-0.2,0.31-0.4,0.46-0.59,0.46c-0.13,0-0.34-0.09-0.63-0.26c-0.53-0.35-1.16-0.64-1.88-0.88c-0.73-0.23-1.51-0.35-2.34-0.35
			c-0.77,0-1.35,0.11-1.75,0.33s-0.59,0.57-0.59,1.06c0,0.4,0.14,0.73,0.41,0.99c0.27,0.26,0.62,0.49,1.04,0.68
			c0.42,0.19,1.14,0.49,2.18,0.91c1.65,0.66,2.95,1.29,3.89,1.9c0.95,0.61,1.66,1.33,2.14,2.18c0.48,0.85,0.73,1.92,0.73,3.22
			c0,1.98-0.74,3.58-2.23,4.8c-1.48,1.22-3.7,1.83-6.65,1.83C123.43,380.45,121.58,380.24,119.86,379.82z"/>
		<path d="M136.41,379.49c-0.3-0.31-0.45-0.78-0.45-1.42v-18.68c0-0.64,0.15-1.11,0.45-1.42c0.3-0.31,0.81-0.46,1.53-0.46h3.93
			c0.75,0,1.27,0.15,1.57,0.45c0.3,0.3,0.45,0.77,0.45,1.44v18.68c0,0.64-0.15,1.11-0.45,1.42c-0.3,0.31-0.82,0.46-1.57,0.46h-3.93
			C137.22,379.95,136.71,379.8,136.41,379.49z"/>
		<path d="M150.38,379.82c-1.72-0.42-3.1-1-4.16-1.75c-0.44-0.31-0.66-0.6-0.66-0.89c0-0.2,0.08-0.41,0.23-0.63l1.91-3
			c0.2-0.29,0.4-0.43,0.59-0.43c0.18,0,0.38,0.08,0.63,0.23c0.79,0.48,1.7,0.86,2.72,1.14c1.02,0.28,2.02,0.41,2.99,0.41
			c0.81,0,1.4-0.11,1.77-0.33s0.54-0.56,0.54-1.02c0-0.51-0.24-0.91-0.73-1.22c-0.48-0.31-1.32-0.69-2.51-1.16
			c-2.22-0.86-3.97-1.83-5.25-2.92c-1.28-1.09-1.91-2.54-1.91-4.34c0-2.29,0.8-4.01,2.39-5.16c1.59-1.16,3.74-1.73,6.45-1.73
			c1.89,0,3.5,0.17,4.83,0.5s2.49,0.85,3.48,1.55c0.44,0.31,0.66,0.61,0.66,0.89c0,0.2-0.08,0.41-0.23,0.63l-1.91,3
			c-0.2,0.31-0.4,0.46-0.59,0.46c-0.13,0-0.34-0.09-0.63-0.26c-0.53-0.35-1.15-0.64-1.88-0.88c-0.73-0.23-1.51-0.35-2.34-0.35
			c-0.77,0-1.35,0.11-1.75,0.33s-0.59,0.57-0.59,1.06c0,0.4,0.14,0.73,0.41,0.99c0.28,0.26,0.62,0.49,1.04,0.68
			c0.42,0.19,1.14,0.49,2.18,0.91c1.65,0.66,2.95,1.29,3.89,1.9s1.66,1.33,2.15,2.18c0.48,0.85,0.73,1.92,0.73,3.22
			c0,1.98-0.74,3.58-2.23,4.8c-1.49,1.22-3.7,1.83-6.65,1.83C153.96,380.45,152.1,380.24,150.38,379.82z"/>
		<path d="M171.36,379.49c-0.3-0.31-0.45-0.78-0.45-1.42v-14.95h-4.75c-0.7,0-1.18-0.15-1.44-0.45c-0.25-0.3-0.38-0.78-0.38-1.44
			v-1.85c0-0.66,0.13-1.14,0.38-1.44c0.25-0.3,0.73-0.45,1.44-0.45h17.42c0.7,0,1.18,0.15,1.44,0.45c0.25,0.3,0.38,0.77,0.38,1.44
			v1.85c0,0.66-0.13,1.14-0.38,1.44s-0.73,0.45-1.44,0.45h-4.75v14.95c0,0.64-0.15,1.11-0.45,1.42c-0.3,0.31-0.82,0.46-1.57,0.46
			h-3.93C172.16,379.95,171.65,379.8,171.36,379.49z"/>
		<path d="M186.83,379.49c-0.3-0.31-0.45-0.78-0.45-1.42v-18.68c0-0.64,0.15-1.11,0.45-1.42c0.3-0.31,0.81-0.46,1.54-0.46h13.66
			c0.7,0,1.18,0.15,1.44,0.45c0.25,0.3,0.38,0.77,0.38,1.44v1.85c0,0.66-0.13,1.14-0.38,1.44c-0.25,0.3-0.73,0.45-1.44,0.45h-7.72
			v2.84h4.75c0.7,0,1.18,0.15,1.44,0.45c0.25,0.3,0.38,0.78,0.38,1.44v1.78c0,0.66-0.13,1.14-0.38,1.44s-0.73,0.45-1.44,0.45h-4.75
			v2.84H202c0.7,0,1.18,0.15,1.44,0.45c0.25,0.3,0.38,0.78,0.38,1.44v1.85c0,0.66-0.13,1.14-0.38,1.44
			c-0.25,0.3-0.73,0.45-1.44,0.45h-13.63C187.64,379.95,187.13,379.8,186.83,379.49z"/>
		<path d="M205.77,379.49c-0.3-0.31-0.45-0.78-0.45-1.42v-18.71c0-0.64,0.15-1.11,0.45-1.4c0.3-0.3,0.82-0.45,1.57-0.45h3.79
			c0.48,0,0.87,0.06,1.15,0.18c0.29,0.12,0.51,0.36,0.66,0.71l3.86,9.67l3.86-9.67c0.15-0.35,0.37-0.59,0.66-0.71
			c0.29-0.12,0.67-0.18,1.15-0.18h3.79c0.75,0,1.27,0.15,1.57,0.45c0.3,0.3,0.45,0.77,0.45,1.4v18.71c0,0.64-0.15,1.11-0.45,1.42
			c-0.3,0.31-0.81,0.46-1.54,0.46h-3.17c-0.73,0-1.24-0.15-1.55-0.46c-0.31-0.31-0.46-0.78-0.46-1.42v-9.01l-1.95,4.49
			c-0.26,0.64-0.55,1.09-0.86,1.37s-0.81,0.41-1.52,0.41c-0.71,0-1.21-0.14-1.52-0.41c-0.31-0.28-0.59-0.73-0.86-1.37l-1.95-4.49
			v9.01c0,0.64-0.15,1.11-0.45,1.42c-0.3,0.31-0.82,0.46-1.57,0.46h-3.17C206.58,379.95,206.07,379.8,205.77,379.49z"/>
		<path d="M229.12,379.26c0-0.2,0.05-0.44,0.17-0.73l8.22-19.77c0.2-0.46,0.42-0.79,0.68-0.97c0.25-0.19,0.61-0.28,1.07-0.28h3.6
			c0.46,0,0.82,0.09,1.07,0.28c0.25,0.19,0.48,0.51,0.68,0.97l8.18,19.77c0.11,0.29,0.17,0.53,0.17,0.73c0,0.46-0.24,0.69-0.73,0.69
			h-6.2c-0.68,0-1.11-0.3-1.29-0.89l-0.79-2.44h-5.84l-0.76,2.44c-0.18,0.59-0.61,0.89-1.29,0.89h-6.2
			C229.36,379.95,229.12,379.72,229.12,379.26z M242.32,371.41l-1.29-4.09l-1.29,4.09H242.32z"/>
		<path d="M264.94,379.49c-0.3-0.31-0.45-0.78-0.45-1.42v-18.68c0-0.64,0.15-1.11,0.45-1.42c0.3-0.31,0.81-0.46,1.53-0.46h7.59
			c7.77,0,11.65,3.74,11.65,11.22c0,3.7-1,6.49-2.99,8.38c-1.99,1.89-4.88,2.84-8.66,2.84h-7.59
			C265.75,379.95,265.24,379.8,264.94,379.49z M274.36,374.34c1.23,0,2.12-0.41,2.66-1.22c0.54-0.81,0.81-2.28,0.81-4.39
			c0-2.11-0.27-3.58-0.81-4.39c-0.54-0.81-1.42-1.22-2.66-1.22h-1.95v11.22H274.36z"/>
		<path d="M287.81,379.49c-0.3-0.31-0.45-0.78-0.45-1.42v-18.68c0-0.64,0.15-1.11,0.45-1.42c0.3-0.31,0.81-0.46,1.53-0.46h13.66
			c0.7,0,1.18,0.15,1.44,0.45c0.25,0.3,0.38,0.77,0.38,1.44v1.85c0,0.66-0.13,1.14-0.38,1.44s-0.73,0.45-1.44,0.45h-7.72v2.84h4.75
			c0.7,0,1.18,0.15,1.44,0.45c0.25,0.3,0.38,0.78,0.38,1.44v1.78c0,0.66-0.13,1.14-0.38,1.44s-0.73,0.45-1.44,0.45h-4.75v2.84h7.69
			c0.7,0,1.18,0.15,1.44,0.45c0.25,0.3,0.38,0.78,0.38,1.44v1.85c0,0.66-0.13,1.14-0.38,1.44s-0.73,0.45-1.44,0.45h-13.63
			C288.62,379.95,288.11,379.8,287.81,379.49z"/>
		<path d="M100.69,419.09c-0.3-0.31-0.45-0.78-0.45-1.42v-18.68c0-0.64,0.15-1.11,0.45-1.42c0.3-0.31,0.81-0.46,1.53-0.46h13.66
			c0.7,0,1.18,0.15,1.44,0.45s0.38,0.78,0.38,1.44v1.85c0,0.66-0.13,1.14-0.38,1.44s-0.73,0.45-1.44,0.45h-7.72v2.84h4.75
			c0.7,0,1.18,0.15,1.44,0.45c0.25,0.3,0.38,0.78,0.38,1.44v1.78c0,0.66-0.13,1.14-0.38,1.44s-0.73,0.45-1.44,0.45h-4.75v2.84h7.69
			c0.7,0,1.18,0.15,1.44,0.45c0.25,0.3,0.38,0.78,0.38,1.44v1.85c0,0.66-0.13,1.14-0.38,1.44s-0.73,0.45-1.44,0.45h-13.63
			C101.5,419.55,100.98,419.4,100.69,419.09z"/>
		<path d="M119.63,419.09c-0.3-0.31-0.45-0.78-0.45-1.42v-18.71c0-0.64,0.15-1.11,0.45-1.4s0.82-0.45,1.57-0.45h3.14
			c0.46,0,0.82,0.06,1.07,0.18c0.25,0.12,0.5,0.36,0.74,0.71l5.97,8.88v-7.89c0-0.64,0.15-1.11,0.45-1.42
			c0.3-0.31,0.81-0.46,1.53-0.46h3.93c0.75,0,1.27,0.15,1.57,0.45s0.45,0.78,0.45,1.44v18.71c0,0.64-0.15,1.11-0.45,1.4
			s-0.82,0.45-1.57,0.45h-3.13c-0.46,0-0.82-0.06-1.07-0.18c-0.25-0.12-0.5-0.36-0.74-0.71l-5.97-8.88v7.92
			c0,0.64-0.15,1.11-0.45,1.4s-0.82,0.45-1.57,0.45h-3.93C120.44,419.55,119.93,419.4,119.63,419.09z"/>
		<path d="M145.02,417.09c-2.22-1.97-3.33-4.89-3.33-8.76c0-3.89,1.07-6.82,3.22-8.78c2.14-1.96,5.21-2.94,9.19-2.94
			c1.8,0,3.41,0.18,4.82,0.53c1.41,0.35,2.58,0.85,3.53,1.49c0.26,0.2,0.4,0.42,0.4,0.66c0,0.2-0.1,0.47-0.3,0.83l-1.65,2.84
			c-0.18,0.31-0.38,0.46-0.63,0.46c-0.15,0-0.41-0.09-0.76-0.26c-0.62-0.31-1.26-0.55-1.93-0.73c-0.67-0.18-1.46-0.26-2.36-0.26
			c-1.83,0-3.22,0.53-4.19,1.58c-0.97,1.06-1.45,2.58-1.45,4.59c0,1.98,0.53,3.5,1.58,4.57s2.5,1.6,4.32,1.6
			c1.58,0,3.04-0.33,4.36-0.99c0.35-0.18,0.61-0.26,0.76-0.26c0.24,0,0.45,0.15,0.63,0.46l1.65,2.84c0.2,0.35,0.3,0.63,0.3,0.83
			c0,0.24-0.13,0.46-0.4,0.66c-0.95,0.64-2.13,1.13-3.56,1.48s-3.05,0.53-4.85,0.53C150.36,420.05,147.24,419.06,145.02,417.09z"/>
		<path d="M169.8,419.01c-1.63-0.69-2.89-1.69-3.79-3c-0.9-1.31-1.35-2.87-1.35-4.67v-12.34c0-0.64,0.15-1.11,0.45-1.42
			c0.3-0.31,0.81-0.46,1.54-0.46h3.93c0.75,0,1.27,0.15,1.57,0.45s0.45,0.78,0.45,1.44v12.44c0,1.03,0.26,1.8,0.78,2.31
			c0.52,0.51,1.23,0.76,2.13,0.76s1.61-0.25,2.13-0.76c0.52-0.51,0.78-1.28,0.78-2.31v-12.44c0-0.64,0.15-1.11,0.45-1.42
			c0.3-0.31,0.81-0.46,1.54-0.46h3.93c0.75,0,1.27,0.15,1.57,0.45s0.45,0.78,0.45,1.44v12.34c0,1.8-0.45,3.36-1.35,4.67
			c-0.9,1.31-2.17,2.31-3.79,3c-1.63,0.69-3.52,1.04-5.68,1.04S171.43,419.7,169.8,419.01z"/>
		<path d="M188.89,419.09c-0.3-0.31-0.45-0.78-0.45-1.42v-18.68c0-0.64,0.15-1.11,0.45-1.42c0.3-0.31,0.81-0.46,1.53-0.46h13.66
			c0.7,0,1.18,0.15,1.44,0.45s0.38,0.78,0.38,1.44v1.85c0,0.66-0.13,1.14-0.38,1.44s-0.73,0.45-1.44,0.45h-7.72v2.84h4.75
			c0.7,0,1.18,0.15,1.44,0.45c0.25,0.3,0.38,0.78,0.38,1.44v1.78c0,0.66-0.13,1.14-0.38,1.44c-0.25,0.3-0.73,0.45-1.44,0.45h-4.75
			v2.84h7.69c0.7,0,1.18,0.15,1.44,0.45c0.25,0.3,0.38,0.78,0.38,1.44v1.85c0,0.66-0.13,1.14-0.38,1.44
			c-0.25,0.3-0.73,0.45-1.44,0.45h-13.63C189.7,419.55,189.19,419.4,188.89,419.09z"/>
		<path d="M211.58,419.42c-1.72-0.42-3.1-1-4.16-1.75c-0.44-0.31-0.66-0.6-0.66-0.89c0-0.2,0.08-0.41,0.23-0.63l1.91-3
			c0.2-0.29,0.4-0.43,0.59-0.43c0.18,0,0.38,0.08,0.63,0.23c0.79,0.48,1.7,0.86,2.72,1.14c1.02,0.28,2.02,0.41,2.99,0.41
			c0.81,0,1.4-0.11,1.77-0.33c0.36-0.22,0.54-0.56,0.54-1.02c0-0.51-0.24-0.91-0.73-1.22c-0.48-0.31-1.32-0.69-2.51-1.16
			c-2.22-0.86-3.97-1.83-5.25-2.92c-1.28-1.09-1.91-2.54-1.91-4.34c0-2.29,0.8-4.01,2.39-5.16c1.59-1.16,3.75-1.73,6.45-1.73
			c1.89,0,3.5,0.17,4.83,0.49c1.33,0.33,2.49,0.85,3.48,1.55c0.44,0.31,0.66,0.61,0.66,0.89c0,0.2-0.08,0.41-0.23,0.63l-1.91,3
			c-0.2,0.31-0.4,0.46-0.59,0.46c-0.13,0-0.34-0.09-0.63-0.26c-0.53-0.35-1.16-0.64-1.88-0.88c-0.72-0.23-1.51-0.35-2.34-0.35
			c-0.77,0-1.35,0.11-1.75,0.33c-0.4,0.22-0.59,0.57-0.59,1.06c0,0.4,0.14,0.73,0.41,0.99c0.28,0.26,0.62,0.49,1.04,0.68
			c0.42,0.19,1.14,0.49,2.18,0.91c1.65,0.66,2.95,1.29,3.89,1.9c0.95,0.61,1.66,1.33,2.15,2.18c0.48,0.85,0.72,1.92,0.72,3.22
			c0,1.98-0.74,3.58-2.23,4.8c-1.49,1.22-3.7,1.83-6.65,1.83C215.16,420.05,213.3,419.84,211.58,419.42z"/>
		<path d="M232.55,419.09c-0.3-0.31-0.45-0.78-0.45-1.42v-14.95h-4.75c-0.7,0-1.18-0.15-1.44-0.45c-0.25-0.3-0.38-0.78-0.38-1.44
			v-1.85c0-0.66,0.13-1.14,0.38-1.44c0.25-0.3,0.73-0.45,1.44-0.45h17.42c0.7,0,1.18,0.15,1.44,0.45s0.38,0.78,0.38,1.44v1.85
			c0,0.66-0.13,1.14-0.38,1.44s-0.73,0.45-1.44,0.45h-4.75v14.95c0,0.64-0.15,1.11-0.45,1.42c-0.3,0.31-0.82,0.46-1.57,0.46h-3.93
			C233.36,419.55,232.85,419.4,232.55,419.09z"/>
		<path d="M242.8,418.86c0-0.2,0.05-0.44,0.17-0.73l8.22-19.77c0.2-0.46,0.42-0.79,0.68-0.97s0.61-0.28,1.07-0.28h3.6
			c0.46,0,0.82,0.09,1.07,0.28s0.48,0.51,0.68,0.97l8.18,19.77c0.11,0.29,0.17,0.53,0.17,0.73c0,0.46-0.24,0.69-0.73,0.69h-6.2
			c-0.68,0-1.11-0.3-1.29-0.89l-0.79-2.44h-5.84l-0.76,2.44c-0.18,0.59-0.61,0.89-1.29,0.89h-6.2
			C243.04,419.55,242.8,419.32,242.8,418.86z M256,411l-1.29-4.09l-1.29,4.09H256z"/>
		<path d="M270.98,419.42c-1.72-0.42-3.1-1-4.16-1.75c-0.44-0.31-0.66-0.6-0.66-0.89c0-0.2,0.08-0.41,0.23-0.63l1.91-3
			c0.2-0.29,0.4-0.43,0.59-0.43c0.18,0,0.38,0.08,0.63,0.23c0.79,0.48,1.7,0.86,2.72,1.14c1.02,0.28,2.02,0.41,2.99,0.41
			c0.81,0,1.4-0.11,1.77-0.33s0.54-0.56,0.54-1.02c0-0.51-0.24-0.91-0.73-1.22c-0.48-0.31-1.32-0.69-2.51-1.16
			c-2.22-0.86-3.97-1.83-5.25-2.92c-1.28-1.09-1.91-2.54-1.91-4.34c0-2.29,0.8-4.01,2.39-5.16c1.59-1.16,3.75-1.73,6.45-1.73
			c1.89,0,3.5,0.17,4.83,0.49c1.33,0.33,2.49,0.85,3.48,1.55c0.44,0.31,0.66,0.61,0.66,0.89c0,0.2-0.08,0.41-0.23,0.63l-1.91,3
			c-0.2,0.31-0.4,0.46-0.59,0.46c-0.13,0-0.34-0.09-0.63-0.26c-0.53-0.35-1.16-0.64-1.88-0.88c-0.73-0.23-1.51-0.35-2.34-0.35
			c-0.77,0-1.35,0.11-1.75,0.33c-0.4,0.22-0.59,0.57-0.59,1.06c0,0.4,0.14,0.73,0.41,0.99c0.27,0.26,0.62,0.49,1.04,0.68
			c0.42,0.19,1.14,0.49,2.18,0.91c1.65,0.66,2.95,1.29,3.89,1.9c0.95,0.61,1.66,1.33,2.14,2.18s0.73,1.92,0.73,3.22
			c0,1.98-0.74,3.58-2.23,4.8c-1.48,1.22-3.7,1.83-6.65,1.83C274.56,420.05,272.7,419.84,270.98,419.42z"/>
		<path d="M304.69,419.09c-0.3-0.31-0.45-0.78-0.45-1.42v-5.97l-7.69-13.17c-0.13-0.24-0.2-0.47-0.2-0.69
			c0-0.48,0.25-0.73,0.76-0.73h6.2c0.33,0,0.58,0.07,0.76,0.21c0.18,0.14,0.35,0.37,0.53,0.68l3.6,6.47l3.6-6.47
			c0.18-0.31,0.35-0.53,0.53-0.68c0.18-0.14,0.43-0.21,0.76-0.21h6.21c0.51,0,0.76,0.24,0.76,0.73c0,0.22-0.07,0.45-0.2,0.69
			l-7.69,13.17v5.97c0,0.64-0.15,1.11-0.45,1.42c-0.3,0.31-0.82,0.46-1.57,0.46h-3.93C305.5,419.55,304.99,419.4,304.69,419.09z"/>
		<path d="M117.99,456.69c-2.22-1.97-3.33-4.89-3.33-8.76c0-3.85,1.11-6.77,3.33-8.75c2.22-1.98,5.32-2.97,9.31-2.97
			c1.8,0,3.42,0.18,4.85,0.53c1.43,0.35,2.62,0.85,3.56,1.49c0.26,0.2,0.4,0.42,0.4,0.66c0,0.2-0.1,0.47-0.3,0.83l-1.65,2.84
			c-0.18,0.31-0.38,0.46-0.63,0.46c-0.15,0-0.41-0.09-0.76-0.26c-1.32-0.66-2.77-0.99-4.36-0.99c-1.83,0-3.26,0.52-4.31,1.57
			s-1.57,2.58-1.57,4.6c0,2.09,0.44,3.64,1.32,4.64c0.88,1,2.19,1.5,3.93,1.5c0.31,0,0.65-0.03,1.04-0.08s0.7-0.12,0.94-0.18v-3
			h-2.11c-0.7,0-1.18-0.14-1.44-0.41c-0.25-0.27-0.38-0.74-0.38-1.4v-1.81c0-0.66,0.13-1.13,0.38-1.4c0.25-0.27,0.73-0.41,1.44-0.41
			h7.09c0.86,0,1.45,0.19,1.78,0.58c0.33,0.39,0.5,1,0.5,1.83v7.72c0,0.48-0.06,0.85-0.18,1.11s-0.36,0.51-0.71,0.78
			c-2.11,1.52-5.05,2.28-8.81,2.28C123.33,459.65,120.22,458.66,117.99,456.69z"/>
		<path d="M139.13,458.69c-0.3-0.31-0.45-0.78-0.45-1.42v-18.68c0-0.64,0.15-1.11,0.45-1.42c0.3-0.31,0.81-0.46,1.53-0.46h7.89
			c3.3,0,5.7,0.66,7.21,1.96c1.51,1.31,2.26,3.28,2.26,5.92c0,1.58-0.27,2.92-0.81,4.01c-0.54,1.09-1.37,1.94-2.49,2.56l3.07,6.57
			c0.09,0.18,0.13,0.37,0.13,0.59c0,0.24-0.08,0.44-0.25,0.59c-0.16,0.15-0.38,0.23-0.64,0.23h-5.58c-0.35,0-0.63-0.05-0.84-0.15
			c-0.21-0.1-0.36-0.27-0.45-0.51l-2.44-6.14h-1.12v4.92c0,0.64-0.15,1.11-0.45,1.42c-0.3,0.31-0.82,0.46-1.57,0.46h-3.93
			C139.94,459.15,139.43,459,139.13,458.69z M147.86,446.84c0.7,0,1.26-0.19,1.67-0.56c0.41-0.37,0.61-0.93,0.61-1.68
			c0-0.77-0.2-1.34-0.61-1.72c-0.41-0.37-0.96-0.56-1.67-0.56h-2.24v4.52H147.86z"/>
		<path d="M157.53,458.46c0-0.2,0.05-0.44,0.17-0.73l8.22-19.77c0.2-0.46,0.42-0.79,0.68-0.97c0.25-0.19,0.61-0.28,1.07-0.28h3.6
			c0.46,0,0.82,0.09,1.07,0.28c0.25,0.19,0.48,0.51,0.68,0.97l8.18,19.77c0.11,0.29,0.17,0.53,0.17,0.73c0,0.46-0.24,0.69-0.73,0.69
			h-6.2c-0.68,0-1.11-0.3-1.29-0.89l-0.79-2.44h-5.84l-0.76,2.44c-0.18,0.59-0.61,0.89-1.29,0.89h-6.2
			C157.77,459.15,157.53,458.92,157.53,458.46z M170.73,450.61l-1.29-4.09l-1.29,4.09H170.73z"/>
		<path d="M183.45,458.69c-0.3-0.31-0.45-0.78-0.45-1.42v-18.68c0-0.64,0.15-1.11,0.45-1.42c0.3-0.31,0.81-0.46,1.53-0.46h10
			c2.68,0,4.66,0.57,5.92,1.72c1.26,1.14,1.9,2.77,1.9,4.88c0,0.99-0.21,1.86-0.64,2.62c-0.43,0.76-1,1.29-1.7,1.6
			c1.96,0.66,2.94,2.2,2.94,4.62c0,2.07-0.73,3.75-2.19,5.05c-1.46,1.3-3.61,1.95-6.45,1.95h-9.77
			C184.26,459.15,183.75,459,183.45,458.69z M193.4,445.19c1.01,0,1.52-0.48,1.52-1.45c0-0.97-0.51-1.45-1.52-1.45h-2.51v2.9H193.4z
			 M193.96,453.58c0.46,0,0.84-0.15,1.12-0.45s0.43-0.7,0.43-1.2c0-0.53-0.14-0.94-0.41-1.22c-0.28-0.29-0.65-0.43-1.14-0.43h-3.07
			v3.3H193.96z"/>
		<path d="M202.24,458.46c0-0.2,0.05-0.44,0.17-0.73l8.22-19.77c0.2-0.46,0.42-0.79,0.68-0.97s0.61-0.28,1.07-0.28h3.6
			c0.46,0,0.82,0.09,1.07,0.28s0.48,0.51,0.68,0.97l8.18,19.77c0.11,0.29,0.17,0.53,0.17,0.73c0,0.46-0.24,0.69-0.73,0.69h-6.2
			c-0.68,0-1.11-0.3-1.29-0.89l-0.79-2.44h-5.84l-0.76,2.44c-0.18,0.59-0.61,0.89-1.29,0.89h-6.2
			C202.48,459.15,202.24,458.92,202.24,458.46z M215.44,450.61l-1.29-4.09l-1.29,4.09H215.44z"/>
		<path d="M228.58,456.69c-2.22-1.97-3.33-4.89-3.33-8.76c0-3.89,1.07-6.82,3.22-8.78c2.15-1.96,5.21-2.94,9.19-2.94
			c1.8,0,3.41,0.18,4.82,0.53c1.41,0.35,2.58,0.85,3.53,1.49c0.26,0.2,0.4,0.42,0.4,0.66c0,0.2-0.1,0.47-0.3,0.83l-1.65,2.84
			c-0.18,0.31-0.39,0.46-0.63,0.46c-0.15,0-0.41-0.09-0.76-0.26c-0.62-0.31-1.26-0.55-1.93-0.73c-0.67-0.18-1.46-0.26-2.36-0.26
			c-1.83,0-3.22,0.53-4.19,1.58c-0.97,1.06-1.45,2.58-1.45,4.59c0,1.98,0.53,3.5,1.58,4.57c1.06,1.07,2.5,1.6,4.32,1.6
			c1.58,0,3.04-0.33,4.36-0.99c0.35-0.18,0.6-0.26,0.76-0.26c0.24,0,0.45,0.15,0.63,0.46l1.65,2.84c0.2,0.35,0.3,0.63,0.3,0.83
			c0,0.24-0.13,0.46-0.4,0.66c-0.95,0.64-2.13,1.13-3.56,1.48c-1.43,0.35-3.05,0.53-4.85,0.53
			C233.91,459.65,230.8,458.66,228.58,456.69z"/>
		<path d="M248.82,458.69c-0.3-0.31-0.45-0.78-0.45-1.42v-18.68c0-0.64,0.15-1.11,0.45-1.42c0.3-0.31,0.81-0.46,1.54-0.46h3.93
			c0.75,0,1.27,0.15,1.57,0.45s0.45,0.78,0.45,1.44v18.68c0,0.64-0.15,1.11-0.45,1.42c-0.3,0.31-0.82,0.46-1.57,0.46h-3.93
			C249.63,459.15,249.12,459,248.82,458.69z"/>
		<path d="M260.98,456.59c-2.02-2.03-3.04-4.92-3.04-8.66s1.01-6.63,3.04-8.66c2.02-2.03,4.99-3.05,8.91-3.05s6.89,1.02,8.91,3.05
			c2.02,2.04,3.04,4.92,3.04,8.66s-1.01,6.63-3.04,8.66c-2.02,2.04-4.99,3.05-8.91,3.05S263.01,458.63,260.98,456.59z
			 M272.99,452.57c0.64-1.02,0.96-2.57,0.96-4.64c0-2.09-0.32-3.64-0.96-4.65c-0.64-1.01-1.67-1.52-3.1-1.52s-2.46,0.51-3.1,1.52
			c-0.64,1.01-0.96,2.56-0.96,4.65c0,2.07,0.32,3.61,0.96,4.64c0.64,1.02,1.67,1.54,3.1,1.54S272.36,453.59,272.99,452.57z
			 M266.39,433.94c0-0.18,0.03-0.36,0.1-0.56l1.39-3.83c0.18-0.51,0.38-0.85,0.63-1.02c0.24-0.18,0.69-0.26,1.35-0.26h4.72
			c0.46,0,0.83,0.08,1.09,0.25s0.4,0.4,0.4,0.71c0,0.26-0.09,0.54-0.26,0.82l-2.11,3.56c-0.31,0.53-0.61,0.87-0.89,1.02
			c-0.29,0.15-0.8,0.23-1.55,0.23h-3.53C266.83,434.86,266.39,434.56,266.39,433.94z"/>
		<path d="M283.93,458.69c-0.3-0.31-0.45-0.78-0.45-1.42v-18.71c0-0.64,0.15-1.11,0.45-1.4s0.82-0.45,1.57-0.45h3.13
			c0.46,0,0.82,0.06,1.07,0.18c0.25,0.12,0.5,0.36,0.74,0.71l5.97,8.88v-7.89c0-0.64,0.15-1.11,0.45-1.42
			c0.3-0.31,0.81-0.46,1.53-0.46h3.93c0.75,0,1.27,0.15,1.57,0.45s0.45,0.78,0.45,1.44v18.71c0,0.64-0.15,1.11-0.45,1.4
			s-0.82,0.45-1.57,0.45h-3.13c-0.46,0-0.82-0.06-1.07-0.18c-0.25-0.12-0.5-0.36-0.74-0.71l-5.97-8.88v7.92
			c0,0.64-0.15,1.11-0.45,1.4s-0.82,0.45-1.57,0.45h-3.93C284.74,459.15,284.23,459,283.93,458.69z"/>
		<path d="M98.28,498.29c-0.3-0.31-0.45-0.78-0.45-1.42v-18.68c0-0.64,0.15-1.11,0.45-1.42c0.3-0.31,0.81-0.46,1.53-0.46h7.59
			c7.77,0,11.65,3.74,11.65,11.22c0,3.7-1,6.49-2.99,8.38c-1.99,1.89-4.88,2.84-8.66,2.84h-7.59
			C99.09,498.75,98.57,498.6,98.28,498.29z M107.7,493.14c1.23,0,2.12-0.41,2.66-1.22c0.54-0.81,0.81-2.28,0.81-4.39
			c0-2.11-0.27-3.58-0.81-4.39c-0.54-0.81-1.42-1.22-2.66-1.22h-1.95v11.22H107.7z"/>
		<path d="M121.15,498.29c-0.3-0.31-0.45-0.78-0.45-1.42v-18.68c0-0.64,0.15-1.11,0.45-1.42c0.3-0.31,0.81-0.46,1.53-0.46h13.66
			c0.71,0,1.18,0.15,1.44,0.45c0.25,0.3,0.38,0.78,0.38,1.44v1.85c0,0.66-0.13,1.14-0.38,1.44c-0.25,0.3-0.73,0.45-1.44,0.45h-7.72
			v2.84h4.75c0.7,0,1.18,0.15,1.44,0.45c0.25,0.3,0.38,0.78,0.38,1.44v1.78c0,0.66-0.13,1.14-0.38,1.44
			c-0.25,0.3-0.73,0.45-1.44,0.45h-4.75v2.84h7.69c0.7,0,1.18,0.15,1.44,0.45c0.25,0.3,0.38,0.78,0.38,1.44v1.85
			c0,0.66-0.13,1.14-0.38,1.44s-0.73,0.45-1.44,0.45h-13.63C121.96,498.75,121.44,498.6,121.15,498.29z"/>
		<path d="M149.99,498.29c-0.3-0.31-0.45-0.78-0.45-1.42v-18.68c0-0.64,0.15-1.11,0.45-1.42c0.3-0.31,0.81-0.46,1.53-0.46h3.93
			c0.75,0,1.27,0.15,1.57,0.45s0.45,0.78,0.45,1.44v14.95h7.69c0.7,0,1.18,0.15,1.44,0.45c0.25,0.3,0.38,0.78,0.38,1.44v1.85
			c0,0.66-0.13,1.14-0.38,1.44s-0.73,0.45-1.44,0.45h-13.63C150.8,498.75,150.28,498.6,149.99,498.29z"/>
		<path d="M168.4,498.29c-0.3-0.31-0.45-0.78-0.45-1.42v-18.68c0-0.64,0.15-1.11,0.45-1.42c0.3-0.31,0.81-0.46,1.53-0.46h3.93
			c0.75,0,1.27,0.15,1.57,0.45s0.45,0.78,0.45,1.44v14.95h7.69c0.7,0,1.18,0.15,1.44,0.45c0.25,0.3,0.38,0.78,0.38,1.44v1.85
			c0,0.66-0.13,1.14-0.38,1.44s-0.73,0.45-1.44,0.45h-13.63C169.21,498.75,168.7,498.6,168.4,498.29z"/>
		<path d="M185.21,498.06c0-0.2,0.05-0.44,0.17-0.73l8.22-19.77c0.2-0.46,0.42-0.79,0.68-0.97c0.25-0.19,0.61-0.28,1.07-0.28h3.6
			c0.46,0,0.82,0.09,1.07,0.28c0.25,0.19,0.48,0.51,0.68,0.97l8.18,19.77c0.11,0.29,0.17,0.53,0.17,0.73c0,0.46-0.24,0.69-0.73,0.69
			h-6.2c-0.68,0-1.11-0.3-1.29-0.89l-0.79-2.44h-5.84l-0.76,2.44c-0.18,0.59-0.61,0.89-1.29,0.89h-6.2
			C185.46,498.75,185.21,498.52,185.21,498.06z M198.41,490.21l-1.29-4.09l-1.29,4.09H198.41z"/>
		<path d="M210.31,498.29c-0.3-0.31-0.45-0.78-0.45-1.42v-18.71c0-0.64,0.15-1.11,0.45-1.4s0.82-0.45,1.57-0.45h3.79
			c0.48,0,0.87,0.06,1.16,0.18c0.29,0.12,0.51,0.36,0.66,0.71l3.86,9.67l3.86-9.67c0.15-0.35,0.37-0.59,0.66-0.71
			c0.29-0.12,0.67-0.18,1.15-0.18h3.79c0.75,0,1.27,0.15,1.57,0.45s0.45,0.76,0.45,1.4v18.71c0,0.64-0.15,1.11-0.45,1.42
			c-0.3,0.31-0.81,0.46-1.54,0.46h-3.17c-0.73,0-1.24-0.15-1.55-0.46c-0.31-0.31-0.46-0.78-0.46-1.42v-9.01l-1.95,4.49
			c-0.26,0.64-0.55,1.09-0.86,1.37c-0.31,0.28-0.81,0.41-1.52,0.41s-1.21-0.14-1.52-0.41c-0.31-0.28-0.59-0.73-0.86-1.37l-1.95-4.49
			v9.01c0,0.64-0.15,1.11-0.45,1.42c-0.3,0.31-0.82,0.46-1.57,0.46h-3.17C211.12,498.75,210.61,498.6,210.31,498.29z"/>
		<path d="M233.66,498.06c0-0.2,0.05-0.44,0.17-0.73l8.22-19.77c0.2-0.46,0.42-0.79,0.68-0.97s0.61-0.28,1.07-0.28h3.6
			c0.46,0,0.82,0.09,1.07,0.28s0.48,0.51,0.68,0.97l8.18,19.77c0.11,0.29,0.17,0.53,0.17,0.73c0,0.46-0.24,0.69-0.73,0.69h-6.2
			c-0.68,0-1.11-0.3-1.29-0.89l-0.79-2.44h-5.84l-0.76,2.44c-0.18,0.59-0.61,0.89-1.29,0.89h-6.2
			C233.9,498.75,233.66,498.52,233.66,498.06z M246.86,490.21l-1.29-4.09l-1.29,4.09H246.86z"/>
		<path d="M259.58,498.29c-0.3-0.31-0.45-0.78-0.45-1.42v-18.68c0-0.64,0.15-1.11,0.45-1.42c0.3-0.31,0.81-0.46,1.54-0.46h7.59
			c7.77,0,11.65,3.74,11.65,11.22c0,3.7-1,6.49-2.99,8.38c-1.99,1.89-4.88,2.84-8.66,2.84h-7.59
			C260.39,498.75,259.88,498.6,259.58,498.29z M269,493.14c1.23,0,2.12-0.41,2.66-1.22c0.54-0.81,0.81-2.28,0.81-4.39
			c0-2.11-0.27-3.58-0.81-4.39c-0.54-0.81-1.42-1.22-2.66-1.22h-1.95v11.22H269z"/>
		<path d="M279.86,498.06c0-0.2,0.05-0.44,0.16-0.73l8.22-19.77c0.2-0.46,0.42-0.79,0.68-0.97c0.25-0.19,0.61-0.28,1.07-0.28h3.6
			c0.46,0,0.82,0.09,1.07,0.28s0.48,0.51,0.68,0.97l8.18,19.77c0.11,0.29,0.17,0.53,0.17,0.73c0,0.46-0.24,0.69-0.73,0.69h-6.2
			c-0.68,0-1.11-0.3-1.29-0.89l-0.79-2.44h-5.84l-0.76,2.44c-0.18,0.59-0.61,0.89-1.29,0.89h-6.2
			C280.1,498.75,279.86,498.52,279.86,498.06z M293.06,490.21l-1.29-4.09l-1.29,4.09H293.06z"/>
		<path d="M308.04,498.62c-1.72-0.42-3.1-1-4.16-1.75c-0.44-0.31-0.66-0.6-0.66-0.89c0-0.2,0.08-0.41,0.23-0.63l1.91-3
			c0.2-0.29,0.4-0.43,0.59-0.43c0.18,0,0.38,0.08,0.63,0.23c0.79,0.48,1.7,0.86,2.72,1.14c1.02,0.28,2.02,0.41,2.99,0.41
			c0.81,0,1.4-0.11,1.77-0.33c0.36-0.22,0.54-0.56,0.54-1.02c0-0.51-0.24-0.91-0.73-1.22c-0.48-0.31-1.32-0.69-2.51-1.16
			c-2.22-0.86-3.97-1.83-5.25-2.92c-1.28-1.09-1.91-2.54-1.91-4.34c0-2.29,0.8-4.01,2.39-5.16c1.59-1.16,3.75-1.73,6.45-1.73
			c1.89,0,3.5,0.17,4.83,0.49c1.33,0.33,2.49,0.85,3.48,1.55c0.44,0.31,0.66,0.61,0.66,0.89c0,0.2-0.08,0.41-0.23,0.63l-1.91,3
			c-0.2,0.31-0.4,0.46-0.59,0.46c-0.13,0-0.34-0.09-0.63-0.26c-0.53-0.35-1.16-0.64-1.88-0.88c-0.72-0.23-1.51-0.35-2.34-0.35
			c-0.77,0-1.35,0.11-1.75,0.33c-0.4,0.22-0.59,0.57-0.59,1.06c0,0.4,0.14,0.73,0.41,0.99c0.28,0.26,0.62,0.49,1.04,0.68
			c0.42,0.19,1.14,0.49,2.18,0.91c1.65,0.66,2.95,1.29,3.89,1.9c0.95,0.61,1.66,1.33,2.15,2.18c0.48,0.85,0.72,1.92,0.72,3.22
			c0,1.98-0.74,3.58-2.23,4.8c-1.49,1.22-3.7,1.83-6.65,1.83C311.62,499.25,309.76,499.04,308.04,498.62z"/>
	</g>
	<polygon class="st6" points="201.76,88.93 215.23,116.22 245.34,120.59 223.55,141.83 228.7,171.83 201.76,157.67 174.83,171.83 
		179.97,141.83 158.18,120.59 188.29,116.22 	"/>
	<polygon class="st6" points="139.58,172.15 148.32,189.86 167.86,192.7 153.72,206.48 157.06,225.94 139.58,216.75 122.11,225.94 
		125.45,206.48 111.31,192.7 130.85,189.86 	"/>
	<polygon class="st6" points="269.68,172.15 278.42,189.86 297.95,192.7 283.82,206.48 287.15,225.94 269.68,216.75 252.2,225.94 
		255.54,206.48 241.4,192.7 260.94,189.86 	"/>
	<circle class="st7" cx="202.77" cy="205.97" r="121.96"/>
	<circle class="st1" cx="201.82" cy="192.58" r="121.96"/>
	<g>
		<path class="st1" d="M185.17,636.07c-3.43-0.78-6.17-1.87-8.21-3.29c-0.58-0.44-0.88-0.92-0.88-1.46c0-0.44,0.22-1.05,0.66-1.82
			l3.65-6.28c0.39-0.68,0.85-1.02,1.39-1.02c0.34,0,0.9,0.2,1.68,0.58c1.27,0.63,2.81,1.16,4.64,1.57c1.82,0.41,3.64,0.62,5.44,0.62
			c2.43,0,4.25-0.37,5.44-1.09c1.19-0.73,1.79-1.85,1.79-3.36c0-2.34-1.58-3.5-4.75-3.5h-5.62c-1.61,0-2.74-0.34-3.39-1.02
			c-0.66-0.68-0.99-1.73-0.99-3.14v-3.94c0-1.41,0.33-2.46,0.99-3.14c0.66-0.68,1.79-1.02,3.39-1.02h4.45c1.61,0,2.77-0.29,3.5-0.88
			s1.1-1.48,1.1-2.7c0-2.34-2.02-3.5-6.06-3.5c-3.26,0-6.35,0.73-9.27,2.19c-0.78,0.39-1.34,0.58-1.68,0.58
			c-0.54,0-1-0.34-1.39-1.02l-3.65-6.28c-0.44-0.78-0.66-1.39-0.66-1.83c0-0.54,0.29-1.02,0.88-1.46c2.09-1.41,4.7-2.51,7.81-3.29
			c3.11-0.78,6.67-1.17,10.66-1.17c4.23,0,7.92,0.62,11.06,1.86c3.14,1.24,5.55,3,7.23,5.29c1.68,2.29,2.52,4.99,2.52,8.1
			c0,4.28-1.49,7.59-4.45,9.93c3.84,2.24,5.77,5.79,5.77,10.66c0,4.92-1.87,8.81-5.62,11.68c-3.75,2.87-9.15,4.31-16.21,4.31
			C192.34,637.24,188.6,636.85,185.17,636.07z"/>
	</g>
	<rect x="145.44" y="119.6" class="st32" width="101.56" height="128.51"/>
	<g>
		<rect x="141.73" y="119.6" class="st1" width="101.56" height="128.51"/>
		<g>
			<g>
				<rect x="148.12" y="154.36" class="st18" width="68.3" height="13.51"/>
				<rect x="148.12" y="176.82" class="st18" width="68.3" height="13.51"/>
				<rect x="148.12" y="199.28" class="st18" width="68.3" height="13.51"/>
				<rect x="148.12" y="221.73" class="st18" width="68.3" height="13.51"/>
			</g>
			<g>
				<rect x="223.31" y="154.36" class="st18" width="13.59" height="13.51"/>
				<rect x="223.31" y="176.82" class="st18" width="13.59" height="13.51"/>
				<rect x="223.31" y="199.28" class="st18" width="13.59" height="13.51"/>
				<rect x="223.31" y="221.73" class="st33" width="13.59" height="13.51"/>
			</g>
		</g>
		<g>
			<g>
				<path class="st5" d="M154.44,138.86c-0.13-0.14-0.2-0.35-0.2-0.65v-8.49c0-0.29,0.07-0.5,0.2-0.65c0.13-0.14,0.37-0.21,0.7-0.21
					h6.21c0.32,0,0.54,0.07,0.65,0.2c0.12,0.14,0.17,0.35,0.17,0.65v0.84c0,0.3-0.06,0.52-0.17,0.65c-0.11,0.14-0.33,0.2-0.65,0.2
					h-3.51v1.29H160c0.32,0,0.54,0.07,0.65,0.2c0.12,0.14,0.17,0.35,0.17,0.65v0.81c0,0.3-0.06,0.52-0.17,0.65
					c-0.12,0.13-0.33,0.2-0.65,0.2h-2.16v1.29h3.5c0.32,0,0.54,0.07,0.65,0.2c0.12,0.14,0.17,0.35,0.17,0.65v0.84
					c0,0.3-0.06,0.52-0.17,0.65c-0.12,0.14-0.33,0.2-0.65,0.2h-6.2C154.81,139.07,154.58,139,154.44,138.86z"/>
				<path class="st5" d="M163.05,138.86c-0.13-0.14-0.2-0.35-0.2-0.65v-8.5c0-0.29,0.07-0.5,0.2-0.64c0.13-0.13,0.37-0.2,0.71-0.2
					h1.42c0.21,0,0.37,0.03,0.49,0.08c0.12,0.06,0.23,0.16,0.34,0.32l2.71,4.04v-3.59c0-0.29,0.07-0.5,0.2-0.65
					c0.13-0.14,0.37-0.21,0.7-0.21h1.79c0.34,0,0.58,0.07,0.71,0.2c0.13,0.14,0.2,0.35,0.2,0.65v8.51c0,0.29-0.07,0.5-0.2,0.64
					c-0.13,0.14-0.37,0.2-0.71,0.2h-1.42c-0.21,0-0.37-0.03-0.49-0.08c-0.12-0.05-0.23-0.16-0.34-0.32l-2.71-4.04v3.6
					c0,0.29-0.07,0.5-0.2,0.64c-0.14,0.14-0.37,0.2-0.71,0.2h-1.79C163.42,139.07,163.19,139,163.05,138.86z"/>
				<path class="st5" d="M174.59,137.95c-1.01-0.89-1.52-2.22-1.52-3.98c0-1.77,0.49-3.1,1.46-3.99s2.37-1.33,4.18-1.33
					c0.82,0,1.55,0.08,2.19,0.24c0.64,0.16,1.17,0.39,1.61,0.68c0.12,0.09,0.18,0.19,0.18,0.3c0,0.09-0.04,0.22-0.13,0.38
					l-0.75,1.29c-0.08,0.14-0.17,0.21-0.29,0.21c-0.07,0-0.19-0.04-0.34-0.12c-0.28-0.14-0.57-0.25-0.88-0.33
					c-0.3-0.08-0.66-0.12-1.07-0.12c-0.83,0-1.46,0.24-1.91,0.72c-0.44,0.48-0.66,1.18-0.66,2.08c0,0.9,0.24,1.59,0.72,2.08
					c0.48,0.49,1.13,0.73,1.96,0.73c0.72,0,1.38-0.15,1.98-0.45c0.16-0.08,0.28-0.12,0.35-0.12c0.11,0,0.2,0.07,0.29,0.21l0.75,1.29
					c0.09,0.16,0.13,0.29,0.13,0.38c0,0.11-0.06,0.21-0.18,0.3c-0.43,0.29-0.97,0.52-1.62,0.67c-0.65,0.16-1.39,0.24-2.21,0.24
					C177.02,139.3,175.6,138.85,174.59,137.95z"/>
				<path class="st5" d="M185.86,138.82c-0.74-0.31-1.32-0.77-1.72-1.36c-0.41-0.6-0.62-1.3-0.62-2.12v-5.61
					c0-0.29,0.07-0.5,0.2-0.65c0.13-0.14,0.37-0.21,0.7-0.21h1.79c0.34,0,0.58,0.07,0.71,0.2c0.13,0.14,0.2,0.35,0.2,0.65v5.66
					c0,0.47,0.12,0.82,0.35,1.05c0.24,0.23,0.56,0.35,0.97,0.35s0.73-0.11,0.97-0.35c0.23-0.23,0.35-0.58,0.35-1.05v-5.66
					c0-0.29,0.07-0.5,0.2-0.65c0.13-0.14,0.37-0.21,0.7-0.21h1.79c0.34,0,0.58,0.07,0.71,0.2c0.13,0.14,0.2,0.35,0.2,0.65v5.61
					c0,0.82-0.21,1.53-0.62,2.12c-0.41,0.59-0.99,1.05-1.72,1.36c-0.74,0.31-1.6,0.47-2.58,0.47
					C187.46,139.3,186.6,139.14,185.86,138.82z"/>
				<path class="st5" d="M194.54,138.86c-0.13-0.14-0.2-0.35-0.2-0.65v-8.49c0-0.29,0.07-0.5,0.2-0.65c0.13-0.14,0.37-0.21,0.7-0.21
					h6.21c0.32,0,0.54,0.07,0.65,0.2c0.12,0.14,0.17,0.35,0.17,0.65v0.84c0,0.3-0.06,0.52-0.17,0.65c-0.11,0.14-0.33,0.2-0.65,0.2
					h-3.51v1.29h2.16c0.32,0,0.54,0.07,0.65,0.2c0.12,0.14,0.17,0.35,0.17,0.65v0.81c0,0.3-0.06,0.52-0.17,0.65
					c-0.12,0.13-0.33,0.2-0.65,0.2h-2.16v1.29h3.5c0.32,0,0.54,0.07,0.65,0.2c0.12,0.14,0.17,0.35,0.17,0.65v0.84
					c0,0.3-0.06,0.52-0.17,0.65c-0.12,0.14-0.33,0.2-0.65,0.2h-6.2C194.9,139.07,194.67,139,194.54,138.86z"/>
				<path class="st5" d="M204.85,139.01c-0.78-0.19-1.41-0.46-1.89-0.79c-0.2-0.14-0.3-0.27-0.3-0.4c0-0.09,0.04-0.19,0.1-0.29
					l0.87-1.37c0.09-0.13,0.18-0.19,0.27-0.19c0.08,0,0.17,0.04,0.28,0.1c0.36,0.22,0.77,0.39,1.24,0.52s0.92,0.19,1.36,0.19
					c0.37,0,0.64-0.05,0.8-0.15c0.16-0.1,0.25-0.26,0.25-0.47c0-0.23-0.11-0.41-0.33-0.55s-0.6-0.31-1.14-0.53
					c-1.01-0.39-1.81-0.83-2.39-1.33s-0.87-1.15-0.87-1.97c0-1.04,0.36-1.82,1.09-2.35c0.72-0.52,1.7-0.79,2.93-0.79
					c0.86,0,1.59,0.07,2.2,0.22c0.61,0.15,1.13,0.39,1.58,0.71c0.2,0.14,0.3,0.28,0.3,0.41c0,0.09-0.04,0.19-0.11,0.28l-0.87,1.37
					c-0.09,0.14-0.18,0.21-0.27,0.21c-0.06,0-0.16-0.04-0.29-0.12c-0.24-0.16-0.52-0.29-0.85-0.4s-0.69-0.16-1.07-0.16
					c-0.35,0-0.62,0.05-0.79,0.15s-0.27,0.26-0.27,0.48c0,0.18,0.06,0.33,0.19,0.45c0.13,0.12,0.28,0.22,0.47,0.31
					c0.19,0.08,0.52,0.22,0.99,0.41c0.75,0.3,1.34,0.59,1.77,0.86c0.43,0.28,0.75,0.61,0.97,0.99c0.22,0.39,0.33,0.87,0.33,1.46
					c0,0.9-0.34,1.63-1.01,2.18c-0.67,0.55-1.68,0.83-3.02,0.83C206.47,139.3,205.63,139.2,204.85,139.01z"/>
				<path class="st5" d="M214.38,138.86c-0.13-0.14-0.2-0.35-0.2-0.65v-6.79h-2.16c-0.32,0-0.54-0.07-0.65-0.2
					c-0.12-0.13-0.17-0.35-0.17-0.65v-0.84c0-0.3,0.06-0.52,0.17-0.65c0.11-0.13,0.33-0.2,0.65-0.2h7.92c0.32,0,0.54,0.07,0.65,0.2
					c0.12,0.14,0.17,0.35,0.17,0.65v0.84c0,0.3-0.06,0.52-0.17,0.65c-0.12,0.14-0.33,0.2-0.65,0.2h-2.16v6.79
					c0,0.29-0.07,0.5-0.2,0.65s-0.37,0.21-0.71,0.21h-1.79C214.75,139.07,214.52,139,214.38,138.86z"/>
				<path class="st5" d="M219.04,138.76c0-0.09,0.03-0.2,0.08-0.33l3.74-8.98c0.09-0.21,0.19-0.36,0.31-0.44
					c0.11-0.08,0.28-0.13,0.49-0.13h1.63c0.21,0,0.37,0.04,0.49,0.13c0.12,0.08,0.22,0.23,0.31,0.44l3.72,8.98
					c0.05,0.13,0.07,0.24,0.07,0.33c0,0.21-0.11,0.31-0.33,0.31h-2.82c-0.31,0-0.5-0.13-0.58-0.4l-0.36-1.11h-2.66l-0.34,1.11
					c-0.08,0.27-0.28,0.4-0.58,0.4h-2.82C219.15,139.07,219.04,138.97,219.04,138.76z M225.04,135.19l-0.58-1.86l-0.58,1.86H225.04z
					"/>
				<path class="st5" d="M231.85,139.01c-0.78-0.19-1.41-0.46-1.89-0.79c-0.2-0.14-0.3-0.27-0.3-0.4c0-0.09,0.04-0.19,0.1-0.29
					l0.87-1.37c0.09-0.13,0.18-0.19,0.27-0.19c0.08,0,0.17,0.04,0.28,0.1c0.36,0.22,0.77,0.39,1.24,0.52s0.92,0.19,1.36,0.19
					c0.37,0,0.64-0.05,0.8-0.15c0.16-0.1,0.25-0.26,0.25-0.47c0-0.23-0.11-0.41-0.33-0.55s-0.6-0.31-1.14-0.53
					c-1.01-0.39-1.81-0.83-2.39-1.33s-0.87-1.15-0.87-1.97c0-1.04,0.36-1.82,1.09-2.35c0.72-0.52,1.7-0.79,2.93-0.79
					c0.86,0,1.59,0.07,2.2,0.22c0.61,0.15,1.13,0.39,1.58,0.71c0.2,0.14,0.3,0.28,0.3,0.41c0,0.09-0.04,0.19-0.11,0.28l-0.87,1.37
					c-0.09,0.14-0.18,0.21-0.27,0.21c-0.06,0-0.16-0.04-0.29-0.12c-0.24-0.16-0.52-0.29-0.85-0.4s-0.69-0.16-1.07-0.16
					c-0.35,0-0.62,0.05-0.79,0.15s-0.27,0.26-0.27,0.48c0,0.18,0.06,0.33,0.19,0.45c0.13,0.12,0.28,0.22,0.47,0.31
					c0.19,0.08,0.52,0.22,0.99,0.41c0.75,0.3,1.34,0.59,1.77,0.86c0.43,0.28,0.75,0.61,0.97,0.99c0.22,0.39,0.33,0.87,0.33,1.46
					c0,0.9-0.34,1.63-1.01,2.18c-0.67,0.55-1.68,0.83-3.02,0.83C233.47,139.3,232.63,139.2,231.85,139.01z"/>
			</g>
		</g>
		<g>
			<circle id="XMLID_25_" class="st3" cx="245.3" cy="233.48" r="34.48"/>
			<g id="XMLID_1_">
				<path id="XMLID_24_" class="st4" d="M254.9,232.12c0.45-1.09,0.68-1.96,0.72-2.19c-0.04-0.01-0.08-0.03-0.1-0.06
					c-0.07-0.11,0.14-1.22,0.04-1.3c-0.01-0.01-0.02-0.02-0.04-0.02c-0.13,0.4-0.36,0.72-0.63,0.95
					C254.9,230.36,254.9,231.24,254.9,232.12z"/>
				<path id="XMLID_23_" class="st21" d="M253.34,229.94c-0.51-0.36-0.49,4.8-2.61,6.85c-0.15,0.15-0.31,0.29-0.47,0.43
					c-0.16,0.14-0.33,0.27-0.5,0.4c0,0.07,0,0.14,0,0.22c1.95-0.57,3.33-2.3,4.19-3.79c0.38-0.67,0.69-1.33,0.94-1.92
					c0.01-0.89,0.01-1.77,0-2.62c-0.16,0.14-0.34,0.24-0.51,0.3C254.1,230.1,253.75,230.21,253.34,229.94z"/>
				<path id="XMLID_22_" class="st21" d="M236.89,243.69c-0.05,0.03-0.22,0.12-0.37,0.37C236.62,243.96,236.75,243.84,236.89,243.69
					z"/>
				<path id="XMLID_21_" class="st21" d="M249.78,238.11c0.05,1.14,0.28,2.63,1.21,3.99c0.31-0.27,0.47-0.33,0.59-0.14
					c0.69,1.16,1.4,1.78,1.8,2.17c-0.2-0.35-0.43-0.44-0.43-0.44s0.49-0.19,1.34,0.53c0.2,0.17,0.54,0.4,0.92,0.72
					c-0.44-2.21-0.35-7.21-0.32-12.14c-0.2,0.45-0.43,0.91-0.7,1.38C252.96,236.3,251.46,237.64,249.78,238.11z"/>
				<path id="XMLID_20_" class="st21" d="M236.9,243.68c0.39-0.39,0.88-0.93,1.35-1.73c0.11-0.19,0.29-0.13,0.6,0.16
					c1.08-1.57,1.22-3.32,1.23-4.49c-0.33-0.26-0.66-0.54-0.96-0.83c-2.12-2.04-2.1-7.21-2.61-6.85c-0.4,0.27-0.74,0.17-1.04-0.12
					c-0.1-0.03-0.21-0.08-0.32-0.14c-0.02,5.64,0.22,12.26-0.27,15.07c0.28-0.22,0.52-0.39,0.68-0.52
					C236.38,243.53,236.85,243.67,236.9,243.68z"/>
				<path id="XMLID_19_" class="st22" d="M249.34,237.94c0.15-0.03,0.29-0.06,0.43-0.11c0-0.07,0-0.15,0-0.22
					C249.63,237.73,249.49,237.84,249.34,237.94z"/>
				<path id="XMLID_18_" class="st22" d="M244.85,247.53c0.04,0.03,0.05,0.06,0.06,0.1c0.01-0.04,0.02-0.07,0.06-0.1
					c3.7-2.83,5.27-4.77,6.02-5.44c-0.93-1.36-1.16-2.85-1.21-3.99c-0.31,0.09-0.62,0.14-0.93,0.17c-0.09,0.39-0.49,1.11-1.85,1.1
					c-0.28,0-0.52-0.04-0.71-0.09c-0.21,0.04-0.41,0.07-0.62,0.09c-0.63,0.06-1.27,0.04-1.9-0.05c-0.51-0.08-1.02-0.22-1.5-0.41
					c-0.54-0.21-1.06-0.49-1.54-0.81c-0.22-0.15-0.43-0.31-0.64-0.48c-0.01,1.17-0.15,2.92-1.23,4.49
					C239.61,242.79,241.19,244.72,244.85,247.53z"/>
				<path id="XMLID_17_" class="st22" d="M244.91,247.72c0,0.01,0,0.01,0,0.02h0.01C244.91,247.73,244.91,247.72,244.91,247.72z"/>
				<path id="XMLID_16_" class="st23" d="M242.27,238.91c0.48,0.19,0.99,0.33,1.5,0.41c0.62,0.1,1.27,0.12,1.9,0.05
					c0.21-0.02,0.41-0.06,0.62-0.09c-0.91-0.26-0.97-0.97-0.99-1.21c0.03-0.29,0.14-1.28,1.73-1.27c1.45,0.02,1.79,0.84,1.84,1.21
					c0.16-0.01,0.32-0.04,0.48-0.07c0.15-0.1,0.29-0.21,0.43-0.32c0.17-0.13,0.34-0.26,0.5-0.4c0.16-0.14,0.31-0.28,0.47-0.43
					c2.12-2.04,2.1-7.21,2.61-6.85c0.4,0.27,0.75,0.17,1.05-0.14c-0.25,0.09-0.48,0.09-0.66-0.01c-0.29-0.18,0.01-1.62,0.22-3.84
					c-0.03,0.01-0.06,0.02-0.09,0.04c-0.4,0.26-0.9-3.18-2.84-4.79c-1.94-1.61-2.09-2.69-2.09-2.69c-1.94,0.22-3.83,0.92-7.02,3.46
					c-2.53,2.01-4.78,4.01-5.8,4.28c-0.09,0.02-0.16-0.08-0.23-0.21c0.21,2.17,0.5,3.58,0.21,3.75c-0.17,0.1-0.39,0.1-0.62,0.03
					c0.29,0.29,0.64,0.39,1.04,0.12c0.51-0.36,0.49,4.8,2.61,6.85c0.31,0.3,0.63,0.57,0.96,0.83c0.21,0.17,0.42,0.33,0.64,0.48
					C241.21,238.42,241.72,238.7,242.27,238.91z"/>
				<path id="XMLID_15_" class="st21" d="M235.08,222.18c0.1-1.89,1.83-8.76,9.83-8.76c8,0,9.74,6.86,9.83,8.76
					c0.06,1.23-0.06,1.93,0.04,2.36c0.04-0.41,0.06-0.95,0.06-1.65c0-3.62-1.47-7.34-3.83-7.96c-1.14-0.3-1.28-1.4-3.81-2.16
					c-4.04-1.21-8.61,0.47-10.94,4.35c-1.63,2.72-1.72,6.53-1.55,7.85C235.29,224.66,234.99,223.97,235.08,222.18z"/>
				<path id="XMLID_14_" class="st21" d="M236.11,226.25c1.02-0.27,3.27-2.27,5.8-4.28c3.19-2.54,5.08-3.24,7.02-3.46
					c0,0,0.16,1.09,2.09,2.69c1.94,1.61,2.44,5.05,2.84,4.79c0.03-0.02,0.06-0.03,0.09-0.04c0.02-0.23,0.04-0.46,0.06-0.7
					c0.2-2.61,0.17-3.46-0.08-4.41c-1.97-7.29-9.01-6.77-9.01-6.77s-6.8-0.64-8.98,6.66c-0.29,0.97-0.32,1.91-0.12,4.52
					c0.02,0.27,0.04,0.53,0.07,0.79C235.96,226.17,236.02,226.27,236.11,226.25z"/>
				<path id="XMLID_13_" class="st24" d="M236.09,229.79c0.28-0.18,0-1.59-0.21-3.75c-0.02-0.25-0.05-0.51-0.07-0.79
					c-0.2-2.61-0.17-3.56,0.12-4.52c2.19-7.29,8.98-6.66,8.98-6.66s7.04-0.52,9.01,6.77c0.26,0.95,0.28,1.8,0.08,4.41
					c-0.02,0.24-0.04,0.48-0.06,0.7c-0.21,2.21-0.51,3.66-0.22,3.84c0.18,0.11,0.41,0.1,0.66,0.01c0.17-0.06,0.34-0.16,0.51-0.3
					c0.27-0.23,0.5-0.55,0.63-0.95c-0.1-0.03-0.25,0.06-0.33-0.11c-0.09-0.2-0.04-1.09,0.03-1.28c0.08-0.19,0.17-0.28,0.47-0.23
					c0.02,0,0.03,0.01,0.05,0.02c0.04-0.89-0.07-1.75-0.54-1.93c-0.25-0.1-0.37-0.25-0.42-0.48c-0.1-0.42,0.02-1.13-0.04-2.36
					c-0.1-1.89-1.83-8.76-9.83-8.76c-8,0-9.74,6.86-9.83,8.76c-0.09,1.79,0.21,2.48-0.37,2.78c-0.03,0.02-0.06,0.04-0.09,0.05
					c-0.72,0.28-0.6,2.13-0.4,3.27c0.11,0.64,0.51,1.12,0.94,1.38c0.11,0.06,0.21,0.11,0.32,0.14
					C235.7,229.89,235.93,229.89,236.09,229.79z"/>
				<path id="XMLID_12_" class="st25" d="M255.23,227.16c-0.08,0.19-0.13,1.08-0.03,1.28c0.08,0.17,0.23,0.08,0.33,0.11
					c0.01,0,0.03,0.01,0.04,0.02c0.1,0.08-0.11,1.19-0.04,1.3c0.02,0.03,0.06,0.05,0.1,0.06c-0.05,0.23-0.28,1.09-0.72,2.19
					c-0.24,0.6-0.55,1.26-0.94,1.92c-0.86,1.49-2.23,3.22-4.19,3.79c-0.14,0.04-0.29,0.08-0.43,0.11c-0.16,0.03-0.31,0.05-0.48,0.07
					c-0.05-0.37-0.39-1.19-1.84-1.21c-1.59-0.02-1.7,0.98-1.73,1.27c0.02,0.24,0.09,0.95,0.99,1.21c0.2,0.06,0.43,0.09,0.71,0.09
					c1.36,0.01,1.76-0.7,1.85-1.1c0.32-0.03,0.63-0.08,0.93-0.17c1.68-0.47,3.18-1.8,4.41-3.94c0.27-0.46,0.5-0.93,0.7-1.38
					c0.64-1.42,0.96-2.64,1-2.87c0.02-0.01,0.04-0.01,0.05-0.02c0.11-0.08,0.19-0.81,0.26-1.65c0.07-0.79-0.18-1.22-0.45-1.31
					c-0.02-0.01-0.03-0.01-0.05-0.02C255.39,226.88,255.31,226.97,255.23,227.16z"/>
				<path id="XMLID_11_" class="st26" d="M243.51,253.63c-0.58-1.3-1.22-2.03-1.29-3.11c-0.43,0.53-0.72,1.07-0.67,1.59
					c0.16,1.71-4.89-4.15-5.38-6.96c-0.09,0.54-0.09,1.66,1.47,3.88c1.05,1.5,3.53,5.76,5.33,9.58c0.36-2.31,0.65-4.08,0.77-4.75
					C243.64,253.8,243.55,253.72,243.51,253.63z"/>
				<path id="XMLID_10_" class="st26" d="M248.27,252.1c0.05-0.51-0.25-1.06-0.67-1.59c-0.06,1.08-0.71,1.82-1.29,3.11
					c-0.04,0.09-0.13,0.17-0.23,0.23c0.13,0.69,0.43,2.58,0.81,5.03c1.75-3.9,4.23-8.33,5.31-9.86c1.64-2.32,1.55-3.45,1.45-3.95
					C253.26,247.85,248.11,253.83,248.27,252.1z"/>
				<path id="XMLID_9_" class="st26" d="M237,250.67c0,0,0.01,0.01,0.01,0.01l0.01-0.01C237.02,250.67,237.01,250.67,237,250.67z"/>
				<path id="XMLID_8_" class="st27" d="M246.31,253.63c0.58-1.3,1.22-2.03,1.29-3.11c-0.95-1.17-2.57-2.26-2.68-2.78h-0.01
					c-0.12,0.52-1.73,1.61-2.68,2.78c0.06,1.08,0.71,1.82,1.29,3.11c0.04,0.09,0.13,0.17,0.23,0.22c-0.12,0.67-0.41,2.44-0.77,4.75
					c1.07,2.28,1.9,4.4,2.06,5.69c0.15-1.24,0.9-3.24,1.87-5.41c-0.38-2.44-0.68-4.33-0.81-5.03
					C246.18,253.8,246.27,253.72,246.31,253.63z"/>
				<path id="XMLID_7_" class="st28" d="M251.57,241.95c-0.11-0.19-0.28-0.13-0.59,0.14c-0.74,0.66-2.32,2.61-6.02,5.44
					c-0.04,0.03-0.05,0.06-0.06,0.1c-0.01-0.04-0.02-0.07-0.06-0.1c-3.67-2.81-5.25-4.74-6-5.42c-0.32-0.29-0.49-0.35-0.6-0.16
					c-0.47,0.8-0.96,1.34-1.35,1.73c0,0,0.01,0,0.01,0s-0.01,0-0.02,0.01c-0.14,0.14-0.26,0.26-0.37,0.37
					c-0.11,0.18-0.22,0.43-0.28,0.79c-0.01,0.07-0.04,0.16-0.06,0.29c0.48,2.81,5.54,8.67,5.38,6.96c-0.05-0.51,0.25-1.06,0.67-1.59
					c0.95-1.17,2.57-2.26,2.68-2.78c0-0.01,0-0.01,0-0.02c0,0.01,0,0.01,0,0.02c0.12,0.52,1.73,1.61,2.68,2.78
					c0.43,0.53,0.72,1.07,0.67,1.59c-0.16,1.72,4.99-4.25,5.39-7.04c-0.02-0.09-0.04-0.16-0.05-0.22c-0.05-0.32-0.15-0.55-0.25-0.72
					C252.98,243.73,252.26,243.11,251.57,241.95z"/>
				<path id="XMLID_6_" class="st25" d="M265.24,249.17c-0.31-0.43-7.14-2.78-9.36-3.59c0.23,0.25,0.44,0.53,0.62,0.85
					c0.98,1.75,1.03,2.82,1.72,3.34c0.69,0.51-5.39,0.91-5.39,0.91l3.83,2.89c0,0-4.29,4.91-7.19,7.02
					c-0.9,0.65-3.74,3.28-4.43,4.41c0.16,0.76,0.44,1.9,0.5,2.36c0.03,0.2,0.05,0.39,0.07,0.58c5.29-0.06,10.28-1.31,14.74-3.5
					c0.14-2.65-0.32-13.05,4.68-15.26c0.1-0.05,0.22,0.06,0.36,0.29c0,0,0,0,0-0.01C265.35,249.36,265.3,249.25,265.24,249.17z"/>
				<path id="XMLID_5_" class="st29" d="M245.04,265L245.04,265c-0.81-0.7-3.76-3.76-4.66-4.41c-2.9-2.12-7.19-7.02-7.19-7.02
					l3.82-2.88c0,0-0.01-0.01-0.01-0.01c-0.39-0.03-6.03-0.42-5.37-0.91c0.69-0.51,0.74-1.59,1.72-3.34
					c0.19-0.35,0.43-0.64,0.68-0.91c-2.32,0.85-8.95,3.14-9.25,3.56c5.35,0.28,4.82,12.18,4.92,15.2c4.66,2.35,9.93,3.69,15.5,3.69
					c0.14,0,0.28-0.01,0.42-0.01c-0.02-0.19-0.05-0.38-0.07-0.58C245.48,266.9,245.2,265.76,245.04,265z"/>
				<path id="XMLID_4_" class="st30" d="M233.35,246.42c-0.98,1.75-1.03,2.82-1.72,3.34c-0.67,0.5,4.98,0.89,5.37,0.91
					c0.01,0,0.02,0,0.02,0l-0.01,0.01l-3.82,2.88c0,0,4.29,4.91,7.19,7.02c0.9,0.65,3.85,3.71,4.66,4.41l0,0
					c0.69-1.13,3.53-3.76,4.43-4.41c2.9-2.12,7.19-7.02,7.19-7.02l-3.83-2.89c0,0,6.08-0.4,5.39-0.91
					c-0.69-0.51-0.74-1.59-1.72-3.34c-0.18-0.32-0.39-0.6-0.62-0.85c-0.22-0.25-0.45-0.46-0.68-0.64c-0.38-0.31-0.72-0.55-0.92-0.72
					c-0.85-0.72-1.34-0.53-1.34-0.53s0.23,0.09,0.43,0.44c0.1,0.17,0.19,0.4,0.25,0.72c0.01,0.05,0.03,0.13,0.05,0.22
					c0.1,0.5,0.18,1.63-1.45,3.95c-1.08,1.53-3.56,5.97-5.31,9.86c-0.97,2.17-1.72,4.17-1.87,5.41c-0.15-1.29-0.99-3.42-2.06-5.69
					c-1.8-3.83-4.27-8.09-5.33-9.58c-1.56-2.21-1.56-3.34-1.47-3.88c0.02-0.13,0.05-0.23,0.06-0.29c0.06-0.36,0.17-0.61,0.28-0.79
					c0.16-0.24,0.32-0.34,0.37-0.37c0.01-0.01,0.02-0.01,0.02-0.01s-0.01,0-0.01,0c-0.04-0.02-0.52-0.15-1.33,0.53
					c-0.15,0.13-0.4,0.3-0.68,0.52c-0.27,0.21-0.57,0.47-0.86,0.78C233.78,245.78,233.55,246.08,233.35,246.42z"/>
				<path id="XMLID_3_" class="st30" d="M224.78,249.07c-0.31-0.02-1.32,4.66-2.34,10.29c2.19,1.93,4.62,3.58,7.25,4.9
					C229.59,261.25,230.12,249.35,224.78,249.07z"/>
				<path id="XMLID_2_" class="st30" d="M265.04,249.18c-5,2.21-4.54,12.61-4.68,15.26c2.7-1.32,5.19-2.99,7.44-4.94
					c-0.86-4.8-1.77-8.91-2.4-10.03C265.26,249.24,265.14,249.14,265.04,249.18z"/>
			</g>
		</g>
	</g>
</g>
</svg>
