<?xml version="1.0" encoding="utf-8"?>
<!-- Generator: Adobe Illustrator 23.0.0, SVG Export Plug-In . SVG Version: 6.00 Build 0)  -->
<svg version="1.1" id="Capa_1" xmlns="http://www.w3.org/2000/svg" xmlns:xlink="http://www.w3.org/1999/xlink" x="0px" y="0px"
	 viewBox="0 0 400 689" style="enable-background:new 0 0 400 689;" xml:space="preserve">
<style type="text/css">
	.st0{fill:#E2E2E2;}
	.st1{fill:#FFFFFF;}
	.st2{fill:#CCCDCE;}
	.st3{fill:#F2F2F2;}
	.st4{fill:none;}
	.st5{fill:#0085B0;}
	.st6{fill:#E0EF18;}
	.st7{fill:#CECECE;}
	.st8{fill:#22272F;}
	.st9{fill:#1B2538;}
	.st10{fill:#253452;}
	.st11{fill:#F9F9F9;}
	.st12{fill:#2D3543;}
	.st13{fill:#2A3D60;}
	.st14{fill:#6C92D5;}
	.st15{fill:#587955;}
	.st16{fill:#CD7054;}
	.st17{fill:#F1CC4B;}
	.st18{fill:#DFDFDF;}
	.st19{fill:#ACACAC;}
	.st20{fill:#00D13C;}
	.st21{fill:#866A5E;}
	.st22{fill:#F7DDCB;}
	.st23{fill:#FFE6D4;}
	.st24{fill:#2D2D2D;}
	.st25{fill:#1C1B1A;}
	.st26{fill:#F5F5F5;}
	.st27{fill:#77181C;}
	.st28{fill:#EAEAEA;}
	.st29{fill:#262525;}
	.st30{fill:#11100F;}
	.st31{fill:#FFFFFF;stroke:#000000;stroke-width:6;stroke-miterlimit:10;}
	.st32{fill:#D4D4D4;}
	.st33{fill:#C2C2C2;}
	.st34{fill:#505050;}
	.st35{fill:#53C2C9;}
	.st36{fill:#008B9C;}
	.st37{fill:none;stroke:#00550B;stroke-width:4;stroke-miterlimit:10;}
	.st38{fill:#CE2458;}
	.st39{fill:#155500;}
	.st40{fill:#1549FF;}
	.st41{fill:#606060;stroke:#C6C8CC;stroke-width:6;stroke-miterlimit:10;}
	.st42{fill:#727272;}
	.st43{fill:#207235;}
	.st44{fill:#A3A3A3;}
	.st45{fill:#BCBCBC;}
	.st46{fill:#2A5936;}
	.st47{opacity:0.7;fill:#7F7F7F;}
	.st48{fill:#DAA449;}
	.st49{fill:#85B681;}
	.st50{fill:#A1DC9B;}
	.st51{fill:#90C58B;}
	.st52{fill:#DD9225;}
	.st53{opacity:0.3;}
	.st54{fill:#81C378;}
	.st55{opacity:0.5;}
	.st56{fill:#A2CADE;}
	.st57{fill:#9BAEC9;}
	.st58{fill:#9D2B3B;}
	.st59{fill:#C1D4F2;}
	.st60{fill:#534D46;}
	.st61{fill:#191819;}
	.st62{fill:#222123;}
	.st63{fill:#F3FF00;}
	.st64{fill-rule:evenodd;clip-rule:evenodd;fill:#FFFFFF;}
	.st65{fill-rule:evenodd;clip-rule:evenodd;fill:#1996B8;}
	.st66{fill:none;stroke:#5A605A;stroke-width:4;stroke-miterlimit:10;}
	.st67{fill:#FFB412;}
	.st68{fill:#BACDD1;}
	.st69{fill:#1C4D59;}
	.st70{fill:#A14329;}
	.st71{fill:#FCC083;}
	.st72{fill:#E8AA63;}
	.st73{fill:#D40000;}
	.st74{opacity:0.35;fill:#7D7D7D;}
	.st75{fill:#E5E3E3;}
	.st76{fill:#121F5E;}
	.st77{fill:#A3ADAF;}
	.st78{fill:#C2C6C6;}
	.st79{fill:#E5E5E5;stroke:#FFFFFF;stroke-miterlimit:10;}
	.st80{fill:#ACB4B5;}
	.st81{fill:#7F8384;}
	.st82{fill:#282828;}
	.st83{fill:none;stroke:#46A508;stroke-width:6;stroke-miterlimit:10;}
	.st84{fill:none;stroke:#46A508;stroke-width:6;stroke-miterlimit:10;stroke-dasharray:11.7425,11.7425;}
	.st85{fill:#C89D76;}
	.st86{opacity:0.4;}
	.st87{fill:#ADADAD;}
	.st88{fill:#76A172;}
	.st89{fill:#62835F;}
	.st90{fill:#96D090;}
	.st91{fill:#EDC3A6;}
	.st92{opacity:0.69;}
	.st93{fill:#E5D3D6;}
	.st94{opacity:0.44;}
	.st95{fill:#A5A5A5;}
	.st96{fill:#DDE5E4;}
	.st97{fill:#FDFDFD;}
	.st98{fill:#E0C348;}
	.st99{fill:#606060;}
</style>
<g>
	<g>
		<path class="st5" d="M8.5,199.36c0,22,13.29,27.86,29.54,13.03c0,0,156.99-143.3,353.09,26.97V45c0-22-18-40-40-40H48.5
			c-22,0-40,18-40,40V199.36z"/>
	</g>
	<g>
		<path class="st5" d="M390.66,637c0,22-18,40-40,40H48.98c-22,0-40-18-40-40v-46.27c0-22,18-40,40-40h301.68c22,0,40,18,40,40V637z
			"/>
	</g>
	<g>
		<path d="M24.19,383.46c-0.31-0.33-0.47-0.83-0.47-1.5v-19.84c0-0.68,0.16-1.17,0.47-1.49c0.32-0.32,0.87-0.47,1.66-0.47h4.02
			c0.51,0,0.92,0.06,1.23,0.19s0.54,0.38,0.7,0.75l4.09,10.25l4.1-10.25c0.16-0.37,0.4-0.63,0.7-0.75c0.3-0.13,0.71-0.19,1.22-0.19
			h4.03c0.79,0,1.35,0.16,1.66,0.47c0.32,0.31,0.47,0.81,0.47,1.49v19.84c0,0.68-0.16,1.18-0.47,1.5c-0.31,0.33-0.86,0.49-1.63,0.49
			h-3.36c-0.77,0-1.32-0.16-1.65-0.49c-0.33-0.33-0.49-0.83-0.49-1.5v-9.55l-2.07,4.76c-0.28,0.68-0.58,1.16-0.91,1.45
			c-0.33,0.29-0.86,0.44-1.61,0.44s-1.28-0.15-1.61-0.44c-0.33-0.29-0.63-0.78-0.91-1.45l-2.06-4.76v9.55c0,0.68-0.16,1.18-0.47,1.5
			c-0.31,0.33-0.87,0.49-1.66,0.49h-3.36C25.05,383.95,24.51,383.79,24.19,383.46z"/>
		<path d="M51,383.46c-0.31-0.33-0.47-0.83-0.47-1.5v-19.81c0-0.68,0.16-1.18,0.47-1.5c0.32-0.33,0.86-0.49,1.63-0.49h14.49
			c0.75,0,1.25,0.16,1.52,0.47c0.27,0.31,0.4,0.82,0.4,1.52v1.96c0,0.7-0.13,1.21-0.4,1.52c-0.27,0.31-0.78,0.47-1.52,0.47h-8.19
			v3.01h5.04c0.75,0,1.25,0.16,1.52,0.47c0.27,0.31,0.4,0.82,0.4,1.52V373c0,0.7-0.13,1.21-0.4,1.52c-0.27,0.32-0.78,0.47-1.52,0.47
			h-5.04V378h8.15c0.75,0,1.25,0.16,1.52,0.47c0.27,0.32,0.4,0.82,0.4,1.52v1.96c0,0.7-0.13,1.21-0.4,1.52
			c-0.27,0.32-0.78,0.47-1.52,0.47H52.63C51.86,383.95,51.31,383.79,51,383.46z"/>
		<path d="M71.09,383.46c-0.31-0.33-0.47-0.83-0.47-1.5v-19.84c0-0.68,0.16-1.17,0.47-1.49c0.32-0.32,0.87-0.47,1.66-0.47h3.33
			c0.49,0,0.87,0.06,1.14,0.19s0.53,0.38,0.79,0.75l6.33,9.41v-8.37c0-0.68,0.16-1.18,0.47-1.5c0.31-0.33,0.86-0.49,1.63-0.49h4.17
			c0.79,0,1.35,0.16,1.66,0.47c0.31,0.31,0.47,0.82,0.47,1.52v19.85c0,0.68-0.16,1.17-0.47,1.49c-0.31,0.32-0.87,0.47-1.66,0.47
			h-3.33c-0.49,0-0.87-0.06-1.14-0.19c-0.27-0.13-0.53-0.38-0.79-0.75l-6.33-9.42v8.4c0,0.68-0.16,1.17-0.47,1.49
			c-0.31,0.32-0.87,0.47-1.66,0.47h-4.17C71.95,383.95,71.4,383.79,71.09,383.46z"/>
		<path d="M99.63,383.81c-1.82-0.44-3.29-1.06-4.41-1.86c-0.47-0.33-0.7-0.64-0.7-0.95c0-0.21,0.08-0.43,0.25-0.67l2.03-3.18
			c0.21-0.3,0.42-0.46,0.63-0.46c0.19,0,0.41,0.08,0.67,0.25c0.84,0.51,1.8,0.92,2.89,1.21c1.08,0.29,2.14,0.44,3.17,0.44
			c0.86,0,1.49-0.12,1.87-0.35c0.38-0.23,0.58-0.59,0.58-1.08c0-0.54-0.26-0.97-0.77-1.29c-0.51-0.33-1.4-0.74-2.66-1.22
			c-2.36-0.91-4.21-1.94-5.56-3.1c-1.35-1.16-2.03-2.69-2.03-4.6c0-2.43,0.85-4.25,2.54-5.48c1.69-1.22,3.97-1.84,6.84-1.84
			c2.01,0,3.72,0.18,5.13,0.53c1.41,0.35,2.64,0.9,3.69,1.64c0.47,0.33,0.7,0.64,0.7,0.95c0,0.21-0.08,0.43-0.24,0.67l-2.03,3.18
			c-0.21,0.33-0.42,0.49-0.63,0.49c-0.14,0-0.36-0.09-0.67-0.28c-0.56-0.37-1.23-0.68-2-0.93s-1.6-0.37-2.48-0.37
			c-0.82,0-1.44,0.12-1.85,0.35s-0.63,0.61-0.63,1.12c0,0.42,0.15,0.77,0.44,1.05c0.29,0.28,0.66,0.52,1.1,0.72
			c0.44,0.2,1.21,0.52,2.31,0.96c1.75,0.7,3.13,1.37,4.13,2.01c1,0.64,1.76,1.41,2.27,2.31c0.51,0.9,0.77,2.04,0.77,3.41
			c0,2.1-0.79,3.8-2.36,5.09c-1.58,1.3-3.93,1.94-7.05,1.94C103.42,384.48,101.45,384.25,99.63,383.81z"/>
		<path d="M114.44,383.22c0-0.21,0.06-0.47,0.18-0.77l8.71-20.96c0.21-0.49,0.45-0.83,0.72-1.03c0.27-0.2,0.65-0.3,1.14-0.3H129
			c0.49,0,0.87,0.1,1.14,0.3c0.27,0.2,0.51,0.54,0.72,1.03l8.68,20.96c0.12,0.3,0.17,0.56,0.17,0.77c0,0.49-0.26,0.74-0.77,0.74
			h-6.58c-0.72,0-1.18-0.32-1.36-0.95l-0.84-2.59h-6.2l-0.8,2.59c-0.19,0.63-0.64,0.95-1.37,0.95h-6.58
			C114.69,383.95,114.44,383.71,114.44,383.22z M128.44,374.89l-1.36-4.34l-1.37,4.34H128.44z"/>
		<path d="M139.25,382.17c-0.28-0.21-0.42-0.44-0.42-0.7c0-0.21,0.1-0.5,0.31-0.88l1.75-3.01c0.23-0.37,0.48-0.56,0.73-0.56
			c0.16,0,0.4,0.1,0.7,0.31c1.12,0.84,2.19,1.26,3.22,1.26c1.59,0,2.38-0.76,2.38-2.27v-14.18c0-0.68,0.16-1.18,0.47-1.5
			c0.31-0.33,0.86-0.49,1.63-0.49h4.17c0.79,0,1.35,0.16,1.66,0.47c0.31,0.31,0.47,0.82,0.47,1.52v14.25c0,2.47-0.77,4.44-2.31,5.9
			s-3.76,2.19-6.65,2.19C144.06,384.48,141.35,383.71,139.25,382.17z"/>
		<path d="M159.08,383.46c-0.31-0.33-0.47-0.83-0.47-1.5v-19.81c0-0.68,0.16-1.18,0.47-1.5c0.32-0.33,0.86-0.49,1.63-0.49h14.49
			c0.75,0,1.25,0.16,1.52,0.47c0.27,0.31,0.4,0.82,0.4,1.52v1.96c0,0.7-0.13,1.21-0.4,1.52c-0.27,0.31-0.78,0.47-1.52,0.47h-8.19
			v3.01h5.04c0.75,0,1.25,0.16,1.52,0.47c0.27,0.31,0.4,0.82,0.4,1.52V373c0,0.7-0.13,1.21-0.4,1.52c-0.27,0.32-0.78,0.47-1.52,0.47
			h-5.04V378h8.15c0.75,0,1.25,0.16,1.52,0.47c0.27,0.32,0.4,0.82,0.4,1.52v1.96c0,0.7-0.13,1.21-0.4,1.52
			c-0.27,0.32-0.78,0.47-1.52,0.47h-14.45C159.94,383.95,159.39,383.79,159.08,383.46z"/>
		<path d="M183.14,383.81c-1.82-0.44-3.29-1.06-4.41-1.86c-0.47-0.33-0.7-0.64-0.7-0.95c0-0.21,0.08-0.43,0.25-0.67l2.03-3.18
			c0.21-0.3,0.42-0.46,0.63-0.46c0.19,0,0.41,0.08,0.67,0.25c0.84,0.51,1.8,0.92,2.89,1.21c1.08,0.29,2.14,0.44,3.17,0.44
			c0.86,0,1.49-0.12,1.87-0.35c0.38-0.23,0.58-0.59,0.58-1.08c0-0.54-0.26-0.97-0.77-1.29c-0.51-0.33-1.4-0.74-2.66-1.22
			c-2.36-0.91-4.21-1.94-5.56-3.1c-1.35-1.16-2.03-2.69-2.03-4.6c0-2.43,0.85-4.25,2.54-5.48c1.69-1.22,3.97-1.84,6.84-1.84
			c2.01,0,3.72,0.18,5.13,0.53c1.41,0.35,2.64,0.9,3.69,1.64c0.47,0.33,0.7,0.64,0.7,0.95c0,0.21-0.08,0.43-0.24,0.67l-2.03,3.18
			c-0.21,0.33-0.42,0.49-0.63,0.49c-0.14,0-0.36-0.09-0.67-0.28c-0.56-0.37-1.23-0.68-2-0.93s-1.6-0.37-2.48-0.37
			c-0.82,0-1.44,0.12-1.85,0.35s-0.63,0.61-0.63,1.12c0,0.42,0.15,0.77,0.44,1.05c0.29,0.28,0.66,0.52,1.1,0.72
			c0.44,0.2,1.21,0.52,2.31,0.96c1.75,0.7,3.13,1.37,4.13,2.01c1,0.64,1.76,1.41,2.27,2.31c0.51,0.9,0.77,2.04,0.77,3.41
			c0,2.1-0.79,3.8-2.36,5.09c-1.58,1.3-3.93,1.94-7.05,1.94C186.93,384.48,184.96,384.25,183.14,383.81z"/>
		<path d="M211.19,383.46c-0.31-0.33-0.47-0.83-0.47-1.5v-19.81c0-0.68,0.16-1.18,0.47-1.5c0.32-0.33,0.86-0.49,1.63-0.49h8.05
			c8.24,0,12.35,3.97,12.35,11.9c0,3.92-1.06,6.88-3.17,8.89c-2.11,2.01-5.17,3.01-9.19,3.01h-8.05
			C212.05,383.95,211.51,383.79,211.19,383.46z M221.19,378c1.31,0,2.25-0.43,2.82-1.29s0.86-2.42,0.86-4.66
			c0-2.24-0.29-3.79-0.86-4.65s-1.51-1.29-2.82-1.29h-2.06V378H221.19z"/>
		<path d="M235.45,383.46c-0.31-0.33-0.47-0.83-0.47-1.5v-19.81c0-0.68,0.16-1.18,0.47-1.5c0.32-0.33,0.86-0.49,1.63-0.49h14.49
			c0.75,0,1.25,0.16,1.52,0.47c0.27,0.31,0.4,0.82,0.4,1.52v1.96c0,0.7-0.13,1.21-0.4,1.52c-0.27,0.31-0.78,0.47-1.52,0.47h-8.19
			v3.01h5.04c0.75,0,1.25,0.16,1.52,0.47c0.27,0.31,0.4,0.82,0.4,1.52V373c0,0.7-0.13,1.21-0.4,1.52c-0.27,0.32-0.78,0.47-1.52,0.47
			h-5.04V378h8.15c0.75,0,1.25,0.16,1.52,0.47c0.27,0.32,0.4,0.82,0.4,1.52v1.96c0,0.7-0.13,1.21-0.4,1.52
			c-0.27,0.32-0.78,0.47-1.52,0.47h-14.45C236.31,383.95,235.76,383.79,235.45,383.46z"/>
		<path d="M271.6,383.46c-0.32-0.33-0.47-0.83-0.47-1.5V366.1h-5.04c-0.75,0-1.25-0.16-1.52-0.47c-0.27-0.32-0.4-0.82-0.4-1.52
			v-1.96c0-0.7,0.13-1.21,0.4-1.52c0.27-0.32,0.78-0.47,1.52-0.47h18.48c0.75,0,1.25,0.16,1.52,0.47c0.27,0.31,0.4,0.82,0.4,1.52
			v1.96c0,0.7-0.13,1.21-0.4,1.52c-0.27,0.31-0.78,0.47-1.52,0.47h-5.04v15.85c0,0.68-0.16,1.18-0.47,1.5
			c-0.31,0.33-0.87,0.49-1.66,0.49h-4.17C272.46,383.95,271.92,383.79,271.6,383.46z"/>
		<path d="M288.02,383.46c-0.31-0.33-0.47-0.83-0.47-1.5v-19.81c0-0.68,0.16-1.18,0.47-1.5c0.32-0.33,0.86-0.49,1.63-0.49h14.49
			c0.75,0,1.25,0.16,1.52,0.47c0.27,0.31,0.4,0.82,0.4,1.52v1.96c0,0.7-0.13,1.21-0.4,1.52c-0.27,0.31-0.78,0.47-1.52,0.47h-8.19
			v3.01h5.04c0.75,0,1.25,0.16,1.52,0.47c0.27,0.31,0.4,0.82,0.4,1.52V373c0,0.7-0.13,1.21-0.4,1.52c-0.27,0.32-0.78,0.47-1.52,0.47
			h-5.04V378h8.16c0.75,0,1.25,0.16,1.52,0.47c0.27,0.32,0.4,0.82,0.4,1.52v1.96c0,0.7-0.13,1.21-0.4,1.52
			c-0.27,0.32-0.78,0.47-1.52,0.47h-14.46C288.88,383.95,288.33,383.79,288.02,383.46z"/>
		<path d="M306.29,383.72c-0.15-0.15-0.23-0.33-0.23-0.54c0-0.23,0.09-0.48,0.28-0.74l8.01-10.82l-7.38-9.97
			c-0.19-0.26-0.28-0.5-0.28-0.74c0-0.21,0.08-0.39,0.23-0.54c0.15-0.15,0.37-0.23,0.65-0.23h6.54c0.35,0,0.62,0.04,0.8,0.12
			c0.19,0.08,0.35,0.22,0.49,0.4l3.54,4.79l3.57-4.79c0.14-0.19,0.3-0.32,0.49-0.4c0.19-0.08,0.46-0.12,0.81-0.12h6.54
			c0.28,0,0.5,0.08,0.65,0.23c0.15,0.15,0.23,0.33,0.23,0.54c0,0.23-0.09,0.48-0.28,0.74l-7.42,9.97l8.05,10.82
			c0.19,0.26,0.28,0.5,0.28,0.74c0,0.21-0.08,0.39-0.23,0.54c-0.15,0.15-0.37,0.23-0.65,0.23h-6.54c-0.35,0-0.62-0.04-0.8-0.12
			s-0.35-0.22-0.49-0.4l-4.2-5.63l-4.17,5.63c-0.14,0.19-0.3,0.32-0.49,0.4s-0.46,0.12-0.81,0.12h-6.54
			C306.65,383.95,306.44,383.88,306.29,383.72z"/>
		<path d="M339.64,383.46c-0.32-0.33-0.47-0.83-0.47-1.5V366.1h-5.04c-0.75,0-1.25-0.16-1.52-0.47c-0.27-0.32-0.4-0.82-0.4-1.52
			v-1.96c0-0.7,0.13-1.21,0.4-1.52c0.27-0.32,0.78-0.47,1.52-0.47h18.48c0.75,0,1.25,0.16,1.52,0.47c0.27,0.31,0.4,0.82,0.4,1.52
			v1.96c0,0.7-0.13,1.21-0.4,1.52c-0.27,0.31-0.78,0.47-1.52,0.47h-5.04v15.85c0,0.68-0.16,1.18-0.47,1.5
			c-0.31,0.33-0.87,0.49-1.66,0.49h-4.16C340.5,383.95,339.96,383.79,339.64,383.46z"/>
		<path d="M356.53,381.24c-2.15-2.16-3.22-5.22-3.22-9.19c0-3.97,1.07-7.03,3.22-9.19c2.15-2.16,5.3-3.24,9.45-3.24
			s7.3,1.08,9.45,3.24c2.15,2.16,3.22,5.22,3.22,9.19c0,3.97-1.07,7.03-3.22,9.19c-2.15,2.16-5.3,3.24-9.45,3.24
			S358.68,383.4,356.53,381.24z M369.27,376.97c0.68-1.08,1.01-2.72,1.01-4.92c0-2.22-0.34-3.86-1.01-4.93s-1.77-1.61-3.29-1.61
			c-1.52,0-2.61,0.54-3.29,1.61s-1.01,2.72-1.01,4.93c0,2.19,0.34,3.83,1.01,4.92s1.77,1.63,3.29,1.63
			C367.5,378.6,368.59,378.05,369.27,376.97z"/>
		<path d="M35,425.22c0-0.21,0.06-0.47,0.18-0.77l8.71-20.96c0.21-0.49,0.45-0.83,0.72-1.03c0.27-0.2,0.65-0.3,1.14-0.3h3.81
			c0.49,0,0.87,0.1,1.14,0.3c0.27,0.2,0.51,0.54,0.72,1.03l8.68,20.96c0.12,0.3,0.17,0.56,0.17,0.77c0,0.49-0.26,0.74-0.77,0.74
			h-6.58c-0.72,0-1.18-0.32-1.36-0.95l-0.84-2.59h-6.2l-0.8,2.59c-0.19,0.63-0.64,0.95-1.37,0.95h-6.58
			C35.26,425.95,35,425.71,35,425.22z M49,416.89l-1.36-4.34l-1.37,4.34H49z"/>
		<path d="M78.56,425.46c-0.32-0.33-0.47-0.83-0.47-1.5V408.1h-5.04c-0.75,0-1.25-0.16-1.52-0.47c-0.27-0.32-0.4-0.82-0.4-1.52
			v-1.96c0-0.7,0.13-1.21,0.4-1.52c0.27-0.32,0.78-0.47,1.52-0.47h18.48c0.75,0,1.25,0.16,1.52,0.47c0.27,0.31,0.4,0.82,0.4,1.52
			v1.96c0,0.7-0.13,1.21-0.4,1.52c-0.27,0.31-0.78,0.47-1.52,0.47h-5.04v15.85c0,0.68-0.16,1.18-0.47,1.5
			c-0.31,0.33-0.87,0.49-1.66,0.49h-4.17C79.42,425.95,78.88,425.79,78.56,425.46z"/>
		<path d="M95.45,423.24c-2.15-2.16-3.22-5.22-3.22-9.19c0-3.97,1.07-7.03,3.22-9.19c2.15-2.16,5.3-3.24,9.45-3.24
			s7.3,1.08,9.45,3.24c2.15,2.16,3.22,5.22,3.22,9.19c0,3.97-1.07,7.03-3.22,9.19c-2.15,2.16-5.3,3.24-9.45,3.24
			S97.6,425.4,95.45,423.24z M108.19,418.97c0.68-1.08,1.02-2.72,1.02-4.92c0-2.22-0.34-3.86-1.02-4.93s-1.77-1.61-3.29-1.61
			c-1.52,0-2.61,0.54-3.29,1.61s-1.01,2.72-1.01,4.93c0,2.19,0.34,3.83,1.01,4.92s1.77,1.63,3.29,1.63
			C106.42,420.6,107.51,420.05,108.19,418.97z"/>
		<path d="M119.79,425.46c-0.31-0.33-0.47-0.83-0.47-1.5v-19.81c0-0.68,0.16-1.18,0.47-1.5c0.32-0.33,0.86-0.49,1.63-0.49h8.05
			c8.24,0,12.35,3.97,12.35,11.9c0,3.92-1.06,6.88-3.17,8.89c-2.11,2.01-5.17,3.01-9.19,3.01h-8.05
			C120.65,425.95,120.11,425.79,119.79,425.46z M129.78,420c1.31,0,2.25-0.43,2.82-1.29s0.86-2.42,0.86-4.66
			c0-2.24-0.29-3.79-0.86-4.65s-1.51-1.29-2.82-1.29h-2.06V420H129.78z"/>
		<path d="M146.09,423.24c-2.15-2.16-3.22-5.22-3.22-9.19c0-3.97,1.07-7.03,3.22-9.19c2.15-2.16,5.3-3.24,9.45-3.24
			s7.3,1.08,9.45,3.24c2.15,2.16,3.22,5.22,3.22,9.19c0,3.97-1.07,7.03-3.22,9.19c-2.15,2.16-5.3,3.24-9.45,3.24
			S148.24,425.4,146.09,423.24z M158.83,418.97c0.68-1.08,1.02-2.72,1.02-4.92c0-2.22-0.34-3.86-1.02-4.93s-1.77-1.61-3.29-1.61
			c-1.52,0-2.61,0.54-3.29,1.61s-1.01,2.72-1.01,4.93c0,2.19,0.34,3.83,1.01,4.92s1.77,1.63,3.29,1.63
			C157.06,420.6,158.16,420.05,158.83,418.97z"/>
		<path d="M182.98,423.24c-2.15-2.16-3.22-5.22-3.22-9.19c0-3.97,1.07-7.03,3.22-9.19c2.15-2.16,5.3-3.24,9.45-3.24
			s7.3,1.08,9.45,3.24c2.15,2.16,3.22,5.22,3.22,9.19c0,3.97-1.07,7.03-3.22,9.19c-2.15,2.16-5.3,3.24-9.45,3.24
			S185.13,425.4,182.98,423.24z M195.72,418.97c0.68-1.08,1.02-2.72,1.02-4.92c0-2.22-0.34-3.86-1.02-4.93s-1.77-1.61-3.29-1.61
			c-1.52,0-2.61,0.54-3.29,1.61s-1.01,2.72-1.01,4.93c0,2.19,0.34,3.83,1.01,4.92s1.77,1.63,3.29,1.63
			C193.95,420.6,195.05,420.05,195.72,418.97z"/>
		<path d="M207.33,425.46c-0.31-0.33-0.47-0.83-0.47-1.5v-19.81c0-0.68,0.16-1.18,0.47-1.5c0.32-0.33,0.86-0.49,1.63-0.49h8.36
			c3.5,0,6.05,0.69,7.65,2.08c1.6,1.39,2.4,3.48,2.4,6.28c0,2.8-0.8,4.89-2.4,6.26c-1.6,1.38-4.14,2.06-7.61,2.06h-2.1v5.11
			c0,0.68-0.16,1.18-0.47,1.5c-0.31,0.33-0.87,0.49-1.66,0.49h-4.17C208.18,425.95,207.64,425.79,207.33,425.46z M216.58,412.9
			c0.75,0,1.34-0.2,1.77-0.6c0.43-0.4,0.65-0.99,0.65-1.78c0-0.82-0.22-1.42-0.65-1.82c-0.43-0.4-1.02-0.59-1.77-0.59h-2.38v4.79
			H216.58z"/>
		<path d="M228.89,425.46c-0.31-0.33-0.47-0.83-0.47-1.5v-19.81c0-0.68,0.16-1.18,0.47-1.5c0.32-0.33,0.86-0.49,1.63-0.49H245
			c0.75,0,1.25,0.16,1.52,0.47c0.27,0.31,0.4,0.82,0.4,1.52v1.96c0,0.7-0.13,1.21-0.4,1.52c-0.27,0.31-0.78,0.47-1.52,0.47h-8.19
			v3.01h5.04c0.75,0,1.25,0.16,1.52,0.47c0.27,0.31,0.4,0.82,0.4,1.52V415c0,0.7-0.13,1.21-0.4,1.52c-0.27,0.32-0.78,0.47-1.52,0.47
			h-5.04V420h8.15c0.75,0,1.25,0.16,1.52,0.47c0.27,0.32,0.4,0.82,0.4,1.52v1.96c0,0.7-0.13,1.21-0.4,1.52
			c-0.27,0.32-0.78,0.47-1.52,0.47h-14.45C229.74,425.95,229.2,425.79,228.89,425.46z"/>
		<path d="M248.97,425.46c-0.31-0.33-0.47-0.83-0.47-1.5v-19.81c0-0.68,0.16-1.18,0.47-1.5c0.32-0.33,0.86-0.49,1.63-0.49h8.36
			c3.5,0,6.05,0.69,7.65,2.08c1.6,1.39,2.4,3.48,2.4,6.28c0,1.68-0.29,3.1-0.86,4.25s-1.45,2.06-2.64,2.71l3.26,6.96
			c0.09,0.19,0.14,0.4,0.14,0.63c0,0.26-0.09,0.47-0.26,0.63c-0.18,0.16-0.4,0.25-0.68,0.25h-5.92c-0.37,0-0.67-0.05-0.89-0.16
			c-0.22-0.11-0.38-0.29-0.47-0.54l-2.59-6.51h-1.19v5.21c0,0.68-0.16,1.18-0.47,1.5c-0.31,0.33-0.87,0.49-1.66,0.49h-4.17
			C249.83,425.95,249.29,425.79,248.97,425.46z M258.23,412.9c0.75,0,1.34-0.2,1.77-0.6c0.43-0.4,0.65-0.99,0.65-1.78
			c0-0.82-0.22-1.42-0.65-1.82c-0.43-0.4-1.02-0.59-1.77-0.59h-2.38v4.79H258.23z"/>
		<path d="M268.49,425.22c0-0.21,0.06-0.47,0.18-0.77l8.71-20.96c0.21-0.49,0.45-0.83,0.72-1.03c0.27-0.2,0.65-0.3,1.14-0.3h3.81
			c0.49,0,0.87,0.1,1.14,0.3c0.27,0.2,0.51,0.54,0.72,1.03l8.68,20.96c0.12,0.3,0.17,0.56,0.17,0.77c0,0.49-0.26,0.74-0.77,0.74
			h-6.58c-0.72,0-1.18-0.32-1.36-0.95l-0.84-2.59h-6.2l-0.8,2.59c-0.19,0.63-0.64,0.95-1.37,0.95h-6.58
			C268.74,425.95,268.49,425.71,268.49,425.22z M282.49,416.89l-1.36-4.34l-1.37,4.34H282.49z"/>
		<path d="M295.98,425.46c-0.31-0.33-0.47-0.83-0.47-1.5v-19.81c0-0.68,0.16-1.18,0.47-1.5c0.32-0.33,0.86-0.49,1.63-0.49h8.05
			c8.24,0,12.36,3.97,12.36,11.9c0,3.92-1.06,6.88-3.17,8.89s-5.17,3.01-9.19,3.01h-8.05C296.84,425.95,296.29,425.79,295.98,425.46
			z M305.97,420c1.31,0,2.25-0.43,2.82-1.29s0.86-2.42,0.86-4.66c0-2.24-0.29-3.79-0.86-4.65s-1.51-1.29-2.82-1.29h-2.07V420H305.97
			z"/>
		<path d="M322.28,423.24c-2.15-2.16-3.22-5.22-3.22-9.19c0-3.97,1.07-7.03,3.22-9.19c2.15-2.16,5.3-3.24,9.45-3.24
			s7.3,1.08,9.45,3.24c2.15,2.16,3.22,5.22,3.22,9.19c0,3.97-1.07,7.03-3.22,9.19c-2.15,2.16-5.3,3.24-9.45,3.24
			S324.43,425.4,322.28,423.24z M335.02,418.97c0.68-1.08,1.02-2.72,1.02-4.92c0-2.22-0.34-3.86-1.02-4.93s-1.77-1.61-3.29-1.61
			s-2.61,0.54-3.29,1.61s-1.01,2.72-1.01,4.93c0,2.19,0.34,3.83,1.01,4.92s1.77,1.63,3.29,1.63S334.34,420.05,335.02,418.97z"/>
		<path d="M346.62,425.46c-0.32-0.33-0.47-0.83-0.47-1.5v-19.81c0-0.68,0.16-1.18,0.47-1.5c0.32-0.33,0.86-0.49,1.63-0.49h8.37
			c3.5,0,6.05,0.69,7.65,2.08c1.6,1.39,2.4,3.48,2.4,6.28c0,1.68-0.29,3.1-0.86,4.25c-0.57,1.16-1.45,2.06-2.64,2.71l3.25,6.96
			c0.09,0.19,0.14,0.4,0.14,0.63c0,0.26-0.09,0.47-0.26,0.63c-0.18,0.16-0.4,0.25-0.68,0.25h-5.91c-0.37,0-0.67-0.05-0.89-0.16
			c-0.22-0.11-0.38-0.29-0.47-0.54l-2.59-6.51h-1.19v5.21c0,0.68-0.16,1.18-0.47,1.5c-0.32,0.33-0.87,0.49-1.66,0.49h-4.17
			C347.48,425.95,346.94,425.79,346.62,425.46z M355.88,412.9c0.75,0,1.33-0.2,1.77-0.6c0.43-0.4,0.65-0.99,0.65-1.78
			c0-0.82-0.22-1.42-0.65-1.82c-0.43-0.4-1.02-0.59-1.77-0.59h-2.38v4.79H355.88z"/>
		<path d="M103.2,467.46c-0.32-0.33-0.47-0.83-0.47-1.5V450.1h-5.04c-0.75,0-1.25-0.16-1.52-0.47c-0.27-0.32-0.4-0.82-0.4-1.52
			v-1.96c0-0.7,0.13-1.21,0.4-1.52c0.27-0.32,0.78-0.47,1.52-0.47h18.48c0.75,0,1.25,0.16,1.52,0.47c0.27,0.31,0.4,0.82,0.4,1.52
			v1.96c0,0.7-0.13,1.21-0.4,1.52c-0.27,0.31-0.78,0.47-1.52,0.47h-5.04v15.85c0,0.68-0.16,1.18-0.47,1.5
			c-0.31,0.33-0.87,0.49-1.66,0.49h-4.17C104.06,467.95,103.52,467.79,103.2,467.46z"/>
		<path d="M119.62,467.46c-0.31-0.33-0.47-0.83-0.47-1.5v-19.81c0-0.68,0.16-1.18,0.47-1.5c0.32-0.33,0.86-0.49,1.63-0.49h14.49
			c0.75,0,1.25,0.16,1.52,0.47c0.27,0.31,0.4,0.82,0.4,1.52v1.96c0,0.7-0.13,1.21-0.4,1.52c-0.27,0.31-0.78,0.47-1.52,0.47h-8.19
			v3.01h5.04c0.75,0,1.25,0.16,1.52,0.47c0.27,0.31,0.4,0.82,0.4,1.52V457c0,0.7-0.13,1.21-0.4,1.52c-0.27,0.32-0.78,0.47-1.52,0.47
			h-5.04V462h8.15c0.75,0,1.25,0.16,1.52,0.47c0.27,0.32,0.4,0.82,0.4,1.52v1.96c0,0.7-0.13,1.21-0.4,1.52
			c-0.27,0.32-0.78,0.47-1.52,0.47h-14.45C120.47,467.95,119.93,467.79,119.62,467.46z"/>
		<path d="M139.71,467.46c-0.31-0.33-0.47-0.83-0.47-1.5v-19.81c0-0.68,0.16-1.18,0.47-1.5c0.32-0.33,0.86-0.49,1.63-0.49h4.17
			c0.79,0,1.35,0.16,1.66,0.47c0.31,0.31,0.47,0.82,0.47,1.52V462h8.15c0.75,0,1.25,0.16,1.52,0.47c0.27,0.32,0.4,0.82,0.4,1.52
			v1.96c0,0.7-0.13,1.21-0.4,1.52c-0.27,0.32-0.78,0.47-1.52,0.47h-14.45C140.56,467.95,140.02,467.79,139.71,467.46z"/>
		<path d="M158.71,467.46c-0.31-0.33-0.47-0.83-0.47-1.5v-19.81c0-0.68,0.16-1.18,0.47-1.5c0.32-0.33,0.86-0.49,1.63-0.49h14.49
			c0.75,0,1.25,0.16,1.52,0.47c0.27,0.31,0.4,0.82,0.4,1.52v1.96c0,0.7-0.13,1.21-0.4,1.52c-0.27,0.31-0.78,0.47-1.52,0.47h-8.19
			v3.01h5.04c0.75,0,1.25,0.16,1.52,0.47c0.27,0.31,0.4,0.82,0.4,1.52V457c0,0.7-0.13,1.21-0.4,1.52c-0.27,0.32-0.78,0.47-1.52,0.47
			h-5.04V462h8.15c0.75,0,1.25,0.16,1.52,0.47c0.27,0.32,0.4,0.82,0.4,1.52v1.96c0,0.7-0.13,1.21-0.4,1.52
			c-0.27,0.32-0.78,0.47-1.52,0.47h-14.45C159.57,467.95,159.03,467.79,158.71,467.46z"/>
		<path d="M178.8,467.46c-0.31-0.33-0.47-0.83-0.47-1.5v-19.81c0-0.68,0.16-1.18,0.47-1.5c0.32-0.33,0.86-0.49,1.63-0.49h14.49
			c0.75,0,1.25,0.16,1.52,0.47c0.27,0.31,0.4,0.82,0.4,1.52v1.96c0,0.7-0.13,1.21-0.4,1.52c-0.27,0.31-0.78,0.47-1.52,0.47h-8.19
			v2.97h5.04c0.75,0,1.25,0.16,1.52,0.47c0.27,0.31,0.4,0.82,0.4,1.52v1.96c0,0.7-0.13,1.21-0.4,1.52
			c-0.27,0.32-0.78,0.47-1.52,0.47h-5.04v6.93c0,0.68-0.16,1.18-0.47,1.5c-0.31,0.33-0.87,0.49-1.66,0.49h-4.17
			C179.66,467.95,179.12,467.79,178.8,467.46z"/>
		<path d="M199.01,465.24c-2.15-2.16-3.22-5.22-3.22-9.19c0-3.97,1.07-7.03,3.22-9.19c2.15-2.16,5.3-3.24,9.45-3.24
			s7.3,1.08,9.45,3.24c2.15,2.16,3.22,5.22,3.22,9.19c0,3.97-1.07,7.03-3.22,9.19c-2.15,2.16-5.3,3.24-9.45,3.24
			S201.16,467.4,199.01,465.24z M211.75,460.97c0.68-1.08,1.02-2.72,1.02-4.92c0-2.22-0.34-3.86-1.02-4.93s-1.77-1.61-3.29-1.61
			c-1.52,0-2.61,0.54-3.29,1.61s-1.01,2.72-1.01,4.93c0,2.19,0.34,3.83,1.01,4.92s1.77,1.63,3.29,1.63
			C209.98,462.6,211.08,462.05,211.75,460.97z M204.75,441.21c0-0.19,0.04-0.38,0.1-0.59l1.47-4.06c0.19-0.54,0.41-0.9,0.67-1.09
			c0.26-0.19,0.73-0.28,1.44-0.28h5c0.49,0,0.88,0.09,1.15,0.26c0.28,0.17,0.42,0.43,0.42,0.75c0,0.28-0.09,0.57-0.28,0.88
			l-2.24,3.78c-0.33,0.56-0.64,0.92-0.95,1.08s-0.85,0.25-1.65,0.25h-3.75C205.22,442.19,204.75,441.87,204.75,441.21z"/>
		<path d="M223.35,467.46c-0.31-0.33-0.47-0.83-0.47-1.5v-19.84c0-0.68,0.16-1.17,0.47-1.49c0.32-0.32,0.87-0.47,1.66-0.47h3.33
			c0.49,0,0.87,0.06,1.14,0.19c0.27,0.13,0.53,0.38,0.79,0.75l6.33,9.42v-8.36c0-0.68,0.16-1.18,0.47-1.5
			c0.31-0.33,0.86-0.49,1.63-0.49h4.17c0.79,0,1.35,0.16,1.66,0.47c0.31,0.31,0.47,0.82,0.47,1.52v19.84c0,0.68-0.16,1.17-0.47,1.49
			c-0.31,0.32-0.87,0.47-1.66,0.47h-3.33c-0.49,0-0.87-0.06-1.14-0.19c-0.27-0.13-0.53-0.38-0.79-0.75l-6.33-9.42v8.4
			c0,0.68-0.16,1.17-0.47,1.49c-0.31,0.32-0.87,0.47-1.66,0.47h-4.17C224.21,467.95,223.67,467.79,223.35,467.46z"/>
		<path d="M247.92,467.46c-0.31-0.33-0.47-0.83-0.47-1.5v-19.81c0-0.68,0.16-1.18,0.47-1.5c0.32-0.33,0.86-0.49,1.63-0.49h4.17
			c0.79,0,1.35,0.16,1.66,0.47c0.31,0.31,0.47,0.82,0.47,1.52v19.81c0,0.68-0.16,1.18-0.47,1.5c-0.31,0.33-0.87,0.49-1.66,0.49
			h-4.17C248.78,467.95,248.24,467.79,247.92,467.46z"/>
		<path d="M261.14,465.34c-2.36-2.09-3.54-5.19-3.54-9.29c0-4.13,1.14-7.23,3.41-9.31c2.27-2.08,5.52-3.12,9.75-3.12
			c1.91,0,3.62,0.19,5.11,0.56c1.49,0.37,2.74,0.9,3.75,1.57c0.28,0.21,0.42,0.44,0.42,0.7c0,0.21-0.1,0.5-0.31,0.88l-1.75,3.01
			c-0.19,0.33-0.41,0.49-0.67,0.49c-0.16,0-0.43-0.09-0.81-0.28c-0.65-0.33-1.34-0.58-2.05-0.77c-0.71-0.19-1.55-0.28-2.5-0.28
			c-1.94,0-3.42,0.56-4.44,1.68c-1.03,1.12-1.54,2.74-1.54,4.86c0,2.1,0.56,3.72,1.68,4.85c1.12,1.13,2.65,1.7,4.58,1.7
			c1.68,0,3.22-0.35,4.62-1.05c0.37-0.19,0.64-0.28,0.81-0.28c0.26,0,0.48,0.16,0.67,0.49l1.75,3.01c0.21,0.37,0.31,0.67,0.31,0.88
			c0,0.26-0.14,0.49-0.42,0.7c-1,0.68-2.26,1.2-3.78,1.58c-1.52,0.37-3.23,0.56-5.15,0.56C266.8,468.48,263.49,467.43,261.14,465.34
			z"/>
		<path d="M283.08,465.24c-2.15-2.16-3.22-5.22-3.22-9.19c0-3.97,1.07-7.03,3.22-9.19c2.15-2.16,5.3-3.24,9.45-3.24
			s7.3,1.08,9.45,3.24c2.15,2.16,3.22,5.22,3.22,9.19c0,3.97-1.07,7.03-3.22,9.19c-2.15,2.16-5.3,3.24-9.45,3.24
			S285.23,467.4,283.08,465.24z M295.82,460.97c0.68-1.08,1.02-2.72,1.02-4.92c0-2.22-0.34-3.86-1.02-4.93s-1.77-1.61-3.29-1.61
			s-2.61,0.54-3.29,1.61s-1.01,2.72-1.01,4.93c0,2.19,0.34,3.83,1.01,4.92s1.77,1.63,3.29,1.63S295.15,462.05,295.82,460.97z"/>
	</g>
	<polygon class="st6" points="199.76,86.93 213.23,114.22 243.34,118.59 221.55,139.83 226.7,169.83 199.76,155.67 172.83,169.83 
		177.97,139.83 156.18,118.59 186.29,114.22 	"/>
	<polygon class="st6" points="137.58,170.15 146.32,187.86 165.86,190.7 151.72,204.48 155.06,223.94 137.58,214.75 120.11,223.94 
		123.45,204.48 109.31,190.7 128.85,187.86 	"/>
	<polygon class="st6" points="267.68,170.15 276.42,187.86 295.95,190.7 281.82,204.48 285.15,223.94 267.68,214.75 250.2,223.94 
		253.54,204.48 239.4,190.7 258.94,187.86 	"/>
	<circle class="st7" cx="200.77" cy="203.97" r="121.96"/>
	<circle class="st1" cx="199.82" cy="190.58" r="121.96"/>
	<g>
		<path class="st1" d="M188.93,633.16c-0.44-0.66-0.65-1.72-0.65-3.18v-4.09c0-1.46,0.22-2.52,0.65-3.18
			c0.44-0.66,1.26-0.99,2.47-0.99h3.58v-19.05l-2.33,1.9c-0.19,0.2-0.42,0.29-0.68,0.29c-0.34,0-0.63-0.22-0.85-0.66l-4.32-8.47
			c-0.15-0.24-0.23-0.51-0.23-0.8c0-0.49,0.21-0.88,0.63-1.17l10.74-8.32c0.45-0.34,0.89-0.58,1.31-0.73
			c0.42-0.15,1.02-0.22,1.82-0.22h4.15c1.25,0,2.13,0.34,2.64,1.02c0.51,0.68,0.77,1.73,0.77,3.14v33.07h3.64
			c1.21,0,2.04,0.33,2.47,0.99c0.44,0.66,0.65,1.72,0.65,3.18v4.09c0,1.46-0.22,2.52-0.65,3.18c-0.44,0.66-1.26,0.99-2.47,0.99
			H191.4C190.19,634.14,189.37,633.81,188.93,633.16z"/>
	</g>
	<g>
		<g>
			<polygon class="st78" points="119.96,170.36 198.85,142.62 149.6,132.19 			"/>
			<polygon class="st79" points="194.97,168.7 138.7,188.7 122.01,150 178.29,130 			"/>
			<polygon class="st80" points="167.63,177.42 120.09,170.88 137.62,211.53 			"/>
			<polygon class="st80" points="168.78,176.68 198.79,142.57 216.32,183.23 			"/>
			<polygon class="st81" points="137.7,211.5 167.54,177.32 216.38,183.28 			"/>
		</g>
		<g>
			<polygon class="st78" points="209.4,155.1 291.92,172.02 257.44,138.42 			"/>
			<polygon class="st79" points="272.69,191.7 213.69,179.81 223.61,139.24 282.6,151.13 			"/>
			<polygon class="st80" points="244.63,185.1 209.19,155.59 198.78,198.21 			"/>
			<polygon class="st80" points="246.04,185.07 291.9,171.95 281.48,214.57 			"/>
			<polygon class="st81" points="198.86,198.23 244.62,184.97 281.5,214.64 			"/>
		</g>
		<g>
			<polygon class="st78" points="159.5,206.85 244.03,203.89 201.18,179.49 			"/>
			<polygon class="st79" points="231.03,227.4 170.65,229.72 168.72,188.2 229.1,185.88 			"/>
			<polygon class="st80" points="202.05,227.59 159.43,207.38 161.47,251 			"/>
			<polygon class="st80" points="203.4,227.23 243.99,203.83 246.02,247.45 			"/>
			<polygon class="st81" points="161.55,251 202,227.47 246.06,247.51 			"/>
		</g>
	</g>
</g>
</svg>
