<?xml version="1.0" encoding="utf-8"?>
<!-- Generator: Adobe Illustrator 23.0.0, SVG Export Plug-In . SVG Version: 6.00 Build 0)  -->
<svg version="1.1" id="Capa_1" xmlns="http://www.w3.org/2000/svg" xmlns:xlink="http://www.w3.org/1999/xlink" x="0px" y="0px"
	 viewBox="0 0 400 689" style="enable-background:new 0 0 400 689;" xml:space="preserve">
<style type="text/css">
	.st0{fill:#E2E2E2;}
	.st1{fill:#FFFFFF;}
	.st2{fill:#CCCDCE;}
	.st3{fill:#F2F2F2;}
	.st4{fill:none;}
	.st5{fill:#0085B0;}
	.st6{fill:#E0EF18;}
	.st7{fill:#CECECE;}
	.st8{fill:#22272F;}
	.st9{fill:#1B2538;}
	.st10{fill:#253452;}
	.st11{fill:#F9F9F9;}
	.st12{fill:#2D3543;}
	.st13{fill:#2A3D60;}
	.st14{fill:#6C92D5;}
	.st15{fill:#587955;}
	.st16{fill:#CD7054;}
	.st17{fill:#F1CC4B;}
	.st18{fill:#DFDFDF;}
	.st19{fill:#ACACAC;}
	.st20{fill:#00D13C;}
	.st21{fill:#866A5E;}
	.st22{fill:#F7DDCB;}
	.st23{fill:#FFE6D4;}
	.st24{fill:#2D2D2D;}
	.st25{fill:#1C1B1A;}
	.st26{fill:#F5F5F5;}
	.st27{fill:#77181C;}
	.st28{fill:#EAEAEA;}
	.st29{fill:#262525;}
	.st30{fill:#11100F;}
	.st31{fill:#FFFFFF;stroke:#000000;stroke-width:6;stroke-miterlimit:10;}
	.st32{fill:#D4D4D4;}
	.st33{fill:#C2C2C2;}
	.st34{fill:#505050;}
	.st35{fill:#53C2C9;}
	.st36{fill:#008B9C;}
	.st37{fill:none;stroke:#00550B;stroke-width:4;stroke-miterlimit:10;}
	.st38{fill:#CE2458;}
	.st39{fill:#155500;}
	.st40{fill:#1549FF;}
	.st41{fill:#606060;stroke:#C6C8CC;stroke-width:6;stroke-miterlimit:10;}
	.st42{fill:#727272;}
	.st43{fill:#207235;}
	.st44{fill:#A3A3A3;}
	.st45{fill:#BCBCBC;}
	.st46{fill:#2A5936;}
	.st47{opacity:0.7;fill:#7F7F7F;}
	.st48{fill:#DAA449;}
	.st49{fill:#85B681;}
	.st50{fill:#A1DC9B;}
	.st51{fill:#90C58B;}
	.st52{fill:#DD9225;}
	.st53{opacity:0.3;}
	.st54{fill:#81C378;}
	.st55{opacity:0.5;}
	.st56{fill:#A2CADE;}
	.st57{fill:#9BAEC9;}
	.st58{fill:#9D2B3B;}
	.st59{fill:#C1D4F2;}
	.st60{fill:#534D46;}
	.st61{fill:#191819;}
	.st62{fill:#222123;}
	.st63{fill:#F3FF00;}
	.st64{fill-rule:evenodd;clip-rule:evenodd;fill:#FFFFFF;}
	.st65{fill-rule:evenodd;clip-rule:evenodd;fill:#1996B8;}
	.st66{fill:none;stroke:#5A605A;stroke-width:4;stroke-miterlimit:10;}
	.st67{fill:#FFB412;}
	.st68{fill:#BACDD1;}
	.st69{fill:#1C4D59;}
	.st70{fill:#A14329;}
	.st71{fill:#FCC083;}
	.st72{fill:#E8AA63;}
	.st73{fill:#D40000;}
	.st74{opacity:0.35;fill:#7D7D7D;}
	.st75{fill:#E5E3E3;}
	.st76{fill:#121F5E;}
	.st77{fill:#A3ADAF;}
	.st78{fill:#C2C6C6;}
	.st79{fill:#E5E5E5;stroke:#FFFFFF;stroke-miterlimit:10;}
	.st80{fill:#ACB4B5;}
	.st81{fill:#7F8384;}
	.st82{fill:#282828;}
	.st83{fill:none;stroke:#46A508;stroke-width:6;stroke-miterlimit:10;}
	.st84{fill:none;stroke:#46A508;stroke-width:6;stroke-miterlimit:10;stroke-dasharray:11.7425,11.7425;}
	.st85{fill:#C89D76;}
	.st86{opacity:0.4;}
	.st87{fill:#ADADAD;}
	.st88{fill:#76A172;}
	.st89{fill:#62835F;}
	.st90{fill:#96D090;}
	.st91{fill:#EDC3A6;}
	.st92{opacity:0.69;}
	.st93{fill:#E5D3D6;}
	.st94{opacity:0.44;}
	.st95{fill:#A5A5A5;}
	.st96{fill:#DDE5E4;}
	.st97{fill:#FDFDFD;}
	.st98{fill:#E0C348;}
	.st99{fill:#606060;}
</style>
<g>
	<g>
		<path class="st20" d="M8.5,199.36c0,22,13.29,27.86,29.54,13.03c0,0,156.99-143.3,353.09,26.97V45c0-22-18-40-40-40H48.5
			c-22,0-40,18-40,40V199.36z"/>
	</g>
	<g>
		<path class="st20" d="M390.66,637c0,22-18,40-40,40H48.98c-22,0-40-18-40-40v-46.27c0-22,18-40,40-40h301.68c22,0,40,18,40,40V637
			z"/>
	</g>
	<g>
		<path d="M89.16,358.57c-2.16-1.91-3.23-4.74-3.23-8.5c0-3.78,1.04-6.61,3.12-8.51s5.05-2.85,8.91-2.85c1.75,0,3.31,0.17,4.67,0.51
			c1.37,0.34,2.51,0.82,3.42,1.44c0.26,0.19,0.38,0.41,0.38,0.64c0,0.19-0.1,0.46-0.29,0.8l-1.6,2.75c-0.17,0.3-0.37,0.45-0.61,0.45
			c-0.15,0-0.39-0.08-0.74-0.26c-0.6-0.3-1.22-0.53-1.87-0.7c-0.65-0.17-1.41-0.26-2.29-0.26c-1.77,0-3.13,0.51-4.06,1.54
			c-0.94,1.02-1.41,2.51-1.41,4.45c0,1.92,0.51,3.4,1.54,4.43c1.02,1.04,2.42,1.55,4.19,1.55c1.54,0,2.94-0.32,4.22-0.96
			c0.34-0.17,0.59-0.26,0.74-0.26c0.23,0,0.44,0.15,0.61,0.45l1.6,2.75c0.19,0.34,0.29,0.61,0.29,0.8c0,0.24-0.13,0.45-0.38,0.64
			c-0.92,0.62-2.07,1.1-3.46,1.44c-1.39,0.34-2.96,0.51-4.71,0.51C94.33,361.43,91.32,360.48,89.16,358.57z"/>
		<path d="M109.22,358.47c-1.96-1.97-2.94-4.77-2.94-8.4s0.98-6.43,2.94-8.4c1.96-1.97,4.84-2.96,8.64-2.96s6.68,0.99,8.64,2.96
			c1.96,1.97,2.94,4.77,2.94,8.4s-0.98,6.43-2.94,8.4c-1.96,1.97-4.84,2.96-8.64,2.96S111.19,360.45,109.22,358.47z M120.87,354.57
			c0.62-0.99,0.93-2.49,0.93-4.5c0-2.03-0.31-3.53-0.93-4.51s-1.62-1.47-3.01-1.47s-2.39,0.49-3.01,1.47
			c-0.62,0.98-0.93,2.49-0.93,4.51c0,2.01,0.31,3.5,0.93,4.5c0.62,0.99,1.62,1.49,3.01,1.49S120.25,355.56,120.87,354.57z"/>
		<path d="M130.36,360.5c-0.29-0.3-0.43-0.76-0.43-1.38v-18.14c0-0.62,0.14-1.07,0.43-1.36c0.29-0.29,0.79-0.43,1.52-0.43h3.68
			c0.47,0,0.84,0.06,1.12,0.18c0.28,0.12,0.49,0.35,0.64,0.69l3.74,9.38l3.74-9.38c0.15-0.34,0.36-0.57,0.64-0.69
			c0.28-0.12,0.65-0.18,1.12-0.18h3.68c0.72,0,1.23,0.14,1.52,0.43s0.43,0.74,0.43,1.36v18.14c0,0.62-0.14,1.08-0.43,1.38
			c-0.29,0.3-0.78,0.45-1.49,0.45h-3.07c-0.7,0-1.21-0.15-1.5-0.45c-0.3-0.3-0.45-0.76-0.45-1.38v-8.74l-1.89,4.35
			c-0.26,0.62-0.53,1.06-0.83,1.33s-0.79,0.4-1.47,0.4s-1.17-0.13-1.47-0.4s-0.58-0.71-0.83-1.33l-1.89-4.35v8.74
			c0,0.62-0.14,1.08-0.43,1.38c-0.29,0.3-0.79,0.45-1.52,0.45h-3.07C131.15,360.95,130.65,360.8,130.36,360.5z"/>
		<path d="M159.27,360.42c-1.58-0.67-2.81-1.64-3.68-2.91c-0.88-1.27-1.31-2.78-1.31-4.53v-11.97c0-0.62,0.14-1.08,0.43-1.38
			c0.29-0.3,0.78-0.45,1.49-0.45h3.81c0.72,0,1.23,0.14,1.52,0.43s0.43,0.75,0.43,1.39v12.06c0,1,0.25,1.75,0.75,2.24
			c0.5,0.49,1.19,0.74,2.06,0.74s1.56-0.24,2.06-0.74c0.5-0.49,0.75-1.24,0.75-2.24v-12.06c0-0.62,0.14-1.08,0.43-1.38
			s0.78-0.45,1.49-0.45h3.81c0.73,0,1.23,0.14,1.52,0.43c0.29,0.29,0.43,0.75,0.43,1.39v11.97c0,1.75-0.44,3.26-1.31,4.53
			c-0.88,1.27-2.1,2.24-3.68,2.91c-1.58,0.67-3.41,1.01-5.5,1.01C162.69,361.43,160.85,361.1,159.27,360.42z"/>
		<path d="M177.79,360.5c-0.29-0.3-0.43-0.76-0.43-1.38v-18.14c0-0.62,0.14-1.07,0.43-1.36c0.29-0.29,0.79-0.43,1.52-0.43h3.04
			c0.45,0,0.79,0.06,1.04,0.18c0.25,0.12,0.49,0.35,0.72,0.69l5.79,8.61v-7.65c0-0.62,0.14-1.08,0.43-1.38s0.78-0.45,1.49-0.45h3.81
			c0.72,0,1.23,0.14,1.52,0.43c0.29,0.29,0.43,0.75,0.43,1.39v18.14c0,0.62-0.14,1.07-0.43,1.36c-0.29,0.29-0.79,0.43-1.52,0.43
			h-3.04c-0.45,0-0.79-0.06-1.04-0.18c-0.25-0.12-0.49-0.35-0.72-0.69l-5.79-8.61v7.68c0,0.62-0.14,1.07-0.43,1.36
			c-0.29,0.29-0.79,0.43-1.52,0.43h-3.81C178.57,360.95,178.07,360.8,177.79,360.5z"/>
		<path d="M200.25,360.5c-0.29-0.3-0.43-0.76-0.43-1.38v-18.11c0-0.62,0.14-1.08,0.43-1.38c0.29-0.3,0.79-0.45,1.49-0.45h3.81
			c0.72,0,1.23,0.14,1.52,0.43c0.29,0.29,0.43,0.75,0.43,1.39v18.11c0,0.62-0.14,1.08-0.43,1.38c-0.29,0.3-0.79,0.45-1.52,0.45
			h-3.81C201.03,360.95,200.54,360.8,200.25,360.5z"/>
		<path d="M212.33,358.57c-2.15-1.91-3.23-4.74-3.23-8.5c0-3.78,1.04-6.61,3.12-8.51s5.05-2.85,8.91-2.85
			c1.75,0,3.31,0.17,4.67,0.51c1.37,0.34,2.51,0.82,3.42,1.44c0.26,0.19,0.38,0.41,0.38,0.64c0,0.19-0.1,0.46-0.29,0.8l-1.6,2.75
			c-0.17,0.3-0.37,0.45-0.61,0.45c-0.15,0-0.4-0.08-0.74-0.26c-0.6-0.3-1.22-0.53-1.87-0.7c-0.65-0.17-1.41-0.26-2.29-0.26
			c-1.77,0-3.13,0.51-4.06,1.54c-0.94,1.02-1.41,2.51-1.41,4.45c0,1.92,0.51,3.4,1.54,4.43c1.02,1.04,2.42,1.55,4.19,1.55
			c1.54,0,2.94-0.32,4.22-0.96c0.34-0.17,0.59-0.26,0.74-0.26c0.23,0,0.44,0.15,0.61,0.45l1.6,2.75c0.19,0.34,0.29,0.61,0.29,0.8
			c0,0.24-0.13,0.45-0.38,0.64c-0.92,0.62-2.07,1.1-3.46,1.44c-1.39,0.34-2.96,0.51-4.7,0.51
			C217.5,361.43,214.48,360.48,212.33,358.57z"/>
		<path d="M230.09,360.28c0-0.19,0.05-0.43,0.16-0.7l7.97-19.17c0.19-0.45,0.41-0.76,0.66-0.94c0.24-0.18,0.59-0.27,1.04-0.27h3.49
			c0.45,0,0.79,0.09,1.04,0.27c0.24,0.18,0.46,0.5,0.66,0.94l7.94,19.17c0.11,0.28,0.16,0.51,0.16,0.7c0,0.45-0.24,0.67-0.71,0.67
			h-6.02c-0.66,0-1.08-0.29-1.25-0.86l-0.77-2.37h-5.66l-0.74,2.37c-0.17,0.58-0.59,0.86-1.25,0.86h-6.02
			C230.32,360.95,230.09,360.73,230.09,360.28z M242.89,352.66l-1.25-3.97l-1.25,3.97H242.89z"/>
		<path d="M255.63,358.57c-2.15-1.91-3.23-4.74-3.23-8.5c0-3.78,1.04-6.61,3.12-8.51s5.05-2.85,8.91-2.85
			c1.75,0,3.31,0.17,4.67,0.51c1.36,0.34,2.51,0.82,3.42,1.44c0.26,0.19,0.38,0.41,0.38,0.64c0,0.19-0.1,0.46-0.29,0.8l-1.6,2.75
			c-0.17,0.3-0.37,0.45-0.61,0.45c-0.15,0-0.4-0.08-0.74-0.26c-0.6-0.3-1.22-0.53-1.87-0.7c-0.65-0.17-1.41-0.26-2.29-0.26
			c-1.77,0-3.13,0.51-4.06,1.54c-0.94,1.02-1.41,2.51-1.41,4.45c0,1.92,0.51,3.4,1.54,4.43c1.02,1.04,2.42,1.55,4.19,1.55
			c1.54,0,2.94-0.32,4.22-0.96c0.34-0.17,0.59-0.26,0.74-0.26c0.23,0,0.44,0.15,0.61,0.45l1.6,2.75c0.19,0.34,0.29,0.61,0.29,0.8
			c0,0.24-0.13,0.45-0.38,0.64c-0.92,0.62-2.07,1.1-3.46,1.44s-2.96,0.51-4.7,0.51C260.8,361.43,257.78,360.48,255.63,358.57z"/>
		<path d="M275.26,360.5c-0.29-0.3-0.43-0.76-0.43-1.38v-18.11c0-0.62,0.14-1.08,0.43-1.38s0.78-0.45,1.49-0.45h3.81
			c0.73,0,1.23,0.14,1.52,0.43s0.43,0.75,0.43,1.39v18.11c0,0.62-0.14,1.08-0.43,1.38c-0.29,0.3-0.79,0.45-1.52,0.45h-3.81
			C276.04,360.95,275.54,360.8,275.26,360.5z"/>
		<path d="M287.05,358.47c-1.96-1.97-2.94-4.77-2.94-8.4s0.98-6.43,2.94-8.4c1.96-1.97,4.84-2.96,8.64-2.96
			c3.8,0,6.68,0.99,8.64,2.96c1.96,1.97,2.94,4.77,2.94,8.4s-0.98,6.43-2.94,8.4c-1.96,1.97-4.84,2.96-8.64,2.96
			C291.89,361.43,289.01,360.45,287.05,358.47z M298.7,354.57c0.62-0.99,0.93-2.49,0.93-4.5c0-2.03-0.31-3.53-0.93-4.51
			c-0.62-0.98-1.62-1.47-3.01-1.47c-1.39,0-2.39,0.49-3.01,1.47c-0.62,0.98-0.93,2.49-0.93,4.51c0,2.01,0.31,3.5,0.93,4.5
			c0.62,0.99,1.62,1.49,3.01,1.49C297.08,356.06,298.08,355.56,298.7,354.57z M292.3,336.5c0-0.17,0.03-0.35,0.1-0.54l1.34-3.71
			c0.17-0.49,0.37-0.82,0.61-0.99c0.23-0.17,0.67-0.26,1.31-0.26h4.58c0.45,0,0.8,0.08,1.06,0.24s0.38,0.39,0.38,0.69
			c0,0.26-0.08,0.52-0.26,0.8l-2.05,3.46c-0.3,0.51-0.59,0.84-0.86,0.99c-0.28,0.15-0.78,0.22-1.5,0.22h-3.42
			C292.72,337.4,292.3,337.1,292.3,336.5z"/>
		<path d="M309.3,360.5c-0.29-0.3-0.43-0.76-0.43-1.38v-18.14c0-0.62,0.14-1.07,0.43-1.36c0.29-0.29,0.79-0.43,1.52-0.43h3.04
			c0.45,0,0.79,0.06,1.04,0.18c0.25,0.12,0.49,0.35,0.72,0.69l5.79,8.61v-7.65c0-0.62,0.14-1.08,0.43-1.38
			c0.29-0.3,0.78-0.45,1.49-0.45h3.81c0.73,0,1.23,0.14,1.52,0.43s0.43,0.75,0.43,1.39v18.14c0,0.62-0.14,1.07-0.43,1.36
			s-0.79,0.43-1.52,0.43h-3.04c-0.45,0-0.79-0.06-1.04-0.18c-0.25-0.12-0.48-0.35-0.72-0.69l-5.79-8.61v7.68
			c0,0.62-0.14,1.07-0.43,1.36c-0.29,0.29-0.79,0.43-1.52,0.43h-3.81C310.09,360.95,309.59,360.8,309.3,360.5z"/>
		<path d="M57.75,398.9c-0.29-0.3-0.43-0.76-0.43-1.38v-18.11c0-0.62,0.14-1.08,0.43-1.38c0.29-0.3,0.78-0.45,1.49-0.45h13.25
			c0.68,0,1.15,0.14,1.39,0.43c0.24,0.29,0.37,0.75,0.37,1.39v1.79c0,0.64-0.12,1.1-0.37,1.39c-0.25,0.29-0.71,0.43-1.39,0.43H65
			v2.75h4.61c0.68,0,1.15,0.14,1.39,0.43s0.37,0.75,0.37,1.39v1.73c0,0.64-0.12,1.1-0.37,1.39s-0.71,0.43-1.39,0.43H65v2.75h7.46
			c0.68,0,1.15,0.14,1.39,0.43c0.25,0.29,0.37,0.75,0.37,1.39v1.79c0,0.64-0.12,1.1-0.37,1.39c-0.25,0.29-0.71,0.43-1.39,0.43H59.24
			C58.54,399.35,58.04,399.2,57.75,398.9z"/>
		<path d="M76.12,398.9c-0.29-0.3-0.43-0.76-0.43-1.38v-18.11c0-0.62,0.14-1.08,0.43-1.38c0.29-0.3,0.79-0.45,1.49-0.45h13.25
			c0.68,0,1.15,0.14,1.39,0.43c0.24,0.29,0.37,0.75,0.37,1.39v1.79c0,0.64-0.12,1.1-0.37,1.39c-0.25,0.29-0.71,0.43-1.39,0.43h-7.49
			v2.72h4.61c0.68,0,1.15,0.14,1.39,0.43c0.25,0.29,0.37,0.75,0.37,1.39v1.79c0,0.64-0.12,1.1-0.37,1.39
			c-0.24,0.29-0.71,0.43-1.39,0.43h-4.61v6.34c0,0.62-0.14,1.08-0.43,1.38c-0.29,0.3-0.79,0.45-1.52,0.45h-3.81
			C76.91,399.35,76.41,399.2,76.12,398.9z"/>
		<path d="M94.17,398.9c-0.29-0.3-0.43-0.76-0.43-1.38v-18.11c0-0.62,0.14-1.08,0.43-1.38c0.29-0.3,0.78-0.45,1.49-0.45h3.81
			c0.73,0,1.23,0.14,1.52,0.43c0.29,0.29,0.43,0.75,0.43,1.39v18.11c0,0.62-0.14,1.08-0.43,1.38c-0.29,0.3-0.79,0.45-1.52,0.45
			h-3.81C94.95,399.35,94.46,399.2,94.17,398.9z"/>
		<path d="M106.25,396.97c-2.16-1.91-3.23-4.74-3.23-8.5c0-3.78,1.04-6.61,3.12-8.51s5.05-2.85,8.91-2.85
			c1.75,0,3.31,0.17,4.67,0.51c1.36,0.34,2.51,0.82,3.42,1.44c0.26,0.19,0.38,0.41,0.38,0.64c0,0.19-0.1,0.46-0.29,0.8l-1.6,2.75
			c-0.17,0.3-0.37,0.45-0.61,0.45c-0.15,0-0.39-0.08-0.74-0.26c-0.6-0.3-1.22-0.53-1.87-0.7c-0.65-0.17-1.41-0.26-2.29-0.26
			c-1.77,0-3.13,0.51-4.06,1.54c-0.94,1.02-1.41,2.51-1.41,4.45c0,1.92,0.51,3.4,1.54,4.43c1.02,1.04,2.42,1.55,4.19,1.55
			c1.54,0,2.94-0.32,4.22-0.96c0.34-0.17,0.59-0.26,0.74-0.26c0.23,0,0.44,0.15,0.61,0.45l1.6,2.75c0.19,0.34,0.29,0.61,0.29,0.8
			c0,0.24-0.13,0.45-0.38,0.64c-0.92,0.62-2.07,1.1-3.46,1.44s-2.96,0.51-4.7,0.51C111.42,399.83,108.4,398.88,106.25,396.97z"/>
		<path d="M124.01,398.68c0-0.19,0.05-0.43,0.16-0.7l7.97-19.17c0.19-0.45,0.41-0.76,0.66-0.94c0.25-0.18,0.59-0.27,1.04-0.27h3.49
			c0.45,0,0.79,0.09,1.04,0.27c0.25,0.18,0.46,0.5,0.66,0.94l7.94,19.17c0.11,0.28,0.16,0.51,0.16,0.7c0,0.45-0.23,0.67-0.7,0.67
			h-6.02c-0.66,0-1.08-0.29-1.25-0.86l-0.77-2.37h-5.66l-0.74,2.37c-0.17,0.58-0.59,0.86-1.25,0.86h-6.02
			C124.24,399.35,124.01,399.13,124.01,398.68z M136.81,391.06l-1.25-3.97l-1.25,3.97H136.81z"/>
		<path d="M147.91,398.98c-0.21-0.25-0.32-0.7-0.32-1.36c0-0.68,0.06-1.22,0.18-1.6s0.41-0.88,0.88-1.5l8.42-11.49h-7.39
			c-0.7,0-1.2-0.15-1.49-0.45c-0.29-0.3-0.43-0.76-0.43-1.38v-1.79c0-0.62,0.14-1.08,0.43-1.38c0.29-0.3,0.78-0.45,1.49-0.45h15.81
			c0.64,0,1.07,0.12,1.28,0.37s0.32,0.7,0.32,1.36c0,0.66-0.06,1.18-0.18,1.57c-0.12,0.38-0.41,0.9-0.88,1.54l-8.35,11.49h7.55
			c0.7,0,1.2,0.15,1.49,0.45c0.29,0.3,0.43,0.76,0.43,1.38v1.79c0,0.62-0.14,1.08-0.43,1.38c-0.29,0.3-0.78,0.45-1.49,0.45h-16.03
			C148.55,399.35,148.13,399.23,147.91,398.98z"/>
		<path d="M178.78,398.9c-0.29-0.3-0.43-0.76-0.43-1.38v-18.11c0-0.62,0.14-1.08,0.43-1.38c0.29-0.3,0.78-0.45,1.49-0.45h7.65
			c3.2,0,5.53,0.63,6.99,1.9c1.46,1.27,2.19,3.18,2.19,5.74c0,2.56-0.73,4.47-2.19,5.73c-1.46,1.26-3.78,1.89-6.96,1.89h-1.92v4.67
			c0,0.62-0.14,1.08-0.43,1.38c-0.29,0.3-0.79,0.45-1.52,0.45h-3.81C179.56,399.35,179.06,399.2,178.78,398.9z M187.24,387.42
			c0.68,0,1.22-0.18,1.62-0.54c0.39-0.36,0.59-0.91,0.59-1.63c0-0.75-0.2-1.3-0.59-1.66c-0.4-0.36-0.93-0.54-1.62-0.54h-2.18v4.38
			H187.24z"/>
		<path d="M194.22,398.68c0-0.19,0.05-0.43,0.16-0.7l7.97-19.17c0.19-0.45,0.41-0.76,0.66-0.94c0.24-0.18,0.59-0.27,1.04-0.27h3.49
			c0.45,0,0.79,0.09,1.04,0.27c0.25,0.18,0.46,0.5,0.66,0.94l7.94,19.17c0.11,0.28,0.16,0.51,0.16,0.7c0,0.45-0.24,0.67-0.7,0.67
			h-6.02c-0.66,0-1.08-0.29-1.25-0.86l-0.77-2.37h-5.66l-0.74,2.37c-0.17,0.58-0.59,0.86-1.25,0.86h-6.02
			C194.45,399.35,194.22,399.13,194.22,398.68z M207.02,391.06l-1.25-3.97l-1.25,3.97H207.02z"/>
		<path d="M219.35,398.9c-0.29-0.3-0.43-0.76-0.43-1.38v-18.11c0-0.62,0.14-1.08,0.43-1.38c0.29-0.3,0.78-0.45,1.49-0.45h7.65
			c3.2,0,5.53,0.63,6.99,1.9c1.46,1.27,2.19,3.18,2.19,5.74c0,1.54-0.26,2.83-0.79,3.89c-0.52,1.06-1.33,1.88-2.42,2.48l2.98,6.37
			c0.08,0.17,0.13,0.36,0.13,0.58c0,0.23-0.08,0.43-0.24,0.58c-0.16,0.15-0.37,0.22-0.63,0.22h-5.41c-0.34,0-0.61-0.05-0.82-0.14
			c-0.2-0.1-0.35-0.26-0.43-0.5l-2.37-5.95h-1.09v4.77c0,0.62-0.14,1.08-0.43,1.38c-0.29,0.3-0.79,0.45-1.52,0.45h-3.81
			C220.14,399.35,219.64,399.2,219.35,398.9z M227.82,387.42c0.68,0,1.22-0.18,1.62-0.54c0.39-0.36,0.59-0.91,0.59-1.63
			c0-0.75-0.2-1.3-0.59-1.66c-0.4-0.36-0.93-0.54-1.62-0.54h-2.18v4.38H227.82z"/>
		<path d="M237.19,398.68c0-0.19,0.05-0.43,0.16-0.7l7.97-19.17c0.19-0.45,0.41-0.76,0.66-0.94c0.25-0.18,0.59-0.27,1.04-0.27h3.49
			c0.45,0,0.79,0.09,1.04,0.27c0.25,0.18,0.46,0.5,0.66,0.94l7.94,19.17c0.11,0.28,0.16,0.51,0.16,0.7c0,0.45-0.23,0.67-0.7,0.67
			h-6.02c-0.66,0-1.08-0.29-1.25-0.86l-0.77-2.37h-5.66l-0.74,2.37c-0.17,0.58-0.59,0.86-1.25,0.86h-6.02
			C237.43,399.35,237.19,399.13,237.19,398.68z M249.99,391.06l-1.25-3.97l-1.25,3.97H249.99z"/>
		<path d="M277.02,398.9c-0.29-0.3-0.43-0.76-0.43-1.38v-14.5h-4.61c-0.68,0-1.15-0.14-1.39-0.43c-0.24-0.29-0.37-0.75-0.37-1.39
			v-1.79c0-0.64,0.12-1.1,0.37-1.39c0.25-0.29,0.71-0.43,1.39-0.43h16.9c0.68,0,1.15,0.14,1.39,0.43s0.37,0.75,0.37,1.39v1.79
			c0,0.64-0.12,1.1-0.37,1.39s-0.71,0.43-1.39,0.43h-4.61v14.5c0,0.62-0.14,1.08-0.43,1.38c-0.29,0.3-0.79,0.45-1.52,0.45h-3.81
			C277.8,399.35,277.3,399.2,277.02,398.9z"/>
		<path d="M292.46,396.87c-1.96-1.97-2.94-4.77-2.94-8.4s0.98-6.43,2.94-8.4c1.96-1.97,4.84-2.96,8.64-2.96s6.68,0.99,8.64,2.96
			c1.96,1.97,2.94,4.77,2.94,8.4s-0.98,6.43-2.94,8.4c-1.96,1.97-4.84,2.96-8.64,2.96S294.42,398.85,292.46,396.87z M304.1,392.97
			c0.62-0.99,0.93-2.49,0.93-4.5c0-2.03-0.31-3.53-0.93-4.51c-0.62-0.98-1.62-1.47-3.01-1.47s-2.39,0.49-3.01,1.47
			s-0.93,2.49-0.93,4.51c0,2.01,0.31,3.5,0.93,4.5s1.62,1.49,3.01,1.49S303.49,393.96,304.1,392.97z"/>
		<path d="M314.71,398.9c-0.29-0.3-0.43-0.76-0.43-1.38v-18.11c0-0.62,0.14-1.08,0.43-1.38s0.78-0.45,1.49-0.45h7.36
			c7.53,0,11.29,3.63,11.29,10.88c0,3.58-0.96,6.29-2.9,8.13s-4.73,2.75-8.4,2.75h-7.36C315.5,399.35,315,399.2,314.71,398.9z
			 M323.85,393.91c1.2,0,2.05-0.39,2.58-1.18c0.52-0.79,0.78-2.21,0.78-4.26s-0.26-3.47-0.78-4.26c-0.52-0.79-1.38-1.18-2.58-1.18
			h-1.89v10.88H323.85z"/>
		<path d="M338.76,396.87c-1.96-1.97-2.94-4.77-2.94-8.4s0.98-6.43,2.94-8.4c1.96-1.97,4.84-2.96,8.64-2.96
			c3.8,0,6.68,0.99,8.64,2.96c1.96,1.97,2.94,4.77,2.94,8.4s-0.98,6.43-2.94,8.4c-1.96,1.97-4.84,2.96-8.64,2.96
			C343.6,399.83,340.72,398.85,338.76,396.87z M350.41,392.97c0.62-0.99,0.93-2.49,0.93-4.5c0-2.03-0.31-3.53-0.93-4.51
			c-0.62-0.98-1.62-1.47-3.01-1.47c-1.39,0-2.39,0.49-3.01,1.47c-0.62,0.98-0.93,2.49-0.93,4.51c0,2.01,0.31,3.5,0.93,4.5
			c0.62,0.99,1.62,1.49,3.01,1.49C348.79,394.46,349.79,393.96,350.41,392.97z"/>
		<path d="M61.26,437.3c-0.29-0.3-0.43-0.76-0.43-1.38v-14.5h-4.61c-0.68,0-1.15-0.14-1.39-0.43s-0.37-0.75-0.37-1.39v-1.79
			c0-0.64,0.12-1.1,0.37-1.39s0.71-0.43,1.39-0.43h16.9c0.68,0,1.15,0.14,1.39,0.43s0.37,0.75,0.37,1.39v1.79
			c0,0.64-0.12,1.1-0.37,1.39s-0.71,0.43-1.39,0.43h-4.61v14.5c0,0.62-0.14,1.08-0.43,1.38c-0.29,0.3-0.79,0.45-1.52,0.45h-3.81
			C62.04,437.75,61.55,437.6,61.26,437.3z"/>
		<path d="M76.27,437.3c-0.29-0.3-0.43-0.76-0.43-1.38v-18.11c0-0.62,0.14-1.08,0.43-1.38c0.29-0.3,0.78-0.45,1.49-0.45h3.81
			c0.72,0,1.23,0.14,1.52,0.43c0.29,0.29,0.43,0.75,0.43,1.39v18.11c0,0.62-0.14,1.08-0.43,1.38c-0.29,0.3-0.79,0.45-1.52,0.45
			h-3.81C77.05,437.75,76.55,437.6,76.27,437.3z"/>
		<path d="M86.19,437.3c-0.29-0.3-0.43-0.76-0.43-1.38v-18.11c0-0.62,0.14-1.08,0.43-1.38c0.29-0.3,0.78-0.45,1.49-0.45h7.65
			c3.2,0,5.53,0.63,6.99,1.9c1.46,1.27,2.19,3.18,2.19,5.74c0,2.56-0.73,4.47-2.19,5.73c-1.46,1.26-3.78,1.89-6.96,1.89h-1.92v4.67
			c0,0.62-0.14,1.08-0.43,1.38c-0.29,0.3-0.79,0.45-1.52,0.45h-3.81C86.97,437.75,86.47,437.6,86.19,437.3z M94.65,425.82
			c0.68,0,1.22-0.18,1.62-0.54c0.39-0.36,0.59-0.91,0.59-1.63c0-0.75-0.2-1.3-0.59-1.66c-0.39-0.36-0.93-0.54-1.62-0.54h-2.18v4.38
			H94.65z"/>
		<path d="M106.97,435.27c-1.96-1.97-2.94-4.77-2.94-8.4s0.98-6.43,2.94-8.4c1.96-1.97,4.84-2.96,8.64-2.96s6.68,0.99,8.64,2.96
			c1.96,1.97,2.94,4.77,2.94,8.4s-0.98,6.43-2.94,8.4c-1.96,1.97-4.84,2.96-8.64,2.96S108.93,437.25,106.97,435.27z M118.62,431.37
			c0.62-0.99,0.93-2.49,0.93-4.5c0-2.03-0.31-3.53-0.93-4.51c-0.62-0.98-1.62-1.47-3.01-1.47s-2.39,0.49-3.01,1.47
			s-0.93,2.49-0.93,4.51c0,2.01,0.31,3.5,0.93,4.5s1.62,1.49,3.01,1.49S118,432.36,118.62,431.37z"/>
		<path d="M138.83,437.3c-0.29-0.3-0.43-0.76-0.43-1.38v-18.11c0-0.62,0.14-1.08,0.43-1.38s0.78-0.45,1.49-0.45h7.36
			c7.53,0,11.29,3.63,11.29,10.88c0,3.58-0.96,6.29-2.9,8.13s-4.73,2.75-8.4,2.75h-7.36C139.61,437.75,139.11,437.6,138.83,437.3z
			 M147.96,432.31c1.2,0,2.05-0.39,2.58-1.18c0.52-0.79,0.78-2.21,0.78-4.26s-0.26-3.47-0.78-4.26c-0.52-0.79-1.38-1.18-2.58-1.18
			h-1.89v10.88H147.96z"/>
		<path d="M161,437.3c-0.29-0.3-0.43-0.76-0.43-1.38v-18.11c0-0.62,0.14-1.08,0.43-1.38s0.78-0.45,1.49-0.45h13.25
			c0.68,0,1.15,0.14,1.39,0.43s0.37,0.75,0.37,1.39v1.79c0,0.64-0.12,1.1-0.37,1.39s-0.71,0.43-1.39,0.43h-7.49v2.75h4.61
			c0.68,0,1.15,0.14,1.39,0.43s0.37,0.75,0.37,1.39v1.73c0,0.64-0.12,1.1-0.37,1.39s-0.71,0.43-1.39,0.43h-4.61v2.75h7.46
			c0.68,0,1.15,0.14,1.39,0.43c0.24,0.29,0.37,0.75,0.37,1.39v1.79c0,0.64-0.12,1.1-0.37,1.39c-0.25,0.29-0.71,0.43-1.39,0.43
			h-13.22C161.79,437.75,161.29,437.6,161,437.3z"/>
		<path d="M187.9,437.08c0-0.19,0.05-0.43,0.16-0.7l7.97-19.17c0.19-0.45,0.41-0.76,0.66-0.94c0.25-0.18,0.59-0.27,1.04-0.27h3.49
			c0.45,0,0.79,0.09,1.04,0.27c0.25,0.18,0.46,0.5,0.66,0.94l7.94,19.17c0.11,0.28,0.16,0.51,0.16,0.7c0,0.45-0.23,0.67-0.7,0.67
			h-6.02c-0.66,0-1.08-0.29-1.25-0.86l-0.77-2.37h-5.66l-0.74,2.37c-0.17,0.58-0.59,0.86-1.25,0.86h-6.02
			C188.13,437.75,187.9,437.53,187.9,437.08z M200.7,429.46l-1.25-3.97l-1.25,3.97H200.7z"/>
		<path d="M213.43,435.37c-2.16-1.91-3.23-4.74-3.23-8.5c0-3.78,1.04-6.61,3.12-8.51s5.05-2.85,8.91-2.85
			c1.75,0,3.31,0.17,4.67,0.51c1.37,0.34,2.51,0.82,3.42,1.44c0.26,0.19,0.38,0.41,0.38,0.64c0,0.19-0.1,0.46-0.29,0.8l-1.6,2.75
			c-0.17,0.3-0.37,0.45-0.61,0.45c-0.15,0-0.39-0.08-0.74-0.26c-0.6-0.3-1.22-0.53-1.87-0.7c-0.65-0.17-1.41-0.26-2.29-0.26
			c-1.77,0-3.13,0.51-4.06,1.54c-0.94,1.02-1.41,2.51-1.41,4.45c0,1.92,0.51,3.4,1.54,4.43c1.02,1.04,2.42,1.55,4.19,1.55
			c1.54,0,2.94-0.32,4.22-0.96c0.34-0.17,0.59-0.26,0.74-0.26c0.23,0,0.44,0.15,0.61,0.45l1.6,2.75c0.19,0.34,0.29,0.61,0.29,0.8
			c0,0.24-0.13,0.45-0.38,0.64c-0.92,0.62-2.07,1.1-3.46,1.44c-1.39,0.34-2.96,0.51-4.71,0.51
			C218.61,438.23,215.59,437.28,213.43,435.37z"/>
		<path d="M237.35,437.3c-0.29-0.3-0.43-0.76-0.43-1.38v-14.5h-4.61c-0.68,0-1.15-0.14-1.39-0.43s-0.37-0.75-0.37-1.39v-1.79
			c0-0.64,0.12-1.1,0.37-1.39s0.71-0.43,1.39-0.43h16.9c0.68,0,1.15,0.14,1.39,0.43c0.24,0.29,0.37,0.75,0.37,1.39v1.79
			c0,0.64-0.12,1.1-0.37,1.39c-0.25,0.29-0.71,0.43-1.39,0.43h-4.61v14.5c0,0.62-0.14,1.08-0.43,1.38c-0.29,0.3-0.79,0.45-1.52,0.45
			h-3.81C238.14,437.75,237.64,437.6,237.35,437.3z"/>
		<path d="M252.36,437.3c-0.29-0.3-0.43-0.76-0.43-1.38v-18.11c0-0.62,0.14-1.08,0.43-1.38s0.78-0.45,1.49-0.45h3.81
			c0.73,0,1.23,0.14,1.52,0.43s0.43,0.75,0.43,1.39v18.11c0,0.62-0.14,1.08-0.43,1.38c-0.29,0.3-0.79,0.45-1.52,0.45h-3.81
			C253.14,437.75,252.65,437.6,252.36,437.3z"/>
		<path d="M269.64,437.48c-0.25-0.18-0.45-0.5-0.62-0.94l-7.65-19.17c-0.11-0.28-0.16-0.51-0.16-0.7c0-0.45,0.23-0.67,0.7-0.67h6.02
			c0.66,0,1.08,0.29,1.25,0.86l3.26,10.43l3.26-10.43c0.17-0.58,0.59-0.86,1.25-0.86h6.02c0.47,0,0.7,0.22,0.7,0.67
			c0,0.19-0.05,0.43-0.16,0.7l-7.62,19.17c-0.17,0.45-0.38,0.76-0.62,0.94c-0.25,0.18-0.6,0.27-1.07,0.27h-3.49
			C270.24,437.75,269.89,437.66,269.64,437.48z"/>
		<path d="M285.7,437.3c-0.29-0.3-0.43-0.76-0.43-1.38v-18.11c0-0.62,0.14-1.08,0.43-1.38s0.78-0.45,1.49-0.45H291
			c0.73,0,1.23,0.14,1.52,0.43s0.43,0.75,0.43,1.39v18.11c0,0.62-0.14,1.08-0.43,1.38c-0.29,0.3-0.79,0.45-1.52,0.45h-3.81
			C286.49,437.75,285.99,437.6,285.7,437.3z"/>
		<path d="M295.62,437.3c-0.29-0.3-0.43-0.76-0.43-1.38v-18.11c0-0.62,0.14-1.08,0.43-1.38s0.78-0.45,1.49-0.45h7.36
			c7.53,0,11.29,3.63,11.29,10.88c0,3.58-0.96,6.29-2.9,8.13s-4.73,2.75-8.4,2.75h-7.36C296.41,437.75,295.91,437.6,295.62,437.3z
			 M304.76,432.31c1.2,0,2.05-0.39,2.58-1.18c0.52-0.79,0.78-2.21,0.78-4.26s-0.26-3.47-0.78-4.26c-0.52-0.79-1.38-1.18-2.58-1.18
			h-1.89v10.88H304.76z"/>
		<path d="M315.29,437.08c0-0.19,0.05-0.43,0.16-0.7l7.97-19.17c0.19-0.45,0.41-0.76,0.66-0.94c0.24-0.18,0.59-0.27,1.04-0.27h3.49
			c0.45,0,0.79,0.09,1.04,0.27c0.24,0.18,0.46,0.5,0.66,0.94l7.94,19.17c0.11,0.28,0.16,0.51,0.16,0.7c0,0.45-0.24,0.67-0.71,0.67
			h-6.02c-0.66,0-1.08-0.29-1.25-0.86l-0.77-2.37h-5.66l-0.74,2.37c-0.17,0.58-0.59,0.86-1.25,0.86h-6.02
			C315.52,437.75,315.29,437.53,315.29,437.08z M328.09,429.46l-1.25-3.97l-1.25,3.97H328.09z"/>
		<path d="M340.42,437.3c-0.29-0.3-0.43-0.76-0.43-1.38v-18.11c0-0.62,0.14-1.08,0.43-1.38c0.29-0.3,0.78-0.45,1.49-0.45h7.36
			c7.53,0,11.3,3.63,11.3,10.88c0,3.58-0.97,6.29-2.9,8.13s-4.73,2.75-8.4,2.75h-7.36C341.21,437.75,340.71,437.6,340.42,437.3z
			 M349.56,432.31c1.19,0,2.05-0.39,2.58-1.18c0.52-0.79,0.78-2.21,0.78-4.26s-0.26-3.47-0.78-4.26c-0.52-0.79-1.38-1.18-2.58-1.18
			h-1.89v10.88H349.56z"/>
		<path d="M77.05,475.7c-0.29-0.3-0.43-0.76-0.43-1.38v-18.11c0-0.62,0.14-1.08,0.43-1.38s0.78-0.45,1.49-0.45h7.65
			c3.2,0,5.53,0.63,6.99,1.9c1.46,1.27,2.19,3.18,2.19,5.74c0,1.54-0.26,2.83-0.78,3.89c-0.52,1.06-1.33,1.88-2.42,2.48l2.98,6.37
			c0.08,0.17,0.13,0.36,0.13,0.58c0,0.23-0.08,0.43-0.24,0.58c-0.16,0.15-0.37,0.22-0.62,0.22H89c-0.34,0-0.61-0.05-0.82-0.14
			c-0.2-0.1-0.35-0.26-0.43-0.5l-2.37-5.95H84.3v4.77c0,0.62-0.14,1.08-0.43,1.38c-0.29,0.3-0.79,0.45-1.52,0.45h-3.81
			C77.83,476.15,77.34,476,77.05,475.7z M85.51,464.22c0.68,0,1.22-0.18,1.62-0.54c0.39-0.36,0.59-0.91,0.59-1.63
			c0-0.75-0.2-1.3-0.59-1.66c-0.4-0.36-0.93-0.54-1.62-0.54h-2.18v4.38H85.51z"/>
		<path d="M96.33,475.48c0-0.19,0.05-0.43,0.16-0.7l7.97-19.17c0.19-0.45,0.41-0.76,0.66-0.94c0.25-0.18,0.59-0.27,1.04-0.27h3.49
			c0.45,0,0.79,0.09,1.04,0.27c0.25,0.18,0.46,0.5,0.66,0.94l7.94,19.17c0.11,0.28,0.16,0.51,0.16,0.7c0,0.45-0.23,0.67-0.7,0.67
			h-6.02c-0.66,0-1.08-0.29-1.25-0.86l-0.77-2.37h-5.66l-0.74,2.37c-0.17,0.58-0.59,0.86-1.25,0.86h-6.02
			C96.56,476.15,96.33,475.93,96.33,475.48z M104.46,452.47c0-0.17,0.03-0.35,0.1-0.54l1.34-3.71c0.17-0.49,0.37-0.82,0.61-0.99
			c0.23-0.17,0.67-0.26,1.31-0.26h4.58c0.45,0,0.8,0.08,1.06,0.24c0.26,0.16,0.38,0.39,0.38,0.69c0,0.26-0.09,0.52-0.26,0.8
			l-2.05,3.46c-0.3,0.51-0.59,0.84-0.86,0.99c-0.28,0.15-0.78,0.22-1.5,0.22h-3.42C104.88,453.37,104.46,453.07,104.46,452.47z
			 M109.13,467.86l-1.25-3.97l-1.25,3.97H109.13z"/>
		<path d="M121.46,475.7c-0.29-0.3-0.43-0.76-0.43-1.38v-18.11c0-0.62,0.14-1.08,0.43-1.38c0.29-0.3,0.79-0.45,1.49-0.45h7.65
			c3.2,0,5.53,0.63,6.99,1.9c1.46,1.27,2.19,3.18,2.19,5.74c0,2.56-0.73,4.47-2.19,5.73c-1.46,1.26-3.78,1.89-6.96,1.89h-1.92v4.67
			c0,0.62-0.14,1.08-0.43,1.38c-0.29,0.3-0.79,0.45-1.52,0.45h-3.81C122.25,476.15,121.75,476,121.46,475.7z M129.93,464.22
			c0.68,0,1.22-0.18,1.62-0.54c0.39-0.36,0.59-0.91,0.59-1.63c0-0.75-0.2-1.3-0.59-1.66c-0.39-0.36-0.93-0.54-1.62-0.54h-2.18v4.38
			H129.93z"/>
		<path d="M141.18,475.7c-0.29-0.3-0.43-0.76-0.43-1.38v-18.11c0-0.62,0.14-1.08,0.43-1.38c0.29-0.3,0.78-0.45,1.49-0.45h3.81
			c0.73,0,1.23,0.14,1.52,0.43c0.29,0.29,0.43,0.75,0.43,1.39v18.11c0,0.62-0.14,1.08-0.43,1.38c-0.29,0.3-0.79,0.45-1.52,0.45
			h-3.81C141.96,476.15,141.46,476,141.18,475.7z"/>
		<path d="M151.1,475.7c-0.29-0.3-0.43-0.76-0.43-1.38v-18.11c0-0.62,0.14-1.08,0.43-1.38c0.29-0.3,0.78-0.45,1.49-0.45h7.36
			c7.53,0,11.3,3.63,11.3,10.88c0,3.58-0.97,6.29-2.9,8.13c-1.93,1.83-4.73,2.75-8.4,2.75h-7.36
			C151.88,476.15,151.38,476,151.1,475.7z M160.23,470.71c1.19,0,2.05-0.39,2.58-1.18s0.78-2.21,0.78-4.26s-0.26-3.47-0.78-4.26
			s-1.38-1.18-2.58-1.18h-1.89v10.88H160.23z"/>
		<path d="M170.76,475.48c0-0.19,0.05-0.43,0.16-0.7l7.97-19.17c0.19-0.45,0.41-0.76,0.66-0.94c0.25-0.18,0.59-0.27,1.04-0.27h3.49
			c0.45,0,0.79,0.09,1.04,0.27c0.25,0.18,0.46,0.5,0.66,0.94l7.94,19.17c0.11,0.28,0.16,0.51,0.16,0.7c0,0.45-0.23,0.67-0.7,0.67
			h-6.02c-0.66,0-1.08-0.29-1.25-0.86l-0.77-2.37h-5.66l-0.74,2.37c-0.17,0.58-0.59,0.86-1.25,0.86h-6.02
			C171,476.15,170.76,475.93,170.76,475.48z M183.56,467.86l-1.25-3.97l-1.25,3.97H183.56z"/>
		<path d="M193.42,479.22c0-0.09,0.02-0.24,0.06-0.45l1.57-5.6c0.15-0.55,0.35-0.92,0.59-1.09c0.25-0.17,0.66-0.26,1.23-0.26h3.01
			c0.49,0,0.84,0.06,1.06,0.19c0.21,0.13,0.32,0.33,0.32,0.61c0,0.3-0.09,0.65-0.26,1.06l-2.3,5.44c-0.13,0.28-0.29,0.49-0.5,0.62
			s-0.5,0.21-0.88,0.21h-2.94C193.74,479.96,193.42,479.71,193.42,479.22z"/>
		<path d="M212.92,475.7c-0.29-0.3-0.43-0.76-0.43-1.38v-18.11c0-0.62,0.14-1.08,0.43-1.38c0.29-0.3,0.79-0.45,1.49-0.45h13.25
			c0.68,0,1.15,0.14,1.39,0.43c0.24,0.29,0.37,0.75,0.37,1.39v1.79c0,0.64-0.12,1.1-0.37,1.39c-0.25,0.29-0.71,0.43-1.39,0.43h-7.49
			v2.72h4.61c0.68,0,1.15,0.14,1.39,0.43c0.25,0.29,0.37,0.75,0.37,1.39v1.79c0,0.64-0.12,1.1-0.37,1.39
			c-0.24,0.29-0.71,0.43-1.39,0.43h-4.61v6.34c0,0.62-0.14,1.08-0.43,1.38c-0.29,0.3-0.79,0.45-1.52,0.45h-3.81
			C213.71,476.15,213.21,476,212.92,475.7z"/>
		<path d="M225.58,475.48c0-0.19,0.05-0.43,0.16-0.7l7.97-19.17c0.19-0.45,0.41-0.76,0.66-0.94c0.24-0.18,0.59-0.27,1.04-0.27h3.49
			c0.45,0,0.79,0.09,1.04,0.27c0.25,0.18,0.46,0.5,0.66,0.94l7.94,19.17c0.11,0.28,0.16,0.51,0.16,0.7c0,0.45-0.24,0.67-0.7,0.67
			h-6.02c-0.66,0-1.08-0.29-1.25-0.86l-0.77-2.37h-5.66l-0.74,2.37c-0.17,0.58-0.59,0.86-1.25,0.86h-6.02
			C225.81,476.15,225.58,475.93,225.58,475.48z M233.71,452.47c0-0.17,0.03-0.35,0.1-0.54l1.34-3.71c0.17-0.49,0.37-0.82,0.61-0.99
			c0.24-0.17,0.67-0.26,1.31-0.26h4.58c0.45,0,0.8,0.08,1.06,0.24c0.26,0.16,0.38,0.39,0.38,0.69c0,0.26-0.08,0.52-0.26,0.8
			l-2.05,3.46c-0.3,0.51-0.59,0.84-0.87,0.99s-0.78,0.22-1.5,0.22h-3.42C234.13,453.37,233.71,453.07,233.71,452.47z M238.38,467.86
			l-1.25-3.97l-1.25,3.97H238.38z"/>
		<path d="M251.11,473.77c-2.16-1.91-3.23-4.74-3.23-8.5c0-3.78,1.04-6.61,3.12-8.51s5.05-2.85,8.91-2.85
			c1.75,0,3.31,0.17,4.67,0.51c1.36,0.34,2.51,0.82,3.42,1.44c0.26,0.19,0.38,0.41,0.38,0.64c0,0.19-0.1,0.46-0.29,0.8l-1.6,2.75
			c-0.17,0.3-0.37,0.45-0.61,0.45c-0.15,0-0.39-0.08-0.74-0.26c-0.6-0.3-1.22-0.53-1.87-0.7c-0.65-0.17-1.41-0.26-2.29-0.26
			c-1.77,0-3.13,0.51-4.06,1.54c-0.94,1.02-1.41,2.51-1.41,4.45c0,1.92,0.51,3.4,1.54,4.43c1.02,1.04,2.42,1.55,4.19,1.55
			c1.54,0,2.94-0.32,4.22-0.96c0.34-0.17,0.59-0.26,0.74-0.26c0.23,0,0.44,0.15,0.61,0.45l1.6,2.75c0.19,0.34,0.29,0.61,0.29,0.8
			c0,0.24-0.13,0.45-0.38,0.64c-0.92,0.62-2.07,1.1-3.46,1.44s-2.96,0.51-4.7,0.51C256.29,476.63,253.27,475.68,251.11,473.77z"/>
		<path d="M270.74,475.7c-0.29-0.3-0.43-0.76-0.43-1.38v-18.11c0-0.62,0.14-1.08,0.43-1.38c0.29-0.3,0.79-0.45,1.49-0.45h3.81
			c0.72,0,1.23,0.14,1.52,0.43c0.29,0.29,0.43,0.75,0.43,1.39v18.11c0,0.62-0.14,1.08-0.43,1.38c-0.29,0.3-0.79,0.45-1.52,0.45
			h-3.81C271.53,476.15,271.03,476,270.74,475.7z"/>
		<path d="M280.66,475.7c-0.29-0.3-0.43-0.76-0.43-1.38v-18.11c0-0.62,0.14-1.08,0.43-1.38c0.29-0.3,0.79-0.45,1.49-0.45h3.81
			c0.72,0,1.23,0.14,1.52,0.43c0.29,0.29,0.43,0.75,0.43,1.39v14.5h7.46c0.68,0,1.15,0.14,1.39,0.43s0.37,0.75,0.37,1.39v1.79
			c0,0.64-0.12,1.1-0.37,1.39s-0.71,0.43-1.39,0.43h-13.22C281.45,476.15,280.95,476,280.66,475.7z"/>
		<path d="M315.16,475.7c-0.29-0.3-0.43-0.76-0.43-1.38v-5.79l-7.46-12.77c-0.13-0.23-0.19-0.46-0.19-0.67c0-0.47,0.25-0.7,0.74-0.7
			h6.02c0.32,0,0.57,0.07,0.74,0.21c0.17,0.14,0.34,0.36,0.51,0.66l3.49,6.27l3.49-6.27c0.17-0.3,0.34-0.52,0.51-0.66
			c0.17-0.14,0.42-0.21,0.74-0.21h6.02c0.49,0,0.74,0.23,0.74,0.7c0,0.21-0.06,0.44-0.19,0.67l-7.46,12.77v5.79
			c0,0.62-0.14,1.08-0.43,1.38c-0.29,0.3-0.79,0.45-1.52,0.45h-3.81C315.94,476.15,315.45,476,315.16,475.7z"/>
		<path d="M135.95,514.1c-0.29-0.3-0.43-0.76-0.43-1.38v-18.11c0-0.62,0.14-1.08,0.43-1.38c0.29-0.3,0.78-0.45,1.49-0.45h13.25
			c0.68,0,1.15,0.14,1.39,0.43c0.24,0.29,0.37,0.75,0.37,1.39v1.79c0,0.64-0.12,1.1-0.37,1.39c-0.25,0.29-0.71,0.43-1.39,0.43h-7.49
			v2.75h4.61c0.68,0,1.15,0.14,1.39,0.43s0.37,0.75,0.37,1.39v1.73c0,0.64-0.12,1.1-0.37,1.39s-0.71,0.43-1.39,0.43h-4.61v2.75h7.46
			c0.68,0,1.15,0.14,1.39,0.43c0.25,0.29,0.37,0.75,0.37,1.39v1.79c0,0.64-0.12,1.1-0.37,1.39c-0.25,0.29-0.71,0.43-1.39,0.43
			h-13.22C136.73,514.55,136.23,514.4,135.95,514.1z"/>
		<path d="M154.31,514.1c-0.29-0.3-0.43-0.76-0.43-1.38v-18.11c0-0.62,0.14-1.08,0.43-1.38c0.29-0.3,0.79-0.45,1.49-0.45h13.25
			c0.68,0,1.15,0.14,1.39,0.43c0.24,0.29,0.37,0.75,0.37,1.39v1.79c0,0.64-0.12,1.1-0.37,1.39c-0.25,0.29-0.71,0.43-1.39,0.43h-7.49
			v2.72h4.61c0.68,0,1.15,0.14,1.39,0.43c0.25,0.29,0.37,0.75,0.37,1.39v1.79c0,0.64-0.12,1.1-0.37,1.39
			c-0.24,0.29-0.71,0.43-1.39,0.43h-4.61v6.34c0,0.62-0.14,1.08-0.43,1.38c-0.29,0.3-0.79,0.45-1.52,0.45h-3.81
			C155.1,514.55,154.6,514.4,154.31,514.1z"/>
		<path d="M172.36,514.1c-0.29-0.3-0.43-0.76-0.43-1.38v-18.11c0-0.62,0.14-1.08,0.43-1.38c0.29-0.3,0.78-0.45,1.49-0.45h13.25
			c0.68,0,1.15,0.14,1.39,0.43s0.37,0.75,0.37,1.39v1.79c0,0.64-0.12,1.1-0.37,1.39s-0.71,0.43-1.39,0.43h-7.49v2.75h4.61
			c0.68,0,1.15,0.14,1.39,0.43c0.24,0.29,0.37,0.75,0.37,1.39v1.73c0,0.64-0.12,1.1-0.37,1.39c-0.25,0.29-0.71,0.43-1.39,0.43h-4.61
			v2.75h7.46c0.68,0,1.15,0.14,1.39,0.43c0.25,0.29,0.37,0.75,0.37,1.39v1.79c0,0.64-0.12,1.1-0.37,1.39
			c-0.25,0.29-0.71,0.43-1.39,0.43h-13.21C173.14,514.55,172.65,514.4,172.36,514.1z"/>
		<path d="M191.45,512.17c-2.16-1.91-3.23-4.74-3.23-8.5c0-3.78,1.04-6.61,3.12-8.51s5.05-2.85,8.91-2.85
			c1.75,0,3.31,0.17,4.67,0.51c1.36,0.34,2.51,0.82,3.42,1.44c0.26,0.19,0.38,0.41,0.38,0.64c0,0.19-0.1,0.46-0.29,0.8l-1.6,2.75
			c-0.17,0.3-0.37,0.45-0.61,0.45c-0.15,0-0.39-0.08-0.74-0.26c-0.6-0.3-1.22-0.53-1.87-0.7c-0.65-0.17-1.41-0.26-2.29-0.26
			c-1.77,0-3.13,0.51-4.06,1.54c-0.94,1.02-1.41,2.51-1.41,4.45c0,1.92,0.51,3.4,1.54,4.43c1.02,1.04,2.42,1.55,4.19,1.55
			c1.54,0,2.94-0.32,4.22-0.96c0.34-0.17,0.59-0.26,0.74-0.26c0.23,0,0.44,0.15,0.61,0.45l1.6,2.75c0.19,0.34,0.29,0.61,0.29,0.8
			c0,0.24-0.13,0.45-0.38,0.64c-0.92,0.62-2.07,1.1-3.46,1.44s-2.96,0.51-4.7,0.51C196.62,515.03,193.6,514.08,191.45,512.17z"/>
		<path d="M215.37,514.1c-0.29-0.3-0.43-0.76-0.43-1.38v-14.5h-4.61c-0.68,0-1.15-0.14-1.39-0.43c-0.25-0.29-0.37-0.75-0.37-1.39
			v-1.79c0-0.64,0.12-1.1,0.37-1.39c0.24-0.29,0.71-0.43,1.39-0.43h16.9c0.68,0,1.15,0.14,1.39,0.43c0.24,0.29,0.37,0.75,0.37,1.39
			v1.79c0,0.64-0.12,1.1-0.37,1.39c-0.25,0.29-0.71,0.43-1.39,0.43h-4.61v14.5c0,0.62-0.14,1.08-0.43,1.38
			c-0.29,0.3-0.79,0.45-1.52,0.45h-3.81C216.15,514.55,215.66,514.4,215.37,514.1z"/>
		<path d="M230.38,514.1c-0.29-0.3-0.43-0.76-0.43-1.38v-18.11c0-0.62,0.14-1.08,0.43-1.38c0.29-0.3,0.78-0.45,1.49-0.45h3.81
			c0.73,0,1.23,0.14,1.52,0.43c0.29,0.29,0.43,0.75,0.43,1.39v18.11c0,0.62-0.14,1.08-0.43,1.38c-0.29,0.3-0.79,0.45-1.52,0.45
			h-3.81C231.16,514.55,230.66,514.4,230.38,514.1z"/>
		<path d="M247.66,514.28c-0.25-0.18-0.45-0.5-0.62-0.94l-7.65-19.17c-0.11-0.28-0.16-0.51-0.16-0.7c0-0.45,0.23-0.67,0.7-0.67h6.02
			c0.66,0,1.08,0.29,1.25,0.86l3.26,10.43l3.26-10.43c0.17-0.58,0.59-0.86,1.25-0.86h6.02c0.47,0,0.7,0.22,0.7,0.67
			c0,0.19-0.05,0.43-0.16,0.7l-7.62,19.17c-0.17,0.45-0.38,0.76-0.62,0.94c-0.25,0.18-0.6,0.27-1.07,0.27h-3.49
			C248.26,514.55,247.9,514.46,247.66,514.28z"/>
		<path d="M257.69,513.88c0-0.19,0.05-0.43,0.16-0.7l7.97-19.17c0.19-0.45,0.41-0.76,0.66-0.94c0.24-0.18,0.59-0.27,1.04-0.27H271
			c0.45,0,0.79,0.09,1.04,0.27c0.24,0.18,0.46,0.5,0.66,0.94l7.94,19.17c0.11,0.28,0.16,0.51,0.16,0.7c0,0.45-0.24,0.67-0.71,0.67
			h-6.02c-0.66,0-1.08-0.29-1.25-0.86l-0.77-2.37h-5.66l-0.74,2.37c-0.17,0.58-0.59,0.86-1.25,0.86h-6.02
			C257.92,514.55,257.69,514.33,257.69,513.88z M270.49,506.26l-1.25-3.97l-1.25,3.97H270.49z"/>
	</g>
	<polygon class="st6" points="199.76,86.93 213.23,114.22 243.34,118.59 221.55,139.83 226.7,169.83 199.76,155.67 172.83,169.83 
		177.97,139.83 156.18,118.59 186.29,114.22 	"/>
	<polygon class="st6" points="137.58,170.15 146.32,187.86 165.86,190.7 151.72,204.48 155.06,223.94 137.58,214.75 120.11,223.94 
		123.45,204.48 109.31,190.7 128.85,187.86 	"/>
	<polygon class="st6" points="267.68,170.15 276.42,187.86 295.95,190.7 281.82,204.48 285.15,223.94 267.68,214.75 250.2,223.94 
		253.54,204.48 239.4,190.7 258.94,187.86 	"/>
	<circle class="st7" cx="200.77" cy="203.97" r="121.96"/>
	<circle class="st1" cx="199.82" cy="190.58" r="121.96"/>
	<g>
		<path class="st1" d="M175.43,630.35v-4.31c0-2.87,0.97-5.57,2.92-8.1c1.95-2.53,5.35-5.5,10.22-8.91c1.7-1.17,2.75-1.87,3.14-2.12
			c1.75-1.17,2.97-2.04,3.65-2.63c0.68-0.58,1.19-1.22,1.53-1.9c0.34-0.68,0.51-1.56,0.51-2.63c0-1.22-0.45-2.2-1.35-2.96
			c-0.9-0.75-2.28-1.13-4.13-1.13c-3.12,0-6.28,0.8-9.49,2.41c-0.78,0.39-1.34,0.58-1.68,0.58c-0.54,0-1-0.34-1.39-1.02l-3.65-6.28
			c-0.44-0.78-0.66-1.39-0.66-1.82c0-0.54,0.29-1.02,0.88-1.46c2.09-1.41,4.79-2.54,8.1-3.39c3.31-0.85,6.93-1.28,10.88-1.28
			c6.13,0,10.99,1.28,14.56,3.83c3.58,2.55,5.37,6.17,5.37,10.84c0,3.6-1,6.66-2.99,9.16c-2,2.51-5.26,5.22-9.78,8.14
			c-4.82,3.12-7.71,5.21-8.69,6.28h17.81c1.56,0,2.62,0.33,3.18,0.99c0.56,0.66,0.84,1.71,0.84,3.17v4.16
			c0,1.46-0.28,2.52-0.84,3.18c-0.56,0.66-1.62,0.99-3.18,0.99h-32.12C176.65,634.14,175.43,632.88,175.43,630.35z"/>
	</g>
	<path class="st35" d="M273.66,256.04l0.52-28.79c-0.16-4.09-0.46-7.72-2.59-11.21c-4.39-7.2-4.79-11.06-13.64-17.17l-9-4.35h-44.65
		l-9.1,4.35c-2.66,1.32-8.05,10.39-10.16,12.5l-0.37,53.7c0,0,59.45,0.03,61.62,0l20.53-0.68l-35.93,0.68h37.61
		C272.83,265.07,273.66,256.04,273.66,256.04z"/>
	<path class="st36" d="M200.35,247l-1.16,0c-2.41-0.04-3.96-2.12-4.05-4.53c-0.18-4.77,0.03-43.59,0.03-43.59
		c-8.85,5.11-13.28,11.4-15.36,16.18c-1.63,3.75-2.36,7.83-2.52,11.91l0.42,28.89c0.25,5.63,2.57,9.21,6.93,9.21h15.7V247z"/>
	<path class="st36" d="M273.29,215.06c-2.08-4.78-6.5-11.07-15.36-16.18c0,0,0.21,38.82,0.03,43.59c-0.09,2.41-1.63,4.5-4.05,4.53
		l-25.51,0.01l0.03,18.06h40.02c4.36,0,6.68-3.58,6.93-9.21l0.42-28.89C275.65,222.88,274.92,218.81,273.29,215.06z"/>
	<g>
		<circle class="st67" cx="226.61" cy="172.89" r="31.1"/>
		<g>
			<path class="st34" d="M199.1,161.8c-0.2-6.28,0.6-14.02,4.57-20.12c4.49-6.9,12.22-10.43,22.94-10.43
				c10.72,0,18.45,3.53,22.94,10.43c3.97,6.1,4.77,13.85,4.57,20.12h3.59c0.25-6.94-0.65-15.61-5.21-22.67
				c-5.18-8.03-13.91-12.15-25.89-12.15c-11.97,0-20.7,4.12-25.89,12.15c-4.55,7.05-5.46,15.72-5.21,22.67H199.1z"/>
			<g>
				<path class="st34" d="M196.52,157.44c-0.78-0.37-1.61-0.58-2.48-0.58c-4.21,0-7.62,4.72-7.62,10.55
					c0,5.83,3.41,10.55,7.62,10.55c0.87,0,1.7-0.21,2.48-0.58V157.44z"/>
				<path class="st34" d="M199.29,154.74c-0.64-0.35-1.35-0.56-2.13-0.56h-0.09c-2.49,0-4.51,2.02-4.51,4.51v18.3
					c0,2.49,2.02,4.51,4.51,4.51h0.09c0.78,0,1.49-0.21,2.13-0.56V154.74z"/>
			</g>
			<path class="st34" d="M257.71,177.38l-2.02,0c0,0.75-0.3,17.58-21.04,19.32c-0.39-0.59-1.03-1-1.79-1h-7.91
				c-1.21,0-2.19,0.98-2.19,2.18v0.05c0,1.21,0.98,2.18,2.19,2.18h7.91c0.93,0,1.72-0.59,2.03-1.41
				C257.38,196.74,257.71,177.58,257.71,177.38z"/>
			<g>
				<path class="st34" d="M256.7,157.44c0.78-0.37,1.6-0.58,2.47-0.58c4.21,0,7.62,4.72,7.62,10.55c0,5.83-3.41,10.55-7.62,10.55
					c-0.87,0-1.7-0.21-2.47-0.58V157.44z"/>
				<path class="st34" d="M253.92,154.74c0.64-0.35,1.36-0.56,2.13-0.56h0.09c2.49,0,4.51,2.02,4.51,4.51v18.3
					c0,2.49-2.02,4.51-4.51,4.51h-0.09c-0.78,0-1.5-0.21-2.13-0.56V154.74z"/>
			</g>
		</g>
	</g>
	<g>
		<polygon class="st34" points="208.12,265.42 137.14,265.42 129.47,208.84 200.68,208.84 		"/>
		<rect x="137.07" y="265.07" class="st82" width="71.06" height="6.93"/>
	</g>
	<g>
		<path class="st35" d="M181.85,193.1l-33.08-0.02c-0.51,0.03-0.69,0.02-0.98,0l-3.32-0.01l0.01-0.2
			c-16.92-1.69-29.85-14.59-29.85-30.25c0-16.81,15.08-30.47,33.61-30.47s33.6,13.67,33.6,30.47V193.1z M148.74,188.44l28.48,0.02
			v-25.84c0-14.25-13-25.84-28.97-25.84c-15.98,0-28.97,11.59-28.97,25.84c0,13.89,12.2,25.22,27.78,25.79l1.33,0.05L148.74,188.44z
			"/>
	</g>
	<path class="st67" d="M228.83,247.01v18.06h-18.57C210.26,265.07,209.94,247.59,228.83,247.01z"/>
	<g>
		<circle class="st64" cx="147.5" cy="161.5" r="21.5"/>
		<path class="st65" d="M153.37,154.42h5.56c1.43,0,2.6,1.17,2.6,2.6l0,0c0,1.05-0.63,1.96-1.53,2.37c0.5,0.46,0.82,1.12,0.82,1.85
			l0,0c0,0.87-0.45,1.64-1.13,2.09c0.58,0.46,0.95,1.17,0.95,1.96l0,0c0,0.87-0.45,1.64-1.13,2.09c0.58,0.46,0.95,1.17,0.95,1.96v0
			c0,1.38-1.13,2.51-2.51,2.51h-6.85l-0.17,0.04l-6.69-0.28l-0.6-0.92l0.1-14.91c0-0.02,2.63-2.54,4.36-4.25
			c1.35-1.33,3.08-6.4,3.11-6.41c4.26-0.56,3.73,6.05,2.42,8.57C153.51,153.91,153.43,154.16,153.37,154.42L153.37,154.42z
			 M136.71,154.34h4.27c0.7,0,1.28,0.58,1.28,1.28v14.66c0,0.7-0.58,1.28-1.28,1.28h-4.27c-0.7,0-1.28-0.58-1.28-1.28v-14.66
			C135.43,154.91,136.01,154.34,136.71,154.34z"/>
	</g>
</g>
</svg>
