<?xml version="1.0" encoding="utf-8"?>
<!-- Generator: Adobe Illustrator 23.0.0, SVG Export Plug-In . SVG Version: 6.00 Build 0)  -->
<svg version="1.1" id="Capa_1" xmlns="http://www.w3.org/2000/svg" xmlns:xlink="http://www.w3.org/1999/xlink" x="0px" y="0px"
	 viewBox="0 0 382.63 672" style="enable-background:new 0 0 382.63 672;" xml:space="preserve">
<style type="text/css">
	.st0{fill:#E2E2E2;}
	.st1{fill:#FFFFFF;}
	.st2{fill:#CCCDCE;}
	.st3{fill:#F2F2F2;}
	.st4{fill:none;}
	.st5{fill:#0085B0;}
	.st6{fill:#E0EF18;}
	.st7{fill:#CECECE;}
	.st8{fill:#22272F;}
	.st9{fill:#1B2538;}
	.st10{fill:#253452;}
	.st11{fill:#F9F9F9;}
	.st12{fill:#2D3543;}
	.st13{fill:#2A3D60;}
	.st14{fill:#6C92D5;}
	.st15{fill:#587955;}
	.st16{fill:#CD7054;}
	.st17{fill:#F1CC4B;}
	.st18{fill:#DFDFDF;}
	.st19{fill:#ACACAC;}
	.st20{fill:#00D13C;}
	.st21{fill:#866A5E;}
	.st22{fill:#F7DDCB;}
	.st23{fill:#FFE6D4;}
	.st24{fill:#2D2D2D;}
	.st25{fill:#1C1B1A;}
	.st26{fill:#F5F5F5;}
	.st27{fill:#77181C;}
	.st28{fill:#EAEAEA;}
	.st29{fill:#262525;}
	.st30{fill:#11100F;}
	.st31{fill:#FFFFFF;stroke:#000000;stroke-width:6;stroke-miterlimit:10;}
	.st32{fill:#D4D4D4;}
	.st33{fill:#C2C2C2;}
	.st34{fill:#505050;}
	.st35{fill:#53C2C9;}
	.st36{fill:#008B9C;}
	.st37{fill:none;stroke:#00550B;stroke-width:4;stroke-miterlimit:10;}
	.st38{fill:#CE2458;}
	.st39{fill:#155500;}
	.st40{fill:#1549FF;}
	.st41{fill:#606060;stroke:#C6C8CC;stroke-width:6;stroke-miterlimit:10;}
	.st42{fill:#727272;}
	.st43{fill:#207235;}
	.st44{fill:#A3A3A3;}
	.st45{fill:#BCBCBC;}
	.st46{fill:#2A5936;}
	.st47{opacity:0.7;fill:#7F7F7F;}
	.st48{fill:#DAA449;}
	.st49{fill:#85B681;}
	.st50{fill:#A1DC9B;}
	.st51{fill:#90C58B;}
	.st52{fill:#DD9225;}
	.st53{opacity:0.3;}
	.st54{fill:#81C378;}
	.st55{opacity:0.5;}
	.st56{fill:#A2CADE;}
	.st57{fill:#9BAEC9;}
	.st58{fill:#9D2B3B;}
	.st59{fill:#C1D4F2;}
	.st60{fill:#534D46;}
	.st61{fill:#191819;}
	.st62{fill:#222123;}
	.st63{fill:#F3FF00;}
	.st64{fill-rule:evenodd;clip-rule:evenodd;fill:#FFFFFF;}
	.st65{fill-rule:evenodd;clip-rule:evenodd;fill:#1996B8;}
	.st66{fill:none;stroke:#5A605A;stroke-width:4;stroke-miterlimit:10;}
	.st67{fill:#FFB412;}
	.st68{fill:#BACDD1;}
	.st69{fill:#1C4D59;}
	.st70{fill:#A14329;}
	.st71{fill:#FCC083;}
	.st72{fill:#E8AA63;}
	.st73{fill:#D40000;}
	.st74{opacity:0.35;fill:#7D7D7D;}
	.st75{fill:#E5E3E3;}
	.st76{fill:#121F5E;}
	.st77{fill:#A3ADAF;}
	.st78{fill:#C2C6C6;}
	.st79{fill:#E5E5E5;stroke:#FFFFFF;stroke-miterlimit:10;}
	.st80{fill:#ACB4B5;}
	.st81{fill:#7F8384;}
	.st82{fill:#282828;}
	.st83{fill:none;stroke:#46A508;stroke-width:6;stroke-miterlimit:10;}
	.st84{fill:none;stroke:#46A508;stroke-width:6;stroke-miterlimit:10;stroke-dasharray:11.7425,11.7425;}
	.st85{fill:#C89D76;}
	.st86{opacity:0.4;}
	.st87{fill:#ADADAD;}
	.st88{fill:#76A172;}
	.st89{fill:#62835F;}
	.st90{fill:#96D090;}
	.st91{fill:#EDC3A6;}
	.st92{opacity:0.69;}
	.st93{fill:#E5D3D6;}
	.st94{opacity:0.44;}
	.st95{fill:#A5A5A5;}
	.st96{fill:#DDE5E4;}
	.st97{fill:#FDFDFD;}
	.st98{fill:#E0C348;}
	.st99{fill:#606060;}
</style>
<g>
	<g>
		<path class="st5" d="M0,194.36c0,22,13.29,27.86,29.54,13.03c0,0,156.99-143.3,353.09,26.97V40c0-22-18-40-40-40H40
			C18,0,0,18,0,40V194.36z"/>
	</g>
	<g>
		<path class="st5" d="M382.16,632c0,22-18,40-40,40H40.48c-22,0-40-18-40-40v-46.27c0-22,18-40,40-40h301.68c22,0,40,18,40,40V632z
			"/>
	</g>
	<g>
		<path d="M114.22,341.51c0-0.13,0.04-0.28,0.11-0.46l5.23-12.58c0.13-0.29,0.27-0.5,0.43-0.62s0.39-0.18,0.68-0.18h2.29
			c0.29,0,0.52,0.06,0.68,0.18c0.16,0.12,0.3,0.33,0.43,0.62l5.21,12.58c0.07,0.18,0.11,0.34,0.11,0.46c0,0.29-0.15,0.44-0.46,0.44
			h-3.95c-0.43,0-0.71-0.19-0.82-0.57l-0.5-1.55h-3.72l-0.48,1.55c-0.11,0.38-0.38,0.57-0.82,0.57h-3.95
			C114.38,341.95,114.22,341.8,114.22,341.51z M122.62,336.51l-0.82-2.6l-0.82,2.6H122.62z"/>
		<path d="M130.72,341.66c-0.19-0.2-0.28-0.5-0.28-0.9v-11.89c0-0.41,0.09-0.71,0.28-0.9c0.19-0.2,0.51-0.29,0.98-0.29h2.5
			c0.48,0,0.81,0.09,1,0.28c0.19,0.19,0.28,0.49,0.28,0.91v4.16h3.74v-4.16c0-0.41,0.09-0.71,0.28-0.9c0.19-0.2,0.51-0.29,0.98-0.29
			h2.5c0.48,0,0.81,0.09,1,0.28c0.19,0.19,0.28,0.49,0.28,0.91v11.89c0,0.41-0.09,0.71-0.28,0.9c-0.19,0.2-0.52,0.29-1,0.29h-2.5
			c-0.46,0-0.79-0.1-0.98-0.29s-0.28-0.5-0.28-0.9v-4.16h-3.74v4.16c0,0.41-0.09,0.71-0.28,0.9s-0.52,0.29-1,0.29h-2.5
			C131.23,341.95,130.91,341.85,130.72,341.66z"/>
		<path d="M147.23,340.32c-1.29-1.29-1.93-3.13-1.93-5.51s0.64-4.22,1.93-5.51c1.29-1.29,3.18-1.94,5.67-1.94s4.38,0.65,5.67,1.94
			c1.29,1.29,1.93,3.13,1.93,5.51s-0.64,4.22-1.93,5.51c-1.29,1.3-3.18,1.94-5.67,1.94S148.52,341.62,147.23,340.32z M154.88,337.76
			c0.41-0.65,0.61-1.63,0.61-2.95c0-1.33-0.2-2.32-0.61-2.96c-0.41-0.64-1.06-0.97-1.97-0.97s-1.57,0.32-1.97,0.97
			c-0.41,0.64-0.61,1.63-0.61,2.96c0,1.32,0.2,2.3,0.61,2.95s1.06,0.98,1.97,0.98S154.47,338.41,154.88,337.76z"/>
		<path d="M161.84,341.66c-0.19-0.2-0.28-0.5-0.28-0.9v-11.89c0-0.41,0.09-0.71,0.28-0.9c0.19-0.2,0.52-0.29,0.98-0.29h5.02
			c2.1,0,3.63,0.42,4.59,1.25s1.44,2.09,1.44,3.77c0,1.01-0.17,1.86-0.52,2.55c-0.34,0.69-0.87,1.24-1.58,1.63l1.95,4.18
			c0.06,0.11,0.08,0.24,0.08,0.38c0,0.15-0.05,0.28-0.16,0.38c-0.11,0.1-0.24,0.15-0.41,0.15h-3.55c-0.22,0-0.4-0.03-0.54-0.09
			c-0.13-0.06-0.23-0.17-0.28-0.33l-1.55-3.91h-0.71v3.13c0,0.41-0.09,0.71-0.28,0.9s-0.52,0.29-1,0.29h-2.5
			C162.35,341.95,162.03,341.85,161.84,341.66z M167.39,334.12c0.45,0,0.8-0.12,1.06-0.36c0.26-0.24,0.39-0.59,0.39-1.07
			c0-0.49-0.13-0.85-0.39-1.09c-0.26-0.24-0.61-0.36-1.06-0.36h-1.43v2.88H167.39z"/>
		<path d="M175.19,341.66c-0.19-0.2-0.28-0.5-0.28-0.9v-11.89c0-0.41,0.09-0.71,0.28-0.9c0.19-0.2,0.52-0.29,0.98-0.29h5.02
			c2.1,0,3.63,0.42,4.59,1.25s1.44,2.09,1.44,3.77c0,1.01-0.17,1.86-0.52,2.55c-0.34,0.69-0.87,1.24-1.58,1.63l1.95,4.18
			c0.06,0.11,0.08,0.24,0.08,0.38c0,0.15-0.05,0.28-0.16,0.38c-0.11,0.1-0.24,0.15-0.41,0.15h-3.55c-0.22,0-0.4-0.03-0.54-0.09
			c-0.13-0.06-0.23-0.17-0.28-0.33l-1.55-3.91h-0.71v3.13c0,0.41-0.09,0.71-0.28,0.9s-0.52,0.29-1,0.29h-2.5
			C175.71,341.95,175.38,341.85,175.19,341.66z M180.75,334.12c0.45,0,0.8-0.12,1.06-0.36c0.26-0.24,0.39-0.59,0.39-1.07
			c0-0.49-0.13-0.85-0.39-1.09c-0.26-0.24-0.61-0.36-1.06-0.36h-1.43v2.88H180.75z"/>
		<path d="M186.9,341.51c0-0.13,0.04-0.28,0.11-0.46l5.23-12.58c0.13-0.29,0.27-0.5,0.43-0.62c0.16-0.12,0.39-0.18,0.68-0.18h2.29
			c0.29,0,0.52,0.06,0.68,0.18s0.3,0.33,0.43,0.62l5.21,12.58c0.07,0.18,0.1,0.34,0.1,0.46c0,0.29-0.15,0.44-0.46,0.44h-3.95
			c-0.43,0-0.71-0.19-0.82-0.57l-0.5-1.55h-3.72l-0.48,1.55c-0.11,0.38-0.39,0.57-0.82,0.57h-3.95
			C187.05,341.95,186.9,341.8,186.9,341.51z M195.3,336.51l-0.82-2.6l-0.82,2.6H195.3z"/>
		<path d="M213.04,341.66c-0.19-0.2-0.28-0.5-0.28-0.9v-9.51h-3.02c-0.45,0-0.75-0.09-0.91-0.28c-0.16-0.19-0.24-0.49-0.24-0.91
			v-1.18c0-0.42,0.08-0.72,0.24-0.91c0.16-0.19,0.46-0.28,0.91-0.28h11.09c0.45,0,0.75,0.09,0.91,0.28
			c0.16,0.19,0.24,0.49,0.24,0.91v1.18c0,0.42-0.08,0.72-0.24,0.91c-0.16,0.19-0.46,0.28-0.91,0.28h-3.03v9.51
			c0,0.41-0.09,0.71-0.28,0.9c-0.19,0.2-0.52,0.29-1,0.29h-2.5C213.55,341.95,213.22,341.85,213.04,341.66z"/>
		<path d="M222.88,341.66c-0.19-0.2-0.28-0.5-0.28-0.9v-11.89c0-0.41,0.09-0.71,0.28-0.9c0.19-0.2,0.51-0.29,0.98-0.29h2.5
			c0.48,0,0.81,0.09,1,0.28c0.19,0.19,0.28,0.49,0.28,0.91v11.89c0,0.41-0.09,0.71-0.28,0.9s-0.52,0.29-1,0.29h-2.5
			C223.4,341.95,223.07,341.85,222.88,341.66z"/>
		<path d="M229.39,341.66c-0.19-0.2-0.28-0.5-0.28-0.9v-11.89c0-0.41,0.09-0.71,0.28-0.9c0.19-0.2,0.51-0.29,0.98-0.29h8.69
			c0.45,0,0.75,0.09,0.91,0.28c0.16,0.19,0.24,0.49,0.24,0.91v1.18c0,0.42-0.08,0.72-0.24,0.91c-0.16,0.19-0.47,0.28-0.91,0.28
			h-4.91v1.81h3.02c0.45,0,0.75,0.09,0.91,0.28c0.16,0.19,0.24,0.49,0.24,0.91v1.13c0,0.42-0.08,0.72-0.24,0.91
			c-0.16,0.19-0.46,0.28-0.91,0.28h-3.02v1.81h4.89c0.45,0,0.75,0.09,0.91,0.28c0.16,0.19,0.24,0.49,0.24,0.91v1.18
			c0,0.42-0.08,0.72-0.24,0.91c-0.16,0.19-0.47,0.28-0.91,0.28h-8.67C229.91,341.95,229.58,341.85,229.39,341.66z"/>
		<path d="M241.45,341.66c-0.19-0.2-0.28-0.5-0.28-0.9v-11.91c0-0.41,0.09-0.7,0.28-0.89c0.19-0.19,0.52-0.28,1-0.28h2.42
			c0.31,0,0.55,0.04,0.74,0.12c0.18,0.08,0.32,0.23,0.42,0.45l2.46,6.15l2.46-6.15c0.1-0.22,0.24-0.37,0.42-0.45
			c0.18-0.08,0.43-0.12,0.73-0.12h2.42c0.48,0,0.81,0.09,1,0.28c0.19,0.19,0.28,0.49,0.28,0.89v11.91c0,0.41-0.09,0.71-0.28,0.9
			c-0.19,0.2-0.51,0.29-0.98,0.29h-2.02c-0.46,0-0.79-0.1-0.99-0.29c-0.2-0.2-0.29-0.5-0.29-0.9v-5.73l-1.24,2.86
			c-0.17,0.41-0.35,0.7-0.55,0.87c-0.2,0.17-0.52,0.26-0.96,0.26c-0.45,0-0.77-0.09-0.97-0.26c-0.2-0.17-0.38-0.47-0.55-0.87
			l-1.24-2.86v5.73c0,0.41-0.09,0.71-0.28,0.9s-0.52,0.29-1,0.29h-2.02C241.96,341.95,241.64,341.85,241.45,341.66z"/>
		<path d="M257.53,341.66c-0.19-0.2-0.28-0.5-0.28-0.9v-11.89c0-0.41,0.09-0.71,0.28-0.9c0.19-0.2,0.52-0.29,0.98-0.29h5.02
			c2.1,0,3.63,0.42,4.59,1.25s1.44,2.09,1.44,3.77c0,1.68-0.48,2.93-1.44,3.76s-2.48,1.24-4.57,1.24h-1.26v3.07
			c0,0.41-0.09,0.71-0.28,0.9s-0.52,0.29-1,0.29h-2.5C258.05,341.95,257.72,341.85,257.53,341.66z M263.09,334.12
			c0.45,0,0.8-0.12,1.06-0.36c0.26-0.24,0.39-0.59,0.39-1.07c0-0.49-0.13-0.85-0.39-1.09c-0.26-0.24-0.61-0.36-1.06-0.36h-1.43v2.88
			H263.09z"/>
		<path d="M271.17,340.32c-1.29-1.29-1.93-3.13-1.93-5.51s0.64-4.22,1.93-5.51c1.29-1.29,3.18-1.94,5.67-1.94
			c2.49,0,4.38,0.65,5.67,1.94c1.29,1.29,1.93,3.13,1.93,5.51s-0.64,4.22-1.93,5.51c-1.29,1.3-3.18,1.94-5.67,1.94
			C274.35,342.27,272.46,341.62,271.17,340.32z M278.82,337.76c0.41-0.65,0.61-1.63,0.61-2.95c0-1.33-0.2-2.32-0.61-2.96
			c-0.41-0.64-1.06-0.97-1.97-0.97c-0.91,0-1.57,0.32-1.97,0.97c-0.41,0.64-0.61,1.63-0.61,2.96c0,1.32,0.2,2.3,0.61,2.95
			s1.06,0.98,1.97,0.98C277.75,338.74,278.41,338.41,278.82,337.76z"/>
		<path d="M130.31,366.86c-0.19-0.2-0.28-0.5-0.28-0.9v-3.8l-4.89-8.38c-0.08-0.15-0.13-0.3-0.13-0.44c0-0.31,0.16-0.46,0.48-0.46
			h3.95c0.21,0,0.37,0.05,0.48,0.14c0.11,0.09,0.22,0.23,0.34,0.43l2.29,4.12l2.29-4.12c0.11-0.2,0.22-0.34,0.34-0.43
			c0.11-0.09,0.27-0.14,0.48-0.14h3.95c0.32,0,0.48,0.15,0.48,0.46c0,0.14-0.04,0.29-0.13,0.44l-4.89,8.38v3.8
			c0,0.41-0.09,0.71-0.28,0.9c-0.19,0.2-0.52,0.29-1,0.29h-2.5C130.82,367.15,130.5,367.05,130.31,366.86z"/>
		<path d="M147.74,366.86c-0.19-0.2-0.28-0.5-0.28-0.9v-11.89c0-0.41,0.09-0.71,0.28-0.9c0.19-0.2,0.52-0.29,0.98-0.29h4.83
			c4.94,0,7.41,2.38,7.41,7.14c0,2.35-0.63,4.13-1.9,5.33s-3.1,1.81-5.51,1.81h-4.83C148.25,367.15,147.93,367.05,147.74,366.86z
			 M153.73,363.58c0.78,0,1.35-0.26,1.69-0.78c0.34-0.52,0.51-1.45,0.51-2.79c0-1.34-0.17-2.28-0.51-2.79
			c-0.34-0.52-0.91-0.78-1.69-0.78h-1.24v7.14H153.73z"/>
		<path d="M162.29,366.86c-0.19-0.2-0.28-0.5-0.28-0.9v-11.89c0-0.41,0.09-0.71,0.28-0.9c0.19-0.2,0.52-0.29,0.98-0.29h2.5
			c0.47,0,0.81,0.09,1,0.28c0.19,0.19,0.28,0.49,0.28,0.91v11.89c0,0.41-0.09,0.71-0.28,0.9s-0.52,0.29-1,0.29h-2.5
			C162.8,367.15,162.48,367.05,162.29,366.86z"/>
		<path d="M168.8,366.86c-0.19-0.2-0.28-0.5-0.28-0.9v-11.91c0-0.41,0.1-0.7,0.28-0.89c0.19-0.19,0.52-0.28,1-0.28h2
			c0.29,0,0.52,0.04,0.68,0.12s0.32,0.23,0.47,0.45l3.8,5.65v-5.02c0-0.41,0.09-0.71,0.28-0.9c0.19-0.2,0.52-0.29,0.98-0.29h2.5
			c0.47,0,0.81,0.09,1,0.28c0.19,0.19,0.28,0.49,0.28,0.91v11.91c0,0.41-0.09,0.7-0.28,0.89c-0.19,0.19-0.52,0.28-1,0.28h-2
			c-0.29,0-0.52-0.04-0.68-0.12c-0.16-0.08-0.32-0.23-0.47-0.45l-3.8-5.65v5.04c0,0.41-0.09,0.7-0.28,0.89
			c-0.19,0.19-0.52,0.28-1,0.28h-2.5C169.31,367.15,168.99,367.05,168.8,366.86z"/>
		<path d="M183.54,366.86c-0.19-0.2-0.28-0.5-0.28-0.9v-11.89c0-0.41,0.09-0.71,0.28-0.9c0.19-0.2,0.52-0.29,0.98-0.29h8.69
			c0.45,0,0.75,0.09,0.91,0.28c0.16,0.19,0.24,0.49,0.24,0.91v1.18c0,0.42-0.08,0.72-0.24,0.91c-0.16,0.19-0.46,0.28-0.91,0.28
			h-4.91v1.81h3.02c0.45,0,0.75,0.09,0.91,0.28c0.16,0.19,0.24,0.49,0.24,0.91v1.13c0,0.42-0.08,0.72-0.24,0.91
			c-0.16,0.19-0.47,0.28-0.91,0.28h-3.02v1.81h4.89c0.45,0,0.75,0.09,0.91,0.28c0.16,0.19,0.24,0.49,0.24,0.91v1.18
			c0,0.42-0.08,0.72-0.24,0.91c-0.16,0.19-0.47,0.28-0.91,0.28h-8.67C184.06,367.15,183.73,367.05,183.54,366.86z"/>
		<path d="M195.6,366.86c-0.19-0.2-0.28-0.5-0.28-0.9v-11.89c0-0.41,0.09-0.71,0.28-0.9c0.19-0.2,0.51-0.29,0.98-0.29h5.02
			c2.1,0,3.63,0.42,4.59,1.25s1.44,2.09,1.44,3.77c0,1.01-0.17,1.86-0.51,2.55c-0.34,0.69-0.87,1.24-1.59,1.63l1.95,4.18
			c0.06,0.11,0.08,0.24,0.08,0.38c0,0.15-0.05,0.28-0.16,0.38c-0.1,0.1-0.24,0.15-0.41,0.15h-3.55c-0.22,0-0.4-0.03-0.54-0.09
			c-0.13-0.06-0.23-0.17-0.28-0.33l-1.55-3.91h-0.71v3.13c0,0.41-0.09,0.71-0.28,0.9s-0.52,0.29-1,0.29h-2.5
			C196.11,367.15,195.78,367.05,195.6,366.86z M201.15,359.32c0.45,0,0.8-0.12,1.06-0.36c0.26-0.24,0.39-0.59,0.39-1.07
			c0-0.49-0.13-0.85-0.39-1.09c-0.26-0.24-0.61-0.36-1.06-0.36h-1.43v2.88H201.15z"/>
		<path d="M210.18,365.52c-1.29-1.29-1.93-3.13-1.93-5.51s0.64-4.22,1.93-5.51c1.29-1.29,3.18-1.94,5.67-1.94s4.38,0.65,5.67,1.94
			s1.93,3.13,1.93,5.51s-0.64,4.22-1.93,5.51c-1.29,1.3-3.18,1.94-5.67,1.94S211.47,366.82,210.18,365.52z M217.82,362.96
			c0.41-0.65,0.61-1.63,0.61-2.95c0-1.33-0.2-2.32-0.61-2.96c-0.41-0.64-1.06-0.97-1.97-0.97s-1.57,0.32-1.97,0.97
			c-0.41,0.64-0.61,1.63-0.61,2.96c0,1.32,0.2,2.3,0.61,2.95s1.06,0.98,1.97,0.98S217.42,363.61,217.82,362.96z"/>
		<path d="M232.5,365.59c-1.41-1.25-2.12-3.11-2.12-5.58c0-2.48,0.68-4.34,2.05-5.59c1.37-1.25,3.31-1.87,5.85-1.87
			c1.15,0,2.17,0.11,3.07,0.34s1.65,0.54,2.25,0.94c0.17,0.13,0.25,0.27,0.25,0.42c0,0.13-0.06,0.3-0.19,0.52l-1.05,1.81
			c-0.11,0.2-0.25,0.29-0.4,0.29c-0.1,0-0.26-0.06-0.48-0.17c-0.39-0.2-0.8-0.35-1.23-0.46c-0.43-0.11-0.93-0.17-1.5-0.17
			c-1.16,0-2.05,0.34-2.67,1.01c-0.62,0.67-0.92,1.64-0.92,2.92c0,1.26,0.34,2.23,1.01,2.91s1.59,1.02,2.75,1.02
			c1.01,0,1.93-0.21,2.77-0.63c0.22-0.11,0.38-0.17,0.48-0.17c0.15,0,0.29,0.1,0.4,0.29l1.05,1.81c0.13,0.22,0.19,0.4,0.19,0.53
			c0,0.15-0.08,0.29-0.25,0.42c-0.6,0.41-1.36,0.72-2.27,0.94c-0.91,0.22-1.94,0.34-3.09,0.34
			C235.9,367.47,233.92,366.84,232.5,365.59z"/>
		<path d="M245.67,365.52c-1.29-1.29-1.93-3.13-1.93-5.51s0.64-4.22,1.93-5.51c1.29-1.29,3.18-1.94,5.67-1.94
			c2.49,0,4.38,0.65,5.67,1.94c1.29,1.29,1.93,3.13,1.93,5.51s-0.64,4.22-1.93,5.51c-1.29,1.3-3.18,1.94-5.67,1.94
			C248.85,367.47,246.96,366.82,245.67,365.52z M253.31,362.96c0.41-0.65,0.61-1.63,0.61-2.95c0-1.33-0.2-2.32-0.61-2.96
			c-0.41-0.64-1.06-0.97-1.97-0.97c-0.91,0-1.57,0.32-1.97,0.97c-0.41,0.64-0.61,1.63-0.61,2.96c0,1.32,0.2,2.3,0.61,2.95
			s1.06,0.98,1.97,0.98C252.25,363.94,252.91,363.61,253.31,362.96z"/>
		<path d="M260.27,366.86c-0.19-0.2-0.28-0.5-0.28-0.9v-11.91c0-0.41,0.1-0.7,0.28-0.89c0.19-0.19,0.52-0.28,1-0.28h2
			c0.29,0,0.52,0.04,0.68,0.12s0.32,0.23,0.47,0.45l3.8,5.65v-5.02c0-0.41,0.09-0.71,0.28-0.9c0.19-0.2,0.52-0.29,0.98-0.29h2.5
			c0.47,0,0.81,0.09,1,0.28c0.19,0.19,0.28,0.49,0.28,0.91v11.91c0,0.41-0.09,0.7-0.28,0.89c-0.19,0.19-0.52,0.28-1,0.28h-2
			c-0.29,0-0.52-0.04-0.68-0.12c-0.16-0.08-0.32-0.23-0.47-0.45l-3.8-5.65v5.04c0,0.41-0.09,0.7-0.28,0.89
			c-0.19,0.19-0.52,0.28-1,0.28h-2.5C260.79,367.15,260.46,367.05,260.27,366.86z"/>
		<path d="M116.23,392.01c-1.04-0.44-1.84-1.08-2.42-1.91c-0.57-0.83-0.86-1.82-0.86-2.97v-7.85c0-0.41,0.09-0.71,0.28-0.9
			c0.19-0.2,0.51-0.29,0.98-0.29h2.5c0.48,0,0.81,0.09,1,0.28c0.19,0.19,0.28,0.49,0.28,0.91v7.92c0,0.66,0.16,1.15,0.49,1.47
			c0.33,0.32,0.78,0.48,1.35,0.48s1.03-0.16,1.36-0.48c0.33-0.32,0.49-0.81,0.49-1.47v-7.92c0-0.41,0.09-0.71,0.28-0.9
			c0.19-0.2,0.51-0.29,0.98-0.29h2.5c0.48,0,0.81,0.09,1,0.28c0.19,0.19,0.28,0.49,0.28,0.91v7.85c0,1.15-0.29,2.14-0.86,2.97
			c-0.57,0.83-1.38,1.47-2.42,1.91c-1.04,0.44-2.24,0.66-3.61,0.66C118.47,392.67,117.26,392.45,116.23,392.01z"/>
		<path d="M128.38,392.06c-0.19-0.2-0.28-0.5-0.28-0.9v-11.91c0-0.41,0.09-0.7,0.28-0.89c0.19-0.19,0.52-0.28,1-0.28h2
			c0.29,0,0.52,0.04,0.68,0.12c0.16,0.08,0.32,0.23,0.47,0.45l3.8,5.65v-5.02c0-0.41,0.1-0.71,0.28-0.9
			c0.19-0.2,0.51-0.29,0.98-0.29h2.5c0.48,0,0.81,0.09,1,0.28c0.19,0.19,0.28,0.49,0.28,0.91v11.91c0,0.41-0.09,0.7-0.28,0.89
			c-0.19,0.19-0.52,0.28-1,0.28h-2c-0.29,0-0.52-0.04-0.68-0.12s-0.32-0.23-0.47-0.45l-3.8-5.65v5.04c0,0.41-0.09,0.7-0.28,0.89
			c-0.19,0.19-0.52,0.28-1,0.28h-2.5C128.89,392.35,128.56,392.25,128.38,392.06z"/>
		<path d="M154.25,392.17c-0.16-0.12-0.3-0.33-0.41-0.62l-5.02-12.58c-0.07-0.18-0.11-0.34-0.11-0.46c0-0.29,0.15-0.44,0.46-0.44
			h3.95c0.43,0,0.71,0.19,0.82,0.57l2.14,6.85l2.14-6.85c0.11-0.38,0.38-0.57,0.82-0.57h3.95c0.31,0,0.46,0.15,0.46,0.44
			c0,0.13-0.04,0.28-0.11,0.46l-5,12.58c-0.11,0.29-0.25,0.5-0.41,0.62c-0.16,0.12-0.4,0.18-0.7,0.18h-2.29
			C154.64,392.35,154.41,392.29,154.25,392.17z"/>
		<path d="M164.65,390.72c-1.29-1.29-1.93-3.13-1.93-5.51s0.64-4.22,1.93-5.51c1.29-1.29,3.18-1.94,5.67-1.94
			c2.49,0,4.38,0.65,5.67,1.94c1.29,1.29,1.93,3.13,1.93,5.51s-0.64,4.22-1.93,5.51c-1.29,1.3-3.18,1.94-5.67,1.94
			C167.83,392.67,165.94,392.02,164.65,390.72z M172.3,388.16c0.41-0.65,0.61-1.63,0.61-2.95c0-1.33-0.2-2.32-0.61-2.96
			c-0.41-0.64-1.06-0.97-1.97-0.97c-0.91,0-1.57,0.32-1.97,0.97c-0.41,0.64-0.61,1.63-0.61,2.96c0,1.32,0.2,2.3,0.61,2.95
			s1.06,0.98,1.97,0.98C171.23,389.14,171.89,388.81,172.3,388.16z"/>
		<path d="M179.26,392.06c-0.19-0.2-0.28-0.5-0.28-0.9v-11.89c0-0.41,0.09-0.71,0.28-0.9c0.19-0.2,0.51-0.29,0.98-0.29h2.5
			c0.48,0,0.81,0.09,1,0.28c0.19,0.19,0.28,0.49,0.28,0.91v9.51h4.89c0.45,0,0.75,0.09,0.91,0.28c0.16,0.19,0.24,0.49,0.24,0.91
			v1.18c0,0.42-0.08,0.72-0.24,0.91c-0.16,0.19-0.47,0.28-0.91,0.28h-8.67C179.77,392.35,179.45,392.25,179.26,392.06z"/>
		<path d="M193.13,392.01c-1.04-0.44-1.84-1.08-2.42-1.91c-0.57-0.83-0.86-1.82-0.86-2.97v-7.85c0-0.41,0.1-0.71,0.28-0.9
			c0.19-0.2,0.51-0.29,0.98-0.29h2.5c0.48,0,0.81,0.09,1,0.28c0.19,0.19,0.28,0.49,0.28,0.91v7.92c0,0.66,0.16,1.15,0.49,1.47
			c0.33,0.32,0.78,0.48,1.35,0.48s1.03-0.16,1.35-0.48c0.33-0.32,0.49-0.81,0.49-1.47v-7.92c0-0.41,0.09-0.71,0.28-0.9
			c0.19-0.2,0.52-0.29,0.98-0.29h2.5c0.47,0,0.81,0.09,1,0.28c0.19,0.19,0.28,0.49,0.28,0.91v7.85c0,1.15-0.29,2.14-0.86,2.97
			c-0.57,0.83-1.38,1.47-2.42,1.91c-1.04,0.44-2.24,0.66-3.61,0.66C195.37,392.67,194.16,392.45,193.13,392.01z"/>
		<path d="M205.28,392.06c-0.19-0.2-0.28-0.5-0.28-0.9v-11.91c0-0.41,0.1-0.7,0.28-0.89c0.19-0.19,0.52-0.28,1-0.28h2.42
			c0.31,0,0.55,0.04,0.73,0.12s0.32,0.23,0.42,0.45l2.46,6.15l2.46-6.15c0.1-0.22,0.24-0.37,0.42-0.45s0.43-0.12,0.73-0.12h2.42
			c0.48,0,0.81,0.09,1,0.28c0.19,0.19,0.28,0.49,0.28,0.89v11.91c0,0.41-0.1,0.71-0.28,0.9s-0.51,0.29-0.98,0.29h-2.02
			c-0.46,0-0.79-0.1-0.99-0.29c-0.2-0.2-0.29-0.5-0.29-0.9v-5.73l-1.24,2.86c-0.17,0.41-0.35,0.7-0.55,0.87s-0.52,0.26-0.97,0.26
			c-0.45,0-0.77-0.09-0.97-0.26s-0.38-0.47-0.55-0.87l-1.24-2.86v5.73c0,0.41-0.09,0.71-0.28,0.9c-0.19,0.2-0.52,0.29-1,0.29h-2.02
			C205.79,392.35,205.46,392.25,205.28,392.06z"/>
		<path d="M221.36,392.06c-0.19-0.2-0.28-0.5-0.28-0.9v-11.89c0-0.41,0.1-0.71,0.28-0.9c0.19-0.2,0.51-0.29,0.98-0.29h8.69
			c0.45,0,0.75,0.09,0.91,0.28c0.16,0.19,0.24,0.49,0.24,0.91v1.18c0,0.42-0.08,0.72-0.24,0.91c-0.16,0.19-0.47,0.28-0.91,0.28
			h-4.91v1.81h3.02c0.45,0,0.75,0.09,0.91,0.28c0.16,0.19,0.24,0.49,0.24,0.91v1.13c0,0.42-0.08,0.72-0.24,0.91
			c-0.16,0.19-0.47,0.28-0.91,0.28h-3.02v1.81h4.89c0.45,0,0.75,0.09,0.91,0.28c0.16,0.19,0.24,0.49,0.24,0.91v1.18
			c0,0.42-0.08,0.72-0.24,0.91c-0.16,0.19-0.47,0.28-0.91,0.28h-8.67C221.88,392.35,221.55,392.25,221.36,392.06z"/>
		<path d="M233.42,392.06c-0.19-0.2-0.28-0.5-0.28-0.9v-11.91c0-0.41,0.09-0.7,0.28-0.89c0.19-0.19,0.52-0.28,1-0.28h1.99
			c0.29,0,0.52,0.04,0.68,0.12s0.32,0.23,0.47,0.45l3.8,5.65v-5.02c0-0.41,0.09-0.71,0.28-0.9c0.19-0.2,0.51-0.29,0.98-0.29h2.5
			c0.48,0,0.81,0.09,1,0.28c0.19,0.19,0.28,0.49,0.28,0.91v11.91c0,0.41-0.09,0.7-0.28,0.89c-0.19,0.19-0.52,0.28-1,0.28h-1.99
			c-0.29,0-0.52-0.04-0.68-0.12c-0.16-0.08-0.32-0.23-0.47-0.45l-3.8-5.65v5.04c0,0.41-0.09,0.7-0.28,0.89
			c-0.19,0.19-0.52,0.28-1,0.28h-2.5C233.93,392.35,233.61,392.25,233.42,392.06z"/>
		<path d="M254.46,392.06c-0.19-0.2-0.28-0.5-0.28-0.9v-11.89c0-0.41,0.09-0.71,0.28-0.9c0.19-0.2,0.52-0.29,0.98-0.29h4.83
			c4.94,0,7.41,2.38,7.41,7.14c0,2.35-0.63,4.13-1.9,5.33s-3.1,1.81-5.51,1.81h-4.83C254.97,392.35,254.65,392.25,254.46,392.06z
			 M260.45,388.78c0.78,0,1.35-0.26,1.69-0.78c0.34-0.52,0.51-1.45,0.51-2.79c0-1.34-0.17-2.28-0.51-2.79
			c-0.34-0.52-0.91-0.78-1.69-0.78h-1.24v7.14H260.45z"/>
		<path d="M269.01,392.06c-0.19-0.2-0.28-0.5-0.28-0.9v-11.89c0-0.41,0.09-0.71,0.28-0.9c0.19-0.2,0.52-0.29,0.98-0.29h8.69
			c0.45,0,0.75,0.09,0.91,0.28c0.16,0.19,0.24,0.49,0.24,0.91v1.18c0,0.42-0.08,0.72-0.24,0.91c-0.16,0.19-0.46,0.28-0.91,0.28
			h-4.91v1.81h3.02c0.45,0,0.75,0.09,0.91,0.28c0.16,0.19,0.24,0.49,0.24,0.91v1.13c0,0.42-0.08,0.72-0.24,0.91
			c-0.16,0.19-0.47,0.28-0.91,0.28h-3.02v1.81h4.89c0.45,0,0.75,0.09,0.91,0.28c0.16,0.19,0.24,0.49,0.24,0.91v1.18
			c0,0.42-0.08,0.72-0.24,0.91c-0.16,0.19-0.47,0.28-0.91,0.28h-8.67C269.53,392.35,269.2,392.25,269.01,392.06z"/>
		<path d="M113.95,417.26c-0.19-0.2-0.28-0.5-0.28-0.9v-11.89c0-0.41,0.1-0.71,0.28-0.9c0.19-0.2,0.51-0.29,0.98-0.29h8.69
			c0.45,0,0.75,0.09,0.91,0.28c0.16,0.19,0.24,0.49,0.24,0.91v1.18c0,0.42-0.08,0.72-0.24,0.91c-0.16,0.19-0.47,0.28-0.91,0.28
			h-4.91v1.81h3.02c0.45,0,0.75,0.09,0.91,0.28c0.16,0.19,0.24,0.49,0.24,0.91v1.13c0,0.42-0.08,0.72-0.24,0.91
			c-0.16,0.19-0.47,0.28-0.91,0.28h-3.02v1.81h4.89c0.45,0,0.75,0.09,0.91,0.28c0.16,0.19,0.24,0.49,0.24,0.91v1.18
			c0,0.42-0.08,0.72-0.24,0.91c-0.16,0.19-0.47,0.28-0.91,0.28h-8.67C114.46,417.55,114.14,417.45,113.95,417.26z"/>
		<path d="M126,417.26c-0.19-0.2-0.28-0.5-0.28-0.9v-11.91c0-0.41,0.09-0.7,0.28-0.89c0.19-0.19,0.52-0.28,1-0.28h1.99
			c0.29,0,0.52,0.04,0.68,0.12s0.32,0.23,0.47,0.45l3.8,5.65v-5.02c0-0.41,0.09-0.71,0.28-0.9c0.19-0.2,0.51-0.29,0.98-0.29h2.5
			c0.48,0,0.81,0.09,1,0.28c0.19,0.19,0.28,0.49,0.28,0.91v11.91c0,0.41-0.09,0.7-0.28,0.89c-0.19,0.19-0.52,0.28-1,0.28h-1.99
			c-0.29,0-0.52-0.04-0.68-0.12c-0.16-0.08-0.32-0.23-0.47-0.45l-3.8-5.65v5.04c0,0.41-0.09,0.7-0.28,0.89
			c-0.19,0.19-0.52,0.28-1,0.28h-2.5C126.52,417.55,126.19,417.45,126,417.26z"/>
		<path d="M145.57,417.37c-0.16-0.12-0.3-0.33-0.41-0.62l-5.02-12.58c-0.07-0.18-0.1-0.34-0.1-0.46c0-0.29,0.15-0.44,0.46-0.44h3.95
			c0.43,0,0.71,0.19,0.82,0.57l2.14,6.85l2.14-6.85c0.11-0.38,0.38-0.57,0.82-0.57h3.95c0.31,0,0.46,0.15,0.46,0.44
			c0,0.13-0.04,0.28-0.11,0.46l-5,12.58c-0.11,0.29-0.25,0.5-0.41,0.62c-0.16,0.12-0.39,0.18-0.7,0.18h-2.29
			C145.97,417.55,145.73,417.49,145.57,417.37z"/>
		<path d="M156.12,417.26c-0.19-0.2-0.28-0.5-0.28-0.9v-11.89c0-0.41,0.09-0.71,0.28-0.9c0.19-0.2,0.52-0.29,0.98-0.29h2.5
			c0.47,0,0.81,0.09,1,0.28c0.19,0.19,0.28,0.49,0.28,0.91v11.89c0,0.41-0.09,0.71-0.28,0.9s-0.52,0.29-1,0.29h-2.5
			C156.63,417.55,156.3,417.45,156.12,417.26z"/>
		<path d="M163.85,415.92c-1.29-1.29-1.93-3.13-1.93-5.51s0.64-4.22,1.93-5.51s3.18-1.94,5.67-1.94c2.49,0,4.38,0.65,5.67,1.94
			s1.93,3.13,1.93,5.51s-0.64,4.22-1.93,5.51c-1.29,1.3-3.18,1.94-5.67,1.94C167.03,417.87,165.14,417.22,163.85,415.92z
			 M171.5,413.36c0.41-0.65,0.61-1.63,0.61-2.95c0-1.33-0.2-2.32-0.61-2.96c-0.41-0.64-1.06-0.97-1.97-0.97
			c-0.91,0-1.57,0.32-1.97,0.97c-0.41,0.64-0.61,1.63-0.61,2.96c0,1.32,0.2,2.3,0.61,2.95s1.06,0.98,1.97,0.98
			C170.43,414.34,171.09,414.01,171.5,413.36z"/>
		<path d="M187.14,417.47c-1.09-0.27-1.97-0.64-2.65-1.11c-0.28-0.2-0.42-0.38-0.42-0.57c0-0.13,0.05-0.26,0.15-0.4l1.22-1.91
			c0.13-0.18,0.25-0.27,0.38-0.27c0.11,0,0.24,0.05,0.4,0.15c0.5,0.31,1.08,0.55,1.73,0.72c0.65,0.18,1.28,0.26,1.9,0.26
			c0.52,0,0.89-0.07,1.12-0.21c0.23-0.14,0.35-0.36,0.35-0.65c0-0.32-0.15-0.58-0.46-0.78c-0.31-0.2-0.84-0.44-1.6-0.74
			c-1.41-0.55-2.53-1.17-3.34-1.86c-0.81-0.69-1.22-1.61-1.22-2.76c0-1.46,0.51-2.55,1.52-3.29c1.02-0.74,2.38-1.1,4.11-1.1
			c1.2,0,2.23,0.1,3.08,0.31s1.58,0.54,2.22,0.99c0.28,0.2,0.42,0.38,0.42,0.57c0,0.13-0.05,0.26-0.15,0.4l-1.22,1.91
			c-0.13,0.2-0.25,0.29-0.38,0.29c-0.08,0-0.22-0.06-0.4-0.17c-0.34-0.22-0.73-0.41-1.2-0.56c-0.46-0.15-0.96-0.22-1.49-0.22
			c-0.49,0-0.86,0.07-1.11,0.21c-0.25,0.14-0.38,0.36-0.38,0.67c0,0.25,0.09,0.46,0.26,0.63c0.17,0.17,0.4,0.31,0.66,0.43
			c0.27,0.12,0.73,0.31,1.38,0.58c1.05,0.42,1.88,0.82,2.48,1.21c0.6,0.39,1.06,0.85,1.37,1.39c0.31,0.54,0.46,1.22,0.46,2.05
			c0,1.26-0.47,2.28-1.42,3.06c-0.95,0.78-2.36,1.17-4.23,1.17C189.42,417.87,188.23,417.73,187.14,417.47z"/>
		<path d="M200.56,417.21c-1.04-0.44-1.84-1.08-2.42-1.91c-0.57-0.83-0.86-1.82-0.86-2.97v-7.85c0-0.41,0.1-0.71,0.28-0.9
			c0.19-0.2,0.51-0.29,0.98-0.29h2.5c0.48,0,0.81,0.09,1,0.28c0.19,0.19,0.28,0.49,0.28,0.91v7.92c0,0.66,0.16,1.15,0.49,1.47
			c0.33,0.32,0.78,0.48,1.35,0.48s1.03-0.16,1.35-0.48c0.33-0.32,0.49-0.81,0.49-1.47v-7.92c0-0.41,0.09-0.71,0.28-0.9
			c0.19-0.2,0.52-0.29,0.98-0.29h2.5c0.47,0,0.81,0.09,1,0.28c0.19,0.19,0.28,0.49,0.28,0.91v7.85c0,1.15-0.29,2.14-0.86,2.97
			c-0.57,0.83-1.38,1.47-2.42,1.91c-1.04,0.44-2.24,0.66-3.61,0.66C202.8,417.87,201.6,417.65,200.56,417.21z"/>
		<path d="M212.71,417.26c-0.19-0.2-0.28-0.5-0.28-0.9v-11.89c0-0.41,0.1-0.71,0.28-0.9c0.19-0.2,0.51-0.29,0.98-0.29h5.02
			c2.1,0,3.63,0.42,4.59,1.25s1.44,2.09,1.44,3.77c0,1.68-0.48,2.93-1.44,3.76s-2.48,1.24-4.57,1.24h-1.26v3.07
			c0,0.41-0.09,0.71-0.28,0.9c-0.19,0.2-0.52,0.29-1,0.29h-2.5C213.22,417.55,212.9,417.45,212.71,417.26z M218.26,409.72
			c0.45,0,0.8-0.12,1.06-0.36c0.26-0.24,0.39-0.59,0.39-1.07c0-0.49-0.13-0.85-0.39-1.09c-0.26-0.24-0.61-0.36-1.06-0.36h-1.43v2.88
			H218.26z"/>
		<path d="M225.65,417.26c-0.19-0.2-0.28-0.5-0.28-0.9v-11.89c0-0.41,0.09-0.71,0.28-0.9c0.19-0.2,0.51-0.29,0.98-0.29h8.69
			c0.45,0,0.75,0.09,0.91,0.28c0.16,0.19,0.24,0.49,0.24,0.91v1.18c0,0.42-0.08,0.72-0.24,0.91c-0.16,0.19-0.47,0.28-0.91,0.28
			h-4.91v1.81h3.02c0.45,0,0.75,0.09,0.91,0.28c0.16,0.19,0.24,0.49,0.24,0.91v1.13c0,0.42-0.08,0.72-0.24,0.91
			c-0.16,0.19-0.46,0.28-0.91,0.28h-3.02v1.81h4.89c0.45,0,0.75,0.09,0.91,0.28c0.16,0.19,0.24,0.49,0.24,0.91v1.18
			c0,0.42-0.08,0.72-0.24,0.91c-0.16,0.19-0.47,0.28-0.91,0.28h-8.67C226.16,417.55,225.83,417.45,225.65,417.26z"/>
		<path d="M237.7,417.26c-0.19-0.2-0.28-0.5-0.28-0.9v-11.89c0-0.41,0.09-0.71,0.28-0.9c0.19-0.2,0.52-0.29,0.98-0.29h5.02
			c2.1,0,3.63,0.42,4.59,1.25s1.44,2.09,1.44,3.77c0,1.01-0.17,1.86-0.52,2.55c-0.34,0.69-0.87,1.24-1.58,1.63l1.95,4.18
			c0.06,0.11,0.08,0.24,0.08,0.38c0,0.15-0.05,0.28-0.16,0.38c-0.11,0.1-0.24,0.15-0.41,0.15h-3.55c-0.22,0-0.4-0.03-0.54-0.09
			c-0.13-0.06-0.23-0.17-0.28-0.33l-1.55-3.91h-0.71v3.13c0,0.41-0.09,0.71-0.28,0.9s-0.52,0.29-1,0.29h-2.5
			C238.21,417.55,237.89,417.45,237.7,417.26z M243.25,409.72c0.45,0,0.8-0.12,1.06-0.36c0.26-0.24,0.39-0.59,0.39-1.07
			c0-0.49-0.13-0.85-0.39-1.09c-0.26-0.24-0.61-0.36-1.06-0.36h-1.43v2.88H243.25z"/>
		<path d="M251.06,417.26c-0.19-0.2-0.28-0.5-0.28-0.9v-11.89c0-0.41,0.1-0.71,0.28-0.9c0.19-0.2,0.51-0.29,0.98-0.29h2.5
			c0.48,0,0.81,0.09,1,0.28c0.19,0.19,0.28,0.49,0.28,0.91v11.89c0,0.41-0.09,0.71-0.28,0.9c-0.19,0.2-0.52,0.29-1,0.29h-2.5
			C251.57,417.55,251.24,417.45,251.06,417.26z"/>
		<path d="M258.79,415.92c-1.29-1.29-1.93-3.13-1.93-5.51s0.64-4.22,1.93-5.51s3.18-1.94,5.67-1.94c2.49,0,4.38,0.65,5.67,1.94
			s1.93,3.13,1.93,5.51s-0.64,4.22-1.93,5.51c-1.29,1.3-3.18,1.94-5.67,1.94C261.97,417.87,260.08,417.22,258.79,415.92z
			 M266.44,413.36c0.41-0.65,0.61-1.63,0.61-2.95c0-1.33-0.2-2.32-0.61-2.96c-0.41-0.64-1.06-0.97-1.97-0.97
			c-0.91,0-1.57,0.32-1.97,0.97c-0.41,0.64-0.61,1.63-0.61,2.96c0,1.32,0.2,2.3,0.61,2.95s1.06,0.98,1.97,0.98
			C265.37,414.34,266.03,414.01,266.44,413.36z"/>
		<path d="M273.4,417.26c-0.19-0.2-0.28-0.5-0.28-0.9v-11.89c0-0.41,0.1-0.71,0.28-0.9c0.19-0.2,0.51-0.29,0.98-0.29h5.02
			c2.1,0,3.63,0.42,4.59,1.25s1.44,2.09,1.44,3.77c0,1.01-0.17,1.86-0.51,2.55c-0.34,0.69-0.87,1.24-1.58,1.63l1.95,4.18
			c0.05,0.11,0.08,0.24,0.08,0.38c0,0.15-0.05,0.28-0.16,0.38c-0.11,0.1-0.24,0.15-0.41,0.15h-3.55c-0.22,0-0.4-0.03-0.54-0.09
			c-0.13-0.06-0.23-0.17-0.28-0.33l-1.55-3.91h-0.71v3.13c0,0.41-0.09,0.71-0.28,0.9c-0.19,0.2-0.52,0.29-1,0.29h-2.5
			C273.91,417.55,273.59,417.45,273.4,417.26z M278.95,409.72c0.45,0,0.8-0.12,1.06-0.36c0.26-0.24,0.39-0.59,0.39-1.07
			c0-0.49-0.13-0.85-0.39-1.09c-0.26-0.24-0.61-0.36-1.06-0.36h-1.43v2.88H278.95z"/>
		<path d="M96.97,442.31c0-0.13,0.04-0.28,0.11-0.46l5.23-12.58c0.13-0.29,0.27-0.5,0.43-0.62c0.16-0.12,0.39-0.18,0.68-0.18h2.29
			c0.29,0,0.52,0.06,0.68,0.18s0.3,0.33,0.43,0.62l5.21,12.58c0.07,0.18,0.1,0.34,0.1,0.46c0,0.29-0.15,0.44-0.46,0.44h-3.95
			c-0.43,0-0.71-0.19-0.82-0.57l-0.5-1.55h-3.72l-0.48,1.55c-0.11,0.38-0.39,0.57-0.82,0.57h-3.95
			C97.12,442.75,96.97,442.6,96.97,442.31z M105.37,437.31l-0.82-2.6l-0.82,2.6H105.37z"/>
		<path d="M119.76,442.46c-0.19-0.2-0.28-0.5-0.28-0.9v-11.89c0-0.41,0.1-0.71,0.28-0.9c0.19-0.2,0.51-0.29,0.98-0.29h2.5
			c0.48,0,0.81,0.09,1,0.28c0.19,0.19,0.28,0.49,0.28,0.91v9.51h4.89c0.45,0,0.75,0.09,0.91,0.28c0.16,0.19,0.24,0.49,0.24,0.91
			v1.18c0,0.42-0.08,0.72-0.24,0.91c-0.16,0.19-0.47,0.28-0.91,0.28h-8.67C120.28,442.75,119.95,442.65,119.76,442.46z"/>
		<path d="M130.46,442.31c0-0.13,0.03-0.28,0.1-0.46l5.23-12.58c0.13-0.29,0.27-0.5,0.43-0.62c0.16-0.12,0.39-0.18,0.68-0.18h2.29
			c0.29,0,0.52,0.06,0.68,0.18c0.16,0.12,0.3,0.33,0.43,0.62l5.21,12.58c0.07,0.18,0.1,0.34,0.1,0.46c0,0.29-0.15,0.44-0.46,0.44
			h-3.95c-0.43,0-0.71-0.19-0.82-0.57l-0.5-1.55h-3.72l-0.48,1.55c-0.11,0.38-0.39,0.57-0.82,0.57h-3.95
			C130.62,442.75,130.46,442.6,130.46,442.31z M138.86,437.31l-0.82-2.6l-0.82,2.6H138.86z"/>
		<path d="M154.68,441.19c-1.41-1.25-2.12-3.11-2.12-5.58c0-2.48,0.68-4.34,2.05-5.59s3.31-1.87,5.85-1.87
			c1.15,0,2.17,0.11,3.07,0.34s1.64,0.54,2.25,0.94c0.17,0.13,0.25,0.27,0.25,0.42c0,0.13-0.06,0.3-0.19,0.52l-1.05,1.81
			c-0.11,0.2-0.24,0.29-0.4,0.29c-0.1,0-0.26-0.06-0.48-0.17c-0.39-0.2-0.8-0.35-1.23-0.46c-0.43-0.11-0.93-0.17-1.5-0.17
			c-1.16,0-2.05,0.34-2.67,1.01c-0.62,0.67-0.92,1.64-0.92,2.92c0,1.26,0.34,2.23,1.01,2.91c0.67,0.68,1.59,1.02,2.75,1.02
			c1.01,0,1.93-0.21,2.77-0.63c0.22-0.11,0.38-0.17,0.48-0.17c0.15,0,0.29,0.1,0.4,0.29l1.05,1.81c0.13,0.22,0.19,0.4,0.19,0.53
			c0,0.15-0.08,0.29-0.25,0.42c-0.6,0.41-1.36,0.72-2.27,0.94c-0.91,0.22-1.94,0.34-3.09,0.34
			C158.07,443.07,156.09,442.44,154.68,441.19z"/>
		<path d="M167.84,441.12c-1.29-1.29-1.93-3.13-1.93-5.51s0.64-4.22,1.93-5.51c1.29-1.29,3.18-1.94,5.67-1.94s4.38,0.65,5.67,1.94
			s1.93,3.13,1.93,5.51s-0.64,4.22-1.93,5.51c-1.29,1.3-3.18,1.94-5.67,1.94S169.13,442.42,167.84,441.12z M175.49,438.56
			c0.41-0.65,0.61-1.63,0.61-2.95c0-1.33-0.2-2.32-0.61-2.96c-0.41-0.64-1.06-0.97-1.97-0.97s-1.57,0.32-1.97,0.97
			c-0.41,0.64-0.61,1.63-0.61,2.96c0,1.32,0.2,2.3,0.61,2.95s1.06,0.98,1.97,0.98S175.08,439.21,175.49,438.56z"/>
		<path d="M181.71,442.46c-0.19-0.2-0.28-0.5-0.28-0.9v-11.91c0-0.41,0.09-0.7,0.28-0.89c0.19-0.19,0.52-0.28,1-0.28h2.42
			c0.31,0,0.55,0.04,0.73,0.12s0.32,0.23,0.42,0.45l2.46,6.15l2.46-6.15c0.1-0.22,0.24-0.37,0.42-0.45s0.43-0.12,0.74-0.12h2.42
			c0.48,0,0.81,0.09,1,0.28c0.19,0.19,0.28,0.49,0.28,0.89v11.91c0,0.41-0.09,0.71-0.28,0.9c-0.19,0.2-0.51,0.29-0.98,0.29h-2.02
			c-0.46,0-0.79-0.1-0.99-0.29c-0.2-0.2-0.29-0.5-0.29-0.9v-5.73l-1.24,2.86c-0.17,0.41-0.35,0.7-0.55,0.87
			c-0.2,0.17-0.52,0.26-0.97,0.26c-0.45,0-0.77-0.09-0.96-0.26c-0.2-0.17-0.38-0.47-0.55-0.87l-1.24-2.86v5.73
			c0,0.41-0.1,0.71-0.28,0.9s-0.52,0.29-1,0.29h-2.02C182.23,442.75,181.9,442.65,181.71,442.46z"/>
		<path d="M197.8,442.46c-0.19-0.2-0.28-0.5-0.28-0.9v-11.89c0-0.41,0.09-0.71,0.28-0.9c0.19-0.2,0.51-0.29,0.98-0.29h5.02
			c2.1,0,3.63,0.42,4.59,1.25s1.44,2.09,1.44,3.77c0,1.68-0.48,2.93-1.44,3.76s-2.48,1.24-4.57,1.24h-1.26v3.07
			c0,0.41-0.09,0.71-0.28,0.9s-0.52,0.29-1,0.29h-2.5C198.31,442.75,197.99,442.65,197.8,442.46z M203.36,434.92
			c0.45,0,0.8-0.12,1.06-0.36c0.26-0.24,0.39-0.59,0.39-1.07c0-0.49-0.13-0.85-0.39-1.09c-0.26-0.24-0.61-0.36-1.06-0.36h-1.43v2.88
			H203.36z"/>
		<path d="M210.74,442.46c-0.19-0.2-0.28-0.5-0.28-0.9v-11.89c0-0.41,0.09-0.71,0.28-0.9c0.19-0.2,0.51-0.29,0.98-0.29h8.69
			c0.45,0,0.75,0.09,0.91,0.28c0.16,0.19,0.24,0.49,0.24,0.91v1.18c0,0.42-0.08,0.72-0.24,0.91c-0.16,0.19-0.47,0.28-0.91,0.28
			h-4.91v1.81h3.02c0.45,0,0.75,0.09,0.91,0.28c0.16,0.19,0.24,0.49,0.24,0.91v1.13c0,0.42-0.08,0.72-0.24,0.91
			c-0.16,0.19-0.46,0.28-0.91,0.28h-3.02v1.81h4.89c0.45,0,0.75,0.09,0.91,0.28c0.16,0.19,0.24,0.49,0.24,0.91v1.18
			c0,0.42-0.08,0.72-0.24,0.91c-0.16,0.19-0.46,0.28-0.91,0.28h-8.67C211.25,442.75,210.93,442.65,210.74,442.46z"/>
		<path d="M226.13,442.46c-0.19-0.2-0.28-0.5-0.28-0.9v-9.51h-3.02c-0.45,0-0.75-0.09-0.91-0.28c-0.16-0.19-0.24-0.49-0.24-0.91
			v-1.18c0-0.42,0.08-0.72,0.24-0.91c0.16-0.19,0.46-0.28,0.91-0.28h11.09c0.45,0,0.75,0.09,0.91,0.28
			c0.16,0.19,0.24,0.49,0.24,0.91v1.18c0,0.42-0.08,0.72-0.24,0.91c-0.16,0.19-0.46,0.28-0.91,0.28h-3.03v9.51
			c0,0.41-0.09,0.71-0.28,0.9c-0.19,0.2-0.52,0.29-1,0.29h-2.5C226.64,442.75,226.32,442.65,226.13,442.46z"/>
		<path d="M235.98,442.46c-0.19-0.2-0.28-0.5-0.28-0.9v-11.89c0-0.41,0.09-0.71,0.28-0.9c0.19-0.2,0.51-0.29,0.98-0.29h8.69
			c0.45,0,0.75,0.09,0.91,0.28c0.16,0.19,0.24,0.49,0.24,0.91v1.18c0,0.42-0.08,0.72-0.24,0.91c-0.16,0.19-0.47,0.28-0.91,0.28
			h-4.91v1.81h3.02c0.45,0,0.75,0.09,0.91,0.28c0.16,0.19,0.24,0.49,0.24,0.91v1.13c0,0.42-0.08,0.72-0.24,0.91
			c-0.16,0.19-0.46,0.28-0.91,0.28h-3.02v1.81h4.89c0.45,0,0.75,0.09,0.91,0.28c0.16,0.19,0.24,0.49,0.24,0.91v1.18
			c0,0.42-0.08,0.72-0.24,0.91c-0.16,0.19-0.47,0.28-0.91,0.28h-8.67C236.49,442.75,236.17,442.65,235.98,442.46z"/>
		<path d="M248.03,442.46c-0.19-0.2-0.28-0.5-0.28-0.9v-11.91c0-0.41,0.09-0.7,0.28-0.89c0.19-0.19,0.52-0.28,1-0.28h2
			c0.29,0,0.52,0.04,0.68,0.12c0.16,0.08,0.32,0.23,0.47,0.45l3.8,5.65v-5.02c0-0.41,0.09-0.71,0.28-0.9
			c0.19-0.2,0.51-0.29,0.98-0.29h2.5c0.48,0,0.81,0.09,1,0.28c0.19,0.19,0.28,0.49,0.28,0.91v11.91c0,0.41-0.09,0.7-0.28,0.89
			c-0.19,0.19-0.52,0.28-1,0.28h-2c-0.29,0-0.52-0.04-0.68-0.12s-0.32-0.23-0.47-0.45l-3.8-5.65v5.04c0,0.41-0.09,0.7-0.28,0.89
			c-0.19,0.19-0.52,0.28-1,0.28h-2.5C248.55,442.75,248.22,442.65,248.03,442.46z"/>
		<path d="M264.19,441.19c-1.41-1.25-2.12-3.11-2.12-5.58c0-2.48,0.68-4.34,2.05-5.59s3.31-1.87,5.85-1.87
			c1.15,0,2.17,0.11,3.07,0.34c0.9,0.22,1.65,0.54,2.25,0.94c0.17,0.13,0.25,0.27,0.25,0.42c0,0.13-0.06,0.3-0.19,0.52l-1.05,1.81
			c-0.11,0.2-0.25,0.29-0.4,0.29c-0.1,0-0.26-0.06-0.48-0.17c-0.39-0.2-0.8-0.35-1.23-0.46c-0.43-0.11-0.93-0.17-1.5-0.17
			c-1.16,0-2.05,0.34-2.67,1.01c-0.62,0.67-0.92,1.64-0.92,2.92c0,1.26,0.34,2.23,1.01,2.91c0.67,0.68,1.59,1.02,2.75,1.02
			c1.01,0,1.93-0.21,2.77-0.63c0.22-0.11,0.38-0.17,0.48-0.17c0.15,0,0.29,0.1,0.4,0.29l1.05,1.81c0.13,0.22,0.19,0.4,0.19,0.53
			c0,0.15-0.08,0.29-0.25,0.42c-0.6,0.41-1.36,0.72-2.27,0.94c-0.91,0.22-1.94,0.34-3.09,0.34
			C267.59,443.07,265.61,442.44,264.19,441.19z"/>
		<path d="M277.07,442.46c-0.19-0.2-0.28-0.5-0.28-0.9v-11.89c0-0.41,0.09-0.71,0.28-0.9c0.19-0.2,0.52-0.29,0.98-0.29h2.5
			c0.47,0,0.81,0.09,1,0.28c0.19,0.19,0.28,0.49,0.28,0.91v11.89c0,0.41-0.09,0.71-0.28,0.9s-0.52,0.29-1,0.29h-2.5
			C277.59,442.75,277.26,442.65,277.07,442.46z"/>
		<path d="M282.88,442.31c0-0.13,0.04-0.28,0.11-0.46l5.23-12.58c0.13-0.29,0.27-0.5,0.43-0.62s0.39-0.18,0.68-0.18h2.29
			c0.29,0,0.52,0.06,0.68,0.18c0.16,0.12,0.3,0.33,0.43,0.62l5.21,12.58c0.07,0.18,0.11,0.34,0.11,0.46c0,0.29-0.15,0.44-0.46,0.44
			h-3.95c-0.43,0-0.71-0.19-0.82-0.57l-0.5-1.55h-3.72l-0.48,1.55c-0.11,0.38-0.38,0.57-0.82,0.57h-3.95
			C283.04,442.75,282.88,442.6,282.88,442.31z M291.28,437.31l-0.82-2.6l-0.82,2.6H291.28z"/>
		<path d="M299.02,442.36c-0.23-0.26-0.35-0.56-0.35-0.91v-0.53c0-0.38,0.12-0.69,0.35-0.93c0.23-0.24,0.53-0.37,0.89-0.37h0.55
			c0.36,0,0.66,0.12,0.89,0.37c0.23,0.25,0.35,0.56,0.35,0.93v0.53c0,0.36-0.12,0.67-0.35,0.92s-0.53,0.38-0.89,0.38h-0.55
			C299.55,442.75,299.25,442.62,299.02,442.36z"/>
		<path d="M122.02,466.39c-1.41-1.25-2.12-3.11-2.12-5.58c0-2.48,0.68-4.34,2.05-5.59s3.31-1.87,5.85-1.87
			c1.15,0,2.17,0.11,3.07,0.34s1.64,0.54,2.25,0.94c0.17,0.13,0.25,0.27,0.25,0.42c0,0.13-0.06,0.3-0.19,0.52l-1.05,1.81
			c-0.11,0.2-0.24,0.29-0.4,0.29c-0.1,0-0.26-0.06-0.48-0.17c-0.39-0.2-0.8-0.35-1.23-0.46c-0.43-0.11-0.93-0.17-1.5-0.17
			c-1.16,0-2.05,0.34-2.67,1.01c-0.62,0.67-0.92,1.64-0.92,2.92c0,1.26,0.34,2.23,1.01,2.91c0.67,0.68,1.59,1.02,2.75,1.02
			c1.01,0,1.93-0.21,2.77-0.63c0.22-0.11,0.38-0.17,0.48-0.17c0.15,0,0.29,0.1,0.4,0.29l1.05,1.81c0.13,0.22,0.19,0.4,0.19,0.53
			c0,0.15-0.08,0.29-0.25,0.42c-0.6,0.41-1.36,0.72-2.27,0.94c-0.91,0.22-1.94,0.34-3.09,0.34
			C125.42,468.27,123.44,467.64,122.02,466.39z"/>
		<path d="M134.91,467.66c-0.19-0.2-0.28-0.5-0.28-0.9v-11.89c0-0.41,0.09-0.71,0.28-0.9c0.19-0.2,0.51-0.29,0.98-0.29h5.02
			c2.1,0,3.63,0.42,4.59,1.25s1.44,2.09,1.44,3.77c0,1.01-0.17,1.86-0.51,2.55c-0.34,0.69-0.87,1.24-1.59,1.63l1.95,4.18
			c0.06,0.11,0.08,0.24,0.08,0.38c0,0.15-0.05,0.28-0.16,0.38c-0.1,0.1-0.24,0.15-0.41,0.15h-3.55c-0.22,0-0.4-0.03-0.54-0.09
			c-0.13-0.06-0.23-0.17-0.28-0.33l-1.55-3.91h-0.71v3.13c0,0.41-0.09,0.71-0.28,0.9s-0.52,0.29-1,0.29h-2.5
			C135.42,467.95,135.09,467.85,134.91,467.66z M140.46,460.12c0.45,0,0.8-0.12,1.06-0.36c0.26-0.24,0.39-0.59,0.39-1.07
			c0-0.49-0.13-0.85-0.39-1.09c-0.26-0.24-0.61-0.36-1.06-0.36h-1.43v2.88H140.46z"/>
		<path d="M148.26,467.66c-0.19-0.2-0.28-0.5-0.28-0.9v-11.89c0-0.41,0.09-0.71,0.28-0.9c0.19-0.2,0.51-0.29,0.98-0.29h8.69
			c0.45,0,0.75,0.09,0.91,0.28c0.16,0.19,0.24,0.49,0.24,0.91v1.18c0,0.42-0.08,0.72-0.24,0.91c-0.16,0.19-0.47,0.28-0.91,0.28
			h-4.91v1.81h3.02c0.45,0,0.75,0.09,0.91,0.28c0.16,0.19,0.24,0.49,0.24,0.91v1.13c0,0.42-0.08,0.72-0.24,0.91
			c-0.16,0.19-0.46,0.28-0.91,0.28h-3.02v1.81h4.89c0.45,0,0.75,0.09,0.91,0.28c0.16,0.19,0.24,0.49,0.24,0.91v1.18
			c0,0.42-0.08,0.72-0.24,0.91c-0.16,0.19-0.46,0.28-0.91,0.28h-8.67C148.78,467.95,148.45,467.85,148.26,467.66z"/>
		<path d="M159.61,467.51c0-0.13,0.04-0.28,0.11-0.46l5.23-12.58c0.13-0.29,0.27-0.5,0.43-0.62c0.16-0.12,0.39-0.18,0.68-0.18h2.29
			c0.29,0,0.52,0.06,0.68,0.18s0.3,0.33,0.43,0.62l5.21,12.58c0.07,0.18,0.1,0.34,0.1,0.46c0,0.29-0.15,0.44-0.46,0.44h-3.95
			c-0.43,0-0.71-0.19-0.82-0.57l-0.5-1.55h-3.72l-0.48,1.55c-0.11,0.38-0.39,0.57-0.82,0.57h-3.95
			C159.77,467.95,159.61,467.8,159.61,467.51z M168.01,462.51l-0.82-2.6l-0.82,2.6H168.01z"/>
		<path d="M174.48,469.97c0-0.06,0.01-0.15,0.04-0.29l1.03-3.67c0.1-0.36,0.23-0.6,0.39-0.71c0.16-0.11,0.43-0.17,0.81-0.17h1.97
			c0.32,0,0.55,0.04,0.69,0.13s0.21,0.22,0.21,0.4c0,0.2-0.06,0.43-0.17,0.69l-1.51,3.57c-0.08,0.18-0.19,0.32-0.33,0.41
			s-0.33,0.14-0.58,0.14h-1.93C174.69,470.45,174.48,470.29,174.48,469.97z"/>
		<path d="M187.28,467.66c-0.19-0.2-0.28-0.5-0.28-0.9v-11.89c0-0.41,0.09-0.71,0.28-0.9c0.19-0.2,0.51-0.29,0.98-0.29h8.69
			c0.45,0,0.75,0.09,0.91,0.28c0.16,0.19,0.24,0.49,0.24,0.91v1.18c0,0.42-0.08,0.72-0.24,0.91c-0.16,0.19-0.47,0.28-0.91,0.28
			h-4.91v1.81h3.02c0.45,0,0.75,0.09,0.91,0.28c0.16,0.19,0.24,0.49,0.24,0.91v1.13c0,0.42-0.08,0.72-0.24,0.91
			c-0.16,0.19-0.46,0.28-0.91,0.28h-3.02v1.81h4.89c0.45,0,0.75,0.09,0.91,0.28c0.16,0.19,0.24,0.49,0.24,0.91v1.18
			c0,0.42-0.08,0.72-0.24,0.91c-0.16,0.19-0.46,0.28-0.91,0.28h-8.67C187.79,467.95,187.47,467.85,187.28,467.66z"/>
		<path d="M199.33,467.66c-0.19-0.2-0.28-0.5-0.28-0.9v-11.91c0-0.41,0.1-0.7,0.28-0.89c0.19-0.19,0.52-0.28,1-0.28h2
			c0.29,0,0.52,0.04,0.68,0.12s0.32,0.23,0.47,0.45l3.8,5.65v-5.02c0-0.41,0.09-0.71,0.28-0.9c0.19-0.2,0.52-0.29,0.98-0.29h2.5
			c0.47,0,0.81,0.09,1,0.28c0.19,0.19,0.28,0.49,0.28,0.91v11.91c0,0.41-0.09,0.7-0.28,0.89c-0.19,0.19-0.52,0.28-1,0.28h-2
			c-0.29,0-0.52-0.04-0.68-0.12c-0.16-0.08-0.32-0.23-0.47-0.45l-3.8-5.65v5.04c0,0.41-0.09,0.7-0.28,0.89
			c-0.19,0.19-0.52,0.28-1,0.28h-2.5C199.85,467.95,199.52,467.85,199.33,467.66z"/>
		<path d="M218.9,467.77c-0.16-0.12-0.3-0.33-0.41-0.62l-5.02-12.58c-0.07-0.18-0.11-0.34-0.11-0.46c0-0.29,0.15-0.44,0.46-0.44
			h3.95c0.43,0,0.71,0.19,0.82,0.57l2.14,6.85l2.14-6.85c0.11-0.38,0.38-0.57,0.82-0.57h3.95c0.31,0,0.46,0.15,0.46,0.44
			c0,0.13-0.04,0.28-0.11,0.46l-5,12.58c-0.11,0.29-0.25,0.5-0.41,0.62c-0.16,0.12-0.4,0.18-0.7,0.18h-2.29
			C219.3,467.95,219.07,467.89,218.9,467.77z"/>
		<path d="M229.45,467.66c-0.19-0.2-0.28-0.5-0.28-0.9v-11.89c0-0.41,0.09-0.71,0.28-0.9c0.19-0.2,0.51-0.29,0.98-0.29h2.5
			c0.48,0,0.81,0.09,1,0.28c0.19,0.19,0.28,0.49,0.28,0.91v11.89c0,0.41-0.09,0.71-0.28,0.9s-0.52,0.29-1,0.29h-2.5
			C229.96,467.95,229.64,467.85,229.45,467.66z"/>
		<path d="M235.25,467.51c0-0.13,0.03-0.28,0.1-0.46l5.23-12.58c0.13-0.29,0.27-0.5,0.43-0.62c0.16-0.12,0.39-0.18,0.68-0.18h2.29
			c0.29,0,0.52,0.06,0.68,0.18c0.16,0.12,0.3,0.33,0.43,0.62l5.21,12.58c0.07,0.18,0.1,0.34,0.1,0.46c0,0.29-0.15,0.44-0.46,0.44
			H246c-0.43,0-0.71-0.19-0.82-0.57l-0.5-1.55h-3.72l-0.48,1.55c-0.11,0.38-0.39,0.57-0.82,0.57h-3.95
			C235.41,467.95,235.25,467.8,235.25,467.51z M243.65,462.51l-0.82-2.6l-0.82,2.6H243.65z"/>
		<path d="M262.67,467.66c-0.19-0.2-0.28-0.5-0.28-0.9v-3.8l-4.89-8.38c-0.08-0.15-0.13-0.3-0.13-0.44c0-0.31,0.16-0.46,0.48-0.46
			h3.95c0.21,0,0.37,0.05,0.48,0.14c0.11,0.09,0.22,0.23,0.34,0.43l2.29,4.12l2.29-4.12c0.11-0.2,0.22-0.34,0.34-0.43
			c0.11-0.09,0.27-0.14,0.48-0.14h3.95c0.32,0,0.48,0.15,0.48,0.46c0,0.14-0.04,0.29-0.13,0.44l-4.89,8.38v3.8
			c0,0.41-0.09,0.71-0.28,0.9c-0.19,0.2-0.52,0.29-1,0.29h-2.5C263.18,467.95,262.86,467.85,262.67,467.66z"/>
		<path d="M148.32,493.07c-1.09-0.27-1.97-0.64-2.65-1.11c-0.28-0.2-0.42-0.38-0.42-0.57c0-0.13,0.05-0.26,0.15-0.4l1.22-1.91
			c0.13-0.18,0.25-0.27,0.38-0.27c0.11,0,0.24,0.05,0.4,0.15c0.5,0.31,1.08,0.55,1.73,0.72c0.65,0.18,1.29,0.26,1.9,0.26
			c0.52,0,0.89-0.07,1.12-0.21s0.35-0.36,0.35-0.65c0-0.32-0.15-0.58-0.46-0.78s-0.84-0.44-1.6-0.74c-1.41-0.55-2.53-1.17-3.34-1.86
			c-0.81-0.69-1.22-1.61-1.22-2.76c0-1.46,0.51-2.55,1.52-3.29c1.01-0.74,2.38-1.1,4.11-1.1c1.2,0,2.23,0.1,3.08,0.31
			c0.85,0.21,1.58,0.54,2.21,0.99c0.28,0.2,0.42,0.38,0.42,0.57c0,0.13-0.05,0.26-0.15,0.4l-1.22,1.91
			c-0.13,0.2-0.25,0.29-0.38,0.29c-0.08,0-0.22-0.06-0.4-0.17c-0.34-0.22-0.74-0.41-1.2-0.56c-0.46-0.15-0.96-0.22-1.49-0.22
			c-0.49,0-0.86,0.07-1.11,0.21c-0.25,0.14-0.38,0.36-0.38,0.67c0,0.25,0.09,0.46,0.26,0.63c0.18,0.17,0.4,0.31,0.66,0.43
			c0.27,0.12,0.73,0.31,1.39,0.58c1.05,0.42,1.88,0.82,2.48,1.21c0.6,0.39,1.06,0.85,1.37,1.39c0.31,0.54,0.46,1.22,0.46,2.05
			c0,1.26-0.47,2.28-1.42,3.06s-2.36,1.17-4.23,1.17C150.6,493.47,149.42,493.33,148.32,493.07z"/>
		<path d="M158.86,492.86c-0.19-0.2-0.28-0.5-0.28-0.9v-11.89c0-0.41,0.1-0.71,0.28-0.9c0.19-0.2,0.51-0.29,0.98-0.29h2.5
			c0.48,0,0.81,0.09,1,0.28c0.19,0.19,0.28,0.49,0.28,0.91v11.89c0,0.41-0.09,0.71-0.28,0.9c-0.19,0.2-0.52,0.29-1,0.29h-2.5
			C159.37,493.15,159.04,493.05,158.86,492.86z"/>
		<path d="M166.78,491.59c-1.41-1.25-2.12-3.11-2.12-5.58c0-2.45,0.71-4.31,2.12-5.57s3.39-1.89,5.92-1.89
			c1.15,0,2.18,0.11,3.09,0.34s1.67,0.54,2.27,0.94c0.17,0.13,0.25,0.27,0.25,0.42c0,0.13-0.06,0.3-0.19,0.52l-1.05,1.81
			c-0.11,0.2-0.25,0.29-0.4,0.29c-0.1,0-0.26-0.06-0.48-0.17c-0.84-0.42-1.76-0.63-2.77-0.63c-1.16,0-2.08,0.33-2.74,1
			c-0.67,0.67-1,1.64-1,2.93c0,1.33,0.28,2.31,0.84,2.95s1.39,0.96,2.5,0.96c0.2,0,0.42-0.02,0.66-0.05
			c0.25-0.04,0.45-0.07,0.6-0.12v-1.91h-1.34c-0.45,0-0.75-0.09-0.91-0.26c-0.16-0.17-0.24-0.47-0.24-0.89v-1.16
			c0-0.42,0.08-0.72,0.24-0.89c0.16-0.17,0.46-0.26,0.91-0.26h4.51c0.55,0,0.92,0.12,1.13,0.37c0.21,0.25,0.31,0.63,0.31,1.17v4.91
			c0,0.31-0.04,0.54-0.12,0.7c-0.08,0.16-0.23,0.33-0.45,0.49c-1.34,0.97-3.21,1.45-5.61,1.45
			C170.18,493.47,168.2,492.84,166.78,491.59z"/>
		<path d="M183.12,492.81c-1.04-0.44-1.84-1.08-2.41-1.91c-0.57-0.83-0.86-1.82-0.86-2.97v-7.85c0-0.41,0.09-0.71,0.28-0.9
			c0.19-0.2,0.51-0.29,0.98-0.29h2.5c0.48,0,0.81,0.09,1,0.28c0.19,0.19,0.28,0.49,0.28,0.91v7.92c0,0.66,0.17,1.15,0.49,1.47
			c0.33,0.32,0.78,0.48,1.35,0.48c0.57,0,1.03-0.16,1.35-0.48c0.33-0.32,0.49-0.81,0.49-1.47v-7.92c0-0.41,0.09-0.71,0.28-0.9
			c0.19-0.2,0.51-0.29,0.98-0.29h2.5c0.48,0,0.81,0.09,1,0.28c0.19,0.19,0.28,0.49,0.28,0.91v7.85c0,1.15-0.29,2.14-0.86,2.97
			c-0.57,0.83-1.38,1.47-2.41,1.91c-1.04,0.44-2.24,0.66-3.61,0.66S184.16,493.25,183.12,492.81z"/>
		<path d="M195.27,492.86c-0.19-0.2-0.28-0.5-0.28-0.9v-11.89c0-0.41,0.09-0.71,0.28-0.9c0.19-0.2,0.51-0.29,0.98-0.29h8.69
			c0.45,0,0.75,0.09,0.91,0.28c0.16,0.19,0.24,0.49,0.24,0.91v1.18c0,0.42-0.08,0.72-0.24,0.91c-0.16,0.19-0.47,0.28-0.91,0.28
			h-4.91v1.81h3.02c0.45,0,0.75,0.09,0.91,0.28c0.16,0.19,0.24,0.49,0.24,0.91v1.13c0,0.42-0.08,0.72-0.24,0.91
			c-0.16,0.19-0.46,0.28-0.91,0.28h-3.02v1.81h4.89c0.45,0,0.75,0.09,0.91,0.28c0.16,0.19,0.24,0.49,0.24,0.91v1.18
			c0,0.42-0.08,0.72-0.24,0.91c-0.16,0.19-0.46,0.28-0.91,0.28h-8.67C195.78,493.15,195.46,493.05,195.27,492.86z"/>
		<path d="M216.96,492.86c-0.19-0.2-0.28-0.5-0.28-0.9v-9.51h-3.02c-0.45,0-0.75-0.09-0.91-0.28c-0.16-0.19-0.24-0.49-0.24-0.91
			v-1.18c0-0.42,0.08-0.72,0.24-0.91c0.16-0.19,0.46-0.28,0.91-0.28h11.09c0.45,0,0.75,0.09,0.91,0.28
			c0.16,0.19,0.24,0.49,0.24,0.91v1.18c0,0.42-0.08,0.72-0.24,0.91c-0.16,0.19-0.47,0.28-0.91,0.28h-3.02v9.51
			c0,0.41-0.09,0.71-0.28,0.9c-0.19,0.2-0.52,0.29-1,0.29h-2.5C217.48,493.15,217.15,493.05,216.96,492.86z"/>
		<path d="M229.7,492.81c-1.04-0.44-1.84-1.08-2.42-1.91c-0.57-0.83-0.86-1.82-0.86-2.97v-7.85c0-0.41,0.1-0.71,0.28-0.9
			c0.19-0.2,0.51-0.29,0.98-0.29h2.5c0.48,0,0.81,0.09,1,0.28c0.19,0.19,0.28,0.49,0.28,0.91v7.92c0,0.66,0.16,1.15,0.49,1.47
			c0.33,0.32,0.78,0.48,1.35,0.48s1.03-0.16,1.35-0.48c0.33-0.32,0.49-0.81,0.49-1.47v-7.92c0-0.41,0.09-0.71,0.28-0.9
			c0.19-0.2,0.52-0.29,0.98-0.29h2.5c0.47,0,0.81,0.09,1,0.28c0.19,0.19,0.28,0.49,0.28,0.91v7.85c0,1.15-0.29,2.14-0.86,2.97
			c-0.57,0.83-1.38,1.47-2.42,1.91c-1.04,0.44-2.24,0.66-3.61,0.66C231.94,493.47,230.73,493.25,229.7,492.81z"/>
		<path d="M244.23,493.07c-1.09-0.27-1.97-0.64-2.65-1.11c-0.28-0.2-0.42-0.38-0.42-0.57c0-0.13,0.05-0.26,0.15-0.4l1.22-1.91
			c0.13-0.18,0.25-0.27,0.38-0.27c0.11,0,0.25,0.05,0.4,0.15c0.5,0.31,1.08,0.55,1.73,0.72c0.65,0.18,1.28,0.26,1.9,0.26
			c0.52,0,0.89-0.07,1.12-0.21s0.35-0.36,0.35-0.65c0-0.32-0.15-0.58-0.46-0.78c-0.31-0.2-0.84-0.44-1.6-0.74
			c-1.41-0.55-2.53-1.17-3.34-1.86c-0.81-0.69-1.22-1.61-1.22-2.76c0-1.46,0.51-2.55,1.52-3.29c1.02-0.74,2.38-1.1,4.11-1.1
			c1.2,0,2.23,0.1,3.08,0.31c0.85,0.21,1.59,0.54,2.22,0.99c0.28,0.2,0.42,0.38,0.42,0.57c0,0.13-0.05,0.26-0.15,0.4l-1.22,1.91
			c-0.13,0.2-0.25,0.29-0.38,0.29c-0.08,0-0.22-0.06-0.4-0.17c-0.34-0.22-0.73-0.41-1.2-0.56c-0.46-0.15-0.96-0.22-1.49-0.22
			c-0.49,0-0.86,0.07-1.11,0.21c-0.25,0.14-0.38,0.36-0.38,0.67c0,0.25,0.09,0.46,0.26,0.63c0.17,0.17,0.39,0.31,0.66,0.43
			c0.27,0.12,0.73,0.31,1.39,0.58c1.05,0.42,1.88,0.82,2.48,1.21c0.6,0.39,1.06,0.85,1.37,1.39c0.31,0.54,0.46,1.22,0.46,2.05
			c0,1.26-0.47,2.28-1.42,3.06c-0.95,0.78-2.36,1.17-4.23,1.17C246.5,493.47,245.32,493.33,244.23,493.07z"/>
		<path d="M142.81,516.79c-1.41-1.25-2.12-3.11-2.12-5.58c0-2.48,0.68-4.34,2.05-5.59s3.31-1.87,5.85-1.87
			c1.15,0,2.17,0.11,3.07,0.34s1.64,0.54,2.25,0.94c0.17,0.13,0.25,0.27,0.25,0.42c0,0.13-0.06,0.3-0.19,0.52l-1.05,1.81
			c-0.11,0.2-0.24,0.29-0.4,0.29c-0.1,0-0.26-0.06-0.48-0.17c-0.39-0.2-0.8-0.35-1.23-0.46c-0.43-0.11-0.93-0.17-1.5-0.17
			c-1.16,0-2.05,0.34-2.67,1.01c-0.62,0.67-0.92,1.64-0.92,2.92c0,1.26,0.34,2.23,1.01,2.91c0.67,0.68,1.59,1.02,2.75,1.02
			c1.01,0,1.93-0.21,2.77-0.63c0.22-0.11,0.38-0.17,0.48-0.17c0.15,0,0.29,0.1,0.4,0.29l1.05,1.81c0.13,0.22,0.19,0.4,0.19,0.53
			c0,0.15-0.08,0.29-0.25,0.42c-0.6,0.41-1.36,0.72-2.27,0.94c-0.91,0.22-1.94,0.34-3.09,0.34
			C146.21,518.67,144.23,518.04,142.81,516.79z"/>
		<path d="M154.47,517.91c0-0.13,0.03-0.28,0.1-0.46l5.23-12.58c0.13-0.29,0.27-0.5,0.43-0.62c0.16-0.12,0.39-0.18,0.68-0.18h2.29
			c0.29,0,0.52,0.06,0.68,0.18c0.16,0.12,0.3,0.33,0.43,0.62l5.21,12.58c0.07,0.18,0.11,0.34,0.11,0.46c0,0.29-0.15,0.44-0.46,0.44
			h-3.95c-0.43,0-0.71-0.19-0.82-0.57l-0.5-1.55h-3.72l-0.48,1.55c-0.11,0.38-0.38,0.57-0.82,0.57h-3.95
			C154.62,518.35,154.47,518.21,154.47,517.91z M162.87,512.91l-0.82-2.6l-0.82,2.6H162.87z"/>
		<path d="M170.44,518.06c-0.19-0.2-0.28-0.5-0.28-0.9v-11.91c0-0.41,0.09-0.7,0.28-0.89c0.19-0.19,0.52-0.28,1-0.28h2.41
			c0.31,0,0.55,0.04,0.74,0.12c0.18,0.08,0.32,0.23,0.42,0.45l2.46,6.15l2.46-6.15c0.1-0.22,0.24-0.37,0.42-0.45
			c0.18-0.08,0.43-0.12,0.74-0.12h2.41c0.48,0,0.81,0.09,1,0.28c0.19,0.19,0.28,0.49,0.28,0.89v11.91c0,0.41-0.09,0.71-0.28,0.9
			s-0.51,0.29-0.98,0.29h-2.02c-0.46,0-0.79-0.1-0.99-0.29s-0.29-0.5-0.29-0.9v-5.73l-1.24,2.86c-0.17,0.41-0.35,0.7-0.55,0.87
			c-0.2,0.17-0.52,0.26-0.97,0.26s-0.77-0.09-0.97-0.26c-0.2-0.17-0.38-0.47-0.55-0.87l-1.24-2.86v5.73c0,0.41-0.09,0.71-0.28,0.9
			c-0.19,0.2-0.52,0.29-1,0.29h-2.02C170.95,518.35,170.63,518.25,170.44,518.06z"/>
		<path d="M186.52,518.06c-0.19-0.2-0.28-0.5-0.28-0.9v-11.89c0-0.41,0.09-0.71,0.28-0.9c0.19-0.2,0.51-0.29,0.98-0.29h5.02
			c2.1,0,3.63,0.42,4.59,1.25s1.44,2.09,1.44,3.77c0,1.68-0.48,2.93-1.44,3.76s-2.48,1.24-4.57,1.24h-1.26v3.07
			c0,0.41-0.09,0.71-0.28,0.9s-0.52,0.29-1,0.29h-2.5C187.04,518.35,186.71,518.25,186.52,518.06z M192.08,510.52
			c0.45,0,0.8-0.12,1.06-0.36c0.26-0.24,0.39-0.59,0.39-1.07c0-0.49-0.13-0.85-0.39-1.09c-0.26-0.24-0.61-0.36-1.06-0.36h-1.43v2.88
			H192.08z"/>
		<path d="M196.66,517.91c0-0.13,0.03-0.28,0.1-0.46l5.23-12.58c0.13-0.29,0.27-0.5,0.43-0.62c0.16-0.12,0.39-0.18,0.68-0.18h2.29
			c0.29,0,0.52,0.06,0.68,0.18c0.16,0.12,0.3,0.33,0.43,0.62l5.21,12.58c0.07,0.18,0.11,0.34,0.11,0.46c0,0.29-0.15,0.44-0.46,0.44
			h-3.95c-0.43,0-0.71-0.19-0.82-0.57l-0.5-1.55h-3.72l-0.48,1.55c-0.11,0.38-0.38,0.57-0.82,0.57h-3.95
			C196.81,518.35,196.66,518.21,196.66,517.91z M205.06,512.91l-0.82-2.6l-0.82,2.6H205.06z"/>
		<path d="M213.15,518.06c-0.19-0.2-0.28-0.5-0.28-0.9v-11.91c0-0.41,0.1-0.7,0.28-0.89c0.19-0.19,0.52-0.28,1-0.28h2
			c0.29,0,0.52,0.04,0.68,0.12s0.32,0.23,0.47,0.45l3.8,5.65v-5.02c0-0.41,0.09-0.71,0.28-0.9c0.19-0.2,0.52-0.29,0.98-0.29h2.5
			c0.47,0,0.81,0.09,1,0.28c0.19,0.19,0.28,0.49,0.28,0.91v11.91c0,0.41-0.09,0.7-0.28,0.89c-0.19,0.19-0.52,0.28-1,0.28h-2
			c-0.29,0-0.52-0.04-0.68-0.12c-0.16-0.08-0.32-0.23-0.47-0.45l-3.8-5.65v5.04c0,0.41-0.09,0.7-0.28,0.89
			c-0.19,0.19-0.52,0.28-1,0.28h-2.5C213.67,518.35,213.34,518.25,213.15,518.06z M220.55,502.91c-0.25-0.09-0.56-0.23-0.92-0.43
			c-0.35-0.17-0.62-0.29-0.81-0.36c-0.19-0.07-0.39-0.1-0.6-0.1c-0.24,0-0.44,0.05-0.62,0.15c-0.18,0.1-0.37,0.28-0.58,0.55
			c-0.14,0.18-0.31,0.27-0.52,0.27c-0.27,0-0.69-0.22-1.28-0.65c-0.29-0.22-0.5-0.41-0.63-0.56c-0.13-0.15-0.19-0.3-0.19-0.45
			c0-0.2,0.11-0.44,0.32-0.73c0.48-0.69,0.92-1.18,1.33-1.48c0.41-0.3,0.92-0.45,1.52-0.45c0.42,0,0.78,0.06,1.09,0.17
			c0.31,0.11,0.65,0.27,1.03,0.46c0.28,0.14,0.5,0.24,0.66,0.3c0.16,0.06,0.33,0.09,0.49,0.09c0.22,0,0.41-0.05,0.56-0.15
			c0.15-0.1,0.33-0.28,0.56-0.55c0.14-0.18,0.31-0.27,0.53-0.27c0.27,0,0.69,0.22,1.28,0.65c0.28,0.2,0.48,0.38,0.6,0.54
			s0.18,0.33,0.18,0.49c0,0.18-0.1,0.43-0.32,0.76c-0.46,0.69-0.9,1.17-1.31,1.46c-0.41,0.29-0.93,0.43-1.54,0.43
			C221.08,503.04,220.81,503,220.55,502.91z"/>
		<path d="M227.19,517.91c0-0.13,0.04-0.28,0.11-0.46l5.23-12.58c0.13-0.29,0.27-0.5,0.43-0.62s0.39-0.18,0.68-0.18h2.29
			c0.29,0,0.52,0.06,0.68,0.18c0.16,0.12,0.3,0.33,0.43,0.62l5.21,12.58c0.07,0.18,0.11,0.34,0.11,0.46c0,0.29-0.15,0.44-0.46,0.44
			h-3.95c-0.43,0-0.71-0.19-0.82-0.57l-0.5-1.55h-3.72l-0.48,1.55c-0.11,0.38-0.38,0.57-0.82,0.57h-3.95
			C227.34,518.35,227.19,518.21,227.19,517.91z M235.59,512.91l-0.82-2.6l-0.82,2.6H235.59z"/>
		<path d="M245.12,518.27c-1.09-0.27-1.97-0.64-2.65-1.11c-0.28-0.2-0.42-0.38-0.42-0.57c0-0.13,0.05-0.26,0.15-0.4l1.22-1.91
			c0.13-0.18,0.25-0.27,0.38-0.27c0.11,0,0.24,0.05,0.4,0.15c0.5,0.31,1.08,0.55,1.73,0.72c0.65,0.18,1.29,0.26,1.9,0.26
			c0.52,0,0.89-0.07,1.12-0.21s0.35-0.36,0.35-0.65c0-0.32-0.15-0.58-0.46-0.78s-0.84-0.44-1.6-0.74c-1.41-0.55-2.53-1.17-3.34-1.86
			c-0.81-0.69-1.22-1.61-1.22-2.76c0-1.46,0.51-2.55,1.52-3.29c1.01-0.74,2.38-1.1,4.11-1.1c1.2,0,2.23,0.1,3.08,0.31
			c0.85,0.21,1.58,0.54,2.21,0.99c0.28,0.2,0.42,0.38,0.42,0.57c0,0.13-0.05,0.26-0.15,0.4l-1.22,1.91
			c-0.13,0.2-0.25,0.29-0.38,0.29c-0.08,0-0.22-0.06-0.4-0.17c-0.34-0.22-0.74-0.41-1.2-0.56c-0.46-0.15-0.96-0.22-1.49-0.22
			c-0.49,0-0.86,0.07-1.11,0.21c-0.25,0.14-0.38,0.36-0.38,0.67c0,0.25,0.09,0.46,0.26,0.63c0.18,0.17,0.4,0.31,0.66,0.43
			c0.27,0.12,0.73,0.31,1.39,0.58c1.05,0.42,1.88,0.82,2.48,1.21c0.6,0.39,1.06,0.85,1.37,1.39c0.31,0.54,0.46,1.22,0.46,2.05
			c0,1.26-0.47,2.28-1.42,3.06s-2.36,1.17-4.23,1.17C247.4,518.67,246.22,518.53,245.12,518.27z"/>
		<path d="M255.3,517.96c-0.23-0.26-0.35-0.56-0.35-0.91v-0.53c0-0.38,0.12-0.69,0.35-0.93c0.23-0.24,0.53-0.37,0.89-0.37h0.55
			c0.36,0,0.66,0.12,0.89,0.37c0.23,0.25,0.35,0.56,0.35,0.93v0.53c0,0.36-0.12,0.67-0.35,0.92s-0.53,0.38-0.89,0.38h-0.55
			C255.83,518.35,255.53,518.22,255.3,517.96z"/>
	</g>
	<polygon class="st6" points="191.26,81.93 204.73,109.22 234.84,113.59 213.05,134.83 218.2,164.83 191.26,150.67 164.33,164.83 
		169.47,134.83 147.68,113.59 177.79,109.22 	"/>
	<polygon class="st6" points="129.08,165.15 137.82,182.86 157.36,185.7 143.22,199.48 146.56,218.94 129.08,209.75 111.61,218.94 
		114.95,199.48 100.81,185.7 120.35,182.86 	"/>
	<polygon class="st6" points="259.18,165.15 267.92,182.86 287.45,185.7 273.32,199.48 276.65,218.94 259.18,209.75 241.7,218.94 
		245.04,199.48 230.9,185.7 250.44,182.86 	"/>
	<circle class="st7" cx="192.27" cy="198.97" r="121.96"/>
	<circle class="st1" cx="191.32" cy="185.58" r="121.96"/>
	<g>
		<path class="st1" d="M173.91,628.85c-3.55-0.92-6.5-2.21-8.83-3.87c-0.58-0.44-0.88-0.92-0.88-1.46c0-0.44,0.22-1.05,0.66-1.83
			l3.65-6.28c0.44-0.73,0.9-1.1,1.39-1.1c0.24,0,0.8,0.22,1.68,0.66c3.55,2,7.69,2.99,12.41,2.99c2.38,0,4.26-0.51,5.62-1.53
			c1.36-1.02,2.04-2.53,2.04-4.53c0-3.89-2.09-5.84-6.28-5.84c-1.31,0-2.67,0.11-4.05,0.33c-1.39,0.22-2.54,0.5-3.47,0.84
			c-1.41,0.49-2.92,0.73-4.53,0.73c-2.24,0-4.05-0.54-5.44-1.61c-1.39-1.07-2.01-2.68-1.86-4.82l1.17-18.4
			c0.1-1.26,0.44-2.19,1.02-2.77s1.63-0.88,3.14-0.88h31.17c1.56,0,2.62,0.33,3.18,0.99c0.56,0.66,0.84,1.71,0.84,3.18v4.16
			c0,1.46-0.28,2.52-0.84,3.18c-0.56,0.66-1.62,0.99-3.18,0.99h-21.32l-0.22,3.5c0.78-0.19,1.93-0.35,3.47-0.47
			c1.53-0.12,2.76-0.18,3.69-0.18c6.67,0,11.83,1.3,15.48,3.91s5.48,7,5.48,13.18c0,3.8-1.04,7.08-3.1,9.85s-4.92,4.88-8.54,6.31
			c-3.63,1.43-7.73,2.15-12.3,2.15C181.21,630.24,177.46,629.77,173.91,628.85z"/>
	</g>
	<g>
		<path class="st47" d="M270.74,200.81c-0.2,0-0.41,0.02-0.62,0.03c9.59-26.3-3.94-62.42-31.63-72.81
			c12.97-6.04,16.29-18.76,16.29-18.76s-4.93-4.26-10.67-6.16c-5.75-1.91-2.43,5.74-7.91,3.57c-11.59-4.58-7.64,2.53-13.14,2.46
			c-5.51-0.07-9.88-6.41-9.88-6.41c-4.2-0.05-11.34,5.36-19.48,6.05c3.42,10.01,8.47,15.61,13.93,18.71
			c-27.9,9.35-42.53,44.61-34.23,71.18c-2.16-0.04-4.3-0.08-6.38-0.11l0.05-4.32l-5.53-0.07l0.06-4.65l-37.93-0.48l-0.39,31.45
			l-0.4,31.53l0,0.11l37.93,0.48l0-0.11l0.06-4.54l5.53,0.07l0.04-2.87c7.78,2.68,15.4,5.72,23.72,8.17
			c8.04,2.3,18.42,3.78,26.49,3.88c9.29,0.12,18.25-2.83,27.33-4.43c4.16-0.68,9.04-0.13,12.26-3.26c2.47-2.17,4-6.07,6.22-8.49
			c4.95-5.32,13.52-13.85,15.13-16.19c1-1.47,1.82-9.27,2.61-13.91c0.62-4.5,1.65-9.56,2.1-15.13
			C276.92,195.72,273.45,195.86,270.74,200.81z"/>
		<g>
			<g>
				<path class="st85" d="M268.86,198.89c-0.24,0.43-0.47,0.91-0.7,1.42c-1.89,3.88-4.87,9.84-5.65,14.69
					c-2.74,2.11-5.41,3.95-7.81,5.93c-2.19,1.64-5.53,3.5-8.07,5.52l-28.39-0.36c0.48-0.14,0.96-0.26,1.43-0.35
					c3.06-0.57,6.26-1.27,9.31-1.84c4.22-0.7,9.03-2.24,13.5-2.71c2-1.37,4.17-2.54,6.28-3.64c2.47-1.33,4.47-3.15,6.62-4.88
					c1.05-3.38,1.89-7.16,3.84-9.91C261.35,199.91,265.27,198.96,268.86,198.89z"/>
			</g>
			<g class="st86">
				<g>
					<path class="st87" d="M268.86,198.89c-0.24,0.43-0.47,0.91-0.7,1.42c-1.89,3.88-4.87,9.84-5.65,14.69
						c-2.74,2.11-5.41,3.95-7.81,5.93c-2.19,1.64-5.53,3.5-8.07,5.52l-28.39-0.36c0.48-0.14,0.96-0.26,1.43-0.35
						c3.06-0.57,6.26-1.27,9.31-1.84c4.22-0.7,9.03-2.24,13.5-2.71c2-1.37,4.17-2.54,6.28-3.64c2.47-1.33,4.47-3.15,6.62-4.88
						c1.05-3.38,1.89-7.16,3.84-9.91C261.35,199.91,265.27,198.96,268.86,198.89z"/>
				</g>
			</g>
			<g>
				<path class="st88" d="M220.92,129.22c-9.96-0.13-22.51-3.16-29.08-22.38c8.13-0.68,15.28-6.1,19.48-6.05
					c0,0,4.38,6.35,9.88,6.41c5.5,0.07,1.55-7.04,13.14-2.46c5.47,2.17,2.16-5.48,7.91-3.57c5.74,1.9,10.67,6.16,10.67,6.16
					S247.12,129.55,220.92,129.22z"/>
				<path class="st89" d="M219.68,228.03c77.05,0.97,59.76-104.1,1.32-104.84C162.54,122.46,142.62,227.06,219.68,228.03z"/>
				<path class="st90" d="M219.78,219.64c-34.55-0.43-46.58-22.76-46.32-43.5c0.32-25.75,18.59-53.32,47.53-52.95
					c28.94,0.36,46.5,28.38,46.18,54.13c-0.15,11.78-4.15,22.31-11.28,29.65C247.65,215.46,235.17,219.84,219.78,219.64z"/>
				<path class="st88" d="M269.25,179.44c-0.15,12.33-4.38,23.37-11.89,31.1c-8.64,8.89-21.66,13.48-37.64,13.28
					c-36.09-0.45-48.67-23.85-48.39-45.61c0.34-26.75,19.42-55.41,49.66-55.03C251.22,123.57,269.59,152.69,269.25,179.44z"/>
				<path class="st51" d="M269.25,179.44c-0.15,12.33-4.38,23.37-11.89,31.1c-8.64,8.89-21.66,13.48-37.64,13.28l1.26-100.64
					C251.22,123.57,269.59,152.69,269.25,179.44z"/>
				<g>
					<path class="st1" d="M218.61,192.66l0.06-5.03c-2.62-0.2-4.75-0.53-6.36-1c-1.62-0.47-2.95-0.9-4.01-1.31l0.1-8.3l9.23,0.12
						c-0.01,0.84,0.15,1.46,0.48,1.87c0.33,0.41,1.03,0.62,2.09,0.64c0.92,0.01,1.58-0.12,1.98-0.39c0.4-0.28,0.6-0.69,0.6-1.25
						c0-0.39-0.15-0.74-0.47-1.03c-0.32-0.3-0.96-0.65-1.94-1.05c-2.06-0.81-3.86-1.58-5.4-2.31c-1.54-0.73-2.82-1.54-3.83-2.42
						c-1.01-0.88-1.76-1.9-2.25-3.07c-0.49-1.17-0.72-2.58-0.7-4.22c0.02-1.37,0.22-2.62,0.61-3.75c0.39-1.13,1.01-2.11,1.86-2.95
						c0.85-0.84,1.96-1.53,3.34-2.05c1.38-0.53,3.07-0.88,5.09-1.05l0.06-4.82l5.49,0.07l-0.06,4.74c1.31,0.1,2.47,0.25,3.48,0.44
						c1,0.19,1.92,0.42,2.76,0.66c0.84,0.25,1.6,0.51,2.3,0.78c0.69,0.27,1.26,0.55,1.71,0.84l-0.09,7.51l-8.81-0.11
						c0.01-0.81-0.21-1.37-0.65-1.67c-0.44-0.3-0.99-0.45-1.63-0.46c-0.92-0.01-1.59,0.1-2,0.33c-0.41,0.23-0.62,0.64-0.62,1.23
						c-0.01,0.48,0.21,0.83,0.64,1.05c0.43,0.23,1.08,0.49,1.94,0.78c1.61,0.55,3.14,1.13,4.57,1.74c1.43,0.6,2.69,1.35,3.77,2.23
						c1.08,0.88,1.93,1.94,2.54,3.18c0.61,1.24,0.91,2.75,0.89,4.54c-0.04,3.22-1.01,5.7-2.9,7.45c-1.9,1.75-4.66,2.77-8.3,3.06
						l-0.06,5.08L218.61,192.66z"/>
				</g>
				<path class="st51" d="M252.9,107.34c0,0-4.93-4.26-10.67-6.16c-5.75-1.91-2.43,5.74-7.91,3.57c-11.59-4.58-7.64,2.53-13.14,2.46
					l-0.28,22.01C247.12,129.55,252.9,107.34,252.9,107.34z"/>
			</g>
			<g>
				<path class="st91" d="M280.41,193.86c-0.45,5.57-1.47,10.63-2.1,15.13c-0.8,4.64-1.61,12.44-2.61,13.91
					c-1.61,2.34-10.17,10.87-15.13,16.19c-2.22,2.42-3.75,6.32-6.22,8.49c-3.22,3.14-8.11,2.58-12.26,3.26
					c-9.08,1.6-18.03,4.54-27.33,4.43c-8.07-0.1-18.45-1.57-26.49-3.88c-14.78-4.36-27.33-10.61-42.53-13.3l0.52-41.45
					c13.33-0.5,53.8,0.85,61.52,0.95c5.97,0.07,16.14,1.34,22.9,1.72c8.77,20.54-22.93,13.4-37.86,17.56
					c4.36,7.69,14.03,9.08,22.67,9.19l31.12,0.39c2.54-2.02,5.87-3.88,8.07-5.52c2.4-1.98,5.07-3.82,7.81-5.93
					c0.78-4.85,3.76-10.8,5.65-14.69c0.23-0.51,0.46-0.99,0.7-1.42C271.57,193.93,275.04,193.79,280.41,193.86z"/>
			</g>
			<g class="st92">
				<g>
					<path class="st93" d="M231.45,204.59l-6.96,1.29c-1.72-0.02-4.2,0.5-5.38-0.7c-0.73-0.77-1.03-2.49-1.35-3.35
						c-0.48-1.14-1.14-2.43-1.52-3.73c4.71,0.42,9.77,0.93,13.69,1.15C230.59,199.76,231.58,202.75,231.45,204.59z"/>
				</g>
			</g>
			<g>
				
					<rect x="123.21" y="204.25" transform="matrix(0.0126 -0.9999 0.9999 0.0126 -70.7747 366.3516)" class="st1" width="53.79" height="29.52"/>
			</g>
			<g>
				<polygon class="st10" points="121.01,250.19 158.94,250.66 158.94,250.56 159,246.02 159.34,219.03 159.67,192.23 
					159.73,187.58 121.8,187.11 121.4,218.56 121.01,250.08 				"/>
			</g>
			<g class="st94">
				
					<rect x="124.41" y="215.59" transform="matrix(0.0126 -0.9999 0.9999 0.0126 -96.1247 371.7748)" class="st95" width="31.53" height="37.94"/>
			</g>
			<g>
				<path class="st96" d="M146.38,237.2c-0.04,3.44-2.87,6.2-6.32,6.15c-3.44-0.04-6.2-2.87-6.16-6.31c0.04-3.45,2.87-6.2,6.31-6.16
					C143.66,230.93,146.42,233.75,146.38,237.2z"/>
			</g>
		</g>
	</g>
</g>
</svg>
