<?xml version="1.0" encoding="utf-8"?>
<!-- Generator: Adobe Illustrator 23.0.0, SVG Export Plug-In . SVG Version: 6.00 Build 0)  -->
<svg version="1.1" id="Capa_1" xmlns="http://www.w3.org/2000/svg" xmlns:xlink="http://www.w3.org/1999/xlink" x="0px" y="0px"
	 viewBox="0 0 400 689" style="enable-background:new 0 0 400 689;" xml:space="preserve">
<style type="text/css">
	.st0{fill:#E2E2E2;}
	.st1{fill:#FFFFFF;}
	.st2{fill:#CCCDCE;}
	.st3{fill:#F2F2F2;}
	.st4{fill:none;}
	.st5{fill:#0085B0;}
	.st6{fill:#E0EF18;}
	.st7{fill:#CECECE;}
	.st8{fill:#22272F;}
	.st9{fill:#1B2538;}
	.st10{fill:#253452;}
	.st11{fill:#F9F9F9;}
	.st12{fill:#2D3543;}
	.st13{fill:#2A3D60;}
	.st14{fill:#6C92D5;}
	.st15{fill:#587955;}
	.st16{fill:#CD7054;}
	.st17{fill:#F1CC4B;}
	.st18{fill:#DFDFDF;}
	.st19{fill:#ACACAC;}
	.st20{fill:#00D13C;}
	.st21{fill:#866A5E;}
	.st22{fill:#F7DDCB;}
	.st23{fill:#FFE6D4;}
	.st24{fill:#2D2D2D;}
	.st25{fill:#1C1B1A;}
	.st26{fill:#F5F5F5;}
	.st27{fill:#77181C;}
	.st28{fill:#EAEAEA;}
	.st29{fill:#262525;}
	.st30{fill:#11100F;}
	.st31{fill:#FFFFFF;stroke:#000000;stroke-width:6;stroke-miterlimit:10;}
	.st32{fill:#D4D4D4;}
	.st33{fill:#C2C2C2;}
	.st34{fill:#505050;}
	.st35{fill:#53C2C9;}
	.st36{fill:#008B9C;}
	.st37{fill:none;stroke:#00550B;stroke-width:4;stroke-miterlimit:10;}
	.st38{fill:#CE2458;}
	.st39{fill:#155500;}
	.st40{fill:#1549FF;}
	.st41{fill:#606060;stroke:#C6C8CC;stroke-width:6;stroke-miterlimit:10;}
	.st42{fill:#727272;}
	.st43{fill:#207235;}
	.st44{fill:#A3A3A3;}
	.st45{fill:#BCBCBC;}
	.st46{fill:#2A5936;}
	.st47{opacity:0.7;fill:#7F7F7F;}
	.st48{fill:#DAA449;}
	.st49{fill:#85B681;}
	.st50{fill:#A1DC9B;}
	.st51{fill:#90C58B;}
	.st52{fill:#DD9225;}
	.st53{opacity:0.3;}
	.st54{fill:#81C378;}
	.st55{opacity:0.5;}
	.st56{fill:#A2CADE;}
	.st57{fill:#9BAEC9;}
	.st58{fill:#9D2B3B;}
	.st59{fill:#C1D4F2;}
	.st60{fill:#534D46;}
	.st61{fill:#191819;}
	.st62{fill:#222123;}
	.st63{fill:#F3FF00;}
	.st64{fill-rule:evenodd;clip-rule:evenodd;fill:#FFFFFF;}
	.st65{fill-rule:evenodd;clip-rule:evenodd;fill:#1996B8;}
	.st66{fill:none;stroke:#5A605A;stroke-width:4;stroke-miterlimit:10;}
	.st67{fill:#FFB412;}
	.st68{fill:#BACDD1;}
	.st69{fill:#1C4D59;}
	.st70{fill:#A14329;}
	.st71{fill:#FCC083;}
	.st72{fill:#E8AA63;}
	.st73{fill:#D40000;}
	.st74{opacity:0.35;fill:#7D7D7D;}
	.st75{fill:#E5E3E3;}
	.st76{fill:#121F5E;}
	.st77{fill:#A3ADAF;}
	.st78{fill:#C2C6C6;}
	.st79{fill:#E5E5E5;stroke:#FFFFFF;stroke-miterlimit:10;}
	.st80{fill:#ACB4B5;}
	.st81{fill:#7F8384;}
	.st82{fill:#282828;}
	.st83{fill:none;stroke:#46A508;stroke-width:6;stroke-miterlimit:10;}
	.st84{fill:none;stroke:#46A508;stroke-width:6;stroke-miterlimit:10;stroke-dasharray:11.7425,11.7425;}
	.st85{fill:#C89D76;}
	.st86{opacity:0.4;}
	.st87{fill:#ADADAD;}
	.st88{fill:#76A172;}
	.st89{fill:#62835F;}
	.st90{fill:#96D090;}
	.st91{fill:#EDC3A6;}
	.st92{opacity:0.69;}
	.st93{fill:#E5D3D6;}
	.st94{opacity:0.44;}
	.st95{fill:#A5A5A5;}
	.st96{fill:#DDE5E4;}
	.st97{fill:#FDFDFD;}
	.st98{fill:#E0C348;}
	.st99{fill:#606060;}
</style>
<g>
	<g>
		<path class="st20" d="M10.5,201.36c0,22,13.29,27.86,29.54,13.03c0,0,156.99-143.3,353.09,26.97V47c0-22-18-40-40-40H50.5
			c-22,0-40,18-40,40V201.36z"/>
	</g>
	<g>
		<path class="st20" d="M392.66,639c0,22-18,40-40,40H50.98c-22,0-40-18-40-40v-46.27c0-22,18-40,40-40h301.68c22,0,40,18,40,40V639
			z"/>
	</g>
	<g>
		<path d="M73.54,367.28c0-0.19,0.05-0.43,0.16-0.7l7.97-19.17c0.19-0.45,0.41-0.76,0.66-0.94c0.24-0.18,0.59-0.27,1.04-0.27h3.49
			c0.45,0,0.79,0.09,1.04,0.27c0.25,0.18,0.46,0.5,0.66,0.94l7.94,19.17c0.11,0.28,0.16,0.51,0.16,0.7c0,0.45-0.23,0.67-0.7,0.67
			h-6.02c-0.66,0-1.08-0.29-1.25-0.86l-0.77-2.37h-5.66l-0.74,2.37c-0.17,0.58-0.59,0.86-1.25,0.86h-6.02
			C73.77,367.95,73.54,367.73,73.54,367.28z M86.34,359.66l-1.25-3.97l-1.25,3.97H86.34z"/>
		<path d="M98.67,367.5c-0.29-0.3-0.43-0.76-0.43-1.38v-18.11c0-0.62,0.14-1.08,0.43-1.38c0.29-0.3,0.78-0.45,1.49-0.45h7.36
			c7.53,0,11.3,3.63,11.3,10.88c0,3.58-0.97,6.29-2.9,8.13s-4.73,2.75-8.4,2.75h-7.36C99.46,367.95,98.96,367.8,98.67,367.5z
			 M107.81,362.51c1.19,0,2.05-0.39,2.58-1.18c0.52-0.79,0.78-2.21,0.78-4.26s-0.26-3.47-0.78-4.26c-0.52-0.79-1.38-1.18-2.58-1.18
			h-1.89v10.88H107.81z"/>
		<path d="M120.85,367.5c-0.29-0.3-0.43-0.76-0.43-1.38v-18.14c0-0.62,0.14-1.07,0.43-1.36c0.29-0.29,0.79-0.43,1.52-0.43h3.68
			c0.47,0,0.84,0.06,1.12,0.18c0.28,0.12,0.49,0.35,0.64,0.69l3.74,9.38l3.74-9.38c0.15-0.34,0.36-0.57,0.64-0.69
			c0.28-0.12,0.65-0.18,1.12-0.18h3.68c0.73,0,1.23,0.14,1.52,0.43s0.43,0.74,0.43,1.36v18.14c0,0.62-0.14,1.08-0.43,1.38
			c-0.29,0.3-0.78,0.45-1.49,0.45h-3.07c-0.7,0-1.21-0.15-1.5-0.45c-0.3-0.3-0.45-0.76-0.45-1.38v-8.74l-1.89,4.35
			c-0.26,0.62-0.53,1.06-0.83,1.33c-0.3,0.27-0.79,0.4-1.47,0.4s-1.17-0.13-1.47-0.4c-0.3-0.27-0.58-0.71-0.83-1.33l-1.89-4.35v8.74
			c0,0.62-0.14,1.08-0.43,1.38c-0.29,0.3-0.79,0.45-1.52,0.45h-3.07C121.63,367.95,121.14,367.8,120.85,367.5z"/>
		<path d="M145.36,367.5c-0.29-0.3-0.43-0.76-0.43-1.38v-18.11c0-0.62,0.14-1.08,0.43-1.38c0.29-0.3,0.78-0.45,1.49-0.45h3.81
			c0.73,0,1.23,0.14,1.52,0.43c0.29,0.29,0.43,0.75,0.43,1.39v18.11c0,0.62-0.14,1.08-0.43,1.38c-0.29,0.3-0.79,0.45-1.52,0.45
			h-3.81C146.15,367.95,145.65,367.8,145.36,367.5z"/>
		<path d="M155.28,367.5c-0.29-0.3-0.43-0.76-0.43-1.38v-18.14c0-0.62,0.14-1.07,0.43-1.36c0.29-0.29,0.79-0.43,1.52-0.43h3.04
			c0.45,0,0.79,0.06,1.04,0.18c0.25,0.12,0.49,0.35,0.72,0.69l5.79,8.61v-7.65c0-0.62,0.14-1.08,0.43-1.38
			c0.29-0.3,0.78-0.45,1.49-0.45h3.81c0.73,0,1.23,0.14,1.52,0.43s0.43,0.75,0.43,1.39v18.14c0,0.62-0.14,1.07-0.43,1.36
			s-0.79,0.43-1.52,0.43h-3.04c-0.45,0-0.79-0.06-1.04-0.18c-0.25-0.12-0.49-0.35-0.72-0.69l-5.79-8.61v7.68
			c0,0.62-0.14,1.07-0.43,1.36c-0.29,0.29-0.79,0.43-1.52,0.43h-3.81C156.06,367.95,155.57,367.8,155.28,367.5z"/>
		<path d="M177.74,367.5c-0.29-0.3-0.43-0.76-0.43-1.38v-18.11c0-0.62,0.14-1.08,0.43-1.38c0.29-0.3,0.78-0.45,1.49-0.45h3.81
			c0.73,0,1.23,0.14,1.52,0.43c0.29,0.29,0.43,0.75,0.43,1.39v18.11c0,0.62-0.14,1.08-0.43,1.38c-0.29,0.3-0.79,0.45-1.52,0.45
			h-3.81C178.53,367.95,178.03,367.8,177.74,367.5z"/>
		<path d="M191.3,367.82c-1.66-0.41-3.01-0.97-4.03-1.7c-0.43-0.3-0.64-0.59-0.64-0.86c0-0.19,0.07-0.39,0.22-0.61l1.86-2.91
			c0.19-0.28,0.38-0.42,0.58-0.42c0.17,0,0.37,0.08,0.61,0.22c0.77,0.47,1.65,0.84,2.64,1.1s1.96,0.4,2.9,0.4
			c0.79,0,1.36-0.11,1.71-0.32s0.53-0.54,0.53-0.99c0-0.49-0.23-0.88-0.7-1.18c-0.47-0.3-1.28-0.67-2.43-1.12
			c-2.15-0.83-3.85-1.78-5.09-2.83c-1.24-1.06-1.86-2.46-1.86-4.21c0-2.22,0.77-3.89,2.32-5.01c1.55-1.12,3.63-1.68,6.26-1.68
			c1.83,0,3.4,0.16,4.69,0.48c1.29,0.32,2.42,0.82,3.38,1.5c0.43,0.3,0.64,0.59,0.64,0.86c0,0.19-0.08,0.39-0.22,0.61l-1.86,2.91
			c-0.19,0.3-0.38,0.45-0.58,0.45c-0.13,0-0.33-0.08-0.61-0.26c-0.51-0.34-1.12-0.62-1.82-0.85c-0.7-0.22-1.46-0.34-2.27-0.34
			c-0.75,0-1.31,0.11-1.7,0.32c-0.38,0.21-0.58,0.55-0.58,1.02c0,0.38,0.13,0.7,0.4,0.96c0.27,0.26,0.6,0.47,1.01,0.66
			c0.41,0.18,1.11,0.48,2.11,0.88c1.6,0.64,2.86,1.25,3.78,1.84c0.92,0.59,1.61,1.29,2.08,2.11c0.47,0.82,0.7,1.86,0.7,3.12
			c0,1.92-0.72,3.47-2.16,4.66c-1.44,1.18-3.59,1.78-6.45,1.78C194.76,368.43,192.96,368.23,191.3,367.82z"/>
		<path d="M211.63,367.5c-0.29-0.3-0.43-0.76-0.43-1.38v-14.5h-4.61c-0.68,0-1.15-0.14-1.39-0.43s-0.37-0.75-0.37-1.39v-1.79
			c0-0.64,0.12-1.1,0.37-1.39s0.71-0.43,1.39-0.43h16.9c0.68,0,1.15,0.14,1.39,0.43c0.24,0.29,0.37,0.75,0.37,1.39v1.79
			c0,0.64-0.12,1.1-0.37,1.39c-0.25,0.29-0.71,0.43-1.39,0.43h-4.61v14.5c0,0.62-0.14,1.08-0.43,1.38c-0.29,0.3-0.79,0.45-1.52,0.45
			h-3.81C212.42,367.95,211.92,367.8,211.63,367.5z"/>
		<path d="M226.64,367.5c-0.29-0.3-0.43-0.76-0.43-1.38v-18.11c0-0.62,0.14-1.08,0.43-1.38c0.29-0.3,0.78-0.45,1.49-0.45h7.65
			c3.2,0,5.53,0.63,6.99,1.9c1.46,1.27,2.19,3.18,2.19,5.74c0,1.54-0.26,2.83-0.78,3.89c-0.52,1.06-1.33,1.88-2.42,2.48l2.98,6.37
			c0.08,0.17,0.13,0.36,0.13,0.58c0,0.23-0.08,0.43-0.24,0.58c-0.16,0.15-0.37,0.22-0.62,0.22h-5.41c-0.34,0-0.61-0.05-0.82-0.14
			c-0.2-0.1-0.35-0.26-0.43-0.5l-2.37-5.95h-1.09v4.77c0,0.62-0.14,1.08-0.43,1.38c-0.29,0.3-0.79,0.45-1.52,0.45h-3.81
			C227.42,367.95,226.93,367.8,226.64,367.5z M235.1,356.02c0.68,0,1.22-0.18,1.62-0.54c0.39-0.36,0.59-0.91,0.59-1.63
			c0-0.75-0.2-1.3-0.59-1.66c-0.4-0.36-0.93-0.54-1.62-0.54h-2.18v4.38H235.1z"/>
		<path d="M244.48,367.28c0-0.19,0.05-0.43,0.16-0.7l7.97-19.17c0.19-0.45,0.41-0.76,0.66-0.94c0.24-0.18,0.59-0.27,1.04-0.27h3.49
			c0.45,0,0.79,0.09,1.04,0.27c0.25,0.18,0.46,0.5,0.66,0.94l7.94,19.17c0.11,0.28,0.16,0.51,0.16,0.7c0,0.45-0.23,0.67-0.7,0.67
			h-6.02c-0.66,0-1.08-0.29-1.25-0.86l-0.77-2.37h-5.66l-0.74,2.37c-0.17,0.58-0.59,0.86-1.25,0.86h-6.02
			C244.71,367.95,244.48,367.73,244.48,367.28z M257.28,359.66l-1.25-3.97l-1.25,3.97H257.28z"/>
		<path d="M270.02,365.57c-2.15-1.91-3.23-4.74-3.23-8.5c0-3.78,1.04-6.61,3.12-8.51s5.05-2.85,8.91-2.85
			c1.75,0,3.31,0.17,4.67,0.51c1.36,0.34,2.51,0.82,3.42,1.44c0.26,0.19,0.38,0.41,0.38,0.64c0,0.19-0.1,0.46-0.29,0.8l-1.6,2.75
			c-0.17,0.3-0.37,0.45-0.61,0.45c-0.15,0-0.4-0.08-0.74-0.26c-0.6-0.3-1.22-0.53-1.87-0.7c-0.65-0.17-1.41-0.26-2.29-0.26
			c-1.77,0-3.13,0.51-4.06,1.54c-0.94,1.02-1.41,2.51-1.41,4.45c0,1.92,0.51,3.4,1.54,4.43c1.02,1.04,2.42,1.55,4.19,1.55
			c1.54,0,2.94-0.32,4.22-0.96c0.34-0.17,0.59-0.26,0.74-0.26c0.23,0,0.44,0.15,0.61,0.45l1.6,2.75c0.19,0.34,0.29,0.61,0.29,0.8
			c0,0.24-0.13,0.45-0.38,0.64c-0.92,0.62-2.07,1.1-3.46,1.44c-1.39,0.34-2.96,0.51-4.7,0.51
			C275.19,368.43,272.17,367.48,270.02,365.57z"/>
		<path d="M289.65,367.5c-0.29-0.3-0.43-0.76-0.43-1.38v-18.11c0-0.62,0.14-1.08,0.43-1.38c0.29-0.3,0.78-0.45,1.49-0.45h3.81
			c0.73,0,1.23,0.14,1.52,0.43c0.29,0.29,0.43,0.75,0.43,1.39v18.11c0,0.62-0.14,1.08-0.43,1.38c-0.29,0.3-0.79,0.45-1.52,0.45
			h-3.81C290.43,367.95,289.94,367.8,289.65,367.5z"/>
		<path d="M301.44,365.47c-1.96-1.97-2.94-4.77-2.94-8.4s0.98-6.43,2.94-8.4c1.96-1.97,4.84-2.96,8.64-2.96
			c3.8,0,6.68,0.99,8.64,2.96c1.96,1.97,2.94,4.77,2.94,8.4s-0.98,6.43-2.94,8.4c-1.96,1.97-4.84,2.96-8.64,2.96
			C306.28,368.43,303.4,367.45,301.44,365.47z M313.09,361.57c0.62-0.99,0.93-2.49,0.93-4.5c0-2.03-0.31-3.53-0.93-4.51
			s-1.62-1.47-3.01-1.47c-1.39,0-2.39,0.49-3.01,1.47c-0.62,0.98-0.93,2.49-0.93,4.51c0,2.01,0.31,3.5,0.93,4.5
			c0.62,0.99,1.62,1.49,3.01,1.49C311.47,363.06,312.47,362.56,313.09,361.57z M306.69,343.5c0-0.17,0.03-0.35,0.1-0.54l1.34-3.71
			c0.17-0.49,0.37-0.82,0.61-0.99c0.23-0.17,0.67-0.26,1.31-0.26h4.58c0.45,0,0.8,0.08,1.06,0.24s0.38,0.39,0.38,0.69
			c0,0.26-0.09,0.52-0.26,0.8l-2.05,3.46c-0.3,0.51-0.59,0.84-0.86,0.99c-0.28,0.15-0.78,0.22-1.5,0.22h-3.42
			C307.11,344.4,306.69,344.1,306.69,343.5z"/>
		<path d="M323.7,367.5c-0.29-0.3-0.43-0.76-0.43-1.38v-18.14c0-0.62,0.14-1.07,0.43-1.36c0.29-0.29,0.79-0.43,1.52-0.43h3.04
			c0.45,0,0.79,0.06,1.04,0.18c0.25,0.12,0.49,0.35,0.72,0.69l5.79,8.61v-7.65c0-0.62,0.14-1.08,0.43-1.38
			c0.29-0.3,0.78-0.45,1.49-0.45h3.81c0.73,0,1.23,0.14,1.52,0.43s0.43,0.75,0.43,1.39v18.14c0,0.62-0.14,1.07-0.43,1.36
			s-0.79,0.43-1.52,0.43h-3.04c-0.45,0-0.79-0.06-1.04-0.18c-0.25-0.12-0.49-0.35-0.72-0.69l-5.79-8.61v7.68
			c0,0.62-0.14,1.07-0.43,1.36c-0.29,0.29-0.79,0.43-1.52,0.43h-3.81C324.48,367.95,323.98,367.8,323.7,367.5z"/>
		<path d="M70.63,405.9c-0.29-0.3-0.43-0.76-0.43-1.38v-5.79l-7.46-12.77c-0.13-0.23-0.19-0.46-0.19-0.67c0-0.47,0.24-0.7,0.74-0.7
			h6.02c0.32,0,0.56,0.07,0.74,0.21c0.17,0.14,0.34,0.36,0.51,0.66l3.49,6.27l3.49-6.27c0.17-0.3,0.34-0.52,0.51-0.66
			c0.17-0.14,0.42-0.21,0.74-0.21h6.02c0.49,0,0.74,0.23,0.74,0.7c0,0.21-0.06,0.44-0.19,0.67l-7.46,12.77v5.79
			c0,0.62-0.14,1.08-0.43,1.38c-0.29,0.3-0.8,0.45-1.52,0.45h-3.81C71.41,406.35,70.91,406.2,70.63,405.9z"/>
		<path d="M99.35,403.97c-2.15-1.91-3.23-4.74-3.23-8.5c0-3.78,1.04-6.61,3.12-8.51s5.05-2.85,8.91-2.85c1.75,0,3.31,0.17,4.67,0.51
			c1.36,0.34,2.51,0.82,3.42,1.44c0.26,0.19,0.38,0.41,0.38,0.64c0,0.19-0.1,0.46-0.29,0.8l-1.6,2.75c-0.17,0.3-0.37,0.45-0.61,0.45
			c-0.15,0-0.4-0.08-0.74-0.26c-0.6-0.3-1.22-0.53-1.87-0.7c-0.65-0.17-1.41-0.26-2.29-0.26c-1.77,0-3.13,0.51-4.06,1.54
			c-0.94,1.02-1.41,2.51-1.41,4.45c0,1.92,0.51,3.4,1.54,4.43c1.02,1.04,2.42,1.55,4.19,1.55c1.54,0,2.94-0.32,4.22-0.96
			c0.34-0.17,0.59-0.26,0.74-0.26c0.23,0,0.44,0.15,0.61,0.45l1.6,2.75c0.19,0.34,0.29,0.61,0.29,0.8c0,0.24-0.13,0.45-0.38,0.64
			c-0.92,0.62-2.07,1.1-3.46,1.44c-1.39,0.34-2.96,0.51-4.7,0.51C104.52,406.83,101.5,405.88,99.35,403.97z"/>
		<path d="M119.41,403.87c-1.96-1.97-2.94-4.77-2.94-8.4s0.98-6.43,2.94-8.4c1.96-1.97,4.84-2.96,8.64-2.96
			c3.8,0,6.68,0.99,8.64,2.96c1.96,1.97,2.94,4.77,2.94,8.4s-0.98,6.43-2.94,8.4c-1.96,1.97-4.84,2.96-8.64,2.96
			C124.25,406.83,121.37,405.85,119.41,403.87z M131.06,399.97c0.62-0.99,0.93-2.49,0.93-4.5c0-2.03-0.31-3.53-0.93-4.51
			s-1.62-1.47-3.01-1.47c-1.39,0-2.39,0.49-3.01,1.47c-0.62,0.98-0.93,2.49-0.93,4.51c0,2.01,0.31,3.5,0.93,4.5
			c0.62,0.99,1.62,1.49,3.01,1.49C129.44,401.46,130.44,400.96,131.06,399.97z"/>
		<path d="M141.67,405.9c-0.29-0.3-0.43-0.76-0.43-1.38v-18.14c0-0.62,0.14-1.07,0.43-1.36c0.29-0.29,0.79-0.43,1.52-0.43h3.04
			c0.45,0,0.79,0.06,1.04,0.18s0.49,0.35,0.72,0.69l5.79,8.61v-7.65c0-0.62,0.14-1.08,0.43-1.38c0.29-0.3,0.78-0.45,1.49-0.45h3.81
			c0.73,0,1.23,0.14,1.52,0.43s0.43,0.75,0.43,1.39v18.14c0,0.62-0.14,1.07-0.43,1.36s-0.79,0.43-1.52,0.43h-3.04
			c-0.45,0-0.79-0.06-1.04-0.18c-0.25-0.12-0.49-0.35-0.72-0.69l-5.79-8.61v7.68c0,0.62-0.14,1.07-0.43,1.36
			c-0.29,0.29-0.79,0.43-1.52,0.43h-3.81C142.45,406.35,141.95,406.2,141.67,405.9z"/>
		<path d="M164.13,405.9c-0.29-0.3-0.43-0.76-0.43-1.38v-18.11c0-0.62,0.14-1.08,0.43-1.38c0.29-0.3,0.78-0.45,1.49-0.45h13.25
			c0.68,0,1.15,0.14,1.39,0.43c0.24,0.29,0.37,0.75,0.37,1.39v1.79c0,0.64-0.12,1.1-0.37,1.39c-0.25,0.29-0.71,0.43-1.39,0.43h-7.49
			v2.72h4.61c0.68,0,1.15,0.14,1.39,0.43s0.37,0.75,0.37,1.39v1.79c0,0.64-0.12,1.1-0.37,1.39s-0.71,0.43-1.39,0.43h-4.61v6.34
			c0,0.62-0.14,1.08-0.43,1.38c-0.29,0.3-0.79,0.45-1.52,0.45h-3.81C164.91,406.35,164.42,406.2,164.13,405.9z"/>
		<path d="M182.18,405.9c-0.29-0.3-0.43-0.76-0.43-1.38v-18.11c0-0.62,0.14-1.08,0.43-1.38c0.29-0.3,0.78-0.45,1.49-0.45h3.81
			c0.73,0,1.23,0.14,1.52,0.43c0.29,0.29,0.43,0.75,0.43,1.39v18.11c0,0.62-0.14,1.08-0.43,1.38c-0.29,0.3-0.79,0.45-1.52,0.45
			h-3.81C182.96,406.35,182.47,406.2,182.18,405.9z"/>
		<path d="M194.26,403.97c-2.15-1.91-3.23-4.74-3.23-8.5c0-3.73,1.08-6.56,3.23-8.48s5.16-2.88,9.02-2.88c1.75,0,3.32,0.17,4.7,0.51
			c1.39,0.34,2.54,0.82,3.46,1.44c0.26,0.19,0.38,0.41,0.38,0.64c0,0.19-0.1,0.46-0.29,0.8l-1.6,2.75c-0.17,0.3-0.37,0.45-0.61,0.45
			c-0.15,0-0.4-0.08-0.74-0.26c-1.28-0.64-2.69-0.96-4.22-0.96c-1.77,0-3.16,0.51-4.18,1.52c-1.01,1.01-1.52,2.5-1.52,4.46
			c0,2.03,0.43,3.53,1.28,4.5c0.85,0.97,2.12,1.46,3.81,1.46c0.3,0,0.63-0.03,1.01-0.08c0.37-0.05,0.68-0.11,0.91-0.18v-2.91h-2.05
			c-0.68,0-1.15-0.13-1.39-0.4c-0.25-0.27-0.37-0.72-0.37-1.36v-1.76c0-0.64,0.12-1.09,0.37-1.36s0.71-0.4,1.39-0.4h6.88
			c0.83,0,1.41,0.19,1.73,0.56c0.32,0.37,0.48,0.97,0.48,1.78v7.49c0,0.47-0.06,0.83-0.18,1.07c-0.12,0.25-0.35,0.5-0.69,0.75
			c-2.05,1.47-4.9,2.21-8.54,2.21C199.43,406.83,196.41,405.88,194.26,403.97z"/>
		<path d="M219.15,405.82c-1.58-0.67-2.81-1.64-3.68-2.91c-0.88-1.27-1.31-2.78-1.31-4.53v-11.97c0-0.62,0.14-1.08,0.43-1.38
			s0.78-0.45,1.49-0.45h3.81c0.73,0,1.23,0.14,1.52,0.43s0.43,0.75,0.43,1.39v12.06c0,1,0.25,1.75,0.75,2.24
			c0.5,0.49,1.19,0.74,2.06,0.74c0.87,0,1.56-0.24,2.06-0.74c0.5-0.49,0.75-1.24,0.75-2.24v-12.06c0-0.62,0.14-1.08,0.43-1.38
			s0.78-0.45,1.49-0.45h3.81c0.73,0,1.23,0.14,1.52,0.43s0.43,0.75,0.43,1.39v11.97c0,1.75-0.44,3.26-1.31,4.53
			c-0.88,1.27-2.1,2.24-3.68,2.91c-1.58,0.67-3.41,1.01-5.5,1.01C222.57,406.83,220.73,406.5,219.15,405.82z"/>
		<path d="M237.66,405.9c-0.29-0.3-0.43-0.76-0.43-1.38v-18.11c0-0.62,0.14-1.08,0.43-1.38c0.29-0.3,0.78-0.45,1.49-0.45h7.65
			c3.2,0,5.53,0.63,6.99,1.9c1.46,1.27,2.19,3.18,2.19,5.74c0,1.54-0.26,2.83-0.78,3.89c-0.52,1.06-1.33,1.88-2.42,2.48l2.98,6.37
			c0.08,0.17,0.13,0.36,0.13,0.58c0,0.23-0.08,0.43-0.24,0.58c-0.16,0.15-0.37,0.22-0.62,0.22h-5.41c-0.34,0-0.61-0.05-0.82-0.14
			c-0.2-0.1-0.35-0.26-0.43-0.5l-2.37-5.95h-1.09v4.77c0,0.62-0.14,1.08-0.43,1.38c-0.29,0.3-0.79,0.45-1.52,0.45h-3.81
			C238.45,406.35,237.95,406.2,237.66,405.9z M246.13,394.42c0.68,0,1.22-0.18,1.62-0.54c0.39-0.36,0.59-0.91,0.59-1.63
			c0-0.75-0.2-1.3-0.59-1.66c-0.4-0.36-0.93-0.54-1.62-0.54h-2.18v4.38H246.13z"/>
		<path d="M255.5,405.68c0-0.19,0.05-0.43,0.16-0.7l7.97-19.17c0.19-0.45,0.41-0.76,0.66-0.94c0.24-0.18,0.59-0.27,1.04-0.27h3.49
			c0.45,0,0.79,0.09,1.04,0.27c0.25,0.18,0.46,0.5,0.66,0.94l7.94,19.17c0.11,0.28,0.16,0.51,0.16,0.7c0,0.45-0.23,0.67-0.7,0.67
			h-6.02c-0.66,0-1.08-0.29-1.25-0.86l-0.77-2.37h-5.66l-0.74,2.37c-0.17,0.58-0.59,0.86-1.25,0.86h-6.02
			C255.74,406.35,255.5,406.13,255.5,405.68z M268.3,398.06l-1.25-3.97l-1.25,3.97H268.3z"/>
		<path d="M281.04,403.97c-2.15-1.91-3.23-4.74-3.23-8.5c0-3.78,1.04-6.61,3.12-8.51s5.05-2.85,8.91-2.85
			c1.75,0,3.31,0.17,4.67,0.51c1.36,0.34,2.51,0.82,3.42,1.44c0.26,0.19,0.38,0.41,0.38,0.64c0,0.19-0.1,0.46-0.29,0.8l-1.6,2.75
			c-0.17,0.3-0.37,0.45-0.61,0.45c-0.15,0-0.4-0.08-0.74-0.26c-0.6-0.3-1.22-0.53-1.87-0.7c-0.65-0.17-1.41-0.26-2.29-0.26
			c-1.77,0-3.13,0.51-4.06,1.54c-0.94,1.02-1.41,2.51-1.41,4.45c0,1.92,0.51,3.4,1.54,4.43c1.02,1.04,2.42,1.55,4.19,1.55
			c1.54,0,2.94-0.32,4.22-0.96c0.34-0.17,0.59-0.26,0.74-0.26c0.23,0,0.44,0.15,0.61,0.45l1.6,2.75c0.19,0.34,0.29,0.61,0.29,0.8
			c0,0.24-0.13,0.45-0.38,0.64c-0.92,0.62-2.07,1.1-3.46,1.44c-1.39,0.34-2.96,0.51-4.7,0.51
			C286.21,406.83,283.2,405.88,281.04,403.97z"/>
		<path d="M300.67,405.9c-0.29-0.3-0.43-0.76-0.43-1.38v-18.11c0-0.62,0.14-1.08,0.43-1.38c0.29-0.3,0.78-0.45,1.49-0.45h3.81
			c0.73,0,1.23,0.14,1.52,0.43c0.29,0.29,0.43,0.75,0.43,1.39v18.11c0,0.62-0.14,1.08-0.43,1.38c-0.29,0.3-0.79,0.45-1.52,0.45
			h-3.81C301.46,406.35,300.96,406.2,300.67,405.9z"/>
		<path d="M312.46,403.87c-1.96-1.97-2.94-4.77-2.94-8.4s0.98-6.43,2.94-8.4c1.96-1.97,4.84-2.96,8.64-2.96
			c3.8,0,6.68,0.99,8.64,2.96c1.96,1.97,2.94,4.77,2.94,8.4s-0.98,6.43-2.94,8.4c-1.96,1.97-4.84,2.96-8.64,2.96
			C317.31,406.83,314.43,405.85,312.46,403.87z M324.11,399.97c0.62-0.99,0.93-2.49,0.93-4.5c0-2.03-0.31-3.53-0.93-4.51
			s-1.62-1.47-3.01-1.47c-1.39,0-2.39,0.49-3.01,1.47c-0.62,0.98-0.93,2.49-0.93,4.51c0,2.01,0.31,3.5,0.93,4.5
			c0.62,0.99,1.62,1.49,3.01,1.49C322.49,401.46,323.49,400.96,324.11,399.97z M317.71,381.9c0-0.17,0.03-0.35,0.1-0.54l1.34-3.71
			c0.17-0.49,0.37-0.82,0.61-0.99c0.23-0.17,0.67-0.26,1.31-0.26h4.58c0.45,0,0.8,0.08,1.06,0.24s0.38,0.39,0.38,0.69
			c0,0.26-0.09,0.52-0.26,0.8l-2.05,3.46c-0.3,0.51-0.59,0.84-0.86,0.99c-0.28,0.15-0.78,0.22-1.5,0.22h-3.42
			C318.14,382.8,317.71,382.5,317.71,381.9z"/>
		<path d="M334.72,405.9c-0.29-0.3-0.43-0.76-0.43-1.38v-18.14c0-0.62,0.14-1.07,0.43-1.36c0.29-0.29,0.79-0.43,1.52-0.43h3.04
			c0.45,0,0.79,0.06,1.04,0.18s0.49,0.35,0.72,0.69l5.79,8.61v-7.65c0-0.62,0.14-1.08,0.43-1.38c0.29-0.3,0.78-0.45,1.49-0.45h3.81
			c0.73,0,1.23,0.14,1.52,0.43s0.43,0.75,0.43,1.39v18.14c0,0.62-0.14,1.07-0.43,1.36s-0.79,0.43-1.52,0.43h-3.04
			c-0.45,0-0.79-0.06-1.04-0.18c-0.25-0.12-0.49-0.35-0.72-0.69l-5.79-8.61v7.68c0,0.62-0.14,1.07-0.43,1.36
			c-0.29,0.29-0.79,0.43-1.52,0.43h-3.81C335.5,406.35,335.01,406.2,334.72,405.9z"/>
		<path d="M103.36,444.3c-0.29-0.3-0.43-0.76-0.43-1.38v-18.11c0-0.62,0.14-1.08,0.43-1.38c0.29-0.3,0.78-0.45,1.49-0.45h7.36
			c7.53,0,11.3,3.63,11.3,10.88c0,3.58-0.97,6.29-2.9,8.13s-4.73,2.75-8.4,2.75h-7.36C104.15,444.75,103.65,444.6,103.36,444.3z
			 M112.5,439.31c1.19,0,2.05-0.39,2.58-1.18c0.52-0.79,0.78-2.21,0.78-4.26s-0.26-3.47-0.78-4.26c-0.52-0.79-1.38-1.18-2.58-1.18
			h-1.89v10.88H112.5z"/>
		<path d="M125.54,444.3c-0.29-0.3-0.43-0.76-0.43-1.38v-18.11c0-0.62,0.14-1.08,0.43-1.38c0.29-0.3,0.78-0.45,1.49-0.45h13.25
			c0.68,0,1.15,0.14,1.39,0.43c0.24,0.29,0.37,0.75,0.37,1.39v1.79c0,0.64-0.12,1.1-0.37,1.39c-0.25,0.29-0.71,0.43-1.39,0.43h-7.49
			v2.75h4.61c0.68,0,1.15,0.14,1.39,0.43s0.37,0.75,0.37,1.39v1.73c0,0.64-0.12,1.1-0.37,1.39s-0.71,0.43-1.39,0.43h-4.61v2.75h7.46
			c0.68,0,1.15,0.14,1.39,0.43c0.25,0.29,0.37,0.75,0.37,1.39v1.79c0,0.64-0.12,1.1-0.37,1.39c-0.25,0.29-0.71,0.43-1.39,0.43
			h-13.22C126.32,444.75,125.83,444.6,125.54,444.3z"/>
		<path d="M155.67,442.37c-2.15-1.91-3.23-4.74-3.23-8.5c0-3.78,1.04-6.61,3.12-8.51s5.05-2.85,8.91-2.85
			c1.75,0,3.31,0.17,4.67,0.51c1.36,0.34,2.51,0.82,3.42,1.44c0.26,0.19,0.38,0.41,0.38,0.64c0,0.19-0.1,0.46-0.29,0.8l-1.6,2.75
			c-0.17,0.3-0.37,0.45-0.61,0.45c-0.15,0-0.4-0.08-0.74-0.26c-0.6-0.3-1.22-0.53-1.87-0.7c-0.65-0.17-1.41-0.26-2.29-0.26
			c-1.77,0-3.13,0.51-4.06,1.54c-0.94,1.02-1.41,2.51-1.41,4.45c0,1.92,0.51,3.4,1.54,4.43c1.02,1.04,2.42,1.55,4.19,1.55
			c1.54,0,2.94-0.32,4.22-0.96c0.34-0.17,0.59-0.26,0.74-0.26c0.23,0,0.44,0.15,0.61,0.45l1.6,2.75c0.19,0.34,0.29,0.61,0.29,0.8
			c0,0.24-0.13,0.45-0.38,0.64c-0.92,0.62-2.07,1.1-3.46,1.44c-1.39,0.34-2.96,0.51-4.7,0.51
			C160.84,445.23,157.82,444.28,155.67,442.37z"/>
		<path d="M175.73,442.27c-1.96-1.97-2.94-4.77-2.94-8.4s0.98-6.43,2.94-8.4c1.96-1.97,4.84-2.96,8.64-2.96
			c3.8,0,6.68,0.99,8.64,2.96c1.96,1.97,2.94,4.77,2.94,8.4s-0.98,6.43-2.94,8.4c-1.96,1.97-4.84,2.96-8.64,2.96
			C180.57,445.23,177.69,444.25,175.73,442.27z M187.38,438.37c0.62-0.99,0.93-2.49,0.93-4.5c0-2.03-0.31-3.53-0.93-4.51
			s-1.62-1.47-3.01-1.47c-1.39,0-2.39,0.49-3.01,1.47c-0.62,0.98-0.93,2.49-0.93,4.51c0,2.01,0.31,3.5,0.93,4.5
			c0.62,0.99,1.62,1.49,3.01,1.49C185.76,439.86,186.76,439.36,187.38,438.37z"/>
		<path d="M197.99,444.3c-0.29-0.3-0.43-0.76-0.43-1.38v-18.11c0-0.62,0.14-1.08,0.43-1.38c0.29-0.3,0.78-0.45,1.49-0.45h3.81
			c0.73,0,1.23,0.14,1.52,0.43c0.29,0.29,0.43,0.75,0.43,1.39v14.5h7.46c0.68,0,1.15,0.14,1.39,0.43c0.25,0.29,0.37,0.75,0.37,1.39
			v1.79c0,0.64-0.12,1.1-0.37,1.39c-0.25,0.29-0.71,0.43-1.39,0.43h-13.22C198.77,444.75,198.27,444.6,197.99,444.3z"/>
		<path d="M214.29,444.08c0-0.19,0.05-0.43,0.16-0.7l7.97-19.17c0.19-0.45,0.41-0.76,0.66-0.94c0.24-0.18,0.59-0.27,1.04-0.27h3.49
			c0.45,0,0.79,0.09,1.04,0.27c0.25,0.18,0.46,0.5,0.66,0.94l7.94,19.17c0.11,0.28,0.16,0.51,0.16,0.7c0,0.45-0.23,0.67-0.7,0.67
			h-6.02c-0.66,0-1.08-0.29-1.25-0.86l-0.77-2.37h-5.66l-0.74,2.37c-0.17,0.58-0.59,0.86-1.25,0.86h-6.02
			C214.52,444.75,214.29,444.53,214.29,444.08z M227.09,436.46l-1.25-3.97l-1.25,3.97H227.09z"/>
		<path d="M241.62,444.62c-1.66-0.41-3.01-0.97-4.03-1.7c-0.43-0.3-0.64-0.59-0.64-0.86c0-0.19,0.07-0.39,0.22-0.61l1.86-2.91
			c0.19-0.28,0.38-0.42,0.58-0.42c0.17,0,0.37,0.08,0.61,0.22c0.77,0.47,1.65,0.84,2.64,1.1s1.96,0.4,2.9,0.4
			c0.79,0,1.36-0.11,1.71-0.32s0.53-0.54,0.53-0.99c0-0.49-0.23-0.88-0.7-1.18c-0.47-0.3-1.28-0.67-2.43-1.12
			c-2.15-0.83-3.85-1.78-5.09-2.83c-1.24-1.06-1.86-2.46-1.86-4.21c0-2.22,0.77-3.89,2.32-5.01c1.55-1.12,3.63-1.68,6.26-1.68
			c1.83,0,3.4,0.16,4.69,0.48c1.29,0.32,2.42,0.82,3.38,1.5c0.43,0.3,0.64,0.59,0.64,0.86c0,0.19-0.08,0.39-0.22,0.61l-1.86,2.91
			c-0.19,0.3-0.38,0.45-0.58,0.45c-0.13,0-0.33-0.08-0.61-0.26c-0.51-0.34-1.12-0.62-1.82-0.85c-0.7-0.22-1.46-0.34-2.27-0.34
			c-0.75,0-1.31,0.11-1.7,0.32c-0.38,0.21-0.58,0.55-0.58,1.02c0,0.38,0.13,0.7,0.4,0.96c0.27,0.26,0.6,0.47,1.01,0.66
			c0.41,0.18,1.11,0.48,2.11,0.88c1.6,0.64,2.86,1.25,3.78,1.84c0.92,0.59,1.61,1.29,2.08,2.11c0.47,0.82,0.7,1.86,0.7,3.12
			c0,1.92-0.72,3.47-2.16,4.66c-1.44,1.18-3.59,1.78-6.45,1.78C245.08,445.23,243.28,445.03,241.62,444.62z"/>
		<path d="M267.26,444.3c-0.29-0.3-0.43-0.76-0.43-1.38v-18.11c0-0.62,0.14-1.08,0.43-1.38c0.29-0.3,0.78-0.45,1.49-0.45h7.36
			c7.53,0,11.3,3.63,11.3,10.88c0,3.58-0.97,6.29-2.9,8.13s-4.73,2.75-8.4,2.75h-7.36C268.05,444.75,267.55,444.6,267.26,444.3z
			 M276.4,439.31c1.19,0,2.05-0.39,2.58-1.18c0.52-0.79,0.78-2.21,0.78-4.26s-0.26-3.47-0.78-4.26c-0.52-0.79-1.38-1.18-2.58-1.18
			h-1.89v10.88H276.4z"/>
		<path d="M289.44,444.3c-0.29-0.3-0.43-0.76-0.43-1.38v-18.11c0-0.62,0.14-1.08,0.43-1.38c0.29-0.3,0.78-0.45,1.49-0.45h13.25
			c0.68,0,1.15,0.14,1.39,0.43c0.24,0.29,0.37,0.75,0.37,1.39v1.79c0,0.64-0.12,1.1-0.37,1.39c-0.25,0.29-0.71,0.43-1.39,0.43h-7.49
			v2.75h4.61c0.68,0,1.15,0.14,1.39,0.43s0.37,0.75,0.37,1.39v1.73c0,0.64-0.12,1.1-0.37,1.39s-0.71,0.43-1.39,0.43h-4.61v2.75h7.46
			c0.68,0,1.15,0.14,1.39,0.43c0.25,0.29,0.37,0.75,0.37,1.39v1.79c0,0.64-0.12,1.1-0.37,1.39c-0.25,0.29-0.71,0.43-1.39,0.43
			h-13.22C290.22,444.75,289.73,444.6,289.44,444.3z"/>
		<path d="M120.93,482.7c-0.29-0.3-0.43-0.76-0.43-1.38v-18.11c0-0.62,0.14-1.08,0.43-1.38c0.29-0.3,0.78-0.45,1.49-0.45h3.81
			c0.73,0,1.23,0.14,1.52,0.43c0.29,0.29,0.43,0.75,0.43,1.39v14.5h7.46c0.68,0,1.15,0.14,1.39,0.43c0.25,0.29,0.37,0.75,0.37,1.39
			v1.79c0,0.64-0.12,1.1-0.37,1.39c-0.25,0.29-0.71,0.43-1.39,0.43h-13.22C121.71,483.15,121.22,483,120.93,482.7z"/>
		<path d="M138.79,482.7c-0.29-0.3-0.43-0.76-0.43-1.38v-18.11c0-0.62,0.14-1.08,0.43-1.38c0.29-0.3,0.78-0.45,1.49-0.45h3.81
			c0.73,0,1.23,0.14,1.52,0.43c0.29,0.29,0.43,0.75,0.43,1.39v14.5h7.46c0.68,0,1.15,0.14,1.39,0.43c0.25,0.29,0.37,0.75,0.37,1.39
			v1.79c0,0.64-0.12,1.1-0.37,1.39c-0.25,0.29-0.71,0.43-1.39,0.43h-13.22C139.57,483.15,139.07,483,138.79,482.7z"/>
		<path d="M155.09,482.48c0-0.19,0.05-0.43,0.16-0.7l7.97-19.17c0.19-0.45,0.41-0.76,0.66-0.94c0.24-0.18,0.59-0.27,1.04-0.27h3.49
			c0.45,0,0.79,0.09,1.04,0.27c0.25,0.18,0.46,0.5,0.66,0.94l7.94,19.17c0.11,0.28,0.16,0.51,0.16,0.7c0,0.45-0.23,0.67-0.7,0.67
			h-6.02c-0.66,0-1.08-0.29-1.25-0.86l-0.77-2.37h-5.66l-0.74,2.37c-0.17,0.58-0.59,0.86-1.25,0.86h-6.02
			C155.32,483.15,155.09,482.93,155.09,482.48z M167.89,474.86l-1.25-3.97l-1.25,3.97H167.89z"/>
		<path d="M179.43,482.7c-0.29-0.3-0.43-0.76-0.43-1.38v-18.14c0-0.62,0.14-1.07,0.43-1.36c0.29-0.29,0.79-0.43,1.52-0.43h3.68
			c0.47,0,0.84,0.06,1.12,0.18c0.28,0.12,0.49,0.35,0.64,0.69l3.74,9.38l3.74-9.38c0.15-0.34,0.36-0.57,0.64-0.69
			c0.28-0.12,0.65-0.18,1.12-0.18h3.68c0.73,0,1.23,0.14,1.52,0.43s0.43,0.74,0.43,1.36v18.14c0,0.62-0.14,1.08-0.43,1.38
			c-0.29,0.3-0.78,0.45-1.49,0.45h-3.07c-0.7,0-1.21-0.15-1.5-0.45c-0.3-0.3-0.45-0.76-0.45-1.38v-8.74l-1.89,4.35
			c-0.26,0.62-0.53,1.06-0.83,1.33c-0.3,0.27-0.79,0.4-1.47,0.4s-1.17-0.13-1.47-0.4c-0.3-0.27-0.58-0.71-0.83-1.33l-1.89-4.35v8.74
			c0,0.62-0.14,1.08-0.43,1.38c-0.29,0.3-0.79,0.45-1.52,0.45h-3.07C180.21,483.15,179.71,483,179.43,482.7z"/>
		<path d="M202.07,482.48c0-0.19,0.05-0.43,0.16-0.7l7.97-19.17c0.19-0.45,0.41-0.76,0.66-0.94c0.24-0.18,0.59-0.27,1.04-0.27h3.49
			c0.45,0,0.79,0.09,1.04,0.27c0.25,0.18,0.46,0.5,0.66,0.94l7.94,19.17c0.11,0.28,0.16,0.51,0.16,0.7c0,0.45-0.23,0.67-0.7,0.67
			h-6.02c-0.66,0-1.08-0.29-1.25-0.86l-0.77-2.37h-5.66l-0.74,2.37c-0.17,0.58-0.59,0.86-1.25,0.86h-6.02
			C202.3,483.15,202.07,482.93,202.07,482.48z M214.87,474.86l-1.25-3.97l-1.25,3.97H214.87z"/>
		<path d="M227.2,482.7c-0.29-0.3-0.43-0.76-0.43-1.38v-18.11c0-0.62,0.14-1.08,0.43-1.38c0.29-0.3,0.78-0.45,1.49-0.45h7.36
			c7.53,0,11.3,3.63,11.3,10.88c0,3.58-0.97,6.29-2.9,8.13s-4.73,2.75-8.4,2.75h-7.36C227.99,483.15,227.49,483,227.2,482.7z
			 M236.34,477.71c1.19,0,2.05-0.39,2.58-1.18c0.52-0.79,0.78-2.21,0.78-4.26s-0.26-3.47-0.78-4.26c-0.52-0.79-1.38-1.18-2.58-1.18
			h-1.89v10.88H236.34z"/>
		<path d="M246.87,482.48c0-0.19,0.05-0.43,0.16-0.7l7.97-19.17c0.19-0.45,0.41-0.76,0.66-0.94c0.24-0.18,0.59-0.27,1.04-0.27h3.49
			c0.45,0,0.79,0.09,1.04,0.27c0.25,0.18,0.46,0.5,0.66,0.94l7.94,19.17c0.11,0.28,0.16,0.51,0.16,0.7c0,0.45-0.23,0.67-0.7,0.67
			h-6.02c-0.66,0-1.08-0.29-1.25-0.86l-0.77-2.37h-5.66l-0.74,2.37c-0.17,0.58-0.59,0.86-1.25,0.86h-6.02
			C247.1,483.15,246.87,482.93,246.87,482.48z M259.67,474.86l-1.25-3.97l-1.25,3.97H259.67z"/>
		<path d="M274.19,483.02c-1.66-0.41-3.01-0.97-4.03-1.7c-0.43-0.3-0.64-0.59-0.64-0.86c0-0.19,0.07-0.39,0.22-0.61l1.86-2.91
			c0.19-0.28,0.38-0.42,0.58-0.42c0.17,0,0.37,0.08,0.61,0.22c0.77,0.47,1.65,0.84,2.64,1.1s1.96,0.4,2.9,0.4
			c0.79,0,1.36-0.11,1.71-0.32s0.53-0.54,0.53-0.99c0-0.49-0.23-0.88-0.7-1.18c-0.47-0.3-1.28-0.67-2.43-1.12
			c-2.15-0.83-3.85-1.78-5.09-2.83c-1.24-1.06-1.86-2.46-1.86-4.21c0-2.22,0.77-3.89,2.32-5.01c1.55-1.12,3.63-1.68,6.26-1.68
			c1.83,0,3.4,0.16,4.69,0.48c1.29,0.32,2.42,0.82,3.38,1.5c0.43,0.3,0.64,0.59,0.64,0.86c0,0.19-0.08,0.39-0.22,0.61l-1.86,2.91
			c-0.19,0.3-0.38,0.45-0.58,0.45c-0.13,0-0.33-0.08-0.61-0.26c-0.51-0.34-1.12-0.62-1.82-0.85c-0.7-0.22-1.46-0.34-2.27-0.34
			c-0.75,0-1.31,0.11-1.7,0.32c-0.38,0.21-0.58,0.55-0.58,1.02c0,0.38,0.13,0.7,0.4,0.96c0.27,0.26,0.6,0.47,1.01,0.66
			c0.41,0.18,1.11,0.48,2.11,0.88c1.6,0.64,2.86,1.25,3.78,1.84c0.92,0.59,1.61,1.29,2.08,2.11c0.47,0.82,0.7,1.86,0.7,3.12
			c0,1.92-0.72,3.47-2.16,4.66c-1.44,1.18-3.59,1.78-6.45,1.78C277.66,483.63,275.86,483.43,274.19,483.02z"/>
		<path d="M127.78,521.1c-0.29-0.3-0.43-0.76-0.43-1.38v-5.79l-7.46-12.77c-0.13-0.23-0.19-0.46-0.19-0.67c0-0.47,0.24-0.7,0.74-0.7
			h6.02c0.32,0,0.56,0.07,0.74,0.21c0.17,0.14,0.34,0.36,0.51,0.66l3.49,6.27l3.49-6.27c0.17-0.3,0.34-0.52,0.51-0.66
			c0.17-0.14,0.42-0.21,0.74-0.21h6.02c0.49,0,0.74,0.23,0.74,0.7c0,0.21-0.06,0.44-0.19,0.67l-7.46,12.77v5.79
			c0,0.62-0.14,1.08-0.43,1.38c-0.29,0.3-0.8,0.45-1.52,0.45h-3.81C128.56,521.55,128.07,521.4,127.78,521.1z"/>
		<path d="M153.27,520.88c0-0.19,0.05-0.43,0.16-0.7l7.97-19.17c0.19-0.45,0.41-0.76,0.66-0.94c0.24-0.18,0.59-0.27,1.04-0.27h3.49
			c0.45,0,0.79,0.09,1.04,0.27c0.25,0.18,0.46,0.5,0.66,0.94l7.94,19.17c0.11,0.28,0.16,0.51,0.16,0.7c0,0.45-0.23,0.67-0.7,0.67
			h-6.02c-0.66,0-1.08-0.29-1.25-0.86l-0.77-2.37h-5.66l-0.74,2.37c-0.17,0.58-0.59,0.86-1.25,0.86h-6.02
			C153.5,521.55,153.27,521.33,153.27,520.88z M166.07,513.26l-1.25-3.97l-1.25,3.97H166.07z"/>
		<path d="M180.56,519.17c-2.15-1.91-3.23-4.74-3.23-8.5c0-3.73,1.08-6.56,3.23-8.48s5.16-2.88,9.02-2.88c1.75,0,3.32,0.17,4.7,0.51
			c1.39,0.34,2.54,0.82,3.46,1.44c0.26,0.19,0.38,0.41,0.38,0.64c0,0.19-0.1,0.46-0.29,0.8l-1.6,2.75c-0.17,0.3-0.37,0.45-0.61,0.45
			c-0.15,0-0.4-0.08-0.74-0.26c-1.28-0.64-2.69-0.96-4.22-0.96c-1.77,0-3.16,0.51-4.18,1.52c-1.01,1.01-1.52,2.5-1.52,4.46
			c0,2.03,0.43,3.53,1.28,4.5c0.85,0.97,2.12,1.46,3.81,1.46c0.3,0,0.63-0.03,1.01-0.08c0.37-0.05,0.68-0.11,0.91-0.18v-2.91h-2.05
			c-0.68,0-1.15-0.13-1.39-0.4c-0.25-0.27-0.37-0.72-0.37-1.36v-1.76c0-0.64,0.12-1.09,0.37-1.36s0.71-0.4,1.39-0.4h6.88
			c0.83,0,1.41,0.19,1.73,0.56c0.32,0.37,0.48,0.97,0.48,1.78V518c0,0.47-0.06,0.83-0.18,1.07c-0.12,0.25-0.35,0.5-0.69,0.75
			c-2.05,1.47-4.9,2.21-8.54,2.21C185.73,522.03,182.72,521.08,180.56,519.17z"/>
		<path d="M201.06,521.1c-0.29-0.3-0.43-0.76-0.43-1.38v-18.11c0-0.62,0.14-1.08,0.43-1.38c0.29-0.3,0.78-0.45,1.49-0.45h13.25
			c0.68,0,1.15,0.14,1.39,0.43c0.24,0.29,0.37,0.75,0.37,1.39v1.79c0,0.64-0.12,1.1-0.37,1.39c-0.25,0.29-0.71,0.43-1.39,0.43h-7.49
			v2.75h4.61c0.68,0,1.15,0.14,1.39,0.43s0.37,0.75,0.37,1.39v1.73c0,0.64-0.12,1.1-0.37,1.39s-0.71,0.43-1.39,0.43h-4.61v2.75h7.46
			c0.68,0,1.15,0.14,1.39,0.43c0.25,0.29,0.37,0.75,0.37,1.39v1.79c0,0.64-0.12,1.1-0.37,1.39c-0.25,0.29-0.71,0.43-1.39,0.43
			h-13.22C201.84,521.55,201.35,521.4,201.06,521.1z"/>
		<path d="M219.42,521.1c-0.29-0.3-0.43-0.76-0.43-1.38v-18.14c0-0.62,0.14-1.07,0.43-1.36c0.29-0.29,0.79-0.43,1.52-0.43h3.04
			c0.45,0,0.79,0.06,1.04,0.18s0.49,0.35,0.72,0.69l5.79,8.61v-7.65c0-0.62,0.14-1.08,0.43-1.38c0.29-0.3,0.78-0.45,1.49-0.45h3.81
			c0.73,0,1.23,0.14,1.52,0.43s0.43,0.75,0.43,1.39v18.14c0,0.62-0.14,1.07-0.43,1.36s-0.79,0.43-1.52,0.43h-3.04
			c-0.45,0-0.79-0.06-1.04-0.18c-0.25-0.12-0.49-0.35-0.72-0.69l-5.79-8.61v7.68c0,0.62-0.14,1.07-0.43,1.36
			c-0.29,0.29-0.79,0.43-1.52,0.43h-3.81C220.21,521.55,219.71,521.4,219.42,521.1z"/>
		<path d="M246.98,521.1c-0.29-0.3-0.43-0.76-0.43-1.38v-14.5h-4.61c-0.68,0-1.15-0.14-1.39-0.43s-0.37-0.75-0.37-1.39v-1.79
			c0-0.64,0.12-1.1,0.37-1.39s0.71-0.43,1.39-0.43h16.9c0.68,0,1.15,0.14,1.39,0.43c0.24,0.29,0.37,0.75,0.37,1.39v1.79
			c0,0.64-0.12,1.1-0.37,1.39c-0.25,0.29-0.71,0.43-1.39,0.43h-4.61v14.5c0,0.62-0.14,1.08-0.43,1.38c-0.29,0.3-0.79,0.45-1.52,0.45
			h-3.81C247.76,521.55,247.27,521.4,246.98,521.1z"/>
		<path d="M261.98,521.1c-0.29-0.3-0.43-0.76-0.43-1.38v-18.11c0-0.62,0.14-1.08,0.43-1.38c0.29-0.3,0.78-0.45,1.49-0.45h13.25
			c0.68,0,1.15,0.14,1.39,0.43c0.24,0.29,0.37,0.75,0.37,1.39v1.79c0,0.64-0.12,1.1-0.37,1.39c-0.25,0.29-0.71,0.43-1.39,0.43h-7.49
			v2.75h4.61c0.68,0,1.15,0.14,1.39,0.43s0.37,0.75,0.37,1.39v1.73c0,0.64-0.12,1.1-0.37,1.39s-0.71,0.43-1.39,0.43h-4.61v2.75h7.46
			c0.68,0,1.15,0.14,1.39,0.43c0.25,0.29,0.37,0.75,0.37,1.39v1.79c0,0.64-0.12,1.1-0.37,1.39c-0.25,0.29-0.71,0.43-1.39,0.43
			h-13.22C262.77,521.55,262.27,521.4,261.98,521.1z"/>
		<path d="M283.98,521.42c-1.66-0.41-3.01-0.97-4.03-1.7c-0.43-0.3-0.64-0.59-0.64-0.86c0-0.19,0.07-0.39,0.22-0.61l1.86-2.91
			c0.19-0.28,0.38-0.42,0.58-0.42c0.17,0,0.37,0.08,0.61,0.22c0.77,0.47,1.65,0.84,2.64,1.1s1.96,0.4,2.9,0.4
			c0.79,0,1.36-0.11,1.71-0.32s0.53-0.54,0.53-0.99c0-0.49-0.23-0.88-0.7-1.18c-0.47-0.3-1.28-0.67-2.43-1.12
			c-2.15-0.83-3.85-1.78-5.09-2.83c-1.24-1.06-1.86-2.46-1.86-4.21c0-2.22,0.77-3.89,2.32-5.01c1.55-1.12,3.63-1.68,6.26-1.68
			c1.83,0,3.4,0.16,4.69,0.48c1.29,0.32,2.42,0.82,3.38,1.5c0.43,0.3,0.64,0.59,0.64,0.86c0,0.19-0.08,0.39-0.22,0.61l-1.86,2.91
			c-0.19,0.3-0.38,0.45-0.58,0.45c-0.13,0-0.33-0.08-0.61-0.26c-0.51-0.34-1.12-0.62-1.82-0.85c-0.7-0.22-1.46-0.34-2.27-0.34
			c-0.75,0-1.31,0.11-1.7,0.32c-0.38,0.21-0.58,0.55-0.58,1.02c0,0.38,0.13,0.7,0.4,0.96c0.27,0.26,0.6,0.47,1.01,0.66
			c0.41,0.18,1.11,0.48,2.11,0.88c1.6,0.64,2.86,1.25,3.78,1.84c0.92,0.59,1.61,1.29,2.08,2.11c0.47,0.82,0.7,1.86,0.7,3.12
			c0,1.92-0.72,3.47-2.16,4.66c-1.44,1.18-3.59,1.78-6.45,1.78C287.45,522.03,285.65,521.83,283.98,521.42z"/>
	</g>
	<polygon class="st6" points="201.76,88.93 215.23,116.22 245.34,120.59 223.55,141.83 228.7,171.83 201.76,157.67 174.83,171.83 
		179.97,141.83 158.18,120.59 188.29,116.22 	"/>
	<polygon class="st6" points="139.58,172.15 148.32,189.86 167.86,192.7 153.72,206.48 157.06,225.94 139.58,216.75 122.11,225.94 
		125.45,206.48 111.31,192.7 130.85,189.86 	"/>
	<polygon class="st6" points="269.68,172.15 278.42,189.86 297.95,192.7 283.82,206.48 287.15,225.94 269.68,216.75 252.2,225.94 
		255.54,206.48 241.4,192.7 260.94,189.86 	"/>
	<circle class="st7" cx="202.77" cy="205.97" r="121.96"/>
	<circle class="st1" cx="201.82" cy="192.58" r="121.96"/>
	<g>
		<path class="st1" d="M196.05,635.3c-0.63-0.56-0.95-1.54-0.95-2.96v-5.69h-17.59c-1.75,0-2.63-0.85-2.63-2.55v-6.72
			c0-1.12,0.1-1.95,0.29-2.48c0.19-0.54,0.66-1.24,1.39-2.12l19.86-23.94c0.83-0.97,1.51-1.61,2.04-1.9
			c0.54-0.29,1.46-0.44,2.77-0.44h7.01c1.61,0,2.74,0.34,3.39,1.02c0.66,0.68,0.99,1.73,0.99,3.14v23.58h2.77
			c1.56,0,2.62,0.33,3.18,0.99c0.56,0.66,0.84,1.71,0.84,3.17v4.09c0,1.46-0.28,2.52-0.84,3.18c-0.56,0.66-1.62,0.99-3.18,0.99
			h-2.77v5.69c0,1.41-0.33,2.4-0.99,2.96c-0.66,0.56-1.81,0.84-3.47,0.84h-8.69C197.82,636.14,196.68,635.86,196.05,635.3z
			 M198.97,614.24v-9.56l-7.01,9.56H198.97z"/>
	</g>
	<g>
		<g>
			<circle id="XMLID_50_" class="st3" cx="157.76" cy="157.93" r="34.02"/>
			<g id="XMLID_26_">
				<path id="XMLID_49_" class="st4" d="M167.22,156.59c0.44-1.08,0.67-1.93,0.71-2.16c-0.04-0.01-0.08-0.03-0.1-0.06
					c-0.07-0.1,0.14-1.2,0.04-1.28c-0.01-0.01-0.02-0.01-0.04-0.02c-0.12,0.39-0.35,0.71-0.62,0.94
					C167.23,154.85,167.23,155.72,167.22,156.59z"/>
				<path id="XMLID_48_" class="st21" d="M165.69,154.44c-0.5-0.36-0.49,4.74-2.58,6.76c-0.15,0.14-0.3,0.29-0.46,0.42
					c-0.16,0.14-0.33,0.27-0.49,0.4c0,0.07,0,0.14,0,0.21c1.93-0.56,3.29-2.27,4.13-3.74c0.38-0.66,0.68-1.31,0.92-1.9
					c0.01-0.88,0.01-1.74,0-2.59c-0.16,0.14-0.33,0.24-0.5,0.29C166.43,154.6,166.09,154.7,165.69,154.44z"/>
				<path id="XMLID_47_" class="st21" d="M149.45,168.01c-0.05,0.03-0.21,0.12-0.37,0.36C149.19,168.27,149.31,168.15,149.45,168.01
					z"/>
				<path id="XMLID_46_" class="st21" d="M162.18,162.5c0.05,1.12,0.27,2.59,1.19,3.93c0.3-0.27,0.47-0.33,0.58-0.14
					c0.68,1.14,1.38,1.75,1.77,2.14c-0.2-0.34-0.42-0.44-0.42-0.44s0.48-0.19,1.32,0.52c0.19,0.17,0.54,0.4,0.91,0.71
					c-0.44-2.18-0.35-7.12-0.31-11.98c-0.2,0.44-0.43,0.9-0.69,1.36C165.32,160.72,163.83,162.04,162.18,162.5z"/>
				<path id="XMLID_45_" class="st21" d="M149.46,168c0.38-0.39,0.87-0.92,1.33-1.71c0.11-0.19,0.28-0.13,0.6,0.16
					c1.06-1.55,1.21-3.28,1.21-4.43c-0.33-0.26-0.65-0.53-0.95-0.82c-2.09-2.02-2.07-7.12-2.58-6.76c-0.39,0.26-0.73,0.17-1.02-0.12
					c-0.1-0.03-0.21-0.08-0.31-0.14c-0.02,5.57,0.22,12.1-0.26,14.87c0.28-0.21,0.52-0.38,0.67-0.51
					C148.94,167.85,149.42,167.98,149.46,168z"/>
				<path id="XMLID_44_" class="st22" d="M161.74,162.33c0.15-0.03,0.29-0.06,0.43-0.1c0-0.07,0-0.15,0-0.21
					C162.02,162.12,161.88,162.23,161.74,162.33z"/>
				<path id="XMLID_43_" class="st22" d="M157.31,171.8c0.03,0.03,0.05,0.06,0.06,0.1c0.01-0.04,0.02-0.07,0.06-0.1
					c3.65-2.79,5.2-4.71,5.94-5.36c-0.91-1.34-1.14-2.81-1.19-3.93c-0.3,0.08-0.61,0.14-0.92,0.16c-0.09,0.39-0.49,1.1-1.83,1.08
					c-0.28,0-0.51-0.04-0.7-0.09c-0.2,0.04-0.41,0.07-0.61,0.09c-0.62,0.06-1.26,0.04-1.87-0.05c-0.51-0.08-1-0.22-1.48-0.4
					c-0.54-0.21-1.04-0.48-1.52-0.8c-0.22-0.15-0.43-0.31-0.63-0.47c-0.01,1.16-0.15,2.89-1.21,4.43
					C152.13,167.12,153.69,169.03,157.31,171.8z"/>
				<path id="XMLID_42_" class="st22" d="M157.37,171.98c0,0.01,0,0.01,0,0.02h0.01C157.37,171.99,157.37,171.99,157.37,171.98z"/>
				<path id="XMLID_41_" class="st23" d="M154.76,163.29c0.48,0.19,0.97,0.32,1.48,0.4c0.62,0.1,1.25,0.12,1.87,0.05
					c0.21-0.02,0.41-0.06,0.61-0.09c-0.89-0.25-0.96-0.96-0.98-1.19c0.03-0.29,0.14-1.27,1.71-1.25c1.43,0.01,1.77,0.83,1.82,1.19
					c0.16-0.01,0.32-0.04,0.47-0.07c0.14-0.1,0.28-0.21,0.42-0.32c0.17-0.13,0.33-0.26,0.49-0.4c0.16-0.14,0.31-0.28,0.46-0.42
					c2.09-2.02,2.07-7.12,2.58-6.76c0.4,0.27,0.74,0.16,1.04-0.14c-0.24,0.09-0.48,0.09-0.65-0.01c-0.28-0.18,0.01-1.6,0.22-3.79
					c-0.03,0.01-0.06,0.02-0.09,0.04c-0.4,0.25-0.89-3.14-2.8-4.73c-1.91-1.59-2.06-2.66-2.06-2.66c-1.91,0.22-3.78,0.91-6.93,3.41
					c-2.49,1.98-4.72,3.96-5.72,4.23c-0.09,0.02-0.15-0.08-0.23-0.21c0.2,2.14,0.49,3.53,0.21,3.71c-0.16,0.1-0.38,0.1-0.61,0.03
					c0.29,0.29,0.63,0.39,1.02,0.12c0.5-0.36,0.49,4.74,2.58,6.76c0.3,0.29,0.62,0.56,0.95,0.82c0.21,0.16,0.41,0.33,0.63,0.47
					C153.71,162.81,154.22,163.08,154.76,163.29z"/>
				<path id="XMLID_40_" class="st21" d="M147.67,146.78c0.09-1.87,1.81-8.64,9.7-8.64c7.89,0,9.61,6.77,9.7,8.64
					c0.06,1.21-0.06,1.91,0.04,2.33c0.04-0.41,0.06-0.93,0.06-1.63c0-3.57-1.45-7.24-3.78-7.86c-1.12-0.29-1.27-1.39-3.76-2.13
					c-3.99-1.19-8.49,0.46-10.79,4.29c-1.61,2.68-1.69,6.44-1.53,7.75C147.87,149.23,147.58,148.55,147.67,146.78z"/>
				<path id="XMLID_39_" class="st21" d="M148.68,150.79c1-0.27,3.23-2.24,5.72-4.23c3.15-2.51,5.02-3.2,6.93-3.41
					c0,0,0.15,1.07,2.06,2.66c1.91,1.59,2.4,4.98,2.8,4.73c0.03-0.02,0.06-0.03,0.09-0.04c0.02-0.22,0.04-0.45,0.06-0.69
					c0.2-2.58,0.17-3.42-0.08-4.35c-1.95-7.19-8.9-6.68-8.9-6.68s-6.71-0.63-8.86,6.57c-0.29,0.95-0.31,1.89-0.12,4.47
					c0.02,0.27,0.04,0.53,0.07,0.78C148.53,150.72,148.59,150.82,148.68,150.79z"/>
				<path id="XMLID_38_" class="st24" d="M148.66,154.29c0.28-0.17,0-1.57-0.21-3.71c-0.02-0.25-0.05-0.51-0.07-0.78
					c-0.2-2.58-0.17-3.51,0.12-4.47c2.16-7.2,8.86-6.57,8.86-6.57s6.95-0.51,8.9,6.68c0.25,0.94,0.28,1.78,0.08,4.35
					c-0.02,0.24-0.04,0.47-0.06,0.69c-0.2,2.18-0.5,3.61-0.22,3.79c0.17,0.11,0.41,0.1,0.65,0.01c0.17-0.06,0.34-0.16,0.5-0.29
					c0.27-0.23,0.49-0.55,0.62-0.94c-0.1-0.03-0.24,0.06-0.33-0.11c-0.09-0.2-0.04-1.07,0.03-1.26c0.08-0.19,0.16-0.28,0.46-0.22
					c0.02,0,0.03,0.01,0.05,0.02c0.04-0.88-0.07-1.73-0.54-1.91c-0.25-0.1-0.36-0.24-0.42-0.47c-0.1-0.42,0.02-1.12-0.04-2.33
					c-0.09-1.87-1.81-8.64-9.7-8.64c-7.89,0-9.61,6.77-9.7,8.64c-0.09,1.77,0.21,2.45-0.36,2.75c-0.03,0.02-0.06,0.04-0.09,0.05
					c-0.71,0.27-0.59,2.1-0.39,3.23c0.11,0.63,0.5,1.11,0.92,1.36c0.1,0.06,0.21,0.11,0.31,0.14
					C148.28,154.38,148.5,154.39,148.66,154.29z"/>
				<path id="XMLID_37_" class="st25" d="M167.55,151.69c-0.08,0.19-0.13,1.07-0.03,1.26c0.08,0.17,0.23,0.08,0.33,0.11
					c0.01,0,0.03,0.01,0.04,0.02c0.1,0.08-0.11,1.18-0.04,1.28c0.02,0.03,0.06,0.05,0.1,0.06c-0.05,0.23-0.27,1.08-0.71,2.16
					c-0.24,0.59-0.55,1.24-0.92,1.9c-0.84,1.47-2.2,3.18-4.13,3.74c-0.14,0.04-0.28,0.08-0.43,0.1c-0.15,0.03-0.31,0.05-0.47,0.07
					c-0.05-0.36-0.39-1.18-1.82-1.19c-1.57-0.02-1.68,0.96-1.71,1.25c0.02,0.24,0.09,0.94,0.98,1.19c0.19,0.05,0.42,0.09,0.7,0.09
					c1.34,0.01,1.74-0.7,1.83-1.08c0.31-0.03,0.62-0.08,0.92-0.16c1.65-0.46,3.14-1.78,4.35-3.89c0.26-0.46,0.49-0.92,0.69-1.36
					c0.63-1.4,0.95-2.6,0.98-2.83c0.02-0.01,0.04-0.01,0.05-0.02c0.11-0.07,0.19-0.8,0.26-1.62c0.06-0.78-0.18-1.21-0.45-1.29
					c-0.02,0-0.03-0.01-0.05-0.02C167.71,151.42,167.63,151.51,167.55,151.69z"/>
				<path id="XMLID_36_" class="st26" d="M155.98,177.82c-0.57-1.28-1.21-2.01-1.27-3.07c-0.42,0.52-0.71,1.06-0.67,1.57
					c0.16,1.69-4.83-4.09-5.31-6.87c-0.09,0.53-0.09,1.64,1.45,3.83c1.04,1.48,3.48,5.68,5.26,9.46c0.35-2.28,0.64-4.03,0.76-4.68
					C156.11,177.98,156.03,177.91,155.98,177.82z"/>
				<path id="XMLID_35_" class="st26" d="M160.69,176.31c0.05-0.51-0.24-1.04-0.67-1.57c-0.06,1.07-0.7,1.79-1.27,3.07
					c-0.04,0.09-0.13,0.17-0.22,0.22c0.12,0.68,0.43,2.55,0.8,4.96c1.73-3.84,4.18-8.22,5.24-9.73c1.62-2.29,1.53-3.4,1.44-3.9
					C165.61,172.11,160.52,178.01,160.69,176.31z"/>
				<path id="XMLID_34_" class="st26" d="M149.56,174.9c0,0,0.01,0.01,0.01,0.01l0.01-0.01C149.58,174.9,149.57,174.9,149.56,174.9z
					"/>
				<path id="XMLID_33_" class="st27" d="M158.75,177.82c0.57-1.28,1.21-2.01,1.27-3.07c-0.94-1.16-2.53-2.23-2.65-2.74h-0.01
					c-0.12,0.51-1.71,1.59-2.65,2.74c0.06,1.07,0.7,1.79,1.27,3.07c0.04,0.09,0.13,0.17,0.22,0.22c-0.12,0.66-0.4,2.41-0.76,4.68
					c1.06,2.25,1.88,4.34,2.03,5.62c0.15-1.22,0.88-3.2,1.84-5.34c-0.37-2.41-0.68-4.28-0.8-4.96
					C158.62,177.98,158.71,177.91,158.75,177.82z"/>
				<path id="XMLID_32_" class="st28" d="M163.94,166.29c-0.11-0.19-0.28-0.13-0.58,0.14c-0.74,0.65-2.29,2.57-5.94,5.36
					c-0.03,0.03-0.05,0.06-0.06,0.1c-0.01-0.04-0.02-0.07-0.06-0.1c-3.62-2.77-5.18-4.68-5.92-5.35c-0.31-0.28-0.48-0.35-0.6-0.16
					c-0.47,0.79-0.95,1.32-1.33,1.71c0,0,0.01,0,0.01,0s-0.01,0-0.02,0.01c-0.14,0.14-0.26,0.26-0.37,0.36
					c-0.11,0.17-0.22,0.42-0.28,0.78c-0.01,0.07-0.04,0.16-0.06,0.29c0.48,2.78,5.47,8.56,5.31,6.87c-0.05-0.51,0.24-1.04,0.67-1.57
					c0.94-1.16,2.53-2.23,2.65-2.74c0-0.01,0-0.01,0-0.02c0,0.01,0,0.01,0,0.02c0.12,0.51,1.71,1.59,2.65,2.74
					c0.42,0.52,0.71,1.06,0.67,1.57c-0.16,1.7,4.92-4.2,5.32-6.94c-0.02-0.09-0.04-0.16-0.05-0.21c-0.05-0.32-0.15-0.54-0.24-0.71
					C165.33,168.05,164.62,167.44,163.94,166.29z"/>
				<path id="XMLID_31_" class="st25" d="M177.43,173.41c-0.31-0.42-7.04-2.74-9.23-3.55c0.22,0.25,0.43,0.52,0.61,0.84
					c0.96,1.73,1.02,2.79,1.7,3.29c0.68,0.51-5.32,0.9-5.32,0.9l3.78,2.85c0,0-4.24,4.84-7.1,6.93c-0.89,0.65-3.69,3.24-4.37,4.36
					c0.16,0.75,0.43,1.88,0.49,2.33c0.03,0.2,0.05,0.38,0.07,0.57c5.22-0.06,10.15-1.29,14.55-3.45c0.13-2.61-0.32-12.88,4.62-15.06
					c0.1-0.05,0.22,0.06,0.35,0.29c0,0,0,0,0-0.01C177.53,173.61,177.49,173.5,177.43,173.41z"/>
				<path id="XMLID_30_" class="st29" d="M157.5,189.04L157.5,189.04c-0.8-0.7-3.71-3.71-4.6-4.36c-2.86-2.09-7.1-6.93-7.1-6.93
					l3.77-2.84c0,0-0.01-0.01-0.01-0.01c-0.39-0.03-5.96-0.41-5.3-0.9c0.68-0.51,0.73-1.57,1.7-3.29c0.19-0.34,0.42-0.64,0.67-0.9
					c-2.29,0.84-8.83,3.1-9.13,3.51c5.28,0.27,4.75,12.02,4.85,15c4.6,2.32,9.8,3.64,15.3,3.64c0.14,0,0.27-0.01,0.41-0.01
					c-0.02-0.19-0.05-0.38-0.07-0.57C157.93,190.92,157.65,189.79,157.5,189.04z"/>
				<path id="XMLID_29_" class="st30" d="M145.96,170.7c-0.96,1.73-1.02,2.79-1.7,3.29c-0.66,0.49,4.91,0.88,5.3,0.9
					c0.01,0,0.02,0,0.02,0l-0.01,0.01l-3.77,2.84c0,0,4.24,4.84,7.1,6.93c0.89,0.65,3.8,3.66,4.6,4.36l0,0
					c0.68-1.12,3.48-3.71,4.37-4.36c2.86-2.09,7.1-6.93,7.1-6.93l-3.78-2.85c0,0,6-0.39,5.32-0.9c-0.68-0.51-0.73-1.57-1.7-3.29
					c-0.18-0.32-0.39-0.59-0.61-0.84c-0.22-0.24-0.45-0.45-0.67-0.63c-0.37-0.31-0.72-0.54-0.91-0.71
					c-0.84-0.71-1.32-0.52-1.32-0.52s0.22,0.09,0.42,0.44c0.1,0.17,0.19,0.4,0.24,0.71c0.01,0.05,0.03,0.12,0.05,0.21
					c0.1,0.5,0.18,1.61-1.44,3.9c-1.07,1.51-3.52,5.89-5.24,9.73c-0.96,2.14-1.7,4.12-1.84,5.34c-0.15-1.28-0.98-3.37-2.03-5.62
					c-1.78-3.78-4.22-7.98-5.26-9.46c-1.54-2.18-1.54-3.3-1.45-3.83c0.02-0.13,0.05-0.22,0.06-0.29c0.06-0.35,0.17-0.6,0.28-0.78
					c0.15-0.24,0.31-0.34,0.37-0.36c0.01-0.01,0.02-0.01,0.02-0.01s-0.01,0-0.01,0c-0.04-0.01-0.52-0.15-1.31,0.53
					c-0.15,0.13-0.39,0.3-0.67,0.51c-0.27,0.21-0.57,0.46-0.85,0.77C146.38,170.07,146.15,170.36,145.96,170.7z"/>
				<path id="XMLID_28_" class="st30" d="M137.5,173.32c-0.3-0.02-1.3,4.6-2.31,10.16c2.16,1.9,4.56,3.53,7.16,4.84
					C142.25,185.34,142.77,173.59,137.5,173.32z"/>
				<path id="XMLID_27_" class="st30" d="M177.23,173.43c-4.93,2.18-4.49,12.45-4.62,15.06c2.66-1.31,5.13-2.95,7.34-4.88
					c-0.85-4.74-1.74-8.8-2.37-9.89C177.45,173.49,177.33,173.38,177.23,173.43z"/>
			</g>
		</g>
		<g>
			<g>
				<polygon class="st34" points="225.03,138.28 225.03,149.28 223.27,149.28 223.27,146.6 219.95,146.6 219.95,149.28 
					218.33,149.28 218.33,146.55 214.95,146.55 214.95,149.28 213.29,149.28 213.29,146.55 209.9,146.55 209.9,149.28 
					206.27,149.28 206.27,143.55 210.8,143.55 210.8,138.52 210.08,138.52 210.08,142.83 205.55,142.83 205.55,150 210.62,150 
					210.62,147.15 212.57,147.15 212.57,150 215.67,150 215.67,147.18 217.61,147.18 217.61,150 220.67,150 220.67,147.32 
					222.55,147.32 222.55,150 225.75,150 225.75,138.28 				"/>
			</g>
			<g>
				<path class="st35" d="M249.21,116.2H227.7h-0.56h-7.85h-0.43h-0.37c-0.38,0-0.69,0.31-0.69,0.69v24.45
					c0,0.38,0.31,0.69,0.69,0.69h0.37h0.43h7.85h0.56h21.51c0.38,0,0.69-0.31,0.69-0.69v-24.45
					C249.9,116.5,249.59,116.2,249.21,116.2z"/>
				<rect x="228.88" y="118.51" class="st1" width="18.52" height="5.7"/>
				<rect x="228.88" y="127.6" class="st34" width="2.89" height="2.89"/>
				<rect x="233.58" y="127.6" class="st34" width="2.89" height="2.89"/>
				<rect x="238.28" y="127.6" class="st34" width="2.89" height="2.89"/>
				<rect x="228.88" y="132.21" class="st34" width="2.89" height="2.89"/>
				<rect x="233.58" y="132.21" class="st34" width="2.89" height="2.89"/>
				<rect x="238.28" y="132.21" class="st34" width="2.89" height="2.89"/>
				<rect x="228.88" y="136.83" class="st34" width="2.89" height="2.89"/>
				<rect x="233.58" y="136.83" class="st34" width="2.89" height="2.89"/>
				<rect x="238.28" y="136.83" class="st34" width="2.89" height="2.89"/>
				<rect x="243.49" y="127.6" class="st1" width="3.91" height="2.89"/>
				<rect x="243.49" y="132.21" class="st1" width="3.91" height="2.89"/>
				<rect x="243.49" y="136.83" class="st1" width="3.91" height="2.89"/>
				<path class="st36" d="M226.24,139.01h-5.99c-0.42,0-0.76-0.34-0.76-0.76v-18.8c0-0.42,0.34-0.76,0.76-0.76h5.99
					c0.42,0,0.75,0.34,0.75,0.76v18.8C227,138.67,226.66,139.01,226.24,139.01z"/>
			</g>
			<path class="st34" d="M213.24,116.67v-6.22c0-0.52-0.42-0.94-0.94-0.94h-2.08h-3.76h-0.01c-0.52,0-0.94,0.42-0.94,0.94v27.82
				c0,0.52,0.42,0.94,0.94,0.94h0.01h3.76h2.08c0.52,0,0.94-0.42,0.94-0.94v-6.22c0-0.52-0.42-0.94-0.94-0.94h-1.15
				c-0.52,0-0.94-0.42-0.94-0.94v-11.65c0-0.52,0.42-0.94,0.94-0.94h1.15C212.82,117.6,213.24,117.18,213.24,116.67z"/>
		</g>
		<g>
			<g>
				<polygon class="st34" points="224.03,184.28 224.03,195.28 222.27,195.28 222.27,192.6 218.95,192.6 218.95,195.28 
					217.33,195.28 217.33,192.55 213.95,192.55 213.95,195.28 212.29,195.28 212.29,192.55 208.9,192.55 208.9,195.28 
					205.27,195.28 205.27,189.55 209.8,189.55 209.8,184.52 209.08,184.52 209.08,188.83 204.55,188.83 204.55,196 209.62,196 
					209.62,193.15 211.57,193.15 211.57,196 214.67,196 214.67,193.18 216.61,193.18 216.61,196 219.67,196 219.67,193.32 
					221.55,193.32 221.55,196 224.75,196 224.75,184.28 				"/>
			</g>
			<g>
				<path class="st35" d="M248.21,162.2H226.7h-0.56h-7.85h-0.43h-0.37c-0.38,0-0.69,0.31-0.69,0.69v24.45
					c0,0.38,0.31,0.69,0.69,0.69h0.37h0.43h7.85h0.56h21.51c0.38,0,0.69-0.31,0.69-0.69v-24.45
					C248.9,162.5,248.59,162.2,248.21,162.2z"/>
				<rect x="227.88" y="164.51" class="st1" width="18.52" height="5.7"/>
				<rect x="227.88" y="173.6" class="st34" width="2.89" height="2.89"/>
				<rect x="232.58" y="173.6" class="st34" width="2.89" height="2.89"/>
				<rect x="237.28" y="173.6" class="st34" width="2.89" height="2.89"/>
				<rect x="227.88" y="178.21" class="st34" width="2.89" height="2.89"/>
				<rect x="232.58" y="178.21" class="st34" width="2.89" height="2.89"/>
				<rect x="237.28" y="178.21" class="st34" width="2.89" height="2.89"/>
				<rect x="227.88" y="182.83" class="st34" width="2.89" height="2.89"/>
				<rect x="232.58" y="182.83" class="st34" width="2.89" height="2.89"/>
				<rect x="237.28" y="182.83" class="st34" width="2.89" height="2.89"/>
				<rect x="242.49" y="173.6" class="st1" width="3.91" height="2.89"/>
				<rect x="242.49" y="178.21" class="st1" width="3.91" height="2.89"/>
				<rect x="242.49" y="182.83" class="st1" width="3.91" height="2.89"/>
				<path class="st36" d="M225.24,185.01h-5.99c-0.42,0-0.76-0.34-0.76-0.76v-18.8c0-0.42,0.34-0.76,0.76-0.76h5.99
					c0.42,0,0.75,0.34,0.75,0.76v18.8C226,184.67,225.66,185.01,225.24,185.01z"/>
			</g>
			<path class="st34" d="M212.24,162.67v-6.22c0-0.52-0.42-0.94-0.94-0.94h-2.08h-3.76h-0.01c-0.52,0-0.94,0.42-0.94,0.94v27.82
				c0,0.52,0.42,0.94,0.94,0.94h0.01h3.76h2.08c0.52,0,0.94-0.42,0.94-0.94v-6.22c0-0.52-0.42-0.94-0.94-0.94h-1.15
				c-0.52,0-0.94-0.42-0.94-0.94v-11.65c0-0.52,0.42-0.94,0.94-0.94h1.15C211.82,163.6,212.24,163.18,212.24,162.67z"/>
		</g>
		<line class="st37" x1="186" y1="134" x2="200" y2="128"/>
		<line class="st37" x1="200" y1="178" x2="190" y2="174"/>
		<g>
			<g>
				<circle id="XMLID_75_" class="st3" cx="159.76" cy="243.93" r="34.02"/>
				<g id="XMLID_51_">
					<path id="XMLID_74_" class="st4" d="M169.22,242.59c0.44-1.08,0.67-1.93,0.71-2.16c-0.04-0.01-0.08-0.03-0.1-0.06
						c-0.07-0.1,0.14-1.2,0.04-1.28c-0.01-0.01-0.02-0.01-0.04-0.02c-0.12,0.39-0.35,0.71-0.62,0.94
						C169.23,240.85,169.23,241.72,169.22,242.59z"/>
					<path id="XMLID_73_" class="st21" d="M167.69,240.44c-0.5-0.36-0.49,4.74-2.58,6.76c-0.15,0.14-0.3,0.29-0.46,0.42
						c-0.16,0.14-0.33,0.27-0.49,0.4c0,0.07,0,0.14,0,0.21c1.93-0.56,3.29-2.27,4.13-3.74c0.38-0.66,0.68-1.31,0.92-1.9
						c0.01-0.88,0.01-1.74,0-2.59c-0.16,0.14-0.33,0.24-0.5,0.29C168.43,240.6,168.09,240.7,167.69,240.44z"/>
					<path id="XMLID_72_" class="st21" d="M151.45,254.01c-0.05,0.03-0.21,0.12-0.37,0.36
						C151.19,254.27,151.31,254.15,151.45,254.01z"/>
					<path id="XMLID_71_" class="st21" d="M164.18,248.5c0.05,1.12,0.27,2.59,1.19,3.93c0.3-0.27,0.47-0.33,0.58-0.14
						c0.68,1.14,1.38,1.75,1.77,2.14c-0.2-0.34-0.42-0.44-0.42-0.44s0.48-0.19,1.32,0.52c0.19,0.17,0.54,0.4,0.91,0.71
						c-0.44-2.18-0.35-7.12-0.31-11.98c-0.2,0.44-0.43,0.9-0.69,1.36C167.32,246.72,165.83,248.04,164.18,248.5z"/>
					<path id="XMLID_70_" class="st21" d="M151.46,254c0.38-0.39,0.87-0.92,1.33-1.71c0.11-0.19,0.28-0.13,0.6,0.16
						c1.06-1.55,1.21-3.28,1.21-4.43c-0.33-0.26-0.65-0.53-0.95-0.82c-2.09-2.02-2.07-7.12-2.58-6.76
						c-0.39,0.26-0.73,0.17-1.02-0.12c-0.1-0.03-0.21-0.08-0.31-0.14c-0.02,5.57,0.22,12.1-0.26,14.87
						c0.28-0.21,0.52-0.38,0.67-0.51C150.94,253.85,151.42,253.98,151.46,254z"/>
					<path id="XMLID_69_" class="st22" d="M163.74,248.33c0.15-0.03,0.29-0.06,0.43-0.1c0-0.07,0-0.15,0-0.21
						C164.02,248.12,163.88,248.23,163.74,248.33z"/>
					<path id="XMLID_68_" class="st22" d="M159.31,257.8c0.03,0.03,0.05,0.06,0.06,0.1c0.01-0.04,0.02-0.07,0.06-0.1
						c3.65-2.79,5.2-4.71,5.94-5.36c-0.91-1.34-1.14-2.81-1.19-3.93c-0.3,0.08-0.61,0.14-0.92,0.16c-0.09,0.39-0.49,1.1-1.83,1.08
						c-0.28,0-0.51-0.04-0.7-0.09c-0.2,0.04-0.41,0.07-0.61,0.09c-0.62,0.06-1.26,0.04-1.87-0.05c-0.51-0.08-1-0.22-1.48-0.4
						c-0.54-0.21-1.04-0.48-1.52-0.8c-0.22-0.15-0.43-0.31-0.63-0.47c-0.01,1.16-0.15,2.89-1.21,4.43
						C154.13,253.12,155.69,255.03,159.31,257.8z"/>
					<path id="XMLID_67_" class="st22" d="M159.37,257.98c0,0.01,0,0.01,0,0.02h0.01C159.37,257.99,159.37,257.99,159.37,257.98z"/>
					<path id="XMLID_66_" class="st23" d="M156.76,249.29c0.48,0.19,0.97,0.32,1.48,0.4c0.62,0.1,1.25,0.12,1.87,0.05
						c0.21-0.02,0.41-0.06,0.61-0.09c-0.89-0.25-0.96-0.96-0.98-1.19c0.03-0.29,0.14-1.27,1.71-1.25c1.43,0.01,1.77,0.83,1.82,1.19
						c0.16-0.01,0.32-0.04,0.47-0.07c0.14-0.1,0.28-0.21,0.42-0.32c0.17-0.13,0.33-0.26,0.49-0.4c0.16-0.14,0.31-0.28,0.46-0.42
						c2.09-2.02,2.07-7.12,2.58-6.76c0.4,0.27,0.74,0.16,1.04-0.14c-0.24,0.09-0.48,0.09-0.65-0.01c-0.28-0.18,0.01-1.6,0.22-3.79
						c-0.03,0.01-0.06,0.02-0.09,0.04c-0.4,0.25-0.89-3.14-2.8-4.73c-1.91-1.59-2.06-2.66-2.06-2.66c-1.91,0.22-3.78,0.91-6.93,3.41
						c-2.49,1.98-4.72,3.96-5.72,4.23c-0.09,0.02-0.15-0.08-0.23-0.21c0.2,2.14,0.49,3.53,0.21,3.71c-0.16,0.1-0.38,0.1-0.61,0.03
						c0.29,0.29,0.63,0.39,1.02,0.12c0.5-0.36,0.49,4.74,2.58,6.76c0.3,0.29,0.62,0.56,0.95,0.82c0.21,0.16,0.41,0.33,0.63,0.47
						C155.71,248.81,156.22,249.08,156.76,249.29z"/>
					<path id="XMLID_65_" class="st21" d="M149.67,232.78c0.09-1.87,1.81-8.64,9.7-8.64c7.89,0,9.61,6.77,9.7,8.64
						c0.06,1.21-0.06,1.91,0.04,2.33c0.04-0.41,0.06-0.93,0.06-1.63c0-3.57-1.45-7.24-3.78-7.86c-1.12-0.29-1.27-1.39-3.76-2.13
						c-3.99-1.19-8.49,0.46-10.79,4.29c-1.61,2.68-1.69,6.44-1.53,7.75C149.87,235.23,149.58,234.55,149.67,232.78z"/>
					<path id="XMLID_64_" class="st21" d="M150.68,236.79c1-0.27,3.23-2.24,5.72-4.23c3.15-2.51,5.02-3.2,6.93-3.41
						c0,0,0.15,1.07,2.06,2.66c1.91,1.59,2.4,4.98,2.8,4.73c0.03-0.02,0.06-0.03,0.09-0.04c0.02-0.22,0.04-0.45,0.06-0.69
						c0.2-2.58,0.17-3.42-0.08-4.35c-1.95-7.19-8.9-6.68-8.9-6.68s-6.71-0.63-8.86,6.57c-0.29,0.95-0.31,1.89-0.12,4.47
						c0.02,0.27,0.04,0.53,0.07,0.78C150.53,236.72,150.59,236.82,150.68,236.79z"/>
					<path id="XMLID_63_" class="st24" d="M150.66,240.29c0.28-0.17,0-1.57-0.21-3.71c-0.02-0.25-0.05-0.51-0.07-0.78
						c-0.2-2.58-0.17-3.51,0.12-4.47c2.16-7.2,8.86-6.57,8.86-6.57s6.95-0.51,8.9,6.68c0.25,0.94,0.28,1.78,0.08,4.35
						c-0.02,0.24-0.04,0.47-0.06,0.69c-0.2,2.18-0.5,3.61-0.22,3.79c0.17,0.11,0.41,0.1,0.65,0.01c0.17-0.06,0.34-0.16,0.5-0.29
						c0.27-0.23,0.49-0.55,0.62-0.94c-0.1-0.03-0.24,0.06-0.33-0.11c-0.09-0.2-0.04-1.07,0.03-1.26c0.08-0.19,0.16-0.28,0.46-0.22
						c0.02,0,0.03,0.01,0.05,0.02c0.04-0.88-0.07-1.73-0.54-1.91c-0.25-0.1-0.36-0.24-0.42-0.47c-0.1-0.42,0.02-1.12-0.04-2.33
						c-0.09-1.87-1.81-8.64-9.7-8.64c-7.89,0-9.61,6.77-9.7,8.64c-0.09,1.77,0.21,2.45-0.36,2.75c-0.03,0.02-0.06,0.04-0.09,0.05
						c-0.71,0.27-0.59,2.1-0.39,3.23c0.11,0.63,0.5,1.11,0.92,1.36c0.1,0.06,0.21,0.11,0.31,0.14
						C150.28,240.38,150.5,240.39,150.66,240.29z"/>
					<path id="XMLID_62_" class="st25" d="M169.55,237.69c-0.08,0.19-0.13,1.07-0.03,1.26c0.08,0.17,0.23,0.08,0.33,0.11
						c0.01,0,0.03,0.01,0.04,0.02c0.1,0.08-0.11,1.18-0.04,1.28c0.02,0.03,0.06,0.05,0.1,0.06c-0.05,0.23-0.27,1.08-0.71,2.16
						c-0.24,0.59-0.55,1.24-0.92,1.9c-0.84,1.47-2.2,3.18-4.13,3.74c-0.14,0.04-0.28,0.08-0.43,0.1c-0.15,0.03-0.31,0.05-0.47,0.07
						c-0.05-0.36-0.39-1.18-1.82-1.19c-1.57-0.02-1.68,0.96-1.71,1.25c0.02,0.24,0.09,0.94,0.98,1.19c0.19,0.05,0.42,0.09,0.7,0.09
						c1.34,0.01,1.74-0.7,1.83-1.08c0.31-0.03,0.62-0.08,0.92-0.16c1.65-0.46,3.14-1.78,4.35-3.89c0.26-0.46,0.49-0.92,0.69-1.36
						c0.63-1.4,0.95-2.6,0.98-2.83c0.02-0.01,0.04-0.01,0.05-0.02c0.11-0.07,0.19-0.8,0.26-1.62c0.06-0.78-0.18-1.21-0.45-1.29
						c-0.02,0-0.03-0.01-0.05-0.02C169.71,237.42,169.63,237.51,169.55,237.69z"/>
					<path id="XMLID_61_" class="st26" d="M157.98,263.82c-0.57-1.28-1.21-2.01-1.27-3.07c-0.42,0.52-0.71,1.06-0.67,1.57
						c0.16,1.69-4.83-4.09-5.31-6.87c-0.09,0.53-0.09,1.64,1.45,3.83c1.04,1.48,3.48,5.68,5.26,9.46c0.35-2.28,0.64-4.03,0.76-4.68
						C158.11,263.98,158.03,263.91,157.98,263.82z"/>
					<path id="XMLID_60_" class="st26" d="M162.69,262.31c0.05-0.51-0.24-1.04-0.67-1.57c-0.06,1.07-0.7,1.79-1.27,3.07
						c-0.04,0.09-0.13,0.17-0.22,0.22c0.12,0.68,0.43,2.55,0.8,4.96c1.73-3.84,4.18-8.22,5.24-9.73c1.62-2.29,1.53-3.4,1.44-3.9
						C167.61,258.11,162.52,264.01,162.69,262.31z"/>
					<path id="XMLID_59_" class="st26" d="M151.56,260.9c0,0,0.01,0.01,0.01,0.01l0.01-0.01C151.58,260.9,151.57,260.9,151.56,260.9
						z"/>
					<path id="XMLID_58_" class="st27" d="M160.75,263.82c0.57-1.28,1.21-2.01,1.27-3.07c-0.94-1.16-2.53-2.23-2.65-2.74h-0.01
						c-0.12,0.51-1.71,1.59-2.65,2.74c0.06,1.07,0.7,1.79,1.27,3.07c0.04,0.09,0.13,0.17,0.22,0.22c-0.12,0.66-0.4,2.41-0.76,4.68
						c1.06,2.25,1.88,4.34,2.03,5.62c0.15-1.22,0.88-3.2,1.84-5.34c-0.37-2.41-0.68-4.28-0.8-4.96
						C160.62,263.98,160.71,263.91,160.75,263.82z"/>
					<path id="XMLID_57_" class="st28" d="M165.94,252.29c-0.11-0.19-0.28-0.13-0.58,0.14c-0.74,0.65-2.29,2.57-5.94,5.36
						c-0.03,0.03-0.05,0.06-0.06,0.1c-0.01-0.04-0.02-0.07-0.06-0.1c-3.62-2.77-5.18-4.68-5.92-5.35c-0.31-0.28-0.48-0.35-0.6-0.16
						c-0.47,0.79-0.95,1.32-1.33,1.71c0,0,0.01,0,0.01,0s-0.01,0-0.02,0.01c-0.14,0.14-0.26,0.26-0.37,0.36
						c-0.11,0.17-0.22,0.42-0.28,0.78c-0.01,0.07-0.04,0.16-0.06,0.29c0.48,2.78,5.47,8.56,5.31,6.87
						c-0.05-0.51,0.24-1.04,0.67-1.57c0.94-1.16,2.53-2.23,2.65-2.74c0-0.01,0-0.01,0-0.02c0,0.01,0,0.01,0,0.02
						c0.12,0.51,1.71,1.59,2.65,2.74c0.42,0.52,0.71,1.06,0.67,1.57c-0.16,1.7,4.92-4.2,5.32-6.94c-0.02-0.09-0.04-0.16-0.05-0.21
						c-0.05-0.32-0.15-0.54-0.24-0.71C167.33,254.05,166.62,253.44,165.94,252.29z"/>
					<path id="XMLID_56_" class="st25" d="M179.43,259.41c-0.31-0.42-7.04-2.74-9.23-3.55c0.22,0.25,0.43,0.52,0.61,0.84
						c0.96,1.73,1.02,2.79,1.7,3.29c0.68,0.51-5.32,0.9-5.32,0.9l3.78,2.85c0,0-4.24,4.84-7.1,6.93c-0.89,0.65-3.69,3.24-4.37,4.36
						c0.16,0.75,0.43,1.88,0.49,2.33c0.03,0.2,0.05,0.38,0.07,0.57c5.22-0.06,10.15-1.29,14.55-3.45
						c0.13-2.61-0.32-12.88,4.62-15.06c0.1-0.05,0.22,0.06,0.35,0.29c0,0,0,0,0-0.01C179.53,259.61,179.49,259.5,179.43,259.41z"/>
					<path id="XMLID_55_" class="st29" d="M159.5,275.04L159.5,275.04c-0.8-0.7-3.71-3.71-4.6-4.36c-2.86-2.09-7.1-6.93-7.1-6.93
						l3.77-2.84c0,0-0.01-0.01-0.01-0.01c-0.39-0.03-5.96-0.41-5.3-0.9c0.68-0.51,0.73-1.57,1.7-3.29c0.19-0.34,0.42-0.64,0.67-0.9
						c-2.29,0.84-8.83,3.1-9.13,3.51c5.28,0.27,4.75,12.02,4.85,15c4.6,2.32,9.8,3.64,15.3,3.64c0.14,0,0.27-0.01,0.41-0.01
						c-0.02-0.19-0.05-0.38-0.07-0.57C159.93,276.92,159.65,275.79,159.5,275.04z"/>
					<path id="XMLID_54_" class="st30" d="M147.96,256.7c-0.96,1.73-1.02,2.79-1.7,3.29c-0.66,0.49,4.91,0.88,5.3,0.9
						c0.01,0,0.02,0,0.02,0l-0.01,0.01l-3.77,2.84c0,0,4.24,4.84,7.1,6.93c0.89,0.65,3.8,3.66,4.6,4.36l0,0
						c0.68-1.12,3.48-3.71,4.37-4.36c2.86-2.09,7.1-6.93,7.1-6.93l-3.78-2.85c0,0,6-0.39,5.32-0.9c-0.68-0.51-0.73-1.57-1.7-3.29
						c-0.18-0.32-0.39-0.59-0.61-0.84c-0.22-0.24-0.45-0.45-0.67-0.63c-0.37-0.31-0.72-0.54-0.91-0.71
						c-0.84-0.71-1.32-0.52-1.32-0.52s0.22,0.09,0.42,0.44c0.1,0.17,0.19,0.4,0.24,0.71c0.01,0.05,0.03,0.12,0.05,0.21
						c0.1,0.5,0.18,1.61-1.44,3.9c-1.07,1.51-3.52,5.89-5.24,9.73c-0.96,2.14-1.7,4.12-1.84,5.34c-0.15-1.28-0.98-3.37-2.03-5.62
						c-1.78-3.78-4.22-7.98-5.26-9.46c-1.54-2.18-1.54-3.3-1.45-3.83c0.02-0.13,0.05-0.22,0.06-0.29c0.06-0.35,0.17-0.6,0.28-0.78
						c0.15-0.24,0.31-0.34,0.37-0.36c0.01-0.01,0.02-0.01,0.02-0.01s-0.01,0-0.01,0c-0.04-0.01-0.52-0.15-1.31,0.53
						c-0.15,0.13-0.39,0.3-0.67,0.51c-0.27,0.21-0.57,0.46-0.85,0.77C148.38,256.07,148.15,256.36,147.96,256.7z"/>
					<path id="XMLID_53_" class="st30" d="M139.5,259.32c-0.3-0.02-1.3,4.6-2.31,10.16c2.16,1.9,4.56,3.53,7.16,4.84
						C144.25,271.34,144.77,259.59,139.5,259.32z"/>
					<path id="XMLID_52_" class="st30" d="M179.23,259.43c-4.93,2.18-4.49,12.45-4.62,15.06c2.66-1.31,5.13-2.95,7.34-4.88
						c-0.85-4.74-1.74-8.8-2.37-9.89C179.45,259.49,179.33,259.38,179.23,259.43z"/>
				</g>
			</g>
			<g>
				<g>
					<polygon class="st34" points="225.03,241.28 225.03,252.28 223.27,252.28 223.27,249.6 219.95,249.6 219.95,252.28 
						218.33,252.28 218.33,249.55 214.95,249.55 214.95,252.28 213.29,252.28 213.29,249.55 209.9,249.55 209.9,252.28 
						206.27,252.28 206.27,246.55 210.8,246.55 210.8,241.52 210.08,241.52 210.08,245.83 205.55,245.83 205.55,253 210.62,253 
						210.62,250.15 212.57,250.15 212.57,253 215.67,253 215.67,250.18 217.61,250.18 217.61,253 220.67,253 220.67,250.32 
						222.55,250.32 222.55,253 225.75,253 225.75,241.28 					"/>
				</g>
				<g>
					<path class="st35" d="M249.21,219.2H227.7h-0.56h-7.85h-0.43h-0.37c-0.38,0-0.69,0.31-0.69,0.69v24.45
						c0,0.38,0.31,0.69,0.69,0.69h0.37h0.43h7.85h0.56h21.51c0.38,0,0.69-0.31,0.69-0.69v-24.45
						C249.9,219.5,249.59,219.2,249.21,219.2z"/>
					<rect x="228.88" y="221.51" class="st1" width="18.52" height="5.7"/>
					<rect x="228.88" y="230.6" class="st34" width="2.89" height="2.89"/>
					<rect x="233.58" y="230.6" class="st34" width="2.89" height="2.89"/>
					<rect x="238.28" y="230.6" class="st34" width="2.89" height="2.89"/>
					<rect x="228.88" y="235.21" class="st34" width="2.89" height="2.89"/>
					<rect x="233.58" y="235.21" class="st34" width="2.89" height="2.89"/>
					<rect x="238.28" y="235.21" class="st34" width="2.89" height="2.89"/>
					<rect x="228.88" y="239.83" class="st34" width="2.89" height="2.89"/>
					<rect x="233.58" y="239.83" class="st34" width="2.89" height="2.89"/>
					<rect x="238.28" y="239.83" class="st34" width="2.89" height="2.89"/>
					<rect x="243.49" y="230.6" class="st1" width="3.91" height="2.89"/>
					<rect x="243.49" y="235.21" class="st1" width="3.91" height="2.89"/>
					<rect x="243.49" y="239.83" class="st1" width="3.91" height="2.89"/>
					<path class="st36" d="M226.24,242.01h-5.99c-0.42,0-0.76-0.34-0.76-0.76v-18.8c0-0.42,0.34-0.76,0.76-0.76h5.99
						c0.42,0,0.75,0.34,0.75,0.76v18.8C227,241.67,226.66,242.01,226.24,242.01z"/>
				</g>
				<path class="st34" d="M213.24,219.67v-6.22c0-0.52-0.42-0.94-0.94-0.94h-2.08h-3.76h-0.01c-0.52,0-0.94,0.42-0.94,0.94v27.82
					c0,0.52,0.42,0.94,0.94,0.94h0.01h3.76h2.08c0.52,0,0.94-0.42,0.94-0.94v-6.22c0-0.52-0.42-0.94-0.94-0.94h-1.15
					c-0.52,0-0.94-0.42-0.94-0.94v-11.65c0-0.52,0.42-0.94,0.94-0.94h1.15C212.82,220.6,213.24,220.18,213.24,219.67z"/>
			</g>
			<g>
				<g>
					<polygon class="st34" points="224.03,287.28 224.03,298.28 222.27,298.28 222.27,295.6 218.95,295.6 218.95,298.28 
						217.33,298.28 217.33,295.55 213.95,295.55 213.95,298.28 212.29,298.28 212.29,295.55 208.9,295.55 208.9,298.28 
						205.27,298.28 205.27,292.55 209.8,292.55 209.8,287.52 209.08,287.52 209.08,291.83 204.55,291.83 204.55,299 209.62,299 
						209.62,296.15 211.57,296.15 211.57,299 214.67,299 214.67,296.18 216.61,296.18 216.61,299 219.67,299 219.67,296.32 
						221.55,296.32 221.55,299 224.75,299 224.75,287.28 					"/>
				</g>
				<g>
					<path class="st35" d="M248.21,265.2H226.7h-0.56h-7.85h-0.43h-0.37c-0.38,0-0.69,0.31-0.69,0.69v24.45
						c0,0.38,0.31,0.69,0.69,0.69h0.37h0.43h7.85h0.56h21.51c0.38,0,0.69-0.31,0.69-0.69v-24.45
						C248.9,265.5,248.59,265.2,248.21,265.2z"/>
					<rect x="227.88" y="267.51" class="st1" width="18.52" height="5.7"/>
					<rect x="227.88" y="276.6" class="st34" width="2.89" height="2.89"/>
					<rect x="232.58" y="276.6" class="st34" width="2.89" height="2.89"/>
					<rect x="237.28" y="276.6" class="st34" width="2.89" height="2.89"/>
					<rect x="227.88" y="281.21" class="st34" width="2.89" height="2.89"/>
					<rect x="232.58" y="281.21" class="st34" width="2.89" height="2.89"/>
					<rect x="237.28" y="281.21" class="st34" width="2.89" height="2.89"/>
					<rect x="227.88" y="285.83" class="st34" width="2.89" height="2.89"/>
					<rect x="232.58" y="285.83" class="st34" width="2.89" height="2.89"/>
					<rect x="237.28" y="285.83" class="st34" width="2.89" height="2.89"/>
					<rect x="242.49" y="276.6" class="st1" width="3.91" height="2.89"/>
					<rect x="242.49" y="281.21" class="st1" width="3.91" height="2.89"/>
					<rect x="242.49" y="285.83" class="st1" width="3.91" height="2.89"/>
					<path class="st36" d="M225.24,288.01h-5.99c-0.42,0-0.76-0.34-0.76-0.76v-18.8c0-0.42,0.34-0.76,0.76-0.76h5.99
						c0.42,0,0.75,0.34,0.75,0.76v18.8C226,287.67,225.66,288.01,225.24,288.01z"/>
				</g>
				<path class="st34" d="M212.24,265.67v-6.22c0-0.52-0.42-0.94-0.94-0.94h-2.08h-3.76h-0.01c-0.52,0-0.94,0.42-0.94,0.94v27.82
					c0,0.52,0.42,0.94,0.94,0.94h0.01h3.76h2.08c0.52,0,0.94-0.42,0.94-0.94v-6.22c0-0.52-0.42-0.94-0.94-0.94h-1.15
					c-0.52,0-0.94-0.42-0.94-0.94v-11.65c0-0.52,0.42-0.94,0.94-0.94h1.15C211.82,266.6,212.24,266.18,212.24,265.67z"/>
			</g>
			<line class="st37" x1="200" y1="272" x2="190" y2="268"/>
			<line class="st37" x1="190" y1="232" x2="200" y2="228"/>
		</g>
	</g>
</g>
</svg>
