<svg id="Capa_1" data-name="Capa 1" xmlns="http://www.w3.org/2000/svg" viewBox="0 0 431.48 113.61"><defs><style>.cls-1{fill:#acb1ba;}.cls-2{fill:#92b95b;}</style></defs><title>con_bestvoiper</title><path class="cls-1" d="M36.67,205.42q-3.36-2.88-3.36-8.33a10.87,10.87,0,0,1,1.58-5.92,10.38,10.38,0,0,1,4.57-3.92,17,17,0,0,1,7.13-1.38,19.33,19.33,0,0,1,5.24.61,13.19,13.19,0,0,1,3.83,1.76,1.13,1.13,0,0,1,.53.88,2.55,2.55,0,0,1-.4,1.1l-2.11,3.65a1,1,0,0,1-.88.66,1.82,1.82,0,0,1-1-.39,8.34,8.34,0,0,0-2-1,7,7,0,0,0-2.27-.31A3.53,3.53,0,0,0,44.88,194a4.43,4.43,0,0,0-1.06,3.13,4.26,4.26,0,0,0,1.08,3.12,3.87,3.87,0,0,0,2.88,1.1A6.77,6.77,0,0,0,50,201a13.24,13.24,0,0,0,2.16-1,2.17,2.17,0,0,1,1-.4c.32,0,.6.22.83.66l2.34,4a1.63,1.63,0,0,1,.26.75,1,1,0,0,1-.62.88,16.6,16.6,0,0,1-4.24,1.85,20.22,20.22,0,0,1-5.35.62Q40,208.31,36.67,205.42Z" transform="translate(-33.31 -185.87)"/><path class="cls-1" d="M64,206.92A10,10,0,0,1,59.49,203,11.08,11.08,0,0,1,58,197.09a11.24,11.24,0,0,1,1.54-6A10,10,0,0,1,64,187.23a16.78,16.78,0,0,1,7.06-1.36q6.19,0,9.68,3a10.33,10.33,0,0,1,3.47,8.21A11,11,0,0,1,82.65,203a10.21,10.21,0,0,1-4.51,3.92,16.58,16.58,0,0,1-7.08,1.39A16.62,16.62,0,0,1,64,206.92Zm9.7-9.83a4.87,4.87,0,0,0-.68-2.91,2.36,2.36,0,0,0-2-.88,2.3,2.3,0,0,0-1.94.88,5,5,0,0,0-.66,2.91q0,3.82,2.6,3.82T73.7,197.09Z" transform="translate(-33.31 -185.87)"/><path class="cls-1" d="M87,207a2.57,2.57,0,0,1-.62-1.89V188a1.54,1.54,0,0,1,.33-1.17,2.2,2.2,0,0,1,1.34-.28h5.55a2.38,2.38,0,0,1,.86.11.63.63,0,0,1,.37.5l.27,1.1a9,9,0,0,1,3.08-1.71,12.6,12.6,0,0,1,4.18-.66,8.21,8.21,0,0,1,5.8,2q2.2,2,2.2,6v11.22a2.66,2.66,0,0,1-.59,1.89,2.79,2.79,0,0,1-2,.62h-5.23a2.86,2.86,0,0,1-2.07-.62,2.57,2.57,0,0,1-.62-1.89V194.58a2.17,2.17,0,0,0-.31-1.3,1.2,1.2,0,0,0-1-.42,1.41,1.41,0,0,0-1.17.42,2.09,2.09,0,0,0-.33,1.3v10.56a2.66,2.66,0,0,1-.59,1.89,2.79,2.79,0,0,1-2,.62H89.1A2.86,2.86,0,0,1,87,207Z" transform="translate(-33.31 -185.87)"/><path class="cls-2" d="M36.13,261.41a4.33,4.33,0,0,1-1-3.09V217.57a4.35,4.35,0,0,1,1-3.1,4.56,4.56,0,0,1,3.35-1H61.3q8.78,0,12.92,3.75t4.14,10.65a11.53,11.53,0,0,1-1.4,5.73,7.89,7.89,0,0,1-3.71,3.49q6.41,2.16,6.41,10.08a14,14,0,0,1-4.79,11q-4.78,4.26-14.08,4.25H39.48A4.52,4.52,0,0,1,36.13,261.41ZM57.84,232q3.31,0,3.31-3.17t-3.31-3.17H52.37V232Zm1.23,18.28a3.22,3.22,0,0,0,2.44-1,3.6,3.6,0,0,0,.94-2.63,3.68,3.68,0,0,0-.9-2.66,3.3,3.3,0,0,0-2.48-.94h-6.7v7.2Z" transform="translate(-33.31 -185.87)"/><path class="cls-2" d="M84.23,261.41a4.29,4.29,0,0,1-1-3.09V217.57a4.3,4.3,0,0,1,1-3.1,4.55,4.55,0,0,1,3.35-1h29.81a4,4,0,0,1,3.13,1,4.84,4.84,0,0,1,.83,3.14v4a4.81,4.81,0,0,1-.83,3.13,4,4,0,0,1-3.13,1H100.54v6.19h10.37a4,4,0,0,1,3.13,1,4.79,4.79,0,0,1,.83,3.13v3.89A4.81,4.81,0,0,1,114,243a4,4,0,0,1-3.13,1H100.54v6.19h16.77a4.06,4.06,0,0,1,3.14,1,4.84,4.84,0,0,1,.82,3.14v4a4.81,4.81,0,0,1-.82,3.13c-.56.65-1.6,1-3.14,1H87.58A4.5,4.5,0,0,1,84.23,261.41Z" transform="translate(-33.31 -185.87)"/><path class="cls-2" d="M133.73,262.13a26.39,26.39,0,0,1-9.07-3.81q-1.44-1-1.44-1.95a2.36,2.36,0,0,1,.5-1.36l4.18-6.56q.65-.93,1.29-.93a2.71,2.71,0,0,1,1.37.5,22.48,22.48,0,0,0,5.94,2.49,25,25,0,0,0,6.52.9,7.75,7.75,0,0,0,3.85-.72,2.44,2.44,0,0,0,1.19-2.24,3,3,0,0,0-1.59-2.66,34.77,34.77,0,0,0-5.47-2.52,39.74,39.74,0,0,1-11.45-6.37,11.84,11.84,0,0,1-4.17-9.47q0-7.49,5.22-11.27t14.07-3.78a44.42,44.42,0,0,1,10.55,1.08,22.15,22.15,0,0,1,7.6,3.39c1,.67,1.44,1.32,1.44,1.94a2.41,2.41,0,0,1-.51,1.37l-4.17,6.55c-.43.67-.87,1-1.3,1a3.12,3.12,0,0,1-1.37-.58,16.75,16.75,0,0,0-9.21-2.66,8.07,8.07,0,0,0-3.82.72,2.45,2.45,0,0,0-1.3,2.3,2.85,2.85,0,0,0,.9,2.16,7.89,7.89,0,0,0,2.27,1.48c.91.41,2.5,1.07,4.75,2a52,52,0,0,1,8.5,4.14A12.65,12.65,0,0,1,165.27,249a12.9,12.9,0,0,1-4.87,10.48q-4.85,4-14.5,4A51.42,51.42,0,0,1,133.73,262.13Z" transform="translate(-33.31 -185.87)"/><path class="cls-2" d="M179.48,261.41a4.33,4.33,0,0,1-1-3.09V225.7H168.14c-1.53,0-2.58-.32-3.13-1a4.81,4.81,0,0,1-.83-3.13v-4a4.84,4.84,0,0,1,.83-3.14,4,4,0,0,1,3.13-1h38a4,4,0,0,1,3.13,1,4.84,4.84,0,0,1,.83,3.14v4a4.81,4.81,0,0,1-.83,3.13c-.55.65-1.59,1-3.13,1H195.79v32.62a4.29,4.29,0,0,1-1,3.09,4.63,4.63,0,0,1-3.42,1h-8.57A4.52,4.52,0,0,1,179.48,261.41Z" transform="translate(-33.31 -185.87)"/><path class="cls-2" d="M229.81,261.81a4.63,4.63,0,0,1-1.4-2.12L211.2,216.56a4.59,4.59,0,0,1-.36-1.59c0-1,.53-1.51,1.58-1.51H226a2.62,2.62,0,0,1,2.81,1.95l7.34,23.47,7.35-23.47a2.6,2.6,0,0,1,2.8-1.95H259.8c1.05,0,1.58.51,1.58,1.51a4.59,4.59,0,0,1-.36,1.59l-17.13,43.13a4.64,4.64,0,0,1-1.41,2.12,4,4,0,0,1-2.41.61h-7.85A4,4,0,0,1,229.81,261.81Z" transform="translate(-33.31 -185.87)"/><path class="cls-2" d="M265.49,256.84q-6.63-6.66-6.63-18.9t6.63-18.9q6.61-6.66,19.44-6.66T304.37,219q6.61,6.66,6.62,18.9t-6.62,18.9q-6.63,6.66-19.44,6.66T265.49,256.84Zm26.21-8.78q2.08-3.34,2.08-10.12t-2.08-10.15c-1.4-2.21-3.65-3.31-6.77-3.31s-5.38,1.1-6.77,3.31-2.09,5.59-2.09,10.15.7,7.89,2.09,10.12,3.65,3.35,6.77,3.35S290.3,250.29,291.7,248.06Z" transform="translate(-33.31 -185.87)"/><path class="cls-2" d="M315.56,261.41a4.33,4.33,0,0,1-1-3.09V217.57a4.35,4.35,0,0,1,1-3.1,4.56,4.56,0,0,1,3.35-1h8.57a4.82,4.82,0,0,1,3.42,1,4.31,4.31,0,0,1,1,3.14v40.75a4.29,4.29,0,0,1-1,3.09,4.63,4.63,0,0,1-3.42,1h-8.57A4.52,4.52,0,0,1,315.56,261.41Z" transform="translate(-33.31 -185.87)"/><path class="cls-2" d="M337.88,261.41a4.33,4.33,0,0,1-1-3.09V217.57a4.35,4.35,0,0,1,1-3.1,4.56,4.56,0,0,1,3.35-1h17.21q10.8,0,15.73,4.29t4.93,12.92q0,8.64-4.93,12.89t-15.66,4.25h-4.32v10.51a4.29,4.29,0,0,1-1,3.09,4.63,4.63,0,0,1-3.42,1h-8.57A4.52,4.52,0,0,1,337.88,261.41Zm19.05-25.84a5.13,5.13,0,0,0,3.63-1.23,4.73,4.73,0,0,0,1.34-3.67,4.82,4.82,0,0,0-1.34-3.74,5.13,5.13,0,0,0-3.63-1.23H352v9.87Z" transform="translate(-33.31 -185.87)"/><path class="cls-2" d="M382.24,261.41a4.29,4.29,0,0,1-1-3.09V217.57a4.3,4.3,0,0,1,1-3.1,4.52,4.52,0,0,1,3.34-1h29.81a4,4,0,0,1,3.13,1,4.78,4.78,0,0,1,.83,3.14v4a4.75,4.75,0,0,1-.83,3.13c-.55.65-1.59,1-3.13,1H398.54v6.19h10.37c1.54,0,2.58.33,3.13,1a4.73,4.73,0,0,1,.83,3.13v3.89A4.75,4.75,0,0,1,412,243c-.55.65-1.59,1-3.13,1H398.54v6.19h16.78a4,4,0,0,1,3.13,1,4.84,4.84,0,0,1,.83,3.14v4a4.81,4.81,0,0,1-.83,3.13c-.55.65-1.59,1-3.13,1H385.58A4.48,4.48,0,0,1,382.24,261.41Z" transform="translate(-33.31 -185.87)"/><path class="cls-2" d="M423.56,261.41a4.33,4.33,0,0,1-1-3.09V217.57a4.35,4.35,0,0,1,1-3.1,4.56,4.56,0,0,1,3.35-1h17.21q10.8,0,15.73,4.29t4.93,12.92a19.55,19.55,0,0,1-1.76,8.75,12.79,12.79,0,0,1-5.44,5.58l6.7,14.33a2.85,2.85,0,0,1,.29,1.29,1.7,1.7,0,0,1-.54,1.3,2,2,0,0,1-1.41.5H450.46a4.44,4.44,0,0,1-1.84-.32,1.87,1.87,0,0,1-1-1.12l-5.33-13.39h-2.45v10.73a4.29,4.29,0,0,1-1,3.09,4.63,4.63,0,0,1-3.42,1h-8.57A4.52,4.52,0,0,1,423.56,261.41Zm19.05-25.84a5.15,5.15,0,0,0,3.63-1.23,4.73,4.73,0,0,0,1.34-3.67,4.82,4.82,0,0,0-1.34-3.74,5.15,5.15,0,0,0-3.63-1.23h-4.9v9.87Z" transform="translate(-33.31 -185.87)"/><path class="cls-1" d="M37.12,289.78q-3.36-2.88-3.36-8.34a10.89,10.89,0,0,1,1.58-5.92,10.39,10.39,0,0,1,4.58-3.91A16.72,16.72,0,0,1,47,270.22a19.3,19.3,0,0,1,5.24.62,12.93,12.93,0,0,1,3.83,1.76,1.1,1.1,0,0,1,.53.88,2.59,2.59,0,0,1-.4,1.1l-2.11,3.65a1,1,0,0,1-.88.66,1.77,1.77,0,0,1-1-.4,8.74,8.74,0,0,0-2-1,7.2,7.2,0,0,0-2.26-.31,3.51,3.51,0,0,0-2.73,1.15,4.39,4.39,0,0,0-1.06,3.12,4.26,4.26,0,0,0,1.08,3.12,3.83,3.83,0,0,0,2.88,1.1,6.51,6.51,0,0,0,2.2-.35,12.12,12.12,0,0,0,2.16-1,2.33,2.33,0,0,1,1-.4q.48,0,.84.66l2.33,4a1.56,1.56,0,0,1,.26.75,1,1,0,0,1-.61.88A16.79,16.79,0,0,1,52.17,292a20.22,20.22,0,0,1-5.35.62Q40.49,292.66,37.12,289.78Z" transform="translate(-33.31 -185.87)"/><path class="cls-1" d="M59.89,291.38a2.57,2.57,0,0,1-.61-1.89V272.33a1.53,1.53,0,0,1,.33-1.16,2.16,2.16,0,0,1,1.34-.29h5.54a2.63,2.63,0,0,1,.86.11.61.61,0,0,1,.37.51l.27,1.1a9,9,0,0,1,6.16-2.38,11.65,11.65,0,0,1,2.73.26,5.56,5.56,0,0,1,1.89.93,1,1,0,0,1,.48.75,1.72,1.72,0,0,1-.13.61l-1.72,4.67c-.17.47-.41.7-.7.7a1.2,1.2,0,0,1-.62-.22,6.18,6.18,0,0,0-1.36-.57,6.71,6.71,0,0,0-1.72-.18,3.39,3.39,0,0,0-2.28.75,2.5,2.5,0,0,0-.88,2v9.55a2.61,2.61,0,0,1-.6,1.89,2.76,2.76,0,0,1-2,.62H62A2.86,2.86,0,0,1,59.89,291.38Z" transform="translate(-33.31 -185.87)"/><path class="cls-1" d="M86,291.38a10.4,10.4,0,0,1-4.65-3.76,10.55,10.55,0,0,1-1.67-6q0-5.55,3.24-8.47t9.35-2.93q6,0,9.06,2.88a10.25,10.25,0,0,1,3.08,7.86,2.86,2.86,0,0,1-.53,1.89,2,2,0,0,1-1.63.61H89.59a2.35,2.35,0,0,0,1.28,2.09,6.73,6.73,0,0,0,3.52.77,11,11,0,0,0,2.77-.28,12.53,12.53,0,0,0,2.29-.9,2,2,0,0,1,.83-.27c.27,0,.52.21.75.62l1.72,3.25a1.66,1.66,0,0,1,.26.8,1,1,0,0,1-.61.83,18.22,18.22,0,0,1-9.64,2.29A17,17,0,0,1,86,291.38Zm9.08-12.84c0-1.59-.92-2.38-2.77-2.38a2.9,2.9,0,0,0-2,.64,2.27,2.27,0,0,0-.68,1.74Z" transform="translate(-33.31 -185.87)"/><path class="cls-1" d="M109.11,289.78q-3.37-2.88-3.37-8.34a11,11,0,0,1,1.58-5.92,10.39,10.39,0,0,1,4.58-3.91,16.73,16.73,0,0,1,7.13-1.39,19.22,19.22,0,0,1,5.23.62,12.82,12.82,0,0,1,3.83,1.76,1.1,1.1,0,0,1,.53.88,2.46,2.46,0,0,1-.4,1.1l-2.11,3.65a1,1,0,0,1-.88.66,1.83,1.83,0,0,1-1-.4,8.69,8.69,0,0,0-2-1,7.32,7.32,0,0,0-2.27-.31,3.53,3.53,0,0,0-2.73,1.15,4.43,4.43,0,0,0-1,3.12,4.25,4.25,0,0,0,1.07,3.12,3.84,3.84,0,0,0,2.89,1.1,6.55,6.55,0,0,0,2.2-.35,12.38,12.38,0,0,0,2.15-1,2.33,2.33,0,0,1,1-.4q.49,0,.84.66l2.33,4a1.49,1.49,0,0,1,.27.75,1,1,0,0,1-.62.88,16.79,16.79,0,0,1-4.25,1.84,20.19,20.19,0,0,1-5.34.62Q112.47,292.66,109.11,289.78Z" transform="translate(-33.31 -185.87)"/><path class="cls-1" d="M136.69,291.38a10.37,10.37,0,0,1-4.64-3.76,10.55,10.55,0,0,1-1.67-6q0-5.55,3.23-8.47t9.35-2.93q6,0,9.07,2.88a10.25,10.25,0,0,1,3.08,7.86,2.86,2.86,0,0,1-.53,1.89,2,2,0,0,1-1.63.61H140.28a2.33,2.33,0,0,0,1.28,2.09,6.73,6.73,0,0,0,3.52.77,11,11,0,0,0,2.77-.28,12.82,12.82,0,0,0,2.29-.9,2,2,0,0,1,.83-.27c.27,0,.51.21.75.62l1.72,3.25a1.66,1.66,0,0,1,.26.8,1,1,0,0,1-.62.83,18.16,18.16,0,0,1-9.63,2.29A17,17,0,0,1,136.69,291.38Zm9.09-12.84c0-1.59-.92-2.38-2.77-2.38a2.9,2.9,0,0,0-2,.64,2.27,2.27,0,0,0-.68,1.74Z" transform="translate(-33.31 -185.87)"/><path class="cls-1" d="M157.92,291.38a2.57,2.57,0,0,1-.61-1.89V272.33a1.53,1.53,0,0,1,.33-1.16,2.16,2.16,0,0,1,1.34-.29h5.1a2.63,2.63,0,0,1,.86.11.64.64,0,0,1,.38.51l.26,1.1a10.45,10.45,0,0,1,2.75-1.74,8.43,8.43,0,0,1,3.41-.64,7.58,7.58,0,0,1,3.06.55,6.9,6.9,0,0,1,2.31,1.74,9.42,9.42,0,0,1,2.68-1.7,9.7,9.7,0,0,1,3.61-.59,7.16,7.16,0,0,1,5.43,2c1.28,1.34,1.92,3.35,1.92,6v11.22a2.61,2.61,0,0,1-.6,1.89,2.75,2.75,0,0,1-2,.62h-4.36a2.86,2.86,0,0,1-2.07-.62,2.57,2.57,0,0,1-.61-1.89V278.93c0-1.14-.38-1.71-1.15-1.71a1.12,1.12,0,0,0-1,.41,2.19,2.19,0,0,0-.31,1.3v10.56a2.61,2.61,0,0,1-.6,1.89,2.75,2.75,0,0,1-2,.62h-3.92a2.86,2.86,0,0,1-2.07-.62,2.57,2.57,0,0,1-.61-1.89V278.93c0-1.14-.38-1.71-1.15-1.71a1.12,1.12,0,0,0-1,.41,2.19,2.19,0,0,0-.31,1.3v10.56a2.61,2.61,0,0,1-.6,1.89,2.75,2.75,0,0,1-2,.62H160A2.86,2.86,0,0,1,157.92,291.38Z" transform="translate(-33.31 -185.87)"/><path class="cls-1" d="M198.12,291.27a10.09,10.09,0,0,1-4.51-3.91,12.23,12.23,0,0,1,0-11.88,10,10,0,0,1,4.51-3.9,16.78,16.78,0,0,1,7.06-1.36q6.21,0,9.68,3a10.3,10.3,0,0,1,3.48,8.21,11.06,11.06,0,0,1-1.57,5.92,10.25,10.25,0,0,1-4.51,3.91,18.68,18.68,0,0,1-14.14,0Zm9.7-9.83a4.81,4.81,0,0,0-.68-2.9,2.33,2.33,0,0,0-2-.88,2.27,2.27,0,0,0-1.94.88,4.9,4.9,0,0,0-.66,2.9q0,3.82,2.6,3.83T207.82,281.44Z" transform="translate(-33.31 -185.87)"/><path class="cls-1" d="M219.52,290.28q-1-.52-1-1a1.46,1.46,0,0,1,.26-.75l2.16-3.87a.87.87,0,0,1,.74-.53,2.12,2.12,0,0,1,.88.26,17.9,17.9,0,0,0,3.08,1.17,11.92,11.92,0,0,0,3.3.55,3.71,3.71,0,0,0,1.28-.15.54.54,0,0,0,.35-.51c0-.23-.21-.44-.64-.62a20.94,20.94,0,0,0-2.13-.66l-.86-.24q-.42-.11-.81-.24a13.72,13.72,0,0,1-5.22-2.53,5.12,5.12,0,0,1-1.56-4A5.68,5.68,0,0,1,222.3,272a14.94,14.94,0,0,1,7.87-1.78,23.35,23.35,0,0,1,5.26.51,18,18,0,0,1,4.29,1.6c.62.35.92.72.92,1.1a1.86,1.86,0,0,1-.35.93l-2.11,3.34c-.24.35-.45.53-.66.53a3.57,3.57,0,0,1-.84-.31,12.41,12.41,0,0,0-2.33-.81,10,10,0,0,0-2.42-.33c-1.58,0-2.37.26-2.37.79,0,.23.25.44.77.61s1.38.41,2.61.71c1.62.38,2.73.67,3.35.88a12.63,12.63,0,0,1,3,1.45A4.1,4.1,0,0,1,240.8,283a6.66,6.66,0,0,1,.42,2.57A5.92,5.92,0,0,1,240,289.1a8.14,8.14,0,0,1-3.7,2.59,16.9,16.9,0,0,1-6.14,1A21.78,21.78,0,0,1,219.52,290.28Z" transform="translate(-33.31 -185.87)"/><path class="cls-1" d="M249,296.58a1.12,1.12,0,0,1-.52-.88,2.46,2.46,0,0,1,.39-1.1l2.2-3.79c.29-.47.6-.7.93-.7a1.86,1.86,0,0,1,.88.39,6.77,6.77,0,0,0,4,1.59c2,0,3-1,3-2.86V273.39a2.61,2.61,0,0,1,.59-1.89,2.79,2.79,0,0,1,2.05-.62h5.23a2.93,2.93,0,0,1,2.09.59,2.63,2.63,0,0,1,.6,1.92v15.93a9.72,9.72,0,0,1-2.91,7.41q-2.9,2.75-8.36,2.75A16.89,16.89,0,0,1,249,296.58Zm11.6-28.14a3,3,0,0,1-.9-2.18v-1.1a3,3,0,0,1,.9-2.18,3.54,3.54,0,0,1,2.62-.9H267a3.61,3.61,0,0,1,2.64.9,2.93,2.93,0,0,1,.93,2.18v1.1a2.93,2.93,0,0,1-.93,2.18,3.61,3.61,0,0,1-2.64.9h-3.82A3.54,3.54,0,0,1,260.6,268.44Z" transform="translate(-33.31 -185.87)"/><path class="cls-1" d="M275.45,290.61q-2.11-2-2.12-6.18v-11a2.61,2.61,0,0,1,.6-1.89,2.79,2.79,0,0,1,2.05-.62h5.23a2.93,2.93,0,0,1,2.09.59,2.63,2.63,0,0,1,.6,1.92V284a2.09,2.09,0,0,0,.33,1.3,1.27,1.27,0,0,0,1.07.41,1.35,1.35,0,0,0,1.15-.41,2.24,2.24,0,0,0,.31-1.3V273.39a2.61,2.61,0,0,1,.59-1.89,2.79,2.79,0,0,1,2-.62h5.23a2.93,2.93,0,0,1,2.09.59,2.63,2.63,0,0,1,.59,1.92v17.16a1.53,1.53,0,0,1-.32,1.16,2.13,2.13,0,0,1-1.35.29H290.1a2.63,2.63,0,0,1-.86-.11.63.63,0,0,1-.37-.51l-.27-1.1a8.92,8.92,0,0,1-3.14,1.72,13.24,13.24,0,0,1-4.25.66A7.9,7.9,0,0,1,275.45,290.61Z" transform="translate(-33.31 -185.87)"/><path class="cls-1" d="M301,291.38a2.57,2.57,0,0,1-.62-1.89V272.33a1.53,1.53,0,0,1,.33-1.16,2.2,2.2,0,0,1,1.35-.29h5.54a2.63,2.63,0,0,1,.86.11.63.63,0,0,1,.37.51l.27,1.1a8.89,8.89,0,0,1,3.08-1.72,12.6,12.6,0,0,1,4.18-.66,8.26,8.26,0,0,1,5.8,2q2.2,2,2.2,6v11.22a2.61,2.61,0,0,1-.59,1.89,2.79,2.79,0,0,1-2,.62H316.5a2.86,2.86,0,0,1-2.07-.62,2.57,2.57,0,0,1-.62-1.89V278.93a2.27,2.27,0,0,0-.3-1.3,1.26,1.26,0,0,0-1.06-.41,1.44,1.44,0,0,0-1.17.41,2.11,2.11,0,0,0-.33,1.3v10.56a2.61,2.61,0,0,1-.59,1.89,2.79,2.79,0,0,1-2.05.62h-5.23A2.86,2.86,0,0,1,301,291.38Z" transform="translate(-33.31 -185.87)"/><path class="cls-1" d="M332.16,290.22a9.27,9.27,0,0,1-2.42-6.8v-5.5h-1.41a2.46,2.46,0,0,1-1.91-.59,2.94,2.94,0,0,1-.51-1.92v-2a2.94,2.94,0,0,1,.51-1.92,2.46,2.46,0,0,1,1.91-.59h1.41v-.48a5.18,5.18,0,0,1,.57-2.31c.38-.78.91-1.74,1.59-2.89a3.16,3.16,0,0,1,.92-1.1,3.57,3.57,0,0,1,1.63-.26h3.17a3,3,0,0,1,2.09.59,2.67,2.67,0,0,1,.59,1.92v4.53h2.64a2.49,2.49,0,0,1,1.92.59,3,3,0,0,1,.5,1.92v2a3,3,0,0,1-.5,1.92,2.49,2.49,0,0,1-1.92.59H340.3v5.32a2.34,2.34,0,0,0,.42,1.52,1.64,1.64,0,0,0,1.34.51,2.85,2.85,0,0,0,1-.13,8.54,8.54,0,0,0,.92-.53,1.38,1.38,0,0,1,.75-.27,1,1,0,0,1,.88.62l2.07,3.56a2.62,2.62,0,0,1,.4,1.15,1,1,0,0,1-.53.83,13,13,0,0,1-3.63,1.61,18.27,18.27,0,0,1-4.82.55C336.08,292.66,333.77,291.85,332.16,290.22Z" transform="translate(-33.31 -185.87)"/><path class="cls-1" d="M353,291.27a10.09,10.09,0,0,1-4.51-3.91,12.23,12.23,0,0,1,0-11.88,10,10,0,0,1,4.51-3.9,16.78,16.78,0,0,1,7.06-1.36q6.19,0,9.68,3a10.33,10.33,0,0,1,3.47,8.21,11.06,11.06,0,0,1-1.56,5.92,10.25,10.25,0,0,1-4.51,3.91,18.68,18.68,0,0,1-14.14,0Zm9.7-9.83a4.81,4.81,0,0,0-.68-2.9,2.33,2.33,0,0,0-2-.88,2.27,2.27,0,0,0-1.94.88,4.9,4.9,0,0,0-.66,2.9q0,3.82,2.6,3.83T362.7,281.44Z" transform="translate(-33.31 -185.87)"/><path class="cls-1" d="M374.4,290.28c-.64-.35-1-.7-1-1a1.49,1.49,0,0,1,.27-.75l2.15-3.87a.9.9,0,0,1,.75-.53,2.12,2.12,0,0,1,.88.26,17.58,17.58,0,0,0,3.08,1.17,11.92,11.92,0,0,0,3.3.55,3.71,3.71,0,0,0,1.28-.15.54.54,0,0,0,.35-.51c0-.23-.21-.44-.64-.62a21.82,21.82,0,0,0-2.13-.66l-.86-.24q-.42-.11-.81-.24a13.72,13.72,0,0,1-5.22-2.53,5.12,5.12,0,0,1-1.56-4,5.69,5.69,0,0,1,2.9-5.13,15,15,0,0,1,7.88-1.78,23.41,23.41,0,0,1,5.26.51,18,18,0,0,1,4.29,1.6c.61.35.92.72.92,1.1a2,2,0,0,1-.35.93l-2.11,3.34c-.24.35-.46.53-.66.53a3.57,3.57,0,0,1-.84-.31,12.41,12.41,0,0,0-2.33-.81,10.06,10.06,0,0,0-2.42-.33c-1.58,0-2.38.26-2.38.79,0,.23.26.44.77.61s1.39.41,2.62.71c1.61.38,2.73.67,3.35.88a12.63,12.63,0,0,1,3,1.45,4.1,4.1,0,0,1,1.48,1.74,6.88,6.88,0,0,1,.41,2.57,5.85,5.85,0,0,1-1.21,3.57,8.1,8.1,0,0,1-3.69,2.59,16.94,16.94,0,0,1-6.14,1A21.78,21.78,0,0,1,374.4,290.28Z" transform="translate(-33.31 -185.87)"/></svg>