<?xml version="1.0" encoding="utf-8"?>
<!-- Generator: Adobe Illustrator 23.0.0, SVG Export Plug-In . SVG Version: 6.00 Build 0)  -->
<svg version="1.1" xmlns="http://www.w3.org/2000/svg" xmlns:xlink="http://www.w3.org/1999/xlink" x="0px" y="0px"
	 viewBox="0 0 1000 613" style="enable-background:new 0 0 1000 613;" xml:space="preserve">
<style type="text/css">
	.st0{fill:#2C6093;}
	.st1{fill:#FFFFFF;}
	.st2{fill:none;stroke:#348DD6;stroke-width:16;stroke-miterlimit:10;stroke-dasharray:12;}
	.st3{fill:#F2F2F2;}
	.st4{fill:#754193;}
	.st5{fill:#EACCB0;}
	.st6{fill:#F2D4B6;}
	.st7{fill:#C1D4F2;}
	.st8{fill:#9BAEC9;}
	.st9{fill:#447AB7;}
	.st10{fill:none;}
	.st11{fill:#C69A81;}
	.st12{fill:#4D342F;}
	.st13{fill:#674843;}
	.st14{fill:#264847;}
	.st15{fill:#D1A385;}
	.st16{fill:#543B39;}
	.st17{fill:#604340;}
	.st18{fill:#3A3A3A;}
	.st19{fill:#89B749;}
	.st20{fill:#F7DDCB;}
	.st21{fill:#9D2B3B;}
	.st22{fill:#FFE6D4;}
	.st23{fill:#534D46;}
	.st24{fill:#191819;}
	.st25{fill:#222123;}
	.st26{fill:#F5F5F5;}
	.st27{fill:#EAEAEA;}
	.st28{fill:#EA9334;}
	.st29{fill:#FCC232;}
	.st30{fill:#F9B234;}
	.st31{fill:#F7A037;}
	.st32{fill:#E0E0E0;}
	.st33{fill:#939393;}
	.st34{fill:#9B9B9B;}
	.st35{fill:#828282;}
	.st36{fill:none;stroke:#3B7F0E;stroke-width:16;stroke-miterlimit:10;stroke-dasharray:12;}
	.st37{fill:none;stroke:#348DD6;stroke-width:16;stroke-miterlimit:10;}
	.st38{fill:none;stroke:#348DD6;stroke-width:16;stroke-miterlimit:10;stroke-dasharray:12.1333,12.1333;}
</style>
<g id="Capa_1">
	<g>
		<path class="st0" d="M790,161H271c-6.6,0-12-5.4-12-12V77c0-6.6,5.4-12,12-12h519c6.6,0,12,5.4,12,12v72
			C802,155.6,796.6,161,790,161z"/>
		<g>
			<path class="st1" d="M314.32,135.93c-3.48-0.79-6.25-1.9-8.33-3.33c-0.59-0.44-0.89-0.94-0.89-1.48c0-0.44,0.22-1.06,0.67-1.85
				l3.7-6.36c0.39-0.69,0.86-1.04,1.41-1.04c0.34,0,0.91,0.2,1.7,0.59c1.28,0.64,2.85,1.17,4.7,1.59c1.85,0.42,3.69,0.63,5.51,0.63
				c2.47,0,4.3-0.37,5.51-1.11c1.21-0.74,1.81-1.87,1.81-3.4c0-2.37-1.6-3.55-4.81-3.55h-5.7c-1.63,0-2.78-0.34-3.44-1.04
				c-0.67-0.69-1-1.75-1-3.18v-4c0-1.43,0.33-2.49,1-3.18c0.67-0.69,1.81-1.04,3.44-1.04h4.51c1.63,0,2.81-0.3,3.55-0.89
				c0.74-0.59,1.11-1.5,1.11-2.74c0-2.37-2.05-3.55-6.14-3.55c-3.31,0-6.44,0.74-9.4,2.22c-0.79,0.4-1.36,0.59-1.7,0.59
				c-0.54,0-1.01-0.34-1.41-1.04l-3.7-6.36c-0.44-0.79-0.67-1.41-0.67-1.85c0-0.54,0.3-1.04,0.89-1.48
				c2.12-1.43,4.76-2.54,7.92-3.33c3.16-0.79,6.76-1.18,10.8-1.18c4.29,0,8.03,0.63,11.21,1.89c3.18,1.26,5.62,3.05,7.33,5.36
				c1.7,2.32,2.55,5.06,2.55,8.21c0,4.34-1.5,7.7-4.51,10.06c3.9,2.27,5.85,5.87,5.85,10.8c0,4.98-1.9,8.93-5.7,11.84
				c-3.8,2.91-9.28,4.37-16.43,4.37C321.59,137.11,317.8,136.71,314.32,135.93z"/>
			<path class="st1" d="M359.24,135.93c-3.48-0.79-6.25-1.9-8.33-3.33c-0.59-0.44-0.89-0.94-0.89-1.48c0-0.44,0.22-1.06,0.67-1.85
				l3.7-6.36c0.39-0.69,0.86-1.04,1.41-1.04c0.34,0,0.91,0.2,1.7,0.59c1.28,0.64,2.85,1.17,4.7,1.59c1.85,0.42,3.69,0.63,5.51,0.63
				c2.47,0,4.3-0.37,5.51-1.11c1.21-0.74,1.81-1.87,1.81-3.4c0-2.37-1.6-3.55-4.81-3.55h-5.7c-1.63,0-2.78-0.34-3.44-1.04
				c-0.67-0.69-1-1.75-1-3.18v-4c0-1.43,0.33-2.49,1-3.18c0.67-0.69,1.81-1.04,3.44-1.04h4.51c1.63,0,2.81-0.3,3.55-0.89
				c0.74-0.59,1.11-1.5,1.11-2.74c0-2.37-2.05-3.55-6.14-3.55c-3.31,0-6.44,0.74-9.4,2.22c-0.79,0.4-1.36,0.59-1.7,0.59
				c-0.54,0-1.01-0.34-1.41-1.04l-3.7-6.36c-0.44-0.79-0.67-1.41-0.67-1.85c0-0.54,0.3-1.04,0.89-1.48
				c2.12-1.43,4.76-2.54,7.92-3.33c3.16-0.79,6.76-1.18,10.8-1.18c4.29,0,8.03,0.63,11.21,1.89c3.18,1.26,5.62,3.05,7.33,5.36
				c1.7,2.32,2.55,5.06,2.55,8.21c0,4.34-1.5,7.7-4.51,10.06c3.9,2.27,5.85,5.87,5.85,10.8c0,4.98-1.9,8.93-5.7,11.84
				c-3.8,2.91-9.28,4.37-16.43,4.37C366.5,137.11,362.72,136.71,359.24,135.93z"/>
			<path class="st1" d="M404.16,135.93c-3.48-0.79-6.25-1.9-8.33-3.33c-0.59-0.44-0.89-0.94-0.89-1.48c0-0.44,0.22-1.06,0.67-1.85
				l3.7-6.36c0.39-0.69,0.86-1.04,1.41-1.04c0.34,0,0.91,0.2,1.7,0.59c1.28,0.64,2.85,1.17,4.7,1.59c1.85,0.42,3.69,0.63,5.51,0.63
				c2.47,0,4.3-0.37,5.51-1.11c1.21-0.74,1.81-1.87,1.81-3.4c0-2.37-1.6-3.55-4.81-3.55h-5.7c-1.63,0-2.78-0.34-3.44-1.04
				c-0.67-0.69-1-1.75-1-3.18v-4c0-1.43,0.33-2.49,1-3.18c0.67-0.69,1.81-1.04,3.44-1.04h4.51c1.63,0,2.81-0.3,3.55-0.89
				c0.74-0.59,1.11-1.5,1.11-2.74c0-2.37-2.05-3.55-6.14-3.55c-3.31,0-6.44,0.74-9.4,2.22c-0.79,0.4-1.36,0.59-1.7,0.59
				c-0.54,0-1.01-0.34-1.41-1.04l-3.7-6.36c-0.44-0.79-0.67-1.41-0.67-1.85c0-0.54,0.3-1.04,0.89-1.48
				c2.12-1.43,4.76-2.54,7.92-3.33c3.16-0.79,6.76-1.18,10.8-1.18c4.29,0,8.03,0.63,11.21,1.89c3.18,1.26,5.62,3.05,7.33,5.36
				c1.7,2.32,2.55,5.06,2.55,8.21c0,4.34-1.5,7.7-4.51,10.06c3.9,2.27,5.85,5.87,5.85,10.8c0,4.98-1.9,8.93-5.7,11.84
				c-3.8,2.91-9.28,4.37-16.43,4.37C411.42,137.11,407.64,136.71,404.16,135.93z"/>
			<path class="st1" d="M446.45,130.41c-4.39-4.46-6.59-10.99-6.59-19.57s2.19-15.11,6.59-19.57c4.39-4.46,11-6.7,19.83-6.7
				c8.83,0,15.44,2.23,19.83,6.7c4.39,4.47,6.59,10.99,6.59,19.57s-2.2,15.11-6.59,19.57c-4.39,4.47-11,6.7-19.83,6.7
				C457.45,137.11,450.84,134.88,446.45,130.41z M469.54,97.52c-0.89-0.34-1.97-0.52-3.26-0.52c-3.21,0-5.46,1.09-6.77,3.26
				c-1.31,2.17-1.96,5.7-1.96,10.58c0,1.58,0.02,2.71,0.07,3.4L469.54,97.52z M473.05,121.38c1.31-2.19,1.96-5.71,1.96-10.54
				c0-0.99-0.05-2.27-0.15-3.85l-12.14,17.17c0.89,0.35,2.07,0.52,3.55,0.52C469.49,124.68,471.75,123.58,473.05,121.38z"/>
			<path class="st1" d="M504.13,135.93c-3.48-0.79-6.25-1.9-8.33-3.33c-0.59-0.44-0.89-0.94-0.89-1.48c0-0.44,0.22-1.06,0.67-1.85
				l3.7-6.36c0.39-0.69,0.86-1.04,1.41-1.04c0.34,0,0.91,0.2,1.7,0.59c1.28,0.64,2.85,1.17,4.7,1.59c1.85,0.42,3.69,0.63,5.51,0.63
				c2.47,0,4.3-0.37,5.51-1.11c1.21-0.74,1.81-1.87,1.81-3.4c0-2.37-1.6-3.55-4.81-3.55h-5.7c-1.63,0-2.78-0.34-3.44-1.04
				c-0.67-0.69-1-1.75-1-3.18v-4c0-1.43,0.33-2.49,1-3.18c0.67-0.69,1.81-1.04,3.44-1.04h4.51c1.63,0,2.81-0.3,3.55-0.89
				c0.74-0.59,1.11-1.5,1.11-2.74c0-2.37-2.05-3.55-6.14-3.55c-3.31,0-6.44,0.74-9.4,2.22c-0.79,0.4-1.36,0.59-1.7,0.59
				c-0.54,0-1.01-0.34-1.41-1.04l-3.7-6.36c-0.44-0.79-0.67-1.41-0.67-1.85c0-0.54,0.3-1.04,0.89-1.48
				c2.12-1.43,4.76-2.54,7.92-3.33c3.16-0.79,6.76-1.18,10.8-1.18c4.29,0,8.03,0.63,11.21,1.89c3.18,1.26,5.62,3.05,7.33,5.36
				c1.7,2.32,2.55,5.06,2.55,8.21c0,4.34-1.5,7.7-4.51,10.06c3.9,2.27,5.85,5.87,5.85,10.8c0,4.98-1.9,8.93-5.7,11.84
				c-3.8,2.91-9.28,4.37-16.43,4.37C511.4,137.11,507.61,136.71,504.13,135.93z"/>
			<path class="st1" d="M549.05,135.93c-3.48-0.79-6.25-1.9-8.33-3.33c-0.59-0.44-0.89-0.94-0.89-1.48c0-0.44,0.22-1.06,0.67-1.85
				l3.7-6.36c0.39-0.69,0.86-1.04,1.41-1.04c0.34,0,0.91,0.2,1.7,0.59c1.28,0.64,2.85,1.17,4.7,1.59c1.85,0.42,3.69,0.63,5.51,0.63
				c2.47,0,4.3-0.37,5.51-1.11c1.21-0.74,1.81-1.87,1.81-3.4c0-2.37-1.6-3.55-4.81-3.55h-5.7c-1.63,0-2.78-0.34-3.44-1.04
				c-0.67-0.69-1-1.75-1-3.18v-4c0-1.43,0.33-2.49,1-3.18c0.67-0.69,1.81-1.04,3.44-1.04h4.51c1.63,0,2.81-0.3,3.55-0.89
				c0.74-0.59,1.11-1.5,1.11-2.74c0-2.37-2.05-3.55-6.14-3.55c-3.31,0-6.44,0.74-9.4,2.22c-0.79,0.4-1.36,0.59-1.7,0.59
				c-0.54,0-1.01-0.34-1.41-1.04l-3.7-6.36c-0.44-0.79-0.67-1.41-0.67-1.85c0-0.54,0.3-1.04,0.89-1.48
				c2.12-1.43,4.76-2.54,7.92-3.33c3.16-0.79,6.76-1.18,10.8-1.18c4.29,0,8.03,0.63,11.21,1.89c3.18,1.26,5.62,3.05,7.33,5.36
				c1.7,2.32,2.55,5.06,2.55,8.21c0,4.34-1.5,7.7-4.51,10.06c3.9,2.27,5.85,5.87,5.85,10.8c0,4.98-1.9,8.93-5.7,11.84
				c-3.8,2.91-9.28,4.37-16.43,4.37C556.31,137.11,552.53,136.71,549.05,135.93z"/>
			<path class="st1" d="M593.97,135.93c-3.48-0.79-6.25-1.9-8.33-3.33c-0.59-0.44-0.89-0.94-0.89-1.48c0-0.44,0.22-1.06,0.67-1.85
				l3.7-6.36c0.39-0.69,0.86-1.04,1.41-1.04c0.34,0,0.91,0.2,1.7,0.59c1.28,0.64,2.85,1.17,4.7,1.59c1.85,0.42,3.69,0.63,5.51,0.63
				c2.47,0,4.3-0.37,5.51-1.11c1.21-0.74,1.81-1.87,1.81-3.4c0-2.37-1.6-3.55-4.81-3.55h-5.7c-1.63,0-2.78-0.34-3.44-1.04
				c-0.67-0.69-1-1.75-1-3.18v-4c0-1.43,0.33-2.49,1-3.18c0.67-0.69,1.81-1.04,3.44-1.04h4.51c1.63,0,2.81-0.3,3.55-0.89
				c0.74-0.59,1.11-1.5,1.11-2.74c0-2.37-2.05-3.55-6.14-3.55c-3.31,0-6.44,0.74-9.4,2.22c-0.79,0.4-1.36,0.59-1.7,0.59
				c-0.54,0-1.01-0.34-1.41-1.04l-3.7-6.36c-0.44-0.79-0.67-1.41-0.67-1.85c0-0.54,0.3-1.04,0.89-1.48
				c2.12-1.43,4.76-2.54,7.92-3.33c3.16-0.79,6.76-1.18,10.8-1.18c4.29,0,8.03,0.63,11.21,1.89c3.18,1.26,5.62,3.05,7.33,5.36
				c1.7,2.32,2.55,5.06,2.55,8.21c0,4.34-1.5,7.7-4.51,10.06c3.9,2.27,5.85,5.87,5.85,10.8c0,4.98-1.9,8.93-5.7,11.84
				c-3.8,2.91-9.28,4.37-16.43,4.37C601.23,137.11,597.45,136.71,593.97,135.93z"/>
			<path class="st1" d="M636.26,130.41c-4.39-4.46-6.59-10.99-6.59-19.57s2.19-15.11,6.59-19.57c4.39-4.46,11-6.7,19.83-6.7
				c8.83,0,15.44,2.23,19.83,6.7c4.39,4.47,6.59,10.99,6.59,19.57s-2.2,15.11-6.59,19.57c-4.39,4.47-11,6.7-19.83,6.7
				C647.26,137.11,640.65,134.88,636.26,130.41z M659.35,97.52c-0.89-0.34-1.97-0.52-3.26-0.52c-3.21,0-5.46,1.09-6.77,3.26
				c-1.31,2.17-1.96,5.7-1.96,10.58c0,1.58,0.02,2.71,0.07,3.4L659.35,97.52z M662.86,121.38c1.31-2.19,1.96-5.71,1.96-10.54
				c0-0.99-0.05-2.27-0.15-3.85l-12.14,17.17c0.89,0.35,2.07,0.52,3.55,0.52C659.3,124.68,661.55,123.58,662.86,121.38z"/>
			<path class="st1" d="M687.87,135c-0.57-0.67-0.85-1.74-0.85-3.22v-4.14c0-1.48,0.28-2.55,0.85-3.22c0.57-0.67,1.64-1,3.22-1h4.66
				v-19.31l-3.03,1.92c-0.25,0.2-0.54,0.3-0.89,0.3c-0.44,0-0.81-0.22-1.11-0.67l-5.62-8.58c-0.2-0.25-0.3-0.52-0.3-0.81
				c0-0.49,0.27-0.89,0.81-1.18l13.99-8.44c0.59-0.34,1.16-0.59,1.7-0.74s1.33-0.22,2.37-0.22h5.4c1.63,0,2.78,0.35,3.44,1.04
				c0.67,0.69,1,1.75,1,3.18v33.52h4.74c1.58,0,2.65,0.33,3.22,1s0.85,1.74,0.85,3.22v4.14c0,1.48-0.28,2.55-0.85,3.22
				s-1.64,1-3.22,1h-27.16C689.51,136,688.44,135.67,687.87,135z"/>
			<path class="st1" d="M743.04,135.15c-0.64-0.57-0.96-1.57-0.96-3v-5.77h-17.83c-1.78,0-2.66-0.86-2.66-2.59v-6.81
				c0-1.13,0.1-1.97,0.3-2.52c0.2-0.54,0.67-1.26,1.41-2.15l20.13-24.27c0.84-0.99,1.53-1.63,2.07-1.92
				c0.54-0.3,1.48-0.44,2.81-0.44h7.1c1.63,0,2.77,0.35,3.44,1.04c0.67,0.69,1,1.75,1,3.18v23.9h2.81c1.58,0,2.65,0.33,3.22,1
				c0.57,0.67,0.85,1.74,0.85,3.22v4.14c0,1.48-0.28,2.55-0.85,3.22c-0.57,0.67-1.64,1-3.22,1h-2.81v5.77c0,1.43-0.33,2.43-1,3
				c-0.67,0.57-1.84,0.85-3.51,0.85h-8.81C744.84,136,743.68,135.72,743.04,135.15z M746,113.8v-9.69l-7.1,9.69H746z"/>
		</g>
	</g>
	<path class="st2" d="M135,343"/>
	<path class="st2" d="M268,184"/>
</g>
<g id="Capa_2">
	<g>
		<circle id="XMLID_96_" class="st3" cx="135.72" cy="411.2" r="67.25"/>
		<g id="XMLID_84_">
			<path id="XMLID_95_" class="st4" d="M111.93,433.99l3.75-1.22l0,0c1.49-0.49,2.64-0.88,3.16-1.08c0.22-0.08,0.38-0.07,0.52-0.02
				c0.21-0.13,0.44-0.27,0.67-0.41c5.88-3.52,6.42-9.26,6.44-12.56c-0.57-0.46-1.13-0.94-1.66-1.45c-4.04-3.9-4.01-13.77-4.99-13.07
				c-2.23,1.5-3.66-2.96-3.94-5.61c-0.22-2.05,0.46-3.17,1.29-3.06c0.35,0.38,0.82,0.13,1.33,1.13c0.41,0.81,0.81-3.16,4.5-6.23
				l4.45-3.88c3.7,0.42,5.04,1.46,11.53,4.88c5.46,2.87,12.4,5.18,13.37,5.97c0.43,0.35,0.77-1.29,2.43-1.77
				c0.02,0,0.04-0.05,0.05-0.07c0.73,0.1,1.27,1.19,1.07,3.05c-0.28,2.65-1.71,7.11-3.94,5.61c-0.98-0.7-0.94,9.17-4.99,13.07
				c-0.29,0.28-0.59,0.55-0.89,0.82c-0.24,0.21-0.49,0.4-0.74,0.6c0.01,3.29,0.54,9.06,6.44,12.6c0.23,0.14,0.46,0.27,0.67,0.4
				c0.14-0.04,0.3-0.05,0.51,0.03c1.26,0.49,6.15,2.01,10.78,3.52c0.2-1.52-0.21-3.12-1.67-4.67c-6.97-7.46,0.86-6.4,0.53-14.57
				c-0.21-5.2-5.79-7.15-4.02-12.71c2.81-8.85-1.41-24.33-8.08-26.93c-15.78-10.64-31.04-4.93-36.33,9.45
				c-5.55,15.06,3.99,17.1-2.92,24c-2.28,2.28-3.08,5.87-2.17,8.19c1.77,4.5,6.03,9.09,3.04,11.93c-1.92,1.82-3.44,3.5-3.87,5.31
				C109.5,434.79,110.75,434.38,111.93,433.99L111.93,433.99z"/>
			<path id="XMLID_94_" class="st5" d="M145.35,418.66c-0.73,0.59-1.48,1.14-2.29,1.62c-0.92,0.54-1.9,0.99-2.92,1.31
				c-0.92,0.3-1.88,0.49-2.85,0.59c-1.2,0.12-2.43,0.08-3.62-0.1c-0.98-0.16-1.94-0.42-2.86-0.78c-1.04-0.41-2.02-0.94-2.94-1.55
				c-0.49-0.33-0.96-0.68-1.41-1.05c-0.02,3.3-0.56,9.04-6.44,12.56c-0.23,0.14-0.46,0.28-0.67,0.41c1.47,0.52-0.74,8.03,5,14.61
				c2.54,2.91,7.52,4.11,11.63,4.08c4.11-0.03,9.2-1.42,11.46-4.08c5.6-6.6,3.49-14.13,5.01-14.61c-0.21-0.13-0.44-0.26-0.67-0.4
				C145.89,427.72,145.37,421.96,145.35,418.66z"/>
			<path id="XMLID_93_" class="st6" d="M130.82,421.3c0.92,0.36,1.88,0.62,2.86,0.78c1.19,0.19,2.42,0.23,3.62,0.1
				c0.97-0.1,1.92-0.29,2.85-0.59c1.02-0.33,1.99-0.78,2.92-1.31c0.81-0.47,1.56-1.03,2.29-1.62c0.25-0.2,0.5-0.39,0.74-0.6
				c0.3-0.27,0.6-0.54,0.89-0.82c4.04-3.9,4.01-13.77,4.99-13.07c2.23,1.5,3.66-2.96,3.94-5.61c0.2-1.86-0.35-2.95-1.07-3.05
				c-0.02,0.03-0.04,0.07-0.05,0.07c-1.66,0.48-1.99,2.12-2.43,1.77c-0.98-0.79-7.92-3.1-13.37-5.97
				c-6.49-3.41-7.83-4.46-11.53-4.88L123,390.4c-3.7,3.07-4.09,7.04-4.5,6.23c-0.51-1-0.98-0.75-1.33-1.13
				c-0.83-0.11-1.51,1.01-1.29,3.06c0.28,2.65,1.71,7.11,3.94,5.61c0.98-0.7,0.94,9.17,4.99,13.07c0.53,0.51,1.08,0.99,1.66,1.45
				c0.46,0.37,0.92,0.72,1.41,1.05C128.8,420.37,129.78,420.9,130.82,421.3z"/>
			<path id="XMLID_92_" class="st7" d="M112.8,462.1l3.93,0.02L112.8,462.1c0-0.01-0.29-20.17-0.86-28.1
				c-1.19,0.39-2.44,0.8-3.67,1.2c-4.65,1.54-9.1,3.08-9.44,3.52c0,0,0,0,0,0.01c0.14-0.06,0.29-0.09,0.43-0.09
				c4.58,0,8.85,24.99,9.14,29.91c0.06,1.09,0.23,2.45,0.34,4.2c1.41,0.62,2.84,1.2,4.3,1.73
				C112.9,467.76,112.51,462.48,112.8,462.1z"/>
			<path id="XMLID_89_" class="st7" d="M172.38,438.63c0.2-0.08,0.39-0.07,0.59-0.02c0,0,0-0.01,0-0.01
				c-0.33-0.44-4.65-1.91-9.21-3.39c-4.63-1.51-9.52-3.03-10.78-3.52c-0.21-0.08-0.37-0.07-0.51-0.03
				c-1.52,0.48,0.6,8.01-5.01,14.61c-2.27,2.67-7.35,4.06-11.46,4.08c-4.11,0.03-9.09-1.17-11.63-4.08
				c-5.74-6.58-3.53-14.09-5-14.61c-0.14-0.05-0.3-0.06-0.52,0.02c-0.52,0.2-1.67,0.59-3.16,1.08c0.79,3.94,1.05,29.35,1.05,29.35
				l19.09,0.11l23.02-0.13c0.29,0.38-0.1,5.66-0.23,12.38c1.48-0.54,2.94-1.13,4.37-1.76c0.06-1.74,0.19-3.07,0.26-4.17
				C163.53,463.62,167.42,440.61,172.38,438.63z M158.83,462.09l-3.93,0.03c0,0,0.27-25.47,1.06-29.41l3.74,1.22
				C159.11,441.85,158.83,462.09,158.83,462.09z"/>
			<path id="XMLID_88_" d="M158.85,462.1l-23.02,0.13l-19.09-0.11c0,0-0.26-25.41-1.05-29.35l0,0l-3.75,1.22l0,0
				c0.57,7.93,0.86,28.1,0.86,28.1l3.93,0.03l-3.93-0.02c-0.28,0.38,0.1,5.66,0.24,12.38c7.12,2.56,14.79,3.97,22.79,3.97
				c8,0,15.67-1.4,22.79-3.97C158.75,467.76,159.13,462.48,158.85,462.1z"/>
			<path id="XMLID_87_" class="st8" d="M179.44,462.36c-1.69-12.15-3.97-23.1-6.48-23.75c-0.19-0.05-0.39-0.05-0.59,0.02
				c-4.96,1.97-8.85,24.99-9.14,29.91c-0.06,1.1-0.19,2.42-0.26,4.17C168.98,470.06,174.52,466.56,179.44,462.36z"/>
			<path id="XMLID_86_" class="st8" d="M99.26,438.63c-0.15,0-0.29,0.04-0.43,0.09c-2.69,1.05-4.99,11.74-6.66,23.6
				c4.95,4.23,10.53,7.76,16.57,10.42c-0.1-1.75-0.27-3.11-0.34-4.2C108.11,463.62,103.84,438.63,99.26,438.63z"/>
			<path id="XMLID_85_" d="M159.69,433.93l-3.74-1.22c-0.79,3.94-1.06,29.41-1.06,29.41l3.93-0.03
				C158.83,462.09,159.11,441.85,159.69,433.93z"/>
		</g>
		<g>
			<circle class="st9" cx="72.5" cy="450.5" r="36.5"/>
			<g>
				<path class="st1" d="M93.44,468.15l-8.48-10.99c-0.15-0.2-0.44-0.24-0.64-0.08l-4.35,3.36c-0.2,0.16-0.24,0.44-0.08,0.64
					l0.08,0.1c-3.03-0.26-8.5-4.06-11.72-8.17c-3.16-4.16-5.45-10.41-4.94-13.41l0.08,0.1c0.15,0.2,0.44,0.24,0.64,0.08l4.35-3.36
					c0.2-0.15,0.24-0.44,0.08-0.64l-8.49-10.99c-0.15-0.2-0.44-0.24-0.64-0.08l-4.35,3.36c-0.2,0.15-0.23,0.44-0.08,0.64l0,0
					c-2.3,2.39-3.08,5.18-2.27,9.12c0.4,1.97,1.43,9.86,9.28,20.06c7.88,10.17,15.27,13.17,17.07,14.06c3.61,1.78,6.5,1.73,9.4,0.11
					l0,0c0.15,0.2,0.44,0.23,0.64,0.08l4.35-3.36C93.56,468.64,93.6,468.35,93.44,468.15z"/>
			</g>
		</g>
	</g>
</g>
<g id="Capa_3">
	<g>
		<circle id="XMLID_8235_" class="st3" cx="308.06" cy="434.49" r="67.25"/>
		<g id="XMLID_7873_">
			<path id="XMLID_7895_" class="st10" d="M294.84,445.7c0.05-0.15,0.09-0.3,0.13-0.45L294.84,445.7z"/>
			<path id="XMLID_7894_" class="st11" d="M294.98,445.26c-0.04,0.15-0.09,0.3-0.13,0.45l-0.39,1.29c-2.1,3.95,1.14,8.83,4.28,12.17
				c0,0,4.52,3.91,8,9.99c3.48-6.07,8-9.99,8-9.99c3.14-3.34,6.38-8.22,4.28-12.17l-0.48-2.46c0,0,0,0,0,0
				c-0.19-0.76-0.32-1.49-0.4-2.19c-0.03,0.02-0.05,0.05-0.08,0.07c-1.02,0.89-2.11,1.71-3.27,2.4c-1,0.58-2.05,1.07-3.15,1.42
				c-1,0.32-2.03,0.53-3.08,0.64c-1.3,0.13-2.63,0.09-3.92-0.11c-1.06-0.17-2.1-0.45-3.1-0.84c-1.12-0.44-2.18-1.01-3.18-1.68
				c-0.98-0.65-1.89-1.41-2.76-2.21c-0.07,0.78-0.2,1.63-0.42,2.51c0.01,0,0.02-0.01,0.02-0.01L294.98,445.26z"/>
			<path id="XMLID_7893_" class="st12" d="M262.78,461.14c-0.11-0.17,0.03-0.36,0.37-0.55c-0.11,0.02-0.21,0.03-0.32,0.06
				c-2.83,0.79-5.92,8.08-8.14,16.05c4.64,5.75,10.22,10.72,16.49,14.68c-0.44-4.26-0.75-8.23-0.91-11.42
				C269.72,469.34,263.5,462.21,262.78,461.14z"/>
			<path id="XMLID_7892_" class="st12" d="M351.24,460.79c0.12,0.12,0.15,0.23,0.08,0.34c-0.72,1.08-6.94,8.2-7.48,18.82
				c-0.16,3.15-0.53,7.14-1.03,11.46c6.19-3.9,11.71-8.77,16.32-14.42C356.99,469.22,354.01,462.06,351.24,460.79z"/>
			<path id="XMLID_7891_" class="st13" d="M320.88,461.3c-1.5,1.23-3.6,3.39-5.86,7.15c-3.78,6.26-4.65,12.6-4.81,14.17l-0.03,0.37
				h-6.87l-0.03-0.37c-0.16-1.57-1.04-7.91-4.81-14.17c-2.27-3.76-4.37-5.93-5.86-7.15c-2.89,0.27-9.18,1.56-9.42,1.61
				c1.49,10.15,3.36,26.63,4.34,35.94c4.03,1.22,8.22,2.08,12.53,2.53h4.19h5.21h4.59c4.09-0.42,8.07-1.23,11.9-2.35
				c0.97-9.28,2.86-25.91,4.36-36.13C329.82,462.8,323.72,461.56,320.88,461.3z"/>
			<path id="XMLID_7890_" class="st13" d="M263.14,460.58c-0.34,0.2-0.48,0.38-0.37,0.55c0.72,1.08,6.94,8.2,7.48,18.82
				c0.16,3.19,0.48,7.16,0.91,11.42c2.24,1.42,4.57,2.71,6.98,3.86c-1.3-12.91-3.1-33.24-3.58-38.12
				C270.02,458.61,264.64,459.72,263.14,460.58z"/>
			<path id="XMLID_7889_" class="st13" d="M330.3,462.8c0.74-5.02,1.39-8.47,1.78-8.68c0.01,0,0.02,0,0.03,0
				c-2.4-1.02-4.84-1.97-6.78-2.37C326.87,454.52,328.53,458.15,330.3,462.8z"/>
			<path id="XMLID_7888_" class="st13" d="M283.16,462.85c1.82-4.79,3.55-8.49,5.18-11.29c-1.92,0.48-4.4,1.58-6.86,2.7
				C281.88,454.98,282.48,458.25,283.16,462.85z"/>
			<path id="XMLID_7887_" class="st13" d="M351.33,461.14c0.07-0.11,0.04-0.22-0.08-0.34c-0.93-0.93-7.31-2.16-12.36-3.89
				c0,0,0,0,0,0c-0.44,4.54-2.31,25.55-3.63,38.62c2.61-1.21,5.13-2.58,7.55-4.11c0.51-4.32,0.87-8.31,1.03-11.46
				C344.38,469.34,350.61,462.21,351.33,461.14z"/>
			<path id="XMLID_7886_" class="st14" d="M338.89,456.9c0.13-1.38-6.17-2.99-6.78-2.78c-0.01,0-0.02,0-0.03,0
				c-0.4,0.21-1.04,3.66-1.78,8.68c0.01,0.04,0.03,0.07,0.04,0.1c0,0-0.04-0.01-0.05-0.01c-1.5,10.21-3.39,26.85-4.36,36.13
				c3.22-0.94,6.34-2.11,9.34-3.5C336.58,482.45,338.44,461.44,338.89,456.9C338.89,456.9,338.89,456.9,338.89,456.9z"/>
			<path id="XMLID_7885_" class="st14" d="M283.16,462.9c0,0-0.03,0.01-0.03,0.01c0.01-0.02,0.01-0.03,0.02-0.05
				c-0.68-4.6-1.28-7.88-1.68-8.59c-0.04-0.07-0.08-0.12-0.11-0.14c-0.48-0.26-6.95,1.38-6.81,2.78c0.01,0.06,0.01,0.14,0.02,0.21
				c0.47,4.88,2.28,25.21,3.58,38.12c3,1.43,6.12,2.64,9.35,3.61C286.53,489.53,284.66,473.05,283.16,462.9z"/>
			<path id="XMLID_7884_" class="st15" d="M301.53,445.91c1,0.39,2.04,0.67,3.1,0.84c1.29,0.2,2.62,0.24,3.92,0.11
				c1.05-0.11,2.08-0.32,3.08-0.64c1.1-0.35,2.16-0.84,3.15-1.42c1.17-0.68,2.26-1.5,3.27-2.4c0.03-0.02,0.05-0.05,0.08-0.07
				c0.3-0.27,0.6-0.54,0.89-0.82c4.37-4.22,4.34-14.89,5.39-14.14c2.41,1.62,3.96-3.21,4.26-6.07c0.3-2.87-1.01-4.07-2.21-2.87
				c-0.07,0.07-0.13,0.12-0.19,0.18c-0.37,0.73-1.71,0.47-2.27,1.39c-0.45,0.74-0.43-1.55-0.74-3.32c-0.04-0.01-0.08,0-0.12-0.01
				c-1.95-0.56-4.1-4.46-12.08-5.47c-1.2-0.04-2.46-0.11-3.75-0.24c-0.09,0-0.17-0.01-0.26-0.01c-11.34,0-13.85,5.07-16.09,5.72
				c-0.23,0.07-0.44,0.05-0.63-0.01c-0.24,1.97,0.09,3.82-0.57,3.23c-0.97-0.86-1.96-0.93-2.28-1.53c0,0-0.01-0.02-0.01-0.03
				c-1.17-0.99-2.37,0.21-2.08,2.97c0.3,2.87,1.85,7.69,4.26,6.07c1.06-0.75,1.02,9.92,5.39,14.14c0.18,0.17,0.38,0.33,0.56,0.5
				c0.87,0.8,1.78,1.55,2.76,2.21C299.35,444.9,300.41,445.47,301.53,445.91z"/>
			<path id="XMLID_7883_" class="st16" d="M306.74,469.15c-3.48-6.07-8-9.99-8-9.99c1.76,1.57,5.13,5.71,5.13,5.71
				c-4.87-4.86-8.81-3.24-9.96-3.59c-0.2-0.06-0.68-0.05-1.31,0.01c1.5,1.23,3.6,3.39,5.86,7.15c3.78,6.26,4.65,12.6,4.81,14.17
				l-0.28-2.98C303.52,475.74,305,472.18,306.74,469.15z"/>
			<path id="XMLID_7882_" class="st16" d="M310.21,482.61c-0.02,0.24-0.03,0.37-0.03,0.37L310.21,482.61z"/>
			<path id="XMLID_7881_" class="st12" d="M283.16,462.85c-0.01,0.02-0.01,0.03-0.02,0.05c0,0,0.02,0,0.03-0.01
				c0.25-0.05,6.54-1.33,9.42-1.61c0.63-0.06,1.11-0.07,1.31-0.01c1.14,0.35,5.08-1.27,9.96,3.59c0,0-3.37-4.14-5.13-5.71
				c-3.14-3.34-6.38-8.22-4.28-12.17l0.39-1.29l0.13-0.45l0.22-0.73c-0.01,0-0.02,0.01-0.02,0.01c-1.97,0.49-4.28,2.64-6.83,7.03
				C286.71,454.36,284.98,458.07,283.16,462.85z"/>
			<path id="XMLID_7880_" class="st17" d="M319.57,461.29c-1.14,0.35-5.08-1.27-9.96,3.59c0,0,3.37-4.14,5.13-5.71
				c0,0-4.52,3.91-8,9.99c-1.74,3.03-3.22,6.59-3.75,10.48l0.28,2.98l0.03,0.37h6.87c0,0,0.01-0.14,0.03-0.37
				c0.16-1.57,1.04-7.91,4.81-14.17c2.27-3.76,4.37-5.93,5.86-7.15C320.25,461.24,319.77,461.22,319.57,461.29z"/>
			<path id="XMLID_7879_" class="st12" d="M319.02,446.99c2.1,3.95-1.14,8.83-4.28,12.17c-1.76,1.57-5.13,5.71-5.13,5.71
				c4.87-4.86,8.81-3.24,9.96-3.59c0.2-0.06,0.68-0.05,1.31,0.01c2.83,0.27,8.94,1.51,9.4,1.6c0.02,0,0.05,0.01,0.05,0.01
				c-0.01-0.04-0.03-0.07-0.04-0.1c-1.77-4.65-3.42-8.29-4.97-11.05c-2.54-4.53-4.78-6.73-6.79-7.22c0,0,0,0,0,0L319.02,446.99z"/>
			<path id="XMLID_7878_" class="st18" d="M325.77,411.52c-0.06,0.78-0.55,5.54-2.5,5.18c0.31,1.77,0.29,4.06,0.74,3.32
				c0.56-0.92,1.9-0.66,2.27-1.39c0.04-0.07,0.07-0.14,0.09-0.23c0.08-0.5,1.13-3.03,1.53-6.57l-0.19,1.05
				C327.39,412.68,326.75,412.19,325.77,411.52z"/>
			<path id="XMLID_7877_" class="st18" d="M289.75,419.91c0.66,0.59,0.33-1.26,0.57-3.23c-1.55-0.47-1.94-4.51-1.99-5.15
				c-0.99,0.67-1.62,1.16-1.94,1.36l-0.1-0.58c0.39,3.29,1.05,5.77,1.16,6.05c0,0.01,0.01,0.02,0.01,0.03
				C287.79,418.98,288.78,419.05,289.75,419.91z"/>
			<path id="XMLID_7876_" class="st18" d="M311.06,411.21c-1.13-0.14-2.38-0.23-3.75-0.24C308.59,411.1,309.86,411.17,311.06,411.21
				z"/>
			<path id="XMLID_7875_" class="st12" d="M288.33,411.52c0-0.06-0.01-0.09-0.01-0.09c7.78-8.25,18.72-7.18,18.72-7.18
				s10.95-1.09,18.73,7.15c0,0,0,0.05-0.01,0.12c0.99,0.67,1.62,1.17,1.94,1.36l0.19-1.05l0.65-3.63c0,0,0.19-8.51-4.68-13.82
				c-4.36-4.77-9.71-7.43-15.18-7.91c0-0.03,0.01-0.07,0.01-0.1c0-0.83-0.74-1.5-1.65-1.5c-0.91,0-1.65,0.67-1.65,1.5
				c0,0.03,0.01,0.07,0.01,0.1c-5.47,0.48-10.82,3.14-15.18,7.91c-4.86,5.31-4.68,13.82-4.68,13.82l0.73,4.1l0.1,0.58
				C286.72,412.68,287.35,412.19,288.33,411.52z"/>
			<path id="XMLID_7874_" class="st13" d="M325.77,411.52c0.01-0.07,0.01-0.12,0.01-0.12c-7.78-8.25-18.73-7.15-18.73-7.15
				s-10.94-1.06-18.72,7.18c0,0,0,0.04,0.01,0.09c0.05,0.64,0.44,4.68,1.99,5.15c0.19,0.06,0.4,0.08,0.63,0.01
				c2.24-0.65,4.75-5.72,16.09-5.72c0.09,0,0.17,0.01,0.26,0.01c1.38,0.01,2.63,0.09,3.75,0.24c7.98,1.01,10.13,4.91,12.08,5.47
				c0.04,0.01,0.08,0.01,0.12,0.01C325.22,417.06,325.7,412.3,325.77,411.52z"/>
		</g>
		<g>
			<circle class="st19" cx="254.5" cy="475.5" r="36.5"/>
		</g>
		<g>
			<path class="st1" d="M275.44,493.15l-8.48-10.99c-0.15-0.2-0.44-0.24-0.64-0.08l-4.35,3.36c-0.2,0.16-0.24,0.44-0.08,0.64
				l0.08,0.1c-3.03-0.26-8.5-4.06-11.72-8.17c-3.16-4.16-5.45-10.41-4.94-13.41l0.08,0.1c0.15,0.2,0.44,0.24,0.64,0.08l4.35-3.36
				c0.2-0.15,0.24-0.44,0.08-0.64l-8.49-10.99c-0.15-0.2-0.44-0.24-0.64-0.08l-4.35,3.36c-0.2,0.15-0.23,0.44-0.08,0.64l0,0
				c-2.3,2.39-3.08,5.18-2.27,9.12c0.4,1.97,1.43,9.86,9.28,20.06c7.88,10.17,15.27,13.17,17.07,14.06c3.61,1.78,6.5,1.73,9.4,0.11
				l0,0c0.15,0.2,0.44,0.23,0.64,0.08l4.35-3.36C275.56,493.64,275.6,493.35,275.44,493.15z"/>
		</g>
	</g>
</g>
<g id="Capa_4">
	<g>
		<circle id="XMLID_59_" class="st3" cx="499.89" cy="453.49" r="67.25"/>
		<g id="XMLID_42_">
			<path id="XMLID_58_" class="st10" d="M517.27,470.6c0.14,0.13,0.26,0.26,0.38,0.37C517.52,470.81,517.39,470.69,517.27,470.6z"/>
			<path id="XMLID_57_" class="st10" d="M483.88,470.49c-0.16,0.1-0.41,0.3-0.64,0.63C483.42,470.94,483.63,470.73,483.88,470.49z"
				/>
			<path id="XMLID_56_" class="st20" d="M500.4,478.05c0.06,0.05,0.1,0.11,0.12,0.17c0.02-0.06,0.06-0.12,0.12-0.17
				c8-6.13,11.15-10.24,12.55-11.32c-0.96-2.06-1.35-4.09-1.51-5.77c-0.17,0.15-0.33,0.31-0.5,0.46c-0.96,0.84-1.98,1.61-3.09,2.26
				c-0.94,0.55-1.93,1.01-2.97,1.34c-0.94,0.3-1.92,0.5-2.9,0.6c-1.22,0.12-2.48,0.09-3.7-0.11c-1-0.16-1.98-0.42-2.92-0.79
				c-1.06-0.41-2.06-0.96-3-1.58c-1.12-0.75-2.16-1.62-3.13-2.55c0,0-0.01-0.01-0.01-0.01c-0.13,1.76-0.52,3.97-1.57,6.19
				C489.32,467.9,492.47,471.99,500.4,478.05z"/>
			<path id="XMLID_55_" class="st8" d="M497.88,489.45c-1.08-2.42-2.29-3.81-2.42-5.81c-1.1,1.23-1.92,2.53-1.8,3.75
				c0.32,3.43-9.67-8.1-10.92-13.94c-0.13,1.03-0.21,3.38,2.93,8.01c1.55,2.29,5.68,14.09,9.75,26.79
				c1.28-8.55,2.51-16.31,2.89-18.38C498.12,489.76,497.96,489.63,497.88,489.45z"/>
			<path id="XMLID_54_" class="st8" d="M503.16,489.45c-0.08,0.18-0.24,0.32-0.43,0.42c0.39,2.12,1.67,10.24,2.99,19.05
				c3.44-11.8,7.69-24.64,9.61-27.46c3.01-4.43,3.06-6.77,2.95-7.86c-1.39,5.88-11.22,17.19-10.89,13.79
				c0.11-1.22-0.7-2.51-1.8-3.75C505.45,485.64,504.24,487.03,503.16,489.45z"/>
			<path id="XMLID_53_" class="st8" d="M516.59,484.85l0.08,0.06c0.01-0.02,0.02-0.05,0.03-0.07
				C516.64,484.84,516.59,484.85,516.59,484.85z"/>
			<path id="XMLID_52_" class="st21" d="M505.72,508.92c-1.32-8.81-2.6-16.93-2.99-19.05c0.18-0.11,0.35-0.25,0.43-0.42
				c1.08-2.42,2.29-3.81,2.42-5.81c-1.94-2.17-4.77-4.14-5.06-5.13c-0.29,0.99-3.12,2.96-5.06,5.13c0.13,2.01,1.34,3.39,2.42,5.81
				c0.08,0.18,0.24,0.32,0.43,0.42c-0.38,2.07-1.6,9.83-2.89,18.38c1.33,4.16,2.66,8.41,3.88,12.46c0.26,0,0.52,0.02,0.79,0.02
				c0.8,0,1.59-0.03,2.38-0.06C503.36,517.22,504.48,513.14,505.72,508.92z"/>
			<path id="XMLID_51_" class="st7" d="M483.88,470.49c-0.24,0.24-0.46,0.45-0.64,0.63c-0.27,0.39-0.49,0.97-0.45,1.82
				c0.01,0.11-0.03,0.27-0.05,0.51c1.25,5.84,11.25,17.37,10.92,13.94c-0.11-1.22,0.7-2.51,1.8-3.75c1.94-2.17,4.77-4.14,5.06-5.13
				c0.29,0.99,3.12,2.96,5.06,5.13c1.1,1.23,1.92,2.53,1.8,3.75c-0.32,3.4,9.51-7.9,10.89-13.79c-0.03-0.31-0.08-0.53-0.07-0.66
				c0.05-0.96-0.24-1.58-0.55-1.97c-0.12-0.11-0.24-0.24-0.38-0.37c-0.18-0.13-0.32-0.2-0.32-0.2s0.04-0.01,0.11-0.01
				c-0.82-0.81-1.9-1.96-2.95-3.72c-0.19-0.33-0.47-0.3-0.93,0.06c-1.4,1.09-4.54,5.19-12.55,11.32c-0.06,0.05-0.1,0.11-0.12,0.17
				c-0.02-0.06-0.06-0.12-0.12-0.17c-7.92-6.07-11.08-10.15-12.5-11.29c-0.49-0.39-0.77-0.44-0.97-0.1
				c-1.04,1.77-2.13,2.92-2.95,3.73c0.04,0,0.06,0.01,0.06,0.01S483.97,470.43,483.88,470.49z"/>
			<path id="XMLID_50_" class="st22" d="M492.6,463.14c0.94,0.63,1.95,1.17,3,1.58c0.94,0.37,1.92,0.64,2.92,0.79
				c1.22,0.19,2.47,0.23,3.7,0.11c0.99-0.1,1.96-0.3,2.9-0.6c1.04-0.33,2.03-0.79,2.97-1.34c1.1-0.65,2.13-1.42,3.09-2.26
				c0.17-0.15,0.33-0.31,0.5-0.46c0.14-0.13,0.27-0.25,0.41-0.38c4.12-3.98,4.09-14.04,5.08-13.33c2.27,1.53,3.73-3.02,4.02-5.72
				c0.24-2.32-0.63-3.47-1.6-3.04c-0.26,0.58-0.58,1.01-0.98,1.24c0,0-1.42,5.88-2.03,5.7c-0.61-0.18-0.34-5.49,0.61-11.7
				c1.02-6.61-7.11-3.73-12.8-3.91c-5.69-0.18-18.85-1.29-19.87,1.83c-1.02,3.12,0.97,12.56,0.16,12.92
				c-0.81,0.37-1.83-4.28-2.64-5.2c-0.13-0.15-0.27-0.5-0.4-0.97c-0.82-0.04-1.47,1.1-1.25,3.14c0.28,2.7,1.74,7.25,4.02,5.72
				c0.99-0.71,0.96,9.32,5.07,13.31c0,0,0.01,0.01,0.01,0.01C490.44,461.52,491.48,462.39,492.6,463.14z"/>
			<path id="XMLID_49_" class="st23" d="M484.67,444.58c0.81-0.37-1.17-9.8-0.16-12.92c1.02-3.12,14.18-2.01,19.87-1.83
				c5.69,0.18,13.82-2.7,12.8,3.91c-0.95,6.21-1.22,11.52-0.61,11.7c0.61,0.18,2.03-5.7,2.03-5.7c0.4-0.23,0.72-0.67,0.98-1.24
				c1.6-3.55,0.85-12.61,0.85-14.19c0-1.84-2.84-4.96-4.06-4.96c-1.22,0-0.2-5.14-8.53-7.35c-8.33-2.2-15.65-1.1-19.71,0.92
				c-4.06,2.02-7.11,5.51-8.94,6.06c-1.83,0.55,0.61,1.84-0.81,3.12c-1.42,1.29,1.02,2.94,1.42,5.51c0.34,2.16,1.11,8.31,1.83,10.78
				c0.14,0.47,0.27,0.83,0.4,0.97C482.85,440.29,483.86,444.94,484.67,444.58z"/>
			<path id="XMLID_48_" class="st24" d="M524.09,476.16c2,3.58,2.11,5.77,3.52,6.82c1.34,0.99-9.71,1.78-10.9,1.86
				c-0.01,0.02-0.02,0.05-0.03,0.07l7.74,5.85c0,0-6.73,9.17-10.34,14.54c-1.27,1.89-4.44,7.33-6.21,10.44
				c-0.5,0.88-1.48,2.72-2.58,4.78c10.52-0.81,20.36-4.02,28.96-9.11c1.09-13.22,4.16-31.06,10.13-30.03
				c-2.37-1.01-8.99-2.33-13.47-4.15c-3.87-1.57-6.95-3.55-8.87-3.58C522.78,474.32,523.52,475.14,524.09,476.16z"/>
			<path id="XMLID_47_" d="M517.27,470.6c0.12,0.09,0.25,0.21,0.38,0.37c0.31,0.39,0.6,1,0.55,1.97c-0.01,0.13,0.04,0.34,0.07,0.66
				c0.11,1.09,0.06,3.44-2.95,7.86c-1.92,2.82-6.16,15.66-9.61,27.46c-1.23,4.22-2.36,8.3-3.24,11.75c0.94-0.03,1.88-0.09,2.82-0.16
				c1.1-2.06,2.08-3.91,2.58-4.78c1.77-3.11,4.95-8.55,6.21-10.44c3.61-5.37,10.34-14.54,10.34-14.54l-7.74-5.85l-0.08-0.06
				c0,0,0.04,0,0.11-0.01c1.2-0.08,12.24-0.87,10.9-1.86c-1.41-1.05-1.52-3.24-3.52-6.82c-0.57-1.02-1.31-1.84-2.04-2.52
				c-1-0.92-1.98-1.57-2.49-2c-1.4-1.19-2.23-1.27-2.5-1.25c-0.06,0-0.11,0.01-0.11,0.01S517.09,470.46,517.27,470.6z"/>
			<path id="XMLID_46_" class="st25" d="M467.71,512.43c8.3,4.57,17.67,7.42,27.64,8.12c-1.08-2.43-1.9-4.25-2.23-4.82
				c-1.77-3.11-4.95-8.55-6.21-10.44c-3.61-5.37-10.34-14.54-10.34-14.54l7.83-5.91c0,0-12.43-0.82-11.02-1.87
				c1.41-1.05,1.52-3.24,3.52-6.82c0.59-1.05,1.36-1.89,2.11-2.58c-1.9,0.56-4.51,2.1-7.64,3.37c-4.94,2.01-12.48,3.41-14.06,4.45
				C463.57,479.91,466.69,499,467.71,512.43z"/>
			<path id="XMLID_45_" d="M476.9,476.16c-2,3.58-2.11,5.77-3.52,6.82c-1.41,1.05,11.02,1.87,11.02,1.87l-7.83,5.91
				c0,0,6.73,9.17,10.34,14.54c1.27,1.89,4.44,7.33,6.21,10.44c0.32,0.57,1.15,2.39,2.23,4.82c1.31,0.09,2.62,0.15,3.95,0.17
				c-1.23-4.05-2.55-8.31-3.88-12.46c-4.07-12.7-8.2-24.5-9.75-26.79c-3.15-4.63-3.06-6.99-2.93-8.01c0.03-0.23,0.06-0.4,0.05-0.51
				c-0.04-0.85,0.18-1.43,0.45-1.82c0.23-0.34,0.48-0.53,0.64-0.63c0.09-0.06,0.16-0.09,0.16-0.09s-0.03,0-0.06-0.01
				c-0.22-0.02-1.06,0-2.54,1.25c-0.49,0.42-1.44,1.05-2.42,1.93C478.26,474.27,477.49,475.11,476.9,476.16z"/>
			<path id="XMLID_44_" d="M467.71,512.43c-1.02-13.44-4.15-32.52-10.4-31.04c-0.26,0.06-0.52,0.15-0.79,0.29
				c-1.44,0.71-2.89,8.19-4.7,18.61C456.47,505.08,461.82,509.19,467.71,512.43z"/>
			<path id="XMLID_43_" d="M534.25,511.4c5.79-3.43,11.04-7.69,15.55-12.63c-1.69-9.62-3.07-16.42-4.44-17.09
				c-0.33-0.17-0.66-0.25-0.97-0.31C538.42,480.35,535.34,498.19,534.25,511.4z"/>
		</g>
		<g>
			<circle class="st9" cx="457.5" cy="496.5" r="36.5"/>
			<g>
				<path class="st1" d="M478.44,514.15l-8.48-10.99c-0.15-0.2-0.44-0.24-0.64-0.08l-4.35,3.36c-0.2,0.16-0.24,0.44-0.08,0.64
					l0.08,0.1c-3.03-0.26-8.5-4.06-11.72-8.17c-3.16-4.16-5.45-10.41-4.94-13.41l0.08,0.1c0.15,0.2,0.44,0.24,0.64,0.08l4.35-3.36
					c0.2-0.15,0.24-0.44,0.08-0.64l-8.49-10.99c-0.15-0.2-0.44-0.24-0.64-0.08l-4.35,3.36c-0.2,0.15-0.23,0.44-0.08,0.64l0,0
					c-2.3,2.39-3.08,5.18-2.27,9.12c0.4,1.97,1.43,9.86,9.28,20.06c7.88,10.17,15.27,13.17,17.07,14.06c3.61,1.78,6.5,1.73,9.4,0.11
					l0,0c0.15,0.2,0.44,0.23,0.64,0.08l4.35-3.36C478.56,514.64,478.6,514.35,478.44,514.15z"/>
			</g>
		</g>
	</g>
</g>
<g id="Capa_5">
	<g>
		<g>
			<circle id="XMLID_8233_" class="st3" cx="713.42" cy="440.49" r="67.25"/>
			<g id="XMLID_7837_">
				<path id="XMLID_7855_" class="st5" d="M701.61,452.42c0,0-0.8,3.99,1.72,7.5c2.2,3.06,5.6,8.65,7.24,11.56l0,0
					c0.08,0.13,0.15,0.28,0.23,0.42c0.03,0.06,0.07,0.13,0.1,0.18c0.05,0.09,0.1,0.19,0.15,0.28c0.2,0.38,0.34,0.66,0.41,0.83
					c1.4,2.98,2.41,6.49,2.8,7.96c0.27-1.08,0.7-2.58,1.33-4.3c0.42-1.2,0.92-2.48,1.48-3.67c0.07-0.16,0.21-0.45,0.41-0.83
					c0.05-0.1,0.1-0.19,0.15-0.28c0.03-0.06,0.07-0.12,0.1-0.18c0.08-0.14,0.15-0.28,0.23-0.42l0,0c1.64-2.92,5.04-8.5,7.24-11.56
					c2.53-3.51,1.72-7.5,1.72-7.5l-0.39-1.32c-0.4-1.27-0.61-2.5-0.71-3.62c-4.57,3.88-6.2,5.2-11.82,5
					c-5.46,0.19-7.15-1.05-11.43-4.67c-0.09,0.84-0.24,1.73-0.49,2.65c0.03-0.01,0.07-0.02,0.1-0.04L701.61,452.42z"/>
				<path id="XMLID_7854_" class="st26" d="M696.6,468.1c0.09-4.04,0.66-9.32,1.16-12.16c-1.25,0.78-2.83,1.52-4.59,2.25
					c0,0,0,0,0.01,0.01C694.03,460.82,695.21,464.27,696.6,468.1z"/>
				<path id="XMLID_7853_" class="st26" d="M714.1,481.86L714.1,481.86C714.1,481.86,714.1,481.85,714.1,481.86
					c0.03-0.15,0.07-0.31,0.11-0.47c-0.42-0.81-1.44-2.6-3.38-5.01c-2.01-2.5-3.26-2.8-3.26-2.8s-1.3-0.65,0.23-1.44l0.99-0.49
					c-5.69-3.23-8.26,0.27-10.3,1.52c4.35,11.29,10.11,24.02,15.28,28.67c0.03,0.03,0.06,0.09,0.09,0.17v-19.05
					C713.87,482.95,713.94,482.55,714.1,481.86z"/>
				<path id="XMLID_7852_" class="st27" d="M731.88,466.31c1.14-3.18,2.11-6.03,2.84-8.29c-1.47-0.63-2.8-1.25-3.91-1.91
					C731.23,458.57,731.7,462.69,731.88,466.31z"/>
				<path id="XMLID_7851_" class="st27" d="M714.27,481.18c0.23-0.88,0.69-2.5,1.33-4.32c-0.63,1.72-1.06,3.22-1.33,4.3
					C714.27,481.17,714.27,481.17,714.27,481.18z"/>
				<path id="XMLID_7850_" class="st27" d="M719.75,471.64l0.99,0.49c1.54,0.79,0.23,1.44,0.23,1.44s-0.9,0.62-3.26,2.8
					c-2.1,1.94-3.05,3.93-3.41,4.89c0.1,0.37,0.15,0.6,0.15,0.6s-0.07-0.16-0.21-0.43c-0.09,0.26-0.13,0.42-0.14,0.43
					c-0.16,0.69-0.23,1.09-0.23,1.09V502c0.02,0.06,0.04,0.15,0.06,0.24c0.06-0.33,0.12-0.53,0.19-0.59
					c5.2-4.68,11-17.54,15.36-28.87C727.52,471.34,724.93,468.71,719.75,471.64z"/>
				<path id="XMLID_7849_" class="st27" d="M714.22,481.39C714.22,481.39,714.21,481.39,714.22,481.39
					c-0.05,0.16-0.08,0.31-0.12,0.46C714.11,481.83,714.14,481.67,714.22,481.39z"/>
				<path id="XMLID_7848_" class="st26" d="M671,466.16c-0.29,0.02-0.6,0.06-0.93,0.15c-3.27,0.87-5.13,9.43-7.39,18.29
					c4.74,5.44,10.33,10.12,16.57,13.81c0-2.63-0.11-5.03-0.45-6.92C677.72,485.5,670.72,468.27,671,466.16z"/>
				<path id="XMLID_7847_" class="st26" d="M757.86,466.31c-0.34-0.09-0.65-0.13-0.95-0.15c-0.08,2.78-6.76,19.3-7.82,25.14
					c-0.32,1.78-0.43,4.02-0.45,6.47c6.2-3.82,11.73-8.61,16.38-14.17C762.99,475.08,761,467.15,757.86,466.31z"/>
				<path id="XMLID_7846_" class="st28" d="M756.91,466.16c0.01-0.22-0.02-0.36-0.11-0.4c-1.12-0.5-21.65-9.04-22.07-7.76
					c0,0,0,0.01,0,0.01c-0.74,2.25-1.7,5.11-2.84,8.29c0.2,4,0.06,7.38-0.88,7.24c-0.48-0.07-0.98-0.38-1.52-0.78
					c-4.36,11.34-10.16,24.19-15.36,28.87c-0.07,0.06-0.13,0.27-0.19,0.59c0.18,0.8,0.32,2.75,0.42,5.47
					c12.57-0.17,24.3-3.78,34.3-9.94c0.02-2.45,0.13-4.69,0.45-6.47C750.15,485.46,756.83,468.94,756.91,466.16z"/>
				<path id="XMLID_7845_" class="st6" d="M714.02,452.49c5.62,0.19,7.25-1.12,11.82-5c0.06-0.05,0.11-0.09,0.16-0.14
					c4.94-4.19,2.45-12.94,5.45-12.39c2.94,0.54,6.29-7.44,4.17-9.45c-1.03-0.1-1.87,0.87-2.66,2.2c-0.89,1.49-0.54,3.79-1.42,3.73
					c-1.07-3.62-0.96-6.88-0.76-10.54c-4.9,1.28-10.92,2.28-16.33,2.28c-4.88,0-10.41-0.87-15.12-2.01c0.08,0.84,0.13,1.65,0.17,2.1
					c0.24,2.46-1.3,5.5-1.86,6.08c-0.37,0.38-1.27,1.95-1.8,2.09c-0.44,0.11-0.14-2.47-1.61-4.69c-1.16-1.75-1.7-1.37-1.7-1.37
					c-2.36,1.82,1.07,10.11,4.07,9.57c3-0.55,0.51,8.2,5.45,12.39c0.19,0.16,0.37,0.31,0.55,0.47
					C706.86,451.44,708.56,452.68,714.02,452.49z"/>
				<path id="XMLID_7844_" class="st23" d="M730.78,420.9c-0.2,3.66-0.31,6.92,0.76,10.54c0.88,0.05,0.54-2.24,1.42-3.73
					c0.79-1.33,1.63-2.3,2.66-2.2c0.13,0.01,0.25,0.03,0.38,0.08c0.94-1.99,1.55-4.46,1.82-7.04
					C736.09,419.33,733.63,420.16,730.78,420.9z"/>
				<path id="XMLID_7843_" class="st23" d="M694.22,426.76c1.47,2.22,1.17,4.79,1.61,4.69c0.54-0.13,1.43-1.71,1.8-2.09
					c0.57-0.58,2.1-3.62,1.86-6.08c-0.04-0.45-0.09-1.26-0.17-2.1c-3.39-0.82-6.35-1.79-8.34-2.68c0.01,0.17,0.02,0.34,0.04,0.51
					c0.11,1.14,0.81,5.36,1.49,6.39C692.52,425.39,693.06,425.01,694.22,426.76z"/>
				<path id="XMLID_7842_" class="st29" d="M717.83,419.09c3.45-0.24,8.69-0.68,11.51-1.28c5.68-1.21,8.5-2.07,9.89-2.27
					c0.2-0.08,0.3-0.13,0.3-0.13c0-6.84-1.55-19.13-11.78-24.83C727.08,391.71,718.43,406.47,717.83,419.09z"/>
				<path id="XMLID_7841_" class="st29" d="M699.55,417.8c2.82,0.6,8.06,1.04,11.51,1.28c-0.6-12.62-9.25-27.37-9.93-28.51
					c-10.22,5.7-11.78,18-11.78,24.83c0,0,0.1,0.05,0.3,0.13C691.06,415.73,693.88,416.6,699.55,417.8z"/>
				<path id="XMLID_7840_" class="st30" d="M699.33,421.18c4.71,1.14,10.24,2.01,15.12,2.01c5.41,0,11.43-1.01,16.33-2.28
					c2.85-0.74,5.31-1.57,7.05-2.35c1.71-0.76,2.73-1.48,2.73-2.01c0-0.89-0.2-1.17-1.32-1.01c-1.39,0.2-4.22,1.06-9.89,2.27
					c-2.82,0.6-8.06,1.04-11.51,1.28c0.6-12.62,9.25-27.37,9.93-28.51c0.03-0.05,0.05-0.08,0.05-0.08
					c-2.95-2.98-8.76-4.76-13.79-4.71c-4.79,0.04-10.22,1.97-12.93,4.71c0,0,0.02,0.03,0.05,0.08c0.68,1.14,9.34,15.89,9.93,28.51
					c-3.45-0.24-8.69-0.68-11.51-1.28c-5.68-1.21-8.5-2.07-9.89-2.27c-1.12-0.16-1.32,0.12-1.32,1.01c0,0.51,0.99,1.21,2.65,1.95
					C692.98,419.39,695.94,420.35,699.33,421.18z"/>
				<path id="XMLID_7839_" class="st31" d="M713.93,502.24c-0.02-0.09-0.04-0.18-0.06-0.24c-0.03-0.08-0.06-0.15-0.09-0.17
					c-5.17-4.65-10.93-17.38-15.28-28.67c-0.33,0.2-0.64,0.34-0.95,0.39c-0.79,0.12-1.02-2.29-0.95-5.45
					c-1.4-3.83-2.57-7.28-3.43-9.9c0,0,0,0-0.01-0.01c-0.49-1.25-20.95,7.26-22.07,7.76c-0.06,0.02-0.08,0.11-0.1,0.21
					c-0.28,2.11,6.72,19.33,7.81,25.32c0.34,1.89,0.45,4.29,0.45,6.92c10.01,5.92,21.69,9.33,34.16,9.33c0.31,0,0.62-0.02,0.93-0.02
					C714.24,504.99,714.11,503.04,713.93,502.24z"/>
				<path id="XMLID_7838_" class="st32" d="M696.6,468.1c-0.07,3.16,0.15,5.57,0.95,5.45c0.31-0.05,0.62-0.19,0.95-0.39
					c2.04-1.24,4.61-4.74,10.3-1.52l-0.99,0.49c-1.54,0.79-0.23,1.44-0.23,1.44s1.25,0.29,3.26,2.8c1.93,2.41,2.96,4.2,3.38,5.01
					c0,0,0,0.01,0,0.01c-0.07,0.28-0.11,0.43-0.12,0.46c0,0,0,0.01,0,0.01l0,0c0-0.01,0.04-0.17,0.14-0.43
					c0.14,0.28,0.21,0.43,0.21,0.43s-0.05-0.22-0.15-0.6c0.36-0.96,1.31-2.95,3.41-4.89c2.36-2.17,3.26-2.8,3.26-2.8
					s1.3-0.65-0.23-1.44l-0.99-0.49c5.18-2.93,7.77-0.3,9.73,1.13c0.54,0.39,1.03,0.7,1.52,0.78c0.94,0.14,1.08-3.24,0.88-7.24
					c-0.18-3.62-0.65-7.74-1.06-10.19c-0.11-0.66-0.22-1.2-0.32-1.58c-0.87-3.36-2.53-3.48-4.15-4.1l0.2,0.67l0.39,1.32
					c0,0,0.8,3.99-1.72,7.5c-2.2,3.06-5.6,8.65-7.24,11.56l0,0c-0.08,0.13-0.15,0.28-0.23,0.42c-0.03,0.06-0.07,0.13-0.1,0.18
					c-0.05,0.09-0.1,0.19-0.15,0.28c-0.2,0.38-0.34,0.66-0.41,0.83c-0.56,1.19-1.06,2.47-1.48,3.67c-0.64,1.81-1.09,3.44-1.33,4.32
					c0-0.01,0-0.01-0.01-0.02c-0.39-1.47-1.39-4.99-2.8-7.96c-0.07-0.16-0.21-0.45-0.41-0.83c-0.05-0.1-0.1-0.19-0.15-0.28
					c-0.03-0.06-0.07-0.12-0.1-0.18c-0.08-0.14-0.15-0.28-0.23-0.42l0,0c-1.64-2.92-5.04-8.5-7.24-11.56
					c-2.53-3.51-1.72-7.5-1.72-7.5l0.58-1.99c-0.03,0.01-0.07,0.02-0.1,0.04c-1.58,0.59-3.2,0.78-4.05,4.06
					c-0.09,0.34-0.19,0.83-0.29,1.4C697.26,458.77,696.69,464.05,696.6,468.1z"/>
			</g>
			<g>
				<circle class="st19" cx="662.5" cy="482.5" r="36.5"/>
			</g>
		</g>
		<g>
			<path class="st1" d="M684.44,500.15l-8.48-10.99c-0.15-0.2-0.44-0.24-0.64-0.08l-4.35,3.36c-0.2,0.16-0.24,0.44-0.08,0.64
				l0.08,0.1c-3.03-0.26-8.5-4.06-11.72-8.17c-3.16-4.16-5.45-10.41-4.94-13.41l0.08,0.1c0.15,0.2,0.44,0.24,0.64,0.08l4.35-3.36
				c0.2-0.15,0.24-0.44,0.08-0.64l-8.49-10.99c-0.15-0.2-0.44-0.24-0.64-0.08l-4.35,3.36c-0.2,0.15-0.23,0.44-0.08,0.64l0,0
				c-2.3,2.39-3.08,5.18-2.27,9.12c0.4,1.97,1.43,9.86,9.28,20.06c7.88,10.17,15.27,13.17,17.07,14.06c3.61,1.78,6.5,1.73,9.4,0.11
				l0,0c0.15,0.2,0.44,0.23,0.64,0.08l4.35-3.36C684.56,500.64,684.6,500.35,684.44,500.15z"/>
		</g>
	</g>
</g>
<g id="Capa_6">
	<g>
		<circle id="XMLID_21_" class="st3" cx="900.68" cy="403.49" r="67.25"/>
		<g id="XMLID_1_">
			<path id="XMLID_20_" class="st10" d="M882.27,387.22c0.13,0.07,0.27,0.17,0.4,0.3c0.15,0.15,0.28,0.26,0.4,0.33
				C882.88,387.59,882.63,387.34,882.27,387.22z"/>
			<path id="XMLID_19_" class="st20" d="M901.03,430.44c7.46-5.72,10.48-9.58,11.86-10.71c-1.62-2.35-2.16-4.91-2.34-7.02
				c-1.4,0.22-2.77,0.43-4.02,0.61c-0.38,0.16-0.76,0.32-1.16,0.45c-0.94,0.3-1.92,0.5-2.91,0.6c-1.23,0.12-2.48,0.09-3.7-0.11
				c-1-0.16-1.98-0.43-2.92-0.8c-0.17-0.07-0.33-0.16-0.5-0.23c-1.21-0.18-2.51-0.37-3.83-0.59c-0.17,2.12-0.7,4.71-2.34,7.08
				C890.55,420.85,893.57,424.72,901.03,430.44z"/>
			<path id="XMLID_18_" class="st26" d="M907.43,439.38c0.28-3.01-5.34-6.52-6.4-8.18c-1.06,1.65-6.68,5.17-6.4,8.18
				c0.32,3.41-10.01-8.63-10.54-13.95c-0.01,0.03-0.02,0.06-0.02,0.09c-0.11,0.68-1.03,2.78,2.75,8.13
				c3.28,4.65,13.43,22.9,14.24,29.66c0.81-6.76,10.9-25.01,14.18-29.66c3.77-5.35,2.86-7.45,2.75-8.13
				c-0.01-0.03-0.02-0.06-0.02-0.09C917.44,430.75,907.1,442.8,907.43,439.38z"/>
			<path id="XMLID_17_" d="M917.45,395.96c-1-0.71-0.96,9.37-5.09,13.35c-0.3,0.29-0.6,0.57-0.91,0.84
				c-0.96,0.84-1.99,1.62-3.09,2.26c-0.58,0.34-1.2,0.63-1.82,0.9c1.25-0.18,2.63-0.39,4.02-0.61c5.79-0.93,11.93-2.17,10.99-3.13
				c-1.67-1.7-1-9.27-1.06-15.46C919.78,395.73,918.75,396.84,917.45,395.96z"/>
			<path id="XMLID_16_" d="M892.84,411.88c-1.12-0.75-2.16-1.62-3.13-2.56c-4.13-3.99-4.1-14.07-5.09-13.35
				c-1.07,0.72-1.96,0.08-2.64-1.07c-0.01,6.03,0.54,13.05-1.06,14.68c-0.92,0.94,4.92,2.14,10.6,3.07
				c1.31,0.21,2.62,0.41,3.83,0.59C894.47,412.85,893.63,412.4,892.84,411.88z"/>
			<path id="XMLID_15_" class="st22" d="M884.61,395.96c1-0.71,0.96,9.37,5.09,13.35c0.97,0.94,2.01,1.81,3.13,2.56
				c0.79,0.53,1.63,0.97,2.5,1.35c0.17,0.07,0.33,0.17,0.5,0.23c0.94,0.37,1.92,0.64,2.92,0.8c1.22,0.19,2.48,0.23,3.7,0.11
				c0.99-0.1,1.96-0.3,2.91-0.6c0.39-0.13,0.78-0.29,1.16-0.45c0.62-0.26,1.24-0.55,1.82-0.9c1.1-0.65,2.13-1.42,3.09-2.26
				c0.31-0.27,0.61-0.55,0.91-0.84c4.13-3.99,4.1-14.07,5.09-13.35c1.3,0.87,2.33-0.23,3.03-1.85c0.53-1.22,0.87-2.72,0.99-3.89
				c0.24-2.26-0.59-3.4-1.53-3.07c-0.4,1.22-1.01,0.79-1.49,1.1c-0.36,0.23-0.91-1.4-1.75-3.53c-4.41,1.36-10.58,2.57-16.02,2.57
				c-4.47,0-9.59-0.87-13.76-1.96c-1.47,1.77-2.57,2.99-3.09,3.41c-0.24,0.19-0.39-0.39-0.76-0.91c-0.12-0.07-0.25-0.17-0.4-0.33
				c-0.13-0.13-0.27-0.23-0.4-0.3c-0.24-0.08-0.52-0.1-0.86-0.03c-0.6,0.32-1,1.38-0.82,3.04c0.15,1.43,0.63,3.37,1.39,4.66
				C882.65,396.05,883.54,396.69,884.61,395.96z"/>
			<path id="XMLID_14_" d="M916.7,384.74c0.85,2.13,1.39,3.76,1.75,3.53c0.48-0.3,1.09,0.13,1.49-1.1c0.22-0.66,0.37-1.79,0.42-3.78
				C919.39,383.83,918.14,384.29,916.7,384.74z"/>
			<path id="XMLID_13_" d="M882.27,387.22c0.36,0.12,0.61,0.37,0.8,0.63c0.38,0.52,0.53,1.1,0.76,0.91
				c0.52-0.42,1.62-1.64,3.09-3.41c-2.4-0.63-4.47-1.33-5.93-1.98c-0.05,2.31,0.18,3.87,0.39,3.82c0.01,0,0.01,0,0.02,0
				C881.75,387.12,882.03,387.14,882.27,387.22z"/>
			<path id="XMLID_12_" class="st33" d="M940.67,433.52c0.07,0.14,0.16,0.36,0.25,0.63c0.01-0.03,0.02-0.07,0.03-0.08
				C940.87,433.87,940.78,433.67,940.67,433.52z"/>
			<polygon id="XMLID_11_" class="st33" points="940.65,433.47 940.65,433.47 940.65,433.48 			"/>
			<path id="XMLID_10_" class="st33" d="M930.57,460.11c0.16-3.77-0.85-26.19,9.84-26.83c-2.04-1.26-15.76-5.96-18.77-7.11
				c0.71,0.65,1.42,1.44,1.97,2.42c1.91,3.41,2.01,5.51,3.36,6.51c1.35,1-10.51,1.78-10.51,1.78l7.47,5.64c0,0-8.37,9.57-14.03,13.7
				c-1.75,1.28-7.24,6.16-8.59,8.37c0.29,1.35,0.72,3.16,0.88,4.1c10.18-0.22,19.8-2.7,28.38-6.96
				C930.55,461.07,930.55,460.52,930.57,460.11z"/>
			<path id="XMLID_9_" class="st27" d="M884.09,425.43c0.52,5.32,10.86,17.36,10.54,13.95c-0.28-3.01,5.34-6.52,6.4-8.18
				c1.06,1.65,6.68,5.17,6.4,8.18c-0.32,3.41,10.01-8.63,10.54-13.95c-0.34-1.8-1.3-2.18-1.3-2.18s0.04-0.01,0.1-0.02
				c-0.79-0.78-1.87-1.89-2.9-3.64c-0.2-0.34-0.49-0.27-0.98,0.13c-1.38,1.13-4.4,5-11.86,10.71c-7.46-5.72-10.48-9.58-11.86-10.71
				c-0.49-0.4-0.78-0.47-0.98-0.13c-1.04,1.75-2.11,2.87-2.9,3.64c0.06,0.01,0.1,0.02,0.1,0.02S884.43,423.63,884.09,425.43z"/>
			<path id="XMLID_8_" class="st34" d="M901.3,464.6c-1.58-1.38-7.38-7.09-9.13-8.37c-5.66-4.13-14.03-13.7-14.03-13.7l7.47-5.64
				c0,0-11.86-0.78-10.51-1.78c1.35-1,1.45-3.1,3.36-6.51c0.58-1.04,1.35-1.87,2.1-2.54c-3.52,1.33-18.19,6.35-18.83,7.23
				c10.75,0.56,9.73,23.06,9.9,26.83c0.02,0.48,0.02,1.19,0,2.03c8.8,4.22,18.65,6.59,29.06,6.59c0.5,0,1-0.03,1.5-0.04
				C902.02,467.75,901.59,465.95,901.3,464.6L901.3,464.6z"/>
			<path id="XMLID_7_" class="st35" d="M878.45,428.6c-1.91,3.41-2.01,5.51-3.36,6.51c-1.35,1,10.51,1.78,10.51,1.78l-7.47,5.64
				c0,0,8.37,9.57,14.03,13.7c1.75,1.28,7.56,6.99,9.13,8.37l0,0c1.35-2.21,6.84-7.09,8.59-8.37c5.66-4.13,14.03-13.7,14.03-13.7
				l-7.47-5.64c0,0,11.86-0.78,10.51-1.78c-1.35-1-1.45-3.1-3.36-6.51c-0.55-0.98-1.26-1.77-1.97-2.42
				c-0.95-0.87-1.87-1.48-2.36-1.89c-1.36-1.15-2.24-1.11-2.51-1.06c-0.06,0.01-0.1,0.02-0.1,0.02s0.96,0.38,1.3,2.18
				c0.01,0.03,0.02,0.06,0.02,0.09c0.11,0.68,1.03,2.78-2.75,8.13c-3.28,4.65-13.37,22.9-14.18,29.66
				c-0.81-6.76-10.96-25.01-14.24-29.66c-3.77-5.35-2.86-7.45-2.75-8.13c0.01-0.03,0.02-0.06,0.02-0.09c0.34-1.8,1.3-2.18,1.3-2.18
				s-0.04-0.01-0.1-0.02c-0.27-0.05-1.15-0.1-2.51,1.06c-0.46,0.39-1.32,0.96-2.22,1.77C879.81,426.73,879.03,427.56,878.45,428.6z"
				/>
			<path id="XMLID_6_" class="st35" d="M871.62,460.11c-0.16-3.77,0.85-26.27-9.9-26.83c-0.59-0.03-2.5,8.8-4.46,19.54
				c4.35,3.68,9.17,6.83,14.36,9.32C871.64,461.3,871.64,460.6,871.62,460.11z"/>
			<path id="XMLID_5_" class="st35" d="M940.65,433.48C940.65,433.48,940.65,433.48,940.65,433.48c-0.07-0.13-0.14-0.2-0.19-0.2
				c-0.02,0-0.04,0.01-0.06,0.01c-10.69,0.64-9.67,23.06-9.84,26.83c-0.02,0.41-0.02,0.96-0.01,1.62c5.17-2.57,9.95-5.78,14.26-9.53
				c-1.56-8.48-3.07-15.66-3.89-18.06c-0.09-0.27-0.18-0.48-0.25-0.63C940.66,433.5,940.66,433.49,940.65,433.48z"/>
			<path id="XMLID_4_" class="st29" d="M888.19,382.79c2.37,0.5,6.76,0.87,9.66,1.07c-0.5-10.59-7.76-22.96-8.33-23.92
				c-8.58,4.78-9.88,15.09-9.88,20.83c0,0,0.09,0.04,0.25,0.11C881.06,381.06,883.43,381.78,888.19,382.79z"/>
			<path id="XMLID_3_" class="st29" d="M903.52,383.87c2.9-0.2,7.29-0.57,9.66-1.07c4.76-1.01,7.13-1.74,8.3-1.9
				c0.17-0.07,0.25-0.11,0.25-0.11c0-5.74-1.3-16.05-9.88-20.83C911.28,360.91,904.02,373.28,903.52,383.87z"/>
			<path id="XMLID_2_" class="st30" d="M886.93,385.35c4.16,1.09,9.28,1.96,13.76,1.96c5.44,0,11.61-1.21,16.02-2.57
				c1.44-0.45,2.69-0.91,3.66-1.35c1.39-0.63,2.22-1.22,2.22-1.65c0-0.75-0.17-0.98-1.11-0.85c-1.17,0.16-3.54,0.89-8.3,1.9
				c-2.37,0.5-6.76,0.87-9.66,1.07c0.5-10.59,7.76-22.96,8.33-23.92c0.02-0.04,0.04-0.07,0.04-0.07c-2.48-2.5-7.34-3.99-11.57-3.95
				c-4.02,0.04-8.57,1.65-10.84,3.95c0,0,0.02,0.03,0.04,0.07c0.57,0.96,7.83,13.33,8.33,23.92c-2.9-0.2-7.29-0.57-9.66-1.07
				c-4.76-1.01-7.13-1.74-8.3-1.9c-0.94-0.13-1.11,0.1-1.11,0.85c0,0.43,0.83,1.01,2.21,1.63
				C882.46,384.03,884.53,384.73,886.93,385.35z"/>
		</g>
		<g>
			<circle class="st9" cx="851.5" cy="437.5" r="36.5"/>
			<g>
				<path class="st1" d="M872.44,455.15l-8.48-10.99c-0.15-0.2-0.44-0.24-0.64-0.08l-4.35,3.36c-0.2,0.16-0.24,0.44-0.08,0.64
					l0.08,0.1c-3.03-0.26-8.5-4.06-11.72-8.17c-3.16-4.16-5.45-10.41-4.94-13.41l0.08,0.1c0.15,0.2,0.44,0.24,0.64,0.08l4.35-3.36
					c0.2-0.15,0.24-0.44,0.08-0.64l-8.49-10.99c-0.15-0.2-0.44-0.24-0.64-0.08l-4.35,3.36c-0.2,0.15-0.23,0.44-0.08,0.64l0,0
					c-2.3,2.39-3.08,5.18-2.27,9.12c0.4,1.97,1.43,9.86,9.28,20.06c7.88,10.17,15.27,13.17,17.07,14.06c3.61,1.78,6.5,1.73,9.4,0.11
					l0,0c0.15,0.2,0.44,0.23,0.64,0.08l4.35-3.36C872.56,455.64,872.6,455.35,872.44,455.15z"/>
			</g>
		</g>
	</g>
</g>
<g id="Capa_7">
	<line class="st2" x1="164" y1="342" x2="304" y2="185"/>
</g>
<g id="Capa_8">
	<line class="st36" x1="315" y1="356" x2="388" y2="197"/>
</g>
<g id="Capa_9">
	<g>
		<g>
			<line class="st37" x1="506" y1="387" x2="506" y2="381"/>
			<line class="st38" x1="506" y1="368.87" x2="506" y2="205.07"/>
			<line class="st37" x1="506" y1="199" x2="506" y2="193"/>
		</g>
	</g>
</g>
<g id="Capa_10">
	<line class="st36" x1="703" y1="346" x2="633" y2="188"/>
</g>
<g id="Capa_11">
	<line class="st2" x1="864" y1="321" x2="747" y2="182"/>
	<g>
	</g>
	<g>
	</g>
	<g>
	</g>
	<g>
	</g>
	<g>
	</g>
	<g>
	</g>
	<g>
	</g>
	<g>
	</g>
	<g>
	</g>
	<g>
	</g>
	<g>
	</g>
	<g>
	</g>
	<g>
	</g>
	<g>
	</g>
	<g>
	</g>
</g>
</svg>
