<?xml version="1.0" encoding="utf-8"?>
<!-- Generator: Adobe Illustrator 23.0.0, SVG Export Plug-In . SVG Version: 6.00 Build 0)  -->
<svg version="1.1" id="Capa_1" xmlns="http://www.w3.org/2000/svg" xmlns:xlink="http://www.w3.org/1999/xlink" x="0px" y="0px"
	 viewBox="0 0 400 689" style="enable-background:new 0 0 400 689;" xml:space="preserve">
<style type="text/css">
	.st0{fill:#E2E2E2;}
	.st1{fill:#FFFFFF;}
	.st2{fill:#CCCDCE;}
	.st3{fill:#F2F2F2;}
	.st4{fill:none;}
	.st5{fill:#0085B0;}
	.st6{fill:#E0EF18;}
	.st7{fill:#CECECE;}
	.st8{fill:#22272F;}
	.st9{fill:#1B2538;}
	.st10{fill:#253452;}
	.st11{fill:#F9F9F9;}
	.st12{fill:#2D3543;}
	.st13{fill:#2A3D60;}
	.st14{fill:#6C92D5;}
	.st15{fill:#587955;}
	.st16{fill:#CD7054;}
	.st17{fill:#F1CC4B;}
	.st18{fill:#DFDFDF;}
	.st19{fill:#ACACAC;}
	.st20{fill:#00D13C;}
	.st21{fill:#866A5E;}
	.st22{fill:#F7DDCB;}
	.st23{fill:#FFE6D4;}
	.st24{fill:#2D2D2D;}
	.st25{fill:#1C1B1A;}
	.st26{fill:#F5F5F5;}
	.st27{fill:#77181C;}
	.st28{fill:#EAEAEA;}
	.st29{fill:#262525;}
	.st30{fill:#11100F;}
	.st31{fill:#FFFFFF;stroke:#000000;stroke-width:6;stroke-miterlimit:10;}
	.st32{fill:#D4D4D4;}
	.st33{fill:#C2C2C2;}
	.st34{fill:#505050;}
	.st35{fill:#53C2C9;}
	.st36{fill:#008B9C;}
	.st37{fill:none;stroke:#00550B;stroke-width:4;stroke-miterlimit:10;}
	.st38{fill:#CE2458;}
	.st39{fill:#155500;}
	.st40{fill:#1549FF;}
	.st41{fill:#606060;stroke:#C6C8CC;stroke-width:6;stroke-miterlimit:10;}
	.st42{fill:#727272;}
	.st43{fill:#207235;}
	.st44{fill:#A3A3A3;}
	.st45{fill:#BCBCBC;}
	.st46{fill:#2A5936;}
	.st47{opacity:0.7;fill:#7F7F7F;}
	.st48{fill:#DAA449;}
	.st49{fill:#85B681;}
	.st50{fill:#A1DC9B;}
	.st51{fill:#90C58B;}
	.st52{fill:#DD9225;}
	.st53{opacity:0.3;}
	.st54{fill:#81C378;}
	.st55{opacity:0.5;}
	.st56{fill:#A2CADE;}
	.st57{fill:#9BAEC9;}
	.st58{fill:#9D2B3B;}
	.st59{fill:#C1D4F2;}
	.st60{fill:#534D46;}
	.st61{fill:#191819;}
	.st62{fill:#222123;}
	.st63{fill:#F3FF00;}
	.st64{fill-rule:evenodd;clip-rule:evenodd;fill:#FFFFFF;}
	.st65{fill-rule:evenodd;clip-rule:evenodd;fill:#1996B8;}
	.st66{fill:none;stroke:#5A605A;stroke-width:4;stroke-miterlimit:10;}
	.st67{fill:#FFB412;}
	.st68{fill:#BACDD1;}
	.st69{fill:#1C4D59;}
	.st70{fill:#A14329;}
	.st71{fill:#FCC083;}
	.st72{fill:#E8AA63;}
	.st73{fill:#D40000;}
	.st74{opacity:0.35;fill:#7D7D7D;}
	.st75{fill:#E5E3E3;}
	.st76{fill:#121F5E;}
	.st77{fill:#A3ADAF;}
	.st78{fill:#C2C6C6;}
	.st79{fill:#E5E5E5;stroke:#FFFFFF;stroke-miterlimit:10;}
	.st80{fill:#ACB4B5;}
	.st81{fill:#7F8384;}
	.st82{fill:#282828;}
	.st83{fill:none;stroke:#46A508;stroke-width:6;stroke-miterlimit:10;}
	.st84{fill:none;stroke:#46A508;stroke-width:6;stroke-miterlimit:10;stroke-dasharray:11.7425,11.7425;}
	.st85{fill:#C89D76;}
	.st86{opacity:0.4;}
	.st87{fill:#ADADAD;}
	.st88{fill:#76A172;}
	.st89{fill:#62835F;}
	.st90{fill:#96D090;}
	.st91{fill:#EDC3A6;}
	.st92{opacity:0.69;}
	.st93{fill:#E5D3D6;}
	.st94{opacity:0.44;}
	.st95{fill:#A5A5A5;}
	.st96{fill:#DDE5E4;}
	.st97{fill:#FDFDFD;}
	.st98{fill:#E0C348;}
	.st99{fill:#606060;}
</style>
<g>
	<g>
		<path class="st5" d="M8.5,199.36c0,22,13.29,27.86,29.54,13.03c0,0,156.99-143.3,353.09,26.97V45c0-22-18-40-40-40H48.5
			c-22,0-40,18-40,40V199.36z"/>
	</g>
	<g>
		<path class="st5" d="M390.66,637c0,22-18,40-40,40H48.98c-22,0-40-18-40-40v-46.27c0-22,18-40,40-40h301.68c22,0,40,18,40,40V637z
			"/>
	</g>
	<polygon class="st6" points="199.76,86.93 213.23,114.22 243.34,118.59 221.55,139.83 226.7,169.83 199.76,155.67 172.83,169.83 
		177.97,139.83 156.18,118.59 186.29,114.22 	"/>
	<polygon class="st6" points="137.58,170.15 146.32,187.86 165.86,190.7 151.72,204.48 155.06,223.94 137.58,214.75 120.11,223.94 
		123.45,204.48 109.31,190.7 128.85,187.86 	"/>
	<polygon class="st6" points="267.68,170.15 276.42,187.86 295.95,190.7 281.82,204.48 285.15,223.94 267.68,214.75 250.2,223.94 
		253.54,204.48 239.4,190.7 258.94,187.86 	"/>
	<circle class="st7" cx="200.77" cy="203.97" r="121.96"/>
	<circle class="st1" cx="199.82" cy="190.58" r="121.96"/>
	<g>
		<path class="st1" d="M180.43,633.16c-0.56-0.66-0.84-1.72-0.84-3.18v-4.09c0-1.46,0.28-2.52,0.84-3.18
			c0.56-0.66,1.62-0.99,3.18-0.99h4.6v-19.05l-2.99,1.9c-0.24,0.2-0.54,0.29-0.88,0.29c-0.44,0-0.8-0.22-1.1-0.66l-5.55-8.47
			c-0.19-0.24-0.29-0.51-0.29-0.8c0-0.49,0.27-0.88,0.8-1.17l13.8-8.32c0.58-0.34,1.14-0.58,1.68-0.73
			c0.54-0.15,1.31-0.22,2.34-0.22h5.33c1.61,0,2.74,0.34,3.39,1.02c0.66,0.68,0.99,1.73,0.99,3.14v33.07h4.67
			c1.56,0,2.62,0.33,3.18,0.99c0.56,0.66,0.84,1.72,0.84,3.18v4.09c0,1.46-0.28,2.52-0.84,3.18c-0.56,0.66-1.62,0.99-3.18,0.99
			h-26.79C182.05,634.14,180.99,633.81,180.43,633.16z"/>
	</g>
	<g>
		<path d="M72.23,362.64c-2.09-1.85-3.13-4.59-3.13-8.23c0-3.66,1.01-6.41,3.02-8.25c2.02-1.84,4.89-2.76,8.63-2.76
			c1.69,0,3.2,0.17,4.53,0.5c1.32,0.33,2.43,0.8,3.32,1.39c0.25,0.19,0.37,0.39,0.37,0.62c0,0.19-0.09,0.45-0.28,0.78l-1.55,2.67
			c-0.17,0.29-0.36,0.43-0.59,0.43c-0.15,0-0.38-0.08-0.71-0.25c-0.58-0.29-1.18-0.52-1.81-0.68c-0.63-0.17-1.37-0.25-2.22-0.25
			c-1.72,0-3.03,0.5-3.94,1.49c-0.91,0.99-1.36,2.43-1.36,4.31c0,1.86,0.5,3.29,1.49,4.29c0.99,1,2.35,1.5,4.06,1.5
			c1.49,0,2.85-0.31,4.09-0.93c0.33-0.17,0.57-0.25,0.71-0.25c0.23,0,0.42,0.14,0.59,0.43l1.55,2.67c0.19,0.33,0.28,0.59,0.28,0.78
			c0,0.23-0.12,0.43-0.37,0.62c-0.89,0.6-2,1.06-3.35,1.39c-1.34,0.33-2.86,0.5-4.56,0.5C77.24,365.42,74.32,364.49,72.23,362.64z"
			/>
		<path d="M89.44,364.3c0-0.19,0.05-0.41,0.16-0.68l7.72-18.57c0.19-0.43,0.4-0.74,0.64-0.91c0.24-0.18,0.57-0.26,1.01-0.26h3.38
			c0.43,0,0.77,0.09,1.01,0.26c0.24,0.18,0.45,0.48,0.64,0.91l7.69,18.57c0.1,0.27,0.16,0.5,0.16,0.68c0,0.43-0.23,0.65-0.68,0.65
			h-5.83c-0.64,0-1.04-0.28-1.21-0.84l-0.74-2.29h-5.49l-0.71,2.29c-0.17,0.56-0.57,0.84-1.21,0.84h-5.83
			C89.66,364.95,89.44,364.74,89.44,364.3z M101.84,356.92l-1.21-3.84l-1.21,3.84H101.84z"/>
		<path d="M113.79,364.52c-0.28-0.29-0.42-0.73-0.42-1.33v-17.55c0-0.6,0.14-1.04,0.42-1.33c0.28-0.29,0.76-0.43,1.44-0.43h7.41
			c3.1,0,5.36,0.62,6.77,1.84s2.12,3.08,2.12,5.56c0,2.48-0.71,4.33-2.12,5.55c-1.42,1.22-3.66,1.83-6.74,1.83h-1.86v4.53
			c0,0.6-0.14,1.04-0.42,1.33c-0.28,0.29-0.77,0.43-1.47,0.43h-3.69C114.55,364.95,114.07,364.81,113.79,364.52z M121.99,353.39
			c0.66,0,1.18-0.17,1.57-0.53c0.38-0.35,0.57-0.88,0.57-1.58c0-0.72-0.19-1.26-0.57-1.61c-0.38-0.35-0.9-0.53-1.57-0.53h-2.11v4.25
			H121.99z"/>
		<path d="M128.74,364.3c0-0.19,0.05-0.41,0.16-0.68l7.72-18.57c0.19-0.43,0.4-0.74,0.64-0.91c0.24-0.18,0.57-0.26,1.01-0.26h3.38
			c0.43,0,0.77,0.09,1.01,0.26c0.24,0.18,0.45,0.48,0.64,0.91l7.69,18.57c0.1,0.27,0.16,0.5,0.16,0.68c0,0.43-0.23,0.65-0.68,0.65
			h-5.83c-0.64,0-1.04-0.28-1.21-0.84l-0.74-2.29h-5.49l-0.71,2.29c-0.17,0.56-0.57,0.84-1.21,0.84h-5.83
			C128.97,364.95,128.74,364.74,128.74,364.3z M141.15,356.92l-1.21-3.84l-1.21,3.84H141.15z"/>
		<path d="M153.48,362.64c-2.09-1.85-3.13-4.59-3.13-8.23c0-3.66,1.01-6.41,3.02-8.25c2.02-1.84,4.89-2.76,8.63-2.76
			c1.69,0,3.2,0.17,4.53,0.5c1.32,0.33,2.43,0.8,3.32,1.39c0.25,0.19,0.37,0.39,0.37,0.62c0,0.19-0.09,0.45-0.28,0.78l-1.55,2.67
			c-0.17,0.29-0.36,0.43-0.59,0.43c-0.15,0-0.38-0.08-0.71-0.25c-0.58-0.29-1.18-0.52-1.81-0.68c-0.63-0.17-1.37-0.25-2.22-0.25
			c-1.72,0-3.03,0.5-3.94,1.49c-0.91,0.99-1.36,2.43-1.36,4.31c0,1.86,0.5,3.29,1.49,4.29c0.99,1,2.35,1.5,4.06,1.5
			c1.49,0,2.85-0.31,4.09-0.93c0.33-0.17,0.57-0.25,0.71-0.25c0.23,0,0.42,0.14,0.59,0.43l1.55,2.67c0.19,0.33,0.28,0.59,0.28,0.78
			c0,0.23-0.12,0.43-0.37,0.62c-0.89,0.6-2,1.06-3.35,1.39c-1.34,0.33-2.86,0.5-4.56,0.5C158.49,365.42,155.57,364.49,153.48,362.64
			z"/>
		<path d="M172.5,364.52c-0.28-0.29-0.42-0.73-0.42-1.33v-17.55c0-0.6,0.14-1.04,0.42-1.33c0.28-0.29,0.76-0.43,1.44-0.43h3.69
			c0.7,0,1.19,0.14,1.47,0.42c0.28,0.28,0.42,0.73,0.42,1.35v17.55c0,0.6-0.14,1.04-0.42,1.33c-0.28,0.29-0.77,0.43-1.47,0.43h-3.69
			C173.26,364.95,172.78,364.81,172.5,364.52z"/>
		<path d="M182.11,364.52c-0.28-0.29-0.42-0.73-0.42-1.33v-17.55c0-0.6,0.14-1.04,0.42-1.33c0.28-0.29,0.76-0.43,1.44-0.43h7.13
			c7.29,0,10.94,3.51,10.94,10.54c0,3.47-0.94,6.1-2.81,7.87c-1.87,1.78-4.58,2.67-8.14,2.67h-7.13
			C182.87,364.95,182.39,364.81,182.11,364.52z M190.96,359.68c1.16,0,1.99-0.38,2.5-1.15c0.51-0.76,0.76-2.14,0.76-4.12
			s-0.25-3.36-0.76-4.12c-0.51-0.76-1.34-1.15-2.5-1.15h-1.83v10.54H190.96z"/>
		<path d="M201.16,364.3c0-0.19,0.05-0.41,0.16-0.68l7.72-18.57c0.19-0.43,0.4-0.74,0.64-0.91c0.24-0.18,0.57-0.26,1.01-0.26h3.38
			c0.43,0,0.77,0.09,1.01,0.26c0.24,0.18,0.45,0.48,0.64,0.91l7.69,18.57c0.1,0.27,0.16,0.5,0.16,0.68c0,0.43-0.23,0.65-0.68,0.65
			h-5.83c-0.64,0-1.04-0.28-1.21-0.84l-0.74-2.29h-5.49l-0.71,2.29c-0.17,0.56-0.57,0.84-1.21,0.84h-5.83
			C201.39,364.95,201.16,364.74,201.16,364.3z M213.56,356.92l-1.21-3.84l-1.21,3.84H213.56z"/>
		<path d="M225.51,364.52c-0.28-0.29-0.42-0.73-0.42-1.33v-17.55c0-0.6,0.14-1.04,0.42-1.33c0.28-0.29,0.76-0.43,1.44-0.43h7.13
			c7.29,0,10.94,3.51,10.94,10.54c0,3.47-0.94,6.1-2.81,7.87c-1.87,1.78-4.58,2.67-8.14,2.67h-7.13
			C226.27,364.95,225.79,364.81,225.51,364.52z M234.36,359.68c1.16,0,1.99-0.38,2.5-1.15c0.51-0.76,0.76-2.14,0.76-4.12
			s-0.25-3.36-0.76-4.12c-0.51-0.76-1.34-1.15-2.5-1.15h-1.83v10.54H234.36z"/>
		<path d="M256.29,364.52c-0.28-0.29-0.42-0.73-0.42-1.33v-17.55c0-0.6,0.14-1.04,0.42-1.33c0.28-0.29,0.76-0.43,1.44-0.43h7.41
			c3.1,0,5.36,0.62,6.77,1.84s2.12,3.08,2.12,5.56c0,2.48-0.71,4.33-2.12,5.55c-1.42,1.22-3.66,1.83-6.74,1.83h-1.86v4.53
			c0,0.6-0.14,1.04-0.42,1.33c-0.28,0.29-0.77,0.43-1.47,0.43h-3.69C257.05,364.95,256.57,364.81,256.29,364.52z M264.49,353.39
			c0.66,0,1.18-0.17,1.57-0.53c0.38-0.35,0.57-0.88,0.57-1.58c0-0.72-0.19-1.26-0.57-1.61c-0.38-0.35-0.9-0.53-1.57-0.53h-2.11v4.25
			H264.49z"/>
		<path d="M271.25,364.3c0-0.19,0.05-0.41,0.16-0.68l7.72-18.57c0.19-0.43,0.4-0.74,0.64-0.91c0.24-0.18,0.57-0.26,1.01-0.26h3.38
			c0.43,0,0.77,0.09,1.01,0.26c0.24,0.18,0.45,0.48,0.64,0.91l7.69,18.57c0.1,0.27,0.16,0.5,0.16,0.68c0,0.43-0.23,0.65-0.68,0.65
			h-5.83c-0.64,0-1.04-0.28-1.21-0.84l-0.74-2.29h-5.49l-0.71,2.29c-0.17,0.56-0.57,0.84-1.21,0.84h-5.83
			C271.48,364.95,271.25,364.74,271.25,364.3z M283.65,356.92l-1.21-3.84l-1.21,3.84H283.65z"/>
		<path d="M295.6,364.52c-0.28-0.29-0.42-0.73-0.42-1.33v-17.55c0-0.6,0.14-1.04,0.42-1.33c0.28-0.29,0.76-0.43,1.44-0.43h7.41
			c3.1,0,5.36,0.62,6.77,1.84s2.12,3.08,2.12,5.56c0,1.49-0.25,2.74-0.76,3.77c-0.51,1.02-1.29,1.82-2.34,2.4l2.88,6.17
			c0.08,0.17,0.12,0.35,0.12,0.56c0,0.23-0.08,0.41-0.23,0.56c-0.15,0.14-0.36,0.22-0.6,0.22h-5.24c-0.33,0-0.59-0.05-0.79-0.14
			c-0.2-0.09-0.34-0.25-0.42-0.48l-2.29-5.77h-1.05v4.62c0,0.6-0.14,1.04-0.42,1.33c-0.28,0.29-0.77,0.43-1.47,0.43h-3.69
			C296.36,364.95,295.88,364.81,295.6,364.52z M303.8,353.39c0.66,0,1.18-0.17,1.57-0.53c0.38-0.35,0.57-0.88,0.57-1.58
			c0-0.72-0.19-1.26-0.57-1.61c-0.38-0.35-0.9-0.53-1.57-0.53h-2.11v4.25H303.8z"/>
		<path d="M312.88,364.3c0-0.19,0.05-0.41,0.16-0.68l7.72-18.57c0.19-0.43,0.4-0.74,0.64-0.91c0.24-0.18,0.57-0.26,1.01-0.26h3.38
			c0.43,0,0.77,0.09,1.01,0.26c0.24,0.18,0.45,0.48,0.64,0.91l7.69,18.57c0.1,0.27,0.16,0.5,0.16,0.68c0,0.43-0.23,0.65-0.68,0.65
			h-5.83c-0.64,0-1.04-0.28-1.21-0.84l-0.74-2.29h-5.49l-0.71,2.29c-0.17,0.56-0.57,0.84-1.21,0.84h-5.83
			C313.11,364.95,312.88,364.74,312.88,364.3z M325.28,356.92l-1.21-3.84l-1.21,3.84H325.28z"/>
		<path d="M63.24,401.72c-0.28-0.29-0.42-0.73-0.42-1.33v-17.55c0-0.6,0.14-1.04,0.42-1.33c0.28-0.29,0.76-0.43,1.44-0.43h7.41
			c3.1,0,5.36,0.62,6.77,1.84s2.12,3.08,2.12,5.56c0,1.49-0.25,2.74-0.76,3.77c-0.51,1.02-1.29,1.82-2.34,2.4l2.88,6.17
			c0.08,0.17,0.12,0.35,0.12,0.56c0,0.23-0.08,0.41-0.23,0.56c-0.15,0.14-0.36,0.22-0.6,0.22h-5.24c-0.33,0-0.59-0.05-0.79-0.14
			c-0.2-0.09-0.34-0.25-0.42-0.48l-2.29-5.77h-1.05v4.62c0,0.6-0.14,1.04-0.42,1.33c-0.28,0.29-0.77,0.43-1.47,0.43h-3.69
			C64,402.15,63.52,402.01,63.24,401.72z M71.44,390.59c0.66,0,1.18-0.17,1.57-0.53c0.38-0.35,0.57-0.88,0.57-1.58
			c0-0.72-0.19-1.26-0.57-1.61c-0.38-0.35-0.9-0.53-1.57-0.53h-2.11v4.25H71.44z"/>
		<path d="M82.96,401.72c-0.28-0.29-0.42-0.73-0.42-1.33v-17.55c0-0.6,0.14-1.04,0.42-1.33c0.28-0.29,0.76-0.43,1.44-0.43h12.83
			c0.66,0,1.11,0.14,1.35,0.42c0.24,0.28,0.36,0.73,0.36,1.35v1.74c0,0.62-0.12,1.07-0.36,1.35c-0.24,0.28-0.69,0.42-1.35,0.42
			h-7.25v2.67h4.46c0.66,0,1.11,0.14,1.35,0.42c0.24,0.28,0.36,0.73,0.36,1.35v1.67c0,0.62-0.12,1.07-0.36,1.35
			c-0.24,0.28-0.69,0.42-1.35,0.42h-4.46v2.67h7.22c0.66,0,1.11,0.14,1.35,0.42c0.24,0.28,0.36,0.73,0.36,1.35v1.74
			c0,0.62-0.12,1.07-0.36,1.35c-0.24,0.28-0.69,0.42-1.35,0.42H84.4C83.72,402.15,83.24,402.01,82.96,401.72z"/>
		<path d="M101.45,399.84c-2.09-1.85-3.13-4.59-3.13-8.23c0-3.66,1.01-6.41,3.02-8.25c2.02-1.84,4.89-2.76,8.63-2.76
			c1.69,0,3.2,0.17,4.53,0.5c1.32,0.33,2.43,0.8,3.32,1.39c0.25,0.19,0.37,0.39,0.37,0.62c0,0.19-0.09,0.45-0.28,0.78l-1.55,2.67
			c-0.17,0.29-0.36,0.43-0.59,0.43c-0.15,0-0.38-0.08-0.71-0.25c-0.58-0.29-1.18-0.52-1.81-0.68c-0.63-0.17-1.37-0.25-2.22-0.25
			c-1.72,0-3.03,0.5-3.94,1.49c-0.91,0.99-1.36,2.43-1.36,4.31c0,1.86,0.5,3.29,1.49,4.29c0.99,1,2.35,1.5,4.06,1.5
			c1.49,0,2.85-0.31,4.09-0.93c0.33-0.17,0.57-0.25,0.71-0.25c0.23,0,0.42,0.14,0.59,0.43l1.55,2.67c0.19,0.33,0.28,0.59,0.28,0.78
			c0,0.23-0.12,0.43-0.37,0.62c-0.89,0.6-2,1.06-3.35,1.39c-1.34,0.33-2.86,0.5-4.56,0.5C106.46,402.62,103.54,401.69,101.45,399.84
			z"/>
		<path d="M120.47,401.72c-0.28-0.29-0.42-0.73-0.42-1.33v-17.55c0-0.6,0.14-1.04,0.42-1.33c0.28-0.29,0.76-0.43,1.44-0.43h3.69
			c0.7,0,1.19,0.14,1.47,0.42c0.28,0.28,0.42,0.73,0.42,1.35v17.55c0,0.6-0.14,1.04-0.42,1.33c-0.28,0.29-0.77,0.43-1.47,0.43h-3.69
			C121.23,402.15,120.75,402.01,120.47,401.72z"/>
		<path d="M130.08,401.72c-0.28-0.29-0.42-0.73-0.42-1.33v-17.55c0-0.6,0.14-1.04,0.42-1.33c0.28-0.29,0.76-0.43,1.44-0.43h9.39
			c2.52,0,4.38,0.54,5.56,1.61s1.78,2.6,1.78,4.59c0,0.93-0.2,1.75-0.6,2.46c-0.4,0.71-0.94,1.21-1.6,1.5
			c1.84,0.62,2.76,2.07,2.76,4.34c0,1.94-0.69,3.52-2.06,4.74c-1.38,1.22-3.39,1.83-6.06,1.83h-9.18
			C130.84,402.15,130.36,402.01,130.08,401.72z M139.42,389.04c0.95,0,1.43-0.45,1.43-1.36s-0.48-1.36-1.43-1.36h-2.36v2.73H139.42z
			 M139.95,396.91c0.43,0,0.79-0.14,1.05-0.42c0.27-0.28,0.4-0.66,0.4-1.13c0-0.5-0.13-0.88-0.39-1.15s-0.61-0.4-1.07-0.4h-2.88v3.1
			H139.95z"/>
		<path d="M150.79,401.72c-0.28-0.29-0.42-0.73-0.42-1.33v-17.55c0-0.6,0.14-1.04,0.42-1.33c0.28-0.29,0.76-0.43,1.44-0.43h3.69
			c0.7,0,1.19,0.14,1.47,0.42c0.28,0.28,0.42,0.73,0.42,1.35v17.55c0,0.6-0.14,1.04-0.42,1.33c-0.28,0.29-0.77,0.43-1.47,0.43h-3.69
			C151.55,402.15,151.06,402.01,150.79,401.72z"/>
		<path d="M160.4,401.72c-0.28-0.29-0.42-0.73-0.42-1.33v-17.55c0-0.6,0.14-1.04,0.42-1.33c0.28-0.29,0.76-0.43,1.44-0.43h7.41
			c3.1,0,5.36,0.62,6.77,1.84s2.12,3.08,2.12,5.56c0,1.49-0.25,2.74-0.76,3.77c-0.51,1.02-1.29,1.82-2.34,2.4l2.88,6.17
			c0.08,0.17,0.12,0.35,0.12,0.56c0,0.23-0.08,0.41-0.23,0.56c-0.15,0.14-0.36,0.22-0.6,0.22h-5.24c-0.33,0-0.59-0.05-0.79-0.14
			c-0.2-0.09-0.34-0.25-0.42-0.48l-2.29-5.77h-1.05v4.62c0,0.6-0.14,1.04-0.42,1.33c-0.28,0.29-0.77,0.43-1.47,0.43h-3.69
			C161.16,402.15,160.67,402.01,160.4,401.72z M168.6,390.59c0.66,0,1.18-0.17,1.57-0.53c0.38-0.35,0.57-0.88,0.57-1.58
			c0-0.72-0.19-1.26-0.57-1.61c-0.38-0.35-0.9-0.53-1.57-0.53h-2.11v4.25H168.6z"/>
		<path d="M189.41,401.72c-0.28-0.29-0.42-0.73-0.42-1.33v-17.55c0-0.6,0.14-1.04,0.42-1.33c0.28-0.29,0.76-0.43,1.44-0.43h3.69
			c0.7,0,1.19,0.14,1.47,0.42c0.28,0.28,0.42,0.73,0.42,1.35v14.04h7.22c0.66,0,1.11,0.14,1.35,0.42c0.24,0.28,0.36,0.73,0.36,1.35
			v1.74c0,0.62-0.12,1.07-0.36,1.35c-0.24,0.28-0.69,0.42-1.35,0.42h-12.8C190.17,402.15,189.69,402.01,189.41,401.72z"/>
		<path d="M206.71,401.72c-0.28-0.29-0.42-0.73-0.42-1.33v-17.55c0-0.6,0.14-1.04,0.42-1.33c0.28-0.29,0.76-0.43,1.44-0.43h3.69
			c0.7,0,1.19,0.14,1.47,0.42c0.28,0.28,0.42,0.73,0.42,1.35v14.04h7.22c0.66,0,1.11,0.14,1.35,0.42c0.24,0.28,0.36,0.73,0.36,1.35
			v1.74c0,0.62-0.12,1.07-0.36,1.35c-0.24,0.28-0.69,0.42-1.35,0.42h-12.8C207.47,402.15,206.99,402.01,206.71,401.72z"/>
		<path d="M222.5,401.5c0-0.19,0.05-0.41,0.16-0.68l7.72-18.57c0.19-0.43,0.4-0.74,0.64-0.91c0.24-0.18,0.57-0.26,1.01-0.26h3.38
			c0.43,0,0.77,0.09,1.01,0.26c0.24,0.18,0.45,0.48,0.64,0.91l7.69,18.57c0.1,0.27,0.16,0.5,0.16,0.68c0,0.43-0.23,0.65-0.68,0.65
			h-5.83c-0.64,0-1.04-0.28-1.21-0.84l-0.74-2.29h-5.49l-0.71,2.29c-0.17,0.56-0.57,0.84-1.21,0.84h-5.83
			C222.73,402.15,222.5,401.94,222.5,401.5z M234.9,394.12l-1.21-3.84l-1.21,3.84H234.9z"/>
		<path d="M246.08,401.72c-0.28-0.29-0.42-0.73-0.42-1.33v-17.58c0-0.6,0.14-1.04,0.42-1.32c0.28-0.28,0.77-0.42,1.47-0.42h3.56
			c0.45,0,0.82,0.06,1.08,0.17c0.27,0.11,0.48,0.34,0.62,0.67l3.63,9.08l3.63-9.08c0.14-0.33,0.35-0.55,0.62-0.67
			c0.27-0.11,0.63-0.17,1.08-0.17h3.56c0.7,0,1.19,0.14,1.47,0.42c0.28,0.28,0.42,0.72,0.42,1.32v17.58c0,0.6-0.14,1.04-0.42,1.33
			c-0.28,0.29-0.76,0.43-1.44,0.43h-2.98c-0.68,0-1.17-0.14-1.46-0.43c-0.29-0.29-0.43-0.73-0.43-1.33v-8.46l-1.83,4.22
			c-0.25,0.6-0.52,1.03-0.81,1.29c-0.29,0.26-0.76,0.39-1.43,0.39c-0.66,0-1.14-0.13-1.43-0.39c-0.29-0.26-0.56-0.69-0.81-1.29
			l-1.83-4.22v8.46c0,0.6-0.14,1.04-0.42,1.33c-0.28,0.29-0.77,0.43-1.47,0.43h-2.98C246.84,402.15,246.36,402.01,246.08,401.72z"/>
		<path d="M268.01,401.5c0-0.19,0.05-0.41,0.16-0.68l7.72-18.57c0.19-0.43,0.4-0.74,0.64-0.91c0.24-0.18,0.57-0.26,1.01-0.26h3.38
			c0.43,0,0.77,0.09,1.01,0.26c0.24,0.18,0.45,0.48,0.64,0.91l7.69,18.57c0.1,0.27,0.16,0.5,0.16,0.68c0,0.43-0.23,0.65-0.68,0.65
			h-5.83c-0.64,0-1.04-0.28-1.21-0.84l-0.74-2.29h-5.49l-0.71,2.29c-0.17,0.56-0.57,0.84-1.21,0.84h-5.83
			C268.24,402.15,268.01,401.94,268.01,401.5z M280.41,394.12l-1.21-3.84l-1.21,3.84H280.41z"/>
		<path d="M292.36,401.72c-0.28-0.29-0.42-0.73-0.42-1.33v-17.55c0-0.6,0.14-1.04,0.42-1.33c0.28-0.29,0.76-0.43,1.44-0.43h7.13
			c7.29,0,10.94,3.51,10.94,10.54c0,3.47-0.94,6.1-2.81,7.87c-1.87,1.78-4.58,2.67-8.14,2.67h-7.13
			C293.12,402.15,292.64,402.01,292.36,401.72z M301.21,396.88c1.16,0,1.99-0.38,2.5-1.15c0.51-0.76,0.76-2.14,0.76-4.12
			s-0.25-3.36-0.76-4.12c-0.51-0.76-1.34-1.15-2.5-1.15h-1.83v10.54H301.21z"/>
		<path d="M311.41,401.5c0-0.19,0.05-0.41,0.16-0.68l7.72-18.57c0.19-0.43,0.4-0.74,0.64-0.91c0.24-0.18,0.57-0.26,1.01-0.26h3.38
			c0.43,0,0.77,0.09,1.01,0.26c0.24,0.18,0.45,0.48,0.64,0.91l7.69,18.57c0.1,0.27,0.16,0.5,0.16,0.68c0,0.43-0.23,0.65-0.68,0.65
			h-5.83c-0.64,0-1.04-0.28-1.21-0.84l-0.74-2.29h-5.49l-0.71,2.29c-0.17,0.56-0.57,0.84-1.21,0.84h-5.83
			C311.64,402.15,311.41,401.94,311.41,401.5z M323.81,394.12l-1.21-3.84l-1.21,3.84H323.81z"/>
		<path d="M337.88,402.03c-1.61-0.39-2.91-0.94-3.91-1.64c-0.41-0.29-0.62-0.57-0.62-0.84c0-0.19,0.07-0.38,0.22-0.59l1.8-2.82
			c0.19-0.27,0.37-0.4,0.56-0.4c0.17,0,0.36,0.07,0.59,0.22c0.74,0.46,1.6,0.81,2.56,1.07c0.96,0.26,1.9,0.39,2.81,0.39
			c0.76,0,1.32-0.1,1.66-0.31c0.34-0.21,0.51-0.53,0.51-0.96c0-0.48-0.23-0.86-0.68-1.15c-0.45-0.29-1.24-0.65-2.36-1.08
			c-2.09-0.81-3.73-1.72-4.93-2.74c-1.2-1.02-1.8-2.38-1.8-4.08c0-2.15,0.75-3.77,2.25-4.85c1.5-1.08,3.52-1.63,6.06-1.63
			c1.78,0,3.29,0.16,4.54,0.46c1.25,0.31,2.34,0.8,3.27,1.46c0.41,0.29,0.62,0.57,0.62,0.84c0,0.19-0.07,0.38-0.22,0.59l-1.8,2.82
			c-0.19,0.29-0.37,0.43-0.56,0.43c-0.12,0-0.32-0.08-0.59-0.25c-0.5-0.33-1.08-0.6-1.77-0.82c-0.68-0.22-1.42-0.33-2.2-0.33
			c-0.72,0-1.27,0.1-1.64,0.31c-0.37,0.21-0.56,0.54-0.56,0.99c0,0.37,0.13,0.68,0.39,0.93c0.26,0.25,0.58,0.46,0.98,0.64
			c0.39,0.18,1.07,0.46,2.05,0.85c1.55,0.62,2.77,1.21,3.66,1.78c0.89,0.57,1.56,1.25,2.02,2.05s0.68,1.8,0.68,3.02
			c0,1.86-0.7,3.36-2.09,4.51c-1.4,1.15-3.48,1.72-6.25,1.72C341.24,402.62,339.5,402.42,337.88,402.03z"/>
		<path d="M103.62,439.23c-1.61-0.39-2.91-0.94-3.91-1.64c-0.41-0.29-0.62-0.57-0.62-0.84c0-0.19,0.07-0.38,0.22-0.59l1.8-2.82
			c0.19-0.27,0.37-0.4,0.56-0.4c0.17,0,0.36,0.07,0.59,0.22c0.74,0.46,1.6,0.81,2.56,1.07c0.96,0.26,1.9,0.39,2.81,0.39
			c0.76,0,1.32-0.1,1.66-0.31c0.34-0.21,0.51-0.53,0.51-0.96c0-0.48-0.23-0.86-0.68-1.15c-0.45-0.29-1.24-0.65-2.36-1.08
			c-2.09-0.81-3.73-1.72-4.93-2.74c-1.2-1.02-1.8-2.38-1.8-4.08c0-2.15,0.75-3.77,2.25-4.85c1.5-1.08,3.52-1.63,6.06-1.63
			c1.78,0,3.29,0.16,4.54,0.46c1.25,0.31,2.34,0.8,3.27,1.46c0.41,0.29,0.62,0.57,0.62,0.84c0,0.19-0.07,0.38-0.22,0.59l-1.8,2.82
			c-0.19,0.29-0.37,0.43-0.56,0.43c-0.12,0-0.32-0.08-0.59-0.25c-0.5-0.33-1.08-0.6-1.77-0.82c-0.68-0.22-1.42-0.33-2.2-0.33
			c-0.72,0-1.27,0.1-1.64,0.31c-0.37,0.21-0.56,0.54-0.56,0.99c0,0.37,0.13,0.68,0.39,0.93c0.26,0.25,0.58,0.46,0.98,0.64
			c0.39,0.18,1.07,0.46,2.05,0.85c1.55,0.62,2.77,1.21,3.66,1.78c0.89,0.57,1.56,1.25,2.02,2.05s0.68,1.8,0.68,3.02
			c0,1.86-0.7,3.36-2.09,4.51c-1.4,1.15-3.48,1.72-6.25,1.72C106.98,439.82,105.23,439.62,103.62,439.23z"/>
		<path d="M119.17,438.92c-0.28-0.29-0.42-0.73-0.42-1.33v-17.55c0-0.6,0.14-1.04,0.42-1.33c0.28-0.29,0.76-0.43,1.44-0.43h3.69
			c0.7,0,1.19,0.14,1.47,0.42c0.28,0.28,0.42,0.73,0.42,1.35v17.55c0,0.6-0.14,1.04-0.42,1.33c-0.28,0.29-0.77,0.43-1.47,0.43h-3.69
			C119.93,439.35,119.44,439.21,119.17,438.92z"/>
		<path d="M128.78,438.92c-0.28-0.29-0.42-0.73-0.42-1.33v-17.58c0-0.6,0.14-1.04,0.42-1.32c0.28-0.28,0.77-0.42,1.47-0.42h3.56
			c0.45,0,0.82,0.06,1.08,0.17c0.27,0.11,0.48,0.34,0.62,0.67l3.63,9.08l3.63-9.08c0.14-0.33,0.35-0.55,0.62-0.67
			c0.27-0.11,0.63-0.17,1.08-0.17h3.56c0.7,0,1.19,0.14,1.47,0.42c0.28,0.28,0.42,0.72,0.42,1.32v17.58c0,0.6-0.14,1.04-0.42,1.33
			c-0.28,0.29-0.76,0.43-1.44,0.43h-2.98c-0.68,0-1.17-0.14-1.46-0.43c-0.29-0.29-0.43-0.73-0.43-1.33v-8.46l-1.83,4.22
			c-0.25,0.6-0.52,1.03-0.81,1.29c-0.29,0.26-0.76,0.39-1.43,0.39c-0.66,0-1.14-0.13-1.43-0.39c-0.29-0.26-0.56-0.69-0.81-1.29
			l-1.83-4.22v8.46c0,0.6-0.14,1.04-0.42,1.33c-0.28,0.29-0.77,0.43-1.47,0.43h-2.98C129.54,439.35,129.06,439.21,128.78,438.92z"/>
		<path d="M156.78,438.84c-1.53-0.65-2.72-1.59-3.56-2.82c-0.85-1.23-1.27-2.69-1.27-4.39v-11.59c0-0.6,0.14-1.04,0.42-1.33
			c0.28-0.29,0.76-0.43,1.44-0.43h3.69c0.7,0,1.19,0.14,1.47,0.42c0.28,0.28,0.42,0.73,0.42,1.35v11.69c0,0.97,0.24,1.69,0.73,2.17
			c0.49,0.48,1.15,0.71,2,0.71c0.85,0,1.51-0.24,2-0.71c0.49-0.48,0.73-1.2,0.73-2.17v-11.69c0-0.6,0.14-1.04,0.42-1.33
			c0.28-0.29,0.76-0.43,1.44-0.43h3.69c0.7,0,1.19,0.14,1.47,0.42c0.28,0.28,0.42,0.73,0.42,1.35v11.59c0,1.69-0.42,3.16-1.27,4.39
			c-0.85,1.23-2.04,2.17-3.56,2.82c-1.53,0.65-3.31,0.98-5.33,0.98C160.09,439.82,158.31,439.49,156.78,438.84z"/>
		<path d="M174.72,438.92c-0.28-0.29-0.42-0.73-0.42-1.33v-17.55c0-0.6,0.14-1.04,0.42-1.33c0.28-0.29,0.76-0.43,1.44-0.43h3.69
			c0.7,0,1.19,0.14,1.47,0.42c0.28,0.28,0.42,0.73,0.42,1.35v14.04h7.22c0.66,0,1.11,0.14,1.35,0.42c0.24,0.28,0.36,0.73,0.36,1.35
			v1.74c0,0.62-0.12,1.07-0.36,1.35c-0.24,0.28-0.69,0.42-1.35,0.42h-12.8C175.48,439.35,175,439.21,174.72,438.92z"/>
		<path d="M192.76,438.92c-0.28-0.29-0.42-0.73-0.42-1.33v-14.04h-4.46c-0.66,0-1.11-0.14-1.35-0.42s-0.36-0.73-0.36-1.35v-1.74
			c0-0.62,0.12-1.07,0.36-1.35c0.24-0.28,0.69-0.42,1.35-0.42h16.37c0.66,0,1.11,0.14,1.35,0.42c0.24,0.28,0.36,0.73,0.36,1.35v1.74
			c0,0.62-0.12,1.07-0.36,1.35c-0.24,0.28-0.69,0.42-1.35,0.42h-4.46v14.04c0,0.6-0.14,1.04-0.42,1.33
			c-0.28,0.29-0.77,0.43-1.47,0.43h-3.69C193.52,439.35,193.04,439.21,192.76,438.92z"/>
		<path d="M202.38,438.7c0-0.19,0.05-0.41,0.16-0.68l7.72-18.57c0.19-0.43,0.4-0.74,0.64-0.91c0.24-0.18,0.57-0.26,1.01-0.26h3.38
			c0.43,0,0.77,0.09,1.01,0.26c0.24,0.18,0.45,0.48,0.64,0.91l7.69,18.57c0.1,0.27,0.16,0.5,0.16,0.68c0,0.43-0.23,0.65-0.68,0.65
			h-5.83c-0.64,0-1.04-0.28-1.21-0.84l-0.74-2.29h-5.49l-0.71,2.29c-0.17,0.56-0.57,0.84-1.21,0.84h-5.83
			C202.61,439.35,202.38,439.14,202.38,438.7z M214.78,431.32l-1.21-3.84l-1.21,3.84H214.78z"/>
		<path d="M226.73,438.92c-0.28-0.29-0.42-0.73-0.42-1.33v-17.58c0-0.6,0.14-1.04,0.42-1.32c0.28-0.28,0.77-0.42,1.47-0.42h2.94
			c0.43,0,0.77,0.06,1.01,0.17c0.24,0.11,0.47,0.34,0.7,0.67l5.61,8.34v-7.41c0-0.6,0.14-1.04,0.42-1.33
			c0.28-0.29,0.76-0.43,1.44-0.43h3.69c0.7,0,1.19,0.14,1.47,0.42c0.28,0.28,0.42,0.73,0.42,1.35v17.58c0,0.6-0.14,1.04-0.42,1.32
			c-0.28,0.28-0.77,0.42-1.47,0.42h-2.95c-0.43,0-0.77-0.06-1.01-0.17c-0.24-0.11-0.47-0.33-0.7-0.67l-5.61-8.34v7.44
			c0,0.6-0.14,1.04-0.42,1.32c-0.28,0.28-0.77,0.42-1.47,0.42h-3.69C227.49,439.35,227.01,439.21,226.73,438.92z"/>
		<path d="M248.5,438.92c-0.28-0.29-0.42-0.73-0.42-1.33v-17.55c0-0.6,0.14-1.04,0.42-1.33c0.28-0.29,0.76-0.43,1.44-0.43h12.83
			c0.66,0,1.11,0.14,1.35,0.42c0.24,0.28,0.36,0.73,0.36,1.35v1.74c0,0.62-0.12,1.07-0.36,1.35c-0.24,0.28-0.69,0.42-1.35,0.42
			h-7.25v2.67h4.46c0.66,0,1.11,0.14,1.35,0.42c0.24,0.28,0.36,0.73,0.36,1.35v1.67c0,0.62-0.12,1.07-0.36,1.35
			c-0.24,0.28-0.69,0.42-1.35,0.42h-4.46v2.67h7.22c0.66,0,1.11,0.14,1.35,0.42c0.24,0.28,0.36,0.73,0.36,1.35v1.74
			c0,0.62-0.12,1.07-0.36,1.35c-0.24,0.28-0.69,0.42-1.35,0.42h-12.8C249.26,439.35,248.78,439.21,248.5,438.92z"/>
		<path d="M265.25,438.7c0-0.19,0.05-0.41,0.16-0.68l7.72-18.57c0.19-0.43,0.4-0.74,0.64-0.91c0.24-0.18,0.57-0.26,1.01-0.26h3.38
			c0.43,0,0.77,0.09,1.01,0.26c0.24,0.18,0.45,0.48,0.64,0.91l7.69,18.57c0.1,0.27,0.16,0.5,0.16,0.68c0,0.43-0.23,0.65-0.68,0.65
			h-5.83c-0.64,0-1.04-0.28-1.21-0.84l-0.74-2.29h-5.49l-0.71,2.29c-0.17,0.56-0.57,0.84-1.21,0.84h-5.83
			C265.48,439.35,265.25,439.14,265.25,438.7z M277.65,431.32l-1.21-3.84l-1.21,3.84H277.65z"/>
		<path d="M291.73,439.23c-1.61-0.39-2.91-0.94-3.91-1.64c-0.41-0.29-0.62-0.57-0.62-0.84c0-0.19,0.07-0.38,0.22-0.59l1.8-2.82
			c0.19-0.27,0.37-0.4,0.56-0.4c0.17,0,0.36,0.07,0.59,0.22c0.74,0.46,1.6,0.81,2.56,1.07c0.96,0.26,1.9,0.39,2.81,0.39
			c0.76,0,1.32-0.1,1.66-0.31c0.34-0.21,0.51-0.53,0.51-0.96c0-0.48-0.23-0.86-0.68-1.15c-0.45-0.29-1.24-0.65-2.36-1.08
			c-2.09-0.81-3.73-1.72-4.93-2.74c-1.2-1.02-1.8-2.38-1.8-4.08c0-2.15,0.75-3.77,2.25-4.85c1.5-1.08,3.52-1.63,6.06-1.63
			c1.78,0,3.29,0.16,4.54,0.46c1.25,0.31,2.34,0.8,3.27,1.46c0.41,0.29,0.62,0.57,0.62,0.84c0,0.19-0.07,0.38-0.22,0.59l-1.8,2.82
			c-0.19,0.29-0.37,0.43-0.56,0.43c-0.12,0-0.32-0.08-0.59-0.25c-0.5-0.33-1.08-0.6-1.77-0.82c-0.68-0.22-1.42-0.33-2.2-0.33
			c-0.72,0-1.27,0.1-1.64,0.31c-0.37,0.21-0.56,0.54-0.56,0.99c0,0.37,0.13,0.68,0.39,0.93c0.26,0.25,0.58,0.46,0.98,0.64
			c0.39,0.18,1.07,0.46,2.05,0.85c1.55,0.62,2.77,1.21,3.66,1.78c0.89,0.57,1.56,1.25,2.02,2.05s0.68,1.8,0.68,3.02
			c0,1.86-0.7,3.36-2.09,4.51c-1.4,1.15-3.48,1.72-6.25,1.72C295.08,439.82,293.34,439.62,291.73,439.23z"/>
		<path d="M47.76,476.12c-0.28-0.29-0.42-0.73-0.42-1.33v-17.55c0-0.6,0.14-1.04,0.42-1.33c0.28-0.29,0.76-0.43,1.44-0.43h7.13
			c7.29,0,10.94,3.51,10.94,10.54c0,3.47-0.94,6.1-2.81,7.87c-1.87,1.78-4.58,2.67-8.14,2.67H49.2
			C48.52,476.55,48.04,476.41,47.76,476.12z M56.61,471.28c1.16,0,1.99-0.38,2.5-1.15c0.51-0.76,0.76-2.14,0.76-4.12
			s-0.25-3.36-0.76-4.12c-0.51-0.76-1.34-1.15-2.5-1.15h-1.83v10.54H56.61z"/>
		<path d="M69.24,476.12c-0.28-0.29-0.42-0.73-0.42-1.33v-17.55c0-0.6,0.14-1.04,0.42-1.33c0.28-0.29,0.76-0.43,1.44-0.43h12.83
			c0.66,0,1.11,0.14,1.35,0.42c0.24,0.28,0.36,0.73,0.36,1.35v1.74c0,0.62-0.12,1.07-0.36,1.35c-0.24,0.28-0.69,0.42-1.35,0.42
			h-7.25v2.67h4.46c0.66,0,1.11,0.14,1.35,0.42c0.24,0.28,0.36,0.73,0.36,1.35v1.67c0,0.62-0.12,1.07-0.36,1.35
			c-0.24,0.28-0.69,0.42-1.35,0.42h-4.46v2.67h7.22c0.66,0,1.11,0.14,1.35,0.42c0.24,0.28,0.36,0.73,0.36,1.35v1.74
			c0,0.62-0.12,1.07-0.36,1.35c-0.24,0.28-0.69,0.42-1.35,0.42h-12.8C70,476.55,69.52,476.41,69.24,476.12z"/>
		<path d="M90.55,476.43c-1.61-0.39-2.91-0.94-3.91-1.64c-0.41-0.29-0.62-0.57-0.62-0.84c0-0.19,0.07-0.38,0.22-0.59l1.8-2.82
			c0.19-0.27,0.37-0.4,0.56-0.4c0.17,0,0.36,0.07,0.59,0.22c0.74,0.46,1.6,0.81,2.56,1.07c0.96,0.26,1.9,0.39,2.81,0.39
			c0.76,0,1.32-0.1,1.66-0.31c0.34-0.21,0.51-0.53,0.51-0.96c0-0.48-0.23-0.86-0.68-1.15c-0.45-0.29-1.24-0.65-2.36-1.08
			c-2.09-0.81-3.73-1.72-4.93-2.74c-1.2-1.02-1.8-2.38-1.8-4.08c0-2.15,0.75-3.77,2.25-4.85c1.5-1.08,3.52-1.63,6.06-1.63
			c1.78,0,3.29,0.16,4.54,0.46c1.25,0.31,2.34,0.8,3.27,1.46c0.41,0.29,0.62,0.57,0.62,0.84c0,0.19-0.07,0.38-0.22,0.59l-1.8,2.82
			c-0.19,0.29-0.37,0.43-0.56,0.43c-0.12,0-0.32-0.08-0.59-0.25c-0.5-0.33-1.08-0.6-1.77-0.82c-0.68-0.22-1.42-0.33-2.2-0.33
			c-0.72,0-1.27,0.1-1.64,0.31c-0.37,0.21-0.56,0.54-0.56,0.99c0,0.37,0.13,0.68,0.39,0.93c0.26,0.25,0.58,0.46,0.98,0.64
			c0.39,0.18,1.07,0.46,2.05,0.85c1.55,0.62,2.77,1.21,3.66,1.78c0.89,0.57,1.56,1.25,2.02,2.05s0.68,1.8,0.68,3.02
			c0,1.86-0.7,3.36-2.09,4.51c-1.4,1.15-3.48,1.72-6.25,1.72C93.91,477.02,92.17,476.82,90.55,476.43z"/>
		<path d="M106.1,476.12c-0.28-0.29-0.42-0.73-0.42-1.33v-17.55c0-0.6,0.14-1.04,0.42-1.33c0.28-0.29,0.76-0.43,1.44-0.43h7.13
			c7.29,0,10.94,3.51,10.94,10.54c0,3.47-0.94,6.1-2.81,7.87c-1.87,1.78-4.58,2.67-8.14,2.67h-7.13
			C106.86,476.55,106.38,476.41,106.1,476.12z M114.95,471.28c1.16,0,1.99-0.38,2.5-1.15c0.51-0.76,0.76-2.14,0.76-4.12
			s-0.25-3.36-0.76-4.12c-0.51-0.76-1.34-1.15-2.5-1.15h-1.83v10.54H114.95z"/>
		<path d="M127.58,476.12c-0.28-0.29-0.42-0.73-0.42-1.33v-17.55c0-0.6,0.14-1.04,0.42-1.33c0.28-0.29,0.76-0.43,1.44-0.43h12.83
			c0.66,0,1.11,0.14,1.35,0.42c0.24,0.28,0.36,0.73,0.36,1.35v1.74c0,0.62-0.12,1.07-0.36,1.35c-0.24,0.28-0.69,0.42-1.35,0.42
			h-7.25v2.67h4.46c0.66,0,1.11,0.14,1.35,0.42c0.24,0.28,0.36,0.73,0.36,1.35v1.67c0,0.62-0.12,1.07-0.36,1.35
			c-0.24,0.28-0.69,0.42-1.35,0.42h-4.46v2.67h7.22c0.66,0,1.11,0.14,1.35,0.42c0.24,0.28,0.36,0.73,0.36,1.35v1.74
			c0,0.62-0.12,1.07-0.36,1.35c-0.24,0.28-0.69,0.42-1.35,0.42h-12.8C128.34,476.55,127.86,476.41,127.58,476.12z"/>
		<path d="M154.68,476.12c-0.28-0.29-0.42-0.73-0.42-1.33v-17.55c0-0.6,0.14-1.04,0.42-1.33c0.28-0.29,0.76-0.43,1.44-0.43h7.13
			c7.29,0,10.94,3.51,10.94,10.54c0,3.47-0.94,6.1-2.81,7.87c-1.87,1.78-4.58,2.67-8.14,2.67h-7.13
			C155.44,476.55,154.96,476.41,154.68,476.12z M163.53,471.28c1.16,0,1.99-0.38,2.5-1.15c0.51-0.76,0.76-2.14,0.76-4.12
			s-0.25-3.36-0.76-4.12c-0.51-0.76-1.34-1.15-2.5-1.15h-1.83v10.54H163.53z"/>
		<path d="M177.97,474.15c-1.9-1.91-2.85-4.62-2.85-8.14c0-3.51,0.95-6.23,2.85-8.14c1.9-1.91,4.69-2.87,8.37-2.87
			c3.68,0,6.47,0.96,8.37,2.87c1.9,1.91,2.85,4.63,2.85,8.14c0,3.51-0.95,6.23-2.85,8.14c-1.9,1.91-4.69,2.87-8.37,2.87
			C182.66,477.02,179.87,476.06,177.97,474.15z M189.26,470.37c0.6-0.96,0.9-2.41,0.9-4.36c0-1.96-0.3-3.42-0.9-4.37
			c-0.6-0.95-1.57-1.43-2.91-1.43c-1.34,0-2.31,0.48-2.91,1.43c-0.6,0.95-0.9,2.41-0.9,4.37c0,1.94,0.3,3.39,0.9,4.36
			c0.6,0.96,1.57,1.44,2.91,1.44C187.69,471.81,188.66,471.33,189.26,470.37z"/>
		<path d="M201.66,476.43c-1.61-0.39-2.91-0.94-3.91-1.64c-0.41-0.29-0.62-0.57-0.62-0.84c0-0.19,0.07-0.38,0.22-0.59l1.8-2.82
			c0.19-0.27,0.37-0.4,0.56-0.4c0.17,0,0.36,0.07,0.59,0.22c0.74,0.46,1.6,0.81,2.56,1.07c0.96,0.26,1.9,0.39,2.81,0.39
			c0.76,0,1.32-0.1,1.66-0.31c0.34-0.21,0.51-0.53,0.51-0.96c0-0.48-0.23-0.86-0.68-1.15c-0.45-0.29-1.24-0.65-2.36-1.08
			c-2.09-0.81-3.73-1.72-4.93-2.74c-1.2-1.02-1.8-2.38-1.8-4.08c0-2.15,0.75-3.77,2.25-4.85c1.5-1.08,3.52-1.63,6.06-1.63
			c1.78,0,3.29,0.16,4.54,0.46c1.25,0.31,2.34,0.8,3.27,1.46c0.41,0.29,0.62,0.57,0.62,0.84c0,0.19-0.07,0.38-0.22,0.59l-1.8,2.82
			c-0.19,0.29-0.37,0.43-0.56,0.43c-0.12,0-0.32-0.08-0.59-0.25c-0.5-0.33-1.08-0.6-1.77-0.82c-0.68-0.22-1.42-0.33-2.2-0.33
			c-0.72,0-1.27,0.1-1.64,0.31c-0.37,0.21-0.56,0.54-0.56,0.99c0,0.37,0.13,0.68,0.39,0.93c0.26,0.25,0.58,0.46,0.98,0.64
			c0.39,0.18,1.07,0.46,2.05,0.85c1.55,0.62,2.77,1.21,3.66,1.78c0.89,0.57,1.56,1.25,2.02,2.05s0.68,1.8,0.68,3.02
			c0,1.86-0.7,3.36-2.09,4.51c-1.4,1.15-3.48,1.72-6.25,1.72C205.01,477.02,203.27,476.82,201.66,476.43z"/>
		<path d="M228.59,474.24c-2.09-1.85-3.13-4.59-3.13-8.23c0-3.66,1.01-6.41,3.02-8.25c2.02-1.84,4.89-2.76,8.63-2.76
			c1.69,0,3.2,0.17,4.53,0.5c1.32,0.33,2.43,0.8,3.32,1.39c0.25,0.19,0.37,0.39,0.37,0.62c0,0.19-0.09,0.45-0.28,0.78l-1.55,2.67
			c-0.17,0.29-0.36,0.43-0.59,0.43c-0.15,0-0.38-0.08-0.71-0.25c-0.58-0.29-1.18-0.52-1.81-0.68c-0.63-0.17-1.37-0.25-2.22-0.25
			c-1.72,0-3.03,0.5-3.94,1.49c-0.91,0.99-1.36,2.43-1.36,4.31c0,1.86,0.5,3.29,1.49,4.29c0.99,1,2.35,1.5,4.06,1.5
			c1.49,0,2.85-0.31,4.09-0.93c0.33-0.17,0.57-0.25,0.71-0.25c0.23,0,0.42,0.14,0.59,0.43l1.55,2.67c0.19,0.33,0.28,0.59,0.28,0.78
			c0,0.23-0.12,0.43-0.37,0.62c-0.89,0.6-2,1.06-3.35,1.39c-1.34,0.33-2.86,0.5-4.56,0.5C233.61,477.02,230.68,476.09,228.59,474.24
			z"/>
		<path d="M245.8,475.9c0-0.19,0.05-0.41,0.16-0.68l7.72-18.57c0.19-0.43,0.4-0.74,0.64-0.91c0.24-0.18,0.57-0.26,1.01-0.26h3.38
			c0.43,0,0.77,0.09,1.01,0.26c0.24,0.18,0.45,0.48,0.64,0.91l7.69,18.57c0.1,0.27,0.16,0.5,0.16,0.68c0,0.43-0.23,0.65-0.68,0.65
			h-5.83c-0.64,0-1.04-0.28-1.21-0.84l-0.74-2.29h-5.49l-0.71,2.29c-0.17,0.56-0.57,0.84-1.21,0.84h-5.83
			C246.03,476.55,245.8,476.33,245.8,475.9z M258.2,468.52l-1.21-3.84l-1.21,3.84H258.2z"/>
		<path d="M270.15,476.12c-0.28-0.29-0.42-0.73-0.42-1.33v-17.58c0-0.6,0.14-1.04,0.42-1.32c0.28-0.28,0.77-0.42,1.47-0.42h2.94
			c0.43,0,0.77,0.06,1.01,0.17c0.24,0.11,0.47,0.34,0.7,0.67l5.61,8.34v-7.41c0-0.6,0.14-1.04,0.42-1.33
			c0.28-0.29,0.76-0.43,1.44-0.43h3.69c0.7,0,1.19,0.14,1.47,0.42c0.28,0.28,0.42,0.73,0.42,1.35v17.58c0,0.6-0.14,1.04-0.42,1.32
			c-0.28,0.28-0.77,0.42-1.47,0.42h-2.95c-0.43,0-0.77-0.06-1.01-0.17c-0.24-0.11-0.47-0.33-0.7-0.67l-5.61-8.34v7.44
			c0,0.6-0.14,1.04-0.42,1.32c-0.28,0.28-0.77,0.42-1.47,0.42h-3.69C270.91,476.55,270.43,476.41,270.15,476.12z"/>
		<path d="M290.87,475.9c0-0.19,0.05-0.41,0.16-0.68l7.72-18.57c0.19-0.43,0.4-0.74,0.64-0.91c0.24-0.18,0.57-0.26,1.01-0.26h3.38
			c0.43,0,0.77,0.09,1.01,0.26c0.24,0.18,0.45,0.48,0.64,0.91l7.69,18.57c0.1,0.27,0.16,0.5,0.16,0.68c0,0.43-0.23,0.65-0.68,0.65
			h-5.83c-0.64,0-1.04-0.28-1.21-0.84l-0.74-2.29h-5.49l-0.71,2.29c-0.17,0.56-0.57,0.84-1.21,0.84h-5.83
			C291.1,476.55,290.87,476.33,290.87,475.9z M303.27,468.52l-1.21-3.84l-1.21,3.84H303.27z"/>
		<path d="M315.22,476.12c-0.28-0.29-0.42-0.73-0.42-1.33v-17.55c0-0.6,0.14-1.04,0.42-1.33c0.28-0.29,0.76-0.43,1.44-0.43h3.69
			c0.7,0,1.19,0.14,1.47,0.42c0.28,0.28,0.42,0.73,0.42,1.35v14.04h7.22c0.66,0,1.11,0.14,1.35,0.42c0.24,0.28,0.36,0.73,0.36,1.35
			v1.74c0,0.62-0.12,1.07-0.36,1.35c-0.24,0.28-0.69,0.42-1.35,0.42h-12.8C315.98,476.55,315.5,476.41,315.22,476.12z"/>
		<path d="M332.06,476.12c-0.28-0.29-0.42-0.73-0.42-1.33v-17.55c0-0.6,0.14-1.04,0.42-1.33c0.28-0.29,0.76-0.43,1.44-0.43h12.83
			c0.66,0,1.11,0.14,1.35,0.42c0.24,0.28,0.36,0.73,0.36,1.35v1.74c0,0.62-0.12,1.07-0.36,1.35c-0.24,0.28-0.69,0.42-1.35,0.42
			h-7.25v2.67h4.46c0.66,0,1.11,0.14,1.35,0.42c0.24,0.28,0.36,0.73,0.36,1.35v1.67c0,0.62-0.12,1.07-0.36,1.35
			c-0.24,0.28-0.69,0.42-1.35,0.42h-4.46v2.67h7.22c0.66,0,1.11,0.14,1.35,0.42c0.24,0.28,0.36,0.73,0.36,1.35v1.74
			c0,0.62-0.12,1.07-0.36,1.35c-0.24,0.28-0.69,0.42-1.35,0.42h-12.8C332.82,476.55,332.34,476.41,332.06,476.12z"/>
		<path d="M353.37,476.43c-1.61-0.39-2.91-0.94-3.91-1.64c-0.41-0.29-0.62-0.57-0.62-0.84c0-0.19,0.07-0.38,0.22-0.59l1.8-2.82
			c0.19-0.27,0.37-0.4,0.56-0.4c0.17,0,0.36,0.07,0.59,0.22c0.74,0.46,1.6,0.81,2.56,1.07c0.96,0.26,1.9,0.39,2.81,0.39
			c0.76,0,1.32-0.1,1.66-0.31c0.34-0.21,0.51-0.53,0.51-0.96c0-0.48-0.23-0.86-0.68-1.15c-0.45-0.29-1.24-0.65-2.36-1.08
			c-2.09-0.81-3.73-1.72-4.93-2.74c-1.2-1.02-1.8-2.38-1.8-4.08c0-2.15,0.75-3.77,2.25-4.85c1.5-1.08,3.52-1.63,6.06-1.63
			c1.78,0,3.29,0.16,4.54,0.46c1.25,0.31,2.34,0.8,3.27,1.46c0.41,0.29,0.62,0.57,0.62,0.84c0,0.19-0.07,0.38-0.22,0.59l-1.8,2.82
			c-0.19,0.29-0.37,0.43-0.56,0.43c-0.12,0-0.32-0.08-0.59-0.25c-0.5-0.33-1.08-0.6-1.77-0.82c-0.68-0.22-1.42-0.33-2.2-0.33
			c-0.72,0-1.27,0.1-1.64,0.31c-0.37,0.21-0.56,0.54-0.56,0.99c0,0.37,0.13,0.68,0.39,0.93c0.26,0.25,0.58,0.46,0.98,0.64
			c0.39,0.18,1.07,0.46,2.05,0.85c1.55,0.62,2.77,1.21,3.66,1.78c0.89,0.57,1.56,1.25,2.02,2.05s0.68,1.8,0.68,3.02
			c0,1.86-0.7,3.36-2.09,4.51c-1.4,1.15-3.48,1.72-6.25,1.72C356.73,477.02,354.98,476.82,353.37,476.43z"/>
		<path d="M100.33,513.32c-0.28-0.29-0.42-0.73-0.42-1.33v-17.55c0-0.6,0.14-1.04,0.42-1.33c0.28-0.29,0.76-0.43,1.44-0.43h12.83
			c0.66,0,1.11,0.14,1.35,0.42c0.24,0.28,0.36,0.73,0.36,1.35v1.74c0,0.62-0.12,1.07-0.36,1.35c-0.24,0.28-0.69,0.42-1.35,0.42
			h-7.25v2.67h4.46c0.66,0,1.11,0.14,1.35,0.42c0.24,0.28,0.36,0.73,0.36,1.35v1.67c0,0.62-0.12,1.07-0.36,1.35
			c-0.24,0.28-0.69,0.42-1.35,0.42h-4.46v2.67h7.22c0.66,0,1.11,0.14,1.35,0.42c0.24,0.28,0.36,0.73,0.36,1.35v1.74
			c0,0.62-0.12,1.07-0.36,1.35c-0.24,0.28-0.69,0.42-1.35,0.42h-12.8C101.09,513.75,100.61,513.61,100.33,513.32z"/>
		<path d="M118.13,513.32c-0.28-0.29-0.42-0.73-0.42-1.33v-17.58c0-0.6,0.14-1.04,0.42-1.32c0.28-0.28,0.77-0.42,1.47-0.42h2.94
			c0.43,0,0.77,0.06,1.01,0.17c0.24,0.11,0.47,0.34,0.7,0.67l5.61,8.34v-7.41c0-0.6,0.14-1.04,0.42-1.33
			c0.28-0.29,0.76-0.43,1.44-0.43h3.69c0.7,0,1.19,0.14,1.47,0.42c0.28,0.28,0.42,0.73,0.42,1.35v17.58c0,0.6-0.14,1.04-0.42,1.32
			c-0.28,0.28-0.77,0.42-1.47,0.42h-2.95c-0.43,0-0.77-0.06-1.01-0.17c-0.24-0.11-0.47-0.33-0.7-0.67l-5.61-8.34v7.44
			c0,0.6-0.14,1.04-0.42,1.32c-0.28,0.28-0.77,0.42-1.47,0.42h-3.69C118.89,513.75,118.41,513.61,118.13,513.32z"/>
		<path d="M148.15,513.1c0-0.19,0.05-0.41,0.16-0.68l7.72-18.57c0.19-0.43,0.4-0.74,0.64-0.91c0.24-0.18,0.57-0.26,1.01-0.26h3.38
			c0.43,0,0.77,0.09,1.01,0.26c0.24,0.18,0.45,0.48,0.64,0.91l7.69,18.57c0.1,0.27,0.16,0.5,0.16,0.68c0,0.43-0.23,0.65-0.68,0.65
			h-5.83c-0.64,0-1.04-0.28-1.21-0.84l-0.74-2.29h-5.49l-0.71,2.29c-0.17,0.56-0.57,0.84-1.21,0.84h-5.83
			C148.38,513.75,148.15,513.54,148.15,513.1z M160.55,505.72l-1.21-3.84l-1.21,3.84H160.55z"/>
		<path d="M172.5,513.32c-0.28-0.29-0.42-0.73-0.42-1.33v-17.55c0-0.6,0.14-1.04,0.42-1.33c0.28-0.29,0.76-0.43,1.44-0.43h7.13
			c7.29,0,10.94,3.51,10.94,10.54c0,3.47-0.94,6.1-2.81,7.87c-1.87,1.78-4.58,2.67-8.14,2.67h-7.13
			C173.26,513.75,172.78,513.61,172.5,513.32z M181.35,508.48c1.16,0,1.99-0.38,2.5-1.15c0.51-0.76,0.76-2.14,0.76-4.12
			s-0.25-3.36-0.76-4.12c-0.51-0.76-1.34-1.15-2.5-1.15h-1.83v10.54H181.35z"/>
		<path d="M193.98,513.32c-0.28-0.29-0.42-0.73-0.42-1.33v-17.55c0-0.6,0.14-1.04,0.42-1.33c0.28-0.29,0.76-0.43,1.44-0.43h12.83
			c0.66,0,1.11,0.14,1.35,0.42c0.24,0.28,0.36,0.73,0.36,1.35v1.74c0,0.62-0.12,1.07-0.36,1.35c-0.24,0.28-0.69,0.42-1.35,0.42H201
			v2.67h4.46c0.66,0,1.11,0.14,1.35,0.42c0.24,0.28,0.36,0.73,0.36,1.35v1.67c0,0.62-0.12,1.07-0.36,1.35
			c-0.24,0.28-0.69,0.42-1.35,0.42H201v2.67h7.22c0.66,0,1.11,0.14,1.35,0.42c0.24,0.28,0.36,0.73,0.36,1.35v1.74
			c0,0.62-0.12,1.07-0.36,1.35c-0.24,0.28-0.69,0.42-1.35,0.42h-12.8C194.74,513.75,194.26,513.61,193.98,513.32z"/>
		<path d="M211.78,513.32c-0.28-0.29-0.42-0.73-0.42-1.33v-17.55c0-0.6,0.14-1.04,0.42-1.33c0.28-0.29,0.76-0.43,1.44-0.43h3.69
			c0.7,0,1.19,0.14,1.47,0.42c0.28,0.28,0.42,0.73,0.42,1.35v14.04h7.22c0.66,0,1.11,0.14,1.35,0.42c0.24,0.28,0.36,0.73,0.36,1.35
			v1.74c0,0.62-0.12,1.07-0.36,1.35c-0.24,0.28-0.69,0.42-1.35,0.42h-12.8C212.54,513.75,212.06,513.61,211.78,513.32z"/>
		<path d="M227.57,513.1c0-0.19,0.05-0.41,0.16-0.68l7.72-18.57c0.19-0.43,0.4-0.74,0.64-0.91c0.24-0.18,0.57-0.26,1.01-0.26h3.38
			c0.43,0,0.77,0.09,1.01,0.26c0.24,0.18,0.45,0.48,0.64,0.91l7.69,18.57c0.1,0.27,0.16,0.5,0.16,0.68c0,0.43-0.23,0.65-0.68,0.65
			h-5.83c-0.64,0-1.04-0.28-1.21-0.84l-0.74-2.29H236l-0.71,2.29c-0.17,0.56-0.57,0.84-1.21,0.84h-5.83
			C227.8,513.75,227.57,513.54,227.57,513.1z M239.97,505.72l-1.21-3.84l-1.21,3.84H239.97z"/>
		<path d="M251.92,513.32c-0.28-0.29-0.42-0.73-0.42-1.33v-17.58c0-0.6,0.14-1.04,0.42-1.32c0.28-0.28,0.77-0.42,1.47-0.42h2.94
			c0.43,0,0.77,0.06,1.01,0.17c0.24,0.11,0.47,0.34,0.7,0.67l5.61,8.34v-7.41c0-0.6,0.14-1.04,0.42-1.33
			c0.28-0.29,0.76-0.43,1.44-0.43h3.69c0.7,0,1.19,0.14,1.47,0.42c0.28,0.28,0.42,0.73,0.42,1.35v17.58c0,0.6-0.14,1.04-0.42,1.32
			c-0.28,0.28-0.77,0.42-1.47,0.42h-2.95c-0.43,0-0.77-0.06-1.01-0.17c-0.24-0.11-0.47-0.33-0.7-0.67l-5.61-8.34v7.44
			c0,0.6-0.14,1.04-0.42,1.32c-0.28,0.28-0.77,0.42-1.47,0.42h-3.69C252.68,513.75,252.2,513.61,251.92,513.32z"/>
		<path d="M278.61,513.32c-0.28-0.29-0.42-0.73-0.42-1.33v-14.04h-4.46c-0.66,0-1.11-0.14-1.35-0.42s-0.36-0.73-0.36-1.35v-1.74
			c0-0.62,0.12-1.07,0.36-1.35c0.24-0.28,0.69-0.42,1.35-0.42h16.37c0.66,0,1.11,0.14,1.35,0.42c0.24,0.28,0.36,0.73,0.36,1.35v1.74
			c0,0.62-0.12,1.07-0.36,1.35c-0.24,0.28-0.69,0.42-1.35,0.42h-4.46v14.04c0,0.6-0.14,1.04-0.42,1.33
			c-0.28,0.29-0.77,0.43-1.47,0.43h-3.69C279.37,513.75,278.89,513.61,278.61,513.32z"/>
		<path d="M293.15,513.32c-0.28-0.29-0.42-0.73-0.42-1.33v-17.55c0-0.6,0.14-1.04,0.42-1.33c0.28-0.29,0.76-0.43,1.44-0.43h12.83
			c0.66,0,1.11,0.14,1.35,0.42c0.24,0.28,0.36,0.73,0.36,1.35v1.74c0,0.62-0.12,1.07-0.36,1.35c-0.24,0.28-0.69,0.42-1.35,0.42
			h-7.25v2.67h4.46c0.66,0,1.11,0.14,1.35,0.42c0.24,0.28,0.36,0.73,0.36,1.35v1.67c0,0.62-0.12,1.07-0.36,1.35
			c-0.24,0.28-0.69,0.42-1.35,0.42h-4.46v2.67h7.22c0.66,0,1.11,0.14,1.35,0.42c0.24,0.28,0.36,0.73,0.36,1.35v1.74
			c0,0.62-0.12,1.07-0.36,1.35c-0.24,0.28-0.69,0.42-1.35,0.42h-12.8C293.91,513.75,293.43,513.61,293.15,513.32z"/>
		<path d="M310.42,513.18c-0.34-0.38-0.51-0.83-0.51-1.35v-0.78c0-0.56,0.17-1.02,0.51-1.38s0.78-0.54,1.32-0.54h0.81
			c0.54,0,0.98,0.18,1.32,0.54s0.51,0.82,0.51,1.38v0.78c0,0.54-0.17,0.99-0.51,1.36s-0.78,0.56-1.32,0.56h-0.81
			C311.2,513.75,310.76,513.56,310.42,513.18z"/>
	</g>
	<g>
		<g>
			<circle id="XMLID_107_" class="st3" cx="161.12" cy="179.29" r="46.38"/>
			<g id="XMLID_83_">
				<path id="XMLID_106_" class="st4" d="M174.02,177.47c0.6-1.47,0.91-2.63,0.97-2.94c-0.06-0.02-0.11-0.05-0.13-0.09
					c-0.09-0.14,0.19-1.64,0.06-1.75c-0.02-0.01-0.03-0.02-0.05-0.03c-0.17,0.53-0.48,0.97-0.84,1.28
					C174.03,175.09,174.03,176.27,174.02,177.47z"/>
				<path id="XMLID_105_" class="st21" d="M171.93,174.53c-0.69-0.49-0.66,6.46-3.51,9.21c-0.2,0.2-0.41,0.39-0.63,0.58
					c-0.22,0.19-0.44,0.36-0.67,0.54c0,0.09,0,0.19,0,0.29c2.63-0.77,4.48-3.1,5.63-5.1c0.52-0.9,0.93-1.79,1.26-2.59
					c0.01-1.19,0.01-2.38,0.01-3.53c-0.22,0.19-0.45,0.32-0.68,0.4C172.95,174.75,172.47,174.89,171.93,174.53z"/>
				<path id="XMLID_104_" class="st21" d="M149.79,193.03c-0.07,0.04-0.29,0.17-0.5,0.5C149.43,193.39,149.6,193.22,149.79,193.03z"
					/>
				<path id="XMLID_103_" class="st21" d="M167.14,185.52c0.07,1.53,0.37,3.54,1.62,5.36c0.41-0.36,0.64-0.45,0.79-0.19
					c0.92,1.56,1.89,2.39,2.42,2.92c-0.27-0.47-0.58-0.59-0.58-0.59s0.66-0.26,1.8,0.71c0.27,0.23,0.73,0.54,1.24,0.97
					c-0.6-2.97-0.47-9.7-0.42-16.33c-0.27,0.6-0.58,1.23-0.94,1.85C171.42,183.09,169.39,184.89,167.14,185.52z"/>
				<path id="XMLID_102_" class="st21" d="M149.81,193.02c0.52-0.53,1.18-1.25,1.82-2.33c0.15-0.26,0.39-0.17,0.81,0.21
					c1.45-2.11,1.64-4.47,1.65-6.04c-0.45-0.35-0.89-0.72-1.3-1.12c-2.85-2.75-2.82-9.7-3.51-9.21c-0.53,0.36-1,0.23-1.39-0.17
					c-0.14-0.04-0.28-0.11-0.42-0.19c-0.03,7.59,0.3,16.49-0.36,20.27c0.38-0.29,0.71-0.52,0.91-0.7
					C149.1,192.81,149.75,193,149.81,193.02z"/>
				<path id="XMLID_101_" class="st22" d="M166.55,185.29c0.2-0.04,0.39-0.09,0.58-0.14c0-0.1,0-0.2,0-0.29
					C166.93,185.01,166.74,185.15,166.55,185.29z"/>
				<path id="XMLID_100_" class="st22" d="M160.51,198.2c0.05,0.04,0.07,0.08,0.08,0.13c0.01-0.05,0.03-0.09,0.08-0.13
					c4.97-3.81,7.09-6.42,8.09-7.31c-1.25-1.83-1.55-3.84-1.62-5.36c-0.41,0.11-0.83,0.19-1.26,0.22c-0.12,0.53-0.66,1.49-2.49,1.48
					c-0.38,0-0.7-0.05-0.96-0.13c-0.28,0.05-0.55,0.1-0.83,0.13c-0.85,0.09-1.71,0.06-2.55-0.07c-0.69-0.11-1.37-0.29-2.02-0.55
					c-0.73-0.29-1.42-0.66-2.07-1.09c-0.3-0.2-0.58-0.42-0.86-0.64c-0.01,1.58-0.21,3.93-1.65,6.04
					C153.45,191.81,155.57,194.42,160.51,198.2z"/>
				<path id="XMLID_99_" class="st22" d="M160.59,198.44c0,0.01,0,0.02,0,0.03h0.01C160.59,198.46,160.59,198.45,160.59,198.44z"/>
				<path id="XMLID_98_" class="st23" d="M157.03,186.6c0.65,0.26,1.33,0.44,2.02,0.55c0.84,0.13,1.71,0.16,2.55,0.07
					c0.28-0.03,0.56-0.08,0.83-0.13c-1.22-0.34-1.3-1.3-1.33-1.63c0.05-0.39,0.19-1.73,2.33-1.71c1.95,0.02,2.41,1.13,2.48,1.62
					c0.22-0.02,0.43-0.05,0.64-0.09c0.2-0.14,0.39-0.28,0.58-0.43c0.23-0.18,0.45-0.35,0.67-0.54c0.21-0.19,0.42-0.38,0.63-0.58
					c2.85-2.75,2.82-9.7,3.51-9.21c0.54,0.36,1.01,0.22,1.41-0.19c-0.33,0.12-0.65,0.13-0.89-0.02c-0.39-0.24,0.02-2.18,0.29-5.16
					c-0.04,0.01-0.08,0.03-0.12,0.06c-0.54,0.34-1.21-4.29-3.82-6.45c-2.6-2.16-2.81-3.62-2.81-3.62c-2.6,0.3-5.15,1.24-9.44,4.65
					c-3.4,2.7-6.43,5.4-7.8,5.76c-0.12,0.03-0.21-0.1-0.31-0.29c0.28,2.92,0.67,4.81,0.28,5.05c-0.22,0.14-0.52,0.13-0.83,0.04
					c0.39,0.39,0.86,0.53,1.39,0.17c0.69-0.49,0.66,6.46,3.51,9.21c0.41,0.4,0.85,0.77,1.3,1.12c0.28,0.22,0.57,0.44,0.86,0.64
					C155.61,185.94,156.3,186.31,157.03,186.6z"/>
				<path id="XMLID_97_" class="st21" d="M147.36,164.09c0.13-2.54,2.47-11.78,13.23-11.78c10.76,0,13.1,9.23,13.23,11.78
					c0.08,1.65-0.08,2.6,0.05,3.17c0.05-0.55,0.08-1.27,0.08-2.23c0-4.86-1.98-9.87-5.16-10.71c-1.53-0.4-1.73-1.89-5.13-2.91
					c-5.44-1.63-11.58,0.63-14.71,5.85c-2.2,3.66-2.31,8.78-2.08,10.56C147.64,167.43,147.24,166.5,147.36,164.09z"/>
				<path id="XMLID_96_" class="st21" d="M148.75,169.56c1.37-0.36,4.4-3.06,7.8-5.76c4.29-3.42,6.84-4.36,9.44-4.65
					c0,0,0.21,1.46,2.81,3.62c2.6,2.16,3.28,6.79,3.82,6.45c0.04-0.03,0.08-0.04,0.12-0.06c0.03-0.31,0.06-0.62,0.08-0.95
					c0.27-3.51,0.23-4.66-0.11-5.93c-2.66-9.81-12.13-9.11-12.13-9.11s-9.14-0.86-12.08,8.95c-0.39,1.3-0.42,2.58-0.16,6.09
					c0.03,0.37,0.06,0.72,0.09,1.06C148.54,169.46,148.63,169.59,148.75,169.56z"/>
				<path id="XMLID_95_" class="st24" d="M148.72,174.32c0.38-0.24-0.01-2.14-0.28-5.05c-0.03-0.34-0.06-0.69-0.09-1.06
					c-0.27-3.51-0.23-4.79,0.16-6.09c2.94-9.81,12.08-8.95,12.08-8.95s9.47-0.7,12.13,9.11c0.35,1.28,0.38,2.42,0.11,5.93
					c-0.02,0.33-0.05,0.64-0.08,0.95c-0.28,2.98-0.68,4.92-0.29,5.16c0.24,0.15,0.56,0.14,0.89,0.02c0.23-0.08,0.46-0.22,0.68-0.4
					c0.36-0.31,0.67-0.74,0.84-1.28c-0.13-0.04-0.33,0.08-0.45-0.15c-0.13-0.27-0.06-1.46,0.05-1.72c0.11-0.26,0.22-0.38,0.63-0.31
					c0.02,0,0.04,0.02,0.06,0.02c0.05-1.2-0.1-2.35-0.73-2.6c-0.34-0.13-0.49-0.33-0.57-0.64c-0.13-0.57,0.03-1.52-0.05-3.17
					c-0.13-2.54-2.47-11.78-13.23-11.78c-10.76,0-13.1,9.23-13.23,11.78c-0.12,2.41,0.28,3.34-0.49,3.75
					c-0.04,0.02-0.08,0.05-0.13,0.07c-0.96,0.37-0.8,2.86-0.53,4.4c0.15,0.86,0.69,1.51,1.26,1.86c0.14,0.09,0.28,0.15,0.42,0.19
					C148.2,174.46,148.5,174.46,148.72,174.32z"/>
				<path id="XMLID_94_" class="st25" d="M174.47,170.79c-0.11,0.26-0.17,1.45-0.05,1.72c0.11,0.23,0.31,0.11,0.45,0.15
					c0.02,0.01,0.03,0.01,0.05,0.03c0.13,0.11-0.15,1.61-0.06,1.75c0.03,0.04,0.08,0.07,0.13,0.09c-0.06,0.31-0.37,1.47-0.97,2.94
					c-0.33,0.8-0.74,1.69-1.26,2.59c-1.15,2-3.01,4.33-5.63,5.1c-0.19,0.06-0.38,0.1-0.58,0.14c-0.21,0.04-0.42,0.07-0.64,0.09
					c-0.07-0.5-0.53-1.6-2.48-1.62c-2.14-0.02-2.28,1.31-2.33,1.71c0.03,0.32,0.12,1.28,1.33,1.63c0.26,0.07,0.58,0.12,0.96,0.13
					c1.83,0.02,2.37-0.95,2.49-1.48c0.43-0.04,0.85-0.11,1.26-0.22c2.25-0.63,4.28-2.43,5.93-5.3c0.36-0.62,0.67-1.25,0.94-1.85
					c0.86-1.91,1.3-3.55,1.34-3.86c0.02-0.01,0.05-0.02,0.07-0.03c0.15-0.1,0.26-1.09,0.35-2.21c0.09-1.07-0.25-1.64-0.61-1.76
					c-0.02-0.01-0.04-0.02-0.06-0.02C174.69,170.41,174.57,170.53,174.47,170.79z"/>
				<path id="XMLID_93_" class="st26" d="M158.7,206.4c-0.78-1.74-1.65-2.74-1.73-4.19c-0.58,0.71-0.97,1.44-0.91,2.13
					c0.22,2.3-6.59-5.58-7.23-9.36c-0.12,0.72-0.12,2.24,1.98,5.21c1.42,2.01,4.75,7.75,7.17,12.89c0.48-3.1,0.87-5.49,1.03-6.38
					C158.88,206.63,158.76,206.53,158.7,206.4z"/>
				<path id="XMLID_92_" class="st26" d="M165.11,204.35c0.07-0.69-0.33-1.42-0.91-2.13c-0.08,1.45-0.95,2.44-1.73,4.19
					c-0.06,0.13-0.17,0.23-0.3,0.3c0.17,0.93,0.58,3.48,1.09,6.76c2.35-5.24,5.69-11.21,7.15-13.27c2.2-3.13,2.09-4.64,1.96-5.32
					C171.82,198.62,164.89,206.67,165.11,204.35z"/>
				<path id="XMLID_91_" class="st26" d="M149.94,202.42c0,0.01,0.01,0.01,0.01,0.02l0.02-0.01
					C149.97,202.43,149.96,202.43,149.94,202.42z"/>
				<path id="XMLID_90_" class="st27" d="M162.47,206.4c0.78-1.74,1.65-2.74,1.73-4.19c-1.28-1.58-3.45-3.04-3.61-3.74h-0.01
					c-0.16,0.7-2.33,2.16-3.61,3.74c0.08,1.45,0.95,2.44,1.73,4.19c0.06,0.13,0.17,0.23,0.3,0.3c-0.16,0.9-0.55,3.28-1.03,6.38
					c1.44,3.06,2.56,5.92,2.77,7.66c0.2-1.67,1.2-4.36,2.51-7.28c-0.51-3.29-0.92-5.83-1.09-6.76
					C162.3,206.63,162.42,206.53,162.47,206.4z"/>
				<path id="XMLID_89_" class="st28" d="M169.55,190.69c-0.15-0.26-0.38-0.17-0.79,0.19c-1,0.89-3.12,3.51-8.09,7.31
					c-0.05,0.04-0.07,0.08-0.08,0.13c-0.01-0.05-0.03-0.09-0.08-0.13c-4.93-3.78-7.06-6.38-8.07-7.29
					c-0.43-0.38-0.66-0.47-0.81-0.21c-0.64,1.08-1.29,1.8-1.82,2.33c0,0,0.01,0,0.01,0s-0.01,0-0.03,0.01
					c-0.19,0.19-0.36,0.35-0.5,0.5c-0.15,0.24-0.3,0.58-0.38,1.06c-0.02,0.09-0.05,0.22-0.08,0.39c0.65,3.78,7.45,11.66,7.23,9.36
					c-0.07-0.69,0.33-1.42,0.91-2.13c1.28-1.58,3.45-3.04,3.61-3.74c0-0.01,0-0.02,0-0.03c0,0.01,0,0.02,0,0.03
					c0.16,0.7,2.33,2.16,3.61,3.74c0.58,0.71,0.97,1.44,0.91,2.13c-0.22,2.32,6.71-5.72,7.25-9.47c-0.02-0.12-0.05-0.22-0.06-0.29
					c-0.07-0.43-0.2-0.74-0.33-0.97C171.44,193.08,170.47,192.25,169.55,190.69z"/>
				<path id="XMLID_88_" class="st25" d="M187.93,200.4c-0.42-0.57-9.6-3.74-12.59-4.84c0.3,0.34,0.59,0.71,0.83,1.14
					c1.32,2.35,1.39,3.8,2.32,4.49c0.93,0.69-7.25,1.23-7.25,1.23l5.15,3.89c0,0-5.77,6.6-9.68,9.45c-1.21,0.88-5.03,4.41-5.96,5.94
					c0.21,1.02,0.59,2.56,0.67,3.17c0.04,0.27,0.07,0.52,0.1,0.78c7.11-0.08,13.84-1.76,19.83-4.71c0.18-3.56-0.43-17.55,6.3-20.53
					c0.14-0.06,0.3,0.08,0.48,0.39c0,0,0-0.01,0-0.01C188.08,200.66,188.01,200.51,187.93,200.4z"/>
				<path id="XMLID_87_" class="st29" d="M160.76,221.7L160.76,221.7c-1.09-0.95-5.06-5.06-6.27-5.94c-3.9-2.85-9.68-9.45-9.68-9.45
					l5.13-3.88c0-0.01-0.01-0.01-0.01-0.02c-0.53-0.04-8.12-0.56-7.22-1.23c0.93-0.69,1-2.14,2.32-4.49
					c0.26-0.47,0.58-0.87,0.91-1.22c-3.12,1.14-12.04,4.22-12.45,4.78c7.19,0.37,6.48,16.39,6.61,20.44
					c6.27,3.16,13.35,4.96,20.86,4.96c0.19,0,0.37-0.01,0.56-0.01c-0.03-0.26-0.06-0.51-0.1-0.78
					C161.35,224.26,160.97,222.73,160.76,221.7z"/>
				<path id="XMLID_86_" class="st30" d="M145.03,196.71c-1.32,2.35-1.39,3.8-2.32,4.49c-0.9,0.67,6.7,1.19,7.22,1.23
					c0.02,0,0.03,0,0.03,0l-0.02,0.01l-5.13,3.88c0,0,5.77,6.6,9.68,9.45c1.21,0.88,5.18,4.99,6.27,5.94l0,0
					c0.93-1.53,4.75-5.06,5.96-5.94c3.9-2.85,9.68-9.45,9.68-9.45l-5.15-3.89c0,0,8.18-0.54,7.25-1.23c-0.93-0.69-1-2.14-2.32-4.49
					c-0.24-0.43-0.53-0.81-0.83-1.14c-0.3-0.33-0.61-0.62-0.91-0.86c-0.51-0.42-0.98-0.74-1.24-0.97c-1.14-0.97-1.8-0.71-1.8-0.71
					s0.31,0.13,0.58,0.59c0.13,0.23,0.26,0.54,0.33,0.97c0.01,0.07,0.04,0.17,0.06,0.29c0.13,0.68,0.25,2.19-1.96,5.32
					c-1.45,2.06-4.8,8.03-7.15,13.27c-1.31,2.92-2.32,5.61-2.51,7.28c-0.21-1.74-1.33-4.59-2.77-7.66
					c-2.42-5.15-5.75-10.88-7.17-12.89c-2.1-2.97-2.1-4.49-1.98-5.21c0.03-0.17,0.06-0.3,0.08-0.39c0.08-0.48,0.23-0.82,0.38-1.06
					c0.21-0.33,0.43-0.46,0.5-0.5c0.02-0.01,0.03-0.01,0.03-0.01s-0.01,0-0.01,0c-0.06-0.02-0.7-0.21-1.79,0.72
					c-0.21,0.18-0.54,0.41-0.91,0.7c-0.36,0.28-0.77,0.63-1.16,1.05C145.61,195.84,145.29,196.24,145.03,196.71z"/>
				<path id="XMLID_85_" class="st30" d="M133.5,200.27c-0.42-0.02-1.77,6.27-3.15,13.85c2.95,2.59,6.22,4.81,9.76,6.6
					C139.98,216.66,140.69,200.64,133.5,200.27z"/>
				<path id="XMLID_84_" class="st30" d="M187.66,200.42c-6.73,2.98-6.11,16.97-6.3,20.53c3.63-1.78,6.99-4.03,10.01-6.65
					c-1.15-6.46-2.38-11.99-3.23-13.49C187.97,200.5,187.81,200.36,187.66,200.42z"/>
			</g>
		</g>
		<g>
			<g>
				<polygon class="st34" points="250.1,175.67 250.1,190.67 247.71,190.67 247.71,187.02 243.17,187.02 243.17,190.67 
					240.96,190.67 240.96,186.96 236.36,186.96 236.36,190.67 234.1,190.67 234.1,186.96 229.48,186.96 229.48,190.67 
					224.53,190.67 224.53,182.87 230.7,182.87 230.7,176 229.72,176 229.72,181.89 223.55,181.89 223.55,191.66 230.46,191.66 
					230.46,187.77 233.11,187.77 233.11,191.66 237.35,191.66 237.35,187.82 239.98,187.82 239.98,191.66 244.15,191.66 244.15,188 
					246.73,188 246.73,191.66 251.08,191.66 251.08,175.67 				"/>
			</g>
			<g>
				<path class="st35" d="M283.06,145.57h-29.32h-0.77h-10.69h-0.59h-0.5c-0.52,0-0.94,0.42-0.94,0.94v33.33
					c0,0.52,0.42,0.94,0.94,0.94h0.5h0.59h10.69h0.77h29.32c0.52,0,0.94-0.42,0.94-0.94v-33.33
					C284,145.99,283.58,145.57,283.06,145.57z"/>
				<rect x="255.35" y="148.73" class="st1" width="25.25" height="7.77"/>
				<rect x="255.35" y="161.11" class="st34" width="3.94" height="3.94"/>
				<rect x="261.76" y="161.11" class="st34" width="3.94" height="3.94"/>
				<rect x="268.17" y="161.11" class="st34" width="3.94" height="3.94"/>
				<rect x="255.35" y="167.41" class="st34" width="3.94" height="3.94"/>
				<rect x="261.76" y="167.41" class="st34" width="3.94" height="3.94"/>
				<rect x="268.17" y="167.41" class="st34" width="3.94" height="3.94"/>
				<rect x="255.35" y="173.71" class="st34" width="3.94" height="3.94"/>
				<rect x="261.76" y="173.71" class="st34" width="3.94" height="3.94"/>
				<rect x="268.17" y="173.71" class="st34" width="3.94" height="3.94"/>
				<rect x="275.27" y="161.11" class="st1" width="5.33" height="3.94"/>
				<rect x="275.27" y="167.41" class="st1" width="5.33" height="3.94"/>
				<rect x="275.27" y="173.71" class="st1" width="5.33" height="3.94"/>
				<path class="st36" d="M251.76,176.67h-8.17c-0.57,0-1.03-0.46-1.03-1.03v-25.63c0-0.57,0.46-1.03,1.03-1.03h8.17
					c0.57,0,1.03,0.46,1.03,1.03v25.63C252.79,176.21,252.33,176.67,251.76,176.67z"/>
			</g>
			<path class="st34" d="M234.02,146.21v-8.48c0-0.7-0.57-1.28-1.28-1.28h-2.84h-5.13h-0.01c-0.71,0-1.28,0.57-1.28,1.28v37.93
				c0,0.7,0.57,1.28,1.28,1.28h0.01h5.13h2.84c0.71,0,1.28-0.57,1.28-1.28v-8.48c0-0.7-0.57-1.28-1.28-1.28h-1.57
				c-0.71,0-1.28-0.57-1.28-1.28v-15.88c0-0.7,0.57-1.28,1.28-1.28h1.57C233.45,147.49,234.02,146.92,234.02,146.21z"/>
		</g>
		<g>
			<g>
				<polygon class="st34" points="248.74,238.38 248.74,253.39 246.34,253.39 246.34,249.73 241.81,249.73 241.81,253.39 
					239.6,253.39 239.6,249.67 235,249.67 235,253.39 232.73,253.39 232.73,249.67 228.11,249.67 228.11,253.39 223.17,253.39 
					223.17,245.58 229.34,245.58 229.34,238.71 228.36,238.71 228.36,244.6 222.19,244.6 222.19,254.37 229.09,254.37 
					229.09,250.48 231.75,250.48 231.75,254.37 235.98,254.37 235.98,250.53 238.62,250.53 238.62,254.37 242.79,254.37 
					242.79,250.71 245.36,250.71 245.36,254.37 249.72,254.37 249.72,238.38 				"/>
			</g>
			<g>
				<path class="st35" d="M281.7,208.28h-29.32h-0.77h-10.69h-0.59h-0.5c-0.52,0-0.94,0.42-0.94,0.94v33.33
					c0,0.52,0.42,0.94,0.94,0.94h0.5h0.59h10.69h0.77h29.32c0.52,0,0.94-0.42,0.94-0.94v-33.33
					C282.64,208.7,282.22,208.28,281.7,208.28z"/>
				<rect x="253.98" y="211.44" class="st1" width="25.25" height="7.77"/>
				<rect x="253.98" y="223.82" class="st34" width="3.94" height="3.94"/>
				<rect x="260.39" y="223.82" class="st34" width="3.94" height="3.94"/>
				<rect x="266.8" y="223.82" class="st34" width="3.94" height="3.94"/>
				<rect x="253.98" y="230.12" class="st34" width="3.94" height="3.94"/>
				<rect x="260.39" y="230.12" class="st34" width="3.94" height="3.94"/>
				<rect x="266.8" y="230.12" class="st34" width="3.94" height="3.94"/>
				<rect x="253.98" y="236.42" class="st34" width="3.94" height="3.94"/>
				<rect x="260.39" y="236.42" class="st34" width="3.94" height="3.94"/>
				<rect x="266.8" y="236.42" class="st34" width="3.94" height="3.94"/>
				<rect x="273.91" y="223.82" class="st1" width="5.33" height="3.94"/>
				<rect x="273.91" y="230.12" class="st1" width="5.33" height="3.94"/>
				<rect x="273.91" y="236.42" class="st1" width="5.33" height="3.94"/>
				<path class="st36" d="M250.39,239.38h-8.17c-0.57,0-1.03-0.46-1.03-1.03v-25.63c0-0.57,0.46-1.03,1.03-1.03h8.17
					c0.57,0,1.03,0.46,1.03,1.03v25.63C251.42,238.92,250.96,239.38,250.39,239.38z"/>
			</g>
			<path class="st34" d="M232.66,208.92v-8.48c0-0.7-0.57-1.28-1.28-1.28h-2.84h-5.13h-0.01c-0.71,0-1.28,0.57-1.28,1.28v37.93
				c0,0.7,0.57,1.28,1.28,1.28h0.01h5.13h2.84c0.71,0,1.28-0.57,1.28-1.28v-8.48c0-0.7-0.57-1.28-1.28-1.28h-1.57
				c-0.71,0-1.28-0.57-1.28-1.28v-15.88c0-0.7,0.57-1.28,1.28-1.28h1.57C232.09,210.2,232.66,209.63,232.66,208.92z"/>
		</g>
		<line class="st37" x1="215.98" y1="217.56" x2="202.35" y2="212.1"/>
		<line class="st37" x1="202.35" y1="163.03" x2="215.98" y2="157.57"/>
	</g>
</g>
</svg>
