<?xml version="1.0" encoding="utf-8"?>
<!-- Generator: Adobe Illustrator 23.0.0, SVG Export Plug-In . SVG Version: 6.00 Build 0)  -->
<svg version="1.1" id="Capa_1" xmlns="http://www.w3.org/2000/svg" xmlns:xlink="http://www.w3.org/1999/xlink" x="0px" y="0px"
	 viewBox="0 0 400 689" style="enable-background:new 0 0 400 689;" xml:space="preserve">
<style type="text/css">
	.st0{fill:#E2E2E2;}
	.st1{fill:#FFFFFF;}
	.st2{fill:#CCCDCE;}
	.st3{fill:#F2F2F2;}
	.st4{fill:none;}
	.st5{fill:#0085B0;}
	.st6{fill:#E0EF18;}
	.st7{fill:#CECECE;}
	.st8{fill:#22272F;}
	.st9{fill:#1B2538;}
	.st10{fill:#253452;}
	.st11{fill:#F9F9F9;}
	.st12{fill:#2D3543;}
	.st13{fill:#2A3D60;}
	.st14{fill:#6C92D5;}
	.st15{fill:#587955;}
	.st16{fill:#CD7054;}
	.st17{fill:#F1CC4B;}
	.st18{fill:#DFDFDF;}
	.st19{fill:#ACACAC;}
	.st20{fill:#00D13C;}
	.st21{fill:#866A5E;}
	.st22{fill:#F7DDCB;}
	.st23{fill:#FFE6D4;}
	.st24{fill:#2D2D2D;}
	.st25{fill:#1C1B1A;}
	.st26{fill:#F5F5F5;}
	.st27{fill:#77181C;}
	.st28{fill:#EAEAEA;}
	.st29{fill:#262525;}
	.st30{fill:#11100F;}
	.st31{fill:#FFFFFF;stroke:#000000;stroke-width:6;stroke-miterlimit:10;}
	.st32{fill:#D4D4D4;}
	.st33{fill:#C2C2C2;}
	.st34{fill:#505050;}
	.st35{fill:#53C2C9;}
	.st36{fill:#008B9C;}
	.st37{fill:none;stroke:#00550B;stroke-width:4;stroke-miterlimit:10;}
	.st38{fill:#CE2458;}
	.st39{fill:#155500;}
	.st40{fill:#1549FF;}
	.st41{fill:#606060;stroke:#C6C8CC;stroke-width:6;stroke-miterlimit:10;}
	.st42{fill:#727272;}
	.st43{fill:#207235;}
	.st44{fill:#A3A3A3;}
	.st45{fill:#BCBCBC;}
	.st46{fill:#2A5936;}
	.st47{opacity:0.7;fill:#7F7F7F;}
	.st48{fill:#DAA449;}
	.st49{fill:#85B681;}
	.st50{fill:#A1DC9B;}
	.st51{fill:#90C58B;}
	.st52{fill:#DD9225;}
	.st53{opacity:0.3;}
	.st54{fill:#81C378;}
	.st55{opacity:0.5;}
	.st56{fill:#A2CADE;}
	.st57{fill:#9BAEC9;}
	.st58{fill:#9D2B3B;}
	.st59{fill:#C1D4F2;}
	.st60{fill:#534D46;}
	.st61{fill:#191819;}
	.st62{fill:#222123;}
	.st63{fill:#F3FF00;}
	.st64{fill-rule:evenodd;clip-rule:evenodd;fill:#FFFFFF;}
	.st65{fill-rule:evenodd;clip-rule:evenodd;fill:#1996B8;}
	.st66{fill:none;stroke:#5A605A;stroke-width:4;stroke-miterlimit:10;}
	.st67{fill:#FFB412;}
	.st68{fill:#BACDD1;}
	.st69{fill:#1C4D59;}
	.st70{fill:#A14329;}
	.st71{fill:#FCC083;}
	.st72{fill:#E8AA63;}
	.st73{fill:#D40000;}
	.st74{opacity:0.35;fill:#7D7D7D;}
	.st75{fill:#E5E3E3;}
	.st76{fill:#121F5E;}
	.st77{fill:#A3ADAF;}
	.st78{fill:#C2C6C6;}
	.st79{fill:#E5E5E5;stroke:#FFFFFF;stroke-miterlimit:10;}
	.st80{fill:#ACB4B5;}
	.st81{fill:#7F8384;}
	.st82{fill:#282828;}
	.st83{fill:none;stroke:#46A508;stroke-width:6;stroke-miterlimit:10;}
	.st84{fill:none;stroke:#46A508;stroke-width:6;stroke-miterlimit:10;stroke-dasharray:11.7425,11.7425;}
	.st85{fill:#C89D76;}
	.st86{opacity:0.4;}
	.st87{fill:#ADADAD;}
	.st88{fill:#76A172;}
	.st89{fill:#62835F;}
	.st90{fill:#96D090;}
	.st91{fill:#EDC3A6;}
	.st92{opacity:0.69;}
	.st93{fill:#E5D3D6;}
	.st94{opacity:0.44;}
	.st95{fill:#A5A5A5;}
	.st96{fill:#DDE5E4;}
	.st97{fill:#FDFDFD;}
	.st98{fill:#E0C348;}
	.st99{fill:#606060;}
</style>
<g>
	<g>
		<path class="st20" d="M8.5,199.36c0,22,13.29,27.86,29.54,13.03c0,0,156.99-143.3,353.09,26.97V45c0-22-18-40-40-40H48.5
			c-22,0-40,18-40,40V199.36z"/>
	</g>
	<g>
		<path class="st20" d="M390.66,637c0,22-18,40-40,40H48.98c-22,0-40-18-40-40v-46.27c0-22,18-40,40-40h301.68c22,0,40,18,40,40V637
			z"/>
	</g>
	<g>
		<path d="M56.85,363.57c-0.24-0.25-0.36-0.64-0.36-1.16v-12.23H52.6c-0.58,0-0.97-0.12-1.17-0.37s-0.31-0.63-0.31-1.17v-1.51
			c0-0.54,0.1-0.93,0.31-1.17c0.21-0.24,0.6-0.37,1.17-0.37h14.26c0.58,0,0.97,0.12,1.17,0.37c0.21,0.24,0.31,0.63,0.31,1.17v1.51
			c0,0.54-0.1,0.93-0.31,1.17s-0.6,0.37-1.17,0.37h-3.89v12.23c0,0.52-0.12,0.91-0.36,1.16s-0.67,0.38-1.28,0.38h-3.21
			C57.51,363.95,57.09,363.83,56.85,363.57z"/>
		<path d="M69.51,363.57c-0.24-0.25-0.37-0.64-0.37-1.16v-15.28c0-0.52,0.12-0.91,0.37-1.16c0.24-0.25,0.66-0.38,1.25-0.38h6.45
			c2.7,0,4.67,0.54,5.9,1.61c1.23,1.07,1.85,2.69,1.85,4.85c0,1.3-0.22,2.39-0.66,3.28c-0.44,0.89-1.12,1.59-2.04,2.09l2.51,5.37
			c0.07,0.14,0.11,0.31,0.11,0.49c0,0.2-0.07,0.36-0.2,0.49c-0.13,0.13-0.31,0.19-0.53,0.19H79.6c-0.29,0-0.52-0.04-0.69-0.12
			s-0.29-0.22-0.36-0.42l-2-5.02h-0.92v4.02c0,0.52-0.12,0.91-0.37,1.16c-0.24,0.25-0.67,0.38-1.28,0.38h-3.21
			C70.17,363.95,69.76,363.83,69.51,363.57z M76.65,353.88c0.58,0,1.03-0.15,1.36-0.46c0.33-0.31,0.5-0.76,0.5-1.38
			c0-0.63-0.17-1.1-0.5-1.4c-0.33-0.31-0.79-0.46-1.36-0.46h-1.84v3.7H76.65z"/>
		<path d="M84.57,363.38c0-0.16,0.04-0.36,0.14-0.59l6.72-16.17c0.16-0.38,0.35-0.64,0.55-0.8c0.21-0.15,0.5-0.23,0.88-0.23h2.94
			c0.38,0,0.67,0.08,0.88,0.23c0.21,0.15,0.39,0.42,0.55,0.8l6.7,16.17c0.09,0.23,0.13,0.43,0.13,0.59c0,0.38-0.2,0.57-0.59,0.57
			h-5.08c-0.56,0-0.91-0.24-1.05-0.73l-0.65-2h-4.78l-0.62,2c-0.14,0.49-0.5,0.73-1.05,0.73h-5.08
			C84.76,363.95,84.57,363.76,84.57,363.38z M95.37,356.96l-1.05-3.35l-1.05,3.35H95.37z"/>
		<path d="M105.77,363.57c-0.24-0.25-0.36-0.64-0.36-1.16V347.1c0-0.52,0.12-0.91,0.36-1.15c0.24-0.24,0.67-0.37,1.28-0.37h2.56
			c0.38,0,0.67,0.05,0.88,0.15c0.21,0.1,0.41,0.29,0.61,0.58l4.89,7.26v-6.45c0-0.52,0.12-0.91,0.36-1.16
			c0.24-0.25,0.66-0.38,1.26-0.38h3.21c0.61,0,1.04,0.12,1.28,0.37c0.24,0.24,0.36,0.63,0.36,1.17v15.31c0,0.52-0.12,0.9-0.36,1.15
			c-0.24,0.24-0.67,0.36-1.28,0.36h-2.56c-0.38,0-0.67-0.05-0.88-0.15c-0.21-0.1-0.41-0.29-0.61-0.58l-4.89-7.26v6.48
			c0,0.52-0.12,0.9-0.36,1.15c-0.24,0.24-0.67,0.36-1.28,0.36h-3.21C106.44,363.95,106.02,363.83,105.77,363.57z"/>
		<path d="M127.79,363.84c-1.4-0.34-2.54-0.82-3.4-1.43c-0.36-0.25-0.54-0.5-0.54-0.73c0-0.16,0.06-0.33,0.19-0.51l1.57-2.46
			c0.16-0.23,0.32-0.35,0.49-0.35c0.14,0,0.31,0.06,0.51,0.19c0.65,0.4,1.39,0.71,2.23,0.93c0.84,0.23,1.65,0.34,2.44,0.34
			c0.67,0,1.15-0.09,1.44-0.27c0.3-0.18,0.45-0.46,0.45-0.84c0-0.41-0.2-0.75-0.59-1c-0.4-0.25-1.08-0.57-2.05-0.94
			c-1.82-0.7-3.25-1.5-4.29-2.39c-1.04-0.89-1.57-2.07-1.57-3.55c0-1.87,0.65-3.28,1.96-4.23c1.3-0.95,3.06-1.42,5.28-1.42
			c1.55,0,2.87,0.13,3.96,0.4c1.09,0.27,2.04,0.69,2.85,1.27c0.36,0.25,0.54,0.5,0.54,0.73c0,0.16-0.06,0.33-0.19,0.51l-1.57,2.46
			c-0.16,0.25-0.32,0.38-0.49,0.38c-0.11,0-0.28-0.07-0.51-0.22c-0.43-0.29-0.95-0.53-1.54-0.71c-0.59-0.19-1.23-0.28-1.92-0.28
			c-0.63,0-1.11,0.09-1.43,0.27s-0.49,0.47-0.49,0.86c0,0.32,0.11,0.59,0.34,0.81c0.22,0.22,0.51,0.4,0.85,0.55
			c0.34,0.15,0.94,0.4,1.78,0.74c1.35,0.54,2.41,1.06,3.19,1.55c0.77,0.5,1.36,1.09,1.75,1.78s0.59,1.57,0.59,2.63
			c0,1.62-0.61,2.93-1.82,3.93s-3.03,1.5-5.44,1.5C130.72,364.36,129.2,364.19,127.79,363.84z"/>
		<path d="M141.33,363.57c-0.24-0.25-0.36-0.64-0.36-1.16v-15.28c0-0.52,0.12-0.91,0.36-1.16c0.24-0.25,0.66-0.38,1.26-0.38h11.18
			c0.58,0,0.97,0.12,1.17,0.37c0.21,0.24,0.31,0.63,0.31,1.17v1.51c0,0.54-0.1,0.93-0.31,1.17c-0.21,0.24-0.6,0.37-1.17,0.37h-6.32
			v2.29h3.89c0.58,0,0.97,0.12,1.17,0.36s0.31,0.63,0.31,1.17v1.51c0,0.54-0.1,0.93-0.31,1.17c-0.21,0.24-0.6,0.36-1.17,0.36h-3.89
			v5.35c0,0.52-0.12,0.91-0.36,1.16c-0.24,0.25-0.67,0.38-1.28,0.38h-3.21C141.99,363.95,141.58,363.83,141.33,363.57z"/>
		<path d="M156.56,363.57c-0.24-0.25-0.37-0.64-0.37-1.16v-15.28c0-0.52,0.12-0.91,0.37-1.16c0.24-0.25,0.66-0.38,1.26-0.38h11.18
			c0.58,0,0.97,0.12,1.17,0.37c0.21,0.24,0.31,0.63,0.31,1.17v1.51c0,0.54-0.1,0.93-0.31,1.17s-0.6,0.37-1.17,0.37h-6.32v2.32h3.89
			c0.58,0,0.97,0.12,1.17,0.36c0.21,0.24,0.31,0.63,0.31,1.17v1.46c0,0.54-0.1,0.93-0.31,1.17s-0.6,0.36-1.17,0.36h-3.89v2.32h6.29
			c0.58,0,0.97,0.12,1.17,0.36c0.21,0.24,0.31,0.63,0.31,1.17v1.51c0,0.54-0.1,0.93-0.31,1.17c-0.21,0.24-0.6,0.36-1.17,0.36h-11.15
			C157.22,363.95,156.8,363.83,156.56,363.57z"/>
		<path d="M172.06,363.57c-0.24-0.25-0.37-0.64-0.37-1.16v-15.28c0-0.52,0.12-0.91,0.37-1.16c0.24-0.25,0.66-0.38,1.25-0.38h6.45
			c2.7,0,4.67,0.54,5.9,1.61c1.23,1.07,1.85,2.69,1.85,4.85c0,1.3-0.22,2.39-0.66,3.28c-0.44,0.89-1.12,1.59-2.04,2.09l2.51,5.37
			c0.07,0.14,0.11,0.31,0.11,0.49c0,0.2-0.07,0.36-0.2,0.49c-0.13,0.13-0.31,0.19-0.53,0.19h-4.56c-0.29,0-0.52-0.04-0.69-0.12
			s-0.29-0.22-0.36-0.42l-2-5.02h-0.92v4.02c0,0.52-0.12,0.91-0.37,1.16c-0.24,0.25-0.67,0.38-1.28,0.38h-3.21
			C172.72,363.95,172.3,363.83,172.06,363.57z M179.2,353.88c0.58,0,1.03-0.15,1.36-0.46c0.33-0.31,0.5-0.76,0.5-1.38
			c0-0.63-0.17-1.1-0.5-1.4c-0.33-0.31-0.79-0.46-1.36-0.46h-1.84v3.7H179.2z"/>
		<path d="M189.23,363.57c-0.24-0.25-0.37-0.64-0.37-1.16v-15.28c0-0.52,0.12-0.91,0.37-1.16c0.24-0.25,0.66-0.38,1.25-0.38h3.21
			c0.61,0,1.04,0.12,1.28,0.37c0.24,0.24,0.37,0.63,0.37,1.17v15.28c0,0.52-0.12,0.91-0.37,1.16c-0.24,0.25-0.67,0.38-1.28,0.38
			h-3.21C189.89,363.95,189.47,363.83,189.23,363.57z"/>
		<path d="M197.6,363.57c-0.24-0.25-0.37-0.64-0.37-1.16v-15.28c0-0.52,0.12-0.91,0.37-1.16c0.24-0.25,0.66-0.38,1.26-0.38h6.45
			c2.7,0,4.67,0.54,5.9,1.61c1.23,1.07,1.85,2.69,1.85,4.85c0,1.3-0.22,2.39-0.66,3.28c-0.44,0.89-1.12,1.59-2.04,2.09l2.51,5.37
			c0.07,0.14,0.11,0.31,0.11,0.49c0,0.2-0.07,0.36-0.2,0.49c-0.13,0.13-0.31,0.19-0.53,0.19h-4.56c-0.29,0-0.52-0.04-0.69-0.12
			c-0.17-0.08-0.29-0.22-0.37-0.42l-2-5.02h-0.92v4.02c0,0.52-0.12,0.91-0.36,1.16s-0.67,0.38-1.28,0.38h-3.21
			C198.26,363.95,197.84,363.83,197.6,363.57z M204.74,353.88c0.58,0,1.03-0.15,1.36-0.46c0.33-0.31,0.5-0.76,0.5-1.38
			c0-0.63-0.17-1.1-0.5-1.4c-0.33-0.31-0.79-0.46-1.36-0.46h-1.84v3.7H204.74z"/>
		<path d="M222.87,363.57c-0.24-0.25-0.37-0.64-0.37-1.16v-15.28c0-0.52,0.12-0.91,0.37-1.16c0.24-0.25,0.66-0.38,1.26-0.38h3.21
			c0.61,0,1.04,0.12,1.28,0.37c0.24,0.24,0.36,0.63,0.36,1.17v12.23h6.29c0.58,0,0.97,0.12,1.17,0.36c0.21,0.24,0.31,0.63,0.31,1.17
			v1.51c0,0.54-0.1,0.93-0.31,1.17c-0.21,0.24-0.6,0.36-1.17,0.36h-11.15C223.53,363.95,223.11,363.83,222.87,363.57z"/>
		<path d="M237.94,363.57c-0.24-0.25-0.37-0.64-0.37-1.16v-15.28c0-0.52,0.12-0.91,0.37-1.16c0.24-0.25,0.66-0.38,1.25-0.38h3.21
			c0.61,0,1.04,0.12,1.28,0.37c0.24,0.24,0.37,0.63,0.37,1.17v12.23h6.29c0.58,0,0.97,0.12,1.17,0.36s0.31,0.63,0.31,1.17v1.51
			c0,0.54-0.1,0.93-0.31,1.17s-0.6,0.36-1.17,0.36h-11.15C238.6,363.95,238.18,363.83,237.94,363.57z"/>
		<path d="M251.69,363.38c0-0.16,0.04-0.36,0.13-0.59l6.72-16.17c0.16-0.38,0.35-0.64,0.55-0.8c0.21-0.15,0.5-0.23,0.88-0.23h2.94
			c0.38,0,0.67,0.08,0.88,0.23c0.21,0.15,0.39,0.42,0.55,0.8l6.7,16.17c0.09,0.23,0.13,0.43,0.13,0.59c0,0.38-0.2,0.57-0.59,0.57
			h-5.08c-0.56,0-0.91-0.24-1.05-0.73l-0.65-2h-4.78l-0.62,2c-0.14,0.49-0.49,0.73-1.05,0.73h-5.08
			C251.89,363.95,251.69,363.76,251.69,363.38z M262.49,356.96l-1.05-3.35l-1.05,3.35H262.49z"/>
		<path d="M272.23,363.57c-0.24-0.25-0.36-0.64-0.36-1.16V347.1c0-0.52,0.12-0.91,0.36-1.15c0.24-0.24,0.67-0.37,1.28-0.37h3.1
			c0.4,0,0.71,0.05,0.95,0.15c0.23,0.1,0.41,0.29,0.54,0.58l3.16,7.91l3.16-7.91c0.13-0.29,0.3-0.48,0.54-0.58
			c0.23-0.1,0.55-0.15,0.95-0.15h3.11c0.61,0,1.04,0.12,1.28,0.37c0.24,0.24,0.36,0.63,0.36,1.15v15.31c0,0.52-0.12,0.91-0.36,1.16
			s-0.66,0.38-1.25,0.38h-2.59c-0.59,0-1.02-0.13-1.27-0.38s-0.38-0.64-0.38-1.16v-7.37l-1.59,3.67c-0.22,0.52-0.45,0.9-0.7,1.12
			c-0.25,0.22-0.67,0.34-1.24,0.34s-0.99-0.11-1.24-0.34c-0.25-0.23-0.49-0.6-0.7-1.12l-1.59-3.67v7.37c0,0.52-0.12,0.91-0.36,1.16
			c-0.24,0.25-0.67,0.38-1.28,0.38h-2.59C272.89,363.95,272.47,363.83,272.23,363.57z"/>
		<path d="M291.33,363.38c0-0.16,0.04-0.36,0.14-0.59l6.72-16.17c0.16-0.38,0.35-0.64,0.55-0.8c0.21-0.15,0.5-0.23,0.88-0.23h2.94
			c0.38,0,0.67,0.08,0.88,0.23c0.21,0.15,0.39,0.42,0.55,0.8l6.7,16.17c0.09,0.23,0.13,0.43,0.13,0.59c0,0.38-0.2,0.57-0.59,0.57
			h-5.08c-0.56,0-0.91-0.24-1.05-0.73l-0.65-2h-4.78l-0.62,2c-0.14,0.49-0.5,0.73-1.05,0.73h-5.08
			C291.53,363.95,291.33,363.76,291.33,363.38z M302.13,356.96l-1.05-3.35l-1.05,3.35H302.13z"/>
		<path d="M312.54,363.57c-0.24-0.25-0.36-0.64-0.36-1.16v-15.28c0-0.52,0.12-0.91,0.36-1.16c0.24-0.25,0.66-0.38,1.25-0.38H320
			c6.35,0,9.53,3.06,9.53,9.18c0,3.02-0.82,5.31-2.44,6.86c-1.63,1.55-3.99,2.32-7.09,2.32h-6.21
			C313.2,363.95,312.78,363.83,312.54,363.57z M320.25,359.36c1.01,0,1.73-0.33,2.17-1s0.66-1.86,0.66-3.59
			c0-1.73-0.22-2.92-0.66-3.59c-0.44-0.67-1.17-1-2.17-1h-1.59v9.18H320.25z"/>
		<path d="M329.13,363.38c0-0.16,0.04-0.36,0.14-0.59l6.72-16.17c0.16-0.38,0.35-0.64,0.55-0.8c0.21-0.15,0.5-0.23,0.88-0.23h2.94
			c0.38,0,0.67,0.08,0.88,0.23c0.21,0.15,0.39,0.42,0.55,0.8l6.7,16.17c0.09,0.23,0.13,0.43,0.13,0.59c0,0.38-0.2,0.57-0.59,0.57
			h-5.08c-0.56,0-0.91-0.24-1.05-0.73l-0.65-2h-4.78l-0.62,2c-0.14,0.49-0.5,0.73-1.05,0.73h-5.08
			C329.33,363.95,329.13,363.76,329.13,363.38z M339.93,356.96l-1.05-3.35l-1.05,3.35H339.93z"/>
		<path d="M352.19,363.84c-1.4-0.34-2.54-0.82-3.4-1.43c-0.36-0.25-0.54-0.5-0.54-0.73c0-0.16,0.06-0.33,0.19-0.51l1.57-2.46
			c0.16-0.23,0.32-0.35,0.49-0.35c0.14,0,0.31,0.06,0.51,0.19c0.65,0.4,1.39,0.71,2.23,0.93c0.84,0.23,1.65,0.34,2.44,0.34
			c0.67,0,1.15-0.09,1.45-0.27c0.3-0.18,0.45-0.46,0.45-0.84c0-0.41-0.2-0.75-0.59-1c-0.4-0.25-1.08-0.57-2.05-0.94
			c-1.82-0.7-3.25-1.5-4.29-2.39c-1.04-0.89-1.57-2.07-1.57-3.55c0-1.87,0.65-3.28,1.96-4.23c1.3-0.95,3.06-1.42,5.28-1.42
			c1.55,0,2.87,0.13,3.96,0.4c1.09,0.27,2.04,0.69,2.85,1.27c0.36,0.25,0.54,0.5,0.54,0.73c0,0.16-0.06,0.33-0.19,0.51l-1.57,2.46
			c-0.16,0.25-0.32,0.38-0.49,0.38c-0.11,0-0.28-0.07-0.51-0.22c-0.43-0.29-0.94-0.53-1.54-0.71c-0.59-0.19-1.23-0.28-1.92-0.28
			c-0.63,0-1.11,0.09-1.43,0.27s-0.49,0.47-0.49,0.86c0,0.32,0.11,0.59,0.34,0.81s0.51,0.4,0.85,0.55c0.34,0.15,0.94,0.4,1.78,0.74
			c1.35,0.54,2.41,1.06,3.19,1.55s1.36,1.09,1.76,1.78c0.4,0.69,0.59,1.57,0.59,2.63c0,1.62-0.61,2.93-1.82,3.93s-3.03,1.5-5.44,1.5
			C355.11,364.36,353.59,364.19,352.19,363.84z"/>
		<path d="M87.17,395.97c-0.24-0.25-0.37-0.64-0.37-1.16v-15.28c0-0.52,0.12-0.91,0.37-1.16c0.24-0.25,0.66-0.38,1.25-0.38h6.45
			c2.7,0,4.67,0.54,5.9,1.61c1.23,1.07,1.85,2.69,1.85,4.85s-0.62,3.77-1.85,4.83c-1.23,1.06-3.19,1.59-5.87,1.59h-1.62v3.94
			c0,0.52-0.12,0.91-0.37,1.16c-0.24,0.25-0.67,0.38-1.28,0.38h-3.21C87.83,396.35,87.41,396.23,87.17,395.97z M94.31,386.28
			c0.58,0,1.03-0.15,1.36-0.46c0.33-0.31,0.5-0.76,0.5-1.38c0-0.63-0.17-1.1-0.5-1.4c-0.33-0.31-0.79-0.46-1.36-0.46h-1.84v3.7
			H94.31z"/>
		<path d="M104.71,394.26c-1.66-1.66-2.48-4.03-2.48-7.09c0-3.06,0.83-5.42,2.48-7.09c1.66-1.67,4.09-2.5,7.29-2.5
			c3.2,0,5.63,0.83,7.29,2.5c1.66,1.67,2.48,4.03,2.48,7.09c0,3.06-0.83,5.42-2.48,7.09c-1.66,1.67-4.09,2.5-7.29,2.5
			C108.79,396.76,106.36,395.92,104.71,394.26z M114.54,390.97c0.52-0.84,0.78-2.1,0.78-3.79c0-1.71-0.26-2.98-0.78-3.81
			c-0.52-0.83-1.37-1.24-2.54-1.24s-2.02,0.41-2.54,1.24c-0.52,0.83-0.78,2.1-0.78,3.81c0,1.69,0.26,2.96,0.78,3.79
			s1.37,1.26,2.54,1.26S114.01,391.8,114.54,390.97z"/>
		<path d="M123.49,395.97c-0.24-0.25-0.37-0.64-0.37-1.16v-15.28c0-0.52,0.12-0.91,0.37-1.16c0.24-0.25,0.66-0.38,1.26-0.38h6.45
			c2.7,0,4.67,0.54,5.9,1.61c1.23,1.07,1.85,2.69,1.85,4.85c0,1.3-0.22,2.39-0.66,3.28c-0.44,0.89-1.12,1.59-2.04,2.09l2.51,5.37
			c0.07,0.14,0.11,0.31,0.11,0.49c0,0.2-0.07,0.36-0.2,0.49c-0.13,0.13-0.31,0.19-0.53,0.19h-4.56c-0.29,0-0.52-0.04-0.69-0.12
			c-0.17-0.08-0.29-0.22-0.37-0.42l-2-5.02h-0.92v4.02c0,0.52-0.12,0.91-0.36,1.16s-0.67,0.38-1.28,0.38h-3.21
			C124.15,396.35,123.73,396.23,123.49,395.97z M130.63,386.28c0.58,0,1.03-0.15,1.36-0.46c0.33-0.31,0.5-0.76,0.5-1.38
			c0-0.63-0.17-1.1-0.5-1.4c-0.33-0.31-0.79-0.46-1.36-0.46h-1.84v3.7H130.63z"/>
		<path d="M148.76,395.97c-0.24-0.25-0.37-0.64-0.37-1.16v-15.28c0-0.52,0.12-0.91,0.37-1.16c0.24-0.25,0.66-0.38,1.26-0.38h3.21
			c0.61,0,1.04,0.12,1.28,0.37c0.24,0.24,0.36,0.63,0.36,1.17v15.28c0,0.52-0.12,0.91-0.36,1.16s-0.67,0.38-1.28,0.38h-3.21
			C149.42,396.35,149,396.23,148.76,395.97z"/>
		<path d="M157.13,395.97c-0.24-0.25-0.36-0.64-0.36-1.16v-15.28c0-0.52,0.12-0.91,0.36-1.16c0.24-0.25,0.66-0.38,1.26-0.38h6.45
			c2.7,0,4.67,0.54,5.9,1.61c1.23,1.07,1.85,2.69,1.85,4.85s-0.62,3.77-1.85,4.83c-1.23,1.06-3.19,1.59-5.87,1.59h-1.62v3.94
			c0,0.52-0.12,0.91-0.36,1.16c-0.24,0.25-0.67,0.38-1.28,0.38h-3.21C157.79,396.35,157.37,396.23,157.13,395.97z M164.27,386.28
			c0.58,0,1.03-0.15,1.36-0.46c0.33-0.31,0.5-0.76,0.5-1.38c0-0.63-0.17-1.1-0.5-1.4c-0.33-0.31-0.79-0.46-1.36-0.46h-1.84v3.7
			H164.27z"/>
		<path d="M180.96,395.79c0-0.16,0.04-0.36,0.13-0.59l6.72-16.17c0.16-0.38,0.35-0.64,0.55-0.8c0.21-0.15,0.5-0.23,0.88-0.23h2.94
			c0.38,0,0.67,0.08,0.88,0.23c0.21,0.15,0.39,0.42,0.55,0.8l6.7,16.17c0.09,0.23,0.13,0.43,0.13,0.59c0,0.38-0.2,0.57-0.59,0.57
			h-5.08c-0.56,0-0.91-0.24-1.05-0.73l-0.65-2h-4.78l-0.62,2c-0.14,0.49-0.5,0.73-1.05,0.73h-5.08
			C181.15,396.35,180.96,396.16,180.96,395.79z M191.75,389.36l-1.05-3.35l-1.05,3.35H191.75z"/>
		<path d="M213.97,395.91c-1.33-0.57-2.37-1.39-3.1-2.46c-0.74-1.07-1.11-2.34-1.11-3.82v-10.1c0-0.52,0.12-0.91,0.36-1.16
			c0.24-0.25,0.66-0.38,1.26-0.38h3.21c0.61,0,1.04,0.12,1.28,0.37c0.24,0.24,0.36,0.63,0.36,1.17v10.18c0,0.85,0.21,1.48,0.63,1.89
			c0.42,0.41,1,0.62,1.74,0.62s1.32-0.21,1.74-0.62c0.42-0.41,0.63-1.04,0.63-1.89v-10.18c0-0.52,0.12-0.91,0.36-1.16
			c0.24-0.25,0.66-0.38,1.26-0.38h3.21c0.61,0,1.04,0.12,1.28,0.37c0.24,0.24,0.36,0.63,0.36,1.17v10.1c0,1.48-0.37,2.75-1.11,3.82
			c-0.74,1.07-1.77,1.89-3.1,2.46c-1.33,0.57-2.88,0.85-4.64,0.85S215.31,396.47,213.97,395.91z"/>
		<path d="M229.59,395.97c-0.24-0.25-0.36-0.64-0.36-1.16V379.5c0-0.52,0.12-0.91,0.36-1.15c0.24-0.24,0.67-0.37,1.28-0.37h2.57
			c0.38,0,0.67,0.05,0.88,0.15c0.21,0.1,0.41,0.29,0.61,0.58l4.89,7.26v-6.45c0-0.52,0.12-0.91,0.36-1.16
			c0.24-0.25,0.66-0.38,1.25-0.38h3.21c0.61,0,1.04,0.12,1.28,0.37c0.24,0.24,0.36,0.63,0.36,1.17v15.31c0,0.52-0.12,0.9-0.36,1.15
			s-0.67,0.36-1.28,0.36h-2.56c-0.38,0-0.67-0.05-0.88-0.15c-0.21-0.1-0.41-0.29-0.61-0.58l-4.89-7.26v6.48
			c0,0.52-0.12,0.9-0.36,1.15s-0.67,0.36-1.28,0.36h-3.21C230.26,396.35,229.84,396.23,229.59,395.97z"/>
		<path d="M247.64,395.79c0-0.16,0.04-0.36,0.14-0.59l6.72-16.17c0.16-0.38,0.35-0.64,0.55-0.8c0.21-0.15,0.5-0.23,0.88-0.23h2.94
			c0.38,0,0.67,0.08,0.88,0.23c0.21,0.15,0.39,0.42,0.55,0.8l6.7,16.17c0.09,0.23,0.13,0.43,0.13,0.59c0,0.38-0.2,0.57-0.59,0.57
			h-5.08c-0.56,0-0.91-0.24-1.05-0.73l-0.65-2h-4.78l-0.62,2c-0.14,0.49-0.5,0.73-1.05,0.73h-5.08
			C247.84,396.35,247.64,396.16,247.64,395.79z M258.44,389.36l-1.05-3.35l-1.05,3.35H258.44z"/>
		<path d="M276.95,395.97c-0.24-0.25-0.36-0.64-0.36-1.16v-15.28c0-0.52,0.12-0.91,0.36-1.16c0.24-0.25,0.66-0.38,1.25-0.38h6.45
			c2.7,0,4.67,0.54,5.9,1.61c1.23,1.07,1.85,2.69,1.85,4.85s-0.62,3.77-1.85,4.83c-1.23,1.06-3.19,1.59-5.87,1.59h-1.62v3.94
			c0,0.52-0.12,0.91-0.36,1.16s-0.67,0.38-1.28,0.38h-3.21C277.61,396.35,277.2,396.23,276.95,395.97z M284.09,386.28
			c0.58,0,1.03-0.15,1.36-0.46c0.33-0.31,0.5-0.76,0.5-1.38c0-0.63-0.17-1.1-0.5-1.4c-0.33-0.31-0.79-0.46-1.36-0.46h-1.84v3.7
			H284.09z"/>
		<path d="M293.58,395.97c-0.24-0.25-0.37-0.64-0.37-1.16v-15.28c0-0.52,0.12-0.91,0.37-1.16c0.24-0.25,0.66-0.38,1.26-0.38h8.18
			c2.2,0,3.81,0.47,4.85,1.4c1.04,0.94,1.55,2.27,1.55,4c0,0.81-0.18,1.53-0.53,2.15c-0.35,0.62-0.81,1.06-1.39,1.31
			c1.6,0.54,2.4,1.8,2.4,3.78c0,1.69-0.6,3.07-1.8,4.13s-2.96,1.59-5.28,1.59h-7.99C294.25,396.35,293.83,396.23,293.58,395.97z
			 M301.72,384.93c0.83,0,1.24-0.4,1.24-1.19c0-0.79-0.41-1.19-1.24-1.19h-2.05v2.38H301.72z M302.18,391.79
			c0.38,0,0.68-0.12,0.92-0.36c0.23-0.24,0.35-0.57,0.35-0.99c0-0.43-0.11-0.76-0.34-1c-0.23-0.23-0.54-0.35-0.93-0.35h-2.51v2.7
			H302.18z"/>
		<path d="M309.68,396.18c-0.12-0.12-0.18-0.26-0.18-0.42c0-0.18,0.07-0.37,0.22-0.57l6.18-8.34l-5.7-7.7
			c-0.14-0.2-0.22-0.39-0.22-0.57c0-0.16,0.06-0.3,0.18-0.42s0.28-0.18,0.5-0.18h5.05c0.27,0,0.48,0.03,0.62,0.09
			c0.14,0.06,0.27,0.17,0.38,0.31l2.73,3.7l2.75-3.7c0.11-0.14,0.23-0.25,0.38-0.31c0.14-0.06,0.35-0.09,0.62-0.09h5.05
			c0.22,0,0.38,0.06,0.5,0.18s0.18,0.26,0.18,0.42c0,0.18-0.07,0.37-0.22,0.57l-5.72,7.7l6.21,8.34c0.14,0.2,0.22,0.39,0.22,0.57
			c0,0.16-0.06,0.3-0.18,0.42c-0.12,0.12-0.28,0.18-0.5,0.18h-5.05c-0.27,0-0.48-0.03-0.62-0.09c-0.14-0.06-0.27-0.17-0.38-0.31
			l-3.24-4.35l-3.21,4.35c-0.11,0.14-0.23,0.25-0.38,0.31c-0.14,0.06-0.35,0.09-0.62,0.09h-5.05
			C309.96,396.35,309.79,396.29,309.68,396.18z"/>
		<path d="M105.57,426.66c-1.66-1.66-2.48-4.03-2.48-7.09c0-3.06,0.83-5.42,2.48-7.09c1.66-1.67,4.09-2.5,7.29-2.5
			c3.2,0,5.63,0.83,7.29,2.5c1.66,1.67,2.48,4.03,2.48,7.09c0,3.06-0.83,5.42-2.48,7.09c-1.66,1.67-4.09,2.5-7.29,2.5
			C109.66,429.16,107.23,428.32,105.57,426.66z M115.4,423.37c0.52-0.84,0.78-2.1,0.78-3.79c0-1.71-0.26-2.98-0.78-3.81
			c-0.52-0.83-1.37-1.24-2.54-1.24s-2.02,0.41-2.54,1.24c-0.52,0.83-0.78,2.1-0.78,3.81c0,1.69,0.26,2.96,0.78,3.79
			c0.52,0.84,1.37,1.26,2.54,1.26S114.88,424.2,115.4,423.37z"/>
		<path d="M132.45,428.37c-0.24-0.25-0.36-0.64-0.36-1.16v-15.28c0-0.52,0.12-0.91,0.36-1.16c0.24-0.25,0.66-0.38,1.26-0.38h6.45
			c2.7,0,4.67,0.54,5.9,1.61c1.23,1.07,1.85,2.69,1.85,4.85c0,1.3-0.22,2.39-0.66,3.28c-0.44,0.89-1.12,1.59-2.04,2.09l2.51,5.37
			c0.07,0.14,0.11,0.31,0.11,0.49c0,0.2-0.07,0.36-0.2,0.49c-0.13,0.13-0.31,0.19-0.53,0.19h-4.56c-0.29,0-0.52-0.04-0.69-0.12
			c-0.17-0.08-0.29-0.22-0.37-0.42l-2-5.02h-0.92v4.02c0,0.52-0.12,0.91-0.36,1.16c-0.24,0.25-0.67,0.38-1.28,0.38h-3.21
			C133.11,428.75,132.69,428.63,132.45,428.37z M139.59,418.68c0.58,0,1.03-0.15,1.36-0.46c0.33-0.31,0.5-0.76,0.5-1.38
			c0-0.63-0.17-1.1-0.5-1.4c-0.33-0.31-0.79-0.46-1.36-0.46h-1.84v3.7H139.59z"/>
		<path d="M149.62,428.37c-0.24-0.25-0.36-0.64-0.36-1.16v-15.28c0-0.52,0.12-0.91,0.36-1.16c0.24-0.25,0.66-0.38,1.26-0.38h11.18
			c0.58,0,0.97,0.12,1.17,0.37c0.21,0.24,0.31,0.63,0.31,1.17v1.51c0,0.54-0.1,0.93-0.31,1.17c-0.21,0.24-0.6,0.37-1.17,0.37h-6.32
			v2.32h3.89c0.58,0,0.97,0.12,1.17,0.36c0.21,0.24,0.31,0.63,0.31,1.17v1.46c0,0.54-0.1,0.93-0.31,1.17s-0.6,0.36-1.17,0.36h-3.89
			v2.32h6.29c0.58,0,0.97,0.12,1.18,0.36c0.21,0.24,0.31,0.63,0.31,1.17v1.51c0,0.54-0.1,0.93-0.31,1.17
			c-0.21,0.24-0.6,0.36-1.18,0.36h-11.15C150.28,428.75,149.87,428.63,149.62,428.37z"/>
		<path d="M165.12,428.37c-0.24-0.25-0.37-0.64-0.37-1.16V411.9c0-0.52,0.12-0.91,0.37-1.15c0.24-0.24,0.67-0.37,1.28-0.37h3.1
			c0.4,0,0.71,0.05,0.95,0.15c0.23,0.1,0.41,0.29,0.54,0.58l3.16,7.91l3.16-7.91c0.13-0.29,0.31-0.48,0.54-0.58
			c0.23-0.1,0.55-0.15,0.95-0.15h3.1c0.61,0,1.04,0.12,1.28,0.37c0.24,0.24,0.37,0.63,0.37,1.15v15.31c0,0.52-0.12,0.91-0.37,1.16
			c-0.24,0.25-0.66,0.38-1.25,0.38h-2.59c-0.59,0-1.02-0.13-1.27-0.38s-0.38-0.64-0.38-1.16v-7.37l-1.59,3.67
			c-0.22,0.52-0.45,0.9-0.7,1.12c-0.25,0.22-0.67,0.34-1.24,0.34s-0.99-0.11-1.24-0.34c-0.25-0.23-0.49-0.6-0.7-1.12l-1.59-3.67
			v7.37c0,0.52-0.12,0.91-0.36,1.16s-0.67,0.38-1.28,0.38h-2.59C165.78,428.75,165.36,428.63,165.12,428.37z"/>
		<path d="M184.22,428.18c0-0.16,0.04-0.36,0.14-0.59l6.72-16.17c0.16-0.38,0.35-0.64,0.55-0.8c0.21-0.15,0.5-0.23,0.88-0.23h2.94
			c0.38,0,0.67,0.08,0.88,0.23c0.21,0.15,0.39,0.42,0.55,0.8l6.7,16.17c0.09,0.23,0.13,0.43,0.13,0.59c0,0.38-0.2,0.57-0.59,0.57
			h-5.08c-0.56,0-0.91-0.24-1.05-0.73l-0.65-2h-4.78l-0.62,2c-0.14,0.49-0.5,0.73-1.05,0.73h-5.08
			C184.42,428.75,184.22,428.56,184.22,428.18z M195.02,421.76l-1.05-3.35l-1.05,3.35H195.02z"/>
		<path d="M205.43,428.37c-0.24-0.25-0.36-0.64-0.36-1.16v-15.28c0-0.52,0.12-0.91,0.36-1.16c0.24-0.25,0.66-0.38,1.26-0.38h6.45
			c2.7,0,4.67,0.54,5.9,1.61c1.23,1.07,1.85,2.69,1.85,4.85c0,1.3-0.22,2.39-0.66,3.28c-0.44,0.89-1.12,1.59-2.04,2.09l2.51,5.37
			c0.07,0.14,0.11,0.31,0.11,0.49c0,0.2-0.07,0.36-0.2,0.49c-0.13,0.13-0.31,0.19-0.53,0.19h-4.56c-0.29,0-0.52-0.04-0.69-0.12
			c-0.17-0.08-0.29-0.22-0.37-0.42l-2-5.02h-0.92v4.02c0,0.52-0.12,0.91-0.36,1.16c-0.24,0.25-0.67,0.38-1.28,0.38h-3.21
			C206.09,428.75,205.67,428.63,205.43,428.37z M212.57,418.68c0.58,0,1.03-0.15,1.36-0.46c0.33-0.31,0.5-0.76,0.5-1.38
			c0-0.63-0.17-1.1-0.5-1.4c-0.33-0.31-0.79-0.46-1.36-0.46h-1.84v3.7H212.57z"/>
		<path d="M224.42,426.74c-1.82-1.61-2.73-4-2.73-7.17c0-3.19,0.88-5.58,2.63-7.18c1.75-1.6,4.26-2.4,7.52-2.4
			c1.47,0,2.79,0.14,3.94,0.43s2.12,0.69,2.89,1.21c0.22,0.16,0.32,0.34,0.32,0.54c0,0.16-0.08,0.39-0.24,0.67l-1.35,2.32
			c-0.14,0.25-0.32,0.38-0.51,0.38c-0.13,0-0.33-0.07-0.62-0.22c-0.5-0.25-1.03-0.45-1.58-0.59c-0.55-0.14-1.19-0.22-1.93-0.22
			c-1.49,0-2.64,0.43-3.43,1.3c-0.79,0.86-1.19,2.12-1.19,3.75c0,1.62,0.43,2.87,1.29,3.74c0.87,0.87,2.04,1.31,3.54,1.31
			c1.3,0,2.48-0.27,3.56-0.81c0.29-0.14,0.5-0.22,0.62-0.22c0.2,0,0.37,0.13,0.51,0.38l1.35,2.32c0.16,0.29,0.24,0.51,0.24,0.67
			c0,0.2-0.11,0.38-0.32,0.54c-0.77,0.52-1.75,0.93-2.92,1.21c-1.17,0.29-2.49,0.43-3.97,0.43
			C228.79,429.16,226.24,428.35,224.42,426.74z"/>
		<path d="M239.41,428.18c0-0.16,0.04-0.36,0.14-0.59l6.72-16.17c0.16-0.38,0.35-0.64,0.55-0.8c0.21-0.15,0.5-0.23,0.88-0.23h2.94
			c0.38,0,0.67,0.08,0.88,0.23c0.21,0.15,0.39,0.42,0.55,0.8l6.7,16.17c0.09,0.23,0.13,0.43,0.13,0.59c0,0.38-0.2,0.57-0.59,0.57
			h-5.08c-0.56,0-0.91-0.24-1.05-0.73l-0.65-2h-4.78l-0.62,2c-0.14,0.49-0.5,0.73-1.05,0.73H240
			C239.61,428.75,239.41,428.56,239.41,428.18z M250.21,421.76l-1.05-3.35l-1.05,3.35H250.21z"/>
		<path d="M260.62,428.37c-0.24-0.25-0.36-0.64-0.36-1.16v-15.28c0-0.52,0.12-0.91,0.36-1.16c0.24-0.25,0.66-0.38,1.26-0.38h6.45
			c2.7,0,4.67,0.54,5.9,1.61c1.23,1.07,1.85,2.69,1.85,4.85c0,1.3-0.22,2.39-0.66,3.28c-0.44,0.89-1.12,1.59-2.04,2.09l2.51,5.37
			c0.07,0.14,0.11,0.31,0.11,0.49c0,0.2-0.07,0.36-0.2,0.49c-0.13,0.13-0.31,0.19-0.53,0.19h-4.56c-0.29,0-0.52-0.04-0.69-0.12
			c-0.17-0.08-0.29-0.22-0.37-0.42l-2-5.02h-0.92v4.02c0,0.52-0.12,0.91-0.36,1.16c-0.24,0.25-0.67,0.38-1.28,0.38h-3.21
			C261.28,428.75,260.86,428.63,260.62,428.37z M267.76,418.68c0.58,0,1.03-0.15,1.36-0.46c0.33-0.31,0.5-0.76,0.5-1.38
			c0-0.63-0.17-1.1-0.5-1.4c-0.33-0.31-0.79-0.46-1.36-0.46h-1.84v3.7H267.76z"/>
		<path d="M284.98,428.18c0-0.16,0.04-0.36,0.13-0.59l6.72-16.17c0.16-0.38,0.35-0.64,0.55-0.8c0.21-0.15,0.5-0.23,0.88-0.23h2.94
			c0.38,0,0.67,0.08,0.88,0.23c0.21,0.15,0.39,0.42,0.55,0.8l6.7,16.17c0.09,0.23,0.13,0.43,0.13,0.59c0,0.38-0.2,0.57-0.59,0.57
			h-5.08c-0.56,0-0.91-0.24-1.05-0.73l-0.65-2h-4.78l-0.62,2c-0.14,0.49-0.49,0.73-1.05,0.73h-5.08
			C285.18,428.75,284.98,428.56,284.98,428.18z M295.79,421.76l-1.05-3.35l-1.05,3.35H295.79z"/>
		<path d="M70.84,459.14c-1.82-1.61-2.73-4-2.73-7.17c0-3.19,0.88-5.58,2.63-7.18c1.75-1.6,4.26-2.4,7.52-2.4
			c1.48,0,2.79,0.14,3.94,0.43s2.12,0.69,2.89,1.21c0.22,0.16,0.32,0.34,0.32,0.54c0,0.16-0.08,0.39-0.24,0.67l-1.35,2.32
			c-0.14,0.25-0.32,0.38-0.51,0.38c-0.13,0-0.33-0.07-0.62-0.22c-0.5-0.25-1.03-0.45-1.58-0.59c-0.55-0.14-1.19-0.22-1.93-0.22
			c-1.49,0-2.64,0.43-3.43,1.3c-0.79,0.86-1.19,2.12-1.19,3.75c0,1.62,0.43,2.87,1.3,3.74s2.04,1.31,3.54,1.31
			c1.3,0,2.48-0.27,3.56-0.81c0.29-0.14,0.5-0.22,0.62-0.22c0.2,0,0.37,0.13,0.51,0.38l1.35,2.32c0.16,0.29,0.24,0.51,0.24,0.67
			c0,0.2-0.11,0.38-0.32,0.54c-0.78,0.52-1.75,0.93-2.92,1.21c-1.17,0.29-2.49,0.43-3.97,0.43
			C75.2,461.56,72.65,460.75,70.84,459.14z"/>
		<path d="M91.11,460.71c-1.33-0.57-2.37-1.39-3.1-2.46c-0.74-1.07-1.11-2.34-1.11-3.82v-10.1c0-0.52,0.12-0.91,0.36-1.16
			c0.24-0.25,0.66-0.38,1.26-0.38h3.21c0.61,0,1.04,0.12,1.28,0.37c0.24,0.24,0.36,0.63,0.36,1.17v10.18c0,0.85,0.21,1.48,0.63,1.89
			c0.42,0.41,1,0.62,1.74,0.62s1.32-0.21,1.74-0.62c0.42-0.41,0.63-1.04,0.63-1.89v-10.18c0-0.52,0.12-0.91,0.36-1.16
			c0.24-0.25,0.66-0.38,1.26-0.38h3.21c0.61,0,1.04,0.12,1.28,0.37c0.24,0.24,0.36,0.63,0.36,1.17v10.1c0,1.48-0.37,2.75-1.11,3.82
			c-0.74,1.07-1.77,1.89-3.1,2.46c-1.33,0.57-2.88,0.85-4.64,0.85S92.45,461.27,91.11,460.71z"/>
		<path d="M104.07,460.58c0-0.16,0.04-0.36,0.14-0.59l6.72-16.17c0.16-0.38,0.35-0.64,0.55-0.8c0.21-0.15,0.5-0.23,0.88-0.23h2.94
			c0.38,0,0.67,0.08,0.88,0.23c0.21,0.15,0.39,0.42,0.55,0.8l6.7,16.17c0.09,0.23,0.13,0.43,0.13,0.59c0,0.38-0.2,0.57-0.59,0.57
			h-5.08c-0.56,0-0.91-0.24-1.05-0.73l-0.65-2h-4.78l-0.62,2c-0.14,0.49-0.5,0.73-1.05,0.73h-5.08
			C104.27,461.15,104.07,460.96,104.07,460.58z M114.87,454.16l-1.05-3.35l-1.05,3.35H114.87z"/>
		<path d="M125.28,460.77c-0.24-0.25-0.36-0.64-0.36-1.16v-15.28c0-0.52,0.12-0.91,0.36-1.16c0.24-0.25,0.66-0.38,1.25-0.38h3.21
			c0.61,0,1.04,0.12,1.28,0.37c0.24,0.24,0.36,0.63,0.36,1.17v12.23h6.29c0.58,0,0.97,0.12,1.17,0.36s0.31,0.63,0.31,1.17v1.51
			c0,0.54-0.1,0.93-0.31,1.17s-0.6,0.36-1.17,0.36h-11.15C125.94,461.15,125.53,461.03,125.28,460.77z"/>
		<path d="M148.83,464.73c-1.14-0.87-1.85-2-2.12-3.39c-2.39-0.4-4.2-1.4-5.43-3.01s-1.84-3.73-1.84-6.36
			c0-3.06,0.83-5.42,2.48-7.09s4.09-2.5,7.29-2.5s5.63,0.83,7.29,2.5s2.48,4.03,2.48,7.09c0,2.68-0.65,4.81-1.96,6.37
			c-1.31,1.57-3.25,2.54-5.85,2.92c0.14,0.29,0.41,0.5,0.78,0.65c0.38,0.14,0.77,0.22,1.19,0.22c0.83,0,1.52-0.19,2.08-0.57
			c0.16-0.11,0.29-0.16,0.38-0.16c0.14,0,0.25,0.08,0.32,0.24l1.46,2.29c0.09,0.14,0.13,0.25,0.13,0.32c0,0.07-0.03,0.14-0.09,0.22
			c-0.06,0.07-0.14,0.15-0.23,0.24c-0.52,0.43-1.1,0.76-1.74,0.99c-0.64,0.22-1.41,0.34-2.31,0.34
			C151.41,466.04,149.97,465.6,148.83,464.73z M151.76,455.77c0.52-0.84,0.78-2.1,0.78-3.79c0-1.71-0.26-2.98-0.78-3.81
			c-0.52-0.83-1.37-1.24-2.54-1.24c-1.17,0-2.02,0.41-2.54,1.24c-0.52,0.83-0.78,2.1-0.78,3.81c0,1.69,0.26,2.96,0.78,3.79
			c0.52,0.84,1.37,1.26,2.54,1.26C150.39,457.02,151.23,456.6,151.76,455.77z"/>
		<path d="M164.42,460.71c-1.33-0.57-2.37-1.39-3.1-2.46c-0.74-1.07-1.11-2.34-1.11-3.82v-10.1c0-0.52,0.12-0.91,0.36-1.16
			c0.24-0.25,0.66-0.38,1.26-0.38h3.21c0.61,0,1.04,0.12,1.28,0.37c0.24,0.24,0.36,0.63,0.36,1.17v10.18c0,0.85,0.21,1.48,0.63,1.89
			c0.42,0.41,1,0.62,1.74,0.62s1.32-0.21,1.74-0.62c0.42-0.41,0.63-1.04,0.63-1.89v-10.18c0-0.52,0.12-0.91,0.36-1.16
			c0.24-0.25,0.66-0.38,1.26-0.38h3.21c0.61,0,1.04,0.12,1.28,0.37c0.24,0.24,0.36,0.63,0.36,1.17v10.1c0,1.48-0.37,2.75-1.11,3.82
			c-0.74,1.07-1.77,1.89-3.1,2.46c-1.33,0.57-2.88,0.85-4.64,0.85S165.75,461.27,164.42,460.71z"/>
		<path d="M180.04,460.77c-0.24-0.25-0.36-0.64-0.36-1.16v-15.28c0-0.52,0.12-0.91,0.36-1.16c0.24-0.25,0.66-0.38,1.26-0.38h3.21
			c0.61,0,1.04,0.12,1.28,0.37c0.24,0.24,0.36,0.63,0.36,1.17v15.28c0,0.52-0.12,0.91-0.36,1.16c-0.24,0.25-0.67,0.38-1.28,0.38
			h-3.21C180.7,461.15,180.28,461.03,180.04,460.77z"/>
		<path d="M188.41,460.77c-0.24-0.25-0.37-0.64-0.37-1.16v-15.28c0-0.52,0.12-0.91,0.37-1.16c0.24-0.25,0.66-0.38,1.25-0.38h11.18
			c0.58,0,0.97,0.12,1.17,0.37c0.21,0.24,0.31,0.63,0.31,1.17v1.51c0,0.54-0.1,0.93-0.31,1.17s-0.6,0.37-1.17,0.37h-6.32v2.32h3.89
			c0.58,0,0.97,0.12,1.17,0.36c0.21,0.24,0.31,0.63,0.31,1.17v1.46c0,0.54-0.1,0.93-0.31,1.17s-0.6,0.36-1.17,0.36h-3.89v2.32h6.29
			c0.58,0,0.97,0.12,1.17,0.36s0.31,0.63,0.31,1.17v1.51c0,0.54-0.1,0.93-0.31,1.17s-0.6,0.36-1.17,0.36h-11.15
			C189.07,461.15,188.65,461.03,188.41,460.77z"/>
		<path d="M203.91,460.77c-0.24-0.25-0.36-0.64-0.36-1.16v-15.28c0-0.52,0.12-0.91,0.36-1.16c0.24-0.25,0.66-0.38,1.25-0.38h6.45
			c2.7,0,4.67,0.54,5.9,1.61c1.23,1.07,1.85,2.69,1.85,4.85c0,1.3-0.22,2.39-0.66,3.28c-0.44,0.89-1.12,1.59-2.04,2.09l2.51,5.37
			c0.07,0.14,0.11,0.31,0.11,0.49c0,0.2-0.07,0.36-0.2,0.49c-0.13,0.13-0.31,0.19-0.53,0.19h-4.56c-0.29,0-0.52-0.04-0.69-0.12
			c-0.17-0.08-0.29-0.22-0.36-0.42l-2-5.02h-0.92v4.02c0,0.52-0.12,0.91-0.36,1.16s-0.67,0.38-1.28,0.38h-3.21
			C204.57,461.15,204.15,461.03,203.91,460.77z M211.05,451.08c0.58,0,1.03-0.15,1.36-0.46c0.33-0.31,0.5-0.76,0.5-1.38
			c0-0.63-0.17-1.1-0.5-1.4c-0.33-0.31-0.79-0.46-1.36-0.46h-1.84v3.7H211.05z"/>
		<path d="M229.18,460.77c-0.24-0.25-0.36-0.64-0.36-1.16V444.3c0-0.52,0.12-0.91,0.36-1.15c0.24-0.24,0.67-0.37,1.28-0.37h2.57
			c0.38,0,0.67,0.05,0.88,0.15c0.21,0.1,0.41,0.29,0.61,0.58l4.89,7.26v-6.45c0-0.52,0.12-0.91,0.36-1.16
			c0.24-0.25,0.66-0.38,1.25-0.38h3.21c0.61,0,1.04,0.12,1.28,0.37c0.24,0.24,0.36,0.63,0.36,1.17v15.31c0,0.52-0.12,0.9-0.36,1.15
			s-0.67,0.36-1.28,0.36h-2.56c-0.38,0-0.67-0.05-0.88-0.15c-0.21-0.1-0.41-0.29-0.61-0.58l-4.89-7.26v6.48
			c0,0.52-0.12,0.9-0.36,1.15s-0.67,0.36-1.28,0.36h-3.21C229.84,461.15,229.42,461.03,229.18,460.77z"/>
		<path d="M252.65,460.71c-1.33-0.57-2.37-1.39-3.1-2.46c-0.74-1.07-1.11-2.34-1.11-3.82v-10.1c0-0.52,0.12-0.91,0.36-1.16
			c0.24-0.25,0.66-0.38,1.26-0.38h3.21c0.61,0,1.04,0.12,1.28,0.37c0.24,0.24,0.36,0.63,0.36,1.17v10.18c0,0.85,0.21,1.48,0.63,1.89
			c0.42,0.41,1,0.62,1.74,0.62s1.32-0.21,1.74-0.62s0.63-1.04,0.63-1.89v-10.18c0-0.52,0.12-0.91,0.36-1.16
			c0.24-0.25,0.66-0.38,1.26-0.38h3.21c0.61,0,1.04,0.12,1.28,0.37c0.24,0.24,0.36,0.63,0.36,1.17v10.1c0,1.48-0.37,2.75-1.11,3.82
			c-0.74,1.07-1.77,1.89-3.1,2.46c-1.33,0.57-2.88,0.85-4.64,0.85S253.98,461.27,252.65,460.71z M254.54,440.52
			c0-0.14,0.03-0.3,0.08-0.46l1.13-3.13c0.14-0.41,0.31-0.69,0.51-0.84c0.2-0.14,0.57-0.22,1.11-0.22h3.86
			c0.38,0,0.68,0.07,0.89,0.2s0.32,0.33,0.32,0.58c0,0.22-0.07,0.44-0.21,0.67l-1.73,2.92c-0.25,0.43-0.5,0.71-0.73,0.84
			c-0.23,0.13-0.66,0.19-1.27,0.19h-2.89C254.9,441.28,254.54,441.03,254.54,440.52z"/>
		<path d="M267.46,460.77c-0.24-0.25-0.37-0.64-0.37-1.16V444.3c0-0.52,0.12-0.91,0.37-1.15c0.24-0.24,0.67-0.37,1.28-0.37h3.11
			c0.4,0,0.71,0.05,0.95,0.15c0.23,0.1,0.41,0.29,0.54,0.58l3.16,7.91l3.16-7.91c0.13-0.29,0.31-0.48,0.54-0.58
			c0.23-0.1,0.55-0.15,0.94-0.15h3.1c0.61,0,1.04,0.12,1.28,0.37c0.24,0.24,0.36,0.63,0.36,1.15v15.31c0,0.52-0.12,0.91-0.36,1.16
			s-0.66,0.38-1.26,0.38h-2.59c-0.59,0-1.02-0.13-1.27-0.38s-0.38-0.64-0.38-1.16v-7.37l-1.59,3.67c-0.22,0.52-0.45,0.9-0.7,1.12
			c-0.25,0.22-0.67,0.34-1.24,0.34s-0.99-0.11-1.24-0.34c-0.25-0.23-0.49-0.6-0.7-1.12l-1.59-3.67v7.37c0,0.52-0.12,0.91-0.37,1.16
			c-0.24,0.25-0.67,0.38-1.28,0.38h-2.59C268.12,461.15,267.71,461.03,267.46,460.77z"/>
		<path d="M288.14,460.77c-0.24-0.25-0.37-0.64-0.37-1.16v-15.28c0-0.52,0.12-0.91,0.37-1.16c0.24-0.25,0.66-0.38,1.25-0.38h11.18
			c0.58,0,0.97,0.12,1.17,0.37c0.21,0.24,0.31,0.63,0.31,1.17v1.51c0,0.54-0.1,0.93-0.31,1.17s-0.6,0.37-1.17,0.37h-6.32v2.32h3.89
			c0.58,0,0.97,0.12,1.17,0.36c0.21,0.24,0.31,0.63,0.31,1.17v1.46c0,0.54-0.1,0.93-0.31,1.17s-0.6,0.36-1.17,0.36h-3.89v2.32h6.29
			c0.58,0,0.97,0.12,1.17,0.36s0.31,0.63,0.31,1.17v1.51c0,0.54-0.1,0.93-0.31,1.17s-0.6,0.36-1.17,0.36H289.4
			C288.81,461.15,288.39,461.03,288.14,460.77z"/>
		<path d="M303.64,460.77c-0.24-0.25-0.36-0.64-0.36-1.16v-15.28c0-0.52,0.12-0.91,0.36-1.16c0.24-0.25,0.66-0.38,1.25-0.38h6.45
			c2.7,0,4.67,0.54,5.9,1.61c1.23,1.07,1.85,2.69,1.85,4.85c0,1.3-0.22,2.39-0.66,3.28c-0.44,0.89-1.12,1.59-2.04,2.09l2.51,5.37
			c0.07,0.14,0.11,0.31,0.11,0.49c0,0.2-0.07,0.36-0.2,0.49c-0.13,0.13-0.31,0.19-0.53,0.19h-4.56c-0.29,0-0.52-0.04-0.69-0.12
			c-0.17-0.08-0.29-0.22-0.36-0.42l-2-5.02h-0.92v4.02c0,0.52-0.12,0.91-0.36,1.16s-0.67,0.38-1.28,0.38h-3.21
			C304.3,461.15,303.88,461.03,303.64,460.77z M310.78,451.08c0.58,0,1.03-0.15,1.36-0.46c0.33-0.31,0.5-0.76,0.5-1.38
			c0-0.63-0.17-1.1-0.5-1.4c-0.33-0.31-0.79-0.46-1.36-0.46h-1.84v3.7H310.78z"/>
		<path d="M322.39,459.06c-1.66-1.66-2.48-4.03-2.48-7.09c0-3.06,0.83-5.42,2.48-7.09s4.09-2.5,7.29-2.5c3.2,0,5.63,0.83,7.29,2.5
			s2.48,4.03,2.48,7.09c0,3.06-0.83,5.42-2.48,7.09c-1.66,1.67-4.09,2.5-7.29,2.5C326.48,461.56,324.05,460.72,322.39,459.06z
			 M332.22,455.77c0.52-0.84,0.78-2.1,0.78-3.79c0-1.71-0.26-2.98-0.78-3.81c-0.52-0.83-1.37-1.24-2.54-1.24
			c-1.17,0-2.02,0.41-2.54,1.24c-0.52,0.83-0.78,2.1-0.78,3.81c0,1.69,0.26,2.96,0.78,3.79c0.52,0.84,1.37,1.26,2.54,1.26
			C330.85,457.02,331.7,456.6,332.22,455.77z"/>
		<path d="M132.31,493.17c-0.24-0.25-0.37-0.64-0.37-1.16v-12.23h-3.89c-0.58,0-0.97-0.12-1.18-0.37c-0.21-0.24-0.31-0.63-0.31-1.17
			v-1.51c0-0.54,0.1-0.93,0.31-1.17c0.21-0.24,0.6-0.37,1.18-0.37h14.26c0.58,0,0.97,0.12,1.17,0.37c0.21,0.24,0.31,0.63,0.31,1.17
			v1.51c0,0.54-0.1,0.93-0.31,1.17s-0.6,0.37-1.17,0.37h-3.89v12.23c0,0.52-0.12,0.91-0.36,1.16s-0.67,0.38-1.28,0.38h-3.21
			C132.98,493.55,132.56,493.43,132.31,493.17z"/>
		<path d="M144.98,493.17c-0.24-0.25-0.36-0.64-0.36-1.16v-15.28c0-0.52,0.12-0.91,0.36-1.16c0.24-0.25,0.66-0.38,1.26-0.38h11.18
			c0.58,0,0.97,0.12,1.17,0.37c0.21,0.24,0.31,0.63,0.31,1.17v1.51c0,0.54-0.1,0.93-0.31,1.17c-0.21,0.24-0.6,0.37-1.17,0.37h-6.32
			v2.32h3.89c0.58,0,0.97,0.12,1.17,0.36c0.21,0.24,0.31,0.63,0.31,1.17v1.46c0,0.54-0.1,0.93-0.31,1.17s-0.6,0.36-1.17,0.36h-3.89
			v2.32h6.29c0.58,0,0.97,0.12,1.18,0.36c0.21,0.24,0.31,0.63,0.31,1.17v1.51c0,0.54-0.1,0.93-0.31,1.17
			c-0.21,0.24-0.6,0.36-1.18,0.36h-11.15C145.64,493.55,145.22,493.43,144.98,493.17z"/>
		<path d="M160.47,493.17c-0.24-0.25-0.36-0.64-0.36-1.16v-15.28c0-0.52,0.12-0.91,0.36-1.16c0.24-0.25,0.66-0.38,1.26-0.38h3.21
			c0.61,0,1.04,0.12,1.28,0.37c0.24,0.24,0.36,0.63,0.36,1.17v12.23h6.29c0.58,0,0.97,0.12,1.18,0.36c0.21,0.24,0.31,0.63,0.31,1.17
			v1.51c0,0.54-0.1,0.93-0.31,1.17c-0.21,0.24-0.6,0.36-1.18,0.36h-11.15C161.14,493.55,160.72,493.43,160.47,493.17z"/>
		<path d="M175.54,493.17c-0.24-0.25-0.37-0.64-0.37-1.16v-15.28c0-0.52,0.12-0.91,0.37-1.16c0.24-0.25,0.66-0.38,1.26-0.38h11.18
			c0.58,0,0.97,0.12,1.17,0.37c0.21,0.24,0.31,0.63,0.31,1.17v1.51c0,0.54-0.1,0.93-0.31,1.17s-0.6,0.37-1.17,0.37h-6.32v2.32h3.89
			c0.58,0,0.97,0.12,1.17,0.36c0.21,0.24,0.31,0.63,0.31,1.17v1.46c0,0.54-0.1,0.93-0.31,1.17s-0.6,0.36-1.17,0.36h-3.89v2.32h6.29
			c0.58,0,0.97,0.12,1.17,0.36c0.21,0.24,0.31,0.63,0.31,1.17v1.51c0,0.54-0.1,0.93-0.31,1.17c-0.21,0.24-0.6,0.36-1.17,0.36H176.8
			C176.2,493.55,175.78,493.43,175.54,493.17z M178.85,472.92c0-0.14,0.03-0.3,0.08-0.46l1.13-3.13c0.14-0.41,0.31-0.69,0.51-0.84
			c0.2-0.14,0.57-0.22,1.11-0.22h3.86c0.38,0,0.67,0.07,0.89,0.2c0.22,0.13,0.32,0.33,0.32,0.58c0,0.22-0.07,0.44-0.22,0.67
			l-1.73,2.92c-0.25,0.43-0.5,0.71-0.73,0.84c-0.23,0.13-0.66,0.19-1.27,0.19h-2.89C179.21,473.68,178.85,473.43,178.85,472.92z"/>
		<path d="M191.04,493.17c-0.24-0.25-0.37-0.64-0.37-1.16v-15.28c0-0.52,0.12-0.91,0.37-1.16c0.24-0.25,0.66-0.38,1.25-0.38h11.18
			c0.58,0,0.97,0.12,1.17,0.37c0.21,0.24,0.31,0.63,0.31,1.17v1.51c0,0.54-0.1,0.93-0.31,1.17s-0.6,0.37-1.17,0.37h-6.32v2.29h3.89
			c0.58,0,0.97,0.12,1.17,0.36s0.31,0.63,0.31,1.17v1.51c0,0.54-0.1,0.93-0.31,1.17c-0.21,0.24-0.6,0.36-1.17,0.36h-3.89v5.35
			c0,0.52-0.12,0.91-0.37,1.16c-0.24,0.25-0.67,0.38-1.28,0.38h-3.21C191.7,493.55,191.28,493.43,191.04,493.17z"/>
		<path d="M206.63,491.46c-1.66-1.66-2.48-4.03-2.48-7.09c0-3.06,0.83-5.42,2.48-7.09s4.09-2.5,7.29-2.5c3.2,0,5.63,0.83,7.29,2.5
			s2.48,4.03,2.48,7.09c0,3.06-0.83,5.42-2.48,7.09c-1.66,1.67-4.09,2.5-7.29,2.5C210.72,493.96,208.29,493.12,206.63,491.46z
			 M216.46,488.17c0.52-0.84,0.78-2.1,0.78-3.79c0-1.71-0.26-2.98-0.78-3.81c-0.52-0.83-1.37-1.24-2.54-1.24
			c-1.17,0-2.02,0.41-2.54,1.24c-0.52,0.83-0.78,2.1-0.78,3.81c0,1.69,0.26,2.96,0.78,3.79c0.52,0.84,1.37,1.26,2.54,1.26
			C215.09,489.42,215.94,489,216.46,488.17z"/>
		<path d="M225.41,493.17c-0.24-0.25-0.37-0.64-0.37-1.16V476.7c0-0.52,0.12-0.91,0.37-1.15c0.24-0.24,0.67-0.37,1.28-0.37h2.57
			c0.38,0,0.67,0.05,0.88,0.15c0.21,0.1,0.41,0.29,0.61,0.58l4.89,7.26v-6.45c0-0.52,0.12-0.91,0.37-1.16
			c0.24-0.25,0.66-0.38,1.25-0.38h3.21c0.61,0,1.04,0.12,1.28,0.37c0.24,0.24,0.37,0.63,0.37,1.17v15.31c0,0.52-0.12,0.9-0.37,1.15
			c-0.24,0.24-0.67,0.36-1.28,0.36h-2.57c-0.38,0-0.67-0.05-0.88-0.15s-0.41-0.29-0.61-0.58l-4.89-7.26v6.48
			c0,0.52-0.12,0.9-0.37,1.15c-0.24,0.24-0.67,0.36-1.28,0.36h-3.21C226.07,493.55,225.65,493.43,225.41,493.17z"/>
		<path d="M244.36,493.17c-0.24-0.25-0.37-0.64-0.37-1.16v-15.28c0-0.52,0.12-0.91,0.37-1.16c0.24-0.25,0.66-0.38,1.26-0.38h3.21
			c0.61,0,1.04,0.12,1.28,0.37c0.24,0.24,0.36,0.63,0.36,1.17v15.28c0,0.52-0.12,0.91-0.36,1.16s-0.67,0.38-1.28,0.38h-3.21
			C245.03,493.55,244.61,493.43,244.36,493.17z"/>
		<path d="M254.56,491.54c-1.82-1.61-2.73-4-2.73-7.17c0-3.19,0.88-5.58,2.63-7.18c1.76-1.6,4.26-2.4,7.52-2.4
			c1.48,0,2.79,0.14,3.94,0.43c1.15,0.29,2.11,0.69,2.89,1.21c0.21,0.16,0.32,0.34,0.32,0.54c0,0.16-0.08,0.39-0.24,0.67l-1.35,2.32
			c-0.14,0.25-0.32,0.38-0.51,0.38c-0.13,0-0.33-0.07-0.62-0.22c-0.5-0.25-1.03-0.45-1.58-0.59c-0.55-0.14-1.19-0.22-1.93-0.22
			c-1.49,0-2.64,0.43-3.43,1.3c-0.79,0.86-1.19,2.12-1.19,3.75c0,1.62,0.43,2.87,1.3,3.74c0.86,0.87,2.04,1.31,3.54,1.31
			c1.29,0,2.48-0.27,3.56-0.81c0.29-0.14,0.5-0.22,0.62-0.22c0.2,0,0.37,0.13,0.51,0.38l1.35,2.32c0.16,0.29,0.24,0.51,0.24,0.67
			c0,0.2-0.11,0.38-0.32,0.54c-0.77,0.52-1.75,0.93-2.92,1.21c-1.17,0.29-2.49,0.43-3.97,0.43
			C258.92,493.96,256.37,493.15,254.56,491.54z"/>
		<path d="M271.48,491.46c-1.66-1.66-2.48-4.03-2.48-7.09c0-3.06,0.83-5.42,2.48-7.09s4.09-2.5,7.29-2.5c3.2,0,5.63,0.83,7.29,2.5
			s2.48,4.03,2.48,7.09c0,3.06-0.83,5.42-2.48,7.09c-1.66,1.67-4.09,2.5-7.29,2.5C275.57,493.96,273.14,493.12,271.48,491.46z
			 M281.31,488.17c0.52-0.84,0.78-2.1,0.78-3.79c0-1.71-0.26-2.98-0.78-3.81c-0.52-0.83-1.37-1.24-2.54-1.24
			c-1.17,0-2.02,0.41-2.54,1.24c-0.52,0.83-0.78,2.1-0.78,3.81c0,1.69,0.26,2.96,0.78,3.79c0.52,0.84,1.37,1.26,2.54,1.26
			C279.94,489.42,280.79,489,281.31,488.17z"/>
		<path d="M119.52,525.57c-0.24-0.25-0.37-0.64-0.37-1.16v-15.28c0-0.52,0.12-0.91,0.37-1.16c0.24-0.25,0.66-0.38,1.25-0.38h11.18
			c0.58,0,0.97,0.12,1.17,0.37c0.21,0.24,0.31,0.63,0.31,1.17v1.51c0,0.54-0.1,0.93-0.31,1.17s-0.6,0.37-1.17,0.37h-6.32v2.32h3.89
			c0.58,0,0.97,0.12,1.17,0.36c0.21,0.24,0.31,0.63,0.31,1.17v1.46c0,0.54-0.1,0.93-0.31,1.17s-0.6,0.36-1.17,0.36h-3.89v2.32h6.29
			c0.58,0,0.97,0.12,1.17,0.36s0.31,0.63,0.31,1.17v1.51c0,0.54-0.1,0.93-0.31,1.17s-0.6,0.36-1.17,0.36h-11.15
			C120.18,525.95,119.76,525.83,119.52,525.57z"/>
		<path d="M135.01,525.57c-0.24-0.25-0.36-0.64-0.36-1.16V509.1c0-0.52,0.12-0.91,0.36-1.15c0.24-0.24,0.67-0.37,1.28-0.37h2.57
			c0.38,0,0.67,0.05,0.88,0.15c0.21,0.1,0.41,0.29,0.61,0.58l4.89,7.26v-6.45c0-0.52,0.12-0.91,0.36-1.16
			c0.24-0.25,0.66-0.38,1.25-0.38h3.21c0.61,0,1.04,0.12,1.28,0.37c0.24,0.24,0.36,0.63,0.36,1.17v15.31c0,0.52-0.12,0.9-0.36,1.15
			s-0.67,0.36-1.28,0.36h-2.56c-0.38,0-0.67-0.05-0.88-0.15c-0.21-0.1-0.41-0.29-0.61-0.58l-4.89-7.26v6.48
			c0,0.52-0.12,0.9-0.36,1.15s-0.67,0.36-1.28,0.36h-3.21C135.68,525.95,135.26,525.83,135.01,525.57z"/>
		<path d="M162.07,525.57c-0.24-0.25-0.37-0.64-0.37-1.16v-15.28c0-0.52,0.12-0.91,0.37-1.16c0.24-0.25,0.66-0.38,1.26-0.38h11.18
			c0.58,0,0.97,0.12,1.17,0.37c0.21,0.24,0.31,0.63,0.31,1.17v1.51c0,0.54-0.1,0.93-0.31,1.17s-0.6,0.37-1.17,0.37h-6.32v2.32h3.89
			c0.58,0,0.97,0.12,1.17,0.36c0.21,0.24,0.31,0.63,0.31,1.17v1.46c0,0.54-0.1,0.93-0.31,1.17s-0.6,0.36-1.17,0.36h-3.89v2.32h6.29
			c0.58,0,0.97,0.12,1.17,0.36c0.21,0.24,0.31,0.63,0.31,1.17v1.51c0,0.54-0.1,0.93-0.31,1.17c-0.21,0.24-0.6,0.36-1.17,0.36h-11.15
			C162.73,525.95,162.31,525.83,162.07,525.57z"/>
		<path d="M177.57,525.57c-0.24-0.25-0.37-0.64-0.37-1.16v-15.28c0-0.52,0.12-0.91,0.37-1.16c0.24-0.25,0.66-0.38,1.25-0.38h3.21
			c0.61,0,1.04,0.12,1.28,0.37c0.24,0.24,0.37,0.63,0.37,1.17v12.23h6.29c0.58,0,0.97,0.12,1.17,0.36s0.31,0.63,0.31,1.17v1.51
			c0,0.54-0.1,0.93-0.31,1.17s-0.6,0.36-1.17,0.36h-11.15C178.23,525.95,177.81,525.83,177.57,525.57z"/>
		<path d="M200.73,525.57c-0.24-0.25-0.37-0.64-0.37-1.16V509.1c0-0.52,0.12-0.91,0.37-1.15c0.24-0.24,0.67-0.37,1.28-0.37h3.11
			c0.4,0,0.71,0.05,0.95,0.15c0.23,0.1,0.41,0.29,0.54,0.58l3.16,7.91l3.16-7.91c0.13-0.29,0.31-0.48,0.54-0.58
			c0.23-0.1,0.55-0.15,0.94-0.15h3.1c0.61,0,1.04,0.12,1.28,0.37c0.24,0.24,0.36,0.63,0.36,1.15v15.31c0,0.52-0.12,0.91-0.36,1.16
			s-0.66,0.38-1.26,0.38h-2.59c-0.59,0-1.02-0.13-1.27-0.38s-0.38-0.64-0.38-1.16v-7.37l-1.59,3.67c-0.22,0.52-0.45,0.9-0.7,1.12
			c-0.25,0.22-0.67,0.34-1.24,0.34s-0.99-0.11-1.24-0.34c-0.25-0.23-0.49-0.6-0.7-1.12l-1.59-3.67v7.37c0,0.52-0.12,0.91-0.37,1.16
			c-0.24,0.25-0.67,0.38-1.28,0.38h-2.59C201.39,525.95,200.97,525.83,200.73,525.57z"/>
		<path d="M225.13,525.51c-1.33-0.57-2.37-1.39-3.1-2.46c-0.74-1.07-1.11-2.34-1.11-3.82v-10.1c0-0.52,0.12-0.91,0.36-1.16
			c0.24-0.25,0.66-0.38,1.26-0.38h3.21c0.61,0,1.04,0.12,1.28,0.37c0.24,0.24,0.37,0.63,0.37,1.17v10.18c0,0.85,0.21,1.48,0.63,1.89
			s1,0.62,1.74,0.62s1.32-0.21,1.74-0.62c0.42-0.41,0.63-1.04,0.63-1.89v-10.18c0-0.52,0.12-0.91,0.36-1.16
			c0.24-0.25,0.66-0.38,1.25-0.38h3.21c0.61,0,1.04,0.12,1.28,0.37c0.24,0.24,0.36,0.63,0.36,1.17v10.1c0,1.48-0.37,2.75-1.11,3.82
			c-0.74,1.07-1.77,1.89-3.11,2.46c-1.33,0.57-2.88,0.85-4.64,0.85S226.46,526.07,225.13,525.51z"/>
		<path d="M240.75,525.57c-0.24-0.25-0.36-0.64-0.36-1.16V509.1c0-0.52,0.12-0.91,0.36-1.15c0.24-0.24,0.67-0.37,1.28-0.37h2.57
			c0.38,0,0.67,0.05,0.88,0.15c0.21,0.1,0.41,0.29,0.61,0.58l4.89,7.26v-6.45c0-0.52,0.12-0.91,0.36-1.16
			c0.24-0.25,0.66-0.38,1.25-0.38h3.21c0.61,0,1.04,0.12,1.28,0.37c0.24,0.24,0.36,0.63,0.36,1.17v15.31c0,0.52-0.12,0.9-0.36,1.15
			s-0.67,0.36-1.28,0.36h-2.56c-0.38,0-0.67-0.05-0.88-0.15c-0.21-0.1-0.41-0.29-0.61-0.58l-4.89-7.26v6.48
			c0,0.52-0.12,0.9-0.36,1.15s-0.67,0.36-1.28,0.36H242C241.41,525.95,240.99,525.83,240.75,525.57z"/>
		<path d="M259.7,525.57c-0.24-0.25-0.37-0.64-0.37-1.16v-15.28c0-0.52,0.12-0.91,0.37-1.16c0.24-0.25,0.66-0.38,1.26-0.38h6.21
			c6.35,0,9.53,3.06,9.53,9.18c0,3.02-0.81,5.31-2.44,6.86c-1.63,1.55-3.99,2.32-7.09,2.32h-6.21
			C260.36,525.95,259.94,525.83,259.7,525.57z M267.41,521.36c1.01,0,1.73-0.33,2.17-1c0.44-0.67,0.66-1.86,0.66-3.59
			c0-1.73-0.22-2.92-0.66-3.59c-0.44-0.67-1.17-1-2.17-1h-1.59v9.18H267.41z"/>
		<path d="M279.99,523.86c-1.66-1.66-2.48-4.03-2.48-7.09c0-3.06,0.83-5.42,2.48-7.09c1.66-1.67,4.09-2.5,7.29-2.5
			c3.2,0,5.63,0.83,7.29,2.5c1.66,1.67,2.48,4.03,2.48,7.09c0,3.06-0.83,5.42-2.48,7.09c-1.66,1.67-4.09,2.5-7.29,2.5
			C284.08,526.36,281.64,525.52,279.99,523.86z M289.82,520.57c0.52-0.84,0.78-2.1,0.78-3.79c0-1.71-0.26-2.98-0.78-3.81
			c-0.52-0.83-1.37-1.24-2.54-1.24s-2.02,0.41-2.54,1.24c-0.52,0.83-0.78,2.1-0.78,3.81c0,1.69,0.26,2.96,0.78,3.79
			s1.37,1.26,2.54,1.26S289.29,521.4,289.82,520.57z"/>
	</g>
	<polygon class="st6" points="199.76,86.93 213.23,114.22 243.34,118.59 221.55,139.83 226.7,169.83 199.76,155.67 172.83,169.83 
		177.97,139.83 156.18,118.59 186.29,114.22 	"/>
	<polygon class="st6" points="137.58,170.15 146.32,187.86 165.86,190.7 151.72,204.48 155.06,223.94 137.58,214.75 120.11,223.94 
		123.45,204.48 109.31,190.7 128.85,187.86 	"/>
	<polygon class="st6" points="267.68,170.15 276.42,187.86 295.95,190.7 281.82,204.48 285.15,223.94 267.68,214.75 250.2,223.94 
		253.54,204.48 239.4,190.7 258.94,187.86 	"/>
	<circle class="st7" cx="200.77" cy="203.97" r="121.96"/>
	<circle class="st1" cx="199.82" cy="190.58" r="121.96"/>
	<g>
		<path class="st1" d="M175.43,630.35v-4.31c0-2.87,0.97-5.57,2.92-8.1c1.95-2.53,5.35-5.5,10.22-8.91c1.7-1.17,2.75-1.87,3.14-2.12
			c1.75-1.17,2.97-2.04,3.65-2.63c0.68-0.58,1.19-1.22,1.53-1.9c0.34-0.68,0.51-1.56,0.51-2.63c0-1.22-0.45-2.2-1.35-2.96
			c-0.9-0.75-2.28-1.13-4.13-1.13c-3.12,0-6.28,0.8-9.49,2.41c-0.78,0.39-1.34,0.58-1.68,0.58c-0.54,0-1-0.34-1.39-1.02l-3.65-6.28
			c-0.44-0.78-0.66-1.39-0.66-1.82c0-0.54,0.29-1.02,0.88-1.46c2.09-1.41,4.79-2.54,8.1-3.39c3.31-0.85,6.93-1.28,10.88-1.28
			c6.13,0,10.99,1.28,14.56,3.83c3.58,2.55,5.37,6.17,5.37,10.84c0,3.6-1,6.66-2.99,9.16c-2,2.51-5.26,5.22-9.78,8.14
			c-4.82,3.12-7.71,5.21-8.69,6.28h17.81c1.56,0,2.62,0.33,3.18,0.99c0.56,0.66,0.84,1.71,0.84,3.17v4.16
			c0,1.46-0.28,2.52-0.84,3.18c-0.56,0.66-1.62,0.99-3.18,0.99h-32.12C176.65,634.14,175.43,632.88,175.43,630.35z"/>
	</g>
	<g>
		<g>
			<path class="st67" d="M202,209.91v3.88c9.45-0.12,17.1-7.77,17.22-17.22h-3.88C215.22,203.88,209.31,209.79,202,209.91z"/>
		</g>
		<g>
			<path class="st67" d="M202,222.05v3.88c16.14-0.12,29.24-13.22,29.36-29.36h-3.88C227.36,210.57,216,221.93,202,222.05z"/>
		</g>
		<g>
			<path class="st67" d="M202,234.01v3.88c22.74-0.12,41.21-18.59,41.33-41.33h-3.88C239.33,217.17,222.6,233.89,202,234.01z"/>
		</g>
	</g>
	<g>
		<path class="st34" d="M185.19,170.73h-23.82v-17.42c0-3.07-2.48-5.55-5.55-5.55h-1.41c-3.06,0-5.55,2.48-5.55,5.55v18.18
			c-3.69,1.66-6.32,5.9-6.32,10.87v65.12c0,6.43,4.38,11.63,9.78,11.63h32.87c5.4,0,9.78-5.21,9.78-11.63v-65.12
			C194.96,175.94,190.59,170.73,185.19,170.73z"/>
		<rect x="150.99" y="217.33" class="st1" width="8.52" height="7.44"/>
		<rect x="164.49" y="217.33" class="st1" width="8.52" height="7.44"/>
		<rect x="177.99" y="217.33" class="st1" width="8.52" height="7.44"/>
		<rect x="150.99" y="228.28" class="st1" width="8.52" height="7.44"/>
		<rect x="164.49" y="228.28" class="st1" width="8.52" height="7.44"/>
		<rect x="177.99" y="228.28" class="st1" width="8.52" height="7.44"/>
		<rect x="150.99" y="239.22" class="st1" width="8.52" height="7.44"/>
		<rect x="164.49" y="239.22" class="st1" width="8.52" height="7.44"/>
		<rect x="177.99" y="239.22" class="st1" width="8.52" height="7.44"/>
		<rect x="150.99" y="183" class="st67" width="35.52" height="25.57"/>
	</g>
	<path class="st35" d="M263.58,109.12H205.1c-7.41,0-13.42,6.01-13.42,13.42v37.4c0,7.34,5.95,13.29,13.29,13.29h0.13l-3.8,19.63
		l18.7-19.63h43.58c7.41,0,13.42-6.01,13.42-13.42v-37.27C277,115.13,270.99,109.12,263.58,109.12z"/>
	<g>
		<path class="st1" d="M203.69,149.98c-0.29-0.3-0.43-0.76-0.43-1.38v-18.11c0-0.62,0.14-1.08,0.43-1.38s0.78-0.45,1.49-0.45h7.65
			c3.2,0,5.53,0.63,6.99,1.9c1.46,1.27,2.19,3.18,2.19,5.74c0,2.56-0.73,4.47-2.19,5.73s-3.78,1.89-6.96,1.89h-1.92v4.67
			c0,0.62-0.14,1.08-0.43,1.38c-0.29,0.3-0.79,0.45-1.52,0.45h-3.81C204.48,150.43,203.98,150.28,203.69,149.98z M212.16,138.49
			c0.68,0,1.22-0.18,1.62-0.54c0.39-0.36,0.59-0.91,0.59-1.63c0-0.75-0.2-1.3-0.59-1.66c-0.39-0.36-0.93-0.54-1.62-0.54h-2.18v4.38
			H212.16z"/>
		<path class="st1" d="M223.41,149.98c-0.29-0.3-0.43-0.76-0.43-1.38v-18.11c0-0.62,0.14-1.08,0.43-1.38s0.78-0.45,1.49-0.45h9.7
			c2.6,0,4.52,0.55,5.74,1.66c1.23,1.11,1.84,2.69,1.84,4.74c0,0.96-0.21,1.81-0.62,2.54c-0.42,0.74-0.97,1.25-1.65,1.55
			c1.9,0.64,2.85,2.13,2.85,4.48c0,2.01-0.71,3.64-2.13,4.9s-3.5,1.89-6.26,1.89h-9.47C224.19,150.43,223.69,150.28,223.41,149.98z
			 M233.05,136.89c0.98,0,1.47-0.47,1.47-1.41c0-0.94-0.49-1.41-1.47-1.41h-2.43v2.82H233.05z M233.6,145.02
			c0.45,0,0.81-0.14,1.09-0.43s0.42-0.68,0.42-1.17c0-0.51-0.13-0.91-0.4-1.18c-0.27-0.28-0.63-0.42-1.1-0.42h-2.98v3.2H233.6z"/>
		<path class="st1" d="M242.48,150.22c-0.14-0.14-0.21-0.3-0.21-0.5c0-0.21,0.08-0.44,0.26-0.67l7.33-9.89l-6.75-9.12
			c-0.17-0.23-0.26-0.46-0.26-0.67c0-0.19,0.07-0.36,0.21-0.5s0.34-0.21,0.59-0.21h5.98c0.32,0,0.57,0.04,0.74,0.11
			c0.17,0.08,0.32,0.2,0.45,0.37l3.23,4.38l3.26-4.38c0.13-0.17,0.28-0.29,0.45-0.37c0.17-0.07,0.42-0.11,0.74-0.11h5.98
			c0.26,0,0.45,0.07,0.59,0.21c0.14,0.14,0.21,0.3,0.21,0.5c0,0.21-0.09,0.44-0.26,0.67l-6.78,9.12l7.36,9.89
			c0.17,0.24,0.26,0.46,0.26,0.67c0,0.19-0.07,0.36-0.21,0.5c-0.14,0.14-0.34,0.21-0.59,0.21h-5.98c-0.32,0-0.57-0.04-0.74-0.11
			c-0.17-0.07-0.32-0.2-0.45-0.37l-3.84-5.15l-3.81,5.15c-0.13,0.17-0.28,0.29-0.45,0.37c-0.17,0.08-0.42,0.11-0.74,0.11h-5.98
			C242.82,150.43,242.62,150.36,242.48,150.22z"/>
	</g>
</g>
</svg>
