<?xml version="1.0" encoding="utf-8"?>
<!-- Generator: Adobe Illustrator 23.0.0, SVG Export Plug-In . SVG Version: 6.00 Build 0)  -->
<svg version="1.1" id="Capa_1" xmlns="http://www.w3.org/2000/svg" xmlns:xlink="http://www.w3.org/1999/xlink" x="0px" y="0px"
	 viewBox="0 0 400 689" style="enable-background:new 0 0 400 689;" xml:space="preserve">
<style type="text/css">
	.st0{fill:#E2E2E2;}
	.st1{fill:#FFFFFF;}
	.st2{fill:#CCCDCE;}
	.st3{fill:#F2F2F2;}
	.st4{fill:none;}
	.st5{fill:#0085B0;}
	.st6{fill:#E0EF18;}
	.st7{fill:#CECECE;}
	.st8{fill:#22272F;}
	.st9{fill:#1B2538;}
	.st10{fill:#253452;}
	.st11{fill:#F9F9F9;}
	.st12{fill:#2D3543;}
	.st13{fill:#2A3D60;}
	.st14{fill:#6C92D5;}
	.st15{fill:#587955;}
	.st16{fill:#CD7054;}
	.st17{fill:#F1CC4B;}
	.st18{fill:#DFDFDF;}
	.st19{fill:#ACACAC;}
	.st20{fill:#00D13C;}
	.st21{fill:#866A5E;}
	.st22{fill:#F7DDCB;}
	.st23{fill:#FFE6D4;}
	.st24{fill:#2D2D2D;}
	.st25{fill:#1C1B1A;}
	.st26{fill:#F5F5F5;}
	.st27{fill:#77181C;}
	.st28{fill:#EAEAEA;}
	.st29{fill:#262525;}
	.st30{fill:#11100F;}
	.st31{fill:#FFFFFF;stroke:#000000;stroke-width:6;stroke-miterlimit:10;}
	.st32{fill:#D4D4D4;}
	.st33{fill:#C2C2C2;}
	.st34{fill:#505050;}
	.st35{fill:#53C2C9;}
	.st36{fill:#008B9C;}
	.st37{fill:none;stroke:#00550B;stroke-width:4;stroke-miterlimit:10;}
	.st38{fill:#CE2458;}
	.st39{fill:#155500;}
	.st40{fill:#1549FF;}
	.st41{fill:#606060;stroke:#C6C8CC;stroke-width:6;stroke-miterlimit:10;}
	.st42{fill:#727272;}
	.st43{fill:#207235;}
	.st44{fill:#A3A3A3;}
	.st45{fill:#BCBCBC;}
	.st46{fill:#2A5936;}
	.st47{opacity:0.7;fill:#7F7F7F;}
	.st48{fill:#DAA449;}
	.st49{fill:#85B681;}
	.st50{fill:#A1DC9B;}
	.st51{fill:#90C58B;}
	.st52{fill:#DD9225;}
	.st53{opacity:0.3;}
	.st54{fill:#81C378;}
	.st55{opacity:0.5;}
	.st56{fill:#A2CADE;}
	.st57{fill:#9BAEC9;}
	.st58{fill:#9D2B3B;}
	.st59{fill:#C1D4F2;}
	.st60{fill:#534D46;}
	.st61{fill:#191819;}
	.st62{fill:#222123;}
	.st63{fill:#F3FF00;}
	.st64{fill-rule:evenodd;clip-rule:evenodd;fill:#FFFFFF;}
	.st65{fill-rule:evenodd;clip-rule:evenodd;fill:#1996B8;}
	.st66{fill:none;stroke:#5A605A;stroke-width:4;stroke-miterlimit:10;}
	.st67{fill:#FFB412;}
	.st68{fill:#BACDD1;}
	.st69{fill:#1C4D59;}
	.st70{fill:#A14329;}
	.st71{fill:#FCC083;}
	.st72{fill:#E8AA63;}
	.st73{fill:#D40000;}
	.st74{opacity:0.35;fill:#7D7D7D;}
	.st75{fill:#E5E3E3;}
	.st76{fill:#121F5E;}
	.st77{fill:#A3ADAF;}
	.st78{fill:#C2C6C6;}
	.st79{fill:#E5E5E5;stroke:#FFFFFF;stroke-miterlimit:10;}
	.st80{fill:#ACB4B5;}
	.st81{fill:#7F8384;}
	.st82{fill:#282828;}
	.st83{fill:none;stroke:#46A508;stroke-width:6;stroke-miterlimit:10;}
	.st84{fill:none;stroke:#46A508;stroke-width:6;stroke-miterlimit:10;stroke-dasharray:11.7425,11.7425;}
	.st85{fill:#C89D76;}
	.st86{opacity:0.4;}
	.st87{fill:#ADADAD;}
	.st88{fill:#76A172;}
	.st89{fill:#62835F;}
	.st90{fill:#96D090;}
	.st91{fill:#EDC3A6;}
	.st92{opacity:0.69;}
	.st93{fill:#E5D3D6;}
	.st94{opacity:0.44;}
	.st95{fill:#A5A5A5;}
	.st96{fill:#DDE5E4;}
	.st97{fill:#FDFDFD;}
	.st98{fill:#E0C348;}
	.st99{fill:#606060;}
</style>
<g>
	<g>
		<path class="st20" d="M8.5,199.36c0,22,13.29,27.86,29.54,13.03c0,0,156.99-143.3,353.09,26.97V45c0-22-18-40-40-40H48.5
			c-22,0-40,18-40,40V199.36z"/>
	</g>
	<g>
		<path class="st20" d="M390.66,637c0,22-18,40-40,40H48.98c-22,0-40-18-40-40v-46.27c0-22,18-40,40-40h301.68c22,0,40,18,40,40V637
			z"/>
	</g>
	<polygon class="st6" points="199.76,86.93 213.23,114.22 243.34,118.59 221.55,139.83 226.7,169.83 199.76,155.67 172.83,169.83 
		177.97,139.83 156.18,118.59 186.29,114.22 	"/>
	<polygon class="st6" points="137.58,170.15 146.32,187.86 165.86,190.7 151.72,204.48 155.06,223.94 137.58,214.75 120.11,223.94 
		123.45,204.48 109.31,190.7 128.85,187.86 	"/>
	<polygon class="st6" points="267.68,170.15 276.42,187.86 295.95,190.7 281.82,204.48 285.15,223.94 267.68,214.75 250.2,223.94 
		253.54,204.48 239.4,190.7 258.94,187.86 	"/>
	<circle class="st7" cx="200.77" cy="203.97" r="121.96"/>
	<circle class="st1" cx="199.82" cy="190.58" r="121.96"/>
	<g>
		<path class="st1" d="M183.17,634.07c-3.43-0.78-6.17-1.87-8.21-3.29c-0.58-0.44-0.88-0.92-0.88-1.46c0-0.44,0.22-1.05,0.66-1.82
			l3.65-6.28c0.39-0.68,0.85-1.02,1.39-1.02c0.34,0,0.9,0.2,1.68,0.58c1.27,0.63,2.81,1.16,4.64,1.57c1.83,0.41,3.64,0.62,5.44,0.62
			c2.43,0,4.25-0.37,5.44-1.09c1.19-0.73,1.79-1.85,1.79-3.36c0-2.34-1.58-3.5-4.75-3.5h-5.62c-1.61,0-2.74-0.34-3.39-1.02
			c-0.66-0.68-0.99-1.73-0.99-3.14v-3.94c0-1.41,0.33-2.46,0.99-3.14c0.66-0.68,1.79-1.02,3.39-1.02h4.45c1.61,0,2.77-0.29,3.5-0.88
			s1.1-1.48,1.1-2.7c0-2.34-2.02-3.5-6.06-3.5c-3.26,0-6.35,0.73-9.27,2.19c-0.78,0.39-1.34,0.58-1.68,0.58
			c-0.54,0-1-0.34-1.39-1.02l-3.65-6.28c-0.44-0.78-0.66-1.39-0.66-1.83c0-0.54,0.29-1.02,0.88-1.46c2.09-1.41,4.7-2.51,7.81-3.29
			c3.11-0.78,6.67-1.17,10.66-1.17c4.23,0,7.92,0.62,11.06,1.86c3.14,1.24,5.55,3,7.23,5.29c1.68,2.29,2.52,4.99,2.52,8.1
			c0,4.28-1.48,7.59-4.45,9.93c3.84,2.24,5.77,5.79,5.77,10.66c0,4.92-1.87,8.81-5.62,11.68c-3.75,2.87-9.15,4.31-16.21,4.31
			C190.34,635.24,186.6,634.85,183.17,634.07z"/>
	</g>
	<g>
		<path d="M39.01,365.42c-2.29-2.03-3.43-5.04-3.43-9.03c0-3.97,1.14-6.97,3.43-9.01s5.49-3.06,9.59-3.06c1.86,0,3.52,0.18,5,0.54
			c1.47,0.36,2.7,0.87,3.67,1.53c0.27,0.2,0.41,0.43,0.41,0.68c0,0.2-0.1,0.49-0.31,0.85l-1.7,2.92c-0.18,0.32-0.4,0.48-0.65,0.48
			c-0.16,0-0.42-0.09-0.78-0.27c-1.36-0.68-2.86-1.02-4.49-1.02c-1.88,0-3.36,0.54-4.44,1.62c-1.08,1.08-1.61,2.66-1.61,4.74
			c0,2.15,0.45,3.75,1.36,4.78c0.91,1.03,2.25,1.55,4.05,1.55c0.32,0,0.67-0.03,1.07-0.08c0.4-0.06,0.72-0.12,0.97-0.19v-3.09h-2.18
			c-0.73,0-1.22-0.14-1.48-0.43c-0.26-0.28-0.39-0.76-0.39-1.44v-1.87c0-0.68,0.13-1.16,0.39-1.45c0.26-0.28,0.75-0.42,1.48-0.42
			h7.31c0.88,0,1.5,0.2,1.84,0.59c0.34,0.4,0.51,1.03,0.51,1.89v7.96c0,0.5-0.06,0.88-0.19,1.14c-0.13,0.26-0.37,0.53-0.73,0.8
			c-2.18,1.56-5.2,2.35-9.08,2.35C44.51,368.46,41.3,367.45,39.01,365.42z"/>
		<path d="M60.79,367.48c-0.31-0.32-0.46-0.8-0.46-1.46v-19.24c0-0.66,0.15-1.14,0.46-1.46s0.83-0.48,1.58-0.48h14.08
			c0.73,0,1.22,0.15,1.48,0.46c0.26,0.31,0.39,0.8,0.39,1.48v1.9c0,0.68-0.13,1.17-0.39,1.48c-0.26,0.31-0.75,0.46-1.48,0.46h-7.96
			v2.92h4.9c0.73,0,1.22,0.15,1.48,0.46c0.26,0.31,0.39,0.8,0.39,1.48v1.84c0,0.68-0.13,1.17-0.39,1.48
			c-0.26,0.31-0.75,0.46-1.48,0.46h-4.9v2.92h7.92c0.73,0,1.22,0.15,1.48,0.46c0.26,0.31,0.39,0.8,0.39,1.48v1.9
			c0,0.68-0.13,1.17-0.39,1.48c-0.26,0.31-0.75,0.46-1.48,0.46H62.37C61.62,367.95,61.09,367.79,60.79,367.48z"/>
		<path d="M80.3,367.48c-0.31-0.32-0.46-0.8-0.46-1.46v-19.28c0-0.66,0.15-1.14,0.46-1.45c0.31-0.31,0.84-0.46,1.62-0.46h3.23
			c0.48,0,0.84,0.06,1.1,0.19c0.26,0.13,0.52,0.37,0.76,0.73l6.15,9.15v-8.13c0-0.66,0.15-1.14,0.46-1.46s0.83-0.48,1.58-0.48h4.05
			c0.77,0,1.31,0.15,1.62,0.46c0.31,0.31,0.46,0.8,0.46,1.48v19.28c0,0.66-0.15,1.14-0.46,1.45c-0.31,0.31-0.84,0.46-1.62,0.46
			h-3.23c-0.48,0-0.84-0.06-1.1-0.19c-0.26-0.13-0.52-0.37-0.77-0.73L88,357.89v8.16c0,0.66-0.15,1.14-0.46,1.45
			c-0.31,0.31-0.84,0.46-1.62,0.46h-4.05C81.13,367.95,80.61,367.79,80.3,367.48z"/>
		<path d="M104.17,367.48c-0.31-0.32-0.46-0.8-0.46-1.46v-19.24c0-0.66,0.15-1.14,0.46-1.46s0.83-0.48,1.58-0.48h14.08
			c0.73,0,1.22,0.15,1.48,0.46c0.26,0.31,0.39,0.8,0.39,1.48v1.9c0,0.68-0.13,1.17-0.39,1.48c-0.26,0.31-0.75,0.46-1.48,0.46h-7.96
			v2.92h4.9c0.73,0,1.22,0.15,1.48,0.46c0.26,0.31,0.39,0.8,0.39,1.48v1.84c0,0.68-0.13,1.17-0.39,1.48
			c-0.26,0.31-0.75,0.46-1.48,0.46h-4.9v2.92h7.92c0.73,0,1.22,0.15,1.48,0.46c0.26,0.31,0.39,0.8,0.39,1.48v1.9
			c0,0.68-0.13,1.17-0.39,1.48c-0.26,0.31-0.75,0.46-1.48,0.46h-14.04C105,367.95,104.48,367.79,104.17,367.48z"/>
		<path d="M123.68,367.48c-0.31-0.32-0.46-0.8-0.46-1.46v-19.24c0-0.66,0.15-1.14,0.46-1.46s0.83-0.48,1.58-0.48h8.13
			c3.4,0,5.88,0.67,7.43,2.02c1.55,1.35,2.33,3.38,2.33,6.1c0,1.63-0.28,3.01-0.83,4.13c-0.56,1.12-1.41,2-2.57,2.64l3.16,6.77
			c0.09,0.18,0.14,0.39,0.14,0.61c0,0.25-0.09,0.45-0.26,0.61c-0.17,0.16-0.39,0.24-0.66,0.24h-5.75c-0.36,0-0.65-0.05-0.87-0.15
			c-0.22-0.1-0.37-0.28-0.46-0.53l-2.52-6.32h-1.16v5.07c0,0.66-0.15,1.15-0.46,1.46c-0.31,0.32-0.84,0.48-1.62,0.48h-4.05
			C124.52,367.95,123.99,367.79,123.68,367.48z M132.68,355.27c0.73,0,1.3-0.19,1.72-0.58s0.63-0.96,0.63-1.73
			c0-0.79-0.21-1.38-0.63-1.77s-0.99-0.58-1.72-0.58h-2.31v4.66H132.68z"/>
		<path d="M142.64,367.24c0-0.2,0.06-0.45,0.17-0.75l8.47-20.37c0.2-0.48,0.44-0.81,0.7-1c0.26-0.19,0.63-0.29,1.11-0.29h3.71
			c0.48,0,0.84,0.1,1.1,0.29c0.26,0.19,0.49,0.53,0.7,1l8.43,20.37c0.11,0.29,0.17,0.54,0.17,0.75c0,0.48-0.25,0.71-0.75,0.71h-6.39
			c-0.7,0-1.15-0.31-1.33-0.92l-0.82-2.52h-6.02l-0.78,2.52c-0.18,0.61-0.62,0.92-1.33,0.92h-6.39
			C142.89,367.95,142.64,367.71,142.64,367.24z M156.24,359.15l-1.33-4.22l-1.33,4.22H156.24z"/>
		<path d="M169.35,367.48c-0.31-0.32-0.46-0.8-0.46-1.46v-19.24c0-0.66,0.15-1.14,0.46-1.46s0.83-0.48,1.58-0.48h8.13
			c3.4,0,5.88,0.67,7.43,2.02c1.55,1.35,2.33,3.38,2.33,6.1c0,1.63-0.28,3.01-0.83,4.13c-0.56,1.12-1.41,2-2.57,2.64l3.16,6.77
			c0.09,0.18,0.14,0.39,0.14,0.61c0,0.25-0.09,0.45-0.26,0.61c-0.17,0.16-0.39,0.24-0.66,0.24h-5.75c-0.36,0-0.65-0.05-0.87-0.15
			c-0.22-0.1-0.37-0.28-0.46-0.53l-2.52-6.32h-1.16v5.07c0,0.66-0.15,1.15-0.46,1.46c-0.31,0.32-0.84,0.48-1.62,0.48h-4.05
			C170.18,367.95,169.65,367.79,169.35,367.48z M178.34,355.27c0.73,0,1.3-0.19,1.72-0.58s0.63-0.96,0.63-1.73
			c0-0.79-0.21-1.38-0.63-1.77s-0.99-0.58-1.72-0.58h-2.31v4.66H178.34z"/>
		<path d="M201.17,367.48c-0.31-0.32-0.46-0.8-0.46-1.46v-19.24c0-0.66,0.15-1.14,0.46-1.46s0.83-0.48,1.58-0.48h8.13
			c3.4,0,5.88,0.67,7.43,2.02c1.55,1.35,2.33,3.38,2.33,6.1c0,1.63-0.28,3.01-0.83,4.13c-0.56,1.12-1.41,2-2.57,2.64l3.16,6.77
			c0.09,0.18,0.14,0.39,0.14,0.61c0,0.25-0.09,0.45-0.26,0.61c-0.17,0.16-0.39,0.24-0.66,0.24h-5.75c-0.36,0-0.65-0.05-0.87-0.15
			c-0.22-0.1-0.37-0.28-0.46-0.53l-2.52-6.32h-1.16v5.07c0,0.66-0.15,1.15-0.46,1.46c-0.31,0.32-0.84,0.48-1.62,0.48h-4.05
			C202,367.95,201.48,367.79,201.17,367.48z M210.16,355.27c0.73,0,1.3-0.19,1.72-0.58s0.63-0.96,0.63-1.73
			c0-0.79-0.21-1.38-0.63-1.77s-0.99-0.58-1.72-0.58h-2.31v4.66H210.16z"/>
		<path d="M222.79,367.48c-0.31-0.32-0.46-0.8-0.46-1.46v-19.24c0-0.66,0.15-1.14,0.46-1.46s0.83-0.48,1.58-0.48h14.08
			c0.73,0,1.22,0.15,1.48,0.46c0.26,0.31,0.39,0.8,0.39,1.48v1.9c0,0.68-0.13,1.17-0.39,1.48c-0.26,0.31-0.75,0.46-1.48,0.46h-7.96
			v2.92h4.9c0.73,0,1.22,0.15,1.48,0.46c0.26,0.31,0.39,0.8,0.39,1.48v1.84c0,0.68-0.13,1.17-0.39,1.48
			c-0.26,0.31-0.75,0.46-1.48,0.46h-4.9v2.92h7.92c0.73,0,1.22,0.15,1.48,0.46c0.26,0.31,0.39,0.8,0.39,1.48v1.9
			c0,0.68-0.13,1.17-0.39,1.48c-0.26,0.31-0.75,0.46-1.48,0.46h-14.04C223.63,367.95,223.1,367.79,222.79,367.48z"/>
		<path d="M242.31,367.48c-0.31-0.32-0.46-0.8-0.46-1.46v-19.24c0-0.66,0.15-1.14,0.46-1.46s0.83-0.48,1.58-0.48h8.13
			c3.4,0,5.88,0.67,7.43,2.02c1.55,1.35,2.33,3.38,2.33,6.1s-0.78,4.75-2.33,6.09c-1.55,1.34-4.02,2.01-7.4,2.01h-2.04v4.96
			c0,0.66-0.15,1.15-0.46,1.46c-0.31,0.32-0.84,0.48-1.62,0.48h-4.05C243.14,367.95,242.61,367.79,242.31,367.48z M251.3,355.27
			c0.73,0,1.3-0.19,1.72-0.58s0.63-0.96,0.63-1.73c0-0.79-0.21-1.38-0.63-1.77s-0.99-0.58-1.72-0.58h-2.31v4.66H251.3z"/>
		<path d="M264.39,365.32c-2.09-2.1-3.13-5.07-3.13-8.92s1.04-6.83,3.13-8.93c2.08-2.1,5.15-3.14,9.18-3.14s7.09,1.05,9.18,3.14
			c2.08,2.1,3.13,5.07,3.13,8.93s-1.04,6.83-3.13,8.92c-2.09,2.1-5.15,3.14-9.18,3.14S266.48,367.41,264.39,365.32z M276.77,361.17
			c0.66-1.05,0.99-2.65,0.99-4.78c0-2.15-0.33-3.75-0.99-4.79c-0.66-1.04-1.72-1.56-3.2-1.56c-1.47,0-2.54,0.52-3.2,1.56
			c-0.66,1.04-0.99,2.64-0.99,4.79c0,2.13,0.33,3.72,0.99,4.78c0.66,1.05,1.72,1.58,3.2,1.58
			C275.04,362.75,276.11,362.22,276.77,361.17z"/>
		<path d="M288.04,367.48c-0.31-0.32-0.46-0.8-0.46-1.46v-19.24c0-0.66,0.15-1.14,0.46-1.46s0.83-0.48,1.58-0.48h8.13
			c3.4,0,5.88,0.67,7.43,2.02c1.55,1.35,2.33,3.38,2.33,6.1c0,1.63-0.28,3.01-0.83,4.13c-0.56,1.12-1.41,2-2.57,2.64l3.16,6.77
			c0.09,0.18,0.14,0.39,0.14,0.61c0,0.25-0.09,0.45-0.26,0.61c-0.17,0.16-0.39,0.24-0.66,0.24h-5.75c-0.36,0-0.65-0.05-0.87-0.15
			c-0.22-0.1-0.37-0.28-0.46-0.53l-2.52-6.32h-1.16v5.07c0,0.66-0.15,1.15-0.46,1.46c-0.31,0.32-0.84,0.48-1.62,0.48h-4.05
			C288.87,367.95,288.34,367.79,288.04,367.48z M297.03,355.27c0.73,0,1.3-0.19,1.72-0.58s0.63-0.96,0.63-1.73
			c0-0.79-0.21-1.38-0.63-1.77s-0.99-0.58-1.72-0.58h-2.31v4.66H297.03z"/>
		<path d="M313.88,367.48c-0.31-0.32-0.46-0.8-0.46-1.46v-15.4h-4.9c-0.73,0-1.22-0.15-1.48-0.46c-0.26-0.31-0.39-0.8-0.39-1.48
			v-1.9c0-0.68,0.13-1.17,0.39-1.48c0.26-0.31,0.75-0.46,1.48-0.46h17.95c0.73,0,1.22,0.15,1.48,0.46c0.26,0.31,0.39,0.8,0.39,1.48
			v1.9c0,0.68-0.13,1.17-0.39,1.48c-0.26,0.31-0.75,0.46-1.48,0.46h-4.9v15.4c0,0.66-0.15,1.15-0.46,1.46
			c-0.31,0.32-0.84,0.48-1.61,0.48h-4.05C314.71,367.95,314.18,367.79,313.88,367.48z"/>
		<path d="M329.82,367.48c-0.31-0.32-0.46-0.8-0.46-1.46v-19.24c0-0.66,0.15-1.14,0.46-1.46s0.83-0.48,1.58-0.48h14.08
			c0.73,0,1.22,0.15,1.48,0.46c0.26,0.31,0.39,0.8,0.39,1.48v1.9c0,0.68-0.13,1.17-0.39,1.48c-0.26,0.31-0.75,0.46-1.48,0.46h-7.96
			v2.92h4.9c0.73,0,1.22,0.15,1.48,0.46c0.26,0.31,0.39,0.8,0.39,1.48v1.84c0,0.68-0.13,1.17-0.39,1.48
			c-0.26,0.31-0.75,0.46-1.48,0.46h-4.9v2.92h7.92c0.73,0,1.22,0.15,1.48,0.46c0.26,0.31,0.39,0.8,0.39,1.48v1.9
			c0,0.68-0.13,1.17-0.39,1.48c-0.26,0.31-0.75,0.46-1.48,0.46h-14.04C330.66,367.95,330.13,367.79,329.82,367.48z"/>
		<path d="M353.2,367.82c-1.77-0.43-3.2-1.03-4.28-1.8c-0.45-0.32-0.68-0.62-0.68-0.92c0-0.2,0.08-0.42,0.24-0.65l1.97-3.09
			c0.2-0.29,0.41-0.44,0.61-0.44c0.18,0,0.4,0.08,0.65,0.24c0.82,0.5,1.75,0.89,2.8,1.17c1.05,0.28,2.08,0.42,3.08,0.42
			c0.84,0,1.44-0.11,1.82-0.34s0.56-0.58,0.56-1.05c0-0.52-0.25-0.94-0.75-1.26s-1.36-0.71-2.58-1.19
			c-2.29-0.88-4.09-1.89-5.41-3.01c-1.31-1.12-1.97-2.61-1.97-4.47c0-2.36,0.82-4.13,2.46-5.32c1.64-1.19,3.86-1.79,6.65-1.79
			c1.95,0,3.61,0.17,4.98,0.51c1.37,0.34,2.57,0.87,3.59,1.6c0.45,0.32,0.68,0.62,0.68,0.92c0,0.2-0.08,0.42-0.24,0.65l-1.97,3.09
			c-0.2,0.32-0.41,0.48-0.61,0.48c-0.14,0-0.35-0.09-0.65-0.27c-0.54-0.36-1.19-0.66-1.94-0.9c-0.75-0.24-1.55-0.36-2.41-0.36
			c-0.79,0-1.39,0.11-1.8,0.34c-0.41,0.23-0.61,0.59-0.61,1.09c0,0.41,0.14,0.75,0.43,1.02c0.28,0.27,0.64,0.5,1.07,0.7
			c0.43,0.19,1.18,0.5,2.24,0.94c1.7,0.68,3.04,1.33,4.01,1.96s1.71,1.37,2.21,2.24c0.5,0.87,0.75,1.98,0.75,3.31
			c0,2.04-0.77,3.69-2.29,4.95s-3.81,1.89-6.85,1.89C356.88,368.46,354.97,368.25,353.2,367.82z"/>
		<path d="M120.63,408.28c-0.31-0.32-0.46-0.8-0.46-1.46v-19.24c0-0.66,0.15-1.14,0.46-1.46s0.83-0.48,1.58-0.48h7.82
			c8,0,12,3.85,12,11.56c0,3.81-1.03,6.69-3.08,8.64c-2.05,1.95-5.03,2.92-8.93,2.92h-7.82
			C121.46,408.75,120.93,408.59,120.63,408.28z M130.33,402.97c1.27,0,2.18-0.42,2.74-1.26c0.56-0.84,0.83-2.35,0.83-4.52
			c0-2.18-0.28-3.68-0.83-4.52c-0.56-0.84-1.47-1.26-2.74-1.26h-2.01v11.56H130.33z"/>
		<path d="M144.19,408.28c-0.31-0.32-0.46-0.8-0.46-1.46v-19.24c0-0.66,0.15-1.14,0.46-1.46s0.83-0.48,1.58-0.48h14.08
			c0.73,0,1.22,0.15,1.48,0.46c0.26,0.31,0.39,0.8,0.39,1.48v1.9c0,0.68-0.13,1.17-0.39,1.48c-0.26,0.31-0.75,0.46-1.48,0.46h-7.96
			v2.92h4.9c0.73,0,1.22,0.15,1.48,0.46c0.26,0.31,0.39,0.8,0.39,1.48v1.84c0,0.68-0.13,1.17-0.39,1.48
			c-0.26,0.31-0.75,0.46-1.48,0.46h-4.9v2.92h7.92c0.73,0,1.22,0.15,1.48,0.46c0.26,0.31,0.39,0.8,0.39,1.48v1.9
			c0,0.68-0.13,1.17-0.39,1.48c-0.26,0.31-0.75,0.46-1.48,0.46h-14.04C145.02,408.75,144.49,408.59,144.19,408.28z"/>
		<path d="M179.31,408.28c-0.31-0.32-0.46-0.8-0.46-1.46v-15.4h-4.9c-0.73,0-1.22-0.15-1.48-0.46c-0.26-0.31-0.39-0.8-0.39-1.48
			v-1.9c0-0.68,0.13-1.17,0.39-1.48c0.26-0.31,0.75-0.46,1.48-0.46h17.95c0.73,0,1.22,0.15,1.48,0.46c0.26,0.31,0.39,0.8,0.39,1.48
			v1.9c0,0.68-0.13,1.17-0.39,1.48c-0.26,0.31-0.75,0.46-1.48,0.46h-4.9v15.4c0,0.66-0.15,1.15-0.46,1.46
			c-0.31,0.32-0.84,0.48-1.61,0.48h-4.05C180.14,408.75,179.61,408.59,179.31,408.28z"/>
		<path d="M195.71,406.12c-2.09-2.1-3.13-5.07-3.13-8.92s1.04-6.83,3.13-8.93c2.08-2.1,5.15-3.14,9.18-3.14s7.09,1.05,9.18,3.14
			c2.08,2.1,3.13,5.07,3.13,8.93s-1.04,6.83-3.13,8.92c-2.09,2.1-5.15,3.14-9.18,3.14S197.8,408.21,195.71,406.12z M208.09,401.97
			c0.66-1.05,0.99-2.65,0.99-4.78c0-2.15-0.33-3.75-0.99-4.79c-0.66-1.04-1.72-1.56-3.2-1.56c-1.47,0-2.54,0.52-3.2,1.56
			c-0.66,1.04-0.99,2.64-0.99,4.79c0,2.13,0.33,3.72,0.99,4.78c0.66,1.05,1.72,1.58,3.2,1.58
			C206.37,403.55,207.43,403.02,208.09,401.97z"/>
		<path d="M219.36,408.28c-0.31-0.32-0.46-0.8-0.46-1.46v-19.24c0-0.66,0.15-1.14,0.46-1.46s0.83-0.48,1.58-0.48h7.82
			c8,0,12,3.85,12,11.56c0,3.81-1.03,6.69-3.08,8.64c-2.05,1.95-5.03,2.92-8.93,2.92h-7.82
			C220.19,408.75,219.67,408.59,219.36,408.28z M229.07,402.97c1.27,0,2.18-0.42,2.74-1.26c0.56-0.84,0.83-2.35,0.83-4.52
			c0-2.18-0.28-3.68-0.83-4.52c-0.56-0.84-1.47-1.26-2.74-1.26h-2.01v11.56H229.07z"/>
		<path d="M240.25,408.04c0-0.2,0.06-0.45,0.17-0.75l8.47-20.37c0.2-0.48,0.44-0.81,0.7-1c0.26-0.19,0.63-0.29,1.11-0.29h3.71
			c0.48,0,0.84,0.1,1.1,0.29c0.26,0.19,0.49,0.53,0.7,1l8.43,20.37c0.11,0.29,0.17,0.54,0.17,0.75c0,0.48-0.25,0.71-0.75,0.71h-6.39
			c-0.7,0-1.15-0.31-1.33-0.92l-0.82-2.52h-6.02l-0.78,2.52c-0.18,0.61-0.62,0.92-1.33,0.92H241
			C240.5,408.75,240.25,408.51,240.25,408.04z M253.85,399.95l-1.33-4.22l-1.33,4.22H253.85z"/>
		<path d="M269.29,408.62c-1.77-0.43-3.2-1.03-4.28-1.8c-0.45-0.32-0.68-0.62-0.68-0.92c0-0.2,0.08-0.42,0.24-0.65l1.97-3.09
			c0.2-0.29,0.41-0.44,0.61-0.44c0.18,0,0.4,0.08,0.65,0.24c0.82,0.5,1.75,0.89,2.8,1.17c1.05,0.28,2.08,0.42,3.08,0.42
			c0.84,0,1.44-0.11,1.82-0.34s0.56-0.58,0.56-1.05c0-0.52-0.25-0.94-0.75-1.26s-1.36-0.71-2.58-1.19
			c-2.29-0.88-4.09-1.89-5.41-3.01c-1.31-1.12-1.97-2.61-1.97-4.47c0-2.36,0.82-4.13,2.46-5.32c1.64-1.19,3.86-1.79,6.65-1.79
			c1.95,0,3.61,0.17,4.98,0.51c1.37,0.34,2.57,0.87,3.59,1.6c0.45,0.32,0.68,0.62,0.68,0.92c0,0.2-0.08,0.42-0.24,0.65l-1.97,3.09
			c-0.2,0.32-0.41,0.48-0.61,0.48c-0.14,0-0.35-0.09-0.65-0.27c-0.54-0.36-1.19-0.66-1.94-0.9c-0.75-0.24-1.55-0.36-2.41-0.36
			c-0.79,0-1.39,0.11-1.8,0.34c-0.41,0.23-0.61,0.59-0.61,1.09c0,0.41,0.14,0.75,0.43,1.02c0.28,0.27,0.64,0.5,1.07,0.7
			c0.43,0.19,1.18,0.5,2.24,0.94c1.7,0.68,3.04,1.33,4.01,1.96s1.71,1.37,2.21,2.24c0.5,0.87,0.75,1.98,0.75,3.31
			c0,2.04-0.77,3.69-2.29,4.95s-3.81,1.89-6.85,1.89C272.97,409.26,271.06,409.05,269.29,408.62z"/>
		<path d="M76.73,449.08c-0.31-0.32-0.46-0.8-0.46-1.46v-19.24c0-0.66,0.15-1.14,0.46-1.46s0.83-0.48,1.58-0.48h4.05
			c0.77,0,1.31,0.15,1.62,0.46c0.31,0.31,0.46,0.8,0.46,1.48v15.4h7.92c0.73,0,1.22,0.15,1.48,0.46c0.26,0.31,0.39,0.8,0.39,1.48
			v1.9c0,0.68-0.13,1.17-0.39,1.48c-0.26,0.31-0.75,0.46-1.48,0.46H78.31C77.56,449.55,77.04,449.39,76.73,449.08z"/>
		<path d="M94.05,448.84c0-0.2,0.06-0.45,0.17-0.75l8.47-20.37c0.2-0.48,0.44-0.81,0.7-1c0.26-0.19,0.63-0.29,1.11-0.29h3.71
			c0.48,0,0.84,0.1,1.1,0.29c0.26,0.19,0.49,0.53,0.7,1l8.43,20.37c0.11,0.29,0.17,0.54,0.17,0.75c0,0.48-0.25,0.71-0.75,0.71h-6.39
			c-0.7,0-1.15-0.31-1.33-0.92l-0.82-2.52h-6.02l-0.78,2.52c-0.18,0.61-0.62,0.92-1.33,0.92H94.8
			C94.3,449.55,94.05,449.31,94.05,448.84z M107.65,440.75l-1.33-4.22l-1.33,4.22H107.65z"/>
		<path d="M123.09,449.42c-1.77-0.43-3.2-1.03-4.28-1.8c-0.45-0.32-0.68-0.62-0.68-0.92c0-0.2,0.08-0.42,0.24-0.65l1.97-3.09
			c0.2-0.29,0.41-0.44,0.61-0.44c0.18,0,0.4,0.08,0.65,0.24c0.82,0.5,1.75,0.89,2.8,1.17c1.05,0.28,2.08,0.42,3.08,0.42
			c0.84,0,1.44-0.11,1.82-0.34s0.56-0.58,0.56-1.05c0-0.52-0.25-0.94-0.75-1.26s-1.36-0.71-2.58-1.19
			c-2.29-0.88-4.09-1.89-5.41-3.01c-1.31-1.12-1.97-2.61-1.97-4.47c0-2.36,0.82-4.13,2.46-5.32c1.64-1.19,3.86-1.79,6.65-1.79
			c1.95,0,3.61,0.17,4.98,0.51c1.37,0.34,2.57,0.87,3.59,1.6c0.45,0.32,0.68,0.62,0.68,0.92c0,0.2-0.08,0.42-0.24,0.65l-1.97,3.09
			c-0.2,0.32-0.41,0.48-0.61,0.48c-0.14,0-0.35-0.09-0.65-0.27c-0.54-0.36-1.19-0.66-1.94-0.9c-0.75-0.24-1.55-0.36-2.41-0.36
			c-0.79,0-1.39,0.11-1.8,0.34c-0.41,0.23-0.61,0.59-0.61,1.09c0,0.41,0.14,0.75,0.43,1.02c0.28,0.27,0.64,0.5,1.07,0.7
			c0.43,0.19,1.18,0.5,2.24,0.94c1.7,0.68,3.04,1.33,4.01,1.96s1.71,1.37,2.21,2.24c0.5,0.87,0.75,1.98,0.75,3.31
			c0,2.04-0.77,3.69-2.29,4.95s-3.81,1.89-6.85,1.89C126.77,450.06,124.86,449.85,123.09,449.42z"/>
		<path d="M150.34,449.08c-0.31-0.32-0.46-0.8-0.46-1.46v-19.24c0-0.66,0.15-1.14,0.46-1.46s0.83-0.48,1.58-0.48h4.05
			c0.77,0,1.31,0.15,1.62,0.46c0.31,0.31,0.46,0.8,0.46,1.48v15.4h7.92c0.73,0,1.22,0.15,1.48,0.46c0.26,0.31,0.39,0.8,0.39,1.48
			v1.9c0,0.68-0.13,1.17-0.39,1.48c-0.26,0.31-0.75,0.46-1.48,0.46h-14.04C151.17,449.55,150.65,449.39,150.34,449.08z"/>
		<path d="M169.31,449.08c-0.31-0.32-0.46-0.8-0.46-1.46v-19.24c0-0.66,0.15-1.14,0.46-1.46s0.83-0.48,1.58-0.48h4.05
			c0.77,0,1.31,0.15,1.62,0.46c0.31,0.31,0.46,0.8,0.46,1.48v15.4h7.92c0.73,0,1.22,0.15,1.48,0.46c0.26,0.31,0.39,0.8,0.39,1.48
			v1.9c0,0.68-0.13,1.17-0.39,1.48c-0.26,0.31-0.75,0.46-1.48,0.46h-14.04C170.14,449.55,169.62,449.39,169.31,449.08z"/>
		<path d="M186.63,448.84c0-0.2,0.06-0.45,0.17-0.75l8.47-20.37c0.2-0.48,0.44-0.81,0.7-1c0.26-0.19,0.63-0.29,1.11-0.29h3.71
			c0.48,0,0.84,0.1,1.1,0.29c0.26,0.19,0.49,0.53,0.7,1l8.43,20.37c0.11,0.29,0.17,0.54,0.17,0.75c0,0.48-0.25,0.71-0.75,0.71h-6.39
			c-0.7,0-1.15-0.31-1.33-0.92l-0.82-2.52h-6.02l-0.78,2.52c-0.18,0.61-0.62,0.92-1.33,0.92h-6.39
			C186.88,449.55,186.63,449.31,186.63,448.84z M200.23,440.75l-1.33-4.22l-1.33,4.22H200.23z"/>
		<path d="M212.49,449.08c-0.31-0.32-0.46-0.8-0.46-1.46v-19.28c0-0.66,0.15-1.14,0.46-1.45s0.84-0.46,1.62-0.46h3.91
			c0.5,0,0.9,0.06,1.19,0.19c0.29,0.12,0.52,0.37,0.68,0.73l3.98,9.96l3.98-9.96c0.16-0.36,0.39-0.61,0.68-0.73
			c0.29-0.13,0.69-0.19,1.19-0.19h3.91c0.77,0,1.31,0.15,1.62,0.46s0.46,0.79,0.46,1.45v19.28c0,0.66-0.15,1.15-0.46,1.46
			s-0.83,0.48-1.58,0.48h-3.26c-0.75,0-1.28-0.16-1.6-0.48c-0.32-0.32-0.48-0.8-0.48-1.46v-9.28l-2.01,4.62
			c-0.27,0.66-0.57,1.13-0.88,1.41s-0.84,0.42-1.56,0.42c-0.73,0-1.25-0.14-1.56-0.42c-0.32-0.28-0.61-0.75-0.88-1.41l-2.01-4.62
			v9.28c0,0.66-0.15,1.15-0.46,1.46c-0.31,0.32-0.84,0.48-1.61,0.48h-3.26C213.32,449.55,212.8,449.39,212.49,449.08z"/>
		<path d="M236.55,448.84c0-0.2,0.06-0.45,0.17-0.75l8.47-20.37c0.2-0.48,0.44-0.81,0.7-1c0.26-0.19,0.63-0.29,1.11-0.29h3.71
			c0.48,0,0.84,0.1,1.1,0.29c0.26,0.19,0.49,0.53,0.7,1l8.43,20.37c0.11,0.29,0.17,0.54,0.17,0.75c0,0.48-0.25,0.71-0.75,0.71h-6.39
			c-0.7,0-1.15-0.31-1.33-0.92l-0.82-2.52h-6.02l-0.78,2.52c-0.18,0.61-0.62,0.92-1.33,0.92h-6.39
			C236.8,449.55,236.55,449.31,236.55,448.84z M250.15,440.75l-1.33-4.22l-1.33,4.22H250.15z"/>
		<path d="M263.25,449.08c-0.31-0.32-0.46-0.8-0.46-1.46v-19.24c0-0.66,0.15-1.14,0.46-1.46s0.83-0.48,1.58-0.48h7.82
			c8,0,12,3.85,12,11.56c0,3.81-1.03,6.69-3.08,8.64c-2.05,1.95-5.03,2.92-8.93,2.92h-7.82
			C264.09,449.55,263.56,449.39,263.25,449.08z M272.96,443.77c1.27,0,2.18-0.42,2.74-1.26c0.56-0.84,0.83-2.35,0.83-4.52
			c0-2.18-0.28-3.68-0.83-4.52c-0.56-0.84-1.47-1.26-2.74-1.26h-2.01v11.56H272.96z"/>
		<path d="M284.15,448.84c0-0.2,0.06-0.45,0.17-0.75l8.47-20.37c0.2-0.48,0.44-0.81,0.7-1c0.26-0.19,0.63-0.29,1.11-0.29h3.71
			c0.48,0,0.84,0.1,1.1,0.29c0.26,0.19,0.49,0.53,0.7,1l8.43,20.37c0.11,0.29,0.17,0.54,0.17,0.75c0,0.48-0.25,0.71-0.75,0.71h-6.39
			c-0.7,0-1.15-0.31-1.33-0.92l-0.82-2.52h-6.02l-0.78,2.52c-0.18,0.61-0.62,0.92-1.33,0.92h-6.39
			C284.4,449.55,284.15,449.31,284.15,448.84z M297.75,440.75l-1.33-4.22l-1.33,4.22H297.75z"/>
		<path d="M313.18,449.42c-1.77-0.43-3.2-1.03-4.28-1.8c-0.45-0.32-0.68-0.62-0.68-0.92c0-0.2,0.08-0.42,0.24-0.65l1.97-3.09
			c0.2-0.29,0.41-0.44,0.61-0.44c0.18,0,0.4,0.08,0.65,0.24c0.82,0.5,1.75,0.89,2.8,1.17c1.05,0.28,2.08,0.42,3.08,0.42
			c0.84,0,1.44-0.11,1.82-0.34s0.56-0.58,0.56-1.05c0-0.52-0.25-0.94-0.75-1.26s-1.36-0.71-2.58-1.19
			c-2.29-0.88-4.09-1.89-5.41-3.01c-1.31-1.12-1.97-2.61-1.97-4.47c0-2.36,0.82-4.13,2.46-5.32c1.64-1.19,3.86-1.79,6.65-1.79
			c1.95,0,3.61,0.17,4.98,0.51c1.37,0.34,2.57,0.87,3.59,1.6c0.45,0.32,0.68,0.62,0.68,0.92c0,0.2-0.08,0.42-0.24,0.65l-1.97,3.09
			c-0.2,0.32-0.41,0.48-0.61,0.48c-0.14,0-0.35-0.09-0.65-0.27c-0.54-0.36-1.19-0.66-1.94-0.9c-0.75-0.24-1.55-0.36-2.41-0.36
			c-0.79,0-1.39,0.11-1.8,0.34c-0.41,0.23-0.61,0.59-0.61,1.09c0,0.41,0.14,0.75,0.43,1.02c0.28,0.27,0.64,0.5,1.07,0.7
			c0.43,0.19,1.18,0.5,2.24,0.94c1.7,0.68,3.04,1.33,4.01,1.96s1.71,1.37,2.21,2.24c0.5,0.87,0.75,1.98,0.75,3.31
			c0,2.04-0.77,3.69-2.29,4.95s-3.81,1.89-6.85,1.89C316.87,450.06,314.95,449.85,313.18,449.42z"/>
		<path d="M116.71,489.88c-0.31-0.32-0.46-0.8-0.46-1.46v-19.24c0-0.66,0.15-1.14,0.46-1.46s0.83-0.48,1.58-0.48h8.13
			c3.4,0,5.88,0.67,7.43,2.02c1.55,1.35,2.33,3.38,2.33,6.1c0,1.63-0.28,3.01-0.83,4.13c-0.56,1.12-1.41,2-2.57,2.64l3.16,6.77
			c0.09,0.18,0.14,0.39,0.14,0.61c0,0.25-0.09,0.45-0.26,0.61c-0.17,0.16-0.39,0.24-0.66,0.24h-5.75c-0.36,0-0.65-0.05-0.87-0.15
			c-0.22-0.1-0.37-0.28-0.46-0.53l-2.52-6.32h-1.16v5.07c0,0.66-0.15,1.15-0.46,1.46c-0.31,0.32-0.84,0.48-1.62,0.48h-4.05
			C117.55,490.35,117.02,490.19,116.71,489.88z M125.71,477.67c0.73,0,1.3-0.19,1.72-0.58s0.63-0.96,0.63-1.73
			c0-0.79-0.21-1.38-0.63-1.77s-0.99-0.58-1.72-0.58h-2.31v4.66H125.71z"/>
		<path d="M138.34,489.88c-0.31-0.32-0.46-0.8-0.46-1.46v-19.24c0-0.66,0.15-1.14,0.46-1.46s0.83-0.48,1.58-0.48H154
			c0.73,0,1.22,0.15,1.48,0.46c0.26,0.31,0.39,0.8,0.39,1.48v1.9c0,0.68-0.13,1.17-0.39,1.48c-0.26,0.31-0.75,0.46-1.48,0.46h-7.96
			v2.92h4.9c0.73,0,1.22,0.15,1.48,0.46c0.26,0.31,0.39,0.8,0.39,1.48v1.84c0,0.68-0.13,1.17-0.39,1.48
			c-0.26,0.31-0.75,0.46-1.48,0.46h-4.9v2.92h7.92c0.73,0,1.22,0.15,1.48,0.46c0.26,0.31,0.39,0.8,0.39,1.48v1.9
			c0,0.68-0.13,1.17-0.39,1.48c-0.26,0.31-0.75,0.46-1.48,0.46h-14.04C139.17,490.35,138.64,490.19,138.34,489.88z"/>
		<path d="M158.62,487.82c-2.29-2.03-3.43-5.04-3.43-9.03c0-4.01,1.11-7.03,3.32-9.04s5.37-3.03,9.47-3.03
			c1.86,0,3.51,0.18,4.96,0.54s2.66,0.87,3.64,1.53c0.27,0.2,0.41,0.43,0.41,0.68c0,0.2-0.1,0.49-0.31,0.85l-1.7,2.92
			c-0.18,0.32-0.4,0.48-0.65,0.48c-0.16,0-0.42-0.09-0.78-0.27c-0.63-0.32-1.3-0.57-1.99-0.75c-0.69-0.18-1.5-0.27-2.43-0.27
			c-1.88,0-3.32,0.54-4.32,1.63s-1.5,2.66-1.5,4.73c0,2.04,0.54,3.61,1.63,4.71s2.57,1.65,4.45,1.65c1.63,0,3.13-0.34,4.49-1.02
			c0.36-0.18,0.62-0.27,0.78-0.27c0.25,0,0.46,0.16,0.65,0.48l1.7,2.92c0.2,0.36,0.31,0.65,0.31,0.85c0,0.25-0.14,0.48-0.41,0.68
			c-0.97,0.66-2.2,1.17-3.67,1.53c-1.47,0.36-3.14,0.54-5,0.54C164.12,490.86,160.91,489.85,158.62,487.82z"/>
		<path d="M179.48,489.88c-0.31-0.32-0.46-0.8-0.46-1.46v-19.24c0-0.66,0.15-1.14,0.46-1.46s0.83-0.48,1.58-0.48h4.05
			c0.77,0,1.31,0.15,1.62,0.46c0.31,0.31,0.46,0.8,0.46,1.48v19.24c0,0.66-0.15,1.15-0.46,1.46c-0.31,0.32-0.84,0.48-1.62,0.48
			h-4.05C180.31,490.35,179.78,490.19,179.48,489.88z"/>
		<path d="M190.02,489.88c-0.31-0.32-0.46-0.8-0.46-1.46v-19.24c0-0.66,0.15-1.14,0.46-1.46s0.83-0.48,1.58-0.48h10.3
			c2.77,0,4.8,0.59,6.1,1.77s1.96,2.86,1.96,5.03c0,1.02-0.22,1.92-0.66,2.7c-0.44,0.78-1.03,1.33-1.75,1.65
			c2.02,0.68,3.03,2.27,3.03,4.76c0,2.13-0.75,3.87-2.26,5.2c-1.51,1.34-3.72,2.01-6.65,2.01H191.6
			C190.85,490.35,190.32,490.19,190.02,489.88z M200.27,475.97c1.04,0,1.56-0.5,1.56-1.5c0-1-0.52-1.5-1.56-1.5h-2.58v2.99H200.27z
			 M200.85,484.61c0.48,0,0.86-0.15,1.16-0.46s0.44-0.72,0.44-1.24c0-0.54-0.14-0.96-0.43-1.26c-0.28-0.29-0.67-0.44-1.17-0.44
			h-3.16v3.4H200.85z"/>
		<path d="M212.73,489.88c-0.31-0.32-0.46-0.8-0.46-1.46v-19.24c0-0.66,0.15-1.14,0.46-1.46s0.83-0.48,1.58-0.48h4.05
			c0.77,0,1.31,0.15,1.62,0.46c0.31,0.31,0.46,0.8,0.46,1.48v19.24c0,0.66-0.15,1.15-0.46,1.46c-0.31,0.32-0.84,0.48-1.62,0.48
			h-4.05C213.56,490.35,213.04,490.19,212.73,489.88z"/>
		<path d="M223.27,489.88c-0.31-0.32-0.46-0.8-0.46-1.46v-19.24c0-0.66,0.15-1.14,0.46-1.46s0.83-0.48,1.58-0.48h7.82
			c8,0,12,3.85,12,11.56c0,3.81-1.03,6.69-3.08,8.64c-2.05,1.95-5.03,2.92-8.93,2.92h-7.82
			C224.1,490.35,223.58,490.19,223.27,489.88z M232.98,484.57c1.27,0,2.18-0.42,2.74-1.26c0.56-0.84,0.83-2.35,0.83-4.52
			c0-2.18-0.28-3.68-0.83-4.52c-0.56-0.84-1.47-1.26-2.74-1.26h-2.01v11.56H232.98z"/>
		<path d="M244.16,489.64c0-0.2,0.06-0.45,0.17-0.75l8.47-20.37c0.2-0.48,0.44-0.81,0.7-1c0.26-0.19,0.63-0.29,1.11-0.29h3.71
			c0.48,0,0.84,0.1,1.1,0.29c0.26,0.19,0.49,0.53,0.7,1l8.43,20.37c0.11,0.29,0.17,0.54,0.17,0.75c0,0.48-0.25,0.71-0.75,0.71h-6.39
			c-0.7,0-1.15-0.31-1.33-0.92l-0.82-2.52h-6.02l-0.78,2.52c-0.18,0.61-0.62,0.92-1.33,0.92h-6.39
			C244.41,490.35,244.16,490.11,244.16,489.64z M257.76,481.55l-1.33-4.22l-1.33,4.22H257.76z"/>
		<path d="M273.2,490.22c-1.77-0.43-3.2-1.03-4.28-1.8c-0.45-0.32-0.68-0.62-0.68-0.92c0-0.2,0.08-0.42,0.24-0.65l1.97-3.09
			c0.2-0.29,0.41-0.44,0.61-0.44c0.18,0,0.4,0.08,0.65,0.24c0.82,0.5,1.75,0.89,2.8,1.17c1.05,0.28,2.08,0.42,3.08,0.42
			c0.84,0,1.44-0.11,1.82-0.34s0.56-0.58,0.56-1.05c0-0.52-0.25-0.94-0.75-1.26s-1.36-0.71-2.58-1.19
			c-2.29-0.88-4.09-1.89-5.41-3.01c-1.31-1.12-1.97-2.61-1.97-4.47c0-2.36,0.82-4.13,2.46-5.32c1.64-1.19,3.86-1.79,6.65-1.79
			c1.95,0,3.61,0.17,4.98,0.51c1.37,0.34,2.57,0.87,3.59,1.6c0.45,0.32,0.68,0.62,0.68,0.92c0,0.2-0.08,0.42-0.24,0.65l-1.97,3.09
			c-0.2,0.32-0.41,0.48-0.61,0.48c-0.14,0-0.35-0.09-0.65-0.27c-0.54-0.36-1.19-0.66-1.94-0.9c-0.75-0.24-1.55-0.36-2.41-0.36
			c-0.79,0-1.39,0.11-1.8,0.34c-0.41,0.23-0.61,0.59-0.61,1.09c0,0.41,0.14,0.75,0.43,1.02c0.28,0.27,0.64,0.5,1.07,0.7
			c0.43,0.19,1.18,0.5,2.24,0.94c1.7,0.68,3.04,1.33,4.01,1.96s1.71,1.37,2.21,2.24c0.5,0.87,0.75,1.98,0.75,3.31
			c0,2.04-0.77,3.69-2.29,4.95s-3.81,1.89-6.85,1.89C276.88,490.86,274.97,490.65,273.2,490.22z"/>
	</g>
	<rect x="138" y="105" class="st7" width="123" height="164"/>
	<g>
		<rect x="138.73" y="106.6" class="st1" width="123.27" height="155.98"/>
		<g>
			<g>
				<rect x="146.48" y="148.8" class="st18" width="82.9" height="16.4"/>
				<rect x="146.48" y="176.05" class="st18" width="82.9" height="16.4"/>
				<rect x="146.48" y="203.31" class="st18" width="82.9" height="16.4"/>
				<rect x="146.48" y="230.57" class="st18" width="82.9" height="16.4"/>
			</g>
			<g>
				<rect x="237.75" y="148.8" class="st18" width="16.5" height="16.4"/>
				<rect x="237.75" y="176.05" class="st18" width="16.5" height="16.4"/>
				<rect x="237.75" y="203.31" class="st18" width="16.5" height="16.4"/>
				<rect x="237.75" y="230.57" class="st33" width="16.5" height="16.4"/>
			</g>
		</g>
		<g>
			<g>
				<path class="st5" d="M154.16,129.98c-0.16-0.17-0.25-0.43-0.25-0.78v-10.3c0-0.35,0.08-0.61,0.25-0.78
					c0.16-0.17,0.45-0.25,0.85-0.25h4.35c1.82,0,3.15,0.36,3.98,1.08c0.83,0.72,1.25,1.81,1.25,3.27c0,0.87-0.15,1.61-0.45,2.21
					c-0.3,0.6-0.76,1.07-1.37,1.41l1.69,3.62c0.05,0.1,0.07,0.21,0.07,0.33c0,0.13-0.05,0.24-0.14,0.33
					c-0.09,0.09-0.21,0.13-0.35,0.13h-3.08c-0.19,0-0.35-0.03-0.46-0.08c-0.12-0.05-0.2-0.15-0.25-0.28l-1.35-3.39h-0.62v2.71
					c0,0.35-0.08,0.61-0.25,0.78c-0.16,0.17-0.45,0.25-0.86,0.25h-2.17C154.61,130.23,154.32,130.15,154.16,129.98z M158.98,123.44
					c0.39,0,0.69-0.1,0.92-0.31s0.34-0.52,0.34-0.93c0-0.42-0.11-0.74-0.34-0.95c-0.22-0.21-0.53-0.31-0.92-0.31h-1.24v2.49H158.98z
					"/>
				<path class="st5" d="M165.74,129.98c-0.16-0.17-0.25-0.43-0.25-0.78v-10.3c0-0.35,0.08-0.61,0.25-0.78
					c0.16-0.17,0.45-0.25,0.85-0.25h7.54c0.39,0,0.65,0.08,0.79,0.25s0.21,0.43,0.21,0.79v1.02c0,0.36-0.07,0.63-0.21,0.79
					s-0.4,0.25-0.79,0.25h-4.26v1.57h2.62c0.39,0,0.65,0.08,0.79,0.25s0.21,0.43,0.21,0.79v0.98c0,0.36-0.07,0.63-0.21,0.79
					c-0.14,0.16-0.4,0.25-0.79,0.25h-2.62v1.57h4.24c0.39,0,0.65,0.08,0.79,0.25s0.21,0.43,0.21,0.79v1.02
					c0,0.36-0.07,0.63-0.21,0.79c-0.14,0.16-0.4,0.25-0.79,0.25h-7.52C166.18,130.23,165.9,130.15,165.74,129.98z"/>
				<path class="st5" d="M176.19,129.98c-0.16-0.17-0.25-0.43-0.25-0.78v-10.3c0-0.35,0.08-0.61,0.25-0.78
					c0.16-0.17,0.45-0.25,0.85-0.25h4.35c1.82,0,3.15,0.36,3.98,1.08c0.83,0.72,1.25,1.81,1.25,3.27c0,1.46-0.42,2.54-1.25,3.26
					c-0.83,0.72-2.15,1.07-3.96,1.07h-1.09v2.66c0,0.35-0.08,0.61-0.25,0.78c-0.16,0.17-0.45,0.25-0.86,0.25h-2.17
					C176.64,130.23,176.35,130.15,176.19,129.98z M181,123.44c0.39,0,0.69-0.1,0.92-0.31s0.34-0.52,0.34-0.93
					c0-0.42-0.11-0.74-0.34-0.95c-0.22-0.21-0.53-0.31-0.92-0.31h-1.24v2.49H181z"/>
				<path class="st5" d="M188.01,128.82c-1.12-1.12-1.68-2.72-1.68-4.78s0.56-3.66,1.68-4.78c1.12-1.12,2.75-1.68,4.92-1.68
					s3.8,0.56,4.92,1.68c1.12,1.12,1.68,2.72,1.68,4.78s-0.56,3.66-1.68,4.78c-1.12,1.12-2.76,1.68-4.92,1.68
					S189.13,129.95,188.01,128.82z M194.64,126.6c0.35-0.56,0.53-1.42,0.53-2.56c0-1.15-0.18-2.01-0.53-2.57
					c-0.35-0.56-0.92-0.84-1.71-0.84s-1.36,0.28-1.71,0.84c-0.35,0.56-0.53,1.41-0.53,2.57c0,1.14,0.18,1.99,0.53,2.56
					s0.92,0.85,1.71,0.85S194.29,127.17,194.64,126.6z"/>
				<path class="st5" d="M200.68,129.98c-0.16-0.17-0.25-0.43-0.25-0.78v-10.3c0-0.35,0.08-0.61,0.25-0.78
					c0.16-0.17,0.45-0.25,0.85-0.25h4.35c1.82,0,3.15,0.36,3.98,1.08c0.83,0.72,1.25,1.81,1.25,3.27c0,0.87-0.15,1.61-0.45,2.21
					c-0.3,0.6-0.76,1.07-1.37,1.41l1.69,3.62c0.05,0.1,0.07,0.21,0.07,0.33c0,0.13-0.05,0.24-0.14,0.33
					c-0.09,0.09-0.21,0.13-0.35,0.13h-3.08c-0.19,0-0.35-0.03-0.46-0.08c-0.12-0.05-0.2-0.15-0.25-0.28l-1.35-3.39h-0.62v2.71
					c0,0.35-0.08,0.61-0.25,0.78c-0.16,0.17-0.45,0.25-0.86,0.25h-2.17C201.12,130.23,200.84,130.15,200.68,129.98z M205.49,123.44
					c0.39,0,0.69-0.1,0.92-0.31s0.34-0.52,0.34-0.93c0-0.42-0.11-0.74-0.34-0.95c-0.22-0.21-0.53-0.31-0.92-0.31h-1.24v2.49H205.49z
					"/>
				<path class="st5" d="M214.51,129.98c-0.16-0.17-0.25-0.43-0.25-0.78v-8.25h-2.62c-0.39,0-0.65-0.08-0.79-0.25
					c-0.14-0.16-0.21-0.43-0.21-0.79v-1.02c0-0.36,0.07-0.63,0.21-0.79c0.14-0.16,0.4-0.25,0.79-0.25h9.61
					c0.39,0,0.65,0.08,0.79,0.25s0.21,0.43,0.21,0.79v1.02c0,0.36-0.07,0.63-0.21,0.79s-0.4,0.25-0.79,0.25h-2.62v8.25
					c0,0.35-0.08,0.61-0.25,0.78c-0.16,0.17-0.45,0.25-0.86,0.25h-2.17C214.96,130.23,214.68,130.15,214.51,129.98z"/>
				<path class="st5" d="M223.05,129.98c-0.16-0.17-0.25-0.43-0.25-0.78v-10.3c0-0.35,0.08-0.61,0.25-0.78
					c0.16-0.17,0.45-0.25,0.85-0.25h7.54c0.39,0,0.65,0.08,0.79,0.25s0.21,0.43,0.21,0.79v1.02c0,0.36-0.07,0.63-0.21,0.79
					s-0.4,0.25-0.79,0.25h-4.26v1.57h2.62c0.39,0,0.65,0.08,0.79,0.25s0.21,0.43,0.21,0.79v0.98c0,0.36-0.07,0.63-0.21,0.79
					c-0.14,0.16-0.4,0.25-0.79,0.25h-2.62v1.57h4.24c0.39,0,0.65,0.08,0.79,0.25s0.21,0.43,0.21,0.79v1.02
					c0,0.36-0.07,0.63-0.21,0.79c-0.14,0.16-0.4,0.25-0.79,0.25h-7.52C223.5,130.23,223.22,130.15,223.05,129.98z"/>
			</g>
		</g>
	</g>
</g>
</svg>
