<?xml version="1.0" encoding="utf-8"?>
<!-- Generator: Adobe Illustrator 23.0.0, SVG Export Plug-In . SVG Version: 6.00 Build 0)  -->
<svg version="1.1" id="Capa_1" xmlns="http://www.w3.org/2000/svg" xmlns:xlink="http://www.w3.org/1999/xlink" x="0px" y="0px"
	 viewBox="0 0 400 702" style="enable-background:new 0 0 400 702;" xml:space="preserve">
<style type="text/css">
	.st0{fill:#0085B0;}
	.st1{fill:#E0EF18;}
	.st2{fill:#CECECE;}
	.st3{fill:#FFFFFF;}
	.st4{fill:#F2F2F2;}
	.st5{fill:#EACCB0;}
	.st6{fill:#9B9B9B;}
	.st7{fill:#939393;}
	.st8{fill:#EFEFEF;}
	.st9{fill:#828282;}
	.st10{fill:#2C2A2D;}
	.st11{fill:#202021;}
	.st12{fill:#F2D4B6;}
	.st13{fill:#534D46;}
	.st14{fill:#E8D313;}
	.st15{fill:#2ACCFF;}
	.st16{fill:#4E4F4F;}
	.st17{fill:#003A94;}
	.st18{fill:#00D13C;}
	.st19{fill:#15682A;}
	.st20{fill:#D40000;}
	.st21{fill:#505050;}
	.st22{fill:#DFDFDF;}
	.st23{fill:none;}
	.st24{fill:#636363;}
	.st25{fill:#6C92D5;}
	.st26{fill:#22272F;}
	.st27{fill:#1B2538;}
	.st28{fill:#253452;}
	.st29{fill:#F9F9F9;}
	.st30{fill:#2D3543;}
	.st31{fill:#2A3D60;}
	.st32{fill:#587955;}
	.st33{fill:#CD7054;}
	.st34{fill:#F1CC4B;}
	.st35{fill:#ACACAC;}
	.st36{fill:#AAE528;}
	.st37{fill:#28CEBA;}
	.st38{fill:#DB143F;}
	.st39{fill:#53C2C9;}
	.st40{fill:#FFB412;}
	.st41{fill:#866A5E;}
	.st42{fill:#F7DDCB;}
	.st43{fill:#FFE6D4;}
	.st44{fill:#F5F5F5;}
	.st45{fill:#1A2830;}
	.st46{fill:#24353F;}
	.st47{fill:#132026;}
	.st48{fill:#F9FF03;}
	.st49{fill:#272728;}
	.st50{fill:#1E1D1E;}
	.st51{fill:#160423;}
	.st52{fill-rule:evenodd;clip-rule:evenodd;fill:#FFFFFF;}
	.st53{fill-rule:evenodd;clip-rule:evenodd;fill:#1996B8;}
	.st54{fill:#0C387D;}
	.st55{fill:#C69A81;}
	.st56{fill:#D1A385;}
	.st57{fill:#EAEAEA;}
	.st58{fill:#093E8C;}
	.st59{fill:#0B2A62;}
	.st60{fill:#D32A3B;}
	.st61{fill:#827C7D;}
	.st62{opacity:0.7;fill:#7F7F7F;}
	.st63{fill:#FDFDFD;}
	.st64{fill:#DAA449;}
	.st65{fill:#DD9225;}
	.st66{opacity:0.3;}
	.st67{fill:#425793;}
	.st68{opacity:0.8;}
	.st69{filter:url(#Adobe_OpacityMaskFilter);}
	.st70{opacity:0.15;mask:url(#SVGID_1_);}
	.st71{fill:#090B00;}
	.st72{opacity:0.1;}
	.st73{fill:#211915;}
	.st74{filter:url(#Adobe_OpacityMaskFilter_1_);}
	.st75{opacity:0.15;mask:url(#SVGID_2_);}
	.st76{fill:#AF3623;}
	.st77{filter:url(#Adobe_OpacityMaskFilter_2_);}
	.st78{opacity:0.15;mask:url(#SVGID_3_);}
	.st79{filter:url(#Adobe_OpacityMaskFilter_3_);}
	.st80{opacity:0.15;mask:url(#SVGID_4_);}
	.st81{fill:#456495;}
	.st82{filter:url(#Adobe_OpacityMaskFilter_4_);}
	.st83{opacity:0.15;mask:url(#SVGID_5_);}
	.st84{filter:url(#Adobe_OpacityMaskFilter_5_);}
	.st85{opacity:0.15;mask:url(#SVGID_6_);}
	.st86{fill:#76A9DA;}
	.st87{filter:url(#Adobe_OpacityMaskFilter_6_);}
	.st88{opacity:0.15;mask:url(#SVGID_7_);}
	.st89{filter:url(#Adobe_OpacityMaskFilter_7_);}
	.st90{opacity:0.15;mask:url(#SVGID_8_);}
	.st91{fill:#1F3642;}
	.st92{fill:#A9BDDA;}
	.st93{opacity:0.46;fill:#A6B4BC;}
	.st94{fill:#74C475;}
	.st95{fill:#221F21;}
	.st96{fill:#2D2D2D;}
	.st97{fill:#1C1B1A;}
	.st98{fill:#77181C;}
	.st99{fill:#262525;}
	.st100{fill:#11100F;}
	.st101{opacity:0.18;}
	.st102{opacity:0.38;}
	.st103{fill:#0A5B1F;}
	.st104{opacity:0.27;}
	.st105{opacity:0.48;}
	.st106{fill:#0A4654;}
	.st107{fill:#C2C6C6;}
	.st108{fill:#E5E5E5;stroke:#FFFFFF;stroke-miterlimit:10;}
	.st109{fill:#ACB4B5;}
	.st110{fill:#7F8384;}
	.st111{fill:#15772F;}
	.st112{fill:#F4F4F4;}
	.st113{fill:#53B8DB;}
	.st114{fill:#06EF42;}
	.st115{fill:#E7ED07;}
	.st116{fill:#CCCCCA;}
	.st117{fill:#EADF13;}
	.st118{fill:#C2C2C2;}
	.st119{fill:#85B681;}
	.st120{fill:#A1DC9B;}
	.st121{fill:#90C58B;}
	.st122{fill:#22241F;}
	.st123{opacity:0.5;}
	.st124{fill:#A2CADE;}
	.st125{fill:#E9E9E9;}
	.st126{fill:#D9D9D9;}
	.st127{fill:#CDCDCD;}
	.st128{opacity:0.34;fill:#F0F0F0;}
	.st129{fill:#5A5B5A;}
	.st130{fill:#FFE600;}
	.st131{fill:#DB1F59;}
	.st132{fill:#727272;}
	.st133{fill:#207235;}
	.st134{fill:#A3A3A3;}
	.st135{fill:#BCBCBC;}
	.st136{fill:#0A511C;}
	.st137{fill:#F9FF00;}
	.st138{fill:#D59F6D;}
	.st139{fill:#C0804A;}
	.st140{fill:#E6BA8A;}
	.st141{fill:#BE3ACC;}
	.st142{fill:#FFFFFF;stroke:#443F0C;stroke-width:9;stroke-miterlimit:10;}
	.st143{fill:none;stroke:#443F0C;stroke-width:9;stroke-miterlimit:10;}
	.st144{fill:#170623;}
	.st145{fill:#158231;}
	.st146{fill:#C89D76;}
	.st147{opacity:0.4;}
	.st148{fill:#ADADAD;}
	.st149{fill:#EDC3A6;}
	.st150{opacity:0.69;}
	.st151{fill:#E5D3D6;}
	.st152{opacity:0.44;}
	.st153{fill:#A5A5A5;}
	.st154{fill:#DDE5E4;}
	.st155{fill:#5C9169;}
	.st156{fill:#934215;}
	.st157{fill:#47413B;}
	.st158{fill:#601A1F;}
	.st159{fill:#044554;}
	.st160{opacity:0.7;}
	.st161{fill:#7F7F7F;}
	.st162{fill:#6B8A69;}
	.st163{opacity:0.24;fill:#848D90;}
	.st164{opacity:0.4;fill:#848D90;}
	.st165{fill:#F2D5D5;}
	.st166{fill:#485CC1;}
	.st167{fill:#C6CBE0;}
	.st168{fill:#8B909E;}
	.st169{fill:#53BC1B;}
	.st170{fill:#11565B;}
	.st171{fill:#67A06D;}
	.st172{fill:#FFEC00;}
	.st173{fill:#77A007;}
	.st174{fill:#E50731;}
	.st175{fill:#266472;}
	.st176{fill:#D4D4D4;}
	.st177{fill:#0E9932;}
	.st178{fill:#87DD24;}
	.st179{fill:#76A172;}
	.st180{fill:#62835F;}
	.st181{fill:#96D090;}
	.st182{fill:#D6D6D6;}
	.st183{fill:#606060;}
	.st184{fill:#494949;}
	.st185{fill:#29E55A;}
	.st186{fill:#2C703D;}
	.st187{fill:#DD0744;}
	.st188{fill:#EDEDED;}
	.st189{fill:#2A5936;}
	.st190{fill:#B9BBC1;}
	.st191{fill:#FFD79E;}
	.st192{fill:#FFE6C2;}
	.st193{fill:#2CBB55;}
	.st194{fill:#5C412D;}
	.st195{fill:#EC0000;}
	.st196{fill:#DD2626;}
	.st197{fill:#EA9334;}
	.st198{fill:#FCC232;}
	.st199{fill:#F9B234;}
	.st200{fill:#F7A037;}
	.st201{fill:#E0E0E0;}
</style>
<g>
	<g>
		<path d="M89.11,370.57c-0.24-0.25-0.36-0.64-0.36-1.16v-15.28c0-0.52,0.12-0.91,0.36-1.16c0.24-0.25,0.66-0.38,1.26-0.38h3.21
			c0.61,0,1.04,0.12,1.28,0.37c0.24,0.24,0.36,0.63,0.36,1.17v15.28c0,0.52-0.12,0.91-0.36,1.16c-0.24,0.25-0.67,0.38-1.28,0.38
			h-3.21C89.77,370.95,89.35,370.83,89.11,370.57z"/>
		<path d="M97.48,370.57c-0.24-0.25-0.37-0.64-0.37-1.16V354.1c0-0.52,0.12-0.91,0.37-1.15c0.24-0.24,0.67-0.37,1.28-0.37h2.57
			c0.38,0,0.67,0.05,0.88,0.15c0.21,0.1,0.41,0.29,0.61,0.58l4.89,7.26v-6.45c0-0.52,0.12-0.91,0.37-1.16
			c0.24-0.25,0.66-0.38,1.25-0.38h3.21c0.61,0,1.04,0.12,1.28,0.37c0.24,0.24,0.37,0.63,0.37,1.17v15.31c0,0.52-0.12,0.9-0.37,1.15
			c-0.24,0.24-0.67,0.36-1.28,0.36h-2.57c-0.38,0-0.67-0.05-0.88-0.15s-0.41-0.29-0.61-0.58l-4.89-7.26v6.48
			c0,0.52-0.12,0.9-0.37,1.15c-0.24,0.24-0.67,0.36-1.28,0.36h-3.21C98.14,370.95,97.72,370.83,97.48,370.57z"/>
		<path d="M116.43,370.57c-0.24-0.25-0.37-0.64-0.37-1.16v-15.28c0-0.52,0.12-0.91,0.37-1.16c0.24-0.25,0.66-0.38,1.26-0.38h11.18
			c0.58,0,0.97,0.12,1.17,0.37c0.21,0.24,0.31,0.63,0.31,1.17v1.51c0,0.54-0.1,0.93-0.31,1.17s-0.6,0.37-1.17,0.37h-6.32v2.29h3.89
			c0.58,0,0.97,0.12,1.17,0.36s0.31,0.63,0.31,1.17v1.51c0,0.54-0.1,0.93-0.31,1.17c-0.21,0.24-0.6,0.36-1.17,0.36h-3.89v5.35
			c0,0.52-0.12,0.91-0.36,1.16s-0.67,0.38-1.28,0.38h-3.21C117.09,370.95,116.67,370.83,116.43,370.57z"/>
		<path d="M132.02,368.86c-1.66-1.66-2.48-4.03-2.48-7.09c0-3.06,0.83-5.42,2.48-7.09c1.66-1.67,4.09-2.5,7.29-2.5
			c3.2,0,5.63,0.83,7.29,2.5c1.66,1.67,2.48,4.03,2.48,7.09c0,3.06-0.83,5.42-2.48,7.09c-1.66,1.67-4.09,2.5-7.29,2.5
			C136.11,371.36,133.68,370.52,132.02,368.86z M141.85,365.57c0.52-0.84,0.78-2.1,0.78-3.79c0-1.71-0.26-2.98-0.78-3.81
			c-0.52-0.83-1.37-1.24-2.54-1.24s-2.02,0.41-2.54,1.24c-0.52,0.83-0.78,2.1-0.78,3.81c0,1.69,0.26,2.96,0.78,3.79
			s1.37,1.26,2.54,1.26S141.33,366.4,141.85,365.57z"/>
		<path d="M150.8,370.57c-0.24-0.25-0.37-0.64-0.37-1.16v-15.28c0-0.52,0.12-0.91,0.37-1.16c0.24-0.25,0.66-0.38,1.26-0.38h6.45
			c2.7,0,4.67,0.54,5.9,1.61c1.23,1.07,1.85,2.69,1.85,4.85c0,1.3-0.22,2.39-0.66,3.28c-0.44,0.89-1.12,1.59-2.04,2.09l2.51,5.37
			c0.07,0.14,0.11,0.31,0.11,0.49c0,0.2-0.07,0.36-0.2,0.49c-0.13,0.13-0.31,0.19-0.53,0.19h-4.56c-0.29,0-0.52-0.04-0.69-0.12
			c-0.17-0.08-0.29-0.22-0.37-0.42l-2-5.02h-0.92v4.02c0,0.52-0.12,0.91-0.36,1.16s-0.67,0.38-1.28,0.38h-3.21
			C151.46,370.95,151.05,370.83,150.8,370.57z M157.94,360.88c0.58,0,1.03-0.15,1.36-0.46c0.33-0.31,0.5-0.76,0.5-1.38
			c0-0.63-0.17-1.1-0.5-1.4c-0.33-0.31-0.79-0.46-1.36-0.46h-1.84v3.7H157.94z"/>
		<path d="M167.97,370.57c-0.24-0.25-0.37-0.64-0.37-1.16V354.1c0-0.52,0.12-0.91,0.37-1.15c0.24-0.24,0.67-0.37,1.28-0.37h3.11
			c0.4,0,0.71,0.05,0.95,0.15c0.23,0.1,0.41,0.29,0.54,0.58l3.16,7.91l3.16-7.91c0.13-0.29,0.31-0.48,0.54-0.58
			c0.23-0.1,0.55-0.15,0.94-0.15h3.1c0.61,0,1.04,0.12,1.28,0.37c0.24,0.24,0.36,0.63,0.36,1.15v15.31c0,0.52-0.12,0.91-0.36,1.16
			s-0.66,0.38-1.26,0.38h-2.59c-0.59,0-1.02-0.13-1.27-0.38s-0.38-0.64-0.38-1.16v-7.37l-1.59,3.67c-0.22,0.52-0.45,0.9-0.7,1.12
			c-0.25,0.22-0.67,0.34-1.24,0.34s-0.99-0.11-1.24-0.34c-0.25-0.23-0.49-0.6-0.7-1.12l-1.59-3.67v7.37c0,0.52-0.12,0.91-0.37,1.16
			c-0.24,0.25-0.67,0.38-1.28,0.38h-2.59C168.64,370.95,168.22,370.83,167.97,370.57z"/>
		<path d="M187.08,370.38c0-0.16,0.04-0.36,0.13-0.59l6.72-16.17c0.16-0.38,0.35-0.64,0.55-0.8c0.21-0.15,0.5-0.23,0.88-0.23h2.94
			c0.38,0,0.67,0.08,0.88,0.23c0.21,0.15,0.39,0.42,0.55,0.8l6.7,16.17c0.09,0.23,0.13,0.43,0.13,0.59c0,0.38-0.2,0.57-0.59,0.57
			h-5.08c-0.56,0-0.91-0.24-1.05-0.73l-0.65-2h-4.78l-0.62,2c-0.14,0.49-0.49,0.73-1.05,0.73h-5.08
			C187.27,370.95,187.08,370.76,187.08,370.38z M197.88,363.96l-1.05-3.35l-1.05,3.35H197.88z"/>
		<path d="M208.62,368.94c-1.82-1.61-2.73-4-2.73-7.17c0-3.19,0.88-5.58,2.63-7.18c1.75-1.6,4.26-2.4,7.52-2.4
			c1.48,0,2.79,0.14,3.94,0.43c1.15,0.29,2.11,0.69,2.89,1.21c0.22,0.16,0.32,0.34,0.32,0.54c0,0.16-0.08,0.39-0.24,0.67l-1.35,2.32
			c-0.14,0.25-0.31,0.38-0.51,0.38c-0.13,0-0.33-0.07-0.62-0.22c-0.5-0.25-1.03-0.45-1.58-0.59c-0.55-0.14-1.19-0.22-1.93-0.22
			c-1.49,0-2.64,0.43-3.43,1.3c-0.79,0.86-1.19,2.12-1.19,3.75c0,1.62,0.43,2.87,1.3,3.74c0.86,0.87,2.04,1.31,3.54,1.31
			c1.3,0,2.48-0.27,3.56-0.81c0.29-0.14,0.49-0.22,0.62-0.22c0.2,0,0.37,0.13,0.51,0.38l1.35,2.32c0.16,0.29,0.24,0.51,0.24,0.67
			c0,0.2-0.11,0.38-0.32,0.54c-0.77,0.52-1.75,0.93-2.92,1.21c-1.17,0.29-2.49,0.43-3.97,0.43
			C212.99,371.36,210.44,370.55,208.62,368.94z"/>
		<path d="M225.19,370.57c-0.24-0.25-0.37-0.64-0.37-1.16v-15.28c0-0.52,0.12-0.91,0.37-1.16c0.24-0.25,0.66-0.38,1.26-0.38h3.21
			c0.61,0,1.04,0.12,1.28,0.37c0.24,0.24,0.36,0.63,0.36,1.17v15.28c0,0.52-0.12,0.91-0.36,1.16s-0.67,0.38-1.28,0.38h-3.21
			C225.85,370.95,225.43,370.83,225.19,370.57z"/>
		<path d="M235.14,368.86c-1.66-1.66-2.48-4.03-2.48-7.09c0-3.06,0.83-5.42,2.48-7.09s4.09-2.5,7.29-2.5s5.63,0.83,7.29,2.5
			s2.48,4.03,2.48,7.09c0,3.06-0.83,5.42-2.48,7.09c-1.66,1.67-4.09,2.5-7.29,2.5S236.79,370.52,235.14,368.86z M244.96,365.57
			c0.52-0.84,0.78-2.1,0.78-3.79c0-1.71-0.26-2.98-0.78-3.81c-0.52-0.83-1.37-1.24-2.54-1.24c-1.17,0-2.02,0.41-2.54,1.24
			c-0.52,0.83-0.78,2.1-0.78,3.81c0,1.69,0.26,2.96,0.78,3.79c0.52,0.84,1.37,1.26,2.54,1.26
			C243.6,366.82,244.44,366.4,244.96,365.57z M239.56,350.32c0-0.14,0.03-0.3,0.08-0.46l1.13-3.13c0.14-0.41,0.31-0.69,0.51-0.84
			c0.2-0.14,0.57-0.22,1.11-0.22h3.86c0.38,0,0.67,0.07,0.89,0.2s0.32,0.33,0.32,0.58c0,0.22-0.07,0.44-0.22,0.68l-1.73,2.92
			c-0.25,0.43-0.5,0.71-0.73,0.84c-0.23,0.13-0.66,0.19-1.27,0.19h-2.89C239.92,351.08,239.56,350.83,239.56,350.32z"/>
		<path d="M253.92,370.57c-0.24-0.25-0.36-0.64-0.36-1.16V354.1c0-0.52,0.12-0.91,0.36-1.15c0.24-0.24,0.67-0.37,1.28-0.37h2.57
			c0.38,0,0.67,0.05,0.88,0.15c0.21,0.1,0.41,0.29,0.61,0.58l4.89,7.26v-6.45c0-0.52,0.12-0.91,0.36-1.16
			c0.24-0.25,0.66-0.38,1.25-0.38h3.21c0.61,0,1.04,0.12,1.28,0.37c0.24,0.24,0.36,0.63,0.36,1.17v15.31c0,0.52-0.12,0.9-0.36,1.15
			s-0.67,0.36-1.28,0.36h-2.56c-0.38,0-0.67-0.05-0.88-0.15c-0.21-0.1-0.41-0.29-0.61-0.58l-4.89-7.26v6.48
			c0,0.52-0.12,0.9-0.36,1.15s-0.67,0.36-1.28,0.36h-3.21C254.58,370.95,254.16,370.83,253.92,370.57z"/>
		<path d="M280.97,370.57c-0.24-0.25-0.37-0.64-0.37-1.16v-15.28c0-0.52,0.12-0.91,0.37-1.16c0.24-0.25,0.66-0.38,1.26-0.38h6.21
			c6.35,0,9.53,3.06,9.53,9.18c0,3.02-0.81,5.31-2.44,6.86c-1.63,1.55-3.99,2.32-7.09,2.32h-6.21
			C281.63,370.95,281.21,370.83,280.97,370.57z M288.68,366.36c1.01,0,1.73-0.33,2.17-1c0.44-0.67,0.66-1.86,0.66-3.59
			c0-1.73-0.22-2.92-0.66-3.59c-0.44-0.67-1.17-1-2.17-1h-1.59v9.18H288.68z"/>
		<path d="M299.68,370.57c-0.24-0.25-0.37-0.64-0.37-1.16v-15.28c0-0.52,0.12-0.91,0.37-1.16c0.24-0.25,0.66-0.38,1.26-0.38h11.18
			c0.58,0,0.97,0.12,1.17,0.37c0.21,0.24,0.31,0.63,0.31,1.17v1.51c0,0.54-0.1,0.93-0.31,1.17s-0.6,0.37-1.17,0.37h-6.32v2.32h3.89
			c0.58,0,0.97,0.12,1.17,0.36c0.21,0.24,0.31,0.63,0.31,1.17v1.46c0,0.54-0.1,0.93-0.31,1.17s-0.6,0.36-1.17,0.36h-3.89v2.32h6.29
			c0.58,0,0.97,0.12,1.17,0.36c0.21,0.24,0.31,0.63,0.31,1.17v1.51c0,0.54-0.1,0.93-0.31,1.17c-0.21,0.24-0.6,0.36-1.17,0.36h-11.15
			C300.34,370.95,299.92,370.83,299.68,370.57z"/>
		<path d="M100.34,403.24c-1.4-0.34-2.54-0.82-3.4-1.43c-0.36-0.25-0.54-0.5-0.54-0.73c0-0.16,0.06-0.33,0.19-0.51l1.57-2.46
			c0.16-0.23,0.32-0.35,0.49-0.35c0.14,0,0.32,0.06,0.51,0.19c0.65,0.4,1.39,0.71,2.23,0.93c0.84,0.23,1.65,0.34,2.44,0.34
			c0.67,0,1.15-0.09,1.44-0.27c0.3-0.18,0.45-0.46,0.45-0.84c0-0.41-0.2-0.75-0.59-1c-0.4-0.25-1.08-0.57-2.05-0.94
			c-1.82-0.7-3.25-1.5-4.29-2.39c-1.04-0.89-1.57-2.07-1.57-3.55c0-1.87,0.65-3.28,1.96-4.23c1.3-0.95,3.06-1.42,5.28-1.42
			c1.55,0,2.87,0.13,3.96,0.4c1.09,0.27,2.04,0.69,2.85,1.27c0.36,0.25,0.54,0.5,0.54,0.73c0,0.16-0.06,0.33-0.19,0.51l-1.57,2.46
			c-0.16,0.25-0.32,0.38-0.49,0.38c-0.11,0-0.28-0.07-0.51-0.22c-0.43-0.29-0.94-0.53-1.54-0.71c-0.59-0.19-1.23-0.28-1.92-0.28
			c-0.63,0-1.11,0.09-1.43,0.27c-0.32,0.18-0.49,0.47-0.49,0.86c0,0.32,0.11,0.59,0.34,0.81c0.22,0.22,0.51,0.4,0.85,0.55
			c0.34,0.15,0.94,0.4,1.78,0.74c1.35,0.54,2.41,1.06,3.19,1.55c0.77,0.5,1.36,1.09,1.75,1.78s0.59,1.57,0.59,2.63
			c0,1.62-0.61,2.93-1.82,3.93s-3.03,1.5-5.44,1.5C103.27,403.76,101.74,403.59,100.34,403.24z"/>
		<path d="M117.59,402.91c-1.33-0.57-2.37-1.39-3.11-2.46s-1.11-2.34-1.11-3.82v-10.1c0-0.52,0.12-0.91,0.37-1.16
			c0.24-0.25,0.66-0.38,1.26-0.38h3.21c0.61,0,1.04,0.12,1.28,0.37c0.24,0.24,0.37,0.63,0.37,1.17v10.18c0,0.85,0.21,1.48,0.63,1.89
			c0.42,0.41,1,0.62,1.74,0.62c0.74,0,1.32-0.21,1.74-0.62s0.63-1.04,0.63-1.89v-10.18c0-0.52,0.12-0.91,0.37-1.16
			c0.24-0.25,0.66-0.38,1.25-0.38h3.21c0.61,0,1.04,0.12,1.28,0.37c0.24,0.24,0.37,0.63,0.37,1.17v10.1c0,1.48-0.37,2.75-1.11,3.82
			s-1.77,1.89-3.11,2.46c-1.33,0.57-2.88,0.85-4.64,0.85C120.47,403.76,118.93,403.47,117.59,402.91z"/>
		<path d="M135.04,401.34c-1.82-1.61-2.73-4-2.73-7.17c0-3.19,0.88-5.58,2.63-7.18c1.75-1.6,4.26-2.4,7.52-2.4
			c1.48,0,2.79,0.14,3.94,0.43c1.15,0.29,2.11,0.69,2.89,1.21c0.22,0.16,0.32,0.34,0.32,0.54c0,0.16-0.08,0.39-0.24,0.67l-1.35,2.32
			c-0.14,0.25-0.31,0.38-0.51,0.38c-0.13,0-0.33-0.07-0.62-0.22c-0.5-0.25-1.03-0.45-1.58-0.59c-0.55-0.14-1.19-0.22-1.93-0.22
			c-1.49,0-2.64,0.43-3.43,1.3c-0.79,0.86-1.19,2.12-1.19,3.75c0,1.62,0.43,2.87,1.3,3.74c0.86,0.87,2.04,1.31,3.54,1.31
			c1.3,0,2.48-0.27,3.56-0.81c0.29-0.14,0.49-0.22,0.62-0.22c0.2,0,0.37,0.13,0.51,0.38l1.35,2.32c0.16,0.29,0.24,0.51,0.24,0.67
			c0,0.2-0.11,0.38-0.32,0.54c-0.77,0.52-1.75,0.93-2.92,1.21c-1.17,0.29-2.49,0.43-3.97,0.43
			C139.4,403.76,136.85,402.95,135.04,401.34z"/>
		<path d="M155.31,402.91c-1.33-0.57-2.37-1.39-3.1-2.46c-0.74-1.07-1.11-2.34-1.11-3.82v-10.1c0-0.52,0.12-0.91,0.36-1.16
			c0.24-0.25,0.66-0.38,1.26-0.38h3.21c0.61,0,1.04,0.12,1.28,0.37c0.24,0.24,0.37,0.63,0.37,1.17v10.18c0,0.85,0.21,1.48,0.63,1.89
			s1,0.62,1.74,0.62s1.32-0.21,1.74-0.62c0.42-0.41,0.63-1.04,0.63-1.89v-10.18c0-0.52,0.12-0.91,0.36-1.16
			c0.24-0.25,0.66-0.38,1.25-0.38h3.21c0.61,0,1.04,0.12,1.28,0.37c0.24,0.24,0.36,0.63,0.36,1.17v10.1c0,1.48-0.37,2.75-1.11,3.82
			c-0.74,1.07-1.77,1.89-3.11,2.46c-1.33,0.57-2.88,0.85-4.64,0.85S156.64,403.47,155.31,402.91z"/>
		<path d="M170.93,402.97c-0.24-0.25-0.37-0.64-0.37-1.16v-15.28c0-0.52,0.12-0.91,0.37-1.16c0.24-0.25,0.66-0.38,1.25-0.38h6.45
			c2.7,0,4.67,0.54,5.9,1.61c1.23,1.07,1.85,2.69,1.85,4.85c0,1.3-0.22,2.39-0.66,3.28c-0.44,0.89-1.12,1.59-2.04,2.09l2.51,5.37
			c0.07,0.14,0.11,0.31,0.11,0.49c0,0.2-0.07,0.36-0.2,0.49c-0.13,0.13-0.31,0.19-0.53,0.19h-4.56c-0.29,0-0.52-0.04-0.69-0.12
			s-0.29-0.22-0.36-0.42l-2-5.02h-0.92v4.02c0,0.52-0.12,0.91-0.37,1.16c-0.24,0.25-0.67,0.38-1.28,0.38h-3.21
			C171.59,403.35,171.17,403.23,170.93,402.97z M178.07,393.28c0.58,0,1.03-0.15,1.36-0.46c0.33-0.31,0.5-0.76,0.5-1.38
			c0-0.63-0.17-1.1-0.5-1.4c-0.33-0.31-0.79-0.46-1.36-0.46h-1.84v3.7H178.07z"/>
		<path d="M191.17,403.24c-1.4-0.34-2.54-0.82-3.4-1.43c-0.36-0.25-0.54-0.5-0.54-0.73c0-0.16,0.06-0.33,0.19-0.51l1.57-2.46
			c0.16-0.23,0.32-0.35,0.49-0.35c0.14,0,0.32,0.06,0.51,0.19c0.65,0.4,1.39,0.71,2.23,0.93c0.84,0.23,1.65,0.34,2.44,0.34
			c0.67,0,1.15-0.09,1.44-0.27c0.3-0.18,0.45-0.46,0.45-0.84c0-0.41-0.2-0.75-0.59-1c-0.4-0.25-1.08-0.57-2.05-0.94
			c-1.82-0.7-3.25-1.5-4.29-2.39c-1.04-0.89-1.57-2.07-1.57-3.55c0-1.87,0.65-3.28,1.96-4.23s3.06-1.42,5.28-1.42
			c1.55,0,2.87,0.13,3.96,0.4c1.09,0.27,2.04,0.69,2.85,1.27c0.36,0.25,0.54,0.5,0.54,0.73c0,0.16-0.06,0.33-0.19,0.51l-1.57,2.46
			c-0.16,0.25-0.32,0.38-0.49,0.38c-0.11,0-0.28-0.07-0.51-0.22c-0.43-0.29-0.95-0.53-1.54-0.71c-0.59-0.19-1.23-0.28-1.92-0.28
			c-0.63,0-1.11,0.09-1.43,0.27c-0.32,0.18-0.49,0.47-0.49,0.86c0,0.32,0.11,0.59,0.34,0.81c0.22,0.22,0.51,0.4,0.85,0.55
			c0.34,0.15,0.94,0.4,1.78,0.74c1.35,0.54,2.41,1.06,3.19,1.55c0.77,0.5,1.36,1.09,1.75,1.78c0.4,0.69,0.59,1.57,0.59,2.63
			c0,1.62-0.61,2.93-1.82,3.93s-3.03,1.5-5.44,1.5C194.09,403.76,192.57,403.59,191.17,403.24z"/>
		<path d="M202.59,402.79c0-0.16,0.04-0.36,0.13-0.59l6.72-16.17c0.16-0.38,0.35-0.64,0.55-0.8c0.21-0.15,0.5-0.23,0.88-0.23h2.94
			c0.38,0,0.67,0.08,0.88,0.23c0.21,0.15,0.39,0.42,0.55,0.8l6.7,16.17c0.09,0.23,0.13,0.43,0.13,0.59c0,0.38-0.2,0.57-0.59,0.57
			h-5.08c-0.56,0-0.91-0.24-1.05-0.73l-0.65-2h-4.78l-0.62,2c-0.14,0.49-0.5,0.73-1.05,0.73h-5.08
			C202.79,403.35,202.59,403.16,202.59,402.79z M213.39,396.36l-1.05-3.35l-1.05,3.35H213.39z"/>
		<path d="M223.8,402.97c-0.24-0.25-0.37-0.64-0.37-1.16v-15.28c0-0.52,0.12-0.91,0.37-1.16c0.24-0.25,0.66-0.38,1.25-0.38h3.21
			c0.61,0,1.04,0.12,1.28,0.37c0.24,0.24,0.37,0.63,0.37,1.17v12.23h6.29c0.58,0,0.97,0.12,1.17,0.36s0.31,0.63,0.31,1.17v1.51
			c0,0.54-0.1,0.93-0.31,1.17s-0.6,0.36-1.17,0.36h-11.15C224.46,403.35,224.04,403.23,223.8,402.97z"/>
		<path d="M238.46,402.97c-0.24-0.25-0.36-0.64-0.36-1.16v-15.28c0-0.52,0.12-0.91,0.36-1.16c0.24-0.25,0.66-0.38,1.26-0.38h11.18
			c0.58,0,0.97,0.12,1.17,0.37c0.21,0.24,0.31,0.63,0.31,1.17v1.51c0,0.54-0.1,0.93-0.31,1.17c-0.21,0.24-0.6,0.37-1.17,0.37h-6.32
			v2.32h3.89c0.58,0,0.97,0.12,1.17,0.36c0.21,0.24,0.31,0.63,0.31,1.17v1.46c0,0.54-0.1,0.93-0.31,1.17s-0.6,0.36-1.17,0.36h-3.89
			v2.32h6.29c0.58,0,0.97,0.12,1.18,0.36c0.21,0.24,0.31,0.63,0.31,1.17v1.51c0,0.54-0.1,0.93-0.31,1.17
			c-0.21,0.24-0.6,0.36-1.18,0.36h-11.15C239.12,403.35,238.7,403.23,238.46,402.97z"/>
		<path d="M257.02,403.24c-1.4-0.34-2.54-0.82-3.4-1.43c-0.36-0.25-0.54-0.5-0.54-0.73c0-0.16,0.06-0.33,0.19-0.51l1.57-2.46
			c0.16-0.23,0.32-0.35,0.49-0.35c0.14,0,0.31,0.06,0.51,0.19c0.65,0.4,1.39,0.71,2.23,0.93c0.84,0.23,1.65,0.34,2.44,0.34
			c0.67,0,1.15-0.09,1.45-0.27c0.3-0.18,0.45-0.46,0.45-0.84c0-0.41-0.2-0.75-0.59-1c-0.4-0.25-1.08-0.57-2.05-0.94
			c-1.82-0.7-3.25-1.5-4.29-2.39c-1.04-0.89-1.57-2.07-1.57-3.55c0-1.87,0.65-3.28,1.96-4.23c1.3-0.95,3.06-1.42,5.28-1.42
			c1.55,0,2.87,0.13,3.96,0.4c1.09,0.27,2.04,0.69,2.85,1.27c0.36,0.25,0.54,0.5,0.54,0.73c0,0.16-0.06,0.33-0.19,0.51l-1.57,2.46
			c-0.16,0.25-0.32,0.38-0.49,0.38c-0.11,0-0.28-0.07-0.51-0.22c-0.43-0.29-0.94-0.53-1.54-0.71c-0.59-0.19-1.23-0.28-1.92-0.28
			c-0.63,0-1.11,0.09-1.43,0.27s-0.49,0.47-0.49,0.86c0,0.32,0.11,0.59,0.34,0.81s0.51,0.4,0.85,0.55c0.34,0.15,0.94,0.4,1.78,0.74
			c1.35,0.54,2.41,1.06,3.19,1.55s1.36,1.09,1.76,1.78c0.4,0.69,0.59,1.57,0.59,2.63c0,1.62-0.61,2.93-1.82,3.93s-3.03,1.5-5.44,1.5
			C259.94,403.76,258.42,403.59,257.02,403.24z"/>
		<path d="M284.6,402.97c-0.24-0.25-0.37-0.64-0.37-1.16v-4.89l-6.29-10.77c-0.11-0.2-0.16-0.39-0.16-0.57
			c0-0.4,0.21-0.59,0.62-0.59h5.08c0.27,0,0.48,0.06,0.62,0.18c0.14,0.12,0.29,0.3,0.43,0.55l2.94,5.29l2.94-5.29
			c0.14-0.25,0.29-0.44,0.43-0.55c0.14-0.12,0.35-0.18,0.62-0.18h5.08c0.41,0,0.62,0.2,0.62,0.59c0,0.18-0.05,0.37-0.16,0.57
			l-6.29,10.77v4.89c0,0.52-0.12,0.91-0.36,1.16s-0.67,0.38-1.28,0.38h-3.21C285.26,403.35,284.84,403.23,284.6,402.97z"/>
		<path d="M112.23,433.74c-1.82-1.61-2.73-4-2.73-7.17c0-3.19,0.88-5.58,2.63-7.18c1.75-1.6,4.26-2.4,7.52-2.4
			c1.48,0,2.79,0.14,3.94,0.43s2.12,0.69,2.89,1.21c0.22,0.16,0.32,0.34,0.32,0.54c0,0.16-0.08,0.39-0.24,0.67l-1.35,2.32
			c-0.14,0.25-0.32,0.38-0.51,0.38c-0.13,0-0.33-0.07-0.62-0.22c-0.5-0.25-1.03-0.45-1.58-0.59c-0.55-0.14-1.19-0.22-1.93-0.22
			c-1.49,0-2.64,0.43-3.43,1.3c-0.79,0.86-1.19,2.12-1.19,3.75c0,1.62,0.43,2.87,1.3,3.74s2.04,1.31,3.54,1.31
			c1.3,0,2.48-0.27,3.56-0.81c0.29-0.14,0.5-0.22,0.62-0.22c0.2,0,0.37,0.13,0.51,0.38l1.35,2.32c0.16,0.29,0.24,0.51,0.24,0.67
			c0,0.2-0.11,0.38-0.32,0.54c-0.78,0.52-1.75,0.93-2.92,1.21c-1.17,0.29-2.49,0.43-3.97,0.43
			C116.6,436.16,114.05,435.35,112.23,433.74z"/>
		<path d="M127.22,435.18c0-0.16,0.04-0.36,0.13-0.59l6.72-16.17c0.16-0.38,0.35-0.64,0.55-0.8c0.21-0.15,0.5-0.23,0.88-0.23h2.94
			c0.38,0,0.67,0.08,0.88,0.23c0.21,0.15,0.39,0.42,0.55,0.8l6.7,16.17c0.09,0.23,0.13,0.43,0.13,0.59c0,0.38-0.2,0.57-0.59,0.57
			h-5.08c-0.56,0-0.91-0.24-1.05-0.73l-0.65-2h-4.78l-0.62,2c-0.14,0.49-0.5,0.73-1.05,0.73h-5.08
			C127.42,435.75,127.22,435.56,127.22,435.18z M138.02,428.76l-1.05-3.35l-1.05,3.35H138.02z"/>
		<path d="M146.36,434.38c-0.22-0.16-0.32-0.34-0.32-0.54c0-0.16,0.08-0.39,0.24-0.67l1.35-2.32c0.18-0.29,0.37-0.43,0.57-0.43
			c0.13,0,0.31,0.08,0.54,0.24c0.86,0.65,1.69,0.97,2.48,0.97c1.22,0,1.84-0.58,1.84-1.75v-10.94c0-0.52,0.12-0.91,0.37-1.16
			c0.24-0.25,0.66-0.38,1.26-0.38h3.21c0.61,0,1.04,0.12,1.28,0.37c0.24,0.24,0.36,0.63,0.36,1.17v10.99c0,1.91-0.59,3.42-1.78,4.55
			c-1.19,1.13-2.9,1.69-5.13,1.69C150.07,436.16,147.98,435.56,146.36,434.38z"/>
		<path d="M161.66,435.37c-0.24-0.25-0.36-0.64-0.36-1.16v-15.28c0-0.52,0.12-0.91,0.36-1.16c0.24-0.25,0.66-0.38,1.26-0.38h11.18
			c0.58,0,0.97,0.12,1.17,0.37c0.21,0.24,0.31,0.63,0.31,1.17v1.51c0,0.54-0.1,0.93-0.31,1.17c-0.21,0.24-0.6,0.37-1.17,0.37h-6.32
			v2.32h3.89c0.58,0,0.97,0.12,1.17,0.36c0.21,0.24,0.31,0.63,0.31,1.17v1.46c0,0.54-0.1,0.93-0.31,1.17s-0.6,0.36-1.17,0.36h-3.89
			v2.32h6.29c0.58,0,0.97,0.12,1.18,0.36c0.21,0.24,0.31,0.63,0.31,1.17v1.51c0,0.54-0.1,0.93-0.31,1.17
			c-0.21,0.24-0.6,0.36-1.18,0.36h-11.15C162.32,435.75,161.9,435.63,161.66,435.37z"/>
		<path d="M177.15,435.37c-0.24-0.25-0.36-0.64-0.36-1.16v-15.28c0-0.52,0.12-0.91,0.36-1.16c0.24-0.25,0.66-0.38,1.26-0.38h6.45
			c2.7,0,4.67,0.54,5.9,1.61c1.23,1.07,1.85,2.69,1.85,4.85c0,1.3-0.22,2.39-0.66,3.28c-0.44,0.89-1.12,1.59-2.04,2.09l2.51,5.37
			c0.07,0.14,0.11,0.31,0.11,0.49c0,0.2-0.07,0.36-0.2,0.49c-0.13,0.13-0.31,0.19-0.53,0.19h-4.56c-0.29,0-0.52-0.04-0.69-0.12
			c-0.17-0.08-0.29-0.22-0.37-0.42l-2-5.02h-0.92v4.02c0,0.52-0.12,0.91-0.36,1.16c-0.24,0.25-0.67,0.38-1.28,0.38h-3.21
			C177.82,435.75,177.4,435.63,177.15,435.37z M184.3,425.68c0.58,0,1.03-0.15,1.36-0.46c0.33-0.31,0.5-0.76,0.5-1.38
			c0-0.63-0.17-1.1-0.5-1.4c-0.33-0.31-0.79-0.46-1.36-0.46h-1.84v3.7H184.3z"/>
		<path d="M195.91,433.66c-1.66-1.66-2.48-4.03-2.48-7.09c0-3.06,0.83-5.42,2.48-7.09c1.66-1.67,4.09-2.5,7.29-2.5
			c3.2,0,5.63,0.83,7.29,2.5c1.66,1.67,2.48,4.03,2.48,7.09c0,3.06-0.83,5.42-2.48,7.09c-1.66,1.67-4.09,2.5-7.29,2.5
			C199.99,436.16,197.56,435.32,195.91,433.66z M205.73,430.37c0.52-0.84,0.78-2.1,0.78-3.79c0-1.71-0.26-2.98-0.78-3.81
			c-0.52-0.83-1.37-1.24-2.54-1.24s-2.02,0.41-2.54,1.24c-0.52,0.83-0.78,2.1-0.78,3.81c0,1.69,0.26,2.96,0.78,3.79
			c0.52,0.84,1.37,1.26,2.54,1.26S205.21,431.2,205.73,430.37z"/>
		<path d="M216.53,435.64c-1.4-0.34-2.54-0.82-3.4-1.43c-0.36-0.25-0.54-0.5-0.54-0.73c0-0.16,0.06-0.33,0.19-0.51l1.57-2.46
			c0.16-0.23,0.32-0.35,0.49-0.35c0.14,0,0.32,0.06,0.51,0.19c0.65,0.4,1.39,0.71,2.23,0.93c0.84,0.23,1.65,0.34,2.44,0.34
			c0.67,0,1.15-0.09,1.44-0.27c0.3-0.18,0.45-0.46,0.45-0.84c0-0.41-0.2-0.75-0.59-1c-0.4-0.25-1.08-0.57-2.05-0.94
			c-1.82-0.7-3.25-1.5-4.29-2.39c-1.04-0.89-1.57-2.07-1.57-3.55c0-1.87,0.65-3.28,1.96-4.23c1.3-0.95,3.06-1.42,5.28-1.42
			c1.55,0,2.87,0.13,3.96,0.4c1.09,0.27,2.04,0.69,2.85,1.27c0.36,0.25,0.54,0.5,0.54,0.73c0,0.16-0.06,0.33-0.19,0.51l-1.57,2.46
			c-0.16,0.25-0.32,0.38-0.49,0.38c-0.11,0-0.28-0.07-0.51-0.22c-0.43-0.29-0.94-0.53-1.54-0.71c-0.59-0.19-1.23-0.28-1.92-0.28
			c-0.63,0-1.11,0.09-1.43,0.27c-0.32,0.18-0.49,0.47-0.49,0.86c0,0.32,0.11,0.59,0.34,0.81c0.22,0.22,0.51,0.4,0.85,0.55
			c0.34,0.15,0.94,0.4,1.78,0.74c1.35,0.54,2.41,1.06,3.19,1.55c0.77,0.5,1.36,1.09,1.75,1.78s0.59,1.57,0.59,2.63
			c0,1.62-0.61,2.93-1.82,3.93s-3.03,1.5-5.44,1.5C219.46,436.16,217.94,435.99,216.53,435.64z"/>
		<path d="M238.17,435.37c-0.24-0.25-0.37-0.64-0.37-1.16V418.9c0-0.52,0.12-0.91,0.37-1.15c0.24-0.24,0.67-0.37,1.28-0.37h3.1
			c0.4,0,0.71,0.05,0.95,0.15c0.23,0.1,0.41,0.29,0.54,0.58l3.16,7.91l3.16-7.91c0.13-0.29,0.31-0.48,0.54-0.58
			c0.23-0.1,0.55-0.15,0.95-0.15h3.1c0.61,0,1.04,0.12,1.28,0.37c0.24,0.24,0.37,0.63,0.37,1.15v15.31c0,0.52-0.12,0.91-0.37,1.16
			c-0.24,0.25-0.66,0.38-1.25,0.38h-2.59c-0.59,0-1.02-0.13-1.27-0.38s-0.38-0.64-0.38-1.16v-7.37l-1.59,3.67
			c-0.22,0.52-0.45,0.9-0.7,1.12c-0.25,0.22-0.67,0.34-1.24,0.34s-0.99-0.11-1.24-0.34c-0.25-0.23-0.49-0.6-0.7-1.12l-1.59-3.67
			v7.37c0,0.52-0.12,0.91-0.36,1.16s-0.67,0.38-1.28,0.38h-2.59C238.84,435.75,238.42,435.63,238.17,435.37z"/>
		<path d="M257.28,435.18c0-0.16,0.04-0.36,0.14-0.59l6.72-16.17c0.16-0.38,0.35-0.64,0.55-0.8c0.21-0.15,0.5-0.23,0.88-0.23h2.94
			c0.38,0,0.67,0.08,0.88,0.23c0.21,0.15,0.39,0.42,0.55,0.8l6.7,16.17c0.09,0.23,0.13,0.43,0.13,0.59c0,0.38-0.2,0.57-0.59,0.57
			h-5.08c-0.56,0-0.91-0.24-1.05-0.73l-0.65-2h-4.78l-0.62,2c-0.14,0.49-0.5,0.73-1.05,0.73h-5.08
			C257.47,435.75,257.28,435.56,257.28,435.18z M264.13,415.77c0-0.14,0.03-0.3,0.08-0.46l1.13-3.13c0.14-0.41,0.31-0.69,0.51-0.84
			c0.2-0.14,0.57-0.22,1.11-0.22h3.86c0.38,0,0.67,0.07,0.89,0.2c0.22,0.14,0.32,0.33,0.32,0.58c0,0.22-0.07,0.44-0.22,0.67
			l-1.73,2.92c-0.25,0.43-0.5,0.71-0.73,0.84s-0.66,0.19-1.27,0.19h-2.89C264.49,416.53,264.13,416.28,264.13,415.77z
			 M268.08,428.76l-1.05-3.35l-1.05,3.35H268.08z"/>
		<path d="M280.33,435.64c-1.4-0.34-2.54-0.82-3.4-1.43c-0.36-0.25-0.54-0.5-0.54-0.73c0-0.16,0.06-0.33,0.19-0.51l1.57-2.46
			c0.16-0.23,0.32-0.35,0.49-0.35c0.14,0,0.31,0.06,0.51,0.19c0.65,0.4,1.39,0.71,2.23,0.93c0.84,0.23,1.65,0.34,2.44,0.34
			c0.67,0,1.15-0.09,1.45-0.27c0.3-0.18,0.45-0.46,0.45-0.84c0-0.41-0.2-0.75-0.59-1c-0.4-0.25-1.08-0.57-2.05-0.94
			c-1.82-0.7-3.25-1.5-4.29-2.39c-1.04-0.89-1.57-2.07-1.57-3.55c0-1.87,0.65-3.28,1.96-4.23c1.3-0.95,3.06-1.42,5.28-1.42
			c1.55,0,2.87,0.13,3.96,0.4c1.09,0.27,2.04,0.69,2.85,1.27c0.36,0.25,0.54,0.5,0.54,0.73c0,0.16-0.06,0.33-0.19,0.51l-1.57,2.46
			c-0.16,0.25-0.32,0.38-0.49,0.38c-0.11,0-0.28-0.07-0.51-0.22c-0.43-0.29-0.94-0.53-1.54-0.71c-0.59-0.19-1.23-0.28-1.92-0.28
			c-0.63,0-1.11,0.09-1.43,0.27s-0.49,0.47-0.49,0.86c0,0.32,0.11,0.59,0.34,0.81s0.51,0.4,0.85,0.55c0.34,0.15,0.94,0.4,1.78,0.74
			c1.35,0.54,2.41,1.06,3.19,1.55s1.36,1.09,1.76,1.78c0.4,0.69,0.59,1.57,0.59,2.63c0,1.62-0.61,2.93-1.82,3.93s-3.03,1.5-5.44,1.5
			C283.26,436.16,281.74,435.99,280.33,435.64z"/>
		<path d="M132.08,466.14c-1.82-1.61-2.73-4-2.73-7.17c0-3.19,0.88-5.58,2.63-7.18c1.75-1.6,4.26-2.4,7.52-2.4
			c1.48,0,2.79,0.14,3.94,0.43c1.15,0.29,2.11,0.69,2.89,1.21c0.22,0.16,0.32,0.34,0.32,0.54c0,0.16-0.08,0.39-0.24,0.67l-1.35,2.32
			c-0.14,0.25-0.31,0.38-0.51,0.38c-0.13,0-0.33-0.07-0.62-0.22c-0.5-0.25-1.03-0.45-1.58-0.59c-0.55-0.14-1.19-0.22-1.93-0.22
			c-1.49,0-2.64,0.43-3.43,1.3c-0.79,0.86-1.19,2.12-1.19,3.75c0,1.62,0.43,2.87,1.3,3.74c0.86,0.87,2.04,1.31,3.54,1.31
			c1.3,0,2.48-0.27,3.56-0.81c0.29-0.14,0.49-0.22,0.62-0.22c0.2,0,0.37,0.13,0.51,0.38l1.35,2.32c0.16,0.29,0.24,0.51,0.24,0.67
			c0,0.2-0.11,0.38-0.32,0.54c-0.77,0.52-1.75,0.93-2.92,1.21c-1.17,0.29-2.49,0.43-3.97,0.43
			C136.44,468.56,133.9,467.75,132.08,466.14z"/>
		<path d="M148.64,467.77c-0.24-0.25-0.37-0.64-0.37-1.16v-15.28c0-0.52,0.12-0.91,0.37-1.16c0.24-0.25,0.66-0.38,1.26-0.38h11.18
			c0.58,0,0.97,0.12,1.17,0.37c0.21,0.24,0.31,0.63,0.31,1.17v1.51c0,0.54-0.1,0.93-0.31,1.17s-0.6,0.37-1.17,0.37h-6.32v2.32h3.89
			c0.58,0,0.97,0.12,1.17,0.36c0.21,0.24,0.31,0.63,0.31,1.17v1.46c0,0.54-0.1,0.93-0.31,1.17s-0.6,0.36-1.17,0.36h-3.89v2.32h6.29
			c0.58,0,0.97,0.12,1.17,0.36c0.21,0.24,0.31,0.63,0.31,1.17v1.51c0,0.54-0.1,0.93-0.31,1.17c-0.21,0.24-0.6,0.36-1.17,0.36H149.9
			C149.3,468.15,148.89,468.03,148.64,467.77z"/>
		<path d="M164.14,467.77c-0.24-0.25-0.37-0.64-0.37-1.16v-15.28c0-0.52,0.12-0.91,0.37-1.16c0.24-0.25,0.66-0.38,1.25-0.38h6.45
			c2.7,0,4.67,0.54,5.9,1.61c1.23,1.07,1.85,2.69,1.85,4.85c0,1.3-0.22,2.39-0.66,3.28c-0.44,0.89-1.12,1.59-2.04,2.09l2.51,5.37
			c0.07,0.14,0.11,0.31,0.11,0.49c0,0.2-0.07,0.36-0.2,0.49c-0.13,0.13-0.31,0.19-0.53,0.19h-4.56c-0.29,0-0.52-0.04-0.69-0.12
			s-0.29-0.22-0.36-0.42l-2-5.02h-0.92v4.02c0,0.52-0.12,0.91-0.37,1.16c-0.24,0.25-0.67,0.38-1.28,0.38h-3.21
			C164.8,468.15,164.38,468.03,164.14,467.77z M171.28,458.08c0.58,0,1.03-0.15,1.36-0.46c0.33-0.31,0.5-0.76,0.5-1.38
			c0-0.63-0.17-1.1-0.5-1.4c-0.33-0.31-0.79-0.46-1.36-0.46h-1.84v3.7H171.28z"/>
		<path d="M183.13,466.14c-1.82-1.61-2.73-4-2.73-7.17c0-3.19,0.88-5.58,2.63-7.18c1.76-1.6,4.26-2.4,7.52-2.4
			c1.48,0,2.79,0.14,3.94,0.43c1.15,0.29,2.11,0.69,2.89,1.21c0.21,0.16,0.32,0.34,0.32,0.54c0,0.16-0.08,0.39-0.24,0.67l-1.35,2.32
			c-0.14,0.25-0.32,0.38-0.51,0.38c-0.13,0-0.33-0.07-0.62-0.22c-0.5-0.25-1.03-0.45-1.58-0.59c-0.55-0.14-1.19-0.22-1.93-0.22
			c-1.49,0-2.64,0.43-3.43,1.3c-0.79,0.86-1.19,2.12-1.19,3.75c0,1.62,0.43,2.87,1.3,3.74c0.86,0.87,2.04,1.31,3.54,1.31
			c1.29,0,2.48-0.27,3.56-0.81c0.29-0.14,0.5-0.22,0.62-0.22c0.2,0,0.37,0.13,0.51,0.38l1.35,2.32c0.16,0.29,0.24,0.51,0.24,0.67
			c0,0.2-0.11,0.38-0.32,0.54c-0.77,0.52-1.75,0.93-2.92,1.21c-1.17,0.29-2.49,0.43-3.97,0.43
			C187.5,468.56,184.95,467.75,183.13,466.14z"/>
		<path d="M198.12,467.58c0-0.16,0.04-0.36,0.13-0.59l6.72-16.17c0.16-0.38,0.35-0.64,0.55-0.8c0.21-0.15,0.5-0.23,0.88-0.23h2.94
			c0.38,0,0.67,0.08,0.88,0.23c0.21,0.15,0.39,0.42,0.55,0.8l6.7,16.17c0.09,0.23,0.13,0.43,0.13,0.59c0,0.38-0.2,0.57-0.59,0.57
			h-5.08c-0.56,0-0.91-0.24-1.05-0.73l-0.65-2h-4.78l-0.62,2c-0.14,0.49-0.49,0.73-1.05,0.73h-5.08
			C198.32,468.15,198.12,467.96,198.12,467.58z M208.92,461.16l-1.05-3.35l-1.05,3.35H208.92z"/>
		<path d="M219.33,467.77c-0.24-0.25-0.37-0.64-0.37-1.16V451.3c0-0.52,0.12-0.91,0.37-1.15c0.24-0.24,0.67-0.37,1.28-0.37h2.57
			c0.38,0,0.67,0.05,0.88,0.15c0.21,0.1,0.41,0.29,0.61,0.58l4.89,7.26v-6.45c0-0.52,0.12-0.91,0.37-1.16
			c0.24-0.25,0.66-0.38,1.25-0.38h3.21c0.61,0,1.04,0.12,1.28,0.37c0.24,0.24,0.37,0.63,0.37,1.17v15.31c0,0.52-0.12,0.9-0.37,1.15
			c-0.24,0.24-0.67,0.36-1.28,0.36h-2.57c-0.38,0-0.67-0.05-0.88-0.15s-0.41-0.29-0.61-0.58l-4.89-7.26v6.48
			c0,0.52-0.12,0.9-0.37,1.15c-0.24,0.24-0.67,0.36-1.28,0.36h-3.21C219.99,468.15,219.57,468.03,219.33,467.77z"/>
		<path d="M239.86,466.06c-1.66-1.66-2.48-4.03-2.48-7.09c0-3.06,0.83-5.42,2.48-7.09s4.09-2.5,7.29-2.5s5.63,0.83,7.29,2.5
			s2.48,4.03,2.48,7.09c0,3.06-0.83,5.42-2.48,7.09c-1.66,1.67-4.09,2.5-7.29,2.5S241.52,467.72,239.86,466.06z M249.69,462.77
			c0.52-0.84,0.78-2.1,0.78-3.79c0-1.71-0.26-2.98-0.78-3.81c-0.52-0.83-1.37-1.24-2.54-1.24c-1.17,0-2.02,0.41-2.54,1.24
			c-0.52,0.83-0.78,2.1-0.78,3.81c0,1.69,0.26,2.96,0.78,3.79c0.52,0.84,1.37,1.26,2.54,1.26
			C248.32,464.02,249.17,463.6,249.69,462.77z"/>
		<path d="M260.49,468.04c-1.4-0.34-2.54-0.82-3.4-1.43c-0.36-0.25-0.54-0.5-0.54-0.73c0-0.16,0.06-0.33,0.19-0.51l1.57-2.46
			c0.16-0.23,0.32-0.35,0.49-0.35c0.14,0,0.32,0.06,0.51,0.19c0.65,0.4,1.39,0.71,2.23,0.93c0.84,0.23,1.65,0.34,2.44,0.34
			c0.67,0,1.15-0.09,1.44-0.27c0.3-0.18,0.45-0.46,0.45-0.84c0-0.41-0.2-0.75-0.59-1c-0.4-0.25-1.08-0.57-2.05-0.94
			c-1.82-0.7-3.25-1.5-4.29-2.39c-1.04-0.89-1.57-2.07-1.57-3.55c0-1.87,0.65-3.28,1.96-4.23s3.06-1.42,5.28-1.42
			c1.55,0,2.87,0.13,3.96,0.4c1.09,0.27,2.04,0.69,2.85,1.27c0.36,0.25,0.54,0.5,0.54,0.73c0,0.16-0.06,0.33-0.19,0.51l-1.57,2.46
			c-0.16,0.25-0.32,0.38-0.49,0.38c-0.11,0-0.28-0.07-0.51-0.22c-0.43-0.29-0.95-0.53-1.54-0.71c-0.59-0.19-1.23-0.28-1.92-0.28
			c-0.63,0-1.11,0.09-1.43,0.27c-0.32,0.18-0.49,0.47-0.49,0.86c0,0.32,0.11,0.59,0.34,0.81c0.22,0.22,0.51,0.4,0.85,0.55
			c0.34,0.15,0.94,0.4,1.78,0.74c1.35,0.54,2.41,1.06,3.19,1.55c0.77,0.5,1.36,1.09,1.75,1.78c0.4,0.69,0.59,1.57,0.59,2.63
			c0,1.62-0.61,2.93-1.82,3.93s-3.03,1.5-5.44,1.5C263.41,468.56,261.89,468.39,260.49,468.04z"/>
		<path d="M68.67,501.33c-0.96-1.15-1.71-2.54-2.24-4.16c-0.53-1.62-0.8-3.34-0.8-5.16c0-1.82,0.27-3.54,0.8-5.16
			c0.53-1.62,1.28-3.01,2.24-4.16c0.96-1.15,2.06-1.94,3.28-2.38c0.83-0.29,1.48-0.43,1.97-0.43c0.5,0,0.88,0.15,1.13,0.45
			c0.25,0.3,0.38,0.78,0.38,1.45c0,0.56-0.02,0.97-0.05,1.23c-0.04,0.26-0.13,0.49-0.27,0.69s-0.39,0.45-0.73,0.76
			c-0.88,0.77-1.49,1.75-1.81,2.92c-0.32,1.17-0.49,2.72-0.49,4.64c0,1.93,0.16,3.47,0.49,4.64c0.32,1.17,0.93,2.14,1.81,2.92
			c0.34,0.31,0.58,0.56,0.73,0.76s0.23,0.43,0.27,0.69c0.04,0.26,0.05,0.67,0.05,1.23c0,0.67-0.13,1.15-0.38,1.44
			c-0.25,0.3-0.63,0.45-1.13,0.45c-0.49,0-1.14-0.14-1.97-0.43C70.72,503.28,69.63,502.49,68.67,501.33z"/>
		<path d="M78.7,498.54c-1.82-1.61-2.73-4-2.73-7.17c0-3.15,0.91-5.54,2.73-7.16c1.82-1.62,4.36-2.43,7.61-2.43
			c1.48,0,2.8,0.14,3.97,0.43s2.14,0.69,2.92,1.21c0.22,0.16,0.32,0.34,0.32,0.54c0,0.16-0.08,0.39-0.24,0.67l-1.35,2.32
			c-0.14,0.25-0.31,0.38-0.51,0.38c-0.13,0-0.33-0.07-0.62-0.22c-1.08-0.54-2.27-0.81-3.56-0.81c-1.49,0-2.67,0.43-3.52,1.28
			c-0.86,0.85-1.28,2.11-1.28,3.77c0,1.71,0.36,2.97,1.08,3.79c0.72,0.82,1.79,1.23,3.21,1.23c0.25,0,0.54-0.02,0.85-0.07
			c0.31-0.04,0.57-0.09,0.77-0.15v-2.46h-1.73c-0.58,0-0.97-0.11-1.17-0.34c-0.21-0.22-0.31-0.61-0.31-1.15v-1.48
			c0-0.54,0.1-0.92,0.31-1.15c0.21-0.23,0.6-0.34,1.17-0.34h5.8c0.7,0,1.19,0.16,1.46,0.47c0.27,0.32,0.4,0.81,0.4,1.5v6.32
			c0,0.4-0.05,0.7-0.15,0.9c-0.1,0.21-0.29,0.42-0.58,0.63c-1.73,1.24-4.13,1.86-7.21,1.86C83.06,500.96,80.52,500.15,78.7,498.54z"
			/>
		<path d="M95.99,500.17c-0.24-0.25-0.37-0.64-0.37-1.16v-15.28c0-0.52,0.12-0.91,0.37-1.16c0.24-0.25,0.66-0.38,1.25-0.38h11.18
			c0.58,0,0.97,0.12,1.17,0.37c0.21,0.24,0.31,0.63,0.31,1.17v1.51c0,0.54-0.1,0.93-0.31,1.17s-0.6,0.37-1.17,0.37h-6.32v2.32H106
			c0.58,0,0.97,0.12,1.17,0.36c0.21,0.24,0.31,0.63,0.31,1.17v1.46c0,0.54-0.1,0.93-0.31,1.17s-0.6,0.36-1.17,0.36h-3.89v2.32h6.29
			c0.58,0,0.97,0.12,1.17,0.36s0.31,0.63,0.31,1.17v1.51c0,0.54-0.1,0.93-0.31,1.17s-0.6,0.36-1.17,0.36H97.25
			C96.65,500.55,96.23,500.43,95.99,500.17z"/>
		<path d="M112.13,498.46c-1.66-1.66-2.48-4.03-2.48-7.09c0-3.06,0.83-5.42,2.48-7.09c1.66-1.67,4.09-2.5,7.29-2.5
			c3.2,0,5.63,0.83,7.29,2.5c1.66,1.67,2.48,4.03,2.48,7.09c0,3.06-0.83,5.42-2.48,7.09c-1.66,1.67-4.09,2.5-7.29,2.5
			C116.21,500.96,113.78,500.12,112.13,498.46z M121.95,495.17c0.52-0.84,0.78-2.1,0.78-3.79c0-1.71-0.26-2.98-0.78-3.81
			c-0.52-0.83-1.37-1.24-2.54-1.24s-2.02,0.41-2.54,1.24c-0.52,0.83-0.78,2.1-0.78,3.81c0,1.69,0.26,2.96,0.78,3.79
			c0.52,0.84,1.37,1.26,2.54,1.26S121.43,496,121.95,495.17z"/>
		<path d="M130.9,500.17c-0.24-0.25-0.36-0.64-0.36-1.16v-15.28c0-0.52,0.12-0.91,0.36-1.16c0.24-0.25,0.66-0.38,1.26-0.38h3.21
			c0.61,0,1.04,0.12,1.28,0.37c0.24,0.24,0.36,0.63,0.36,1.17v12.23h6.29c0.58,0,0.97,0.12,1.18,0.36c0.21,0.24,0.31,0.63,0.31,1.17
			v1.51c0,0.54-0.1,0.93-0.31,1.17c-0.21,0.24-0.6,0.36-1.18,0.36h-11.15C131.56,500.55,131.15,500.43,130.9,500.17z"/>
		<path d="M146.33,498.46c-1.66-1.66-2.48-4.03-2.48-7.09c0-3.06,0.83-5.42,2.48-7.09c1.66-1.67,4.09-2.5,7.29-2.5
			c3.2,0,5.63,0.83,7.29,2.5c1.66,1.67,2.48,4.03,2.48,7.09c0,3.06-0.83,5.42-2.48,7.09c-1.66,1.67-4.09,2.5-7.29,2.5
			C150.42,500.96,147.99,500.12,146.33,498.46z M156.16,495.17c0.52-0.84,0.78-2.1,0.78-3.79c0-1.71-0.26-2.98-0.78-3.81
			c-0.52-0.83-1.37-1.24-2.54-1.24s-2.02,0.41-2.54,1.24c-0.52,0.83-0.78,2.1-0.78,3.81c0,1.69,0.26,2.96,0.78,3.79
			c0.52,0.84,1.37,1.26,2.54,1.26S155.64,496,156.16,495.17z"/>
		<path d="M166.26,498.54c-1.82-1.61-2.73-4-2.73-7.17c0-3.19,0.88-5.58,2.63-7.18c1.75-1.6,4.26-2.4,7.52-2.4
			c1.48,0,2.79,0.14,3.94,0.43c1.15,0.29,2.11,0.69,2.89,1.21c0.22,0.16,0.32,0.34,0.32,0.54c0,0.16-0.08,0.39-0.24,0.67l-1.35,2.32
			c-0.14,0.25-0.31,0.38-0.51,0.38c-0.13,0-0.33-0.07-0.62-0.22c-0.5-0.25-1.03-0.45-1.58-0.59c-0.55-0.14-1.19-0.22-1.93-0.22
			c-1.49,0-2.64,0.43-3.43,1.3c-0.79,0.86-1.19,2.12-1.19,3.75c0,1.62,0.43,2.87,1.3,3.74c0.86,0.87,2.04,1.31,3.54,1.31
			c1.3,0,2.48-0.27,3.56-0.81c0.29-0.14,0.49-0.22,0.62-0.22c0.2,0,0.37,0.13,0.51,0.38l1.35,2.32c0.16,0.29,0.24,0.51,0.24,0.67
			c0,0.2-0.11,0.38-0.32,0.54c-0.77,0.52-1.75,0.93-2.92,1.21c-1.17,0.29-2.49,0.43-3.97,0.43
			C170.62,500.96,168.08,500.15,166.26,498.54z"/>
		<path d="M181.24,499.98c0-0.16,0.04-0.36,0.13-0.59l6.72-16.17c0.16-0.38,0.35-0.64,0.55-0.8c0.21-0.15,0.5-0.23,0.88-0.23h2.94
			c0.38,0,0.67,0.08,0.88,0.23c0.21,0.15,0.39,0.42,0.55,0.8l6.7,16.17c0.09,0.23,0.13,0.43,0.13,0.59c0,0.38-0.2,0.57-0.59,0.57
			h-5.08c-0.56,0-0.91-0.24-1.05-0.73l-0.65-2h-4.78l-0.62,2c-0.14,0.49-0.49,0.73-1.05,0.73h-5.08
			C181.44,500.55,181.24,500.36,181.24,499.98z M192.04,493.56l-1.05-3.35l-1.05,3.35H192.04z"/>
		<path d="M202.45,500.17c-0.24-0.25-0.37-0.64-0.37-1.16v-15.28c0-0.52,0.12-0.91,0.37-1.16c0.24-0.25,0.66-0.38,1.26-0.38h3.21
			c0.61,0,1.04,0.12,1.28,0.37c0.24,0.24,0.36,0.63,0.36,1.17v12.23h6.29c0.58,0,0.97,0.12,1.17,0.36c0.21,0.24,0.31,0.63,0.31,1.17
			v1.51c0,0.54-0.1,0.93-0.31,1.17c-0.21,0.24-0.6,0.36-1.17,0.36h-11.15C203.12,500.55,202.7,500.43,202.45,500.17z"/>
		<path d="M217.52,500.17c-0.24-0.25-0.37-0.64-0.37-1.16v-15.28c0-0.52,0.12-0.91,0.37-1.16c0.24-0.25,0.66-0.38,1.25-0.38h3.21
			c0.61,0,1.04,0.12,1.28,0.37c0.24,0.24,0.37,0.63,0.37,1.17v15.28c0,0.52-0.12,0.91-0.37,1.16c-0.24,0.25-0.67,0.38-1.28,0.38
			h-3.21C218.18,500.55,217.76,500.43,217.52,500.17z"/>
		<path d="M225.25,500.24c-0.18-0.21-0.27-0.59-0.27-1.15c0-0.58,0.05-1.03,0.15-1.35c0.1-0.32,0.35-0.75,0.74-1.27l7.1-9.69h-6.24
			c-0.59,0-1.01-0.13-1.26-0.38c-0.24-0.25-0.37-0.64-0.37-1.16v-1.51c0-0.52,0.12-0.91,0.37-1.16c0.24-0.25,0.66-0.38,1.26-0.38
			h13.34c0.54,0,0.9,0.1,1.08,0.31c0.18,0.21,0.27,0.59,0.27,1.15c0,0.56-0.05,1-0.15,1.32c-0.1,0.32-0.35,0.76-0.74,1.3l-7.05,9.69
			h6.37c0.59,0,1.01,0.13,1.26,0.38c0.24,0.25,0.36,0.64,0.36,1.16v1.51c0,0.52-0.12,0.91-0.36,1.16c-0.24,0.25-0.66,0.38-1.26,0.38
			h-13.53C225.79,500.55,225.43,500.45,225.25,500.24z"/>
		<path d="M241.62,499.98c0-0.16,0.04-0.36,0.14-0.59l6.72-16.17c0.16-0.38,0.35-0.64,0.55-0.8c0.21-0.15,0.5-0.23,0.88-0.23h2.94
			c0.38,0,0.67,0.08,0.88,0.23c0.21,0.15,0.39,0.42,0.55,0.8l6.7,16.17c0.09,0.23,0.13,0.43,0.13,0.59c0,0.38-0.2,0.57-0.59,0.57
			h-5.08c-0.56,0-0.91-0.24-1.05-0.73l-0.65-2h-4.78l-0.62,2c-0.14,0.49-0.5,0.73-1.05,0.73h-5.08
			C241.81,500.55,241.62,500.36,241.62,499.98z M252.42,493.56l-1.05-3.35l-1.05,3.35H252.42z"/>
		<path d="M263.16,498.54c-1.82-1.61-2.73-4-2.73-7.17c0-3.19,0.88-5.58,2.63-7.18c1.75-1.6,4.26-2.4,7.52-2.4
			c1.47,0,2.79,0.14,3.94,0.43s2.12,0.69,2.89,1.21c0.22,0.16,0.32,0.34,0.32,0.54c0,0.16-0.08,0.39-0.24,0.67l-1.35,2.32
			c-0.14,0.25-0.32,0.38-0.51,0.38c-0.13,0-0.33-0.07-0.62-0.22c-0.5-0.25-1.03-0.45-1.58-0.59c-0.55-0.14-1.19-0.22-1.93-0.22
			c-1.49,0-2.64,0.43-3.43,1.3c-0.79,0.86-1.19,2.12-1.19,3.75c0,1.62,0.43,2.87,1.29,3.74c0.87,0.87,2.04,1.31,3.54,1.31
			c1.3,0,2.48-0.27,3.56-0.81c0.29-0.14,0.5-0.22,0.62-0.22c0.2,0,0.37,0.13,0.51,0.38l1.35,2.32c0.16,0.29,0.24,0.51,0.24,0.67
			c0,0.2-0.11,0.38-0.32,0.54c-0.77,0.52-1.75,0.93-2.92,1.21c-1.17,0.29-2.49,0.43-3.97,0.43
			C267.53,500.96,264.98,500.15,263.16,498.54z"/>
		<path d="M279.73,500.17c-0.24-0.25-0.36-0.64-0.36-1.16v-15.28c0-0.52,0.12-0.91,0.36-1.16c0.24-0.25,0.66-0.38,1.26-0.38h3.21
			c0.61,0,1.04,0.12,1.28,0.37c0.24,0.24,0.36,0.63,0.36,1.17v15.28c0,0.52-0.12,0.91-0.36,1.16c-0.24,0.25-0.67,0.38-1.28,0.38
			h-3.21C280.39,500.55,279.97,500.43,279.73,500.17z"/>
		<path d="M289.68,498.46c-1.66-1.66-2.48-4.03-2.48-7.09c0-3.06,0.83-5.42,2.48-7.09c1.66-1.67,4.09-2.5,7.29-2.5
			c3.2,0,5.63,0.83,7.29,2.5c1.66,1.67,2.48,4.03,2.48,7.09c0,3.06-0.83,5.42-2.48,7.09c-1.66,1.67-4.09,2.5-7.29,2.5
			C293.76,500.96,291.33,500.12,289.68,498.46z M299.5,495.17c0.52-0.84,0.78-2.1,0.78-3.79c0-1.71-0.26-2.98-0.78-3.81
			c-0.52-0.83-1.37-1.24-2.54-1.24s-2.02,0.41-2.54,1.24c-0.52,0.83-0.78,2.1-0.78,3.81c0,1.69,0.26,2.96,0.78,3.79
			s1.37,1.26,2.54,1.26S298.98,496,299.5,495.17z M294.1,479.92c0-0.14,0.03-0.3,0.08-0.46l1.13-3.13c0.14-0.41,0.31-0.69,0.51-0.84
			c0.2-0.14,0.57-0.22,1.11-0.22h3.86c0.38,0,0.67,0.07,0.89,0.2c0.22,0.13,0.32,0.33,0.32,0.58c0,0.22-0.07,0.44-0.22,0.67
			l-1.73,2.92c-0.25,0.43-0.5,0.71-0.73,0.84c-0.23,0.13-0.66,0.19-1.27,0.19h-2.89C294.46,480.68,294.1,480.43,294.1,479.92z"/>
		<path d="M308.46,500.17c-0.24-0.25-0.37-0.64-0.37-1.16V483.7c0-0.52,0.12-0.91,0.37-1.15c0.24-0.24,0.67-0.37,1.28-0.37h2.57
			c0.38,0,0.67,0.05,0.88,0.15c0.21,0.1,0.41,0.29,0.61,0.58l4.89,7.26v-6.45c0-0.52,0.12-0.91,0.37-1.16
			c0.24-0.25,0.66-0.38,1.26-0.38h3.21c0.61,0,1.04,0.12,1.28,0.37c0.24,0.24,0.36,0.63,0.36,1.17v15.31c0,0.52-0.12,0.9-0.36,1.15
			s-0.67,0.36-1.28,0.36h-2.57c-0.38,0-0.67-0.05-0.88-0.15s-0.41-0.29-0.61-0.58l-4.89-7.26v6.48c0,0.52-0.12,0.9-0.36,1.15
			s-0.67,0.36-1.28,0.36h-3.21C309.12,500.55,308.7,500.43,308.46,500.17z"/>
		<path d="M327.75,504.14c-0.5,0-0.88-0.15-1.13-0.45c-0.25-0.3-0.38-0.78-0.38-1.44c0-0.56,0.02-0.97,0.05-1.23
			c0.04-0.26,0.13-0.49,0.27-0.69c0.14-0.2,0.39-0.45,0.73-0.76c0.88-0.77,1.48-1.75,1.81-2.92s0.49-2.72,0.49-4.64
			c0-1.93-0.16-3.47-0.49-4.64s-0.93-2.14-1.81-2.92c-0.34-0.31-0.58-0.56-0.73-0.76c-0.14-0.2-0.23-0.43-0.27-0.69
			s-0.05-0.67-0.05-1.23c0-0.67,0.13-1.15,0.38-1.45c0.25-0.3,0.63-0.45,1.13-0.45c0.49,0,1.14,0.14,1.97,0.43
			c1.22,0.43,2.32,1.22,3.28,2.38c0.96,1.15,1.71,2.54,2.24,4.16c0.53,1.62,0.8,3.34,0.8,5.16c0,1.82-0.27,3.54-0.8,5.16
			s-1.28,3.01-2.24,4.16c-0.96,1.15-2.06,1.94-3.28,2.38C328.89,504,328.23,504.14,327.75,504.14z"/>
		<path d="M40.95,532.57c-0.24-0.25-0.36-0.64-0.36-1.16v-15.28c0-0.52,0.12-0.91,0.36-1.16c0.24-0.25,0.66-0.38,1.25-0.38h3.21
			c0.61,0,1.04,0.12,1.28,0.37c0.24,0.24,0.36,0.63,0.36,1.17v5.35h4.81v-5.35c0-0.52,0.12-0.91,0.37-1.16
			c0.24-0.25,0.66-0.38,1.26-0.38h3.21c0.61,0,1.04,0.12,1.28,0.37c0.24,0.24,0.36,0.63,0.36,1.17v15.28c0,0.52-0.12,0.91-0.36,1.16
			s-0.67,0.38-1.28,0.38H53.5c-0.59,0-1.01-0.13-1.26-0.38c-0.24-0.25-0.37-0.64-0.37-1.16v-5.35h-4.81v5.35
			c0,0.52-0.12,0.91-0.36,1.16s-0.67,0.38-1.28,0.38h-3.21C41.62,532.95,41.2,532.83,40.95,532.57z"/>
		<path d="M62.19,530.86c-1.66-1.66-2.48-4.03-2.48-7.09c0-3.06,0.83-5.42,2.48-7.09s4.09-2.5,7.29-2.5s5.63,0.83,7.29,2.5
			s2.48,4.03,2.48,7.09c0,3.06-0.83,5.42-2.48,7.09c-1.66,1.67-4.09,2.5-7.29,2.5S63.85,532.52,62.19,530.86z M72.02,527.57
			c0.52-0.84,0.78-2.1,0.78-3.79c0-1.71-0.26-2.98-0.78-3.81c-0.52-0.83-1.37-1.24-2.54-1.24c-1.17,0-2.02,0.41-2.54,1.24
			c-0.52,0.83-0.78,2.1-0.78,3.81c0,1.69,0.26,2.96,0.78,3.79c0.52,0.84,1.37,1.26,2.54,1.26C70.65,528.82,71.5,528.4,72.02,527.57z
			"/>
		<path d="M80.97,532.57c-0.24-0.25-0.36-0.64-0.36-1.16v-15.28c0-0.52,0.12-0.91,0.36-1.16c0.24-0.25,0.66-0.38,1.25-0.38h6.45
			c2.7,0,4.67,0.54,5.9,1.61c1.23,1.07,1.85,2.69,1.85,4.85c0,1.3-0.22,2.39-0.66,3.28c-0.44,0.89-1.12,1.59-2.04,2.09l2.51,5.37
			c0.07,0.14,0.11,0.31,0.11,0.49c0,0.2-0.07,0.36-0.2,0.49c-0.13,0.13-0.31,0.19-0.53,0.19h-4.56c-0.29,0-0.52-0.04-0.69-0.12
			c-0.17-0.08-0.29-0.22-0.36-0.42l-2-5.02h-0.92v4.02c0,0.52-0.12,0.91-0.36,1.16s-0.67,0.38-1.28,0.38h-3.21
			C81.63,532.95,81.21,532.83,80.97,532.57z M88.11,522.88c0.58,0,1.03-0.15,1.36-0.46c0.33-0.31,0.5-0.76,0.5-1.38
			c0-0.63-0.17-1.1-0.5-1.4c-0.33-0.31-0.79-0.46-1.36-0.46h-1.84v3.7H88.11z"/>
		<path d="M96.02,532.38c0-0.16,0.04-0.36,0.14-0.59l6.72-16.17c0.16-0.38,0.35-0.64,0.55-0.8c0.21-0.15,0.5-0.23,0.88-0.23h2.94
			c0.38,0,0.67,0.08,0.88,0.23c0.21,0.15,0.39,0.42,0.55,0.8l6.7,16.17c0.09,0.23,0.13,0.43,0.13,0.59c0,0.38-0.2,0.57-0.59,0.57
			h-5.08c-0.56,0-0.91-0.24-1.05-0.73l-0.65-2h-4.78l-0.62,2c-0.14,0.49-0.5,0.73-1.05,0.73h-5.08
			C96.22,532.95,96.02,532.76,96.02,532.38z M106.82,525.96l-1.05-3.35l-1.05,3.35H106.82z"/>
		<path d="M117.23,532.57c-0.24-0.25-0.37-0.64-0.37-1.16v-15.28c0-0.52,0.12-0.91,0.37-1.16c0.24-0.25,0.66-0.38,1.26-0.38h6.45
			c2.7,0,4.67,0.54,5.9,1.61c1.23,1.07,1.85,2.69,1.85,4.85c0,1.3-0.22,2.39-0.66,3.28c-0.44,0.89-1.12,1.59-2.04,2.09l2.51,5.37
			c0.07,0.14,0.11,0.31,0.11,0.49c0,0.2-0.07,0.36-0.2,0.49c-0.13,0.13-0.31,0.19-0.53,0.19h-4.56c-0.29,0-0.52-0.04-0.69-0.12
			c-0.17-0.08-0.29-0.22-0.37-0.42l-2-5.02h-0.92v4.02c0,0.52-0.12,0.91-0.36,1.16s-0.67,0.38-1.28,0.38h-3.21
			C117.89,532.95,117.47,532.83,117.23,532.57z M124.37,522.88c0.58,0,1.03-0.15,1.36-0.46c0.33-0.31,0.5-0.76,0.5-1.38
			c0-0.63-0.17-1.1-0.5-1.4c-0.33-0.31-0.79-0.46-1.36-0.46h-1.84v3.7H124.37z"/>
		<path d="M134.4,532.57c-0.24-0.25-0.37-0.64-0.37-1.16v-15.28c0-0.52,0.12-0.91,0.37-1.16c0.24-0.25,0.66-0.38,1.26-0.38h3.21
			c0.61,0,1.04,0.12,1.28,0.37c0.24,0.24,0.36,0.63,0.36,1.17v15.28c0,0.52-0.12,0.91-0.36,1.16s-0.67,0.38-1.28,0.38h-3.21
			C135.06,532.95,134.64,532.83,134.4,532.57z"/>
		<path d="M144.35,530.86c-1.66-1.66-2.48-4.03-2.48-7.09c0-3.06,0.83-5.42,2.48-7.09s4.09-2.5,7.29-2.5s5.63,0.83,7.29,2.5
			s2.48,4.03,2.48,7.09c0,3.06-0.83,5.42-2.48,7.09c-1.66,1.67-4.09,2.5-7.29,2.5S146.01,532.52,144.35,530.86z M154.18,527.57
			c0.52-0.84,0.78-2.1,0.78-3.79c0-1.71-0.26-2.98-0.78-3.81c-0.52-0.83-1.37-1.24-2.54-1.24c-1.17,0-2.02,0.41-2.54,1.24
			c-0.52,0.83-0.78,2.1-0.78,3.81c0,1.69,0.26,2.96,0.78,3.79c0.52,0.84,1.37,1.26,2.54,1.26
			C152.81,528.82,153.66,528.4,154.18,527.57z"/>
		<path d="M164.98,532.84c-1.4-0.34-2.54-0.82-3.4-1.43c-0.36-0.25-0.54-0.5-0.54-0.73c0-0.16,0.06-0.33,0.19-0.51l1.57-2.46
			c0.16-0.23,0.32-0.35,0.49-0.35c0.14,0,0.32,0.06,0.51,0.19c0.65,0.4,1.39,0.71,2.23,0.93c0.84,0.23,1.65,0.34,2.44,0.34
			c0.67,0,1.15-0.09,1.44-0.27c0.3-0.18,0.45-0.46,0.45-0.84c0-0.41-0.2-0.75-0.59-1c-0.4-0.25-1.08-0.57-2.05-0.94
			c-1.82-0.7-3.25-1.5-4.29-2.39c-1.04-0.89-1.57-2.07-1.57-3.55c0-1.87,0.65-3.28,1.96-4.23s3.06-1.42,5.28-1.42
			c1.55,0,2.87,0.13,3.96,0.4c1.09,0.27,2.04,0.69,2.85,1.27c0.36,0.25,0.54,0.5,0.54,0.73c0,0.16-0.06,0.33-0.19,0.51l-1.57,2.46
			c-0.16,0.25-0.32,0.38-0.49,0.38c-0.11,0-0.28-0.07-0.51-0.22c-0.43-0.29-0.95-0.53-1.54-0.71c-0.59-0.19-1.23-0.28-1.92-0.28
			c-0.63,0-1.11,0.09-1.43,0.27c-0.32,0.18-0.49,0.47-0.49,0.86c0,0.32,0.11,0.59,0.34,0.81c0.22,0.22,0.51,0.4,0.85,0.55
			c0.34,0.15,0.94,0.4,1.78,0.74c1.35,0.54,2.41,1.06,3.19,1.55c0.77,0.5,1.36,1.09,1.75,1.78c0.4,0.69,0.59,1.57,0.59,2.63
			c0,1.62-0.61,2.93-1.82,3.93s-3.03,1.5-5.44,1.5C167.9,533.36,166.38,533.19,164.98,532.84z"/>
		<path d="M186.62,532.57c-0.24-0.25-0.36-0.64-0.36-1.16v-15.28c0-0.52,0.12-0.91,0.36-1.16c0.24-0.25,0.66-0.38,1.26-0.38h6.21
			c6.35,0,9.53,3.06,9.53,9.18c0,3.02-0.82,5.31-2.44,6.86c-1.63,1.55-3.99,2.32-7.09,2.32h-6.21
			C187.28,532.95,186.86,532.83,186.62,532.57z M194.33,528.36c1.01,0,1.73-0.33,2.17-1c0.44-0.67,0.66-1.86,0.66-3.59
			c0-1.73-0.22-2.92-0.66-3.59c-0.44-0.67-1.17-1-2.17-1h-1.59v9.18H194.33z"/>
		<path d="M205.33,532.57c-0.24-0.25-0.36-0.64-0.36-1.16v-15.28c0-0.52,0.12-0.91,0.36-1.16c0.24-0.25,0.66-0.38,1.26-0.38h11.18
			c0.58,0,0.97,0.12,1.17,0.37c0.21,0.24,0.31,0.63,0.31,1.17v1.51c0,0.54-0.1,0.93-0.31,1.17c-0.21,0.24-0.6,0.37-1.17,0.37h-6.32
			v2.32h3.89c0.58,0,0.97,0.12,1.17,0.36c0.21,0.24,0.31,0.63,0.31,1.17v1.46c0,0.54-0.1,0.93-0.31,1.17s-0.6,0.36-1.17,0.36h-3.89
			v2.32h6.29c0.58,0,0.97,0.12,1.18,0.36c0.21,0.24,0.31,0.63,0.31,1.17v1.51c0,0.54-0.1,0.93-0.31,1.17
			c-0.21,0.24-0.6,0.36-1.18,0.36h-11.15C205.99,532.95,205.57,532.83,205.33,532.57z"/>
		<path d="M228.02,532.38c0-0.16,0.04-0.36,0.13-0.59l6.72-16.17c0.16-0.38,0.35-0.64,0.55-0.8c0.21-0.15,0.5-0.23,0.88-0.23h2.94
			c0.38,0,0.67,0.08,0.88,0.23c0.21,0.15,0.39,0.42,0.55,0.8l6.7,16.17c0.09,0.23,0.13,0.43,0.13,0.59c0,0.38-0.2,0.57-0.59,0.57
			h-5.08c-0.56,0-0.91-0.24-1.05-0.73l-0.65-2h-4.78l-0.62,2c-0.14,0.49-0.5,0.73-1.05,0.73h-5.08
			C228.22,532.95,228.02,532.76,228.02,532.38z M238.82,525.96l-1.05-3.35l-1.05,3.35H238.82z"/>
		<path d="M250.15,532.57c-0.24-0.25-0.37-0.64-0.37-1.16v-12.23h-3.89c-0.58,0-0.97-0.12-1.17-0.37s-0.31-0.63-0.31-1.17v-1.51
			c0-0.54,0.1-0.93,0.31-1.17c0.21-0.24,0.6-0.37,1.17-0.37h14.26c0.58,0,0.97,0.12,1.17,0.37c0.21,0.24,0.31,0.63,0.31,1.17v1.51
			c0,0.54-0.1,0.93-0.31,1.17s-0.6,0.37-1.17,0.37h-3.89v12.23c0,0.52-0.12,0.91-0.37,1.16c-0.24,0.25-0.67,0.38-1.28,0.38h-3.21
			C250.81,532.95,250.39,532.83,250.15,532.57z"/>
		<path d="M262.81,532.57c-0.24-0.25-0.37-0.64-0.37-1.16v-15.28c0-0.52,0.12-0.91,0.37-1.16c0.24-0.25,0.66-0.38,1.26-0.38h11.18
			c0.58,0,0.97,0.12,1.17,0.37c0.21,0.24,0.31,0.63,0.31,1.17v1.51c0,0.54-0.1,0.93-0.31,1.17s-0.6,0.37-1.17,0.37h-6.32v2.32h3.89
			c0.58,0,0.97,0.12,1.17,0.36c0.21,0.24,0.31,0.63,0.31,1.17v1.46c0,0.54-0.1,0.93-0.31,1.17s-0.6,0.36-1.17,0.36h-3.89v2.32h6.29
			c0.58,0,0.97,0.12,1.17,0.36c0.21,0.24,0.31,0.63,0.31,1.17v1.51c0,0.54-0.1,0.93-0.31,1.17c-0.21,0.24-0.6,0.36-1.17,0.36h-11.15
			C263.47,532.95,263.05,532.83,262.81,532.57z"/>
		<path d="M278.31,532.57c-0.24-0.25-0.37-0.64-0.37-1.16V516.1c0-0.52,0.12-0.91,0.37-1.15c0.24-0.24,0.67-0.37,1.28-0.37h2.57
			c0.38,0,0.67,0.05,0.88,0.15c0.21,0.1,0.41,0.29,0.61,0.58l4.89,7.26v-6.45c0-0.52,0.12-0.91,0.37-1.16
			c0.24-0.25,0.66-0.38,1.25-0.38h3.21c0.61,0,1.04,0.12,1.28,0.37c0.24,0.24,0.37,0.63,0.37,1.17v15.31c0,0.52-0.12,0.9-0.37,1.15
			c-0.24,0.24-0.67,0.36-1.28,0.36h-2.57c-0.38,0-0.67-0.05-0.88-0.15s-0.41-0.29-0.61-0.58l-4.89-7.26v6.48
			c0,0.52-0.12,0.9-0.37,1.15c-0.24,0.24-0.67,0.36-1.28,0.36h-3.21C278.97,532.95,278.55,532.83,278.31,532.57z"/>
		<path d="M299.08,530.94c-1.82-1.61-2.73-4-2.73-7.17c0-3.19,0.88-5.58,2.63-7.18c1.75-1.6,4.26-2.4,7.52-2.4
			c1.48,0,2.79,0.14,3.94,0.43s2.12,0.69,2.89,1.21c0.22,0.16,0.32,0.34,0.32,0.54c0,0.16-0.08,0.39-0.24,0.67l-1.35,2.32
			c-0.14,0.25-0.32,0.38-0.51,0.38c-0.13,0-0.33-0.07-0.62-0.22c-0.5-0.25-1.03-0.45-1.58-0.59c-0.55-0.14-1.19-0.22-1.93-0.22
			c-1.49,0-2.64,0.43-3.43,1.3c-0.79,0.86-1.19,2.12-1.19,3.75c0,1.62,0.43,2.87,1.3,3.74s2.04,1.31,3.54,1.31
			c1.3,0,2.48-0.27,3.56-0.81c0.29-0.14,0.5-0.22,0.62-0.22c0.2,0,0.37,0.13,0.51,0.38l1.35,2.32c0.16,0.29,0.24,0.51,0.24,0.67
			c0,0.2-0.11,0.38-0.32,0.54c-0.78,0.52-1.75,0.93-2.92,1.21c-1.17,0.29-2.49,0.43-3.97,0.43
			C303.45,533.36,300.9,532.55,299.08,530.94z"/>
		<path d="M315.65,532.57c-0.24-0.25-0.36-0.64-0.36-1.16v-15.28c0-0.52,0.12-0.91,0.36-1.16c0.24-0.25,0.66-0.38,1.26-0.38h3.21
			c0.61,0,1.04,0.12,1.28,0.37c0.24,0.24,0.36,0.63,0.36,1.17v15.28c0,0.52-0.12,0.91-0.36,1.16c-0.24,0.25-0.67,0.38-1.28,0.38
			h-3.21C316.31,532.95,315.89,532.83,315.65,532.57z"/>
		<path d="M325.6,530.86c-1.66-1.66-2.48-4.03-2.48-7.09c0-3.06,0.83-5.42,2.48-7.09c1.66-1.67,4.09-2.5,7.29-2.5
			c3.2,0,5.63,0.83,7.29,2.5c1.66,1.67,2.48,4.03,2.48,7.09c0,3.06-0.83,5.42-2.48,7.09c-1.66,1.67-4.09,2.5-7.29,2.5
			C329.68,533.36,327.25,532.52,325.6,530.86z M335.43,527.57c0.52-0.84,0.78-2.1,0.78-3.79c0-1.71-0.26-2.98-0.78-3.81
			c-0.52-0.83-1.37-1.24-2.54-1.24s-2.02,0.41-2.54,1.24c-0.52,0.83-0.78,2.1-0.78,3.81c0,1.69,0.26,2.96,0.78,3.79
			s1.37,1.26,2.54,1.26S334.9,528.4,335.43,527.57z M330.03,512.32c0-0.14,0.03-0.3,0.08-0.46l1.13-3.13
			c0.14-0.41,0.31-0.69,0.51-0.84c0.2-0.14,0.57-0.22,1.11-0.22h3.86c0.38,0,0.67,0.07,0.89,0.2c0.22,0.13,0.32,0.33,0.32,0.58
			c0,0.22-0.07,0.44-0.22,0.67l-1.73,2.92c-0.25,0.43-0.5,0.71-0.73,0.84c-0.23,0.13-0.66,0.19-1.27,0.19h-2.89
			C330.39,513.08,330.03,512.83,330.03,512.32z"/>
		<path d="M344.38,532.57c-0.24-0.25-0.37-0.64-0.37-1.16V516.1c0-0.52,0.12-0.91,0.37-1.15c0.24-0.24,0.67-0.37,1.28-0.37h2.57
			c0.38,0,0.67,0.05,0.88,0.15c0.21,0.1,0.41,0.29,0.61,0.58l4.89,7.26v-6.45c0-0.52,0.12-0.91,0.37-1.16
			c0.24-0.25,0.66-0.38,1.26-0.38h3.21c0.61,0,1.04,0.12,1.28,0.37c0.24,0.24,0.36,0.63,0.36,1.17v15.31c0,0.52-0.12,0.9-0.36,1.15
			s-0.67,0.36-1.28,0.36h-2.57c-0.38,0-0.67-0.05-0.88-0.15s-0.41-0.29-0.61-0.58l-4.89-7.26v6.48c0,0.52-0.12,0.9-0.36,1.15
			s-0.67,0.36-1.28,0.36h-3.21C345.04,532.95,344.62,532.83,344.38,532.57z"/>
	</g>
	<g>
		<path class="st18" d="M9.5,209.36c0,22,13.29,27.86,29.54,13.03c0,0,156.99-143.3,353.09,26.97V55c0-22-18-40-40-40H49.5
			c-22,0-40,18-40,40V209.36z"/>
	</g>
	<g>
		<path class="st18" d="M391.66,647c0,22-18,40-40,40H49.98c-22,0-40-18-40-40v-46.27c0-22,18-40,40-40h301.68c22,0,40,18,40,40V647
			z"/>
	</g>
	<polygon class="st1" points="200.76,96.93 214.23,124.22 244.34,128.59 222.55,149.83 227.7,179.83 200.76,165.67 173.83,179.83 
		178.97,149.83 157.18,128.59 187.29,124.22 	"/>
	<polygon class="st1" points="138.58,180.15 147.32,197.86 166.86,200.7 152.72,214.48 156.06,233.94 138.58,224.75 121.11,233.94 
		124.45,214.48 110.31,200.7 129.85,197.86 	"/>
	<polygon class="st1" points="268.68,180.15 277.42,197.86 296.95,200.7 282.82,214.48 286.15,233.94 268.68,224.75 251.2,233.94 
		254.54,214.48 240.4,200.7 259.94,197.86 	"/>
	<circle class="st2" cx="201.77" cy="213.97" r="121.96"/>
	<circle class="st3" cx="200.82" cy="200.58" r="121.96"/>
	<g>
		<path class="st3" d="M179.35,642.61c0-0.49,0.15-1.02,0.44-1.61l16.86-34.09h-18.1c-1.56,0-2.62-0.33-3.18-0.99
			c-0.56-0.66-0.84-1.71-0.84-3.17v-4.09c0-1.46,0.28-2.52,0.84-3.18c0.56-0.66,1.62-0.99,3.18-0.99h33.87c2.09,0,3.5,0.3,4.23,0.91
			c0.73,0.61,1.1,1.74,1.1,3.39c0,1.85-0.32,3.36-0.95,4.53l-19.2,38.84c-0.34,0.68-0.72,1.18-1.13,1.5
			c-0.41,0.32-0.99,0.47-1.72,0.47h-13.72C179.91,644.14,179.35,643.63,179.35,642.61z"/>
	</g>
	<polygon class="st171" points="131,210.44 203.33,177 290.44,230.67 225.89,268 	"/>
	<polygon class="st172" points="159.54,197.25 252.64,252.53 260.81,247.81 166.45,194.06 	"/>
	<polygon class="st173" points="195.53,218.62 239.47,199.26 247.72,204.35 203.4,223.29 	"/>
	<path class="st174" d="M210.94,131.93c-60.88,3.48,0,78.27,0,78.27S271.82,135.41,210.94,131.93z M210.51,177.64
		c-9.24,0-16.74-7.49-16.74-16.74s7.49-16.74,16.74-16.74s16.73,7.49,16.73,16.74S219.75,177.64,210.51,177.64z"/>
</g>
</svg>
