<?xml version="1.0" encoding="utf-8"?>
<!-- Generator: Adobe Illustrator 23.0.0, SVG Export Plug-In . SVG Version: 6.00 Build 0)  -->
<svg version="1.1" id="Capa_1" xmlns="http://www.w3.org/2000/svg" xmlns:xlink="http://www.w3.org/1999/xlink" x="0px" y="0px"
	 viewBox="0 0 400 702" style="enable-background:new 0 0 400 702;" xml:space="preserve">
<style type="text/css">
	.st0{fill:#0085B0;}
	.st1{fill:#E0EF18;}
	.st2{fill:#CECECE;}
	.st3{fill:#FFFFFF;}
	.st4{fill:#F2F2F2;}
	.st5{fill:#EACCB0;}
	.st6{fill:#9B9B9B;}
	.st7{fill:#939393;}
	.st8{fill:#EFEFEF;}
	.st9{fill:#828282;}
	.st10{fill:#2C2A2D;}
	.st11{fill:#202021;}
	.st12{fill:#F2D4B6;}
	.st13{fill:#534D46;}
	.st14{fill:#E8D313;}
	.st15{fill:#2ACCFF;}
	.st16{fill:#4E4F4F;}
	.st17{fill:#003A94;}
	.st18{fill:#00D13C;}
	.st19{fill:#15682A;}
	.st20{fill:#D40000;}
	.st21{fill:#505050;}
	.st22{fill:#DFDFDF;}
	.st23{fill:none;}
	.st24{fill:#636363;}
	.st25{fill:#6C92D5;}
	.st26{fill:#22272F;}
	.st27{fill:#1B2538;}
	.st28{fill:#253452;}
	.st29{fill:#F9F9F9;}
	.st30{fill:#2D3543;}
	.st31{fill:#2A3D60;}
	.st32{fill:#587955;}
	.st33{fill:#CD7054;}
	.st34{fill:#F1CC4B;}
	.st35{fill:#ACACAC;}
	.st36{fill:#AAE528;}
	.st37{fill:#28CEBA;}
	.st38{fill:#DB143F;}
	.st39{fill:#53C2C9;}
	.st40{fill:#FFB412;}
	.st41{fill:#866A5E;}
	.st42{fill:#F7DDCB;}
	.st43{fill:#FFE6D4;}
	.st44{fill:#F5F5F5;}
	.st45{fill:#1A2830;}
	.st46{fill:#24353F;}
	.st47{fill:#132026;}
	.st48{fill:#F9FF03;}
	.st49{fill:#272728;}
	.st50{fill:#1E1D1E;}
	.st51{fill:#160423;}
	.st52{fill-rule:evenodd;clip-rule:evenodd;fill:#FFFFFF;}
	.st53{fill-rule:evenodd;clip-rule:evenodd;fill:#1996B8;}
	.st54{fill:#0C387D;}
	.st55{fill:#C69A81;}
	.st56{fill:#D1A385;}
	.st57{fill:#EAEAEA;}
	.st58{fill:#093E8C;}
	.st59{fill:#0B2A62;}
	.st60{fill:#D32A3B;}
	.st61{fill:#827C7D;}
	.st62{opacity:0.7;fill:#7F7F7F;}
	.st63{fill:#FDFDFD;}
	.st64{fill:#DAA449;}
	.st65{fill:#DD9225;}
	.st66{opacity:0.3;}
	.st67{fill:#425793;}
	.st68{opacity:0.8;}
	.st69{filter:url(#Adobe_OpacityMaskFilter);}
	.st70{opacity:0.15;mask:url(#SVGID_1_);}
	.st71{fill:#090B00;}
	.st72{opacity:0.1;}
	.st73{fill:#211915;}
	.st74{filter:url(#Adobe_OpacityMaskFilter_1_);}
	.st75{opacity:0.15;mask:url(#SVGID_2_);}
	.st76{fill:#AF3623;}
	.st77{filter:url(#Adobe_OpacityMaskFilter_2_);}
	.st78{opacity:0.15;mask:url(#SVGID_3_);}
	.st79{filter:url(#Adobe_OpacityMaskFilter_3_);}
	.st80{opacity:0.15;mask:url(#SVGID_4_);}
	.st81{fill:#456495;}
	.st82{filter:url(#Adobe_OpacityMaskFilter_4_);}
	.st83{opacity:0.15;mask:url(#SVGID_5_);}
	.st84{filter:url(#Adobe_OpacityMaskFilter_5_);}
	.st85{opacity:0.15;mask:url(#SVGID_6_);}
	.st86{fill:#76A9DA;}
	.st87{filter:url(#Adobe_OpacityMaskFilter_6_);}
	.st88{opacity:0.15;mask:url(#SVGID_7_);}
	.st89{filter:url(#Adobe_OpacityMaskFilter_7_);}
	.st90{opacity:0.15;mask:url(#SVGID_8_);}
	.st91{fill:#1F3642;}
	.st92{fill:#A9BDDA;}
	.st93{opacity:0.46;fill:#A6B4BC;}
	.st94{fill:#74C475;}
	.st95{fill:#221F21;}
	.st96{fill:#2D2D2D;}
	.st97{fill:#1C1B1A;}
	.st98{fill:#77181C;}
	.st99{fill:#262525;}
	.st100{fill:#11100F;}
	.st101{opacity:0.18;}
	.st102{opacity:0.38;}
	.st103{fill:#0A5B1F;}
	.st104{opacity:0.27;}
	.st105{opacity:0.48;}
	.st106{fill:#0A4654;}
	.st107{fill:#C2C6C6;}
	.st108{fill:#E5E5E5;stroke:#FFFFFF;stroke-miterlimit:10;}
	.st109{fill:#ACB4B5;}
	.st110{fill:#7F8384;}
	.st111{fill:#15772F;}
	.st112{fill:#F4F4F4;}
	.st113{fill:#53B8DB;}
	.st114{fill:#06EF42;}
	.st115{fill:#E7ED07;}
	.st116{fill:#CCCCCA;}
	.st117{fill:#EADF13;}
	.st118{fill:#C2C2C2;}
	.st119{fill:#85B681;}
	.st120{fill:#A1DC9B;}
	.st121{fill:#90C58B;}
	.st122{fill:#22241F;}
	.st123{opacity:0.5;}
	.st124{fill:#A2CADE;}
	.st125{fill:#E9E9E9;}
	.st126{fill:#D9D9D9;}
	.st127{fill:#CDCDCD;}
	.st128{opacity:0.34;fill:#F0F0F0;}
	.st129{fill:#5A5B5A;}
	.st130{fill:#FFE600;}
	.st131{fill:#DB1F59;}
	.st132{fill:#727272;}
	.st133{fill:#207235;}
	.st134{fill:#A3A3A3;}
	.st135{fill:#BCBCBC;}
	.st136{fill:#0A511C;}
	.st137{fill:#F9FF00;}
	.st138{fill:#D59F6D;}
	.st139{fill:#C0804A;}
	.st140{fill:#E6BA8A;}
	.st141{fill:#BE3ACC;}
	.st142{fill:#FFFFFF;stroke:#443F0C;stroke-width:9;stroke-miterlimit:10;}
	.st143{fill:none;stroke:#443F0C;stroke-width:9;stroke-miterlimit:10;}
	.st144{fill:#170623;}
	.st145{fill:#158231;}
	.st146{fill:#C89D76;}
	.st147{opacity:0.4;}
	.st148{fill:#ADADAD;}
	.st149{fill:#EDC3A6;}
	.st150{opacity:0.69;}
	.st151{fill:#E5D3D6;}
	.st152{opacity:0.44;}
	.st153{fill:#A5A5A5;}
	.st154{fill:#DDE5E4;}
	.st155{fill:#5C9169;}
	.st156{fill:#934215;}
	.st157{fill:#47413B;}
	.st158{fill:#601A1F;}
	.st159{fill:#044554;}
	.st160{opacity:0.7;}
	.st161{fill:#7F7F7F;}
	.st162{fill:#6B8A69;}
	.st163{opacity:0.24;fill:#848D90;}
	.st164{opacity:0.4;fill:#848D90;}
	.st165{fill:#F2D5D5;}
	.st166{fill:#485CC1;}
	.st167{fill:#C6CBE0;}
	.st168{fill:#8B909E;}
	.st169{fill:#53BC1B;}
	.st170{fill:#11565B;}
	.st171{fill:#67A06D;}
	.st172{fill:#FFEC00;}
	.st173{fill:#77A007;}
	.st174{fill:#E50731;}
	.st175{fill:#266472;}
	.st176{fill:#D4D4D4;}
	.st177{fill:#0E9932;}
	.st178{fill:#87DD24;}
	.st179{fill:#76A172;}
	.st180{fill:#62835F;}
	.st181{fill:#96D090;}
	.st182{fill:#D6D6D6;}
	.st183{fill:#606060;}
	.st184{fill:#494949;}
	.st185{fill:#29E55A;}
	.st186{fill:#2C703D;}
	.st187{fill:#DD0744;}
	.st188{fill:#EDEDED;}
	.st189{fill:#2A5936;}
	.st190{fill:#B9BBC1;}
	.st191{fill:#FFD79E;}
	.st192{fill:#FFE6C2;}
	.st193{fill:#2CBB55;}
	.st194{fill:#5C412D;}
	.st195{fill:#EC0000;}
	.st196{fill:#DD2626;}
	.st197{fill:#EA9334;}
	.st198{fill:#FCC232;}
	.st199{fill:#F9B234;}
	.st200{fill:#F7A037;}
	.st201{fill:#E0E0E0;}
</style>
<g>
	<g>
		<path class="st0" d="M9.5,209.36c0,22,13.29,27.86,29.54,13.03c0,0,156.99-143.3,353.09,26.97V55c0-22-18-40-40-40H49.5
			c-22,0-40,18-40,40V209.36z"/>
	</g>
	<g>
		<path class="st0" d="M391.66,647c0,22-18,40-40,40H49.98c-22,0-40-18-40-40v-46.27c0-22,18-40,40-40h301.68c22,0,40,18,40,40V647z
			"/>
	</g>
	<polygon class="st1" points="200.76,96.93 214.23,124.22 244.34,128.59 222.55,149.83 227.7,179.83 200.76,165.67 173.83,179.83 
		178.97,149.83 157.18,128.59 187.29,124.22 	"/>
	<polygon class="st1" points="138.58,180.15 147.32,197.86 166.86,200.7 152.72,214.48 156.06,233.94 138.58,224.75 121.11,233.94 
		124.45,214.48 110.31,200.7 129.85,197.86 	"/>
	<polygon class="st1" points="268.68,180.15 277.42,197.86 296.95,200.7 282.82,214.48 286.15,233.94 268.68,224.75 251.2,233.94 
		254.54,214.48 240.4,200.7 259.94,197.86 	"/>
	<circle class="st2" cx="201.77" cy="213.97" r="121.96"/>
	<circle class="st3" cx="200.82" cy="200.58" r="121.96"/>
	<g>
		<path class="st3" d="M195.05,643.3c-0.63-0.56-0.95-1.54-0.95-2.96v-5.69h-17.59c-1.75,0-2.63-0.85-2.63-2.55v-6.72
			c0-1.12,0.1-1.95,0.29-2.48c0.19-0.54,0.66-1.24,1.39-2.12l19.86-23.94c0.83-0.97,1.51-1.61,2.04-1.9
			c0.54-0.29,1.46-0.44,2.77-0.44h7.01c1.61,0,2.74,0.34,3.39,1.02c0.66,0.68,0.99,1.73,0.99,3.14v23.58h2.77
			c1.56,0,2.62,0.33,3.18,0.99c0.56,0.66,0.84,1.71,0.84,3.17v4.09c0,1.46-0.28,2.52-0.84,3.18c-0.56,0.66-1.62,0.99-3.18,0.99
			h-2.77v5.69c0,1.41-0.33,2.4-0.99,2.96c-0.66,0.56-1.81,0.84-3.47,0.84h-8.69C196.82,644.14,195.68,643.86,195.05,643.3z
			 M197.97,622.24v-9.56l-7.01,9.56H197.97z"/>
	</g>
	<g>
		<path d="M119.03,394.32c-0.41-0.42-0.61-1.06-0.61-1.94v-25.47c0-0.87,0.2-1.51,0.61-1.93c0.4-0.42,1.1-0.63,2.09-0.63h18.63
			c0.96,0,1.61,0.2,1.96,0.61c0.34,0.41,0.52,1.06,0.52,1.96v2.52c0,0.9-0.17,1.55-0.52,1.96c-0.35,0.41-1,0.61-1.96,0.61h-10.53
			v3.87h6.48c0.96,0,1.61,0.2,1.96,0.61c0.34,0.41,0.52,1.06,0.52,1.96v2.43c0,0.9-0.17,1.55-0.52,1.96c-0.35,0.41-1,0.61-1.96,0.61
			h-6.48v3.87h10.48c0.96,0,1.61,0.2,1.96,0.61c0.34,0.41,0.52,1.06,0.52,1.96v2.52c0,0.9-0.17,1.55-0.52,1.96
			c-0.35,0.41-1,0.61-1.96,0.61h-18.58C120.13,394.95,119.44,394.74,119.03,394.32z"/>
		<path d="M149.97,394.77c-2.34-0.57-4.23-1.37-5.67-2.39c-0.6-0.42-0.9-0.82-0.9-1.21c0-0.27,0.1-0.55,0.31-0.85l2.61-4.1
			c0.27-0.39,0.54-0.58,0.81-0.58c0.24,0,0.52,0.11,0.85,0.32c1.08,0.66,2.32,1.18,3.71,1.55s2.75,0.56,4.07,0.56
			c1.11,0,1.91-0.15,2.41-0.45s0.74-0.76,0.74-1.4c0-0.69-0.33-1.24-0.99-1.66c-0.66-0.42-1.8-0.95-3.42-1.58
			c-3.03-1.17-5.42-2.5-7.15-3.98c-1.74-1.49-2.61-3.46-2.61-5.92c0-3.12,1.09-5.47,3.26-7.04c2.17-1.57,5.11-2.36,8.8-2.36
			c2.58,0,4.78,0.22,6.59,0.67c1.81,0.45,3.4,1.16,4.75,2.12c0.6,0.42,0.9,0.83,0.9,1.21c0,0.27-0.11,0.56-0.31,0.86l-2.61,4.1
			c-0.27,0.42-0.54,0.63-0.81,0.63c-0.18,0-0.47-0.12-0.85-0.36c-0.72-0.48-1.57-0.88-2.56-1.19c-0.99-0.31-2.06-0.47-3.19-0.47
			c-1.05,0-1.85,0.15-2.39,0.45c-0.54,0.3-0.81,0.78-0.81,1.44c0,0.54,0.19,0.99,0.56,1.35c0.37,0.36,0.85,0.67,1.42,0.92
			c0.57,0.26,1.56,0.67,2.97,1.24c2.25,0.9,4.02,1.76,5.31,2.59c1.29,0.83,2.26,1.82,2.92,2.97c0.66,1.16,0.99,2.62,0.99,4.39
			c0,2.7-1.01,4.88-3.04,6.55s-5.05,2.5-9.07,2.5C154.84,395.63,152.31,395.34,149.97,394.77z"/>
		<path d="M178.57,394.32c-0.4-0.42-0.61-1.06-0.61-1.94V372h-6.48c-0.96,0-1.61-0.2-1.96-0.61c-0.34-0.4-0.52-1.06-0.52-1.96v-2.52
			c0-0.9,0.17-1.55,0.52-1.96c0.34-0.4,1-0.61,1.96-0.61h23.76c0.96,0,1.61,0.2,1.96,0.61c0.34,0.41,0.52,1.06,0.52,1.96v2.52
			c0,0.9-0.17,1.55-0.52,1.96c-0.35,0.41-1,0.61-1.96,0.61h-6.48v20.38c0,0.87-0.2,1.52-0.61,1.94c-0.4,0.42-1.12,0.63-2.14,0.63
			h-5.35C179.67,394.95,178.97,394.74,178.57,394.32z"/>
		<path d="M192.54,394.01c0-0.27,0.07-0.6,0.23-0.99l11.21-26.96c0.27-0.63,0.58-1.07,0.92-1.33c0.34-0.25,0.83-0.38,1.46-0.38h4.9
			c0.63,0,1.12,0.13,1.46,0.38c0.34,0.26,0.65,0.7,0.92,1.33l11.16,26.96c0.15,0.39,0.23,0.72,0.23,0.99c0,0.63-0.33,0.95-0.99,0.95
			h-8.46c-0.93,0-1.52-0.41-1.75-1.21l-1.08-3.33h-7.96l-1.04,3.33c-0.24,0.81-0.83,1.21-1.75,1.21h-8.46
			C192.87,394.95,192.54,394.64,192.54,394.01z M210.54,383.3l-1.75-5.58l-1.75,5.58H210.54z"/>
		<path d="M227.89,394.32c-0.41-0.42-0.61-1.06-0.61-1.94v-25.47c0-0.87,0.2-1.51,0.61-1.93c0.4-0.42,1.1-0.63,2.09-0.63h10.35
			c10.59,0,15.88,5.1,15.88,15.3c0,5.04-1.36,8.85-4.07,11.43c-2.72,2.58-6.65,3.87-11.81,3.87h-10.35
			C228.99,394.95,228.29,394.74,227.89,394.32z M240.73,387.3c1.68,0,2.89-0.55,3.62-1.67c0.73-1.11,1.1-3.1,1.1-5.98
			s-0.37-4.88-1.1-5.99c-0.74-1.11-1.94-1.67-3.62-1.67h-2.65v15.3H240.73z"/>
		<path d="M261.7,391.46c-2.76-2.77-4.14-6.71-4.14-11.81c0-5.1,1.38-9.04,4.14-11.81c2.76-2.78,6.81-4.16,12.15-4.16
			s9.39,1.39,12.15,4.16c2.76,2.78,4.14,6.71,4.14,11.81c0,5.1-1.38,9.04-4.14,11.81c-2.76,2.78-6.81,4.16-12.15,4.16
			S264.46,394.24,261.7,391.46z M278.08,385.97c0.87-1.39,1.31-3.5,1.31-6.32c0-2.85-0.44-4.96-1.31-6.35
			c-0.87-1.38-2.28-2.07-4.23-2.07c-1.95,0-3.36,0.69-4.23,2.07c-0.87,1.38-1.3,3.5-1.3,6.35c0,2.82,0.43,4.93,1.3,6.32
			c0.87,1.4,2.28,2.09,4.23,2.09C275.8,388.07,277.21,387.37,278.08,385.97z"/>
		<path d="M109.33,448.32c-0.41-0.42-0.61-1.06-0.61-1.94v-25.47c0-0.87,0.2-1.51,0.61-1.93c0.4-0.42,1.1-0.63,2.09-0.63h10.35
			c10.59,0,15.88,5.1,15.88,15.3c0,5.04-1.36,8.85-4.07,11.43c-2.72,2.58-6.65,3.87-11.81,3.87h-10.35
			C110.44,448.95,109.74,448.74,109.33,448.32z M122.18,441.3c1.68,0,2.89-0.55,3.62-1.67c0.73-1.11,1.1-3.1,1.1-5.98
			s-0.37-4.88-1.1-5.99c-0.74-1.11-1.94-1.67-3.62-1.67h-2.65v15.3H122.18z"/>
		<path d="M140.52,448.32c-0.41-0.42-0.61-1.06-0.61-1.94v-25.47c0-0.87,0.2-1.51,0.61-1.93c0.4-0.42,1.1-0.63,2.09-0.63h18.63
			c0.96,0,1.61,0.2,1.96,0.61c0.34,0.4,0.52,1.06,0.52,1.96v2.52c0,0.9-0.17,1.55-0.52,1.96c-0.35,0.41-1,0.61-1.96,0.61h-10.53
			v3.87h6.48c0.96,0,1.61,0.2,1.96,0.61c0.34,0.41,0.52,1.06,0.52,1.96v2.43c0,0.9-0.17,1.55-0.52,1.96c-0.35,0.41-1,0.61-1.96,0.61
			h-6.48v3.87h10.48c0.96,0,1.61,0.2,1.96,0.61c0.34,0.41,0.52,1.06,0.52,1.96v2.52c0,0.9-0.17,1.55-0.52,1.96
			c-0.35,0.41-1,0.61-1.96,0.61h-18.58C141.62,448.95,140.92,448.74,140.52,448.32z"/>
		<path d="M179.85,448.32c-0.41-0.42-0.61-1.06-0.61-1.94v-25.47c0-0.87,0.2-1.51,0.61-1.93c0.4-0.42,1.1-0.63,2.09-0.63h10.75
			c4.5,0,7.78,0.89,9.83,2.68c2.05,1.79,3.08,4.48,3.08,8.08c0,3.6-1.03,6.29-3.08,8.05c-2.06,1.77-5.32,2.66-9.79,2.66h-2.7v6.57
			c0,0.87-0.2,1.52-0.61,1.94c-0.41,0.42-1.12,0.63-2.14,0.63h-5.35C180.95,448.95,180.25,448.74,179.85,448.32z M191.75,432.17
			c0.96,0,1.72-0.25,2.27-0.76c0.55-0.51,0.83-1.28,0.83-2.29c0-1.05-0.28-1.83-0.83-2.34c-0.56-0.51-1.31-0.77-2.27-0.77h-3.06
			v6.17H191.75z"/>
		<path d="M201.56,448.01c0-0.27,0.07-0.6,0.23-0.99l11.21-26.96c0.27-0.63,0.58-1.07,0.92-1.33c0.34-0.25,0.83-0.38,1.46-0.38h4.9
			c0.63,0,1.12,0.13,1.46,0.38c0.34,0.26,0.65,0.7,0.92,1.33l11.16,26.96c0.15,0.39,0.23,0.72,0.23,0.99c0,0.63-0.33,0.95-0.99,0.95
			h-8.46c-0.93,0-1.52-0.41-1.75-1.21l-1.08-3.33h-7.96l-1.04,3.33c-0.24,0.81-0.83,1.21-1.75,1.21h-8.46
			C201.89,448.95,201.56,448.64,201.56,448.01z M219.56,437.3l-1.75-5.58l-1.75,5.58H219.56z"/>
		<path d="M239.95,445.6c-3.03-2.68-4.55-6.67-4.55-11.95c0-5.25,1.51-9.23,4.55-11.92c3.03-2.7,7.26-4.05,12.69-4.05
			c2.46,0,4.66,0.24,6.61,0.72c1.95,0.48,3.57,1.16,4.86,2.02c0.36,0.27,0.54,0.57,0.54,0.9c0,0.27-0.13,0.65-0.4,1.13l-2.25,3.87
			c-0.24,0.42-0.53,0.63-0.85,0.63c-0.21,0-0.56-0.12-1.04-0.36c-1.8-0.9-3.78-1.35-5.94-1.35c-2.49,0-4.45,0.71-5.87,2.14
			c-1.43,1.42-2.14,3.52-2.14,6.28c0,2.85,0.6,4.96,1.8,6.32c1.2,1.37,2.98,2.05,5.35,2.05c0.42,0,0.89-0.04,1.42-0.11
			c0.52-0.07,0.95-0.16,1.28-0.25v-4.09h-2.88c-0.96,0-1.61-0.19-1.96-0.56c-0.35-0.38-0.52-1.01-0.52-1.91v-2.47
			c0-0.9,0.17-1.54,0.52-1.91c0.34-0.38,1-0.56,1.96-0.56h9.68c1.17,0,1.98,0.26,2.43,0.79c0.45,0.53,0.68,1.36,0.68,2.5v10.53
			c0,0.66-0.08,1.16-0.25,1.51c-0.17,0.34-0.49,0.7-0.97,1.06c-2.88,2.07-6.89,3.1-12.02,3.1
			C247.22,449.63,242.98,448.29,239.95,445.6z"/>
		<path d="M271.4,445.46c-2.76-2.77-4.14-6.71-4.14-11.81c0-5.1,1.38-9.04,4.14-11.81c2.76-2.77,6.81-4.16,12.15-4.16
			s9.39,1.39,12.15,4.16c2.76,2.78,4.14,6.71,4.14,11.81c0,5.1-1.38,9.04-4.14,11.81c-2.76,2.78-6.81,4.16-12.15,4.16
			S274.16,448.24,271.4,445.46z M287.78,439.97c0.87-1.39,1.31-3.5,1.31-6.32c0-2.85-0.44-4.96-1.31-6.34s-2.28-2.07-4.23-2.07
			c-1.95,0-3.36,0.69-4.23,2.07s-1.3,3.5-1.3,6.34c0,2.82,0.43,4.93,1.3,6.32c0.87,1.4,2.28,2.09,4.23,2.09
			C285.5,442.07,286.91,441.37,287.78,439.97z"/>
		<path d="M42.76,502.32c-0.41-0.42-0.61-1.06-0.61-1.94v-25.47c0-0.87,0.2-1.51,0.61-1.93c0.4-0.42,1.1-0.63,2.09-0.63H55.2
			c10.59,0,15.88,5.1,15.88,15.3c0,5.04-1.36,8.85-4.07,11.43c-2.72,2.58-6.65,3.87-11.81,3.87H44.85
			C43.86,502.95,43.16,502.74,42.76,502.32z M55.6,495.3c1.68,0,2.89-0.55,3.62-1.67c0.73-1.11,1.1-3.1,1.1-5.98
			s-0.37-4.88-1.1-5.99c-0.74-1.11-1.94-1.67-3.62-1.67h-2.65v15.3H55.6z"/>
		<path d="M73.94,502.32c-0.41-0.42-0.61-1.06-0.61-1.94v-25.47c0-0.87,0.2-1.51,0.61-1.93c0.4-0.42,1.1-0.63,2.09-0.63h18.63
			c0.96,0,1.61,0.2,1.96,0.61c0.34,0.4,0.52,1.06,0.52,1.96v2.52c0,0.9-0.17,1.55-0.52,1.96c-0.35,0.41-1,0.61-1.96,0.61H84.13v3.87
			h6.48c0.96,0,1.61,0.2,1.96,0.61c0.34,0.41,0.52,1.06,0.52,1.96v2.43c0,0.9-0.17,1.55-0.52,1.96c-0.35,0.41-1,0.61-1.96,0.61
			h-6.48v3.87h10.48c0.96,0,1.61,0.2,1.96,0.61c0.34,0.41,0.52,1.06,0.52,1.96v2.52c0,0.9-0.17,1.55-0.52,1.96
			c-0.35,0.41-1,0.61-1.96,0.61H76.03C75.04,502.95,74.35,502.74,73.94,502.32z"/>
		<path d="M118.38,502.77c-2.34-0.57-4.23-1.37-5.67-2.39c-0.6-0.42-0.9-0.82-0.9-1.21c0-0.27,0.1-0.55,0.31-0.85l2.61-4.1
			c0.27-0.39,0.54-0.58,0.81-0.58c0.24,0,0.52,0.11,0.85,0.32c1.08,0.66,2.32,1.18,3.71,1.55s2.75,0.56,4.07,0.56
			c1.11,0,1.91-0.15,2.41-0.45s0.74-0.76,0.74-1.4c0-0.69-0.33-1.24-0.99-1.66c-0.66-0.42-1.8-0.95-3.42-1.58
			c-3.03-1.17-5.42-2.5-7.15-3.98c-1.74-1.49-2.61-3.46-2.61-5.92c0-3.12,1.09-5.47,3.26-7.04c2.17-1.58,5.11-2.36,8.8-2.36
			c2.58,0,4.78,0.23,6.59,0.68c1.81,0.45,3.4,1.16,4.75,2.11c0.6,0.42,0.9,0.83,0.9,1.22c0,0.27-0.11,0.55-0.31,0.85l-2.61,4.09
			c-0.27,0.42-0.54,0.63-0.81,0.63c-0.18,0-0.47-0.12-0.85-0.36c-0.72-0.48-1.57-0.88-2.56-1.19c-0.99-0.32-2.06-0.47-3.19-0.47
			c-1.05,0-1.85,0.15-2.39,0.45c-0.54,0.3-0.81,0.78-0.81,1.44c0,0.54,0.19,0.99,0.56,1.35c0.37,0.36,0.85,0.67,1.42,0.92
			c0.57,0.26,1.56,0.67,2.97,1.24c2.25,0.9,4.02,1.76,5.31,2.59c1.29,0.83,2.26,1.82,2.92,2.97c0.66,1.16,0.99,2.62,0.99,4.39
			c0,2.7-1.01,4.88-3.04,6.55s-5.05,2.5-9.07,2.5C123.25,503.63,120.72,503.34,118.38,502.77z"/>
		<path d="M140.95,502.32c-0.41-0.42-0.61-1.06-0.61-1.94v-25.47c0-0.87,0.2-1.51,0.61-1.93c0.4-0.42,1.1-0.63,2.09-0.63h5.35
			c1.02,0,1.73,0.2,2.14,0.61c0.4,0.4,0.61,1.06,0.61,1.96v25.47c0,0.87-0.2,1.52-0.61,1.94c-0.41,0.42-1.12,0.63-2.14,0.63h-5.35
			C142.05,502.95,141.35,502.74,140.95,502.32z"/>
		<path d="M154.9,502.32c-0.41-0.42-0.61-1.06-0.61-1.94v-25.51c0-0.87,0.2-1.51,0.61-1.91c0.4-0.41,1.12-0.61,2.14-0.61h4.28
			c0.63,0,1.12,0.08,1.46,0.25c0.34,0.17,0.68,0.49,1.01,0.97l8.15,12.1v-10.75c0-0.87,0.2-1.51,0.61-1.93
			c0.41-0.42,1.1-0.63,2.09-0.63h5.35c1.02,0,1.73,0.2,2.14,0.61c0.4,0.4,0.61,1.06,0.61,1.96v25.52c0,0.87-0.2,1.51-0.61,1.91
			c-0.41,0.41-1.12,0.61-2.14,0.61h-4.27c-0.63,0-1.12-0.08-1.46-0.25c-0.35-0.17-0.68-0.49-1.01-0.97l-8.15-12.11v10.8
			c0,0.87-0.2,1.51-0.61,1.91c-0.41,0.41-1.12,0.61-2.14,0.61h-5.35C156,502.95,155.3,502.74,154.9,502.32z"/>
		<path d="M186.49,502.32c-0.41-0.42-0.61-1.06-0.61-1.94v-25.47c0-0.87,0.2-1.51,0.61-1.93c0.4-0.42,1.1-0.63,2.09-0.63h5.35
			c1.02,0,1.73,0.2,2.14,0.61c0.4,0.4,0.61,1.06,0.61,1.96v25.47c0,0.87-0.2,1.52-0.61,1.94c-0.41,0.42-1.12,0.63-2.14,0.63h-5.35
			C187.59,502.95,186.89,502.74,186.49,502.32z"/>
		<path d="M200.44,502.32c-0.41-0.42-0.61-1.06-0.61-1.94v-25.47c0-0.87,0.2-1.51,0.61-1.93c0.4-0.42,1.1-0.63,2.09-0.63h18.63
			c0.96,0,1.61,0.2,1.96,0.61c0.34,0.4,0.52,1.06,0.52,1.96v2.52c0,0.9-0.17,1.55-0.52,1.96c-0.35,0.41-1,0.61-1.96,0.61h-10.53
			v3.87h6.48c0.96,0,1.61,0.2,1.96,0.61c0.34,0.41,0.52,1.06,0.52,1.96v2.43c0,0.9-0.17,1.55-0.52,1.96c-0.35,0.41-1,0.61-1.96,0.61
			h-6.48v3.87h10.48c0.96,0,1.61,0.2,1.96,0.61c0.34,0.41,0.52,1.06,0.52,1.96v2.52c0,0.9-0.17,1.55-0.52,1.96
			c-0.35,0.41-1,0.61-1.96,0.61h-18.58C201.54,502.95,200.84,502.74,200.44,502.32z"/>
		<path d="M231.37,502.77c-2.34-0.57-4.23-1.37-5.67-2.39c-0.6-0.42-0.9-0.82-0.9-1.21c0-0.27,0.1-0.55,0.31-0.85l2.61-4.1
			c0.27-0.39,0.54-0.58,0.81-0.58c0.24,0,0.52,0.11,0.85,0.32c1.08,0.66,2.32,1.18,3.71,1.55s2.75,0.56,4.07,0.56
			c1.11,0,1.91-0.15,2.41-0.45s0.74-0.76,0.74-1.4c0-0.69-0.33-1.24-0.99-1.66c-0.66-0.42-1.8-0.95-3.42-1.58
			c-3.03-1.17-5.42-2.5-7.15-3.98c-1.74-1.49-2.61-3.46-2.61-5.92c0-3.12,1.09-5.47,3.26-7.04c2.17-1.58,5.11-2.36,8.8-2.36
			c2.58,0,4.78,0.23,6.59,0.68c1.81,0.45,3.4,1.16,4.75,2.11c0.6,0.42,0.9,0.83,0.9,1.22c0,0.27-0.11,0.55-0.31,0.85l-2.61,4.09
			c-0.27,0.42-0.54,0.63-0.81,0.63c-0.18,0-0.47-0.12-0.85-0.36c-0.72-0.48-1.57-0.88-2.56-1.19c-0.99-0.32-2.06-0.47-3.19-0.47
			c-1.05,0-1.85,0.15-2.39,0.45c-0.54,0.3-0.81,0.78-0.81,1.44c0,0.54,0.19,0.99,0.56,1.35c0.37,0.36,0.85,0.67,1.42,0.92
			c0.57,0.26,1.56,0.67,2.97,1.24c2.25,0.9,4.02,1.76,5.31,2.59c1.29,0.83,2.26,1.82,2.92,2.97c0.66,1.16,0.99,2.62,0.99,4.39
			c0,2.7-1.01,4.88-3.04,6.55s-5.05,2.5-9.07,2.5C236.25,503.63,233.71,503.34,231.37,502.77z"/>
		<path d="M259.97,502.32c-0.4-0.42-0.61-1.06-0.61-1.94V480h-6.48c-0.96,0-1.61-0.2-1.96-0.61s-0.52-1.06-0.52-1.96v-2.52
			c0-0.9,0.17-1.55,0.52-1.96c0.34-0.41,1-0.61,1.96-0.61h23.76c0.96,0,1.61,0.2,1.96,0.61c0.34,0.4,0.52,1.06,0.52,1.96v2.52
			c0,0.9-0.17,1.55-0.52,1.96c-0.35,0.41-1,0.61-1.96,0.61h-6.48v20.38c0,0.87-0.2,1.52-0.61,1.94c-0.4,0.42-1.12,0.63-2.14,0.63
			h-5.35C261.07,502.95,260.38,502.74,259.97,502.32z"/>
		<path d="M281.07,502.32c-0.41-0.42-0.61-1.06-0.61-1.94v-25.47c0-0.87,0.2-1.51,0.61-1.93c0.4-0.42,1.1-0.63,2.09-0.63h10.75
			c4.5,0,7.78,0.89,9.83,2.68c2.05,1.79,3.08,4.48,3.08,8.08c0,2.16-0.37,3.98-1.1,5.47c-0.74,1.49-1.87,2.65-3.4,3.49l4.19,8.96
			c0.12,0.24,0.18,0.51,0.18,0.81c0,0.33-0.11,0.6-0.34,0.81c-0.23,0.21-0.52,0.32-0.88,0.32h-7.6c-0.48,0-0.86-0.07-1.15-0.2
			c-0.29-0.14-0.49-0.37-0.61-0.7l-3.33-8.37h-1.53v6.7c0,0.87-0.2,1.52-0.61,1.94c-0.41,0.42-1.12,0.63-2.14,0.63h-5.35
			C282.18,502.95,281.48,502.74,281.07,502.32z M292.98,486.17c0.96,0,1.72-0.25,2.27-0.76c0.55-0.51,0.83-1.28,0.83-2.29
			c0-1.05-0.28-1.83-0.83-2.34c-0.56-0.51-1.31-0.77-2.27-0.77h-3.06v6.17H292.98z"/>
		<path d="M312.33,499.46c-2.76-2.77-4.14-6.71-4.14-11.81c0-5.1,1.38-9.04,4.14-11.81c2.76-2.77,6.81-4.16,12.15-4.16
			s9.39,1.39,12.15,4.16c2.76,2.78,4.14,6.71,4.14,11.81c0,5.1-1.38,9.04-4.14,11.81c-2.76,2.78-6.81,4.16-12.15,4.16
			S315.09,502.24,312.33,499.46z M328.71,493.97c0.87-1.39,1.31-3.5,1.31-6.32c0-2.85-0.44-4.96-1.31-6.34s-2.28-2.07-4.23-2.07
			c-1.95,0-3.36,0.69-4.23,2.07s-1.3,3.5-1.3,6.34c0,2.82,0.43,4.93,1.3,6.32c0.87,1.4,2.28,2.09,4.23,2.09
			C326.43,496.07,327.84,495.37,328.71,493.97z"/>
		<path d="M346.71,502.77c-2.34-0.57-4.23-1.37-5.67-2.39c-0.6-0.42-0.9-0.82-0.9-1.21c0-0.27,0.1-0.55,0.31-0.85l2.61-4.1
			c0.27-0.39,0.54-0.58,0.81-0.58c0.24,0,0.52,0.11,0.85,0.32c1.08,0.66,2.32,1.18,3.71,1.55s2.75,0.56,4.07,0.56
			c1.11,0,1.91-0.15,2.41-0.45s0.74-0.76,0.74-1.4c0-0.69-0.33-1.24-0.99-1.66c-0.66-0.42-1.8-0.95-3.42-1.58
			c-3.03-1.17-5.42-2.5-7.15-3.98c-1.74-1.49-2.61-3.46-2.61-5.92c0-3.12,1.09-5.47,3.26-7.04c2.17-1.58,5.11-2.36,8.8-2.36
			c2.58,0,4.78,0.23,6.59,0.68c1.81,0.45,3.4,1.16,4.75,2.11c0.6,0.42,0.9,0.83,0.9,1.22c0,0.27-0.11,0.55-0.31,0.85l-2.61,4.09
			c-0.27,0.42-0.54,0.63-0.81,0.63c-0.18,0-0.47-0.12-0.85-0.36c-0.72-0.48-1.57-0.88-2.56-1.19c-0.99-0.32-2.06-0.47-3.19-0.47
			c-1.05,0-1.85,0.15-2.39,0.45c-0.54,0.3-0.81,0.78-0.81,1.44c0,0.54,0.19,0.99,0.56,1.35c0.37,0.36,0.85,0.67,1.42,0.92
			c0.57,0.26,1.56,0.67,2.97,1.24c2.25,0.9,4.02,1.76,5.31,2.59c1.29,0.83,2.26,1.82,2.92,2.97c0.66,1.16,0.99,2.62,0.99,4.39
			c0,2.7-1.01,4.88-3.04,6.55s-5.05,2.5-9.07,2.5C351.58,503.63,349.05,503.34,346.71,502.77z"/>
	</g>
	<path class="st62" d="M279.77,236.26c3.1,0,5.65-2.54,5.65-5.65v-66.22c0-3.09-2.54-5.64-5.65-5.64h-5.09h-51.48h-5.08H165.4h-5.09
		c-2.52,0-4.63,1.67-5.36,3.94l-25.15,10.84l6.67,15.48l-12.01-9.49l-1.37,1.69l-21.45,27.13l35.3,27.92h-25.11v1.34
		c0,5.62,4.56,10.18,10.19,10.18h29.48l1.54,1.22l0.96-1.22h0.31h31.5h32.29h3.19h27.08h35.49c5.62,0,10.18-4.56,10.18-10.18v-1.34
		H279.77z"/>
	<g>
		<g>
			<polygon class="st118" points="188.48,218.11 186.46,218.97 160.52,158.79 162.52,157.96 			"/>
			<g>
				
					<rect x="140.31" y="162.96" transform="matrix(0.9183 -0.3959 0.3959 0.9183 -64.6059 78.3803)" class="st120" width="34.59" height="65.54"/>
				<path class="st32" d="M138.25,176.25l18.48-7.96l20.22,46.91l-18.48,7.97L138.25,176.25L138.25,176.25z M131.9,173.74
					l24.05,55.77l27.35-11.8l-24.04-55.77L131.9,173.74L131.9,173.74z"/>
				<path class="st32" d="M151.94,220.23c5.13-2.21,11.09,0.15,13.3,5.27l-9.3,4.01L151.94,220.23z"/>
				<path class="st32" d="M135.9,183.02c5.13-2.21,7.5-8.17,5.29-13.29l-9.3,4.01L135.9,183.02z"/>
				<path class="st32" d="M179.3,208.44c-5.12,2.21-7.49,8.15-5.28,13.27l9.28-4L179.3,208.44z"/>
				<path class="st32" d="M163.26,171.23c-5.13,2.21-11.08-0.16-13.29-5.28l9.28-4L163.26,171.23z"/>
				<path class="st32" d="M163.09,207.88c-2.42,1.05-3.55,3.86-2.5,6.29c1.05,2.43,3.87,3.54,6.29,2.5c2.43-1.05,3.54-3.86,2.5-6.29
					C168.33,207.95,165.51,206.84,163.09,207.88z"/>
				<path class="st32" d="M154.06,187.52c-4.53,1.96-6.61,7.21-4.66,11.73c1.95,4.53,7.2,6.62,11.73,4.67
					c4.53-1.95,6.62-7.22,4.67-11.74C163.85,187.65,158.59,185.57,154.06,187.52z"/>
				<path class="st32" d="M149.42,176.18c-2.42,1.04-3.54,3.86-2.5,6.29c1.04,2.43,3.87,3.54,6.29,2.5
					c2.42-1.04,3.54-3.87,2.49-6.29C154.66,176.25,151.85,175.14,149.42,176.18z"/>
				<path class="st121" d="M156.6,200.24c-2,0.86-3.19-0.09-3.9-1.6l-1.2,0.52l-0.57-1.33l1.21-0.52c-0.37-1.02-0.54-1.83-0.63-2.62
					l1.8-0.77c0.28,0.88,0.86,2.42,1.16,3.1c0.35,0.82,0.58,1.19,1.37,0.85l0.34-0.14c0.6-0.27,0.75-0.63,0.43-1.36l-0.49-1.13
					c-0.89-2.08,0.62-3.25,1.74-3.73l0.59-0.26c2.38-1.02,3.53,0.16,4.13,1.55l1.16-0.5l0.57,1.34l-1.17,0.5
					c0.46,1.16,0.53,1.61,0.64,2.64l-1.78,0.76c-0.2-0.58-0.7-2-1.26-3.3c-0.25-0.59-0.6-1.01-1.21-0.74l-0.41,0.18
					c-0.5,0.22-0.73,0.51-0.44,1.2l0.47,1.08c1.09,2.51-0.89,3.58-1.66,3.91L156.6,200.24z"/>
			</g>
		</g>
		<g>
			<polygon class="st119" points="174.83,219.09 173.45,220.81 122.05,180.17 123.42,178.47 			"/>
			<g>
				
					<rect x="119.73" y="181.29" transform="matrix(0.6202 -0.7844 0.7844 0.6202 -115.8697 188.7829)" class="st120" width="34.59" height="65.53"/>
				<path class="st32" d="M110.75,206.1l12.48-15.78L163.3,222l-12.48,15.78L110.75,206.1L110.75,206.1z M103.96,206.9l47.63,37.67
					l18.47-23.37l-47.63-37.67L103.96,206.9L103.96,206.9z"/>
				<path class="st32" d="M143.68,238.31c3.47-4.39,9.83-5.14,14.2-1.68l-6.28,7.94L143.68,238.31z"/>
				<path class="st32" d="M111.89,213.18c3.47-4.39,2.73-10.75-1.65-14.22l-6.28,7.94L111.89,213.18z"/>
				<path class="st32" d="M162.15,214.94c-3.47,4.38-2.72,10.74,1.66,14.2l6.26-7.93L162.15,214.94z"/>
				<path class="st32" d="M130.37,189.81c-3.46,4.38-9.82,5.12-14.2,1.66l6.27-7.93L130.37,189.81z"/>
				<path class="st32" d="M147.62,222.14c-1.63,2.07-1.29,5.08,0.79,6.73c2.08,1.64,5.09,1.28,6.72-0.79
					c1.64-2.07,1.28-5.08-0.79-6.71C152.26,219.72,149.25,220.07,147.62,222.14z"/>
				<path class="st32" d="M130.01,208.51c-3.06,3.87-2.41,9.48,1.46,12.54c3.87,3.06,9.48,2.4,12.54-1.46
					c3.06-3.87,2.4-9.48-1.47-12.54C138.68,203.98,133.07,204.64,130.01,208.51z"/>
				<path class="st32" d="M120.55,200.73c-1.64,2.07-1.29,5.08,0.78,6.72c2.08,1.64,5.09,1.28,6.72-0.78
					c1.64-2.07,1.28-5.08-0.79-6.72C125.19,198.31,122.18,198.66,120.55,200.73z"/>
				<path class="st121" d="M138.28,218.5c-1.35,1.72-2.85,1.45-4.2,0.44l-0.81,1.02l-1.14-0.9l0.82-1.03c-0.81-0.72-1.35-1.35-1.8-2
					l1.22-1.55c0.67,0.65,1.91,1.73,2.49,2.19c0.69,0.55,1.08,0.77,1.6,0.11l0.23-0.29c0.41-0.51,0.36-0.9-0.27-1.39l-0.96-0.77
					c-1.78-1.4-0.99-3.14-0.24-4.1l0.39-0.5c1.62-2.04,3.18-1.53,4.37-0.59l0.78-0.99l1.14,0.9l-0.79,1
					c0.95,0.8,1.23,1.16,1.81,2.02l-1.2,1.52c-0.44-0.42-1.56-1.43-2.67-2.31c-0.5-0.39-1.01-0.6-1.41-0.08l-0.28,0.35
					c-0.34,0.43-0.4,0.8,0.18,1.26l0.92,0.73c2.15,1.7,0.91,3.58,0.4,4.24L138.28,218.5z"/>
			</g>
		</g>
	</g>
	<g>
		<g>
			<path class="st26" d="M279.28,229.56c0,3.11-2.55,5.65-5.65,5.65H159.26c-3.11,0-5.65-2.54-5.65-5.65v-66.22
				c0-3.09,2.54-5.64,5.65-5.64h114.36c3.11,0,5.65,2.54,5.65,5.64V229.56z"/>
			<path class="st27" d="M278.71,157.7h-56.57h-57.79c-3.11,0-5.65,2.54-5.65,5.64v66.22c0,3.11,2.54,5.65,5.65,5.65h57.79h56.57
				c3.1,0,5.65-2.54,5.65-5.65v-66.22C284.36,160.24,281.82,157.7,278.71,157.7z"/>
			<path class="st28" d="M273.62,157.7h-56.57h-57.79c-3.11,0-5.65,2.54-5.65,5.64v66.22c0,3.11,2.54,5.65,5.65,5.65h57.79h56.57
				c3.11,0,5.65-2.54,5.65-5.65v-66.22C279.28,160.24,276.73,157.7,273.62,157.7z"/>
			<path class="st29" d="M271.35,162.74h-54.29h-55.52c-1.86,0-3.39,1.54-3.39,3.4v60.63c0,1.87,1.53,3.39,3.39,3.39h55.52h54.29
				c1.86,0,3.39-1.52,3.39-3.39v-60.63C274.74,164.28,273.21,162.74,271.35,162.74z"/>
		</g>
		<g>
			<path class="st27" d="M220.25,235.21v11.52h62.56c5.62,0,10.18-4.56,10.18-10.18v-1.34H220.25z"/>
			<path class="st30" d="M143.08,235.21v1.34c0,5.62,4.56,10.18,10.18,10.18h63.79v-11.52H143.08z"/>
		</g>
		<path class="st31" d="M184.76,235.21h-73.97v1.34c0,5.62,4.56,10.18,10.19,10.18h63.79h62.56c5.62,0,10.19-4.56,10.19-10.18v-1.34
			H184.76z"/>
	</g>
	<g id="_x39__2_">
		<path class="st25" d="M248.02,204.64l-0.25,0.02l0.51,22.94c3.11-0.07,6.26-0.77,9.25-2.18c1.55-0.73,2.98-1.61,4.28-2.62
			c3.6-2.78,6.2-6.52,7.63-10.66L248.02,204.64z"/>
		<path class="st32" d="M264.68,189.16c-6.6-7.21-17.37-9.63-26.68-5.25c-1.9,0.9-3.62,2.02-5.14,3.32l14.9,17.44l0.15-0.01
			l16.99-15.24C264.83,189.33,264.76,189.24,264.68,189.16z"/>
		<path class="st33" d="M270.63,202.75c-0.22-2.65-0.91-5.3-2.1-7.85c-0.97-2.05-2.2-3.88-3.63-5.49l-16.99,15.24l0.11-0.01
			l21.43,7.5C270.48,209.16,270.9,205.96,270.63,202.75z"/>
		<path class="st34" d="M247.77,204.66l-14.9-17.44c-5.27,4.5-8.18,11.15-8.03,17.97c0.07,3.11,0.77,6.24,2.18,9.24
			c3.98,8.47,12.48,13.36,21.27,13.17L247.77,204.66z"/>
	</g>
	<rect x="161.62" y="182.21" class="st22" width="59.74" height="43.66"/>
	<g>
		<g>
			<rect x="164" y="185.05" class="st34" width="8.94" height="7.86"/>
			<rect x="175.8" y="185.05" class="st35" width="43.17" height="7.86"/>
		</g>
		<g>
			<rect x="164" y="195.09" class="st25" width="8.94" height="7.86"/>
			<rect x="175.8" y="195.09" class="st35" width="43.17" height="7.86"/>
		</g>
		<g>
			<rect x="164" y="205.13" class="st32" width="8.94" height="7.86"/>
			<rect x="175.8" y="205.13" class="st35" width="43.17" height="7.86"/>
		</g>
		<g>
			<rect x="164" y="215.17" class="st33" width="8.94" height="7.86"/>
			<rect x="175.8" y="215.17" class="st35" width="43.17" height="7.86"/>
		</g>
	</g>
	<g>
		<path class="st0" d="M164.82,178.16c-0.13-0.13-0.19-0.33-0.19-0.6v-7.92c0-0.27,0.06-0.47,0.19-0.6s0.34-0.2,0.65-0.2h5.8
			c0.3,0,0.5,0.06,0.61,0.19s0.16,0.33,0.16,0.61v0.78c0,0.28-0.05,0.48-0.16,0.61s-0.31,0.19-0.61,0.19h-3.28v1.2h2.02
			c0.3,0,0.5,0.06,0.61,0.19c0.11,0.13,0.16,0.33,0.16,0.61v0.76c0,0.28-0.05,0.48-0.16,0.61c-0.11,0.13-0.31,0.19-0.61,0.19h-2.02
			v1.2h3.26c0.3,0,0.5,0.06,0.61,0.19c0.11,0.13,0.16,0.33,0.16,0.61v0.78c0,0.28-0.05,0.48-0.16,0.61
			c-0.11,0.13-0.31,0.19-0.61,0.19h-5.78C165.17,178.36,164.95,178.29,164.82,178.16z"/>
		<path class="st0" d="M174.45,178.3c-0.73-0.18-1.32-0.42-1.76-0.74c-0.19-0.13-0.28-0.26-0.28-0.38c0-0.08,0.03-0.17,0.1-0.27
			l0.81-1.27c0.08-0.12,0.17-0.18,0.25-0.18c0.07,0,0.16,0.03,0.27,0.1c0.34,0.21,0.72,0.37,1.16,0.48
			c0.43,0.12,0.86,0.18,1.27,0.18c0.34,0,0.59-0.05,0.75-0.14c0.15-0.09,0.23-0.24,0.23-0.43c0-0.21-0.1-0.39-0.31-0.52
			c-0.21-0.13-0.56-0.29-1.06-0.49c-0.94-0.36-1.69-0.78-2.23-1.24c-0.54-0.46-0.81-1.08-0.81-1.84c0-0.97,0.34-1.7,1.02-2.19
			c0.68-0.49,1.59-0.74,2.74-0.74c0.8,0,1.49,0.07,2.05,0.21c0.56,0.14,1.06,0.36,1.48,0.66c0.19,0.13,0.28,0.26,0.28,0.38
			c0,0.08-0.03,0.17-0.1,0.27l-0.81,1.27c-0.08,0.13-0.17,0.2-0.25,0.2c-0.06,0-0.15-0.04-0.27-0.11c-0.22-0.15-0.49-0.27-0.8-0.37
			c-0.31-0.1-0.64-0.15-0.99-0.15c-0.33,0-0.57,0.05-0.74,0.14c-0.17,0.09-0.25,0.24-0.25,0.45c0,0.17,0.06,0.31,0.17,0.42
			s0.26,0.21,0.44,0.29s0.49,0.21,0.92,0.38c0.7,0.28,1.25,0.55,1.65,0.81c0.4,0.26,0.7,0.56,0.91,0.92
			c0.21,0.36,0.31,0.81,0.31,1.37c0,0.84-0.31,1.52-0.94,2.04c-0.63,0.52-1.57,0.78-2.82,0.78
			C175.96,178.57,175.17,178.48,174.45,178.3z"/>
		<path class="st0" d="M183.34,178.16c-0.13-0.13-0.19-0.33-0.19-0.6v-6.34h-2.02c-0.3,0-0.5-0.06-0.61-0.19
			c-0.11-0.13-0.16-0.33-0.16-0.61v-0.78c0-0.28,0.05-0.48,0.16-0.61c0.11-0.13,0.31-0.19,0.61-0.19h7.39c0.3,0,0.5,0.06,0.61,0.19
			c0.11,0.13,0.16,0.33,0.16,0.61v0.78c0,0.28-0.05,0.48-0.16,0.61c-0.11,0.13-0.31,0.19-0.61,0.19h-2.02v6.34
			c0,0.27-0.06,0.47-0.19,0.6c-0.13,0.13-0.35,0.2-0.67,0.2H184C183.69,178.36,183.47,178.29,183.34,178.16z"/>
		<path class="st0" d="M187.69,178.06c0-0.08,0.02-0.19,0.07-0.31l3.49-8.39c0.08-0.2,0.18-0.33,0.29-0.41
			c0.11-0.08,0.26-0.12,0.45-0.12h1.53c0.2,0,0.35,0.04,0.45,0.12c0.11,0.08,0.2,0.22,0.29,0.41l3.47,8.39
			c0.05,0.12,0.07,0.22,0.07,0.31c0,0.2-0.1,0.29-0.31,0.29h-2.63c-0.29,0-0.47-0.13-0.55-0.38l-0.34-1.04h-2.48l-0.32,1.04
			c-0.07,0.25-0.26,0.38-0.55,0.38H188C187.79,178.36,187.69,178.26,187.69,178.06z M193.29,174.73l-0.55-1.74l-0.55,1.74H193.29z"
			/>
		<path class="st0" d="M198.69,178.16c-0.13-0.13-0.19-0.33-0.19-0.6v-7.92c0-0.27,0.06-0.47,0.19-0.6s0.34-0.2,0.65-0.2h3.22
			c3.29,0,4.94,1.59,4.94,4.76c0,1.57-0.42,2.75-1.27,3.56s-2.07,1.2-3.68,1.2h-3.22C199.03,178.36,198.81,178.29,198.69,178.16z
			 M202.68,175.98c0.52,0,0.9-0.17,1.13-0.52c0.23-0.34,0.34-0.97,0.34-1.86c0-0.9-0.11-1.52-0.34-1.86
			c-0.23-0.34-0.6-0.52-1.13-0.52h-0.83v4.76H202.68z"/>
		<path class="st0" d="M209.21,177.27c-0.86-0.86-1.29-2.09-1.29-3.67s0.43-2.81,1.29-3.67c0.86-0.86,2.12-1.3,3.78-1.3
			s2.92,0.43,3.78,1.3c0.86,0.86,1.29,2.09,1.29,3.67s-0.43,2.81-1.29,3.67c-0.86,0.86-2.12,1.29-3.78,1.29
			S210.07,178.14,209.21,177.27z M214.3,175.56c0.27-0.43,0.41-1.09,0.41-1.97c0-0.89-0.14-1.54-0.41-1.97
			c-0.27-0.43-0.71-0.64-1.32-0.64c-0.61,0-1.05,0.21-1.32,0.64c-0.27,0.43-0.41,1.09-0.41,1.97c0,0.88,0.14,1.53,0.41,1.97
			s0.71,0.65,1.32,0.65C213.6,176.22,214.03,176,214.3,175.56z"/>
	</g>
</g>
</svg>
