<?xml version="1.0" encoding="utf-8"?>
<!-- Generator: Adobe Illustrator 23.0.0, SVG Export Plug-In . SVG Version: 6.00 Build 0)  -->
<svg version="1.1" id="Capa_1" xmlns="http://www.w3.org/2000/svg" xmlns:xlink="http://www.w3.org/1999/xlink" x="0px" y="0px"
	 viewBox="0 0 400 702" style="enable-background:new 0 0 400 702;" xml:space="preserve">
<style type="text/css">
	.st0{fill:#0085B0;}
	.st1{fill:#E0EF18;}
	.st2{fill:#CECECE;}
	.st3{fill:#FFFFFF;}
	.st4{fill:#F2F2F2;}
	.st5{fill:#EACCB0;}
	.st6{fill:#9B9B9B;}
	.st7{fill:#939393;}
	.st8{fill:#EFEFEF;}
	.st9{fill:#828282;}
	.st10{fill:#2C2A2D;}
	.st11{fill:#202021;}
	.st12{fill:#F2D4B6;}
	.st13{fill:#534D46;}
	.st14{fill:#E8D313;}
	.st15{fill:#2ACCFF;}
	.st16{fill:#4E4F4F;}
	.st17{fill:#003A94;}
	.st18{fill:#00D13C;}
	.st19{fill:#15682A;}
	.st20{fill:#D40000;}
	.st21{fill:#505050;}
	.st22{fill:#DFDFDF;}
	.st23{fill:none;}
	.st24{fill:#636363;}
	.st25{fill:#6C92D5;}
	.st26{fill:#22272F;}
	.st27{fill:#1B2538;}
	.st28{fill:#253452;}
	.st29{fill:#F9F9F9;}
	.st30{fill:#2D3543;}
	.st31{fill:#2A3D60;}
	.st32{fill:#587955;}
	.st33{fill:#CD7054;}
	.st34{fill:#F1CC4B;}
	.st35{fill:#ACACAC;}
	.st36{fill:#AAE528;}
	.st37{fill:#28CEBA;}
	.st38{fill:#DB143F;}
	.st39{fill:#53C2C9;}
	.st40{fill:#FFB412;}
	.st41{fill:#866A5E;}
	.st42{fill:#F7DDCB;}
	.st43{fill:#FFE6D4;}
	.st44{fill:#F5F5F5;}
	.st45{fill:#1A2830;}
	.st46{fill:#24353F;}
	.st47{fill:#132026;}
	.st48{fill:#F9FF03;}
	.st49{fill:#272728;}
	.st50{fill:#1E1D1E;}
	.st51{fill:#160423;}
	.st52{fill-rule:evenodd;clip-rule:evenodd;fill:#FFFFFF;}
	.st53{fill-rule:evenodd;clip-rule:evenodd;fill:#1996B8;}
	.st54{fill:#0C387D;}
	.st55{fill:#C69A81;}
	.st56{fill:#D1A385;}
	.st57{fill:#EAEAEA;}
	.st58{fill:#093E8C;}
	.st59{fill:#0B2A62;}
	.st60{fill:#D32A3B;}
	.st61{fill:#827C7D;}
	.st62{opacity:0.7;fill:#7F7F7F;}
	.st63{fill:#FDFDFD;}
	.st64{fill:#DAA449;}
	.st65{fill:#DD9225;}
	.st66{opacity:0.3;}
	.st67{fill:#425793;}
	.st68{opacity:0.8;}
	.st69{filter:url(#Adobe_OpacityMaskFilter);}
	.st70{opacity:0.15;mask:url(#SVGID_1_);}
	.st71{fill:#090B00;}
	.st72{opacity:0.1;}
	.st73{fill:#211915;}
	.st74{filter:url(#Adobe_OpacityMaskFilter_1_);}
	.st75{opacity:0.15;mask:url(#SVGID_2_);}
	.st76{fill:#AF3623;}
	.st77{filter:url(#Adobe_OpacityMaskFilter_2_);}
	.st78{opacity:0.15;mask:url(#SVGID_3_);}
	.st79{filter:url(#Adobe_OpacityMaskFilter_3_);}
	.st80{opacity:0.15;mask:url(#SVGID_4_);}
	.st81{fill:#456495;}
	.st82{filter:url(#Adobe_OpacityMaskFilter_4_);}
	.st83{opacity:0.15;mask:url(#SVGID_5_);}
	.st84{filter:url(#Adobe_OpacityMaskFilter_5_);}
	.st85{opacity:0.15;mask:url(#SVGID_6_);}
	.st86{fill:#76A9DA;}
	.st87{filter:url(#Adobe_OpacityMaskFilter_6_);}
	.st88{opacity:0.15;mask:url(#SVGID_7_);}
	.st89{filter:url(#Adobe_OpacityMaskFilter_7_);}
	.st90{opacity:0.15;mask:url(#SVGID_8_);}
	.st91{fill:#1F3642;}
	.st92{fill:#A9BDDA;}
	.st93{opacity:0.46;fill:#A6B4BC;}
	.st94{fill:#74C475;}
	.st95{fill:#221F21;}
	.st96{fill:#2D2D2D;}
	.st97{fill:#1C1B1A;}
	.st98{fill:#77181C;}
	.st99{fill:#262525;}
	.st100{fill:#11100F;}
	.st101{opacity:0.18;}
	.st102{opacity:0.38;}
	.st103{fill:#0A5B1F;}
	.st104{opacity:0.27;}
	.st105{opacity:0.48;}
	.st106{fill:#0A4654;}
	.st107{fill:#C2C6C6;}
	.st108{fill:#E5E5E5;stroke:#FFFFFF;stroke-miterlimit:10;}
	.st109{fill:#ACB4B5;}
	.st110{fill:#7F8384;}
	.st111{fill:#15772F;}
	.st112{fill:#F4F4F4;}
	.st113{fill:#53B8DB;}
	.st114{fill:#06EF42;}
	.st115{fill:#E7ED07;}
	.st116{fill:#CCCCCA;}
	.st117{fill:#EADF13;}
	.st118{fill:#C2C2C2;}
	.st119{fill:#85B681;}
	.st120{fill:#A1DC9B;}
	.st121{fill:#90C58B;}
	.st122{fill:#22241F;}
	.st123{opacity:0.5;}
	.st124{fill:#A2CADE;}
	.st125{fill:#E9E9E9;}
	.st126{fill:#D9D9D9;}
	.st127{fill:#CDCDCD;}
	.st128{opacity:0.34;fill:#F0F0F0;}
	.st129{fill:#5A5B5A;}
	.st130{fill:#FFE600;}
	.st131{fill:#DB1F59;}
	.st132{fill:#727272;}
	.st133{fill:#207235;}
	.st134{fill:#A3A3A3;}
	.st135{fill:#BCBCBC;}
	.st136{fill:#0A511C;}
	.st137{fill:#F9FF00;}
	.st138{fill:#D59F6D;}
	.st139{fill:#C0804A;}
	.st140{fill:#E6BA8A;}
	.st141{fill:#BE3ACC;}
	.st142{fill:#FFFFFF;stroke:#443F0C;stroke-width:9;stroke-miterlimit:10;}
	.st143{fill:none;stroke:#443F0C;stroke-width:9;stroke-miterlimit:10;}
	.st144{fill:#170623;}
	.st145{fill:#158231;}
	.st146{fill:#C89D76;}
	.st147{opacity:0.4;}
	.st148{fill:#ADADAD;}
	.st149{fill:#EDC3A6;}
	.st150{opacity:0.69;}
	.st151{fill:#E5D3D6;}
	.st152{opacity:0.44;}
	.st153{fill:#A5A5A5;}
	.st154{fill:#DDE5E4;}
	.st155{fill:#5C9169;}
	.st156{fill:#934215;}
	.st157{fill:#47413B;}
	.st158{fill:#601A1F;}
	.st159{fill:#044554;}
	.st160{opacity:0.7;}
	.st161{fill:#7F7F7F;}
	.st162{fill:#6B8A69;}
	.st163{opacity:0.24;fill:#848D90;}
	.st164{opacity:0.4;fill:#848D90;}
	.st165{fill:#F2D5D5;}
	.st166{fill:#485CC1;}
	.st167{fill:#C6CBE0;}
	.st168{fill:#8B909E;}
	.st169{fill:#53BC1B;}
	.st170{fill:#11565B;}
	.st171{fill:#67A06D;}
	.st172{fill:#FFEC00;}
	.st173{fill:#77A007;}
	.st174{fill:#E50731;}
	.st175{fill:#266472;}
	.st176{fill:#D4D4D4;}
	.st177{fill:#0E9932;}
	.st178{fill:#87DD24;}
	.st179{fill:#76A172;}
	.st180{fill:#62835F;}
	.st181{fill:#96D090;}
	.st182{fill:#D6D6D6;}
	.st183{fill:#606060;}
	.st184{fill:#494949;}
	.st185{fill:#29E55A;}
	.st186{fill:#2C703D;}
	.st187{fill:#DD0744;}
	.st188{fill:#EDEDED;}
	.st189{fill:#2A5936;}
	.st190{fill:#B9BBC1;}
	.st191{fill:#FFD79E;}
	.st192{fill:#FFE6C2;}
	.st193{fill:#2CBB55;}
	.st194{fill:#5C412D;}
	.st195{fill:#EC0000;}
	.st196{fill:#DD2626;}
	.st197{fill:#EA9334;}
	.st198{fill:#FCC232;}
	.st199{fill:#F9B234;}
	.st200{fill:#F7A037;}
	.st201{fill:#E0E0E0;}
</style>
<g>
	<g>
		<path class="st0" d="M9.5,209.36c0,22,13.29,27.86,29.54,13.03c0,0,156.99-143.3,353.09,26.97V55c0-22-18-40-40-40H49.5
			c-22,0-40,18-40,40V209.36z"/>
	</g>
	<g>
		<path class="st0" d="M391.66,647c0,22-18,40-40,40H49.98c-22,0-40-18-40-40v-46.27c0-22,18-40,40-40h301.68c22,0,40,18,40,40V647z
			"/>
	</g>
	<polygon class="st1" points="200.76,96.93 214.23,124.22 244.34,128.59 222.55,149.83 227.7,179.83 200.76,165.67 173.83,179.83 
		178.97,149.83 157.18,128.59 187.29,124.22 	"/>
	<polygon class="st1" points="138.58,180.15 147.32,197.86 166.86,200.7 152.72,214.48 156.06,233.94 138.58,224.75 121.11,233.94 
		124.45,214.48 110.31,200.7 129.85,197.86 	"/>
	<polygon class="st1" points="268.68,180.15 277.42,197.86 296.95,200.7 282.82,214.48 286.15,233.94 268.68,224.75 251.2,233.94 
		254.54,214.48 240.4,200.7 259.94,197.86 	"/>
	<circle class="st2" cx="201.77" cy="213.97" r="121.96"/>
	<circle class="st3" cx="200.82" cy="200.58" r="121.96"/>
	<g>
		<path class="st3" d="M176.43,640.35v-4.31c0-2.87,0.97-5.57,2.92-8.1c1.95-2.53,5.35-5.5,10.22-8.91c1.7-1.17,2.75-1.87,3.14-2.12
			c1.75-1.17,2.97-2.04,3.65-2.63c0.68-0.58,1.19-1.22,1.53-1.9c0.34-0.68,0.51-1.56,0.51-2.63c0-1.22-0.45-2.2-1.35-2.96
			c-0.9-0.75-2.28-1.13-4.13-1.13c-3.12,0-6.28,0.8-9.49,2.41c-0.78,0.39-1.34,0.58-1.68,0.58c-0.54,0-1-0.34-1.39-1.02l-3.65-6.28
			c-0.44-0.78-0.66-1.39-0.66-1.82c0-0.54,0.29-1.02,0.88-1.46c2.09-1.41,4.79-2.54,8.1-3.39c3.31-0.85,6.93-1.28,10.88-1.28
			c6.13,0,10.99,1.28,14.56,3.83c3.58,2.55,5.37,6.17,5.37,10.84c0,3.6-1,6.66-2.99,9.16c-2,2.51-5.26,5.22-9.78,8.14
			c-4.82,3.12-7.71,5.21-8.69,6.28h17.81c1.56,0,2.62,0.33,3.18,0.99c0.56,0.66,0.84,1.71,0.84,3.17v4.16
			c0,1.46-0.28,2.52-0.84,3.18c-0.56,0.66-1.62,0.99-3.18,0.99h-32.12C177.65,644.14,176.43,642.88,176.43,640.35z"/>
	</g>
	<g>
		<path d="M58.93,406.15c0-0.23,0.06-0.51,0.19-0.84l9.46-22.76c0.23-0.53,0.49-0.91,0.78-1.12c0.29-0.21,0.7-0.32,1.24-0.32h4.14
			c0.53,0,0.94,0.11,1.24,0.32c0.29,0.21,0.55,0.59,0.78,1.12l9.42,22.76c0.13,0.33,0.19,0.61,0.19,0.84c0,0.53-0.28,0.8-0.84,0.8
			h-7.14c-0.79,0-1.28-0.34-1.48-1.03l-0.91-2.81h-6.73l-0.87,2.81c-0.2,0.68-0.7,1.03-1.48,1.03h-7.14
			C59.21,406.95,58.93,406.69,58.93,406.15z M74.13,397.11l-1.48-4.71l-1.48,4.71H74.13z"/>
		<path d="M91.53,406.33c-1.88-0.8-3.33-1.95-4.37-3.46c-1.04-1.51-1.56-3.3-1.56-5.38v-14.21c0-0.74,0.17-1.28,0.51-1.63
			c0.34-0.36,0.93-0.53,1.77-0.53h4.52c0.86,0,1.46,0.17,1.8,0.51s0.51,0.89,0.51,1.65v14.33c0,1.19,0.3,2.08,0.89,2.66
			c0.59,0.58,1.41,0.87,2.45,0.87c1.04,0,1.86-0.29,2.45-0.87c0.59-0.58,0.89-1.47,0.89-2.66v-14.33c0-0.74,0.17-1.28,0.51-1.63
			c0.34-0.36,0.93-0.53,1.77-0.53h4.52c0.86,0,1.46,0.17,1.81,0.51c0.34,0.34,0.51,0.89,0.51,1.65v14.21c0,2.08-0.52,3.87-1.56,5.38
			c-1.04,1.51-2.5,2.66-4.37,3.46s-4.05,1.2-6.54,1.2C95.59,407.52,93.41,407.12,91.53,406.33z"/>
		<path d="M119.56,406.42c-0.34-0.35-0.51-0.9-0.51-1.63v-17.21h-5.47c-0.81,0-1.36-0.17-1.65-0.51c-0.29-0.34-0.44-0.89-0.44-1.65
			v-2.13c0-0.76,0.15-1.31,0.44-1.65s0.84-0.51,1.65-0.51h20.06c0.81,0,1.36,0.17,1.65,0.51c0.29,0.34,0.44,0.89,0.44,1.65v2.13
			c0,0.76-0.15,1.31-0.44,1.65c-0.29,0.34-0.84,0.51-1.65,0.51h-5.47v17.21c0,0.74-0.17,1.28-0.51,1.63
			c-0.34,0.36-0.94,0.53-1.8,0.53h-4.52C120.49,406.95,119.9,406.78,119.56,406.42z"/>
		<path d="M137.89,404.01c-2.33-2.34-3.5-5.67-3.5-9.97s1.17-7.63,3.5-9.98c2.33-2.34,5.75-3.51,10.26-3.51
			c4.51,0,7.93,1.17,10.26,3.51c2.33,2.34,3.5,5.67,3.5,9.98s-1.17,7.63-3.5,9.97c-2.33,2.34-5.75,3.52-10.26,3.52
			C143.64,407.52,140.22,406.35,137.89,404.01z M151.72,399.37c0.73-1.18,1.1-2.96,1.1-5.34c0-2.41-0.37-4.19-1.1-5.36
			c-0.73-1.17-1.92-1.75-3.57-1.75c-1.65,0-2.84,0.58-3.57,1.75c-0.74,1.17-1.1,2.95-1.1,5.36c0,2.38,0.37,4.16,1.1,5.34
			c0.73,1.18,1.92,1.77,3.57,1.77C149.8,401.14,150.99,400.55,151.72,399.37z"/>
		<path d="M164.32,406.42c-0.34-0.35-0.51-0.9-0.51-1.63v-21.51c0-0.74,0.17-1.28,0.51-1.63c0.34-0.36,0.93-0.53,1.77-0.53h9.08
			c3.8,0,6.57,0.75,8.3,2.26c1.73,1.51,2.6,3.78,2.6,6.82c0,1.82-0.31,3.36-0.93,4.62c-0.62,1.25-1.58,2.24-2.87,2.94l3.53,7.56
			c0.1,0.2,0.15,0.43,0.15,0.68c0,0.28-0.09,0.51-0.29,0.68c-0.19,0.18-0.44,0.27-0.74,0.27h-6.42c-0.41,0-0.73-0.06-0.97-0.17
			s-0.41-0.31-0.51-0.59l-2.81-7.07h-1.29v5.66c0,0.74-0.17,1.28-0.51,1.63c-0.34,0.36-0.94,0.53-1.8,0.53h-4.52
			C165.25,406.95,164.66,406.78,164.32,406.42z M174.37,392.78c0.81,0,1.45-0.21,1.92-0.65c0.47-0.43,0.7-1.08,0.7-1.94
			c0-0.89-0.24-1.54-0.7-1.98c-0.47-0.43-1.11-0.65-1.92-0.65h-2.58v5.21H174.37z"/>
		<path d="M188.49,406.42c-0.34-0.35-0.51-0.9-0.51-1.63v-21.51c0-0.74,0.17-1.28,0.51-1.63c0.34-0.36,0.93-0.53,1.77-0.53h4.52
			c0.86,0,1.46,0.17,1.81,0.51s0.51,0.89,0.51,1.65v21.51c0,0.74-0.17,1.28-0.51,1.63c-0.34,0.36-0.94,0.53-1.81,0.53h-4.52
			C189.42,406.95,188.83,406.78,188.49,406.42z"/>
		<path d="M199.38,406.52c-0.25-0.29-0.38-0.83-0.38-1.62c0-0.81,0.07-1.44,0.21-1.9s0.49-1.05,1.04-1.79l9.99-13.64h-8.78
			c-0.84,0-1.43-0.18-1.77-0.53c-0.34-0.35-0.51-0.9-0.51-1.63v-2.13c0-0.74,0.17-1.28,0.51-1.63c0.34-0.36,0.93-0.53,1.77-0.53
			h18.77c0.76,0,1.27,0.15,1.52,0.44c0.25,0.29,0.38,0.83,0.38,1.62s-0.07,1.41-0.21,1.86c-0.14,0.46-0.49,1.06-1.04,1.82
			l-9.92,13.64h8.97c0.84,0,1.43,0.18,1.77,0.53s0.51,0.9,0.51,1.63v2.13c0,0.74-0.17,1.28-0.51,1.63
			c-0.34,0.36-0.93,0.53-1.77,0.53H200.9C200.14,406.95,199.63,406.81,199.38,406.52z"/>
		<path d="M222.4,406.15c0-0.23,0.06-0.51,0.19-0.84l9.46-22.76c0.23-0.53,0.49-0.91,0.78-1.12c0.29-0.21,0.7-0.32,1.23-0.32h4.14
			c0.53,0,0.94,0.11,1.23,0.32s0.55,0.59,0.78,1.12l9.42,22.76c0.13,0.33,0.19,0.61,0.19,0.84c0,0.53-0.28,0.8-0.84,0.8h-7.14
			c-0.79,0-1.28-0.34-1.48-1.03l-0.91-2.81h-6.73l-0.87,2.81c-0.2,0.68-0.7,1.03-1.48,1.03h-7.14
			C222.68,406.95,222.4,406.69,222.4,406.15z M237.6,397.11l-1.48-4.71l-1.48,4.71H237.6z"/>
		<path d="M252.73,404.12c-2.56-2.27-3.84-5.63-3.84-10.09c0-4.48,1.23-7.85,3.71-10.11c2.47-2.25,6-3.38,10.58-3.38
			c2.08,0,3.93,0.2,5.55,0.61s2.98,0.97,4.07,1.71c0.3,0.23,0.46,0.48,0.46,0.76c0,0.23-0.11,0.54-0.34,0.95l-1.9,3.27
			c-0.2,0.36-0.44,0.53-0.72,0.53c-0.18,0-0.47-0.1-0.87-0.3c-0.71-0.35-1.45-0.63-2.22-0.84c-0.77-0.2-1.68-0.3-2.72-0.3
			c-2.1,0-3.71,0.61-4.83,1.82c-1.12,1.22-1.67,2.98-1.67,5.28c0,2.28,0.61,4.03,1.82,5.26c1.21,1.23,2.88,1.84,4.98,1.84
			c1.82,0,3.5-0.38,5.02-1.14c0.4-0.2,0.7-0.3,0.87-0.3c0.28,0,0.52,0.18,0.72,0.53l1.9,3.27c0.23,0.41,0.34,0.72,0.34,0.95
			c0,0.28-0.15,0.53-0.46,0.76c-1.09,0.74-2.46,1.3-4.1,1.71s-3.51,0.61-5.59,0.61C258.87,407.52,255.29,406.39,252.73,404.12z"/>
		<path d="M276.04,406.42c-0.34-0.35-0.51-0.9-0.51-1.63v-21.51c0-0.74,0.17-1.28,0.51-1.63c0.34-0.36,0.93-0.53,1.77-0.53h4.52
			c0.86,0,1.46,0.17,1.81,0.51s0.51,0.89,0.51,1.65v21.51c0,0.74-0.17,1.28-0.51,1.63c-0.34,0.36-0.94,0.53-1.81,0.53h-4.52
			C276.97,406.95,276.38,406.78,276.04,406.42z"/>
		<path d="M290.04,404.01c-2.33-2.34-3.5-5.67-3.5-9.97s1.16-7.63,3.5-9.98c2.33-2.34,5.75-3.51,10.26-3.51
			c4.51,0,7.93,1.17,10.26,3.51c2.33,2.34,3.5,5.67,3.5,9.98s-1.17,7.63-3.5,9.97c-2.33,2.34-5.75,3.52-10.26,3.52
			C295.79,407.52,292.38,406.35,290.04,404.01z M303.88,399.37c0.73-1.18,1.1-2.96,1.1-5.34c0-2.41-0.37-4.19-1.1-5.36
			c-0.74-1.17-1.93-1.75-3.57-1.75c-1.65,0-2.84,0.58-3.57,1.75c-0.73,1.17-1.1,2.95-1.1,5.36c0,2.38,0.37,4.16,1.1,5.34
			s1.92,1.77,3.57,1.77C301.95,401.14,303.14,400.55,303.88,399.37z M296.28,377.92c0-0.2,0.04-0.42,0.11-0.65l1.6-4.41
			c0.2-0.58,0.44-0.98,0.72-1.18c0.28-0.2,0.8-0.3,1.56-0.3h5.43c0.53,0,0.95,0.09,1.25,0.28c0.3,0.19,0.46,0.46,0.46,0.82
			c0,0.3-0.1,0.62-0.3,0.95l-2.43,4.1c-0.35,0.61-0.7,1-1.03,1.18c-0.33,0.18-0.92,0.27-1.79,0.27h-4.07
			C296.78,378.98,296.28,378.63,296.28,377.92z"/>
		<path d="M316.47,406.42c-0.34-0.35-0.51-0.9-0.51-1.63v-21.55c0-0.73,0.17-1.27,0.51-1.62c0.34-0.34,0.94-0.51,1.81-0.51h3.61
			c0.53,0,0.94,0.07,1.23,0.21s0.58,0.41,0.86,0.82l6.88,10.22v-9.08c0-0.74,0.17-1.28,0.51-1.63c0.34-0.36,0.93-0.53,1.77-0.53
			h4.52c0.86,0,1.46,0.17,1.8,0.51s0.51,0.89,0.51,1.65v21.55c0,0.74-0.17,1.27-0.51,1.62c-0.34,0.34-0.94,0.51-1.8,0.51h-3.61
			c-0.53,0-0.94-0.07-1.24-0.21c-0.29-0.14-0.58-0.41-0.85-0.82l-6.88-10.22v9.12c0,0.74-0.17,1.27-0.51,1.62
			c-0.34,0.34-0.94,0.51-1.81,0.51h-4.52C317.4,406.95,316.82,406.78,316.47,406.42z"/>
		<path d="M85.49,452.02c-0.34-0.35-0.51-0.9-0.51-1.63v-21.51c0-0.73,0.17-1.28,0.51-1.63s0.93-0.53,1.77-0.53H96
			c8.94,0,13.41,4.31,13.41,12.92c0,4.26-1.15,7.47-3.44,9.65s-5.62,3.27-9.97,3.27h-8.74C86.42,452.55,85.83,452.38,85.49,452.02z
			 M96.34,446.09c1.42,0,2.44-0.47,3.06-1.41c0.62-0.94,0.93-2.62,0.93-5.05s-0.31-4.12-0.93-5.05s-1.64-1.41-3.06-1.41H94.1v12.92
			H96.34z"/>
		<path d="M111.83,452.02c-0.34-0.35-0.51-0.9-0.51-1.63v-21.51c0-0.73,0.17-1.28,0.51-1.63s0.93-0.53,1.77-0.53h15.73
			c0.81,0,1.36,0.17,1.65,0.51s0.44,0.89,0.44,1.65v2.13c0,0.76-0.15,1.31-0.44,1.65c-0.29,0.34-0.84,0.51-1.65,0.51h-8.89v3.27
			h5.47c0.81,0,1.36,0.17,1.65,0.51c0.29,0.34,0.44,0.89,0.44,1.65v2.05c0,0.76-0.15,1.31-0.44,1.65s-0.84,0.51-1.65,0.51h-5.47
			v3.27h8.85c0.81,0,1.36,0.17,1.65,0.51c0.29,0.34,0.44,0.89,0.44,1.65v2.13c0,0.76-0.15,1.31-0.44,1.65
			c-0.29,0.34-0.84,0.51-1.65,0.51h-15.69C112.76,452.55,112.17,452.38,111.83,452.02z"/>
		<path d="M147.26,449.61c-2.33-2.34-3.5-5.67-3.5-9.97s1.17-7.63,3.5-9.97c2.33-2.34,5.75-3.52,10.26-3.52
			c4.51,0,7.93,1.17,10.26,3.52c2.33,2.34,3.5,5.67,3.5,9.97s-1.17,7.63-3.5,9.97c-2.33,2.34-5.75,3.52-10.26,3.52
			C153.01,453.12,149.59,451.95,147.26,449.61z M161.09,444.97c0.73-1.18,1.1-2.96,1.1-5.34c0-2.41-0.37-4.19-1.1-5.36
			c-0.73-1.17-1.92-1.75-3.57-1.75c-1.65,0-2.84,0.58-3.57,1.75c-0.74,1.17-1.1,2.95-1.1,5.36c0,2.38,0.37,4.16,1.1,5.34
			c0.73,1.18,1.92,1.77,3.57,1.77C159.17,446.74,160.36,446.15,161.09,444.97z M153.49,423.52c0-0.2,0.04-0.42,0.11-0.65l1.6-4.41
			c0.2-0.58,0.44-0.97,0.72-1.18c0.28-0.2,0.8-0.3,1.56-0.3h5.43c0.53,0,0.95,0.1,1.25,0.29c0.3,0.19,0.46,0.46,0.46,0.82
			c0,0.3-0.1,0.62-0.3,0.95l-2.43,4.1c-0.36,0.61-0.7,1-1.03,1.18c-0.33,0.18-0.92,0.27-1.79,0.27h-4.07
			C154,424.58,153.49,424.23,153.49,423.52z"/>
		<path d="M173.69,452.02c-0.34-0.35-0.51-0.9-0.51-1.63v-21.51c0-0.73,0.17-1.28,0.51-1.63s0.93-0.53,1.77-0.53h9.08
			c3.8,0,6.57,0.75,8.3,2.26c1.73,1.51,2.6,3.78,2.6,6.82c0,1.82-0.31,3.36-0.93,4.62c-0.62,1.25-1.58,2.24-2.87,2.94l3.53,7.56
			c0.1,0.2,0.15,0.43,0.15,0.68c0,0.28-0.09,0.51-0.29,0.68c-0.19,0.18-0.44,0.27-0.74,0.27h-6.42c-0.41,0-0.73-0.06-0.97-0.17
			s-0.41-0.31-0.51-0.59l-2.81-7.07h-1.29v5.66c0,0.74-0.17,1.28-0.51,1.63c-0.34,0.36-0.94,0.53-1.8,0.53h-4.52
			C174.62,452.55,174.03,452.38,173.69,452.02z M183.74,438.38c0.81,0,1.45-0.21,1.92-0.65c0.47-0.43,0.7-1.08,0.7-1.94
			c0-0.89-0.24-1.54-0.7-1.98c-0.47-0.43-1.11-0.65-1.92-0.65h-2.58v5.21H183.74z"/>
		<path d="M197.86,452.02c-0.34-0.35-0.51-0.9-0.51-1.63v-21.51c0-0.73,0.17-1.28,0.51-1.63c0.34-0.35,0.93-0.53,1.77-0.53h8.74
			c8.94,0,13.41,4.31,13.41,12.92c0,4.26-1.15,7.47-3.44,9.65c-2.29,2.18-5.62,3.27-9.98,3.27h-8.74
			C198.79,452.55,198.2,452.38,197.86,452.02z M208.71,446.09c1.42,0,2.44-0.47,3.06-1.41c0.62-0.94,0.93-2.62,0.93-5.05
			s-0.31-4.12-0.93-5.05c-0.62-0.94-1.64-1.41-3.06-1.41h-2.24v12.92H208.71z"/>
		<path d="M224.19,452.02c-0.34-0.35-0.51-0.9-0.51-1.63v-21.51c0-0.73,0.17-1.28,0.51-1.63c0.34-0.35,0.93-0.53,1.77-0.53h15.73
			c0.81,0,1.36,0.17,1.65,0.51c0.29,0.34,0.44,0.89,0.44,1.65v2.13c0,0.76-0.15,1.31-0.44,1.65c-0.29,0.34-0.84,0.51-1.65,0.51
			h-8.89v3.27h5.47c0.81,0,1.36,0.17,1.65,0.51c0.29,0.34,0.44,0.89,0.44,1.65v2.05c0,0.76-0.15,1.31-0.44,1.65
			c-0.29,0.34-0.84,0.51-1.65,0.51h-5.47v3.27h8.85c0.81,0,1.36,0.17,1.65,0.51s0.44,0.89,0.44,1.65v2.13
			c0,0.76-0.15,1.31-0.44,1.65c-0.29,0.34-0.84,0.51-1.65,0.51h-15.7C225.12,452.55,224.53,452.38,224.19,452.02z"/>
		<path d="M246,452.02c-0.34-0.35-0.51-0.9-0.51-1.63v-21.55c0-0.73,0.17-1.27,0.51-1.62s0.94-0.51,1.8-0.51h3.61
			c0.53,0,0.94,0.07,1.24,0.21c0.29,0.14,0.58,0.41,0.86,0.82l6.88,10.22v-9.08c0-0.73,0.17-1.28,0.51-1.63s0.93-0.53,1.77-0.53
			h4.52c0.86,0,1.46,0.17,1.8,0.51s0.51,0.89,0.51,1.65v21.55c0,0.74-0.17,1.27-0.51,1.62c-0.34,0.34-0.94,0.51-1.8,0.51h-3.61
			c-0.53,0-0.94-0.07-1.24-0.21c-0.29-0.14-0.58-0.41-0.85-0.82l-6.88-10.22v9.12c0,0.74-0.17,1.27-0.51,1.62
			c-0.34,0.34-0.94,0.51-1.8,0.51h-4.52C246.93,452.55,246.34,452.38,246,452.02z"/>
		<path d="M272.68,452.02c-0.34-0.35-0.51-0.9-0.51-1.63v-21.51c0-0.73,0.17-1.28,0.51-1.63s0.93-0.53,1.77-0.53h15.73
			c0.81,0,1.36,0.17,1.65,0.51s0.44,0.89,0.44,1.65v2.13c0,0.76-0.15,1.31-0.44,1.65c-0.29,0.34-0.84,0.51-1.65,0.51h-8.89v3.27
			h5.47c0.81,0,1.36,0.17,1.65,0.51c0.29,0.34,0.44,0.89,0.44,1.65v2.05c0,0.76-0.15,1.31-0.44,1.65s-0.84,0.51-1.65,0.51h-5.47
			v3.27h8.85c0.81,0,1.36,0.17,1.65,0.51c0.29,0.34,0.44,0.89,0.44,1.65v2.13c0,0.76-0.15,1.31-0.44,1.65
			c-0.29,0.34-0.84,0.51-1.65,0.51h-15.69C273.61,452.55,273.02,452.38,272.68,452.02z"/>
		<path d="M298.8,452.4c-1.98-0.48-3.57-1.15-4.79-2.01c-0.51-0.35-0.76-0.7-0.76-1.03c0-0.23,0.09-0.47,0.27-0.72l2.2-3.46
			c0.23-0.33,0.46-0.49,0.68-0.49c0.2,0,0.44,0.09,0.72,0.27c0.91,0.56,1.96,0.99,3.13,1.31c1.18,0.32,2.32,0.47,3.44,0.47
			c0.94,0,1.61-0.13,2.03-0.38c0.42-0.25,0.63-0.65,0.63-1.18c0-0.58-0.28-1.05-0.84-1.41c-0.56-0.35-1.52-0.8-2.89-1.33
			c-2.56-0.99-4.57-2.11-6.04-3.36c-1.47-1.25-2.2-2.92-2.2-5c0-2.63,0.92-4.62,2.75-5.95s4.31-2,7.43-2c2.18,0,4.03,0.19,5.57,0.57
			c1.53,0.38,2.87,0.98,4.01,1.79c0.51,0.35,0.76,0.7,0.76,1.03c0,0.23-0.09,0.47-0.27,0.72l-2.2,3.46
			c-0.23,0.35-0.46,0.53-0.68,0.53c-0.15,0-0.39-0.1-0.72-0.3c-0.61-0.41-1.33-0.74-2.17-1.01s-1.74-0.4-2.7-0.4
			c-0.89,0-1.56,0.13-2.01,0.38c-0.46,0.25-0.68,0.66-0.68,1.22c0,0.46,0.16,0.84,0.47,1.14s0.72,0.56,1.2,0.78
			c0.48,0.21,1.32,0.56,2.51,1.04c1.9,0.76,3.39,1.49,4.48,2.18c1.09,0.7,1.91,1.53,2.47,2.51c0.56,0.98,0.84,2.21,0.84,3.71
			c0,2.28-0.85,4.12-2.57,5.53c-1.71,1.41-4.26,2.11-7.66,2.11C302.92,453.12,300.78,452.88,298.8,452.4z"/>
	</g>
	<g>
		<path class="st167" d="M155.72,130c-3.15,0-5.72,2.57-5.72,5.72v131.56c0,3.15,2.57,5.72,5.72,5.72h101.05
			c3.15,0,5.72-2.57,5.72-5.72V161.16l-37-31.16H155.72z"/>
		<path class="st168" d="M225.31,130v21.93c0,0,0,6.2,9.06,8.58l28.12,0.48L225.31,130z"/>
	</g>
	<circle class="st3" cx="206.5" cy="204.5" r="33.5"/>
	<g>
		
			<rect x="184.73" y="202.79" transform="matrix(0.7724 0.6351 -0.6351 0.7724 176.8897 -77.0097)" class="st0" width="22.35" height="11.07"/>
		
			<rect x="194.56" y="197.4" transform="matrix(0.7449 -0.6672 0.6672 0.7449 -81.3301 193.1272)" class="st0" width="34.63" height="11.02"/>
	</g>
</g>
</svg>
