<?xml version="1.0" encoding="utf-8"?>
<!-- Generator: Adobe Illustrator 23.0.0, SVG Export Plug-In . SVG Version: 6.00 Build 0)  -->
<svg version="1.1" id="Capa_1" xmlns="http://www.w3.org/2000/svg" xmlns:xlink="http://www.w3.org/1999/xlink" x="0px" y="0px"
	 viewBox="0 0 400 702" style="enable-background:new 0 0 400 702;" xml:space="preserve">
<style type="text/css">
	.st0{fill:#0085B0;}
	.st1{fill:#E0EF18;}
	.st2{fill:#CECECE;}
	.st3{fill:#FFFFFF;}
	.st4{fill:#F2F2F2;}
	.st5{fill:#EACCB0;}
	.st6{fill:#9B9B9B;}
	.st7{fill:#939393;}
	.st8{fill:#EFEFEF;}
	.st9{fill:#828282;}
	.st10{fill:#2C2A2D;}
	.st11{fill:#202021;}
	.st12{fill:#F2D4B6;}
	.st13{fill:#534D46;}
	.st14{fill:#E8D313;}
	.st15{fill:#2ACCFF;}
	.st16{fill:#4E4F4F;}
	.st17{fill:#003A94;}
	.st18{fill:#00D13C;}
	.st19{fill:#15682A;}
	.st20{fill:#D40000;}
	.st21{fill:#505050;}
	.st22{fill:#DFDFDF;}
	.st23{fill:none;}
	.st24{fill:#636363;}
	.st25{fill:#6C92D5;}
	.st26{fill:#22272F;}
	.st27{fill:#1B2538;}
	.st28{fill:#253452;}
	.st29{fill:#F9F9F9;}
	.st30{fill:#2D3543;}
	.st31{fill:#2A3D60;}
	.st32{fill:#587955;}
	.st33{fill:#CD7054;}
	.st34{fill:#F1CC4B;}
	.st35{fill:#ACACAC;}
	.st36{fill:#AAE528;}
	.st37{fill:#28CEBA;}
	.st38{fill:#DB143F;}
	.st39{fill:#53C2C9;}
	.st40{fill:#FFB412;}
	.st41{fill:#866A5E;}
	.st42{fill:#F7DDCB;}
	.st43{fill:#FFE6D4;}
	.st44{fill:#F5F5F5;}
	.st45{fill:#1A2830;}
	.st46{fill:#24353F;}
	.st47{fill:#132026;}
	.st48{fill:#F9FF03;}
	.st49{fill:#272728;}
	.st50{fill:#1E1D1E;}
	.st51{fill:#160423;}
	.st52{fill-rule:evenodd;clip-rule:evenodd;fill:#FFFFFF;}
	.st53{fill-rule:evenodd;clip-rule:evenodd;fill:#1996B8;}
	.st54{fill:#0C387D;}
	.st55{fill:#C69A81;}
	.st56{fill:#D1A385;}
	.st57{fill:#EAEAEA;}
	.st58{fill:#093E8C;}
	.st59{fill:#0B2A62;}
	.st60{fill:#D32A3B;}
	.st61{fill:#827C7D;}
	.st62{opacity:0.7;fill:#7F7F7F;}
	.st63{fill:#FDFDFD;}
	.st64{fill:#DAA449;}
	.st65{fill:#DD9225;}
	.st66{opacity:0.3;}
	.st67{fill:#425793;}
	.st68{opacity:0.8;}
	.st69{filter:url(#Adobe_OpacityMaskFilter);}
	.st70{opacity:0.15;mask:url(#SVGID_1_);}
	.st71{fill:#090B00;}
	.st72{opacity:0.1;}
	.st73{fill:#211915;}
	.st74{filter:url(#Adobe_OpacityMaskFilter_1_);}
	.st75{opacity:0.15;mask:url(#SVGID_2_);}
	.st76{fill:#AF3623;}
	.st77{filter:url(#Adobe_OpacityMaskFilter_2_);}
	.st78{opacity:0.15;mask:url(#SVGID_3_);}
	.st79{filter:url(#Adobe_OpacityMaskFilter_3_);}
	.st80{opacity:0.15;mask:url(#SVGID_4_);}
	.st81{fill:#456495;}
	.st82{filter:url(#Adobe_OpacityMaskFilter_4_);}
	.st83{opacity:0.15;mask:url(#SVGID_5_);}
	.st84{filter:url(#Adobe_OpacityMaskFilter_5_);}
	.st85{opacity:0.15;mask:url(#SVGID_6_);}
	.st86{fill:#76A9DA;}
	.st87{filter:url(#Adobe_OpacityMaskFilter_6_);}
	.st88{opacity:0.15;mask:url(#SVGID_7_);}
	.st89{filter:url(#Adobe_OpacityMaskFilter_7_);}
	.st90{opacity:0.15;mask:url(#SVGID_8_);}
	.st91{fill:#1F3642;}
	.st92{fill:#A9BDDA;}
	.st93{opacity:0.46;fill:#A6B4BC;}
	.st94{fill:#74C475;}
	.st95{fill:#221F21;}
	.st96{fill:#2D2D2D;}
	.st97{fill:#1C1B1A;}
	.st98{fill:#77181C;}
	.st99{fill:#262525;}
	.st100{fill:#11100F;}
	.st101{opacity:0.18;}
	.st102{opacity:0.38;}
	.st103{fill:#0A5B1F;}
	.st104{opacity:0.27;}
	.st105{opacity:0.48;}
	.st106{fill:#0A4654;}
	.st107{fill:#C2C6C6;}
	.st108{fill:#E5E5E5;stroke:#FFFFFF;stroke-miterlimit:10;}
	.st109{fill:#ACB4B5;}
	.st110{fill:#7F8384;}
	.st111{fill:#15772F;}
	.st112{fill:#F4F4F4;}
	.st113{fill:#53B8DB;}
	.st114{fill:#06EF42;}
	.st115{fill:#E7ED07;}
	.st116{fill:#CCCCCA;}
	.st117{fill:#EADF13;}
	.st118{fill:#C2C2C2;}
	.st119{fill:#85B681;}
	.st120{fill:#A1DC9B;}
	.st121{fill:#90C58B;}
	.st122{fill:#22241F;}
	.st123{opacity:0.5;}
	.st124{fill:#A2CADE;}
	.st125{fill:#E9E9E9;}
	.st126{fill:#D9D9D9;}
	.st127{fill:#CDCDCD;}
	.st128{opacity:0.34;fill:#F0F0F0;}
	.st129{fill:#5A5B5A;}
	.st130{fill:#FFE600;}
	.st131{fill:#DB1F59;}
	.st132{fill:#727272;}
	.st133{fill:#207235;}
	.st134{fill:#A3A3A3;}
	.st135{fill:#BCBCBC;}
	.st136{fill:#0A511C;}
	.st137{fill:#F9FF00;}
	.st138{fill:#D59F6D;}
	.st139{fill:#C0804A;}
	.st140{fill:#E6BA8A;}
	.st141{fill:#BE3ACC;}
	.st142{fill:#FFFFFF;stroke:#443F0C;stroke-width:9;stroke-miterlimit:10;}
	.st143{fill:none;stroke:#443F0C;stroke-width:9;stroke-miterlimit:10;}
	.st144{fill:#170623;}
	.st145{fill:#158231;}
	.st146{fill:#C89D76;}
	.st147{opacity:0.4;}
	.st148{fill:#ADADAD;}
	.st149{fill:#EDC3A6;}
	.st150{opacity:0.69;}
	.st151{fill:#E5D3D6;}
	.st152{opacity:0.44;}
	.st153{fill:#A5A5A5;}
	.st154{fill:#DDE5E4;}
	.st155{fill:#5C9169;}
	.st156{fill:#934215;}
	.st157{fill:#47413B;}
	.st158{fill:#601A1F;}
	.st159{fill:#044554;}
	.st160{opacity:0.7;}
	.st161{fill:#7F7F7F;}
	.st162{fill:#6B8A69;}
	.st163{opacity:0.24;fill:#848D90;}
	.st164{opacity:0.4;fill:#848D90;}
	.st165{fill:#F2D5D5;}
	.st166{fill:#485CC1;}
	.st167{fill:#C6CBE0;}
	.st168{fill:#8B909E;}
	.st169{fill:#53BC1B;}
	.st170{fill:#11565B;}
	.st171{fill:#67A06D;}
	.st172{fill:#FFEC00;}
	.st173{fill:#77A007;}
	.st174{fill:#E50731;}
	.st175{fill:#266472;}
	.st176{fill:#D4D4D4;}
	.st177{fill:#0E9932;}
	.st178{fill:#87DD24;}
	.st179{fill:#76A172;}
	.st180{fill:#62835F;}
	.st181{fill:#96D090;}
	.st182{fill:#D6D6D6;}
	.st183{fill:#606060;}
	.st184{fill:#494949;}
	.st185{fill:#29E55A;}
	.st186{fill:#2C703D;}
	.st187{fill:#DD0744;}
	.st188{fill:#EDEDED;}
	.st189{fill:#2A5936;}
	.st190{fill:#B9BBC1;}
	.st191{fill:#FFD79E;}
	.st192{fill:#FFE6C2;}
	.st193{fill:#2CBB55;}
	.st194{fill:#5C412D;}
	.st195{fill:#EC0000;}
	.st196{fill:#DD2626;}
	.st197{fill:#EA9334;}
	.st198{fill:#FCC232;}
	.st199{fill:#F9B234;}
	.st200{fill:#F7A037;}
	.st201{fill:#E0E0E0;}
</style>
<g>
	<g>
		<path class="st18" d="M9.5,209.36c0,22,13.29,27.86,29.54,13.03c0,0,156.99-143.3,353.09,26.97V55c0-22-18-40-40-40H49.5
			c-22,0-40,18-40,40V209.36z"/>
	</g>
	<g>
		<path class="st18" d="M391.66,647c0,22-18,40-40,40H49.98c-22,0-40-18-40-40v-46.27c0-22,18-40,40-40h301.68c22,0,40,18,40,40V647
			z"/>
	</g>
	<g>
		<path d="M92.21,368.59c-0.23-0.24-0.35-0.62-0.35-1.12v-14.72c0-0.5,0.12-0.88,0.35-1.12c0.23-0.24,0.64-0.36,1.21-0.36h3.09
			c0.59,0,1,0.12,1.23,0.35c0.23,0.23,0.35,0.61,0.35,1.13v14.72c0,0.5-0.12,0.88-0.35,1.12c-0.23,0.24-0.65,0.36-1.23,0.36h-3.09
			C92.85,368.95,92.45,368.83,92.21,368.59z"/>
		<path d="M100.32,368.57c-0.24-0.25-0.36-0.64-0.36-1.16V352.1c0-0.52,0.12-0.91,0.36-1.15c0.24-0.24,0.67-0.37,1.28-0.37h2.57
			c0.38,0,0.67,0.05,0.88,0.15c0.21,0.1,0.41,0.29,0.61,0.58l4.89,7.26v-6.45c0-0.52,0.12-0.91,0.36-1.16
			c0.24-0.25,0.66-0.38,1.26-0.38h3.21c0.61,0,1.04,0.12,1.28,0.37c0.24,0.24,0.36,0.63,0.36,1.17v15.31c0,0.52-0.12,0.9-0.36,1.15
			s-0.67,0.36-1.28,0.36h-2.56c-0.38,0-0.67-0.05-0.88-0.15c-0.21-0.1-0.41-0.29-0.61-0.58l-4.89-7.26v6.48
			c0,0.52-0.12,0.9-0.36,1.15s-0.67,0.36-1.28,0.36h-3.21C100.98,368.95,100.57,368.83,100.32,368.57z"/>
		<path d="M119.28,368.57c-0.24-0.25-0.36-0.64-0.36-1.16v-15.28c0-0.52,0.12-0.91,0.36-1.16c0.24-0.25,0.66-0.38,1.26-0.38h11.18
			c0.58,0,0.97,0.12,1.17,0.37c0.21,0.24,0.31,0.63,0.31,1.17v1.51c0,0.54-0.1,0.93-0.31,1.17c-0.21,0.24-0.6,0.37-1.17,0.37h-6.32
			v2.29h3.89c0.58,0,0.97,0.12,1.17,0.36s0.31,0.63,0.31,1.17v1.51c0,0.54-0.1,0.93-0.31,1.17c-0.21,0.24-0.6,0.36-1.17,0.36h-3.89
			v5.35c0,0.52-0.12,0.91-0.36,1.16s-0.67,0.38-1.28,0.38h-3.21C119.94,368.95,119.52,368.83,119.28,368.57z"/>
		<path d="M134.87,366.86c-1.66-1.66-2.48-4.03-2.48-7.09c0-3.06,0.83-5.42,2.48-7.09c1.66-1.67,4.09-2.5,7.29-2.5
			c3.2,0,5.63,0.83,7.29,2.5c1.66,1.67,2.48,4.03,2.48,7.09c0,3.06-0.83,5.42-2.48,7.09c-1.66,1.67-4.09,2.5-7.29,2.5
			C138.96,369.36,136.52,368.52,134.87,366.86z M144.7,363.57c0.52-0.84,0.78-2.1,0.78-3.79c0-1.71-0.26-2.98-0.78-3.81
			c-0.52-0.83-1.37-1.24-2.54-1.24c-1.17,0-2.02,0.41-2.54,1.24c-0.52,0.83-0.78,2.1-0.78,3.81c0,1.69,0.26,2.96,0.78,3.79
			c0.52,0.84,1.37,1.26,2.54,1.26C143.33,364.82,144.17,364.4,144.7,363.57z"/>
		<path d="M153.65,368.57c-0.24-0.25-0.36-0.64-0.36-1.16v-15.28c0-0.52,0.12-0.91,0.36-1.16c0.24-0.25,0.66-0.38,1.26-0.38h6.45
			c2.7,0,4.67,0.54,5.9,1.61c1.23,1.07,1.85,2.69,1.85,4.85c0,1.3-0.22,2.39-0.66,3.28c-0.44,0.89-1.12,1.59-2.04,2.09l2.51,5.37
			c0.07,0.14,0.11,0.31,0.11,0.49c0,0.2-0.07,0.36-0.2,0.49c-0.13,0.13-0.31,0.19-0.53,0.19h-4.56c-0.29,0-0.52-0.04-0.69-0.12
			c-0.17-0.08-0.29-0.22-0.36-0.42l-2-5.02h-0.92v4.02c0,0.52-0.12,0.91-0.36,1.16s-0.67,0.38-1.28,0.38h-3.21
			C154.31,368.95,153.89,368.83,153.65,368.57z M160.79,358.88c0.58,0,1.03-0.15,1.36-0.46c0.33-0.31,0.5-0.76,0.5-1.38
			c0-0.63-0.17-1.1-0.5-1.4c-0.33-0.31-0.79-0.46-1.36-0.46h-1.84v3.7H160.79z"/>
		<path d="M170.82,368.57c-0.24-0.25-0.36-0.64-0.36-1.16V352.1c0-0.52,0.12-0.91,0.36-1.15c0.24-0.24,0.67-0.37,1.28-0.37h3.1
			c0.4,0,0.71,0.05,0.95,0.15c0.23,0.1,0.41,0.29,0.54,0.58l3.16,7.91l3.16-7.91c0.13-0.29,0.31-0.48,0.54-0.58
			c0.23-0.1,0.55-0.15,0.94-0.15h3.1c0.61,0,1.04,0.12,1.28,0.37c0.24,0.24,0.36,0.63,0.36,1.15v15.31c0,0.52-0.12,0.91-0.36,1.16
			s-0.66,0.38-1.26,0.38h-2.59c-0.59,0-1.02-0.13-1.27-0.38s-0.38-0.64-0.38-1.16v-7.37l-1.59,3.67c-0.22,0.52-0.45,0.9-0.7,1.12
			c-0.25,0.22-0.67,0.34-1.24,0.34s-0.99-0.11-1.24-0.34c-0.25-0.23-0.49-0.6-0.7-1.12l-1.59-3.67v7.37c0,0.52-0.12,0.91-0.36,1.16
			s-0.67,0.38-1.28,0.38h-2.59C171.48,368.95,171.06,368.83,170.82,368.57z"/>
		<path d="M189.92,368.38c0-0.16,0.04-0.36,0.14-0.59l6.72-16.17c0.16-0.38,0.35-0.64,0.55-0.8c0.21-0.15,0.5-0.23,0.88-0.23h2.94
			c0.38,0,0.67,0.08,0.88,0.23c0.21,0.15,0.39,0.42,0.55,0.8l6.7,16.17c0.09,0.23,0.13,0.43,0.13,0.59c0,0.38-0.2,0.57-0.59,0.57
			h-5.08c-0.56,0-0.91-0.24-1.05-0.73l-0.65-2h-4.78l-0.62,2c-0.14,0.49-0.5,0.73-1.05,0.73h-5.08
			C190.12,368.95,189.92,368.76,189.92,368.38z M200.72,361.96l-1.05-3.35l-1.05,3.35H200.72z"/>
		<path d="M211.47,366.94c-1.82-1.61-2.73-4-2.73-7.17c0-3.19,0.88-5.58,2.63-7.18c1.75-1.6,4.26-2.4,7.52-2.4
			c1.48,0,2.79,0.14,3.94,0.43c1.15,0.29,2.11,0.69,2.89,1.21c0.22,0.16,0.32,0.34,0.32,0.54c0,0.16-0.08,0.39-0.24,0.67l-1.35,2.32
			c-0.14,0.25-0.32,0.38-0.51,0.38c-0.13,0-0.33-0.07-0.62-0.22c-0.5-0.25-1.03-0.45-1.58-0.59c-0.55-0.14-1.19-0.22-1.93-0.22
			c-1.49,0-2.64,0.43-3.43,1.3c-0.79,0.86-1.19,2.12-1.19,3.75c0,1.62,0.43,2.87,1.3,3.74c0.86,0.87,2.04,1.31,3.54,1.31
			c1.3,0,2.48-0.27,3.56-0.81c0.29-0.14,0.5-0.22,0.62-0.22c0.2,0,0.37,0.13,0.51,0.38l1.35,2.32c0.16,0.29,0.24,0.51,0.24,0.67
			c0,0.2-0.11,0.38-0.32,0.54c-0.77,0.52-1.75,0.93-2.92,1.21c-1.17,0.29-2.49,0.43-3.97,0.43
			C215.83,369.36,213.29,368.55,211.47,366.94z"/>
		<path d="M228.03,368.57c-0.24-0.25-0.36-0.64-0.36-1.16v-15.28c0-0.52,0.12-0.91,0.36-1.16c0.24-0.25,0.66-0.38,1.26-0.38h3.21
			c0.61,0,1.04,0.12,1.28,0.37c0.24,0.24,0.36,0.63,0.36,1.17v15.28c0,0.52-0.12,0.91-0.36,1.16s-0.67,0.38-1.28,0.38h-3.21
			C228.69,368.95,228.28,368.83,228.03,368.57z"/>
		<path d="M237.98,366.86c-1.66-1.66-2.48-4.03-2.48-7.09c0-3.06,0.83-5.42,2.48-7.09c1.66-1.67,4.09-2.5,7.29-2.5
			c3.2,0,5.63,0.83,7.29,2.5c1.66,1.67,2.48,4.03,2.48,7.09c0,3.06-0.83,5.42-2.48,7.09c-1.66,1.67-4.09,2.5-7.29,2.5
			C242.07,369.36,239.64,368.52,237.98,366.86z M247.81,363.57c0.52-0.84,0.78-2.1,0.78-3.79c0-1.71-0.26-2.98-0.78-3.81
			c-0.52-0.83-1.37-1.24-2.54-1.24c-1.17,0-2.02,0.41-2.54,1.24c-0.52,0.83-0.78,2.1-0.78,3.81c0,1.69,0.26,2.96,0.78,3.79
			c0.52,0.84,1.37,1.26,2.54,1.26C246.44,364.82,247.29,364.4,247.81,363.57z M242.41,348.32c0-0.14,0.03-0.3,0.08-0.46l1.13-3.13
			c0.14-0.41,0.31-0.69,0.51-0.84c0.2-0.14,0.57-0.22,1.11-0.22h3.86c0.38,0,0.67,0.07,0.89,0.2c0.22,0.13,0.32,0.33,0.32,0.58
			c0,0.22-0.07,0.44-0.22,0.68l-1.73,2.92c-0.25,0.43-0.5,0.71-0.73,0.84c-0.23,0.13-0.66,0.19-1.27,0.19h-2.89
			C242.77,349.08,242.41,348.83,242.41,348.32z"/>
		<path d="M256.76,368.57c-0.24-0.25-0.36-0.64-0.36-1.16V352.1c0-0.52,0.12-0.91,0.36-1.15c0.24-0.24,0.67-0.37,1.28-0.37h2.57
			c0.38,0,0.67,0.05,0.88,0.15c0.21,0.1,0.41,0.29,0.61,0.58l4.89,7.26v-6.45c0-0.52,0.12-0.91,0.36-1.16
			c0.24-0.25,0.66-0.38,1.26-0.38h3.21c0.61,0,1.04,0.12,1.28,0.37c0.24,0.24,0.36,0.63,0.36,1.17v15.31c0,0.52-0.12,0.9-0.36,1.15
			s-0.67,0.36-1.28,0.36h-2.56c-0.38,0-0.67-0.05-0.88-0.15c-0.21-0.1-0.41-0.29-0.61-0.58l-4.89-7.26v6.48
			c0,0.52-0.12,0.9-0.36,1.15s-0.67,0.36-1.28,0.36h-3.21C257.42,368.95,257,368.83,256.76,368.57z"/>
		<path d="M283.81,368.57c-0.24-0.25-0.36-0.64-0.36-1.16v-15.28c0-0.52,0.12-0.91,0.36-1.16c0.24-0.25,0.66-0.38,1.26-0.38h6.21
			c6.35,0,9.53,3.06,9.53,9.18c0,3.02-0.81,5.31-2.44,6.86c-1.63,1.55-3.99,2.32-7.09,2.32h-6.21
			C284.48,368.95,284.06,368.83,283.81,368.57z M291.52,364.36c1.01,0,1.73-0.33,2.17-1c0.44-0.67,0.66-1.86,0.66-3.59
			c0-1.73-0.22-2.92-0.66-3.59c-0.44-0.67-1.17-1-2.17-1h-1.59v9.18H291.52z"/>
		<path d="M302.52,368.57c-0.24-0.25-0.36-0.64-0.36-1.16v-15.28c0-0.52,0.12-0.91,0.36-1.16c0.24-0.25,0.66-0.38,1.26-0.38h11.18
			c0.58,0,0.97,0.12,1.17,0.37c0.21,0.24,0.31,0.63,0.31,1.17v1.51c0,0.54-0.1,0.93-0.31,1.17c-0.21,0.24-0.6,0.37-1.17,0.37h-6.32
			v2.32h3.89c0.58,0,0.97,0.12,1.17,0.36c0.21,0.24,0.31,0.63,0.31,1.17v1.46c0,0.54-0.1,0.93-0.31,1.17s-0.6,0.36-1.17,0.36h-3.89
			v2.32h6.29c0.58,0,0.97,0.12,1.17,0.36c0.21,0.24,0.31,0.63,0.31,1.17v1.51c0,0.54-0.1,0.93-0.31,1.17
			c-0.21,0.24-0.6,0.36-1.17,0.36h-11.15C303.19,368.95,302.77,368.83,302.52,368.57z"/>
		<path d="M142.17,400.97c-0.24-0.25-0.36-0.64-0.36-1.16v-15.28c0-0.52,0.12-0.91,0.36-1.16c0.24-0.25,0.66-0.38,1.26-0.38h6.45
			c2.7,0,4.67,0.54,5.9,1.61c1.23,1.07,1.85,2.69,1.85,4.85s-0.62,3.77-1.85,4.83c-1.23,1.06-3.19,1.59-5.87,1.59h-1.62v3.94
			c0,0.52-0.12,0.91-0.36,1.16s-0.67,0.38-1.28,0.38h-3.21C142.83,401.35,142.41,401.23,142.17,400.97z M149.31,391.28
			c0.58,0,1.03-0.15,1.36-0.46c0.33-0.31,0.5-0.76,0.5-1.38c0-0.63-0.17-1.1-0.5-1.4c-0.33-0.31-0.79-0.46-1.36-0.46h-1.84v3.7
			H149.31z"/>
		<path d="M159.7,399.26c-1.66-1.66-2.48-4.03-2.48-7.09c0-3.06,0.83-5.42,2.48-7.09c1.66-1.67,4.09-2.5,7.29-2.5
			c3.2,0,5.63,0.83,7.29,2.5c1.66,1.67,2.48,4.03,2.48,7.09c0,3.06-0.83,5.42-2.48,7.09c-1.66,1.67-4.09,2.5-7.29,2.5
			C163.79,401.76,161.36,400.92,159.7,399.26z M169.53,395.97c0.52-0.84,0.78-2.1,0.78-3.79c0-1.71-0.26-2.98-0.78-3.81
			c-0.52-0.83-1.37-1.24-2.54-1.24c-1.17,0-2.02,0.41-2.54,1.24c-0.52,0.83-0.78,2.1-0.78,3.81c0,1.69,0.26,2.96,0.78,3.79
			c0.52,0.84,1.37,1.26,2.54,1.26C168.16,397.22,169.01,396.8,169.53,395.97z"/>
		<path d="M178.48,400.97c-0.24-0.25-0.36-0.64-0.36-1.16v-15.28c0-0.52,0.12-0.91,0.36-1.16c0.24-0.25,0.66-0.38,1.26-0.38h3.21
			c0.61,0,1.04,0.12,1.28,0.37c0.24,0.24,0.36,0.63,0.36,1.17v12.23h6.29c0.58,0,0.97,0.12,1.17,0.36c0.21,0.24,0.31,0.63,0.31,1.17
			v1.51c0,0.54-0.1,0.93-0.31,1.17c-0.21,0.24-0.6,0.36-1.17,0.36h-11.15C179.14,401.35,178.72,401.23,178.48,400.97z"/>
		<path d="M193.55,400.97c-0.24-0.25-0.36-0.64-0.36-1.16v-15.28c0-0.52,0.12-0.91,0.36-1.16c0.24-0.25,0.66-0.38,1.26-0.38h3.21
			c0.61,0,1.04,0.12,1.28,0.37c0.24,0.24,0.36,0.63,0.36,1.17v15.28c0,0.52-0.12,0.91-0.36,1.16s-0.67,0.38-1.28,0.38h-3.21
			C194.21,401.35,193.79,401.23,193.55,400.97z"/>
		<path d="M201.28,401.04c-0.18-0.21-0.27-0.59-0.27-1.15c0-0.58,0.05-1.03,0.15-1.35c0.1-0.32,0.35-0.75,0.74-1.27l7.1-9.69h-6.24
			c-0.59,0-1.01-0.13-1.26-0.38c-0.24-0.25-0.36-0.64-0.36-1.16v-1.51c0-0.52,0.12-0.91,0.36-1.16c0.24-0.25,0.66-0.38,1.26-0.38
			h13.34c0.54,0,0.9,0.1,1.08,0.31c0.18,0.21,0.27,0.59,0.27,1.15c0,0.56-0.05,1-0.15,1.32c-0.1,0.32-0.35,0.76-0.74,1.3l-7.05,9.69
			h6.37c0.59,0,1.01,0.13,1.26,0.38c0.24,0.25,0.36,0.64,0.36,1.16v1.51c0,0.52-0.12,0.91-0.36,1.16c-0.24,0.25-0.66,0.38-1.26,0.38
			h-13.53C201.82,401.35,201.46,401.25,201.28,401.04z"/>
		<path d="M217.64,400.79c0-0.16,0.04-0.36,0.14-0.59l6.72-16.17c0.16-0.38,0.35-0.64,0.55-0.8c0.21-0.15,0.5-0.23,0.88-0.23h2.94
			c0.38,0,0.67,0.08,0.88,0.23c0.21,0.15,0.39,0.42,0.55,0.8l6.7,16.17c0.09,0.23,0.13,0.43,0.13,0.59c0,0.38-0.2,0.57-0.59,0.57
			h-5.08c-0.56,0-0.91-0.24-1.05-0.73l-0.65-2h-4.78l-0.62,2c-0.14,0.49-0.5,0.73-1.05,0.73h-5.08
			C217.84,401.35,217.64,401.16,217.64,400.79z M228.44,394.36l-1.05-3.35l-1.05,3.35H228.44z"/>
		<path d="M240.7,401.24c-1.4-0.34-2.54-0.82-3.4-1.43c-0.36-0.25-0.54-0.5-0.54-0.73c0-0.16,0.06-0.33,0.19-0.51l1.57-2.46
			c0.16-0.23,0.32-0.35,0.49-0.35c0.14,0,0.31,0.06,0.51,0.19c0.65,0.4,1.39,0.71,2.23,0.93c0.84,0.23,1.65,0.34,2.44,0.34
			c0.67,0,1.15-0.09,1.44-0.27c0.3-0.18,0.45-0.46,0.45-0.84c0-0.41-0.2-0.75-0.59-1c-0.4-0.25-1.08-0.57-2.05-0.94
			c-1.82-0.7-3.25-1.5-4.29-2.39c-1.04-0.89-1.57-2.07-1.57-3.55c0-1.87,0.65-3.28,1.96-4.23c1.3-0.95,3.06-1.42,5.28-1.42
			c1.55,0,2.87,0.13,3.96,0.4c1.09,0.27,2.04,0.69,2.85,1.27c0.36,0.25,0.54,0.5,0.54,0.73c0,0.16-0.06,0.33-0.19,0.51l-1.57,2.46
			c-0.16,0.25-0.32,0.38-0.49,0.38c-0.11,0-0.28-0.07-0.51-0.22c-0.43-0.29-0.94-0.53-1.54-0.71c-0.59-0.19-1.23-0.28-1.92-0.28
			c-0.63,0-1.11,0.09-1.43,0.27c-0.32,0.18-0.49,0.47-0.49,0.86c0,0.32,0.11,0.59,0.34,0.81c0.22,0.22,0.51,0.4,0.85,0.55
			c0.34,0.15,0.94,0.4,1.78,0.74c1.35,0.54,2.41,1.06,3.19,1.55c0.77,0.5,1.36,1.09,1.75,1.78s0.59,1.57,0.59,2.63
			c0,1.62-0.61,2.93-1.82,3.93s-3.03,1.5-5.44,1.5C243.63,401.76,242.11,401.59,240.7,401.24z"/>
		<path d="M253.9,392.43c-0.38-0.42-0.57-0.93-0.57-1.53v-0.73c0-0.61,0.19-1.12,0.57-1.53c0.38-0.41,0.86-0.61,1.46-0.61h0.92
			c0.59,0,1.08,0.2,1.46,0.61c0.38,0.4,0.57,0.91,0.57,1.53v0.73c0,0.59-0.19,1.1-0.55,1.53c-0.37,0.42-0.86,0.63-1.47,0.63h-0.92
			C254.77,393.06,254.28,392.85,253.9,392.43z M253.9,400.72c-0.38-0.42-0.57-0.93-0.57-1.53v-0.73c0-0.61,0.19-1.12,0.57-1.53
			c0.38-0.41,0.86-0.61,1.46-0.61h0.92c0.59,0,1.08,0.2,1.46,0.61c0.38,0.4,0.57,0.91,0.57,1.53v0.73c0,0.59-0.19,1.1-0.55,1.53
			c-0.37,0.42-0.86,0.63-1.47,0.63h-0.92C254.77,401.35,254.28,401.14,253.9,400.72z"/>
		<path d="M85.94,433.37c-0.24-0.25-0.36-0.64-0.36-1.16v-12.23h-3.89c-0.58,0-0.97-0.12-1.17-0.37c-0.21-0.24-0.31-0.63-0.31-1.17
			v-1.51c0-0.54,0.1-0.93,0.31-1.17c0.21-0.24,0.6-0.37,1.17-0.37h14.26c0.58,0,0.97,0.12,1.17,0.37c0.21,0.24,0.31,0.63,0.31,1.17
			v1.51c0,0.54-0.1,0.93-0.31,1.17s-0.6,0.37-1.17,0.37h-3.89v12.23c0,0.52-0.12,0.91-0.36,1.16s-0.67,0.38-1.28,0.38h-3.21
			C86.6,433.75,86.18,433.63,85.94,433.37z"/>
		<path d="M98.6,433.37c-0.24-0.25-0.36-0.64-0.36-1.16v-15.28c0-0.52,0.12-0.91,0.36-1.16c0.24-0.25,0.66-0.38,1.26-0.38h3.21
			c0.61,0,1.04,0.12,1.28,0.37c0.24,0.24,0.36,0.63,0.36,1.17v15.28c0,0.52-0.12,0.91-0.36,1.16s-0.67,0.38-1.28,0.38h-3.21
			C99.26,433.75,98.84,433.63,98.6,433.37z"/>
		<path d="M106.97,433.37c-0.24-0.25-0.36-0.64-0.36-1.16v-15.28c0-0.52,0.12-0.91,0.36-1.16c0.24-0.25,0.66-0.38,1.26-0.38h6.45
			c2.7,0,4.67,0.54,5.9,1.61c1.23,1.07,1.85,2.69,1.85,4.85s-0.62,3.77-1.85,4.83c-1.23,1.06-3.19,1.59-5.87,1.59h-1.62v3.94
			c0,0.52-0.12,0.91-0.36,1.16s-0.67,0.38-1.28,0.38h-3.21C107.63,433.75,107.21,433.63,106.97,433.37z M114.11,423.68
			c0.58,0,1.03-0.15,1.36-0.46c0.33-0.31,0.5-0.76,0.5-1.38c0-0.63-0.17-1.1-0.5-1.4c-0.33-0.31-0.79-0.46-1.36-0.46h-1.84v3.7
			H114.11z"/>
		<path d="M124.51,431.66c-1.66-1.66-2.48-4.03-2.48-7.09c0-3.06,0.83-5.42,2.48-7.09c1.66-1.67,4.09-2.5,7.29-2.5
			c3.2,0,5.63,0.83,7.29,2.5c1.66,1.67,2.48,4.03,2.48,7.09c0,3.06-0.83,5.42-2.48,7.09c-1.66,1.67-4.09,2.5-7.29,2.5
			C128.59,434.16,126.16,433.32,124.51,431.66z M134.34,428.37c0.52-0.84,0.78-2.1,0.78-3.79c0-1.71-0.26-2.98-0.78-3.81
			c-0.52-0.83-1.37-1.24-2.54-1.24c-1.17,0-2.02,0.41-2.54,1.24c-0.52,0.83-0.78,2.1-0.78,3.81c0,1.69,0.26,2.96,0.78,3.79
			c0.52,0.84,1.37,1.26,2.54,1.26C132.97,429.62,133.81,429.2,134.34,428.37z"/>
		<path d="M145.14,433.64c-1.4-0.34-2.54-0.82-3.4-1.43c-0.36-0.25-0.54-0.5-0.54-0.73c0-0.16,0.06-0.33,0.19-0.51l1.57-2.46
			c0.16-0.23,0.32-0.35,0.49-0.35c0.14,0,0.31,0.06,0.51,0.19c0.65,0.4,1.39,0.71,2.23,0.93c0.84,0.23,1.65,0.34,2.44,0.34
			c0.67,0,1.15-0.09,1.44-0.27c0.3-0.18,0.45-0.46,0.45-0.84c0-0.41-0.2-0.75-0.59-1c-0.4-0.25-1.08-0.57-2.05-0.94
			c-1.82-0.7-3.25-1.5-4.29-2.39c-1.04-0.89-1.57-2.07-1.57-3.55c0-1.87,0.65-3.28,1.96-4.23c1.3-0.95,3.06-1.42,5.28-1.42
			c1.55,0,2.87,0.13,3.96,0.4c1.09,0.27,2.04,0.69,2.85,1.27c0.36,0.25,0.54,0.5,0.54,0.73c0,0.16-0.06,0.33-0.19,0.51l-1.57,2.46
			c-0.16,0.25-0.32,0.38-0.49,0.38c-0.11,0-0.28-0.07-0.51-0.22c-0.43-0.29-0.94-0.53-1.54-0.71c-0.59-0.19-1.23-0.28-1.92-0.28
			c-0.63,0-1.11,0.09-1.43,0.27c-0.32,0.18-0.49,0.47-0.49,0.86c0,0.32,0.11,0.59,0.34,0.81c0.22,0.22,0.51,0.4,0.85,0.55
			c0.34,0.15,0.94,0.4,1.78,0.74c1.35,0.54,2.41,1.06,3.19,1.55c0.77,0.5,1.36,1.09,1.75,1.78s0.59,1.57,0.59,2.63
			c0,1.62-0.61,2.93-1.82,3.93s-3.03,1.5-5.44,1.5C148.06,434.16,146.54,433.99,145.14,433.64z"/>
		<path d="M166.78,433.37c-0.24-0.25-0.36-0.64-0.36-1.16v-15.28c0-0.52,0.12-0.91,0.36-1.16c0.24-0.25,0.66-0.38,1.26-0.38h6.21
			c6.35,0,9.53,3.06,9.53,9.18c0,3.02-0.81,5.31-2.44,6.86c-1.63,1.55-3.99,2.32-7.09,2.32h-6.21
			C167.44,433.75,167.02,433.63,166.78,433.37z M174.48,429.16c1.01,0,1.73-0.33,2.17-1c0.44-0.67,0.66-1.86,0.66-3.59
			c0-1.73-0.22-2.92-0.66-3.59c-0.44-0.67-1.17-1-2.17-1h-1.59v9.18H174.48z"/>
		<path d="M185.49,433.37c-0.24-0.25-0.36-0.64-0.36-1.16v-15.28c0-0.52,0.12-0.91,0.36-1.16c0.24-0.25,0.66-0.38,1.26-0.38h11.18
			c0.58,0,0.97,0.12,1.17,0.37c0.21,0.24,0.31,0.63,0.31,1.17v1.51c0,0.54-0.1,0.93-0.31,1.17c-0.21,0.24-0.6,0.37-1.17,0.37h-6.32
			v2.32h3.89c0.58,0,0.97,0.12,1.17,0.36c0.21,0.24,0.31,0.63,0.31,1.17v1.46c0,0.54-0.1,0.93-0.31,1.17s-0.6,0.36-1.17,0.36h-3.89
			v2.32h6.29c0.58,0,0.97,0.12,1.17,0.36c0.21,0.24,0.31,0.63,0.31,1.17v1.51c0,0.54-0.1,0.93-0.31,1.17
			c-0.21,0.24-0.6,0.36-1.17,0.36h-11.15C186.15,433.75,185.73,433.63,185.49,433.37z"/>
		<path d="M209.08,433.37c-0.24-0.25-0.36-0.64-0.36-1.16v-15.28c0-0.52,0.12-0.91,0.36-1.16c0.24-0.25,0.66-0.38,1.26-0.38h6.45
			c2.7,0,4.67,0.54,5.9,1.61c1.23,1.07,1.85,2.69,1.85,4.85s-0.62,3.77-1.85,4.83c-1.23,1.06-3.19,1.59-5.87,1.59h-1.62v3.94
			c0,0.52-0.12,0.91-0.36,1.16s-0.67,0.38-1.28,0.38h-3.21C209.75,433.75,209.33,433.63,209.08,433.37z M216.23,423.68
			c0.58,0,1.03-0.15,1.36-0.46c0.33-0.31,0.5-0.76,0.5-1.38c0-0.63-0.17-1.1-0.5-1.4c-0.33-0.31-0.79-0.46-1.36-0.46h-1.84v3.7
			H216.23z"/>
		<path d="M226.62,431.66c-1.66-1.66-2.48-4.03-2.48-7.09c0-3.06,0.83-5.42,2.48-7.09c1.66-1.67,4.09-2.5,7.29-2.5
			c3.2,0,5.63,0.83,7.29,2.5c1.66,1.67,2.48,4.03,2.48,7.09c0,3.06-0.83,5.42-2.48,7.09c-1.66,1.67-4.09,2.5-7.29,2.5
			C230.71,434.16,228.28,433.32,226.62,431.66z M236.45,428.37c0.52-0.84,0.78-2.1,0.78-3.79c0-1.71-0.26-2.98-0.78-3.81
			c-0.52-0.83-1.37-1.24-2.54-1.24c-1.17,0-2.02,0.41-2.54,1.24c-0.52,0.83-0.78,2.1-0.78,3.81c0,1.69,0.26,2.96,0.78,3.79
			c0.52,0.84,1.37,1.26,2.54,1.26C235.08,429.62,235.93,429.2,236.45,428.37z"/>
		<path d="M245.4,433.37c-0.24-0.25-0.36-0.64-0.36-1.16v-15.28c0-0.52,0.12-0.91,0.36-1.16c0.24-0.25,0.66-0.38,1.26-0.38h3.21
			c0.61,0,1.04,0.12,1.28,0.37c0.24,0.24,0.36,0.63,0.36,1.17v12.23h6.29c0.58,0,0.97,0.12,1.17,0.36c0.21,0.24,0.31,0.63,0.31,1.17
			v1.51c0,0.54-0.1,0.93-0.31,1.17c-0.21,0.24-0.6,0.36-1.17,0.36h-11.15C246.06,433.75,245.64,433.63,245.4,433.37z"/>
		<path d="M260.46,433.37c-0.24-0.25-0.36-0.64-0.36-1.16v-15.28c0-0.52,0.12-0.91,0.36-1.16c0.24-0.25,0.66-0.38,1.26-0.38h3.21
			c0.61,0,1.04,0.12,1.28,0.37c0.24,0.24,0.36,0.63,0.36,1.17v15.28c0,0.52-0.12,0.91-0.36,1.16s-0.67,0.38-1.28,0.38h-3.21
			C261.13,433.75,260.71,433.63,260.46,433.37z"/>
		<path d="M268.2,433.44c-0.18-0.21-0.27-0.59-0.27-1.15c0-0.58,0.05-1.03,0.15-1.35c0.1-0.32,0.35-0.75,0.74-1.27l7.1-9.69h-6.24
			c-0.59,0-1.01-0.13-1.26-0.38c-0.24-0.25-0.36-0.64-0.36-1.16v-1.51c0-0.52,0.12-0.91,0.36-1.16c0.24-0.25,0.66-0.38,1.26-0.38
			h13.34c0.54,0,0.9,0.1,1.08,0.31c0.18,0.21,0.27,0.59,0.27,1.15c0,0.56-0.05,1-0.15,1.32c-0.1,0.32-0.35,0.76-0.74,1.3l-7.05,9.69
			h6.37c0.59,0,1.01,0.13,1.26,0.38c0.24,0.25,0.36,0.64,0.36,1.16v1.51c0,0.52-0.12,0.91-0.36,1.16c-0.24,0.25-0.66,0.38-1.26,0.38
			h-13.53C268.74,433.75,268.38,433.65,268.2,433.44z"/>
		<path d="M284.56,433.18c0-0.16,0.04-0.36,0.14-0.59l6.72-16.17c0.16-0.38,0.35-0.64,0.55-0.8c0.21-0.15,0.5-0.23,0.88-0.23h2.94
			c0.38,0,0.67,0.08,0.88,0.23c0.21,0.15,0.39,0.42,0.55,0.8l6.7,16.17c0.09,0.23,0.13,0.43,0.13,0.59c0,0.38-0.2,0.57-0.59,0.57
			h-5.08c-0.56,0-0.91-0.24-1.05-0.73l-0.65-2h-4.78l-0.62,2c-0.14,0.49-0.5,0.73-1.05,0.73h-5.08
			C284.76,433.75,284.56,433.56,284.56,433.18z M295.36,426.76l-1.05-3.35l-1.05,3.35H295.36z"/>
		<path d="M307.62,433.64c-1.4-0.34-2.54-0.82-3.4-1.43c-0.36-0.25-0.54-0.5-0.54-0.73c0-0.16,0.06-0.33,0.19-0.51l1.57-2.46
			c0.16-0.23,0.32-0.35,0.49-0.35c0.14,0,0.31,0.06,0.51,0.19c0.65,0.4,1.39,0.71,2.23,0.93c0.84,0.23,1.65,0.34,2.44,0.34
			c0.67,0,1.15-0.09,1.44-0.27c0.3-0.18,0.45-0.46,0.45-0.84c0-0.41-0.2-0.75-0.59-1c-0.4-0.25-1.08-0.57-2.05-0.94
			c-1.82-0.7-3.25-1.5-4.29-2.39c-1.04-0.89-1.57-2.07-1.57-3.55c0-1.87,0.65-3.28,1.96-4.23c1.3-0.95,3.06-1.42,5.28-1.42
			c1.55,0,2.87,0.13,3.96,0.4c1.09,0.27,2.04,0.69,2.85,1.27c0.36,0.25,0.54,0.5,0.54,0.73c0,0.16-0.06,0.33-0.19,0.51l-1.57,2.46
			c-0.16,0.25-0.32,0.38-0.49,0.38c-0.11,0-0.28-0.07-0.51-0.22c-0.43-0.29-0.94-0.53-1.54-0.71c-0.59-0.19-1.23-0.28-1.92-0.28
			c-0.63,0-1.11,0.09-1.43,0.27c-0.32,0.18-0.49,0.47-0.49,0.86c0,0.32,0.11,0.59,0.34,0.81c0.22,0.22,0.51,0.4,0.85,0.55
			c0.34,0.15,0.94,0.4,1.78,0.74c1.35,0.54,2.41,1.06,3.19,1.55c0.77,0.5,1.36,1.09,1.75,1.78s0.59,1.57,0.59,2.63
			c0,1.62-0.61,2.93-1.82,3.93s-3.03,1.5-5.44,1.5C310.54,434.16,309.02,433.99,307.62,433.64z"/>
		<path d="M320.28,436.34c0-0.07,0.02-0.2,0.05-0.38l1.32-4.72c0.13-0.47,0.29-0.77,0.5-0.92c0.21-0.14,0.55-0.22,1.04-0.22h2.54
			c0.41,0,0.71,0.05,0.89,0.16c0.18,0.11,0.27,0.28,0.27,0.51c0,0.25-0.07,0.55-0.22,0.89l-1.94,4.59
			c-0.11,0.23-0.25,0.41-0.42,0.53s-0.42,0.18-0.74,0.18h-2.48C320.55,436.96,320.28,436.76,320.28,436.34z"/>
		<path d="M81.65,464.14c-1.82-1.61-2.73-4-2.73-7.17c0-3.19,0.88-5.58,2.63-7.18c1.75-1.6,4.26-2.4,7.52-2.4
			c1.48,0,2.79,0.14,3.94,0.43c1.15,0.29,2.11,0.69,2.89,1.21c0.22,0.16,0.32,0.34,0.32,0.54c0,0.16-0.08,0.39-0.24,0.67l-1.35,2.32
			c-0.14,0.25-0.32,0.38-0.51,0.38c-0.13,0-0.33-0.07-0.62-0.22c-0.5-0.25-1.03-0.45-1.58-0.59c-0.55-0.14-1.19-0.22-1.93-0.22
			c-1.49,0-2.64,0.43-3.43,1.3c-0.79,0.86-1.19,2.12-1.19,3.75c0,1.62,0.43,2.87,1.3,3.74c0.86,0.87,2.04,1.31,3.54,1.31
			c1.3,0,2.48-0.27,3.56-0.81c0.29-0.14,0.5-0.22,0.62-0.22c0.2,0,0.37,0.13,0.51,0.38l1.35,2.32c0.16,0.29,0.24,0.51,0.24,0.67
			c0,0.2-0.11,0.38-0.32,0.54c-0.77,0.52-1.75,0.93-2.92,1.21c-1.17,0.29-2.49,0.43-3.97,0.43
			C86.01,466.56,83.46,465.75,81.65,464.14z"/>
		<path d="M96.63,465.58c0-0.16,0.04-0.36,0.14-0.59l6.72-16.17c0.16-0.38,0.35-0.64,0.55-0.8c0.21-0.15,0.5-0.23,0.88-0.23h2.94
			c0.38,0,0.67,0.08,0.88,0.23c0.21,0.15,0.39,0.42,0.55,0.8l6.7,16.17c0.09,0.23,0.13,0.43,0.13,0.59c0,0.38-0.2,0.57-0.59,0.57
			h-5.08c-0.56,0-0.91-0.24-1.05-0.73l-0.65-2h-4.78l-0.62,2c-0.14,0.49-0.5,0.73-1.05,0.73h-5.08
			C96.83,466.15,96.63,465.96,96.63,465.58z M107.43,459.16l-1.05-3.35l-1.05,3.35H107.43z"/>
		<path d="M117.84,465.77c-0.24-0.25-0.36-0.64-0.36-1.16v-15.28c0-0.52,0.12-0.91,0.36-1.16c0.24-0.25,0.66-0.38,1.26-0.38h6.45
			c2.7,0,4.67,0.54,5.9,1.61c1.23,1.07,1.85,2.69,1.85,4.85c0,1.3-0.22,2.39-0.66,3.28c-0.44,0.89-1.12,1.59-2.04,2.09l2.51,5.37
			c0.07,0.14,0.11,0.31,0.11,0.49c0,0.2-0.07,0.36-0.2,0.49c-0.13,0.13-0.31,0.19-0.53,0.19h-4.56c-0.29,0-0.52-0.04-0.69-0.12
			c-0.17-0.08-0.29-0.22-0.36-0.42l-2-5.02h-0.92v4.02c0,0.52-0.12,0.91-0.36,1.16s-0.67,0.38-1.28,0.38h-3.21
			C118.5,466.15,118.08,466.03,117.84,465.77z M124.98,456.08c0.58,0,1.03-0.15,1.36-0.46c0.33-0.31,0.5-0.76,0.5-1.38
			c0-0.63-0.17-1.1-0.5-1.4c-0.33-0.31-0.79-0.46-1.36-0.46h-1.84v3.7H124.98z"/>
		<path d="M132.89,465.58c0-0.16,0.04-0.36,0.14-0.59l6.72-16.17c0.16-0.38,0.35-0.64,0.55-0.8c0.21-0.15,0.5-0.23,0.88-0.23h2.94
			c0.38,0,0.67,0.08,0.88,0.23c0.21,0.15,0.39,0.42,0.55,0.8l6.7,16.17c0.09,0.23,0.13,0.43,0.13,0.59c0,0.38-0.2,0.57-0.59,0.57
			h-5.08c-0.56,0-0.91-0.24-1.05-0.73l-0.65-2h-4.78l-0.62,2c-0.14,0.49-0.5,0.73-1.05,0.73h-5.08
			C133.09,466.15,132.89,465.96,132.89,465.58z M143.69,459.16l-1.05-3.35l-1.05,3.35H143.69z"/>
		<path d="M154.44,464.14c-1.82-1.61-2.73-4-2.73-7.17c0-3.19,0.88-5.58,2.63-7.18c1.75-1.6,4.26-2.4,7.52-2.4
			c1.48,0,2.79,0.14,3.94,0.43c1.15,0.29,2.11,0.69,2.89,1.21c0.22,0.16,0.32,0.34,0.32,0.54c0,0.16-0.08,0.39-0.24,0.67l-1.35,2.32
			c-0.14,0.25-0.32,0.38-0.51,0.38c-0.13,0-0.33-0.07-0.62-0.22c-0.5-0.25-1.03-0.45-1.58-0.59c-0.55-0.14-1.19-0.22-1.93-0.22
			c-1.49,0-2.64,0.43-3.43,1.3c-0.79,0.86-1.19,2.12-1.19,3.75c0,1.62,0.43,2.87,1.3,3.74c0.86,0.87,2.04,1.31,3.54,1.31
			c1.3,0,2.48-0.27,3.56-0.81c0.29-0.14,0.5-0.22,0.62-0.22c0.2,0,0.37,0.13,0.51,0.38l1.35,2.32c0.16,0.29,0.24,0.51,0.24,0.67
			c0,0.2-0.11,0.38-0.32,0.54c-0.77,0.52-1.75,0.93-2.92,1.21c-1.17,0.29-2.49,0.43-3.97,0.43
			C158.8,466.56,156.25,465.75,154.44,464.14z"/>
		<path d="M174.62,465.77c-0.24-0.25-0.36-0.64-0.36-1.16v-12.23h-3.89c-0.58,0-0.97-0.12-1.17-0.37c-0.21-0.24-0.31-0.63-0.31-1.17
			v-1.51c0-0.54,0.1-0.93,0.31-1.17c0.21-0.24,0.6-0.37,1.17-0.37h14.26c0.58,0,0.97,0.12,1.17,0.37c0.21,0.24,0.31,0.63,0.31,1.17
			v1.51c0,0.54-0.1,0.93-0.31,1.17s-0.6,0.37-1.17,0.37h-3.89v12.23c0,0.52-0.12,0.91-0.36,1.16s-0.67,0.38-1.28,0.38h-3.21
			C175.28,466.15,174.86,466.03,174.62,465.77z"/>
		<path d="M187.28,465.77c-0.24-0.25-0.36-0.64-0.36-1.16v-15.28c0-0.52,0.12-0.91,0.36-1.16c0.24-0.25,0.66-0.38,1.26-0.38h11.18
			c0.58,0,0.97,0.12,1.17,0.37c0.21,0.24,0.31,0.63,0.31,1.17v1.51c0,0.54-0.1,0.93-0.31,1.17c-0.21,0.24-0.6,0.37-1.17,0.37h-6.32
			v2.32h3.89c0.58,0,0.97,0.12,1.17,0.36c0.21,0.24,0.31,0.63,0.31,1.17v1.46c0,0.54-0.1,0.93-0.31,1.17s-0.6,0.36-1.17,0.36h-3.89
			v2.32h6.29c0.58,0,0.97,0.12,1.17,0.36c0.21,0.24,0.31,0.63,0.31,1.17v1.51c0,0.54-0.1,0.93-0.31,1.17
			c-0.21,0.24-0.6,0.36-1.17,0.36h-11.15C187.94,466.15,187.53,466.03,187.28,465.77z"/>
		<path d="M202.78,465.77c-0.24-0.25-0.36-0.64-0.36-1.16v-15.28c0-0.52,0.12-0.91,0.36-1.16c0.24-0.25,0.66-0.38,1.26-0.38h6.45
			c2.7,0,4.67,0.54,5.9,1.61c1.23,1.07,1.85,2.69,1.85,4.85c0,1.3-0.22,2.39-0.66,3.28c-0.44,0.89-1.12,1.59-2.04,2.09l2.51,5.37
			c0.07,0.14,0.11,0.31,0.11,0.49c0,0.2-0.07,0.36-0.2,0.49c-0.13,0.13-0.31,0.19-0.53,0.19h-4.56c-0.29,0-0.52-0.04-0.69-0.12
			c-0.17-0.08-0.29-0.22-0.36-0.42l-2-5.02h-0.92v4.02c0,0.52-0.12,0.91-0.36,1.16s-0.67,0.38-1.28,0.38h-3.21
			C203.44,466.15,203.02,466.03,202.78,465.77z M209.92,456.08c0.58,0,1.03-0.15,1.36-0.46c0.33-0.31,0.5-0.76,0.5-1.38
			c0-0.63-0.17-1.1-0.5-1.4c-0.33-0.31-0.79-0.46-1.36-0.46h-1.84v3.7H209.92z"/>
		<path d="M219.95,465.77c-0.24-0.25-0.36-0.64-0.36-1.16v-15.28c0-0.52,0.12-0.91,0.36-1.16c0.24-0.25,0.66-0.38,1.26-0.38h3.21
			c0.61,0,1.04,0.12,1.28,0.37c0.24,0.24,0.36,0.63,0.36,1.17v15.28c0,0.52-0.12,0.91-0.36,1.16s-0.67,0.38-1.28,0.38h-3.21
			C220.61,466.15,220.2,466.03,219.95,465.77z"/>
		<path d="M231.39,466.04c-1.4-0.34-2.54-0.82-3.4-1.43c-0.36-0.25-0.54-0.5-0.54-0.73c0-0.16,0.06-0.33,0.19-0.51l1.57-2.46
			c0.16-0.23,0.32-0.35,0.49-0.35c0.14,0,0.31,0.06,0.51,0.19c0.65,0.4,1.39,0.71,2.23,0.93c0.84,0.23,1.65,0.34,2.44,0.34
			c0.67,0,1.15-0.09,1.44-0.27c0.3-0.18,0.45-0.46,0.45-0.84c0-0.41-0.2-0.75-0.59-1c-0.4-0.25-1.08-0.57-2.05-0.94
			c-1.82-0.7-3.25-1.5-4.29-2.39c-1.04-0.89-1.57-2.07-1.57-3.55c0-1.87,0.65-3.28,1.96-4.23c1.3-0.95,3.06-1.42,5.28-1.42
			c1.55,0,2.87,0.13,3.96,0.4c1.09,0.27,2.04,0.69,2.85,1.27c0.36,0.25,0.54,0.5,0.54,0.73c0,0.16-0.06,0.33-0.19,0.51l-1.57,2.46
			c-0.16,0.25-0.32,0.38-0.49,0.38c-0.11,0-0.28-0.07-0.51-0.22c-0.43-0.29-0.94-0.53-1.54-0.71c-0.59-0.19-1.23-0.28-1.92-0.28
			c-0.63,0-1.11,0.09-1.43,0.27c-0.32,0.18-0.49,0.47-0.49,0.86c0,0.32,0.11,0.59,0.34,0.81c0.22,0.22,0.51,0.4,0.85,0.55
			c0.34,0.15,0.94,0.4,1.78,0.74c1.35,0.54,2.41,1.06,3.19,1.55c0.77,0.5,1.36,1.09,1.75,1.78s0.59,1.57,0.59,2.63
			c0,1.62-0.61,2.93-1.82,3.93s-3.03,1.5-5.44,1.5C234.31,466.56,232.79,466.39,231.39,466.04z"/>
		<path d="M248.54,465.77c-0.24-0.25-0.36-0.64-0.36-1.16v-12.23h-3.89c-0.58,0-0.97-0.12-1.17-0.37c-0.21-0.24-0.31-0.63-0.31-1.17
			v-1.51c0-0.54,0.1-0.93,0.31-1.17c0.21-0.24,0.6-0.37,1.17-0.37h14.26c0.58,0,0.97,0.12,1.17,0.37c0.21,0.24,0.31,0.63,0.31,1.17
			v1.51c0,0.54-0.1,0.93-0.31,1.17s-0.6,0.37-1.17,0.37h-3.89v12.23c0,0.52-0.12,0.91-0.36,1.16s-0.67,0.38-1.28,0.38h-3.21
			C249.21,466.15,248.79,466.03,248.54,465.77z"/>
		<path d="M261.21,465.77c-0.24-0.25-0.36-0.64-0.36-1.16v-15.28c0-0.52,0.12-0.91,0.36-1.16c0.24-0.25,0.66-0.38,1.26-0.38h3.21
			c0.61,0,1.04,0.12,1.28,0.37c0.24,0.24,0.36,0.63,0.36,1.17v15.28c0,0.52-0.12,0.91-0.36,1.16s-0.67,0.38-1.28,0.38h-3.21
			C261.87,466.15,261.45,466.03,261.21,465.77z"/>
		<path d="M271.4,464.14c-1.82-1.61-2.73-4-2.73-7.17c0-3.19,0.88-5.58,2.63-7.18c1.75-1.6,4.26-2.4,7.52-2.4
			c1.48,0,2.79,0.14,3.94,0.43c1.15,0.29,2.11,0.69,2.89,1.21c0.22,0.16,0.32,0.34,0.32,0.54c0,0.16-0.08,0.39-0.24,0.67l-1.35,2.32
			c-0.14,0.25-0.32,0.38-0.51,0.38c-0.13,0-0.33-0.07-0.62-0.22c-0.5-0.25-1.03-0.45-1.58-0.59c-0.55-0.14-1.19-0.22-1.93-0.22
			c-1.49,0-2.64,0.43-3.43,1.3c-0.79,0.86-1.19,2.12-1.19,3.75c0,1.62,0.43,2.87,1.3,3.74c0.86,0.87,2.04,1.31,3.54,1.31
			c1.3,0,2.48-0.27,3.56-0.81c0.29-0.14,0.5-0.22,0.62-0.22c0.2,0,0.37,0.13,0.51,0.38l1.35,2.32c0.16,0.29,0.24,0.51,0.24,0.67
			c0,0.2-0.11,0.38-0.32,0.54c-0.77,0.52-1.75,0.93-2.92,1.21c-1.17,0.29-2.49,0.43-3.97,0.43
			C275.76,466.56,273.22,465.75,271.4,464.14z"/>
		<path d="M286.38,465.58c0-0.16,0.04-0.36,0.14-0.59l6.72-16.17c0.16-0.38,0.35-0.64,0.55-0.8c0.21-0.15,0.5-0.23,0.88-0.23h2.94
			c0.38,0,0.67,0.08,0.88,0.23c0.21,0.15,0.39,0.42,0.55,0.8l6.7,16.17c0.09,0.23,0.13,0.43,0.13,0.59c0,0.38-0.2,0.57-0.59,0.57
			h-5.08c-0.56,0-0.91-0.24-1.05-0.73l-0.65-2h-4.78l-0.62,2c-0.14,0.49-0.5,0.73-1.05,0.73h-5.08
			C286.58,466.15,286.38,465.96,286.38,465.58z M297.19,459.16l-1.05-3.35l-1.05,3.35H297.19z"/>
		<path d="M309.44,466.04c-1.4-0.34-2.54-0.82-3.4-1.43c-0.36-0.25-0.54-0.5-0.54-0.73c0-0.16,0.06-0.33,0.19-0.51l1.57-2.46
			c0.16-0.23,0.32-0.35,0.49-0.35c0.14,0,0.31,0.06,0.51,0.19c0.65,0.4,1.39,0.71,2.23,0.93c0.84,0.23,1.65,0.34,2.44,0.34
			c0.67,0,1.15-0.09,1.44-0.27c0.3-0.18,0.45-0.46,0.45-0.84c0-0.41-0.2-0.75-0.59-1c-0.4-0.25-1.08-0.57-2.05-0.94
			c-1.82-0.7-3.25-1.5-4.29-2.39c-1.04-0.89-1.57-2.07-1.57-3.55c0-1.87,0.65-3.28,1.96-4.23c1.3-0.95,3.06-1.42,5.28-1.42
			c1.55,0,2.87,0.13,3.96,0.4c1.09,0.27,2.04,0.69,2.85,1.27c0.36,0.25,0.54,0.5,0.54,0.73c0,0.16-0.06,0.33-0.19,0.51l-1.57,2.46
			c-0.16,0.25-0.32,0.38-0.49,0.38c-0.11,0-0.28-0.07-0.51-0.22c-0.43-0.29-0.94-0.53-1.54-0.71c-0.59-0.19-1.23-0.28-1.92-0.28
			c-0.63,0-1.11,0.09-1.43,0.27c-0.32,0.18-0.49,0.47-0.49,0.86c0,0.32,0.11,0.59,0.34,0.81c0.22,0.22,0.51,0.4,0.85,0.55
			c0.34,0.15,0.94,0.4,1.78,0.74c1.35,0.54,2.41,1.06,3.19,1.55c0.77,0.5,1.36,1.09,1.75,1.78s0.59,1.57,0.59,2.63
			c0,1.62-0.61,2.93-1.82,3.93s-3.03,1.5-5.44,1.5C312.37,466.56,310.85,466.39,309.44,466.04z"/>
		<path d="M322.11,468.74c0-0.07,0.02-0.2,0.05-0.38l1.32-4.72c0.13-0.47,0.29-0.77,0.5-0.92c0.21-0.14,0.55-0.22,1.04-0.22h2.54
			c0.41,0,0.71,0.05,0.89,0.16c0.18,0.11,0.27,0.28,0.27,0.51c0,0.25-0.07,0.55-0.22,0.89l-1.94,4.59
			c-0.11,0.23-0.25,0.41-0.42,0.53s-0.42,0.18-0.74,0.18h-2.48C322.38,469.37,322.11,469.16,322.11,468.74z"/>
		<path d="M123.28,498.17c-0.24-0.25-0.36-0.64-0.36-1.16v-15.28c0-0.52,0.12-0.91,0.36-1.16c0.24-0.25,0.66-0.38,1.26-0.38h6.45
			c2.7,0,4.67,0.54,5.9,1.61c1.23,1.07,1.85,2.69,1.85,4.85c0,1.3-0.22,2.39-0.66,3.28c-0.44,0.89-1.12,1.59-2.04,2.09l2.51,5.37
			c0.07,0.14,0.11,0.31,0.11,0.49c0,0.2-0.07,0.36-0.2,0.49c-0.13,0.13-0.31,0.19-0.53,0.19h-4.56c-0.29,0-0.52-0.04-0.69-0.12
			c-0.17-0.08-0.29-0.22-0.36-0.42l-2-5.02h-0.92v4.02c0,0.52-0.12,0.91-0.36,1.16s-0.67,0.38-1.28,0.38h-3.21
			C123.94,498.55,123.52,498.43,123.28,498.17z M130.42,488.48c0.58,0,1.03-0.15,1.36-0.46c0.33-0.31,0.5-0.76,0.5-1.38
			c0-0.63-0.17-1.1-0.5-1.4c-0.33-0.31-0.79-0.46-1.36-0.46h-1.84v3.7H130.42z"/>
		<path d="M140.45,498.17c-0.24-0.25-0.36-0.64-0.36-1.16v-15.28c0-0.52,0.12-0.91,0.36-1.16c0.24-0.25,0.66-0.38,1.26-0.38h11.18
			c0.58,0,0.97,0.12,1.17,0.37c0.21,0.24,0.31,0.63,0.31,1.17v1.51c0,0.54-0.1,0.93-0.31,1.17c-0.21,0.24-0.6,0.37-1.17,0.37h-6.32
			v2.32h3.89c0.58,0,0.97,0.12,1.17,0.36c0.21,0.24,0.31,0.63,0.31,1.17v1.46c0,0.54-0.1,0.93-0.31,1.17s-0.6,0.36-1.17,0.36h-3.89
			v2.32h6.29c0.58,0,0.97,0.12,1.17,0.36c0.21,0.24,0.31,0.63,0.31,1.17v1.51c0,0.54-0.1,0.93-0.31,1.17
			c-0.21,0.24-0.6,0.36-1.17,0.36h-11.15C141.11,498.55,140.69,498.43,140.45,498.17z"/>
		<path d="M163.48,502.13c-1.14-0.87-1.85-2-2.12-3.39c-2.39-0.4-4.2-1.4-5.43-3.01c-1.22-1.61-1.84-3.73-1.84-6.36
			c0-3.06,0.83-5.42,2.48-7.09c1.66-1.67,4.09-2.5,7.29-2.5c3.2,0,5.63,0.83,7.29,2.5c1.66,1.67,2.48,4.03,2.48,7.09
			c0,2.68-0.65,4.81-1.96,6.37c-1.31,1.57-3.25,2.54-5.85,2.92c0.14,0.29,0.41,0.5,0.78,0.65c0.38,0.14,0.77,0.22,1.19,0.22
			c0.83,0,1.52-0.19,2.08-0.57c0.16-0.11,0.29-0.16,0.38-0.16c0.14,0,0.25,0.08,0.32,0.24l1.46,2.29c0.09,0.14,0.14,0.25,0.14,0.32
			c0,0.07-0.03,0.14-0.09,0.22c-0.06,0.07-0.14,0.15-0.23,0.24c-0.52,0.43-1.1,0.76-1.74,0.99c-0.64,0.22-1.41,0.34-2.31,0.34
			C166.07,503.44,164.62,503,163.48,502.13z M166.41,493.17c0.52-0.84,0.78-2.1,0.78-3.79c0-1.71-0.26-2.98-0.78-3.81
			c-0.52-0.83-1.37-1.24-2.54-1.24c-1.17,0-2.02,0.41-2.54,1.24c-0.52,0.83-0.78,2.1-0.78,3.81c0,1.69,0.26,2.96,0.78,3.79
			c0.52,0.84,1.37,1.26,2.54,1.26C165.04,494.42,165.89,494,166.41,493.17z"/>
		<path d="M179.07,498.11c-1.33-0.57-2.37-1.39-3.1-2.46c-0.74-1.07-1.11-2.34-1.11-3.82v-10.1c0-0.52,0.12-0.91,0.36-1.16
			c0.24-0.25,0.66-0.38,1.26-0.38h3.21c0.61,0,1.04,0.12,1.28,0.37c0.24,0.24,0.36,0.63,0.36,1.17v10.18c0,0.85,0.21,1.48,0.63,1.89
			s1,0.62,1.74,0.62c0.74,0,1.32-0.21,1.74-0.62c0.42-0.41,0.63-1.04,0.63-1.89v-10.18c0-0.52,0.12-0.91,0.36-1.16
			c0.24-0.25,0.66-0.38,1.26-0.38h3.21c0.61,0,1.04,0.12,1.28,0.37c0.24,0.24,0.36,0.63,0.36,1.17v10.1c0,1.48-0.37,2.75-1.11,3.82
			c-0.74,1.07-1.77,1.89-3.1,2.46c-1.33,0.57-2.88,0.85-4.64,0.85C181.95,498.96,180.41,498.67,179.07,498.11z"/>
		<path d="M194.69,498.17c-0.24-0.25-0.36-0.64-0.36-1.16v-15.28c0-0.52,0.12-0.91,0.36-1.16c0.24-0.25,0.66-0.38,1.26-0.38h3.21
			c0.61,0,1.04,0.12,1.28,0.37c0.24,0.24,0.36,0.63,0.36,1.17v15.28c0,0.52-0.12,0.91-0.36,1.16s-0.67,0.38-1.28,0.38h-3.21
			C195.35,498.55,194.94,498.43,194.69,498.17z"/>
		<path d="M206.13,498.44c-1.4-0.34-2.54-0.82-3.4-1.43c-0.36-0.25-0.54-0.5-0.54-0.73c0-0.16,0.06-0.33,0.19-0.51l1.57-2.46
			c0.16-0.23,0.32-0.35,0.49-0.35c0.14,0,0.31,0.06,0.51,0.19c0.65,0.4,1.39,0.71,2.23,0.93c0.84,0.23,1.65,0.34,2.44,0.34
			c0.67,0,1.15-0.09,1.44-0.27c0.3-0.18,0.45-0.46,0.45-0.84c0-0.41-0.2-0.75-0.59-1c-0.4-0.25-1.08-0.57-2.05-0.94
			c-1.82-0.7-3.25-1.5-4.29-2.39c-1.04-0.89-1.57-2.07-1.57-3.55c0-1.87,0.65-3.28,1.96-4.23c1.3-0.95,3.06-1.42,5.28-1.42
			c1.55,0,2.87,0.13,3.96,0.4c1.09,0.27,2.04,0.69,2.85,1.27c0.36,0.25,0.54,0.5,0.54,0.73c0,0.16-0.06,0.33-0.19,0.51l-1.57,2.46
			c-0.16,0.25-0.32,0.38-0.49,0.38c-0.11,0-0.28-0.07-0.51-0.22c-0.43-0.29-0.94-0.53-1.54-0.71c-0.59-0.19-1.23-0.28-1.92-0.28
			c-0.63,0-1.11,0.09-1.43,0.27c-0.32,0.18-0.49,0.47-0.49,0.86c0,0.32,0.11,0.59,0.34,0.81c0.22,0.22,0.51,0.4,0.85,0.55
			c0.34,0.15,0.94,0.4,1.78,0.74c1.35,0.54,2.41,1.06,3.19,1.55c0.77,0.5,1.36,1.09,1.75,1.78s0.59,1.57,0.59,2.63
			c0,1.62-0.61,2.93-1.82,3.93s-3.03,1.5-5.44,1.5C209.05,498.96,207.53,498.79,206.13,498.44z"/>
		<path d="M219.67,498.17c-0.24-0.25-0.36-0.64-0.36-1.16v-15.28c0-0.52,0.12-0.91,0.36-1.16c0.24-0.25,0.66-0.38,1.26-0.38h3.21
			c0.61,0,1.04,0.12,1.28,0.37c0.24,0.24,0.36,0.63,0.36,1.17v15.28c0,0.52-0.12,0.91-0.36,1.16s-0.67,0.38-1.28,0.38h-3.21
			C220.33,498.55,219.91,498.43,219.67,498.17z"/>
		<path d="M232.33,498.17c-0.24-0.25-0.36-0.64-0.36-1.16v-12.23h-3.89c-0.58,0-0.97-0.12-1.17-0.37c-0.21-0.24-0.31-0.63-0.31-1.17
			v-1.51c0-0.54,0.1-0.93,0.31-1.17c0.21-0.24,0.6-0.37,1.17-0.37h14.26c0.58,0,0.97,0.12,1.17,0.37c0.21,0.24,0.31,0.63,0.31,1.17
			v1.51c0,0.54-0.1,0.93-0.31,1.17s-0.6,0.37-1.17,0.37h-3.89v12.23c0,0.52-0.12,0.91-0.36,1.16s-0.67,0.38-1.28,0.38h-3.21
			C232.99,498.55,232.57,498.43,232.33,498.17z"/>
		<path d="M245.36,496.46c-1.66-1.66-2.48-4.03-2.48-7.09c0-3.06,0.83-5.42,2.48-7.09c1.66-1.67,4.09-2.5,7.29-2.5
			c3.2,0,5.63,0.83,7.29,2.5c1.66,1.67,2.48,4.03,2.48,7.09c0,3.06-0.83,5.42-2.48,7.09c-1.66,1.67-4.09,2.5-7.29,2.5
			C249.44,498.96,247.01,498.12,245.36,496.46z M255.19,493.17c0.52-0.84,0.78-2.1,0.78-3.79c0-1.71-0.26-2.98-0.78-3.81
			c-0.52-0.83-1.37-1.24-2.54-1.24c-1.17,0-2.02,0.41-2.54,1.24c-0.52,0.83-0.78,2.1-0.78,3.81c0,1.69,0.26,2.96,0.78,3.79
			c0.52,0.84,1.37,1.26,2.54,1.26C253.82,494.42,254.66,494,255.19,493.17z"/>
		<path d="M265.99,498.44c-1.4-0.34-2.54-0.82-3.4-1.43c-0.36-0.25-0.54-0.5-0.54-0.73c0-0.16,0.06-0.33,0.19-0.51l1.57-2.46
			c0.16-0.23,0.32-0.35,0.49-0.35c0.14,0,0.31,0.06,0.51,0.19c0.65,0.4,1.39,0.71,2.23,0.93c0.84,0.23,1.65,0.34,2.44,0.34
			c0.67,0,1.15-0.09,1.44-0.27c0.3-0.18,0.45-0.46,0.45-0.84c0-0.41-0.2-0.75-0.59-1c-0.4-0.25-1.08-0.57-2.05-0.94
			c-1.82-0.7-3.25-1.5-4.29-2.39c-1.04-0.89-1.57-2.07-1.57-3.55c0-1.87,0.65-3.28,1.96-4.23c1.3-0.95,3.06-1.42,5.28-1.42
			c1.55,0,2.87,0.13,3.96,0.4c1.09,0.27,2.04,0.69,2.85,1.27c0.36,0.25,0.54,0.5,0.54,0.73c0,0.16-0.06,0.33-0.19,0.51l-1.57,2.46
			c-0.16,0.25-0.32,0.38-0.49,0.38c-0.11,0-0.28-0.07-0.51-0.22c-0.43-0.29-0.94-0.53-1.54-0.71c-0.59-0.19-1.23-0.28-1.92-0.28
			c-0.63,0-1.11,0.09-1.43,0.27c-0.32,0.18-0.49,0.47-0.49,0.86c0,0.32,0.11,0.59,0.34,0.81c0.22,0.22,0.51,0.4,0.85,0.55
			c0.34,0.15,0.94,0.4,1.78,0.74c1.35,0.54,2.41,1.06,3.19,1.55c0.77,0.5,1.36,1.09,1.75,1.78s0.59,1.57,0.59,2.63
			c0,1.62-0.61,2.93-1.82,3.93s-3.03,1.5-5.44,1.5C268.91,498.96,267.39,498.79,265.99,498.44z"/>
		<path d="M278.65,501.14c0-0.07,0.02-0.2,0.05-0.38l1.32-4.72c0.13-0.47,0.29-0.77,0.5-0.92c0.21-0.14,0.55-0.22,1.04-0.22h2.54
			c0.41,0,0.71,0.05,0.89,0.16c0.18,0.11,0.27,0.28,0.27,0.51c0,0.25-0.07,0.55-0.22,0.89l-1.94,4.59
			c-0.11,0.23-0.25,0.41-0.42,0.53s-0.42,0.18-0.74,0.18h-2.48C278.92,501.76,278.65,501.56,278.65,501.14z"/>
		<path d="M151.55,530.57c-0.24-0.25-0.36-0.64-0.36-1.16v-15.28c0-0.52,0.12-0.91,0.36-1.16c0.24-0.25,0.66-0.38,1.26-0.38h6.45
			c2.7,0,4.67,0.54,5.9,1.61c1.23,1.07,1.85,2.69,1.85,4.85s-0.62,3.77-1.85,4.83c-1.23,1.06-3.19,1.59-5.87,1.59h-1.62v3.94
			c0,0.52-0.12,0.91-0.36,1.16s-0.67,0.38-1.28,0.38h-3.21C152.22,530.95,151.8,530.83,151.55,530.57z M158.7,520.88
			c0.58,0,1.03-0.15,1.36-0.46c0.33-0.31,0.5-0.76,0.5-1.38c0-0.63-0.17-1.1-0.5-1.4c-0.33-0.31-0.79-0.46-1.36-0.46h-1.84v3.7
			H158.7z"/>
		<path d="M168.19,530.57c-0.24-0.25-0.36-0.64-0.36-1.16v-15.28c0-0.52,0.12-0.91,0.36-1.16c0.24-0.25,0.66-0.38,1.26-0.38h3.21
			c0.61,0,1.04,0.12,1.28,0.37c0.24,0.24,0.36,0.63,0.36,1.17v12.23h6.29c0.58,0,0.97,0.12,1.17,0.36c0.21,0.24,0.31,0.63,0.31,1.17
			v1.51c0,0.54-0.1,0.93-0.31,1.17c-0.21,0.24-0.6,0.36-1.17,0.36h-11.15C168.85,530.95,168.43,530.83,168.19,530.57z"/>
		<path d="M181.94,530.38c0-0.16,0.04-0.36,0.14-0.59l6.72-16.17c0.16-0.38,0.35-0.64,0.55-0.8c0.21-0.15,0.5-0.23,0.88-0.23h2.94
			c0.38,0,0.67,0.08,0.88,0.23c0.21,0.15,0.39,0.42,0.55,0.8l6.7,16.17c0.09,0.23,0.13,0.43,0.13,0.59c0,0.38-0.2,0.57-0.59,0.57
			h-5.08c-0.56,0-0.91-0.24-1.05-0.73l-0.65-2h-4.78l-0.62,2c-0.14,0.49-0.5,0.73-1.05,0.73h-5.08
			C182.14,530.95,181.94,530.76,181.94,530.38z M192.74,523.96l-1.05-3.35l-1.05,3.35H192.74z"/>
		<path d="M203.15,530.57c-0.24-0.25-0.36-0.64-0.36-1.16V514.1c0-0.52,0.12-0.91,0.36-1.15c0.24-0.24,0.67-0.37,1.28-0.37H207
			c0.38,0,0.67,0.05,0.88,0.15c0.21,0.1,0.41,0.29,0.61,0.58l4.89,7.26v-6.45c0-0.52,0.12-0.91,0.36-1.16
			c0.24-0.25,0.66-0.38,1.26-0.38h3.21c0.61,0,1.04,0.12,1.28,0.37c0.24,0.24,0.36,0.63,0.36,1.17v15.31c0,0.52-0.12,0.9-0.36,1.15
			s-0.67,0.36-1.28,0.36h-2.56c-0.38,0-0.67-0.05-0.88-0.15c-0.21-0.1-0.41-0.29-0.61-0.58l-4.89-7.26v6.48
			c0,0.52-0.12,0.9-0.36,1.15s-0.67,0.36-1.28,0.36h-3.21C203.81,530.95,203.39,530.83,203.15,530.57z"/>
		<path d="M222.1,530.57c-0.24-0.25-0.36-0.64-0.36-1.16v-15.28c0-0.52,0.12-0.91,0.36-1.16c0.24-0.25,0.66-0.38,1.26-0.38h11.18
			c0.58,0,0.97,0.12,1.17,0.37c0.21,0.24,0.31,0.63,0.31,1.17v1.51c0,0.54-0.1,0.93-0.31,1.17c-0.21,0.24-0.6,0.37-1.17,0.37h-6.32
			v2.32h3.89c0.58,0,0.97,0.12,1.17,0.36c0.21,0.24,0.31,0.63,0.31,1.17v1.46c0,0.54-0.1,0.93-0.31,1.17s-0.6,0.36-1.17,0.36h-3.89
			v2.32h6.29c0.58,0,0.97,0.12,1.17,0.36c0.21,0.24,0.31,0.63,0.31,1.17v1.51c0,0.54-0.1,0.93-0.31,1.17
			c-0.21,0.24-0.6,0.36-1.17,0.36h-11.15C222.77,530.95,222.35,530.83,222.1,530.57z"/>
		<path d="M240.67,530.84c-1.4-0.34-2.54-0.82-3.4-1.43c-0.36-0.25-0.54-0.5-0.54-0.73c0-0.16,0.06-0.33,0.19-0.51l1.57-2.46
			c0.16-0.23,0.32-0.35,0.49-0.35c0.14,0,0.31,0.06,0.51,0.19c0.65,0.4,1.39,0.71,2.23,0.93c0.84,0.23,1.65,0.34,2.44,0.34
			c0.67,0,1.15-0.09,1.44-0.27c0.3-0.18,0.45-0.46,0.45-0.84c0-0.41-0.2-0.75-0.59-1c-0.4-0.25-1.08-0.57-2.05-0.94
			c-1.82-0.7-3.25-1.5-4.29-2.39c-1.04-0.89-1.57-2.07-1.57-3.55c0-1.87,0.65-3.28,1.96-4.23c1.3-0.95,3.06-1.42,5.28-1.42
			c1.55,0,2.87,0.13,3.96,0.4c1.09,0.27,2.04,0.69,2.85,1.27c0.36,0.25,0.54,0.5,0.54,0.73c0,0.16-0.06,0.33-0.19,0.51l-1.57,2.46
			c-0.16,0.25-0.32,0.38-0.49,0.38c-0.11,0-0.28-0.07-0.51-0.22c-0.43-0.29-0.94-0.53-1.54-0.71c-0.59-0.19-1.23-0.28-1.92-0.28
			c-0.63,0-1.11,0.09-1.43,0.27c-0.32,0.18-0.49,0.47-0.49,0.86c0,0.32,0.11,0.59,0.34,0.81c0.22,0.22,0.51,0.4,0.85,0.55
			c0.34,0.15,0.94,0.4,1.78,0.74c1.35,0.54,2.41,1.06,3.19,1.55c0.77,0.5,1.36,1.09,1.75,1.78s0.59,1.57,0.59,2.63
			c0,1.62-0.61,2.93-1.82,3.93s-3.03,1.5-5.44,1.5C243.59,531.36,242.07,531.19,240.67,530.84z"/>
		<path d="M253.72,530.47c-0.29-0.32-0.43-0.7-0.43-1.13v-0.65c0-0.47,0.14-0.85,0.43-1.16c0.29-0.3,0.65-0.46,1.1-0.46h0.68
			c0.45,0,0.82,0.15,1.1,0.46c0.29,0.3,0.43,0.69,0.43,1.16v0.65c0,0.45-0.14,0.83-0.43,1.14c-0.29,0.31-0.65,0.47-1.1,0.47h-0.68
			C254.37,530.95,254,530.79,253.72,530.47z"/>
	</g>
	<polygon class="st1" points="200.76,96.93 214.23,124.22 244.34,128.59 222.55,149.83 227.7,179.83 200.76,165.67 173.83,179.83 
		178.97,149.83 157.18,128.59 187.29,124.22 	"/>
	<polygon class="st1" points="138.58,180.15 147.32,197.86 166.86,200.7 152.72,214.48 156.06,233.94 138.58,224.75 121.11,233.94 
		124.45,214.48 110.31,200.7 129.85,197.86 	"/>
	<polygon class="st1" points="268.68,180.15 277.42,197.86 296.95,200.7 282.82,214.48 286.15,233.94 268.68,224.75 251.2,233.94 
		254.54,214.48 240.4,200.7 259.94,197.86 	"/>
	<g>
		<circle class="st2" cx="201.77" cy="213.97" r="121.96"/>
		<circle class="st3" cx="200.82" cy="200.58" r="121.96"/>
	</g>
	<g>
		<path class="st3" d="M181.43,643.16c-0.56-0.66-0.84-1.72-0.84-3.18v-4.09c0-1.46,0.28-2.52,0.84-3.18
			c0.56-0.66,1.62-0.99,3.18-0.99h4.6v-19.05l-2.99,1.9c-0.24,0.2-0.54,0.29-0.88,0.29c-0.44,0-0.8-0.22-1.1-0.66l-5.55-8.47
			c-0.19-0.24-0.29-0.51-0.29-0.8c0-0.49,0.27-0.88,0.8-1.17l13.8-8.32c0.58-0.34,1.14-0.58,1.68-0.73
			c0.54-0.15,1.31-0.22,2.34-0.22h5.33c1.61,0,2.74,0.34,3.39,1.02c0.66,0.68,0.99,1.73,0.99,3.14v33.07h4.67
			c1.56,0,2.62,0.33,3.18,0.99c0.56,0.66,0.84,1.72,0.84,3.18v4.09c0,1.46-0.28,2.52-0.84,3.18c-0.56,0.66-1.62,0.99-3.18,0.99
			h-26.79C183.05,644.14,181.99,643.81,181.43,643.16z"/>
	</g>
	<g>
		<g>
			<path class="st146" d="M252.43,218.68c-0.19,0.36-0.38,0.76-0.57,1.19c-1.54,3.25-3.95,8.24-4.55,12.28
				c-2.26,1.79-4.47,3.35-6.44,5.02c-1.81,1.39-4.57,2.97-6.66,4.68h-23.64c0.4-0.12,0.8-0.22,1.19-0.31
				c2.54-0.51,5.19-1.12,7.73-1.63c3.5-0.63,7.49-1.96,11.21-2.4c1.65-1.16,3.45-2.16,5.19-3.1c2.05-1.13,3.69-2.67,5.46-4.13
				c0.84-2.82,1.5-5.98,3.09-8.28C246.19,219.62,249.45,218.78,252.43,218.68z"/>
		</g>
		<g class="st147">
			<g>
				<path class="st148" d="M252.43,218.68c-0.19,0.36-0.38,0.76-0.57,1.19c-1.54,3.25-3.95,8.24-4.55,12.28
					c-2.26,1.79-4.47,3.35-6.44,5.02c-1.81,1.39-4.57,2.97-6.66,4.68h-23.64c0.4-0.12,0.8-0.22,1.19-0.31
					c2.54-0.51,5.19-1.12,7.73-1.63c3.5-0.63,7.49-1.96,11.21-2.4c1.65-1.16,3.45-2.16,5.19-3.1c2.05-1.13,3.69-2.67,5.46-4.13
					c0.84-2.82,1.5-5.98,3.09-8.28C246.19,219.62,249.45,218.78,252.43,218.68z"/>
			</g>
		</g>
		<g>
			<path class="st149" d="M262,214.38c-0.32,4.64-1.12,8.86-1.59,12.62c-0.61,3.87-1.21,10.37-2.03,11.61
				c-1.31,1.97-8.35,9.16-12.42,13.63c-1.83,2.04-3.05,5.3-5.09,7.13c-2.65,2.64-6.72,2.23-10.17,2.84
				c-7.54,1.43-14.96,3.97-22.7,3.97c-6.72,0-15.37-1.12-22.09-2.95c-12.34-3.47-22.86-8.55-35.54-10.62V218.1
				c11.09-0.55,44.79,0.15,51.21,0.15c4.97,0,13.45,0.94,19.08,1.19c7.52,17.01-18.95,11.39-31.33,15.01
				c3.71,6.36,11.78,7.41,18.96,7.41h25.91c2.09-1.71,4.85-3.29,6.66-4.68c1.97-1.67,4.18-3.23,6.44-5.02
				c0.6-4.04,3.01-9.03,4.55-12.28c0.19-0.43,0.37-0.82,0.57-1.19C254.64,214.53,257.53,214.38,262,214.38z"/>
		</g>
		<g class="st150">
			<g>
				<path class="st151" d="M221.36,223.82l-5.78,1.15c-1.43,0-3.49,0.46-4.48-0.53c-0.61-0.63-0.88-2.06-1.16-2.78
					c-0.41-0.95-0.97-2.01-1.3-3.09c3.92,0.3,8.14,0.67,11.41,0.81C220.59,219.81,221.45,222.29,221.36,223.82z"/>
			</g>
		</g>
		<g>
			<rect x="141.51" y="214.29" class="st3" width="24.57" height="44.78"/>
		</g>
		<g>
			<polygon class="st28" points="129.91,262.93 161.49,262.93 161.49,262.84 161.49,259.06 161.49,236.6 161.49,214.29 
				161.49,210.42 129.91,210.42 129.91,236.6 129.91,262.84 			"/>
		</g>
		<g class="st152">
			<rect x="129.91" y="236.6" class="st153" width="31.58" height="26.25"/>
		</g>
		<g>
			<path class="st154" d="M150.89,251.85c0,2.87-2.33,5.19-5.19,5.19c-2.87,0-5.19-2.32-5.19-5.19c0-2.87,2.32-5.19,5.19-5.19
				C148.56,246.66,150.89,248.98,150.89,251.85z"/>
		</g>
		<circle class="st155" cx="221.52" cy="174.94" r="39.94"/>
		<g>
			<path class="st3" d="M214.73,164.93c-0.8-0.8-1.2-1.77-1.2-2.9v-1.47c0-1.13,0.4-2.1,1.2-2.9c0.8-0.8,1.96-1.2,3.49-1.2h5.1
				c1.53,0,2.7,0.4,3.52,1.2c0.82,0.8,1.23,1.77,1.23,2.9v1.47c0,1.13-0.41,2.1-1.23,2.9c-0.82,0.8-2,1.2-3.52,1.2h-5.1
				C216.7,166.13,215.53,165.73,214.73,164.93z M214.55,195.53c-0.53-0.55-0.79-1.39-0.79-2.52v-21.47c0-1.13,0.26-1.97,0.79-2.52
				c0.53-0.55,1.44-0.82,2.73-0.82h6.98c1.33,0,2.26,0.26,2.79,0.79s0.79,1.38,0.79,2.55v21.47c0,1.13-0.26,1.98-0.79,2.52
				s-1.46,0.82-2.79,0.82h-6.98C215.99,196.35,215.08,196.08,214.55,195.53z"/>
		</g>
	</g>
</g>
</svg>
