<?xml version="1.0" encoding="utf-8"?>
<!-- Generator: Adobe Illustrator 23.0.0, SVG Export Plug-In . SVG Version: 6.00 Build 0)  -->
<svg version="1.1" id="Capa_1" xmlns="http://www.w3.org/2000/svg" xmlns:xlink="http://www.w3.org/1999/xlink" x="0px" y="0px"
	 viewBox="0 0 400 702" style="enable-background:new 0 0 400 702;" xml:space="preserve">
<style type="text/css">
	.st0{fill:#0085B0;}
	.st1{fill:#E0EF18;}
	.st2{fill:#CECECE;}
	.st3{fill:#FFFFFF;}
	.st4{fill:#F2F2F2;}
	.st5{fill:#EACCB0;}
	.st6{fill:#9B9B9B;}
	.st7{fill:#939393;}
	.st8{fill:#EFEFEF;}
	.st9{fill:#828282;}
	.st10{fill:#2C2A2D;}
	.st11{fill:#202021;}
	.st12{fill:#F2D4B6;}
	.st13{fill:#534D46;}
	.st14{fill:#E8D313;}
	.st15{fill:#2ACCFF;}
	.st16{fill:#4E4F4F;}
	.st17{fill:#003A94;}
	.st18{fill:#00D13C;}
	.st19{fill:#15682A;}
	.st20{fill:#D40000;}
	.st21{fill:#505050;}
	.st22{fill:#DFDFDF;}
	.st23{fill:none;}
	.st24{fill:#636363;}
	.st25{fill:#6C92D5;}
	.st26{fill:#22272F;}
	.st27{fill:#1B2538;}
	.st28{fill:#253452;}
	.st29{fill:#F9F9F9;}
	.st30{fill:#2D3543;}
	.st31{fill:#2A3D60;}
	.st32{fill:#587955;}
	.st33{fill:#CD7054;}
	.st34{fill:#F1CC4B;}
	.st35{fill:#ACACAC;}
	.st36{fill:#AAE528;}
	.st37{fill:#28CEBA;}
	.st38{fill:#DB143F;}
	.st39{fill:#53C2C9;}
	.st40{fill:#FFB412;}
	.st41{fill:#866A5E;}
	.st42{fill:#F7DDCB;}
	.st43{fill:#FFE6D4;}
	.st44{fill:#F5F5F5;}
	.st45{fill:#1A2830;}
	.st46{fill:#24353F;}
	.st47{fill:#132026;}
	.st48{fill:#F9FF03;}
	.st49{fill:#272728;}
	.st50{fill:#1E1D1E;}
	.st51{fill:#160423;}
	.st52{fill-rule:evenodd;clip-rule:evenodd;fill:#FFFFFF;}
	.st53{fill-rule:evenodd;clip-rule:evenodd;fill:#1996B8;}
	.st54{fill:#0C387D;}
	.st55{fill:#C69A81;}
	.st56{fill:#D1A385;}
	.st57{fill:#EAEAEA;}
	.st58{fill:#093E8C;}
	.st59{fill:#0B2A62;}
	.st60{fill:#D32A3B;}
	.st61{fill:#827C7D;}
	.st62{opacity:0.7;fill:#7F7F7F;}
	.st63{fill:#FDFDFD;}
	.st64{fill:#DAA449;}
	.st65{fill:#DD9225;}
	.st66{opacity:0.3;}
	.st67{fill:#425793;}
	.st68{opacity:0.8;}
	.st69{filter:url(#Adobe_OpacityMaskFilter);}
	.st70{opacity:0.15;mask:url(#SVGID_1_);}
	.st71{fill:#090B00;}
	.st72{opacity:0.1;}
	.st73{fill:#211915;}
	.st74{filter:url(#Adobe_OpacityMaskFilter_1_);}
	.st75{opacity:0.15;mask:url(#SVGID_2_);}
	.st76{fill:#AF3623;}
	.st77{filter:url(#Adobe_OpacityMaskFilter_2_);}
	.st78{opacity:0.15;mask:url(#SVGID_3_);}
	.st79{filter:url(#Adobe_OpacityMaskFilter_3_);}
	.st80{opacity:0.15;mask:url(#SVGID_4_);}
	.st81{fill:#456495;}
	.st82{filter:url(#Adobe_OpacityMaskFilter_4_);}
	.st83{opacity:0.15;mask:url(#SVGID_5_);}
	.st84{filter:url(#Adobe_OpacityMaskFilter_5_);}
	.st85{opacity:0.15;mask:url(#SVGID_6_);}
	.st86{fill:#76A9DA;}
	.st87{filter:url(#Adobe_OpacityMaskFilter_6_);}
	.st88{opacity:0.15;mask:url(#SVGID_7_);}
	.st89{filter:url(#Adobe_OpacityMaskFilter_7_);}
	.st90{opacity:0.15;mask:url(#SVGID_8_);}
	.st91{fill:#1F3642;}
	.st92{fill:#A9BDDA;}
	.st93{opacity:0.46;fill:#A6B4BC;}
	.st94{fill:#74C475;}
	.st95{fill:#221F21;}
	.st96{fill:#2D2D2D;}
	.st97{fill:#1C1B1A;}
	.st98{fill:#77181C;}
	.st99{fill:#262525;}
	.st100{fill:#11100F;}
	.st101{opacity:0.18;}
	.st102{opacity:0.38;}
	.st103{fill:#0A5B1F;}
	.st104{opacity:0.27;}
	.st105{opacity:0.48;}
	.st106{fill:#0A4654;}
	.st107{fill:#C2C6C6;}
	.st108{fill:#E5E5E5;stroke:#FFFFFF;stroke-miterlimit:10;}
	.st109{fill:#ACB4B5;}
	.st110{fill:#7F8384;}
	.st111{fill:#15772F;}
	.st112{fill:#F4F4F4;}
	.st113{fill:#53B8DB;}
	.st114{fill:#06EF42;}
	.st115{fill:#E7ED07;}
	.st116{fill:#CCCCCA;}
	.st117{fill:#EADF13;}
	.st118{fill:#C2C2C2;}
	.st119{fill:#85B681;}
	.st120{fill:#A1DC9B;}
	.st121{fill:#90C58B;}
	.st122{fill:#22241F;}
	.st123{opacity:0.5;}
	.st124{fill:#A2CADE;}
	.st125{fill:#E9E9E9;}
	.st126{fill:#D9D9D9;}
	.st127{fill:#CDCDCD;}
	.st128{opacity:0.34;fill:#F0F0F0;}
	.st129{fill:#5A5B5A;}
	.st130{fill:#FFE600;}
	.st131{fill:#DB1F59;}
	.st132{fill:#727272;}
	.st133{fill:#207235;}
	.st134{fill:#A3A3A3;}
	.st135{fill:#BCBCBC;}
	.st136{fill:#0A511C;}
	.st137{fill:#F9FF00;}
	.st138{fill:#D59F6D;}
	.st139{fill:#C0804A;}
	.st140{fill:#E6BA8A;}
	.st141{fill:#BE3ACC;}
	.st142{fill:#FFFFFF;stroke:#443F0C;stroke-width:9;stroke-miterlimit:10;}
	.st143{fill:none;stroke:#443F0C;stroke-width:9;stroke-miterlimit:10;}
	.st144{fill:#170623;}
	.st145{fill:#158231;}
	.st146{fill:#C89D76;}
	.st147{opacity:0.4;}
	.st148{fill:#ADADAD;}
	.st149{fill:#EDC3A6;}
	.st150{opacity:0.69;}
	.st151{fill:#E5D3D6;}
	.st152{opacity:0.44;}
	.st153{fill:#A5A5A5;}
	.st154{fill:#DDE5E4;}
	.st155{fill:#5C9169;}
	.st156{fill:#934215;}
	.st157{fill:#47413B;}
	.st158{fill:#601A1F;}
	.st159{fill:#044554;}
	.st160{opacity:0.7;}
	.st161{fill:#7F7F7F;}
	.st162{fill:#6B8A69;}
	.st163{opacity:0.24;fill:#848D90;}
	.st164{opacity:0.4;fill:#848D90;}
	.st165{fill:#F2D5D5;}
	.st166{fill:#485CC1;}
	.st167{fill:#C6CBE0;}
	.st168{fill:#8B909E;}
	.st169{fill:#53BC1B;}
	.st170{fill:#11565B;}
	.st171{fill:#67A06D;}
	.st172{fill:#FFEC00;}
	.st173{fill:#77A007;}
	.st174{fill:#E50731;}
	.st175{fill:#266472;}
	.st176{fill:#D4D4D4;}
	.st177{fill:#0E9932;}
	.st178{fill:#87DD24;}
	.st179{fill:#76A172;}
	.st180{fill:#62835F;}
	.st181{fill:#96D090;}
	.st182{fill:#D6D6D6;}
	.st183{fill:#606060;}
	.st184{fill:#494949;}
	.st185{fill:#29E55A;}
	.st186{fill:#2C703D;}
	.st187{fill:#DD0744;}
	.st188{fill:#EDEDED;}
	.st189{fill:#2A5936;}
	.st190{fill:#B9BBC1;}
	.st191{fill:#FFD79E;}
	.st192{fill:#FFE6C2;}
	.st193{fill:#2CBB55;}
	.st194{fill:#5C412D;}
	.st195{fill:#EC0000;}
	.st196{fill:#DD2626;}
	.st197{fill:#EA9334;}
	.st198{fill:#FCC232;}
	.st199{fill:#F9B234;}
	.st200{fill:#F7A037;}
	.st201{fill:#E0E0E0;}
</style>
<g>
	<g>
		<path class="st18" d="M9.5,209.36c0,22,13.29,27.86,29.54,13.03c0,0,156.99-143.3,353.09,26.97V55c0-22-18-40-40-40H49.5
			c-22,0-40,18-40,40V209.36z"/>
	</g>
	<g>
		<path class="st18" d="M391.66,647c0,22-18,40-40,40H49.98c-22,0-40-18-40-40v-46.27c0-22,18-40,40-40h301.68c22,0,40,18,40,40V647
			z"/>
	</g>
	<g>
		<path d="M168.31,389.48c-0.31-0.32-0.46-0.8-0.46-1.46v-19.28c0-0.66,0.15-1.14,0.46-1.45c0.31-0.31,0.84-0.46,1.62-0.46h3.91
			c0.5,0,0.9,0.06,1.19,0.19s0.52,0.37,0.68,0.73l3.98,9.96l3.98-9.96c0.16-0.36,0.39-0.61,0.68-0.73c0.29-0.13,0.69-0.19,1.19-0.19
			h3.91c0.77,0,1.31,0.15,1.62,0.46c0.31,0.31,0.46,0.79,0.46,1.45v19.28c0,0.66-0.15,1.15-0.46,1.46s-0.83,0.48-1.58,0.48h-3.26
			c-0.75,0-1.28-0.16-1.6-0.48c-0.32-0.32-0.48-0.8-0.48-1.46v-9.28l-2.01,4.62c-0.27,0.66-0.57,1.13-0.88,1.41
			c-0.32,0.28-0.84,0.42-1.56,0.42s-1.25-0.14-1.56-0.42c-0.32-0.28-0.61-0.75-0.88-1.41l-2.01-4.62v9.28
			c0,0.66-0.15,1.15-0.46,1.46c-0.31,0.32-0.84,0.48-1.62,0.48h-3.26C169.14,389.95,168.62,389.79,168.31,389.48z"/>
		<path d="M192.37,389.24c0-0.2,0.06-0.45,0.17-0.75l8.46-20.37c0.21-0.48,0.44-0.81,0.7-1c0.26-0.19,0.63-0.29,1.11-0.29h3.71
			c0.48,0,0.84,0.1,1.11,0.29c0.26,0.19,0.49,0.53,0.7,1l8.43,20.37c0.11,0.29,0.17,0.54,0.17,0.75c0,0.48-0.25,0.71-0.75,0.71
			h-6.39c-0.7,0-1.15-0.31-1.33-0.92l-0.82-2.52h-6.02l-0.78,2.52c-0.18,0.61-0.62,0.92-1.33,0.92h-6.39
			C192.62,389.95,192.37,389.71,192.37,389.24z M201,364.79c0-0.18,0.04-0.37,0.1-0.58l1.43-3.95c0.18-0.52,0.4-0.87,0.65-1.05
			c0.25-0.18,0.71-0.27,1.39-0.27h4.86c0.48,0,0.85,0.08,1.12,0.25s0.41,0.41,0.41,0.73c0,0.27-0.09,0.56-0.27,0.85l-2.18,3.67
			c-0.32,0.54-0.62,0.9-0.92,1.05c-0.29,0.16-0.83,0.24-1.6,0.24h-3.64C201.46,365.74,201,365.43,201,364.79z M205.97,381.15
			l-1.33-4.22l-1.33,4.22H205.97z"/>
		<path d="M221.4,389.82c-1.77-0.43-3.2-1.03-4.28-1.8c-0.45-0.32-0.68-0.62-0.68-0.92c0-0.2,0.08-0.42,0.24-0.65l1.97-3.09
			c0.2-0.29,0.41-0.44,0.61-0.44c0.18,0,0.4,0.08,0.65,0.24c0.82,0.5,1.75,0.89,2.8,1.17c1.05,0.28,2.08,0.42,3.08,0.42
			c0.84,0,1.44-0.11,1.82-0.34s0.56-0.58,0.56-1.05c0-0.52-0.25-0.94-0.75-1.26c-0.5-0.32-1.36-0.71-2.58-1.19
			c-2.29-0.88-4.09-1.89-5.41-3.01c-1.32-1.12-1.97-2.61-1.97-4.47c0-2.36,0.82-4.13,2.46-5.32c1.64-1.19,3.86-1.79,6.65-1.79
			c1.95,0,3.61,0.17,4.98,0.51c1.37,0.34,2.57,0.87,3.59,1.6c0.45,0.32,0.68,0.62,0.68,0.92c0,0.2-0.08,0.42-0.24,0.65l-1.97,3.09
			c-0.2,0.32-0.41,0.48-0.61,0.48c-0.14,0-0.35-0.09-0.65-0.27c-0.54-0.36-1.19-0.66-1.94-0.9c-0.75-0.24-1.55-0.36-2.41-0.36
			c-0.79,0-1.39,0.11-1.8,0.34c-0.41,0.23-0.61,0.59-0.61,1.09c0,0.41,0.14,0.75,0.43,1.02c0.28,0.27,0.64,0.5,1.07,0.7
			c0.43,0.19,1.18,0.5,2.24,0.94c1.7,0.68,3.04,1.33,4.01,1.96s1.71,1.37,2.21,2.24c0.5,0.87,0.75,1.98,0.75,3.31
			c0,2.04-0.77,3.69-2.29,4.95c-1.53,1.26-3.81,1.89-6.85,1.89C225.09,390.46,223.17,390.25,221.4,389.82z"/>
		<path d="M49.86,430.28c-0.31-0.32-0.46-0.8-0.46-1.46v-19.24c0-0.66,0.15-1.14,0.46-1.46c0.31-0.32,0.83-0.48,1.58-0.48h14.08
			c0.72,0,1.22,0.15,1.48,0.46c0.26,0.31,0.39,0.8,0.39,1.48v1.9c0,0.68-0.13,1.17-0.39,1.48c-0.26,0.31-0.75,0.46-1.48,0.46h-7.96
			v2.89h4.9c0.72,0,1.22,0.15,1.48,0.46c0.26,0.31,0.39,0.8,0.39,1.48v1.9c0,0.68-0.13,1.17-0.39,1.48
			c-0.26,0.31-0.75,0.46-1.48,0.46h-4.9v6.73c0,0.66-0.15,1.15-0.46,1.46c-0.31,0.32-0.84,0.48-1.62,0.48h-4.04
			C50.69,430.75,50.16,430.59,49.86,430.28z"/>
		<path d="M73.71,430.19c-1.68-0.71-2.98-1.75-3.91-3.09c-0.93-1.35-1.39-2.95-1.39-4.81v-12.72c0-0.66,0.15-1.14,0.46-1.46
			c0.31-0.32,0.83-0.48,1.58-0.48h4.04c0.77,0,1.31,0.15,1.62,0.46c0.31,0.31,0.46,0.8,0.46,1.48v12.82c0,1.07,0.27,1.86,0.8,2.38
			c0.53,0.52,1.26,0.78,2.19,0.78s1.66-0.26,2.19-0.78c0.53-0.52,0.8-1.31,0.8-2.38v-12.82c0-0.66,0.15-1.14,0.46-1.46
			s0.83-0.48,1.58-0.48h4.05c0.77,0,1.31,0.15,1.62,0.46c0.31,0.31,0.46,0.8,0.46,1.48v12.72c0,1.86-0.46,3.46-1.39,4.81
			c-0.93,1.35-2.23,2.38-3.91,3.09c-1.68,0.71-3.63,1.07-5.85,1.07C77.33,431.26,75.38,430.91,73.71,430.19z"/>
		<path d="M93.38,430.28c-0.31-0.32-0.46-0.8-0.46-1.46v-19.28c0-0.66,0.15-1.14,0.46-1.45c0.31-0.31,0.84-0.46,1.62-0.46h3.23
			c0.48,0,0.84,0.06,1.11,0.19c0.26,0.12,0.51,0.37,0.76,0.73l6.15,9.15v-8.13c0-0.66,0.15-1.14,0.46-1.46
			c0.31-0.32,0.83-0.48,1.58-0.48h4.04c0.77,0,1.31,0.15,1.62,0.46c0.31,0.31,0.46,0.8,0.46,1.48v19.28c0,0.66-0.15,1.14-0.46,1.45
			c-0.31,0.31-0.84,0.46-1.62,0.46h-3.23c-0.48,0-0.84-0.06-1.1-0.19c-0.26-0.13-0.52-0.37-0.77-0.73l-6.15-9.15v8.16
			c0,0.66-0.15,1.14-0.46,1.45c-0.31,0.31-0.84,0.46-1.62,0.46h-4.04C94.21,430.75,93.68,430.59,93.38,430.28z"/>
		<path d="M119.54,428.22c-2.29-2.03-3.43-5.04-3.43-9.03c0-4.01,1.11-7.03,3.32-9.04c2.21-2.02,5.37-3.03,9.47-3.03
			c1.86,0,3.51,0.18,4.96,0.54c1.45,0.36,2.66,0.87,3.64,1.53c0.27,0.2,0.41,0.43,0.41,0.68c0,0.2-0.1,0.49-0.31,0.85l-1.7,2.92
			c-0.18,0.32-0.4,0.48-0.65,0.48c-0.16,0-0.42-0.09-0.78-0.27c-0.63-0.32-1.3-0.57-1.99-0.75c-0.69-0.18-1.5-0.27-2.43-0.27
			c-1.88,0-3.32,0.54-4.32,1.63c-1,1.09-1.5,2.66-1.5,4.73c0,2.04,0.54,3.61,1.63,4.71s2.57,1.65,4.45,1.65
			c1.63,0,3.13-0.34,4.49-1.02c0.36-0.18,0.62-0.27,0.78-0.27c0.25,0,0.46,0.16,0.65,0.48l1.7,2.92c0.21,0.36,0.31,0.65,0.31,0.85
			c0,0.25-0.14,0.48-0.41,0.68c-0.97,0.66-2.2,1.17-3.67,1.53c-1.47,0.36-3.14,0.54-5,0.54
			C125.04,431.26,121.83,430.25,119.54,428.22z"/>
		<path d="M140.4,430.28c-0.31-0.32-0.46-0.8-0.46-1.46v-19.24c0-0.66,0.15-1.14,0.46-1.46s0.83-0.48,1.58-0.48h4.05
			c0.77,0,1.31,0.15,1.62,0.46s0.46,0.8,0.46,1.48v19.24c0,0.66-0.15,1.15-0.46,1.46s-0.84,0.48-1.62,0.48h-4.05
			C141.23,430.75,140.7,430.59,140.4,430.28z"/>
		<path d="M152.93,428.12c-2.09-2.1-3.13-5.07-3.13-8.92s1.04-6.83,3.13-8.93c2.09-2.1,5.15-3.14,9.18-3.14
			c4.04,0,7.09,1.05,9.18,3.14c2.08,2.1,3.13,5.07,3.13,8.93s-1.04,6.83-3.13,8.92c-2.09,2.1-5.15,3.14-9.18,3.14
			C158.07,431.26,155.01,430.21,152.93,428.12z M165.3,423.97c0.66-1.05,0.99-2.65,0.99-4.78c0-2.15-0.33-3.75-0.99-4.79
			c-0.66-1.04-1.72-1.56-3.2-1.56c-1.47,0-2.54,0.52-3.2,1.56c-0.66,1.04-0.99,2.64-0.99,4.79c0,2.13,0.33,3.72,0.99,4.78
			c0.66,1.05,1.72,1.58,3.2,1.58C163.58,425.55,164.64,425.02,165.3,423.97z"/>
		<path d="M176.57,430.28c-0.31-0.32-0.46-0.8-0.46-1.46v-19.28c0-0.66,0.15-1.14,0.46-1.45s0.84-0.46,1.62-0.46h3.23
			c0.48,0,0.84,0.06,1.11,0.19c0.26,0.12,0.52,0.37,0.76,0.73l6.15,9.15v-8.13c0-0.66,0.15-1.14,0.46-1.46s0.83-0.48,1.58-0.48h4.05
			c0.77,0,1.31,0.15,1.62,0.46s0.46,0.8,0.46,1.48v19.28c0,0.66-0.15,1.14-0.46,1.45s-0.84,0.46-1.62,0.46h-3.23
			c-0.48,0-0.85-0.06-1.11-0.19c-0.26-0.13-0.52-0.37-0.77-0.73l-6.15-9.15v8.16c0,0.66-0.15,1.14-0.46,1.45s-0.84,0.46-1.62,0.46
			h-4.05C177.41,430.75,176.88,430.59,176.57,430.28z"/>
		<path d="M199.3,430.04c0-0.2,0.06-0.45,0.17-0.75l8.46-20.37c0.21-0.48,0.44-0.81,0.7-1c0.26-0.19,0.63-0.29,1.11-0.29h3.71
			c0.48,0,0.84,0.1,1.11,0.29c0.26,0.19,0.49,0.53,0.7,1l8.43,20.37c0.11,0.29,0.17,0.54,0.17,0.75c0,0.48-0.25,0.71-0.75,0.71
			h-6.39c-0.7,0-1.15-0.31-1.33-0.92l-0.82-2.52h-6.02l-0.78,2.52c-0.18,0.61-0.62,0.92-1.33,0.92h-6.39
			C199.55,430.75,199.3,430.51,199.3,430.04z M212.9,421.95l-1.33-4.22l-1.33,4.22H212.9z"/>
		<path d="M226.01,430.28c-0.31-0.32-0.46-0.8-0.46-1.46v-19.24c0-0.66,0.15-1.14,0.46-1.46s0.83-0.48,1.58-0.48h4.05
			c0.77,0,1.31,0.15,1.62,0.46s0.46,0.8,0.46,1.48v15.4h7.92c0.73,0,1.22,0.15,1.48,0.46c0.26,0.31,0.39,0.8,0.39,1.48v1.9
			c0,0.68-0.13,1.17-0.39,1.48c-0.26,0.31-0.75,0.46-1.48,0.46h-14.04C226.84,430.75,226.31,430.59,226.01,430.28z"/>
		<path d="M244.98,430.28c-0.31-0.32-0.46-0.8-0.46-1.46v-19.24c0-0.66,0.15-1.14,0.46-1.46c0.31-0.32,0.83-0.48,1.58-0.48h4.04
			c0.77,0,1.31,0.15,1.62,0.46c0.31,0.31,0.46,0.8,0.46,1.48v19.24c0,0.66-0.15,1.15-0.46,1.46c-0.31,0.32-0.84,0.48-1.62,0.48
			h-4.04C245.81,430.75,245.29,430.59,244.98,430.28z"/>
		<path d="M255.52,430.28c-0.31-0.32-0.46-0.8-0.46-1.46v-19.24c0-0.66,0.15-1.14,0.46-1.46c0.31-0.32,0.83-0.48,1.58-0.48h7.82
			c8,0,12,3.85,12,11.56c0,3.81-1.03,6.69-3.08,8.64c-2.05,1.95-5.03,2.92-8.93,2.92h-7.82
			C256.35,430.75,255.83,430.59,255.52,430.28z M265.23,424.97c1.27,0,2.18-0.42,2.74-1.26c0.55-0.84,0.83-2.35,0.83-4.52
			c0-2.18-0.28-3.68-0.83-4.52c-0.56-0.84-1.47-1.26-2.74-1.26h-2.01v11.56H265.23z"/>
		<path d="M276.41,430.04c0-0.2,0.06-0.45,0.17-0.75l8.47-20.37c0.2-0.48,0.44-0.81,0.7-1c0.26-0.19,0.63-0.29,1.11-0.29h3.71
			c0.48,0,0.84,0.1,1.1,0.29c0.26,0.19,0.49,0.53,0.7,1l8.43,20.37c0.11,0.29,0.17,0.54,0.17,0.75c0,0.48-0.25,0.71-0.75,0.71h-6.39
			c-0.7,0-1.15-0.31-1.33-0.92l-0.82-2.52h-6.02l-0.78,2.52c-0.18,0.61-0.62,0.92-1.33,0.92h-6.39
			C276.66,430.75,276.41,430.51,276.41,430.04z M290.01,421.95l-1.33-4.22l-1.33,4.22H290.01z"/>
		<path d="M303.12,430.28c-0.31-0.32-0.46-0.8-0.46-1.46v-19.24c0-0.66,0.15-1.14,0.46-1.46c0.31-0.32,0.83-0.48,1.58-0.48h7.82
			c8,0,12,3.85,12,11.56c0,3.81-1.03,6.69-3.08,8.64c-2.05,1.95-5.03,2.92-8.93,2.92h-7.82
			C303.95,430.75,303.43,430.59,303.12,430.28z M312.83,424.97c1.27,0,2.18-0.42,2.74-1.26c0.55-0.84,0.83-2.35,0.83-4.52
			c0-2.18-0.28-3.68-0.83-4.52c-0.56-0.84-1.47-1.26-2.74-1.26h-2.01v11.56H312.83z"/>
		<path d="M326.68,430.28c-0.31-0.32-0.46-0.8-0.46-1.46v-19.24c0-0.66,0.15-1.14,0.46-1.46c0.31-0.32,0.83-0.48,1.58-0.48h14.08
			c0.72,0,1.22,0.15,1.48,0.46c0.26,0.31,0.39,0.8,0.39,1.48v1.9c0,0.68-0.13,1.17-0.39,1.48c-0.26,0.31-0.75,0.46-1.48,0.46h-7.96
			v2.92h4.9c0.72,0,1.22,0.15,1.48,0.46c0.26,0.31,0.39,0.8,0.39,1.48v1.84c0,0.68-0.13,1.17-0.39,1.48
			c-0.26,0.31-0.75,0.46-1.48,0.46h-4.9v2.92h7.92c0.73,0,1.22,0.15,1.48,0.46c0.26,0.31,0.39,0.8,0.39,1.48v1.9
			c0,0.68-0.13,1.17-0.39,1.48s-0.75,0.46-1.48,0.46h-14.04C327.52,430.75,326.99,430.59,326.68,430.28z"/>
		<path d="M350.06,430.62c-1.77-0.43-3.2-1.03-4.28-1.8c-0.45-0.32-0.68-0.62-0.68-0.92c0-0.2,0.08-0.42,0.24-0.65l1.97-3.09
			c0.2-0.29,0.41-0.44,0.61-0.44c0.18,0,0.4,0.08,0.65,0.24c0.82,0.5,1.75,0.89,2.8,1.17c1.05,0.28,2.08,0.42,3.08,0.42
			c0.84,0,1.44-0.11,1.82-0.34s0.56-0.58,0.56-1.05c0-0.52-0.25-0.94-0.75-1.26c-0.5-0.32-1.36-0.71-2.58-1.19
			c-2.29-0.88-4.09-1.89-5.41-3.01c-1.32-1.12-1.97-2.61-1.97-4.47c0-2.36,0.82-4.13,2.46-5.32c1.64-1.19,3.86-1.79,6.65-1.79
			c1.95,0,3.61,0.17,4.98,0.51c1.37,0.34,2.57,0.87,3.59,1.6c0.45,0.32,0.68,0.62,0.68,0.92c0,0.2-0.08,0.42-0.24,0.65l-1.97,3.09
			c-0.2,0.32-0.41,0.48-0.61,0.48c-0.14,0-0.35-0.09-0.65-0.27c-0.54-0.36-1.19-0.66-1.94-0.9c-0.75-0.24-1.55-0.36-2.41-0.36
			c-0.79,0-1.39,0.11-1.8,0.34c-0.41,0.23-0.61,0.59-0.61,1.09c0,0.41,0.14,0.75,0.43,1.02c0.28,0.27,0.64,0.5,1.07,0.7
			c0.43,0.19,1.18,0.5,2.24,0.94c1.7,0.68,3.04,1.33,4.01,1.96s1.71,1.37,2.21,2.24c0.5,0.87,0.75,1.98,0.75,3.31
			c0,2.04-0.77,3.69-2.29,4.95c-1.53,1.26-3.81,1.89-6.85,1.89C353.74,431.26,351.82,431.05,350.06,430.62z"/>
		<path d="M58.08,471.42c-1.77-0.43-3.2-1.03-4.28-1.8c-0.45-0.32-0.68-0.62-0.68-0.92c0-0.2,0.08-0.42,0.24-0.65l1.97-3.09
			c0.21-0.29,0.41-0.44,0.61-0.44c0.18,0,0.4,0.08,0.65,0.24c0.82,0.5,1.75,0.89,2.8,1.17s2.08,0.42,3.08,0.42
			c0.84,0,1.45-0.11,1.82-0.34c0.38-0.23,0.56-0.58,0.56-1.05c0-0.52-0.25-0.94-0.75-1.26s-1.36-0.71-2.58-1.19
			c-2.29-0.88-4.09-1.89-5.41-3.01c-1.32-1.12-1.97-2.61-1.97-4.47c0-2.36,0.82-4.13,2.46-5.32c1.64-1.19,3.86-1.79,6.65-1.79
			c1.95,0,3.61,0.17,4.98,0.51c1.37,0.34,2.57,0.87,3.59,1.6c0.45,0.32,0.68,0.62,0.68,0.92c0,0.2-0.08,0.42-0.24,0.65l-1.97,3.09
			c-0.21,0.32-0.41,0.48-0.61,0.48c-0.14,0-0.35-0.09-0.65-0.27c-0.54-0.36-1.19-0.66-1.94-0.9c-0.75-0.24-1.55-0.36-2.41-0.36
			c-0.79,0-1.39,0.11-1.8,0.34s-0.61,0.59-0.61,1.09c0,0.41,0.14,0.75,0.42,1.02c0.28,0.27,0.64,0.5,1.07,0.7
			c0.43,0.19,1.18,0.5,2.24,0.94c1.7,0.68,3.04,1.33,4.01,1.96s1.71,1.37,2.21,2.24c0.5,0.87,0.75,1.98,0.75,3.31
			c0,2.04-0.77,3.69-2.29,4.95s-3.81,1.89-6.85,1.89C61.77,472.06,59.85,471.85,58.08,471.42z"/>
		<path d="M75.13,471.08c-0.31-0.32-0.46-0.8-0.46-1.46v-19.24c0-0.66,0.15-1.14,0.46-1.46c0.31-0.32,0.83-0.48,1.58-0.48h14.08
			c0.72,0,1.22,0.15,1.48,0.46c0.26,0.31,0.39,0.8,0.39,1.48v1.9c0,0.68-0.13,1.17-0.39,1.48c-0.26,0.31-0.75,0.46-1.48,0.46h-7.96
			v2.92h4.9c0.72,0,1.22,0.15,1.48,0.46c0.26,0.31,0.39,0.8,0.39,1.48v1.84c0,0.68-0.13,1.17-0.39,1.48
			c-0.26,0.31-0.75,0.46-1.48,0.46h-4.9v2.92h7.92c0.73,0,1.22,0.15,1.48,0.46c0.26,0.31,0.39,0.8,0.39,1.48v1.9
			c0,0.68-0.13,1.17-0.39,1.48s-0.75,0.46-1.48,0.46H76.72C75.97,471.55,75.44,471.39,75.13,471.08z"/>
		<path d="M95.42,469.02c-2.29-2.03-3.43-5.04-3.43-9.03c0-3.97,1.14-6.97,3.43-9.01s5.49-3.06,9.59-3.06c1.86,0,3.52,0.18,5,0.54
			c1.47,0.36,2.7,0.87,3.67,1.53c0.27,0.2,0.41,0.43,0.41,0.68c0,0.2-0.1,0.49-0.31,0.85l-1.7,2.92c-0.18,0.32-0.4,0.48-0.65,0.48
			c-0.16,0-0.42-0.09-0.78-0.27c-1.36-0.68-2.86-1.02-4.49-1.02c-1.88,0-3.36,0.54-4.44,1.62s-1.61,2.66-1.61,4.74
			c0,2.15,0.45,3.75,1.36,4.78c0.91,1.03,2.25,1.55,4.04,1.55c0.32,0,0.67-0.03,1.07-0.08c0.4-0.06,0.72-0.12,0.97-0.19v-3.09h-2.18
			c-0.73,0-1.22-0.14-1.48-0.43c-0.26-0.28-0.39-0.76-0.39-1.44v-1.87c0-0.68,0.13-1.16,0.39-1.45c0.26-0.28,0.75-0.42,1.48-0.42
			h7.31c0.88,0,1.5,0.2,1.84,0.59c0.34,0.4,0.51,1.03,0.51,1.89v7.96c0,0.5-0.06,0.88-0.19,1.14c-0.13,0.26-0.37,0.53-0.73,0.8
			c-2.18,1.56-5.2,2.35-9.08,2.35C100.91,472.06,97.71,471.05,95.42,469.02z"/>
		<path d="M122.89,470.99c-1.68-0.71-2.98-1.75-3.91-3.09c-0.93-1.35-1.39-2.95-1.39-4.81v-12.72c0-0.66,0.15-1.14,0.46-1.46
			s0.83-0.48,1.58-0.48h4.05c0.77,0,1.31,0.15,1.62,0.46c0.31,0.31,0.46,0.8,0.46,1.48v12.82c0,1.07,0.27,1.86,0.8,2.38
			c0.53,0.52,1.26,0.78,2.19,0.78c0.93,0,1.66-0.26,2.19-0.78c0.53-0.52,0.8-1.31,0.8-2.38v-12.82c0-0.66,0.15-1.14,0.46-1.46
			c0.31-0.32,0.83-0.48,1.58-0.48h4.05c0.77,0,1.31,0.15,1.61,0.46s0.46,0.8,0.46,1.48v12.72c0,1.86-0.46,3.46-1.39,4.81
			c-0.93,1.35-2.23,2.38-3.91,3.09c-1.68,0.71-3.63,1.07-5.85,1.07C126.51,472.06,124.56,471.71,122.89,470.99z M125.27,445.58
			c0-0.18,0.03-0.37,0.1-0.58l1.43-3.94c0.18-0.52,0.4-0.87,0.65-1.05c0.25-0.18,0.71-0.27,1.39-0.27h4.86
			c0.48,0,0.85,0.08,1.12,0.25c0.27,0.17,0.41,0.41,0.41,0.73c0,0.27-0.09,0.56-0.27,0.85l-2.18,3.67c-0.32,0.54-0.62,0.9-0.92,1.05
			c-0.29,0.16-0.83,0.24-1.6,0.24h-3.64C125.72,446.53,125.27,446.21,125.27,445.58z"/>
		<path d="M141.54,471.08c-0.31-0.32-0.46-0.8-0.46-1.46v-19.28c0-0.66,0.15-1.14,0.46-1.45s0.84-0.46,1.62-0.46h3.23
			c0.48,0,0.84,0.06,1.11,0.19c0.26,0.12,0.52,0.37,0.76,0.73l6.15,9.15v-8.13c0-0.66,0.15-1.14,0.46-1.46s0.83-0.48,1.58-0.48h4.05
			c0.77,0,1.31,0.15,1.62,0.46s0.46,0.8,0.46,1.48v19.28c0,0.66-0.15,1.14-0.46,1.45s-0.84,0.46-1.62,0.46h-3.23
			c-0.48,0-0.85-0.06-1.11-0.19c-0.26-0.13-0.52-0.37-0.77-0.73l-6.15-9.15v8.16c0,0.66-0.15,1.14-0.46,1.45s-0.84,0.46-1.62,0.46
			h-4.05C142.37,471.55,141.84,471.39,141.54,471.08z"/>
		<path d="M175.6,471.08c-0.31-0.32-0.46-0.8-0.46-1.46v-19.28c0-0.66,0.15-1.14,0.46-1.45c0.31-0.31,0.84-0.46,1.62-0.46h3.23
			c0.48,0,0.84,0.06,1.11,0.19c0.26,0.12,0.51,0.37,0.76,0.73l6.15,9.15v-8.13c0-0.66,0.15-1.14,0.46-1.46
			c0.31-0.32,0.83-0.48,1.58-0.48h4.04c0.77,0,1.31,0.15,1.62,0.46c0.31,0.31,0.46,0.8,0.46,1.48v19.28c0,0.66-0.15,1.14-0.46,1.45
			c-0.31,0.31-0.84,0.46-1.62,0.46h-3.23c-0.48,0-0.84-0.06-1.1-0.19c-0.26-0.13-0.52-0.37-0.77-0.73l-6.15-9.15v8.16
			c0,0.66-0.15,1.14-0.46,1.45c-0.31,0.31-0.84,0.46-1.62,0.46h-4.04C176.44,471.55,175.91,471.39,175.6,471.08z"/>
		<path d="M199.47,471.08c-0.31-0.32-0.46-0.8-0.46-1.46v-19.24c0-0.66,0.15-1.14,0.46-1.46s0.83-0.48,1.58-0.48h14.08
			c0.72,0,1.22,0.15,1.48,0.46s0.39,0.8,0.39,1.48v1.9c0,0.68-0.13,1.17-0.39,1.48c-0.26,0.31-0.75,0.46-1.48,0.46h-7.96v2.92h4.9
			c0.73,0,1.22,0.15,1.48,0.46s0.39,0.8,0.39,1.48v1.84c0,0.68-0.13,1.17-0.39,1.48s-0.75,0.46-1.48,0.46h-4.9v2.92h7.92
			c0.73,0,1.22,0.15,1.48,0.46c0.26,0.31,0.39,0.8,0.39,1.48v1.9c0,0.68-0.13,1.17-0.39,1.48c-0.26,0.31-0.75,0.46-1.48,0.46h-14.04
			C200.3,471.55,199.78,471.39,199.47,471.08z"/>
		<path d="M219.75,469.02c-2.29-2.03-3.43-5.04-3.43-9.03c0-4.01,1.11-7.03,3.32-9.04s5.37-3.03,9.47-3.03
			c1.86,0,3.51,0.18,4.96,0.54s2.66,0.87,3.64,1.53c0.27,0.2,0.41,0.43,0.41,0.68c0,0.2-0.1,0.49-0.31,0.85l-1.7,2.92
			c-0.18,0.32-0.4,0.48-0.65,0.48c-0.16,0-0.42-0.09-0.78-0.27c-0.63-0.32-1.3-0.57-1.99-0.75c-0.69-0.18-1.5-0.27-2.43-0.27
			c-1.88,0-3.32,0.54-4.32,1.63s-1.5,2.66-1.5,4.73c0,2.04,0.54,3.61,1.63,4.71s2.57,1.65,4.46,1.65c1.63,0,3.13-0.34,4.49-1.02
			c0.36-0.18,0.62-0.27,0.78-0.27c0.25,0,0.46,0.16,0.65,0.48l1.7,2.92c0.2,0.36,0.31,0.65,0.31,0.85c0,0.25-0.14,0.48-0.41,0.68
			c-0.97,0.66-2.2,1.17-3.67,1.53c-1.47,0.36-3.14,0.54-5,0.54C225.25,472.06,222.04,471.05,219.75,469.02z"/>
		<path d="M240.61,471.08c-0.31-0.32-0.46-0.8-0.46-1.46v-19.24c0-0.66,0.15-1.14,0.46-1.46s0.83-0.48,1.58-0.48h14.08
			c0.73,0,1.22,0.15,1.48,0.46c0.26,0.31,0.39,0.8,0.39,1.48v1.9c0,0.68-0.13,1.17-0.39,1.48c-0.26,0.31-0.75,0.46-1.48,0.46h-7.96
			v2.92h4.9c0.72,0,1.22,0.15,1.48,0.46c0.26,0.31,0.39,0.8,0.39,1.48v1.84c0,0.68-0.13,1.17-0.39,1.48
			c-0.26,0.31-0.75,0.46-1.48,0.46h-4.9v2.92h7.92c0.72,0,1.22,0.15,1.48,0.46c0.26,0.31,0.39,0.8,0.39,1.48v1.9
			c0,0.68-0.13,1.17-0.39,1.48c-0.26,0.31-0.75,0.46-1.48,0.46h-14.04C241.44,471.55,240.92,471.39,240.61,471.08z"/>
		<path d="M263.99,471.42c-1.77-0.43-3.2-1.03-4.28-1.8c-0.45-0.32-0.68-0.62-0.68-0.92c0-0.2,0.08-0.42,0.24-0.65l1.97-3.09
			c0.2-0.29,0.41-0.44,0.61-0.44c0.18,0,0.4,0.08,0.65,0.24c0.82,0.5,1.75,0.89,2.8,1.17c1.05,0.28,2.08,0.42,3.08,0.42
			c0.84,0,1.44-0.11,1.82-0.34c0.37-0.23,0.56-0.58,0.56-1.05c0-0.52-0.25-0.94-0.75-1.26s-1.36-0.71-2.58-1.19
			c-2.29-0.88-4.09-1.89-5.41-3.01s-1.97-2.61-1.97-4.47c0-2.36,0.82-4.13,2.46-5.32c1.64-1.19,3.86-1.79,6.65-1.79
			c1.95,0,3.61,0.17,4.98,0.51s2.57,0.87,3.59,1.6c0.45,0.32,0.68,0.62,0.68,0.92c0,0.2-0.08,0.42-0.24,0.65l-1.97,3.09
			c-0.2,0.32-0.41,0.48-0.61,0.48c-0.14,0-0.35-0.09-0.65-0.27c-0.54-0.36-1.19-0.66-1.94-0.9c-0.75-0.24-1.55-0.36-2.41-0.36
			c-0.79,0-1.39,0.11-1.8,0.34c-0.41,0.23-0.61,0.59-0.61,1.09c0,0.41,0.14,0.75,0.43,1.02c0.28,0.27,0.64,0.5,1.07,0.7
			c0.43,0.19,1.18,0.5,2.24,0.94c1.7,0.68,3.04,1.33,4.01,1.96s1.71,1.37,2.21,2.24c0.5,0.87,0.75,1.98,0.75,3.31
			c0,2.04-0.76,3.69-2.29,4.95s-3.81,1.89-6.85,1.89C267.67,472.06,265.75,471.85,263.99,471.42z"/>
		<path d="M281.04,471.08c-0.31-0.32-0.46-0.8-0.46-1.46v-19.24c0-0.66,0.15-1.14,0.46-1.46c0.31-0.32,0.83-0.48,1.58-0.48h4.05
			c0.77,0,1.31,0.15,1.62,0.46c0.3,0.31,0.46,0.8,0.46,1.48v19.24c0,0.66-0.15,1.15-0.46,1.46c-0.31,0.32-0.85,0.48-1.62,0.48h-4.05
			C281.87,471.55,281.34,471.39,281.04,471.08z"/>
		<path d="M291.58,471.08c-0.31-0.32-0.46-0.8-0.46-1.46v-19.24c0-0.66,0.15-1.14,0.46-1.46c0.31-0.32,0.83-0.48,1.58-0.48h7.82
			c8,0,12,3.85,12,11.56c0,3.81-1.03,6.69-3.08,8.64c-2.05,1.95-5.03,2.92-8.92,2.92h-7.82
			C292.41,471.55,291.88,471.39,291.58,471.08z M301.28,465.77c1.27,0,2.18-0.42,2.74-1.26c0.56-0.84,0.83-2.35,0.83-4.52
			c0-2.18-0.28-3.68-0.83-4.52c-0.56-0.84-1.47-1.26-2.74-1.26h-2.01v11.56H301.28z"/>
		<path d="M312.47,470.84c0-0.2,0.06-0.45,0.17-0.75l8.47-20.37c0.2-0.48,0.44-0.81,0.7-1c0.26-0.19,0.63-0.29,1.11-0.29h3.71
			c0.48,0,0.84,0.1,1.11,0.29c0.26,0.19,0.49,0.53,0.7,1l8.43,20.37c0.11,0.29,0.17,0.54,0.17,0.75c0,0.48-0.25,0.71-0.75,0.71
			h-6.39c-0.7,0-1.14-0.31-1.33-0.92l-0.82-2.52h-6.02l-0.78,2.52c-0.18,0.61-0.62,0.92-1.33,0.92h-6.39
			C312.72,471.55,312.47,471.31,312.47,470.84z M326.07,462.75l-1.33-4.22l-1.33,4.22H326.07z"/>
		<path d="M339.18,471.08c-0.31-0.32-0.46-0.8-0.46-1.46v-19.24c0-0.66,0.15-1.14,0.46-1.46c0.31-0.32,0.83-0.48,1.58-0.48h7.82
			c8,0,12,3.85,12,11.56c0,3.81-1.03,6.69-3.08,8.64c-2.05,1.95-5.03,2.92-8.92,2.92h-7.82
			C340.01,471.55,339.48,471.39,339.18,471.08z M348.88,465.77c1.27,0,2.18-0.42,2.74-1.26c0.56-0.84,0.83-2.35,0.83-4.52
			c0-2.18-0.28-3.68-0.83-4.52c-0.56-0.84-1.47-1.26-2.74-1.26h-2.01v11.56H348.88z"/>
		<path d="M103.9,511.88c-0.31-0.32-0.46-0.8-0.46-1.46v-19.24c0-0.66,0.15-1.14,0.46-1.46c0.31-0.32,0.83-0.48,1.58-0.48h7.82
			c8,0,12,3.85,12,11.56c0,3.81-1.03,6.69-3.08,8.64c-2.05,1.95-5.03,2.92-8.92,2.92h-7.82
			C104.73,512.35,104.21,512.19,103.9,511.88z M113.61,506.57c1.27,0,2.18-0.42,2.74-1.26c0.56-0.84,0.83-2.35,0.83-4.52
			c0-2.18-0.28-3.68-0.83-4.52c-0.56-0.84-1.47-1.26-2.74-1.26h-2.01v11.56H113.61z"/>
		<path d="M127.46,511.88c-0.31-0.32-0.46-0.8-0.46-1.46v-19.24c0-0.66,0.15-1.14,0.46-1.46c0.31-0.32,0.83-0.48,1.58-0.48h14.08
			c0.73,0,1.22,0.15,1.48,0.46s0.39,0.8,0.39,1.48v1.9c0,0.68-0.13,1.17-0.39,1.48c-0.26,0.31-0.75,0.46-1.48,0.46h-7.96v2.92h4.9
			c0.73,0,1.22,0.15,1.48,0.46c0.26,0.31,0.39,0.8,0.39,1.48v1.84c0,0.68-0.13,1.17-0.39,1.48c-0.26,0.31-0.75,0.46-1.48,0.46h-4.9
			v2.92h7.92c0.72,0,1.22,0.15,1.48,0.46c0.26,0.31,0.39,0.8,0.39,1.48v1.9c0,0.68-0.13,1.17-0.39,1.48
			c-0.26,0.31-0.75,0.46-1.48,0.46h-14.04C128.29,512.35,127.77,512.19,127.46,511.88z"/>
		<path d="M146.98,511.88c-0.31-0.32-0.46-0.8-0.46-1.46v-19.24c0-0.66,0.15-1.14,0.46-1.46s0.83-0.48,1.58-0.48h4.05
			c0.77,0,1.31,0.15,1.62,0.46c0.31,0.31,0.46,0.8,0.46,1.48v15.4h7.92c0.72,0,1.22,0.15,1.48,0.46c0.26,0.31,0.39,0.8,0.39,1.48
			v1.9c0,0.68-0.13,1.17-0.39,1.48c-0.26,0.31-0.75,0.46-1.48,0.46h-14.04C147.81,512.35,147.28,512.19,146.98,511.88z"/>
		<path d="M178.44,509.82c-2.29-2.03-3.43-5.04-3.43-9.03c0-4.01,1.11-7.03,3.32-9.04s5.37-3.03,9.47-3.03
			c1.86,0,3.51,0.18,4.96,0.54s2.66,0.87,3.64,1.53c0.27,0.2,0.41,0.43,0.41,0.68c0,0.2-0.1,0.49-0.31,0.85l-1.7,2.92
			c-0.18,0.32-0.4,0.48-0.65,0.48c-0.16,0-0.42-0.09-0.78-0.27c-0.63-0.32-1.3-0.57-1.99-0.75c-0.69-0.18-1.5-0.27-2.43-0.27
			c-1.88,0-3.32,0.54-4.32,1.63s-1.5,2.66-1.5,4.73c0,2.04,0.54,3.61,1.63,4.71s2.57,1.65,4.45,1.65c1.63,0,3.13-0.34,4.49-1.02
			c0.36-0.18,0.62-0.27,0.78-0.27c0.25,0,0.46,0.16,0.65,0.48l1.7,2.92c0.2,0.36,0.31,0.65,0.31,0.85c0,0.25-0.14,0.48-0.41,0.68
			c-0.97,0.66-2.2,1.17-3.67,1.53c-1.47,0.36-3.14,0.54-5,0.54C183.94,512.86,180.73,511.85,178.44,509.82z"/>
		<path d="M199.3,511.88c-0.31-0.32-0.46-0.8-0.46-1.46v-19.24c0-0.66,0.15-1.14,0.46-1.46s0.83-0.48,1.58-0.48h4.05
			c0.77,0,1.31,0.15,1.62,0.46s0.46,0.8,0.46,1.48v15.4h7.92c0.73,0,1.22,0.15,1.48,0.46c0.26,0.31,0.39,0.8,0.39,1.48v1.9
			c0,0.68-0.13,1.17-0.39,1.48c-0.26,0.31-0.75,0.46-1.48,0.46h-14.04C200.13,512.35,199.61,512.19,199.3,511.88z"/>
		<path d="M218.27,511.88c-0.31-0.32-0.46-0.8-0.46-1.46v-19.24c0-0.66,0.15-1.14,0.46-1.46c0.31-0.32,0.83-0.48,1.58-0.48h4.04
			c0.77,0,1.31,0.15,1.62,0.46c0.31,0.31,0.46,0.8,0.46,1.48v19.24c0,0.66-0.15,1.15-0.46,1.46c-0.31,0.32-0.84,0.48-1.62,0.48
			h-4.04C219.11,512.35,218.58,512.19,218.27,511.88z"/>
		<path d="M228.81,511.88c-0.31-0.32-0.46-0.8-0.46-1.46v-19.24c0-0.66,0.15-1.14,0.46-1.46c0.31-0.32,0.83-0.48,1.58-0.48h14.08
			c0.73,0,1.22,0.15,1.48,0.46s0.39,0.8,0.39,1.48v1.9c0,0.68-0.13,1.17-0.39,1.48c-0.26,0.31-0.75,0.46-1.48,0.46h-7.96v2.92h4.9
			c0.73,0,1.22,0.15,1.48,0.46c0.26,0.31,0.39,0.8,0.39,1.48v1.84c0,0.68-0.13,1.17-0.39,1.48c-0.26,0.31-0.75,0.46-1.48,0.46h-4.9
			v2.92h7.92c0.72,0,1.22,0.15,1.48,0.46c0.26,0.31,0.39,0.8,0.39,1.48v1.9c0,0.68-0.13,1.17-0.39,1.48
			c-0.26,0.31-0.75,0.46-1.48,0.46h-14.04C229.65,512.35,229.12,512.19,228.81,511.88z"/>
		<path d="M248.33,511.88c-0.31-0.32-0.46-0.8-0.46-1.46v-19.28c0-0.66,0.15-1.14,0.46-1.45c0.31-0.31,0.84-0.46,1.62-0.46h3.23
			c0.48,0,0.84,0.06,1.1,0.19c0.26,0.12,0.52,0.37,0.77,0.73l6.15,9.15v-8.13c0-0.66,0.15-1.14,0.46-1.46
			c0.31-0.32,0.83-0.48,1.58-0.48h4.05c0.77,0,1.31,0.15,1.62,0.46c0.3,0.31,0.46,0.8,0.46,1.48v19.28c0,0.66-0.15,1.14-0.46,1.45
			c-0.31,0.31-0.85,0.46-1.62,0.46h-3.23c-0.48,0-0.84-0.06-1.11-0.19c-0.26-0.13-0.52-0.37-0.76-0.73l-6.15-9.15v8.16
			c0,0.66-0.15,1.14-0.46,1.45c-0.31,0.31-0.85,0.46-1.62,0.46h-4.05C249.16,512.35,248.64,512.19,248.33,511.88z"/>
		<path d="M277.6,511.88c-0.31-0.32-0.46-0.8-0.46-1.46v-15.4h-4.9c-0.73,0-1.22-0.15-1.48-0.46c-0.26-0.31-0.39-0.8-0.39-1.48v-1.9
			c0-0.68,0.13-1.17,0.39-1.48c0.26-0.31,0.75-0.46,1.48-0.46h17.95c0.73,0,1.22,0.15,1.48,0.46c0.26,0.31,0.39,0.8,0.39,1.48v1.9
			c0,0.68-0.13,1.17-0.39,1.48c-0.26,0.31-0.75,0.46-1.48,0.46h-4.9v15.4c0,0.66-0.15,1.15-0.46,1.46
			c-0.31,0.32-0.85,0.48-1.62,0.48h-4.05C278.44,512.35,277.91,512.19,277.6,511.88z"/>
		<path d="M293.55,511.88c-0.31-0.32-0.46-0.8-0.46-1.46v-19.24c0-0.66,0.15-1.14,0.46-1.46s0.83-0.48,1.58-0.48h14.08
			c0.73,0,1.22,0.15,1.48,0.46c0.26,0.31,0.39,0.8,0.39,1.48v1.9c0,0.68-0.13,1.17-0.39,1.48c-0.26,0.31-0.75,0.46-1.48,0.46h-7.96
			v2.92h4.9c0.72,0,1.22,0.15,1.48,0.46c0.26,0.31,0.39,0.8,0.39,1.48v1.84c0,0.68-0.13,1.17-0.39,1.48
			c-0.26,0.31-0.75,0.46-1.48,0.46h-4.9v2.92h7.92c0.72,0,1.22,0.15,1.48,0.46c0.26,0.31,0.39,0.8,0.39,1.48v1.9
			c0,0.68-0.13,1.17-0.39,1.48c-0.26,0.31-0.75,0.46-1.48,0.46h-14.04C294.38,512.35,293.86,512.19,293.55,511.88z"/>
	</g>
	<polygon class="st1" points="200.76,96.93 214.23,124.22 244.34,128.59 222.55,149.83 227.7,179.83 200.76,165.67 173.83,179.83 
		178.97,149.83 157.18,128.59 187.29,124.22 	"/>
	<polygon class="st1" points="138.58,180.15 147.32,197.86 166.86,200.7 152.72,214.48 156.06,233.94 138.58,224.75 121.11,233.94 
		124.45,214.48 110.31,200.7 129.85,197.86 	"/>
	<polygon class="st1" points="268.68,180.15 277.42,197.86 296.95,200.7 282.82,214.48 286.15,233.94 268.68,224.75 251.2,233.94 
		254.54,214.48 240.4,200.7 259.94,197.86 	"/>
	<circle class="st2" cx="201.77" cy="213.97" r="121.96"/>
	<circle class="st3" cx="200.82" cy="200.58" r="121.96"/>
	<g>
		<path class="st3" d="M179.35,642.61c0-0.49,0.15-1.02,0.44-1.61l16.86-34.09h-18.1c-1.56,0-2.62-0.33-3.18-0.99
			c-0.56-0.66-0.84-1.71-0.84-3.17v-4.09c0-1.46,0.28-2.52,0.84-3.18c0.56-0.66,1.62-0.99,3.18-0.99h33.87c2.09,0,3.5,0.3,4.23,0.91
			c0.73,0.61,1.1,1.74,1.1,3.39c0,1.85-0.32,3.36-0.95,4.53l-19.2,38.84c-0.34,0.68-0.72,1.18-1.13,1.5
			c-0.41,0.32-0.99,0.47-1.72,0.47h-13.72C179.91,644.14,179.35,643.63,179.35,642.61z"/>
	</g>
	<g>
		<circle id="XMLID_215_" class="st4" cx="201.73" cy="193.96" r="82.04"/>
		<path id="XMLID_214_" class="st5" d="M201.68,211.54c6.53,0,12.37-4.25,14.39-4.68c-0.17-1.44-0.2-2.74-0.19-3.81
			c-4.97,4.19-7.16,5.62-13.75,5.39c-6.85,0.24-8.95-1.32-14.35-5.9c0.02,1.16,0.02,2.67-0.19,4.37
			C189.76,207.55,195.36,211.53,201.68,211.54L201.68,211.54z"/>
		<path id="XMLID_213_" class="st49" d="M255.64,229.74c-1.29-1.35-11.06-3.18-17.37-5.87c-7.02-2.99-14.24-5.4-17.85-8.32h0
			c-0.05,0.07-0.1,0.14-0.17,0.2c-7.42,7.26-18.56,6.71-18.56,6.71v-0.01c0,0-11.05,0.56-18.47-6.7c-0.07-0.07-0.12-0.14-0.17-0.2h0
			c-3.62,2.93-10.83,5.33-17.85,8.32c-6.63,2.82-17.08,4.71-17.5,6.07c7.64-3.08,11.62,18.5,13.1,35.1
			C172.83,272,186.81,276,201.73,276c15.1,0,29.23-4.09,41.38-11.21C244.56,248.62,248.38,227.86,255.64,229.74z"/>
		<path id="XMLID_212_" class="st12" d="M202.13,208.44c6.59,0.23,8.78-1.21,13.75-5.39c0.39-0.33,0.78-0.66,1.21-1.02
			c6.16-5.23,3.06-16.15,6.8-15.46s8.02-9.67,5.08-11.94c-0.06-0.05-0.12-0.08-0.18-0.12l0,0c-1.47-0.51-2.63,0.77-3.71,2.59
			c-1.08,1.82-0.66,4.62-1.74,4.56c-1.45-4.92-1.13-9.3-0.84-14.41c-10.08,2.96-20.46,4.49-28.86-1.67
			c-1.72-1.26-3.39-2.92-5.99-2.88c-3.01,0.05-4.22,1.84-3.8,4.73c0.21,1.45,0.32,3.41,0.4,4.27c0.29,3.01-1.58,6.71-2.27,7.42
			c-0.45,0.46-1.54,2.38-2.2,2.54c-0.54,0.13-0.17-3.01-1.97-5.72c-1.02-1.53-1.63-1.72-1.91-1.71c-0.19,0.11-0.39,0.24-0.6,0.4
			c-2.94,2.27,1.34,12.62,5.08,11.94c3.74-0.68,0.64,10.23,6.8,15.46c0.21,0.18,0.4,0.34,0.6,0.51
			C193.18,207.12,195.28,208.68,202.13,208.44z"/>
		<path id="XMLID_211_" class="st50" d="M147.69,229.94c-0.11,0.05-0.23,0.07-0.34,0.13c-1.69,0.84-4.94,6.52-7.48,17.73
			c5.96,6.84,13.02,12.67,20.92,17.23C159.3,248.44,155.32,226.86,147.69,229.94z"/>
		<path id="XMLID_210_" class="st50" d="M256.52,230.07c-0.3-0.15-0.59-0.25-0.88-0.33c-7.25-1.88-11.08,18.88-12.54,35.05
			c7.87-4.61,14.9-10.49,20.81-17.36C261.39,236.47,258.19,230.9,256.52,230.07z"/>
		<path id="XMLID_209_" class="st50" d="M201.68,222.46v0.01c0,0,11.13,0.55,18.56-6.71c0.07-0.07,0.12-0.14,0.17-0.2
			c0.91-1.26-1.47-2.59-1.77-4.02c-0.32-1.52-0.54-5.01-2.46-4.7c-0.03,0.01-0.07,0.02-0.11,0.03c-2.02,0.43-7.85,4.68-14.39,4.68
			v-0.01c-6.33,0-11.92-3.97-14.1-4.62c-0.11-0.03-0.22-0.06-0.31-0.08c-1.92-0.31-2.14,3.18-2.46,4.7
			c-0.3,1.44-2.68,2.76-1.77,4.02c0.05,0.07,0.1,0.14,0.17,0.2C190.64,223.01,201.68,222.46,201.68,222.46z"/>
		<path id="XMLID_208_" class="st144" d="M177.8,175.93c1.79,2.71,1.43,5.85,1.97,5.72c0.65-0.16,1.75-2.08,2.2-2.54
			c0.69-0.71,2.56-4.41,2.27-7.42c-0.08-0.86-0.19-2.82-0.4-4.27c-0.42-2.89,0.79-4.68,3.8-4.73c2.61-0.04,4.27,1.62,5.99,2.88
			c8.4,6.17,18.78,4.63,28.86,1.67c-0.28,5.11-0.61,9.49,0.84,14.41c1.07,0.07,0.65-2.74,1.74-4.56c1.08-1.82,2.24-3.1,3.71-2.59
			l0,0c2.99-6.37,3.31-16.72,0.35-23.1c-2.96-6.38-7.69-9.37-12.37-14.69c0.43,1.44-1.52,3.6-3.36,3.77
			c-1.53,0.14-4.09-0.69-5.62-0.87c-7.75-0.94-12.18-1.29-18.52,0.94c-3.27,1.15-6.36,2.76-8.81,5.15
			c-3.17,3.08-5.8,8.67-6.32,12.99c-0.27,2.24-0.55,4.52-0.22,7.78c0.14,1.39,0.99,6.54,1.82,7.79c0,0,0.06-0.03,0.17-0.04
			C176.17,174.21,176.79,174.4,177.8,175.93z"/>
		<g>
			<circle class="st145" cx="271" cy="148" r="34"/>
			<g>
				<path class="st3" d="M264.55,164.09c-0.86-0.73-1.29-2.12-1.29-4.16v-4.59h-6.78c-2.04,0-3.42-0.43-4.16-1.29
					c-0.73-0.86-1.1-2.25-1.1-4.16v-5.35c0-1.91,0.37-3.3,1.1-4.16c0.73-0.86,2.12-1.29,4.16-1.29h6.78v-4.68
					c0-2.04,0.43-3.42,1.29-4.16c0.86-0.73,2.25-1.1,4.16-1.1h6.69c1.91,0,3.3,0.37,4.16,1.1c0.86,0.73,1.29,2.12,1.29,4.16v4.68
					h6.88c2.04,0,3.42,0.43,4.16,1.29c0.73,0.86,1.1,2.25,1.1,4.16v5.35c0,1.91-0.37,3.3-1.1,4.16c-0.73,0.86-2.12,1.29-4.16,1.29
					h-6.88v4.59c0,2.04-0.43,3.42-1.29,4.16c-0.86,0.73-2.25,1.1-4.16,1.1h-6.69C266.8,165.19,265.41,164.83,264.55,164.09z"/>
			</g>
		</g>
	</g>
</g>
</svg>
