<?xml version="1.0" encoding="utf-8"?>
<!-- Generator: Adobe Illustrator 23.0.0, SVG Export Plug-In . SVG Version: 6.00 Build 0)  -->
<svg version="1.1" id="Capa_1" xmlns="http://www.w3.org/2000/svg" xmlns:xlink="http://www.w3.org/1999/xlink" x="0px" y="0px"
	 viewBox="0 0 400 702" style="enable-background:new 0 0 400 702;" xml:space="preserve">
<style type="text/css">
	.st0{fill:#0085B0;}
	.st1{fill:#E0EF18;}
	.st2{fill:#CECECE;}
	.st3{fill:#FFFFFF;}
	.st4{fill:#F2F2F2;}
	.st5{fill:#EACCB0;}
	.st6{fill:#9B9B9B;}
	.st7{fill:#939393;}
	.st8{fill:#EFEFEF;}
	.st9{fill:#828282;}
	.st10{fill:#2C2A2D;}
	.st11{fill:#202021;}
	.st12{fill:#F2D4B6;}
	.st13{fill:#534D46;}
	.st14{fill:#E8D313;}
	.st15{fill:#2ACCFF;}
	.st16{fill:#4E4F4F;}
	.st17{fill:#003A94;}
	.st18{fill:#00D13C;}
	.st19{fill:#15682A;}
	.st20{fill:#D40000;}
	.st21{fill:#505050;}
	.st22{fill:#DFDFDF;}
	.st23{fill:none;}
	.st24{fill:#636363;}
	.st25{fill:#6C92D5;}
	.st26{fill:#22272F;}
	.st27{fill:#1B2538;}
	.st28{fill:#253452;}
	.st29{fill:#F9F9F9;}
	.st30{fill:#2D3543;}
	.st31{fill:#2A3D60;}
	.st32{fill:#587955;}
	.st33{fill:#CD7054;}
	.st34{fill:#F1CC4B;}
	.st35{fill:#ACACAC;}
	.st36{fill:#AAE528;}
	.st37{fill:#28CEBA;}
	.st38{fill:#DB143F;}
	.st39{fill:#53C2C9;}
	.st40{fill:#FFB412;}
	.st41{fill:#866A5E;}
	.st42{fill:#F7DDCB;}
	.st43{fill:#FFE6D4;}
	.st44{fill:#F5F5F5;}
	.st45{fill:#1A2830;}
	.st46{fill:#24353F;}
	.st47{fill:#132026;}
	.st48{fill:#F9FF03;}
	.st49{fill:#272728;}
	.st50{fill:#1E1D1E;}
	.st51{fill:#160423;}
	.st52{fill-rule:evenodd;clip-rule:evenodd;fill:#FFFFFF;}
	.st53{fill-rule:evenodd;clip-rule:evenodd;fill:#1996B8;}
	.st54{fill:#0C387D;}
	.st55{fill:#C69A81;}
	.st56{fill:#D1A385;}
	.st57{fill:#EAEAEA;}
	.st58{fill:#093E8C;}
	.st59{fill:#0B2A62;}
	.st60{fill:#D32A3B;}
	.st61{fill:#827C7D;}
	.st62{opacity:0.7;fill:#7F7F7F;}
	.st63{fill:#FDFDFD;}
	.st64{fill:#DAA449;}
	.st65{fill:#DD9225;}
	.st66{opacity:0.3;}
	.st67{fill:#425793;}
	.st68{opacity:0.8;}
	.st69{filter:url(#Adobe_OpacityMaskFilter);}
	.st70{opacity:0.15;mask:url(#SVGID_1_);}
	.st71{fill:#090B00;}
	.st72{opacity:0.1;}
	.st73{fill:#211915;}
	.st74{filter:url(#Adobe_OpacityMaskFilter_1_);}
	.st75{opacity:0.15;mask:url(#SVGID_2_);}
	.st76{fill:#AF3623;}
	.st77{filter:url(#Adobe_OpacityMaskFilter_2_);}
	.st78{opacity:0.15;mask:url(#SVGID_3_);}
	.st79{filter:url(#Adobe_OpacityMaskFilter_3_);}
	.st80{opacity:0.15;mask:url(#SVGID_4_);}
	.st81{fill:#456495;}
	.st82{filter:url(#Adobe_OpacityMaskFilter_4_);}
	.st83{opacity:0.15;mask:url(#SVGID_5_);}
	.st84{filter:url(#Adobe_OpacityMaskFilter_5_);}
	.st85{opacity:0.15;mask:url(#SVGID_6_);}
	.st86{fill:#76A9DA;}
	.st87{filter:url(#Adobe_OpacityMaskFilter_6_);}
	.st88{opacity:0.15;mask:url(#SVGID_7_);}
	.st89{filter:url(#Adobe_OpacityMaskFilter_7_);}
	.st90{opacity:0.15;mask:url(#SVGID_8_);}
	.st91{fill:#1F3642;}
	.st92{fill:#A9BDDA;}
	.st93{opacity:0.46;fill:#A6B4BC;}
	.st94{fill:#74C475;}
	.st95{fill:#221F21;}
	.st96{fill:#2D2D2D;}
	.st97{fill:#1C1B1A;}
	.st98{fill:#77181C;}
	.st99{fill:#262525;}
	.st100{fill:#11100F;}
	.st101{opacity:0.18;}
	.st102{opacity:0.38;}
	.st103{fill:#0A5B1F;}
	.st104{opacity:0.27;}
	.st105{opacity:0.48;}
	.st106{fill:#0A4654;}
	.st107{fill:#C2C6C6;}
	.st108{fill:#E5E5E5;stroke:#FFFFFF;stroke-miterlimit:10;}
	.st109{fill:#ACB4B5;}
	.st110{fill:#7F8384;}
	.st111{fill:#15772F;}
	.st112{fill:#F4F4F4;}
	.st113{fill:#53B8DB;}
	.st114{fill:#06EF42;}
	.st115{fill:#E7ED07;}
	.st116{fill:#CCCCCA;}
	.st117{fill:#EADF13;}
	.st118{fill:#C2C2C2;}
	.st119{fill:#85B681;}
	.st120{fill:#A1DC9B;}
	.st121{fill:#90C58B;}
	.st122{fill:#22241F;}
	.st123{opacity:0.5;}
	.st124{fill:#A2CADE;}
	.st125{fill:#E9E9E9;}
	.st126{fill:#D9D9D9;}
	.st127{fill:#CDCDCD;}
	.st128{opacity:0.34;fill:#F0F0F0;}
	.st129{fill:#5A5B5A;}
	.st130{fill:#FFE600;}
	.st131{fill:#DB1F59;}
	.st132{fill:#727272;}
	.st133{fill:#207235;}
	.st134{fill:#A3A3A3;}
	.st135{fill:#BCBCBC;}
	.st136{fill:#0A511C;}
	.st137{fill:#F9FF00;}
	.st138{fill:#D59F6D;}
	.st139{fill:#C0804A;}
	.st140{fill:#E6BA8A;}
	.st141{fill:#BE3ACC;}
	.st142{fill:#FFFFFF;stroke:#443F0C;stroke-width:9;stroke-miterlimit:10;}
	.st143{fill:none;stroke:#443F0C;stroke-width:9;stroke-miterlimit:10;}
	.st144{fill:#170623;}
	.st145{fill:#158231;}
	.st146{fill:#C89D76;}
	.st147{opacity:0.4;}
	.st148{fill:#ADADAD;}
	.st149{fill:#EDC3A6;}
	.st150{opacity:0.69;}
	.st151{fill:#E5D3D6;}
	.st152{opacity:0.44;}
	.st153{fill:#A5A5A5;}
	.st154{fill:#DDE5E4;}
	.st155{fill:#5C9169;}
	.st156{fill:#934215;}
	.st157{fill:#47413B;}
	.st158{fill:#601A1F;}
	.st159{fill:#044554;}
	.st160{opacity:0.7;}
	.st161{fill:#7F7F7F;}
	.st162{fill:#6B8A69;}
	.st163{opacity:0.24;fill:#848D90;}
	.st164{opacity:0.4;fill:#848D90;}
	.st165{fill:#F2D5D5;}
	.st166{fill:#485CC1;}
	.st167{fill:#C6CBE0;}
	.st168{fill:#8B909E;}
	.st169{fill:#53BC1B;}
	.st170{fill:#11565B;}
	.st171{fill:#67A06D;}
	.st172{fill:#FFEC00;}
	.st173{fill:#77A007;}
	.st174{fill:#E50731;}
	.st175{fill:#266472;}
	.st176{fill:#D4D4D4;}
	.st177{fill:#0E9932;}
	.st178{fill:#87DD24;}
	.st179{fill:#76A172;}
	.st180{fill:#62835F;}
	.st181{fill:#96D090;}
	.st182{fill:#D6D6D6;}
	.st183{fill:#606060;}
	.st184{fill:#494949;}
	.st185{fill:#29E55A;}
	.st186{fill:#2C703D;}
	.st187{fill:#DD0744;}
	.st188{fill:#EDEDED;}
	.st189{fill:#2A5936;}
	.st190{fill:#B9BBC1;}
	.st191{fill:#FFD79E;}
	.st192{fill:#FFE6C2;}
	.st193{fill:#2CBB55;}
	.st194{fill:#5C412D;}
	.st195{fill:#EC0000;}
	.st196{fill:#DD2626;}
	.st197{fill:#EA9334;}
	.st198{fill:#FCC232;}
	.st199{fill:#F9B234;}
	.st200{fill:#F7A037;}
	.st201{fill:#E0E0E0;}
</style>
<g>
	<g>
		<path class="st0" d="M9.5,209.36c0,22,13.29,27.86,29.54,13.03c0,0,156.99-143.3,353.09,26.97V55c0-22-18-40-40-40H49.5
			c-22,0-40,18-40,40V209.36z"/>
	</g>
	<g>
		<path class="st0" d="M391.66,647c0,22-18,40-40,40H49.98c-22,0-40-18-40-40v-46.27c0-22,18-40,40-40h301.68c22,0,40,18,40,40V647z
			"/>
	</g>
	<g>
		<path d="M106.68,380.36c0-0.17,0.05-0.37,0.14-0.62l6.97-16.77c0.17-0.39,0.36-0.67,0.57-0.83s0.52-0.24,0.91-0.24h3.05
			c0.39,0,0.7,0.08,0.91,0.24c0.21,0.16,0.41,0.43,0.57,0.83l6.95,16.77c0.09,0.24,0.14,0.45,0.14,0.62c0,0.39-0.21,0.59-0.62,0.59
			h-5.26c-0.58,0-0.94-0.25-1.09-0.76l-0.67-2.07h-4.96l-0.64,2.07c-0.15,0.5-0.51,0.76-1.09,0.76h-5.26
			C106.88,380.95,106.68,380.76,106.68,380.36z M117.88,373.7l-1.09-3.47l-1.09,3.47H117.88z"/>
		<path d="M128.67,380.56c-0.25-0.26-0.38-0.66-0.38-1.2v-15.85c0-0.54,0.13-0.94,0.38-1.2c0.25-0.26,0.69-0.39,1.3-0.39h11.59
			c0.6,0,1,0.13,1.22,0.38s0.32,0.66,0.32,1.22v1.57c0,0.56-0.11,0.97-0.32,1.22s-0.62,0.38-1.22,0.38h-6.55v2.38h4.03
			c0.6,0,1,0.13,1.22,0.38c0.21,0.25,0.32,0.66,0.32,1.22v1.57c0,0.56-0.11,0.97-0.32,1.22s-0.62,0.38-1.22,0.38h-4.03v5.54
			c0,0.54-0.13,0.94-0.38,1.2c-0.25,0.26-0.7,0.39-1.33,0.39h-3.33C129.36,380.95,128.92,380.82,128.67,380.56z"/>
		<path d="M144.46,380.56c-0.25-0.26-0.38-0.66-0.38-1.2v-15.85c0-0.54,0.13-0.94,0.38-1.2c0.25-0.26,0.69-0.39,1.3-0.39h3.33
			c0.63,0,1.08,0.13,1.33,0.38c0.25,0.25,0.38,0.66,0.38,1.22v15.85c0,0.54-0.13,0.94-0.38,1.2c-0.25,0.26-0.7,0.39-1.33,0.39h-3.33
			C145.15,380.95,144.71,380.82,144.46,380.56z"/>
		<path d="M153.14,380.56c-0.25-0.26-0.38-0.66-0.38-1.2v-15.85c0-0.54,0.13-0.94,0.38-1.2c0.25-0.26,0.69-0.39,1.3-0.39h3.33
			c0.63,0,1.08,0.13,1.33,0.38s0.38,0.66,0.38,1.22v12.68h6.52c0.6,0,1,0.13,1.22,0.38s0.32,0.66,0.32,1.22v1.57
			c0,0.56-0.11,0.97-0.32,1.22s-0.62,0.38-1.22,0.38h-11.56C153.83,380.95,153.39,380.82,153.14,380.56z"/>
		<path d="M168.77,380.56c-0.25-0.26-0.38-0.66-0.38-1.2v-15.85c0-0.54,0.13-0.94,0.38-1.2c0.25-0.26,0.69-0.39,1.3-0.39h3.33
			c0.63,0,1.08,0.13,1.33,0.38c0.25,0.25,0.38,0.66,0.38,1.22v15.85c0,0.54-0.13,0.94-0.38,1.2c-0.25,0.26-0.7,0.39-1.33,0.39h-3.33
			C169.45,380.95,169.02,380.82,168.77,380.56z"/>
		<path d="M176.51,380.36c0-0.17,0.05-0.37,0.14-0.62l6.97-16.77c0.17-0.39,0.36-0.67,0.57-0.83c0.21-0.16,0.52-0.24,0.91-0.24h3.05
			c0.39,0,0.7,0.08,0.91,0.24s0.41,0.43,0.57,0.83l6.94,16.77c0.09,0.24,0.14,0.45,0.14,0.62c0,0.39-0.21,0.59-0.62,0.59h-5.26
			c-0.58,0-0.94-0.25-1.09-0.76l-0.67-2.07h-4.96l-0.64,2.07c-0.15,0.5-0.51,0.76-1.09,0.76h-5.26
			C176.71,380.95,176.51,380.76,176.51,380.36z M187.71,373.7l-1.09-3.47l-1.09,3.47H187.71z"/>
		<path d="M198.85,378.87c-1.89-1.67-2.83-4.15-2.83-7.43c0-3.3,0.91-5.79,2.73-7.45c1.82-1.66,4.42-2.49,7.8-2.49
			c1.53,0,2.89,0.15,4.09,0.45c1.2,0.3,2.19,0.72,3,1.26c0.22,0.17,0.34,0.35,0.34,0.56c0,0.17-0.08,0.4-0.25,0.7l-1.4,2.41
			c-0.15,0.26-0.33,0.39-0.53,0.39c-0.13,0-0.35-0.07-0.64-0.22c-0.52-0.26-1.07-0.47-1.64-0.62s-1.24-0.22-2-0.22
			c-1.55,0-2.74,0.45-3.56,1.34c-0.82,0.9-1.23,2.19-1.23,3.89c0,1.68,0.45,2.97,1.34,3.88c0.9,0.91,2.12,1.36,3.67,1.36
			c1.34,0,2.58-0.28,3.7-0.84c0.3-0.15,0.51-0.22,0.64-0.22c0.21,0,0.38,0.13,0.53,0.39l1.4,2.41c0.17,0.3,0.25,0.53,0.25,0.7
			c0,0.21-0.11,0.39-0.34,0.56c-0.8,0.54-1.81,0.96-3.02,1.26c-1.21,0.3-2.59,0.45-4.12,0.45
			C203.38,381.37,200.74,380.54,198.85,378.87z"/>
		<path d="M216.03,380.56c-0.25-0.26-0.38-0.66-0.38-1.2v-15.85c0-0.54,0.13-0.94,0.38-1.2c0.25-0.26,0.69-0.39,1.3-0.39h3.33
			c0.63,0,1.08,0.13,1.33,0.38c0.25,0.25,0.38,0.66,0.38,1.22v15.85c0,0.54-0.13,0.94-0.38,1.2c-0.25,0.26-0.7,0.39-1.33,0.39h-3.33
			C216.71,380.95,216.28,380.82,216.03,380.56z"/>
		<path d="M226.35,378.78c-1.72-1.73-2.58-4.18-2.58-7.35c0-3.17,0.86-5.62,2.58-7.35c1.72-1.73,4.24-2.59,7.56-2.59
			c3.32,0,5.84,0.86,7.56,2.59s2.58,4.18,2.58,7.35c0,3.17-0.86,5.62-2.58,7.35s-4.24,2.59-7.56,2.59
			C230.58,381.37,228.06,380.51,226.35,378.78z M236.54,375.37c0.54-0.87,0.81-2.18,0.81-3.93c0-1.77-0.27-3.09-0.81-3.95
			s-1.42-1.29-2.63-1.29c-1.21,0-2.09,0.43-2.63,1.29c-0.54,0.86-0.81,2.17-0.81,3.95c0,1.75,0.27,3.07,0.81,3.93
			c0.54,0.87,1.42,1.3,2.63,1.3C235.12,376.67,236,376.23,236.54,375.37z"/>
		<path d="M245.82,380.56c-0.25-0.26-0.38-0.66-0.38-1.2v-15.88c0-0.54,0.13-0.94,0.38-1.19s0.7-0.38,1.33-0.38h2.66
			c0.39,0,0.7,0.05,0.91,0.15s0.42,0.3,0.63,0.6l5.07,7.53v-6.69c0-0.54,0.13-0.94,0.38-1.2c0.25-0.26,0.69-0.39,1.3-0.39h3.33
			c0.63,0,1.08,0.13,1.33,0.38s0.38,0.66,0.38,1.22v15.88c0,0.54-0.13,0.94-0.38,1.19s-0.7,0.38-1.33,0.38h-2.66
			c-0.39,0-0.7-0.05-0.91-0.15c-0.21-0.1-0.43-0.3-0.63-0.6l-5.07-7.53v6.72c0,0.54-0.13,0.94-0.38,1.19s-0.7,0.38-1.33,0.38h-3.33
			C246.51,380.95,246.07,380.82,245.82,380.56z"/>
		<path d="M265.48,380.56c-0.25-0.26-0.38-0.66-0.38-1.2v-15.85c0-0.54,0.13-0.94,0.38-1.2c0.25-0.26,0.69-0.39,1.3-0.39h11.59
			c0.6,0,1,0.13,1.22,0.38c0.21,0.25,0.32,0.66,0.32,1.22v1.57c0,0.56-0.11,0.97-0.32,1.22c-0.21,0.25-0.62,0.38-1.22,0.38h-6.55
			v2.41h4.03c0.6,0,1,0.13,1.22,0.38c0.21,0.25,0.32,0.66,0.32,1.22v1.51c0,0.56-0.11,0.97-0.32,1.22
			c-0.21,0.25-0.62,0.38-1.22,0.38h-4.03v2.41h6.52c0.6,0,1,0.13,1.22,0.38s0.32,0.66,0.32,1.22v1.57c0,0.56-0.11,0.97-0.32,1.22
			s-0.62,0.38-1.22,0.38h-11.56C266.16,380.95,265.73,380.82,265.48,380.56z"/>
		<path d="M284.73,380.84c-1.46-0.35-2.63-0.85-3.53-1.48c-0.37-0.26-0.56-0.51-0.56-0.76c0-0.17,0.06-0.35,0.2-0.53l1.63-2.55
			c0.17-0.24,0.34-0.36,0.5-0.36c0.15,0,0.33,0.07,0.53,0.2c0.67,0.41,1.44,0.73,2.31,0.97c0.87,0.23,1.71,0.35,2.53,0.35
			c0.69,0,1.19-0.09,1.5-0.28c0.31-0.19,0.46-0.48,0.46-0.87c0-0.43-0.21-0.77-0.62-1.04c-0.41-0.26-1.12-0.59-2.13-0.98
			c-1.89-0.73-3.37-1.55-4.45-2.48c-1.08-0.92-1.62-2.15-1.62-3.68c0-1.94,0.68-3.4,2.03-4.38c1.35-0.98,3.18-1.47,5.47-1.47
			c1.61,0,2.97,0.14,4.1,0.42s2.11,0.72,2.96,1.32c0.37,0.26,0.56,0.51,0.56,0.76c0,0.17-0.07,0.35-0.2,0.53l-1.62,2.55
			c-0.17,0.26-0.34,0.39-0.5,0.39c-0.11,0-0.29-0.07-0.53-0.22c-0.45-0.3-0.98-0.55-1.6-0.74c-0.62-0.2-1.28-0.29-1.99-0.29
			c-0.65,0-1.15,0.09-1.48,0.28s-0.5,0.49-0.5,0.9c0,0.34,0.12,0.62,0.35,0.84c0.23,0.22,0.53,0.42,0.88,0.57
			c0.35,0.16,0.97,0.42,1.85,0.77c1.4,0.56,2.5,1.1,3.3,1.61c0.8,0.51,1.41,1.13,1.82,1.85c0.41,0.72,0.62,1.63,0.62,2.73
			c0,1.68-0.63,3.04-1.89,4.07c-1.26,1.04-3.14,1.55-5.64,1.55C287.76,381.37,286.18,381.19,284.73,380.84z"/>
		<path d="M98.85,415.36c-1-1.19-1.77-2.63-2.32-4.31c-0.55-1.68-0.83-3.46-0.83-5.35s0.28-3.67,0.83-5.35
			c0.55-1.68,1.33-3.12,2.32-4.31c1-1.19,2.13-2.02,3.4-2.46c0.86-0.3,1.54-0.45,2.04-0.45c0.52,0,0.91,0.15,1.18,0.46
			c0.26,0.31,0.39,0.81,0.39,1.5c0,0.58-0.02,1-0.06,1.27c-0.04,0.27-0.13,0.51-0.28,0.71s-0.4,0.47-0.76,0.78
			c-0.92,0.8-1.54,1.81-1.88,3.02c-0.34,1.21-0.5,2.82-0.5,4.82s0.17,3.6,0.5,4.82c0.34,1.21,0.96,2.22,1.88,3.02
			c0.35,0.32,0.61,0.58,0.76,0.78s0.24,0.44,0.28,0.71c0.04,0.27,0.06,0.7,0.06,1.27c0,0.69-0.13,1.19-0.39,1.5
			c-0.26,0.31-0.65,0.46-1.18,0.46c-0.5,0-1.19-0.15-2.04-0.45C100.98,417.38,99.85,416.56,98.85,415.36z"/>
		<path d="M107.36,414.16c-0.25-0.26-0.38-0.66-0.38-1.2v-15.85c0-0.54,0.13-0.94,0.38-1.2c0.25-0.26,0.69-0.39,1.3-0.39h6.44
			c6.59,0,9.88,3.17,9.88,9.52c0,3.14-0.85,5.51-2.53,7.11c-1.69,1.61-4.14,2.41-7.35,2.41h-6.44
			C108.05,414.55,107.61,414.42,107.36,414.16z M115.36,409.79c1.04,0,1.8-0.35,2.25-1.04s0.69-1.93,0.69-3.72s-0.23-3.03-0.69-3.72
			c-0.46-0.69-1.21-1.04-2.25-1.04h-1.65v9.52H115.36z"/>
		<path d="M126.77,414.16c-0.25-0.26-0.38-0.66-0.38-1.2v-15.85c0-0.54,0.13-0.94,0.38-1.2c0.25-0.26,0.69-0.39,1.3-0.39h11.59
			c0.6,0,1,0.13,1.22,0.38c0.21,0.25,0.32,0.66,0.32,1.22v1.57c0,0.56-0.11,0.97-0.32,1.22c-0.21,0.25-0.62,0.38-1.22,0.38h-6.55
			v2.41h4.03c0.6,0,1,0.13,1.22,0.38c0.21,0.25,0.32,0.66,0.32,1.22v1.51c0,0.56-0.11,0.97-0.32,1.22
			c-0.21,0.25-0.62,0.38-1.22,0.38h-4.03v2.41h6.52c0.6,0,1,0.13,1.22,0.38s0.32,0.66,0.32,1.22v1.57c0,0.56-0.11,0.97-0.32,1.22
			s-0.62,0.38-1.22,0.38h-11.56C127.45,414.55,127.02,414.42,126.77,414.16z"/>
		<path d="M146.02,414.44c-1.46-0.35-2.63-0.85-3.53-1.48c-0.37-0.26-0.56-0.51-0.56-0.76c0-0.17,0.06-0.35,0.2-0.53l1.63-2.55
			c0.17-0.24,0.34-0.36,0.5-0.36c0.15,0,0.33,0.07,0.53,0.2c0.67,0.41,1.44,0.73,2.31,0.97c0.87,0.23,1.71,0.35,2.53,0.35
			c0.69,0,1.19-0.09,1.5-0.28c0.31-0.19,0.46-0.48,0.46-0.87c0-0.43-0.21-0.77-0.62-1.04c-0.41-0.26-1.12-0.59-2.13-0.98
			c-1.89-0.73-3.37-1.55-4.45-2.48c-1.08-0.92-1.62-2.15-1.62-3.68c0-1.94,0.68-3.4,2.03-4.38c1.35-0.98,3.18-1.47,5.47-1.47
			c1.61,0,2.97,0.14,4.1,0.42s2.11,0.72,2.96,1.32c0.37,0.26,0.56,0.51,0.56,0.76c0,0.17-0.07,0.35-0.2,0.53l-1.62,2.55
			c-0.17,0.26-0.34,0.39-0.5,0.39c-0.11,0-0.29-0.07-0.53-0.22c-0.45-0.3-0.98-0.55-1.6-0.74c-0.62-0.2-1.28-0.29-1.99-0.29
			c-0.65,0-1.15,0.09-1.48,0.28s-0.5,0.49-0.5,0.9c0,0.34,0.12,0.62,0.35,0.84c0.23,0.22,0.53,0.42,0.88,0.57
			c0.35,0.16,0.97,0.42,1.85,0.77c1.4,0.56,2.5,1.1,3.3,1.61c0.8,0.51,1.41,1.13,1.82,1.85c0.41,0.72,0.62,1.63,0.62,2.73
			c0,1.68-0.63,3.04-1.89,4.07c-1.26,1.04-3.14,1.55-5.64,1.55C149.05,414.97,147.47,414.79,146.02,414.44z"/>
		<path d="M161.25,412.47c-1.89-1.67-2.83-4.15-2.83-7.43c0-3.3,0.91-5.79,2.73-7.45c1.82-1.66,4.42-2.49,7.8-2.49
			c1.53,0,2.89,0.15,4.09,0.45c1.2,0.3,2.19,0.72,3,1.26c0.22,0.17,0.34,0.35,0.34,0.56c0,0.17-0.08,0.4-0.25,0.7l-1.4,2.41
			c-0.15,0.26-0.33,0.39-0.53,0.39c-0.13,0-0.35-0.07-0.64-0.22c-0.52-0.26-1.07-0.47-1.64-0.62s-1.24-0.22-2-0.22
			c-1.55,0-2.74,0.45-3.56,1.34c-0.82,0.9-1.23,2.19-1.23,3.89c0,1.68,0.45,2.97,1.34,3.88c0.9,0.91,2.12,1.36,3.67,1.36
			c1.34,0,2.58-0.28,3.7-0.84c0.3-0.15,0.51-0.22,0.64-0.22c0.21,0,0.38,0.13,0.53,0.39l1.4,2.41c0.17,0.3,0.25,0.53,0.25,0.7
			c0,0.21-0.11,0.39-0.34,0.56c-0.8,0.54-1.81,0.96-3.02,1.26c-1.21,0.3-2.59,0.45-4.12,0.45
			C165.77,414.97,163.13,414.14,161.25,412.47z"/>
		<path d="M176.79,413.96c0-0.17,0.05-0.37,0.14-0.62l6.97-16.77c0.17-0.39,0.36-0.67,0.57-0.83c0.21-0.16,0.52-0.24,0.91-0.24h3.05
			c0.39,0,0.7,0.08,0.91,0.24s0.41,0.43,0.57,0.83l6.94,16.77c0.09,0.24,0.14,0.45,0.14,0.62c0,0.39-0.21,0.59-0.62,0.59h-5.26
			c-0.58,0-0.94-0.25-1.09-0.76l-0.67-2.07h-4.96l-0.64,2.07c-0.15,0.5-0.51,0.76-1.09,0.76h-5.26
			C176.99,414.55,176.79,414.36,176.79,413.96z M187.99,407.3l-1.09-3.47l-1.09,3.47H187.99z"/>
		<path d="M198.78,414.16c-0.25-0.26-0.38-0.66-0.38-1.2v-15.85c0-0.54,0.13-0.94,0.38-1.2c0.25-0.26,0.69-0.39,1.3-0.39h6.69
			c2.8,0,4.84,0.56,6.12,1.67c1.28,1.11,1.92,2.79,1.92,5.03c0,1.34-0.23,2.48-0.69,3.4c-0.46,0.92-1.16,1.65-2.11,2.17l2.6,5.57
			c0.08,0.15,0.11,0.32,0.11,0.5c0,0.21-0.07,0.37-0.21,0.5c-0.14,0.13-0.32,0.2-0.55,0.2h-4.73c-0.3,0-0.54-0.04-0.71-0.13
			s-0.3-0.23-0.38-0.43l-2.07-5.21h-0.95v4.17c0,0.54-0.13,0.94-0.38,1.2c-0.25,0.26-0.7,0.39-1.33,0.39h-3.33
			C199.47,414.55,199.03,414.42,198.78,414.16z M206.19,404.11c0.6,0,1.07-0.16,1.41-0.48s0.52-0.79,0.52-1.43
			c0-0.65-0.17-1.14-0.52-1.46s-0.82-0.48-1.41-0.48h-1.9v3.84H206.19z"/>
		<path d="M218.48,412.47c-1.89-1.67-2.83-4.15-2.83-7.43c0-3.27,0.94-5.74,2.83-7.42c1.89-1.68,4.52-2.52,7.9-2.52
			c1.53,0,2.9,0.15,4.12,0.45s2.22,0.72,3.02,1.26c0.22,0.17,0.34,0.35,0.34,0.56c0,0.17-0.08,0.4-0.25,0.7l-1.4,2.41
			c-0.15,0.26-0.33,0.39-0.53,0.39c-0.13,0-0.35-0.07-0.64-0.22c-1.12-0.56-2.35-0.84-3.7-0.84c-1.55,0-2.77,0.44-3.65,1.33
			s-1.33,2.19-1.33,3.91c0,1.77,0.37,3.08,1.12,3.93c0.75,0.85,1.86,1.27,3.33,1.27c0.26,0,0.56-0.02,0.88-0.07
			c0.33-0.05,0.59-0.1,0.8-0.15v-2.55h-1.79c-0.6,0-1-0.12-1.22-0.35s-0.32-0.63-0.32-1.19v-1.54c0-0.56,0.11-0.96,0.32-1.19
			s0.62-0.35,1.22-0.35h6.02c0.73,0,1.23,0.16,1.51,0.49c0.28,0.33,0.42,0.84,0.42,1.55v6.55c0,0.41-0.05,0.72-0.15,0.94
			s-0.3,0.43-0.6,0.66c-1.79,1.29-4.28,1.93-7.48,1.93C223.01,414.97,220.37,414.14,218.48,412.47z"/>
		<path d="M235.47,413.96c0-0.17,0.05-0.37,0.14-0.62l6.97-16.77c0.17-0.39,0.36-0.67,0.57-0.83c0.21-0.16,0.52-0.24,0.91-0.24h3.05
			c0.39,0,0.7,0.08,0.91,0.24s0.41,0.43,0.57,0.83l6.94,16.77c0.09,0.24,0.14,0.45,0.14,0.62c0,0.39-0.21,0.59-0.62,0.59h-5.26
			c-0.58,0-0.94-0.25-1.09-0.76l-0.67-2.07h-4.96l-0.64,2.07c-0.15,0.5-0.51,0.76-1.09,0.76h-5.26
			C235.68,414.55,235.47,414.36,235.47,413.96z M246.68,407.3l-1.09-3.47l-1.09,3.47H246.68z"/>
		<path d="M265.87,414.16c-0.25-0.26-0.38-0.66-0.38-1.2v-15.85c0-0.54,0.13-0.94,0.38-1.2c0.25-0.26,0.69-0.39,1.3-0.39h6.44
			c6.59,0,9.88,3.17,9.88,9.52c0,3.14-0.84,5.51-2.53,7.11s-4.14,2.41-7.35,2.41h-6.44C266.55,414.55,266.12,414.42,265.87,414.16z
			 M273.86,409.79c1.04,0,1.8-0.35,2.25-1.04c0.46-0.69,0.69-1.93,0.69-3.72s-0.23-3.03-0.69-3.72c-0.46-0.69-1.21-1.04-2.25-1.04
			h-1.65v9.52H273.86z"/>
		<path d="M285.27,414.16c-0.25-0.26-0.38-0.66-0.38-1.2v-15.85c0-0.54,0.13-0.94,0.38-1.2c0.25-0.26,0.69-0.39,1.3-0.39h11.59
			c0.6,0,1,0.13,1.22,0.38s0.32,0.66,0.32,1.22v1.57c0,0.56-0.11,0.97-0.32,1.22s-0.62,0.38-1.22,0.38h-6.55v2.41h4.03
			c0.6,0,1,0.13,1.22,0.38c0.21,0.25,0.32,0.66,0.32,1.22v1.51c0,0.56-0.11,0.97-0.32,1.22c-0.21,0.25-0.62,0.38-1.22,0.38h-4.03
			v2.41h6.52c0.6,0,1,0.13,1.22,0.38c0.21,0.25,0.32,0.66,0.32,1.22v1.57c0,0.56-0.11,0.97-0.32,1.22
			c-0.21,0.25-0.62,0.38-1.22,0.38h-11.56C285.96,414.55,285.52,414.42,285.27,414.16z"/>
		<path d="M101.93,447.76c-0.25-0.26-0.38-0.66-0.38-1.2v-15.85c0-0.54,0.13-0.94,0.38-1.2c0.25-0.26,0.69-0.39,1.3-0.39h11.59
			c0.6,0,1,0.13,1.22,0.38c0.21,0.25,0.32,0.66,0.32,1.22v1.57c0,0.56-0.11,0.97-0.32,1.22c-0.21,0.25-0.62,0.38-1.22,0.38h-6.55
			v2.38h4.03c0.6,0,1,0.13,1.22,0.38c0.21,0.25,0.32,0.66,0.32,1.22v1.57c0,0.56-0.11,0.97-0.32,1.22
			c-0.21,0.25-0.62,0.38-1.22,0.38h-4.03v5.54c0,0.54-0.13,0.94-0.38,1.2c-0.25,0.26-0.7,0.39-1.33,0.39h-3.33
			C102.62,448.15,102.18,448.02,101.93,447.76z"/>
		<path d="M118.1,445.98c-1.72-1.73-2.58-4.18-2.58-7.35c0-3.17,0.86-5.62,2.58-7.35c1.72-1.73,4.24-2.59,7.56-2.59
			s5.84,0.86,7.56,2.59c1.72,1.73,2.58,4.18,2.58,7.35c0,3.17-0.86,5.62-2.58,7.35c-1.72,1.73-4.24,2.59-7.56,2.59
			S119.82,447.71,118.1,445.98z M128.29,442.57c0.54-0.87,0.81-2.18,0.81-3.93c0-1.77-0.27-3.09-0.81-3.95
			c-0.54-0.86-1.42-1.29-2.63-1.29c-1.21,0-2.09,0.43-2.63,1.29c-0.54,0.86-0.81,2.17-0.81,3.95c0,1.75,0.27,3.07,0.81,3.93
			c0.54,0.87,1.42,1.3,2.63,1.3C126.87,443.87,127.75,443.43,128.29,442.57z"/>
		<path d="M137.57,447.76c-0.25-0.26-0.38-0.66-0.38-1.2v-15.85c0-0.54,0.13-0.94,0.38-1.2c0.25-0.26,0.69-0.39,1.3-0.39h6.69
			c2.8,0,4.84,0.56,6.12,1.67s1.92,2.79,1.92,5.03c0,1.34-0.23,2.48-0.69,3.4s-1.16,1.65-2.11,2.17l2.6,5.57
			c0.07,0.15,0.11,0.32,0.11,0.5c0,0.21-0.07,0.37-0.21,0.5c-0.14,0.13-0.32,0.2-0.55,0.2h-4.73c-0.3,0-0.54-0.04-0.71-0.13
			s-0.3-0.23-0.38-0.43l-2.07-5.21h-0.95v4.17c0,0.54-0.13,0.94-0.38,1.2c-0.25,0.26-0.7,0.39-1.33,0.39h-3.33
			C138.26,448.15,137.83,448.02,137.57,447.76z M144.98,437.71c0.6,0,1.07-0.16,1.41-0.48c0.34-0.32,0.52-0.79,0.52-1.43
			c0-0.65-0.17-1.14-0.52-1.46c-0.35-0.32-0.82-0.48-1.41-0.48h-1.9v3.84H144.98z"/>
		<path d="M155.38,447.76c-0.25-0.26-0.38-0.66-0.38-1.2v-15.88c0-0.54,0.13-0.94,0.38-1.19s0.7-0.38,1.33-0.38h3.22
			c0.41,0,0.74,0.05,0.98,0.15c0.24,0.1,0.43,0.3,0.56,0.6l3.28,8.2l3.28-8.2c0.13-0.3,0.32-0.5,0.56-0.6s0.57-0.15,0.98-0.15h3.22
			c0.63,0,1.08,0.13,1.33,0.38s0.38,0.65,0.38,1.19v15.88c0,0.54-0.13,0.94-0.38,1.2c-0.25,0.26-0.69,0.39-1.3,0.39h-2.69
			c-0.62,0-1.05-0.13-1.32-0.39c-0.26-0.26-0.39-0.66-0.39-1.2v-7.64l-1.65,3.81c-0.22,0.54-0.47,0.93-0.73,1.16
			c-0.26,0.23-0.69,0.35-1.29,0.35s-1.03-0.12-1.29-0.35c-0.26-0.23-0.5-0.62-0.73-1.16l-1.65-3.81v7.64c0,0.54-0.13,0.94-0.38,1.2
			c-0.25,0.26-0.7,0.39-1.33,0.39h-2.69C156.07,448.15,155.63,448.02,155.38,447.76z"/>
		<path d="M180.68,447.69c-1.38-0.59-2.46-1.44-3.22-2.55s-1.15-2.43-1.15-3.96v-10.47c0-0.54,0.13-0.94,0.38-1.2
			c0.25-0.26,0.69-0.39,1.3-0.39h3.33c0.63,0,1.08,0.13,1.33,0.38s0.38,0.66,0.38,1.22v10.56c0,0.88,0.22,1.53,0.66,1.96
			s1.04,0.64,1.81,0.64c0.76,0,1.37-0.21,1.81-0.64s0.66-1.08,0.66-1.96v-10.56c0-0.54,0.13-0.94,0.38-1.2
			c0.25-0.26,0.69-0.39,1.3-0.39h3.33c0.63,0,1.08,0.13,1.33,0.38s0.38,0.66,0.38,1.22v10.47c0,1.53-0.38,2.85-1.15,3.96
			s-1.84,1.96-3.22,2.55s-2.99,0.88-4.82,0.88C183.67,448.57,182.06,448.28,180.68,447.69z"/>
		<path d="M196.88,447.76c-0.25-0.26-0.38-0.66-0.38-1.2v-15.85c0-0.54,0.13-0.94,0.38-1.2c0.25-0.26,0.69-0.39,1.3-0.39h3.33
			c0.63,0,1.08,0.13,1.33,0.38c0.25,0.25,0.38,0.66,0.38,1.22v12.68h6.52c0.6,0,1,0.13,1.22,0.38s0.32,0.66,0.32,1.22v1.57
			c0,0.56-0.11,0.97-0.32,1.22s-0.62,0.38-1.22,0.38h-11.56C197.56,448.15,197.13,448.02,196.88,447.76z"/>
		<path d="M211.14,447.56c0-0.17,0.05-0.37,0.14-0.62l6.97-16.77c0.17-0.39,0.36-0.67,0.57-0.83c0.21-0.16,0.52-0.24,0.91-0.24h3.05
			c0.39,0,0.7,0.08,0.91,0.24s0.41,0.43,0.57,0.83l6.94,16.77c0.09,0.24,0.14,0.45,0.14,0.62c0,0.39-0.21,0.59-0.62,0.59h-5.26
			c-0.58,0-0.94-0.25-1.09-0.76l-0.67-2.07h-4.96l-0.64,2.07c-0.15,0.5-0.51,0.76-1.09,0.76h-5.26
			C211.35,448.15,211.14,447.96,211.14,447.56z M222.34,440.9l-1.09-3.47l-1.09,3.47H222.34z"/>
		<path d="M233.14,447.76c-0.25-0.26-0.38-0.66-0.38-1.2v-15.85c0-0.54,0.13-0.94,0.38-1.2c0.25-0.26,0.69-0.39,1.3-0.39h6.69
			c2.8,0,4.84,0.56,6.12,1.67c1.28,1.11,1.92,2.79,1.92,5.03c0,1.34-0.23,2.48-0.69,3.4c-0.46,0.92-1.16,1.65-2.11,2.17l2.6,5.57
			c0.08,0.15,0.11,0.32,0.11,0.5c0,0.21-0.07,0.37-0.21,0.5c-0.14,0.13-0.32,0.2-0.55,0.2h-4.73c-0.3,0-0.54-0.04-0.71-0.13
			s-0.3-0.23-0.38-0.43l-2.07-5.21h-0.95v4.17c0,0.54-0.13,0.94-0.38,1.2c-0.25,0.26-0.7,0.39-1.33,0.39h-3.33
			C233.82,448.15,233.39,448.02,233.14,447.76z M240.54,437.71c0.6,0,1.07-0.16,1.41-0.48s0.52-0.79,0.52-1.43
			c0-0.65-0.17-1.14-0.52-1.46s-0.82-0.48-1.41-0.48h-1.9v3.84H240.54z"/>
		<path d="M250.95,447.76c-0.25-0.26-0.38-0.66-0.38-1.2v-15.85c0-0.54,0.13-0.94,0.38-1.2c0.25-0.26,0.69-0.39,1.3-0.39h3.33
			c0.63,0,1.08,0.13,1.33,0.38c0.25,0.25,0.38,0.66,0.38,1.22v15.85c0,0.54-0.13,0.94-0.38,1.2c-0.25,0.26-0.7,0.39-1.33,0.39h-3.33
			C251.63,448.15,251.2,448.02,250.95,447.76z"/>
		<path d="M261.26,445.98c-1.72-1.73-2.58-4.18-2.58-7.35c0-3.17,0.86-5.62,2.58-7.35s4.24-2.59,7.56-2.59s5.84,0.86,7.56,2.59
			c1.72,1.73,2.58,4.18,2.58,7.35c0,3.17-0.86,5.62-2.58,7.35c-1.72,1.73-4.24,2.59-7.56,2.59S262.98,447.71,261.26,445.98z
			 M271.46,442.57c0.54-0.87,0.81-2.18,0.81-3.93c0-1.77-0.27-3.09-0.81-3.95c-0.54-0.86-1.42-1.29-2.63-1.29s-2.09,0.43-2.63,1.29
			s-0.81,2.17-0.81,3.95c0,1.75,0.27,3.07,0.81,3.93s1.42,1.3,2.63,1.3S270.91,443.43,271.46,442.57z"/>
		<path d="M282.65,448.04c-1.46-0.35-2.63-0.85-3.53-1.48c-0.37-0.26-0.56-0.51-0.56-0.76c0-0.17,0.07-0.35,0.2-0.53l1.62-2.55
			c0.17-0.24,0.34-0.36,0.5-0.36c0.15,0,0.33,0.07,0.53,0.2c0.67,0.41,1.44,0.73,2.31,0.97c0.87,0.23,1.71,0.35,2.53,0.35
			c0.69,0,1.19-0.09,1.5-0.28c0.31-0.19,0.46-0.48,0.46-0.87c0-0.43-0.21-0.77-0.62-1.04c-0.41-0.26-1.12-0.59-2.13-0.98
			c-1.88-0.73-3.37-1.55-4.45-2.48c-1.08-0.92-1.63-2.15-1.63-3.68c0-1.94,0.68-3.4,2.03-4.38c1.35-0.98,3.18-1.47,5.47-1.47
			c1.61,0,2.97,0.14,4.1,0.42c1.13,0.28,2.11,0.72,2.95,1.32c0.37,0.26,0.56,0.51,0.56,0.76c0,0.17-0.07,0.35-0.2,0.53l-1.62,2.55
			c-0.17,0.26-0.34,0.39-0.5,0.39c-0.11,0-0.29-0.07-0.53-0.22c-0.45-0.3-0.98-0.55-1.6-0.74c-0.62-0.2-1.28-0.29-1.99-0.29
			c-0.65,0-1.15,0.09-1.48,0.28s-0.5,0.49-0.5,0.9c0,0.34,0.12,0.62,0.35,0.84c0.23,0.22,0.53,0.42,0.88,0.57
			c0.36,0.16,0.97,0.42,1.85,0.77c1.4,0.56,2.5,1.1,3.3,1.61c0.8,0.51,1.41,1.13,1.82,1.85c0.41,0.72,0.62,1.63,0.62,2.73
			c0,1.68-0.63,3.04-1.89,4.07c-1.26,1.04-3.14,1.55-5.64,1.55C285.69,448.57,284.11,448.39,282.65,448.04z"/>
		<path d="M295.79,450.84c0-0.08,0.02-0.21,0.05-0.39l1.37-4.9c0.13-0.49,0.3-0.8,0.52-0.95s0.57-0.22,1.08-0.22h2.63
			c0.43,0,0.74,0.06,0.92,0.17c0.19,0.11,0.28,0.29,0.28,0.53c0,0.26-0.07,0.57-0.22,0.92l-2.02,4.76
			c-0.11,0.24-0.26,0.42-0.43,0.55c-0.18,0.12-0.43,0.18-0.77,0.18h-2.58C296.07,451.48,295.79,451.27,295.79,450.84z"/>
		<path d="M78.16,481.36c-0.25-0.26-0.38-0.66-0.38-1.2v-15.85c0-0.54,0.13-0.94,0.38-1.2c0.25-0.26,0.69-0.39,1.3-0.39h3.33
			c0.63,0,1.08,0.13,1.33,0.38c0.25,0.25,0.38,0.66,0.38,1.22v15.85c0,0.54-0.13,0.94-0.38,1.2c-0.25,0.26-0.7,0.39-1.33,0.39h-3.33
			C78.84,481.75,78.41,481.62,78.16,481.36z"/>
		<path d="M86.84,481.36c-0.25-0.26-0.38-0.66-0.38-1.2v-15.88c0-0.54,0.13-0.94,0.38-1.19s0.7-0.38,1.33-0.38h2.66
			c0.39,0,0.69,0.05,0.91,0.15c0.21,0.1,0.42,0.3,0.63,0.6l5.07,7.53v-6.69c0-0.54,0.13-0.94,0.38-1.2c0.25-0.26,0.69-0.39,1.3-0.39
			h3.33c0.63,0,1.08,0.13,1.33,0.38s0.38,0.66,0.38,1.22v15.88c0,0.54-0.13,0.94-0.38,1.19s-0.7,0.38-1.33,0.38h-2.66
			c-0.39,0-0.7-0.05-0.91-0.15c-0.21-0.1-0.42-0.3-0.63-0.6l-5.07-7.53v6.72c0,0.54-0.13,0.94-0.38,1.19
			c-0.25,0.25-0.7,0.38-1.33,0.38h-3.33C87.52,481.75,87.09,481.62,86.84,481.36z"/>
		<path d="M106.49,481.36c-0.25-0.26-0.38-0.66-0.38-1.2v-15.85c0-0.54,0.13-0.94,0.38-1.2c0.25-0.26,0.69-0.39,1.3-0.39h11.59
			c0.6,0,1,0.13,1.22,0.38s0.32,0.66,0.32,1.22v1.57c0,0.56-0.11,0.97-0.32,1.22s-0.62,0.38-1.22,0.38h-6.55v2.38h4.03
			c0.6,0,1,0.13,1.22,0.38c0.21,0.25,0.32,0.66,0.32,1.22v1.57c0,0.56-0.11,0.97-0.32,1.22s-0.62,0.38-1.22,0.38h-4.03v5.54
			c0,0.54-0.13,0.94-0.38,1.2c-0.25,0.26-0.7,0.39-1.33,0.39h-3.33C107.18,481.75,106.75,481.62,106.49,481.36z"/>
		<path d="M122.66,479.58c-1.72-1.73-2.58-4.18-2.58-7.35c0-3.17,0.86-5.62,2.58-7.35c1.72-1.73,4.24-2.59,7.56-2.59
			c3.32,0,5.84,0.86,7.56,2.59s2.58,4.18,2.58,7.35c0,3.17-0.86,5.62-2.58,7.35s-4.24,2.59-7.56,2.59
			C126.9,482.17,124.38,481.31,122.66,479.58z M132.86,476.17c0.54-0.87,0.81-2.18,0.81-3.93c0-1.77-0.27-3.09-0.81-3.95
			s-1.42-1.29-2.63-1.29c-1.21,0-2.09,0.43-2.63,1.29c-0.54,0.86-0.81,2.17-0.81,3.95c0,1.75,0.27,3.07,0.81,3.93
			c0.54,0.87,1.42,1.3,2.63,1.3C131.44,477.47,132.31,477.03,132.86,476.17z"/>
		<path d="M142.14,481.36c-0.25-0.26-0.38-0.66-0.38-1.2v-15.85c0-0.54,0.13-0.94,0.38-1.2c0.25-0.26,0.69-0.39,1.3-0.39h6.69
			c2.8,0,4.84,0.56,6.12,1.67c1.28,1.11,1.92,2.79,1.92,5.03c0,1.34-0.23,2.48-0.69,3.4c-0.46,0.92-1.16,1.65-2.11,2.17l2.6,5.57
			c0.08,0.15,0.11,0.32,0.11,0.5c0,0.21-0.07,0.37-0.21,0.5c-0.14,0.13-0.32,0.2-0.55,0.2h-4.73c-0.3,0-0.54-0.04-0.71-0.13
			s-0.3-0.23-0.38-0.43l-2.07-5.21h-0.95v4.17c0,0.54-0.13,0.94-0.38,1.2c-0.25,0.26-0.7,0.39-1.33,0.39h-3.33
			C142.82,481.75,142.39,481.62,142.14,481.36z M149.54,471.31c0.6,0,1.07-0.16,1.41-0.48s0.52-0.79,0.52-1.43
			c0-0.65-0.17-1.14-0.52-1.46s-0.82-0.48-1.41-0.48h-1.9v3.84H149.54z"/>
		<path d="M159.95,481.36c-0.25-0.26-0.38-0.66-0.38-1.2v-15.88c0-0.54,0.13-0.94,0.38-1.19s0.7-0.38,1.33-0.38h3.22
			c0.41,0,0.74,0.05,0.98,0.15s0.43,0.3,0.56,0.6l3.28,8.2l3.28-8.2c0.13-0.3,0.32-0.5,0.56-0.6s0.57-0.15,0.98-0.15h3.22
			c0.63,0,1.08,0.13,1.33,0.38s0.38,0.65,0.38,1.19v15.88c0,0.54-0.13,0.94-0.38,1.2c-0.25,0.26-0.69,0.39-1.3,0.39h-2.69
			c-0.62,0-1.05-0.13-1.32-0.39c-0.26-0.26-0.39-0.66-0.39-1.2v-7.64l-1.65,3.81c-0.22,0.54-0.47,0.93-0.73,1.16
			c-0.26,0.23-0.69,0.35-1.29,0.35s-1.03-0.12-1.29-0.35c-0.26-0.23-0.5-0.62-0.73-1.16l-1.65-3.81v7.64c0,0.54-0.13,0.94-0.38,1.2
			c-0.25,0.26-0.7,0.39-1.33,0.39h-2.69C160.63,481.75,160.2,481.62,159.95,481.36z"/>
		<path d="M179.75,481.16c0-0.17,0.05-0.37,0.14-0.62l6.97-16.77c0.17-0.39,0.36-0.67,0.57-0.83c0.21-0.16,0.52-0.24,0.91-0.24h3.05
			c0.39,0,0.7,0.08,0.91,0.24s0.41,0.43,0.57,0.83l6.94,16.77c0.09,0.24,0.14,0.45,0.14,0.62c0,0.39-0.21,0.59-0.62,0.59h-5.26
			c-0.58,0-0.94-0.25-1.09-0.76l-0.67-2.07h-4.96l-0.64,2.07c-0.15,0.5-0.51,0.76-1.09,0.76h-5.26
			C179.96,481.75,179.75,481.56,179.75,481.16z M190.96,474.5l-1.09-3.47l-1.09,3.47H190.96z"/>
		<path d="M202.1,479.67c-1.89-1.67-2.83-4.15-2.83-7.43c0-3.3,0.91-5.79,2.73-7.45c1.82-1.66,4.42-2.49,7.8-2.49
			c1.53,0,2.89,0.15,4.09,0.45c1.2,0.3,2.19,0.72,3,1.26c0.22,0.17,0.34,0.35,0.34,0.56c0,0.17-0.08,0.4-0.25,0.7l-1.4,2.41
			c-0.15,0.26-0.33,0.39-0.53,0.39c-0.13,0-0.35-0.07-0.64-0.22c-0.52-0.26-1.07-0.47-1.64-0.62s-1.24-0.22-2-0.22
			c-1.55,0-2.74,0.45-3.56,1.34c-0.82,0.9-1.23,2.19-1.23,3.89c0,1.68,0.45,2.97,1.34,3.88c0.9,0.91,2.12,1.36,3.67,1.36
			c1.34,0,2.58-0.28,3.7-0.84c0.3-0.15,0.51-0.22,0.64-0.22c0.21,0,0.38,0.13,0.53,0.39l1.4,2.41c0.17,0.3,0.25,0.53,0.25,0.7
			c0,0.21-0.11,0.39-0.34,0.56c-0.8,0.54-1.81,0.96-3.02,1.26c-1.21,0.3-2.59,0.45-4.12,0.45
			C206.63,482.17,203.98,481.34,202.1,479.67z"/>
		<path d="M219.28,481.36c-0.25-0.26-0.38-0.66-0.38-1.2v-15.85c0-0.54,0.13-0.94,0.38-1.2c0.25-0.26,0.69-0.39,1.3-0.39h3.33
			c0.63,0,1.08,0.13,1.33,0.38c0.25,0.25,0.38,0.66,0.38,1.22v15.85c0,0.54-0.13,0.94-0.38,1.2c-0.25,0.26-0.7,0.39-1.33,0.39h-3.33
			C219.96,481.75,219.53,481.62,219.28,481.36z"/>
		<path d="M229.6,479.58c-1.72-1.73-2.58-4.18-2.58-7.35c0-3.17,0.86-5.62,2.58-7.35c1.72-1.73,4.24-2.59,7.56-2.59
			c3.32,0,5.84,0.86,7.56,2.59s2.58,4.18,2.58,7.35c0,3.17-0.86,5.62-2.58,7.35s-4.24,2.59-7.56,2.59
			C233.83,482.17,231.31,481.31,229.6,479.58z M239.79,476.17c0.54-0.87,0.81-2.18,0.81-3.93c0-1.77-0.27-3.09-0.81-3.95
			s-1.42-1.29-2.63-1.29c-1.21,0-2.09,0.43-2.63,1.29c-0.54,0.86-0.81,2.17-0.81,3.95c0,1.75,0.27,3.07,0.81,3.93
			c0.54,0.87,1.42,1.3,2.63,1.3C238.37,477.47,239.25,477.03,239.79,476.17z M234.19,460.36c0-0.15,0.03-0.31,0.08-0.48l1.18-3.25
			c0.15-0.43,0.33-0.72,0.53-0.87c0.21-0.15,0.59-0.22,1.15-0.22h4c0.39,0,0.7,0.07,0.92,0.21c0.22,0.14,0.34,0.34,0.34,0.6
			c0,0.22-0.07,0.46-0.22,0.7l-1.79,3.02c-0.26,0.45-0.51,0.74-0.76,0.87s-0.68,0.2-1.32,0.2h-3
			C234.56,461.14,234.19,460.88,234.19,460.36z"/>
		<path d="M249.07,481.36c-0.25-0.26-0.38-0.66-0.38-1.2v-15.88c0-0.54,0.13-0.94,0.38-1.19s0.7-0.38,1.33-0.38h2.66
			c0.39,0,0.7,0.05,0.91,0.15s0.42,0.3,0.63,0.6l5.07,7.53v-6.69c0-0.54,0.13-0.94,0.38-1.2c0.25-0.26,0.69-0.39,1.3-0.39h3.33
			c0.63,0,1.08,0.13,1.33,0.38s0.38,0.66,0.38,1.22v15.88c0,0.54-0.13,0.94-0.38,1.19s-0.7,0.38-1.33,0.38h-2.66
			c-0.39,0-0.7-0.05-0.91-0.15c-0.21-0.1-0.43-0.3-0.63-0.6l-5.07-7.53v6.72c0,0.54-0.13,0.94-0.38,1.19s-0.7,0.38-1.33,0.38h-3.33
			C249.75,481.75,249.32,481.62,249.07,481.36z"/>
		<path d="M277.13,481.36c-0.25-0.26-0.38-0.66-0.38-1.2v-15.85c0-0.54,0.13-0.94,0.38-1.2c0.25-0.26,0.69-0.39,1.3-0.39h6.44
			c6.59,0,9.88,3.17,9.88,9.52c0,3.14-0.84,5.51-2.53,7.11s-4.14,2.41-7.35,2.41h-6.44C277.81,481.75,277.38,481.62,277.13,481.36z
			 M285.12,476.99c1.04,0,1.8-0.35,2.25-1.04c0.46-0.69,0.69-1.93,0.69-3.72s-0.23-3.03-0.69-3.72c-0.46-0.69-1.21-1.04-2.25-1.04
			h-1.65v9.52H285.12z"/>
		<path d="M296.53,481.36c-0.25-0.26-0.38-0.66-0.38-1.2v-15.85c0-0.54,0.13-0.94,0.38-1.2c0.25-0.26,0.69-0.39,1.3-0.39h11.59
			c0.6,0,1,0.13,1.22,0.38s0.32,0.66,0.32,1.22v1.57c0,0.56-0.11,0.97-0.32,1.22s-0.62,0.38-1.22,0.38h-6.55v2.41h4.03
			c0.6,0,1,0.13,1.22,0.38c0.21,0.25,0.32,0.66,0.32,1.22v1.51c0,0.56-0.11,0.97-0.32,1.22c-0.21,0.25-0.62,0.38-1.22,0.38h-4.03
			v2.41h6.52c0.6,0,1,0.13,1.22,0.38c0.21,0.25,0.32,0.66,0.32,1.22v1.57c0,0.56-0.11,0.97-0.32,1.22
			c-0.21,0.25-0.62,0.38-1.22,0.38h-11.56C297.21,481.75,296.78,481.62,296.53,481.36z"/>
		<path d="M312.6,481.36c-0.25-0.26-0.38-0.66-0.38-1.2v-15.85c0-0.54,0.13-0.94,0.38-1.2c0.25-0.26,0.69-0.39,1.3-0.39h3.33
			c0.63,0,1.08,0.13,1.33,0.38s0.38,0.66,0.38,1.22v12.68h6.52c0.6,0,1,0.13,1.22,0.38s0.32,0.66,0.32,1.22v1.57
			c0,0.56-0.11,0.97-0.32,1.22s-0.62,0.38-1.22,0.38H313.9C313.29,481.75,312.85,481.62,312.6,481.36z"/>
		<path d="M38.64,514.96c-0.25-0.26-0.38-0.66-0.38-1.2v-15.85c0-0.54,0.13-0.94,0.38-1.2c0.25-0.26,0.69-0.39,1.3-0.39h11.59
			c0.6,0,1,0.13,1.22,0.38s0.32,0.66,0.32,1.22v1.57c0,0.56-0.11,0.97-0.32,1.22s-0.62,0.38-1.22,0.38h-6.55v2.41h4.03
			c0.6,0,1,0.13,1.22,0.38s0.32,0.66,0.32,1.22v1.51c0,0.56-0.11,0.97-0.32,1.22s-0.62,0.38-1.22,0.38h-4.03v2.41h6.52
			c0.6,0,1,0.13,1.22,0.38c0.21,0.25,0.32,0.66,0.32,1.22v1.57c0,0.56-0.11,0.97-0.32,1.22c-0.21,0.25-0.62,0.38-1.22,0.38H39.94
			C39.32,515.35,38.89,515.22,38.64,514.96z"/>
		<path d="M57.89,515.24c-1.46-0.35-2.63-0.85-3.53-1.48c-0.37-0.26-0.56-0.51-0.56-0.76c0-0.17,0.06-0.35,0.2-0.53l1.62-2.55
			c0.17-0.24,0.34-0.36,0.5-0.36c0.15,0,0.33,0.07,0.53,0.2c0.67,0.41,1.44,0.73,2.31,0.97s1.71,0.35,2.53,0.35
			c0.69,0,1.19-0.09,1.5-0.28c0.31-0.19,0.46-0.48,0.46-0.87c0-0.43-0.21-0.77-0.62-1.04s-1.12-0.59-2.13-0.98
			c-1.89-0.73-3.37-1.55-4.45-2.48s-1.62-2.15-1.62-3.68c0-1.94,0.68-3.4,2.03-4.38c1.35-0.98,3.18-1.47,5.47-1.47
			c1.6,0,2.97,0.14,4.1,0.42c1.13,0.28,2.11,0.72,2.95,1.32c0.37,0.26,0.56,0.51,0.56,0.76c0,0.17-0.07,0.35-0.2,0.53l-1.63,2.55
			c-0.17,0.26-0.34,0.39-0.5,0.39c-0.11,0-0.29-0.07-0.53-0.22c-0.45-0.3-0.98-0.55-1.6-0.74c-0.62-0.2-1.28-0.29-1.99-0.29
			c-0.65,0-1.15,0.09-1.48,0.28s-0.5,0.49-0.5,0.9c0,0.34,0.12,0.62,0.35,0.84c0.23,0.22,0.53,0.42,0.88,0.57
			c0.35,0.16,0.97,0.42,1.85,0.77c1.4,0.56,2.5,1.1,3.3,1.61c0.8,0.51,1.41,1.13,1.82,1.85c0.41,0.72,0.62,1.63,0.62,2.73
			c0,1.68-0.63,3.04-1.89,4.07s-3.14,1.55-5.64,1.55C60.92,515.77,59.34,515.59,57.89,515.24z"/>
		<path d="M75.68,514.96c-0.25-0.26-0.38-0.66-0.38-1.2v-12.68h-4.03c-0.6,0-1-0.13-1.22-0.38c-0.21-0.25-0.32-0.66-0.32-1.22v-1.57
			c0-0.56,0.11-0.97,0.32-1.22c0.21-0.25,0.62-0.38,1.22-0.38h14.79c0.6,0,1,0.13,1.22,0.38s0.32,0.66,0.32,1.22v1.57
			c0,0.56-0.11,0.97-0.32,1.22s-0.62,0.38-1.22,0.38h-4.03v12.68c0,0.54-0.13,0.94-0.38,1.2c-0.25,0.26-0.7,0.39-1.33,0.39h-3.33
			C76.37,515.35,75.93,515.22,75.68,514.96z"/>
		<path d="M84.37,514.76c0-0.17,0.05-0.37,0.14-0.62l6.97-16.77c0.17-0.39,0.36-0.67,0.57-0.83c0.21-0.16,0.52-0.24,0.91-0.24h3.05
			c0.39,0,0.7,0.08,0.91,0.24s0.41,0.43,0.57,0.83l6.94,16.77c0.09,0.24,0.14,0.45,0.14,0.62c0,0.39-0.21,0.59-0.62,0.59h-5.26
			c-0.58,0-0.94-0.25-1.09-0.76l-0.67-2.07h-4.96l-0.64,2.07c-0.15,0.5-0.51,0.76-1.09,0.76h-5.26
			C84.58,515.35,84.37,515.16,84.37,514.76z M95.57,508.1l-1.09-3.47l-1.09,3.47H95.57z"/>
		<path d="M106.37,514.96c-0.25-0.26-0.38-0.66-0.38-1.2v-15.85c0-0.54,0.13-0.94,0.38-1.2c0.25-0.26,0.69-0.39,1.3-0.39h6.44
			c6.59,0,9.88,3.17,9.88,9.52c0,3.14-0.85,5.51-2.53,7.11c-1.69,1.61-4.14,2.41-7.35,2.41h-6.44
			C107.05,515.35,106.62,515.22,106.37,514.96z M114.36,510.59c1.04,0,1.8-0.35,2.25-1.04s0.69-1.93,0.69-3.72s-0.23-3.03-0.69-3.72
			c-0.46-0.69-1.21-1.04-2.25-1.04h-1.65v9.52H114.36z"/>
		<path d="M127.41,513.18c-1.72-1.73-2.58-4.18-2.58-7.35c0-3.17,0.86-5.62,2.58-7.35c1.72-1.73,4.24-2.59,7.56-2.59
			c3.32,0,5.84,0.86,7.56,2.59s2.58,4.18,2.58,7.35c0,3.17-0.86,5.62-2.58,7.35s-4.24,2.59-7.56,2.59
			C131.65,515.77,129.13,514.91,127.41,513.18z M137.6,509.77c0.54-0.87,0.81-2.18,0.81-3.93c0-1.77-0.27-3.09-0.81-3.95
			s-1.42-1.29-2.63-1.29c-1.21,0-2.09,0.43-2.63,1.29c-0.54,0.86-0.81,2.17-0.81,3.95c0,1.75,0.27,3.07,0.81,3.93
			c0.54,0.87,1.42,1.3,2.63,1.3C136.18,511.07,137.06,510.63,137.6,509.77z"/>
		<path d="M155.28,514.96c-0.25-0.26-0.38-0.66-0.38-1.2v-15.85c0-0.54,0.13-0.94,0.38-1.2c0.25-0.26,0.69-0.39,1.3-0.39h6.44
			c6.59,0,9.88,3.17,9.88,9.52c0,3.14-0.84,5.51-2.53,7.11s-4.14,2.41-7.35,2.41h-6.44C155.97,515.35,155.54,515.22,155.28,514.96z
			 M163.28,510.59c1.04,0,1.8-0.35,2.25-1.04c0.46-0.69,0.69-1.93,0.69-3.72s-0.23-3.03-0.69-3.72c-0.46-0.69-1.21-1.04-2.25-1.04
			h-1.65v9.52H163.28z"/>
		<path d="M174.69,514.96c-0.25-0.26-0.38-0.66-0.38-1.2v-15.85c0-0.54,0.13-0.94,0.38-1.2c0.25-0.26,0.69-0.39,1.3-0.39h11.59
			c0.6,0,1,0.13,1.22,0.38s0.32,0.66,0.32,1.22v1.57c0,0.56-0.11,0.97-0.32,1.22s-0.62,0.38-1.22,0.38h-6.55v2.41h4.03
			c0.6,0,1,0.13,1.22,0.38s0.32,0.66,0.32,1.22v1.51c0,0.56-0.11,0.97-0.32,1.22s-0.62,0.38-1.22,0.38h-4.03v2.41h6.52
			c0.6,0,1,0.13,1.22,0.38c0.21,0.25,0.32,0.66,0.32,1.22v1.57c0,0.56-0.11,0.97-0.32,1.22c-0.21,0.25-0.62,0.38-1.22,0.38h-11.56
			C175.37,515.35,174.94,515.22,174.69,514.96z"/>
		<path d="M198.22,514.76c0-0.17,0.05-0.37,0.14-0.62l6.97-16.77c0.17-0.39,0.36-0.67,0.57-0.83s0.52-0.24,0.91-0.24h3.05
			c0.39,0,0.7,0.08,0.91,0.24c0.21,0.16,0.41,0.43,0.57,0.83l6.95,16.77c0.09,0.24,0.14,0.45,0.14,0.62c0,0.39-0.21,0.59-0.62,0.59
			h-5.26c-0.58,0-0.94-0.25-1.09-0.76l-0.67-2.07h-4.96l-0.64,2.07c-0.15,0.5-0.51,0.76-1.09,0.76h-5.26
			C198.43,515.35,198.22,515.16,198.22,514.76z M209.42,508.1l-1.09-3.47l-1.09,3.47H209.42z"/>
		<path d="M220.21,514.96c-0.25-0.26-0.38-0.66-0.38-1.2v-15.85c0-0.54,0.13-0.94,0.38-1.2c0.25-0.26,0.69-0.39,1.3-0.39h11.59
			c0.6,0,1,0.13,1.22,0.38s0.32,0.66,0.32,1.22v1.57c0,0.56-0.11,0.97-0.32,1.22s-0.62,0.38-1.22,0.38h-6.55v2.38h4.03
			c0.6,0,1,0.13,1.22,0.38c0.21,0.25,0.32,0.66,0.32,1.22v1.57c0,0.56-0.11,0.97-0.32,1.22s-0.62,0.38-1.22,0.38h-4.03v5.54
			c0,0.54-0.13,0.94-0.38,1.2c-0.25,0.26-0.7,0.39-1.33,0.39h-3.33C220.9,515.35,220.47,515.22,220.21,514.96z"/>
		<path d="M236.01,514.96c-0.25-0.26-0.38-0.66-0.38-1.2v-15.85c0-0.54,0.13-0.94,0.38-1.2c0.25-0.26,0.69-0.39,1.3-0.39h3.33
			c0.63,0,1.08,0.13,1.33,0.38c0.25,0.25,0.38,0.66,0.38,1.22v15.85c0,0.54-0.13,0.94-0.38,1.2c-0.25,0.26-0.7,0.39-1.33,0.39h-3.33
			C236.69,515.35,236.26,515.22,236.01,514.96z"/>
		<path d="M244.69,514.96c-0.25-0.26-0.38-0.66-0.38-1.2v-15.85c0-0.54,0.13-0.94,0.38-1.2c0.25-0.26,0.69-0.39,1.3-0.39h3.33
			c0.63,0,1.08,0.13,1.33,0.38s0.38,0.66,0.38,1.22v12.68h6.52c0.6,0,1,0.13,1.22,0.38s0.32,0.66,0.32,1.22v1.57
			c0,0.56-0.11,0.97-0.32,1.22s-0.62,0.38-1.22,0.38h-11.56C245.37,515.35,244.94,515.22,244.69,514.96z"/>
		<path d="M260.31,514.96c-0.25-0.26-0.38-0.66-0.38-1.2v-15.85c0-0.54,0.13-0.94,0.38-1.2c0.25-0.26,0.69-0.39,1.3-0.39h3.33
			c0.63,0,1.08,0.13,1.33,0.38c0.25,0.25,0.38,0.66,0.38,1.22v15.85c0,0.54-0.13,0.94-0.38,1.2c-0.25,0.26-0.7,0.39-1.33,0.39h-3.33
			C261,515.35,260.56,515.22,260.31,514.96z"/>
		<path d="M268.05,514.76c0-0.17,0.05-0.37,0.14-0.62l6.97-16.77c0.17-0.39,0.36-0.67,0.57-0.83c0.21-0.16,0.52-0.24,0.91-0.24h3.05
			c0.39,0,0.7,0.08,0.91,0.24s0.41,0.43,0.57,0.83l6.94,16.77c0.09,0.24,0.14,0.45,0.14,0.62c0,0.39-0.21,0.59-0.62,0.59h-5.26
			c-0.58,0-0.94-0.25-1.09-0.76l-0.67-2.07h-4.96l-0.64,2.07c-0.15,0.5-0.51,0.76-1.09,0.76h-5.26
			C268.26,515.35,268.05,515.16,268.05,514.76z M279.25,508.1l-1.09-3.47l-1.09,3.47H279.25z"/>
		<path d="M290.4,513.27c-1.89-1.67-2.83-4.15-2.83-7.43c0-3.3,0.91-5.79,2.73-7.45c1.82-1.66,4.42-2.49,7.8-2.49
			c1.53,0,2.89,0.15,4.09,0.45c1.2,0.3,2.19,0.72,3,1.26c0.22,0.17,0.34,0.35,0.34,0.56c0,0.17-0.08,0.4-0.25,0.7l-1.4,2.41
			c-0.15,0.26-0.33,0.39-0.53,0.39c-0.13,0-0.35-0.07-0.64-0.22c-0.52-0.26-1.07-0.47-1.64-0.62s-1.24-0.22-2-0.22
			c-1.55,0-2.74,0.45-3.56,1.34c-0.82,0.9-1.23,2.19-1.23,3.89c0,1.68,0.45,2.97,1.34,3.88c0.9,0.91,2.12,1.36,3.67,1.36
			c1.34,0,2.58-0.28,3.7-0.84c0.3-0.15,0.51-0.22,0.64-0.22c0.21,0,0.38,0.13,0.53,0.39l1.4,2.41c0.17,0.3,0.25,0.53,0.25,0.7
			c0,0.21-0.11,0.39-0.34,0.56c-0.8,0.54-1.81,0.96-3.02,1.26c-1.21,0.3-2.59,0.45-4.12,0.45
			C294.92,515.77,292.28,514.94,290.4,513.27z"/>
		<path d="M307.57,514.96c-0.25-0.26-0.38-0.66-0.38-1.2v-15.85c0-0.54,0.13-0.94,0.38-1.2c0.25-0.26,0.69-0.39,1.3-0.39h3.33
			c0.63,0,1.08,0.13,1.33,0.38c0.25,0.25,0.38,0.66,0.38,1.22v15.85c0,0.54-0.13,0.94-0.38,1.2c-0.25,0.26-0.7,0.39-1.33,0.39h-3.33
			C308.26,515.35,307.83,515.22,307.57,514.96z"/>
		<path d="M317.89,513.18c-1.72-1.73-2.58-4.18-2.58-7.35c0-3.17,0.86-5.62,2.58-7.35c1.72-1.73,4.24-2.59,7.56-2.59
			c3.32,0,5.84,0.86,7.56,2.59s2.58,4.18,2.58,7.35c0,3.17-0.86,5.62-2.58,7.35s-4.24,2.59-7.56,2.59
			C322.13,515.77,319.61,514.91,317.89,513.18z M328.08,509.77c0.54-0.87,0.81-2.18,0.81-3.93c0-1.77-0.27-3.09-0.81-3.95
			s-1.42-1.29-2.63-1.29c-1.21,0-2.09,0.43-2.63,1.29c-0.54,0.86-0.81,2.17-0.81,3.95c0,1.75,0.27,3.07,0.81,3.93
			c0.54,0.87,1.42,1.3,2.63,1.3C326.67,511.07,327.54,510.63,328.08,509.77z M322.48,493.96c0-0.15,0.03-0.31,0.08-0.48l1.18-3.25
			c0.15-0.43,0.33-0.72,0.53-0.87c0.21-0.15,0.59-0.22,1.15-0.22h4c0.39,0,0.7,0.07,0.92,0.21c0.22,0.14,0.34,0.34,0.34,0.6
			c0,0.22-0.07,0.46-0.22,0.7l-1.79,3.02c-0.26,0.45-0.51,0.74-0.76,0.87s-0.68,0.2-1.32,0.2h-3
			C322.86,494.74,322.48,494.48,322.48,493.96z"/>
		<path d="M337.37,514.96c-0.25-0.26-0.38-0.66-0.38-1.2v-15.88c0-0.54,0.13-0.94,0.38-1.19s0.7-0.38,1.33-0.38h2.66
			c0.39,0,0.7,0.05,0.91,0.15s0.42,0.3,0.63,0.6l5.07,7.53v-6.69c0-0.54,0.13-0.94,0.38-1.2c0.25-0.26,0.69-0.39,1.3-0.39h3.33
			c0.63,0,1.08,0.13,1.33,0.38s0.38,0.66,0.38,1.22v15.88c0,0.54-0.13,0.94-0.38,1.19s-0.7,0.38-1.33,0.38h-2.66
			c-0.39,0-0.7-0.05-0.91-0.15c-0.21-0.1-0.43-0.3-0.63-0.6l-5.07-7.53v6.72c0,0.54-0.13,0.94-0.38,1.19s-0.7,0.38-1.33,0.38h-3.33
			C338.05,515.35,337.62,515.22,337.37,514.96z"/>
		<path d="M357.37,519.08c-0.52,0-0.92-0.15-1.18-0.46c-0.26-0.31-0.39-0.81-0.39-1.5c0-0.58,0.02-1,0.05-1.27
			c0.04-0.27,0.13-0.51,0.28-0.71c0.15-0.21,0.4-0.47,0.76-0.78c0.91-0.8,1.54-1.81,1.88-3.02c0.34-1.21,0.5-2.82,0.5-4.82
			s-0.17-3.6-0.5-4.82c-0.34-1.21-0.96-2.22-1.88-3.02c-0.36-0.32-0.61-0.58-0.76-0.78c-0.15-0.21-0.24-0.44-0.28-0.71
			c-0.04-0.27-0.05-0.7-0.05-1.27c0-0.69,0.13-1.19,0.39-1.5c0.26-0.31,0.65-0.46,1.18-0.46c0.5,0,1.18,0.15,2.04,0.45
			c1.27,0.45,2.4,1.27,3.4,2.46c1,1.19,1.77,2.63,2.32,4.31c0.55,1.68,0.83,3.46,0.83,5.35s-0.28,3.67-0.83,5.35
			c-0.55,1.68-1.33,3.12-2.32,4.31c-1,1.2-2.13,2.02-3.4,2.46C358.56,518.93,357.88,519.08,357.37,519.08z"/>
	</g>
	<polygon class="st1" points="200.76,96.93 214.23,124.22 244.34,128.59 222.55,149.83 227.7,179.83 200.76,165.67 173.83,179.83 
		178.97,149.83 157.18,128.59 187.29,124.22 	"/>
	<polygon class="st1" points="138.58,180.15 147.32,197.86 166.86,200.7 152.72,214.48 156.06,233.94 138.58,224.75 121.11,233.94 
		124.45,214.48 110.31,200.7 129.85,197.86 	"/>
	<polygon class="st1" points="268.68,180.15 277.42,197.86 296.95,200.7 282.82,214.48 286.15,233.94 268.68,224.75 251.2,233.94 
		254.54,214.48 240.4,200.7 259.94,197.86 	"/>
	<circle class="st2" cx="201.77" cy="213.97" r="121.96"/>
	<circle class="st3" cx="200.82" cy="200.58" r="121.96"/>
	<g>
		<path class="st3" d="M195.05,643.3c-0.63-0.56-0.95-1.54-0.95-2.96v-5.69h-17.59c-1.75,0-2.63-0.85-2.63-2.55v-6.72
			c0-1.12,0.1-1.95,0.29-2.48c0.19-0.54,0.66-1.24,1.39-2.12l19.86-23.94c0.83-0.97,1.51-1.61,2.04-1.9
			c0.54-0.29,1.46-0.44,2.77-0.44h7.01c1.61,0,2.74,0.34,3.39,1.02c0.66,0.68,0.99,1.73,0.99,3.14v23.58h2.77
			c1.56,0,2.62,0.33,3.18,0.99c0.56,0.66,0.84,1.71,0.84,3.17v4.09c0,1.46-0.28,2.52-0.84,3.18c-0.56,0.66-1.62,0.99-3.18,0.99
			h-2.77v5.69c0,1.41-0.33,2.4-0.99,2.96c-0.66,0.56-1.81,0.84-3.47,0.84h-8.69C196.82,644.14,195.68,643.86,195.05,643.3z
			 M197.97,622.24v-9.56l-7.01,9.56H197.97z"/>
	</g>
	<g>
		<g>
			<g>
				<path class="st26" d="M279.32,226.29c0,3.33-2.73,6.05-6.05,6.05H150.84c-3.33,0-6.05-2.72-6.05-6.05V155.4
					c0-3.31,2.72-6.04,6.05-6.04h122.42c3.33,0,6.05,2.72,6.05,6.04V226.29z"/>
				<path class="st27" d="M278.72,149.36h-60.56h-61.87c-3.33,0-6.05,2.72-6.05,6.04v70.89c0,3.33,2.72,6.05,6.05,6.05h61.87h60.56
					c3.32,0,6.04-2.72,6.04-6.05V155.4C284.76,152.09,282.04,149.36,278.72,149.36z"/>
				<path class="st28" d="M273.27,149.36h-60.56h-61.87c-3.33,0-6.05,2.72-6.05,6.04v70.89c0,3.33,2.72,6.05,6.05,6.05h61.87h60.56
					c3.33,0,6.05-2.72,6.05-6.05V155.4C279.32,152.09,276.59,149.36,273.27,149.36z"/>
				<path class="st29" d="M270.83,154.76h-58.12h-59.43c-1.99,0-3.63,1.65-3.63,3.64v64.9c0,2,1.64,3.63,3.63,3.63h59.43h58.12
					c1.99,0,3.63-1.63,3.63-3.63v-64.9C274.46,156.41,272.82,154.76,270.83,154.76z"/>
			</g>
			<g>
				<path class="st27" d="M216.13,232.34v12.33h66.97c6.02,0,10.9-4.88,10.9-10.9v-1.43H216.13z"/>
				<path class="st30" d="M133.53,232.34v1.43c0,6.02,4.88,10.9,10.9,10.9h68.28v-12.33H133.53z"/>
			</g>
			<path class="st31" d="M178.14,232.34H98.95v1.43c0,6.02,4.88,10.9,10.91,10.9h68.28h66.97c6.02,0,10.9-4.88,10.9-10.9v-1.43
				H178.14z"/>
		</g>
		<g>
			<g>
				<rect x="155.92" y="171.53" class="st34" width="9.57" height="8.41"/>
				<rect x="168.55" y="171.53" class="st35" width="46.21" height="8.41"/>
			</g>
			<g>
				<rect x="155.92" y="182.28" class="st25" width="9.57" height="8.42"/>
				<rect x="168.55" y="182.28" class="st35" width="46.21" height="8.42"/>
			</g>
			<g>
				<rect x="155.92" y="193.03" class="st32" width="9.57" height="8.42"/>
				<rect x="168.55" y="193.03" class="st35" width="46.21" height="8.42"/>
			</g>
			<g>
				<rect x="155.92" y="203.77" class="st33" width="9.57" height="8.42"/>
				<rect x="168.55" y="203.77" class="st35" width="46.21" height="8.42"/>
			</g>
		</g>
		<g>
			<path class="st167" d="M225.95,165.24c-1.12,0-2.03,0.91-2.03,2.03v46.72c0,1.12,0.91,2.03,2.03,2.03h35.89
				c1.12,0,2.03-0.91,2.03-2.03v-37.68l-13.14-11.06H225.95z"/>
			<path class="st168" d="M250.67,165.24v7.79c0,0,0,2.2,3.22,3.05l9.99,0.17L250.67,165.24z"/>
		</g>
		<g>
			<polygon class="st25" points="243.49,189.97 256.26,189.97 249.87,198.94 243.49,207.9 237.11,198.94 230.73,189.97 			"/>
			<rect x="236.48" y="179.46" class="st25" width="13.6" height="13.6"/>
		</g>
	</g>
</g>
</svg>
