<?xml version="1.0" encoding="utf-8"?>
<!-- Generator: Adobe Illustrator 23.0.0, SVG Export Plug-In . SVG Version: 6.00 Build 0)  -->
<svg version="1.1" id="Capa_1" xmlns="http://www.w3.org/2000/svg" xmlns:xlink="http://www.w3.org/1999/xlink" x="0px" y="0px"
	 viewBox="0 0 400 702" style="enable-background:new 0 0 400 702;" xml:space="preserve">
<style type="text/css">
	.st0{fill:#0085B0;}
	.st1{fill:#E0EF18;}
	.st2{fill:#CECECE;}
	.st3{fill:#FFFFFF;}
	.st4{fill:#F2F2F2;}
	.st5{fill:#EACCB0;}
	.st6{fill:#9B9B9B;}
	.st7{fill:#939393;}
	.st8{fill:#EFEFEF;}
	.st9{fill:#828282;}
	.st10{fill:#2C2A2D;}
	.st11{fill:#202021;}
	.st12{fill:#F2D4B6;}
	.st13{fill:#534D46;}
	.st14{fill:#E8D313;}
	.st15{fill:#2ACCFF;}
	.st16{fill:#4E4F4F;}
	.st17{fill:#003A94;}
	.st18{fill:#00D13C;}
	.st19{fill:#15682A;}
	.st20{fill:#D40000;}
	.st21{fill:#505050;}
	.st22{fill:#DFDFDF;}
	.st23{fill:none;}
	.st24{fill:#636363;}
	.st25{fill:#6C92D5;}
	.st26{fill:#22272F;}
	.st27{fill:#1B2538;}
	.st28{fill:#253452;}
	.st29{fill:#F9F9F9;}
	.st30{fill:#2D3543;}
	.st31{fill:#2A3D60;}
	.st32{fill:#587955;}
	.st33{fill:#CD7054;}
	.st34{fill:#F1CC4B;}
	.st35{fill:#ACACAC;}
	.st36{fill:#AAE528;}
	.st37{fill:#28CEBA;}
	.st38{fill:#DB143F;}
	.st39{fill:#53C2C9;}
	.st40{fill:#FFB412;}
	.st41{fill:#866A5E;}
	.st42{fill:#F7DDCB;}
	.st43{fill:#FFE6D4;}
	.st44{fill:#F5F5F5;}
	.st45{fill:#1A2830;}
	.st46{fill:#24353F;}
	.st47{fill:#132026;}
	.st48{fill:#F9FF03;}
	.st49{fill:#272728;}
	.st50{fill:#1E1D1E;}
	.st51{fill:#160423;}
	.st52{fill-rule:evenodd;clip-rule:evenodd;fill:#FFFFFF;}
	.st53{fill-rule:evenodd;clip-rule:evenodd;fill:#1996B8;}
	.st54{fill:#0C387D;}
	.st55{fill:#C69A81;}
	.st56{fill:#D1A385;}
	.st57{fill:#EAEAEA;}
	.st58{fill:#093E8C;}
	.st59{fill:#0B2A62;}
	.st60{fill:#D32A3B;}
	.st61{fill:#827C7D;}
	.st62{opacity:0.7;fill:#7F7F7F;}
	.st63{fill:#FDFDFD;}
	.st64{fill:#DAA449;}
	.st65{fill:#DD9225;}
	.st66{opacity:0.3;}
	.st67{fill:#425793;}
	.st68{opacity:0.8;}
	.st69{filter:url(#Adobe_OpacityMaskFilter);}
	.st70{opacity:0.15;mask:url(#SVGID_1_);}
	.st71{fill:#090B00;}
	.st72{opacity:0.1;}
	.st73{fill:#211915;}
	.st74{filter:url(#Adobe_OpacityMaskFilter_1_);}
	.st75{opacity:0.15;mask:url(#SVGID_2_);}
	.st76{fill:#AF3623;}
	.st77{filter:url(#Adobe_OpacityMaskFilter_2_);}
	.st78{opacity:0.15;mask:url(#SVGID_3_);}
	.st79{filter:url(#Adobe_OpacityMaskFilter_3_);}
	.st80{opacity:0.15;mask:url(#SVGID_4_);}
	.st81{fill:#456495;}
	.st82{filter:url(#Adobe_OpacityMaskFilter_4_);}
	.st83{opacity:0.15;mask:url(#SVGID_5_);}
	.st84{filter:url(#Adobe_OpacityMaskFilter_5_);}
	.st85{opacity:0.15;mask:url(#SVGID_6_);}
	.st86{fill:#76A9DA;}
	.st87{filter:url(#Adobe_OpacityMaskFilter_6_);}
	.st88{opacity:0.15;mask:url(#SVGID_7_);}
	.st89{filter:url(#Adobe_OpacityMaskFilter_7_);}
	.st90{opacity:0.15;mask:url(#SVGID_8_);}
	.st91{fill:#1F3642;}
	.st92{fill:#A9BDDA;}
	.st93{opacity:0.46;fill:#A6B4BC;}
	.st94{fill:#74C475;}
	.st95{fill:#221F21;}
	.st96{fill:#2D2D2D;}
	.st97{fill:#1C1B1A;}
	.st98{fill:#77181C;}
	.st99{fill:#262525;}
	.st100{fill:#11100F;}
	.st101{opacity:0.18;}
	.st102{opacity:0.38;}
	.st103{fill:#0A5B1F;}
	.st104{opacity:0.27;}
	.st105{opacity:0.48;}
	.st106{fill:#0A4654;}
	.st107{fill:#C2C6C6;}
	.st108{fill:#E5E5E5;stroke:#FFFFFF;stroke-miterlimit:10;}
	.st109{fill:#ACB4B5;}
	.st110{fill:#7F8384;}
	.st111{fill:#15772F;}
	.st112{fill:#F4F4F4;}
	.st113{fill:#53B8DB;}
	.st114{fill:#06EF42;}
	.st115{fill:#E7ED07;}
	.st116{fill:#CCCCCA;}
	.st117{fill:#EADF13;}
	.st118{fill:#C2C2C2;}
	.st119{fill:#85B681;}
	.st120{fill:#A1DC9B;}
	.st121{fill:#90C58B;}
	.st122{fill:#22241F;}
	.st123{opacity:0.5;}
	.st124{fill:#A2CADE;}
	.st125{fill:#E9E9E9;}
	.st126{fill:#D9D9D9;}
	.st127{fill:#CDCDCD;}
	.st128{opacity:0.34;fill:#F0F0F0;}
	.st129{fill:#5A5B5A;}
	.st130{fill:#FFE600;}
	.st131{fill:#DB1F59;}
	.st132{fill:#727272;}
	.st133{fill:#207235;}
	.st134{fill:#A3A3A3;}
	.st135{fill:#BCBCBC;}
	.st136{fill:#0A511C;}
	.st137{fill:#F9FF00;}
	.st138{fill:#D59F6D;}
	.st139{fill:#C0804A;}
	.st140{fill:#E6BA8A;}
	.st141{fill:#BE3ACC;}
	.st142{fill:#FFFFFF;stroke:#443F0C;stroke-width:9;stroke-miterlimit:10;}
	.st143{fill:none;stroke:#443F0C;stroke-width:9;stroke-miterlimit:10;}
	.st144{fill:#170623;}
	.st145{fill:#158231;}
	.st146{fill:#C89D76;}
	.st147{opacity:0.4;}
	.st148{fill:#ADADAD;}
	.st149{fill:#EDC3A6;}
	.st150{opacity:0.69;}
	.st151{fill:#E5D3D6;}
	.st152{opacity:0.44;}
	.st153{fill:#A5A5A5;}
	.st154{fill:#DDE5E4;}
	.st155{fill:#5C9169;}
	.st156{fill:#934215;}
	.st157{fill:#47413B;}
	.st158{fill:#601A1F;}
	.st159{fill:#044554;}
	.st160{opacity:0.7;}
	.st161{fill:#7F7F7F;}
	.st162{fill:#6B8A69;}
	.st163{opacity:0.24;fill:#848D90;}
	.st164{opacity:0.4;fill:#848D90;}
	.st165{fill:#F2D5D5;}
	.st166{fill:#485CC1;}
	.st167{fill:#C6CBE0;}
	.st168{fill:#8B909E;}
	.st169{fill:#53BC1B;}
	.st170{fill:#11565B;}
	.st171{fill:#67A06D;}
	.st172{fill:#FFEC00;}
	.st173{fill:#77A007;}
	.st174{fill:#E50731;}
	.st175{fill:#266472;}
	.st176{fill:#D4D4D4;}
	.st177{fill:#0E9932;}
	.st178{fill:#87DD24;}
	.st179{fill:#76A172;}
	.st180{fill:#62835F;}
	.st181{fill:#96D090;}
	.st182{fill:#D6D6D6;}
	.st183{fill:#606060;}
	.st184{fill:#494949;}
	.st185{fill:#29E55A;}
	.st186{fill:#2C703D;}
	.st187{fill:#DD0744;}
	.st188{fill:#EDEDED;}
	.st189{fill:#2A5936;}
	.st190{fill:#B9BBC1;}
	.st191{fill:#FFD79E;}
	.st192{fill:#FFE6C2;}
	.st193{fill:#2CBB55;}
	.st194{fill:#5C412D;}
	.st195{fill:#EC0000;}
	.st196{fill:#DD2626;}
	.st197{fill:#EA9334;}
	.st198{fill:#FCC232;}
	.st199{fill:#F9B234;}
	.st200{fill:#F7A037;}
	.st201{fill:#E0E0E0;}
</style>
<g>
	<g>
		<path class="st18" d="M9.5,209.36c0,22,13.29,27.86,29.54,13.03c0,0,156.99-143.3,353.09,26.97V55c0-22-18-40-40-40H49.5
			c-22,0-40,18-40,40V209.36z"/>
	</g>
	<g>
		<path class="st18" d="M391.66,647c0,22-18,40-40,40H49.98c-22,0-40-18-40-40v-46.27c0-22,18-40,40-40h301.68c22,0,40,18,40,40V647
			z"/>
	</g>
	<g>
		<path d="M112.99,383.9c-2.76-2.45-4.14-6.07-4.14-10.89c0-4.78,1.38-8.4,4.14-10.87c2.76-2.46,6.62-3.69,11.56-3.69
			c2.24,0,4.25,0.22,6.03,0.66c1.78,0.44,3.25,1.05,4.43,1.84c0.33,0.25,0.49,0.52,0.49,0.82c0,0.25-0.12,0.59-0.37,1.02l-2.05,3.53
			c-0.22,0.38-0.48,0.57-0.78,0.57c-0.19,0-0.51-0.11-0.94-0.33c-1.64-0.82-3.44-1.23-5.41-1.23c-2.27,0-4.05,0.65-5.35,1.95
			c-1.3,1.3-1.95,3.21-1.95,5.72c0,2.6,0.55,4.52,1.64,5.76c1.09,1.24,2.72,1.87,4.88,1.87c0.38,0,0.81-0.03,1.29-0.1
			s0.87-0.14,1.17-0.23v-3.73H125c-0.88,0-1.47-0.17-1.78-0.51c-0.31-0.34-0.47-0.92-0.47-1.74v-2.25c0-0.82,0.16-1.4,0.47-1.74
			c0.31-0.34,0.91-0.51,1.78-0.51h8.81c1.07,0,1.8,0.24,2.21,0.72c0.41,0.48,0.62,1.24,0.62,2.28v9.59c0,0.6-0.08,1.06-0.23,1.37
			c-0.15,0.31-0.44,0.64-0.88,0.96c-2.62,1.89-6.27,2.83-10.95,2.83C119.62,387.57,115.75,386.34,112.99,383.9z"/>
		<path d="M139.25,386.38c-0.37-0.38-0.55-0.97-0.55-1.76v-23.21c0-0.79,0.19-1.38,0.55-1.76c0.37-0.38,1-0.57,1.91-0.57h16.97
			c0.87,0,1.47,0.18,1.78,0.55c0.31,0.37,0.47,0.96,0.47,1.78v2.3c0,0.82-0.16,1.41-0.47,1.78c-0.31,0.37-0.91,0.55-1.78,0.55h-9.59
			v3.53h5.9c0.88,0,1.47,0.18,1.78,0.55c0.31,0.37,0.47,0.96,0.47,1.78v2.21c0,0.82-0.16,1.41-0.47,1.78s-0.91,0.55-1.78,0.55h-5.9
			v3.53h9.55c0.87,0,1.47,0.18,1.78,0.55c0.31,0.37,0.47,0.96,0.47,1.78v2.3c0,0.82-0.16,1.41-0.47,1.78
			c-0.31,0.37-0.91,0.55-1.78,0.55h-16.93C140.25,386.95,139.62,386.76,139.25,386.38z"/>
		<path d="M167.43,386.79c-2.13-0.52-3.85-1.24-5.17-2.17c-0.55-0.38-0.82-0.75-0.82-1.11c0-0.25,0.1-0.5,0.29-0.78l2.38-3.73
			c0.25-0.35,0.49-0.53,0.74-0.53c0.22,0,0.48,0.1,0.78,0.29c0.98,0.6,2.11,1.07,3.38,1.42s2.51,0.51,3.71,0.51
			c1.01,0,1.74-0.14,2.19-0.41s0.68-0.7,0.68-1.27c0-0.63-0.3-1.13-0.9-1.52c-0.6-0.38-1.64-0.86-3.12-1.44
			c-2.76-1.07-4.93-2.28-6.52-3.63c-1.59-1.35-2.38-3.15-2.38-5.39c0-2.84,0.99-4.98,2.97-6.42c1.98-1.43,4.65-2.15,8.02-2.15
			c2.35,0,4.35,0.21,6.01,0.62c1.65,0.41,3.1,1.05,4.33,1.93c0.55,0.38,0.82,0.75,0.82,1.11c0,0.25-0.1,0.51-0.29,0.78l-2.38,3.73
			c-0.25,0.38-0.49,0.57-0.74,0.57c-0.16,0-0.42-0.11-0.78-0.33c-0.66-0.44-1.44-0.8-2.34-1.09s-1.87-0.43-2.91-0.43
			c-0.96,0-1.68,0.14-2.17,0.41c-0.49,0.27-0.74,0.71-0.74,1.31c0,0.49,0.17,0.9,0.51,1.23s0.77,0.61,1.29,0.84
			c0.52,0.23,1.42,0.61,2.71,1.13c2.05,0.82,3.66,1.61,4.84,2.36c1.17,0.75,2.06,1.65,2.67,2.71c0.6,1.05,0.9,2.38,0.9,4
			c0,2.46-0.92,4.45-2.77,5.97c-1.85,1.52-4.6,2.28-8.26,2.28C171.88,387.57,169.57,387.31,167.43,386.79z"/>
		<path d="M193.49,386.38c-0.37-0.38-0.55-0.97-0.55-1.76v-18.57h-5.9c-0.88,0-1.47-0.18-1.78-0.55c-0.31-0.37-0.47-0.96-0.47-1.78
			v-2.3c0-0.82,0.16-1.42,0.47-1.78c0.31-0.37,0.91-0.55,1.78-0.55h21.65c0.88,0,1.47,0.18,1.78,0.55c0.31,0.37,0.47,0.96,0.47,1.78
			v2.3c0,0.82-0.16,1.41-0.47,1.78s-0.91,0.55-1.78,0.55h-5.9v18.57c0,0.79-0.18,1.38-0.55,1.76c-0.37,0.38-1.02,0.57-1.95,0.57
			h-4.88C194.49,386.95,193.86,386.76,193.49,386.38z"/>
		<path d="M212.72,386.38c-0.37-0.38-0.55-0.97-0.55-1.76v-23.21c0-0.79,0.19-1.38,0.55-1.76c0.37-0.38,1-0.57,1.91-0.57h4.88
			c0.93,0,1.58,0.18,1.95,0.55c0.37,0.37,0.55,0.96,0.55,1.78v23.21c0,0.79-0.18,1.38-0.55,1.76c-0.37,0.38-1.02,0.57-1.95,0.57
			h-4.88C213.72,386.95,213.09,386.76,212.72,386.38z"/>
		<path d="M227.83,383.77c-2.51-2.53-3.77-6.12-3.77-10.76c0-4.65,1.26-8.23,3.77-10.76s6.21-3.79,11.07-3.79s8.55,1.26,11.07,3.79
			c2.51,2.53,3.77,6.12,3.77,10.76c0,4.65-1.26,8.24-3.77,10.76c-2.52,2.53-6.21,3.79-11.07,3.79S230.34,386.3,227.83,383.77z
			 M242.75,378.77c0.79-1.27,1.19-3.19,1.19-5.76c0-2.6-0.4-4.52-1.19-5.78s-2.08-1.89-3.85-1.89c-1.78,0-3.06,0.63-3.85,1.89
			c-0.79,1.26-1.19,3.18-1.19,5.78c0,2.57,0.4,4.49,1.19,5.76c0.79,1.27,2.08,1.91,3.85,1.91
			C240.67,380.68,241.96,380.04,242.75,378.77z M234.55,355.63c0-0.22,0.04-0.45,0.12-0.7l1.72-4.76c0.22-0.63,0.48-1.05,0.78-1.27
			s0.86-0.33,1.68-0.33h5.86c0.57,0,1.03,0.1,1.35,0.31c0.33,0.21,0.49,0.5,0.49,0.88c0,0.33-0.11,0.67-0.33,1.02l-2.62,4.43
			c-0.38,0.66-0.75,1.08-1.11,1.27c-0.36,0.19-1,0.29-1.93,0.29h-4.39C235.1,356.78,234.55,356.39,234.55,355.63z"/>
		<path d="M256.34,386.38c-0.37-0.38-0.55-0.97-0.55-1.76v-23.25c0-0.79,0.18-1.37,0.55-1.74c0.37-0.37,1.02-0.55,1.95-0.55h3.9
			c0.57,0,1.02,0.08,1.33,0.23c0.31,0.15,0.62,0.44,0.92,0.88l7.42,11.03v-9.8c0-0.79,0.18-1.38,0.55-1.76s1-0.57,1.91-0.57h4.88
			c0.93,0,1.58,0.18,1.95,0.55c0.37,0.37,0.55,0.96,0.55,1.78v23.25c0,0.79-0.19,1.37-0.55,1.74s-1.02,0.55-1.95,0.55h-3.89
			c-0.57,0-1.02-0.08-1.33-0.23c-0.32-0.15-0.62-0.44-0.92-0.88l-7.42-11.03v9.84c0,0.79-0.19,1.37-0.55,1.74
			c-0.37,0.37-1.02,0.55-1.95,0.55h-4.88C257.35,386.95,256.71,386.76,256.34,386.38z"/>
		<path d="M85.39,435.58c-0.37-0.38-0.55-0.97-0.55-1.76v-23.21c0-0.79,0.18-1.38,0.55-1.76s1-0.57,1.91-0.57h9.43
			c9.65,0,14.47,4.65,14.47,13.94c0,4.59-1.24,8.06-3.71,10.41c-2.47,2.35-6.06,3.53-10.76,3.53H87.3
			C86.4,436.15,85.76,435.96,85.39,435.58z M97.1,429.18c1.53,0,2.63-0.51,3.3-1.52c0.67-1.01,1-2.83,1-5.45s-0.33-4.44-1-5.45
			c-0.67-1.01-1.77-1.52-3.3-1.52h-2.42v13.94H97.1z"/>
		<path d="M113.81,435.58c-0.37-0.38-0.55-0.97-0.55-1.76v-23.21c0-0.79,0.18-1.38,0.55-1.76s1-0.57,1.91-0.57h16.97
			c0.88,0,1.47,0.18,1.78,0.55s0.47,0.96,0.47,1.78v2.3c0,0.82-0.16,1.42-0.47,1.78c-0.31,0.37-0.91,0.55-1.78,0.55h-9.59v3.53h5.9
			c0.87,0,1.47,0.18,1.78,0.55c0.31,0.37,0.47,0.96,0.47,1.78v2.21c0,0.82-0.16,1.41-0.47,1.78c-0.31,0.37-0.91,0.55-1.78,0.55h-5.9
			v3.53h9.55c0.88,0,1.47,0.18,1.78,0.55c0.31,0.37,0.47,0.96,0.47,1.78v2.3c0,0.82-0.16,1.41-0.47,1.78s-0.91,0.55-1.78,0.55
			h-16.93C114.81,436.15,114.18,435.96,113.81,435.58z"/>
		<path d="M149.64,435.58c-0.37-0.38-0.55-0.97-0.55-1.76v-23.21c0-0.79,0.19-1.38,0.55-1.76c0.37-0.38,1-0.57,1.91-0.57h9.8
			c4.1,0,7.09,0.81,8.96,2.44c1.87,1.63,2.81,4.08,2.81,7.36s-0.94,5.73-2.81,7.34c-1.87,1.61-4.84,2.42-8.92,2.42h-2.46v5.99
			c0,0.79-0.18,1.38-0.55,1.76c-0.37,0.38-1.02,0.57-1.95,0.57h-4.88C150.64,436.15,150.01,435.96,149.64,435.58z M160.48,420.86
			c0.88,0,1.56-0.23,2.07-0.7c0.51-0.46,0.76-1.16,0.76-2.09c0-0.96-0.25-1.67-0.76-2.13s-1.2-0.7-2.07-0.7h-2.79v5.62H160.48z"/>
		<path d="M174.9,435.58c-0.37-0.38-0.55-0.97-0.55-1.76v-23.21c0-0.79,0.19-1.38,0.55-1.76c0.37-0.38,1-0.57,1.91-0.57h16.97
			c0.87,0,1.47,0.18,1.78,0.55c0.31,0.37,0.47,0.96,0.47,1.78v2.3c0,0.82-0.16,1.42-0.47,1.78c-0.31,0.37-0.91,0.55-1.78,0.55h-9.59
			v3.53h5.9c0.88,0,1.47,0.18,1.78,0.55c0.31,0.37,0.47,0.96,0.47,1.78v2.21c0,0.82-0.16,1.41-0.47,1.78s-0.91,0.55-1.78,0.55h-5.9
			v3.53h9.55c0.87,0,1.47,0.18,1.78,0.55c0.31,0.37,0.47,0.96,0.47,1.78v2.3c0,0.82-0.16,1.41-0.47,1.78
			c-0.31,0.37-0.91,0.55-1.78,0.55H176.8C175.9,436.15,175.26,435.96,174.9,435.58z"/>
		<path d="M198.43,435.58c-0.37-0.38-0.55-0.97-0.55-1.76v-23.21c0-0.79,0.18-1.38,0.55-1.76s1-0.57,1.91-0.57h9.43
			c9.65,0,14.47,4.65,14.47,13.94c0,4.59-1.24,8.06-3.71,10.41c-2.47,2.35-6.06,3.53-10.76,3.53h-9.43
			C199.43,436.15,198.8,435.96,198.43,435.58z M210.13,429.18c1.53,0,2.63-0.51,3.3-1.52c0.67-1.01,1-2.83,1-5.45s-0.33-4.44-1-5.45
			c-0.67-1.01-1.77-1.52-3.3-1.52h-2.42v13.94H210.13z"/>
		<path d="M226.84,435.58c-0.37-0.38-0.55-0.97-0.55-1.76v-23.21c0-0.79,0.18-1.38,0.55-1.76s1-0.57,1.91-0.57h4.88
			c0.93,0,1.58,0.18,1.95,0.55c0.37,0.37,0.55,0.96,0.55,1.78v23.21c0,0.79-0.19,1.38-0.55,1.76c-0.37,0.38-1.02,0.57-1.95,0.57
			h-4.88C227.85,436.15,227.21,435.96,226.84,435.58z"/>
		<path d="M239.55,435.58c-0.37-0.38-0.55-0.97-0.55-1.76v-23.21c0-0.79,0.19-1.38,0.55-1.76c0.37-0.38,1-0.57,1.91-0.57h9.43
			c9.65,0,14.47,4.65,14.47,13.94c0,4.59-1.24,8.06-3.71,10.41c-2.47,2.35-6.06,3.53-10.76,3.53h-9.43
			C240.56,436.15,239.92,435.96,239.55,435.58z M251.26,429.18c1.53,0,2.63-0.51,3.3-1.52c0.67-1.01,1-2.83,1-5.45
			s-0.33-4.44-1-5.45c-0.67-1.01-1.77-1.52-3.3-1.52h-2.42v13.94H251.26z"/>
		<path d="M270.36,432.97c-2.51-2.53-3.77-6.12-3.77-10.76c0-4.65,1.26-8.23,3.77-10.76s6.21-3.79,11.07-3.79s8.55,1.26,11.07,3.79
			c2.51,2.53,3.77,6.12,3.77,10.76c0,4.65-1.26,8.24-3.77,10.76c-2.52,2.53-6.21,3.79-11.07,3.79S272.88,435.5,270.36,432.97z
			 M285.29,427.97c0.79-1.27,1.19-3.19,1.19-5.76c0-2.6-0.4-4.52-1.19-5.78s-2.08-1.89-3.85-1.89c-1.78,0-3.06,0.63-3.85,1.89
			c-0.79,1.26-1.19,3.18-1.19,5.78c0,2.57,0.4,4.49,1.19,5.76c0.79,1.27,2.08,1.91,3.85,1.91
			C283.21,429.88,284.49,429.24,285.29,427.97z"/>
		<path d="M301.69,435.99c-2.13-0.52-3.85-1.24-5.17-2.17c-0.55-0.38-0.82-0.75-0.82-1.11c0-0.25,0.1-0.5,0.29-0.78l2.38-3.73
			c0.25-0.35,0.49-0.53,0.74-0.53c0.22,0,0.48,0.1,0.78,0.29c0.98,0.6,2.11,1.07,3.38,1.42c1.27,0.34,2.51,0.51,3.71,0.51
			c1.01,0,1.74-0.14,2.19-0.41s0.68-0.7,0.68-1.27c0-0.63-0.3-1.13-0.9-1.52c-0.6-0.38-1.64-0.86-3.12-1.44
			c-2.76-1.07-4.93-2.28-6.52-3.63c-1.59-1.35-2.38-3.15-2.38-5.39c0-2.84,0.99-4.98,2.97-6.42c1.98-1.43,4.65-2.15,8.02-2.15
			c2.35,0,4.35,0.21,6.01,0.62s3.1,1.05,4.33,1.93c0.55,0.38,0.82,0.75,0.82,1.11c0,0.25-0.1,0.51-0.29,0.78l-2.38,3.73
			c-0.25,0.38-0.49,0.57-0.74,0.57c-0.16,0-0.42-0.11-0.78-0.33c-0.66-0.44-1.43-0.8-2.34-1.09s-1.87-0.43-2.91-0.43
			c-0.96,0-1.68,0.14-2.17,0.41c-0.49,0.27-0.74,0.71-0.74,1.31c0,0.49,0.17,0.9,0.51,1.23s0.77,0.61,1.29,0.84
			c0.52,0.23,1.42,0.61,2.71,1.13c2.05,0.82,3.66,1.61,4.84,2.36s2.06,1.65,2.67,2.71c0.6,1.05,0.9,2.38,0.9,4
			c0,2.46-0.92,4.45-2.77,5.97c-1.84,1.52-4.6,2.28-8.26,2.28C306.13,436.77,303.82,436.51,301.69,435.99z"/>
		<path d="M95.99,484.78c-0.37-0.38-0.55-0.97-0.55-1.76v-7.42l-9.55-16.36c-0.16-0.3-0.25-0.59-0.25-0.86c0-0.6,0.31-0.9,0.94-0.9
			h7.71c0.41,0,0.72,0.09,0.94,0.27c0.22,0.18,0.44,0.46,0.66,0.84l4.47,8.04l4.47-8.04c0.22-0.38,0.44-0.66,0.66-0.84
			c0.22-0.18,0.53-0.27,0.94-0.27h7.71c0.63,0,0.94,0.3,0.94,0.9c0,0.27-0.08,0.56-0.25,0.86l-9.55,16.36v7.42
			c0,0.79-0.19,1.38-0.55,1.76c-0.37,0.38-1.02,0.57-1.95,0.57H97.9C97,485.35,96.36,485.16,95.99,484.78z"/>
		<path d="M132.79,482.3c-2.76-2.45-4.14-6.07-4.14-10.89c0-4.84,1.33-8.47,4-10.91s6.47-3.65,11.42-3.65
			c2.24,0,4.24,0.22,5.99,0.66c1.75,0.44,3.21,1.05,4.39,1.84c0.33,0.25,0.49,0.52,0.49,0.82c0,0.25-0.12,0.59-0.37,1.02l-2.05,3.53
			c-0.22,0.38-0.48,0.57-0.78,0.57c-0.19,0-0.51-0.11-0.94-0.33c-0.77-0.38-1.57-0.68-2.4-0.9c-0.83-0.22-1.81-0.33-2.93-0.33
			c-2.27,0-4,0.66-5.21,1.97c-1.2,1.31-1.8,3.21-1.8,5.7c0,2.46,0.66,4.35,1.97,5.68c1.31,1.33,3.1,1.99,5.37,1.99
			c1.97,0,3.77-0.41,5.41-1.23c0.44-0.22,0.75-0.33,0.94-0.33c0.3,0,0.56,0.19,0.78,0.57l2.05,3.53c0.25,0.44,0.37,0.78,0.37,1.03
			c0,0.3-0.16,0.57-0.49,0.82c-1.18,0.79-2.65,1.41-4.43,1.84c-1.78,0.44-3.79,0.66-6.03,0.66
			C139.42,485.97,135.55,484.74,132.79,482.3z"/>
		<path d="M158.5,482.17c-2.51-2.53-3.77-6.12-3.77-10.76c0-4.65,1.26-8.23,3.77-10.76s6.21-3.79,11.07-3.79s8.55,1.26,11.07,3.79
			c2.51,2.53,3.77,6.12,3.77,10.76c0,4.65-1.26,8.24-3.77,10.76c-2.52,2.53-6.21,3.79-11.07,3.79S161.01,484.7,158.5,482.17z
			 M173.42,477.17c0.79-1.27,1.19-3.19,1.19-5.76c0-2.6-0.4-4.52-1.19-5.78s-2.08-1.89-3.85-1.89c-1.78,0-3.06,0.63-3.85,1.89
			c-0.79,1.26-1.19,3.18-1.19,5.78c0,2.57,0.4,4.49,1.19,5.76c0.79,1.27,2.08,1.91,3.85,1.91
			C171.34,479.08,172.63,478.44,173.42,477.17z"/>
		<path d="M185.58,484.78c-0.37-0.38-0.55-0.97-0.55-1.76v-23.25c0-0.79,0.19-1.37,0.55-1.74c0.37-0.37,1.02-0.55,1.95-0.55h4.71
			c0.6,0,1.08,0.08,1.43,0.23c0.35,0.15,0.63,0.44,0.82,0.88l4.8,12.01l4.8-12.01c0.19-0.44,0.46-0.73,0.82-0.88
			s0.83-0.23,1.44-0.23h4.71c0.93,0,1.58,0.18,1.95,0.55s0.55,0.95,0.55,1.74v23.25c0,0.79-0.19,1.38-0.55,1.76
			c-0.37,0.38-1,0.57-1.91,0.57h-3.94c-0.9,0-1.54-0.19-1.93-0.57c-0.38-0.38-0.57-0.97-0.57-1.76v-11.19l-2.42,5.58
			c-0.33,0.79-0.68,1.36-1.07,1.7c-0.38,0.34-1.01,0.51-1.89,0.51c-0.88,0-1.5-0.17-1.89-0.51c-0.38-0.34-0.74-0.91-1.07-1.7
			l-2.42-5.58v11.19c0,0.79-0.18,1.38-0.55,1.76c-0.37,0.38-1.02,0.57-1.95,0.57h-3.94C186.58,485.35,185.95,485.16,185.58,484.78z"
			/>
		<path d="M216.98,484.78c-0.37-0.38-0.55-0.97-0.55-1.76v-23.21c0-0.79,0.18-1.38,0.55-1.76c0.37-0.38,1.01-0.57,1.91-0.57h9.8
			c4.1,0,7.09,0.81,8.96,2.44c1.87,1.63,2.81,4.08,2.81,7.36s-0.94,5.73-2.81,7.34c-1.87,1.61-4.84,2.42-8.92,2.42h-2.46v5.99
			c0,0.79-0.18,1.38-0.55,1.76c-0.37,0.38-1.02,0.57-1.95,0.57h-4.88C217.99,485.35,217.35,485.16,216.98,484.78z M227.83,470.06
			c0.87,0,1.56-0.23,2.07-0.7c0.51-0.46,0.76-1.16,0.76-2.09c0-0.96-0.25-1.67-0.76-2.13s-1.2-0.7-2.07-0.7h-2.79v5.62H227.83z"/>
		<path d="M242.24,484.78c-0.37-0.38-0.55-0.97-0.55-1.76v-23.21c0-0.79,0.18-1.38,0.55-1.76c0.37-0.38,1.01-0.57,1.91-0.57h9.8
			c4.1,0,7.09,0.81,8.96,2.44c1.87,1.63,2.81,4.08,2.81,7.36c0,1.97-0.33,3.63-1,4.98c-0.67,1.35-1.7,2.41-3.1,3.18l3.81,8.16
			c0.11,0.22,0.16,0.46,0.16,0.74c0,0.3-0.1,0.55-0.31,0.74c-0.21,0.19-0.47,0.29-0.8,0.29h-6.93c-0.44,0-0.79-0.06-1.05-0.18
			s-0.44-0.33-0.55-0.64l-3.03-7.63h-1.39v6.11c0,0.79-0.18,1.38-0.55,1.76c-0.37,0.38-1.02,0.57-1.95,0.57h-4.88
			C243.24,485.35,242.61,485.16,242.24,484.78z M253.08,470.06c0.87,0,1.56-0.23,2.07-0.7c0.51-0.46,0.76-1.16,0.76-2.09
			c0-0.96-0.25-1.67-0.76-2.13s-1.2-0.7-2.07-0.7h-2.79v5.62H253.08z"/>
		<path d="M265.1,484.49c0-0.25,0.07-0.55,0.21-0.9l10.21-24.56c0.25-0.57,0.53-0.98,0.84-1.21c0.31-0.23,0.76-0.35,1.33-0.35h4.47
			c0.57,0,1.02,0.12,1.33,0.35s0.59,0.63,0.84,1.21l10.17,24.56c0.14,0.36,0.2,0.66,0.2,0.9c0,0.57-0.3,0.86-0.9,0.86h-7.71
			c-0.85,0-1.38-0.37-1.6-1.11l-0.98-3.03h-7.26l-0.94,3.03c-0.22,0.74-0.75,1.11-1.6,1.11H266
			C265.4,485.35,265.1,485.07,265.1,484.49z M281.5,474.73l-1.6-5.08l-1.6,5.08H281.5z"/>
		<path d="M300.11,485.19c-2.13-0.52-3.85-1.24-5.17-2.17c-0.55-0.38-0.82-0.75-0.82-1.11c0-0.25,0.1-0.5,0.29-0.78l2.38-3.73
			c0.25-0.35,0.49-0.53,0.74-0.53c0.22,0,0.48,0.1,0.78,0.29c0.98,0.6,2.11,1.07,3.38,1.42s2.51,0.51,3.71,0.51
			c1.01,0,1.74-0.14,2.19-0.41s0.68-0.7,0.68-1.27c0-0.63-0.3-1.13-0.9-1.52c-0.6-0.38-1.64-0.86-3.12-1.44
			c-2.76-1.07-4.93-2.28-6.52-3.63c-1.59-1.35-2.38-3.15-2.38-5.39c0-2.84,0.99-4.98,2.97-6.42c1.98-1.43,4.65-2.15,8.02-2.15
			c2.35,0,4.35,0.21,6.01,0.62c1.65,0.41,3.1,1.05,4.33,1.93c0.55,0.38,0.82,0.75,0.82,1.11c0,0.25-0.1,0.51-0.29,0.78l-2.38,3.73
			c-0.25,0.38-0.49,0.57-0.74,0.57c-0.16,0-0.42-0.11-0.78-0.33c-0.66-0.44-1.44-0.8-2.34-1.09s-1.87-0.43-2.91-0.43
			c-0.96,0-1.68,0.14-2.17,0.41c-0.49,0.27-0.74,0.71-0.74,1.31c0,0.49,0.17,0.9,0.51,1.23s0.77,0.61,1.29,0.84
			c0.52,0.23,1.42,0.61,2.71,1.13c2.05,0.82,3.66,1.61,4.84,2.36c1.17,0.75,2.06,1.65,2.67,2.71c0.6,1.05,0.9,2.38,0.9,4
			c0,2.46-0.92,4.45-2.77,5.97c-1.85,1.52-4.6,2.28-8.26,2.28C304.55,485.97,302.24,485.71,300.11,485.19z"/>
	</g>
	<polygon class="st1" points="200.76,96.93 214.23,124.22 244.34,128.59 222.55,149.83 227.7,179.83 200.76,165.67 173.83,179.83 
		178.97,149.83 157.18,128.59 187.29,124.22 	"/>
	<polygon class="st1" points="138.58,180.15 147.32,197.86 166.86,200.7 152.72,214.48 156.06,233.94 138.58,224.75 121.11,233.94 
		124.45,214.48 110.31,200.7 129.85,197.86 	"/>
	<polygon class="st1" points="268.68,180.15 277.42,197.86 296.95,200.7 282.82,214.48 286.15,233.94 268.68,224.75 251.2,233.94 
		254.54,214.48 240.4,200.7 259.94,197.86 	"/>
	<circle class="st2" cx="201.77" cy="213.97" r="121.96"/>
	<circle class="st3" cx="200.82" cy="200.58" r="121.96"/>
	<g>
		<path class="st3" d="M184.17,644.07c-3.43-0.78-6.17-1.87-8.21-3.29c-0.58-0.44-0.88-0.92-0.88-1.46c0-0.44,0.22-1.05,0.66-1.82
			l3.65-6.28c0.39-0.68,0.85-1.02,1.39-1.02c0.34,0,0.9,0.2,1.68,0.58c1.27,0.63,2.81,1.16,4.64,1.57c1.82,0.41,3.64,0.62,5.44,0.62
			c2.43,0,4.25-0.37,5.44-1.09c1.19-0.73,1.79-1.85,1.79-3.36c0-2.34-1.58-3.5-4.75-3.5h-5.62c-1.61,0-2.74-0.34-3.39-1.02
			c-0.66-0.68-0.99-1.73-0.99-3.14v-3.94c0-1.41,0.33-2.46,0.99-3.14c0.66-0.68,1.79-1.02,3.39-1.02h4.45c1.61,0,2.77-0.29,3.5-0.88
			s1.1-1.48,1.1-2.7c0-2.34-2.02-3.5-6.06-3.5c-3.26,0-6.35,0.73-9.27,2.19c-0.78,0.39-1.34,0.58-1.68,0.58
			c-0.54,0-1-0.34-1.39-1.02l-3.65-6.28c-0.44-0.78-0.66-1.39-0.66-1.83c0-0.54,0.29-1.02,0.88-1.46c2.09-1.41,4.7-2.51,7.81-3.29
			c3.11-0.78,6.67-1.17,10.66-1.17c4.23,0,7.92,0.62,11.06,1.86c3.14,1.24,5.55,3,7.23,5.29c1.68,2.29,2.52,4.99,2.52,8.1
			c0,4.28-1.49,7.59-4.45,9.93c3.84,2.24,5.77,5.79,5.77,10.66c0,4.92-1.87,8.81-5.62,11.68c-3.75,2.87-9.15,4.31-16.21,4.31
			C191.34,645.24,187.6,644.85,184.17,644.07z"/>
	</g>
	<g>
		<path class="st62" d="M290.4,232.95l-19.21-24.49c0,0,0-0.02-0.02-0.02c-0.4-0.52-0.95-0.79-1.21-0.6l-0.02,0.02l0,0l-0.1-0.13
			c-0.23-0.32-0.58-0.47-0.75-0.34l-0.12,0.09l-1.1-1.39l-0.41-0.52l0.65-0.48c0.21-0.15,0.2-0.52-0.02-0.81l-0.79-1.07l-1.44-1.94
			c-0.22-0.3-0.57-0.41-0.78-0.25l-0.76,0.57l-1.45-1.83l-1.07-1.36c1-0.82,1.95-1.7,2.83-2.65c2.18-2.34,3.95-5.07,5.2-8.08
			c0.32-0.77,0.61-1.56,0.86-2.36c0.3-0.94,0.54-1.91,0.73-2.88c0.13-0.65,0.23-1.32,0.31-1.98c0.04-0.31,0.07-0.61,0.09-0.92
			c0.02-0.24,0.04-0.48,0.06-0.72c0.01-0.27,0.03-0.53,0.04-0.8c0.02-0.58,0.02-1.15,0-1.72c-0.07-2.29-0.42-4.5-1.02-6.62
			c-0.05-0.21-0.12-0.4-0.18-0.61c-0.18-0.58-0.37-1.14-0.59-1.71c-0.52-1.37-1.15-2.69-1.88-3.94c-2.08-3.59-4.96-6.68-8.41-9
			c-1.72-1.16-3.58-2.14-5.56-2.89c-2.76-1.05-5.74-1.67-8.85-1.77c-4.18-0.13-8.15,0.67-11.74,2.22c-2.21,0.96-4.27,2.19-6.13,3.67
			c-0.22,0.18-0.43,0.37-0.64,0.55v-18.21h-5.77h-39.13c-0.38-5.27-4.74-9.45-10.13-9.45c-0.24,0-0.46,0.05-0.69,0.07
			c-0.23-0.02-0.45-0.07-0.69-0.07c-5.38,0-9.73,4.18-10.11,9.45h-28.97h-5.77v117.75h5.77h24.47c-0.62,2.25-0.63,4.67,0.03,6.99
			l-0.01,0.03c0.02,0.07,0.05,0.13,0.07,0.2c0.1,0.32,0.21,0.64,0.34,0.96c0.05,0.13,0.1,0.27,0.16,0.4
			c0.18,0.41,0.37,0.81,0.6,1.21c0.02,0.04,0.03,0.07,0.05,0.11l0,0c0.01,0.01,0.01,0.02,0.01,0.03c0.79,1.37,1.8,2.54,2.95,3.49
			l0,0.02c0.05,0.04,0.11,0.07,0.16,0.12c0.41,0.33,0.83,0.64,1.27,0.91c0.01,0.01,0.02,0.01,0.03,0.02
			c0.46,0.28,0.93,0.53,1.42,0.75c0.12,0.05,0.24,0.1,0.36,0.15c0.41,0.17,0.83,0.33,1.26,0.46c0.09,0.03,0.18,0.06,0.27,0.09
			c0.51,0.14,1.02,0.25,1.54,0.34c0.04,0.01,0.07,0.02,0.11,0.02l0-0.01c2.78,0.41,5.7-0.07,8.32-1.58
			c0.36-0.21,0.71-0.44,1.05-0.67c0.38-0.17,0.76-0.36,1.14-0.58c0.73-0.42,1.39-0.89,2.01-1.42c2.21-1.9,3.65-4.44,4.22-7.17
			c0.33-1.58,0.35-3.23,0.07-4.85h20.57l9.06,5.91v5.7c0,1.96,1.59,3.54,3.55,3.54h4.6h9.35h4.6h9.35h4.6
			c1.96,0,3.55-1.59,3.55-3.54v-37.82c0-1.96-1.59-3.55-3.55-3.55h-0.6v-1.36c0-1.66-1.3-2.99-2.94-3.07l0-10.52l-1.23-1.3
			l-0.49,0.51l-0.48-0.51l-1.19,1.26l-1.19-1.26l-0.48,0.51l-0.48-0.51l-0.74,0.78l-4.22-7.76c0.15,0.06,0.3,0.13,0.46,0.18
			c0.01,0,0.01,0.01,0.02,0.01c0.09,0.03,0.19,0.07,0.28,0.1c0.1,0.04,0.19,0.07,0.29,0.1c0.2,0.06,0.4,0.13,0.6,0.19
			c0.04,0.01,0.08,0.02,0.11,0.04c0.11,0.03,0.22,0.05,0.33,0.08c0.68,0.59,1.43,1.12,2.25,1.57c0.37,0.2,0.75,0.39,1.14,0.55
			c0.34,0.23,0.7,0.46,1.07,0.66c0.73,0.4,1.49,0.73,2.26,0.97c2.77,0.89,5.69,0.8,8.32-0.14c1.7-0.61,3.28-1.57,4.61-2.85
			c0.51-0.48,0.97-1.02,1.39-1.6l1.4,2.01l0.25,0.35l-0.76,0.57c-0.21,0.15-0.2,0.52,0.02,0.81l2.24,3
			c0.22,0.29,0.57,0.41,0.77,0.25l0.64-0.48h0l0.11,0.16l0.26,0.38l1.02,1.45l-0.12,0.09c-0.17,0.13-0.13,0.5,0.11,0.82l0.09,0.12
			l-0.02,0.02c-0.26,0.2-0.14,0.81,0.25,1.35l1.31,1.9l16.87,23.36c0.54,0.75,1.21,1.17,1.51,0.95l2.28-1.7l2.66-2l1.84-1.37
			C291.17,234.45,290.97,233.66,290.4,232.95z M174.07,135.62c0,0.93-0.39,1.74-0.98,2.37h-3.73c-0.59-0.63-0.98-1.44-0.98-2.37
			c0-1.71,1.21-3.14,2.84-3.46C172.84,132.47,174.07,133.9,174.07,135.62z M264.06,165.63
			C264.06,165.63,264.06,165.63,264.06,165.63c0.07,0.11,0.13,0.22,0.19,0.32c0.25,0.44,0.49,0.89,0.71,1.35
			c0.75,1.56,1.33,3.22,1.71,4.95c0.4,1.8,0.57,3.68,0.51,5.6c-0.07,2.25-0.47,4.42-1.15,6.44c-0.15,0.45-0.32,0.89-0.49,1.33
			c0,0,0,0,0,0c-0.04,0.13-0.1,0.25-0.15,0.38c0,0,0,0,0,0c-0.08,0.19-0.16,0.37-0.24,0.55c-0.2,0.44-0.42,0.88-0.65,1.31
			c0,0,0,0.01-0.01,0.01c0.51-6.33-2.43-12.67-8.06-16.25c-0.33-0.21-0.67-0.41-1.02-0.6c-0.5-0.27-1.01-0.52-1.52-0.74
			c-0.47-0.32-0.96-0.63-1.47-0.91c-0.01-0.01-0.03-0.01-0.04-0.02l0,0c-0.03-0.02-0.07-0.03-0.11-0.05
			c-0.56-0.3-1.13-0.57-1.71-0.8c-0.16-0.07-0.32-0.12-0.49-0.18c-0.47-0.17-0.94-0.33-1.41-0.46c-0.08-0.02-0.15-0.05-0.23-0.07
			l-0.03,0.01c-6.25-1.64-12.94,0.3-17.33,5.04c0.21-4.16,1.82-8.25,4.78-11.2c2.93-2.92,6.83-4.68,10.79-5.83
			c-0.76,0.22-2.32-0.3-3.17-0.31c-1.13-0.01-2.26,0.07-3.38,0.24c-2.3,0.36-4.54,1.1-6.6,2.19c-2.81,1.49-4.92,3.67-6.57,6.22
			v-1.22c0.08-0.1,0.16-0.21,0.24-0.31c0.01-0.01,0.02-0.02,0.03-0.04c0.37-0.44,0.76-0.86,1.16-1.28
			c4.28-4.38,10.32-7.01,16.92-6.8c0.2,0.01,0.39,0.01,0.58,0.02v0C253.65,154.96,260.34,159.33,264.06,165.63z M264.81,165.35
			c0.06,0.1,0.11,0.19,0.17,0.29c0.05,0.09,0.1,0.19,0.15,0.28c0.06,0.12,0.12,0.22,0.18,0.34c-0.96-1.79-2.13-3.45-3.49-4.93
			c0.12,0.13,0.26,0.24,0.38,0.37C263.18,162.83,264.05,164.05,264.81,165.35z M261.75,161.26c-1.35-1.46-2.87-2.77-4.54-3.87
			C258.89,158.48,260.4,159.8,261.75,161.26z"/>
		<rect x="129.53" y="136.08" class="st27" width="95.48" height="117.75"/>
		<rect x="123.76" y="136.08" class="st28" width="95.48" height="117.75"/>
		<rect x="130.64" y="141.85" class="st118" width="83.95" height="106.22"/>
		<rect x="127.58" y="141.85" class="st63" width="83.94" height="106.22"/>
		<g>
			<path class="st64" d="M187.81,137.01h-7.63v-0.21c0-5.62-4.56-10.18-10.2-10.18c-5.62,0-10.18,4.56-10.18,10.18v0.21h-7.14
				c-4.26,0-7.7,3.36-7.89,7.57h50.94C195.51,140.37,192.07,137.01,187.81,137.01z M166.47,133.71c0-1.95,1.57-3.53,3.53-3.53
				c1.95,0,3.53,1.58,3.53,3.53c0,1.51-0.96,2.8-2.31,3.3h-2.45C167.43,136.51,166.47,135.22,166.47,133.71z"/>
			<path class="st34" d="M186.44,137.01h-7.63v-0.21c0-5.62-4.56-10.18-10.2-10.18c-5.63,0-10.18,4.56-10.18,10.18v0.21h-7.14
				c-4.26,0-7.7,3.36-7.9,7.57h50.94C194.13,140.37,190.69,137.01,186.44,137.01z M165.1,133.71c0-1.95,1.57-3.53,3.53-3.53
				c1.94,0,3.53,1.58,3.53,3.53c0,1.51-0.96,2.8-2.31,3.3h-2.45C166.05,136.51,165.1,135.22,165.1,133.71z"/>
		</g>
		<g>
			<rect x="132.84" y="189.32" class="st22" width="3.75" height="53.18"/>
			<rect x="154.6" y="188.18" class="st22" width="3.75" height="53.18"/>
			<rect x="179.74" y="188.18" class="st22" width="3.75" height="53.18"/>
			<rect x="202.59" y="188.18" class="st22" width="3.75" height="53.18"/>
			<rect x="132.84" y="186.72" class="st22" width="73.5" height="3.75"/>
			<rect x="139.18" y="193.96" class="st118" width="12.61" height="7.82"/>
			<rect x="162.56" y="193.96" class="st118" width="12.61" height="7.82"/>
			<rect x="162.56" y="210.86" class="st118" width="12.61" height="7.82"/>
			<rect x="132.84" y="204.06" class="st22" width="73.5" height="3.75"/>
			<rect x="132.84" y="221.41" class="st22" width="73.5" height="3.75"/>
			<rect x="134.35" y="238.75" class="st22" width="71.98" height="3.75"/>
		</g>
		<g>
			<g>
				<polygon class="st119" points="250.36,232.65 248.5,233.65 218.46,178.37 220.3,177.4 				"/>
				<g>
					
						<rect x="202.29" y="182.48" transform="matrix(0.8787 -0.4774 0.4774 0.8787 -75.5831 130.4664)" class="st120" width="33.21" height="62.91"/>
					<path class="st32" d="M198.69,197.01l16.98-9.23l23.41,43.09l-16.97,9.22L198.69,197.01L198.69,197.01z M192.4,195.16
						l27.84,51.22l25.12-13.66l-27.83-51.22L192.4,195.16L192.4,195.16z"/>
					<path class="st32" d="M215.61,237.86c4.71-2.56,10.62-0.82,13.17,3.88l-8.54,4.64L215.61,237.86z"/>
					<path class="st32" d="M197.03,203.68c4.72-2.56,6.46-8.46,3.91-13.17l-8.54,4.64L197.03,203.68z"/>
					<path class="st32" d="M240.74,224.2c-4.71,2.56-6.45,8.45-3.9,13.15l8.52-4.64L240.74,224.2z"/>
					<path class="st32" d="M222.16,190.03c-4.71,2.56-10.6,0.81-13.16-3.9l8.53-4.64L222.16,190.03z"/>
					<path class="st32" d="M225.19,225.07c-2.23,1.21-3.06,4-1.85,6.23c1.21,2.23,4.01,3.05,6.23,1.84c2.23-1.21,3.05-4,1.84-6.23
						C230.2,224.69,227.41,223.87,225.19,225.07z"/>
					<path class="st32" d="M214.79,206.4c-4.16,2.26-5.7,7.46-3.44,11.62c2.26,4.16,7.46,5.7,11.62,3.44
						c4.16-2.26,5.7-7.47,3.44-11.63C224.15,205.67,218.94,204.14,214.79,206.4z"/>
					<path class="st32" d="M209.37,195.96c-2.23,1.21-3.05,4-1.84,6.23c1.2,2.23,4,3.05,6.22,1.85c2.23-1.21,3.05-4.01,1.84-6.23
						C214.38,195.58,211.59,194.75,209.37,195.96z"/>
					<path class="st121" d="M218.32,218.35c-1.84,1-3.06,0.19-3.87-1.2l-1.11,0.6l-0.66-1.23l1.11-0.61
						c-0.44-0.94-0.68-1.7-0.84-2.44l1.66-0.9c0.34,0.82,1.04,2.23,1.38,2.87c0.41,0.75,0.66,1.08,1.38,0.69l0.31-0.16
						c0.55-0.31,0.66-0.66,0.28-1.33l-0.56-1.04c-1.03-1.91,0.31-3.15,1.34-3.71l0.53-0.29c2.19-1.19,3.39-0.16,4.08,1.12l1.07-0.58
						l0.66,1.23l-1.08,0.58c0.54,1.07,0.65,1.49,0.84,2.47l-1.63,0.88c-0.23-0.54-0.84-1.86-1.49-3.04
						c-0.29-0.54-0.66-0.91-1.22-0.61l-0.38,0.2c-0.46,0.25-0.66,0.55-0.32,1.18l0.54,0.99c1.26,2.3-0.54,3.5-1.25,3.89
						L218.32,218.35z"/>
				</g>
			</g>
			<g>
				<polygon class="st119" points="237.38,234.77 236.22,236.54 183.55,202.15 184.7,200.42 				"/>
				<g>
					
						<rect x="184.21" y="201.79" transform="matrix(0.5466 -0.8374 0.8374 0.5466 -104.273 273.9036)" class="st120" width="33.2" height="62.91"/>
					<path class="st32" d="M175,227.93l10.56-16.18l41.06,26.8l-10.56,16.18L175,227.93L175,227.93z M168.58,229.29l48.81,31.86
						l15.63-23.95l-48.82-31.86L168.58,229.29L168.58,229.29z"/>
					<path class="st32" d="M209.28,255.86c2.93-4.5,8.95-5.77,13.43-2.84l-5.31,8.14L209.28,255.86z"/>
					<path class="st32" d="M176.71,234.6c2.93-4.49,1.67-10.52-2.82-13.45l-5.31,8.14L176.71,234.6z"/>
					<path class="st32" d="M224.91,231.91c-2.93,4.49-1.66,10.5,2.82,13.42l5.3-8.12L224.91,231.91z"/>
					<path class="st32" d="M192.34,210.65c-2.93,4.49-8.94,5.75-13.43,2.82l5.3-8.12L192.34,210.65z"/>
					<path class="st32" d="M211.64,240.05c-1.38,2.12-0.79,4.97,1.34,6.36c2.13,1.39,4.98,0.79,6.36-1.34
						c1.38-2.12,0.79-4.97-1.34-6.35C215.87,237.34,213.02,237.94,211.64,240.05z"/>
					<path class="st32" d="M193.62,228.56c-2.59,3.96-1.48,9.27,2.49,11.86c3.96,2.59,9.27,1.48,11.86-2.49
						c2.59-3.96,1.47-9.28-2.5-11.87C201.52,223.47,196.21,224.59,193.62,228.56z"/>
					<path class="st32" d="M183.9,221.95c-1.38,2.12-0.79,4.97,1.34,6.36c2.12,1.38,4.98,0.78,6.36-1.33
						c1.38-2.12,0.78-4.97-1.34-6.36C188.12,219.23,185.28,219.83,183.9,221.95z"/>
					<path class="st121" d="M202.4,237.4c-1.15,1.76-2.6,1.63-3.97,0.79l-0.69,1.05l-1.17-0.76l0.7-1.06
						c-0.84-0.62-1.41-1.18-1.9-1.76l1.03-1.57c0.69,0.56,1.97,1.48,2.57,1.87c0.72,0.47,1.1,0.64,1.54-0.04l0.19-0.3
						c0.35-0.53,0.27-0.89-0.38-1.31l-0.98-0.65c-1.82-1.19-1.22-2.92-0.59-3.9l0.33-0.51c1.37-2.09,2.91-1.74,4.13-0.95l0.66-1.01
						l1.17,0.76l-0.67,1.02c0.98,0.68,1.27,1,1.91,1.78l-1.02,1.55c-0.46-0.36-1.62-1.23-2.75-1.97c-0.52-0.34-1.01-0.49-1.36,0.04
						l-0.23,0.36c-0.28,0.44-0.32,0.8,0.28,1.19l0.95,0.62c2.2,1.44,1.19,3.34,0.75,4.01L202.4,237.4z"/>
				</g>
			</g>
		</g>
		<g>
			<g>
				<g>
					<g>
						<path class="st64" d="M234.48,186.73c-3.44,6.28-1.14,14.15,5.14,17.59l12.45-22.73
							C245.78,178.16,237.91,180.46,234.48,186.73z"/>
						<path class="st64" d="M257.2,199.19c-0.65,1.18-1.46,2.23-2.39,3.12c-1.33,1.28-2.91,2.25-4.61,2.85
							c-2.63,0.94-5.55,1.03-8.32,0.14c-0.77-0.25-1.53-0.57-2.26-0.97l12.45-22.73c0.26,0.14,0.51,0.29,0.75,0.44
							C258.52,185.68,260.5,193.17,257.2,199.19z"/>
					</g>
					<path class="st34" d="M249.85,180.39c-6.27-3.44-14.15-1.14-17.58,5.13c-3.44,6.27-1.14,14.15,5.13,17.59
						c6.28,3.44,14.15,1.14,17.59-5.14C258.43,191.7,256.13,183.83,249.85,180.39z"/>
					<g>
						<path class="st64" d="M234.18,186.58c-2.86,5.22-0.94,11.77,4.27,14.63l10.36-18.9C243.59,179.44,237.04,181.35,234.18,186.58
							z"/>
						<path class="st65" d="M248.81,182.3l-10.36,18.9c5.22,2.86,11.77,0.95,14.63-4.27C255.94,191.71,254.03,185.16,248.81,182.3z"
							/>
					</g>
					<path class="st34" d="M239.24,199.77c-4.43-2.42-6.05-7.99-3.63-12.41c2.42-4.42,7.99-6.05,12.41-3.63
						c4.42,2.42,6.05,7.99,3.63,12.41C249.23,200.57,243.66,202.2,239.24,199.77z M247.83,184.09c-4.23-2.31-9.55-0.76-11.86,3.46
						c-2.32,4.23-0.76,9.54,3.47,11.86c4.22,2.31,9.55,0.76,11.86-3.46C253.61,191.73,252.05,186.41,247.83,184.09z"/>
					<g>
						<path class="st34" d="M241.54,187.33c1.12-2.01,2.72-1.97,4.3-1.16l0.67-1.21l1.34,0.75l-0.67,1.22
							c0.96,0.6,1.62,1.17,2.2,1.77l-1,1.79c-0.81-0.54-2.28-1.44-2.98-1.83c-0.81-0.46-1.25-0.62-1.68,0.16l-0.19,0.34
							c-0.34,0.61-0.22,0.99,0.53,1.41l1.13,0.63c2.09,1.16,1.58,3.1,0.95,4.24l-0.32,0.59c-1.33,2.39-3.05,2.14-4.45,1.37
							l-0.64,1.15l-1.34-0.75l0.65-1.17c-1.13-0.67-1.48-1.01-2.24-1.8l0.99-1.78c0.54,0.36,1.87,1.22,3.18,1.94
							c0.59,0.33,1.15,0.45,1.49-0.16l0.23-0.4c0.28-0.51,0.29-0.9-0.4-1.28l-1.09-0.6c-2.52-1.4-1.57-3.57-1.14-4.34L241.54,187.33
							z"/>
					</g>
				</g>
				<g class="st66">
					<path class="st34" d="M246.93,179.22l-12.83,3.75c-0.7,0.75-1.31,1.6-1.83,2.53l17.55-5.13
						C248.89,179.87,247.92,179.48,246.93,179.22z"/>
					<path class="st34" d="M253.43,183.27l-22.62,6.61c-0.34,2.37-0.02,4.79,0.91,6.96l24.69-7.22
						C256.02,187.29,255,185.08,253.43,183.27z"/>
				</g>
			</g>
		</g>
		<g>
			<g>
				<g>
					<g>
						<path class="st64" d="M229.6,176.09c-4.67,8.53-1.55,19.23,6.98,23.89l16.91-30.87C244.96,164.44,234.27,167.56,229.6,176.09z
							"/>
						<path class="st64" d="M260.47,193c-0.89,1.61-1.98,3.03-3.24,4.24c-1.82,1.74-3.96,3.05-6.27,3.88
							c-3.58,1.28-7.55,1.39-11.31,0.19c-1.04-0.34-2.07-0.78-3.07-1.32l16.91-30.87c0.35,0.19,0.69,0.39,1.02,0.6
							C262.26,174.66,264.96,184.83,260.47,193z"/>
					</g>
					<path class="st34" d="M250.5,167.47c-8.53-4.67-19.23-1.55-23.9,6.98c-4.67,8.52-1.55,19.22,6.98,23.89
						c8.53,4.67,19.23,1.55,23.9-6.98C262.15,182.84,259.02,172.14,250.5,167.47z"/>
					<g>
						<path class="st64" d="M229.2,175.87c-3.89,7.09-1.29,15.99,5.81,19.87l14.07-25.68C241.98,166.18,233.08,168.78,229.2,175.87z
							"/>
						<path class="st65" d="M249.07,170.06L235,195.74c7.1,3.89,15.99,1.29,19.88-5.81C258.76,182.85,256.16,173.95,249.07,170.06z"
							/>
					</g>
					<path class="st34" d="M236.07,193.8c-6-3.29-8.21-10.85-4.92-16.86c3.29-6.01,10.85-8.22,16.86-4.93
						c6.01,3.29,8.22,10.85,4.92,16.86C249.64,194.88,242.08,197.1,236.07,193.8z M247.74,172.49c-5.74-3.15-12.97-1.03-16.12,4.71
						c-3.15,5.74-1.03,12.96,4.71,16.11c5.74,3.15,12.97,1.03,16.12-4.71C255.59,182.87,253.48,175.64,247.74,172.49z"/>
					<g>
						<path class="st34" d="M239.2,176.89c1.52-2.73,3.7-2.67,5.83-1.58l0.91-1.64l1.82,1.01l-0.91,1.66c1.31,0.81,2.21,1.59,3,2.41
							l-1.35,2.44c-1.1-0.74-3.1-1.96-4.05-2.49c-1.1-0.63-1.69-0.84-2.28,0.22l-0.26,0.47c-0.46,0.83-0.3,1.35,0.72,1.91l1.53,0.85
							c2.83,1.57,2.14,4.22,1.29,5.75l-0.44,0.8c-1.8,3.25-4.14,2.92-6.04,1.86l-0.87,1.56l-1.82-1.01l0.88-1.59
							c-1.54-0.92-2.01-1.37-3.04-2.44l1.34-2.42c0.73,0.48,2.54,1.65,4.32,2.64c0.81,0.45,1.56,0.62,2.02-0.21l0.31-0.55
							c0.38-0.69,0.4-1.22-0.54-1.74l-1.48-0.82c-3.42-1.9-2.13-4.85-1.55-5.9L239.2,176.89z"/>
					</g>
				</g>
				<g class="st66">
					<path class="st34" d="M246.52,165.88l-17.43,5.09c-0.94,1.02-1.78,2.17-2.48,3.44l23.84-6.97
						C249.19,166.76,247.87,166.24,246.52,165.88z"/>
					<path class="st34" d="M255.35,171.37l-30.73,8.98c-0.47,3.23-0.03,6.51,1.23,9.46l33.55-9.8
						C258.87,176.85,257.49,173.84,255.35,171.37z"/>
				</g>
			</g>
		</g>
		<g>
			<g>
				<g>
					<g>
						<path class="st64" d="M157.42,262.5c3.57,6.2,11.48,8.35,17.69,4.78l-12.91-22.47C156,248.38,153.86,256.3,157.42,262.5z"/>
						<path class="st64" d="M179.9,249.6c0.67,1.17,1.14,2.41,1.42,3.66c0.4,1.81,0.4,3.66,0.03,5.43
							c-0.57,2.73-2.02,5.28-4.22,7.17c-0.61,0.53-1.28,1.01-2.01,1.42l-12.91-22.47c0.26-0.15,0.51-0.28,0.77-0.41
							C169.06,241.43,176.48,243.64,179.9,249.6z"/>
					</g>
					<path class="st34" d="M160.03,246.07c-6.2,3.56-8.34,11.48-4.78,17.69c3.56,6.2,11.48,8.34,17.69,4.78
						c6.21-3.57,8.35-11.49,4.79-17.69C174.15,244.64,166.23,242.5,160.03,246.07z"/>
					<g>
						<path class="st64" d="M157.14,262.67c2.96,5.16,9.55,6.94,14.71,3.98l-10.73-18.69C155.95,250.92,154.17,257.51,157.14,262.67
							z"/>
						<path class="st65" d="M161.11,247.95l10.73,18.69c5.16-2.96,6.95-9.55,3.98-14.71C172.86,246.77,166.27,244.99,161.11,247.95z
							"/>
					</g>
					<path class="st34" d="M171.03,265.23c-4.37,2.51-9.97,1-12.48-3.38c-2.51-4.37-1-9.97,3.37-12.49
						c4.37-2.51,9.97-0.99,12.49,3.38C176.92,257.12,175.41,262.72,171.03,265.23z M162.13,249.72c-4.18,2.4-5.63,7.75-3.23,11.92
						c2.4,4.18,7.75,5.63,11.93,3.23c4.18-2.4,5.63-7.75,3.23-11.93C171.66,248.77,166.31,247.33,162.13,249.72z"/>
					<g>
						<path class="st34" d="M161.61,256.78c-1.13-2.01-0.26-3.35,1.24-4.27l-0.68-1.2l1.33-0.75l0.69,1.21
							c1.01-0.51,1.85-0.77,2.67-0.96l1.01,1.79c-0.89,0.4-2.42,1.19-3.12,1.59c-0.82,0.45-1.18,0.74-0.74,1.51l0.2,0.35
							c0.35,0.6,0.73,0.7,1.47,0.28l1.12-0.64c2.08-1.18,3.47,0.27,4.11,1.4l0.34,0.58c1.35,2.38,0.24,3.72-1.15,4.51l0.65,1.15
							l-1.34,0.75l-0.66-1.16c-1.17,0.61-1.63,0.73-2.7,0.96l-1-1.77c0.58-0.28,2.01-0.96,3.31-1.7c0.59-0.33,0.98-0.75,0.64-1.35
							l-0.23-0.41c-0.29-0.49-0.62-0.71-1.3-0.32l-1.08,0.62c-2.5,1.42-3.86-0.52-4.29-1.29L161.61,256.78z"/>
					</g>
				</g>
				<g class="st66">
					<path class="st34" d="M157.51,247.95l-3.49,12.9c0.28,0.98,0.68,1.95,1.21,2.88l4.77-17.65
						C159.08,246.61,158.25,247.24,157.51,247.95z"/>
					<path class="st34" d="M164.34,244.52l-6.15,22.75c1.85,1.54,4.08,2.51,6.42,2.86l6.71-24.84
						C169.13,244.4,166.72,244.12,164.34,244.52z"/>
				</g>
			</g>
		</g>
		<g>
			<path class="st122" d="M246.5,253.59c0,1.71-1.38,3.09-3.09,3.09h-24.28c-1.71,0-3.09-1.38-3.09-3.09v-30.86
				c0-1.71,1.38-3.09,3.09-3.09h24.28c1.7,0,3.09,1.38,3.09,3.09V253.59z"/>
			<path class="st28" d="M244.43,253.59c0,1.71-1.38,3.09-3.09,3.09h-24.28c-1.7,0-3.09-1.38-3.09-3.09v-30.86
				c0-1.71,1.38-3.09,3.09-3.09h24.28c1.71,0,3.09,1.38,3.09,3.09V253.59z"/>
			<polygon class="st22" points="243.56,209.14 242.33,207.83 240.65,209.61 238.98,207.83 237.31,209.61 235.63,207.84 
				233.96,209.61 232.28,207.84 230.61,209.61 229.3,208.22 228.94,207.84 227.26,209.61 225.59,207.84 223.92,209.61 
				222.24,207.84 220.57,209.61 218.9,207.84 217.22,209.61 215.83,208.14 215.83,239.23 217.22,240.71 218.9,238.93 220.57,240.71 
				222.25,238.93 223.92,240.71 225.59,238.93 227.27,240.71 228.94,238.93 229.3,239.31 230.61,240.7 232.29,238.93 233.96,240.7 
				235.63,238.93 237.31,240.7 238.98,238.93 240.66,240.7 242.33,238.93 243.56,240.23 			"/>
			<polygon class="st63" points="242.59,209.14 241.36,207.83 239.68,209.61 238.02,207.83 236.34,209.61 234.66,207.84 
				232.99,209.61 231.31,207.84 229.64,209.61 228.33,208.22 227.97,207.84 226.29,209.61 224.62,207.84 222.95,209.61 
				221.27,207.84 219.6,209.61 217.92,207.84 216.25,209.61 214.86,208.14 214.86,239.23 216.25,240.71 217.93,238.93 219.6,240.71 
				221.27,238.93 222.95,240.71 224.62,238.93 226.3,240.71 227.97,238.93 228.33,239.31 229.64,240.7 231.32,238.93 232.99,240.7 
				234.66,238.93 236.34,240.7 238.02,238.93 239.69,240.7 241.36,238.93 242.59,240.23 			"/>
			<rect x="234.83" y="211.65" class="st25" width="5.8" height="2.67"/>
			<rect x="234.65" y="216.88" class="st25" width="5.8" height="2.66"/>
			<path class="st28" d="M219.19,224.09c-1.96,0-3.55,1.59-3.55,3.55v37.82c0,1.96,1.59,3.54,3.55,3.54h13.95v-44.91H219.19z"/>
			<path class="st28" d="M247.1,224.09h-13.96V269h13.96c1.96,0,3.55-1.59,3.55-3.54v-37.82
				C250.65,225.67,249.06,224.09,247.1,224.09z"/>
			<g>
				<g>
					<rect x="215.99" y="211.65" class="st25" width="12.15" height="2.66"/>
					<rect x="228.14" y="211.65" class="st25" width="4.57" height="2.67"/>
					<rect x="228.14" y="216.88" class="st25" width="4.57" height="2.66"/>
					<rect x="215.99" y="216.88" class="st25" width="12.15" height="2.66"/>
					<rect x="228.14" y="222.11" class="st25" width="4.57" height="2.66"/>
					<rect x="215.99" y="222.11" class="st25" width="12.15" height="2.66"/>
				</g>
				<rect x="234.65" y="222.11" class="st25" width="5.8" height="2.66"/>
			</g>
			<rect x="228.62" y="232.16" class="st25" width="11.82" height="4.37"/>
			<path class="st31" d="M214.59,224.09c-1.96,0-3.55,1.59-3.55,3.55v37.82c0,1.96,1.59,3.54,3.55,3.54h13.95v-44.91H214.59z"/>
			<path class="st31" d="M242.5,224.09h-13.96V269h13.96c1.96,0,3.54-1.59,3.54-3.54v-37.82
				C246.04,225.67,244.45,224.09,242.5,224.09z"/>
			<g>
				<g>
					<path class="st22" d="M221.43,242.56h-2.89h-2.89c-0.68,0-1.23,0.55-1.23,1.23v3.07c0,0.68,0.55,1.23,1.23,1.23h2.89h2.89
						c0.68,0,1.23-0.55,1.23-1.23v-3.07C222.66,243.11,222.11,242.56,221.43,242.56z"/>
					<path class="st22" d="M221.43,250.37h-2.89h-2.89c-0.68,0-1.23,0.55-1.23,1.23v3.07c0,0.68,0.55,1.23,1.23,1.23h2.89h2.89
						c0.68,0,1.23-0.55,1.23-1.23v-3.07C222.66,250.92,222.11,250.37,221.43,250.37z"/>
					<path class="st22" d="M221.4,257.99h-2.86h-2.92c-0.68,0-1.23,0.55-1.23,1.23v3.07c0,0.68,0.55,1.23,1.23,1.23h2.92h2.86
						c0.68,0,1.23-0.55,1.23-1.23v-3.07C222.63,258.54,222.08,257.99,221.4,257.99z"/>
					<path class="st22" d="M231.46,242.53h-2.89h-2.89c-0.68,0-1.23,0.55-1.23,1.23v3.07c0,0.68,0.55,1.23,1.23,1.23h2.89h2.89
						c0.68,0,1.23-0.55,1.23-1.23v-3.07C232.69,243.08,232.14,242.53,231.46,242.53z"/>
					<path class="st22" d="M231.46,250.34h-2.89h-2.89c-0.68,0-1.23,0.55-1.23,1.23v3.07c0,0.68,0.55,1.23,1.23,1.23h2.89h2.89
						c0.68,0,1.23-0.55,1.23-1.23v-3.07C232.69,250.89,232.14,250.34,231.46,250.34z"/>
					<path class="st22" d="M231.46,257.99h-2.89h-2.89c-0.68,0-1.23,0.55-1.23,1.23v3.07c0,0.68,0.55,1.23,1.23,1.23h2.89h2.89
						c0.68,0,1.23-0.55,1.23-1.23v-3.07C232.69,258.54,232.14,257.99,231.46,257.99z"/>
					<path class="st22" d="M241.53,242.53h-2.89h-2.89c-0.68,0-1.23,0.55-1.23,1.23v3.07c0,0.68,0.55,1.23,1.23,1.23h2.89h2.89
						c0.68,0,1.23-0.55,1.23-1.23v-3.07C242.76,243.08,242.21,242.53,241.53,242.53z"/>
					<path class="st22" d="M241.53,250.34h-2.89h-2.89c-0.68,0-1.23,0.55-1.23,1.23v3.07c0,0.68,0.55,1.23,1.23,1.23h2.89h2.89
						c0.68,0,1.23-0.55,1.23-1.23v-3.07C242.76,250.89,242.21,250.34,241.53,250.34z"/>
					<path class="st22" d="M241.53,257.99h-2.89h-2.89c-0.68,0-1.23,0.55-1.23,1.23v3.07c0,0.68,0.55,1.23,1.23,1.23h2.89h2.89
						c0.68,0,1.23-0.55,1.23-1.23v-3.07C242.76,258.54,242.21,257.99,241.53,257.99z"/>
				</g>
				<g>
					<path class="st3" d="M220.57,242.56h-2.89h-2.89c-0.68,0-1.23,0.55-1.23,1.23v3.07c0,0.68,0.55,1.23,1.23,1.23h2.89h2.89
						c0.68,0,1.23-0.55,1.23-1.23v-3.07C221.8,243.11,221.25,242.56,220.57,242.56z"/>
					<path class="st3" d="M220.57,250.37h-2.89h-2.89c-0.68,0-1.23,0.55-1.23,1.23v3.07c0,0.68,0.55,1.23,1.23,1.23h2.89h2.89
						c0.68,0,1.23-0.55,1.23-1.23v-3.07C221.8,250.92,221.25,250.37,220.57,250.37z"/>
					<path class="st3" d="M220.54,257.99h-2.86h-2.92c-0.68,0-1.23,0.55-1.23,1.23v3.07c0,0.68,0.55,1.23,1.23,1.23h2.92h2.86
						c0.68,0,1.23-0.55,1.23-1.23v-3.07C221.77,258.54,221.22,257.99,220.54,257.99z"/>
					<path class="st3" d="M230.61,242.53h-2.89h-2.89c-0.68,0-1.23,0.55-1.23,1.23v3.07c0,0.68,0.55,1.23,1.23,1.23h2.89h2.89
						c0.67,0,1.23-0.55,1.23-1.23v-3.07C231.84,243.08,231.28,242.53,230.61,242.53z"/>
					<path class="st3" d="M230.61,250.34h-2.89h-2.89c-0.68,0-1.23,0.55-1.23,1.23v3.07c0,0.68,0.55,1.23,1.23,1.23h2.89h2.89
						c0.67,0,1.23-0.55,1.23-1.23v-3.07C231.84,250.89,231.28,250.34,230.61,250.34z"/>
					<path class="st3" d="M230.61,257.99h-2.89h-2.89c-0.68,0-1.23,0.55-1.23,1.23v3.07c0,0.68,0.55,1.23,1.23,1.23h2.89h2.89
						c0.67,0,1.23-0.55,1.23-1.23v-3.07C231.84,258.54,231.28,257.99,230.61,257.99z"/>
					<path class="st3" d="M240.67,242.53h-2.89h-2.89c-0.68,0-1.23,0.55-1.23,1.23v3.07c0,0.68,0.55,1.23,1.23,1.23h2.89h2.89
						c0.68,0,1.23-0.55,1.23-1.23v-3.07C241.9,243.08,241.35,242.53,240.67,242.53z"/>
					<path class="st3" d="M240.67,250.34h-2.89h-2.89c-0.68,0-1.23,0.55-1.23,1.23v3.07c0,0.68,0.55,1.23,1.23,1.23h2.89h2.89
						c0.68,0,1.23-0.55,1.23-1.23v-3.07C241.9,250.89,241.35,250.34,240.67,250.34z"/>
					<path class="st3" d="M240.67,257.99h-2.89h-2.89c-0.68,0-1.23,0.55-1.23,1.23v3.07c0,0.68,0.55,1.23,1.23,1.23h2.89h2.89
						c0.68,0,1.23-0.55,1.23-1.23v-3.07C241.9,258.54,241.35,257.99,240.67,257.99z"/>
				</g>
			</g>
			<g>
				<path class="st25" d="M243.97,236.03c0,1.62-1.31,2.93-2.93,2.93h-24.78c-1.61,0-2.93-1.31-2.93-2.93v-5.7
					c0-1.61,1.32-2.93,2.93-2.93h24.78c1.62,0,2.93,1.31,2.93,2.93V236.03z"/>
				<g>
					<g>
						<path class="st3" d="M226.83,232.04l1.09-0.68h1.34v6.04h-1.36v-4.73l-1.08,0.23V232.04z"/>
						<path class="st3" d="M229.87,231.58c0.73-0.26,1.72-0.25,2.69-0.23c0.91,0.02,1.53,0.56,1.53,1.49v0.38
							c0,0.6-0.2,1.02-0.66,1.19c0.48,0.18,0.66,0.62,0.66,1.25v0.3c0,0.97-0.58,1.51-1.58,1.51c-0.95,0-1.86,0.02-2.58-0.23
							l0.01-1.01h1.97c0.59,0,0.83-0.02,0.83-0.49v-0.18c0-0.44-0.28-0.51-0.78-0.53l-1.51-0.06v-1.1l1.51-0.08
							c0.57-0.02,0.8-0.1,0.8-0.51v-0.2c0-0.45-0.37-0.5-0.8-0.5h-2.07V231.58z"/>
						<path class="st3" d="M234.73,232.46c0-0.7,0.3-1.1,1.13-1.1h0.84c0.81,0,1.11,0.39,1.11,1.1v0.97c0,0.7-0.29,1.1-1.12,1.1
							h-0.84c-0.81,0-1.11-0.39-1.11-1.1V232.46z M236,233.62h0.53c0.33,0,0.37-0.14,0.37-0.37v-0.6c0-0.31-0.1-0.37-0.35-0.37
							h-0.53c-0.26,0-0.37,0.07-0.37,0.37v0.6C235.64,233.48,235.7,233.62,236,233.62z M239.87,231.36h0.91l-3.67,6.04h-0.97
							L239.87,231.36z M239.16,235.32c0-0.7,0.28-1.09,1.12-1.09h0.84c0.81,0,1.11,0.39,1.11,1.09v0.98c0,0.7-0.29,1.09-1.12,1.09
							h-0.84c-0.81,0-1.11-0.39-1.11-1.09V235.32z M240.43,236.48h0.52c0.33,0,0.38-0.14,0.38-0.37v-0.6c0-0.3-0.11-0.37-0.36-0.37
							h-0.52c-0.25,0-0.37,0.06-0.37,0.37v0.6C240.07,236.35,240.13,236.48,240.43,236.48z"/>
					</g>
				</g>
				<path class="st32" d="M243.54,228.8c-0.53-0.5-1.23-0.83-2.03-0.83h-24.78c-1.61,0-2.93,1.32-2.93,2.93v5.7
					c0,0.57,0.16,1.09,0.43,1.54c-0.54-0.53-0.89-1.28-0.89-2.1v-5.7c0-1.62,1.32-2.93,2.93-2.93h24.78
					C242.1,227.4,243.02,227.95,243.54,228.8z"/>
				<g class="st123">
					<path class="st124" d="M221.55,227.41l-8.15,9.12c0.12,0.72,0.51,1.35,1.07,1.79l9.93-10.91H221.55z"/>
					<polygon class="st124" points="227.75,227.41 217.17,238.96 228.73,238.96 239.32,227.41 					"/>
				</g>
			</g>
		</g>
		<g>
			<g id="_x38__3_">
				<g>
					<path class="st125" d="M267.95,207.38l-0.64,0.48l0,0l-2.66,1.98l-1,0.75c-0.19,0.14-0.54,0-0.75-0.31l-0.23-0.34l-0.51-0.72
						l-1.02-1.45l-0.26-0.38l-0.11-0.16h0l-2.91-4.16l-0.25-0.35l-2.27-3.24l-0.37-0.53c-0.16-0.23-0.16-0.53,0.01-0.65l0.73-0.54
						l2.66-1.98l0.31-0.22c0.16-0.13,0.45-0.05,0.62,0.18l0.59,0.75l1.07,1.36l1.45,1.83l2.25,2.84l0.9,1.15l0.41,0.52l1.1,1.39
						l0.55,0.69l0.26,0.32C268.11,206.88,268.14,207.24,267.95,207.38z"/>
					<path class="st126" d="M270.49,209.91l-1.06,0.79l-2.66,1.98l-1.42,1.06c-0.17,0.13-0.52-0.02-0.75-0.34l-0.3-0.4l-2.05-2.75
						l-0.1-0.13c-0.24-0.32-0.28-0.69-0.11-0.82l0.12-0.09l1.32-0.98l2.66-1.99l0.94-0.69l0.12-0.09c0.17-0.13,0.52,0.02,0.75,0.34
						l0.1,0.13l0.88,1.18l1.46,1.96C270.62,209.41,270.67,209.78,270.49,209.91z"/>
					<path class="st28" d="M288.94,232.76l-1.84,1.37l-2.66,2l-2.28,1.7c-0.3,0.22-0.97-0.2-1.51-0.95l-16.87-23.36l-1.31-1.9
						c-0.38-0.54-0.5-1.15-0.25-1.35l0.02-0.02l0.43-0.3l1.33-0.99l0.06-0.04l2.6-1.94l0.06-0.04l0.89-0.69l0.42-0.31l0.02-0.02
						c0.26-0.18,0.81,0.08,1.21,0.6c0.02,0,0.02,0.02,0.02,0.02l19.21,24.49C289.06,231.75,289.26,232.54,288.94,232.76z"/>
					<polygon class="st126" points="265.97,204.17 265.08,204.84 262.42,206.82 261.14,207.77 260.88,207.39 260.76,207.23 
						260.76,207.23 257.85,203.07 257.61,202.72 257.47,202.52 258.23,201.96 258.61,201.68 261.27,199.7 261.99,199.15 
						262.41,199.67 264.66,202.51 265.56,203.65 					"/>
					<path class="st28" d="M266.2,203.17l-0.65,0.48l-0.87,0.65l-2.66,1.98l-0.45,0.34l-0.81,0.6l-0.64,0.48
						c-0.21,0.16-0.56,0.05-0.77-0.25l-2.24-3c-0.22-0.29-0.23-0.66-0.02-0.81l0.76-0.57l0,0l1.15-0.86l2.66-1.98l0.74-0.55v0
						l0.76-0.57c0.21-0.16,0.56-0.05,0.78,0.25l1.44,1.94l0.79,1.07C266.4,202.65,266.41,203.02,266.2,203.17z"/>
					<polygon class="st31" points="287.1,234.14 284.44,236.11 264.06,208.91 266.67,206.97 266.73,206.94 					"/>
				</g>
				<g>
					<g>
						<path class="st3" d="M263.24,186.38c-0.23,0.43-0.47,0.85-0.73,1.26c-0.09,0.14-0.18,0.28-0.27,0.41
							c-0.1,0.16-0.21,0.31-0.32,0.47l0,0c-0.14,0.2-0.28,0.41-0.43,0.6c-0.11,0.14-0.21,0.28-0.32,0.42
							c-0.08,0.1-0.16,0.2-0.23,0.31c-0.05,0.05-0.1,0.11-0.14,0.17c0,0-0.01,0.01-0.01,0.01c-0.03,0.04-0.06,0.08-0.1,0.12
							c-0.07,0.08-0.14,0.17-0.2,0.25c-0.3,0.35-0.61,0.69-0.92,1.02c-0.05,0.05-0.11,0.11-0.16,0.16
							c-0.11,0.12-0.22,0.23-0.33,0.34l0,0c-0.32,0.32-0.66,0.64-1.01,0.94c-0.06,0.05-0.12,0.1-0.17,0.15
							c-0.12,0.1-0.24,0.2-0.36,0.31c-0.36,0.29-0.72,0.57-1.09,0.84c-0.03,0.02-0.05,0.04-0.07,0.05
							c-0.04,0.03-0.08,0.06-0.12,0.09c-0.08,0.06-0.17,0.12-0.26,0.18c-0.04,0.03-0.09,0.06-0.13,0.09l0,0
							c-0.1,0.07-0.2,0.14-0.31,0.21c-0.29,0.19-0.58,0.37-0.87,0.55c-0.07,0.04-0.14,0.08-0.21,0.13c-0.05,0.02-0.1,0.05-0.15,0.09
							c-0.09,0.05-0.18,0.1-0.27,0.15c-0.42,0.23-0.84,0.45-1.28,0.65c-0.07,0.04-0.15,0.08-0.22,0.11
							c-0.15,0.07-0.31,0.14-0.46,0.21c-0.45,0.2-0.91,0.38-1.38,0.55c-0.08,0.03-0.16,0.06-0.24,0.09
							c-0.1,0.03-0.21,0.07-0.32,0.11l0,0c-0.06,0.02-0.12,0.04-0.18,0.06c-0.48,0.16-0.98,0.31-1.48,0.44
							c-0.09,0.03-0.18,0.04-0.26,0.06l0,0c-0.1,0.03-0.18,0.05-0.28,0.07c-0.02,0-0.04,0.01-0.06,0.01v0
							c-0.06,0.02-0.13,0.03-0.19,0.05c-0.48,0.1-0.96,0.19-1.44,0.27c-0.03,0.01-0.06,0.01-0.09,0.01
							c-0.32,0.05-0.64,0.09-0.97,0.13c-0.64,0.07-1.29,0.11-1.94,0.13c-0.44,0.01-0.89,0.01-1.34,0c-0.01,0-0.02,0-0.03,0
							c-0.07,0-0.15,0-0.22-0.01c-0.28-0.01-0.55-0.03-0.82-0.05c-0.25-0.02-0.49-0.04-0.73-0.07c-0.1-0.01-0.2-0.02-0.3-0.04
							c-0.31-0.04-0.61-0.08-0.91-0.13c-0.28-0.04-0.56-0.1-0.83-0.15c-0.09-0.02-0.18-0.04-0.28-0.06l0,0
							c-0.12-0.03-0.25-0.06-0.38-0.08c-0.21-0.05-0.42-0.1-0.62-0.15c-0.01,0-0.02,0-0.02,0c-0.03-0.01-0.05-0.01-0.07-0.02
							c-0.68-0.17-1.35-0.38-2.01-0.61c-0.09-0.04-0.18-0.07-0.28-0.1c-0.12-0.05-0.24-0.09-0.36-0.14
							c-0.09-0.03-0.19-0.07-0.27-0.1c-0.06-0.03-0.11-0.05-0.17-0.07c-0.17-0.06-0.33-0.14-0.5-0.21c-0.15-0.07-0.29-0.14-0.43-0.2
							l-0.03-0.01c-0.16-0.07-0.32-0.15-0.47-0.23c-0.53-0.26-1.04-0.54-1.54-0.84c-0.09-0.05-0.17-0.1-0.26-0.16
							c-0.09-0.06-0.18-0.11-0.27-0.17c-0.32-0.2-0.63-0.41-0.94-0.63c-0.09-0.06-0.18-0.13-0.27-0.19
							c-0.02-0.01-0.04-0.02-0.05-0.04c-0.5-0.37-0.99-0.75-1.46-1.16c-0.05-0.05-0.11-0.09-0.16-0.14
							c-0.06-0.06-0.12-0.11-0.18-0.16h0c-0.03-0.02-0.05-0.05-0.08-0.07c-0.27-0.24-0.55-0.5-0.8-0.76
							c-0.66-0.65-1.29-1.35-1.86-2.08c-0.13-0.15-0.25-0.31-0.37-0.47c-0.04-0.05-0.08-0.1-0.11-0.15
							c-0.06-0.09-0.13-0.17-0.19-0.26c-0.34-0.46-0.66-0.94-0.96-1.43c-0.01-0.01-0.01-0.02-0.02-0.02
							c-0.03-0.06-0.07-0.11-0.1-0.18c-0.16-0.25-0.3-0.51-0.44-0.78c-0.19-0.33-0.37-0.67-0.54-1.02
							c-0.22-0.46-0.43-0.92-0.62-1.39c-0.17-0.4-0.32-0.82-0.47-1.24c-0.02-0.05-0.03-0.1-0.05-0.14c-0.03-0.1-0.07-0.21-0.1-0.31
							c-0.06-0.19-0.12-0.38-0.17-0.57c0-0.01-0.01-0.01-0.01-0.02c0-0.01-0.01-0.02-0.01-0.03c0,0,0,0,0-0.01
							c-0.03-0.08-0.05-0.16-0.07-0.25c-0.29-1.01-0.5-2.05-0.65-3.11c-0.01-0.04-0.01-0.08-0.02-0.12
							c-0.06-0.46-0.11-0.93-0.14-1.4l0,0c-0.05-0.73-0.07-1.46-0.05-2.21c0-0.08,0-0.17,0-0.25c0.01-0.12,0.01-0.23,0.01-0.34
							c0-0.07,0.01-0.14,0.01-0.21c0-0.08,0.01-0.16,0.01-0.25c0.01-0.21,0.03-0.43,0.05-0.65c0.02-0.21,0.04-0.42,0.07-0.64
							c0-0.01,0-0.03,0.01-0.05c0-0.03,0.01-0.06,0.01-0.09c0.27-2.11,0.82-4.14,1.61-6.03c0.2-0.47,0.41-0.94,0.64-1.4
							c0.16-0.32,0.33-0.65,0.51-0.96c0.21-0.38,0.43-0.75,0.66-1.12c0.04-0.07,0.09-0.15,0.14-0.21c0.17-0.28,0.36-0.54,0.54-0.81
							c0.05-0.07,0.1-0.14,0.15-0.21c0.2-0.27,0.4-0.55,0.62-0.82c0.13-0.16,0.26-0.32,0.39-0.48l0,0c0.04-0.05,0.08-0.09,0.12-0.14
							c3.72-4.38,9.03-7.36,14.99-8.09h0c1.18-0.15,2.39-0.2,3.62-0.16c4.39,0.14,8.46,1.48,11.91,3.69
							c1.86,1.2,3.54,2.65,4.99,4.31c0.99,1.13,1.86,2.35,2.61,3.65c0.06,0.1,0.11,0.19,0.17,0.29c0.05,0.09,0.1,0.19,0.15,0.28
							c0.06,0.12,0.12,0.22,0.18,0.34c0.04,0.07,0.08,0.15,0.12,0.22c0.37,0.73,0.7,1.48,1,2.25c0.04,0.1,0.07,0.19,0.11,0.29
							c0.07,0.18,0.14,0.37,0.2,0.56c0.03,0.09,0.06,0.19,0.09,0.29c0.2,0.59,0.37,1.2,0.51,1.82c0.09,0.38,0.17,0.76,0.24,1.15
							c0.06,0.35,0.12,0.71,0.17,1.07l0,0c0.14,1.05,0.22,2.11,0.22,3.19c0,0.26,0,0.52-0.01,0.79c-0.01,0.27-0.02,0.54-0.04,0.8
							l0,0c-0.1,1.58-0.36,3.12-0.77,4.6l0,0c0,0.02-0.01,0.04-0.02,0.06c-0.02,0.06-0.04,0.12-0.05,0.19
							c-0.08,0.28-0.16,0.55-0.25,0.82c-0.13,0.39-0.26,0.78-0.41,1.16l0,0c-0.1,0.24-0.19,0.48-0.3,0.73
							C263.93,185.04,263.6,185.72,263.24,186.38z M267.91,185.76c0.32-0.77,0.61-1.56,0.86-2.36c0.3-0.94,0.54-1.91,0.73-2.88
							c0.13-0.65,0.23-1.32,0.31-1.98c0.04-0.31,0.07-0.61,0.09-0.92c0.02-0.24,0.04-0.48,0.06-0.72c0.01-0.27,0.03-0.53,0.04-0.8
							c0.02-0.58,0.02-1.15,0-1.72c-0.07-2.29-0.42-4.5-1.02-6.62c-0.05-0.21-0.12-0.4-0.18-0.61c-0.18-0.58-0.37-1.14-0.59-1.71
							c-0.52-1.37-1.15-2.69-1.88-3.94c-2.08-3.59-4.96-6.68-8.41-9c-1.72-1.16-3.58-2.14-5.56-2.89c-2.76-1.05-5.74-1.67-8.85-1.77
							c-4.18-0.13-8.15,0.67-11.74,2.22c-2.21,0.96-4.27,2.19-6.13,3.67c-2.47,1.96-4.61,4.34-6.29,7.03
							c-0.97,1.57-1.8,3.25-2.44,5.02c-0.01,0.04-0.03,0.07-0.04,0.11l0,0c-0.21,0.58-0.4,1.17-0.57,1.77
							c-0.13,0.45-0.25,0.9-0.35,1.35c-0.39,1.71-0.63,3.48-0.69,5.3c-0.04,1.24,0,2.46,0.12,3.66c0.04,0.37,0.08,0.74,0.13,1.11
							c0.06,0.4,0.13,0.81,0.2,1.22c0.09,0.42,0.17,0.85,0.28,1.27c0.25,1.02,0.55,2.03,0.9,3c0.13,0.38,0.28,0.75,0.43,1.12
							c0.38,0.91,0.8,1.79,1.28,2.64c0.18,0.34,0.37,0.67,0.56,0.99c0.49,0.81,1.02,1.6,1.59,2.35c0.06,0.08,0.11,0.15,0.17,0.23
							c0.17,0.22,0.34,0.44,0.51,0.65c0.59,0.72,1.21,1.41,1.87,2.07c0.21,0.2,0.42,0.41,0.64,0.61v0.01
							c0.05,0.05,0.11,0.1,0.16,0.15c0.69,0.63,1.41,1.23,2.17,1.79c0.3,0.23,0.6,0.44,0.91,0.65c0.48,0.33,0.97,0.64,1.46,0.93
							c0.22,0.13,0.43,0.25,0.65,0.38c0.11,0.06,0.23,0.13,0.35,0.19c0.26,0.14,0.51,0.27,0.76,0.4c0.09,0.05,0.19,0.09,0.28,0.13
							c0.2,0.1,0.4,0.2,0.6,0.29c0.09,0.04,0.17,0.08,0.26,0.12c0.63,0.28,1.28,0.53,1.94,0.77c0.01,0,0.01,0.01,0.02,0.01
							c0.09,0.03,0.19,0.07,0.28,0.1c0.1,0.04,0.19,0.07,0.29,0.1c0.2,0.06,0.4,0.13,0.6,0.19c0.04,0.01,0.08,0.02,0.11,0.04
							c0.65,0.19,1.31,0.36,1.97,0.5c0.1,0.03,0.21,0.05,0.32,0.07c0.04,0.01,0.09,0.02,0.14,0.03c0.2,0.04,0.4,0.08,0.6,0.11
							c0.03,0,0.06,0.01,0.09,0.02c0.46,0.08,0.92,0.15,1.39,0.2c0.05,0,0.1,0.01,0.15,0.01c0.12,0.01,0.23,0.03,0.35,0.04
							c0.13,0.02,0.26,0.03,0.38,0.04c0.44,0.04,0.87,0.07,1.32,0.08c0.07,0,0.15,0.01,0.23,0.01c0.15,0.01,0.29,0.01,0.43,0.01
							c0.33,0,0.65,0,0.97,0c0.02,0,0.04,0,0.05,0c0.55-0.01,1.1-0.04,1.64-0.09c0.22-0.01,0.43-0.04,0.65-0.06
							c0.15-0.01,0.29-0.03,0.43-0.05c1.3-0.15,2.58-0.4,3.83-0.74c0.81-0.22,1.61-0.48,2.39-0.76c0.85-0.32,1.69-0.68,2.5-1.07
							c0.23-0.11,0.46-0.23,0.7-0.35c0.39-0.2,0.78-0.42,1.16-0.64c0.96-0.56,1.88-1.18,2.76-1.85c0.21-0.17,0.43-0.33,0.63-0.5
							c1-0.82,1.95-1.7,2.83-2.65C264.89,191.49,266.66,188.76,267.91,185.76z"/>
					</g>
					<g>
						<path class="st127" d="M264.22,185.53c1.21-2.75,1.93-5.78,2.03-8.97c0.07-2.36-0.19-4.65-0.74-6.83
							c-0.22-0.85-0.48-1.67-0.79-2.48c-0.05-0.12-0.09-0.25-0.14-0.37c-0.31-0.79-0.66-1.55-1.05-2.3
							c-0.04-0.08-0.08-0.15-0.12-0.22c-1.92-3.59-4.71-6.64-8.1-8.87c-3.59-2.35-7.85-3.78-12.44-3.92
							c-1.56-0.05-3.09,0.04-4.58,0.28c0,0,0,0,0,0c-6.3,1-11.83,4.45-15.53,9.37c-0.3,0.4-0.59,0.81-0.86,1.23
							c-0.12,0.18-0.25,0.37-0.36,0.56c-0.02,0.03-0.03,0.05-0.05,0.07c-0.08,0.13-0.15,0.25-0.23,0.38
							c-0.25,0.42-0.48,0.84-0.7,1.28c-0.1,0.19-0.2,0.38-0.29,0.57c0,0,0,0,0,0c-0.04,0.1-0.09,0.19-0.13,0.28l0,0
							c-1.19,2.57-1.95,5.39-2.17,8.36c-0.02,0.26-0.04,0.52-0.05,0.79c0,0.08-0.01,0.17-0.01,0.26c0,0.05,0,0.1,0,0.15
							c-0.02,0.49-0.01,0.97,0,1.44l0,0c0.04,1.24,0.18,2.46,0.4,3.66c0.08,0.45,0.17,0.89,0.28,1.33
							c1.16,4.74,3.72,8.95,7.23,12.14h0c1.65,1.5,3.5,2.78,5.51,3.77c0.19,0.09,0.38,0.19,0.57,0.27c0.72,0.33,1.45,0.63,2.2,0.89
							c0.88,0.31,1.79,0.57,2.72,0.77c0.8,0.18,1.6,0.31,2.42,0.41c0.59,0.07,1.19,0.12,1.8,0.14c0.08,0.01,0.16,0.01,0.24,0.01
							c0.48,0.02,0.96,0.02,1.43,0c8.08-0.21,15.24-4.42,19.48-10.78c0.26-0.4,0.52-0.81,0.77-1.23c0.07-0.11,0.13-0.23,0.2-0.35
							c0.13-0.24,0.27-0.48,0.39-0.73l0,0C263.8,186.46,264.01,186,264.22,185.53z M262.15,163.72
							C262.15,163.72,262.15,163.72,262.15,163.72c0.07,0.11,0.13,0.22,0.19,0.32c0.25,0.44,0.49,0.89,0.71,1.35
							c0.75,1.56,1.33,3.22,1.71,4.95c0.4,1.8,0.57,3.68,0.51,5.6c-0.07,2.25-0.47,4.42-1.15,6.44c-0.15,0.45-0.32,0.89-0.49,1.33
							c0,0,0,0,0,0c-0.04,0.13-0.1,0.25-0.15,0.38c0,0,0,0,0,0c-0.08,0.19-0.16,0.37-0.24,0.55c-0.2,0.44-0.42,0.88-0.65,1.31
							c-1.55,2.87-3.69,5.36-6.27,7.31c-0.39,0.29-0.78,0.57-1.18,0.84c-3.78,2.5-8.34,3.9-13.22,3.74c-0.2-0.01-0.4-0.02-0.59-0.03
							c-1.39-0.08-2.74-0.28-4.05-0.61c-0.87-0.21-1.71-0.47-2.54-0.78c-0.46-0.17-0.92-0.36-1.37-0.56
							c-0.2-0.09-0.41-0.19-0.61-0.28c-0.58-0.28-1.15-0.59-1.69-0.92c-0.58-0.34-1.14-0.71-1.69-1.11
							c-0.58-0.42-1.14-0.87-1.68-1.34l0,0c-0.12-0.11-0.24-0.21-0.35-0.32c-0.48-0.44-0.93-0.9-1.37-1.37
							c-0.54-0.59-1.06-1.21-1.53-1.86c-0.82-1.11-1.54-2.3-2.16-3.55c-0.17-0.36-0.34-0.73-0.5-1.11
							c-0.24-0.57-0.46-1.16-0.65-1.76c-0.24-0.72-0.44-1.45-0.6-2.2c-0.16-0.75-0.28-1.51-0.37-2.28c-0.12-1.08-0.17-2.18-0.13-3.3
							c0.01-0.38,0.03-0.75,0.07-1.13c0.01-0.22,0.03-0.45,0.06-0.67c0.02-0.14,0.03-0.28,0.05-0.42c0.06-0.47,0.14-0.94,0.23-1.4
							c0.56-2.88,1.66-5.56,3.2-7.93c0.22-0.34,0.45-0.68,0.7-1.01c0.04-0.07,0.1-0.14,0.15-0.2c0.26-0.35,0.53-0.69,0.81-1.03
							c0.01-0.01,0.02-0.02,0.03-0.04c0.37-0.44,0.76-0.86,1.16-1.28c4.28-4.38,10.32-7.01,16.92-6.8c0.2,0.01,0.39,0.01,0.58,0.02
							v0C251.74,153.05,258.44,157.42,262.15,163.72z"/>
					</g>
				</g>
			</g>
			<path id="_x39__4_" class="st128" d="M221.79,181.11c-1.3-4.52-1.22-9.42,0.61-13.83c1.94-4.67,4.65-8.86,9.18-11.27
				c2.06-1.09,4.3-1.83,6.6-2.19c1.12-0.17,2.25-0.25,3.38-0.24c0.85,0.01,2.41,0.53,3.17,0.31c-3.97,1.15-7.87,2.9-10.79,5.83
				c-3.7,3.69-5.33,9.15-4.7,14.29c0.31,2.55,1.18,5.03,2.62,7.17c1.59,2.36,4.23,3.56,5.83,5.81c1.05,1.47,1.86,3.16,1.75,5.01
				c-0.34,5.44-6.64,3.15-9.38,1.13C226.06,190.22,223.16,185.88,221.79,181.11z"/>
		</g>
		<g>
			<path class="st28" d="M133.9,166.11c-0.16-0.17-0.24-0.42-0.24-0.77v-10.13c0-0.35,0.08-0.6,0.24-0.77
				c0.16-0.17,0.44-0.25,0.83-0.25h4.28c1.79,0,3.09,0.36,3.91,1.06c0.82,0.71,1.23,1.78,1.23,3.21c0,1.43-0.41,2.5-1.23,3.2
				c-0.82,0.7-2.11,1.06-3.89,1.06h-1.07v2.61c0,0.35-0.08,0.6-0.24,0.77c-0.16,0.17-0.44,0.25-0.85,0.25h-2.13
				C134.34,166.36,134.06,166.28,133.9,166.11z M138.63,159.69c0.38,0,0.68-0.1,0.9-0.3c0.22-0.2,0.33-0.51,0.33-0.91
				c0-0.42-0.11-0.73-0.33-0.93s-0.52-0.3-0.9-0.3h-1.22v2.45H138.63z"/>
			<path class="st28" d="M144.92,166.11c-0.16-0.17-0.24-0.42-0.24-0.77v-10.13c0-0.35,0.08-0.6,0.24-0.77
				c0.16-0.17,0.44-0.25,0.83-0.25h7.41c0.38,0,0.64,0.08,0.78,0.24c0.14,0.16,0.21,0.42,0.21,0.78v1c0,0.36-0.07,0.62-0.21,0.78
				s-0.4,0.24-0.78,0.24h-4.19v1.54h2.58c0.38,0,0.64,0.08,0.78,0.24c0.14,0.16,0.21,0.42,0.21,0.78v0.97
				c0,0.36-0.07,0.62-0.21,0.78c-0.14,0.16-0.4,0.24-0.78,0.24h-2.58v1.54h4.17c0.38,0,0.64,0.08,0.78,0.24
				c0.14,0.16,0.21,0.42,0.21,0.78v1c0,0.36-0.07,0.62-0.21,0.78c-0.14,0.16-0.4,0.24-0.78,0.24h-7.39
				C145.36,166.36,145.08,166.28,144.92,166.11z"/>
			<path class="st28" d="M155.19,166.11c-0.16-0.17-0.24-0.42-0.24-0.77v-10.13c0-0.35,0.08-0.6,0.24-0.77
				c0.16-0.17,0.44-0.25,0.83-0.25h4.12c4.21,0,6.31,2.03,6.31,6.08c0,2-0.54,3.52-1.62,4.54c-1.08,1.03-2.64,1.54-4.7,1.54h-4.12
				C155.63,166.36,155.35,166.28,155.19,166.11z M160.3,163.32c0.67,0,1.15-0.22,1.44-0.66s0.44-1.23,0.44-2.38
				c0-1.15-0.15-1.94-0.44-2.38s-0.77-0.66-1.44-0.66h-1.06v6.08H160.3z"/>
			<path class="st28" d="M167.59,166.11c-0.16-0.17-0.24-0.42-0.24-0.77v-10.13c0-0.35,0.08-0.6,0.24-0.77
				c0.16-0.17,0.44-0.25,0.83-0.25h2.13c0.41,0,0.69,0.08,0.85,0.24c0.16,0.16,0.24,0.42,0.24,0.78v10.13c0,0.35-0.08,0.6-0.24,0.77
				c-0.16,0.17-0.44,0.25-0.85,0.25h-2.13C168.02,166.36,167.75,166.28,167.59,166.11z"/>
			<path class="st28" d="M173.13,166.11c-0.16-0.17-0.24-0.42-0.24-0.77v-10.13c0-0.35,0.08-0.6,0.24-0.77
				c0.16-0.17,0.44-0.25,0.83-0.25h4.12c4.21,0,6.31,2.03,6.31,6.08c0,2-0.54,3.52-1.62,4.54c-1.08,1.03-2.64,1.54-4.7,1.54h-4.12
				C173.57,166.36,173.29,166.28,173.13,166.11z M178.24,163.32c0.67,0,1.15-0.22,1.44-0.66s0.44-1.23,0.44-2.38
				c0-1.15-0.15-1.94-0.44-2.38s-0.77-0.66-1.44-0.66h-1.06v6.08H178.24z"/>
			<path class="st28" d="M186.58,164.97c-1.1-1.1-1.65-2.67-1.65-4.7c0-2.03,0.55-3.59,1.65-4.7s2.71-1.66,4.83-1.66
				s3.73,0.55,4.83,1.66c1.1,1.1,1.65,2.67,1.65,4.7c0,2.03-0.55,3.59-1.65,4.7c-1.1,1.1-2.71,1.66-4.83,1.66
				S187.67,166.08,186.58,164.97z M193.09,162.79c0.35-0.55,0.52-1.39,0.52-2.51c0-1.13-0.17-1.97-0.52-2.52
				c-0.35-0.55-0.91-0.82-1.68-0.82s-1.34,0.27-1.68,0.82c-0.35,0.55-0.52,1.39-0.52,2.52c0,1.12,0.17,1.96,0.52,2.51
				s0.91,0.83,1.68,0.83S192.74,163.34,193.09,162.79z"/>
			<path class="st28" d="M200.24,166.29c-0.93-0.23-1.68-0.54-2.25-0.95c-0.24-0.17-0.36-0.33-0.36-0.48c0-0.11,0.04-0.22,0.13-0.34
				l1.04-1.63c0.11-0.15,0.21-0.23,0.32-0.23c0.09,0,0.21,0.04,0.34,0.13c0.43,0.26,0.92,0.47,1.48,0.62
				c0.55,0.15,1.09,0.22,1.62,0.22c0.44,0,0.76-0.06,0.96-0.18c0.2-0.12,0.29-0.3,0.29-0.55c0-0.27-0.13-0.5-0.39-0.66
				s-0.72-0.38-1.36-0.63c-1.21-0.46-2.15-0.99-2.84-1.58c-0.69-0.59-1.04-1.37-1.04-2.35c0-1.24,0.43-2.17,1.3-2.8
				c0.86-0.63,2.03-0.94,3.5-0.94c1.03,0,1.9,0.09,2.62,0.27s1.35,0.46,1.89,0.84c0.24,0.17,0.36,0.33,0.36,0.48
				c0,0.11-0.04,0.22-0.13,0.34l-1.04,1.63c-0.11,0.17-0.21,0.25-0.32,0.25c-0.07,0-0.18-0.05-0.34-0.14
				c-0.29-0.19-0.63-0.35-1.02-0.47s-0.82-0.19-1.27-0.19c-0.42,0-0.73,0.06-0.95,0.18c-0.21,0.12-0.32,0.31-0.32,0.57
				c0,0.21,0.07,0.39,0.22,0.54c0.15,0.14,0.34,0.27,0.56,0.37c0.23,0.1,0.62,0.27,1.18,0.49c0.89,0.36,1.6,0.7,2.11,1.03
				c0.51,0.33,0.9,0.72,1.16,1.18c0.26,0.46,0.39,1.04,0.39,1.74c0,1.07-0.4,1.94-1.21,2.6c-0.81,0.66-2.01,0.99-3.6,0.99
				C202.18,166.63,201.17,166.51,200.24,166.29z"/>
		</g>
	</g>
</g>
</svg>
