<?xml version="1.0" encoding="utf-8"?>
<!-- Generator: Adobe Illustrator 23.0.0, SVG Export Plug-In . SVG Version: 6.00 Build 0)  -->
<svg version="1.1" id="Capa_1" xmlns="http://www.w3.org/2000/svg" xmlns:xlink="http://www.w3.org/1999/xlink" x="0px" y="0px"
	 viewBox="0 0 400 702" style="enable-background:new 0 0 400 702;" xml:space="preserve">
<style type="text/css">
	.st0{fill:#0085B0;}
	.st1{fill:#E0EF18;}
	.st2{fill:#CECECE;}
	.st3{fill:#FFFFFF;}
	.st4{fill:#F2F2F2;}
	.st5{fill:#EACCB0;}
	.st6{fill:#9B9B9B;}
	.st7{fill:#939393;}
	.st8{fill:#EFEFEF;}
	.st9{fill:#828282;}
	.st10{fill:#2C2A2D;}
	.st11{fill:#202021;}
	.st12{fill:#F2D4B6;}
	.st13{fill:#534D46;}
	.st14{fill:#E8D313;}
	.st15{fill:#2ACCFF;}
	.st16{fill:#4E4F4F;}
	.st17{fill:#003A94;}
	.st18{fill:#00D13C;}
	.st19{fill:#15682A;}
	.st20{fill:#D40000;}
	.st21{fill:#505050;}
	.st22{fill:#DFDFDF;}
	.st23{fill:none;}
	.st24{fill:#636363;}
	.st25{fill:#6C92D5;}
	.st26{fill:#22272F;}
	.st27{fill:#1B2538;}
	.st28{fill:#253452;}
	.st29{fill:#F9F9F9;}
	.st30{fill:#2D3543;}
	.st31{fill:#2A3D60;}
	.st32{fill:#587955;}
	.st33{fill:#CD7054;}
	.st34{fill:#F1CC4B;}
	.st35{fill:#ACACAC;}
	.st36{fill:#AAE528;}
	.st37{fill:#28CEBA;}
	.st38{fill:#DB143F;}
	.st39{fill:#53C2C9;}
	.st40{fill:#FFB412;}
	.st41{fill:#866A5E;}
	.st42{fill:#F7DDCB;}
	.st43{fill:#FFE6D4;}
	.st44{fill:#F5F5F5;}
	.st45{fill:#1A2830;}
	.st46{fill:#24353F;}
	.st47{fill:#132026;}
	.st48{fill:#F9FF03;}
	.st49{fill:#272728;}
	.st50{fill:#1E1D1E;}
	.st51{fill:#160423;}
	.st52{fill-rule:evenodd;clip-rule:evenodd;fill:#FFFFFF;}
	.st53{fill-rule:evenodd;clip-rule:evenodd;fill:#1996B8;}
	.st54{fill:#0C387D;}
	.st55{fill:#C69A81;}
	.st56{fill:#D1A385;}
	.st57{fill:#EAEAEA;}
	.st58{fill:#093E8C;}
	.st59{fill:#0B2A62;}
	.st60{fill:#D32A3B;}
	.st61{fill:#827C7D;}
	.st62{opacity:0.7;fill:#7F7F7F;}
	.st63{fill:#FDFDFD;}
	.st64{fill:#DAA449;}
	.st65{fill:#DD9225;}
	.st66{opacity:0.3;}
	.st67{fill:#425793;}
	.st68{opacity:0.8;}
	.st69{filter:url(#Adobe_OpacityMaskFilter);}
	.st70{opacity:0.15;mask:url(#SVGID_1_);}
	.st71{fill:#090B00;}
	.st72{opacity:0.1;}
	.st73{fill:#211915;}
	.st74{filter:url(#Adobe_OpacityMaskFilter_1_);}
	.st75{opacity:0.15;mask:url(#SVGID_2_);}
	.st76{fill:#AF3623;}
	.st77{filter:url(#Adobe_OpacityMaskFilter_2_);}
	.st78{opacity:0.15;mask:url(#SVGID_3_);}
	.st79{filter:url(#Adobe_OpacityMaskFilter_3_);}
	.st80{opacity:0.15;mask:url(#SVGID_4_);}
	.st81{fill:#456495;}
	.st82{filter:url(#Adobe_OpacityMaskFilter_4_);}
	.st83{opacity:0.15;mask:url(#SVGID_5_);}
	.st84{filter:url(#Adobe_OpacityMaskFilter_5_);}
	.st85{opacity:0.15;mask:url(#SVGID_6_);}
	.st86{fill:#76A9DA;}
	.st87{filter:url(#Adobe_OpacityMaskFilter_6_);}
	.st88{opacity:0.15;mask:url(#SVGID_7_);}
	.st89{filter:url(#Adobe_OpacityMaskFilter_7_);}
	.st90{opacity:0.15;mask:url(#SVGID_8_);}
	.st91{fill:#1F3642;}
	.st92{fill:#A9BDDA;}
	.st93{opacity:0.46;fill:#A6B4BC;}
	.st94{fill:#74C475;}
	.st95{fill:#221F21;}
	.st96{fill:#2D2D2D;}
	.st97{fill:#1C1B1A;}
	.st98{fill:#77181C;}
	.st99{fill:#262525;}
	.st100{fill:#11100F;}
	.st101{opacity:0.18;}
	.st102{opacity:0.38;}
	.st103{fill:#0A5B1F;}
	.st104{opacity:0.27;}
	.st105{opacity:0.48;}
	.st106{fill:#0A4654;}
	.st107{fill:#C2C6C6;}
	.st108{fill:#E5E5E5;stroke:#FFFFFF;stroke-miterlimit:10;}
	.st109{fill:#ACB4B5;}
	.st110{fill:#7F8384;}
	.st111{fill:#15772F;}
	.st112{fill:#F4F4F4;}
	.st113{fill:#53B8DB;}
	.st114{fill:#06EF42;}
	.st115{fill:#E7ED07;}
	.st116{fill:#CCCCCA;}
	.st117{fill:#EADF13;}
	.st118{fill:#C2C2C2;}
	.st119{fill:#85B681;}
	.st120{fill:#A1DC9B;}
	.st121{fill:#90C58B;}
	.st122{fill:#22241F;}
	.st123{opacity:0.5;}
	.st124{fill:#A2CADE;}
	.st125{fill:#E9E9E9;}
	.st126{fill:#D9D9D9;}
	.st127{fill:#CDCDCD;}
	.st128{opacity:0.34;fill:#F0F0F0;}
	.st129{fill:#5A5B5A;}
	.st130{fill:#FFE600;}
	.st131{fill:#DB1F59;}
	.st132{fill:#727272;}
	.st133{fill:#207235;}
	.st134{fill:#A3A3A3;}
	.st135{fill:#BCBCBC;}
	.st136{fill:#0A511C;}
	.st137{fill:#F9FF00;}
	.st138{fill:#D59F6D;}
	.st139{fill:#C0804A;}
	.st140{fill:#E6BA8A;}
	.st141{fill:#BE3ACC;}
	.st142{fill:#FFFFFF;stroke:#443F0C;stroke-width:9;stroke-miterlimit:10;}
	.st143{fill:none;stroke:#443F0C;stroke-width:9;stroke-miterlimit:10;}
	.st144{fill:#170623;}
	.st145{fill:#158231;}
	.st146{fill:#C89D76;}
	.st147{opacity:0.4;}
	.st148{fill:#ADADAD;}
	.st149{fill:#EDC3A6;}
	.st150{opacity:0.69;}
	.st151{fill:#E5D3D6;}
	.st152{opacity:0.44;}
	.st153{fill:#A5A5A5;}
	.st154{fill:#DDE5E4;}
	.st155{fill:#5C9169;}
	.st156{fill:#934215;}
	.st157{fill:#47413B;}
	.st158{fill:#601A1F;}
	.st159{fill:#044554;}
	.st160{opacity:0.7;}
	.st161{fill:#7F7F7F;}
	.st162{fill:#6B8A69;}
	.st163{opacity:0.24;fill:#848D90;}
	.st164{opacity:0.4;fill:#848D90;}
	.st165{fill:#F2D5D5;}
	.st166{fill:#485CC1;}
	.st167{fill:#C6CBE0;}
	.st168{fill:#8B909E;}
	.st169{fill:#53BC1B;}
	.st170{fill:#11565B;}
	.st171{fill:#67A06D;}
	.st172{fill:#FFEC00;}
	.st173{fill:#77A007;}
	.st174{fill:#E50731;}
	.st175{fill:#266472;}
	.st176{fill:#D4D4D4;}
	.st177{fill:#0E9932;}
	.st178{fill:#87DD24;}
	.st179{fill:#76A172;}
	.st180{fill:#62835F;}
	.st181{fill:#96D090;}
	.st182{fill:#D6D6D6;}
	.st183{fill:#606060;}
	.st184{fill:#494949;}
	.st185{fill:#29E55A;}
	.st186{fill:#2C703D;}
	.st187{fill:#DD0744;}
	.st188{fill:#EDEDED;}
	.st189{fill:#2A5936;}
	.st190{fill:#B9BBC1;}
	.st191{fill:#FFD79E;}
	.st192{fill:#FFE6C2;}
	.st193{fill:#2CBB55;}
	.st194{fill:#5C412D;}
	.st195{fill:#EC0000;}
	.st196{fill:#DD2626;}
	.st197{fill:#EA9334;}
	.st198{fill:#FCC232;}
	.st199{fill:#F9B234;}
	.st200{fill:#F7A037;}
	.st201{fill:#E0E0E0;}
</style>
<g>
	<g>
		<path class="st0" d="M9.5,209.36c0,22,13.29,27.86,29.54,13.03c0,0,156.99-143.3,353.09,26.97V55c0-22-18-40-40-40H49.5
			c-22,0-40,18-40,40V209.36z"/>
	</g>
	<g>
		<path class="st0" d="M391.66,647c0,22-18,40-40,40H49.98c-22,0-40-18-40-40v-46.27c0-22,18-40,40-40h301.68c22,0,40,18,40,40V647z
			"/>
	</g>
	<g>
		<path d="M151.81,391.42c-0.34-0.35-0.51-0.9-0.51-1.63v-21.51c0-0.74,0.17-1.28,0.51-1.63c0.34-0.36,0.93-0.53,1.77-0.53h9.08
			c3.8,0,6.57,0.75,8.3,2.26c1.74,1.51,2.6,3.78,2.6,6.82s-0.87,5.31-2.6,6.8c-1.74,1.5-4.49,2.24-8.26,2.24h-2.28v5.55
			c0,0.74-0.17,1.28-0.51,1.63c-0.34,0.36-0.94,0.53-1.81,0.53h-4.52C152.74,391.95,152.15,391.78,151.81,391.42z M161.86,377.78
			c0.81,0,1.45-0.21,1.92-0.65c0.47-0.43,0.7-1.08,0.7-1.94c0-0.89-0.23-1.54-0.7-1.98c-0.47-0.43-1.11-0.65-1.92-0.65h-2.58v5.21
			H161.86z"/>
		<path d="M170.14,391.15c0-0.23,0.06-0.51,0.19-0.84l9.46-22.76c0.23-0.53,0.49-0.91,0.78-1.12s0.7-0.32,1.23-0.32h4.14
			c0.53,0,0.94,0.11,1.23,0.32s0.55,0.59,0.78,1.12l9.42,22.76c0.13,0.33,0.19,0.61,0.19,0.84c0,0.53-0.28,0.8-0.84,0.8h-7.14
			c-0.79,0-1.28-0.34-1.48-1.03l-0.91-2.81h-6.73l-0.87,2.81c-0.2,0.68-0.7,1.03-1.48,1.03h-7.14
			C170.42,391.95,170.14,391.69,170.14,391.15z M185.34,382.11l-1.48-4.71l-1.48,4.71H185.34z"/>
		<path d="M202.55,389.12c-2.56-2.27-3.84-5.63-3.84-10.09c0-4.43,1.28-7.79,3.84-10.07s6.13-3.42,10.72-3.42
			c2.08,0,3.94,0.2,5.59,0.61c1.65,0.41,3.01,0.97,4.1,1.71c0.3,0.23,0.46,0.48,0.46,0.76c0,0.23-0.11,0.54-0.34,0.95l-1.9,3.27
			c-0.2,0.36-0.44,0.53-0.72,0.53c-0.18,0-0.47-0.1-0.87-0.3c-1.52-0.76-3.19-1.14-5.02-1.14c-2.1,0-3.76,0.6-4.96,1.81
			s-1.8,2.97-1.8,5.3c0,2.41,0.51,4.19,1.52,5.34c1.01,1.15,2.52,1.73,4.52,1.73c0.35,0,0.75-0.03,1.2-0.1
			c0.44-0.06,0.8-0.13,1.08-0.21v-3.46h-2.43c-0.81,0-1.36-0.16-1.65-0.47c-0.29-0.32-0.44-0.86-0.44-1.62v-2.09
			c0-0.76,0.14-1.3,0.44-1.62c0.29-0.32,0.84-0.47,1.65-0.47h8.17c0.99,0,1.67,0.22,2.05,0.67s0.57,1.15,0.57,2.11v8.89
			c0,0.56-0.07,0.98-0.21,1.27c-0.14,0.29-0.41,0.59-0.82,0.89c-2.43,1.75-5.81,2.62-10.15,2.62
			C208.7,392.52,205.11,391.39,202.55,389.12z"/>
		<path d="M229.12,389.01c-2.33-2.34-3.5-5.67-3.5-9.97s1.16-7.63,3.5-9.98c2.33-2.34,5.75-3.51,10.26-3.51
			c4.51,0,7.93,1.17,10.26,3.51c2.33,2.34,3.5,5.67,3.5,9.98s-1.17,7.63-3.5,9.97c-2.33,2.34-5.75,3.52-10.26,3.52
			C234.87,392.52,231.45,391.35,229.12,389.01z M242.95,384.37c0.73-1.18,1.1-2.96,1.1-5.34c0-2.41-0.37-4.19-1.1-5.36
			c-0.74-1.17-1.93-1.75-3.57-1.75c-1.65,0-2.84,0.58-3.57,1.75c-0.73,1.17-1.1,2.95-1.1,5.36c0,2.38,0.37,4.16,1.1,5.34
			s1.92,1.77,3.57,1.77C241.02,386.14,242.21,385.55,242.95,384.37z"/>
		<path d="M173.9,437.02c-0.34-0.35-0.51-0.9-0.51-1.63v-21.51c0-0.73,0.17-1.28,0.51-1.63c0.34-0.35,0.93-0.53,1.77-0.53h8.74
			c8.94,0,13.41,4.31,13.41,12.92c0,4.26-1.15,7.47-3.44,9.65c-2.29,2.18-5.62,3.27-9.98,3.27h-8.74
			C174.83,437.55,174.25,437.38,173.9,437.02z M184.75,431.09c1.42,0,2.44-0.47,3.06-1.41c0.62-0.94,0.93-2.62,0.93-5.05
			s-0.31-4.12-0.93-5.05c-0.62-0.94-1.64-1.41-3.06-1.41h-2.24v12.92H184.75z"/>
		<path d="M200.24,437.02c-0.34-0.35-0.51-0.9-0.51-1.63v-21.51c0-0.73,0.17-1.28,0.51-1.63c0.34-0.35,0.93-0.53,1.77-0.53h15.73
			c0.81,0,1.36,0.17,1.65,0.51c0.29,0.34,0.44,0.89,0.44,1.65v2.13c0,0.76-0.15,1.31-0.44,1.65c-0.29,0.34-0.84,0.51-1.65,0.51
			h-8.89v3.27h5.47c0.81,0,1.36,0.17,1.65,0.51c0.29,0.34,0.44,0.89,0.44,1.65v2.05c0,0.76-0.15,1.31-0.44,1.65
			c-0.29,0.34-0.84,0.51-1.65,0.51h-5.47v3.27h8.85c0.81,0,1.36,0.17,1.65,0.51s0.44,0.89,0.44,1.65v2.13
			c0,0.76-0.15,1.31-0.44,1.65c-0.29,0.34-0.84,0.51-1.65,0.51H202C201.17,437.55,200.58,437.38,200.24,437.02z"/>
		<path d="M66.61,480.21c-2.33-2.34-3.5-5.67-3.5-9.97s1.16-7.63,3.5-9.97c2.33-2.34,5.75-3.52,10.26-3.52
			c4.51,0,7.93,1.17,10.26,3.52c2.33,2.34,3.5,5.67,3.5,9.97s-1.17,7.63-3.5,9.97c-2.33,2.34-5.75,3.52-10.26,3.52
			C72.36,483.72,68.94,482.55,66.61,480.21z M80.44,475.57c0.73-1.18,1.1-2.96,1.1-5.34c0-2.41-0.37-4.19-1.1-5.36
			c-0.74-1.17-1.93-1.75-3.57-1.75c-1.65,0-2.84,0.58-3.57,1.75c-0.73,1.17-1.1,2.95-1.1,5.36c0,2.38,0.37,4.16,1.1,5.34
			s1.92,1.77,3.57,1.77C78.52,477.34,79.71,476.75,80.44,475.57z"/>
		<path d="M93.04,482.62c-0.34-0.35-0.51-0.9-0.51-1.63v-21.51c0-0.73,0.17-1.28,0.51-1.63c0.34-0.35,0.93-0.53,1.77-0.53h11.51
			c3.09,0,5.36,0.66,6.82,1.98c1.46,1.32,2.18,3.19,2.18,5.62c0,1.14-0.25,2.15-0.74,3.02s-1.15,1.49-1.96,1.84
			c2.25,0.76,3.38,2.53,3.38,5.32c0,2.38-0.84,4.32-2.53,5.81c-1.69,1.5-4.16,2.24-7.43,2.24H94.81
			C93.97,483.15,93.38,482.98,93.04,482.62z M104.5,467.08c1.17,0,1.75-0.56,1.75-1.67c0-1.11-0.58-1.67-1.75-1.67h-2.89v3.34H104.5
			z M105.14,476.73c0.53,0,0.96-0.17,1.29-0.51c0.33-0.34,0.49-0.8,0.49-1.39c0-0.61-0.16-1.08-0.48-1.41s-0.75-0.49-1.31-0.49
			h-3.53v3.8H105.14z"/>
		<path d="M118.42,482.62c-0.34-0.35-0.51-0.9-0.51-1.63v-21.51c0-0.73,0.17-1.28,0.51-1.63s0.93-0.53,1.77-0.53h4.52
			c0.86,0,1.46,0.17,1.8,0.51s0.51,0.89,0.51,1.65v17.21h8.85c0.81,0,1.36,0.17,1.65,0.51c0.29,0.34,0.44,0.89,0.44,1.65v2.13
			c0,0.76-0.15,1.31-0.44,1.65c-0.29,0.34-0.84,0.51-1.65,0.51h-15.69C119.36,483.15,118.77,482.98,118.42,482.62z"/>
		<path d="M139.63,482.62c-0.34-0.35-0.51-0.9-0.51-1.63v-21.51c0-0.73,0.17-1.28,0.51-1.63c0.34-0.35,0.93-0.53,1.77-0.53h4.52
			c0.86,0,1.46,0.17,1.81,0.51s0.51,0.89,0.51,1.65v21.51c0,0.74-0.17,1.28-0.51,1.63c-0.34,0.36-0.94,0.53-1.81,0.53h-4.52
			C140.56,483.15,139.97,482.98,139.63,482.62z"/>
		<path d="M153.97,480.32c-2.56-2.27-3.84-5.63-3.84-10.09c0-4.43,1.28-7.79,3.84-10.07c2.56-2.28,6.13-3.42,10.72-3.42
			c2.08,0,3.94,0.2,5.59,0.61c1.65,0.41,3.01,0.98,4.1,1.71c0.3,0.23,0.46,0.48,0.46,0.76c0,0.23-0.11,0.54-0.34,0.95l-1.9,3.27
			c-0.2,0.36-0.44,0.53-0.72,0.53c-0.18,0-0.47-0.1-0.88-0.3c-1.52-0.76-3.19-1.14-5.02-1.14c-2.1,0-3.76,0.6-4.96,1.81
			s-1.8,2.97-1.8,5.3c0,2.41,0.51,4.19,1.52,5.34c1.01,1.15,2.52,1.73,4.52,1.73c0.36,0,0.75-0.03,1.2-0.1
			c0.44-0.06,0.8-0.13,1.08-0.21v-3.46h-2.43c-0.81,0-1.36-0.16-1.65-0.47c-0.29-0.32-0.44-0.86-0.44-1.62v-2.09
			c0-0.76,0.15-1.3,0.44-1.62c0.29-0.32,0.84-0.47,1.65-0.47h8.17c0.99,0,1.67,0.22,2.05,0.67c0.38,0.44,0.57,1.15,0.57,2.11v8.89
			c0,0.56-0.07,0.98-0.21,1.27c-0.14,0.29-0.41,0.59-0.82,0.89c-2.43,1.75-5.81,2.62-10.15,2.62
			C160.12,483.72,156.53,482.59,153.97,480.32z"/>
		<path d="M177.04,482.35c0-0.23,0.06-0.51,0.19-0.84l9.46-22.76c0.23-0.53,0.49-0.91,0.78-1.12c0.29-0.22,0.7-0.32,1.24-0.32h4.14
			c0.53,0,0.94,0.11,1.24,0.32c0.29,0.21,0.55,0.59,0.78,1.12l9.42,22.76c0.13,0.33,0.19,0.61,0.19,0.84c0,0.53-0.28,0.8-0.84,0.8
			h-7.14c-0.79,0-1.28-0.34-1.48-1.03l-0.91-2.81h-6.73l-0.87,2.81c-0.2,0.68-0.7,1.03-1.48,1.03h-7.14
			C177.32,483.15,177.04,482.89,177.04,482.35z M192.24,473.31l-1.48-4.71l-1.48,4.71H192.24z"/>
		<path d="M207.36,480.32c-2.56-2.27-3.84-5.63-3.84-10.09c0-4.48,1.24-7.85,3.71-10.11c2.47-2.25,6-3.38,10.58-3.38
			c2.08,0,3.93,0.2,5.55,0.61s2.98,0.98,4.07,1.71c0.3,0.23,0.46,0.48,0.46,0.76c0,0.23-0.11,0.54-0.34,0.95l-1.9,3.27
			c-0.2,0.36-0.44,0.53-0.72,0.53c-0.18,0-0.47-0.1-0.87-0.3c-0.71-0.35-1.45-0.63-2.22-0.84c-0.77-0.2-1.68-0.3-2.72-0.3
			c-2.1,0-3.71,0.61-4.83,1.82c-1.12,1.22-1.67,2.98-1.67,5.28c0,2.28,0.61,4.03,1.82,5.26c1.22,1.23,2.88,1.84,4.98,1.84
			c1.82,0,3.5-0.38,5.02-1.14c0.41-0.2,0.7-0.3,0.87-0.3c0.28,0,0.52,0.18,0.72,0.53l1.9,3.27c0.23,0.41,0.34,0.72,0.34,0.95
			c0,0.28-0.15,0.53-0.46,0.76c-1.09,0.74-2.46,1.3-4.1,1.71c-1.65,0.41-3.51,0.61-5.59,0.61
			C213.51,483.72,209.92,482.59,207.36,480.32z"/>
		<path d="M230.68,482.62c-0.34-0.35-0.51-0.9-0.51-1.63v-21.51c0-0.73,0.17-1.28,0.51-1.63s0.93-0.53,1.77-0.53h4.52
			c0.86,0,1.46,0.17,1.8,0.51s0.51,0.89,0.51,1.65v21.51c0,0.74-0.17,1.28-0.51,1.63c-0.34,0.36-0.94,0.53-1.8,0.53h-4.52
			C231.61,483.15,231.02,482.98,230.68,482.62z"/>
		<path d="M244.68,480.21c-2.33-2.34-3.5-5.67-3.5-9.97s1.17-7.63,3.5-9.97c2.33-2.34,5.75-3.52,10.26-3.52
			c4.51,0,7.93,1.17,10.26,3.52c2.33,2.34,3.5,5.67,3.5,9.97s-1.17,7.63-3.5,9.97c-2.33,2.34-5.75,3.52-10.26,3.52
			C250.43,483.72,247.01,482.55,244.68,480.21z M258.51,475.57c0.73-1.18,1.1-2.96,1.1-5.34c0-2.41-0.37-4.19-1.1-5.36
			c-0.73-1.17-1.92-1.75-3.57-1.75c-1.65,0-2.84,0.58-3.57,1.75c-0.74,1.17-1.1,2.95-1.1,5.36c0,2.38,0.37,4.16,1.1,5.34
			c0.73,1.18,1.92,1.77,3.57,1.77C256.58,477.34,257.78,476.75,258.51,475.57z"/>
		<path d="M271.11,482.62c-0.34-0.35-0.51-0.9-0.51-1.63v-21.55c0-0.73,0.17-1.27,0.51-1.62s0.94-0.51,1.8-0.51h3.61
			c0.53,0,0.94,0.07,1.24,0.21c0.29,0.14,0.58,0.41,0.86,0.82l6.88,10.22v-9.08c0-0.73,0.17-1.28,0.51-1.63s0.93-0.53,1.77-0.53
			h4.52c0.86,0,1.46,0.17,1.8,0.51s0.51,0.89,0.51,1.65v21.55c0,0.74-0.17,1.27-0.51,1.62c-0.34,0.34-0.94,0.51-1.8,0.51h-3.61
			c-0.53,0-0.94-0.07-1.24-0.21c-0.29-0.14-0.58-0.41-0.85-0.82l-6.88-10.22v9.12c0,0.74-0.17,1.27-0.51,1.62
			c-0.34,0.34-0.94,0.51-1.8,0.51h-4.52C272.04,483.15,271.45,482.98,271.11,482.62z"/>
		<path d="M297.78,482.62c-0.34-0.35-0.51-0.9-0.51-1.63v-21.51c0-0.73,0.17-1.28,0.51-1.63s0.93-0.53,1.77-0.53h15.73
			c0.81,0,1.36,0.17,1.65,0.51s0.44,0.89,0.44,1.65v2.13c0,0.76-0.15,1.31-0.44,1.65c-0.29,0.34-0.84,0.51-1.65,0.51h-8.89v3.27
			h5.47c0.81,0,1.36,0.17,1.65,0.51c0.29,0.34,0.44,0.89,0.44,1.65v2.05c0,0.76-0.15,1.31-0.44,1.65s-0.84,0.51-1.65,0.51h-5.47
			v3.27h8.85c0.81,0,1.36,0.17,1.65,0.51c0.29,0.34,0.44,0.89,0.44,1.65v2.13c0,0.76-0.15,1.31-0.44,1.65
			c-0.29,0.34-0.84,0.51-1.65,0.51h-15.69C298.71,483.15,298.13,482.98,297.78,482.62z"/>
		<path d="M323.91,483c-1.98-0.48-3.57-1.15-4.79-2.01c-0.51-0.35-0.76-0.7-0.76-1.03c0-0.23,0.09-0.47,0.27-0.72l2.2-3.46
			c0.23-0.33,0.46-0.49,0.68-0.49c0.2,0,0.44,0.09,0.72,0.27c0.91,0.56,1.96,0.99,3.13,1.31c1.18,0.32,2.32,0.47,3.44,0.47
			c0.94,0,1.61-0.13,2.03-0.38c0.42-0.25,0.63-0.65,0.63-1.18c0-0.58-0.28-1.05-0.84-1.41c-0.56-0.35-1.52-0.8-2.89-1.33
			c-2.56-0.99-4.57-2.11-6.04-3.36c-1.47-1.25-2.2-2.92-2.2-5c0-2.63,0.92-4.62,2.75-5.95s4.31-2,7.43-2c2.18,0,4.03,0.19,5.57,0.57
			c1.53,0.38,2.87,0.98,4.01,1.79c0.51,0.35,0.76,0.7,0.76,1.03c0,0.23-0.09,0.47-0.27,0.72l-2.2,3.46
			c-0.23,0.35-0.46,0.53-0.68,0.53c-0.15,0-0.39-0.1-0.72-0.3c-0.61-0.41-1.33-0.74-2.17-1.01s-1.74-0.4-2.7-0.4
			c-0.89,0-1.56,0.13-2.01,0.38c-0.46,0.25-0.68,0.66-0.68,1.22c0,0.46,0.16,0.84,0.47,1.14s0.72,0.56,1.2,0.78
			c0.48,0.21,1.32,0.56,2.51,1.04c1.9,0.76,3.39,1.49,4.48,2.18c1.09,0.7,1.91,1.53,2.47,2.51c0.56,0.98,0.84,2.21,0.84,3.71
			c0,2.28-0.85,4.12-2.57,5.53c-1.71,1.41-4.26,2.11-7.66,2.11C328.02,483.72,325.88,483.48,323.91,483z"/>
	</g>
	<polygon class="st1" points="200.76,96.93 214.23,124.22 244.34,128.59 222.55,149.83 227.7,179.83 200.76,165.67 173.83,179.83 
		178.97,149.83 157.18,128.59 187.29,124.22 	"/>
	<polygon class="st1" points="138.58,180.15 147.32,197.86 166.86,200.7 152.72,214.48 156.06,233.94 138.58,224.75 121.11,233.94 
		124.45,214.48 110.31,200.7 129.85,197.86 	"/>
	<polygon class="st1" points="268.68,180.15 277.42,197.86 296.95,200.7 282.82,214.48 286.15,233.94 268.68,224.75 251.2,233.94 
		254.54,214.48 240.4,200.7 259.94,197.86 	"/>
	<circle class="st2" cx="201.77" cy="213.97" r="121.96"/>
	<circle class="st3" cx="200.82" cy="200.58" r="121.96"/>
	<g>
		<path class="st3" d="M179.79,639.51c-4.11-3.82-6.17-9.72-6.17-17.7c0-6.13,1.16-11.34,3.47-15.62c2.31-4.28,5.33-7.48,9.05-9.6
			s7.7-3.18,11.94-3.18c3.55,0,6.65,0.38,9.31,1.13c2.65,0.75,5.05,1.86,7.19,3.32c0.58,0.44,0.88,0.92,0.88,1.46
			c0,0.44-0.22,1.05-0.66,1.83l-3.5,6.06c-0.39,0.68-0.85,1.02-1.39,1.02c-0.34,0-0.9-0.19-1.68-0.58
			c-2.48-1.31-5.26-1.97-8.32-1.97c-2.43,0-4.46,0.54-6.1,1.61c-1.63,1.07-3.05,2.65-4.27,4.75c1.41-0.73,3.14-1.34,5.18-1.83
			c2.04-0.49,3.99-0.73,5.84-0.73c4.04,0,7.41,0.71,10.11,2.12c2.7,1.41,4.71,3.3,6.02,5.66c1.31,2.36,1.97,4.98,1.97,7.85
			c0,6.67-1.98,11.69-5.95,15.07c-3.97,3.38-9.58,5.07-16.83,5.07C189.27,645.24,183.9,643.33,179.79,639.51z M200.01,631.29
			c0.8-1.12,1.21-2.9,1.21-5.33s-0.4-4.21-1.21-5.33c-0.8-1.12-2.15-1.68-4.05-1.68c-1.7,0-2.93,0.56-3.69,1.68
			c-0.75,1.12-1.13,2.9-1.13,5.33s0.38,4.21,1.13,5.33c0.75,1.12,1.98,1.68,3.69,1.68C197.86,632.97,199.21,632.42,200.01,631.29z"
			/>
	</g>
	<g>
		<g>
			<circle class="st170" cx="200.5" cy="199.5" r="85.5"/>
		</g>
		<path class="st0" d="M249.1,198.25h-75.61c-6.6,0-12-5.4-12-12v-19.58c0-6.6,5.4-12,12-12h75.61c6.6,0,12,5.4,12,12v19.58
			C261.1,192.85,255.7,198.25,249.1,198.25z"/>
		<g>
			<path class="st3" d="M176.31,189.79c-0.37-0.39-0.56-0.98-0.56-1.79v-23.49c0-0.8,0.19-1.4,0.56-1.79
				c0.37-0.39,1.02-0.58,1.93-0.58h9.92c4.15,0,7.17,0.82,9.07,2.47c1.89,1.65,2.84,4.13,2.84,7.45s-0.95,5.8-2.84,7.43
				c-1.9,1.63-4.91,2.45-9.03,2.45h-2.49V188c0,0.8-0.19,1.4-0.56,1.79c-0.37,0.39-1.03,0.58-1.97,0.58h-4.94
				C177.32,190.37,176.68,190.18,176.31,189.79z M187.28,174.89c0.88,0,1.58-0.23,2.1-0.71c0.51-0.47,0.77-1.18,0.77-2.12
				c0-0.97-0.26-1.69-0.77-2.16c-0.51-0.47-1.21-0.71-2.1-0.71h-2.82v5.69H187.28z"/>
			<path class="st3" d="M196.33,189.5c0-0.25,0.07-0.55,0.21-0.91l10.33-24.86c0.25-0.58,0.53-0.99,0.85-1.22
				c0.32-0.24,0.77-0.35,1.35-0.35h4.52c0.58,0,1.03,0.12,1.35,0.35s0.6,0.64,0.85,1.22l10.29,24.86c0.14,0.36,0.21,0.66,0.21,0.91
				c0,0.58-0.3,0.87-0.91,0.87h-7.8c-0.86,0-1.4-0.37-1.62-1.12l-1-3.07h-7.35l-0.96,3.07c-0.22,0.75-0.76,1.12-1.62,1.12h-7.8
				C196.64,190.37,196.33,190.08,196.33,189.5z M212.93,179.62l-1.62-5.15l-1.62,5.15H212.93z"/>
			<path class="st3" d="M231.63,189.79c-0.37-0.39-0.56-0.98-0.56-1.79v-7.51l-9.67-16.56c-0.17-0.3-0.25-0.59-0.25-0.87
				c0-0.61,0.32-0.91,0.96-0.91h7.8c0.42,0,0.73,0.09,0.95,0.27s0.44,0.46,0.66,0.85l4.52,8.13l4.52-8.13
				c0.22-0.39,0.44-0.67,0.66-0.85s0.54-0.27,0.96-0.27h7.8c0.64,0,0.96,0.3,0.96,0.91c0,0.28-0.08,0.57-0.25,0.87l-9.67,16.56V188
				c0,0.8-0.19,1.4-0.56,1.79c-0.37,0.39-1.03,0.58-1.97,0.58h-4.94C232.65,190.37,232.01,190.18,231.63,189.79z"/>
		</g>
		<g>
			<polygon class="st3" points="183.18,203.46 205.64,195.35 201.44,218.86 197.23,242.36 178.98,226.97 160.72,211.58 			"/>
			
				<rect x="158" y="226.56" transform="matrix(0.6511 -0.759 0.759 0.6511 -118.3229 212.084)" class="st3" width="27.02" height="16.36"/>
		</g>
	</g>
</g>
</svg>
