<?xml version="1.0" encoding="utf-8"?>
<!-- Generator: Adobe Illustrator 23.0.0, SVG Export Plug-In . SVG Version: 6.00 Build 0)  -->
<svg version="1.1" id="Capa_1" xmlns="http://www.w3.org/2000/svg" xmlns:xlink="http://www.w3.org/1999/xlink" x="0px" y="0px"
	 viewBox="0 0 400 702" style="enable-background:new 0 0 400 702;" xml:space="preserve">
<style type="text/css">
	.st0{fill:#0085B0;}
	.st1{fill:#E0EF18;}
	.st2{fill:#CECECE;}
	.st3{fill:#FFFFFF;}
	.st4{fill:#F2F2F2;}
	.st5{fill:#EACCB0;}
	.st6{fill:#9B9B9B;}
	.st7{fill:#939393;}
	.st8{fill:#EFEFEF;}
	.st9{fill:#828282;}
	.st10{fill:#2C2A2D;}
	.st11{fill:#202021;}
	.st12{fill:#F2D4B6;}
	.st13{fill:#534D46;}
	.st14{fill:#E8D313;}
	.st15{fill:#2ACCFF;}
	.st16{fill:#4E4F4F;}
	.st17{fill:#003A94;}
	.st18{fill:#00D13C;}
	.st19{fill:#15682A;}
	.st20{fill:#D40000;}
	.st21{fill:#505050;}
	.st22{fill:#DFDFDF;}
	.st23{fill:none;}
	.st24{fill:#636363;}
	.st25{fill:#6C92D5;}
	.st26{fill:#22272F;}
	.st27{fill:#1B2538;}
	.st28{fill:#253452;}
	.st29{fill:#F9F9F9;}
	.st30{fill:#2D3543;}
	.st31{fill:#2A3D60;}
	.st32{fill:#587955;}
	.st33{fill:#CD7054;}
	.st34{fill:#F1CC4B;}
	.st35{fill:#ACACAC;}
	.st36{fill:#AAE528;}
	.st37{fill:#28CEBA;}
	.st38{fill:#DB143F;}
	.st39{fill:#53C2C9;}
	.st40{fill:#FFB412;}
	.st41{fill:#866A5E;}
	.st42{fill:#F7DDCB;}
	.st43{fill:#FFE6D4;}
	.st44{fill:#F5F5F5;}
	.st45{fill:#1A2830;}
	.st46{fill:#24353F;}
	.st47{fill:#132026;}
	.st48{fill:#F9FF03;}
	.st49{fill:#272728;}
	.st50{fill:#1E1D1E;}
	.st51{fill:#160423;}
	.st52{fill-rule:evenodd;clip-rule:evenodd;fill:#FFFFFF;}
	.st53{fill-rule:evenodd;clip-rule:evenodd;fill:#1996B8;}
	.st54{fill:#0C387D;}
	.st55{fill:#C69A81;}
	.st56{fill:#D1A385;}
	.st57{fill:#EAEAEA;}
	.st58{fill:#093E8C;}
	.st59{fill:#0B2A62;}
	.st60{fill:#D32A3B;}
	.st61{fill:#827C7D;}
	.st62{opacity:0.7;fill:#7F7F7F;}
	.st63{fill:#FDFDFD;}
	.st64{fill:#DAA449;}
	.st65{fill:#DD9225;}
	.st66{opacity:0.3;}
	.st67{fill:#425793;}
	.st68{opacity:0.8;}
	.st69{filter:url(#Adobe_OpacityMaskFilter);}
	.st70{opacity:0.15;mask:url(#SVGID_1_);}
	.st71{fill:#090B00;}
	.st72{opacity:0.1;}
	.st73{fill:#211915;}
	.st74{filter:url(#Adobe_OpacityMaskFilter_1_);}
	.st75{opacity:0.15;mask:url(#SVGID_2_);}
	.st76{fill:#AF3623;}
	.st77{filter:url(#Adobe_OpacityMaskFilter_2_);}
	.st78{opacity:0.15;mask:url(#SVGID_3_);}
	.st79{filter:url(#Adobe_OpacityMaskFilter_3_);}
	.st80{opacity:0.15;mask:url(#SVGID_4_);}
	.st81{fill:#456495;}
	.st82{filter:url(#Adobe_OpacityMaskFilter_4_);}
	.st83{opacity:0.15;mask:url(#SVGID_5_);}
	.st84{filter:url(#Adobe_OpacityMaskFilter_5_);}
	.st85{opacity:0.15;mask:url(#SVGID_6_);}
	.st86{fill:#76A9DA;}
	.st87{filter:url(#Adobe_OpacityMaskFilter_6_);}
	.st88{opacity:0.15;mask:url(#SVGID_7_);}
	.st89{filter:url(#Adobe_OpacityMaskFilter_7_);}
	.st90{opacity:0.15;mask:url(#SVGID_8_);}
	.st91{fill:#1F3642;}
	.st92{fill:#A9BDDA;}
	.st93{opacity:0.46;fill:#A6B4BC;}
	.st94{fill:#74C475;}
	.st95{fill:#221F21;}
	.st96{fill:#2D2D2D;}
	.st97{fill:#1C1B1A;}
	.st98{fill:#77181C;}
	.st99{fill:#262525;}
	.st100{fill:#11100F;}
	.st101{opacity:0.18;}
	.st102{opacity:0.38;}
	.st103{fill:#0A5B1F;}
	.st104{opacity:0.27;}
	.st105{opacity:0.48;}
	.st106{fill:#0A4654;}
	.st107{fill:#C2C6C6;}
	.st108{fill:#E5E5E5;stroke:#FFFFFF;stroke-miterlimit:10;}
	.st109{fill:#ACB4B5;}
	.st110{fill:#7F8384;}
	.st111{fill:#15772F;}
	.st112{fill:#F4F4F4;}
	.st113{fill:#53B8DB;}
	.st114{fill:#06EF42;}
	.st115{fill:#E7ED07;}
	.st116{fill:#CCCCCA;}
	.st117{fill:#EADF13;}
	.st118{fill:#C2C2C2;}
	.st119{fill:#85B681;}
	.st120{fill:#A1DC9B;}
	.st121{fill:#90C58B;}
	.st122{fill:#22241F;}
	.st123{opacity:0.5;}
	.st124{fill:#A2CADE;}
	.st125{fill:#E9E9E9;}
	.st126{fill:#D9D9D9;}
	.st127{fill:#CDCDCD;}
	.st128{opacity:0.34;fill:#F0F0F0;}
	.st129{fill:#5A5B5A;}
	.st130{fill:#FFE600;}
	.st131{fill:#DB1F59;}
	.st132{fill:#727272;}
	.st133{fill:#207235;}
	.st134{fill:#A3A3A3;}
	.st135{fill:#BCBCBC;}
	.st136{fill:#0A511C;}
	.st137{fill:#F9FF00;}
	.st138{fill:#D59F6D;}
	.st139{fill:#C0804A;}
	.st140{fill:#E6BA8A;}
	.st141{fill:#BE3ACC;}
	.st142{fill:#FFFFFF;stroke:#443F0C;stroke-width:9;stroke-miterlimit:10;}
	.st143{fill:none;stroke:#443F0C;stroke-width:9;stroke-miterlimit:10;}
	.st144{fill:#170623;}
	.st145{fill:#158231;}
	.st146{fill:#C89D76;}
	.st147{opacity:0.4;}
	.st148{fill:#ADADAD;}
	.st149{fill:#EDC3A6;}
	.st150{opacity:0.69;}
	.st151{fill:#E5D3D6;}
	.st152{opacity:0.44;}
	.st153{fill:#A5A5A5;}
	.st154{fill:#DDE5E4;}
	.st155{fill:#5C9169;}
	.st156{fill:#934215;}
	.st157{fill:#47413B;}
	.st158{fill:#601A1F;}
	.st159{fill:#044554;}
	.st160{opacity:0.7;}
	.st161{fill:#7F7F7F;}
	.st162{fill:#6B8A69;}
	.st163{opacity:0.24;fill:#848D90;}
	.st164{opacity:0.4;fill:#848D90;}
	.st165{fill:#F2D5D5;}
	.st166{fill:#485CC1;}
	.st167{fill:#C6CBE0;}
	.st168{fill:#8B909E;}
	.st169{fill:#53BC1B;}
	.st170{fill:#11565B;}
	.st171{fill:#67A06D;}
	.st172{fill:#FFEC00;}
	.st173{fill:#77A007;}
	.st174{fill:#E50731;}
	.st175{fill:#266472;}
	.st176{fill:#D4D4D4;}
	.st177{fill:#0E9932;}
	.st178{fill:#87DD24;}
	.st179{fill:#76A172;}
	.st180{fill:#62835F;}
	.st181{fill:#96D090;}
	.st182{fill:#D6D6D6;}
	.st183{fill:#606060;}
	.st184{fill:#494949;}
	.st185{fill:#29E55A;}
	.st186{fill:#2C703D;}
	.st187{fill:#DD0744;}
	.st188{fill:#EDEDED;}
	.st189{fill:#2A5936;}
	.st190{fill:#B9BBC1;}
	.st191{fill:#FFD79E;}
	.st192{fill:#FFE6C2;}
	.st193{fill:#2CBB55;}
	.st194{fill:#5C412D;}
	.st195{fill:#EC0000;}
	.st196{fill:#DD2626;}
	.st197{fill:#EA9334;}
	.st198{fill:#FCC232;}
	.st199{fill:#F9B234;}
	.st200{fill:#F7A037;}
	.st201{fill:#E0E0E0;}
</style>
<g>
	<g>
		<path class="st0" d="M9.5,209.36c0,22,13.29,27.86,29.54,13.03c0,0,156.99-143.3,353.09,26.97V55c0-22-18-40-40-40H49.5
			c-22,0-40,18-40,40V209.36z"/>
	</g>
	<g>
		<path class="st0" d="M391.66,647c0,22-18,40-40,40H49.98c-22,0-40-18-40-40v-46.27c0-22,18-40,40-40h301.68c22,0,40,18,40,40V647z
			"/>
	</g>
	<g>
		<path d="M41.17,416.15c0-0.23,0.06-0.51,0.19-0.84l9.46-22.76c0.23-0.53,0.49-0.91,0.78-1.12c0.29-0.21,0.7-0.32,1.23-0.32h4.14
			c0.53,0,0.94,0.11,1.23,0.32s0.55,0.59,0.78,1.12l9.42,22.76c0.13,0.33,0.19,0.61,0.19,0.84c0,0.53-0.28,0.8-0.84,0.8h-7.14
			c-0.79,0-1.28-0.34-1.48-1.03l-0.91-2.81h-6.73l-0.87,2.81c-0.2,0.68-0.7,1.03-1.48,1.03h-7.14
			C41.45,416.95,41.17,416.69,41.17,416.15z M56.37,407.11l-1.48-4.71l-1.48,4.71H56.37z"/>
		<path d="M71.02,416.42c-0.34-0.35-0.51-0.9-0.51-1.63v-21.51c0-0.74,0.17-1.28,0.51-1.63c0.34-0.36,0.93-0.53,1.77-0.53h8.74
			c8.94,0,13.41,4.31,13.41,12.92c0,4.26-1.15,7.47-3.44,9.65c-2.29,2.18-5.62,3.27-9.98,3.27h-8.74
			C71.95,416.95,71.36,416.78,71.02,416.42z M81.87,410.49c1.42,0,2.44-0.47,3.06-1.41c0.62-0.94,0.93-2.62,0.93-5.05
			s-0.31-4.12-0.93-5.05c-0.62-0.94-1.64-1.41-3.06-1.41h-2.24v12.92H81.87z"/>
		<path d="M97.35,416.42c-0.34-0.35-0.51-0.9-0.51-1.63v-21.55c0-0.73,0.17-1.27,0.51-1.62c0.34-0.34,0.94-0.51,1.81-0.51h4.37
			c0.56,0,1,0.07,1.33,0.21s0.58,0.41,0.76,0.82l4.45,11.13l4.45-11.13c0.18-0.41,0.43-0.68,0.76-0.82s0.77-0.21,1.33-0.21h4.37
			c0.86,0,1.46,0.17,1.81,0.51c0.34,0.34,0.51,0.88,0.51,1.62v21.55c0,0.74-0.17,1.28-0.51,1.63c-0.34,0.36-0.93,0.53-1.77,0.53
			h-3.65c-0.84,0-1.43-0.18-1.79-0.53c-0.36-0.35-0.53-0.9-0.53-1.63v-10.37l-2.24,5.17c-0.3,0.74-0.63,1.26-0.99,1.58
			c-0.35,0.32-0.94,0.47-1.75,0.47c-0.81,0-1.39-0.16-1.75-0.47c-0.36-0.32-0.68-0.84-0.99-1.58l-2.24-5.17v10.37
			c0,0.74-0.17,1.28-0.51,1.63c-0.34,0.36-0.94,0.53-1.8,0.53h-3.65C98.28,416.95,97.7,416.78,97.35,416.42z"/>
		<path d="M126.46,416.42c-0.34-0.35-0.51-0.9-0.51-1.63v-21.51c0-0.74,0.17-1.28,0.51-1.63c0.34-0.36,0.93-0.53,1.77-0.53h4.52
			c0.86,0,1.46,0.17,1.8,0.51s0.51,0.89,0.51,1.65v21.51c0,0.74-0.17,1.28-0.51,1.63c-0.34,0.36-0.94,0.53-1.8,0.53h-4.52
			C127.39,416.95,126.8,416.78,126.46,416.42z"/>
		<path d="M138.24,416.42c-0.34-0.35-0.51-0.9-0.51-1.63v-21.55c0-0.73,0.17-1.27,0.51-1.62s0.94-0.51,1.8-0.51h3.61
			c0.53,0,0.94,0.07,1.24,0.21s0.58,0.41,0.86,0.82l6.88,10.22v-9.08c0-0.74,0.17-1.28,0.51-1.63c0.34-0.36,0.93-0.53,1.77-0.53
			h4.52c0.86,0,1.46,0.17,1.8,0.51s0.51,0.89,0.51,1.65v21.55c0,0.74-0.17,1.27-0.51,1.62c-0.34,0.34-0.94,0.51-1.8,0.51h-3.61
			c-0.53,0-0.94-0.07-1.24-0.21c-0.29-0.14-0.58-0.41-0.85-0.82l-6.88-10.22v9.12c0,0.74-0.17,1.27-0.51,1.62
			c-0.34,0.34-0.94,0.51-1.8,0.51h-4.52C139.17,416.95,138.58,416.78,138.24,416.42z"/>
		<path d="M164.92,416.42c-0.34-0.35-0.51-0.9-0.51-1.63v-21.51c0-0.74,0.17-1.28,0.51-1.63c0.34-0.36,0.93-0.53,1.77-0.53h4.52
			c0.86,0,1.46,0.17,1.8,0.51s0.51,0.89,0.51,1.65v21.51c0,0.74-0.17,1.28-0.51,1.63c-0.34,0.36-0.94,0.53-1.8,0.53h-4.52
			C165.85,416.95,165.26,416.78,164.92,416.42z"/>
		<path d="M181.01,416.8c-1.98-0.48-3.57-1.15-4.79-2.01c-0.51-0.35-0.76-0.7-0.76-1.03c0-0.23,0.09-0.47,0.27-0.72l2.21-3.46
			c0.23-0.33,0.46-0.49,0.68-0.49c0.2,0,0.44,0.09,0.72,0.27c0.91,0.56,1.96,0.99,3.14,1.31c1.18,0.32,2.32,0.47,3.44,0.47
			c0.94,0,1.61-0.13,2.03-0.38c0.42-0.25,0.63-0.65,0.63-1.18c0-0.58-0.28-1.05-0.84-1.41c-0.56-0.35-1.52-0.8-2.89-1.33
			c-2.56-0.99-4.57-2.11-6.04-3.36s-2.2-2.92-2.2-5c0-2.63,0.92-4.62,2.75-5.95c1.84-1.33,4.31-2,7.43-2c2.18,0,4.03,0.19,5.57,0.57
			s2.87,0.98,4.01,1.79c0.51,0.36,0.76,0.7,0.76,1.03c0,0.23-0.09,0.47-0.27,0.72l-2.21,3.46c-0.23,0.35-0.46,0.53-0.68,0.53
			c-0.15,0-0.39-0.1-0.72-0.3c-0.61-0.41-1.33-0.74-2.17-1.01s-1.74-0.4-2.7-0.4c-0.89,0-1.56,0.13-2.01,0.38
			c-0.46,0.25-0.68,0.66-0.68,1.22c0,0.46,0.16,0.84,0.47,1.14c0.32,0.3,0.71,0.56,1.2,0.78c0.48,0.21,1.32,0.56,2.51,1.04
			c1.9,0.76,3.39,1.49,4.48,2.18c1.09,0.7,1.91,1.53,2.47,2.51c0.56,0.98,0.84,2.21,0.84,3.71c0,2.28-0.85,4.12-2.56,5.53
			s-4.26,2.11-7.66,2.11C185.13,417.52,182.98,417.28,181.01,416.8z"/>
		<path d="M205.16,416.42c-0.34-0.35-0.51-0.9-0.51-1.63v-17.21h-5.47c-0.81,0-1.36-0.17-1.65-0.51c-0.29-0.34-0.44-0.89-0.44-1.65
			v-2.13c0-0.76,0.15-1.31,0.44-1.65s0.84-0.51,1.65-0.51h20.06c0.81,0,1.36,0.17,1.65,0.51c0.29,0.34,0.44,0.89,0.44,1.65v2.13
			c0,0.76-0.15,1.31-0.44,1.65c-0.29,0.34-0.84,0.51-1.65,0.51h-5.47v17.21c0,0.74-0.17,1.28-0.51,1.63
			c-0.34,0.36-0.94,0.53-1.8,0.53h-4.52C206.09,416.95,205.5,416.78,205.16,416.42z"/>
		<path d="M222.98,416.42c-0.34-0.35-0.51-0.9-0.51-1.63v-21.51c0-0.74,0.17-1.28,0.51-1.63c0.34-0.36,0.93-0.53,1.77-0.53h9.08
			c3.8,0,6.57,0.75,8.3,2.26c1.74,1.51,2.6,3.78,2.6,6.82c0,1.82-0.31,3.36-0.93,4.62c-0.62,1.25-1.58,2.24-2.87,2.94l3.53,7.56
			c0.1,0.2,0.15,0.43,0.15,0.68c0,0.28-0.1,0.51-0.29,0.68c-0.19,0.18-0.44,0.27-0.74,0.27h-6.42c-0.41,0-0.73-0.06-0.97-0.17
			c-0.24-0.11-0.41-0.31-0.51-0.59l-2.81-7.07h-1.29v5.66c0,0.74-0.17,1.28-0.51,1.63c-0.34,0.36-0.94,0.53-1.81,0.53h-4.52
			C223.91,416.95,223.32,416.78,222.98,416.42z M233.03,402.78c0.81,0,1.45-0.21,1.92-0.65c0.47-0.43,0.7-1.08,0.7-1.94
			c0-0.89-0.23-1.54-0.7-1.98c-0.47-0.43-1.11-0.65-1.92-0.65h-2.58v5.21H233.03z"/>
		<path d="M244.16,416.15c0-0.23,0.06-0.51,0.19-0.84l9.46-22.76c0.23-0.53,0.49-0.91,0.78-1.12c0.29-0.21,0.7-0.32,1.23-0.32h4.14
			c0.53,0,0.94,0.11,1.23,0.32s0.55,0.59,0.78,1.12l9.42,22.76c0.13,0.33,0.19,0.61,0.19,0.84c0,0.53-0.28,0.8-0.84,0.8h-7.14
			c-0.79,0-1.28-0.34-1.48-1.03l-0.91-2.81h-6.73l-0.87,2.81c-0.2,0.68-0.7,1.03-1.48,1.03H245
			C244.44,416.95,244.16,416.69,244.16,416.15z M259.36,407.11l-1.48-4.71l-1.48,4.71H259.36z"/>
		<path d="M274.49,414.12c-2.56-2.27-3.84-5.63-3.84-10.09c0-4.48,1.24-7.85,3.71-10.11c2.47-2.25,6-3.38,10.58-3.38
			c2.08,0,3.93,0.2,5.55,0.61s2.98,0.97,4.07,1.71c0.3,0.23,0.46,0.48,0.46,0.76c0,0.23-0.11,0.54-0.34,0.95l-1.9,3.27
			c-0.2,0.36-0.44,0.53-0.72,0.53c-0.18,0-0.47-0.1-0.88-0.3c-0.71-0.35-1.45-0.63-2.22-0.84s-1.68-0.3-2.72-0.3
			c-2.1,0-3.71,0.61-4.83,1.82s-1.67,2.98-1.67,5.28c0,2.28,0.61,4.03,1.82,5.26c1.22,1.23,2.88,1.84,4.98,1.84
			c1.82,0,3.5-0.38,5.02-1.14c0.4-0.2,0.7-0.3,0.87-0.3c0.28,0,0.52,0.18,0.72,0.53l1.9,3.27c0.23,0.41,0.34,0.72,0.34,0.95
			c0,0.28-0.15,0.53-0.46,0.76c-1.09,0.74-2.46,1.3-4.1,1.71s-3.51,0.61-5.59,0.61C280.63,417.52,277.05,416.39,274.49,414.12z"/>
		<path d="M297.8,416.42c-0.34-0.35-0.51-0.9-0.51-1.63v-21.51c0-0.74,0.17-1.28,0.51-1.63c0.34-0.36,0.93-0.53,1.77-0.53h4.52
			c0.86,0,1.46,0.17,1.81,0.51s0.51,0.89,0.51,1.65v21.51c0,0.74-0.17,1.28-0.51,1.63c-0.34,0.36-0.94,0.53-1.81,0.53h-4.52
			C298.73,416.95,298.14,416.78,297.8,416.42z"/>
		<path d="M311.8,414.01c-2.33-2.34-3.5-5.67-3.5-9.97s1.16-7.63,3.5-9.98c2.33-2.34,5.75-3.51,10.26-3.51
			c4.51,0,7.93,1.17,10.26,3.51c2.33,2.34,3.5,5.67,3.5,9.98s-1.17,7.63-3.5,9.97c-2.33,2.34-5.75,3.52-10.26,3.52
			C317.55,417.52,314.13,416.35,311.8,414.01z M325.64,409.37c0.73-1.18,1.1-2.96,1.1-5.34c0-2.41-0.37-4.19-1.1-5.36
			c-0.74-1.17-1.93-1.75-3.57-1.75c-1.65,0-2.84,0.58-3.57,1.75c-0.73,1.17-1.1,2.95-1.1,5.36c0,2.38,0.37,4.16,1.1,5.34
			s1.92,1.77,3.57,1.77C323.71,411.14,324.9,410.55,325.64,409.37z M318.04,387.92c0-0.2,0.04-0.42,0.11-0.65l1.6-4.41
			c0.2-0.58,0.44-0.98,0.72-1.18c0.28-0.2,0.8-0.3,1.56-0.3h5.43c0.53,0,0.95,0.09,1.25,0.28c0.3,0.19,0.46,0.46,0.46,0.82
			c0,0.3-0.1,0.62-0.3,0.95l-2.43,4.1c-0.35,0.61-0.7,1-1.03,1.18c-0.33,0.18-0.92,0.27-1.79,0.27h-4.07
			C318.54,388.98,318.04,388.63,318.04,387.92z"/>
		<path d="M338.23,416.42c-0.34-0.35-0.51-0.9-0.51-1.63v-21.55c0-0.73,0.17-1.27,0.51-1.62c0.34-0.34,0.94-0.51,1.81-0.51h3.61
			c0.53,0,0.94,0.07,1.23,0.21s0.58,0.41,0.86,0.82l6.88,10.22v-9.08c0-0.74,0.17-1.28,0.51-1.63c0.34-0.36,0.93-0.53,1.77-0.53
			h4.52c0.86,0,1.46,0.17,1.8,0.51s0.51,0.89,0.51,1.65v21.55c0,0.74-0.17,1.27-0.51,1.62c-0.34,0.34-0.94,0.51-1.8,0.51h-3.61
			c-0.53,0-0.94-0.07-1.24-0.21c-0.29-0.14-0.58-0.41-0.85-0.82l-6.88-10.22v9.12c0,0.74-0.17,1.27-0.51,1.62
			c-0.34,0.34-0.94,0.51-1.81,0.51H340C339.16,416.95,338.58,416.78,338.23,416.42z"/>
		<path d="M52.82,462.02c-0.34-0.35-0.51-0.9-0.51-1.63v-21.51c0-0.73,0.17-1.28,0.51-1.63s0.93-0.53,1.77-0.53h8.74
			c8.94,0,13.41,4.31,13.41,12.92c0,4.26-1.15,7.47-3.44,9.65c-2.29,2.18-5.62,3.27-9.98,3.27h-8.74
			C53.75,462.55,53.16,462.38,52.82,462.02z M63.67,456.09c1.42,0,2.44-0.47,3.06-1.41c0.62-0.94,0.93-2.62,0.93-5.05
			s-0.31-4.12-0.93-5.05c-0.62-0.94-1.64-1.41-3.06-1.41h-2.24v12.92H63.67z"/>
		<path d="M79.15,462.02c-0.34-0.35-0.51-0.9-0.51-1.63v-21.51c0-0.73,0.17-1.28,0.51-1.63c0.34-0.35,0.93-0.53,1.77-0.53h15.73
			c0.81,0,1.36,0.17,1.65,0.51c0.29,0.34,0.44,0.89,0.44,1.65v2.13c0,0.76-0.15,1.31-0.44,1.65c-0.29,0.34-0.84,0.51-1.65,0.51
			h-8.89v3.27h5.47c0.81,0,1.36,0.17,1.65,0.51c0.29,0.34,0.44,0.89,0.44,1.65v2.05c0,0.76-0.15,1.31-0.44,1.65
			c-0.29,0.34-0.84,0.51-1.65,0.51h-5.47v3.27h8.85c0.81,0,1.36,0.17,1.65,0.51s0.44,0.89,0.44,1.65v2.13
			c0,0.76-0.15,1.31-0.44,1.65c-0.29,0.34-0.84,0.51-1.65,0.51h-15.7C80.08,462.55,79.49,462.38,79.15,462.02z"/>
		<path d="M116.67,462.4c-1.98-0.48-3.57-1.15-4.79-2.01c-0.51-0.35-0.76-0.7-0.76-1.03c0-0.23,0.09-0.47,0.27-0.72l2.2-3.46
			c0.23-0.33,0.46-0.49,0.68-0.49c0.2,0,0.44,0.09,0.72,0.27c0.91,0.56,1.96,0.99,3.13,1.31c1.18,0.32,2.32,0.47,3.44,0.47
			c0.94,0,1.62-0.13,2.03-0.38c0.42-0.25,0.63-0.65,0.63-1.18c0-0.58-0.28-1.05-0.84-1.41c-0.56-0.35-1.52-0.8-2.89-1.33
			c-2.56-0.99-4.57-2.11-6.04-3.36c-1.47-1.25-2.21-2.92-2.21-5c0-2.63,0.92-4.62,2.76-5.95c1.84-1.33,4.31-2,7.43-2
			c2.18,0,4.03,0.19,5.57,0.57c1.53,0.38,2.87,0.98,4.01,1.79c0.51,0.35,0.76,0.7,0.76,1.03c0,0.23-0.09,0.47-0.27,0.72l-2.2,3.46
			c-0.23,0.35-0.46,0.53-0.68,0.53c-0.15,0-0.39-0.1-0.72-0.3c-0.61-0.41-1.33-0.74-2.17-1.01s-1.74-0.4-2.7-0.4
			c-0.89,0-1.56,0.13-2.01,0.38c-0.46,0.25-0.68,0.66-0.68,1.22c0,0.46,0.16,0.84,0.48,1.14c0.32,0.3,0.72,0.56,1.2,0.78
			c0.48,0.21,1.32,0.56,2.51,1.04c1.9,0.76,3.39,1.49,4.48,2.18c1.09,0.7,1.91,1.53,2.47,2.51c0.56,0.98,0.84,2.21,0.84,3.71
			c0,2.28-0.86,4.12-2.57,5.53s-4.26,2.11-7.66,2.11C120.79,463.12,118.65,462.88,116.67,462.4z"/>
		<path d="M137.95,459.61c-2.33-2.34-3.5-5.67-3.5-9.97s1.17-7.63,3.5-9.97c2.33-2.34,5.75-3.52,10.26-3.52
			c4.51,0,7.93,1.17,10.26,3.52c2.33,2.34,3.5,5.67,3.5,9.97s-1.17,7.63-3.5,9.97c-2.33,2.34-5.75,3.52-10.26,3.52
			C143.7,463.12,140.28,461.95,137.95,459.61z M151.79,454.97c0.73-1.18,1.1-2.96,1.1-5.34c0-2.41-0.37-4.19-1.1-5.36
			c-0.73-1.17-1.92-1.75-3.57-1.75c-1.65,0-2.84,0.58-3.57,1.75c-0.74,1.17-1.1,2.95-1.1,5.36c0,2.38,0.37,4.16,1.1,5.34
			c0.73,1.18,1.92,1.77,3.57,1.77C149.86,456.74,151.05,456.15,151.79,454.97z"/>
		<path d="M164.38,462.02c-0.34-0.35-0.51-0.9-0.51-1.63v-21.51c0-0.73,0.17-1.28,0.51-1.63s0.93-0.53,1.77-0.53h4.52
			c0.86,0,1.46,0.17,1.8,0.51s0.51,0.89,0.51,1.65v17.21h8.85c0.81,0,1.36,0.17,1.65,0.51s0.44,0.89,0.44,1.65v2.13
			c0,0.76-0.15,1.31-0.44,1.65c-0.29,0.34-0.84,0.51-1.65,0.51h-15.69C165.31,462.55,164.72,462.38,164.38,462.02z"/>
		<path d="M185.59,462.02c-0.34-0.35-0.51-0.9-0.51-1.63v-21.51c0-0.73,0.17-1.28,0.51-1.63c0.34-0.35,0.93-0.53,1.77-0.53h4.52
			c0.86,0,1.46,0.17,1.81,0.51s0.51,0.89,0.51,1.65v21.51c0,0.74-0.17,1.28-0.51,1.63c-0.34,0.36-0.94,0.53-1.81,0.53h-4.52
			C186.52,462.55,185.93,462.38,185.59,462.02z"/>
		<path d="M199.93,459.72c-2.56-2.27-3.84-5.63-3.84-10.09c0-4.48,1.23-7.85,3.71-10.11c2.47-2.25,6-3.38,10.58-3.38
			c2.08,0,3.93,0.2,5.55,0.61s2.98,0.98,4.07,1.71c0.3,0.23,0.46,0.48,0.46,0.76c0,0.23-0.11,0.54-0.34,0.95l-1.9,3.27
			c-0.2,0.36-0.44,0.53-0.72,0.53c-0.18,0-0.47-0.1-0.87-0.3c-0.71-0.35-1.45-0.63-2.22-0.84c-0.77-0.2-1.68-0.3-2.72-0.3
			c-2.1,0-3.71,0.61-4.83,1.82c-1.12,1.22-1.67,2.98-1.67,5.28c0,2.28,0.61,4.03,1.82,5.26c1.21,1.23,2.88,1.84,4.98,1.84
			c1.82,0,3.5-0.38,5.02-1.14c0.4-0.2,0.7-0.3,0.87-0.3c0.28,0,0.52,0.18,0.72,0.53l1.9,3.27c0.23,0.41,0.34,0.72,0.34,0.95
			c0,0.28-0.15,0.53-0.46,0.76c-1.09,0.74-2.46,1.3-4.1,1.71s-3.51,0.61-5.59,0.61C206.07,463.12,202.49,461.99,199.93,459.72z"/>
		<path d="M223.24,462.02c-0.34-0.35-0.51-0.9-0.51-1.63v-21.51c0-0.73,0.17-1.28,0.51-1.63s0.93-0.53,1.77-0.53h4.52
			c0.86,0,1.46,0.17,1.8,0.51s0.51,0.89,0.51,1.65v21.51c0,0.74-0.17,1.28-0.51,1.63c-0.34,0.36-0.94,0.53-1.8,0.53h-4.52
			C224.18,462.55,223.59,462.38,223.24,462.02z"/>
		<path d="M241.07,462.02c-0.34-0.35-0.51-0.9-0.51-1.63v-17.21h-5.47c-0.81,0-1.36-0.17-1.65-0.51c-0.29-0.34-0.44-0.89-0.44-1.65
			v-2.13c0-0.76,0.15-1.31,0.44-1.65s0.84-0.51,1.65-0.51h20.06c0.81,0,1.36,0.17,1.65,0.51c0.29,0.34,0.44,0.89,0.44,1.65v2.13
			c0,0.76-0.15,1.31-0.44,1.65c-0.29,0.34-0.84,0.51-1.65,0.51h-5.47v17.21c0,0.74-0.17,1.28-0.51,1.63
			c-0.34,0.36-0.94,0.53-1.8,0.53h-4.52C242,462.55,241.41,462.38,241.07,462.02z"/>
		<path d="M264.11,461.92c-1.88-0.8-3.33-1.95-4.37-3.46c-1.04-1.51-1.56-3.3-1.56-5.38v-14.21c0-0.73,0.17-1.28,0.51-1.63
			c0.34-0.35,0.93-0.53,1.77-0.53h4.52c0.86,0,1.46,0.17,1.81,0.51c0.34,0.34,0.51,0.89,0.51,1.65v14.33c0,1.19,0.3,2.08,0.89,2.66
			c0.6,0.58,1.41,0.87,2.45,0.87s1.86-0.29,2.45-0.87c0.6-0.58,0.89-1.47,0.89-2.66v-14.33c0-0.73,0.17-1.28,0.51-1.63
			s0.93-0.53,1.77-0.53h4.52c0.86,0,1.46,0.17,1.8,0.51s0.51,0.89,0.51,1.65v14.21c0,2.08-0.52,3.87-1.56,5.38
			c-1.04,1.51-2.5,2.66-4.37,3.46c-1.88,0.8-4.05,1.2-6.54,1.2S265.99,462.72,264.11,461.92z"/>
		<path d="M286.1,462.02c-0.34-0.35-0.51-0.9-0.51-1.63v-21.51c0-0.73,0.17-1.28,0.51-1.63s0.93-0.53,1.77-0.53h8.74
			c8.94,0,13.41,4.31,13.41,12.92c0,4.26-1.15,7.47-3.44,9.65c-2.29,2.18-5.62,3.27-9.98,3.27h-8.74
			C287.03,462.55,286.44,462.38,286.1,462.02z M296.94,456.09c1.42,0,2.44-0.47,3.06-1.41c0.62-0.94,0.93-2.62,0.93-5.05
			s-0.31-4.12-0.93-5.05c-0.62-0.94-1.64-1.41-3.06-1.41h-2.24v12.92H296.94z"/>
		<path d="M312.43,462.02c-0.34-0.35-0.51-0.9-0.51-1.63v-21.51c0-0.73,0.17-1.28,0.51-1.63s0.93-0.53,1.77-0.53h15.73
			c0.81,0,1.36,0.17,1.65,0.51c0.29,0.34,0.44,0.89,0.44,1.65v2.13c0,0.76-0.15,1.31-0.44,1.65c-0.29,0.34-0.84,0.51-1.65,0.51
			h-8.89v3.27h5.47c0.81,0,1.36,0.17,1.65,0.51c0.29,0.34,0.44,0.89,0.44,1.65v2.05c0,0.76-0.15,1.31-0.44,1.65
			c-0.29,0.34-0.84,0.51-1.65,0.51h-5.47v3.27h8.85c0.81,0,1.36,0.17,1.65,0.51s0.44,0.89,0.44,1.65v2.13
			c0,0.76-0.15,1.31-0.44,1.65c-0.29,0.34-0.84,0.51-1.65,0.51H314.2C313.36,462.55,312.77,462.38,312.43,462.02z"/>
		<path d="M337.74,462.42c-1.72-0.42-3.1-1-4.16-1.75c-0.44-0.31-0.66-0.6-0.66-0.89c0-0.2,0.08-0.41,0.23-0.63l1.91-3
			c0.2-0.29,0.4-0.43,0.59-0.43c0.18,0,0.38,0.08,0.63,0.23c0.79,0.48,1.7,0.86,2.72,1.14c1.02,0.28,2.02,0.41,2.99,0.41
			c0.81,0,1.4-0.11,1.77-0.33c0.36-0.22,0.54-0.56,0.54-1.02c0-0.51-0.24-0.91-0.73-1.22c-0.48-0.31-1.32-0.69-2.51-1.16
			c-2.22-0.86-3.97-1.83-5.25-2.92c-1.28-1.09-1.91-2.54-1.91-4.34c0-2.29,0.8-4.01,2.39-5.16c1.59-1.16,3.75-1.73,6.45-1.73
			c1.89,0,3.5,0.17,4.83,0.49c1.33,0.33,2.49,0.85,3.48,1.55c0.44,0.31,0.66,0.61,0.66,0.89c0,0.2-0.08,0.41-0.23,0.63l-1.91,3
			c-0.2,0.31-0.4,0.46-0.59,0.46c-0.13,0-0.34-0.09-0.63-0.26c-0.53-0.35-1.16-0.64-1.88-0.88c-0.72-0.23-1.51-0.35-2.34-0.35
			c-0.77,0-1.35,0.11-1.75,0.33c-0.4,0.22-0.59,0.57-0.59,1.06c0,0.4,0.14,0.73,0.41,0.99c0.28,0.26,0.62,0.49,1.04,0.68
			c0.42,0.19,1.14,0.49,2.18,0.91c1.65,0.66,2.95,1.29,3.89,1.9c0.95,0.61,1.66,1.33,2.15,2.18c0.48,0.85,0.72,1.92,0.72,3.22
			c0,1.98-0.74,3.58-2.23,4.8c-1.49,1.22-3.7,1.83-6.65,1.83C341.32,463.05,339.46,462.84,337.74,462.42z"/>
	</g>
	<polygon class="st1" points="200.76,96.93 214.23,124.22 244.34,128.59 222.55,149.83 227.7,179.83 200.76,165.67 173.83,179.83 
		178.97,149.83 157.18,128.59 187.29,124.22 	"/>
	<polygon class="st1" points="138.58,180.15 147.32,197.86 166.86,200.7 152.72,214.48 156.06,233.94 138.58,224.75 121.11,233.94 
		124.45,214.48 110.31,200.7 129.85,197.86 	"/>
	<polygon class="st1" points="268.68,180.15 277.42,197.86 296.95,200.7 282.82,214.48 286.15,233.94 268.68,224.75 251.2,233.94 
		254.54,214.48 240.4,200.7 259.94,197.86 	"/>
	<circle class="st2" cx="201.77" cy="213.97" r="121.96"/>
	<circle class="st3" cx="200.82" cy="200.58" r="121.96"/>
	<g>
		<path class="st3" d="M179.79,639.51c-4.11-3.82-6.17-9.72-6.17-17.7c0-6.13,1.16-11.34,3.47-15.62c2.31-4.28,5.33-7.48,9.05-9.6
			s7.7-3.18,11.94-3.18c3.55,0,6.65,0.38,9.31,1.13c2.65,0.75,5.05,1.86,7.19,3.32c0.58,0.44,0.88,0.92,0.88,1.46
			c0,0.44-0.22,1.05-0.66,1.83l-3.5,6.06c-0.39,0.68-0.85,1.02-1.39,1.02c-0.34,0-0.9-0.19-1.68-0.58
			c-2.48-1.31-5.26-1.97-8.32-1.97c-2.43,0-4.46,0.54-6.1,1.61c-1.63,1.07-3.05,2.65-4.27,4.75c1.41-0.73,3.14-1.34,5.18-1.83
			c2.04-0.49,3.99-0.73,5.84-0.73c4.04,0,7.41,0.71,10.11,2.12c2.7,1.41,4.71,3.3,6.02,5.66c1.31,2.36,1.97,4.98,1.97,7.85
			c0,6.67-1.98,11.69-5.95,15.07c-3.97,3.38-9.58,5.07-16.83,5.07C189.27,645.24,183.9,643.33,179.79,639.51z M200.01,631.29
			c0.8-1.12,1.21-2.9,1.21-5.33s-0.4-4.21-1.21-5.33c-0.8-1.12-2.15-1.68-4.05-1.68c-1.7,0-2.93,0.56-3.69,1.68
			c-0.75,1.12-1.13,2.9-1.13,5.33s0.38,4.21,1.13,5.33c0.75,1.12,1.98,1.68,3.69,1.68C197.86,632.97,199.21,632.42,200.01,631.29z"
			/>
	</g>
	<g>
		<circle id="XMLID_143_" class="st4" cx="190.98" cy="210.19" r="67.25"/>
		<g id="XMLID_109_">
			<path id="XMLID_141_" class="st23" d="M209.68,207.55c0.88-2.13,1.32-3.82,1.41-4.27c-0.08-0.03-0.15-0.07-0.19-0.13
				c-0.14-0.21,0.27-2.38,0.09-2.53c-0.02-0.02-0.05-0.03-0.07-0.04c-0.25,0.77-0.7,1.4-1.22,1.85
				C209.7,204.1,209.69,205.82,209.68,207.55z"/>
			<path id="XMLID_139_" class="st41" d="M206.66,203.29c-1-0.71-0.96,9.37-5.09,13.35c-0.3,0.29-0.6,0.57-0.91,0.84
				c-0.31,0.27-0.64,0.53-0.97,0.78c0,0.14,0,0.28,0.01,0.42c3.81-1.11,6.5-4.49,8.17-7.39c0.75-1.3,1.35-2.59,1.83-3.75
				c0.01-1.73,0.02-3.44,0.01-5.11c-0.32,0.27-0.65,0.47-0.99,0.58C208.13,203.61,207.44,203.81,206.66,203.29z"/>
			<path id="XMLID_138_" class="st41" d="M174.56,230.12c-0.11,0.05-0.42,0.24-0.73,0.72C174.04,230.63,174.28,230.39,174.56,230.12
				z"/>
			<path id="XMLID_137_" class="st41" d="M199.71,219.22c0.1,2.21,0.54,5.13,2.35,7.78c0.6-0.53,0.93-0.65,1.14-0.28
				c1.34,2.26,2.74,3.47,3.51,4.24c-0.39-0.68-0.84-0.86-0.84-0.86s0.96-0.37,2.61,1.03c0.38,0.33,1.06,0.79,1.8,1.4
				c-0.87-4.3-0.69-14.06-0.61-23.68c-0.39,0.87-0.85,1.78-1.37,2.69C205.92,215.7,202.98,218.31,199.71,219.22z"/>
			<path id="XMLID_136_" class="st41" d="M174.58,230.09c0.76-0.76,1.71-1.82,2.63-3.37c0.22-0.38,0.56-0.25,1.18,0.31
				c2.1-3.06,2.38-6.48,2.4-8.76c-0.65-0.51-1.28-1.05-1.88-1.62c-4.13-3.99-4.1-14.07-5.09-13.35c-0.77,0.52-1.45,0.33-2.02-0.24
				c-0.2-0.06-0.41-0.16-0.62-0.28c-0.04,11,0.43,23.91-0.52,29.39c0.55-0.42,1.02-0.76,1.32-1.01
				C173.56,229.79,174.49,230.06,174.58,230.09z"/>
			<path id="XMLID_135_" class="st42" d="M198.85,218.89c0.29-0.06,0.57-0.12,0.84-0.21c0-0.15-0.01-0.29-0.01-0.42
				C199.41,218.48,199.14,218.69,198.85,218.89z"/>
			<path id="XMLID_134_" class="st42" d="M190.09,237.6c0.07,0.05,0.1,0.12,0.12,0.19c0.02-0.07,0.05-0.14,0.12-0.19
				c7.21-5.52,10.28-9.31,11.73-10.6c-1.81-2.65-2.25-5.56-2.35-7.78c-0.6,0.17-1.21,0.27-1.82,0.33c-0.18,0.77-0.96,2.17-3.61,2.14
				c-0.55-0.01-1.01-0.07-1.39-0.18c-0.4,0.08-0.8,0.14-1.21,0.19c-1.23,0.12-2.48,0.09-3.7-0.11c-1-0.16-1.98-0.43-2.92-0.8
				c-1.06-0.42-2.06-0.96-3.01-1.59c-0.43-0.29-0.84-0.61-1.25-0.93c-0.02,2.29-0.3,5.7-2.4,8.76
				C179.86,228.35,182.94,232.12,190.09,237.6z"/>
			<path id="XMLID_133_" class="st42" d="M190.21,237.96c0,0.01,0,0.03-0.01,0.04h0.01C190.22,237.99,190.21,237.97,190.21,237.96z"
				/>
			<path id="XMLID_132_" class="st43" d="M185.05,220.79c0.94,0.37,1.92,0.64,2.92,0.8c1.22,0.19,2.48,0.23,3.7,0.11
				c0.41-0.04,0.81-0.11,1.21-0.19c-1.77-0.5-1.89-1.89-1.93-2.36c0.07-0.57,0.27-2.5,3.38-2.47c2.82,0.03,3.49,1.63,3.59,2.35
				c0.32-0.03,0.63-0.07,0.93-0.13c0.29-0.2,0.56-0.41,0.84-0.63c0.33-0.26,0.66-0.51,0.97-0.78c0.31-0.27,0.61-0.55,0.91-0.84
				c4.13-3.99,4.1-14.07,5.09-13.35c0.79,0.53,1.47,0.32,2.05-0.27c-0.48,0.17-0.94,0.18-1.29-0.03c-0.56-0.35,0.02-3.17,0.43-7.48
				c-0.06,0.02-0.12,0.04-0.18,0.08c-0.78,0.5-1.76-6.21-5.54-9.35c-3.77-3.13-4.08-5.25-4.08-5.25c-3.77,0.43-7.47,1.79-13.69,6.75
				c-4.93,3.92-9.32,7.83-11.31,8.35c-0.18,0.05-0.3-0.15-0.45-0.42c0.4,4.23,0.97,6.98,0.41,7.32c-0.32,0.2-0.75,0.19-1.21,0.05
				c0.57,0.57,1.25,0.76,2.02,0.24c1-0.71,0.96,9.37,5.09,13.35c0.6,0.58,1.23,1.11,1.88,1.62c0.41,0.32,0.82,0.64,1.25,0.93
				C182.99,219.83,184,220.37,185.05,220.79z"/>
			<path id="XMLID_131_" class="st41" d="M171.03,188.16c0.19-3.69,3.57-17.08,19.18-17.08c15.6,0,18.99,13.39,19.18,17.08
				c0.12,2.39-0.12,3.77,0.08,4.6c0.08-0.8,0.12-1.85,0.12-3.23c0-7.05-2.86-14.32-7.48-15.52c-2.22-0.58-2.51-2.74-7.44-4.22
				c-7.89-2.36-16.79,0.91-21.33,8.49c-3.18,5.3-3.35,12.73-3.02,15.31C171.44,193,170.86,191.65,171.03,188.16z"/>
			<path id="XMLID_130_" class="st41" d="M173.05,196.08c1.99-0.52,6.38-4.43,11.31-8.35c6.22-4.95,9.92-6.32,13.69-6.75
				c0,0,0.3,2.12,4.08,5.25c3.77,3.13,4.75,9.84,5.54,9.35c0.06-0.04,0.12-0.06,0.18-0.08c0.04-0.44,0.08-0.9,0.12-1.37
				c0.39-5.09,0.34-6.75-0.16-8.6c-3.85-14.22-17.58-13.2-17.58-13.2s-13.26-1.25-17.52,12.98c-0.57,1.89-0.62,3.73-0.23,8.83
				c0.04,0.53,0.09,1.04,0.13,1.53C172.75,195.94,172.87,196.13,173.05,196.08z"/>
			<path id="XMLID_129_" class="st96" d="M173.01,202.99c0.56-0.34-0.01-3.1-0.41-7.32c-0.05-0.49-0.09-1-0.13-1.53
				c-0.39-5.09-0.34-6.94,0.23-8.83c4.26-14.23,17.52-12.98,17.52-12.98s13.73-1.01,17.58,13.2c0.5,1.85,0.55,3.51,0.16,8.6
				c-0.04,0.47-0.08,0.93-0.12,1.37c-0.4,4.32-0.99,7.14-0.43,7.48c0.34,0.21,0.81,0.2,1.29,0.03c0.33-0.12,0.67-0.31,0.99-0.58
				c0.53-0.45,0.98-1.08,1.22-1.85c-0.19-0.06-0.48,0.12-0.65-0.22c-0.18-0.39-0.09-2.12,0.07-2.49c0.15-0.37,0.32-0.55,0.92-0.44
				c0.03,0.01,0.06,0.02,0.09,0.03c0.07-1.74-0.14-3.41-1.06-3.77c-0.49-0.19-0.72-0.48-0.82-0.93c-0.19-0.83,0.04-2.21-0.08-4.6
				c-0.19-3.69-3.57-17.08-19.18-17.08c-15.6,0-18.99,13.39-19.18,17.08c-0.18,3.49,0.41,4.84-0.72,5.43
				c-0.06,0.03-0.11,0.07-0.18,0.1c-1.4,0.54-1.16,4.15-0.78,6.38c0.22,1.24,0.99,2.19,1.82,2.69c0.21,0.12,0.41,0.22,0.62,0.28
				C172.25,203.18,172.68,203.19,173.01,202.99z"/>
			<path id="XMLID_128_" class="st97" d="M210.34,197.87c-0.15,0.37-0.25,2.11-0.07,2.49c0.16,0.34,0.45,0.16,0.65,0.22
				c0.03,0.01,0.05,0.02,0.07,0.04c0.19,0.15-0.22,2.33-0.09,2.53c0.04,0.06,0.11,0.1,0.19,0.13c-0.09,0.45-0.54,2.13-1.41,4.27
				c-0.48,1.16-1.08,2.45-1.83,3.75c-1.67,2.9-4.36,6.28-8.17,7.39c-0.28,0.08-0.56,0.15-0.84,0.21c-0.3,0.06-0.61,0.1-0.93,0.13
				c-0.1-0.72-0.77-2.32-3.59-2.35c-3.11-0.03-3.31,1.9-3.38,2.47c0.05,0.47,0.17,1.86,1.93,2.36c0.38,0.11,0.84,0.18,1.39,0.18
				c2.65,0.03,3.43-1.37,3.61-2.14c0.62-0.05,1.23-0.16,1.82-0.33c3.27-0.91,6.21-3.52,8.6-7.68c0.52-0.9,0.97-1.81,1.37-2.69
				c1.25-2.77,1.88-5.14,1.94-5.59c0.03-0.01,0.07-0.02,0.1-0.04c0.22-0.15,0.38-1.57,0.51-3.21c0.13-1.54-0.36-2.38-0.89-2.56
				c-0.03-0.01-0.06-0.03-0.09-0.03C210.66,197.32,210.49,197.49,210.34,197.87z"/>
			<path id="XMLID_127_" class="st44" d="M187.48,249.49c-1.13-2.53-2.39-3.97-2.51-6.07c-0.83,1.03-1.41,2.09-1.31,3.09
				c0.31,3.33-9.55-8.09-10.49-13.58c-0.18,1.05-0.18,3.25,2.86,7.56c2.06,2.92,6.88,11.23,10.39,18.69c0.7-4.5,1.26-7.96,1.5-9.26
				C187.73,249.82,187.56,249.68,187.48,249.49z"/>
			<path id="XMLID_126_" class="st44" d="M196.77,246.51c0.09-1-0.48-2.06-1.31-3.09c-0.12,2.11-1.38,3.54-2.51,6.07
				c-0.08,0.18-0.25,0.33-0.44,0.44c0.25,1.35,0.84,5.04,1.58,9.8c3.41-7.6,8.26-16.25,10.36-19.24c3.2-4.53,3.03-6.73,2.84-7.71
				C206.5,238.22,196.45,249.88,196.77,246.51z"/>
			<path id="XMLID_125_" class="st44" d="M174.77,243.73c0.01,0.01,0.01,0.02,0.02,0.02l0.03-0.02
				C174.82,243.73,174.8,243.73,174.77,243.73z"/>
			<path id="XMLID_123_" class="st98" d="M192.95,249.49c1.13-2.53,2.39-3.97,2.51-6.07c-1.85-2.29-5-4.41-5.23-5.42h-0.01
				c-0.23,1.01-3.38,3.13-5.23,5.42c0.12,2.11,1.38,3.54,2.51,6.07c0.08,0.18,0.25,0.33,0.44,0.44c-0.24,1.3-0.8,4.76-1.5,9.26
				c2.09,4.44,3.72,8.58,4.02,11.1c0.29-2.42,1.75-6.32,3.65-10.55c-0.74-4.76-1.34-8.45-1.58-9.8
				C192.69,249.82,192.86,249.68,192.95,249.49z"/>
			<path id="XMLID_121_" class="st57" d="M203.21,226.72c-0.22-0.37-0.55-0.25-1.14,0.28c-1.45,1.29-4.53,5.08-11.73,10.6
				c-0.07,0.05-0.1,0.12-0.12,0.19c-0.02-0.07-0.05-0.14-0.12-0.19c-7.15-5.48-10.23-9.25-11.7-10.57
				c-0.62-0.56-0.95-0.69-1.18-0.31c-0.92,1.56-1.87,2.61-2.63,3.37c0,0,0.02,0,0.02,0s-0.02,0.01-0.04,0.02
				c-0.28,0.28-0.52,0.51-0.73,0.72c-0.22,0.34-0.43,0.83-0.55,1.53c-0.02,0.13-0.07,0.32-0.12,0.57
				c0.94,5.49,10.8,16.91,10.49,13.58c-0.09-1,0.48-2.06,1.31-3.09c1.85-2.29,5-4.41,5.23-5.42c0-0.01,0.01-0.03,0.01-0.04
				c0,0.01,0,0.03,0.01,0.04c0.23,1.01,3.38,3.13,5.23,5.42c0.83,1.03,1.41,2.09,1.31,3.09c-0.32,3.36,9.73-8.3,10.52-13.72
				c-0.04-0.18-0.07-0.32-0.09-0.42c-0.11-0.63-0.29-1.07-0.48-1.41C205.94,230.19,204.54,228.98,203.21,226.72z"/>
			<path id="XMLID_119_" class="st97" d="M229.86,240.8c-0.6-0.83-13.92-5.42-18.25-7.01c0.44,0.49,0.86,1.03,1.21,1.65
				c1.91,3.41,2.01,5.5,3.36,6.51c1.35,1-10.51,1.78-10.51,1.78l7.47,5.64c0,0-8.37,9.57-14.03,13.7c-1.75,1.28-7.29,6.4-8.64,8.61
				c0.31,1.48,0.85,3.71,0.97,4.6c0.05,0.39,0.1,0.76,0.15,1.13c10.31-0.12,20.06-2.56,28.76-6.82c0.27-5.16-0.62-25.45,9.13-29.77
				c0.2-0.09,0.44,0.12,0.69,0.57c0,0,0-0.01,0-0.01C230.07,241.17,229.97,240.96,229.86,240.8z"/>
			<path id="XMLID_117_" class="st99" d="M190.46,271.68L190.46,271.68c-1.58-1.37-7.33-7.33-9.09-8.61
				c-5.66-4.13-14.03-13.7-14.03-13.7l7.44-5.62c-0.01-0.01-0.01-0.02-0.02-0.02c-0.76-0.05-11.77-0.81-10.47-1.78
				c1.35-1,1.45-3.1,3.36-6.51c0.38-0.68,0.84-1.26,1.32-1.77c-4.52,1.65-17.45,6.12-18.04,6.94c10.43,0.54,9.39,23.76,9.59,29.64
				c9.09,4.59,19.36,7.19,30.24,7.19c0.27,0,0.54-0.02,0.81-0.02c-0.05-0.38-0.09-0.75-0.15-1.13
				C191.31,275.39,190.77,273.16,190.46,271.68z"/>
			<path id="XMLID_115_" class="st100" d="M167.66,235.44c-1.91,3.41-2.01,5.5-3.36,6.51c-1.3,0.97,9.71,1.73,10.47,1.78
				c0.03,0,0.04,0,0.04,0l-0.03,0.02l-7.44,5.62c0,0,8.37,9.57,14.03,13.7c1.75,1.28,7.51,7.24,9.09,8.61l0,0
				c1.35-2.21,6.89-7.33,8.64-8.61c5.66-4.13,14.03-13.7,14.03-13.7l-7.47-5.64c0,0,11.86-0.78,10.51-1.78
				c-1.35-1-1.45-3.1-3.36-6.51c-0.35-0.62-0.77-1.17-1.21-1.65c-0.43-0.48-0.89-0.89-1.32-1.25c-0.74-0.61-1.41-1.07-1.8-1.4
				c-1.66-1.41-2.61-1.03-2.61-1.03s0.44,0.18,0.84,0.86c0.19,0.34,0.38,0.78,0.48,1.41c0.02,0.1,0.05,0.25,0.09,0.42
				c0.19,0.98,0.36,3.18-2.84,7.71c-2.11,2.99-6.95,11.64-10.36,19.24c-1.9,4.23-3.36,8.14-3.65,10.55
				c-0.3-2.52-1.93-6.66-4.02-11.1c-3.51-7.46-8.33-15.77-10.39-18.69c-3.04-4.31-3.04-6.51-2.86-7.56
				c0.04-0.25,0.09-0.44,0.12-0.57c0.12-0.7,0.33-1.19,0.55-1.53c0.3-0.48,0.62-0.66,0.73-0.72c0.02-0.01,0.04-0.02,0.04-0.02
				s-0.01,0-0.02,0c-0.09-0.03-1.02-0.3-2.6,1.04c-0.3,0.25-0.78,0.59-1.32,1.01c-0.53,0.41-1.12,0.92-1.68,1.52
				C168.5,234.18,168.04,234.76,167.66,235.44z"/>
			<path id="XMLID_113_" class="st100" d="M150.94,240.6c-0.6-0.03-2.57,9.09-4.56,20.07c4.27,3.76,9.02,6.98,14.15,9.57
				C160.33,264.37,161.37,241.15,150.94,240.6z"/>
			<path id="XMLID_111_" class="st100" d="M229.47,240.82c-9.75,4.32-8.86,24.61-9.13,29.77c5.26-2.58,10.13-5.84,14.51-9.64
				c-1.67-9.36-3.45-17.38-4.69-19.56C229.91,240.94,229.67,240.73,229.47,240.82z"/>
		</g>
	</g>
	<g>
		<ellipse class="st182" cx="251" cy="152" rx="46" ry="33"/>
		<polygon class="st182" points="235.2,172.48 249.66,176.5 238.94,187.01 228.22,197.52 224.48,182.99 220.74,168.45 		"/>
	</g>
	<circle class="st183" cx="228" cy="152" r="5"/>
	<circle class="st183" cx="255" cy="152" r="5"/>
	<circle class="st183" cx="278" cy="152" r="5"/>
</g>
</svg>
