<?xml version="1.0" encoding="utf-8"?>
<!-- Generator: Adobe Illustrator 23.0.0, SVG Export Plug-In . SVG Version: 6.00 Build 0)  -->
<svg version="1.1" id="Capa_1" xmlns="http://www.w3.org/2000/svg" xmlns:xlink="http://www.w3.org/1999/xlink" x="0px" y="0px"
	 viewBox="0 0 407.68 695.27" style="enable-background:new 0 0 407.68 695.27;" xml:space="preserve">
<style type="text/css">
	.st0{fill:#0085B0;}
	.st1{fill:#E0EF18;}
	.st2{fill:#CECECE;}
	.st3{fill:#FFFFFF;}
	.st4{fill:#F2F2F2;}
	.st5{fill:#EACCB0;}
	.st6{fill:#9B9B9B;}
	.st7{fill:#939393;}
	.st8{fill:#EFEFEF;}
	.st9{fill:#828282;}
	.st10{fill:#2C2A2D;}
	.st11{fill:#202021;}
	.st12{fill:#F2D4B6;}
	.st13{fill:#534D46;}
	.st14{fill:#E8D313;}
	.st15{fill:#2ACCFF;}
	.st16{fill:#4E4F4F;}
	.st17{fill:#003A94;}
	.st18{fill:#00D13C;}
	.st19{fill:#15682A;}
	.st20{fill:#D40000;}
	.st21{fill:#505050;}
	.st22{fill:#DFDFDF;}
	.st23{fill:none;}
	.st24{fill:#636363;}
	.st25{fill:#6C92D5;}
	.st26{fill:#22272F;}
	.st27{fill:#1B2538;}
	.st28{fill:#253452;}
	.st29{fill:#F9F9F9;}
	.st30{fill:#2D3543;}
	.st31{fill:#2A3D60;}
	.st32{fill:#587955;}
	.st33{fill:#CD7054;}
	.st34{fill:#F1CC4B;}
	.st35{fill:#ACACAC;}
	.st36{fill:#AAE528;}
	.st37{fill:#28CEBA;}
	.st38{fill:#DB143F;}
	.st39{fill:#53C2C9;}
	.st40{fill:#FFB412;}
	.st41{fill:#866A5E;}
	.st42{fill:#F7DDCB;}
	.st43{fill:#FFE6D4;}
	.st44{fill:#F5F5F5;}
	.st45{fill:#1A2830;}
	.st46{fill:#24353F;}
	.st47{fill:#132026;}
	.st48{fill:#F9FF03;}
	.st49{fill:#272728;}
	.st50{fill:#1E1D1E;}
	.st51{fill:#160423;}
	.st52{fill-rule:evenodd;clip-rule:evenodd;fill:#FFFFFF;}
	.st53{fill-rule:evenodd;clip-rule:evenodd;fill:#1996B8;}
	.st54{fill:#0C387D;}
	.st55{fill:#C69A81;}
	.st56{fill:#D1A385;}
	.st57{fill:#EAEAEA;}
	.st58{fill:#093E8C;}
	.st59{fill:#0B2A62;}
	.st60{fill:#D32A3B;}
	.st61{fill:#827C7D;}
	.st62{opacity:0.7;fill:#7F7F7F;}
	.st63{fill:#FDFDFD;}
	.st64{fill:#DAA449;}
	.st65{fill:#DD9225;}
	.st66{opacity:0.3;}
	.st67{fill:#425793;}
	.st68{opacity:0.8;}
	.st69{filter:url(#Adobe_OpacityMaskFilter);}
	.st70{opacity:0.15;mask:url(#SVGID_1_);}
	.st71{fill:#090B00;}
	.st72{opacity:0.1;}
	.st73{fill:#211915;}
	.st74{filter:url(#Adobe_OpacityMaskFilter_1_);}
	.st75{opacity:0.15;mask:url(#SVGID_2_);}
	.st76{fill:#AF3623;}
	.st77{filter:url(#Adobe_OpacityMaskFilter_2_);}
	.st78{opacity:0.15;mask:url(#SVGID_3_);}
	.st79{filter:url(#Adobe_OpacityMaskFilter_3_);}
	.st80{opacity:0.15;mask:url(#SVGID_4_);}
	.st81{fill:#456495;}
	.st82{filter:url(#Adobe_OpacityMaskFilter_4_);}
	.st83{opacity:0.15;mask:url(#SVGID_5_);}
	.st84{filter:url(#Adobe_OpacityMaskFilter_5_);}
	.st85{opacity:0.15;mask:url(#SVGID_6_);}
	.st86{fill:#76A9DA;}
	.st87{filter:url(#Adobe_OpacityMaskFilter_6_);}
	.st88{opacity:0.15;mask:url(#SVGID_7_);}
	.st89{filter:url(#Adobe_OpacityMaskFilter_7_);}
	.st90{opacity:0.15;mask:url(#SVGID_8_);}
	.st91{fill:#1F3642;}
	.st92{fill:#A9BDDA;}
	.st93{opacity:0.46;fill:#A6B4BC;}
	.st94{fill:#74C475;}
	.st95{fill:#221F21;}
	.st96{fill:#2D2D2D;}
	.st97{fill:#1C1B1A;}
	.st98{fill:#77181C;}
	.st99{fill:#262525;}
	.st100{fill:#11100F;}
	.st101{opacity:0.18;}
	.st102{opacity:0.38;}
	.st103{fill:#0A5B1F;}
	.st104{opacity:0.27;}
	.st105{opacity:0.48;}
	.st106{fill:#0A4654;}
	.st107{fill:#C2C6C6;}
	.st108{fill:#E5E5E5;stroke:#FFFFFF;stroke-miterlimit:10;}
	.st109{fill:#ACB4B5;}
	.st110{fill:#7F8384;}
	.st111{fill:#15772F;}
	.st112{fill:#F4F4F4;}
	.st113{fill:#53B8DB;}
	.st114{fill:#06EF42;}
	.st115{fill:#E7ED07;}
	.st116{fill:#CCCCCA;}
	.st117{fill:#EADF13;}
	.st118{fill:#C2C2C2;}
	.st119{fill:#85B681;}
	.st120{fill:#A1DC9B;}
	.st121{fill:#90C58B;}
	.st122{fill:#22241F;}
	.st123{opacity:0.5;}
	.st124{fill:#A2CADE;}
	.st125{fill:#E9E9E9;}
	.st126{fill:#D9D9D9;}
	.st127{fill:#CDCDCD;}
	.st128{opacity:0.34;fill:#F0F0F0;}
	.st129{fill:#5A5B5A;}
	.st130{fill:#FFE600;}
	.st131{fill:#DB1F59;}
	.st132{fill:#727272;}
	.st133{fill:#207235;}
	.st134{fill:#A3A3A3;}
	.st135{fill:#BCBCBC;}
	.st136{fill:#0A511C;}
	.st137{fill:#F9FF00;}
	.st138{fill:#D59F6D;}
	.st139{fill:#C0804A;}
	.st140{fill:#E6BA8A;}
	.st141{fill:#BE3ACC;}
	.st142{fill:#FFFFFF;stroke:#443F0C;stroke-width:9;stroke-miterlimit:10;}
	.st143{fill:none;stroke:#443F0C;stroke-width:9;stroke-miterlimit:10;}
	.st144{fill:#170623;}
	.st145{fill:#158231;}
	.st146{fill:#C89D76;}
	.st147{opacity:0.4;}
	.st148{fill:#ADADAD;}
	.st149{fill:#EDC3A6;}
	.st150{opacity:0.69;}
	.st151{fill:#E5D3D6;}
	.st152{opacity:0.44;}
	.st153{fill:#A5A5A5;}
	.st154{fill:#DDE5E4;}
	.st155{fill:#5C9169;}
	.st156{fill:#934215;}
	.st157{fill:#47413B;}
	.st158{fill:#601A1F;}
	.st159{fill:#044554;}
	.st160{opacity:0.7;}
	.st161{fill:#7F7F7F;}
	.st162{fill:#6B8A69;}
	.st163{opacity:0.24;fill:#848D90;}
	.st164{opacity:0.4;fill:#848D90;}
	.st165{fill:#F2D5D5;}
	.st166{fill:#485CC1;}
	.st167{fill:#C6CBE0;}
	.st168{fill:#8B909E;}
	.st169{fill:#53BC1B;}
	.st170{fill:#11565B;}
	.st171{fill:#67A06D;}
	.st172{fill:#FFEC00;}
	.st173{fill:#77A007;}
	.st174{fill:#E50731;}
	.st175{fill:#266472;}
	.st176{fill:#D4D4D4;}
	.st177{fill:#0E9932;}
	.st178{fill:#87DD24;}
	.st179{fill:#76A172;}
	.st180{fill:#62835F;}
	.st181{fill:#96D090;}
	.st182{fill:#D6D6D6;}
	.st183{fill:#606060;}
	.st184{fill:#494949;}
	.st185{fill:#29E55A;}
	.st186{fill:#2C703D;}
	.st187{fill:#DD0744;}
	.st188{fill:#EDEDED;}
	.st189{fill:#2A5936;}
	.st190{fill:#B9BBC1;}
	.st191{fill:#FFD79E;}
	.st192{fill:#FFE6C2;}
	.st193{fill:#2CBB55;}
	.st194{fill:#5C412D;}
	.st195{fill:#EC0000;}
	.st196{fill:#DD2626;}
	.st197{fill:#EA9334;}
	.st198{fill:#FCC232;}
	.st199{fill:#F9B234;}
	.st200{fill:#F7A037;}
	.st201{fill:#E0E0E0;}
</style>
<g>
	<g>
		<path class="st0" d="M11.52,204.63c0,22,13.29,27.86,29.54,13.03c0,0,156.99-143.3,353.09,26.97V50.27c0-22-18-40-40-40H51.52
			c-22,0-40,18-40,40V204.63z"/>
	</g>
	<g>
		<path class="st0" d="M393.68,642.27c0,22-18,40-40,40H52c-22,0-40-18-40-40V596c0-22,18-40,40-40h301.68c22,0,40,18,40,40V642.27z
			"/>
	</g>
	<g>
		<path d="M160.8,385.69c-0.34-0.35-0.51-0.9-0.51-1.63v-21.55c0-0.73,0.17-1.27,0.51-1.62s0.94-0.51,1.8-0.51h4.37
			c0.56,0,1,0.07,1.33,0.21c0.33,0.14,0.58,0.41,0.76,0.82l4.45,11.13l4.45-11.13c0.18-0.41,0.43-0.68,0.76-0.82
			s0.77-0.21,1.33-0.21h4.37c0.86,0,1.46,0.17,1.8,0.51s0.51,0.88,0.51,1.62v21.55c0,0.74-0.17,1.28-0.51,1.63
			c-0.34,0.36-0.93,0.53-1.77,0.53h-3.65c-0.84,0-1.43-0.18-1.79-0.53c-0.35-0.35-0.53-0.9-0.53-1.63v-10.37l-2.24,5.17
			c-0.3,0.74-0.63,1.26-0.99,1.58c-0.36,0.32-0.94,0.47-1.75,0.47s-1.39-0.16-1.75-0.47c-0.35-0.32-0.68-0.84-0.99-1.58l-2.24-5.17
			v10.37c0,0.74-0.17,1.28-0.51,1.63c-0.34,0.36-0.94,0.53-1.81,0.53h-3.65C161.73,386.22,161.14,386.04,160.8,385.69z"/>
		<path d="M187.69,385.42c0-0.23,0.06-0.51,0.19-0.84l9.46-22.76c0.23-0.53,0.49-0.91,0.78-1.12c0.29-0.21,0.7-0.32,1.23-0.32h4.14
			c0.53,0,0.94,0.11,1.23,0.32s0.55,0.59,0.78,1.12l9.42,22.76c0.13,0.33,0.19,0.61,0.19,0.84c0,0.53-0.28,0.8-0.84,0.8h-7.14
			c-0.79,0-1.28-0.34-1.48-1.03l-0.91-2.81h-6.73l-0.87,2.81c-0.2,0.68-0.7,1.03-1.48,1.03h-7.14
			C187.97,386.22,187.69,385.96,187.69,385.42z M197.34,358.1c0-0.2,0.04-0.42,0.11-0.65l1.6-4.41c0.2-0.58,0.44-0.98,0.72-1.18
			c0.28-0.2,0.8-0.3,1.56-0.3h5.43c0.53,0,0.95,0.09,1.25,0.28c0.3,0.19,0.46,0.46,0.46,0.82c0,0.3-0.1,0.62-0.3,0.95l-2.43,4.1
			c-0.36,0.61-0.7,1-1.03,1.18c-0.33,0.18-0.92,0.27-1.79,0.27h-4.07C197.84,359.17,197.34,358.81,197.34,358.1z M202.89,376.38
			l-1.48-4.71l-1.48,4.71H202.89z"/>
		<path d="M220.14,386.07c-1.98-0.48-3.57-1.15-4.79-2.01c-0.51-0.35-0.76-0.7-0.76-1.03c0-0.23,0.09-0.47,0.27-0.72l2.21-3.46
			c0.23-0.33,0.46-0.49,0.68-0.49c0.2,0,0.44,0.09,0.72,0.27c0.91,0.56,1.96,0.99,3.14,1.31c1.18,0.32,2.32,0.47,3.44,0.47
			c0.94,0,1.61-0.13,2.03-0.38c0.42-0.25,0.63-0.65,0.63-1.18c0-0.58-0.28-1.05-0.84-1.41c-0.56-0.35-1.52-0.8-2.89-1.33
			c-2.56-0.99-4.57-2.11-6.04-3.36s-2.2-2.92-2.2-5c0-2.63,0.92-4.62,2.75-5.95c1.84-1.33,4.31-2,7.43-2c2.18,0,4.03,0.19,5.57,0.57
			s2.87,0.98,4.01,1.79c0.51,0.36,0.76,0.7,0.76,1.03c0,0.23-0.09,0.47-0.27,0.72l-2.21,3.46c-0.23,0.35-0.46,0.53-0.68,0.53
			c-0.15,0-0.39-0.1-0.72-0.3c-0.61-0.41-1.33-0.74-2.17-1.01s-1.74-0.4-2.7-0.4c-0.89,0-1.56,0.13-2.01,0.38
			c-0.46,0.25-0.68,0.66-0.68,1.22c0,0.46,0.16,0.84,0.47,1.14c0.32,0.3,0.71,0.56,1.2,0.78c0.48,0.21,1.32,0.56,2.51,1.04
			c1.9,0.76,3.39,1.49,4.48,2.18c1.09,0.7,1.91,1.53,2.47,2.51c0.56,0.98,0.84,2.21,0.84,3.71c0,2.28-0.85,4.12-2.56,5.53
			s-4.26,2.11-7.66,2.11C224.25,386.79,222.11,386.55,220.14,386.07z"/>
		<path d="M28.41,431.29c-0.34-0.35-0.51-0.9-0.51-1.63v-21.51c0-0.73,0.17-1.28,0.51-1.63s0.93-0.53,1.77-0.53h15.73
			c0.81,0,1.36,0.17,1.65,0.51c0.29,0.34,0.44,0.89,0.44,1.65v2.13c0,0.76-0.15,1.31-0.44,1.65c-0.29,0.34-0.84,0.51-1.65,0.51
			h-8.89v3.23h5.47c0.81,0,1.36,0.17,1.65,0.51c0.29,0.34,0.44,0.89,0.44,1.65v2.13c0,0.76-0.15,1.31-0.44,1.65
			c-0.29,0.34-0.84,0.51-1.65,0.51h-5.47v7.52c0,0.74-0.17,1.28-0.51,1.63c-0.34,0.36-0.94,0.53-1.8,0.53h-4.52
			C29.34,431.82,28.75,431.64,28.41,431.29z"/>
		<path d="M55.07,431.19c-1.88-0.8-3.33-1.95-4.37-3.46c-1.04-1.51-1.56-3.3-1.56-5.38v-14.21c0-0.73,0.17-1.28,0.51-1.63
			c0.34-0.35,0.93-0.53,1.77-0.53h4.52c0.86,0,1.46,0.17,1.81,0.51c0.34,0.34,0.51,0.89,0.51,1.65v14.33c0,1.19,0.3,2.08,0.89,2.66
			c0.59,0.58,1.41,0.87,2.45,0.87c1.04,0,1.86-0.29,2.45-0.87c0.59-0.58,0.89-1.47,0.89-2.66v-14.33c0-0.73,0.17-1.28,0.51-1.63
			c0.34-0.35,0.93-0.53,1.77-0.53h4.52c0.86,0,1.46,0.17,1.81,0.51c0.34,0.34,0.51,0.89,0.51,1.65v14.21c0,2.08-0.52,3.87-1.56,5.38
			c-1.04,1.51-2.49,2.66-4.37,3.46s-4.05,1.2-6.54,1.2C59.12,432.39,56.94,431.99,55.07,431.19z"/>
		<path d="M77.05,431.29c-0.34-0.35-0.51-0.9-0.51-1.63v-21.55c0-0.73,0.17-1.27,0.51-1.62s0.94-0.51,1.8-0.51h3.61
			c0.53,0,0.94,0.07,1.24,0.21c0.29,0.14,0.58,0.41,0.86,0.82l6.88,10.22v-9.08c0-0.73,0.17-1.28,0.51-1.63s0.93-0.53,1.77-0.53
			h4.52c0.86,0,1.46,0.17,1.8,0.51s0.51,0.89,0.51,1.65v21.55c0,0.74-0.17,1.27-0.51,1.62c-0.34,0.34-0.94,0.51-1.8,0.51h-3.61
			c-0.53,0-0.94-0.07-1.24-0.21c-0.29-0.14-0.58-0.41-0.85-0.82l-6.88-10.22v9.12c0,0.74-0.17,1.27-0.51,1.62
			c-0.34,0.34-0.94,0.51-1.8,0.51h-4.52C77.98,431.82,77.39,431.64,77.05,431.29z"/>
		<path d="M106.29,428.99c-2.56-2.27-3.84-5.63-3.84-10.09c0-4.48,1.24-7.85,3.71-10.11c2.47-2.25,6-3.38,10.58-3.38
			c2.08,0,3.93,0.2,5.55,0.61s2.98,0.98,4.07,1.71c0.3,0.23,0.46,0.48,0.46,0.76c0,0.23-0.11,0.54-0.34,0.95l-1.9,3.27
			c-0.2,0.36-0.44,0.53-0.72,0.53c-0.18,0-0.47-0.1-0.87-0.3c-0.71-0.35-1.45-0.63-2.22-0.84c-0.77-0.2-1.68-0.3-2.72-0.3
			c-2.1,0-3.71,0.61-4.83,1.82c-1.12,1.22-1.67,2.98-1.67,5.28c0,2.28,0.61,4.03,1.82,5.26c1.22,1.23,2.88,1.84,4.98,1.84
			c1.82,0,3.5-0.38,5.02-1.14c0.41-0.2,0.7-0.3,0.87-0.3c0.28,0,0.52,0.18,0.72,0.53l1.9,3.27c0.23,0.41,0.34,0.72,0.34,0.95
			c0,0.28-0.15,0.53-0.46,0.76c-1.09,0.74-2.46,1.3-4.1,1.71c-1.65,0.41-3.51,0.61-5.59,0.61
			C112.43,432.39,108.85,431.26,106.29,428.99z"/>
		<path d="M129.6,431.29c-0.34-0.35-0.51-0.9-0.51-1.63v-21.51c0-0.73,0.17-1.28,0.51-1.63s0.93-0.53,1.77-0.53h4.52
			c0.86,0,1.46,0.17,1.8,0.51s0.51,0.89,0.51,1.65v21.51c0,0.74-0.17,1.28-0.51,1.63c-0.34,0.36-0.94,0.53-1.8,0.53h-4.52
			C130.53,431.82,129.95,431.64,129.6,431.29z"/>
		<path d="M143.61,428.88c-2.33-2.34-3.5-5.67-3.5-9.97s1.17-7.63,3.5-9.97c2.33-2.34,5.75-3.52,10.26-3.52
			c4.51,0,7.93,1.17,10.26,3.52c2.33,2.34,3.5,5.67,3.5,9.97s-1.17,7.63-3.5,9.97c-2.33,2.34-5.75,3.52-10.26,3.52
			C149.36,432.39,145.94,431.22,143.61,428.88z M157.44,424.24c0.73-1.18,1.1-2.96,1.1-5.34c0-2.41-0.37-4.19-1.1-5.36
			c-0.73-1.17-1.92-1.75-3.57-1.75c-1.65,0-2.84,0.58-3.57,1.75c-0.74,1.17-1.1,2.95-1.1,5.36c0,2.38,0.37,4.16,1.1,5.34
			c0.73,1.18,1.92,1.77,3.57,1.77C155.51,426.01,156.7,425.42,157.44,424.24z"/>
		<path d="M170.04,431.29c-0.34-0.35-0.51-0.9-0.51-1.63v-21.55c0-0.73,0.17-1.27,0.51-1.62s0.94-0.51,1.8-0.51h3.61
			c0.53,0,0.94,0.07,1.24,0.21c0.29,0.14,0.58,0.41,0.85,0.82l6.88,10.22v-9.08c0-0.73,0.17-1.28,0.51-1.63
			c0.34-0.35,0.93-0.53,1.77-0.53h4.52c0.86,0,1.46,0.17,1.81,0.51s0.51,0.89,0.51,1.65v21.55c0,0.74-0.17,1.27-0.51,1.62
			c-0.34,0.34-0.94,0.51-1.81,0.51h-3.61c-0.53,0-0.94-0.07-1.23-0.21c-0.29-0.14-0.58-0.41-0.86-0.82l-6.88-10.22v9.12
			c0,0.74-0.17,1.27-0.51,1.62c-0.34,0.34-0.94,0.51-1.8,0.51h-4.52C170.97,431.82,170.38,431.64,170.04,431.29z"/>
		<path d="M195.44,431.02c0-0.23,0.06-0.51,0.19-0.84l9.46-22.76c0.23-0.53,0.49-0.91,0.78-1.12c0.29-0.22,0.7-0.32,1.23-0.32h4.14
			c0.53,0,0.94,0.11,1.23,0.32c0.29,0.21,0.55,0.59,0.78,1.12l9.42,22.76c0.13,0.33,0.19,0.61,0.19,0.84c0,0.53-0.28,0.8-0.84,0.8
			h-7.14c-0.79,0-1.28-0.34-1.48-1.03l-0.91-2.81h-6.73l-0.87,2.81c-0.2,0.68-0.7,1.03-1.48,1.03h-7.14
			C195.72,431.82,195.44,431.56,195.44,431.02z M210.64,421.98l-1.48-4.71l-1.48,4.71H210.64z"/>
		<path d="M225.29,431.29c-0.34-0.35-0.51-0.9-0.51-1.63v-21.51c0-0.73,0.17-1.28,0.51-1.63s0.93-0.53,1.77-0.53h4.52
			c0.86,0,1.46,0.17,1.8,0.51s0.51,0.89,0.51,1.65v17.21h8.85c0.81,0,1.36,0.17,1.65,0.51s0.44,0.89,0.44,1.65v2.13
			c0,0.76-0.15,1.31-0.44,1.65c-0.29,0.34-0.84,0.51-1.65,0.51h-15.69C226.22,431.82,225.63,431.64,225.29,431.29z"/>
		<path d="M246.49,431.29c-0.34-0.35-0.51-0.9-0.51-1.63v-21.51c0-0.73,0.17-1.28,0.51-1.63s0.93-0.53,1.77-0.53h4.52
			c0.86,0,1.46,0.17,1.8,0.51s0.51,0.89,0.51,1.65v21.51c0,0.74-0.17,1.28-0.51,1.63c-0.34,0.36-0.94,0.53-1.8,0.53h-4.52
			C247.42,431.82,246.83,431.64,246.49,431.29z"/>
		<path d="M258.27,431.29c-0.34-0.35-0.51-0.9-0.51-1.63v-21.51c0-0.73,0.17-1.28,0.51-1.63c0.34-0.35,0.93-0.53,1.77-0.53h8.74
			c8.94,0,13.41,4.31,13.41,12.92c0,4.26-1.15,7.47-3.44,9.65c-2.29,2.18-5.62,3.27-9.98,3.27h-8.74
			C259.2,431.82,258.61,431.64,258.27,431.29z M269.12,425.36c1.42,0,2.44-0.47,3.06-1.41c0.62-0.94,0.93-2.62,0.93-5.05
			s-0.31-4.12-0.93-5.05c-0.62-0.94-1.64-1.41-3.06-1.41h-2.24v12.92H269.12z"/>
		<path d="M281.62,431.02c0-0.23,0.06-0.51,0.19-0.84l9.46-22.76c0.23-0.53,0.49-0.91,0.78-1.12c0.29-0.22,0.7-0.32,1.23-0.32h4.14
			c0.53,0,0.94,0.11,1.23,0.32c0.29,0.21,0.55,0.59,0.78,1.12l9.42,22.76c0.13,0.33,0.19,0.61,0.19,0.84c0,0.53-0.28,0.8-0.84,0.8
			h-7.14c-0.79,0-1.28-0.34-1.48-1.03l-0.91-2.81h-6.73l-0.87,2.81c-0.2,0.68-0.7,1.03-1.48,1.03h-7.14
			C281.9,431.82,281.62,431.56,281.62,431.02z M296.82,421.98l-1.48-4.71l-1.48,4.71H296.82z"/>
		<path d="M311.47,431.29c-0.34-0.35-0.51-0.9-0.51-1.63v-21.51c0-0.73,0.17-1.28,0.51-1.63s0.93-0.53,1.77-0.53h8.74
			c8.94,0,13.41,4.31,13.41,12.92c0,4.26-1.15,7.47-3.44,9.65c-2.29,2.18-5.62,3.27-9.98,3.27h-8.74
			C312.4,431.82,311.81,431.64,311.47,431.29z M322.32,425.36c1.42,0,2.44-0.47,3.06-1.41c0.62-0.94,0.93-2.62,0.93-5.05
			s-0.31-4.12-0.93-5.05c-0.62-0.94-1.64-1.41-3.06-1.41h-2.24v12.92H322.32z"/>
		<path d="M337.8,431.29c-0.34-0.35-0.51-0.9-0.51-1.63v-21.51c0-0.73,0.17-1.28,0.51-1.63c0.34-0.35,0.93-0.53,1.77-0.53h15.73
			c0.81,0,1.36,0.17,1.65,0.51c0.29,0.34,0.44,0.89,0.44,1.65v2.13c0,0.76-0.15,1.31-0.44,1.65c-0.29,0.34-0.84,0.51-1.65,0.51
			h-8.89v3.27h5.47c0.81,0,1.36,0.17,1.65,0.51c0.29,0.34,0.44,0.89,0.44,1.65v2.05c0,0.76-0.15,1.31-0.44,1.65
			c-0.29,0.34-0.84,0.51-1.65,0.51h-5.47v3.27h8.85c0.81,0,1.36,0.17,1.65,0.51s0.44,0.89,0.44,1.65v2.13
			c0,0.76-0.15,1.31-0.44,1.65c-0.29,0.34-0.84,0.51-1.65,0.51h-15.7C338.73,431.82,338.15,431.64,337.8,431.29z"/>
		<path d="M363.93,431.67c-1.97-0.48-3.57-1.15-4.79-2.01c-0.51-0.35-0.76-0.7-0.76-1.03c0-0.23,0.09-0.47,0.27-0.72l2.2-3.46
			c0.23-0.33,0.46-0.49,0.68-0.49c0.2,0,0.44,0.09,0.72,0.27c0.91,0.56,1.96,0.99,3.14,1.31c1.18,0.32,2.32,0.47,3.44,0.47
			c0.94,0,1.62-0.13,2.03-0.38c0.42-0.25,0.63-0.65,0.63-1.18c0-0.58-0.28-1.05-0.84-1.41c-0.56-0.35-1.52-0.8-2.89-1.33
			c-2.56-0.99-4.57-2.11-6.04-3.36c-1.47-1.25-2.2-2.92-2.2-5c0-2.63,0.92-4.62,2.75-5.95c1.84-1.33,4.31-2,7.43-2
			c2.18,0,4.03,0.19,5.57,0.57c1.53,0.38,2.87,0.98,4.01,1.79c0.51,0.35,0.76,0.7,0.76,1.03c0,0.23-0.09,0.47-0.27,0.72l-2.2,3.46
			c-0.23,0.35-0.46,0.53-0.68,0.53c-0.15,0-0.39-0.1-0.72-0.3c-0.61-0.41-1.33-0.74-2.17-1.01s-1.74-0.4-2.7-0.4
			c-0.89,0-1.56,0.13-2.01,0.38c-0.46,0.25-0.68,0.66-0.68,1.22c0,0.46,0.16,0.84,0.48,1.14c0.32,0.3,0.71,0.56,1.2,0.78
			s1.32,0.56,2.51,1.04c1.9,0.76,3.39,1.49,4.48,2.18c1.09,0.7,1.91,1.53,2.47,2.51c0.56,0.98,0.84,2.21,0.84,3.71
			c0,2.28-0.86,4.12-2.56,5.53c-1.71,1.41-4.26,2.11-7.66,2.11C368.05,432.39,365.9,432.15,363.93,431.67z"/>
		<path d="M37.61,477.27c-1.97-0.48-3.57-1.15-4.79-2.01c-0.51-0.35-0.76-0.7-0.76-1.03c0-0.23,0.09-0.47,0.27-0.72l2.2-3.46
			c0.23-0.33,0.46-0.49,0.68-0.49c0.2,0,0.44,0.09,0.72,0.27c0.91,0.56,1.96,0.99,3.14,1.31c1.18,0.32,2.32,0.47,3.44,0.47
			c0.94,0,1.62-0.13,2.03-0.38c0.42-0.25,0.63-0.65,0.63-1.18c0-0.58-0.28-1.05-0.84-1.41c-0.56-0.35-1.52-0.8-2.89-1.33
			c-2.56-0.99-4.57-2.11-6.04-3.36c-1.47-1.25-2.2-2.92-2.2-5c0-2.63,0.92-4.62,2.75-5.95c1.84-1.33,4.31-2,7.43-2
			c2.18,0,4.03,0.19,5.57,0.57c1.53,0.38,2.87,0.98,4.01,1.79c0.51,0.35,0.76,0.7,0.76,1.03c0,0.23-0.09,0.47-0.27,0.72l-2.2,3.46
			c-0.23,0.35-0.46,0.53-0.68,0.53c-0.15,0-0.39-0.1-0.72-0.3c-0.61-0.41-1.33-0.74-2.17-1.01s-1.74-0.4-2.7-0.4
			c-0.89,0-1.56,0.13-2.01,0.38c-0.46,0.25-0.68,0.66-0.68,1.22c0,0.46,0.16,0.84,0.48,1.14c0.32,0.3,0.71,0.56,1.2,0.78
			s1.32,0.56,2.51,1.04c1.9,0.76,3.39,1.49,4.48,2.18c1.09,0.7,1.91,1.53,2.47,2.51c0.56,0.98,0.84,2.21,0.84,3.71
			c0,2.28-0.86,4.12-2.56,5.53c-1.71,1.41-4.26,2.11-7.66,2.11C41.72,477.99,39.58,477.75,37.61,477.27z"/>
		<path d="M56.66,476.89c-0.34-0.35-0.51-0.9-0.51-1.63v-21.51c0-0.73,0.17-1.28,0.51-1.63c0.34-0.35,0.93-0.53,1.77-0.53h15.73
			c0.81,0,1.36,0.17,1.65,0.51s0.44,0.89,0.44,1.65v2.13c0,0.76-0.15,1.31-0.44,1.65c-0.29,0.34-0.84,0.51-1.65,0.51h-8.89v3.27
			h5.47c0.81,0,1.36,0.17,1.65,0.51c0.29,0.34,0.44,0.89,0.44,1.65v2.05c0,0.76-0.15,1.31-0.44,1.65s-0.84,0.51-1.65,0.51h-5.47
			v3.27h8.85c0.81,0,1.36,0.17,1.65,0.51c0.29,0.34,0.44,0.89,0.44,1.65v2.13c0,0.76-0.15,1.31-0.44,1.65
			c-0.29,0.34-0.84,0.51-1.65,0.51H58.43C57.59,477.42,57.01,477.24,56.66,476.89z"/>
		<path d="M79.33,474.59c-2.56-2.27-3.84-5.63-3.84-10.09c0-4.43,1.28-7.79,3.84-10.07c2.56-2.28,6.13-3.42,10.71-3.42
			c2.08,0,3.94,0.2,5.59,0.61s3.02,0.98,4.1,1.71c0.3,0.23,0.46,0.48,0.46,0.76c0,0.23-0.11,0.54-0.34,0.95l-1.9,3.27
			c-0.2,0.36-0.44,0.53-0.72,0.53c-0.18,0-0.47-0.1-0.87-0.3c-1.52-0.76-3.19-1.14-5.02-1.14c-2.1,0-3.76,0.6-4.96,1.81
			c-1.2,1.2-1.81,2.97-1.81,5.3c0,2.41,0.51,4.19,1.52,5.34c1.01,1.15,2.52,1.73,4.52,1.73c0.35,0,0.75-0.03,1.2-0.1
			c0.44-0.06,0.8-0.13,1.08-0.21v-3.46h-2.43c-0.81,0-1.36-0.16-1.65-0.47c-0.29-0.32-0.44-0.86-0.44-1.62v-2.09
			c0-0.76,0.15-1.3,0.44-1.62c0.29-0.32,0.84-0.47,1.65-0.47h8.17c0.99,0,1.67,0.22,2.05,0.67c0.38,0.44,0.57,1.15,0.57,2.11v8.89
			c0,0.56-0.07,0.98-0.21,1.27c-0.14,0.29-0.41,0.59-0.82,0.89c-2.43,1.75-5.81,2.62-10.15,2.62
			C85.47,477.99,81.89,476.86,79.33,474.59z"/>
		<path d="M110.03,476.79c-1.88-0.8-3.33-1.95-4.37-3.46c-1.04-1.51-1.56-3.3-1.56-5.38v-14.21c0-0.73,0.17-1.28,0.51-1.63
			s0.93-0.53,1.77-0.53h4.52c0.86,0,1.46,0.17,1.81,0.51c0.34,0.34,0.51,0.89,0.51,1.65v14.33c0,1.19,0.3,2.08,0.89,2.66
			c0.59,0.58,1.41,0.87,2.45,0.87c1.04,0,1.86-0.29,2.45-0.87c0.6-0.58,0.89-1.47,0.89-2.66v-14.33c0-0.73,0.17-1.28,0.51-1.63
			s0.93-0.53,1.77-0.53h4.52c0.86,0,1.46,0.17,1.8,0.51c0.34,0.34,0.51,0.89,0.51,1.65v14.21c0,2.08-0.52,3.87-1.56,5.38
			c-1.04,1.51-2.5,2.66-4.37,3.46c-1.88,0.8-4.05,1.2-6.54,1.2C114.09,477.99,111.91,477.59,110.03,476.79z M112.69,448.39
			c0-0.2,0.04-0.42,0.11-0.65l1.6-4.41c0.2-0.58,0.44-0.97,0.72-1.18s0.8-0.3,1.56-0.3h5.43c0.53,0,0.95,0.1,1.25,0.29
			c0.3,0.19,0.46,0.46,0.46,0.82c0,0.3-0.1,0.62-0.3,0.95l-2.43,4.1c-0.36,0.61-0.7,1-1.03,1.18c-0.33,0.18-0.92,0.27-1.79,0.27
			h-4.07C113.2,449.45,112.69,449.1,112.69,448.39z"/>
		<path d="M130.88,476.89c-0.34-0.35-0.51-0.9-0.51-1.63v-21.55c0-0.73,0.17-1.27,0.51-1.62c0.34-0.34,0.94-0.51,1.81-0.51h3.61
			c0.53,0,0.94,0.07,1.23,0.21c0.29,0.14,0.58,0.41,0.86,0.82l6.88,10.22v-9.08c0-0.73,0.17-1.28,0.51-1.63s0.93-0.53,1.77-0.53
			h4.52c0.86,0,1.46,0.17,1.8,0.51s0.51,0.89,0.51,1.65v21.55c0,0.74-0.17,1.27-0.51,1.62c-0.34,0.34-0.94,0.51-1.8,0.51h-3.61
			c-0.53,0-0.94-0.07-1.24-0.21c-0.29-0.14-0.58-0.41-0.85-0.82l-6.88-10.22v9.12c0,0.74-0.17,1.27-0.51,1.62
			c-0.34,0.34-0.94,0.51-1.81,0.51h-4.52C131.81,477.42,131.22,477.24,130.88,476.89z"/>
		<path d="M168.95,476.89c-0.34-0.35-0.51-0.9-0.51-1.63v-21.55c0-0.73,0.17-1.27,0.51-1.62s0.94-0.51,1.8-0.51h3.61
			c0.53,0,0.94,0.07,1.24,0.21c0.29,0.14,0.58,0.41,0.86,0.82l6.88,10.22v-9.08c0-0.73,0.17-1.28,0.51-1.63s0.93-0.53,1.77-0.53
			h4.52c0.86,0,1.46,0.17,1.8,0.51s0.51,0.89,0.51,1.65v21.55c0,0.74-0.17,1.27-0.51,1.62c-0.34,0.34-0.94,0.51-1.8,0.51h-3.61
			c-0.53,0-0.94-0.07-1.24-0.21c-0.29-0.14-0.58-0.41-0.85-0.82l-6.88-10.22v9.12c0,0.74-0.17,1.27-0.51,1.62
			c-0.34,0.34-0.94,0.51-1.8,0.51h-4.52C169.88,477.42,169.29,477.24,168.95,476.89z"/>
		<path d="M195.63,476.89c-0.34-0.35-0.51-0.9-0.51-1.63v-21.51c0-0.73,0.17-1.28,0.51-1.63s0.93-0.53,1.77-0.53h15.73
			c0.81,0,1.36,0.17,1.65,0.51s0.44,0.89,0.44,1.65v2.13c0,0.76-0.15,1.31-0.44,1.65c-0.29,0.34-0.84,0.51-1.65,0.51h-8.89v3.27
			h5.47c0.81,0,1.36,0.17,1.65,0.51c0.29,0.34,0.44,0.89,0.44,1.65v2.05c0,0.76-0.15,1.31-0.44,1.65s-0.84,0.51-1.65,0.51h-5.47
			v3.27h8.85c0.81,0,1.36,0.17,1.65,0.51c0.29,0.34,0.44,0.89,0.44,1.65v2.13c0,0.76-0.15,1.31-0.44,1.65
			c-0.29,0.34-0.84,0.51-1.65,0.51h-15.69C196.56,477.42,195.97,477.24,195.63,476.89z"/>
		<path d="M218.29,474.59c-2.56-2.27-3.84-5.63-3.84-10.09c0-4.48,1.24-7.85,3.71-10.11c2.47-2.25,6-3.38,10.58-3.38
			c2.08,0,3.93,0.2,5.55,0.61s2.98,0.98,4.07,1.71c0.3,0.23,0.46,0.48,0.46,0.76c0,0.23-0.12,0.54-0.34,0.95l-1.9,3.27
			c-0.2,0.36-0.44,0.53-0.72,0.53c-0.18,0-0.47-0.1-0.87-0.3c-0.71-0.35-1.45-0.63-2.22-0.84c-0.77-0.2-1.68-0.3-2.72-0.3
			c-2.1,0-3.71,0.61-4.83,1.82c-1.12,1.22-1.67,2.98-1.67,5.28c0,2.28,0.61,4.03,1.82,5.26c1.22,1.23,2.88,1.84,4.98,1.84
			c1.82,0,3.5-0.38,5.02-1.14c0.41-0.2,0.7-0.3,0.88-0.3c0.28,0,0.52,0.18,0.72,0.53l1.9,3.27c0.23,0.41,0.34,0.72,0.34,0.95
			c0,0.28-0.15,0.53-0.46,0.76c-1.09,0.74-2.46,1.3-4.1,1.71c-1.65,0.41-3.51,0.61-5.59,0.61
			C224.44,477.99,220.85,476.86,218.29,474.59z"/>
		<path d="M241.61,476.89c-0.34-0.35-0.51-0.9-0.51-1.63v-21.51c0-0.73,0.17-1.28,0.51-1.63c0.34-0.35,0.93-0.53,1.77-0.53h15.73
			c0.81,0,1.36,0.17,1.65,0.51c0.29,0.34,0.44,0.89,0.44,1.65v2.13c0,0.76-0.15,1.31-0.44,1.65c-0.29,0.34-0.84,0.51-1.65,0.51
			h-8.89v3.27h5.47c0.81,0,1.36,0.17,1.65,0.51c0.29,0.34,0.44,0.89,0.44,1.65v2.05c0,0.76-0.15,1.31-0.44,1.65
			c-0.29,0.34-0.84,0.51-1.65,0.51h-5.47v3.27h8.85c0.81,0,1.36,0.17,1.65,0.51s0.44,0.89,0.44,1.65v2.13
			c0,0.76-0.15,1.31-0.44,1.65c-0.29,0.34-0.84,0.51-1.65,0.51h-15.7C242.54,477.42,241.95,477.24,241.61,476.89z"/>
		<path d="M267.73,477.27c-1.97-0.48-3.57-1.15-4.79-2.01c-0.51-0.35-0.76-0.7-0.76-1.03c0-0.23,0.09-0.47,0.27-0.72l2.2-3.46
			c0.23-0.33,0.46-0.49,0.68-0.49c0.2,0,0.44,0.09,0.72,0.27c0.91,0.56,1.96,0.99,3.14,1.31c1.18,0.32,2.32,0.47,3.44,0.47
			c0.94,0,1.62-0.13,2.03-0.38c0.42-0.25,0.63-0.65,0.63-1.18c0-0.58-0.28-1.05-0.84-1.41c-0.56-0.35-1.52-0.8-2.89-1.33
			c-2.56-0.99-4.57-2.11-6.04-3.36c-1.47-1.25-2.2-2.92-2.2-5c0-2.63,0.92-4.62,2.75-5.95c1.84-1.33,4.31-2,7.43-2
			c2.18,0,4.03,0.19,5.57,0.57c1.53,0.38,2.87,0.98,4.01,1.79c0.51,0.35,0.76,0.7,0.76,1.03c0,0.23-0.09,0.47-0.27,0.72l-2.2,3.46
			c-0.23,0.35-0.46,0.53-0.68,0.53c-0.15,0-0.39-0.1-0.72-0.3c-0.61-0.41-1.33-0.74-2.17-1.01s-1.74-0.4-2.7-0.4
			c-0.89,0-1.56,0.13-2.01,0.38c-0.46,0.25-0.68,0.66-0.68,1.22c0,0.46,0.16,0.84,0.48,1.14c0.32,0.3,0.71,0.56,1.2,0.78
			s1.32,0.56,2.51,1.04c1.9,0.76,3.39,1.49,4.48,2.18c1.09,0.7,1.91,1.53,2.47,2.51c0.56,0.98,0.84,2.21,0.84,3.71
			c0,2.28-0.86,4.12-2.56,5.53c-1.71,1.41-4.26,2.11-7.66,2.11C271.85,477.99,269.71,477.75,267.73,477.27z"/>
		<path d="M286.79,476.89c-0.34-0.35-0.51-0.9-0.51-1.63v-21.51c0-0.73,0.17-1.28,0.51-1.63c0.34-0.35,0.93-0.53,1.77-0.53h4.52
			c0.86,0,1.46,0.17,1.81,0.51s0.51,0.89,0.51,1.65v21.51c0,0.74-0.17,1.28-0.51,1.63c-0.34,0.36-0.94,0.53-1.81,0.53h-4.52
			C287.72,477.42,287.13,477.24,286.79,476.89z"/>
		<path d="M298.57,476.89c-0.34-0.35-0.51-0.9-0.51-1.63v-21.51c0-0.73,0.17-1.28,0.51-1.63c0.34-0.35,0.93-0.53,1.77-0.53h8.74
			c8.94,0,13.41,4.31,13.41,12.92c0,4.26-1.15,7.47-3.44,9.65c-2.29,2.18-5.62,3.27-9.98,3.27h-8.74
			C299.5,477.42,298.91,477.24,298.57,476.89z M309.42,470.96c1.42,0,2.44-0.47,3.06-1.41c0.62-0.94,0.93-2.62,0.93-5.05
			s-0.31-4.12-0.93-5.05c-0.62-0.94-1.64-1.41-3.06-1.41h-2.24v12.92H309.42z"/>
		<path d="M321.92,476.62c0-0.23,0.06-0.51,0.19-0.84l9.46-22.76c0.23-0.53,0.49-0.91,0.78-1.12c0.29-0.22,0.7-0.32,1.23-0.32h4.14
			c0.53,0,0.94,0.11,1.23,0.32c0.29,0.21,0.55,0.59,0.78,1.12l9.42,22.76c0.13,0.33,0.19,0.61,0.19,0.84c0,0.53-0.28,0.8-0.84,0.8
			h-7.14c-0.79,0-1.28-0.34-1.48-1.03l-0.91-2.81h-6.73l-0.87,2.81c-0.2,0.68-0.7,1.03-1.48,1.03h-7.14
			C322.2,477.42,321.92,477.16,321.92,476.62z M337.12,467.58l-1.48-4.71l-1.48,4.71H337.12z"/>
		<path d="M351.77,476.89c-0.34-0.35-0.51-0.9-0.51-1.63v-21.51c0-0.73,0.17-1.28,0.51-1.63s0.93-0.53,1.77-0.53h8.74
			c8.94,0,13.41,4.31,13.41,12.92c0,4.26-1.15,7.47-3.44,9.65s-5.62,3.27-9.97,3.27h-8.74C352.7,477.42,352.11,477.24,351.77,476.89
			z M362.62,470.96c1.42,0,2.44-0.47,3.06-1.41c0.62-0.94,0.93-2.62,0.93-5.05s-0.31-4.12-0.93-5.05s-1.64-1.41-3.06-1.41h-2.24
			v12.92H362.62z"/>
		<path d="M88.81,522.49c-0.34-0.35-0.51-0.9-0.51-1.63v-21.51c0-0.73,0.17-1.28,0.51-1.63s0.93-0.53,1.77-0.53h8.74
			c8.94,0,13.41,4.31,13.41,12.92c0,4.26-1.15,7.47-3.44,9.65s-5.62,3.27-9.97,3.27h-8.74C89.74,523.02,89.15,522.84,88.81,522.49z
			 M99.66,516.56c1.42,0,2.44-0.47,3.06-1.41c0.62-0.94,0.93-2.62,0.93-5.05s-0.31-4.12-0.93-5.05s-1.64-1.41-3.06-1.41h-2.24v12.92
			H99.66z"/>
		<path d="M115.14,522.49c-0.34-0.35-0.51-0.9-0.51-1.63v-21.51c0-0.73,0.17-1.28,0.51-1.63s0.93-0.53,1.77-0.53h15.73
			c0.81,0,1.36,0.17,1.65,0.51s0.44,0.89,0.44,1.65v2.13c0,0.76-0.15,1.31-0.44,1.65c-0.29,0.34-0.84,0.51-1.65,0.51h-8.89v3.27
			h5.47c0.81,0,1.36,0.17,1.65,0.51c0.29,0.34,0.44,0.89,0.44,1.65v2.05c0,0.76-0.15,1.31-0.44,1.65s-0.84,0.51-1.65,0.51h-5.47
			v3.27h8.85c0.81,0,1.36,0.17,1.65,0.51c0.29,0.34,0.44,0.89,0.44,1.65v2.13c0,0.76-0.15,1.31-0.44,1.65
			c-0.29,0.34-0.84,0.51-1.65,0.51h-15.69C116.08,523.02,115.49,522.84,115.14,522.49z"/>
		<path d="M136.96,522.49c-0.34-0.35-0.51-0.9-0.51-1.63v-21.51c0-0.73,0.17-1.28,0.51-1.63c0.34-0.35,0.93-0.53,1.77-0.53h4.52
			c0.86,0,1.46,0.17,1.81,0.51s0.51,0.89,0.51,1.65v17.21h8.85c0.81,0,1.36,0.17,1.65,0.51s0.44,0.89,0.44,1.65v2.13
			c0,0.76-0.15,1.31-0.44,1.65c-0.29,0.34-0.84,0.51-1.65,0.51h-15.7C137.89,523.02,137.3,522.84,136.96,522.49z"/>
		<path d="M172.13,520.19c-2.56-2.27-3.84-5.63-3.84-10.09c0-4.48,1.23-7.85,3.71-10.11c2.47-2.25,6-3.38,10.58-3.38
			c2.08,0,3.93,0.2,5.55,0.61s2.98,0.98,4.07,1.71c0.3,0.23,0.46,0.48,0.46,0.76c0,0.23-0.11,0.54-0.34,0.95l-1.9,3.27
			c-0.2,0.36-0.44,0.53-0.72,0.53c-0.18,0-0.47-0.1-0.87-0.3c-0.71-0.35-1.45-0.63-2.22-0.84c-0.77-0.2-1.68-0.3-2.72-0.3
			c-2.1,0-3.71,0.61-4.83,1.82c-1.12,1.22-1.67,2.98-1.67,5.28c0,2.28,0.61,4.03,1.82,5.26c1.21,1.23,2.88,1.84,4.98,1.84
			c1.82,0,3.5-0.38,5.02-1.14c0.4-0.2,0.7-0.3,0.87-0.3c0.28,0,0.52,0.18,0.72,0.53l1.9,3.27c0.23,0.41,0.34,0.72,0.34,0.95
			c0,0.28-0.15,0.53-0.46,0.76c-1.09,0.74-2.46,1.3-4.1,1.71s-3.51,0.61-5.59,0.61C178.27,523.59,174.68,522.46,172.13,520.19z"/>
		<path d="M195.44,522.49c-0.34-0.35-0.51-0.9-0.51-1.63v-21.51c0-0.73,0.17-1.28,0.51-1.63s0.93-0.53,1.77-0.53h4.52
			c0.86,0,1.46,0.17,1.8,0.51s0.51,0.89,0.51,1.65v17.21h8.85c0.81,0,1.36,0.17,1.65,0.51c0.29,0.34,0.44,0.89,0.44,1.65v2.13
			c0,0.76-0.15,1.31-0.44,1.65c-0.29,0.34-0.84,0.51-1.65,0.51h-15.69C196.37,523.02,195.78,522.84,195.44,522.49z"/>
		<path d="M216.64,522.49c-0.34-0.35-0.51-0.9-0.51-1.63v-21.51c0-0.73,0.17-1.28,0.51-1.63c0.34-0.35,0.93-0.53,1.77-0.53h4.52
			c0.86,0,1.46,0.17,1.81,0.51s0.51,0.89,0.51,1.65v21.51c0,0.74-0.17,1.28-0.51,1.63c-0.34,0.36-0.94,0.53-1.81,0.53h-4.52
			C217.57,523.02,216.98,522.84,216.64,522.49z"/>
		<path d="M228.42,522.49c-0.34-0.35-0.51-0.9-0.51-1.63v-21.51c0-0.73,0.17-1.28,0.51-1.63s0.93-0.53,1.77-0.53h15.73
			c0.81,0,1.36,0.17,1.65,0.51c0.29,0.34,0.44,0.89,0.44,1.65v2.13c0,0.76-0.15,1.31-0.44,1.65c-0.29,0.34-0.84,0.51-1.65,0.51
			h-8.89v3.27h5.47c0.81,0,1.36,0.17,1.65,0.51c0.29,0.34,0.44,0.89,0.44,1.65v2.05c0,0.76-0.15,1.31-0.44,1.65
			c-0.29,0.34-0.84,0.51-1.65,0.51h-5.47v3.27h8.85c0.81,0,1.36,0.17,1.65,0.51s0.44,0.89,0.44,1.65v2.13
			c0,0.76-0.15,1.31-0.44,1.65c-0.29,0.34-0.84,0.51-1.65,0.51h-15.69C229.35,523.02,228.76,522.84,228.42,522.49z"/>
		<path d="M250.23,522.49c-0.34-0.35-0.51-0.9-0.51-1.63v-21.55c0-0.73,0.17-1.27,0.51-1.62c0.34-0.34,0.94-0.51,1.81-0.51h3.61
			c0.53,0,0.94,0.07,1.23,0.21c0.29,0.14,0.58,0.41,0.86,0.82l6.88,10.22v-9.08c0-0.73,0.17-1.28,0.51-1.63s0.93-0.53,1.77-0.53
			h4.52c0.86,0,1.46,0.17,1.8,0.51s0.51,0.89,0.51,1.65v21.55c0,0.74-0.17,1.27-0.51,1.62c-0.34,0.34-0.94,0.51-1.8,0.51h-3.61
			c-0.53,0-0.94-0.07-1.24-0.21c-0.29-0.14-0.58-0.41-0.85-0.82l-6.88-10.22v9.12c0,0.74-0.17,1.27-0.51,1.62
			c-0.34,0.34-0.94,0.51-1.81,0.51H252C251.16,523.02,250.58,522.84,250.23,522.49z"/>
		<path d="M282.95,522.49c-0.34-0.35-0.51-0.9-0.51-1.63v-17.21h-5.47c-0.81,0-1.36-0.17-1.65-0.51c-0.29-0.34-0.44-0.89-0.44-1.65
			v-2.13c0-0.76,0.15-1.31,0.44-1.65s0.84-0.51,1.65-0.51h20.06c0.81,0,1.36,0.17,1.65,0.51c0.29,0.34,0.44,0.89,0.44,1.65v2.13
			c0,0.76-0.15,1.31-0.44,1.65c-0.29,0.34-0.84,0.51-1.65,0.51h-5.47v17.21c0,0.74-0.17,1.28-0.51,1.63
			c-0.34,0.36-0.94,0.53-1.8,0.53h-4.52C283.88,523.02,283.29,522.84,282.95,522.49z"/>
		<path d="M300.77,522.49c-0.34-0.35-0.51-0.9-0.51-1.63v-21.51c0-0.73,0.17-1.28,0.51-1.63c0.34-0.35,0.93-0.53,1.77-0.53h15.73
			c0.81,0,1.36,0.17,1.65,0.51c0.29,0.34,0.44,0.89,0.44,1.65v2.13c0,0.76-0.15,1.31-0.44,1.65c-0.29,0.34-0.84,0.51-1.65,0.51
			h-8.89v3.27h5.47c0.81,0,1.36,0.17,1.65,0.51c0.29,0.34,0.44,0.89,0.44,1.65v2.05c0,0.76-0.15,1.31-0.44,1.65
			c-0.29,0.34-0.84,0.51-1.65,0.51h-5.47v3.27h8.85c0.81,0,1.36,0.17,1.65,0.51s0.44,0.89,0.44,1.65v2.13
			c0,0.76-0.15,1.31-0.44,1.65c-0.29,0.34-0.84,0.51-1.65,0.51h-15.7C301.7,523.02,301.12,522.84,300.77,522.49z"/>
	</g>
	<polygon class="st1" points="202.78,92.2 216.25,119.49 246.36,123.86 224.57,145.1 229.72,175.1 202.78,160.94 175.85,175.1 
		180.99,145.1 159.2,123.86 189.32,119.49 	"/>
	<polygon class="st1" points="140.6,175.42 149.34,193.13 168.88,195.97 154.74,209.75 158.08,229.21 140.6,220.02 123.13,229.21 
		126.47,209.75 112.33,195.97 131.87,193.13 	"/>
	<polygon class="st1" points="270.7,175.42 279.44,193.13 298.98,195.97 284.84,209.75 288.18,229.21 270.7,220.02 253.23,229.21 
		256.56,209.75 242.43,195.97 261.96,193.13 	"/>
	<circle class="st2" cx="203.8" cy="209.24" r="121.96"/>
	<circle class="st3" cx="202.84" cy="195.85" r="121.96"/>
	<g>
		<path class="st3" d="M181.52,636.24c-3.99-2.85-5.99-6.87-5.99-12.08c0-2.14,0.54-4.16,1.61-6.06c1.07-1.9,2.58-3.41,4.53-4.53
			c-1.66-1.07-2.88-2.38-3.69-3.94c-0.8-1.56-1.21-3.24-1.21-5.04c0-5.11,1.84-9.04,5.51-11.79c3.67-2.75,8.97-4.13,15.88-4.13
			c6.91,0,12.2,1.38,15.88,4.13c3.67,2.75,5.51,6.68,5.51,11.79c0,1.8-0.4,3.48-1.2,5.04c-0.8,1.56-2.03,2.87-3.69,3.94
			c1.95,1.12,3.45,2.63,4.53,4.53c1.07,1.9,1.61,3.92,1.61,6.06c0,5.21-2,9.23-5.99,12.08c-3.99,2.85-9.54,4.27-16.64,4.27
			C191.06,640.51,185.51,639.08,181.52,636.24z M203.42,624.01c0-1.41-0.44-2.48-1.31-3.21c-0.88-0.73-2.19-1.09-3.94-1.09
			c-3.46,0-5.18,1.44-5.18,4.31c0,2.82,1.73,4.23,5.18,4.23C201.67,628.24,203.42,626.83,203.42,624.01z M202.11,604.66
			c0-1.31-0.32-2.26-0.95-2.85c-0.63-0.58-1.63-0.88-2.99-0.88c-1.36,0-2.36,0.29-2.99,0.88c-0.63,0.58-0.95,1.53-0.95,2.85
			c0,2.14,1.31,3.21,3.94,3.21S202.11,606.81,202.11,604.66z"/>
	</g>
	<circle id="XMLID_159_" class="st4" cx="197.73" cy="199.96" r="82.04"/>
	<path id="XMLID_157_" class="st5" d="M197.68,217.54c6.53,0,12.37-4.25,14.39-4.68c-0.17-1.44-0.2-2.74-0.19-3.81
		c-4.97,4.19-7.16,5.62-13.75,5.39c-6.85,0.24-8.95-1.32-14.35-5.9c0.02,1.16,0.02,2.67-0.19,4.37
		C185.76,213.55,191.36,217.53,197.68,217.54L197.68,217.54z"/>
	<path id="XMLID_155_" class="st49" d="M251.64,235.74c-1.29-1.35-11.06-3.18-17.37-5.87c-7.02-2.99-14.24-5.4-17.85-8.32h0
		c-0.05,0.07-0.1,0.14-0.17,0.2c-7.42,7.26-18.56,6.71-18.56,6.71v-0.01c0,0-11.05,0.56-18.47-6.7c-0.07-0.07-0.12-0.14-0.17-0.2h0
		c-3.62,2.93-10.83,5.33-17.85,8.32c-6.63,2.82-17.08,4.71-17.5,6.07c7.64-3.08,11.62,18.5,13.1,35.1
		C168.83,278,182.81,282,197.73,282c15.1,0,29.23-4.09,41.38-11.21C240.56,254.62,244.38,233.86,251.64,235.74z"/>
	<path id="XMLID_153_" class="st12" d="M198.13,214.44c6.59,0.23,8.78-1.21,13.75-5.39c0.39-0.33,0.78-0.66,1.21-1.02
		c6.16-5.23,3.06-16.15,6.8-15.46s8.02-9.67,5.08-11.94c-0.06-0.05-0.12-0.08-0.18-0.12l0,0c-1.47-0.51-2.63,0.77-3.71,2.59
		c-1.08,1.82-0.66,4.62-1.74,4.56c-1.45-4.92-1.13-9.3-0.84-14.41c-10.08,2.96-20.46,4.49-28.86-1.67
		c-1.72-1.26-3.39-2.92-5.99-2.88c-3.01,0.05-4.22,1.84-3.8,4.73c0.21,1.45,0.32,3.41,0.4,4.27c0.29,3.01-1.58,6.71-2.27,7.42
		c-0.45,0.46-1.54,2.38-2.2,2.54c-0.54,0.13-0.17-3.01-1.97-5.72c-1.02-1.53-1.63-1.72-1.91-1.71c-0.19,0.11-0.39,0.24-0.6,0.4
		c-2.94,2.27,1.34,12.62,5.08,11.94c3.74-0.68,0.64,10.23,6.8,15.46c0.21,0.18,0.4,0.34,0.6,0.51
		C189.18,213.12,191.28,214.68,198.13,214.44z"/>
	<path id="XMLID_151_" class="st50" d="M143.69,235.94c-0.11,0.05-0.23,0.07-0.34,0.13c-1.69,0.84-4.94,6.52-7.48,17.73
		c5.96,6.84,13.02,12.67,20.92,17.23C155.3,254.44,151.32,232.86,143.69,235.94z"/>
	<path id="XMLID_146_" class="st50" d="M252.52,236.07c-0.3-0.15-0.59-0.25-0.88-0.33c-7.25-1.88-11.08,18.88-12.54,35.05
		c7.87-4.61,14.9-10.49,20.81-17.36C257.39,242.47,254.19,236.9,252.52,236.07z"/>
	<path id="XMLID_145_" class="st50" d="M197.68,228.46v0.01c0,0,11.13,0.55,18.56-6.71c0.07-0.07,0.12-0.14,0.17-0.2
		c0.91-1.26-1.47-2.59-1.77-4.02c-0.32-1.52-0.54-5.01-2.46-4.7c-0.03,0.01-0.07,0.02-0.11,0.03c-2.02,0.43-7.85,4.68-14.39,4.68
		v-0.01c-6.33,0-11.92-3.97-14.1-4.62c-0.11-0.03-0.22-0.06-0.31-0.08c-1.92-0.31-2.14,3.18-2.46,4.7c-0.3,1.44-2.68,2.76-1.77,4.02
		c0.05,0.07,0.1,0.14,0.17,0.2C186.64,229.01,197.68,228.46,197.68,228.46z"/>
	<path id="XMLID_144_" class="st144" d="M173.8,181.93c1.79,2.71,1.43,5.85,1.97,5.72c0.65-0.16,1.75-2.08,2.2-2.54
		c0.69-0.71,2.56-4.41,2.27-7.42c-0.08-0.86-0.19-2.82-0.4-4.27c-0.42-2.89,0.79-4.68,3.8-4.73c2.61-0.04,4.27,1.62,5.99,2.88
		c8.4,6.17,18.78,4.63,28.86,1.67c-0.28,5.11-0.61,9.49,0.84,14.41c1.07,0.07,0.65-2.74,1.74-4.56c1.08-1.82,2.24-3.1,3.71-2.59l0,0
		c2.99-6.37,3.31-16.72,0.35-23.1c-2.96-6.38-7.69-9.37-12.37-14.69c0.43,1.44-1.52,3.6-3.36,3.77c-1.53,0.14-4.09-0.69-5.62-0.87
		c-7.75-0.94-12.18-1.29-18.52,0.94c-3.27,1.15-6.36,2.76-8.81,5.15c-3.17,3.08-5.8,8.67-6.32,12.99c-0.27,2.24-0.55,4.52-0.22,7.78
		c0.14,1.39,0.99,6.54,1.82,7.79c0,0,0.06-0.03,0.17-0.04C172.17,180.21,172.79,180.4,173.8,181.93z"/>
	<circle class="st0" cx="267" cy="154" r="34"/>
	<g>
		<path class="st3" d="M260.55,170.09c-0.86-0.73-1.29-2.12-1.29-4.16v-4.59h-6.78c-2.04,0-3.42-0.43-4.16-1.29
			c-0.73-0.86-1.1-2.25-1.1-4.16v-5.35c0-1.91,0.37-3.29,1.1-4.16c0.73-0.86,2.12-1.29,4.16-1.29h6.78v-4.68
			c0-2.04,0.43-3.42,1.29-4.16c0.86-0.73,2.25-1.1,4.16-1.1h6.69c1.91,0,3.3,0.37,4.16,1.1c0.86,0.73,1.29,2.12,1.29,4.16v4.68h6.88
			c2.04,0,3.42,0.43,4.16,1.29c0.73,0.86,1.1,2.25,1.1,4.16v5.35c0,1.91-0.37,3.3-1.1,4.16c-0.73,0.86-2.12,1.29-4.16,1.29h-6.88
			v4.59c0,2.04-0.43,3.43-1.29,4.16c-0.86,0.73-2.25,1.1-4.16,1.1h-6.69C262.8,171.19,261.41,170.83,260.55,170.09z"/>
	</g>
</g>
</svg>
