<?xml version="1.0" encoding="utf-8"?>
<!-- Generator: Adobe Illustrator 23.0.0, SVG Export Plug-In . SVG Version: 6.00 Build 0)  -->
<svg version="1.1" id="Capa_1" xmlns="http://www.w3.org/2000/svg" xmlns:xlink="http://www.w3.org/1999/xlink" x="0px" y="0px"
	 viewBox="0 0 400 702" style="enable-background:new 0 0 400 702;" xml:space="preserve">
<style type="text/css">
	.st0{fill:#0085B0;}
	.st1{fill:#E0EF18;}
	.st2{fill:#CECECE;}
	.st3{fill:#FFFFFF;}
	.st4{fill:#F2F2F2;}
	.st5{fill:#EACCB0;}
	.st6{fill:#9B9B9B;}
	.st7{fill:#939393;}
	.st8{fill:#EFEFEF;}
	.st9{fill:#828282;}
	.st10{fill:#2C2A2D;}
	.st11{fill:#202021;}
	.st12{fill:#F2D4B6;}
	.st13{fill:#534D46;}
	.st14{fill:#E8D313;}
	.st15{fill:#2ACCFF;}
	.st16{fill:#4E4F4F;}
	.st17{fill:#003A94;}
	.st18{fill:#00D13C;}
	.st19{fill:#15682A;}
	.st20{fill:#D40000;}
	.st21{fill:#505050;}
	.st22{fill:#DFDFDF;}
	.st23{fill:none;}
	.st24{fill:#636363;}
	.st25{fill:#6C92D5;}
	.st26{fill:#22272F;}
	.st27{fill:#1B2538;}
	.st28{fill:#253452;}
	.st29{fill:#F9F9F9;}
	.st30{fill:#2D3543;}
	.st31{fill:#2A3D60;}
	.st32{fill:#587955;}
	.st33{fill:#CD7054;}
	.st34{fill:#F1CC4B;}
	.st35{fill:#ACACAC;}
	.st36{fill:#AAE528;}
	.st37{fill:#28CEBA;}
	.st38{fill:#DB143F;}
	.st39{fill:#53C2C9;}
	.st40{fill:#FFB412;}
	.st41{fill:#866A5E;}
	.st42{fill:#F7DDCB;}
	.st43{fill:#FFE6D4;}
	.st44{fill:#F5F5F5;}
	.st45{fill:#1A2830;}
	.st46{fill:#24353F;}
	.st47{fill:#132026;}
	.st48{fill:#F9FF03;}
	.st49{fill:#272728;}
	.st50{fill:#1E1D1E;}
	.st51{fill:#160423;}
	.st52{fill-rule:evenodd;clip-rule:evenodd;fill:#FFFFFF;}
	.st53{fill-rule:evenodd;clip-rule:evenodd;fill:#1996B8;}
	.st54{fill:#0C387D;}
	.st55{fill:#C69A81;}
	.st56{fill:#D1A385;}
	.st57{fill:#EAEAEA;}
	.st58{fill:#093E8C;}
	.st59{fill:#0B2A62;}
	.st60{fill:#D32A3B;}
	.st61{fill:#827C7D;}
	.st62{opacity:0.7;fill:#7F7F7F;}
	.st63{fill:#FDFDFD;}
	.st64{fill:#DAA449;}
	.st65{fill:#DD9225;}
	.st66{opacity:0.3;}
	.st67{fill:#425793;}
	.st68{opacity:0.8;}
	.st69{filter:url(#Adobe_OpacityMaskFilter);}
	.st70{opacity:0.15;mask:url(#SVGID_1_);}
	.st71{fill:#090B00;}
	.st72{opacity:0.1;}
	.st73{fill:#211915;}
	.st74{filter:url(#Adobe_OpacityMaskFilter_1_);}
	.st75{opacity:0.15;mask:url(#SVGID_2_);}
	.st76{fill:#AF3623;}
	.st77{filter:url(#Adobe_OpacityMaskFilter_2_);}
	.st78{opacity:0.15;mask:url(#SVGID_3_);}
	.st79{filter:url(#Adobe_OpacityMaskFilter_3_);}
	.st80{opacity:0.15;mask:url(#SVGID_4_);}
	.st81{fill:#456495;}
	.st82{filter:url(#Adobe_OpacityMaskFilter_4_);}
	.st83{opacity:0.15;mask:url(#SVGID_5_);}
	.st84{filter:url(#Adobe_OpacityMaskFilter_5_);}
	.st85{opacity:0.15;mask:url(#SVGID_6_);}
	.st86{fill:#76A9DA;}
	.st87{filter:url(#Adobe_OpacityMaskFilter_6_);}
	.st88{opacity:0.15;mask:url(#SVGID_7_);}
	.st89{filter:url(#Adobe_OpacityMaskFilter_7_);}
	.st90{opacity:0.15;mask:url(#SVGID_8_);}
	.st91{fill:#1F3642;}
	.st92{fill:#A9BDDA;}
	.st93{opacity:0.46;fill:#A6B4BC;}
	.st94{fill:#74C475;}
	.st95{fill:#221F21;}
	.st96{fill:#2D2D2D;}
	.st97{fill:#1C1B1A;}
	.st98{fill:#77181C;}
	.st99{fill:#262525;}
	.st100{fill:#11100F;}
	.st101{opacity:0.18;}
	.st102{opacity:0.38;}
	.st103{fill:#0A5B1F;}
	.st104{opacity:0.27;}
	.st105{opacity:0.48;}
	.st106{fill:#0A4654;}
	.st107{fill:#C2C6C6;}
	.st108{fill:#E5E5E5;stroke:#FFFFFF;stroke-miterlimit:10;}
	.st109{fill:#ACB4B5;}
	.st110{fill:#7F8384;}
	.st111{fill:#15772F;}
	.st112{fill:#F4F4F4;}
	.st113{fill:#53B8DB;}
	.st114{fill:#06EF42;}
	.st115{fill:#E7ED07;}
	.st116{fill:#CCCCCA;}
	.st117{fill:#EADF13;}
	.st118{fill:#C2C2C2;}
	.st119{fill:#85B681;}
	.st120{fill:#A1DC9B;}
	.st121{fill:#90C58B;}
	.st122{fill:#22241F;}
	.st123{opacity:0.5;}
	.st124{fill:#A2CADE;}
	.st125{fill:#E9E9E9;}
	.st126{fill:#D9D9D9;}
	.st127{fill:#CDCDCD;}
	.st128{opacity:0.34;fill:#F0F0F0;}
	.st129{fill:#5A5B5A;}
	.st130{fill:#FFE600;}
	.st131{fill:#DB1F59;}
	.st132{fill:#727272;}
	.st133{fill:#207235;}
	.st134{fill:#A3A3A3;}
	.st135{fill:#BCBCBC;}
	.st136{fill:#0A511C;}
	.st137{fill:#F9FF00;}
	.st138{fill:#D59F6D;}
	.st139{fill:#C0804A;}
	.st140{fill:#E6BA8A;}
	.st141{fill:#BE3ACC;}
	.st142{fill:#FFFFFF;stroke:#443F0C;stroke-width:9;stroke-miterlimit:10;}
	.st143{fill:none;stroke:#443F0C;stroke-width:9;stroke-miterlimit:10;}
	.st144{fill:#170623;}
	.st145{fill:#158231;}
	.st146{fill:#C89D76;}
	.st147{opacity:0.4;}
	.st148{fill:#ADADAD;}
	.st149{fill:#EDC3A6;}
	.st150{opacity:0.69;}
	.st151{fill:#E5D3D6;}
	.st152{opacity:0.44;}
	.st153{fill:#A5A5A5;}
	.st154{fill:#DDE5E4;}
	.st155{fill:#5C9169;}
	.st156{fill:#934215;}
	.st157{fill:#47413B;}
	.st158{fill:#601A1F;}
	.st159{fill:#044554;}
	.st160{opacity:0.7;}
	.st161{fill:#7F7F7F;}
	.st162{fill:#6B8A69;}
	.st163{opacity:0.24;fill:#848D90;}
	.st164{opacity:0.4;fill:#848D90;}
	.st165{fill:#F2D5D5;}
	.st166{fill:#485CC1;}
	.st167{fill:#C6CBE0;}
	.st168{fill:#8B909E;}
	.st169{fill:#53BC1B;}
	.st170{fill:#11565B;}
	.st171{fill:#67A06D;}
	.st172{fill:#FFEC00;}
	.st173{fill:#77A007;}
	.st174{fill:#E50731;}
	.st175{fill:#266472;}
	.st176{fill:#D4D4D4;}
	.st177{fill:#0E9932;}
	.st178{fill:#87DD24;}
	.st179{fill:#76A172;}
	.st180{fill:#62835F;}
	.st181{fill:#96D090;}
	.st182{fill:#D6D6D6;}
	.st183{fill:#606060;}
	.st184{fill:#494949;}
	.st185{fill:#29E55A;}
	.st186{fill:#2C703D;}
	.st187{fill:#DD0744;}
	.st188{fill:#EDEDED;}
	.st189{fill:#2A5936;}
	.st190{fill:#B9BBC1;}
	.st191{fill:#FFD79E;}
	.st192{fill:#FFE6C2;}
	.st193{fill:#2CBB55;}
	.st194{fill:#5C412D;}
	.st195{fill:#EC0000;}
	.st196{fill:#DD2626;}
	.st197{fill:#EA9334;}
	.st198{fill:#FCC232;}
	.st199{fill:#F9B234;}
	.st200{fill:#F7A037;}
	.st201{fill:#E0E0E0;}
</style>
<g>
	<g>
		<path class="st18" d="M9.5,209.36c0,22,13.29,27.86,29.54,13.03c0,0,156.99-143.3,353.09,26.97V55c0-22-18-40-40-40H49.5
			c-22,0-40,18-40,40V209.36z"/>
	</g>
	<g>
		<path class="st18" d="M391.66,647c0,22-18,40-40,40H49.98c-22,0-40-18-40-40v-46.27c0-22,18-40,40-40h301.68c22,0,40,18,40,40V647
			z"/>
	</g>
	<g>
		<path d="M69.26,409.31c-0.41-0.43-0.62-1.09-0.62-1.98v-26.04c0-0.89,0.21-1.55,0.62-1.98s1.13-0.64,2.14-0.64h10.58
			c10.83,0,16.24,5.21,16.24,15.64c0,5.15-1.39,9.05-4.16,11.68c-2.78,2.64-6.8,3.96-12.08,3.96H71.4
			C70.39,409.95,69.68,409.74,69.26,409.31z M82.39,402.13c1.72,0,2.95-0.57,3.7-1.7c0.75-1.13,1.13-3.17,1.13-6.12
			c0-2.94-0.38-4.98-1.13-6.12c-0.75-1.13-1.99-1.7-3.7-1.7h-2.71v15.64H82.39z"/>
		<path d="M101.14,409.31c-0.41-0.43-0.62-1.09-0.62-1.98v-26.04c0-0.89,0.21-1.55,0.62-1.98s1.13-0.64,2.14-0.64h5.47
			c1.04,0,1.77,0.21,2.18,0.62c0.41,0.41,0.62,1.08,0.62,2v26.04c0,0.89-0.21,1.55-0.62,1.98c-0.41,0.43-1.14,0.64-2.18,0.64h-5.47
			C102.27,409.95,101.55,409.74,101.14,409.31z"/>
		<path d="M115.4,409.31c-0.41-0.43-0.62-1.09-0.62-1.98v-26.04c0-0.89,0.21-1.55,0.62-1.98s1.13-0.64,2.14-0.64h10.99
			c4.6,0,7.95,0.91,10.05,2.74c2.1,1.83,3.15,4.58,3.15,8.26c0,2.21-0.38,4.07-1.13,5.59c-0.75,1.52-1.91,2.71-3.47,3.57l4.28,9.15
			c0.12,0.25,0.18,0.52,0.18,0.83c0,0.34-0.12,0.61-0.35,0.83c-0.23,0.21-0.53,0.32-0.9,0.32h-7.77c-0.49,0-0.88-0.07-1.17-0.21
			c-0.29-0.14-0.5-0.38-0.62-0.71l-3.4-8.56h-1.56v6.85c0,0.89-0.21,1.55-0.62,1.98c-0.41,0.43-1.14,0.64-2.18,0.64h-5.47
			C116.53,409.95,115.81,409.74,115.4,409.31z M127.57,392.79c0.98,0,1.76-0.26,2.32-0.78c0.57-0.52,0.85-1.3,0.85-2.35
			c0-1.07-0.28-1.87-0.85-2.39c-0.57-0.52-1.34-0.78-2.32-0.78h-3.13v6.3H127.57z"/>
		<path d="M144.66,409.31c-0.41-0.43-0.62-1.09-0.62-1.98v-26.04c0-0.89,0.21-1.55,0.62-1.98s1.13-0.64,2.14-0.64h19.04
			c0.98,0,1.65,0.21,2,0.62c0.35,0.41,0.53,1.08,0.53,2v2.58c0,0.92-0.18,1.59-0.53,2c-0.35,0.41-1.02,0.62-2,0.62h-10.76v3.96h6.62
			c0.98,0,1.65,0.21,2,0.62c0.35,0.41,0.53,1.08,0.53,2v2.48c0,0.92-0.18,1.59-0.53,2c-0.35,0.41-1.02,0.62-2,0.62h-6.62v3.96h10.72
			c0.98,0,1.65,0.21,2,0.62s0.53,1.08,0.53,2v2.58c0,0.92-0.18,1.59-0.53,2s-1.02,0.62-2,0.62h-19
			C145.78,409.95,145.07,409.74,144.66,409.31z"/>
		<path d="M172.09,406.53c-3.1-2.74-4.65-6.82-4.65-12.21c0-5.43,1.5-9.51,4.49-12.24c2.99-2.73,7.26-4.09,12.81-4.09
			c2.51,0,4.75,0.25,6.72,0.74c1.96,0.49,3.6,1.18,4.92,2.07c0.37,0.28,0.55,0.58,0.55,0.92c0,0.28-0.14,0.66-0.41,1.15l-2.3,3.96
			c-0.25,0.43-0.54,0.64-0.87,0.64c-0.21,0-0.57-0.12-1.06-0.37c-0.86-0.43-1.76-0.77-2.69-1.01c-0.94-0.25-2.03-0.37-3.29-0.37
			c-2.55,0-4.49,0.74-5.84,2.21c-1.35,1.47-2.02,3.6-2.02,6.39c0,2.76,0.74,4.88,2.21,6.37c1.47,1.49,3.48,2.23,6.03,2.23
			c2.21,0,4.23-0.46,6.07-1.38c0.49-0.25,0.84-0.37,1.06-0.37c0.34,0,0.63,0.21,0.87,0.64l2.3,3.96c0.28,0.49,0.41,0.87,0.41,1.15
			c0,0.34-0.18,0.64-0.55,0.92c-1.32,0.89-2.97,1.58-4.97,2.07c-1.99,0.49-4.25,0.74-6.76,0.74
			C179.53,410.64,175.19,409.27,172.09,406.53z"/>
		<path d="M206.48,409.31c-0.41-0.43-0.62-1.09-0.62-1.98v-20.84h-6.62c-0.98,0-1.65-0.21-2-0.62c-0.35-0.41-0.53-1.08-0.53-2v-2.58
			c0-0.92,0.18-1.59,0.53-2c0.35-0.41,1.02-0.62,2-0.62h24.29c0.98,0,1.65,0.21,2,0.62c0.35,0.41,0.53,1.08,0.53,2v2.58
			c0,0.92-0.18,1.59-0.53,2c-0.35,0.41-1.02,0.62-2,0.62h-6.62v20.84c0,0.89-0.21,1.55-0.62,1.98s-1.14,0.64-2.19,0.64h-5.47
			C207.61,409.95,206.89,409.74,206.48,409.31z"/>
		<path d="M228.67,406.39c-2.82-2.84-4.23-6.86-4.23-12.07s1.41-9.24,4.23-12.08c2.82-2.84,6.96-4.25,12.42-4.25
			s9.6,1.42,12.42,4.25s4.23,6.86,4.23,12.08s-1.41,9.24-4.23,12.07c-2.82,2.84-6.96,4.26-12.42,4.26S231.5,409.22,228.67,406.39z
			 M245.42,400.78c0.89-1.43,1.33-3.58,1.33-6.46c0-2.91-0.45-5.08-1.33-6.49c-0.89-1.41-2.33-2.12-4.32-2.12
			c-1.99,0-3.43,0.71-4.32,2.12c-0.89,1.41-1.33,3.57-1.33,6.49c0,2.88,0.45,5.04,1.33,6.46c0.89,1.43,2.33,2.14,4.32,2.14
			C243.09,402.91,244.53,402.2,245.42,400.78z"/>
		<path d="M260.67,409.31c-0.41-0.43-0.62-1.09-0.62-1.98v-26.04c0-0.89,0.21-1.55,0.62-1.98s1.13-0.64,2.14-0.64h10.99
			c4.6,0,7.95,0.91,10.05,2.74c2.1,1.83,3.15,4.58,3.15,8.26c0,2.21-0.38,4.07-1.13,5.59c-0.75,1.52-1.91,2.71-3.47,3.57l4.28,9.15
			c0.12,0.25,0.18,0.52,0.18,0.83c0,0.34-0.12,0.61-0.34,0.83c-0.23,0.21-0.53,0.32-0.9,0.32h-7.77c-0.49,0-0.88-0.07-1.17-0.21
			c-0.29-0.14-0.5-0.38-0.62-0.71l-3.4-8.56h-1.56v6.85c0,0.89-0.21,1.55-0.62,1.98s-1.14,0.64-2.19,0.64h-5.47
			C261.79,409.95,261.08,409.74,260.67,409.31z M272.83,392.79c0.98,0,1.75-0.26,2.32-0.78c0.57-0.52,0.85-1.3,0.85-2.35
			c0-1.07-0.28-1.87-0.85-2.39c-0.57-0.52-1.34-0.78-2.32-0.78h-3.13v6.3H272.83z"/>
		<path d="M289.92,409.31c-0.41-0.43-0.62-1.09-0.62-1.98v-26.04c0-0.89,0.21-1.55,0.62-1.98s1.13-0.64,2.14-0.64h5.47
			c1.04,0,1.77,0.21,2.18,0.62c0.41,0.41,0.62,1.08,0.62,2v26.04c0,0.89-0.21,1.55-0.62,1.98c-0.41,0.43-1.14,0.64-2.18,0.64h-5.47
			C291.05,409.95,290.34,409.74,289.92,409.31z"/>
		<path d="M306.87,406.39c-2.82-2.84-4.23-6.86-4.23-12.07s1.41-9.24,4.23-12.08c2.82-2.84,6.96-4.25,12.42-4.25
			c5.46,0,9.6,1.42,12.42,4.25c2.82,2.84,4.23,6.86,4.23,12.08s-1.41,9.24-4.23,12.07c-2.82,2.84-6.96,4.26-12.42,4.26
			C313.83,410.64,309.69,409.22,306.87,406.39z M323.62,400.78c0.89-1.43,1.33-3.58,1.33-6.46c0-2.91-0.45-5.08-1.33-6.49
			c-0.89-1.41-2.33-2.12-4.32-2.12c-1.99,0-3.44,0.71-4.32,2.12c-0.89,1.41-1.33,3.57-1.33,6.49c0,2.88,0.44,5.04,1.33,6.46
			c0.89,1.43,2.33,2.14,4.32,2.14C321.29,402.91,322.73,402.2,323.62,400.78z"/>
		<path d="M116.07,461.73c-3.1-2.74-4.65-6.82-4.65-12.21c0-5.43,1.5-9.51,4.49-12.24c2.99-2.73,7.26-4.09,12.81-4.09
			c2.51,0,4.75,0.25,6.72,0.74c1.96,0.49,3.6,1.18,4.92,2.07c0.37,0.28,0.55,0.58,0.55,0.92c0,0.28-0.14,0.66-0.41,1.15l-2.3,3.96
			c-0.25,0.43-0.54,0.64-0.87,0.64c-0.21,0-0.57-0.12-1.06-0.37c-0.86-0.43-1.76-0.77-2.69-1.01c-0.94-0.25-2.03-0.37-3.29-0.37
			c-2.55,0-4.49,0.74-5.84,2.21c-1.35,1.47-2.02,3.6-2.02,6.39c0,2.76,0.74,4.88,2.21,6.37c1.47,1.49,3.48,2.23,6.03,2.23
			c2.21,0,4.23-0.46,6.07-1.38c0.49-0.25,0.84-0.37,1.06-0.37c0.34,0,0.63,0.21,0.87,0.64l2.3,3.96c0.28,0.49,0.41,0.87,0.41,1.15
			c0,0.34-0.18,0.64-0.55,0.92c-1.32,0.89-2.97,1.58-4.97,2.07c-1.99,0.49-4.25,0.74-6.76,0.74
			C123.5,465.84,119.16,464.47,116.07,461.73z"/>
		<path d="M144.29,464.51c-0.41-0.43-0.62-1.09-0.62-1.98v-26.04c0-0.89,0.21-1.55,0.62-1.98s1.13-0.64,2.14-0.64h5.47
			c1.04,0,1.77,0.21,2.19,0.62s0.62,1.08,0.62,2v20.84h10.72c0.98,0,1.65,0.21,2,0.62c0.35,0.41,0.53,1.08,0.53,2v2.58
			c0,0.92-0.18,1.59-0.53,2c-0.35,0.41-1.02,0.62-2,0.62h-19C145.41,465.15,144.7,464.94,144.29,464.51z"/>
		<path d="M170.19,464.51c-0.41-0.43-0.62-1.09-0.62-1.98v-26.04c0-0.89,0.21-1.55,0.62-1.98s1.13-0.64,2.14-0.64h5.47
			c1.04,0,1.77,0.21,2.18,0.62c0.41,0.41,0.62,1.08,0.62,2v26.04c0,0.89-0.21,1.55-0.62,1.98c-0.41,0.43-1.14,0.64-2.18,0.64h-5.47
			C171.31,465.15,170.6,464.94,170.19,464.51z M170.62,430.01c0-0.25,0.04-0.51,0.14-0.78l1.93-5.34c0.25-0.71,0.54-1.18,0.87-1.43
			c0.34-0.24,0.97-0.37,1.89-0.37h6.58c0.64,0,1.15,0.11,1.52,0.34c0.37,0.23,0.55,0.56,0.55,0.99c0,0.37-0.12,0.75-0.37,1.15
			l-2.94,4.97c-0.43,0.74-0.84,1.21-1.24,1.43c-0.4,0.21-1.12,0.32-2.16,0.32h-4.92C171.24,431.3,170.62,430.87,170.62,430.01z"/>
		<path d="M184.67,464.51c-0.41-0.43-0.62-1.09-0.62-1.98v-26.08c0-0.89,0.21-1.54,0.62-1.96s1.14-0.62,2.18-0.62h4.37
			c0.64,0,1.14,0.08,1.49,0.25c0.35,0.17,0.7,0.5,1.04,0.99l8.33,12.37v-10.99c0-0.89,0.21-1.55,0.62-1.98s1.13-0.64,2.14-0.64h5.47
			c1.04,0,1.77,0.21,2.18,0.62s0.62,1.08,0.62,2v26.08c0,0.89-0.21,1.54-0.62,1.96s-1.14,0.62-2.18,0.62h-4.37
			c-0.64,0-1.14-0.08-1.49-0.25c-0.35-0.17-0.7-0.5-1.04-0.99l-8.33-12.37v11.04c0,0.89-0.21,1.54-0.62,1.96s-1.14,0.62-2.18,0.62
			h-5.47C185.8,465.15,185.09,464.94,184.67,464.51z"/>
		<path d="M216.97,464.51c-0.41-0.43-0.62-1.09-0.62-1.98v-26.04c0-0.89,0.21-1.55,0.62-1.98s1.13-0.64,2.14-0.64h5.47
			c1.04,0,1.77,0.21,2.18,0.62c0.41,0.41,0.62,1.08,0.62,2v26.04c0,0.89-0.21,1.55-0.62,1.98c-0.41,0.43-1.14,0.64-2.18,0.64h-5.47
			C218.09,465.15,217.38,464.94,216.97,464.51z"/>
		<path d="M234.33,461.73c-3.1-2.74-4.65-6.82-4.65-12.21c0-5.43,1.5-9.51,4.48-12.24c2.99-2.73,7.26-4.09,12.81-4.09
			c2.51,0,4.75,0.25,6.72,0.74c1.96,0.49,3.6,1.18,4.92,2.07c0.37,0.28,0.55,0.58,0.55,0.92c0,0.28-0.14,0.66-0.41,1.15l-2.3,3.96
			c-0.25,0.43-0.54,0.64-0.87,0.64c-0.21,0-0.57-0.12-1.06-0.37c-0.86-0.43-1.76-0.77-2.69-1.01c-0.94-0.25-2.03-0.37-3.29-0.37
			c-2.54,0-4.49,0.74-5.84,2.21c-1.35,1.47-2.02,3.6-2.02,6.39c0,2.76,0.74,4.88,2.21,6.37s3.48,2.23,6.03,2.23
			c2.21,0,4.23-0.46,6.07-1.38c0.49-0.25,0.84-0.37,1.06-0.37c0.34,0,0.63,0.21,0.88,0.64l2.3,3.96c0.28,0.49,0.41,0.87,0.41,1.15
			c0,0.34-0.18,0.64-0.55,0.92c-1.32,0.89-2.98,1.58-4.97,2.07c-1.99,0.49-4.25,0.74-6.76,0.74
			C241.77,465.84,237.43,464.47,234.33,461.73z"/>
		<path d="M263.17,461.59c-2.82-2.84-4.23-6.86-4.23-12.07s1.41-9.24,4.23-12.08c2.82-2.84,6.96-4.25,12.42-4.25
			s9.6,1.42,12.42,4.25c2.82,2.84,4.23,6.86,4.23,12.08s-1.41,9.24-4.23,12.07c-2.82,2.84-6.96,4.26-12.42,4.26
			S266,464.42,263.17,461.59z M279.92,455.98c0.89-1.43,1.33-3.58,1.33-6.46c0-2.91-0.45-5.08-1.33-6.49
			c-0.89-1.41-2.33-2.12-4.32-2.12c-1.99,0-3.43,0.71-4.32,2.12c-0.89,1.41-1.33,3.57-1.33,6.49c0,2.88,0.45,5.04,1.33,6.46
			c0.89,1.43,2.33,2.14,4.32,2.14C277.59,458.11,279.03,457.4,279.92,455.98z"/>
	</g>
	<polygon class="st1" points="200.76,96.93 214.23,124.22 244.34,128.59 222.55,149.83 227.7,179.83 200.76,165.67 173.83,179.83 
		178.97,149.83 157.18,128.59 187.29,124.22 	"/>
	<polygon class="st1" points="138.58,180.15 147.32,197.86 166.86,200.7 152.72,214.48 156.06,233.94 138.58,224.75 121.11,233.94 
		124.45,214.48 110.31,200.7 129.85,197.86 	"/>
	<polygon class="st1" points="268.68,180.15 277.42,197.86 296.95,200.7 282.82,214.48 286.15,233.94 268.68,224.75 251.2,233.94 
		254.54,214.48 240.4,200.7 259.94,197.86 	"/>
	<circle class="st2" cx="201.77" cy="213.97" r="121.96"/>
	<circle class="st3" cx="200.82" cy="200.58" r="121.96"/>
	<g>
		<path class="st3" d="M183.41,643.85c-3.55-0.92-6.5-2.21-8.83-3.87c-0.58-0.44-0.88-0.92-0.88-1.46c0-0.44,0.22-1.05,0.66-1.83
			l3.65-6.28c0.44-0.73,0.9-1.1,1.39-1.1c0.24,0,0.8,0.22,1.68,0.66c3.55,2,7.69,2.99,12.41,2.99c2.38,0,4.26-0.51,5.62-1.53
			c1.36-1.02,2.04-2.53,2.04-4.53c0-3.89-2.09-5.84-6.28-5.84c-1.31,0-2.67,0.11-4.05,0.33c-1.39,0.22-2.54,0.5-3.47,0.84
			c-1.41,0.49-2.92,0.73-4.53,0.73c-2.24,0-4.05-0.54-5.44-1.61c-1.39-1.07-2.01-2.68-1.86-4.82l1.17-18.4
			c0.1-1.26,0.44-2.19,1.02-2.77s1.63-0.88,3.14-0.88h31.17c1.56,0,2.62,0.33,3.18,0.99c0.56,0.66,0.84,1.71,0.84,3.18v4.16
			c0,1.46-0.28,2.52-0.84,3.18c-0.56,0.66-1.62,0.99-3.18,0.99h-21.32l-0.22,3.5c0.78-0.19,1.93-0.35,3.47-0.47
			c1.53-0.12,2.76-0.18,3.69-0.18c6.67,0,11.83,1.3,15.48,3.91s5.48,7,5.48,13.18c0,3.8-1.04,7.08-3.1,9.85s-4.92,4.88-8.54,6.31
			c-3.63,1.43-7.73,2.15-12.3,2.15C190.71,645.24,186.96,644.77,183.41,643.85z"/>
	</g>
	<g>
		<rect x="146.9" y="125.6" class="st176" width="114.1" height="144.38"/>
		<rect x="142.73" y="125.6" class="st3" width="114.1" height="144.38"/>
		<g>
			<g>
				<rect x="149.9" y="164.66" class="st22" width="76.73" height="15.18"/>
				<rect x="149.9" y="189.89" class="st22" width="76.73" height="15.18"/>
				<rect x="149.9" y="215.12" class="st22" width="76.73" height="15.18"/>
				<rect x="149.9" y="240.35" class="st22" width="76.73" height="15.18"/>
			</g>
			<g>
				<rect x="234.38" y="164.66" class="st22" width="15.27" height="15.18"/>
				<rect x="234.38" y="189.89" class="st22" width="15.27" height="15.18"/>
				<rect x="234.38" y="215.12" class="st22" width="15.27" height="15.18"/>
				<rect x="234.38" y="240.35" class="st118" width="15.27" height="15.18"/>
			</g>
		</g>
		<g>
			<g>
				<path class="st18" d="M155.38,150.16c-0.14-0.15-0.22-0.38-0.22-0.69v-9.03c0-0.31,0.07-0.54,0.22-0.69
					c0.14-0.15,0.39-0.22,0.74-0.22h3.67c3.76,0,5.63,1.81,5.63,5.43c0,1.79-0.48,3.14-1.44,4.05c-0.96,0.92-2.36,1.37-4.19,1.37
					h-3.67C155.77,150.38,155.53,150.31,155.38,150.16z M159.94,147.67c0.6,0,1.02-0.2,1.28-0.59s0.39-1.1,0.39-2.12
					s-0.13-1.73-0.39-2.12c-0.26-0.39-0.69-0.59-1.28-0.59H159v5.43H159.94z"/>
				<path class="st18" d="M166.44,150.16c-0.14-0.15-0.22-0.38-0.22-0.69v-9.03c0-0.31,0.07-0.54,0.22-0.69
					c0.14-0.15,0.39-0.22,0.74-0.22h1.9c0.36,0,0.61,0.07,0.76,0.22s0.22,0.38,0.22,0.69v9.03c0,0.31-0.07,0.54-0.22,0.69
					c-0.14,0.15-0.4,0.22-0.76,0.22h-1.9C166.83,150.38,166.59,150.31,166.44,150.16z"/>
				<path class="st18" d="M171.39,150.16c-0.14-0.15-0.22-0.38-0.22-0.69v-9.03c0-0.31,0.07-0.54,0.22-0.69
					c0.14-0.15,0.39-0.22,0.74-0.22h3.81c1.6,0,2.76,0.32,3.49,0.95c0.73,0.63,1.09,1.59,1.09,2.86c0,0.77-0.13,1.41-0.39,1.94
					c-0.26,0.53-0.66,0.94-1.21,1.24l1.48,3.18c0.04,0.09,0.06,0.18,0.06,0.29c0,0.12-0.04,0.21-0.12,0.29
					c-0.08,0.07-0.18,0.11-0.31,0.11h-2.7c-0.17,0-0.31-0.02-0.41-0.07c-0.1-0.05-0.17-0.13-0.21-0.25l-1.18-2.97h-0.54v2.38
					c0,0.31-0.07,0.54-0.22,0.69c-0.14,0.15-0.4,0.22-0.76,0.22h-1.9C171.78,150.38,171.54,150.31,171.39,150.16z M175.61,144.43
					c0.34,0,0.61-0.09,0.81-0.27c0.2-0.18,0.29-0.45,0.29-0.81c0-0.37-0.1-0.65-0.29-0.83c-0.2-0.18-0.47-0.27-0.81-0.27h-1.09v2.19
					H175.61z"/>
				<path class="st18" d="M181.54,150.16c-0.14-0.15-0.22-0.38-0.22-0.69v-9.03c0-0.31,0.07-0.54,0.22-0.69
					c0.14-0.15,0.39-0.22,0.74-0.22h6.61c0.34,0,0.57,0.07,0.69,0.22s0.18,0.38,0.18,0.69v0.89c0,0.32-0.06,0.55-0.18,0.69
					s-0.35,0.22-0.69,0.22h-3.73v1.37h2.3c0.34,0,0.57,0.07,0.69,0.22s0.18,0.38,0.18,0.69v0.86c0,0.32-0.06,0.55-0.18,0.69
					s-0.35,0.22-0.69,0.22h-2.3v1.37h3.72c0.34,0,0.57,0.07,0.69,0.21c0.12,0.14,0.18,0.38,0.18,0.69v0.89
					c0,0.32-0.06,0.55-0.18,0.69c-0.12,0.14-0.35,0.22-0.69,0.22h-6.59C181.93,150.38,181.69,150.31,181.54,150.16z"/>
				<path class="st18" d="M191.06,149.19c-1.08-0.95-1.61-2.36-1.61-4.24c0-1.88,0.52-3.3,1.56-4.25c1.04-0.95,2.52-1.42,4.44-1.42
					c0.87,0,1.65,0.08,2.33,0.26c0.68,0.17,1.25,0.41,1.71,0.72c0.13,0.1,0.19,0.2,0.19,0.32c0,0.1-0.05,0.23-0.14,0.4l-0.8,1.37
					c-0.08,0.15-0.19,0.22-0.3,0.22c-0.08,0-0.2-0.04-0.37-0.13c-0.3-0.15-0.61-0.27-0.93-0.35c-0.33-0.08-0.71-0.13-1.14-0.13
					c-0.88,0-1.56,0.25-2.03,0.77c-0.47,0.51-0.7,1.25-0.7,2.22c0,0.96,0.26,1.69,0.77,2.21c0.51,0.52,1.21,0.77,2.09,0.77
					c0.77,0,1.47-0.16,2.11-0.48c0.17-0.08,0.29-0.13,0.37-0.13c0.12,0,0.22,0.08,0.3,0.22l0.8,1.37c0.1,0.17,0.14,0.3,0.14,0.4
					c0,0.12-0.06,0.22-0.19,0.32c-0.46,0.31-1.03,0.55-1.72,0.72c-0.69,0.17-1.47,0.25-2.35,0.25
					C193.64,150.62,192.14,150.14,191.06,149.19z"/>
				<path class="st18" d="M202.99,150.16c-0.14-0.15-0.21-0.38-0.21-0.69v-7.23h-2.3c-0.34,0-0.57-0.07-0.69-0.22
					s-0.18-0.38-0.18-0.69v-0.89c0-0.32,0.06-0.55,0.18-0.69s0.35-0.22,0.69-0.22h8.43c0.34,0,0.57,0.07,0.69,0.22
					c0.12,0.14,0.18,0.38,0.18,0.69v0.89c0,0.32-0.06,0.55-0.18,0.69c-0.12,0.14-0.35,0.22-0.69,0.22h-2.3v7.23
					c0,0.31-0.07,0.54-0.21,0.69c-0.14,0.15-0.4,0.22-0.76,0.22h-1.9C203.38,150.38,203.14,150.31,202.99,150.16z"/>
				<path class="st18" d="M210.7,149.14c-0.98-0.98-1.47-2.38-1.47-4.19c0-1.81,0.49-3.21,1.47-4.19c0.98-0.98,2.42-1.48,4.31-1.48
					c1.89,0,3.33,0.49,4.31,1.48c0.98,0.98,1.47,2.38,1.47,4.19c0,1.81-0.49,3.21-1.47,4.19c-0.98,0.98-2.42,1.48-4.31,1.48
					C213.11,150.62,211.67,150.13,210.7,149.14z M216.5,147.2c0.31-0.49,0.46-1.24,0.46-2.24c0-1.01-0.15-1.76-0.46-2.25
					s-0.81-0.73-1.5-0.73c-0.69,0-1.19,0.25-1.5,0.73s-0.46,1.24-0.46,2.25c0,1,0.15,1.75,0.46,2.24c0.31,0.5,0.81,0.74,1.5,0.74
					C215.7,147.94,216.2,147.69,216.5,147.2z"/>
				<path class="st18" d="M221.8,150.16c-0.14-0.15-0.22-0.38-0.22-0.69v-9.03c0-0.31,0.07-0.54,0.22-0.69
					c0.14-0.15,0.39-0.22,0.74-0.22h3.81c1.6,0,2.76,0.32,3.49,0.95c0.73,0.63,1.09,1.59,1.09,2.86c0,0.77-0.13,1.41-0.39,1.94
					c-0.26,0.53-0.66,0.94-1.21,1.24l1.48,3.18c0.04,0.09,0.06,0.18,0.06,0.29c0,0.12-0.04,0.21-0.12,0.29
					c-0.08,0.07-0.18,0.11-0.31,0.11h-2.7c-0.17,0-0.31-0.02-0.41-0.07c-0.1-0.05-0.17-0.13-0.21-0.25l-1.18-2.97h-0.54v2.38
					c0,0.31-0.07,0.54-0.22,0.69c-0.14,0.15-0.4,0.22-0.76,0.22h-1.9C222.19,150.38,221.94,150.31,221.8,150.16z M226.02,144.43
					c0.34,0,0.61-0.09,0.81-0.27c0.2-0.18,0.29-0.45,0.29-0.81c0-0.37-0.1-0.65-0.29-0.83c-0.2-0.18-0.47-0.27-0.81-0.27h-1.09v2.19
					H226.02z"/>
				<path class="st18" d="M231.95,150.16c-0.14-0.15-0.22-0.38-0.22-0.69v-9.03c0-0.31,0.07-0.54,0.22-0.69
					c0.14-0.15,0.39-0.22,0.74-0.22h1.9c0.36,0,0.61,0.07,0.76,0.22s0.22,0.38,0.22,0.69v9.03c0,0.31-0.07,0.54-0.22,0.69
					c-0.14,0.15-0.4,0.22-0.76,0.22h-1.9C232.34,150.38,232.09,150.31,231.95,150.16z"/>
				<path class="st18" d="M237.83,149.14c-0.98-0.98-1.47-2.38-1.47-4.19c0-1.81,0.49-3.21,1.47-4.19c0.98-0.98,2.42-1.48,4.31-1.48
					c1.89,0,3.33,0.49,4.31,1.48c0.98,0.98,1.47,2.38,1.47,4.19c0,1.81-0.49,3.21-1.47,4.19c-0.98,0.98-2.42,1.48-4.31,1.48
					C240.24,150.62,238.81,150.13,237.83,149.14z M243.64,147.2c0.31-0.49,0.46-1.24,0.46-2.24c0-1.01-0.15-1.76-0.46-2.25
					s-0.81-0.73-1.5-0.73c-0.69,0-1.19,0.25-1.5,0.73s-0.46,1.24-0.46,2.25c0,1,0.15,1.75,0.46,2.24c0.31,0.5,0.81,0.74,1.5,0.74
					C242.83,147.94,243.33,147.69,243.64,147.2z"/>
			</g>
		</g>
	</g>
</g>
</svg>
