<?xml version="1.0" encoding="utf-8"?>
<!-- Generator: Adobe Illustrator 23.0.0, SVG Export Plug-In . SVG Version: 6.00 Build 0)  -->
<svg version="1.1" id="Capa_1" xmlns="http://www.w3.org/2000/svg" xmlns:xlink="http://www.w3.org/1999/xlink" x="0px" y="0px"
	 viewBox="0 0 400 702" style="enable-background:new 0 0 400 702;" xml:space="preserve">
<style type="text/css">
	.st0{fill:#0085B0;}
	.st1{fill:#E0EF18;}
	.st2{fill:#CECECE;}
	.st3{fill:#FFFFFF;}
	.st4{fill:#F2F2F2;}
	.st5{fill:#EACCB0;}
	.st6{fill:#9B9B9B;}
	.st7{fill:#939393;}
	.st8{fill:#EFEFEF;}
	.st9{fill:#828282;}
	.st10{fill:#2C2A2D;}
	.st11{fill:#202021;}
	.st12{fill:#F2D4B6;}
	.st13{fill:#534D46;}
	.st14{fill:#E8D313;}
	.st15{fill:#2ACCFF;}
	.st16{fill:#4E4F4F;}
	.st17{fill:#003A94;}
	.st18{fill:#00D13C;}
	.st19{fill:#15682A;}
	.st20{fill:#D40000;}
	.st21{fill:#505050;}
	.st22{fill:#DFDFDF;}
	.st23{fill:none;}
	.st24{fill:#636363;}
	.st25{fill:#6C92D5;}
	.st26{fill:#22272F;}
	.st27{fill:#1B2538;}
	.st28{fill:#253452;}
	.st29{fill:#F9F9F9;}
	.st30{fill:#2D3543;}
	.st31{fill:#2A3D60;}
	.st32{fill:#587955;}
	.st33{fill:#CD7054;}
	.st34{fill:#F1CC4B;}
	.st35{fill:#ACACAC;}
	.st36{fill:#AAE528;}
	.st37{fill:#28CEBA;}
	.st38{fill:#DB143F;}
	.st39{fill:#53C2C9;}
	.st40{fill:#FFB412;}
	.st41{fill:#866A5E;}
	.st42{fill:#F7DDCB;}
	.st43{fill:#FFE6D4;}
	.st44{fill:#F5F5F5;}
	.st45{fill:#1A2830;}
	.st46{fill:#24353F;}
	.st47{fill:#132026;}
	.st48{fill:#F9FF03;}
	.st49{fill:#272728;}
	.st50{fill:#1E1D1E;}
	.st51{fill:#160423;}
	.st52{fill-rule:evenodd;clip-rule:evenodd;fill:#FFFFFF;}
	.st53{fill-rule:evenodd;clip-rule:evenodd;fill:#1996B8;}
	.st54{fill:#0C387D;}
	.st55{fill:#C69A81;}
	.st56{fill:#D1A385;}
	.st57{fill:#EAEAEA;}
	.st58{fill:#093E8C;}
	.st59{fill:#0B2A62;}
	.st60{fill:#D32A3B;}
	.st61{fill:#827C7D;}
	.st62{opacity:0.7;fill:#7F7F7F;}
	.st63{fill:#FDFDFD;}
	.st64{fill:#DAA449;}
	.st65{fill:#DD9225;}
	.st66{opacity:0.3;}
	.st67{fill:#425793;}
	.st68{opacity:0.8;}
	.st69{filter:url(#Adobe_OpacityMaskFilter);}
	.st70{opacity:0.15;mask:url(#SVGID_1_);}
	.st71{fill:#090B00;}
	.st72{opacity:0.1;}
	.st73{fill:#211915;}
	.st74{filter:url(#Adobe_OpacityMaskFilter_1_);}
	.st75{opacity:0.15;mask:url(#SVGID_2_);}
	.st76{fill:#AF3623;}
	.st77{filter:url(#Adobe_OpacityMaskFilter_2_);}
	.st78{opacity:0.15;mask:url(#SVGID_3_);}
	.st79{filter:url(#Adobe_OpacityMaskFilter_3_);}
	.st80{opacity:0.15;mask:url(#SVGID_4_);}
	.st81{fill:#456495;}
	.st82{filter:url(#Adobe_OpacityMaskFilter_4_);}
	.st83{opacity:0.15;mask:url(#SVGID_5_);}
	.st84{filter:url(#Adobe_OpacityMaskFilter_5_);}
	.st85{opacity:0.15;mask:url(#SVGID_6_);}
	.st86{fill:#76A9DA;}
	.st87{filter:url(#Adobe_OpacityMaskFilter_6_);}
	.st88{opacity:0.15;mask:url(#SVGID_7_);}
	.st89{filter:url(#Adobe_OpacityMaskFilter_7_);}
	.st90{opacity:0.15;mask:url(#SVGID_8_);}
	.st91{fill:#1F3642;}
	.st92{fill:#A9BDDA;}
	.st93{opacity:0.46;fill:#A6B4BC;}
	.st94{fill:#74C475;}
	.st95{fill:#221F21;}
	.st96{fill:#2D2D2D;}
	.st97{fill:#1C1B1A;}
	.st98{fill:#77181C;}
	.st99{fill:#262525;}
	.st100{fill:#11100F;}
	.st101{opacity:0.18;}
	.st102{opacity:0.38;}
	.st103{fill:#0A5B1F;}
	.st104{opacity:0.27;}
	.st105{opacity:0.48;}
	.st106{fill:#0A4654;}
	.st107{fill:#C2C6C6;}
	.st108{fill:#E5E5E5;stroke:#FFFFFF;stroke-miterlimit:10;}
	.st109{fill:#ACB4B5;}
	.st110{fill:#7F8384;}
	.st111{fill:#15772F;}
	.st112{fill:#F4F4F4;}
	.st113{fill:#53B8DB;}
	.st114{fill:#06EF42;}
	.st115{fill:#E7ED07;}
	.st116{fill:#CCCCCA;}
	.st117{fill:#EADF13;}
	.st118{fill:#C2C2C2;}
	.st119{fill:#85B681;}
	.st120{fill:#A1DC9B;}
	.st121{fill:#90C58B;}
	.st122{fill:#22241F;}
	.st123{opacity:0.5;}
	.st124{fill:#A2CADE;}
	.st125{fill:#E9E9E9;}
	.st126{fill:#D9D9D9;}
	.st127{fill:#CDCDCD;}
	.st128{opacity:0.34;fill:#F0F0F0;}
	.st129{fill:#5A5B5A;}
	.st130{fill:#FFE600;}
	.st131{fill:#DB1F59;}
	.st132{fill:#727272;}
	.st133{fill:#207235;}
	.st134{fill:#A3A3A3;}
	.st135{fill:#BCBCBC;}
	.st136{fill:#0A511C;}
	.st137{fill:#F9FF00;}
	.st138{fill:#D59F6D;}
	.st139{fill:#C0804A;}
	.st140{fill:#E6BA8A;}
	.st141{fill:#BE3ACC;}
	.st142{fill:#FFFFFF;stroke:#443F0C;stroke-width:9;stroke-miterlimit:10;}
	.st143{fill:none;stroke:#443F0C;stroke-width:9;stroke-miterlimit:10;}
	.st144{fill:#170623;}
	.st145{fill:#158231;}
	.st146{fill:#C89D76;}
	.st147{opacity:0.4;}
	.st148{fill:#ADADAD;}
	.st149{fill:#EDC3A6;}
	.st150{opacity:0.69;}
	.st151{fill:#E5D3D6;}
	.st152{opacity:0.44;}
	.st153{fill:#A5A5A5;}
	.st154{fill:#DDE5E4;}
	.st155{fill:#5C9169;}
	.st156{fill:#934215;}
	.st157{fill:#47413B;}
	.st158{fill:#601A1F;}
	.st159{fill:#044554;}
	.st160{opacity:0.7;}
	.st161{fill:#7F7F7F;}
	.st162{fill:#6B8A69;}
	.st163{opacity:0.24;fill:#848D90;}
	.st164{opacity:0.4;fill:#848D90;}
	.st165{fill:#F2D5D5;}
	.st166{fill:#485CC1;}
	.st167{fill:#C6CBE0;}
	.st168{fill:#8B909E;}
	.st169{fill:#53BC1B;}
	.st170{fill:#11565B;}
	.st171{fill:#67A06D;}
	.st172{fill:#FFEC00;}
	.st173{fill:#77A007;}
	.st174{fill:#E50731;}
	.st175{fill:#266472;}
	.st176{fill:#D4D4D4;}
	.st177{fill:#0E9932;}
	.st178{fill:#87DD24;}
	.st179{fill:#76A172;}
	.st180{fill:#62835F;}
	.st181{fill:#96D090;}
	.st182{fill:#D6D6D6;}
	.st183{fill:#606060;}
	.st184{fill:#494949;}
	.st185{fill:#29E55A;}
	.st186{fill:#2C703D;}
	.st187{fill:#DD0744;}
	.st188{fill:#EDEDED;}
	.st189{fill:#2A5936;}
	.st190{fill:#B9BBC1;}
	.st191{fill:#FFD79E;}
	.st192{fill:#FFE6C2;}
	.st193{fill:#2CBB55;}
	.st194{fill:#5C412D;}
	.st195{fill:#EC0000;}
	.st196{fill:#DD2626;}
	.st197{fill:#EA9334;}
	.st198{fill:#FCC232;}
	.st199{fill:#F9B234;}
	.st200{fill:#F7A037;}
	.st201{fill:#E0E0E0;}
</style>
<g>
	<path class="st0" d="M9.5,209.36c0,22,13.29,27.86,29.54,13.03c0,0,156.99-143.3,353.09,26.97V55c0-22-18-40-40-40H49.5
		c-22,0-40,18-40,40V209.36z"/>
</g>
<g>
	<path class="st0" d="M391.66,647c0,22-18,40-40,40H49.98c-22,0-40-18-40-40v-46.27c0-22,18-40,40-40h301.68c22,0,40,18,40,40V647z"
		/>
</g>
<g>
	<path d="M104.74,444.11c-0.54-0.56-0.81-1.42-0.81-2.58v-33.96c0-1.16,0.27-2.02,0.81-2.58c0.54-0.56,1.47-0.84,2.79-0.84h14.34
		c6,0,10.37,1.19,13.11,3.57c2.74,2.38,4.11,5.97,4.11,10.77s-1.37,8.38-4.11,10.74c-2.74,2.36-7.09,3.54-13.05,3.54h-3.6v8.76
		c0,1.16-0.27,2.02-0.81,2.58c-0.54,0.56-1.49,0.84-2.85,0.84h-7.14C106.21,444.95,105.28,444.67,104.74,444.11z M120.61,422.57
		c1.28,0,2.29-0.34,3.03-1.02c0.74-0.68,1.11-1.7,1.11-3.06c0-1.4-0.37-2.44-1.11-3.12c-0.74-0.68-1.75-1.02-3.03-1.02h-4.08v8.22
		H120.61z"/>
	<path d="M133.69,443.69c0-0.36,0.1-0.8,0.3-1.32l14.94-35.94c0.36-0.84,0.77-1.43,1.23-1.77c0.46-0.34,1.11-0.51,1.95-0.51h6.54
		c0.84,0,1.49,0.17,1.95,0.51s0.87,0.93,1.23,1.77l14.88,35.94c0.2,0.52,0.3,0.96,0.3,1.32c0,0.84-0.44,1.26-1.32,1.26h-11.28
		c-1.24,0-2.02-0.54-2.34-1.62l-1.44-4.44h-10.62l-1.38,4.44c-0.32,1.08-1.1,1.62-2.34,1.62h-11.28
		C134.13,444.95,133.69,444.53,133.69,443.69z M157.69,429.41l-2.34-7.44l-2.34,7.44H157.69z"/>
	<path d="M184.87,440.48c-4.04-3.58-6.06-8.89-6.06-15.93c0-7,2.02-12.3,6.06-15.9s9.68-5.4,16.92-5.4c3.28,0,6.22,0.32,8.82,0.96
		c2.6,0.64,4.76,1.54,6.48,2.7c0.48,0.36,0.72,0.76,0.72,1.2c0,0.36-0.18,0.86-0.54,1.5l-3,5.16c-0.32,0.56-0.7,0.84-1.14,0.84
		c-0.28,0-0.74-0.16-1.38-0.48c-2.4-1.2-5.04-1.8-7.92-1.8c-3.32,0-5.93,0.95-7.83,2.85c-1.9,1.9-2.85,4.69-2.85,8.37
		c0,3.8,0.8,6.61,2.4,8.43c1.6,1.82,3.98,2.73,7.14,2.73c0.56,0,1.19-0.05,1.89-0.15c0.7-0.1,1.27-0.21,1.71-0.33v-5.46h-3.84
		c-1.28,0-2.15-0.25-2.61-0.75c-0.46-0.5-0.69-1.35-0.69-2.55v-3.3c0-1.2,0.23-2.05,0.69-2.55c0.46-0.5,1.33-0.75,2.61-0.75h12.9
		c1.56,0,2.64,0.35,3.24,1.05c0.6,0.7,0.9,1.81,0.9,3.33v14.04c0,0.88-0.11,1.55-0.33,2.01c-0.22,0.46-0.65,0.93-1.29,1.41
		c-3.84,2.76-9.18,4.14-16.02,4.14C194.57,445.85,188.91,444.06,184.87,440.48z"/>
	<path d="M226.81,440.3c-3.68-3.7-5.52-8.95-5.52-15.75c0-6.8,1.84-12.05,5.52-15.75c3.68-3.7,9.08-5.55,16.2-5.55
		c7.12,0,12.52,1.85,16.2,5.55c3.68,3.7,5.52,8.95,5.52,15.75c0,6.8-1.84,12.05-5.52,15.75c-3.68,3.7-9.08,5.55-16.2,5.55
		C235.89,445.85,230.49,444,226.81,440.3z M248.65,432.98c1.16-1.86,1.74-4.67,1.74-8.43c0-3.8-0.58-6.62-1.74-8.46
		c-1.16-1.84-3.04-2.76-5.64-2.76c-2.6,0-4.48,0.92-5.64,2.76c-1.16,1.84-1.74,4.66-1.74,8.46c0,3.76,0.58,6.57,1.74,8.43
		c1.16,1.86,3.04,2.79,5.64,2.79C245.61,435.77,247.49,434.84,248.65,432.98z"/>
	<path d="M272.65,444.71c-3.12-0.76-5.64-1.82-7.56-3.18c-0.8-0.56-1.2-1.1-1.2-1.62c0-0.36,0.14-0.74,0.42-1.14l3.48-5.46
		c0.36-0.52,0.72-0.78,1.08-0.78c0.32,0,0.7,0.14,1.14,0.42c1.44,0.88,3.09,1.57,4.95,2.07c1.86,0.5,3.67,0.75,5.43,0.75
		c1.48,0,2.55-0.2,3.21-0.6c0.66-0.4,0.99-1.02,0.99-1.86c0-0.92-0.44-1.66-1.32-2.22c-0.88-0.56-2.4-1.26-4.56-2.1
		c-4.04-1.56-7.22-3.33-9.54-5.31c-2.32-1.98-3.48-4.61-3.48-7.89c0-4.16,1.45-7.29,4.35-9.39s6.81-3.15,11.73-3.15
		c3.44,0,6.37,0.3,8.79,0.9c2.42,0.6,4.53,1.54,6.33,2.82c0.8,0.56,1.2,1.1,1.2,1.62c0,0.36-0.14,0.74-0.42,1.14l-3.48,5.46
		c-0.36,0.56-0.72,0.84-1.08,0.84c-0.24,0-0.62-0.16-1.14-0.48c-0.96-0.64-2.1-1.17-3.42-1.59c-1.32-0.42-2.74-0.63-4.26-0.63
		c-1.4,0-2.46,0.2-3.18,0.6c-0.72,0.4-1.08,1.04-1.08,1.92c0,0.72,0.25,1.32,0.75,1.8s1.13,0.89,1.89,1.23
		c0.76,0.34,2.08,0.89,3.96,1.65c3,1.2,5.36,2.35,7.08,3.45c1.72,1.1,3.02,2.42,3.9,3.96s1.32,3.49,1.32,5.85
		c0,3.6-1.35,6.51-4.05,8.73c-2.7,2.22-6.73,3.33-12.09,3.33C279.15,445.85,275.77,445.47,272.65,444.71z"/>
</g>
<polygon class="st1" points="200.76,96.93 214.23,124.22 244.34,128.59 222.55,149.83 227.7,179.83 200.76,165.67 173.83,179.83 
	178.97,149.83 157.18,128.59 187.29,124.22 "/>
<polygon class="st1" points="138.58,180.15 147.32,197.86 166.86,200.7 152.72,214.48 156.06,233.94 138.58,224.75 121.11,233.94 
	124.45,214.48 110.31,200.7 129.85,197.86 "/>
<polygon class="st1" points="268.68,180.15 277.42,197.86 296.95,200.7 282.82,214.48 286.15,233.94 268.68,224.75 251.2,233.94 
	254.54,214.48 240.4,200.7 259.94,197.86 "/>
<circle class="st2" cx="201.77" cy="213.97" r="121.96"/>
<circle class="st3" cx="200.82" cy="200.58" r="121.96"/>
<g>
	<path class="st3" d="M176.43,640.35v-4.31c0-2.87,0.97-5.57,2.92-8.1c1.95-2.53,5.35-5.5,10.22-8.91c1.7-1.17,2.75-1.87,3.14-2.12
		c1.75-1.17,2.97-2.04,3.65-2.63c0.68-0.58,1.19-1.22,1.53-1.9c0.34-0.68,0.51-1.56,0.51-2.63c0-1.22-0.45-2.2-1.35-2.96
		c-0.9-0.75-2.28-1.13-4.13-1.13c-3.12,0-6.28,0.8-9.49,2.41c-0.78,0.39-1.34,0.58-1.68,0.58c-0.54,0-1-0.34-1.39-1.02l-3.65-6.28
		c-0.44-0.78-0.66-1.39-0.66-1.82c0-0.54,0.29-1.02,0.88-1.46c2.09-1.41,4.79-2.54,8.1-3.39c3.31-0.85,6.93-1.28,10.88-1.28
		c6.13,0,10.99,1.28,14.56,3.83c3.58,2.55,5.37,6.17,5.37,10.84c0,3.6-1,6.66-2.99,9.16c-2,2.51-5.26,5.22-9.78,8.14
		c-4.82,3.12-7.71,5.21-8.69,6.28h17.81c1.56,0,2.62,0.33,3.18,0.99c0.56,0.66,0.84,1.71,0.84,3.17v4.16c0,1.46-0.28,2.52-0.84,3.18
		c-0.56,0.66-1.62,0.99-3.18,0.99h-32.12C177.65,644.14,176.43,642.88,176.43,640.35z"/>
</g>
<g>
	<g>
		<circle class="st170" cx="197.5" cy="202.5" r="85.5"/>
	</g>
	<path class="st0" d="M246.1,201.25h-75.61c-6.6,0-12-5.4-12-12v-19.58c0-6.6,5.4-12,12-12h75.61c6.6,0,12,5.4,12,12v19.58
		C258.1,195.85,252.7,201.25,246.1,201.25z"/>
	<g>
		<path class="st3" d="M173.31,192.79c-0.37-0.39-0.56-0.98-0.56-1.79v-23.49c0-0.8,0.19-1.4,0.56-1.79
			c0.37-0.39,1.02-0.58,1.93-0.58h9.92c4.15,0,7.17,0.82,9.07,2.47c1.89,1.65,2.84,4.13,2.84,7.45s-0.95,5.8-2.84,7.43
			c-1.9,1.63-4.91,2.45-9.03,2.45h-2.49V191c0,0.8-0.19,1.4-0.56,1.79c-0.37,0.39-1.03,0.58-1.97,0.58h-4.94
			C174.32,193.37,173.68,193.18,173.31,192.79z M184.28,177.89c0.88,0,1.58-0.23,2.1-0.71c0.51-0.47,0.77-1.18,0.77-2.12
			c0-0.97-0.26-1.69-0.77-2.16c-0.51-0.47-1.21-0.71-2.1-0.71h-2.82v5.69H184.28z"/>
		<path class="st3" d="M193.33,192.5c0-0.25,0.07-0.55,0.21-0.91l10.33-24.86c0.25-0.58,0.53-0.99,0.85-1.22
			c0.32-0.24,0.77-0.35,1.35-0.35h4.52c0.58,0,1.03,0.12,1.35,0.35s0.6,0.64,0.85,1.22l10.29,24.86c0.14,0.36,0.21,0.66,0.21,0.91
			c0,0.58-0.3,0.87-0.91,0.87h-7.8c-0.86,0-1.4-0.37-1.62-1.12l-1-3.07h-7.35l-0.96,3.07c-0.22,0.75-0.76,1.12-1.62,1.12h-7.8
			C193.64,193.37,193.33,193.08,193.33,192.5z M209.93,182.62l-1.62-5.15l-1.62,5.15H209.93z"/>
		<path class="st3" d="M228.63,192.79c-0.37-0.39-0.56-0.98-0.56-1.79v-7.51l-9.67-16.56c-0.17-0.3-0.25-0.59-0.25-0.87
			c0-0.61,0.32-0.91,0.96-0.91h7.8c0.42,0,0.73,0.09,0.95,0.27s0.44,0.46,0.66,0.85l4.52,8.13l4.52-8.13
			c0.22-0.39,0.44-0.67,0.66-0.85s0.54-0.27,0.96-0.27h7.8c0.64,0,0.96,0.3,0.96,0.91c0,0.28-0.08,0.57-0.25,0.87l-9.67,16.56V191
			c0,0.8-0.19,1.4-0.56,1.79c-0.37,0.39-1.03,0.58-1.97,0.58h-4.94C229.65,193.37,229.01,193.18,228.63,192.79z"/>
	</g>
	<g>
		<polygon class="st3" points="180.18,206.46 202.64,198.35 198.44,221.86 194.23,245.36 175.98,229.97 157.72,214.58 		"/>
		
			<rect x="155" y="229.56" transform="matrix(0.6511 -0.759 0.759 0.6511 -121.6468 210.8538)" class="st3" width="27.02" height="16.36"/>
	</g>
</g>
</svg>
