<?xml version="1.0" encoding="utf-8"?>
<!-- Generator: Adobe Illustrator 23.0.0, SVG Export Plug-In . SVG Version: 6.00 Build 0)  -->
<svg version="1.1" id="Capa_1" xmlns="http://www.w3.org/2000/svg" xmlns:xlink="http://www.w3.org/1999/xlink" x="0px" y="0px"
	 viewBox="0 0 400 702" style="enable-background:new 0 0 400 702;" xml:space="preserve">
<style type="text/css">
	.st0{fill:#0085B0;}
	.st1{fill:#E0EF18;}
	.st2{fill:#CECECE;}
	.st3{fill:#FFFFFF;}
	.st4{fill:#F2F2F2;}
	.st5{fill:#EACCB0;}
	.st6{fill:#9B9B9B;}
	.st7{fill:#939393;}
	.st8{fill:#EFEFEF;}
	.st9{fill:#828282;}
	.st10{fill:#2C2A2D;}
	.st11{fill:#202021;}
	.st12{fill:#F2D4B6;}
	.st13{fill:#534D46;}
	.st14{fill:#E8D313;}
	.st15{fill:#2ACCFF;}
	.st16{fill:#4E4F4F;}
	.st17{fill:#003A94;}
	.st18{fill:#00D13C;}
	.st19{fill:#15682A;}
	.st20{fill:#D40000;}
	.st21{fill:#505050;}
	.st22{fill:#DFDFDF;}
	.st23{fill:none;}
	.st24{fill:#636363;}
	.st25{fill:#6C92D5;}
	.st26{fill:#22272F;}
	.st27{fill:#1B2538;}
	.st28{fill:#253452;}
	.st29{fill:#F9F9F9;}
	.st30{fill:#2D3543;}
	.st31{fill:#2A3D60;}
	.st32{fill:#587955;}
	.st33{fill:#CD7054;}
	.st34{fill:#F1CC4B;}
	.st35{fill:#ACACAC;}
	.st36{fill:#AAE528;}
	.st37{fill:#28CEBA;}
	.st38{fill:#DB143F;}
	.st39{fill:#53C2C9;}
	.st40{fill:#FFB412;}
	.st41{fill:#866A5E;}
	.st42{fill:#F7DDCB;}
	.st43{fill:#FFE6D4;}
	.st44{fill:#F5F5F5;}
	.st45{fill:#1A2830;}
	.st46{fill:#24353F;}
	.st47{fill:#132026;}
	.st48{fill:#F9FF03;}
	.st49{fill:#272728;}
	.st50{fill:#1E1D1E;}
	.st51{fill:#160423;}
	.st52{fill-rule:evenodd;clip-rule:evenodd;fill:#FFFFFF;}
	.st53{fill-rule:evenodd;clip-rule:evenodd;fill:#1996B8;}
	.st54{fill:#0C387D;}
	.st55{fill:#C69A81;}
	.st56{fill:#D1A385;}
	.st57{fill:#EAEAEA;}
	.st58{fill:#093E8C;}
	.st59{fill:#0B2A62;}
	.st60{fill:#D32A3B;}
	.st61{fill:#827C7D;}
	.st62{opacity:0.7;fill:#7F7F7F;}
	.st63{fill:#FDFDFD;}
	.st64{fill:#DAA449;}
	.st65{fill:#DD9225;}
	.st66{opacity:0.3;}
	.st67{fill:#425793;}
	.st68{opacity:0.8;}
	.st69{filter:url(#Adobe_OpacityMaskFilter);}
	.st70{opacity:0.15;mask:url(#SVGID_1_);}
	.st71{fill:#090B00;}
	.st72{opacity:0.1;}
	.st73{fill:#211915;}
	.st74{filter:url(#Adobe_OpacityMaskFilter_1_);}
	.st75{opacity:0.15;mask:url(#SVGID_2_);}
	.st76{fill:#AF3623;}
	.st77{filter:url(#Adobe_OpacityMaskFilter_2_);}
	.st78{opacity:0.15;mask:url(#SVGID_3_);}
	.st79{filter:url(#Adobe_OpacityMaskFilter_3_);}
	.st80{opacity:0.15;mask:url(#SVGID_4_);}
	.st81{fill:#456495;}
	.st82{filter:url(#Adobe_OpacityMaskFilter_4_);}
	.st83{opacity:0.15;mask:url(#SVGID_5_);}
	.st84{filter:url(#Adobe_OpacityMaskFilter_5_);}
	.st85{opacity:0.15;mask:url(#SVGID_6_);}
	.st86{fill:#76A9DA;}
	.st87{filter:url(#Adobe_OpacityMaskFilter_6_);}
	.st88{opacity:0.15;mask:url(#SVGID_7_);}
	.st89{filter:url(#Adobe_OpacityMaskFilter_7_);}
	.st90{opacity:0.15;mask:url(#SVGID_8_);}
	.st91{fill:#1F3642;}
	.st92{fill:#A9BDDA;}
	.st93{opacity:0.46;fill:#A6B4BC;}
	.st94{fill:#74C475;}
	.st95{fill:#221F21;}
	.st96{fill:#2D2D2D;}
	.st97{fill:#1C1B1A;}
	.st98{fill:#77181C;}
	.st99{fill:#262525;}
	.st100{fill:#11100F;}
	.st101{opacity:0.18;}
	.st102{opacity:0.38;}
	.st103{fill:#0A5B1F;}
	.st104{opacity:0.27;}
	.st105{opacity:0.48;}
	.st106{fill:#0A4654;}
	.st107{fill:#C2C6C6;}
	.st108{fill:#E5E5E5;stroke:#FFFFFF;stroke-miterlimit:10;}
	.st109{fill:#ACB4B5;}
	.st110{fill:#7F8384;}
	.st111{fill:#15772F;}
	.st112{fill:#F4F4F4;}
	.st113{fill:#53B8DB;}
	.st114{fill:#06EF42;}
	.st115{fill:#E7ED07;}
	.st116{fill:#CCCCCA;}
	.st117{fill:#EADF13;}
	.st118{fill:#C2C2C2;}
	.st119{fill:#85B681;}
	.st120{fill:#A1DC9B;}
	.st121{fill:#90C58B;}
	.st122{fill:#22241F;}
	.st123{opacity:0.5;}
	.st124{fill:#A2CADE;}
	.st125{fill:#E9E9E9;}
	.st126{fill:#D9D9D9;}
	.st127{fill:#CDCDCD;}
	.st128{opacity:0.34;fill:#F0F0F0;}
	.st129{fill:#5A5B5A;}
	.st130{fill:#FFE600;}
	.st131{fill:#DB1F59;}
	.st132{fill:#727272;}
	.st133{fill:#207235;}
	.st134{fill:#A3A3A3;}
	.st135{fill:#BCBCBC;}
	.st136{fill:#0A511C;}
	.st137{fill:#F9FF00;}
	.st138{fill:#D59F6D;}
	.st139{fill:#C0804A;}
	.st140{fill:#E6BA8A;}
	.st141{fill:#BE3ACC;}
	.st142{fill:#FFFFFF;stroke:#443F0C;stroke-width:9;stroke-miterlimit:10;}
	.st143{fill:none;stroke:#443F0C;stroke-width:9;stroke-miterlimit:10;}
	.st144{fill:#170623;}
	.st145{fill:#158231;}
	.st146{fill:#C89D76;}
	.st147{opacity:0.4;}
	.st148{fill:#ADADAD;}
	.st149{fill:#EDC3A6;}
	.st150{opacity:0.69;}
	.st151{fill:#E5D3D6;}
	.st152{opacity:0.44;}
	.st153{fill:#A5A5A5;}
	.st154{fill:#DDE5E4;}
	.st155{fill:#5C9169;}
	.st156{fill:#934215;}
	.st157{fill:#47413B;}
	.st158{fill:#601A1F;}
	.st159{fill:#044554;}
	.st160{opacity:0.7;}
	.st161{fill:#7F7F7F;}
	.st162{fill:#6B8A69;}
	.st163{opacity:0.24;fill:#848D90;}
	.st164{opacity:0.4;fill:#848D90;}
	.st165{fill:#F2D5D5;}
	.st166{fill:#485CC1;}
	.st167{fill:#C6CBE0;}
	.st168{fill:#8B909E;}
	.st169{fill:#53BC1B;}
	.st170{fill:#11565B;}
	.st171{fill:#67A06D;}
	.st172{fill:#FFEC00;}
	.st173{fill:#77A007;}
	.st174{fill:#E50731;}
	.st175{fill:#266472;}
	.st176{fill:#D4D4D4;}
	.st177{fill:#0E9932;}
	.st178{fill:#87DD24;}
	.st179{fill:#76A172;}
	.st180{fill:#62835F;}
	.st181{fill:#96D090;}
	.st182{fill:#D6D6D6;}
	.st183{fill:#606060;}
	.st184{fill:#494949;}
	.st185{fill:#29E55A;}
	.st186{fill:#2C703D;}
	.st187{fill:#DD0744;}
	.st188{fill:#EDEDED;}
	.st189{fill:#2A5936;}
	.st190{fill:#B9BBC1;}
	.st191{fill:#FFD79E;}
	.st192{fill:#FFE6C2;}
	.st193{fill:#2CBB55;}
	.st194{fill:#5C412D;}
	.st195{fill:#EC0000;}
	.st196{fill:#DD2626;}
	.st197{fill:#EA9334;}
	.st198{fill:#FCC232;}
	.st199{fill:#F9B234;}
	.st200{fill:#F7A037;}
	.st201{fill:#E0E0E0;}
</style>
<g>
	<g>
		<path class="st0" d="M9.5,209.36c0,22,13.29,27.86,29.54,13.03c0,0,156.99-143.3,353.09,26.97V55c0-22-18-40-40-40H49.5
			c-22,0-40,18-40,40V209.36z"/>
	</g>
	<g>
		<path class="st0" d="M391.66,647c0,22-18,40-40,40H49.98c-22,0-40-18-40-40v-46.27c0-22,18-40,40-40h301.68c22,0,40,18,40,40V647z
			"/>
	</g>
	<g>
		<path d="M112.35,393.36c-0.38-0.39-0.57-0.99-0.57-1.81v-23.77c0-0.81,0.19-1.41,0.57-1.81c0.38-0.39,1.03-0.59,1.95-0.59h10.04
			c4.2,0,7.26,0.83,9.18,2.5c1.92,1.67,2.88,4.18,2.88,7.54c0,2.02-0.34,3.72-1.03,5.1c-0.69,1.39-1.74,2.47-3.17,3.25l3.91,8.36
			c0.11,0.22,0.17,0.48,0.17,0.76c0,0.31-0.1,0.56-0.31,0.76c-0.21,0.2-0.48,0.29-0.82,0.29h-7.1c-0.45,0-0.81-0.06-1.07-0.19
			s-0.46-0.34-0.57-0.65l-3.11-7.81h-1.43v6.26c0,0.81-0.19,1.41-0.57,1.81c-0.38,0.39-1.04,0.59-2,0.59h-5
			C113.38,393.95,112.73,393.76,112.35,393.36z M123.46,378.29c0.9,0,1.6-0.24,2.12-0.71c0.52-0.48,0.78-1.19,0.78-2.14
			c0-0.98-0.26-1.71-0.78-2.18c-0.52-0.48-1.23-0.71-2.12-0.71h-2.86v5.75H123.46z"/>
		<path d="M139.06,393.36c-0.38-0.39-0.57-0.99-0.57-1.81v-23.77c0-0.81,0.19-1.41,0.57-1.81s1.03-0.59,1.95-0.59h17.39
			c0.9,0,1.5,0.19,1.83,0.57c0.32,0.38,0.48,0.99,0.48,1.83v2.35c0,0.84-0.16,1.45-0.48,1.83c-0.32,0.38-0.93,0.57-1.83,0.57h-9.83
			v3.61h6.05c0.9,0,1.5,0.19,1.83,0.57c0.32,0.38,0.48,0.99,0.48,1.83v2.27c0,0.84-0.16,1.45-0.48,1.83
			c-0.32,0.38-0.93,0.57-1.83,0.57h-6.05v3.61h9.79c0.9,0,1.5,0.19,1.83,0.57c0.32,0.38,0.48,0.99,0.48,1.83v2.35
			c0,0.84-0.16,1.45-0.48,1.83c-0.32,0.38-0.93,0.57-1.83,0.57h-17.35C140.09,393.95,139.44,393.76,139.06,393.36z"/>
		<path d="M163.17,393.36c-0.38-0.39-0.57-0.99-0.57-1.81v-23.77c0-0.81,0.19-1.41,0.57-1.81s1.03-0.59,1.95-0.59h10.04
			c4.2,0,7.26,0.83,9.18,2.5c1.92,1.67,2.88,4.18,2.88,7.54c0,3.36-0.96,5.87-2.88,7.52s-4.96,2.48-9.13,2.48h-2.52v6.13
			c0,0.81-0.19,1.41-0.57,1.81c-0.38,0.39-1.04,0.59-1.99,0.59h-5C164.2,393.95,163.55,393.76,163.17,393.36z M174.28,378.29
			c0.9,0,1.6-0.24,2.12-0.71c0.52-0.48,0.78-1.19,0.78-2.14c0-0.98-0.26-1.71-0.78-2.18c-0.52-0.48-1.23-0.71-2.12-0.71h-2.86v5.75
			H174.28z"/>
		<path d="M190.45,390.7c-2.58-2.59-3.86-6.26-3.86-11.03c0-4.76,1.29-8.43,3.86-11.03c2.58-2.59,6.36-3.88,11.34-3.88
			c4.98,0,8.76,1.3,11.34,3.88c2.58,2.59,3.86,6.27,3.86,11.03c0,4.76-1.29,8.44-3.86,11.03s-6.36,3.88-11.34,3.88
			C196.81,394.58,193.03,393.29,190.45,390.7z M205.74,385.57c0.81-1.3,1.22-3.27,1.22-5.9c0-2.66-0.41-4.63-1.22-5.92
			c-0.81-1.29-2.13-1.93-3.95-1.93s-3.14,0.64-3.95,1.93c-0.81,1.29-1.22,3.26-1.22,5.92c0,2.63,0.41,4.6,1.22,5.9
			c0.81,1.3,2.13,1.95,3.95,1.95S204.93,386.88,205.74,385.57z"/>
		<path d="M219.66,393.36c-0.38-0.39-0.57-0.99-0.57-1.81v-23.77c0-0.81,0.19-1.41,0.57-1.81s1.03-0.59,1.95-0.59h10.04
			c4.2,0,7.26,0.83,9.18,2.5c1.92,1.67,2.88,4.18,2.88,7.54c0,2.02-0.34,3.72-1.03,5.1s-1.74,2.47-3.17,3.25l3.91,8.36
			c0.11,0.22,0.17,0.48,0.17,0.76c0,0.31-0.1,0.56-0.32,0.76c-0.21,0.2-0.48,0.29-0.82,0.29h-7.1c-0.45,0-0.81-0.06-1.07-0.19
			c-0.27-0.13-0.46-0.34-0.57-0.65l-3.11-7.81h-1.43v6.26c0,0.81-0.19,1.41-0.57,1.81c-0.38,0.39-1.04,0.59-1.99,0.59h-5
			C220.69,393.95,220.04,393.76,219.66,393.36z M230.77,378.29c0.9,0,1.6-0.24,2.12-0.71c0.52-0.48,0.78-1.19,0.78-2.14
			c0-0.98-0.26-1.71-0.78-2.18c-0.52-0.48-1.23-0.71-2.12-0.71h-2.86v5.75H230.77z"/>
		<path d="M251.58,393.36c-0.38-0.39-0.57-0.99-0.57-1.81v-19.03h-6.05c-0.9,0-1.51-0.19-1.83-0.57c-0.32-0.38-0.48-0.99-0.48-1.83
			v-2.35c0-0.84,0.16-1.45,0.48-1.83s0.93-0.57,1.83-0.57h22.18c0.9,0,1.5,0.19,1.83,0.57c0.32,0.38,0.48,0.99,0.48,1.83v2.35
			c0,0.84-0.16,1.45-0.48,1.83c-0.32,0.38-0.93,0.57-1.83,0.57h-6.05v19.03c0,0.81-0.19,1.41-0.57,1.81
			c-0.38,0.39-1.04,0.59-1.99,0.59h-5C252.61,393.95,251.96,393.76,251.58,393.36z"/>
		<path d="M271.28,393.36c-0.38-0.39-0.57-0.99-0.57-1.81v-23.77c0-0.81,0.19-1.41,0.57-1.81c0.38-0.39,1.03-0.59,1.95-0.59h17.39
			c0.9,0,1.5,0.19,1.83,0.57s0.48,0.99,0.48,1.83v2.35c0,0.84-0.16,1.45-0.48,1.83c-0.32,0.38-0.93,0.57-1.83,0.57h-9.83v3.61h6.05
			c0.9,0,1.5,0.19,1.83,0.57c0.32,0.38,0.48,0.99,0.48,1.83v2.27c0,0.84-0.16,1.45-0.48,1.83c-0.32,0.38-0.93,0.57-1.83,0.57h-6.05
			v3.61h9.79c0.9,0,1.51,0.19,1.83,0.57c0.32,0.38,0.48,0.99,0.48,1.83v2.35c0,0.84-0.16,1.45-0.48,1.83
			c-0.32,0.38-0.93,0.57-1.83,0.57h-17.35C272.31,393.95,271.66,393.76,271.28,393.36z"/>
		<path d="M177.26,443.76c-0.38-0.39-0.57-0.99-0.57-1.81v-23.77c0-0.81,0.19-1.41,0.57-1.81s1.03-0.59,1.95-0.59h9.66
			c9.88,0,14.83,4.76,14.83,14.28c0,4.7-1.27,8.26-3.8,10.67c-2.53,2.41-6.21,3.61-11.02,3.61h-9.66
			C178.29,444.35,177.64,444.16,177.26,443.76z M189.25,437.21c1.57,0,2.7-0.52,3.38-1.55c0.69-1.04,1.03-2.9,1.03-5.59
			c0-2.69-0.34-4.55-1.03-5.59c-0.69-1.04-1.81-1.55-3.38-1.55h-2.48v14.28H189.25z"/>
		<path d="M206.37,443.76c-0.38-0.39-0.57-0.99-0.57-1.81v-23.77c0-0.81,0.19-1.41,0.57-1.81s1.03-0.59,1.95-0.59h17.39
			c0.9,0,1.5,0.19,1.83,0.57c0.32,0.38,0.48,0.99,0.48,1.83v2.35c0,0.84-0.16,1.45-0.48,1.83c-0.32,0.38-0.93,0.57-1.83,0.57h-9.83
			v3.61h6.05c0.9,0,1.5,0.19,1.83,0.57c0.32,0.38,0.48,0.99,0.48,1.83v2.27c0,0.84-0.16,1.45-0.48,1.83
			c-0.32,0.38-0.93,0.57-1.83,0.57h-6.05v3.61h9.79c0.9,0,1.5,0.19,1.83,0.57c0.32,0.38,0.48,0.99,0.48,1.83v2.35
			c0,0.84-0.16,1.45-0.48,1.83c-0.32,0.38-0.93,0.57-1.83,0.57h-17.35C207.4,444.35,206.75,444.16,206.37,443.76z"/>
		<path d="M82.3,494.16c-0.38-0.39-0.57-0.99-0.57-1.81v-23.77c0-0.81,0.19-1.41,0.57-1.81c0.38-0.39,1.03-0.59,1.95-0.59h5
			c0.95,0,1.62,0.19,2,0.57s0.57,0.99,0.57,1.83v23.77c0,0.81-0.19,1.41-0.57,1.81c-0.38,0.39-1.04,0.59-2,0.59h-5
			C83.33,494.75,82.68,494.56,82.3,494.16z"/>
		<path d="M95.32,494.16c-0.38-0.39-0.57-0.99-0.57-1.81v-23.81c0-0.81,0.19-1.41,0.57-1.79s1.04-0.57,2-0.57h3.99
			c0.59,0,1.04,0.08,1.37,0.23c0.32,0.15,0.64,0.46,0.95,0.9l7.6,11.3v-10.04c0-0.81,0.19-1.41,0.57-1.81s1.03-0.59,1.95-0.59h5
			c0.95,0,1.62,0.19,2,0.57c0.38,0.38,0.57,0.99,0.57,1.83v23.81c0,0.81-0.19,1.41-0.57,1.78c-0.38,0.38-1.04,0.57-2,0.57h-3.99
			c-0.59,0-1.04-0.08-1.36-0.23c-0.32-0.15-0.64-0.45-0.95-0.9l-7.6-11.3v10.08c0,0.81-0.19,1.41-0.57,1.78
			c-0.38,0.38-1.04,0.57-1.99,0.57h-5C96.35,494.75,95.7,494.56,95.32,494.16z"/>
		<path d="M127.64,491.62c-2.83-2.51-4.24-6.22-4.24-11.15c0-4.96,1.37-8.68,4.1-11.17c2.73-2.49,6.63-3.74,11.7-3.74
			c2.29,0,4.34,0.22,6.13,0.67s3.29,1.08,4.49,1.89c0.34,0.25,0.5,0.53,0.5,0.84c0,0.25-0.13,0.6-0.38,1.05l-2.1,3.61
			c-0.22,0.39-0.49,0.59-0.8,0.59c-0.2,0-0.52-0.11-0.97-0.34c-0.78-0.39-1.6-0.7-2.46-0.92c-0.85-0.22-1.86-0.34-3-0.34
			c-2.32,0-4.1,0.67-5.33,2.02c-1.23,1.34-1.85,3.29-1.85,5.84c0,2.52,0.67,4.46,2.02,5.82c1.34,1.36,3.18,2.04,5.5,2.04
			c2.02,0,3.86-0.42,5.54-1.26c0.45-0.22,0.77-0.34,0.97-0.34c0.31,0,0.57,0.2,0.8,0.59l2.1,3.61c0.25,0.45,0.38,0.8,0.38,1.05
			c0,0.31-0.17,0.59-0.5,0.84c-1.2,0.81-2.71,1.44-4.54,1.89s-3.88,0.67-6.17,0.67C134.43,495.38,130.47,494.13,127.64,491.62z"/>
		<path d="M153.41,494.16c-0.38-0.39-0.57-0.99-0.57-1.81v-23.77c0-0.81,0.19-1.41,0.57-1.81s1.03-0.59,1.95-0.59h5
			c0.95,0,1.62,0.19,1.99,0.57c0.38,0.38,0.57,0.99,0.57,1.83v23.77c0,0.81-0.19,1.41-0.57,1.81c-0.38,0.39-1.04,0.59-1.99,0.59h-5
			C154.44,494.75,153.79,494.56,153.41,494.16z"/>
		<path d="M166.43,494.16c-0.38-0.39-0.57-0.99-0.57-1.81v-23.77c0-0.81,0.19-1.41,0.57-1.81s1.03-0.59,1.95-0.59h9.66
			c9.88,0,14.83,4.76,14.83,14.28c0,4.7-1.27,8.26-3.8,10.67c-2.53,2.41-6.21,3.61-11.02,3.61h-9.66
			C167.46,494.75,166.81,494.56,166.43,494.16z M178.42,487.61c1.57,0,2.7-0.52,3.38-1.55c0.69-1.04,1.03-2.9,1.03-5.59
			c0-2.69-0.34-4.55-1.03-5.59c-0.69-1.04-1.81-1.55-3.38-1.55h-2.48v14.28H178.42z"/>
		<path d="M195.53,494.16c-0.38-0.39-0.57-0.99-0.57-1.81v-23.77c0-0.81,0.19-1.41,0.57-1.81c0.38-0.39,1.03-0.59,1.95-0.59h17.39
			c0.9,0,1.5,0.19,1.83,0.57s0.48,0.99,0.48,1.83v2.35c0,0.84-0.16,1.45-0.48,1.83s-0.93,0.57-1.83,0.57h-9.83v3.61h6.05
			c0.9,0,1.5,0.19,1.83,0.57c0.32,0.38,0.48,0.99,0.48,1.83v2.27c0,0.84-0.16,1.45-0.48,1.83c-0.32,0.38-0.93,0.57-1.83,0.57h-6.05
			v3.61h9.79c0.9,0,1.51,0.19,1.83,0.57c0.32,0.38,0.48,0.99,0.48,1.83v2.35c0,0.84-0.16,1.45-0.48,1.83
			c-0.32,0.38-0.93,0.57-1.83,0.57h-17.35C196.56,494.75,195.91,494.56,195.53,494.16z"/>
		<path d="M219.64,494.16c-0.38-0.39-0.57-0.99-0.57-1.81v-23.81c0-0.81,0.19-1.41,0.57-1.79c0.38-0.38,1.04-0.57,2-0.57h3.99
			c0.59,0,1.04,0.08,1.37,0.23c0.32,0.15,0.64,0.46,0.94,0.9l7.6,11.3v-10.04c0-0.81,0.19-1.41,0.57-1.81
			c0.38-0.39,1.03-0.59,1.95-0.59h5c0.95,0,1.62,0.19,1.99,0.57c0.38,0.38,0.57,0.99,0.57,1.83v23.81c0,0.81-0.19,1.41-0.57,1.78
			c-0.38,0.38-1.04,0.57-1.99,0.57h-3.99c-0.59,0-1.04-0.08-1.37-0.23c-0.32-0.15-0.64-0.45-0.95-0.9l-7.6-11.3v10.08
			c0,0.81-0.19,1.41-0.57,1.78s-1.04,0.57-2,0.57h-5C220.67,494.75,220.02,494.56,219.64,494.16z"/>
		<path d="M255.8,494.16c-0.38-0.39-0.57-0.99-0.57-1.81v-19.03h-6.05c-0.9,0-1.5-0.19-1.83-0.57c-0.32-0.38-0.48-0.99-0.48-1.83
			v-2.35c0-0.84,0.16-1.45,0.48-1.83c0.32-0.38,0.93-0.57,1.83-0.57h22.18c0.9,0,1.51,0.19,1.83,0.57c0.32,0.38,0.48,0.99,0.48,1.83
			v2.35c0,0.84-0.16,1.45-0.48,1.83c-0.32,0.38-0.93,0.57-1.83,0.57h-6.05v19.03c0,0.81-0.19,1.41-0.57,1.81
			c-0.38,0.39-1.04,0.59-2,0.59h-5C256.83,494.75,256.18,494.56,255.8,494.16z"/>
		<path d="M275.5,494.16c-0.38-0.39-0.57-0.99-0.57-1.81v-23.77c0-0.81,0.19-1.41,0.57-1.81c0.38-0.39,1.03-0.59,1.95-0.59h17.39
			c0.9,0,1.5,0.19,1.83,0.57s0.48,0.99,0.48,1.83v2.35c0,0.84-0.16,1.45-0.48,1.83s-0.93,0.57-1.83,0.57h-9.83v3.61h6.05
			c0.9,0,1.5,0.19,1.83,0.57c0.32,0.38,0.48,0.99,0.48,1.83v2.27c0,0.84-0.16,1.45-0.48,1.83c-0.32,0.38-0.93,0.57-1.83,0.57h-6.05
			v3.61h9.79c0.9,0,1.51,0.19,1.83,0.57c0.32,0.38,0.48,0.99,0.48,1.83v2.35c0,0.84-0.16,1.45-0.48,1.83
			c-0.32,0.38-0.93,0.57-1.83,0.57h-17.35C276.53,494.75,275.88,494.56,275.5,494.16z"/>
		<path d="M304.38,494.58c-2.18-0.53-3.95-1.27-5.29-2.23c-0.56-0.39-0.84-0.77-0.84-1.13c0-0.25,0.1-0.52,0.29-0.8l2.44-3.82
			c0.25-0.36,0.5-0.55,0.76-0.55c0.22,0,0.49,0.1,0.8,0.29c1.01,0.62,2.16,1.1,3.46,1.45c1.3,0.35,2.57,0.53,3.8,0.53
			c1.04,0,1.79-0.14,2.25-0.42c0.46-0.28,0.69-0.71,0.69-1.3c0-0.64-0.31-1.16-0.92-1.55c-0.62-0.39-1.68-0.88-3.19-1.47
			c-2.83-1.09-5.05-2.33-6.68-3.72c-1.63-1.39-2.44-3.23-2.44-5.52c0-2.91,1.01-5.1,3.04-6.57c2.03-1.47,4.77-2.21,8.21-2.21
			c2.41,0,4.46,0.21,6.15,0.63c1.69,0.42,3.17,1.08,4.43,1.97c0.56,0.39,0.84,0.77,0.84,1.13c0,0.25-0.1,0.52-0.29,0.8l-2.44,3.82
			c-0.25,0.39-0.5,0.59-0.76,0.59c-0.17,0-0.43-0.11-0.8-0.34c-0.67-0.45-1.47-0.82-2.39-1.11c-0.92-0.29-1.92-0.44-2.98-0.44
			c-0.98,0-1.72,0.14-2.23,0.42c-0.5,0.28-0.76,0.73-0.76,1.34c0,0.5,0.17,0.92,0.53,1.26c0.35,0.34,0.79,0.62,1.32,0.86
			c0.53,0.24,1.46,0.62,2.77,1.16c2.1,0.84,3.75,1.64,4.96,2.42c1.2,0.77,2.11,1.69,2.73,2.77c0.62,1.08,0.92,2.44,0.92,4.1
			c0,2.52-0.95,4.56-2.83,6.11s-4.71,2.33-8.46,2.33C308.93,495.38,306.56,495.12,304.38,494.58z"/>
	</g>
	<polygon class="st1" points="200.76,96.93 214.23,124.22 244.34,128.59 222.55,149.83 227.7,179.83 200.76,165.67 173.83,179.83 
		178.97,149.83 157.18,128.59 187.29,124.22 	"/>
	<polygon class="st1" points="138.58,180.15 147.32,197.86 166.86,200.7 152.72,214.48 156.06,233.94 138.58,224.75 121.11,233.94 
		124.45,214.48 110.31,200.7 129.85,197.86 	"/>
	<polygon class="st1" points="268.68,180.15 277.42,197.86 296.95,200.7 282.82,214.48 286.15,233.94 268.68,224.75 251.2,233.94 
		254.54,214.48 240.4,200.7 259.94,197.86 	"/>
	<circle class="st2" cx="201.77" cy="213.97" r="121.96"/>
	<circle class="st3" cx="200.82" cy="200.58" r="121.96"/>
	<g>
		<path class="st3" d="M179.79,639.51c-4.11-3.82-6.17-9.72-6.17-17.7c0-6.13,1.16-11.34,3.47-15.62c2.31-4.28,5.33-7.48,9.05-9.6
			s7.7-3.18,11.94-3.18c3.55,0,6.65,0.38,9.31,1.13c2.65,0.75,5.05,1.86,7.19,3.32c0.58,0.44,0.88,0.92,0.88,1.46
			c0,0.44-0.22,1.05-0.66,1.83l-3.5,6.06c-0.39,0.68-0.85,1.02-1.39,1.02c-0.34,0-0.9-0.19-1.68-0.58
			c-2.48-1.31-5.26-1.97-8.32-1.97c-2.43,0-4.46,0.54-6.1,1.61c-1.63,1.07-3.05,2.65-4.27,4.75c1.41-0.73,3.14-1.34,5.18-1.83
			c2.04-0.49,3.99-0.73,5.84-0.73c4.04,0,7.41,0.71,10.11,2.12c2.7,1.41,4.71,3.3,6.02,5.66c1.31,2.36,1.97,4.98,1.97,7.85
			c0,6.67-1.98,11.69-5.95,15.07c-3.97,3.38-9.58,5.07-16.83,5.07C189.27,645.24,183.9,643.33,179.79,639.51z M200.01,631.29
			c0.8-1.12,1.21-2.9,1.21-5.33s-0.4-4.21-1.21-5.33c-0.8-1.12-2.15-1.68-4.05-1.68c-1.7,0-2.93,0.56-3.69,1.68
			c-0.75,1.12-1.13,2.9-1.13,5.33s0.38,4.21,1.13,5.33c0.75,1.12,1.98,1.68,3.69,1.68C197.86,632.97,199.21,632.42,200.01,631.29z"
			/>
	</g>
	<g>
		<circle id="XMLID_8233_" class="st4" cx="154.7" cy="206.62" r="44.38"/>
		<circle id="XMLID_8232_" class="st4" cx="253.21" cy="206.62" r="44.38"/>
		<g id="XMLID_7837_">
			<path id="XMLID_7855_" class="st5" d="M146.91,214.49c0,0-0.53,2.63,1.14,4.95c1.45,2.02,3.7,5.71,4.78,7.63l0,0
				c0.05,0.09,0.1,0.18,0.15,0.27c0.02,0.04,0.05,0.08,0.07,0.12c0.03,0.06,0.07,0.12,0.1,0.19c0.13,0.25,0.23,0.44,0.27,0.55
				c0.93,1.96,1.59,4.29,1.85,5.25c0.18-0.71,0.46-1.7,0.88-2.84c0.28-0.79,0.61-1.63,0.98-2.42c0.04-0.11,0.14-0.29,0.27-0.55
				c0.03-0.06,0.07-0.12,0.1-0.19c0.02-0.04,0.05-0.08,0.07-0.12c0.05-0.09,0.1-0.19,0.15-0.27l0,0c1.08-1.93,3.32-5.61,4.78-7.63
				c1.67-2.32,1.14-4.95,1.14-4.95l-0.26-0.87c-0.27-0.84-0.4-1.65-0.47-2.39c-3.02,2.56-4.09,3.43-7.8,3.3
				c-3.6,0.12-4.72-0.69-7.54-3.08c-0.06,0.55-0.16,1.14-0.32,1.75c0.02-0.01,0.04-0.02,0.07-0.02L146.91,214.49z"/>
			<path id="XMLID_7854_" class="st44" d="M143.6,224.84c0.06-2.67,0.44-6.15,0.76-8.03c-0.83,0.51-1.87,1-3.03,1.49c0,0,0,0,0,0
				C141.91,220.04,142.68,222.32,143.6,224.84z"/>
			<path id="XMLID_7853_" class="st44" d="M155.15,233.92L155.15,233.92C155.15,233.93,155.15,233.92,155.15,233.92
				c0.02-0.1,0.05-0.2,0.07-0.31c-0.28-0.53-0.95-1.72-2.23-3.31c-1.33-1.65-2.15-1.85-2.15-1.85s-0.86-0.43,0.15-0.95l0.65-0.32
				c-3.76-2.13-5.45,0.18-6.8,1c2.87,7.45,6.67,15.85,10.09,18.92c0.02,0.02,0.04,0.06,0.06,0.11v-12.57
				C155,234.64,155.05,234.38,155.15,233.92z"/>
			<path id="XMLID_7852_" class="st57" d="M166.89,223.66c0.75-2.1,1.39-3.98,1.88-5.47c-0.97-0.41-1.85-0.83-2.58-1.26
				C166.46,218.56,166.77,221.27,166.89,223.66z"/>
			<path id="XMLID_7851_" class="st57" d="M155.27,233.47c0.15-0.58,0.45-1.65,0.87-2.85c-0.42,1.13-0.7,2.12-0.88,2.84
				C155.26,233.47,155.26,233.47,155.27,233.47z"/>
			<path id="XMLID_7850_" class="st57" d="M158.88,227.18l0.65,0.32c1.01,0.52,0.15,0.95,0.15,0.95s-0.59,0.41-2.15,1.85
				c-1.39,1.28-2.01,2.59-2.25,3.23c0.07,0.25,0.1,0.39,0.1,0.39s-0.05-0.1-0.14-0.29c-0.06,0.17-0.09,0.28-0.09,0.28
				c-0.1,0.45-0.15,0.72-0.15,0.72v12.57c0.01,0.04,0.03,0.1,0.04,0.16c0.04-0.22,0.08-0.35,0.12-0.39
				c3.43-3.09,7.26-11.57,10.14-19.05C164.01,226.98,162.3,225.24,158.88,227.18z"/>
			<path id="XMLID_7849_" class="st57" d="M155.23,233.62C155.23,233.61,155.23,233.61,155.23,233.62c-0.03,0.1-0.05,0.21-0.08,0.3
				C155.16,233.9,155.18,233.8,155.23,233.62z"/>
			<path id="XMLID_7848_" class="st44" d="M126.71,223.57c-0.19,0.01-0.4,0.04-0.61,0.1c-2.15,0.58-3.39,6.22-4.87,12.07
				c3.13,3.59,6.82,6.68,10.94,9.11c0-1.73-0.07-3.32-0.3-4.57C131.14,236.32,126.53,224.96,126.71,223.57z"/>
			<path id="XMLID_7847_" class="st44" d="M184.03,223.66c-0.22-0.06-0.43-0.09-0.63-0.1c-0.05,1.83-4.46,12.74-5.16,16.59
				c-0.21,1.18-0.29,2.65-0.3,4.27c4.09-2.52,7.74-5.68,10.81-9.35C187.41,229.45,186.11,224.22,184.03,223.66z"/>
			<path id="XMLID_7846_" class="st197" d="M183.4,223.57c0-0.14-0.02-0.24-0.07-0.26c-0.74-0.33-14.29-5.97-14.57-5.12
				c0,0,0,0.01,0,0.01c-0.49,1.49-1.12,3.37-1.88,5.47c0.13,2.64,0.04,4.87-0.58,4.78c-0.32-0.05-0.65-0.25-1-0.51
				c-2.88,7.48-6.7,15.96-10.14,19.05c-0.04,0.04-0.09,0.17-0.12,0.39c0.12,0.53,0.21,1.82,0.28,3.61
				c8.29-0.11,16.03-2.49,22.63-6.56c0.01-1.62,0.08-3.09,0.3-4.27C178.94,236.3,183.35,225.4,183.4,223.57z"/>
			<path id="XMLID_7845_" class="st12" d="M155.1,214.54c3.71,0.13,4.78-0.74,7.8-3.3c0.04-0.03,0.07-0.06,0.11-0.09
				c3.26-2.77,1.62-8.54,3.59-8.18c1.94,0.35,4.15-4.91,2.76-6.23c-0.68-0.06-1.23,0.58-1.75,1.45c-0.58,0.98-0.36,2.5-0.94,2.46
				c-0.7-2.39-0.63-4.54-0.5-6.96c-3.23,0.84-7.21,1.51-10.78,1.51c-3.22,0-6.87-0.57-9.98-1.33c0.05,0.55,0.08,1.09,0.11,1.39
				c0.16,1.63-0.86,3.63-1.23,4.01c-0.24,0.25-0.84,1.29-1.19,1.38c-0.29,0.07-0.09-1.63-1.06-3.09c-0.77-1.16-1.12-0.9-1.12-0.9
				c-1.55,1.2,0.71,6.67,2.68,6.31c1.98-0.36,0.34,5.41,3.59,8.18c0.13,0.11,0.24,0.21,0.36,0.31
				C150.38,213.85,151.5,214.66,155.1,214.54z"/>
			<path id="XMLID_7844_" class="st13" d="M166.16,193.7c-0.13,2.41-0.2,4.57,0.5,6.96c0.58,0.04,0.35-1.48,0.94-2.46
				c0.52-0.88,1.08-1.52,1.75-1.45c0.08,0.01,0.17,0.02,0.25,0.05c0.62-1.31,1.02-2.94,1.2-4.65
				C169.66,192.66,168.04,193.21,166.16,193.7z"/>
			<path id="XMLID_7843_" class="st13" d="M142.03,197.56c0.97,1.47,0.77,3.16,1.06,3.09c0.35-0.09,0.95-1.13,1.19-1.38
				c0.37-0.38,1.39-2.39,1.23-4.01c-0.03-0.3-0.06-0.83-0.11-1.39c-2.24-0.54-4.19-1.18-5.5-1.77c0.01,0.11,0.02,0.22,0.03,0.34
				c0.08,0.75,0.53,3.54,0.98,4.21C140.91,196.66,141.26,196.4,142.03,197.56z"/>
			<path id="XMLID_7842_" class="st198" d="M157.61,192.5c2.28-0.16,5.74-0.45,7.6-0.85c3.75-0.8,5.61-1.37,6.53-1.5
				c0.13-0.05,0.2-0.09,0.2-0.09c0-4.51-1.02-12.62-7.77-16.39C163.72,174.43,158.01,184.17,157.61,192.5z"/>
			<path id="XMLID_7841_" class="st198" d="M145.55,191.65c1.86,0.4,5.32,0.69,7.6,0.85c-0.39-8.33-6.11-18.06-6.56-18.82
				c-6.75,3.76-7.77,11.88-7.77,16.39c0,0,0.07,0.03,0.2,0.09C139.94,190.28,141.81,190.85,145.55,191.65z"/>
			<path id="XMLID_7840_" class="st199" d="M145.4,193.88c3.11,0.75,6.76,1.33,9.98,1.33c3.57,0,7.55-0.66,10.78-1.51
				c1.88-0.49,3.5-1.04,4.65-1.55c1.13-0.5,1.8-0.98,1.8-1.32c0-0.59-0.13-0.77-0.87-0.67c-0.92,0.13-2.78,0.7-6.53,1.5
				c-1.86,0.4-5.32,0.69-7.6,0.85c0.39-8.33,6.11-18.06,6.56-18.82c0.02-0.03,0.03-0.05,0.03-0.05c-1.95-1.97-5.78-3.14-9.1-3.11
				c-3.16,0.03-6.74,1.3-8.53,3.11c0,0,0.01,0.02,0.03,0.05c0.45,0.75,6.16,10.49,6.56,18.82c-2.28-0.16-5.74-0.45-7.6-0.85
				c-3.75-0.8-5.61-1.37-6.53-1.5c-0.74-0.1-0.87,0.08-0.87,0.67c0,0.34,0.65,0.8,1.75,1.29
				C141.21,192.7,143.17,193.33,145.4,193.88z"/>
			<path id="XMLID_7839_" class="st200" d="M155.04,247.37c-0.01-0.06-0.03-0.12-0.04-0.16c-0.02-0.05-0.04-0.1-0.06-0.11
				c-3.41-3.07-7.21-11.47-10.09-18.92c-0.21,0.13-0.42,0.23-0.63,0.26c-0.52,0.08-0.67-1.51-0.63-3.6c-0.92-2.53-1.7-4.8-2.26-6.54
				c0,0,0,0,0,0c-0.32-0.82-13.83,4.79-14.56,5.12c-0.04,0.02-0.05,0.07-0.06,0.14c-0.18,1.39,4.44,12.76,5.15,16.71
				c0.23,1.25,0.3,2.83,0.3,4.57c6.61,3.91,14.31,6.16,22.54,6.16c0.21,0,0.41-0.01,0.61-0.02
				C155.25,249.19,155.16,247.9,155.04,247.37z"/>
			<path id="XMLID_7838_" class="st201" d="M143.6,224.84c-0.05,2.09,0.1,3.67,0.63,3.6c0.2-0.03,0.41-0.13,0.63-0.26
				c1.35-0.82,3.04-3.13,6.8-1L151,227.5c-1.01,0.52-0.15,0.95-0.15,0.95s0.83,0.19,2.15,1.85c1.28,1.59,1.95,2.77,2.23,3.31
				c0,0,0,0,0,0.01c-0.05,0.18-0.07,0.29-0.08,0.3c0,0,0,0.01,0,0.01l0,0c0-0.01,0.03-0.11,0.09-0.28c0.09,0.18,0.14,0.29,0.14,0.29
				s-0.04-0.15-0.1-0.39c0.24-0.64,0.86-1.95,2.25-3.23c1.56-1.44,2.15-1.85,2.15-1.85s0.86-0.43-0.15-0.95l-0.65-0.32
				c3.42-1.94,5.13-0.2,6.42,0.75c0.36,0.26,0.68,0.46,1,0.51c0.62,0.09,0.71-2.14,0.58-4.78c-0.12-2.39-0.43-5.11-0.7-6.73
				c-0.07-0.43-0.14-0.79-0.21-1.04c-0.57-2.21-1.67-2.3-2.74-2.71l0.13,0.44l0.26,0.87c0,0,0.53,2.63-1.14,4.95
				c-1.45,2.02-3.7,5.71-4.78,7.63l0,0c-0.05,0.09-0.1,0.18-0.15,0.27c-0.02,0.04-0.05,0.08-0.07,0.12
				c-0.03,0.06-0.07,0.12-0.1,0.19c-0.13,0.25-0.23,0.44-0.27,0.55c-0.37,0.78-0.7,1.63-0.98,2.42c-0.42,1.2-0.72,2.27-0.87,2.85
				c0,0,0-0.01,0-0.01c-0.26-0.97-0.92-3.29-1.85-5.25c-0.04-0.11-0.14-0.29-0.27-0.55c-0.03-0.06-0.07-0.12-0.1-0.19
				c-0.02-0.04-0.05-0.08-0.07-0.12c-0.05-0.09-0.1-0.19-0.15-0.27l0,0c-1.08-1.93-3.32-5.61-4.78-7.63
				c-1.67-2.32-1.14-4.95-1.14-4.95l0.39-1.31c-0.02,0.01-0.04,0.02-0.07,0.02c-1.05,0.39-2.11,0.51-2.67,2.68
				c-0.06,0.23-0.12,0.54-0.19,0.93C144.04,218.69,143.66,222.17,143.6,224.84z"/>
		</g>
		<g id="XMLID_7817_">
			<path id="XMLID_7836_" class="st23" d="M241.06,197.21c0.09,0.05,0.18,0.11,0.27,0.2c0.1,0.1,0.19,0.17,0.26,0.22
				C241.46,197.45,241.3,197.28,241.06,197.21z"/>
			<path id="XMLID_7835_" class="st42" d="M253.44,225.73c4.92-3.77,6.92-6.32,7.83-7.07c-1.07-1.55-1.43-3.24-1.54-4.63
				c-0.92,0.15-1.83,0.28-2.65,0.4c-0.25,0.11-0.5,0.21-0.76,0.3c-0.62,0.2-1.27,0.33-1.92,0.4c-0.81,0.08-1.64,0.06-2.44-0.07
				c-0.66-0.1-1.31-0.28-1.93-0.53c-0.11-0.04-0.22-0.1-0.33-0.15c-0.8-0.12-1.66-0.25-2.53-0.39c-0.11,1.4-0.46,3.11-1.55,4.67
				C246.52,219.4,248.52,221.95,253.44,225.73z"/>
			<path id="XMLID_7834_" class="st44" d="M257.66,231.63c0.19-1.99-3.53-4.31-4.22-5.4c-0.7,1.09-4.41,3.41-4.22,5.4
				c0.21,2.25-6.61-5.7-6.95-9.21c0,0.02-0.01,0.04-0.01,0.06c-0.08,0.45-0.68,1.83,1.81,5.37c2.17,3.07,8.86,15.11,9.4,19.57
				c0.53-4.46,7.19-16.5,9.36-19.57c2.49-3.53,1.89-4.92,1.81-5.37c0-0.02-0.01-0.04-0.01-0.06
				C264.27,225.93,257.45,233.88,257.66,231.63z"/>
			<path id="XMLID_7833_" d="M264.27,202.98c-0.66-0.47-0.63,6.18-3.36,8.81c-0.2,0.19-0.4,0.37-0.6,0.55
				c-0.63,0.56-1.31,1.07-2.04,1.49c-0.39,0.23-0.79,0.42-1.2,0.59c0.83-0.12,1.73-0.25,2.65-0.4c3.82-0.61,7.87-1.43,7.25-2.06
				c-1.1-1.12-0.66-6.12-0.7-10.2C265.81,202.82,265.13,203.55,264.27,202.98z"/>
			<path id="XMLID_7832_" d="M248.03,213.48c-0.74-0.49-1.43-1.07-2.07-1.69c-2.73-2.63-2.7-9.28-3.36-8.81
				c-0.71,0.48-1.3,0.06-1.74-0.71c-0.01,3.98,0.36,8.61-0.7,9.69c-0.61,0.62,3.25,1.41,6.99,2.02c0.87,0.14,1.73,0.27,2.53,0.39
				C249.11,214.12,248.55,213.82,248.03,213.48z"/>
			<path id="XMLID_7831_" class="st43" d="M242.6,202.98c0.66-0.47,0.63,6.18,3.36,8.81c0.64,0.62,1.33,1.19,2.07,1.69
				c0.52,0.35,1.08,0.64,1.65,0.89c0.11,0.05,0.22,0.11,0.33,0.15c0.62,0.24,1.27,0.42,1.93,0.53c0.8,0.13,1.63,0.15,2.44,0.07
				c0.65-0.07,1.3-0.2,1.92-0.4c0.26-0.08,0.51-0.19,0.76-0.3c0.41-0.17,0.82-0.37,1.2-0.59c0.73-0.43,1.41-0.94,2.04-1.49
				c0.2-0.18,0.4-0.36,0.6-0.55c2.73-2.63,2.7-9.28,3.36-8.81c0.86,0.58,1.54-0.15,2-1.22c0.35-0.8,0.57-1.8,0.66-2.57
				c0.16-1.49-0.39-2.25-1.01-2.02c-0.27,0.81-0.67,0.52-0.99,0.72c-0.24,0.15-0.6-0.92-1.16-2.33c-2.91,0.9-6.98,1.7-10.57,1.7
				c-2.95,0-6.33-0.57-9.08-1.29c-0.97,1.17-1.7,1.97-2.04,2.25c-0.16,0.13-0.26-0.26-0.5-0.6c-0.08-0.05-0.16-0.12-0.26-0.22
				c-0.09-0.09-0.18-0.15-0.27-0.2c-0.16-0.05-0.34-0.07-0.57-0.02c-0.39,0.21-0.66,0.91-0.54,2.01c0.1,0.94,0.42,2.23,0.92,3.08
				C241.31,203.03,241.89,203.45,242.6,202.98z"/>
			<path id="XMLID_7830_" d="M263.78,195.57c0.56,1.4,0.92,2.48,1.16,2.33c0.32-0.2,0.72,0.08,0.99-0.72
				c0.14-0.43,0.25-1.18,0.27-2.49C265.56,194.97,264.73,195.27,263.78,195.57z"/>
			<path id="XMLID_7829_" d="M241.06,197.21c0.24,0.08,0.4,0.24,0.53,0.42c0.25,0.34,0.35,0.73,0.5,0.6
				c0.34-0.27,1.07-1.08,2.04-2.25c-1.58-0.41-2.95-0.88-3.91-1.31c-0.03,1.52,0.12,2.55,0.26,2.52c0,0,0.01,0,0.01,0
				C240.72,197.14,240.9,197.15,241.06,197.21z"/>
			<path id="XMLID_7828_" class="st7" d="M279.6,227.76c0.05,0.1,0.1,0.23,0.17,0.41c0.01-0.02,0.02-0.05,0.02-0.05
				C279.73,227.99,279.67,227.86,279.6,227.76z"/>
			<polygon id="XMLID_7827_" class="st7" points="279.58,227.73 279.58,227.73 279.59,227.73 			"/>
			<path id="XMLID_7826_" class="st7" d="M272.93,245.31c0.11-2.49-0.56-17.28,6.49-17.7c-1.34-0.83-10.4-3.93-12.39-4.69
				c0.47,0.43,0.94,0.95,1.3,1.6c1.26,2.25,1.33,3.63,2.22,4.3c0.89,0.66-6.94,1.18-6.94,1.18l4.93,3.72c0,0-5.52,6.32-9.26,9.04
				c-1.16,0.84-4.78,4.06-5.67,5.52c0.19,0.89,0.48,2.08,0.58,2.71c6.72-0.15,13.06-1.78,18.73-4.6
				C272.92,245.94,272.92,245.58,272.93,245.31z"/>
			<path id="XMLID_7825_" class="st57" d="M242.26,222.42c0.35,3.51,7.17,11.46,6.95,9.21c-0.19-1.99,3.53-4.31,4.22-5.4
				c0.7,1.09,4.41,3.41,4.22,5.4c-0.21,2.25,6.61-5.7,6.95-9.21c-0.22-1.19-0.86-1.44-0.86-1.44s0.03-0.01,0.07-0.01
				c-0.52-0.51-1.23-1.25-1.92-2.4c-0.13-0.22-0.32-0.18-0.64,0.09c-0.91,0.75-2.9,3.3-7.83,7.07c-4.92-3.77-6.92-6.32-7.83-7.07
				c-0.32-0.27-0.51-0.31-0.64-0.09c-0.68,1.16-1.39,1.89-1.92,2.4c0.04,0.01,0.07,0.01,0.07,0.01S242.48,221.23,242.26,222.42z"/>
			<path id="XMLID_7824_" class="st6" d="M253.62,248.27c-1.04-0.91-4.87-4.68-6.03-5.52c-3.74-2.72-9.26-9.04-9.26-9.04l4.93-3.72
				c0,0-7.83-0.52-6.94-1.18c0.89-0.66,0.96-2.04,2.22-4.3c0.38-0.69,0.89-1.24,1.39-1.68c-2.33,0.88-12.01,4.19-12.43,4.77
				c7.09,0.37,6.42,15.22,6.53,17.71c0.01,0.32,0.01,0.79,0,1.34c5.81,2.79,12.31,4.35,19.18,4.35c0.33,0,0.66-0.02,0.99-0.02
				C254.09,250.35,253.81,249.16,253.62,248.27L253.62,248.27z"/>
			<path id="XMLID_7823_" class="st9" d="M238.54,224.51c-1.26,2.25-1.33,3.63-2.22,4.3c-0.89,0.66,6.94,1.18,6.94,1.18l-4.93,3.72
				c0,0,5.52,6.32,9.26,9.04c1.16,0.84,4.99,4.61,6.03,5.52l0,0c0.89-1.46,4.51-4.68,5.67-5.52c3.74-2.72,9.26-9.04,9.26-9.04
				l-4.93-3.72c0,0,7.83-0.52,6.94-1.18c-0.89-0.66-0.96-2.04-2.22-4.3c-0.36-0.65-0.83-1.17-1.3-1.6
				c-0.62-0.57-1.24-0.98-1.55-1.25c-0.9-0.76-1.48-0.73-1.66-0.7c-0.04,0.01-0.07,0.01-0.07,0.01s0.63,0.25,0.86,1.44
				c0,0.02,0.01,0.04,0.01,0.06c0.08,0.45,0.68,1.83-1.81,5.37c-2.17,3.07-8.83,15.11-9.36,19.57c-0.53-4.46-7.23-16.5-9.4-19.57
				c-2.49-3.53-1.89-4.92-1.81-5.37c0-0.02,0.01-0.04,0.01-0.06c0.22-1.19,0.86-1.44,0.86-1.44s-0.03-0.01-0.07-0.01
				c-0.18-0.03-0.76-0.06-1.66,0.7c-0.3,0.26-0.87,0.63-1.47,1.17C239.43,223.28,238.92,223.82,238.54,224.51z"/>
			<path id="XMLID_7822_" class="st9" d="M234.03,245.31c-0.11-2.49,0.56-17.34-6.53-17.71c-0.39-0.02-1.65,5.8-2.95,12.89
				c2.87,2.43,6.05,4.51,9.48,6.15C234.04,246.1,234.05,245.63,234.03,245.31z"/>
			<path id="XMLID_7821_" class="st9" d="M279.59,227.73C279.59,227.73,279.58,227.73,279.59,227.73c-0.05-0.09-0.09-0.13-0.12-0.13
				c-0.01,0-0.02,0-0.04,0c-7.05,0.42-6.38,15.22-6.49,17.7c-0.01,0.27-0.01,0.63-0.01,1.07c3.41-1.69,6.57-3.81,9.41-6.29
				c-1.03-5.6-2.02-10.33-2.57-11.92c-0.06-0.18-0.12-0.32-0.17-0.41C279.6,227.75,279.59,227.74,279.59,227.73z"/>
			<path id="XMLID_7820_" class="st198" d="M244.96,194.28c1.56,0.33,4.46,0.58,6.37,0.71c-0.33-6.99-5.12-15.15-5.5-15.78
				c-5.66,3.16-6.52,9.96-6.52,13.75c0,0,0.06,0.03,0.17,0.07C240.26,193.14,241.82,193.62,244.96,194.28z"/>
			<path id="XMLID_7819_" class="st198" d="M255.08,194.99c1.91-0.13,4.81-0.38,6.37-0.71c3.14-0.67,4.7-1.15,5.48-1.25
				c0.11-0.05,0.17-0.07,0.17-0.07c0-3.79-0.86-10.59-6.52-13.75C260.2,179.84,255.41,188.01,255.08,194.99z"/>
			<path id="XMLID_7818_" class="st199" d="M244.13,195.97c2.75,0.72,6.13,1.29,9.08,1.29c3.59,0,7.66-0.8,10.57-1.7
				c0.95-0.29,1.77-0.6,2.42-0.89c0.92-0.42,1.47-0.8,1.47-1.09c0-0.49-0.11-0.65-0.73-0.56c-0.77,0.11-2.33,0.59-5.48,1.25
				c-1.56,0.33-4.46,0.58-6.37,0.71c0.33-6.99,5.12-15.15,5.5-15.78c0.02-0.03,0.03-0.04,0.03-0.04c-1.63-1.65-4.85-2.63-7.64-2.61
				c-2.65,0.02-5.66,1.09-7.16,2.61c0,0,0.01,0.02,0.03,0.04c0.38,0.63,5.17,8.8,5.5,15.78c-1.91-0.13-4.81-0.38-6.37-0.71
				c-3.14-0.67-4.7-1.15-5.48-1.25c-0.62-0.09-0.73,0.07-0.73,0.56c0,0.28,0.55,0.67,1.46,1.08
				C241.18,195.1,242.55,195.56,244.13,195.97z"/>
		</g>
	</g>
</g>
</svg>
