<?xml version="1.0" encoding="utf-8"?>
<!-- Generator: Adobe Illustrator 23.0.0, SVG Export Plug-In . SVG Version: 6.00 Build 0)  -->
<svg version="1.1" id="Capa_1" xmlns="http://www.w3.org/2000/svg" xmlns:xlink="http://www.w3.org/1999/xlink" x="0px" y="0px"
	 viewBox="0 0 400 702" style="enable-background:new 0 0 400 702;" xml:space="preserve">
<style type="text/css">
	.st0{fill:#0085B0;}
	.st1{fill:#E0EF18;}
	.st2{fill:#CECECE;}
	.st3{fill:#FFFFFF;}
	.st4{fill:#F2F2F2;}
	.st5{fill:#EACCB0;}
	.st6{fill:#9B9B9B;}
	.st7{fill:#939393;}
	.st8{fill:#EFEFEF;}
	.st9{fill:#828282;}
	.st10{fill:#2C2A2D;}
	.st11{fill:#202021;}
	.st12{fill:#F2D4B6;}
	.st13{fill:#534D46;}
	.st14{fill:#E8D313;}
	.st15{fill:#2ACCFF;}
	.st16{fill:#4E4F4F;}
	.st17{fill:#003A94;}
	.st18{fill:#00D13C;}
	.st19{fill:#15682A;}
	.st20{fill:#D40000;}
	.st21{fill:#505050;}
	.st22{fill:#DFDFDF;}
	.st23{fill:none;}
	.st24{fill:#636363;}
	.st25{fill:#6C92D5;}
	.st26{fill:#22272F;}
	.st27{fill:#1B2538;}
	.st28{fill:#253452;}
	.st29{fill:#F9F9F9;}
	.st30{fill:#2D3543;}
	.st31{fill:#2A3D60;}
	.st32{fill:#587955;}
	.st33{fill:#CD7054;}
	.st34{fill:#F1CC4B;}
	.st35{fill:#ACACAC;}
	.st36{fill:#AAE528;}
	.st37{fill:#28CEBA;}
	.st38{fill:#DB143F;}
	.st39{fill:#53C2C9;}
	.st40{fill:#FFB412;}
	.st41{fill:#866A5E;}
	.st42{fill:#F7DDCB;}
	.st43{fill:#FFE6D4;}
	.st44{fill:#F5F5F5;}
	.st45{fill:#1A2830;}
	.st46{fill:#24353F;}
	.st47{fill:#132026;}
	.st48{fill:#F9FF03;}
	.st49{fill:#272728;}
	.st50{fill:#1E1D1E;}
	.st51{fill:#160423;}
	.st52{fill-rule:evenodd;clip-rule:evenodd;fill:#FFFFFF;}
	.st53{fill-rule:evenodd;clip-rule:evenodd;fill:#1996B8;}
	.st54{fill:#0C387D;}
	.st55{fill:#C69A81;}
	.st56{fill:#D1A385;}
	.st57{fill:#EAEAEA;}
	.st58{fill:#093E8C;}
	.st59{fill:#0B2A62;}
	.st60{fill:#D32A3B;}
	.st61{fill:#827C7D;}
	.st62{opacity:0.7;fill:#7F7F7F;}
	.st63{fill:#FDFDFD;}
	.st64{fill:#DAA449;}
	.st65{fill:#DD9225;}
	.st66{opacity:0.3;}
	.st67{fill:#425793;}
	.st68{opacity:0.8;}
	.st69{filter:url(#Adobe_OpacityMaskFilter);}
	.st70{opacity:0.15;mask:url(#SVGID_1_);}
	.st71{fill:#090B00;}
	.st72{opacity:0.1;}
	.st73{fill:#211915;}
	.st74{filter:url(#Adobe_OpacityMaskFilter_1_);}
	.st75{opacity:0.15;mask:url(#SVGID_2_);}
	.st76{fill:#AF3623;}
	.st77{filter:url(#Adobe_OpacityMaskFilter_2_);}
	.st78{opacity:0.15;mask:url(#SVGID_3_);}
	.st79{filter:url(#Adobe_OpacityMaskFilter_3_);}
	.st80{opacity:0.15;mask:url(#SVGID_4_);}
	.st81{fill:#456495;}
	.st82{filter:url(#Adobe_OpacityMaskFilter_4_);}
	.st83{opacity:0.15;mask:url(#SVGID_5_);}
	.st84{filter:url(#Adobe_OpacityMaskFilter_5_);}
	.st85{opacity:0.15;mask:url(#SVGID_6_);}
	.st86{fill:#76A9DA;}
	.st87{filter:url(#Adobe_OpacityMaskFilter_6_);}
	.st88{opacity:0.15;mask:url(#SVGID_7_);}
	.st89{filter:url(#Adobe_OpacityMaskFilter_7_);}
	.st90{opacity:0.15;mask:url(#SVGID_8_);}
	.st91{fill:#1F3642;}
	.st92{fill:#A9BDDA;}
	.st93{opacity:0.46;fill:#A6B4BC;}
	.st94{fill:#74C475;}
	.st95{fill:#221F21;}
	.st96{fill:#2D2D2D;}
	.st97{fill:#1C1B1A;}
	.st98{fill:#77181C;}
	.st99{fill:#262525;}
	.st100{fill:#11100F;}
	.st101{opacity:0.18;}
	.st102{opacity:0.38;}
	.st103{fill:#0A5B1F;}
	.st104{opacity:0.27;}
	.st105{opacity:0.48;}
	.st106{fill:#0A4654;}
	.st107{fill:#C2C6C6;}
	.st108{fill:#E5E5E5;stroke:#FFFFFF;stroke-miterlimit:10;}
	.st109{fill:#ACB4B5;}
	.st110{fill:#7F8384;}
	.st111{fill:#15772F;}
	.st112{fill:#F4F4F4;}
	.st113{fill:#53B8DB;}
	.st114{fill:#06EF42;}
	.st115{fill:#E7ED07;}
	.st116{fill:#CCCCCA;}
	.st117{fill:#EADF13;}
	.st118{fill:#C2C2C2;}
	.st119{fill:#85B681;}
	.st120{fill:#A1DC9B;}
	.st121{fill:#90C58B;}
	.st122{fill:#22241F;}
	.st123{opacity:0.5;}
	.st124{fill:#A2CADE;}
	.st125{fill:#E9E9E9;}
	.st126{fill:#D9D9D9;}
	.st127{fill:#CDCDCD;}
	.st128{opacity:0.34;fill:#F0F0F0;}
	.st129{fill:#5A5B5A;}
	.st130{fill:#FFE600;}
	.st131{fill:#DB1F59;}
	.st132{fill:#727272;}
	.st133{fill:#207235;}
	.st134{fill:#A3A3A3;}
	.st135{fill:#BCBCBC;}
	.st136{fill:#0A511C;}
	.st137{fill:#F9FF00;}
	.st138{fill:#D59F6D;}
	.st139{fill:#C0804A;}
	.st140{fill:#E6BA8A;}
	.st141{fill:#BE3ACC;}
	.st142{fill:#FFFFFF;stroke:#443F0C;stroke-width:9;stroke-miterlimit:10;}
	.st143{fill:none;stroke:#443F0C;stroke-width:9;stroke-miterlimit:10;}
	.st144{fill:#170623;}
	.st145{fill:#158231;}
	.st146{fill:#C89D76;}
	.st147{opacity:0.4;}
	.st148{fill:#ADADAD;}
	.st149{fill:#EDC3A6;}
	.st150{opacity:0.69;}
	.st151{fill:#E5D3D6;}
	.st152{opacity:0.44;}
	.st153{fill:#A5A5A5;}
	.st154{fill:#DDE5E4;}
	.st155{fill:#5C9169;}
	.st156{fill:#934215;}
	.st157{fill:#47413B;}
	.st158{fill:#601A1F;}
	.st159{fill:#044554;}
	.st160{opacity:0.7;}
	.st161{fill:#7F7F7F;}
	.st162{fill:#6B8A69;}
	.st163{opacity:0.24;fill:#848D90;}
	.st164{opacity:0.4;fill:#848D90;}
	.st165{fill:#F2D5D5;}
	.st166{fill:#485CC1;}
	.st167{fill:#C6CBE0;}
	.st168{fill:#8B909E;}
	.st169{fill:#53BC1B;}
	.st170{fill:#11565B;}
	.st171{fill:#67A06D;}
	.st172{fill:#FFEC00;}
	.st173{fill:#77A007;}
	.st174{fill:#E50731;}
	.st175{fill:#266472;}
	.st176{fill:#D4D4D4;}
	.st177{fill:#0E9932;}
	.st178{fill:#87DD24;}
	.st179{fill:#76A172;}
	.st180{fill:#62835F;}
	.st181{fill:#96D090;}
	.st182{fill:#D6D6D6;}
	.st183{fill:#606060;}
	.st184{fill:#494949;}
	.st185{fill:#29E55A;}
	.st186{fill:#2C703D;}
	.st187{fill:#DD0744;}
	.st188{fill:#EDEDED;}
	.st189{fill:#2A5936;}
	.st190{fill:#B9BBC1;}
	.st191{fill:#FFD79E;}
	.st192{fill:#FFE6C2;}
	.st193{fill:#2CBB55;}
	.st194{fill:#5C412D;}
	.st195{fill:#EC0000;}
	.st196{fill:#DD2626;}
	.st197{fill:#EA9334;}
	.st198{fill:#FCC232;}
	.st199{fill:#F9B234;}
	.st200{fill:#F7A037;}
	.st201{fill:#E0E0E0;}
</style>
<g>
	<g>
		<path class="st0" d="M9.5,209.36c0,22,13.29,27.86,29.54,13.03c0,0,156.99-143.3,353.09,26.97V55c0-22-18-40-40-40H49.5
			c-22,0-40,18-40,40V209.36z"/>
	</g>
	<g>
		<path class="st0" d="M391.66,647c0,22-18,40-40,40H49.98c-22,0-40-18-40-40v-46.27c0-22,18-40,40-40h301.68c22,0,40,18,40,40V647z
			"/>
	</g>
	<g>
		<path d="M82.46,394.82c-1.66-0.41-3.01-0.97-4.03-1.7c-0.43-0.3-0.64-0.59-0.64-0.86c0-0.19,0.07-0.39,0.22-0.61l1.86-2.91
			c0.19-0.28,0.38-0.42,0.58-0.42c0.17,0,0.37,0.08,0.61,0.22c0.77,0.47,1.65,0.84,2.64,1.1s1.96,0.4,2.9,0.4
			c0.79,0,1.36-0.11,1.71-0.32c0.35-0.21,0.53-0.54,0.53-0.99c0-0.49-0.23-0.88-0.7-1.18c-0.47-0.3-1.28-0.67-2.43-1.12
			c-2.16-0.83-3.85-1.78-5.09-2.83c-1.24-1.06-1.86-2.46-1.86-4.21c0-2.22,0.77-3.89,2.32-5.01c1.55-1.12,3.63-1.68,6.26-1.68
			c1.83,0,3.4,0.16,4.69,0.48c1.29,0.32,2.42,0.82,3.38,1.5c0.43,0.3,0.64,0.59,0.64,0.86c0,0.19-0.08,0.39-0.22,0.61l-1.86,2.91
			c-0.19,0.3-0.38,0.45-0.58,0.45c-0.13,0-0.33-0.08-0.61-0.26c-0.51-0.34-1.12-0.62-1.82-0.85c-0.7-0.22-1.46-0.34-2.27-0.34
			c-0.75,0-1.31,0.11-1.7,0.32c-0.38,0.21-0.58,0.55-0.58,1.02c0,0.38,0.13,0.7,0.4,0.96c0.27,0.26,0.6,0.47,1.01,0.66
			c0.4,0.18,1.11,0.48,2.11,0.88c1.6,0.64,2.86,1.25,3.78,1.84s1.61,1.29,2.08,2.11c0.47,0.82,0.7,1.86,0.7,3.12
			c0,1.92-0.72,3.47-2.16,4.66c-1.44,1.18-3.59,1.78-6.45,1.78C85.92,395.43,84.12,395.23,82.46,394.82z"/>
		<path d="M102.91,394.42c-1.58-0.67-2.81-1.64-3.68-2.91c-0.88-1.27-1.31-2.78-1.31-4.53v-11.97c0-0.62,0.14-1.08,0.43-1.38
			c0.29-0.3,0.78-0.45,1.49-0.45h3.81c0.72,0,1.23,0.14,1.52,0.43s0.43,0.75,0.43,1.39v12.06c0,1,0.25,1.75,0.75,2.24
			c0.5,0.49,1.19,0.74,2.06,0.74s1.56-0.24,2.06-0.74c0.5-0.49,0.75-1.24,0.75-2.24v-12.06c0-0.62,0.14-1.08,0.43-1.38
			s0.78-0.45,1.49-0.45h3.81c0.73,0,1.23,0.14,1.52,0.43c0.29,0.29,0.43,0.75,0.43,1.39v11.97c0,1.75-0.44,3.26-1.31,4.53
			c-0.88,1.27-2.1,2.24-3.68,2.91c-1.58,0.67-3.41,1.01-5.5,1.01C106.32,395.43,104.48,395.1,102.91,394.42z"/>
		<path d="M125.05,394.82c-1.66-0.41-3.01-0.97-4.03-1.7c-0.43-0.3-0.64-0.59-0.64-0.86c0-0.19,0.07-0.39,0.22-0.61l1.86-2.91
			c0.19-0.28,0.38-0.42,0.58-0.42c0.17,0,0.37,0.08,0.61,0.22c0.77,0.47,1.65,0.84,2.64,1.1s1.96,0.4,2.9,0.4
			c0.79,0,1.36-0.11,1.71-0.32s0.53-0.54,0.53-0.99c0-0.49-0.24-0.88-0.7-1.18c-0.47-0.3-1.28-0.67-2.43-1.12
			c-2.15-0.83-3.85-1.78-5.09-2.83c-1.24-1.06-1.86-2.46-1.86-4.21c0-2.22,0.77-3.89,2.32-5.01c1.55-1.12,3.63-1.68,6.26-1.68
			c1.83,0,3.4,0.16,4.69,0.48c1.29,0.32,2.42,0.82,3.38,1.5c0.43,0.3,0.64,0.59,0.64,0.86c0,0.19-0.07,0.39-0.22,0.61l-1.86,2.91
			c-0.19,0.3-0.38,0.45-0.58,0.45c-0.13,0-0.33-0.08-0.61-0.26c-0.51-0.34-1.12-0.62-1.82-0.85c-0.7-0.22-1.46-0.34-2.27-0.34
			c-0.75,0-1.31,0.11-1.7,0.32c-0.38,0.21-0.58,0.55-0.58,1.02c0,0.38,0.13,0.7,0.4,0.96c0.27,0.26,0.6,0.47,1.01,0.66
			c0.41,0.18,1.11,0.48,2.11,0.88c1.6,0.64,2.86,1.25,3.78,1.84c0.92,0.59,1.61,1.29,2.08,2.11c0.47,0.82,0.71,1.86,0.71,3.12
			c0,1.92-0.72,3.47-2.16,4.66c-1.44,1.18-3.59,1.78-6.45,1.78C128.52,395.43,126.71,395.23,125.05,394.82z"/>
		<path d="M142.46,392.57c-2.15-1.91-3.23-4.74-3.23-8.5c0-3.78,1.04-6.61,3.12-8.51s5.05-2.85,8.91-2.85
			c1.75,0,3.31,0.17,4.67,0.51c1.37,0.34,2.51,0.82,3.42,1.44c0.26,0.19,0.38,0.41,0.38,0.64c0,0.19-0.1,0.46-0.29,0.8l-1.6,2.75
			c-0.17,0.3-0.37,0.45-0.61,0.45c-0.15,0-0.4-0.08-0.74-0.26c-0.6-0.3-1.22-0.53-1.87-0.7c-0.65-0.17-1.41-0.26-2.29-0.26
			c-1.77,0-3.13,0.51-4.06,1.54c-0.94,1.02-1.41,2.51-1.41,4.45c0,1.92,0.51,3.4,1.54,4.43c1.02,1.04,2.42,1.55,4.19,1.55
			c1.54,0,2.94-0.32,4.22-0.96c0.34-0.17,0.59-0.26,0.74-0.26c0.23,0,0.44,0.15,0.61,0.45l1.6,2.75c0.19,0.34,0.29,0.61,0.29,0.8
			c0,0.24-0.13,0.45-0.38,0.64c-0.92,0.62-2.07,1.1-3.46,1.44c-1.39,0.34-2.96,0.51-4.7,0.51
			C147.63,395.43,144.61,394.48,142.46,392.57z"/>
		<path d="M162.09,394.5c-0.29-0.3-0.43-0.76-0.43-1.38v-18.11c0-0.62,0.14-1.08,0.43-1.38c0.29-0.3,0.78-0.45,1.49-0.45h7.65
			c3.2,0,5.53,0.63,6.99,1.9c1.46,1.27,2.19,3.18,2.19,5.74c0,1.54-0.26,2.83-0.79,3.89c-0.52,1.06-1.33,1.88-2.42,2.48l2.98,6.37
			c0.08,0.17,0.13,0.36,0.13,0.58c0,0.23-0.08,0.43-0.24,0.58c-0.16,0.15-0.37,0.22-0.63,0.22h-5.41c-0.34,0-0.61-0.05-0.82-0.14
			c-0.2-0.1-0.35-0.26-0.43-0.5l-2.37-5.95h-1.09v4.77c0,0.62-0.14,1.08-0.43,1.38c-0.29,0.3-0.79,0.45-1.52,0.45h-3.81
			C162.87,394.95,162.38,394.8,162.09,394.5z M170.55,383.02c0.68,0,1.22-0.18,1.62-0.54c0.39-0.36,0.59-0.91,0.59-1.63
			c0-0.75-0.2-1.3-0.59-1.66c-0.4-0.36-0.93-0.54-1.62-0.54h-2.18v4.38H170.55z"/>
		<path d="M182.44,394.5c-0.29-0.3-0.43-0.76-0.43-1.38v-18.11c0-0.62,0.14-1.08,0.43-1.38c0.29-0.3,0.78-0.45,1.49-0.45h3.81
			c0.73,0,1.23,0.14,1.52,0.43c0.29,0.29,0.43,0.75,0.43,1.39v18.11c0,0.62-0.14,1.08-0.43,1.38c-0.29,0.3-0.79,0.45-1.52,0.45
			h-3.81C183.22,394.95,182.73,394.8,182.44,394.5z"/>
		<path d="M192.36,394.5c-0.29-0.3-0.43-0.76-0.43-1.38v-18.11c0-0.62,0.14-1.08,0.43-1.38c0.29-0.3,0.78-0.45,1.49-0.45h7.65
			c3.2,0,5.53,0.63,6.99,1.9c1.46,1.27,2.19,3.18,2.19,5.74c0,2.56-0.73,4.47-2.19,5.73c-1.46,1.26-3.78,1.89-6.96,1.89h-1.92v4.67
			c0,0.62-0.14,1.08-0.43,1.38c-0.29,0.3-0.79,0.45-1.52,0.45h-3.81C193.14,394.95,192.65,394.8,192.36,394.5z M200.83,383.02
			c0.68,0,1.22-0.18,1.62-0.54c0.39-0.36,0.59-0.91,0.59-1.63c0-0.75-0.2-1.3-0.59-1.66c-0.4-0.36-0.93-0.54-1.62-0.54h-2.18v4.38
			H200.83z"/>
		<path d="M213.75,392.57c-2.16-1.91-3.23-4.74-3.23-8.5c0-3.78,1.04-6.61,3.12-8.51s5.05-2.85,8.91-2.85
			c1.75,0,3.31,0.17,4.67,0.51c1.37,0.34,2.51,0.82,3.42,1.44c0.26,0.19,0.38,0.41,0.38,0.64c0,0.19-0.1,0.46-0.29,0.8l-1.6,2.75
			c-0.17,0.3-0.37,0.45-0.61,0.45c-0.15,0-0.39-0.08-0.74-0.26c-0.6-0.3-1.22-0.53-1.87-0.7c-0.65-0.17-1.41-0.26-2.29-0.26
			c-1.77,0-3.13,0.51-4.06,1.54c-0.94,1.02-1.41,2.51-1.41,4.45c0,1.92,0.51,3.4,1.54,4.43c1.02,1.04,2.42,1.55,4.19,1.55
			c1.54,0,2.94-0.32,4.22-0.96c0.34-0.17,0.59-0.26,0.74-0.26c0.23,0,0.44,0.15,0.61,0.45l1.6,2.75c0.19,0.34,0.29,0.61,0.29,0.8
			c0,0.24-0.13,0.45-0.38,0.64c-0.92,0.62-2.07,1.1-3.46,1.44c-1.39,0.34-2.96,0.51-4.71,0.51
			C218.93,395.43,215.91,394.48,213.75,392.57z"/>
		<path d="M233.38,394.5c-0.29-0.3-0.43-0.76-0.43-1.38v-18.11c0-0.62,0.14-1.08,0.43-1.38c0.29-0.3,0.78-0.45,1.49-0.45h3.81
			c0.72,0,1.23,0.14,1.52,0.43c0.29,0.29,0.43,0.75,0.43,1.39v18.11c0,0.62-0.14,1.08-0.43,1.38c-0.29,0.3-0.79,0.45-1.52,0.45
			h-3.81C234.17,394.95,233.67,394.8,233.38,394.5z"/>
		<path d="M245.18,392.47c-1.96-1.97-2.94-4.77-2.94-8.4s0.98-6.43,2.94-8.4c1.96-1.97,4.84-2.96,8.64-2.96s6.68,0.99,8.64,2.96
			c1.96,1.97,2.94,4.77,2.94,8.4s-0.98,6.43-2.94,8.4c-1.96,1.97-4.84,2.96-8.64,2.96S247.14,394.45,245.18,392.47z M256.82,388.57
			c0.62-0.99,0.93-2.49,0.93-4.5c0-2.03-0.31-3.53-0.93-4.51c-0.62-0.98-1.62-1.47-3.01-1.47s-2.39,0.49-3.01,1.47
			s-0.93,2.49-0.93,4.51c0,2.01,0.31,3.5,0.93,4.5s1.62,1.49,3.01,1.49S256.21,389.56,256.82,388.57z"/>
		<path d="M267.43,394.5c-0.29-0.3-0.43-0.76-0.43-1.38v-18.14c0-0.62,0.14-1.07,0.43-1.36s0.79-0.43,1.52-0.43h3.04
			c0.45,0,0.79,0.06,1.04,0.18c0.24,0.12,0.48,0.35,0.72,0.69l5.79,8.61v-7.65c0-0.62,0.14-1.08,0.43-1.38
			c0.29-0.3,0.78-0.45,1.49-0.45h3.81c0.72,0,1.23,0.14,1.52,0.43s0.43,0.75,0.43,1.39v18.14c0,0.62-0.14,1.07-0.43,1.36
			s-0.79,0.43-1.52,0.43h-3.04c-0.45,0-0.79-0.06-1.04-0.18c-0.25-0.12-0.49-0.35-0.72-0.69l-5.79-8.61v7.68
			c0,0.62-0.14,1.07-0.43,1.36s-0.79,0.43-1.52,0.43h-3.81C268.22,394.95,267.72,394.8,267.43,394.5z"/>
		<path d="M289.9,394.5c-0.29-0.3-0.43-0.76-0.43-1.38v-18.11c0-0.62,0.14-1.08,0.43-1.38c0.29-0.3,0.78-0.45,1.49-0.45h13.25
			c0.68,0,1.15,0.14,1.39,0.43c0.24,0.29,0.37,0.75,0.37,1.39v1.79c0,0.64-0.12,1.1-0.37,1.39c-0.25,0.29-0.71,0.43-1.39,0.43h-7.49
			v2.75h4.61c0.68,0,1.15,0.14,1.39,0.43s0.37,0.75,0.37,1.39v1.73c0,0.64-0.12,1.1-0.37,1.39s-0.71,0.43-1.39,0.43h-4.61v2.75h7.46
			c0.68,0,1.15,0.14,1.39,0.43c0.25,0.29,0.37,0.75,0.37,1.39v1.79c0,0.64-0.12,1.1-0.37,1.39c-0.25,0.29-0.71,0.43-1.39,0.43
			h-13.22C290.68,394.95,290.18,394.8,289.9,394.5z"/>
		<path d="M311.9,394.82c-1.66-0.41-3.01-0.97-4.03-1.7c-0.43-0.3-0.64-0.59-0.64-0.86c0-0.19,0.07-0.39,0.22-0.61l1.86-2.91
			c0.19-0.28,0.38-0.42,0.58-0.42c0.17,0,0.37,0.08,0.61,0.22c0.77,0.47,1.65,0.84,2.64,1.1s1.96,0.4,2.9,0.4
			c0.79,0,1.36-0.11,1.71-0.32s0.53-0.54,0.53-0.99c0-0.49-0.23-0.88-0.7-1.18c-0.47-0.3-1.28-0.67-2.43-1.12
			c-2.16-0.83-3.85-1.78-5.09-2.83c-1.24-1.06-1.86-2.46-1.86-4.21c0-2.22,0.77-3.89,2.32-5.01c1.55-1.12,3.63-1.68,6.26-1.68
			c1.83,0,3.4,0.16,4.69,0.48c1.29,0.32,2.42,0.82,3.38,1.5c0.43,0.3,0.64,0.59,0.64,0.86c0,0.19-0.08,0.39-0.22,0.61l-1.86,2.91
			c-0.19,0.3-0.38,0.45-0.58,0.45c-0.13,0-0.33-0.08-0.61-0.26c-0.51-0.34-1.12-0.62-1.82-0.85c-0.71-0.22-1.46-0.34-2.27-0.34
			c-0.75,0-1.31,0.11-1.7,0.32c-0.38,0.21-0.58,0.55-0.58,1.02c0,0.38,0.13,0.7,0.4,0.96c0.27,0.26,0.6,0.47,1.01,0.66
			c0.41,0.18,1.11,0.48,2.11,0.88c1.6,0.64,2.86,1.25,3.78,1.84c0.92,0.59,1.61,1.29,2.08,2.11c0.47,0.82,0.7,1.86,0.7,3.12
			c0,1.92-0.72,3.47-2.16,4.66c-1.44,1.18-3.59,1.78-6.45,1.78C315.36,395.43,313.56,395.23,311.9,394.82z"/>
		<path d="M124.65,432.68c0-0.19,0.05-0.43,0.16-0.7l7.97-19.17c0.19-0.45,0.41-0.76,0.66-0.94c0.25-0.18,0.59-0.27,1.04-0.27h3.49
			c0.45,0,0.79,0.09,1.04,0.27c0.25,0.18,0.46,0.5,0.66,0.94l7.94,19.17c0.11,0.28,0.16,0.51,0.16,0.7c0,0.45-0.23,0.67-0.7,0.67
			h-6.02c-0.66,0-1.08-0.29-1.25-0.86l-0.77-2.37h-5.66l-0.74,2.37c-0.17,0.58-0.59,0.86-1.25,0.86h-6.02
			C124.88,433.35,124.65,433.13,124.65,432.68z M137.45,425.06l-1.25-3.97l-1.25,3.97H137.45z"/>
		<path d="M159.38,432.9c-0.29-0.3-0.43-0.76-0.43-1.38v-18.11c0-0.62,0.14-1.08,0.43-1.38c0.29-0.3,0.79-0.45,1.49-0.45h7.65
			c3.2,0,5.53,0.63,6.99,1.9c1.46,1.27,2.19,3.18,2.19,5.74c0,2.56-0.73,4.47-2.19,5.73c-1.46,1.26-3.78,1.89-6.96,1.89h-1.92v4.67
			c0,0.62-0.14,1.08-0.43,1.38c-0.29,0.3-0.79,0.45-1.52,0.45h-3.81C160.17,433.35,159.67,433.2,159.38,432.9z M167.85,421.42
			c0.68,0,1.22-0.18,1.62-0.54c0.39-0.36,0.59-0.91,0.59-1.63c0-0.75-0.2-1.3-0.59-1.66c-0.39-0.36-0.93-0.54-1.62-0.54h-2.18v4.38
			H167.85z"/>
		<path d="M179.1,432.9c-0.29-0.3-0.43-0.76-0.43-1.38v-18.11c0-0.62,0.14-1.08,0.43-1.38c0.29-0.3,0.78-0.45,1.49-0.45h3.81
			c0.73,0,1.23,0.14,1.52,0.43c0.29,0.29,0.43,0.75,0.43,1.39v14.5h7.46c0.68,0,1.15,0.14,1.39,0.43c0.25,0.29,0.37,0.75,0.37,1.39
			v1.79c0,0.64-0.12,1.1-0.37,1.39c-0.25,0.29-0.71,0.43-1.39,0.43h-13.21C179.88,433.35,179.38,433.2,179.1,432.9z"/>
		<path d="M195.4,432.68c0-0.19,0.05-0.43,0.16-0.7l7.97-19.17c0.19-0.45,0.41-0.76,0.66-0.94c0.24-0.18,0.59-0.27,1.04-0.27h3.49
			c0.45,0,0.79,0.09,1.04,0.27c0.24,0.18,0.46,0.5,0.66,0.94l7.94,19.17c0.11,0.28,0.16,0.51,0.16,0.7c0,0.45-0.24,0.67-0.71,0.67
			h-6.02c-0.66,0-1.08-0.29-1.25-0.86l-0.77-2.37h-5.66l-0.74,2.37c-0.17,0.58-0.59,0.86-1.25,0.86h-6.02
			C195.64,433.35,195.4,433.13,195.4,432.68z M208.2,425.06l-1.25-3.97l-1.25,3.97H208.2z"/>
		<path d="M220.54,432.9c-0.29-0.3-0.43-0.76-0.43-1.38v-18.14c0-0.62,0.14-1.07,0.43-1.36c0.29-0.29,0.79-0.43,1.52-0.43h3.04
			c0.45,0,0.79,0.06,1.04,0.18c0.25,0.12,0.49,0.35,0.72,0.69l5.79,8.61v-7.65c0-0.62,0.14-1.08,0.43-1.38
			c0.29-0.3,0.78-0.45,1.49-0.45h3.81c0.73,0,1.23,0.14,1.52,0.43s0.43,0.75,0.43,1.39v18.14c0,0.62-0.14,1.07-0.43,1.36
			s-0.79,0.43-1.52,0.43h-3.04c-0.45,0-0.79-0.06-1.04-0.18c-0.25-0.12-0.48-0.35-0.72-0.69l-5.79-8.61v7.68
			c0,0.62-0.14,1.07-0.43,1.36c-0.29,0.29-0.79,0.43-1.52,0.43h-3.81C221.32,433.35,220.83,433.2,220.54,432.9z"/>
		<path d="M243,432.9c-0.29-0.3-0.43-0.76-0.43-1.38v-18.11c0-0.62,0.14-1.08,0.43-1.38s0.78-0.45,1.49-0.45h13.25
			c0.68,0,1.15,0.14,1.39,0.43s0.37,0.75,0.37,1.39v1.79c0,0.64-0.12,1.1-0.37,1.39s-0.71,0.43-1.39,0.43h-7.49v2.75h4.61
			c0.68,0,1.15,0.14,1.39,0.43s0.37,0.75,0.37,1.39v1.73c0,0.64-0.12,1.1-0.37,1.39s-0.71,0.43-1.39,0.43h-4.61v2.75h7.46
			c0.68,0,1.15,0.14,1.39,0.43c0.24,0.29,0.37,0.75,0.37,1.39v1.79c0,0.64-0.12,1.1-0.37,1.39c-0.25,0.29-0.71,0.43-1.39,0.43
			h-13.22C243.79,433.35,243.29,433.2,243,432.9z"/>
		<path d="M265,433.22c-1.66-0.41-3.01-0.97-4.03-1.7c-0.43-0.3-0.64-0.59-0.64-0.86c0-0.19,0.07-0.39,0.22-0.61l1.86-2.91
			c0.19-0.28,0.38-0.42,0.58-0.42c0.17,0,0.37,0.08,0.61,0.22c0.77,0.47,1.65,0.84,2.64,1.1s1.96,0.4,2.9,0.4
			c0.79,0,1.36-0.11,1.71-0.32s0.53-0.54,0.53-0.99c0-0.49-0.24-0.88-0.7-1.18c-0.47-0.3-1.28-0.67-2.43-1.12
			c-2.15-0.83-3.85-1.78-5.09-2.83c-1.24-1.06-1.86-2.46-1.86-4.21c0-2.22,0.77-3.89,2.32-5.01c1.55-1.12,3.63-1.68,6.26-1.68
			c1.83,0,3.4,0.16,4.69,0.48c1.29,0.32,2.42,0.82,3.38,1.5c0.43,0.3,0.64,0.59,0.64,0.86c0,0.19-0.07,0.39-0.22,0.61l-1.86,2.91
			c-0.19,0.3-0.38,0.45-0.58,0.45c-0.13,0-0.33-0.08-0.61-0.26c-0.51-0.34-1.12-0.62-1.82-0.85c-0.7-0.22-1.46-0.34-2.27-0.34
			c-0.75,0-1.31,0.11-1.7,0.32c-0.38,0.21-0.58,0.55-0.58,1.02c0,0.38,0.13,0.7,0.4,0.96c0.27,0.26,0.6,0.47,1.01,0.66
			c0.41,0.18,1.11,0.48,2.11,0.88c1.6,0.64,2.86,1.25,3.78,1.84c0.92,0.59,1.61,1.29,2.08,2.11c0.47,0.82,0.71,1.86,0.71,3.12
			c0,1.92-0.72,3.47-2.16,4.66c-1.44,1.18-3.59,1.78-6.45,1.78C268.47,433.83,266.67,433.63,265,433.22z"/>
		<path d="M115.87,471.3c-0.29-0.3-0.43-0.76-0.43-1.38v-14.5h-4.61c-0.68,0-1.15-0.14-1.39-0.43c-0.24-0.29-0.37-0.75-0.37-1.39
			v-1.79c0-0.64,0.12-1.1,0.37-1.39c0.25-0.29,0.71-0.43,1.39-0.43h16.9c0.68,0,1.15,0.14,1.39,0.43s0.37,0.75,0.37,1.39v1.79
			c0,0.64-0.12,1.1-0.37,1.39s-0.71,0.43-1.39,0.43h-4.61v14.5c0,0.62-0.14,1.08-0.43,1.38c-0.29,0.3-0.79,0.45-1.52,0.45h-3.81
			C116.65,471.75,116.15,471.6,115.87,471.3z"/>
		<path d="M135.27,471.22c-1.58-0.67-2.8-1.64-3.68-2.91c-0.88-1.27-1.31-2.78-1.31-4.53v-11.97c0-0.62,0.14-1.08,0.43-1.38
			s0.78-0.45,1.49-0.45h3.81c0.72,0,1.23,0.14,1.52,0.43c0.29,0.29,0.43,0.75,0.43,1.39v12.06c0,1,0.25,1.75,0.75,2.24
			c0.5,0.49,1.19,0.74,2.06,0.74s1.56-0.24,2.06-0.74c0.5-0.49,0.75-1.24,0.75-2.24v-12.06c0-0.62,0.14-1.08,0.43-1.38
			c0.29-0.3,0.78-0.45,1.49-0.45h3.81c0.72,0,1.23,0.14,1.52,0.43s0.43,0.75,0.43,1.39v11.97c0,1.75-0.44,3.26-1.31,4.53
			c-0.88,1.27-2.1,2.24-3.68,2.91c-1.58,0.67-3.41,1.01-5.5,1.01C138.69,472.23,136.85,471.9,135.27,471.22z"/>
		<path d="M153.79,471.3c-0.29-0.3-0.43-0.76-0.43-1.38v-18.11c0-0.62,0.14-1.08,0.43-1.38c0.29-0.3,0.78-0.45,1.49-0.45h7.65
			c3.2,0,5.53,0.63,6.99,1.9c1.46,1.27,2.19,3.18,2.19,5.74c0,1.54-0.26,2.83-0.78,3.89c-0.52,1.06-1.33,1.88-2.42,2.48l2.98,6.37
			c0.09,0.17,0.13,0.36,0.13,0.58c0,0.23-0.08,0.43-0.24,0.58s-0.37,0.22-0.62,0.22h-5.41c-0.34,0-0.61-0.05-0.82-0.14
			c-0.2-0.1-0.35-0.26-0.43-0.5l-2.37-5.95h-1.09v4.77c0,0.62-0.14,1.08-0.43,1.38c-0.29,0.3-0.79,0.45-1.52,0.45h-3.81
			C154.57,471.75,154.07,471.6,153.79,471.3z M162.25,459.82c0.68,0,1.22-0.18,1.62-0.54c0.39-0.36,0.59-0.91,0.59-1.63
			c0-0.75-0.2-1.3-0.59-1.66c-0.39-0.36-0.93-0.54-1.62-0.54h-2.18v4.38H162.25z"/>
		<path d="M174.3,471.3c-0.29-0.3-0.43-0.76-0.43-1.38v-18.11c0-0.62,0.14-1.08,0.43-1.38s0.78-0.45,1.49-0.45h3.81
			c0.73,0,1.23,0.14,1.52,0.43c0.29,0.29,0.43,0.75,0.43,1.39v18.11c0,0.62-0.14,1.08-0.43,1.38c-0.29,0.3-0.79,0.45-1.52,0.45
			h-3.81C175.08,471.75,174.58,471.6,174.3,471.3z M174.6,447.3c0-0.17,0.03-0.35,0.1-0.54l1.34-3.71c0.17-0.49,0.37-0.82,0.61-0.99
			c0.23-0.17,0.67-0.26,1.31-0.26h4.58c0.45,0,0.8,0.08,1.06,0.24c0.26,0.16,0.38,0.39,0.38,0.69c0,0.26-0.08,0.52-0.26,0.8
			l-2.05,3.46c-0.3,0.51-0.59,0.84-0.86,0.99c-0.28,0.15-0.78,0.22-1.5,0.22h-3.42C175.03,448.2,174.6,447.9,174.6,447.3z"/>
		<path d="M188.01,471.62c-1.66-0.41-3.01-0.97-4.03-1.7c-0.43-0.3-0.64-0.59-0.64-0.86c0-0.19,0.07-0.39,0.22-0.61l1.86-2.91
			c0.19-0.28,0.38-0.42,0.58-0.42c0.17,0,0.37,0.08,0.61,0.22c0.77,0.47,1.65,0.84,2.64,1.1s1.96,0.4,2.9,0.4
			c0.79,0,1.36-0.11,1.71-0.32s0.53-0.54,0.53-0.99c0-0.49-0.24-0.88-0.7-1.18c-0.47-0.3-1.28-0.67-2.43-1.12
			c-2.15-0.83-3.85-1.78-5.09-2.83c-1.24-1.06-1.86-2.46-1.86-4.21c0-2.22,0.77-3.89,2.32-5.01c1.55-1.12,3.63-1.68,6.26-1.68
			c1.83,0,3.4,0.16,4.69,0.48c1.29,0.32,2.42,0.82,3.38,1.5c0.43,0.3,0.64,0.59,0.64,0.86c0,0.19-0.07,0.39-0.22,0.61l-1.86,2.91
			c-0.19,0.3-0.38,0.45-0.58,0.45c-0.13,0-0.33-0.08-0.61-0.26c-0.51-0.34-1.12-0.62-1.82-0.85c-0.7-0.22-1.46-0.34-2.27-0.34
			c-0.75,0-1.31,0.11-1.7,0.32c-0.38,0.21-0.58,0.55-0.58,1.02c0,0.38,0.13,0.7,0.4,0.96c0.27,0.26,0.6,0.47,1.01,0.66
			c0.41,0.18,1.11,0.48,2.11,0.88c1.6,0.64,2.86,1.25,3.78,1.84c0.92,0.59,1.61,1.29,2.08,2.11c0.47,0.82,0.71,1.86,0.71,3.12
			c0,1.92-0.72,3.47-2.16,4.66c-1.44,1.18-3.59,1.78-6.45,1.78C191.47,472.23,189.67,472.03,188.01,471.62z"/>
		<path d="M208.34,471.3c-0.29-0.3-0.43-0.76-0.43-1.38v-14.5h-4.61c-0.68,0-1.15-0.14-1.39-0.43c-0.24-0.29-0.37-0.75-0.37-1.39
			v-1.79c0-0.64,0.12-1.1,0.37-1.39c0.25-0.29,0.71-0.43,1.39-0.43h16.9c0.68,0,1.15,0.14,1.39,0.43s0.37,0.75,0.37,1.39v1.79
			c0,0.64-0.12,1.1-0.37,1.39s-0.71,0.43-1.39,0.43h-4.61v14.5c0,0.62-0.14,1.08-0.43,1.38c-0.29,0.3-0.79,0.45-1.52,0.45h-3.81
			C209.13,471.75,208.63,471.6,208.34,471.3z"/>
		<path d="M223.35,471.3c-0.29-0.3-0.43-0.76-0.43-1.38v-18.11c0-0.62,0.14-1.08,0.43-1.38c0.29-0.3,0.79-0.45,1.49-0.45h3.81
			c0.72,0,1.23,0.14,1.52,0.43c0.29,0.29,0.43,0.75,0.43,1.39v18.11c0,0.62-0.14,1.08-0.43,1.38c-0.29,0.3-0.79,0.45-1.52,0.45
			h-3.81C224.14,471.75,223.64,471.6,223.35,471.3z"/>
		<path d="M235.43,469.37c-2.15-1.91-3.23-4.74-3.23-8.5c0-3.78,1.04-6.61,3.12-8.51s5.05-2.85,8.91-2.85
			c1.75,0,3.31,0.17,4.67,0.51c1.37,0.34,2.51,0.82,3.42,1.44c0.26,0.19,0.38,0.41,0.38,0.64c0,0.19-0.1,0.46-0.29,0.8l-1.6,2.75
			c-0.17,0.3-0.37,0.45-0.61,0.45c-0.15,0-0.4-0.08-0.74-0.26c-0.6-0.3-1.22-0.53-1.87-0.7c-0.65-0.17-1.41-0.26-2.29-0.26
			c-1.77,0-3.13,0.51-4.06,1.54c-0.94,1.02-1.41,2.51-1.41,4.45c0,1.92,0.51,3.4,1.54,4.43c1.02,1.04,2.42,1.55,4.19,1.55
			c1.54,0,2.94-0.32,4.22-0.96c0.34-0.17,0.59-0.26,0.74-0.26c0.23,0,0.44,0.15,0.61,0.45l1.6,2.75c0.19,0.34,0.29,0.61,0.29,0.8
			c0,0.24-0.13,0.45-0.38,0.64c-0.92,0.62-2.07,1.1-3.46,1.44c-1.39,0.34-2.96,0.51-4.7,0.51
			C240.61,472.23,237.59,471.28,235.43,469.37z"/>
		<path d="M255.5,469.27c-1.96-1.97-2.94-4.77-2.94-8.4s0.98-6.43,2.94-8.4c1.96-1.97,4.84-2.96,8.64-2.96
			c3.8,0,6.68,0.99,8.64,2.96c1.96,1.97,2.94,4.77,2.94,8.4s-0.98,6.43-2.94,8.4c-1.96,1.97-4.84,2.96-8.64,2.96
			C260.34,472.23,257.46,471.25,255.5,469.27z M267.14,465.37c0.62-0.99,0.93-2.49,0.93-4.5c0-2.03-0.31-3.53-0.93-4.51
			c-0.62-0.98-1.62-1.47-3.01-1.47c-1.39,0-2.39,0.49-3.01,1.47c-0.62,0.98-0.93,2.49-0.93,4.51c0,2.01,0.31,3.5,0.93,4.5
			c0.62,0.99,1.62,1.49,3.01,1.49C265.52,466.86,266.53,466.36,267.14,465.37z"/>
		<path d="M279.94,471.62c-1.66-0.41-3.01-0.97-4.03-1.7c-0.43-0.3-0.64-0.59-0.64-0.86c0-0.19,0.07-0.39,0.22-0.61l1.86-2.91
			c0.19-0.28,0.38-0.42,0.58-0.42c0.17,0,0.37,0.08,0.61,0.22c0.77,0.47,1.65,0.84,2.64,1.1s1.96,0.4,2.9,0.4
			c0.79,0,1.36-0.11,1.71-0.32s0.53-0.54,0.53-0.99c0-0.49-0.24-0.88-0.7-1.18c-0.47-0.3-1.28-0.67-2.43-1.12
			c-2.15-0.83-3.85-1.78-5.09-2.83c-1.24-1.06-1.86-2.46-1.86-4.21c0-2.22,0.77-3.89,2.32-5.01c1.55-1.12,3.63-1.68,6.26-1.68
			c1.83,0,3.4,0.16,4.69,0.48c1.29,0.32,2.42,0.82,3.38,1.5c0.43,0.3,0.64,0.59,0.64,0.86c0,0.19-0.07,0.39-0.22,0.61l-1.86,2.91
			c-0.19,0.3-0.38,0.45-0.58,0.45c-0.13,0-0.33-0.08-0.61-0.26c-0.51-0.34-1.12-0.62-1.82-0.85c-0.7-0.22-1.46-0.34-2.27-0.34
			c-0.75,0-1.31,0.11-1.7,0.32c-0.38,0.21-0.58,0.55-0.58,1.02c0,0.38,0.13,0.7,0.4,0.96c0.27,0.26,0.6,0.47,1.01,0.66
			c0.41,0.18,1.11,0.48,2.11,0.88c1.6,0.64,2.86,1.25,3.78,1.84c0.92,0.59,1.61,1.29,2.08,2.11c0.47,0.82,0.71,1.86,0.71,3.12
			c0,1.92-0.72,3.47-2.16,4.66c-1.44,1.18-3.59,1.78-6.45,1.78C283.41,472.23,281.61,472.03,279.94,471.62z"/>
	</g>
	<polygon class="st1" points="200.76,96.93 214.23,124.22 244.34,128.59 222.55,149.83 227.7,179.83 200.76,165.67 173.83,179.83 
		178.97,149.83 157.18,128.59 187.29,124.22 	"/>
	<polygon class="st1" points="138.58,180.15 147.32,197.86 166.86,200.7 152.72,214.48 156.06,233.94 138.58,224.75 121.11,233.94 
		124.45,214.48 110.31,200.7 129.85,197.86 	"/>
	<polygon class="st1" points="268.68,180.15 277.42,197.86 296.95,200.7 282.82,214.48 286.15,233.94 268.68,224.75 251.2,233.94 
		254.54,214.48 240.4,200.7 259.94,197.86 	"/>
	<circle class="st2" cx="201.77" cy="213.97" r="121.96"/>
	<circle class="st3" cx="200.82" cy="200.58" r="121.96"/>
	<g>
		<path class="st3" d="M195.05,643.3c-0.63-0.56-0.95-1.54-0.95-2.96v-5.69h-17.59c-1.75,0-2.63-0.85-2.63-2.55v-6.72
			c0-1.12,0.1-1.95,0.29-2.48c0.19-0.54,0.66-1.24,1.39-2.12l19.86-23.94c0.83-0.97,1.51-1.61,2.04-1.9
			c0.54-0.29,1.46-0.44,2.77-0.44h7.01c1.61,0,2.74,0.34,3.39,1.02c0.66,0.68,0.99,1.73,0.99,3.14v23.58h2.77
			c1.56,0,2.62,0.33,3.18,0.99c0.56,0.66,0.84,1.71,0.84,3.17v4.09c0,1.46-0.28,2.52-0.84,3.18c-0.56,0.66-1.62,0.99-3.18,0.99
			h-2.77v5.69c0,1.41-0.33,2.4-0.99,2.96c-0.66,0.56-1.81,0.84-3.47,0.84h-8.69C196.82,644.14,195.68,643.86,195.05,643.3z
			 M197.97,622.24v-9.56l-7.01,9.56H197.97z"/>
	</g>
	<path class="st190" d="M179.92,104c-2.15,0-3.92,1.76-3.92,3.92v90.05c0,2.15,1.76,3.92,3.92,3.92h69.17
		c2.15,0,3.92-1.76,3.92-3.92v-72.64L227.67,104H179.92z"/>
	<path class="st168" d="M227.55,104v15.01c0,0,0,4.24,6.2,5.87l19.25,0.33L227.55,104z"/>
	<g>
		<path class="st167" d="M225.92,132c-2.15,0-3.92,1.76-3.92,3.92v90.05c0,2.15,1.76,3.92,3.92,3.92h69.17
			c2.15,0,3.92-1.76,3.92-3.92v-72.64L273.67,132H225.92z"/>
		<path class="st168" d="M273.55,132v15.01c0,0,0,4.24,6.2,5.87l19.25,0.33L273.55,132z"/>
	</g>
	<g>
		<circle id="XMLID_265_" class="st4" cx="195.76" cy="213.86" r="68.03"/>
		<g id="XMLID_241_">
			<path id="XMLID_264_" class="st23" d="M214.69,211.19c0.89-2.16,1.33-3.86,1.43-4.31c-0.08-0.03-0.15-0.07-0.2-0.13
				c-0.14-0.21,0.28-2.41,0.09-2.56c-0.02-0.02-0.05-0.03-0.07-0.04c-0.25,0.78-0.7,1.42-1.24,1.87
				C214.7,207.71,214.7,209.44,214.69,211.19z"/>
			<path id="XMLID_263_" class="st41" d="M211.63,206.88c-1.01-0.72-0.97,9.47-5.15,13.51c-0.3,0.29-0.61,0.57-0.92,0.85
				c-0.32,0.28-0.65,0.53-0.98,0.79c0,0.14,0,0.28,0.01,0.43c3.85-1.13,6.57-4.54,8.26-7.48c0.76-1.31,1.37-2.62,1.85-3.79
				c0.01-1.75,0.02-3.48,0.01-5.17c-0.32,0.27-0.66,0.47-1,0.59C213.11,207.21,212.42,207.42,211.63,206.88z"/>
			<path id="XMLID_262_" class="st41" d="M179.15,234.02c-0.11,0.05-0.43,0.24-0.74,0.73C178.63,234.54,178.87,234.3,179.15,234.02z
				"/>
			<path id="XMLID_261_" class="st41" d="M204.6,223c0.1,2.24,0.55,5.19,2.38,7.87c0.6-0.53,0.94-0.66,1.16-0.28
				c1.35,2.29,2.77,3.51,3.55,4.29c-0.4-0.68-0.84-0.87-0.84-0.87s0.97-0.38,2.64,1.05c0.39,0.33,1.07,0.79,1.82,1.42
				c-0.88-4.35-0.69-14.23-0.62-23.95c-0.4,0.88-0.86,1.8-1.38,2.72C210.88,219.44,207.9,222.08,204.6,223z"/>
			<path id="XMLID_260_" class="st41" d="M179.18,234c0.77-0.77,1.73-1.84,2.66-3.41c0.23-0.38,0.57-0.25,1.19,0.31
				c2.13-3.09,2.41-6.55,2.43-8.86c-0.66-0.52-1.3-1.06-1.9-1.64c-4.18-4.03-4.14-14.23-5.15-13.51c-0.78,0.53-1.47,0.33-2.04-0.25
				c-0.21-0.06-0.41-0.16-0.62-0.29c-0.04,11.13,0.44,24.19-0.53,29.73c0.55-0.43,1.04-0.77,1.34-1.03
				C178.14,233.7,179.09,233.97,179.18,234z"/>
			<path id="XMLID_259_" class="st42" d="M203.73,222.67c0.29-0.06,0.57-0.13,0.85-0.21c0-0.15-0.01-0.29-0.01-0.43
				C204.29,222.25,204.01,222.47,203.73,222.67z"/>
			<path id="XMLID_258_" class="st42" d="M194.87,241.59c0.07,0.05,0.1,0.12,0.12,0.19c0.02-0.07,0.05-0.14,0.12-0.19
				c7.29-5.58,10.4-9.42,11.87-10.73c-1.83-2.68-2.28-5.63-2.38-7.87c-0.6,0.17-1.22,0.28-1.84,0.33c-0.18,0.77-0.97,2.19-3.65,2.16
				c-0.56-0.01-1.02-0.07-1.41-0.18c-0.41,0.08-0.81,0.15-1.22,0.19c-1.24,0.13-2.51,0.09-3.75-0.11c-1.01-0.16-2-0.43-2.96-0.81
				c-1.07-0.42-2.09-0.97-3.04-1.61c-0.44-0.29-0.85-0.62-1.27-0.94c-0.02,2.31-0.3,5.77-2.43,8.86
				C184.51,232.23,187.63,236.06,194.87,241.59z"/>
			<path id="XMLID_257_" class="st42" d="M194.99,241.96c0,0.01,0,0.03-0.01,0.04h0.01C194.99,241.99,194.99,241.97,194.99,241.96z"
				/>
			<path id="XMLID_256_" class="st43" d="M189.77,224.58c0.95,0.37,1.95,0.64,2.96,0.81c1.23,0.2,2.51,0.23,3.75,0.11
				c0.41-0.04,0.82-0.11,1.22-0.19c-1.79-0.51-1.91-1.91-1.96-2.39c0.07-0.57,0.28-2.53,3.42-2.5c2.85,0.03,3.53,1.65,3.63,2.38
				c0.32-0.03,0.63-0.07,0.94-0.13c0.29-0.2,0.57-0.42,0.85-0.64c0.33-0.26,0.67-0.52,0.98-0.79c0.31-0.28,0.62-0.56,0.92-0.85
				c4.18-4.03,4.14-14.23,5.15-13.51c0.79,0.53,1.49,0.33,2.07-0.27c-0.49,0.17-0.96,0.19-1.3-0.03c-0.57-0.35,0.02-3.2,0.43-7.57
				c-0.06,0.02-0.12,0.04-0.18,0.08c-0.79,0.5-1.78-6.28-5.6-9.46c-3.82-3.17-4.13-5.32-4.13-5.32c-3.82,0.43-7.56,1.82-13.85,6.82
				c-4.98,3.97-9.43,7.92-11.44,8.45c-0.18,0.05-0.31-0.15-0.46-0.42c0.41,4.28,0.98,7.06,0.41,7.41c-0.33,0.2-0.76,0.2-1.22,0.05
				c0.58,0.58,1.26,0.77,2.04,0.25c1.01-0.72,0.97,9.47,5.15,13.51c0.6,0.58,1.24,1.13,1.9,1.64c0.41,0.33,0.83,0.65,1.27,0.94
				C187.68,223.62,188.7,224.16,189.77,224.58z"/>
			<path id="XMLID_255_" class="st41" d="M175.59,191.58c0.19-3.73,3.62-17.28,19.4-17.28c15.78,0,19.21,13.54,19.4,17.28
				c0.12,2.42-0.12,3.82,0.08,4.65c0.08-0.81,0.12-1.87,0.12-3.26c0-7.13-2.9-14.48-7.57-15.71c-2.25-0.59-2.53-2.77-7.53-4.27
				c-7.98-2.39-16.98,0.92-21.58,8.59c-3.22,5.37-3.38,12.88-3.05,15.49C176,196.47,175.41,195.11,175.59,191.58z"/>
			<path id="XMLID_254_" class="st41" d="M177.62,199.6c2.01-0.53,6.45-4.48,11.44-8.45c6.3-5.01,10.03-6.39,13.85-6.82
				c0,0,0.31,2.15,4.13,5.32c3.82,3.17,4.81,9.96,5.6,9.46c0.06-0.04,0.12-0.06,0.18-0.08c0.04-0.45,0.08-0.91,0.12-1.39
				c0.39-5.15,0.34-6.83-0.17-8.7c-3.9-14.38-17.79-13.36-17.79-13.36s-13.41-1.26-17.72,13.13c-0.57,1.91-0.62,3.78-0.23,8.93
				c0.04,0.54,0.09,1.05,0.13,1.55C177.32,199.44,177.44,199.64,177.62,199.6z"/>
			<path id="XMLID_253_" class="st96" d="M177.58,206.58c0.56-0.35-0.01-3.13-0.41-7.41c-0.05-0.5-0.09-1.01-0.13-1.55
				c-0.39-5.15-0.34-7.02,0.23-8.93c4.31-14.39,17.72-13.13,17.72-13.13s13.89-1.02,17.79,13.36c0.51,1.87,0.56,3.55,0.17,8.7
				c-0.04,0.48-0.08,0.94-0.12,1.39c-0.41,4.37-1,7.22-0.43,7.57c0.35,0.21,0.82,0.2,1.3,0.03c0.34-0.12,0.68-0.32,1-0.59
				c0.53-0.45,0.99-1.09,1.24-1.87c-0.2-0.06-0.49,0.12-0.65-0.23c-0.19-0.39-0.09-2.15,0.07-2.52c0.16-0.38,0.33-0.56,0.93-0.45
				c0.03,0.01,0.06,0.02,0.09,0.03c0.07-1.76-0.15-3.45-1.07-3.81c-0.5-0.19-0.72-0.49-0.83-0.94c-0.2-0.84,0.04-2.24-0.08-4.65
				c-0.19-3.73-3.62-17.28-19.4-17.28c-15.78,0-19.21,13.54-19.4,17.28c-0.18,3.53,0.41,4.9-0.72,5.49
				c-0.06,0.03-0.11,0.07-0.19,0.1c-1.41,0.54-1.18,4.2-0.78,6.45c0.22,1.26,1.01,2.22,1.85,2.72c0.21,0.13,0.42,0.22,0.62,0.29
				C176.82,206.78,177.25,206.78,177.58,206.58z"/>
			<path id="XMLID_252_" class="st97" d="M215.35,201.4c-0.16,0.38-0.25,2.13-0.07,2.52c0.16,0.34,0.46,0.16,0.65,0.23
				c0.03,0.01,0.05,0.02,0.07,0.04c0.19,0.16-0.23,2.35-0.09,2.56c0.04,0.06,0.11,0.1,0.2,0.13c-0.09,0.45-0.54,2.16-1.43,4.31
				c-0.48,1.17-1.09,2.48-1.85,3.79c-1.69,2.94-4.41,6.35-8.26,7.48c-0.28,0.08-0.56,0.15-0.85,0.21c-0.31,0.06-0.62,0.1-0.94,0.13
				c-0.1-0.73-0.78-2.35-3.63-2.38c-3.14-0.03-3.35,1.93-3.42,2.5c0.05,0.47,0.17,1.88,1.96,2.39c0.39,0.11,0.85,0.18,1.41,0.18
				c2.68,0.03,3.47-1.39,3.65-2.16c0.63-0.05,1.24-0.16,1.84-0.33c3.31-0.92,6.28-3.56,8.7-7.77c0.53-0.91,0.98-1.84,1.38-2.72
				c1.27-2.81,1.9-5.2,1.97-5.66c0.03-0.01,0.07-0.02,0.1-0.04c0.22-0.15,0.38-1.59,0.52-3.25c0.13-1.56-0.36-2.41-0.9-2.59
				c-0.03-0.01-0.06-0.03-0.09-0.03C215.67,200.84,215.5,201.02,215.35,201.4z"/>
			<path id="XMLID_251_" class="st44" d="M192.22,253.63c-1.14-2.56-2.42-4.01-2.54-6.14c-0.84,1.04-1.43,2.11-1.33,3.13
				c0.32,3.37-9.66-8.18-10.61-13.73c-0.18,1.06-0.18,3.28,2.9,7.65c2.08,2.95,6.96,11.36,10.51,18.91
				c0.71-4.55,1.27-8.05,1.51-9.36C192.48,253.96,192.3,253.82,192.22,253.63z"/>
			<path id="XMLID_250_" class="st44" d="M201.62,250.61c0.1-1.02-0.49-2.09-1.33-3.13c-0.12,2.13-1.4,3.59-2.54,6.14
				c-0.08,0.19-0.26,0.33-0.45,0.44c0.25,1.37,0.85,5.1,1.6,9.92c3.45-7.69,8.35-16.44,10.48-19.46c3.23-4.59,3.07-6.81,2.87-7.8
				C211.46,242.22,201.3,254.02,201.62,250.61z"/>
			<path id="XMLID_249_" class="st44" d="M179.37,247.8c0.01,0.01,0.01,0.02,0.02,0.02l0.03-0.02
				C179.41,247.8,179.4,247.8,179.37,247.8z"/>
			<path id="XMLID_248_" class="st98" d="M197.75,253.63c1.14-2.56,2.42-4.01,2.54-6.14c-1.88-2.31-5.06-4.46-5.3-5.48h-0.01
				c-0.23,1.02-3.42,3.17-5.3,5.48c0.12,2.13,1.4,3.59,2.54,6.14c0.08,0.19,0.26,0.33,0.45,0.44c-0.24,1.31-0.81,4.81-1.51,9.36
				c2.11,4.49,3.76,8.68,4.06,11.23c0.29-2.45,1.77-6.4,3.69-10.68c-0.75-4.82-1.35-8.55-1.6-9.92
				C197.5,253.96,197.67,253.82,197.75,253.63z"/>
			<path id="XMLID_247_" class="st57" d="M208.13,230.59c-0.22-0.38-0.56-0.25-1.16,0.28c-1.47,1.31-4.58,5.14-11.87,10.73
				c-0.07,0.05-0.1,0.12-0.12,0.19c-0.02-0.07-0.05-0.14-0.12-0.19c-7.23-5.54-10.35-9.36-11.84-10.7
				c-0.62-0.56-0.97-0.69-1.19-0.31c-0.93,1.58-1.9,2.64-2.66,3.41c0,0,0.02,0,0.02,0s-0.02,0.01-0.04,0.02
				c-0.28,0.28-0.52,0.52-0.74,0.73c-0.22,0.35-0.44,0.84-0.56,1.55c-0.02,0.13-0.08,0.32-0.12,0.58
				c0.95,5.55,10.93,17.11,10.61,13.73c-0.1-1.02,0.49-2.09,1.33-3.13c1.88-2.31,5.06-4.46,5.3-5.48c0-0.01,0.01-0.03,0.01-0.04
				c0,0.01,0,0.03,0.01,0.04c0.23,1.02,3.42,3.17,5.3,5.48c0.84,1.04,1.43,2.11,1.33,3.13c-0.32,3.4,9.84-8.39,10.64-13.88
				c-0.04-0.18-0.07-0.32-0.09-0.43c-0.11-0.63-0.29-1.09-0.49-1.43C210.9,234.09,209.49,232.88,208.13,230.59z"/>
			<path id="XMLID_246_" class="st97" d="M235.09,244.83c-0.61-0.84-14.08-5.48-18.46-7.09c0.44,0.49,0.87,1.04,1.22,1.67
				c1.93,3.45,2.03,5.57,3.4,6.58c1.36,1.02-10.64,1.8-10.64,1.8l7.56,5.71c0,0-8.47,9.68-14.19,13.86
				c-1.77,1.29-7.38,6.47-8.74,8.71c0.31,1.5,0.86,3.75,0.99,4.65c0.05,0.39,0.1,0.77,0.15,1.15c10.43-0.12,20.29-2.59,29.09-6.9
				c0.27-5.22-0.63-25.75,9.24-30.11c0.21-0.09,0.44,0.12,0.7,0.57c0,0,0-0.01,0-0.01C235.31,245.21,235.21,244.99,235.09,244.83z"
				/>
			<path id="XMLID_245_" class="st99" d="M195.24,276.07L195.24,276.07c-1.6-1.39-7.42-7.42-9.19-8.71
				c-5.73-4.17-14.19-13.86-14.19-13.86l7.53-5.68c-0.01-0.01-0.01-0.02-0.02-0.02c-0.77-0.05-11.91-0.82-10.59-1.8
				c1.36-1.02,1.47-3.13,3.4-6.58c0.38-0.68,0.85-1.27,1.33-1.79c-4.57,1.67-17.65,6.19-18.25,7.02c10.55,0.55,9.5,24.04,9.7,29.98
				c9.2,4.64,19.59,7.27,30.6,7.27c0.28,0,0.55-0.02,0.82-0.02c-0.05-0.38-0.09-0.75-0.15-1.15
				C196.1,279.83,195.55,277.57,195.24,276.07z"/>
			<path id="XMLID_244_" class="st100" d="M172.17,239.41c-1.93,3.45-2.03,5.57-3.4,6.58c-1.32,0.98,9.82,1.75,10.59,1.8
				c0.03,0,0.04,0,0.04,0l-0.03,0.02l-7.53,5.68c0,0,8.47,9.68,14.19,13.86c1.77,1.29,7.6,7.32,9.19,8.71l0,0
				c1.36-2.24,6.97-7.42,8.74-8.71c5.73-4.17,14.19-13.86,14.19-13.86l-7.56-5.71c0,0,12-0.79,10.64-1.8
				c-1.36-1.02-1.47-3.13-3.4-6.58c-0.35-0.63-0.78-1.18-1.22-1.67c-0.44-0.49-0.9-0.9-1.33-1.27c-0.75-0.62-1.43-1.09-1.82-1.42
				c-1.68-1.42-2.64-1.05-2.64-1.05s0.45,0.19,0.84,0.87c0.2,0.34,0.38,0.79,0.49,1.43c0.02,0.1,0.05,0.25,0.09,0.43
				c0.2,0.99,0.36,3.21-2.87,7.8c-2.13,3.02-7.03,11.77-10.48,19.46c-1.92,4.28-3.4,8.23-3.69,10.68
				c-0.31-2.55-1.95-6.74-4.06-11.23c-3.55-7.55-8.43-15.96-10.51-18.91c-3.08-4.36-3.07-6.59-2.9-7.65
				c0.04-0.26,0.1-0.45,0.12-0.58c0.12-0.71,0.33-1.2,0.56-1.55c0.31-0.48,0.63-0.67,0.74-0.73c0.02-0.01,0.04-0.02,0.04-0.02
				s-0.01,0-0.02,0c-0.09-0.03-1.03-0.3-2.63,1.05c-0.3,0.26-0.79,0.6-1.34,1.03c-0.53,0.42-1.13,0.93-1.7,1.54
				C173.02,238.14,172.56,238.73,172.17,239.41z"/>
			<path id="XMLID_243_" class="st100" d="M155.25,244.63c-0.61-0.03-2.6,9.2-4.61,20.31c4.32,3.8,9.13,7.06,14.31,9.68
				C164.76,268.67,165.81,245.18,155.25,244.63z"/>
			<path id="XMLID_242_" class="st100" d="M234.7,244.86c-9.87,4.37-8.97,24.89-9.24,30.11c5.32-2.61,10.25-5.9,14.68-9.75
				c-1.69-9.47-3.49-17.59-4.74-19.78C235.14,244.98,234.91,244.77,234.7,244.86z"/>
		</g>
	</g>
</g>
</svg>
