<?xml version="1.0" encoding="utf-8"?>
<!-- Generator: Adobe Illustrator 23.0.0, SVG Export Plug-In . SVG Version: 6.00 Build 0)  -->
<svg version="1.1" id="Capa_1" xmlns="http://www.w3.org/2000/svg" xmlns:xlink="http://www.w3.org/1999/xlink" x="0px" y="0px"
	 viewBox="0 0 400 702" style="enable-background:new 0 0 400 702;" xml:space="preserve">
<style type="text/css">
	.st0{fill:#0085B0;}
	.st1{fill:#E0EF18;}
	.st2{fill:#CECECE;}
	.st3{fill:#FFFFFF;}
	.st4{fill:#F2F2F2;}
	.st5{fill:#EACCB0;}
	.st6{fill:#9B9B9B;}
	.st7{fill:#939393;}
	.st8{fill:#EFEFEF;}
	.st9{fill:#828282;}
	.st10{fill:#2C2A2D;}
	.st11{fill:#202021;}
	.st12{fill:#F2D4B6;}
	.st13{fill:#534D46;}
	.st14{fill:#E8D313;}
	.st15{fill:#2ACCFF;}
	.st16{fill:#4E4F4F;}
	.st17{fill:#003A94;}
	.st18{fill:#00D13C;}
	.st19{fill:#15682A;}
	.st20{fill:#D40000;}
	.st21{fill:#505050;}
	.st22{fill:#DFDFDF;}
	.st23{fill:none;}
	.st24{fill:#636363;}
	.st25{fill:#6C92D5;}
	.st26{fill:#22272F;}
	.st27{fill:#1B2538;}
	.st28{fill:#253452;}
	.st29{fill:#F9F9F9;}
	.st30{fill:#2D3543;}
	.st31{fill:#2A3D60;}
	.st32{fill:#587955;}
	.st33{fill:#CD7054;}
	.st34{fill:#F1CC4B;}
	.st35{fill:#ACACAC;}
	.st36{fill:#AAE528;}
	.st37{fill:#28CEBA;}
	.st38{fill:#DB143F;}
	.st39{fill:#53C2C9;}
	.st40{fill:#FFB412;}
	.st41{fill:#866A5E;}
	.st42{fill:#F7DDCB;}
	.st43{fill:#FFE6D4;}
	.st44{fill:#F5F5F5;}
	.st45{fill:#1A2830;}
	.st46{fill:#24353F;}
	.st47{fill:#132026;}
	.st48{fill:#F9FF03;}
	.st49{fill:#272728;}
	.st50{fill:#1E1D1E;}
	.st51{fill:#160423;}
	.st52{fill-rule:evenodd;clip-rule:evenodd;fill:#FFFFFF;}
	.st53{fill-rule:evenodd;clip-rule:evenodd;fill:#1996B8;}
	.st54{fill:#0C387D;}
	.st55{fill:#C69A81;}
	.st56{fill:#D1A385;}
	.st57{fill:#EAEAEA;}
	.st58{fill:#093E8C;}
	.st59{fill:#0B2A62;}
	.st60{fill:#D32A3B;}
	.st61{fill:#827C7D;}
	.st62{opacity:0.7;fill:#7F7F7F;}
	.st63{fill:#FDFDFD;}
	.st64{fill:#DAA449;}
	.st65{fill:#DD9225;}
	.st66{opacity:0.3;}
	.st67{fill:#425793;}
	.st68{opacity:0.8;}
	.st69{filter:url(#Adobe_OpacityMaskFilter);}
	.st70{opacity:0.15;mask:url(#SVGID_1_);}
	.st71{fill:#090B00;}
	.st72{opacity:0.1;}
	.st73{fill:#211915;}
	.st74{filter:url(#Adobe_OpacityMaskFilter_1_);}
	.st75{opacity:0.15;mask:url(#SVGID_2_);}
	.st76{fill:#AF3623;}
	.st77{filter:url(#Adobe_OpacityMaskFilter_2_);}
	.st78{opacity:0.15;mask:url(#SVGID_3_);}
	.st79{filter:url(#Adobe_OpacityMaskFilter_3_);}
	.st80{opacity:0.15;mask:url(#SVGID_4_);}
	.st81{fill:#456495;}
	.st82{filter:url(#Adobe_OpacityMaskFilter_4_);}
	.st83{opacity:0.15;mask:url(#SVGID_5_);}
	.st84{filter:url(#Adobe_OpacityMaskFilter_5_);}
	.st85{opacity:0.15;mask:url(#SVGID_6_);}
	.st86{fill:#76A9DA;}
	.st87{filter:url(#Adobe_OpacityMaskFilter_6_);}
	.st88{opacity:0.15;mask:url(#SVGID_7_);}
	.st89{filter:url(#Adobe_OpacityMaskFilter_7_);}
	.st90{opacity:0.15;mask:url(#SVGID_8_);}
	.st91{fill:#1F3642;}
	.st92{fill:#A9BDDA;}
	.st93{opacity:0.46;fill:#A6B4BC;}
	.st94{fill:#74C475;}
	.st95{fill:#221F21;}
	.st96{fill:#2D2D2D;}
	.st97{fill:#1C1B1A;}
	.st98{fill:#77181C;}
	.st99{fill:#262525;}
	.st100{fill:#11100F;}
	.st101{opacity:0.18;}
	.st102{opacity:0.38;}
	.st103{fill:#0A5B1F;}
	.st104{opacity:0.27;}
	.st105{opacity:0.48;}
	.st106{fill:#0A4654;}
	.st107{fill:#C2C6C6;}
	.st108{fill:#E5E5E5;stroke:#FFFFFF;stroke-miterlimit:10;}
	.st109{fill:#ACB4B5;}
	.st110{fill:#7F8384;}
	.st111{fill:#15772F;}
	.st112{fill:#F4F4F4;}
	.st113{fill:#53B8DB;}
	.st114{fill:#06EF42;}
	.st115{fill:#E7ED07;}
	.st116{fill:#CCCCCA;}
	.st117{fill:#EADF13;}
	.st118{fill:#C2C2C2;}
	.st119{fill:#85B681;}
	.st120{fill:#A1DC9B;}
	.st121{fill:#90C58B;}
	.st122{fill:#22241F;}
	.st123{opacity:0.5;}
	.st124{fill:#A2CADE;}
	.st125{fill:#E9E9E9;}
	.st126{fill:#D9D9D9;}
	.st127{fill:#CDCDCD;}
	.st128{opacity:0.34;fill:#F0F0F0;}
	.st129{fill:#5A5B5A;}
	.st130{fill:#FFE600;}
	.st131{fill:#DB1F59;}
	.st132{fill:#727272;}
	.st133{fill:#207235;}
	.st134{fill:#A3A3A3;}
	.st135{fill:#BCBCBC;}
	.st136{fill:#0A511C;}
	.st137{fill:#F9FF00;}
	.st138{fill:#D59F6D;}
	.st139{fill:#C0804A;}
	.st140{fill:#E6BA8A;}
	.st141{fill:#BE3ACC;}
	.st142{fill:#FFFFFF;stroke:#443F0C;stroke-width:9;stroke-miterlimit:10;}
	.st143{fill:none;stroke:#443F0C;stroke-width:9;stroke-miterlimit:10;}
	.st144{fill:#170623;}
	.st145{fill:#158231;}
	.st146{fill:#C89D76;}
	.st147{opacity:0.4;}
	.st148{fill:#ADADAD;}
	.st149{fill:#EDC3A6;}
	.st150{opacity:0.69;}
	.st151{fill:#E5D3D6;}
	.st152{opacity:0.44;}
	.st153{fill:#A5A5A5;}
	.st154{fill:#DDE5E4;}
	.st155{fill:#5C9169;}
	.st156{fill:#934215;}
	.st157{fill:#47413B;}
	.st158{fill:#601A1F;}
	.st159{fill:#044554;}
	.st160{opacity:0.7;}
	.st161{fill:#7F7F7F;}
	.st162{fill:#6B8A69;}
	.st163{opacity:0.24;fill:#848D90;}
	.st164{opacity:0.4;fill:#848D90;}
	.st165{fill:#F2D5D5;}
	.st166{fill:#485CC1;}
	.st167{fill:#C6CBE0;}
	.st168{fill:#8B909E;}
	.st169{fill:#53BC1B;}
	.st170{fill:#11565B;}
	.st171{fill:#67A06D;}
	.st172{fill:#FFEC00;}
	.st173{fill:#77A007;}
	.st174{fill:#E50731;}
	.st175{fill:#266472;}
	.st176{fill:#D4D4D4;}
	.st177{fill:#0E9932;}
	.st178{fill:#87DD24;}
	.st179{fill:#76A172;}
	.st180{fill:#62835F;}
	.st181{fill:#96D090;}
	.st182{fill:#D6D6D6;}
	.st183{fill:#606060;}
	.st184{fill:#494949;}
	.st185{fill:#29E55A;}
	.st186{fill:#2C703D;}
	.st187{fill:#DD0744;}
	.st188{fill:#EDEDED;}
	.st189{fill:#2A5936;}
	.st190{fill:#B9BBC1;}
	.st191{fill:#FFD79E;}
	.st192{fill:#FFE6C2;}
	.st193{fill:#2CBB55;}
	.st194{fill:#5C412D;}
	.st195{fill:#EC0000;}
	.st196{fill:#DD2626;}
	.st197{fill:#EA9334;}
	.st198{fill:#FCC232;}
	.st199{fill:#F9B234;}
	.st200{fill:#F7A037;}
	.st201{fill:#E0E0E0;}
</style>
<g>
	<g>
		<path class="st18" d="M9.5,209.36c0,22,13.29,27.86,29.54,13.03c0,0,156.99-143.3,353.09,26.97V55c0-22-18-40-40-40H49.5
			c-22,0-40,18-40,40V209.36z"/>
	</g>
	<g>
		<path class="st18" d="M391.66,647c0,22-18,40-40,40H49.98c-22,0-40-18-40-40v-46.27c0-22,18-40,40-40h301.68c22,0,40,18,40,40V647
			z"/>
	</g>
	<g>
		<path d="M67.65,392.39c-0.36-0.37-0.54-0.95-0.54-1.72v-22.64c0-0.77,0.18-1.35,0.54-1.72c0.36-0.37,0.98-0.56,1.86-0.56h4.76
			c0.91,0,1.54,0.18,1.9,0.54s0.54,0.94,0.54,1.74v22.64c0,0.77-0.18,1.35-0.54,1.72c-0.36,0.37-0.99,0.56-1.9,0.56h-4.76
			C68.63,392.95,68.01,392.77,67.65,392.39z"/>
		<path d="M80.05,392.39c-0.36-0.37-0.54-0.95-0.54-1.72v-22.68c0-0.77,0.18-1.34,0.54-1.7s0.99-0.54,1.9-0.54h3.8
			c0.56,0,0.99,0.07,1.3,0.22c0.31,0.15,0.61,0.43,0.9,0.86l7.24,10.76v-9.56c0-0.77,0.18-1.35,0.54-1.72
			c0.36-0.37,0.98-0.56,1.86-0.56h4.76c0.91,0,1.54,0.18,1.9,0.54c0.36,0.36,0.54,0.94,0.54,1.74v22.68c0,0.77-0.18,1.34-0.54,1.7
			c-0.36,0.36-0.99,0.54-1.9,0.54h-3.8c-0.56,0-0.99-0.07-1.3-0.22s-0.61-0.43-0.9-0.86l-7.24-10.76v9.6c0,0.77-0.18,1.34-0.54,1.7
			c-0.36,0.36-0.99,0.54-1.9,0.54h-4.76C81.03,392.95,80.41,392.77,80.05,392.39z"/>
		<path d="M108.13,392.39c-0.36-0.37-0.54-0.95-0.54-1.72v-22.64c0-0.77,0.18-1.35,0.54-1.72c0.36-0.37,0.98-0.56,1.86-0.56h16.56
			c0.85,0,1.43,0.18,1.74,0.54s0.46,0.94,0.46,1.74v2.24c0,0.8-0.15,1.38-0.46,1.74c-0.31,0.36-0.89,0.54-1.74,0.54h-9.36v3.4h5.76
			c0.85,0,1.43,0.18,1.74,0.54s0.46,0.94,0.46,1.74v2.24c0,0.8-0.15,1.38-0.46,1.74c-0.31,0.36-0.89,0.54-1.74,0.54h-5.76v7.92
			c0,0.77-0.18,1.35-0.54,1.72c-0.36,0.37-0.99,0.56-1.9,0.56h-4.76C109.11,392.95,108.49,392.77,108.13,392.39z"/>
		<path d="M131.23,389.85c-2.45-2.47-3.68-5.97-3.68-10.5s1.23-8.03,3.68-10.5c2.45-2.47,6.05-3.7,10.8-3.7s8.35,1.23,10.8,3.7
			c2.45,2.47,3.68,5.97,3.68,10.5s-1.23,8.03-3.68,10.5c-2.45,2.47-6.05,3.7-10.8,3.7S133.69,392.32,131.23,389.85z M145.79,384.97
			c0.77-1.24,1.16-3.11,1.16-5.62c0-2.53-0.39-4.41-1.16-5.64c-0.77-1.23-2.03-1.84-3.76-1.84s-2.99,0.61-3.76,1.84
			c-0.77,1.23-1.16,3.11-1.16,5.64c0,2.51,0.39,4.38,1.16,5.62c0.77,1.24,2.03,1.86,3.76,1.86S145.02,386.21,145.79,384.97z"/>
		<path d="M159.05,392.39c-0.36-0.37-0.54-0.95-0.54-1.72v-22.64c0-0.77,0.18-1.35,0.54-1.72c0.36-0.37,0.98-0.56,1.86-0.56h9.56
			c4,0,6.91,0.79,8.74,2.38c1.83,1.59,2.74,3.98,2.74,7.18c0,1.92-0.33,3.54-0.98,4.86c-0.65,1.32-1.66,2.35-3.02,3.1l3.72,7.96
			c0.11,0.21,0.16,0.45,0.16,0.72c0,0.29-0.1,0.53-0.3,0.72c-0.2,0.19-0.46,0.28-0.78,0.28h-6.76c-0.43,0-0.77-0.06-1.02-0.18
			c-0.25-0.12-0.43-0.33-0.54-0.62l-2.96-7.44h-1.36v5.96c0,0.77-0.18,1.35-0.54,1.72c-0.36,0.37-0.99,0.56-1.9,0.56h-4.76
			C160.03,392.95,159.41,392.77,159.05,392.39z M169.63,378.03c0.85,0,1.53-0.23,2.02-0.68s0.74-1.13,0.74-2.04
			c0-0.93-0.25-1.63-0.74-2.08s-1.17-0.68-2.02-0.68h-2.72v5.48H169.63z"/>
		<path d="M184.49,392.39c-0.36-0.37-0.54-0.95-0.54-1.72v-22.68c0-0.77,0.18-1.34,0.54-1.7c0.36-0.36,0.99-0.54,1.9-0.54h4.6
			c0.59,0,1.05,0.07,1.4,0.22c0.35,0.15,0.61,0.43,0.8,0.86l4.68,11.72l4.68-11.72c0.19-0.43,0.45-0.71,0.8-0.86s0.81-0.22,1.4-0.22
			h4.6c0.91,0,1.54,0.18,1.9,0.54s0.54,0.93,0.54,1.7v22.68c0,0.77-0.18,1.35-0.54,1.72c-0.36,0.37-0.98,0.56-1.86,0.56h-3.84
			c-0.88,0-1.51-0.19-1.88-0.56c-0.37-0.37-0.56-0.95-0.56-1.72v-10.92l-2.36,5.44c-0.32,0.77-0.67,1.33-1.04,1.66
			c-0.37,0.33-0.99,0.5-1.84,0.5s-1.47-0.17-1.84-0.5c-0.37-0.33-0.72-0.89-1.04-1.66l-2.36-5.44v10.92c0,0.77-0.18,1.35-0.54,1.72
			c-0.36,0.37-0.99,0.56-1.9,0.56h-3.84C185.47,392.95,184.85,392.77,184.49,392.39z"/>
		<path d="M212.79,392.11c0-0.24,0.07-0.53,0.2-0.88l9.96-23.96c0.24-0.56,0.51-0.95,0.82-1.18c0.31-0.23,0.74-0.34,1.3-0.34h4.36
			c0.56,0,0.99,0.11,1.3,0.34s0.58,0.62,0.82,1.18l9.92,23.96c0.13,0.35,0.2,0.64,0.2,0.88c0,0.56-0.29,0.84-0.88,0.84h-7.52
			c-0.83,0-1.35-0.36-1.56-1.08l-0.96-2.96h-7.08l-0.92,2.96c-0.21,0.72-0.73,1.08-1.56,1.08h-7.52
			C213.09,392.95,212.79,392.67,212.79,392.11z M228.79,382.59l-1.56-4.96l-1.56,4.96H228.79z"/>
		<path d="M244.71,389.97c-2.69-2.39-4.04-5.93-4.04-10.62c0-4.72,1.3-8.27,3.9-10.64c2.6-2.37,6.31-3.56,11.14-3.56
			c2.19,0,4.13,0.21,5.84,0.64s3.13,1.03,4.28,1.8c0.32,0.24,0.48,0.51,0.48,0.8c0,0.24-0.12,0.57-0.36,1l-2,3.44
			c-0.21,0.37-0.47,0.56-0.76,0.56c-0.19,0-0.49-0.11-0.92-0.32c-0.75-0.37-1.53-0.67-2.34-0.88c-0.81-0.21-1.77-0.32-2.86-0.32
			c-2.21,0-3.91,0.64-5.08,1.92c-1.17,1.28-1.76,3.13-1.76,5.56c0,2.4,0.64,4.25,1.92,5.54c1.28,1.29,3.03,1.94,5.24,1.94
			c1.92,0,3.68-0.4,5.28-1.2c0.43-0.21,0.73-0.32,0.92-0.32c0.29,0,0.55,0.19,0.76,0.56l2,3.44c0.24,0.43,0.36,0.76,0.36,1
			c0,0.29-0.16,0.56-0.48,0.8c-1.15,0.77-2.59,1.37-4.32,1.8c-1.73,0.43-3.69,0.64-5.88,0.64
			C251.18,393.55,247.41,392.36,244.71,389.97z"/>
		<path d="M269.25,392.39c-0.36-0.37-0.54-0.95-0.54-1.72v-22.64c0-0.77,0.18-1.35,0.54-1.72s0.98-0.56,1.86-0.56h4.76
			c0.91,0,1.54,0.18,1.9,0.54c0.36,0.36,0.54,0.94,0.54,1.74v22.64c0,0.77-0.18,1.35-0.54,1.72c-0.36,0.37-0.99,0.56-1.9,0.56h-4.76
			C270.23,392.95,269.61,392.77,269.25,392.39z"/>
		<path d="M283.99,389.85c-2.45-2.47-3.68-5.97-3.68-10.5s1.23-8.03,3.68-10.5c2.45-2.47,6.05-3.7,10.8-3.7
			c4.75,0,8.35,1.23,10.8,3.7c2.45,2.47,3.68,5.97,3.68,10.5s-1.23,8.03-3.68,10.5c-2.45,2.47-6.05,3.7-10.8,3.7
			C290.05,393.55,286.45,392.32,283.99,389.85z M298.55,384.97c0.77-1.24,1.16-3.11,1.16-5.62c0-2.53-0.39-4.41-1.16-5.64
			c-0.77-1.23-2.03-1.84-3.76-1.84c-1.73,0-2.99,0.61-3.76,1.84c-0.77,1.23-1.16,3.11-1.16,5.64c0,2.51,0.39,4.38,1.16,5.62
			c0.77,1.24,2.03,1.86,3.76,1.86C296.53,386.83,297.78,386.21,298.55,384.97z M290.55,362.39c0-0.21,0.04-0.44,0.12-0.68l1.68-4.64
			c0.21-0.61,0.47-1.03,0.76-1.24c0.29-0.21,0.84-0.32,1.64-0.32h5.72c0.56,0,1,0.1,1.32,0.3c0.32,0.2,0.48,0.49,0.48,0.86
			c0,0.32-0.11,0.65-0.32,1l-2.56,4.32c-0.37,0.64-0.73,1.05-1.08,1.24s-0.97,0.28-1.88,0.28h-4.28
			C291.09,363.51,290.55,363.14,290.55,362.39z"/>
		<path d="M311.81,392.39c-0.36-0.37-0.54-0.95-0.54-1.72v-22.68c0-0.77,0.18-1.34,0.54-1.7c0.36-0.36,0.99-0.54,1.9-0.54h3.8
			c0.56,0,0.99,0.07,1.3,0.22s0.61,0.43,0.9,0.86l7.24,10.76v-9.56c0-0.77,0.18-1.35,0.54-1.72s0.98-0.56,1.86-0.56h4.76
			c0.91,0,1.54,0.18,1.9,0.54c0.36,0.36,0.54,0.94,0.54,1.74v22.68c0,0.77-0.18,1.34-0.54,1.7c-0.36,0.36-0.99,0.54-1.9,0.54h-3.8
			c-0.56,0-0.99-0.07-1.3-0.22c-0.31-0.15-0.61-0.43-0.9-0.86l-7.24-10.76v9.6c0,0.77-0.18,1.34-0.54,1.7s-0.99,0.54-1.9,0.54h-4.76
			C312.79,392.95,312.17,392.77,311.81,392.39z"/>
		<path d="M52.88,440.39c-0.36-0.37-0.54-0.95-0.54-1.72v-22.64c0-0.77,0.18-1.35,0.54-1.72c0.36-0.37,0.98-0.56,1.86-0.56h9.2
			c9.41,0,14.12,4.53,14.12,13.6c0,4.48-1.21,7.87-3.62,10.16c-2.41,2.29-5.91,3.44-10.5,3.44h-9.2
			C53.85,440.95,53.23,440.77,52.88,440.39z M64.29,434.15c1.49,0,2.57-0.49,3.22-1.48c0.65-0.99,0.98-2.76,0.98-5.32
			c0-2.56-0.33-4.33-0.98-5.32s-1.73-1.48-3.22-1.48h-2.36v13.6H64.29z"/>
		<path d="M80.59,440.39c-0.36-0.37-0.54-0.95-0.54-1.72v-22.64c0-0.77,0.18-1.35,0.54-1.72c0.36-0.37,0.98-0.56,1.86-0.56h16.56
			c0.85,0,1.43,0.18,1.74,0.54c0.31,0.36,0.46,0.94,0.46,1.74v2.24c0,0.8-0.15,1.38-0.46,1.74c-0.31,0.36-0.89,0.54-1.74,0.54h-9.36
			v3.44h5.76c0.85,0,1.43,0.18,1.74,0.54s0.46,0.94,0.46,1.74v2.16c0,0.8-0.15,1.38-0.46,1.74c-0.31,0.36-0.89,0.54-1.74,0.54h-5.76
			v3.44h9.32c0.85,0,1.43,0.18,1.74,0.54c0.31,0.36,0.46,0.94,0.46,1.74v2.24c0,0.8-0.15,1.38-0.46,1.74
			c-0.31,0.36-0.89,0.54-1.74,0.54H82.45C81.57,440.95,80.95,440.77,80.59,440.39z"/>
		<path d="M115.55,440.39c-0.36-0.37-0.54-0.95-0.54-1.72v-22.64c0-0.77,0.18-1.35,0.54-1.72c0.36-0.37,0.98-0.56,1.86-0.56h9.56
			c4,0,6.91,0.79,8.74,2.38c1.83,1.59,2.74,3.98,2.74,7.18c0,3.2-0.91,5.59-2.74,7.16c-1.83,1.57-4.73,2.36-8.7,2.36h-2.4v5.84
			c0,0.77-0.18,1.35-0.54,1.72c-0.36,0.37-0.99,0.56-1.9,0.56h-4.76C116.53,440.95,115.91,440.77,115.55,440.39z M126.13,426.03
			c0.85,0,1.53-0.23,2.02-0.68s0.74-1.13,0.74-2.04c0-0.93-0.25-1.63-0.74-2.08s-1.17-0.68-2.02-0.68h-2.72v5.48H126.13z"/>
		<path d="M140.19,440.39c-0.36-0.37-0.54-0.95-0.54-1.72v-22.64c0-0.77,0.18-1.35,0.54-1.72s0.98-0.56,1.86-0.56h9.56
			c4,0,6.91,0.79,8.74,2.38c1.83,1.59,2.74,3.98,2.74,7.18c0,1.92-0.33,3.54-0.98,4.86c-0.65,1.32-1.66,2.35-3.02,3.1l3.72,7.96
			c0.11,0.21,0.16,0.45,0.16,0.72c0,0.29-0.1,0.53-0.3,0.72c-0.2,0.19-0.46,0.28-0.78,0.28h-6.76c-0.43,0-0.77-0.06-1.02-0.18
			s-0.43-0.33-0.54-0.62l-2.96-7.44h-1.36v5.96c0,0.77-0.18,1.35-0.54,1.72c-0.36,0.37-0.99,0.56-1.9,0.56h-4.76
			C141.17,440.95,140.55,440.77,140.19,440.39z M150.77,426.03c0.85,0,1.53-0.23,2.02-0.68c0.49-0.45,0.74-1.13,0.74-2.04
			c0-0.93-0.25-1.63-0.74-2.08c-0.49-0.45-1.17-0.68-2.02-0.68h-2.72v5.48H150.77z"/>
		<path d="M167.97,437.85c-2.45-2.47-3.68-5.97-3.68-10.5s1.23-8.03,3.68-10.5s6.05-3.7,10.8-3.7c4.75,0,8.35,1.23,10.8,3.7
			s3.68,5.97,3.68,10.5s-1.23,8.03-3.68,10.5s-6.05,3.7-10.8,3.7C174.03,441.55,170.43,440.32,167.97,437.85z M182.53,432.97
			c0.77-1.24,1.16-3.11,1.16-5.62c0-2.53-0.39-4.41-1.16-5.64c-0.77-1.23-2.03-1.84-3.76-1.84c-1.73,0-2.99,0.61-3.76,1.84
			c-0.77,1.23-1.16,3.11-1.16,5.64c0,2.51,0.39,4.38,1.16,5.62c0.77,1.24,2.03,1.86,3.76,1.86
			C180.51,434.83,181.76,434.21,182.53,432.97z"/>
		<path d="M195.79,440.39c-0.36-0.37-0.54-0.95-0.54-1.72v-22.64c0-0.77,0.18-1.35,0.54-1.72c0.36-0.37,0.98-0.56,1.86-0.56h9.2
			c9.41,0,14.12,4.53,14.12,13.6c0,4.48-1.21,7.87-3.62,10.16c-2.41,2.29-5.91,3.44-10.5,3.44h-9.2
			C196.77,440.95,196.15,440.77,195.79,440.39z M207.21,434.15c1.49,0,2.57-0.49,3.22-1.48c0.65-0.99,0.98-2.76,0.98-5.32
			c0-2.56-0.33-4.33-0.98-5.32s-1.73-1.48-3.22-1.48h-2.36v13.6H207.21z"/>
		<path d="M229.01,440.29c-1.97-0.84-3.51-2.05-4.6-3.64s-1.64-3.47-1.64-5.66v-14.96c0-0.77,0.18-1.35,0.54-1.72
			c0.36-0.37,0.98-0.56,1.86-0.56h4.76c0.91,0,1.54,0.18,1.9,0.54c0.36,0.36,0.54,0.94,0.54,1.74v15.08c0,1.25,0.31,2.19,0.94,2.8
			c0.63,0.61,1.49,0.92,2.58,0.92c1.09,0,1.95-0.31,2.58-0.92c0.63-0.61,0.94-1.55,0.94-2.8v-15.08c0-0.77,0.18-1.35,0.54-1.72
			s0.98-0.56,1.86-0.56h4.76c0.91,0,1.54,0.18,1.9,0.54c0.36,0.36,0.54,0.94,0.54,1.74v14.96c0,2.19-0.55,4.07-1.64,5.66
			c-1.09,1.59-2.63,2.8-4.6,3.64s-4.27,1.26-6.88,1.26C233.28,441.55,230.99,441.13,229.01,440.29z"/>
		<path d="M254.85,437.97c-2.69-2.39-4.04-5.93-4.04-10.62c0-4.72,1.3-8.27,3.9-10.64c2.6-2.37,6.31-3.56,11.14-3.56
			c2.19,0,4.13,0.21,5.84,0.64c1.71,0.43,3.13,1.03,4.28,1.8c0.32,0.24,0.48,0.51,0.48,0.8c0,0.24-0.12,0.57-0.36,1l-2,3.44
			c-0.21,0.37-0.47,0.56-0.76,0.56c-0.19,0-0.49-0.11-0.92-0.32c-0.75-0.37-1.53-0.67-2.34-0.88c-0.81-0.21-1.77-0.32-2.86-0.32
			c-2.21,0-3.91,0.64-5.08,1.92c-1.17,1.28-1.76,3.13-1.76,5.56c0,2.4,0.64,4.25,1.92,5.54c1.28,1.29,3.03,1.94,5.24,1.94
			c1.92,0,3.68-0.4,5.28-1.2c0.43-0.21,0.73-0.32,0.92-0.32c0.29,0,0.55,0.19,0.76,0.56l2,3.44c0.24,0.43,0.36,0.76,0.36,1
			c0,0.29-0.16,0.56-0.48,0.8c-1.15,0.77-2.59,1.37-4.32,1.8c-1.73,0.43-3.69,0.64-5.88,0.64
			C261.32,441.55,257.54,440.36,254.85,437.97z"/>
		<path d="M284.75,440.39c-0.36-0.37-0.54-0.95-0.54-1.72v-18.12h-5.76c-0.85,0-1.43-0.18-1.74-0.54c-0.31-0.36-0.46-0.94-0.46-1.74
			v-2.24c0-0.8,0.15-1.38,0.46-1.74c0.31-0.36,0.89-0.54,1.74-0.54h21.12c0.85,0,1.43,0.18,1.74,0.54c0.31,0.36,0.46,0.94,0.46,1.74
			v2.24c0,0.8-0.15,1.38-0.46,1.74c-0.31,0.36-0.89,0.54-1.74,0.54h-5.76v18.12c0,0.77-0.18,1.35-0.54,1.72
			c-0.36,0.37-0.99,0.56-1.9,0.56h-4.76C285.73,440.95,285.11,440.77,284.75,440.39z"/>
		<path d="M304.05,437.85c-2.45-2.47-3.68-5.97-3.68-10.5s1.23-8.03,3.68-10.5c2.45-2.47,6.05-3.7,10.8-3.7s8.35,1.23,10.8,3.7
			c2.45,2.47,3.68,5.97,3.68,10.5s-1.23,8.03-3.68,10.5c-2.45,2.47-6.05,3.7-10.8,3.7S306.5,440.32,304.05,437.85z M318.61,432.97
			c0.77-1.24,1.16-3.11,1.16-5.62c0-2.53-0.39-4.41-1.16-5.64c-0.77-1.23-2.03-1.84-3.76-1.84s-2.99,0.61-3.76,1.84
			c-0.77,1.23-1.16,3.11-1.16,5.64c0,2.51,0.39,4.38,1.16,5.62c0.77,1.24,2.03,1.86,3.76,1.86S317.84,434.21,318.61,432.97z"/>
		<path d="M334.61,440.79c-2.08-0.51-3.76-1.21-5.04-2.12c-0.53-0.37-0.8-0.73-0.8-1.08c0-0.24,0.09-0.49,0.28-0.76l2.32-3.64
			c0.24-0.35,0.48-0.52,0.72-0.52c0.21,0,0.47,0.09,0.76,0.28c0.96,0.59,2.06,1.05,3.3,1.38c1.24,0.33,2.45,0.5,3.62,0.5
			c0.99,0,1.7-0.13,2.14-0.4c0.44-0.27,0.66-0.68,0.66-1.24c0-0.61-0.29-1.11-0.88-1.48c-0.59-0.37-1.6-0.84-3.04-1.4
			c-2.69-1.04-4.81-2.22-6.36-3.54c-1.55-1.32-2.32-3.07-2.32-5.26c0-2.77,0.97-4.86,2.9-6.26c1.93-1.4,4.54-2.1,7.82-2.1
			c2.29,0,4.25,0.2,5.86,0.6c1.61,0.4,3.02,1.03,4.22,1.88c0.53,0.37,0.8,0.73,0.8,1.08c0,0.24-0.09,0.49-0.28,0.76l-2.32,3.64
			c-0.24,0.37-0.48,0.56-0.72,0.56c-0.16,0-0.41-0.11-0.76-0.32c-0.64-0.43-1.4-0.78-2.28-1.06s-1.83-0.42-2.84-0.42
			c-0.93,0-1.64,0.13-2.12,0.4s-0.72,0.69-0.72,1.28c0,0.48,0.17,0.88,0.5,1.2c0.33,0.32,0.75,0.59,1.26,0.82
			c0.51,0.23,1.39,0.59,2.64,1.1c2,0.8,3.57,1.57,4.72,2.3c1.15,0.73,2.01,1.61,2.6,2.64c0.59,1.03,0.88,2.33,0.88,3.9
			c0,2.4-0.9,4.34-2.7,5.82c-1.8,1.48-4.49,2.22-8.06,2.22C338.95,441.55,336.69,441.3,334.61,440.79z"/>
		<path d="M89.23,488.39c-0.36-0.37-0.54-0.95-0.54-1.72v-7.24l-9.32-15.96c-0.16-0.29-0.24-0.57-0.24-0.84
			c0-0.59,0.31-0.88,0.92-0.88h7.52c0.4,0,0.71,0.09,0.92,0.26c0.21,0.17,0.43,0.45,0.64,0.82l4.36,7.84l4.36-7.84
			c0.21-0.37,0.43-0.65,0.64-0.82c0.21-0.17,0.52-0.26,0.92-0.26h7.52c0.61,0,0.92,0.29,0.92,0.88c0,0.27-0.08,0.55-0.24,0.84
			l-9.32,15.96v7.24c0,0.77-0.18,1.35-0.54,1.72c-0.36,0.37-0.99,0.56-1.9,0.56h-4.76C90.21,488.95,89.59,488.77,89.23,488.39z"/>
		<path d="M126.97,488.79c-2.08-0.51-3.76-1.21-5.04-2.12c-0.53-0.37-0.8-0.73-0.8-1.08c0-0.24,0.09-0.49,0.28-0.76l2.32-3.64
			c0.24-0.35,0.48-0.52,0.72-0.52c0.21,0,0.47,0.09,0.76,0.28c0.96,0.59,2.06,1.05,3.3,1.38c1.24,0.33,2.45,0.5,3.62,0.5
			c0.99,0,1.7-0.13,2.14-0.4c0.44-0.27,0.66-0.68,0.66-1.24c0-0.61-0.29-1.11-0.88-1.48c-0.59-0.37-1.6-0.84-3.04-1.4
			c-2.69-1.04-4.81-2.22-6.36-3.54c-1.55-1.32-2.32-3.07-2.32-5.26c0-2.77,0.97-4.86,2.9-6.26c1.93-1.4,4.54-2.1,7.82-2.1
			c2.29,0,4.25,0.2,5.86,0.6c1.61,0.4,3.02,1.03,4.22,1.88c0.53,0.37,0.8,0.73,0.8,1.08c0,0.24-0.09,0.49-0.28,0.76l-2.32,3.64
			c-0.24,0.37-0.48,0.56-0.72,0.56c-0.16,0-0.41-0.11-0.76-0.32c-0.64-0.43-1.4-0.78-2.28-1.06c-0.88-0.28-1.83-0.42-2.84-0.42
			c-0.93,0-1.64,0.13-2.12,0.4c-0.48,0.27-0.72,0.69-0.72,1.28c0,0.48,0.17,0.88,0.5,1.2c0.33,0.32,0.75,0.59,1.26,0.82
			c0.51,0.23,1.39,0.59,2.64,1.1c2,0.8,3.57,1.57,4.72,2.3c1.15,0.73,2.01,1.61,2.6,2.64s0.88,2.33,0.88,3.9
			c0,2.4-0.9,4.34-2.7,5.82c-1.8,1.48-4.49,2.22-8.06,2.22C131.31,489.55,129.05,489.3,126.97,488.79z"/>
		<path d="M147.03,488.39c-0.36-0.37-0.54-0.95-0.54-1.72v-22.64c0-0.77,0.18-1.35,0.54-1.72s0.98-0.56,1.86-0.56h16.56
			c0.85,0,1.43,0.18,1.74,0.54c0.31,0.36,0.46,0.94,0.46,1.74v2.24c0,0.8-0.15,1.38-0.46,1.74c-0.31,0.36-0.89,0.54-1.74,0.54h-9.36
			v3.44h5.76c0.85,0,1.43,0.18,1.74,0.54c0.31,0.36,0.46,0.94,0.46,1.74v2.16c0,0.8-0.15,1.38-0.46,1.74
			c-0.31,0.36-0.89,0.54-1.74,0.54h-5.76v3.44h9.32c0.85,0,1.43,0.18,1.74,0.54c0.31,0.36,0.46,0.94,0.46,1.74v2.24
			c0,0.8-0.15,1.38-0.46,1.74c-0.31,0.36-0.89,0.54-1.74,0.54h-16.52C148.01,488.95,147.39,488.77,147.03,488.39z"/>
		<path d="M169.99,488.39c-0.36-0.37-0.54-0.95-0.54-1.72v-22.64c0-0.77,0.18-1.35,0.54-1.72c0.36-0.37,0.98-0.56,1.86-0.56h9.56
			c4,0,6.91,0.79,8.74,2.38c1.83,1.59,2.74,3.98,2.74,7.18c0,1.92-0.33,3.54-0.98,4.86c-0.65,1.32-1.66,2.35-3.02,3.1l3.72,7.96
			c0.11,0.21,0.16,0.45,0.16,0.72c0,0.29-0.1,0.53-0.3,0.72c-0.2,0.19-0.46,0.28-0.78,0.28h-6.76c-0.43,0-0.77-0.06-1.02-0.18
			c-0.25-0.12-0.43-0.33-0.54-0.62l-2.96-7.44h-1.36v5.96c0,0.77-0.18,1.35-0.54,1.72c-0.36,0.37-0.99,0.56-1.9,0.56h-4.76
			C170.97,488.95,170.35,488.77,169.99,488.39z M180.57,474.03c0.85,0,1.53-0.23,2.02-0.68s0.74-1.13,0.74-2.04
			c0-0.93-0.25-1.63-0.74-2.08s-1.17-0.68-2.02-0.68h-2.72v5.48H180.57z"/>
		<path d="M202.03,488.61c-0.31-0.23-0.57-0.62-0.78-1.18l-9.56-23.96c-0.13-0.35-0.2-0.64-0.2-0.88c0-0.56,0.29-0.84,0.88-0.84
			h7.52c0.83,0,1.35,0.36,1.56,1.08l4.08,13.04l4.08-13.04c0.21-0.72,0.73-1.08,1.56-1.08h7.52c0.59,0,0.88,0.28,0.88,0.84
			c0,0.24-0.07,0.53-0.2,0.88l-9.52,23.96c-0.21,0.56-0.47,0.95-0.78,1.18s-0.75,0.34-1.34,0.34h-4.36
			C202.79,488.95,202.34,488.84,202.03,488.61z"/>
		<path d="M222.11,488.39c-0.36-0.37-0.54-0.95-0.54-1.72v-22.64c0-0.77,0.18-1.35,0.54-1.72c0.36-0.37,0.98-0.56,1.86-0.56h4.76
			c0.91,0,1.54,0.18,1.9,0.54c0.36,0.36,0.54,0.94,0.54,1.74v22.64c0,0.77-0.18,1.35-0.54,1.72c-0.36,0.37-0.99,0.56-1.9,0.56h-4.76
			C223.09,488.95,222.47,488.77,222.11,488.39z"/>
		<path d="M237.21,485.97c-2.69-2.39-4.04-5.93-4.04-10.62c0-4.72,1.3-8.27,3.9-10.64c2.6-2.37,6.31-3.56,11.14-3.56
			c2.19,0,4.13,0.21,5.84,0.64c1.71,0.43,3.13,1.03,4.28,1.8c0.32,0.24,0.48,0.51,0.48,0.8c0,0.24-0.12,0.57-0.36,1l-2,3.44
			c-0.21,0.37-0.47,0.56-0.76,0.56c-0.19,0-0.49-0.11-0.92-0.32c-0.75-0.37-1.53-0.67-2.34-0.88c-0.81-0.21-1.77-0.32-2.86-0.32
			c-2.21,0-3.91,0.64-5.08,1.92s-1.76,3.13-1.76,5.56c0,2.4,0.64,4.25,1.92,5.54c1.28,1.29,3.03,1.94,5.24,1.94
			c1.92,0,3.68-0.4,5.28-1.2c0.43-0.21,0.73-0.32,0.92-0.32c0.29,0,0.55,0.19,0.76,0.56l2,3.44c0.24,0.43,0.36,0.76,0.36,1
			c0,0.29-0.16,0.56-0.48,0.8c-1.15,0.77-2.59,1.37-4.32,1.8c-1.73,0.43-3.69,0.64-5.88,0.64
			C243.68,489.55,239.91,488.36,237.21,485.97z"/>
		<path d="M261.75,488.39c-0.36-0.37-0.54-0.95-0.54-1.72v-22.64c0-0.77,0.18-1.35,0.54-1.72c0.36-0.37,0.98-0.56,1.86-0.56h4.76
			c0.91,0,1.54,0.18,1.9,0.54c0.36,0.36,0.54,0.94,0.54,1.74v22.64c0,0.77-0.18,1.35-0.54,1.72c-0.36,0.37-0.99,0.56-1.9,0.56h-4.76
			C262.73,488.95,262.11,488.77,261.75,488.39z"/>
		<path d="M276.49,485.85c-2.45-2.47-3.68-5.97-3.68-10.5s1.23-8.03,3.68-10.5s6.05-3.7,10.8-3.7c4.75,0,8.35,1.23,10.8,3.7
			s3.68,5.97,3.68,10.5s-1.23,8.03-3.68,10.5s-6.05,3.7-10.8,3.7C282.54,489.55,278.95,488.32,276.49,485.85z M291.05,480.97
			c0.77-1.24,1.16-3.11,1.16-5.62c0-2.53-0.39-4.41-1.16-5.64c-0.77-1.23-2.03-1.84-3.76-1.84c-1.73,0-2.99,0.61-3.76,1.84
			c-0.77,1.23-1.16,3.11-1.16,5.64c0,2.51,0.39,4.38,1.16,5.62c0.77,1.24,2.03,1.86,3.76,1.86
			C289.03,482.83,290.28,482.21,291.05,480.97z"/>
		<path d="M307.05,488.79c-2.08-0.51-3.76-1.21-5.04-2.12c-0.53-0.37-0.8-0.73-0.8-1.08c0-0.24,0.09-0.49,0.28-0.76l2.32-3.64
			c0.24-0.35,0.48-0.52,0.72-0.52c0.21,0,0.47,0.09,0.76,0.28c0.96,0.59,2.06,1.05,3.3,1.38c1.24,0.33,2.45,0.5,3.62,0.5
			c0.99,0,1.7-0.13,2.14-0.4c0.44-0.27,0.66-0.68,0.66-1.24c0-0.61-0.29-1.11-0.88-1.48c-0.59-0.37-1.6-0.84-3.04-1.4
			c-2.69-1.04-4.81-2.22-6.36-3.54c-1.55-1.32-2.32-3.07-2.32-5.26c0-2.77,0.97-4.86,2.9-6.26c1.93-1.4,4.54-2.1,7.82-2.1
			c2.29,0,4.25,0.2,5.86,0.6c1.61,0.4,3.02,1.03,4.22,1.88c0.53,0.37,0.8,0.73,0.8,1.08c0,0.24-0.09,0.49-0.28,0.76l-2.32,3.64
			c-0.24,0.37-0.48,0.56-0.72,0.56c-0.16,0-0.41-0.11-0.76-0.32c-0.64-0.43-1.4-0.78-2.28-1.06s-1.83-0.42-2.84-0.42
			c-0.93,0-1.64,0.13-2.12,0.4s-0.72,0.69-0.72,1.28c0,0.48,0.17,0.88,0.5,1.2c0.33,0.32,0.75,0.59,1.26,0.82
			c0.51,0.23,1.39,0.59,2.64,1.1c2,0.8,3.57,1.57,4.72,2.3c1.15,0.73,2.01,1.61,2.6,2.64c0.59,1.03,0.88,2.33,0.88,3.9
			c0,2.4-0.9,4.34-2.7,5.82c-1.8,1.48-4.49,2.22-8.06,2.22C311.38,489.55,309.13,489.3,307.05,488.79z"/>
	</g>
	<polygon class="st1" points="200.76,96.93 214.23,124.22 244.34,128.59 222.55,149.83 227.7,179.83 200.76,165.67 173.83,179.83 
		178.97,149.83 157.18,128.59 187.29,124.22 	"/>
	<polygon class="st1" points="138.58,180.15 147.32,197.86 166.86,200.7 152.72,214.48 156.06,233.94 138.58,224.75 121.11,233.94 
		124.45,214.48 110.31,200.7 129.85,197.86 	"/>
	<polygon class="st1" points="268.68,180.15 277.42,197.86 296.95,200.7 282.82,214.48 286.15,233.94 268.68,224.75 251.2,233.94 
		254.54,214.48 240.4,200.7 259.94,197.86 	"/>
	<circle class="st2" cx="201.77" cy="213.97" r="121.96"/>
	<circle class="st3" cx="200.82" cy="200.58" r="121.96"/>
	<g>
		<path class="st3" d="M184.17,644.07c-3.43-0.78-6.17-1.87-8.21-3.29c-0.58-0.44-0.88-0.92-0.88-1.46c0-0.44,0.22-1.05,0.66-1.82
			l3.65-6.28c0.39-0.68,0.85-1.02,1.39-1.02c0.34,0,0.9,0.2,1.68,0.58c1.27,0.63,2.81,1.16,4.64,1.57c1.82,0.41,3.64,0.62,5.44,0.62
			c2.43,0,4.25-0.37,5.44-1.09c1.19-0.73,1.79-1.85,1.79-3.36c0-2.34-1.58-3.5-4.75-3.5h-5.62c-1.61,0-2.74-0.34-3.39-1.02
			c-0.66-0.68-0.99-1.73-0.99-3.14v-3.94c0-1.41,0.33-2.46,0.99-3.14c0.66-0.68,1.79-1.02,3.39-1.02h4.45c1.61,0,2.77-0.29,3.5-0.88
			s1.1-1.48,1.1-2.7c0-2.34-2.02-3.5-6.06-3.5c-3.26,0-6.35,0.73-9.27,2.19c-0.78,0.39-1.34,0.58-1.68,0.58
			c-0.54,0-1-0.34-1.39-1.02l-3.65-6.28c-0.44-0.78-0.66-1.39-0.66-1.83c0-0.54,0.29-1.02,0.88-1.46c2.09-1.41,4.7-2.51,7.81-3.29
			c3.11-0.78,6.67-1.17,10.66-1.17c4.23,0,7.92,0.62,11.06,1.86c3.14,1.24,5.55,3,7.23,5.29c1.68,2.29,2.52,4.99,2.52,8.1
			c0,4.28-1.49,7.59-4.45,9.93c3.84,2.24,5.77,5.79,5.77,10.66c0,4.92-1.87,8.81-5.62,11.68c-3.75,2.87-9.15,4.31-16.21,4.31
			C191.34,645.24,187.6,644.85,184.17,644.07z"/>
	</g>
	<g>
		<g>
			<path class="st146" d="M249.43,214.68c-0.19,0.36-0.38,0.76-0.57,1.19c-1.54,3.25-3.95,8.24-4.55,12.28
				c-2.26,1.79-4.47,3.35-6.44,5.02c-1.81,1.39-4.57,2.97-6.66,4.68h-23.64c0.4-0.12,0.8-0.22,1.19-0.31
				c2.54-0.51,5.19-1.12,7.73-1.63c3.5-0.63,7.49-1.96,11.21-2.4c1.65-1.16,3.45-2.16,5.19-3.1c2.05-1.13,3.69-2.67,5.46-4.13
				c0.84-2.82,1.5-5.98,3.09-8.28C243.19,215.62,246.45,214.78,249.43,214.68z"/>
		</g>
		<g class="st147">
			<g>
				<path class="st148" d="M249.43,214.68c-0.19,0.36-0.38,0.76-0.57,1.19c-1.54,3.25-3.95,8.24-4.55,12.28
					c-2.26,1.79-4.47,3.35-6.44,5.02c-1.81,1.39-4.57,2.97-6.66,4.68h-23.64c0.4-0.12,0.8-0.22,1.19-0.31
					c2.54-0.51,5.19-1.12,7.73-1.63c3.5-0.63,7.49-1.96,11.21-2.4c1.65-1.16,3.45-2.16,5.19-3.1c2.05-1.13,3.69-2.67,5.46-4.13
					c0.84-2.82,1.5-5.98,3.09-8.28C243.19,215.62,246.45,214.78,249.43,214.68z"/>
			</g>
		</g>
		<g>
			<path class="st149" d="M259,210.38c-0.32,4.64-1.12,8.86-1.59,12.62c-0.61,3.87-1.21,10.37-2.03,11.61
				c-1.31,1.97-8.35,9.16-12.42,13.63c-1.83,2.04-3.05,5.3-5.09,7.13c-2.65,2.64-6.72,2.23-10.17,2.84
				c-7.54,1.43-14.96,3.97-22.7,3.97c-6.72,0-15.37-1.12-22.09-2.95c-12.34-3.47-22.86-8.55-35.54-10.62V214.1
				c11.09-0.55,44.79,0.15,51.21,0.15c4.97,0,13.45,0.94,19.08,1.19c7.52,17.01-18.95,11.39-31.33,15.01
				c3.71,6.36,11.78,7.41,18.96,7.41h25.91c2.09-1.71,4.85-3.29,6.66-4.68c1.97-1.67,4.18-3.23,6.44-5.02
				c0.6-4.04,3.01-9.03,4.55-12.28c0.19-0.43,0.37-0.82,0.57-1.19C251.64,210.53,254.53,210.38,259,210.38z"/>
		</g>
		<g class="st150">
			<g>
				<path class="st151" d="M218.36,219.82l-5.78,1.15c-1.43,0-3.49,0.46-4.48-0.53c-0.61-0.63-0.88-2.06-1.16-2.78
					c-0.41-0.95-0.97-2.01-1.3-3.09c3.92,0.3,8.14,0.67,11.41,0.81C217.59,215.81,218.45,218.29,218.36,219.82z"/>
			</g>
		</g>
		<g>
			<rect x="138.51" y="210.29" class="st3" width="24.57" height="44.78"/>
		</g>
		<g>
			<polygon class="st28" points="126.91,258.93 158.49,258.93 158.49,258.84 158.49,255.06 158.49,232.6 158.49,210.29 
				158.49,206.42 126.91,206.42 126.91,232.6 126.91,258.84 			"/>
		</g>
		<g class="st152">
			<rect x="126.91" y="232.6" class="st153" width="31.58" height="26.25"/>
		</g>
		<g>
			<path class="st154" d="M147.89,247.85c0,2.87-2.33,5.19-5.19,5.19c-2.87,0-5.19-2.32-5.19-5.19c0-2.87,2.32-5.19,5.19-5.19
				C145.56,242.66,147.89,244.98,147.89,247.85z"/>
		</g>
		<circle class="st155" cx="218.52" cy="170.94" r="39.94"/>
		<g>
			<path class="st3" d="M211.73,160.93c-0.8-0.8-1.2-1.77-1.2-2.9v-1.47c0-1.13,0.4-2.1,1.2-2.9c0.8-0.8,1.96-1.2,3.49-1.2h5.1
				c1.53,0,2.7,0.4,3.52,1.2c0.82,0.8,1.23,1.77,1.23,2.9v1.47c0,1.13-0.41,2.1-1.23,2.9c-0.82,0.8-2,1.2-3.52,1.2h-5.1
				C213.7,162.13,212.53,161.73,211.73,160.93z M211.55,191.53c-0.53-0.55-0.79-1.39-0.79-2.52v-21.47c0-1.13,0.26-1.97,0.79-2.52
				c0.53-0.55,1.44-0.82,2.73-0.82h6.98c1.33,0,2.26,0.26,2.79,0.79s0.79,1.38,0.79,2.55v21.47c0,1.13-0.26,1.98-0.79,2.52
				s-1.46,0.82-2.79,0.82h-6.98C212.99,192.35,212.08,192.08,211.55,191.53z"/>
		</g>
	</g>
</g>
</svg>
