<?xml version="1.0" encoding="utf-8"?>
<!-- Generator: Adobe Illustrator 23.0.0, SVG Export Plug-In . SVG Version: 6.00 Build 0)  -->
<svg version="1.1" id="Capa_1" xmlns="http://www.w3.org/2000/svg" xmlns:xlink="http://www.w3.org/1999/xlink" x="0px" y="0px"
	 viewBox="0 0 400 702" style="enable-background:new 0 0 400 702;" xml:space="preserve">
<style type="text/css">
	.st0{fill:#0085B0;}
	.st1{fill:#E0EF18;}
	.st2{fill:#CECECE;}
	.st3{fill:#FFFFFF;}
	.st4{fill:#F2F2F2;}
	.st5{fill:#EACCB0;}
	.st6{fill:#9B9B9B;}
	.st7{fill:#939393;}
	.st8{fill:#EFEFEF;}
	.st9{fill:#828282;}
	.st10{fill:#2C2A2D;}
	.st11{fill:#202021;}
	.st12{fill:#F2D4B6;}
	.st13{fill:#534D46;}
	.st14{fill:#E8D313;}
	.st15{fill:#2ACCFF;}
	.st16{fill:#4E4F4F;}
	.st17{fill:#003A94;}
	.st18{fill:#00D13C;}
	.st19{fill:#15682A;}
	.st20{fill:#D40000;}
	.st21{fill:#505050;}
	.st22{fill:#DFDFDF;}
	.st23{fill:none;}
	.st24{fill:#636363;}
	.st25{fill:#6C92D5;}
	.st26{fill:#22272F;}
	.st27{fill:#1B2538;}
	.st28{fill:#253452;}
	.st29{fill:#F9F9F9;}
	.st30{fill:#2D3543;}
	.st31{fill:#2A3D60;}
	.st32{fill:#587955;}
	.st33{fill:#CD7054;}
	.st34{fill:#F1CC4B;}
	.st35{fill:#ACACAC;}
	.st36{fill:#AAE528;}
	.st37{fill:#28CEBA;}
	.st38{fill:#DB143F;}
	.st39{fill:#53C2C9;}
	.st40{fill:#FFB412;}
	.st41{fill:#866A5E;}
	.st42{fill:#F7DDCB;}
	.st43{fill:#FFE6D4;}
	.st44{fill:#F5F5F5;}
	.st45{fill:#1A2830;}
	.st46{fill:#24353F;}
	.st47{fill:#132026;}
	.st48{fill:#F9FF03;}
	.st49{fill:#272728;}
	.st50{fill:#1E1D1E;}
	.st51{fill:#160423;}
	.st52{fill-rule:evenodd;clip-rule:evenodd;fill:#FFFFFF;}
	.st53{fill-rule:evenodd;clip-rule:evenodd;fill:#1996B8;}
	.st54{fill:#0C387D;}
	.st55{fill:#C69A81;}
	.st56{fill:#D1A385;}
	.st57{fill:#EAEAEA;}
	.st58{fill:#093E8C;}
	.st59{fill:#0B2A62;}
	.st60{fill:#D32A3B;}
	.st61{fill:#827C7D;}
	.st62{opacity:0.7;fill:#7F7F7F;}
	.st63{fill:#FDFDFD;}
	.st64{fill:#DAA449;}
	.st65{fill:#DD9225;}
	.st66{opacity:0.3;}
	.st67{fill:#425793;}
	.st68{opacity:0.8;}
	.st69{filter:url(#Adobe_OpacityMaskFilter);}
	.st70{opacity:0.15;mask:url(#SVGID_1_);}
	.st71{fill:#090B00;}
	.st72{opacity:0.1;}
	.st73{fill:#211915;}
	.st74{filter:url(#Adobe_OpacityMaskFilter_1_);}
	.st75{opacity:0.15;mask:url(#SVGID_2_);}
	.st76{fill:#AF3623;}
	.st77{filter:url(#Adobe_OpacityMaskFilter_2_);}
	.st78{opacity:0.15;mask:url(#SVGID_3_);}
	.st79{filter:url(#Adobe_OpacityMaskFilter_3_);}
	.st80{opacity:0.15;mask:url(#SVGID_4_);}
	.st81{fill:#456495;}
	.st82{filter:url(#Adobe_OpacityMaskFilter_4_);}
	.st83{opacity:0.15;mask:url(#SVGID_5_);}
	.st84{filter:url(#Adobe_OpacityMaskFilter_5_);}
	.st85{opacity:0.15;mask:url(#SVGID_6_);}
	.st86{fill:#76A9DA;}
	.st87{filter:url(#Adobe_OpacityMaskFilter_6_);}
	.st88{opacity:0.15;mask:url(#SVGID_7_);}
	.st89{filter:url(#Adobe_OpacityMaskFilter_7_);}
	.st90{opacity:0.15;mask:url(#SVGID_8_);}
	.st91{fill:#1F3642;}
	.st92{fill:#A9BDDA;}
	.st93{opacity:0.46;fill:#A6B4BC;}
	.st94{fill:#74C475;}
	.st95{fill:#221F21;}
	.st96{fill:#2D2D2D;}
	.st97{fill:#1C1B1A;}
	.st98{fill:#77181C;}
	.st99{fill:#262525;}
	.st100{fill:#11100F;}
	.st101{opacity:0.18;}
	.st102{opacity:0.38;}
	.st103{fill:#0A5B1F;}
	.st104{opacity:0.27;}
	.st105{opacity:0.48;}
	.st106{fill:#0A4654;}
	.st107{fill:#C2C6C6;}
	.st108{fill:#E5E5E5;stroke:#FFFFFF;stroke-miterlimit:10;}
	.st109{fill:#ACB4B5;}
	.st110{fill:#7F8384;}
	.st111{fill:#15772F;}
	.st112{fill:#F4F4F4;}
	.st113{fill:#53B8DB;}
	.st114{fill:#06EF42;}
	.st115{fill:#E7ED07;}
	.st116{fill:#CCCCCA;}
	.st117{fill:#EADF13;}
	.st118{fill:#C2C2C2;}
	.st119{fill:#85B681;}
	.st120{fill:#A1DC9B;}
	.st121{fill:#90C58B;}
	.st122{fill:#22241F;}
	.st123{opacity:0.5;}
	.st124{fill:#A2CADE;}
	.st125{fill:#E9E9E9;}
	.st126{fill:#D9D9D9;}
	.st127{fill:#CDCDCD;}
	.st128{opacity:0.34;fill:#F0F0F0;}
	.st129{fill:#5A5B5A;}
	.st130{fill:#FFE600;}
	.st131{fill:#DB1F59;}
	.st132{fill:#727272;}
	.st133{fill:#207235;}
	.st134{fill:#A3A3A3;}
	.st135{fill:#BCBCBC;}
	.st136{fill:#0A511C;}
	.st137{fill:#F9FF00;}
	.st138{fill:#D59F6D;}
	.st139{fill:#C0804A;}
	.st140{fill:#E6BA8A;}
	.st141{fill:#BE3ACC;}
	.st142{fill:#FFFFFF;stroke:#443F0C;stroke-width:9;stroke-miterlimit:10;}
	.st143{fill:none;stroke:#443F0C;stroke-width:9;stroke-miterlimit:10;}
	.st144{fill:#170623;}
	.st145{fill:#158231;}
	.st146{fill:#C89D76;}
	.st147{opacity:0.4;}
	.st148{fill:#ADADAD;}
	.st149{fill:#EDC3A6;}
	.st150{opacity:0.69;}
	.st151{fill:#E5D3D6;}
	.st152{opacity:0.44;}
	.st153{fill:#A5A5A5;}
	.st154{fill:#DDE5E4;}
	.st155{fill:#5C9169;}
	.st156{fill:#934215;}
	.st157{fill:#47413B;}
	.st158{fill:#601A1F;}
	.st159{fill:#044554;}
	.st160{opacity:0.7;}
	.st161{fill:#7F7F7F;}
	.st162{fill:#6B8A69;}
	.st163{opacity:0.24;fill:#848D90;}
	.st164{opacity:0.4;fill:#848D90;}
	.st165{fill:#F2D5D5;}
	.st166{fill:#485CC1;}
	.st167{fill:#C6CBE0;}
	.st168{fill:#8B909E;}
	.st169{fill:#53BC1B;}
	.st170{fill:#11565B;}
	.st171{fill:#67A06D;}
	.st172{fill:#FFEC00;}
	.st173{fill:#77A007;}
	.st174{fill:#E50731;}
	.st175{fill:#266472;}
	.st176{fill:#D4D4D4;}
	.st177{fill:#0E9932;}
	.st178{fill:#87DD24;}
	.st179{fill:#76A172;}
	.st180{fill:#62835F;}
	.st181{fill:#96D090;}
	.st182{fill:#D6D6D6;}
	.st183{fill:#606060;}
	.st184{fill:#494949;}
	.st185{fill:#29E55A;}
	.st186{fill:#2C703D;}
	.st187{fill:#DD0744;}
	.st188{fill:#EDEDED;}
	.st189{fill:#2A5936;}
	.st190{fill:#B9BBC1;}
	.st191{fill:#FFD79E;}
	.st192{fill:#FFE6C2;}
	.st193{fill:#2CBB55;}
	.st194{fill:#5C412D;}
	.st195{fill:#EC0000;}
	.st196{fill:#DD2626;}
	.st197{fill:#EA9334;}
	.st198{fill:#FCC232;}
	.st199{fill:#F9B234;}
	.st200{fill:#F7A037;}
	.st201{fill:#E0E0E0;}
</style>
<g>
	<g>
		<path class="st18" d="M9.5,209.36c0,22,13.29,27.86,29.54,13.03c0,0,156.99-143.3,353.09,26.97V55c0-22-18-40-40-40H49.5
			c-22,0-40,18-40,40V209.36z"/>
	</g>
	<g>
		<path class="st18" d="M391.66,647c0,22-18,40-40,40H49.98c-22,0-40-18-40-40v-46.27c0-22,18-40,40-40h301.68c22,0,40,18,40,40V647
			z"/>
	</g>
	<g>
		<path d="M98.07,394.78c-2.18-0.53-3.95-1.27-5.29-2.23c-0.56-0.39-0.84-0.77-0.84-1.13c0-0.25,0.1-0.52,0.29-0.8l2.44-3.82
			c0.25-0.36,0.5-0.55,0.76-0.55c0.22,0,0.49,0.1,0.8,0.29c1.01,0.62,2.16,1.1,3.46,1.45c1.3,0.35,2.57,0.53,3.8,0.53
			c1.04,0,1.78-0.14,2.25-0.42c0.46-0.28,0.69-0.71,0.69-1.3c0-0.64-0.31-1.16-0.92-1.55c-0.62-0.39-1.68-0.88-3.19-1.47
			c-2.83-1.09-5.05-2.33-6.68-3.72c-1.62-1.39-2.44-3.23-2.44-5.52c0-2.91,1.01-5.1,3.04-6.57c2.03-1.47,4.77-2.21,8.21-2.21
			c2.41,0,4.46,0.21,6.15,0.63c1.69,0.42,3.17,1.08,4.43,1.97c0.56,0.39,0.84,0.77,0.84,1.13c0,0.25-0.1,0.52-0.29,0.8l-2.44,3.82
			c-0.25,0.39-0.5,0.59-0.76,0.59c-0.17,0-0.43-0.11-0.8-0.34c-0.67-0.45-1.47-0.82-2.39-1.11c-0.92-0.29-1.92-0.44-2.98-0.44
			c-0.98,0-1.72,0.14-2.23,0.42c-0.5,0.28-0.76,0.73-0.76,1.34c0,0.5,0.17,0.92,0.52,1.26s0.79,0.62,1.32,0.86
			c0.53,0.24,1.46,0.62,2.77,1.16c2.1,0.84,3.75,1.64,4.96,2.42c1.2,0.77,2.11,1.69,2.73,2.77c0.62,1.08,0.92,2.44,0.92,4.1
			c0,2.52-0.95,4.56-2.83,6.11c-1.89,1.55-4.71,2.33-8.46,2.33C102.62,395.58,100.26,395.32,98.07,394.78z"/>
		<path d="M121.59,391.7c-2.58-2.59-3.86-6.26-3.86-11.03c0-4.76,1.29-8.43,3.86-11.03c2.58-2.59,6.36-3.88,11.34-3.88
			c4.98,0,8.76,1.3,11.34,3.88c2.58,2.59,3.86,6.27,3.86,11.03c0,4.76-1.29,8.44-3.86,11.03s-6.36,3.88-11.34,3.88
			C127.95,395.58,124.17,394.29,121.59,391.7z M136.88,386.57c0.81-1.3,1.22-3.27,1.22-5.9c0-2.66-0.41-4.63-1.22-5.92
			c-0.81-1.29-2.13-1.93-3.95-1.93c-1.82,0-3.14,0.64-3.95,1.93c-0.81,1.29-1.22,3.26-1.22,5.92c0,2.63,0.41,4.6,1.22,5.9
			s2.13,1.95,3.95,1.95C134.75,388.53,136.07,387.88,136.88,386.57z"/>
		<path d="M150.8,394.36c-0.38-0.39-0.57-0.99-0.57-1.81v-23.77c0-0.81,0.19-1.41,0.57-1.81s1.03-0.59,1.95-0.59h5
			c0.95,0,1.62,0.19,2,0.57c0.38,0.38,0.57,0.99,0.57,1.83v19.03h9.79c0.9,0,1.5,0.19,1.83,0.57c0.32,0.38,0.48,0.99,0.48,1.83v2.35
			c0,0.84-0.16,1.45-0.48,1.83c-0.32,0.38-0.93,0.57-1.83,0.57h-17.35C151.83,394.95,151.18,394.76,150.8,394.36z"/>
		<path d="M174.24,394.36c-0.38-0.39-0.57-0.99-0.57-1.81v-23.77c0-0.81,0.19-1.41,0.57-1.81c0.38-0.39,1.03-0.59,1.95-0.59h5
			c0.95,0,1.62,0.19,2,0.57s0.57,0.99,0.57,1.83v23.77c0,0.81-0.19,1.41-0.57,1.81c-0.38,0.39-1.04,0.59-2,0.59h-5
			C175.27,394.95,174.62,394.76,174.24,394.36z"/>
		<path d="M190.09,391.82c-2.83-2.51-4.24-6.22-4.24-11.15c0-4.96,1.37-8.68,4.1-11.17s6.63-3.74,11.7-3.74
			c2.29,0,4.34,0.22,6.13,0.67c1.79,0.45,3.29,1.08,4.49,1.89c0.34,0.25,0.5,0.53,0.5,0.84c0,0.25-0.13,0.6-0.38,1.05l-2.1,3.61
			c-0.22,0.39-0.49,0.59-0.8,0.59c-0.2,0-0.52-0.11-0.97-0.34c-0.78-0.39-1.6-0.7-2.46-0.92c-0.85-0.22-1.86-0.34-3-0.34
			c-2.32,0-4.1,0.67-5.33,2.02c-1.23,1.34-1.85,3.29-1.85,5.84c0,2.52,0.67,4.46,2.02,5.82c1.34,1.36,3.18,2.04,5.5,2.04
			c2.02,0,3.86-0.42,5.54-1.26c0.45-0.22,0.77-0.34,0.97-0.34c0.31,0,0.57,0.2,0.8,0.59l2.1,3.61c0.25,0.45,0.38,0.8,0.38,1.05
			c0,0.31-0.17,0.59-0.5,0.84c-1.2,0.81-2.71,1.44-4.54,1.89s-3.88,0.67-6.17,0.67C196.88,395.58,192.92,394.33,190.09,391.82z"/>
		<path d="M215.86,394.36c-0.38-0.39-0.57-0.99-0.57-1.81v-23.77c0-0.81,0.19-1.41,0.57-1.81s1.03-0.59,1.95-0.59h5
			c0.95,0,1.62,0.19,1.99,0.57c0.38,0.38,0.57,0.99,0.57,1.83v23.77c0,0.81-0.19,1.41-0.57,1.81c-0.38,0.39-1.04,0.59-1.99,0.59h-5
			C216.89,394.95,216.24,394.76,215.86,394.36z"/>
		<path d="M235.56,394.36c-0.38-0.39-0.57-0.99-0.57-1.81v-19.03h-6.05c-0.9,0-1.5-0.19-1.83-0.57c-0.32-0.38-0.48-0.99-0.48-1.83
			v-2.35c0-0.84,0.16-1.45,0.48-1.83c0.32-0.38,0.93-0.57,1.83-0.57h22.18c0.9,0,1.5,0.19,1.83,0.57s0.48,0.99,0.48,1.83v2.35
			c0,0.84-0.16,1.45-0.48,1.83c-0.32,0.38-0.93,0.57-1.83,0.57h-6.05v19.03c0,0.81-0.19,1.41-0.57,1.81c-0.38,0.39-1.04,0.59-2,0.59
			h-5C236.59,394.95,235.94,394.76,235.56,394.36z"/>
		<path d="M261.03,394.26c-2.07-0.88-3.68-2.16-4.83-3.82s-1.72-3.65-1.72-5.94v-15.71c0-0.81,0.19-1.41,0.57-1.81
			s1.03-0.59,1.95-0.59h5c0.95,0,1.62,0.19,1.99,0.57c0.38,0.38,0.57,0.99,0.57,1.83v15.83c0,1.32,0.33,2.3,0.99,2.94
			c0.66,0.64,1.56,0.97,2.71,0.97c1.15,0,2.05-0.32,2.71-0.97c0.66-0.64,0.99-1.62,0.99-2.94v-15.83c0-0.81,0.19-1.41,0.57-1.81
			s1.03-0.59,1.95-0.59h5c0.95,0,1.62,0.19,2,0.57s0.57,0.99,0.57,1.83v15.71c0,2.3-0.57,4.28-1.72,5.94
			c-1.15,1.67-2.76,2.94-4.83,3.82c-2.07,0.88-4.48,1.32-7.22,1.32S263.1,395.14,261.03,394.26z"/>
		<path d="M285.33,394.36c-0.38-0.39-0.57-0.99-0.57-1.81v-23.77c0-0.81,0.19-1.41,0.57-1.81c0.38-0.39,1.03-0.59,1.95-0.59h9.66
			c9.88,0,14.83,4.76,14.83,14.28c0,4.7-1.27,8.26-3.8,10.67c-2.54,2.41-6.21,3.61-11.03,3.61h-9.66
			C286.36,394.95,285.71,394.76,285.33,394.36z M297.32,387.81c1.57,0,2.69-0.52,3.38-1.55c0.69-1.04,1.03-2.9,1.03-5.59
			c0-2.69-0.34-4.55-1.03-5.59c-0.69-1.04-1.81-1.55-3.38-1.55h-2.48v14.28H297.32z"/>
		<path d="M63.07,444.76c-0.38-0.39-0.57-0.99-0.57-1.81v-23.77c0-0.81,0.19-1.41,0.57-1.81s1.03-0.59,1.95-0.59h9.66
			c9.88,0,14.83,4.76,14.83,14.28c0,4.7-1.27,8.26-3.8,10.67c-2.53,2.41-6.21,3.61-11.02,3.61h-9.66
			C64.1,445.35,63.44,445.16,63.07,444.76z M75.06,438.21c1.57,0,2.7-0.52,3.38-1.55c0.69-1.04,1.03-2.9,1.03-5.59
			c0-2.69-0.34-4.55-1.03-5.59c-0.69-1.04-1.81-1.55-3.38-1.55h-2.48v14.28H75.06z"/>
		<path d="M92.17,444.76c-0.38-0.39-0.57-0.99-0.57-1.81v-23.77c0-0.81,0.19-1.41,0.57-1.81s1.03-0.59,1.95-0.59h17.39
			c0.9,0,1.5,0.19,1.83,0.57c0.32,0.38,0.48,0.99,0.48,1.83v2.35c0,0.84-0.16,1.45-0.48,1.83c-0.32,0.38-0.93,0.57-1.83,0.57h-9.83
			v3.61h6.05c0.9,0,1.5,0.19,1.83,0.57c0.32,0.38,0.48,0.99,0.48,1.83v2.27c0,0.84-0.16,1.45-0.48,1.83
			c-0.32,0.38-0.93,0.57-1.83,0.57h-6.05v3.61h9.79c0.9,0,1.5,0.19,1.83,0.57c0.32,0.38,0.48,0.99,0.48,1.83v2.35
			c0,0.84-0.16,1.45-0.48,1.83c-0.32,0.38-0.93,0.57-1.83,0.57H94.13C93.2,445.35,92.55,445.16,92.17,444.76z"/>
		<path d="M128.88,444.76c-0.38-0.39-0.57-0.99-0.57-1.81v-23.77c0-0.81,0.19-1.41,0.57-1.81c0.38-0.39,1.03-0.59,1.95-0.59h5
			c0.95,0,1.62,0.19,2,0.57s0.57,0.99,0.57,1.83v19.03h9.79c0.9,0,1.51,0.19,1.83,0.57c0.32,0.38,0.48,0.99,0.48,1.83v2.35
			c0,0.84-0.16,1.45-0.48,1.83c-0.32,0.38-0.93,0.57-1.83,0.57h-17.35C129.91,445.35,129.26,445.16,128.88,444.76z"/>
		<path d="M152.31,444.76c-0.38-0.39-0.57-0.99-0.57-1.81v-23.77c0-0.81,0.19-1.41,0.57-1.81c0.38-0.39,1.03-0.59,1.95-0.59h5
			c0.95,0,1.62,0.19,2,0.57s0.57,0.99,0.57,1.83v23.77c0,0.81-0.19,1.41-0.57,1.81c-0.38,0.39-1.04,0.59-2,0.59h-5
			C153.34,445.35,152.69,445.16,152.31,444.76z"/>
		<path d="M168.17,442.22c-2.83-2.51-4.24-6.22-4.24-11.15c0-4.96,1.37-8.68,4.1-11.17c2.73-2.49,6.63-3.74,11.7-3.74
			c2.3,0,4.34,0.22,6.13,0.67s3.29,1.08,4.49,1.89c0.34,0.25,0.5,0.53,0.5,0.84c0,0.25-0.13,0.6-0.38,1.05l-2.1,3.61
			c-0.22,0.39-0.49,0.59-0.8,0.59c-0.2,0-0.52-0.11-0.97-0.34c-0.78-0.39-1.6-0.7-2.46-0.92c-0.85-0.22-1.86-0.34-3-0.34
			c-2.33,0-4.1,0.67-5.33,2.02c-1.23,1.34-1.85,3.29-1.85,5.84c0,2.52,0.67,4.46,2.02,5.82c1.34,1.36,3.18,2.04,5.5,2.04
			c2.02,0,3.86-0.42,5.54-1.26c0.45-0.22,0.77-0.34,0.97-0.34c0.31,0,0.57,0.2,0.8,0.59l2.1,3.61c0.25,0.45,0.38,0.8,0.38,1.05
			c0,0.31-0.17,0.59-0.5,0.84c-1.2,0.81-2.72,1.44-4.54,1.89c-1.82,0.45-3.88,0.67-6.17,0.67
			C174.96,445.98,171,444.73,168.17,442.22z"/>
		<path d="M193.94,444.76c-0.38-0.39-0.57-0.99-0.57-1.81v-23.77c0-0.81,0.19-1.41,0.57-1.81c0.38-0.39,1.03-0.59,1.95-0.59h17.39
			c0.9,0,1.51,0.19,1.83,0.57c0.32,0.38,0.48,0.99,0.48,1.83v2.35c0,0.84-0.16,1.45-0.48,1.83c-0.32,0.38-0.93,0.57-1.83,0.57h-9.83
			v3.61h6.05c0.9,0,1.5,0.19,1.83,0.57s0.48,0.99,0.48,1.83v2.27c0,0.84-0.16,1.45-0.48,1.83s-0.93,0.57-1.83,0.57h-6.05v3.61h9.79
			c0.9,0,1.5,0.19,1.83,0.57s0.48,0.99,0.48,1.83v2.35c0,0.84-0.16,1.45-0.48,1.83s-0.93,0.57-1.83,0.57h-17.35
			C194.97,445.35,194.31,445.16,193.94,444.76z"/>
		<path d="M218.04,444.76c-0.38-0.39-0.57-0.99-0.57-1.81v-23.81c0-0.81,0.19-1.41,0.57-1.79c0.38-0.38,1.04-0.57,1.99-0.57h3.99
			c0.59,0,1.04,0.08,1.37,0.23c0.32,0.15,0.64,0.46,0.95,0.9l7.6,11.3v-10.04c0-0.81,0.19-1.41,0.57-1.81
			c0.38-0.39,1.03-0.59,1.95-0.59h5c0.95,0,1.62,0.19,2,0.57s0.57,0.99,0.57,1.83V443c0,0.81-0.19,1.41-0.57,1.78s-1.04,0.57-2,0.57
			h-3.99c-0.59,0-1.04-0.08-1.36-0.23c-0.32-0.15-0.64-0.45-0.95-0.9l-7.6-11.3V443c0,0.81-0.19,1.41-0.57,1.78s-1.04,0.57-2,0.57
			h-5C219.07,445.35,218.42,445.16,218.04,444.76z"/>
		<path d="M250.36,442.22c-2.83-2.51-4.24-6.22-4.24-11.15c0-4.96,1.37-8.68,4.1-11.17c2.73-2.49,6.63-3.74,11.7-3.74
			c2.3,0,4.34,0.22,6.13,0.67s3.29,1.08,4.49,1.89c0.34,0.25,0.5,0.53,0.5,0.84c0,0.25-0.13,0.6-0.38,1.05l-2.1,3.61
			c-0.22,0.39-0.49,0.59-0.8,0.59c-0.2,0-0.52-0.11-0.97-0.34c-0.78-0.39-1.6-0.7-2.46-0.92c-0.85-0.22-1.86-0.34-3-0.34
			c-2.33,0-4.1,0.67-5.33,2.02c-1.23,1.34-1.85,3.29-1.85,5.84c0,2.52,0.67,4.46,2.02,5.82c1.34,1.36,3.18,2.04,5.5,2.04
			c2.02,0,3.86-0.42,5.54-1.26c0.45-0.22,0.77-0.34,0.97-0.34c0.31,0,0.57,0.2,0.8,0.59l2.1,3.61c0.25,0.45,0.38,0.8,0.38,1.05
			c0,0.31-0.17,0.59-0.5,0.84c-1.2,0.81-2.72,1.44-4.54,1.89c-1.82,0.45-3.88,0.67-6.17,0.67
			C257.15,445.98,253.19,444.73,250.36,442.22z"/>
		<path d="M276.13,444.76c-0.38-0.39-0.57-0.99-0.57-1.81v-23.77c0-0.81,0.19-1.41,0.57-1.81c0.38-0.39,1.03-0.59,1.95-0.59h5
			c0.95,0,1.62,0.19,2,0.57s0.57,0.99,0.57,1.83v23.77c0,0.81-0.19,1.41-0.57,1.81c-0.38,0.39-1.04,0.59-2,0.59h-5
			C277.16,445.35,276.51,445.16,276.13,444.76z"/>
		<path d="M287.74,444.47c0-0.25,0.07-0.56,0.21-0.92l10.46-25.16c0.25-0.59,0.54-1,0.86-1.24c0.32-0.24,0.78-0.36,1.36-0.36h4.58
			c0.59,0,1.04,0.12,1.37,0.36c0.32,0.24,0.61,0.65,0.86,1.24l10.42,25.16c0.14,0.36,0.21,0.67,0.21,0.92
			c0,0.59-0.31,0.88-0.92,0.88h-7.9c-0.87,0-1.41-0.38-1.64-1.13l-1.01-3.11h-7.43l-0.97,3.11c-0.22,0.76-0.77,1.13-1.64,1.13h-7.9
			C288.05,445.35,287.74,445.06,287.74,444.47z M304.54,434.47l-1.64-5.21l-1.64,5.21H304.54z"/>
		<path d="M323.61,445.18c-2.18-0.53-3.95-1.27-5.29-2.23c-0.56-0.39-0.84-0.77-0.84-1.13c0-0.25,0.1-0.52,0.29-0.8l2.44-3.82
			c0.25-0.36,0.5-0.55,0.76-0.55c0.22,0,0.49,0.1,0.8,0.29c1.01,0.62,2.16,1.1,3.46,1.45c1.3,0.35,2.57,0.53,3.8,0.53
			c1.04,0,1.79-0.14,2.25-0.42s0.69-0.71,0.69-1.3c0-0.64-0.31-1.16-0.92-1.55c-0.62-0.39-1.68-0.88-3.19-1.47
			c-2.83-1.09-5.05-2.33-6.68-3.72c-1.63-1.39-2.44-3.23-2.44-5.52c0-2.91,1.01-5.1,3.04-6.57c2.03-1.47,4.77-2.21,8.21-2.21
			c2.41,0,4.46,0.21,6.15,0.63c1.69,0.42,3.17,1.08,4.43,1.97c0.56,0.39,0.84,0.77,0.84,1.13c0,0.25-0.1,0.52-0.29,0.8l-2.44,3.82
			c-0.25,0.39-0.5,0.59-0.76,0.59c-0.17,0-0.44-0.11-0.8-0.34c-0.67-0.45-1.47-0.82-2.39-1.11c-0.92-0.29-1.92-0.44-2.98-0.44
			c-0.98,0-1.72,0.14-2.23,0.42c-0.5,0.28-0.76,0.73-0.76,1.34c0,0.5,0.17,0.92,0.53,1.26c0.35,0.34,0.79,0.62,1.32,0.86
			c0.53,0.24,1.46,0.62,2.77,1.16c2.1,0.84,3.75,1.64,4.96,2.42c1.2,0.77,2.11,1.69,2.73,2.77c0.62,1.08,0.92,2.44,0.92,4.1
			c0,2.52-0.95,4.56-2.84,6.11c-1.89,1.55-4.71,2.33-8.46,2.33C328.16,445.98,325.79,445.72,323.61,445.18z"/>
		<path d="M59.54,495.16c-0.38-0.39-0.57-0.99-0.57-1.81v-7.6L49.18,469c-0.17-0.31-0.25-0.6-0.25-0.88c0-0.62,0.32-0.92,0.97-0.92
			h7.9c0.42,0,0.74,0.09,0.97,0.27c0.22,0.18,0.45,0.47,0.67,0.86l4.58,8.23l4.58-8.23c0.22-0.39,0.45-0.68,0.67-0.86
			c0.22-0.18,0.55-0.27,0.97-0.27h7.9c0.64,0,0.97,0.31,0.97,0.92c0,0.28-0.08,0.57-0.25,0.88l-9.79,16.76v7.6
			c0,0.81-0.19,1.41-0.57,1.81c-0.38,0.39-1.04,0.59-2,0.59h-5C60.57,495.75,59.92,495.56,59.54,495.16z"/>
		<path d="M104.06,495.39c-0.32-0.24-0.59-0.65-0.82-1.24L93.2,469c-0.14-0.36-0.21-0.67-0.21-0.92c0-0.59,0.31-0.88,0.92-0.88h7.9
			c0.87,0,1.41,0.38,1.64,1.13l4.28,13.69l4.28-13.69c0.22-0.76,0.77-1.13,1.64-1.13h7.9c0.62,0,0.92,0.29,0.92,0.88
			c0,0.25-0.07,0.56-0.21,0.92l-10,25.16c-0.22,0.59-0.5,1-0.82,1.24c-0.32,0.24-0.79,0.36-1.41,0.36h-4.58
			C104.85,495.75,104.38,495.63,104.06,495.39z"/>
		<path d="M117.22,494.87c0-0.25,0.07-0.56,0.21-0.92l10.46-25.16c0.25-0.59,0.54-1,0.86-1.24c0.32-0.24,0.78-0.36,1.36-0.36h4.58
			c0.59,0,1.04,0.12,1.36,0.36c0.32,0.24,0.61,0.65,0.86,1.24l10.42,25.16c0.14,0.36,0.21,0.67,0.21,0.92
			c0,0.59-0.31,0.88-0.92,0.88h-7.9c-0.87,0-1.41-0.38-1.64-1.13l-1.01-3.11h-7.43l-0.97,3.11c-0.22,0.76-0.77,1.13-1.64,1.13h-7.9
			C117.53,495.75,117.22,495.46,117.22,494.87z M134.02,484.87l-1.64-5.21l-1.64,5.21H134.02z"/>
		<path d="M150.74,492.62c-2.83-2.51-4.24-6.22-4.24-11.15c0-4.96,1.37-8.68,4.1-11.17c2.73-2.49,6.63-3.74,11.7-3.74
			c2.3,0,4.34,0.22,6.13,0.67s3.29,1.08,4.49,1.89c0.34,0.25,0.5,0.53,0.5,0.84c0,0.25-0.13,0.6-0.38,1.05l-2.1,3.61
			c-0.22,0.39-0.49,0.59-0.8,0.59c-0.2,0-0.52-0.11-0.97-0.34c-0.78-0.39-1.6-0.7-2.46-0.92c-0.85-0.22-1.86-0.34-3-0.34
			c-2.33,0-4.1,0.67-5.33,2.02c-1.23,1.34-1.85,3.29-1.85,5.84c0,2.52,0.67,4.46,2.02,5.82c1.34,1.36,3.18,2.04,5.5,2.04
			c2.02,0,3.86-0.42,5.54-1.26c0.45-0.22,0.77-0.34,0.97-0.34c0.31,0,0.57,0.2,0.8,0.59l2.1,3.61c0.25,0.45,0.38,0.8,0.38,1.05
			c0,0.31-0.17,0.59-0.5,0.84c-1.2,0.81-2.72,1.44-4.54,1.89c-1.82,0.45-3.88,0.67-6.17,0.67
			C157.53,496.38,153.57,495.13,150.74,492.62z"/>
		<path d="M174.05,494.87c0-0.25,0.07-0.56,0.21-0.92l10.46-25.16c0.25-0.59,0.54-1,0.86-1.24c0.32-0.24,0.78-0.36,1.36-0.36h4.58
			c0.59,0,1.04,0.12,1.36,0.36c0.32,0.24,0.61,0.65,0.86,1.24l10.42,25.16c0.14,0.36,0.21,0.67,0.21,0.92
			c0,0.59-0.31,0.88-0.92,0.88h-7.9c-0.87,0-1.41-0.38-1.64-1.13l-1.01-3.11h-7.43l-0.97,3.11c-0.22,0.76-0.77,1.13-1.64,1.13h-7.9
			C174.36,495.75,174.05,495.46,174.05,494.87z M190.85,484.87l-1.64-5.21l-1.64,5.21H190.85z"/>
		<path d="M207.57,492.62c-2.83-2.51-4.24-6.22-4.24-11.15c0-4.96,1.37-8.68,4.1-11.17c2.73-2.49,6.63-3.74,11.7-3.74
			c2.29,0,4.34,0.22,6.13,0.67s3.29,1.08,4.49,1.89c0.34,0.25,0.5,0.53,0.5,0.84c0,0.25-0.13,0.6-0.38,1.05l-2.1,3.61
			c-0.22,0.39-0.49,0.59-0.8,0.59c-0.2,0-0.52-0.11-0.97-0.34c-0.78-0.39-1.6-0.7-2.46-0.92c-0.85-0.22-1.86-0.34-3-0.34
			c-2.32,0-4.1,0.67-5.33,2.02c-1.23,1.34-1.85,3.29-1.85,5.84c0,2.52,0.67,4.46,2.02,5.82c1.34,1.36,3.18,2.04,5.5,2.04
			c2.02,0,3.86-0.42,5.54-1.26c0.45-0.22,0.77-0.34,0.97-0.34c0.31,0,0.57,0.2,0.8,0.59l2.1,3.61c0.25,0.45,0.38,0.8,0.38,1.05
			c0,0.31-0.17,0.59-0.5,0.84c-1.2,0.81-2.71,1.44-4.54,1.89s-3.88,0.67-6.17,0.67C214.36,496.38,210.39,495.13,207.57,492.62z"/>
		<path d="M233.33,495.16c-0.38-0.39-0.57-0.99-0.57-1.81v-23.77c0-0.81,0.19-1.41,0.57-1.81s1.03-0.59,1.95-0.59h5
			c0.95,0,1.62,0.19,1.99,0.57c0.38,0.38,0.57,0.99,0.57,1.83v23.77c0,0.81-0.19,1.41-0.57,1.81c-0.38,0.39-1.04,0.59-1.99,0.59h-5
			C234.36,495.75,233.71,495.56,233.33,495.16z"/>
		<path d="M248.81,492.5c-2.58-2.59-3.86-6.26-3.86-11.03c0-4.76,1.29-8.43,3.86-11.02s6.36-3.89,11.34-3.89s8.76,1.3,11.34,3.89
			s3.87,6.26,3.87,11.02c0,4.76-1.29,8.44-3.87,11.03s-6.36,3.88-11.34,3.88S251.39,495.09,248.81,492.5z M264.1,487.37
			c0.81-1.3,1.22-3.27,1.22-5.9c0-2.66-0.41-4.63-1.22-5.92c-0.81-1.29-2.13-1.93-3.95-1.93s-3.14,0.64-3.95,1.93
			c-0.81,1.29-1.22,3.26-1.22,5.92c0,2.63,0.41,4.6,1.22,5.9c0.81,1.3,2.13,1.95,3.95,1.95S263.29,488.67,264.1,487.37z"/>
		<path d="M278.02,495.16c-0.38-0.39-0.57-0.99-0.57-1.81v-23.81c0-0.81,0.19-1.41,0.57-1.79s1.04-0.57,2-0.57h3.99
			c0.59,0,1.04,0.08,1.37,0.23c0.32,0.15,0.64,0.46,0.95,0.9l7.6,11.3v-10.04c0-0.81,0.19-1.41,0.57-1.81s1.03-0.59,1.95-0.59h5
			c0.95,0,1.62,0.19,2,0.57c0.38,0.38,0.57,0.99,0.57,1.83v23.81c0,0.81-0.19,1.41-0.57,1.78c-0.38,0.38-1.04,0.57-2,0.57h-3.99
			c-0.59,0-1.04-0.08-1.36-0.23c-0.32-0.15-0.64-0.45-0.95-0.9l-7.6-11.3v10.08c0,0.81-0.19,1.41-0.57,1.78
			c-0.38,0.38-1.04,0.57-1.99,0.57h-5C279.05,495.75,278.4,495.56,278.02,495.16z"/>
		<path d="M307.51,495.16c-0.38-0.39-0.57-0.99-0.57-1.81v-23.77c0-0.81,0.19-1.41,0.57-1.81c0.38-0.39,1.03-0.59,1.95-0.59h17.39
			c0.9,0,1.51,0.19,1.83,0.57c0.32,0.38,0.48,0.99,0.48,1.83v2.35c0,0.84-0.16,1.45-0.48,1.83c-0.32,0.38-0.93,0.57-1.83,0.57h-9.83
			v3.61h6.05c0.9,0,1.5,0.19,1.83,0.57s0.48,0.99,0.48,1.83v2.27c0,0.84-0.16,1.45-0.48,1.83s-0.93,0.57-1.83,0.57h-6.05v3.61h9.79
			c0.9,0,1.5,0.19,1.83,0.57s0.48,0.99,0.48,1.83v2.35c0,0.84-0.16,1.45-0.48,1.83s-0.93,0.57-1.83,0.57h-17.35
			C308.53,495.75,307.88,495.56,307.51,495.16z"/>
		<path d="M336.38,495.58c-2.18-0.53-3.95-1.27-5.29-2.23c-0.56-0.39-0.84-0.77-0.84-1.13c0-0.25,0.1-0.52,0.29-0.8l2.44-3.82
			c0.25-0.36,0.5-0.55,0.76-0.55c0.22,0,0.49,0.1,0.8,0.29c1.01,0.62,2.16,1.1,3.46,1.45c1.3,0.35,2.57,0.53,3.8,0.53
			c1.04,0,1.78-0.14,2.25-0.42c0.46-0.28,0.69-0.71,0.69-1.3c0-0.64-0.31-1.16-0.92-1.55c-0.62-0.39-1.68-0.88-3.19-1.47
			c-2.83-1.09-5.05-2.33-6.68-3.72c-1.62-1.39-2.44-3.23-2.44-5.52c0-2.91,1.02-5.1,3.04-6.57c2.03-1.47,4.77-2.21,8.21-2.21
			c2.41,0,4.46,0.21,6.15,0.63c1.69,0.42,3.17,1.08,4.43,1.97c0.56,0.39,0.84,0.77,0.84,1.13c0,0.25-0.1,0.52-0.29,0.8l-2.44,3.82
			c-0.25,0.39-0.5,0.59-0.76,0.59c-0.17,0-0.43-0.11-0.8-0.34c-0.67-0.45-1.47-0.82-2.39-1.11s-1.92-0.44-2.98-0.44
			c-0.98,0-1.72,0.14-2.23,0.42c-0.5,0.28-0.76,0.73-0.76,1.34c0,0.5,0.17,0.92,0.52,1.26c0.35,0.34,0.79,0.62,1.32,0.86
			c0.53,0.24,1.46,0.62,2.77,1.16c2.1,0.84,3.75,1.64,4.96,2.42s2.11,1.69,2.73,2.77c0.62,1.08,0.92,2.44,0.92,4.1
			c0,2.52-0.95,4.56-2.83,6.11c-1.89,1.55-4.71,2.33-8.46,2.33C340.93,496.38,338.56,496.12,336.38,495.58z"/>
	</g>
	<polygon class="st1" points="200.76,96.93 214.23,124.22 244.34,128.59 222.55,149.83 227.7,179.83 200.76,165.67 173.83,179.83 
		178.97,149.83 157.18,128.59 187.29,124.22 	"/>
	<polygon class="st1" points="138.58,180.15 147.32,197.86 166.86,200.7 152.72,214.48 156.06,233.94 138.58,224.75 121.11,233.94 
		124.45,214.48 110.31,200.7 129.85,197.86 	"/>
	<polygon class="st1" points="268.68,180.15 277.42,197.86 296.95,200.7 282.82,214.48 286.15,233.94 268.68,224.75 251.2,233.94 
		254.54,214.48 240.4,200.7 259.94,197.86 	"/>
	<circle class="st2" cx="201.77" cy="213.97" r="121.96"/>
	<circle class="st3" cx="200.82" cy="200.58" r="121.96"/>
	<g>
		<path class="st3" d="M183.41,643.85c-3.55-0.92-6.5-2.21-8.83-3.87c-0.58-0.44-0.88-0.92-0.88-1.46c0-0.44,0.22-1.05,0.66-1.83
			l3.65-6.28c0.44-0.73,0.9-1.1,1.39-1.1c0.24,0,0.8,0.22,1.68,0.66c3.55,2,7.69,2.99,12.41,2.99c2.38,0,4.26-0.51,5.62-1.53
			c1.36-1.02,2.04-2.53,2.04-4.53c0-3.89-2.09-5.84-6.28-5.84c-1.31,0-2.67,0.11-4.05,0.33c-1.39,0.22-2.54,0.5-3.47,0.84
			c-1.41,0.49-2.92,0.73-4.53,0.73c-2.24,0-4.05-0.54-5.44-1.61c-1.39-1.07-2.01-2.68-1.86-4.82l1.17-18.4
			c0.1-1.26,0.44-2.19,1.02-2.77s1.63-0.88,3.14-0.88h31.17c1.56,0,2.62,0.33,3.18,0.99c0.56,0.66,0.84,1.71,0.84,3.18v4.16
			c0,1.46-0.28,2.52-0.84,3.18c-0.56,0.66-1.62,0.99-3.18,0.99h-21.32l-0.22,3.5c0.78-0.19,1.93-0.35,3.47-0.47
			c1.53-0.12,2.76-0.18,3.69-0.18c6.67,0,11.83,1.3,15.48,3.91s5.48,7,5.48,13.18c0,3.8-1.04,7.08-3.1,9.85s-4.92,4.88-8.54,6.31
			c-3.63,1.43-7.73,2.15-12.3,2.15C190.71,645.24,186.96,644.77,183.41,643.85z"/>
	</g>
	<g>
		<path class="st189" d="M286,165.47v85.32c0,4.16-3.38,7.57-7.56,7.57H142.61c-4.16,0-7.57-3.4-7.57-7.57v-85.32H286z"/>
		<path class="st3" d="M286,150.77v14.7H135.04v-14.7c0-4.18,3.4-7.56,7.57-7.56h135.83C282.62,143.21,286,146.59,286,150.77z"/>
		<rect x="191.29" y="179.93" class="st3" width="17.33" height="17.34"/>
		<rect x="214.61" y="179.93" class="st3" width="17.33" height="17.34"/>
		<rect x="237.93" y="179.93" class="st3" width="17.33" height="17.34"/>
		<rect x="261.26" y="179.93" class="st3" width="17.33" height="17.34"/>
		<rect x="167.96" y="203.25" class="st3" width="17.33" height="17.34"/>
		<rect x="191.29" y="203.25" class="st3" width="17.33" height="17.34"/>
		<rect x="214.61" y="203.25" class="st3" width="17.33" height="17.34"/>
		<rect x="237.93" y="203.25" class="st3" width="17.33" height="17.34"/>
		<rect x="261.26" y="203.25" class="st3" width="17.33" height="17.34"/>
		<rect x="167.96" y="226.58" class="st3" width="17.33" height="17.33"/>
		<rect x="191.29" y="226.58" class="st3" width="17.33" height="17.33"/>
		<rect x="214.61" y="226.58" class="st3" width="17.33" height="17.33"/>
		<rect x="237.93" y="226.58" class="st3" width="17.33" height="17.33"/>
		<rect x="261.26" y="226.58" class="st3" width="17.33" height="17.33"/>
		<g>
			<path class="st33" d="M259.7,226.34c-3.53,5.2-7.49,10.09-11.27,15.13c-0.88,1.16-2.72,1.31-3.91,0.68
				c-3.28-1.69-5.12-5.55-7.46-7.92c-2.04-2.62,1.54-3.17,3.28-1.94c2.22,1.59,3.78,3.86,5.8,5.6c3.53-4.08,7.79-7.76,10.79-12.2
				C258.16,223.84,261.44,223.77,259.7,226.34z"/>
		</g>
		<path class="st34" d="M157.89,153.86c0,2.65-2.15,4.8-4.8,4.8l0,0c-2.65,0-4.79-2.15-4.79-4.8v-17.83c0-2.65,2.15-4.8,4.79-4.8
			l0,0c2.65,0,4.8,2.15,4.8,4.8V153.86z"/>
		<path class="st34" d="M215.32,153.86c0,2.65-2.15,4.8-4.79,4.8l0,0c-2.65,0-4.8-2.15-4.8-4.8v-17.83c0-2.65,2.14-4.8,4.8-4.8l0,0
			c2.65,0,4.79,2.15,4.79,4.8V153.86z"/>
		<path class="st34" d="M272.75,153.86c0,2.65-2.15,4.8-4.8,4.8l0,0c-2.65,0-4.8-2.15-4.8-4.8v-17.83c0-2.65,2.15-4.8,4.8-4.8l0,0
			c2.65,0,4.8,2.15,4.8,4.8V153.86z"/>
		<g>
			<circle id="XMLID_323_" class="st4" cx="138.64" cy="244.12" r="37.91"/>
			<g id="XMLID_299_">
				<path id="XMLID_322_" class="st23" d="M149.18,242.63c0.49-1.2,0.74-2.15,0.8-2.4c-0.05-0.02-0.09-0.04-0.11-0.07
					c-0.08-0.12,0.15-1.34,0.05-1.43c-0.01-0.01-0.03-0.02-0.04-0.02c-0.14,0.43-0.39,0.79-0.69,1.04
					C149.19,240.69,149.19,241.66,149.18,242.63z"/>
				<path id="XMLID_321_" class="st41" d="M147.48,240.23c-0.56-0.4-0.54,5.28-2.87,7.53c-0.17,0.16-0.34,0.32-0.51,0.47
					c-0.18,0.15-0.36,0.3-0.55,0.44c0,0.08,0,0.16,0,0.24c2.15-0.63,3.66-2.53,4.6-4.17c0.42-0.73,0.76-1.46,1.03-2.11
					c0.01-0.97,0.01-1.94,0-2.88c-0.18,0.15-0.37,0.26-0.56,0.33C148.31,240.41,147.92,240.53,147.48,240.23z"/>
				<path id="XMLID_320_" class="st41" d="M129.38,255.35c-0.06,0.03-0.24,0.14-0.41,0.4C129.09,255.64,129.23,255.51,129.38,255.35
					z"/>
				<path id="XMLID_319_" class="st41" d="M143.56,249.21c0.05,1.25,0.31,2.89,1.33,4.38c0.34-0.3,0.52-0.37,0.65-0.16
					c0.75,1.28,1.54,1.95,1.98,2.39c-0.22-0.38-0.47-0.48-0.47-0.48s0.54-0.21,1.47,0.58c0.22,0.18,0.6,0.44,1.01,0.79
					c-0.49-2.43-0.39-7.93-0.35-13.35c-0.22,0.49-0.48,1-0.77,1.51C147.06,247.23,145.4,248.7,143.56,249.21z"/>
				<path id="XMLID_318_" class="st41" d="M129.4,255.34c0.43-0.43,0.96-1.02,1.48-1.9c0.13-0.21,0.32-0.14,0.66,0.17
					c1.18-1.72,1.34-3.65,1.35-4.94c-0.37-0.29-0.72-0.59-1.06-0.92c-2.33-2.25-2.31-7.93-2.87-7.53c-0.44,0.29-0.82,0.19-1.14-0.14
					c-0.12-0.04-0.23-0.09-0.35-0.16c-0.02,6.2,0.24,13.48-0.29,16.56c0.31-0.24,0.58-0.43,0.75-0.57
					C128.82,255.17,129.35,255.32,129.4,255.34z"/>
				<path id="XMLID_317_" class="st42" d="M143.07,249.03c0.16-0.03,0.32-0.07,0.48-0.12c0-0.08,0-0.16,0-0.24
					C143.39,248.79,143.24,248.91,143.07,249.03z"/>
				<path id="XMLID_316_" class="st42" d="M138.14,259.57c0.04,0.03,0.05,0.07,0.07,0.11c0.01-0.04,0.03-0.08,0.07-0.11
					c4.06-3.11,5.8-5.25,6.61-5.98c-1.02-1.49-1.27-3.13-1.33-4.38c-0.34,0.09-0.68,0.15-1.03,0.18c-0.1,0.43-0.54,1.22-2.03,1.21
					c-0.31,0-0.57-0.04-0.78-0.1c-0.23,0.04-0.45,0.08-0.68,0.1c-0.69,0.07-1.4,0.05-2.09-0.06c-0.56-0.09-1.12-0.24-1.65-0.45
					c-0.6-0.23-1.16-0.54-1.69-0.89c-0.24-0.16-0.48-0.34-0.71-0.53c-0.01,1.29-0.17,3.22-1.35,4.94
					C132.37,254.35,134.11,256.48,138.14,259.57z"/>
				<path id="XMLID_315_" class="st42" d="M138.21,259.77c0,0.01,0,0.01,0,0.02h0.01C138.21,259.79,138.21,259.78,138.21,259.77z"/>
				<path id="XMLID_314_" class="st43" d="M135.3,250.09c0.53,0.21,1.08,0.36,1.65,0.45c0.69,0.11,1.4,0.13,2.09,0.06
					c0.23-0.02,0.46-0.06,0.68-0.1c-1-0.28-1.06-1.07-1.09-1.33c0.04-0.32,0.15-1.41,1.9-1.39c1.59,0.02,1.97,0.92,2.02,1.33
					c0.18-0.02,0.35-0.04,0.52-0.07c0.16-0.11,0.32-0.23,0.47-0.35c0.18-0.15,0.37-0.29,0.55-0.44c0.17-0.15,0.35-0.31,0.51-0.47
					c2.33-2.25,2.31-7.93,2.87-7.53c0.44,0.3,0.83,0.18,1.15-0.15c-0.27,0.1-0.53,0.1-0.73-0.02c-0.32-0.2,0.01-1.79,0.24-4.22
					c-0.03,0.01-0.07,0.02-0.1,0.05c-0.44,0.28-0.99-3.5-3.12-5.27c-2.13-1.77-2.3-2.96-2.3-2.96c-2.13,0.24-4.21,1.01-7.72,3.8
					c-2.78,2.21-5.25,4.41-6.37,4.71c-0.1,0.03-0.17-0.08-0.26-0.24c0.23,2.38,0.54,3.93,0.23,4.13c-0.18,0.11-0.43,0.11-0.68,0.03
					c0.32,0.32,0.7,0.43,1.14,0.14c0.56-0.4,0.54,5.28,2.87,7.53c0.34,0.32,0.69,0.63,1.06,0.92c0.23,0.18,0.46,0.36,0.71,0.53
					C134.14,249.55,134.7,249.86,135.3,250.09z"/>
				<path id="XMLID_313_" class="st41" d="M127.4,231.7c0.11-2.08,2.01-9.63,10.81-9.63c8.8,0,10.7,7.55,10.81,9.63
					c0.07,1.35-0.07,2.13,0.04,2.59c0.04-0.45,0.07-1.04,0.07-1.82c0-3.97-1.61-8.07-4.22-8.75c-1.25-0.33-1.41-1.54-4.19-2.38
					c-4.44-1.33-9.46,0.51-12.02,4.78c-1.79,2.99-1.89,7.18-1.7,8.63C127.62,234.43,127.3,233.67,127.4,231.7z"/>
				<path id="XMLID_312_" class="st41" d="M128.53,236.17c1.12-0.3,3.6-2.5,6.37-4.71c3.51-2.79,5.59-3.56,7.72-3.8
					c0,0,0.17,1.2,2.3,2.96c2.13,1.77,2.68,5.55,3.12,5.27c0.03-0.02,0.07-0.03,0.1-0.05c0.02-0.25,0.05-0.51,0.07-0.77
					c0.22-2.87,0.19-3.81-0.09-4.85c-2.17-8.01-9.91-7.44-9.91-7.44s-7.47-0.7-9.88,7.32c-0.32,1.06-0.35,2.11-0.13,4.98
					c0.02,0.3,0.05,0.59,0.07,0.86C128.36,236.08,128.43,236.19,128.53,236.17z"/>
				<path id="XMLID_311_" class="st96" d="M128.51,240.06c0.31-0.19,0-1.75-0.23-4.13c-0.03-0.28-0.05-0.56-0.07-0.86
					c-0.22-2.87-0.19-3.91,0.13-4.98c2.4-8.02,9.88-7.32,9.88-7.32s7.74-0.57,9.91,7.44c0.28,1.04,0.31,1.98,0.09,4.85
					c-0.02,0.27-0.04,0.52-0.07,0.77c-0.23,2.43-0.56,4.02-0.24,4.22c0.19,0.12,0.45,0.11,0.73,0.02c0.19-0.07,0.38-0.18,0.56-0.33
					c0.3-0.25,0.55-0.61,0.69-1.04c-0.11-0.03-0.27,0.07-0.36-0.13c-0.1-0.22-0.05-1.2,0.04-1.41c0.09-0.21,0.18-0.31,0.52-0.25
					c0.02,0,0.03,0.01,0.05,0.02c0.04-0.98-0.08-1.92-0.6-2.12c-0.28-0.11-0.4-0.27-0.46-0.53c-0.11-0.47,0.02-1.25-0.04-2.59
					c-0.11-2.08-2.01-9.63-10.81-9.63c-8.8,0-10.7,7.55-10.81,9.63c-0.1,1.97,0.23,2.73-0.4,3.06c-0.04,0.02-0.06,0.04-0.1,0.06
					c-0.79,0.3-0.66,2.34-0.44,3.6c0.12,0.7,0.56,1.24,1.03,1.52c0.12,0.07,0.23,0.12,0.35,0.16
					C128.08,240.17,128.32,240.17,128.51,240.06z"/>
				<path id="XMLID_310_" class="st97" d="M149.55,237.17c-0.09,0.21-0.14,1.19-0.04,1.41c0.09,0.19,0.25,0.09,0.36,0.13
					c0.01,0,0.03,0.01,0.04,0.02c0.11,0.09-0.13,1.31-0.05,1.43c0.02,0.03,0.06,0.06,0.11,0.07c-0.05,0.25-0.3,1.2-0.8,2.4
					c-0.27,0.65-0.61,1.38-1.03,2.11c-0.94,1.64-2.46,3.54-4.6,4.17c-0.16,0.05-0.31,0.08-0.48,0.12c-0.17,0.03-0.35,0.06-0.52,0.07
					c-0.05-0.41-0.43-1.31-2.02-1.33c-1.75-0.02-1.87,1.07-1.9,1.39c0.03,0.26,0.1,1.05,1.09,1.33c0.22,0.06,0.47,0.1,0.78,0.1
					c1.49,0.02,1.93-0.77,2.03-1.21c0.35-0.03,0.69-0.09,1.03-0.18c1.84-0.51,3.5-1.98,4.85-4.33c0.29-0.51,0.55-1.02,0.77-1.51
					c0.71-1.56,1.06-2.9,1.1-3.15c0.02-0.01,0.04-0.01,0.06-0.02c0.12-0.08,0.21-0.89,0.29-1.81c0.07-0.87-0.2-1.34-0.5-1.44
					c-0.02-0.01-0.03-0.01-0.05-0.02C149.73,236.86,149.64,236.96,149.55,237.17z"/>
				<path id="XMLID_309_" class="st44" d="M136.66,266.28c-0.64-1.43-1.35-2.24-1.41-3.42c-0.47,0.58-0.79,1.18-0.74,1.74
					c0.18,1.88-5.38-4.56-5.91-7.65c-0.1,0.59-0.1,1.83,1.61,4.26c1.16,1.64,3.88,6.33,5.86,10.54c0.39-2.54,0.71-4.49,0.84-5.22
					C136.81,266.46,136.71,266.38,136.66,266.28z"/>
				<path id="XMLID_308_" class="st44" d="M141.9,264.6c0.05-0.57-0.27-1.16-0.74-1.74c-0.07,1.19-0.78,2-1.41,3.42
					c-0.05,0.1-0.14,0.18-0.25,0.25c0.14,0.76,0.47,2.84,0.89,5.53c1.92-4.28,4.65-9.16,5.84-10.84c1.8-2.56,1.71-3.79,1.6-4.35
					C147.39,259.92,141.72,266.49,141.9,264.6z"/>
				<path id="XMLID_307_" class="st44" d="M129.5,263.03c0,0,0.01,0.01,0.01,0.01l0.02-0.01
					C129.53,263.03,129.52,263.03,129.5,263.03z"/>
				<path id="XMLID_306_" class="st98" d="M139.75,266.28c0.64-1.43,1.35-2.24,1.41-3.42c-1.04-1.29-2.82-2.49-2.95-3.06h-0.01
					c-0.13,0.57-1.91,1.77-2.95,3.06c0.07,1.19,0.78,2,1.41,3.42c0.05,0.1,0.14,0.18,0.25,0.25c-0.13,0.73-0.45,2.68-0.84,5.22
					c1.18,2.5,2.09,4.84,2.26,6.26c0.16-1.36,0.98-3.56,2.06-5.95c-0.42-2.68-0.75-4.76-0.89-5.53
					C139.6,266.46,139.7,266.38,139.75,266.28z"/>
				<path id="XMLID_305_" class="st57" d="M145.53,253.44c-0.12-0.21-0.31-0.14-0.65,0.16c-0.82,0.73-2.55,2.87-6.61,5.98
					c-0.04,0.03-0.05,0.07-0.07,0.11c-0.01-0.04-0.03-0.08-0.07-0.11c-4.03-3.09-5.77-5.22-6.6-5.96c-0.35-0.31-0.54-0.39-0.66-0.17
					c-0.52,0.88-1.06,1.47-1.48,1.9c0,0,0.01,0,0.01,0s-0.01,0-0.02,0.01c-0.16,0.16-0.29,0.29-0.41,0.4
					c-0.12,0.19-0.24,0.47-0.31,0.86c-0.01,0.07-0.04,0.18-0.07,0.32c0.53,3.09,6.09,9.53,5.91,7.65c-0.05-0.57,0.27-1.16,0.74-1.74
					c1.04-1.29,2.82-2.49,2.95-3.06c0-0.01,0-0.02,0-0.02c0,0.01,0,0.01,0,0.02c0.13,0.57,1.91,1.77,2.95,3.06
					c0.47,0.58,0.79,1.18,0.74,1.74c-0.18,1.9,5.48-4.68,5.93-7.74c-0.02-0.1-0.04-0.18-0.05-0.24c-0.06-0.35-0.16-0.61-0.27-0.79
					C147.07,255.39,146.29,254.71,145.53,253.44z"/>
				<path id="XMLID_304_" class="st97" d="M160.55,261.37c-0.34-0.47-7.85-3.06-10.29-3.95c0.25,0.27,0.48,0.58,0.68,0.93
					c1.08,1.92,1.13,3.1,1.89,3.67c0.76,0.57-5.93,1.01-5.93,1.01l4.21,3.18c0,0-4.72,5.4-7.91,7.72c-0.99,0.72-4.11,3.61-4.87,4.85
					c0.18,0.84,0.48,2.09,0.55,2.59c0.03,0.22,0.06,0.43,0.08,0.64c5.81-0.07,11.31-1.44,16.21-3.85
					c0.15-2.91-0.35-14.35,5.15-16.78c0.12-0.05,0.25,0.07,0.39,0.32c0,0,0-0.01,0-0.01C160.67,261.58,160.62,261.46,160.55,261.37z
					"/>
				<path id="XMLID_303_" class="st99" d="M138.35,278.78L138.35,278.78c-0.89-0.77-4.13-4.13-5.12-4.85
					c-3.19-2.33-7.91-7.72-7.91-7.72l4.2-3.17c0,0-0.01-0.01-0.01-0.01c-0.43-0.03-6.63-0.46-5.9-1c0.76-0.57,0.82-1.75,1.89-3.67
					c0.21-0.38,0.47-0.71,0.74-1c-2.55,0.93-9.84,3.45-10.17,3.91c5.88,0.3,5.3,13.39,5.4,16.71c5.13,2.59,10.91,4.05,17.05,4.05
					c0.15,0,0.31-0.01,0.46-0.01c-0.03-0.21-0.05-0.42-0.08-0.64C138.83,280.87,138.52,279.62,138.35,278.78z"/>
				<path id="XMLID_302_" class="st100" d="M125.49,258.35c-1.08,1.92-1.13,3.1-1.89,3.67c-0.73,0.55,5.47,0.98,5.9,1
					c0.02,0,0.03,0,0.03,0l-0.02,0.01l-4.2,3.17c0,0,4.72,5.4,7.91,7.72c0.99,0.72,4.23,4.08,5.12,4.85l0,0
					c0.76-1.25,3.88-4.13,4.87-4.85c3.19-2.33,7.91-7.72,7.91-7.72l-4.21-3.18c0,0,6.69-0.44,5.93-1.01
					c-0.76-0.57-0.82-1.75-1.89-3.67c-0.2-0.35-0.43-0.66-0.68-0.93c-0.24-0.27-0.5-0.5-0.74-0.71c-0.42-0.35-0.8-0.6-1.01-0.79
					c-0.93-0.79-1.47-0.58-1.47-0.58s0.25,0.1,0.47,0.48c0.11,0.19,0.21,0.44,0.27,0.79c0.01,0.06,0.03,0.14,0.05,0.24
					c0.11,0.55,0.2,1.79-1.6,4.35c-1.19,1.68-3.92,6.56-5.84,10.84c-1.07,2.38-1.89,4.59-2.06,5.95c-0.17-1.42-1.09-3.76-2.26-6.26
					c-1.98-4.21-4.7-8.89-5.86-10.54c-1.71-2.43-1.71-3.67-1.61-4.26c0.02-0.14,0.05-0.25,0.07-0.32c0.07-0.39,0.19-0.67,0.31-0.86
					c0.17-0.27,0.35-0.37,0.41-0.4c0.01-0.01,0.02-0.01,0.02-0.01s-0.01,0-0.01,0c-0.05-0.02-0.57-0.17-1.46,0.59
					c-0.17,0.14-0.44,0.33-0.75,0.57c-0.3,0.23-0.63,0.52-0.95,0.86C125.97,257.64,125.71,257.97,125.49,258.35z"/>
				<path id="XMLID_301_" class="st100" d="M116.07,261.26c-0.34-0.02-1.45,5.12-2.57,11.31c2.41,2.12,5.08,3.93,7.98,5.39
					C121.36,274.66,121.95,261.57,116.07,261.26z"/>
				<path id="XMLID_300_" class="st100" d="M160.33,261.39c-5.5,2.43-5,13.87-5.15,16.78c2.97-1.45,5.71-3.29,8.18-5.44
					c-0.94-5.28-1.94-9.8-2.64-11.02C160.58,261.46,160.45,261.34,160.33,261.39z"/>
			</g>
		</g>
	</g>
</g>
</svg>
