<?xml version="1.0" encoding="utf-8"?>
<!-- Generator: Adobe Illustrator 23.0.0, SVG Export Plug-In . SVG Version: 6.00 Build 0)  -->
<svg version="1.1" id="Capa_1" xmlns="http://www.w3.org/2000/svg" xmlns:xlink="http://www.w3.org/1999/xlink" x="0px" y="0px"
	 viewBox="0 0 400 702" style="enable-background:new 0 0 400 702;" xml:space="preserve">
<style type="text/css">
	.st0{fill:#0085B0;}
	.st1{fill:#E0EF18;}
	.st2{fill:#CECECE;}
	.st3{fill:#FFFFFF;}
	.st4{fill:#F2F2F2;}
	.st5{fill:#EACCB0;}
	.st6{fill:#9B9B9B;}
	.st7{fill:#939393;}
	.st8{fill:#EFEFEF;}
	.st9{fill:#828282;}
	.st10{fill:#2C2A2D;}
	.st11{fill:#202021;}
	.st12{fill:#F2D4B6;}
	.st13{fill:#534D46;}
	.st14{fill:#E8D313;}
	.st15{fill:#2ACCFF;}
	.st16{fill:#4E4F4F;}
	.st17{fill:#003A94;}
	.st18{fill:#00D13C;}
	.st19{fill:#15682A;}
	.st20{fill:#D40000;}
	.st21{fill:#505050;}
	.st22{fill:#DFDFDF;}
	.st23{fill:none;}
	.st24{fill:#636363;}
	.st25{fill:#6C92D5;}
	.st26{fill:#22272F;}
	.st27{fill:#1B2538;}
	.st28{fill:#253452;}
	.st29{fill:#F9F9F9;}
	.st30{fill:#2D3543;}
	.st31{fill:#2A3D60;}
	.st32{fill:#587955;}
	.st33{fill:#CD7054;}
	.st34{fill:#F1CC4B;}
	.st35{fill:#ACACAC;}
	.st36{fill:#AAE528;}
	.st37{fill:#28CEBA;}
	.st38{fill:#DB143F;}
	.st39{fill:#53C2C9;}
	.st40{fill:#FFB412;}
	.st41{fill:#866A5E;}
	.st42{fill:#F7DDCB;}
	.st43{fill:#FFE6D4;}
	.st44{fill:#F5F5F5;}
	.st45{fill:#1A2830;}
	.st46{fill:#24353F;}
	.st47{fill:#132026;}
	.st48{fill:#F9FF03;}
	.st49{fill:#272728;}
	.st50{fill:#1E1D1E;}
	.st51{fill:#160423;}
	.st52{fill-rule:evenodd;clip-rule:evenodd;fill:#FFFFFF;}
	.st53{fill-rule:evenodd;clip-rule:evenodd;fill:#1996B8;}
	.st54{fill:#0C387D;}
	.st55{fill:#C69A81;}
	.st56{fill:#D1A385;}
	.st57{fill:#EAEAEA;}
	.st58{fill:#093E8C;}
	.st59{fill:#0B2A62;}
	.st60{fill:#D32A3B;}
	.st61{fill:#827C7D;}
	.st62{opacity:0.7;fill:#7F7F7F;}
	.st63{fill:#FDFDFD;}
	.st64{fill:#DAA449;}
	.st65{fill:#DD9225;}
	.st66{opacity:0.3;}
	.st67{fill:#425793;}
	.st68{opacity:0.8;}
	.st69{filter:url(#Adobe_OpacityMaskFilter);}
	.st70{opacity:0.15;mask:url(#SVGID_1_);}
	.st71{fill:#090B00;}
	.st72{opacity:0.1;}
	.st73{fill:#211915;}
	.st74{filter:url(#Adobe_OpacityMaskFilter_1_);}
	.st75{opacity:0.15;mask:url(#SVGID_2_);}
	.st76{fill:#AF3623;}
	.st77{filter:url(#Adobe_OpacityMaskFilter_2_);}
	.st78{opacity:0.15;mask:url(#SVGID_3_);}
	.st79{filter:url(#Adobe_OpacityMaskFilter_3_);}
	.st80{opacity:0.15;mask:url(#SVGID_4_);}
	.st81{fill:#456495;}
	.st82{filter:url(#Adobe_OpacityMaskFilter_4_);}
	.st83{opacity:0.15;mask:url(#SVGID_5_);}
	.st84{filter:url(#Adobe_OpacityMaskFilter_5_);}
	.st85{opacity:0.15;mask:url(#SVGID_6_);}
	.st86{fill:#76A9DA;}
	.st87{filter:url(#Adobe_OpacityMaskFilter_6_);}
	.st88{opacity:0.15;mask:url(#SVGID_7_);}
	.st89{filter:url(#Adobe_OpacityMaskFilter_7_);}
	.st90{opacity:0.15;mask:url(#SVGID_8_);}
	.st91{fill:#1F3642;}
	.st92{fill:#A9BDDA;}
	.st93{opacity:0.46;fill:#A6B4BC;}
	.st94{fill:#74C475;}
	.st95{fill:#221F21;}
	.st96{fill:#2D2D2D;}
	.st97{fill:#1C1B1A;}
	.st98{fill:#77181C;}
	.st99{fill:#262525;}
	.st100{fill:#11100F;}
	.st101{opacity:0.18;}
	.st102{opacity:0.38;}
	.st103{fill:#0A5B1F;}
	.st104{opacity:0.27;}
	.st105{opacity:0.48;}
	.st106{fill:#0A4654;}
	.st107{fill:#C2C6C6;}
	.st108{fill:#E5E5E5;stroke:#FFFFFF;stroke-miterlimit:10;}
	.st109{fill:#ACB4B5;}
	.st110{fill:#7F8384;}
	.st111{fill:#15772F;}
	.st112{fill:#F4F4F4;}
	.st113{fill:#53B8DB;}
	.st114{fill:#06EF42;}
	.st115{fill:#E7ED07;}
	.st116{fill:#CCCCCA;}
	.st117{fill:#EADF13;}
	.st118{fill:#C2C2C2;}
	.st119{fill:#85B681;}
	.st120{fill:#A1DC9B;}
	.st121{fill:#90C58B;}
	.st122{fill:#22241F;}
	.st123{opacity:0.5;}
	.st124{fill:#A2CADE;}
	.st125{fill:#E9E9E9;}
	.st126{fill:#D9D9D9;}
	.st127{fill:#CDCDCD;}
	.st128{opacity:0.34;fill:#F0F0F0;}
	.st129{fill:#5A5B5A;}
	.st130{fill:#FFE600;}
	.st131{fill:#DB1F59;}
	.st132{fill:#727272;}
	.st133{fill:#207235;}
	.st134{fill:#A3A3A3;}
	.st135{fill:#BCBCBC;}
	.st136{fill:#0A511C;}
	.st137{fill:#F9FF00;}
	.st138{fill:#D59F6D;}
	.st139{fill:#C0804A;}
	.st140{fill:#E6BA8A;}
	.st141{fill:#BE3ACC;}
	.st142{fill:#FFFFFF;stroke:#443F0C;stroke-width:9;stroke-miterlimit:10;}
	.st143{fill:none;stroke:#443F0C;stroke-width:9;stroke-miterlimit:10;}
	.st144{fill:#170623;}
	.st145{fill:#158231;}
	.st146{fill:#C89D76;}
	.st147{opacity:0.4;}
	.st148{fill:#ADADAD;}
	.st149{fill:#EDC3A6;}
	.st150{opacity:0.69;}
	.st151{fill:#E5D3D6;}
	.st152{opacity:0.44;}
	.st153{fill:#A5A5A5;}
	.st154{fill:#DDE5E4;}
	.st155{fill:#5C9169;}
	.st156{fill:#934215;}
	.st157{fill:#47413B;}
	.st158{fill:#601A1F;}
	.st159{fill:#044554;}
	.st160{opacity:0.7;}
	.st161{fill:#7F7F7F;}
	.st162{fill:#6B8A69;}
	.st163{opacity:0.24;fill:#848D90;}
	.st164{opacity:0.4;fill:#848D90;}
	.st165{fill:#F2D5D5;}
	.st166{fill:#485CC1;}
	.st167{fill:#C6CBE0;}
	.st168{fill:#8B909E;}
	.st169{fill:#53BC1B;}
	.st170{fill:#11565B;}
	.st171{fill:#67A06D;}
	.st172{fill:#FFEC00;}
	.st173{fill:#77A007;}
	.st174{fill:#E50731;}
	.st175{fill:#266472;}
	.st176{fill:#D4D4D4;}
	.st177{fill:#0E9932;}
	.st178{fill:#87DD24;}
	.st179{fill:#76A172;}
	.st180{fill:#62835F;}
	.st181{fill:#96D090;}
	.st182{fill:#D6D6D6;}
	.st183{fill:#606060;}
	.st184{fill:#494949;}
	.st185{fill:#29E55A;}
	.st186{fill:#2C703D;}
	.st187{fill:#DD0744;}
	.st188{fill:#EDEDED;}
	.st189{fill:#2A5936;}
	.st190{fill:#B9BBC1;}
	.st191{fill:#FFD79E;}
	.st192{fill:#FFE6C2;}
	.st193{fill:#2CBB55;}
	.st194{fill:#5C412D;}
	.st195{fill:#EC0000;}
	.st196{fill:#DD2626;}
	.st197{fill:#EA9334;}
	.st198{fill:#FCC232;}
	.st199{fill:#F9B234;}
	.st200{fill:#F7A037;}
	.st201{fill:#E0E0E0;}
</style>
<g>
	<g>
		<path class="st0" d="M9.5,209.36c0,22,13.29,27.86,29.54,13.03c0,0,156.99-143.3,353.09,26.97V55c0-22-18-40-40-40H49.5
			c-22,0-40,18-40,40V209.36z"/>
	</g>
	<g>
		<path class="st0" d="M391.66,647c0,22-18,40-40,40H49.98c-22,0-40-18-40-40v-46.27c0-22,18-40,40-40h301.68c22,0,40,18,40,40V647z
			"/>
	</g>
	<polygon class="st1" points="200.76,96.93 214.23,124.22 244.34,128.59 222.55,149.83 227.7,179.83 200.76,165.67 173.83,179.83 
		178.97,149.83 157.18,128.59 187.29,124.22 	"/>
	<polygon class="st1" points="138.58,180.15 147.32,197.86 166.86,200.7 152.72,214.48 156.06,233.94 138.58,224.75 121.11,233.94 
		124.45,214.48 110.31,200.7 129.85,197.86 	"/>
	<polygon class="st1" points="268.68,180.15 277.42,197.86 296.95,200.7 282.82,214.48 286.15,233.94 268.68,224.75 251.2,233.94 
		254.54,214.48 240.4,200.7 259.94,197.86 	"/>
	<circle class="st2" cx="201.77" cy="213.97" r="121.96"/>
	<circle class="st3" cx="200.82" cy="200.58" r="121.96"/>
	<g>
		<path class="st3" d="M179.5,640.97c-3.99-2.85-5.99-6.87-5.99-12.08c0-2.14,0.54-4.16,1.61-6.06c1.07-1.9,2.58-3.41,4.53-4.53
			c-1.66-1.07-2.88-2.38-3.69-3.94c-0.8-1.56-1.21-3.24-1.21-5.04c0-5.11,1.84-9.04,5.51-11.79c3.67-2.75,8.97-4.13,15.88-4.13
			c6.91,0,12.2,1.38,15.88,4.13c3.67,2.75,5.51,6.68,5.51,11.79c0,1.8-0.4,3.48-1.2,5.04c-0.8,1.56-2.03,2.87-3.69,3.94
			c1.95,1.12,3.45,2.63,4.53,4.53c1.07,1.9,1.61,3.92,1.61,6.06c0,5.21-2,9.23-5.99,12.08c-3.99,2.85-9.54,4.27-16.64,4.27
			C189.04,645.24,183.49,643.81,179.5,640.97z M201.4,628.74c0-1.41-0.44-2.48-1.31-3.21c-0.88-0.73-2.19-1.09-3.94-1.09
			c-3.46,0-5.18,1.44-5.18,4.31c0,2.82,1.73,4.23,5.18,4.23C199.65,632.97,201.4,631.56,201.4,628.74z M200.09,609.39
			c0-1.31-0.32-2.26-0.95-2.85c-0.63-0.58-1.63-0.88-2.99-0.88c-1.36,0-2.36,0.29-2.99,0.88c-0.63,0.58-0.95,1.53-0.95,2.85
			c0,2.14,1.31,3.21,3.94,3.21S200.09,611.54,200.09,609.39z"/>
	</g>
	<g>
		<path d="M159.91,382.43c-0.33-0.35-0.5-0.88-0.5-1.59v-20.98c0-0.72,0.17-1.24,0.5-1.57c0.33-0.33,0.92-0.5,1.76-0.5h4.26
			c0.54,0,0.97,0.07,1.29,0.2c0.32,0.13,0.57,0.4,0.74,0.79l4.33,10.84l4.33-10.84c0.17-0.39,0.42-0.66,0.74-0.79
			c0.32-0.14,0.75-0.2,1.29-0.2h4.25c0.84,0,1.42,0.17,1.76,0.5c0.33,0.33,0.5,0.86,0.5,1.57v20.98c0,0.72-0.17,1.25-0.5,1.59
			c-0.33,0.35-0.91,0.52-1.72,0.52h-3.55c-0.81,0-1.39-0.17-1.74-0.52s-0.52-0.88-0.52-1.59v-10.1l-2.18,5.03
			c-0.3,0.72-0.62,1.23-0.96,1.54c-0.35,0.31-0.91,0.46-1.7,0.46s-1.36-0.15-1.7-0.46c-0.35-0.31-0.67-0.82-0.96-1.54l-2.18-5.03
			v10.1c0,0.72-0.17,1.25-0.5,1.59c-0.33,0.35-0.92,0.52-1.76,0.52h-3.55C160.82,382.95,160.25,382.78,159.91,382.43z"/>
		<path d="M186.09,382.17c0-0.22,0.06-0.49,0.19-0.81l9.21-22.16c0.22-0.52,0.47-0.88,0.76-1.09c0.28-0.21,0.69-0.31,1.2-0.31h4.03
			c0.52,0,0.92,0.11,1.2,0.31c0.28,0.21,0.54,0.57,0.76,1.09l9.18,22.16c0.12,0.32,0.19,0.59,0.19,0.81c0,0.52-0.27,0.78-0.81,0.78
			h-6.96c-0.76,0-1.25-0.33-1.44-1l-0.89-2.74h-6.55l-0.85,2.74c-0.2,0.67-0.68,1-1.44,1h-6.96
			C186.36,382.95,186.09,382.69,186.09,382.17z M195.49,355.57c0-0.2,0.04-0.41,0.11-0.63l1.55-4.29c0.2-0.57,0.43-0.95,0.7-1.15
			s0.78-0.3,1.52-0.3h5.29c0.52,0,0.93,0.09,1.22,0.28c0.3,0.18,0.44,0.45,0.44,0.79c0,0.3-0.1,0.6-0.3,0.92l-2.37,4
			c-0.35,0.59-0.68,0.97-1,1.15c-0.32,0.17-0.9,0.26-1.74,0.26h-3.96C195.98,356.61,195.49,356.26,195.49,355.57z M200.89,373.37
			l-1.44-4.59l-1.44,4.59H200.89z"/>
		<path d="M217.69,382.8c-1.92-0.47-3.48-1.12-4.66-1.96c-0.49-0.34-0.74-0.68-0.74-1c0-0.22,0.09-0.46,0.26-0.7l2.15-3.37
			c0.22-0.32,0.44-0.48,0.67-0.48c0.2,0,0.43,0.09,0.7,0.26c0.89,0.54,1.91,0.97,3.05,1.28c1.15,0.31,2.26,0.46,3.35,0.46
			c0.91,0,1.57-0.12,1.98-0.37c0.41-0.25,0.61-0.63,0.61-1.15c0-0.57-0.27-1.02-0.81-1.37c-0.54-0.35-1.48-0.78-2.81-1.29
			c-2.49-0.96-4.45-2.05-5.88-3.27c-1.43-1.22-2.15-2.84-2.15-4.87c0-2.56,0.89-4.5,2.68-5.79c1.79-1.29,4.2-1.94,7.23-1.94
			c2.12,0,3.93,0.18,5.42,0.55s2.79,0.95,3.9,1.74c0.49,0.35,0.74,0.68,0.74,1c0,0.22-0.09,0.46-0.26,0.7l-2.15,3.37
			c-0.22,0.35-0.44,0.52-0.67,0.52c-0.15,0-0.38-0.1-0.7-0.3c-0.59-0.39-1.3-0.72-2.11-0.98s-1.69-0.39-2.63-0.39
			c-0.86,0-1.52,0.12-1.96,0.37c-0.44,0.25-0.67,0.64-0.67,1.18c0,0.44,0.15,0.81,0.46,1.11s0.7,0.55,1.17,0.76s1.28,0.55,2.44,1.02
			c1.85,0.74,3.3,1.45,4.37,2.13c1.06,0.68,1.86,1.49,2.4,2.44s0.81,2.15,0.81,3.61c0,2.22-0.83,4.01-2.5,5.38
			c-1.66,1.37-4.15,2.05-7.46,2.05C221.7,383.51,219.61,383.27,217.69,382.8z"/>
		<path d="M31.01,426.83c-0.33-0.35-0.5-0.88-0.5-1.59V404.3c0-0.72,0.17-1.25,0.5-1.59c0.33-0.35,0.91-0.52,1.72-0.52h15.32
			c0.79,0,1.33,0.17,1.61,0.5c0.28,0.33,0.43,0.87,0.43,1.61v2.07c0,0.74-0.14,1.28-0.43,1.61c-0.28,0.33-0.82,0.5-1.61,0.5h-8.66
			v3.15h5.33c0.79,0,1.33,0.17,1.61,0.5s0.43,0.87,0.43,1.61v2.07c0,0.74-0.14,1.28-0.43,1.61s-0.82,0.5-1.61,0.5h-5.33v7.33
			c0,0.72-0.17,1.25-0.5,1.59c-0.33,0.35-0.92,0.52-1.76,0.52h-4.4C31.91,427.35,31.34,427.18,31.01,426.83z"/>
		<path d="M56.96,426.74c-1.83-0.78-3.24-1.9-4.26-3.37c-1.01-1.47-1.52-3.21-1.52-5.24V404.3c0-0.72,0.17-1.25,0.5-1.59
			c0.33-0.35,0.91-0.52,1.72-0.52h4.4c0.84,0,1.42,0.17,1.76,0.5s0.5,0.87,0.5,1.61v13.95c0,1.16,0.29,2.02,0.87,2.59
			c0.58,0.57,1.38,0.85,2.39,0.85s1.81-0.28,2.39-0.85s0.87-1.43,0.87-2.59V404.3c0-0.72,0.17-1.25,0.5-1.59s0.91-0.52,1.72-0.52
			h4.4c0.84,0,1.42,0.17,1.76,0.5s0.5,0.87,0.5,1.61v13.84c0,2.02-0.51,3.77-1.52,5.24c-1.01,1.47-2.43,2.59-4.25,3.37
			c-1.83,0.78-3.95,1.17-6.36,1.17S58.79,427.52,56.96,426.74z"/>
		<path d="M78.37,426.83c-0.33-0.35-0.5-0.88-0.5-1.59v-20.98c0-0.71,0.17-1.24,0.5-1.57c0.33-0.33,0.92-0.5,1.76-0.5h3.51
			c0.52,0,0.92,0.07,1.2,0.2s0.56,0.4,0.83,0.79l6.7,9.95v-8.84c0-0.72,0.17-1.25,0.5-1.59c0.33-0.35,0.91-0.52,1.72-0.52h4.4
			c0.84,0,1.42,0.17,1.76,0.5s0.5,0.87,0.5,1.61v20.98c0,0.72-0.17,1.24-0.5,1.57s-0.92,0.5-1.76,0.5h-3.51
			c-0.52,0-0.92-0.07-1.2-0.2c-0.29-0.14-0.56-0.4-0.83-0.8l-6.7-9.95v8.88c0,0.72-0.17,1.24-0.5,1.57c-0.33,0.33-0.92,0.5-1.76,0.5
			h-4.4C79.27,427.35,78.7,427.18,78.37,426.83z"/>
		<path d="M106.84,424.6c-2.49-2.21-3.74-5.48-3.74-9.82c0-4.37,1.2-7.65,3.61-9.84c2.4-2.2,5.84-3.29,10.3-3.29
			c2.02,0,3.82,0.2,5.4,0.59c1.58,0.39,2.9,0.95,3.96,1.67c0.3,0.22,0.44,0.47,0.44,0.74c0,0.22-0.11,0.53-0.33,0.92l-1.85,3.18
			c-0.2,0.35-0.43,0.52-0.7,0.52c-0.17,0-0.46-0.1-0.85-0.3c-0.69-0.35-1.41-0.62-2.17-0.81c-0.75-0.2-1.63-0.3-2.64-0.3
			c-2.05,0-3.61,0.59-4.7,1.78c-1.09,1.18-1.63,2.9-1.63,5.14c0,2.22,0.59,3.93,1.78,5.13c1.18,1.2,2.8,1.79,4.85,1.79
			c1.78,0,3.4-0.37,4.88-1.11c0.39-0.2,0.68-0.3,0.85-0.3c0.27,0,0.5,0.17,0.7,0.52l1.85,3.18c0.22,0.4,0.33,0.7,0.33,0.92
			c0,0.27-0.15,0.52-0.44,0.74c-1.06,0.72-2.39,1.27-4,1.67s-3.42,0.59-5.44,0.59C112.82,427.91,109.33,426.8,106.84,424.6z"/>
		<path d="M129.54,426.83c-0.33-0.35-0.5-0.88-0.5-1.59V404.3c0-0.72,0.17-1.25,0.5-1.59c0.33-0.35,0.91-0.52,1.72-0.52h4.4
			c0.84,0,1.42,0.17,1.76,0.5c0.33,0.33,0.5,0.87,0.5,1.61v20.94c0,0.72-0.17,1.25-0.5,1.59c-0.33,0.35-0.92,0.52-1.76,0.52h-4.4
			C130.44,427.35,129.87,427.18,129.54,426.83z"/>
		<path d="M143.17,424.49c-2.27-2.28-3.4-5.52-3.4-9.71s1.13-7.43,3.4-9.71c2.27-2.28,5.6-3.42,9.99-3.42s7.72,1.14,9.99,3.42
			c2.27,2.28,3.4,5.52,3.4,9.71s-1.13,7.43-3.4,9.71c-2.27,2.28-5.6,3.42-9.99,3.42S145.44,426.77,143.17,424.49z M156.64,419.97
			c0.72-1.15,1.07-2.88,1.07-5.2c0-2.34-0.36-4.08-1.07-5.22s-1.87-1.7-3.48-1.7s-2.76,0.57-3.48,1.7s-1.07,2.87-1.07,5.22
			c0,2.32,0.36,4.05,1.07,5.2c0.71,1.15,1.88,1.72,3.48,1.72S155.92,421.12,156.64,419.97z"/>
		<path d="M168.9,426.83c-0.33-0.35-0.5-0.88-0.5-1.59v-20.98c0-0.71,0.17-1.24,0.5-1.57s0.92-0.5,1.76-0.5h3.52
			c0.52,0,0.92,0.07,1.2,0.2c0.28,0.14,0.56,0.4,0.83,0.79l6.7,9.95v-8.84c0-0.72,0.17-1.25,0.5-1.59s0.91-0.52,1.72-0.52h4.4
			c0.84,0,1.42,0.17,1.76,0.5c0.33,0.33,0.5,0.87,0.5,1.61v20.98c0,0.72-0.17,1.24-0.5,1.57c-0.33,0.33-0.92,0.5-1.76,0.5h-3.52
			c-0.52,0-0.92-0.07-1.2-0.2c-0.28-0.14-0.56-0.4-0.83-0.8l-6.7-9.95v8.88c0,0.72-0.17,1.24-0.5,1.57s-0.92,0.5-1.76,0.5h-4.4
			C169.81,427.35,169.24,427.18,168.9,426.83z"/>
		<path d="M193.64,426.58c0-0.22,0.06-0.49,0.18-0.81l9.21-22.16c0.22-0.52,0.47-0.88,0.76-1.09c0.28-0.21,0.68-0.31,1.2-0.31h4.03
			c0.52,0,0.92,0.11,1.2,0.31c0.28,0.21,0.54,0.57,0.76,1.09l9.18,22.16c0.12,0.32,0.18,0.59,0.18,0.81c0,0.52-0.27,0.78-0.81,0.78
			h-6.96c-0.76,0-1.25-0.33-1.44-1l-0.89-2.74h-6.55l-0.85,2.74c-0.2,0.67-0.68,1-1.44,1h-6.96
			C193.91,427.35,193.64,427.09,193.64,426.58z M208.44,417.77l-1.44-4.59l-1.44,4.59H208.44z"/>
		<path d="M222.7,426.83c-0.33-0.35-0.5-0.88-0.5-1.59V404.3c0-0.72,0.17-1.25,0.5-1.59s0.91-0.52,1.72-0.52h4.4
			c0.84,0,1.42,0.17,1.76,0.5s0.5,0.87,0.5,1.61v16.76h8.62c0.79,0,1.33,0.17,1.61,0.5c0.28,0.33,0.43,0.87,0.43,1.61v2.07
			c0,0.74-0.14,1.28-0.43,1.61c-0.28,0.33-0.82,0.5-1.61,0.5h-15.28C223.61,427.35,223.03,427.18,222.7,426.83z"/>
		<path d="M243.35,426.83c-0.33-0.35-0.5-0.88-0.5-1.59V404.3c0-0.72,0.17-1.25,0.5-1.59c0.33-0.35,0.91-0.52,1.72-0.52h4.4
			c0.84,0,1.42,0.17,1.76,0.5c0.33,0.33,0.5,0.87,0.5,1.61v20.94c0,0.72-0.17,1.25-0.5,1.59c-0.33,0.35-0.92,0.52-1.76,0.52h-4.4
			C244.25,427.35,243.68,427.18,243.35,426.83z"/>
		<path d="M254.82,426.83c-0.33-0.35-0.5-0.88-0.5-1.59V404.3c0-0.72,0.17-1.25,0.5-1.59c0.33-0.35,0.91-0.52,1.72-0.52h8.51
			c8.71,0,13.06,4.19,13.06,12.58c0,4.14-1.12,7.28-3.35,9.4s-5.47,3.18-9.71,3.18h-8.51C255.72,427.35,255.15,427.18,254.82,426.83
			z M265.38,421.06c1.38,0,2.37-0.46,2.98-1.37c0.6-0.91,0.91-2.55,0.91-4.92s-0.3-4.01-0.91-4.92c-0.61-0.91-1.6-1.37-2.98-1.37
			h-2.18v12.58H265.38z"/>
		<path d="M277.55,426.58c0-0.22,0.06-0.49,0.18-0.81l9.21-22.16c0.22-0.52,0.47-0.88,0.76-1.09c0.28-0.21,0.68-0.31,1.2-0.31h4.03
			c0.52,0,0.92,0.11,1.2,0.31c0.28,0.21,0.54,0.57,0.76,1.09l9.18,22.16c0.12,0.32,0.19,0.59,0.19,0.81c0,0.52-0.27,0.78-0.81,0.78
			h-6.96c-0.77,0-1.25-0.33-1.44-1l-0.89-2.74h-6.55l-0.85,2.74c-0.2,0.67-0.68,1-1.44,1h-6.96
			C277.82,427.35,277.55,427.09,277.55,426.58z M292.35,417.77l-1.44-4.59l-1.44,4.59H292.35z"/>
		<path d="M306.62,426.83c-0.33-0.35-0.5-0.88-0.5-1.59V404.3c0-0.72,0.17-1.25,0.5-1.59c0.33-0.35,0.91-0.52,1.72-0.52h8.51
			c8.71,0,13.06,4.19,13.06,12.58c0,4.14-1.12,7.28-3.35,9.4s-5.47,3.18-9.71,3.18h-8.51C307.52,427.35,306.95,427.18,306.62,426.83
			z M317.18,421.06c1.38,0,2.38-0.46,2.98-1.37c0.6-0.91,0.91-2.55,0.91-4.92s-0.3-4.01-0.91-4.92c-0.6-0.91-1.6-1.37-2.98-1.37H315
			v12.58H317.18z"/>
		<path d="M332.26,426.83c-0.33-0.35-0.5-0.88-0.5-1.59V404.3c0-0.72,0.17-1.25,0.5-1.59s0.91-0.52,1.72-0.52h15.32
			c0.79,0,1.33,0.17,1.61,0.5c0.28,0.33,0.43,0.87,0.43,1.61v2.07c0,0.74-0.14,1.28-0.43,1.61c-0.28,0.33-0.82,0.5-1.61,0.5h-8.66
			v3.18h5.33c0.79,0,1.33,0.17,1.61,0.5c0.28,0.33,0.43,0.87,0.43,1.61v2c0,0.74-0.14,1.28-0.43,1.61c-0.28,0.33-0.82,0.5-1.61,0.5
			h-5.33v3.18h8.62c0.79,0,1.33,0.17,1.61,0.5c0.28,0.33,0.43,0.87,0.43,1.61v2.07c0,0.74-0.14,1.28-0.43,1.61
			c-0.28,0.33-0.82,0.5-1.61,0.5h-15.28C333.16,427.35,332.59,427.18,332.26,426.83z"/>
		<path d="M357.7,427.2c-1.92-0.47-3.48-1.12-4.66-1.96c-0.49-0.34-0.74-0.68-0.74-1c0-0.22,0.09-0.46,0.26-0.7l2.15-3.37
			c0.22-0.32,0.44-0.48,0.67-0.48c0.2,0,0.43,0.09,0.7,0.26c0.89,0.54,1.91,0.97,3.05,1.28s2.26,0.46,3.35,0.46
			c0.91,0,1.57-0.12,1.98-0.37c0.41-0.25,0.61-0.63,0.61-1.15c0-0.57-0.27-1.02-0.81-1.37c-0.54-0.35-1.48-0.78-2.81-1.29
			c-2.49-0.96-4.45-2.05-5.88-3.27c-1.43-1.22-2.15-2.84-2.15-4.87c0-2.56,0.89-4.5,2.68-5.79s4.2-1.94,7.23-1.94
			c2.12,0,3.93,0.18,5.42,0.55c1.49,0.37,2.79,0.95,3.9,1.74c0.49,0.35,0.74,0.68,0.74,1c0,0.22-0.09,0.46-0.26,0.7l-2.15,3.37
			c-0.22,0.35-0.44,0.52-0.67,0.52c-0.15,0-0.38-0.1-0.7-0.3c-0.59-0.39-1.3-0.72-2.11-0.98c-0.81-0.26-1.69-0.39-2.63-0.39
			c-0.86,0-1.52,0.12-1.96,0.37c-0.44,0.25-0.67,0.64-0.67,1.18c0,0.44,0.15,0.81,0.46,1.11c0.31,0.3,0.7,0.55,1.17,0.76
			s1.28,0.55,2.44,1.02c1.85,0.74,3.3,1.45,4.37,2.13c1.06,0.68,1.86,1.49,2.41,2.44c0.54,0.95,0.81,2.15,0.81,3.61
			c0,2.22-0.83,4.01-2.5,5.38c-1.67,1.37-4.15,2.05-7.46,2.05C361.7,427.91,359.62,427.67,357.7,427.2z"/>
		<path d="M39.96,471.6c-1.92-0.47-3.48-1.12-4.66-1.96c-0.49-0.34-0.74-0.68-0.74-1c0-0.22,0.09-0.46,0.26-0.7l2.15-3.37
			c0.22-0.32,0.44-0.48,0.67-0.48c0.2,0,0.43,0.09,0.7,0.26c0.89,0.54,1.91,0.97,3.05,1.28c1.15,0.31,2.26,0.46,3.35,0.46
			c0.91,0,1.57-0.12,1.98-0.37c0.41-0.25,0.61-0.63,0.61-1.15c0-0.57-0.27-1.02-0.81-1.37c-0.54-0.35-1.48-0.78-2.81-1.29
			c-2.49-0.96-4.45-2.05-5.88-3.27c-1.43-1.22-2.15-2.84-2.15-4.87c0-2.56,0.89-4.5,2.68-5.79c1.79-1.29,4.2-1.94,7.23-1.94
			c2.12,0,3.93,0.18,5.42,0.55s2.79,0.95,3.9,1.74c0.49,0.35,0.74,0.68,0.74,1c0,0.22-0.09,0.46-0.26,0.7l-2.15,3.37
			c-0.22,0.35-0.44,0.52-0.67,0.52c-0.15,0-0.38-0.1-0.7-0.3c-0.59-0.39-1.3-0.72-2.11-0.98s-1.69-0.39-2.63-0.39
			c-0.86,0-1.52,0.12-1.96,0.37c-0.44,0.25-0.67,0.64-0.67,1.18c0,0.44,0.15,0.81,0.46,1.11s0.7,0.55,1.17,0.76s1.28,0.55,2.44,1.02
			c1.85,0.74,3.3,1.45,4.37,2.13c1.06,0.68,1.86,1.49,2.4,2.44s0.81,2.15,0.81,3.61c0,2.22-0.83,4.01-2.5,5.38
			c-1.66,1.37-4.15,2.05-7.46,2.05C43.97,472.31,41.88,472.07,39.96,471.6z"/>
		<path d="M58.52,471.23c-0.33-0.35-0.5-0.88-0.5-1.59V448.7c0-0.72,0.17-1.25,0.5-1.59c0.33-0.35,0.91-0.52,1.72-0.52h15.32
			c0.79,0,1.33,0.17,1.61,0.5c0.28,0.33,0.43,0.87,0.43,1.61v2.07c0,0.74-0.14,1.28-0.43,1.61c-0.28,0.33-0.82,0.5-1.61,0.5H66.9
			v3.18h5.33c0.79,0,1.33,0.17,1.61,0.5s0.43,0.87,0.43,1.61v2c0,0.74-0.14,1.28-0.43,1.61s-0.82,0.5-1.61,0.5H66.9v3.18h8.62
			c0.79,0,1.33,0.17,1.61,0.5s0.43,0.87,0.43,1.61v2.07c0,0.74-0.14,1.28-0.43,1.61s-0.82,0.5-1.61,0.5H60.24
			C59.42,471.75,58.85,471.58,58.52,471.23z"/>
		<path d="M80.58,469c-2.49-2.21-3.74-5.48-3.74-9.82c0-4.32,1.25-7.58,3.74-9.8c2.49-2.22,5.97-3.33,10.43-3.33
			c2.02,0,3.83,0.2,5.44,0.59c1.6,0.39,2.93,0.95,4,1.67c0.3,0.22,0.44,0.47,0.44,0.74c0,0.22-0.11,0.53-0.33,0.92l-1.85,3.18
			c-0.2,0.35-0.43,0.52-0.7,0.52c-0.17,0-0.46-0.1-0.85-0.3c-1.48-0.74-3.11-1.11-4.88-1.11c-2.05,0-3.66,0.59-4.83,1.76
			c-1.17,1.17-1.76,2.89-1.76,5.16c0,2.34,0.49,4.08,1.48,5.2c0.99,1.12,2.45,1.68,4.4,1.68c0.34,0,0.73-0.03,1.17-0.09
			s0.78-0.13,1.05-0.2v-3.37h-2.37c-0.79,0-1.33-0.15-1.61-0.46s-0.43-0.83-0.43-1.57v-2.03c0-0.74,0.14-1.26,0.43-1.57
			c0.28-0.31,0.82-0.46,1.61-0.46h7.96c0.96,0,1.63,0.22,2,0.65s0.55,1.12,0.55,2.05v8.66c0,0.54-0.07,0.96-0.2,1.24
			c-0.14,0.28-0.4,0.57-0.79,0.87c-2.37,1.7-5.66,2.55-9.88,2.55C86.57,472.31,83.08,471.2,80.58,469z"/>
		<path d="M110.48,471.14c-1.83-0.78-3.24-1.9-4.25-3.37c-1.01-1.47-1.52-3.21-1.52-5.24V448.7c0-0.72,0.17-1.25,0.5-1.59
			c0.33-0.35,0.91-0.52,1.72-0.52h4.4c0.84,0,1.42,0.17,1.76,0.5c0.33,0.33,0.5,0.87,0.5,1.61v13.95c0,1.16,0.29,2.02,0.87,2.59
			c0.58,0.57,1.37,0.85,2.39,0.85c1.01,0,1.81-0.28,2.39-0.85c0.58-0.57,0.87-1.43,0.87-2.59V448.7c0-0.72,0.17-1.25,0.5-1.59
			c0.33-0.35,0.91-0.52,1.72-0.52h4.4c0.84,0,1.42,0.17,1.76,0.5s0.5,0.87,0.5,1.61v13.84c0,2.02-0.51,3.77-1.52,5.24
			c-1.01,1.47-2.43,2.59-4.25,3.37c-1.83,0.78-3.95,1.17-6.36,1.17S112.31,471.92,110.48,471.14z M113.07,443.48
			c0-0.2,0.04-0.41,0.11-0.63l1.55-4.29c0.2-0.57,0.43-0.95,0.7-1.15c0.27-0.2,0.78-0.3,1.52-0.3h5.29c0.52,0,0.93,0.09,1.22,0.28
			s0.44,0.45,0.44,0.8c0,0.3-0.1,0.6-0.3,0.92l-2.37,4c-0.35,0.59-0.68,0.97-1,1.15c-0.32,0.17-0.9,0.26-1.74,0.26h-3.96
			C113.56,444.52,113.07,444.17,113.07,443.48z"/>
		<path d="M130.78,471.23c-0.33-0.35-0.5-0.88-0.5-1.59v-20.98c0-0.71,0.17-1.24,0.5-1.57c0.33-0.33,0.92-0.5,1.76-0.5h3.51
			c0.52,0,0.92,0.07,1.2,0.2s0.56,0.4,0.83,0.79l6.7,9.95v-8.84c0-0.72,0.17-1.25,0.5-1.59c0.33-0.35,0.91-0.52,1.72-0.52h4.4
			c0.84,0,1.42,0.17,1.76,0.5s0.5,0.87,0.5,1.61v20.98c0,0.72-0.17,1.24-0.5,1.57s-0.92,0.5-1.76,0.5h-3.51
			c-0.52,0-0.92-0.07-1.2-0.2c-0.29-0.14-0.56-0.4-0.83-0.8l-6.7-9.95v8.88c0,0.72-0.17,1.24-0.5,1.57c-0.33,0.33-0.92,0.5-1.76,0.5
			h-4.4C131.68,471.75,131.11,471.58,130.78,471.23z"/>
		<path d="M167.85,471.23c-0.33-0.35-0.5-0.88-0.5-1.59v-20.98c0-0.71,0.17-1.24,0.5-1.57c0.33-0.33,0.92-0.5,1.76-0.5h3.52
			c0.52,0,0.92,0.07,1.2,0.2c0.28,0.14,0.56,0.4,0.83,0.79l6.7,9.95v-8.84c0-0.72,0.17-1.25,0.5-1.59c0.33-0.35,0.91-0.52,1.72-0.52
			h4.4c0.84,0,1.42,0.17,1.76,0.5s0.5,0.87,0.5,1.61v20.98c0,0.72-0.17,1.24-0.5,1.57s-0.92,0.5-1.76,0.5h-3.51
			c-0.52,0-0.92-0.07-1.2-0.2s-0.56-0.4-0.83-0.8l-6.7-9.95v8.88c0,0.72-0.17,1.24-0.5,1.57c-0.33,0.33-0.92,0.5-1.76,0.5h-4.4
			C168.75,471.75,168.18,471.58,167.85,471.23z"/>
		<path d="M193.82,471.23c-0.33-0.35-0.5-0.88-0.5-1.59V448.7c0-0.72,0.17-1.25,0.5-1.59s0.91-0.52,1.72-0.52h15.32
			c0.79,0,1.33,0.17,1.61,0.5c0.28,0.33,0.43,0.87,0.43,1.61v2.07c0,0.74-0.14,1.28-0.43,1.61c-0.28,0.33-0.82,0.5-1.61,0.5h-8.66
			v3.18h5.33c0.79,0,1.33,0.17,1.61,0.5c0.28,0.33,0.43,0.87,0.43,1.61v2c0,0.74-0.14,1.28-0.43,1.61c-0.28,0.33-0.82,0.5-1.61,0.5
			h-5.33v3.18h8.62c0.79,0,1.33,0.17,1.61,0.5c0.28,0.33,0.43,0.87,0.43,1.61v2.07c0,0.74-0.14,1.28-0.43,1.61
			c-0.28,0.33-0.82,0.5-1.61,0.5h-15.28C194.73,471.75,194.16,471.58,193.82,471.23z"/>
		<path d="M215.89,469c-2.49-2.21-3.74-5.48-3.74-9.82c0-4.37,1.2-7.65,3.61-9.84c2.4-2.2,5.84-3.29,10.3-3.29
			c2.02,0,3.82,0.2,5.4,0.59c1.58,0.39,2.9,0.95,3.96,1.67c0.3,0.22,0.44,0.47,0.44,0.74c0,0.22-0.11,0.53-0.33,0.92l-1.85,3.18
			c-0.2,0.35-0.43,0.52-0.7,0.52c-0.17,0-0.46-0.1-0.85-0.3c-0.69-0.35-1.41-0.62-2.17-0.81c-0.75-0.2-1.63-0.3-2.64-0.3
			c-2.05,0-3.61,0.59-4.7,1.78c-1.09,1.18-1.63,2.9-1.63,5.14c0,2.22,0.59,3.93,1.78,5.13c1.18,1.2,2.8,1.79,4.85,1.79
			c1.78,0,3.4-0.37,4.88-1.11c0.39-0.2,0.68-0.3,0.85-0.3c0.27,0,0.5,0.17,0.7,0.52l1.85,3.18c0.22,0.4,0.33,0.7,0.33,0.92
			c0,0.27-0.15,0.52-0.44,0.74c-1.06,0.72-2.39,1.27-4,1.67s-3.42,0.59-5.44,0.59C221.87,472.31,218.38,471.2,215.89,469z"/>
		<path d="M238.59,471.23c-0.33-0.35-0.5-0.88-0.5-1.59V448.7c0-0.72,0.17-1.25,0.5-1.59s0.91-0.52,1.72-0.52h15.32
			c0.79,0,1.33,0.17,1.61,0.5c0.28,0.33,0.43,0.87,0.43,1.61v2.07c0,0.74-0.14,1.28-0.43,1.61c-0.28,0.33-0.82,0.5-1.61,0.5h-8.66
			v3.18h5.33c0.79,0,1.33,0.17,1.61,0.5c0.28,0.33,0.43,0.87,0.43,1.61v2c0,0.74-0.14,1.28-0.43,1.61c-0.28,0.33-0.82,0.5-1.61,0.5
			h-5.33v3.18h8.62c0.79,0,1.33,0.17,1.61,0.5c0.28,0.33,0.43,0.87,0.43,1.61v2.07c0,0.74-0.14,1.28-0.43,1.61
			c-0.28,0.33-0.82,0.5-1.61,0.5h-15.28C239.5,471.75,238.92,471.58,238.59,471.23z"/>
		<path d="M264.03,471.6c-1.92-0.47-3.48-1.12-4.66-1.96c-0.49-0.34-0.74-0.68-0.74-1c0-0.22,0.09-0.46,0.26-0.7l2.15-3.37
			c0.22-0.32,0.44-0.48,0.67-0.48c0.2,0,0.43,0.09,0.7,0.26c0.89,0.54,1.91,0.97,3.05,1.28c1.15,0.31,2.26,0.46,3.35,0.46
			c0.91,0,1.57-0.12,1.98-0.37c0.41-0.25,0.61-0.63,0.61-1.15c0-0.57-0.27-1.02-0.81-1.37s-1.48-0.78-2.81-1.29
			c-2.49-0.96-4.45-2.05-5.88-3.27c-1.43-1.22-2.15-2.84-2.15-4.87c0-2.56,0.89-4.5,2.68-5.79c1.79-1.29,4.2-1.94,7.23-1.94
			c2.12,0,3.93,0.18,5.42,0.55c1.49,0.37,2.79,0.95,3.9,1.74c0.49,0.35,0.74,0.68,0.74,1c0,0.22-0.09,0.46-0.26,0.7l-2.15,3.37
			c-0.22,0.35-0.44,0.52-0.67,0.52c-0.15,0-0.38-0.1-0.7-0.3c-0.59-0.39-1.29-0.72-2.11-0.98s-1.69-0.39-2.63-0.39
			c-0.86,0-1.52,0.12-1.96,0.37c-0.44,0.25-0.67,0.64-0.67,1.18c0,0.44,0.15,0.81,0.46,1.11c0.31,0.3,0.7,0.55,1.17,0.76
			c0.47,0.21,1.28,0.55,2.44,1.02c1.85,0.74,3.3,1.45,4.37,2.13c1.06,0.68,1.86,1.49,2.41,2.44c0.54,0.95,0.81,2.15,0.81,3.61
			c0,2.22-0.83,4.01-2.5,5.38c-1.67,1.37-4.15,2.05-7.46,2.05C268.04,472.31,265.95,472.07,264.03,471.6z"/>
		<path d="M282.58,471.23c-0.33-0.35-0.5-0.88-0.5-1.59V448.7c0-0.72,0.17-1.25,0.5-1.59s0.91-0.52,1.72-0.52h4.4
			c0.84,0,1.42,0.17,1.76,0.5s0.5,0.87,0.5,1.61v20.94c0,0.72-0.17,1.25-0.5,1.59s-0.92,0.52-1.76,0.52h-4.4
			C283.49,471.75,282.92,471.58,282.58,471.23z"/>
		<path d="M294.05,471.23c-0.33-0.35-0.5-0.88-0.5-1.59V448.7c0-0.72,0.17-1.25,0.5-1.59c0.33-0.35,0.91-0.52,1.72-0.52h8.51
			c8.71,0,13.06,4.19,13.06,12.58c0,4.14-1.12,7.28-3.35,9.4s-5.47,3.18-9.71,3.18h-8.51C294.96,471.75,294.39,471.58,294.05,471.23
			z M304.62,465.46c1.38,0,2.38-0.46,2.98-1.37c0.6-0.91,0.91-2.55,0.91-4.92s-0.3-4.01-0.91-4.92c-0.6-0.91-1.6-1.37-2.98-1.37
			h-2.18v12.58H304.62z"/>
		<path d="M316.79,470.97c0-0.22,0.06-0.49,0.18-0.81l9.21-22.16c0.22-0.52,0.47-0.88,0.76-1.09c0.28-0.21,0.68-0.31,1.2-0.31h4.03
			c0.52,0,0.92,0.11,1.2,0.31c0.28,0.21,0.54,0.57,0.76,1.09l9.18,22.16c0.12,0.32,0.18,0.59,0.18,0.81c0,0.52-0.27,0.78-0.81,0.78
			h-6.96c-0.76,0-1.25-0.33-1.44-1l-0.89-2.74h-6.55l-0.85,2.74c-0.2,0.67-0.68,1-1.44,1h-6.96
			C317.06,471.75,316.79,471.49,316.79,470.97z M331.59,462.17l-1.44-4.59l-1.44,4.59H331.59z"/>
		<path d="M345.85,471.23c-0.33-0.35-0.5-0.88-0.5-1.59V448.7c0-0.72,0.17-1.25,0.5-1.59c0.33-0.35,0.91-0.52,1.72-0.52h8.51
			c8.71,0,13.06,4.19,13.06,12.58c0,4.14-1.12,7.28-3.35,9.4s-5.47,3.18-9.71,3.18h-8.51C346.76,471.75,346.19,471.58,345.85,471.23
			z M356.42,465.46c1.38,0,2.37-0.46,2.98-1.37c0.6-0.91,0.91-2.55,0.91-4.92s-0.3-4.01-0.91-4.92c-0.61-0.91-1.6-1.37-2.98-1.37
			h-2.18v12.58H356.42z"/>
		<path d="M89.82,515.63c-0.33-0.35-0.5-0.88-0.5-1.59V493.1c0-0.72,0.17-1.25,0.5-1.59c0.33-0.35,0.91-0.52,1.72-0.52h8.51
			c8.71,0,13.06,4.19,13.06,12.58c0,4.14-1.12,7.28-3.35,9.4s-5.47,3.18-9.71,3.18h-8.51C90.72,516.15,90.15,515.98,89.82,515.63z
			 M100.38,509.86c1.38,0,2.37-0.46,2.98-1.37c0.6-0.91,0.91-2.55,0.91-4.92s-0.3-4.01-0.91-4.92c-0.61-0.91-1.6-1.37-2.98-1.37
			H98.2v12.58H100.38z"/>
		<path d="M115.46,515.63c-0.33-0.35-0.5-0.88-0.5-1.59V493.1c0-0.72,0.17-1.25,0.5-1.59c0.33-0.35,0.91-0.52,1.72-0.52h15.32
			c0.79,0,1.33,0.17,1.61,0.5s0.43,0.87,0.43,1.61v2.07c0,0.74-0.14,1.28-0.43,1.61s-0.82,0.5-1.61,0.5h-8.66v3.18h5.33
			c0.79,0,1.33,0.17,1.61,0.5s0.43,0.87,0.43,1.61v2c0,0.74-0.14,1.28-0.43,1.61s-0.82,0.5-1.61,0.5h-5.33v3.18h8.62
			c0.79,0,1.33,0.17,1.61,0.5s0.43,0.87,0.43,1.61v2.07c0,0.74-0.14,1.28-0.43,1.61s-0.82,0.5-1.61,0.5h-15.28
			C116.36,516.15,115.79,515.98,115.46,515.63z"/>
		<path d="M136.7,515.63c-0.33-0.35-0.5-0.88-0.5-1.59V493.1c0-0.72,0.17-1.25,0.5-1.59s0.91-0.52,1.72-0.52h4.4
			c0.84,0,1.42,0.17,1.76,0.5s0.5,0.87,0.5,1.61v16.76h8.62c0.79,0,1.33,0.17,1.61,0.5c0.28,0.33,0.43,0.87,0.43,1.61v2.07
			c0,0.74-0.14,1.28-0.43,1.61c-0.28,0.33-0.82,0.5-1.61,0.5h-15.28C137.6,516.15,137.03,515.98,136.7,515.63z"/>
		<path d="M170.94,513.4c-2.49-2.21-3.74-5.48-3.74-9.82c0-4.37,1.2-7.65,3.61-9.84c2.41-2.2,5.84-3.29,10.3-3.29
			c2.02,0,3.82,0.2,5.4,0.59c1.58,0.39,2.9,0.95,3.96,1.67c0.3,0.22,0.44,0.47,0.44,0.74c0,0.22-0.11,0.53-0.33,0.92l-1.85,3.18
			c-0.2,0.35-0.43,0.52-0.7,0.52c-0.17,0-0.46-0.1-0.85-0.3c-0.69-0.35-1.41-0.62-2.16-0.81c-0.75-0.2-1.63-0.3-2.65-0.3
			c-2.05,0-3.61,0.59-4.7,1.78c-1.08,1.18-1.63,2.9-1.63,5.14c0,2.22,0.59,3.93,1.78,5.13s2.8,1.79,4.85,1.79
			c1.78,0,3.4-0.37,4.88-1.11c0.39-0.2,0.68-0.3,0.85-0.3c0.27,0,0.51,0.17,0.7,0.52l1.85,3.18c0.22,0.4,0.33,0.7,0.33,0.92
			c0,0.27-0.15,0.52-0.44,0.74c-1.06,0.72-2.39,1.27-4,1.67c-1.6,0.39-3.42,0.59-5.44,0.59C176.92,516.71,173.43,515.6,170.94,513.4
			z"/>
		<path d="M193.64,515.63c-0.33-0.35-0.5-0.88-0.5-1.59V493.1c0-0.72,0.17-1.25,0.5-1.59s0.91-0.52,1.72-0.52h4.4
			c0.84,0,1.42,0.17,1.76,0.5s0.5,0.87,0.5,1.61v16.76h8.62c0.79,0,1.33,0.17,1.61,0.5c0.28,0.33,0.43,0.87,0.43,1.61v2.07
			c0,0.74-0.14,1.28-0.43,1.61c-0.28,0.33-0.82,0.5-1.61,0.5h-15.28C194.54,516.15,193.97,515.98,193.64,515.63z"/>
		<path d="M214.28,515.63c-0.33-0.35-0.5-0.88-0.5-1.59V493.1c0-0.72,0.17-1.25,0.5-1.59c0.33-0.35,0.91-0.52,1.72-0.52h4.4
			c0.84,0,1.42,0.17,1.76,0.5c0.33,0.33,0.5,0.87,0.5,1.61v20.94c0,0.72-0.17,1.25-0.5,1.59c-0.33,0.35-0.92,0.52-1.76,0.52H216
			C215.19,516.15,214.62,515.98,214.28,515.63z"/>
		<path d="M225.75,515.63c-0.33-0.35-0.5-0.88-0.5-1.59V493.1c0-0.72,0.17-1.25,0.5-1.59c0.33-0.35,0.91-0.52,1.72-0.52h15.32
			c0.79,0,1.33,0.17,1.61,0.5c0.28,0.33,0.43,0.87,0.43,1.61v2.07c0,0.74-0.14,1.28-0.43,1.61c-0.28,0.33-0.82,0.5-1.61,0.5h-8.66
			v3.18h5.33c0.79,0,1.33,0.17,1.61,0.5s0.43,0.87,0.43,1.61v2c0,0.74-0.14,1.28-0.43,1.61s-0.82,0.5-1.61,0.5h-5.33v3.18h8.62
			c0.79,0,1.33,0.17,1.61,0.5s0.43,0.87,0.43,1.61v2.07c0,0.74-0.14,1.28-0.43,1.61s-0.82,0.5-1.61,0.5h-15.28
			C226.66,516.15,226.09,515.98,225.75,515.63z"/>
		<path d="M246.99,515.63c-0.33-0.35-0.5-0.88-0.5-1.59v-20.98c0-0.71,0.17-1.24,0.5-1.57s0.92-0.5,1.76-0.5h3.52
			c0.52,0,0.92,0.07,1.2,0.2c0.28,0.14,0.56,0.4,0.83,0.79l6.7,9.95v-8.84c0-0.72,0.17-1.25,0.5-1.59s0.91-0.52,1.72-0.52h4.4
			c0.84,0,1.42,0.17,1.76,0.5c0.33,0.33,0.5,0.87,0.5,1.61v20.98c0,0.72-0.17,1.24-0.5,1.57c-0.33,0.33-0.92,0.5-1.76,0.5h-3.52
			c-0.52,0-0.92-0.07-1.2-0.2c-0.28-0.14-0.56-0.4-0.83-0.8l-6.7-9.95v8.88c0,0.72-0.17,1.24-0.5,1.57s-0.92,0.5-1.76,0.5h-4.4
			C247.9,516.15,247.32,515.98,246.99,515.63z"/>
		<path d="M278.85,515.63c-0.33-0.35-0.5-0.88-0.5-1.59v-16.76h-5.33c-0.79,0-1.33-0.17-1.61-0.5c-0.28-0.33-0.43-0.87-0.43-1.61
			v-2.07c0-0.74,0.14-1.28,0.43-1.61c0.28-0.33,0.82-0.5,1.61-0.5h19.54c0.79,0,1.33,0.17,1.61,0.5s0.43,0.87,0.43,1.61v2.07
			c0,0.74-0.14,1.28-0.43,1.61s-0.82,0.5-1.61,0.5h-5.33v16.76c0,0.72-0.17,1.25-0.5,1.59s-0.92,0.52-1.76,0.52h-4.4
			C279.75,516.15,279.18,515.98,278.85,515.63z"/>
		<path d="M296.2,515.63c-0.33-0.35-0.5-0.88-0.5-1.59V493.1c0-0.72,0.17-1.25,0.5-1.59c0.33-0.35,0.91-0.52,1.72-0.52h15.32
			c0.79,0,1.33,0.17,1.61,0.5c0.28,0.33,0.43,0.87,0.43,1.61v2.07c0,0.74-0.14,1.28-0.43,1.61c-0.28,0.33-0.82,0.5-1.61,0.5h-8.66
			v3.18h5.33c0.79,0,1.33,0.17,1.61,0.5s0.43,0.87,0.43,1.61v2c0,0.74-0.14,1.28-0.43,1.61s-0.82,0.5-1.61,0.5h-5.33v3.18h8.62
			c0.79,0,1.33,0.17,1.61,0.5s0.43,0.87,0.43,1.61v2.07c0,0.74-0.14,1.28-0.43,1.61s-0.82,0.5-1.61,0.5h-15.28
			C297.11,516.15,296.53,515.98,296.2,515.63z"/>
	</g>
	<circle id="XMLID_107_" class="st4" cx="200.73" cy="201.96" r="82.04"/>
	<path id="XMLID_105_" class="st5" d="M200.68,219.54c6.53,0,12.37-4.25,14.39-4.68c-0.17-1.44-0.2-2.74-0.19-3.81
		c-4.97,4.19-7.16,5.62-13.75,5.39c-6.85,0.24-8.95-1.32-14.35-5.9c0.02,1.16,0.02,2.67-0.19,4.37
		C188.76,215.55,194.36,219.53,200.68,219.54L200.68,219.54z"/>
	<path id="XMLID_103_" class="st49" d="M254.64,237.74c-1.29-1.35-11.06-3.18-17.37-5.87c-7.02-2.99-14.24-5.4-17.85-8.32h0
		c-0.05,0.07-0.1,0.14-0.17,0.2c-7.42,7.26-18.56,6.71-18.56,6.71v-0.01c0,0-11.05,0.56-18.47-6.7c-0.07-0.07-0.12-0.14-0.17-0.2h0
		c-3.62,2.93-10.83,5.33-17.85,8.32c-6.63,2.82-17.08,4.71-17.5,6.07c7.64-3.08,11.62,18.5,13.1,35.1
		C171.83,280,185.81,284,200.73,284c15.1,0,29.23-4.09,41.38-11.21C243.56,256.62,247.38,235.86,254.64,237.74z"/>
	<path id="XMLID_101_" class="st12" d="M201.13,216.44c6.59,0.23,8.78-1.21,13.75-5.39c0.39-0.33,0.78-0.66,1.21-1.02
		c6.16-5.23,3.06-16.15,6.8-15.46s8.02-9.67,5.08-11.94c-0.06-0.05-0.12-0.08-0.18-0.12l0,0c-1.47-0.51-2.63,0.77-3.71,2.59
		c-1.08,1.82-0.66,4.62-1.74,4.56c-1.45-4.92-1.13-9.3-0.84-14.41c-10.08,2.96-20.46,4.49-28.86-1.67
		c-1.72-1.26-3.39-2.92-5.99-2.88c-3.01,0.05-4.22,1.84-3.8,4.73c0.21,1.45,0.32,3.41,0.4,4.27c0.29,3.01-1.58,6.71-2.27,7.42
		c-0.45,0.46-1.54,2.38-2.2,2.54c-0.54,0.13-0.17-3.01-1.97-5.72c-1.02-1.53-1.63-1.72-1.91-1.71c-0.19,0.11-0.39,0.24-0.6,0.4
		c-2.94,2.27,1.34,12.62,5.08,11.94c3.74-0.68,0.64,10.23,6.8,15.46c0.21,0.18,0.4,0.34,0.6,0.51
		C192.18,215.12,194.28,216.68,201.13,216.44z"/>
	<path id="XMLID_99_" class="st50" d="M146.69,237.94c-0.11,0.05-0.23,0.07-0.34,0.13c-1.69,0.84-4.94,6.52-7.48,17.73
		c5.96,6.84,13.02,12.67,20.92,17.23C158.3,256.44,154.32,234.86,146.69,237.94z"/>
	<path id="XMLID_97_" class="st50" d="M255.52,238.07c-0.3-0.15-0.59-0.25-0.88-0.33c-7.25-1.88-11.08,18.88-12.54,35.05
		c7.87-4.61,14.9-10.49,20.81-17.36C260.39,244.47,257.19,238.9,255.52,238.07z"/>
	<path id="XMLID_95_" class="st50" d="M200.68,230.46v0.01c0,0,11.13,0.55,18.56-6.71c0.07-0.07,0.12-0.14,0.17-0.2
		c0.91-1.26-1.47-2.59-1.77-4.02c-0.32-1.52-0.54-5.01-2.46-4.7c-0.03,0.01-0.07,0.02-0.11,0.03c-2.02,0.43-7.85,4.68-14.39,4.68
		v-0.01c-6.33,0-11.92-3.97-14.1-4.62c-0.11-0.03-0.22-0.06-0.31-0.08c-1.92-0.31-2.14,3.18-2.46,4.7c-0.3,1.44-2.68,2.76-1.77,4.02
		c0.05,0.07,0.1,0.14,0.17,0.2C189.64,231.01,200.68,230.46,200.68,230.46z"/>
	<path id="XMLID_77_" class="st144" d="M176.8,183.93c1.79,2.71,1.43,5.85,1.97,5.72c0.65-0.16,1.75-2.08,2.2-2.54
		c0.69-0.71,2.56-4.41,2.27-7.42c-0.08-0.86-0.19-2.82-0.4-4.27c-0.42-2.89,0.79-4.68,3.8-4.73c2.61-0.04,4.27,1.62,5.99,2.88
		c8.4,6.17,18.78,4.63,28.86,1.67c-0.28,5.11-0.61,9.49,0.84,14.41c1.07,0.07,0.65-2.74,1.74-4.56c1.08-1.82,2.24-3.1,3.71-2.59l0,0
		c2.99-6.37,3.31-16.72,0.35-23.1c-2.96-6.38-7.69-9.37-12.37-14.69c0.43,1.44-1.52,3.6-3.36,3.77c-1.53,0.14-4.09-0.69-5.62-0.87
		c-7.75-0.94-12.18-1.29-18.52,0.94c-3.27,1.15-6.36,2.76-8.81,5.15c-3.17,3.08-5.8,8.67-6.32,12.99c-0.27,2.24-0.55,4.52-0.22,7.78
		c0.14,1.39,0.99,6.54,1.82,7.79c0,0,0.06-0.03,0.17-0.04C175.17,182.21,175.79,182.4,176.8,183.93z"/>
	<circle class="st175" cx="270" cy="156" r="34"/>
	<g>
		<path class="st3" d="M263.55,172.09c-0.86-0.73-1.29-2.12-1.29-4.16v-4.59h-6.78c-2.04,0-3.42-0.43-4.16-1.29
			c-0.73-0.86-1.1-2.25-1.1-4.16v-5.35c0-1.91,0.37-3.3,1.1-4.16c0.73-0.86,2.12-1.29,4.16-1.29h6.78v-4.68
			c0-2.04,0.43-3.42,1.29-4.16c0.86-0.73,2.25-1.1,4.16-1.1h6.69c1.91,0,3.3,0.37,4.16,1.1c0.86,0.73,1.29,2.12,1.29,4.16v4.68h6.88
			c2.04,0,3.42,0.43,4.16,1.29c0.73,0.86,1.1,2.25,1.1,4.16v5.35c0,1.91-0.37,3.3-1.1,4.16c-0.73,0.86-2.12,1.29-4.16,1.29h-6.88
			v4.59c0,2.04-0.43,3.42-1.29,4.16c-0.86,0.73-2.25,1.1-4.16,1.1h-6.69C265.8,173.19,264.41,172.83,263.55,172.09z"/>
	</g>
</g>
</svg>
