<?xml version="1.0" encoding="utf-8"?>
<!-- Generator: Adobe Illustrator 23.0.0, SVG Export Plug-In . SVG Version: 6.00 Build 0)  -->
<svg version="1.1" id="Capa_1" xmlns="http://www.w3.org/2000/svg" xmlns:xlink="http://www.w3.org/1999/xlink" x="0px" y="0px"
	 viewBox="0 0 400 702" style="enable-background:new 0 0 400 702;" xml:space="preserve">
<style type="text/css">
	.st0{fill:#0085B0;}
	.st1{fill:#E0EF18;}
	.st2{fill:#CECECE;}
	.st3{fill:#FFFFFF;}
	.st4{fill:#F2F2F2;}
	.st5{fill:#EACCB0;}
	.st6{fill:#9B9B9B;}
	.st7{fill:#939393;}
	.st8{fill:#EFEFEF;}
	.st9{fill:#828282;}
	.st10{fill:#2C2A2D;}
	.st11{fill:#202021;}
	.st12{fill:#F2D4B6;}
	.st13{fill:#534D46;}
	.st14{fill:#E8D313;}
	.st15{fill:#2ACCFF;}
	.st16{fill:#4E4F4F;}
	.st17{fill:#003A94;}
	.st18{fill:#00D13C;}
	.st19{fill:#15682A;}
	.st20{fill:#D40000;}
	.st21{fill:#505050;}
	.st22{fill:#DFDFDF;}
	.st23{fill:none;}
	.st24{fill:#636363;}
	.st25{fill:#6C92D5;}
	.st26{fill:#22272F;}
	.st27{fill:#1B2538;}
	.st28{fill:#253452;}
	.st29{fill:#F9F9F9;}
	.st30{fill:#2D3543;}
	.st31{fill:#2A3D60;}
	.st32{fill:#587955;}
	.st33{fill:#CD7054;}
	.st34{fill:#F1CC4B;}
	.st35{fill:#ACACAC;}
	.st36{fill:#AAE528;}
	.st37{fill:#28CEBA;}
	.st38{fill:#DB143F;}
	.st39{fill:#53C2C9;}
	.st40{fill:#FFB412;}
	.st41{fill:#866A5E;}
	.st42{fill:#F7DDCB;}
	.st43{fill:#FFE6D4;}
	.st44{fill:#F5F5F5;}
	.st45{fill:#1A2830;}
	.st46{fill:#24353F;}
	.st47{fill:#132026;}
	.st48{fill:#F9FF03;}
	.st49{fill:#272728;}
	.st50{fill:#1E1D1E;}
	.st51{fill:#160423;}
	.st52{fill-rule:evenodd;clip-rule:evenodd;fill:#FFFFFF;}
	.st53{fill-rule:evenodd;clip-rule:evenodd;fill:#1996B8;}
	.st54{fill:#0C387D;}
	.st55{fill:#C69A81;}
	.st56{fill:#D1A385;}
	.st57{fill:#EAEAEA;}
	.st58{fill:#093E8C;}
	.st59{fill:#0B2A62;}
	.st60{fill:#D32A3B;}
	.st61{fill:#827C7D;}
	.st62{opacity:0.7;fill:#7F7F7F;}
	.st63{fill:#FDFDFD;}
	.st64{fill:#DAA449;}
	.st65{fill:#DD9225;}
	.st66{opacity:0.3;}
	.st67{fill:#425793;}
	.st68{opacity:0.8;}
	.st69{filter:url(#Adobe_OpacityMaskFilter);}
	.st70{opacity:0.15;mask:url(#SVGID_1_);}
	.st71{fill:#090B00;}
	.st72{opacity:0.1;}
	.st73{fill:#211915;}
	.st74{filter:url(#Adobe_OpacityMaskFilter_1_);}
	.st75{opacity:0.15;mask:url(#SVGID_2_);}
	.st76{fill:#AF3623;}
	.st77{filter:url(#Adobe_OpacityMaskFilter_2_);}
	.st78{opacity:0.15;mask:url(#SVGID_3_);}
	.st79{filter:url(#Adobe_OpacityMaskFilter_3_);}
	.st80{opacity:0.15;mask:url(#SVGID_4_);}
	.st81{fill:#456495;}
	.st82{filter:url(#Adobe_OpacityMaskFilter_4_);}
	.st83{opacity:0.15;mask:url(#SVGID_5_);}
	.st84{filter:url(#Adobe_OpacityMaskFilter_5_);}
	.st85{opacity:0.15;mask:url(#SVGID_6_);}
	.st86{fill:#76A9DA;}
	.st87{filter:url(#Adobe_OpacityMaskFilter_6_);}
	.st88{opacity:0.15;mask:url(#SVGID_7_);}
	.st89{filter:url(#Adobe_OpacityMaskFilter_7_);}
	.st90{opacity:0.15;mask:url(#SVGID_8_);}
	.st91{fill:#1F3642;}
	.st92{fill:#A9BDDA;}
	.st93{opacity:0.46;fill:#A6B4BC;}
	.st94{fill:#74C475;}
	.st95{fill:#221F21;}
	.st96{fill:#2D2D2D;}
	.st97{fill:#1C1B1A;}
	.st98{fill:#77181C;}
	.st99{fill:#262525;}
	.st100{fill:#11100F;}
	.st101{opacity:0.18;}
	.st102{opacity:0.38;}
	.st103{fill:#0A5B1F;}
	.st104{opacity:0.27;}
	.st105{opacity:0.48;}
	.st106{fill:#0A4654;}
	.st107{fill:#C2C6C6;}
	.st108{fill:#E5E5E5;stroke:#FFFFFF;stroke-miterlimit:10;}
	.st109{fill:#ACB4B5;}
	.st110{fill:#7F8384;}
	.st111{fill:#15772F;}
	.st112{fill:#F4F4F4;}
	.st113{fill:#53B8DB;}
	.st114{fill:#06EF42;}
	.st115{fill:#E7ED07;}
	.st116{fill:#CCCCCA;}
	.st117{fill:#EADF13;}
	.st118{fill:#C2C2C2;}
	.st119{fill:#85B681;}
	.st120{fill:#A1DC9B;}
	.st121{fill:#90C58B;}
	.st122{fill:#22241F;}
	.st123{opacity:0.5;}
	.st124{fill:#A2CADE;}
	.st125{fill:#E9E9E9;}
	.st126{fill:#D9D9D9;}
	.st127{fill:#CDCDCD;}
	.st128{opacity:0.34;fill:#F0F0F0;}
	.st129{fill:#5A5B5A;}
	.st130{fill:#FFE600;}
	.st131{fill:#DB1F59;}
	.st132{fill:#727272;}
	.st133{fill:#207235;}
	.st134{fill:#A3A3A3;}
	.st135{fill:#BCBCBC;}
	.st136{fill:#0A511C;}
	.st137{fill:#F9FF00;}
	.st138{fill:#D59F6D;}
	.st139{fill:#C0804A;}
	.st140{fill:#E6BA8A;}
	.st141{fill:#BE3ACC;}
	.st142{fill:#FFFFFF;stroke:#443F0C;stroke-width:9;stroke-miterlimit:10;}
	.st143{fill:none;stroke:#443F0C;stroke-width:9;stroke-miterlimit:10;}
	.st144{fill:#170623;}
	.st145{fill:#158231;}
	.st146{fill:#C89D76;}
	.st147{opacity:0.4;}
	.st148{fill:#ADADAD;}
	.st149{fill:#EDC3A6;}
	.st150{opacity:0.69;}
	.st151{fill:#E5D3D6;}
	.st152{opacity:0.44;}
	.st153{fill:#A5A5A5;}
	.st154{fill:#DDE5E4;}
	.st155{fill:#5C9169;}
	.st156{fill:#934215;}
	.st157{fill:#47413B;}
	.st158{fill:#601A1F;}
	.st159{fill:#044554;}
	.st160{opacity:0.7;}
	.st161{fill:#7F7F7F;}
	.st162{fill:#6B8A69;}
	.st163{opacity:0.24;fill:#848D90;}
	.st164{opacity:0.4;fill:#848D90;}
	.st165{fill:#F2D5D5;}
	.st166{fill:#485CC1;}
	.st167{fill:#C6CBE0;}
	.st168{fill:#8B909E;}
	.st169{fill:#53BC1B;}
	.st170{fill:#11565B;}
	.st171{fill:#67A06D;}
	.st172{fill:#FFEC00;}
	.st173{fill:#77A007;}
	.st174{fill:#E50731;}
	.st175{fill:#266472;}
	.st176{fill:#D4D4D4;}
	.st177{fill:#0E9932;}
	.st178{fill:#87DD24;}
	.st179{fill:#76A172;}
	.st180{fill:#62835F;}
	.st181{fill:#96D090;}
	.st182{fill:#D6D6D6;}
	.st183{fill:#606060;}
	.st184{fill:#494949;}
	.st185{fill:#29E55A;}
	.st186{fill:#2C703D;}
	.st187{fill:#DD0744;}
	.st188{fill:#EDEDED;}
	.st189{fill:#2A5936;}
	.st190{fill:#B9BBC1;}
	.st191{fill:#FFD79E;}
	.st192{fill:#FFE6C2;}
	.st193{fill:#2CBB55;}
	.st194{fill:#5C412D;}
	.st195{fill:#EC0000;}
	.st196{fill:#DD2626;}
	.st197{fill:#EA9334;}
	.st198{fill:#FCC232;}
	.st199{fill:#F9B234;}
	.st200{fill:#F7A037;}
	.st201{fill:#E0E0E0;}
</style>
<g>
	<g>
		<path class="st0" d="M9.5,209.36c0,22,13.29,27.86,29.54,13.03c0,0,156.99-143.3,353.09,26.97V55c0-22-18-40-40-40H49.5
			c-22,0-40,18-40,40V209.36z"/>
	</g>
	<g>
		<path class="st0" d="M391.66,647c0,22-18,40-40,40H49.98c-22,0-40-18-40-40v-46.27c0-22,18-40,40-40h301.68c22,0,40,18,40,40V647z
			"/>
	</g>
	<g>
		<path d="M83.81,407.97c-2.69-2.39-4.04-5.93-4.04-10.62c0-4.67,1.35-8.2,4.04-10.6s6.45-3.6,11.28-3.6c2.19,0,4.15,0.21,5.88,0.64
			s3.17,1.03,4.32,1.8c0.32,0.24,0.48,0.51,0.48,0.8c0,0.24-0.12,0.57-0.36,1l-2,3.44c-0.21,0.37-0.47,0.56-0.76,0.56
			c-0.19,0-0.49-0.11-0.92-0.32c-1.6-0.8-3.36-1.2-5.28-1.2c-2.21,0-3.95,0.63-5.22,1.9s-1.9,3.13-1.9,5.58
			c0,2.53,0.53,4.41,1.6,5.62c1.07,1.21,2.65,1.82,4.76,1.82c0.37,0,0.79-0.03,1.26-0.1c0.47-0.07,0.85-0.14,1.14-0.22v-3.64h-2.56
			c-0.85,0-1.43-0.17-1.74-0.5c-0.31-0.33-0.46-0.9-0.46-1.7v-2.2c0-0.8,0.15-1.37,0.46-1.7s0.89-0.5,1.74-0.5h8.6
			c1.04,0,1.76,0.23,2.16,0.7s0.6,1.21,0.6,2.22v9.36c0,0.59-0.07,1.03-0.22,1.34c-0.15,0.31-0.43,0.62-0.86,0.94
			c-2.56,1.84-6.12,2.76-10.68,2.76C90.28,411.55,86.51,410.36,83.81,407.97z"/>
		<path d="M109.43,410.39c-0.36-0.37-0.54-0.95-0.54-1.72v-22.64c0-0.77,0.18-1.35,0.54-1.72s0.98-0.56,1.86-0.56h16.56
			c0.85,0,1.43,0.18,1.74,0.54c0.31,0.36,0.46,0.94,0.46,1.74v2.24c0,0.8-0.15,1.38-0.46,1.74c-0.31,0.36-0.89,0.54-1.74,0.54h-9.36
			v3.44h5.76c0.85,0,1.43,0.18,1.74,0.54s0.46,0.94,0.46,1.74v2.16c0,0.8-0.15,1.38-0.46,1.74c-0.31,0.36-0.89,0.54-1.74,0.54h-5.76
			v3.44h9.32c0.85,0,1.43,0.18,1.74,0.54c0.31,0.36,0.46,0.94,0.46,1.74v2.24c0,0.8-0.15,1.38-0.46,1.74s-0.89,0.54-1.74,0.54
			h-16.52C110.41,410.95,109.79,410.77,109.43,410.39z"/>
		<path d="M136.93,410.79c-2.08-0.51-3.76-1.21-5.04-2.12c-0.53-0.37-0.8-0.73-0.8-1.08c0-0.24,0.09-0.49,0.28-0.76l2.32-3.64
			c0.24-0.35,0.48-0.52,0.72-0.52c0.21,0,0.47,0.09,0.76,0.28c0.96,0.59,2.06,1.05,3.3,1.38c1.24,0.33,2.45,0.5,3.62,0.5
			c0.99,0,1.7-0.13,2.14-0.4c0.44-0.27,0.66-0.68,0.66-1.24c0-0.61-0.29-1.11-0.88-1.48c-0.59-0.37-1.6-0.84-3.04-1.4
			c-2.69-1.04-4.81-2.22-6.36-3.54c-1.55-1.32-2.32-3.07-2.32-5.26c0-2.77,0.97-4.86,2.9-6.26c1.93-1.4,4.54-2.1,7.82-2.1
			c2.29,0,4.25,0.2,5.86,0.6c1.61,0.4,3.02,1.03,4.22,1.88c0.53,0.37,0.8,0.73,0.8,1.08c0,0.24-0.09,0.49-0.28,0.76l-2.32,3.64
			c-0.24,0.37-0.48,0.56-0.72,0.56c-0.16,0-0.41-0.11-0.76-0.32c-0.64-0.43-1.4-0.78-2.28-1.06s-1.83-0.42-2.84-0.42
			c-0.93,0-1.64,0.13-2.12,0.4s-0.72,0.69-0.72,1.28c0,0.48,0.17,0.88,0.5,1.2c0.33,0.32,0.75,0.59,1.26,0.82
			c0.51,0.23,1.39,0.59,2.64,1.1c2,0.8,3.57,1.57,4.72,2.3c1.15,0.73,2.01,1.61,2.6,2.64c0.59,1.03,0.88,2.33,0.88,3.9
			c0,2.4-0.9,4.34-2.7,5.82c-1.8,1.48-4.49,2.22-8.06,2.22C141.27,411.55,139.01,411.3,136.93,410.79z"/>
		<path d="M162.35,410.39c-0.36-0.37-0.54-0.95-0.54-1.72v-18.12h-5.76c-0.85,0-1.43-0.18-1.74-0.54c-0.31-0.36-0.46-0.94-0.46-1.74
			v-2.24c0-0.8,0.15-1.38,0.46-1.74c0.31-0.36,0.89-0.54,1.74-0.54h21.12c0.85,0,1.43,0.18,1.74,0.54c0.31,0.36,0.46,0.94,0.46,1.74
			v2.24c0,0.8-0.15,1.38-0.46,1.74c-0.31,0.36-0.89,0.54-1.74,0.54h-5.76v18.12c0,0.77-0.18,1.35-0.54,1.72
			c-0.36,0.37-0.99,0.56-1.9,0.56h-4.76C163.33,410.95,162.71,410.77,162.35,410.39z"/>
		<path d="M181.11,410.39c-0.36-0.37-0.54-0.95-0.54-1.72v-22.64c0-0.77,0.18-1.35,0.54-1.72c0.36-0.37,0.98-0.56,1.86-0.56h4.76
			c0.91,0,1.54,0.18,1.9,0.54s0.54,0.94,0.54,1.74v22.64c0,0.77-0.18,1.35-0.54,1.72c-0.36,0.37-0.99,0.56-1.9,0.56h-4.76
			C182.09,410.95,181.47,410.77,181.11,410.39z"/>
		<path d="M195.85,407.85c-2.45-2.47-3.68-5.97-3.68-10.5s1.23-8.03,3.68-10.5c2.45-2.47,6.05-3.7,10.8-3.7
			c4.75,0,8.35,1.23,10.8,3.7c2.45,2.47,3.68,5.97,3.68,10.5s-1.23,8.03-3.68,10.5s-6.05,3.7-10.8,3.7
			C201.91,411.55,198.31,410.32,195.85,407.85z M210.41,402.97c0.77-1.24,1.16-3.11,1.16-5.62c0-2.53-0.39-4.41-1.16-5.64
			c-0.77-1.23-2.03-1.84-3.76-1.84s-2.99,0.61-3.76,1.84c-0.77,1.23-1.16,3.11-1.16,5.64c0,2.51,0.39,4.38,1.16,5.62
			c0.77,1.24,2.03,1.86,3.76,1.86S209.64,404.21,210.41,402.97z M202.41,380.39c0-0.21,0.04-0.44,0.12-0.68l1.68-4.64
			c0.21-0.61,0.47-1.03,0.76-1.24c0.29-0.21,0.84-0.32,1.64-0.32h5.72c0.56,0,1,0.1,1.32,0.3c0.32,0.2,0.48,0.49,0.48,0.86
			c0,0.32-0.11,0.65-0.32,1l-2.56,4.32c-0.38,0.64-0.73,1.05-1.08,1.24c-0.35,0.19-0.97,0.28-1.88,0.28h-4.28
			C202.95,381.51,202.41,381.14,202.41,380.39z"/>
		<path d="M223.67,410.39c-0.36-0.37-0.54-0.95-0.54-1.72v-22.68c0-0.77,0.18-1.34,0.54-1.7c0.36-0.36,0.99-0.54,1.9-0.54h3.8
			c0.56,0,0.99,0.07,1.3,0.22c0.31,0.15,0.61,0.43,0.9,0.86l7.24,10.76v-9.56c0-0.77,0.18-1.35,0.54-1.72
			c0.36-0.37,0.98-0.56,1.86-0.56h4.76c0.91,0,1.54,0.18,1.9,0.54c0.36,0.36,0.54,0.94,0.54,1.74v22.68c0,0.77-0.18,1.34-0.54,1.7
			c-0.36,0.36-0.99,0.54-1.9,0.54h-3.8c-0.56,0-0.99-0.07-1.3-0.22s-0.61-0.43-0.9-0.86l-7.24-10.76v9.6c0,0.77-0.18,1.34-0.54,1.7
			s-0.99,0.54-1.9,0.54h-4.76C224.65,410.95,224.03,410.77,223.67,410.39z"/>
		<path d="M263.75,410.39c-0.36-0.37-0.54-0.95-0.54-1.72v-22.64c0-0.77,0.18-1.35,0.54-1.72c0.36-0.37,0.98-0.56,1.86-0.56h9.2
			c9.41,0,14.12,4.53,14.12,13.6c0,4.48-1.21,7.87-3.62,10.16c-2.41,2.29-5.91,3.44-10.5,3.44h-9.2
			C264.73,410.95,264.11,410.77,263.75,410.39z M275.17,404.15c1.49,0,2.57-0.49,3.22-1.48c0.65-0.99,0.98-2.76,0.98-5.32
			c0-2.56-0.33-4.33-0.98-5.32c-0.65-0.99-1.73-1.48-3.22-1.48h-2.36v13.6H275.17z"/>
		<path d="M291.47,410.39c-0.36-0.37-0.54-0.95-0.54-1.72v-22.64c0-0.77,0.18-1.35,0.54-1.72c0.36-0.37,0.98-0.56,1.86-0.56h16.56
			c0.85,0,1.43,0.18,1.74,0.54c0.31,0.36,0.46,0.94,0.46,1.74v2.24c0,0.8-0.15,1.38-0.46,1.74c-0.31,0.36-0.89,0.54-1.74,0.54h-9.36
			v3.44h5.76c0.85,0,1.43,0.18,1.74,0.54c0.31,0.36,0.46,0.94,0.46,1.74v2.16c0,0.8-0.15,1.38-0.46,1.74
			c-0.31,0.36-0.89,0.54-1.74,0.54h-5.76v3.44h9.32c0.85,0,1.43,0.18,1.74,0.54c0.31,0.36,0.46,0.94,0.46,1.74v2.24
			c0,0.8-0.15,1.38-0.46,1.74s-0.89,0.54-1.74,0.54h-16.52C292.45,410.95,291.83,410.77,291.47,410.39z"/>
		<path d="M90.35,458.39c-0.36-0.37-0.54-0.95-0.54-1.72v-22.64c0-0.77,0.18-1.35,0.54-1.72s0.98-0.56,1.86-0.56h9.2
			c9.41,0,14.12,4.53,14.12,13.6c0,4.48-1.21,7.87-3.62,10.16c-2.41,2.29-5.91,3.44-10.5,3.44h-9.2
			C91.33,458.95,90.71,458.77,90.35,458.39z M101.77,452.15c1.49,0,2.57-0.49,3.22-1.48c0.65-0.99,0.98-2.76,0.98-5.32
			c0-2.56-0.33-4.33-0.98-5.32c-0.65-0.99-1.73-1.48-3.22-1.48h-2.36v13.6H101.77z"/>
		<path d="M120.41,455.85c-2.45-2.47-3.68-5.97-3.68-10.5s1.23-8.03,3.68-10.5c2.45-2.47,6.05-3.7,10.8-3.7s8.35,1.23,10.8,3.7
			c2.45,2.47,3.68,5.97,3.68,10.5s-1.23,8.03-3.68,10.5c-2.45,2.47-6.05,3.7-10.8,3.7S122.87,458.32,120.41,455.85z M134.97,450.97
			c0.77-1.24,1.16-3.11,1.16-5.62c0-2.53-0.39-4.41-1.16-5.64c-0.77-1.23-2.03-1.84-3.76-1.84s-2.99,0.61-3.76,1.84
			c-0.77,1.23-1.16,3.11-1.16,5.64c0,2.51,0.39,4.38,1.16,5.62c0.77,1.24,2.03,1.86,3.76,1.86S134.2,452.21,134.97,450.97z"/>
		<path d="M146.83,458.39c-0.36-0.37-0.54-0.95-0.54-1.72v-22.68c0-0.77,0.18-1.34,0.54-1.7c0.36-0.36,0.99-0.54,1.9-0.54h4.6
			c0.59,0,1.05,0.07,1.4,0.22c0.35,0.15,0.61,0.43,0.8,0.86l4.68,11.72l4.68-11.72c0.19-0.43,0.45-0.71,0.8-0.86
			c0.35-0.15,0.81-0.22,1.4-0.22h4.6c0.91,0,1.54,0.18,1.9,0.54c0.36,0.36,0.54,0.93,0.54,1.7v22.68c0,0.77-0.18,1.35-0.54,1.72
			c-0.36,0.37-0.98,0.56-1.86,0.56h-3.84c-0.88,0-1.51-0.19-1.88-0.56c-0.37-0.37-0.56-0.95-0.56-1.72v-10.92l-2.36,5.44
			c-0.32,0.77-0.67,1.33-1.04,1.66c-0.37,0.33-0.99,0.5-1.84,0.5s-1.47-0.17-1.84-0.5c-0.37-0.33-0.72-0.89-1.04-1.66l-2.36-5.44
			v10.92c0,0.77-0.18,1.35-0.54,1.72c-0.36,0.37-0.99,0.56-1.9,0.56h-3.84C147.81,458.95,147.19,458.77,146.83,458.39z"/>
		<path d="M177.47,458.39c-0.36-0.37-0.54-0.95-0.54-1.72v-22.64c0-0.77,0.18-1.35,0.54-1.72c0.36-0.37,0.98-0.56,1.86-0.56h4.76
			c0.91,0,1.54,0.18,1.9,0.54c0.36,0.36,0.54,0.94,0.54,1.74v22.64c0,0.77-0.18,1.35-0.54,1.72c-0.36,0.37-0.99,0.56-1.9,0.56h-4.76
			C178.45,458.95,177.83,458.77,177.47,458.39z"/>
		<path d="M192.57,455.97c-2.69-2.39-4.04-5.93-4.04-10.62c0-4.72,1.3-8.27,3.9-10.64c2.6-2.37,6.31-3.56,11.14-3.56
			c2.19,0,4.13,0.21,5.84,0.64c1.71,0.43,3.13,1.03,4.28,1.8c0.32,0.24,0.48,0.51,0.48,0.8c0,0.24-0.12,0.57-0.36,1l-2,3.44
			c-0.21,0.37-0.47,0.56-0.76,0.56c-0.19,0-0.49-0.11-0.92-0.32c-0.75-0.37-1.53-0.67-2.34-0.88c-0.81-0.21-1.77-0.32-2.86-0.32
			c-2.21,0-3.91,0.64-5.08,1.92c-1.17,1.28-1.76,3.13-1.76,5.56c0,2.4,0.64,4.25,1.92,5.54c1.28,1.29,3.03,1.94,5.24,1.94
			c1.92,0,3.68-0.4,5.28-1.2c0.43-0.21,0.73-0.32,0.92-0.32c0.29,0,0.55,0.19,0.76,0.56l2,3.44c0.24,0.43,0.36,0.76,0.36,1
			c0,0.29-0.16,0.56-0.48,0.8c-1.15,0.77-2.59,1.37-4.32,1.8c-1.73,0.43-3.69,0.64-5.88,0.64
			C199.04,459.55,195.27,458.36,192.57,455.97z"/>
		<path d="M217.11,458.39c-0.36-0.37-0.54-0.95-0.54-1.72v-22.64c0-0.77,0.18-1.35,0.54-1.72s0.98-0.56,1.86-0.56h4.76
			c0.91,0,1.54,0.18,1.9,0.54c0.36,0.36,0.54,0.94,0.54,1.74v22.64c0,0.77-0.18,1.35-0.54,1.72c-0.36,0.37-0.99,0.56-1.9,0.56h-4.76
			C218.09,458.95,217.47,458.77,217.11,458.39z"/>
		<path d="M229.51,458.39c-0.36-0.37-0.54-0.95-0.54-1.72v-22.64c0-0.77,0.18-1.35,0.54-1.72c0.36-0.37,0.98-0.56,1.86-0.56h4.76
			c0.91,0,1.54,0.18,1.9,0.54c0.36,0.36,0.54,0.94,0.54,1.74v18.12h9.32c0.85,0,1.43,0.18,1.74,0.54c0.31,0.36,0.46,0.94,0.46,1.74
			v2.24c0,0.8-0.15,1.38-0.46,1.74s-0.89,0.54-1.74,0.54h-16.52C230.49,458.95,229.87,458.77,229.51,458.39z"/>
		<path d="M251.83,458.39c-0.36-0.37-0.54-0.95-0.54-1.72v-22.64c0-0.77,0.18-1.35,0.54-1.72s0.98-0.56,1.86-0.56h4.76
			c0.91,0,1.54,0.18,1.9,0.54c0.36,0.36,0.54,0.94,0.54,1.74v22.64c0,0.77-0.18,1.35-0.54,1.72c-0.36,0.37-0.99,0.56-1.9,0.56h-4.76
			C252.81,458.95,252.19,458.77,251.83,458.39z"/>
		<path d="M266.57,455.85c-2.45-2.47-3.68-5.97-3.68-10.5s1.23-8.03,3.68-10.5s6.05-3.7,10.8-3.7c4.75,0,8.35,1.23,10.8,3.7
			c2.45,2.47,3.68,5.97,3.68,10.5s-1.23,8.03-3.68,10.5c-2.45,2.47-6.05,3.7-10.8,3.7C272.63,459.55,269.03,458.32,266.57,455.85z
			 M281.13,450.97c0.77-1.24,1.16-3.11,1.16-5.62c0-2.53-0.39-4.41-1.16-5.64c-0.77-1.23-2.03-1.84-3.76-1.84
			c-1.73,0-2.99,0.61-3.76,1.84c-0.77,1.23-1.16,3.11-1.16,5.64c0,2.51,0.39,4.38,1.16,5.62c0.77,1.24,2.03,1.86,3.76,1.86
			C279.11,452.83,280.36,452.21,281.13,450.97z"/>
		<path d="M297.13,458.79c-2.08-0.51-3.76-1.21-5.04-2.12c-0.53-0.37-0.8-0.73-0.8-1.08c0-0.24,0.09-0.49,0.28-0.76l2.32-3.64
			c0.24-0.35,0.48-0.52,0.72-0.52c0.21,0,0.47,0.09,0.76,0.28c0.96,0.59,2.06,1.05,3.3,1.38c1.24,0.33,2.45,0.5,3.62,0.5
			c0.99,0,1.7-0.13,2.14-0.4s0.66-0.68,0.66-1.24c0-0.61-0.29-1.11-0.88-1.48c-0.59-0.37-1.6-0.84-3.04-1.4
			c-2.69-1.04-4.81-2.22-6.36-3.54c-1.55-1.32-2.32-3.07-2.32-5.26c0-2.77,0.97-4.86,2.9-6.26c1.93-1.4,4.54-2.1,7.82-2.1
			c2.29,0,4.25,0.2,5.86,0.6c1.61,0.4,3.02,1.03,4.22,1.88c0.53,0.37,0.8,0.73,0.8,1.08c0,0.24-0.09,0.49-0.28,0.76l-2.32,3.64
			c-0.24,0.37-0.48,0.56-0.72,0.56c-0.16,0-0.41-0.11-0.76-0.32c-0.64-0.43-1.4-0.78-2.28-1.06c-0.88-0.28-1.83-0.42-2.84-0.42
			c-0.93,0-1.64,0.13-2.12,0.4c-0.48,0.27-0.72,0.69-0.72,1.28c0,0.48,0.17,0.88,0.5,1.2c0.33,0.32,0.75,0.59,1.26,0.82
			s1.39,0.59,2.64,1.1c2,0.8,3.57,1.57,4.72,2.3c1.15,0.73,2.01,1.61,2.6,2.64c0.59,1.03,0.88,2.33,0.88,3.9
			c0,2.4-0.9,4.34-2.7,5.82c-1.8,1.48-4.49,2.22-8.06,2.22C301.47,459.55,299.21,459.3,297.13,458.79z"/>
	</g>
	<polygon class="st1" points="200.76,96.93 214.23,124.22 244.34,128.59 222.55,149.83 227.7,179.83 200.76,165.67 173.83,179.83 
		178.97,149.83 157.18,128.59 187.29,124.22 	"/>
	<polygon class="st1" points="138.58,180.15 147.32,197.86 166.86,200.7 152.72,214.48 156.06,233.94 138.58,224.75 121.11,233.94 
		124.45,214.48 110.31,200.7 129.85,197.86 	"/>
	<polygon class="st1" points="268.68,180.15 277.42,197.86 296.95,200.7 282.82,214.48 286.15,233.94 268.68,224.75 251.2,233.94 
		254.54,214.48 240.4,200.7 259.94,197.86 	"/>
	<circle class="st2" cx="201.77" cy="213.97" r="121.96"/>
	<circle class="st3" cx="200.82" cy="200.58" r="121.96"/>
	<g>
		<path class="st3" d="M179.5,640.97c-3.99-2.85-5.99-6.87-5.99-12.08c0-2.14,0.54-4.16,1.61-6.06c1.07-1.9,2.58-3.41,4.53-4.53
			c-1.66-1.07-2.88-2.38-3.69-3.94c-0.8-1.56-1.21-3.24-1.21-5.04c0-5.11,1.84-9.04,5.51-11.79c3.67-2.75,8.97-4.13,15.88-4.13
			c6.91,0,12.2,1.38,15.88,4.13c3.67,2.75,5.51,6.68,5.51,11.79c0,1.8-0.4,3.48-1.2,5.04c-0.8,1.56-2.03,2.87-3.69,3.94
			c1.95,1.12,3.45,2.63,4.53,4.53c1.07,1.9,1.61,3.92,1.61,6.06c0,5.21-2,9.23-5.99,12.08c-3.99,2.85-9.54,4.27-16.64,4.27
			C189.04,645.24,183.49,643.81,179.5,640.97z M201.4,628.74c0-1.41-0.44-2.48-1.31-3.21c-0.88-0.73-2.19-1.09-3.94-1.09
			c-3.46,0-5.18,1.44-5.18,4.31c0,2.82,1.73,4.23,5.18,4.23C199.65,632.97,201.4,631.56,201.4,628.74z M200.09,609.39
			c0-1.31-0.32-2.26-0.95-2.85c-0.63-0.58-1.63-0.88-2.99-0.88c-1.36,0-2.36,0.29-2.99,0.88c-0.63,0.58-0.95,1.53-0.95,2.85
			c0,2.14,1.31,3.21,3.94,3.21S200.09,611.54,200.09,609.39z"/>
	</g>
	<polygon class="st138" points="184.84,181.92 269.88,168.94 269.88,260.47 184.84,272 	"/>
	<polygon class="st139" points="138,155.25 184.84,181.92 184.84,272 138,246.78 	"/>
	<polygon class="st140" points="222.32,143 269.88,168.94 184.84,181.92 138,155.25 	"/>
	<g>
		<path class="st141" d="M139.94,200.93c-60.88,3.48,0,78.27,0,78.27S200.82,204.41,139.94,200.93z M139.94,243.54
			c-7.68,0-13.91-6.23-13.91-13.91s6.23-13.91,13.91-13.91s13.91,6.23,13.91,13.91S147.63,243.54,139.94,243.54z"/>
		<circle class="st3" cx="139.51" cy="229.91" r="16.74"/>
	</g>
	<polygon class="st140" points="212,178 212,230 227,216 234,226 234,174.42 	"/>
	<g>
		<circle class="st142" cx="252.48" cy="158.81" r="28.81"/>
		<line class="st143" x1="252.17" y1="139.08" x2="252.17" y2="158.5"/>
		<line class="st143" x1="251.38" y1="156.52" x2="234.16" y2="165.49"/>
	</g>
</g>
</svg>
