<?xml version="1.0" encoding="utf-8"?>
<!-- Generator: Adobe Illustrator 23.0.0, SVG Export Plug-In . SVG Version: 6.00 Build 0)  -->
<svg version="1.1" id="Capa_1" xmlns="http://www.w3.org/2000/svg" xmlns:xlink="http://www.w3.org/1999/xlink" x="0px" y="0px"
	 viewBox="0 0 400 702" style="enable-background:new 0 0 400 702;" xml:space="preserve">
<style type="text/css">
	.st0{fill:#0085B0;}
	.st1{fill:#E0EF18;}
	.st2{fill:#CECECE;}
	.st3{fill:#FFFFFF;}
	.st4{fill:#F2F2F2;}
	.st5{fill:#EACCB0;}
	.st6{fill:#9B9B9B;}
	.st7{fill:#939393;}
	.st8{fill:#EFEFEF;}
	.st9{fill:#828282;}
	.st10{fill:#2C2A2D;}
	.st11{fill:#202021;}
	.st12{fill:#F2D4B6;}
	.st13{fill:#534D46;}
	.st14{fill:#E8D313;}
	.st15{fill:#2ACCFF;}
	.st16{fill:#4E4F4F;}
	.st17{fill:#003A94;}
	.st18{fill:#00D13C;}
	.st19{fill:#15682A;}
	.st20{fill:#D40000;}
	.st21{fill:#505050;}
	.st22{fill:#DFDFDF;}
	.st23{fill:none;}
	.st24{fill:#636363;}
	.st25{fill:#6C92D5;}
	.st26{fill:#22272F;}
	.st27{fill:#1B2538;}
	.st28{fill:#253452;}
	.st29{fill:#F9F9F9;}
	.st30{fill:#2D3543;}
	.st31{fill:#2A3D60;}
	.st32{fill:#587955;}
	.st33{fill:#CD7054;}
	.st34{fill:#F1CC4B;}
	.st35{fill:#ACACAC;}
	.st36{fill:#AAE528;}
	.st37{fill:#28CEBA;}
	.st38{fill:#DB143F;}
	.st39{fill:#53C2C9;}
	.st40{fill:#FFB412;}
	.st41{fill:#866A5E;}
	.st42{fill:#F7DDCB;}
	.st43{fill:#FFE6D4;}
	.st44{fill:#F5F5F5;}
	.st45{fill:#1A2830;}
	.st46{fill:#24353F;}
	.st47{fill:#132026;}
	.st48{fill:#F9FF03;}
	.st49{fill:#272728;}
	.st50{fill:#1E1D1E;}
	.st51{fill:#160423;}
	.st52{fill-rule:evenodd;clip-rule:evenodd;fill:#FFFFFF;}
	.st53{fill-rule:evenodd;clip-rule:evenodd;fill:#1996B8;}
	.st54{fill:#0C387D;}
	.st55{fill:#C69A81;}
	.st56{fill:#D1A385;}
	.st57{fill:#EAEAEA;}
	.st58{fill:#093E8C;}
	.st59{fill:#0B2A62;}
	.st60{fill:#D32A3B;}
	.st61{fill:#827C7D;}
	.st62{opacity:0.7;fill:#7F7F7F;}
	.st63{fill:#FDFDFD;}
	.st64{fill:#DAA449;}
	.st65{fill:#DD9225;}
	.st66{opacity:0.3;}
	.st67{fill:#425793;}
	.st68{opacity:0.8;}
	.st69{filter:url(#Adobe_OpacityMaskFilter);}
	.st70{opacity:0.15;mask:url(#SVGID_1_);}
	.st71{fill:#090B00;}
	.st72{opacity:0.1;}
	.st73{fill:#211915;}
	.st74{filter:url(#Adobe_OpacityMaskFilter_1_);}
	.st75{opacity:0.15;mask:url(#SVGID_2_);}
	.st76{fill:#AF3623;}
	.st77{filter:url(#Adobe_OpacityMaskFilter_2_);}
	.st78{opacity:0.15;mask:url(#SVGID_3_);}
	.st79{filter:url(#Adobe_OpacityMaskFilter_3_);}
	.st80{opacity:0.15;mask:url(#SVGID_4_);}
	.st81{fill:#456495;}
	.st82{filter:url(#Adobe_OpacityMaskFilter_4_);}
	.st83{opacity:0.15;mask:url(#SVGID_5_);}
	.st84{filter:url(#Adobe_OpacityMaskFilter_5_);}
	.st85{opacity:0.15;mask:url(#SVGID_6_);}
	.st86{fill:#76A9DA;}
	.st87{filter:url(#Adobe_OpacityMaskFilter_6_);}
	.st88{opacity:0.15;mask:url(#SVGID_7_);}
	.st89{filter:url(#Adobe_OpacityMaskFilter_7_);}
	.st90{opacity:0.15;mask:url(#SVGID_8_);}
	.st91{fill:#1F3642;}
	.st92{fill:#A9BDDA;}
	.st93{opacity:0.46;fill:#A6B4BC;}
	.st94{fill:#74C475;}
	.st95{fill:#221F21;}
	.st96{fill:#2D2D2D;}
	.st97{fill:#1C1B1A;}
	.st98{fill:#77181C;}
	.st99{fill:#262525;}
	.st100{fill:#11100F;}
	.st101{opacity:0.18;}
	.st102{opacity:0.38;}
	.st103{fill:#0A5B1F;}
	.st104{opacity:0.27;}
	.st105{opacity:0.48;}
	.st106{fill:#0A4654;}
	.st107{fill:#C2C6C6;}
	.st108{fill:#E5E5E5;stroke:#FFFFFF;stroke-miterlimit:10;}
	.st109{fill:#ACB4B5;}
	.st110{fill:#7F8384;}
	.st111{fill:#15772F;}
	.st112{fill:#F4F4F4;}
	.st113{fill:#53B8DB;}
	.st114{fill:#06EF42;}
	.st115{fill:#E7ED07;}
	.st116{fill:#CCCCCA;}
	.st117{fill:#EADF13;}
	.st118{fill:#C2C2C2;}
	.st119{fill:#85B681;}
	.st120{fill:#A1DC9B;}
	.st121{fill:#90C58B;}
	.st122{fill:#22241F;}
	.st123{opacity:0.5;}
	.st124{fill:#A2CADE;}
	.st125{fill:#E9E9E9;}
	.st126{fill:#D9D9D9;}
	.st127{fill:#CDCDCD;}
	.st128{opacity:0.34;fill:#F0F0F0;}
	.st129{fill:#5A5B5A;}
	.st130{fill:#FFE600;}
	.st131{fill:#DB1F59;}
	.st132{fill:#727272;}
	.st133{fill:#207235;}
	.st134{fill:#A3A3A3;}
	.st135{fill:#BCBCBC;}
	.st136{fill:#0A511C;}
	.st137{fill:#F9FF00;}
	.st138{fill:#D59F6D;}
	.st139{fill:#C0804A;}
	.st140{fill:#E6BA8A;}
	.st141{fill:#BE3ACC;}
	.st142{fill:#FFFFFF;stroke:#443F0C;stroke-width:9;stroke-miterlimit:10;}
	.st143{fill:none;stroke:#443F0C;stroke-width:9;stroke-miterlimit:10;}
	.st144{fill:#170623;}
	.st145{fill:#158231;}
	.st146{fill:#C89D76;}
	.st147{opacity:0.4;}
	.st148{fill:#ADADAD;}
	.st149{fill:#EDC3A6;}
	.st150{opacity:0.69;}
	.st151{fill:#E5D3D6;}
	.st152{opacity:0.44;}
	.st153{fill:#A5A5A5;}
	.st154{fill:#DDE5E4;}
	.st155{fill:#5C9169;}
	.st156{fill:#934215;}
	.st157{fill:#47413B;}
	.st158{fill:#601A1F;}
	.st159{fill:#044554;}
	.st160{opacity:0.7;}
	.st161{fill:#7F7F7F;}
	.st162{fill:#6B8A69;}
	.st163{opacity:0.24;fill:#848D90;}
	.st164{opacity:0.4;fill:#848D90;}
	.st165{fill:#F2D5D5;}
	.st166{fill:#485CC1;}
	.st167{fill:#C6CBE0;}
	.st168{fill:#8B909E;}
	.st169{fill:#53BC1B;}
	.st170{fill:#11565B;}
	.st171{fill:#67A06D;}
	.st172{fill:#FFEC00;}
	.st173{fill:#77A007;}
	.st174{fill:#E50731;}
	.st175{fill:#266472;}
	.st176{fill:#D4D4D4;}
	.st177{fill:#0E9932;}
	.st178{fill:#87DD24;}
	.st179{fill:#76A172;}
	.st180{fill:#62835F;}
	.st181{fill:#96D090;}
	.st182{fill:#D6D6D6;}
	.st183{fill:#606060;}
	.st184{fill:#494949;}
	.st185{fill:#29E55A;}
	.st186{fill:#2C703D;}
	.st187{fill:#DD0744;}
	.st188{fill:#EDEDED;}
	.st189{fill:#2A5936;}
	.st190{fill:#B9BBC1;}
	.st191{fill:#FFD79E;}
	.st192{fill:#FFE6C2;}
	.st193{fill:#2CBB55;}
	.st194{fill:#5C412D;}
	.st195{fill:#EC0000;}
	.st196{fill:#DD2626;}
	.st197{fill:#EA9334;}
	.st198{fill:#FCC232;}
	.st199{fill:#F9B234;}
	.st200{fill:#F7A037;}
	.st201{fill:#E0E0E0;}
</style>
<g>
	<g>
		<path class="st0" d="M9.5,209.36c0,22,13.29,27.86,29.54,13.03c0,0,156.99-143.3,353.09,26.97V55c0-22-18-40-40-40H49.5
			c-22,0-40,18-40,40V209.36z"/>
	</g>
	<g>
		<path class="st0" d="M391.66,647c0,22-18,40-40,40H49.98c-22,0-40-18-40-40v-46.27c0-22,18-40,40-40h301.68c22,0,40,18,40,40V647z
			"/>
	</g>
	<g>
		<path d="M117.84,380.82c-1.77-0.43-3.2-1.03-4.28-1.8c-0.45-0.32-0.68-0.62-0.68-0.92c0-0.2,0.08-0.42,0.24-0.65l1.97-3.09
			c0.21-0.29,0.41-0.44,0.61-0.44c0.18,0,0.4,0.08,0.65,0.24c0.82,0.5,1.75,0.89,2.8,1.17s2.08,0.42,3.08,0.42
			c0.84,0,1.45-0.11,1.82-0.34c0.38-0.23,0.56-0.58,0.56-1.05c0-0.52-0.25-0.94-0.75-1.26s-1.36-0.71-2.58-1.19
			c-2.29-0.88-4.09-1.89-5.41-3.01c-1.32-1.12-1.97-2.61-1.97-4.47c0-2.36,0.82-4.13,2.46-5.32c1.64-1.19,3.86-1.79,6.65-1.79
			c1.95,0,3.61,0.17,4.98,0.51c1.37,0.34,2.57,0.87,3.59,1.6c0.45,0.32,0.68,0.62,0.68,0.92c0,0.2-0.08,0.42-0.24,0.65l-1.97,3.09
			c-0.21,0.32-0.41,0.48-0.61,0.48c-0.14,0-0.35-0.09-0.65-0.27c-0.54-0.36-1.19-0.66-1.94-0.9c-0.75-0.24-1.55-0.36-2.41-0.36
			c-0.79,0-1.39,0.11-1.8,0.34s-0.61,0.59-0.61,1.09c0,0.41,0.14,0.75,0.42,1.02c0.28,0.27,0.64,0.5,1.07,0.7
			c0.43,0.19,1.18,0.5,2.24,0.94c1.7,0.68,3.04,1.33,4.01,1.96s1.71,1.37,2.21,2.24c0.5,0.87,0.75,1.98,0.75,3.31
			c0,2.04-0.77,3.69-2.29,4.95s-3.81,1.89-6.85,1.89C121.52,381.46,119.6,381.25,117.84,380.82z"/>
		<path d="M136.88,378.32c-2.09-2.1-3.13-5.07-3.13-8.92s1.04-6.83,3.13-8.93c2.08-2.1,5.14-3.14,9.18-3.14
			c4.03,0,7.09,1.05,9.18,3.14c2.08,2.1,3.13,5.07,3.13,8.93s-1.04,6.83-3.13,8.92c-2.09,2.1-5.15,3.14-9.18,3.14
			C142.02,381.46,138.96,380.41,136.88,378.32z M149.25,374.17c0.66-1.05,0.99-2.65,0.99-4.78c0-2.15-0.33-3.75-0.99-4.79
			c-0.66-1.04-1.72-1.56-3.2-1.56c-1.47,0-2.54,0.52-3.2,1.56c-0.66,1.04-0.99,2.64-0.99,4.79c0,2.13,0.33,3.72,0.99,4.78
			c0.66,1.05,1.72,1.58,3.2,1.58C147.53,375.75,148.59,375.22,149.25,374.17z"/>
		<path d="M160.52,380.48c-0.31-0.32-0.46-0.8-0.46-1.46v-19.24c0-0.66,0.15-1.14,0.46-1.46c0.31-0.32,0.83-0.48,1.58-0.48h4.05
			c0.77,0,1.31,0.15,1.62,0.46c0.3,0.31,0.46,0.8,0.46,1.48v15.4h7.92c0.72,0,1.22,0.15,1.48,0.46c0.26,0.31,0.39,0.8,0.39,1.48v1.9
			c0,0.68-0.13,1.17-0.39,1.48c-0.26,0.31-0.75,0.46-1.48,0.46H162.1C161.36,380.95,160.83,380.79,160.52,380.48z"/>
		<path d="M179.5,380.48c-0.31-0.32-0.46-0.8-0.46-1.46v-19.24c0-0.66,0.15-1.14,0.46-1.46s0.83-0.48,1.58-0.48h4.05
			c0.77,0,1.31,0.15,1.62,0.46c0.31,0.31,0.46,0.8,0.46,1.48v19.24c0,0.66-0.15,1.15-0.46,1.46s-0.84,0.48-1.62,0.48h-4.05
			C180.33,380.95,179.8,380.79,179.5,380.48z"/>
		<path d="M192.33,378.42c-2.29-2.03-3.43-5.04-3.43-9.03c0-4.01,1.11-7.03,3.31-9.04c2.21-2.02,5.37-3.03,9.47-3.03
			c1.86,0,3.51,0.18,4.96,0.54c1.45,0.36,2.66,0.87,3.64,1.53c0.27,0.2,0.41,0.43,0.41,0.68c0,0.2-0.1,0.49-0.31,0.85l-1.7,2.92
			c-0.18,0.32-0.4,0.48-0.65,0.48c-0.16,0-0.42-0.09-0.78-0.27c-0.63-0.32-1.3-0.57-1.99-0.75c-0.69-0.18-1.5-0.27-2.43-0.27
			c-1.88,0-3.32,0.54-4.32,1.63c-1,1.09-1.5,2.66-1.5,4.73c0,2.04,0.54,3.61,1.63,4.71s2.57,1.65,4.45,1.65
			c1.63,0,3.13-0.34,4.49-1.02c0.36-0.18,0.62-0.27,0.78-0.27c0.25,0,0.46,0.16,0.65,0.48l1.7,2.92c0.2,0.36,0.31,0.65,0.31,0.85
			c0,0.25-0.14,0.48-0.41,0.68c-0.97,0.66-2.2,1.17-3.67,1.53s-3.14,0.54-5,0.54C197.83,381.46,194.62,380.45,192.33,378.42z"/>
		<path d="M213.19,380.48c-0.31-0.32-0.46-0.8-0.46-1.46v-19.24c0-0.66,0.15-1.14,0.46-1.46c0.31-0.32,0.83-0.48,1.58-0.48h4.05
			c0.77,0,1.31,0.15,1.62,0.46c0.3,0.31,0.46,0.8,0.46,1.48v19.24c0,0.66-0.15,1.15-0.46,1.46c-0.31,0.32-0.85,0.48-1.62,0.48h-4.05
			C214.02,380.95,213.5,380.79,213.19,380.48z"/>
		<path d="M229.13,380.48c-0.31-0.32-0.46-0.8-0.46-1.46v-15.4h-4.9c-0.73,0-1.22-0.15-1.48-0.46c-0.26-0.31-0.39-0.8-0.39-1.48
			v-1.9c0-0.68,0.13-1.17,0.39-1.48c0.26-0.31,0.75-0.46,1.48-0.46h17.95c0.72,0,1.22,0.15,1.48,0.46c0.26,0.31,0.39,0.8,0.39,1.48
			v1.9c0,0.68-0.13,1.17-0.39,1.48c-0.26,0.31-0.75,0.46-1.48,0.46h-4.9v15.4c0,0.66-0.15,1.15-0.46,1.46
			c-0.31,0.32-0.84,0.48-1.62,0.48h-4.04C229.97,380.95,229.44,380.79,229.13,380.48z"/>
		<path d="M249.76,380.39c-1.68-0.71-2.98-1.75-3.91-3.09c-0.93-1.35-1.39-2.95-1.39-4.81v-12.72c0-0.66,0.15-1.14,0.46-1.46
			c0.31-0.32,0.83-0.48,1.58-0.48h4.04c0.77,0,1.31,0.15,1.62,0.46c0.31,0.31,0.46,0.8,0.46,1.48v12.82c0,1.07,0.27,1.86,0.8,2.38
			c0.53,0.52,1.26,0.78,2.19,0.78s1.66-0.26,2.19-0.78c0.53-0.52,0.8-1.31,0.8-2.38v-12.82c0-0.66,0.15-1.14,0.46-1.46
			s0.83-0.48,1.58-0.48h4.05c0.77,0,1.31,0.15,1.62,0.46c0.31,0.31,0.46,0.8,0.46,1.48v12.72c0,1.86-0.46,3.46-1.39,4.81
			c-0.93,1.35-2.23,2.38-3.91,3.09c-1.68,0.71-3.63,1.07-5.85,1.07C253.38,381.46,251.43,381.11,249.76,380.39z"/>
		<path d="M269.42,380.48c-0.31-0.32-0.46-0.8-0.46-1.46v-19.24c0-0.66,0.15-1.14,0.46-1.46c0.31-0.32,0.83-0.48,1.58-0.48h7.82
			c8,0,12,3.85,12,11.56c0,3.81-1.03,6.69-3.08,8.64c-2.05,1.95-5.03,2.92-8.92,2.92h-7.82
			C270.26,380.95,269.73,380.79,269.42,380.48z M279.13,375.17c1.27,0,2.18-0.42,2.74-1.26c0.56-0.84,0.83-2.35,0.83-4.52
			c0-2.18-0.28-3.68-0.83-4.52c-0.56-0.84-1.47-1.26-2.74-1.26h-2.01v11.56H279.13z"/>
		<path d="M61.79,421.28c-0.31-0.32-0.46-0.8-0.46-1.46v-19.24c0-0.66,0.15-1.14,0.46-1.46c0.31-0.32,0.83-0.48,1.58-0.48h7.82
			c8,0,12,3.85,12,11.56c0,3.81-1.03,6.69-3.08,8.64c-2.05,1.95-5.03,2.92-8.93,2.92h-7.82C62.62,421.75,62.09,421.59,61.79,421.28z
			 M71.5,415.97c1.27,0,2.18-0.42,2.74-1.26c0.55-0.84,0.83-2.35,0.83-4.52c0-2.18-0.28-3.68-0.83-4.52
			c-0.56-0.84-1.47-1.26-2.74-1.26h-2.01v11.56H71.5z"/>
		<path d="M85.35,421.28c-0.31-0.32-0.46-0.8-0.46-1.46v-19.24c0-0.66,0.15-1.14,0.46-1.46c0.31-0.32,0.83-0.48,1.58-0.48h14.08
			c0.72,0,1.22,0.15,1.48,0.46c0.26,0.31,0.39,0.8,0.39,1.48v1.9c0,0.68-0.13,1.17-0.39,1.48c-0.26,0.31-0.75,0.46-1.48,0.46h-7.96
			v2.92h4.9c0.72,0,1.22,0.15,1.48,0.46c0.26,0.31,0.39,0.8,0.39,1.48v1.84c0,0.68-0.13,1.17-0.39,1.48
			c-0.26,0.31-0.75,0.46-1.48,0.46h-4.9v2.92h7.92c0.73,0,1.22,0.15,1.48,0.46c0.26,0.31,0.39,0.8,0.39,1.48v1.9
			c0,0.68-0.13,1.17-0.39,1.48s-0.75,0.46-1.48,0.46H86.93C86.18,421.75,85.66,421.59,85.35,421.28z"/>
		<path d="M115.07,421.28c-0.31-0.32-0.46-0.8-0.46-1.46v-19.24c0-0.66,0.15-1.14,0.46-1.46s0.83-0.48,1.58-0.48h7.82
			c8,0,12,3.85,12,11.56c0,3.81-1.03,6.69-3.08,8.64s-5.03,2.92-8.92,2.92h-7.82C115.9,421.75,115.37,421.59,115.07,421.28z
			 M124.77,415.97c1.27,0,2.18-0.42,2.74-1.26c0.55-0.84,0.83-2.35,0.83-4.52c0-2.18-0.28-3.68-0.83-4.52
			c-0.56-0.84-1.47-1.26-2.74-1.26h-2.01v11.56H124.77z"/>
		<path d="M140.62,419.12c-2.09-2.1-3.13-5.07-3.13-8.92s1.04-6.83,3.13-8.93c2.08-2.1,5.14-3.14,9.18-3.14
			c4.03,0,7.09,1.05,9.18,3.14c2.08,2.1,3.13,5.07,3.13,8.93s-1.04,6.83-3.13,8.92c-2.09,2.1-5.15,3.14-9.18,3.14
			C145.76,422.26,142.7,421.21,140.62,419.12z M152.99,414.97c0.66-1.05,0.99-2.65,0.99-4.78c0-2.15-0.33-3.75-0.99-4.79
			c-0.66-1.04-1.72-1.56-3.2-1.56c-1.47,0-2.54,0.52-3.2,1.56c-0.66,1.04-0.99,2.64-0.99,4.79c0,2.13,0.33,3.72,0.99,4.78
			c0.66,1.05,1.72,1.58,3.2,1.58C151.27,416.55,152.33,416.02,152.99,414.97z"/>
		<path d="M165.71,419.22c-2.29-2.03-3.43-5.04-3.43-9.03c0-4.01,1.11-7.03,3.32-9.04s5.37-3.03,9.47-3.03
			c1.86,0,3.51,0.18,4.96,0.54s2.66,0.87,3.64,1.53c0.27,0.2,0.41,0.43,0.41,0.68c0,0.2-0.1,0.49-0.31,0.85l-1.7,2.92
			c-0.18,0.32-0.4,0.48-0.65,0.48c-0.16,0-0.42-0.09-0.78-0.27c-0.63-0.32-1.3-0.57-1.99-0.75c-0.69-0.18-1.5-0.27-2.43-0.27
			c-1.88,0-3.32,0.54-4.32,1.63s-1.5,2.66-1.5,4.73c0,2.04,0.54,3.61,1.63,4.71s2.57,1.65,4.45,1.65c1.63,0,3.13-0.34,4.49-1.02
			c0.36-0.18,0.62-0.27,0.78-0.27c0.25,0,0.46,0.16,0.65,0.48l1.7,2.92c0.2,0.36,0.31,0.65,0.31,0.85c0,0.25-0.14,0.48-0.41,0.68
			c-0.97,0.66-2.2,1.17-3.67,1.53c-1.47,0.36-3.14,0.54-5,0.54C171.21,422.26,168,421.25,165.71,419.22z"/>
		<path d="M191.24,421.19c-1.68-0.71-2.98-1.75-3.91-3.09c-0.93-1.35-1.39-2.95-1.39-4.81v-12.72c0-0.66,0.15-1.14,0.46-1.46
			s0.83-0.48,1.58-0.48h4.05c0.77,0,1.31,0.15,1.62,0.46s0.46,0.8,0.46,1.48v12.82c0,1.07,0.27,1.86,0.8,2.38
			c0.53,0.52,1.26,0.78,2.19,0.78s1.66-0.26,2.19-0.78c0.53-0.52,0.8-1.31,0.8-2.38v-12.82c0-0.66,0.15-1.14,0.46-1.46
			c0.31-0.32,0.83-0.48,1.58-0.48h4.04c0.77,0,1.31,0.15,1.62,0.46c0.31,0.31,0.46,0.8,0.46,1.48v12.72c0,1.86-0.46,3.46-1.39,4.81
			c-0.93,1.35-2.23,2.38-3.91,3.09c-1.68,0.71-3.63,1.07-5.85,1.07C194.87,422.26,192.92,421.91,191.24,421.19z"/>
		<path d="M210.91,421.28c-0.31-0.32-0.46-0.8-0.46-1.46v-19.28c0-0.66,0.15-1.14,0.46-1.45s0.84-0.46,1.62-0.46h3.91
			c0.5,0,0.9,0.06,1.19,0.19c0.29,0.12,0.52,0.37,0.68,0.73l3.98,9.96l3.98-9.96c0.16-0.36,0.39-0.61,0.68-0.73
			c0.29-0.13,0.69-0.19,1.19-0.19h3.91c0.77,0,1.31,0.15,1.62,0.46s0.46,0.79,0.46,1.45v19.28c0,0.66-0.15,1.15-0.46,1.46
			s-0.83,0.48-1.58,0.48h-3.26c-0.75,0-1.28-0.16-1.6-0.48c-0.32-0.32-0.48-0.8-0.48-1.46v-9.28l-2.01,4.62
			c-0.27,0.66-0.57,1.13-0.88,1.41c-0.32,0.28-0.84,0.42-1.56,0.42s-1.25-0.14-1.56-0.42c-0.32-0.28-0.61-0.75-0.88-1.41l-2.01-4.62
			v9.28c0,0.66-0.15,1.15-0.46,1.46c-0.31,0.32-0.84,0.48-1.62,0.48h-3.26C211.74,421.75,211.22,421.59,210.91,421.28z"/>
		<path d="M236.96,421.28c-0.31-0.32-0.46-0.8-0.46-1.46v-19.24c0-0.66,0.15-1.14,0.46-1.46c0.31-0.32,0.83-0.48,1.58-0.48h14.08
			c0.73,0,1.22,0.15,1.48,0.46s0.39,0.8,0.39,1.48v1.9c0,0.68-0.13,1.17-0.39,1.48c-0.26,0.31-0.75,0.46-1.48,0.46h-7.96v2.92h4.9
			c0.73,0,1.22,0.15,1.48,0.46c0.26,0.31,0.39,0.8,0.39,1.48v1.84c0,0.68-0.13,1.17-0.39,1.48c-0.26,0.31-0.75,0.46-1.48,0.46h-4.9
			v2.92h7.92c0.72,0,1.22,0.15,1.48,0.46c0.26,0.31,0.39,0.8,0.39,1.48v1.9c0,0.68-0.13,1.17-0.39,1.48
			c-0.26,0.31-0.75,0.46-1.48,0.46h-14.04C237.79,421.75,237.26,421.59,236.96,421.28z"/>
		<path d="M256.47,421.28c-0.31-0.32-0.46-0.8-0.46-1.46v-19.28c0-0.66,0.15-1.14,0.46-1.45c0.31-0.31,0.84-0.46,1.62-0.46h3.23
			c0.48,0,0.84,0.06,1.1,0.19c0.26,0.12,0.52,0.37,0.77,0.73l6.15,9.15v-8.13c0-0.66,0.15-1.14,0.46-1.46
			c0.31-0.32,0.83-0.48,1.58-0.48h4.05c0.77,0,1.31,0.15,1.62,0.46c0.3,0.31,0.46,0.8,0.46,1.48v19.28c0,0.66-0.15,1.14-0.46,1.45
			c-0.31,0.31-0.85,0.46-1.62,0.46h-3.23c-0.48,0-0.84-0.06-1.11-0.19c-0.26-0.13-0.52-0.37-0.76-0.73l-6.15-9.15v8.16
			c0,0.66-0.15,1.14-0.46,1.45c-0.31,0.31-0.85,0.46-1.62,0.46h-4.05C257.3,421.75,256.78,421.59,256.47,421.28z"/>
		<path d="M285.74,421.28c-0.31-0.32-0.46-0.8-0.46-1.46v-15.4h-4.9c-0.73,0-1.22-0.15-1.48-0.46c-0.26-0.31-0.39-0.8-0.39-1.48
			v-1.9c0-0.68,0.13-1.17,0.39-1.48c0.26-0.31,0.75-0.46,1.48-0.46h17.95c0.72,0,1.22,0.15,1.48,0.46c0.26,0.31,0.39,0.8,0.39,1.48
			v1.9c0,0.68-0.13,1.17-0.39,1.48c-0.26,0.31-0.75,0.46-1.48,0.46h-4.9v15.4c0,0.66-0.15,1.15-0.46,1.46
			c-0.31,0.32-0.84,0.48-1.62,0.48h-4.04C286.58,421.75,286.05,421.59,285.74,421.28z"/>
		<path d="M302.15,419.12c-2.09-2.1-3.13-5.07-3.13-8.92s1.04-6.83,3.13-8.93c2.08-2.1,5.15-3.14,9.18-3.14s7.09,1.05,9.18,3.14
			c2.08,2.1,3.13,5.07,3.13,8.93s-1.04,6.83-3.13,8.92c-2.09,2.1-5.15,3.14-9.18,3.14S304.23,421.21,302.15,419.12z M314.53,414.97
			c0.66-1.05,0.99-2.65,0.99-4.78c0-2.15-0.33-3.75-0.99-4.79c-0.66-1.04-1.72-1.56-3.2-1.56s-2.54,0.52-3.2,1.56
			c-0.66,1.04-0.99,2.64-0.99,4.79c0,2.13,0.33,3.72,0.99,4.78c0.66,1.05,1.72,1.58,3.2,1.58S313.87,416.02,314.53,414.97z"/>
		<path d="M328.13,421.62c-1.77-0.43-3.2-1.03-4.28-1.8c-0.45-0.32-0.68-0.62-0.68-0.92c0-0.2,0.08-0.42,0.24-0.65l1.97-3.09
			c0.2-0.29,0.41-0.44,0.61-0.44c0.18,0,0.4,0.08,0.65,0.24c0.82,0.5,1.75,0.89,2.8,1.17c1.05,0.28,2.08,0.42,3.08,0.42
			c0.84,0,1.44-0.11,1.82-0.34s0.56-0.58,0.56-1.05c0-0.52-0.25-0.94-0.75-1.26c-0.5-0.32-1.36-0.71-2.58-1.19
			c-2.29-0.88-4.09-1.89-5.41-3.01c-1.32-1.12-1.97-2.61-1.97-4.47c0-2.36,0.82-4.13,2.46-5.32c1.64-1.19,3.86-1.79,6.65-1.79
			c1.95,0,3.61,0.17,4.98,0.51c1.37,0.34,2.57,0.87,3.59,1.6c0.45,0.32,0.68,0.62,0.68,0.92c0,0.2-0.08,0.42-0.24,0.65l-1.97,3.09
			c-0.2,0.32-0.41,0.48-0.61,0.48c-0.14,0-0.35-0.09-0.65-0.27c-0.54-0.36-1.19-0.66-1.94-0.9c-0.75-0.24-1.55-0.36-2.41-0.36
			c-0.79,0-1.39,0.11-1.8,0.34c-0.41,0.23-0.61,0.59-0.61,1.09c0,0.41,0.14,0.75,0.43,1.02c0.28,0.27,0.64,0.5,1.07,0.7
			c0.43,0.19,1.18,0.5,2.24,0.94c1.7,0.68,3.04,1.33,4.01,1.96s1.71,1.37,2.21,2.24c0.5,0.87,0.75,1.98,0.75,3.31
			c0,2.04-0.77,3.69-2.29,4.95c-1.53,1.26-3.81,1.89-6.85,1.89C331.81,422.26,329.89,422.05,328.13,421.62z"/>
		<path d="M26.63,463.54c-1.21-1.45-2.15-3.2-2.82-5.24c-0.67-2.04-1-4.2-1-6.49c0-2.29,0.33-4.45,1-6.49
			c0.67-2.04,1.61-3.79,2.82-5.24c1.21-1.45,2.59-2.45,4.13-2.99c1.04-0.36,1.87-0.54,2.48-0.54c0.63,0,1.11,0.19,1.43,0.56
			c0.32,0.37,0.48,0.98,0.48,1.82c0,0.7-0.02,1.22-0.07,1.55c-0.05,0.33-0.16,0.62-0.34,0.87c-0.18,0.25-0.49,0.57-0.92,0.95
			c-1.11,0.97-1.87,2.2-2.28,3.67s-0.61,3.42-0.61,5.85c0,2.43,0.2,4.38,0.61,5.85c0.41,1.47,1.17,2.7,2.28,3.67
			c0.43,0.39,0.74,0.7,0.92,0.95c0.18,0.25,0.29,0.54,0.34,0.87c0.04,0.33,0.07,0.84,0.07,1.55c0,0.84-0.16,1.45-0.48,1.82
			c-0.32,0.37-0.79,0.56-1.43,0.56c-0.61,0-1.44-0.18-2.48-0.54C29.22,465.99,27.84,464.99,26.63,463.54z"/>
		<path d="M39.26,460.02c-2.29-2.03-3.43-5.04-3.43-9.03c0-4.01,1.11-7.03,3.32-9.04s5.37-3.03,9.47-3.03
			c1.86,0,3.51,0.18,4.96,0.54s2.66,0.87,3.64,1.53c0.27,0.2,0.41,0.43,0.41,0.68c0,0.2-0.1,0.49-0.31,0.85l-1.7,2.92
			c-0.18,0.32-0.4,0.48-0.65,0.48c-0.16,0-0.42-0.09-0.78-0.27c-0.63-0.32-1.3-0.57-1.99-0.75c-0.69-0.18-1.5-0.27-2.43-0.27
			c-1.88,0-3.32,0.54-4.32,1.63s-1.5,2.66-1.5,4.73c0,2.04,0.54,3.61,1.63,4.71s2.57,1.65,4.45,1.65c1.63,0,3.13-0.34,4.49-1.02
			c0.36-0.18,0.62-0.27,0.78-0.27c0.25,0,0.46,0.16,0.65,0.48l1.7,2.92c0.2,0.36,0.31,0.65,0.31,0.85c0,0.25-0.14,0.48-0.41,0.68
			c-0.97,0.66-2.2,1.17-3.67,1.53c-1.47,0.36-3.14,0.54-5,0.54C44.76,463.06,41.55,462.05,39.26,460.02z"/>
		<path d="M58.13,461.84c0-0.2,0.06-0.45,0.17-0.75l8.47-20.37c0.2-0.48,0.44-0.81,0.7-1c0.26-0.19,0.63-0.29,1.11-0.29h3.71
			c0.48,0,0.84,0.1,1.11,0.29c0.26,0.19,0.49,0.53,0.7,1l8.43,20.37c0.11,0.29,0.17,0.54,0.17,0.75c0,0.48-0.25,0.71-0.75,0.71
			h-6.39c-0.7,0-1.14-0.31-1.33-0.92l-0.82-2.52h-6.02l-0.78,2.52c-0.18,0.61-0.62,0.92-1.33,0.92h-6.39
			C58.38,462.55,58.13,462.31,58.13,461.84z M71.73,453.75l-1.33-4.22l-1.33,4.22H71.73z"/>
		<path d="M84.84,462.08c-0.31-0.32-0.46-0.8-0.46-1.46v-19.24c0-0.66,0.15-1.14,0.46-1.46c0.31-0.32,0.83-0.48,1.58-0.48h8.13
			c3.4,0,5.88,0.67,7.43,2.02s2.33,3.38,2.33,6.1c0,1.63-0.28,3.01-0.83,4.13c-0.56,1.12-1.41,2-2.57,2.64l3.16,6.77
			c0.09,0.18,0.14,0.39,0.14,0.61c0,0.25-0.08,0.45-0.25,0.61c-0.17,0.16-0.39,0.24-0.66,0.24h-5.75c-0.36,0-0.65-0.05-0.87-0.15
			c-0.21-0.1-0.37-0.28-0.46-0.53l-2.52-6.32h-1.16v5.07c0,0.66-0.15,1.15-0.46,1.46c-0.31,0.32-0.84,0.48-1.62,0.48h-4.04
			C85.67,462.55,85.15,462.39,84.84,462.08z M93.83,449.87c0.72,0,1.3-0.19,1.72-0.58c0.42-0.39,0.63-0.96,0.63-1.73
			c0-0.79-0.21-1.38-0.63-1.77c-0.42-0.39-0.99-0.58-1.72-0.58h-2.31v4.66H93.83z"/>
		<path d="M110.68,462.08c-0.31-0.32-0.46-0.8-0.46-1.46v-15.4h-4.9c-0.73,0-1.22-0.15-1.48-0.46c-0.26-0.31-0.39-0.8-0.39-1.48
			v-1.9c0-0.68,0.13-1.17,0.39-1.48s0.75-0.46,1.48-0.46h17.95c0.72,0,1.22,0.15,1.48,0.46c0.26,0.31,0.39,0.8,0.39,1.48v1.9
			c0,0.68-0.13,1.17-0.39,1.48c-0.26,0.31-0.75,0.46-1.48,0.46h-4.9v15.4c0,0.66-0.15,1.15-0.46,1.46c-0.3,0.32-0.84,0.48-1.61,0.48
			h-4.05C111.51,462.55,110.99,462.39,110.68,462.08z"/>
		<path d="M121.24,461.84c0-0.2,0.06-0.45,0.17-0.75l8.47-20.37c0.2-0.48,0.44-0.81,0.7-1c0.26-0.19,0.63-0.29,1.11-0.29h3.71
			c0.48,0,0.84,0.1,1.11,0.29c0.26,0.19,0.49,0.53,0.7,1l8.43,20.37c0.11,0.29,0.17,0.54,0.17,0.75c0,0.48-0.25,0.71-0.75,0.71
			h-6.39c-0.7,0-1.14-0.31-1.33-0.92l-0.82-2.52h-6.02l-0.78,2.52c-0.18,0.61-0.62,0.92-1.33,0.92h-6.39
			C121.49,462.55,121.24,462.31,121.24,461.84z M134.84,453.75l-1.33-4.22l-1.33,4.22H134.84z"/>
		<path d="M150.27,462.42c-1.77-0.43-3.2-1.03-4.28-1.8c-0.45-0.32-0.68-0.62-0.68-0.92c0-0.2,0.08-0.42,0.24-0.65l1.97-3.09
			c0.2-0.29,0.41-0.44,0.61-0.44c0.18,0,0.4,0.08,0.65,0.24c0.82,0.5,1.75,0.89,2.8,1.17c1.05,0.28,2.08,0.42,3.08,0.42
			c0.84,0,1.44-0.11,1.82-0.34c0.37-0.23,0.56-0.58,0.56-1.05c0-0.52-0.25-0.94-0.75-1.26s-1.36-0.71-2.58-1.19
			c-2.29-0.88-4.09-1.89-5.41-3.01s-1.97-2.61-1.97-4.47c0-2.36,0.82-4.13,2.46-5.32c1.64-1.19,3.86-1.79,6.65-1.79
			c1.95,0,3.61,0.17,4.98,0.51s2.57,0.87,3.59,1.6c0.45,0.32,0.68,0.62,0.68,0.92c0,0.2-0.08,0.42-0.24,0.65l-1.97,3.09
			c-0.2,0.32-0.41,0.48-0.61,0.48c-0.14,0-0.35-0.09-0.65-0.27c-0.54-0.36-1.19-0.66-1.94-0.9c-0.75-0.24-1.55-0.36-2.41-0.36
			c-0.79,0-1.39,0.11-1.8,0.34c-0.41,0.23-0.61,0.59-0.61,1.09c0,0.41,0.14,0.75,0.43,1.02c0.28,0.27,0.64,0.5,1.07,0.7
			c0.43,0.19,1.18,0.5,2.24,0.94c1.7,0.68,3.04,1.33,4.01,1.96s1.71,1.37,2.21,2.24c0.5,0.87,0.75,1.98,0.75,3.31
			c0,2.04-0.76,3.69-2.29,4.95s-3.81,1.89-6.85,1.89C153.96,463.06,152.04,462.85,150.27,462.42z"/>
		<path d="M177.52,462.08c-0.31-0.32-0.46-0.8-0.46-1.46v-19.24c0-0.66,0.15-1.14,0.46-1.46c0.31-0.32,0.83-0.48,1.58-0.48h4.05
			c0.77,0,1.31,0.15,1.62,0.46c0.3,0.31,0.46,0.8,0.46,1.48v15.4h7.92c0.72,0,1.22,0.15,1.48,0.46c0.26,0.31,0.39,0.8,0.39,1.48v1.9
			c0,0.68-0.13,1.17-0.39,1.48c-0.26,0.31-0.75,0.46-1.48,0.46H179.1C178.36,462.55,177.83,462.39,177.52,462.08z"/>
		<path d="M194.85,461.84c0-0.2,0.06-0.45,0.17-0.75l8.47-20.37c0.2-0.48,0.44-0.81,0.7-1c0.26-0.19,0.63-0.29,1.11-0.29h3.71
			c0.48,0,0.84,0.1,1.11,0.29c0.26,0.19,0.49,0.53,0.7,1l8.43,20.37c0.11,0.29,0.17,0.54,0.17,0.75c0,0.48-0.25,0.71-0.75,0.71
			h-6.39c-0.7,0-1.14-0.31-1.33-0.92l-0.82-2.52h-6.02l-0.78,2.52c-0.18,0.61-0.62,0.92-1.33,0.92h-6.39
			C195.1,462.55,194.85,462.31,194.85,461.84z M208.45,453.75l-1.33-4.22l-1.33,4.22H208.45z"/>
		<path d="M221.55,462.08c-0.31-0.32-0.46-0.8-0.46-1.46v-19.24c0-0.66,0.15-1.14,0.46-1.46c0.31-0.32,0.83-0.48,1.58-0.48h10.3
			c2.76,0,4.8,0.59,6.1,1.77s1.96,2.86,1.96,5.03c0,1.02-0.22,1.92-0.66,2.7s-1.03,1.33-1.75,1.65c2.02,0.68,3.03,2.27,3.03,4.76
			c0,2.13-0.75,3.87-2.26,5.2c-1.51,1.34-3.72,2.01-6.65,2.01h-10.06C222.39,462.55,221.86,462.39,221.55,462.08z M231.8,448.17
			c1.04,0,1.56-0.5,1.56-1.5c0-1-0.52-1.5-1.56-1.5h-2.58v2.99H231.8z M232.38,456.81c0.48,0,0.86-0.15,1.16-0.46
			s0.44-0.72,0.44-1.24c0-0.54-0.14-0.96-0.43-1.26c-0.28-0.29-0.67-0.44-1.17-0.44h-3.16v3.4H232.38z"/>
		<path d="M245.4,459.92c-2.09-2.1-3.13-5.07-3.13-8.92s1.04-6.83,3.13-8.93c2.09-2.1,5.15-3.14,9.18-3.14
			c4.04,0,7.09,1.05,9.18,3.14c2.08,2.1,3.13,5.07,3.13,8.93s-1.04,6.83-3.13,8.92c-2.09,2.1-5.15,3.14-9.18,3.14
			C250.55,463.06,247.49,462.01,245.4,459.92z M257.78,455.77c0.66-1.05,0.99-2.65,0.99-4.78c0-2.15-0.33-3.75-0.99-4.79
			c-0.66-1.04-1.72-1.56-3.2-1.56c-1.47,0-2.54,0.52-3.2,1.56c-0.66,1.04-0.99,2.64-0.99,4.79c0,2.13,0.33,3.72,0.99,4.78
			c0.66,1.05,1.72,1.58,3.2,1.58C256.06,457.35,257.12,456.82,257.78,455.77z"/>
		<path d="M269.05,462.08c-0.31-0.32-0.46-0.8-0.46-1.46v-19.24c0-0.66,0.15-1.14,0.46-1.46c0.31-0.32,0.83-0.48,1.58-0.48h8.13
			c3.4,0,5.88,0.67,7.43,2.02s2.33,3.38,2.33,6.1c0,1.63-0.28,3.01-0.83,4.13c-0.56,1.12-1.41,2-2.57,2.64l3.16,6.77
			c0.09,0.18,0.14,0.39,0.14,0.61c0,0.25-0.08,0.45-0.25,0.61c-0.17,0.16-0.39,0.24-0.66,0.24h-5.75c-0.36,0-0.65-0.05-0.87-0.15
			c-0.21-0.1-0.37-0.28-0.46-0.53l-2.52-6.32h-1.16v5.07c0,0.66-0.15,1.15-0.46,1.46c-0.31,0.32-0.84,0.48-1.62,0.48h-4.04
			C269.88,462.55,269.36,462.39,269.05,462.08z M278.04,449.87c0.72,0,1.3-0.19,1.72-0.58c0.42-0.39,0.63-0.96,0.63-1.73
			c0-0.79-0.21-1.38-0.63-1.77c-0.42-0.39-0.99-0.58-1.72-0.58h-2.31v4.66H278.04z"/>
		<path d="M288.01,461.84c0-0.2,0.06-0.45,0.17-0.75l8.47-20.37c0.2-0.48,0.44-0.81,0.7-1c0.26-0.19,0.63-0.29,1.11-0.29h3.71
			c0.48,0,0.84,0.1,1.1,0.29c0.26,0.19,0.49,0.53,0.7,1l8.43,20.37c0.11,0.29,0.17,0.54,0.17,0.75c0,0.48-0.25,0.71-0.75,0.71h-6.39
			c-0.7,0-1.14-0.31-1.33-0.92l-0.82-2.52h-6.02l-0.78,2.52c-0.18,0.61-0.62,0.92-1.33,0.92h-6.39
			C288.26,462.55,288.01,462.31,288.01,461.84z M301.61,453.75l-1.33-4.22l-1.33,4.22H301.61z"/>
		<path d="M314.71,462.08c-0.31-0.32-0.46-0.8-0.46-1.46v-19.24c0-0.66,0.15-1.14,0.46-1.46s0.83-0.48,1.58-0.48h4.05
			c0.77,0,1.31,0.15,1.62,0.46c0.31,0.31,0.46,0.8,0.46,1.48v15.4h7.92c0.72,0,1.22,0.15,1.48,0.46c0.26,0.31,0.39,0.8,0.39,1.48
			v1.9c0,0.68-0.13,1.17-0.39,1.48c-0.26,0.31-0.75,0.46-1.48,0.46h-14.04C315.55,462.55,315.02,462.39,314.71,462.08z"/>
		<path d="M333.17,462.08c-0.31-0.32-0.46-0.8-0.46-1.46v-19.24c0-0.66,0.15-1.14,0.46-1.46s0.83-0.48,1.58-0.48h14.08
			c0.72,0,1.22,0.15,1.48,0.46s0.39,0.8,0.39,1.48v1.9c0,0.68-0.13,1.17-0.39,1.48c-0.26,0.31-0.75,0.46-1.48,0.46h-7.96v2.92h4.9
			c0.73,0,1.22,0.15,1.48,0.46s0.39,0.8,0.39,1.48v1.84c0,0.68-0.13,1.17-0.39,1.48s-0.75,0.46-1.48,0.46h-4.9v2.92h7.92
			c0.73,0,1.22,0.15,1.48,0.46c0.26,0.31,0.39,0.8,0.39,1.48v1.9c0,0.68-0.13,1.17-0.39,1.48c-0.26,0.31-0.75,0.46-1.48,0.46h-14.04
			C334.01,462.55,333.48,462.39,333.17,462.08z"/>
		<path d="M356.55,462.42c-1.77-0.43-3.2-1.03-4.28-1.8c-0.45-0.32-0.68-0.62-0.68-0.92c0-0.2,0.08-0.42,0.24-0.65l1.97-3.09
			c0.21-0.29,0.41-0.44,0.61-0.44c0.18,0,0.4,0.08,0.65,0.24c0.82,0.5,1.75,0.89,2.8,1.17s2.08,0.42,3.08,0.42
			c0.84,0,1.45-0.11,1.82-0.34c0.38-0.23,0.56-0.58,0.56-1.05c0-0.52-0.25-0.94-0.75-1.26s-1.36-0.71-2.58-1.19
			c-2.29-0.88-4.09-1.89-5.41-3.01c-1.32-1.12-1.97-2.61-1.97-4.47c0-2.36,0.82-4.13,2.46-5.32c1.64-1.19,3.86-1.79,6.65-1.79
			c1.95,0,3.61,0.17,4.98,0.51c1.37,0.34,2.57,0.87,3.59,1.6c0.45,0.32,0.68,0.62,0.68,0.92c0,0.2-0.08,0.42-0.24,0.65l-1.97,3.09
			c-0.21,0.32-0.41,0.48-0.61,0.48c-0.14,0-0.35-0.09-0.65-0.27c-0.54-0.36-1.19-0.66-1.94-0.9c-0.75-0.24-1.55-0.36-2.41-0.36
			c-0.79,0-1.39,0.11-1.8,0.34s-0.61,0.59-0.61,1.09c0,0.41,0.14,0.75,0.42,1.02c0.28,0.27,0.64,0.5,1.07,0.7
			c0.43,0.19,1.18,0.5,2.24,0.94c1.7,0.68,3.04,1.33,4.01,1.96s1.71,1.37,2.21,2.24c0.5,0.87,0.75,1.98,0.75,3.31
			c0,2.04-0.77,3.69-2.29,4.95s-3.81,1.89-6.85,1.89C360.23,463.06,358.32,462.85,356.55,462.42z"/>
		<path d="M372.5,465.82c0-0.09,0.02-0.25,0.07-0.48l1.67-5.95c0.16-0.59,0.37-0.97,0.63-1.16c0.26-0.18,0.7-0.27,1.31-0.27h3.2
			c0.52,0,0.89,0.07,1.12,0.2c0.23,0.14,0.34,0.35,0.34,0.65c0,0.32-0.09,0.69-0.27,1.12l-2.45,5.78c-0.14,0.29-0.31,0.52-0.53,0.66
			c-0.22,0.15-0.53,0.22-0.94,0.22h-3.13C372.83,466.6,372.5,466.34,372.5,465.82z"/>
		<path d="M58.42,502.88c-0.31-0.32-0.46-0.8-0.46-1.46v-19.24c0-0.66,0.15-1.14,0.46-1.46c0.31-0.32,0.83-0.48,1.58-0.48h8.13
			c3.4,0,5.88,0.67,7.43,2.02s2.33,3.38,2.33,6.1c0,1.63-0.28,3.01-0.83,4.13c-0.56,1.12-1.41,2-2.57,2.64l3.16,6.77
			c0.09,0.18,0.14,0.39,0.14,0.61c0,0.25-0.08,0.45-0.25,0.61c-0.17,0.16-0.39,0.24-0.66,0.24h-5.75c-0.36,0-0.65-0.05-0.87-0.15
			c-0.21-0.1-0.37-0.28-0.46-0.53l-2.52-6.32h-1.16v5.07c0,0.66-0.15,1.15-0.46,1.46c-0.31,0.32-0.84,0.48-1.62,0.48H60
			C59.26,503.35,58.73,503.19,58.42,502.88z M67.42,490.67c0.72,0,1.3-0.19,1.72-0.58c0.42-0.39,0.63-0.96,0.63-1.73
			c0-0.79-0.21-1.38-0.63-1.77c-0.42-0.39-0.99-0.58-1.72-0.58H65.1v4.66H67.42z"/>
		<path d="M80.05,502.88c-0.31-0.32-0.46-0.8-0.46-1.46v-19.24c0-0.66,0.15-1.14,0.46-1.46s0.83-0.48,1.58-0.48H95.7
			c0.72,0,1.22,0.15,1.48,0.46s0.39,0.8,0.39,1.48v1.9c0,0.68-0.13,1.17-0.39,1.48c-0.26,0.31-0.75,0.46-1.48,0.46h-7.96v2.92h4.9
			c0.73,0,1.22,0.15,1.48,0.46s0.39,0.8,0.39,1.48v1.84c0,0.68-0.13,1.17-0.39,1.48s-0.75,0.46-1.48,0.46h-4.9v2.92h7.92
			c0.73,0,1.22,0.15,1.48,0.46c0.26,0.31,0.39,0.8,0.39,1.48v1.9c0,0.68-0.13,1.17-0.39,1.48c-0.26,0.31-0.75,0.46-1.48,0.46H81.63
			C80.88,503.35,80.35,503.19,80.05,502.88z"/>
		<path d="M100.33,500.82c-2.29-2.03-3.43-5.04-3.43-9.03c0-4.01,1.11-7.03,3.32-9.04s5.37-3.03,9.47-3.03
			c1.86,0,3.51,0.18,4.96,0.54s2.66,0.87,3.64,1.53c0.27,0.2,0.41,0.43,0.41,0.68c0,0.2-0.1,0.49-0.31,0.85l-1.7,2.92
			c-0.18,0.32-0.4,0.48-0.65,0.48c-0.16,0-0.42-0.09-0.78-0.27c-0.63-0.32-1.3-0.57-1.99-0.75c-0.69-0.18-1.5-0.27-2.43-0.27
			c-1.88,0-3.32,0.54-4.32,1.63s-1.5,2.66-1.5,4.73c0,2.04,0.54,3.61,1.63,4.71s2.57,1.65,4.46,1.65c1.63,0,3.13-0.34,4.49-1.02
			c0.36-0.18,0.62-0.27,0.78-0.27c0.25,0,0.46,0.16,0.65,0.48l1.7,2.92c0.2,0.36,0.31,0.65,0.31,0.85c0,0.25-0.14,0.48-0.41,0.68
			c-0.97,0.66-2.2,1.17-3.67,1.53c-1.47,0.36-3.14,0.54-5,0.54C105.82,503.86,102.62,502.85,100.33,500.82z"/>
		<path d="M121.19,502.88c-0.31-0.32-0.46-0.8-0.46-1.46v-19.24c0-0.66,0.15-1.14,0.46-1.46s0.83-0.48,1.58-0.48h4.05
			c0.77,0,1.31,0.15,1.62,0.46c0.31,0.31,0.46,0.8,0.46,1.48v19.24c0,0.66-0.15,1.15-0.46,1.46c-0.31,0.32-0.84,0.48-1.62,0.48
			h-4.05C122.02,503.35,121.49,503.19,121.19,502.88z"/>
		<path d="M131.73,502.88c-0.31-0.32-0.46-0.8-0.46-1.46v-19.24c0-0.66,0.15-1.14,0.46-1.46s0.83-0.48,1.58-0.48h10.3
			c2.76,0,4.8,0.59,6.1,1.77c1.3,1.18,1.96,2.86,1.96,5.03c0,1.02-0.22,1.92-0.66,2.7c-0.44,0.78-1.03,1.33-1.75,1.65
			c2.02,0.68,3.03,2.27,3.03,4.76c0,2.13-0.75,3.87-2.26,5.2c-1.51,1.34-3.72,2.01-6.65,2.01h-10.06
			C132.56,503.35,132.03,503.19,131.73,502.88z M141.98,488.97c1.04,0,1.56-0.5,1.56-1.5c0-1-0.52-1.5-1.56-1.5h-2.58v2.99H141.98z
			 M142.55,497.61c0.48,0,0.86-0.15,1.16-0.46c0.29-0.31,0.44-0.72,0.44-1.24c0-0.54-0.14-0.96-0.42-1.26
			c-0.28-0.29-0.67-0.44-1.17-0.44h-3.16v3.4H142.55z"/>
		<path d="M155.58,500.72c-2.09-2.1-3.13-5.07-3.13-8.92s1.04-6.83,3.13-8.93c2.08-2.1,5.15-3.14,9.18-3.14s7.09,1.05,9.18,3.14
			c2.08,2.1,3.13,5.07,3.13,8.93s-1.04,6.83-3.13,8.92c-2.09,2.1-5.15,3.14-9.18,3.14S157.66,502.81,155.58,500.72z M167.95,496.57
			c0.66-1.05,0.99-2.65,0.99-4.78c0-2.15-0.33-3.75-0.99-4.79c-0.66-1.04-1.72-1.56-3.2-1.56s-2.54,0.52-3.2,1.56
			c-0.66,1.04-0.99,2.64-0.99,4.79c0,2.13,0.33,3.72,0.99,4.78c0.66,1.05,1.72,1.58,3.2,1.58S167.29,497.62,167.95,496.57z"/>
		<path d="M189.42,502.88c-0.31-0.32-0.46-0.8-0.46-1.46v-19.24c0-0.66,0.15-1.14,0.46-1.46c0.31-0.32,0.83-0.48,1.58-0.48h7.82
			c8,0,12,3.85,12,11.56c0,3.81-1.03,6.69-3.08,8.64c-2.05,1.95-5.03,2.92-8.93,2.92H191C190.26,503.35,189.73,503.19,189.42,502.88
			z M199.13,497.57c1.27,0,2.18-0.42,2.74-1.26c0.55-0.84,0.83-2.35,0.83-4.52c0-2.18-0.28-3.68-0.83-4.52
			c-0.56-0.84-1.47-1.26-2.74-1.26h-2.01v11.56H199.13z"/>
		<path d="M212.98,502.88c-0.31-0.32-0.46-0.8-0.46-1.46v-19.24c0-0.66,0.15-1.14,0.46-1.46c0.31-0.32,0.83-0.48,1.58-0.48h14.08
			c0.72,0,1.22,0.15,1.48,0.46c0.26,0.31,0.39,0.8,0.39,1.48v1.9c0,0.68-0.13,1.17-0.39,1.48c-0.26,0.31-0.75,0.46-1.48,0.46h-7.96
			v2.92h4.9c0.72,0,1.22,0.15,1.48,0.46c0.26,0.31,0.39,0.8,0.39,1.48v1.84c0,0.68-0.13,1.17-0.39,1.48
			c-0.26,0.31-0.75,0.46-1.48,0.46h-4.9v2.92h7.92c0.73,0,1.22,0.15,1.48,0.46c0.26,0.31,0.39,0.8,0.39,1.48v1.9
			c0,0.68-0.13,1.17-0.39,1.48s-0.75,0.46-1.48,0.46h-14.04C213.82,503.35,213.29,503.19,212.98,502.88z"/>
		<path d="M242.7,502.88c-0.31-0.32-0.46-0.8-0.46-1.46v-19.24c0-0.66,0.15-1.14,0.46-1.46s0.83-0.48,1.58-0.48h8.13
			c3.4,0,5.88,0.67,7.43,2.02s2.33,3.38,2.33,6.1s-0.78,4.75-2.33,6.09c-1.55,1.34-4.02,2.01-7.39,2.01h-2.04v4.96
			c0,0.66-0.15,1.15-0.46,1.46s-0.84,0.48-1.62,0.48h-4.05C243.53,503.35,243.01,503.19,242.7,502.88z M251.69,490.67
			c0.72,0,1.3-0.19,1.72-0.58s0.63-0.96,0.63-1.73c0-0.79-0.21-1.38-0.63-1.77s-0.99-0.58-1.72-0.58h-2.31v4.66H251.69z"/>
		<path d="M259.11,502.64c0-0.2,0.06-0.45,0.17-0.75l8.47-20.37c0.2-0.48,0.44-0.81,0.7-1c0.26-0.19,0.63-0.29,1.11-0.29h3.71
			c0.48,0,0.84,0.1,1.1,0.29c0.26,0.19,0.49,0.53,0.7,1l8.43,20.37c0.11,0.29,0.17,0.54,0.17,0.75c0,0.48-0.25,0.71-0.75,0.71h-6.39
			c-0.7,0-1.14-0.31-1.33-0.92l-0.82-2.52h-6.02l-0.78,2.52c-0.18,0.61-0.62,0.92-1.33,0.92h-6.39
			C259.36,503.35,259.11,503.11,259.11,502.64z M272.71,494.55l-1.33-4.22l-1.33,4.22H272.71z"/>
		<path d="M288.11,500.82c-2.29-2.03-3.43-5.04-3.43-9.03c0-3.97,1.14-6.97,3.43-9.01s5.49-3.06,9.59-3.06c1.86,0,3.52,0.18,5,0.54
			c1.47,0.36,2.7,0.87,3.67,1.53c0.27,0.2,0.41,0.43,0.41,0.68c0,0.2-0.1,0.49-0.31,0.85l-1.7,2.92c-0.18,0.32-0.4,0.48-0.65,0.48
			c-0.16,0-0.42-0.09-0.78-0.27c-1.36-0.68-2.86-1.02-4.49-1.02c-1.88,0-3.36,0.54-4.44,1.62s-1.61,2.66-1.61,4.74
			c0,2.15,0.45,3.75,1.36,4.78c0.91,1.03,2.25,1.55,4.04,1.55c0.32,0,0.67-0.03,1.07-0.08c0.4-0.06,0.72-0.12,0.97-0.19v-3.09h-2.18
			c-0.73,0-1.22-0.14-1.48-0.43c-0.26-0.28-0.39-0.76-0.39-1.44v-1.87c0-0.68,0.13-1.16,0.39-1.45c0.26-0.28,0.75-0.42,1.48-0.42
			h7.31c0.88,0,1.5,0.2,1.84,0.59c0.34,0.4,0.51,1.03,0.51,1.89v7.96c0,0.5-0.06,0.88-0.19,1.14c-0.13,0.26-0.37,0.53-0.73,0.8
			c-2.18,1.56-5.2,2.35-9.08,2.35C293.6,503.86,290.4,502.85,288.11,500.82z"/>
		<path d="M311.87,500.72c-2.09-2.1-3.13-5.07-3.13-8.92s1.04-6.83,3.13-8.93c2.09-2.1,5.15-3.14,9.18-3.14
			c4.04,0,7.09,1.05,9.18,3.14c2.08,2.1,3.13,5.07,3.13,8.93s-1.04,6.83-3.13,8.92c-2.09,2.1-5.15,3.14-9.18,3.14
			C317.02,503.86,313.96,502.81,311.87,500.72z M324.25,496.57c0.66-1.05,0.99-2.65,0.99-4.78c0-2.15-0.33-3.75-0.99-4.79
			c-0.66-1.04-1.72-1.56-3.2-1.56c-1.47,0-2.54,0.52-3.2,1.56c-0.66,1.04-0.99,2.64-0.99,4.79c0,2.13,0.33,3.72,0.99,4.78
			c0.66,1.05,1.72,1.58,3.2,1.58C322.53,498.15,323.59,497.62,324.25,496.57z"/>
		<path d="M335.95,507.88c-0.63,0-1.11-0.19-1.43-0.56c-0.32-0.37-0.48-0.98-0.48-1.82c0-0.7,0.02-1.22,0.07-1.55
			c0.04-0.33,0.16-0.62,0.34-0.87c0.18-0.25,0.49-0.57,0.92-0.95c1.11-0.97,1.87-2.2,2.28-3.67c0.41-1.47,0.61-3.42,0.61-5.85
			c0-2.42-0.21-4.37-0.61-5.85c-0.41-1.47-1.17-2.7-2.28-3.67c-0.43-0.39-0.74-0.7-0.92-0.95s-0.29-0.54-0.34-0.87
			c-0.05-0.33-0.07-0.84-0.07-1.55c0-0.84,0.16-1.45,0.48-1.82c0.32-0.37,0.79-0.56,1.43-0.56c0.61,0,1.44,0.18,2.48,0.54
			c1.54,0.54,2.92,1.54,4.13,2.99c1.21,1.45,2.15,3.2,2.82,5.24s1,4.21,1,6.49c0,2.29-0.33,4.45-1,6.49s-1.61,3.79-2.82,5.24
			c-1.21,1.45-2.59,2.45-4.13,2.99C337.38,507.69,336.56,507.88,335.95,507.88z"/>
	</g>
	<polygon class="st1" points="200.76,96.93 214.23,124.22 244.34,128.59 222.55,149.83 227.7,179.83 200.76,165.67 173.83,179.83 
		178.97,149.83 157.18,128.59 187.29,124.22 	"/>
	<polygon class="st1" points="138.58,180.15 147.32,197.86 166.86,200.7 152.72,214.48 156.06,233.94 138.58,224.75 121.11,233.94 
		124.45,214.48 110.31,200.7 129.85,197.86 	"/>
	<polygon class="st1" points="268.68,180.15 277.42,197.86 296.95,200.7 282.82,214.48 286.15,233.94 268.68,224.75 251.2,233.94 
		254.54,214.48 240.4,200.7 259.94,197.86 	"/>
	<circle class="st2" cx="201.77" cy="213.97" r="121.96"/>
	<circle class="st3" cx="200.82" cy="200.58" r="121.96"/>
	<g>
		<path class="st3" d="M195.05,643.3c-0.63-0.56-0.95-1.54-0.95-2.96v-5.69h-17.59c-1.75,0-2.63-0.85-2.63-2.55v-6.72
			c0-1.12,0.1-1.95,0.29-2.48c0.19-0.54,0.66-1.24,1.39-2.12l19.86-23.94c0.83-0.97,1.51-1.61,2.04-1.9
			c0.54-0.29,1.46-0.44,2.77-0.44h7.01c1.61,0,2.74,0.34,3.39,1.02c0.66,0.68,0.99,1.73,0.99,3.14v23.58h2.77
			c1.56,0,2.62,0.33,3.18,0.99c0.56,0.66,0.84,1.71,0.84,3.17v4.09c0,1.46-0.28,2.52-0.84,3.18c-0.56,0.66-1.62,0.99-3.18,0.99
			h-2.77v5.69c0,1.41-0.33,2.4-0.99,2.96c-0.66,0.56-1.81,0.84-3.47,0.84h-8.69C196.82,644.14,195.68,643.86,195.05,643.3z
			 M197.97,622.24v-9.56l-7.01,9.56H197.97z"/>
	</g>
	<g>
		<path class="st167" d="M159.13,122c-2.97,0-5.4,2.43-5.4,5.4v124.28c0,2.97,2.43,5.4,5.4,5.4h95.46c2.97,0,5.4-2.43,5.4-5.4
			V151.44L225.05,122H159.13z"/>
		<path class="st168" d="M224.88,122v20.71c0,0,0,5.85,8.56,8.11l26.57,0.45L224.88,122z"/>
	</g>
	<g>
		<ellipse class="st188" cx="173.67" cy="240.33" rx="41.67" ry="31.42"/>
		<polygon class="st188" points="160.77,250.87 176.91,261.45 159.68,270.13 142.45,278.82 143.54,259.55 144.64,240.29 		"/>
	</g>
	<g>
		<g>
			<path class="st0" d="M160.2,250.74c-0.51-0.53-0.77-1.34-0.77-2.44v-0.4c0-2.19,0.55-4.02,1.64-5.5
				c1.09-1.47,2.91-3.12,5.44-4.93c1.44-1.02,2.34-1.72,2.72-2.1c0.38-0.38,0.57-0.93,0.57-1.64c0-1.51-1.32-2.27-3.97-2.27
				c-1.17,0-2.39,0.23-3.66,0.68c-1.27,0.45-2.41,1.02-3.43,1.7c-0.45,0.34-0.87,0.51-1.25,0.51c-0.42,0-0.79-0.28-1.13-0.85
				l-2.83-4.87c-0.34-0.6-0.51-1.08-0.51-1.42c0-0.42,0.23-0.79,0.68-1.13c2-1.36,4.11-2.39,6.32-3.09c2.21-0.7,4.81-1.05,7.79-1.05
				c4.65,0,8.4,1.02,11.25,3.06c2.85,2.04,4.28,4.91,4.28,8.62c0,2.27-0.52,4.13-1.56,5.58c-1.04,1.46-2.64,2.84-4.79,4.17
				c-1.44,0.87-2.46,1.65-3.06,2.35c-0.6,0.7-0.91,1.46-0.91,2.3v0.28c0,1.1-0.26,1.91-0.77,2.44c-0.51,0.53-1.41,0.79-2.69,0.79
				h-6.75C161.59,251.54,160.71,251.27,160.2,250.74z M159.21,258.23v-1.42c0-2.08,1.51-3.12,4.54-3.12h4.93
				c3.06,0,4.59,1.04,4.59,3.12v1.42c0,2.08-1.53,3.12-4.59,3.12h-4.93C160.72,261.34,159.21,260.3,159.21,258.23z"/>
		</g>
	</g>
</g>
</svg>
