<?xml version="1.0" encoding="utf-8"?>
<!-- Generator: Adobe Illustrator 23.0.0, SVG Export Plug-In . SVG Version: 6.00 Build 0)  -->
<svg version="1.1" id="Capa_1" xmlns="http://www.w3.org/2000/svg" xmlns:xlink="http://www.w3.org/1999/xlink" x="0px" y="0px"
	 viewBox="0 0 400 702" style="enable-background:new 0 0 400 702;" xml:space="preserve">
<style type="text/css">
	.st0{fill:#0085B0;}
	.st1{fill:#E0EF18;}
	.st2{fill:#CECECE;}
	.st3{fill:#FFFFFF;}
	.st4{fill:#F2F2F2;}
	.st5{fill:#EACCB0;}
	.st6{fill:#9B9B9B;}
	.st7{fill:#939393;}
	.st8{fill:#EFEFEF;}
	.st9{fill:#828282;}
	.st10{fill:#2C2A2D;}
	.st11{fill:#202021;}
	.st12{fill:#F2D4B6;}
	.st13{fill:#534D46;}
	.st14{fill:#E8D313;}
	.st15{fill:#2ACCFF;}
	.st16{fill:#4E4F4F;}
	.st17{fill:#003A94;}
	.st18{fill:#00D13C;}
	.st19{fill:#15682A;}
	.st20{fill:#D40000;}
	.st21{fill:#505050;}
	.st22{fill:#DFDFDF;}
	.st23{fill:none;}
	.st24{fill:#636363;}
	.st25{fill:#6C92D5;}
	.st26{fill:#22272F;}
	.st27{fill:#1B2538;}
	.st28{fill:#253452;}
	.st29{fill:#F9F9F9;}
	.st30{fill:#2D3543;}
	.st31{fill:#2A3D60;}
	.st32{fill:#587955;}
	.st33{fill:#CD7054;}
	.st34{fill:#F1CC4B;}
	.st35{fill:#ACACAC;}
	.st36{fill:#AAE528;}
	.st37{fill:#28CEBA;}
	.st38{fill:#DB143F;}
	.st39{fill:#53C2C9;}
	.st40{fill:#FFB412;}
	.st41{fill:#866A5E;}
	.st42{fill:#F7DDCB;}
	.st43{fill:#FFE6D4;}
	.st44{fill:#F5F5F5;}
	.st45{fill:#1A2830;}
	.st46{fill:#24353F;}
	.st47{fill:#132026;}
	.st48{fill:#F9FF03;}
	.st49{fill:#272728;}
	.st50{fill:#1E1D1E;}
	.st51{fill:#160423;}
	.st52{fill-rule:evenodd;clip-rule:evenodd;fill:#FFFFFF;}
	.st53{fill-rule:evenodd;clip-rule:evenodd;fill:#1996B8;}
	.st54{fill:#0C387D;}
	.st55{fill:#C69A81;}
	.st56{fill:#D1A385;}
	.st57{fill:#EAEAEA;}
	.st58{fill:#093E8C;}
	.st59{fill:#0B2A62;}
	.st60{fill:#D32A3B;}
	.st61{fill:#827C7D;}
	.st62{opacity:0.7;fill:#7F7F7F;}
	.st63{fill:#FDFDFD;}
	.st64{fill:#DAA449;}
	.st65{fill:#DD9225;}
	.st66{opacity:0.3;}
	.st67{fill:#425793;}
	.st68{opacity:0.8;}
	.st69{filter:url(#Adobe_OpacityMaskFilter);}
	.st70{opacity:0.15;mask:url(#SVGID_1_);}
	.st71{fill:#090B00;}
	.st72{opacity:0.1;}
	.st73{fill:#211915;}
	.st74{filter:url(#Adobe_OpacityMaskFilter_1_);}
	.st75{opacity:0.15;mask:url(#SVGID_2_);}
	.st76{fill:#AF3623;}
	.st77{filter:url(#Adobe_OpacityMaskFilter_2_);}
	.st78{opacity:0.15;mask:url(#SVGID_3_);}
	.st79{filter:url(#Adobe_OpacityMaskFilter_3_);}
	.st80{opacity:0.15;mask:url(#SVGID_4_);}
	.st81{fill:#456495;}
	.st82{filter:url(#Adobe_OpacityMaskFilter_4_);}
	.st83{opacity:0.15;mask:url(#SVGID_5_);}
	.st84{filter:url(#Adobe_OpacityMaskFilter_5_);}
	.st85{opacity:0.15;mask:url(#SVGID_6_);}
	.st86{fill:#76A9DA;}
	.st87{filter:url(#Adobe_OpacityMaskFilter_6_);}
	.st88{opacity:0.15;mask:url(#SVGID_7_);}
	.st89{filter:url(#Adobe_OpacityMaskFilter_7_);}
	.st90{opacity:0.15;mask:url(#SVGID_8_);}
	.st91{fill:#1F3642;}
	.st92{fill:#A9BDDA;}
	.st93{opacity:0.46;fill:#A6B4BC;}
	.st94{fill:#74C475;}
	.st95{fill:#221F21;}
	.st96{fill:#2D2D2D;}
	.st97{fill:#1C1B1A;}
	.st98{fill:#77181C;}
	.st99{fill:#262525;}
	.st100{fill:#11100F;}
	.st101{opacity:0.18;}
	.st102{opacity:0.38;}
	.st103{fill:#0A5B1F;}
	.st104{opacity:0.27;}
	.st105{opacity:0.48;}
	.st106{fill:#0A4654;}
	.st107{fill:#C2C6C6;}
	.st108{fill:#E5E5E5;stroke:#FFFFFF;stroke-miterlimit:10;}
	.st109{fill:#ACB4B5;}
	.st110{fill:#7F8384;}
	.st111{fill:#15772F;}
	.st112{fill:#F4F4F4;}
	.st113{fill:#53B8DB;}
	.st114{fill:#06EF42;}
	.st115{fill:#E7ED07;}
	.st116{fill:#CCCCCA;}
	.st117{fill:#EADF13;}
	.st118{fill:#C2C2C2;}
	.st119{fill:#85B681;}
	.st120{fill:#A1DC9B;}
	.st121{fill:#90C58B;}
	.st122{fill:#22241F;}
	.st123{opacity:0.5;}
	.st124{fill:#A2CADE;}
	.st125{fill:#E9E9E9;}
	.st126{fill:#D9D9D9;}
	.st127{fill:#CDCDCD;}
	.st128{opacity:0.34;fill:#F0F0F0;}
	.st129{fill:#5A5B5A;}
	.st130{fill:#FFE600;}
	.st131{fill:#DB1F59;}
	.st132{fill:#727272;}
	.st133{fill:#207235;}
	.st134{fill:#A3A3A3;}
	.st135{fill:#BCBCBC;}
	.st136{fill:#0A511C;}
	.st137{fill:#F9FF00;}
	.st138{fill:#D59F6D;}
	.st139{fill:#C0804A;}
	.st140{fill:#E6BA8A;}
	.st141{fill:#BE3ACC;}
	.st142{fill:#FFFFFF;stroke:#443F0C;stroke-width:9;stroke-miterlimit:10;}
	.st143{fill:none;stroke:#443F0C;stroke-width:9;stroke-miterlimit:10;}
	.st144{fill:#170623;}
	.st145{fill:#158231;}
	.st146{fill:#C89D76;}
	.st147{opacity:0.4;}
	.st148{fill:#ADADAD;}
	.st149{fill:#EDC3A6;}
	.st150{opacity:0.69;}
	.st151{fill:#E5D3D6;}
	.st152{opacity:0.44;}
	.st153{fill:#A5A5A5;}
	.st154{fill:#DDE5E4;}
	.st155{fill:#5C9169;}
	.st156{fill:#934215;}
	.st157{fill:#47413B;}
	.st158{fill:#601A1F;}
	.st159{fill:#044554;}
	.st160{opacity:0.7;}
	.st161{fill:#7F7F7F;}
	.st162{fill:#6B8A69;}
	.st163{opacity:0.24;fill:#848D90;}
	.st164{opacity:0.4;fill:#848D90;}
	.st165{fill:#F2D5D5;}
	.st166{fill:#485CC1;}
	.st167{fill:#C6CBE0;}
	.st168{fill:#8B909E;}
	.st169{fill:#53BC1B;}
	.st170{fill:#11565B;}
	.st171{fill:#67A06D;}
	.st172{fill:#FFEC00;}
	.st173{fill:#77A007;}
	.st174{fill:#E50731;}
	.st175{fill:#266472;}
	.st176{fill:#D4D4D4;}
	.st177{fill:#0E9932;}
	.st178{fill:#87DD24;}
	.st179{fill:#76A172;}
	.st180{fill:#62835F;}
	.st181{fill:#96D090;}
	.st182{fill:#D6D6D6;}
	.st183{fill:#606060;}
	.st184{fill:#494949;}
	.st185{fill:#29E55A;}
	.st186{fill:#2C703D;}
	.st187{fill:#DD0744;}
	.st188{fill:#EDEDED;}
	.st189{fill:#2A5936;}
	.st190{fill:#B9BBC1;}
	.st191{fill:#FFD79E;}
	.st192{fill:#FFE6C2;}
	.st193{fill:#2CBB55;}
	.st194{fill:#5C412D;}
	.st195{fill:#EC0000;}
	.st196{fill:#DD2626;}
	.st197{fill:#EA9334;}
	.st198{fill:#FCC232;}
	.st199{fill:#F9B234;}
	.st200{fill:#F7A037;}
	.st201{fill:#E0E0E0;}
</style>
<g>
	<path class="st18" d="M9.5,209.36c0,22,13.29,27.86,29.54,13.03c0,0,156.99-143.3,353.09,26.97V55c0-22-18-40-40-40H49.5
		c-22,0-40,18-40,40V209.36z"/>
</g>
<g>
	<path class="st18" d="M391.66,647c0,22-18,40-40,40H49.98c-22,0-40-18-40-40v-46.27c0-22,18-40,40-40h301.68c22,0,40,18,40,40V647z
		"/>
</g>
<g>
	<path d="M120.71,389.48c-0.31-0.32-0.46-0.8-0.46-1.46v-19.24c0-0.66,0.15-1.14,0.46-1.46s0.83-0.48,1.58-0.48h8.13
		c3.4,0,5.88,0.67,7.43,2.02s2.33,3.38,2.33,6.1c0,1.63-0.28,3.01-0.83,4.13c-0.56,1.12-1.41,2-2.57,2.64l3.16,6.77
		c0.09,0.18,0.14,0.39,0.14,0.61c0,0.25-0.08,0.45-0.25,0.61c-0.17,0.16-0.39,0.24-0.66,0.24h-5.75c-0.36,0-0.65-0.05-0.87-0.15
		c-0.22-0.1-0.37-0.28-0.46-0.53l-2.52-6.32h-1.16v5.07c0,0.66-0.15,1.15-0.46,1.46s-0.84,0.48-1.62,0.48h-4.05
		C121.54,389.95,121.02,389.79,120.71,389.48z M129.7,377.27c0.72,0,1.3-0.19,1.72-0.58s0.63-0.96,0.63-1.73
		c0-0.79-0.21-1.38-0.63-1.77s-0.99-0.58-1.72-0.58h-2.31v4.66H129.7z"/>
	<path d="M142.33,389.48c-0.31-0.32-0.46-0.8-0.46-1.46v-19.24c0-0.66,0.15-1.14,0.46-1.46c0.31-0.32,0.83-0.48,1.58-0.48h14.08
		c0.73,0,1.22,0.15,1.48,0.46c0.26,0.31,0.39,0.8,0.39,1.48v1.9c0,0.68-0.13,1.17-0.39,1.48c-0.26,0.31-0.75,0.46-1.48,0.46h-7.96
		v2.92h4.9c0.73,0,1.22,0.15,1.48,0.46c0.26,0.31,0.39,0.8,0.39,1.48v1.84c0,0.68-0.13,1.17-0.39,1.48
		c-0.26,0.31-0.75,0.46-1.48,0.46h-4.9v2.92h7.92c0.72,0,1.22,0.15,1.48,0.46c0.26,0.31,0.39,0.8,0.39,1.48v1.9
		c0,0.68-0.13,1.17-0.39,1.48c-0.26,0.31-0.75,0.46-1.48,0.46h-14.04C143.17,389.95,142.64,389.79,142.33,389.48z"/>
	<path d="M165.71,389.82c-1.77-0.43-3.2-1.03-4.28-1.8c-0.45-0.32-0.68-0.62-0.68-0.92c0-0.2,0.08-0.42,0.24-0.65l1.97-3.09
		c0.2-0.29,0.41-0.44,0.61-0.44c0.18,0,0.4,0.08,0.65,0.24c0.82,0.5,1.75,0.89,2.8,1.17c1.05,0.28,2.08,0.42,3.08,0.42
		c0.84,0,1.45-0.11,1.82-0.34s0.56-0.58,0.56-1.05c0-0.52-0.25-0.94-0.75-1.26c-0.5-0.32-1.36-0.71-2.58-1.19
		c-2.29-0.88-4.09-1.89-5.41-3.01s-1.97-2.61-1.97-4.47c0-2.36,0.82-4.13,2.46-5.32c1.64-1.19,3.86-1.79,6.65-1.79
		c1.95,0,3.61,0.17,4.98,0.51c1.37,0.34,2.57,0.87,3.59,1.6c0.45,0.32,0.68,0.62,0.68,0.92c0,0.2-0.08,0.42-0.24,0.65l-1.97,3.09
		c-0.2,0.32-0.41,0.48-0.61,0.48c-0.14,0-0.35-0.09-0.65-0.27c-0.54-0.36-1.19-0.66-1.94-0.9c-0.75-0.24-1.55-0.36-2.41-0.36
		c-0.79,0-1.39,0.11-1.8,0.34s-0.61,0.59-0.61,1.09c0,0.41,0.14,0.75,0.42,1.02c0.28,0.27,0.64,0.5,1.07,0.7
		c0.43,0.19,1.18,0.5,2.24,0.94c1.7,0.68,3.04,1.33,4.01,1.96s1.71,1.37,2.21,2.24c0.5,0.87,0.75,1.98,0.75,3.31
		c0,2.04-0.76,3.69-2.29,4.95c-1.53,1.26-3.81,1.89-6.85,1.89C169.39,390.46,167.48,390.25,165.71,389.82z"/>
	<path d="M182.76,389.48c-0.31-0.32-0.46-0.8-0.46-1.46v-19.24c0-0.66,0.15-1.14,0.46-1.46s0.83-0.48,1.58-0.48h14.08
		c0.72,0,1.22,0.15,1.48,0.46c0.26,0.31,0.39,0.8,0.39,1.48v1.9c0,0.68-0.13,1.17-0.39,1.48c-0.26,0.31-0.75,0.46-1.48,0.46h-7.96
		v2.92h4.9c0.73,0,1.22,0.15,1.48,0.46s0.39,0.8,0.39,1.48v1.84c0,0.68-0.13,1.17-0.39,1.48s-0.75,0.46-1.48,0.46h-4.9v2.92h7.92
		c0.73,0,1.22,0.15,1.48,0.46c0.26,0.31,0.39,0.8,0.39,1.48v1.9c0,0.68-0.13,1.17-0.39,1.48c-0.26,0.31-0.75,0.46-1.48,0.46h-14.04
		C183.59,389.95,183.06,389.79,182.76,389.48z"/>
	<path d="M202.27,389.48c-0.31-0.32-0.46-0.8-0.46-1.46v-19.24c0-0.66,0.15-1.14,0.46-1.46s0.83-0.48,1.58-0.48h8.13
		c3.4,0,5.88,0.67,7.43,2.02s2.33,3.38,2.33,6.1c0,1.63-0.28,3.01-0.83,4.13c-0.56,1.12-1.41,2-2.57,2.64l3.16,6.77
		c0.09,0.18,0.14,0.39,0.14,0.61c0,0.25-0.08,0.45-0.25,0.61c-0.17,0.16-0.39,0.24-0.66,0.24h-5.75c-0.36,0-0.65-0.05-0.87-0.15
		c-0.22-0.1-0.37-0.28-0.46-0.53l-2.52-6.32h-1.16v5.07c0,0.66-0.15,1.15-0.46,1.46s-0.84,0.48-1.62,0.48h-4.05
		C203.11,389.95,202.58,389.79,202.27,389.48z M211.27,377.27c0.72,0,1.3-0.19,1.72-0.58s0.63-0.96,0.63-1.73
		c0-0.79-0.21-1.38-0.63-1.77s-0.99-0.58-1.72-0.58h-2.31v4.66H211.27z"/>
	<path d="M229.51,389.66c-0.26-0.19-0.48-0.53-0.66-1l-8.13-20.37c-0.11-0.29-0.17-0.54-0.17-0.75c0-0.48,0.25-0.71,0.75-0.71h6.39
		c0.7,0,1.14,0.31,1.33,0.92l3.47,11.08l3.47-11.08c0.18-0.61,0.62-0.92,1.33-0.92h6.39c0.5,0,0.75,0.24,0.75,0.71
		c0,0.2-0.06,0.45-0.17,0.75l-8.09,20.37c-0.18,0.48-0.4,0.81-0.66,1c-0.26,0.19-0.64,0.29-1.14,0.29h-3.71
		C230.15,389.95,229.77,389.86,229.51,389.66z"/>
	<path d="M240.17,389.24c0-0.2,0.06-0.45,0.17-0.75l8.46-20.37c0.21-0.48,0.44-0.81,0.7-1c0.26-0.19,0.63-0.29,1.11-0.29h3.71
		c0.48,0,0.84,0.1,1.11,0.29c0.26,0.19,0.49,0.53,0.7,1l8.43,20.37c0.11,0.29,0.17,0.54,0.17,0.75c0,0.48-0.25,0.71-0.75,0.71h-6.39
		c-0.7,0-1.15-0.31-1.33-0.92l-0.82-2.52h-6.02l-0.78,2.52c-0.18,0.61-0.62,0.92-1.33,0.92h-6.39
		C240.42,389.95,240.17,389.71,240.17,389.24z M253.77,381.15l-1.33-4.22l-1.33,4.22H253.77z"/>
	<path d="M269.2,389.82c-1.77-0.43-3.2-1.03-4.28-1.8c-0.45-0.32-0.68-0.62-0.68-0.92c0-0.2,0.08-0.42,0.24-0.65l1.97-3.09
		c0.2-0.29,0.41-0.44,0.61-0.44c0.18,0,0.4,0.08,0.65,0.24c0.82,0.5,1.75,0.89,2.8,1.17c1.05,0.28,2.08,0.42,3.08,0.42
		c0.84,0,1.44-0.11,1.82-0.34s0.56-0.58,0.56-1.05c0-0.52-0.25-0.94-0.75-1.26c-0.5-0.32-1.36-0.71-2.58-1.19
		c-2.29-0.88-4.09-1.89-5.41-3.01c-1.32-1.12-1.97-2.61-1.97-4.47c0-2.36,0.82-4.13,2.46-5.32c1.64-1.19,3.86-1.79,6.65-1.79
		c1.95,0,3.61,0.17,4.98,0.51c1.37,0.34,2.57,0.87,3.59,1.6c0.45,0.32,0.68,0.62,0.68,0.92c0,0.2-0.08,0.42-0.24,0.65l-1.97,3.09
		c-0.2,0.32-0.41,0.48-0.61,0.48c-0.14,0-0.35-0.09-0.65-0.27c-0.54-0.36-1.19-0.66-1.94-0.9c-0.75-0.24-1.55-0.36-2.41-0.36
		c-0.79,0-1.39,0.11-1.8,0.34c-0.41,0.23-0.61,0.59-0.61,1.09c0,0.41,0.14,0.75,0.43,1.02c0.28,0.27,0.64,0.5,1.07,0.7
		c0.43,0.19,1.18,0.5,2.24,0.94c1.7,0.68,3.04,1.33,4.01,1.96s1.71,1.37,2.21,2.24c0.5,0.87,0.75,1.98,0.75,3.31
		c0,2.04-0.77,3.69-2.29,4.95c-1.53,1.26-3.81,1.89-6.85,1.89C272.89,390.46,270.97,390.25,269.2,389.82z"/>
	<path d="M55.18,431.74c-1.21-1.45-2.15-3.2-2.82-5.24s-1-4.2-1-6.49c0-2.29,0.33-4.45,1-6.49s1.61-3.79,2.82-5.24
		s2.59-2.45,4.13-2.99c1.04-0.36,1.87-0.54,2.48-0.54c0.63,0,1.11,0.19,1.43,0.56c0.32,0.37,0.48,0.98,0.48,1.82
		c0,0.7-0.02,1.22-0.07,1.55c-0.05,0.33-0.16,0.62-0.34,0.87c-0.18,0.25-0.49,0.57-0.92,0.95c-1.11,0.97-1.87,2.2-2.28,3.67
		c-0.41,1.47-0.61,3.42-0.61,5.85c0,2.43,0.2,4.38,0.61,5.85c0.41,1.47,1.17,2.7,2.28,3.67c0.43,0.39,0.74,0.7,0.92,0.95
		c0.18,0.25,0.29,0.54,0.34,0.87c0.04,0.33,0.07,0.84,0.07,1.55c0,0.84-0.16,1.45-0.48,1.82c-0.32,0.37-0.79,0.56-1.43,0.56
		c-0.61,0-1.44-0.18-2.48-0.54C57.77,434.19,56.39,433.19,55.18,431.74z"/>
	<path d="M73.33,430.46c-0.26-0.19-0.48-0.53-0.66-1l-8.13-20.37c-0.11-0.29-0.17-0.54-0.17-0.75c0-0.48,0.25-0.71,0.75-0.71h6.39
		c0.7,0,1.14,0.31,1.33,0.92l3.47,11.08l3.47-11.08c0.18-0.61,0.62-0.92,1.33-0.92h6.39c0.5,0,0.75,0.24,0.75,0.71
		c0,0.2-0.06,0.45-0.17,0.75l-8.09,20.37c-0.18,0.48-0.4,0.81-0.66,1c-0.26,0.19-0.64,0.29-1.14,0.29h-3.71
		C73.97,430.75,73.59,430.66,73.33,430.46z"/>
	<path d="M95.07,430.19c-1.68-0.71-2.98-1.75-3.91-3.09c-0.93-1.35-1.39-2.95-1.39-4.81v-12.72c0-0.66,0.15-1.14,0.46-1.46
		s0.83-0.48,1.58-0.48h4.05c0.77,0,1.31,0.15,1.62,0.46s0.46,0.8,0.46,1.48v12.82c0,1.07,0.27,1.86,0.8,2.38
		c0.53,0.52,1.26,0.78,2.19,0.78s1.66-0.26,2.19-0.78c0.53-0.52,0.8-1.31,0.8-2.38v-12.82c0-0.66,0.15-1.14,0.46-1.46
		c0.31-0.32,0.83-0.48,1.58-0.48H110c0.77,0,1.31,0.15,1.62,0.46c0.31,0.31,0.46,0.8,0.46,1.48v12.72c0,1.86-0.46,3.46-1.39,4.81
		c-0.93,1.35-2.23,2.38-3.91,3.09c-1.68,0.71-3.63,1.07-5.85,1.07C98.7,431.26,96.75,430.91,95.07,430.19z"/>
	<path d="M114.74,430.28c-0.31-0.32-0.46-0.8-0.46-1.46v-19.24c0-0.66,0.15-1.14,0.46-1.46s0.83-0.48,1.58-0.48h14.08
		c0.72,0,1.22,0.15,1.48,0.46s0.39,0.8,0.39,1.48v1.9c0,0.68-0.13,1.17-0.39,1.48c-0.26,0.31-0.75,0.46-1.48,0.46h-7.96v2.92h4.9
		c0.73,0,1.22,0.15,1.48,0.46s0.39,0.8,0.39,1.48v1.84c0,0.68-0.13,1.17-0.39,1.48s-0.75,0.46-1.48,0.46h-4.9v2.92h7.92
		c0.73,0,1.22,0.15,1.48,0.46c0.26,0.31,0.39,0.8,0.39,1.48v1.9c0,0.68-0.13,1.17-0.39,1.48c-0.26,0.31-0.75,0.46-1.48,0.46h-14.04
		C115.58,430.75,115.05,430.59,114.74,430.28z"/>
	<path d="M134.26,430.28c-0.31-0.32-0.46-0.8-0.46-1.46v-19.24c0-0.66,0.15-1.14,0.46-1.46s0.83-0.48,1.58-0.48h4.05
		c0.77,0,1.31,0.15,1.62,0.46s0.46,0.8,0.46,1.48v15.4h7.92c0.73,0,1.22,0.15,1.48,0.46c0.26,0.31,0.39,0.8,0.39,1.48v1.9
		c0,0.68-0.13,1.17-0.39,1.48c-0.26,0.31-0.75,0.46-1.48,0.46h-14.04C135.09,430.75,134.56,430.59,134.26,430.28z"/>
	<path d="M153.69,428.12c-2.09-2.1-3.13-5.07-3.13-8.92s1.04-6.83,3.13-8.93c2.09-2.1,5.15-3.14,9.18-3.14
		c4.04,0,7.09,1.05,9.18,3.14c2.08,2.1,3.13,5.07,3.13,8.93s-1.04,6.83-3.13,8.92c-2.09,2.1-5.15,3.14-9.18,3.14
		C158.83,431.26,155.78,430.21,153.69,428.12z M166.07,423.97c0.66-1.05,0.99-2.65,0.99-4.78c0-2.15-0.33-3.75-0.99-4.79
		c-0.66-1.04-1.72-1.56-3.2-1.56c-1.47,0-2.54,0.52-3.2,1.56c-0.66,1.04-0.99,2.64-0.99,4.79c0,2.13,0.33,3.72,0.99,4.78
		c0.66,1.05,1.72,1.58,3.2,1.58C164.34,425.55,165.41,425.02,166.07,423.97z"/>
	<path d="M179.67,430.62c-1.77-0.43-3.2-1.03-4.28-1.8c-0.45-0.32-0.68-0.62-0.68-0.92c0-0.2,0.08-0.42,0.24-0.65l1.97-3.09
		c0.2-0.29,0.41-0.44,0.61-0.44c0.18,0,0.4,0.08,0.65,0.24c0.82,0.5,1.75,0.89,2.8,1.17c1.05,0.28,2.08,0.42,3.08,0.42
		c0.84,0,1.44-0.11,1.82-0.34c0.37-0.23,0.56-0.58,0.56-1.05c0-0.52-0.25-0.94-0.75-1.26s-1.36-0.71-2.58-1.19
		c-2.29-0.88-4.09-1.89-5.41-3.01s-1.97-2.61-1.97-4.47c0-2.36,0.82-4.13,2.46-5.32c1.64-1.19,3.86-1.79,6.65-1.79
		c1.95,0,3.61,0.17,4.98,0.51s2.57,0.87,3.59,1.6c0.45,0.32,0.68,0.62,0.68,0.92c0,0.2-0.08,0.42-0.24,0.65l-1.97,3.09
		c-0.2,0.32-0.41,0.48-0.61,0.48c-0.14,0-0.35-0.09-0.65-0.27c-0.54-0.36-1.19-0.66-1.94-0.9c-0.75-0.24-1.55-0.36-2.41-0.36
		c-0.79,0-1.39,0.11-1.8,0.34c-0.41,0.23-0.61,0.59-0.61,1.09c0,0.41,0.14,0.75,0.43,1.02c0.28,0.27,0.64,0.5,1.07,0.7
		c0.43,0.19,1.18,0.5,2.24,0.94c1.7,0.68,3.04,1.33,4.01,1.96s1.71,1.37,2.21,2.24c0.5,0.87,0.75,1.98,0.75,3.31
		c0,2.04-0.76,3.69-2.29,4.95s-3.81,1.89-6.85,1.89C183.35,431.26,181.43,431.05,179.67,430.62z"/>
	<path d="M195.61,434.02c0-0.09,0.02-0.25,0.07-0.48l1.67-5.95c0.16-0.59,0.37-0.97,0.63-1.16c0.26-0.18,0.7-0.27,1.31-0.27h3.2
		c0.52,0,0.9,0.07,1.12,0.2c0.23,0.14,0.34,0.35,0.34,0.65c0,0.32-0.09,0.69-0.27,1.12l-2.45,5.78c-0.13,0.29-0.31,0.52-0.53,0.66
		c-0.22,0.15-0.53,0.22-0.93,0.22h-3.13C195.95,434.8,195.61,434.54,195.61,434.02z"/>
	<path d="M221.74,430.28c-0.31-0.32-0.46-0.8-0.46-1.46v-15.4h-4.9c-0.73,0-1.22-0.15-1.48-0.46c-0.26-0.31-0.39-0.8-0.39-1.48v-1.9
		c0-0.68,0.13-1.17,0.39-1.48c0.26-0.31,0.75-0.46,1.48-0.46h17.95c0.73,0,1.22,0.15,1.48,0.46s0.39,0.8,0.39,1.48v1.9
		c0,0.68-0.13,1.17-0.39,1.48c-0.26,0.31-0.75,0.46-1.48,0.46h-4.9v15.4c0,0.66-0.15,1.15-0.46,1.46s-0.84,0.48-1.61,0.48h-4.05
		C222.57,430.75,222.04,430.59,221.74,430.28z"/>
	<path d="M237.69,430.28c-0.31-0.32-0.46-0.8-0.46-1.46v-19.24c0-0.66,0.15-1.14,0.46-1.46s0.83-0.48,1.58-0.48h4.05
		c0.77,0,1.31,0.15,1.62,0.46c0.31,0.31,0.46,0.8,0.46,1.48v19.24c0,0.66-0.15,1.15-0.46,1.46c-0.31,0.32-0.84,0.48-1.62,0.48h-4.05
		C238.52,430.75,237.99,430.59,237.69,430.28z"/>
	<path d="M250.52,428.22c-2.29-2.03-3.43-5.04-3.43-9.03c0-4.01,1.11-7.03,3.32-9.04s5.37-3.03,9.47-3.03
		c1.86,0,3.51,0.18,4.96,0.54s2.66,0.87,3.64,1.53c0.27,0.2,0.41,0.43,0.41,0.68c0,0.2-0.1,0.49-0.31,0.85l-1.7,2.92
		c-0.18,0.32-0.4,0.48-0.65,0.48c-0.16,0-0.42-0.09-0.78-0.27c-0.63-0.32-1.3-0.57-1.99-0.75c-0.69-0.18-1.5-0.27-2.43-0.27
		c-1.88,0-3.32,0.54-4.32,1.63s-1.5,2.66-1.5,4.73c0,2.04,0.54,3.61,1.63,4.71s2.57,1.65,4.46,1.65c1.63,0,3.13-0.34,4.49-1.02
		c0.36-0.18,0.62-0.27,0.78-0.27c0.25,0,0.46,0.16,0.65,0.48l1.7,2.92c0.2,0.36,0.31,0.65,0.31,0.85c0,0.25-0.14,0.48-0.41,0.68
		c-0.97,0.66-2.2,1.17-3.67,1.53c-1.47,0.36-3.14,0.54-5,0.54C256.02,431.26,252.81,430.25,250.52,428.22z"/>
	<path d="M271.38,430.28c-0.31-0.32-0.46-0.8-0.46-1.46v-19.24c0-0.66,0.15-1.14,0.46-1.46c0.31-0.32,0.83-0.48,1.58-0.48h4.04
		c0.77,0,1.31,0.15,1.62,0.46c0.31,0.31,0.46,0.8,0.46,1.48v5.58l4.28-7c0.11-0.2,0.26-0.34,0.44-0.41c0.18-0.07,0.45-0.1,0.82-0.1
		h6.29c0.27,0,0.48,0.07,0.61,0.2s0.2,0.32,0.2,0.54c0,0.25-0.08,0.49-0.24,0.71l-6.49,9.96l6.8,10.23
		c0.16,0.23,0.24,0.46,0.24,0.71c0,0.23-0.07,0.41-0.21,0.54c-0.14,0.14-0.34,0.2-0.61,0.2h-6.29c-0.36,0-0.63-0.03-0.8-0.1
		c-0.17-0.07-0.32-0.2-0.46-0.41l-4.59-7.24v5.81c0,0.66-0.15,1.15-0.46,1.46c-0.31,0.32-0.84,0.48-1.62,0.48h-4.04
		C272.21,430.75,271.69,430.59,271.38,430.28z"/>
	<path d="M294.23,430.28c-0.31-0.32-0.46-0.8-0.46-1.46v-19.24c0-0.66,0.15-1.14,0.46-1.46c0.31-0.32,0.83-0.48,1.58-0.48h14.08
		c0.72,0,1.22,0.15,1.48,0.46c0.26,0.31,0.39,0.8,0.39,1.48v1.9c0,0.68-0.13,1.17-0.39,1.48c-0.26,0.31-0.75,0.46-1.48,0.46h-7.96
		v2.92h4.9c0.72,0,1.22,0.15,1.48,0.46c0.26,0.31,0.39,0.8,0.39,1.48v1.84c0,0.68-0.13,1.17-0.39,1.48
		c-0.26,0.31-0.75,0.46-1.48,0.46h-4.9v2.92h7.92c0.73,0,1.22,0.15,1.48,0.46c0.26,0.31,0.39,0.8,0.39,1.48v1.9
		c0,0.68-0.13,1.17-0.39,1.48s-0.75,0.46-1.48,0.46h-14.04C295.06,430.75,294.53,430.59,294.23,430.28z"/>
	<path d="M319.15,430.28c-0.31-0.32-0.46-0.8-0.46-1.46v-15.4h-4.9c-0.73,0-1.22-0.15-1.48-0.46c-0.26-0.31-0.39-0.8-0.39-1.48v-1.9
		c0-0.68,0.13-1.17,0.39-1.48c0.26-0.31,0.75-0.46,1.48-0.46h17.95c0.72,0,1.22,0.15,1.48,0.46c0.26,0.31,0.39,0.8,0.39,1.48v1.9
		c0,0.68-0.13,1.17-0.39,1.48c-0.26,0.31-0.75,0.46-1.48,0.46h-4.9v15.4c0,0.66-0.15,1.15-0.46,1.46c-0.31,0.32-0.84,0.48-1.62,0.48
		h-4.04C319.98,430.75,319.46,430.59,319.15,430.28z"/>
	<path d="M337.42,430.62c-1.77-0.43-3.2-1.03-4.28-1.8c-0.45-0.32-0.68-0.62-0.68-0.92c0-0.2,0.08-0.42,0.24-0.65l1.97-3.09
		c0.2-0.29,0.41-0.44,0.61-0.44c0.18,0,0.4,0.08,0.65,0.24c0.82,0.5,1.75,0.89,2.8,1.17c1.05,0.28,2.08,0.42,3.08,0.42
		c0.84,0,1.44-0.11,1.82-0.34c0.37-0.23,0.56-0.58,0.56-1.05c0-0.52-0.25-0.94-0.75-1.26s-1.36-0.71-2.58-1.19
		c-2.29-0.88-4.09-1.89-5.41-3.01s-1.97-2.61-1.97-4.47c0-2.36,0.82-4.13,2.46-5.32c1.64-1.19,3.86-1.79,6.65-1.79
		c1.95,0,3.61,0.17,4.98,0.51s2.57,0.87,3.59,1.6c0.45,0.32,0.68,0.62,0.68,0.92c0,0.2-0.08,0.42-0.24,0.65l-1.97,3.09
		c-0.2,0.32-0.41,0.48-0.61,0.48c-0.14,0-0.35-0.09-0.65-0.27c-0.54-0.36-1.19-0.66-1.94-0.9c-0.75-0.24-1.55-0.36-2.41-0.36
		c-0.79,0-1.39,0.11-1.8,0.34c-0.41,0.23-0.61,0.59-0.61,1.09c0,0.41,0.14,0.75,0.43,1.02c0.28,0.27,0.64,0.5,1.07,0.7
		c0.43,0.19,1.18,0.5,2.24,0.94c1.7,0.68,3.04,1.33,4.01,1.96s1.71,1.37,2.21,2.24c0.5,0.87,0.75,1.98,0.75,3.31
		c0,2.04-0.76,3.69-2.29,4.95s-3.81,1.89-6.85,1.89C341.11,431.26,339.19,431.05,337.42,430.62z"/>
	<path d="M72.97,471.08c-0.31-0.32-0.46-0.8-0.46-1.46v-19.24c0-0.66,0.15-1.14,0.46-1.46s0.83-0.48,1.58-0.48h4.05
		c0.77,0,1.31,0.15,1.62,0.46s0.46,0.8,0.46,1.48v6.73h6.05v-6.73c0-0.66,0.15-1.14,0.46-1.46c0.31-0.32,0.83-0.48,1.58-0.48h4.05
		c0.77,0,1.31,0.15,1.62,0.46s0.46,0.8,0.46,1.48v19.24c0,0.66-0.15,1.15-0.46,1.46s-0.84,0.48-1.62,0.48h-4.05
		c-0.75,0-1.27-0.16-1.58-0.48c-0.31-0.32-0.46-0.8-0.46-1.46v-6.73h-6.05v6.73c0,0.66-0.15,1.15-0.46,1.46s-0.84,0.48-1.62,0.48
		h-4.05C73.81,471.55,73.28,471.39,72.97,471.08z"/>
	<path d="M96.59,470.84c0-0.2,0.06-0.45,0.17-0.75l8.47-20.37c0.2-0.48,0.44-0.81,0.7-1c0.26-0.19,0.63-0.29,1.11-0.29h3.71
		c0.48,0,0.84,0.1,1.11,0.29c0.26,0.19,0.49,0.53,0.7,1l8.43,20.37c0.11,0.29,0.17,0.54,0.17,0.75c0,0.48-0.25,0.71-0.75,0.71h-6.39
		c-0.7,0-1.14-0.31-1.33-0.92l-0.82-2.52h-6.02l-0.78,2.52c-0.18,0.61-0.62,0.92-1.33,0.92h-6.39
		C96.84,471.55,96.59,471.31,96.59,470.84z M110.19,462.75l-1.33-4.22l-1.33,4.22H110.19z"/>
	<path d="M123.29,471.08c-0.31-0.32-0.46-0.8-0.46-1.46v-19.24c0-0.66,0.15-1.14,0.46-1.46c0.31-0.32,0.83-0.48,1.58-0.48h10.3
		c2.76,0,4.8,0.59,6.1,1.77s1.96,2.86,1.96,5.03c0,1.02-0.22,1.92-0.66,2.7s-1.03,1.33-1.75,1.65c2.02,0.68,3.03,2.27,3.03,4.76
		c0,2.13-0.75,3.87-2.26,5.2c-1.51,1.34-3.72,2.01-6.65,2.01h-10.06C124.13,471.55,123.6,471.39,123.29,471.08z M133.54,457.17
		c1.04,0,1.56-0.5,1.56-1.5c0-1-0.52-1.5-1.56-1.5h-2.58v2.99H133.54z M134.12,465.81c0.48,0,0.86-0.15,1.16-0.46
		s0.44-0.72,0.44-1.24c0-0.54-0.14-0.96-0.43-1.26c-0.28-0.29-0.67-0.44-1.17-0.44h-3.16v3.4H134.12z"/>
	<path d="M146.01,471.08c-0.31-0.32-0.46-0.8-0.46-1.46v-19.24c0-0.66,0.15-1.14,0.46-1.46c0.31-0.32,0.83-0.48,1.58-0.48h4.05
		c0.77,0,1.31,0.15,1.62,0.46c0.3,0.31,0.46,0.8,0.46,1.48v19.24c0,0.66-0.15,1.15-0.46,1.46c-0.31,0.32-0.85,0.48-1.62,0.48h-4.05
		C146.84,471.55,146.31,471.39,146.01,471.08z"/>
	<path d="M161.95,471.08c-0.31-0.32-0.46-0.8-0.46-1.46v-15.4h-4.9c-0.73,0-1.22-0.15-1.48-0.46c-0.26-0.31-0.39-0.8-0.39-1.48v-1.9
		c0-0.68,0.13-1.17,0.39-1.48c0.26-0.31,0.75-0.46,1.48-0.46h17.95c0.72,0,1.22,0.15,1.48,0.46c0.26,0.31,0.39,0.8,0.39,1.48v1.9
		c0,0.68-0.13,1.17-0.39,1.48c-0.26,0.31-0.75,0.46-1.48,0.46h-4.9v15.4c0,0.66-0.15,1.15-0.46,1.46c-0.31,0.32-0.84,0.48-1.62,0.48
		h-4.04C162.79,471.55,162.26,471.39,161.95,471.08z"/>
	<path d="M172.51,470.84c0-0.2,0.06-0.45,0.17-0.75l8.47-20.37c0.2-0.48,0.44-0.81,0.7-1c0.26-0.19,0.63-0.29,1.11-0.29h3.71
		c0.48,0,0.84,0.1,1.1,0.29c0.26,0.19,0.49,0.53,0.7,1l8.43,20.37c0.11,0.29,0.17,0.54,0.17,0.75c0,0.48-0.25,0.71-0.75,0.71h-6.39
		c-0.7,0-1.14-0.31-1.33-0.92l-0.82-2.52h-6.02l-0.78,2.52c-0.18,0.61-0.62,0.92-1.33,0.92h-6.39
		C172.76,471.55,172.51,471.31,172.51,470.84z M186.11,462.75l-1.33-4.22l-1.33,4.22H186.11z"/>
	<path d="M199.64,469.02c-2.29-2.03-3.43-5.04-3.43-9.03c0-4.01,1.11-7.03,3.32-9.04s5.37-3.03,9.47-3.03
		c1.86,0,3.51,0.18,4.96,0.54s2.66,0.87,3.64,1.53c0.27,0.2,0.41,0.43,0.41,0.68c0,0.2-0.1,0.49-0.31,0.85l-1.7,2.92
		c-0.18,0.32-0.4,0.48-0.65,0.48c-0.16,0-0.42-0.09-0.78-0.27c-0.63-0.32-1.3-0.57-1.99-0.75c-0.69-0.18-1.5-0.27-2.43-0.27
		c-1.88,0-3.32,0.54-4.32,1.63s-1.5,2.66-1.5,4.73c0,2.04,0.54,3.61,1.63,4.71s2.57,1.65,4.45,1.65c1.63,0,3.13-0.34,4.49-1.02
		c0.36-0.18,0.62-0.27,0.78-0.27c0.25,0,0.46,0.16,0.65,0.48l1.7,2.92c0.2,0.36,0.31,0.65,0.31,0.85c0,0.25-0.14,0.48-0.41,0.68
		c-0.97,0.66-2.2,1.17-3.67,1.53c-1.47,0.36-3.14,0.54-5,0.54C205.14,472.06,201.93,471.05,199.64,469.02z"/>
	<path d="M220.5,471.08c-0.31-0.32-0.46-0.8-0.46-1.46v-19.24c0-0.66,0.15-1.14,0.46-1.46c0.31-0.32,0.83-0.48,1.58-0.48h4.05
		c0.77,0,1.31,0.15,1.62,0.46c0.3,0.31,0.46,0.8,0.46,1.48v19.24c0,0.66-0.15,1.15-0.46,1.46c-0.31,0.32-0.85,0.48-1.62,0.48h-4.05
		C221.33,471.55,220.81,471.39,220.5,471.08z"/>
	<path d="M233.03,468.92c-2.09-2.1-3.13-5.07-3.13-8.92s1.04-6.83,3.13-8.93c2.08-2.1,5.15-3.14,9.18-3.14s7.09,1.05,9.18,3.14
		c2.08,2.1,3.13,5.07,3.13,8.93s-1.04,6.83-3.13,8.92c-2.09,2.1-5.15,3.14-9.18,3.14S235.11,471.01,233.03,468.92z M245.4,464.77
		c0.66-1.05,0.99-2.65,0.99-4.78c0-2.15-0.33-3.75-0.99-4.79c-0.66-1.04-1.72-1.56-3.2-1.56s-2.54,0.52-3.2,1.56
		c-0.66,1.04-0.99,2.64-0.99,4.79c0,2.13,0.33,3.72,0.99,4.78c0.66,1.05,1.72,1.58,3.2,1.58S244.75,465.82,245.4,464.77z"/>
	<path d="M256.68,471.08c-0.31-0.32-0.46-0.8-0.46-1.46v-19.28c0-0.66,0.15-1.14,0.46-1.45c0.31-0.31,0.84-0.46,1.62-0.46h3.23
		c0.48,0,0.84,0.06,1.1,0.19c0.26,0.12,0.52,0.37,0.77,0.73l6.15,9.15v-8.13c0-0.66,0.15-1.14,0.46-1.46
		c0.31-0.32,0.83-0.48,1.58-0.48h4.05c0.77,0,1.31,0.15,1.62,0.46c0.3,0.31,0.46,0.8,0.46,1.48v19.28c0,0.66-0.15,1.14-0.46,1.45
		c-0.31,0.31-0.85,0.46-1.62,0.46h-3.23c-0.48,0-0.84-0.06-1.11-0.19c-0.26-0.13-0.52-0.37-0.76-0.73l-6.15-9.15v8.16
		c0,0.66-0.15,1.14-0.46,1.45c-0.31,0.31-0.85,0.46-1.62,0.46h-4.05C257.51,471.55,256.98,471.39,256.68,471.08z"/>
	<path d="M280.54,471.08c-0.31-0.32-0.46-0.8-0.46-1.46v-19.24c0-0.66,0.15-1.14,0.46-1.46s0.83-0.48,1.58-0.48h14.08
		c0.73,0,1.22,0.15,1.48,0.46c0.26,0.31,0.39,0.8,0.39,1.48v1.9c0,0.68-0.13,1.17-0.39,1.48c-0.26,0.31-0.75,0.46-1.48,0.46h-7.96
		v2.92h4.9c0.72,0,1.22,0.15,1.48,0.46c0.26,0.31,0.39,0.8,0.39,1.48v1.84c0,0.68-0.13,1.17-0.39,1.48
		c-0.26,0.31-0.75,0.46-1.48,0.46h-4.9v2.92h7.92c0.72,0,1.22,0.15,1.48,0.46c0.26,0.31,0.39,0.8,0.39,1.48v1.9
		c0,0.68-0.13,1.17-0.39,1.48c-0.26,0.31-0.75,0.46-1.48,0.46h-14.04C281.38,471.55,280.85,471.39,280.54,471.08z"/>
	<path d="M303.92,471.42c-1.77-0.43-3.2-1.03-4.28-1.8c-0.45-0.32-0.68-0.62-0.68-0.92c0-0.2,0.08-0.42,0.24-0.65l1.97-3.09
		c0.2-0.29,0.41-0.44,0.61-0.44c0.18,0,0.4,0.08,0.65,0.24c0.82,0.5,1.75,0.89,2.8,1.17c1.05,0.28,2.08,0.42,3.08,0.42
		c0.84,0,1.44-0.11,1.82-0.34c0.37-0.23,0.56-0.58,0.56-1.05c0-0.52-0.25-0.94-0.75-1.26s-1.36-0.71-2.58-1.19
		c-2.29-0.88-4.09-1.89-5.41-3.01s-1.97-2.61-1.97-4.47c0-2.36,0.82-4.13,2.46-5.32c1.64-1.19,3.86-1.79,6.65-1.79
		c1.95,0,3.61,0.17,4.98,0.51s2.57,0.87,3.59,1.6c0.45,0.32,0.68,0.62,0.68,0.92c0,0.2-0.08,0.42-0.24,0.65l-1.97,3.09
		c-0.2,0.32-0.41,0.48-0.61,0.48c-0.14,0-0.35-0.09-0.65-0.27c-0.54-0.36-1.19-0.66-1.94-0.9c-0.75-0.24-1.55-0.36-2.41-0.36
		c-0.79,0-1.39,0.11-1.8,0.34c-0.41,0.23-0.61,0.59-0.61,1.09c0,0.41,0.14,0.75,0.43,1.02c0.28,0.27,0.64,0.5,1.07,0.7
		c0.43,0.19,1.18,0.5,2.24,0.94c1.7,0.68,3.04,1.33,4.01,1.96s1.71,1.37,2.21,2.24c0.5,0.87,0.75,1.98,0.75,3.31
		c0,2.04-0.76,3.69-2.29,4.95s-3.81,1.89-6.85,1.89C307.6,472.06,305.69,471.85,303.92,471.42z"/>
	<path d="M321.39,476.07c-0.64,0-1.11-0.19-1.43-0.56c-0.32-0.37-0.48-0.98-0.48-1.82c0-0.7,0.02-1.22,0.07-1.55
		c0.05-0.33,0.16-0.62,0.34-0.87c0.18-0.25,0.49-0.57,0.92-0.95c1.11-0.97,1.87-2.2,2.28-3.67c0.41-1.47,0.61-3.42,0.61-5.85
		c0-2.42-0.2-4.37-0.61-5.85s-1.17-2.7-2.28-3.67c-0.43-0.39-0.74-0.7-0.92-0.95c-0.18-0.25-0.29-0.54-0.34-0.87
		c-0.04-0.33-0.07-0.84-0.07-1.55c0-0.84,0.16-1.45,0.48-1.82c0.32-0.37,0.79-0.56,1.43-0.56c0.61,0,1.44,0.18,2.48,0.54
		c1.54,0.54,2.92,1.54,4.13,2.99s2.15,3.2,2.82,5.24s1,4.21,1,6.49c0,2.29-0.34,4.45-1,6.49s-1.61,3.79-2.82,5.24
		s-2.59,2.45-4.13,2.99C322.83,475.89,322.01,476.07,321.39,476.07z"/>
</g>
<polygon class="st1" points="200.76,96.93 214.23,124.22 244.34,128.59 222.55,149.83 227.7,179.83 200.76,165.67 173.83,179.83 
	178.97,149.83 157.18,128.59 187.29,124.22 "/>
<polygon class="st1" points="138.58,180.15 147.32,197.86 166.86,200.7 152.72,214.48 156.06,233.94 138.58,224.75 121.11,233.94 
	124.45,214.48 110.31,200.7 129.85,197.86 "/>
<polygon class="st1" points="268.68,180.15 277.42,197.86 296.95,200.7 282.82,214.48 286.15,233.94 268.68,224.75 251.2,233.94 
	254.54,214.48 240.4,200.7 259.94,197.86 "/>
<g>
	<circle class="st2" cx="201.77" cy="213.97" r="121.96"/>
	<circle class="st3" cx="200.82" cy="200.58" r="121.96"/>
</g>
<g>
	<path class="st3" d="M181.43,643.16c-0.56-0.66-0.84-1.72-0.84-3.18v-4.09c0-1.46,0.28-2.52,0.84-3.18
		c0.56-0.66,1.62-0.99,3.18-0.99h4.6v-19.05l-2.99,1.9c-0.24,0.2-0.54,0.29-0.88,0.29c-0.44,0-0.8-0.22-1.1-0.66l-5.55-8.47
		c-0.19-0.24-0.29-0.51-0.29-0.8c0-0.49,0.27-0.88,0.8-1.17l13.8-8.32c0.58-0.34,1.14-0.58,1.68-0.73c0.54-0.15,1.31-0.22,2.34-0.22
		h5.33c1.61,0,2.74,0.34,3.39,1.02c0.66,0.68,0.99,1.73,0.99,3.14v33.07h4.67c1.56,0,2.62,0.33,3.18,0.99
		c0.56,0.66,0.84,1.72,0.84,3.18v4.09c0,1.46-0.28,2.52-0.84,3.18c-0.56,0.66-1.62,0.99-3.18,0.99h-26.79
		C183.05,644.14,181.99,643.81,181.43,643.16z"/>
</g>
<rect x="144.64" y="197.25" class="st3" width="17.33" height="17.34"/>
<rect x="144.64" y="220.58" class="st3" width="17.33" height="17.33"/>
<g>
	<path class="st189" d="M286,159.47v85.32c0,4.16-3.38,7.57-7.56,7.57H142.61c-4.16,0-7.57-3.4-7.57-7.57v-85.32H286z"/>
	<path class="st3" d="M286,144.77v14.7H135.04v-14.7c0-4.18,3.4-7.56,7.57-7.56h135.83C282.62,137.21,286,140.59,286,144.77z"/>
	<rect x="191.29" y="173.93" class="st3" width="17.33" height="17.34"/>
	<rect x="214.61" y="173.93" class="st3" width="17.33" height="17.34"/>
	<rect x="237.93" y="173.93" class="st3" width="17.33" height="17.34"/>
	<rect x="261.26" y="173.93" class="st3" width="17.33" height="17.34"/>
	<rect x="167.96" y="197.25" class="st3" width="17.33" height="17.34"/>
	<rect x="191.29" y="197.25" class="st3" width="17.33" height="17.34"/>
	<rect x="214.61" y="197.25" class="st3" width="17.33" height="17.34"/>
	<rect x="237.93" y="197.25" class="st3" width="17.33" height="17.34"/>
	<rect x="261.26" y="197.25" class="st3" width="17.33" height="17.34"/>
	<rect x="167.96" y="220.58" class="st3" width="17.33" height="17.33"/>
	<rect x="191.29" y="220.58" class="st3" width="17.33" height="17.33"/>
	<rect x="214.61" y="220.58" class="st3" width="17.33" height="17.33"/>
	<rect x="237.93" y="220.58" class="st3" width="17.33" height="17.33"/>
	<rect x="261.26" y="220.58" class="st3" width="17.33" height="17.33"/>
	<g>
		<path class="st33" d="M259.7,220.34c-3.53,5.2-7.49,10.09-11.27,15.13c-0.88,1.16-2.72,1.31-3.91,0.68
			c-3.28-1.69-5.12-5.55-7.46-7.92c-2.04-2.62,1.54-3.17,3.28-1.94c2.22,1.59,3.78,3.86,5.8,5.6c3.53-4.08,7.79-7.76,10.79-12.2
			C258.16,217.84,261.44,217.77,259.7,220.34z"/>
	</g>
	<path class="st34" d="M157.89,147.86c0,2.65-2.15,4.8-4.8,4.8l0,0c-2.65,0-4.79-2.15-4.79-4.8v-17.83c0-2.65,2.15-4.8,4.79-4.8l0,0
		c2.65,0,4.8,2.15,4.8,4.8V147.86z"/>
	<path class="st34" d="M215.32,147.86c0,2.65-2.15,4.8-4.79,4.8l0,0c-2.65,0-4.8-2.15-4.8-4.8v-17.83c0-2.65,2.14-4.8,4.8-4.8l0,0
		c2.65,0,4.79,2.15,4.79,4.8V147.86z"/>
	<path class="st34" d="M272.75,147.86c0,2.65-2.15,4.8-4.8,4.8l0,0c-2.65,0-4.8-2.15-4.8-4.8v-17.83c0-2.65,2.15-4.8,4.8-4.8l0,0
		c2.65,0,4.8,2.15,4.8,4.8V147.86z"/>
	<g>
		<circle id="XMLID_240_" class="st4" cx="138.64" cy="238.12" r="37.91"/>
		<g id="XMLID_216_">
			<path id="XMLID_239_" class="st23" d="M149.18,236.63c0.49-1.2,0.74-2.15,0.8-2.4c-0.05-0.02-0.09-0.04-0.11-0.07
				c-0.08-0.12,0.15-1.34,0.05-1.43c-0.01-0.01-0.03-0.02-0.04-0.02c-0.14,0.43-0.39,0.79-0.69,1.04
				C149.19,234.69,149.19,235.66,149.18,236.63z"/>
			<path id="XMLID_238_" class="st41" d="M147.48,234.23c-0.56-0.4-0.54,5.28-2.87,7.53c-0.17,0.16-0.34,0.32-0.51,0.47
				c-0.18,0.15-0.36,0.3-0.55,0.44c0,0.08,0,0.16,0,0.24c2.15-0.63,3.66-2.53,4.6-4.17c0.42-0.73,0.76-1.46,1.03-2.11
				c0.01-0.97,0.01-1.94,0-2.88c-0.18,0.15-0.37,0.26-0.56,0.33C148.31,234.41,147.92,234.53,147.48,234.23z"/>
			<path id="XMLID_237_" class="st41" d="M129.38,249.35c-0.06,0.03-0.24,0.14-0.41,0.4C129.09,249.64,129.23,249.51,129.38,249.35z
				"/>
			<path id="XMLID_236_" class="st41" d="M143.56,243.21c0.05,1.25,0.31,2.89,1.33,4.38c0.34-0.3,0.52-0.37,0.65-0.16
				c0.75,1.28,1.54,1.95,1.98,2.39c-0.22-0.38-0.47-0.48-0.47-0.48s0.54-0.21,1.47,0.58c0.22,0.18,0.6,0.44,1.01,0.79
				c-0.49-2.43-0.39-7.93-0.35-13.35c-0.22,0.49-0.48,1-0.77,1.51C147.06,241.23,145.4,242.7,143.56,243.21z"/>
			<path id="XMLID_235_" class="st41" d="M129.4,249.34c0.43-0.43,0.96-1.02,1.48-1.9c0.13-0.21,0.32-0.14,0.66,0.17
				c1.18-1.72,1.34-3.65,1.35-4.94c-0.37-0.29-0.72-0.59-1.06-0.92c-2.33-2.25-2.31-7.93-2.87-7.53c-0.44,0.29-0.82,0.19-1.14-0.14
				c-0.12-0.04-0.23-0.09-0.35-0.16c-0.02,6.2,0.24,13.48-0.29,16.56c0.31-0.24,0.58-0.43,0.75-0.57
				C128.82,249.17,129.35,249.32,129.4,249.34z"/>
			<path id="XMLID_234_" class="st42" d="M143.07,243.03c0.16-0.03,0.32-0.07,0.48-0.12c0-0.08,0-0.16,0-0.24
				C143.39,242.79,143.24,242.91,143.07,243.03z"/>
			<path id="XMLID_233_" class="st42" d="M138.14,253.57c0.04,0.03,0.05,0.07,0.07,0.11c0.01-0.04,0.03-0.08,0.07-0.11
				c4.06-3.11,5.8-5.25,6.61-5.98c-1.02-1.49-1.27-3.13-1.33-4.38c-0.34,0.09-0.68,0.15-1.03,0.18c-0.1,0.43-0.54,1.22-2.03,1.21
				c-0.31,0-0.57-0.04-0.78-0.1c-0.23,0.04-0.45,0.08-0.68,0.1c-0.69,0.07-1.4,0.05-2.09-0.06c-0.56-0.09-1.12-0.24-1.65-0.45
				c-0.6-0.23-1.16-0.54-1.69-0.89c-0.24-0.16-0.48-0.34-0.71-0.53c-0.01,1.29-0.17,3.22-1.35,4.94
				C132.37,248.35,134.11,250.48,138.14,253.57z"/>
			<path id="XMLID_232_" class="st42" d="M138.21,253.77c0,0.01,0,0.01,0,0.02h0.01C138.21,253.79,138.21,253.78,138.21,253.77z"/>
			<path id="XMLID_231_" class="st43" d="M135.3,244.09c0.53,0.21,1.08,0.36,1.65,0.45c0.69,0.11,1.4,0.13,2.09,0.06
				c0.23-0.02,0.46-0.06,0.68-0.1c-1-0.28-1.06-1.07-1.09-1.33c0.04-0.32,0.15-1.41,1.9-1.39c1.59,0.02,1.97,0.92,2.02,1.33
				c0.18-0.02,0.35-0.04,0.52-0.07c0.16-0.11,0.32-0.23,0.47-0.35c0.18-0.15,0.37-0.29,0.55-0.44c0.17-0.15,0.35-0.31,0.51-0.47
				c2.33-2.25,2.31-7.93,2.87-7.53c0.44,0.3,0.83,0.18,1.15-0.15c-0.27,0.1-0.53,0.1-0.73-0.02c-0.32-0.2,0.01-1.79,0.24-4.22
				c-0.03,0.01-0.07,0.02-0.1,0.05c-0.44,0.28-0.99-3.5-3.12-5.27c-2.13-1.77-2.3-2.96-2.3-2.96c-2.13,0.24-4.21,1.01-7.72,3.8
				c-2.78,2.21-5.25,4.41-6.37,4.71c-0.1,0.03-0.17-0.08-0.26-0.24c0.23,2.38,0.54,3.93,0.23,4.13c-0.18,0.11-0.43,0.11-0.68,0.03
				c0.32,0.32,0.7,0.43,1.14,0.14c0.56-0.4,0.54,5.28,2.87,7.53c0.34,0.32,0.69,0.63,1.06,0.92c0.23,0.18,0.46,0.36,0.71,0.53
				C134.14,243.55,134.7,243.86,135.3,244.09z"/>
			<path id="XMLID_230_" class="st41" d="M127.4,225.7c0.11-2.08,2.01-9.63,10.81-9.63c8.8,0,10.7,7.55,10.81,9.63
				c0.07,1.35-0.07,2.13,0.04,2.59c0.04-0.45,0.07-1.04,0.07-1.82c0-3.97-1.61-8.07-4.22-8.75c-1.25-0.33-1.41-1.54-4.19-2.38
				c-4.44-1.33-9.46,0.51-12.02,4.78c-1.79,2.99-1.89,7.18-1.7,8.63C127.62,228.43,127.3,227.67,127.4,225.7z"/>
			<path id="XMLID_229_" class="st41" d="M128.53,230.17c1.12-0.3,3.6-2.5,6.37-4.71c3.51-2.79,5.59-3.56,7.72-3.8
				c0,0,0.17,1.2,2.3,2.96c2.13,1.77,2.68,5.55,3.12,5.27c0.03-0.02,0.07-0.03,0.1-0.05c0.02-0.25,0.05-0.51,0.07-0.77
				c0.22-2.87,0.19-3.81-0.09-4.85c-2.17-8.01-9.91-7.44-9.91-7.44s-7.47-0.7-9.88,7.32c-0.32,1.06-0.35,2.11-0.13,4.98
				c0.02,0.3,0.05,0.59,0.07,0.86C128.36,230.08,128.43,230.19,128.53,230.17z"/>
			<path id="XMLID_228_" class="st96" d="M128.51,234.06c0.31-0.19,0-1.75-0.23-4.13c-0.03-0.28-0.05-0.56-0.07-0.86
				c-0.22-2.87-0.19-3.91,0.13-4.98c2.4-8.02,9.88-7.32,9.88-7.32s7.74-0.57,9.91,7.44c0.28,1.04,0.31,1.98,0.09,4.85
				c-0.02,0.27-0.04,0.52-0.07,0.77c-0.23,2.43-0.56,4.02-0.24,4.22c0.19,0.12,0.45,0.11,0.73,0.02c0.19-0.07,0.38-0.18,0.56-0.33
				c0.3-0.25,0.55-0.61,0.69-1.04c-0.11-0.03-0.27,0.07-0.36-0.13c-0.1-0.22-0.05-1.2,0.04-1.41c0.09-0.21,0.18-0.31,0.52-0.25
				c0.02,0,0.03,0.01,0.05,0.02c0.04-0.98-0.08-1.92-0.6-2.12c-0.28-0.11-0.4-0.27-0.46-0.53c-0.11-0.47,0.02-1.25-0.04-2.59
				c-0.11-2.08-2.01-9.63-10.81-9.63c-8.8,0-10.7,7.55-10.81,9.63c-0.1,1.97,0.23,2.73-0.4,3.06c-0.04,0.02-0.06,0.04-0.1,0.06
				c-0.79,0.3-0.66,2.34-0.44,3.6c0.12,0.7,0.56,1.24,1.03,1.52c0.12,0.07,0.23,0.12,0.35,0.16
				C128.08,234.17,128.32,234.17,128.51,234.06z"/>
			<path id="XMLID_227_" class="st97" d="M149.55,231.17c-0.09,0.21-0.14,1.19-0.04,1.41c0.09,0.19,0.25,0.09,0.36,0.13
				c0.01,0,0.03,0.01,0.04,0.02c0.11,0.09-0.13,1.31-0.05,1.43c0.02,0.03,0.06,0.06,0.11,0.07c-0.05,0.25-0.3,1.2-0.8,2.4
				c-0.27,0.65-0.61,1.38-1.03,2.11c-0.94,1.64-2.46,3.54-4.6,4.17c-0.16,0.05-0.31,0.08-0.48,0.12c-0.17,0.03-0.35,0.06-0.52,0.07
				c-0.05-0.41-0.43-1.31-2.02-1.33c-1.75-0.02-1.87,1.07-1.9,1.39c0.03,0.26,0.1,1.05,1.09,1.33c0.22,0.06,0.47,0.1,0.78,0.1
				c1.49,0.02,1.93-0.77,2.03-1.21c0.35-0.03,0.69-0.09,1.03-0.18c1.84-0.51,3.5-1.98,4.85-4.33c0.29-0.51,0.55-1.02,0.77-1.51
				c0.71-1.56,1.06-2.9,1.1-3.15c0.02-0.01,0.04-0.01,0.06-0.02c0.12-0.08,0.21-0.89,0.29-1.81c0.07-0.87-0.2-1.34-0.5-1.44
				c-0.02-0.01-0.03-0.01-0.05-0.02C149.73,230.86,149.64,230.96,149.55,231.17z"/>
			<path id="XMLID_226_" class="st44" d="M136.66,260.28c-0.64-1.43-1.35-2.24-1.41-3.42c-0.47,0.58-0.79,1.18-0.74,1.74
				c0.18,1.88-5.38-4.56-5.91-7.65c-0.1,0.59-0.1,1.83,1.61,4.26c1.16,1.64,3.88,6.33,5.86,10.54c0.39-2.54,0.71-4.49,0.84-5.22
				C136.81,260.46,136.71,260.38,136.66,260.28z"/>
			<path id="XMLID_225_" class="st44" d="M141.9,258.6c0.05-0.57-0.27-1.16-0.74-1.74c-0.07,1.19-0.78,2-1.41,3.42
				c-0.05,0.1-0.14,0.18-0.25,0.25c0.14,0.76,0.47,2.84,0.89,5.53c1.92-4.28,4.65-9.16,5.84-10.84c1.8-2.56,1.71-3.79,1.6-4.35
				C147.39,253.92,141.72,260.49,141.9,258.6z"/>
			<path id="XMLID_224_" class="st44" d="M129.5,257.03c0,0,0.01,0.01,0.01,0.01l0.02-0.01
				C129.53,257.03,129.52,257.03,129.5,257.03z"/>
			<path id="XMLID_223_" class="st98" d="M139.75,260.28c0.64-1.43,1.35-2.24,1.41-3.42c-1.04-1.29-2.82-2.49-2.95-3.06h-0.01
				c-0.13,0.57-1.91,1.77-2.95,3.06c0.07,1.19,0.78,2,1.41,3.42c0.05,0.1,0.14,0.18,0.25,0.25c-0.13,0.73-0.45,2.68-0.84,5.22
				c1.18,2.5,2.09,4.84,2.26,6.26c0.16-1.36,0.98-3.56,2.06-5.95c-0.42-2.68-0.75-4.76-0.89-5.53
				C139.6,260.46,139.7,260.38,139.75,260.28z"/>
			<path id="XMLID_222_" class="st57" d="M145.53,247.44c-0.12-0.21-0.31-0.14-0.65,0.16c-0.82,0.73-2.55,2.87-6.61,5.98
				c-0.04,0.03-0.05,0.07-0.07,0.11c-0.01-0.04-0.03-0.08-0.07-0.11c-4.03-3.09-5.77-5.22-6.6-5.96c-0.35-0.31-0.54-0.39-0.66-0.17
				c-0.52,0.88-1.06,1.47-1.48,1.9c0,0,0.01,0,0.01,0s-0.01,0-0.02,0.01c-0.16,0.16-0.29,0.29-0.41,0.4
				c-0.12,0.19-0.24,0.47-0.31,0.86c-0.01,0.07-0.04,0.18-0.07,0.32c0.53,3.09,6.09,9.53,5.91,7.65c-0.05-0.57,0.27-1.16,0.74-1.74
				c1.04-1.29,2.82-2.49,2.95-3.06c0-0.01,0-0.02,0-0.02c0,0.01,0,0.01,0,0.02c0.13,0.57,1.91,1.77,2.95,3.06
				c0.47,0.58,0.79,1.18,0.74,1.74c-0.18,1.9,5.48-4.68,5.93-7.74c-0.02-0.1-0.04-0.18-0.05-0.24c-0.06-0.35-0.16-0.61-0.27-0.79
				C147.07,249.39,146.29,248.71,145.53,247.44z"/>
			<path id="XMLID_221_" class="st97" d="M160.55,255.37c-0.34-0.47-7.85-3.06-10.29-3.95c0.25,0.27,0.48,0.58,0.68,0.93
				c1.08,1.92,1.13,3.1,1.89,3.67c0.76,0.57-5.93,1.01-5.93,1.01l4.21,3.18c0,0-4.72,5.4-7.91,7.72c-0.99,0.72-4.11,3.61-4.87,4.85
				c0.18,0.84,0.48,2.09,0.55,2.59c0.03,0.22,0.06,0.43,0.08,0.64c5.81-0.07,11.31-1.44,16.21-3.85c0.15-2.91-0.35-14.35,5.15-16.78
				c0.12-0.05,0.25,0.07,0.39,0.32c0,0,0-0.01,0-0.01C160.67,255.58,160.62,255.46,160.55,255.37z"/>
			<path id="XMLID_220_" class="st99" d="M138.35,272.78L138.35,272.78c-0.89-0.77-4.13-4.13-5.12-4.85
				c-3.19-2.33-7.91-7.72-7.91-7.72l4.2-3.17c0,0-0.01-0.01-0.01-0.01c-0.43-0.03-6.63-0.46-5.9-1c0.76-0.57,0.82-1.75,1.89-3.67
				c0.21-0.38,0.47-0.71,0.74-1c-2.55,0.93-9.84,3.45-10.17,3.91c5.88,0.3,5.3,13.39,5.4,16.71c5.13,2.59,10.91,4.05,17.05,4.05
				c0.15,0,0.31-0.01,0.46-0.01c-0.03-0.21-0.05-0.42-0.08-0.64C138.83,274.87,138.52,273.62,138.35,272.78z"/>
			<path id="XMLID_219_" class="st100" d="M125.49,252.35c-1.08,1.92-1.13,3.1-1.89,3.67c-0.73,0.55,5.47,0.98,5.9,1
				c0.02,0,0.03,0,0.03,0l-0.02,0.01l-4.2,3.17c0,0,4.72,5.4,7.91,7.72c0.99,0.72,4.23,4.08,5.12,4.85l0,0
				c0.76-1.25,3.88-4.13,4.87-4.85c3.19-2.33,7.91-7.72,7.91-7.72l-4.21-3.18c0,0,6.69-0.44,5.93-1.01
				c-0.76-0.57-0.82-1.75-1.89-3.67c-0.2-0.35-0.43-0.66-0.68-0.93c-0.24-0.27-0.5-0.5-0.74-0.71c-0.42-0.35-0.8-0.6-1.01-0.79
				c-0.93-0.79-1.47-0.58-1.47-0.58s0.25,0.1,0.47,0.48c0.11,0.19,0.21,0.44,0.27,0.79c0.01,0.06,0.03,0.14,0.05,0.24
				c0.11,0.55,0.2,1.79-1.6,4.35c-1.19,1.68-3.92,6.56-5.84,10.84c-1.07,2.38-1.89,4.59-2.06,5.95c-0.17-1.42-1.09-3.76-2.26-6.26
				c-1.98-4.21-4.7-8.89-5.86-10.54c-1.71-2.43-1.71-3.67-1.61-4.26c0.02-0.14,0.05-0.25,0.07-0.32c0.07-0.39,0.19-0.67,0.31-0.86
				c0.17-0.27,0.35-0.37,0.41-0.4c0.01-0.01,0.02-0.01,0.02-0.01s-0.01,0-0.01,0c-0.05-0.02-0.57-0.17-1.46,0.59
				c-0.17,0.14-0.44,0.33-0.75,0.57c-0.3,0.23-0.63,0.52-0.95,0.86C125.97,251.64,125.71,251.97,125.49,252.35z"/>
			<path id="XMLID_218_" class="st100" d="M116.07,255.26c-0.34-0.02-1.45,5.12-2.57,11.31c2.41,2.12,5.08,3.93,7.98,5.39
				C121.36,268.66,121.95,255.57,116.07,255.26z"/>
			<path id="XMLID_217_" class="st100" d="M160.33,255.39c-5.5,2.43-5,13.87-5.15,16.78c2.97-1.45,5.71-3.29,8.18-5.44
				c-0.94-5.28-1.94-9.8-2.64-11.02C160.58,255.46,160.45,255.34,160.33,255.39z"/>
		</g>
	</g>
</g>
</svg>
