<?xml version="1.0" encoding="utf-8"?>
<!-- Generator: Adobe Illustrator 23.0.0, SVG Export Plug-In . SVG Version: 6.00 Build 0)  -->
<svg version="1.1" id="Capa_1" xmlns="http://www.w3.org/2000/svg" xmlns:xlink="http://www.w3.org/1999/xlink" x="0px" y="0px"
	 viewBox="0 0 400 702" style="enable-background:new 0 0 400 702;" xml:space="preserve">
<style type="text/css">
	.st0{fill:#0085B0;}
	.st1{fill:#E0EF18;}
	.st2{fill:#CECECE;}
	.st3{fill:#FFFFFF;}
	.st4{fill:#F2F2F2;}
	.st5{fill:#EACCB0;}
	.st6{fill:#9B9B9B;}
	.st7{fill:#939393;}
	.st8{fill:#EFEFEF;}
	.st9{fill:#828282;}
	.st10{fill:#2C2A2D;}
	.st11{fill:#202021;}
	.st12{fill:#F2D4B6;}
	.st13{fill:#534D46;}
	.st14{fill:#E8D313;}
	.st15{fill:#2ACCFF;}
	.st16{fill:#4E4F4F;}
	.st17{fill:#003A94;}
	.st18{fill:#00D13C;}
	.st19{fill:#15682A;}
	.st20{fill:#D40000;}
	.st21{fill:#505050;}
	.st22{fill:#DFDFDF;}
	.st23{fill:none;}
	.st24{fill:#636363;}
	.st25{fill:#6C92D5;}
	.st26{fill:#22272F;}
	.st27{fill:#1B2538;}
	.st28{fill:#253452;}
	.st29{fill:#F9F9F9;}
	.st30{fill:#2D3543;}
	.st31{fill:#2A3D60;}
	.st32{fill:#587955;}
	.st33{fill:#CD7054;}
	.st34{fill:#F1CC4B;}
	.st35{fill:#ACACAC;}
	.st36{fill:#AAE528;}
	.st37{fill:#28CEBA;}
	.st38{fill:#DB143F;}
	.st39{fill:#53C2C9;}
	.st40{fill:#FFB412;}
	.st41{fill:#866A5E;}
	.st42{fill:#F7DDCB;}
	.st43{fill:#FFE6D4;}
	.st44{fill:#F5F5F5;}
	.st45{fill:#1A2830;}
	.st46{fill:#24353F;}
	.st47{fill:#132026;}
	.st48{fill:#F9FF03;}
	.st49{fill:#272728;}
	.st50{fill:#1E1D1E;}
	.st51{fill:#160423;}
	.st52{fill-rule:evenodd;clip-rule:evenodd;fill:#FFFFFF;}
	.st53{fill-rule:evenodd;clip-rule:evenodd;fill:#1996B8;}
	.st54{fill:#0C387D;}
	.st55{fill:#C69A81;}
	.st56{fill:#D1A385;}
	.st57{fill:#EAEAEA;}
	.st58{fill:#093E8C;}
	.st59{fill:#0B2A62;}
	.st60{fill:#D32A3B;}
	.st61{fill:#827C7D;}
	.st62{opacity:0.7;fill:#7F7F7F;}
	.st63{fill:#FDFDFD;}
	.st64{fill:#DAA449;}
	.st65{fill:#DD9225;}
	.st66{opacity:0.3;}
	.st67{fill:#425793;}
	.st68{opacity:0.8;}
	.st69{filter:url(#Adobe_OpacityMaskFilter);}
	.st70{opacity:0.15;mask:url(#SVGID_1_);}
	.st71{fill:#090B00;}
	.st72{opacity:0.1;}
	.st73{fill:#211915;}
	.st74{filter:url(#Adobe_OpacityMaskFilter_1_);}
	.st75{opacity:0.15;mask:url(#SVGID_2_);}
	.st76{fill:#AF3623;}
	.st77{filter:url(#Adobe_OpacityMaskFilter_2_);}
	.st78{opacity:0.15;mask:url(#SVGID_3_);}
	.st79{filter:url(#Adobe_OpacityMaskFilter_3_);}
	.st80{opacity:0.15;mask:url(#SVGID_4_);}
	.st81{fill:#456495;}
	.st82{filter:url(#Adobe_OpacityMaskFilter_4_);}
	.st83{opacity:0.15;mask:url(#SVGID_5_);}
	.st84{filter:url(#Adobe_OpacityMaskFilter_5_);}
	.st85{opacity:0.15;mask:url(#SVGID_6_);}
	.st86{fill:#76A9DA;}
	.st87{filter:url(#Adobe_OpacityMaskFilter_6_);}
	.st88{opacity:0.15;mask:url(#SVGID_7_);}
	.st89{filter:url(#Adobe_OpacityMaskFilter_7_);}
	.st90{opacity:0.15;mask:url(#SVGID_8_);}
	.st91{fill:#1F3642;}
	.st92{fill:#A9BDDA;}
	.st93{opacity:0.46;fill:#A6B4BC;}
	.st94{fill:#74C475;}
	.st95{fill:#221F21;}
	.st96{fill:#2D2D2D;}
	.st97{fill:#1C1B1A;}
	.st98{fill:#77181C;}
	.st99{fill:#262525;}
	.st100{fill:#11100F;}
	.st101{opacity:0.18;}
	.st102{opacity:0.38;}
	.st103{fill:#0A5B1F;}
	.st104{opacity:0.27;}
	.st105{opacity:0.48;}
	.st106{fill:#0A4654;}
	.st107{fill:#C2C6C6;}
	.st108{fill:#E5E5E5;stroke:#FFFFFF;stroke-miterlimit:10;}
	.st109{fill:#ACB4B5;}
	.st110{fill:#7F8384;}
	.st111{fill:#15772F;}
	.st112{fill:#F4F4F4;}
	.st113{fill:#53B8DB;}
	.st114{fill:#06EF42;}
	.st115{fill:#E7ED07;}
	.st116{fill:#CCCCCA;}
	.st117{fill:#EADF13;}
	.st118{fill:#C2C2C2;}
	.st119{fill:#85B681;}
	.st120{fill:#A1DC9B;}
	.st121{fill:#90C58B;}
	.st122{fill:#22241F;}
	.st123{opacity:0.5;}
	.st124{fill:#A2CADE;}
	.st125{fill:#E9E9E9;}
	.st126{fill:#D9D9D9;}
	.st127{fill:#CDCDCD;}
	.st128{opacity:0.34;fill:#F0F0F0;}
	.st129{fill:#5A5B5A;}
	.st130{fill:#FFE600;}
	.st131{fill:#DB1F59;}
	.st132{fill:#727272;}
	.st133{fill:#207235;}
	.st134{fill:#A3A3A3;}
	.st135{fill:#BCBCBC;}
	.st136{fill:#0A511C;}
	.st137{fill:#F9FF00;}
	.st138{fill:#D59F6D;}
	.st139{fill:#C0804A;}
	.st140{fill:#E6BA8A;}
	.st141{fill:#BE3ACC;}
	.st142{fill:#FFFFFF;stroke:#443F0C;stroke-width:9;stroke-miterlimit:10;}
	.st143{fill:none;stroke:#443F0C;stroke-width:9;stroke-miterlimit:10;}
	.st144{fill:#170623;}
	.st145{fill:#158231;}
	.st146{fill:#C89D76;}
	.st147{opacity:0.4;}
	.st148{fill:#ADADAD;}
	.st149{fill:#EDC3A6;}
	.st150{opacity:0.69;}
	.st151{fill:#E5D3D6;}
	.st152{opacity:0.44;}
	.st153{fill:#A5A5A5;}
	.st154{fill:#DDE5E4;}
	.st155{fill:#5C9169;}
	.st156{fill:#934215;}
	.st157{fill:#47413B;}
	.st158{fill:#601A1F;}
	.st159{fill:#044554;}
	.st160{opacity:0.7;}
	.st161{fill:#7F7F7F;}
	.st162{fill:#6B8A69;}
	.st163{opacity:0.24;fill:#848D90;}
	.st164{opacity:0.4;fill:#848D90;}
	.st165{fill:#F2D5D5;}
	.st166{fill:#485CC1;}
	.st167{fill:#C6CBE0;}
	.st168{fill:#8B909E;}
	.st169{fill:#53BC1B;}
	.st170{fill:#11565B;}
	.st171{fill:#67A06D;}
	.st172{fill:#FFEC00;}
	.st173{fill:#77A007;}
	.st174{fill:#E50731;}
	.st175{fill:#266472;}
	.st176{fill:#D4D4D4;}
	.st177{fill:#0E9932;}
	.st178{fill:#87DD24;}
	.st179{fill:#76A172;}
	.st180{fill:#62835F;}
	.st181{fill:#96D090;}
	.st182{fill:#D6D6D6;}
	.st183{fill:#606060;}
	.st184{fill:#494949;}
	.st185{fill:#29E55A;}
	.st186{fill:#2C703D;}
	.st187{fill:#DD0744;}
	.st188{fill:#EDEDED;}
	.st189{fill:#2A5936;}
	.st190{fill:#B9BBC1;}
	.st191{fill:#FFD79E;}
	.st192{fill:#FFE6C2;}
	.st193{fill:#2CBB55;}
	.st194{fill:#5C412D;}
	.st195{fill:#EC0000;}
	.st196{fill:#DD2626;}
	.st197{fill:#EA9334;}
	.st198{fill:#FCC232;}
	.st199{fill:#F9B234;}
	.st200{fill:#F7A037;}
	.st201{fill:#E0E0E0;}
</style>
<g>
	<g>
		<path class="st18" d="M9.5,209.36c0,22,13.29,27.86,29.54,13.03c0,0,156.99-143.3,353.09,26.97V55c0-22-18-40-40-40H49.5
			c-22,0-40,18-40,40V209.36z"/>
	</g>
	<g>
		<path class="st18" d="M391.66,647c0,22-18,40-40,40H49.98c-22,0-40-18-40-40v-46.27c0-22,18-40,40-40h301.68c22,0,40,18,40,40V647
			z"/>
	</g>
	<g>
		<path d="M123.97,378.79c-2.08-0.51-3.76-1.21-5.04-2.12c-0.53-0.37-0.8-0.73-0.8-1.08c0-0.24,0.09-0.49,0.28-0.76l2.32-3.64
			c0.24-0.35,0.48-0.52,0.72-0.52c0.21,0,0.47,0.09,0.76,0.28c0.96,0.59,2.06,1.05,3.3,1.38c1.24,0.33,2.45,0.5,3.62,0.5
			c0.99,0,1.7-0.13,2.14-0.4c0.44-0.27,0.66-0.68,0.66-1.24c0-0.61-0.29-1.11-0.88-1.48c-0.59-0.37-1.6-0.84-3.04-1.4
			c-2.69-1.04-4.81-2.22-6.36-3.54c-1.55-1.32-2.32-3.07-2.32-5.26c0-2.77,0.97-4.86,2.9-6.26c1.93-1.4,4.54-2.1,7.82-2.1
			c2.29,0,4.25,0.2,5.86,0.6c1.61,0.4,3.02,1.03,4.22,1.88c0.53,0.37,0.8,0.73,0.8,1.08c0,0.24-0.09,0.49-0.28,0.76l-2.32,3.64
			c-0.24,0.37-0.48,0.56-0.72,0.56c-0.16,0-0.41-0.11-0.76-0.32c-0.64-0.43-1.4-0.78-2.28-1.06c-0.88-0.28-1.83-0.42-2.84-0.42
			c-0.93,0-1.64,0.13-2.12,0.4c-0.48,0.27-0.72,0.69-0.72,1.28c0,0.48,0.17,0.88,0.5,1.2c0.33,0.32,0.75,0.59,1.26,0.82
			c0.51,0.23,1.39,0.59,2.64,1.1c2,0.8,3.57,1.57,4.72,2.3c1.15,0.73,2.01,1.61,2.6,2.64s0.88,2.33,0.88,3.9
			c0,2.4-0.9,4.34-2.7,5.82c-1.8,1.48-4.49,2.22-8.06,2.22C128.31,379.55,126.05,379.3,123.97,378.79z"/>
		<path d="M146.37,375.85c-2.45-2.47-3.68-5.97-3.68-10.5s1.23-8.03,3.68-10.5c2.45-2.47,6.05-3.7,10.8-3.7
			c4.75,0,8.35,1.23,10.8,3.7c2.45,2.47,3.68,5.97,3.68,10.5s-1.23,8.03-3.68,10.5s-6.05,3.7-10.8,3.7
			C152.43,379.55,148.83,378.32,146.37,375.85z M160.93,370.97c0.77-1.24,1.16-3.11,1.16-5.62c0-2.53-0.39-4.41-1.16-5.64
			c-0.77-1.23-2.03-1.84-3.76-1.84c-1.73,0-2.99,0.61-3.76,1.84c-0.77,1.23-1.16,3.11-1.16,5.64c0,2.51,0.39,4.38,1.16,5.62
			c0.77,1.24,2.03,1.86,3.76,1.86C158.91,372.83,160.16,372.21,160.93,370.97z"/>
		<path d="M174.19,378.39c-0.36-0.37-0.54-0.95-0.54-1.72v-22.64c0-0.77,0.18-1.35,0.54-1.72c0.36-0.37,0.98-0.56,1.86-0.56h9.56
			c4,0,6.91,0.79,8.74,2.38c1.83,1.59,2.74,3.98,2.74,7.18c0,3.2-0.91,5.59-2.74,7.16c-1.83,1.57-4.73,2.36-8.7,2.36h-2.4v5.84
			c0,0.77-0.18,1.35-0.54,1.72c-0.36,0.37-0.99,0.56-1.9,0.56h-4.76C175.17,378.95,174.55,378.77,174.19,378.39z M184.77,364.03
			c0.85,0,1.53-0.23,2.02-0.68c0.49-0.45,0.74-1.13,0.74-2.04c0-0.93-0.25-1.63-0.74-2.08c-0.49-0.45-1.17-0.68-2.02-0.68h-2.72
			v5.48H184.77z"/>
		<path d="M200.17,375.85c-2.45-2.47-3.68-5.97-3.68-10.5s1.23-8.03,3.68-10.5c2.45-2.47,6.05-3.7,10.8-3.7
			c4.75,0,8.35,1.23,10.8,3.7c2.45,2.47,3.68,5.97,3.68,10.5s-1.23,8.03-3.68,10.5s-6.05,3.7-10.8,3.7
			C206.23,379.55,202.63,378.32,200.17,375.85z M214.73,370.97c0.77-1.24,1.16-3.11,1.16-5.62c0-2.53-0.39-4.41-1.16-5.64
			c-0.77-1.23-2.03-1.84-3.76-1.84s-2.99,0.61-3.76,1.84c-0.77,1.23-1.16,3.11-1.16,5.64c0,2.51,0.39,4.38,1.16,5.62
			c0.77,1.24,2.03,1.86,3.76,1.86S213.96,372.21,214.73,370.97z"/>
		<path d="M227.99,378.39c-0.36-0.37-0.54-0.95-0.54-1.72v-22.64c0-0.77,0.18-1.35,0.54-1.72s0.98-0.56,1.86-0.56h9.56
			c4,0,6.91,0.79,8.74,2.38c1.83,1.59,2.74,3.98,2.74,7.18c0,1.92-0.33,3.54-0.98,4.86c-0.65,1.32-1.66,2.35-3.02,3.1l3.72,7.96
			c0.11,0.21,0.16,0.45,0.16,0.72c0,0.29-0.1,0.53-0.3,0.72c-0.2,0.19-0.46,0.28-0.78,0.28h-6.76c-0.43,0-0.77-0.06-1.02-0.18
			s-0.43-0.33-0.54-0.62l-2.96-7.44h-1.36v5.96c0,0.77-0.18,1.35-0.54,1.72c-0.36,0.37-0.99,0.56-1.9,0.56h-4.76
			C228.97,378.95,228.35,378.77,227.99,378.39z M238.57,364.03c0.85,0,1.53-0.23,2.02-0.68c0.49-0.45,0.74-1.13,0.74-2.04
			c0-0.93-0.25-1.63-0.74-2.08c-0.49-0.45-1.17-0.68-2.02-0.68h-2.72v5.48H238.57z"/>
		<path d="M258.39,378.39c-0.36-0.37-0.54-0.95-0.54-1.72v-18.12h-5.76c-0.85,0-1.43-0.18-1.74-0.54c-0.31-0.36-0.46-0.94-0.46-1.74
			v-2.24c0-0.8,0.15-1.38,0.46-1.74s0.89-0.54,1.74-0.54h21.12c0.85,0,1.43,0.18,1.74,0.54s0.46,0.94,0.46,1.74v2.24
			c0,0.8-0.15,1.38-0.46,1.74c-0.31,0.36-0.89,0.54-1.74,0.54h-5.76v18.12c0,0.77-0.18,1.35-0.54,1.72
			c-0.36,0.37-0.99,0.56-1.9,0.56h-4.76C259.37,378.95,258.75,378.77,258.39,378.39z"/>
		<path d="M277.15,378.39c-0.36-0.37-0.54-0.95-0.54-1.72v-22.64c0-0.77,0.18-1.35,0.54-1.72c0.36-0.37,0.98-0.56,1.86-0.56h16.56
			c0.85,0,1.43,0.18,1.74,0.54s0.46,0.94,0.46,1.74v2.24c0,0.8-0.15,1.38-0.46,1.74c-0.31,0.36-0.89,0.54-1.74,0.54h-9.36v3.44h5.76
			c0.85,0,1.43,0.18,1.74,0.54s0.46,0.94,0.46,1.74v2.16c0,0.8-0.15,1.38-0.46,1.74c-0.31,0.36-0.89,0.54-1.74,0.54h-5.76v3.44h9.32
			c0.85,0,1.43,0.18,1.74,0.54c0.31,0.36,0.46,0.94,0.46,1.74v2.24c0,0.8-0.15,1.38-0.46,1.74c-0.31,0.36-0.89,0.54-1.74,0.54
			h-16.52C278.13,378.95,277.51,378.77,277.15,378.39z"/>
		<path d="M82.59,426.39c-0.36-0.37-0.54-0.95-0.54-1.72v-18.12h-5.76c-0.85,0-1.43-0.18-1.74-0.54c-0.31-0.36-0.46-0.94-0.46-1.74
			v-2.24c0-0.8,0.15-1.38,0.46-1.74c0.31-0.36,0.89-0.54,1.74-0.54h21.12c0.85,0,1.43,0.18,1.74,0.54c0.31,0.36,0.46,0.94,0.46,1.74
			v2.24c0,0.8-0.15,1.38-0.46,1.74c-0.31,0.36-0.89,0.54-1.74,0.54h-5.76v18.12c0,0.77-0.18,1.35-0.54,1.72
			c-0.36,0.37-0.99,0.56-1.9,0.56h-4.76C83.57,426.95,82.95,426.77,82.59,426.39z"/>
		<path d="M101.35,426.39c-0.36-0.37-0.54-0.95-0.54-1.72v-22.64c0-0.77,0.18-1.35,0.54-1.72s0.98-0.56,1.86-0.56h16.56
			c0.85,0,1.43,0.18,1.74,0.54c0.31,0.36,0.46,0.94,0.46,1.74v2.24c0,0.8-0.15,1.38-0.46,1.74c-0.31,0.36-0.89,0.54-1.74,0.54h-9.36
			v3.44h5.76c0.85,0,1.43,0.18,1.74,0.54c0.31,0.36,0.46,0.94,0.46,1.74v2.16c0,0.8-0.15,1.38-0.46,1.74
			c-0.31,0.36-0.89,0.54-1.74,0.54h-5.76v3.44h9.32c0.85,0,1.43,0.18,1.74,0.54c0.31,0.36,0.46,0.94,0.46,1.74v2.24
			c0,0.8-0.15,1.38-0.46,1.74c-0.31,0.36-0.89,0.54-1.74,0.54h-16.52C102.33,426.95,101.71,426.77,101.35,426.39z M106.25,396.39
			c0-0.21,0.04-0.44,0.12-0.68l1.68-4.64c0.21-0.61,0.47-1.03,0.76-1.24c0.29-0.21,0.84-0.32,1.64-0.32h5.72c0.56,0,1,0.1,1.32,0.3
			c0.32,0.2,0.48,0.49,0.48,0.86c0,0.32-0.11,0.65-0.32,1l-2.56,4.32c-0.37,0.64-0.73,1.05-1.08,1.24
			c-0.35,0.19-0.97,0.28-1.88,0.28h-4.28C106.79,397.51,106.25,397.14,106.25,396.39z"/>
		<path d="M127.01,423.97c-2.69-2.39-4.04-5.93-4.04-10.62c0-4.72,1.3-8.27,3.9-10.64c2.6-2.37,6.31-3.56,11.14-3.56
			c2.19,0,4.13,0.21,5.84,0.64c1.71,0.43,3.13,1.03,4.28,1.8c0.32,0.24,0.48,0.51,0.48,0.8c0,0.24-0.12,0.57-0.36,1l-2,3.44
			c-0.21,0.37-0.47,0.56-0.76,0.56c-0.19,0-0.49-0.11-0.92-0.32c-0.75-0.37-1.53-0.67-2.34-0.88c-0.81-0.21-1.77-0.32-2.86-0.32
			c-2.21,0-3.91,0.64-5.08,1.92s-1.76,3.13-1.76,5.56c0,2.4,0.64,4.25,1.92,5.54c1.28,1.29,3.03,1.94,5.24,1.94
			c1.92,0,3.68-0.4,5.28-1.2c0.43-0.21,0.73-0.32,0.92-0.32c0.29,0,0.55,0.19,0.76,0.56l2,3.44c0.24,0.43,0.36,0.76,0.36,1
			c0,0.29-0.16,0.56-0.48,0.8c-1.15,0.77-2.59,1.37-4.32,1.8c-1.73,0.43-3.69,0.64-5.88,0.64
			C133.48,427.55,129.71,426.36,127.01,423.97z"/>
		<path d="M151.55,426.39c-0.36-0.37-0.54-0.95-0.54-1.72v-22.68c0-0.77,0.18-1.34,0.54-1.7c0.36-0.36,0.99-0.54,1.9-0.54h3.8
			c0.56,0,0.99,0.07,1.3,0.22c0.31,0.15,0.61,0.43,0.9,0.86l7.24,10.76v-9.56c0-0.77,0.18-1.35,0.54-1.72s0.98-0.56,1.86-0.56h4.76
			c0.91,0,1.54,0.18,1.9,0.54c0.36,0.36,0.54,0.94,0.54,1.74v22.68c0,0.77-0.18,1.34-0.54,1.7c-0.36,0.36-0.99,0.54-1.9,0.54h-3.8
			c-0.56,0-0.99-0.07-1.3-0.22c-0.31-0.15-0.61-0.43-0.9-0.86l-7.24-10.76v9.6c0,0.77-0.18,1.34-0.54,1.7s-0.99,0.54-1.9,0.54h-4.76
			C152.53,426.95,151.91,426.77,151.55,426.39z"/>
		<path d="M179.63,426.39c-0.36-0.37-0.54-0.95-0.54-1.72v-22.64c0-0.77,0.18-1.35,0.54-1.72s0.98-0.56,1.86-0.56h4.76
			c0.91,0,1.54,0.18,1.9,0.54c0.36,0.36,0.54,0.94,0.54,1.74v22.64c0,0.77-0.18,1.35-0.54,1.72c-0.36,0.37-0.99,0.56-1.9,0.56h-4.76
			C180.61,426.95,179.99,426.77,179.63,426.39z"/>
		<path d="M194.73,423.97c-2.69-2.39-4.04-5.93-4.04-10.62c0-4.72,1.3-8.27,3.9-10.64c2.6-2.37,6.31-3.56,11.14-3.56
			c2.19,0,4.13,0.21,5.84,0.64c1.71,0.43,3.13,1.03,4.28,1.8c0.32,0.24,0.48,0.51,0.48,0.8c0,0.24-0.12,0.57-0.36,1l-2,3.44
			c-0.21,0.37-0.47,0.56-0.76,0.56c-0.19,0-0.49-0.11-0.92-0.32c-0.75-0.37-1.53-0.67-2.34-0.88c-0.81-0.21-1.77-0.32-2.86-0.32
			c-2.21,0-3.91,0.64-5.08,1.92c-1.17,1.28-1.76,3.13-1.76,5.56c0,2.4,0.64,4.25,1.92,5.54c1.28,1.29,3.03,1.94,5.24,1.94
			c1.92,0,3.68-0.4,5.28-1.2c0.43-0.21,0.73-0.32,0.92-0.32c0.29,0,0.55,0.19,0.76,0.56l2,3.44c0.24,0.43,0.36,0.76,0.36,1
			c0,0.29-0.16,0.56-0.48,0.8c-1.15,0.77-2.59,1.37-4.32,1.8c-1.73,0.43-3.69,0.64-5.88,0.64
			C201.2,427.55,197.43,426.36,194.73,423.97z"/>
		<path d="M219.81,423.85c-2.45-2.47-3.68-5.97-3.68-10.5s1.23-8.03,3.68-10.5s6.05-3.7,10.8-3.7c4.75,0,8.35,1.23,10.8,3.7
			c2.45,2.47,3.68,5.97,3.68,10.5s-1.23,8.03-3.68,10.5c-2.45,2.47-6.05,3.7-10.8,3.7C225.87,427.55,222.27,426.32,219.81,423.85z
			 M234.37,418.97c0.77-1.24,1.16-3.11,1.16-5.62c0-2.53-0.39-4.41-1.16-5.64c-0.77-1.23-2.03-1.84-3.76-1.84
			c-1.73,0-2.99,0.61-3.76,1.84c-0.77,1.23-1.16,3.11-1.16,5.64c0,2.51,0.39,4.38,1.16,5.62c0.77,1.24,2.03,1.86,3.76,1.86
			C232.35,420.83,233.6,420.21,234.37,418.97z"/>
		<path d="M262.33,423.97c-2.69-2.39-4.04-5.93-4.04-10.62c0-4.72,1.3-8.27,3.9-10.64c2.6-2.37,6.31-3.56,11.14-3.56
			c2.19,0,4.13,0.21,5.84,0.64c1.71,0.43,3.13,1.03,4.28,1.8c0.32,0.24,0.48,0.51,0.48,0.8c0,0.24-0.12,0.57-0.36,1l-2,3.44
			c-0.21,0.37-0.47,0.56-0.76,0.56c-0.19,0-0.49-0.11-0.92-0.32c-0.75-0.37-1.53-0.67-2.34-0.88c-0.81-0.21-1.77-0.32-2.86-0.32
			c-2.21,0-3.91,0.64-5.08,1.92c-1.17,1.28-1.76,3.13-1.76,5.56c0,2.4,0.64,4.25,1.92,5.54c1.28,1.29,3.03,1.94,5.24,1.94
			c1.92,0,3.68-0.4,5.28-1.2c0.43-0.21,0.73-0.32,0.92-0.32c0.29,0,0.55,0.19,0.76,0.56l2,3.44c0.24,0.43,0.36,0.76,0.36,1
			c0,0.29-0.16,0.56-0.48,0.8c-1.15,0.77-2.59,1.37-4.32,1.8c-1.73,0.43-3.69,0.64-5.88,0.64
			C268.8,427.55,265.03,426.36,262.33,423.97z"/>
		<path d="M287.41,423.85c-2.45-2.47-3.68-5.97-3.68-10.5s1.23-8.03,3.68-10.5s6.05-3.7,10.8-3.7c4.75,0,8.35,1.23,10.8,3.7
			s3.68,5.97,3.68,10.5s-1.23,8.03-3.68,10.5s-6.05,3.7-10.8,3.7C293.46,427.55,289.87,426.32,287.41,423.85z M301.97,418.97
			c0.77-1.24,1.16-3.11,1.16-5.62c0-2.53-0.39-4.41-1.16-5.64c-0.77-1.23-2.03-1.84-3.76-1.84c-1.73,0-2.99,0.61-3.76,1.84
			c-0.77,1.23-1.16,3.11-1.16,5.64c0,2.51,0.39,4.38,1.16,5.62c0.77,1.24,2.03,1.86,3.76,1.86
			C299.95,420.83,301.2,420.21,301.97,418.97z"/>
		<path d="M315.23,426.39c-0.36-0.37-0.54-0.95-0.54-1.72v-22.68c0-0.77,0.18-1.34,0.54-1.7c0.36-0.36,0.99-0.54,1.9-0.54h3.8
			c0.56,0,0.99,0.07,1.3,0.22c0.31,0.15,0.61,0.43,0.9,0.86l7.24,10.76v-9.56c0-0.77,0.18-1.35,0.54-1.72
			c0.36-0.37,0.98-0.56,1.86-0.56h4.76c0.91,0,1.54,0.18,1.9,0.54c0.36,0.36,0.54,0.94,0.54,1.74v22.68c0,0.77-0.18,1.34-0.54,1.7
			s-0.99,0.54-1.9,0.54h-3.8c-0.56,0-0.99-0.07-1.3-0.22c-0.31-0.15-0.61-0.43-0.9-0.86l-7.24-10.76v9.6c0,0.77-0.18,1.34-0.54,1.7
			c-0.36,0.36-0.99,0.54-1.9,0.54h-4.76C316.21,426.95,315.59,426.77,315.23,426.39z"/>
		<path d="M121.77,474.11c0-0.24,0.07-0.53,0.2-0.88l9.96-23.96c0.24-0.56,0.51-0.95,0.82-1.18c0.31-0.23,0.74-0.34,1.3-0.34h4.36
			c0.56,0,0.99,0.11,1.3,0.34c0.31,0.23,0.58,0.62,0.82,1.18l9.92,23.96c0.13,0.35,0.2,0.64,0.2,0.88c0,0.56-0.29,0.84-0.88,0.84
			h-7.52c-0.83,0-1.35-0.36-1.56-1.08l-0.96-2.96h-7.08l-0.92,2.96c-0.21,0.72-0.73,1.08-1.56,1.08h-7.52
			C122.07,474.95,121.77,474.67,121.77,474.11z M137.77,464.59l-1.56-4.96l-1.56,4.96H137.77z"/>
		<path d="M155.79,474.39c-0.36-0.37-0.54-0.95-0.54-1.72v-7.24l-9.32-15.96c-0.16-0.29-0.24-0.57-0.24-0.84
			c0-0.59,0.31-0.88,0.92-0.88h7.52c0.4,0,0.71,0.09,0.92,0.26c0.21,0.17,0.43,0.45,0.64,0.82l4.36,7.84l4.36-7.84
			c0.21-0.37,0.43-0.65,0.64-0.82c0.21-0.17,0.52-0.26,0.92-0.26h7.52c0.61,0,0.92,0.29,0.92,0.88c0,0.27-0.08,0.55-0.24,0.84
			l-9.32,15.96v7.24c0,0.77-0.18,1.35-0.54,1.72c-0.36,0.37-0.99,0.56-1.9,0.56h-4.76C156.77,474.95,156.15,474.77,155.79,474.39z"
			/>
		<path d="M182.49,474.29c-1.97-0.84-3.51-2.05-4.6-3.64c-1.09-1.59-1.64-3.47-1.64-5.66v-14.96c0-0.77,0.18-1.35,0.54-1.72
			s0.98-0.56,1.86-0.56h4.76c0.91,0,1.54,0.18,1.9,0.54c0.36,0.36,0.54,0.94,0.54,1.74v15.08c0,1.25,0.31,2.19,0.94,2.8
			c0.63,0.61,1.49,0.92,2.58,0.92s1.95-0.31,2.58-0.92c0.63-0.61,0.94-1.55,0.94-2.8v-15.08c0-0.77,0.18-1.35,0.54-1.72
			c0.36-0.37,0.98-0.56,1.86-0.56h4.76c0.91,0,1.54,0.18,1.9,0.54c0.36,0.36,0.54,0.94,0.54,1.74v14.96c0,2.19-0.55,4.07-1.64,5.66
			s-2.63,2.8-4.6,3.64c-1.97,0.84-4.27,1.26-6.88,1.26S184.47,475.13,182.49,474.29z"/>
		<path d="M205.63,474.39c-0.36-0.37-0.54-0.95-0.54-1.72v-22.64c0-0.77,0.18-1.35,0.54-1.72c0.36-0.37,0.98-0.56,1.86-0.56h9.2
			c9.41,0,14.12,4.53,14.12,13.6c0,4.48-1.21,7.87-3.62,10.16c-2.41,2.29-5.91,3.44-10.5,3.44h-9.2
			C206.61,474.95,205.99,474.77,205.63,474.39z M217.05,468.15c1.49,0,2.57-0.49,3.22-1.48c0.65-0.99,0.98-2.76,0.98-5.32
			c0-2.56-0.33-4.33-0.98-5.32c-0.65-0.99-1.73-1.48-3.22-1.48h-2.36v13.6H217.05z"/>
		<path d="M230.21,474.11c0-0.24,0.07-0.53,0.2-0.88l9.96-23.96c0.24-0.56,0.51-0.95,0.82-1.18c0.31-0.23,0.74-0.34,1.3-0.34h4.36
			c0.56,0,0.99,0.11,1.3,0.34c0.31,0.23,0.58,0.62,0.82,1.18l9.92,23.96c0.13,0.35,0.2,0.64,0.2,0.88c0,0.56-0.29,0.84-0.88,0.84
			h-7.52c-0.83,0-1.35-0.36-1.56-1.08l-0.96-2.96h-7.08l-0.92,2.96c-0.21,0.72-0.73,1.08-1.56,1.08h-7.52
			C230.51,474.95,230.21,474.67,230.21,474.11z M246.21,464.59l-1.56-4.96l-1.56,4.96H246.21z"/>
		<path d="M264.37,474.79c-2.08-0.51-3.76-1.21-5.04-2.12c-0.53-0.37-0.8-0.73-0.8-1.08c0-0.24,0.09-0.49,0.28-0.76l2.32-3.64
			c0.24-0.35,0.48-0.52,0.72-0.52c0.21,0,0.47,0.09,0.76,0.28c0.96,0.59,2.06,1.05,3.3,1.38c1.24,0.33,2.45,0.5,3.62,0.5
			c0.99,0,1.7-0.13,2.14-0.4s0.66-0.68,0.66-1.24c0-0.61-0.29-1.11-0.88-1.48c-0.59-0.37-1.6-0.84-3.04-1.4
			c-2.69-1.04-4.81-2.22-6.36-3.54c-1.55-1.32-2.32-3.07-2.32-5.26c0-2.77,0.97-4.86,2.9-6.26c1.93-1.4,4.54-2.1,7.82-2.1
			c2.29,0,4.25,0.2,5.86,0.6c1.61,0.4,3.02,1.03,4.22,1.88c0.53,0.37,0.8,0.73,0.8,1.08c0,0.24-0.09,0.49-0.28,0.76l-2.32,3.64
			c-0.24,0.37-0.48,0.56-0.72,0.56c-0.16,0-0.41-0.11-0.76-0.32c-0.64-0.43-1.4-0.78-2.28-1.06c-0.88-0.28-1.83-0.42-2.84-0.42
			c-0.93,0-1.64,0.13-2.12,0.4c-0.48,0.27-0.72,0.69-0.72,1.28c0,0.48,0.17,0.88,0.5,1.2c0.33,0.32,0.75,0.59,1.26,0.82
			s1.39,0.59,2.64,1.1c2,0.8,3.57,1.57,4.72,2.3c1.15,0.73,2.01,1.61,2.6,2.64c0.59,1.03,0.88,2.33,0.88,3.9
			c0,2.4-0.9,4.34-2.7,5.82c-1.8,1.48-4.49,2.22-8.06,2.22C268.71,475.55,266.45,475.3,264.37,474.79z"/>
		<path d="M123.13,522.61c-0.31-0.23-0.57-0.62-0.78-1.18l-9.56-23.96c-0.13-0.35-0.2-0.64-0.2-0.88c0-0.56,0.29-0.84,0.88-0.84
			h7.52c0.83,0,1.35,0.36,1.56,1.08l4.08,13.04l4.08-13.04c0.21-0.72,0.73-1.08,1.56-1.08h7.52c0.59,0,0.88,0.28,0.88,0.84
			c0,0.24-0.07,0.53-0.2,0.88l-9.52,23.96c-0.21,0.56-0.47,0.95-0.78,1.18s-0.75,0.34-1.34,0.34h-4.36
			C123.89,522.95,123.44,522.84,123.13,522.61z"/>
		<path d="M143.21,522.39c-0.36-0.37-0.54-0.95-0.54-1.72v-22.64c0-0.77,0.18-1.35,0.54-1.72c0.36-0.37,0.98-0.56,1.86-0.56h4.76
			c0.91,0,1.54,0.18,1.9,0.54c0.36,0.36,0.54,0.94,0.54,1.74v22.64c0,0.77-0.18,1.35-0.54,1.72c-0.36,0.37-0.99,0.56-1.9,0.56h-4.76
			C144.19,522.95,143.57,522.77,143.21,522.39z"/>
		<path d="M160.15,522.79c-2.08-0.51-3.76-1.21-5.04-2.12c-0.53-0.37-0.8-0.73-0.8-1.08c0-0.24,0.09-0.49,0.28-0.76l2.32-3.64
			c0.24-0.35,0.48-0.52,0.72-0.52c0.21,0,0.47,0.09,0.76,0.28c0.96,0.59,2.06,1.05,3.3,1.38c1.24,0.33,2.45,0.5,3.62,0.5
			c0.99,0,1.7-0.13,2.14-0.4c0.44-0.27,0.66-0.68,0.66-1.24c0-0.61-0.29-1.11-0.88-1.48c-0.59-0.37-1.6-0.84-3.04-1.4
			c-2.69-1.04-4.81-2.22-6.36-3.54c-1.55-1.32-2.32-3.07-2.32-5.26c0-2.77,0.97-4.86,2.9-6.26c1.93-1.4,4.54-2.1,7.82-2.1
			c2.29,0,4.25,0.2,5.86,0.6c1.61,0.4,3.02,1.03,4.22,1.88c0.53,0.37,0.8,0.73,0.8,1.08c0,0.24-0.09,0.49-0.28,0.76l-2.32,3.64
			c-0.24,0.37-0.48,0.56-0.72,0.56c-0.16,0-0.41-0.11-0.76-0.32c-0.64-0.43-1.4-0.78-2.28-1.06c-0.88-0.28-1.83-0.42-2.84-0.42
			c-0.93,0-1.64,0.13-2.12,0.4c-0.48,0.27-0.72,0.69-0.72,1.28c0,0.48,0.17,0.88,0.5,1.2c0.33,0.32,0.75,0.59,1.26,0.82
			c0.51,0.23,1.39,0.59,2.64,1.1c2,0.8,3.57,1.57,4.72,2.3c1.15,0.73,2.01,1.61,2.6,2.64s0.88,2.33,0.88,3.9
			c0,2.4-0.9,4.34-2.7,5.82c-1.8,1.48-4.49,2.22-8.06,2.22C164.49,523.55,162.23,523.3,160.15,522.79z"/>
		<path d="M185.71,522.29c-1.97-0.84-3.51-2.05-4.6-3.64c-1.09-1.59-1.64-3.47-1.64-5.66v-14.96c0-0.77,0.18-1.35,0.54-1.72
			c0.36-0.37,0.98-0.56,1.86-0.56h4.76c0.91,0,1.54,0.18,1.9,0.54c0.36,0.36,0.54,0.94,0.54,1.74v15.08c0,1.25,0.31,2.19,0.94,2.8
			c0.63,0.61,1.49,0.92,2.58,0.92c1.09,0,1.95-0.31,2.58-0.92c0.63-0.61,0.94-1.55,0.94-2.8v-15.08c0-0.77,0.18-1.35,0.54-1.72
			c0.36-0.37,0.98-0.56,1.86-0.56h4.76c0.91,0,1.54,0.18,1.9,0.54c0.36,0.36,0.54,0.94,0.54,1.74v14.96c0,2.19-0.55,4.07-1.64,5.66
			s-2.63,2.8-4.6,3.64s-4.27,1.26-6.88,1.26C189.98,523.55,187.69,523.13,185.71,522.29z"/>
		<path d="M204.91,522.11c0-0.24,0.07-0.53,0.2-0.88l9.96-23.96c0.24-0.56,0.51-0.95,0.82-1.18c0.31-0.23,0.74-0.34,1.3-0.34h4.36
			c0.56,0,0.99,0.11,1.3,0.34c0.31,0.23,0.58,0.62,0.82,1.18l9.92,23.96c0.13,0.35,0.2,0.64,0.2,0.88c0,0.56-0.29,0.84-0.88,0.84
			h-7.52c-0.83,0-1.35-0.36-1.56-1.08l-0.96-2.96h-7.08l-0.92,2.96c-0.21,0.72-0.73,1.08-1.56,1.08h-7.52
			C205.21,522.95,204.91,522.67,204.91,522.11z M220.91,512.59l-1.56-4.96l-1.56,4.96H220.91z"/>
		<path d="M236.33,522.39c-0.36-0.37-0.54-0.95-0.54-1.72v-22.64c0-0.77,0.18-1.35,0.54-1.72s0.98-0.56,1.86-0.56h4.76
			c0.91,0,1.54,0.18,1.9,0.54c0.36,0.36,0.54,0.94,0.54,1.74v18.12h9.32c0.85,0,1.43,0.18,1.74,0.54c0.31,0.36,0.46,0.94,0.46,1.74
			v2.24c0,0.8-0.15,1.38-0.46,1.74s-0.89,0.54-1.74,0.54h-16.52C237.31,522.95,236.69,522.77,236.33,522.39z"/>
		<path d="M258.05,522.39c-0.36-0.37-0.54-0.95-0.54-1.72v-22.64c0-0.77,0.18-1.35,0.54-1.72s0.98-0.56,1.86-0.56h16.56
			c0.85,0,1.43,0.18,1.74,0.54c0.31,0.36,0.46,0.94,0.46,1.74v2.24c0,0.8-0.15,1.38-0.46,1.74c-0.31,0.36-0.89,0.54-1.74,0.54h-9.36
			v3.44h5.76c0.85,0,1.43,0.18,1.74,0.54c0.31,0.36,0.46,0.94,0.46,1.74v2.16c0,0.8-0.15,1.38-0.46,1.74
			c-0.31,0.36-0.89,0.54-1.74,0.54h-5.76v3.44h9.32c0.85,0,1.43,0.18,1.74,0.54c0.31,0.36,0.46,0.94,0.46,1.74v2.24
			c0,0.8-0.15,1.38-0.46,1.74c-0.31,0.36-0.89,0.54-1.74,0.54h-16.52C259.03,522.95,258.41,522.77,258.05,522.39z"/>
		<path d="M285.55,522.79c-2.08-0.51-3.76-1.21-5.04-2.12c-0.53-0.37-0.8-0.73-0.8-1.08c0-0.24,0.09-0.49,0.28-0.76l2.32-3.64
			c0.24-0.35,0.48-0.52,0.72-0.52c0.21,0,0.47,0.09,0.76,0.28c0.96,0.59,2.06,1.05,3.3,1.38c1.24,0.33,2.45,0.5,3.62,0.5
			c0.99,0,1.7-0.13,2.14-0.4c0.44-0.27,0.66-0.68,0.66-1.24c0-0.61-0.29-1.11-0.88-1.48c-0.59-0.37-1.6-0.84-3.04-1.4
			c-2.69-1.04-4.81-2.22-6.36-3.54c-1.55-1.32-2.32-3.07-2.32-5.26c0-2.77,0.97-4.86,2.9-6.26c1.93-1.4,4.54-2.1,7.82-2.1
			c2.29,0,4.25,0.2,5.86,0.6c1.61,0.4,3.02,1.03,4.22,1.88c0.53,0.37,0.8,0.73,0.8,1.08c0,0.24-0.09,0.49-0.28,0.76l-2.32,3.64
			c-0.24,0.37-0.48,0.56-0.72,0.56c-0.16,0-0.41-0.11-0.76-0.32c-0.64-0.43-1.4-0.78-2.28-1.06s-1.83-0.42-2.84-0.42
			c-0.93,0-1.64,0.13-2.12,0.4s-0.72,0.69-0.72,1.28c0,0.48,0.17,0.88,0.5,1.2c0.33,0.32,0.75,0.59,1.26,0.82
			c0.51,0.23,1.39,0.59,2.64,1.1c2,0.8,3.57,1.57,4.72,2.3c1.15,0.73,2.01,1.61,2.6,2.64c0.59,1.03,0.88,2.33,0.88,3.9
			c0,2.4-0.9,4.34-2.7,5.82c-1.8,1.48-4.49,2.22-8.06,2.22C289.88,523.55,287.63,523.3,285.55,522.79z"/>
	</g>
	<polygon class="st1" points="200.76,96.93 214.23,124.22 244.34,128.59 222.55,149.83 227.7,179.83 200.76,165.67 173.83,179.83 
		178.97,149.83 157.18,128.59 187.29,124.22 	"/>
	<polygon class="st1" points="138.58,180.15 147.32,197.86 166.86,200.7 152.72,214.48 156.06,233.94 138.58,224.75 121.11,233.94 
		124.45,214.48 110.31,200.7 129.85,197.86 	"/>
	<polygon class="st1" points="268.68,180.15 277.42,197.86 296.95,200.7 282.82,214.48 286.15,233.94 268.68,224.75 251.2,233.94 
		254.54,214.48 240.4,200.7 259.94,197.86 	"/>
	<circle class="st2" cx="201.77" cy="213.97" r="121.96"/>
	<circle class="st3" cx="200.82" cy="200.58" r="121.96"/>
	<g>
		<path class="st3" d="M184.17,644.07c-3.43-0.78-6.17-1.87-8.21-3.29c-0.58-0.44-0.88-0.92-0.88-1.46c0-0.44,0.22-1.05,0.66-1.82
			l3.65-6.28c0.39-0.68,0.85-1.02,1.39-1.02c0.34,0,0.9,0.2,1.68,0.58c1.27,0.63,2.81,1.16,4.64,1.57c1.82,0.41,3.64,0.62,5.44,0.62
			c2.43,0,4.25-0.37,5.44-1.09c1.19-0.73,1.79-1.85,1.79-3.36c0-2.34-1.58-3.5-4.75-3.5h-5.62c-1.61,0-2.74-0.34-3.39-1.02
			c-0.66-0.68-0.99-1.73-0.99-3.14v-3.94c0-1.41,0.33-2.46,0.99-3.14c0.66-0.68,1.79-1.02,3.39-1.02h4.45c1.61,0,2.77-0.29,3.5-0.88
			s1.1-1.48,1.1-2.7c0-2.34-2.02-3.5-6.06-3.5c-3.26,0-6.35,0.73-9.27,2.19c-0.78,0.39-1.34,0.58-1.68,0.58
			c-0.54,0-1-0.34-1.39-1.02l-3.65-6.28c-0.44-0.78-0.66-1.39-0.66-1.83c0-0.54,0.29-1.02,0.88-1.46c2.09-1.41,4.7-2.51,7.81-3.29
			c3.11-0.78,6.67-1.17,10.66-1.17c4.23,0,7.92,0.62,11.06,1.86c3.14,1.24,5.55,3,7.23,5.29c1.68,2.29,2.52,4.99,2.52,8.1
			c0,4.28-1.49,7.59-4.45,9.93c3.84,2.24,5.77,5.79,5.77,10.66c0,4.92-1.87,8.81-5.62,11.68c-3.75,2.87-9.15,4.31-16.21,4.31
			C191.34,645.24,187.6,644.85,184.17,644.07z"/>
	</g>
	<g>
		<g>
			<g>
				<path class="st26" d="M268.53,221.66c0,2.96-2.42,5.38-5.38,5.38H154.3c-2.96,0-5.38-2.42-5.38-5.38v-63.03
					c0-2.94,2.42-5.37,5.38-5.37h108.85c2.96,0,5.38,2.42,5.38,5.37V221.66z"/>
				<path class="st27" d="M267.99,153.26h-53.85h-55.01c-2.96,0-5.38,2.42-5.38,5.37v63.03c0,2.96,2.42,5.38,5.38,5.38h55.01h53.85
					c2.95,0,5.37-2.42,5.37-5.38v-63.03C273.37,155.68,270.95,153.26,267.99,153.26z"/>
				<path class="st28" d="M263.15,153.26h-53.84H154.3c-2.96,0-5.38,2.42-5.38,5.37v63.03c0,2.96,2.42,5.38,5.38,5.38h55.01h53.84
					c2.96,0,5.38-2.42,5.38-5.38v-63.03C268.53,155.68,266.11,153.26,263.15,153.26z"/>
				<path class="st29" d="M260.99,158.06h-51.68h-52.84c-1.77,0-3.23,1.47-3.23,3.23V219c0,1.78,1.46,3.23,3.23,3.23h52.84h51.68
					c1.77,0,3.22-1.45,3.22-3.23v-57.71C264.21,159.53,262.75,158.06,260.99,158.06z"/>
			</g>
			<g>
				<path class="st27" d="M212.35,227.04V238h59.55c5.35,0,9.69-4.34,9.69-9.69v-1.28H212.35z"/>
				<path class="st30" d="M138.9,227.04v1.28c0,5.35,4.34,9.69,9.69,9.69h60.71v-10.96H138.9z"/>
			</g>
			<path class="st31" d="M178.57,227.04h-70.41v1.28c0,5.35,4.34,9.69,9.7,9.69h60.71h59.55c5.35,0,9.7-4.34,9.7-9.69v-1.28H178.57z
				"/>
		</g>
		<polygon class="st196" points="201.28,190.35 201.28,176.04 213.68,183.19 226.07,190.35 213.68,197.5 201.28,204.66 		"/>
	</g>
</g>
</svg>
