<?xml version="1.0" encoding="utf-8"?>
<!-- Generator: Adobe Illustrator 23.0.0, SVG Export Plug-In . SVG Version: 6.00 Build 0)  -->
<svg version="1.1" id="Capa_1" xmlns="http://www.w3.org/2000/svg" xmlns:xlink="http://www.w3.org/1999/xlink" x="0px" y="0px"
	 viewBox="0 0 400 702" style="enable-background:new 0 0 400 702;" xml:space="preserve">
<style type="text/css">
	.st0{fill:#0085B0;}
	.st1{fill:#E0EF18;}
	.st2{fill:#CECECE;}
	.st3{fill:#FFFFFF;}
	.st4{fill:#F2F2F2;}
	.st5{fill:#EACCB0;}
	.st6{fill:#9B9B9B;}
	.st7{fill:#939393;}
	.st8{fill:#EFEFEF;}
	.st9{fill:#828282;}
	.st10{fill:#2C2A2D;}
	.st11{fill:#202021;}
	.st12{fill:#F2D4B6;}
	.st13{fill:#534D46;}
	.st14{fill:#E8D313;}
	.st15{fill:#2ACCFF;}
	.st16{fill:#4E4F4F;}
	.st17{fill:#003A94;}
	.st18{fill:#00D13C;}
	.st19{fill:#15682A;}
	.st20{fill:#D40000;}
	.st21{fill:#505050;}
	.st22{fill:#DFDFDF;}
	.st23{fill:none;}
	.st24{fill:#636363;}
	.st25{fill:#6C92D5;}
	.st26{fill:#22272F;}
	.st27{fill:#1B2538;}
	.st28{fill:#253452;}
	.st29{fill:#F9F9F9;}
	.st30{fill:#2D3543;}
	.st31{fill:#2A3D60;}
	.st32{fill:#587955;}
	.st33{fill:#CD7054;}
	.st34{fill:#F1CC4B;}
	.st35{fill:#ACACAC;}
	.st36{fill:#AAE528;}
	.st37{fill:#28CEBA;}
	.st38{fill:#DB143F;}
	.st39{fill:#53C2C9;}
	.st40{fill:#FFB412;}
	.st41{fill:#866A5E;}
	.st42{fill:#F7DDCB;}
	.st43{fill:#FFE6D4;}
	.st44{fill:#F5F5F5;}
	.st45{fill:#1A2830;}
	.st46{fill:#24353F;}
	.st47{fill:#132026;}
	.st48{fill:#F9FF03;}
	.st49{fill:#272728;}
	.st50{fill:#1E1D1E;}
	.st51{fill:#160423;}
	.st52{fill-rule:evenodd;clip-rule:evenodd;fill:#FFFFFF;}
	.st53{fill-rule:evenodd;clip-rule:evenodd;fill:#1996B8;}
	.st54{fill:#0C387D;}
	.st55{fill:#C69A81;}
	.st56{fill:#D1A385;}
	.st57{fill:#EAEAEA;}
	.st58{fill:#093E8C;}
	.st59{fill:#0B2A62;}
	.st60{fill:#D32A3B;}
	.st61{fill:#827C7D;}
	.st62{opacity:0.7;fill:#7F7F7F;}
	.st63{fill:#FDFDFD;}
	.st64{fill:#DAA449;}
	.st65{fill:#DD9225;}
	.st66{opacity:0.3;}
	.st67{fill:#425793;}
	.st68{opacity:0.8;}
	.st69{filter:url(#Adobe_OpacityMaskFilter);}
	.st70{opacity:0.15;mask:url(#SVGID_1_);}
	.st71{fill:#090B00;}
	.st72{opacity:0.1;}
	.st73{fill:#211915;}
	.st74{filter:url(#Adobe_OpacityMaskFilter_1_);}
	.st75{opacity:0.15;mask:url(#SVGID_2_);}
	.st76{fill:#AF3623;}
	.st77{filter:url(#Adobe_OpacityMaskFilter_2_);}
	.st78{opacity:0.15;mask:url(#SVGID_3_);}
	.st79{filter:url(#Adobe_OpacityMaskFilter_3_);}
	.st80{opacity:0.15;mask:url(#SVGID_4_);}
	.st81{fill:#456495;}
	.st82{filter:url(#Adobe_OpacityMaskFilter_4_);}
	.st83{opacity:0.15;mask:url(#SVGID_5_);}
	.st84{filter:url(#Adobe_OpacityMaskFilter_5_);}
	.st85{opacity:0.15;mask:url(#SVGID_6_);}
	.st86{fill:#76A9DA;}
	.st87{filter:url(#Adobe_OpacityMaskFilter_6_);}
	.st88{opacity:0.15;mask:url(#SVGID_7_);}
	.st89{filter:url(#Adobe_OpacityMaskFilter_7_);}
	.st90{opacity:0.15;mask:url(#SVGID_8_);}
	.st91{fill:#1F3642;}
	.st92{fill:#A9BDDA;}
	.st93{opacity:0.46;fill:#A6B4BC;}
	.st94{fill:#74C475;}
	.st95{fill:#221F21;}
	.st96{fill:#2D2D2D;}
	.st97{fill:#1C1B1A;}
	.st98{fill:#77181C;}
	.st99{fill:#262525;}
	.st100{fill:#11100F;}
	.st101{opacity:0.18;}
	.st102{opacity:0.38;}
	.st103{fill:#0A5B1F;}
	.st104{opacity:0.27;}
	.st105{opacity:0.48;}
	.st106{fill:#0A4654;}
	.st107{fill:#C2C6C6;}
	.st108{fill:#E5E5E5;stroke:#FFFFFF;stroke-miterlimit:10;}
	.st109{fill:#ACB4B5;}
	.st110{fill:#7F8384;}
	.st111{fill:#15772F;}
	.st112{fill:#F4F4F4;}
	.st113{fill:#53B8DB;}
	.st114{fill:#06EF42;}
	.st115{fill:#E7ED07;}
	.st116{fill:#CCCCCA;}
	.st117{fill:#EADF13;}
	.st118{fill:#C2C2C2;}
	.st119{fill:#85B681;}
	.st120{fill:#A1DC9B;}
	.st121{fill:#90C58B;}
	.st122{fill:#22241F;}
	.st123{opacity:0.5;}
	.st124{fill:#A2CADE;}
	.st125{fill:#E9E9E9;}
	.st126{fill:#D9D9D9;}
	.st127{fill:#CDCDCD;}
	.st128{opacity:0.34;fill:#F0F0F0;}
	.st129{fill:#5A5B5A;}
	.st130{fill:#FFE600;}
	.st131{fill:#DB1F59;}
	.st132{fill:#727272;}
	.st133{fill:#207235;}
	.st134{fill:#A3A3A3;}
	.st135{fill:#BCBCBC;}
	.st136{fill:#0A511C;}
	.st137{fill:#F9FF00;}
	.st138{fill:#D59F6D;}
	.st139{fill:#C0804A;}
	.st140{fill:#E6BA8A;}
	.st141{fill:#BE3ACC;}
	.st142{fill:#FFFFFF;stroke:#443F0C;stroke-width:9;stroke-miterlimit:10;}
	.st143{fill:none;stroke:#443F0C;stroke-width:9;stroke-miterlimit:10;}
	.st144{fill:#170623;}
	.st145{fill:#158231;}
	.st146{fill:#C89D76;}
	.st147{opacity:0.4;}
	.st148{fill:#ADADAD;}
	.st149{fill:#EDC3A6;}
	.st150{opacity:0.69;}
	.st151{fill:#E5D3D6;}
	.st152{opacity:0.44;}
	.st153{fill:#A5A5A5;}
	.st154{fill:#DDE5E4;}
	.st155{fill:#5C9169;}
	.st156{fill:#934215;}
	.st157{fill:#47413B;}
	.st158{fill:#601A1F;}
	.st159{fill:#044554;}
	.st160{opacity:0.7;}
	.st161{fill:#7F7F7F;}
	.st162{fill:#6B8A69;}
	.st163{opacity:0.24;fill:#848D90;}
	.st164{opacity:0.4;fill:#848D90;}
	.st165{fill:#F2D5D5;}
	.st166{fill:#485CC1;}
	.st167{fill:#C6CBE0;}
	.st168{fill:#8B909E;}
	.st169{fill:#53BC1B;}
	.st170{fill:#11565B;}
	.st171{fill:#67A06D;}
	.st172{fill:#FFEC00;}
	.st173{fill:#77A007;}
	.st174{fill:#E50731;}
	.st175{fill:#266472;}
	.st176{fill:#D4D4D4;}
	.st177{fill:#0E9932;}
	.st178{fill:#87DD24;}
	.st179{fill:#76A172;}
	.st180{fill:#62835F;}
	.st181{fill:#96D090;}
	.st182{fill:#D6D6D6;}
	.st183{fill:#606060;}
	.st184{fill:#494949;}
	.st185{fill:#29E55A;}
	.st186{fill:#2C703D;}
	.st187{fill:#DD0744;}
	.st188{fill:#EDEDED;}
	.st189{fill:#2A5936;}
	.st190{fill:#B9BBC1;}
	.st191{fill:#FFD79E;}
	.st192{fill:#FFE6C2;}
	.st193{fill:#2CBB55;}
	.st194{fill:#5C412D;}
	.st195{fill:#EC0000;}
	.st196{fill:#DD2626;}
	.st197{fill:#EA9334;}
	.st198{fill:#FCC232;}
	.st199{fill:#F9B234;}
	.st200{fill:#F7A037;}
	.st201{fill:#E0E0E0;}
</style>
<g>
	<g>
		<path class="st18" d="M9.5,209.36c0,22,13.29,27.86,29.54,13.03c0,0,156.99-143.3,353.09,26.97V55c0-22-18-40-40-40H49.5
			c-22,0-40,18-40,40V209.36z"/>
	</g>
	<g>
		<path class="st18" d="M391.66,647c0,22-18,40-40,40H49.98c-22,0-40-18-40-40v-46.27c0-22,18-40,40-40h301.68c22,0,40,18,40,40V647
			z"/>
	</g>
	<g>
		<path d="M90.66,390.77c-2.34-0.57-4.23-1.37-5.67-2.39c-0.6-0.42-0.9-0.82-0.9-1.21c0-0.27,0.1-0.55,0.31-0.85l2.61-4.1
			c0.27-0.39,0.54-0.58,0.81-0.58c0.24,0,0.53,0.11,0.86,0.32c1.08,0.66,2.32,1.18,3.71,1.55c1.39,0.38,2.75,0.56,4.07,0.56
			c1.11,0,1.91-0.15,2.41-0.45s0.74-0.76,0.74-1.4c0-0.69-0.33-1.24-0.99-1.66c-0.66-0.42-1.8-0.95-3.42-1.58
			c-3.03-1.17-5.42-2.5-7.16-3.98c-1.74-1.49-2.61-3.46-2.61-5.92c0-3.12,1.09-5.47,3.26-7.04c2.17-1.57,5.11-2.36,8.8-2.36
			c2.58,0,4.78,0.22,6.59,0.67c1.81,0.45,3.4,1.16,4.75,2.12c0.6,0.42,0.9,0.83,0.9,1.21c0,0.27-0.11,0.56-0.32,0.86l-2.61,4.1
			c-0.27,0.42-0.54,0.63-0.81,0.63c-0.18,0-0.46-0.12-0.85-0.36c-0.72-0.48-1.58-0.88-2.57-1.19c-0.99-0.31-2.05-0.47-3.19-0.47
			c-1.05,0-1.84,0.15-2.39,0.45c-0.54,0.3-0.81,0.78-0.81,1.44c0,0.54,0.19,0.99,0.56,1.35c0.37,0.36,0.85,0.67,1.42,0.92
			c0.57,0.26,1.56,0.67,2.97,1.24c2.25,0.9,4.02,1.76,5.31,2.59c1.29,0.83,2.26,1.82,2.92,2.97c0.66,1.16,0.99,2.62,0.99,4.39
			c0,2.7-1.01,4.88-3.04,6.55s-5.05,2.5-9.07,2.5C95.54,391.63,93,391.34,90.66,390.77z"/>
		<path d="M115.86,387.46c-2.76-2.77-4.14-6.71-4.14-11.81c0-5.1,1.38-9.04,4.14-11.81c2.76-2.78,6.81-4.16,12.15-4.16
			s9.39,1.39,12.15,4.16c2.76,2.78,4.14,6.71,4.14,11.81c0,5.1-1.38,9.04-4.14,11.81c-2.76,2.78-6.81,4.16-12.15,4.16
			S118.62,390.24,115.86,387.46z M132.24,381.97c0.87-1.39,1.31-3.5,1.31-6.32c0-2.85-0.43-4.96-1.31-6.35
			c-0.87-1.38-2.28-2.07-4.23-2.07s-3.36,0.69-4.23,2.07c-0.87,1.38-1.3,3.5-1.3,6.35c0,2.82,0.43,4.93,1.3,6.32
			c0.87,1.4,2.28,2.09,4.23,2.09S131.37,383.37,132.24,381.97z"/>
		<path d="M147.16,390.32c-0.4-0.42-0.61-1.06-0.61-1.94v-25.47c0-0.87,0.2-1.51,0.61-1.93c0.41-0.42,1.1-0.63,2.09-0.63h5.35
			c1.02,0,1.73,0.2,2.14,0.61c0.4,0.41,0.61,1.06,0.61,1.96v20.38h10.48c0.96,0,1.61,0.2,1.96,0.61c0.35,0.41,0.52,1.06,0.52,1.96
			v2.52c0,0.9-0.17,1.55-0.52,1.96c-0.34,0.41-1,0.61-1.96,0.61h-18.58C148.26,390.95,147.56,390.74,147.16,390.32z"/>
		<path d="M172.27,390.32c-0.41-0.42-0.61-1.06-0.61-1.94v-25.47c0-0.87,0.2-1.51,0.61-1.93s1.1-0.63,2.09-0.63h5.35
			c1.02,0,1.73,0.2,2.14,0.61c0.4,0.41,0.61,1.06,0.61,1.96v25.47c0,0.87-0.2,1.52-0.61,1.94c-0.41,0.42-1.12,0.63-2.14,0.63h-5.35
			C173.37,390.95,172.67,390.74,172.27,390.32z"/>
		<path d="M189.26,387.6c-3.03-2.68-4.54-6.67-4.54-11.95c0-5.31,1.46-9.3,4.39-11.97c2.93-2.67,7.1-4,12.53-4
			c2.46,0,4.65,0.24,6.57,0.72c1.92,0.48,3.52,1.16,4.81,2.03c0.36,0.27,0.54,0.57,0.54,0.9c0,0.27-0.14,0.65-0.41,1.13l-2.25,3.87
			c-0.24,0.42-0.53,0.63-0.86,0.63c-0.21,0-0.55-0.12-1.03-0.36c-0.84-0.42-1.72-0.75-2.63-0.99s-1.99-0.36-3.22-0.36
			c-2.49,0-4.39,0.72-5.71,2.16c-1.32,1.44-1.98,3.53-1.98,6.26c0,2.7,0.72,4.78,2.16,6.23c1.44,1.46,3.41,2.18,5.9,2.18
			c2.16,0,4.14-0.45,5.94-1.35c0.48-0.24,0.82-0.36,1.04-0.36c0.33,0,0.61,0.21,0.85,0.63l2.25,3.87c0.27,0.48,0.41,0.85,0.41,1.13
			c0,0.33-0.18,0.63-0.54,0.9c-1.29,0.87-2.91,1.55-4.86,2.03c-1.95,0.48-4.16,0.72-6.62,0.72
			C196.53,391.63,192.29,390.29,189.26,387.6z"/>
		<path d="M216.86,390.32c-0.41-0.42-0.61-1.06-0.61-1.94v-25.47c0-0.87,0.2-1.51,0.61-1.93c0.4-0.42,1.1-0.63,2.09-0.63h5.36
			c1.02,0,1.73,0.2,2.14,0.61c0.41,0.41,0.61,1.06,0.61,1.96v25.47c0,0.87-0.2,1.52-0.61,1.94s-1.12,0.63-2.14,0.63h-5.36
			C217.97,390.95,217.27,390.74,216.86,390.32z"/>
		<path d="M237.97,390.32c-0.41-0.42-0.61-1.06-0.61-1.94V368h-6.48c-0.96,0-1.61-0.2-1.96-0.61c-0.35-0.4-0.52-1.06-0.52-1.96
			v-2.52c0-0.9,0.17-1.55,0.52-1.96c0.34-0.4,1-0.61,1.96-0.61h23.76c0.96,0,1.61,0.2,1.96,0.61c0.35,0.41,0.52,1.06,0.52,1.96v2.52
			c0,0.9-0.17,1.55-0.52,1.96c-0.34,0.41-1,0.61-1.96,0.61h-6.48v20.38c0,0.87-0.2,1.52-0.61,1.94c-0.4,0.42-1.12,0.63-2.14,0.63
			h-5.36C239.07,390.95,238.37,390.74,237.97,390.32z"/>
		<path d="M265.26,390.21c-2.22-0.95-3.95-2.31-5.17-4.1c-1.23-1.78-1.84-3.91-1.84-6.37v-16.83c0-0.87,0.2-1.51,0.61-1.93
			s1.1-0.63,2.09-0.63h5.36c1.02,0,1.73,0.2,2.14,0.61c0.41,0.41,0.61,1.06,0.61,1.96v16.96c0,1.41,0.35,2.46,1.06,3.15
			c0.71,0.69,1.67,1.04,2.9,1.04s2.2-0.34,2.9-1.04c0.71-0.69,1.06-1.74,1.06-3.15v-16.96c0-0.87,0.2-1.51,0.61-1.93
			c0.4-0.42,1.1-0.63,2.09-0.63h5.36c1.02,0,1.73,0.2,2.14,0.61c0.41,0.41,0.61,1.06,0.61,1.96v16.83c0,2.46-0.62,4.58-1.84,6.37
			c-1.23,1.79-2.96,3.15-5.17,4.1c-2.22,0.94-4.8,1.42-7.74,1.42C270.06,391.63,267.48,391.15,265.26,390.21z"/>
		<path d="M291.29,390.32c-0.41-0.42-0.61-1.06-0.61-1.94v-25.47c0-0.87,0.2-1.51,0.61-1.93c0.4-0.42,1.1-0.63,2.09-0.63h10.35
			c10.59,0,15.88,5.1,15.88,15.3c0,5.04-1.36,8.85-4.07,11.43c-2.71,2.58-6.65,3.87-11.81,3.87h-10.35
			C292.39,390.95,291.7,390.74,291.29,390.32z M304.14,383.3c1.68,0,2.89-0.55,3.62-1.67c0.74-1.11,1.1-3.1,1.1-5.98
			s-0.37-4.88-1.1-5.99c-0.73-1.11-1.94-1.67-3.62-1.67h-2.66v15.3H304.14z"/>
		<path d="M168.76,444.32c-0.41-0.42-0.61-1.06-0.61-1.94v-25.47c0-0.87,0.2-1.51,0.61-1.93s1.1-0.63,2.09-0.63h10.35
			c10.59,0,15.88,5.1,15.88,15.3c0,5.04-1.36,8.85-4.07,11.43c-2.71,2.58-6.65,3.87-11.81,3.87h-10.35
			C169.86,444.95,169.16,444.74,168.76,444.32z M181.61,437.3c1.68,0,2.89-0.55,3.62-1.67c0.73-1.11,1.1-3.1,1.1-5.98
			s-0.37-4.88-1.1-5.99c-0.74-1.11-1.94-1.67-3.62-1.67h-2.65v15.3H181.61z"/>
		<path d="M199.94,444.32c-0.41-0.42-0.61-1.06-0.61-1.94v-25.47c0-0.87,0.2-1.51,0.61-1.93c0.4-0.42,1.1-0.63,2.09-0.63h18.63
			c0.96,0,1.61,0.2,1.96,0.61c0.34,0.4,0.52,1.06,0.52,1.96v2.52c0,0.9-0.17,1.55-0.52,1.96c-0.35,0.41-1,0.61-1.96,0.61h-10.53
			v3.87h6.48c0.96,0,1.61,0.2,1.96,0.61s0.52,1.06,0.52,1.96v2.43c0,0.9-0.17,1.55-0.52,1.96c-0.34,0.41-1,0.61-1.96,0.61h-6.48
			v3.87h10.49c0.96,0,1.61,0.2,1.96,0.61c0.34,0.41,0.52,1.06,0.52,1.96v2.52c0,0.9-0.17,1.55-0.52,1.96
			c-0.35,0.41-1,0.61-1.96,0.61h-18.59C201.05,444.95,200.35,444.74,199.94,444.32z"/>
		<path d="M83.96,495.6c-3.03-2.68-4.55-6.67-4.55-11.95c0-5.31,1.46-9.3,4.39-11.97c2.92-2.67,7.1-4.01,12.53-4.01
			c2.46,0,4.65,0.24,6.57,0.72s3.53,1.16,4.82,2.02c0.36,0.27,0.54,0.57,0.54,0.9c0,0.27-0.13,0.65-0.4,1.13l-2.25,3.87
			c-0.24,0.42-0.53,0.63-0.86,0.63c-0.21,0-0.56-0.12-1.04-0.36c-0.84-0.42-1.72-0.75-2.63-0.99c-0.92-0.24-1.99-0.36-3.22-0.36
			c-2.49,0-4.4,0.72-5.71,2.16c-1.32,1.44-1.98,3.53-1.98,6.25c0,2.7,0.72,4.78,2.16,6.23c1.44,1.46,3.4,2.18,5.89,2.18
			c2.16,0,4.14-0.45,5.94-1.35c0.48-0.24,0.83-0.36,1.04-0.36c0.33,0,0.62,0.21,0.86,0.63l2.25,3.87c0.27,0.48,0.41,0.85,0.41,1.13
			c0,0.33-0.18,0.63-0.54,0.9c-1.29,0.87-2.91,1.55-4.86,2.03s-4.16,0.72-6.61,0.72C91.23,499.63,86.99,498.29,83.96,495.6z"/>
		<path d="M112.17,495.46c-2.76-2.77-4.14-6.71-4.14-11.81c0-5.1,1.38-9.04,4.14-11.81c2.76-2.77,6.81-4.16,12.15-4.16
			s9.39,1.39,12.15,4.16c2.76,2.78,4.14,6.71,4.14,11.81c0,5.1-1.38,9.04-4.14,11.81c-2.76,2.78-6.81,4.16-12.15,4.16
			S114.93,498.24,112.17,495.46z M128.55,489.97c0.87-1.39,1.3-3.5,1.3-6.32c0-2.85-0.43-4.96-1.3-6.34s-2.28-2.07-4.23-2.07
			c-1.95,0-3.36,0.69-4.23,2.07s-1.3,3.5-1.3,6.34c0,2.82,0.43,4.93,1.3,6.32c0.87,1.4,2.28,2.09,4.23,2.09
			C126.27,492.07,127.68,491.37,128.55,489.97z"/>
		<path d="M143.47,498.32c-0.41-0.42-0.61-1.06-0.61-1.94v-25.47c0-0.87,0.2-1.51,0.61-1.93c0.4-0.42,1.1-0.63,2.09-0.63h13.63
			c3.66,0,6.35,0.78,8.08,2.34c1.72,1.56,2.59,3.78,2.59,6.66c0,1.35-0.29,2.54-0.88,3.58c-0.58,1.04-1.36,1.76-2.32,2.18
			c2.67,0.9,4,3,4,6.3c0,2.82-1,5.12-2.99,6.88c-2,1.77-4.93,2.66-8.8,2.66h-13.32C144.57,498.95,143.87,498.74,143.47,498.32z
			 M157.04,479.92c1.38,0,2.07-0.66,2.07-1.98s-0.69-1.98-2.07-1.98h-3.42v3.96H157.04z M157.8,491.35c0.63,0,1.14-0.2,1.53-0.61
			c0.39-0.4,0.59-0.95,0.59-1.64c0-0.72-0.19-1.27-0.56-1.66c-0.38-0.39-0.89-0.59-1.55-0.59h-4.19v4.5H157.8z"/>
		<path d="M173.53,498.32c-0.41-0.42-0.61-1.06-0.61-1.94v-25.47c0-0.87,0.2-1.51,0.61-1.93s1.1-0.63,2.09-0.63h10.75
			c4.5,0,7.78,0.89,9.83,2.68c2.05,1.79,3.08,4.48,3.08,8.08c0,2.16-0.37,3.98-1.1,5.47c-0.73,1.49-1.87,2.65-3.4,3.49l4.18,8.96
			c0.12,0.24,0.18,0.51,0.18,0.81c0,0.33-0.11,0.6-0.34,0.81c-0.22,0.21-0.52,0.32-0.88,0.32h-7.61c-0.48,0-0.86-0.07-1.15-0.2
			c-0.29-0.14-0.49-0.37-0.61-0.7l-3.33-8.37h-1.53v6.7c0,0.87-0.2,1.52-0.61,1.94c-0.41,0.42-1.12,0.63-2.14,0.63h-5.35
			C174.63,498.95,173.93,498.74,173.53,498.32z M185.43,482.17c0.96,0,1.72-0.25,2.27-0.76c0.55-0.51,0.83-1.28,0.83-2.29
			c0-1.05-0.28-1.83-0.83-2.34s-1.31-0.77-2.27-0.77h-3.06v6.17H185.43z"/>
		<path d="M198.62,498.01c0-0.27,0.07-0.6,0.22-0.99l11.21-26.96c0.27-0.63,0.58-1.07,0.92-1.33c0.34-0.25,0.83-0.38,1.46-0.38h4.91
			c0.63,0,1.12,0.13,1.46,0.38c0.34,0.26,0.65,0.7,0.92,1.33l11.16,26.96c0.15,0.39,0.22,0.72,0.22,0.99c0,0.63-0.33,0.95-0.99,0.95
			h-8.46c-0.93,0-1.51-0.41-1.75-1.21l-1.08-3.33h-7.96l-1.04,3.33c-0.24,0.81-0.83,1.21-1.75,1.21h-8.46
			C198.95,498.95,198.62,498.64,198.62,498.01z M216.62,487.3l-1.75-5.58l-1.75,5.58H216.62z"/>
		<path d="M233.96,498.32c-0.41-0.42-0.61-1.06-0.61-1.94v-25.51c0-0.87,0.2-1.51,0.61-1.91c0.4-0.41,1.12-0.61,2.14-0.61h4.28
			c0.63,0,1.12,0.08,1.46,0.25c0.34,0.17,0.68,0.49,1.01,0.97l8.15,12.1v-10.75c0-0.87,0.2-1.51,0.61-1.93s1.1-0.63,2.09-0.63h5.36
			c1.02,0,1.73,0.2,2.14,0.61c0.41,0.4,0.61,1.06,0.61,1.96v25.52c0,0.87-0.2,1.51-0.61,1.91c-0.4,0.41-1.12,0.61-2.14,0.61h-4.28
			c-0.63,0-1.12-0.08-1.46-0.25s-0.68-0.49-1.01-0.97l-8.15-12.11v10.8c0,0.87-0.2,1.51-0.61,1.91s-1.12,0.61-2.14,0.61h-5.36
			C235.07,498.95,234.37,498.74,233.96,498.32z"/>
		<path d="M264.5,498.43c-0.3-0.34-0.45-0.98-0.45-1.91c0-0.96,0.08-1.71,0.25-2.25c0.16-0.54,0.58-1.25,1.24-2.12L277.37,476
			h-10.39c-0.99,0-1.69-0.21-2.09-0.63c-0.4-0.42-0.61-1.06-0.61-1.93v-2.52c0-0.87,0.2-1.51,0.61-1.93
			c0.41-0.42,1.1-0.63,2.09-0.63h22.23c0.9,0,1.5,0.17,1.8,0.52c0.3,0.34,0.45,0.98,0.45,1.91s-0.08,1.67-0.25,2.21
			c-0.17,0.54-0.58,1.26-1.24,2.16l-11.74,16.15h10.62c0.99,0,1.69,0.21,2.09,0.63s0.61,1.06,0.61,1.93v2.52
			c0,0.87-0.2,1.52-0.61,1.94s-1.1,0.63-2.09,0.63h-22.54C265.39,498.95,264.79,498.78,264.5,498.43z"/>
		<path d="M291.76,498.01c0-0.27,0.08-0.6,0.23-0.99l11.21-26.96c0.27-0.63,0.58-1.07,0.92-1.33c0.34-0.25,0.83-0.38,1.46-0.38h4.9
			c0.63,0,1.12,0.13,1.46,0.38c0.34,0.26,0.65,0.7,0.92,1.33l11.16,26.96c0.15,0.39,0.23,0.72,0.23,0.99c0,0.63-0.33,0.95-0.99,0.95
			h-8.46c-0.93,0-1.52-0.41-1.75-1.21l-1.08-3.33H304l-1.04,3.33c-0.24,0.81-0.83,1.21-1.75,1.21h-8.46
			C292.09,498.95,291.76,498.64,291.76,498.01z M309.76,487.3l-1.75-5.58l-1.75,5.58H309.76z"/>
	</g>
	<polygon class="st1" points="200.76,96.93 214.23,124.22 244.34,128.59 222.55,149.83 227.7,179.83 200.76,165.67 173.83,179.83 
		178.97,149.83 157.18,128.59 187.29,124.22 	"/>
	<polygon class="st1" points="138.58,180.15 147.32,197.86 166.86,200.7 152.72,214.48 156.06,233.94 138.58,224.75 121.11,233.94 
		124.45,214.48 110.31,200.7 129.85,197.86 	"/>
	<polygon class="st1" points="268.68,180.15 277.42,197.86 296.95,200.7 282.82,214.48 286.15,233.94 268.68,224.75 251.2,233.94 
		254.54,214.48 240.4,200.7 259.94,197.86 	"/>
	<circle class="st2" cx="201.77" cy="213.97" r="121.96"/>
	<circle class="st3" cx="200.82" cy="200.58" r="121.96"/>
	<g>
		<path class="st3" d="M184.17,644.07c-3.43-0.78-6.17-1.87-8.21-3.29c-0.58-0.44-0.88-0.92-0.88-1.46c0-0.44,0.22-1.05,0.66-1.82
			l3.65-6.28c0.39-0.68,0.85-1.02,1.39-1.02c0.34,0,0.9,0.2,1.68,0.58c1.27,0.63,2.81,1.16,4.64,1.57c1.82,0.41,3.64,0.62,5.44,0.62
			c2.43,0,4.25-0.37,5.44-1.09c1.19-0.73,1.79-1.85,1.79-3.36c0-2.34-1.58-3.5-4.75-3.5h-5.62c-1.61,0-2.74-0.34-3.39-1.02
			c-0.66-0.68-0.99-1.73-0.99-3.14v-3.94c0-1.41,0.33-2.46,0.99-3.14c0.66-0.68,1.79-1.02,3.39-1.02h4.45c1.61,0,2.77-0.29,3.5-0.88
			s1.1-1.48,1.1-2.7c0-2.34-2.02-3.5-6.06-3.5c-3.26,0-6.35,0.73-9.27,2.19c-0.78,0.39-1.34,0.58-1.68,0.58
			c-0.54,0-1-0.34-1.39-1.02l-3.65-6.28c-0.44-0.78-0.66-1.39-0.66-1.83c0-0.54,0.29-1.02,0.88-1.46c2.09-1.41,4.7-2.51,7.81-3.29
			c3.11-0.78,6.67-1.17,10.66-1.17c4.23,0,7.92,0.62,11.06,1.86c3.14,1.24,5.55,3,7.23,5.29c1.68,2.29,2.52,4.99,2.52,8.1
			c0,4.28-1.49,7.59-4.45,9.93c3.84,2.24,5.77,5.79,5.77,10.66c0,4.92-1.87,8.81-5.62,11.68c-3.75,2.87-9.15,4.31-16.21,4.31
			C191.34,645.24,187.6,644.85,184.17,644.07z"/>
	</g>
	<g>
		<g class="st160">
			
				<rect x="144.68" y="203.38" transform="matrix(0.7035 -0.7107 0.7107 0.7035 -128.9761 175.1837)" class="st161" width="1.56" height="77.57"/>
			<path class="st161" d="M249.55,205.81v-52.56v-9.85c0-2.8-2.26-5.07-5.07-5.07h-3.81v-4.81c0-1.77-1.44-3.21-3.21-3.21
				c-1.77,0-3.21,1.44-3.21,3.21v4.81H202.2v-4.81c0-1.77-1.44-3.21-3.21-3.21c-1.78,0-3.21,1.44-3.21,3.21v4.81h-32.05v-4.81
				c0-1.77-1.44-3.21-3.21-3.21c-1.77,0-3.21,1.44-3.21,3.21v4.81h-3.81c-2.79,0-5.07,2.26-5.07,5.07v9.85v46.61l-7.92-7.84
				l-22.07,22.3l55.13,54.56l1.88-1.89l0,0l7.39-7.47l12.8-12.92l0,0l0,0l-11.03-10.92l28.67,2.36v5.25l47.47,3.08v-41.71
				L249.55,205.81z M170.46,221.68l-4.61-4.57h2.82l0.03,0.05l2.4,3.39l1.16,1.09L170.46,221.68z"/>
		</g>
		<g>
			<g>
				<path class="st28" d="M248.74,152.44v57.16c0,2.79-2.26,5.07-5.07,5.07h-90.99c-2.79,0-5.07-2.28-5.07-5.07v-57.16H248.74z"/>
				<path class="st3" d="M248.74,142.59v9.85H147.62v-9.85c0-2.8,2.28-5.07,5.07-5.07h90.99
					C246.48,137.53,248.74,139.79,248.74,142.59z"/>
				<rect x="185.29" y="162.12" class="st3" width="11.61" height="11.61"/>
				<rect x="200.92" y="162.12" class="st3" width="11.61" height="11.61"/>
				<rect x="216.54" y="162.12" class="st3" width="11.61" height="11.61"/>
				<rect x="232.17" y="162.12" class="st3" width="11.61" height="11.61"/>
				<rect x="154.05" y="177.75" class="st3" width="11.61" height="11.61"/>
				<rect x="169.67" y="177.75" class="st3" width="11.61" height="11.61"/>
				<rect x="185.29" y="177.75" class="st3" width="11.61" height="11.61"/>
				<rect x="200.92" y="177.75" class="st3" width="11.61" height="11.61"/>
				<rect x="216.54" y="177.75" class="st3" width="11.61" height="11.61"/>
				<rect x="232.17" y="177.75" class="st3" width="11.61" height="11.61"/>
				<rect x="154.05" y="193.37" class="st3" width="11.61" height="11.61"/>
				<rect x="169.67" y="193.37" class="st3" width="11.61" height="11.61"/>
				<rect x="185.29" y="193.37" class="st3" width="11.61" height="11.61"/>
				<rect x="200.92" y="193.37" class="st3" width="11.61" height="11.61"/>
				<rect x="216.54" y="193.37" class="st3" width="11.61" height="11.61"/>
				<rect x="232.17" y="193.37" class="st3" width="11.61" height="11.61"/>
				<g>
					<path class="st33" d="M231.12,193.21c-2.36,3.48-5.02,6.76-7.55,10.14c-0.59,0.78-1.82,0.88-2.62,0.46
						c-2.19-1.13-3.43-3.72-5-5.31c-1.37-1.75,1.03-2.13,2.2-1.3c1.49,1.06,2.53,2.58,3.88,3.75c2.37-2.74,5.22-5.2,7.23-8.18
						C230.09,191.54,232.29,191.49,231.12,193.21z"/>
				</g>
				<path class="st34" d="M162.92,144.66c0,1.77-1.44,3.21-3.21,3.21l0,0c-1.77,0-3.21-1.44-3.21-3.21v-11.94
					c0-1.77,1.44-3.21,3.21-3.21l0,0c1.78,0,3.21,1.44,3.21,3.21V144.66z"/>
				<path class="st34" d="M201.39,144.66c0,1.77-1.44,3.21-3.21,3.21l0,0c-1.78,0-3.21-1.44-3.21-3.21v-11.94
					c0-1.77,1.44-3.21,3.21-3.21l0,0c1.77,0,3.21,1.44,3.21,3.21V144.66z"/>
				<path class="st34" d="M239.87,144.66c0,1.77-1.44,3.21-3.21,3.21l0,0c-1.77,0-3.21-1.44-3.21-3.21v-11.94
					c0-1.77,1.44-3.21,3.21-3.21l0,0c1.77,0,3.21,1.44,3.21,3.21V144.66z"/>
			</g>
			<g>
				
					<rect x="143.87" y="202.57" transform="matrix(0.7044 -0.7098 0.7098 0.7044 -128.5537 174.0138)" class="st119" width="1.56" height="77.57"/>
				<polygon class="st120" points="194.83,245.79 172.76,268.07 117.63,213.5 139.7,191.21 151.39,202.78 159.59,210.9 
					165.03,216.29 165.04,216.3 169.66,220.87 183.79,234.86 				"/>
				<path class="st162" d="M140.15,213.73c1.62-1.64,4.24-1.67,5.85-0.08c1.61,1.59,1.6,4.21-0.03,5.84
					c-1.62,1.64-4.24,1.68-5.84,0.09C138.51,217.98,138.52,215.37,140.15,213.73z"/>
				<path class="st162" d="M167.1,240.41c1.62-1.64,4.24-1.67,5.84-0.09c1.61,1.59,1.6,4.21-0.02,5.85
					c-1.62,1.64-4.24,1.67-5.85,0.08C165.47,244.66,165.48,242.05,167.1,240.41z"/>
				<path class="st162" d="M121.37,214.08l50.7,50.19c0.17,0.01,0.34,0,0.51-0.03l18.4-18.59c0.02-0.18,0.03-0.36,0.02-0.52
					l-50.69-50.17c-0.17-0.01-0.35,0-0.53,0.03l-18.4,18.58C121.37,213.74,121.37,213.92,121.37,214.08z M136.81,202.16
					c1.54,1.52,4.14,1.38,5.83-0.32l41.45,41.03c-1.68,1.7-1.8,4.32-0.26,5.84l-8.28,8.36c-1.54-1.52-4.15-1.38-5.84,0.32
					l-41.45-41.03c1.68-1.7,1.81-4.31,0.27-5.83L136.81,202.16z"/>
				<path class="st162" d="M162.86,223.9c-3.44-3.4-8.98-3.38-12.37,0.06c-3.4,3.44-3.38,8.98,0.06,12.38
					c3.44,3.4,8.98,3.37,12.38-0.06C166.33,232.84,166.3,227.31,162.86,223.9z M155.71,234.86c-0.46,0-0.96-0.15-1.48-0.47
					c-0.14-0.09-0.28-0.19-0.43-0.3l-0.71,0.73l-1.05-1.03l0.74-0.75c-0.26-0.35-0.43-0.7-0.53-1.05c-0.15-0.47-0.16-0.95-0.06-1.41
					c0.11-0.47,0.34-0.91,0.68-1.32l1.44,1.27c-0.35,0.48-0.5,0.92-0.45,1.34c0.04,0.31,0.16,0.57,0.41,0.78
					c0.32,0.3,0.69,0.44,1.09,0.4c0.21-0.02,0.41-0.13,0.61-0.33c0.29-0.3,0.4-0.76,0.33-1.41c-0.09-0.48-0.22-1.2-0.4-2.17
					c-0.14-0.81-0.17-1.45-0.1-1.92c0.08-0.52,0.31-0.95,0.66-1.31c0.63-0.65,1.41-0.85,2.32-0.6c0.37,0.1,0.73,0.28,1.08,0.55
					l0.72-0.73l1.04,1.03l-0.71,0.73c0.26,0.32,0.45,0.67,0.58,1c0.15,0.42,0.2,0.83,0.14,1.24c-0.06,0.41-0.22,0.79-0.49,1.13
					l-1.56-1.18c0.24-0.33,0.35-0.66,0.33-1.01c-0.03-0.24-0.15-0.49-0.41-0.74c-0.26-0.26-0.55-0.37-0.85-0.33
					c-0.26,0.03-0.48,0.15-0.68,0.35c-0.32,0.33-0.46,0.84-0.42,1.54c0.02,0.28,0.08,0.64,0.2,1.09c0.13,0.55,0.21,0.91,0.24,1.09
					c0.09,0.61,0.11,1.15,0.05,1.6c-0.03,0.21-0.06,0.39-0.11,0.55c-0.11,0.38-0.26,0.69-0.46,0.88
					C157,234.6,156.41,234.86,155.71,234.86z"/>
				<polygon class="st33" points="259.94,203.84 259.94,245.55 212.47,242.47 212.47,208.75 				"/>
				<path class="st149" d="M212.47,212.35v24.87l-28.68-2.36l-5.64-0.46l-3.22-0.26l-1.02-0.08l-0.05-0.01l-0.97-0.04l-4.18-0.23
					l-10-0.53l-6.92-0.36c-2.48-0.08-1.74-0.15-4.21-0.15c-3.1,0-7.3-0.46-9.54-3.01c-1.97-2.2-1.77-5.21,0.82-7.21
					c0.05-0.04,0.11-0.1,0.16-0.14c1.47-1.07,5.13-1.27,8.32-1.27c1.32,0,2.25,0.07,3.49,0.11c0.45,0.01,0.93,0.01,1.48,0.01
					l17.33-0.36l1.79-0.04l-1.16-1.09l-2.4-3.39l-0.03-0.05h-2.82l-13.65-13.52l2.09-2.19l1.08-1.12c0.27-0.23,0.57-0.43,0.88-0.6
					c0.07-0.04,0.12-0.07,0.18-0.08c0.08-0.04,0.16-0.07,0.24-0.12c0.02,0,0.03-0.01,0.04-0.01c0.15-0.07,0.31-0.12,0.47-0.16
					c0.16-0.05,0.32-0.09,0.49-0.12c0.15-0.03,0.31-0.05,0.47-0.07c0.12-0.01,0.24-0.03,0.37-0.03h0.96l18.32,0.47
					c1.29,0.03,9.38,2.13,11.52,3.35L212.47,212.35z"/>
				<polygon class="st163" points="167.87,216.29 165.03,216.29 159.59,210.9 164.14,210.97 				"/>
				<path class="st164" d="M194.83,245.78l-20.19,20.39l-34.41-34.8c2.24,1.12,5.08,1.36,7.35,1.36c2.47,0,1.73,0.07,4.21,0.15
					l6.92,0.36l10,0.53l4.18,0.23l0.97,0.04l0.05,0.01l1.02,0.08l3.22,0.26l5.64,0.46L194.83,245.78z"/>
				<path class="st165" d="M145.58,222.1c0.29,0.08,0.51,0.26,0.65,0.49c-0.98,0.45-2.13,1.17-2.44,2.22
					c-0.5,1.52,0.94,4.06,2.63,4.23c-0.17,0.97-0.47,1.17-1.73,1.17c-2.17,0-5.33-0.35-6.14-2.56c-0.16-0.56-0.22-0.92-0.25-1.17
					c-0.3-2.29,1.52-3.59,4.61-4.15C143.62,222.18,144.86,221.93,145.58,222.1z"/>
			</g>
		</g>
	</g>
</g>
</svg>
