<?xml version="1.0" encoding="utf-8"?>
<!-- Generator: Adobe Illustrator 23.0.0, SVG Export Plug-In . SVG Version: 6.00 Build 0)  -->
<svg version="1.1" id="Capa_1" xmlns="http://www.w3.org/2000/svg" xmlns:xlink="http://www.w3.org/1999/xlink" x="0px" y="0px"
	 viewBox="0 0 400 702" style="enable-background:new 0 0 400 702;" xml:space="preserve">
<style type="text/css">
	.st0{fill:#0085B0;}
	.st1{fill:#E0EF18;}
	.st2{fill:#CECECE;}
	.st3{fill:#FFFFFF;}
	.st4{fill:#F2F2F2;}
	.st5{fill:#EACCB0;}
	.st6{fill:#9B9B9B;}
	.st7{fill:#939393;}
	.st8{fill:#EFEFEF;}
	.st9{fill:#828282;}
	.st10{fill:#2C2A2D;}
	.st11{fill:#202021;}
	.st12{fill:#F2D4B6;}
	.st13{fill:#534D46;}
	.st14{fill:#E8D313;}
	.st15{fill:#2ACCFF;}
	.st16{fill:#4E4F4F;}
	.st17{fill:#003A94;}
	.st18{fill:#00D13C;}
	.st19{fill:#15682A;}
	.st20{fill:#D40000;}
	.st21{fill:#505050;}
	.st22{fill:#DFDFDF;}
	.st23{fill:none;}
	.st24{fill:#636363;}
	.st25{fill:#6C92D5;}
	.st26{fill:#22272F;}
	.st27{fill:#1B2538;}
	.st28{fill:#253452;}
	.st29{fill:#F9F9F9;}
	.st30{fill:#2D3543;}
	.st31{fill:#2A3D60;}
	.st32{fill:#587955;}
	.st33{fill:#CD7054;}
	.st34{fill:#F1CC4B;}
	.st35{fill:#ACACAC;}
	.st36{fill:#AAE528;}
	.st37{fill:#28CEBA;}
	.st38{fill:#DB143F;}
	.st39{fill:#53C2C9;}
	.st40{fill:#FFB412;}
	.st41{fill:#866A5E;}
	.st42{fill:#F7DDCB;}
	.st43{fill:#FFE6D4;}
	.st44{fill:#F5F5F5;}
	.st45{fill:#1A2830;}
	.st46{fill:#24353F;}
	.st47{fill:#132026;}
	.st48{fill:#F9FF03;}
	.st49{fill:#272728;}
	.st50{fill:#1E1D1E;}
	.st51{fill:#160423;}
	.st52{fill-rule:evenodd;clip-rule:evenodd;fill:#FFFFFF;}
	.st53{fill-rule:evenodd;clip-rule:evenodd;fill:#1996B8;}
	.st54{fill:#0C387D;}
	.st55{fill:#C69A81;}
	.st56{fill:#D1A385;}
	.st57{fill:#EAEAEA;}
	.st58{fill:#093E8C;}
	.st59{fill:#0B2A62;}
	.st60{fill:#D32A3B;}
	.st61{fill:#827C7D;}
	.st62{opacity:0.7;fill:#7F7F7F;}
	.st63{fill:#FDFDFD;}
	.st64{fill:#DAA449;}
	.st65{fill:#DD9225;}
	.st66{opacity:0.3;}
	.st67{fill:#425793;}
	.st68{opacity:0.8;}
	.st69{filter:url(#Adobe_OpacityMaskFilter);}
	.st70{opacity:0.15;mask:url(#SVGID_1_);}
	.st71{fill:#090B00;}
	.st72{opacity:0.1;}
	.st73{fill:#211915;}
	.st74{filter:url(#Adobe_OpacityMaskFilter_1_);}
	.st75{opacity:0.15;mask:url(#SVGID_2_);}
	.st76{fill:#AF3623;}
	.st77{filter:url(#Adobe_OpacityMaskFilter_2_);}
	.st78{opacity:0.15;mask:url(#SVGID_3_);}
	.st79{filter:url(#Adobe_OpacityMaskFilter_3_);}
	.st80{opacity:0.15;mask:url(#SVGID_4_);}
	.st81{fill:#456495;}
	.st82{filter:url(#Adobe_OpacityMaskFilter_4_);}
	.st83{opacity:0.15;mask:url(#SVGID_5_);}
	.st84{filter:url(#Adobe_OpacityMaskFilter_5_);}
	.st85{opacity:0.15;mask:url(#SVGID_6_);}
	.st86{fill:#76A9DA;}
	.st87{filter:url(#Adobe_OpacityMaskFilter_6_);}
	.st88{opacity:0.15;mask:url(#SVGID_7_);}
	.st89{filter:url(#Adobe_OpacityMaskFilter_7_);}
	.st90{opacity:0.15;mask:url(#SVGID_8_);}
	.st91{fill:#1F3642;}
	.st92{fill:#A9BDDA;}
	.st93{opacity:0.46;fill:#A6B4BC;}
	.st94{fill:#74C475;}
	.st95{fill:#221F21;}
	.st96{fill:#2D2D2D;}
	.st97{fill:#1C1B1A;}
	.st98{fill:#77181C;}
	.st99{fill:#262525;}
	.st100{fill:#11100F;}
	.st101{opacity:0.18;}
	.st102{opacity:0.38;}
	.st103{fill:#0A5B1F;}
	.st104{opacity:0.27;}
	.st105{opacity:0.48;}
	.st106{fill:#0A4654;}
	.st107{fill:#C2C6C6;}
	.st108{fill:#E5E5E5;stroke:#FFFFFF;stroke-miterlimit:10;}
	.st109{fill:#ACB4B5;}
	.st110{fill:#7F8384;}
	.st111{fill:#15772F;}
	.st112{fill:#F4F4F4;}
	.st113{fill:#53B8DB;}
	.st114{fill:#06EF42;}
	.st115{fill:#E7ED07;}
	.st116{fill:#CCCCCA;}
	.st117{fill:#EADF13;}
	.st118{fill:#C2C2C2;}
	.st119{fill:#85B681;}
	.st120{fill:#A1DC9B;}
	.st121{fill:#90C58B;}
	.st122{fill:#22241F;}
	.st123{opacity:0.5;}
	.st124{fill:#A2CADE;}
	.st125{fill:#E9E9E9;}
	.st126{fill:#D9D9D9;}
	.st127{fill:#CDCDCD;}
	.st128{opacity:0.34;fill:#F0F0F0;}
	.st129{fill:#5A5B5A;}
	.st130{fill:#FFE600;}
	.st131{fill:#DB1F59;}
	.st132{fill:#727272;}
	.st133{fill:#207235;}
	.st134{fill:#A3A3A3;}
	.st135{fill:#BCBCBC;}
	.st136{fill:#0A511C;}
	.st137{fill:#F9FF00;}
	.st138{fill:#D59F6D;}
	.st139{fill:#C0804A;}
	.st140{fill:#E6BA8A;}
	.st141{fill:#BE3ACC;}
	.st142{fill:#FFFFFF;stroke:#443F0C;stroke-width:9;stroke-miterlimit:10;}
	.st143{fill:none;stroke:#443F0C;stroke-width:9;stroke-miterlimit:10;}
	.st144{fill:#170623;}
	.st145{fill:#158231;}
	.st146{fill:#C89D76;}
	.st147{opacity:0.4;}
	.st148{fill:#ADADAD;}
	.st149{fill:#EDC3A6;}
	.st150{opacity:0.69;}
	.st151{fill:#E5D3D6;}
	.st152{opacity:0.44;}
	.st153{fill:#A5A5A5;}
	.st154{fill:#DDE5E4;}
	.st155{fill:#5C9169;}
	.st156{fill:#934215;}
	.st157{fill:#47413B;}
	.st158{fill:#601A1F;}
	.st159{fill:#044554;}
	.st160{opacity:0.7;}
	.st161{fill:#7F7F7F;}
	.st162{fill:#6B8A69;}
	.st163{opacity:0.24;fill:#848D90;}
	.st164{opacity:0.4;fill:#848D90;}
	.st165{fill:#F2D5D5;}
	.st166{fill:#485CC1;}
	.st167{fill:#C6CBE0;}
	.st168{fill:#8B909E;}
	.st169{fill:#53BC1B;}
	.st170{fill:#11565B;}
	.st171{fill:#67A06D;}
	.st172{fill:#FFEC00;}
	.st173{fill:#77A007;}
	.st174{fill:#E50731;}
	.st175{fill:#266472;}
	.st176{fill:#D4D4D4;}
	.st177{fill:#0E9932;}
	.st178{fill:#87DD24;}
	.st179{fill:#76A172;}
	.st180{fill:#62835F;}
	.st181{fill:#96D090;}
	.st182{fill:#D6D6D6;}
	.st183{fill:#606060;}
	.st184{fill:#494949;}
	.st185{fill:#29E55A;}
	.st186{fill:#2C703D;}
	.st187{fill:#DD0744;}
	.st188{fill:#EDEDED;}
	.st189{fill:#2A5936;}
	.st190{fill:#B9BBC1;}
	.st191{fill:#FFD79E;}
	.st192{fill:#FFE6C2;}
	.st193{fill:#2CBB55;}
	.st194{fill:#5C412D;}
	.st195{fill:#EC0000;}
	.st196{fill:#DD2626;}
	.st197{fill:#EA9334;}
	.st198{fill:#FCC232;}
	.st199{fill:#F9B234;}
	.st200{fill:#F7A037;}
	.st201{fill:#E0E0E0;}
</style>
<g>
	<g>
		<path class="st18" d="M9.5,209.36c0,22,13.29,27.86,29.54,13.03c0,0,156.99-143.3,353.09,26.97V55c0-22-18-40-40-40H49.5
			c-22,0-40,18-40,40V209.36z"/>
	</g>
	<g>
		<path class="st18" d="M391.66,647c0,22-18,40-40,40H49.98c-22,0-40-18-40-40v-46.27c0-22,18-40,40-40h301.68c22,0,40,18,40,40V647
			z"/>
	</g>
	<g>
		<path d="M90.45,368.48c-0.31-0.32-0.46-0.8-0.46-1.46v-19.24c0-0.66,0.15-1.14,0.46-1.46c0.31-0.32,0.83-0.48,1.58-0.48h8.13
			c3.4,0,5.88,0.67,7.43,2.02c1.55,1.35,2.33,3.38,2.33,6.1c0,1.63-0.28,3.01-0.83,4.13c-0.55,1.12-1.41,2-2.57,2.64l3.16,6.77
			c0.09,0.18,0.14,0.39,0.14,0.61c0,0.25-0.09,0.45-0.26,0.61c-0.17,0.16-0.39,0.24-0.66,0.24h-5.75c-0.36,0-0.65-0.05-0.87-0.15
			c-0.22-0.1-0.37-0.28-0.46-0.53l-2.52-6.32h-1.16v5.07c0,0.66-0.15,1.15-0.46,1.46c-0.31,0.32-0.85,0.48-1.62,0.48h-4.05
			C91.29,368.95,90.76,368.79,90.45,368.48z M99.45,356.27c0.73,0,1.3-0.19,1.72-0.58c0.42-0.39,0.63-0.96,0.63-1.73
			c0-0.79-0.21-1.38-0.63-1.77c-0.42-0.39-0.99-0.58-1.72-0.58h-2.31v4.66H99.45z"/>
		<path d="M112.08,368.48c-0.31-0.32-0.46-0.8-0.46-1.46v-19.24c0-0.66,0.15-1.14,0.46-1.46s0.83-0.48,1.58-0.48h14.08
			c0.73,0,1.22,0.15,1.48,0.46c0.26,0.31,0.39,0.8,0.39,1.48v1.9c0,0.68-0.13,1.17-0.39,1.48c-0.26,0.31-0.75,0.46-1.48,0.46h-7.96
			v2.92h4.9c0.72,0,1.22,0.15,1.48,0.46c0.26,0.31,0.39,0.8,0.39,1.48v1.84c0,0.68-0.13,1.17-0.39,1.48
			c-0.26,0.31-0.75,0.46-1.48,0.46h-4.9v2.92h7.92c0.72,0,1.22,0.15,1.48,0.46c0.26,0.31,0.39,0.8,0.39,1.48v1.9
			c0,0.68-0.13,1.17-0.39,1.48c-0.26,0.31-0.75,0.46-1.48,0.46h-14.04C112.91,368.95,112.38,368.79,112.08,368.48z"/>
		<path d="M130.45,368.24c0-0.2,0.06-0.45,0.17-0.75l8.47-20.37c0.2-0.48,0.44-0.81,0.7-1c0.26-0.19,0.63-0.29,1.11-0.29h3.71
			c0.48,0,0.84,0.1,1.1,0.29c0.26,0.19,0.49,0.53,0.7,1l8.43,20.37c0.11,0.29,0.17,0.54,0.17,0.75c0,0.48-0.25,0.71-0.75,0.71h-6.39
			c-0.7,0-1.15-0.31-1.33-0.92l-0.82-2.52h-6.02l-0.78,2.52c-0.18,0.61-0.62,0.92-1.33,0.92h-6.39
			C130.7,368.95,130.45,368.71,130.45,368.24z M144.05,360.15l-1.33-4.22l-1.33,4.22H144.05z"/>
		<path d="M157.16,368.48c-0.31-0.32-0.46-0.8-0.46-1.46v-19.24c0-0.66,0.15-1.14,0.46-1.46c0.31-0.32,0.83-0.48,1.58-0.48h4.05
			c0.77,0,1.31,0.15,1.62,0.46c0.3,0.31,0.46,0.8,0.46,1.48v15.4h7.92c0.72,0,1.22,0.15,1.48,0.46c0.26,0.31,0.39,0.8,0.39,1.48v1.9
			c0,0.68-0.13,1.17-0.39,1.48c-0.26,0.31-0.75,0.46-1.48,0.46h-14.04C157.99,368.95,157.47,368.79,157.16,368.48z"/>
		<path d="M176.13,368.48c-0.31-0.32-0.46-0.8-0.46-1.46v-19.24c0-0.66,0.15-1.14,0.46-1.46s0.83-0.48,1.58-0.48h4.05
			c0.77,0,1.31,0.15,1.62,0.46c0.31,0.31,0.46,0.8,0.46,1.48v19.24c0,0.66-0.15,1.15-0.46,1.46s-0.84,0.48-1.62,0.48h-4.05
			C176.96,368.95,176.44,368.79,176.13,368.48z"/>
		<path d="M185.87,368.56c-0.23-0.26-0.34-0.74-0.34-1.45c0-0.73,0.06-1.29,0.19-1.7s0.44-0.94,0.93-1.6l8.94-12.21h-7.85
			c-0.75,0-1.28-0.16-1.58-0.48c-0.31-0.32-0.46-0.8-0.46-1.46v-1.9c0-0.66,0.15-1.14,0.46-1.46c0.31-0.32,0.83-0.48,1.58-0.48h16.8
			c0.68,0,1.13,0.13,1.36,0.39c0.23,0.26,0.34,0.74,0.34,1.45c0,0.7-0.06,1.26-0.19,1.67s-0.44,0.95-0.93,1.63l-8.87,12.21h8.02
			c0.75,0,1.27,0.16,1.58,0.48c0.31,0.32,0.46,0.8,0.46,1.46v1.9c0,0.66-0.15,1.15-0.46,1.46c-0.31,0.32-0.83,0.48-1.58,0.48h-17.04
			C186.55,368.95,186.1,368.82,185.87,368.56z"/>
		<path d="M206.48,368.24c0-0.2,0.06-0.45,0.17-0.75l8.47-20.37c0.2-0.48,0.44-0.81,0.7-1c0.26-0.19,0.63-0.29,1.11-0.29h3.71
			c0.48,0,0.84,0.1,1.1,0.29c0.26,0.19,0.49,0.53,0.7,1l8.43,20.37c0.11,0.29,0.17,0.54,0.17,0.75c0,0.48-0.25,0.71-0.75,0.71h-6.39
			c-0.7,0-1.14-0.31-1.33-0.92l-0.82-2.52h-6.02l-0.78,2.52c-0.18,0.61-0.62,0.92-1.33,0.92h-6.39
			C206.73,368.95,206.48,368.71,206.48,368.24z M220.08,360.15l-1.33-4.22l-1.33,4.22H220.08z"/>
		<path d="M233.61,366.42c-2.29-2.03-3.43-5.04-3.43-9.03c0-4.01,1.11-7.03,3.32-9.04s5.37-3.03,9.47-3.03
			c1.86,0,3.51,0.18,4.96,0.54s2.66,0.87,3.64,1.53c0.27,0.2,0.41,0.43,0.41,0.68c0,0.2-0.1,0.49-0.31,0.85l-1.7,2.92
			c-0.18,0.32-0.4,0.48-0.65,0.48c-0.16,0-0.42-0.09-0.78-0.27c-0.63-0.32-1.3-0.57-1.99-0.75c-0.69-0.18-1.5-0.27-2.43-0.27
			c-1.88,0-3.32,0.54-4.32,1.63s-1.5,2.66-1.5,4.73c0,2.04,0.54,3.61,1.63,4.71s2.57,1.65,4.45,1.65c1.63,0,3.13-0.34,4.49-1.02
			c0.36-0.18,0.62-0.27,0.78-0.27c0.25,0,0.46,0.16,0.65,0.48l1.7,2.92c0.2,0.36,0.31,0.65,0.31,0.85c0,0.25-0.14,0.48-0.41,0.68
			c-0.97,0.66-2.2,1.17-3.67,1.53c-1.47,0.36-3.14,0.54-5,0.54C239.11,369.46,235.9,368.45,233.61,366.42z"/>
		<path d="M254.47,368.48c-0.31-0.32-0.46-0.8-0.46-1.46v-19.24c0-0.66,0.15-1.14,0.46-1.46s0.83-0.48,1.58-0.48h4.05
			c0.77,0,1.31,0.15,1.62,0.46c0.31,0.31,0.46,0.8,0.46,1.48v19.24c0,0.66-0.15,1.15-0.46,1.46s-0.84,0.48-1.62,0.48h-4.05
			C255.3,368.95,254.77,368.79,254.47,368.48z"/>
		<path d="M267,366.32c-2.09-2.1-3.13-5.07-3.13-8.92s1.04-6.83,3.13-8.93c2.08-2.1,5.15-3.14,9.18-3.14s7.09,1.05,9.18,3.14
			c2.08,2.1,3.13,5.07,3.13,8.93s-1.04,6.83-3.13,8.92c-2.09,2.1-5.15,3.14-9.18,3.14S269.08,368.41,267,366.32z M279.37,362.17
			c0.66-1.05,0.99-2.65,0.99-4.78c0-2.15-0.33-3.75-0.99-4.79c-0.66-1.04-1.72-1.56-3.2-1.56s-2.54,0.52-3.2,1.56
			c-0.66,1.04-0.99,2.64-0.99,4.79c0,2.13,0.33,3.72,0.99,4.78c0.66,1.05,1.72,1.58,3.2,1.58S278.71,363.22,279.37,362.17z
			 M272.57,342.98c0-0.18,0.04-0.38,0.1-0.58l1.43-3.94c0.18-0.52,0.4-0.87,0.65-1.05c0.25-0.18,0.71-0.27,1.39-0.27H281
			c0.48,0,0.85,0.08,1.12,0.25s0.41,0.41,0.41,0.73c0,0.27-0.09,0.56-0.27,0.85l-2.18,3.67c-0.32,0.54-0.62,0.89-0.92,1.05
			c-0.29,0.16-0.83,0.24-1.6,0.24h-3.64C273.03,343.93,272.57,343.61,272.57,342.98z"/>
		<path d="M290.64,368.48c-0.31-0.32-0.46-0.8-0.46-1.46v-19.28c0-0.66,0.15-1.14,0.46-1.45c0.31-0.31,0.84-0.46,1.62-0.46h3.23
			c0.48,0,0.84,0.06,1.11,0.19c0.26,0.13,0.52,0.37,0.76,0.73l6.15,9.15v-8.13c0-0.66,0.15-1.14,0.46-1.46s0.83-0.48,1.58-0.48h4.05
			c0.77,0,1.31,0.15,1.62,0.46c0.31,0.31,0.46,0.8,0.46,1.48v19.28c0,0.66-0.15,1.14-0.46,1.45s-0.84,0.46-1.62,0.46h-3.23
			c-0.48,0-0.85-0.06-1.11-0.19c-0.26-0.13-0.52-0.37-0.77-0.73l-6.15-9.15v8.16c0,0.66-0.15,1.14-0.46,1.45s-0.84,0.46-1.62,0.46
			h-4.05C291.48,368.95,290.95,368.79,290.64,368.48z"/>
		<path d="M83.35,409.28c-0.31-0.32-0.46-0.8-0.46-1.46v-19.24c0-0.66,0.15-1.14,0.46-1.46s0.83-0.48,1.58-0.48h7.82
			c8,0,12,3.85,12,11.56c0,3.81-1.03,6.69-3.08,8.64s-5.03,2.92-8.92,2.92h-7.82C84.18,409.75,83.65,409.59,83.35,409.28z
			 M93.05,403.97c1.27,0,2.18-0.42,2.74-1.26c0.55-0.84,0.83-2.35,0.83-4.52c0-2.18-0.28-3.68-0.83-4.52
			c-0.56-0.84-1.47-1.26-2.74-1.26h-2.01v11.56H93.05z"/>
		<path d="M106.91,409.28c-0.31-0.32-0.46-0.8-0.46-1.46v-19.24c0-0.66,0.15-1.14,0.46-1.46c0.31-0.32,0.83-0.48,1.58-0.48h14.08
			c0.72,0,1.22,0.15,1.48,0.46c0.26,0.31,0.39,0.8,0.39,1.48v1.9c0,0.68-0.13,1.17-0.39,1.48c-0.26,0.31-0.75,0.46-1.48,0.46h-7.96
			v2.92h4.9c0.72,0,1.22,0.15,1.48,0.46c0.26,0.31,0.39,0.8,0.39,1.48v1.84c0,0.68-0.13,1.17-0.39,1.48
			c-0.26,0.31-0.75,0.46-1.48,0.46h-4.9v2.92h7.92c0.73,0,1.22,0.15,1.48,0.46c0.26,0.31,0.39,0.8,0.39,1.48v1.9
			c0,0.68-0.13,1.17-0.39,1.48s-0.75,0.46-1.48,0.46h-14.04C107.74,409.75,107.21,409.59,106.91,409.28z"/>
		<path d="M138.92,407.22c-2.29-2.03-3.43-5.04-3.43-9.03c0-4.01,1.11-7.03,3.32-9.04s5.37-3.03,9.47-3.03
			c1.86,0,3.51,0.18,4.96,0.54s2.66,0.87,3.64,1.53c0.27,0.2,0.41,0.43,0.41,0.68c0,0.2-0.1,0.49-0.31,0.85l-1.7,2.92
			c-0.18,0.32-0.4,0.48-0.65,0.48c-0.16,0-0.42-0.09-0.78-0.27c-0.63-0.32-1.3-0.57-1.99-0.75c-0.69-0.18-1.5-0.27-2.43-0.27
			c-1.88,0-3.32,0.54-4.32,1.63s-1.5,2.66-1.5,4.73c0,2.04,0.54,3.61,1.63,4.71s2.57,1.65,4.46,1.65c1.63,0,3.13-0.34,4.49-1.02
			c0.36-0.18,0.62-0.27,0.78-0.27c0.25,0,0.46,0.16,0.65,0.48l1.7,2.92c0.2,0.36,0.31,0.65,0.31,0.85c0,0.25-0.14,0.48-0.41,0.68
			c-0.97,0.66-2.2,1.17-3.67,1.53c-1.47,0.36-3.14,0.54-5,0.54C144.42,410.26,141.21,409.25,138.92,407.22z"/>
		<path d="M157.79,409.04c0-0.2,0.06-0.45,0.17-0.75l8.47-20.37c0.2-0.48,0.44-0.81,0.7-1c0.26-0.19,0.63-0.29,1.11-0.29h3.71
			c0.48,0,0.84,0.1,1.1,0.29c0.26,0.19,0.49,0.53,0.7,1l8.43,20.37c0.11,0.29,0.17,0.54,0.17,0.75c0,0.48-0.25,0.71-0.75,0.71h-6.39
			c-0.7,0-1.15-0.31-1.33-0.92l-0.82-2.52h-6.02l-0.78,2.52c-0.18,0.61-0.62,0.92-1.33,0.92h-6.39
			C158.04,409.75,157.79,409.51,157.79,409.04z M171.39,400.95l-1.33-4.22l-1.33,4.22H171.39z"/>
		<path d="M183.65,409.28c-0.31-0.32-0.46-0.8-0.46-1.46v-19.28c0-0.66,0.15-1.14,0.46-1.45c0.31-0.31,0.84-0.46,1.62-0.46h3.91
			c0.5,0,0.9,0.06,1.19,0.19c0.29,0.12,0.52,0.37,0.68,0.73l3.98,9.96l3.98-9.96c0.16-0.36,0.39-0.61,0.68-0.73
			c0.29-0.13,0.69-0.19,1.19-0.19h3.91c0.77,0,1.31,0.15,1.62,0.46c0.31,0.31,0.46,0.79,0.46,1.45v19.28c0,0.66-0.15,1.15-0.46,1.46
			c-0.31,0.32-0.83,0.48-1.58,0.48h-3.26c-0.75,0-1.28-0.16-1.6-0.48c-0.32-0.32-0.48-0.8-0.48-1.46v-9.28l-2.01,4.62
			c-0.27,0.66-0.57,1.13-0.88,1.41s-0.84,0.42-1.56,0.42c-0.73,0-1.25-0.14-1.56-0.42c-0.32-0.28-0.61-0.75-0.88-1.41l-2.01-4.62
			v9.28c0,0.66-0.15,1.15-0.46,1.46c-0.3,0.32-0.84,0.48-1.61,0.48h-3.26C184.48,409.75,183.95,409.59,183.65,409.28z"/>
		<path d="M209.69,409.28c-0.31-0.32-0.46-0.8-0.46-1.46v-19.24c0-0.66,0.15-1.14,0.46-1.46c0.31-0.32,0.83-0.48,1.58-0.48h8.13
			c3.4,0,5.88,0.67,7.43,2.02s2.33,3.38,2.33,6.1s-0.78,4.75-2.33,6.09c-1.55,1.34-4.02,2.01-7.39,2.01h-2.04v4.96
			c0,0.66-0.15,1.15-0.46,1.46c-0.31,0.32-0.84,0.48-1.62,0.48h-4.04C210.52,409.75,210,409.59,209.69,409.28z M218.68,397.07
			c0.72,0,1.3-0.19,1.72-0.58c0.42-0.39,0.63-0.96,0.63-1.73c0-0.79-0.21-1.38-0.63-1.77c-0.42-0.39-0.99-0.58-1.72-0.58h-2.31v4.66
			H218.68z"/>
		<path d="M226.09,409.04c0-0.2,0.06-0.45,0.17-0.75l8.46-20.37c0.21-0.48,0.44-0.81,0.7-1c0.26-0.19,0.63-0.29,1.11-0.29h3.71
			c0.48,0,0.84,0.1,1.11,0.29c0.26,0.19,0.49,0.53,0.7,1l8.43,20.37c0.11,0.29,0.17,0.54,0.17,0.75c0,0.48-0.25,0.71-0.75,0.71
			h-6.39c-0.7,0-1.15-0.31-1.33-0.92l-0.82-2.52h-6.02l-0.78,2.52c-0.18,0.61-0.62,0.92-1.33,0.92h-6.39
			C226.34,409.75,226.09,409.51,226.09,409.04z M239.7,400.95l-1.33-4.22l-1.33,4.22H239.7z"/>
		<path d="M252.8,409.28c-0.31-0.32-0.46-0.8-0.46-1.46v-19.28c0-0.66,0.15-1.14,0.46-1.45s0.84-0.46,1.62-0.46h3.23
			c0.48,0,0.84,0.06,1.11,0.19c0.26,0.12,0.52,0.37,0.76,0.73l6.15,9.15v-8.13c0-0.66,0.15-1.14,0.46-1.46s0.83-0.48,1.58-0.48h4.05
			c0.77,0,1.31,0.15,1.62,0.46s0.46,0.8,0.46,1.48v19.28c0,0.66-0.15,1.14-0.46,1.45s-0.84,0.46-1.62,0.46h-3.23
			c-0.48,0-0.85-0.06-1.11-0.19c-0.26-0.13-0.52-0.37-0.77-0.73l-6.15-9.15v8.16c0,0.66-0.15,1.14-0.46,1.45s-0.84,0.46-1.62,0.46
			h-4.05C253.63,409.75,253.11,409.59,252.8,409.28z M264.79,384.75c-0.41-0.15-0.91-0.38-1.5-0.7c-0.57-0.27-1-0.46-1.31-0.58
			c-0.31-0.11-0.63-0.17-0.97-0.17c-0.39,0-0.72,0.08-1,0.24c-0.28,0.16-0.59,0.45-0.94,0.88c-0.23,0.29-0.51,0.44-0.85,0.44
			c-0.43,0-1.12-0.35-2.07-1.05c-0.48-0.36-0.82-0.66-1.02-0.9c-0.2-0.24-0.31-0.48-0.31-0.73c0-0.32,0.17-0.71,0.51-1.19
			c0.77-1.11,1.49-1.91,2.16-2.4c0.67-0.49,1.49-0.73,2.46-0.73c0.68,0,1.27,0.09,1.77,0.27c0.5,0.18,1.05,0.43,1.67,0.75
			c0.45,0.23,0.81,0.39,1.07,0.49c0.26,0.1,0.53,0.15,0.8,0.15c0.36,0,0.66-0.08,0.9-0.24c0.24-0.16,0.54-0.45,0.9-0.88
			c0.23-0.29,0.51-0.44,0.85-0.44c0.43,0,1.12,0.35,2.07,1.05c0.45,0.32,0.78,0.61,0.97,0.87c0.19,0.26,0.29,0.53,0.29,0.8
			c0,0.29-0.17,0.7-0.51,1.22c-0.75,1.11-1.46,1.9-2.13,2.36c-0.67,0.46-1.5,0.7-2.5,0.7C265.64,384.97,265.2,384.89,264.79,384.75z
			"/>
		<path d="M275.53,409.04c0-0.2,0.06-0.45,0.17-0.75l8.47-20.37c0.2-0.48,0.44-0.81,0.7-1c0.26-0.19,0.63-0.29,1.11-0.29h3.71
			c0.48,0,0.84,0.1,1.1,0.29c0.26,0.19,0.49,0.53,0.7,1l8.43,20.37c0.11,0.29,0.17,0.54,0.17,0.75c0,0.48-0.25,0.71-0.75,0.71h-6.39
			c-0.7,0-1.15-0.31-1.33-0.92l-0.82-2.52h-6.02l-0.78,2.52c-0.18,0.61-0.62,0.92-1.33,0.92h-6.39
			C275.78,409.75,275.53,409.51,275.53,409.04z M289.13,400.95l-1.33-4.22l-1.33,4.22H289.13z"/>
		<path d="M304.57,409.62c-1.77-0.43-3.2-1.03-4.28-1.8c-0.45-0.32-0.68-0.62-0.68-0.92c0-0.2,0.08-0.42,0.24-0.65l1.97-3.09
			c0.21-0.29,0.41-0.44,0.61-0.44c0.18,0,0.4,0.08,0.65,0.24c0.82,0.5,1.75,0.89,2.8,1.17s2.08,0.42,3.08,0.42
			c0.84,0,1.45-0.11,1.82-0.34c0.38-0.23,0.56-0.58,0.56-1.05c0-0.52-0.25-0.94-0.75-1.26s-1.36-0.71-2.58-1.19
			c-2.29-0.88-4.09-1.89-5.41-3.01c-1.32-1.12-1.97-2.61-1.97-4.47c0-2.36,0.82-4.13,2.46-5.32c1.64-1.19,3.86-1.79,6.65-1.79
			c1.95,0,3.61,0.17,4.98,0.51c1.37,0.34,2.57,0.87,3.59,1.6c0.45,0.32,0.68,0.62,0.68,0.92c0,0.2-0.08,0.42-0.24,0.65l-1.97,3.09
			c-0.21,0.32-0.41,0.48-0.61,0.48c-0.14,0-0.35-0.09-0.65-0.27c-0.54-0.36-1.19-0.66-1.94-0.9c-0.75-0.24-1.55-0.36-2.41-0.36
			c-0.79,0-1.39,0.11-1.8,0.34s-0.61,0.59-0.61,1.09c0,0.41,0.14,0.75,0.42,1.02c0.28,0.27,0.64,0.5,1.07,0.7
			c0.43,0.19,1.18,0.5,2.24,0.94c1.7,0.68,3.04,1.33,4.01,1.96s1.71,1.37,2.21,2.24c0.5,0.87,0.75,1.98,0.75,3.31
			c0,2.04-0.77,3.69-2.29,4.95s-3.81,1.89-6.85,1.89C308.25,410.26,306.33,410.05,304.57,409.62z"/>
		<path d="M60.77,450.08c-0.31-0.32-0.46-0.8-0.46-1.46v-19.24c0-0.66,0.15-1.14,0.46-1.46c0.31-0.32,0.83-0.48,1.58-0.48h7.82
			c8,0,12,3.85,12,11.56c0,3.81-1.03,6.69-3.08,8.64c-2.05,1.95-5.03,2.92-8.93,2.92h-7.82C61.6,450.55,61.08,450.39,60.77,450.08z
			 M70.48,444.77c1.27,0,2.18-0.42,2.74-1.26c0.55-0.84,0.83-2.35,0.83-4.52c0-2.18-0.28-3.68-0.83-4.52
			c-0.56-0.84-1.47-1.26-2.74-1.26h-2.01v11.56H70.48z"/>
		<path d="M84.33,450.08c-0.31-0.32-0.46-0.8-0.46-1.46v-19.24c0-0.66,0.15-1.14,0.46-1.46c0.31-0.32,0.83-0.48,1.58-0.48h14.08
			c0.72,0,1.22,0.15,1.48,0.46c0.26,0.31,0.39,0.8,0.39,1.48v1.9c0,0.68-0.13,1.17-0.39,1.48c-0.26,0.31-0.75,0.46-1.48,0.46h-7.96
			v2.92h4.9c0.72,0,1.22,0.15,1.48,0.46c0.26,0.31,0.39,0.8,0.39,1.48v1.84c0,0.68-0.13,1.17-0.39,1.48
			c-0.26,0.31-0.75,0.46-1.48,0.46h-4.9v2.92h7.92c0.73,0,1.22,0.15,1.48,0.46c0.26,0.31,0.39,0.8,0.39,1.48v1.9
			c0,0.68-0.13,1.17-0.39,1.48s-0.75,0.46-1.48,0.46H85.91C85.17,450.55,84.64,450.39,84.33,450.08z"/>
		<path d="M114.05,450.08c-0.31-0.32-0.46-0.8-0.46-1.46v-19.24c0-0.66,0.15-1.14,0.46-1.46s0.83-0.48,1.58-0.48h14.08
			c0.72,0,1.22,0.15,1.48,0.46s0.39,0.8,0.39,1.48v1.9c0,0.68-0.13,1.17-0.39,1.48c-0.26,0.31-0.75,0.46-1.48,0.46h-7.96v2.89h4.9
			c0.73,0,1.22,0.15,1.48,0.46c0.26,0.31,0.39,0.8,0.39,1.48v1.9c0,0.68-0.13,1.17-0.39,1.48s-0.75,0.46-1.48,0.46h-4.9v6.73
			c0,0.66-0.15,1.15-0.46,1.46s-0.84,0.48-1.62,0.48h-4.05C114.88,450.55,114.35,450.39,114.05,450.08z"/>
		<path d="M133.22,450.08c-0.31-0.32-0.46-0.8-0.46-1.46v-19.24c0-0.66,0.15-1.14,0.46-1.46s0.83-0.48,1.58-0.48h4.05
			c0.77,0,1.31,0.15,1.62,0.46s0.46,0.8,0.46,1.48v19.24c0,0.66-0.15,1.15-0.46,1.46s-0.84,0.48-1.62,0.48h-4.05
			C134.06,450.55,133.53,450.39,133.22,450.08z"/>
		<path d="M143.76,450.08c-0.31-0.32-0.46-0.8-0.46-1.46v-19.24c0-0.66,0.15-1.14,0.46-1.46s0.83-0.48,1.58-0.48h7.82
			c8,0,12,3.85,12,11.56c0,3.81-1.03,6.69-3.08,8.64c-2.05,1.95-5.03,2.92-8.93,2.92h-7.82
			C144.6,450.55,144.07,450.39,143.76,450.08z M153.47,444.77c1.27,0,2.18-0.42,2.74-1.26c0.56-0.84,0.83-2.35,0.83-4.52
			c0-2.18-0.28-3.68-0.83-4.52c-0.55-0.84-1.47-1.26-2.74-1.26h-2.01v11.56H153.47z"/>
		<path d="M167.33,450.08c-0.31-0.32-0.46-0.8-0.46-1.46v-19.24c0-0.66,0.15-1.14,0.46-1.46c0.31-0.32,0.83-0.48,1.58-0.48h14.08
			c0.73,0,1.22,0.15,1.48,0.46s0.39,0.8,0.39,1.48v1.9c0,0.68-0.13,1.17-0.39,1.48c-0.26,0.31-0.75,0.46-1.48,0.46h-7.96v2.92h4.9
			c0.73,0,1.22,0.15,1.48,0.46c0.26,0.31,0.39,0.8,0.39,1.48v1.84c0,0.68-0.13,1.17-0.39,1.48c-0.26,0.31-0.75,0.46-1.48,0.46h-4.9
			v2.92h7.92c0.72,0,1.22,0.15,1.48,0.46c0.26,0.31,0.39,0.8,0.39,1.48v1.9c0,0.68-0.13,1.17-0.39,1.48
			c-0.26,0.31-0.75,0.46-1.48,0.46h-14.04C168.16,450.55,167.63,450.39,167.33,450.08z"/>
		<path d="M186.84,450.08c-0.31-0.32-0.46-0.8-0.46-1.46v-19.24c0-0.66,0.15-1.14,0.46-1.46c0.31-0.32,0.83-0.48,1.58-0.48h4.05
			c0.77,0,1.31,0.15,1.62,0.46c0.3,0.31,0.46,0.8,0.46,1.48v15.4h7.92c0.72,0,1.22,0.15,1.48,0.46c0.26,0.31,0.39,0.8,0.39,1.48v1.9
			c0,0.68-0.13,1.17-0.39,1.48c-0.26,0.31-0.75,0.46-1.48,0.46h-14.04C187.67,450.55,187.15,450.39,186.84,450.08z"/>
		<path d="M205.81,450.08c-0.31-0.32-0.46-0.8-0.46-1.46v-19.24c0-0.66,0.15-1.14,0.46-1.46c0.31-0.32,0.83-0.48,1.58-0.48h4.04
			c0.77,0,1.31,0.15,1.62,0.46c0.31,0.31,0.46,0.8,0.46,1.48v19.24c0,0.66-0.15,1.15-0.46,1.46c-0.31,0.32-0.84,0.48-1.62,0.48
			h-4.04C206.65,450.55,206.12,450.39,205.81,450.08z"/>
		<path d="M215.55,450.16c-0.23-0.26-0.34-0.74-0.34-1.45c0-0.73,0.06-1.29,0.19-1.7c0.13-0.41,0.44-0.94,0.94-1.6l8.94-12.21h-7.85
			c-0.75,0-1.28-0.16-1.58-0.48c-0.31-0.32-0.46-0.8-0.46-1.46v-1.9c0-0.66,0.15-1.14,0.46-1.46c0.3-0.32,0.83-0.48,1.58-0.48h16.8
			c0.68,0,1.13,0.13,1.36,0.39s0.34,0.74,0.34,1.44c0,0.7-0.06,1.26-0.19,1.67c-0.12,0.41-0.44,0.95-0.93,1.63l-8.88,12.21h8.02
			c0.75,0,1.27,0.16,1.58,0.48c0.31,0.32,0.46,0.8,0.46,1.46v1.9c0,0.66-0.15,1.15-0.46,1.46c-0.31,0.32-0.83,0.48-1.58,0.48h-17.03
			C216.23,450.55,215.78,450.42,215.55,450.16z"/>
		<path d="M236.16,449.84c0-0.2,0.06-0.45,0.17-0.75l8.47-20.37c0.2-0.48,0.44-0.81,0.7-1c0.26-0.19,0.63-0.29,1.11-0.29h3.71
			c0.48,0,0.84,0.1,1.1,0.29c0.26,0.19,0.49,0.53,0.7,1l8.43,20.37c0.11,0.29,0.17,0.54,0.17,0.75c0,0.48-0.25,0.71-0.75,0.71h-6.39
			c-0.7,0-1.15-0.31-1.33-0.92l-0.82-2.52h-6.02l-0.78,2.52c-0.18,0.61-0.62,0.92-1.33,0.92h-6.39
			C236.41,450.55,236.16,450.31,236.16,449.84z M249.76,441.75l-1.33-4.22l-1.33,4.22H249.76z"/>
		<path d="M263.29,448.02c-2.29-2.03-3.43-5.04-3.43-9.03c0-4.01,1.11-7.03,3.32-9.04c2.21-2.02,5.37-3.03,9.47-3.03
			c1.86,0,3.51,0.18,4.96,0.54c1.45,0.36,2.66,0.87,3.64,1.53c0.27,0.2,0.41,0.43,0.41,0.68c0,0.2-0.1,0.49-0.31,0.85l-1.7,2.92
			c-0.18,0.32-0.4,0.48-0.65,0.48c-0.16,0-0.42-0.09-0.78-0.27c-0.63-0.32-1.3-0.57-1.99-0.75c-0.69-0.18-1.5-0.27-2.43-0.27
			c-1.88,0-3.32,0.54-4.32,1.63c-1,1.09-1.5,2.66-1.5,4.73c0,2.04,0.54,3.61,1.63,4.71s2.57,1.65,4.45,1.65
			c1.63,0,3.13-0.34,4.49-1.02c0.36-0.18,0.62-0.27,0.78-0.27c0.25,0,0.46,0.16,0.65,0.48l1.7,2.92c0.21,0.36,0.31,0.65,0.31,0.85
			c0,0.25-0.14,0.48-0.41,0.68c-0.97,0.66-2.2,1.17-3.67,1.53c-1.47,0.36-3.14,0.54-5,0.54
			C268.79,451.06,265.58,450.05,263.29,448.02z"/>
		<path d="M284.15,450.08c-0.31-0.32-0.46-0.8-0.46-1.46v-19.24c0-0.66,0.15-1.14,0.46-1.46c0.31-0.32,0.83-0.48,1.58-0.48h4.04
			c0.77,0,1.31,0.15,1.62,0.46c0.31,0.31,0.46,0.8,0.46,1.48v19.24c0,0.66-0.15,1.15-0.46,1.46c-0.31,0.32-0.84,0.48-1.62,0.48
			h-4.04C284.98,450.55,284.46,450.39,284.15,450.08z"/>
		<path d="M296.68,447.92c-2.09-2.1-3.13-5.07-3.13-8.92s1.04-6.83,3.13-8.93c2.09-2.1,5.15-3.14,9.18-3.14
			c4.04,0,7.09,1.05,9.18,3.14c2.08,2.1,3.13,5.07,3.13,8.93s-1.04,6.83-3.13,8.92c-2.09,2.1-5.15,3.14-9.18,3.14
			C301.82,451.06,298.76,450.01,296.68,447.92z M309.05,443.77c0.66-1.05,0.99-2.65,0.99-4.78c0-2.15-0.33-3.75-0.99-4.79
			c-0.66-1.04-1.72-1.56-3.2-1.56c-1.47,0-2.54,0.52-3.2,1.56c-0.66,1.04-0.99,2.64-0.99,4.79c0,2.13,0.33,3.72,0.99,4.78
			c0.66,1.05,1.72,1.58,3.2,1.58C307.33,445.35,308.4,444.82,309.05,443.77z M302.25,424.58c0-0.18,0.03-0.37,0.1-0.58l1.43-3.94
			c0.18-0.52,0.4-0.87,0.65-1.05s0.71-0.27,1.39-0.27h4.86c0.48,0,0.85,0.08,1.12,0.25c0.27,0.17,0.41,0.41,0.41,0.73
			c0,0.27-0.09,0.56-0.27,0.85l-2.18,3.67c-0.32,0.54-0.62,0.9-0.92,1.05s-0.83,0.24-1.6,0.24h-3.64
			C302.71,425.53,302.25,425.21,302.25,424.58z"/>
		<path d="M320.33,450.08c-0.31-0.32-0.46-0.8-0.46-1.46v-19.28c0-0.66,0.15-1.14,0.46-1.45s0.84-0.46,1.62-0.46h3.23
			c0.48,0,0.84,0.06,1.11,0.19c0.26,0.12,0.52,0.37,0.76,0.73l6.15,9.15v-8.13c0-0.66,0.15-1.14,0.46-1.46s0.83-0.48,1.58-0.48h4.05
			c0.77,0,1.31,0.15,1.62,0.46s0.46,0.8,0.46,1.48v19.28c0,0.66-0.15,1.14-0.46,1.45s-0.84,0.46-1.62,0.46h-3.23
			c-0.48,0-0.85-0.06-1.11-0.19c-0.26-0.13-0.52-0.37-0.77-0.73l-6.15-9.15v8.16c0,0.66-0.15,1.14-0.46,1.45s-0.84,0.46-1.62,0.46
			h-4.05C321.16,450.55,320.63,450.39,320.33,450.08z"/>
		<path d="M44.08,492.34c-1.21-1.45-2.15-3.2-2.82-5.24c-0.67-2.04-1-4.2-1-6.49c0-2.29,0.33-4.45,1-6.49
			c0.67-2.04,1.61-3.79,2.82-5.24c1.21-1.45,2.59-2.45,4.13-2.99c1.04-0.36,1.87-0.54,2.48-0.54c0.63,0,1.11,0.19,1.43,0.56
			s0.48,0.98,0.48,1.82c0,0.7-0.02,1.22-0.07,1.55c-0.05,0.33-0.16,0.62-0.34,0.87s-0.49,0.57-0.92,0.95
			c-1.11,0.97-1.87,2.2-2.28,3.67s-0.61,3.42-0.61,5.85c0,2.43,0.2,4.38,0.61,5.85c0.41,1.47,1.17,2.7,2.28,3.67
			c0.43,0.39,0.74,0.7,0.92,0.95c0.18,0.25,0.29,0.54,0.34,0.87c0.04,0.33,0.07,0.84,0.07,1.55c0,0.84-0.16,1.45-0.48,1.82
			s-0.79,0.56-1.43,0.56c-0.61,0-1.44-0.18-2.48-0.54C46.67,494.79,45.29,493.79,44.08,492.34z"/>
		<path d="M54.41,490.88c-0.31-0.32-0.46-0.8-0.46-1.46v-19.24c0-0.66,0.15-1.14,0.46-1.46s0.83-0.48,1.58-0.48h14.08
			c0.72,0,1.22,0.15,1.48,0.46s0.39,0.8,0.39,1.48v1.9c0,0.68-0.13,1.17-0.39,1.48c-0.26,0.31-0.75,0.46-1.48,0.46h-7.96v2.92h4.9
			c0.73,0,1.22,0.15,1.48,0.46s0.39,0.8,0.39,1.48v1.84c0,0.68-0.13,1.17-0.39,1.48s-0.75,0.46-1.48,0.46h-4.9v2.92h7.92
			c0.73,0,1.22,0.15,1.48,0.46c0.26,0.31,0.39,0.8,0.39,1.48v1.9c0,0.68-0.13,1.17-0.39,1.48c-0.26,0.31-0.75,0.46-1.48,0.46H55.99
			C55.25,491.35,54.72,491.19,54.41,490.88z"/>
		<path d="M72.01,489.62c-0.27-0.2-0.41-0.43-0.41-0.68c0-0.2,0.1-0.49,0.31-0.85l1.7-2.92c0.23-0.36,0.46-0.54,0.71-0.54
			c0.16,0,0.39,0.1,0.68,0.31c1.09,0.82,2.13,1.22,3.13,1.22c1.54,0,2.31-0.74,2.31-2.21v-13.77c0-0.66,0.15-1.14,0.46-1.46
			c0.31-0.32,0.83-0.48,1.58-0.48h4.05c0.77,0,1.31,0.15,1.62,0.46c0.31,0.31,0.46,0.8,0.46,1.48v13.84c0,2.4-0.75,4.31-2.24,5.73
			c-1.5,1.42-3.65,2.13-6.46,2.13C76.68,491.86,74.05,491.11,72.01,489.62z"/>
		<path d="M91.27,490.88c-0.31-0.32-0.46-0.8-0.46-1.46v-19.28c0-0.66,0.15-1.14,0.46-1.45s0.84-0.46,1.62-0.46h3.91
			c0.5,0,0.9,0.06,1.19,0.19c0.29,0.12,0.52,0.37,0.68,0.73l3.98,9.96l3.98-9.96c0.16-0.36,0.39-0.61,0.68-0.73
			c0.29-0.13,0.69-0.19,1.19-0.19h3.91c0.77,0,1.31,0.15,1.62,0.46s0.46,0.79,0.46,1.45v19.28c0,0.66-0.15,1.15-0.46,1.46
			s-0.83,0.48-1.58,0.48h-3.26c-0.75,0-1.28-0.16-1.6-0.48c-0.32-0.32-0.48-0.8-0.48-1.46v-9.28l-2.01,4.62
			c-0.27,0.66-0.57,1.13-0.88,1.41c-0.32,0.28-0.84,0.42-1.56,0.42s-1.25-0.14-1.56-0.42c-0.32-0.28-0.61-0.75-0.88-1.41l-2.01-4.62
			v9.28c0,0.66-0.15,1.15-0.46,1.46c-0.31,0.32-0.84,0.48-1.62,0.48h-3.26C92.1,491.35,91.57,491.19,91.27,490.88z"/>
		<path d="M116.73,490.72c-0.38-0.42-0.56-0.91-0.56-1.48v-0.85c0-0.61,0.19-1.12,0.56-1.51c0.37-0.4,0.86-0.6,1.45-0.6h0.88
			c0.59,0,1.07,0.2,1.45,0.6c0.38,0.4,0.56,0.9,0.56,1.51v0.85c0,0.59-0.19,1.09-0.56,1.5c-0.37,0.41-0.86,0.61-1.45,0.61h-0.88
			C117.59,491.35,117.11,491.14,116.73,490.72z"/>
		<path d="M133.43,490.88c-0.31-0.32-0.46-0.8-0.46-1.46v-19.24c0-0.66,0.15-1.14,0.46-1.46s0.83-0.48,1.58-0.48h14.08
			c0.73,0,1.22,0.15,1.48,0.46c0.26,0.31,0.39,0.8,0.39,1.48v1.9c0,0.68-0.13,1.17-0.39,1.48c-0.26,0.31-0.75,0.46-1.48,0.46h-7.96
			v2.89h4.9c0.72,0,1.22,0.15,1.48,0.46c0.26,0.31,0.39,0.8,0.39,1.48v1.9c0,0.68-0.13,1.17-0.39,1.48
			c-0.26,0.31-0.75,0.46-1.48,0.46h-4.9v6.73c0,0.66-0.15,1.15-0.46,1.46c-0.31,0.32-0.84,0.48-1.62,0.48h-4.05
			C134.26,491.35,133.73,491.19,133.43,490.88z"/>
		<path d="M152.6,490.88c-0.31-0.32-0.46-0.8-0.46-1.46v-19.24c0-0.66,0.15-1.14,0.46-1.46s0.83-0.48,1.58-0.48h4.05
			c0.77,0,1.31,0.15,1.62,0.46c0.31,0.31,0.46,0.8,0.46,1.48v19.24c0,0.66-0.15,1.15-0.46,1.46c-0.31,0.32-0.84,0.48-1.62,0.48
			h-4.05C153.44,491.35,152.91,491.19,152.6,490.88z"/>
		<path d="M163.14,490.88c-0.31-0.32-0.46-0.8-0.46-1.46v-19.24c0-0.66,0.15-1.14,0.46-1.46s0.83-0.48,1.58-0.48h7.82
			c8,0,12,3.85,12,11.56c0,3.81-1.03,6.69-3.08,8.64s-5.03,2.92-8.92,2.92h-7.82C163.98,491.35,163.45,491.19,163.14,490.88z
			 M172.85,485.57c1.27,0,2.18-0.42,2.74-1.26c0.55-0.84,0.83-2.35,0.83-4.52c0-2.18-0.28-3.68-0.83-4.52
			c-0.56-0.84-1.47-1.26-2.74-1.26h-2.01v11.56H172.85z"/>
		<path d="M186.71,490.88c-0.31-0.32-0.46-0.8-0.46-1.46v-19.24c0-0.66,0.15-1.14,0.46-1.46s0.83-0.48,1.58-0.48h14.08
			c0.73,0,1.22,0.15,1.48,0.46c0.26,0.31,0.39,0.8,0.39,1.48v1.9c0,0.68-0.13,1.17-0.39,1.48c-0.26,0.31-0.75,0.46-1.48,0.46h-7.96
			v2.92h4.9c0.72,0,1.22,0.15,1.48,0.46c0.26,0.31,0.39,0.8,0.39,1.48v1.84c0,0.68-0.13,1.17-0.39,1.48
			c-0.26,0.31-0.75,0.46-1.48,0.46h-4.9v2.92h7.92c0.72,0,1.22,0.15,1.48,0.46c0.26,0.31,0.39,0.8,0.39,1.48v1.9
			c0,0.68-0.13,1.17-0.39,1.48c-0.26,0.31-0.75,0.46-1.48,0.46h-14.04C187.54,491.35,187.01,491.19,186.71,490.88z"/>
		<path d="M206.22,490.88c-0.31-0.32-0.46-0.8-0.46-1.46v-19.24c0-0.66,0.15-1.14,0.46-1.46s0.83-0.48,1.58-0.48h4.05
			c0.77,0,1.31,0.15,1.62,0.46c0.31,0.31,0.46,0.8,0.46,1.48v15.4h7.92c0.72,0,1.22,0.15,1.48,0.46c0.26,0.31,0.39,0.8,0.39,1.48
			v1.9c0,0.68-0.13,1.17-0.39,1.48c-0.26,0.31-0.75,0.46-1.48,0.46H207.8C207.05,491.35,206.53,491.19,206.22,490.88z"/>
		<path d="M225.19,490.88c-0.31-0.32-0.46-0.8-0.46-1.46v-19.24c0-0.66,0.15-1.14,0.46-1.46c0.31-0.32,0.83-0.48,1.58-0.48h4.05
			c0.77,0,1.31,0.15,1.62,0.46c0.3,0.31,0.46,0.8,0.46,1.48v19.24c0,0.66-0.15,1.15-0.46,1.46c-0.31,0.32-0.85,0.48-1.62,0.48h-4.05
			C226.03,491.35,225.5,491.19,225.19,490.88z"/>
		<path d="M234.93,490.96c-0.23-0.26-0.34-0.74-0.34-1.45c0-0.73,0.06-1.29,0.19-1.7s0.44-0.94,0.93-1.6l8.94-12.21h-7.85
			c-0.75,0-1.28-0.16-1.58-0.48c-0.31-0.32-0.46-0.8-0.46-1.46v-1.9c0-0.66,0.15-1.14,0.46-1.46c0.31-0.32,0.83-0.48,1.58-0.48h16.8
			c0.68,0,1.13,0.13,1.36,0.39s0.34,0.74,0.34,1.44c0,0.7-0.06,1.26-0.19,1.67s-0.44,0.95-0.93,1.63l-8.87,12.21h8.02
			c0.75,0,1.27,0.16,1.58,0.48c0.31,0.32,0.46,0.8,0.46,1.46v1.9c0,0.66-0.15,1.15-0.46,1.46c-0.31,0.32-0.83,0.48-1.58,0.48h-17.04
			C235.61,491.35,235.16,491.22,234.93,490.96z"/>
		<path d="M255.54,490.64c0-0.2,0.06-0.45,0.17-0.75l8.47-20.37c0.2-0.48,0.44-0.81,0.7-1c0.26-0.19,0.63-0.29,1.11-0.29h3.71
			c0.48,0,0.84,0.1,1.11,0.29c0.26,0.19,0.49,0.53,0.7,1l8.43,20.37c0.11,0.29,0.17,0.54,0.17,0.75c0,0.48-0.25,0.71-0.75,0.71
			h-6.39c-0.7,0-1.14-0.31-1.33-0.92l-0.82-2.52h-6.02l-0.78,2.52c-0.18,0.61-0.62,0.92-1.33,0.92h-6.39
			C255.79,491.35,255.54,491.11,255.54,490.64z M269.14,482.55l-1.33-4.22l-1.33,4.22H269.14z"/>
		<path d="M282.67,488.82c-2.29-2.03-3.43-5.04-3.43-9.03c0-4.01,1.11-7.03,3.32-9.04s5.37-3.03,9.47-3.03
			c1.86,0,3.51,0.18,4.96,0.54s2.66,0.87,3.64,1.53c0.27,0.2,0.41,0.43,0.41,0.68c0,0.2-0.1,0.49-0.31,0.85l-1.7,2.92
			c-0.18,0.32-0.4,0.48-0.65,0.48c-0.16,0-0.42-0.09-0.78-0.27c-0.63-0.32-1.3-0.57-1.99-0.75c-0.69-0.18-1.5-0.27-2.43-0.27
			c-1.88,0-3.32,0.54-4.32,1.63s-1.5,2.66-1.5,4.73c0,2.04,0.54,3.61,1.63,4.71s2.57,1.65,4.45,1.65c1.63,0,3.13-0.34,4.49-1.02
			c0.36-0.18,0.62-0.27,0.78-0.27c0.25,0,0.46,0.16,0.65,0.48l1.7,2.92c0.2,0.36,0.31,0.65,0.31,0.85c0,0.25-0.14,0.48-0.41,0.68
			c-0.97,0.66-2.2,1.17-3.67,1.53c-1.47,0.36-3.14,0.54-5,0.54C288.17,491.86,284.96,490.85,282.67,488.82z"/>
		<path d="M303.53,490.88c-0.31-0.32-0.46-0.8-0.46-1.46v-19.24c0-0.66,0.15-1.14,0.46-1.46c0.31-0.32,0.83-0.48,1.58-0.48h4.05
			c0.77,0,1.31,0.15,1.62,0.46c0.3,0.31,0.46,0.8,0.46,1.48v19.24c0,0.66-0.15,1.15-0.46,1.46c-0.31,0.32-0.85,0.48-1.62,0.48h-4.05
			C304.36,491.35,303.83,491.19,303.53,490.88z"/>
		<path d="M316.06,488.72c-2.09-2.1-3.13-5.07-3.13-8.92s1.04-6.83,3.13-8.93c2.08-2.1,5.14-3.14,9.18-3.14
			c4.03,0,7.09,1.05,9.18,3.14c2.08,2.1,3.13,5.07,3.13,8.93s-1.04,6.83-3.13,8.92c-2.09,2.1-5.15,3.14-9.18,3.14
			C321.2,491.86,318.14,490.81,316.06,488.72z M328.43,484.57c0.66-1.05,0.99-2.65,0.99-4.78c0-2.15-0.33-3.75-0.99-4.79
			c-0.66-1.04-1.72-1.56-3.2-1.56c-1.47,0-2.54,0.52-3.2,1.56c-0.66,1.04-0.99,2.64-0.99,4.79c0,2.13,0.33,3.72,0.99,4.78
			c0.66,1.05,1.72,1.58,3.2,1.58C326.71,486.15,327.78,485.62,328.43,484.57z M321.63,465.38c0-0.18,0.03-0.37,0.1-0.58l1.43-3.94
			c0.18-0.52,0.4-0.87,0.65-1.05c0.25-0.18,0.71-0.27,1.39-0.27h4.86c0.48,0,0.85,0.08,1.12,0.25c0.27,0.17,0.41,0.41,0.41,0.73
			c0,0.27-0.09,0.56-0.27,0.85l-2.18,3.67c-0.32,0.54-0.62,0.9-0.92,1.05c-0.29,0.16-0.83,0.24-1.6,0.24h-3.64
			C322.09,466.33,321.63,466.01,321.63,465.38z"/>
		<path d="M339.71,490.88c-0.31-0.32-0.46-0.8-0.46-1.46v-19.28c0-0.66,0.15-1.14,0.46-1.45c0.31-0.31,0.84-0.46,1.62-0.46h3.23
			c0.48,0,0.84,0.06,1.1,0.19c0.26,0.12,0.52,0.37,0.77,0.73l6.15,9.15v-8.13c0-0.66,0.15-1.14,0.46-1.46
			c0.31-0.32,0.83-0.48,1.58-0.48h4.05c0.77,0,1.31,0.15,1.62,0.46c0.3,0.31,0.46,0.8,0.46,1.48v19.28c0,0.66-0.15,1.14-0.46,1.45
			c-0.31,0.31-0.85,0.46-1.62,0.46h-3.23c-0.48,0-0.84-0.06-1.11-0.19c-0.26-0.13-0.52-0.37-0.76-0.73l-6.15-9.15v8.16
			c0,0.66-0.15,1.14-0.46,1.45c-0.31,0.31-0.85,0.46-1.62,0.46h-4.05C340.54,491.35,340.01,491.19,339.71,490.88z"/>
		<path d="M83.67,531.68c-0.31-0.32-0.46-0.8-0.46-1.46v-19.24c0-0.66,0.15-1.14,0.46-1.46s0.83-0.48,1.58-0.48h7.82
			c8,0,12,3.85,12,11.56c0,3.81-1.03,6.69-3.08,8.64c-2.05,1.95-5.03,2.92-8.93,2.92h-7.82C84.5,532.15,83.98,531.99,83.67,531.68z
			 M93.38,526.37c1.27,0,2.18-0.42,2.74-1.26c0.56-0.84,0.83-2.35,0.83-4.52c0-2.18-0.28-3.68-0.83-4.52
			c-0.55-0.84-1.47-1.26-2.74-1.26h-2.01v11.56H93.38z"/>
		<path d="M107.23,531.68c-0.31-0.32-0.46-0.8-0.46-1.46v-19.24c0-0.66,0.15-1.14,0.46-1.46c0.31-0.32,0.83-0.48,1.58-0.48h14.08
			c0.73,0,1.22,0.15,1.48,0.46s0.39,0.8,0.39,1.48v1.9c0,0.68-0.13,1.17-0.39,1.48c-0.26,0.31-0.75,0.46-1.48,0.46h-7.96v2.92h4.9
			c0.73,0,1.22,0.15,1.48,0.46c0.26,0.31,0.39,0.8,0.39,1.48v1.84c0,0.68-0.13,1.17-0.39,1.48c-0.26,0.31-0.75,0.46-1.48,0.46h-4.9
			v2.92h7.92c0.72,0,1.22,0.15,1.48,0.46c0.26,0.31,0.39,0.8,0.39,1.48v1.9c0,0.68-0.13,1.17-0.39,1.48
			c-0.26,0.31-0.75,0.46-1.48,0.46h-14.04C108.06,532.15,107.54,531.99,107.23,531.68z"/>
		<path d="M136.95,531.68c-0.31-0.32-0.46-0.8-0.46-1.46v-19.24c0-0.66,0.15-1.14,0.46-1.46c0.31-0.32,0.83-0.48,1.58-0.48h14.08
			c0.73,0,1.22,0.15,1.48,0.46s0.39,0.8,0.39,1.48v1.9c0,0.68-0.13,1.17-0.39,1.48c-0.26,0.31-0.75,0.46-1.48,0.46h-7.96v2.89h4.9
			c0.73,0,1.22,0.15,1.48,0.46c0.26,0.31,0.39,0.8,0.39,1.48v1.9c0,0.68-0.13,1.17-0.39,1.48c-0.26,0.31-0.75,0.46-1.48,0.46h-4.9
			v6.73c0,0.66-0.15,1.15-0.46,1.46c-0.31,0.32-0.85,0.48-1.62,0.48h-4.05C137.78,532.15,137.25,531.99,136.95,531.68z"/>
		<path d="M150.39,531.44c0-0.2,0.06-0.45,0.17-0.75l8.46-20.37c0.21-0.48,0.44-0.81,0.7-1c0.26-0.19,0.63-0.29,1.11-0.29h3.71
			c0.48,0,0.84,0.1,1.11,0.29c0.26,0.19,0.49,0.53,0.7,1l8.43,20.37c0.11,0.29,0.17,0.54,0.17,0.75c0,0.48-0.25,0.71-0.75,0.71
			h-6.39c-0.7,0-1.15-0.31-1.33-0.92l-0.82-2.52h-6.02l-0.78,2.52c-0.18,0.61-0.62,0.92-1.33,0.92h-6.39
			C150.64,532.15,150.39,531.91,150.39,531.44z M163.99,523.35l-1.33-4.22l-1.33,4.22H163.99z"/>
		<path d="M177.53,529.62c-2.29-2.03-3.43-5.04-3.43-9.03c0-4.01,1.11-7.03,3.32-9.04s5.37-3.03,9.47-3.03
			c1.86,0,3.51,0.18,4.96,0.54s2.66,0.87,3.64,1.53c0.27,0.2,0.41,0.43,0.41,0.68c0,0.2-0.1,0.49-0.31,0.85l-1.7,2.92
			c-0.18,0.32-0.4,0.48-0.65,0.48c-0.16,0-0.42-0.09-0.78-0.27c-0.63-0.32-1.3-0.57-1.99-0.75c-0.69-0.18-1.5-0.27-2.43-0.27
			c-1.88,0-3.32,0.54-4.32,1.63s-1.5,2.66-1.5,4.73c0,2.04,0.54,3.61,1.63,4.71s2.57,1.65,4.46,1.65c1.63,0,3.13-0.34,4.49-1.02
			c0.36-0.18,0.62-0.27,0.78-0.27c0.25,0,0.46,0.16,0.65,0.48l1.7,2.92c0.2,0.36,0.31,0.65,0.31,0.85c0,0.25-0.14,0.48-0.41,0.68
			c-0.97,0.66-2.2,1.17-3.67,1.53c-1.47,0.36-3.14,0.54-5,0.54C183.02,532.66,179.82,531.65,177.53,529.62z"/>
		<path d="M202.94,531.68c-0.31-0.32-0.46-0.8-0.46-1.46v-15.4h-4.9c-0.73,0-1.22-0.15-1.48-0.46c-0.26-0.31-0.39-0.8-0.39-1.48
			v-1.9c0-0.68,0.13-1.17,0.39-1.48c0.26-0.31,0.75-0.46,1.48-0.46h17.95c0.73,0,1.22,0.15,1.48,0.46c0.26,0.31,0.39,0.8,0.39,1.48
			v1.9c0,0.68-0.13,1.17-0.39,1.48c-0.26,0.31-0.75,0.46-1.48,0.46h-4.9v15.4c0,0.66-0.15,1.15-0.46,1.46
			c-0.31,0.32-0.85,0.48-1.62,0.48h-4.05C203.77,532.15,203.25,531.99,202.94,531.68z"/>
		<path d="M223.56,531.59c-1.68-0.71-2.98-1.75-3.91-3.09c-0.93-1.35-1.39-2.95-1.39-4.81v-12.72c0-0.66,0.15-1.14,0.46-1.46
			c0.31-0.32,0.83-0.48,1.58-0.48h4.04c0.77,0,1.31,0.15,1.62,0.46c0.31,0.31,0.46,0.8,0.46,1.48v12.82c0,1.07,0.27,1.86,0.8,2.38
			c0.53,0.52,1.26,0.78,2.19,0.78s1.66-0.26,2.19-0.78c0.53-0.52,0.8-1.31,0.8-2.38v-12.82c0-0.66,0.15-1.14,0.46-1.46
			s0.83-0.48,1.58-0.48h4.05c0.77,0,1.31,0.15,1.62,0.46c0.31,0.31,0.46,0.8,0.46,1.48v12.72c0,1.86-0.46,3.46-1.39,4.81
			c-0.93,1.35-2.23,2.38-3.91,3.09c-1.68,0.71-3.63,1.07-5.85,1.07C227.19,532.66,225.24,532.31,223.56,531.59z"/>
		<path d="M243.23,531.68c-0.31-0.32-0.46-0.8-0.46-1.46v-19.24c0-0.66,0.15-1.14,0.46-1.46s0.83-0.48,1.58-0.48h8.13
			c3.4,0,5.88,0.67,7.43,2.02c1.55,1.35,2.33,3.38,2.33,6.1c0,1.63-0.28,3.01-0.83,4.13s-1.41,2-2.57,2.64l3.16,6.77
			c0.09,0.18,0.14,0.39,0.14,0.61c0,0.25-0.09,0.45-0.26,0.61c-0.17,0.16-0.39,0.24-0.66,0.24h-5.75c-0.36,0-0.65-0.05-0.87-0.15
			c-0.22-0.1-0.37-0.28-0.46-0.53l-2.52-6.32h-1.16v5.07c0,0.66-0.15,1.15-0.46,1.46c-0.31,0.32-0.84,0.48-1.62,0.48h-4.05
			C244.06,532.15,243.54,531.99,243.23,531.68z M252.22,519.47c0.73,0,1.3-0.19,1.72-0.58s0.63-0.96,0.63-1.73
			c0-0.79-0.21-1.38-0.63-1.77s-0.99-0.58-1.72-0.58h-2.31v4.66H252.22z"/>
		<path d="M262.19,531.44c0-0.2,0.06-0.45,0.17-0.75l8.47-20.37c0.2-0.48,0.44-0.81,0.7-1c0.26-0.19,0.63-0.29,1.11-0.29h3.71
			c0.48,0,0.84,0.1,1.1,0.29c0.26,0.19,0.49,0.53,0.7,1l8.43,20.37c0.11,0.29,0.17,0.54,0.17,0.75c0,0.48-0.25,0.71-0.75,0.71h-6.39
			c-0.7,0-1.15-0.31-1.33-0.92l-0.82-2.52h-6.02l-0.78,2.52c-0.18,0.61-0.62,0.92-1.33,0.92h-6.39
			C262.43,532.15,262.19,531.91,262.19,531.44z M275.79,523.35l-1.33-4.22l-1.33,4.22H275.79z"/>
		<path d="M291.22,532.02c-1.77-0.43-3.2-1.03-4.28-1.8c-0.45-0.32-0.68-0.62-0.68-0.92c0-0.2,0.08-0.42,0.24-0.65l1.97-3.09
			c0.21-0.29,0.41-0.44,0.61-0.44c0.18,0,0.4,0.08,0.65,0.24c0.82,0.5,1.75,0.89,2.8,1.17s2.08,0.42,3.08,0.42
			c0.84,0,1.45-0.11,1.82-0.34c0.38-0.23,0.56-0.58,0.56-1.05c0-0.52-0.25-0.94-0.75-1.26s-1.36-0.71-2.58-1.19
			c-2.29-0.88-4.09-1.89-5.41-3.01c-1.32-1.12-1.97-2.61-1.97-4.47c0-2.36,0.82-4.13,2.46-5.32c1.64-1.19,3.86-1.79,6.65-1.79
			c1.95,0,3.61,0.17,4.98,0.51c1.37,0.34,2.57,0.87,3.59,1.6c0.45,0.32,0.68,0.62,0.68,0.92c0,0.2-0.08,0.42-0.24,0.65l-1.97,3.09
			c-0.21,0.32-0.41,0.48-0.61,0.48c-0.14,0-0.35-0.09-0.65-0.27c-0.54-0.36-1.19-0.66-1.94-0.9c-0.75-0.24-1.55-0.36-2.41-0.36
			c-0.79,0-1.39,0.11-1.8,0.34s-0.61,0.59-0.61,1.09c0,0.41,0.14,0.75,0.42,1.02c0.28,0.27,0.64,0.5,1.07,0.7
			c0.43,0.19,1.18,0.5,2.24,0.94c1.7,0.68,3.04,1.33,4.01,1.96s1.71,1.37,2.21,2.24c0.5,0.87,0.75,1.98,0.75,3.31
			c0,2.04-0.77,3.69-2.29,4.95s-3.81,1.89-6.85,1.89C294.9,532.66,292.99,532.45,291.22,532.02z"/>
		<path d="M308.7,536.67c-0.63,0-1.11-0.19-1.43-0.56c-0.32-0.37-0.48-0.98-0.48-1.82c0-0.7,0.02-1.22,0.07-1.55
			c0.04-0.33,0.16-0.62,0.34-0.87c0.18-0.25,0.49-0.57,0.92-0.95c1.11-0.97,1.87-2.2,2.28-3.67c0.41-1.47,0.61-3.42,0.61-5.85
			c0-2.42-0.21-4.37-0.61-5.85c-0.41-1.47-1.17-2.7-2.28-3.67c-0.43-0.39-0.74-0.7-0.92-0.95s-0.29-0.54-0.34-0.87
			c-0.05-0.33-0.07-0.84-0.07-1.55c0-0.84,0.16-1.45,0.48-1.82c0.32-0.37,0.79-0.56,1.43-0.56c0.61,0,1.44,0.18,2.48,0.54
			c1.54,0.54,2.92,1.54,4.13,2.99c1.21,1.45,2.15,3.2,2.82,5.24s1,4.21,1,6.49c0,2.29-0.33,4.45-1,6.49s-1.61,3.79-2.82,5.24
			c-1.21,1.45-2.59,2.45-4.13,2.99C310.14,536.49,309.31,536.67,308.7,536.67z"/>
	</g>
	<polygon class="st1" points="200.76,96.93 214.23,124.22 244.34,128.59 222.55,149.83 227.7,179.83 200.76,165.67 173.83,179.83 
		178.97,149.83 157.18,128.59 187.29,124.22 	"/>
	<polygon class="st1" points="138.58,180.15 147.32,197.86 166.86,200.7 152.72,214.48 156.06,233.94 138.58,224.75 121.11,233.94 
		124.45,214.48 110.31,200.7 129.85,197.86 	"/>
	<polygon class="st1" points="268.68,180.15 277.42,197.86 296.95,200.7 282.82,214.48 286.15,233.94 268.68,224.75 251.2,233.94 
		254.54,214.48 240.4,200.7 259.94,197.86 	"/>
	<circle class="st2" cx="201.77" cy="213.97" r="121.96"/>
	<circle class="st3" cx="200.82" cy="200.58" r="121.96"/>
	<g>
		<path class="st3" d="M179.35,642.61c0-0.49,0.15-1.02,0.44-1.61l16.86-34.09h-18.1c-1.56,0-2.62-0.33-3.18-0.99
			c-0.56-0.66-0.84-1.71-0.84-3.17v-4.09c0-1.46,0.28-2.52,0.84-3.18c0.56-0.66,1.62-0.99,3.18-0.99h33.87c2.09,0,3.5,0.3,4.23,0.91
			c0.73,0.61,1.1,1.74,1.1,3.39c0,1.85-0.32,3.36-0.95,4.53l-19.2,38.84c-0.34,0.68-0.72,1.18-1.13,1.5
			c-0.41,0.32-0.99,0.47-1.72,0.47h-13.72C179.91,644.14,179.35,643.63,179.35,642.61z"/>
	</g>
	<g>
		<circle id="XMLID_8221_" class="st4" cx="201.98" cy="183.72" r="82.28"/>
		<g id="XMLID_8003_">
			<polygon id="XMLID_8070_" class="st5" points="198.59,227.66 198.59,227.66 198.59,227.66 			"/>
			<path id="XMLID_8069_" class="st5" d="M201.52,211.75c9.92-7.61,13.47-12.55,14.97-13.46c-0.55-1.86-0.77-3.64-0.85-5.18
				c-4.86,4.1-7.01,5.5-13.47,5.28c-6.96,0.24-8.91-1.4-14.66-6.29c-0.03-0.03-0.06-0.06-0.09-0.09c-0.03,1.75-0.19,3.96-0.88,6.28
				C188.05,199.19,191.6,204.14,201.52,211.75z"/>
			<path id="XMLID_8068_" class="st6" d="M195.02,250.29c0.38-2.5,0.75-4.94,1.1-7.23v0c0.01-0.04,0.01-0.09,0.02-0.13
				c1.14-7.39,2.08-13.29,2.45-15.27l0,0c-0.18-0.11-0.33-0.24-0.45-0.41v0c-0.04-0.05-0.09-0.1-0.11-0.16c0,0,0,0,0,0
				c-0.19-0.44-0.39-0.84-0.59-1.23c-0.04-0.08-0.08-0.16-0.13-0.24c-1.06-2.06-2.05-3.59-2.39-5.43c-0.03-0.18-0.06-0.37-0.08-0.56
				c0-0.02-0.01-0.04-0.01-0.06c-0.78,1.09-1.27,2.19-1.18,3.24c0.41,4.35-13.25-11.69-13.03-17.86c-1.4,0.79-3.05,1.56-4.88,2.32
				c0,0,0.01,0,0.01,0C178.92,216.96,187.11,236.72,195.02,250.29z"/>
			<path id="XMLID_8067_" class="st6" d="M148.61,216.53c0,0,0.01,0,0.01-0.01c-0.04,0.01-0.07,0.03-0.1,0.04c0.02,0,0.04,0,0.06,0
				C148.59,216.56,148.6,216.54,148.61,216.53z"/>
			<path id="XMLID_8066_" class="st6" d="M209.38,222.82c0.1-1.05-0.4-2.15-1.17-3.23c0,0.02-0.01,0.04-0.01,0.05
				c-0.02,0.19-0.05,0.38-0.08,0.56c-0.07,0.38-0.16,0.75-0.28,1.11c0,0,0,0,0,0.01l0,0c-0.46,1.37-1.26,2.67-2.09,4.3
				c-0.04,0.09-0.09,0.17-0.13,0.26c-0.2,0.39-0.39,0.79-0.59,1.23c-0.03,0.06-0.08,0.11-0.12,0.16v0c-0.12,0.16-0.27,0.3-0.45,0.41
				c0.36,1.96,1.29,7.77,2.41,15.07c0.02,0.11,0.03,0.21,0.05,0.33v0c0.29,1.88,0.59,3.85,0.9,5.88c8-13.57,15.99-32.89,18.9-41.81
				c0,0,0,0,0,0c-1.59-0.67-3.05-1.35-4.3-2.05C222.45,211.34,208.98,227.14,209.38,222.82z"/>
			<path id="XMLID_8065_" class="st6" d="M253.92,216.59c0.25,0.03,0.5,0.07,0.77,0.14c-0.25-0.11-0.55-0.23-0.89-0.35
				c0,0,0.01,0,0.01,0C253.87,216.41,253.9,216.49,253.92,216.59z"/>
			<path id="XMLID_8064_" class="st7" d="M148.58,216.57c-0.02,0-0.04,0-0.06,0c-0.33,0.03-0.67,0.08-1.03,0.18
				c-3.69,0.99-6.22,9.93-8.5,19.89c5.61,6.67,12.26,12.44,19.7,17.05c-0.07-2.11-0.22-4.05-0.51-5.67
				C156.8,240.38,147.42,217.59,148.58,216.57z"/>
			<path id="XMLID_8063_" class="st7" d="M254.8,216.75c-0.04-0.01-0.07-0.01-0.11-0.02c-0.27-0.07-0.52-0.11-0.77-0.14
				c0.47,2.34-8.34,24.04-9.68,31.43c-0.34,1.86-0.48,4.13-0.53,6.61c7.48-4.41,14.2-9.97,19.92-16.44
				C261.15,227.64,258.68,217.78,254.8,216.75z"/>
			<path id="XMLID_8049_" class="st8" d="M206.92,247.12h-2.02v-4.56h1.94c0.01,0.06,0.02,0.12,0.03,0.18
				c-1.12-7.3-2.06-13.11-2.41-15.07c-0.04,0.03-0.08,0.06-0.12,0.08c-0.11,0.05-0.22,0.08-0.34,0.1v0.11h-1.04l-1.08,0.07v0.04
				l-0.34-0.02l-0.34,0.02v-0.04l-1.08-0.07h-1.04v-0.11c-0.12-0.03-0.23-0.05-0.34-0.1c-0.04-0.02-0.08-0.06-0.12-0.08l0,0
				c-0.36,1.98-1.31,7.88-2.45,15.27c0.02-0.13,0.04-0.25,0.06-0.38h1.94v4.56h-2.02v-4.05c-0.35,2.29-0.72,4.73-1.1,7.23
				c0,0,0,0,0,0c0.06-0.41,0.13-0.84,0.19-1.25v1.57c0.3,0.52,0.61,1.03,0.91,1.53v-3.2h2.02v4.56h-1.17
				c0.7,1.12,1.4,2.17,2.09,3.16v-1.33h2.02v3.45c0.3-0.36,0.61-0.73,0.91-1.12v-2.33h1.74c0.41-0.58,0.83-1.19,1.25-1.82h-0.06
				v-4.56h2.02v1.5c0.3-0.49,0.6-0.99,0.9-1.5c-0.31-2.03-0.61-4-0.9-5.88V247.12z M204.91,230.3c0.18,1.11,0.41,2.48,0.65,4.04
				h-0.65V230.3z M204.91,236.17h0.94c0.22,1.41,0.46,2.93,0.71,4.56h-1.66V236.17z M201.07,229.78v4.56h-2.02v-4.56H201.07z
				 M198.14,240.73h-1.66c0.25-1.63,0.49-3.15,0.71-4.56h0.94V240.73z M198.14,234.34h-0.65c0.25-1.56,0.47-2.94,0.65-4.05V234.34z
				 M201.07,253.5h-2.02v-4.56h2.02V253.5z M201.07,247.12h-2.02v-4.56h2.02V247.12z M201.07,240.73h-2.02v-4.56h2.02V240.73z
				 M203.99,253.5h-2.02v-4.56h2.02V253.5z M203.99,247.12h-2.02v-4.56h2.02V247.12z M203.99,240.73h-2.02v-4.56h2.02V240.73z
				 M203.99,234.34h-2.02v-4.56h2.02V234.34z"/>
			<path id="XMLID_8048_" class="st3" d="M197.44,225.87c0.2,0.39,0.39,0.8,0.59,1.23c0,0,0,0,0,0c0,0,0,0,0,0
				C197.83,226.66,197.63,226.26,197.44,225.87z"/>
			<path id="XMLID_8047_" class="st3" d="M194.83,219.58c0,0.02,0.01,0.04,0.01,0.06C194.84,219.62,194.84,219.59,194.83,219.58
				C194.84,219.57,194.83,219.58,194.83,219.58z"/>
			<path id="XMLID_8046_" class="st3" d="M208.12,220.2c-0.07,0.38-0.16,0.75-0.28,1.11C207.96,220.95,208.05,220.58,208.12,220.2z"
				/>
			<path id="XMLID_8045_" class="st3" d="M208.21,219.58C208.21,219.58,208.21,219.58,208.21,219.58c-0.01,0.01-0.01,0.03-0.01,0.05
				C208.21,219.62,208.21,219.6,208.21,219.58z"/>
			<path id="XMLID_8044_" class="st3" d="M205.61,225.87c-0.2,0.39-0.39,0.79-0.59,1.23C205.22,226.67,205.41,226.26,205.61,225.87z
				"/>
			<path id="XMLID_8040_" class="st3" d="M198.71,227.74c0.11,0.05,0.22,0.08,0.34,0.1v-4.45h2.02v4.56h-0.97l1.08,0.07v0.04
				l0.34-0.02l0.34,0.02v-0.04l1.08-0.07h-0.97v-4.56h2.02v4.45c0.12-0.03,0.23-0.05,0.34-0.1c0.04-0.02,0.08-0.06,0.12-0.08
				c0.18-0.11,0.33-0.25,0.45-0.41v-3.86h2.01c-0.36,0.69-0.76,1.42-1.17,2.22c0.84-1.63,1.63-2.92,2.09-4.3v-2.23
				c-0.28-0.35-0.59-0.71-0.91-1.05v3.53h-2.02v-4.56h1c-0.67-0.64-1.35-1.25-1.99-1.82h-1.94v-1.84c-0.19-0.21-0.34-0.4-0.46-0.57
				c-0.12,0.18-0.27,0.36-0.45,0.57v1.84h-1.94c-0.64,0.57-1.32,1.18-1.99,1.82h1.01v4.56h-2.02v-3.54
				c-0.32,0.35-0.63,0.7-0.91,1.05v2.23c-0.12-0.36-0.21-0.73-0.29-1.12c0.33,1.84,1.33,3.37,2.39,5.43
				c-0.41-0.81-0.82-1.54-1.18-2.23h2.01v3.86c0.11,0.16,0.27,0.3,0.45,0.41l0,0C198.63,227.69,198.67,227.72,198.71,227.74z
				 M201.98,217.01h2.02v4.56h-2.02V217.01z M199.05,217.01h2.02v4.56h-2.02V217.01z"/>
			<polygon id="XMLID_8039_" points="201.07,223.4 199.05,223.4 199.05,227.85 199.05,227.96 200.09,227.96 201.07,227.96 			"/>
			<rect id="XMLID_8038_" x="199.05" y="229.78" width="2.02" height="4.56"/>
			<rect id="XMLID_8037_" x="199.05" y="217.01" width="2.02" height="4.56"/>
			<rect id="XMLID_8036_" x="199.05" y="236.17" width="2.02" height="4.56"/>
			<path id="XMLID_8035_" d="M199.05,255.33v1.33c0.6,0.86,1.19,1.65,1.77,2.4c0.08-0.09,0.16-0.18,0.24-0.28v-3.45H199.05z"/>
			<rect id="XMLID_8034_" x="199.05" y="248.94" width="2.02" height="4.56"/>
			<rect id="XMLID_8033_" x="199.05" y="242.55" width="2.02" height="4.56"/>
			<path id="XMLID_8032_" d="M195.02,250.29c0.06,0.11,0.13,0.21,0.19,0.32v-1.57C195.15,249.45,195.08,249.88,195.02,250.29z"/>
			<path id="XMLID_8031_" d="M196.12,221.57h2.02v-4.56h-1.01c-0.35,0.33-0.68,0.68-1.01,1.02V221.57z"/>
			<path id="XMLID_8030_" d="M195.21,219.08c-0.13,0.16-0.26,0.33-0.37,0.49c0,0.02,0,0.04,0.01,0.06c0.02,0.19,0.05,0.38,0.08,0.56
				c0.07,0.38,0.16,0.75,0.29,1.12V219.08z"/>
			<path id="XMLID_8029_" d="M198.14,223.4h-2.01c0.36,0.69,0.77,1.42,1.18,2.23c0.04,0.08,0.08,0.16,0.13,0.24
				c0.2,0.39,0.39,0.79,0.59,1.23c0,0,0,0,0,0c0.03,0.06,0.08,0.1,0.11,0.16v0V223.4z"/>
			<path id="XMLID_8028_" d="M198.14,248.94h-2.02v3.2c0.28,0.46,0.56,0.91,0.84,1.36h1.17V248.94z"/>
			<path id="XMLID_8027_" d="M198.14,247.12v-4.56h-1.94c-0.02,0.13-0.04,0.25-0.06,0.38c-0.01,0.04-0.01,0.08-0.02,0.13v0v4.05
				H198.14z"/>
			<path id="XMLID_8026_" d="M198.14,234.34v-4.05c-0.18,1.12-0.41,2.49-0.65,4.05H198.14z"/>
			<path id="XMLID_8025_" d="M196.48,240.73h1.66v-4.56h-0.94C196.97,237.58,196.73,239.1,196.48,240.73z"/>
			<path id="XMLID_8024_" d="M204.91,248.94v4.56h0.06c0.65-0.98,1.3-2,1.95-3.07v-1.5H204.91z"/>
			<path id="XMLID_8023_" d="M204.91,242.55v4.56h2.02v-4.06v0c-0.02-0.11-0.03-0.22-0.05-0.33c-0.01-0.06-0.02-0.12-0.03-0.18
				H204.91z"/>
			<path id="XMLID_8022_" d="M201.07,213.34c-0.48,0.53-1.17,1.15-1.94,1.84h1.94V213.34z"/>
			<path id="XMLID_8021_" d="M203.92,215.18c-0.77-0.69-1.46-1.31-1.94-1.84v1.84H203.92z"/>
			<rect id="XMLID_8020_" x="201.98" y="236.17" width="2.02" height="4.56"/>
			<rect id="XMLID_8019_" x="201.98" y="248.94" width="2.02" height="4.56"/>
			<rect id="XMLID_8018_" x="201.98" y="242.55" width="2.02" height="4.56"/>
			<polygon id="XMLID_8017_" points="203.99,223.4 201.98,223.4 201.98,227.96 202.95,227.96 203.99,227.96 203.99,227.85 			"/>
			<rect id="XMLID_8016_" x="201.98" y="229.78" width="2.02" height="4.56"/>
			<path id="XMLID_8015_" d="M201.98,257.66c0.58-0.73,1.16-1.5,1.74-2.33h-1.74V257.66z"/>
			<rect id="XMLID_8014_" x="201.98" y="217.01" width="2.02" height="4.56"/>
			<path id="XMLID_8013_" d="M204.91,230.3v4.04h0.65C205.31,232.79,205.09,231.42,204.91,230.3z"/>
			<path id="XMLID_8012_" d="M204.91,223.4v3.86v0c0.04-0.05,0.09-0.1,0.12-0.16c0.19-0.43,0.39-0.84,0.59-1.23
				c0.04-0.09,0.09-0.17,0.13-0.26c0.41-0.8,0.81-1.53,1.17-2.22H204.91z"/>
			<path id="XMLID_8011_" d="M207.83,221.32C207.84,221.31,207.84,221.31,207.83,221.32c0.12-0.37,0.21-0.74,0.29-1.12
				c0.03-0.18,0.06-0.37,0.08-0.56c0-0.02,0-0.04,0-0.06c-0.12-0.16-0.24-0.33-0.37-0.49V221.32L207.83,221.32z"/>
			<path id="XMLID_8010_" d="M204.91,221.57h2.02v-3.53c-0.33-0.35-0.66-0.69-1.01-1.03h-1V221.57z"/>
			<path id="XMLID_8009_" d="M205.85,236.17h-0.94v4.56h1.66C206.31,239.1,206.07,237.58,205.85,236.17z"/>
			<path id="XMLID_8008_" class="st9" d="M193.66,222.82c-0.1-1.05,0.4-2.15,1.18-3.24c0,0,0,0,0-0.01
				c0.12-0.16,0.24-0.33,0.37-0.49c0.28-0.35,0.59-0.7,0.91-1.05c0.33-0.35,0.66-0.69,1.01-1.02c0.67-0.64,1.35-1.25,1.99-1.82
				c0.77-0.69,1.46-1.31,1.94-1.84c0.19-0.21,0.34-0.39,0.45-0.57c0.12,0.18,0.27,0.37,0.46,0.57c0.48,0.53,1.17,1.15,1.94,1.84
				c0.64,0.57,1.32,1.18,1.99,1.82c0.35,0.34,0.69,0.68,1.01,1.03c0.33,0.35,0.63,0.7,0.91,1.05c0.13,0.16,0.26,0.33,0.37,0.49
				c0,0,0,0,0,0c0.78,1.08,1.27,2.18,1.17,3.23c-0.41,4.32,13.06-11.48,13.03-17.73c0-0.15,0-0.3-0.02-0.45
				c-0.11-0.88-2.69-2.22-5.07-6.25c-0.19-0.32-0.45-0.34-0.84-0.1c-1.51,0.92-5.06,5.86-14.97,13.46
				c-9.92-7.61-13.47-12.56-14.98-13.47c-0.38-0.23-0.64-0.22-0.83,0.1c-2.38,4.03-4.96,5.37-5.07,6.25
				c-0.01,0.1-0.01,0.21-0.01,0.32C180.41,211.12,194.07,227.17,193.66,222.82z"/>
			<path id="XMLID_8007_" class="st10" d="M196.16,263.09c1.45-0.74,3.02-2.15,4.66-4.03c-0.58-0.74-1.17-1.54-1.77-2.4
				c-0.69-0.98-1.38-2.04-2.09-3.16c-0.28-0.45-0.56-0.9-0.84-1.36c-0.3-0.5-0.61-1.01-0.91-1.53c-0.06-0.11-0.12-0.21-0.19-0.32
				c0,0,0,0,0,0c-7.91-13.57-16.1-33.33-19.27-43.01c0,0-0.01,0-0.01-0.01c-0.59-1.53-25.66,8.6-27.12,9.25c0,0-0.01,0-0.01,0.01
				c-0.01,0.01-0.02,0.03-0.03,0.04c-1.16,1.02,8.22,23.81,9.6,31.45c0.29,1.63,0.44,3.56,0.51,5.67c10.87,6.74,23.43,11,36.9,12.04
				C195.74,264.17,195.93,263.21,196.16,263.09z"/>
			<path id="XMLID_8006_" class="st11" d="M253.92,216.59c-0.02-0.1-0.05-0.18-0.11-0.21c0,0-0.01,0-0.01,0
				c-1.43-0.64-26.55-10.81-27.08-9.25c0,0,0,0,0,0c-2.91,8.92-10.9,28.24-18.9,41.81c-0.3,0.51-0.6,1.01-0.9,1.5
				c-0.65,1.07-1.3,2.09-1.95,3.07c-0.42,0.63-0.83,1.24-1.25,1.82c-0.59,0.83-1.17,1.61-1.74,2.33c-0.31,0.39-0.61,0.76-0.91,1.12
				c-0.08,0.1-0.16,0.18-0.24,0.28c-1.64,1.89-3.21,3.3-4.66,4.03c-0.24,0.12-0.42,1.08-0.58,2.64c2.11,0.16,4.24,0.27,6.39,0.27
				c15.24,0,29.49-4.16,41.73-11.37c0.05-2.48,0.2-4.75,0.53-6.61C245.58,240.63,254.39,218.93,253.92,216.59z"/>
			<path id="XMLID_8005_" class="st12" d="M202.18,198.38c6.45,0.22,8.6-1.18,13.47-5.28c0.38-0.32,0.78-0.66,1.2-1.01
				c6.04-5.13,3-15.83,6.66-15.16c3.6,0.66,7.69-9.1,5.11-11.56c-1.25-0.12-2.29,1.07-3.25,2.69c-1.08,1.82-0.66,4.63-1.74,4.57
				c-1.46-4.93-1.13-9.33-0.84-14.45c-10.11,2.97-20.52,4.51-28.94-1.68c-1.73-1.27-3.4-2.93-6.01-2.89
				c-3.02,0.05-4.23,1.84-3.81,4.74c0.21,1.45,0.32,3.42,0.4,4.28c0.29,3.02-1.59,6.73-2.28,7.44c-0.45,0.46-1.55,2.39-2.21,2.55
				c-0.54,0.13-0.17-3.02-1.97-5.73c-1.42-2.15-2.08-1.67-2.08-1.67c-2.88,2.23,1.31,12.37,4.98,11.7
				c3.65-0.66,0.67,9.91,6.57,15.07c0.03,0.03,0.06,0.06,0.09,0.09C193.27,196.98,195.22,198.62,202.18,198.38z"/>
			<path id="XMLID_8004_" class="st13" d="M177.96,166.9c1.8,2.72,1.43,5.87,1.97,5.73c0.66-0.16,1.76-2.09,2.21-2.55
				c0.69-0.71,2.57-4.43,2.28-7.44c-0.08-0.86-0.19-2.83-0.4-4.28c-0.42-2.9,0.79-4.69,3.81-4.74c2.62-0.04,4.29,1.62,6.01,2.89
				c8.42,6.18,18.83,4.64,28.94,1.68c-0.29,5.12-0.61,9.52,0.84,14.45c1.08,0.07,0.66-2.75,1.74-4.57c0.97-1.62,2-2.81,3.25-2.69
				c0.15,0.01,0.31,0.04,0.47,0.1c3-6.38,3.33-16.77,0.36-23.17c-2.97-6.4-7.71-9.4-12.41-14.73c0.43,1.45-1.52,3.61-3.37,3.78
				c-1.54,0.14-4.1-0.69-5.64-0.87c-7.78-0.94-12.21-1.29-18.58,0.94c-3.28,1.15-6.38,2.77-8.83,5.16
				c-3.18,3.09-5.82,8.69-6.34,13.03c-0.27,2.25-0.55,4.53-0.22,7.8c0.14,1.4,0.99,6.56,1.82,7.81
				C175.88,165.23,176.54,164.76,177.96,166.9z"/>
		</g>
	</g>
	<path class="st136" d="M267,281H135c-6.6,0-12-5.4-12-12v-23c0-6.6,5.4-12,12-12h132c6.6,0,12,5.4,12,12v23
		C279,275.6,273.6,281,267,281z"/>
	<g>
		<polygon class="st137" points="155.38,250.31 166.41,252.81 157.72,260.05 158.75,271.32 149.18,265.29 138.78,269.75 
			141.56,258.78 134.1,250.27 145.39,249.53 151.18,239.81 		"/>
	</g>
	<g>
		<polygon class="st137" points="204.38,251.31 215.41,253.81 206.72,261.05 207.75,272.32 198.18,266.29 187.78,270.75 
			190.56,259.78 183.1,251.27 194.39,250.53 200.18,240.81 		"/>
	</g>
	<g>
		<polygon class="st137" points="258.38,252.31 269.41,254.81 260.72,262.05 261.75,273.32 252.18,267.29 241.78,271.75 
			244.56,260.78 237.1,252.27 248.39,251.53 254.18,241.81 		"/>
	</g>
</g>
</svg>
