<?xml version="1.0" encoding="utf-8"?>
<!-- Generator: Adobe Illustrator 23.0.0, SVG Export Plug-In . SVG Version: 6.00 Build 0)  -->
<svg version="1.1" id="Capa_1" xmlns="http://www.w3.org/2000/svg" xmlns:xlink="http://www.w3.org/1999/xlink" x="0px" y="0px"
	 viewBox="0 0 400 702" style="enable-background:new 0 0 400 702;" xml:space="preserve">
<style type="text/css">
	.st0{fill:#0085B0;}
	.st1{fill:#E0EF18;}
	.st2{fill:#CECECE;}
	.st3{fill:#FFFFFF;}
	.st4{fill:#F2F2F2;}
	.st5{fill:#EACCB0;}
	.st6{fill:#9B9B9B;}
	.st7{fill:#939393;}
	.st8{fill:#EFEFEF;}
	.st9{fill:#828282;}
	.st10{fill:#2C2A2D;}
	.st11{fill:#202021;}
	.st12{fill:#F2D4B6;}
	.st13{fill:#534D46;}
	.st14{fill:#E8D313;}
	.st15{fill:#2ACCFF;}
	.st16{fill:#4E4F4F;}
	.st17{fill:#003A94;}
	.st18{fill:#00D13C;}
	.st19{fill:#15682A;}
	.st20{fill:#D40000;}
	.st21{fill:#505050;}
	.st22{fill:#DFDFDF;}
	.st23{fill:none;}
	.st24{fill:#636363;}
	.st25{fill:#6C92D5;}
	.st26{fill:#22272F;}
	.st27{fill:#1B2538;}
	.st28{fill:#253452;}
	.st29{fill:#F9F9F9;}
	.st30{fill:#2D3543;}
	.st31{fill:#2A3D60;}
	.st32{fill:#587955;}
	.st33{fill:#CD7054;}
	.st34{fill:#F1CC4B;}
	.st35{fill:#ACACAC;}
	.st36{fill:#AAE528;}
	.st37{fill:#28CEBA;}
	.st38{fill:#DB143F;}
	.st39{fill:#53C2C9;}
	.st40{fill:#FFB412;}
	.st41{fill:#866A5E;}
	.st42{fill:#F7DDCB;}
	.st43{fill:#FFE6D4;}
	.st44{fill:#F5F5F5;}
	.st45{fill:#1A2830;}
	.st46{fill:#24353F;}
	.st47{fill:#132026;}
	.st48{fill:#F9FF03;}
	.st49{fill:#272728;}
	.st50{fill:#1E1D1E;}
	.st51{fill:#160423;}
	.st52{fill-rule:evenodd;clip-rule:evenodd;fill:#FFFFFF;}
	.st53{fill-rule:evenodd;clip-rule:evenodd;fill:#1996B8;}
	.st54{fill:#0C387D;}
	.st55{fill:#C69A81;}
	.st56{fill:#D1A385;}
	.st57{fill:#EAEAEA;}
	.st58{fill:#093E8C;}
	.st59{fill:#0B2A62;}
	.st60{fill:#D32A3B;}
	.st61{fill:#827C7D;}
	.st62{opacity:0.7;fill:#7F7F7F;}
	.st63{fill:#FDFDFD;}
	.st64{fill:#DAA449;}
	.st65{fill:#DD9225;}
	.st66{opacity:0.3;}
	.st67{fill:#425793;}
	.st68{opacity:0.8;}
	.st69{filter:url(#Adobe_OpacityMaskFilter);}
	.st70{opacity:0.15;mask:url(#SVGID_1_);}
	.st71{fill:#090B00;}
	.st72{opacity:0.1;}
	.st73{fill:#211915;}
	.st74{filter:url(#Adobe_OpacityMaskFilter_1_);}
	.st75{opacity:0.15;mask:url(#SVGID_2_);}
	.st76{fill:#AF3623;}
	.st77{filter:url(#Adobe_OpacityMaskFilter_2_);}
	.st78{opacity:0.15;mask:url(#SVGID_3_);}
	.st79{filter:url(#Adobe_OpacityMaskFilter_3_);}
	.st80{opacity:0.15;mask:url(#SVGID_4_);}
	.st81{fill:#456495;}
	.st82{filter:url(#Adobe_OpacityMaskFilter_4_);}
	.st83{opacity:0.15;mask:url(#SVGID_5_);}
	.st84{filter:url(#Adobe_OpacityMaskFilter_5_);}
	.st85{opacity:0.15;mask:url(#SVGID_6_);}
	.st86{fill:#76A9DA;}
	.st87{filter:url(#Adobe_OpacityMaskFilter_6_);}
	.st88{opacity:0.15;mask:url(#SVGID_7_);}
	.st89{filter:url(#Adobe_OpacityMaskFilter_7_);}
	.st90{opacity:0.15;mask:url(#SVGID_8_);}
	.st91{fill:#1F3642;}
	.st92{fill:#A9BDDA;}
	.st93{opacity:0.46;fill:#A6B4BC;}
	.st94{fill:#74C475;}
	.st95{fill:#221F21;}
	.st96{fill:#2D2D2D;}
	.st97{fill:#1C1B1A;}
	.st98{fill:#77181C;}
	.st99{fill:#262525;}
	.st100{fill:#11100F;}
	.st101{opacity:0.18;}
	.st102{opacity:0.38;}
	.st103{fill:#0A5B1F;}
	.st104{opacity:0.27;}
	.st105{opacity:0.48;}
	.st106{fill:#0A4654;}
	.st107{fill:#C2C6C6;}
	.st108{fill:#E5E5E5;stroke:#FFFFFF;stroke-miterlimit:10;}
	.st109{fill:#ACB4B5;}
	.st110{fill:#7F8384;}
	.st111{fill:#15772F;}
	.st112{fill:#F4F4F4;}
	.st113{fill:#53B8DB;}
	.st114{fill:#06EF42;}
	.st115{fill:#E7ED07;}
	.st116{fill:#CCCCCA;}
	.st117{fill:#EADF13;}
	.st118{fill:#C2C2C2;}
	.st119{fill:#85B681;}
	.st120{fill:#A1DC9B;}
	.st121{fill:#90C58B;}
	.st122{fill:#22241F;}
	.st123{opacity:0.5;}
	.st124{fill:#A2CADE;}
	.st125{fill:#E9E9E9;}
	.st126{fill:#D9D9D9;}
	.st127{fill:#CDCDCD;}
	.st128{opacity:0.34;fill:#F0F0F0;}
	.st129{fill:#5A5B5A;}
	.st130{fill:#FFE600;}
	.st131{fill:#DB1F59;}
	.st132{fill:#727272;}
	.st133{fill:#207235;}
	.st134{fill:#A3A3A3;}
	.st135{fill:#BCBCBC;}
	.st136{fill:#0A511C;}
	.st137{fill:#F9FF00;}
	.st138{fill:#D59F6D;}
	.st139{fill:#C0804A;}
	.st140{fill:#E6BA8A;}
	.st141{fill:#BE3ACC;}
	.st142{fill:#FFFFFF;stroke:#443F0C;stroke-width:9;stroke-miterlimit:10;}
	.st143{fill:none;stroke:#443F0C;stroke-width:9;stroke-miterlimit:10;}
	.st144{fill:#170623;}
	.st145{fill:#158231;}
	.st146{fill:#C89D76;}
	.st147{opacity:0.4;}
	.st148{fill:#ADADAD;}
	.st149{fill:#EDC3A6;}
	.st150{opacity:0.69;}
	.st151{fill:#E5D3D6;}
	.st152{opacity:0.44;}
	.st153{fill:#A5A5A5;}
	.st154{fill:#DDE5E4;}
	.st155{fill:#5C9169;}
	.st156{fill:#934215;}
	.st157{fill:#47413B;}
	.st158{fill:#601A1F;}
	.st159{fill:#044554;}
	.st160{opacity:0.7;}
	.st161{fill:#7F7F7F;}
	.st162{fill:#6B8A69;}
	.st163{opacity:0.24;fill:#848D90;}
	.st164{opacity:0.4;fill:#848D90;}
	.st165{fill:#F2D5D5;}
	.st166{fill:#485CC1;}
	.st167{fill:#C6CBE0;}
	.st168{fill:#8B909E;}
	.st169{fill:#53BC1B;}
	.st170{fill:#11565B;}
	.st171{fill:#67A06D;}
	.st172{fill:#FFEC00;}
	.st173{fill:#77A007;}
	.st174{fill:#E50731;}
	.st175{fill:#266472;}
	.st176{fill:#D4D4D4;}
	.st177{fill:#0E9932;}
	.st178{fill:#87DD24;}
	.st179{fill:#76A172;}
	.st180{fill:#62835F;}
	.st181{fill:#96D090;}
	.st182{fill:#D6D6D6;}
	.st183{fill:#606060;}
	.st184{fill:#494949;}
	.st185{fill:#29E55A;}
	.st186{fill:#2C703D;}
	.st187{fill:#DD0744;}
	.st188{fill:#EDEDED;}
	.st189{fill:#2A5936;}
	.st190{fill:#B9BBC1;}
	.st191{fill:#FFD79E;}
	.st192{fill:#FFE6C2;}
	.st193{fill:#2CBB55;}
	.st194{fill:#5C412D;}
	.st195{fill:#EC0000;}
	.st196{fill:#DD2626;}
	.st197{fill:#EA9334;}
	.st198{fill:#FCC232;}
	.st199{fill:#F9B234;}
	.st200{fill:#F7A037;}
	.st201{fill:#E0E0E0;}
</style>
<g>
	<g>
		<path class="st18" d="M9.5,209.36c0,22,13.29,27.86,29.54,13.03c0,0,156.99-143.3,353.09,26.97V55c0-22-18-40-40-40H49.5
			c-22,0-40,18-40,40V209.36z"/>
	</g>
	<g>
		<path class="st18" d="M391.66,647c0,22-18,40-40,40H49.98c-22,0-40-18-40-40v-46.27c0-22,18-40,40-40h301.68c22,0,40,18,40,40V647
			z"/>
	</g>
	<g>
		<path d="M82.3,381.28c0-0.19,0.05-0.43,0.16-0.7l7.97-19.17c0.19-0.45,0.41-0.76,0.66-0.94c0.24-0.18,0.59-0.27,1.04-0.27h3.49
			c0.45,0,0.79,0.09,1.04,0.27c0.25,0.18,0.46,0.5,0.66,0.94l7.94,19.17c0.11,0.28,0.16,0.51,0.16,0.7c0,0.45-0.24,0.67-0.7,0.67
			h-6.02c-0.66,0-1.08-0.29-1.25-0.86l-0.77-2.37H91l-0.74,2.37c-0.17,0.58-0.59,0.86-1.25,0.86H83
			C82.53,381.95,82.3,381.73,82.3,381.28z M95.1,373.66l-1.25-3.97l-1.25,3.97H95.1z"/>
		<path d="M107.83,379.57c-2.16-1.91-3.23-4.74-3.23-8.5c0-3.78,1.04-6.61,3.12-8.51s5.05-2.85,8.91-2.85
			c1.75,0,3.31,0.17,4.67,0.51c1.36,0.34,2.51,0.82,3.42,1.44c0.26,0.19,0.38,0.41,0.38,0.64c0,0.19-0.1,0.46-0.29,0.8l-1.6,2.75
			c-0.17,0.3-0.37,0.45-0.61,0.45c-0.15,0-0.39-0.08-0.74-0.26c-0.6-0.3-1.22-0.53-1.87-0.7c-0.65-0.17-1.41-0.26-2.29-0.26
			c-1.77,0-3.13,0.51-4.06,1.54c-0.94,1.02-1.41,2.51-1.41,4.45c0,1.92,0.51,3.4,1.54,4.43c1.02,1.04,2.42,1.55,4.19,1.55
			c1.54,0,2.94-0.32,4.22-0.96c0.34-0.17,0.59-0.26,0.74-0.26c0.23,0,0.44,0.15,0.61,0.45l1.6,2.75c0.19,0.34,0.29,0.61,0.29,0.8
			c0,0.24-0.13,0.45-0.38,0.64c-0.92,0.62-2.07,1.1-3.46,1.44s-2.96,0.51-4.7,0.51C113.01,382.43,109.99,381.48,107.83,379.57z"/>
		<path d="M131.75,381.5c-0.29-0.3-0.43-0.76-0.43-1.38v-14.5h-4.61c-0.68,0-1.15-0.14-1.39-0.43c-0.25-0.29-0.37-0.75-0.37-1.39
			v-1.79c0-0.64,0.12-1.1,0.37-1.39c0.24-0.29,0.71-0.43,1.39-0.43h16.9c0.68,0,1.15,0.14,1.39,0.43c0.24,0.29,0.37,0.75,0.37,1.39
			v1.79c0,0.64-0.12,1.1-0.37,1.39c-0.25,0.29-0.71,0.43-1.39,0.43H139v14.5c0,0.62-0.14,1.08-0.43,1.38
			c-0.29,0.3-0.79,0.45-1.52,0.45h-3.81C132.54,381.95,132.04,381.8,131.75,381.5z"/>
		<path d="M146.76,381.5c-0.29-0.3-0.43-0.76-0.43-1.38v-18.11c0-0.62,0.14-1.08,0.43-1.38c0.29-0.3,0.78-0.45,1.49-0.45h3.81
			c0.73,0,1.23,0.14,1.52,0.43c0.29,0.29,0.43,0.75,0.43,1.39v18.11c0,0.62-0.14,1.08-0.43,1.38c-0.29,0.3-0.79,0.45-1.52,0.45
			h-3.81C147.54,381.95,147.05,381.8,146.76,381.5z"/>
		<path d="M164.04,381.68c-0.25-0.18-0.45-0.5-0.62-0.94l-7.65-19.17c-0.11-0.28-0.16-0.51-0.16-0.7c0-0.45,0.23-0.67,0.7-0.67h6.02
			c0.66,0,1.08,0.29,1.25,0.86l3.26,10.43l3.26-10.43c0.17-0.58,0.59-0.86,1.25-0.86h6.02c0.47,0,0.7,0.22,0.7,0.67
			c0,0.19-0.05,0.43-0.16,0.7l-7.62,19.17c-0.17,0.45-0.38,0.76-0.62,0.94c-0.25,0.18-0.6,0.27-1.07,0.27h-3.49
			C164.64,381.95,164.29,381.86,164.04,381.68z"/>
		<path d="M174.07,381.28c0-0.19,0.05-0.43,0.16-0.7l7.97-19.17c0.19-0.45,0.41-0.76,0.66-0.94c0.24-0.18,0.59-0.27,1.04-0.27h3.49
			c0.45,0,0.79,0.09,1.04,0.27c0.24,0.18,0.46,0.5,0.66,0.94l7.94,19.17c0.11,0.28,0.16,0.51,0.16,0.7c0,0.45-0.24,0.67-0.71,0.67
			h-6.02c-0.66,0-1.08-0.29-1.25-0.86l-0.77-2.37h-5.66l-0.74,2.37c-0.17,0.58-0.59,0.86-1.25,0.86h-6.02
			C174.31,381.95,174.07,381.73,174.07,381.28z M186.87,373.66l-1.25-3.97l-1.25,3.97H186.87z"/>
		<path d="M199.61,379.57c-2.15-1.91-3.23-4.74-3.23-8.5c0-3.78,1.04-6.61,3.12-8.51s5.05-2.85,8.91-2.85
			c1.75,0,3.31,0.17,4.67,0.51c1.36,0.34,2.51,0.82,3.42,1.44c0.26,0.19,0.38,0.41,0.38,0.64c0,0.19-0.1,0.46-0.29,0.8l-1.6,2.75
			c-0.17,0.3-0.37,0.45-0.61,0.45c-0.15,0-0.4-0.08-0.74-0.26c-0.6-0.3-1.22-0.53-1.87-0.7c-0.65-0.17-1.41-0.26-2.29-0.26
			c-1.77,0-3.13,0.51-4.06,1.54c-0.94,1.02-1.41,2.51-1.41,4.45c0,1.92,0.51,3.4,1.54,4.43c1.02,1.04,2.42,1.55,4.19,1.55
			c1.54,0,2.94-0.32,4.22-0.96c0.34-0.17,0.59-0.26,0.74-0.26c0.23,0,0.44,0.15,0.61,0.45l1.6,2.75c0.19,0.34,0.29,0.61,0.29,0.8
			c0,0.24-0.13,0.45-0.38,0.64c-0.92,0.62-2.07,1.1-3.46,1.44s-2.96,0.51-4.7,0.51C204.78,382.43,201.76,381.48,199.61,379.57z"/>
		<path d="M219.24,381.5c-0.29-0.3-0.43-0.76-0.43-1.38v-18.11c0-0.62,0.14-1.08,0.43-1.38s0.78-0.45,1.49-0.45h3.81
			c0.73,0,1.23,0.14,1.52,0.43s0.43,0.75,0.43,1.39v18.11c0,0.62-0.14,1.08-0.43,1.38c-0.29,0.3-0.79,0.45-1.52,0.45h-3.81
			C220.03,381.95,219.53,381.8,219.24,381.5z"/>
		<path d="M231.03,379.47c-1.96-1.97-2.94-4.77-2.94-8.4s0.98-6.43,2.94-8.4c1.96-1.97,4.84-2.96,8.64-2.96
			c3.8,0,6.68,0.99,8.64,2.96c1.96,1.97,2.94,4.77,2.94,8.4s-0.98,6.43-2.94,8.4c-1.96,1.97-4.84,2.96-8.64,2.96
			C235.88,382.43,233,381.45,231.03,379.47z M242.68,375.57c0.62-0.99,0.93-2.49,0.93-4.5c0-2.03-0.31-3.53-0.93-4.51
			c-0.62-0.98-1.62-1.47-3.01-1.47c-1.39,0-2.39,0.49-3.01,1.47c-0.62,0.98-0.93,2.49-0.93,4.51c0,2.01,0.31,3.5,0.93,4.5
			c0.62,0.99,1.62,1.49,3.01,1.49C241.06,377.06,242.06,376.56,242.68,375.57z"/>
		<path d="M253.29,381.5c-0.29-0.3-0.43-0.76-0.43-1.38v-18.14c0-0.62,0.14-1.07,0.43-1.36c0.29-0.29,0.79-0.43,1.52-0.43h3.04
			c0.45,0,0.79,0.06,1.04,0.18c0.25,0.12,0.49,0.35,0.72,0.69l5.79,8.61v-7.65c0-0.62,0.14-1.08,0.43-1.38
			c0.29-0.3,0.78-0.45,1.49-0.45h3.81c0.73,0,1.23,0.14,1.52,0.43s0.43,0.75,0.43,1.39v18.14c0,0.62-0.14,1.07-0.43,1.36
			s-0.79,0.43-1.52,0.43h-3.04c-0.45,0-0.79-0.06-1.04-0.18c-0.25-0.12-0.48-0.35-0.72-0.69l-5.79-8.61v7.68
			c0,0.62-0.14,1.07-0.43,1.36c-0.29,0.29-0.79,0.43-1.52,0.43h-3.81C254.07,381.95,253.58,381.8,253.29,381.5z"/>
		<path d="M275.75,381.5c-0.29-0.3-0.43-0.76-0.43-1.38v-18.11c0-0.62,0.14-1.08,0.43-1.38s0.78-0.45,1.49-0.45h13.25
			c0.68,0,1.15,0.14,1.39,0.43s0.37,0.75,0.37,1.39v1.79c0,0.64-0.12,1.1-0.37,1.39s-0.71,0.43-1.39,0.43H283v2.75h4.61
			c0.68,0,1.15,0.14,1.39,0.43s0.37,0.75,0.37,1.39v1.73c0,0.64-0.12,1.1-0.37,1.39s-0.71,0.43-1.39,0.43H283v2.75h7.46
			c0.68,0,1.15,0.14,1.39,0.43c0.24,0.29,0.37,0.75,0.37,1.39v1.79c0,0.64-0.12,1.1-0.37,1.39c-0.25,0.29-0.71,0.43-1.39,0.43
			h-13.22C276.54,381.95,276.04,381.8,275.75,381.5z"/>
		<path d="M297.75,381.82c-1.66-0.41-3.01-0.97-4.03-1.7c-0.43-0.3-0.64-0.59-0.64-0.86c0-0.19,0.07-0.39,0.22-0.61l1.86-2.91
			c0.19-0.28,0.38-0.42,0.58-0.42c0.17,0,0.37,0.08,0.61,0.22c0.77,0.47,1.65,0.84,2.64,1.1s1.96,0.4,2.9,0.4
			c0.79,0,1.36-0.11,1.71-0.32s0.53-0.54,0.53-0.99c0-0.49-0.24-0.88-0.7-1.18c-0.47-0.3-1.28-0.67-2.43-1.12
			c-2.15-0.83-3.85-1.78-5.09-2.83c-1.24-1.06-1.86-2.46-1.86-4.21c0-2.22,0.77-3.89,2.32-5.01c1.55-1.12,3.63-1.68,6.26-1.68
			c1.83,0,3.4,0.16,4.69,0.48c1.29,0.32,2.42,0.82,3.38,1.5c0.43,0.3,0.64,0.59,0.64,0.86c0,0.19-0.07,0.39-0.22,0.61l-1.86,2.91
			c-0.19,0.3-0.38,0.45-0.58,0.45c-0.13,0-0.33-0.08-0.61-0.26c-0.51-0.34-1.12-0.62-1.82-0.85c-0.7-0.22-1.46-0.34-2.27-0.34
			c-0.75,0-1.31,0.11-1.7,0.32c-0.38,0.21-0.58,0.55-0.58,1.02c0,0.38,0.13,0.7,0.4,0.96c0.27,0.26,0.6,0.47,1.01,0.66
			c0.41,0.18,1.11,0.48,2.11,0.88c1.6,0.64,2.86,1.25,3.78,1.84c0.92,0.59,1.61,1.29,2.08,2.11c0.47,0.82,0.71,1.86,0.71,3.12
			c0,1.92-0.72,3.47-2.16,4.66c-1.44,1.18-3.59,1.78-6.45,1.78C301.22,382.43,299.42,382.23,297.75,381.82z"/>
		<path d="M121.72,419.9c-0.29-0.3-0.43-0.76-0.43-1.38v-18.11c0-0.62,0.14-1.08,0.43-1.38s0.78-0.45,1.49-0.45h7.36
			c7.53,0,11.29,3.63,11.29,10.88c0,3.58-0.96,6.29-2.9,8.13s-4.73,2.75-8.4,2.75h-7.36C122.51,420.35,122.01,420.2,121.72,419.9z
			 M130.86,414.91c1.2,0,2.05-0.39,2.58-1.18c0.52-0.79,0.78-2.21,0.78-4.26s-0.26-3.47-0.78-4.26c-0.52-0.79-1.38-1.18-2.58-1.18
			h-1.89v10.88H130.86z"/>
		<path d="M143.9,419.9c-0.29-0.3-0.43-0.76-0.43-1.38v-18.11c0-0.62,0.14-1.08,0.43-1.38s0.78-0.45,1.49-0.45h13.25
			c0.68,0,1.15,0.14,1.39,0.43s0.37,0.75,0.37,1.39v1.79c0,0.64-0.12,1.1-0.37,1.39s-0.71,0.43-1.39,0.43h-7.49v2.75h4.61
			c0.68,0,1.15,0.14,1.39,0.43s0.37,0.75,0.37,1.39v1.73c0,0.64-0.12,1.1-0.37,1.39s-0.71,0.43-1.39,0.43h-4.61v2.75h7.46
			c0.68,0,1.15,0.14,1.39,0.43c0.24,0.29,0.37,0.75,0.37,1.39v1.79c0,0.64-0.12,1.1-0.37,1.39c-0.25,0.29-0.71,0.43-1.39,0.43
			h-13.22C144.68,420.35,144.19,420.2,143.9,419.9z"/>
		<path d="M171.87,419.9c-0.29-0.3-0.43-0.76-0.43-1.38v-18.14c0-0.62,0.14-1.07,0.43-1.36c0.29-0.29,0.79-0.43,1.52-0.43h3.68
			c0.47,0,0.84,0.06,1.12,0.18c0.28,0.12,0.49,0.35,0.64,0.69l3.74,9.38l3.74-9.38c0.15-0.34,0.36-0.57,0.64-0.69
			s0.65-0.18,1.12-0.18h3.68c0.73,0,1.23,0.14,1.52,0.43c0.29,0.29,0.43,0.74,0.43,1.36v18.14c0,0.62-0.14,1.08-0.43,1.38
			c-0.29,0.3-0.79,0.45-1.49,0.45h-3.07c-0.7,0-1.21-0.15-1.5-0.45c-0.3-0.3-0.45-0.76-0.45-1.38v-8.74l-1.89,4.35
			c-0.26,0.62-0.53,1.06-0.83,1.33s-0.79,0.4-1.47,0.4c-0.68,0-1.17-0.13-1.47-0.4c-0.3-0.27-0.58-0.71-0.83-1.33l-1.89-4.35v8.74
			c0,0.62-0.14,1.08-0.43,1.38c-0.29,0.3-0.79,0.45-1.52,0.45h-3.07C172.65,420.35,172.15,420.2,171.87,419.9z"/>
		<path d="M194.5,419.68c0-0.19,0.05-0.43,0.16-0.7l7.97-19.17c0.19-0.45,0.41-0.76,0.66-0.94c0.24-0.18,0.59-0.27,1.04-0.27h3.49
			c0.45,0,0.79,0.09,1.04,0.27c0.24,0.18,0.46,0.5,0.66,0.94l7.94,19.17c0.11,0.28,0.16,0.51,0.16,0.7c0,0.45-0.24,0.67-0.71,0.67
			h-6.02c-0.66,0-1.08-0.29-1.25-0.86l-0.77-2.37h-5.66l-0.74,2.37c-0.17,0.58-0.59,0.86-1.25,0.86h-6.02
			C194.74,420.35,194.5,420.13,194.5,419.68z M207.3,412.06l-1.25-3.97l-1.25,3.97H207.3z"/>
		<path d="M219.64,419.9c-0.29-0.3-0.43-0.76-0.43-1.38v-18.11c0-0.62,0.14-1.08,0.43-1.38c0.29-0.3,0.78-0.45,1.49-0.45h7.65
			c3.2,0,5.53,0.63,6.99,1.9c1.46,1.27,2.19,3.18,2.19,5.74c0,1.54-0.26,2.83-0.78,3.89c-0.52,1.06-1.33,1.88-2.42,2.48l2.98,6.37
			c0.09,0.17,0.13,0.36,0.13,0.58c0,0.23-0.08,0.43-0.24,0.58s-0.37,0.22-0.62,0.22h-5.41c-0.34,0-0.61-0.05-0.82-0.14
			c-0.2-0.1-0.35-0.26-0.43-0.5l-2.37-5.95h-1.09v4.77c0,0.62-0.14,1.08-0.43,1.38c-0.29,0.3-0.79,0.45-1.52,0.45h-3.81
			C220.42,420.35,219.93,420.2,219.64,419.9z M228.11,408.42c0.68,0,1.22-0.18,1.62-0.54c0.39-0.36,0.59-0.91,0.59-1.63
			c0-0.75-0.2-1.3-0.59-1.66c-0.39-0.36-0.93-0.54-1.62-0.54h-2.18v4.38H228.11z"/>
		<path d="M242.15,417.97c-2.15-1.91-3.23-4.74-3.23-8.5c0-3.78,1.04-6.61,3.12-8.51s5.05-2.85,8.91-2.85
			c1.75,0,3.31,0.17,4.67,0.51c1.36,0.34,2.51,0.82,3.42,1.44c0.26,0.19,0.38,0.41,0.38,0.64c0,0.19-0.1,0.46-0.29,0.8l-1.6,2.75
			c-0.17,0.3-0.37,0.45-0.61,0.45c-0.15,0-0.4-0.08-0.74-0.26c-0.6-0.3-1.22-0.53-1.87-0.7c-0.65-0.17-1.41-0.26-2.29-0.26
			c-1.77,0-3.13,0.51-4.06,1.54c-0.94,1.02-1.41,2.51-1.41,4.45c0,1.92,0.51,3.4,1.54,4.43c1.02,1.04,2.42,1.55,4.19,1.55
			c1.54,0,2.94-0.32,4.22-0.96c0.34-0.17,0.59-0.26,0.74-0.26c0.23,0,0.44,0.15,0.61,0.45l1.6,2.75c0.19,0.34,0.29,0.61,0.29,0.8
			c0,0.24-0.13,0.45-0.38,0.64c-0.92,0.62-2.07,1.1-3.46,1.44s-2.96,0.51-4.7,0.51C247.33,420.83,244.31,419.88,242.15,417.97z"/>
		<path d="M259.91,419.68c0-0.19,0.05-0.43,0.16-0.7l7.97-19.17c0.19-0.45,0.41-0.76,0.66-0.94c0.24-0.18,0.59-0.27,1.04-0.27h3.49
			c0.45,0,0.79,0.09,1.04,0.27c0.25,0.18,0.46,0.5,0.66,0.94l7.94,19.17c0.11,0.28,0.16,0.51,0.16,0.7c0,0.45-0.24,0.67-0.7,0.67
			h-6.02c-0.66,0-1.08-0.29-1.25-0.86l-0.77-2.37h-5.66l-0.74,2.37c-0.17,0.58-0.59,0.86-1.25,0.86h-6.02
			C260.15,420.35,259.91,420.13,259.91,419.68z M272.71,412.06l-1.25-3.97l-1.25,3.97H272.71z"/>
		<path d="M81.27,459.68c-1.14-1.36-2.03-3.01-2.66-4.93s-0.94-3.96-0.94-6.11c0-2.15,0.31-4.19,0.94-6.11s1.51-3.56,2.66-4.93
			c1.14-1.36,2.44-2.3,3.89-2.82c0.98-0.34,1.76-0.51,2.34-0.51c0.6,0,1.04,0.18,1.34,0.53c0.3,0.35,0.45,0.92,0.45,1.71
			c0,0.66-0.02,1.15-0.06,1.46c-0.04,0.31-0.15,0.58-0.32,0.82c-0.17,0.23-0.46,0.53-0.86,0.9c-1.05,0.92-1.76,2.07-2.14,3.46
			c-0.38,1.39-0.58,3.22-0.58,5.5c0,2.28,0.19,4.12,0.58,5.5c0.38,1.39,1.1,2.54,2.14,3.46c0.4,0.36,0.69,0.66,0.86,0.9
			c0.17,0.23,0.28,0.51,0.32,0.82c0.04,0.31,0.06,0.79,0.06,1.46c0,0.79-0.15,1.36-0.45,1.71c-0.3,0.35-0.75,0.53-1.34,0.53
			c-0.58,0-1.35-0.17-2.34-0.51C83.71,461.98,82.42,461.04,81.27,459.68z"/>
		<path d="M91,458.3c-0.29-0.3-0.43-0.76-0.43-1.38v-18.11c0-0.62,0.14-1.08,0.43-1.38c0.29-0.3,0.78-0.45,1.49-0.45h13.25
			c0.68,0,1.15,0.14,1.39,0.43c0.24,0.29,0.37,0.75,0.37,1.39v1.79c0,0.64-0.12,1.1-0.37,1.39c-0.25,0.29-0.71,0.43-1.39,0.43h-7.49
			v2.75h4.61c0.68,0,1.15,0.14,1.39,0.43s0.37,0.75,0.37,1.39v1.73c0,0.64-0.12,1.1-0.37,1.39s-0.71,0.43-1.39,0.43h-4.61v2.75h7.46
			c0.68,0,1.15,0.14,1.39,0.43c0.25,0.29,0.37,0.75,0.37,1.39v1.79c0,0.64-0.12,1.1-0.37,1.39c-0.25,0.29-0.71,0.43-1.39,0.43H92.49
			C91.79,458.75,91.29,458.6,91,458.3z"/>
		<path d="M107.56,457.12c-0.26-0.19-0.38-0.41-0.38-0.64c0-0.19,0.1-0.46,0.29-0.8l1.6-2.75c0.21-0.34,0.44-0.51,0.67-0.51
			c0.15,0,0.36,0.1,0.64,0.29c1.02,0.77,2,1.15,2.94,1.15c1.45,0,2.18-0.69,2.18-2.08v-12.96c0-0.62,0.14-1.08,0.43-1.38
			c0.29-0.3,0.78-0.45,1.49-0.45h3.81c0.72,0,1.23,0.14,1.52,0.43c0.29,0.29,0.43,0.75,0.43,1.39v13.02c0,2.26-0.7,4.06-2.11,5.39
			s-3.44,2-6.08,2C111.96,459.23,109.48,458.53,107.56,457.12z"/>
		<path d="M125.69,458.3c-0.29-0.3-0.43-0.76-0.43-1.38v-18.14c0-0.62,0.14-1.07,0.43-1.36c0.29-0.29,0.79-0.43,1.52-0.43h3.68
			c0.47,0,0.84,0.06,1.12,0.18s0.49,0.35,0.64,0.69l3.74,9.38l3.74-9.38c0.15-0.34,0.36-0.57,0.64-0.69s0.65-0.18,1.12-0.18h3.68
			c0.72,0,1.23,0.14,1.52,0.43s0.43,0.74,0.43,1.36v18.14c0,0.62-0.14,1.08-0.43,1.38c-0.29,0.3-0.78,0.45-1.49,0.45h-3.07
			c-0.7,0-1.21-0.15-1.5-0.45c-0.3-0.3-0.45-0.76-0.45-1.38v-8.74l-1.89,4.35c-0.26,0.62-0.53,1.06-0.83,1.33s-0.79,0.4-1.47,0.4
			s-1.17-0.13-1.47-0.4s-0.58-0.71-0.83-1.33l-1.89-4.35v8.74c0,0.62-0.14,1.08-0.43,1.38c-0.29,0.3-0.79,0.45-1.52,0.45h-3.07
			C126.47,458.75,125.98,458.6,125.69,458.3z"/>
		<path d="M149.8,448.18c-0.45-0.5-0.67-1.1-0.67-1.81v-0.86c0-0.72,0.22-1.33,0.67-1.81c0.45-0.48,1.02-0.72,1.73-0.72h1.09
			c0.7,0,1.28,0.24,1.73,0.72c0.45,0.48,0.67,1.08,0.67,1.81v0.86c0,0.7-0.22,1.31-0.66,1.81c-0.44,0.5-1.02,0.75-1.74,0.75h-1.09
			C150.83,448.93,150.25,448.68,149.8,448.18z M149.8,458c-0.45-0.5-0.67-1.1-0.67-1.81v-0.86c0-0.73,0.22-1.33,0.67-1.81
			c0.45-0.48,1.02-0.72,1.73-0.72h1.09c0.7,0,1.28,0.24,1.73,0.72c0.45,0.48,0.67,1.08,0.67,1.81v0.86c0,0.7-0.22,1.31-0.66,1.81
			s-1.02,0.75-1.74,0.75h-1.09C150.83,458.75,150.25,458.5,149.8,458z"/>
		<path d="M166.65,458.3c-0.29-0.3-0.43-0.76-0.43-1.38v-18.14c0-0.62,0.14-1.07,0.43-1.36c0.29-0.29,0.79-0.43,1.52-0.43h3.68
			c0.47,0,0.84,0.06,1.12,0.18s0.49,0.35,0.64,0.69l3.74,9.38l3.74-9.38c0.15-0.34,0.36-0.57,0.64-0.69s0.65-0.18,1.12-0.18h3.68
			c0.72,0,1.23,0.14,1.52,0.43s0.43,0.74,0.43,1.36v18.14c0,0.62-0.14,1.08-0.43,1.38c-0.29,0.3-0.78,0.45-1.49,0.45h-3.07
			c-0.7,0-1.21-0.15-1.5-0.45c-0.3-0.3-0.45-0.76-0.45-1.38v-8.74l-1.89,4.35c-0.26,0.62-0.53,1.06-0.83,1.33s-0.79,0.4-1.47,0.4
			s-1.17-0.13-1.47-0.4s-0.58-0.71-0.83-1.33l-1.89-4.35v8.74c0,0.62-0.14,1.08-0.43,1.38c-0.29,0.3-0.79,0.45-1.52,0.45h-3.07
			C167.43,458.75,166.94,458.6,166.65,458.3z"/>
		<path d="M191.16,458.3c-0.29-0.3-0.43-0.76-0.43-1.38v-18.11c0-0.62,0.14-1.08,0.43-1.38c0.29-0.3,0.78-0.45,1.49-0.45h13.25
			c0.68,0,1.15,0.14,1.39,0.43c0.24,0.29,0.37,0.75,0.37,1.39v1.79c0,0.64-0.12,1.1-0.37,1.39c-0.25,0.29-0.71,0.43-1.39,0.43h-7.49
			v2.75h4.61c0.68,0,1.15,0.14,1.39,0.43s0.37,0.75,0.37,1.39v1.73c0,0.64-0.12,1.1-0.37,1.39s-0.71,0.43-1.39,0.43h-4.61v2.75h7.46
			c0.68,0,1.15,0.14,1.39,0.43c0.25,0.29,0.37,0.75,0.37,1.39v1.79c0,0.64-0.12,1.1-0.37,1.39c-0.25,0.29-0.71,0.43-1.39,0.43
			h-13.22C191.94,458.75,191.45,458.6,191.16,458.3z"/>
		<path d="M209.53,458.3c-0.29-0.3-0.43-0.76-0.43-1.38v-18.14c0-0.62,0.14-1.07,0.43-1.36c0.29-0.29,0.79-0.43,1.52-0.43h3.04
			c0.45,0,0.79,0.06,1.04,0.18s0.49,0.35,0.72,0.69l5.79,8.61v-7.65c0-0.62,0.14-1.08,0.43-1.38c0.29-0.3,0.78-0.45,1.49-0.45h3.81
			c0.73,0,1.23,0.14,1.52,0.43c0.29,0.29,0.43,0.75,0.43,1.39v18.14c0,0.62-0.14,1.07-0.43,1.36c-0.29,0.29-0.79,0.43-1.52,0.43
			h-3.04c-0.45,0-0.79-0.06-1.04-0.18s-0.49-0.35-0.72-0.69l-5.79-8.61v7.68c0,0.62-0.14,1.07-0.43,1.36
			c-0.29,0.29-0.79,0.43-1.52,0.43h-3.81C210.31,458.75,209.82,458.6,209.53,458.3z"/>
		<path d="M235.62,458.62c-1.66-0.41-3.01-0.97-4.03-1.7c-0.43-0.3-0.64-0.59-0.64-0.86c0-0.19,0.07-0.39,0.22-0.61l1.86-2.91
			c0.19-0.28,0.38-0.42,0.58-0.42c0.17,0,0.37,0.08,0.61,0.22c0.77,0.47,1.65,0.84,2.64,1.1s1.96,0.4,2.9,0.4
			c0.79,0,1.36-0.11,1.71-0.32s0.53-0.54,0.53-0.99c0-0.49-0.24-0.88-0.7-1.18c-0.47-0.3-1.28-0.67-2.43-1.12
			c-2.15-0.83-3.85-1.78-5.09-2.83c-1.24-1.06-1.86-2.46-1.86-4.21c0-2.22,0.77-3.89,2.32-5.01c1.55-1.12,3.63-1.68,6.26-1.68
			c1.83,0,3.4,0.16,4.69,0.48c1.29,0.32,2.42,0.82,3.38,1.5c0.43,0.3,0.64,0.59,0.64,0.86c0,0.19-0.07,0.39-0.22,0.61l-1.86,2.91
			c-0.19,0.3-0.38,0.45-0.58,0.45c-0.13,0-0.33-0.08-0.61-0.26c-0.51-0.34-1.12-0.62-1.82-0.85c-0.7-0.22-1.46-0.34-2.27-0.34
			c-0.75,0-1.31,0.11-1.7,0.32c-0.38,0.21-0.58,0.55-0.58,1.02c0,0.38,0.13,0.7,0.4,0.96c0.27,0.26,0.6,0.47,1.01,0.66
			c0.41,0.18,1.11,0.48,2.11,0.88c1.6,0.64,2.86,1.25,3.78,1.84c0.92,0.59,1.61,1.29,2.08,2.11c0.47,0.82,0.71,1.86,0.71,3.12
			c0,1.92-0.72,3.47-2.16,4.66c-1.44,1.18-3.59,1.78-6.45,1.78C239.09,459.23,237.29,459.03,235.62,458.62z"/>
		<path d="M249.16,458.08c0-0.19,0.05-0.43,0.16-0.7l7.97-19.17c0.19-0.45,0.41-0.76,0.66-0.94c0.25-0.18,0.59-0.27,1.04-0.27h3.49
			c0.45,0,0.79,0.09,1.04,0.27c0.25,0.18,0.46,0.5,0.66,0.94l7.94,19.17c0.11,0.28,0.16,0.51,0.16,0.7c0,0.45-0.23,0.67-0.7,0.67
			h-6.02c-0.66,0-1.08-0.29-1.25-0.86l-0.77-2.37h-5.66l-0.74,2.37c-0.17,0.58-0.59,0.86-1.25,0.86h-6.02
			C249.39,458.75,249.16,458.53,249.16,458.08z M261.96,450.46l-1.25-3.97l-1.25,3.97H261.96z"/>
		<path d="M271.85,457.12c-0.26-0.19-0.38-0.41-0.38-0.64c0-0.19,0.1-0.46,0.29-0.8l1.6-2.75c0.21-0.34,0.44-0.51,0.67-0.51
			c0.15,0,0.36,0.1,0.64,0.29c1.02,0.77,2,1.15,2.94,1.15c1.45,0,2.18-0.69,2.18-2.08v-12.96c0-0.62,0.14-1.08,0.43-1.38
			s0.78-0.45,1.49-0.45h3.81c0.72,0,1.23,0.14,1.52,0.43s0.43,0.75,0.43,1.39v13.02c0,2.26-0.7,4.06-2.11,5.39s-3.43,2-6.08,2
			C276.24,459.23,273.77,458.53,271.85,457.12z"/>
		<path d="M289.98,458.3c-0.29-0.3-0.43-0.76-0.43-1.38v-18.11c0-0.62,0.14-1.08,0.43-1.38s0.78-0.45,1.49-0.45h13.25
			c0.68,0,1.15,0.14,1.39,0.43s0.37,0.75,0.37,1.39v1.79c0,0.64-0.12,1.1-0.37,1.39s-0.71,0.43-1.39,0.43h-7.49v2.75h4.61
			c0.68,0,1.15,0.14,1.39,0.43s0.37,0.75,0.37,1.39v1.73c0,0.64-0.12,1.1-0.37,1.39s-0.71,0.43-1.39,0.43h-4.61v2.75h7.46
			c0.68,0,1.15,0.14,1.39,0.43c0.24,0.29,0.37,0.75,0.37,1.39v1.79c0,0.64-0.12,1.1-0.37,1.39c-0.25,0.29-0.71,0.43-1.39,0.43
			h-13.22C290.76,458.75,290.26,458.6,289.98,458.3z"/>
		<path d="M311.98,458.62c-1.66-0.41-3.01-0.97-4.03-1.7c-0.43-0.3-0.64-0.59-0.64-0.86c0-0.19,0.07-0.39,0.22-0.61l1.86-2.91
			c0.19-0.28,0.38-0.42,0.58-0.42c0.17,0,0.37,0.08,0.61,0.22c0.77,0.47,1.65,0.84,2.64,1.1s1.96,0.4,2.9,0.4
			c0.79,0,1.36-0.11,1.71-0.32s0.53-0.54,0.53-0.99c0-0.49-0.24-0.88-0.7-1.18c-0.47-0.3-1.28-0.67-2.43-1.12
			c-2.15-0.83-3.85-1.78-5.09-2.83c-1.24-1.06-1.86-2.46-1.86-4.21c0-2.22,0.77-3.89,2.32-5.01c1.55-1.12,3.63-1.68,6.26-1.68
			c1.83,0,3.4,0.16,4.69,0.48c1.29,0.32,2.42,0.82,3.38,1.5c0.43,0.3,0.64,0.59,0.64,0.86c0,0.19-0.07,0.39-0.22,0.61l-1.86,2.91
			c-0.19,0.3-0.38,0.45-0.58,0.45c-0.13,0-0.33-0.08-0.61-0.26c-0.51-0.34-1.12-0.62-1.82-0.85c-0.7-0.22-1.46-0.34-2.27-0.34
			c-0.75,0-1.31,0.11-1.7,0.32c-0.38,0.21-0.58,0.55-0.58,1.02c0,0.38,0.13,0.7,0.4,0.96c0.27,0.26,0.6,0.47,1.01,0.66
			c0.41,0.18,1.11,0.48,2.11,0.88c1.6,0.64,2.86,1.25,3.78,1.84c0.92,0.59,1.61,1.29,2.08,2.11c0.47,0.82,0.71,1.86,0.71,3.12
			c0,1.92-0.72,3.47-2.16,4.66c-1.44,1.18-3.59,1.78-6.45,1.78C315.44,459.23,313.64,459.03,311.98,458.62z"/>
		<path d="M63.46,496.7c-0.29-0.3-0.43-0.76-0.43-1.38v-18.11c0-0.62,0.14-1.08,0.43-1.38c0.29-0.3,0.79-0.45,1.49-0.45h7.65
			c3.2,0,5.53,0.63,6.99,1.9c1.46,1.27,2.19,3.18,2.19,5.74c0,2.56-0.73,4.47-2.19,5.73c-1.46,1.26-3.78,1.89-6.96,1.89h-1.92v4.67
			c0,0.62-0.14,1.08-0.43,1.38c-0.29,0.3-0.79,0.45-1.52,0.45h-3.81C64.25,497.15,63.75,497,63.46,496.7z M71.93,485.22
			c0.68,0,1.22-0.18,1.62-0.54c0.39-0.36,0.59-0.91,0.59-1.63c0-0.75-0.2-1.3-0.59-1.66c-0.39-0.36-0.93-0.54-1.62-0.54h-2.18v4.38
			H71.93z"/>
		<path d="M83.18,496.7c-0.29-0.3-0.43-0.76-0.43-1.38v-18.11c0-0.62,0.14-1.08,0.43-1.38c0.29-0.3,0.78-0.45,1.49-0.45h7.65
			c3.2,0,5.53,0.63,6.99,1.9c1.46,1.27,2.19,3.18,2.19,5.74c0,1.54-0.26,2.83-0.79,3.89c-0.52,1.06-1.33,1.88-2.42,2.48l2.98,6.37
			c0.08,0.17,0.13,0.36,0.13,0.58c0,0.23-0.08,0.43-0.24,0.58c-0.16,0.15-0.37,0.22-0.63,0.22h-5.41c-0.34,0-0.61-0.05-0.82-0.14
			c-0.2-0.1-0.35-0.26-0.43-0.5l-2.37-5.95h-1.09v4.77c0,0.62-0.14,1.08-0.43,1.38c-0.29,0.3-0.79,0.45-1.52,0.45h-3.81
			C83.96,497.15,83.46,497,83.18,496.7z M91.64,485.22c0.68,0,1.22-0.18,1.62-0.54c0.39-0.36,0.59-0.91,0.59-1.63
			c0-0.75-0.2-1.3-0.59-1.66c-0.4-0.36-0.93-0.54-1.62-0.54h-2.18v4.38H91.64z"/>
		<path d="M105.4,494.67c-1.96-1.97-2.94-4.77-2.94-8.4s0.98-6.43,2.94-8.4c1.96-1.97,4.84-2.96,8.64-2.96s6.68,0.99,8.64,2.96
			c1.96,1.97,2.94,4.77,2.94,8.4s-0.98,6.43-2.94,8.4c-1.96,1.97-4.84,2.96-8.64,2.96S107.36,496.65,105.4,494.67z M117.05,490.77
			c0.62-0.99,0.93-2.49,0.93-4.5c0-2.03-0.31-3.53-0.93-4.51s-1.62-1.47-3.01-1.47s-2.39,0.49-3.01,1.47
			c-0.62,0.98-0.93,2.49-0.93,4.51c0,2.01,0.31,3.5,0.93,4.5c0.62,0.99,1.62,1.49,3.01,1.49S116.43,491.76,117.05,490.77z"/>
		<path d="M126.54,496.7c-0.29-0.3-0.43-0.76-0.43-1.38v-18.14c0-0.62,0.14-1.07,0.43-1.36c0.29-0.29,0.79-0.43,1.52-0.43h3.68
			c0.47,0,0.84,0.06,1.12,0.18s0.49,0.35,0.64,0.69l3.74,9.38l3.74-9.38c0.15-0.34,0.36-0.57,0.64-0.69s0.65-0.18,1.12-0.18h3.68
			c0.72,0,1.23,0.14,1.52,0.43s0.43,0.74,0.43,1.36v18.14c0,0.62-0.14,1.08-0.43,1.38c-0.29,0.3-0.78,0.45-1.49,0.45h-3.07
			c-0.7,0-1.21-0.15-1.5-0.45c-0.3-0.3-0.45-0.76-0.45-1.38v-8.74l-1.89,4.35c-0.26,0.62-0.53,1.06-0.83,1.33s-0.79,0.4-1.47,0.4
			s-1.17-0.13-1.47-0.4s-0.58-0.71-0.83-1.33l-1.89-4.35v8.74c0,0.62-0.14,1.08-0.43,1.38c-0.29,0.3-0.79,0.45-1.52,0.45h-3.07
			C127.32,497.15,126.83,497,126.54,496.7z"/>
		<path d="M151.8,494.67c-1.96-1.97-2.94-4.77-2.94-8.4s0.98-6.43,2.94-8.4c1.96-1.97,4.84-2.96,8.64-2.96s6.68,0.99,8.64,2.96
			c1.96,1.97,2.94,4.77,2.94,8.4s-0.98,6.43-2.94,8.4c-1.96,1.97-4.84,2.96-8.64,2.96S153.76,496.65,151.8,494.67z M163.45,490.77
			c0.62-0.99,0.93-2.49,0.93-4.5c0-2.03-0.31-3.53-0.93-4.51s-1.62-1.47-3.01-1.47s-2.39,0.49-3.01,1.47
			c-0.62,0.98-0.93,2.49-0.93,4.51c0,2.01,0.31,3.5,0.93,4.5c0.62,0.99,1.62,1.49,3.01,1.49S162.83,491.76,163.45,490.77z"/>
		<path d="M175.42,494.77c-2.16-1.91-3.23-4.74-3.23-8.5c0-3.78,1.04-6.61,3.12-8.51s5.05-2.85,8.91-2.85
			c1.75,0,3.31,0.17,4.67,0.51c1.36,0.34,2.51,0.82,3.42,1.44c0.26,0.19,0.38,0.41,0.38,0.64c0,0.19-0.1,0.46-0.29,0.8l-1.6,2.75
			c-0.17,0.3-0.37,0.45-0.61,0.45c-0.15,0-0.39-0.08-0.74-0.26c-0.6-0.3-1.22-0.53-1.87-0.7c-0.65-0.17-1.41-0.26-2.29-0.26
			c-1.77,0-3.13,0.51-4.06,1.54c-0.94,1.02-1.41,2.51-1.41,4.45c0,1.92,0.51,3.4,1.54,4.43c1.02,1.04,2.42,1.55,4.19,1.55
			c1.54,0,2.94-0.32,4.22-0.96c0.34-0.17,0.59-0.26,0.74-0.26c0.23,0,0.44,0.15,0.61,0.45l1.6,2.75c0.19,0.34,0.29,0.61,0.29,0.8
			c0,0.24-0.13,0.45-0.38,0.64c-0.92,0.62-2.07,1.1-3.46,1.44s-2.96,0.51-4.7,0.51C180.59,497.63,177.57,496.68,175.42,494.77z"/>
		<path d="M195.05,496.7c-0.29-0.3-0.43-0.76-0.43-1.38v-18.11c0-0.62,0.14-1.08,0.43-1.38c0.29-0.3,0.79-0.45,1.49-0.45h3.81
			c0.72,0,1.23,0.14,1.52,0.43c0.29,0.29,0.43,0.75,0.43,1.39v18.11c0,0.62-0.14,1.08-0.43,1.38c-0.29,0.3-0.79,0.45-1.52,0.45
			h-3.81C195.83,497.15,195.34,497,195.05,496.7z"/>
		<path d="M206.84,494.67c-1.96-1.97-2.94-4.77-2.94-8.4s0.98-6.43,2.94-8.4c1.96-1.97,4.84-2.96,8.64-2.96
			c3.8,0,6.68,0.99,8.64,2.96c1.96,1.97,2.94,4.77,2.94,8.4s-0.98,6.43-2.94,8.4c-1.96,1.97-4.84,2.96-8.64,2.96
			C211.68,497.63,208.8,496.65,206.84,494.67z M218.49,490.77c0.62-0.99,0.93-2.49,0.93-4.5c0-2.03-0.31-3.53-0.93-4.51
			s-1.62-1.47-3.01-1.47c-1.39,0-2.39,0.49-3.01,1.47c-0.62,0.98-0.93,2.49-0.93,4.51c0,2.01,0.31,3.5,0.93,4.5
			c0.62,0.99,1.62,1.49,3.01,1.49C216.87,492.26,217.87,491.76,218.49,490.77z"/>
		<path d="M229.1,496.7c-0.29-0.3-0.43-0.76-0.43-1.38v-18.14c0-0.62,0.14-1.07,0.43-1.36c0.29-0.29,0.79-0.43,1.52-0.43h3.04
			c0.45,0,0.79,0.06,1.04,0.18s0.49,0.35,0.72,0.69l5.79,8.61v-7.65c0-0.62,0.14-1.08,0.43-1.38s0.78-0.45,1.49-0.45h3.81
			c0.72,0,1.23,0.14,1.52,0.43c0.29,0.29,0.43,0.75,0.43,1.39v18.14c0,0.62-0.14,1.07-0.43,1.36c-0.29,0.29-0.79,0.43-1.52,0.43
			h-3.04c-0.45,0-0.79-0.06-1.04-0.18c-0.25-0.12-0.49-0.35-0.72-0.69l-5.79-8.61v7.68c0,0.62-0.14,1.07-0.43,1.36
			c-0.29,0.29-0.79,0.43-1.52,0.43h-3.81C229.88,497.15,229.38,497,229.1,496.7z"/>
		<path d="M250.49,496.48c0-0.19,0.05-0.43,0.16-0.7l7.97-19.17c0.19-0.45,0.41-0.76,0.66-0.94c0.24-0.18,0.59-0.27,1.04-0.27h3.49
			c0.45,0,0.79,0.09,1.04,0.27c0.24,0.18,0.46,0.5,0.66,0.94l7.94,19.17c0.11,0.28,0.16,0.51,0.16,0.7c0,0.45-0.24,0.67-0.71,0.67
			h-6.02c-0.66,0-1.08-0.29-1.25-0.86l-0.77-2.37h-5.66l-0.74,2.37c-0.17,0.58-0.59,0.86-1.25,0.86h-6.02
			C250.72,497.15,250.49,496.93,250.49,496.48z M263.29,488.86l-1.25-3.97l-1.25,3.97H263.29z"/>
		<path d="M275.63,496.7c-0.29-0.3-0.43-0.76-0.43-1.38v-18.11c0-0.62,0.14-1.08,0.43-1.38c0.29-0.3,0.78-0.45,1.49-0.45h3.81
			c0.72,0,1.23,0.14,1.52,0.43c0.29,0.29,0.43,0.75,0.43,1.39v14.5h7.46c0.68,0,1.15,0.14,1.39,0.43c0.25,0.29,0.37,0.75,0.37,1.39
			v1.79c0,0.64-0.12,1.1-0.37,1.39c-0.25,0.29-0.71,0.43-1.39,0.43h-13.22C276.41,497.15,275.91,497,275.63,496.7z"/>
		<path d="M293,496.7c-0.29-0.3-0.43-0.76-0.43-1.38v-18.11c0-0.62,0.14-1.08,0.43-1.38s0.78-0.45,1.49-0.45h13.25
			c0.68,0,1.15,0.14,1.39,0.43s0.37,0.75,0.37,1.39v1.79c0,0.64-0.12,1.1-0.37,1.39s-0.71,0.43-1.39,0.43h-7.49v2.75h4.61
			c0.68,0,1.15,0.14,1.39,0.43s0.37,0.75,0.37,1.39v1.73c0,0.64-0.12,1.1-0.37,1.39s-0.71,0.43-1.39,0.43h-4.61v2.75h7.46
			c0.68,0,1.15,0.14,1.39,0.43c0.24,0.29,0.37,0.75,0.37,1.39v1.79c0,0.64-0.12,1.1-0.37,1.39c-0.25,0.29-0.71,0.43-1.39,0.43
			h-13.22C293.79,497.15,293.29,497,293,496.7z"/>
		<path d="M315,497.02c-1.66-0.41-3.01-0.97-4.03-1.7c-0.43-0.3-0.64-0.59-0.64-0.86c0-0.19,0.07-0.39,0.22-0.61l1.86-2.91
			c0.19-0.28,0.38-0.42,0.58-0.42c0.17,0,0.37,0.08,0.61,0.22c0.77,0.47,1.65,0.84,2.64,1.1s1.96,0.4,2.9,0.4
			c0.79,0,1.36-0.11,1.71-0.32s0.53-0.54,0.53-0.99c0-0.49-0.24-0.88-0.7-1.18c-0.47-0.3-1.28-0.67-2.43-1.12
			c-2.15-0.83-3.85-1.78-5.09-2.83c-1.24-1.06-1.86-2.46-1.86-4.21c0-2.22,0.77-3.89,2.32-5.01c1.55-1.12,3.63-1.68,6.26-1.68
			c1.83,0,3.4,0.16,4.69,0.48c1.29,0.32,2.42,0.82,3.38,1.5c0.43,0.3,0.64,0.59,0.64,0.86c0,0.19-0.07,0.39-0.22,0.61l-1.86,2.91
			c-0.19,0.3-0.38,0.45-0.58,0.45c-0.13,0-0.33-0.08-0.61-0.26c-0.51-0.34-1.12-0.62-1.82-0.85c-0.7-0.22-1.46-0.34-2.27-0.34
			c-0.75,0-1.31,0.11-1.7,0.32c-0.38,0.21-0.58,0.55-0.58,1.02c0,0.38,0.13,0.7,0.4,0.96c0.27,0.26,0.6,0.47,1.01,0.66
			c0.41,0.18,1.11,0.48,2.11,0.88c1.6,0.64,2.86,1.25,3.78,1.84c0.92,0.59,1.61,1.29,2.08,2.11c0.47,0.82,0.71,1.86,0.71,3.12
			c0,1.92-0.72,3.47-2.16,4.66c-1.44,1.18-3.59,1.78-6.45,1.78C318.47,497.63,316.67,497.43,315,497.02z"/>
		<path d="M331.45,501.41c-0.6,0-1.05-0.18-1.34-0.53c-0.3-0.35-0.45-0.92-0.45-1.71c0-0.66,0.02-1.15,0.06-1.46
			c0.04-0.31,0.15-0.58,0.32-0.82c0.17-0.23,0.46-0.53,0.86-0.9c1.04-0.92,1.76-2.07,2.14-3.46c0.38-1.39,0.58-3.22,0.58-5.5
			c0-2.28-0.19-4.12-0.58-5.5c-0.38-1.39-1.1-2.54-2.14-3.46c-0.41-0.36-0.69-0.66-0.86-0.9c-0.17-0.23-0.28-0.51-0.32-0.82
			c-0.04-0.31-0.06-0.79-0.06-1.46c0-0.79,0.15-1.36,0.45-1.71c0.3-0.35,0.75-0.53,1.34-0.53c0.58,0,1.35,0.17,2.34,0.51
			c1.45,0.51,2.75,1.45,3.89,2.82c1.14,1.37,2.03,3.01,2.66,4.93s0.94,3.96,0.94,6.11c0,2.16-0.32,4.19-0.94,6.11
			s-1.51,3.56-2.66,4.93c-1.14,1.37-2.44,2.3-3.89,2.82C332.8,501.24,332.02,501.41,331.45,501.41z"/>
	</g>
	<polygon class="st1" points="200.76,96.93 214.23,124.22 244.34,128.59 222.55,149.83 227.7,179.83 200.76,165.67 173.83,179.83 
		178.97,149.83 157.18,128.59 187.29,124.22 	"/>
	<polygon class="st1" points="138.58,180.15 147.32,197.86 166.86,200.7 152.72,214.48 156.06,233.94 138.58,224.75 121.11,233.94 
		124.45,214.48 110.31,200.7 129.85,197.86 	"/>
	<polygon class="st1" points="268.68,180.15 277.42,197.86 296.95,200.7 282.82,214.48 286.15,233.94 268.68,224.75 251.2,233.94 
		254.54,214.48 240.4,200.7 259.94,197.86 	"/>
	<circle class="st2" cx="201.77" cy="213.97" r="121.96"/>
	<circle class="st3" cx="200.82" cy="200.58" r="121.96"/>
	<g>
		<path class="st3" d="M183.41,643.85c-3.55-0.92-6.5-2.21-8.83-3.87c-0.58-0.44-0.88-0.92-0.88-1.46c0-0.44,0.22-1.05,0.66-1.83
			l3.65-6.28c0.44-0.73,0.9-1.1,1.39-1.1c0.24,0,0.8,0.22,1.68,0.66c3.55,2,7.69,2.99,12.41,2.99c2.38,0,4.26-0.51,5.62-1.53
			c1.36-1.02,2.04-2.53,2.04-4.53c0-3.89-2.09-5.84-6.28-5.84c-1.31,0-2.67,0.11-4.05,0.33c-1.39,0.22-2.54,0.5-3.47,0.84
			c-1.41,0.49-2.92,0.73-4.53,0.73c-2.24,0-4.05-0.54-5.44-1.61c-1.39-1.07-2.01-2.68-1.86-4.82l1.17-18.4
			c0.1-1.26,0.44-2.19,1.02-2.77s1.63-0.88,3.14-0.88h31.17c1.56,0,2.62,0.33,3.18,0.99c0.56,0.66,0.84,1.71,0.84,3.18v4.16
			c0,1.46-0.28,2.52-0.84,3.18c-0.56,0.66-1.62,0.99-3.18,0.99h-21.32l-0.22,3.5c0.78-0.19,1.93-0.35,3.47-0.47
			c1.53-0.12,2.76-0.18,3.69-0.18c6.67,0,11.83,1.3,15.48,3.91s5.48,7,5.48,13.18c0,3.8-1.04,7.08-3.1,9.85s-4.92,4.88-8.54,6.31
			c-3.63,1.43-7.73,2.15-12.3,2.15C190.71,645.24,186.96,644.77,183.41,643.85z"/>
	</g>
	
		<ellipse transform="matrix(0.9636 -0.2672 0.2672 0.9636 -43.9243 58.9469)" class="st132" cx="194.64" cy="190.88" rx="10.16" ry="9.96"/>
	
		<ellipse transform="matrix(0.9636 -0.2672 0.2672 0.9636 -52.0723 42.4221)" class="st133" cx="129.85" cy="212.55" rx="20.57" ry="20.18"/>
	<polygon class="st133" points="182.39,156.73 153.31,183.13 164.66,224.07 203.18,231.72 	"/>
	
		<rect x="137.76" y="187.15" transform="matrix(0.9636 -0.2672 0.2672 0.9636 -49.5227 47.1357)" class="st134" width="21.35" height="36.79"/>
	<path class="st134" d="M165.1,265.61L165.1,265.61c-5.66,1.57-11.57-1.78-13.14-7.44l-7.67-27.67c-1.57-5.66,1.78-11.57,7.44-13.14
		h0c5.66-1.57,11.57,1.78,13.14,7.44l7.67,27.67C174.1,258.13,170.76,264.04,165.1,265.61z"/>
	<g>
		<path class="st135" d="M273.41,181.52l-29.93,9.22c-5.2,1.6-10.76-1.34-12.36-6.54l0,0c-1.6-5.2,1.34-10.76,6.54-12.36l29.93-9.22
			c5.2-1.6,10.76,1.34,12.36,6.54v0C281.55,174.35,278.61,179.91,273.41,181.52z"/>
		<path class="st135" d="M253.92,137.55l-24.34,19.71c-4.23,3.42-10.49,2.77-13.91-1.46v0c-3.42-4.23-2.77-10.49,1.46-13.91
			l24.34-19.71c4.23-3.42,10.49-2.77,13.91,1.46v0C258.81,127.87,258.15,134.13,253.92,137.55z"/>
		<path class="st135" d="M244.64,228.37l31.21,2.6c5.42,0.45,10.22-3.61,10.68-9.03v0c0.45-5.42-3.61-10.22-9.03-10.68l-31.21-2.6
			c-5.42-0.45-10.22,3.61-10.68,9.03v0C235.16,223.11,239.22,227.92,244.64,228.37z"/>
	</g>
</g>
</svg>
