<?xml version="1.0" encoding="utf-8"?>
<!-- Generator: Adobe Illustrator 23.0.0, SVG Export Plug-In . SVG Version: 6.00 Build 0)  -->
<svg version="1.1" id="Capa_1" xmlns="http://www.w3.org/2000/svg" xmlns:xlink="http://www.w3.org/1999/xlink" x="0px" y="0px"
	 viewBox="0 0 400 702" style="enable-background:new 0 0 400 702;" xml:space="preserve">
<style type="text/css">
	.st0{fill:#0085B0;}
	.st1{fill:#E0EF18;}
	.st2{fill:#CECECE;}
	.st3{fill:#FFFFFF;}
	.st4{fill:#F2F2F2;}
	.st5{fill:#EACCB0;}
	.st6{fill:#9B9B9B;}
	.st7{fill:#939393;}
	.st8{fill:#EFEFEF;}
	.st9{fill:#828282;}
	.st10{fill:#2C2A2D;}
	.st11{fill:#202021;}
	.st12{fill:#F2D4B6;}
	.st13{fill:#534D46;}
	.st14{fill:#E8D313;}
	.st15{fill:#2ACCFF;}
	.st16{fill:#4E4F4F;}
	.st17{fill:#003A94;}
	.st18{fill:#00D13C;}
	.st19{fill:#15682A;}
	.st20{fill:#D40000;}
	.st21{fill:#505050;}
	.st22{fill:#DFDFDF;}
	.st23{fill:none;}
	.st24{fill:#636363;}
	.st25{fill:#6C92D5;}
	.st26{fill:#22272F;}
	.st27{fill:#1B2538;}
	.st28{fill:#253452;}
	.st29{fill:#F9F9F9;}
	.st30{fill:#2D3543;}
	.st31{fill:#2A3D60;}
	.st32{fill:#587955;}
	.st33{fill:#CD7054;}
	.st34{fill:#F1CC4B;}
	.st35{fill:#ACACAC;}
	.st36{fill:#AAE528;}
	.st37{fill:#28CEBA;}
	.st38{fill:#DB143F;}
	.st39{fill:#53C2C9;}
	.st40{fill:#FFB412;}
	.st41{fill:#866A5E;}
	.st42{fill:#F7DDCB;}
	.st43{fill:#FFE6D4;}
	.st44{fill:#F5F5F5;}
	.st45{fill:#1A2830;}
	.st46{fill:#24353F;}
	.st47{fill:#132026;}
	.st48{fill:#F9FF03;}
	.st49{fill:#272728;}
	.st50{fill:#1E1D1E;}
	.st51{fill:#160423;}
	.st52{fill-rule:evenodd;clip-rule:evenodd;fill:#FFFFFF;}
	.st53{fill-rule:evenodd;clip-rule:evenodd;fill:#1996B8;}
	.st54{fill:#0C387D;}
	.st55{fill:#C69A81;}
	.st56{fill:#D1A385;}
	.st57{fill:#EAEAEA;}
	.st58{fill:#093E8C;}
	.st59{fill:#0B2A62;}
	.st60{fill:#D32A3B;}
	.st61{fill:#827C7D;}
	.st62{opacity:0.7;fill:#7F7F7F;}
	.st63{fill:#FDFDFD;}
	.st64{fill:#DAA449;}
	.st65{fill:#DD9225;}
	.st66{opacity:0.3;}
	.st67{fill:#425793;}
	.st68{opacity:0.8;}
	.st69{filter:url(#Adobe_OpacityMaskFilter);}
	.st70{opacity:0.15;mask:url(#SVGID_1_);}
	.st71{fill:#090B00;}
	.st72{opacity:0.1;}
	.st73{fill:#211915;}
	.st74{filter:url(#Adobe_OpacityMaskFilter_1_);}
	.st75{opacity:0.15;mask:url(#SVGID_2_);}
	.st76{fill:#AF3623;}
	.st77{filter:url(#Adobe_OpacityMaskFilter_2_);}
	.st78{opacity:0.15;mask:url(#SVGID_3_);}
	.st79{filter:url(#Adobe_OpacityMaskFilter_3_);}
	.st80{opacity:0.15;mask:url(#SVGID_4_);}
	.st81{fill:#456495;}
	.st82{filter:url(#Adobe_OpacityMaskFilter_4_);}
	.st83{opacity:0.15;mask:url(#SVGID_5_);}
	.st84{filter:url(#Adobe_OpacityMaskFilter_5_);}
	.st85{opacity:0.15;mask:url(#SVGID_6_);}
	.st86{fill:#76A9DA;}
	.st87{filter:url(#Adobe_OpacityMaskFilter_6_);}
	.st88{opacity:0.15;mask:url(#SVGID_7_);}
	.st89{filter:url(#Adobe_OpacityMaskFilter_7_);}
	.st90{opacity:0.15;mask:url(#SVGID_8_);}
	.st91{fill:#1F3642;}
	.st92{fill:#A9BDDA;}
	.st93{opacity:0.46;fill:#A6B4BC;}
	.st94{fill:#74C475;}
	.st95{fill:#221F21;}
	.st96{fill:#2D2D2D;}
	.st97{fill:#1C1B1A;}
	.st98{fill:#77181C;}
	.st99{fill:#262525;}
	.st100{fill:#11100F;}
	.st101{opacity:0.18;}
	.st102{opacity:0.38;}
	.st103{fill:#0A5B1F;}
	.st104{opacity:0.27;}
	.st105{opacity:0.48;}
	.st106{fill:#0A4654;}
	.st107{fill:#C2C6C6;}
	.st108{fill:#E5E5E5;stroke:#FFFFFF;stroke-miterlimit:10;}
	.st109{fill:#ACB4B5;}
	.st110{fill:#7F8384;}
	.st111{fill:#15772F;}
	.st112{fill:#F4F4F4;}
	.st113{fill:#53B8DB;}
	.st114{fill:#06EF42;}
	.st115{fill:#E7ED07;}
	.st116{fill:#CCCCCA;}
	.st117{fill:#EADF13;}
	.st118{fill:#C2C2C2;}
	.st119{fill:#85B681;}
	.st120{fill:#A1DC9B;}
	.st121{fill:#90C58B;}
	.st122{fill:#22241F;}
	.st123{opacity:0.5;}
	.st124{fill:#A2CADE;}
	.st125{fill:#E9E9E9;}
	.st126{fill:#D9D9D9;}
	.st127{fill:#CDCDCD;}
	.st128{opacity:0.34;fill:#F0F0F0;}
	.st129{fill:#5A5B5A;}
	.st130{fill:#FFE600;}
	.st131{fill:#DB1F59;}
	.st132{fill:#727272;}
	.st133{fill:#207235;}
	.st134{fill:#A3A3A3;}
	.st135{fill:#BCBCBC;}
	.st136{fill:#0A511C;}
	.st137{fill:#F9FF00;}
	.st138{fill:#D59F6D;}
	.st139{fill:#C0804A;}
	.st140{fill:#E6BA8A;}
	.st141{fill:#BE3ACC;}
	.st142{fill:#FFFFFF;stroke:#443F0C;stroke-width:9;stroke-miterlimit:10;}
	.st143{fill:none;stroke:#443F0C;stroke-width:9;stroke-miterlimit:10;}
	.st144{fill:#170623;}
	.st145{fill:#158231;}
	.st146{fill:#C89D76;}
	.st147{opacity:0.4;}
	.st148{fill:#ADADAD;}
	.st149{fill:#EDC3A6;}
	.st150{opacity:0.69;}
	.st151{fill:#E5D3D6;}
	.st152{opacity:0.44;}
	.st153{fill:#A5A5A5;}
	.st154{fill:#DDE5E4;}
	.st155{fill:#5C9169;}
	.st156{fill:#934215;}
	.st157{fill:#47413B;}
	.st158{fill:#601A1F;}
	.st159{fill:#044554;}
	.st160{opacity:0.7;}
	.st161{fill:#7F7F7F;}
	.st162{fill:#6B8A69;}
	.st163{opacity:0.24;fill:#848D90;}
	.st164{opacity:0.4;fill:#848D90;}
	.st165{fill:#F2D5D5;}
	.st166{fill:#485CC1;}
	.st167{fill:#C6CBE0;}
	.st168{fill:#8B909E;}
	.st169{fill:#53BC1B;}
	.st170{fill:#11565B;}
	.st171{fill:#67A06D;}
	.st172{fill:#FFEC00;}
	.st173{fill:#77A007;}
	.st174{fill:#E50731;}
	.st175{fill:#266472;}
	.st176{fill:#D4D4D4;}
	.st177{fill:#0E9932;}
	.st178{fill:#87DD24;}
	.st179{fill:#76A172;}
	.st180{fill:#62835F;}
	.st181{fill:#96D090;}
	.st182{fill:#D6D6D6;}
	.st183{fill:#606060;}
	.st184{fill:#494949;}
	.st185{fill:#29E55A;}
	.st186{fill:#2C703D;}
	.st187{fill:#DD0744;}
	.st188{fill:#EDEDED;}
	.st189{fill:#2A5936;}
	.st190{fill:#B9BBC1;}
	.st191{fill:#FFD79E;}
	.st192{fill:#FFE6C2;}
	.st193{fill:#2CBB55;}
	.st194{fill:#5C412D;}
	.st195{fill:#EC0000;}
	.st196{fill:#DD2626;}
	.st197{fill:#EA9334;}
	.st198{fill:#FCC232;}
	.st199{fill:#F9B234;}
	.st200{fill:#F7A037;}
	.st201{fill:#E0E0E0;}
</style>
<g>
	<g>
		<path class="st0" d="M9.5,209.36c0,22,13.29,27.86,29.54,13.03c0,0,156.99-143.3,353.09,26.97V55c0-22-18-40-40-40H49.5
			c-22,0-40,18-40,40V209.36z"/>
	</g>
	<g>
		<path class="st0" d="M391.66,647c0,22-18,40-40,40H49.98c-22,0-40-18-40-40v-46.27c0-22,18-40,40-40h301.68c22,0,40,18,40,40V647z
			"/>
	</g>
	<g>
		<path d="M117.12,385.82c-2.83-2.51-4.24-6.22-4.24-11.15c0-4.9,1.41-8.61,4.24-11.13c2.83-2.52,6.78-3.78,11.84-3.78
			c2.3,0,4.35,0.22,6.17,0.67c1.82,0.45,3.33,1.08,4.54,1.89c0.34,0.25,0.5,0.53,0.5,0.84c0,0.25-0.13,0.6-0.38,1.05l-2.1,3.61
			c-0.22,0.39-0.49,0.59-0.8,0.59c-0.2,0-0.52-0.11-0.97-0.34c-1.68-0.84-3.53-1.26-5.54-1.26c-2.33,0-4.15,0.67-5.48,2
			c-1.33,1.33-2,3.28-2,5.86c0,2.66,0.56,4.63,1.68,5.9c1.12,1.27,2.79,1.91,5,1.91c0.39,0,0.83-0.04,1.32-0.11
			c0.49-0.07,0.89-0.15,1.2-0.23v-3.82h-2.69c-0.9,0-1.51-0.17-1.83-0.53c-0.32-0.35-0.48-0.94-0.48-1.78v-2.31
			c0-0.84,0.16-1.43,0.48-1.79c0.32-0.35,0.93-0.52,1.83-0.52h9.03c1.09,0,1.85,0.25,2.27,0.73c0.42,0.49,0.63,1.27,0.63,2.33v9.83
			c0,0.62-0.08,1.09-0.23,1.41c-0.15,0.32-0.46,0.65-0.9,0.99c-2.69,1.93-6.43,2.9-11.21,2.9
			C123.91,389.58,119.95,388.33,117.12,385.82z"/>
		<path d="M144.02,388.36c-0.38-0.39-0.57-0.99-0.57-1.81v-23.77c0-0.81,0.19-1.41,0.57-1.81c0.38-0.39,1.03-0.59,1.95-0.59h17.39
			c0.9,0,1.51,0.19,1.83,0.57c0.32,0.38,0.48,0.99,0.48,1.83v2.35c0,0.84-0.16,1.45-0.48,1.83c-0.32,0.38-0.93,0.57-1.83,0.57h-9.83
			v3.61h6.05c0.9,0,1.5,0.19,1.83,0.57s0.48,0.99,0.48,1.83v2.27c0,0.84-0.16,1.45-0.48,1.83s-0.93,0.57-1.83,0.57h-6.05v3.61h9.79
			c0.9,0,1.5,0.19,1.83,0.57s0.48,0.99,0.48,1.83v2.35c0,0.84-0.16,1.45-0.48,1.83s-0.93,0.57-1.83,0.57h-17.35
			C145.05,388.95,144.4,388.76,144.02,388.36z"/>
		<path d="M172.9,388.78c-2.18-0.53-3.95-1.27-5.29-2.23c-0.56-0.39-0.84-0.77-0.84-1.13c0-0.25,0.1-0.52,0.29-0.8l2.44-3.82
			c0.25-0.36,0.5-0.55,0.76-0.55c0.22,0,0.49,0.1,0.8,0.29c1.01,0.62,2.16,1.1,3.46,1.45c1.3,0.35,2.57,0.53,3.8,0.53
			c1.04,0,1.78-0.14,2.25-0.42c0.46-0.28,0.69-0.71,0.69-1.3c0-0.64-0.31-1.16-0.92-1.55c-0.62-0.39-1.68-0.88-3.19-1.47
			c-2.83-1.09-5.05-2.33-6.68-3.72c-1.62-1.39-2.44-3.23-2.44-5.52c0-2.91,1.01-5.1,3.04-6.57c2.03-1.47,4.77-2.21,8.21-2.21
			c2.41,0,4.46,0.21,6.15,0.63c1.69,0.42,3.17,1.08,4.43,1.97c0.56,0.39,0.84,0.77,0.84,1.13c0,0.25-0.1,0.52-0.29,0.8l-2.44,3.82
			c-0.25,0.39-0.5,0.59-0.76,0.59c-0.17,0-0.43-0.11-0.8-0.34c-0.67-0.45-1.47-0.82-2.39-1.11c-0.92-0.29-1.92-0.44-2.98-0.44
			c-0.98,0-1.72,0.14-2.23,0.42c-0.5,0.28-0.76,0.73-0.76,1.34c0,0.5,0.17,0.92,0.52,1.26s0.79,0.62,1.32,0.86
			c0.53,0.24,1.46,0.62,2.77,1.16c2.1,0.84,3.75,1.64,4.96,2.42c1.2,0.77,2.11,1.69,2.73,2.77c0.62,1.08,0.92,2.44,0.92,4.1
			c0,2.52-0.95,4.56-2.83,6.11c-1.89,1.55-4.71,2.33-8.46,2.33C177.45,389.58,175.08,389.32,172.9,388.78z"/>
		<path d="M199.59,388.36c-0.38-0.39-0.57-0.99-0.57-1.81v-19.03h-6.05c-0.9,0-1.5-0.19-1.83-0.57c-0.32-0.38-0.48-0.99-0.48-1.83
			v-2.35c0-0.84,0.16-1.45,0.48-1.83c0.32-0.38,0.93-0.57,1.83-0.57h22.18c0.9,0,1.51,0.19,1.83,0.57c0.32,0.38,0.48,0.99,0.48,1.83
			v2.35c0,0.84-0.16,1.45-0.48,1.83c-0.32,0.38-0.93,0.57-1.83,0.57h-6.05v19.03c0,0.81-0.19,1.41-0.57,1.81
			c-0.38,0.39-1.04,0.59-2,0.59h-5C200.62,388.95,199.96,388.76,199.59,388.36z"/>
		<path d="M219.28,388.36c-0.38-0.39-0.57-0.99-0.57-1.81v-23.77c0-0.81,0.19-1.41,0.57-1.81c0.38-0.39,1.03-0.59,1.95-0.59h5
			c0.95,0,1.62,0.19,2,0.57s0.57,0.99,0.57,1.83v23.77c0,0.81-0.19,1.41-0.57,1.81c-0.38,0.39-1.04,0.59-2,0.59h-5
			C220.31,388.95,219.66,388.76,219.28,388.36z"/>
		<path d="M234.76,385.7c-2.58-2.59-3.86-6.26-3.86-11.03c0-4.76,1.29-8.43,3.86-11.03c2.58-2.59,6.36-3.88,11.34-3.88
			c4.98,0,8.76,1.3,11.34,3.88c2.58,2.59,3.86,6.27,3.86,11.03c0,4.76-1.29,8.44-3.86,11.03s-6.36,3.88-11.34,3.88
			C241.12,389.58,237.34,388.29,234.76,385.7z M250.05,380.57c0.81-1.3,1.22-3.27,1.22-5.9c0-2.66-0.41-4.63-1.22-5.92
			c-0.81-1.29-2.13-1.93-3.95-1.93c-1.82,0-3.14,0.64-3.95,1.93c-0.81,1.29-1.22,3.26-1.22,5.92c0,2.63,0.41,4.6,1.22,5.9
			s2.13,1.95,3.95,1.95C247.92,382.53,249.24,381.88,250.05,380.57z M241.65,356.86c0-0.22,0.04-0.46,0.13-0.71l1.76-4.87
			c0.22-0.64,0.49-1.08,0.8-1.3c0.31-0.22,0.88-0.34,1.72-0.34h6.01c0.59,0,1.05,0.1,1.39,0.31s0.5,0.51,0.5,0.9
			c0,0.34-0.11,0.69-0.34,1.05l-2.69,4.54c-0.39,0.67-0.77,1.11-1.13,1.3c-0.36,0.2-1.02,0.29-1.97,0.29h-4.49
			C242.21,358.04,241.65,357.65,241.65,356.86z"/>
		<path d="M263.97,388.36c-0.38-0.39-0.57-0.99-0.57-1.81v-23.81c0-0.81,0.19-1.41,0.57-1.79s1.04-0.57,2-0.57h3.99
			c0.59,0,1.04,0.08,1.37,0.23c0.32,0.15,0.64,0.46,0.94,0.9l7.6,11.3v-10.04c0-0.81,0.19-1.41,0.57-1.81s1.03-0.59,1.95-0.59h5
			c0.95,0,1.62,0.19,1.99,0.57c0.38,0.38,0.57,0.99,0.57,1.83v23.81c0,0.81-0.19,1.41-0.57,1.78c-0.38,0.38-1.04,0.57-1.99,0.57
			h-3.99c-0.59,0-1.04-0.08-1.37-0.23c-0.32-0.15-0.64-0.45-0.95-0.9l-7.6-11.3v10.08c0,0.81-0.19,1.41-0.57,1.78
			c-0.38,0.38-1.04,0.57-2,0.57h-5C265,388.95,264.35,388.76,263.97,388.36z"/>
		<path d="M105.57,438.76c-0.38-0.39-0.57-0.99-0.57-1.81v-23.77c0-0.81,0.19-1.41,0.57-1.81s1.03-0.59,1.95-0.59h9.66
			c9.88,0,14.83,4.76,14.83,14.28c0,4.7-1.27,8.26-3.8,10.67c-2.53,2.41-6.21,3.61-11.02,3.61h-9.66
			C106.6,439.35,105.95,439.16,105.57,438.76z M117.56,432.21c1.57,0,2.7-0.52,3.38-1.55c0.69-1.04,1.03-2.9,1.03-5.59
			c0-2.69-0.34-4.55-1.03-5.59c-0.69-1.04-1.81-1.55-3.38-1.55h-2.48v14.28H117.56z"/>
		<path d="M134.68,438.76c-0.38-0.39-0.57-0.99-0.57-1.81v-23.77c0-0.81,0.19-1.41,0.57-1.81s1.03-0.59,1.95-0.59h17.39
			c0.9,0,1.5,0.19,1.83,0.57c0.32,0.38,0.48,0.99,0.48,1.83v2.35c0,0.84-0.16,1.45-0.48,1.83c-0.32,0.38-0.93,0.57-1.83,0.57h-9.83
			v3.61h6.05c0.9,0,1.5,0.19,1.83,0.57c0.32,0.38,0.48,0.99,0.48,1.83v2.27c0,0.84-0.16,1.45-0.48,1.83
			c-0.32,0.38-0.93,0.57-1.83,0.57h-6.05v3.61h9.79c0.9,0,1.5,0.19,1.83,0.57c0.32,0.38,0.48,0.99,0.48,1.83v2.35
			c0,0.84-0.16,1.45-0.48,1.83c-0.32,0.38-0.93,0.57-1.83,0.57h-17.35C135.71,439.35,135.05,439.16,134.68,438.76z"/>
		<path d="M171.38,438.76c-0.38-0.39-0.57-0.99-0.57-1.81v-23.77c0-0.81,0.19-1.41,0.57-1.81c0.38-0.39,1.03-0.59,1.95-0.59h12.73
			c3.42,0,5.93,0.73,7.54,2.18c1.61,1.46,2.41,3.53,2.41,6.22c0,1.26-0.27,2.37-0.82,3.34s-1.27,1.65-2.16,2.04
			c2.49,0.84,3.74,2.8,3.74,5.88c0,2.63-0.93,4.77-2.79,6.43c-1.86,1.65-4.6,2.48-8.21,2.48h-12.43
			C172.41,439.35,171.76,439.16,171.38,438.76z M184.05,421.59c1.29,0,1.93-0.62,1.93-1.85c0-1.23-0.64-1.85-1.93-1.85h-3.19v3.7
			H184.05z M184.76,432.25c0.59,0,1.06-0.19,1.43-0.57c0.36-0.38,0.55-0.89,0.55-1.53c0-0.67-0.18-1.19-0.53-1.55
			c-0.35-0.36-0.83-0.55-1.45-0.55h-3.91v4.2H184.76z"/>
		<path d="M195.3,438.47c0-0.25,0.07-0.56,0.21-0.92l10.46-25.16c0.25-0.59,0.54-1,0.86-1.24c0.32-0.24,0.78-0.36,1.36-0.36h4.58
			c0.59,0,1.04,0.12,1.36,0.36c0.32,0.24,0.61,0.65,0.86,1.24l10.42,25.16c0.14,0.36,0.21,0.67,0.21,0.92
			c0,0.59-0.31,0.88-0.92,0.88h-7.9c-0.87,0-1.41-0.38-1.64-1.13l-1.01-3.11h-7.43l-0.97,3.11c-0.22,0.76-0.77,1.13-1.64,1.13h-7.9
			C195.61,439.35,195.3,439.06,195.3,438.47z M212.1,428.47l-1.64-5.21l-1.64,5.21H212.1z"/>
		<path d="M231.17,439.18c-2.18-0.53-3.95-1.27-5.29-2.23c-0.56-0.39-0.84-0.77-0.84-1.13c0-0.25,0.1-0.52,0.29-0.8l2.44-3.82
			c0.25-0.36,0.5-0.55,0.76-0.55c0.22,0,0.49,0.1,0.8,0.29c1.01,0.62,2.16,1.1,3.46,1.45c1.3,0.35,2.57,0.53,3.8,0.53
			c1.04,0,1.78-0.14,2.25-0.42c0.46-0.28,0.69-0.71,0.69-1.3c0-0.64-0.31-1.16-0.92-1.55c-0.62-0.39-1.68-0.88-3.19-1.47
			c-2.83-1.09-5.05-2.33-6.68-3.72c-1.62-1.39-2.44-3.23-2.44-5.52c0-2.91,1.01-5.1,3.04-6.57c2.03-1.47,4.77-2.21,8.21-2.21
			c2.41,0,4.46,0.21,6.15,0.63c1.69,0.42,3.17,1.08,4.43,1.97c0.56,0.39,0.84,0.77,0.84,1.13c0,0.25-0.1,0.52-0.29,0.8l-2.44,3.82
			c-0.25,0.39-0.5,0.59-0.76,0.59c-0.17,0-0.43-0.11-0.8-0.34c-0.67-0.45-1.47-0.82-2.39-1.11s-1.92-0.44-2.98-0.44
			c-0.98,0-1.72,0.14-2.23,0.42c-0.5,0.28-0.76,0.73-0.76,1.34c0,0.5,0.17,0.92,0.52,1.26s0.79,0.62,1.32,0.86
			c0.53,0.24,1.46,0.62,2.77,1.16c2.1,0.84,3.75,1.64,4.96,2.42c1.2,0.77,2.11,1.69,2.73,2.77c0.62,1.08,0.92,2.44,0.92,4.1
			c0,2.52-0.95,4.56-2.83,6.11c-1.89,1.55-4.71,2.33-8.46,2.33C235.72,439.98,233.35,439.72,231.17,439.18z"/>
		<path d="M252.23,438.76c-0.38-0.39-0.57-0.99-0.57-1.81v-23.77c0-0.81,0.19-1.41,0.57-1.81s1.03-0.59,1.95-0.59h17.39
			c0.9,0,1.5,0.19,1.83,0.57c0.32,0.38,0.48,0.99,0.48,1.83v2.35c0,0.84-0.16,1.45-0.48,1.83c-0.32,0.38-0.93,0.57-1.83,0.57h-9.83
			v3.61h6.05c0.89,0,1.5,0.19,1.83,0.57s0.48,0.99,0.48,1.83v2.27c0,0.84-0.16,1.45-0.48,1.83s-0.93,0.57-1.83,0.57h-6.05v3.61h9.79
			c0.9,0,1.5,0.19,1.83,0.57c0.32,0.38,0.48,0.99,0.48,1.83v2.35c0,0.84-0.16,1.45-0.48,1.83c-0.32,0.38-0.93,0.57-1.83,0.57h-17.35
			C253.26,439.35,252.61,439.16,252.23,438.76z"/>
		<path d="M281.11,439.18c-2.18-0.53-3.95-1.27-5.29-2.23c-0.56-0.39-0.84-0.77-0.84-1.13c0-0.25,0.1-0.52,0.29-0.8l2.44-3.82
			c0.25-0.36,0.5-0.55,0.76-0.55c0.22,0,0.49,0.1,0.8,0.29c1.01,0.62,2.16,1.1,3.46,1.45c1.3,0.35,2.57,0.53,3.8,0.53
			c1.04,0,1.79-0.14,2.25-0.42c0.46-0.28,0.69-0.71,0.69-1.3c0-0.64-0.31-1.16-0.92-1.55c-0.62-0.39-1.68-0.88-3.19-1.47
			c-2.83-1.09-5.05-2.33-6.68-3.72c-1.63-1.39-2.44-3.23-2.44-5.52c0-2.91,1.01-5.1,3.04-6.57c2.03-1.47,4.77-2.21,8.21-2.21
			c2.41,0,4.46,0.21,6.15,0.63c1.69,0.42,3.17,1.08,4.43,1.97c0.56,0.39,0.84,0.77,0.84,1.13c0,0.25-0.1,0.52-0.29,0.8l-2.44,3.82
			c-0.25,0.39-0.5,0.59-0.76,0.59c-0.17,0-0.43-0.11-0.8-0.34c-0.67-0.45-1.47-0.82-2.39-1.11c-0.92-0.29-1.92-0.44-2.98-0.44
			c-0.98,0-1.72,0.14-2.23,0.42c-0.5,0.28-0.76,0.73-0.76,1.34c0,0.5,0.17,0.92,0.53,1.26c0.35,0.34,0.79,0.62,1.32,0.86
			c0.53,0.24,1.46,0.62,2.77,1.16c2.1,0.84,3.75,1.64,4.96,2.42c1.2,0.77,2.11,1.69,2.73,2.77c0.62,1.08,0.92,2.44,0.92,4.1
			c0,2.52-0.95,4.56-2.83,6.11s-4.71,2.33-8.46,2.33C285.66,439.98,283.29,439.72,281.11,439.18z"/>
		<path d="M104.14,489.16c-0.38-0.39-0.57-0.99-0.57-1.81v-23.77c0-0.81,0.19-1.41,0.57-1.81c0.38-0.39,1.03-0.59,1.95-0.59h9.66
			c9.88,0,14.83,4.76,14.83,14.28c0,4.7-1.27,8.26-3.8,10.67c-2.53,2.41-6.21,3.61-11.02,3.61h-9.66
			C105.17,489.75,104.52,489.56,104.14,489.16z M116.13,482.61c1.57,0,2.7-0.52,3.38-1.55c0.69-1.04,1.03-2.9,1.03-5.59
			c0-2.69-0.34-4.55-1.03-5.59c-0.69-1.04-1.81-1.55-3.38-1.55h-2.48v14.28H116.13z"/>
		<path d="M133.25,489.16c-0.38-0.39-0.57-0.99-0.57-1.81v-23.77c0-0.81,0.19-1.41,0.57-1.81s1.03-0.59,1.95-0.59h17.39
			c0.9,0,1.5,0.19,1.83,0.57c0.32,0.38,0.48,0.99,0.48,1.83v2.35c0,0.84-0.16,1.45-0.48,1.83c-0.32,0.38-0.93,0.57-1.83,0.57h-9.83
			v3.61h6.05c0.9,0,1.5,0.19,1.83,0.57c0.32,0.38,0.48,0.99,0.48,1.83v2.27c0,0.84-0.16,1.45-0.48,1.83
			c-0.32,0.38-0.93,0.57-1.83,0.57h-6.05v3.61h9.79c0.9,0,1.5,0.19,1.83,0.57c0.32,0.38,0.48,0.99,0.48,1.83v2.35
			c0,0.84-0.16,1.45-0.48,1.83c-0.32,0.38-0.93,0.57-1.83,0.57H135.2C134.28,489.75,133.63,489.56,133.25,489.16z"/>
		<path d="M169.96,489.16c-0.38-0.39-0.57-0.99-0.57-1.81v-23.77c0-0.81,0.19-1.41,0.57-1.81s1.03-0.59,1.95-0.59h9.66
			c9.88,0,14.83,4.76,14.83,14.28c0,4.7-1.27,8.26-3.8,10.67c-2.53,2.41-6.21,3.61-11.02,3.61h-9.66
			C170.98,489.75,170.33,489.56,169.96,489.16z M181.95,482.61c1.57,0,2.7-0.52,3.38-1.55c0.69-1.04,1.03-2.9,1.03-5.59
			c0-2.69-0.34-4.55-1.03-5.59c-0.69-1.04-1.81-1.55-3.38-1.55h-2.48v14.28H181.95z"/>
		<path d="M195.76,488.87c0-0.25,0.07-0.56,0.21-0.92l10.46-25.16c0.25-0.59,0.54-1,0.86-1.24c0.32-0.24,0.78-0.36,1.37-0.36h4.58
			c0.59,0,1.04,0.12,1.36,0.36c0.32,0.24,0.61,0.65,0.86,1.24l10.42,25.16c0.14,0.36,0.21,0.67,0.21,0.92
			c0,0.59-0.31,0.88-0.92,0.88h-7.9c-0.87,0-1.41-0.38-1.64-1.13l-1.01-3.11h-7.43l-0.97,3.11c-0.22,0.76-0.77,1.13-1.64,1.13h-7.9
			C196.07,489.75,195.76,489.46,195.76,488.87z M212.56,478.87l-1.64-5.21l-1.64,5.21H212.56z"/>
		<path d="M230.18,489.16c-0.38-0.39-0.57-0.99-0.57-1.81v-19.03h-6.05c-0.9,0-1.5-0.19-1.83-0.57c-0.32-0.38-0.48-0.99-0.48-1.83
			v-2.35c0-0.84,0.16-1.45,0.48-1.83c0.32-0.38,0.93-0.57,1.83-0.57h22.18c0.9,0,1.5,0.19,1.83,0.57s0.48,0.99,0.48,1.83v2.35
			c0,0.84-0.16,1.45-0.48,1.83s-0.93,0.57-1.83,0.57h-6.05v19.03c0,0.81-0.19,1.41-0.57,1.81c-0.38,0.39-1.04,0.59-2,0.59h-5
			C231.21,489.75,230.56,489.56,230.18,489.16z"/>
		<path d="M250.45,486.5c-2.58-2.59-3.86-6.26-3.86-11.03c0-4.76,1.29-8.43,3.86-11.02s6.36-3.89,11.34-3.89
			c4.98,0,8.76,1.3,11.34,3.89s3.86,6.26,3.86,11.02c0,4.76-1.29,8.44-3.86,11.03s-6.36,3.88-11.34,3.88
			C256.8,490.38,253.02,489.09,250.45,486.5z M265.74,481.37c0.81-1.3,1.22-3.27,1.22-5.9c0-2.66-0.41-4.63-1.22-5.92
			c-0.81-1.29-2.13-1.93-3.95-1.93s-3.14,0.64-3.95,1.93c-0.81,1.29-1.22,3.26-1.22,5.92c0,2.63,0.41,4.6,1.22,5.9
			c0.81,1.3,2.13,1.95,3.95,1.95S264.92,482.67,265.74,481.37z"/>
		<path d="M282.54,489.58c-2.18-0.53-3.95-1.27-5.29-2.23c-0.56-0.39-0.84-0.77-0.84-1.13c0-0.25,0.1-0.52,0.29-0.8l2.44-3.82
			c0.25-0.36,0.5-0.55,0.76-0.55c0.22,0,0.49,0.1,0.8,0.29c1.01,0.62,2.16,1.1,3.46,1.45c1.3,0.35,2.57,0.53,3.8,0.53
			c1.04,0,1.79-0.14,2.25-0.42s0.69-0.71,0.69-1.3c0-0.64-0.31-1.16-0.92-1.55c-0.62-0.39-1.68-0.88-3.19-1.47
			c-2.83-1.09-5.05-2.33-6.68-3.72c-1.63-1.39-2.44-3.23-2.44-5.52c0-2.91,1.01-5.1,3.04-6.57c2.03-1.47,4.77-2.21,8.21-2.21
			c2.41,0,4.46,0.21,6.15,0.63c1.69,0.42,3.17,1.08,4.43,1.97c0.56,0.39,0.84,0.77,0.84,1.13c0,0.25-0.1,0.52-0.29,0.8l-2.44,3.82
			c-0.25,0.39-0.5,0.59-0.76,0.59c-0.17,0-0.44-0.11-0.8-0.34c-0.67-0.45-1.47-0.82-2.39-1.11c-0.92-0.29-1.92-0.44-2.98-0.44
			c-0.98,0-1.72,0.14-2.23,0.42c-0.5,0.28-0.76,0.73-0.76,1.34c0,0.5,0.17,0.92,0.53,1.26c0.35,0.34,0.79,0.62,1.32,0.86
			c0.53,0.24,1.46,0.62,2.77,1.16c2.1,0.84,3.75,1.64,4.96,2.42c1.2,0.77,2.11,1.69,2.73,2.77c0.62,1.08,0.92,2.44,0.92,4.1
			c0,2.52-0.95,4.56-2.84,6.11c-1.89,1.55-4.71,2.33-8.46,2.33C287.08,490.38,284.72,490.12,282.54,489.58z"/>
	</g>
	<polygon class="st1" points="200.76,96.93 214.23,124.22 244.34,128.59 222.55,149.83 227.7,179.83 200.76,165.67 173.83,179.83 
		178.97,149.83 157.18,128.59 187.29,124.22 	"/>
	<polygon class="st1" points="138.58,180.15 147.32,197.86 166.86,200.7 152.72,214.48 156.06,233.94 138.58,224.75 121.11,233.94 
		124.45,214.48 110.31,200.7 129.85,197.86 	"/>
	<polygon class="st1" points="268.68,180.15 277.42,197.86 296.95,200.7 282.82,214.48 286.15,233.94 268.68,224.75 251.2,233.94 
		254.54,214.48 240.4,200.7 259.94,197.86 	"/>
	<circle class="st2" cx="201.77" cy="213.97" r="121.96"/>
	<circle class="st3" cx="200.82" cy="200.58" r="121.96"/>
	<g>
		<path class="st3" d="M179.79,639.51c-4.11-3.82-6.17-9.72-6.17-17.7c0-6.13,1.16-11.34,3.47-15.62c2.31-4.28,5.33-7.48,9.05-9.6
			s7.7-3.18,11.94-3.18c3.55,0,6.65,0.38,9.31,1.13c2.65,0.75,5.05,1.86,7.19,3.32c0.58,0.44,0.88,0.92,0.88,1.46
			c0,0.44-0.22,1.05-0.66,1.83l-3.5,6.06c-0.39,0.68-0.85,1.02-1.39,1.02c-0.34,0-0.9-0.19-1.68-0.58
			c-2.48-1.31-5.26-1.97-8.32-1.97c-2.43,0-4.46,0.54-6.1,1.61c-1.63,1.07-3.05,2.65-4.27,4.75c1.41-0.73,3.14-1.34,5.18-1.83
			c2.04-0.49,3.99-0.73,5.84-0.73c4.04,0,7.41,0.71,10.11,2.12c2.7,1.41,4.71,3.3,6.02,5.66c1.31,2.36,1.97,4.98,1.97,7.85
			c0,6.67-1.98,11.69-5.95,15.07c-3.97,3.38-9.58,5.07-16.83,5.07C189.27,645.24,183.9,643.33,179.79,639.51z M200.01,631.29
			c0.8-1.12,1.21-2.9,1.21-5.33s-0.4-4.21-1.21-5.33c-0.8-1.12-2.15-1.68-4.05-1.68c-1.7,0-2.93,0.56-3.69,1.68
			c-0.75,1.12-1.13,2.9-1.13,5.33s0.38,4.21,1.13,5.33c0.75,1.12,1.98,1.68,3.69,1.68C197.86,632.97,199.21,632.42,200.01,631.29z"
			/>
	</g>
	<g>
		<g>
			<path class="st24" d="M147.81,134.8c-13.69,0-24.79,11.1-24.79,24.79c0,13.69,11.1,24.79,24.79,24.79
				c13.69,0,24.79-11.1,24.79-24.79C172.59,145.89,161.5,134.8,147.81,134.8z M148.16,175.93c-8.83,0-16-7.16-16-16s7.16-16,16-16
				c8.83,0,16,7.16,16,16S156.99,175.93,148.16,175.93z"/>
			
				<rect x="156.42" y="129.87" transform="matrix(0.866 0.5 -0.5 0.866 89.0137 -62.6116)" class="st24" width="9.84" height="9.84"/>
			<rect x="129" y="177.69" transform="matrix(0.866 0.5 -0.5 0.866 109.2475 -42.4937)" class="st24" width="9.84" height="9.84"/>
			
				<rect x="159.23" y="176.28" transform="matrix(0.9098 -0.415 0.415 0.9098 -60.4012 84.4746)" class="st24" width="9.84" height="9.84"/>
			
				<rect x="127.24" y="130.93" transform="matrix(0.8315 -0.5555 0.5555 0.8315 -53.1991 96.3072)" class="st24" width="9.84" height="9.84"/>
			
				<rect x="169.43" y="153.08" transform="matrix(0.0419 0.9991 -0.9991 0.0419 324.9108 -22.8136)" class="st24" width="9.84" height="9.84"/>
			
				<rect x="114.93" y="154.48" transform="matrix(0.0419 0.9991 -0.9991 0.0419 274.1024 32.9817)" class="st24" width="9.84" height="9.84"/>
		</g>
		<g>
			<path class="st25" d="M181.92,284.36c-1.29,0.64-4.19,1.33-7.96,1.33c-10.72,0-16.24-6.67-16.24-15.5
				c0-10.58,7.54-16.47,16.93-16.47c3.63,0,6.4,0.74,7.64,1.38l-1.43,5.57c-1.43-0.6-3.4-1.15-5.89-1.15
				c-5.57,0-9.89,3.36-9.89,10.26c0,6.21,3.68,10.12,9.94,10.12c2.12,0,4.46-0.46,5.84-1.01L181.92,284.36z"/>
			<path class="st25" d="M186.51,254.64c2.25-0.37,5.61-0.64,9.34-0.64c4.6,0,7.82,0.69,10.03,2.44c1.84,1.47,2.85,3.63,2.85,6.49
				c0,3.96-2.81,6.67-5.47,7.64v0.14c2.16,0.88,3.36,2.94,4.14,5.8c0.97,3.5,1.93,7.54,2.53,8.74h-7.18
				c-0.51-0.87-1.24-3.4-2.16-7.22c-0.83-3.86-2.16-4.92-5.01-4.97h-2.12v12.19h-6.95V254.64z M193.46,267.98h2.76
				c3.5,0,5.57-1.75,5.57-4.46c0-2.85-1.93-4.28-5.15-4.32c-1.7,0-2.67,0.14-3.17,0.23V267.98z"/>
			<path class="st25" d="M240.02,273.36c-0.14-3.73-0.28-8.24-0.28-12.74h-0.14c-0.97,3.96-2.25,8.37-3.45,12.01l-3.77,12.1h-5.47
				l-3.31-12.01c-1.01-3.63-2.07-8.05-2.81-12.1h-0.09c-0.18,4.19-0.32,8.97-0.55,12.84l-0.55,11.78h-6.49l1.98-31.01h9.34
				l3.04,10.35c0.97,3.59,1.93,7.45,2.62,11.09h0.14c0.87-3.59,1.93-7.68,2.94-11.13l3.31-10.31h9.16l1.7,31.01h-6.86L240.02,273.36
				z"/>
		</g>
		<g>
			<g>
				<polygon class="st23" points="269.58,164.17 269.58,164.17 269,162.68 269,162.68 				"/>
			</g>
			<path class="st24" d="M190.36,111.09c-15.03,5.92-22.41,22.9-16.49,37.93c5.92,15.03,22.9,22.41,37.93,16.49
				c15.03-5.92,22.41-22.9,16.49-37.93C222.37,112.55,205.39,105.17,190.36,111.09z M208.54,156.09
				c-9.7,3.82-20.66-0.94-24.48-10.64s0.94-20.66,10.64-24.48s20.66,0.94,24.48,10.64S218.24,152.27,208.54,156.09z"/>
			
				<rect x="199.41" y="99.43" transform="matrix(0.989 0.1477 -0.1477 0.989 17.7938 -29.1558)" class="st24" width="11.61" height="11.61"/>
			
				<rect x="189.99" y="163.77" transform="matrix(0.989 0.1477 -0.1477 0.989 27.194 -27.0588)" class="st24" width="11.61" height="11.61"/>
			
				<rect x="222.57" y="149.15" transform="matrix(0.6943 -0.7197 0.7197 0.6943 -41.708 211.7303)" class="st24" width="11.61" height="11.61"/>
			
				<rect x="167.84" y="113.21" transform="matrix(0.57 -0.8217 0.8217 0.57 -23.1182 193.8604)" class="st24" width="11.61" height="11.61"/>
			
				<rect x="223.73" y="119.27" transform="matrix(0.4052 0.9142 -0.9142 0.4052 250.8641 -135.4484)" class="st24" width="11.61" height="11.61"/>
			
				<rect x="164.52" y="144.39" transform="matrix(0.4052 0.9142 -0.9142 0.4052 238.6093 -66.3839)" class="st24" width="11.61" height="11.61"/>
		</g>
		<g>
			<g>
				<path class="st26" d="M273.55,226.1c0,3.28-2.68,5.96-5.96,5.96H147.05c-3.28,0-5.96-2.68-5.96-5.96v-69.8
					c0-3.26,2.68-5.94,5.96-5.94h120.54c3.27,0,5.96,2.68,5.96,5.94V226.1z"/>
				<path class="st27" d="M272.95,150.36h-59.63h-60.91c-3.28,0-5.96,2.68-5.96,5.94v69.8c0,3.28,2.68,5.96,5.96,5.96h60.91h59.63
					c3.27,0,5.95-2.68,5.95-5.96v-69.8C278.9,153.05,276.22,150.36,272.95,150.36z"/>
				<path class="st28" d="M267.59,150.36h-59.62h-60.92c-3.28,0-5.96,2.68-5.96,5.94v69.8c0,3.28,2.68,5.96,5.96,5.96h60.92h59.62
					c3.27,0,5.96-2.68,5.96-5.96v-69.8C273.55,153.05,270.86,150.36,267.59,150.36z"/>
				<path class="st29" d="M265.19,155.68h-57.23h-58.52c-1.96,0-3.57,1.63-3.57,3.58v63.9c0,1.97,1.61,3.57,3.57,3.57h58.52h57.23
					c1.96,0,3.57-1.6,3.57-3.57v-63.9C268.76,157.3,267.15,155.68,265.19,155.68z"/>
			</g>
			<g>
				<path class="st27" d="M211.33,232.06v12.14h65.94c5.93,0,10.73-4.8,10.73-10.73v-1.41H211.33z"/>
				<path class="st30" d="M129.99,232.06v1.41c0,5.93,4.81,10.73,10.73,10.73h67.23v-12.14H129.99z"/>
			</g>
			<path class="st31" d="M173.93,232.06H95.95v1.41c0,5.93,4.81,10.73,10.74,10.73h67.23h65.94c5.93,0,10.74-4.8,10.74-10.73v-1.41
				H173.93z"/>
		</g>
		<g id="_x39__1_">
			<path class="st25" d="M240.6,199.85l-0.27,0.02l0.54,24.18c3.28-0.08,6.6-0.81,9.75-2.29c1.63-0.77,3.14-1.7,4.51-2.76
				c3.79-2.93,6.54-6.87,8.05-11.24L240.6,199.85z"/>
			<path class="st32" d="M258.16,183.52c-6.96-7.6-18.3-10.15-28.12-5.54c-2,0.95-3.81,2.13-5.42,3.5l15.71,18.38l0.15-0.01
				l17.9-16.07C258.31,183.7,258.24,183.61,258.16,183.52z"/>
			<path class="st33" d="M264.44,197.85c-0.23-2.79-0.95-5.59-2.22-8.27c-1.02-2.16-2.32-4.09-3.83-5.79l-17.9,16.07l0.11-0.01
				l22.58,7.9C264.27,204.6,264.72,201.23,264.44,197.85z"/>
			<path class="st34" d="M240.34,199.87l-15.71-18.38c-5.56,4.74-8.63,11.75-8.47,18.94c0.07,3.27,0.81,6.58,2.29,9.74
				c4.2,8.93,13.16,14.08,22.42,13.89L240.34,199.87z"/>
		</g>
		<g>
			<g>
				<rect x="152.05" y="179.19" class="st34" width="9.42" height="8.29"/>
				<rect x="164.48" y="179.19" class="st35" width="45.5" height="8.29"/>
			</g>
			<g>
				<rect x="152.05" y="189.78" class="st25" width="9.42" height="8.29"/>
				<rect x="164.48" y="189.78" class="st35" width="45.5" height="8.29"/>
			</g>
			<g>
				<rect x="152.05" y="200.35" class="st32" width="9.42" height="8.29"/>
				<rect x="164.48" y="200.35" class="st35" width="45.5" height="8.29"/>
			</g>
			<g>
				<rect x="152.05" y="210.94" class="st33" width="9.42" height="8.29"/>
				<rect x="164.48" y="210.94" class="st35" width="45.5" height="8.29"/>
			</g>
		</g>
		<g>
			<path class="st25" d="M172.85,171.9c-0.49,0.25-1.61,0.51-3.05,0.51c-4.11,0-6.23-2.56-6.23-5.94c0-4.06,2.89-6.32,6.49-6.32
				c1.39,0,2.45,0.28,2.93,0.53l-0.55,2.13c-0.55-0.23-1.3-0.44-2.26-0.44c-2.13,0-3.79,1.29-3.79,3.93c0,2.38,1.41,3.88,3.81,3.88
				c0.81,0,1.71-0.18,2.24-0.39L172.85,171.9z"/>
			<path class="st25" d="M174.61,160.5c0.86-0.14,2.15-0.25,3.58-0.25c1.76,0,3,0.26,3.85,0.93c0.71,0.56,1.09,1.39,1.09,2.49
				c0,1.52-1.08,2.56-2.1,2.93v0.05c0.83,0.33,1.29,1.13,1.59,2.22c0.37,1.34,0.74,2.89,0.97,3.35h-2.75
				c-0.19-0.33-0.48-1.31-0.83-2.77c-0.32-1.48-0.83-1.89-1.92-1.91h-0.81v4.67h-2.66V160.5z M177.27,165.62h1.06
				c1.34,0,2.13-0.67,2.13-1.71c0-1.09-0.74-1.64-1.97-1.66c-0.65,0-1.02,0.05-1.22,0.09V165.62z"/>
			<path class="st25" d="M195.12,167.68c-0.05-1.43-0.11-3.16-0.11-4.89h-0.05c-0.37,1.52-0.86,3.21-1.32,4.6l-1.45,4.64h-2.1
				l-1.27-4.6c-0.39-1.39-0.79-3.09-1.08-4.64h-0.04c-0.07,1.6-0.12,3.44-0.21,4.92l-0.21,4.52h-2.49l0.76-11.89h3.58l1.16,3.97
				c0.37,1.38,0.74,2.86,1.01,4.25h0.05c0.33-1.38,0.74-2.95,1.13-4.27l1.27-3.95h3.51l0.65,11.89h-2.63L195.12,167.68z"/>
		</g>
	</g>
</g>
</svg>
