<?xml version="1.0" encoding="utf-8"?>
<!-- Generator: Adobe Illustrator 23.0.0, SVG Export Plug-In . SVG Version: 6.00 Build 0)  -->
<svg version="1.1" id="Capa_1" xmlns="http://www.w3.org/2000/svg" xmlns:xlink="http://www.w3.org/1999/xlink" x="0px" y="0px"
	 viewBox="0 0 400 702" style="enable-background:new 0 0 400 702;" xml:space="preserve">
<style type="text/css">
	.st0{fill:#0085B0;}
	.st1{fill:#E0EF18;}
	.st2{fill:#CECECE;}
	.st3{fill:#FFFFFF;}
	.st4{fill:#F2F2F2;}
	.st5{fill:#EACCB0;}
	.st6{fill:#9B9B9B;}
	.st7{fill:#939393;}
	.st8{fill:#EFEFEF;}
	.st9{fill:#828282;}
	.st10{fill:#2C2A2D;}
	.st11{fill:#202021;}
	.st12{fill:#F2D4B6;}
	.st13{fill:#534D46;}
	.st14{fill:#E8D313;}
	.st15{fill:#2ACCFF;}
	.st16{fill:#4E4F4F;}
	.st17{fill:#003A94;}
	.st18{fill:#00D13C;}
	.st19{fill:#15682A;}
	.st20{fill:#D40000;}
	.st21{fill:#505050;}
	.st22{fill:#DFDFDF;}
	.st23{fill:none;}
	.st24{fill:#636363;}
	.st25{fill:#6C92D5;}
	.st26{fill:#22272F;}
	.st27{fill:#1B2538;}
	.st28{fill:#253452;}
	.st29{fill:#F9F9F9;}
	.st30{fill:#2D3543;}
	.st31{fill:#2A3D60;}
	.st32{fill:#587955;}
	.st33{fill:#CD7054;}
	.st34{fill:#F1CC4B;}
	.st35{fill:#ACACAC;}
	.st36{fill:#AAE528;}
	.st37{fill:#28CEBA;}
	.st38{fill:#DB143F;}
	.st39{fill:#53C2C9;}
	.st40{fill:#FFB412;}
	.st41{fill:#866A5E;}
	.st42{fill:#F7DDCB;}
	.st43{fill:#FFE6D4;}
	.st44{fill:#F5F5F5;}
	.st45{fill:#1A2830;}
	.st46{fill:#24353F;}
	.st47{fill:#132026;}
	.st48{fill:#F9FF03;}
	.st49{fill:#272728;}
	.st50{fill:#1E1D1E;}
	.st51{fill:#160423;}
	.st52{fill-rule:evenodd;clip-rule:evenodd;fill:#FFFFFF;}
	.st53{fill-rule:evenodd;clip-rule:evenodd;fill:#1996B8;}
	.st54{fill:#0C387D;}
	.st55{fill:#C69A81;}
	.st56{fill:#D1A385;}
	.st57{fill:#EAEAEA;}
	.st58{fill:#093E8C;}
	.st59{fill:#0B2A62;}
	.st60{fill:#D32A3B;}
	.st61{fill:#827C7D;}
	.st62{opacity:0.7;fill:#7F7F7F;}
	.st63{fill:#FDFDFD;}
	.st64{fill:#DAA449;}
	.st65{fill:#DD9225;}
	.st66{opacity:0.3;}
	.st67{fill:#425793;}
	.st68{opacity:0.8;}
	.st69{filter:url(#Adobe_OpacityMaskFilter);}
	.st70{opacity:0.15;mask:url(#SVGID_1_);}
	.st71{fill:#090B00;}
	.st72{opacity:0.1;}
	.st73{fill:#211915;}
	.st74{filter:url(#Adobe_OpacityMaskFilter_1_);}
	.st75{opacity:0.15;mask:url(#SVGID_2_);}
	.st76{fill:#AF3623;}
	.st77{filter:url(#Adobe_OpacityMaskFilter_2_);}
	.st78{opacity:0.15;mask:url(#SVGID_3_);}
	.st79{filter:url(#Adobe_OpacityMaskFilter_3_);}
	.st80{opacity:0.15;mask:url(#SVGID_4_);}
	.st81{fill:#456495;}
	.st82{filter:url(#Adobe_OpacityMaskFilter_4_);}
	.st83{opacity:0.15;mask:url(#SVGID_5_);}
	.st84{filter:url(#Adobe_OpacityMaskFilter_5_);}
	.st85{opacity:0.15;mask:url(#SVGID_6_);}
	.st86{fill:#76A9DA;}
	.st87{filter:url(#Adobe_OpacityMaskFilter_6_);}
	.st88{opacity:0.15;mask:url(#SVGID_7_);}
	.st89{filter:url(#Adobe_OpacityMaskFilter_7_);}
	.st90{opacity:0.15;mask:url(#SVGID_8_);}
	.st91{fill:#1F3642;}
	.st92{fill:#A9BDDA;}
	.st93{opacity:0.46;fill:#A6B4BC;}
	.st94{fill:#74C475;}
	.st95{fill:#221F21;}
	.st96{fill:#2D2D2D;}
	.st97{fill:#1C1B1A;}
	.st98{fill:#77181C;}
	.st99{fill:#262525;}
	.st100{fill:#11100F;}
	.st101{opacity:0.18;}
	.st102{opacity:0.38;}
	.st103{fill:#0A5B1F;}
	.st104{opacity:0.27;}
	.st105{opacity:0.48;}
	.st106{fill:#0A4654;}
	.st107{fill:#C2C6C6;}
	.st108{fill:#E5E5E5;stroke:#FFFFFF;stroke-miterlimit:10;}
	.st109{fill:#ACB4B5;}
	.st110{fill:#7F8384;}
	.st111{fill:#15772F;}
	.st112{fill:#F4F4F4;}
	.st113{fill:#53B8DB;}
	.st114{fill:#06EF42;}
	.st115{fill:#E7ED07;}
	.st116{fill:#CCCCCA;}
	.st117{fill:#EADF13;}
	.st118{fill:#C2C2C2;}
	.st119{fill:#85B681;}
	.st120{fill:#A1DC9B;}
	.st121{fill:#90C58B;}
	.st122{fill:#22241F;}
	.st123{opacity:0.5;}
	.st124{fill:#A2CADE;}
	.st125{fill:#E9E9E9;}
	.st126{fill:#D9D9D9;}
	.st127{fill:#CDCDCD;}
	.st128{opacity:0.34;fill:#F0F0F0;}
	.st129{fill:#5A5B5A;}
	.st130{fill:#FFE600;}
	.st131{fill:#DB1F59;}
	.st132{fill:#727272;}
	.st133{fill:#207235;}
	.st134{fill:#A3A3A3;}
	.st135{fill:#BCBCBC;}
	.st136{fill:#0A511C;}
	.st137{fill:#F9FF00;}
	.st138{fill:#D59F6D;}
	.st139{fill:#C0804A;}
	.st140{fill:#E6BA8A;}
	.st141{fill:#BE3ACC;}
	.st142{fill:#FFFFFF;stroke:#443F0C;stroke-width:9;stroke-miterlimit:10;}
	.st143{fill:none;stroke:#443F0C;stroke-width:9;stroke-miterlimit:10;}
	.st144{fill:#170623;}
	.st145{fill:#158231;}
	.st146{fill:#C89D76;}
	.st147{opacity:0.4;}
	.st148{fill:#ADADAD;}
	.st149{fill:#EDC3A6;}
	.st150{opacity:0.69;}
	.st151{fill:#E5D3D6;}
	.st152{opacity:0.44;}
	.st153{fill:#A5A5A5;}
	.st154{fill:#DDE5E4;}
	.st155{fill:#5C9169;}
	.st156{fill:#934215;}
	.st157{fill:#47413B;}
	.st158{fill:#601A1F;}
	.st159{fill:#044554;}
	.st160{opacity:0.7;}
	.st161{fill:#7F7F7F;}
	.st162{fill:#6B8A69;}
	.st163{opacity:0.24;fill:#848D90;}
	.st164{opacity:0.4;fill:#848D90;}
	.st165{fill:#F2D5D5;}
	.st166{fill:#485CC1;}
	.st167{fill:#C6CBE0;}
	.st168{fill:#8B909E;}
	.st169{fill:#53BC1B;}
	.st170{fill:#11565B;}
	.st171{fill:#67A06D;}
	.st172{fill:#FFEC00;}
	.st173{fill:#77A007;}
	.st174{fill:#E50731;}
	.st175{fill:#266472;}
	.st176{fill:#D4D4D4;}
	.st177{fill:#0E9932;}
	.st178{fill:#87DD24;}
	.st179{fill:#76A172;}
	.st180{fill:#62835F;}
	.st181{fill:#96D090;}
	.st182{fill:#D6D6D6;}
	.st183{fill:#606060;}
	.st184{fill:#494949;}
	.st185{fill:#29E55A;}
	.st186{fill:#2C703D;}
	.st187{fill:#DD0744;}
	.st188{fill:#EDEDED;}
	.st189{fill:#2A5936;}
	.st190{fill:#B9BBC1;}
	.st191{fill:#FFD79E;}
	.st192{fill:#FFE6C2;}
	.st193{fill:#2CBB55;}
	.st194{fill:#5C412D;}
	.st195{fill:#EC0000;}
	.st196{fill:#DD2626;}
	.st197{fill:#EA9334;}
	.st198{fill:#FCC232;}
	.st199{fill:#F9B234;}
	.st200{fill:#F7A037;}
	.st201{fill:#E0E0E0;}
</style>
<g>
	<g>
		<path class="st18" d="M9.5,209.36c0,22,13.29,27.86,29.54,13.03c0,0,156.99-143.3,353.09,26.97V55c0-22-18-40-40-40H49.5
			c-22,0-40,18-40,40V209.36z"/>
	</g>
	<g>
		<path class="st18" d="M391.66,647c0,22-18,40-40,40H49.98c-22,0-40-18-40-40v-46.27c0-22,18-40,40-40h301.68c22,0,40,18,40,40V647
			z"/>
	</g>
	<g>
		<path d="M31.36,410.07c0-0.25,0.07-0.56,0.21-0.92l10.46-25.16c0.25-0.59,0.54-1,0.86-1.24c0.32-0.24,0.78-0.36,1.36-0.36h4.58
			c0.59,0,1.04,0.12,1.36,0.36c0.32,0.24,0.61,0.65,0.86,1.24l10.42,25.16c0.14,0.36,0.21,0.67,0.21,0.92
			c0,0.59-0.31,0.88-0.92,0.88h-7.9c-0.87,0-1.41-0.38-1.64-1.13l-1.01-3.11h-7.43l-0.97,3.11c-0.22,0.76-0.77,1.13-1.64,1.13h-7.9
			C31.67,410.95,31.36,410.66,31.36,410.07z M48.16,400.07l-1.64-5.21l-1.64,5.21H48.16z"/>
		<path d="M67.19,407.82c-2.83-2.51-4.24-6.22-4.24-11.15c0-4.9,1.41-8.61,4.24-11.13c2.83-2.52,6.78-3.78,11.84-3.78
			c2.3,0,4.35,0.22,6.17,0.67c1.82,0.45,3.33,1.08,4.54,1.89c0.34,0.25,0.5,0.53,0.5,0.84c0,0.25-0.13,0.6-0.38,1.05l-2.1,3.61
			c-0.22,0.39-0.49,0.59-0.8,0.59c-0.2,0-0.52-0.11-0.97-0.34c-1.68-0.84-3.53-1.26-5.54-1.26c-2.32,0-4.15,0.67-5.48,2
			c-1.33,1.33-2,3.28-2,5.86c0,2.66,0.56,4.63,1.68,5.9c1.12,1.27,2.79,1.91,5,1.91c0.39,0,0.83-0.04,1.32-0.11
			c0.49-0.07,0.89-0.15,1.2-0.23v-3.82H79.5c-0.9,0-1.51-0.17-1.83-0.53c-0.32-0.35-0.48-0.94-0.48-1.78v-2.31
			c0-0.84,0.16-1.43,0.48-1.79c0.32-0.35,0.93-0.52,1.83-0.52h9.03c1.09,0,1.85,0.25,2.27,0.73c0.42,0.49,0.63,1.27,0.63,2.33v9.83
			c0,0.62-0.08,1.09-0.23,1.41c-0.15,0.32-0.46,0.65-0.9,0.99c-2.69,1.93-6.43,2.9-11.21,2.9
			C73.98,411.58,70.02,410.33,67.19,407.82z"/>
		<path d="M94.09,410.36c-0.38-0.39-0.57-0.99-0.57-1.81v-23.77c0-0.81,0.19-1.41,0.57-1.81s1.03-0.59,1.95-0.59h17.39
			c0.9,0,1.5,0.19,1.83,0.57c0.32,0.38,0.48,0.99,0.48,1.83v2.35c0,0.84-0.16,1.45-0.48,1.83c-0.32,0.38-0.93,0.57-1.83,0.57h-9.83
			v3.61h6.05c0.9,0,1.5,0.19,1.83,0.57c0.32,0.38,0.48,0.99,0.48,1.83v2.27c0,0.84-0.16,1.45-0.48,1.83
			c-0.32,0.38-0.93,0.57-1.83,0.57h-6.05v3.61h9.79c0.9,0,1.5,0.19,1.83,0.57c0.32,0.38,0.48,0.99,0.48,1.83v2.35
			c0,0.84-0.16,1.45-0.48,1.83c-0.32,0.38-0.93,0.57-1.83,0.57H96.04C95.12,410.95,94.47,410.76,94.09,410.36z"/>
		<path d="M118.2,410.36c-0.38-0.39-0.57-0.99-0.57-1.81v-23.81c0-0.81,0.19-1.41,0.57-1.79s1.04-0.57,2-0.57h3.99
			c0.59,0,1.04,0.08,1.37,0.23c0.32,0.15,0.64,0.46,0.94,0.9l7.6,11.3v-10.04c0-0.81,0.19-1.41,0.57-1.81s1.03-0.59,1.95-0.59h5
			c0.95,0,1.62,0.19,1.99,0.57c0.38,0.38,0.57,0.99,0.57,1.83v23.81c0,0.81-0.19,1.41-0.57,1.78c-0.38,0.38-1.04,0.57-1.99,0.57
			h-3.99c-0.59,0-1.04-0.08-1.36-0.23c-0.32-0.15-0.64-0.45-0.95-0.9l-7.6-11.3v10.08c0,0.81-0.19,1.41-0.57,1.78s-1.04,0.57-2,0.57
			h-5C119.23,410.95,118.58,410.76,118.2,410.36z"/>
		<path d="M147.68,410.36c-0.38-0.39-0.57-0.99-0.57-1.81v-23.77c0-0.81,0.19-1.41,0.57-1.81s1.03-0.59,1.95-0.59h9.66
			c9.88,0,14.83,4.76,14.83,14.28c0,4.7-1.27,8.26-3.8,10.67c-2.53,2.41-6.21,3.61-11.02,3.61h-9.66
			C148.71,410.95,148.06,410.76,147.68,410.36z M159.67,403.81c1.57,0,2.69-0.52,3.38-1.55c0.69-1.04,1.03-2.9,1.03-5.59
			c0-2.69-0.34-4.55-1.03-5.59c-0.69-1.04-1.81-1.55-3.38-1.55h-2.48v14.28H159.67z"/>
		<path d="M173.49,410.07c0-0.25,0.07-0.56,0.21-0.92l10.46-25.16c0.25-0.59,0.54-1,0.86-1.24c0.32-0.24,0.78-0.36,1.36-0.36h4.58
			c0.59,0,1.04,0.12,1.36,0.36c0.32,0.24,0.61,0.65,0.86,1.24l10.42,25.16c0.14,0.36,0.21,0.67,0.21,0.92
			c0,0.59-0.31,0.88-0.92,0.88H195c-0.87,0-1.41-0.38-1.64-1.13l-1.01-3.11h-7.43l-0.97,3.11c-0.22,0.76-0.77,1.13-1.64,1.13h-7.9
			C173.8,410.95,173.49,410.66,173.49,410.07z M190.29,400.07l-1.64-5.21l-1.64,5.21H190.29z"/>
		<path d="M205.43,410.36c-0.38-0.39-0.57-0.99-0.57-1.81v-23.81c0-0.81,0.19-1.41,0.57-1.79s1.04-0.57,2-0.57h4.83
			c0.62,0,1.11,0.08,1.47,0.23c0.36,0.15,0.64,0.46,0.84,0.9l4.91,12.31l4.91-12.31c0.2-0.45,0.48-0.75,0.84-0.9
			c0.36-0.15,0.85-0.23,1.47-0.23h4.83c0.95,0,1.62,0.19,1.99,0.57c0.38,0.38,0.57,0.97,0.57,1.79v23.81c0,0.81-0.19,1.41-0.57,1.81
			c-0.38,0.39-1.03,0.59-1.95,0.59h-4.03c-0.92,0-1.58-0.2-1.97-0.59c-0.39-0.39-0.59-0.99-0.59-1.81v-11.47l-2.48,5.71
			c-0.34,0.81-0.7,1.39-1.09,1.74c-0.39,0.35-1.04,0.53-1.93,0.53c-0.9,0-1.54-0.17-1.93-0.53c-0.39-0.35-0.76-0.93-1.09-1.74
			l-2.48-5.71v11.47c0,0.81-0.19,1.41-0.57,1.81c-0.38,0.39-1.04,0.59-2,0.59h-4.03C206.46,410.95,205.81,410.76,205.43,410.36z"/>
		<path d="M237.6,410.36c-0.38-0.39-0.57-0.99-0.57-1.81v-23.77c0-0.81,0.19-1.41,0.57-1.81s1.03-0.59,1.95-0.59h5
			c0.95,0,1.62,0.19,2,0.57s0.57,0.99,0.57,1.83v23.77c0,0.81-0.19,1.41-0.57,1.81c-0.38,0.39-1.04,0.59-2,0.59h-5
			C238.63,410.95,237.98,410.76,237.6,410.36z"/>
		<path d="M250.62,410.36c-0.38-0.39-0.57-0.99-0.57-1.81v-23.77c0-0.81,0.19-1.41,0.57-1.81s1.03-0.59,1.95-0.59h17.39
			c0.9,0,1.5,0.19,1.83,0.57c0.32,0.38,0.48,0.99,0.48,1.83v2.35c0,0.84-0.16,1.45-0.48,1.83c-0.32,0.38-0.93,0.57-1.83,0.57h-9.83
			v3.61h6.05c0.9,0,1.5,0.19,1.83,0.57c0.32,0.38,0.48,0.99,0.48,1.83v2.27c0,0.84-0.16,1.45-0.48,1.83
			c-0.32,0.38-0.93,0.57-1.83,0.57h-6.05v3.61h9.79c0.9,0,1.5,0.19,1.83,0.57c0.32,0.38,0.48,0.99,0.48,1.83v2.35
			c0,0.84-0.16,1.45-0.48,1.83c-0.32,0.38-0.93,0.57-1.83,0.57h-17.35C251.65,410.95,251,410.76,250.62,410.36z"/>
		<path d="M274.73,410.36c-0.38-0.39-0.57-0.99-0.57-1.81v-23.81c0-0.81,0.19-1.41,0.57-1.79s1.04-0.57,2-0.57h3.99
			c0.59,0,1.04,0.08,1.37,0.23c0.32,0.15,0.64,0.46,0.94,0.9l7.6,11.3v-10.04c0-0.81,0.19-1.41,0.57-1.81s1.03-0.59,1.95-0.59h5
			c0.95,0,1.62,0.19,1.99,0.57c0.38,0.38,0.57,0.99,0.57,1.83v23.81c0,0.81-0.19,1.41-0.57,1.78c-0.38,0.38-1.04,0.57-1.99,0.57
			h-3.99c-0.59,0-1.04-0.08-1.36-0.23c-0.32-0.15-0.64-0.45-0.95-0.9l-7.6-11.3v10.08c0,0.81-0.19,1.41-0.57,1.78s-1.04,0.57-2,0.57
			h-5C275.76,410.95,275.11,410.76,274.73,410.36z"/>
		<path d="M310.89,410.36c-0.38-0.39-0.57-0.99-0.57-1.81v-19.03h-6.05c-0.9,0-1.51-0.19-1.83-0.57c-0.32-0.38-0.48-0.99-0.48-1.83
			v-2.35c0-0.84,0.16-1.45,0.48-1.83c0.32-0.38,0.93-0.57,1.83-0.57h22.18c0.9,0,1.5,0.19,1.83,0.57c0.32,0.38,0.48,0.99,0.48,1.83
			v2.35c0,0.84-0.16,1.45-0.48,1.83c-0.32,0.38-0.93,0.57-1.83,0.57h-6.05v19.03c0,0.81-0.19,1.41-0.57,1.81
			c-0.38,0.39-1.04,0.59-2,0.59h-5C311.92,410.95,311.27,410.76,310.89,410.36z"/>
		<path d="M331.16,407.7c-2.58-2.59-3.86-6.26-3.86-11.03c0-4.76,1.29-8.43,3.86-11.03c2.58-2.59,6.36-3.88,11.34-3.88
			c4.98,0,8.76,1.3,11.34,3.88c2.58,2.59,3.86,6.27,3.86,11.03c0,4.76-1.29,8.44-3.86,11.03s-6.36,3.88-11.34,3.88
			C337.51,411.58,333.73,410.29,331.16,407.7z M346.45,402.57c0.81-1.3,1.22-3.27,1.22-5.9c0-2.66-0.41-4.63-1.22-5.92
			c-0.81-1.29-2.13-1.93-3.95-1.93c-1.82,0-3.14,0.64-3.95,1.93c-0.81,1.29-1.22,3.26-1.22,5.92c0,2.63,0.41,4.6,1.22,5.9
			c0.81,1.3,2.13,1.95,3.95,1.95C344.32,404.53,345.63,403.88,346.45,402.57z"/>
		<path d="M110.83,460.76c-0.38-0.39-0.57-0.99-0.57-1.81v-23.77c0-0.81,0.19-1.41,0.57-1.81s1.03-0.59,1.95-0.59h9.66
			c9.88,0,14.83,4.76,14.83,14.28c0,4.7-1.27,8.26-3.8,10.67c-2.53,2.41-6.21,3.61-11.02,3.61h-9.66
			C111.86,461.35,111.21,461.16,110.83,460.76z M122.82,454.21c1.57,0,2.69-0.52,3.38-1.55c0.69-1.04,1.03-2.9,1.03-5.59
			c0-2.69-0.34-4.55-1.03-5.59c-0.69-1.04-1.81-1.55-3.38-1.55h-2.48v14.28H122.82z"/>
		<path d="M139.93,460.76c-0.38-0.39-0.57-0.99-0.57-1.81v-23.77c0-0.81,0.19-1.41,0.57-1.81s1.03-0.59,1.95-0.59h17.39
			c0.9,0,1.5,0.19,1.83,0.57c0.32,0.38,0.48,0.99,0.48,1.83v2.35c0,0.84-0.16,1.45-0.48,1.83c-0.32,0.38-0.93,0.57-1.83,0.57h-9.83
			v3.61h6.05c0.9,0,1.5,0.19,1.83,0.57c0.32,0.38,0.48,0.99,0.48,1.83v2.27c0,0.84-0.16,1.45-0.48,1.83
			c-0.32,0.38-0.93,0.57-1.83,0.57h-6.05v3.61h9.79c0.9,0,1.5,0.19,1.83,0.57c0.32,0.38,0.48,0.99,0.48,1.83v2.35
			c0,0.84-0.16,1.45-0.48,1.83c-0.32,0.38-0.93,0.57-1.83,0.57h-17.35C140.96,461.35,140.31,461.16,139.93,460.76z"/>
		<path d="M179.48,458.22c-2.83-2.51-4.24-6.22-4.24-11.15c0-4.96,1.37-8.68,4.1-11.17c2.73-2.49,6.63-3.74,11.7-3.74
			c2.3,0,4.34,0.22,6.13,0.67c1.79,0.45,3.29,1.08,4.49,1.89c0.34,0.25,0.5,0.53,0.5,0.84c0,0.25-0.13,0.6-0.38,1.05l-2.1,3.61
			c-0.22,0.39-0.49,0.59-0.8,0.59c-0.2,0-0.52-0.11-0.97-0.34c-0.78-0.39-1.6-0.7-2.46-0.92c-0.85-0.22-1.86-0.34-3-0.34
			c-2.32,0-4.1,0.67-5.33,2.02c-1.23,1.34-1.85,3.29-1.85,5.84c0,2.52,0.67,4.46,2.02,5.82c1.34,1.36,3.18,2.04,5.5,2.04
			c2.02,0,3.86-0.42,5.54-1.26c0.45-0.22,0.77-0.34,0.97-0.34c0.31,0,0.57,0.2,0.8,0.59l2.1,3.61c0.25,0.45,0.38,0.8,0.38,1.05
			c0,0.31-0.17,0.59-0.5,0.84c-1.2,0.81-2.72,1.44-4.54,1.89c-1.82,0.45-3.88,0.67-6.17,0.67
			C186.27,461.98,182.3,460.73,179.48,458.22z"/>
		<path d="M205.24,460.76c-0.38-0.39-0.57-0.99-0.57-1.81v-23.77c0-0.81,0.19-1.41,0.57-1.81s1.03-0.59,1.95-0.59h5
			c0.95,0,1.62,0.19,2,0.57s0.57,0.99,0.57,1.83v23.77c0,0.81-0.19,1.41-0.57,1.81c-0.38,0.39-1.04,0.59-2,0.59h-5
			C206.27,461.35,205.62,461.16,205.24,460.76z"/>
		<path d="M224.94,460.76c-0.38-0.39-0.57-0.99-0.57-1.81v-19.03h-6.05c-0.9,0-1.51-0.19-1.83-0.57c-0.32-0.38-0.48-0.99-0.48-1.83
			v-2.35c0-0.84,0.16-1.45,0.48-1.83c0.32-0.38,0.93-0.57,1.83-0.57h22.18c0.9,0,1.5,0.19,1.83,0.57c0.32,0.38,0.48,0.99,0.48,1.83
			v2.35c0,0.84-0.16,1.45-0.48,1.83c-0.32,0.38-0.93,0.57-1.83,0.57h-6.05v19.03c0,0.81-0.19,1.41-0.57,1.81
			c-0.38,0.39-1.04,0.59-2,0.59h-5C225.97,461.35,225.32,461.16,224.94,460.76z"/>
		<path d="M237.98,460.47c0-0.25,0.07-0.56,0.21-0.92l10.46-25.16c0.25-0.59,0.54-1,0.86-1.24c0.32-0.24,0.78-0.36,1.36-0.36h4.58
			c0.59,0,1.04,0.12,1.36,0.36c0.32,0.24,0.61,0.65,0.86,1.24l10.42,25.16c0.14,0.36,0.21,0.67,0.21,0.92
			c0,0.59-0.31,0.88-0.92,0.88h-7.9c-0.87,0-1.41-0.38-1.64-1.13l-1.01-3.11h-7.43l-0.97,3.11c-0.22,0.76-0.77,1.13-1.64,1.13h-7.9
			C238.29,461.35,237.98,461.06,237.98,460.47z M254.78,450.47l-1.64-5.21l-1.64,5.21H254.78z"/>
		<path d="M273.85,461.18c-2.18-0.53-3.95-1.27-5.29-2.23c-0.56-0.39-0.84-0.77-0.84-1.13c0-0.25,0.1-0.52,0.29-0.8l2.44-3.82
			c0.25-0.36,0.5-0.55,0.76-0.55c0.22,0,0.49,0.1,0.8,0.29c1.01,0.62,2.16,1.1,3.46,1.45c1.3,0.35,2.57,0.53,3.8,0.53
			c1.04,0,1.78-0.14,2.25-0.42c0.46-0.28,0.69-0.71,0.69-1.3c0-0.64-0.31-1.16-0.92-1.55c-0.62-0.39-1.68-0.88-3.19-1.47
			c-2.83-1.09-5.05-2.33-6.68-3.72c-1.62-1.39-2.44-3.23-2.44-5.52c0-2.91,1.01-5.1,3.04-6.57c2.03-1.47,4.77-2.21,8.21-2.21
			c2.41,0,4.46,0.21,6.15,0.63c1.69,0.42,3.17,1.08,4.43,1.97c0.56,0.39,0.84,0.77,0.84,1.13c0,0.25-0.1,0.52-0.29,0.8l-2.44,3.82
			c-0.25,0.39-0.5,0.59-0.76,0.59c-0.17,0-0.43-0.11-0.8-0.34c-0.67-0.45-1.47-0.82-2.39-1.11c-0.92-0.29-1.92-0.44-2.98-0.44
			c-0.98,0-1.72,0.14-2.23,0.42c-0.5,0.28-0.76,0.73-0.76,1.34c0,0.5,0.17,0.92,0.52,1.26c0.35,0.34,0.79,0.62,1.32,0.86
			c0.53,0.24,1.46,0.62,2.77,1.16c2.1,0.84,3.75,1.64,4.96,2.42c1.2,0.77,2.11,1.69,2.73,2.77c0.62,1.08,0.92,2.44,0.92,4.1
			c0,2.52-0.95,4.56-2.83,6.11c-1.89,1.55-4.71,2.33-8.46,2.33C278.4,461.98,276.03,461.72,273.85,461.18z"/>
	</g>
	<polygon class="st1" points="200.76,96.93 214.23,124.22 244.34,128.59 222.55,149.83 227.7,179.83 200.76,165.67 173.83,179.83 
		178.97,149.83 157.18,128.59 187.29,124.22 	"/>
	<polygon class="st1" points="138.58,180.15 147.32,197.86 166.86,200.7 152.72,214.48 156.06,233.94 138.58,224.75 121.11,233.94 
		124.45,214.48 110.31,200.7 129.85,197.86 	"/>
	<polygon class="st1" points="268.68,180.15 277.42,197.86 296.95,200.7 282.82,214.48 286.15,233.94 268.68,224.75 251.2,233.94 
		254.54,214.48 240.4,200.7 259.94,197.86 	"/>
	<circle class="st2" cx="201.77" cy="213.97" r="121.96"/>
	<circle class="st3" cx="200.82" cy="200.58" r="121.96"/>
	<g>
		<path class="st3" d="M179.35,642.61c0-0.49,0.15-1.02,0.44-1.61l16.86-34.09h-18.1c-1.56,0-2.62-0.33-3.18-0.99
			c-0.56-0.66-0.84-1.71-0.84-3.17v-4.09c0-1.46,0.28-2.52,0.84-3.18c0.56-0.66,1.62-0.99,3.18-0.99h33.87c2.09,0,3.5,0.3,4.23,0.91
			c0.73,0.61,1.1,1.74,1.1,3.39c0,1.85-0.32,3.36-0.95,4.53l-19.2,38.84c-0.34,0.68-0.72,1.18-1.13,1.5
			c-0.41,0.32-0.99,0.47-1.72,0.47h-13.72C179.91,644.14,179.35,643.63,179.35,642.61z"/>
	</g>
	<g>
		<path class="st111" d="M281,157.74v90.3c0,4.41-3.58,8.01-8,8.01H129.25c-4.41,0-8.01-3.6-8.01-8.01v-90.3H281z"/>
		<path class="st3" d="M281,142.18v15.56H121.24v-15.56c0-4.43,3.6-8,8.01-8H273C277.42,134.18,281,137.75,281,142.18z"/>
		<rect x="180.76" y="173.04" class="st3" width="18.34" height="18.35"/>
		<rect x="205.45" y="173.04" class="st3" width="18.34" height="18.35"/>
		<rect x="230.13" y="173.04" class="st3" width="18.34" height="18.35"/>
		<rect x="254.81" y="173.04" class="st3" width="18.34" height="18.35"/>
		<rect x="131.4" y="197.72" class="st3" width="18.34" height="18.35"/>
		<rect x="156.08" y="197.72" class="st3" width="18.34" height="18.35"/>
		<rect x="180.76" y="197.72" class="st3" width="18.34" height="18.35"/>
		<rect x="205.45" y="197.72" class="st3" width="18.34" height="18.35"/>
		<rect x="230.13" y="197.72" class="st3" width="18.34" height="18.35"/>
		<rect x="254.81" y="197.72" class="st3" width="18.34" height="18.35"/>
		<rect x="131.4" y="222.4" class="st3" width="18.34" height="18.34"/>
		<rect x="156.08" y="222.4" class="st3" width="18.34" height="18.34"/>
		<rect x="180.76" y="222.4" class="st3" width="18.34" height="18.34"/>
		<rect x="205.45" y="222.4" class="st3" width="18.34" height="18.34"/>
		<rect x="230.13" y="222.4" class="st3" width="18.34" height="18.34"/>
		<rect x="254.81" y="222.4" class="st3" width="18.34" height="18.34"/>
		<g>
			<path class="st33" d="M253.17,222.15c-3.73,5.5-7.92,10.68-11.93,16.01c-0.93,1.23-2.88,1.39-4.14,0.72
				c-3.47-1.79-5.42-5.87-7.9-8.38c-2.16-2.77,1.63-3.36,3.47-2.05c2.35,1.68,4,4.08,6.13,5.92c3.74-4.32,8.25-8.22,11.42-12.92
				C251.54,219.51,255.01,219.44,253.17,222.15z"/>
		</g>
		<path class="st34" d="M145.42,145.45c0,2.8-2.27,5.08-5.08,5.08l0,0c-2.8,0-5.07-2.27-5.07-5.08v-18.87c0-2.8,2.27-5.08,5.07-5.08
			l0,0c2.81,0,5.08,2.27,5.08,5.08V145.45z"/>
		<path class="st34" d="M206.2,145.45c0,2.8-2.27,5.08-5.07,5.08l0,0c-2.81,0-5.08-2.27-5.08-5.08v-18.87c0-2.8,2.27-5.08,5.08-5.08
			l0,0c2.8,0,5.07,2.27,5.07,5.08V145.45z"/>
		<path class="st34" d="M266.98,145.45c0,2.8-2.27,5.08-5.08,5.08l0,0c-2.8,0-5.08-2.27-5.08-5.08v-18.87c0-2.8,2.27-5.08,5.08-5.08
			l0,0c2.8,0,5.08,2.27,5.08,5.08V145.45z"/>
	</g>
</g>
</svg>
