<?xml version="1.0" encoding="utf-8"?>
<!-- Generator: Adobe Illustrator 23.0.0, SVG Export Plug-In . SVG Version: 6.00 Build 0)  -->
<svg version="1.1" id="Capa_1" xmlns="http://www.w3.org/2000/svg" xmlns:xlink="http://www.w3.org/1999/xlink" x="0px" y="0px"
	 viewBox="0 0 400 702" style="enable-background:new 0 0 400 702;" xml:space="preserve">
<style type="text/css">
	.st0{fill:#0085B0;}
	.st1{fill:#E0EF18;}
	.st2{fill:#CECECE;}
	.st3{fill:#FFFFFF;}
	.st4{fill:#F2F2F2;}
	.st5{fill:#EACCB0;}
	.st6{fill:#9B9B9B;}
	.st7{fill:#939393;}
	.st8{fill:#EFEFEF;}
	.st9{fill:#828282;}
	.st10{fill:#2C2A2D;}
	.st11{fill:#202021;}
	.st12{fill:#F2D4B6;}
	.st13{fill:#534D46;}
	.st14{fill:#E8D313;}
	.st15{fill:#2ACCFF;}
	.st16{fill:#4E4F4F;}
	.st17{fill:#003A94;}
	.st18{fill:#00D13C;}
	.st19{fill:#15682A;}
	.st20{fill:#D40000;}
	.st21{fill:#505050;}
	.st22{fill:#DFDFDF;}
	.st23{fill:none;}
	.st24{fill:#636363;}
	.st25{fill:#6C92D5;}
	.st26{fill:#22272F;}
	.st27{fill:#1B2538;}
	.st28{fill:#253452;}
	.st29{fill:#F9F9F9;}
	.st30{fill:#2D3543;}
	.st31{fill:#2A3D60;}
	.st32{fill:#587955;}
	.st33{fill:#CD7054;}
	.st34{fill:#F1CC4B;}
	.st35{fill:#ACACAC;}
	.st36{fill:#AAE528;}
	.st37{fill:#28CEBA;}
	.st38{fill:#DB143F;}
	.st39{fill:#53C2C9;}
	.st40{fill:#FFB412;}
	.st41{fill:#866A5E;}
	.st42{fill:#F7DDCB;}
	.st43{fill:#FFE6D4;}
	.st44{fill:#F5F5F5;}
	.st45{fill:#1A2830;}
	.st46{fill:#24353F;}
	.st47{fill:#132026;}
	.st48{fill:#F9FF03;}
	.st49{fill:#272728;}
	.st50{fill:#1E1D1E;}
	.st51{fill:#160423;}
	.st52{fill-rule:evenodd;clip-rule:evenodd;fill:#FFFFFF;}
	.st53{fill-rule:evenodd;clip-rule:evenodd;fill:#1996B8;}
	.st54{fill:#0C387D;}
	.st55{fill:#C69A81;}
	.st56{fill:#D1A385;}
	.st57{fill:#EAEAEA;}
	.st58{fill:#093E8C;}
	.st59{fill:#0B2A62;}
	.st60{fill:#D32A3B;}
	.st61{fill:#827C7D;}
	.st62{opacity:0.7;fill:#7F7F7F;}
	.st63{fill:#FDFDFD;}
	.st64{fill:#DAA449;}
	.st65{fill:#DD9225;}
	.st66{opacity:0.3;}
	.st67{fill:#425793;}
	.st68{opacity:0.8;}
	.st69{filter:url(#Adobe_OpacityMaskFilter);}
	.st70{opacity:0.15;mask:url(#SVGID_1_);}
	.st71{fill:#090B00;}
	.st72{opacity:0.1;}
	.st73{fill:#211915;}
	.st74{filter:url(#Adobe_OpacityMaskFilter_1_);}
	.st75{opacity:0.15;mask:url(#SVGID_2_);}
	.st76{fill:#AF3623;}
	.st77{filter:url(#Adobe_OpacityMaskFilter_2_);}
	.st78{opacity:0.15;mask:url(#SVGID_3_);}
	.st79{filter:url(#Adobe_OpacityMaskFilter_3_);}
	.st80{opacity:0.15;mask:url(#SVGID_4_);}
	.st81{fill:#456495;}
	.st82{filter:url(#Adobe_OpacityMaskFilter_4_);}
	.st83{opacity:0.15;mask:url(#SVGID_5_);}
	.st84{filter:url(#Adobe_OpacityMaskFilter_5_);}
	.st85{opacity:0.15;mask:url(#SVGID_6_);}
	.st86{fill:#76A9DA;}
	.st87{filter:url(#Adobe_OpacityMaskFilter_6_);}
	.st88{opacity:0.15;mask:url(#SVGID_7_);}
	.st89{filter:url(#Adobe_OpacityMaskFilter_7_);}
	.st90{opacity:0.15;mask:url(#SVGID_8_);}
	.st91{fill:#1F3642;}
	.st92{fill:#A9BDDA;}
	.st93{opacity:0.46;fill:#A6B4BC;}
	.st94{fill:#74C475;}
	.st95{fill:#221F21;}
	.st96{fill:#2D2D2D;}
	.st97{fill:#1C1B1A;}
	.st98{fill:#77181C;}
	.st99{fill:#262525;}
	.st100{fill:#11100F;}
	.st101{opacity:0.18;}
	.st102{opacity:0.38;}
	.st103{fill:#0A5B1F;}
	.st104{opacity:0.27;}
	.st105{opacity:0.48;}
	.st106{fill:#0A4654;}
	.st107{fill:#C2C6C6;}
	.st108{fill:#E5E5E5;stroke:#FFFFFF;stroke-miterlimit:10;}
	.st109{fill:#ACB4B5;}
	.st110{fill:#7F8384;}
	.st111{fill:#15772F;}
	.st112{fill:#F4F4F4;}
	.st113{fill:#53B8DB;}
	.st114{fill:#06EF42;}
	.st115{fill:#E7ED07;}
	.st116{fill:#CCCCCA;}
	.st117{fill:#EADF13;}
	.st118{fill:#C2C2C2;}
	.st119{fill:#85B681;}
	.st120{fill:#A1DC9B;}
	.st121{fill:#90C58B;}
	.st122{fill:#22241F;}
	.st123{opacity:0.5;}
	.st124{fill:#A2CADE;}
	.st125{fill:#E9E9E9;}
	.st126{fill:#D9D9D9;}
	.st127{fill:#CDCDCD;}
	.st128{opacity:0.34;fill:#F0F0F0;}
	.st129{fill:#5A5B5A;}
	.st130{fill:#FFE600;}
	.st131{fill:#DB1F59;}
	.st132{fill:#727272;}
	.st133{fill:#207235;}
	.st134{fill:#A3A3A3;}
	.st135{fill:#BCBCBC;}
	.st136{fill:#0A511C;}
	.st137{fill:#F9FF00;}
	.st138{fill:#D59F6D;}
	.st139{fill:#C0804A;}
	.st140{fill:#E6BA8A;}
	.st141{fill:#BE3ACC;}
	.st142{fill:#FFFFFF;stroke:#443F0C;stroke-width:9;stroke-miterlimit:10;}
	.st143{fill:none;stroke:#443F0C;stroke-width:9;stroke-miterlimit:10;}
	.st144{fill:#170623;}
	.st145{fill:#158231;}
	.st146{fill:#C89D76;}
	.st147{opacity:0.4;}
	.st148{fill:#ADADAD;}
	.st149{fill:#EDC3A6;}
	.st150{opacity:0.69;}
	.st151{fill:#E5D3D6;}
	.st152{opacity:0.44;}
	.st153{fill:#A5A5A5;}
	.st154{fill:#DDE5E4;}
	.st155{fill:#5C9169;}
	.st156{fill:#934215;}
	.st157{fill:#47413B;}
	.st158{fill:#601A1F;}
	.st159{fill:#044554;}
	.st160{opacity:0.7;}
	.st161{fill:#7F7F7F;}
	.st162{fill:#6B8A69;}
	.st163{opacity:0.24;fill:#848D90;}
	.st164{opacity:0.4;fill:#848D90;}
	.st165{fill:#F2D5D5;}
	.st166{fill:#485CC1;}
	.st167{fill:#C6CBE0;}
	.st168{fill:#8B909E;}
	.st169{fill:#53BC1B;}
	.st170{fill:#11565B;}
	.st171{fill:#67A06D;}
	.st172{fill:#FFEC00;}
	.st173{fill:#77A007;}
	.st174{fill:#E50731;}
	.st175{fill:#266472;}
	.st176{fill:#D4D4D4;}
	.st177{fill:#0E9932;}
	.st178{fill:#87DD24;}
	.st179{fill:#76A172;}
	.st180{fill:#62835F;}
	.st181{fill:#96D090;}
	.st182{fill:#D6D6D6;}
	.st183{fill:#606060;}
	.st184{fill:#494949;}
	.st185{fill:#29E55A;}
	.st186{fill:#2C703D;}
	.st187{fill:#DD0744;}
	.st188{fill:#EDEDED;}
	.st189{fill:#2A5936;}
	.st190{fill:#B9BBC1;}
	.st191{fill:#FFD79E;}
	.st192{fill:#FFE6C2;}
	.st193{fill:#2CBB55;}
	.st194{fill:#5C412D;}
	.st195{fill:#EC0000;}
	.st196{fill:#DD2626;}
	.st197{fill:#EA9334;}
	.st198{fill:#FCC232;}
	.st199{fill:#F9B234;}
	.st200{fill:#F7A037;}
	.st201{fill:#E0E0E0;}
</style>
<g>
	<g>
		<path class="st0" d="M9.5,209.36c0,22,13.29,27.86,29.54,13.03c0,0,156.99-143.3,353.09,26.97V55c0-22-18-40-40-40H49.5
			c-22,0-40,18-40,40V209.36z"/>
	</g>
	<g>
		<path class="st0" d="M391.66,647c0,22-18,40-40,40H49.98c-22,0-40-18-40-40v-46.27c0-22,18-40,40-40h301.68c22,0,40,18,40,40V647z
			"/>
	</g>
	<g>
		<path d="M105.48,391.8c-2.03-0.49-3.67-1.18-4.91-2.07c-0.52-0.36-0.78-0.71-0.78-1.05c0-0.23,0.09-0.48,0.27-0.74l2.26-3.55
			c0.23-0.34,0.47-0.51,0.7-0.51c0.21,0,0.46,0.09,0.74,0.27c0.94,0.57,2.01,1.02,3.22,1.35s2.38,0.49,3.53,0.49
			c0.96,0,1.66-0.13,2.09-0.39c0.43-0.26,0.64-0.66,0.64-1.21c0-0.6-0.29-1.08-0.86-1.44c-0.57-0.36-1.56-0.82-2.96-1.37
			c-2.63-1.01-4.69-2.16-6.2-3.45s-2.26-3-2.26-5.13c0-2.7,0.94-4.74,2.83-6.1c1.88-1.37,4.43-2.05,7.62-2.05
			c2.24,0,4.14,0.19,5.71,0.58c1.57,0.39,2.94,1,4.11,1.83c0.52,0.36,0.78,0.71,0.78,1.05c0,0.23-0.09,0.48-0.27,0.74l-2.26,3.55
			c-0.23,0.36-0.47,0.55-0.7,0.55c-0.16,0-0.4-0.1-0.74-0.31c-0.63-0.42-1.37-0.76-2.22-1.03c-0.86-0.27-1.78-0.41-2.77-0.41
			c-0.91,0-1.6,0.13-2.07,0.39c-0.47,0.26-0.7,0.68-0.7,1.25c0,0.47,0.16,0.86,0.49,1.17c0.32,0.31,0.73,0.58,1.23,0.8
			c0.49,0.22,1.35,0.58,2.57,1.07c1.95,0.78,3.48,1.53,4.6,2.24c1.12,0.72,1.96,1.57,2.54,2.57c0.57,1,0.86,2.27,0.86,3.8
			c0,2.34-0.88,4.23-2.63,5.67c-1.75,1.44-4.38,2.16-7.86,2.16C109.71,392.54,107.51,392.29,105.48,391.8z"/>
		<path d="M127.32,388.93c-2.39-2.4-3.59-5.82-3.59-10.24s1.2-7.83,3.59-10.24s5.9-3.61,10.53-3.61s8.14,1.2,10.53,3.61
			c2.39,2.4,3.59,5.82,3.59,10.24s-1.2,7.83-3.59,10.24c-2.39,2.41-5.9,3.61-10.53,3.61S129.72,391.33,127.32,388.93z
			 M141.52,384.17c0.75-1.21,1.13-3.04,1.13-5.48c0-2.47-0.38-4.3-1.13-5.5c-0.75-1.2-1.98-1.79-3.67-1.79
			c-1.69,0-2.91,0.6-3.67,1.79c-0.75,1.2-1.13,3.03-1.13,5.5c0,2.44,0.38,4.27,1.13,5.48c0.75,1.21,1.98,1.81,3.67,1.81
			C139.54,385.99,140.77,385.38,141.52,384.17z"/>
		<path d="M154.45,391.41c-0.35-0.36-0.53-0.92-0.53-1.68v-22.07c0-0.75,0.18-1.31,0.53-1.68c0.35-0.36,0.96-0.55,1.81-0.55h4.64
			c0.88,0,1.5,0.18,1.85,0.53c0.35,0.35,0.53,0.92,0.53,1.7v17.67h9.09c0.83,0,1.4,0.18,1.7,0.53s0.45,0.92,0.45,1.7v2.18
			c0,0.78-0.15,1.34-0.45,1.7c-0.3,0.35-0.86,0.53-1.7,0.53h-16.11C155.4,391.95,154.8,391.77,154.45,391.41z"/>
		<path d="M176.21,391.41c-0.35-0.36-0.53-0.92-0.53-1.68v-22.07c0-0.75,0.18-1.31,0.53-1.68c0.35-0.36,0.96-0.55,1.81-0.55h4.64
			c0.88,0,1.5,0.18,1.85,0.53c0.35,0.35,0.53,0.92,0.53,1.7v22.07c0,0.75-0.18,1.31-0.53,1.68c-0.35,0.36-0.97,0.55-1.85,0.55h-4.64
			C177.17,391.95,176.56,391.77,176.21,391.41z"/>
		<path d="M190.93,389.05c-2.63-2.33-3.94-5.78-3.94-10.35c0-4.6,1.27-8.06,3.8-10.37c2.53-2.31,6.15-3.47,10.86-3.47
			c2.13,0,4.03,0.21,5.69,0.62c1.66,0.42,3.05,1,4.17,1.76c0.31,0.23,0.47,0.49,0.47,0.78c0,0.23-0.12,0.56-0.35,0.97l-1.95,3.35
			c-0.21,0.36-0.46,0.55-0.74,0.55c-0.18,0-0.48-0.1-0.9-0.31c-0.73-0.36-1.49-0.65-2.28-0.86c-0.79-0.21-1.72-0.31-2.79-0.31
			c-2.16,0-3.81,0.62-4.95,1.87c-1.14,1.25-1.72,3.05-1.72,5.42c0,2.34,0.62,4.14,1.87,5.4c1.25,1.26,2.95,1.89,5.11,1.89
			c1.87,0,3.59-0.39,5.15-1.17c0.42-0.21,0.71-0.31,0.9-0.31c0.29,0,0.53,0.18,0.74,0.55l1.95,3.35c0.23,0.42,0.35,0.74,0.35,0.97
			c0,0.29-0.16,0.55-0.47,0.78c-1.12,0.75-2.52,1.34-4.21,1.75c-1.69,0.42-3.6,0.62-5.73,0.62
			C197.24,392.54,193.56,391.37,190.93,389.05z"/>
		<path d="M214.86,391.41c-0.35-0.36-0.53-0.92-0.53-1.68v-22.07c0-0.75,0.17-1.31,0.53-1.68s0.96-0.55,1.81-0.55h4.64
			c0.88,0,1.5,0.18,1.85,0.53c0.35,0.35,0.53,0.92,0.53,1.7v22.07c0,0.75-0.18,1.31-0.53,1.68c-0.35,0.36-0.97,0.55-1.85,0.55h-4.64
			C215.81,391.95,215.21,391.77,214.86,391.41z"/>
		<path d="M233.15,391.41c-0.35-0.36-0.53-0.92-0.53-1.68v-17.67h-5.62c-0.83,0-1.4-0.18-1.7-0.53c-0.3-0.35-0.45-0.92-0.45-1.7
			v-2.18c0-0.78,0.15-1.35,0.45-1.7c0.3-0.35,0.87-0.53,1.7-0.53h20.59c0.83,0,1.4,0.18,1.7,0.53c0.3,0.35,0.45,0.92,0.45,1.7v2.18
			c0,0.78-0.15,1.34-0.45,1.7c-0.3,0.35-0.86,0.53-1.7,0.53h-5.62v17.67c0,0.75-0.17,1.31-0.53,1.68s-0.97,0.55-1.85,0.55h-4.64
			C234.11,391.95,233.5,391.77,233.15,391.41z"/>
		<path d="M256.8,391.31c-1.92-0.82-3.42-2-4.48-3.55s-1.6-3.39-1.6-5.52v-14.59c0-0.75,0.18-1.31,0.53-1.68
			c0.35-0.36,0.96-0.55,1.81-0.55h4.64c0.88,0,1.5,0.18,1.85,0.53c0.35,0.35,0.53,0.92,0.53,1.7v14.7c0,1.22,0.31,2.13,0.92,2.73
			c0.61,0.6,1.45,0.9,2.52,0.9c1.07,0,1.9-0.3,2.52-0.9c0.61-0.6,0.92-1.51,0.92-2.73v-14.7c0-0.75,0.18-1.31,0.53-1.68
			s0.96-0.55,1.81-0.55h4.64c0.88,0,1.5,0.18,1.85,0.53c0.35,0.35,0.53,0.92,0.53,1.7v14.59c0,2.13-0.53,3.97-1.6,5.52
			c-1.07,1.55-2.56,2.73-4.49,3.55s-4.16,1.23-6.71,1.23C260.96,392.54,258.73,392.13,256.8,391.31z"/>
		<path d="M279.37,391.41c-0.35-0.36-0.53-0.92-0.53-1.68v-22.07c0-0.75,0.18-1.31,0.53-1.68c0.35-0.36,0.96-0.55,1.81-0.55h8.97
			c9.18,0,13.77,4.42,13.77,13.26c0,4.37-1.18,7.67-3.53,9.91c-2.35,2.24-5.77,3.35-10.24,3.35h-8.97
			C280.32,391.95,279.72,391.77,279.37,391.41z M290.5,385.32c1.46,0,2.5-0.48,3.14-1.44c0.64-0.96,0.96-2.69,0.96-5.19
			s-0.32-4.22-0.96-5.19c-0.64-0.96-1.68-1.44-3.14-1.44h-2.3v13.26H290.5z"/>
		<path d="M179.02,438.21c-0.35-0.36-0.53-0.92-0.53-1.68v-22.07c0-0.75,0.18-1.31,0.53-1.68s0.96-0.55,1.81-0.55h8.97
			c9.18,0,13.77,4.42,13.77,13.26c0,4.37-1.18,7.67-3.53,9.91s-5.77,3.35-10.24,3.35h-8.97
			C179.97,438.75,179.37,438.57,179.02,438.21z M190.15,432.12c1.46,0,2.5-0.48,3.14-1.44c0.64-0.96,0.96-2.69,0.96-5.19
			s-0.32-4.22-0.96-5.19c-0.64-0.96-1.68-1.44-3.14-1.44h-2.3v13.26H190.15z"/>
		<path d="M206.04,438.21c-0.35-0.36-0.53-0.92-0.53-1.68v-22.07c0-0.75,0.17-1.31,0.53-1.68c0.35-0.36,0.96-0.55,1.81-0.55H224
			c0.83,0,1.4,0.17,1.7,0.53c0.3,0.35,0.45,0.92,0.45,1.7v2.18c0,0.78-0.15,1.35-0.45,1.7c-0.3,0.35-0.87,0.53-1.7,0.53h-9.13v3.35
			h5.62c0.83,0,1.4,0.18,1.7,0.53c0.3,0.35,0.45,0.92,0.45,1.7v2.11c0,0.78-0.15,1.35-0.45,1.7c-0.3,0.35-0.87,0.53-1.7,0.53h-5.62
			v3.35h9.09c0.83,0,1.4,0.18,1.7,0.53s0.45,0.92,0.45,1.7v2.18c0,0.78-0.15,1.34-0.45,1.7c-0.3,0.35-0.87,0.53-1.7,0.53h-16.11
			C207,438.75,206.4,438.57,206.04,438.21z"/>
		<path d="M87.15,485.01c-0.35-0.36-0.53-0.92-0.53-1.68v-22.07c0-0.75,0.17-1.31,0.53-1.68c0.35-0.36,0.96-0.55,1.81-0.55h9.32
			c3.9,0,6.74,0.77,8.52,2.32s2.67,3.88,2.67,7s-0.89,5.45-2.67,6.98s-4.61,2.3-8.48,2.3h-2.34v5.69c0,0.75-0.18,1.31-0.53,1.68
			s-0.97,0.55-1.85,0.55h-4.64C88.11,485.55,87.51,485.37,87.15,485.01z M97.47,471c0.83,0,1.49-0.22,1.97-0.66
			c0.48-0.44,0.72-1.1,0.72-1.99c0-0.91-0.24-1.58-0.72-2.03s-1.14-0.66-1.97-0.66h-2.65V471H97.47z"/>
		<path d="M111.18,485.01c-0.35-0.36-0.53-0.92-0.53-1.68v-22.07c0-0.75,0.18-1.31,0.53-1.68s0.96-0.55,1.81-0.55h9.32
			c3.9,0,6.74,0.77,8.52,2.32s2.67,3.88,2.67,7c0,1.87-0.32,3.45-0.96,4.74c-0.64,1.29-1.62,2.29-2.95,3.02l3.63,7.76
			c0.1,0.21,0.16,0.44,0.16,0.7c0,0.29-0.1,0.52-0.29,0.7c-0.2,0.18-0.45,0.27-0.76,0.27h-6.59c-0.42,0-0.75-0.06-1-0.18
			c-0.25-0.12-0.42-0.32-0.53-0.6l-2.89-7.25h-1.33v5.81c0,0.75-0.18,1.31-0.53,1.68c-0.35,0.36-0.97,0.55-1.85,0.55h-4.64
			C112.13,485.55,111.53,485.37,111.18,485.01z M121.49,471c0.83,0,1.49-0.22,1.97-0.66c0.48-0.44,0.72-1.1,0.72-1.99
			c0-0.91-0.24-1.58-0.72-2.03c-0.48-0.44-1.14-0.66-1.97-0.66h-2.65V471H121.49z"/>
		<path d="M138.26,482.53c-2.39-2.4-3.59-5.82-3.59-10.24s1.2-7.83,3.59-10.24c2.39-2.41,5.9-3.61,10.53-3.61s8.14,1.2,10.53,3.61
			c2.39,2.4,3.59,5.82,3.59,10.24s-1.2,7.83-3.59,10.24c-2.39,2.41-5.9,3.61-10.53,3.61S140.66,484.93,138.26,482.53z
			 M152.46,477.77c0.75-1.21,1.13-3.04,1.13-5.48c0-2.47-0.38-4.3-1.13-5.5s-1.98-1.79-3.67-1.79s-2.91,0.6-3.67,1.79
			s-1.13,3.03-1.13,5.5c0,2.44,0.38,4.27,1.13,5.48s1.98,1.81,3.67,1.81S151.71,478.98,152.46,477.77z"/>
		<path d="M165.39,485.01c-0.35-0.36-0.53-0.92-0.53-1.68v-22.07c0-0.75,0.18-1.31,0.53-1.68c0.35-0.36,0.96-0.55,1.81-0.55h8.97
			c9.18,0,13.77,4.42,13.77,13.26c0,4.37-1.18,7.67-3.53,9.91c-2.35,2.24-5.77,3.35-10.24,3.35h-8.97
			C166.34,485.55,165.74,485.37,165.39,485.01z M176.52,478.92c1.46,0,2.5-0.48,3.14-1.44c0.64-0.96,0.96-2.69,0.96-5.19
			s-0.32-4.22-0.96-5.19c-0.64-0.96-1.68-1.44-3.14-1.44h-2.3v13.26H176.52z"/>
		<path d="M197.78,484.91c-1.92-0.82-3.42-2-4.48-3.55c-1.07-1.55-1.6-3.39-1.6-5.52v-14.59c0-0.75,0.18-1.31,0.53-1.68
			s0.96-0.55,1.81-0.55h4.64c0.88,0,1.5,0.17,1.85,0.53c0.35,0.35,0.53,0.92,0.53,1.7v14.7c0,1.22,0.31,2.13,0.92,2.73
			c0.61,0.6,1.45,0.9,2.52,0.9c1.07,0,1.9-0.3,2.52-0.9c0.61-0.6,0.92-1.51,0.92-2.73v-14.7c0-0.75,0.17-1.31,0.53-1.68
			c0.35-0.36,0.96-0.55,1.81-0.55h4.64c0.88,0,1.5,0.17,1.85,0.53c0.35,0.35,0.53,0.92,0.53,1.7v14.59c0,2.13-0.53,3.97-1.6,5.52
			s-2.56,2.73-4.48,3.55s-4.16,1.23-6.71,1.23S199.7,485.73,197.78,484.91z"/>
		<path d="M222.97,482.65c-2.63-2.33-3.94-5.78-3.94-10.35c0-4.6,1.27-8.06,3.8-10.37s6.16-3.47,10.86-3.47
			c2.13,0,4.03,0.21,5.69,0.62c1.66,0.42,3.05,1,4.17,1.76c0.31,0.23,0.47,0.49,0.47,0.78c0,0.23-0.12,0.56-0.35,0.98l-1.95,3.35
			c-0.21,0.36-0.46,0.55-0.74,0.55c-0.18,0-0.48-0.1-0.9-0.31c-0.73-0.36-1.49-0.65-2.28-0.86c-0.79-0.21-1.72-0.31-2.79-0.31
			c-2.16,0-3.81,0.62-4.95,1.87s-1.72,3.05-1.72,5.42c0,2.34,0.62,4.14,1.87,5.4c1.25,1.26,2.95,1.89,5.11,1.89
			c1.87,0,3.59-0.39,5.15-1.17c0.42-0.21,0.71-0.31,0.9-0.31c0.29,0,0.53,0.18,0.74,0.55l1.95,3.35c0.23,0.42,0.35,0.74,0.35,0.97
			c0,0.29-0.16,0.55-0.47,0.78c-1.12,0.75-2.52,1.34-4.21,1.75c-1.69,0.42-3.6,0.62-5.73,0.62
			C229.28,486.14,225.6,484.97,222.97,482.65z"/>
		<path d="M252.12,485.01c-0.35-0.36-0.53-0.92-0.53-1.68v-17.67h-5.62c-0.83,0-1.4-0.18-1.7-0.53c-0.3-0.35-0.45-0.92-0.45-1.7
			v-2.18c0-0.78,0.15-1.35,0.45-1.7c0.3-0.35,0.86-0.53,1.7-0.53h20.59c0.83,0,1.4,0.17,1.7,0.53c0.3,0.35,0.45,0.92,0.45,1.7v2.18
			c0,0.78-0.15,1.35-0.45,1.7c-0.3,0.35-0.87,0.53-1.7,0.53h-5.62v17.67c0,0.75-0.18,1.31-0.53,1.68c-0.35,0.36-0.97,0.55-1.85,0.55
			h-4.64C253.08,485.55,252.47,485.37,252.12,485.01z"/>
		<path d="M270.94,482.53c-2.39-2.4-3.59-5.82-3.59-10.24s1.2-7.83,3.59-10.24c2.39-2.41,5.9-3.61,10.53-3.61
			c4.63,0,8.14,1.2,10.53,3.61c2.39,2.4,3.59,5.82,3.59,10.24s-1.2,7.83-3.59,10.24c-2.39,2.41-5.9,3.61-10.53,3.61
			C276.84,486.14,273.33,484.93,270.94,482.53z M285.14,477.77c0.75-1.21,1.13-3.04,1.13-5.48c0-2.47-0.38-4.3-1.13-5.5
			s-1.98-1.79-3.67-1.79c-1.69,0-2.91,0.6-3.67,1.79s-1.13,3.03-1.13,5.5c0,2.44,0.38,4.27,1.13,5.48s1.98,1.81,3.67,1.81
			C283.16,479.58,284.38,478.98,285.14,477.77z"/>
		<path d="M300.74,485.4c-2.03-0.49-3.67-1.18-4.91-2.07c-0.52-0.36-0.78-0.71-0.78-1.05c0-0.23,0.09-0.48,0.27-0.74l2.26-3.55
			c0.23-0.34,0.47-0.51,0.7-0.51c0.21,0,0.46,0.09,0.74,0.27c0.94,0.57,2.01,1.02,3.22,1.35s2.38,0.49,3.53,0.49
			c0.96,0,1.66-0.13,2.09-0.39c0.43-0.26,0.64-0.66,0.64-1.21c0-0.6-0.29-1.08-0.86-1.44c-0.57-0.36-1.56-0.82-2.96-1.37
			c-2.63-1.01-4.69-2.16-6.2-3.45s-2.26-3-2.26-5.13c0-2.7,0.94-4.74,2.83-6.1c1.88-1.37,4.43-2.05,7.62-2.05
			c2.24,0,4.14,0.2,5.71,0.59c1.57,0.39,2.94,1,4.11,1.83c0.52,0.36,0.78,0.71,0.78,1.05c0,0.23-0.09,0.48-0.27,0.74l-2.26,3.55
			c-0.23,0.36-0.47,0.55-0.7,0.55c-0.16,0-0.4-0.1-0.74-0.31c-0.63-0.42-1.37-0.76-2.22-1.03c-0.86-0.27-1.78-0.41-2.77-0.41
			c-0.91,0-1.6,0.13-2.07,0.39c-0.47,0.26-0.7,0.68-0.7,1.25c0,0.47,0.16,0.86,0.49,1.17c0.32,0.31,0.73,0.58,1.23,0.8
			c0.49,0.22,1.35,0.58,2.57,1.07c1.95,0.78,3.48,1.53,4.6,2.24c1.12,0.72,1.96,1.57,2.54,2.57c0.57,1,0.86,2.27,0.86,3.8
			c0,2.34-0.88,4.23-2.63,5.67c-1.75,1.44-4.38,2.16-7.86,2.16C304.96,486.14,302.76,485.89,300.74,485.4z"/>
	</g>
	<polygon class="st1" points="200.76,96.93 214.23,124.22 244.34,128.59 222.55,149.83 227.7,179.83 200.76,165.67 173.83,179.83 
		178.97,149.83 157.18,128.59 187.29,124.22 	"/>
	<polygon class="st1" points="138.58,180.15 147.32,197.86 166.86,200.7 152.72,214.48 156.06,233.94 138.58,224.75 121.11,233.94 
		124.45,214.48 110.31,200.7 129.85,197.86 	"/>
	<polygon class="st1" points="268.68,180.15 277.42,197.86 296.95,200.7 282.82,214.48 286.15,233.94 268.68,224.75 251.2,233.94 
		254.54,214.48 240.4,200.7 259.94,197.86 	"/>
	<circle class="st2" cx="201.77" cy="213.97" r="121.96"/>
	<circle class="st3" cx="200.82" cy="200.58" r="121.96"/>
	<g>
		<path class="st3" d="M195.05,643.3c-0.63-0.56-0.95-1.54-0.95-2.96v-5.69h-17.59c-1.75,0-2.63-0.85-2.63-2.55v-6.72
			c0-1.12,0.1-1.95,0.29-2.48c0.19-0.54,0.66-1.24,1.39-2.12l19.86-23.94c0.83-0.97,1.51-1.61,2.04-1.9
			c0.54-0.29,1.46-0.44,2.77-0.44h7.01c1.61,0,2.74,0.34,3.39,1.02c0.66,0.68,0.99,1.73,0.99,3.14v23.58h2.77
			c1.56,0,2.62,0.33,3.18,0.99c0.56,0.66,0.84,1.71,0.84,3.17v4.09c0,1.46-0.28,2.52-0.84,3.18c-0.56,0.66-1.62,0.99-3.18,0.99
			h-2.77v5.69c0,1.41-0.33,2.4-0.99,2.96c-0.66,0.56-1.81,0.84-3.47,0.84h-8.69C196.82,644.14,195.68,643.86,195.05,643.3z
			 M197.97,622.24v-9.56l-7.01,9.56H197.97z"/>
	</g>
	<g>
		<path class="st130" d="M248.17,178.94l-80.75,40.57c-5.9,2.96-13.15,0.56-16.11-5.34l-23.18-46.13
			c-2.96-5.9-0.56-13.15,5.34-16.11l80.75-40.57c5.9-2.96,13.15-0.56,16.11,5.34l23.18,46.13
			C256.46,168.73,254.06,175.97,248.17,178.94z"/>
		<circle class="st131" cx="157.58" cy="181.43" r="12.19"/>
		<g>
			<path d="M159.8,213.86c-0.13-0.05-0.25-0.19-0.35-0.4l-0.3-0.59c-0.11-0.21-0.14-0.39-0.11-0.52c0.03-0.14,0.16-0.26,0.39-0.38
				l0.67-0.34l-1.39-2.77l-0.3,0.49c-0.02,0.05-0.06,0.08-0.11,0.11c-0.06,0.03-0.13,0.03-0.21-0.02l-1.42-0.83
				c-0.05-0.02-0.08-0.05-0.1-0.1c-0.04-0.07-0.03-0.15,0.03-0.23l1.4-2.22c0.06-0.09,0.12-0.17,0.19-0.23
				c0.07-0.06,0.17-0.13,0.32-0.2l0.78-0.39c0.23-0.12,0.42-0.15,0.57-0.1c0.15,0.05,0.27,0.18,0.37,0.38l2.42,4.81l0.68-0.34
				c0.23-0.11,0.4-0.14,0.53-0.09s0.25,0.19,0.35,0.4l0.3,0.59c0.11,0.21,0.14,0.39,0.11,0.52c-0.03,0.14-0.16,0.26-0.39,0.38
				l-3.89,1.96C160.11,213.89,159.93,213.92,159.8,213.86z"/>
			<path d="M164.69,210.89l-0.31-0.63c-0.21-0.42-0.27-0.88-0.17-1.39c0.1-0.51,0.38-1.19,0.83-2.04c0.16-0.29,0.26-0.47,0.3-0.54
				c0.17-0.3,0.28-0.51,0.34-0.65s0.08-0.26,0.08-0.39s-0.04-0.26-0.12-0.42c-0.09-0.18-0.23-0.29-0.41-0.33
				c-0.19-0.04-0.41,0-0.68,0.14c-0.45,0.23-0.85,0.57-1.2,1.04c-0.08,0.11-0.15,0.18-0.2,0.21c-0.08,0.04-0.17,0.02-0.28-0.05
				l-0.99-0.65c-0.12-0.08-0.2-0.15-0.23-0.22c-0.04-0.08-0.03-0.17,0.02-0.28c0.2-0.36,0.51-0.72,0.93-1.09
				c0.42-0.37,0.91-0.69,1.49-0.98c0.89-0.45,1.69-0.62,2.4-0.51c0.71,0.11,1.23,0.5,1.57,1.18c0.26,0.52,0.34,1.04,0.23,1.55
				c-0.11,0.51-0.38,1.14-0.83,1.9c-0.47,0.8-0.74,1.32-0.8,1.55l2.59-1.3c0.22-0.11,0.4-0.14,0.53-0.09
				c0.13,0.05,0.25,0.19,0.35,0.4l0.3,0.61c0.11,0.21,0.14,0.38,0.11,0.52s-0.16,0.26-0.39,0.38l-4.67,2.35
				C165.15,211.36,164.88,211.26,164.69,210.89z"/>
			<path d="M172.39,207.71c-0.55,0.14-1.03,0.18-1.43,0.12c-0.12-0.02-0.19-0.07-0.23-0.15c-0.03-0.06-0.04-0.17-0.04-0.31
				l0.07-1.18c0.01-0.13,0.05-0.21,0.13-0.25c0.05-0.03,0.15-0.04,0.29-0.04c0.23,0,0.49-0.04,0.79-0.11
				c0.3-0.07,0.57-0.18,0.84-0.31c0.35-0.18,0.59-0.36,0.71-0.56c0.12-0.19,0.13-0.4,0.01-0.62c-0.17-0.34-0.49-0.39-0.94-0.16
				l-0.82,0.41c-0.23,0.12-0.42,0.15-0.57,0.1c-0.14-0.05-0.27-0.18-0.37-0.38l-0.29-0.57c-0.1-0.21-0.13-0.38-0.09-0.53
				c0.05-0.15,0.19-0.28,0.42-0.4l0.65-0.32c0.23-0.12,0.38-0.25,0.45-0.38c0.06-0.14,0.05-0.29-0.04-0.47
				c-0.17-0.34-0.55-0.36-1.14-0.07c-0.47,0.24-0.87,0.57-1.19,0.99c-0.09,0.11-0.15,0.18-0.2,0.21c-0.08,0.04-0.17,0.02-0.28-0.05
				l-0.99-0.65c-0.12-0.08-0.2-0.15-0.23-0.22c-0.04-0.08-0.03-0.17,0.02-0.28c0.2-0.36,0.5-0.71,0.89-1.05
				c0.4-0.34,0.88-0.66,1.46-0.95c0.62-0.31,1.2-0.49,1.74-0.54c0.55-0.05,1.03,0.03,1.44,0.24c0.41,0.21,0.73,0.54,0.96,0.99
				c0.31,0.62,0.34,1.21,0.08,1.77c0.72,0.04,1.26,0.42,1.62,1.13c0.36,0.71,0.37,1.42,0.04,2.11c-0.34,0.69-1.02,1.29-2.04,1.81
				C173.51,207.35,172.94,207.57,172.39,207.71z"/>
			<path d="M180.32,203.58c-0.13-0.04-0.25-0.16-0.35-0.36l-0.42-0.83l-2.56,1.29c-0.25,0.13-0.44,0.07-0.57-0.18l-0.49-0.98
				c-0.08-0.16-0.13-0.29-0.14-0.38c-0.01-0.09,0-0.23,0.05-0.41l1.14-4.93c0.05-0.2,0.1-0.34,0.16-0.43
				c0.06-0.08,0.18-0.17,0.37-0.27l1.02-0.51c0.23-0.12,0.42-0.15,0.57-0.1c0.15,0.05,0.27,0.18,0.37,0.38l1.72,3.43l0.4-0.2
				c0.23-0.11,0.4-0.14,0.53-0.09c0.13,0.05,0.25,0.19,0.36,0.4l0.3,0.59c0.11,0.21,0.14,0.39,0.11,0.52
				c-0.03,0.13-0.16,0.26-0.39,0.37l-0.4,0.2l0.42,0.83c0.1,0.21,0.13,0.37,0.07,0.5c-0.05,0.13-0.2,0.25-0.44,0.38l-1.26,0.63
				C180.64,203.57,180.45,203.62,180.32,203.58z M179.2,200.31l-0.7-1.39l-0.32,1.9L179.2,200.31z"/>
			<path d="M188.45,199.59c-0.58,0.13-1.11,0.15-1.57,0.08c-0.12-0.02-0.2-0.07-0.24-0.15c-0.03-0.06-0.04-0.17-0.04-0.31l0.07-1.18
				c0.01-0.14,0.05-0.22,0.12-0.26c0.04-0.02,0.13-0.03,0.29-0.03c0.66,0.03,1.33-0.13,2.02-0.47c0.35-0.17,0.58-0.39,0.7-0.63
				c0.12-0.25,0.11-0.52-0.03-0.81c-0.29-0.57-0.73-0.7-1.34-0.39c-0.19,0.1-0.38,0.21-0.56,0.34c-0.19,0.13-0.33,0.26-0.44,0.38
				c-0.17,0.17-0.37,0.32-0.6,0.44c-0.33,0.16-0.63,0.22-0.91,0.16c-0.28-0.05-0.49-0.24-0.62-0.56l-1.17-2.76
				c-0.08-0.19-0.1-0.35-0.05-0.48c0.04-0.13,0.17-0.25,0.39-0.36l4.53-2.28c0.23-0.11,0.4-0.14,0.53-0.09
				c0.13,0.05,0.25,0.19,0.35,0.4l0.3,0.61c0.11,0.21,0.14,0.39,0.11,0.52c-0.03,0.14-0.16,0.26-0.39,0.38l-3.1,1.56l0.22,0.52
				c0.1-0.08,0.25-0.19,0.47-0.32c0.21-0.13,0.39-0.23,0.52-0.29c0.97-0.49,1.81-0.67,2.53-0.56c0.72,0.11,1.31,0.62,1.76,1.51
				c0.28,0.55,0.37,1.11,0.27,1.66c-0.1,0.55-0.36,1.07-0.78,1.54c-0.42,0.47-0.97,0.88-1.63,1.21
				C189.62,199.26,189.04,199.47,188.45,199.59z"/>
			<path d="M194.47,195.78c-0.88-0.25-1.61-0.96-2.19-2.12c-0.45-0.89-0.66-1.73-0.64-2.52c0.02-0.79,0.23-1.48,0.61-2.06
				s0.89-1.02,1.5-1.33c0.52-0.26,0.99-0.43,1.43-0.52c0.44-0.08,0.87-0.1,1.29-0.04c0.12,0.02,0.2,0.07,0.23,0.15
				c0.03,0.06,0.04,0.17,0.04,0.31l-0.07,1.14c-0.01,0.13-0.05,0.21-0.13,0.25c-0.05,0.02-0.14,0.04-0.29,0.04
				c-0.46-0.01-0.91,0.1-1.35,0.32c-0.35,0.18-0.61,0.4-0.77,0.68c-0.16,0.28-0.25,0.61-0.28,1c0.15-0.21,0.36-0.42,0.62-0.64
				c0.26-0.22,0.53-0.4,0.79-0.53c0.59-0.29,1.13-0.44,1.63-0.43s0.92,0.13,1.29,0.38c0.36,0.25,0.65,0.58,0.86,1
				c0.49,0.97,0.57,1.84,0.24,2.63c-0.33,0.78-1.02,1.44-2.07,1.97C196.26,195.92,195.34,196.04,194.47,195.78z M196.8,193.11
				c0.03-0.22-0.04-0.51-0.21-0.86c-0.18-0.35-0.37-0.58-0.56-0.69c-0.2-0.1-0.44-0.09-0.71,0.05c-0.25,0.12-0.38,0.3-0.41,0.51
				c-0.03,0.22,0.05,0.5,0.22,0.86c0.18,0.35,0.36,0.58,0.55,0.69c0.19,0.11,0.41,0.1,0.66-0.03
				C196.62,193.51,196.77,193.33,196.8,193.11z"/>
			<path d="M202.16,192.71c-0.58,0.13-1.11,0.15-1.57,0.08c-0.12-0.02-0.19-0.07-0.23-0.15c-0.03-0.06-0.04-0.17-0.04-0.31
				l0.07-1.18c0.01-0.14,0.05-0.22,0.12-0.26c0.04-0.02,0.13-0.03,0.29-0.03c0.66,0.03,1.34-0.13,2.02-0.47
				c0.35-0.17,0.58-0.39,0.71-0.63c0.12-0.25,0.11-0.52-0.03-0.81c-0.29-0.57-0.73-0.7-1.34-0.39c-0.19,0.1-0.38,0.21-0.56,0.34
				c-0.19,0.13-0.33,0.26-0.44,0.38c-0.17,0.17-0.37,0.32-0.6,0.44c-0.33,0.16-0.63,0.22-0.91,0.16c-0.28-0.05-0.49-0.24-0.62-0.56
				l-1.17-2.76c-0.08-0.19-0.1-0.35-0.05-0.48s0.17-0.25,0.39-0.36l4.53-2.28c0.23-0.11,0.4-0.14,0.53-0.09
				c0.13,0.06,0.25,0.19,0.35,0.4l0.3,0.61c0.11,0.21,0.14,0.39,0.11,0.52c-0.03,0.14-0.16,0.26-0.39,0.38l-3.1,1.56l0.22,0.53
				c0.1-0.09,0.26-0.19,0.47-0.32c0.21-0.13,0.39-0.23,0.52-0.3c0.97-0.49,1.81-0.67,2.54-0.56c0.72,0.11,1.31,0.62,1.76,1.52
				c0.28,0.55,0.37,1.11,0.27,1.66c-0.1,0.55-0.36,1.07-0.78,1.54s-0.97,0.88-1.63,1.21C203.33,192.37,202.75,192.58,202.16,192.71z
				"/>
			<path d="M208.17,188.89c-0.88-0.25-1.61-0.96-2.19-2.12c-0.45-0.89-0.66-1.73-0.64-2.52s0.23-1.48,0.62-2.06
				c0.39-0.58,0.89-1.02,1.5-1.33c0.52-0.26,1-0.43,1.43-0.52c0.44-0.08,0.87-0.1,1.29-0.04c0.12,0.02,0.19,0.07,0.23,0.15
				c0.03,0.06,0.04,0.17,0.04,0.31l-0.07,1.14c-0.01,0.13-0.05,0.21-0.13,0.25c-0.05,0.02-0.15,0.04-0.29,0.04
				c-0.46-0.01-0.91,0.1-1.35,0.32c-0.35,0.18-0.61,0.4-0.77,0.68c-0.16,0.28-0.25,0.61-0.27,1c0.15-0.21,0.36-0.42,0.62-0.64
				s0.53-0.4,0.8-0.53c0.59-0.29,1.13-0.44,1.62-0.43c0.5,0.01,0.93,0.14,1.29,0.38c0.36,0.25,0.65,0.58,0.86,1
				c0.49,0.97,0.57,1.84,0.24,2.63c-0.33,0.78-1.02,1.44-2.08,1.97C209.97,189.04,209.05,189.15,208.17,188.89z M210.51,186.22
				c0.04-0.22-0.04-0.51-0.21-0.86c-0.18-0.35-0.37-0.58-0.56-0.69c-0.2-0.1-0.44-0.09-0.71,0.05c-0.25,0.12-0.38,0.29-0.41,0.51
				c-0.03,0.22,0.05,0.5,0.22,0.86c0.18,0.36,0.36,0.59,0.55,0.69c0.19,0.11,0.41,0.1,0.66-0.03
				C210.32,186.63,210.48,186.45,210.51,186.22z"/>
			<path d="M215.87,185.82c-0.58,0.13-1.11,0.15-1.57,0.08c-0.12-0.02-0.19-0.07-0.23-0.15c-0.03-0.06-0.04-0.17-0.04-0.31
				l0.07-1.18c0.01-0.14,0.05-0.22,0.12-0.26c0.03-0.02,0.13-0.03,0.29-0.03c0.66,0.03,1.34-0.13,2.02-0.47
				c0.35-0.17,0.58-0.39,0.7-0.63s0.11-0.52-0.03-0.81c-0.29-0.57-0.73-0.7-1.34-0.39c-0.19,0.1-0.38,0.21-0.56,0.34
				s-0.33,0.26-0.44,0.38c-0.17,0.17-0.37,0.32-0.6,0.44c-0.33,0.16-0.63,0.22-0.91,0.16c-0.28-0.05-0.49-0.24-0.62-0.56l-1.17-2.76
				c-0.08-0.19-0.1-0.35-0.05-0.48c0.04-0.13,0.17-0.25,0.39-0.36l4.53-2.28c0.23-0.11,0.4-0.14,0.53-0.09s0.25,0.19,0.35,0.4
				l0.3,0.61c0.11,0.21,0.14,0.39,0.11,0.52c-0.03,0.14-0.16,0.26-0.39,0.38l-3.1,1.56l0.22,0.52c0.1-0.08,0.26-0.19,0.47-0.32
				c0.21-0.13,0.39-0.23,0.52-0.29c0.97-0.49,1.81-0.67,2.54-0.56c0.72,0.11,1.31,0.62,1.76,1.51c0.28,0.55,0.37,1.11,0.27,1.66
				c-0.1,0.55-0.36,1.07-0.78,1.54c-0.42,0.47-0.97,0.88-1.63,1.21C217.03,185.49,216.46,185.69,215.87,185.82z"/>
			<path d="M225.07,180.41c-0.88-0.25-1.61-0.96-2.19-2.12c-0.45-0.89-0.66-1.73-0.64-2.52c0.02-0.79,0.23-1.48,0.62-2.06
				c0.39-0.58,0.89-1.02,1.5-1.33c0.52-0.26,0.99-0.43,1.43-0.52c0.44-0.08,0.87-0.1,1.29-0.04c0.12,0.02,0.2,0.07,0.23,0.15
				c0.03,0.06,0.04,0.17,0.04,0.31l-0.07,1.14c-0.01,0.13-0.05,0.21-0.13,0.25c-0.05,0.03-0.14,0.04-0.29,0.04
				c-0.46-0.01-0.91,0.1-1.35,0.32c-0.35,0.18-0.61,0.4-0.77,0.68s-0.25,0.61-0.28,1c0.15-0.21,0.36-0.42,0.62-0.64
				c0.26-0.22,0.53-0.4,0.79-0.53c0.59-0.29,1.13-0.44,1.63-0.43c0.5,0.01,0.92,0.13,1.29,0.38s0.65,0.58,0.86,1
				c0.49,0.97,0.57,1.84,0.24,2.63c-0.33,0.78-1.02,1.44-2.07,1.97C226.86,180.55,225.94,180.66,225.07,180.41z M227.41,177.74
				c0.03-0.22-0.04-0.51-0.21-0.86c-0.18-0.35-0.37-0.58-0.56-0.69c-0.2-0.1-0.44-0.09-0.71,0.05c-0.25,0.13-0.38,0.3-0.41,0.51
				c-0.03,0.22,0.05,0.5,0.22,0.86c0.18,0.35,0.36,0.58,0.55,0.69c0.19,0.11,0.41,0.1,0.66-0.03
				C227.22,178.14,227.37,177.96,227.41,177.74z"/>
			<path d="M232.76,177.33c-0.58,0.13-1.11,0.15-1.57,0.08c-0.12-0.02-0.2-0.07-0.24-0.15c-0.03-0.06-0.04-0.17-0.04-0.31l0.07-1.18
				c0.01-0.14,0.05-0.22,0.12-0.26c0.04-0.02,0.13-0.03,0.29-0.03c0.66,0.03,1.34-0.13,2.02-0.47c0.35-0.17,0.58-0.39,0.71-0.63
				c0.12-0.25,0.11-0.52-0.03-0.81c-0.28-0.57-0.73-0.7-1.34-0.39c-0.19,0.1-0.38,0.21-0.56,0.34c-0.19,0.13-0.33,0.26-0.44,0.38
				c-0.17,0.17-0.37,0.32-0.6,0.44c-0.33,0.16-0.63,0.22-0.91,0.16c-0.28-0.05-0.49-0.24-0.62-0.56l-1.17-2.76
				c-0.08-0.19-0.1-0.35-0.05-0.48s0.17-0.25,0.39-0.36l4.53-2.28c0.23-0.11,0.4-0.14,0.53-0.09c0.13,0.06,0.25,0.19,0.35,0.4
				l0.3,0.61c0.11,0.21,0.14,0.39,0.11,0.52c-0.03,0.14-0.16,0.26-0.39,0.38l-3.1,1.56l0.22,0.53c0.1-0.09,0.26-0.19,0.47-0.32
				c0.21-0.13,0.39-0.23,0.52-0.3c0.97-0.49,1.81-0.67,2.53-0.56c0.72,0.11,1.31,0.62,1.76,1.52c0.28,0.55,0.37,1.11,0.27,1.66
				c-0.1,0.55-0.36,1.07-0.78,1.54c-0.42,0.47-0.97,0.88-1.63,1.21C233.93,177,233.35,177.21,232.76,177.33z"/>
			<path d="M238.78,173.52c-0.88-0.25-1.61-0.96-2.19-2.12c-0.45-0.89-0.66-1.73-0.64-2.52c0.02-0.79,0.23-1.48,0.61-2.06
				c0.39-0.58,0.89-1.02,1.5-1.33c0.52-0.26,0.99-0.43,1.43-0.52c0.44-0.08,0.87-0.1,1.29-0.04c0.12,0.02,0.2,0.07,0.23,0.15
				c0.03,0.06,0.04,0.17,0.04,0.31l-0.07,1.14c-0.01,0.13-0.05,0.21-0.13,0.25c-0.05,0.02-0.14,0.04-0.29,0.04
				c-0.46-0.01-0.91,0.1-1.35,0.32c-0.35,0.18-0.61,0.4-0.77,0.68c-0.16,0.28-0.25,0.61-0.27,1c0.15-0.21,0.36-0.42,0.62-0.64
				c0.26-0.22,0.53-0.4,0.79-0.53c0.59-0.29,1.13-0.44,1.63-0.43c0.5,0.01,0.92,0.14,1.29,0.38c0.36,0.25,0.65,0.58,0.86,1
				c0.49,0.97,0.57,1.84,0.24,2.63c-0.33,0.78-1.02,1.44-2.07,1.97C240.57,173.66,239.65,173.77,238.78,173.52z M241.11,170.85
				c0.04-0.22-0.04-0.51-0.21-0.86s-0.37-0.58-0.57-0.69c-0.2-0.1-0.43-0.09-0.71,0.05c-0.25,0.12-0.38,0.29-0.41,0.51
				s0.05,0.5,0.22,0.86c0.18,0.36,0.36,0.59,0.55,0.69c0.19,0.11,0.41,0.1,0.66-0.03C240.92,171.25,241.08,171.07,241.11,170.85z"/>
		</g>
		<rect x="122.4" y="137.79" transform="matrix(0.8936 -0.449 0.449 0.8936 -45.1284 95.8594)" width="114.38" height="10.63"/>
	</g>
	<path class="st166" d="M241.65,270.19l-90.28,4.04c-6.59,0.3-12.23-4.86-12.52-11.45l-2.31-51.57c-0.3-6.59,4.86-12.23,11.45-12.52
		l90.28-4.04c6.59-0.3,12.23,4.86,12.52,11.45l2.31,51.57C253.39,264.26,248.24,269.9,241.65,270.19z"/>
	<circle class="st131" cx="157.95" cy="235.46" r="12.19"/>
	<g>
		<path d="M146.72,265.97c-0.1-0.1-0.15-0.27-0.16-0.51l-0.03-0.67c-0.01-0.24,0.03-0.41,0.11-0.52s0.26-0.17,0.51-0.18l0.75-0.03
			l-0.14-3.1l-0.47,0.33c-0.04,0.03-0.09,0.05-0.14,0.05c-0.07,0-0.13-0.03-0.18-0.1l-0.96-1.34c-0.03-0.04-0.05-0.08-0.05-0.13
			c0-0.08,0.04-0.14,0.12-0.2l2.18-1.45c0.09-0.06,0.18-0.1,0.27-0.13c0.09-0.03,0.21-0.05,0.38-0.05l0.87-0.04
			c0.26-0.01,0.45,0.04,0.56,0.14c0.11,0.11,0.17,0.27,0.18,0.5l0.24,5.37l0.76-0.03c0.25-0.01,0.43,0.03,0.52,0.14
			s0.15,0.27,0.16,0.51l0.03,0.67c0.01,0.24-0.03,0.41-0.11,0.52c-0.09,0.11-0.26,0.17-0.51,0.18l-4.35,0.19
			C146.99,266.12,146.82,266.07,146.72,265.97z"/>
		<path d="M152.4,265.26l-0.03-0.7c-0.02-0.47,0.12-0.91,0.42-1.34c0.3-0.43,0.83-0.93,1.59-1.52c0.27-0.2,0.43-0.32,0.5-0.37
			c0.28-0.2,0.47-0.35,0.57-0.45c0.11-0.1,0.18-0.21,0.24-0.32s0.07-0.26,0.06-0.43c-0.01-0.2-0.09-0.36-0.24-0.47
			c-0.15-0.12-0.38-0.17-0.68-0.15c-0.51,0.02-1.01,0.17-1.52,0.46c-0.12,0.07-0.21,0.1-0.27,0.11c-0.09,0-0.16-0.05-0.23-0.16
			l-0.64-0.99c-0.08-0.12-0.12-0.22-0.12-0.29c0-0.09,0.04-0.17,0.13-0.24c0.33-0.25,0.76-0.45,1.29-0.61
			c0.53-0.16,1.12-0.26,1.76-0.29c1-0.04,1.79,0.13,2.39,0.52c0.6,0.39,0.92,0.96,0.95,1.72c0.03,0.58-0.12,1.09-0.42,1.51
			c-0.3,0.42-0.82,0.89-1.53,1.39c-0.76,0.54-1.22,0.9-1.37,1.08l2.89-0.13c0.25-0.01,0.43,0.03,0.52,0.14
			c0.1,0.1,0.15,0.27,0.16,0.51l0.03,0.68c0.01,0.24-0.03,0.41-0.11,0.52c-0.09,0.11-0.26,0.17-0.51,0.18l-5.22,0.23
			C152.63,265.86,152.42,265.67,152.4,265.26z"/>
		<path d="M160.73,265.49c-0.56-0.1-1.02-0.26-1.36-0.47c-0.1-0.07-0.15-0.14-0.15-0.23c0-0.07,0.03-0.17,0.09-0.3l0.55-1.05
			c0.06-0.11,0.13-0.17,0.22-0.18c0.06,0,0.15,0.03,0.28,0.08c0.21,0.09,0.47,0.17,0.77,0.22c0.3,0.05,0.59,0.07,0.89,0.06
			c0.39-0.02,0.69-0.09,0.88-0.22s0.28-0.31,0.26-0.56c-0.02-0.38-0.28-0.56-0.8-0.54l-0.91,0.04c-0.26,0.01-0.45-0.04-0.56-0.14
			c-0.11-0.11-0.17-0.27-0.18-0.5l-0.03-0.64c-0.01-0.23,0.04-0.4,0.14-0.52c0.1-0.12,0.28-0.18,0.54-0.19l0.72-0.03
			c0.26-0.01,0.45-0.07,0.56-0.17c0.12-0.1,0.17-0.25,0.16-0.45c-0.02-0.38-0.35-0.55-1.01-0.53c-0.53,0.02-1.03,0.16-1.49,0.42
			c-0.12,0.07-0.21,0.11-0.27,0.11c-0.09,0-0.17-0.05-0.23-0.16l-0.64-0.99c-0.08-0.12-0.12-0.22-0.12-0.29
			c0-0.09,0.04-0.17,0.13-0.24c0.33-0.25,0.75-0.44,1.25-0.59c0.5-0.15,1.08-0.24,1.72-0.27c0.69-0.03,1.29,0.04,1.81,0.22
			c0.52,0.18,0.92,0.45,1.21,0.81c0.29,0.36,0.45,0.79,0.47,1.3c0.03,0.7-0.19,1.25-0.65,1.65c0.64,0.34,0.98,0.9,1.01,1.69
			c0.04,0.8-0.24,1.45-0.83,1.94c-0.59,0.49-1.46,0.77-2.6,0.82C161.9,265.63,161.29,265.59,160.73,265.49z"/>
		<path d="M169.65,264.96c-0.11-0.09-0.17-0.24-0.18-0.47l-0.04-0.93l-2.86,0.13c-0.29,0.01-0.43-0.12-0.45-0.4l-0.05-1.09
			c-0.01-0.18,0-0.32,0.03-0.41c0.03-0.09,0.1-0.21,0.21-0.35l3.05-4.04c0.13-0.17,0.23-0.27,0.32-0.32
			c0.08-0.05,0.23-0.08,0.45-0.09l1.14-0.05c0.26-0.01,0.45,0.04,0.56,0.14c0.11,0.11,0.17,0.27,0.18,0.5l0.17,3.83l0.45-0.02
			c0.25-0.01,0.43,0.04,0.52,0.14c0.1,0.1,0.15,0.27,0.16,0.51l0.03,0.66c0.01,0.24-0.03,0.41-0.11,0.52
			c-0.09,0.11-0.26,0.17-0.51,0.18l-0.45,0.02l0.04,0.93c0.01,0.23-0.04,0.39-0.14,0.49c-0.1,0.1-0.29,0.15-0.56,0.16l-1.41,0.06
			C169.94,265.09,169.76,265.05,169.65,264.96z M169.97,261.52l-0.07-1.55l-1.07,1.61L169.97,261.52z"/>
		<path d="M178.71,264.65c-0.58-0.13-1.07-0.31-1.46-0.56c-0.1-0.07-0.15-0.14-0.15-0.23c0-0.07,0.03-0.17,0.09-0.3l0.55-1.05
			c0.07-0.12,0.14-0.18,0.22-0.19c0.04,0,0.13,0.03,0.28,0.09c0.59,0.3,1.27,0.43,2.04,0.4c0.39-0.02,0.69-0.12,0.9-0.29
			c0.21-0.18,0.31-0.43,0.3-0.75c-0.03-0.63-0.38-0.93-1.06-0.9c-0.21,0.01-0.43,0.04-0.66,0.08c-0.22,0.05-0.41,0.1-0.56,0.16
			c-0.23,0.09-0.47,0.14-0.73,0.15c-0.36,0.02-0.66-0.06-0.9-0.22c-0.23-0.16-0.35-0.42-0.34-0.77l0.06-3
			c0.01-0.21,0.06-0.36,0.15-0.46s0.26-0.15,0.5-0.17l5.07-0.23c0.25-0.01,0.43,0.03,0.52,0.14c0.1,0.1,0.15,0.27,0.16,0.51
			l0.03,0.68c0.01,0.24-0.03,0.41-0.11,0.52c-0.09,0.11-0.25,0.17-0.51,0.18l-3.46,0.15l-0.01,0.57c0.13-0.04,0.31-0.07,0.56-0.1
			c0.25-0.03,0.45-0.05,0.6-0.06c1.08-0.05,1.93,0.13,2.54,0.52c0.61,0.4,0.94,1.1,0.99,2.1c0.03,0.62-0.12,1.16-0.43,1.62
			c-0.32,0.47-0.76,0.83-1.34,1.09c-0.58,0.26-1.24,0.41-1.98,0.44C179.9,264.82,179.29,264.77,178.71,264.65z"/>
		<path d="M185.75,263.63c-0.7-0.59-1.07-1.54-1.13-2.83c-0.04-1,0.11-1.85,0.45-2.56c0.34-0.71,0.81-1.25,1.4-1.63
			c0.59-0.37,1.23-0.57,1.92-0.6c0.58-0.03,1.08,0.01,1.52,0.12c0.44,0.1,0.83,0.27,1.19,0.49c0.1,0.07,0.15,0.14,0.15,0.23
			c0,0.07-0.03,0.17-0.09,0.3l-0.53,1.01c-0.06,0.11-0.13,0.17-0.22,0.18c-0.06,0-0.15-0.02-0.28-0.08
			c-0.41-0.2-0.87-0.28-1.37-0.26c-0.4,0.02-0.72,0.12-0.98,0.3c-0.26,0.19-0.48,0.45-0.66,0.8c0.22-0.13,0.5-0.24,0.83-0.33
			c0.33-0.09,0.64-0.15,0.94-0.16c0.66-0.03,1.21,0.06,1.66,0.27c0.45,0.21,0.79,0.5,1.02,0.88c0.23,0.37,0.36,0.79,0.38,1.26
			c0.05,1.08-0.24,1.92-0.86,2.49c-0.62,0.58-1.52,0.89-2.7,0.95C187.33,264.49,186.45,264.22,185.75,263.63z M188.98,262.15
			c0.12-0.19,0.17-0.48,0.16-0.88c-0.02-0.4-0.1-0.68-0.24-0.86c-0.14-0.18-0.36-0.26-0.67-0.24c-0.28,0.01-0.47,0.11-0.59,0.3
			c-0.11,0.19-0.16,0.48-0.14,0.88c0.02,0.4,0.09,0.68,0.22,0.86s0.33,0.26,0.61,0.25C188.64,262.43,188.85,262.33,188.98,262.15z"
			/>
		<path d="M194.03,263.96c-0.58-0.12-1.07-0.31-1.46-0.56c-0.1-0.07-0.15-0.14-0.15-0.23c0-0.07,0.03-0.17,0.09-0.3l0.55-1.05
			c0.07-0.12,0.14-0.18,0.22-0.19c0.04,0,0.13,0.03,0.28,0.09c0.59,0.3,1.27,0.43,2.04,0.4c0.39-0.02,0.69-0.11,0.9-0.29
			c0.21-0.18,0.31-0.42,0.3-0.75c-0.03-0.63-0.38-0.93-1.06-0.9c-0.21,0.01-0.43,0.04-0.66,0.08c-0.22,0.05-0.41,0.1-0.56,0.16
			c-0.22,0.09-0.47,0.14-0.73,0.15c-0.36,0.02-0.66-0.06-0.9-0.22c-0.23-0.16-0.35-0.42-0.34-0.77l0.06-3
			c0.01-0.21,0.06-0.36,0.15-0.46c0.09-0.1,0.26-0.15,0.5-0.17l5.07-0.23c0.25-0.01,0.43,0.04,0.52,0.14s0.15,0.27,0.16,0.51
			l0.03,0.68c0.01,0.24-0.03,0.41-0.11,0.52c-0.09,0.11-0.25,0.17-0.51,0.18l-3.46,0.16l-0.01,0.57c0.13-0.04,0.31-0.07,0.56-0.1
			c0.25-0.03,0.45-0.05,0.6-0.06c1.08-0.05,1.93,0.13,2.54,0.52c0.61,0.4,0.94,1.1,0.99,2.1c0.03,0.62-0.12,1.16-0.43,1.62
			c-0.32,0.47-0.76,0.83-1.34,1.09c-0.58,0.26-1.24,0.41-1.98,0.44C195.23,264.14,194.62,264.09,194.03,263.96z"/>
		<path d="M201.08,262.94c-0.7-0.59-1.07-1.54-1.13-2.83c-0.04-1,0.11-1.85,0.45-2.56c0.34-0.71,0.81-1.25,1.4-1.63
			c0.59-0.37,1.23-0.57,1.92-0.6c0.58-0.03,1.08,0.01,1.52,0.12c0.44,0.1,0.83,0.27,1.19,0.49c0.1,0.07,0.15,0.14,0.15,0.23
			c0,0.07-0.03,0.17-0.09,0.3l-0.53,1.01c-0.06,0.11-0.13,0.17-0.22,0.18c-0.06,0-0.15-0.02-0.28-0.08
			c-0.41-0.2-0.87-0.28-1.37-0.26c-0.39,0.02-0.72,0.12-0.98,0.31c-0.26,0.19-0.48,0.45-0.66,0.8c0.22-0.13,0.5-0.24,0.83-0.33
			c0.33-0.09,0.64-0.15,0.94-0.16c0.66-0.03,1.21,0.06,1.66,0.27c0.45,0.21,0.79,0.5,1.02,0.88c0.23,0.37,0.36,0.79,0.38,1.26
			c0.05,1.08-0.24,1.91-0.86,2.49c-0.62,0.58-1.52,0.89-2.7,0.95C202.66,263.8,201.77,263.53,201.08,262.94z M204.3,261.46
			c0.12-0.19,0.17-0.48,0.16-0.88c-0.02-0.39-0.1-0.68-0.24-0.86c-0.14-0.18-0.36-0.26-0.67-0.24c-0.28,0.01-0.47,0.11-0.59,0.3
			c-0.11,0.19-0.16,0.48-0.14,0.88c0.02,0.4,0.09,0.68,0.22,0.86c0.13,0.18,0.33,0.26,0.61,0.25
			C203.97,261.75,204.18,261.65,204.3,261.46z"/>
		<path d="M209.36,263.28c-0.58-0.13-1.07-0.31-1.46-0.56c-0.1-0.07-0.15-0.14-0.15-0.23c0-0.07,0.03-0.17,0.09-0.3l0.55-1.05
			c0.07-0.12,0.14-0.18,0.22-0.19c0.04,0,0.13,0.03,0.28,0.09c0.59,0.3,1.27,0.43,2.04,0.4c0.39-0.02,0.69-0.12,0.9-0.29
			c0.21-0.18,0.31-0.42,0.3-0.75c-0.03-0.63-0.38-0.93-1.06-0.9c-0.21,0.01-0.43,0.04-0.66,0.08c-0.22,0.05-0.41,0.1-0.56,0.16
			c-0.23,0.09-0.47,0.14-0.73,0.15c-0.36,0.02-0.66-0.06-0.9-0.22c-0.23-0.16-0.34-0.42-0.34-0.77l0.06-3
			c0.01-0.21,0.06-0.36,0.15-0.46c0.09-0.1,0.26-0.15,0.5-0.17l5.06-0.23c0.25-0.01,0.43,0.03,0.52,0.14
			c0.1,0.1,0.15,0.27,0.16,0.51l0.03,0.68c0.01,0.24-0.03,0.41-0.11,0.52c-0.09,0.11-0.25,0.17-0.51,0.18l-3.46,0.16l-0.01,0.57
			c0.13-0.04,0.31-0.07,0.56-0.1c0.25-0.03,0.45-0.05,0.6-0.06c1.08-0.05,1.93,0.13,2.54,0.52c0.61,0.4,0.94,1.1,0.99,2.1
			c0.03,0.62-0.12,1.16-0.43,1.62c-0.32,0.47-0.76,0.83-1.34,1.09c-0.58,0.26-1.24,0.41-1.98,0.44
			C210.55,263.45,209.94,263.4,209.36,263.28z"/>
		<path d="M219.96,262.1c-0.7-0.59-1.07-1.54-1.13-2.83c-0.04-1,0.11-1.85,0.45-2.56c0.34-0.71,0.81-1.25,1.4-1.63
			c0.59-0.37,1.23-0.57,1.92-0.6c0.58-0.03,1.08,0.01,1.52,0.12c0.44,0.1,0.83,0.27,1.19,0.49c0.1,0.07,0.15,0.14,0.15,0.23
			c0,0.07-0.03,0.17-0.09,0.3l-0.53,1.01c-0.06,0.11-0.13,0.17-0.22,0.18c-0.06,0-0.15-0.02-0.28-0.08
			c-0.41-0.2-0.87-0.28-1.37-0.26c-0.4,0.02-0.72,0.12-0.98,0.3c-0.26,0.19-0.48,0.45-0.66,0.8c0.22-0.13,0.5-0.24,0.83-0.33
			c0.33-0.09,0.64-0.15,0.94-0.16c0.66-0.03,1.21,0.06,1.66,0.27c0.45,0.21,0.79,0.5,1.02,0.88c0.23,0.37,0.36,0.79,0.38,1.26
			c0.05,1.08-0.24,1.92-0.86,2.49c-0.62,0.58-1.52,0.89-2.7,0.95C221.54,262.96,220.66,262.69,219.96,262.1z M223.19,260.61
			c0.12-0.19,0.17-0.48,0.16-0.88c-0.02-0.4-0.1-0.68-0.24-0.86c-0.14-0.18-0.36-0.26-0.67-0.24c-0.28,0.01-0.47,0.11-0.59,0.3
			c-0.11,0.19-0.16,0.48-0.14,0.87c0.02,0.4,0.09,0.68,0.22,0.86c0.13,0.18,0.33,0.26,0.61,0.25
			C222.85,260.9,223.07,260.8,223.19,260.61z"/>
		<path d="M228.24,262.43c-0.58-0.13-1.07-0.31-1.46-0.56c-0.1-0.07-0.15-0.14-0.15-0.23c0-0.07,0.03-0.17,0.09-0.3l0.55-1.05
			c0.07-0.12,0.14-0.18,0.22-0.19c0.04,0,0.13,0.03,0.28,0.09c0.59,0.3,1.27,0.43,2.04,0.4c0.39-0.02,0.69-0.12,0.9-0.29
			c0.21-0.18,0.31-0.42,0.3-0.75c-0.03-0.63-0.38-0.93-1.06-0.9c-0.21,0.01-0.43,0.04-0.66,0.08c-0.22,0.05-0.41,0.1-0.56,0.16
			c-0.23,0.09-0.47,0.14-0.73,0.15c-0.36,0.02-0.66-0.06-0.9-0.22c-0.23-0.16-0.35-0.42-0.34-0.77l0.06-3
			c0.01-0.21,0.06-0.36,0.15-0.46c0.09-0.1,0.26-0.15,0.5-0.17l5.07-0.23c0.25-0.01,0.43,0.03,0.52,0.14
			c0.09,0.1,0.15,0.27,0.16,0.51l0.03,0.68c0.01,0.24-0.03,0.41-0.11,0.52c-0.09,0.11-0.25,0.17-0.51,0.18l-3.46,0.15l-0.01,0.57
			c0.13-0.04,0.31-0.07,0.56-0.1c0.25-0.03,0.45-0.05,0.6-0.06c1.08-0.05,1.93,0.13,2.54,0.52c0.61,0.4,0.94,1.1,0.99,2.1
			c0.03,0.62-0.12,1.16-0.43,1.62c-0.32,0.47-0.76,0.83-1.34,1.09c-0.58,0.26-1.24,0.41-1.98,0.44
			C229.44,262.6,228.83,262.56,228.24,262.43z"/>
		<path d="M235.29,261.41c-0.7-0.59-1.07-1.54-1.13-2.83c-0.04-1,0.11-1.85,0.45-2.56s0.81-1.25,1.4-1.63
			c0.59-0.37,1.23-0.57,1.92-0.6c0.58-0.03,1.08,0.01,1.52,0.12c0.44,0.1,0.83,0.27,1.19,0.49c0.1,0.07,0.15,0.14,0.15,0.23
			c0,0.07-0.03,0.17-0.09,0.3l-0.53,1.01c-0.06,0.11-0.13,0.17-0.22,0.18c-0.06,0-0.15-0.02-0.28-0.08
			c-0.41-0.2-0.87-0.28-1.37-0.26c-0.39,0.02-0.72,0.12-0.98,0.3c-0.26,0.19-0.48,0.45-0.66,0.8c0.22-0.13,0.5-0.24,0.83-0.33
			c0.33-0.09,0.64-0.15,0.94-0.16c0.66-0.03,1.21,0.06,1.66,0.27s0.79,0.5,1.02,0.88c0.23,0.37,0.36,0.79,0.38,1.26
			c0.05,1.08-0.24,1.92-0.86,2.49c-0.62,0.58-1.52,0.89-2.7,0.95C236.87,262.27,235.98,262,235.29,261.41z M238.51,259.93
			c0.12-0.19,0.17-0.48,0.16-0.88c-0.02-0.4-0.1-0.68-0.24-0.86c-0.14-0.18-0.36-0.26-0.67-0.24c-0.28,0.01-0.47,0.11-0.59,0.3
			c-0.11,0.19-0.16,0.48-0.14,0.87c0.02,0.4,0.09,0.68,0.22,0.86c0.13,0.18,0.33,0.26,0.61,0.25
			C238.18,260.22,238.39,260.12,238.51,259.93z"/>
	</g>
	<rect x="136.51" y="204.15" transform="matrix(0.999 -0.0447 0.0447 0.999 -9.1696 8.8677)" width="114.38" height="10.63"/>
</g>
</svg>
