<?xml version="1.0" encoding="utf-8"?>
<!-- Generator: Adobe Illustrator 23.0.0, SVG Export Plug-In . SVG Version: 6.00 Build 0)  -->
<svg version="1.1" id="Capa_1" xmlns="http://www.w3.org/2000/svg" xmlns:xlink="http://www.w3.org/1999/xlink" x="0px" y="0px"
	 viewBox="0 0 400 702" style="enable-background:new 0 0 400 702;" xml:space="preserve">
<style type="text/css">
	.st0{fill:#0085B0;}
	.st1{fill:#E0EF18;}
	.st2{fill:#CECECE;}
	.st3{fill:#FFFFFF;}
	.st4{fill:#F2F2F2;}
	.st5{fill:#EACCB0;}
	.st6{fill:#9B9B9B;}
	.st7{fill:#939393;}
	.st8{fill:#EFEFEF;}
	.st9{fill:#828282;}
	.st10{fill:#2C2A2D;}
	.st11{fill:#202021;}
	.st12{fill:#F2D4B6;}
	.st13{fill:#534D46;}
	.st14{fill:#E8D313;}
	.st15{fill:#2ACCFF;}
	.st16{fill:#4E4F4F;}
	.st17{fill:#003A94;}
	.st18{fill:#00D13C;}
	.st19{fill:#15682A;}
	.st20{fill:#D40000;}
	.st21{fill:#505050;}
	.st22{fill:#DFDFDF;}
	.st23{fill:none;}
	.st24{fill:#636363;}
	.st25{fill:#6C92D5;}
	.st26{fill:#22272F;}
	.st27{fill:#1B2538;}
	.st28{fill:#253452;}
	.st29{fill:#F9F9F9;}
	.st30{fill:#2D3543;}
	.st31{fill:#2A3D60;}
	.st32{fill:#587955;}
	.st33{fill:#CD7054;}
	.st34{fill:#F1CC4B;}
	.st35{fill:#ACACAC;}
	.st36{fill:#AAE528;}
	.st37{fill:#28CEBA;}
	.st38{fill:#DB143F;}
	.st39{fill:#53C2C9;}
	.st40{fill:#FFB412;}
	.st41{fill:#866A5E;}
	.st42{fill:#F7DDCB;}
	.st43{fill:#FFE6D4;}
	.st44{fill:#F5F5F5;}
	.st45{fill:#1A2830;}
	.st46{fill:#24353F;}
	.st47{fill:#132026;}
	.st48{fill:#F9FF03;}
	.st49{fill:#272728;}
	.st50{fill:#1E1D1E;}
	.st51{fill:#160423;}
	.st52{fill-rule:evenodd;clip-rule:evenodd;fill:#FFFFFF;}
	.st53{fill-rule:evenodd;clip-rule:evenodd;fill:#1996B8;}
	.st54{fill:#0C387D;}
	.st55{fill:#C69A81;}
	.st56{fill:#D1A385;}
	.st57{fill:#EAEAEA;}
	.st58{fill:#093E8C;}
	.st59{fill:#0B2A62;}
	.st60{fill:#D32A3B;}
	.st61{fill:#827C7D;}
	.st62{opacity:0.7;fill:#7F7F7F;}
	.st63{fill:#FDFDFD;}
	.st64{fill:#DAA449;}
	.st65{fill:#DD9225;}
	.st66{opacity:0.3;}
	.st67{fill:#425793;}
	.st68{opacity:0.8;}
	.st69{filter:url(#Adobe_OpacityMaskFilter);}
	.st70{opacity:0.15;mask:url(#SVGID_1_);}
	.st71{fill:#090B00;}
	.st72{opacity:0.1;}
	.st73{fill:#211915;}
	.st74{filter:url(#Adobe_OpacityMaskFilter_1_);}
	.st75{opacity:0.15;mask:url(#SVGID_2_);}
	.st76{fill:#AF3623;}
	.st77{filter:url(#Adobe_OpacityMaskFilter_2_);}
	.st78{opacity:0.15;mask:url(#SVGID_3_);}
	.st79{filter:url(#Adobe_OpacityMaskFilter_3_);}
	.st80{opacity:0.15;mask:url(#SVGID_4_);}
	.st81{fill:#456495;}
	.st82{filter:url(#Adobe_OpacityMaskFilter_4_);}
	.st83{opacity:0.15;mask:url(#SVGID_5_);}
	.st84{filter:url(#Adobe_OpacityMaskFilter_5_);}
	.st85{opacity:0.15;mask:url(#SVGID_6_);}
	.st86{fill:#76A9DA;}
	.st87{filter:url(#Adobe_OpacityMaskFilter_6_);}
	.st88{opacity:0.15;mask:url(#SVGID_7_);}
	.st89{filter:url(#Adobe_OpacityMaskFilter_7_);}
	.st90{opacity:0.15;mask:url(#SVGID_8_);}
	.st91{fill:#1F3642;}
	.st92{fill:#A9BDDA;}
	.st93{opacity:0.46;fill:#A6B4BC;}
	.st94{fill:#74C475;}
	.st95{fill:#221F21;}
	.st96{fill:#2D2D2D;}
	.st97{fill:#1C1B1A;}
	.st98{fill:#77181C;}
	.st99{fill:#262525;}
	.st100{fill:#11100F;}
	.st101{opacity:0.18;}
	.st102{opacity:0.38;}
	.st103{fill:#0A5B1F;}
	.st104{opacity:0.27;}
	.st105{opacity:0.48;}
	.st106{fill:#0A4654;}
	.st107{fill:#C2C6C6;}
	.st108{fill:#E5E5E5;stroke:#FFFFFF;stroke-miterlimit:10;}
	.st109{fill:#ACB4B5;}
	.st110{fill:#7F8384;}
	.st111{fill:#15772F;}
	.st112{fill:#F4F4F4;}
	.st113{fill:#53B8DB;}
	.st114{fill:#06EF42;}
	.st115{fill:#E7ED07;}
	.st116{fill:#CCCCCA;}
	.st117{fill:#EADF13;}
	.st118{fill:#C2C2C2;}
	.st119{fill:#85B681;}
	.st120{fill:#A1DC9B;}
	.st121{fill:#90C58B;}
	.st122{fill:#22241F;}
	.st123{opacity:0.5;}
	.st124{fill:#A2CADE;}
	.st125{fill:#E9E9E9;}
	.st126{fill:#D9D9D9;}
	.st127{fill:#CDCDCD;}
	.st128{opacity:0.34;fill:#F0F0F0;}
	.st129{fill:#5A5B5A;}
	.st130{fill:#FFE600;}
	.st131{fill:#DB1F59;}
	.st132{fill:#727272;}
	.st133{fill:#207235;}
	.st134{fill:#A3A3A3;}
	.st135{fill:#BCBCBC;}
	.st136{fill:#0A511C;}
	.st137{fill:#F9FF00;}
	.st138{fill:#D59F6D;}
	.st139{fill:#C0804A;}
	.st140{fill:#E6BA8A;}
	.st141{fill:#BE3ACC;}
	.st142{fill:#FFFFFF;stroke:#443F0C;stroke-width:9;stroke-miterlimit:10;}
	.st143{fill:none;stroke:#443F0C;stroke-width:9;stroke-miterlimit:10;}
	.st144{fill:#170623;}
	.st145{fill:#158231;}
	.st146{fill:#C89D76;}
	.st147{opacity:0.4;}
	.st148{fill:#ADADAD;}
	.st149{fill:#EDC3A6;}
	.st150{opacity:0.69;}
	.st151{fill:#E5D3D6;}
	.st152{opacity:0.44;}
	.st153{fill:#A5A5A5;}
	.st154{fill:#DDE5E4;}
	.st155{fill:#5C9169;}
	.st156{fill:#934215;}
	.st157{fill:#47413B;}
	.st158{fill:#601A1F;}
	.st159{fill:#044554;}
	.st160{opacity:0.7;}
	.st161{fill:#7F7F7F;}
	.st162{fill:#6B8A69;}
	.st163{opacity:0.24;fill:#848D90;}
	.st164{opacity:0.4;fill:#848D90;}
	.st165{fill:#F2D5D5;}
	.st166{fill:#485CC1;}
	.st167{fill:#C6CBE0;}
	.st168{fill:#8B909E;}
	.st169{fill:#53BC1B;}
	.st170{fill:#11565B;}
	.st171{fill:#67A06D;}
	.st172{fill:#FFEC00;}
	.st173{fill:#77A007;}
	.st174{fill:#E50731;}
	.st175{fill:#266472;}
	.st176{fill:#D4D4D4;}
	.st177{fill:#0E9932;}
	.st178{fill:#87DD24;}
	.st179{fill:#76A172;}
	.st180{fill:#62835F;}
	.st181{fill:#96D090;}
	.st182{fill:#D6D6D6;}
	.st183{fill:#606060;}
	.st184{fill:#494949;}
	.st185{fill:#29E55A;}
	.st186{fill:#2C703D;}
	.st187{fill:#DD0744;}
	.st188{fill:#EDEDED;}
	.st189{fill:#2A5936;}
	.st190{fill:#B9BBC1;}
	.st191{fill:#FFD79E;}
	.st192{fill:#FFE6C2;}
	.st193{fill:#2CBB55;}
	.st194{fill:#5C412D;}
	.st195{fill:#EC0000;}
	.st196{fill:#DD2626;}
	.st197{fill:#EA9334;}
	.st198{fill:#FCC232;}
	.st199{fill:#F9B234;}
	.st200{fill:#F7A037;}
	.st201{fill:#E0E0E0;}
</style>
<g>
	<g>
		<path class="st18" d="M9.5,209.36c0,22,13.29,27.86,29.54,13.03c0,0,156.99-143.3,353.09,26.97V55c0-22-18-40-40-40H49.5
			c-22,0-40,18-40,40V209.36z"/>
	</g>
	<g>
		<path class="st18" d="M391.66,647c0,22-18,40-40,40H49.98c-22,0-40-18-40-40v-46.27c0-22,18-40,40-40h301.68c22,0,40,18,40,40V647
			z"/>
	</g>
	<polygon class="st1" points="200.76,96.93 214.23,124.22 244.34,128.59 222.55,149.83 227.7,179.83 200.76,165.67 173.83,179.83 
		178.97,149.83 157.18,128.59 187.29,124.22 	"/>
	<polygon class="st1" points="138.58,180.15 147.32,197.86 166.86,200.7 152.72,214.48 156.06,233.94 138.58,224.75 121.11,233.94 
		124.45,214.48 110.31,200.7 129.85,197.86 	"/>
	<polygon class="st1" points="268.68,180.15 277.42,197.86 296.95,200.7 282.82,214.48 286.15,233.94 268.68,224.75 251.2,233.94 
		254.54,214.48 240.4,200.7 259.94,197.86 	"/>
	<circle class="st2" cx="201.77" cy="213.97" r="121.96"/>
	<circle class="st3" cx="200.82" cy="200.58" r="121.96"/>
	<g>
		<path class="st3" d="M184.17,644.07c-3.43-0.78-6.17-1.87-8.21-3.29c-0.58-0.44-0.88-0.92-0.88-1.46c0-0.44,0.22-1.05,0.66-1.82
			l3.65-6.28c0.39-0.68,0.85-1.02,1.39-1.02c0.34,0,0.9,0.2,1.68,0.58c1.27,0.63,2.81,1.16,4.64,1.57c1.82,0.41,3.64,0.62,5.44,0.62
			c2.43,0,4.25-0.37,5.44-1.09c1.19-0.73,1.79-1.85,1.79-3.36c0-2.34-1.58-3.5-4.75-3.5h-5.62c-1.61,0-2.74-0.34-3.39-1.02
			c-0.66-0.68-0.99-1.73-0.99-3.14v-3.94c0-1.41,0.33-2.46,0.99-3.14c0.66-0.68,1.79-1.02,3.39-1.02h4.45c1.61,0,2.77-0.29,3.5-0.88
			s1.1-1.48,1.1-2.7c0-2.34-2.02-3.5-6.06-3.5c-3.26,0-6.35,0.73-9.27,2.19c-0.78,0.39-1.34,0.58-1.68,0.58
			c-0.54,0-1-0.34-1.39-1.02l-3.65-6.28c-0.44-0.78-0.66-1.39-0.66-1.83c0-0.54,0.29-1.02,0.88-1.46c2.09-1.41,4.7-2.51,7.81-3.29
			c3.11-0.78,6.67-1.17,10.66-1.17c4.23,0,7.92,0.62,11.06,1.86c3.14,1.24,5.55,3,7.23,5.29c1.68,2.29,2.52,4.99,2.52,8.1
			c0,4.28-1.49,7.59-4.45,9.93c3.84,2.24,5.77,5.79,5.77,10.66c0,4.92-1.87,8.81-5.62,11.68c-3.75,2.87-9.15,4.31-16.21,4.31
			C191.34,645.24,187.6,644.85,184.17,644.07z"/>
	</g>
	<g>
		<path d="M136.59,406.32c-0.41-0.42-0.61-1.06-0.61-1.94v-25.47c0-0.87,0.2-1.51,0.61-1.93s1.1-0.63,2.09-0.63h10.75
			c4.5,0,7.78,0.89,9.83,2.68c2.05,1.79,3.08,4.48,3.08,8.08s-1.03,6.29-3.08,8.05c-2.06,1.77-5.32,2.66-9.79,2.66h-2.7v6.57
			c0,0.87-0.2,1.52-0.61,1.94c-0.41,0.42-1.12,0.63-2.14,0.63h-5.35C137.69,406.95,137,406.74,136.59,406.32z M148.49,390.17
			c0.96,0,1.72-0.25,2.27-0.76c0.55-0.51,0.83-1.28,0.83-2.29c0-1.05-0.28-1.83-0.83-2.34s-1.31-0.77-2.27-0.77h-3.06v6.17H148.49z"
			/>
		<path d="M158.3,406.01c0-0.27,0.08-0.6,0.23-0.99l11.21-26.96c0.27-0.63,0.58-1.07,0.92-1.33c0.34-0.25,0.83-0.38,1.46-0.38h4.9
			c0.63,0,1.12,0.13,1.46,0.38c0.34,0.26,0.65,0.7,0.92,1.33l11.16,26.96c0.15,0.39,0.22,0.72,0.22,0.99c0,0.63-0.33,0.95-0.99,0.95
			h-8.46c-0.93,0-1.52-0.41-1.76-1.21l-1.08-3.33h-7.96l-1.04,3.33c-0.24,0.81-0.82,1.21-1.75,1.21h-8.46
			C158.63,406.95,158.3,406.64,158.3,406.01z M176.3,395.3l-1.75-5.58l-1.76,5.58H176.3z"/>
		<path d="M196.69,403.6c-3.03-2.68-4.55-6.67-4.55-11.95c0-5.25,1.52-9.22,4.55-11.93c3.03-2.7,7.26-4.05,12.69-4.05
			c2.46,0,4.66,0.24,6.61,0.72c1.95,0.48,3.57,1.16,4.86,2.03c0.36,0.27,0.54,0.57,0.54,0.9c0,0.27-0.13,0.65-0.4,1.13l-2.25,3.87
			c-0.24,0.42-0.53,0.63-0.86,0.63c-0.21,0-0.55-0.12-1.04-0.36c-1.8-0.9-3.78-1.35-5.94-1.35c-2.49,0-4.45,0.71-5.87,2.14
			c-1.42,1.42-2.14,3.52-2.14,6.28c0,2.85,0.6,4.96,1.8,6.32c1.2,1.37,2.99,2.05,5.35,2.05c0.42,0,0.89-0.04,1.42-0.11
			c0.52-0.07,0.95-0.16,1.28-0.25v-4.09h-2.88c-0.96,0-1.61-0.19-1.96-0.56c-0.35-0.38-0.52-1.01-0.52-1.91v-2.47
			c0-0.9,0.17-1.54,0.52-1.91c0.34-0.38,1-0.56,1.96-0.56h9.68c1.17,0,1.98,0.26,2.43,0.79c0.45,0.53,0.67,1.36,0.67,2.5v10.53
			c0,0.66-0.08,1.16-0.25,1.51c-0.17,0.34-0.49,0.7-0.97,1.06c-2.88,2.07-6.89,3.1-12.01,3.1
			C203.96,407.63,199.72,406.29,196.69,403.6z"/>
		<path d="M228.14,403.46c-2.76-2.77-4.14-6.71-4.14-11.81c0-5.1,1.38-9.04,4.14-11.81s6.81-4.16,12.15-4.16s9.39,1.39,12.15,4.16
			c2.76,2.78,4.14,6.71,4.14,11.81c0,5.1-1.38,9.04-4.14,11.81c-2.76,2.78-6.81,4.16-12.15,4.16S230.9,406.24,228.14,403.46z
			 M244.52,397.97c0.87-1.39,1.3-3.5,1.3-6.32c0-2.85-0.44-4.96-1.3-6.35c-0.87-1.38-2.28-2.07-4.23-2.07
			c-1.95,0-3.36,0.69-4.23,2.07c-0.87,1.38-1.3,3.5-1.3,6.35c0,2.82,0.44,4.93,1.3,6.32c0.87,1.4,2.28,2.09,4.23,2.09
			C242.24,400.07,243.65,399.37,244.52,397.97z"/>
		<path d="M41.08,460.32c-0.41-0.42-0.61-1.06-0.61-1.94v-25.47c0-0.87,0.2-1.51,0.61-1.93c0.4-0.42,1.1-0.63,2.09-0.63h10.35
			c10.59,0,15.88,5.1,15.88,15.3c0,5.04-1.36,8.85-4.07,11.43c-2.71,2.58-6.65,3.87-11.81,3.87H43.17
			C42.18,460.95,41.48,460.74,41.08,460.32z M53.93,453.3c1.68,0,2.89-0.55,3.62-1.67c0.74-1.11,1.1-3.1,1.1-5.98
			s-0.37-4.88-1.1-5.99c-0.73-1.11-1.94-1.67-3.62-1.67h-2.66v15.3H53.93z"/>
		<path d="M72.26,460.32c-0.4-0.42-0.61-1.06-0.61-1.94v-25.47c0-0.87,0.2-1.51,0.61-1.93c0.41-0.42,1.1-0.63,2.09-0.63h18.63
			c0.96,0,1.61,0.2,1.96,0.61c0.35,0.4,0.52,1.06,0.52,1.96v2.52c0,0.9-0.17,1.55-0.52,1.96c-0.34,0.41-1,0.61-1.96,0.61H82.46v3.87
			h6.48c0.96,0,1.61,0.2,1.96,0.61c0.34,0.41,0.52,1.06,0.52,1.96v2.43c0,0.9-0.17,1.55-0.52,1.96c-0.35,0.41-1,0.61-1.96,0.61
			h-6.48v3.87h10.48c0.96,0,1.61,0.2,1.96,0.61c0.35,0.41,0.52,1.06,0.52,1.96v2.52c0,0.9-0.17,1.55-0.52,1.96
			c-0.34,0.41-1,0.61-1.96,0.61H74.36C73.37,460.95,72.67,460.74,72.26,460.32z"/>
		<path d="M111.59,460.32c-0.41-0.42-0.61-1.06-0.61-1.94v-25.47c0-0.87,0.2-1.51,0.61-1.93c0.4-0.42,1.1-0.63,2.09-0.63h10.75
			c4.5,0,7.78,0.89,9.83,2.68c2.05,1.79,3.08,4.48,3.08,8.08c0,3.6-1.03,6.29-3.08,8.05c-2.06,1.77-5.32,2.66-9.79,2.66h-2.7v6.57
			c0,0.87-0.2,1.52-0.61,1.94c-0.4,0.42-1.12,0.63-2.14,0.63h-5.36C112.7,460.95,112,460.74,111.59,460.32z M123.5,444.17
			c0.96,0,1.72-0.25,2.27-0.76c0.55-0.51,0.83-1.28,0.83-2.29c0-1.05-0.28-1.83-0.83-2.34s-1.31-0.77-2.27-0.77h-3.06v6.17H123.5z"
			/>
		<path d="M139.31,460.32c-0.4-0.42-0.61-1.06-0.61-1.94v-25.47c0-0.87,0.2-1.51,0.61-1.93c0.41-0.42,1.1-0.63,2.09-0.63h10.75
			c4.5,0,7.78,0.89,9.83,2.68c2.05,1.79,3.08,4.48,3.08,8.08c0,2.16-0.37,3.98-1.1,5.47c-0.74,1.49-1.87,2.65-3.4,3.49l4.18,8.96
			c0.12,0.24,0.18,0.51,0.18,0.81c0,0.33-0.11,0.6-0.34,0.81c-0.23,0.21-0.52,0.32-0.88,0.32h-7.6c-0.48,0-0.86-0.07-1.15-0.2
			c-0.29-0.14-0.49-0.37-0.61-0.7l-3.33-8.37h-1.53v6.7c0,0.87-0.2,1.52-0.61,1.94c-0.41,0.42-1.12,0.63-2.14,0.63h-5.35
			C140.42,460.95,139.72,460.74,139.31,460.32z M151.21,444.17c0.96,0,1.72-0.25,2.27-0.76c0.55-0.51,0.83-1.28,0.83-2.29
			c0-1.05-0.28-1.83-0.83-2.34c-0.56-0.51-1.31-0.77-2.27-0.77h-3.06v6.17H151.21z"/>
		<path d="M170.56,457.46c-2.76-2.77-4.14-6.71-4.14-11.81c0-5.1,1.38-9.04,4.14-11.81c2.76-2.77,6.81-4.16,12.15-4.16
			s9.39,1.39,12.15,4.16c2.76,2.78,4.14,6.71,4.14,11.81c0,5.1-1.38,9.04-4.14,11.81c-2.76,2.78-6.81,4.16-12.15,4.16
			S173.32,460.24,170.56,457.46z M186.95,451.97c0.87-1.39,1.3-3.5,1.3-6.32c0-2.85-0.44-4.96-1.3-6.34
			c-0.87-1.38-2.28-2.07-4.23-2.07c-1.95,0-3.36,0.69-4.23,2.07c-0.87,1.38-1.3,3.5-1.3,6.34c0,2.82,0.44,4.93,1.3,6.32
			c0.87,1.4,2.28,2.09,4.23,2.09C184.66,454.07,186.07,453.37,186.95,451.97z"/>
		<path d="M201.86,460.32c-0.41-0.42-0.61-1.06-0.61-1.94v-25.47c0-0.87,0.2-1.51,0.61-1.93s1.1-0.63,2.09-0.63h10.35
			c10.59,0,15.88,5.1,15.88,15.3c0,5.04-1.36,8.85-4.07,11.43c-2.71,2.58-6.65,3.87-11.81,3.87h-10.35
			C202.96,460.95,202.27,460.74,201.86,460.32z M214.71,453.3c1.68,0,2.89-0.55,3.62-1.67c0.73-1.11,1.1-3.1,1.1-5.98
			s-0.37-4.88-1.1-5.99c-0.74-1.11-1.94-1.67-3.62-1.67h-2.65v15.3H214.71z"/>
		<path d="M239.23,460.21c-2.22-0.95-3.95-2.31-5.17-4.1c-1.23-1.78-1.84-3.91-1.84-6.37v-16.83c0-0.87,0.2-1.51,0.61-1.93
			s1.1-0.63,2.09-0.63h5.36c1.02,0,1.73,0.2,2.14,0.61c0.41,0.4,0.61,1.06,0.61,1.96v16.96c0,1.41,0.35,2.46,1.06,3.15
			c0.71,0.69,1.67,1.04,2.9,1.04s2.2-0.34,2.9-1.04c0.71-0.69,1.06-1.74,1.06-3.15v-16.96c0-0.87,0.2-1.51,0.61-1.93
			c0.4-0.42,1.1-0.63,2.09-0.63h5.36c1.02,0,1.73,0.2,2.14,0.61c0.41,0.4,0.61,1.06,0.61,1.96v16.83c0,2.46-0.62,4.58-1.84,6.37
			c-1.23,1.79-2.96,3.15-5.17,4.1c-2.22,0.94-4.8,1.42-7.74,1.42C244.03,461.63,241.46,461.15,239.23,460.21z"/>
		<path d="M268.3,457.6c-3.03-2.68-4.55-6.67-4.55-11.95c0-5.31,1.46-9.3,4.39-11.97s7.1-4.01,12.53-4.01
			c2.46,0,4.65,0.24,6.57,0.72c1.92,0.48,3.52,1.16,4.82,2.02c0.36,0.27,0.54,0.57,0.54,0.9c0,0.27-0.13,0.65-0.4,1.13l-2.25,3.87
			c-0.24,0.42-0.53,0.63-0.86,0.63c-0.21,0-0.55-0.12-1.04-0.36c-0.84-0.42-1.72-0.75-2.63-0.99c-0.91-0.24-1.99-0.36-3.22-0.36
			c-2.49,0-4.39,0.72-5.71,2.16c-1.32,1.44-1.98,3.53-1.98,6.25c0,2.7,0.72,4.78,2.16,6.23s3.4,2.18,5.89,2.18
			c2.16,0,4.14-0.45,5.94-1.35c0.48-0.24,0.83-0.36,1.04-0.36c0.33,0,0.61,0.21,0.85,0.63l2.25,3.87c0.27,0.48,0.41,0.85,0.41,1.13
			c0,0.33-0.18,0.63-0.54,0.9c-1.29,0.87-2.91,1.55-4.86,2.03c-1.95,0.48-4.16,0.72-6.62,0.72
			C275.58,461.63,271.33,460.29,268.3,457.6z"/>
		<path d="M301.94,460.32c-0.4-0.42-0.61-1.06-0.61-1.94V438h-6.48c-0.96,0-1.61-0.2-1.96-0.61c-0.34-0.41-0.52-1.06-0.52-1.96
			v-2.52c0-0.9,0.17-1.55,0.52-1.96c0.35-0.41,1-0.61,1.96-0.61h23.76c0.96,0,1.61,0.2,1.96,0.61c0.34,0.4,0.52,1.06,0.52,1.96v2.52
			c0,0.9-0.17,1.55-0.52,1.96c-0.35,0.41-1,0.61-1.96,0.61h-6.48v20.38c0,0.87-0.2,1.52-0.61,1.94c-0.41,0.42-1.12,0.63-2.14,0.63
			h-5.35C303.04,460.95,302.35,460.74,301.94,460.32z"/>
		<path d="M323.65,457.46c-2.76-2.77-4.14-6.71-4.14-11.81c0-5.1,1.38-9.04,4.14-11.81c2.76-2.77,6.81-4.16,12.15-4.16
			s9.39,1.39,12.15,4.16c2.76,2.78,4.14,6.71,4.14,11.81c0,5.1-1.38,9.04-4.14,11.81c-2.76,2.78-6.81,4.16-12.15,4.16
			S326.41,460.24,323.65,457.46z M340.03,451.97c0.87-1.39,1.31-3.5,1.31-6.32c0-2.85-0.43-4.96-1.31-6.34
			c-0.87-1.38-2.28-2.07-4.23-2.07s-3.36,0.69-4.23,2.07c-0.87,1.38-1.3,3.5-1.3,6.34c0,2.82,0.43,4.93,1.3,6.32
			c0.87,1.4,2.28,2.09,4.23,2.09S339.16,453.37,340.03,451.97z"/>
	</g>
	<g>
		<g>
			<circle class="st177" cx="201.5" cy="201.5" r="85.5"/>
		</g>
	</g>
	<path class="st178" d="M250.1,200.25h-75.61c-6.6,0-12-5.4-12-12v-19.58c0-6.6,5.4-12,12-12h75.61c6.6,0,12,5.4,12,12v19.58
		C262.1,194.85,256.7,200.25,250.1,200.25z"/>
	<g>
		<path class="st3" d="M177.31,191.79c-0.37-0.39-0.56-0.98-0.56-1.79v-23.49c0-0.8,0.19-1.4,0.56-1.79
			c0.37-0.39,1.02-0.58,1.93-0.58h9.92c4.15,0,7.17,0.82,9.07,2.47c1.89,1.65,2.84,4.13,2.84,7.45s-0.95,5.8-2.84,7.43
			c-1.9,1.63-4.91,2.45-9.03,2.45h-2.49V190c0,0.8-0.19,1.4-0.56,1.79c-0.37,0.39-1.03,0.58-1.97,0.58h-4.94
			C178.32,192.37,177.68,192.18,177.31,191.79z M188.28,176.89c0.88,0,1.58-0.23,2.1-0.71c0.51-0.47,0.77-1.18,0.77-2.12
			c0-0.97-0.26-1.69-0.77-2.16c-0.51-0.47-1.21-0.71-2.1-0.71h-2.82v5.69H188.28z"/>
		<path class="st3" d="M197.33,191.5c0-0.25,0.07-0.55,0.21-0.91l10.33-24.86c0.25-0.58,0.53-0.99,0.85-1.22
			c0.32-0.24,0.77-0.35,1.35-0.35h4.52c0.58,0,1.03,0.12,1.35,0.35s0.6,0.64,0.85,1.22l10.29,24.86c0.14,0.36,0.21,0.66,0.21,0.91
			c0,0.58-0.3,0.87-0.91,0.87h-7.8c-0.86,0-1.4-0.37-1.62-1.12l-1-3.07h-7.35l-0.96,3.07c-0.22,0.75-0.76,1.12-1.62,1.12h-7.8
			C197.64,192.37,197.33,192.08,197.33,191.5z M213.93,181.62l-1.62-5.15l-1.62,5.15H213.93z"/>
		<path class="st3" d="M232.63,191.79c-0.37-0.39-0.56-0.98-0.56-1.79v-7.51l-9.67-16.56c-0.17-0.3-0.25-0.59-0.25-0.87
			c0-0.61,0.32-0.91,0.96-0.91h7.8c0.42,0,0.73,0.09,0.95,0.27s0.44,0.46,0.66,0.85l4.52,8.13l4.52-8.13
			c0.22-0.39,0.44-0.67,0.66-0.85s0.54-0.27,0.96-0.27h7.8c0.64,0,0.96,0.3,0.96,0.91c0,0.28-0.08,0.57-0.25,0.87l-9.67,16.56V190
			c0,0.8-0.19,1.4-0.56,1.79c-0.37,0.39-1.03,0.58-1.97,0.58h-4.94C233.65,192.37,233.01,192.18,232.63,191.79z"/>
	</g>
	<g>
		<polygon class="st3" points="184.18,205.46 206.64,197.35 202.44,220.86 198.23,244.36 179.98,228.97 161.72,213.58 		"/>
		
			<rect x="159" y="228.56" transform="matrix(0.6511 -0.759 0.759 0.6511 -119.492 213.5409)" class="st3" width="27.02" height="16.36"/>
	</g>
</g>
</svg>
