<?xml version="1.0" encoding="utf-8"?>
<!-- Generator: Adobe Illustrator 23.0.0, SVG Export Plug-In . SVG Version: 6.00 Build 0)  -->
<svg version="1.1" id="Capa_1" xmlns="http://www.w3.org/2000/svg" xmlns:xlink="http://www.w3.org/1999/xlink" x="0px" y="0px"
	 viewBox="0 0 400 702" style="enable-background:new 0 0 400 702;" xml:space="preserve">
<style type="text/css">
	.st0{fill:#0085B0;}
	.st1{fill:#E0EF18;}
	.st2{fill:#CECECE;}
	.st3{fill:#FFFFFF;}
	.st4{fill:#F2F2F2;}
	.st5{fill:#EACCB0;}
	.st6{fill:#9B9B9B;}
	.st7{fill:#939393;}
	.st8{fill:#EFEFEF;}
	.st9{fill:#828282;}
	.st10{fill:#2C2A2D;}
	.st11{fill:#202021;}
	.st12{fill:#F2D4B6;}
	.st13{fill:#534D46;}
	.st14{fill:#E8D313;}
	.st15{fill:#2ACCFF;}
	.st16{fill:#4E4F4F;}
	.st17{fill:#003A94;}
	.st18{fill:#00D13C;}
	.st19{fill:#15682A;}
	.st20{fill:#D40000;}
	.st21{fill:#505050;}
	.st22{fill:#DFDFDF;}
	.st23{fill:none;}
	.st24{fill:#636363;}
	.st25{fill:#6C92D5;}
	.st26{fill:#22272F;}
	.st27{fill:#1B2538;}
	.st28{fill:#253452;}
	.st29{fill:#F9F9F9;}
	.st30{fill:#2D3543;}
	.st31{fill:#2A3D60;}
	.st32{fill:#587955;}
	.st33{fill:#CD7054;}
	.st34{fill:#F1CC4B;}
	.st35{fill:#ACACAC;}
	.st36{fill:#AAE528;}
	.st37{fill:#28CEBA;}
	.st38{fill:#DB143F;}
	.st39{fill:#53C2C9;}
	.st40{fill:#FFB412;}
	.st41{fill:#866A5E;}
	.st42{fill:#F7DDCB;}
	.st43{fill:#FFE6D4;}
	.st44{fill:#F5F5F5;}
	.st45{fill:#1A2830;}
	.st46{fill:#24353F;}
	.st47{fill:#132026;}
	.st48{fill:#F9FF03;}
	.st49{fill:#272728;}
	.st50{fill:#1E1D1E;}
	.st51{fill:#160423;}
	.st52{fill-rule:evenodd;clip-rule:evenodd;fill:#FFFFFF;}
	.st53{fill-rule:evenodd;clip-rule:evenodd;fill:#1996B8;}
	.st54{fill:#0C387D;}
	.st55{fill:#C69A81;}
	.st56{fill:#D1A385;}
	.st57{fill:#EAEAEA;}
	.st58{fill:#093E8C;}
	.st59{fill:#0B2A62;}
	.st60{fill:#D32A3B;}
	.st61{fill:#827C7D;}
	.st62{opacity:0.7;fill:#7F7F7F;}
	.st63{fill:#FDFDFD;}
	.st64{fill:#DAA449;}
	.st65{fill:#DD9225;}
	.st66{opacity:0.3;}
	.st67{fill:#425793;}
	.st68{opacity:0.8;}
	.st69{filter:url(#Adobe_OpacityMaskFilter);}
	.st70{opacity:0.15;mask:url(#SVGID_1_);}
	.st71{fill:#090B00;}
	.st72{opacity:0.1;}
	.st73{fill:#211915;}
	.st74{filter:url(#Adobe_OpacityMaskFilter_1_);}
	.st75{opacity:0.15;mask:url(#SVGID_2_);}
	.st76{fill:#AF3623;}
	.st77{filter:url(#Adobe_OpacityMaskFilter_2_);}
	.st78{opacity:0.15;mask:url(#SVGID_3_);}
	.st79{filter:url(#Adobe_OpacityMaskFilter_3_);}
	.st80{opacity:0.15;mask:url(#SVGID_4_);}
	.st81{fill:#456495;}
	.st82{filter:url(#Adobe_OpacityMaskFilter_4_);}
	.st83{opacity:0.15;mask:url(#SVGID_5_);}
	.st84{filter:url(#Adobe_OpacityMaskFilter_5_);}
	.st85{opacity:0.15;mask:url(#SVGID_6_);}
	.st86{fill:#76A9DA;}
	.st87{filter:url(#Adobe_OpacityMaskFilter_6_);}
	.st88{opacity:0.15;mask:url(#SVGID_7_);}
	.st89{filter:url(#Adobe_OpacityMaskFilter_7_);}
	.st90{opacity:0.15;mask:url(#SVGID_8_);}
	.st91{fill:#1F3642;}
	.st92{fill:#A9BDDA;}
	.st93{opacity:0.46;fill:#A6B4BC;}
	.st94{fill:#74C475;}
	.st95{fill:#221F21;}
	.st96{fill:#2D2D2D;}
	.st97{fill:#1C1B1A;}
	.st98{fill:#77181C;}
	.st99{fill:#262525;}
	.st100{fill:#11100F;}
	.st101{opacity:0.18;}
	.st102{opacity:0.38;}
	.st103{fill:#0A5B1F;}
	.st104{opacity:0.27;}
	.st105{opacity:0.48;}
	.st106{fill:#0A4654;}
	.st107{fill:#C2C6C6;}
	.st108{fill:#E5E5E5;stroke:#FFFFFF;stroke-miterlimit:10;}
	.st109{fill:#ACB4B5;}
	.st110{fill:#7F8384;}
	.st111{fill:#15772F;}
	.st112{fill:#F4F4F4;}
	.st113{fill:#53B8DB;}
	.st114{fill:#06EF42;}
	.st115{fill:#E7ED07;}
	.st116{fill:#CCCCCA;}
	.st117{fill:#EADF13;}
	.st118{fill:#C2C2C2;}
	.st119{fill:#85B681;}
	.st120{fill:#A1DC9B;}
	.st121{fill:#90C58B;}
	.st122{fill:#22241F;}
	.st123{opacity:0.5;}
	.st124{fill:#A2CADE;}
	.st125{fill:#E9E9E9;}
	.st126{fill:#D9D9D9;}
	.st127{fill:#CDCDCD;}
	.st128{opacity:0.34;fill:#F0F0F0;}
	.st129{fill:#5A5B5A;}
	.st130{fill:#FFE600;}
	.st131{fill:#DB1F59;}
	.st132{fill:#727272;}
	.st133{fill:#207235;}
	.st134{fill:#A3A3A3;}
	.st135{fill:#BCBCBC;}
	.st136{fill:#0A511C;}
	.st137{fill:#F9FF00;}
	.st138{fill:#D59F6D;}
	.st139{fill:#C0804A;}
	.st140{fill:#E6BA8A;}
	.st141{fill:#BE3ACC;}
	.st142{fill:#FFFFFF;stroke:#443F0C;stroke-width:9;stroke-miterlimit:10;}
	.st143{fill:none;stroke:#443F0C;stroke-width:9;stroke-miterlimit:10;}
	.st144{fill:#170623;}
	.st145{fill:#158231;}
	.st146{fill:#C89D76;}
	.st147{opacity:0.4;}
	.st148{fill:#ADADAD;}
	.st149{fill:#EDC3A6;}
	.st150{opacity:0.69;}
	.st151{fill:#E5D3D6;}
	.st152{opacity:0.44;}
	.st153{fill:#A5A5A5;}
	.st154{fill:#DDE5E4;}
	.st155{fill:#5C9169;}
	.st156{fill:#934215;}
	.st157{fill:#47413B;}
	.st158{fill:#601A1F;}
	.st159{fill:#044554;}
	.st160{opacity:0.7;}
	.st161{fill:#7F7F7F;}
	.st162{fill:#6B8A69;}
	.st163{opacity:0.24;fill:#848D90;}
	.st164{opacity:0.4;fill:#848D90;}
	.st165{fill:#F2D5D5;}
	.st166{fill:#485CC1;}
	.st167{fill:#C6CBE0;}
	.st168{fill:#8B909E;}
	.st169{fill:#53BC1B;}
	.st170{fill:#11565B;}
	.st171{fill:#67A06D;}
	.st172{fill:#FFEC00;}
	.st173{fill:#77A007;}
	.st174{fill:#E50731;}
	.st175{fill:#266472;}
	.st176{fill:#D4D4D4;}
	.st177{fill:#0E9932;}
	.st178{fill:#87DD24;}
	.st179{fill:#76A172;}
	.st180{fill:#62835F;}
	.st181{fill:#96D090;}
	.st182{fill:#D6D6D6;}
	.st183{fill:#606060;}
	.st184{fill:#494949;}
	.st185{fill:#29E55A;}
	.st186{fill:#2C703D;}
	.st187{fill:#DD0744;}
	.st188{fill:#EDEDED;}
	.st189{fill:#2A5936;}
	.st190{fill:#B9BBC1;}
	.st191{fill:#FFD79E;}
	.st192{fill:#FFE6C2;}
	.st193{fill:#2CBB55;}
	.st194{fill:#5C412D;}
	.st195{fill:#EC0000;}
	.st196{fill:#DD2626;}
	.st197{fill:#EA9334;}
	.st198{fill:#FCC232;}
	.st199{fill:#F9B234;}
	.st200{fill:#F7A037;}
	.st201{fill:#E0E0E0;}
</style>
<polygon class="st184" points="132.22,209.95 132.2,209.95 130.09,204.9 "/>
<polygon class="st184" points="162.99,197 162.98,197 157.82,184.72 "/>
<polygon class="st184" points="132.22,209.95 132.2,209.95 130.09,204.9 "/>
<polygon class="st184" points="162.99,197 162.98,197 157.82,184.72 "/>
<path class="st184" d="M148.21,228.32c-1.8-4.28-6.74-6.3-11.02-4.5c-4.28,1.8-6.29,6.74-4.49,11.03c1.8,4.28,6.74,6.29,11.02,4.49
	C148,237.54,150.03,232.6,148.21,228.32z M142.24,235.81c-2.34,0.98-5.02-0.11-6-2.45c-0.98-2.33,0.11-5.01,2.45-5.99
	c2.33-0.98,5.01,0.11,5.99,2.44C145.66,232.15,144.57,234.82,142.24,235.81z"/>
<g>
	<g>
		<path class="st18" d="M9.5,209.36c0,22,13.29,27.86,29.54,13.03c0,0,156.99-143.3,353.09,26.97V55c0-22-18-40-40-40H49.5
			c-22,0-40,18-40,40V209.36z"/>
	</g>
	<g>
		<path class="st18" d="M391.66,647c0,22-18,40-40,40H49.98c-22,0-40-18-40-40v-46.27c0-22,18-40,40-40h301.68c22,0,40,18,40,40V647
			z"/>
	</g>
	<g>
		<path d="M84.69,385.81c-1.87-0.46-3.38-1.09-4.54-1.91c-0.48-0.34-0.72-0.66-0.72-0.97c0-0.22,0.08-0.44,0.25-0.68l2.09-3.28
			c0.22-0.31,0.43-0.47,0.65-0.47c0.19,0,0.42,0.08,0.68,0.25c0.86,0.53,1.85,0.94,2.97,1.24c1.12,0.3,2.2,0.45,3.26,0.45
			c0.89,0,1.53-0.12,1.93-0.36c0.4-0.24,0.59-0.61,0.59-1.12c0-0.55-0.26-1-0.79-1.33c-0.53-0.33-1.44-0.76-2.74-1.26
			c-2.42-0.94-4.33-2-5.72-3.19c-1.39-1.19-2.09-2.77-2.09-4.73c0-2.5,0.87-4.37,2.61-5.63c1.74-1.26,4.09-1.89,7.04-1.89
			c2.06,0,3.82,0.18,5.27,0.54c1.45,0.36,2.72,0.92,3.8,1.69c0.48,0.34,0.72,0.66,0.72,0.97c0,0.21-0.08,0.44-0.25,0.68l-2.09,3.28
			c-0.22,0.34-0.43,0.5-0.65,0.5c-0.14,0-0.37-0.1-0.68-0.29c-0.58-0.38-1.26-0.7-2.05-0.95s-1.64-0.38-2.56-0.38
			c-0.84,0-1.48,0.12-1.91,0.36c-0.43,0.24-0.65,0.63-0.65,1.15c0,0.43,0.15,0.79,0.45,1.08c0.3,0.29,0.68,0.53,1.13,0.74
			c0.46,0.2,1.25,0.53,2.38,0.99c1.8,0.72,3.22,1.41,4.25,2.07s1.81,1.45,2.34,2.38c0.53,0.92,0.79,2.09,0.79,3.51
			c0,2.16-0.81,3.91-2.43,5.24s-4.04,2-7.25,2C88.59,386.49,86.56,386.26,84.69,385.81z"/>
		<path d="M104.85,383.16c-2.21-2.22-3.31-5.37-3.31-9.45c0-4.08,1.1-7.23,3.31-9.45c2.21-2.22,5.45-3.33,9.72-3.33
			s7.51,1.11,9.72,3.33c2.21,2.22,3.31,5.37,3.31,9.45c0,4.08-1.1,7.23-3.31,9.45c-2.21,2.22-5.45,3.33-9.72,3.33
			S107.06,385.38,104.85,383.16z M117.95,378.77c0.7-1.12,1.04-2.8,1.04-5.06c0-2.28-0.35-3.97-1.04-5.08
			c-0.7-1.1-1.82-1.66-3.38-1.66s-2.69,0.55-3.38,1.66c-0.7,1.1-1.04,2.8-1.04,5.08c0,2.26,0.35,3.94,1.04,5.06
			c0.7,1.12,1.82,1.67,3.38,1.67S117.26,379.89,117.95,378.77z"/>
		<path d="M129.89,385.45c-0.32-0.34-0.49-0.85-0.49-1.55v-20.38c0-0.7,0.16-1.21,0.49-1.55c0.32-0.34,0.88-0.5,1.67-0.5h4.28
			c0.82,0,1.39,0.16,1.71,0.49c0.32,0.32,0.49,0.85,0.49,1.57v16.31h8.39c0.77,0,1.29,0.16,1.57,0.49c0.28,0.32,0.41,0.85,0.41,1.57
			v2.02c0,0.72-0.14,1.24-0.41,1.57c-0.28,0.32-0.8,0.49-1.57,0.49h-14.87C130.77,385.95,130.21,385.78,129.89,385.45z"/>
		<path d="M149.98,385.45c-0.32-0.34-0.49-0.85-0.49-1.55v-20.38c0-0.7,0.16-1.21,0.49-1.55c0.32-0.34,0.88-0.5,1.67-0.5h4.28
			c0.82,0,1.39,0.16,1.71,0.49c0.32,0.32,0.49,0.85,0.49,1.57v20.38c0,0.7-0.16,1.21-0.49,1.55c-0.32,0.34-0.89,0.5-1.71,0.5h-4.28
			C150.86,385.95,150.3,385.78,149.98,385.45z"/>
		<path d="M163.57,383.27c-2.42-2.15-3.64-5.33-3.64-9.56c0-4.25,1.17-7.44,3.51-9.58c2.34-2.14,5.68-3.21,10.03-3.21
			c1.97,0,3.72,0.19,5.26,0.58c1.54,0.38,2.82,0.92,3.85,1.62c0.29,0.22,0.43,0.46,0.43,0.72c0,0.22-0.11,0.52-0.32,0.9l-1.8,3.1
			c-0.19,0.34-0.42,0.5-0.68,0.5c-0.17,0-0.44-0.1-0.83-0.29c-0.67-0.34-1.37-0.6-2.11-0.79c-0.73-0.19-1.59-0.29-2.57-0.29
			c-1.99,0-3.52,0.58-4.57,1.73c-1.06,1.15-1.58,2.82-1.58,5c0,2.16,0.58,3.82,1.73,4.99s2.72,1.75,4.72,1.75
			c1.73,0,3.31-0.36,4.75-1.08c0.38-0.19,0.66-0.29,0.83-0.29c0.26,0,0.49,0.17,0.68,0.5l1.8,3.1c0.22,0.38,0.32,0.68,0.32,0.9
			c0,0.26-0.14,0.5-0.43,0.72c-1.03,0.7-2.33,1.24-3.89,1.62s-3.32,0.58-5.29,0.58C169.39,386.49,165.99,385.42,163.57,383.27z"/>
		<path d="M185.65,385.45c-0.32-0.34-0.49-0.85-0.49-1.55v-20.38c0-0.7,0.16-1.21,0.49-1.55c0.32-0.34,0.88-0.5,1.67-0.5h4.28
			c0.82,0,1.39,0.16,1.71,0.49c0.32,0.32,0.49,0.85,0.49,1.57v20.38c0,0.7-0.16,1.21-0.49,1.55c-0.32,0.34-0.89,0.5-1.71,0.5h-4.28
			C186.53,385.95,185.98,385.78,185.65,385.45z"/>
		<path d="M202.54,385.45c-0.32-0.34-0.49-0.85-0.49-1.55v-16.31h-5.18c-0.77,0-1.29-0.16-1.57-0.49c-0.28-0.32-0.41-0.85-0.41-1.57
			v-2.02c0-0.72,0.14-1.24,0.41-1.57c0.28-0.32,0.8-0.49,1.57-0.49h19.01c0.77,0,1.29,0.16,1.57,0.49c0.28,0.32,0.41,0.85,0.41,1.57
			v2.02c0,0.72-0.14,1.24-0.41,1.57c-0.28,0.32-0.8,0.49-1.57,0.49h-5.18v16.31c0,0.7-0.16,1.21-0.49,1.55
			c-0.32,0.34-0.89,0.5-1.71,0.5h-4.28C203.42,385.95,202.86,385.78,202.54,385.45z"/>
		<path d="M224.37,385.36c-1.78-0.76-3.16-1.85-4.14-3.28c-0.98-1.43-1.48-3.13-1.48-5.09v-13.46c0-0.7,0.16-1.21,0.49-1.55
			c0.32-0.34,0.88-0.5,1.67-0.5h4.28c0.82,0,1.39,0.16,1.71,0.49c0.32,0.32,0.49,0.85,0.49,1.57v13.57c0,1.13,0.28,1.97,0.85,2.52
			c0.56,0.55,1.34,0.83,2.32,0.83c0.98,0,1.76-0.28,2.32-0.83c0.56-0.55,0.85-1.39,0.85-2.52v-13.57c0-0.7,0.16-1.21,0.49-1.55
			s0.88-0.5,1.67-0.5h4.28c0.82,0,1.39,0.16,1.71,0.49c0.32,0.32,0.49,0.85,0.49,1.57v13.46c0,1.97-0.49,3.67-1.48,5.09
			c-0.98,1.43-2.36,2.52-4.14,3.28c-1.78,0.76-3.84,1.13-6.19,1.13C228.21,386.49,226.15,386.11,224.37,385.36z"/>
		<path d="M245.2,385.45c-0.32-0.34-0.49-0.85-0.49-1.55v-20.38c0-0.7,0.16-1.21,0.49-1.55c0.32-0.34,0.88-0.5,1.67-0.5h8.28
			c8.47,0,12.71,4.08,12.71,12.24c0,4.03-1.09,7.08-3.26,9.14c-2.17,2.06-5.32,3.1-9.45,3.1h-8.28
			C246.08,385.95,245.52,385.78,245.2,385.45z M255.47,379.83c1.34,0,2.31-0.44,2.9-1.33c0.59-0.89,0.88-2.48,0.88-4.79
			c0-2.3-0.29-3.9-0.88-4.79c-0.59-0.89-1.55-1.33-2.9-1.33h-2.12v12.24H255.47z"/>
		<path d="M280.94,385.45c-0.32-0.34-0.49-0.85-0.49-1.55v-20.38c0-0.7,0.16-1.21,0.49-1.55c0.32-0.34,0.88-0.5,1.67-0.5h8.28
			c8.47,0,12.71,4.08,12.71,12.24c0,4.03-1.09,7.08-3.26,9.14c-2.17,2.06-5.32,3.1-9.45,3.1h-8.28
			C281.82,385.95,281.27,385.78,280.94,385.45z M291.22,379.83c1.34,0,2.31-0.44,2.9-1.33c0.59-0.89,0.88-2.48,0.88-4.79
			c0-2.3-0.29-3.9-0.88-4.79c-0.59-0.89-1.55-1.33-2.9-1.33h-2.12v12.24H291.22z"/>
		<path d="M305.89,385.45c-0.32-0.34-0.49-0.85-0.49-1.55v-20.38c0-0.7,0.16-1.21,0.49-1.55c0.32-0.34,0.88-0.5,1.67-0.5h14.9
			c0.77,0,1.29,0.16,1.57,0.49c0.28,0.32,0.41,0.85,0.41,1.57v2.02c0,0.72-0.14,1.24-0.41,1.57c-0.28,0.32-0.8,0.49-1.57,0.49h-8.42
			v3.1h5.18c0.77,0,1.29,0.16,1.57,0.49c0.28,0.32,0.41,0.85,0.41,1.57v1.94c0,0.72-0.14,1.24-0.41,1.57s-0.8,0.49-1.57,0.49h-5.18
			v3.1h8.39c0.77,0,1.29,0.16,1.57,0.49c0.28,0.32,0.41,0.85,0.41,1.57v2.02c0,0.72-0.14,1.24-0.41,1.57
			c-0.28,0.32-0.8,0.49-1.57,0.49h-14.87C306.77,385.95,306.21,385.78,305.89,385.45z"/>
		<path d="M115.56,429.01c-1.87-0.46-3.38-1.09-4.54-1.91c-0.48-0.34-0.72-0.66-0.72-0.97c0-0.22,0.08-0.44,0.25-0.68l2.09-3.28
			c0.22-0.31,0.43-0.47,0.65-0.47c0.19,0,0.42,0.08,0.68,0.25c0.86,0.53,1.85,0.94,2.97,1.24c1.12,0.3,2.2,0.45,3.26,0.45
			c0.89,0,1.53-0.12,1.93-0.36c0.4-0.24,0.59-0.61,0.59-1.12c0-0.55-0.26-1-0.79-1.33c-0.53-0.33-1.44-0.76-2.74-1.26
			c-2.42-0.94-4.33-2-5.72-3.19c-1.39-1.19-2.09-2.77-2.09-4.73c0-2.5,0.87-4.37,2.61-5.63c1.74-1.26,4.09-1.89,7.04-1.89
			c2.06,0,3.82,0.18,5.27,0.54c1.45,0.36,2.72,0.92,3.8,1.69c0.48,0.34,0.72,0.66,0.72,0.97c0,0.22-0.08,0.44-0.25,0.68l-2.09,3.28
			c-0.22,0.34-0.43,0.5-0.65,0.5c-0.14,0-0.37-0.1-0.68-0.29c-0.58-0.38-1.26-0.7-2.05-0.95s-1.64-0.38-2.56-0.38
			c-0.84,0-1.48,0.12-1.91,0.36c-0.43,0.24-0.65,0.63-0.65,1.15c0,0.43,0.15,0.79,0.45,1.08c0.3,0.29,0.68,0.53,1.13,0.74
			c0.46,0.2,1.25,0.53,2.38,0.99c1.8,0.72,3.22,1.41,4.25,2.07s1.81,1.45,2.34,2.38c0.53,0.92,0.79,2.09,0.79,3.51
			c0,2.16-0.81,3.91-2.43,5.24s-4.04,2-7.25,2C119.46,429.69,117.43,429.46,115.56,429.01z"/>
		<path d="M133.61,428.65c-0.32-0.34-0.49-0.85-0.49-1.55v-20.38c0-0.7,0.16-1.21,0.49-1.55c0.32-0.34,0.88-0.5,1.67-0.5h14.9
			c0.77,0,1.29,0.16,1.57,0.49c0.28,0.32,0.41,0.85,0.41,1.57v2.02c0,0.72-0.14,1.24-0.41,1.57c-0.28,0.32-0.8,0.49-1.57,0.49h-8.42
			v3.1h5.18c0.77,0,1.29,0.16,1.57,0.49c0.28,0.32,0.41,0.85,0.41,1.57v1.94c0,0.72-0.14,1.24-0.41,1.57s-0.8,0.49-1.57,0.49h-5.18
			v3.1h8.39c0.77,0,1.29,0.16,1.57,0.49c0.28,0.32,0.41,0.85,0.41,1.57v2.02c0,0.72-0.14,1.24-0.41,1.57
			c-0.28,0.32-0.8,0.49-1.57,0.49h-14.87C134.5,429.15,133.94,428.98,133.61,428.65z"/>
		<path d="M154.28,428.65c-0.32-0.34-0.49-0.85-0.49-1.55v-20.38c0-0.7,0.16-1.21,0.49-1.55c0.32-0.34,0.88-0.5,1.67-0.5h8.6
			c3.6,0,6.22,0.71,7.87,2.14c1.64,1.43,2.47,3.58,2.47,6.46c0,1.73-0.29,3.19-0.88,4.37c-0.59,1.19-1.49,2.12-2.72,2.79l3.35,7.16
			c0.1,0.19,0.14,0.41,0.14,0.65c0,0.26-0.09,0.48-0.27,0.65s-0.41,0.25-0.7,0.25h-6.08c-0.38,0-0.69-0.05-0.92-0.16
			c-0.23-0.11-0.39-0.29-0.49-0.56l-2.66-6.7h-1.22v5.36c0,0.7-0.16,1.21-0.49,1.55c-0.32,0.34-0.89,0.5-1.71,0.5h-4.28
			C155.16,429.15,154.6,428.98,154.28,428.65z M163.8,415.72c0.77,0,1.37-0.2,1.82-0.61c0.44-0.41,0.67-1.02,0.67-1.84
			c0-0.84-0.22-1.46-0.67-1.87c-0.44-0.41-1.05-0.61-1.82-0.61h-2.45v4.93H163.8z"/>
		<path d="M183.11,428.85c-0.28-0.2-0.51-0.56-0.7-1.06l-8.6-21.56c-0.12-0.31-0.18-0.58-0.18-0.79c0-0.5,0.26-0.76,0.79-0.76h6.77
			c0.74,0,1.21,0.32,1.4,0.97l3.67,11.74l3.67-11.74c0.19-0.65,0.66-0.97,1.4-0.97h6.77c0.53,0,0.79,0.25,0.79,0.76
			c0,0.22-0.06,0.48-0.18,0.79l-8.57,21.56c-0.19,0.5-0.43,0.86-0.7,1.06s-0.68,0.31-1.21,0.31h-3.92
			C183.79,429.15,183.39,429.05,183.11,428.85z"/>
		<path d="M201.18,428.65c-0.32-0.34-0.49-0.85-0.49-1.55v-20.38c0-0.7,0.16-1.21,0.49-1.55c0.32-0.34,0.88-0.5,1.67-0.5h4.28
			c0.82,0,1.39,0.16,1.71,0.49c0.32,0.32,0.49,0.85,0.49,1.57v20.38c0,0.7-0.16,1.21-0.49,1.55c-0.32,0.34-0.89,0.5-1.71,0.5h-4.28
			C202.07,429.15,201.51,428.98,201.18,428.65z"/>
		<path d="M214.77,426.47c-2.42-2.15-3.64-5.33-3.64-9.56c0-4.25,1.17-7.44,3.51-9.58c2.34-2.14,5.68-3.2,10.03-3.2
			c1.97,0,3.72,0.19,5.26,0.58c1.54,0.38,2.82,0.92,3.85,1.62c0.29,0.22,0.43,0.46,0.43,0.72c0,0.22-0.11,0.52-0.32,0.9l-1.8,3.1
			c-0.19,0.34-0.42,0.5-0.68,0.5c-0.17,0-0.44-0.1-0.83-0.29c-0.67-0.34-1.37-0.6-2.11-0.79c-0.73-0.19-1.59-0.29-2.57-0.29
			c-1.99,0-3.52,0.58-4.57,1.73c-1.06,1.15-1.58,2.82-1.58,5c0,2.16,0.58,3.82,1.73,4.99s2.72,1.75,4.72,1.75
			c1.73,0,3.31-0.36,4.75-1.08c0.38-0.19,0.66-0.29,0.83-0.29c0.26,0,0.49,0.17,0.68,0.5l1.8,3.1c0.22,0.38,0.32,0.68,0.32,0.9
			c0,0.26-0.14,0.5-0.43,0.72c-1.03,0.7-2.33,1.24-3.89,1.62s-3.32,0.58-5.29,0.58C220.59,429.69,217.2,428.62,214.77,426.47z"/>
		<path d="M236.86,428.65c-0.32-0.34-0.49-0.85-0.49-1.55v-20.38c0-0.7,0.16-1.21,0.49-1.55c0.32-0.34,0.88-0.5,1.67-0.5h4.28
			c0.82,0,1.39,0.16,1.71,0.49c0.32,0.32,0.49,0.85,0.49,1.57v20.38c0,0.7-0.16,1.21-0.49,1.55c-0.32,0.34-0.89,0.5-1.71,0.5h-4.28
			C237.74,429.15,237.18,428.98,236.86,428.65z"/>
		<path d="M250.13,426.36c-2.21-2.22-3.31-5.37-3.31-9.45c0-4.08,1.1-7.23,3.31-9.45c2.21-2.22,5.45-3.33,9.72-3.33
			s7.51,1.11,9.72,3.33c2.21,2.22,3.31,5.37,3.31,9.45c0,4.08-1.1,7.23-3.31,9.45c-2.21,2.22-5.45,3.33-9.72,3.33
			S252.33,428.58,250.13,426.36z M263.23,421.97c0.7-1.12,1.04-2.8,1.04-5.06c0-2.28-0.35-3.97-1.04-5.08
			c-0.7-1.1-1.82-1.66-3.38-1.66s-2.69,0.55-3.38,1.66c-0.7,1.1-1.04,2.8-1.04,5.08c0,2.26,0.35,3.94,1.04,5.06
			c0.7,1.12,1.82,1.67,3.38,1.67S262.53,423.09,263.23,421.97z"/>
		<path d="M277.63,429.01c-1.87-0.46-3.38-1.09-4.54-1.91c-0.48-0.34-0.72-0.66-0.72-0.97c0-0.22,0.08-0.44,0.25-0.68l2.09-3.28
			c0.22-0.31,0.43-0.47,0.65-0.47c0.19,0,0.42,0.08,0.68,0.25c0.86,0.53,1.85,0.94,2.97,1.24c1.12,0.3,2.2,0.45,3.26,0.45
			c0.89,0,1.53-0.12,1.93-0.36c0.4-0.24,0.59-0.61,0.59-1.12c0-0.55-0.26-1-0.79-1.33c-0.53-0.33-1.44-0.76-2.74-1.26
			c-2.42-0.94-4.33-2-5.72-3.19c-1.39-1.19-2.09-2.77-2.09-4.73c0-2.5,0.87-4.37,2.61-5.63c1.74-1.26,4.09-1.89,7.04-1.89
			c2.06,0,3.82,0.18,5.27,0.54c1.45,0.36,2.72,0.92,3.8,1.69c0.48,0.34,0.72,0.66,0.72,0.97c0,0.22-0.08,0.44-0.25,0.68l-2.09,3.28
			c-0.22,0.34-0.43,0.5-0.65,0.5c-0.14,0-0.37-0.1-0.68-0.29c-0.58-0.38-1.26-0.7-2.05-0.95s-1.64-0.38-2.56-0.38
			c-0.84,0-1.48,0.12-1.91,0.36c-0.43,0.24-0.65,0.63-0.65,1.15c0,0.43,0.15,0.79,0.45,1.08c0.3,0.29,0.68,0.53,1.13,0.74
			c0.46,0.2,1.25,0.53,2.38,0.99c1.8,0.72,3.22,1.41,4.25,2.07s1.81,1.45,2.34,2.38c0.53,0.92,0.79,2.09,0.79,3.51
			c0,2.16-0.81,3.91-2.43,5.24s-4.04,2-7.25,2C281.53,429.69,279.5,429.46,277.63,429.01z"/>
		<path d="M89.05,473.4c-1.28-1.54-2.28-3.38-2.99-5.54c-0.71-2.16-1.06-4.45-1.06-6.88c0-2.42,0.35-4.72,1.06-6.88
			c0.71-2.16,1.7-4.01,2.99-5.54c1.28-1.54,2.74-2.59,4.37-3.17c1.1-0.38,1.98-0.58,2.63-0.58c0.67,0,1.18,0.2,1.51,0.59
			c0.34,0.4,0.5,1.04,0.5,1.93c0,0.74-0.02,1.29-0.07,1.64c-0.05,0.35-0.17,0.65-0.36,0.92c-0.19,0.26-0.52,0.6-0.97,1.01
			c-1.18,1.03-1.98,2.33-2.41,3.89c-0.43,1.56-0.65,3.63-0.65,6.19c0,2.57,0.22,4.63,0.65,6.19c0.43,1.56,1.24,2.86,2.41,3.89
			c0.46,0.41,0.78,0.74,0.97,1.01c0.19,0.26,0.31,0.57,0.36,0.92c0.05,0.35,0.07,0.89,0.07,1.64c0,0.89-0.17,1.53-0.5,1.93
			c-0.34,0.4-0.84,0.59-1.51,0.59c-0.65,0-1.52-0.19-2.63-0.58C91.79,475.99,90.33,474.93,89.05,473.4z"/>
		<path d="M99.99,471.85c-0.32-0.34-0.49-0.85-0.49-1.55v-20.38c0-0.7,0.16-1.21,0.49-1.55c0.32-0.34,0.88-0.5,1.67-0.5h14.9
			c0.77,0,1.29,0.16,1.57,0.49c0.28,0.32,0.41,0.85,0.41,1.57v2.02c0,0.72-0.14,1.24-0.41,1.57c-0.28,0.32-0.8,0.49-1.57,0.49h-8.42
			v3.1h5.18c0.77,0,1.29,0.16,1.57,0.49c0.28,0.32,0.41,0.85,0.41,1.57v1.94c0,0.72-0.14,1.24-0.41,1.57s-0.8,0.49-1.57,0.49h-5.18
			v3.1h8.39c0.77,0,1.29,0.16,1.57,0.49c0.28,0.32,0.41,0.85,0.41,1.57v2.02c0,0.72-0.14,1.24-0.41,1.57
			c-0.28,0.32-0.8,0.49-1.57,0.49h-14.87C100.87,472.35,100.31,472.18,99.99,471.85z"/>
		<path d="M118.62,470.52c-0.29-0.22-0.43-0.46-0.43-0.72c0-0.22,0.11-0.52,0.32-0.9l1.8-3.1c0.24-0.38,0.49-0.58,0.76-0.58
			c0.17,0,0.41,0.11,0.72,0.32c1.15,0.86,2.26,1.3,3.31,1.3c1.63,0,2.45-0.78,2.45-2.34v-14.58c0-0.7,0.16-1.21,0.49-1.55
			s0.88-0.5,1.67-0.5h4.28c0.82,0,1.39,0.16,1.71,0.49s0.49,0.85,0.49,1.57v14.65c0,2.54-0.79,4.57-2.38,6.07s-3.86,2.25-6.84,2.25
			C123.56,472.89,120.78,472.1,118.62,470.52z"/>
		<path d="M139.01,471.85c-0.32-0.34-0.49-0.85-0.49-1.55v-20.41c0-0.7,0.16-1.21,0.49-1.53c0.32-0.32,0.89-0.49,1.71-0.49h4.14
			c0.53,0,0.95,0.07,1.26,0.2c0.31,0.13,0.55,0.39,0.72,0.77l4.21,10.55l4.21-10.55c0.17-0.38,0.41-0.64,0.72-0.77
			c0.31-0.13,0.73-0.2,1.26-0.2h4.14c0.82,0,1.39,0.16,1.71,0.49c0.32,0.32,0.49,0.83,0.49,1.53v20.41c0,0.7-0.16,1.21-0.49,1.55
			c-0.32,0.34-0.88,0.5-1.67,0.5h-3.46c-0.79,0-1.36-0.17-1.69-0.5c-0.34-0.34-0.5-0.85-0.5-1.55v-9.83l-2.12,4.9
			c-0.29,0.7-0.6,1.19-0.94,1.49c-0.34,0.3-0.89,0.45-1.66,0.45c-0.77,0-1.32-0.15-1.66-0.45c-0.34-0.3-0.65-0.8-0.94-1.49
			l-2.12-4.9v9.83c0,0.7-0.16,1.21-0.49,1.55c-0.32,0.34-0.89,0.5-1.71,0.5h-3.46C139.9,472.35,139.34,472.18,139.01,471.85z"/>
		<path d="M165.98,471.69c-0.4-0.44-0.59-0.97-0.59-1.57v-0.9c0-0.65,0.2-1.18,0.59-1.6c0.4-0.42,0.91-0.63,1.53-0.63h0.94
			c0.62,0,1.13,0.21,1.53,0.63c0.4,0.42,0.59,0.95,0.59,1.6v0.9c0,0.63-0.2,1.15-0.59,1.58c-0.4,0.43-0.91,0.65-1.53,0.65h-0.94
			C166.88,472.35,166.37,472.13,165.98,471.69z"/>
		<path d="M186.08,469.67c-2.42-2.15-3.64-5.33-3.64-9.56c0-4.2,1.21-7.38,3.64-9.54c2.42-2.16,5.81-3.24,10.15-3.24
			c1.97,0,3.73,0.19,5.29,0.58c1.56,0.38,2.86,0.92,3.89,1.62c0.29,0.22,0.43,0.46,0.43,0.72c0,0.22-0.11,0.52-0.32,0.9l-1.8,3.1
			c-0.19,0.34-0.42,0.5-0.68,0.5c-0.17,0-0.44-0.1-0.83-0.29c-1.44-0.72-3.02-1.08-4.75-1.08c-1.99,0-3.56,0.57-4.7,1.71
			c-1.14,1.14-1.71,2.81-1.71,5.02c0,2.28,0.48,3.97,1.44,5.06c0.96,1.09,2.39,1.64,4.28,1.64c0.34,0,0.71-0.03,1.13-0.09
			c0.42-0.06,0.76-0.13,1.03-0.2v-3.28h-2.3c-0.77,0-1.29-0.15-1.57-0.45c-0.28-0.3-0.41-0.81-0.41-1.53v-1.98
			c0-0.72,0.14-1.23,0.41-1.53c0.28-0.3,0.8-0.45,1.57-0.45h7.74c0.94,0,1.58,0.21,1.94,0.63c0.36,0.42,0.54,1.09,0.54,2v8.42
			c0,0.53-0.07,0.93-0.2,1.21c-0.13,0.28-0.39,0.56-0.77,0.85c-2.3,1.66-5.51,2.48-9.61,2.48
			C191.9,472.89,188.51,471.82,186.08,469.67z"/>
		<path d="M209.14,471.85c-0.32-0.34-0.49-0.85-0.49-1.55v-20.38c0-0.7,0.16-1.21,0.49-1.55c0.32-0.34,0.88-0.5,1.67-0.5h8.6
			c3.6,0,6.22,0.71,7.87,2.14c1.64,1.43,2.47,3.58,2.47,6.46c0,1.73-0.29,3.19-0.88,4.37c-0.59,1.19-1.49,2.12-2.72,2.79l3.35,7.16
			c0.1,0.19,0.14,0.41,0.14,0.65c0,0.26-0.09,0.48-0.27,0.65s-0.41,0.25-0.7,0.25h-6.08c-0.38,0-0.69-0.05-0.92-0.16
			c-0.23-0.11-0.39-0.29-0.49-0.56l-2.66-6.7h-1.22v5.36c0,0.7-0.16,1.21-0.49,1.55c-0.32,0.34-0.89,0.5-1.71,0.5h-4.28
			C210.02,472.35,209.46,472.18,209.14,471.85z M218.66,458.92c0.77,0,1.37-0.2,1.82-0.61c0.44-0.41,0.67-1.02,0.67-1.84
			c0-0.84-0.22-1.46-0.67-1.87c-0.44-0.41-1.05-0.61-1.82-0.61h-2.45v4.93H218.66z"/>
		<path d="M236.99,471.76c-1.78-0.76-3.16-1.85-4.14-3.28c-0.98-1.43-1.48-3.13-1.48-5.09v-13.46c0-0.7,0.16-1.21,0.49-1.55
			c0.32-0.34,0.88-0.5,1.67-0.5h4.28c0.82,0,1.39,0.16,1.71,0.49c0.32,0.32,0.49,0.85,0.49,1.57v13.57c0,1.13,0.28,1.97,0.85,2.52
			c0.56,0.55,1.34,0.83,2.32,0.83c0.98,0,1.76-0.28,2.32-0.83c0.56-0.55,0.85-1.39,0.85-2.52v-13.57c0-0.7,0.16-1.21,0.49-1.55
			s0.88-0.5,1.67-0.5h4.28c0.82,0,1.39,0.16,1.71,0.49c0.32,0.32,0.49,0.85,0.49,1.57v13.46c0,1.97-0.49,3.67-1.48,5.09
			c-0.98,1.43-2.36,2.52-4.14,3.28c-1.78,0.76-3.84,1.13-6.19,1.13C240.83,472.89,238.76,472.51,236.99,471.76z"/>
		<path d="M254.27,471.6c0-0.22,0.06-0.48,0.18-0.79l8.96-21.56c0.22-0.5,0.46-0.86,0.74-1.06s0.67-0.31,1.17-0.31h3.92
			c0.5,0,0.89,0.1,1.17,0.31c0.28,0.2,0.52,0.56,0.74,1.06l8.93,21.56c0.12,0.31,0.18,0.58,0.18,0.79c0,0.5-0.26,0.76-0.79,0.76
			h-6.77c-0.74,0-1.21-0.32-1.4-0.97l-0.86-2.66h-6.37l-0.83,2.66c-0.19,0.65-0.66,0.97-1.4,0.97h-6.77
			C254.53,472.35,254.27,472.1,254.27,471.6z M268.67,463.03l-1.4-4.46l-1.4,4.46H268.67z"/>
		<path d="M292.55,463.91c-0.28-0.32-0.41-0.85-0.41-1.57v-2.02c0-0.72,0.14-1.24,0.41-1.57c0.28-0.32,0.8-0.49,1.57-0.49h11.77
			c0.77,0,1.29,0.16,1.57,0.49s0.41,0.85,0.41,1.57v2.02c0,0.72-0.14,1.24-0.41,1.57c-0.28,0.32-0.8,0.49-1.57,0.49h-11.77
			C293.35,464.4,292.83,464.23,292.55,463.91z"/>
		<path d="M32.09,512.87c-2.42-2.15-3.64-5.33-3.64-9.56c0-4.2,1.21-7.38,3.64-9.54c2.42-2.16,5.81-3.24,10.15-3.24
			c1.97,0,3.73,0.19,5.29,0.58c1.56,0.38,2.86,0.92,3.89,1.62c0.29,0.22,0.43,0.46,0.43,0.72c0,0.22-0.11,0.52-0.32,0.9l-1.8,3.1
			c-0.19,0.34-0.42,0.5-0.68,0.5c-0.17,0-0.44-0.1-0.83-0.29c-1.44-0.72-3.02-1.08-4.75-1.08c-1.99,0-3.56,0.57-4.7,1.71
			c-1.14,1.14-1.71,2.81-1.71,5.02c0,2.28,0.48,3.97,1.44,5.06c0.96,1.09,2.39,1.64,4.28,1.64c0.34,0,0.71-0.03,1.13-0.09
			c0.42-0.06,0.76-0.13,1.03-0.2v-3.28h-2.3c-0.77,0-1.29-0.15-1.57-0.45c-0.28-0.3-0.41-0.81-0.41-1.53v-1.98
			c0-0.72,0.14-1.23,0.41-1.53c0.28-0.3,0.8-0.45,1.57-0.45h7.74c0.94,0,1.58,0.21,1.94,0.63c0.36,0.42,0.54,1.09,0.54,2v8.42
			c0,0.53-0.07,0.93-0.2,1.21c-0.13,0.28-0.39,0.56-0.77,0.85c-2.3,1.66-5.51,2.48-9.61,2.48
			C37.91,516.09,34.52,515.02,32.09,512.87z"/>
		<path d="M55.15,515.05c-0.32-0.34-0.49-0.85-0.49-1.55v-20.38c0-0.7,0.16-1.21,0.49-1.55c0.32-0.34,0.88-0.5,1.67-0.5h14.9
			c0.77,0,1.29,0.16,1.57,0.49c0.28,0.32,0.41,0.85,0.41,1.57v2.02c0,0.72-0.14,1.24-0.41,1.57c-0.28,0.32-0.8,0.49-1.57,0.49H63.3
			v3.1h5.18c0.77,0,1.29,0.16,1.57,0.49c0.28,0.32,0.41,0.85,0.41,1.57v1.94c0,0.72-0.14,1.24-0.41,1.57s-0.8,0.49-1.57,0.49H63.3
			v3.1h8.39c0.77,0,1.29,0.16,1.57,0.49c0.28,0.32,0.41,0.85,0.41,1.57v2.02c0,0.72-0.14,1.24-0.41,1.57
			c-0.28,0.32-0.8,0.49-1.57,0.49H56.82C56.03,515.55,55.47,515.38,55.15,515.05z"/>
		<path d="M76.66,512.76c-2.21-2.22-3.31-5.37-3.31-9.45c0-4.08,1.1-7.23,3.31-9.45c2.21-2.22,5.45-3.33,9.72-3.33
			s7.51,1.11,9.72,3.33c2.21,2.22,3.31,5.37,3.31,9.45c0,4.08-1.1,7.23-3.31,9.45c-2.21,2.22-5.45,3.33-9.72,3.33
			S78.87,514.98,76.66,512.76z M89.76,508.37c0.7-1.12,1.04-2.8,1.04-5.06c0-2.28-0.35-3.97-1.04-5.08c-0.7-1.1-1.82-1.66-3.38-1.66
			s-2.69,0.55-3.38,1.66c-0.7,1.1-1.04,2.8-1.04,5.08c0,2.26,0.35,3.94,1.04,5.06c0.7,1.12,1.82,1.67,3.38,1.67
			S89.07,509.49,89.76,508.37z"/>
		<path d="M101.7,515.05c-0.32-0.34-0.49-0.85-0.49-1.55v-20.38c0-0.7,0.16-1.21,0.49-1.55c0.32-0.34,0.88-0.5,1.67-0.5h4.28
			c0.82,0,1.39,0.16,1.71,0.49c0.32,0.32,0.49,0.85,0.49,1.57v16.31h8.39c0.77,0,1.29,0.16,1.57,0.49c0.28,0.32,0.41,0.85,0.41,1.57
			v2.02c0,0.72-0.14,1.24-0.41,1.57c-0.28,0.32-0.8,0.49-1.57,0.49h-14.87C102.58,515.55,102.02,515.38,101.7,515.05z"/>
		<path d="M122.27,512.76c-2.21-2.22-3.31-5.37-3.31-9.45c0-4.08,1.1-7.23,3.31-9.45c2.21-2.22,5.45-3.33,9.72-3.33
			s7.51,1.11,9.72,3.33c2.21,2.22,3.31,5.37,3.31,9.45c0,4.08-1.1,7.23-3.31,9.45c-2.21,2.22-5.45,3.33-9.72,3.33
			S124.48,514.98,122.27,512.76z M135.38,508.37c0.7-1.12,1.04-2.8,1.04-5.06c0-2.28-0.35-3.97-1.04-5.08
			c-0.7-1.1-1.82-1.66-3.38-1.66s-2.69,0.55-3.38,1.66c-0.7,1.1-1.04,2.8-1.04,5.08c0,2.26,0.35,3.94,1.04,5.06
			c0.7,1.12,1.82,1.67,3.38,1.67S134.68,509.49,135.38,508.37z"/>
		<path d="M148.84,512.87c-2.42-2.15-3.64-5.33-3.64-9.56c0-4.25,1.17-7.44,3.51-9.58c2.34-2.14,5.68-3.2,10.03-3.2
			c1.97,0,3.72,0.19,5.26,0.58c1.54,0.38,2.82,0.92,3.85,1.62c0.29,0.22,0.43,0.46,0.43,0.72c0,0.22-0.11,0.52-0.32,0.9l-1.8,3.1
			c-0.19,0.34-0.42,0.5-0.68,0.5c-0.17,0-0.44-0.1-0.83-0.29c-0.67-0.34-1.37-0.6-2.11-0.79c-0.73-0.19-1.59-0.29-2.57-0.29
			c-1.99,0-3.52,0.58-4.57,1.73c-1.06,1.15-1.58,2.82-1.58,5c0,2.16,0.58,3.82,1.73,4.99s2.72,1.75,4.72,1.75
			c1.73,0,3.31-0.36,4.75-1.08c0.38-0.19,0.66-0.29,0.83-0.29c0.26,0,0.49,0.17,0.68,0.5l1.8,3.1c0.22,0.38,0.32,0.68,0.32,0.9
			c0,0.26-0.14,0.5-0.43,0.72c-1.03,0.7-2.33,1.24-3.89,1.62s-3.32,0.58-5.29,0.58C154.66,516.09,151.26,515.02,148.84,512.87z"/>
		<path d="M168.82,514.8c0-0.22,0.06-0.48,0.18-0.79l8.96-21.56c0.22-0.5,0.46-0.86,0.74-1.06s0.67-0.31,1.17-0.31h3.92
			c0.5,0,0.89,0.1,1.17,0.31c0.28,0.2,0.52,0.56,0.74,1.06l8.93,21.56c0.12,0.31,0.18,0.58,0.18,0.79c0,0.5-0.26,0.76-0.79,0.76
			h-6.77c-0.74,0-1.21-0.32-1.4-0.97l-0.86-2.66h-6.37l-0.83,2.66c-0.19,0.65-0.66,0.97-1.4,0.97h-6.77
			C169.08,515.55,168.82,515.3,168.82,514.8z M183.22,506.23l-1.4-4.46l-1.4,4.46H183.22z"/>
		<path d="M197.1,515.05c-0.32-0.34-0.49-0.85-0.49-1.55v-20.38c0-0.7,0.16-1.21,0.49-1.55c0.32-0.34,0.88-0.5,1.67-0.5h4.28
			c0.82,0,1.39,0.16,1.71,0.49c0.32,0.32,0.49,0.85,0.49,1.57v16.31h8.39c0.77,0,1.29,0.16,1.57,0.49c0.28,0.32,0.41,0.85,0.41,1.57
			v2.02c0,0.72-0.14,1.24-0.41,1.57c-0.28,0.32-0.8,0.49-1.57,0.49h-14.87C197.98,515.55,197.42,515.38,197.1,515.05z"/>
		<path d="M217.19,515.05c-0.32-0.34-0.49-0.85-0.49-1.55v-20.38c0-0.7,0.16-1.21,0.49-1.55c0.32-0.34,0.88-0.5,1.67-0.5h4.28
			c0.82,0,1.39,0.16,1.71,0.49c0.32,0.32,0.49,0.85,0.49,1.57v20.38c0,0.7-0.16,1.21-0.49,1.55c-0.32,0.34-0.89,0.5-1.71,0.5h-4.28
			C218.07,515.55,217.51,515.38,217.19,515.05z"/>
		<path d="M227.5,515.14c-0.24-0.28-0.36-0.79-0.36-1.53c0-0.77,0.07-1.37,0.2-1.8c0.13-0.43,0.46-1,0.99-1.69l9.47-12.92h-8.32
			c-0.79,0-1.35-0.17-1.67-0.5c-0.32-0.34-0.49-0.85-0.49-1.55v-2.02c0-0.7,0.16-1.21,0.49-1.55c0.32-0.34,0.88-0.5,1.67-0.5h17.78
			c0.72,0,1.2,0.14,1.44,0.41c0.24,0.28,0.36,0.79,0.36,1.53c0,0.74-0.07,1.33-0.2,1.76c-0.13,0.43-0.46,1.01-0.99,1.73l-9.4,12.92
			h8.5c0.79,0,1.35,0.17,1.67,0.5c0.32,0.34,0.49,0.85,0.49,1.55v2.02c0,0.7-0.16,1.21-0.49,1.55c-0.32,0.34-0.88,0.5-1.67,0.5
			h-18.04C228.22,515.55,227.74,515.41,227.5,515.14z"/>
		<path d="M249.32,514.8c0-0.22,0.06-0.48,0.18-0.79l8.96-21.56c0.22-0.5,0.46-0.86,0.74-1.06s0.67-0.31,1.17-0.31h3.92
			c0.5,0,0.89,0.1,1.17,0.31c0.28,0.2,0.52,0.56,0.74,1.06l8.93,21.56c0.12,0.31,0.18,0.58,0.18,0.79c0,0.5-0.26,0.76-0.79,0.76
			h-6.77c-0.74,0-1.21-0.32-1.4-0.97l-0.86-2.66h-6.37l-0.83,2.66c-0.19,0.65-0.66,0.97-1.4,0.97h-6.77
			C249.58,515.55,249.32,515.3,249.32,514.8z M263.72,506.23l-1.4-4.46l-1.4,4.46H263.72z"/>
		<path d="M278.04,512.87c-2.42-2.15-3.64-5.33-3.64-9.56c0-4.25,1.17-7.44,3.51-9.58c2.34-2.14,5.68-3.2,10.03-3.2
			c1.97,0,3.72,0.19,5.26,0.58c1.54,0.38,2.82,0.92,3.85,1.62c0.29,0.22,0.43,0.46,0.43,0.72c0,0.22-0.11,0.52-0.32,0.9l-1.8,3.1
			c-0.19,0.34-0.42,0.5-0.68,0.5c-0.17,0-0.44-0.1-0.83-0.29c-0.67-0.34-1.37-0.6-2.11-0.79c-0.73-0.19-1.59-0.29-2.57-0.29
			c-1.99,0-3.52,0.58-4.57,1.73c-1.06,1.15-1.58,2.82-1.58,5c0,2.16,0.58,3.82,1.73,4.99s2.72,1.75,4.72,1.75
			c1.73,0,3.31-0.36,4.75-1.08c0.38-0.19,0.66-0.29,0.83-0.29c0.26,0,0.49,0.17,0.68,0.5l1.8,3.1c0.22,0.38,0.32,0.68,0.32,0.9
			c0,0.26-0.14,0.5-0.43,0.72c-1.03,0.7-2.33,1.24-3.89,1.62s-3.32,0.58-5.29,0.58C283.86,516.09,280.47,515.02,278.04,512.87z"/>
		<path d="M300.13,515.05c-0.32-0.34-0.49-0.85-0.49-1.55v-20.38c0-0.7,0.16-1.21,0.49-1.55c0.32-0.34,0.88-0.5,1.67-0.5h4.28
			c0.82,0,1.39,0.16,1.71,0.49c0.32,0.32,0.49,0.85,0.49,1.57v20.38c0,0.7-0.16,1.21-0.49,1.55c-0.32,0.34-0.89,0.5-1.71,0.5h-4.28
			C301.01,515.55,300.45,515.38,300.13,515.05z"/>
		<path d="M313.4,512.76c-2.21-2.22-3.31-5.37-3.31-9.45c0-4.08,1.1-7.23,3.31-9.45c2.21-2.22,5.45-3.33,9.72-3.33
			s7.51,1.11,9.72,3.33c2.21,2.22,3.31,5.37,3.31,9.45c0,4.08-1.1,7.23-3.31,9.45c-2.21,2.22-5.45,3.33-9.72,3.33
			S315.6,514.98,313.4,512.76z M326.5,508.37c0.7-1.12,1.04-2.8,1.04-5.06c0-2.28-0.35-3.97-1.04-5.08c-0.7-1.1-1.82-1.66-3.38-1.66
			s-2.69,0.55-3.38,1.66c-0.7,1.1-1.04,2.8-1.04,5.08c0,2.26,0.35,3.94,1.04,5.06c0.7,1.12,1.82,1.67,3.38,1.67
			S325.8,509.49,326.5,508.37z M319.3,488.05c0-0.19,0.04-0.4,0.11-0.61l1.51-4.18c0.19-0.55,0.42-0.92,0.68-1.12
			c0.26-0.19,0.76-0.29,1.48-0.29h5.15c0.5,0,0.9,0.09,1.19,0.27c0.29,0.18,0.43,0.44,0.43,0.77c0,0.29-0.1,0.59-0.29,0.9l-2.3,3.89
			c-0.34,0.58-0.66,0.95-0.97,1.12c-0.31,0.17-0.88,0.25-1.69,0.25h-3.85C319.78,489.06,319.3,488.72,319.3,488.05z"/>
		<path d="M338.44,515.05c-0.32-0.34-0.49-0.85-0.49-1.55v-20.41c0-0.7,0.16-1.21,0.49-1.53c0.32-0.32,0.89-0.49,1.71-0.49h3.42
			c0.5,0,0.89,0.07,1.17,0.2c0.28,0.13,0.55,0.39,0.81,0.77l6.52,9.68v-8.6c0-0.7,0.16-1.21,0.49-1.55c0.32-0.34,0.88-0.5,1.67-0.5
			h4.28c0.82,0,1.39,0.16,1.71,0.49c0.32,0.32,0.49,0.85,0.49,1.57v20.41c0,0.7-0.16,1.21-0.49,1.53c-0.32,0.32-0.89,0.49-1.71,0.49
			h-3.42c-0.5,0-0.89-0.07-1.17-0.2c-0.28-0.13-0.55-0.39-0.81-0.77l-6.52-9.68v8.64c0,0.7-0.16,1.21-0.49,1.53
			c-0.32,0.32-0.89,0.49-1.71,0.49h-4.28C339.32,515.55,338.76,515.38,338.44,515.05z"/>
		<path d="M364.16,520.34c-0.67,0-1.18-0.2-1.51-0.59c-0.34-0.4-0.5-1.04-0.5-1.93c0-0.74,0.02-1.29,0.07-1.64
			c0.05-0.35,0.17-0.65,0.36-0.92c0.19-0.26,0.52-0.6,0.97-1.01c1.18-1.03,1.98-2.33,2.41-3.89c0.43-1.56,0.65-3.62,0.65-6.19
			c0-2.57-0.22-4.63-0.65-6.19c-0.43-1.56-1.24-2.86-2.41-3.89c-0.46-0.41-0.78-0.74-0.97-1.01c-0.19-0.26-0.31-0.57-0.36-0.92
			c-0.05-0.35-0.07-0.89-0.07-1.64c0-0.89,0.17-1.53,0.5-1.93c0.34-0.4,0.84-0.59,1.51-0.59c0.65,0,1.52,0.19,2.63,0.58
			c1.63,0.58,3.09,1.63,4.37,3.17c1.28,1.54,2.28,3.38,2.99,5.54c0.71,2.16,1.06,4.45,1.06,6.88c0,2.42-0.35,4.72-1.06,6.88
			c-0.71,2.16-1.7,4.01-2.99,5.54c-1.28,1.54-2.74,2.59-4.37,3.17C365.68,520.15,364.81,520.34,364.16,520.34z"/>
	</g>
	<polygon class="st1" points="200.76,96.93 214.23,124.22 244.34,128.59 222.55,149.83 227.7,179.83 200.76,165.67 173.83,179.83 
		178.97,149.83 157.18,128.59 187.29,124.22 	"/>
	<polygon class="st1" points="138.58,180.15 147.32,197.86 166.86,200.7 152.72,214.48 156.06,233.94 138.58,224.75 121.11,233.94 
		124.45,214.48 110.31,200.7 129.85,197.86 	"/>
	<polygon class="st1" points="268.68,180.15 277.42,197.86 296.95,200.7 282.82,214.48 286.15,233.94 268.68,224.75 251.2,233.94 
		254.54,214.48 240.4,200.7 259.94,197.86 	"/>
	<circle class="st2" cx="201.77" cy="213.97" r="121.96"/>
	<circle class="st3" cx="200.82" cy="200.58" r="121.96"/>
	<g>
		<path class="st3" d="M179.35,642.61c0-0.49,0.15-1.02,0.44-1.61l16.86-34.09h-18.1c-1.56,0-2.62-0.33-3.18-0.99
			c-0.56-0.66-0.84-1.71-0.84-3.17v-4.09c0-1.46,0.28-2.52,0.84-3.18c0.56-0.66,1.62-0.99,3.18-0.99h33.87c2.09,0,3.5,0.3,4.23,0.91
			c0.73,0.61,1.1,1.74,1.1,3.39c0,1.85-0.32,3.36-0.95,4.53l-19.2,38.84c-0.34,0.68-0.72,1.18-1.13,1.5
			c-0.41,0.32-0.99,0.47-1.72,0.47h-13.72C179.91,644.14,179.35,643.63,179.35,642.61z"/>
	</g>
	<path class="st184" d="M193.46,227.71l-0.32-2.71C193.35,225.87,193.46,226.78,193.46,227.71z"/>
	<path class="st185" d="M188.05,204.59l-0.49-1.17l-0.78-1.87l-3.23-7.69l-0.19-0.44c-0.98-2.34-3.67-3.43-6.01-2.45l-6.96,2.92
		l-6.14-9.38c-1.25-1.9-3.07-3.68-6.02-2.45l-31.56,13.27c-2.34,0.98-3.02,3.35-2.45,6.01l2.57,10.89l-7.11,2.99
		c-2.34,0.98-3.43,3.67-2.45,6.01l5.41,12.87c0.99,2.34,3.68,3.43,6.01,2.45l2.64-1.11c-2.13-5.07,0.26-10.89,5.32-13.03
		c5.07-2.13,10.89,0.25,13.03,5.32l15.34-6.45c-0.06-0.16-0.14-0.33-0.19-0.49h-4.86v-6.41l5.6-3.02l1.37-0.74
		c0.92-0.99,2.06-1.8,3.38-2.36c0.7-0.3,1.43-0.5,2.16-0.63l3.17-1.71h12.98L188.05,204.59z M128.93,211.32l-2.48-10.52
		c-0.23-1.03-0.28-2.35,0.62-3.07l0.01-0.01l2.26,5.41l0.74,1.77l2.11,5.04L128.93,211.32z M134.15,209.13l-5.17-12.29l13.39-5.63
		l5.16,12.29L134.15,209.13z M158.99,198.69l-9.52,4v-0.01l-5.16-12.29l13.51-5.67l5.16,12.29L158.99,198.69z M164.93,196.19
		l-5.14-12.22c0.72-0.13,1.48,0.18,2.54,1.8l5.91,9.04L164.93,196.19z"/>
	<path class="st184" d="M184.12,192.17l3.23,7.69c1.2-1.27,1.62-3.19,0.9-4.9C187.52,193.23,185.86,192.19,184.12,192.17z"/>
	<path class="st186" d="M280.97,206.29l-9.31-1.33l-1.76-20.41c0-0.79-0.65-1.45-1.45-1.45H236.9c-0.79,0-1.45,0.65-1.45,1.45v43.51
		c0,0.79,0.65,1.45,1.45,1.45h2.57c0-6.83,5.55-12.38,12.38-12.38c6.82,0,12.38,5.55,12.38,12.38h6.24v-7.51
		c0-0.81,0.64-1.46,1.45-1.46h10.52v-12.78C282.42,206.95,281.76,206.29,280.97,206.29z M247.43,205.43v-18.98h18.85l1.7,18.98
		H247.43z"/>
	<path class="st184" d="M287,213.48v16.38c0,0.81-0.64,1.45-1.45,1.45h-11.61c-0.3,0-0.58-0.09-0.82-0.25
		c-0.08-0.05-0.14-0.11-0.2-0.18c-0.28-0.26-0.43-0.62-0.43-1.02v-6.06c0-0.81,0.64-1.46,1.45-1.46h10.52v-10.3h1.09
		C286.36,212.03,287,212.67,287,213.48z"/>
	<path class="st184" d="M185.33,218.99c-5.81,0-10.5,4.7-10.5,10.5c0,5.8,4.69,10.5,10.5,10.5c5.8,0,10.5-4.7,10.5-10.5
		C195.83,223.69,191.13,218.99,185.33,218.99z M185.33,235.55c-3.35,0-6.06-2.72-6.06-6.06c0-3.35,2.72-6.06,6.06-6.06
		c3.35,0,6.06,2.72,6.06,6.06C191.39,232.84,188.68,235.55,185.33,235.55z"/>
	<path class="st184" d="M208.03,218.99c-5.8,0-10.5,4.7-10.5,10.5c0,5.8,4.7,10.5,10.5,10.5c5.81,0,10.52-4.7,10.52-10.5
		C218.55,223.69,213.84,218.99,208.03,218.99z M208.03,235.55c-3.34,0-6.06-2.72-6.06-6.06c0-3.35,2.72-6.06,6.06-6.06
		c3.36,0,6.08,2.72,6.08,6.06C214.11,232.84,211.39,235.55,208.03,235.55z"/>
	<path class="st184" d="M251.84,218.99c-5.8,0-10.5,4.7-10.5,10.5c0,5.81,4.7,10.52,10.5,10.52c5.8,0,10.5-4.7,10.5-10.52
		C262.34,223.69,257.64,218.99,251.84,218.99z M251.84,235.55c-3.35,0-6.06-2.72-6.06-6.06c0-3.35,2.72-6.06,6.06-6.06
		c3.35,0,6.06,2.72,6.06,6.06C257.9,232.84,255.19,235.55,251.84,235.55z"/>
	<path class="st187" d="M258.32,179.56v2h-13.84v-2c0-0.59,0.36-1.07,0.82-1.07h1.61l1.08-4.46h6.82l1.08,4.46h1.61
		C257.95,178.49,258.32,178.97,258.32,179.56z"/>
	<path class="st186" d="M232.61,184.8v44.69h-11.55c0-7.18-5.85-13.02-13.03-13.02c-4.87,0-9.12,2.68-11.34,6.65
		c-2.24-3.97-6.49-6.65-11.36-6.65c-7.18,0-13.02,5.84-13.02,13.02h-3.82v-11.22h-6.04v-2.4l2.13-1.13l2.15-1.17l8.39-4.53
		l1.13-0.62h45.83l1.43-8.25l-25.63-16.7l-0.79-0.52l-1.51-0.98l-0.82-0.54l-0.99-0.65l2.06-4l29.43,13.28l0.91-5.26H232.61z"/>
	<polygon class="st184" points="197.52,184.52 188.68,203.44 188.24,202.39 196.8,184.06 	"/>
</g>
</svg>
