<?xml version="1.0" encoding="utf-8"?>
<!-- Generator: Adobe Illustrator 23.0.0, SVG Export Plug-In . SVG Version: 6.00 Build 0)  -->
<svg version="1.1" id="Capa_1" xmlns="http://www.w3.org/2000/svg" xmlns:xlink="http://www.w3.org/1999/xlink" x="0px" y="0px"
	 viewBox="0 0 400 702" style="enable-background:new 0 0 400 702;" xml:space="preserve">
<style type="text/css">
	.st0{fill:#0085B0;}
	.st1{fill:#E0EF18;}
	.st2{fill:#CECECE;}
	.st3{fill:#FFFFFF;}
	.st4{fill:#F2F2F2;}
	.st5{fill:#EACCB0;}
	.st6{fill:#9B9B9B;}
	.st7{fill:#939393;}
	.st8{fill:#EFEFEF;}
	.st9{fill:#828282;}
	.st10{fill:#2C2A2D;}
	.st11{fill:#202021;}
	.st12{fill:#F2D4B6;}
	.st13{fill:#534D46;}
	.st14{fill:#E8D313;}
	.st15{fill:#2ACCFF;}
	.st16{fill:#4E4F4F;}
	.st17{fill:#003A94;}
	.st18{fill:#00D13C;}
	.st19{fill:#15682A;}
	.st20{fill:#D40000;}
	.st21{fill:#505050;}
	.st22{fill:#DFDFDF;}
	.st23{fill:none;}
	.st24{fill:#636363;}
	.st25{fill:#6C92D5;}
	.st26{fill:#22272F;}
	.st27{fill:#1B2538;}
	.st28{fill:#253452;}
	.st29{fill:#F9F9F9;}
	.st30{fill:#2D3543;}
	.st31{fill:#2A3D60;}
	.st32{fill:#587955;}
	.st33{fill:#CD7054;}
	.st34{fill:#F1CC4B;}
	.st35{fill:#ACACAC;}
	.st36{fill:#AAE528;}
	.st37{fill:#28CEBA;}
	.st38{fill:#DB143F;}
	.st39{fill:#53C2C9;}
	.st40{fill:#FFB412;}
	.st41{fill:#866A5E;}
	.st42{fill:#F7DDCB;}
	.st43{fill:#FFE6D4;}
	.st44{fill:#F5F5F5;}
	.st45{fill:#1A2830;}
	.st46{fill:#24353F;}
	.st47{fill:#132026;}
	.st48{fill:#F9FF03;}
	.st49{fill:#272728;}
	.st50{fill:#1E1D1E;}
	.st51{fill:#160423;}
	.st52{fill-rule:evenodd;clip-rule:evenodd;fill:#FFFFFF;}
	.st53{fill-rule:evenodd;clip-rule:evenodd;fill:#1996B8;}
	.st54{fill:#0C387D;}
	.st55{fill:#C69A81;}
	.st56{fill:#D1A385;}
	.st57{fill:#EAEAEA;}
	.st58{fill:#093E8C;}
	.st59{fill:#0B2A62;}
	.st60{fill:#D32A3B;}
	.st61{fill:#827C7D;}
	.st62{opacity:0.7;fill:#7F7F7F;}
	.st63{fill:#FDFDFD;}
	.st64{fill:#DAA449;}
	.st65{fill:#DD9225;}
	.st66{opacity:0.3;}
	.st67{fill:#425793;}
	.st68{opacity:0.8;}
	.st69{filter:url(#Adobe_OpacityMaskFilter);}
	.st70{opacity:0.15;mask:url(#SVGID_1_);}
	.st71{fill:#090B00;}
	.st72{opacity:0.1;}
	.st73{fill:#211915;}
	.st74{filter:url(#Adobe_OpacityMaskFilter_1_);}
	.st75{opacity:0.15;mask:url(#SVGID_2_);}
	.st76{fill:#AF3623;}
	.st77{filter:url(#Adobe_OpacityMaskFilter_2_);}
	.st78{opacity:0.15;mask:url(#SVGID_3_);}
	.st79{filter:url(#Adobe_OpacityMaskFilter_3_);}
	.st80{opacity:0.15;mask:url(#SVGID_4_);}
	.st81{fill:#456495;}
	.st82{filter:url(#Adobe_OpacityMaskFilter_4_);}
	.st83{opacity:0.15;mask:url(#SVGID_5_);}
	.st84{filter:url(#Adobe_OpacityMaskFilter_5_);}
	.st85{opacity:0.15;mask:url(#SVGID_6_);}
	.st86{fill:#76A9DA;}
	.st87{filter:url(#Adobe_OpacityMaskFilter_6_);}
	.st88{opacity:0.15;mask:url(#SVGID_7_);}
	.st89{filter:url(#Adobe_OpacityMaskFilter_7_);}
	.st90{opacity:0.15;mask:url(#SVGID_8_);}
	.st91{fill:#1F3642;}
	.st92{fill:#A9BDDA;}
	.st93{opacity:0.46;fill:#A6B4BC;}
	.st94{fill:#74C475;}
	.st95{fill:#221F21;}
	.st96{fill:#2D2D2D;}
	.st97{fill:#1C1B1A;}
	.st98{fill:#77181C;}
	.st99{fill:#262525;}
	.st100{fill:#11100F;}
	.st101{opacity:0.18;}
	.st102{opacity:0.38;}
	.st103{fill:#0A5B1F;}
	.st104{opacity:0.27;}
	.st105{opacity:0.48;}
	.st106{fill:#0A4654;}
	.st107{fill:#C2C6C6;}
	.st108{fill:#E5E5E5;stroke:#FFFFFF;stroke-miterlimit:10;}
	.st109{fill:#ACB4B5;}
	.st110{fill:#7F8384;}
	.st111{fill:#15772F;}
	.st112{fill:#F4F4F4;}
	.st113{fill:#53B8DB;}
	.st114{fill:#06EF42;}
	.st115{fill:#E7ED07;}
	.st116{fill:#CCCCCA;}
	.st117{fill:#EADF13;}
	.st118{fill:#C2C2C2;}
	.st119{fill:#85B681;}
	.st120{fill:#A1DC9B;}
	.st121{fill:#90C58B;}
	.st122{fill:#22241F;}
	.st123{opacity:0.5;}
	.st124{fill:#A2CADE;}
	.st125{fill:#E9E9E9;}
	.st126{fill:#D9D9D9;}
	.st127{fill:#CDCDCD;}
	.st128{opacity:0.34;fill:#F0F0F0;}
	.st129{fill:#5A5B5A;}
	.st130{fill:#FFE600;}
	.st131{fill:#DB1F59;}
	.st132{fill:#727272;}
	.st133{fill:#207235;}
	.st134{fill:#A3A3A3;}
	.st135{fill:#BCBCBC;}
	.st136{fill:#0A511C;}
	.st137{fill:#F9FF00;}
	.st138{fill:#D59F6D;}
	.st139{fill:#C0804A;}
	.st140{fill:#E6BA8A;}
	.st141{fill:#BE3ACC;}
	.st142{fill:#FFFFFF;stroke:#443F0C;stroke-width:9;stroke-miterlimit:10;}
	.st143{fill:none;stroke:#443F0C;stroke-width:9;stroke-miterlimit:10;}
	.st144{fill:#170623;}
	.st145{fill:#158231;}
	.st146{fill:#C89D76;}
	.st147{opacity:0.4;}
	.st148{fill:#ADADAD;}
	.st149{fill:#EDC3A6;}
	.st150{opacity:0.69;}
	.st151{fill:#E5D3D6;}
	.st152{opacity:0.44;}
	.st153{fill:#A5A5A5;}
	.st154{fill:#DDE5E4;}
	.st155{fill:#5C9169;}
	.st156{fill:#934215;}
	.st157{fill:#47413B;}
	.st158{fill:#601A1F;}
	.st159{fill:#044554;}
	.st160{opacity:0.7;}
	.st161{fill:#7F7F7F;}
	.st162{fill:#6B8A69;}
	.st163{opacity:0.24;fill:#848D90;}
	.st164{opacity:0.4;fill:#848D90;}
	.st165{fill:#F2D5D5;}
	.st166{fill:#485CC1;}
	.st167{fill:#C6CBE0;}
	.st168{fill:#8B909E;}
	.st169{fill:#53BC1B;}
	.st170{fill:#11565B;}
	.st171{fill:#67A06D;}
	.st172{fill:#FFEC00;}
	.st173{fill:#77A007;}
	.st174{fill:#E50731;}
	.st175{fill:#266472;}
	.st176{fill:#D4D4D4;}
	.st177{fill:#0E9932;}
	.st178{fill:#87DD24;}
	.st179{fill:#76A172;}
	.st180{fill:#62835F;}
	.st181{fill:#96D090;}
	.st182{fill:#D6D6D6;}
	.st183{fill:#606060;}
	.st184{fill:#494949;}
	.st185{fill:#29E55A;}
	.st186{fill:#2C703D;}
	.st187{fill:#DD0744;}
	.st188{fill:#EDEDED;}
	.st189{fill:#2A5936;}
	.st190{fill:#B9BBC1;}
	.st191{fill:#FFD79E;}
	.st192{fill:#FFE6C2;}
	.st193{fill:#2CBB55;}
	.st194{fill:#5C412D;}
	.st195{fill:#EC0000;}
	.st196{fill:#DD2626;}
	.st197{fill:#EA9334;}
	.st198{fill:#FCC232;}
	.st199{fill:#F9B234;}
	.st200{fill:#F7A037;}
	.st201{fill:#E0E0E0;}
</style>
<g>
	<g>
		<path class="st18" d="M9.5,209.36c0,22,13.29,27.86,29.54,13.03c0,0,156.99-143.3,353.09,26.97V55c0-22-18-40-40-40H49.5
			c-22,0-40,18-40,40V209.36z"/>
	</g>
	<g>
		<path class="st18" d="M391.66,647c0,22-18,40-40,40H49.98c-22,0-40-18-40-40v-46.27c0-22,18-40,40-40h301.68c22,0,40,18,40,40V647
			z"/>
	</g>
	<g>
		<path d="M54.07,368.52c-0.28-0.29-0.42-0.73-0.42-1.33v-14.04h-4.46c-0.66,0-1.11-0.14-1.35-0.42s-0.36-0.73-0.36-1.35v-1.74
			c0-0.62,0.12-1.07,0.36-1.35c0.24-0.28,0.69-0.42,1.35-0.42h16.37c0.66,0,1.11,0.14,1.35,0.42c0.24,0.28,0.36,0.73,0.36,1.35v1.74
			c0,0.62-0.12,1.07-0.36,1.35c-0.24,0.28-0.69,0.42-1.35,0.42H61.1v14.04c0,0.6-0.14,1.04-0.42,1.33
			c-0.28,0.29-0.77,0.43-1.47,0.43h-3.69C54.83,368.95,54.35,368.81,54.07,368.52z"/>
		<path d="M68.61,368.52c-0.28-0.29-0.42-0.73-0.42-1.33v-17.55c0-0.6,0.14-1.04,0.42-1.33c0.28-0.29,0.76-0.43,1.44-0.43h7.41
			c3.1,0,5.36,0.62,6.77,1.84s2.12,3.08,2.12,5.56c0,1.49-0.25,2.74-0.76,3.77c-0.51,1.02-1.29,1.82-2.34,2.4l2.88,6.17
			c0.08,0.17,0.13,0.35,0.13,0.56c0,0.23-0.08,0.41-0.23,0.56s-0.36,0.22-0.6,0.22h-5.24c-0.33,0-0.59-0.05-0.79-0.14
			c-0.2-0.09-0.34-0.25-0.42-0.48l-2.29-5.77h-1.05v4.62c0,0.6-0.14,1.04-0.42,1.33c-0.28,0.29-0.77,0.43-1.47,0.43h-3.69
			C69.37,368.95,68.89,368.81,68.61,368.52z M76.81,357.39c0.66,0,1.18-0.17,1.56-0.53s0.57-0.88,0.57-1.58
			c0-0.72-0.19-1.26-0.57-1.61c-0.38-0.35-0.9-0.53-1.56-0.53H74.7v4.25H76.81z"/>
		<path d="M85.89,368.3c0-0.19,0.05-0.41,0.16-0.68l7.72-18.57c0.19-0.43,0.4-0.74,0.64-0.91c0.24-0.18,0.57-0.26,1.01-0.26h3.38
			c0.43,0,0.77,0.09,1.01,0.26c0.24,0.18,0.45,0.48,0.63,0.91l7.69,18.57c0.1,0.27,0.16,0.5,0.16,0.68c0,0.43-0.23,0.65-0.68,0.65
			h-5.83c-0.64,0-1.04-0.28-1.21-0.84l-0.74-2.29h-5.49l-0.71,2.29c-0.17,0.56-0.57,0.84-1.21,0.84h-5.83
			C86.12,368.95,85.89,368.74,85.89,368.3z M98.29,360.92l-1.21-3.84l-1.21,3.84H98.29z"/>
		<path d="M110.24,368.52c-0.28-0.29-0.42-0.73-0.42-1.33v-17.58c0-0.6,0.14-1.04,0.42-1.32c0.28-0.28,0.77-0.42,1.47-0.42h2.95
			c0.43,0,0.77,0.06,1.01,0.17c0.24,0.11,0.47,0.34,0.7,0.67l5.61,8.34v-7.41c0-0.6,0.14-1.04,0.42-1.33
			c0.28-0.29,0.76-0.43,1.44-0.43h3.69c0.7,0,1.19,0.14,1.47,0.42c0.28,0.28,0.42,0.73,0.42,1.35v17.58c0,0.6-0.14,1.04-0.42,1.32
			c-0.28,0.28-0.77,0.42-1.47,0.42h-2.95c-0.43,0-0.77-0.06-1.01-0.17c-0.24-0.11-0.47-0.33-0.7-0.67l-5.61-8.34v7.44
			c0,0.6-0.14,1.04-0.42,1.32c-0.28,0.28-0.77,0.42-1.47,0.42h-3.69C111,368.95,110.52,368.81,110.24,368.52z"/>
		<path d="M135.53,368.83c-1.61-0.39-2.91-0.94-3.91-1.64c-0.41-0.29-0.62-0.57-0.62-0.84c0-0.19,0.07-0.38,0.22-0.59l1.8-2.82
			c0.19-0.27,0.37-0.4,0.56-0.4c0.17,0,0.36,0.07,0.59,0.22c0.74,0.46,1.6,0.81,2.56,1.07c0.96,0.26,1.9,0.39,2.81,0.39
			c0.76,0,1.32-0.1,1.66-0.31c0.34-0.21,0.51-0.53,0.51-0.96c0-0.48-0.23-0.86-0.68-1.15c-0.45-0.29-1.24-0.65-2.36-1.08
			c-2.09-0.81-3.73-1.72-4.93-2.74c-1.2-1.02-1.8-2.38-1.8-4.08c0-2.15,0.75-3.77,2.25-4.85c1.5-1.08,3.52-1.63,6.06-1.63
			c1.78,0,3.29,0.16,4.54,0.46c1.25,0.31,2.34,0.8,3.27,1.46c0.41,0.29,0.62,0.57,0.62,0.84c0,0.19-0.07,0.38-0.22,0.59l-1.8,2.82
			c-0.19,0.29-0.37,0.43-0.56,0.43c-0.12,0-0.32-0.08-0.59-0.25c-0.5-0.33-1.09-0.6-1.77-0.82s-1.42-0.33-2.2-0.33
			c-0.72,0-1.27,0.1-1.64,0.31c-0.37,0.21-0.56,0.54-0.56,0.99c0,0.37,0.13,0.68,0.39,0.93c0.26,0.25,0.58,0.46,0.98,0.64
			c0.39,0.18,1.07,0.46,2.04,0.85c1.55,0.62,2.77,1.21,3.66,1.78c0.89,0.57,1.56,1.25,2.02,2.05c0.45,0.8,0.68,1.8,0.68,3.02
			c0,1.86-0.7,3.36-2.09,4.51c-1.4,1.15-3.48,1.72-6.25,1.72C138.88,369.42,137.14,369.22,135.53,368.83z"/>
		<path d="M151.07,368.52c-0.28-0.29-0.42-0.73-0.42-1.33v-17.55c0-0.6,0.14-1.04,0.42-1.33c0.28-0.29,0.76-0.43,1.44-0.43h12.83
			c0.66,0,1.11,0.14,1.35,0.42c0.24,0.28,0.36,0.73,0.36,1.35v1.74c0,0.62-0.12,1.07-0.36,1.35c-0.24,0.28-0.69,0.42-1.35,0.42
			h-7.25v2.63h4.46c0.66,0,1.11,0.14,1.35,0.42c0.24,0.28,0.36,0.73,0.36,1.35v1.74c0,0.62-0.12,1.07-0.36,1.35
			c-0.24,0.28-0.69,0.42-1.35,0.42h-4.46v6.14c0,0.6-0.14,1.04-0.42,1.33c-0.28,0.29-0.77,0.43-1.47,0.43h-3.69
			C151.83,368.95,151.35,368.81,151.07,368.52z"/>
		<path d="M168.55,368.52c-0.28-0.29-0.42-0.73-0.42-1.33v-17.55c0-0.6,0.14-1.04,0.42-1.33c0.28-0.29,0.76-0.43,1.44-0.43h12.83
			c0.66,0,1.11,0.14,1.35,0.42c0.24,0.28,0.36,0.73,0.36,1.35v1.74c0,0.62-0.12,1.07-0.36,1.35c-0.24,0.28-0.69,0.42-1.35,0.42
			h-7.25v2.67h4.46c0.66,0,1.11,0.14,1.35,0.42c0.24,0.28,0.36,0.73,0.36,1.35v1.67c0,0.62-0.12,1.07-0.36,1.35
			c-0.24,0.28-0.69,0.42-1.35,0.42h-4.46v2.67h7.22c0.66,0,1.11,0.14,1.35,0.42c0.24,0.28,0.36,0.73,0.36,1.35v1.74
			c0,0.62-0.12,1.07-0.36,1.35c-0.24,0.28-0.69,0.42-1.35,0.42H170C169.31,368.95,168.83,368.81,168.55,368.52z"/>
		<path d="M186.35,368.52c-0.28-0.29-0.42-0.73-0.42-1.33v-17.55c0-0.6,0.14-1.04,0.42-1.33c0.28-0.29,0.76-0.43,1.44-0.43h7.41
			c3.1,0,5.36,0.62,6.77,1.84c1.42,1.23,2.12,3.08,2.12,5.56c0,1.49-0.25,2.74-0.76,3.77c-0.51,1.02-1.29,1.82-2.34,2.4l2.88,6.17
			c0.08,0.17,0.12,0.35,0.12,0.56c0,0.23-0.08,0.41-0.23,0.56c-0.16,0.14-0.36,0.22-0.61,0.22h-5.24c-0.33,0-0.59-0.05-0.79-0.14
			c-0.2-0.09-0.34-0.25-0.42-0.48l-2.29-5.77h-1.05v4.62c0,0.6-0.14,1.04-0.42,1.33c-0.28,0.29-0.77,0.43-1.47,0.43h-3.69
			C187.11,368.95,186.63,368.81,186.35,368.52z M194.55,357.39c0.66,0,1.18-0.17,1.57-0.53c0.38-0.35,0.57-0.88,0.57-1.58
			c0-0.72-0.19-1.26-0.57-1.61c-0.38-0.35-0.9-0.53-1.57-0.53h-2.11v4.25H194.55z"/>
		<path d="M206.06,368.52c-0.28-0.29-0.42-0.73-0.42-1.33v-17.55c0-0.6,0.14-1.04,0.42-1.33c0.28-0.29,0.76-0.43,1.44-0.43h12.83
			c0.66,0,1.11,0.14,1.35,0.42c0.24,0.28,0.36,0.73,0.36,1.35v1.74c0,0.62-0.12,1.07-0.36,1.35s-0.69,0.42-1.35,0.42h-7.25v2.67
			h4.46c0.66,0,1.11,0.14,1.35,0.42c0.24,0.28,0.36,0.73,0.36,1.35v1.67c0,0.62-0.12,1.07-0.36,1.35c-0.24,0.28-0.69,0.42-1.35,0.42
			h-4.46v2.67h7.22c0.66,0,1.11,0.14,1.35,0.42c0.24,0.28,0.36,0.73,0.36,1.35v1.74c0,0.62-0.12,1.07-0.36,1.35
			c-0.24,0.28-0.69,0.42-1.35,0.42h-12.8C206.82,368.95,206.34,368.81,206.06,368.52z"/>
		<path d="M223.86,368.52c-0.28-0.29-0.42-0.73-0.42-1.33v-17.58c0-0.6,0.14-1.04,0.42-1.32c0.28-0.28,0.77-0.42,1.47-0.42h2.94
			c0.43,0,0.77,0.06,1.01,0.17s0.47,0.34,0.7,0.67l5.61,8.34v-7.41c0-0.6,0.14-1.04,0.42-1.33c0.28-0.29,0.76-0.43,1.44-0.43h3.69
			c0.7,0,1.19,0.14,1.47,0.42c0.28,0.28,0.42,0.73,0.42,1.35v17.58c0,0.6-0.14,1.04-0.42,1.32c-0.28,0.28-0.77,0.42-1.47,0.42h-2.95
			c-0.43,0-0.77-0.06-1.01-0.17c-0.24-0.11-0.47-0.33-0.7-0.67l-5.61-8.34v7.44c0,0.6-0.14,1.04-0.42,1.32
			c-0.28,0.28-0.77,0.42-1.47,0.42h-3.69C224.62,368.95,224.14,368.81,223.86,368.52z"/>
		<path d="M247.71,366.64c-2.09-1.85-3.13-4.59-3.13-8.23c0-3.66,1.01-6.41,3.02-8.25c2.02-1.84,4.89-2.76,8.63-2.76
			c1.69,0,3.2,0.17,4.53,0.5s2.43,0.8,3.32,1.39c0.25,0.19,0.37,0.39,0.37,0.62c0,0.19-0.09,0.45-0.28,0.78l-1.55,2.67
			c-0.17,0.29-0.36,0.43-0.59,0.43c-0.15,0-0.38-0.08-0.71-0.25c-0.58-0.29-1.18-0.52-1.81-0.68s-1.37-0.25-2.22-0.25
			c-1.71,0-3.03,0.5-3.94,1.49c-0.91,0.99-1.36,2.43-1.36,4.31c0,1.86,0.5,3.29,1.49,4.29c0.99,1,2.35,1.5,4.06,1.5
			c1.49,0,2.85-0.31,4.09-0.93c0.33-0.17,0.57-0.25,0.71-0.25c0.23,0,0.42,0.14,0.59,0.43l1.55,2.67c0.19,0.33,0.28,0.59,0.28,0.78
			c0,0.23-0.12,0.43-0.37,0.62c-0.89,0.6-2,1.06-3.35,1.39c-1.34,0.33-2.86,0.5-4.56,0.5C252.72,369.42,249.8,368.49,247.71,366.64z
			"/>
		<path d="M266.73,368.52c-0.28-0.29-0.42-0.73-0.42-1.33v-17.55c0-0.6,0.14-1.04,0.42-1.33c0.28-0.29,0.76-0.43,1.44-0.43h3.69
			c0.7,0,1.19,0.14,1.47,0.42c0.28,0.28,0.42,0.73,0.42,1.35v17.55c0,0.6-0.14,1.04-0.42,1.33c-0.28,0.29-0.77,0.43-1.47,0.43h-3.69
			C267.49,368.95,267.01,368.81,266.73,368.52z"/>
		<path d="M275.3,368.3c0-0.19,0.05-0.41,0.15-0.68l7.72-18.57c0.19-0.43,0.4-0.74,0.64-0.91c0.24-0.18,0.57-0.26,1.01-0.26h3.38
			c0.43,0,0.77,0.09,1.01,0.26s0.45,0.48,0.64,0.91l7.69,18.57c0.1,0.27,0.16,0.5,0.16,0.68c0,0.43-0.23,0.65-0.68,0.65h-5.83
			c-0.64,0-1.04-0.28-1.21-0.84l-0.74-2.29h-5.49l-0.71,2.29c-0.17,0.56-0.57,0.84-1.21,0.84h-5.83
			C275.53,368.95,275.3,368.74,275.3,368.3z M287.7,360.92l-1.21-3.84l-1.21,3.84H287.7z"/>
		<path d="M308.95,368.52c-0.28-0.29-0.42-0.73-0.42-1.33v-17.55c0-0.6,0.14-1.04,0.42-1.33c0.28-0.29,0.76-0.43,1.44-0.43h7.13
			c7.29,0,10.94,3.51,10.94,10.54c0,3.47-0.94,6.1-2.8,7.87c-1.87,1.78-4.58,2.67-8.14,2.67h-7.13
			C309.71,368.95,309.23,368.81,308.95,368.52z M317.8,363.68c1.16,0,1.99-0.38,2.5-1.15c0.51-0.76,0.76-2.14,0.76-4.12
			s-0.25-3.36-0.76-4.12c-0.51-0.76-1.34-1.15-2.5-1.15h-1.83v10.54H317.8z"/>
		<path d="M330.44,368.52c-0.28-0.29-0.42-0.73-0.42-1.33v-17.55c0-0.6,0.14-1.04,0.42-1.33c0.28-0.29,0.76-0.43,1.44-0.43h12.83
			c0.66,0,1.11,0.14,1.35,0.42c0.24,0.28,0.36,0.73,0.36,1.35v1.74c0,0.62-0.12,1.07-0.36,1.35s-0.69,0.42-1.35,0.42h-7.25v2.67
			h4.46c0.66,0,1.11,0.14,1.35,0.42c0.24,0.28,0.36,0.73,0.36,1.35v1.67c0,0.62-0.12,1.07-0.36,1.35c-0.24,0.28-0.69,0.42-1.35,0.42
			h-4.46v2.67h7.22c0.66,0,1.11,0.14,1.35,0.42c0.24,0.28,0.36,0.73,0.36,1.35v1.74c0,0.62-0.12,1.07-0.36,1.35
			c-0.24,0.28-0.69,0.42-1.35,0.42h-12.8C331.2,368.95,330.71,368.81,330.44,368.52z"/>
		<path d="M31.26,405.72c-0.28-0.29-0.42-0.73-0.42-1.33v-17.55c0-0.6,0.14-1.04,0.42-1.33c0.28-0.29,0.76-0.43,1.44-0.43h3.69
			c0.7,0,1.19,0.14,1.47,0.42c0.28,0.28,0.42,0.73,0.42,1.35v14.04h7.22c0.66,0,1.11,0.14,1.35,0.42c0.24,0.28,0.36,0.73,0.36,1.35
			v1.74c0,0.62-0.12,1.07-0.36,1.35c-0.24,0.28-0.69,0.42-1.35,0.42H32.7C32.02,406.15,31.54,406.01,31.26,405.72z"/>
		<path d="M47.05,405.5c0-0.19,0.05-0.41,0.16-0.68l7.72-18.57c0.19-0.43,0.4-0.74,0.63-0.91c0.24-0.18,0.57-0.26,1.01-0.26h3.38
			c0.43,0,0.77,0.09,1.01,0.26c0.24,0.18,0.45,0.48,0.63,0.91l7.69,18.57c0.1,0.27,0.16,0.5,0.16,0.68c0,0.43-0.23,0.65-0.68,0.65
			h-5.83c-0.64,0-1.04-0.28-1.21-0.84l-0.74-2.29h-5.49l-0.71,2.29c-0.17,0.56-0.57,0.84-1.21,0.84h-5.83
			C47.28,406.15,47.05,405.94,47.05,405.5z M59.45,398.12l-1.21-3.84l-1.21,3.84H59.45z"/>
		<path d="M73.53,406.03c-1.61-0.39-2.91-0.94-3.91-1.64c-0.41-0.29-0.62-0.57-0.62-0.84c0-0.19,0.07-0.38,0.22-0.59l1.8-2.82
			c0.19-0.27,0.37-0.4,0.56-0.4c0.17,0,0.36,0.07,0.59,0.22c0.74,0.46,1.6,0.81,2.56,1.07c0.96,0.26,1.9,0.39,2.81,0.39
			c0.76,0,1.32-0.1,1.66-0.31c0.34-0.21,0.51-0.53,0.51-0.96c0-0.48-0.23-0.86-0.68-1.15c-0.45-0.29-1.24-0.65-2.36-1.08
			c-2.09-0.81-3.73-1.72-4.93-2.74c-1.2-1.02-1.8-2.38-1.8-4.08c0-2.15,0.75-3.77,2.25-4.85c1.5-1.08,3.52-1.63,6.06-1.63
			c1.78,0,3.29,0.16,4.54,0.46c1.25,0.31,2.34,0.8,3.27,1.46c0.41,0.29,0.62,0.57,0.62,0.84c0,0.19-0.07,0.38-0.22,0.59l-1.8,2.82
			c-0.19,0.29-0.37,0.43-0.56,0.43c-0.12,0-0.32-0.08-0.59-0.25c-0.5-0.33-1.09-0.6-1.77-0.82s-1.42-0.33-2.2-0.33
			c-0.72,0-1.27,0.1-1.64,0.31c-0.37,0.21-0.56,0.54-0.56,0.99c0,0.37,0.13,0.68,0.39,0.93c0.26,0.25,0.58,0.46,0.98,0.64
			c0.39,0.18,1.07,0.46,2.04,0.85c1.55,0.62,2.77,1.21,3.66,1.78c0.89,0.57,1.56,1.25,2.02,2.05c0.45,0.8,0.68,1.8,0.68,3.02
			c0,1.86-0.7,3.36-2.09,4.51c-1.4,1.15-3.48,1.72-6.25,1.72C76.88,406.62,75.14,406.42,73.53,406.03z"/>
		<path d="M100.46,403.84c-2.09-1.85-3.13-4.59-3.13-8.23c0-3.66,1.01-6.41,3.02-8.25c2.01-1.84,4.89-2.76,8.63-2.76
			c1.7,0,3.2,0.17,4.53,0.5c1.32,0.33,2.43,0.8,3.32,1.39c0.25,0.19,0.37,0.39,0.37,0.62c0,0.19-0.09,0.45-0.28,0.78l-1.55,2.67
			c-0.17,0.29-0.36,0.43-0.59,0.43c-0.14,0-0.38-0.08-0.71-0.25c-0.58-0.29-1.18-0.52-1.81-0.68c-0.63-0.17-1.37-0.25-2.22-0.25
			c-1.72,0-3.03,0.5-3.94,1.49c-0.91,0.99-1.36,2.43-1.36,4.31c0,1.86,0.5,3.29,1.49,4.29c0.99,1,2.35,1.5,4.06,1.5
			c1.49,0,2.85-0.31,4.09-0.93c0.33-0.17,0.57-0.25,0.71-0.25c0.23,0,0.42,0.14,0.59,0.43l1.55,2.67c0.19,0.33,0.28,0.59,0.28,0.78
			c0,0.23-0.12,0.43-0.37,0.62c-0.89,0.6-2,1.06-3.35,1.39c-1.34,0.33-2.86,0.5-4.56,0.5C105.47,406.62,102.55,405.69,100.46,403.84
			z"/>
		<path d="M119.9,403.75c-1.9-1.91-2.85-4.62-2.85-8.14c0-3.51,0.95-6.23,2.85-8.14c1.9-1.91,4.69-2.87,8.37-2.87
			c3.68,0,6.47,0.96,8.37,2.87c1.9,1.91,2.85,4.63,2.85,8.14c0,3.51-0.95,6.23-2.85,8.14c-1.9,1.91-4.69,2.87-8.37,2.87
			C124.59,406.62,121.8,405.66,119.9,403.75z M131.19,399.97c0.6-0.96,0.9-2.41,0.9-4.36c0-1.96-0.3-3.42-0.9-4.37
			c-0.6-0.95-1.57-1.43-2.91-1.43c-1.34,0-2.32,0.48-2.91,1.43c-0.6,0.95-0.9,2.41-0.9,4.37c0,1.94,0.3,3.39,0.9,4.36
			c0.6,0.96,1.57,1.44,2.91,1.44C129.61,401.41,130.59,400.93,131.19,399.97z"/>
		<path d="M141.46,405.72c-0.28-0.29-0.42-0.73-0.42-1.33v-17.58c0-0.6,0.14-1.04,0.42-1.32c0.28-0.28,0.77-0.42,1.47-0.42h2.95
			c0.43,0,0.77,0.06,1.01,0.17c0.24,0.11,0.47,0.34,0.7,0.67l5.61,8.34v-7.41c0-0.6,0.14-1.04,0.42-1.33
			c0.28-0.29,0.76-0.43,1.44-0.43h3.69c0.7,0,1.19,0.14,1.47,0.42c0.28,0.28,0.42,0.73,0.42,1.35v17.58c0,0.6-0.14,1.04-0.42,1.32
			c-0.28,0.28-0.77,0.42-1.47,0.42h-2.95c-0.43,0-0.77-0.06-1.01-0.17c-0.24-0.11-0.47-0.33-0.7-0.67l-5.61-8.34v7.44
			c0,0.6-0.14,1.04-0.42,1.32c-0.28,0.28-0.77,0.42-1.47,0.42h-3.69C142.22,406.15,141.74,406.01,141.46,405.72z"/>
		<path d="M170.35,405.89c-0.24-0.17-0.44-0.48-0.61-0.91l-7.41-18.57c-0.1-0.27-0.16-0.5-0.16-0.68c0-0.43,0.23-0.65,0.68-0.65
			h5.83c0.64,0,1.04,0.28,1.21,0.84l3.16,10.11l3.16-10.11c0.17-0.56,0.57-0.84,1.21-0.84h5.83c0.45,0,0.68,0.22,0.68,0.65
			c0,0.19-0.05,0.41-0.16,0.68l-7.38,18.57c-0.17,0.43-0.37,0.74-0.61,0.91c-0.24,0.18-0.58,0.26-1.04,0.26h-3.38
			C170.94,406.15,170.59,406.06,170.35,405.89z"/>
		<path d="M185.92,405.72c-0.28-0.29-0.42-0.73-0.42-1.33v-17.55c0-0.6,0.14-1.04,0.42-1.33c0.28-0.29,0.76-0.43,1.44-0.43h12.83
			c0.66,0,1.11,0.14,1.35,0.42c0.24,0.28,0.36,0.73,0.36,1.35v1.74c0,0.62-0.12,1.07-0.36,1.35c-0.24,0.28-0.69,0.42-1.35,0.42
			h-7.25v2.67h4.46c0.66,0,1.11,0.14,1.35,0.42s0.36,0.73,0.36,1.35v1.67c0,0.62-0.12,1.07-0.36,1.35s-0.69,0.42-1.35,0.42h-4.46
			v2.67h7.22c0.66,0,1.11,0.14,1.35,0.42c0.24,0.28,0.36,0.73,0.36,1.35v1.74c0,0.62-0.12,1.07-0.36,1.35
			c-0.24,0.28-0.69,0.42-1.35,0.42h-12.8C186.67,406.15,186.19,406.01,185.92,405.72z"/>
		<path d="M203.71,405.72c-0.28-0.29-0.42-0.73-0.42-1.33v-17.55c0-0.6,0.14-1.04,0.42-1.33c0.28-0.29,0.76-0.43,1.44-0.43h7.41
			c3.1,0,5.36,0.62,6.77,1.84c1.42,1.23,2.12,3.08,2.12,5.56c0,1.49-0.25,2.74-0.76,3.77c-0.51,1.02-1.29,1.82-2.34,2.4l2.88,6.17
			c0.08,0.17,0.12,0.35,0.12,0.56c0,0.23-0.08,0.41-0.23,0.56c-0.16,0.14-0.36,0.22-0.61,0.22h-5.24c-0.33,0-0.59-0.05-0.79-0.14
			c-0.2-0.09-0.34-0.25-0.42-0.48l-2.29-5.77h-1.05v4.62c0,0.6-0.14,1.04-0.42,1.33c-0.28,0.29-0.77,0.43-1.47,0.43h-3.69
			C204.47,406.15,203.99,406.01,203.71,405.72z M211.91,394.59c0.66,0,1.18-0.17,1.57-0.53c0.38-0.35,0.57-0.88,0.57-1.58
			c0-0.72-0.19-1.26-0.57-1.61c-0.38-0.35-0.9-0.53-1.57-0.53h-2.11v4.25H211.91z"/>
		<path d="M226.94,406.03c-1.61-0.39-2.91-0.94-3.91-1.64c-0.41-0.29-0.62-0.57-0.62-0.84c0-0.19,0.07-0.38,0.22-0.59l1.8-2.82
			c0.19-0.27,0.37-0.4,0.56-0.4c0.17,0,0.36,0.07,0.59,0.22c0.74,0.46,1.6,0.81,2.56,1.07c0.96,0.26,1.9,0.39,2.8,0.39
			c0.76,0,1.32-0.1,1.66-0.31s0.51-0.53,0.51-0.96c0-0.48-0.23-0.86-0.68-1.15c-0.46-0.29-1.24-0.65-2.36-1.08
			c-2.09-0.81-3.73-1.72-4.93-2.74c-1.2-1.02-1.8-2.38-1.8-4.08c0-2.15,0.75-3.77,2.25-4.85c1.5-1.08,3.52-1.63,6.06-1.63
			c1.78,0,3.29,0.16,4.54,0.46c1.25,0.31,2.34,0.8,3.27,1.46c0.41,0.29,0.62,0.57,0.62,0.84c0,0.19-0.07,0.38-0.22,0.59l-1.8,2.82
			c-0.19,0.29-0.37,0.43-0.56,0.43c-0.12,0-0.32-0.08-0.59-0.25c-0.5-0.33-1.08-0.6-1.77-0.82s-1.42-0.33-2.2-0.33
			c-0.72,0-1.27,0.1-1.64,0.31c-0.37,0.21-0.56,0.54-0.56,0.99c0,0.37,0.13,0.68,0.39,0.93c0.26,0.25,0.58,0.46,0.98,0.64
			c0.39,0.18,1.07,0.46,2.05,0.85c1.55,0.62,2.77,1.21,3.66,1.78c0.89,0.57,1.56,1.25,2.01,2.05s0.68,1.8,0.68,3.02
			c0,1.86-0.7,3.36-2.09,4.51c-1.39,1.15-3.48,1.72-6.25,1.72C230.3,406.62,228.55,406.42,226.94,406.03z"/>
		<path d="M240.05,405.5c0-0.19,0.05-0.41,0.16-0.68l7.72-18.57c0.19-0.43,0.4-0.74,0.63-0.91c0.24-0.18,0.57-0.26,1.01-0.26h3.38
			c0.43,0,0.77,0.09,1.01,0.26c0.24,0.18,0.45,0.48,0.63,0.91l7.69,18.57c0.1,0.27,0.16,0.5,0.16,0.68c0,0.43-0.23,0.65-0.68,0.65
			h-5.83c-0.64,0-1.04-0.28-1.21-0.84l-0.74-2.29h-5.49l-0.71,2.29c-0.17,0.56-0.57,0.84-1.21,0.84h-5.83
			C240.28,406.15,240.05,405.94,240.05,405.5z M252.46,398.12l-1.21-3.84l-1.21,3.84H252.46z"/>
		<path d="M264.79,403.84c-2.09-1.85-3.13-4.59-3.13-8.23c0-3.66,1.01-6.41,3.02-8.25c2.01-1.84,4.89-2.76,8.63-2.76
			c1.7,0,3.2,0.17,4.53,0.5c1.32,0.33,2.43,0.8,3.32,1.39c0.25,0.19,0.37,0.39,0.37,0.62c0,0.19-0.09,0.45-0.28,0.78l-1.55,2.67
			c-0.17,0.29-0.36,0.43-0.59,0.43c-0.14,0-0.38-0.08-0.71-0.25c-0.58-0.29-1.18-0.52-1.81-0.68c-0.63-0.17-1.37-0.25-2.22-0.25
			c-1.72,0-3.03,0.5-3.94,1.49c-0.91,0.99-1.36,2.43-1.36,4.31c0,1.86,0.5,3.29,1.49,4.29c0.99,1,2.35,1.5,4.06,1.5
			c1.49,0,2.85-0.31,4.09-0.93c0.33-0.17,0.57-0.25,0.71-0.25c0.23,0,0.42,0.14,0.59,0.43l1.55,2.67c0.19,0.33,0.28,0.59,0.28,0.78
			c0,0.23-0.12,0.43-0.37,0.62c-0.89,0.6-2,1.06-3.35,1.39c-1.34,0.33-2.86,0.5-4.56,0.5C269.8,406.62,266.88,405.69,264.79,403.84z
			"/>
		<path d="M283.81,405.72c-0.28-0.29-0.42-0.73-0.42-1.33v-17.55c0-0.6,0.14-1.04,0.42-1.33c0.28-0.29,0.76-0.43,1.44-0.43h3.69
			c0.7,0,1.19,0.14,1.47,0.42c0.28,0.28,0.42,0.73,0.42,1.35v17.55c0,0.6-0.14,1.04-0.42,1.33c-0.28,0.29-0.77,0.43-1.47,0.43h-3.69
			C284.57,406.15,284.09,406.01,283.81,405.72z"/>
		<path d="M295.24,403.75c-1.9-1.91-2.85-4.62-2.85-8.14c0-3.51,0.95-6.23,2.85-8.14c1.9-1.91,4.69-2.87,8.37-2.87
			c3.68,0,6.47,0.96,8.37,2.87c1.9,1.91,2.85,4.63,2.85,8.14c0,3.51-0.95,6.23-2.85,8.14c-1.9,1.91-4.69,2.87-8.37,2.87
			C299.93,406.62,297.14,405.66,295.24,403.75z M306.52,399.97c0.6-0.96,0.9-2.41,0.9-4.36c0-1.96-0.3-3.42-0.9-4.37
			c-0.6-0.95-1.57-1.43-2.91-1.43s-2.31,0.48-2.91,1.43c-0.6,0.95-0.9,2.41-0.9,4.37c0,1.94,0.3,3.39,0.9,4.36s1.57,1.44,2.91,1.44
			S305.92,400.93,306.52,399.97z"/>
		<path d="M316.8,405.72c-0.28-0.29-0.42-0.73-0.42-1.33v-17.58c0-0.6,0.14-1.04,0.42-1.32c0.28-0.28,0.77-0.42,1.47-0.42h2.94
			c0.43,0,0.77,0.06,1.01,0.17s0.47,0.34,0.7,0.67l5.61,8.34v-7.41c0-0.6,0.14-1.04,0.42-1.33c0.28-0.29,0.76-0.43,1.44-0.43h3.69
			c0.7,0,1.19,0.14,1.47,0.42c0.28,0.28,0.42,0.73,0.42,1.35v17.58c0,0.6-0.14,1.04-0.42,1.32c-0.28,0.28-0.77,0.42-1.47,0.42h-2.95
			c-0.43,0-0.77-0.06-1.01-0.17c-0.24-0.11-0.47-0.33-0.7-0.67l-5.61-8.34v7.44c0,0.6-0.14,1.04-0.42,1.32
			c-0.28,0.28-0.77,0.42-1.47,0.42h-3.69C317.56,406.15,317.08,406.01,316.8,405.72z"/>
		<path d="M338.56,405.72c-0.28-0.29-0.42-0.73-0.42-1.33v-17.55c0-0.6,0.14-1.04,0.42-1.33c0.28-0.29,0.76-0.43,1.44-0.43h12.83
			c0.66,0,1.11,0.14,1.35,0.42c0.24,0.28,0.36,0.73,0.36,1.35v1.74c0,0.62-0.12,1.07-0.36,1.35c-0.24,0.28-0.69,0.42-1.35,0.42
			h-7.25v2.67h4.46c0.66,0,1.11,0.14,1.35,0.42s0.36,0.73,0.36,1.35v1.67c0,0.62-0.12,1.07-0.36,1.35s-0.69,0.42-1.35,0.42h-4.46
			v2.67h7.22c0.66,0,1.11,0.14,1.35,0.42c0.24,0.28,0.36,0.73,0.36,1.35v1.74c0,0.62-0.12,1.07-0.36,1.35
			c-0.24,0.28-0.69,0.42-1.35,0.42H340C339.32,406.15,338.84,406.01,338.56,405.72z"/>
		<path d="M359.87,406.03c-1.61-0.39-2.91-0.94-3.91-1.64c-0.41-0.29-0.62-0.57-0.62-0.84c0-0.19,0.07-0.38,0.22-0.59l1.8-2.82
			c0.19-0.27,0.37-0.4,0.56-0.4c0.17,0,0.36,0.07,0.59,0.22c0.74,0.46,1.6,0.81,2.56,1.07c0.96,0.26,1.9,0.39,2.81,0.39
			c0.76,0,1.32-0.1,1.66-0.31c0.34-0.21,0.51-0.53,0.51-0.96c0-0.48-0.23-0.86-0.68-1.15c-0.46-0.29-1.24-0.65-2.36-1.08
			c-2.09-0.81-3.73-1.72-4.93-2.74c-1.2-1.02-1.8-2.38-1.8-4.08c0-2.15,0.75-3.77,2.25-4.85c1.5-1.08,3.52-1.63,6.06-1.63
			c1.78,0,3.29,0.16,4.54,0.46c1.25,0.31,2.34,0.8,3.27,1.46c0.41,0.29,0.62,0.57,0.62,0.84c0,0.19-0.07,0.38-0.22,0.59l-1.8,2.82
			c-0.19,0.29-0.37,0.43-0.56,0.43c-0.12,0-0.32-0.08-0.59-0.25c-0.5-0.33-1.08-0.6-1.77-0.82c-0.68-0.22-1.42-0.33-2.2-0.33
			c-0.72,0-1.27,0.1-1.64,0.31c-0.37,0.21-0.56,0.54-0.56,0.99c0,0.37,0.13,0.68,0.39,0.93c0.26,0.25,0.58,0.46,0.98,0.64
			c0.39,0.18,1.07,0.46,2.05,0.85c1.55,0.62,2.77,1.21,3.66,1.78c0.89,0.57,1.56,1.25,2.01,2.05c0.46,0.8,0.68,1.8,0.68,3.02
			c0,1.86-0.7,3.36-2.09,4.51c-1.39,1.15-3.48,1.72-6.25,1.72C363.23,406.62,361.48,406.42,359.87,406.03z"/>
		<path d="M82.3,442.7c0-0.19,0.05-0.41,0.15-0.68l7.72-18.57c0.19-0.43,0.4-0.74,0.64-0.91c0.24-0.18,0.57-0.26,1.01-0.26h3.38
			c0.43,0,0.77,0.09,1.01,0.26s0.45,0.48,0.64,0.91l7.69,18.57c0.1,0.27,0.16,0.5,0.16,0.68c0,0.43-0.23,0.65-0.68,0.65h-5.83
			c-0.64,0-1.04-0.28-1.21-0.84l-0.74-2.29h-5.49l-0.71,2.29c-0.17,0.56-0.57,0.84-1.21,0.84h-5.83
			C82.53,443.35,82.3,443.14,82.3,442.7z M94.7,435.32l-1.21-3.84l-1.21,3.84H94.7z"/>
		<path d="M115.95,442.92c-0.28-0.29-0.42-0.73-0.42-1.33v-17.55c0-0.6,0.14-1.04,0.42-1.33c0.28-0.29,0.76-0.43,1.44-0.43h3.69
			c0.7,0,1.19,0.14,1.47,0.42c0.28,0.28,0.42,0.73,0.42,1.35v14.04h7.22c0.66,0,1.11,0.14,1.35,0.42s0.36,0.73,0.36,1.35v1.74
			c0,0.62-0.12,1.07-0.36,1.35c-0.24,0.28-0.69,0.42-1.35,0.42h-12.8C116.71,443.35,116.23,443.21,115.95,442.92z"/>
		<path d="M133.67,440.95c-1.9-1.91-2.85-4.62-2.85-8.14c0-3.51,0.95-6.23,2.85-8.14c1.9-1.91,4.69-2.87,8.37-2.87
			c3.68,0,6.47,0.96,8.37,2.87c1.9,1.91,2.85,4.63,2.85,8.14c0,3.51-0.95,6.23-2.85,8.14c-1.9,1.91-4.69,2.87-8.37,2.87
			C138.36,443.82,135.57,442.86,133.67,440.95z M144.95,437.17c0.6-0.96,0.9-2.41,0.9-4.36c0-1.96-0.3-3.42-0.9-4.37
			c-0.6-0.95-1.57-1.43-2.91-1.43s-2.31,0.48-2.91,1.43c-0.6,0.95-0.9,2.41-0.9,4.37c0,1.94,0.3,3.39,0.9,4.36s1.57,1.44,2.91,1.44
			S144.35,438.13,144.95,437.17z"/>
		<path d="M157.35,443.23c-1.61-0.39-2.91-0.94-3.91-1.64c-0.41-0.29-0.62-0.57-0.62-0.84c0-0.19,0.07-0.38,0.22-0.59l1.8-2.82
			c0.19-0.27,0.37-0.4,0.56-0.4c0.17,0,0.36,0.07,0.59,0.22c0.74,0.46,1.6,0.81,2.56,1.07c0.96,0.26,1.9,0.39,2.8,0.39
			c0.76,0,1.32-0.1,1.66-0.31s0.51-0.53,0.51-0.96c0-0.48-0.23-0.86-0.68-1.15c-0.46-0.29-1.24-0.65-2.36-1.08
			c-2.09-0.81-3.73-1.72-4.93-2.74c-1.2-1.02-1.8-2.38-1.8-4.08c0-2.15,0.75-3.77,2.25-4.85c1.5-1.08,3.52-1.63,6.06-1.63
			c1.78,0,3.29,0.16,4.54,0.46c1.25,0.31,2.34,0.8,3.27,1.46c0.41,0.29,0.62,0.57,0.62,0.84c0,0.19-0.07,0.38-0.22,0.59l-1.8,2.82
			c-0.19,0.29-0.37,0.43-0.56,0.43c-0.12,0-0.32-0.08-0.59-0.25c-0.5-0.33-1.08-0.6-1.77-0.82s-1.42-0.33-2.2-0.33
			c-0.72,0-1.27,0.1-1.64,0.31c-0.37,0.21-0.56,0.54-0.56,0.99c0,0.37,0.13,0.68,0.39,0.93c0.26,0.25,0.58,0.46,0.98,0.64
			c0.39,0.18,1.07,0.46,2.05,0.85c1.55,0.62,2.77,1.21,3.66,1.78c0.89,0.57,1.56,1.25,2.01,2.05s0.68,1.8,0.68,3.02
			c0,1.86-0.7,3.36-2.09,4.51c-1.39,1.15-3.48,1.72-6.25,1.72C160.71,443.82,158.96,443.62,157.35,443.23z"/>
		<path d="M181.16,442.7c0-0.19,0.05-0.41,0.16-0.68l7.72-18.57c0.19-0.43,0.4-0.74,0.64-0.91c0.24-0.18,0.57-0.26,1.01-0.26h3.38
			c0.43,0,0.77,0.09,1.01,0.26c0.24,0.18,0.45,0.48,0.63,0.91l7.69,18.57c0.1,0.27,0.16,0.5,0.16,0.68c0,0.43-0.23,0.65-0.68,0.65
			h-5.83c-0.64,0-1.04-0.28-1.21-0.84l-0.74-2.29h-5.49l-0.71,2.29c-0.17,0.56-0.57,0.84-1.21,0.84h-5.83
			C181.38,443.35,181.16,443.14,181.16,442.7z M193.56,435.32l-1.21-3.84l-1.21,3.84H193.56z"/>
		<path d="M207.6,441.04c-2.09-1.85-3.13-4.59-3.13-8.23c0-3.62,1.04-6.35,3.13-8.21c2.09-1.86,5-2.79,8.74-2.79
			c1.69,0,3.21,0.17,4.56,0.5c1.34,0.33,2.46,0.8,3.35,1.39c0.25,0.19,0.37,0.39,0.37,0.62c0,0.19-0.09,0.45-0.28,0.78l-1.55,2.67
			c-0.17,0.29-0.36,0.43-0.59,0.43c-0.14,0-0.38-0.08-0.71-0.25c-1.24-0.62-2.6-0.93-4.09-0.93c-1.72,0-3.06,0.49-4.05,1.47
			s-1.47,2.42-1.47,4.32c0,1.96,0.41,3.42,1.24,4.36s2.06,1.41,3.69,1.41c0.29,0,0.61-0.03,0.98-0.08c0.36-0.05,0.66-0.11,0.88-0.17
			v-2.82h-1.98c-0.66,0-1.11-0.13-1.35-0.39c-0.24-0.26-0.36-0.7-0.36-1.32v-1.71c0-0.62,0.12-1.06,0.36-1.32
			c0.24-0.26,0.69-0.39,1.35-0.39h6.67c0.81,0,1.36,0.18,1.67,0.54s0.46,0.93,0.46,1.72v7.25c0,0.46-0.06,0.8-0.17,1.04
			c-0.11,0.24-0.34,0.48-0.67,0.73c-1.98,1.43-4.74,2.14-8.28,2.14C212.61,443.82,209.69,442.89,207.6,441.04z"/>
		<path d="M227.46,442.92c-0.28-0.29-0.42-0.73-0.42-1.33v-17.55c0-0.6,0.14-1.04,0.42-1.33c0.28-0.29,0.76-0.43,1.44-0.43h12.83
			c0.66,0,1.11,0.14,1.35,0.42c0.24,0.28,0.36,0.73,0.36,1.35v1.74c0,0.62-0.12,1.07-0.36,1.35c-0.24,0.28-0.69,0.42-1.35,0.42
			h-7.25v2.67h4.46c0.66,0,1.11,0.14,1.35,0.42c0.24,0.28,0.36,0.73,0.36,1.35v1.67c0,0.62-0.12,1.07-0.36,1.35
			c-0.24,0.28-0.69,0.42-1.35,0.42h-4.46v2.67h7.22c0.66,0,1.11,0.14,1.35,0.42s0.36,0.73,0.36,1.35v1.74
			c0,0.62-0.12,1.07-0.36,1.35c-0.24,0.28-0.69,0.42-1.35,0.42h-12.8C228.21,443.35,227.73,443.21,227.46,442.92z"/>
		<path d="M245.25,442.92c-0.28-0.29-0.42-0.73-0.42-1.33v-17.58c0-0.6,0.14-1.04,0.42-1.32c0.28-0.28,0.77-0.42,1.47-0.42h2.95
			c0.43,0,0.77,0.06,1.01,0.17c0.24,0.11,0.47,0.34,0.7,0.67l5.61,8.34v-7.41c0-0.6,0.14-1.04,0.42-1.33
			c0.28-0.29,0.76-0.43,1.44-0.43h3.69c0.7,0,1.19,0.14,1.47,0.42c0.28,0.28,0.42,0.73,0.42,1.35v17.58c0,0.6-0.14,1.04-0.42,1.32
			c-0.28,0.28-0.77,0.42-1.47,0.42h-2.95c-0.43,0-0.77-0.06-1.01-0.17c-0.24-0.11-0.47-0.33-0.7-0.67l-5.61-8.34v7.44
			c0,0.6-0.14,1.04-0.42,1.32c-0.28,0.28-0.77,0.42-1.47,0.42h-3.69C246.01,443.35,245.53,443.21,245.25,442.92z"/>
		<path d="M271.94,442.92c-0.28-0.29-0.42-0.73-0.42-1.33v-14.04h-4.46c-0.66,0-1.11-0.14-1.35-0.42c-0.24-0.28-0.36-0.73-0.36-1.35
			v-1.74c0-0.62,0.12-1.07,0.36-1.35c0.24-0.28,0.69-0.42,1.35-0.42h16.37c0.66,0,1.11,0.14,1.35,0.42
			c0.24,0.28,0.36,0.73,0.36,1.35v1.74c0,0.62-0.12,1.07-0.36,1.35c-0.24,0.28-0.69,0.42-1.35,0.42h-4.46v14.04
			c0,0.6-0.14,1.04-0.42,1.33c-0.28,0.29-0.77,0.43-1.47,0.43h-3.69C272.7,443.35,272.22,443.21,271.94,442.92z"/>
		<path d="M286.48,442.92c-0.28-0.29-0.42-0.73-0.42-1.33v-17.55c0-0.6,0.14-1.04,0.42-1.33c0.28-0.29,0.76-0.43,1.44-0.43h12.83
			c0.66,0,1.11,0.14,1.35,0.42c0.24,0.28,0.36,0.73,0.36,1.35v1.74c0,0.62-0.12,1.07-0.36,1.35c-0.24,0.28-0.69,0.42-1.35,0.42
			h-7.25v2.67h4.46c0.66,0,1.11,0.14,1.35,0.42c0.24,0.28,0.36,0.73,0.36,1.35v1.67c0,0.62-0.12,1.07-0.36,1.35
			c-0.24,0.28-0.69,0.42-1.35,0.42h-4.46v2.67h7.22c0.66,0,1.11,0.14,1.35,0.42s0.36,0.73,0.36,1.35v1.74
			c0,0.62-0.12,1.07-0.36,1.35c-0.24,0.28-0.69,0.42-1.35,0.42h-12.8C287.24,443.35,286.76,443.21,286.48,442.92z"/>
		<path d="M307.79,443.23c-1.61-0.39-2.91-0.94-3.91-1.64c-0.41-0.29-0.62-0.57-0.62-0.84c0-0.19,0.07-0.38,0.22-0.59l1.8-2.82
			c0.19-0.27,0.37-0.4,0.56-0.4c0.17,0,0.36,0.07,0.59,0.22c0.74,0.46,1.6,0.81,2.56,1.07c0.96,0.26,1.9,0.39,2.81,0.39
			c0.76,0,1.32-0.1,1.66-0.31c0.34-0.21,0.51-0.53,0.51-0.96c0-0.48-0.23-0.86-0.68-1.15c-0.46-0.29-1.24-0.65-2.36-1.08
			c-2.09-0.81-3.73-1.72-4.93-2.74c-1.2-1.02-1.8-2.38-1.8-4.08c0-2.15,0.75-3.77,2.25-4.85c1.5-1.08,3.52-1.63,6.06-1.63
			c1.78,0,3.29,0.16,4.54,0.46c1.25,0.31,2.34,0.8,3.27,1.46c0.41,0.29,0.62,0.57,0.62,0.84c0,0.19-0.07,0.38-0.22,0.59l-1.8,2.82
			c-0.19,0.29-0.37,0.43-0.56,0.43c-0.12,0-0.32-0.08-0.59-0.25c-0.5-0.33-1.08-0.6-1.77-0.82c-0.68-0.22-1.42-0.33-2.2-0.33
			c-0.72,0-1.27,0.1-1.64,0.31c-0.37,0.21-0.56,0.54-0.56,0.99c0,0.37,0.13,0.68,0.39,0.93c0.26,0.25,0.58,0.46,0.98,0.64
			c0.39,0.18,1.07,0.46,2.05,0.85c1.55,0.62,2.77,1.21,3.66,1.78c0.89,0.57,1.56,1.25,2.01,2.05c0.46,0.8,0.68,1.8,0.68,3.02
			c0,1.86-0.7,3.36-2.09,4.51c-1.39,1.15-3.48,1.72-6.25,1.72C311.15,443.82,309.4,443.62,307.79,443.23z"/>
		<path d="M109.87,478.24c-2.09-1.85-3.13-4.59-3.13-8.23c0-3.66,1.01-6.41,3.02-8.25c2.01-1.84,4.89-2.76,8.63-2.76
			c1.7,0,3.2,0.17,4.53,0.5c1.32,0.33,2.43,0.8,3.32,1.39c0.25,0.19,0.37,0.39,0.37,0.62c0,0.19-0.09,0.45-0.28,0.78l-1.55,2.67
			c-0.17,0.29-0.36,0.43-0.59,0.43c-0.14,0-0.38-0.08-0.71-0.25c-0.58-0.29-1.18-0.52-1.81-0.68c-0.63-0.17-1.37-0.25-2.22-0.25
			c-1.72,0-3.03,0.5-3.94,1.49c-0.91,0.99-1.36,2.43-1.36,4.31c0,1.86,0.5,3.29,1.49,4.29c0.99,1,2.35,1.5,4.06,1.5
			c1.49,0,2.85-0.31,4.09-0.93c0.33-0.17,0.57-0.25,0.71-0.25c0.23,0,0.42,0.14,0.59,0.43l1.55,2.67c0.19,0.33,0.28,0.59,0.28,0.78
			c0,0.23-0.12,0.43-0.37,0.62c-0.89,0.6-2,1.06-3.35,1.39c-1.34,0.33-2.86,0.5-4.56,0.5C114.88,481.02,111.96,480.09,109.87,478.24
			z"/>
		<path d="M133.15,480.04c-1.53-0.65-2.72-1.59-3.56-2.82s-1.27-2.69-1.27-4.39v-11.59c0-0.6,0.14-1.04,0.42-1.33
			c0.28-0.29,0.76-0.43,1.44-0.43h3.69c0.7,0,1.19,0.14,1.47,0.42c0.28,0.28,0.42,0.73,0.42,1.35v11.69c0,0.97,0.24,1.69,0.73,2.17
			s1.15,0.71,2,0.71s1.51-0.24,2-0.71c0.49-0.48,0.73-1.2,0.73-2.17v-11.69c0-0.6,0.14-1.04,0.42-1.33
			c0.28-0.29,0.76-0.43,1.44-0.43h3.69c0.7,0,1.19,0.14,1.47,0.42c0.28,0.28,0.42,0.73,0.42,1.35v11.59c0,1.69-0.42,3.16-1.27,4.39
			c-0.85,1.23-2.04,2.17-3.57,2.82c-1.53,0.65-3.31,0.98-5.33,0.98S134.68,480.69,133.15,480.04z"/>
		<path d="M148.03,479.9c0-0.19,0.05-0.41,0.15-0.68l7.72-18.57c0.19-0.43,0.4-0.74,0.64-0.91c0.24-0.18,0.57-0.26,1.01-0.26h3.38
			c0.43,0,0.77,0.09,1.01,0.26s0.45,0.48,0.64,0.91l7.69,18.57c0.1,0.27,0.16,0.5,0.16,0.68c0,0.43-0.23,0.65-0.68,0.65h-5.83
			c-0.64,0-1.04-0.28-1.21-0.84l-0.74-2.29h-5.49l-0.71,2.29c-0.17,0.56-0.57,0.84-1.21,0.84h-5.83
			C148.26,480.55,148.03,480.33,148.03,479.9z M160.43,472.52l-1.21-3.84l-1.21,3.84H160.43z"/>
		<path d="M172.38,480.12c-0.28-0.29-0.42-0.73-0.42-1.33v-17.58c0-0.6,0.14-1.04,0.42-1.32c0.28-0.28,0.77-0.42,1.47-0.42h2.95
			c0.43,0,0.77,0.06,1.01,0.17c0.24,0.11,0.47,0.34,0.7,0.67l5.61,8.34v-7.41c0-0.6,0.14-1.04,0.42-1.33
			c0.28-0.29,0.76-0.43,1.44-0.43h3.69c0.7,0,1.19,0.14,1.47,0.42c0.28,0.28,0.42,0.73,0.42,1.35v17.58c0,0.6-0.14,1.04-0.42,1.32
			c-0.28,0.28-0.77,0.42-1.47,0.42h-2.95c-0.43,0-0.77-0.06-1.01-0.17c-0.24-0.11-0.47-0.33-0.7-0.67l-5.61-8.34v7.44
			c0,0.6-0.14,1.04-0.42,1.32c-0.28,0.28-0.77,0.42-1.47,0.42h-3.69C173.14,480.55,172.66,480.41,172.38,480.12z"/>
		<path d="M194.14,480.12c-0.28-0.29-0.42-0.73-0.42-1.33v-17.55c0-0.6,0.14-1.04,0.42-1.33c0.28-0.29,0.76-0.43,1.44-0.43h7.13
			c7.29,0,10.94,3.51,10.94,10.54c0,3.47-0.94,6.1-2.81,7.87c-1.87,1.78-4.58,2.67-8.14,2.67h-7.13
			C194.9,480.55,194.42,480.41,194.14,480.12z M203,475.28c1.16,0,1.99-0.38,2.5-1.15c0.51-0.76,0.76-2.14,0.76-4.12
			s-0.25-3.36-0.76-4.12c-0.51-0.76-1.34-1.15-2.5-1.15h-1.83v10.54H203z"/>
		<path d="M217.44,478.15c-1.9-1.91-2.85-4.62-2.85-8.14c0-3.51,0.95-6.23,2.85-8.14c1.9-1.91,4.69-2.87,8.37-2.87
			s6.47,0.96,8.37,2.87c1.9,1.91,2.85,4.63,2.85,8.14c0,3.51-0.95,6.23-2.85,8.14c-1.9,1.91-4.69,2.87-8.37,2.87
			S219.34,480.06,217.44,478.15z M228.73,474.37c0.6-0.96,0.9-2.41,0.9-4.36c0-1.96-0.3-3.42-0.9-4.37
			c-0.6-0.95-1.57-1.43-2.91-1.43c-1.34,0-2.32,0.48-2.91,1.43c-0.6,0.95-0.9,2.41-0.9,4.37c0,1.94,0.3,3.39,0.9,4.36
			c0.6,0.96,1.57,1.44,2.91,1.44C227.15,475.81,228.13,475.33,228.73,474.37z"/>
		<path d="M247.26,479.9c0-0.19,0.05-0.41,0.16-0.68l7.72-18.57c0.19-0.43,0.4-0.74,0.64-0.91s0.57-0.26,1.01-0.26h3.38
			c0.43,0,0.77,0.09,1.01,0.26c0.24,0.18,0.45,0.48,0.64,0.91l7.69,18.57c0.1,0.27,0.15,0.5,0.15,0.68c0,0.43-0.23,0.65-0.68,0.65
			h-5.83c-0.64,0-1.04-0.28-1.21-0.84l-0.74-2.29h-5.49l-0.71,2.29c-0.17,0.56-0.57,0.84-1.21,0.84h-5.83
			C247.49,480.55,247.26,480.33,247.26,479.9z M259.66,472.52l-1.21-3.84l-1.21,3.84H259.66z"/>
		<path d="M273.74,480.43c-1.61-0.39-2.91-0.94-3.91-1.64c-0.41-0.29-0.62-0.57-0.62-0.84c0-0.19,0.07-0.38,0.22-0.59l1.8-2.82
			c0.19-0.27,0.37-0.4,0.56-0.4c0.17,0,0.36,0.07,0.59,0.22c0.74,0.46,1.6,0.81,2.56,1.07c0.96,0.26,1.9,0.39,2.81,0.39
			c0.76,0,1.32-0.1,1.66-0.31c0.34-0.21,0.51-0.53,0.51-0.96c0-0.48-0.23-0.86-0.68-1.15c-0.46-0.29-1.24-0.65-2.36-1.08
			c-2.09-0.81-3.73-1.72-4.93-2.74c-1.2-1.02-1.8-2.38-1.8-4.08c0-2.15,0.75-3.77,2.25-4.85c1.5-1.08,3.52-1.63,6.06-1.63
			c1.78,0,3.29,0.16,4.54,0.46c1.25,0.31,2.34,0.8,3.27,1.46c0.41,0.29,0.62,0.57,0.62,0.84c0,0.19-0.07,0.38-0.22,0.59l-1.8,2.82
			c-0.19,0.29-0.37,0.43-0.56,0.43c-0.12,0-0.32-0.08-0.59-0.25c-0.5-0.33-1.08-0.6-1.77-0.82c-0.68-0.22-1.42-0.33-2.2-0.33
			c-0.72,0-1.27,0.1-1.64,0.31c-0.37,0.21-0.56,0.54-0.56,0.99c0,0.37,0.13,0.68,0.39,0.93c0.26,0.25,0.58,0.46,0.98,0.64
			c0.39,0.18,1.07,0.46,2.05,0.85c1.55,0.62,2.77,1.21,3.66,1.78c0.89,0.57,1.56,1.25,2.01,2.05c0.46,0.8,0.68,1.8,0.68,3.02
			c0,1.86-0.7,3.36-2.09,4.51c-1.39,1.15-3.48,1.72-6.25,1.72C277.1,481.02,275.35,480.82,273.74,480.43z"/>
		<path d="M289.28,480.12c-0.28-0.29-0.42-0.73-0.42-1.33v-17.55c0-0.6,0.14-1.04,0.42-1.33c0.28-0.29,0.76-0.43,1.44-0.43h3.69
			c0.7,0,1.19,0.14,1.47,0.42c0.28,0.28,0.42,0.73,0.42,1.35v17.55c0,0.6-0.14,1.04-0.42,1.33c-0.28,0.29-0.77,0.43-1.47,0.43h-3.69
			C290.04,480.55,289.56,480.41,289.28,480.12z"/>
		<path d="M108.26,517.63c-1.61-0.39-2.91-0.94-3.91-1.64c-0.41-0.29-0.62-0.57-0.62-0.84c0-0.19,0.07-0.38,0.22-0.59l1.8-2.82
			c0.19-0.27,0.37-0.4,0.56-0.4c0.17,0,0.36,0.07,0.59,0.22c0.74,0.46,1.6,0.81,2.56,1.07c0.96,0.26,1.9,0.39,2.81,0.39
			c0.76,0,1.32-0.1,1.66-0.31c0.34-0.21,0.51-0.53,0.51-0.96c0-0.48-0.23-0.86-0.68-1.15c-0.46-0.29-1.24-0.65-2.36-1.08
			c-2.09-0.81-3.73-1.72-4.93-2.74c-1.2-1.02-1.8-2.38-1.8-4.08c0-2.15,0.75-3.77,2.25-4.85c1.5-1.08,3.52-1.63,6.06-1.63
			c1.78,0,3.29,0.16,4.54,0.46c1.25,0.31,2.34,0.8,3.27,1.46c0.41,0.29,0.62,0.57,0.62,0.84c0,0.19-0.07,0.38-0.22,0.59l-1.8,2.82
			c-0.19,0.29-0.37,0.43-0.56,0.43c-0.12,0-0.32-0.08-0.59-0.25c-0.5-0.33-1.08-0.6-1.77-0.82c-0.68-0.22-1.42-0.33-2.2-0.33
			c-0.72,0-1.27,0.1-1.64,0.31c-0.37,0.21-0.56,0.54-0.56,0.99c0,0.37,0.13,0.68,0.39,0.93c0.26,0.25,0.58,0.46,0.98,0.64
			c0.39,0.18,1.07,0.46,2.05,0.85c1.55,0.62,2.77,1.21,3.66,1.78c0.89,0.57,1.56,1.25,2.01,2.05c0.46,0.8,0.68,1.8,0.68,3.02
			c0,1.86-0.7,3.36-2.09,4.51c-1.39,1.15-3.48,1.72-6.25,1.72C111.62,518.22,109.87,518.02,108.26,517.63z"/>
		<path d="M123.81,517.32c-0.28-0.29-0.42-0.73-0.42-1.33v-17.55c0-0.6,0.14-1.04,0.42-1.33c0.28-0.29,0.76-0.43,1.44-0.43h12.83
			c0.66,0,1.11,0.14,1.35,0.42c0.24,0.28,0.36,0.73,0.36,1.35v1.74c0,0.62-0.12,1.07-0.36,1.35c-0.24,0.28-0.69,0.42-1.35,0.42
			h-7.25v2.67h4.46c0.66,0,1.11,0.14,1.35,0.42c0.24,0.28,0.36,0.73,0.36,1.35v1.67c0,0.62-0.12,1.07-0.36,1.35
			c-0.24,0.28-0.69,0.42-1.35,0.42h-4.46v2.67h7.22c0.66,0,1.11,0.14,1.35,0.42c0.24,0.28,0.36,0.73,0.36,1.35v1.74
			c0,0.62-0.12,1.07-0.36,1.35c-0.24,0.28-0.69,0.42-1.35,0.42h-12.8C124.57,517.75,124.09,517.61,123.81,517.32z"/>
		<path d="M150.9,517.32c-0.28-0.29-0.42-0.73-0.42-1.33v-17.55c0-0.6,0.14-1.04,0.42-1.33c0.28-0.29,0.76-0.43,1.44-0.43h7.41
			c3.1,0,5.36,0.62,6.77,1.84s2.12,3.08,2.12,5.56c0,1.49-0.25,2.74-0.76,3.77c-0.51,1.02-1.29,1.82-2.34,2.4l2.88,6.17
			c0.08,0.17,0.12,0.35,0.12,0.56c0,0.23-0.08,0.41-0.23,0.56c-0.15,0.14-0.36,0.22-0.6,0.22h-5.24c-0.33,0-0.59-0.05-0.79-0.14
			s-0.34-0.25-0.42-0.48l-2.29-5.77h-1.05v4.62c0,0.6-0.14,1.04-0.42,1.33c-0.28,0.29-0.77,0.43-1.47,0.43h-3.69
			C151.66,517.75,151.18,517.61,150.9,517.32z M159.1,506.19c0.66,0,1.18-0.17,1.57-0.53c0.38-0.35,0.57-0.88,0.57-1.58
			c0-0.72-0.19-1.26-0.57-1.61c-0.38-0.35-0.9-0.53-1.57-0.53h-2.11v4.25H159.1z"/>
		<path d="M170.62,517.32c-0.28-0.29-0.42-0.73-0.42-1.33v-17.55c0-0.6,0.14-1.04,0.42-1.33c0.28-0.29,0.76-0.43,1.44-0.43h12.83
			c0.66,0,1.11,0.14,1.35,0.42c0.24,0.28,0.36,0.73,0.36,1.35v1.74c0,0.62-0.12,1.07-0.36,1.35c-0.24,0.28-0.69,0.42-1.35,0.42
			h-7.25v2.67h4.46c0.66,0,1.11,0.14,1.35,0.42c0.24,0.28,0.36,0.73,0.36,1.35v1.67c0,0.62-0.12,1.07-0.36,1.35
			c-0.24,0.28-0.69,0.42-1.35,0.42h-4.46v2.67h7.22c0.66,0,1.11,0.14,1.35,0.42c0.24,0.28,0.36,0.73,0.36,1.35v1.74
			c0,0.62-0.12,1.07-0.36,1.35c-0.24,0.28-0.69,0.42-1.35,0.42h-12.8C171.38,517.75,170.89,517.61,170.62,517.32z"/>
		<path d="M197.06,521.86c-1.31-1-2.12-2.3-2.43-3.89c-2.75-0.45-4.83-1.61-6.23-3.46c-1.41-1.85-2.11-4.28-2.11-7.3
			c0-3.51,0.95-6.23,2.85-8.14c1.9-1.91,4.69-2.87,8.37-2.87c3.68,0,6.47,0.96,8.37,2.87c1.9,1.91,2.85,4.63,2.85,8.14
			c0,3.08-0.75,5.52-2.25,7.32c-1.5,1.8-3.74,2.91-6.71,3.35c0.17,0.33,0.46,0.58,0.9,0.74c0.43,0.17,0.89,0.25,1.36,0.25
			c0.95,0,1.75-0.22,2.39-0.65c0.19-0.12,0.33-0.19,0.43-0.19c0.17,0,0.29,0.09,0.37,0.28l1.67,2.64c0.1,0.17,0.16,0.29,0.16,0.37
			c0,0.08-0.04,0.17-0.11,0.25c-0.07,0.08-0.16,0.17-0.26,0.28c-0.6,0.5-1.27,0.87-2,1.13c-0.73,0.26-1.62,0.39-2.65,0.39
			C200.03,523.36,198.37,522.86,197.06,521.86z M200.42,511.57c0.6-0.96,0.9-2.41,0.9-4.36c0-1.96-0.3-3.42-0.9-4.37
			c-0.6-0.95-1.57-1.43-2.91-1.43s-2.31,0.48-2.91,1.43c-0.6,0.95-0.9,2.41-0.9,4.37c0,1.94,0.3,3.39,0.9,4.36s1.57,1.44,2.91,1.44
			S199.82,512.53,200.42,511.57z"/>
		<path d="M214.96,517.24c-1.53-0.65-2.72-1.59-3.56-2.82s-1.27-2.69-1.27-4.39v-11.59c0-0.6,0.14-1.04,0.42-1.33
			c0.28-0.29,0.76-0.43,1.44-0.43h3.69c0.7,0,1.19,0.14,1.47,0.42c0.28,0.28,0.42,0.73,0.42,1.35v11.69c0,0.97,0.24,1.69,0.73,2.17
			s1.15,0.71,2,0.71s1.51-0.24,2-0.71c0.49-0.48,0.73-1.2,0.73-2.17v-11.69c0-0.6,0.14-1.04,0.42-1.33
			c0.28-0.29,0.76-0.43,1.44-0.43h3.69c0.7,0,1.19,0.14,1.47,0.42c0.28,0.28,0.42,0.73,0.42,1.35v11.59c0,1.69-0.42,3.16-1.27,4.39
			c-0.85,1.23-2.04,2.17-3.57,2.82c-1.53,0.65-3.31,0.98-5.33,0.98S216.49,517.89,214.96,517.24z"/>
		<path d="M232.89,517.32c-0.28-0.29-0.42-0.73-0.42-1.33v-17.55c0-0.6,0.14-1.04,0.42-1.33c0.28-0.29,0.76-0.43,1.44-0.43h3.69
			c0.7,0,1.19,0.14,1.47,0.42c0.28,0.28,0.42,0.73,0.42,1.35v17.55c0,0.6-0.14,1.04-0.42,1.33c-0.28,0.29-0.77,0.43-1.47,0.43h-3.69
			C233.65,517.75,233.17,517.61,232.89,517.32z"/>
		<path d="M242.5,517.32c-0.28-0.29-0.42-0.73-0.42-1.33v-17.55c0-0.6,0.14-1.04,0.42-1.33c0.28-0.29,0.76-0.43,1.44-0.43h12.83
			c0.66,0,1.11,0.14,1.35,0.42c0.24,0.28,0.36,0.73,0.36,1.35v1.74c0,0.62-0.12,1.07-0.36,1.35c-0.24,0.28-0.69,0.42-1.35,0.42
			h-7.25v2.67h4.46c0.66,0,1.11,0.14,1.35,0.42c0.24,0.28,0.36,0.73,0.36,1.35v1.67c0,0.62-0.12,1.07-0.36,1.35
			c-0.24,0.28-0.69,0.42-1.35,0.42h-4.46v2.67h7.22c0.66,0,1.11,0.14,1.35,0.42c0.24,0.28,0.36,0.73,0.36,1.35v1.74
			c0,0.62-0.12,1.07-0.36,1.35c-0.24,0.28-0.69,0.42-1.35,0.42h-12.8C243.26,517.75,242.78,517.61,242.5,517.32z"/>
		<path d="M260.3,517.32c-0.28-0.29-0.42-0.73-0.42-1.33v-17.55c0-0.6,0.14-1.04,0.42-1.33c0.28-0.29,0.76-0.43,1.44-0.43h7.41
			c3.1,0,5.36,0.62,6.77,1.84s2.12,3.08,2.12,5.56c0,1.49-0.25,2.74-0.76,3.77c-0.51,1.02-1.29,1.82-2.34,2.4l2.88,6.17
			c0.08,0.17,0.13,0.35,0.13,0.56c0,0.23-0.08,0.41-0.23,0.56s-0.36,0.22-0.6,0.22h-5.24c-0.33,0-0.59-0.05-0.79-0.14
			c-0.2-0.09-0.34-0.25-0.42-0.48l-2.29-5.77h-1.05v4.62c0,0.6-0.14,1.04-0.42,1.33c-0.28,0.29-0.77,0.43-1.47,0.43h-3.69
			C261.06,517.75,260.58,517.61,260.3,517.32z M268.5,506.19c0.66,0,1.18-0.17,1.56-0.53s0.57-0.88,0.57-1.58
			c0-0.72-0.19-1.26-0.57-1.61c-0.38-0.35-0.9-0.53-1.56-0.53h-2.11v4.25H268.5z"/>
		<path d="M277.58,517.1c0-0.19,0.05-0.41,0.16-0.68l7.72-18.57c0.19-0.43,0.4-0.74,0.64-0.91c0.24-0.18,0.57-0.26,1.01-0.26h3.38
			c0.43,0,0.77,0.09,1.01,0.26c0.24,0.18,0.45,0.48,0.63,0.91l7.69,18.57c0.1,0.27,0.16,0.5,0.16,0.68c0,0.43-0.23,0.65-0.68,0.65
			h-5.83c-0.64,0-1.04-0.28-1.21-0.84l-0.74-2.29h-5.49l-0.71,2.29c-0.17,0.56-0.57,0.84-1.21,0.84h-5.83
			C277.81,517.75,277.58,517.54,277.58,517.1z M289.98,509.72l-1.21-3.84l-1.21,3.84H289.98z"/>
	</g>
	<polygon class="st1" points="200.76,96.93 214.23,124.22 244.34,128.59 222.55,149.83 227.7,179.83 200.76,165.67 173.83,179.83 
		178.97,149.83 157.18,128.59 187.29,124.22 	"/>
	<polygon class="st1" points="138.58,180.15 147.32,197.86 166.86,200.7 152.72,214.48 156.06,233.94 138.58,224.75 121.11,233.94 
		124.45,214.48 110.31,200.7 129.85,197.86 	"/>
	<polygon class="st1" points="268.68,180.15 277.42,197.86 296.95,200.7 282.82,214.48 286.15,233.94 268.68,224.75 251.2,233.94 
		254.54,214.48 240.4,200.7 259.94,197.86 	"/>
	<circle class="st2" cx="201.77" cy="213.97" r="121.96"/>
	<circle class="st3" cx="200.82" cy="200.58" r="121.96"/>
	<g>
		<path class="st3" d="M184.17,644.07c-3.43-0.78-6.17-1.87-8.21-3.29c-0.58-0.44-0.88-0.92-0.88-1.46c0-0.44,0.22-1.05,0.66-1.82
			l3.65-6.28c0.39-0.68,0.85-1.02,1.39-1.02c0.34,0,0.9,0.2,1.68,0.58c1.27,0.63,2.81,1.16,4.64,1.57c1.82,0.41,3.64,0.62,5.44,0.62
			c2.43,0,4.25-0.37,5.44-1.09c1.19-0.73,1.79-1.85,1.79-3.36c0-2.34-1.58-3.5-4.75-3.5h-5.62c-1.61,0-2.74-0.34-3.39-1.02
			c-0.66-0.68-0.99-1.73-0.99-3.14v-3.94c0-1.41,0.33-2.46,0.99-3.14c0.66-0.68,1.79-1.02,3.39-1.02h4.45c1.61,0,2.77-0.29,3.5-0.88
			s1.1-1.48,1.1-2.7c0-2.34-2.02-3.5-6.06-3.5c-3.26,0-6.35,0.73-9.27,2.19c-0.78,0.39-1.34,0.58-1.68,0.58
			c-0.54,0-1-0.34-1.39-1.02l-3.65-6.28c-0.44-0.78-0.66-1.39-0.66-1.83c0-0.54,0.29-1.02,0.88-1.46c2.09-1.41,4.7-2.51,7.81-3.29
			c3.11-0.78,6.67-1.17,10.66-1.17c4.23,0,7.92,0.62,11.06,1.86c3.14,1.24,5.55,3,7.23,5.29c1.68,2.29,2.52,4.99,2.52,8.1
			c0,4.28-1.49,7.59-4.45,9.93c3.84,2.24,5.77,5.79,5.77,10.66c0,4.92-1.87,8.81-5.62,11.68c-3.75,2.87-9.15,4.31-16.21,4.31
			C191.34,645.24,187.6,644.85,184.17,644.07z"/>
	</g>
	<g>
		<circle id="XMLID_8242_" class="st4" cx="203.76" cy="206.31" r="79.03"/>
		<g id="XMLID_7515_">
			<path id="XMLID_7538_" class="st23" d="M225.75,203.21c1.03-2.51,1.55-4.49,1.66-5.01c-0.1-0.03-0.18-0.08-0.23-0.15
				c-0.16-0.24,0.32-2.8,0.1-2.98c-0.03-0.02-0.05-0.03-0.09-0.04c-0.29,0.91-0.82,1.65-1.44,2.17
				C225.76,199.16,225.76,201.18,225.75,203.21z"/>
			<path id="XMLID_7537_" class="st41" d="M222.19,198.2c-1.17-0.84-1.13,11.01-5.98,15.69c-0.35,0.34-0.7,0.67-1.07,0.98
				c-0.37,0.32-0.76,0.62-1.14,0.92c0,0.16,0,0.33,0.01,0.5c4.48-1.31,7.63-5.28,9.6-8.69c0.88-1.53,1.59-3.04,2.15-4.41
				c0.01-2.03,0.02-4.05,0.01-6.01c-0.37,0.32-0.77,0.55-1.16,0.69C223.92,198.58,223.11,198.82,222.19,198.2z"/>
			<path id="XMLID_7536_" class="st41" d="M184.47,229.73c-0.13,0.06-0.5,0.28-0.85,0.84C183.86,230.34,184.14,230.06,184.47,229.73
				z"/>
			<path id="XMLID_7535_" class="st41" d="M214.03,216.93c0.11,2.6,0.64,6.03,2.76,9.14c0.7-0.62,1.09-0.76,1.34-0.33
				c1.57,2.66,3.22,4.07,4.12,4.98c-0.46-0.8-0.98-1.01-0.98-1.01s1.12-0.44,3.07,1.22c0.45,0.38,1.25,0.92,2.11,1.64
				c-1.02-5.06-0.81-16.53-0.72-27.82c-0.46,1.02-1,2.09-1.61,3.16C221.32,212.79,217.87,215.86,214.03,216.93z"/>
			<path id="XMLID_7534_" class="st41" d="M184.49,229.71c0.89-0.9,2.01-2.13,3.09-3.97c0.26-0.44,0.66-0.29,1.38,0.36
				c2.47-3.59,2.8-7.61,2.82-10.3c-0.77-0.6-1.51-1.23-2.21-1.91c-4.85-4.69-4.81-16.53-5.98-15.69c-0.91,0.61-1.7,0.39-2.37-0.29
				c-0.24-0.07-0.48-0.19-0.72-0.33c-0.04,12.93,0.51,28.1-0.61,34.53c0.64-0.5,1.2-0.89,1.56-1.19
				C183.29,229.36,184.39,229.67,184.49,229.71z"/>
			<path id="XMLID_7533_" class="st42" d="M213.01,216.54c0.34-0.07,0.67-0.15,0.99-0.24c0-0.17-0.01-0.34-0.01-0.5
				C213.67,216.06,213.35,216.31,213.01,216.54z"/>
			<path id="XMLID_7532_" class="st42" d="M202.72,238.53c0.08,0.06,0.11,0.14,0.14,0.22c0.02-0.08,0.06-0.16,0.14-0.22
				c8.47-6.49,12.08-10.94,13.79-12.46c-2.12-3.11-2.65-6.54-2.76-9.14c-0.7,0.2-1.42,0.32-2.14,0.38c-0.21,0.9-1.13,2.55-4.24,2.51
				c-0.65-0.01-1.19-0.09-1.64-0.21c-0.47,0.09-0.94,0.17-1.42,0.22c-1.44,0.15-2.92,0.1-4.35-0.13c-1.17-0.19-2.33-0.5-3.44-0.94
				c-1.24-0.49-2.42-1.13-3.53-1.87c-0.51-0.34-0.99-0.72-1.47-1.1c-0.02,2.69-0.35,6.7-2.82,10.3
				C190.7,227.65,194.32,232.09,202.72,238.53z"/>
			<path id="XMLID_7531_" class="st42" d="M202.86,238.95c0,0.02,0,0.03-0.01,0.05h0.02C202.87,238.98,202.86,238.97,202.86,238.95z
				"/>
			<path id="XMLID_7530_" class="st43" d="M196.8,218.77c1.11,0.43,2.26,0.75,3.44,0.94c1.43,0.23,2.91,0.27,4.35,0.13
				c0.48-0.05,0.95-0.13,1.42-0.22c-2.08-0.59-2.22-2.22-2.27-2.77c0.08-0.67,0.32-2.94,3.97-2.91c3.32,0.03,4.11,1.92,4.22,2.76
				c0.37-0.03,0.74-0.08,1.09-0.15c0.34-0.24,0.66-0.49,0.98-0.74c0.38-0.3,0.77-0.6,1.14-0.92c0.36-0.32,0.72-0.65,1.07-0.98
				c4.85-4.69,4.81-16.53,5.98-15.69c0.92,0.62,1.73,0.38,2.4-0.32c-0.57,0.2-1.11,0.22-1.51-0.03c-0.66-0.41,0.03-3.72,0.5-8.8
				c-0.07,0.02-0.14,0.05-0.21,0.09c-0.92,0.59-2.07-7.3-6.51-10.98c-4.44-3.68-4.79-6.18-4.79-6.18c-4.44,0.5-8.78,2.11-16.09,7.93
				c-5.79,4.61-10.95,9.2-13.29,9.82c-0.21,0.06-0.36-0.17-0.53-0.49c0.47,4.97,1.13,8.2,0.48,8.61c-0.38,0.24-0.89,0.23-1.42,0.06
				c0.67,0.67,1.47,0.9,2.37,0.29c1.17-0.84,1.13,11.01,5.98,15.69c0.7,0.68,1.44,1.31,2.21,1.91c0.48,0.38,0.96,0.76,1.47,1.1
				C194.38,217.64,195.56,218.28,196.8,218.77z"/>
			<path id="XMLID_7529_" class="st41" d="M180.32,180.42c0.22-4.34,4.2-20.07,22.54-20.07c18.34,0,22.32,15.73,22.54,20.07
				c0.14,2.81-0.14,4.43,0.09,5.41c0.09-0.95,0.14-2.17,0.14-3.79c0-8.29-3.37-16.82-8.79-18.25c-2.61-0.68-2.94-3.22-8.74-4.95
				c-9.27-2.78-19.73,1.07-25.07,9.98c-3.74,6.23-3.93,14.96-3.54,17.99C180.8,186.11,180.12,184.53,180.32,180.42z"/>
			<path id="XMLID_7528_" class="st41" d="M182.69,189.74c2.33-0.62,7.5-5.21,13.29-9.82c7.31-5.82,11.65-7.42,16.09-7.93
				c0,0,0.36,2.49,4.79,6.18c4.44,3.68,5.58,11.57,6.51,10.98c0.07-0.04,0.14-0.07,0.21-0.09c0.05-0.52,0.1-1.06,0.14-1.61
				c0.46-5.98,0.4-7.94-0.19-10.11c-4.53-16.71-20.67-15.52-20.67-15.52s-15.58-1.46-20.59,15.26c-0.66,2.22-0.72,4.39-0.27,10.37
				c0.05,0.63,0.1,1.22,0.16,1.8C182.33,189.56,182.48,189.79,182.69,189.74z"/>
			<path id="XMLID_7527_" class="st96" d="M182.64,197.85c0.65-0.4-0.01-3.64-0.48-8.61c-0.06-0.58-0.11-1.18-0.16-1.8
				c-0.46-5.98-0.4-8.16,0.27-10.37c5.01-16.72,20.59-15.26,20.59-15.26s16.14-1.19,20.67,15.52c0.59,2.17,0.65,4.13,0.19,10.11
				c-0.04,0.56-0.09,1.09-0.14,1.61c-0.47,5.07-1.16,8.39-0.5,8.8c0.4,0.25,0.95,0.23,1.51,0.03c0.39-0.14,0.79-0.37,1.16-0.69
				c0.62-0.52,1.15-1.27,1.44-2.17c-0.23-0.07-0.57,0.14-0.76-0.26c-0.22-0.45-0.1-2.49,0.08-2.93c0.18-0.44,0.38-0.65,1.08-0.52
				c0.04,0.01,0.07,0.03,0.11,0.04c0.08-2.04-0.17-4.01-1.24-4.42c-0.58-0.22-0.84-0.57-0.96-1.1c-0.23-0.97,0.05-2.6-0.09-5.41
				c-0.22-4.34-4.2-20.07-22.54-20.07c-18.34,0-22.32,15.73-22.54,20.07c-0.21,4.11,0.48,5.69-0.84,6.38
				c-0.07,0.04-0.13,0.09-0.22,0.12c-1.64,0.63-1.37,4.88-0.91,7.5c0.25,1.46,1.17,2.58,2.14,3.16c0.24,0.15,0.48,0.26,0.72,0.33
				C181.75,198.08,182.26,198.09,182.64,197.85z"/>
			<path id="XMLID_7526_" class="st97" d="M226.51,191.83c-0.18,0.44-0.29,2.48-0.08,2.93c0.19,0.4,0.53,0.19,0.76,0.26
				c0.03,0.01,0.06,0.02,0.09,0.04c0.22,0.18-0.26,2.73-0.1,2.98c0.05,0.07,0.13,0.12,0.23,0.15c-0.11,0.52-0.63,2.5-1.66,5.01
				c-0.56,1.36-1.27,2.88-2.15,4.41c-1.96,3.41-5.12,7.38-9.6,8.69c-0.32,0.09-0.65,0.18-0.99,0.24c-0.36,0.07-0.72,0.12-1.09,0.15
				c-0.11-0.85-0.9-2.73-4.22-2.76c-3.65-0.04-3.89,2.24-3.97,2.91c0.05,0.55,0.2,2.19,2.27,2.77c0.45,0.13,0.99,0.21,1.64,0.21
				c3.11,0.03,4.03-1.61,4.24-2.51c0.73-0.06,1.44-0.19,2.14-0.38c3.84-1.07,7.29-4.14,10.1-9.02c0.61-1.06,1.14-2.13,1.61-3.16
				c1.47-3.26,2.21-6.04,2.28-6.57c0.04-0.02,0.09-0.03,0.12-0.05c0.26-0.17,0.44-1.85,0.6-3.77c0.15-1.82-0.42-2.8-1.04-3.01
				c-0.04-0.01-0.07-0.03-0.11-0.04C226.89,191.19,226.69,191.4,226.51,191.83z"/>
			<path id="XMLID_7525_" class="st44" d="M199.65,252.51c-1.33-2.97-2.81-4.66-2.95-7.14c-0.98,1.21-1.66,2.46-1.54,3.64
				c0.37,3.92-11.22-9.51-12.33-15.95c-0.21,1.23-0.21,3.82,3.37,8.88c2.42,3.43,8.09,13.2,12.21,21.97
				c0.82-5.29,1.48-9.35,1.76-10.88C199.95,252.89,199.74,252.73,199.65,252.51z"/>
			<path id="XMLID_7524_" class="st44" d="M210.57,249.01c0.11-1.18-0.56-2.43-1.54-3.64c-0.14,2.48-1.62,4.17-2.95,7.14
				c-0.1,0.22-0.3,0.39-0.52,0.52c0.29,1.59,0.99,5.92,1.86,11.52c4.01-8.93,9.7-19.1,12.18-22.61c3.76-5.33,3.56-7.91,3.33-9.06
				C222,239.26,210.19,252.96,210.57,249.01z"/>
			<path id="XMLID_7523_" class="st44" d="M184.72,245.73c0.01,0.01,0.01,0.02,0.02,0.03l0.03-0.02
				C184.77,245.74,184.75,245.74,184.72,245.73z"/>
			<path id="XMLID_7522_" class="st98" d="M206.07,252.51c1.33-2.97,2.81-4.66,2.95-7.14c-2.18-2.69-5.88-5.19-6.15-6.37h-0.02
				c-0.27,1.18-3.97,3.68-6.15,6.37c0.14,2.48,1.62,4.17,2.95,7.14c0.1,0.22,0.3,0.39,0.52,0.52c-0.28,1.53-0.94,5.59-1.76,10.88
				c2.46,5.22,4.37,10.08,4.72,13.05c0.34-2.84,2.05-7.43,4.28-12.4c-0.87-5.6-1.57-9.93-1.86-11.52
				C205.78,252.89,205.98,252.73,206.07,252.51z"/>
			<path id="XMLID_7521_" class="st57" d="M218.13,225.74c-0.26-0.44-0.65-0.29-1.34,0.33c-1.71,1.52-5.32,5.97-13.79,12.46
				c-0.08,0.06-0.11,0.14-0.14,0.22c-0.02-0.08-0.06-0.16-0.14-0.22c-8.4-6.43-12.03-10.87-13.75-12.43
				c-0.73-0.65-1.12-0.81-1.38-0.36c-1.08,1.83-2.2,3.07-3.09,3.97c0.01,0,0.02,0.01,0.02,0.01s-0.02,0.01-0.05,0.02
				c-0.32,0.32-0.61,0.6-0.85,0.84c-0.26,0.4-0.51,0.98-0.65,1.8c-0.03,0.15-0.09,0.37-0.14,0.67c1.11,6.45,12.7,19.87,12.33,15.95
				c-0.11-1.18,0.56-2.43,1.54-3.64c2.18-2.69,5.88-5.19,6.15-6.37c0-0.02,0.01-0.03,0.01-0.05c0,0.02,0,0.03,0.01,0.05
				c0.27,1.18,3.97,3.68,6.15,6.37c0.98,1.21,1.66,2.46,1.54,3.64c-0.37,3.95,11.43-9.75,12.36-16.13c-0.04-0.21-0.08-0.38-0.1-0.5
				c-0.12-0.74-0.34-1.26-0.57-1.66C221.35,229.82,219.71,228.4,218.13,225.74z"/>
			<path id="XMLID_7520_" class="st97" d="M249.45,242.29c-0.71-0.98-16.36-6.37-21.44-8.24c0.52,0.57,1.01,1.21,1.42,1.94
				c2.24,4.01,2.36,6.47,3.95,7.65c1.58,1.18-12.36,2.1-12.36,2.1l8.78,6.63c0,0-9.84,11.25-16.49,16.1
				c-2.06,1.5-8.57,7.52-10.15,10.12c0.36,1.74,1,4.36,1.14,5.4c0.06,0.46,0.12,0.89,0.17,1.33c12.12-0.14,23.57-3.01,33.79-8.02
				c0.31-6.06-0.73-29.91,10.73-34.98c0.24-0.11,0.51,0.14,0.81,0.67c0,0,0-0.01,0-0.01C249.7,242.73,249.59,242.48,249.45,242.29z"
				/>
			<path id="XMLID_7519_" class="st99" d="M203.16,278.58L203.16,278.58c-1.85-1.62-8.62-8.62-10.68-10.12
				c-6.65-4.85-16.49-16.1-16.49-16.1l8.75-6.6c-0.01-0.01-0.01-0.02-0.02-0.03c-0.9-0.06-13.83-0.95-12.3-2.09
				c1.58-1.18,1.71-3.64,3.95-7.65c0.44-0.79,0.99-1.48,1.55-2.08c-5.31,1.94-20.51,7.19-21.21,8.15
				c12.26,0.64,11.04,27.93,11.27,34.83c10.69,5.39,22.75,8.45,35.54,8.45c0.32,0,0.64-0.02,0.96-0.02
				c-0.06-0.44-0.11-0.88-0.17-1.33C204.16,282.94,203.52,280.33,203.16,278.58z"/>
			<path id="XMLID_7518_" class="st100" d="M176.36,235.99c-2.24,4.01-2.36,6.47-3.95,7.65c-1.53,1.14,11.41,2.03,12.3,2.09
				c0.03,0,0.05,0,0.05,0l-0.03,0.02l-8.75,6.6c0,0,9.84,11.25,16.49,16.1c2.06,1.5,8.82,8.5,10.68,10.12l0,0
				c1.58-2.6,8.09-8.62,10.15-10.12c6.65-4.85,16.49-16.1,16.49-16.1l-8.78-6.63c0,0,13.94-0.92,12.36-2.1
				c-1.58-1.18-1.71-3.64-3.95-7.65c-0.41-0.73-0.9-1.37-1.42-1.94c-0.51-0.56-1.04-1.05-1.55-1.47c-0.87-0.72-1.66-1.26-2.11-1.64
				c-1.95-1.65-3.07-1.22-3.07-1.22s0.52,0.22,0.98,1.01c0.23,0.39,0.44,0.92,0.57,1.66c0.02,0.12,0.06,0.29,0.1,0.5
				c0.23,1.15,0.42,3.73-3.33,9.06c-2.48,3.51-8.17,13.68-12.18,22.61c-2.23,4.97-3.94,9.56-4.28,12.4
				c-0.35-2.96-2.27-7.83-4.72-13.05c-4.13-8.77-9.8-18.54-12.21-21.97c-3.57-5.07-3.57-7.65-3.37-8.88
				c0.05-0.3,0.11-0.52,0.14-0.67c0.14-0.82,0.39-1.4,0.65-1.8c0.36-0.56,0.73-0.78,0.85-0.84c0.03-0.01,0.05-0.02,0.05-0.02
				s-0.01,0-0.02-0.01c-0.1-0.03-1.2-0.35-3.05,1.22c-0.35,0.3-0.92,0.69-1.56,1.19c-0.62,0.48-1.31,1.08-1.98,1.79
				C177.35,234.51,176.8,235.2,176.36,235.99z"/>
			<path id="XMLID_7517_" class="st100" d="M156.71,242.06c-0.71-0.04-3.02,10.68-5.36,23.59c5.02,4.42,10.6,8.2,16.63,11.24
				C167.75,269.99,168.96,242.7,156.71,242.06z"/>
			<path id="XMLID_7516_" class="st100" d="M249,242.32c-11.46,5.07-10.42,28.92-10.73,34.98c6.19-3.03,11.91-6.86,17.05-11.33
				c-1.96-11-4.05-20.43-5.51-22.98C249.51,242.46,249.24,242.21,249,242.32z"/>
		</g>
	</g>
</g>
</svg>
