<?xml version="1.0" encoding="utf-8"?>
<!-- Generator: Adobe Illustrator 23.0.0, SVG Export Plug-In . SVG Version: 6.00 Build 0)  -->
<svg version="1.1" id="Capa_1" xmlns="http://www.w3.org/2000/svg" xmlns:xlink="http://www.w3.org/1999/xlink" x="0px" y="0px"
	 viewBox="0 0 400 702" style="enable-background:new 0 0 400 702;" xml:space="preserve">
<style type="text/css">
	.st0{fill:#0085B0;}
	.st1{fill:#E0EF18;}
	.st2{fill:#CECECE;}
	.st3{fill:#FFFFFF;}
	.st4{fill:#F2F2F2;}
	.st5{fill:#EACCB0;}
	.st6{fill:#9B9B9B;}
	.st7{fill:#939393;}
	.st8{fill:#EFEFEF;}
	.st9{fill:#828282;}
	.st10{fill:#2C2A2D;}
	.st11{fill:#202021;}
	.st12{fill:#F2D4B6;}
	.st13{fill:#534D46;}
	.st14{fill:#E8D313;}
	.st15{fill:#2ACCFF;}
	.st16{fill:#4E4F4F;}
	.st17{fill:#003A94;}
	.st18{fill:#00D13C;}
	.st19{fill:#15682A;}
	.st20{fill:#D40000;}
	.st21{fill:#505050;}
	.st22{fill:#DFDFDF;}
	.st23{fill:none;}
	.st24{fill:#636363;}
	.st25{fill:#6C92D5;}
	.st26{fill:#22272F;}
	.st27{fill:#1B2538;}
	.st28{fill:#253452;}
	.st29{fill:#F9F9F9;}
	.st30{fill:#2D3543;}
	.st31{fill:#2A3D60;}
	.st32{fill:#587955;}
	.st33{fill:#CD7054;}
	.st34{fill:#F1CC4B;}
	.st35{fill:#ACACAC;}
	.st36{fill:#AAE528;}
	.st37{fill:#28CEBA;}
	.st38{fill:#DB143F;}
	.st39{fill:#53C2C9;}
	.st40{fill:#FFB412;}
	.st41{fill:#866A5E;}
	.st42{fill:#F7DDCB;}
	.st43{fill:#FFE6D4;}
	.st44{fill:#F5F5F5;}
	.st45{fill:#1A2830;}
	.st46{fill:#24353F;}
	.st47{fill:#132026;}
	.st48{fill:#F9FF03;}
	.st49{fill:#272728;}
	.st50{fill:#1E1D1E;}
	.st51{fill:#160423;}
	.st52{fill-rule:evenodd;clip-rule:evenodd;fill:#FFFFFF;}
	.st53{fill-rule:evenodd;clip-rule:evenodd;fill:#1996B8;}
	.st54{fill:#0C387D;}
	.st55{fill:#C69A81;}
	.st56{fill:#D1A385;}
	.st57{fill:#EAEAEA;}
	.st58{fill:#093E8C;}
	.st59{fill:#0B2A62;}
	.st60{fill:#D32A3B;}
	.st61{fill:#827C7D;}
	.st62{opacity:0.7;fill:#7F7F7F;}
	.st63{fill:#FDFDFD;}
	.st64{fill:#DAA449;}
	.st65{fill:#DD9225;}
	.st66{opacity:0.3;}
	.st67{fill:#425793;}
	.st68{opacity:0.8;}
	.st69{filter:url(#Adobe_OpacityMaskFilter);}
	.st70{opacity:0.15;mask:url(#SVGID_1_);}
	.st71{fill:#090B00;}
	.st72{opacity:0.1;}
	.st73{fill:#211915;}
	.st74{filter:url(#Adobe_OpacityMaskFilter_1_);}
	.st75{opacity:0.15;mask:url(#SVGID_2_);}
	.st76{fill:#AF3623;}
	.st77{filter:url(#Adobe_OpacityMaskFilter_2_);}
	.st78{opacity:0.15;mask:url(#SVGID_3_);}
	.st79{filter:url(#Adobe_OpacityMaskFilter_3_);}
	.st80{opacity:0.15;mask:url(#SVGID_4_);}
	.st81{fill:#456495;}
	.st82{filter:url(#Adobe_OpacityMaskFilter_4_);}
	.st83{opacity:0.15;mask:url(#SVGID_5_);}
	.st84{filter:url(#Adobe_OpacityMaskFilter_5_);}
	.st85{opacity:0.15;mask:url(#SVGID_6_);}
	.st86{fill:#76A9DA;}
	.st87{filter:url(#Adobe_OpacityMaskFilter_6_);}
	.st88{opacity:0.15;mask:url(#SVGID_7_);}
	.st89{filter:url(#Adobe_OpacityMaskFilter_7_);}
	.st90{opacity:0.15;mask:url(#SVGID_8_);}
	.st91{fill:#1F3642;}
	.st92{fill:#A9BDDA;}
	.st93{opacity:0.46;fill:#A6B4BC;}
	.st94{fill:#74C475;}
	.st95{fill:#221F21;}
	.st96{fill:#2D2D2D;}
	.st97{fill:#1C1B1A;}
	.st98{fill:#77181C;}
	.st99{fill:#262525;}
	.st100{fill:#11100F;}
	.st101{opacity:0.18;}
	.st102{opacity:0.38;}
	.st103{fill:#0A5B1F;}
	.st104{opacity:0.27;}
	.st105{opacity:0.48;}
	.st106{fill:#0A4654;}
	.st107{fill:#C2C6C6;}
	.st108{fill:#E5E5E5;stroke:#FFFFFF;stroke-miterlimit:10;}
	.st109{fill:#ACB4B5;}
	.st110{fill:#7F8384;}
	.st111{fill:#15772F;}
	.st112{fill:#F4F4F4;}
	.st113{fill:#53B8DB;}
	.st114{fill:#06EF42;}
	.st115{fill:#E7ED07;}
	.st116{fill:#CCCCCA;}
	.st117{fill:#EADF13;}
	.st118{fill:#C2C2C2;}
	.st119{fill:#85B681;}
	.st120{fill:#A1DC9B;}
	.st121{fill:#90C58B;}
	.st122{fill:#22241F;}
	.st123{opacity:0.5;}
	.st124{fill:#A2CADE;}
	.st125{fill:#E9E9E9;}
	.st126{fill:#D9D9D9;}
	.st127{fill:#CDCDCD;}
	.st128{opacity:0.34;fill:#F0F0F0;}
	.st129{fill:#5A5B5A;}
	.st130{fill:#FFE600;}
	.st131{fill:#DB1F59;}
	.st132{fill:#727272;}
	.st133{fill:#207235;}
	.st134{fill:#A3A3A3;}
	.st135{fill:#BCBCBC;}
	.st136{fill:#0A511C;}
	.st137{fill:#F9FF00;}
	.st138{fill:#D59F6D;}
	.st139{fill:#C0804A;}
	.st140{fill:#E6BA8A;}
	.st141{fill:#BE3ACC;}
	.st142{fill:#FFFFFF;stroke:#443F0C;stroke-width:9;stroke-miterlimit:10;}
	.st143{fill:none;stroke:#443F0C;stroke-width:9;stroke-miterlimit:10;}
	.st144{fill:#170623;}
	.st145{fill:#158231;}
	.st146{fill:#C89D76;}
	.st147{opacity:0.4;}
	.st148{fill:#ADADAD;}
	.st149{fill:#EDC3A6;}
	.st150{opacity:0.69;}
	.st151{fill:#E5D3D6;}
	.st152{opacity:0.44;}
	.st153{fill:#A5A5A5;}
	.st154{fill:#DDE5E4;}
	.st155{fill:#5C9169;}
	.st156{fill:#934215;}
	.st157{fill:#47413B;}
	.st158{fill:#601A1F;}
	.st159{fill:#044554;}
	.st160{opacity:0.7;}
	.st161{fill:#7F7F7F;}
	.st162{fill:#6B8A69;}
	.st163{opacity:0.24;fill:#848D90;}
	.st164{opacity:0.4;fill:#848D90;}
	.st165{fill:#F2D5D5;}
	.st166{fill:#485CC1;}
	.st167{fill:#C6CBE0;}
	.st168{fill:#8B909E;}
	.st169{fill:#53BC1B;}
	.st170{fill:#11565B;}
	.st171{fill:#67A06D;}
	.st172{fill:#FFEC00;}
	.st173{fill:#77A007;}
	.st174{fill:#E50731;}
	.st175{fill:#266472;}
	.st176{fill:#D4D4D4;}
	.st177{fill:#0E9932;}
	.st178{fill:#87DD24;}
	.st179{fill:#76A172;}
	.st180{fill:#62835F;}
	.st181{fill:#96D090;}
	.st182{fill:#D6D6D6;}
	.st183{fill:#606060;}
	.st184{fill:#494949;}
	.st185{fill:#29E55A;}
	.st186{fill:#2C703D;}
	.st187{fill:#DD0744;}
	.st188{fill:#EDEDED;}
	.st189{fill:#2A5936;}
	.st190{fill:#B9BBC1;}
	.st191{fill:#FFD79E;}
	.st192{fill:#FFE6C2;}
	.st193{fill:#2CBB55;}
	.st194{fill:#5C412D;}
	.st195{fill:#EC0000;}
	.st196{fill:#DD2626;}
	.st197{fill:#EA9334;}
	.st198{fill:#FCC232;}
	.st199{fill:#F9B234;}
	.st200{fill:#F7A037;}
	.st201{fill:#E0E0E0;}
</style>
<g>
	<g>
		<path class="st18" d="M9.5,209.36c0,22,13.29,27.86,29.54,13.03c0,0,156.99-143.3,353.09,26.97V55c0-22-18-40-40-40H49.5
			c-22,0-40,18-40,40V209.36z"/>
	</g>
	<g>
		<path class="st18" d="M391.66,647c0,22-18,40-40,40H49.98c-22,0-40-18-40-40v-46.27c0-22,18-40,40-40h301.68c22,0,40,18,40,40V647
			z"/>
	</g>
	<g>
		<path d="M99.59,413.6c-3.03-2.68-4.54-6.67-4.54-11.95c0-5.31,1.46-9.3,4.39-11.97c2.92-2.67,7.1-4,12.53-4
			c2.46,0,4.65,0.24,6.57,0.72c1.92,0.48,3.53,1.16,4.81,2.03c0.36,0.27,0.54,0.57,0.54,0.9c0,0.27-0.14,0.65-0.41,1.13l-2.25,3.87
			c-0.24,0.42-0.53,0.63-0.86,0.63c-0.21,0-0.56-0.12-1.03-0.36c-0.84-0.42-1.72-0.75-2.63-0.99c-0.92-0.24-1.99-0.36-3.22-0.36
			c-2.49,0-4.4,0.72-5.71,2.16c-1.32,1.44-1.98,3.53-1.98,6.26c0,2.7,0.72,4.78,2.16,6.23s3.41,2.18,5.9,2.18
			c2.16,0,4.14-0.45,5.94-1.35c0.48-0.24,0.83-0.36,1.04-0.36c0.33,0,0.62,0.21,0.86,0.63l2.25,3.87c0.27,0.48,0.4,0.85,0.4,1.13
			c0,0.33-0.18,0.63-0.54,0.9c-1.29,0.87-2.91,1.55-4.86,2.03c-1.95,0.48-4.15,0.72-6.61,0.72
			C106.87,417.63,102.62,416.29,99.59,413.6z"/>
		<path d="M124.57,416.01c0-0.27,0.08-0.6,0.23-0.99L136,388.06c0.27-0.63,0.58-1.07,0.92-1.33c0.34-0.25,0.83-0.38,1.46-0.38h4.9
			c0.63,0,1.12,0.13,1.46,0.38c0.34,0.26,0.65,0.7,0.92,1.33l11.16,26.96c0.15,0.39,0.23,0.72,0.23,0.99c0,0.63-0.33,0.95-0.99,0.95
			h-8.46c-0.93,0-1.52-0.41-1.75-1.21l-1.08-3.33h-7.96l-1.04,3.33c-0.24,0.81-0.83,1.21-1.75,1.21h-8.46
			C124.9,416.95,124.57,416.64,124.57,416.01z M142.57,405.3l-1.75-5.58l-1.75,5.58H142.57z"/>
		<path d="M159.92,416.32c-0.41-0.42-0.61-1.06-0.61-1.94v-25.51c0-0.87,0.2-1.51,0.61-1.91c0.41-0.4,1.12-0.61,2.14-0.61h4.28
			c0.63,0,1.12,0.08,1.46,0.25c0.34,0.17,0.68,0.49,1.01,0.97l8.14,12.1v-10.75c0-0.87,0.2-1.51,0.61-1.93
			c0.41-0.42,1.1-0.63,2.09-0.63H185c1.02,0,1.73,0.2,2.14,0.61c0.4,0.41,0.61,1.06,0.61,1.96v25.52c0,0.87-0.2,1.51-0.61,1.91
			c-0.41,0.41-1.12,0.61-2.14,0.61h-4.27c-0.63,0-1.12-0.08-1.46-0.25c-0.35-0.17-0.68-0.49-1.01-0.97l-8.14-12.11v10.8
			c0,0.87-0.2,1.51-0.61,1.91c-0.41,0.41-1.12,0.61-2.14,0.61h-5.35C161.02,416.95,160.32,416.74,159.92,416.32z"/>
		<path d="M189.64,414.66c-0.36-0.27-0.54-0.57-0.54-0.9c0-0.27,0.13-0.64,0.4-1.13l2.25-3.87c0.3-0.48,0.62-0.72,0.95-0.72
			c0.21,0,0.51,0.13,0.9,0.41c1.44,1.08,2.82,1.62,4.14,1.62c2.04,0,3.06-0.97,3.06-2.92v-18.23c0-0.87,0.2-1.51,0.61-1.93
			c0.41-0.42,1.1-0.63,2.09-0.63h5.35c1.02,0,1.73,0.2,2.14,0.61c0.4,0.41,0.61,1.06,0.61,1.96v18.32c0,3.18-0.99,5.71-2.97,7.58
			c-1.98,1.88-4.83,2.81-8.55,2.81C195.82,417.63,192.34,416.64,189.64,414.66z"/>
		<path d="M215.13,416.32c-0.4-0.42-0.61-1.06-0.61-1.94v-25.47c0-0.87,0.2-1.51,0.61-1.93c0.41-0.42,1.1-0.63,2.09-0.63h18.63
			c0.96,0,1.61,0.2,1.96,0.61c0.35,0.41,0.52,1.06,0.52,1.96v2.52c0,0.9-0.17,1.55-0.52,1.96c-0.34,0.41-1,0.61-1.96,0.61h-10.53
			v3.87h6.48c0.96,0,1.61,0.2,1.96,0.61c0.34,0.41,0.52,1.06,0.52,1.96v2.43c0,0.9-0.17,1.55-0.52,1.96c-0.35,0.41-1,0.61-1.96,0.61
			h-6.48v3.87h10.48c0.96,0,1.61,0.2,1.96,0.61c0.35,0.41,0.52,1.06,0.52,1.96v2.52c0,0.9-0.17,1.55-0.52,1.96
			c-0.34,0.41-1,0.61-1.96,0.61h-18.58C216.23,416.95,215.54,416.74,215.13,416.32z"/>
		<path d="M254.46,416.32c-0.41-0.42-0.61-1.06-0.61-1.94v-25.47c0-0.87,0.2-1.51,0.61-1.93c0.4-0.42,1.1-0.63,2.09-0.63h10.35
			c10.59,0,15.88,5.1,15.88,15.3c0,5.04-1.36,8.85-4.07,11.43c-2.71,2.58-6.65,3.87-11.81,3.87h-10.35
			C255.56,416.95,254.87,416.74,254.46,416.32z M267.31,409.3c1.68,0,2.89-0.55,3.62-1.67c0.74-1.11,1.1-3.1,1.1-5.98
			s-0.37-4.88-1.1-5.99c-0.73-1.11-1.94-1.67-3.62-1.67h-2.66v15.3H267.31z"/>
		<path d="M285.64,416.32c-0.4-0.42-0.61-1.06-0.61-1.94v-25.47c0-0.87,0.2-1.51,0.61-1.93c0.41-0.42,1.1-0.63,2.09-0.63h18.63
			c0.96,0,1.61,0.2,1.96,0.61c0.35,0.41,0.52,1.06,0.52,1.96v2.52c0,0.9-0.17,1.55-0.52,1.96c-0.34,0.41-1,0.61-1.96,0.61h-10.53
			v3.87h6.48c0.96,0,1.61,0.2,1.96,0.61c0.34,0.41,0.52,1.06,0.52,1.96v2.43c0,0.9-0.17,1.55-0.52,1.96c-0.35,0.41-1,0.61-1.96,0.61
			h-6.48v3.87h10.48c0.96,0,1.61,0.2,1.96,0.61c0.35,0.41,0.52,1.06,0.52,1.96v2.52c0,0.9-0.17,1.55-0.52,1.96
			c-0.34,0.41-1,0.61-1.96,0.61h-18.58C286.75,416.95,286.05,416.74,285.64,416.32z"/>
		<path d="M125.29,470.32c-0.41-0.42-0.61-1.06-0.61-1.94v-25.51c0-0.87,0.2-1.51,0.61-1.91c0.4-0.41,1.12-0.61,2.14-0.61h5.18
			c0.66,0,1.18,0.08,1.57,0.25c0.39,0.17,0.69,0.49,0.9,0.97l5.26,13.18l5.26-13.18c0.21-0.48,0.51-0.8,0.9-0.97
			c0.39-0.16,0.92-0.25,1.58-0.25h5.17c1.02,0,1.73,0.2,2.14,0.61c0.41,0.4,0.61,1.04,0.61,1.91v25.51c0,0.87-0.2,1.52-0.61,1.94
			s-1.1,0.63-2.09,0.63h-4.32c-0.99,0-1.7-0.21-2.12-0.63s-0.63-1.06-0.63-1.94V456.1l-2.66,6.12c-0.36,0.87-0.75,1.49-1.17,1.87
			c-0.42,0.38-1.11,0.56-2.07,0.56s-1.65-0.19-2.07-0.56c-0.42-0.38-0.81-1-1.17-1.87l-2.66-6.12v12.28c0,0.87-0.2,1.52-0.61,1.94
			c-0.4,0.42-1.12,0.63-2.14,0.63h-4.32C126.39,470.95,125.69,470.74,125.29,470.32z"/>
		<path d="M159.76,470.32c-0.4-0.42-0.61-1.06-0.61-1.94v-25.47c0-0.87,0.2-1.51,0.61-1.93c0.41-0.42,1.1-0.63,2.09-0.63h5.35
			c1.02,0,1.73,0.2,2.14,0.61c0.4,0.4,0.61,1.06,0.61,1.96v25.47c0,0.87-0.2,1.52-0.61,1.94c-0.41,0.42-1.12,0.63-2.14,0.63h-5.35
			C160.86,470.95,160.16,470.74,159.76,470.32z"/>
		<path d="M173.71,470.32c-0.41-0.42-0.61-1.06-0.61-1.94v-25.47c0-0.87,0.2-1.51,0.61-1.93s1.1-0.63,2.09-0.63h5.35
			c1.02,0,1.73,0.2,2.14,0.61c0.4,0.4,0.61,1.06,0.61,1.96v20.38h10.48c0.96,0,1.61,0.2,1.96,0.61c0.34,0.41,0.52,1.06,0.52,1.96
			v2.52c0,0.9-0.17,1.55-0.52,1.96s-1,0.61-1.96,0.61H175.8C174.81,470.95,174.11,470.74,173.71,470.32z"/>
		<path d="M198.82,470.32c-0.41-0.42-0.61-1.06-0.61-1.94v-25.47c0-0.87,0.2-1.51,0.61-1.93c0.4-0.42,1.1-0.63,2.09-0.63h5.36
			c1.02,0,1.73,0.2,2.14,0.61c0.41,0.4,0.61,1.06,0.61,1.96v20.38h10.49c0.96,0,1.61,0.2,1.96,0.61c0.34,0.41,0.52,1.06,0.52,1.96
			v2.52c0,0.9-0.17,1.55-0.52,1.96c-0.35,0.41-1,0.61-1.96,0.61h-18.58C199.92,470.95,199.22,470.74,198.82,470.32z"/>
		<path d="M221.75,470.01c0-0.27,0.08-0.6,0.23-0.99l11.21-26.96c0.27-0.63,0.58-1.07,0.92-1.33c0.34-0.25,0.83-0.38,1.46-0.38h4.9
			c0.63,0,1.12,0.13,1.46,0.38c0.34,0.26,0.65,0.7,0.92,1.33l11.16,26.96c0.15,0.39,0.23,0.72,0.23,0.99c0,0.63-0.33,0.95-0.99,0.95
			h-8.46c-0.93,0-1.52-0.41-1.75-1.21l-1.08-3.33h-7.96l-1.04,3.33c-0.24,0.81-0.83,1.21-1.75,1.21h-8.46
			C222.08,470.95,221.75,470.64,221.75,470.01z M239.75,459.3l-1.75-5.58l-1.75,5.58H239.75z"/>
		<path d="M260.18,470.77c-2.34-0.57-4.23-1.37-5.67-2.39c-0.6-0.42-0.9-0.82-0.9-1.21c0-0.27,0.1-0.55,0.31-0.85l2.61-4.1
			c0.27-0.39,0.54-0.58,0.81-0.58c0.24,0,0.53,0.11,0.86,0.32c1.08,0.66,2.32,1.18,3.71,1.55c1.39,0.38,2.75,0.56,4.07,0.56
			c1.11,0,1.91-0.15,2.41-0.45s0.74-0.76,0.74-1.4c0-0.69-0.33-1.24-0.99-1.66c-0.66-0.42-1.8-0.95-3.42-1.58
			c-3.03-1.17-5.42-2.5-7.16-3.98c-1.74-1.49-2.61-3.46-2.61-5.92c0-3.12,1.09-5.47,3.26-7.04c2.17-1.58,5.11-2.36,8.8-2.36
			c2.58,0,4.78,0.23,6.59,0.68c1.81,0.45,3.4,1.16,4.75,2.11c0.6,0.42,0.9,0.83,0.9,1.22c0,0.27-0.11,0.55-0.32,0.85l-2.61,4.09
			c-0.27,0.42-0.54,0.63-0.81,0.63c-0.18,0-0.46-0.12-0.85-0.36c-0.72-0.48-1.58-0.88-2.57-1.19c-0.99-0.32-2.05-0.47-3.19-0.47
			c-1.05,0-1.84,0.15-2.39,0.45c-0.54,0.3-0.81,0.78-0.81,1.44c0,0.54,0.19,0.99,0.56,1.35c0.37,0.36,0.85,0.67,1.42,0.92
			c0.57,0.26,1.56,0.67,2.97,1.24c2.25,0.9,4.02,1.76,5.31,2.59c1.29,0.83,2.26,1.82,2.92,2.97c0.66,1.16,0.99,2.62,0.99,4.39
			c0,2.7-1.01,4.88-3.04,6.55s-5.05,2.5-9.07,2.5C265.05,471.63,262.52,471.34,260.18,470.77z"/>
	</g>
	<polygon class="st1" points="200.76,96.93 214.23,124.22 244.34,128.59 222.55,149.83 227.7,179.83 200.76,165.67 173.83,179.83 
		178.97,149.83 157.18,128.59 187.29,124.22 	"/>
	<polygon class="st1" points="138.58,180.15 147.32,197.86 166.86,200.7 152.72,214.48 156.06,233.94 138.58,224.75 121.11,233.94 
		124.45,214.48 110.31,200.7 129.85,197.86 	"/>
	<polygon class="st1" points="268.68,180.15 277.42,197.86 296.95,200.7 282.82,214.48 286.15,233.94 268.68,224.75 251.2,233.94 
		254.54,214.48 240.4,200.7 259.94,197.86 	"/>
	<circle class="st2" cx="201.77" cy="213.97" r="121.96"/>
	<circle class="st3" cx="200.82" cy="200.58" r="121.96"/>
	<g>
		<path class="st3" d="M183.41,643.85c-3.55-0.92-6.5-2.21-8.83-3.87c-0.58-0.44-0.88-0.92-0.88-1.46c0-0.44,0.22-1.05,0.66-1.83
			l3.65-6.28c0.44-0.73,0.9-1.1,1.39-1.1c0.24,0,0.8,0.22,1.68,0.66c3.55,2,7.69,2.99,12.41,2.99c2.38,0,4.26-0.51,5.62-1.53
			c1.36-1.02,2.04-2.53,2.04-4.53c0-3.89-2.09-5.84-6.28-5.84c-1.31,0-2.67,0.11-4.05,0.33c-1.39,0.22-2.54,0.5-3.47,0.84
			c-1.41,0.49-2.92,0.73-4.53,0.73c-2.24,0-4.05-0.54-5.44-1.61c-1.39-1.07-2.01-2.68-1.86-4.82l1.17-18.4
			c0.1-1.26,0.44-2.19,1.02-2.77s1.63-0.88,3.14-0.88h31.17c1.56,0,2.62,0.33,3.18,0.99c0.56,0.66,0.84,1.71,0.84,3.18v4.16
			c0,1.46-0.28,2.52-0.84,3.18c-0.56,0.66-1.62,0.99-3.18,0.99h-21.32l-0.22,3.5c0.78-0.19,1.93-0.35,3.47-0.47
			c1.53-0.12,2.76-0.18,3.69-0.18c6.67,0,11.83,1.3,15.48,3.91s5.48,7,5.48,13.18c0,3.8-1.04,7.08-3.1,9.85s-4.92,4.88-8.54,6.31
			c-3.63,1.43-7.73,2.15-12.3,2.15C190.71,645.24,186.96,644.77,183.41,643.85z"/>
	</g>
	<g>
		<rect x="117" y="178.67" class="st191" width="170" height="74.86"/>
		<rect x="126.22" y="185.68" class="st192" width="149.86" height="60.05"/>
		<g>
			<path class="st193" d="M157.25,230.22c-0.37-0.38-0.55-0.96-0.55-1.74v-1.34c-2.7-0.46-4.87-1.27-6.49-2.43
				c-0.54-0.38-0.81-0.74-0.81-1.09c0-0.24,0.09-0.5,0.28-0.77l2.35-3.69c0.24-0.35,0.49-0.53,0.73-0.53c0.22,0,0.47,0.09,0.77,0.28
				c0.97,0.59,2.09,1.06,3.34,1.4c1.26,0.34,2.48,0.51,3.67,0.51c1,0,1.72-0.13,2.17-0.41s0.67-0.69,0.67-1.26
				c0-0.62-0.3-1.12-0.89-1.5c-0.6-0.38-1.62-0.85-3.08-1.42c-2.73-1.05-4.88-2.25-6.45-3.59c-1.57-1.34-2.35-3.12-2.35-5.33
				c0-2.03,0.53-3.7,1.6-5.03s2.56-2.27,4.48-2.84v-1.54c0-0.78,0.18-1.37,0.55-1.74c0.37-0.38,0.99-0.57,1.89-0.57h4.01
				c0.92,0,1.56,0.18,1.93,0.55c0.37,0.36,0.55,0.95,0.55,1.76v1.22c2.43,0.35,4.46,1.09,6.08,2.23c0.54,0.38,0.81,0.74,0.81,1.09
				c0,0.24-0.09,0.5-0.28,0.77l-2.35,3.69c-0.24,0.38-0.49,0.57-0.73,0.57c-0.16,0-0.42-0.11-0.77-0.33
				c-0.65-0.43-1.42-0.79-2.31-1.07c-0.89-0.28-1.85-0.43-2.88-0.43c-0.95,0-1.66,0.14-2.15,0.41c-0.49,0.27-0.73,0.7-0.73,1.3
				c0,0.49,0.17,0.89,0.51,1.22s0.76,0.6,1.28,0.83s1.41,0.6,2.68,1.12c2.03,0.81,3.62,1.59,4.79,2.33
				c1.16,0.74,2.04,1.64,2.64,2.68c0.59,1.04,0.89,2.36,0.89,3.95c0,2-0.62,3.7-1.87,5.09s-3.11,2.32-5.6,2.78v1.14
				c0,0.81-0.18,1.4-0.55,1.76c-0.36,0.37-1.01,0.55-1.93,0.55h-4.01C158.24,230.79,157.61,230.6,157.25,230.22z"/>
		</g>
		<rect x="184.06" y="197.38" class="st194" width="58.49" height="12.48"/>
		<rect x="184.06" y="217.66" class="st194" width="74.86" height="12.48"/>
		<rect x="196.54" y="178.67" class="st195" width="6.24" height="74.86"/>
		<g>
			<path class="st195" d="M202.67,158.83c-1-8.12-5.86-24.39-28.82-23.83c0,0-40.97,17.88,0,47.68h29.05V163.3
				C202.91,163.3,203,161.51,202.67,158.83z M195.46,161.96v13.26h-19.89c-28.05-20.4,0-32.64,0-32.64
				c15.72-0.38,19.04,10.76,19.73,16.32C195.52,160.74,195.46,161.96,195.46,161.96z"/>
			<path class="st195" d="M199.18,163.3v19.37h29.05c40.97-29.8,0-47.68,0-47.68c-22.96-0.56-27.82,15.71-28.82,23.83
				C199.09,161.51,199.18,163.3,199.18,163.3z M206.8,158.9c0.68-5.56,4.01-16.7,19.73-16.32c0,0,28.05,12.24,0,32.64h-19.89v-13.26
				C206.63,161.96,206.57,160.74,206.8,158.9z"/>
		</g>
	</g>
</g>
</svg>
