<?xml version="1.0" encoding="utf-8"?>
<!-- Generator: Adobe Illustrator 23.0.0, SVG Export Plug-In . SVG Version: 6.00 Build 0)  -->
<svg version="1.1" id="Capa_1" xmlns="http://www.w3.org/2000/svg" xmlns:xlink="http://www.w3.org/1999/xlink" x="0px" y="0px"
	 viewBox="0 0 400 702" style="enable-background:new 0 0 400 702;" xml:space="preserve">
<style type="text/css">
	.st0{fill:#0085B0;}
	.st1{fill:#E0EF18;}
	.st2{fill:#CECECE;}
	.st3{fill:#FFFFFF;}
	.st4{fill:#F2F2F2;}
	.st5{fill:#EACCB0;}
	.st6{fill:#9B9B9B;}
	.st7{fill:#939393;}
	.st8{fill:#EFEFEF;}
	.st9{fill:#828282;}
	.st10{fill:#2C2A2D;}
	.st11{fill:#202021;}
	.st12{fill:#F2D4B6;}
	.st13{fill:#534D46;}
	.st14{fill:#E8D313;}
	.st15{fill:#2ACCFF;}
	.st16{fill:#4E4F4F;}
	.st17{fill:#003A94;}
	.st18{fill:#00D13C;}
	.st19{fill:#15682A;}
	.st20{fill:#D40000;}
	.st21{fill:#505050;}
	.st22{fill:#DFDFDF;}
	.st23{fill:none;}
	.st24{fill:#636363;}
	.st25{fill:#6C92D5;}
	.st26{fill:#22272F;}
	.st27{fill:#1B2538;}
	.st28{fill:#253452;}
	.st29{fill:#F9F9F9;}
	.st30{fill:#2D3543;}
	.st31{fill:#2A3D60;}
	.st32{fill:#587955;}
	.st33{fill:#CD7054;}
	.st34{fill:#F1CC4B;}
	.st35{fill:#ACACAC;}
	.st36{fill:#AAE528;}
	.st37{fill:#28CEBA;}
	.st38{fill:#DB143F;}
	.st39{fill:#53C2C9;}
	.st40{fill:#FFB412;}
	.st41{fill:#866A5E;}
	.st42{fill:#F7DDCB;}
	.st43{fill:#FFE6D4;}
	.st44{fill:#F5F5F5;}
	.st45{fill:#1A2830;}
	.st46{fill:#24353F;}
	.st47{fill:#132026;}
	.st48{fill:#F9FF03;}
	.st49{fill:#272728;}
	.st50{fill:#1E1D1E;}
	.st51{fill:#160423;}
	.st52{fill-rule:evenodd;clip-rule:evenodd;fill:#FFFFFF;}
	.st53{fill-rule:evenodd;clip-rule:evenodd;fill:#1996B8;}
	.st54{fill:#0C387D;}
	.st55{fill:#C69A81;}
	.st56{fill:#D1A385;}
	.st57{fill:#EAEAEA;}
	.st58{fill:#093E8C;}
	.st59{fill:#0B2A62;}
	.st60{fill:#D32A3B;}
	.st61{fill:#827C7D;}
	.st62{opacity:0.7;fill:#7F7F7F;}
	.st63{fill:#FDFDFD;}
	.st64{fill:#DAA449;}
	.st65{fill:#DD9225;}
	.st66{opacity:0.3;}
	.st67{fill:#425793;}
	.st68{opacity:0.8;}
	.st69{filter:url(#Adobe_OpacityMaskFilter);}
	.st70{opacity:0.15;mask:url(#SVGID_1_);}
	.st71{fill:#090B00;}
	.st72{opacity:0.1;}
	.st73{fill:#211915;}
	.st74{filter:url(#Adobe_OpacityMaskFilter_1_);}
	.st75{opacity:0.15;mask:url(#SVGID_2_);}
	.st76{fill:#AF3623;}
	.st77{filter:url(#Adobe_OpacityMaskFilter_2_);}
	.st78{opacity:0.15;mask:url(#SVGID_3_);}
	.st79{filter:url(#Adobe_OpacityMaskFilter_3_);}
	.st80{opacity:0.15;mask:url(#SVGID_4_);}
	.st81{fill:#456495;}
	.st82{filter:url(#Adobe_OpacityMaskFilter_4_);}
	.st83{opacity:0.15;mask:url(#SVGID_5_);}
	.st84{filter:url(#Adobe_OpacityMaskFilter_5_);}
	.st85{opacity:0.15;mask:url(#SVGID_6_);}
	.st86{fill:#76A9DA;}
	.st87{filter:url(#Adobe_OpacityMaskFilter_6_);}
	.st88{opacity:0.15;mask:url(#SVGID_7_);}
	.st89{filter:url(#Adobe_OpacityMaskFilter_7_);}
	.st90{opacity:0.15;mask:url(#SVGID_8_);}
	.st91{fill:#1F3642;}
	.st92{fill:#A9BDDA;}
	.st93{opacity:0.46;fill:#A6B4BC;}
	.st94{fill:#74C475;}
	.st95{fill:#221F21;}
	.st96{fill:#2D2D2D;}
	.st97{fill:#1C1B1A;}
	.st98{fill:#77181C;}
	.st99{fill:#262525;}
	.st100{fill:#11100F;}
	.st101{opacity:0.18;}
	.st102{opacity:0.38;}
	.st103{fill:#0A5B1F;}
	.st104{opacity:0.27;}
	.st105{opacity:0.48;}
	.st106{fill:#0A4654;}
	.st107{fill:#C2C6C6;}
	.st108{fill:#E5E5E5;stroke:#FFFFFF;stroke-miterlimit:10;}
	.st109{fill:#ACB4B5;}
	.st110{fill:#7F8384;}
	.st111{fill:#15772F;}
	.st112{fill:#F4F4F4;}
	.st113{fill:#53B8DB;}
	.st114{fill:#06EF42;}
	.st115{fill:#E7ED07;}
	.st116{fill:#CCCCCA;}
	.st117{fill:#EADF13;}
	.st118{fill:#C2C2C2;}
	.st119{fill:#85B681;}
	.st120{fill:#A1DC9B;}
	.st121{fill:#90C58B;}
	.st122{fill:#22241F;}
	.st123{opacity:0.5;}
	.st124{fill:#A2CADE;}
	.st125{fill:#E9E9E9;}
	.st126{fill:#D9D9D9;}
	.st127{fill:#CDCDCD;}
	.st128{opacity:0.34;fill:#F0F0F0;}
	.st129{fill:#5A5B5A;}
	.st130{fill:#FFE600;}
	.st131{fill:#DB1F59;}
	.st132{fill:#727272;}
	.st133{fill:#207235;}
	.st134{fill:#A3A3A3;}
	.st135{fill:#BCBCBC;}
	.st136{fill:#0A511C;}
	.st137{fill:#F9FF00;}
	.st138{fill:#D59F6D;}
	.st139{fill:#C0804A;}
	.st140{fill:#E6BA8A;}
	.st141{fill:#BE3ACC;}
	.st142{fill:#FFFFFF;stroke:#443F0C;stroke-width:9;stroke-miterlimit:10;}
	.st143{fill:none;stroke:#443F0C;stroke-width:9;stroke-miterlimit:10;}
	.st144{fill:#170623;}
	.st145{fill:#158231;}
	.st146{fill:#C89D76;}
	.st147{opacity:0.4;}
	.st148{fill:#ADADAD;}
	.st149{fill:#EDC3A6;}
	.st150{opacity:0.69;}
	.st151{fill:#E5D3D6;}
	.st152{opacity:0.44;}
	.st153{fill:#A5A5A5;}
	.st154{fill:#DDE5E4;}
	.st155{fill:#5C9169;}
	.st156{fill:#934215;}
	.st157{fill:#47413B;}
	.st158{fill:#601A1F;}
	.st159{fill:#044554;}
	.st160{opacity:0.7;}
	.st161{fill:#7F7F7F;}
	.st162{fill:#6B8A69;}
	.st163{opacity:0.24;fill:#848D90;}
	.st164{opacity:0.4;fill:#848D90;}
	.st165{fill:#F2D5D5;}
	.st166{fill:#485CC1;}
	.st167{fill:#C6CBE0;}
	.st168{fill:#8B909E;}
	.st169{fill:#53BC1B;}
	.st170{fill:#11565B;}
	.st171{fill:#67A06D;}
	.st172{fill:#FFEC00;}
	.st173{fill:#77A007;}
	.st174{fill:#E50731;}
	.st175{fill:#266472;}
	.st176{fill:#D4D4D4;}
	.st177{fill:#0E9932;}
	.st178{fill:#87DD24;}
	.st179{fill:#76A172;}
	.st180{fill:#62835F;}
	.st181{fill:#96D090;}
	.st182{fill:#D6D6D6;}
	.st183{fill:#606060;}
	.st184{fill:#494949;}
	.st185{fill:#29E55A;}
	.st186{fill:#2C703D;}
	.st187{fill:#DD0744;}
	.st188{fill:#EDEDED;}
	.st189{fill:#2A5936;}
	.st190{fill:#B9BBC1;}
	.st191{fill:#FFD79E;}
	.st192{fill:#FFE6C2;}
	.st193{fill:#2CBB55;}
	.st194{fill:#5C412D;}
	.st195{fill:#EC0000;}
	.st196{fill:#DD2626;}
	.st197{fill:#EA9334;}
	.st198{fill:#FCC232;}
	.st199{fill:#F9B234;}
	.st200{fill:#F7A037;}
	.st201{fill:#E0E0E0;}
</style>
<g>
	<g>
		<path class="st0" d="M9.5,209.36c0,22,13.29,27.86,29.54,13.03c0,0,156.99-143.3,353.09,26.97V55c0-22-18-40-40-40H49.5
			c-22,0-40,18-40,40V209.36z"/>
	</g>
	<g>
		<path class="st0" d="M391.66,647c0,22-18,40-40,40H49.98c-22,0-40-18-40-40v-46.27c0-22,18-40,40-40h301.68c22,0,40,18,40,40V647z
			"/>
	</g>
	<g>
		<path d="M102.63,373.74c-0.19-0.14-0.35-0.39-0.49-0.74l-5.97-14.97c-0.08-0.22-0.13-0.4-0.13-0.55c0-0.35,0.18-0.53,0.55-0.53
			h4.7c0.52,0,0.84,0.22,0.97,0.67l2.55,8.15l2.55-8.15c0.13-0.45,0.46-0.67,0.97-0.67h4.7c0.37,0,0.55,0.17,0.55,0.53
			c0,0.15-0.04,0.33-0.13,0.55L107.52,373c-0.13,0.35-0.3,0.6-0.49,0.74c-0.19,0.14-0.47,0.21-0.84,0.21h-2.73
			C103.1,373.95,102.83,373.88,102.63,373.74z"/>
		<path d="M115.18,373.6c-0.22-0.23-0.34-0.59-0.34-1.08v-14.15c0-0.48,0.11-0.84,0.34-1.08c0.22-0.23,0.61-0.35,1.16-0.35h10.35
			c0.53,0,0.9,0.11,1.09,0.34c0.19,0.22,0.29,0.59,0.29,1.09v1.4c0,0.5-0.1,0.86-0.29,1.09c-0.19,0.23-0.55,0.34-1.09,0.34h-5.85
			v2.15h3.6c0.53,0,0.9,0.11,1.09,0.34c0.19,0.23,0.29,0.59,0.29,1.09v1.35c0,0.5-0.1,0.86-0.29,1.09
			c-0.19,0.22-0.55,0.34-1.09,0.34h-3.6v2.15h5.83c0.53,0,0.89,0.11,1.09,0.34c0.19,0.22,0.29,0.59,0.29,1.09v1.4
			c0,0.5-0.1,0.86-0.29,1.09c-0.19,0.23-0.55,0.34-1.09,0.34h-10.33C115.8,373.95,115.41,373.84,115.18,373.6z"/>
		<path d="M129.53,373.6c-0.22-0.23-0.34-0.59-0.34-1.08v-14.15c0-0.48,0.11-0.84,0.34-1.08c0.22-0.23,0.61-0.35,1.16-0.35h5.98
			c2.5,0,4.32,0.5,5.46,1.49c1.14,0.99,1.71,2.49,1.71,4.49c0,1.2-0.2,2.21-0.61,3.04c-0.41,0.83-1.04,1.47-1.89,1.94l2.33,4.97
			c0.07,0.13,0.1,0.28,0.1,0.45c0,0.18-0.06,0.33-0.19,0.45s-0.29,0.17-0.49,0.17h-4.22c-0.27,0-0.48-0.04-0.64-0.11
			c-0.16-0.08-0.27-0.2-0.34-0.39l-1.85-4.65h-0.85v3.73c0,0.48-0.11,0.84-0.34,1.08s-0.62,0.35-1.19,0.35h-2.98
			C130.15,373.95,129.76,373.84,129.53,373.6z M136.15,364.63c0.53,0,0.95-0.14,1.26-0.42s0.46-0.71,0.46-1.28
			c0-0.58-0.15-1.02-0.46-1.3c-0.31-0.28-0.73-0.42-1.26-0.42h-1.7v3.42H136.15z"/>
		<path d="M145.43,373.6c-0.23-0.23-0.34-0.59-0.34-1.08v-14.15c0-0.48,0.11-0.84,0.34-1.08c0.22-0.23,0.61-0.35,1.16-0.35h2.97
			c0.57,0,0.96,0.11,1.19,0.34c0.23,0.22,0.34,0.59,0.34,1.09v14.15c0,0.48-0.11,0.84-0.34,1.08c-0.22,0.23-0.62,0.35-1.19,0.35
			h-2.97C146.05,373.95,145.66,373.84,145.43,373.6z"/>
		<path d="M153.18,373.6c-0.23-0.23-0.34-0.59-0.34-1.08v-14.15c0-0.48,0.11-0.84,0.34-1.08c0.22-0.23,0.61-0.35,1.16-0.35h10.35
			c0.53,0,0.9,0.11,1.09,0.34c0.19,0.22,0.29,0.59,0.29,1.09v1.4c0,0.5-0.1,0.86-0.29,1.09c-0.19,0.23-0.55,0.34-1.09,0.34h-5.85
			v2.13h3.6c0.53,0,0.9,0.11,1.09,0.34c0.19,0.22,0.29,0.59,0.29,1.09v1.4c0,0.5-0.1,0.86-0.29,1.09c-0.19,0.23-0.55,0.34-1.09,0.34
			h-3.6v4.95c0,0.48-0.11,0.84-0.34,1.08c-0.22,0.23-0.62,0.35-1.19,0.35h-2.97C153.8,373.95,153.41,373.84,153.18,373.6z"/>
		<path d="M167.28,373.6c-0.23-0.23-0.34-0.59-0.34-1.08v-14.15c0-0.48,0.11-0.84,0.34-1.08c0.22-0.23,0.61-0.35,1.16-0.35h2.97
			c0.57,0,0.96,0.11,1.19,0.34c0.23,0.22,0.34,0.59,0.34,1.09v14.15c0,0.48-0.11,0.84-0.34,1.08c-0.22,0.23-0.62,0.35-1.19,0.35
			h-2.97C167.9,373.95,167.51,373.84,167.28,373.6z"/>
		<path d="M176.72,372.09c-1.68-1.49-2.53-3.7-2.53-6.64c0-2.95,0.81-5.17,2.44-6.65c1.63-1.48,3.95-2.22,6.96-2.22
			c1.37,0,2.58,0.13,3.65,0.4s1.96,0.64,2.67,1.13c0.2,0.15,0.3,0.32,0.3,0.5c0,0.15-0.08,0.36-0.23,0.63l-1.25,2.15
			c-0.13,0.23-0.29,0.35-0.47,0.35c-0.12,0-0.31-0.07-0.58-0.2c-0.47-0.23-0.95-0.42-1.46-0.55c-0.51-0.13-1.1-0.2-1.79-0.2
			c-1.38,0-2.44,0.4-3.17,1.2c-0.73,0.8-1.1,1.96-1.1,3.47c0,1.5,0.4,2.65,1.2,3.46s1.89,1.21,3.28,1.21c1.2,0,2.3-0.25,3.3-0.75
			c0.27-0.13,0.46-0.2,0.58-0.2c0.18,0,0.34,0.12,0.47,0.35l1.25,2.15c0.15,0.27,0.23,0.48,0.23,0.63c0,0.18-0.1,0.35-0.3,0.5
			c-0.72,0.48-1.62,0.86-2.7,1.13c-1.08,0.27-2.31,0.4-3.68,0.4C180.76,374.33,178.4,373.58,176.72,372.09z"/>
		<path d="M190.6,373.43c0-0.15,0.04-0.33,0.13-0.55l6.22-14.97c0.15-0.35,0.32-0.6,0.51-0.74s0.46-0.21,0.81-0.21H201
			c0.35,0,0.62,0.07,0.81,0.21c0.19,0.14,0.36,0.39,0.51,0.74l6.2,14.97c0.08,0.22,0.13,0.4,0.13,0.55c0,0.35-0.18,0.53-0.55,0.53
			h-4.7c-0.52,0-0.84-0.22-0.97-0.67l-0.6-1.85h-4.42l-0.58,1.85c-0.13,0.45-0.46,0.67-0.97,0.67h-4.7
			C190.78,373.95,190.6,373.78,190.6,373.43z M200.6,367.48l-0.97-3.1l-0.98,3.1H200.6z"/>
		<path d="M210.54,372.09c-1.68-1.49-2.52-3.7-2.52-6.64c0-2.95,0.81-5.17,2.44-6.65c1.63-1.48,3.95-2.22,6.96-2.22
			c1.37,0,2.58,0.13,3.65,0.4s1.96,0.64,2.68,1.13c0.2,0.15,0.3,0.32,0.3,0.5c0,0.15-0.07,0.36-0.22,0.63l-1.25,2.15
			c-0.13,0.23-0.29,0.35-0.47,0.35c-0.12,0-0.31-0.07-0.58-0.2c-0.47-0.23-0.95-0.42-1.46-0.55c-0.51-0.13-1.11-0.2-1.79-0.2
			c-1.38,0-2.44,0.4-3.17,1.2c-0.73,0.8-1.1,1.96-1.1,3.47c0,1.5,0.4,2.65,1.2,3.46c0.8,0.81,1.89,1.21,3.28,1.21
			c1.2,0,2.3-0.25,3.3-0.75c0.27-0.13,0.46-0.2,0.58-0.2c0.18,0,0.34,0.12,0.47,0.35l1.25,2.15c0.15,0.27,0.22,0.48,0.22,0.63
			c0,0.18-0.1,0.35-0.3,0.5c-0.72,0.48-1.62,0.86-2.7,1.13c-1.08,0.27-2.31,0.4-3.67,0.4C214.59,374.33,212.23,373.58,210.54,372.09
			z"/>
		<path d="M225.88,373.6c-0.22-0.23-0.34-0.59-0.34-1.08v-14.15c0-0.48,0.11-0.84,0.34-1.08c0.23-0.23,0.61-0.35,1.16-0.35h2.98
			c0.57,0,0.96,0.11,1.19,0.34c0.22,0.22,0.34,0.59,0.34,1.09v14.15c0,0.48-0.11,0.84-0.34,1.08c-0.23,0.23-0.62,0.35-1.19,0.35
			h-2.98C226.5,373.95,226.11,373.84,225.88,373.6z"/>
		<path d="M235.1,372.01c-1.53-1.54-2.3-3.73-2.3-6.56c0-2.83,0.77-5.02,2.3-6.56c1.53-1.54,3.78-2.31,6.75-2.31
			s5.22,0.77,6.75,2.31c1.53,1.54,2.3,3.73,2.3,6.56c0,2.83-0.77,5.02-2.3,6.56c-1.53,1.54-3.78,2.31-6.75,2.31
			S236.63,373.56,235.1,372.01z M244.2,368.96c0.48-0.78,0.73-1.95,0.73-3.51c0-1.58-0.24-2.76-0.73-3.53
			c-0.48-0.77-1.27-1.15-2.35-1.15s-1.87,0.38-2.35,1.15c-0.48,0.77-0.72,1.94-0.72,3.53c0,1.57,0.24,2.74,0.72,3.51
			c0.48,0.77,1.27,1.16,2.35,1.16S243.71,369.74,244.2,368.96z M239.2,354.85c0-0.13,0.03-0.28,0.08-0.43l1.05-2.9
			c0.13-0.38,0.29-0.64,0.48-0.78c0.18-0.13,0.52-0.2,1.02-0.2h3.58c0.35,0,0.63,0.06,0.82,0.19c0.2,0.13,0.3,0.3,0.3,0.54
			c0,0.2-0.07,0.41-0.2,0.63l-1.6,2.7c-0.23,0.4-0.46,0.66-0.67,0.77c-0.22,0.12-0.61,0.17-1.17,0.17h-2.68
			C239.53,355.55,239.2,355.32,239.2,354.85z"/>
		<path d="M252.48,373.6c-0.22-0.23-0.34-0.59-0.34-1.08v-14.17c0-0.48,0.11-0.84,0.34-1.06c0.23-0.23,0.62-0.34,1.19-0.34h2.38
			c0.35,0,0.62,0.05,0.81,0.14s0.38,0.27,0.56,0.54l4.53,6.73v-5.98c0-0.48,0.11-0.84,0.34-1.08c0.22-0.23,0.61-0.35,1.16-0.35h2.97
			c0.57,0,0.96,0.11,1.19,0.34c0.23,0.22,0.34,0.59,0.34,1.09v14.17c0,0.48-0.11,0.84-0.34,1.06c-0.22,0.23-0.62,0.34-1.19,0.34
			h-2.38c-0.35,0-0.62-0.05-0.81-0.14c-0.19-0.09-0.38-0.27-0.56-0.54l-4.52-6.73v6c0,0.48-0.11,0.84-0.34,1.06
			c-0.23,0.23-0.62,0.34-1.19,0.34h-2.98C253.1,373.95,252.71,373.84,252.48,373.6z"/>
		<path d="M277.53,373.6c-0.23-0.23-0.34-0.59-0.34-1.08v-14.15c0-0.48,0.11-0.84,0.34-1.08c0.22-0.23,0.61-0.35,1.16-0.35h5.75
			c5.88,0,8.83,2.83,8.83,8.5c0,2.8-0.75,4.92-2.26,6.35c-1.51,1.43-3.7,2.15-6.56,2.15h-5.75
			C278.15,373.95,277.76,373.84,277.53,373.6z M284.67,369.7c0.93,0,1.6-0.31,2.01-0.92s0.61-1.73,0.61-3.33s-0.2-2.71-0.61-3.33
			c-0.41-0.62-1.08-0.92-2.01-0.92h-1.47v8.5H284.67z"/>
		<path d="M294.86,373.6c-0.22-0.23-0.34-0.59-0.34-1.08v-14.15c0-0.48,0.11-0.84,0.34-1.08c0.22-0.23,0.61-0.35,1.16-0.35h10.35
			c0.53,0,0.9,0.11,1.09,0.34c0.19,0.22,0.29,0.59,0.29,1.09v1.4c0,0.5-0.1,0.86-0.29,1.09c-0.19,0.23-0.55,0.34-1.09,0.34h-5.85
			v2.15h3.6c0.53,0,0.9,0.11,1.09,0.34c0.19,0.23,0.29,0.59,0.29,1.09v1.35c0,0.5-0.1,0.86-0.29,1.09
			c-0.19,0.22-0.55,0.34-1.09,0.34h-3.6v2.15h5.83c0.53,0,0.89,0.11,1.09,0.34c0.19,0.22,0.29,0.59,0.29,1.09v1.4
			c0,0.5-0.1,0.86-0.29,1.09c-0.19,0.23-0.55,0.34-1.09,0.34h-10.33C295.47,373.95,295.08,373.84,294.86,373.6z"/>
		<path d="M100.28,403.6c-0.22-0.23-0.34-0.59-0.34-1.08v-14.15c0-0.48,0.11-0.84,0.34-1.08c0.23-0.23,0.61-0.35,1.16-0.35h2.98
			c0.57,0,0.96,0.11,1.19,0.34c0.22,0.22,0.34,0.59,0.34,1.09v14.15c0,0.48-0.11,0.84-0.34,1.08c-0.23,0.23-0.62,0.35-1.19,0.35
			h-2.98C100.9,403.95,100.51,403.84,100.28,403.6z"/>
		<path d="M108.03,403.6c-0.22-0.23-0.34-0.59-0.34-1.08v-14.15c0-0.48,0.11-0.84,0.34-1.08c0.23-0.23,0.61-0.35,1.16-0.35h5.75
			c5.88,0,8.83,2.83,8.83,8.5c0,2.8-0.75,4.92-2.26,6.35c-1.51,1.43-3.7,2.15-6.56,2.15h-5.75
			C108.65,403.95,108.26,403.84,108.03,403.6z M115.17,399.7c0.93,0,1.6-0.31,2.01-0.92s0.61-1.73,0.61-3.33s-0.21-2.71-0.61-3.33
			c-0.41-0.62-1.08-0.92-2.01-0.92h-1.48v8.5H115.17z"/>
		<path d="M125.36,403.6c-0.23-0.23-0.34-0.59-0.34-1.08v-14.15c0-0.48,0.11-0.84,0.34-1.08c0.23-0.23,0.61-0.35,1.16-0.35h10.35
			c0.53,0,0.9,0.11,1.09,0.34c0.19,0.22,0.29,0.59,0.29,1.09v1.4c0,0.5-0.1,0.86-0.29,1.09c-0.19,0.23-0.55,0.34-1.09,0.34h-5.85
			v2.15h3.6c0.53,0,0.9,0.11,1.09,0.34c0.19,0.23,0.29,0.59,0.29,1.09v1.35c0,0.5-0.1,0.86-0.29,1.09
			c-0.19,0.22-0.55,0.34-1.09,0.34h-3.6v2.15h5.82c0.53,0,0.9,0.11,1.09,0.34c0.19,0.22,0.29,0.59,0.29,1.09v1.4
			c0,0.5-0.1,0.86-0.29,1.09c-0.19,0.23-0.55,0.34-1.09,0.34h-10.32C125.97,403.95,125.58,403.84,125.36,403.6z"/>
		<path d="M139.71,403.6c-0.23-0.23-0.34-0.59-0.34-1.08v-14.17c0-0.48,0.11-0.84,0.34-1.06c0.23-0.23,0.62-0.34,1.19-0.34h2.38
			c0.35,0,0.62,0.05,0.81,0.14c0.19,0.09,0.38,0.27,0.56,0.54l4.52,6.73v-5.98c0-0.48,0.11-0.84,0.34-1.08
			c0.22-0.23,0.61-0.35,1.16-0.35h2.98c0.57,0,0.96,0.11,1.19,0.34c0.23,0.22,0.34,0.59,0.34,1.09v14.17c0,0.48-0.11,0.84-0.34,1.06
			c-0.23,0.23-0.62,0.34-1.19,0.34h-2.38c-0.35,0-0.62-0.05-0.81-0.14c-0.19-0.09-0.38-0.27-0.56-0.54l-4.52-6.73v6
			c0,0.48-0.11,0.84-0.34,1.06c-0.22,0.23-0.62,0.34-1.19,0.34h-2.97C140.32,403.95,139.93,403.84,139.71,403.6z"/>
		<path d="M161.23,403.6c-0.23-0.23-0.34-0.59-0.34-1.08V391.2h-3.6c-0.53,0-0.9-0.11-1.09-0.34c-0.19-0.22-0.29-0.59-0.29-1.09
			v-1.4c0-0.5,0.1-0.86,0.29-1.09c0.19-0.23,0.55-0.34,1.09-0.34h13.2c0.53,0,0.9,0.11,1.09,0.34c0.19,0.22,0.29,0.59,0.29,1.09v1.4
			c0,0.5-0.1,0.86-0.29,1.09c-0.19,0.23-0.55,0.34-1.09,0.34h-3.6v11.33c0,0.48-0.11,0.84-0.34,1.08s-0.62,0.35-1.19,0.35h-2.97
			C161.85,403.95,161.46,403.84,161.23,403.6z"/>
		<path d="M172.96,403.6c-0.23-0.23-0.34-0.59-0.34-1.08v-14.15c0-0.48,0.11-0.84,0.34-1.08c0.23-0.23,0.61-0.35,1.16-0.35h2.97
			c0.57,0,0.96,0.11,1.19,0.34c0.22,0.22,0.34,0.59,0.34,1.09v14.15c0,0.48-0.11,0.84-0.34,1.08s-0.62,0.35-1.19,0.35h-2.97
			C173.57,403.95,173.18,403.84,172.96,403.6z"/>
		<path d="M180.71,403.6c-0.23-0.23-0.34-0.59-0.34-1.08v-14.15c0-0.48,0.11-0.84,0.34-1.08c0.23-0.23,0.61-0.35,1.16-0.35h5.75
			c5.88,0,8.82,2.83,8.82,8.5c0,2.8-0.75,4.92-2.26,6.35c-1.51,1.43-3.7,2.15-6.56,2.15h-5.75
			C181.32,403.95,180.93,403.84,180.71,403.6z M187.85,399.7c0.93,0,1.6-0.31,2.01-0.92s0.61-1.73,0.61-3.33s-0.21-2.71-0.61-3.33
			c-0.41-0.62-1.08-0.92-2.01-0.92h-1.47v8.5H187.85z"/>
		<path d="M196.07,403.43c0-0.15,0.04-0.33,0.13-0.55l6.22-14.97c0.15-0.35,0.32-0.6,0.51-0.74s0.46-0.21,0.81-0.21h2.73
			c0.35,0,0.62,0.07,0.81,0.21c0.19,0.14,0.36,0.39,0.51,0.74l6.2,14.97c0.08,0.22,0.13,0.4,0.13,0.55c0,0.35-0.18,0.53-0.55,0.53
			h-4.7c-0.52,0-0.84-0.22-0.97-0.67l-0.6-1.85h-4.42l-0.58,1.85c-0.13,0.45-0.46,0.67-0.97,0.67h-4.7
			C196.25,403.95,196.07,403.78,196.07,403.43z M206.07,397.48l-0.97-3.1l-0.98,3.1H206.07z"/>
		<path d="M215.71,403.6c-0.22-0.23-0.34-0.59-0.34-1.08v-14.15c0-0.48,0.11-0.84,0.34-1.08c0.23-0.23,0.61-0.35,1.16-0.35h5.75
			c5.88,0,8.83,2.83,8.83,8.5c0,2.8-0.75,4.92-2.26,6.35c-1.51,1.43-3.7,2.15-6.56,2.15h-5.75
			C216.32,403.95,215.93,403.84,215.71,403.6z M222.85,399.7c0.93,0,1.6-0.31,2.01-0.92s0.61-1.73,0.61-3.33s-0.21-2.71-0.61-3.33
			c-0.41-0.62-1.08-0.92-2.01-0.92h-1.48v8.5H222.85z"/>
		<path d="M240.53,403.6c-0.23-0.23-0.34-0.59-0.34-1.08v-14.15c0-0.48,0.11-0.84,0.34-1.08c0.23-0.23,0.61-0.35,1.16-0.35h5.97
			c2.5,0,4.32,0.5,5.46,1.49c1.14,0.99,1.71,2.49,1.71,4.49s-0.57,3.49-1.71,4.48c-1.14,0.98-2.96,1.47-5.44,1.47h-1.5v3.65
			c0,0.48-0.11,0.84-0.34,1.08s-0.62,0.35-1.19,0.35h-2.97C241.14,403.95,240.76,403.84,240.53,403.6z M247.14,394.63
			c0.53,0,0.95-0.14,1.26-0.42c0.31-0.28,0.46-0.71,0.46-1.28c0-0.58-0.15-1.02-0.46-1.3c-0.31-0.28-0.73-0.42-1.26-0.42h-1.7v3.42
			H247.14z"/>
		<path d="M252.59,403.43c0-0.15,0.04-0.33,0.13-0.55l6.23-14.97c0.15-0.35,0.32-0.6,0.51-0.74s0.46-0.21,0.81-0.21h2.72
			c0.35,0,0.62,0.07,0.81,0.21s0.36,0.39,0.51,0.74l6.2,14.97c0.08,0.22,0.13,0.4,0.13,0.55c0,0.35-0.18,0.53-0.55,0.53h-4.7
			c-0.52,0-0.84-0.22-0.97-0.67l-0.6-1.85h-4.43l-0.57,1.85c-0.13,0.45-0.46,0.67-0.98,0.67h-4.7
			C252.78,403.95,252.59,403.78,252.59,403.43z M262.59,397.48l-0.98-3.1l-0.97,3.1H262.59z"/>
		<path d="M272.23,403.6c-0.22-0.23-0.34-0.59-0.34-1.08v-14.15c0-0.48,0.11-0.84,0.34-1.08c0.22-0.23,0.61-0.35,1.16-0.35h5.98
			c2.5,0,4.32,0.5,5.46,1.49c1.14,0.99,1.71,2.49,1.71,4.49c0,1.2-0.2,2.21-0.61,3.04c-0.41,0.83-1.04,1.47-1.89,1.94l2.33,4.97
			c0.07,0.13,0.1,0.28,0.1,0.45c0,0.18-0.06,0.33-0.19,0.45s-0.29,0.17-0.49,0.17h-4.22c-0.27,0-0.48-0.04-0.64-0.11
			c-0.16-0.08-0.27-0.2-0.34-0.39l-1.85-4.65h-0.85v3.73c0,0.48-0.11,0.84-0.34,1.08s-0.62,0.35-1.19,0.35h-2.98
			C272.85,403.95,272.46,403.84,272.23,403.6z M278.85,394.63c0.53,0,0.95-0.14,1.26-0.42s0.46-0.71,0.46-1.28
			c0-0.58-0.15-1.02-0.46-1.3c-0.31-0.28-0.73-0.42-1.26-0.42h-1.7v3.42H278.85z"/>
		<path d="M286.17,403.43c0-0.15,0.04-0.33,0.13-0.55l6.22-14.97c0.15-0.35,0.32-0.6,0.51-0.74s0.46-0.21,0.81-0.21h2.73
			c0.35,0,0.62,0.07,0.81,0.21c0.19,0.14,0.36,0.39,0.51,0.74l6.2,14.97c0.08,0.22,0.13,0.4,0.13,0.55c0,0.35-0.18,0.53-0.55,0.53
			h-4.7c-0.52,0-0.84-0.22-0.97-0.67l-0.6-1.85h-4.43l-0.57,1.85c-0.13,0.45-0.46,0.67-0.97,0.67h-4.7
			C286.35,403.95,286.17,403.78,286.17,403.43z M296.17,397.48l-0.98-3.1l-0.98,3.1H296.17z"/>
		<path d="M104.12,433.6c-0.22-0.23-0.34-0.59-0.34-1.08V421.2h-3.6c-0.53,0-0.9-0.11-1.09-0.34c-0.19-0.22-0.29-0.59-0.29-1.09
			v-1.4c0-0.5,0.1-0.86,0.29-1.09c0.19-0.23,0.55-0.34,1.09-0.34h13.2c0.53,0,0.9,0.11,1.09,0.34c0.19,0.22,0.29,0.59,0.29,1.09v1.4
			c0,0.5-0.1,0.86-0.29,1.09c-0.19,0.23-0.55,0.34-1.09,0.34h-3.6v11.33c0,0.48-0.11,0.84-0.34,1.08c-0.23,0.23-0.62,0.35-1.19,0.35
			h-2.98C104.73,433.95,104.35,433.84,104.12,433.6z"/>
		<path d="M115.85,433.6c-0.22-0.23-0.34-0.59-0.34-1.08v-14.15c0-0.48,0.11-0.84,0.34-1.08c0.22-0.23,0.61-0.35,1.16-0.35h5.98
			c2.5,0,4.32,0.5,5.46,1.49c1.14,0.99,1.71,2.49,1.71,4.49c0,1.2-0.2,2.21-0.61,3.04c-0.41,0.83-1.04,1.47-1.89,1.94l2.33,4.97
			c0.07,0.13,0.1,0.28,0.1,0.45c0,0.18-0.06,0.33-0.19,0.45s-0.29,0.17-0.49,0.17h-4.22c-0.27,0-0.48-0.04-0.64-0.11
			c-0.16-0.08-0.27-0.2-0.34-0.39l-1.85-4.65h-0.85v3.73c0,0.48-0.11,0.84-0.34,1.08s-0.62,0.35-1.19,0.35h-2.98
			C116.46,433.95,116.07,433.84,115.85,433.6z M122.46,424.63c0.53,0,0.95-0.14,1.26-0.42s0.46-0.71,0.46-1.28
			c0-0.58-0.15-1.02-0.46-1.3c-0.31-0.28-0.73-0.42-1.26-0.42h-1.7v3.42H122.46z"/>
		<path d="M129.78,433.43c0-0.15,0.04-0.33,0.13-0.55l6.22-14.97c0.15-0.35,0.32-0.6,0.51-0.74s0.46-0.21,0.81-0.21h2.73
			c0.35,0,0.62,0.07,0.81,0.21c0.19,0.14,0.36,0.39,0.51,0.74l6.2,14.97c0.08,0.22,0.13,0.4,0.13,0.55c0,0.35-0.18,0.53-0.55,0.53
			h-4.7c-0.52,0-0.84-0.22-0.97-0.67l-0.6-1.85h-4.42l-0.58,1.85c-0.13,0.45-0.46,0.67-0.97,0.67h-4.7
			C129.97,433.95,129.78,433.78,129.78,433.43z M139.78,427.48l-0.97-3.1l-0.98,3.1H139.78z"/>
		<path d="M149.42,433.6c-0.22-0.23-0.34-0.59-0.34-1.08v-14.17c0-0.48,0.11-0.84,0.34-1.06c0.23-0.23,0.62-0.34,1.19-0.34h2.38
			c0.35,0,0.62,0.05,0.81,0.14s0.38,0.27,0.56,0.54l4.53,6.73v-5.98c0-0.48,0.11-0.84,0.34-1.08c0.22-0.23,0.61-0.35,1.16-0.35h2.97
			c0.57,0,0.96,0.11,1.19,0.34c0.23,0.22,0.34,0.59,0.34,1.09v14.17c0,0.48-0.11,0.84-0.34,1.06c-0.22,0.23-0.62,0.34-1.19,0.34
			h-2.38c-0.35,0-0.62-0.05-0.81-0.14c-0.19-0.09-0.38-0.27-0.56-0.54l-4.52-6.73v6c0,0.48-0.11,0.84-0.34,1.06
			c-0.23,0.23-0.62,0.34-1.19,0.34h-2.98C150.03,433.95,149.65,433.84,149.42,433.6z"/>
		<path d="M169.81,433.85c-1.3-0.32-2.35-0.76-3.15-1.33c-0.33-0.23-0.5-0.46-0.5-0.67c0-0.15,0.06-0.31,0.17-0.48l1.45-2.27
			c0.15-0.22,0.3-0.33,0.45-0.33c0.13,0,0.29,0.06,0.48,0.17c0.6,0.37,1.29,0.65,2.06,0.86c0.77,0.21,1.53,0.31,2.26,0.31
			c0.62,0,1.06-0.08,1.34-0.25c0.28-0.17,0.41-0.42,0.41-0.77c0-0.38-0.18-0.69-0.55-0.93c-0.37-0.23-1-0.52-1.9-0.88
			c-1.68-0.65-3.01-1.39-3.98-2.21s-1.45-1.92-1.45-3.29c0-1.73,0.6-3.04,1.81-3.91c1.21-0.88,2.84-1.31,4.89-1.31
			c1.43,0,2.65,0.13,3.66,0.38c1.01,0.25,1.89,0.64,2.64,1.17c0.33,0.23,0.5,0.46,0.5,0.67c0,0.15-0.06,0.31-0.18,0.48l-1.45,2.27
			c-0.15,0.23-0.3,0.35-0.45,0.35c-0.1,0-0.26-0.07-0.48-0.2c-0.4-0.27-0.88-0.49-1.42-0.66c-0.55-0.18-1.14-0.26-1.77-0.26
			c-0.58,0-1.03,0.08-1.33,0.25s-0.45,0.43-0.45,0.8c0,0.3,0.1,0.55,0.31,0.75c0.21,0.2,0.47,0.37,0.79,0.51s0.87,0.37,1.65,0.69
			c1.25,0.5,2.23,0.98,2.95,1.44c0.72,0.46,1.26,1.01,1.63,1.65c0.37,0.64,0.55,1.46,0.55,2.44c0,1.5-0.56,2.71-1.69,3.64
			s-2.8,1.39-5.04,1.39C172.52,434.33,171.11,434.17,169.81,433.85z"/>
		<path d="M180.38,433.43c0-0.15,0.04-0.33,0.13-0.55l6.22-14.97c0.15-0.35,0.32-0.6,0.51-0.74s0.46-0.21,0.81-0.21h2.73
			c0.35,0,0.62,0.07,0.81,0.21c0.19,0.14,0.36,0.39,0.51,0.74l6.2,14.97c0.08,0.22,0.13,0.4,0.13,0.55c0,0.35-0.18,0.53-0.55,0.53
			h-4.7c-0.52,0-0.84-0.22-0.97-0.67l-0.6-1.85h-4.42l-0.58,1.85c-0.13,0.45-0.46,0.67-0.97,0.67h-4.7
			C180.57,433.95,180.38,433.78,180.38,433.43z M190.38,427.48l-0.97-3.1l-0.98,3.1H190.38z"/>
		<path d="M200.33,432.09c-1.68-1.49-2.52-3.7-2.52-6.64c0-2.95,0.81-5.17,2.44-6.65c1.63-1.48,3.95-2.22,6.96-2.22
			c1.37,0,2.58,0.13,3.65,0.4s1.96,0.64,2.68,1.13c0.2,0.15,0.3,0.32,0.3,0.5c0,0.15-0.08,0.36-0.23,0.63l-1.25,2.15
			c-0.13,0.23-0.29,0.35-0.47,0.35c-0.12,0-0.31-0.07-0.57-0.2c-0.47-0.23-0.96-0.42-1.46-0.55c-0.51-0.13-1.1-0.2-1.79-0.2
			c-1.38,0-2.44,0.4-3.18,1.2c-0.73,0.8-1.1,1.96-1.1,3.47c0,1.5,0.4,2.65,1.2,3.46c0.8,0.81,1.89,1.21,3.28,1.21
			c1.2,0,2.3-0.25,3.3-0.75c0.27-0.13,0.46-0.2,0.57-0.2c0.18,0,0.34,0.12,0.47,0.35l1.25,2.15c0.15,0.27,0.23,0.48,0.23,0.63
			c0,0.18-0.1,0.35-0.3,0.5c-0.72,0.48-1.62,0.86-2.7,1.13c-1.08,0.27-2.31,0.4-3.67,0.4C204.38,434.33,202.02,433.58,200.33,432.09
			z"/>
		<path d="M216.73,432.09c-1.68-1.49-2.52-3.7-2.52-6.64c0-2.95,0.81-5.17,2.44-6.65c1.63-1.48,3.95-2.22,6.96-2.22
			c1.37,0,2.58,0.13,3.65,0.4s1.96,0.64,2.68,1.13c0.2,0.15,0.3,0.32,0.3,0.5c0,0.15-0.07,0.36-0.22,0.63l-1.25,2.15
			c-0.13,0.23-0.29,0.35-0.47,0.35c-0.12,0-0.31-0.07-0.58-0.2c-0.47-0.23-0.95-0.42-1.46-0.55c-0.51-0.13-1.11-0.2-1.79-0.2
			c-1.38,0-2.44,0.4-3.17,1.2c-0.73,0.8-1.1,1.96-1.1,3.47c0,1.5,0.4,2.65,1.2,3.46c0.8,0.81,1.89,1.21,3.28,1.21
			c1.2,0,2.3-0.25,3.3-0.75c0.27-0.13,0.46-0.2,0.58-0.2c0.18,0,0.34,0.12,0.47,0.35l1.25,2.15c0.15,0.27,0.22,0.48,0.22,0.63
			c0,0.18-0.1,0.35-0.3,0.5c-0.72,0.48-1.62,0.86-2.7,1.13c-1.08,0.27-2.31,0.4-3.67,0.4C220.77,434.33,218.42,433.58,216.73,432.09
			z"/>
		<path d="M232.07,433.6c-0.22-0.23-0.34-0.59-0.34-1.08v-14.15c0-0.48,0.11-0.84,0.34-1.08c0.22-0.23,0.61-0.35,1.16-0.35h2.98
			c0.57,0,0.96,0.11,1.19,0.34c0.23,0.22,0.34,0.59,0.34,1.09v14.15c0,0.48-0.11,0.84-0.34,1.08s-0.62,0.35-1.19,0.35h-2.98
			C232.68,433.95,232.29,433.84,232.07,433.6z"/>
		<path d="M241.28,432.01c-1.53-1.54-2.3-3.73-2.3-6.56c0-2.83,0.77-5.02,2.3-6.56c1.53-1.54,3.78-2.31,6.75-2.31
			s5.22,0.77,6.75,2.31c1.53,1.54,2.3,3.73,2.3,6.56c0,2.83-0.77,5.02-2.3,6.56c-1.53,1.54-3.78,2.31-6.75,2.31
			S242.82,433.56,241.28,432.01z M250.38,428.96c0.48-0.78,0.72-1.95,0.72-3.51c0-1.58-0.24-2.76-0.72-3.53
			c-0.48-0.77-1.27-1.15-2.35-1.15c-1.08,0-1.87,0.38-2.35,1.15c-0.48,0.77-0.73,1.94-0.73,3.53c0,1.57,0.24,2.74,0.73,3.51
			c0.48,0.77,1.27,1.16,2.35,1.16C249.12,430.13,249.9,429.74,250.38,428.96z"/>
		<path d="M258.67,433.6c-0.22-0.23-0.34-0.59-0.34-1.08v-14.17c0-0.48,0.11-0.84,0.34-1.06c0.23-0.23,0.62-0.34,1.19-0.34h2.38
			c0.35,0,0.62,0.05,0.81,0.14s0.38,0.27,0.56,0.54l4.53,6.73v-5.98c0-0.48,0.11-0.84,0.34-1.08c0.22-0.23,0.61-0.35,1.16-0.35h2.97
			c0.57,0,0.96,0.11,1.19,0.34c0.23,0.22,0.34,0.59,0.34,1.09v14.17c0,0.48-0.11,0.84-0.34,1.06c-0.22,0.23-0.62,0.34-1.19,0.34
			h-2.38c-0.35,0-0.62-0.05-0.81-0.14c-0.19-0.09-0.38-0.27-0.56-0.54l-4.52-6.73v6c0,0.48-0.11,0.84-0.34,1.06
			c-0.23,0.23-0.62,0.34-1.19,0.34h-2.98C259.28,433.95,258.9,433.84,258.67,433.6z"/>
		<path d="M276.22,433.6c-0.23-0.23-0.34-0.59-0.34-1.08v-14.15c0-0.48,0.11-0.84,0.34-1.08c0.22-0.23,0.61-0.35,1.16-0.35h10.35
			c0.53,0,0.9,0.11,1.09,0.34c0.19,0.22,0.29,0.59,0.29,1.09v1.4c0,0.5-0.1,0.86-0.29,1.09c-0.19,0.23-0.55,0.34-1.09,0.34h-5.85
			v2.15h3.6c0.53,0,0.9,0.11,1.09,0.34c0.19,0.23,0.29,0.59,0.29,1.09v1.35c0,0.5-0.1,0.86-0.29,1.09
			c-0.19,0.22-0.55,0.34-1.09,0.34h-3.6v2.15h5.83c0.53,0,0.9,0.11,1.09,0.34c0.19,0.22,0.29,0.59,0.29,1.09v1.4
			c0,0.5-0.1,0.86-0.29,1.09c-0.19,0.23-0.55,0.34-1.09,0.34h-10.33C276.83,433.95,276.45,433.84,276.22,433.6z"/>
		<path d="M293.41,433.85c-1.3-0.32-2.35-0.76-3.15-1.33c-0.33-0.23-0.5-0.46-0.5-0.67c0-0.15,0.06-0.31,0.17-0.48l1.45-2.27
			c0.15-0.22,0.3-0.33,0.45-0.33c0.13,0,0.29,0.06,0.48,0.17c0.6,0.37,1.29,0.65,2.06,0.86c0.77,0.21,1.53,0.31,2.26,0.31
			c0.62,0,1.06-0.08,1.34-0.25c0.28-0.17,0.41-0.42,0.41-0.77c0-0.38-0.18-0.69-0.55-0.93c-0.37-0.23-1-0.52-1.9-0.88
			c-1.68-0.65-3.01-1.39-3.98-2.21s-1.45-1.92-1.45-3.29c0-1.73,0.6-3.04,1.81-3.91c1.21-0.88,2.84-1.31,4.89-1.31
			c1.43,0,2.65,0.13,3.66,0.38c1.01,0.25,1.89,0.64,2.64,1.17c0.33,0.23,0.5,0.46,0.5,0.67c0,0.15-0.06,0.31-0.18,0.48l-1.45,2.27
			c-0.15,0.23-0.3,0.35-0.45,0.35c-0.1,0-0.26-0.07-0.48-0.2c-0.4-0.27-0.88-0.49-1.42-0.66c-0.55-0.18-1.14-0.26-1.77-0.26
			c-0.58,0-1.03,0.08-1.33,0.25s-0.45,0.43-0.45,0.8c0,0.3,0.1,0.55,0.31,0.75c0.21,0.2,0.47,0.37,0.79,0.51s0.87,0.37,1.65,0.69
			c1.25,0.5,2.23,0.98,2.95,1.44c0.72,0.46,1.26,1.01,1.63,1.65c0.37,0.64,0.55,1.46,0.55,2.44c0,1.5-0.56,2.71-1.69,3.64
			s-2.8,1.39-5.04,1.39C296.12,434.33,294.71,434.17,293.41,433.85z"/>
		<path d="M121.92,464.68c-0.89-1.07-1.58-2.35-2.08-3.85s-0.74-3.09-0.74-4.78c0-1.68,0.25-3.27,0.74-4.77s1.18-2.78,2.08-3.85
			c0.89-1.07,1.9-1.8,3.04-2.2c0.77-0.27,1.38-0.4,1.82-0.4c0.47,0,0.82,0.14,1.05,0.41c0.23,0.28,0.35,0.72,0.35,1.34
			c0,0.52-0.02,0.9-0.05,1.14s-0.12,0.45-0.25,0.64c-0.13,0.18-0.36,0.42-0.67,0.7c-0.82,0.72-1.38,1.62-1.68,2.7
			c-0.3,1.08-0.45,2.52-0.45,4.3c0,1.78,0.15,3.22,0.45,4.3c0.3,1.08,0.86,1.98,1.68,2.7c0.32,0.28,0.54,0.52,0.67,0.7
			c0.13,0.18,0.22,0.4,0.25,0.64c0.03,0.24,0.05,0.62,0.05,1.14c0,0.62-0.12,1.06-0.35,1.34c-0.23,0.28-0.58,0.41-1.05,0.41
			c-0.45,0-1.06-0.13-1.82-0.4C123.82,466.48,122.81,465.74,121.92,464.68z"/>
		<path d="M129.52,463.6c-0.23-0.23-0.34-0.59-0.34-1.08v-14.15c0-0.48,0.11-0.84,0.34-1.08c0.23-0.23,0.61-0.35,1.16-0.35h7.57
			c2.03,0,3.53,0.43,4.49,1.3c0.96,0.87,1.44,2.1,1.44,3.7c0,0.75-0.16,1.41-0.49,1.99c-0.32,0.58-0.75,0.98-1.29,1.21
			c1.48,0.5,2.22,1.67,2.22,3.5c0,1.57-0.55,2.84-1.66,3.83c-1.11,0.98-2.74,1.47-4.89,1.47h-7.4
			C130.13,463.95,129.75,463.84,129.52,463.6z M137.06,453.38c0.77,0,1.15-0.37,1.15-1.1s-0.38-1.1-1.15-1.1h-1.9v2.2H137.06z
			 M137.48,459.73c0.35,0,0.63-0.11,0.85-0.34c0.22-0.22,0.33-0.53,0.33-0.91c0-0.4-0.1-0.71-0.31-0.93
			c-0.21-0.22-0.5-0.32-0.86-0.32h-2.32v2.5H137.48z"/>
		<path d="M146.22,463.6c-0.22-0.23-0.34-0.59-0.34-1.08v-14.15c0-0.48,0.11-0.84,0.34-1.08c0.22-0.23,0.61-0.35,1.16-0.35h2.98
			c0.57,0,0.96,0.11,1.19,0.34c0.23,0.22,0.34,0.59,0.34,1.09v11.33h5.83c0.53,0,0.89,0.11,1.09,0.34c0.19,0.22,0.29,0.59,0.29,1.09
			v1.4c0,0.5-0.1,0.86-0.29,1.09c-0.19,0.23-0.55,0.34-1.09,0.34h-10.33C146.83,463.95,146.45,463.84,146.22,463.6z"/>
		<path d="M160.51,462.01c-1.53-1.54-2.3-3.73-2.3-6.56c0-2.83,0.77-5.02,2.3-6.56c1.53-1.54,3.78-2.31,6.75-2.31
			s5.22,0.77,6.75,2.31c1.53,1.54,2.3,3.73,2.3,6.56c0,2.83-0.77,5.02-2.3,6.56c-1.53,1.54-3.78,2.31-6.75,2.31
			S162.04,463.56,160.51,462.01z M169.61,458.96c0.48-0.78,0.73-1.95,0.73-3.51c0-1.58-0.24-2.76-0.73-3.53
			c-0.48-0.77-1.27-1.15-2.35-1.15c-1.08,0-1.87,0.38-2.35,1.15c-0.48,0.77-0.72,1.94-0.72,3.53c0,1.57,0.24,2.74,0.72,3.51
			c0.48,0.77,1.27,1.16,2.35,1.16C168.34,460.13,169.13,459.74,169.61,458.96z"/>
		<path d="M185.75,467.26c-1.06-0.81-1.71-1.85-1.96-3.14c-2.22-0.37-3.89-1.3-5.03-2.79s-1.7-3.45-1.7-5.89
			c0-2.83,0.77-5.02,2.3-6.56c1.53-1.54,3.78-2.31,6.75-2.31s5.22,0.77,6.75,2.31c1.53,1.54,2.3,3.73,2.3,6.56
			c0,2.48-0.6,4.45-1.81,5.9c-1.21,1.45-3.01,2.35-5.41,2.7c0.13,0.27,0.38,0.47,0.72,0.6c0.35,0.13,0.72,0.2,1.1,0.2
			c0.77,0,1.41-0.18,1.93-0.53c0.15-0.1,0.27-0.15,0.35-0.15c0.13,0,0.23,0.08,0.3,0.23l1.35,2.13c0.08,0.13,0.13,0.23,0.13,0.3
			s-0.03,0.13-0.09,0.2c-0.06,0.07-0.13,0.14-0.21,0.22c-0.48,0.4-1.02,0.7-1.61,0.91c-0.59,0.21-1.3,0.31-2.14,0.31
			C188.14,468.48,186.8,468.07,185.75,467.26z M188.46,458.96c0.48-0.78,0.73-1.95,0.73-3.51c0-1.58-0.24-2.76-0.73-3.53
			c-0.48-0.77-1.27-1.15-2.35-1.15c-1.08,0-1.87,0.38-2.35,1.15c-0.48,0.77-0.72,1.94-0.72,3.53c0,1.57,0.24,2.74,0.72,3.51
			c0.48,0.77,1.27,1.16,2.35,1.16C187.19,460.13,187.97,459.74,188.46,458.96z"/>
		<path d="M200.18,463.54c-1.23-0.53-2.19-1.28-2.88-2.28c-0.68-0.99-1.03-2.17-1.03-3.54v-9.35c0-0.48,0.11-0.84,0.34-1.08
			c0.22-0.23,0.61-0.35,1.16-0.35h2.97c0.57,0,0.96,0.11,1.19,0.34c0.23,0.22,0.34,0.59,0.34,1.09v9.42c0,0.78,0.2,1.37,0.59,1.75
			c0.39,0.38,0.93,0.58,1.61,0.58c0.68,0,1.22-0.19,1.61-0.58c0.39-0.38,0.59-0.97,0.59-1.75v-9.42c0-0.48,0.11-0.84,0.34-1.08
			c0.23-0.23,0.61-0.35,1.16-0.35h2.97c0.57,0,0.96,0.11,1.19,0.34c0.22,0.22,0.34,0.59,0.34,1.09v9.35c0,1.37-0.34,2.55-1.03,3.54
			c-0.68,0.99-1.64,1.75-2.88,2.28c-1.23,0.52-2.67,0.79-4.3,0.79C202.85,464.33,201.42,464.06,200.18,463.54z"/>
		<path d="M214.65,463.6c-0.23-0.23-0.34-0.59-0.34-1.08v-14.15c0-0.48,0.11-0.84,0.34-1.08c0.23-0.23,0.61-0.35,1.16-0.35h10.35
			c0.53,0,0.9,0.11,1.09,0.34c0.19,0.22,0.29,0.59,0.29,1.09v1.4c0,0.5-0.1,0.86-0.29,1.09c-0.19,0.23-0.55,0.34-1.09,0.34h-5.85
			v2.15h3.6c0.53,0,0.9,0.11,1.09,0.34c0.19,0.23,0.29,0.59,0.29,1.09v1.35c0,0.5-0.1,0.86-0.29,1.09
			c-0.19,0.22-0.55,0.34-1.09,0.34h-3.6v2.15h5.82c0.53,0,0.9,0.11,1.09,0.34c0.19,0.22,0.29,0.59,0.29,1.09v1.4
			c0,0.5-0.1,0.86-0.29,1.09c-0.19,0.23-0.55,0.34-1.09,0.34h-10.32C215.26,463.95,214.87,463.84,214.65,463.6z"/>
		<path d="M229.58,462.01c-1.53-1.54-2.3-3.73-2.3-6.56c0-2.83,0.77-5.02,2.3-6.56c1.53-1.54,3.78-2.31,6.75-2.31
			s5.22,0.77,6.75,2.31c1.53,1.54,2.3,3.73,2.3,6.56c0,2.83-0.77,5.02-2.3,6.56c-1.53,1.54-3.78,2.31-6.75,2.31
			S231.12,463.56,229.58,462.01z M238.68,458.96c0.48-0.78,0.73-1.95,0.73-3.51c0-1.58-0.24-2.76-0.73-3.53
			c-0.48-0.77-1.27-1.15-2.35-1.15c-1.08,0-1.87,0.38-2.35,1.15c-0.48,0.77-0.72,1.94-0.72,3.53c0,1.57,0.24,2.74,0.72,3.51
			c0.48,0.77,1.27,1.16,2.35,1.16C237.42,460.13,238.2,459.74,238.68,458.96z"/>
		<path d="M254.47,463.6c-0.23-0.23-0.34-0.59-0.34-1.08v-14.15c0-0.48,0.11-0.84,0.34-1.08c0.23-0.23,0.61-0.35,1.16-0.35h5.75
			c5.88,0,8.82,2.83,8.82,8.5c0,2.8-0.75,4.92-2.26,6.35c-1.51,1.43-3.7,2.15-6.56,2.15h-5.75
			C255.08,463.95,254.7,463.84,254.47,463.6z M261.61,459.7c0.93,0,1.6-0.31,2.01-0.92s0.61-1.73,0.61-3.33s-0.21-2.71-0.61-3.33
			c-0.41-0.62-1.08-0.92-2.01-0.92h-1.47v8.5H261.61z"/>
		<path d="M271.79,463.6c-0.22-0.23-0.34-0.59-0.34-1.08v-14.15c0-0.48,0.11-0.84,0.34-1.08c0.22-0.23,0.61-0.35,1.16-0.35h10.35
			c0.53,0,0.9,0.11,1.09,0.34c0.19,0.22,0.29,0.59,0.29,1.09v1.4c0,0.5-0.1,0.86-0.29,1.09c-0.19,0.23-0.55,0.34-1.09,0.34h-5.85
			v2.15h3.6c0.53,0,0.9,0.11,1.09,0.34c0.19,0.23,0.29,0.59,0.29,1.09v1.35c0,0.5-0.1,0.86-0.29,1.09
			c-0.19,0.22-0.55,0.34-1.09,0.34h-3.6v2.15h5.83c0.53,0,0.89,0.11,1.09,0.34c0.19,0.22,0.29,0.59,0.29,1.09v1.4
			c0,0.5-0.1,0.86-0.29,1.09c-0.19,0.23-0.55,0.34-1.09,0.34h-10.33C272.41,463.95,272.02,463.84,271.79,463.6z"/>
		<path d="M72.6,493.6c-0.22-0.23-0.34-0.59-0.34-1.08v-14.15c0-0.48,0.11-0.84,0.34-1.08c0.23-0.23,0.61-0.35,1.16-0.35h5.98
			c2.5,0,4.32,0.5,5.46,1.49c1.14,0.99,1.71,2.49,1.71,4.49s-0.57,3.49-1.71,4.48s-2.95,1.47-5.44,1.47h-1.5v3.65
			c0,0.48-0.11,0.84-0.34,1.08c-0.23,0.23-0.62,0.35-1.19,0.35h-2.98C73.21,493.95,72.82,493.84,72.6,493.6z M79.21,484.63
			c0.53,0,0.95-0.14,1.26-0.42s0.46-0.71,0.46-1.28c0-0.58-0.15-1.02-0.46-1.3c-0.31-0.28-0.73-0.42-1.26-0.42h-1.7v3.42H79.21z"/>
		<path d="M88,493.6c-0.22-0.23-0.34-0.59-0.34-1.08v-14.15c0-0.48,0.11-0.84,0.34-1.08c0.22-0.23,0.61-0.35,1.16-0.35h5.98
			c2.5,0,4.32,0.5,5.46,1.49c1.14,0.99,1.71,2.49,1.71,4.49c0,1.2-0.2,2.21-0.61,3.04c-0.41,0.83-1.04,1.47-1.89,1.94l2.33,4.97
			c0.07,0.13,0.1,0.28,0.1,0.45c0,0.18-0.06,0.33-0.19,0.45s-0.29,0.17-0.49,0.17h-4.22c-0.27,0-0.48-0.04-0.64-0.11
			c-0.16-0.08-0.27-0.2-0.34-0.39l-1.85-4.65h-0.85v3.73c0,0.48-0.11,0.84-0.34,1.08s-0.62,0.35-1.19,0.35h-2.98
			C88.61,493.95,88.22,493.84,88,493.6z M94.61,484.63c0.53,0,0.95-0.14,1.26-0.42s0.46-0.71,0.46-1.28c0-0.58-0.15-1.02-0.46-1.3
			c-0.31-0.28-0.73-0.42-1.26-0.42h-1.7v3.42H94.61z"/>
		<path d="M105.36,492.01c-1.53-1.54-2.3-3.73-2.3-6.56c0-2.83,0.77-5.02,2.3-6.56c1.53-1.54,3.78-2.31,6.75-2.31
			s5.22,0.77,6.75,2.31c1.53,1.54,2.3,3.73,2.3,6.56c0,2.83-0.77,5.02-2.3,6.56c-1.53,1.54-3.78,2.31-6.75,2.31
			S106.89,493.56,105.36,492.01z M114.46,488.96c0.48-0.78,0.72-1.95,0.72-3.51c0-1.58-0.24-2.76-0.72-3.53
			c-0.48-0.77-1.27-1.15-2.35-1.15s-1.87,0.38-2.35,1.15c-0.48,0.77-0.73,1.94-0.73,3.53c0,1.57,0.24,2.74,0.73,3.51
			c0.48,0.77,1.27,1.16,2.35,1.16S113.97,489.74,114.46,488.96z"/>
		<path d="M122.75,493.6c-0.23-0.23-0.34-0.59-0.34-1.08v-14.15c0-0.48,0.11-0.84,0.34-1.08c0.22-0.23,0.61-0.35,1.16-0.35h5.75
			c5.88,0,8.83,2.83,8.83,8.5c0,2.8-0.75,4.92-2.26,6.35c-1.51,1.43-3.7,2.15-6.56,2.15h-5.75
			C123.36,493.95,122.97,493.84,122.75,493.6z M129.88,489.7c0.93,0,1.6-0.31,2.01-0.92s0.61-1.73,0.61-3.33s-0.2-2.71-0.61-3.33
			c-0.41-0.62-1.08-0.92-2.01-0.92h-1.47v8.5H129.88z"/>
		<path d="M143.51,493.54c-1.23-0.53-2.19-1.28-2.88-2.28c-0.68-0.99-1.02-2.17-1.02-3.54v-9.35c0-0.48,0.11-0.84,0.34-1.08
			c0.23-0.23,0.61-0.35,1.16-0.35h2.98c0.57,0,0.96,0.11,1.19,0.34c0.22,0.22,0.34,0.59,0.34,1.09v9.42c0,0.78,0.2,1.37,0.59,1.75
			c0.39,0.38,0.93,0.58,1.61,0.58s1.22-0.19,1.61-0.58c0.39-0.38,0.59-0.97,0.59-1.75v-9.42c0-0.48,0.11-0.84,0.34-1.08
			c0.22-0.23,0.61-0.35,1.16-0.35h2.98c0.57,0,0.96,0.11,1.19,0.34c0.23,0.22,0.34,0.59,0.34,1.09v9.35c0,1.37-0.34,2.55-1.02,3.54
			c-0.68,0.99-1.64,1.75-2.88,2.28c-1.23,0.52-2.67,0.79-4.3,0.79C146.17,494.33,144.74,494.06,143.51,493.54z"/>
		<path d="M159.66,492.09c-1.68-1.49-2.53-3.7-2.53-6.64c0-2.95,0.81-5.17,2.44-6.65c1.63-1.48,3.95-2.22,6.96-2.22
			c1.37,0,2.58,0.13,3.65,0.4s1.96,0.64,2.67,1.13c0.2,0.15,0.3,0.32,0.3,0.5c0,0.15-0.08,0.36-0.23,0.63l-1.25,2.15
			c-0.13,0.23-0.29,0.35-0.47,0.35c-0.12,0-0.31-0.07-0.58-0.2c-0.47-0.23-0.95-0.42-1.46-0.55c-0.51-0.13-1.1-0.2-1.79-0.2
			c-1.38,0-2.44,0.4-3.17,1.2c-0.73,0.8-1.1,1.96-1.1,3.47c0,1.5,0.4,2.65,1.2,3.46s1.89,1.21,3.28,1.21c1.2,0,2.3-0.25,3.3-0.75
			c0.27-0.13,0.46-0.2,0.58-0.2c0.18,0,0.34,0.12,0.47,0.35l1.25,2.15c0.15,0.27,0.23,0.48,0.23,0.63c0,0.18-0.1,0.35-0.3,0.5
			c-0.72,0.48-1.62,0.86-2.7,1.13c-1.08,0.27-2.31,0.4-3.68,0.4C163.7,494.33,161.34,493.58,159.66,492.09z"/>
		<path d="M178.35,493.6c-0.22-0.23-0.34-0.59-0.34-1.08V481.2h-3.6c-0.53,0-0.9-0.11-1.09-0.34c-0.19-0.22-0.29-0.59-0.29-1.09
			v-1.4c0-0.5,0.1-0.86,0.29-1.09c0.19-0.23,0.55-0.34,1.09-0.34h13.2c0.53,0,0.9,0.11,1.09,0.34c0.19,0.22,0.29,0.59,0.29,1.09v1.4
			c0,0.5-0.1,0.86-0.29,1.09c-0.19,0.23-0.55,0.34-1.09,0.34h-3.6v11.33c0,0.48-0.11,0.84-0.34,1.08c-0.23,0.23-0.62,0.35-1.19,0.35
			h-2.98C178.96,493.95,178.57,493.84,178.35,493.6z"/>
		<path d="M190.41,492.01c-1.53-1.54-2.3-3.73-2.3-6.56c0-2.83,0.77-5.02,2.3-6.56c1.53-1.54,3.78-2.31,6.75-2.31
			s5.22,0.77,6.75,2.31c1.53,1.54,2.3,3.73,2.3,6.56c0,2.83-0.77,5.02-2.3,6.56c-1.53,1.54-3.78,2.31-6.75,2.31
			S191.94,493.56,190.41,492.01z M199.51,488.96c0.48-0.78,0.72-1.95,0.72-3.51c0-1.58-0.24-2.76-0.72-3.53
			c-0.48-0.77-1.27-1.15-2.35-1.15c-1.08,0-1.87,0.38-2.35,1.15c-0.48,0.77-0.73,1.94-0.73,3.53c0,1.57,0.24,2.74,0.73,3.51
			c0.48,0.77,1.27,1.16,2.35,1.16C198.24,490.13,199.02,489.74,199.51,488.96z"/>
		<path d="M209.51,493.85c-1.3-0.32-2.35-0.76-3.15-1.33c-0.33-0.23-0.5-0.46-0.5-0.67c0-0.15,0.06-0.31,0.18-0.48l1.45-2.27
			c0.15-0.22,0.3-0.33,0.45-0.33c0.13,0,0.29,0.06,0.47,0.17c0.6,0.37,1.29,0.65,2.06,0.86c0.78,0.21,1.53,0.31,2.26,0.31
			c0.62,0,1.06-0.08,1.34-0.25c0.28-0.17,0.41-0.42,0.41-0.77c0-0.38-0.18-0.69-0.55-0.93c-0.37-0.23-1-0.52-1.9-0.88
			c-1.68-0.65-3.01-1.39-3.97-2.21c-0.97-0.83-1.45-1.92-1.45-3.29c0-1.73,0.6-3.04,1.81-3.91c1.21-0.88,2.84-1.31,4.89-1.31
			c1.43,0,2.65,0.13,3.66,0.38c1.01,0.25,1.89,0.64,2.64,1.17c0.33,0.23,0.5,0.46,0.5,0.67c0,0.15-0.06,0.31-0.17,0.48l-1.45,2.27
			c-0.15,0.23-0.3,0.35-0.45,0.35c-0.1,0-0.26-0.07-0.47-0.2c-0.4-0.27-0.88-0.49-1.43-0.66c-0.55-0.18-1.14-0.26-1.78-0.26
			c-0.58,0-1.02,0.08-1.32,0.25c-0.3,0.17-0.45,0.43-0.45,0.8c0,0.3,0.1,0.55,0.31,0.75s0.47,0.37,0.79,0.51
			c0.32,0.14,0.87,0.37,1.65,0.69c1.25,0.5,2.23,0.98,2.95,1.44s1.26,1.01,1.63,1.65c0.37,0.64,0.55,1.46,0.55,2.44
			c0,1.5-0.56,2.71-1.69,3.64s-2.8,1.39-5.04,1.39C212.22,494.33,210.81,494.17,209.51,493.85z"/>
		<path d="M221.23,496.35c0-0.07,0.02-0.18,0.05-0.35l1.22-4.38c0.12-0.43,0.27-0.72,0.46-0.85c0.19-0.13,0.51-0.2,0.96-0.2h2.35
			c0.38,0,0.66,0.05,0.82,0.15c0.17,0.1,0.25,0.26,0.25,0.47c0,0.23-0.07,0.51-0.2,0.83l-1.8,4.25c-0.1,0.22-0.23,0.38-0.39,0.49
			c-0.16,0.11-0.39,0.16-0.69,0.16h-2.3C221.48,496.93,221.23,496.74,221.23,496.35z"/>
		<path d="M238.16,492.09c-1.68-1.49-2.52-3.7-2.52-6.64c0-2.95,0.81-5.17,2.44-6.65c1.63-1.48,3.95-2.22,6.96-2.22
			c1.37,0,2.58,0.13,3.65,0.4s1.96,0.64,2.68,1.13c0.2,0.15,0.3,0.32,0.3,0.5c0,0.15-0.07,0.36-0.22,0.63l-1.25,2.15
			c-0.13,0.23-0.29,0.35-0.47,0.35c-0.12,0-0.31-0.07-0.58-0.2c-0.47-0.23-0.95-0.42-1.46-0.55c-0.51-0.13-1.11-0.2-1.79-0.2
			c-1.38,0-2.44,0.4-3.17,1.2c-0.73,0.8-1.1,1.96-1.1,3.47c0,1.5,0.4,2.65,1.2,3.46c0.8,0.81,1.89,1.21,3.28,1.21
			c1.2,0,2.3-0.25,3.3-0.75c0.27-0.13,0.46-0.2,0.58-0.2c0.18,0,0.34,0.12,0.47,0.35l1.25,2.15c0.15,0.27,0.22,0.48,0.22,0.63
			c0,0.18-0.1,0.35-0.3,0.5c-0.72,0.48-1.62,0.86-2.7,1.13c-1.08,0.27-2.31,0.4-3.67,0.4C242.2,494.33,239.84,493.58,238.16,492.09z
			"/>
		<path d="M252.03,493.43c0-0.15,0.04-0.33,0.13-0.55l6.23-14.97c0.15-0.35,0.32-0.6,0.51-0.74s0.46-0.21,0.81-0.21h2.72
			c0.35,0,0.62,0.07,0.81,0.21s0.36,0.39,0.51,0.74l6.2,14.97c0.08,0.22,0.13,0.4,0.13,0.55c0,0.35-0.18,0.53-0.55,0.53h-4.7
			c-0.52,0-0.84-0.22-0.97-0.67l-0.6-1.85h-4.43l-0.57,1.85c-0.13,0.45-0.46,0.67-0.98,0.67h-4.7
			C252.21,493.95,252.03,493.78,252.03,493.43z M262.03,487.48l-0.98-3.1l-0.97,3.1H262.03z"/>
		<path d="M271.04,493.6c-0.22-0.23-0.34-0.59-0.34-1.08v-14.17c0-0.48,0.11-0.84,0.34-1.06c0.22-0.23,0.62-0.34,1.19-0.34h2.88
			c0.37,0,0.66,0.05,0.88,0.14s0.38,0.27,0.5,0.54l2.93,7.33l2.92-7.33c0.12-0.27,0.28-0.45,0.5-0.54s0.51-0.14,0.88-0.14h2.88
			c0.57,0,0.96,0.11,1.19,0.34c0.23,0.22,0.34,0.58,0.34,1.06v14.17c0,0.48-0.11,0.84-0.34,1.08c-0.22,0.23-0.61,0.35-1.16,0.35
			h-2.4c-0.55,0-0.94-0.12-1.17-0.35c-0.23-0.23-0.35-0.59-0.35-1.08v-6.83l-1.48,3.4c-0.2,0.48-0.42,0.83-0.65,1.04
			c-0.23,0.21-0.62,0.31-1.15,0.31c-0.53,0-0.92-0.1-1.15-0.31c-0.23-0.21-0.45-0.55-0.65-1.04l-1.47-3.4v6.83
			c0,0.48-0.11,0.84-0.34,1.08s-0.62,0.35-1.19,0.35h-2.4C271.66,493.95,271.27,493.84,271.04,493.6z"/>
		<path d="M290.19,493.6c-0.23-0.23-0.34-0.59-0.34-1.08v-14.15c0-0.48,0.11-0.84,0.34-1.08c0.23-0.23,0.61-0.35,1.16-0.35h7.57
			c2.03,0,3.53,0.43,4.49,1.3c0.96,0.87,1.44,2.1,1.44,3.7c0,0.75-0.16,1.41-0.49,1.99c-0.32,0.58-0.75,0.98-1.29,1.21
			c1.48,0.5,2.22,1.67,2.22,3.5c0,1.57-0.55,2.84-1.66,3.83c-1.11,0.98-2.74,1.47-4.89,1.47h-7.4
			C290.81,493.95,290.42,493.84,290.19,493.6z M297.73,483.38c0.77,0,1.15-0.37,1.15-1.1s-0.38-1.1-1.15-1.1h-1.9v2.2H297.73z
			 M298.16,489.73c0.35,0,0.63-0.11,0.85-0.34c0.22-0.22,0.33-0.53,0.33-0.91c0-0.4-0.1-0.71-0.31-0.93
			c-0.21-0.22-0.5-0.32-0.86-0.32h-2.32v2.5H298.16z"/>
		<path d="M306.89,493.6c-0.22-0.23-0.34-0.59-0.34-1.08v-14.15c0-0.48,0.11-0.84,0.34-1.08c0.22-0.23,0.61-0.35,1.16-0.35h2.98
			c0.57,0,0.96,0.11,1.19,0.34c0.23,0.22,0.34,0.59,0.34,1.09v14.15c0,0.48-0.11,0.84-0.34,1.08s-0.62,0.35-1.19,0.35h-2.98
			C307.51,493.95,307.12,493.84,306.89,493.6z"/>
		<path d="M316.11,492.01c-1.53-1.54-2.3-3.73-2.3-6.56c0-2.83,0.77-5.02,2.3-6.56c1.53-1.54,3.78-2.31,6.75-2.31
			s5.22,0.77,6.75,2.31c1.53,1.54,2.3,3.73,2.3,6.56c0,2.83-0.77,5.02-2.3,6.56c-1.53,1.54-3.78,2.31-6.75,2.31
			S317.64,493.56,316.11,492.01z M325.21,488.96c0.48-0.78,0.72-1.95,0.72-3.51c0-1.58-0.24-2.76-0.72-3.53
			c-0.48-0.77-1.27-1.15-2.35-1.15c-1.08,0-1.87,0.38-2.35,1.15c-0.48,0.77-0.73,1.94-0.73,3.53c0,1.57,0.24,2.74,0.73,3.51
			c0.48,0.77,1.27,1.16,2.35,1.16C323.94,490.13,324.72,489.74,325.21,488.96z"/>
		<path d="M139.58,523.6c-0.23-0.23-0.34-0.59-0.34-1.08v-14.15c0-0.48,0.11-0.84,0.34-1.08c0.22-0.23,0.61-0.35,1.16-0.35h5.75
			c5.88,0,8.83,2.83,8.83,8.5c0,2.8-0.75,4.92-2.26,6.35c-1.51,1.43-3.7,2.15-6.56,2.15h-5.75
			C140.2,523.95,139.81,523.84,139.58,523.6z M146.72,519.7c0.93,0,1.6-0.31,2.01-0.92s0.61-1.73,0.61-3.33s-0.2-2.71-0.61-3.33
			c-0.41-0.62-1.08-0.92-2.01-0.92h-1.47v8.5H146.72z"/>
		<path d="M156.91,523.6c-0.22-0.23-0.34-0.59-0.34-1.08v-14.15c0-0.48,0.11-0.84,0.34-1.08c0.22-0.23,0.61-0.35,1.16-0.35h10.35
			c0.53,0,0.9,0.11,1.09,0.34c0.19,0.22,0.29,0.59,0.29,1.09v1.4c0,0.5-0.1,0.86-0.29,1.09c-0.19,0.23-0.55,0.34-1.09,0.34h-5.85
			v2.15h3.6c0.53,0,0.9,0.11,1.09,0.34c0.19,0.23,0.29,0.59,0.29,1.09v1.35c0,0.5-0.1,0.86-0.29,1.09
			c-0.19,0.22-0.55,0.34-1.09,0.34h-3.6v2.15h5.83c0.53,0,0.89,0.11,1.09,0.34c0.19,0.22,0.29,0.59,0.29,1.09v1.4
			c0,0.5-0.1,0.86-0.29,1.09c-0.19,0.23-0.55,0.34-1.09,0.34h-10.33C157.52,523.95,157.13,523.84,156.91,523.6z"/>
		<path d="M180.45,522.09c-1.68-1.49-2.53-3.7-2.53-6.64c0-2.95,0.81-5.17,2.44-6.65c1.63-1.48,3.95-2.22,6.96-2.22
			c1.37,0,2.58,0.13,3.65,0.4s1.96,0.64,2.67,1.13c0.2,0.15,0.3,0.32,0.3,0.5c0,0.15-0.07,0.36-0.22,0.63l-1.25,2.15
			c-0.13,0.23-0.29,0.35-0.47,0.35c-0.12,0-0.31-0.07-0.58-0.2c-0.47-0.23-0.95-0.42-1.46-0.55c-0.51-0.13-1.1-0.2-1.79-0.2
			c-1.38,0-2.44,0.4-3.17,1.2c-0.73,0.8-1.1,1.96-1.1,3.47c0,1.5,0.4,2.65,1.2,3.46c0.8,0.81,1.89,1.21,3.28,1.21
			c1.2,0,2.3-0.25,3.3-0.75c0.27-0.13,0.46-0.2,0.58-0.2c0.18,0,0.34,0.12,0.47,0.35l1.25,2.15c0.15,0.27,0.22,0.48,0.22,0.63
			c0,0.18-0.1,0.35-0.3,0.5c-0.72,0.48-1.62,0.86-2.7,1.13c-1.08,0.27-2.31,0.4-3.67,0.4C184.49,524.33,182.13,523.58,180.45,522.09
			z"/>
		<path d="M195.78,523.6c-0.23-0.23-0.34-0.59-0.34-1.08v-14.15c0-0.48,0.11-0.84,0.34-1.08c0.22-0.23,0.61-0.35,1.16-0.35h2.97
			c0.57,0,0.96,0.11,1.19,0.34c0.23,0.22,0.34,0.59,0.34,1.09v11.33h5.83c0.53,0,0.9,0.11,1.09,0.34c0.19,0.22,0.29,0.59,0.29,1.09
			v1.4c0,0.5-0.1,0.86-0.29,1.09c-0.19,0.23-0.55,0.34-1.09,0.34h-10.33C196.4,523.95,196.01,523.84,195.78,523.6z"/>
		<path d="M208.52,523.43c0-0.15,0.04-0.33,0.13-0.55l6.23-14.97c0.15-0.35,0.32-0.6,0.51-0.74s0.46-0.21,0.81-0.21h2.72
			c0.35,0,0.62,0.07,0.81,0.21s0.36,0.39,0.51,0.74l6.2,14.97c0.08,0.22,0.13,0.4,0.13,0.55c0,0.35-0.18,0.53-0.55,0.53h-4.7
			c-0.52,0-0.84-0.22-0.97-0.67l-0.6-1.85h-4.43l-0.57,1.85c-0.13,0.45-0.46,0.67-0.98,0.67h-4.7
			C208.7,523.95,208.52,523.78,208.52,523.43z M218.52,517.48l-0.98-3.1l-0.97,3.1H218.52z"/>
		<path d="M230.03,523.74c-0.19-0.14-0.35-0.39-0.49-0.74l-5.97-14.97c-0.08-0.22-0.13-0.4-0.13-0.55c0-0.35,0.18-0.53,0.55-0.53
			h4.7c0.52,0,0.84,0.22,0.97,0.67l2.55,8.15l2.55-8.15c0.13-0.45,0.46-0.67,0.97-0.67h4.7c0.37,0,0.55,0.17,0.55,0.53
			c0,0.15-0.04,0.33-0.13,0.55L234.92,523c-0.13,0.35-0.3,0.6-0.49,0.74c-0.19,0.14-0.47,0.21-0.84,0.21h-2.73
			C230.5,523.95,230.22,523.88,230.03,523.74z"/>
		<path d="M242.58,523.6c-0.22-0.23-0.34-0.59-0.34-1.08v-14.15c0-0.48,0.11-0.84,0.34-1.08c0.23-0.23,0.61-0.35,1.16-0.35h10.35
			c0.53,0,0.89,0.11,1.09,0.34c0.19,0.22,0.29,0.59,0.29,1.09v1.4c0,0.5-0.1,0.86-0.29,1.09c-0.19,0.23-0.55,0.34-1.09,0.34h-5.85
			v2.15h3.6c0.53,0,0.89,0.11,1.09,0.34c0.19,0.23,0.29,0.59,0.29,1.09v1.35c0,0.5-0.1,0.86-0.29,1.09
			c-0.19,0.22-0.55,0.34-1.09,0.34h-3.6v2.15h5.83c0.53,0,0.9,0.11,1.09,0.34c0.19,0.22,0.29,0.59,0.29,1.09v1.4
			c0,0.5-0.1,0.86-0.29,1.09c-0.19,0.23-0.55,0.34-1.09,0.34h-10.33C243.2,523.95,242.81,523.84,242.58,523.6z"/>
		<path d="M257.24,527.28c-0.47,0-0.82-0.14-1.05-0.41c-0.23-0.27-0.35-0.72-0.35-1.34c0-0.52,0.02-0.9,0.05-1.14
			c0.03-0.24,0.12-0.45,0.25-0.64c0.13-0.18,0.36-0.42,0.68-0.7c0.82-0.72,1.38-1.62,1.67-2.7c0.3-1.08,0.45-2.52,0.45-4.3
			c0-1.78-0.15-3.22-0.45-4.3c-0.3-1.08-0.86-1.98-1.67-2.7c-0.32-0.28-0.54-0.52-0.68-0.7s-0.22-0.4-0.25-0.64
			s-0.05-0.62-0.05-1.14c0-0.62,0.12-1.06,0.35-1.34c0.23-0.27,0.58-0.41,1.05-0.41c0.45,0,1.06,0.13,1.83,0.4
			c1.13,0.4,2.14,1.13,3.04,2.2c0.89,1.07,1.58,2.35,2.07,3.85c0.49,1.5,0.74,3.09,0.74,4.77c0,1.68-0.25,3.28-0.74,4.78
			c-0.49,1.5-1.18,2.78-2.07,3.85c-0.89,1.07-1.9,1.8-3.04,2.2C258.3,527.14,257.7,527.28,257.24,527.28z"/>
	</g>
	<polygon class="st1" points="200.76,96.93 214.23,124.22 244.34,128.59 222.55,149.83 227.7,179.83 200.76,165.67 173.83,179.83 
		178.97,149.83 157.18,128.59 187.29,124.22 	"/>
	<polygon class="st1" points="138.58,180.15 147.32,197.86 166.86,200.7 152.72,214.48 156.06,233.94 138.58,224.75 121.11,233.94 
		124.45,214.48 110.31,200.7 129.85,197.86 	"/>
	<polygon class="st1" points="268.68,180.15 277.42,197.86 296.95,200.7 282.82,214.48 286.15,233.94 268.68,224.75 251.2,233.94 
		254.54,214.48 240.4,200.7 259.94,197.86 	"/>
	<circle class="st2" cx="201.77" cy="213.97" r="121.96"/>
	<circle class="st3" cx="200.82" cy="200.58" r="121.96"/>
	<g>
		<path class="st3" d="M176.43,640.35v-4.31c0-2.87,0.97-5.57,2.92-8.1c1.95-2.53,5.35-5.5,10.22-8.91c1.7-1.17,2.75-1.87,3.14-2.12
			c1.75-1.17,2.97-2.04,3.65-2.63c0.68-0.58,1.19-1.22,1.53-1.9c0.34-0.68,0.51-1.56,0.51-2.63c0-1.22-0.45-2.2-1.35-2.96
			c-0.9-0.75-2.28-1.13-4.13-1.13c-3.12,0-6.28,0.8-9.49,2.41c-0.78,0.39-1.34,0.58-1.68,0.58c-0.54,0-1-0.34-1.39-1.02l-3.65-6.28
			c-0.44-0.78-0.66-1.39-0.66-1.82c0-0.54,0.29-1.02,0.88-1.46c2.09-1.41,4.79-2.54,8.1-3.39c3.31-0.85,6.93-1.28,10.88-1.28
			c6.13,0,10.99,1.28,14.56,3.83c3.58,2.55,5.37,6.17,5.37,10.84c0,3.6-1,6.66-2.99,9.16c-2,2.51-5.26,5.22-9.78,8.14
			c-4.82,3.12-7.71,5.21-8.69,6.28h17.81c1.56,0,2.62,0.33,3.18,0.99c0.56,0.66,0.84,1.71,0.84,3.17v4.16
			c0,1.46-0.28,2.52-0.84,3.18c-0.56,0.66-1.62,0.99-3.18,0.99h-32.12C177.65,644.14,176.43,642.88,176.43,640.35z"/>
	</g>
	<g>
		<circle id="XMLID_8258_" class="st4" cx="199.2" cy="191.73" r="86.8"/>
		<g id="XMLID_7255_">
			<path id="XMLID_7265_" class="st156" d="M186.25,200.05c-5.22-5.04-5.17-17.77-6.43-16.87c-2.88,1.93-4.72-3.83-5.08-7.25
				c-0.28-2.64,0.59-4.08,1.67-3.95c0.45,0.49,1.06,0.16,1.71,1.46c0.53,1.05,1.04-4.08,5.81-8.04l5.74-5.01
				c4.77,0.54,6.51,1.89,14.88,6.29c7.04,3.7,16,6.68,17.26,7.7c0.56,0.45,0.99-1.67,3.13-2.29c0.02-0.01,0.05-0.06,0.07-0.1
				c0.94,0.13,1.64,1.53,1.39,3.94c-0.36,3.42-2.21,9.18-5.08,7.25c-1.26-0.9-1.21,11.83-6.43,16.87c-0.37,0.36-0.76,0.72-1.15,1.06
				c-0.31,0.27-0.64,0.51-0.95,0.77c0.01,2.69,0.3,6.67,2.45,10.39h11.68c0,0,15.28-6.97,7.46-13.35c-9-7.34,1.11-6.3,0.69-14.34
				c-0.27-5.12-6.13-6.66-5.19-12.52c1.41-8.79-1.68-23.65-12.5-26.17c-18.62-12.25-36.41-4.54-42.68,8.04
				c-7.34,14.73,3,17.76-5.91,24.56c-2.94,2.24-3.98,5.78-2.8,8.06c2.28,4.43,7.53,7.62,3.67,10.41c-5.85,4.24-3.31,9.91,5.09,15.31
				h11.22c2.13-3.7,2.43-7.65,2.45-10.34C187.64,201.33,186.93,200.71,186.25,200.05z"/>
			<path id="XMLID_7264_" class="st5" d="M185.67,237.52c3.28,3.75,9.71,5.3,15.01,5.27c5.31-0.03,11.87-1.83,14.8-5.27
				c7-8.25,7.19-16.65,7.14-18.45c-0.47-0.28-0.98-0.59-1.54-0.93c-2.78-1.67-4.62-3.73-5.86-5.87c-2.14-3.72-2.44-7.69-2.45-10.39
				c-0.94,0.76-1.91,1.48-2.95,2.09c-1.19,0.7-2.45,1.28-3.76,1.7c-1.19,0.38-2.43,0.64-3.67,0.76c-1.55,0.16-3.14,0.11-4.68-0.13
				c-1.26-0.2-2.5-0.54-3.69-1.01c-1.34-0.52-2.61-1.21-3.8-2.01c-0.63-0.42-1.23-0.88-1.82-1.36c-0.01,2.69-0.32,6.64-2.45,10.34
				c-1.24,2.14-3.08,4.2-5.86,5.87c-0.57,0.34-1.08,0.66-1.56,0.96C178.44,221,178.53,229.34,185.67,237.52z"/>
			<path id="XMLID_7263_" class="st12" d="M214.87,200.05c5.22-5.04,5.17-17.77,6.43-16.87c2.88,1.93,4.72-3.83,5.08-7.25
				c0.25-2.41-0.45-3.8-1.39-3.94c-0.02,0.04-0.05,0.09-0.07,0.1c-2.14,0.62-2.58,2.74-3.13,2.29c-1.26-1.02-10.22-4-17.26-7.7
				c-8.38-4.4-10.11-5.75-14.88-6.29l-5.74,5.01c-4.77,3.96-5.28,9.09-5.81,8.04c-0.65-1.29-1.27-0.97-1.71-1.46
				c-1.07-0.14-1.94,1.3-1.67,3.95c0.36,3.42,2.2,9.18,5.08,7.25c1.26-0.9,1.21,11.83,6.43,16.87c0.68,0.66,1.4,1.28,2.14,1.88
				c0.59,0.47,1.19,0.94,1.82,1.36c1.19,0.8,2.46,1.48,3.8,2.01c1.19,0.47,2.43,0.8,3.69,1.01c1.54,0.24,3.13,0.29,4.68,0.13
				c1.25-0.13,2.48-0.38,3.67-0.76c1.31-0.42,2.57-1,3.76-1.7c1.04-0.61,2.01-1.33,2.95-2.09c0.32-0.26,0.65-0.5,0.95-0.77
				C214.12,200.77,214.5,200.41,214.87,200.05z"/>
			<path id="XMLID_7262_" class="st98" d="M234.78,265.76c0.37-6.36,3.72-39.62,9.63-39.62c0.18,0,0.35,0.03,0.53,0.06
				c-5.6-2.18-19.71-6.49-22.34-7.51c0,0,0.01,0.14,0.02,0.37c0.05,1.8-0.13,10.21-7.14,18.45c-2.92,3.44-9.49,5.23-14.8,5.27
				c-5.31,0.03-11.74-1.51-15.01-5.27c-7.14-8.18-7.23-16.52-7.15-18.42c0.01-0.26,0.03-0.4,0.03-0.4
				c-2.7,1.05-17.52,5.38-22.73,7.42c0.21-0.04,0.42-0.07,0.62-0.07c5.91,0,9.26,33.26,9.63,39.62c0.09,1.52,0.29,3.78,0.24,6.4
				c1.25,0.51,2.5,1,3.78,1.45c0.3-8.48,0.3-15.09,0.66-15.57l4.83,0.03l-4.83-0.03c0,0-0.37-26.04-1.11-36.27l4.84-1.58
				c1.02,5.08,1.35,37.88,1.35,37.89l24.64,0.14l24.62-0.14c0-0.01,0.35-32.88,1.36-37.96l4.83,1.58
				c-0.74,10.23-1.11,36.35-1.11,36.35l-4.91,0.04l4.93-0.03c0.35,0.46,0.36,6.61,0.62,14.62c1.26-0.49,2.5-1.01,3.72-1.56
				C234.54,268.88,234.7,267.06,234.78,265.76z"/>
			<path id="XMLID_7261_" class="st98" d="M247.2,227.3c-0.06-0.08-0.24-0.19-0.49-0.33c0.18,0.12,0.35,0.24,0.53,0.39
				C247.23,227.34,247.22,227.31,247.2,227.3z"/>
			<path id="XMLID_7260_" class="st157" d="M225.25,257.97l-0.17,0v0l-24.62,0.14l-24.64-0.14v0l-0.25,0l-4.83-0.03
				c-0.36,0.48-0.36,7.09-0.66,15.57c9.1,3.24,18.9,5.02,29.11,5.02c11.16,0,21.81-2.13,31.61-5.96
				c-0.27-8.02-0.28-14.16-0.62-14.62L225.25,257.97z"/>
			<path id="XMLID_7259_" d="M175.82,257.97c0-0.01-0.34-32.8-1.35-37.89l-4.84,1.58c0.74,10.23,1.11,36.27,1.11,36.27l4.83,0.03
				L175.82,257.97L175.82,257.97z"/>
			<path id="XMLID_7258_" d="M225.25,257.97l4.91-0.04c0,0,0.37-26.12,1.11-36.35l-4.83-1.58c-1.02,5.08-1.36,37.96-1.36,37.96v0
				L225.25,257.97z"/>
			<path id="XMLID_7257_" class="st158" d="M166.07,265.67c-0.37-6.36-3.72-39.62-9.63-39.62c-0.21,0-0.42,0.03-0.62,0.07
				c-5.22,1.04-11.25,14.8-12.85,31.71c6.93,5.9,14.79,10.73,23.35,14.24C166.36,269.45,166.16,267.19,166.07,265.67z"/>
			<path id="XMLID_7256_" class="st158" d="M247.24,227.36c-0.18-0.14-0.35-0.27-0.53-0.39c-0.6-0.4-1.19-0.67-1.77-0.76
				c-0.18-0.03-0.35-0.06-0.53-0.06c-5.91,0-9.26,33.26-9.63,39.62c-0.08,1.29-0.24,3.12-0.25,5.25c8.52-3.8,16.33-8.93,23.14-15.13
				C256.07,242.23,251.63,230.96,247.24,227.36z"/>
		</g>
	</g>
	<path class="st159" d="M228,283h-88c-6.6,0-12-5.4-12-12v-5c0-6.6,5.4-12,12-12h88c6.6,0,12,5.4,12,12v5
		C240,277.6,234.6,283,228,283z"/>
	<g>
		<path class="st3" d="M152.73,271.61c-0.19,0-0.38-0.1-0.58-0.29l-2.3-2.46l-2.3,2.43c-0.19,0.19-0.38,0.29-0.58,0.29
			c-0.15,0-0.28-0.05-0.38-0.16l-2.08-1.79c-0.21-0.17-0.32-0.35-0.32-0.54c0-0.15,0.08-0.3,0.22-0.45l1.73-1.79l-2.46-1.06
			c-0.32-0.15-0.48-0.33-0.48-0.54c0-0.11,0.03-0.22,0.1-0.35l1.12-2.4c0.11-0.23,0.27-0.35,0.48-0.35c0.11,0,0.25,0.03,0.42,0.1
			l2.24,0.99v-2.21c0-0.23,0.07-0.43,0.22-0.59s0.35-0.24,0.61-0.24h2.94c0.26,0,0.46,0.08,0.61,0.24s0.22,0.36,0.22,0.59v2.24
			l2.24-0.99c0.17-0.06,0.31-0.1,0.42-0.1c0.21,0,0.37,0.12,0.48,0.35l1.12,2.4c0.06,0.13,0.1,0.25,0.1,0.35
			c0,0.21-0.16,0.39-0.48,0.54l-2.46,1.06l1.73,1.79c0.15,0.15,0.22,0.3,0.22,0.45c0,0.19-0.11,0.37-0.32,0.54l-2.08,1.79
			C153.01,271.55,152.88,271.61,152.73,271.61z"/>
		<path class="st3" d="M167,271.61c-0.19,0-0.38-0.1-0.58-0.29l-2.3-2.46l-2.3,2.43c-0.19,0.19-0.38,0.29-0.58,0.29
			c-0.15,0-0.28-0.05-0.38-0.16l-2.08-1.79c-0.21-0.17-0.32-0.35-0.32-0.54c0-0.15,0.08-0.3,0.22-0.45l1.73-1.79l-2.46-1.06
			c-0.32-0.15-0.48-0.33-0.48-0.54c0-0.11,0.03-0.22,0.1-0.35l1.12-2.4c0.11-0.23,0.27-0.35,0.48-0.35c0.11,0,0.25,0.03,0.42,0.1
			l2.24,0.99v-2.21c0-0.23,0.07-0.43,0.22-0.59s0.35-0.24,0.61-0.24h2.94c0.26,0,0.46,0.08,0.61,0.24s0.22,0.36,0.22,0.59v2.24
			l2.24-0.99c0.17-0.06,0.31-0.1,0.42-0.1c0.21,0,0.37,0.12,0.48,0.35l1.12,2.4c0.06,0.13,0.1,0.25,0.1,0.35
			c0,0.21-0.16,0.39-0.48,0.54l-2.46,1.06l1.73,1.79c0.15,0.15,0.22,0.3,0.22,0.45c0,0.19-0.11,0.37-0.32,0.54l-2.08,1.79
			C167.28,271.55,167.15,271.61,167,271.61z"/>
		<path class="st3" d="M181.27,271.61c-0.19,0-0.38-0.1-0.58-0.29l-2.3-2.46l-2.3,2.43c-0.19,0.19-0.38,0.29-0.58,0.29
			c-0.15,0-0.28-0.05-0.38-0.16l-2.08-1.79c-0.21-0.17-0.32-0.35-0.32-0.54c0-0.15,0.08-0.3,0.22-0.45l1.73-1.79l-2.46-1.06
			c-0.32-0.15-0.48-0.33-0.48-0.54c0-0.11,0.03-0.22,0.1-0.35l1.12-2.4c0.11-0.23,0.27-0.35,0.48-0.35c0.11,0,0.25,0.03,0.42,0.1
			l2.24,0.99v-2.21c0-0.23,0.07-0.43,0.22-0.59s0.35-0.24,0.61-0.24h2.94c0.26,0,0.46,0.08,0.61,0.24s0.22,0.36,0.22,0.59v2.24
			l2.24-0.99c0.17-0.06,0.31-0.1,0.42-0.1c0.21,0,0.37,0.12,0.48,0.35l1.12,2.4c0.06,0.13,0.1,0.25,0.1,0.35
			c0,0.21-0.16,0.39-0.48,0.54l-2.46,1.06l1.73,1.79c0.15,0.15,0.22,0.3,0.22,0.45c0,0.19-0.11,0.37-0.32,0.54l-2.08,1.79
			C181.55,271.55,181.42,271.61,181.27,271.61z"/>
		<path class="st3" d="M195.54,271.61c-0.19,0-0.38-0.1-0.58-0.29l-2.3-2.46l-2.3,2.43c-0.19,0.19-0.38,0.29-0.58,0.29
			c-0.15,0-0.28-0.05-0.38-0.16l-2.08-1.79c-0.21-0.17-0.32-0.35-0.32-0.54c0-0.15,0.08-0.3,0.22-0.45l1.73-1.79l-2.46-1.06
			c-0.32-0.15-0.48-0.33-0.48-0.54c0-0.11,0.03-0.22,0.1-0.35l1.12-2.4c0.11-0.23,0.27-0.35,0.48-0.35c0.11,0,0.25,0.03,0.42,0.1
			l2.24,0.99v-2.21c0-0.23,0.07-0.43,0.22-0.59s0.35-0.24,0.61-0.24h2.94c0.26,0,0.46,0.08,0.61,0.24s0.22,0.36,0.22,0.59v2.24
			l2.24-0.99c0.17-0.06,0.31-0.1,0.42-0.1c0.21,0,0.37,0.12,0.48,0.35l1.12,2.4c0.06,0.13,0.1,0.25,0.1,0.35
			c0,0.21-0.16,0.39-0.48,0.54l-2.46,1.06l1.73,1.79c0.15,0.15,0.22,0.3,0.22,0.45c0,0.19-0.11,0.37-0.32,0.54l-2.08,1.79
			C195.82,271.55,195.69,271.61,195.54,271.61z"/>
		<path class="st3" d="M209.82,271.61c-0.19,0-0.38-0.1-0.58-0.29l-2.3-2.46l-2.3,2.43c-0.19,0.19-0.38,0.29-0.58,0.29
			c-0.15,0-0.28-0.05-0.38-0.16l-2.08-1.79c-0.21-0.17-0.32-0.35-0.32-0.54c0-0.15,0.08-0.3,0.22-0.45l1.73-1.79l-2.46-1.06
			c-0.32-0.15-0.48-0.33-0.48-0.54c0-0.11,0.03-0.22,0.1-0.35l1.12-2.4c0.11-0.23,0.27-0.35,0.48-0.35c0.11,0,0.25,0.03,0.42,0.1
			l2.24,0.99v-2.21c0-0.23,0.07-0.43,0.22-0.59s0.35-0.24,0.61-0.24h2.94c0.26,0,0.46,0.08,0.61,0.24s0.22,0.36,0.22,0.59v2.24
			l2.24-0.99c0.17-0.06,0.31-0.1,0.42-0.1c0.21,0,0.37,0.12,0.48,0.35l1.12,2.4c0.06,0.13,0.1,0.25,0.1,0.35
			c0,0.21-0.16,0.39-0.48,0.54l-2.46,1.06l1.73,1.79c0.15,0.15,0.22,0.3,0.22,0.45c0,0.19-0.11,0.37-0.32,0.54l-2.08,1.79
			C210.09,271.55,209.97,271.61,209.82,271.61z"/>
	</g>
</g>
</svg>
