<?xml version="1.0" encoding="utf-8"?>
<!-- Generator: Adobe Illustrator 23.0.0, SVG Export Plug-In . SVG Version: 6.00 Build 0)  -->
<svg version="1.1" id="Capa_1" xmlns="http://www.w3.org/2000/svg" xmlns:xlink="http://www.w3.org/1999/xlink" x="0px" y="0px"
	 viewBox="0 0 400 702" style="enable-background:new 0 0 400 702;" xml:space="preserve">
<style type="text/css">
	.st0{fill:#0085B0;}
	.st1{fill:#E0EF18;}
	.st2{fill:#CECECE;}
	.st3{fill:#FFFFFF;}
	.st4{fill:#F2F2F2;}
	.st5{fill:#EACCB0;}
	.st6{fill:#9B9B9B;}
	.st7{fill:#939393;}
	.st8{fill:#EFEFEF;}
	.st9{fill:#828282;}
	.st10{fill:#2C2A2D;}
	.st11{fill:#202021;}
	.st12{fill:#F2D4B6;}
	.st13{fill:#534D46;}
	.st14{fill:#E8D313;}
	.st15{fill:#2ACCFF;}
	.st16{fill:#4E4F4F;}
	.st17{fill:#003A94;}
	.st18{fill:#00D13C;}
	.st19{fill:#15682A;}
	.st20{fill:#D40000;}
	.st21{fill:#505050;}
	.st22{fill:#DFDFDF;}
	.st23{fill:none;}
	.st24{fill:#636363;}
	.st25{fill:#6C92D5;}
	.st26{fill:#22272F;}
	.st27{fill:#1B2538;}
	.st28{fill:#253452;}
	.st29{fill:#F9F9F9;}
	.st30{fill:#2D3543;}
	.st31{fill:#2A3D60;}
	.st32{fill:#587955;}
	.st33{fill:#CD7054;}
	.st34{fill:#F1CC4B;}
	.st35{fill:#ACACAC;}
	.st36{fill:#AAE528;}
	.st37{fill:#28CEBA;}
	.st38{fill:#DB143F;}
	.st39{fill:#53C2C9;}
	.st40{fill:#FFB412;}
	.st41{fill:#866A5E;}
	.st42{fill:#F7DDCB;}
	.st43{fill:#FFE6D4;}
	.st44{fill:#F5F5F5;}
	.st45{fill:#1A2830;}
	.st46{fill:#24353F;}
	.st47{fill:#132026;}
	.st48{fill:#F9FF03;}
	.st49{fill:#272728;}
	.st50{fill:#1E1D1E;}
	.st51{fill:#160423;}
	.st52{fill-rule:evenodd;clip-rule:evenodd;fill:#FFFFFF;}
	.st53{fill-rule:evenodd;clip-rule:evenodd;fill:#1996B8;}
	.st54{fill:#0C387D;}
	.st55{fill:#C69A81;}
	.st56{fill:#D1A385;}
	.st57{fill:#EAEAEA;}
	.st58{fill:#093E8C;}
	.st59{fill:#0B2A62;}
	.st60{fill:#D32A3B;}
	.st61{fill:#827C7D;}
	.st62{opacity:0.7;fill:#7F7F7F;}
	.st63{fill:#FDFDFD;}
	.st64{fill:#DAA449;}
	.st65{fill:#DD9225;}
	.st66{opacity:0.3;}
	.st67{fill:#425793;}
	.st68{opacity:0.8;}
	.st69{filter:url(#Adobe_OpacityMaskFilter);}
	.st70{opacity:0.15;mask:url(#SVGID_1_);}
	.st71{fill:#090B00;}
	.st72{opacity:0.1;}
	.st73{fill:#211915;}
	.st74{filter:url(#Adobe_OpacityMaskFilter_1_);}
	.st75{opacity:0.15;mask:url(#SVGID_2_);}
	.st76{fill:#AF3623;}
	.st77{filter:url(#Adobe_OpacityMaskFilter_2_);}
	.st78{opacity:0.15;mask:url(#SVGID_3_);}
	.st79{filter:url(#Adobe_OpacityMaskFilter_3_);}
	.st80{opacity:0.15;mask:url(#SVGID_4_);}
	.st81{fill:#456495;}
	.st82{filter:url(#Adobe_OpacityMaskFilter_4_);}
	.st83{opacity:0.15;mask:url(#SVGID_5_);}
	.st84{filter:url(#Adobe_OpacityMaskFilter_5_);}
	.st85{opacity:0.15;mask:url(#SVGID_6_);}
	.st86{fill:#76A9DA;}
	.st87{filter:url(#Adobe_OpacityMaskFilter_6_);}
	.st88{opacity:0.15;mask:url(#SVGID_7_);}
	.st89{filter:url(#Adobe_OpacityMaskFilter_7_);}
	.st90{opacity:0.15;mask:url(#SVGID_8_);}
	.st91{fill:#1F3642;}
	.st92{fill:#A9BDDA;}
	.st93{opacity:0.46;fill:#A6B4BC;}
	.st94{fill:#74C475;}
	.st95{fill:#221F21;}
	.st96{fill:#2D2D2D;}
	.st97{fill:#1C1B1A;}
	.st98{fill:#77181C;}
	.st99{fill:#262525;}
	.st100{fill:#11100F;}
	.st101{opacity:0.18;}
	.st102{opacity:0.38;}
	.st103{fill:#0A5B1F;}
	.st104{opacity:0.27;}
	.st105{opacity:0.48;}
	.st106{fill:#0A4654;}
	.st107{fill:#C2C6C6;}
	.st108{fill:#E5E5E5;stroke:#FFFFFF;stroke-miterlimit:10;}
	.st109{fill:#ACB4B5;}
	.st110{fill:#7F8384;}
	.st111{fill:#15772F;}
	.st112{fill:#F4F4F4;}
	.st113{fill:#53B8DB;}
	.st114{fill:#06EF42;}
	.st115{fill:#E7ED07;}
	.st116{fill:#CCCCCA;}
	.st117{fill:#EADF13;}
	.st118{fill:#C2C2C2;}
	.st119{fill:#85B681;}
	.st120{fill:#A1DC9B;}
	.st121{fill:#90C58B;}
	.st122{fill:#22241F;}
	.st123{opacity:0.5;}
	.st124{fill:#A2CADE;}
	.st125{fill:#E9E9E9;}
	.st126{fill:#D9D9D9;}
	.st127{fill:#CDCDCD;}
	.st128{opacity:0.34;fill:#F0F0F0;}
	.st129{fill:#5A5B5A;}
	.st130{fill:#FFE600;}
	.st131{fill:#DB1F59;}
	.st132{fill:#727272;}
	.st133{fill:#207235;}
	.st134{fill:#A3A3A3;}
	.st135{fill:#BCBCBC;}
	.st136{fill:#0A511C;}
	.st137{fill:#F9FF00;}
	.st138{fill:#D59F6D;}
	.st139{fill:#C0804A;}
	.st140{fill:#E6BA8A;}
	.st141{fill:#BE3ACC;}
	.st142{fill:#FFFFFF;stroke:#443F0C;stroke-width:9;stroke-miterlimit:10;}
	.st143{fill:none;stroke:#443F0C;stroke-width:9;stroke-miterlimit:10;}
	.st144{fill:#170623;}
	.st145{fill:#158231;}
	.st146{fill:#C89D76;}
	.st147{opacity:0.4;}
	.st148{fill:#ADADAD;}
	.st149{fill:#EDC3A6;}
	.st150{opacity:0.69;}
	.st151{fill:#E5D3D6;}
	.st152{opacity:0.44;}
	.st153{fill:#A5A5A5;}
	.st154{fill:#DDE5E4;}
	.st155{fill:#5C9169;}
	.st156{fill:#934215;}
	.st157{fill:#47413B;}
	.st158{fill:#601A1F;}
	.st159{fill:#044554;}
	.st160{opacity:0.7;}
	.st161{fill:#7F7F7F;}
	.st162{fill:#6B8A69;}
	.st163{opacity:0.24;fill:#848D90;}
	.st164{opacity:0.4;fill:#848D90;}
	.st165{fill:#F2D5D5;}
	.st166{fill:#485CC1;}
	.st167{fill:#C6CBE0;}
	.st168{fill:#8B909E;}
	.st169{fill:#53BC1B;}
	.st170{fill:#11565B;}
	.st171{fill:#67A06D;}
	.st172{fill:#FFEC00;}
	.st173{fill:#77A007;}
	.st174{fill:#E50731;}
	.st175{fill:#266472;}
	.st176{fill:#D4D4D4;}
	.st177{fill:#0E9932;}
	.st178{fill:#87DD24;}
	.st179{fill:#76A172;}
	.st180{fill:#62835F;}
	.st181{fill:#96D090;}
	.st182{fill:#D6D6D6;}
	.st183{fill:#606060;}
	.st184{fill:#494949;}
	.st185{fill:#29E55A;}
	.st186{fill:#2C703D;}
	.st187{fill:#DD0744;}
	.st188{fill:#EDEDED;}
	.st189{fill:#2A5936;}
	.st190{fill:#B9BBC1;}
	.st191{fill:#FFD79E;}
	.st192{fill:#FFE6C2;}
	.st193{fill:#2CBB55;}
	.st194{fill:#5C412D;}
	.st195{fill:#EC0000;}
	.st196{fill:#DD2626;}
	.st197{fill:#EA9334;}
	.st198{fill:#FCC232;}
	.st199{fill:#F9B234;}
	.st200{fill:#F7A037;}
	.st201{fill:#E0E0E0;}
</style>
<g>
	<g>
		<path class="st0" d="M9.5,209.36c0,22,13.29,27.86,29.54,13.03c0,0,156.99-143.3,353.09,26.97V55c0-22-18-40-40-40H49.5
			c-22,0-40,18-40,40V209.36z"/>
	</g>
	<g>
		<path class="st0" d="M391.66,647c0,22-18,40-40,40H49.98c-22,0-40-18-40-40v-46.27c0-22,18-40,40-40h301.68c22,0,40,18,40,40V647z
			"/>
	</g>
	<g>
		<path d="M110.26,378.22c0-0.21,0.06-0.47,0.18-0.77l8.71-20.96c0.21-0.49,0.45-0.83,0.72-1.03c0.27-0.2,0.65-0.3,1.14-0.3h3.81
			c0.49,0,0.87,0.1,1.14,0.3c0.27,0.2,0.51,0.54,0.72,1.03l8.68,20.96c0.12,0.3,0.17,0.56,0.17,0.77c0,0.49-0.26,0.74-0.77,0.74
			h-6.58c-0.72,0-1.18-0.32-1.36-0.95l-0.84-2.59h-6.2l-0.8,2.59c-0.19,0.63-0.64,0.95-1.37,0.95h-6.58
			C110.51,378.95,110.26,378.71,110.26,378.22z M124.26,369.89l-1.36-4.34l-1.37,4.34H124.26z"/>
		<path d="M140.15,378.81c-1.82-0.44-3.29-1.06-4.41-1.86c-0.47-0.33-0.7-0.64-0.7-0.95c0-0.21,0.08-0.43,0.24-0.67l2.03-3.18
			c0.21-0.3,0.42-0.46,0.63-0.46c0.19,0,0.41,0.08,0.67,0.25c0.84,0.51,1.8,0.92,2.89,1.21c1.08,0.29,2.14,0.44,3.17,0.44
			c0.86,0,1.49-0.12,1.87-0.35c0.38-0.23,0.58-0.59,0.58-1.08c0-0.54-0.26-0.97-0.77-1.29c-0.51-0.33-1.4-0.74-2.66-1.22
			c-2.36-0.91-4.21-1.94-5.56-3.1c-1.35-1.16-2.03-2.69-2.03-4.6c0-2.43,0.85-4.25,2.54-5.48c1.69-1.22,3.97-1.84,6.84-1.84
			c2.01,0,3.71,0.18,5.13,0.53s2.64,0.9,3.69,1.64c0.47,0.33,0.7,0.64,0.7,0.95c0,0.21-0.08,0.43-0.24,0.67l-2.03,3.18
			c-0.21,0.33-0.42,0.49-0.63,0.49c-0.14,0-0.36-0.09-0.67-0.28c-0.56-0.37-1.22-0.68-1.99-0.93c-0.77-0.25-1.6-0.37-2.49-0.37
			c-0.82,0-1.43,0.12-1.85,0.35s-0.63,0.61-0.63,1.12c0,0.42,0.15,0.77,0.44,1.05c0.29,0.28,0.66,0.52,1.1,0.72
			c0.44,0.2,1.21,0.52,2.31,0.96c1.75,0.7,3.13,1.37,4.13,2.01c1,0.64,1.76,1.41,2.28,2.31c0.51,0.9,0.77,2.04,0.77,3.41
			c0,2.1-0.79,3.8-2.36,5.09c-1.58,1.3-3.93,1.94-7.05,1.94C143.94,379.48,141.97,379.25,140.15,378.81z"/>
		<path d="M157.7,378.46c-0.32-0.33-0.47-0.83-0.47-1.5v-19.81c0-0.68,0.16-1.18,0.47-1.5c0.32-0.33,0.86-0.49,1.63-0.49h14.49
			c0.75,0,1.25,0.16,1.52,0.47c0.27,0.31,0.4,0.82,0.4,1.52v1.96c0,0.7-0.13,1.21-0.4,1.52c-0.27,0.31-0.78,0.47-1.52,0.47h-8.19
			v3.01h5.04c0.75,0,1.25,0.16,1.52,0.47c0.27,0.31,0.4,0.82,0.4,1.52V368c0,0.7-0.13,1.21-0.4,1.52c-0.27,0.32-0.78,0.47-1.52,0.47
			h-5.04V373h8.16c0.75,0,1.25,0.16,1.52,0.47c0.27,0.32,0.4,0.82,0.4,1.52v1.96c0,0.7-0.13,1.21-0.4,1.52
			c-0.27,0.32-0.78,0.47-1.52,0.47h-14.46C158.56,378.95,158.01,378.79,157.7,378.46z"/>
		<path d="M181.76,378.81c-1.82-0.44-3.29-1.06-4.41-1.86c-0.47-0.33-0.7-0.64-0.7-0.95c0-0.21,0.08-0.43,0.25-0.67l2.03-3.18
			c0.21-0.3,0.42-0.46,0.63-0.46c0.19,0,0.41,0.08,0.67,0.25c0.84,0.51,1.8,0.92,2.89,1.21c1.08,0.29,2.14,0.44,3.17,0.44
			c0.86,0,1.49-0.12,1.87-0.35c0.38-0.23,0.58-0.59,0.58-1.08c0-0.54-0.26-0.97-0.77-1.29c-0.51-0.33-1.4-0.74-2.66-1.22
			c-2.36-0.91-4.21-1.94-5.57-3.1c-1.35-1.16-2.03-2.69-2.03-4.6c0-2.43,0.85-4.25,2.54-5.48s3.97-1.84,6.84-1.84
			c2.01,0,3.72,0.18,5.13,0.53c1.41,0.35,2.64,0.9,3.69,1.64c0.47,0.33,0.7,0.64,0.7,0.95c0,0.21-0.08,0.43-0.25,0.67l-2.03,3.18
			c-0.21,0.33-0.42,0.49-0.63,0.49c-0.14,0-0.36-0.09-0.66-0.28c-0.56-0.37-1.23-0.68-2-0.93c-0.77-0.25-1.6-0.37-2.48-0.37
			c-0.82,0-1.44,0.12-1.86,0.35s-0.63,0.61-0.63,1.12c0,0.42,0.14,0.77,0.44,1.05c0.29,0.28,0.66,0.52,1.1,0.72s1.21,0.52,2.31,0.96
			c1.75,0.7,3.13,1.37,4.13,2.01s1.76,1.41,2.27,2.31c0.51,0.9,0.77,2.04,0.77,3.41c0,2.1-0.79,3.8-2.36,5.09
			c-1.58,1.3-3.93,1.94-7.05,1.94C185.55,379.48,183.58,379.25,181.76,378.81z"/>
		<path d="M201.36,376.24c-2.15-2.16-3.22-5.22-3.22-9.19c0-3.97,1.07-7.03,3.22-9.19c2.15-2.16,5.3-3.24,9.45-3.24
			c4.15,0,7.3,1.08,9.45,3.24s3.22,5.22,3.22,9.19c0,3.97-1.07,7.03-3.22,9.19c-2.15,2.16-5.3,3.24-9.45,3.24
			C206.66,379.48,203.51,378.4,201.36,376.24z M214.1,371.97c0.68-1.08,1.02-2.72,1.02-4.92c0-2.22-0.34-3.86-1.02-4.93
			c-0.68-1.07-1.77-1.61-3.29-1.61c-1.52,0-2.61,0.54-3.29,1.61c-0.68,1.07-1.01,2.72-1.01,4.93c0,2.19,0.34,3.83,1.01,4.92
			c0.68,1.08,1.77,1.63,3.29,1.63C212.33,373.6,213.42,373.05,214.1,371.97z"/>
		<path d="M225.7,378.46c-0.32-0.33-0.47-0.83-0.47-1.5v-19.81c0-0.68,0.16-1.18,0.47-1.5c0.31-0.33,0.86-0.49,1.63-0.49h8.37
			c3.5,0,6.05,0.69,7.65,2.08c1.6,1.39,2.4,3.48,2.4,6.28c0,1.68-0.29,3.1-0.86,4.25s-1.45,2.06-2.64,2.71l3.26,6.96
			c0.09,0.19,0.14,0.4,0.14,0.63c0,0.26-0.09,0.47-0.26,0.63c-0.18,0.16-0.4,0.25-0.68,0.25h-5.92c-0.37,0-0.67-0.05-0.89-0.16
			c-0.22-0.11-0.38-0.29-0.47-0.54l-2.59-6.51h-1.19v5.21c0,0.68-0.16,1.18-0.47,1.5c-0.32,0.33-0.87,0.49-1.66,0.49h-4.17
			C226.56,378.95,226.02,378.79,225.7,378.46z M234.96,365.9c0.75,0,1.33-0.2,1.77-0.6c0.43-0.4,0.65-0.99,0.65-1.78
			c0-0.82-0.22-1.42-0.65-1.82c-0.43-0.4-1.02-0.59-1.77-0.59h-2.38v4.79H234.96z"/>
		<path d="M247.96,378.46c-0.32-0.33-0.47-0.83-0.47-1.5v-19.81c0-0.68,0.16-1.18,0.47-1.5c0.32-0.33,0.86-0.49,1.63-0.49h4.17
			c0.79,0,1.35,0.16,1.66,0.47c0.32,0.31,0.47,0.82,0.47,1.52v19.81c0,0.68-0.16,1.18-0.47,1.5c-0.32,0.33-0.87,0.49-1.66,0.49
			h-4.17C248.82,378.95,248.28,378.79,247.96,378.46z"/>
		<path d="M257.64,378.22c0-0.21,0.06-0.47,0.17-0.77l8.71-20.96c0.21-0.49,0.45-0.83,0.72-1.03c0.27-0.2,0.65-0.3,1.14-0.3h3.81
			c0.49,0,0.87,0.1,1.14,0.3c0.27,0.2,0.51,0.54,0.72,1.03l8.68,20.96c0.12,0.3,0.18,0.56,0.18,0.77c0,0.49-0.26,0.74-0.77,0.74
			h-6.58c-0.72,0-1.18-0.32-1.36-0.95l-0.84-2.59h-6.2l-0.8,2.59c-0.19,0.63-0.64,0.95-1.37,0.95h-6.58
			C257.9,378.95,257.64,378.71,257.64,378.22z M271.64,369.89l-1.36-4.34l-1.37,4.34H271.64z"/>
		<path d="M57.95,420.46c-0.31-0.33-0.47-0.83-0.47-1.5v-19.81c0-0.68,0.16-1.18,0.47-1.5c0.32-0.33,0.86-0.49,1.63-0.49h14.49
			c0.75,0,1.25,0.16,1.52,0.47c0.27,0.31,0.4,0.82,0.4,1.52v1.96c0,0.7-0.13,1.21-0.4,1.52c-0.27,0.31-0.78,0.47-1.52,0.47h-8.19
			v3.01h5.04c0.75,0,1.25,0.16,1.52,0.47c0.27,0.31,0.4,0.82,0.4,1.52V410c0,0.7-0.13,1.21-0.4,1.52c-0.27,0.32-0.78,0.47-1.52,0.47
			h-5.04V415h8.16c0.75,0,1.25,0.16,1.52,0.47s0.4,0.82,0.4,1.52v1.96c0,0.7-0.13,1.21-0.4,1.52c-0.27,0.32-0.78,0.47-1.52,0.47
			H59.58C58.81,420.95,58.27,420.79,57.95,420.46z"/>
		<path d="M78.04,420.46c-0.31-0.33-0.47-0.83-0.47-1.5v-19.84c0-0.68,0.16-1.17,0.47-1.49c0.32-0.32,0.87-0.47,1.66-0.47h3.33
			c0.49,0,0.87,0.06,1.14,0.19c0.27,0.13,0.53,0.38,0.79,0.75l6.33,9.42v-8.36c0-0.68,0.16-1.18,0.47-1.5
			c0.31-0.33,0.86-0.49,1.63-0.49h4.17c0.79,0,1.35,0.16,1.66,0.47c0.31,0.31,0.47,0.82,0.47,1.52v19.84c0,0.68-0.16,1.17-0.47,1.49
			c-0.31,0.32-0.87,0.47-1.66,0.47h-3.33c-0.49,0-0.87-0.06-1.14-0.19c-0.27-0.13-0.53-0.38-0.79-0.75l-6.34-9.42v8.4
			c0,0.68-0.16,1.17-0.47,1.49c-0.31,0.32-0.87,0.47-1.66,0.47h-4.16C78.9,420.95,78.36,420.79,78.04,420.46z"/>
		<path d="M118.67,420.46c-0.31-0.33-0.47-0.83-0.47-1.5V403.1h-5.04c-0.75,0-1.25-0.16-1.52-0.47c-0.27-0.32-0.4-0.82-0.4-1.52
			v-1.96c0-0.7,0.13-1.21,0.4-1.52c0.27-0.32,0.78-0.47,1.52-0.47h18.48c0.75,0,1.25,0.16,1.52,0.47c0.27,0.31,0.4,0.82,0.4,1.52
			v1.96c0,0.7-0.13,1.21-0.4,1.52c-0.27,0.31-0.78,0.47-1.52,0.47h-5.04v15.85c0,0.68-0.16,1.18-0.47,1.5
			c-0.31,0.33-0.87,0.49-1.66,0.49h-4.17C119.53,420.95,118.99,420.79,118.67,420.46z"/>
		<path d="M135.09,420.46c-0.31-0.33-0.47-0.83-0.47-1.5v-19.81c0-0.68,0.16-1.18,0.47-1.5c0.32-0.33,0.86-0.49,1.63-0.49h4.16
			c0.79,0,1.35,0.16,1.66,0.47c0.32,0.31,0.47,0.82,0.47,1.52v19.81c0,0.68-0.16,1.18-0.47,1.5c-0.31,0.33-0.87,0.49-1.66,0.49
			h-4.16C135.95,420.95,135.4,420.79,135.09,420.46z"/>
		<path d="M145.94,420.46c-0.32-0.33-0.47-0.83-0.47-1.5v-19.81c0-0.68,0.16-1.18,0.47-1.5c0.32-0.33,0.86-0.49,1.63-0.49h14.49
			c0.75,0,1.25,0.16,1.52,0.47c0.27,0.31,0.4,0.82,0.4,1.52v1.96c0,0.7-0.13,1.21-0.4,1.52c-0.27,0.31-0.78,0.47-1.52,0.47h-8.19
			v3.01h5.04c0.75,0,1.25,0.16,1.52,0.47c0.27,0.31,0.4,0.82,0.4,1.52V410c0,0.7-0.13,1.21-0.4,1.52c-0.27,0.32-0.78,0.47-1.52,0.47
			h-5.04V415h8.16c0.75,0,1.25,0.16,1.52,0.47c0.27,0.32,0.4,0.82,0.4,1.52v1.96c0,0.7-0.13,1.21-0.4,1.52
			c-0.27,0.32-0.78,0.47-1.52,0.47h-14.46C146.8,420.95,146.25,420.79,145.94,420.46z"/>
		<path d="M166.03,420.46c-0.31-0.33-0.47-0.83-0.47-1.5v-19.84c0-0.68,0.16-1.17,0.47-1.49c0.32-0.32,0.87-0.47,1.66-0.47h4.02
			c0.51,0,0.92,0.06,1.23,0.19c0.3,0.13,0.54,0.38,0.7,0.75l4.09,10.26l4.09-10.26c0.16-0.37,0.4-0.62,0.7-0.75
			c0.3-0.13,0.71-0.19,1.22-0.19h4.03c0.79,0,1.35,0.16,1.66,0.47c0.31,0.31,0.47,0.81,0.47,1.49v19.84c0,0.68-0.16,1.18-0.47,1.5
			c-0.32,0.33-0.86,0.49-1.63,0.49h-3.36c-0.77,0-1.32-0.16-1.64-0.49c-0.33-0.33-0.49-0.83-0.49-1.5v-9.55l-2.06,4.76
			c-0.28,0.68-0.58,1.16-0.91,1.45c-0.33,0.29-0.86,0.44-1.61,0.44s-1.28-0.15-1.61-0.44c-0.33-0.29-0.63-0.78-0.91-1.45l-2.06-4.76
			v9.55c0,0.68-0.16,1.18-0.47,1.5c-0.31,0.33-0.87,0.49-1.66,0.49h-3.36C166.89,420.95,166.34,420.79,166.03,420.46z"/>
		<path d="M192.84,420.46c-0.31-0.33-0.47-0.83-0.47-1.5v-19.81c0-0.68,0.16-1.18,0.47-1.5c0.32-0.33,0.86-0.49,1.63-0.49h8.36
			c3.5,0,6.05,0.69,7.65,2.08c1.6,1.39,2.4,3.48,2.4,6.28c0,2.8-0.8,4.89-2.4,6.26c-1.6,1.38-4.14,2.06-7.61,2.06h-2.1v5.11
			c0,0.68-0.16,1.18-0.47,1.5c-0.31,0.33-0.87,0.49-1.66,0.49h-4.17C193.7,420.95,193.15,420.79,192.84,420.46z M202.1,407.9
			c0.75,0,1.34-0.2,1.77-0.6c0.43-0.4,0.65-0.99,0.65-1.78c0-0.82-0.22-1.42-0.65-1.82s-1.02-0.59-1.77-0.59h-2.38v4.79H202.1z"/>
		<path d="M215.57,418.24c-2.15-2.16-3.22-5.22-3.22-9.19c0-3.97,1.07-7.03,3.22-9.19c2.15-2.16,5.3-3.24,9.45-3.24
			s7.3,1.08,9.45,3.24c2.15,2.16,3.22,5.22,3.22,9.19c0,3.97-1.07,7.03-3.22,9.19c-2.15,2.16-5.3,3.24-9.45,3.24
			S217.72,420.4,215.57,418.24z M228.31,413.97c0.68-1.08,1.02-2.72,1.02-4.92c0-2.22-0.34-3.86-1.02-4.93s-1.77-1.61-3.29-1.61
			s-2.61,0.54-3.29,1.61s-1.01,2.72-1.01,4.93c0,2.19,0.34,3.83,1.01,4.92s1.77,1.63,3.29,1.63S227.63,415.05,228.31,413.97z"/>
		<path d="M250.41,420.46c-0.31-0.33-0.47-0.83-0.47-1.5v-19.81c0-0.68,0.16-1.18,0.47-1.5c0.32-0.33,0.86-0.49,1.63-0.49h8.36
			c3.5,0,6.05,0.69,7.65,2.08c1.6,1.39,2.4,3.48,2.4,6.28c0,1.68-0.29,3.1-0.86,4.25c-0.57,1.16-1.45,2.06-2.64,2.71l3.26,6.96
			c0.09,0.19,0.14,0.4,0.14,0.63c0,0.26-0.09,0.47-0.26,0.63c-0.17,0.16-0.4,0.25-0.68,0.25h-5.92c-0.37,0-0.67-0.05-0.89-0.16
			c-0.22-0.11-0.38-0.29-0.47-0.54l-2.59-6.51h-1.19v5.21c0,0.68-0.16,1.18-0.47,1.5c-0.31,0.33-0.87,0.49-1.66,0.49h-4.17
			C251.27,420.95,250.73,420.79,250.41,420.46z M259.67,407.9c0.75,0,1.34-0.2,1.77-0.6c0.43-0.4,0.65-0.99,0.65-1.78
			c0-0.82-0.22-1.42-0.65-1.82s-1.02-0.59-1.77-0.59h-2.38v4.79H259.67z"/>
		<path d="M272.67,420.46c-0.31-0.33-0.47-0.83-0.47-1.5v-19.81c0-0.68,0.16-1.18,0.47-1.5c0.32-0.33,0.86-0.49,1.63-0.49h14.49
			c0.75,0,1.25,0.16,1.52,0.47c0.27,0.31,0.4,0.82,0.4,1.52v1.96c0,0.7-0.13,1.21-0.4,1.52c-0.27,0.31-0.78,0.47-1.52,0.47h-8.19
			v3.01h5.04c0.75,0,1.25,0.16,1.52,0.47c0.27,0.31,0.4,0.82,0.4,1.52V410c0,0.7-0.13,1.21-0.4,1.52c-0.27,0.32-0.78,0.47-1.52,0.47
			h-5.04V415h8.15c0.75,0,1.25,0.16,1.52,0.47c0.27,0.32,0.4,0.82,0.4,1.52v1.96c0,0.7-0.13,1.21-0.4,1.52
			c-0.27,0.32-0.78,0.47-1.52,0.47H274.3C273.53,420.95,272.99,420.79,272.67,420.46z"/>
		<path d="M291.59,420.22c0-0.21,0.06-0.47,0.17-0.77l8.71-20.96c0.21-0.49,0.45-0.83,0.72-1.03c0.27-0.2,0.65-0.3,1.14-0.3h3.82
			c0.49,0,0.87,0.1,1.14,0.3c0.27,0.2,0.51,0.54,0.72,1.03l8.68,20.96c0.12,0.3,0.17,0.56,0.17,0.77c0,0.49-0.26,0.74-0.77,0.74
			h-6.58c-0.72,0-1.18-0.32-1.37-0.95l-0.84-2.59h-6.2l-0.8,2.59c-0.19,0.63-0.64,0.95-1.37,0.95h-6.58
			C291.85,420.95,291.59,420.71,291.59,420.22z M305.59,411.89l-1.37-4.34l-1.37,4.34H305.59z"/>
		<path d="M319.08,420.46c-0.32-0.33-0.47-0.83-0.47-1.5v-19.81c0-0.68,0.16-1.18,0.47-1.5c0.31-0.33,0.86-0.49,1.63-0.49h4.17
			c0.79,0,1.35,0.16,1.66,0.47c0.31,0.31,0.47,0.82,0.47,1.52V415h8.15c0.75,0,1.25,0.16,1.52,0.47c0.27,0.32,0.4,0.82,0.4,1.52
			v1.96c0,0.7-0.13,1.21-0.4,1.52c-0.27,0.32-0.78,0.47-1.52,0.47h-14.46C319.94,420.95,319.4,420.79,319.08,420.46z"/>
		<path d="M98.99,462.46c-0.31-0.33-0.47-0.83-0.47-1.5v-19.81c0-0.68,0.16-1.18,0.47-1.5c0.32-0.33,0.86-0.49,1.63-0.49h8.05
			c8.24,0,12.36,3.97,12.36,11.9c0,3.92-1.06,6.88-3.17,8.89s-5.17,3.01-9.19,3.01h-8.05C99.84,462.95,99.3,462.79,98.99,462.46z
			 M108.98,457c1.31,0,2.25-0.43,2.82-1.29c0.57-0.86,0.86-2.42,0.86-4.66c0-2.24-0.29-3.79-0.86-4.65
			c-0.57-0.86-1.51-1.29-2.82-1.29h-2.06V457H108.98z"/>
		<path d="M123.24,462.46c-0.32-0.33-0.47-0.83-0.47-1.5v-19.81c0-0.68,0.16-1.18,0.47-1.5c0.32-0.33,0.86-0.49,1.63-0.49h14.49
			c0.75,0,1.25,0.16,1.52,0.47c0.27,0.31,0.4,0.82,0.4,1.52v1.96c0,0.7-0.13,1.21-0.4,1.52c-0.27,0.31-0.78,0.47-1.52,0.47h-8.19
			v3.01h5.04c0.75,0,1.25,0.16,1.52,0.47c0.27,0.31,0.4,0.82,0.4,1.52V452c0,0.7-0.13,1.21-0.4,1.52c-0.27,0.32-0.78,0.47-1.52,0.47
			h-5.04V457h8.16c0.75,0,1.25,0.16,1.52,0.47c0.27,0.32,0.4,0.82,0.4,1.52v1.96c0,0.7-0.13,1.21-0.4,1.52
			c-0.27,0.32-0.78,0.47-1.52,0.47h-14.46C124.1,462.95,123.56,462.79,123.24,462.46z"/>
		<path d="M164.33,462.46c-0.31-0.33-0.47-0.83-0.47-1.5v-19.84c0-0.68,0.16-1.17,0.47-1.49c0.32-0.32,0.87-0.47,1.66-0.47h4.03
			c0.51,0,0.92,0.06,1.22,0.19c0.3,0.13,0.54,0.38,0.7,0.75l4.09,10.26l4.1-10.26c0.16-0.37,0.4-0.62,0.7-0.75
			c0.3-0.13,0.71-0.19,1.22-0.19h4.03c0.79,0,1.35,0.16,1.66,0.47c0.32,0.31,0.47,0.81,0.47,1.49v19.84c0,0.68-0.16,1.18-0.47,1.5
			c-0.32,0.33-0.86,0.49-1.63,0.49h-3.36c-0.77,0-1.32-0.16-1.64-0.49c-0.33-0.33-0.49-0.83-0.49-1.5v-9.55l-2.07,4.76
			c-0.28,0.68-0.58,1.16-0.91,1.45c-0.33,0.29-0.86,0.44-1.61,0.44c-0.75,0-1.28-0.15-1.61-0.44c-0.33-0.29-0.63-0.78-0.91-1.45
			l-2.06-4.76v9.55c0,0.68-0.16,1.18-0.47,1.5c-0.31,0.33-0.87,0.49-1.66,0.49h-3.36C165.19,462.95,164.65,462.79,164.33,462.46z"/>
		<path d="M189.09,462.22c0-0.21,0.06-0.47,0.18-0.77l8.71-20.96c0.21-0.49,0.45-0.83,0.72-1.03c0.27-0.2,0.65-0.3,1.14-0.3h3.81
			c0.49,0,0.87,0.1,1.14,0.3c0.27,0.2,0.51,0.54,0.72,1.03l8.68,20.96c0.12,0.3,0.17,0.56,0.17,0.77c0,0.49-0.26,0.74-0.77,0.74
			h-6.58c-0.72,0-1.18-0.32-1.36-0.95l-0.84-2.59h-6.2l-0.8,2.59c-0.19,0.63-0.64,0.95-1.37,0.95h-6.58
			C189.35,462.95,189.09,462.71,189.09,462.22z M203.09,453.89l-1.36-4.34l-1.37,4.34H203.09z"/>
		<path d="M216.58,462.46c-0.32-0.33-0.47-0.83-0.47-1.5v-19.81c0-0.68,0.16-1.18,0.47-1.5c0.32-0.33,0.86-0.49,1.63-0.49h8.37
			c3.5,0,6.05,0.69,7.65,2.08c1.6,1.39,2.4,3.48,2.4,6.28c0,1.68-0.29,3.1-0.86,4.25c-0.57,1.16-1.45,2.06-2.64,2.71l3.25,6.96
			c0.09,0.19,0.14,0.4,0.14,0.63c0,0.26-0.09,0.47-0.26,0.63c-0.18,0.16-0.4,0.25-0.68,0.25h-5.91c-0.37,0-0.67-0.05-0.89-0.16
			c-0.22-0.11-0.38-0.29-0.47-0.54l-2.59-6.51h-1.19v5.21c0,0.68-0.16,1.18-0.47,1.5c-0.32,0.33-0.87,0.49-1.66,0.49h-4.17
			C217.44,462.95,216.9,462.79,216.58,462.46z M225.84,449.9c0.75,0,1.33-0.2,1.77-0.6c0.43-0.4,0.65-0.99,0.65-1.78
			c0-0.82-0.22-1.42-0.65-1.82c-0.43-0.4-1.02-0.59-1.77-0.59h-2.38v4.79H225.84z"/>
		<path d="M241.21,460.34c-2.36-2.09-3.54-5.19-3.54-9.29c0-4.13,1.14-7.23,3.41-9.31c2.28-2.08,5.52-3.12,9.75-3.12
			c1.91,0,3.62,0.19,5.11,0.56c1.49,0.37,2.74,0.9,3.75,1.57c0.28,0.21,0.42,0.44,0.42,0.7c0,0.21-0.11,0.5-0.32,0.88l-1.75,3.01
			c-0.19,0.33-0.41,0.49-0.67,0.49c-0.16,0-0.43-0.09-0.8-0.28c-0.65-0.33-1.34-0.58-2.05-0.77c-0.71-0.19-1.55-0.28-2.5-0.28
			c-1.94,0-3.42,0.56-4.44,1.68c-1.03,1.12-1.54,2.74-1.54,4.86c0,2.1,0.56,3.72,1.68,4.85c1.12,1.13,2.65,1.7,4.58,1.7
			c1.68,0,3.22-0.35,4.62-1.05c0.37-0.19,0.64-0.28,0.8-0.28c0.26,0,0.48,0.16,0.67,0.49l1.75,3.01c0.21,0.37,0.31,0.67,0.31,0.88
			c0,0.26-0.14,0.49-0.42,0.7c-1,0.68-2.26,1.2-3.78,1.58s-3.23,0.56-5.15,0.56C246.87,463.48,243.56,462.43,241.21,460.34z"/>
		<path d="M260.63,462.22c0-0.21,0.06-0.47,0.17-0.77l8.71-20.96c0.21-0.49,0.45-0.83,0.72-1.03c0.27-0.2,0.65-0.3,1.14-0.3h3.82
			c0.49,0,0.87,0.1,1.14,0.3c0.27,0.2,0.51,0.54,0.72,1.03l8.68,20.96c0.12,0.3,0.17,0.56,0.17,0.77c0,0.49-0.26,0.74-0.77,0.74
			h-6.58c-0.72,0-1.18-0.32-1.37-0.95l-0.84-2.59h-6.2l-0.8,2.59c-0.19,0.63-0.64,0.95-1.37,0.95h-6.58
			C260.89,462.95,260.63,462.71,260.63,462.22z M274.63,453.89l-1.37-4.34l-1.37,4.34H274.63z"/>
		<path d="M290.52,462.81c-1.82-0.44-3.29-1.06-4.41-1.86c-0.47-0.33-0.7-0.64-0.7-0.95c0-0.21,0.08-0.43,0.25-0.67l2.03-3.18
			c0.21-0.3,0.42-0.46,0.63-0.46c0.19,0,0.41,0.08,0.67,0.25c0.84,0.51,1.8,0.92,2.89,1.21c1.09,0.29,2.14,0.44,3.17,0.44
			c0.86,0,1.49-0.12,1.87-0.35c0.38-0.23,0.58-0.59,0.58-1.08c0-0.54-0.26-0.97-0.77-1.29c-0.51-0.33-1.4-0.74-2.66-1.22
			c-2.36-0.91-4.21-1.94-5.56-3.1c-1.35-1.16-2.03-2.69-2.03-4.6c0-2.43,0.85-4.25,2.54-5.48c1.69-1.23,3.97-1.84,6.84-1.84
			c2.01,0,3.72,0.17,5.13,0.53c1.41,0.35,2.64,0.9,3.69,1.64c0.47,0.33,0.7,0.64,0.7,0.95c0,0.21-0.08,0.43-0.24,0.67l-2.03,3.18
			c-0.21,0.33-0.42,0.49-0.63,0.49c-0.14,0-0.36-0.09-0.67-0.28c-0.56-0.37-1.23-0.68-2-0.93s-1.6-0.37-2.48-0.37
			c-0.82,0-1.44,0.12-1.86,0.35s-0.63,0.61-0.63,1.12c0,0.42,0.15,0.77,0.44,1.05s0.66,0.52,1.1,0.72s1.21,0.52,2.31,0.96
			c1.75,0.7,3.13,1.37,4.13,2.01c1,0.64,1.76,1.41,2.28,2.31c0.51,0.9,0.77,2.04,0.77,3.41c0,2.1-0.79,3.8-2.36,5.09
			c-1.58,1.3-3.93,1.94-7.05,1.94C294.31,463.48,292.34,463.25,290.52,462.81z"/>
		<path d="M88.24,504.46c-0.32-0.33-0.47-0.83-0.47-1.5v-6.33l-8.16-13.96c-0.14-0.26-0.21-0.5-0.21-0.74c0-0.51,0.27-0.77,0.8-0.77
			h6.58c0.35,0,0.62,0.08,0.8,0.23c0.19,0.15,0.37,0.39,0.56,0.72l3.81,6.86l3.82-6.86c0.19-0.33,0.37-0.57,0.56-0.72
			c0.19-0.15,0.46-0.23,0.81-0.23h6.58c0.54,0,0.81,0.26,0.81,0.77c0,0.23-0.07,0.48-0.21,0.74l-8.15,13.96v6.33
			c0,0.68-0.16,1.18-0.47,1.5c-0.32,0.33-0.87,0.49-1.66,0.49h-4.17C89.1,504.95,88.56,504.79,88.24,504.46z"/>
		<path d="M117.29,504.46c-0.31-0.33-0.47-0.83-0.47-1.5v-19.81c0-0.68,0.16-1.18,0.47-1.5c0.32-0.33,0.86-0.49,1.63-0.49h8.36
			c3.5,0,6.05,0.69,7.65,2.08c1.6,1.39,2.4,3.48,2.4,6.28c0,2.8-0.8,4.89-2.4,6.26c-1.6,1.38-4.14,2.06-7.61,2.06h-2.1v5.11
			c0,0.68-0.16,1.18-0.47,1.5c-0.31,0.33-0.87,0.49-1.66,0.49h-4.17C118.15,504.95,117.61,504.79,117.29,504.46z M126.55,491.9
			c0.75,0,1.34-0.2,1.77-0.6c0.43-0.4,0.65-0.99,0.65-1.78c0-0.82-0.22-1.42-0.65-1.82s-1.02-0.59-1.77-0.59h-2.38v4.79H126.55z"/>
		<path d="M138.85,504.46c-0.32-0.33-0.47-0.83-0.47-1.5v-19.81c0-0.68,0.16-1.18,0.47-1.5c0.31-0.33,0.86-0.49,1.63-0.49h8.37
			c3.5,0,6.05,0.69,7.65,2.08c1.6,1.39,2.4,3.48,2.4,6.28c0,1.68-0.29,3.1-0.86,4.25s-1.45,2.06-2.64,2.71l3.26,6.96
			c0.09,0.19,0.14,0.4,0.14,0.63c0,0.26-0.09,0.47-0.26,0.63c-0.18,0.16-0.4,0.25-0.68,0.25h-5.92c-0.37,0-0.67-0.05-0.89-0.16
			c-0.22-0.11-0.38-0.29-0.47-0.54l-2.59-6.51h-1.19v5.21c0,0.68-0.16,1.18-0.47,1.5c-0.32,0.33-0.87,0.49-1.66,0.49h-4.17
			C139.71,504.95,139.17,504.79,138.85,504.46z M148.11,491.9c0.75,0,1.33-0.2,1.77-0.6c0.43-0.4,0.65-0.99,0.65-1.78
			c0-0.82-0.22-1.42-0.65-1.82c-0.43-0.4-1.02-0.59-1.77-0.59h-2.38v4.79H148.11z"/>
		<path d="M163.16,502.24c-2.15-2.16-3.22-5.22-3.22-9.19c0-3.97,1.07-7.03,3.22-9.19c2.15-2.16,5.3-3.24,9.45-3.24
			c4.15,0,7.3,1.08,9.45,3.24c2.15,2.16,3.22,5.22,3.22,9.19c0,3.97-1.07,7.03-3.22,9.19c-2.15,2.16-5.3,3.24-9.45,3.24
			C168.46,505.48,165.3,504.4,163.16,502.24z M175.9,497.97c0.68-1.08,1.01-2.72,1.01-4.92c0-2.22-0.34-3.86-1.01-4.93
			c-0.68-1.07-1.77-1.61-3.29-1.61c-1.52,0-2.61,0.54-3.29,1.61c-0.68,1.07-1.02,2.72-1.02,4.93c0,2.19,0.34,3.83,1.02,4.92
			c0.68,1.08,1.77,1.63,3.29,1.63C174.13,499.6,175.22,499.05,175.9,497.97z"/>
		<path d="M187.5,504.46c-0.31-0.33-0.47-0.83-0.47-1.5v-19.81c0-0.68,0.16-1.18,0.47-1.5c0.32-0.33,0.86-0.49,1.63-0.49h8.05
			c8.24,0,12.36,3.97,12.36,11.9c0,3.92-1.06,6.88-3.17,8.89s-5.17,3.01-9.19,3.01h-8.05C188.36,504.95,187.82,504.79,187.5,504.46z
			 M197.49,499c1.31,0,2.25-0.43,2.82-1.29s0.86-2.42,0.86-4.66c0-2.24-0.29-3.79-0.86-4.65s-1.51-1.29-2.82-1.29h-2.07V499H197.49z
			"/>
		<path d="M216.57,504.38c-1.73-0.74-3.07-1.8-4.03-3.19c-0.96-1.39-1.44-3.04-1.44-4.95v-13.09c0-0.68,0.16-1.18,0.47-1.5
			c0.32-0.33,0.86-0.49,1.63-0.49h4.17c0.79,0,1.35,0.16,1.66,0.47c0.32,0.31,0.47,0.82,0.47,1.52v13.19c0,1.1,0.27,1.91,0.82,2.45
			c0.55,0.54,1.3,0.8,2.26,0.8s1.71-0.27,2.26-0.8c0.55-0.54,0.82-1.35,0.82-2.45v-13.19c0-0.68,0.16-1.18,0.47-1.5
			c0.31-0.33,0.86-0.49,1.63-0.49h4.17c0.79,0,1.35,0.16,1.66,0.47c0.31,0.31,0.47,0.82,0.47,1.52v13.09c0,1.91-0.48,3.56-1.44,4.95
			c-0.96,1.39-2.3,2.45-4.03,3.19c-1.73,0.73-3.73,1.1-6.02,1.1S218.29,505.11,216.57,504.38z"/>
		<path d="M239.18,502.34c-2.36-2.09-3.54-5.19-3.54-9.29c0-4.13,1.14-7.23,3.41-9.31c2.28-2.08,5.52-3.12,9.75-3.12
			c1.91,0,3.62,0.19,5.11,0.56c1.49,0.37,2.74,0.9,3.75,1.57c0.28,0.21,0.42,0.44,0.42,0.7c0,0.21-0.11,0.5-0.32,0.88l-1.75,3.01
			c-0.19,0.33-0.41,0.49-0.67,0.49c-0.16,0-0.43-0.09-0.8-0.28c-0.65-0.33-1.34-0.58-2.05-0.77c-0.71-0.19-1.55-0.28-2.5-0.28
			c-1.94,0-3.42,0.56-4.44,1.68c-1.03,1.12-1.54,2.74-1.54,4.86c0,2.1,0.56,3.72,1.68,4.85c1.12,1.13,2.65,1.7,4.58,1.7
			c1.68,0,3.22-0.35,4.62-1.05c0.37-0.19,0.64-0.28,0.8-0.28c0.26,0,0.48,0.16,0.67,0.49l1.75,3.01c0.21,0.37,0.31,0.67,0.31,0.88
			c0,0.26-0.14,0.49-0.42,0.7c-1,0.68-2.26,1.2-3.78,1.58s-3.23,0.56-5.15,0.56C244.84,505.48,241.53,504.43,239.18,502.34z"/>
		<path d="M265.34,504.46c-0.31-0.33-0.47-0.83-0.47-1.5V487.1h-5.04c-0.75,0-1.25-0.16-1.52-0.47c-0.27-0.32-0.4-0.82-0.4-1.52
			v-1.96c0-0.7,0.13-1.21,0.4-1.52c0.27-0.32,0.78-0.47,1.52-0.47h18.48c0.75,0,1.25,0.16,1.52,0.47c0.27,0.31,0.4,0.82,0.4,1.52
			v1.96c0,0.7-0.13,1.21-0.4,1.52c-0.27,0.31-0.78,0.47-1.52,0.47h-5.04v15.85c0,0.68-0.16,1.18-0.47,1.5
			c-0.31,0.33-0.87,0.49-1.66,0.49h-4.17C266.2,504.95,265.66,504.79,265.34,504.46z"/>
		<path d="M282.23,502.24c-2.15-2.16-3.22-5.22-3.22-9.19c0-3.97,1.07-7.03,3.22-9.19c2.15-2.16,5.3-3.24,9.45-3.24
			c4.15,0,7.3,1.08,9.45,3.24c2.15,2.16,3.22,5.22,3.22,9.19c0,3.97-1.07,7.03-3.22,9.19c-2.15,2.16-5.3,3.24-9.45,3.24
			C287.52,505.48,284.37,504.4,282.23,502.24z M294.97,497.97c0.68-1.08,1.02-2.72,1.02-4.92c0-2.22-0.34-3.86-1.02-4.93
			c-0.68-1.07-1.77-1.61-3.29-1.61c-1.52,0-2.61,0.54-3.29,1.61c-0.68,1.07-1.01,2.72-1.01,4.93c0,2.19,0.34,3.83,1.01,4.92
			c0.68,1.08,1.77,1.63,3.29,1.63C293.19,499.6,294.29,499.05,294.97,497.97z"/>
		<path d="M308.97,504.81c-1.82-0.44-3.29-1.06-4.41-1.86c-0.47-0.33-0.7-0.64-0.7-0.95c0-0.21,0.08-0.43,0.25-0.67l2.03-3.18
			c0.21-0.3,0.42-0.46,0.63-0.46c0.19,0,0.41,0.08,0.67,0.25c0.84,0.51,1.8,0.92,2.89,1.21c1.09,0.29,2.14,0.44,3.17,0.44
			c0.86,0,1.49-0.12,1.87-0.35c0.38-0.23,0.58-0.59,0.58-1.08c0-0.54-0.26-0.97-0.77-1.29c-0.51-0.33-1.4-0.74-2.66-1.22
			c-2.36-0.91-4.21-1.94-5.56-3.1c-1.35-1.16-2.03-2.69-2.03-4.6c0-2.43,0.85-4.25,2.54-5.48c1.69-1.23,3.97-1.84,6.84-1.84
			c2.01,0,3.72,0.17,5.13,0.53c1.41,0.35,2.64,0.9,3.69,1.64c0.47,0.33,0.7,0.64,0.7,0.95c0,0.21-0.08,0.43-0.24,0.67l-2.03,3.18
			c-0.21,0.33-0.42,0.49-0.63,0.49c-0.14,0-0.36-0.09-0.67-0.28c-0.56-0.37-1.23-0.68-2-0.93s-1.6-0.37-2.48-0.37
			c-0.82,0-1.44,0.12-1.86,0.35s-0.63,0.61-0.63,1.12c0,0.42,0.15,0.77,0.44,1.05s0.66,0.52,1.1,0.72s1.21,0.52,2.31,0.96
			c1.75,0.7,3.13,1.37,4.13,2.01c1,0.64,1.76,1.41,2.28,2.31c0.51,0.9,0.77,2.04,0.77,3.41c0,2.1-0.79,3.8-2.36,5.09
			c-1.58,1.3-3.93,1.94-7.05,1.94C312.76,505.48,310.79,505.25,308.97,504.81z"/>
	</g>
	<polygon class="st1" points="200.76,96.93 214.23,124.22 244.34,128.59 222.55,149.83 227.7,179.83 200.76,165.67 173.83,179.83 
		178.97,149.83 157.18,128.59 187.29,124.22 	"/>
	<polygon class="st1" points="138.58,180.15 147.32,197.86 166.86,200.7 152.72,214.48 156.06,233.94 138.58,224.75 121.11,233.94 
		124.45,214.48 110.31,200.7 129.85,197.86 	"/>
	<polygon class="st1" points="268.68,180.15 277.42,197.86 296.95,200.7 282.82,214.48 286.15,233.94 268.68,224.75 251.2,233.94 
		254.54,214.48 240.4,200.7 259.94,197.86 	"/>
	<circle class="st2" cx="201.77" cy="213.97" r="121.96"/>
	<circle class="st3" cx="200.82" cy="200.58" r="121.96"/>
	<g>
		<path class="st3" d="M176.43,640.35v-4.31c0-2.87,0.97-5.57,2.92-8.1c1.95-2.53,5.35-5.5,10.22-8.91c1.7-1.17,2.75-1.87,3.14-2.12
			c1.75-1.17,2.97-2.04,3.65-2.63c0.68-0.58,1.19-1.22,1.53-1.9c0.34-0.68,0.51-1.56,0.51-2.63c0-1.22-0.45-2.2-1.35-2.96
			c-0.9-0.75-2.28-1.13-4.13-1.13c-3.12,0-6.28,0.8-9.49,2.41c-0.78,0.39-1.34,0.58-1.68,0.58c-0.54,0-1-0.34-1.39-1.02l-3.65-6.28
			c-0.44-0.78-0.66-1.39-0.66-1.82c0-0.54,0.29-1.02,0.88-1.46c2.09-1.41,4.79-2.54,8.1-3.39c3.31-0.85,6.93-1.28,10.88-1.28
			c6.13,0,10.99,1.28,14.56,3.83c3.58,2.55,5.37,6.17,5.37,10.84c0,3.6-1,6.66-2.99,9.16c-2,2.51-5.26,5.22-9.78,8.14
			c-4.82,3.12-7.71,5.21-8.69,6.28h17.81c1.56,0,2.62,0.33,3.18,0.99c0.56,0.66,0.84,1.71,0.84,3.17v4.16
			c0,1.46-0.28,2.52-0.84,3.18c-0.56,0.66-1.62,0.99-3.18,0.99h-32.12C177.65,644.14,176.43,642.88,176.43,640.35z"/>
	</g>
	<g>
		<circle id="XMLID_75_" class="st4" cx="197.76" cy="197.79" r="73.03"/>
		<g id="XMLID_41_">
			<path id="XMLID_73_" class="st23" d="M218.08,194.93c0.95-2.32,1.43-4.15,1.53-4.63c-0.09-0.03-0.17-0.07-0.21-0.14
				c-0.15-0.22,0.3-2.58,0.09-2.75c-0.02-0.02-0.05-0.03-0.08-0.04c-0.27,0.84-0.76,1.52-1.33,2.01
				C218.09,191.19,218.09,193.05,218.08,194.93z"/>
			<path id="XMLID_71_" class="st41" d="M214.79,190.3c-1.08-0.77-1.04,10.17-5.53,14.5c-0.32,0.31-0.65,0.61-0.99,0.91
				c-0.34,0.3-0.7,0.57-1.05,0.85c0,0.15,0,0.3,0.01,0.46c4.14-1.21,7.05-4.88,8.87-8.03c0.81-1.41,1.47-2.81,1.98-4.07
				c0.01-1.88,0.02-3.74,0.01-5.55c-0.35,0.29-0.71,0.51-1.07,0.63C216.39,190.65,215.64,190.87,214.79,190.3z"/>
			<path id="XMLID_69_" class="st41" d="M179.93,219.44c-0.12,0.06-0.46,0.26-0.79,0.78C179.37,219.99,179.63,219.74,179.93,219.44z
				"/>
			<path id="XMLID_67_" class="st41" d="M207.25,207.61c0.11,2.41,0.59,5.57,2.55,8.44c0.65-0.57,1-0.7,1.24-0.3
				c1.45,2.46,2.97,3.77,3.81,4.6c-0.42-0.73-0.91-0.93-0.91-0.93s1.04-0.4,2.84,1.12c0.42,0.35,1.15,0.85,1.95,1.52
				c-0.94-4.67-0.74-15.27-0.67-25.71c-0.43,0.95-0.92,1.94-1.48,2.92C213.99,203.78,210.8,206.62,207.25,207.61z"/>
			<path id="XMLID_65_" class="st41" d="M179.96,219.41c0.82-0.83,1.86-1.97,2.86-3.66c0.24-0.41,0.61-0.27,1.28,0.33
				c2.28-3.32,2.59-7.03,2.61-9.51c-0.71-0.56-1.39-1.14-2.04-1.76c-4.49-4.33-4.45-15.28-5.53-14.5c-0.84,0.56-1.57,0.36-2.19-0.26
				c-0.22-0.07-0.44-0.17-0.67-0.31c-0.04,11.95,0.47,25.97-0.57,31.91c0.59-0.46,1.11-0.83,1.44-1.1
				C178.85,219.09,179.86,219.38,179.96,219.41z"/>
			<path id="XMLID_63_" class="st42" d="M206.31,207.25c0.31-0.06,0.62-0.14,0.92-0.22c0-0.16-0.01-0.31-0.01-0.46
				C206.92,206.8,206.62,207.03,206.31,207.25z"/>
			<path id="XMLID_61_" class="st42" d="M196.8,227.57c0.07,0.06,0.11,0.13,0.13,0.2c0.02-0.08,0.05-0.15,0.13-0.2
				c7.83-5.99,11.17-10.11,12.74-11.51c-1.96-2.88-2.45-6.04-2.55-8.44c-0.65,0.18-1.31,0.3-1.98,0.35
				c-0.19,0.83-1.04,2.35-3.92,2.32c-0.6-0.01-1.1-0.08-1.51-0.2c-0.44,0.08-0.87,0.16-1.31,0.2c-1.33,0.14-2.7,0.09-4.02-0.12
				c-1.09-0.17-2.15-0.46-3.17-0.86c-1.15-0.45-2.24-1.04-3.26-1.72c-0.47-0.31-0.92-0.66-1.36-1.01c-0.02,2.48-0.32,6.2-2.61,9.51
				C185.69,217.52,189.04,221.62,196.8,227.57z"/>
			<path id="XMLID_59_" class="st42" d="M196.93,227.96c0,0.01,0,0.03-0.01,0.04h0.02C196.93,227.99,196.93,227.97,196.93,227.96z"
				/>
			<path id="XMLID_58_" class="st43" d="M191.33,209.3c1.02,0.4,2.09,0.69,3.17,0.86c1.32,0.21,2.69,0.25,4.02,0.12
				c0.44-0.04,0.88-0.12,1.31-0.2c-1.92-0.54-2.05-2.05-2.1-2.56c0.07-0.62,0.3-2.72,3.67-2.68c3.06,0.03,3.79,1.77,3.9,2.55
				c0.34-0.03,0.68-0.08,1.01-0.14c0.31-0.22,0.61-0.45,0.91-0.68c0.36-0.28,0.72-0.55,1.05-0.85c0.34-0.3,0.66-0.6,0.99-0.91
				c4.49-4.33,4.45-15.28,5.53-14.5c0.85,0.57,1.6,0.35,2.22-0.29c-0.52,0.18-1.03,0.2-1.4-0.03c-0.61-0.38,0.02-3.44,0.46-8.13
				c-0.07,0.02-0.13,0.05-0.19,0.09c-0.85,0.54-1.91-6.75-6.01-10.15c-4.1-3.4-4.43-5.71-4.43-5.71c-4.1,0.46-8.11,1.95-14.87,7.33
				c-5.35,4.26-10.12,8.5-12.28,9.07c-0.2,0.05-0.33-0.16-0.49-0.45c0.44,4.59,1.05,7.58,0.45,7.95c-0.35,0.22-0.82,0.21-1.31,0.06
				c0.62,0.62,1.35,0.83,2.19,0.26c1.08-0.77,1.04,10.17,5.53,14.5c0.65,0.63,1.33,1.21,2.04,1.76c0.44,0.35,0.89,0.7,1.36,1.01
				C189.09,208.26,190.18,208.85,191.33,209.3z"/>
			<path id="XMLID_57_" class="st41" d="M176.1,173.87c0.2-4.01,3.88-18.55,20.83-18.55c16.94,0,20.62,14.54,20.83,18.55
				c0.13,2.6-0.13,4.1,0.08,5c0.08-0.87,0.13-2.01,0.13-3.5c0-7.66-3.11-15.55-8.12-16.86c-2.41-0.63-2.72-2.97-8.08-4.58
				c-8.56-2.56-18.23,0.99-23.17,9.22c-3.46,5.76-3.63,13.82-3.27,16.63C176.54,179.13,175.91,177.66,176.1,173.87z"/>
			<path id="XMLID_56_" class="st41" d="M178.29,182.48c2.16-0.57,6.93-4.81,12.28-9.07c6.76-5.38,10.77-6.86,14.87-7.33
				c0,0,0.33,2.3,4.43,5.71c4.1,3.4,5.16,10.69,6.01,10.15c0.06-0.04,0.13-0.07,0.19-0.09c0.04-0.48,0.09-0.98,0.13-1.49
				c0.42-5.53,0.37-7.34-0.18-9.34c-4.18-15.44-19.1-14.34-19.1-14.34s-14.4-1.35-19.03,14.1c-0.61,2.05-0.67,4.06-0.25,9.59
				c0.04,0.58,0.09,1.13,0.14,1.67C177.96,182.32,178.1,182.53,178.29,182.48z"/>
			<path id="XMLID_55_" class="st96" d="M178.24,189.98c0.6-0.37-0.01-3.36-0.45-7.95c-0.05-0.54-0.1-1.09-0.14-1.67
				c-0.42-5.53-0.37-7.54,0.25-9.59c4.63-15.45,19.03-14.1,19.03-14.1s14.91-1.1,19.1,14.34c0.54,2.01,0.6,3.81,0.18,9.34
				c-0.04,0.51-0.08,1.01-0.13,1.49c-0.44,4.69-1.07,7.75-0.46,8.13c0.37,0.23,0.88,0.21,1.4,0.03c0.36-0.13,0.73-0.34,1.07-0.63
				c0.57-0.48,1.06-1.17,1.33-2.01c-0.21-0.06-0.53,0.13-0.7-0.24c-0.2-0.42-0.1-2.3,0.07-2.71c0.17-0.41,0.35-0.6,0.99-0.48
				c0.03,0.01,0.07,0.02,0.1,0.03c0.08-1.89-0.16-3.71-1.15-4.09c-0.53-0.21-0.78-0.52-0.89-1.01c-0.21-0.9,0.05-2.4-0.08-5
				c-0.2-4.01-3.88-18.55-20.83-18.55c-16.94,0-20.62,14.54-20.83,18.55c-0.19,3.79,0.44,5.26-0.78,5.9
				c-0.07,0.04-0.12,0.08-0.2,0.11c-1.52,0.58-1.26,4.51-0.84,6.93c0.23,1.35,1.08,2.38,1.98,2.92c0.22,0.14,0.45,0.24,0.67,0.31
				C177.42,190.19,177.89,190.2,178.24,189.98z"/>
			<path id="XMLID_53_" class="st97" d="M218.78,184.42c-0.17,0.41-0.27,2.29-0.07,2.71c0.18,0.37,0.49,0.18,0.7,0.24
				c0.03,0.01,0.05,0.02,0.08,0.04c0.2,0.17-0.24,2.53-0.09,2.75c0.04,0.07,0.12,0.11,0.21,0.14c-0.1,0.48-0.58,2.31-1.53,4.63
				c-0.52,1.26-1.17,2.66-1.98,4.07c-1.81,3.15-4.73,6.82-8.87,8.03c-0.3,0.09-0.6,0.16-0.92,0.22c-0.33,0.06-0.67,0.11-1.01,0.14
				c-0.1-0.78-0.83-2.52-3.9-2.55c-3.37-0.03-3.6,2.07-3.67,2.68c0.05,0.51,0.18,2.02,2.1,2.56c0.42,0.12,0.91,0.19,1.51,0.2
				c2.88,0.03,3.73-1.49,3.92-2.32c0.67-0.06,1.33-0.17,1.98-0.35c3.55-0.99,6.74-3.82,9.34-8.34c0.56-0.98,1.06-1.97,1.48-2.92
				c1.36-3.01,2.04-5.58,2.11-6.07c0.04-0.01,0.08-0.02,0.11-0.04c0.24-0.16,0.41-1.71,0.56-3.48c0.14-1.68-0.39-2.59-0.96-2.78
				c-0.03-0.01-0.07-0.03-0.1-0.03C219.14,183.82,218.95,184.01,218.78,184.42z"/>
			<path id="XMLID_51_" class="st44" d="M193.96,240.48c-1.23-2.75-2.59-4.31-2.72-6.6c-0.91,1.12-1.53,2.27-1.43,3.36
				c0.34,3.62-10.37-8.79-11.39-14.74c-0.19,1.14-0.19,3.53,3.11,8.21c2.23,3.17,7.47,12.19,11.29,20.3
				c0.76-4.89,1.37-8.64,1.63-10.05C194.24,240.84,194.05,240.68,193.96,240.48z"/>
			<path id="XMLID_50_" class="st44" d="M204.05,237.25c0.1-1.09-0.52-2.24-1.43-3.36c-0.13,2.29-1.5,3.85-2.72,6.6
				c-0.09,0.2-0.28,0.36-0.48,0.48c0.27,1.47,0.91,5.47,1.72,10.65c3.71-8.25,8.97-17.65,11.25-20.89c3.47-4.92,3.29-7.31,3.08-8.37
				C214.61,228.24,203.7,240.9,204.05,237.25z"/>
			<path id="XMLID_49_" class="st44" d="M180.16,234.22c0.01,0.01,0.01,0.02,0.02,0.03l0.03-0.02
				C180.21,234.23,180.19,234.22,180.16,234.22z"/>
			<path id="XMLID_48_" class="st98" d="M199.9,240.48c1.23-2.75,2.59-4.31,2.72-6.6c-2.01-2.48-5.44-4.79-5.68-5.89h-0.02
				c-0.25,1.1-3.67,3.4-5.69,5.89c0.13,2.29,1.5,3.85,2.72,6.6c0.09,0.2,0.27,0.36,0.48,0.48c-0.26,1.41-0.86,5.17-1.63,10.05
				c2.27,4.82,4.03,9.32,4.36,12.06c0.31-2.63,1.9-6.87,3.96-11.46c-0.8-5.17-1.45-9.18-1.72-10.65
				C199.62,240.84,199.81,240.68,199.9,240.48z"/>
			<path id="XMLID_47_" class="st57" d="M211.04,215.75c-0.24-0.4-0.6-0.27-1.24,0.3c-1.58,1.4-4.92,5.52-12.74,11.51
				c-0.07,0.06-0.11,0.13-0.13,0.2c-0.02-0.08-0.05-0.15-0.13-0.2c-7.76-5.95-11.11-10.05-12.71-11.48
				c-0.67-0.6-1.04-0.74-1.28-0.33c-1,1.69-2.04,2.84-2.86,3.66c0,0,0.02,0.01,0.02,0.01s-0.02,0.01-0.04,0.02
				c-0.3,0.3-0.56,0.56-0.79,0.78c-0.24,0.37-0.47,0.91-0.6,1.67c-0.02,0.14-0.08,0.35-0.13,0.62c1.02,5.96,11.73,18.36,11.39,14.74
				c-0.1-1.09,0.52-2.24,1.43-3.36c2.01-2.48,5.44-4.79,5.69-5.89c0-0.01,0.01-0.03,0.01-0.04c0,0.01,0,0.03,0.01,0.04
				c0.25,1.1,3.67,3.4,5.68,5.89c0.91,1.12,1.53,2.27,1.43,3.36c-0.34,3.65,10.57-9.01,11.42-14.9c-0.04-0.19-0.08-0.35-0.1-0.46
				c-0.12-0.68-0.31-1.17-0.52-1.53C214.01,219.51,212.5,218.21,211.04,215.75z"/>
			<path id="XMLID_46_" class="st97" d="M239.98,231.04c-0.66-0.9-15.12-5.89-19.82-7.61c0.48,0.53,0.93,1.12,1.31,1.8
				c2.07,3.71,2.18,5.98,3.65,7.07c1.46,1.09-11.42,1.94-11.42,1.94l8.11,6.12c0,0-9.09,10.4-15.24,14.88
				c-1.9,1.39-7.92,6.95-9.38,9.35c0.34,1.61,0.92,4.03,1.06,4.99c0.06,0.42,0.11,0.82,0.16,1.23c11.2-0.13,21.78-2.78,31.23-7.41
				c0.29-5.6-0.68-27.64,9.92-32.33c0.22-0.1,0.48,0.13,0.75,0.62c0,0,0-0.01,0-0.01C240.21,231.45,240.11,231.21,239.98,231.04z"/>
			<path id="XMLID_45_" class="st99" d="M197.2,264.58L197.2,264.58c-1.71-1.49-7.96-7.96-9.87-9.35
				c-6.15-4.48-15.24-14.88-15.24-14.88l8.08-6.1c-0.01-0.01-0.01-0.02-0.02-0.03c-0.83-0.06-12.78-0.88-11.37-1.93
				c1.46-1.09,1.58-3.36,3.65-7.07c0.41-0.73,0.91-1.37,1.43-1.92c-4.91,1.79-18.95,6.64-19.6,7.53
				c11.33,0.59,10.2,25.81,10.41,32.19c9.88,4.98,21.03,7.81,32.84,7.81c0.3,0,0.59-0.02,0.88-0.02c-0.05-0.41-0.1-0.81-0.16-1.23
				C198.13,268.61,197.54,266.19,197.2,264.58z"/>
			<path id="XMLID_44_" class="st100" d="M172.44,225.22c-2.07,3.71-2.18,5.98-3.65,7.07c-1.41,1.05,10.54,1.88,11.37,1.93
				c0.03,0,0.05,0,0.05,0l-0.03,0.02l-8.08,6.1c0,0,9.09,10.4,15.24,14.88c1.9,1.39,8.15,7.86,9.87,9.35l0,0
				c1.46-2.4,7.48-7.96,9.38-9.35c6.15-4.48,15.24-14.88,15.24-14.88l-8.11-6.12c0,0,12.88-0.85,11.42-1.94
				c-1.46-1.09-1.58-3.36-3.65-7.07c-0.38-0.68-0.83-1.27-1.31-1.8c-0.47-0.52-0.96-0.97-1.43-1.36c-0.8-0.67-1.54-1.17-1.95-1.52
				c-1.8-1.53-2.84-1.12-2.84-1.12s0.48,0.2,0.91,0.93c0.21,0.36,0.41,0.85,0.52,1.53c0.02,0.11,0.06,0.27,0.1,0.46
				c0.21,1.06,0.39,3.45-3.08,8.37c-2.29,3.25-7.55,12.64-11.25,20.89c-2.06,4.59-3.65,8.84-3.96,11.46
				c-0.33-2.74-2.09-7.23-4.36-12.06c-3.81-8.1-9.05-17.13-11.29-20.3c-3.3-4.68-3.3-7.07-3.11-8.21c0.05-0.27,0.1-0.48,0.13-0.62
				c0.13-0.76,0.36-1.29,0.6-1.67c0.33-0.52,0.67-0.72,0.79-0.78c0.03-0.01,0.04-0.02,0.04-0.02s-0.01,0-0.02-0.01
				c-0.1-0.03-1.11-0.32-2.82,1.13c-0.33,0.28-0.85,0.64-1.44,1.1c-0.57,0.45-1.21,1-1.83,1.65
				C173.35,223.85,172.85,224.49,172.44,225.22z"/>
			<path id="XMLID_43_" class="st100" d="M154.28,230.83c-0.65-0.03-2.79,9.87-4.95,21.8c4.64,4.08,9.8,7.58,15.37,10.39
				C164.48,256.63,165.6,231.42,154.28,230.83z"/>
			<path id="XMLID_42_" class="st100" d="M239.56,231.07c-10.59,4.69-9.63,26.72-9.92,32.33c5.72-2.8,11-6.34,15.76-10.47
				c-1.82-10.17-3.75-18.88-5.09-21.24C240.04,231.2,239.78,230.97,239.56,231.07z"/>
		</g>
	</g>
</g>
</svg>
