<?xml version="1.0" encoding="utf-8"?>
<!-- Generator: Adobe Illustrator 23.0.0, SVG Export Plug-In . SVG Version: 6.00 Build 0)  -->
<svg version="1.1" id="Capa_1" xmlns="http://www.w3.org/2000/svg" xmlns:xlink="http://www.w3.org/1999/xlink" x="0px" y="0px"
	 viewBox="0 0 400 702" style="enable-background:new 0 0 400 702;" xml:space="preserve">
<style type="text/css">
	.st0{fill:#0085B0;}
	.st1{fill:#E0EF18;}
	.st2{fill:#CECECE;}
	.st3{fill:#FFFFFF;}
	.st4{fill:#F2F2F2;}
	.st5{fill:#EACCB0;}
	.st6{fill:#9B9B9B;}
	.st7{fill:#939393;}
	.st8{fill:#EFEFEF;}
	.st9{fill:#828282;}
	.st10{fill:#2C2A2D;}
	.st11{fill:#202021;}
	.st12{fill:#F2D4B6;}
	.st13{fill:#534D46;}
	.st14{fill:#E8D313;}
	.st15{fill:#2ACCFF;}
	.st16{fill:#4E4F4F;}
	.st17{fill:#003A94;}
	.st18{fill:#00D13C;}
	.st19{fill:#15682A;}
	.st20{fill:#D40000;}
	.st21{fill:#505050;}
	.st22{fill:#DFDFDF;}
	.st23{fill:none;}
	.st24{fill:#636363;}
	.st25{fill:#6C92D5;}
	.st26{fill:#22272F;}
	.st27{fill:#1B2538;}
	.st28{fill:#253452;}
	.st29{fill:#F9F9F9;}
	.st30{fill:#2D3543;}
	.st31{fill:#2A3D60;}
	.st32{fill:#587955;}
	.st33{fill:#CD7054;}
	.st34{fill:#F1CC4B;}
	.st35{fill:#ACACAC;}
	.st36{fill:#AAE528;}
	.st37{fill:#28CEBA;}
	.st38{fill:#DB143F;}
	.st39{fill:#53C2C9;}
	.st40{fill:#FFB412;}
	.st41{fill:#866A5E;}
	.st42{fill:#F7DDCB;}
	.st43{fill:#FFE6D4;}
	.st44{fill:#F5F5F5;}
	.st45{fill:#1A2830;}
	.st46{fill:#24353F;}
	.st47{fill:#132026;}
	.st48{fill:#F9FF03;}
	.st49{fill:#272728;}
	.st50{fill:#1E1D1E;}
	.st51{fill:#160423;}
	.st52{fill-rule:evenodd;clip-rule:evenodd;fill:#FFFFFF;}
	.st53{fill-rule:evenodd;clip-rule:evenodd;fill:#1996B8;}
	.st54{fill:#0C387D;}
	.st55{fill:#C69A81;}
	.st56{fill:#D1A385;}
	.st57{fill:#EAEAEA;}
	.st58{fill:#093E8C;}
	.st59{fill:#0B2A62;}
	.st60{fill:#D32A3B;}
	.st61{fill:#827C7D;}
	.st62{opacity:0.7;fill:#7F7F7F;}
	.st63{fill:#FDFDFD;}
	.st64{fill:#DAA449;}
	.st65{fill:#DD9225;}
	.st66{opacity:0.3;}
	.st67{fill:#425793;}
	.st68{opacity:0.8;}
	.st69{filter:url(#Adobe_OpacityMaskFilter);}
	.st70{opacity:0.15;mask:url(#SVGID_1_);}
	.st71{fill:#090B00;}
	.st72{opacity:0.1;}
	.st73{fill:#211915;}
	.st74{filter:url(#Adobe_OpacityMaskFilter_1_);}
	.st75{opacity:0.15;mask:url(#SVGID_2_);}
	.st76{fill:#AF3623;}
	.st77{filter:url(#Adobe_OpacityMaskFilter_2_);}
	.st78{opacity:0.15;mask:url(#SVGID_3_);}
	.st79{filter:url(#Adobe_OpacityMaskFilter_3_);}
	.st80{opacity:0.15;mask:url(#SVGID_4_);}
	.st81{fill:#456495;}
	.st82{filter:url(#Adobe_OpacityMaskFilter_4_);}
	.st83{opacity:0.15;mask:url(#SVGID_5_);}
	.st84{filter:url(#Adobe_OpacityMaskFilter_5_);}
	.st85{opacity:0.15;mask:url(#SVGID_6_);}
	.st86{fill:#76A9DA;}
	.st87{filter:url(#Adobe_OpacityMaskFilter_6_);}
	.st88{opacity:0.15;mask:url(#SVGID_7_);}
	.st89{filter:url(#Adobe_OpacityMaskFilter_7_);}
	.st90{opacity:0.15;mask:url(#SVGID_8_);}
	.st91{fill:#1F3642;}
	.st92{fill:#A9BDDA;}
	.st93{opacity:0.46;fill:#A6B4BC;}
	.st94{fill:#74C475;}
	.st95{fill:#221F21;}
	.st96{fill:#2D2D2D;}
	.st97{fill:#1C1B1A;}
	.st98{fill:#77181C;}
	.st99{fill:#262525;}
	.st100{fill:#11100F;}
	.st101{opacity:0.18;}
	.st102{opacity:0.38;}
	.st103{fill:#0A5B1F;}
	.st104{opacity:0.27;}
	.st105{opacity:0.48;}
	.st106{fill:#0A4654;}
	.st107{fill:#C2C6C6;}
	.st108{fill:#E5E5E5;stroke:#FFFFFF;stroke-miterlimit:10;}
	.st109{fill:#ACB4B5;}
	.st110{fill:#7F8384;}
	.st111{fill:#15772F;}
	.st112{fill:#F4F4F4;}
	.st113{fill:#53B8DB;}
	.st114{fill:#06EF42;}
	.st115{fill:#E7ED07;}
	.st116{fill:#CCCCCA;}
	.st117{fill:#EADF13;}
	.st118{fill:#C2C2C2;}
	.st119{fill:#85B681;}
	.st120{fill:#A1DC9B;}
	.st121{fill:#90C58B;}
	.st122{fill:#22241F;}
	.st123{opacity:0.5;}
	.st124{fill:#A2CADE;}
	.st125{fill:#E9E9E9;}
	.st126{fill:#D9D9D9;}
	.st127{fill:#CDCDCD;}
	.st128{opacity:0.34;fill:#F0F0F0;}
	.st129{fill:#5A5B5A;}
	.st130{fill:#FFE600;}
	.st131{fill:#DB1F59;}
	.st132{fill:#727272;}
	.st133{fill:#207235;}
	.st134{fill:#A3A3A3;}
	.st135{fill:#BCBCBC;}
	.st136{fill:#0A511C;}
	.st137{fill:#F9FF00;}
	.st138{fill:#D59F6D;}
	.st139{fill:#C0804A;}
	.st140{fill:#E6BA8A;}
	.st141{fill:#BE3ACC;}
	.st142{fill:#FFFFFF;stroke:#443F0C;stroke-width:9;stroke-miterlimit:10;}
	.st143{fill:none;stroke:#443F0C;stroke-width:9;stroke-miterlimit:10;}
	.st144{fill:#170623;}
	.st145{fill:#158231;}
	.st146{fill:#C89D76;}
	.st147{opacity:0.4;}
	.st148{fill:#ADADAD;}
	.st149{fill:#EDC3A6;}
	.st150{opacity:0.69;}
	.st151{fill:#E5D3D6;}
	.st152{opacity:0.44;}
	.st153{fill:#A5A5A5;}
	.st154{fill:#DDE5E4;}
	.st155{fill:#5C9169;}
	.st156{fill:#934215;}
	.st157{fill:#47413B;}
	.st158{fill:#601A1F;}
	.st159{fill:#044554;}
	.st160{opacity:0.7;}
	.st161{fill:#7F7F7F;}
	.st162{fill:#6B8A69;}
	.st163{opacity:0.24;fill:#848D90;}
	.st164{opacity:0.4;fill:#848D90;}
	.st165{fill:#F2D5D5;}
	.st166{fill:#485CC1;}
	.st167{fill:#C6CBE0;}
	.st168{fill:#8B909E;}
	.st169{fill:#53BC1B;}
	.st170{fill:#11565B;}
	.st171{fill:#67A06D;}
	.st172{fill:#FFEC00;}
	.st173{fill:#77A007;}
	.st174{fill:#E50731;}
	.st175{fill:#266472;}
	.st176{fill:#D4D4D4;}
	.st177{fill:#0E9932;}
	.st178{fill:#87DD24;}
	.st179{fill:#76A172;}
	.st180{fill:#62835F;}
	.st181{fill:#96D090;}
	.st182{fill:#D6D6D6;}
	.st183{fill:#606060;}
	.st184{fill:#494949;}
	.st185{fill:#29E55A;}
	.st186{fill:#2C703D;}
	.st187{fill:#DD0744;}
	.st188{fill:#EDEDED;}
	.st189{fill:#2A5936;}
	.st190{fill:#B9BBC1;}
	.st191{fill:#FFD79E;}
	.st192{fill:#FFE6C2;}
	.st193{fill:#2CBB55;}
	.st194{fill:#5C412D;}
	.st195{fill:#EC0000;}
	.st196{fill:#DD2626;}
	.st197{fill:#EA9334;}
	.st198{fill:#FCC232;}
	.st199{fill:#F9B234;}
	.st200{fill:#F7A037;}
	.st201{fill:#E0E0E0;}
</style>
<g>
	<g>
		<path class="st0" d="M9.5,209.36c0,22,13.29,27.86,29.54,13.03c0,0,156.99-143.3,353.09,26.97V55c0-22-18-40-40-40H49.5
			c-22,0-40,18-40,40V209.36z"/>
	</g>
	<g>
		<path class="st0" d="M391.66,647c0,22-18,40-40,40H49.98c-22,0-40-18-40-40v-46.27c0-22,18-40,40-40h301.68c22,0,40,18,40,40V647z
			"/>
	</g>
	<g>
		<path d="M172.34,378.53c-0.27-0.28-0.41-0.71-0.41-1.29v-17.01c0-0.58,0.14-1,0.41-1.28c0.27-0.27,0.74-0.41,1.42-0.41h3.45
			c0.44,0,0.79,0.06,1.05,0.17c0.26,0.11,0.46,0.33,0.6,0.65l3.51,8.79l3.51-8.79c0.14-0.32,0.34-0.54,0.6-0.65
			c0.26-0.11,0.61-0.17,1.05-0.17h3.45c0.68,0,1.15,0.14,1.42,0.41c0.27,0.27,0.41,0.7,0.41,1.28v17.01c0,0.58-0.13,1.01-0.41,1.29
			s-0.74,0.42-1.4,0.42h-2.88c-0.66,0-1.13-0.14-1.41-0.42c-0.28-0.28-0.42-0.71-0.42-1.29v-8.19l-1.77,4.08
			c-0.24,0.58-0.5,1-0.78,1.25c-0.28,0.25-0.74,0.38-1.38,0.38c-0.64,0-1.1-0.12-1.38-0.38c-0.28-0.25-0.54-0.66-0.78-1.25
			l-1.77-4.08v8.19c0,0.58-0.14,1.01-0.41,1.29s-0.75,0.42-1.42,0.42h-2.88C173.08,378.95,172.61,378.81,172.34,378.53z"/>
		<path d="M193.57,378.32c0-0.18,0.05-0.4,0.15-0.66l7.47-17.97c0.18-0.42,0.39-0.71,0.62-0.88c0.23-0.17,0.56-0.26,0.98-0.26h3.27
			c0.42,0,0.74,0.09,0.97,0.26c0.23,0.17,0.43,0.46,0.62,0.88l7.44,17.97c0.1,0.26,0.15,0.48,0.15,0.66c0,0.42-0.22,0.63-0.66,0.63
			h-5.64c-0.62,0-1.01-0.27-1.17-0.81l-0.72-2.22h-5.31l-0.69,2.22c-0.16,0.54-0.55,0.81-1.17,0.81h-5.64
			C193.79,378.95,193.57,378.74,193.57,378.32z M201.19,356.75c0-0.16,0.03-0.33,0.09-0.51l1.26-3.48c0.16-0.46,0.35-0.77,0.57-0.93
			c0.22-0.16,0.63-0.24,1.23-0.24h4.29c0.42,0,0.75,0.08,0.99,0.23c0.24,0.15,0.36,0.36,0.36,0.64c0,0.24-0.08,0.49-0.24,0.75
			l-1.92,3.24c-0.28,0.48-0.55,0.79-0.81,0.93c-0.26,0.14-0.73,0.21-1.41,0.21h-3.21C201.59,357.59,201.19,357.31,201.19,356.75z
			 M205.57,371.18l-1.17-3.72l-1.17,3.72H205.57z"/>
		<path d="M219.19,378.83c-1.56-0.38-2.82-0.91-3.78-1.59c-0.4-0.28-0.6-0.55-0.6-0.81c0-0.18,0.07-0.37,0.21-0.57l1.74-2.73
			c0.18-0.26,0.36-0.39,0.54-0.39c0.16,0,0.35,0.07,0.57,0.21c0.72,0.44,1.54,0.79,2.48,1.04c0.93,0.25,1.83,0.38,2.71,0.38
			c0.74,0,1.27-0.1,1.6-0.3s0.5-0.51,0.5-0.93c0-0.46-0.22-0.83-0.66-1.11s-1.2-0.63-2.28-1.05c-2.02-0.78-3.61-1.66-4.77-2.65
			c-1.16-0.99-1.74-2.3-1.74-3.95c0-2.08,0.72-3.64,2.17-4.7c1.45-1.05,3.41-1.57,5.87-1.57c1.72,0,3.18,0.15,4.39,0.45
			c1.21,0.3,2.27,0.77,3.17,1.41c0.4,0.28,0.6,0.55,0.6,0.81c0,0.18-0.07,0.37-0.21,0.57l-1.74,2.73c-0.18,0.28-0.36,0.42-0.54,0.42
			c-0.12,0-0.31-0.08-0.57-0.24c-0.48-0.32-1.05-0.58-1.71-0.79s-1.37-0.31-2.13-0.31c-0.7,0-1.23,0.1-1.59,0.3
			c-0.36,0.2-0.54,0.52-0.54,0.96c0,0.36,0.13,0.66,0.38,0.9c0.25,0.24,0.57,0.45,0.95,0.62s1.04,0.45,1.98,0.83
			c1.5,0.6,2.68,1.17,3.54,1.72c0.86,0.55,1.51,1.21,1.95,1.98c0.44,0.77,0.66,1.75,0.66,2.92c0,1.8-0.67,3.25-2.03,4.37
			c-1.35,1.11-3.37,1.67-6.04,1.67C222.44,379.4,220.75,379.21,219.19,378.83z"/>
		<path d="M63.32,414.53c-0.27-0.28-0.41-0.71-0.41-1.29v-16.98c0-0.58,0.14-1.01,0.41-1.29c0.27-0.28,0.73-0.42,1.39-0.42h12.42
			c0.64,0,1.08,0.14,1.31,0.41c0.23,0.27,0.34,0.71,0.34,1.3v1.68c0,0.6-0.12,1.04-0.34,1.3c-0.23,0.27-0.67,0.41-1.31,0.41h-7.02
			v2.55h4.32c0.64,0,1.07,0.13,1.3,0.41c0.23,0.27,0.35,0.71,0.35,1.3v1.68c0,0.6-0.12,1.04-0.35,1.31c-0.23,0.27-0.67,0.4-1.3,0.4
			h-4.32v5.94c0,0.58-0.13,1.01-0.4,1.29c-0.27,0.28-0.75,0.42-1.43,0.42h-3.57C64.06,414.95,63.59,414.81,63.32,414.53z"/>
		<path d="M84.37,414.46c-1.48-0.63-2.63-1.54-3.45-2.73c-0.82-1.19-1.23-2.61-1.23-4.25v-11.22c0-0.58,0.13-1.01,0.4-1.29
			c0.27-0.28,0.74-0.42,1.4-0.42h3.57c0.68,0,1.16,0.14,1.43,0.41c0.27,0.27,0.4,0.71,0.4,1.3v11.31c0,0.94,0.24,1.64,0.71,2.1
			c0.47,0.46,1.12,0.69,1.94,0.69s1.46-0.23,1.93-0.69c0.47-0.46,0.71-1.16,0.71-2.1v-11.31c0-0.58,0.14-1.01,0.41-1.29
			c0.27-0.28,0.73-0.42,1.39-0.42h3.57c0.68,0,1.15,0.14,1.42,0.41c0.27,0.27,0.41,0.71,0.41,1.3v11.22c0,1.64-0.41,3.05-1.23,4.25
			c-0.82,1.19-1.97,2.1-3.45,2.73c-1.48,0.63-3.2,0.95-5.16,0.95C87.57,415.4,85.85,415.09,84.37,414.46z"/>
		<path d="M101.72,414.53c-0.27-0.28-0.41-0.71-0.41-1.29v-17.01c0-0.58,0.13-1,0.41-1.28c0.27-0.27,0.75-0.41,1.42-0.41H106
			c0.42,0,0.75,0.06,0.98,0.17c0.23,0.11,0.45,0.33,0.67,0.65l5.43,8.07v-7.17c0-0.58,0.13-1.01,0.41-1.29
			c0.27-0.28,0.74-0.42,1.4-0.42h3.57c0.68,0,1.15,0.14,1.42,0.41c0.27,0.27,0.41,0.71,0.41,1.3v17.01c0,0.58-0.13,1-0.41,1.27
			c-0.27,0.27-0.74,0.41-1.42,0.41h-2.85c-0.42,0-0.75-0.05-0.98-0.17c-0.23-0.11-0.46-0.33-0.67-0.64l-5.43-8.07v7.2
			c0,0.58-0.13,1-0.41,1.27c-0.27,0.27-0.75,0.41-1.42,0.41h-3.57C102.46,414.95,101.99,414.81,101.72,414.53z"/>
		<path d="M124.81,412.72c-2.02-1.79-3.03-4.44-3.03-7.96c0-3.54,0.97-6.2,2.92-7.98c1.95-1.78,4.74-2.67,8.36-2.67
			c1.64,0,3.1,0.16,4.38,0.48c1.28,0.32,2.35,0.77,3.21,1.35c0.24,0.18,0.36,0.38,0.36,0.6c0,0.18-0.09,0.43-0.27,0.75l-1.5,2.58
			c-0.16,0.28-0.35,0.42-0.57,0.42c-0.14,0-0.37-0.08-0.69-0.24c-0.56-0.28-1.14-0.5-1.75-0.66c-0.61-0.16-1.33-0.24-2.15-0.24
			c-1.66,0-2.93,0.48-3.81,1.44s-1.32,2.35-1.32,4.17c0,1.8,0.48,3.19,1.44,4.16c0.96,0.97,2.27,1.46,3.93,1.46
			c1.44,0,2.76-0.3,3.96-0.9c0.32-0.16,0.55-0.24,0.69-0.24c0.22,0,0.41,0.14,0.57,0.42l1.5,2.58c0.18,0.32,0.27,0.57,0.27,0.75
			c0,0.22-0.12,0.42-0.36,0.6c-0.86,0.58-1.94,1.03-3.24,1.35c-1.3,0.32-2.77,0.48-4.41,0.48
			C129.66,415.4,126.83,414.51,124.81,412.72z"/>
		<path d="M143.21,414.53c-0.27-0.28-0.4-0.71-0.4-1.29v-16.98c0-0.58,0.13-1.01,0.4-1.29c0.27-0.28,0.74-0.42,1.4-0.42h3.57
			c0.68,0,1.16,0.14,1.43,0.41c0.27,0.27,0.4,0.71,0.4,1.3v16.98c0,0.58-0.13,1.01-0.4,1.29s-0.75,0.42-1.43,0.42h-3.57
			C143.95,414.95,143.48,414.81,143.21,414.53z"/>
		<path d="M154.27,412.63c-1.84-1.85-2.76-4.47-2.76-7.88c0-3.4,0.92-6.02,2.76-7.88c1.84-1.85,4.54-2.77,8.1-2.77
			c3.56,0,6.26,0.92,8.1,2.77c1.84,1.85,2.76,4.48,2.76,7.88c0,3.4-0.92,6.03-2.76,7.88c-1.84,1.85-4.54,2.78-8.1,2.78
			C158.81,415.4,156.11,414.48,154.27,412.63z M165.19,408.97c0.58-0.93,0.87-2.33,0.87-4.21c0-1.9-0.29-3.31-0.87-4.23
			s-1.52-1.38-2.82-1.38c-1.3,0-2.24,0.46-2.82,1.38s-0.87,2.33-0.87,4.23c0,1.88,0.29,3.29,0.87,4.21c0.58,0.93,1.52,1.4,2.82,1.4
			C163.67,410.36,164.61,409.9,165.19,408.97z"/>
		<path d="M175.13,414.53c-0.27-0.28-0.4-0.71-0.4-1.29v-17.01c0-0.58,0.13-1,0.4-1.28c0.27-0.27,0.75-0.41,1.43-0.41h2.85
			c0.42,0,0.74,0.06,0.97,0.17c0.23,0.11,0.46,0.33,0.68,0.65l5.43,8.07v-7.17c0-0.58,0.13-1.01,0.4-1.29
			c0.27-0.28,0.74-0.42,1.4-0.42h3.57c0.68,0,1.16,0.14,1.42,0.41c0.27,0.27,0.4,0.71,0.4,1.3v17.01c0,0.58-0.13,1-0.4,1.27
			c-0.27,0.27-0.75,0.41-1.42,0.41h-2.85c-0.42,0-0.75-0.05-0.97-0.17c-0.23-0.11-0.46-0.33-0.67-0.64l-5.43-8.07v7.2
			c0,0.58-0.13,1-0.4,1.27c-0.27,0.27-0.75,0.41-1.43,0.41h-3.57C175.87,414.95,175.4,414.81,175.13,414.53z"/>
		<path d="M195.19,414.32c0-0.18,0.05-0.4,0.15-0.66l7.47-17.97c0.18-0.42,0.38-0.71,0.62-0.88c0.23-0.17,0.55-0.26,0.97-0.26h3.27
			c0.42,0,0.75,0.09,0.97,0.26c0.23,0.17,0.44,0.46,0.62,0.88l7.44,17.97c0.1,0.26,0.15,0.48,0.15,0.66c0,0.42-0.22,0.63-0.66,0.63
			h-5.64c-0.62,0-1.01-0.27-1.17-0.81l-0.72-2.22h-5.31l-0.69,2.22c-0.16,0.54-0.55,0.81-1.17,0.81h-5.64
			C195.41,414.95,195.19,414.74,195.19,414.32z M207.19,407.18l-1.17-3.72l-1.17,3.72H207.19z"/>
		<path d="M218.75,414.53c-0.27-0.28-0.41-0.71-0.41-1.29v-16.98c0-0.58,0.14-1.01,0.41-1.29c0.27-0.28,0.73-0.42,1.39-0.42h3.57
			c0.68,0,1.15,0.14,1.42,0.41c0.27,0.27,0.41,0.71,0.41,1.3v13.59h6.99c0.64,0,1.07,0.13,1.3,0.4c0.23,0.27,0.34,0.71,0.34,1.31
			v1.68c0,0.6-0.12,1.04-0.34,1.3c-0.23,0.27-0.67,0.41-1.3,0.41h-12.39C219.49,414.95,219.02,414.81,218.75,414.53z"/>
		<path d="M235.49,414.53c-0.27-0.28-0.41-0.71-0.41-1.29v-16.98c0-0.58,0.13-1.01,0.41-1.29c0.27-0.28,0.74-0.42,1.4-0.42h3.57
			c0.68,0,1.16,0.14,1.42,0.41c0.27,0.27,0.41,0.71,0.41,1.3v16.98c0,0.58-0.13,1.01-0.41,1.29c-0.27,0.28-0.75,0.42-1.42,0.42
			h-3.57C236.23,414.95,235.76,414.81,235.49,414.53z"/>
		<path d="M244.79,414.53c-0.27-0.28-0.41-0.71-0.41-1.29v-16.98c0-0.58,0.14-1.01,0.41-1.29c0.27-0.28,0.73-0.42,1.39-0.42h6.9
			c7.06,0,10.59,3.4,10.59,10.2c0,3.36-0.9,5.9-2.71,7.62c-1.81,1.72-4.44,2.58-7.88,2.58h-6.9
			C245.53,414.95,245.06,414.81,244.79,414.53z M253.36,409.85c1.12,0,1.93-0.37,2.42-1.11c0.49-0.74,0.73-2.07,0.73-3.99
			s-0.25-3.25-0.73-3.99c-0.49-0.74-1.3-1.11-2.42-1.11h-1.77v10.2H253.36z"/>
		<path d="M263.23,414.32c0-0.18,0.05-0.4,0.15-0.66l7.47-17.97c0.18-0.42,0.38-0.71,0.62-0.88c0.23-0.17,0.55-0.26,0.97-0.26h3.27
			c0.42,0,0.75,0.09,0.97,0.26s0.43,0.46,0.62,0.88l7.44,17.97c0.1,0.26,0.15,0.48,0.15,0.66c0,0.42-0.22,0.63-0.66,0.63h-5.64
			c-0.62,0-1.01-0.27-1.17-0.81l-0.72-2.22h-5.31l-0.69,2.22c-0.16,0.54-0.55,0.81-1.17,0.81h-5.64
			C263.45,414.95,263.23,414.74,263.23,414.32z M275.23,407.18l-1.17-3.72l-1.17,3.72H275.23z"/>
		<path d="M286.79,414.53c-0.27-0.28-0.41-0.71-0.41-1.29v-16.98c0-0.58,0.14-1.01,0.41-1.29c0.27-0.28,0.73-0.42,1.39-0.42h6.9
			c7.06,0,10.59,3.4,10.59,10.2c0,3.36-0.9,5.9-2.71,7.62c-1.81,1.72-4.44,2.58-7.88,2.58h-6.9
			C287.53,414.95,287.06,414.81,286.79,414.53z M295.36,409.85c1.12,0,1.93-0.37,2.42-1.11c0.49-0.74,0.73-2.07,0.73-3.99
			s-0.25-3.25-0.73-3.99c-0.49-0.74-1.3-1.11-2.42-1.11h-1.77v10.2H295.36z"/>
		<path d="M307.58,414.53c-0.27-0.28-0.41-0.71-0.41-1.29v-16.98c0-0.58,0.13-1.01,0.41-1.29c0.27-0.28,0.74-0.42,1.4-0.42h12.42
			c0.64,0,1.07,0.14,1.3,0.41c0.23,0.27,0.34,0.71,0.34,1.3v1.68c0,0.6-0.12,1.04-0.34,1.3c-0.23,0.27-0.67,0.41-1.3,0.41h-7.02
			v2.58h4.32c0.64,0,1.08,0.13,1.31,0.4c0.23,0.27,0.34,0.71,0.34,1.31v1.62c0,0.6-0.12,1.03-0.34,1.3
			c-0.23,0.27-0.67,0.41-1.31,0.41h-4.32v2.58h6.99c0.64,0,1.08,0.13,1.3,0.4c0.23,0.27,0.34,0.71,0.34,1.31v1.68
			c0,0.6-0.12,1.04-0.34,1.3c-0.23,0.27-0.67,0.41-1.3,0.41h-12.39C308.32,414.95,307.85,414.81,307.58,414.53z"/>
		<path d="M328.21,414.83c-1.56-0.38-2.82-0.91-3.78-1.59c-0.4-0.28-0.6-0.55-0.6-0.81c0-0.18,0.07-0.37,0.21-0.57l1.74-2.73
			c0.18-0.26,0.36-0.39,0.54-0.39c0.16,0,0.35,0.07,0.57,0.21c0.72,0.44,1.54,0.79,2.48,1.04c0.93,0.25,1.83,0.38,2.71,0.38
			c0.74,0,1.27-0.1,1.6-0.3s0.5-0.51,0.5-0.93c0-0.46-0.22-0.83-0.66-1.11s-1.2-0.63-2.28-1.05c-2.02-0.78-3.61-1.66-4.77-2.65
			c-1.16-0.99-1.74-2.3-1.74-3.95c0-2.08,0.72-3.64,2.17-4.7c1.45-1.05,3.41-1.57,5.87-1.57c1.72,0,3.18,0.15,4.39,0.45
			c1.21,0.3,2.27,0.77,3.17,1.41c0.4,0.28,0.6,0.55,0.6,0.81c0,0.18-0.07,0.37-0.21,0.57l-1.74,2.73c-0.18,0.28-0.36,0.42-0.54,0.42
			c-0.12,0-0.31-0.08-0.57-0.24c-0.48-0.32-1.05-0.58-1.71-0.79s-1.37-0.31-2.13-0.31c-0.7,0-1.23,0.1-1.59,0.3
			c-0.36,0.2-0.54,0.52-0.54,0.96c0,0.36,0.13,0.66,0.38,0.9c0.25,0.24,0.57,0.45,0.95,0.62s1.04,0.45,1.98,0.83
			c1.5,0.6,2.68,1.17,3.54,1.72c0.86,0.55,1.51,1.21,1.95,1.98c0.44,0.77,0.66,1.75,0.66,2.92c0,1.8-0.67,3.25-2.03,4.37
			c-1.35,1.11-3.37,1.67-6.04,1.67C331.46,415.4,329.77,415.21,328.21,414.83z"/>
		<path d="M157.64,450.83c-1.56-0.38-2.82-0.91-3.78-1.59c-0.4-0.28-0.6-0.55-0.6-0.81c0-0.18,0.07-0.37,0.21-0.57l1.74-2.73
			c0.18-0.26,0.36-0.39,0.54-0.39c0.16,0,0.35,0.07,0.57,0.21c0.72,0.44,1.54,0.79,2.47,1.04s1.83,0.38,2.71,0.38
			c0.74,0,1.28-0.1,1.61-0.3s0.49-0.51,0.49-0.93c0-0.46-0.22-0.83-0.66-1.11c-0.44-0.28-1.2-0.63-2.28-1.05
			c-2.02-0.78-3.61-1.66-4.77-2.65c-1.16-0.99-1.74-2.3-1.74-3.95c0-2.08,0.72-3.64,2.17-4.7c1.45-1.05,3.41-1.57,5.86-1.57
			c1.72,0,3.19,0.15,4.4,0.45c1.21,0.3,2.26,0.77,3.17,1.41c0.4,0.28,0.6,0.55,0.6,0.81c0,0.18-0.07,0.37-0.21,0.57l-1.74,2.73
			c-0.18,0.28-0.36,0.42-0.54,0.42c-0.12,0-0.31-0.08-0.57-0.24c-0.48-0.32-1.05-0.58-1.71-0.79s-1.37-0.31-2.13-0.31
			c-0.7,0-1.23,0.1-1.59,0.3c-0.36,0.2-0.54,0.52-0.54,0.96c0,0.36,0.13,0.66,0.38,0.9c0.25,0.24,0.56,0.45,0.95,0.62
			c0.38,0.17,1.04,0.45,1.98,0.83c1.5,0.6,2.68,1.17,3.54,1.72c0.86,0.55,1.51,1.21,1.95,1.98c0.44,0.77,0.66,1.75,0.66,2.92
			c0,1.8-0.67,3.25-2.02,4.37c-1.35,1.11-3.37,1.67-6.04,1.67C160.89,451.4,159.2,451.21,157.64,450.83z"/>
		<path d="M172.69,450.53c-0.27-0.28-0.41-0.71-0.41-1.29v-16.98c0-0.58,0.13-1.01,0.41-1.29c0.27-0.28,0.74-0.42,1.4-0.42h12.42
			c0.64,0,1.07,0.14,1.3,0.41c0.23,0.27,0.34,0.71,0.34,1.3v1.68c0,0.6-0.12,1.04-0.34,1.3c-0.23,0.27-0.67,0.41-1.3,0.41h-7.02
			v2.58h4.32c0.64,0,1.08,0.13,1.31,0.4c0.23,0.27,0.34,0.71,0.34,1.31v1.62c0,0.6-0.12,1.03-0.34,1.3
			c-0.23,0.27-0.67,0.41-1.31,0.41h-4.32v2.58h6.99c0.64,0,1.08,0.13,1.3,0.4c0.23,0.27,0.34,0.71,0.34,1.31v1.68
			c0,0.6-0.12,1.04-0.34,1.3c-0.23,0.27-0.67,0.41-1.3,0.41h-12.39C173.42,450.95,172.96,450.81,172.69,450.53z"/>
		<path d="M190.58,448.72c-2.02-1.79-3.03-4.44-3.03-7.96c0-3.5,1.01-6.15,3.03-7.95c2.02-1.8,4.84-2.7,8.46-2.7
			c1.64,0,3.11,0.16,4.41,0.48c1.3,0.32,2.38,0.77,3.24,1.35c0.24,0.18,0.36,0.38,0.36,0.6c0,0.18-0.09,0.43-0.27,0.75l-1.5,2.58
			c-0.16,0.28-0.35,0.42-0.57,0.42c-0.14,0-0.37-0.08-0.69-0.24c-1.2-0.6-2.52-0.9-3.96-0.9c-1.66,0-2.96,0.47-3.91,1.42
			c-0.95,0.95-1.43,2.34-1.43,4.18c0,1.9,0.4,3.31,1.2,4.21c0.8,0.91,1.99,1.37,3.57,1.37c0.28,0,0.59-0.02,0.94-0.08
			c0.35-0.05,0.63-0.1,0.86-0.17v-2.73h-1.92c-0.64,0-1.08-0.13-1.3-0.38c-0.23-0.25-0.35-0.67-0.35-1.28v-1.65
			c0-0.6,0.12-1.03,0.35-1.28c0.23-0.25,0.66-0.38,1.3-0.38h6.45c0.78,0,1.32,0.18,1.62,0.53c0.3,0.35,0.45,0.91,0.45,1.67v7.02
			c0,0.44-0.05,0.78-0.16,1c-0.11,0.23-0.33,0.46-0.65,0.71c-1.92,1.38-4.59,2.07-8.01,2.07
			C195.43,451.4,192.6,450.51,190.58,448.72z"/>
		<path d="M214.82,450.46c-1.48-0.63-2.63-1.54-3.45-2.73c-0.82-1.19-1.23-2.61-1.23-4.25v-11.22c0-0.58,0.13-1.01,0.41-1.29
			c0.27-0.28,0.74-0.42,1.4-0.42h3.57c0.68,0,1.16,0.14,1.42,0.41c0.27,0.27,0.41,0.71,0.41,1.3v11.31c0,0.94,0.24,1.64,0.71,2.1
			c0.47,0.46,1.11,0.69,1.93,0.69s1.46-0.23,1.94-0.69c0.47-0.46,0.71-1.16,0.71-2.1v-11.31c0-0.58,0.13-1.01,0.4-1.29
			c0.27-0.28,0.74-0.42,1.4-0.42h3.57c0.68,0,1.16,0.14,1.43,0.41c0.27,0.27,0.4,0.71,0.4,1.3v11.22c0,1.64-0.41,3.05-1.23,4.25
			c-0.82,1.19-1.97,2.1-3.45,2.73s-3.2,0.95-5.16,0.95S216.3,451.09,214.82,450.46z M216.92,428.03c0-0.16,0.03-0.33,0.09-0.51
			l1.26-3.48c0.16-0.46,0.35-0.77,0.57-0.93s0.63-0.24,1.23-0.24h4.29c0.42,0,0.75,0.08,0.99,0.22c0.24,0.15,0.36,0.37,0.36,0.65
			c0,0.24-0.08,0.49-0.24,0.75l-1.92,3.24c-0.28,0.48-0.55,0.79-0.81,0.93c-0.26,0.14-0.73,0.21-1.41,0.21h-3.21
			C217.32,428.87,216.92,428.59,216.92,428.03z"/>
		<path d="M231.28,450.53c-0.27-0.28-0.4-0.71-0.4-1.29v-17.01c0-0.58,0.13-1,0.4-1.28c0.27-0.27,0.75-0.41,1.43-0.41h2.85
			c0.42,0,0.74,0.06,0.97,0.17c0.23,0.11,0.46,0.33,0.68,0.65l5.43,8.07v-7.17c0-0.58,0.13-1.01,0.4-1.29
			c0.27-0.28,0.74-0.42,1.4-0.42H248c0.68,0,1.16,0.14,1.42,0.41c0.27,0.27,0.4,0.71,0.4,1.3v17.01c0,0.58-0.13,1-0.4,1.27
			c-0.27,0.27-0.75,0.41-1.42,0.41h-2.85c-0.42,0-0.75-0.05-0.97-0.17c-0.23-0.11-0.46-0.33-0.67-0.64l-5.43-8.07v7.2
			c0,0.58-0.13,1-0.4,1.27c-0.27,0.27-0.75,0.41-1.43,0.41h-3.57C232.01,450.95,231.55,450.81,231.28,450.53z"/>
		<path d="M120.73,486.53c-0.27-0.28-0.4-0.71-0.4-1.29v-17.01c0-0.58,0.13-1,0.4-1.28c0.27-0.27,0.75-0.41,1.43-0.41H125
			c0.42,0,0.74,0.06,0.97,0.17c0.23,0.11,0.46,0.33,0.68,0.65l5.43,8.07v-7.17c0-0.58,0.13-1.01,0.4-1.29
			c0.27-0.28,0.74-0.42,1.4-0.42h3.57c0.68,0,1.16,0.14,1.42,0.41c0.27,0.27,0.4,0.71,0.4,1.3v17.01c0,0.58-0.13,1-0.4,1.27
			c-0.27,0.27-0.75,0.41-1.42,0.41h-2.85c-0.42,0-0.75-0.05-0.97-0.17c-0.23-0.11-0.46-0.33-0.67-0.64l-5.43-8.07v7.2
			c0,0.58-0.13,1-0.4,1.27c-0.27,0.27-0.75,0.41-1.43,0.41h-3.57C121.46,486.95,121,486.81,120.73,486.53z"/>
		<path d="M141.79,486.53c-0.27-0.28-0.41-0.71-0.41-1.29v-16.98c0-0.58,0.14-1.01,0.41-1.29c0.27-0.28,0.73-0.42,1.39-0.42h12.42
			c0.64,0,1.08,0.14,1.31,0.41c0.23,0.27,0.34,0.71,0.34,1.3v1.68c0,0.6-0.12,1.04-0.34,1.3c-0.23,0.27-0.67,0.41-1.31,0.41h-7.02
			v2.58h4.32c0.64,0,1.07,0.13,1.3,0.4c0.23,0.27,0.35,0.71,0.35,1.31v1.62c0,0.6-0.12,1.03-0.35,1.3c-0.23,0.27-0.67,0.41-1.3,0.41
			h-4.32v2.58h6.99c0.64,0,1.07,0.13,1.3,0.4c0.23,0.27,0.35,0.71,0.35,1.31v1.68c0,0.6-0.12,1.04-0.35,1.3
			c-0.23,0.27-0.67,0.41-1.3,0.41h-12.39C142.52,486.95,142.06,486.81,141.79,486.53z"/>
		<path d="M159.68,484.72c-2.02-1.79-3.03-4.44-3.03-7.96c0-3.54,0.97-6.2,2.92-7.98c1.95-1.78,4.74-2.67,8.36-2.67
			c1.64,0,3.1,0.16,4.38,0.48c1.28,0.32,2.35,0.77,3.21,1.35c0.24,0.18,0.36,0.38,0.36,0.6c0,0.18-0.09,0.43-0.27,0.75l-1.5,2.58
			c-0.16,0.28-0.35,0.42-0.57,0.42c-0.14,0-0.37-0.08-0.69-0.24c-0.56-0.28-1.14-0.5-1.75-0.66c-0.61-0.16-1.33-0.24-2.15-0.24
			c-1.66,0-2.93,0.48-3.81,1.44s-1.32,2.35-1.32,4.17c0,1.8,0.48,3.19,1.44,4.16c0.96,0.97,2.27,1.46,3.93,1.46
			c1.44,0,2.76-0.3,3.96-0.9c0.32-0.16,0.55-0.24,0.69-0.24c0.22,0,0.41,0.14,0.57,0.42l1.5,2.58c0.18,0.32,0.27,0.57,0.27,0.75
			c0,0.22-0.12,0.42-0.36,0.6c-0.86,0.58-1.94,1.03-3.24,1.35c-1.3,0.32-2.77,0.48-4.41,0.48
			C164.53,487.4,161.7,486.51,159.68,484.72z"/>
		<path d="M178.09,486.53c-0.27-0.28-0.41-0.71-0.41-1.29v-16.98c0-0.58,0.13-1.01,0.41-1.29c0.27-0.28,0.74-0.42,1.4-0.42h12.42
			c0.64,0,1.07,0.14,1.3,0.41c0.23,0.27,0.34,0.71,0.34,1.3v1.68c0,0.6-0.12,1.04-0.34,1.3c-0.23,0.27-0.67,0.41-1.3,0.41h-7.02
			v2.58h4.32c0.64,0,1.08,0.13,1.31,0.4c0.23,0.27,0.34,0.71,0.34,1.31v1.62c0,0.6-0.12,1.03-0.34,1.3
			c-0.23,0.27-0.67,0.41-1.31,0.41h-4.32v2.58h6.99c0.64,0,1.08,0.13,1.3,0.4c0.23,0.27,0.34,0.71,0.34,1.31v1.68
			c0,0.6-0.12,1.04-0.34,1.3c-0.23,0.27-0.67,0.41-1.3,0.41h-12.39C178.82,486.95,178.36,486.81,178.09,486.53z"/>
		<path d="M198.71,486.83c-1.56-0.38-2.82-0.91-3.78-1.59c-0.4-0.28-0.6-0.55-0.6-0.81c0-0.18,0.07-0.37,0.21-0.57l1.74-2.73
			c0.18-0.26,0.36-0.39,0.54-0.39c0.16,0,0.35,0.07,0.57,0.21c0.72,0.44,1.54,0.79,2.48,1.04c0.93,0.25,1.83,0.38,2.71,0.38
			c0.74,0,1.27-0.1,1.6-0.3s0.5-0.51,0.5-0.93c0-0.46-0.22-0.83-0.66-1.11c-0.44-0.28-1.2-0.63-2.28-1.05
			c-2.02-0.78-3.61-1.66-4.77-2.65s-1.74-2.3-1.74-3.95c0-2.08,0.72-3.64,2.18-4.7c1.45-1.05,3.4-1.57,5.87-1.57
			c1.72,0,3.18,0.15,4.39,0.45c1.21,0.3,2.27,0.77,3.17,1.41c0.4,0.28,0.6,0.55,0.6,0.81c0,0.18-0.07,0.37-0.21,0.57l-1.74,2.73
			c-0.18,0.28-0.36,0.42-0.54,0.42c-0.12,0-0.31-0.08-0.57-0.24c-0.48-0.32-1.05-0.58-1.71-0.79s-1.37-0.31-2.13-0.31
			c-0.7,0-1.23,0.1-1.59,0.3c-0.36,0.2-0.54,0.52-0.54,0.96c0,0.36,0.13,0.66,0.38,0.9c0.25,0.24,0.57,0.45,0.95,0.62
			s1.04,0.45,1.98,0.83c1.5,0.6,2.68,1.17,3.54,1.72c0.86,0.55,1.51,1.21,1.95,1.98c0.44,0.77,0.66,1.75,0.66,2.92
			c0,1.8-0.68,3.25-2.03,4.37c-1.35,1.11-3.37,1.67-6.04,1.67C201.96,487.4,200.27,487.21,198.71,486.83z"/>
		<path d="M213.76,486.53c-0.27-0.28-0.41-0.71-0.41-1.29v-16.98c0-0.58,0.14-1.01,0.41-1.29c0.27-0.28,0.73-0.42,1.39-0.42h3.57
			c0.68,0,1.16,0.14,1.43,0.41c0.27,0.27,0.4,0.71,0.4,1.3v16.98c0,0.58-0.13,1.01-0.4,1.29c-0.27,0.28-0.75,0.42-1.43,0.42h-3.57
			C214.49,486.95,214.03,486.81,213.76,486.53z"/>
		<path d="M223.06,486.53c-0.27-0.28-0.41-0.71-0.41-1.29v-16.98c0-0.58,0.14-1.01,0.41-1.29c0.27-0.28,0.73-0.42,1.39-0.42h6.9
			c7.06,0,10.59,3.4,10.59,10.2c0,3.36-0.91,5.9-2.71,7.62c-1.81,1.72-4.44,2.58-7.88,2.58h-6.9
			C223.79,486.95,223.33,486.81,223.06,486.53z M231.62,481.85c1.12,0,1.92-0.37,2.42-1.11c0.49-0.74,0.74-2.07,0.74-3.99
			s-0.25-3.25-0.74-3.99c-0.49-0.74-1.3-1.11-2.42-1.11h-1.77v10.2H231.62z"/>
		<path d="M241.49,486.32c0-0.18,0.05-0.4,0.15-0.66l7.47-17.97c0.18-0.42,0.38-0.71,0.62-0.88c0.23-0.17,0.55-0.26,0.97-0.26h3.27
			c0.42,0,0.75,0.09,0.97,0.26c0.23,0.17,0.44,0.46,0.62,0.88l7.44,17.97c0.1,0.26,0.15,0.48,0.15,0.66c0,0.42-0.22,0.63-0.66,0.63
			h-5.64c-0.62,0-1.01-0.27-1.17-0.81l-0.72-2.22h-5.31l-0.69,2.22c-0.16,0.54-0.55,0.81-1.17,0.81h-5.64
			C241.71,486.95,241.49,486.74,241.49,486.32z M253.49,479.18l-1.17-3.72l-1.17,3.72H253.49z"/>
		<path d="M265.06,486.53c-0.27-0.28-0.41-0.71-0.41-1.29v-16.98c0-0.58,0.13-1.01,0.41-1.29c0.27-0.28,0.74-0.42,1.4-0.42h6.9
			c7.06,0,10.59,3.4,10.59,10.2c0,3.36-0.91,5.9-2.71,7.62c-1.81,1.72-4.44,2.58-7.88,2.58h-6.9
			C265.79,486.95,265.33,486.81,265.06,486.53z M273.62,481.85c1.12,0,1.92-0.37,2.41-1.11c0.49-0.74,0.74-2.07,0.74-3.99
			s-0.25-3.25-0.74-3.99c-0.49-0.74-1.29-1.11-2.41-1.11h-1.77v10.2H273.62z"/>
		<path d="M111.01,522.53c-0.27-0.28-0.41-0.71-0.41-1.29v-16.98c0-0.58,0.14-1.01,0.41-1.29c0.27-0.28,0.73-0.42,1.39-0.42h6.9
			c7.06,0,10.59,3.4,10.59,10.2c0,3.36-0.91,5.9-2.71,7.62c-1.81,1.72-4.44,2.58-7.88,2.58h-6.9
			C111.74,522.95,111.28,522.81,111.01,522.53z M119.57,517.85c1.12,0,1.92-0.37,2.42-1.11c0.49-0.74,0.74-2.07,0.74-3.99
			s-0.25-3.25-0.74-3.99c-0.49-0.74-1.3-1.11-2.42-1.11h-1.77v10.2H119.57z"/>
		<path d="M131.8,522.53c-0.27-0.28-0.41-0.71-0.41-1.29v-16.98c0-0.58,0.14-1.01,0.41-1.29c0.27-0.28,0.73-0.42,1.39-0.42h12.42
			c0.64,0,1.08,0.14,1.31,0.41c0.23,0.27,0.34,0.71,0.34,1.3v1.68c0,0.6-0.12,1.04-0.34,1.3c-0.23,0.27-0.67,0.41-1.31,0.41h-7.02
			v2.58h4.32c0.64,0,1.07,0.13,1.3,0.4c0.23,0.27,0.35,0.71,0.35,1.31v1.62c0,0.6-0.12,1.03-0.35,1.3c-0.23,0.27-0.67,0.41-1.3,0.41
			h-4.32v2.58h6.99c0.64,0,1.07,0.13,1.3,0.4c0.23,0.27,0.35,0.71,0.35,1.31v1.68c0,0.6-0.12,1.04-0.35,1.3
			c-0.23,0.27-0.67,0.41-1.3,0.41h-12.39C132.53,522.95,132.07,522.81,131.8,522.53z"/>
		<path d="M149.02,522.53c-0.27-0.28-0.41-0.71-0.41-1.29v-16.98c0-0.58,0.13-1.01,0.41-1.29c0.27-0.28,0.74-0.42,1.4-0.42h3.57
			c0.68,0,1.16,0.14,1.42,0.41c0.27,0.27,0.41,0.71,0.41,1.3v13.59h6.99c0.64,0,1.08,0.13,1.3,0.4c0.23,0.27,0.34,0.71,0.34,1.31
			v1.68c0,0.6-0.12,1.04-0.34,1.3c-0.23,0.27-0.67,0.41-1.3,0.41h-12.39C149.75,522.95,149.29,522.81,149.02,522.53z"/>
		<path d="M176.78,520.72c-2.02-1.79-3.03-4.44-3.03-7.96c0-3.54,0.97-6.2,2.92-7.98c1.95-1.78,4.74-2.67,8.36-2.67
			c1.64,0,3.1,0.16,4.38,0.48c1.28,0.32,2.35,0.77,3.21,1.35c0.24,0.18,0.36,0.38,0.36,0.6c0,0.18-0.09,0.43-0.27,0.75l-1.5,2.58
			c-0.16,0.28-0.35,0.42-0.57,0.42c-0.14,0-0.37-0.08-0.69-0.24c-0.56-0.28-1.14-0.5-1.75-0.66c-0.61-0.16-1.33-0.24-2.15-0.24
			c-1.66,0-2.93,0.48-3.81,1.44s-1.32,2.35-1.32,4.17c0,1.8,0.48,3.19,1.44,4.16c0.96,0.97,2.27,1.46,3.93,1.46
			c1.44,0,2.76-0.3,3.96-0.9c0.32-0.16,0.55-0.24,0.69-0.24c0.22,0,0.41,0.14,0.57,0.42l1.5,2.58c0.18,0.32,0.27,0.57,0.27,0.75
			c0,0.22-0.12,0.42-0.36,0.6c-0.86,0.58-1.94,1.03-3.24,1.35c-1.3,0.32-2.77,0.48-4.41,0.48
			C181.63,523.4,178.8,522.51,176.78,520.72z"/>
		<path d="M195.19,522.53c-0.27-0.28-0.41-0.71-0.41-1.29v-16.98c0-0.58,0.13-1.01,0.41-1.29c0.27-0.28,0.74-0.42,1.4-0.42h3.57
			c0.68,0,1.16,0.14,1.42,0.41c0.27,0.27,0.41,0.71,0.41,1.3v13.59h6.99c0.64,0,1.08,0.13,1.3,0.4c0.23,0.27,0.34,0.71,0.34,1.31
			v1.68c0,0.6-0.12,1.04-0.34,1.3c-0.23,0.27-0.67,0.41-1.3,0.41h-12.39C195.92,522.95,195.46,522.81,195.19,522.53z"/>
		<path d="M211.93,522.53c-0.27-0.28-0.4-0.71-0.4-1.29v-16.98c0-0.58,0.13-1.01,0.4-1.29c0.27-0.28,0.74-0.42,1.4-0.42h3.57
			c0.68,0,1.16,0.14,1.43,0.41c0.27,0.27,0.4,0.71,0.4,1.3v16.98c0,0.58-0.13,1.01-0.4,1.29s-0.75,0.42-1.43,0.42h-3.57
			C212.66,522.95,212.2,522.81,211.93,522.53z"/>
		<path d="M221.23,522.53c-0.27-0.28-0.41-0.71-0.41-1.29v-16.98c0-0.58,0.14-1.01,0.41-1.29c0.27-0.28,0.73-0.42,1.39-0.42h12.42
			c0.64,0,1.07,0.14,1.3,0.41c0.23,0.27,0.35,0.71,0.35,1.3v1.68c0,0.6-0.12,1.04-0.35,1.3c-0.23,0.27-0.67,0.41-1.3,0.41h-7.02
			v2.58h4.32c0.64,0,1.08,0.13,1.31,0.4c0.23,0.27,0.34,0.71,0.34,1.31v1.62c0,0.6-0.12,1.03-0.34,1.3
			c-0.23,0.27-0.67,0.41-1.31,0.41h-4.32v2.58h6.99c0.64,0,1.07,0.13,1.3,0.4c0.23,0.27,0.34,0.71,0.34,1.31v1.68
			c0,0.6-0.12,1.04-0.34,1.3c-0.23,0.27-0.67,0.41-1.3,0.41h-12.39C221.96,522.95,221.5,522.81,221.23,522.53z"/>
		<path d="M238.45,522.53c-0.27-0.28-0.4-0.71-0.4-1.29v-17.01c0-0.58,0.13-1,0.4-1.28c0.27-0.27,0.75-0.41,1.43-0.41h2.85
			c0.42,0,0.74,0.06,0.97,0.17c0.23,0.11,0.46,0.33,0.68,0.65l5.43,8.07v-7.17c0-0.58,0.13-1.01,0.4-1.29
			c0.27-0.28,0.74-0.42,1.4-0.42h3.57c0.68,0,1.16,0.14,1.42,0.41c0.27,0.27,0.4,0.71,0.4,1.3v17.01c0,0.58-0.13,1-0.4,1.27
			c-0.27,0.27-0.75,0.41-1.42,0.41h-2.85c-0.42,0-0.75-0.05-0.97-0.17c-0.23-0.11-0.46-0.33-0.67-0.64l-5.43-8.07v7.2
			c0,0.58-0.13,1-0.4,1.27c-0.27,0.27-0.75,0.41-1.43,0.41h-3.57C239.18,522.95,238.72,522.81,238.45,522.53z"/>
		<path d="M264.28,522.53c-0.27-0.28-0.4-0.71-0.4-1.29v-13.59h-4.32c-0.64,0-1.08-0.13-1.3-0.41c-0.23-0.27-0.35-0.71-0.35-1.3
			v-1.68c0-0.6,0.12-1.03,0.35-1.3c0.23-0.27,0.66-0.41,1.3-0.41h15.84c0.64,0,1.08,0.14,1.3,0.41c0.23,0.27,0.35,0.71,0.35,1.3
			v1.68c0,0.6-0.12,1.04-0.35,1.3c-0.23,0.27-0.66,0.41-1.3,0.41h-4.32v13.59c0,0.58-0.13,1.01-0.4,1.29s-0.75,0.42-1.43,0.42h-3.57
			C265.01,522.95,264.55,522.81,264.28,522.53z"/>
		<path d="M278.35,522.53c-0.27-0.28-0.41-0.71-0.41-1.29v-16.98c0-0.58,0.14-1.01,0.41-1.29c0.27-0.28,0.73-0.42,1.39-0.42h12.42
			c0.64,0,1.08,0.14,1.31,0.41c0.23,0.27,0.34,0.71,0.34,1.3v1.68c0,0.6-0.12,1.04-0.34,1.3c-0.23,0.27-0.67,0.41-1.31,0.41h-7.02
			v2.58h4.32c0.64,0,1.07,0.13,1.3,0.4c0.23,0.27,0.35,0.71,0.35,1.31v1.62c0,0.6-0.12,1.03-0.35,1.3c-0.23,0.27-0.67,0.41-1.3,0.41
			h-4.32v2.58h6.99c0.64,0,1.07,0.13,1.3,0.4c0.23,0.27,0.35,0.71,0.35,1.31v1.68c0,0.6-0.12,1.04-0.35,1.3
			c-0.23,0.27-0.67,0.41-1.3,0.41h-12.39C279.08,522.95,278.62,522.81,278.35,522.53z"/>
	</g>
	<polygon class="st1" points="200.76,96.93 214.23,124.22 244.34,128.59 222.55,149.83 227.7,179.83 200.76,165.67 173.83,179.83 
		178.97,149.83 157.18,128.59 187.29,124.22 	"/>
	<polygon class="st1" points="138.58,180.15 147.32,197.86 166.86,200.7 152.72,214.48 156.06,233.94 138.58,224.75 121.11,233.94 
		124.45,214.48 110.31,200.7 129.85,197.86 	"/>
	<polygon class="st1" points="268.68,180.15 277.42,197.86 296.95,200.7 282.82,214.48 286.15,233.94 268.68,224.75 251.2,233.94 
		254.54,214.48 240.4,200.7 259.94,197.86 	"/>
	<circle class="st2" cx="201.77" cy="213.97" r="121.96"/>
	<circle class="st3" cx="200.82" cy="200.58" r="121.96"/>
	<g>
		<path class="st3" d="M179.79,639.51c-4.11-3.82-6.17-9.72-6.17-17.7c0-6.13,1.16-11.34,3.47-15.62c2.31-4.28,5.33-7.48,9.05-9.6
			s7.7-3.18,11.94-3.18c3.55,0,6.65,0.38,9.31,1.13c2.65,0.75,5.05,1.86,7.19,3.32c0.58,0.44,0.88,0.92,0.88,1.46
			c0,0.44-0.22,1.05-0.66,1.83l-3.5,6.06c-0.39,0.68-0.85,1.02-1.39,1.02c-0.34,0-0.9-0.19-1.68-0.58
			c-2.48-1.31-5.26-1.97-8.32-1.97c-2.43,0-4.46,0.54-6.1,1.61c-1.63,1.07-3.05,2.65-4.27,4.75c1.41-0.73,3.14-1.34,5.18-1.83
			c2.04-0.49,3.99-0.73,5.84-0.73c4.04,0,7.41,0.71,10.11,2.12c2.7,1.41,4.71,3.3,6.02,5.66c1.31,2.36,1.97,4.98,1.97,7.85
			c0,6.67-1.98,11.69-5.95,15.07c-3.97,3.38-9.58,5.07-16.83,5.07C189.27,645.24,183.9,643.33,179.79,639.51z M200.01,631.29
			c0.8-1.12,1.21-2.9,1.21-5.33s-0.4-4.21-1.21-5.33c-0.8-1.12-2.15-1.68-4.05-1.68c-1.7,0-2.93,0.56-3.69,1.68
			c-0.75,1.12-1.13,2.9-1.13,5.33s0.38,4.21,1.13,5.33c0.75,1.12,1.98,1.68,3.69,1.68C197.86,632.97,199.21,632.42,200.01,631.29z"
			/>
	</g>
	<g>
		<circle id="XMLID_273_" class="st4" cx="197.73" cy="200.96" r="82.04"/>
		<path id="XMLID_272_" class="st5" d="M197.68,218.54c6.53,0,12.37-4.25,14.39-4.68c-0.17-1.44-0.2-2.74-0.19-3.81
			c-4.97,4.19-7.16,5.62-13.75,5.39c-6.85,0.24-8.95-1.32-14.35-5.9c0.02,1.16,0.02,2.67-0.19,4.37
			C185.76,214.55,191.36,218.53,197.68,218.54L197.68,218.54z"/>
		<path id="XMLID_271_" class="st49" d="M251.64,236.74c-1.29-1.35-11.06-3.18-17.37-5.87c-7.02-2.99-14.24-5.4-17.85-8.32h0
			c-0.05,0.07-0.1,0.14-0.17,0.2c-7.42,7.26-18.56,6.71-18.56,6.71v-0.01c0,0-11.05,0.56-18.47-6.7c-0.07-0.07-0.12-0.14-0.17-0.2h0
			c-3.62,2.93-10.83,5.33-17.85,8.32c-6.63,2.82-17.08,4.71-17.5,6.07c7.64-3.08,11.62,18.5,13.1,35.1
			C168.83,279,182.81,283,197.73,283c15.1,0,29.23-4.09,41.38-11.21C240.56,255.62,244.38,234.86,251.64,236.74z"/>
		<path id="XMLID_270_" class="st12" d="M198.13,215.44c6.59,0.23,8.78-1.21,13.75-5.39c0.39-0.33,0.78-0.66,1.21-1.02
			c6.16-5.23,3.06-16.15,6.8-15.46s8.02-9.67,5.08-11.94c-0.06-0.05-0.12-0.08-0.18-0.12l0,0c-1.47-0.51-2.63,0.77-3.71,2.59
			c-1.08,1.82-0.66,4.62-1.74,4.56c-1.45-4.92-1.13-9.3-0.84-14.41c-10.08,2.96-20.46,4.49-28.86-1.67
			c-1.72-1.26-3.39-2.92-5.99-2.88c-3.01,0.05-4.22,1.84-3.8,4.73c0.21,1.45,0.32,3.41,0.4,4.27c0.29,3.01-1.58,6.71-2.27,7.42
			c-0.45,0.46-1.54,2.38-2.2,2.54c-0.54,0.13-0.17-3.01-1.97-5.72c-1.02-1.53-1.63-1.72-1.91-1.71c-0.19,0.11-0.39,0.24-0.6,0.4
			c-2.94,2.27,1.34,12.62,5.08,11.94c3.74-0.68,0.64,10.23,6.8,15.46c0.21,0.18,0.4,0.34,0.6,0.51
			C189.18,214.12,191.28,215.68,198.13,215.44z"/>
		<path id="XMLID_269_" class="st50" d="M143.69,236.94c-0.11,0.05-0.23,0.07-0.34,0.13c-1.69,0.84-4.94,6.52-7.48,17.73
			c5.96,6.84,13.02,12.67,20.92,17.23C155.3,255.44,151.32,233.86,143.69,236.94z"/>
		<path id="XMLID_268_" class="st50" d="M252.52,237.07c-0.3-0.15-0.59-0.25-0.88-0.33c-7.25-1.88-11.08,18.88-12.54,35.05
			c7.87-4.61,14.9-10.49,20.81-17.36C257.39,243.47,254.19,237.9,252.52,237.07z"/>
		<path id="XMLID_267_" class="st50" d="M197.68,229.46v0.01c0,0,11.13,0.55,18.56-6.71c0.07-0.07,0.12-0.14,0.17-0.2
			c0.91-1.26-1.47-2.59-1.77-4.02c-0.32-1.52-0.54-5.01-2.46-4.7c-0.03,0.01-0.07,0.02-0.11,0.03c-2.02,0.43-7.85,4.68-14.39,4.68
			v-0.01c-6.33,0-11.92-3.97-14.1-4.62c-0.11-0.03-0.22-0.06-0.31-0.08c-1.92-0.31-2.14,3.18-2.46,4.7
			c-0.3,1.44-2.68,2.76-1.77,4.02c0.05,0.07,0.1,0.14,0.17,0.2C186.64,230.01,197.68,229.46,197.68,229.46z"/>
		<path id="XMLID_266_" class="st144" d="M173.8,182.93c1.79,2.71,1.43,5.85,1.97,5.72c0.65-0.16,1.75-2.08,2.2-2.54
			c0.69-0.71,2.56-4.41,2.27-7.42c-0.08-0.86-0.19-2.82-0.4-4.27c-0.42-2.89,0.79-4.68,3.8-4.73c2.61-0.04,4.27,1.62,5.99,2.88
			c8.4,6.17,18.78,4.63,28.86,1.67c-0.28,5.11-0.61,9.49,0.84,14.41c1.07,0.07,0.65-2.74,1.74-4.56c1.08-1.82,2.24-3.1,3.71-2.59
			l0,0c2.99-6.37,3.31-16.72,0.35-23.1c-2.96-6.38-7.69-9.37-12.37-14.69c0.43,1.44-1.52,3.6-3.36,3.77
			c-1.53,0.14-4.09-0.69-5.62-0.87c-7.75-0.94-12.18-1.29-18.52,0.94c-3.27,1.15-6.36,2.76-8.81,5.15
			c-3.17,3.08-5.8,8.67-6.32,12.99c-0.27,2.24-0.55,4.52-0.22,7.78c0.14,1.39,0.99,6.54,1.82,7.79c0,0,0.06-0.03,0.17-0.04
			C172.17,181.21,172.79,181.4,173.8,182.93z"/>
		<circle class="st0" cx="267" cy="155" r="34"/>
		<g>
			<path class="st3" d="M260.55,171.09c-0.86-0.73-1.29-2.12-1.29-4.16v-4.59h-6.78c-2.04,0-3.42-0.43-4.16-1.29
				c-0.73-0.86-1.1-2.25-1.1-4.16v-5.35c0-1.91,0.37-3.3,1.1-4.16c0.73-0.86,2.12-1.29,4.16-1.29h6.78v-4.68
				c0-2.04,0.43-3.42,1.29-4.16c0.86-0.73,2.25-1.1,4.16-1.1h6.69c1.91,0,3.3,0.37,4.16,1.1c0.86,0.73,1.29,2.12,1.29,4.16v4.68
				h6.88c2.04,0,3.42,0.43,4.16,1.29c0.73,0.86,1.1,2.25,1.1,4.16v5.35c0,1.91-0.37,3.3-1.1,4.16c-0.73,0.86-2.12,1.29-4.16,1.29
				h-6.88v4.59c0,2.04-0.43,3.42-1.29,4.16c-0.86,0.73-2.25,1.1-4.16,1.1h-6.69C262.8,172.19,261.41,171.83,260.55,171.09z"/>
		</g>
	</g>
</g>
</svg>
