<?xml version="1.0" encoding="utf-8"?>
<!-- Generator: Adobe Illustrator 23.0.0, SVG Export Plug-In . SVG Version: 6.00 Build 0)  -->
<svg version="1.1" id="Capa_1" xmlns="http://www.w3.org/2000/svg" xmlns:xlink="http://www.w3.org/1999/xlink" x="0px" y="0px"
	 viewBox="0 0 400 702" style="enable-background:new 0 0 400 702;" xml:space="preserve">
<style type="text/css">
	.st0{fill:#0085B0;}
	.st1{fill:#E0EF18;}
	.st2{fill:#CECECE;}
	.st3{fill:#FFFFFF;}
	.st4{fill:#F2F2F2;}
	.st5{fill:#EACCB0;}
	.st6{fill:#9B9B9B;}
	.st7{fill:#939393;}
	.st8{fill:#EFEFEF;}
	.st9{fill:#828282;}
	.st10{fill:#2C2A2D;}
	.st11{fill:#202021;}
	.st12{fill:#F2D4B6;}
	.st13{fill:#534D46;}
	.st14{fill:#E8D313;}
	.st15{fill:#2ACCFF;}
	.st16{fill:#4E4F4F;}
	.st17{fill:#003A94;}
	.st18{fill:#00D13C;}
	.st19{fill:#15682A;}
	.st20{fill:#D40000;}
	.st21{fill:#505050;}
	.st22{fill:#DFDFDF;}
	.st23{fill:none;}
	.st24{fill:#636363;}
	.st25{fill:#6C92D5;}
	.st26{fill:#22272F;}
	.st27{fill:#1B2538;}
	.st28{fill:#253452;}
	.st29{fill:#F9F9F9;}
	.st30{fill:#2D3543;}
	.st31{fill:#2A3D60;}
	.st32{fill:#587955;}
	.st33{fill:#CD7054;}
	.st34{fill:#F1CC4B;}
	.st35{fill:#ACACAC;}
	.st36{fill:#AAE528;}
	.st37{fill:#28CEBA;}
	.st38{fill:#DB143F;}
	.st39{fill:#53C2C9;}
	.st40{fill:#FFB412;}
	.st41{fill:#866A5E;}
	.st42{fill:#F7DDCB;}
	.st43{fill:#FFE6D4;}
	.st44{fill:#F5F5F5;}
	.st45{fill:#1A2830;}
	.st46{fill:#24353F;}
	.st47{fill:#132026;}
	.st48{fill:#F9FF03;}
	.st49{fill:#272728;}
	.st50{fill:#1E1D1E;}
	.st51{fill:#160423;}
	.st52{fill-rule:evenodd;clip-rule:evenodd;fill:#FFFFFF;}
	.st53{fill-rule:evenodd;clip-rule:evenodd;fill:#1996B8;}
	.st54{fill:#0C387D;}
	.st55{fill:#C69A81;}
	.st56{fill:#D1A385;}
	.st57{fill:#EAEAEA;}
	.st58{fill:#093E8C;}
	.st59{fill:#0B2A62;}
	.st60{fill:#D32A3B;}
	.st61{fill:#827C7D;}
	.st62{opacity:0.7;fill:#7F7F7F;}
	.st63{fill:#FDFDFD;}
	.st64{fill:#DAA449;}
	.st65{fill:#DD9225;}
	.st66{opacity:0.3;}
	.st67{fill:#425793;}
	.st68{opacity:0.8;}
	.st69{filter:url(#Adobe_OpacityMaskFilter);}
	.st70{opacity:0.15;mask:url(#SVGID_1_);}
	.st71{fill:#090B00;}
	.st72{opacity:0.1;}
	.st73{fill:#211915;}
	.st74{filter:url(#Adobe_OpacityMaskFilter_1_);}
	.st75{opacity:0.15;mask:url(#SVGID_2_);}
	.st76{fill:#AF3623;}
	.st77{filter:url(#Adobe_OpacityMaskFilter_2_);}
	.st78{opacity:0.15;mask:url(#SVGID_3_);}
	.st79{filter:url(#Adobe_OpacityMaskFilter_3_);}
	.st80{opacity:0.15;mask:url(#SVGID_4_);}
	.st81{fill:#456495;}
	.st82{filter:url(#Adobe_OpacityMaskFilter_4_);}
	.st83{opacity:0.15;mask:url(#SVGID_5_);}
	.st84{filter:url(#Adobe_OpacityMaskFilter_5_);}
	.st85{opacity:0.15;mask:url(#SVGID_6_);}
	.st86{fill:#76A9DA;}
	.st87{filter:url(#Adobe_OpacityMaskFilter_6_);}
	.st88{opacity:0.15;mask:url(#SVGID_7_);}
	.st89{filter:url(#Adobe_OpacityMaskFilter_7_);}
	.st90{opacity:0.15;mask:url(#SVGID_8_);}
	.st91{fill:#1F3642;}
	.st92{fill:#A9BDDA;}
	.st93{opacity:0.46;fill:#A6B4BC;}
	.st94{fill:#74C475;}
	.st95{fill:#221F21;}
	.st96{fill:#2D2D2D;}
	.st97{fill:#1C1B1A;}
	.st98{fill:#77181C;}
	.st99{fill:#262525;}
	.st100{fill:#11100F;}
	.st101{opacity:0.18;}
	.st102{opacity:0.38;}
	.st103{fill:#0A5B1F;}
	.st104{opacity:0.27;}
	.st105{opacity:0.48;}
	.st106{fill:#0A4654;}
	.st107{fill:#C2C6C6;}
	.st108{fill:#E5E5E5;stroke:#FFFFFF;stroke-miterlimit:10;}
	.st109{fill:#ACB4B5;}
	.st110{fill:#7F8384;}
	.st111{fill:#15772F;}
	.st112{fill:#F4F4F4;}
	.st113{fill:#53B8DB;}
	.st114{fill:#06EF42;}
	.st115{fill:#E7ED07;}
	.st116{fill:#CCCCCA;}
	.st117{fill:#EADF13;}
	.st118{fill:#C2C2C2;}
	.st119{fill:#85B681;}
	.st120{fill:#A1DC9B;}
	.st121{fill:#90C58B;}
	.st122{fill:#22241F;}
	.st123{opacity:0.5;}
	.st124{fill:#A2CADE;}
	.st125{fill:#E9E9E9;}
	.st126{fill:#D9D9D9;}
	.st127{fill:#CDCDCD;}
	.st128{opacity:0.34;fill:#F0F0F0;}
	.st129{fill:#5A5B5A;}
	.st130{fill:#FFE600;}
	.st131{fill:#DB1F59;}
	.st132{fill:#727272;}
	.st133{fill:#207235;}
	.st134{fill:#A3A3A3;}
	.st135{fill:#BCBCBC;}
	.st136{fill:#0A511C;}
	.st137{fill:#F9FF00;}
	.st138{fill:#D59F6D;}
	.st139{fill:#C0804A;}
	.st140{fill:#E6BA8A;}
	.st141{fill:#BE3ACC;}
	.st142{fill:#FFFFFF;stroke:#443F0C;stroke-width:9;stroke-miterlimit:10;}
	.st143{fill:none;stroke:#443F0C;stroke-width:9;stroke-miterlimit:10;}
	.st144{fill:#170623;}
	.st145{fill:#158231;}
	.st146{fill:#C89D76;}
	.st147{opacity:0.4;}
	.st148{fill:#ADADAD;}
	.st149{fill:#EDC3A6;}
	.st150{opacity:0.69;}
	.st151{fill:#E5D3D6;}
	.st152{opacity:0.44;}
	.st153{fill:#A5A5A5;}
	.st154{fill:#DDE5E4;}
	.st155{fill:#5C9169;}
	.st156{fill:#934215;}
	.st157{fill:#47413B;}
	.st158{fill:#601A1F;}
	.st159{fill:#044554;}
	.st160{opacity:0.7;}
	.st161{fill:#7F7F7F;}
	.st162{fill:#6B8A69;}
	.st163{opacity:0.24;fill:#848D90;}
	.st164{opacity:0.4;fill:#848D90;}
	.st165{fill:#F2D5D5;}
	.st166{fill:#485CC1;}
	.st167{fill:#C6CBE0;}
	.st168{fill:#8B909E;}
	.st169{fill:#53BC1B;}
	.st170{fill:#11565B;}
	.st171{fill:#67A06D;}
	.st172{fill:#FFEC00;}
	.st173{fill:#77A007;}
	.st174{fill:#E50731;}
	.st175{fill:#266472;}
	.st176{fill:#D4D4D4;}
	.st177{fill:#0E9932;}
	.st178{fill:#87DD24;}
	.st179{fill:#76A172;}
	.st180{fill:#62835F;}
	.st181{fill:#96D090;}
	.st182{fill:#D6D6D6;}
	.st183{fill:#606060;}
	.st184{fill:#494949;}
	.st185{fill:#29E55A;}
	.st186{fill:#2C703D;}
	.st187{fill:#DD0744;}
	.st188{fill:#EDEDED;}
	.st189{fill:#2A5936;}
	.st190{fill:#B9BBC1;}
	.st191{fill:#FFD79E;}
	.st192{fill:#FFE6C2;}
	.st193{fill:#2CBB55;}
	.st194{fill:#5C412D;}
	.st195{fill:#EC0000;}
	.st196{fill:#DD2626;}
	.st197{fill:#EA9334;}
	.st198{fill:#FCC232;}
	.st199{fill:#F9B234;}
	.st200{fill:#F7A037;}
	.st201{fill:#E0E0E0;}
</style>
<g>
	<g>
		<path class="st0" d="M9.5,209.36c0,22,13.29,27.86,29.54,13.03c0,0,156.99-143.3,353.09,26.97V55c0-22-18-40-40-40H49.5
			c-22,0-40,18-40,40V209.36z"/>
	</g>
	<g>
		<path class="st0" d="M391.66,647c0,22-18,40-40,40H49.98c-22,0-40-18-40-40v-46.27c0-22,18-40,40-40h301.68c22,0,40,18,40,40V647z
			"/>
	</g>
	<g>
		<path d="M105.96,392.32c-0.4-0.42-0.61-1.06-0.61-1.94v-25.47c0-0.87,0.2-1.51,0.61-1.93c0.41-0.42,1.1-0.63,2.09-0.63h10.75
			c4.5,0,7.78,0.89,9.83,2.68c2.05,1.79,3.08,4.48,3.08,8.08c0,2.16-0.37,3.98-1.1,5.47c-0.74,1.49-1.87,2.65-3.4,3.49l4.18,8.96
			c0.12,0.24,0.18,0.51,0.18,0.81c0,0.33-0.11,0.6-0.34,0.81c-0.23,0.21-0.52,0.32-0.88,0.32h-7.6c-0.48,0-0.86-0.07-1.15-0.2
			c-0.29-0.14-0.49-0.37-0.61-0.7l-3.33-8.37h-1.53v6.7c0,0.87-0.2,1.52-0.61,1.94c-0.41,0.42-1.12,0.63-2.14,0.63h-5.35
			C107.06,392.95,106.37,392.74,105.96,392.32z M117.86,376.17c0.96,0,1.72-0.25,2.27-0.76c0.55-0.51,0.83-1.28,0.83-2.29
			c0-1.05-0.28-1.83-0.83-2.34c-0.56-0.51-1.31-0.77-2.27-0.77h-3.06v6.17H117.86z"/>
		<path d="M134.58,392.32c-0.41-0.42-0.61-1.06-0.61-1.94v-25.47c0-0.87,0.2-1.51,0.61-1.93s1.1-0.63,2.09-0.63h18.63
			c0.96,0,1.61,0.2,1.96,0.61c0.34,0.41,0.52,1.06,0.52,1.96v2.52c0,0.9-0.17,1.55-0.52,1.96c-0.34,0.41-1,0.61-1.96,0.61h-10.53
			v3.87h6.48c0.96,0,1.61,0.2,1.96,0.61c0.34,0.41,0.52,1.06,0.52,1.96v2.43c0,0.9-0.17,1.55-0.52,1.96c-0.35,0.41-1,0.61-1.96,0.61
			h-6.48v3.87h10.48c0.96,0,1.61,0.2,1.96,0.61c0.34,0.41,0.52,1.06,0.52,1.96v2.52c0,0.9-0.17,1.55-0.52,1.96s-1,0.61-1.96,0.61
			h-18.58C135.68,392.95,134.99,392.74,134.58,392.32z"/>
		<path d="M160.41,392.32c-0.41-0.42-0.61-1.06-0.61-1.94v-25.47c0-0.87,0.2-1.51,0.61-1.93c0.4-0.42,1.1-0.63,2.09-0.63h10.76
			c4.5,0,7.78,0.89,9.83,2.68c2.05,1.79,3.08,4.48,3.08,8.08s-1.03,6.29-3.08,8.05c-2.05,1.77-5.32,2.66-9.79,2.66h-2.7v6.57
			c0,0.87-0.2,1.52-0.61,1.94s-1.12,0.63-2.14,0.63h-5.36C161.51,392.95,160.81,392.74,160.41,392.32z M172.31,376.17
			c0.96,0,1.72-0.25,2.27-0.76c0.55-0.51,0.83-1.28,0.83-2.29c0-1.05-0.28-1.83-0.83-2.34c-0.56-0.51-1.31-0.77-2.27-0.77h-3.06
			v6.17H172.31z"/>
		<path d="M189.64,389.46c-2.76-2.77-4.14-6.71-4.14-11.81c0-5.1,1.38-9.04,4.14-11.81c2.76-2.78,6.81-4.16,12.15-4.16
			s9.39,1.39,12.15,4.16s4.14,6.71,4.14,11.81c0,5.1-1.38,9.04-4.14,11.81c-2.76,2.78-6.81,4.16-12.15,4.16
			S192.4,392.24,189.64,389.46z M206.02,383.97c0.87-1.39,1.3-3.5,1.3-6.32c0-2.85-0.43-4.96-1.3-6.35
			c-0.87-1.38-2.28-2.07-4.23-2.07c-1.95,0-3.36,0.69-4.23,2.07c-0.87,1.38-1.3,3.5-1.3,6.35c0,2.82,0.43,4.93,1.3,6.32
			c0.87,1.4,2.28,2.09,4.23,2.09C203.74,386.07,205.15,385.37,206.02,383.97z"/>
		<path d="M220.94,392.32c-0.41-0.42-0.61-1.06-0.61-1.94v-25.47c0-0.87,0.2-1.51,0.61-1.93c0.4-0.42,1.1-0.63,2.09-0.63h10.76
			c4.5,0,7.78,0.89,9.83,2.68c2.05,1.79,3.08,4.48,3.08,8.08c0,2.16-0.37,3.98-1.1,5.47c-0.74,1.49-1.87,2.65-3.4,3.49l4.19,8.96
			c0.12,0.24,0.18,0.51,0.18,0.81c0,0.33-0.11,0.6-0.34,0.81c-0.23,0.21-0.52,0.32-0.88,0.32h-7.6c-0.48,0-0.86-0.07-1.15-0.2
			c-0.29-0.14-0.49-0.37-0.61-0.7l-3.33-8.37h-1.53v6.7c0,0.87-0.2,1.52-0.61,1.94s-1.12,0.63-2.14,0.63h-5.36
			C222.04,392.95,221.34,392.74,220.94,392.32z M232.84,376.17c0.96,0,1.72-0.25,2.27-0.76c0.55-0.51,0.83-1.28,0.83-2.29
			c0-1.05-0.28-1.83-0.83-2.34c-0.56-0.51-1.31-0.77-2.27-0.77h-3.06v6.17H232.84z"/>
		<path d="M255.13,392.32c-0.4-0.42-0.61-1.06-0.61-1.94V370h-6.48c-0.96,0-1.61-0.2-1.96-0.61c-0.34-0.4-0.52-1.06-0.52-1.96v-2.52
			c0-0.9,0.17-1.55,0.52-1.96c0.35-0.4,1-0.61,1.96-0.61h23.76c0.96,0,1.61,0.2,1.96,0.61c0.34,0.41,0.52,1.06,0.52,1.96v2.52
			c0,0.9-0.17,1.55-0.52,1.96c-0.35,0.41-1,0.61-1.96,0.61h-6.48v20.38c0,0.87-0.2,1.52-0.61,1.94c-0.41,0.42-1.12,0.63-2.14,0.63
			h-5.35C256.24,392.95,255.54,392.74,255.13,392.32z"/>
		<path d="M276.24,392.32c-0.41-0.42-0.61-1.06-0.61-1.94v-25.47c0-0.87,0.2-1.51,0.61-1.93c0.4-0.42,1.1-0.63,2.09-0.63h18.63
			c0.96,0,1.61,0.2,1.96,0.61c0.34,0.41,0.52,1.06,0.52,1.96v2.52c0,0.9-0.17,1.55-0.52,1.96c-0.35,0.41-1,0.61-1.96,0.61h-10.53
			v3.87h6.48c0.96,0,1.61,0.2,1.96,0.61c0.35,0.41,0.52,1.06,0.52,1.96v2.43c0,0.9-0.17,1.55-0.52,1.96c-0.34,0.41-1,0.61-1.96,0.61
			h-6.48v3.87h10.49c0.96,0,1.61,0.2,1.96,0.61c0.34,0.41,0.52,1.06,0.52,1.96v2.52c0,0.9-0.17,1.55-0.52,1.96
			c-0.35,0.41-1,0.61-1.96,0.61h-18.58C277.34,392.95,276.64,392.74,276.24,392.32z"/>
		<path d="M40.76,446.32c-0.41-0.42-0.61-1.06-0.61-1.94v-25.47c0-0.87,0.2-1.51,0.61-1.93c0.4-0.42,1.1-0.63,2.09-0.63H53.2
			c10.59,0,15.88,5.1,15.88,15.3c0,5.04-1.36,8.85-4.07,11.43c-2.72,2.58-6.65,3.87-11.81,3.87H42.85
			C41.86,446.95,41.16,446.74,40.76,446.32z M53.61,439.3c1.68,0,2.89-0.55,3.62-1.67c0.74-1.11,1.1-3.1,1.1-5.98
			s-0.37-4.88-1.1-5.99c-0.74-1.11-1.94-1.67-3.62-1.67h-2.66v15.3H53.61z"/>
		<path d="M71.94,446.32c-0.41-0.42-0.61-1.06-0.61-1.94v-25.47c0-0.87,0.2-1.51,0.61-1.93s1.1-0.63,2.09-0.63h18.63
			c0.96,0,1.61,0.2,1.96,0.61c0.34,0.4,0.52,1.06,0.52,1.96v2.52c0,0.9-0.17,1.55-0.52,1.96s-1,0.61-1.96,0.61H82.13v3.87h6.48
			c0.96,0,1.61,0.2,1.96,0.61c0.34,0.41,0.52,1.06,0.52,1.96v2.43c0,0.9-0.17,1.55-0.52,1.96c-0.35,0.41-1,0.61-1.96,0.61h-6.48
			v3.87h10.48c0.96,0,1.61,0.2,1.96,0.61c0.34,0.41,0.52,1.06,0.52,1.96v2.52c0,0.9-0.17,1.55-0.52,1.96s-1,0.61-1.96,0.61H74.04
			C73.04,446.95,72.35,446.74,71.94,446.32z"/>
		<path d="M116.38,446.77c-2.34-0.57-4.23-1.37-5.67-2.39c-0.6-0.42-0.9-0.82-0.9-1.21c0-0.27,0.11-0.55,0.32-0.85l2.61-4.1
			c0.27-0.39,0.54-0.58,0.81-0.58c0.24,0,0.52,0.11,0.85,0.32c1.08,0.66,2.32,1.18,3.71,1.55s2.75,0.56,4.07,0.56
			c1.11,0,1.91-0.15,2.41-0.45c0.49-0.3,0.74-0.76,0.74-1.4c0-0.69-0.33-1.24-0.99-1.66s-1.8-0.95-3.42-1.58
			c-3.03-1.17-5.42-2.5-7.15-3.98c-1.74-1.49-2.61-3.46-2.61-5.92c0-3.12,1.09-5.47,3.26-7.04c2.17-1.58,5.11-2.36,8.8-2.36
			c2.58,0,4.78,0.23,6.59,0.68c1.81,0.45,3.4,1.16,4.75,2.11c0.6,0.42,0.9,0.83,0.9,1.22c0,0.27-0.11,0.55-0.31,0.85l-2.61,4.09
			c-0.27,0.42-0.54,0.63-0.81,0.63c-0.18,0-0.47-0.12-0.85-0.36c-0.72-0.48-1.58-0.88-2.57-1.19c-0.99-0.32-2.06-0.47-3.19-0.47
			c-1.05,0-1.85,0.15-2.39,0.45s-0.81,0.78-0.81,1.44c0,0.54,0.19,0.99,0.56,1.35c0.38,0.36,0.85,0.67,1.42,0.92
			c0.57,0.26,1.56,0.67,2.97,1.24c2.25,0.9,4.02,1.76,5.31,2.59c1.29,0.83,2.26,1.82,2.92,2.97c0.66,1.16,0.99,2.62,0.99,4.39
			c0,2.7-1.01,4.88-3.04,6.55c-2.02,1.67-5.05,2.5-9.07,2.5C121.25,447.63,118.72,447.34,116.38,446.77z"/>
		<path d="M138.95,446.32c-0.41-0.42-0.61-1.06-0.61-1.94v-25.47c0-0.87,0.2-1.51,0.61-1.93s1.1-0.63,2.09-0.63h5.35
			c1.02,0,1.73,0.2,2.14,0.61c0.4,0.4,0.61,1.06,0.61,1.96v25.47c0,0.87-0.2,1.52-0.61,1.94c-0.41,0.42-1.12,0.63-2.14,0.63h-5.35
			C140.05,446.95,139.35,446.74,138.95,446.32z"/>
		<path d="M152.9,446.32c-0.41-0.42-0.61-1.06-0.61-1.94v-25.51c0-0.87,0.2-1.51,0.61-1.91c0.4-0.41,1.12-0.61,2.14-0.61h4.28
			c0.63,0,1.12,0.08,1.46,0.25c0.34,0.17,0.68,0.49,1.01,0.97l8.14,12.1v-10.75c0-0.87,0.2-1.51,0.61-1.93
			c0.41-0.42,1.1-0.63,2.09-0.63h5.35c1.02,0,1.73,0.2,2.14,0.61c0.4,0.4,0.61,1.06,0.61,1.96v25.52c0,0.87-0.2,1.51-0.61,1.91
			c-0.41,0.41-1.12,0.61-2.14,0.61h-4.27c-0.63,0-1.12-0.08-1.46-0.25c-0.35-0.17-0.68-0.49-1.01-0.97l-8.15-12.11v10.8
			c0,0.87-0.2,1.51-0.61,1.91c-0.4,0.41-1.12,0.61-2.14,0.61h-5.36C154,446.95,153.3,446.74,152.9,446.32z"/>
		<path d="M184.49,446.32c-0.41-0.42-0.61-1.06-0.61-1.94v-25.47c0-0.87,0.2-1.51,0.61-1.93c0.4-0.42,1.1-0.63,2.09-0.63h5.36
			c1.02,0,1.73,0.2,2.14,0.61c0.41,0.4,0.61,1.06,0.61,1.96v25.47c0,0.87-0.2,1.52-0.61,1.94c-0.4,0.42-1.12,0.63-2.14,0.63h-5.36
			C185.59,446.95,184.89,446.74,184.49,446.32z"/>
		<path d="M198.44,446.32c-0.41-0.42-0.61-1.06-0.61-1.94v-25.47c0-0.87,0.2-1.51,0.61-1.93c0.4-0.42,1.1-0.63,2.09-0.63h18.63
			c0.96,0,1.61,0.2,1.96,0.61c0.34,0.4,0.52,1.06,0.52,1.96v2.52c0,0.9-0.17,1.55-0.52,1.96c-0.35,0.41-1,0.61-1.96,0.61h-10.53
			v3.87h6.48c0.96,0,1.61,0.2,1.96,0.61s0.52,1.06,0.52,1.96v2.43c0,0.9-0.17,1.55-0.52,1.96c-0.34,0.41-1,0.61-1.96,0.61h-6.48
			v3.87h10.49c0.96,0,1.61,0.2,1.96,0.61c0.34,0.41,0.52,1.06,0.52,1.96v2.52c0,0.9-0.17,1.55-0.52,1.96
			c-0.35,0.41-1,0.61-1.96,0.61h-18.59C199.54,446.95,198.84,446.74,198.44,446.32z"/>
		<path d="M229.37,446.77c-2.34-0.57-4.23-1.37-5.67-2.39c-0.6-0.42-0.9-0.82-0.9-1.21c0-0.27,0.1-0.55,0.31-0.85l2.61-4.1
			c0.27-0.39,0.54-0.58,0.81-0.58c0.24,0,0.53,0.11,0.86,0.32c1.08,0.66,2.32,1.18,3.71,1.55c1.39,0.38,2.75,0.56,4.07,0.56
			c1.11,0,1.91-0.15,2.41-0.45s0.74-0.76,0.74-1.4c0-0.69-0.33-1.24-0.99-1.66c-0.66-0.42-1.8-0.95-3.42-1.58
			c-3.03-1.17-5.42-2.5-7.16-3.98c-1.74-1.49-2.61-3.46-2.61-5.92c0-3.12,1.09-5.47,3.26-7.04c2.17-1.58,5.11-2.36,8.8-2.36
			c2.58,0,4.78,0.23,6.59,0.68c1.81,0.45,3.4,1.16,4.75,2.11c0.6,0.42,0.9,0.83,0.9,1.22c0,0.27-0.11,0.55-0.32,0.85l-2.61,4.09
			c-0.27,0.42-0.54,0.63-0.81,0.63c-0.18,0-0.46-0.12-0.85-0.36c-0.72-0.48-1.58-0.88-2.57-1.19c-0.99-0.32-2.05-0.47-3.19-0.47
			c-1.05,0-1.84,0.15-2.39,0.45c-0.54,0.3-0.81,0.78-0.81,1.44c0,0.54,0.19,0.99,0.56,1.35c0.37,0.36,0.85,0.67,1.42,0.92
			c0.57,0.26,1.56,0.67,2.97,1.24c2.25,0.9,4.02,1.76,5.31,2.59c1.29,0.83,2.26,1.82,2.92,2.97c0.66,1.16,0.99,2.62,0.99,4.39
			c0,2.7-1.01,4.88-3.04,6.55s-5.05,2.5-9.07,2.5C234.25,447.63,231.71,447.34,229.37,446.77z"/>
		<path d="M257.97,446.32c-0.41-0.42-0.61-1.06-0.61-1.94V424h-6.48c-0.96,0-1.61-0.2-1.96-0.61s-0.52-1.06-0.52-1.96v-2.52
			c0-0.9,0.17-1.55,0.52-1.96c0.34-0.41,1-0.61,1.96-0.61h23.76c0.96,0,1.61,0.2,1.96,0.61c0.34,0.4,0.52,1.06,0.52,1.96v2.52
			c0,0.9-0.17,1.55-0.52,1.96c-0.35,0.41-1,0.61-1.96,0.61h-6.48v20.38c0,0.87-0.2,1.52-0.61,1.94c-0.4,0.42-1.12,0.63-2.14,0.63
			h-5.36C259.07,446.95,258.38,446.74,257.97,446.32z"/>
		<path d="M279.07,446.32c-0.4-0.42-0.61-1.06-0.61-1.94v-25.47c0-0.87,0.2-1.51,0.61-1.93c0.41-0.42,1.1-0.63,2.09-0.63h10.75
			c4.5,0,7.78,0.89,9.83,2.68c2.05,1.79,3.08,4.48,3.08,8.08c0,2.16-0.37,3.98-1.1,5.47c-0.74,1.49-1.87,2.65-3.4,3.49l4.18,8.96
			c0.12,0.24,0.18,0.51,0.18,0.81c0,0.33-0.11,0.6-0.34,0.81c-0.23,0.21-0.52,0.32-0.88,0.32h-7.6c-0.48,0-0.86-0.07-1.15-0.2
			c-0.29-0.14-0.49-0.37-0.61-0.7l-3.33-8.37h-1.53v6.7c0,0.87-0.2,1.52-0.61,1.94c-0.41,0.42-1.12,0.63-2.14,0.63h-5.35
			C280.18,446.95,279.48,446.74,279.07,446.32z M290.98,430.17c0.96,0,1.72-0.25,2.27-0.76c0.55-0.51,0.83-1.28,0.83-2.29
			c0-1.05-0.28-1.83-0.83-2.34c-0.56-0.51-1.31-0.77-2.27-0.77h-3.06v6.17H290.98z"/>
		<path d="M310.33,443.46c-2.76-2.77-4.14-6.71-4.14-11.81c0-5.1,1.38-9.04,4.14-11.81c2.76-2.77,6.81-4.16,12.15-4.16
			s9.39,1.39,12.15,4.16c2.76,2.78,4.14,6.71,4.14,11.81c0,5.1-1.38,9.04-4.14,11.81c-2.76,2.78-6.81,4.16-12.15,4.16
			S313.09,446.24,310.33,443.46z M326.71,437.97c0.87-1.39,1.31-3.5,1.31-6.32c0-2.85-0.44-4.96-1.31-6.34s-2.28-2.07-4.23-2.07
			c-1.95,0-3.36,0.69-4.23,2.07s-1.3,3.5-1.3,6.34c0,2.82,0.43,4.93,1.3,6.32c0.87,1.4,2.28,2.09,4.23,2.09
			C324.43,440.07,325.84,439.37,326.71,437.97z"/>
		<path d="M344.71,446.77c-2.34-0.57-4.23-1.37-5.67-2.39c-0.6-0.42-0.9-0.82-0.9-1.21c0-0.27,0.1-0.55,0.31-0.85l2.61-4.1
			c0.27-0.39,0.54-0.58,0.81-0.58c0.24,0,0.53,0.11,0.86,0.32c1.08,0.66,2.32,1.18,3.71,1.55c1.39,0.38,2.75,0.56,4.07,0.56
			c1.11,0,1.91-0.15,2.41-0.45s0.74-0.76,0.74-1.4c0-0.69-0.33-1.24-0.99-1.66c-0.66-0.42-1.8-0.95-3.42-1.58
			c-3.03-1.17-5.42-2.5-7.16-3.98c-1.74-1.49-2.61-3.46-2.61-5.92c0-3.12,1.09-5.47,3.26-7.04c2.17-1.58,5.11-2.36,8.8-2.36
			c2.58,0,4.78,0.23,6.59,0.68c1.81,0.45,3.4,1.16,4.75,2.11c0.6,0.42,0.9,0.83,0.9,1.22c0,0.27-0.11,0.55-0.32,0.85l-2.61,4.09
			c-0.27,0.42-0.54,0.63-0.81,0.63c-0.18,0-0.46-0.12-0.85-0.36c-0.72-0.48-1.58-0.88-2.57-1.19c-0.99-0.32-2.05-0.47-3.19-0.47
			c-1.05,0-1.84,0.15-2.39,0.45c-0.54,0.3-0.81,0.78-0.81,1.44c0,0.54,0.19,0.99,0.56,1.35c0.37,0.36,0.85,0.67,1.42,0.92
			c0.57,0.26,1.56,0.67,2.97,1.24c2.25,0.9,4.02,1.76,5.31,2.59c1.29,0.83,2.26,1.82,2.92,2.97c0.66,1.16,0.99,2.62,0.99,4.39
			c0,2.7-1.01,4.88-3.04,6.55s-5.05,2.5-9.07,2.5C349.58,447.63,347.05,447.34,344.71,446.77z"/>
	</g>
	<polygon class="st1" points="200.76,96.93 214.23,124.22 244.34,128.59 222.55,149.83 227.7,179.83 200.76,165.67 173.83,179.83 
		178.97,149.83 157.18,128.59 187.29,124.22 	"/>
	<polygon class="st1" points="138.58,180.15 147.32,197.86 166.86,200.7 152.72,214.48 156.06,233.94 138.58,224.75 121.11,233.94 
		124.45,214.48 110.31,200.7 129.85,197.86 	"/>
	<polygon class="st1" points="268.68,180.15 277.42,197.86 296.95,200.7 282.82,214.48 286.15,233.94 268.68,224.75 251.2,233.94 
		254.54,214.48 240.4,200.7 259.94,197.86 	"/>
	<circle class="st2" cx="201.77" cy="213.97" r="121.96"/>
	<circle class="st3" cx="200.82" cy="200.58" r="121.96"/>
	<g>
		<path class="st3" d="M176.43,640.35v-4.31c0-2.87,0.97-5.57,2.92-8.1c1.95-2.53,5.35-5.5,10.22-8.91c1.7-1.17,2.75-1.87,3.14-2.12
			c1.75-1.17,2.97-2.04,3.65-2.63c0.68-0.58,1.19-1.22,1.53-1.9c0.34-0.68,0.51-1.56,0.51-2.63c0-1.22-0.45-2.2-1.35-2.96
			c-0.9-0.75-2.28-1.13-4.13-1.13c-3.12,0-6.28,0.8-9.49,2.41c-0.78,0.39-1.34,0.58-1.68,0.58c-0.54,0-1-0.34-1.39-1.02l-3.65-6.28
			c-0.44-0.78-0.66-1.39-0.66-1.82c0-0.54,0.29-1.02,0.88-1.46c2.09-1.41,4.79-2.54,8.1-3.39c3.31-0.85,6.93-1.28,10.88-1.28
			c6.13,0,10.99,1.28,14.56,3.83c3.58,2.55,5.37,6.17,5.37,10.84c0,3.6-1,6.66-2.99,9.16c-2,2.51-5.26,5.22-9.78,8.14
			c-4.82,3.12-7.71,5.21-8.69,6.28h17.81c1.56,0,2.62,0.33,3.18,0.99c0.56,0.66,0.84,1.71,0.84,3.17v4.16
			c0,1.46-0.28,2.52-0.84,3.18c-0.56,0.66-1.62,0.99-3.18,0.99h-32.12C177.65,644.14,176.43,642.88,176.43,640.35z"/>
	</g>
	<g>
		<polygon class="st64" points="218.64,175.49 160.49,175.49 155.1,167.23 108.43,167.23 126.77,248.55 234.69,248.55 		"/>
		<rect x="126.77" y="188.14" class="st3" width="102.11" height="59.78"/>
		<polygon class="st34" points="234.69,248.55 126.77,248.55 148.77,196.42 256.68,196.42 		"/>
		<polygon class="st64" points="171.38,196.42 171.38,240.34 130.24,240.34 126.77,248.55 234.69,248.55 256.68,196.42 		"/>
	</g>
	<rect x="172.86" y="121" class="st176" width="94.97" height="122.84"/>
	<rect x="169.39" y="121" class="st3" width="94.97" height="122.84"/>
	<g>
		<g>
			<rect x="175.36" y="154.23" class="st22" width="63.87" height="12.91"/>
			<rect x="175.36" y="175.7" class="st22" width="63.87" height="12.91"/>
			<rect x="175.36" y="197.16" class="st22" width="63.87" height="12.91"/>
			<rect x="175.36" y="218.63" class="st22" width="63.87" height="12.91"/>
		</g>
		<g>
			<rect x="245.68" y="154.23" class="st22" width="12.71" height="12.91"/>
			<rect x="245.68" y="175.7" class="st22" width="12.71" height="12.91"/>
			<rect x="245.68" y="197.16" class="st22" width="12.71" height="12.91"/>
			<rect x="245.68" y="218.63" class="st118" width="12.71" height="12.91"/>
		</g>
	</g>
	<g>
		<path class="st0" d="M178.78,145.62c-0.2-0.21-0.3-0.52-0.3-0.95v-12.45c0-0.42,0.1-0.74,0.3-0.95c0.2-0.21,0.54-0.31,1.02-0.31
			h5.26c2.2,0,3.8,0.44,4.81,1.31c1,0.87,1.51,2.19,1.51,3.95c0,1.06-0.18,1.95-0.54,2.67c-0.36,0.73-0.91,1.29-1.66,1.71l2.05,4.38
			c0.06,0.12,0.09,0.25,0.09,0.4c0,0.16-0.05,0.29-0.17,0.4c-0.11,0.1-0.25,0.15-0.43,0.15H187c-0.23,0-0.42-0.03-0.56-0.1
			c-0.14-0.07-0.24-0.18-0.3-0.34l-1.63-4.09h-0.75v3.28c0,0.43-0.1,0.74-0.3,0.95c-0.2,0.21-0.55,0.31-1.04,0.31h-2.62
			C179.32,145.93,178.98,145.83,178.78,145.62z M184.6,137.72c0.47,0,0.84-0.12,1.11-0.37c0.27-0.25,0.41-0.62,0.41-1.12
			c0-0.51-0.14-0.89-0.41-1.14c-0.27-0.25-0.64-0.37-1.11-0.37h-1.5v3.01H184.6z"/>
		<path class="st0" d="M192.77,145.62c-0.2-0.21-0.3-0.52-0.3-0.95v-12.45c0-0.42,0.1-0.74,0.3-0.95c0.2-0.21,0.54-0.31,1.02-0.31
			h9.11c0.47,0,0.79,0.1,0.96,0.3c0.17,0.2,0.25,0.52,0.25,0.96v1.23c0,0.44-0.08,0.76-0.25,0.96c-0.17,0.2-0.49,0.3-0.96,0.3h-5.15
			v1.89h3.17c0.47,0,0.79,0.1,0.96,0.3c0.17,0.2,0.25,0.52,0.25,0.96v1.19c0,0.44-0.08,0.76-0.25,0.96c-0.17,0.2-0.49,0.3-0.96,0.3
			h-3.17v1.89h5.13c0.47,0,0.79,0.1,0.96,0.3c0.17,0.2,0.25,0.52,0.25,0.96v1.23c0,0.44-0.08,0.76-0.25,0.96s-0.49,0.3-0.96,0.3
			h-9.09C193.31,145.93,192.97,145.83,192.77,145.62z"/>
		<path class="st0" d="M205.4,145.62c-0.2-0.21-0.3-0.52-0.3-0.95v-12.45c0-0.42,0.1-0.74,0.3-0.95c0.2-0.21,0.54-0.31,1.02-0.31
			h5.26c2.2,0,3.8,0.44,4.81,1.31c1,0.87,1.51,2.19,1.51,3.95s-0.5,3.07-1.51,3.94c-1,0.87-2.6,1.3-4.79,1.3h-1.32v3.21
			c0,0.43-0.1,0.74-0.3,0.95c-0.2,0.21-0.55,0.31-1.04,0.31h-2.62C205.94,145.93,205.6,145.83,205.4,145.62z M211.22,137.72
			c0.47,0,0.84-0.12,1.11-0.37c0.27-0.25,0.41-0.62,0.41-1.12c0-0.51-0.14-0.89-0.41-1.14c-0.27-0.25-0.64-0.37-1.11-0.37h-1.5v3.01
			H211.22z"/>
		<path class="st0" d="M219.69,144.22c-1.35-1.36-2.02-3.28-2.02-5.78c0-2.49,0.67-4.42,2.02-5.77c1.35-1.36,3.33-2.04,5.94-2.04
			s4.59,0.68,5.94,2.04c1.35,1.36,2.02,3.28,2.02,5.77c0,2.49-0.67,4.42-2.02,5.78c-1.35,1.36-3.33,2.04-5.94,2.04
			S221.04,145.58,219.69,144.22z M227.7,141.54c0.42-0.68,0.64-1.71,0.64-3.09c0-1.39-0.21-2.43-0.64-3.1
			c-0.43-0.67-1.12-1.01-2.07-1.01s-1.64,0.34-2.07,1.01c-0.42,0.67-0.64,1.71-0.64,3.1c0,1.38,0.21,2.41,0.64,3.09
			c0.43,0.68,1.12,1.02,2.07,1.02S227.27,142.22,227.7,141.54z"/>
		<path class="st0" d="M234.99,145.62c-0.2-0.21-0.3-0.52-0.3-0.95v-12.45c0-0.42,0.1-0.74,0.3-0.95c0.2-0.21,0.54-0.31,1.02-0.31
			h5.26c2.2,0,3.8,0.44,4.81,1.31c1,0.87,1.51,2.19,1.51,3.95c0,1.06-0.18,1.95-0.54,2.67c-0.36,0.73-0.91,1.29-1.66,1.71l2.05,4.38
			c0.06,0.12,0.09,0.25,0.09,0.4c0,0.16-0.05,0.29-0.17,0.4c-0.11,0.1-0.25,0.15-0.43,0.15h-3.72c-0.24,0-0.42-0.03-0.56-0.1
			c-0.14-0.07-0.24-0.18-0.3-0.34l-1.63-4.09h-0.75v3.28c0,0.43-0.1,0.74-0.3,0.95c-0.2,0.21-0.55,0.31-1.04,0.31h-2.62
			C235.53,145.93,235.19,145.83,234.99,145.62z M240.81,137.72c0.47,0,0.84-0.12,1.11-0.37c0.27-0.25,0.41-0.62,0.41-1.12
			c0-0.51-0.14-0.89-0.41-1.14c-0.27-0.25-0.64-0.37-1.11-0.37h-1.5v3.01H240.81z"/>
		<path class="st0" d="M251.71,145.62c-0.2-0.21-0.3-0.52-0.3-0.95v-9.97h-3.17c-0.47,0-0.79-0.1-0.96-0.3
			c-0.17-0.2-0.25-0.52-0.25-0.96v-1.23c0-0.44,0.08-0.76,0.25-0.96c0.17-0.2,0.49-0.3,0.96-0.3h11.62c0.47,0,0.79,0.1,0.96,0.3
			s0.25,0.52,0.25,0.96v1.23c0,0.44-0.08,0.76-0.25,0.96c-0.17,0.2-0.49,0.3-0.96,0.3h-3.17v9.97c0,0.43-0.1,0.74-0.3,0.95
			c-0.2,0.21-0.55,0.31-1.04,0.31h-2.62C252.25,145.93,251.91,145.83,251.71,145.62z"/>
	</g>
</g>
</svg>
