<?xml version="1.0" encoding="utf-8"?>
<!-- Generator: Adobe Illustrator 23.0.0, SVG Export Plug-In . SVG Version: 6.00 Build 0)  -->
<svg version="1.1" id="Capa_1" xmlns="http://www.w3.org/2000/svg" xmlns:xlink="http://www.w3.org/1999/xlink" x="0px" y="0px"
	 viewBox="0 0 400 702" style="enable-background:new 0 0 400 702;" xml:space="preserve">
<style type="text/css">
	.st0{fill:#0085B0;}
	.st1{fill:#E0EF18;}
	.st2{fill:#CECECE;}
	.st3{fill:#FFFFFF;}
	.st4{fill:#F2F2F2;}
	.st5{fill:#EACCB0;}
	.st6{fill:#9B9B9B;}
	.st7{fill:#939393;}
	.st8{fill:#EFEFEF;}
	.st9{fill:#828282;}
	.st10{fill:#2C2A2D;}
	.st11{fill:#202021;}
	.st12{fill:#F2D4B6;}
	.st13{fill:#534D46;}
	.st14{fill:#E8D313;}
	.st15{fill:#2ACCFF;}
	.st16{fill:#4E4F4F;}
	.st17{fill:#003A94;}
	.st18{fill:#00D13C;}
	.st19{fill:#15682A;}
	.st20{fill:#D40000;}
	.st21{fill:#505050;}
	.st22{fill:#DFDFDF;}
	.st23{fill:none;}
	.st24{fill:#636363;}
	.st25{fill:#6C92D5;}
	.st26{fill:#22272F;}
	.st27{fill:#1B2538;}
	.st28{fill:#253452;}
	.st29{fill:#F9F9F9;}
	.st30{fill:#2D3543;}
	.st31{fill:#2A3D60;}
	.st32{fill:#587955;}
	.st33{fill:#CD7054;}
	.st34{fill:#F1CC4B;}
	.st35{fill:#ACACAC;}
	.st36{fill:#AAE528;}
	.st37{fill:#28CEBA;}
	.st38{fill:#DB143F;}
	.st39{fill:#53C2C9;}
	.st40{fill:#FFB412;}
	.st41{fill:#866A5E;}
	.st42{fill:#F7DDCB;}
	.st43{fill:#FFE6D4;}
	.st44{fill:#F5F5F5;}
	.st45{fill:#1A2830;}
	.st46{fill:#24353F;}
	.st47{fill:#132026;}
	.st48{fill:#F9FF03;}
	.st49{fill:#272728;}
	.st50{fill:#1E1D1E;}
	.st51{fill:#160423;}
	.st52{fill-rule:evenodd;clip-rule:evenodd;fill:#FFFFFF;}
	.st53{fill-rule:evenodd;clip-rule:evenodd;fill:#1996B8;}
	.st54{fill:#0C387D;}
	.st55{fill:#C69A81;}
	.st56{fill:#D1A385;}
	.st57{fill:#EAEAEA;}
	.st58{fill:#093E8C;}
	.st59{fill:#0B2A62;}
	.st60{fill:#D32A3B;}
	.st61{fill:#827C7D;}
	.st62{opacity:0.7;fill:#7F7F7F;}
	.st63{fill:#FDFDFD;}
	.st64{fill:#DAA449;}
	.st65{fill:#DD9225;}
	.st66{opacity:0.3;}
	.st67{fill:#425793;}
	.st68{opacity:0.8;}
	.st69{filter:url(#Adobe_OpacityMaskFilter);}
	.st70{opacity:0.15;mask:url(#SVGID_1_);}
	.st71{fill:#090B00;}
	.st72{opacity:0.1;}
	.st73{fill:#211915;}
	.st74{filter:url(#Adobe_OpacityMaskFilter_1_);}
	.st75{opacity:0.15;mask:url(#SVGID_2_);}
	.st76{fill:#AF3623;}
	.st77{filter:url(#Adobe_OpacityMaskFilter_2_);}
	.st78{opacity:0.15;mask:url(#SVGID_3_);}
	.st79{filter:url(#Adobe_OpacityMaskFilter_3_);}
	.st80{opacity:0.15;mask:url(#SVGID_4_);}
	.st81{fill:#456495;}
	.st82{filter:url(#Adobe_OpacityMaskFilter_4_);}
	.st83{opacity:0.15;mask:url(#SVGID_5_);}
	.st84{filter:url(#Adobe_OpacityMaskFilter_5_);}
	.st85{opacity:0.15;mask:url(#SVGID_6_);}
	.st86{fill:#76A9DA;}
	.st87{filter:url(#Adobe_OpacityMaskFilter_6_);}
	.st88{opacity:0.15;mask:url(#SVGID_7_);}
	.st89{filter:url(#Adobe_OpacityMaskFilter_7_);}
	.st90{opacity:0.15;mask:url(#SVGID_8_);}
	.st91{fill:#1F3642;}
	.st92{fill:#A9BDDA;}
	.st93{opacity:0.46;fill:#A6B4BC;}
	.st94{fill:#74C475;}
	.st95{fill:#221F21;}
	.st96{fill:#2D2D2D;}
	.st97{fill:#1C1B1A;}
	.st98{fill:#77181C;}
	.st99{fill:#262525;}
	.st100{fill:#11100F;}
	.st101{opacity:0.18;}
	.st102{opacity:0.38;}
	.st103{fill:#0A5B1F;}
	.st104{opacity:0.27;}
	.st105{opacity:0.48;}
	.st106{fill:#0A4654;}
	.st107{fill:#C2C6C6;}
	.st108{fill:#E5E5E5;stroke:#FFFFFF;stroke-miterlimit:10;}
	.st109{fill:#ACB4B5;}
	.st110{fill:#7F8384;}
	.st111{fill:#15772F;}
	.st112{fill:#F4F4F4;}
	.st113{fill:#53B8DB;}
	.st114{fill:#06EF42;}
	.st115{fill:#E7ED07;}
	.st116{fill:#CCCCCA;}
	.st117{fill:#EADF13;}
	.st118{fill:#C2C2C2;}
	.st119{fill:#85B681;}
	.st120{fill:#A1DC9B;}
	.st121{fill:#90C58B;}
	.st122{fill:#22241F;}
	.st123{opacity:0.5;}
	.st124{fill:#A2CADE;}
	.st125{fill:#E9E9E9;}
	.st126{fill:#D9D9D9;}
	.st127{fill:#CDCDCD;}
	.st128{opacity:0.34;fill:#F0F0F0;}
	.st129{fill:#5A5B5A;}
	.st130{fill:#FFE600;}
	.st131{fill:#DB1F59;}
	.st132{fill:#727272;}
	.st133{fill:#207235;}
	.st134{fill:#A3A3A3;}
	.st135{fill:#BCBCBC;}
	.st136{fill:#0A511C;}
	.st137{fill:#F9FF00;}
	.st138{fill:#D59F6D;}
	.st139{fill:#C0804A;}
	.st140{fill:#E6BA8A;}
	.st141{fill:#BE3ACC;}
	.st142{fill:#FFFFFF;stroke:#443F0C;stroke-width:9;stroke-miterlimit:10;}
	.st143{fill:none;stroke:#443F0C;stroke-width:9;stroke-miterlimit:10;}
	.st144{fill:#170623;}
	.st145{fill:#158231;}
	.st146{fill:#C89D76;}
	.st147{opacity:0.4;}
	.st148{fill:#ADADAD;}
	.st149{fill:#EDC3A6;}
	.st150{opacity:0.69;}
	.st151{fill:#E5D3D6;}
	.st152{opacity:0.44;}
	.st153{fill:#A5A5A5;}
	.st154{fill:#DDE5E4;}
	.st155{fill:#5C9169;}
	.st156{fill:#934215;}
	.st157{fill:#47413B;}
	.st158{fill:#601A1F;}
	.st159{fill:#044554;}
	.st160{opacity:0.7;}
	.st161{fill:#7F7F7F;}
	.st162{fill:#6B8A69;}
	.st163{opacity:0.24;fill:#848D90;}
	.st164{opacity:0.4;fill:#848D90;}
	.st165{fill:#F2D5D5;}
	.st166{fill:#485CC1;}
	.st167{fill:#C6CBE0;}
	.st168{fill:#8B909E;}
	.st169{fill:#53BC1B;}
	.st170{fill:#11565B;}
	.st171{fill:#67A06D;}
	.st172{fill:#FFEC00;}
	.st173{fill:#77A007;}
	.st174{fill:#E50731;}
	.st175{fill:#266472;}
	.st176{fill:#D4D4D4;}
	.st177{fill:#0E9932;}
	.st178{fill:#87DD24;}
	.st179{fill:#76A172;}
	.st180{fill:#62835F;}
	.st181{fill:#96D090;}
	.st182{fill:#D6D6D6;}
	.st183{fill:#606060;}
	.st184{fill:#494949;}
	.st185{fill:#29E55A;}
	.st186{fill:#2C703D;}
	.st187{fill:#DD0744;}
	.st188{fill:#EDEDED;}
	.st189{fill:#2A5936;}
	.st190{fill:#B9BBC1;}
	.st191{fill:#FFD79E;}
	.st192{fill:#FFE6C2;}
	.st193{fill:#2CBB55;}
	.st194{fill:#5C412D;}
	.st195{fill:#EC0000;}
	.st196{fill:#DD2626;}
	.st197{fill:#EA9334;}
	.st198{fill:#FCC232;}
	.st199{fill:#F9B234;}
	.st200{fill:#F7A037;}
	.st201{fill:#E0E0E0;}
</style>
<g>
	<g>
		<path class="st18" d="M9.5,209.36c0,22,13.29,27.86,29.54,13.03c0,0,156.99-143.3,353.09,26.97V55c0-22-18-40-40-40H49.5
			c-22,0-40,18-40,40V209.36z"/>
	</g>
	<g>
		<path class="st18" d="M391.66,647c0,22-18,40-40,40H49.98c-22,0-40-18-40-40v-46.27c0-22,18-40,40-40h301.68c22,0,40,18,40,40V647
			z"/>
	</g>
	<g>
		<path d="M90.35,368.59c-0.23-0.24-0.35-0.62-0.35-1.12v-14.72c0-0.5,0.12-0.88,0.35-1.12c0.23-0.24,0.64-0.36,1.21-0.36h3.09
			c0.59,0,1,0.12,1.24,0.35c0.23,0.23,0.35,0.61,0.35,1.13v14.72c0,0.5-0.12,0.88-0.35,1.12c-0.23,0.24-0.65,0.36-1.24,0.36h-3.09
			C90.98,368.95,90.58,368.83,90.35,368.59z"/>
		<path d="M98.41,368.59c-0.23-0.24-0.35-0.62-0.35-1.12v-14.74c0-0.5,0.12-0.87,0.35-1.11s0.65-0.35,1.23-0.35h2.47
			c0.36,0,0.64,0.05,0.84,0.14c0.2,0.1,0.39,0.28,0.58,0.56l4.71,6.99v-6.21c0-0.5,0.12-0.88,0.35-1.12
			c0.23-0.24,0.64-0.36,1.21-0.36h3.09c0.59,0,1,0.12,1.24,0.35c0.23,0.23,0.35,0.61,0.35,1.13v14.74c0,0.5-0.12,0.87-0.35,1.11
			c-0.23,0.23-0.65,0.35-1.24,0.35h-2.47c-0.37,0-0.65-0.05-0.85-0.14c-0.2-0.1-0.39-0.28-0.58-0.56l-4.71-6.99v6.24
			c0,0.5-0.12,0.87-0.35,1.11c-0.23,0.23-0.65,0.35-1.23,0.35h-3.09C99.04,368.95,98.64,368.83,98.41,368.59z"/>
		<path d="M116.66,368.59c-0.23-0.24-0.35-0.62-0.35-1.12v-14.72c0-0.5,0.12-0.88,0.35-1.12c0.23-0.24,0.64-0.36,1.21-0.36h10.76
			c0.55,0,0.93,0.12,1.13,0.35s0.3,0.61,0.3,1.13v1.46c0,0.52-0.1,0.9-0.3,1.13c-0.2,0.23-0.58,0.35-1.13,0.35h-6.08v2.21h3.74
			c0.55,0,0.93,0.12,1.13,0.35c0.2,0.23,0.3,0.61,0.3,1.13v1.46c0,0.52-0.1,0.9-0.3,1.13c-0.2,0.23-0.58,0.35-1.13,0.35h-3.74v5.15
			c0,0.5-0.12,0.88-0.35,1.12c-0.23,0.24-0.65,0.36-1.23,0.36h-3.09C117.29,368.95,116.89,368.83,116.66,368.59z"/>
		<path d="M131.67,366.94c-1.59-1.6-2.39-3.88-2.39-6.83c0-2.95,0.8-5.22,2.39-6.83c1.59-1.6,3.93-2.41,7.02-2.41
			s5.42,0.8,7.02,2.41c1.59,1.6,2.39,3.88,2.39,6.83c0,2.95-0.8,5.22-2.39,6.83c-1.6,1.6-3.94,2.4-7.02,2.4
			S133.27,368.54,131.67,366.94z M141.14,363.77c0.5-0.81,0.75-2.02,0.75-3.65c0-1.65-0.25-2.87-0.75-3.67
			c-0.5-0.8-1.32-1.2-2.44-1.2c-1.13,0-1.94,0.4-2.44,1.2c-0.5,0.8-0.75,2.02-0.75,3.67c0,1.63,0.25,2.85,0.75,3.65
			c0.5,0.81,1.32,1.21,2.44,1.21C139.82,364.97,140.63,364.57,141.14,363.77z"/>
		<path d="M149.76,368.59c-0.23-0.24-0.35-0.62-0.35-1.12v-14.72c0-0.5,0.12-0.88,0.35-1.12c0.23-0.24,0.64-0.36,1.21-0.36h6.21
			c2.6,0,4.49,0.52,5.68,1.55s1.78,2.59,1.78,4.67c0,1.25-0.21,2.3-0.64,3.16c-0.43,0.86-1.08,1.53-1.96,2.01l2.42,5.17
			c0.07,0.14,0.1,0.29,0.1,0.47c0,0.19-0.06,0.35-0.2,0.47c-0.13,0.12-0.3,0.18-0.51,0.18h-4.39c-0.28,0-0.5-0.04-0.66-0.12
			s-0.28-0.21-0.35-0.4l-1.92-4.84h-0.88v3.87c0,0.5-0.12,0.88-0.35,1.12c-0.23,0.24-0.65,0.36-1.23,0.36h-3.09
			C150.39,368.95,149.99,368.83,149.76,368.59z M156.63,359.25c0.55,0,0.99-0.15,1.31-0.44s0.48-0.74,0.48-1.33
			c0-0.61-0.16-1.06-0.48-1.35c-0.32-0.29-0.76-0.44-1.31-0.44h-1.77v3.56H156.63z"/>
		<path d="M166.29,368.59c-0.23-0.24-0.35-0.62-0.35-1.12v-14.74c0-0.5,0.12-0.87,0.35-1.11s0.65-0.35,1.24-0.35h2.99
			c0.38,0,0.69,0.05,0.91,0.14c0.23,0.1,0.4,0.28,0.52,0.56l3.04,7.62l3.04-7.62c0.12-0.28,0.29-0.46,0.52-0.56
			c0.22-0.09,0.53-0.14,0.91-0.14h2.99c0.59,0,1,0.12,1.24,0.35s0.35,0.6,0.35,1.11v14.74c0,0.5-0.12,0.88-0.35,1.12
			c-0.23,0.24-0.64,0.36-1.21,0.36h-2.5c-0.57,0-0.98-0.12-1.22-0.36c-0.24-0.24-0.36-0.62-0.36-1.12v-7.1l-1.53,3.54
			c-0.21,0.5-0.43,0.86-0.68,1.08c-0.24,0.22-0.64,0.33-1.2,0.33s-0.95-0.11-1.2-0.33c-0.24-0.22-0.47-0.58-0.68-1.08l-1.53-3.54
			v7.1c0,0.5-0.12,0.88-0.35,1.12c-0.23,0.24-0.65,0.36-1.24,0.36h-2.5C166.93,368.95,166.53,368.83,166.29,368.59z"/>
		<path d="M184.69,368.41c0-0.16,0.04-0.35,0.13-0.57l6.47-15.57c0.16-0.36,0.33-0.62,0.53-0.77s0.48-0.22,0.84-0.22h2.83
			c0.36,0,0.65,0.07,0.85,0.22s0.38,0.4,0.53,0.77l6.45,15.57c0.09,0.23,0.13,0.42,0.13,0.57c0,0.36-0.19,0.55-0.57,0.55H198
			c-0.54,0-0.88-0.23-1.01-0.7l-0.62-1.92h-4.6l-0.6,1.92c-0.14,0.47-0.48,0.7-1.01,0.7h-4.89
			C184.88,368.95,184.69,368.77,184.69,368.41z M195.09,362.22l-1.01-3.22l-1.01,3.22H195.09z"/>
		<path d="M205.43,367.02c-1.75-1.55-2.63-3.85-2.63-6.9c0-3.07,0.84-5.37,2.54-6.92c1.69-1.54,4.1-2.31,7.24-2.31
			c1.42,0,2.69,0.14,3.8,0.42c1.11,0.28,2.04,0.67,2.78,1.17c0.21,0.16,0.31,0.33,0.31,0.52c0,0.16-0.08,0.37-0.23,0.65l-1.3,2.24
			c-0.14,0.24-0.3,0.36-0.49,0.36c-0.12,0-0.32-0.07-0.6-0.21c-0.49-0.24-0.99-0.43-1.52-0.57c-0.53-0.14-1.15-0.21-1.86-0.21
			c-1.44,0-2.54,0.42-3.3,1.25c-0.76,0.83-1.14,2.04-1.14,3.61c0,1.56,0.42,2.76,1.25,3.6c0.83,0.84,1.97,1.26,3.41,1.26
			c1.25,0,2.39-0.26,3.43-0.78c0.28-0.14,0.48-0.21,0.6-0.21c0.19,0,0.35,0.12,0.49,0.36l1.3,2.24c0.16,0.28,0.23,0.49,0.23,0.65
			c0,0.19-0.1,0.36-0.31,0.52c-0.75,0.5-1.68,0.89-2.81,1.17c-1.13,0.28-2.4,0.42-3.82,0.42
			C209.64,369.34,207.19,368.57,205.43,367.02z"/>
		<path d="M221.39,368.59c-0.23-0.24-0.35-0.62-0.35-1.12v-14.72c0-0.5,0.12-0.88,0.35-1.12c0.23-0.24,0.64-0.36,1.21-0.36h3.09
			c0.59,0,1,0.12,1.24,0.35s0.35,0.61,0.35,1.13v14.72c0,0.5-0.12,0.88-0.35,1.12c-0.23,0.24-0.65,0.36-1.24,0.36h-3.09
			C222.02,368.95,221.62,368.83,221.39,368.59z"/>
		<path d="M230.97,366.94c-1.6-1.6-2.39-3.88-2.39-6.83c0-2.95,0.8-5.22,2.39-6.83c1.59-1.6,3.93-2.41,7.02-2.41s5.43,0.8,7.02,2.41
			c1.6,1.6,2.39,3.88,2.39,6.83c0,2.95-0.8,5.22-2.39,6.83c-1.59,1.6-3.93,2.4-7.02,2.4S232.56,368.54,230.97,366.94z
			 M240.43,363.77c0.5-0.81,0.75-2.02,0.75-3.65c0-1.65-0.25-2.87-0.75-3.67s-1.32-1.2-2.44-1.2s-1.94,0.4-2.44,1.2
			c-0.5,0.8-0.75,2.02-0.75,3.67c0,1.63,0.25,2.85,0.75,3.65c0.5,0.81,1.32,1.21,2.44,1.21S239.93,364.57,240.43,363.77z
			 M235.23,349.09c0-0.14,0.03-0.29,0.08-0.44l1.09-3.02c0.14-0.4,0.3-0.67,0.49-0.81c0.19-0.14,0.55-0.21,1.07-0.21h3.72
			c0.36,0,0.65,0.07,0.86,0.19c0.21,0.13,0.31,0.32,0.31,0.56c0,0.21-0.07,0.42-0.21,0.65l-1.66,2.81c-0.24,0.42-0.48,0.68-0.7,0.81
			c-0.23,0.12-0.63,0.18-1.22,0.18h-2.78C235.58,349.82,235.23,349.57,235.23,349.09z"/>
		<path d="M249.05,368.59c-0.23-0.24-0.35-0.62-0.35-1.12v-14.74c0-0.5,0.12-0.87,0.35-1.11s0.65-0.35,1.24-0.35h2.47
			c0.36,0,0.65,0.05,0.85,0.14c0.2,0.1,0.39,0.28,0.58,0.56l4.71,6.99v-6.21c0-0.5,0.12-0.88,0.35-1.12
			c0.23-0.24,0.64-0.36,1.21-0.36h3.09c0.59,0,1,0.12,1.24,0.35s0.35,0.61,0.35,1.13v14.74c0,0.5-0.12,0.87-0.35,1.11
			c-0.23,0.23-0.65,0.35-1.24,0.35h-2.47c-0.36,0-0.65-0.05-0.85-0.14c-0.2-0.1-0.39-0.28-0.58-0.56l-4.71-6.99v6.24
			c0,0.5-0.12,0.87-0.35,1.11c-0.23,0.23-0.65,0.35-1.24,0.35h-3.09C249.69,368.95,249.28,368.83,249.05,368.59z"/>
		<path d="M275.1,368.59c-0.23-0.24-0.35-0.62-0.35-1.12v-14.72c0-0.5,0.12-0.88,0.35-1.12c0.23-0.24,0.64-0.36,1.21-0.36h5.98
			c6.12,0,9.18,2.95,9.18,8.84c0,2.91-0.78,5.11-2.35,6.6c-1.57,1.49-3.84,2.24-6.83,2.24h-5.98
			C275.74,368.95,275.33,368.83,275.1,368.59z M282.52,364.53c0.97,0,1.67-0.32,2.09-0.96c0.42-0.64,0.64-1.79,0.64-3.46
			s-0.21-2.82-0.64-3.46c-0.43-0.64-1.12-0.96-2.09-0.96h-1.53v8.84H282.52z"/>
		<path d="M293.12,368.59c-0.23-0.24-0.35-0.62-0.35-1.12v-14.72c0-0.5,0.12-0.88,0.35-1.12c0.23-0.24,0.64-0.36,1.21-0.36h10.76
			c0.55,0,0.93,0.12,1.13,0.35s0.3,0.61,0.3,1.13v1.46c0,0.52-0.1,0.9-0.3,1.13c-0.2,0.23-0.58,0.35-1.13,0.35h-6.08v2.24h3.74
			c0.55,0,0.93,0.12,1.13,0.35c0.2,0.23,0.3,0.61,0.3,1.13v1.4c0,0.52-0.1,0.9-0.3,1.13c-0.2,0.23-0.58,0.35-1.13,0.35h-3.74v2.24
			h6.06c0.55,0,0.93,0.12,1.13,0.35c0.2,0.23,0.3,0.61,0.3,1.13v1.46c0,0.52-0.1,0.9-0.3,1.13c-0.2,0.23-0.58,0.35-1.13,0.35h-10.74
			C293.76,368.95,293.35,368.83,293.12,368.59z"/>
		<path d="M122.6,399.79c-0.23-0.24-0.35-0.62-0.35-1.12v-14.72c0-0.5,0.12-0.88,0.35-1.12c0.23-0.24,0.64-0.36,1.21-0.36h6.21
			c2.6,0,4.49,0.52,5.68,1.55s1.78,2.59,1.78,4.67s-0.59,3.63-1.78,4.65c-1.19,1.02-3.07,1.53-5.66,1.53h-1.56v3.8
			c0,0.5-0.12,0.88-0.35,1.12c-0.23,0.24-0.65,0.36-1.23,0.36h-3.09C123.24,400.15,122.83,400.03,122.6,399.79z M129.48,390.45
			c0.55,0,0.99-0.15,1.31-0.44c0.32-0.29,0.48-0.74,0.48-1.33c0-0.61-0.16-1.06-0.48-1.35c-0.32-0.29-0.76-0.44-1.31-0.44h-1.77
			v3.56H129.48z"/>
		<path d="M138.62,399.79c-0.23-0.24-0.35-0.62-0.35-1.12v-14.72c0-0.5,0.12-0.88,0.35-1.12c0.23-0.24,0.64-0.36,1.21-0.36h6.21
			c2.6,0,4.49,0.52,5.68,1.55s1.78,2.59,1.78,4.67c0,1.25-0.21,2.3-0.64,3.16c-0.43,0.86-1.08,1.53-1.96,2.01l2.42,5.17
			c0.07,0.14,0.1,0.29,0.1,0.47c0,0.19-0.06,0.35-0.2,0.47c-0.13,0.12-0.3,0.18-0.51,0.18h-4.39c-0.28,0-0.5-0.04-0.66-0.12
			s-0.28-0.21-0.35-0.4l-1.92-4.84h-0.88v3.87c0,0.5-0.12,0.88-0.35,1.12c-0.23,0.24-0.65,0.36-1.23,0.36h-3.09
			C139.25,400.15,138.85,400.03,138.62,399.79z M145.49,390.45c0.55,0,0.99-0.15,1.31-0.44s0.48-0.74,0.48-1.33
			c0-0.61-0.16-1.06-0.48-1.35c-0.32-0.29-0.76-0.44-1.31-0.44h-1.77v3.56H145.49z"/>
		<path d="M156.67,398.14c-1.6-1.6-2.39-3.88-2.39-6.83c0-2.95,0.8-5.22,2.39-6.83c1.59-1.6,3.93-2.41,7.02-2.41s5.43,0.8,7.02,2.41
			c1.6,1.6,2.39,3.88,2.39,6.83c0,2.95-0.8,5.22-2.39,6.83c-1.59,1.6-3.93,2.4-7.02,2.4S158.27,399.74,156.67,398.14z
			 M166.14,394.97c0.5-0.81,0.75-2.02,0.75-3.65c0-1.65-0.25-2.87-0.75-3.67s-1.32-1.2-2.44-1.2s-1.94,0.4-2.44,1.2
			c-0.5,0.8-0.75,2.02-0.75,3.67c0,1.63,0.25,2.85,0.75,3.65c0.5,0.81,1.32,1.21,2.44,1.21S165.63,395.77,166.14,394.97z"/>
		<path d="M174.75,399.79c-0.23-0.24-0.35-0.62-0.35-1.12v-14.72c0-0.5,0.12-0.88,0.35-1.12c0.23-0.24,0.64-0.36,1.21-0.36h5.98
			c6.12,0,9.18,2.95,9.18,8.84c0,2.91-0.78,5.11-2.35,6.6c-1.57,1.49-3.84,2.24-6.82,2.24h-5.98
			C175.39,400.15,174.99,400.03,174.75,399.79z M182.18,395.73c0.97,0,1.67-0.32,2.09-0.96c0.43-0.64,0.64-1.79,0.64-3.46
			s-0.21-2.82-0.64-3.46c-0.42-0.64-1.12-0.96-2.09-0.96h-1.54v8.84H182.18z"/>
		<path d="M196.35,399.72c-1.28-0.55-2.28-1.33-2.99-2.37s-1.07-2.26-1.07-3.68v-9.72c0-0.5,0.12-0.88,0.35-1.12
			c0.23-0.24,0.64-0.36,1.21-0.36h3.09c0.59,0,1,0.12,1.23,0.35c0.23,0.23,0.35,0.61,0.35,1.13v9.8c0,0.82,0.2,1.42,0.61,1.82
			c0.41,0.4,0.97,0.6,1.68,0.6c0.71,0,1.27-0.2,1.68-0.6c0.41-0.4,0.61-1,0.61-1.82v-9.8c0-0.5,0.12-0.88,0.35-1.12
			c0.23-0.24,0.64-0.36,1.21-0.36h3.09c0.59,0,1,0.12,1.23,0.35s0.35,0.61,0.35,1.13v9.72c0,1.42-0.36,2.65-1.07,3.68
			s-1.71,1.82-2.99,2.37s-2.77,0.82-4.47,0.82C199.12,400.54,197.63,400.27,196.35,399.72z"/>
		<path d="M213.14,398.22c-1.75-1.55-2.63-3.85-2.63-6.9c0-3.07,0.84-5.37,2.53-6.92s4.1-2.31,7.24-2.31c1.42,0,2.69,0.14,3.8,0.42
			c1.11,0.28,2.04,0.67,2.78,1.17c0.21,0.16,0.31,0.33,0.31,0.52c0,0.16-0.08,0.37-0.23,0.65l-1.3,2.24
			c-0.14,0.24-0.3,0.36-0.49,0.36c-0.12,0-0.32-0.07-0.6-0.21c-0.49-0.24-0.99-0.43-1.52-0.57c-0.53-0.14-1.15-0.21-1.86-0.21
			c-1.44,0-2.54,0.42-3.3,1.25c-0.76,0.83-1.14,2.04-1.14,3.61c0,1.56,0.42,2.76,1.25,3.6c0.83,0.84,1.97,1.26,3.41,1.26
			c1.25,0,2.39-0.26,3.43-0.78c0.28-0.14,0.48-0.21,0.6-0.21c0.19,0,0.35,0.12,0.49,0.36l1.3,2.24c0.16,0.28,0.23,0.49,0.23,0.65
			c0,0.19-0.1,0.36-0.31,0.52c-0.75,0.5-1.68,0.89-2.81,1.17c-1.13,0.28-2.4,0.42-3.82,0.42
			C217.35,400.54,214.89,399.77,213.14,398.22z"/>
		<path d="M232.58,399.79c-0.23-0.24-0.35-0.62-0.35-1.12v-11.78h-3.74c-0.55,0-0.93-0.12-1.13-0.35c-0.2-0.23-0.3-0.61-0.3-1.13
			v-1.46c0-0.52,0.1-0.9,0.3-1.13s0.58-0.35,1.13-0.35h13.73c0.55,0,0.93,0.12,1.13,0.35s0.3,0.61,0.3,1.13v1.46
			c0,0.52-0.1,0.9-0.3,1.13c-0.2,0.23-0.58,0.35-1.13,0.35h-3.74v11.78c0,0.5-0.12,0.88-0.35,1.12c-0.23,0.24-0.65,0.36-1.24,0.36
			h-3.09C233.21,400.15,232.81,400.03,232.58,399.79z"/>
		<path d="M245.12,398.14c-1.6-1.6-2.39-3.88-2.39-6.83c0-2.95,0.8-5.22,2.39-6.83c1.59-1.6,3.93-2.41,7.02-2.41s5.43,0.8,7.02,2.41
			c1.6,1.6,2.39,3.88,2.39,6.83c0,2.95-0.8,5.22-2.39,6.83c-1.59,1.6-3.93,2.4-7.02,2.4S246.72,399.74,245.12,398.14z
			 M254.59,394.97c0.5-0.81,0.75-2.02,0.75-3.65c0-1.65-0.25-2.87-0.75-3.67s-1.32-1.2-2.44-1.2s-1.94,0.4-2.44,1.2
			c-0.5,0.8-0.75,2.02-0.75,3.67c0,1.63,0.25,2.85,0.75,3.65c0.5,0.81,1.32,1.21,2.44,1.21S254.08,395.77,254.59,394.97z"/>
		<path d="M264.99,400.05c-1.35-0.33-2.44-0.79-3.28-1.38c-0.35-0.24-0.52-0.48-0.52-0.7c0-0.16,0.06-0.32,0.18-0.49l1.51-2.37
			c0.16-0.23,0.31-0.34,0.47-0.34c0.14,0,0.3,0.06,0.49,0.18c0.62,0.38,1.34,0.68,2.15,0.9c0.81,0.22,1.59,0.33,2.35,0.33
			c0.64,0,1.1-0.09,1.39-0.26c0.29-0.17,0.43-0.44,0.43-0.81c0-0.4-0.19-0.72-0.57-0.96c-0.38-0.24-1.04-0.55-1.98-0.91
			c-1.75-0.68-3.13-1.44-4.13-2.3c-1-0.86-1.51-2-1.51-3.42c0-1.8,0.63-3.16,1.88-4.07c1.26-0.91,2.95-1.37,5.08-1.37
			c1.49,0,2.76,0.13,3.81,0.39c1.05,0.26,1.96,0.67,2.74,1.22c0.35,0.24,0.52,0.48,0.52,0.7c0,0.16-0.06,0.32-0.18,0.49l-1.51,2.37
			c-0.16,0.24-0.31,0.36-0.47,0.36c-0.1,0-0.27-0.07-0.49-0.21c-0.42-0.28-0.91-0.51-1.48-0.69c-0.57-0.18-1.19-0.27-1.85-0.27
			c-0.61,0-1.07,0.09-1.38,0.26c-0.31,0.17-0.47,0.45-0.47,0.83c0,0.31,0.11,0.57,0.32,0.78s0.49,0.39,0.82,0.53s0.9,0.39,1.72,0.71
			c1.3,0.52,2.32,1.02,3.07,1.5c0.74,0.48,1.31,1.05,1.69,1.72c0.38,0.67,0.57,1.51,0.57,2.54c0,1.56-0.58,2.82-1.75,3.78
			c-1.17,0.96-2.92,1.44-5.24,1.44C267.8,400.54,266.34,400.38,264.99,400.05z"/>
		<path d="M277.7,391.56c-0.37-0.41-0.55-0.9-0.55-1.47v-0.7c0-0.59,0.18-1.08,0.55-1.47c0.36-0.39,0.83-0.58,1.4-0.58h0.88
			c0.57,0,1.04,0.2,1.4,0.58c0.36,0.39,0.55,0.88,0.55,1.47v0.7c0,0.57-0.18,1.06-0.53,1.47c-0.36,0.41-0.83,0.61-1.42,0.61h-0.88
			C278.53,392.17,278.06,391.97,277.7,391.56z M277.7,399.54c-0.37-0.41-0.55-0.9-0.55-1.47v-0.7c0-0.59,0.18-1.08,0.55-1.47
			c0.36-0.39,0.83-0.58,1.4-0.58h0.88c0.57,0,1.04,0.2,1.4,0.58c0.36,0.39,0.55,0.88,0.55,1.47v0.7c0,0.57-0.18,1.06-0.53,1.47
			c-0.36,0.41-0.83,0.61-1.42,0.61h-0.88C278.53,400.15,278.06,399.95,277.7,399.54z"/>
		<path d="M80.27,429.42c-1.75-1.55-2.63-3.85-2.63-6.9c0-3.07,0.85-5.37,2.54-6.92c1.69-1.54,4.1-2.31,7.24-2.31
			c1.42,0,2.69,0.14,3.8,0.42c1.11,0.28,2.04,0.67,2.78,1.17c0.21,0.16,0.31,0.33,0.31,0.52c0,0.16-0.08,0.37-0.23,0.65l-1.3,2.24
			c-0.14,0.24-0.3,0.36-0.49,0.36c-0.12,0-0.32-0.07-0.6-0.21c-0.49-0.24-0.99-0.43-1.52-0.57c-0.53-0.14-1.15-0.21-1.86-0.21
			c-1.44,0-2.54,0.42-3.3,1.25s-1.14,2.04-1.14,3.61c0,1.56,0.42,2.76,1.25,3.6c0.83,0.84,1.97,1.26,3.41,1.26
			c1.25,0,2.39-0.26,3.43-0.78c0.28-0.14,0.48-0.21,0.6-0.21c0.19,0,0.36,0.12,0.49,0.36l1.3,2.24c0.16,0.28,0.23,0.49,0.23,0.65
			c0,0.19-0.1,0.36-0.31,0.52c-0.75,0.5-1.68,0.89-2.81,1.17c-1.13,0.28-2.4,0.42-3.82,0.42C84.47,431.74,82.02,430.97,80.27,429.42
			z"/>
		<path d="M94.7,430.81c0-0.16,0.04-0.35,0.13-0.57l6.47-15.57c0.16-0.36,0.33-0.62,0.53-0.77s0.48-0.22,0.85-0.22h2.83
			c0.36,0,0.64,0.07,0.84,0.22s0.38,0.4,0.53,0.77l6.45,15.57c0.09,0.23,0.13,0.42,0.13,0.57c0,0.36-0.19,0.55-0.57,0.55h-4.89
			c-0.54,0-0.88-0.23-1.01-0.7l-0.62-1.92h-4.6l-0.6,1.92c-0.14,0.47-0.48,0.7-1.01,0.7h-4.89C94.89,431.35,94.7,431.17,94.7,430.81
			z M105.1,424.62l-1.01-3.22l-1.01,3.22H105.1z"/>
		<path d="M115.12,430.99c-0.23-0.24-0.35-0.62-0.35-1.12v-14.72c0-0.5,0.12-0.88,0.35-1.12c0.23-0.24,0.64-0.36,1.21-0.36h6.21
			c2.6,0,4.49,0.52,5.68,1.55c1.19,1.03,1.78,2.59,1.78,4.67c0,1.25-0.21,2.3-0.64,3.16c-0.42,0.86-1.08,1.53-1.96,2.01l2.42,5.17
			c0.07,0.14,0.1,0.29,0.1,0.47c0,0.19-0.07,0.35-0.19,0.47c-0.13,0.12-0.3,0.18-0.51,0.18h-4.39c-0.28,0-0.5-0.04-0.66-0.12
			c-0.17-0.08-0.28-0.21-0.35-0.4L121.9,426h-0.88v3.87c0,0.5-0.12,0.88-0.35,1.12c-0.23,0.24-0.65,0.36-1.24,0.36h-3.09
			C115.76,431.35,115.36,431.23,115.12,430.99z M122,421.65c0.55,0,0.99-0.15,1.31-0.44c0.32-0.29,0.48-0.74,0.48-1.33
			c0-0.61-0.16-1.06-0.48-1.35c-0.32-0.29-0.76-0.44-1.31-0.44h-1.77v3.56H122z"/>
		<path d="M129.62,430.81c0-0.16,0.04-0.35,0.13-0.57l6.47-15.57c0.16-0.36,0.33-0.62,0.53-0.77s0.48-0.22,0.84-0.22h2.83
			c0.36,0,0.65,0.07,0.84,0.22s0.38,0.4,0.53,0.77l6.45,15.57c0.09,0.23,0.13,0.42,0.13,0.57c0,0.36-0.19,0.55-0.57,0.55h-4.89
			c-0.54,0-0.88-0.23-1.01-0.7l-0.62-1.92h-4.6l-0.6,1.92c-0.14,0.47-0.48,0.7-1.01,0.7h-4.89
			C129.81,431.35,129.62,431.17,129.62,430.81z M140.02,424.62l-1.01-3.22l-1.01,3.22H140.02z"/>
		<path d="M150.37,429.42c-1.75-1.55-2.63-3.85-2.63-6.9c0-3.07,0.84-5.37,2.53-6.92c1.69-1.54,4.1-2.31,7.24-2.31
			c1.42,0,2.69,0.14,3.79,0.42c1.11,0.28,2.04,0.67,2.78,1.17c0.21,0.16,0.31,0.33,0.31,0.52c0,0.16-0.08,0.37-0.23,0.65l-1.3,2.24
			c-0.14,0.24-0.3,0.36-0.49,0.36c-0.12,0-0.32-0.07-0.6-0.21c-0.49-0.24-0.99-0.43-1.52-0.57s-1.15-0.21-1.86-0.21
			c-1.44,0-2.54,0.42-3.3,1.25c-0.76,0.83-1.14,2.04-1.14,3.61c0,1.56,0.42,2.76,1.25,3.6c0.83,0.84,1.97,1.26,3.41,1.26
			c1.25,0,2.39-0.26,3.43-0.78c0.28-0.14,0.48-0.21,0.6-0.21c0.19,0,0.36,0.12,0.49,0.36l1.3,2.24c0.16,0.28,0.23,0.49,0.23,0.65
			c0,0.19-0.1,0.36-0.31,0.52c-0.75,0.5-1.68,0.89-2.81,1.17c-1.13,0.28-2.4,0.42-3.82,0.42
			C154.57,431.74,152.12,430.97,150.37,429.42z"/>
		<path d="M169.8,430.99c-0.23-0.24-0.35-0.62-0.35-1.12v-11.78h-3.74c-0.55,0-0.93-0.12-1.13-0.35c-0.2-0.23-0.3-0.61-0.3-1.13
			v-1.46c0-0.52,0.1-0.9,0.3-1.13s0.58-0.35,1.13-0.35h13.73c0.55,0,0.93,0.12,1.13,0.35s0.3,0.61,0.3,1.13v1.46
			c0,0.52-0.1,0.9-0.3,1.13c-0.2,0.23-0.58,0.35-1.13,0.35h-3.74v11.78c0,0.5-0.12,0.88-0.35,1.12c-0.23,0.24-0.65,0.36-1.23,0.36
			h-3.09C170.44,431.35,170.04,431.23,169.8,430.99z"/>
		<path d="M182,430.99c-0.23-0.24-0.35-0.62-0.35-1.12v-14.72c0-0.5,0.12-0.88,0.35-1.12c0.23-0.24,0.64-0.36,1.21-0.36h10.76
			c0.55,0,0.93,0.12,1.13,0.35s0.3,0.61,0.3,1.13v1.46c0,0.52-0.1,0.9-0.3,1.13c-0.2,0.23-0.58,0.35-1.13,0.35h-6.08v2.24h3.74
			c0.55,0,0.93,0.12,1.13,0.35c0.2,0.23,0.3,0.61,0.3,1.13v1.4c0,0.52-0.1,0.9-0.3,1.13c-0.2,0.23-0.58,0.35-1.13,0.35h-3.74v2.24
			h6.06c0.55,0,0.93,0.12,1.13,0.35c0.2,0.23,0.3,0.61,0.3,1.13v1.46c0,0.52-0.1,0.9-0.3,1.13c-0.2,0.23-0.58,0.35-1.13,0.35h-10.74
			C182.63,431.35,182.23,431.23,182,430.99z"/>
		<path d="M196.92,430.99c-0.23-0.24-0.35-0.62-0.35-1.12v-14.72c0-0.5,0.12-0.88,0.35-1.12c0.23-0.24,0.64-0.36,1.21-0.36h6.21
			c2.6,0,4.49,0.52,5.68,1.55s1.78,2.59,1.78,4.67c0,1.25-0.21,2.3-0.64,3.16c-0.43,0.86-1.08,1.53-1.96,2.01l2.42,5.17
			c0.07,0.14,0.1,0.29,0.1,0.47c0,0.19-0.06,0.35-0.2,0.47c-0.13,0.12-0.3,0.18-0.51,0.18h-4.39c-0.28,0-0.5-0.04-0.66-0.12
			s-0.28-0.21-0.35-0.4l-1.92-4.84h-0.88v3.87c0,0.5-0.12,0.88-0.35,1.12c-0.23,0.24-0.65,0.36-1.23,0.36h-3.09
			C197.56,431.35,197.15,431.23,196.92,430.99z M203.8,421.65c0.55,0,0.99-0.15,1.31-0.44s0.48-0.74,0.48-1.33
			c0-0.61-0.16-1.06-0.48-1.35c-0.32-0.29-0.76-0.44-1.31-0.44h-1.77v3.56H203.8z"/>
		<path d="M213.46,430.99c-0.23-0.24-0.35-0.62-0.35-1.12v-14.72c0-0.5,0.12-0.88,0.35-1.12c0.23-0.24,0.64-0.36,1.21-0.36h3.09
			c0.59,0,1,0.12,1.24,0.35c0.23,0.23,0.35,0.61,0.35,1.13v14.72c0,0.5-0.12,0.88-0.35,1.12c-0.23,0.24-0.65,0.36-1.24,0.36h-3.09
			C214.09,431.35,213.69,431.23,213.46,430.99z"/>
		<path d="M224.47,431.25c-1.35-0.33-2.44-0.79-3.28-1.38c-0.35-0.24-0.52-0.48-0.52-0.7c0-0.16,0.06-0.32,0.18-0.49l1.51-2.37
			c0.16-0.23,0.31-0.34,0.47-0.34c0.14,0,0.3,0.06,0.49,0.18c0.62,0.38,1.34,0.68,2.14,0.9c0.81,0.22,1.59,0.33,2.35,0.33
			c0.64,0,1.1-0.09,1.39-0.26c0.29-0.17,0.43-0.44,0.43-0.81c0-0.4-0.19-0.72-0.57-0.96c-0.38-0.24-1.04-0.55-1.98-0.91
			c-1.75-0.68-3.13-1.44-4.13-2.3c-1-0.86-1.51-2-1.51-3.42c0-1.8,0.63-3.16,1.89-4.07s2.95-1.37,5.08-1.37
			c1.49,0,2.76,0.13,3.81,0.39c1.05,0.26,1.96,0.67,2.74,1.22c0.35,0.24,0.52,0.48,0.52,0.7c0,0.16-0.06,0.32-0.18,0.49l-1.51,2.37
			c-0.16,0.24-0.31,0.36-0.47,0.36c-0.1,0-0.27-0.07-0.49-0.21c-0.42-0.28-0.91-0.51-1.48-0.69c-0.57-0.18-1.19-0.27-1.85-0.27
			c-0.61,0-1.07,0.09-1.38,0.26c-0.31,0.17-0.47,0.45-0.47,0.83c0,0.31,0.11,0.57,0.32,0.78s0.49,0.39,0.82,0.53
			c0.33,0.15,0.9,0.39,1.71,0.71c1.3,0.52,2.32,1.02,3.07,1.5s1.31,1.05,1.69,1.72c0.38,0.67,0.57,1.51,0.57,2.54
			c0,1.56-0.58,2.82-1.75,3.78c-1.17,0.96-2.92,1.44-5.24,1.44C227.28,431.74,225.82,431.58,224.47,431.25z"/>
		<path d="M240.99,430.99c-0.23-0.24-0.35-0.62-0.35-1.12v-11.78h-3.74c-0.55,0-0.93-0.12-1.13-0.35c-0.2-0.23-0.3-0.61-0.3-1.13
			v-1.46c0-0.52,0.1-0.9,0.3-1.13s0.58-0.35,1.13-0.35h13.73c0.55,0,0.93,0.12,1.13,0.35c0.2,0.23,0.3,0.61,0.3,1.13v1.46
			c0,0.52-0.1,0.9-0.3,1.13c-0.2,0.23-0.58,0.35-1.13,0.35h-3.74v11.78c0,0.5-0.12,0.88-0.35,1.12c-0.23,0.24-0.65,0.36-1.24,0.36
			h-3.09C241.63,431.35,241.22,431.23,240.99,430.99z"/>
		<path d="M253.18,430.99c-0.23-0.24-0.35-0.62-0.35-1.12v-14.72c0-0.5,0.12-0.88,0.35-1.12c0.23-0.24,0.64-0.36,1.21-0.36h3.09
			c0.59,0,1,0.12,1.23,0.35s0.35,0.61,0.35,1.13v14.72c0,0.5-0.12,0.88-0.35,1.12c-0.23,0.24-0.65,0.36-1.23,0.36h-3.09
			C253.82,431.35,253.42,431.23,253.18,430.99z"/>
		<path d="M263,429.42c-1.75-1.55-2.63-3.85-2.63-6.9c0-3.07,0.85-5.37,2.54-6.92c1.69-1.54,4.1-2.31,7.24-2.31
			c1.42,0,2.69,0.14,3.8,0.42c1.11,0.28,2.04,0.67,2.78,1.17c0.21,0.16,0.31,0.33,0.31,0.52c0,0.16-0.08,0.37-0.23,0.65l-1.3,2.24
			c-0.14,0.24-0.3,0.36-0.49,0.36c-0.12,0-0.32-0.07-0.6-0.21c-0.49-0.24-0.99-0.43-1.52-0.57c-0.53-0.14-1.15-0.21-1.86-0.21
			c-1.44,0-2.54,0.42-3.3,1.25s-1.14,2.04-1.14,3.61c0,1.56,0.42,2.76,1.25,3.6c0.83,0.84,1.97,1.26,3.41,1.26
			c1.25,0,2.39-0.26,3.43-0.78c0.28-0.14,0.48-0.21,0.6-0.21c0.19,0,0.36,0.12,0.49,0.36l1.3,2.24c0.16,0.28,0.23,0.49,0.23,0.65
			c0,0.19-0.1,0.36-0.31,0.52c-0.75,0.5-1.68,0.89-2.81,1.17c-1.13,0.28-2.4,0.42-3.82,0.42C267.2,431.74,264.75,430.97,263,429.42z
			"/>
		<path d="M277.43,430.81c0-0.16,0.04-0.35,0.13-0.57l6.47-15.57c0.16-0.36,0.33-0.62,0.53-0.77s0.48-0.22,0.85-0.22h2.83
			c0.36,0,0.65,0.07,0.84,0.22s0.38,0.4,0.53,0.77l6.45,15.57c0.09,0.23,0.13,0.42,0.13,0.57c0,0.36-0.19,0.55-0.57,0.55h-4.89
			c-0.54,0-0.88-0.23-1.01-0.7l-0.63-1.92h-4.6l-0.6,1.92c-0.14,0.47-0.48,0.7-1.01,0.7H278
			C277.62,431.35,277.43,431.17,277.43,430.81z M287.83,424.62l-1.01-3.22l-1.01,3.22H287.83z"/>
		<path d="M299.63,431.25c-1.35-0.33-2.44-0.79-3.28-1.38c-0.35-0.24-0.52-0.48-0.52-0.7c0-0.16,0.06-0.32,0.18-0.49l1.51-2.37
			c0.16-0.23,0.31-0.34,0.47-0.34c0.14,0,0.3,0.06,0.49,0.18c0.62,0.38,1.34,0.68,2.14,0.9c0.81,0.22,1.59,0.33,2.35,0.33
			c0.64,0,1.1-0.09,1.39-0.26c0.29-0.17,0.43-0.44,0.43-0.81c0-0.4-0.19-0.72-0.57-0.96c-0.38-0.24-1.04-0.55-1.98-0.91
			c-1.75-0.68-3.13-1.44-4.13-2.3c-1-0.86-1.51-2-1.51-3.42c0-1.8,0.63-3.16,1.89-4.07s2.95-1.37,5.08-1.37
			c1.49,0,2.76,0.13,3.81,0.39c1.05,0.26,1.96,0.67,2.74,1.22c0.35,0.24,0.52,0.48,0.52,0.7c0,0.16-0.06,0.32-0.18,0.49l-1.51,2.37
			c-0.16,0.24-0.31,0.36-0.47,0.36c-0.1,0-0.27-0.07-0.49-0.21c-0.42-0.28-0.91-0.51-1.48-0.69c-0.57-0.18-1.19-0.27-1.85-0.27
			c-0.61,0-1.07,0.09-1.38,0.26c-0.31,0.17-0.47,0.45-0.47,0.83c0,0.31,0.11,0.57,0.32,0.78s0.49,0.39,0.82,0.53
			c0.33,0.15,0.9,0.39,1.71,0.71c1.3,0.52,2.32,1.02,3.07,1.5s1.31,1.05,1.69,1.72c0.38,0.67,0.57,1.51,0.57,2.54
			c0,1.56-0.58,2.82-1.75,3.78c-1.17,0.96-2.92,1.44-5.24,1.44C302.45,431.74,300.98,431.58,299.63,431.25z"/>
		<path d="M311.83,433.85c0-0.07,0.02-0.19,0.05-0.36l1.28-4.55c0.12-0.45,0.28-0.75,0.48-0.88s0.53-0.21,1-0.21h2.44
			c0.4,0,0.68,0.05,0.86,0.16c0.17,0.1,0.26,0.27,0.26,0.49c0,0.24-0.07,0.53-0.21,0.86l-1.87,4.42c-0.1,0.22-0.24,0.39-0.4,0.51
			c-0.17,0.11-0.4,0.17-0.71,0.17h-2.39C312.09,434.45,311.83,434.25,311.83,433.85z"/>
		<path d="M66.1,462.19c-0.23-0.24-0.35-0.62-0.35-1.12v-14.72c0-0.5,0.12-0.88,0.35-1.12c0.23-0.24,0.64-0.36,1.21-0.36h6.21
			c2.6,0,4.49,0.52,5.68,1.55s1.78,2.59,1.78,4.67c0,1.25-0.21,2.3-0.64,3.16c-0.43,0.86-1.08,1.53-1.96,2.01l2.42,5.17
			c0.07,0.14,0.1,0.29,0.1,0.47c0,0.19-0.06,0.35-0.2,0.47c-0.13,0.12-0.3,0.18-0.51,0.18h-4.39c-0.28,0-0.5-0.04-0.66-0.12
			s-0.28-0.21-0.35-0.4l-1.92-4.84h-0.88v3.87c0,0.5-0.12,0.88-0.35,1.12c-0.23,0.24-0.65,0.36-1.23,0.36h-3.09
			C66.74,462.55,66.34,462.43,66.1,462.19z M72.98,452.85c0.55,0,0.99-0.15,1.31-0.44s0.48-0.74,0.48-1.33
			c0-0.61-0.16-1.06-0.48-1.35c-0.32-0.29-0.76-0.44-1.31-0.44h-1.77v3.56H72.98z"/>
		<path d="M82.64,462.19c-0.23-0.24-0.35-0.62-0.35-1.12v-14.72c0-0.5,0.12-0.88,0.35-1.12c0.23-0.24,0.64-0.36,1.21-0.36h10.76
			c0.55,0,0.93,0.12,1.13,0.35c0.2,0.23,0.3,0.61,0.3,1.13v1.46c0,0.52-0.1,0.9-0.3,1.13c-0.2,0.23-0.58,0.35-1.13,0.35h-6.08v2.24
			h3.74c0.55,0,0.93,0.12,1.13,0.35c0.2,0.23,0.3,0.61,0.3,1.13v1.4c0,0.52-0.1,0.9-0.3,1.13c-0.2,0.23-0.58,0.35-1.13,0.35h-3.74
			v2.24h6.06c0.55,0,0.93,0.12,1.13,0.35c0.2,0.23,0.3,0.61,0.3,1.13v1.46c0,0.52-0.1,0.9-0.3,1.13c-0.2,0.23-0.58,0.35-1.13,0.35
			H83.85C83.27,462.55,82.87,462.43,82.64,462.19z"/>
		<path d="M104.81,466c-1.1-0.84-1.78-1.93-2.04-3.26c-2.3-0.38-4.05-1.35-5.22-2.9c-1.18-1.55-1.77-3.59-1.77-6.12
			c0-2.95,0.8-5.22,2.39-6.83c1.59-1.6,3.93-2.41,7.02-2.41c3.09,0,5.43,0.8,7.02,2.41c1.59,1.6,2.39,3.88,2.39,6.83
			c0,2.58-0.63,4.63-1.88,6.14c-1.26,1.51-3.13,2.44-5.63,2.81c0.14,0.28,0.39,0.49,0.75,0.62c0.36,0.14,0.75,0.21,1.14,0.21
			c0.8,0,1.46-0.18,2-0.55c0.16-0.1,0.28-0.16,0.36-0.16c0.14,0,0.24,0.08,0.31,0.23l1.4,2.21c0.09,0.14,0.13,0.24,0.13,0.31
			c0,0.07-0.03,0.14-0.09,0.21c-0.06,0.07-0.13,0.15-0.22,0.23c-0.5,0.42-1.06,0.73-1.68,0.95s-1.36,0.33-2.22,0.33
			C107.31,467.26,105.92,466.84,104.81,466z M107.64,457.37c0.5-0.81,0.75-2.02,0.75-3.65c0-1.65-0.25-2.87-0.75-3.67
			c-0.5-0.8-1.32-1.2-2.45-1.2c-1.13,0-1.94,0.4-2.44,1.2c-0.5,0.8-0.75,2.02-0.75,3.67c0,1.63,0.25,2.85,0.75,3.65
			c0.5,0.81,1.32,1.21,2.44,1.21C106.32,458.57,107.13,458.17,107.64,457.37z"/>
		<path d="M119.83,462.12c-1.28-0.55-2.28-1.33-2.99-2.37s-1.07-2.26-1.07-3.68v-9.72c0-0.5,0.12-0.88,0.35-1.12
			c0.23-0.24,0.64-0.36,1.21-0.36h3.09c0.59,0,1,0.12,1.24,0.35s0.35,0.61,0.35,1.13v9.8c0,0.82,0.2,1.42,0.61,1.82
			c0.41,0.4,0.97,0.6,1.68,0.6c0.71,0,1.27-0.2,1.68-0.6c0.41-0.4,0.61-1,0.61-1.82v-9.8c0-0.5,0.12-0.88,0.35-1.12
			c0.23-0.24,0.64-0.36,1.21-0.36h3.09c0.59,0,1,0.12,1.23,0.35c0.23,0.23,0.35,0.61,0.35,1.13v9.72c0,1.42-0.36,2.65-1.07,3.68
			s-1.71,1.82-2.99,2.37c-1.28,0.55-2.77,0.82-4.47,0.82C122.6,462.94,121.11,462.67,119.83,462.12z"/>
		<path d="M134.87,462.19c-0.23-0.24-0.35-0.62-0.35-1.12v-14.72c0-0.5,0.12-0.88,0.35-1.12c0.23-0.24,0.64-0.36,1.21-0.36h3.09
			c0.59,0,1,0.12,1.23,0.35c0.23,0.23,0.35,0.61,0.35,1.13v14.72c0,0.5-0.12,0.88-0.35,1.12c-0.23,0.24-0.65,0.36-1.23,0.36h-3.09
			C135.51,462.55,135.11,462.43,134.87,462.19z"/>
		<path d="M145.88,462.45c-1.35-0.33-2.44-0.79-3.28-1.38c-0.35-0.24-0.52-0.48-0.52-0.7c0-0.16,0.06-0.32,0.18-0.49l1.51-2.37
			c0.16-0.23,0.31-0.34,0.47-0.34c0.14,0,0.3,0.06,0.49,0.18c0.62,0.38,1.34,0.68,2.15,0.9c0.81,0.22,1.59,0.33,2.35,0.33
			c0.64,0,1.1-0.09,1.39-0.26c0.29-0.17,0.43-0.44,0.43-0.81c0-0.4-0.19-0.72-0.57-0.96c-0.38-0.24-1.04-0.55-1.98-0.91
			c-1.75-0.68-3.13-1.44-4.13-2.3c-1-0.86-1.51-2-1.51-3.42c0-1.8,0.63-3.16,1.88-4.07c1.26-0.91,2.95-1.37,5.08-1.37
			c1.49,0,2.76,0.13,3.81,0.39c1.05,0.26,1.96,0.67,2.74,1.22c0.35,0.24,0.52,0.48,0.52,0.7c0,0.16-0.06,0.32-0.18,0.49l-1.51,2.37
			c-0.16,0.24-0.31,0.36-0.47,0.36c-0.1,0-0.27-0.07-0.49-0.21c-0.42-0.28-0.91-0.51-1.48-0.69c-0.57-0.18-1.19-0.27-1.85-0.27
			c-0.61,0-1.07,0.09-1.38,0.26c-0.31,0.17-0.47,0.45-0.47,0.83c0,0.31,0.11,0.57,0.32,0.78s0.49,0.39,0.82,0.53s0.9,0.39,1.72,0.71
			c1.3,0.52,2.32,1.02,3.07,1.5c0.74,0.48,1.31,1.05,1.69,1.72c0.38,0.67,0.57,1.51,0.57,2.54c0,1.56-0.58,2.82-1.75,3.78
			c-1.17,0.96-2.92,1.44-5.24,1.44C148.7,462.94,147.23,462.78,145.88,462.45z"/>
		<path d="M158.92,462.19c-0.23-0.24-0.35-0.62-0.35-1.12v-14.72c0-0.5,0.12-0.88,0.35-1.12c0.23-0.24,0.64-0.36,1.21-0.36h3.09
			c0.59,0,1,0.12,1.24,0.35c0.23,0.23,0.35,0.61,0.35,1.13v14.72c0,0.5-0.12,0.88-0.35,1.12c-0.23,0.24-0.65,0.36-1.24,0.36h-3.09
			C159.56,462.55,159.15,462.43,158.92,462.19z"/>
		<path d="M171.11,462.19c-0.23-0.24-0.35-0.62-0.35-1.12v-11.78h-3.74c-0.55,0-0.93-0.12-1.13-0.35c-0.2-0.23-0.3-0.61-0.3-1.13
			v-1.46c0-0.52,0.1-0.9,0.3-1.13s0.58-0.35,1.13-0.35h13.73c0.55,0,0.93,0.12,1.13,0.35c0.2,0.23,0.3,0.61,0.3,1.13v1.46
			c0,0.52-0.1,0.9-0.3,1.13c-0.2,0.23-0.58,0.35-1.13,0.35H177v11.78c0,0.5-0.12,0.88-0.35,1.12c-0.23,0.24-0.65,0.36-1.23,0.36
			h-3.09C171.75,462.55,171.35,462.43,171.11,462.19z"/>
		<path d="M183.66,460.54c-1.59-1.6-2.39-3.88-2.39-6.83c0-2.95,0.8-5.22,2.39-6.83c1.59-1.6,3.93-2.41,7.02-2.41
			s5.42,0.8,7.02,2.41c1.59,1.6,2.39,3.88,2.39,6.83c0,2.95-0.8,5.22-2.39,6.83c-1.6,1.6-3.94,2.4-7.02,2.4
			S185.25,462.14,183.66,460.54z M193.12,457.37c0.5-0.81,0.75-2.02,0.75-3.65c0-1.65-0.25-2.87-0.75-3.67
			c-0.5-0.8-1.32-1.2-2.44-1.2c-1.13,0-1.94,0.4-2.44,1.2c-0.5,0.8-0.75,2.02-0.75,3.67c0,1.63,0.25,2.85,0.75,3.65
			c0.5,0.81,1.32,1.21,2.44,1.21C191.81,458.57,192.62,458.17,193.12,457.37z"/>
		<path d="M203.52,462.45c-1.35-0.33-2.44-0.79-3.28-1.38c-0.35-0.24-0.52-0.48-0.52-0.7c0-0.16,0.06-0.32,0.18-0.49l1.51-2.37
			c0.16-0.23,0.31-0.34,0.47-0.34c0.14,0,0.3,0.06,0.49,0.18c0.62,0.38,1.34,0.68,2.14,0.9c0.81,0.22,1.59,0.33,2.35,0.33
			c0.64,0,1.11-0.09,1.39-0.26c0.29-0.17,0.43-0.44,0.43-0.81c0-0.4-0.19-0.72-0.57-0.96c-0.38-0.24-1.04-0.55-1.98-0.91
			c-1.75-0.68-3.13-1.44-4.13-2.3c-1.01-0.86-1.51-2-1.51-3.42c0-1.8,0.63-3.16,1.89-4.07c1.26-0.91,2.95-1.37,5.08-1.37
			c1.49,0,2.76,0.13,3.81,0.39c1.05,0.26,1.96,0.67,2.74,1.22c0.35,0.24,0.52,0.48,0.52,0.7c0,0.16-0.06,0.32-0.18,0.49l-1.51,2.37
			c-0.16,0.24-0.31,0.36-0.47,0.36c-0.1,0-0.27-0.07-0.49-0.21c-0.42-0.28-0.91-0.51-1.48-0.69c-0.57-0.18-1.19-0.27-1.85-0.27
			c-0.61,0-1.07,0.09-1.38,0.26c-0.31,0.17-0.47,0.45-0.47,0.83c0,0.31,0.11,0.57,0.33,0.78s0.49,0.39,0.82,0.53
			c0.33,0.15,0.9,0.39,1.72,0.71c1.3,0.52,2.32,1.02,3.07,1.5c0.75,0.48,1.31,1.05,1.69,1.72c0.38,0.67,0.57,1.51,0.57,2.54
			c0,1.56-0.58,2.82-1.75,3.78s-2.92,1.44-5.24,1.44C206.34,462.94,204.88,462.78,203.52,462.45z"/>
		<path d="M215.72,465.05c0-0.07,0.02-0.19,0.05-0.36l1.27-4.55c0.12-0.45,0.28-0.75,0.48-0.88s0.53-0.21,1-0.21h2.44
			c0.4,0,0.68,0.05,0.86,0.16c0.17,0.1,0.26,0.27,0.26,0.49c0,0.24-0.07,0.53-0.21,0.86l-1.87,4.42c-0.1,0.22-0.24,0.39-0.4,0.51
			c-0.16,0.11-0.4,0.17-0.71,0.17h-2.39C215.98,465.65,215.72,465.45,215.72,465.05z"/>
		<path d="M234.51,462.45c-1.35-0.33-2.44-0.79-3.28-1.38c-0.35-0.24-0.52-0.48-0.52-0.7c0-0.16,0.06-0.32,0.18-0.49l1.51-2.37
			c0.16-0.23,0.31-0.34,0.47-0.34c0.14,0,0.3,0.06,0.49,0.18c0.62,0.38,1.34,0.68,2.15,0.9c0.81,0.22,1.59,0.33,2.35,0.33
			c0.64,0,1.1-0.09,1.39-0.26c0.29-0.17,0.43-0.44,0.43-0.81c0-0.4-0.19-0.72-0.57-0.96c-0.38-0.24-1.04-0.55-1.98-0.91
			c-1.75-0.68-3.13-1.44-4.13-2.3c-1-0.86-1.51-2-1.51-3.42c0-1.8,0.63-3.16,1.88-4.07c1.26-0.91,2.95-1.37,5.08-1.37
			c1.49,0,2.76,0.13,3.81,0.39c1.05,0.26,1.96,0.67,2.74,1.22c0.35,0.24,0.52,0.48,0.52,0.7c0,0.16-0.06,0.32-0.18,0.49l-1.51,2.37
			c-0.16,0.24-0.31,0.36-0.47,0.36c-0.1,0-0.27-0.07-0.49-0.21c-0.42-0.28-0.91-0.51-1.48-0.69c-0.57-0.18-1.19-0.27-1.85-0.27
			c-0.61,0-1.07,0.09-1.38,0.26c-0.31,0.17-0.47,0.45-0.47,0.83c0,0.31,0.11,0.57,0.32,0.78s0.49,0.39,0.82,0.53s0.9,0.39,1.72,0.71
			c1.3,0.52,2.32,1.02,3.07,1.5c0.74,0.48,1.31,1.05,1.69,1.72c0.38,0.67,0.57,1.51,0.57,2.54c0,1.56-0.58,2.82-1.75,3.78
			c-1.17,0.96-2.92,1.44-5.24,1.44C237.33,462.94,235.87,462.78,234.51,462.45z"/>
		<path d="M245.51,462.01c0-0.16,0.04-0.35,0.13-0.57l6.47-15.57c0.16-0.36,0.33-0.62,0.53-0.77s0.48-0.22,0.85-0.22h2.83
			c0.36,0,0.65,0.07,0.84,0.22s0.38,0.4,0.53,0.77l6.45,15.57c0.09,0.23,0.13,0.42,0.13,0.57c0,0.36-0.19,0.55-0.57,0.55h-4.89
			c-0.54,0-0.88-0.23-1.01-0.7l-0.63-1.92h-4.6l-0.6,1.92c-0.14,0.47-0.48,0.7-1.01,0.7h-4.89
			C245.7,462.55,245.51,462.37,245.51,462.01z M255.91,455.82l-1.01-3.22l-1.01,3.22H255.91z"/>
		<path d="M265.94,462.19c-0.23-0.24-0.35-0.62-0.35-1.12v-14.72c0-0.5,0.12-0.88,0.35-1.12c0.23-0.24,0.64-0.36,1.21-0.36h3.09
			c0.59,0,1,0.12,1.23,0.35s0.35,0.61,0.35,1.13v11.78h6.06c0.55,0,0.93,0.12,1.13,0.35c0.2,0.23,0.3,0.61,0.3,1.13v1.46
			c0,0.52-0.1,0.9-0.3,1.13c-0.2,0.23-0.58,0.35-1.13,0.35h-10.74C266.57,462.55,266.17,462.43,265.94,462.19z"/>
		<path d="M280.44,462.19c-0.23-0.24-0.35-0.62-0.35-1.12v-14.72c0-0.5,0.12-0.88,0.35-1.12c0.23-0.24,0.64-0.36,1.21-0.36h5.98
			c6.12,0,9.18,2.95,9.18,8.84c0,2.91-0.79,5.11-2.35,6.6c-1.57,1.49-3.84,2.24-6.82,2.24h-5.98
			C281.08,462.55,280.68,462.43,280.44,462.19z M287.87,458.13c0.97,0,1.67-0.32,2.09-0.96s0.64-1.79,0.64-3.46
			s-0.21-2.82-0.64-3.46s-1.12-0.96-2.09-0.96h-1.53v8.84H287.87z"/>
		<path d="M299.98,460.54c-1.6-1.6-2.39-3.88-2.39-6.83c0-2.95,0.8-5.22,2.39-6.83c1.59-1.6,3.93-2.41,7.02-2.41
			c3.08,0,5.42,0.8,7.02,2.41c1.59,1.6,2.39,3.88,2.39,6.83c0,2.95-0.8,5.22-2.39,6.83s-3.93,2.4-7.02,2.4
			C303.92,462.94,301.58,462.14,299.98,460.54z M309.45,457.37c0.5-0.81,0.75-2.02,0.75-3.65c0-1.65-0.25-2.87-0.75-3.67
			c-0.5-0.8-1.32-1.2-2.44-1.2s-1.94,0.4-2.44,1.2s-0.75,2.02-0.75,3.67c0,1.63,0.25,2.85,0.75,3.65c0.5,0.81,1.32,1.21,2.44,1.21
			S308.94,458.17,309.45,457.37z"/>
		<path d="M319.85,462.45c-1.35-0.33-2.44-0.79-3.28-1.38c-0.35-0.24-0.52-0.48-0.52-0.7c0-0.16,0.06-0.32,0.18-0.49l1.51-2.37
			c0.16-0.23,0.31-0.34,0.47-0.34c0.14,0,0.3,0.06,0.49,0.18c0.63,0.38,1.34,0.68,2.15,0.9s1.59,0.33,2.35,0.33
			c0.64,0,1.11-0.09,1.39-0.26c0.29-0.17,0.43-0.44,0.43-0.81c0-0.4-0.19-0.72-0.57-0.96c-0.38-0.24-1.04-0.55-1.98-0.91
			c-1.75-0.68-3.13-1.44-4.13-2.3c-1.01-0.86-1.51-2-1.51-3.42c0-1.8,0.63-3.16,1.88-4.07c1.26-0.91,2.95-1.37,5.08-1.37
			c1.49,0,2.76,0.13,3.81,0.39c1.05,0.26,1.96,0.67,2.74,1.22c0.35,0.24,0.52,0.48,0.52,0.7c0,0.16-0.06,0.32-0.18,0.49l-1.51,2.37
			c-0.16,0.24-0.31,0.36-0.47,0.36c-0.1,0-0.27-0.07-0.49-0.21c-0.42-0.28-0.91-0.51-1.48-0.69c-0.57-0.18-1.19-0.27-1.85-0.27
			c-0.61,0-1.07,0.09-1.38,0.26c-0.31,0.17-0.47,0.45-0.47,0.83c0,0.31,0.11,0.57,0.33,0.78s0.49,0.39,0.82,0.53
			c0.33,0.15,0.9,0.39,1.72,0.71c1.3,0.52,2.32,1.02,3.07,1.5s1.31,1.05,1.69,1.72c0.38,0.67,0.57,1.51,0.57,2.54
			c0,1.56-0.59,2.82-1.76,3.78s-2.92,1.44-5.24,1.44C322.66,462.94,321.2,462.78,319.85,462.45z"/>
		<path d="M332.04,465.05c0-0.07,0.02-0.19,0.05-0.36l1.27-4.55c0.12-0.45,0.28-0.75,0.48-0.88c0.2-0.14,0.53-0.21,1-0.21h2.44
			c0.4,0,0.69,0.05,0.86,0.16c0.17,0.1,0.26,0.27,0.26,0.49c0,0.24-0.07,0.53-0.21,0.86l-1.87,4.42c-0.1,0.22-0.24,0.39-0.4,0.51
			s-0.4,0.17-0.72,0.17h-2.39C332.3,465.65,332.04,465.45,332.04,465.05z"/>
		<path d="M33.52,491.82c-1.75-1.55-2.63-3.85-2.63-6.9c0-3.07,0.84-5.37,2.53-6.92c1.69-1.54,4.1-2.31,7.24-2.31
			c1.42,0,2.69,0.14,3.79,0.42c1.11,0.28,2.04,0.67,2.78,1.17c0.21,0.16,0.31,0.33,0.31,0.52c0,0.16-0.08,0.37-0.23,0.65l-1.3,2.24
			c-0.14,0.24-0.3,0.36-0.49,0.36c-0.12,0-0.32-0.07-0.6-0.21c-0.49-0.24-0.99-0.43-1.52-0.57s-1.15-0.21-1.86-0.21
			c-1.44,0-2.54,0.42-3.3,1.25c-0.76,0.83-1.14,2.04-1.14,3.61c0,1.56,0.42,2.76,1.25,3.6c0.83,0.84,1.97,1.26,3.41,1.26
			c1.25,0,2.39-0.26,3.43-0.78c0.28-0.14,0.48-0.21,0.6-0.21c0.19,0,0.36,0.12,0.49,0.36l1.3,2.24c0.16,0.28,0.23,0.49,0.23,0.65
			c0,0.19-0.1,0.36-0.31,0.52c-0.75,0.5-1.68,0.89-2.81,1.17c-1.13,0.28-2.4,0.42-3.82,0.42C37.73,494.14,35.27,493.37,33.52,491.82
			z"/>
		<path d="M47.95,493.21c0-0.16,0.04-0.35,0.13-0.57l6.47-15.57c0.16-0.36,0.33-0.62,0.53-0.77s0.48-0.22,0.85-0.22h2.83
			c0.36,0,0.65,0.07,0.84,0.22s0.38,0.4,0.53,0.77l6.45,15.57c0.09,0.23,0.13,0.42,0.13,0.57c0,0.36-0.19,0.55-0.57,0.55h-4.89
			c-0.54,0-0.88-0.23-1.01-0.7l-0.63-1.92h-4.6l-0.6,1.92c-0.14,0.47-0.48,0.7-1.01,0.7h-4.89
			C48.14,493.75,47.95,493.57,47.95,493.21z M58.35,487.02l-1.01-3.22l-1.01,3.22H58.35z"/>
		<path d="M68.38,493.39c-0.23-0.24-0.35-0.62-0.35-1.12v-14.72c0-0.5,0.12-0.88,0.35-1.12c0.23-0.24,0.64-0.36,1.21-0.36h6.21
			c2.6,0,4.49,0.52,5.68,1.55s1.78,2.59,1.78,4.67c0,1.25-0.21,2.3-0.64,3.16c-0.42,0.86-1.08,1.53-1.96,2.01l2.42,5.17
			c0.07,0.14,0.1,0.29,0.1,0.47c0,0.19-0.07,0.35-0.2,0.47s-0.3,0.18-0.51,0.18h-4.39c-0.28,0-0.5-0.04-0.66-0.12
			c-0.16-0.08-0.28-0.21-0.35-0.4l-1.92-4.84h-0.88v3.87c0,0.5-0.12,0.88-0.35,1.12c-0.23,0.24-0.65,0.36-1.23,0.36h-3.09
			C69.01,493.75,68.61,493.63,68.38,493.39z M75.25,484.05c0.55,0,0.99-0.15,1.31-0.44c0.32-0.29,0.48-0.74,0.48-1.33
			c0-0.61-0.16-1.06-0.48-1.35c-0.32-0.29-0.76-0.44-1.31-0.44h-1.77v3.56H75.25z"/>
		<path d="M88.14,493.39c-0.23-0.24-0.35-0.62-0.35-1.12v-11.78h-3.74c-0.55,0-0.93-0.12-1.13-0.35c-0.2-0.23-0.3-0.61-0.3-1.13
			v-1.46c0-0.52,0.1-0.9,0.3-1.13s0.58-0.35,1.13-0.35h13.73c0.55,0,0.93,0.12,1.13,0.35s0.3,0.61,0.3,1.13v1.46
			c0,0.52-0.1,0.9-0.3,1.13c-0.2,0.23-0.58,0.35-1.13,0.35h-3.74v11.78c0,0.5-0.12,0.88-0.35,1.12c-0.23,0.24-0.65,0.36-1.23,0.36
			h-3.09C88.77,493.75,88.37,493.63,88.14,493.39z"/>
		<path d="M100.33,493.39c-0.23-0.24-0.35-0.62-0.35-1.12v-14.72c0-0.5,0.12-0.88,0.35-1.12c0.23-0.24,0.64-0.36,1.21-0.36h10.76
			c0.55,0,0.93,0.12,1.13,0.35c0.2,0.23,0.3,0.61,0.3,1.13v1.46c0,0.52-0.1,0.9-0.3,1.13c-0.2,0.23-0.58,0.35-1.13,0.35h-6.08v2.24
			h3.74c0.55,0,0.93,0.12,1.13,0.35c0.2,0.23,0.3,0.61,0.3,1.13v1.4c0,0.52-0.1,0.9-0.3,1.13c-0.2,0.23-0.58,0.35-1.13,0.35h-3.74
			v2.24h6.06c0.55,0,0.93,0.12,1.13,0.35c0.2,0.23,0.3,0.61,0.3,1.13v1.46c0,0.52-0.1,0.9-0.3,1.13c-0.2,0.23-0.58,0.35-1.13,0.35
			h-10.74C100.97,493.75,100.56,493.63,100.33,493.39z"/>
		<path d="M115.25,493.39c-0.23-0.24-0.35-0.62-0.35-1.12v-14.72c0-0.5,0.12-0.88,0.35-1.12c0.23-0.24,0.64-0.36,1.21-0.36h6.21
			c2.6,0,4.49,0.52,5.68,1.55s1.78,2.59,1.78,4.67c0,1.25-0.21,2.3-0.64,3.16c-0.43,0.86-1.08,1.53-1.96,2.01l2.42,5.17
			c0.07,0.14,0.1,0.29,0.1,0.47c0,0.19-0.06,0.35-0.2,0.47c-0.13,0.12-0.3,0.18-0.51,0.18h-4.39c-0.28,0-0.5-0.04-0.66-0.12
			s-0.28-0.21-0.35-0.4l-1.92-4.84h-0.88v3.87c0,0.5-0.12,0.88-0.35,1.12c-0.23,0.24-0.65,0.36-1.23,0.36h-3.09
			C115.89,493.75,115.49,493.63,115.25,493.39z M122.13,484.05c0.55,0,0.99-0.15,1.31-0.44s0.48-0.74,0.48-1.33
			c0-0.61-0.16-1.06-0.48-1.35c-0.32-0.29-0.76-0.44-1.31-0.44h-1.77v3.56H122.13z"/>
		<path d="M129.75,493.21c0-0.16,0.04-0.35,0.13-0.57l6.47-15.57c0.16-0.36,0.33-0.62,0.53-0.77s0.48-0.22,0.85-0.22h2.83
			c0.36,0,0.65,0.07,0.84,0.22s0.38,0.4,0.53,0.77l6.45,15.57c0.09,0.23,0.13,0.42,0.13,0.57c0,0.36-0.19,0.55-0.57,0.55h-4.89
			c-0.54,0-0.88-0.23-1.01-0.7l-0.63-1.92h-4.6l-0.6,1.92c-0.14,0.47-0.48,0.7-1.01,0.7h-4.89
			C129.94,493.75,129.75,493.57,129.75,493.21z M140.15,487.02l-1.01-3.22l-1.01,3.22H140.15z"/>
		<path d="M148.16,496.25c0-0.07,0.02-0.19,0.05-0.36l1.27-4.55c0.12-0.45,0.28-0.75,0.48-0.88c0.2-0.14,0.53-0.21,1-0.21h2.44
			c0.4,0,0.69,0.05,0.86,0.16c0.17,0.1,0.26,0.27,0.26,0.49c0,0.24-0.07,0.53-0.21,0.86l-1.87,4.42c-0.1,0.22-0.24,0.39-0.4,0.51
			s-0.4,0.17-0.72,0.17h-2.39C148.42,496.85,148.16,496.65,148.16,496.25z"/>
		<path d="M164,493.39c-0.23-0.24-0.35-0.62-0.35-1.12v-14.72c0-0.5,0.12-0.88,0.35-1.12c0.23-0.24,0.64-0.36,1.21-0.36h10.76
			c0.55,0,0.93,0.12,1.13,0.35s0.3,0.61,0.3,1.13v1.46c0,0.52-0.1,0.9-0.3,1.13c-0.2,0.23-0.58,0.35-1.13,0.35h-6.08v2.21h3.74
			c0.55,0,0.93,0.12,1.13,0.35c0.2,0.23,0.3,0.61,0.3,1.13v1.46c0,0.52-0.1,0.9-0.3,1.13c-0.2,0.23-0.58,0.35-1.13,0.35h-3.74v5.15
			c0,0.5-0.12,0.88-0.35,1.12c-0.23,0.24-0.65,0.36-1.23,0.36h-3.09C164.64,493.75,164.24,493.63,164,493.39z"/>
		<path d="M178.67,493.39c-0.23-0.24-0.35-0.62-0.35-1.12v-14.72c0-0.5,0.12-0.88,0.35-1.12c0.23-0.24,0.64-0.36,1.21-0.36h10.76
			c0.55,0,0.93,0.12,1.13,0.35c0.2,0.23,0.3,0.61,0.3,1.13v1.46c0,0.52-0.1,0.9-0.3,1.13c-0.2,0.23-0.58,0.35-1.13,0.35h-6.08v2.24
			h3.74c0.55,0,0.93,0.12,1.13,0.35c0.2,0.23,0.3,0.61,0.3,1.13v1.4c0,0.52-0.1,0.9-0.3,1.13c-0.2,0.23-0.58,0.35-1.13,0.35h-3.74
			v2.24h6.06c0.55,0,0.93,0.12,1.13,0.35c0.2,0.23,0.3,0.61,0.3,1.13v1.46c0,0.52-0.1,0.9-0.3,1.13c-0.2,0.23-0.58,0.35-1.13,0.35
			h-10.74C179.3,493.75,178.9,493.63,178.67,493.39z"/>
		<path d="M194.18,491.82c-1.75-1.55-2.63-3.85-2.63-6.9c0-3.07,0.84-5.37,2.53-6.92c1.69-1.54,4.1-2.31,7.24-2.31
			c1.42,0,2.69,0.14,3.79,0.42c1.11,0.28,2.04,0.67,2.78,1.17c0.21,0.16,0.31,0.33,0.31,0.52c0,0.16-0.08,0.37-0.23,0.65l-1.3,2.24
			c-0.14,0.24-0.3,0.36-0.49,0.36c-0.12,0-0.32-0.07-0.6-0.21c-0.49-0.24-0.99-0.43-1.52-0.57s-1.15-0.21-1.86-0.21
			c-1.44,0-2.54,0.42-3.3,1.25c-0.76,0.83-1.14,2.04-1.14,3.61c0,1.56,0.42,2.76,1.25,3.6c0.83,0.84,1.97,1.26,3.41,1.26
			c1.25,0,2.39-0.26,3.43-0.78c0.28-0.14,0.48-0.21,0.6-0.21c0.19,0,0.36,0.12,0.49,0.36l1.3,2.24c0.16,0.28,0.23,0.49,0.23,0.65
			c0,0.19-0.1,0.36-0.31,0.52c-0.75,0.5-1.68,0.89-2.81,1.17c-1.13,0.28-2.4,0.42-3.82,0.42
			C198.38,494.14,195.93,493.37,194.18,491.82z"/>
		<path d="M210.13,493.39c-0.23-0.24-0.35-0.62-0.35-1.12v-14.72c0-0.5,0.12-0.88,0.35-1.12c0.23-0.24,0.64-0.36,1.21-0.36h3.09
			c0.59,0,1,0.12,1.23,0.35c0.23,0.23,0.35,0.61,0.35,1.13v5.15h4.63v-5.15c0-0.5,0.12-0.88,0.35-1.12
			c0.23-0.24,0.64-0.36,1.21-0.36h3.09c0.59,0,1,0.12,1.24,0.35c0.23,0.23,0.35,0.61,0.35,1.13v14.72c0,0.5-0.12,0.88-0.35,1.12
			c-0.23,0.24-0.65,0.36-1.24,0.36h-3.09c-0.57,0-0.97-0.12-1.21-0.36c-0.23-0.24-0.35-0.62-0.35-1.12v-5.15h-4.63v5.15
			c0,0.5-0.12,0.88-0.35,1.12c-0.23,0.24-0.65,0.36-1.23,0.36h-3.09C210.76,493.75,210.36,493.63,210.13,493.39z"/>
		<path d="M228.18,493.21c0-0.16,0.04-0.35,0.13-0.57l6.47-15.57c0.16-0.36,0.33-0.62,0.53-0.77s0.48-0.22,0.85-0.22H239
			c0.36,0,0.64,0.07,0.84,0.22s0.38,0.4,0.53,0.77l6.45,15.57c0.09,0.23,0.13,0.42,0.13,0.57c0,0.36-0.19,0.55-0.57,0.55h-4.89
			c-0.54,0-0.88-0.23-1.01-0.7l-0.62-1.92h-4.6l-0.6,1.92c-0.14,0.47-0.48,0.7-1.01,0.7h-4.89
			C228.37,493.75,228.18,493.57,228.18,493.21z M238.58,487.02l-1.01-3.22l-1.01,3.22H238.58z"/>
		<path d="M256.41,493.39c-0.23-0.24-0.35-0.62-0.35-1.12v-14.72c0-0.5,0.12-0.88,0.35-1.12c0.23-0.24,0.64-0.36,1.21-0.36h5.98
			c6.12,0,9.18,2.95,9.18,8.84c0,2.91-0.78,5.11-2.35,6.6c-1.57,1.49-3.84,2.24-6.82,2.24h-5.98
			C257.04,493.75,256.64,493.63,256.41,493.39z M263.83,489.33c0.97,0,1.67-0.32,2.09-0.96c0.43-0.64,0.64-1.79,0.64-3.46
			s-0.21-2.82-0.64-3.46c-0.42-0.64-1.12-0.96-2.09-0.96h-1.54v8.84H263.83z"/>
		<path d="M274.42,493.39c-0.23-0.24-0.35-0.62-0.35-1.12v-14.72c0-0.5,0.12-0.88,0.35-1.12c0.23-0.24,0.64-0.36,1.21-0.36h10.76
			c0.55,0,0.93,0.12,1.13,0.35c0.2,0.23,0.3,0.61,0.3,1.13v1.46c0,0.52-0.1,0.9-0.3,1.13c-0.2,0.23-0.58,0.35-1.13,0.35h-6.08v2.24
			h3.74c0.55,0,0.93,0.12,1.13,0.35c0.2,0.23,0.3,0.61,0.3,1.13v1.4c0,0.52-0.1,0.9-0.3,1.13c-0.2,0.23-0.58,0.35-1.13,0.35h-3.74
			v2.24h6.06c0.55,0,0.93,0.12,1.13,0.35c0.2,0.23,0.3,0.61,0.3,1.13v1.46c0,0.52-0.1,0.9-0.3,1.13c-0.2,0.23-0.58,0.35-1.13,0.35
			h-10.74C275.06,493.75,274.66,493.63,274.42,493.39z"/>
		<path d="M297.15,493.39c-0.23-0.24-0.35-0.62-0.35-1.12v-14.72c0-0.5,0.12-0.88,0.35-1.12c0.23-0.24,0.64-0.36,1.21-0.36h6.21
			c2.6,0,4.49,0.52,5.68,1.55s1.78,2.59,1.78,4.67s-0.59,3.63-1.78,4.65c-1.19,1.02-3.07,1.53-5.66,1.53h-1.56v3.8
			c0,0.5-0.12,0.88-0.35,1.12c-0.23,0.24-0.65,0.36-1.23,0.36h-3.09C297.79,493.75,297.38,493.63,297.15,493.39z M304.03,484.05
			c0.55,0,0.99-0.15,1.31-0.44c0.32-0.29,0.48-0.74,0.48-1.33c0-0.61-0.16-1.06-0.48-1.35c-0.32-0.29-0.76-0.44-1.31-0.44h-1.77
			v3.56H304.03z"/>
		<path d="M309.69,493.21c0-0.16,0.04-0.35,0.13-0.57l6.47-15.57c0.16-0.36,0.33-0.62,0.53-0.77s0.48-0.22,0.84-0.22h2.83
			c0.36,0,0.65,0.07,0.84,0.22s0.38,0.4,0.53,0.77l6.45,15.57c0.09,0.23,0.13,0.42,0.13,0.57c0,0.36-0.19,0.55-0.57,0.55H323
			c-0.54,0-0.88-0.23-1.01-0.7l-0.62-1.92h-4.6l-0.6,1.92c-0.14,0.47-0.48,0.7-1.01,0.7h-4.89
			C309.88,493.75,309.69,493.57,309.69,493.21z M320.09,487.02l-1.01-3.22l-1.01,3.22H320.09z"/>
		<path d="M331.87,491.82c-1.75-1.55-2.63-3.85-2.63-6.9c0-3.03,0.88-5.33,2.63-6.89c1.75-1.56,4.19-2.34,7.33-2.34
			c1.42,0,2.69,0.14,3.82,0.42c1.13,0.28,2.06,0.67,2.81,1.17c0.21,0.16,0.31,0.33,0.31,0.52c0,0.16-0.08,0.37-0.23,0.65l-1.3,2.24
			c-0.14,0.24-0.3,0.36-0.49,0.36c-0.12,0-0.32-0.07-0.6-0.21c-1.04-0.52-2.18-0.78-3.43-0.78c-1.44,0-2.57,0.41-3.39,1.24
			s-1.23,2.03-1.23,3.63c0,1.65,0.35,2.86,1.04,3.65c0.69,0.79,1.72,1.18,3.09,1.18c0.24,0,0.52-0.02,0.82-0.07
			c0.3-0.04,0.55-0.09,0.74-0.14v-2.37h-1.66c-0.55,0-0.93-0.11-1.13-0.33c-0.2-0.22-0.3-0.58-0.3-1.1v-1.43
			c0-0.52,0.1-0.89,0.3-1.1s0.58-0.33,1.13-0.33h5.59c0.68,0,1.14,0.15,1.4,0.46c0.26,0.3,0.39,0.78,0.39,1.44v6.08
			c0,0.38-0.05,0.67-0.14,0.87c-0.1,0.2-0.28,0.4-0.56,0.61c-1.66,1.2-3.98,1.79-6.94,1.79
			C336.07,494.14,333.62,493.37,331.87,491.82z"/>
		<path d="M350.04,491.74c-1.6-1.6-2.39-3.88-2.39-6.83c0-2.95,0.8-5.22,2.39-6.83c1.59-1.6,3.93-2.41,7.02-2.41s5.43,0.8,7.02,2.41
			c1.6,1.6,2.39,3.88,2.39,6.83c0,2.95-0.8,5.22-2.39,6.83c-1.59,1.6-3.93,2.4-7.02,2.4S351.64,493.34,350.04,491.74z
			 M359.51,488.57c0.5-0.81,0.75-2.02,0.75-3.65c0-1.65-0.25-2.87-0.75-3.67s-1.32-1.2-2.44-1.2s-1.94,0.4-2.44,1.2
			c-0.5,0.8-0.75,2.02-0.75,3.67c0,1.63,0.25,2.85,0.75,3.65c0.5,0.81,1.32,1.21,2.44,1.21S359.01,489.37,359.51,488.57z"/>
		<path d="M366.37,496.25c0-0.07,0.02-0.19,0.05-0.36l1.28-4.55c0.12-0.45,0.28-0.75,0.48-0.88s0.53-0.21,1-0.21h2.44
			c0.4,0,0.68,0.05,0.86,0.16c0.17,0.1,0.26,0.27,0.26,0.49c0,0.24-0.07,0.53-0.21,0.86l-1.87,4.42c-0.1,0.22-0.24,0.39-0.4,0.51
			c-0.17,0.11-0.4,0.17-0.71,0.17h-2.39C366.63,496.85,366.37,496.65,366.37,496.25z"/>
		<path d="M64.1,524.52c-1.28-0.55-2.28-1.33-2.99-2.37c-0.71-1.03-1.07-2.26-1.07-3.68v-9.72c0-0.5,0.12-0.88,0.35-1.12
			c0.23-0.24,0.64-0.36,1.21-0.36h3.09c0.59,0,1,0.12,1.23,0.35s0.35,0.61,0.35,1.13v9.8c0,0.82,0.2,1.42,0.61,1.82
			c0.41,0.4,0.96,0.6,1.68,0.6s1.27-0.2,1.68-0.6c0.41-0.4,0.61-1,0.61-1.82v-9.8c0-0.5,0.12-0.88,0.35-1.12
			c0.23-0.24,0.64-0.36,1.21-0.36h3.09c0.59,0,1,0.12,1.24,0.35s0.35,0.61,0.35,1.13v9.72c0,1.42-0.36,2.65-1.07,3.68
			s-1.71,1.82-2.99,2.37s-2.77,0.82-4.47,0.82C66.87,525.34,65.38,525.07,64.1,524.52z M65.92,505.09c0-0.14,0.03-0.29,0.08-0.44
			l1.09-3.02c0.14-0.4,0.3-0.67,0.49-0.81s0.55-0.21,1.07-0.21h3.72c0.36,0,0.65,0.06,0.86,0.2c0.21,0.13,0.31,0.32,0.31,0.56
			c0,0.21-0.07,0.42-0.21,0.65l-1.66,2.81c-0.24,0.42-0.48,0.68-0.7,0.81c-0.23,0.12-0.63,0.18-1.22,0.18h-2.78
			C66.27,505.82,65.92,505.57,65.92,505.09z"/>
		<path d="M78.36,524.59c-0.23-0.24-0.35-0.62-0.35-1.12v-14.72c0-0.5,0.12-0.88,0.35-1.12c0.23-0.24,0.64-0.36,1.21-0.36h3.09
			c0.59,0,1,0.12,1.24,0.35c0.23,0.23,0.35,0.61,0.35,1.13v11.78h6.06c0.55,0,0.93,0.12,1.13,0.35c0.2,0.23,0.3,0.61,0.3,1.13v1.46
			c0,0.52-0.1,0.9-0.3,1.13c-0.2,0.23-0.58,0.35-1.13,0.35H79.57C79,524.95,78.59,524.83,78.36,524.59z"/>
		<path d="M93.49,524.59c-0.23-0.24-0.35-0.62-0.35-1.12v-11.78H89.4c-0.55,0-0.93-0.12-1.13-0.35c-0.2-0.23-0.3-0.61-0.3-1.13
			v-1.46c0-0.52,0.1-0.9,0.3-1.13s0.58-0.35,1.13-0.35h13.73c0.55,0,0.93,0.12,1.13,0.35s0.3,0.61,0.3,1.13v1.46
			c0,0.52-0.1,0.9-0.3,1.13c-0.2,0.23-0.58,0.35-1.13,0.35h-3.74v11.78c0,0.5-0.12,0.88-0.35,1.12c-0.23,0.24-0.65,0.36-1.23,0.36
			H94.7C94.13,524.95,93.73,524.83,93.49,524.59z"/>
		<path d="M105.69,524.59c-0.23-0.24-0.35-0.62-0.35-1.12v-14.72c0-0.5,0.12-0.88,0.35-1.12c0.23-0.24,0.64-0.36,1.21-0.36h3.09
			c0.59,0,1,0.12,1.23,0.35c0.23,0.23,0.35,0.61,0.35,1.13v14.72c0,0.5-0.12,0.88-0.35,1.12c-0.23,0.24-0.65,0.36-1.23,0.36h-3.09
			C106.32,524.95,105.92,524.83,105.69,524.59z"/>
		<path d="M113.75,524.59c-0.23-0.24-0.35-0.62-0.35-1.12v-14.74c0-0.5,0.12-0.87,0.35-1.11c0.23-0.23,0.64-0.35,1.23-0.35h2.99
			c0.38,0,0.68,0.05,0.91,0.14c0.22,0.1,0.4,0.28,0.52,0.56l3.04,7.62l3.04-7.62c0.12-0.28,0.29-0.46,0.52-0.56
			c0.23-0.09,0.53-0.14,0.91-0.14h2.99c0.59,0,1,0.12,1.23,0.35c0.23,0.23,0.35,0.6,0.35,1.11v14.74c0,0.5-0.12,0.88-0.35,1.12
			c-0.23,0.24-0.64,0.36-1.21,0.36h-2.5c-0.57,0-0.98-0.12-1.22-0.36c-0.24-0.24-0.37-0.62-0.37-1.12v-7.1l-1.53,3.54
			c-0.21,0.5-0.43,0.86-0.68,1.08c-0.24,0.22-0.64,0.33-1.2,0.33c-0.56,0-0.95-0.11-1.2-0.33s-0.47-0.58-0.68-1.08l-1.53-3.54v7.1
			c0,0.5-0.12,0.88-0.35,1.12c-0.23,0.24-0.65,0.36-1.24,0.36h-2.5C114.38,524.95,113.98,524.83,113.75,524.59z"/>
		<path d="M134.27,522.94c-1.59-1.6-2.39-3.88-2.39-6.83c0-2.95,0.8-5.22,2.39-6.83c1.59-1.6,3.93-2.41,7.02-2.41
			s5.42,0.8,7.02,2.41c1.59,1.6,2.39,3.88,2.39,6.83c0,2.95-0.8,5.22-2.39,6.83c-1.6,1.6-3.94,2.4-7.02,2.4
			S135.87,524.54,134.27,522.94z M143.74,519.77c0.5-0.81,0.75-2.02,0.75-3.65c0-1.65-0.25-2.87-0.75-3.67
			c-0.5-0.8-1.32-1.2-2.44-1.2c-1.13,0-1.94,0.4-2.44,1.2c-0.5,0.8-0.75,2.02-0.75,3.67c0,1.63,0.25,2.85,0.75,3.65
			c0.5,0.81,1.32,1.21,2.44,1.21C142.42,520.97,143.23,520.57,143.74,519.77z"/>
		<path d="M154.14,524.85c-1.35-0.33-2.44-0.79-3.28-1.38c-0.35-0.24-0.52-0.48-0.52-0.7c0-0.16,0.06-0.32,0.18-0.49l1.51-2.37
			c0.16-0.23,0.31-0.34,0.47-0.34c0.14,0,0.3,0.06,0.49,0.18c0.62,0.38,1.34,0.68,2.14,0.9c0.81,0.22,1.59,0.33,2.35,0.33
			c0.64,0,1.11-0.09,1.39-0.26c0.29-0.17,0.43-0.44,0.43-0.81c0-0.4-0.19-0.72-0.57-0.96c-0.38-0.24-1.04-0.55-1.98-0.91
			c-1.75-0.68-3.13-1.44-4.13-2.3c-1.01-0.86-1.51-2-1.51-3.42c0-1.8,0.63-3.16,1.89-4.07c1.26-0.91,2.95-1.37,5.08-1.37
			c1.49,0,2.76,0.13,3.81,0.39c1.05,0.26,1.96,0.67,2.74,1.22c0.35,0.24,0.52,0.48,0.52,0.7c0,0.16-0.06,0.32-0.18,0.49l-1.51,2.37
			c-0.16,0.24-0.31,0.36-0.47,0.36c-0.1,0-0.27-0.07-0.49-0.21c-0.42-0.28-0.91-0.51-1.48-0.69c-0.57-0.18-1.19-0.27-1.85-0.27
			c-0.61,0-1.07,0.09-1.38,0.26c-0.31,0.17-0.47,0.45-0.47,0.83c0,0.31,0.11,0.57,0.33,0.78s0.49,0.39,0.82,0.53
			c0.33,0.15,0.9,0.39,1.72,0.71c1.3,0.52,2.32,1.02,3.07,1.5c0.75,0.48,1.31,1.05,1.69,1.72c0.38,0.67,0.57,1.51,0.57,2.54
			c0,1.56-0.58,2.82-1.75,3.78s-2.92,1.44-5.24,1.44C156.95,525.34,155.49,525.18,154.14,524.85z"/>
		<path d="M174.97,524.59c-0.23-0.24-0.35-0.62-0.35-1.12v-14.74c0-0.5,0.12-0.87,0.35-1.11s0.65-0.35,1.24-0.35h2.99
			c0.38,0,0.69,0.05,0.91,0.14c0.23,0.1,0.4,0.28,0.52,0.56l3.04,7.62l3.04-7.62c0.12-0.28,0.29-0.46,0.52-0.56
			c0.22-0.09,0.53-0.14,0.91-0.14h2.99c0.59,0,1,0.12,1.24,0.35s0.35,0.6,0.35,1.11v14.74c0,0.5-0.12,0.88-0.35,1.12
			c-0.23,0.24-0.64,0.36-1.21,0.36h-2.5c-0.57,0-0.98-0.12-1.22-0.36c-0.24-0.24-0.36-0.62-0.36-1.12v-7.1l-1.53,3.54
			c-0.21,0.5-0.43,0.86-0.68,1.08c-0.24,0.22-0.64,0.33-1.2,0.33s-0.95-0.11-1.2-0.33c-0.24-0.22-0.47-0.58-0.68-1.08l-1.53-3.54
			v7.1c0,0.5-0.12,0.88-0.35,1.12c-0.23,0.24-0.65,0.36-1.24,0.36h-2.5C175.61,524.95,175.21,524.83,174.97,524.59z"/>
		<path d="M195.5,522.94c-1.6-1.6-2.39-3.88-2.39-6.83c0-2.95,0.8-5.22,2.39-6.83c1.59-1.6,3.93-2.41,7.02-2.41s5.43,0.8,7.02,2.41
			c1.6,1.6,2.39,3.88,2.39,6.83c0,2.95-0.8,5.22-2.39,6.83c-1.59,1.6-3.93,2.4-7.02,2.4S197.1,524.54,195.5,522.94z M204.97,519.77
			c0.5-0.81,0.75-2.02,0.75-3.65c0-1.65-0.25-2.87-0.75-3.67s-1.32-1.2-2.44-1.2s-1.94,0.4-2.44,1.2c-0.5,0.8-0.75,2.02-0.75,3.67
			c0,1.63,0.25,2.85,0.75,3.65c0.5,0.81,1.32,1.21,2.44,1.21S204.46,520.57,204.97,519.77z"/>
		<path d="M217.88,524.73c-0.2-0.15-0.37-0.4-0.51-0.77l-6.21-15.57c-0.09-0.23-0.13-0.42-0.13-0.57c0-0.36,0.19-0.55,0.57-0.55
			h4.89c0.54,0,0.88,0.23,1.01,0.7l2.65,8.48l2.65-8.48c0.14-0.47,0.48-0.7,1.01-0.7h4.89c0.38,0,0.57,0.18,0.57,0.55
			c0,0.16-0.04,0.35-0.13,0.57l-6.19,15.57c-0.14,0.36-0.31,0.62-0.51,0.77s-0.49,0.22-0.87,0.22h-2.83
			C218.37,524.95,218.07,524.88,217.88,524.73z"/>
		<path d="M230.93,524.59c-0.23-0.24-0.35-0.62-0.35-1.12v-14.72c0-0.5,0.12-0.88,0.35-1.12c0.23-0.24,0.64-0.36,1.21-0.36h3.09
			c0.59,0,1,0.12,1.23,0.35s0.35,0.61,0.35,1.13v14.72c0,0.5-0.12,0.88-0.35,1.12c-0.23,0.24-0.65,0.36-1.23,0.36h-3.09
			C231.56,524.95,231.16,524.83,230.93,524.59z"/>
		<path d="M238.99,524.59c-0.23-0.24-0.35-0.62-0.35-1.12v-14.74c0-0.5,0.12-0.87,0.35-1.11c0.23-0.23,0.65-0.35,1.24-0.35h2.99
			c0.38,0,0.68,0.05,0.91,0.14c0.23,0.1,0.4,0.28,0.52,0.56l3.04,7.62l3.04-7.62c0.12-0.28,0.29-0.46,0.52-0.56
			c0.22-0.09,0.53-0.14,0.91-0.14h2.99c0.59,0,1,0.12,1.23,0.35s0.35,0.6,0.35,1.11v14.74c0,0.5-0.12,0.88-0.35,1.12
			c-0.23,0.24-0.64,0.36-1.21,0.36h-2.5c-0.57,0-0.98-0.12-1.22-0.36c-0.24-0.24-0.36-0.62-0.36-1.12v-7.1l-1.53,3.54
			c-0.21,0.5-0.43,0.86-0.68,1.08s-0.64,0.33-1.2,0.33s-0.95-0.11-1.2-0.33c-0.24-0.22-0.47-0.58-0.68-1.08l-1.54-3.54v7.1
			c0,0.5-0.12,0.88-0.35,1.12c-0.23,0.24-0.65,0.36-1.24,0.36h-2.5C239.62,524.95,239.22,524.83,238.99,524.59z"/>
		<path d="M258.9,524.59c-0.23-0.24-0.35-0.62-0.35-1.12v-14.72c0-0.5,0.12-0.88,0.35-1.12c0.23-0.24,0.64-0.36,1.21-0.36h3.09
			c0.59,0,1,0.12,1.24,0.35c0.23,0.23,0.35,0.61,0.35,1.13v14.72c0,0.5-0.12,0.88-0.35,1.12c-0.23,0.24-0.65,0.36-1.24,0.36h-3.09
			C259.54,524.95,259.14,524.83,258.9,524.59z"/>
		<path d="M266.96,524.59c-0.23-0.24-0.35-0.62-0.35-1.12v-14.72c0-0.5,0.12-0.88,0.35-1.12c0.23-0.24,0.64-0.36,1.21-0.36h10.76
			c0.55,0,0.93,0.12,1.13,0.35s0.3,0.61,0.3,1.13v1.46c0,0.52-0.1,0.9-0.3,1.13c-0.2,0.23-0.58,0.35-1.13,0.35h-6.08v2.24h3.74
			c0.55,0,0.93,0.12,1.13,0.35c0.2,0.23,0.3,0.61,0.3,1.13v1.4c0,0.52-0.1,0.9-0.3,1.13c-0.2,0.23-0.58,0.35-1.13,0.35h-3.74v2.24
			h6.06c0.55,0,0.93,0.12,1.13,0.35c0.2,0.23,0.3,0.61,0.3,1.13v1.46c0,0.52-0.1,0.9-0.3,1.13c-0.2,0.23-0.58,0.35-1.13,0.35h-10.74
			C267.6,524.95,267.2,524.83,266.96,524.59z"/>
		<path d="M281.89,524.59c-0.23-0.24-0.35-0.62-0.35-1.12v-14.74c0-0.5,0.12-0.87,0.35-1.11s0.65-0.35,1.23-0.35h2.47
			c0.36,0,0.64,0.05,0.84,0.14c0.2,0.1,0.39,0.28,0.58,0.56l4.71,6.99v-6.21c0-0.5,0.12-0.88,0.35-1.12
			c0.23-0.24,0.64-0.36,1.21-0.36h3.09c0.59,0,1,0.12,1.24,0.35c0.23,0.23,0.35,0.61,0.35,1.13v14.74c0,0.5-0.12,0.87-0.35,1.11
			c-0.23,0.23-0.65,0.35-1.24,0.35h-2.47c-0.37,0-0.65-0.05-0.85-0.14c-0.2-0.1-0.39-0.28-0.58-0.56l-4.71-6.99v6.24
			c0,0.5-0.12,0.87-0.35,1.11c-0.23,0.23-0.65,0.35-1.23,0.35h-3.09C282.52,524.95,282.12,524.83,281.89,524.59z"/>
		<path d="M304.27,524.59c-0.23-0.24-0.35-0.62-0.35-1.12v-11.78h-3.74c-0.55,0-0.93-0.12-1.13-0.35c-0.2-0.23-0.3-0.61-0.3-1.13
			v-1.46c0-0.52,0.1-0.9,0.3-1.13s0.58-0.35,1.13-0.35h13.73c0.55,0,0.93,0.12,1.13,0.35c0.2,0.23,0.3,0.61,0.3,1.13v1.46
			c0,0.52-0.1,0.9-0.3,1.13c-0.2,0.23-0.58,0.35-1.13,0.35h-3.74v11.78c0,0.5-0.12,0.88-0.35,1.12c-0.23,0.24-0.65,0.36-1.23,0.36
			h-3.09C304.91,524.95,304.51,524.83,304.27,524.59z"/>
		<path d="M316.82,522.94c-1.59-1.6-2.39-3.88-2.39-6.83c0-2.95,0.8-5.22,2.39-6.83c1.59-1.6,3.93-2.41,7.02-2.41
			s5.42,0.8,7.02,2.41c1.59,1.6,2.39,3.88,2.39,6.83c0,2.95-0.8,5.22-2.39,6.83c-1.6,1.6-3.94,2.4-7.02,2.4
			S318.41,524.54,316.82,522.94z M326.28,519.77c0.5-0.81,0.75-2.02,0.75-3.65c0-1.65-0.25-2.87-0.75-3.67
			c-0.5-0.8-1.32-1.2-2.44-1.2c-1.13,0-1.94,0.4-2.44,1.2c-0.5,0.8-0.75,2.02-0.75,3.67c0,1.63,0.25,2.85,0.75,3.65
			c0.5,0.81,1.32,1.21,2.44,1.21C324.96,520.97,325.78,520.57,326.28,519.77z"/>
		<path d="M336.68,524.85c-1.35-0.33-2.44-0.79-3.28-1.38c-0.35-0.24-0.52-0.48-0.52-0.7c0-0.16,0.06-0.32,0.18-0.49l1.51-2.37
			c0.16-0.23,0.31-0.34,0.47-0.34c0.14,0,0.3,0.06,0.49,0.18c0.62,0.38,1.34,0.68,2.14,0.9c0.81,0.22,1.59,0.33,2.35,0.33
			c0.64,0,1.11-0.09,1.39-0.26c0.29-0.17,0.43-0.44,0.43-0.81c0-0.4-0.19-0.72-0.57-0.96c-0.38-0.24-1.04-0.55-1.98-0.91
			c-1.75-0.68-3.13-1.44-4.13-2.3c-1.01-0.86-1.51-2-1.51-3.42c0-1.8,0.63-3.16,1.89-4.07c1.26-0.91,2.95-1.37,5.08-1.37
			c1.49,0,2.76,0.13,3.81,0.39c1.05,0.26,1.96,0.67,2.74,1.22c0.35,0.24,0.52,0.48,0.52,0.7c0,0.16-0.06,0.32-0.18,0.49l-1.51,2.37
			c-0.16,0.24-0.31,0.36-0.47,0.36c-0.1,0-0.27-0.07-0.49-0.21c-0.42-0.28-0.91-0.51-1.48-0.69c-0.57-0.18-1.19-0.27-1.85-0.27
			c-0.61,0-1.07,0.09-1.38,0.26c-0.31,0.17-0.47,0.45-0.47,0.83c0,0.31,0.11,0.57,0.33,0.78s0.49,0.39,0.82,0.53
			c0.33,0.15,0.9,0.39,1.72,0.71c1.3,0.52,2.32,1.02,3.07,1.5c0.75,0.48,1.31,1.05,1.69,1.72c0.38,0.67,0.57,1.51,0.57,2.54
			c0,1.56-0.58,2.82-1.75,3.78s-2.92,1.44-5.24,1.44C339.5,525.34,338.03,525.18,336.68,524.85z"/>
		<path d="M349.28,524.47c-0.29-0.32-0.43-0.7-0.43-1.13v-0.65c0-0.47,0.14-0.85,0.43-1.16c0.29-0.3,0.65-0.46,1.11-0.46h0.68
			c0.45,0,0.82,0.15,1.11,0.46c0.29,0.3,0.43,0.69,0.43,1.16v0.65c0,0.45-0.14,0.83-0.43,1.14c-0.29,0.31-0.65,0.47-1.11,0.47h-0.68
			C349.93,524.95,349.56,524.79,349.28,524.47z"/>
	</g>
	<polygon class="st1" points="200.76,96.93 214.23,124.22 244.34,128.59 222.55,149.83 227.7,179.83 200.76,165.67 173.83,179.83 
		178.97,149.83 157.18,128.59 187.29,124.22 	"/>
	<polygon class="st1" points="138.58,180.15 147.32,197.86 166.86,200.7 152.72,214.48 156.06,233.94 138.58,224.75 121.11,233.94 
		124.45,214.48 110.31,200.7 129.85,197.86 	"/>
	<polygon class="st1" points="268.68,180.15 277.42,197.86 296.95,200.7 282.82,214.48 286.15,233.94 268.68,224.75 251.2,233.94 
		254.54,214.48 240.4,200.7 259.94,197.86 	"/>
	<g>
		<circle class="st2" cx="201.77" cy="213.97" r="121.96"/>
		<circle class="st3" cx="200.82" cy="200.58" r="121.96"/>
	</g>
	<g>
		<path class="st3" d="M181.43,643.16c-0.56-0.66-0.84-1.72-0.84-3.18v-4.09c0-1.46,0.28-2.52,0.84-3.18
			c0.56-0.66,1.62-0.99,3.18-0.99h4.6v-19.05l-2.99,1.9c-0.24,0.2-0.54,0.29-0.88,0.29c-0.44,0-0.8-0.22-1.1-0.66l-5.55-8.47
			c-0.19-0.24-0.29-0.51-0.29-0.8c0-0.49,0.27-0.88,0.8-1.17l13.8-8.32c0.58-0.34,1.14-0.58,1.68-0.73
			c0.54-0.15,1.31-0.22,2.34-0.22h5.33c1.61,0,2.74,0.34,3.39,1.02c0.66,0.68,0.99,1.73,0.99,3.14v33.07h4.67
			c1.56,0,2.62,0.33,3.18,0.99c0.56,0.66,0.84,1.72,0.84,3.18v4.09c0,1.46-0.28,2.52-0.84,3.18c-0.56,0.66-1.62,0.99-3.18,0.99
			h-26.79C183.05,644.14,181.99,643.81,181.43,643.16z"/>
	</g>
	<g>
		<g>
			<path class="st146" d="M245.43,211.68c-0.19,0.36-0.38,0.76-0.57,1.19c-1.54,3.25-3.95,8.24-4.55,12.28
				c-2.26,1.79-4.47,3.35-6.44,5.02c-1.81,1.39-4.57,2.97-6.66,4.68h-23.64c0.4-0.12,0.8-0.22,1.19-0.31
				c2.54-0.51,5.19-1.12,7.73-1.63c3.5-0.63,7.49-1.96,11.21-2.4c1.65-1.16,3.45-2.16,5.19-3.1c2.05-1.13,3.69-2.67,5.46-4.13
				c0.84-2.82,1.5-5.98,3.09-8.28C239.19,212.62,242.45,211.78,245.43,211.68z"/>
		</g>
		<g class="st147">
			<g>
				<path class="st148" d="M245.43,211.68c-0.19,0.36-0.38,0.76-0.57,1.19c-1.54,3.25-3.95,8.24-4.55,12.28
					c-2.26,1.79-4.47,3.35-6.44,5.02c-1.81,1.39-4.57,2.97-6.66,4.68h-23.64c0.4-0.12,0.8-0.22,1.19-0.31
					c2.54-0.51,5.19-1.12,7.73-1.63c3.5-0.63,7.49-1.96,11.21-2.4c1.65-1.16,3.45-2.16,5.19-3.1c2.05-1.13,3.69-2.67,5.46-4.13
					c0.84-2.82,1.5-5.98,3.09-8.28C239.19,212.62,242.45,211.78,245.43,211.68z"/>
			</g>
		</g>
		<g>
			<path class="st149" d="M255,207.38c-0.32,4.64-1.12,8.86-1.59,12.62c-0.61,3.87-1.21,10.37-2.03,11.61
				c-1.31,1.97-8.35,9.16-12.42,13.63c-1.83,2.04-3.05,5.3-5.09,7.13c-2.65,2.64-6.72,2.23-10.17,2.84
				c-7.54,1.43-14.96,3.97-22.7,3.97c-6.72,0-15.37-1.12-22.09-2.95c-12.34-3.47-22.86-8.55-35.54-10.62V211.1
				c11.09-0.55,44.79,0.15,51.21,0.15c4.97,0,13.45,0.94,19.08,1.19c7.52,17.01-18.95,11.39-31.33,15.01
				c3.71,6.36,11.78,7.41,18.96,7.41h25.91c2.09-1.71,4.85-3.29,6.66-4.68c1.97-1.67,4.18-3.23,6.44-5.02
				c0.6-4.04,3.01-9.03,4.55-12.28c0.19-0.43,0.37-0.82,0.57-1.19C247.64,207.53,250.53,207.38,255,207.38z"/>
		</g>
		<g class="st150">
			<g>
				<path class="st151" d="M214.36,216.82l-5.78,1.15c-1.43,0-3.49,0.46-4.48-0.53c-0.61-0.63-0.88-2.06-1.16-2.78
					c-0.41-0.95-0.97-2.01-1.3-3.09c3.92,0.3,8.14,0.67,11.41,0.81C213.59,212.81,214.45,215.29,214.36,216.82z"/>
			</g>
		</g>
		<g>
			<rect x="134.51" y="207.29" class="st3" width="24.57" height="44.78"/>
		</g>
		<g>
			<polygon class="st28" points="122.91,255.93 154.49,255.93 154.49,255.84 154.49,252.06 154.49,229.6 154.49,207.29 
				154.49,203.42 122.91,203.42 122.91,229.6 122.91,255.84 			"/>
		</g>
		<g class="st152">
			<rect x="122.91" y="229.6" class="st153" width="31.58" height="26.25"/>
		</g>
		<g>
			<path class="st154" d="M143.89,244.85c0,2.87-2.33,5.19-5.19,5.19c-2.87,0-5.19-2.32-5.19-5.19c0-2.87,2.32-5.19,5.19-5.19
				C141.56,239.66,143.89,241.98,143.89,244.85z"/>
		</g>
		<circle class="st155" cx="214.52" cy="167.94" r="39.94"/>
		<g>
			<path class="st3" d="M207.73,157.93c-0.8-0.8-1.2-1.77-1.2-2.9v-1.47c0-1.13,0.4-2.1,1.2-2.9c0.8-0.8,1.96-1.2,3.49-1.2h5.1
				c1.53,0,2.7,0.4,3.52,1.2c0.82,0.8,1.23,1.77,1.23,2.9v1.47c0,1.13-0.41,2.1-1.23,2.9c-0.82,0.8-2,1.2-3.52,1.2h-5.1
				C209.7,159.13,208.53,158.73,207.73,157.93z M207.55,188.53c-0.53-0.55-0.79-1.39-0.79-2.52v-21.47c0-1.13,0.26-1.97,0.79-2.52
				c0.53-0.55,1.44-0.82,2.73-0.82h6.98c1.33,0,2.26,0.26,2.79,0.79s0.79,1.38,0.79,2.55v21.47c0,1.13-0.26,1.98-0.79,2.52
				s-1.46,0.82-2.79,0.82h-6.98C208.99,189.35,208.08,189.08,207.55,188.53z"/>
		</g>
	</g>
</g>
</svg>
