<?xml version="1.0" encoding="utf-8"?>
<!-- Generator: Adobe Illustrator 23.0.0, SVG Export Plug-In . SVG Version: 6.00 Build 0)  -->
<svg version="1.1" id="Capa_1" xmlns="http://www.w3.org/2000/svg" xmlns:xlink="http://www.w3.org/1999/xlink" x="0px" y="0px"
	 viewBox="0 0 400 702" style="enable-background:new 0 0 400 702;" xml:space="preserve">
<style type="text/css">
	.st0{fill:#0085B0;}
	.st1{fill:#E0EF18;}
	.st2{fill:#CECECE;}
	.st3{fill:#FFFFFF;}
	.st4{fill:#F2F2F2;}
	.st5{fill:#EACCB0;}
	.st6{fill:#9B9B9B;}
	.st7{fill:#939393;}
	.st8{fill:#EFEFEF;}
	.st9{fill:#828282;}
	.st10{fill:#2C2A2D;}
	.st11{fill:#202021;}
	.st12{fill:#F2D4B6;}
	.st13{fill:#534D46;}
	.st14{fill:#E8D313;}
	.st15{fill:#2ACCFF;}
	.st16{fill:#4E4F4F;}
	.st17{fill:#003A94;}
	.st18{fill:#00D13C;}
	.st19{fill:#15682A;}
	.st20{fill:#D40000;}
	.st21{fill:#505050;}
	.st22{fill:#DFDFDF;}
	.st23{fill:none;}
	.st24{fill:#636363;}
	.st25{fill:#6C92D5;}
	.st26{fill:#22272F;}
	.st27{fill:#1B2538;}
	.st28{fill:#253452;}
	.st29{fill:#F9F9F9;}
	.st30{fill:#2D3543;}
	.st31{fill:#2A3D60;}
	.st32{fill:#587955;}
	.st33{fill:#CD7054;}
	.st34{fill:#F1CC4B;}
	.st35{fill:#ACACAC;}
	.st36{fill:#AAE528;}
	.st37{fill:#28CEBA;}
	.st38{fill:#DB143F;}
	.st39{fill:#53C2C9;}
	.st40{fill:#FFB412;}
	.st41{fill:#866A5E;}
	.st42{fill:#F7DDCB;}
	.st43{fill:#FFE6D4;}
	.st44{fill:#F5F5F5;}
	.st45{fill:#1A2830;}
	.st46{fill:#24353F;}
	.st47{fill:#132026;}
	.st48{fill:#F9FF03;}
	.st49{fill:#272728;}
	.st50{fill:#1E1D1E;}
	.st51{fill:#160423;}
	.st52{fill-rule:evenodd;clip-rule:evenodd;fill:#FFFFFF;}
	.st53{fill-rule:evenodd;clip-rule:evenodd;fill:#1996B8;}
	.st54{fill:#0C387D;}
	.st55{fill:#C69A81;}
	.st56{fill:#D1A385;}
	.st57{fill:#EAEAEA;}
	.st58{fill:#093E8C;}
	.st59{fill:#0B2A62;}
	.st60{fill:#D32A3B;}
	.st61{fill:#827C7D;}
	.st62{opacity:0.7;fill:#7F7F7F;}
	.st63{fill:#FDFDFD;}
	.st64{fill:#DAA449;}
	.st65{fill:#DD9225;}
	.st66{opacity:0.3;}
	.st67{fill:#425793;}
	.st68{opacity:0.8;}
	.st69{filter:url(#Adobe_OpacityMaskFilter);}
	.st70{opacity:0.15;mask:url(#SVGID_1_);}
	.st71{fill:#090B00;}
	.st72{opacity:0.1;}
	.st73{fill:#211915;}
	.st74{filter:url(#Adobe_OpacityMaskFilter_1_);}
	.st75{opacity:0.15;mask:url(#SVGID_2_);}
	.st76{fill:#AF3623;}
	.st77{filter:url(#Adobe_OpacityMaskFilter_2_);}
	.st78{opacity:0.15;mask:url(#SVGID_3_);}
	.st79{filter:url(#Adobe_OpacityMaskFilter_3_);}
	.st80{opacity:0.15;mask:url(#SVGID_4_);}
	.st81{fill:#456495;}
	.st82{filter:url(#Adobe_OpacityMaskFilter_4_);}
	.st83{opacity:0.15;mask:url(#SVGID_5_);}
	.st84{filter:url(#Adobe_OpacityMaskFilter_5_);}
	.st85{opacity:0.15;mask:url(#SVGID_6_);}
	.st86{fill:#76A9DA;}
	.st87{filter:url(#Adobe_OpacityMaskFilter_6_);}
	.st88{opacity:0.15;mask:url(#SVGID_7_);}
	.st89{filter:url(#Adobe_OpacityMaskFilter_7_);}
	.st90{opacity:0.15;mask:url(#SVGID_8_);}
	.st91{fill:#1F3642;}
	.st92{fill:#A9BDDA;}
	.st93{opacity:0.46;fill:#A6B4BC;}
	.st94{fill:#74C475;}
	.st95{fill:#221F21;}
	.st96{fill:#2D2D2D;}
	.st97{fill:#1C1B1A;}
	.st98{fill:#77181C;}
	.st99{fill:#262525;}
	.st100{fill:#11100F;}
	.st101{opacity:0.18;}
	.st102{opacity:0.38;}
	.st103{fill:#0A5B1F;}
	.st104{opacity:0.27;}
	.st105{opacity:0.48;}
	.st106{fill:#0A4654;}
	.st107{fill:#C2C6C6;}
	.st108{fill:#E5E5E5;stroke:#FFFFFF;stroke-miterlimit:10;}
	.st109{fill:#ACB4B5;}
	.st110{fill:#7F8384;}
	.st111{fill:#15772F;}
	.st112{fill:#F4F4F4;}
	.st113{fill:#53B8DB;}
	.st114{fill:#06EF42;}
	.st115{fill:#E7ED07;}
	.st116{fill:#CCCCCA;}
	.st117{fill:#EADF13;}
	.st118{fill:#C2C2C2;}
	.st119{fill:#85B681;}
	.st120{fill:#A1DC9B;}
	.st121{fill:#90C58B;}
	.st122{fill:#22241F;}
	.st123{opacity:0.5;}
	.st124{fill:#A2CADE;}
	.st125{fill:#E9E9E9;}
	.st126{fill:#D9D9D9;}
	.st127{fill:#CDCDCD;}
	.st128{opacity:0.34;fill:#F0F0F0;}
	.st129{fill:#5A5B5A;}
	.st130{fill:#FFE600;}
	.st131{fill:#DB1F59;}
	.st132{fill:#727272;}
	.st133{fill:#207235;}
	.st134{fill:#A3A3A3;}
	.st135{fill:#BCBCBC;}
	.st136{fill:#0A511C;}
	.st137{fill:#F9FF00;}
	.st138{fill:#D59F6D;}
	.st139{fill:#C0804A;}
	.st140{fill:#E6BA8A;}
	.st141{fill:#BE3ACC;}
	.st142{fill:#FFFFFF;stroke:#443F0C;stroke-width:9;stroke-miterlimit:10;}
	.st143{fill:none;stroke:#443F0C;stroke-width:9;stroke-miterlimit:10;}
	.st144{fill:#170623;}
	.st145{fill:#158231;}
	.st146{fill:#C89D76;}
	.st147{opacity:0.4;}
	.st148{fill:#ADADAD;}
	.st149{fill:#EDC3A6;}
	.st150{opacity:0.69;}
	.st151{fill:#E5D3D6;}
	.st152{opacity:0.44;}
	.st153{fill:#A5A5A5;}
	.st154{fill:#DDE5E4;}
	.st155{fill:#5C9169;}
	.st156{fill:#934215;}
	.st157{fill:#47413B;}
	.st158{fill:#601A1F;}
	.st159{fill:#044554;}
	.st160{opacity:0.7;}
	.st161{fill:#7F7F7F;}
	.st162{fill:#6B8A69;}
	.st163{opacity:0.24;fill:#848D90;}
	.st164{opacity:0.4;fill:#848D90;}
	.st165{fill:#F2D5D5;}
	.st166{fill:#485CC1;}
	.st167{fill:#C6CBE0;}
	.st168{fill:#8B909E;}
	.st169{fill:#53BC1B;}
	.st170{fill:#11565B;}
	.st171{fill:#67A06D;}
	.st172{fill:#FFEC00;}
	.st173{fill:#77A007;}
	.st174{fill:#E50731;}
	.st175{fill:#266472;}
	.st176{fill:#D4D4D4;}
	.st177{fill:#0E9932;}
	.st178{fill:#87DD24;}
	.st179{fill:#76A172;}
	.st180{fill:#62835F;}
	.st181{fill:#96D090;}
	.st182{fill:#D6D6D6;}
	.st183{fill:#606060;}
	.st184{fill:#494949;}
	.st185{fill:#29E55A;}
	.st186{fill:#2C703D;}
	.st187{fill:#DD0744;}
	.st188{fill:#EDEDED;}
	.st189{fill:#2A5936;}
	.st190{fill:#B9BBC1;}
	.st191{fill:#FFD79E;}
	.st192{fill:#FFE6C2;}
	.st193{fill:#2CBB55;}
	.st194{fill:#5C412D;}
	.st195{fill:#EC0000;}
	.st196{fill:#DD2626;}
	.st197{fill:#EA9334;}
	.st198{fill:#FCC232;}
	.st199{fill:#F9B234;}
	.st200{fill:#F7A037;}
	.st201{fill:#E0E0E0;}
</style>
<g>
	<path class="st18" d="M9.5,209.36c0,22,13.29,27.86,29.54,13.03c0,0,156.99-143.3,353.09,26.97V55c0-22-18-40-40-40H49.5
		c-22,0-40,18-40,40V209.36z"/>
</g>
<g>
	<path class="st18" d="M391.66,647c0,22-18,40-40,40H49.98c-22,0-40-18-40-40v-46.27c0-22,18-40,40-40h301.68c22,0,40,18,40,40V647z
		"/>
</g>
<g>
	<path d="M54.2,398.15c0-0.23,0.06-0.51,0.19-0.84l9.46-22.76c0.23-0.53,0.49-0.91,0.78-1.12s0.7-0.32,1.24-0.32h4.14
		c0.53,0,0.94,0.11,1.24,0.32c0.29,0.21,0.55,0.59,0.78,1.12l9.42,22.76c0.13,0.33,0.19,0.61,0.19,0.84c0,0.53-0.28,0.8-0.84,0.8
		h-7.14c-0.79,0-1.28-0.34-1.48-1.03l-0.91-2.81h-6.73l-0.87,2.81c-0.2,0.68-0.7,1.03-1.48,1.03h-7.14
		C54.48,398.95,54.2,398.69,54.2,398.15z M69.4,389.11l-1.48-4.71l-1.48,4.71H69.4z"/>
	<path d="M86.62,396.12c-2.56-2.27-3.84-5.63-3.84-10.09c0-4.43,1.28-7.79,3.84-10.07c2.56-2.28,6.13-3.42,10.71-3.42
		c2.08,0,3.94,0.2,5.59,0.61s3.02,0.97,4.1,1.71c0.3,0.23,0.46,0.48,0.46,0.76c0,0.23-0.11,0.54-0.34,0.95l-1.9,3.27
		c-0.2,0.36-0.44,0.53-0.72,0.53c-0.18,0-0.47-0.1-0.87-0.3c-1.52-0.76-3.19-1.14-5.02-1.14c-2.1,0-3.76,0.6-4.96,1.81
		c-1.2,1.2-1.81,2.97-1.81,5.3c0,2.41,0.51,4.19,1.52,5.34c1.01,1.15,2.52,1.73,4.52,1.73c0.35,0,0.75-0.03,1.2-0.1
		c0.44-0.06,0.8-0.13,1.08-0.21v-3.46h-2.43c-0.81,0-1.36-0.16-1.65-0.47c-0.29-0.32-0.44-0.86-0.44-1.62v-2.09
		c0-0.76,0.15-1.3,0.44-1.62c0.29-0.32,0.84-0.47,1.65-0.47h8.17c0.99,0,1.67,0.22,2.05,0.67c0.38,0.44,0.57,1.15,0.57,2.11v8.89
		c0,0.56-0.07,0.98-0.21,1.27c-0.14,0.29-0.41,0.59-0.82,0.89c-2.43,1.75-5.81,2.62-10.15,2.62
		C92.76,399.52,89.18,398.39,86.62,396.12z"/>
	<path d="M110.96,398.42c-0.34-0.35-0.51-0.9-0.51-1.63v-21.51c0-0.74,0.17-1.28,0.51-1.63c0.34-0.36,0.93-0.53,1.77-0.53h15.73
		c0.81,0,1.36,0.17,1.65,0.51c0.29,0.34,0.44,0.89,0.44,1.65v2.13c0,0.76-0.15,1.31-0.44,1.65c-0.29,0.34-0.84,0.51-1.65,0.51h-8.89
		v3.27h5.47c0.81,0,1.36,0.17,1.65,0.51c0.29,0.34,0.44,0.89,0.44,1.65v2.05c0,0.76-0.15,1.31-0.44,1.65
		c-0.29,0.34-0.84,0.51-1.65,0.51h-5.47v3.27h8.85c0.81,0,1.36,0.17,1.65,0.51s0.44,0.89,0.44,1.65v2.13c0,0.76-0.15,1.31-0.44,1.65
		c-0.29,0.34-0.84,0.51-1.65,0.51h-15.69C111.89,398.95,111.3,398.78,110.96,398.42z"/>
	<path d="M132.77,398.42c-0.34-0.35-0.51-0.9-0.51-1.63v-21.55c0-0.73,0.17-1.27,0.51-1.62c0.34-0.34,0.94-0.51,1.81-0.51h3.61
		c0.53,0,0.94,0.07,1.24,0.21c0.29,0.14,0.58,0.41,0.85,0.82l6.88,10.22v-9.08c0-0.74,0.17-1.28,0.51-1.63
		c0.34-0.36,0.93-0.53,1.77-0.53h4.52c0.86,0,1.46,0.17,1.81,0.51s0.51,0.89,0.51,1.65v21.55c0,0.74-0.17,1.27-0.51,1.62
		c-0.34,0.34-0.94,0.51-1.81,0.51h-3.61c-0.53,0-0.94-0.07-1.23-0.21c-0.29-0.14-0.58-0.41-0.86-0.82l-6.88-10.22v9.12
		c0,0.74-0.17,1.27-0.51,1.62c-0.34,0.34-0.94,0.51-1.81,0.51h-4.52C133.7,398.95,133.11,398.78,132.77,398.42z"/>
	<path d="M159.44,398.42c-0.34-0.35-0.51-0.9-0.51-1.63v-21.51c0-0.74,0.17-1.28,0.51-1.63c0.34-0.36,0.93-0.53,1.77-0.53h8.74
		c8.94,0,13.41,4.31,13.41,12.92c0,4.26-1.15,7.47-3.44,9.65c-2.29,2.18-5.62,3.27-9.98,3.27h-8.74
		C160.38,398.95,159.79,398.78,159.44,398.42z M170.29,392.49c1.42,0,2.44-0.47,3.06-1.41c0.62-0.94,0.93-2.62,0.93-5.05
		s-0.31-4.12-0.93-5.05c-0.62-0.94-1.64-1.41-3.06-1.41h-2.24v12.92H170.29z"/>
	<path d="M182.79,398.15c0-0.23,0.06-0.51,0.19-0.84l9.46-22.76c0.23-0.53,0.49-0.91,0.78-1.12c0.29-0.21,0.7-0.32,1.23-0.32h4.14
		c0.53,0,0.94,0.11,1.23,0.32s0.55,0.59,0.78,1.12l9.42,22.76c0.13,0.33,0.19,0.61,0.19,0.84c0,0.53-0.28,0.8-0.84,0.8h-7.14
		c-0.79,0-1.28-0.34-1.48-1.03l-0.91-2.81h-6.73l-0.87,2.81c-0.2,0.68-0.7,1.03-1.48,1.03h-7.14
		C183.07,398.95,182.79,398.69,182.79,398.15z M198,389.11l-1.48-4.71l-1.48,4.71H198z"/>
	<path d="M211.69,398.42c-0.34-0.35-0.51-0.9-0.51-1.63v-21.55c0-0.73,0.17-1.27,0.51-1.62c0.34-0.34,0.94-0.51,1.81-0.51h4.37
		c0.56,0,1,0.07,1.33,0.21s0.58,0.41,0.76,0.82l4.45,11.13l4.45-11.13c0.18-0.41,0.43-0.68,0.76-0.82s0.77-0.21,1.33-0.21h4.37
		c0.86,0,1.46,0.17,1.81,0.51c0.34,0.34,0.51,0.88,0.51,1.62v21.55c0,0.74-0.17,1.28-0.51,1.63c-0.34,0.36-0.93,0.53-1.77,0.53
		h-3.65c-0.84,0-1.43-0.18-1.79-0.53c-0.36-0.35-0.53-0.9-0.53-1.63v-10.37l-2.24,5.17c-0.3,0.74-0.63,1.26-0.99,1.58
		c-0.35,0.32-0.94,0.47-1.75,0.47c-0.81,0-1.39-0.16-1.75-0.47c-0.36-0.32-0.68-0.84-0.99-1.58l-2.24-5.17v10.37
		c0,0.74-0.17,1.28-0.51,1.63c-0.34,0.36-0.94,0.53-1.8,0.53h-3.65C212.63,398.95,212.04,398.78,211.69,398.42z"/>
	<path d="M240.8,398.42c-0.34-0.35-0.51-0.9-0.51-1.63v-21.51c0-0.74,0.17-1.28,0.51-1.63c0.34-0.36,0.93-0.53,1.77-0.53h4.52
		c0.86,0,1.46,0.17,1.81,0.51s0.51,0.89,0.51,1.65v21.51c0,0.74-0.17,1.28-0.51,1.63c-0.34,0.36-0.94,0.53-1.81,0.53h-4.52
		C241.73,398.95,241.14,398.78,240.8,398.42z"/>
	<path d="M252.58,398.42c-0.34-0.35-0.51-0.9-0.51-1.63v-21.51c0-0.74,0.17-1.28,0.51-1.63c0.34-0.36,0.93-0.53,1.77-0.53h15.73
		c0.81,0,1.36,0.17,1.65,0.51c0.29,0.34,0.44,0.89,0.44,1.65v2.13c0,0.76-0.15,1.31-0.44,1.65c-0.29,0.34-0.84,0.51-1.65,0.51h-8.89
		v3.27h5.47c0.81,0,1.36,0.17,1.65,0.51c0.29,0.34,0.44,0.89,0.44,1.65v2.05c0,0.76-0.15,1.31-0.44,1.65
		c-0.29,0.34-0.84,0.51-1.65,0.51h-5.47v3.27h8.85c0.81,0,1.36,0.17,1.65,0.51s0.44,0.89,0.44,1.65v2.13c0,0.76-0.15,1.31-0.44,1.65
		c-0.29,0.34-0.84,0.51-1.65,0.51h-15.69C253.51,398.95,252.92,398.78,252.58,398.42z"/>
	<path d="M274.39,398.42c-0.34-0.35-0.51-0.9-0.51-1.63v-21.55c0-0.73,0.17-1.27,0.51-1.62c0.34-0.34,0.94-0.51,1.81-0.51h3.61
		c0.53,0,0.94,0.07,1.24,0.21c0.29,0.14,0.58,0.41,0.85,0.82l6.88,10.22v-9.08c0-0.74,0.17-1.28,0.51-1.63
		c0.34-0.36,0.93-0.53,1.77-0.53h4.52c0.86,0,1.46,0.17,1.81,0.51s0.51,0.89,0.51,1.65v21.55c0,0.74-0.17,1.27-0.51,1.62
		c-0.34,0.34-0.94,0.51-1.81,0.51h-3.61c-0.53,0-0.94-0.07-1.23-0.21c-0.29-0.14-0.58-0.41-0.86-0.82L283,387.7v9.12
		c0,0.74-0.17,1.27-0.51,1.62c-0.34,0.34-0.94,0.51-1.81,0.51h-4.52C275.32,398.95,274.74,398.78,274.39,398.42z"/>
	<path d="M307.11,398.42c-0.34-0.35-0.51-0.9-0.51-1.63v-17.21h-5.47c-0.81,0-1.36-0.17-1.65-0.51c-0.29-0.34-0.44-0.89-0.44-1.65
		v-2.13c0-0.76,0.15-1.31,0.44-1.65s0.84-0.51,1.65-0.51h20.06c0.81,0,1.36,0.17,1.65,0.51s0.44,0.89,0.44,1.65v2.13
		c0,0.76-0.15,1.31-0.44,1.65c-0.29,0.34-0.84,0.51-1.65,0.51h-5.47v17.21c0,0.74-0.17,1.28-0.51,1.63
		c-0.34,0.36-0.94,0.53-1.8,0.53h-4.52C308.04,398.95,307.45,398.78,307.11,398.42z"/>
	<path d="M325.45,396.01c-2.33-2.34-3.5-5.67-3.5-9.97s1.17-7.63,3.5-9.98c2.33-2.34,5.75-3.51,10.26-3.51
		c4.51,0,7.93,1.17,10.26,3.51c2.33,2.34,3.5,5.67,3.5,9.98s-1.17,7.63-3.5,9.97c-2.33,2.34-5.75,3.52-10.26,3.52
		C331.2,399.52,327.78,398.35,325.45,396.01z M339.28,391.37c0.73-1.18,1.1-2.96,1.1-5.34c0-2.41-0.37-4.19-1.1-5.36
		c-0.74-1.17-1.92-1.75-3.57-1.75c-1.65,0-2.84,0.58-3.57,1.75c-0.74,1.17-1.1,2.95-1.1,5.36c0,2.38,0.37,4.16,1.1,5.34
		c0.73,1.18,1.92,1.77,3.57,1.77C337.35,393.14,338.54,392.55,339.28,391.37z"/>
	<path d="M120.4,444.02c-0.34-0.35-0.51-0.9-0.51-1.63v-21.51c0-0.73,0.17-1.28,0.51-1.63s0.93-0.53,1.77-0.53h8.74
		c8.94,0,13.41,4.31,13.41,12.92c0,4.26-1.15,7.47-3.44,9.65c-2.29,2.18-5.62,3.27-9.98,3.27h-8.74
		C121.33,444.55,120.74,444.38,120.4,444.02z M131.25,438.09c1.42,0,2.44-0.47,3.06-1.41c0.62-0.94,0.93-2.62,0.93-5.05
		s-0.31-4.12-0.93-5.05c-0.62-0.94-1.64-1.41-3.06-1.41h-2.24v12.92H131.25z"/>
	<path d="M146.73,444.02c-0.34-0.35-0.51-0.9-0.51-1.63v-21.51c0-0.73,0.17-1.28,0.51-1.63c0.34-0.35,0.93-0.53,1.77-0.53h15.73
		c0.81,0,1.36,0.17,1.65,0.51c0.29,0.34,0.44,0.89,0.44,1.65v2.13c0,0.76-0.15,1.31-0.44,1.65c-0.29,0.34-0.84,0.51-1.65,0.51h-8.89
		v3.27h5.47c0.81,0,1.36,0.17,1.65,0.51c0.29,0.34,0.44,0.89,0.44,1.65v2.05c0,0.76-0.15,1.31-0.44,1.65
		c-0.29,0.34-0.84,0.51-1.65,0.51h-5.47v3.27h8.85c0.81,0,1.36,0.17,1.65,0.51s0.44,0.89,0.44,1.65v2.13c0,0.76-0.15,1.31-0.44,1.65
		c-0.29,0.34-0.84,0.51-1.65,0.51h-15.7C147.66,444.55,147.08,444.38,146.73,444.02z"/>
	<path d="M182.51,441.72c-2.56-2.27-3.84-5.63-3.84-10.09c0-4.48,1.24-7.85,3.71-10.11c2.47-2.25,6-3.38,10.58-3.38
		c2.08,0,3.93,0.2,5.55,0.61s2.98,0.98,4.07,1.71c0.3,0.23,0.46,0.48,0.46,0.76c0,0.23-0.11,0.54-0.34,0.95l-1.9,3.27
		c-0.2,0.36-0.44,0.53-0.72,0.53c-0.18,0-0.47-0.1-0.88-0.3c-0.71-0.35-1.45-0.63-2.22-0.84s-1.68-0.3-2.72-0.3
		c-2.1,0-3.71,0.61-4.83,1.82s-1.67,2.98-1.67,5.28c0,2.28,0.61,4.03,1.82,5.26c1.22,1.23,2.88,1.84,4.98,1.84
		c1.82,0,3.5-0.38,5.02-1.14c0.4-0.2,0.7-0.3,0.87-0.3c0.28,0,0.52,0.18,0.72,0.53l1.9,3.27c0.23,0.41,0.34,0.72,0.34,0.95
		c0,0.28-0.15,0.53-0.46,0.76c-1.09,0.74-2.46,1.3-4.1,1.71s-3.51,0.61-5.59,0.61C188.65,445.12,185.07,443.99,182.51,441.72z"/>
	<path d="M205.82,444.02c-0.34-0.35-0.51-0.9-0.51-1.63v-21.51c0-0.73,0.17-1.28,0.51-1.63c0.34-0.35,0.93-0.53,1.77-0.53h4.52
		c0.86,0,1.46,0.17,1.81,0.51s0.51,0.89,0.51,1.65v21.51c0,0.74-0.17,1.28-0.51,1.63c-0.34,0.36-0.94,0.53-1.81,0.53h-4.52
		C206.75,444.55,206.17,444.38,205.82,444.02z"/>
	<path d="M223.64,444.02c-0.34-0.35-0.51-0.9-0.51-1.63v-17.21h-5.47c-0.81,0-1.36-0.17-1.65-0.51c-0.29-0.34-0.44-0.89-0.44-1.65
		v-2.13c0-0.76,0.15-1.31,0.44-1.65s0.84-0.51,1.65-0.51h20.06c0.81,0,1.36,0.17,1.65,0.51s0.44,0.89,0.44,1.65v2.13
		c0,0.76-0.15,1.31-0.44,1.65c-0.29,0.34-0.84,0.51-1.65,0.51h-5.47v17.21c0,0.74-0.17,1.28-0.51,1.63
		c-0.34,0.36-0.94,0.53-1.8,0.53h-4.52C224.58,444.55,223.99,444.38,223.64,444.02z"/>
	<path d="M235.44,443.75c0-0.23,0.06-0.51,0.19-0.84l9.46-22.76c0.23-0.53,0.49-0.91,0.78-1.12c0.29-0.22,0.7-0.32,1.23-0.32h4.14
		c0.53,0,0.94,0.11,1.23,0.32c0.29,0.21,0.55,0.59,0.78,1.12l9.42,22.76c0.13,0.33,0.19,0.61,0.19,0.84c0,0.53-0.28,0.8-0.84,0.8
		h-7.14c-0.79,0-1.28-0.34-1.48-1.03l-0.91-2.81h-6.73l-0.87,2.81c-0.2,0.68-0.7,1.03-1.48,1.03h-7.14
		C235.72,444.55,235.44,444.29,235.44,443.75z M250.64,434.71l-1.48-4.71l-1.48,4.71H250.64z"/>
	<path d="M267.9,444.4c-1.98-0.48-3.57-1.15-4.79-2.01c-0.51-0.35-0.76-0.7-0.76-1.03c0-0.23,0.09-0.47,0.27-0.72l2.21-3.46
		c0.23-0.33,0.46-0.49,0.68-0.49c0.2,0,0.44,0.09,0.72,0.27c0.91,0.56,1.96,0.99,3.14,1.31c1.18,0.32,2.32,0.47,3.44,0.47
		c0.94,0,1.61-0.13,2.03-0.38c0.42-0.25,0.63-0.65,0.63-1.18c0-0.58-0.28-1.05-0.84-1.41c-0.56-0.35-1.52-0.8-2.89-1.33
		c-2.56-0.99-4.57-2.11-6.04-3.36s-2.2-2.92-2.2-5c0-2.63,0.92-4.62,2.75-5.95c1.84-1.33,4.31-2,7.43-2c2.18,0,4.03,0.19,5.57,0.57
		s2.87,0.98,4.01,1.79c0.51,0.35,0.76,0.7,0.76,1.03c0,0.23-0.09,0.47-0.27,0.72l-2.21,3.46c-0.23,0.35-0.46,0.53-0.68,0.53
		c-0.15,0-0.39-0.1-0.72-0.3c-0.61-0.41-1.33-0.74-2.17-1.01s-1.74-0.4-2.7-0.4c-0.89,0-1.56,0.13-2.01,0.38
		c-0.46,0.25-0.68,0.66-0.68,1.22c0,0.46,0.16,0.84,0.47,1.14c0.32,0.3,0.71,0.56,1.2,0.78c0.48,0.21,1.32,0.56,2.51,1.04
		c1.9,0.76,3.39,1.49,4.48,2.18c1.09,0.7,1.91,1.53,2.47,2.51c0.56,0.98,0.84,2.21,0.84,3.71c0,2.28-0.85,4.12-2.56,5.53
		s-4.26,2.11-7.66,2.11C272.01,445.12,269.87,444.88,267.9,444.4z"/>
</g>
<polygon class="st1" points="200.76,96.93 214.23,124.22 244.34,128.59 222.55,149.83 227.7,179.83 200.76,165.67 173.83,179.83 
	178.97,149.83 157.18,128.59 187.29,124.22 "/>
<polygon class="st1" points="138.58,180.15 147.32,197.86 166.86,200.7 152.72,214.48 156.06,233.94 138.58,224.75 121.11,233.94 
	124.45,214.48 110.31,200.7 129.85,197.86 "/>
<polygon class="st1" points="268.68,180.15 277.42,197.86 296.95,200.7 282.82,214.48 286.15,233.94 268.68,224.75 251.2,233.94 
	254.54,214.48 240.4,200.7 259.94,197.86 "/>
<g>
	<circle class="st2" cx="201.77" cy="213.97" r="121.96"/>
	<circle class="st3" cx="200.82" cy="200.58" r="121.96"/>
</g>
<g>
	<path class="st3" d="M181.43,643.16c-0.56-0.66-0.84-1.72-0.84-3.18v-4.09c0-1.46,0.28-2.52,0.84-3.18
		c0.56-0.66,1.62-0.99,3.18-0.99h4.6v-19.05l-2.99,1.9c-0.24,0.2-0.54,0.29-0.88,0.29c-0.44,0-0.8-0.22-1.1-0.66l-5.55-8.47
		c-0.19-0.24-0.29-0.51-0.29-0.8c0-0.49,0.27-0.88,0.8-1.17l13.8-8.32c0.58-0.34,1.14-0.58,1.68-0.73c0.54-0.15,1.31-0.22,2.34-0.22
		h5.33c1.61,0,2.74,0.34,3.39,1.02c0.66,0.68,0.99,1.73,0.99,3.14v33.07h4.67c1.56,0,2.62,0.33,3.18,0.99
		c0.56,0.66,0.84,1.72,0.84,3.18v4.09c0,1.46-0.28,2.52-0.84,3.18c-0.56,0.66-1.62,0.99-3.18,0.99h-26.79
		C183.05,644.14,181.99,643.81,181.43,643.16z"/>
</g>
<g>
	<g>
		<path class="st28" d="M289,159.47v85.32c0,4.16-3.38,7.57-7.56,7.57H145.61c-4.16,0-7.57-3.4-7.57-7.57v-85.32H289z"/>
		<path class="st3" d="M289,144.77v14.7H138.04v-14.7c0-4.18,3.4-7.56,7.57-7.56h135.83C285.62,137.21,289,140.59,289,144.77z"/>
		<rect x="194.29" y="173.93" class="st3" width="17.33" height="17.34"/>
		<rect x="217.61" y="173.93" class="st3" width="17.33" height="17.34"/>
		<rect x="240.93" y="173.93" class="st3" width="17.33" height="17.34"/>
		<rect x="264.26" y="173.93" class="st3" width="17.33" height="17.34"/>
		<rect x="147.64" y="197.25" class="st3" width="17.33" height="17.34"/>
		<rect x="170.96" y="197.25" class="st3" width="17.33" height="17.34"/>
		<rect x="194.29" y="197.25" class="st3" width="17.33" height="17.34"/>
		<rect x="217.61" y="197.25" class="st3" width="17.33" height="17.34"/>
		<rect x="240.93" y="197.25" class="st3" width="17.33" height="17.34"/>
		<rect x="264.26" y="197.25" class="st3" width="17.33" height="17.34"/>
		<rect x="147.64" y="220.58" class="st3" width="17.33" height="17.33"/>
		<rect x="170.96" y="220.58" class="st3" width="17.33" height="17.33"/>
		<rect x="194.29" y="220.58" class="st3" width="17.33" height="17.33"/>
		<rect x="217.61" y="220.58" class="st3" width="17.33" height="17.33"/>
		<rect x="240.93" y="220.58" class="st3" width="17.33" height="17.33"/>
		<rect x="264.26" y="220.58" class="st3" width="17.33" height="17.33"/>
		<g>
			<path class="st33" d="M262.7,220.34c-3.53,5.2-7.49,10.09-11.27,15.13c-0.88,1.16-2.72,1.31-3.91,0.68
				c-3.28-1.69-5.12-5.55-7.46-7.92c-2.04-2.62,1.54-3.17,3.28-1.94c2.22,1.59,3.78,3.86,5.8,5.6c3.53-4.08,7.79-7.76,10.79-12.2
				C261.16,217.84,264.44,217.77,262.7,220.34z"/>
		</g>
		<path class="st34" d="M160.89,147.86c0,2.65-2.15,4.8-4.8,4.8l0,0c-2.65,0-4.79-2.15-4.79-4.8v-17.83c0-2.65,2.15-4.8,4.79-4.8
			l0,0c2.65,0,4.8,2.15,4.8,4.8V147.86z"/>
		<path class="st34" d="M218.32,147.86c0,2.65-2.15,4.8-4.79,4.8l0,0c-2.65,0-4.8-2.15-4.8-4.8v-17.83c0-2.65,2.14-4.8,4.8-4.8l0,0
			c2.65,0,4.79,2.15,4.79,4.8V147.86z"/>
		<path class="st34" d="M275.75,147.86c0,2.65-2.15,4.8-4.8,4.8l0,0c-2.65,0-4.8-2.15-4.8-4.8v-17.83c0-2.65,2.15-4.8,4.8-4.8l0,0
			c2.65,0,4.8,2.15,4.8,4.8V147.86z"/>
	</g>
	<g>
		<circle id="XMLID_207_" class="st4" cx="141.64" cy="238.12" r="37.91"/>
		<g id="XMLID_161_">
			<path id="XMLID_206_" class="st23" d="M152.18,236.63c0.49-1.2,0.74-2.15,0.8-2.4c-0.05-0.02-0.09-0.04-0.11-0.07
				c-0.08-0.12,0.15-1.34,0.05-1.43c-0.01-0.01-0.03-0.02-0.04-0.02c-0.14,0.43-0.39,0.79-0.69,1.04
				C152.19,234.69,152.19,235.66,152.18,236.63z"/>
			<path id="XMLID_205_" class="st41" d="M150.48,234.23c-0.56-0.4-0.54,5.28-2.87,7.53c-0.17,0.16-0.34,0.32-0.51,0.47
				c-0.18,0.15-0.36,0.3-0.55,0.44c0,0.08,0,0.16,0,0.24c2.15-0.63,3.66-2.53,4.6-4.17c0.42-0.73,0.76-1.46,1.03-2.11
				c0.01-0.97,0.01-1.94,0-2.88c-0.18,0.15-0.37,0.26-0.56,0.33C151.31,234.41,150.92,234.53,150.48,234.23z"/>
			<path id="XMLID_203_" class="st41" d="M132.38,249.35c-0.06,0.03-0.24,0.14-0.41,0.4C132.09,249.64,132.23,249.51,132.38,249.35z
				"/>
			<path id="XMLID_201_" class="st41" d="M146.56,243.21c0.05,1.25,0.31,2.89,1.33,4.38c0.34-0.3,0.52-0.37,0.65-0.16
				c0.75,1.28,1.54,1.95,1.98,2.39c-0.22-0.38-0.47-0.48-0.47-0.48s0.54-0.21,1.47,0.58c0.22,0.18,0.6,0.44,1.01,0.79
				c-0.49-2.43-0.39-7.93-0.35-13.35c-0.22,0.49-0.48,1-0.77,1.51C150.06,241.23,148.4,242.7,146.56,243.21z"/>
			<path id="XMLID_199_" class="st41" d="M132.4,249.34c0.43-0.43,0.96-1.02,1.48-1.9c0.13-0.21,0.32-0.14,0.66,0.17
				c1.18-1.72,1.34-3.65,1.35-4.94c-0.37-0.29-0.72-0.59-1.06-0.92c-2.33-2.25-2.31-7.93-2.87-7.53c-0.44,0.29-0.82,0.19-1.14-0.14
				c-0.12-0.04-0.23-0.09-0.35-0.16c-0.02,6.2,0.24,13.48-0.29,16.56c0.31-0.24,0.58-0.43,0.75-0.57
				C131.82,249.17,132.35,249.32,132.4,249.34z"/>
			<path id="XMLID_197_" class="st42" d="M146.07,243.03c0.16-0.03,0.32-0.07,0.48-0.12c0-0.08,0-0.16,0-0.24
				C146.39,242.79,146.24,242.91,146.07,243.03z"/>
			<path id="XMLID_195_" class="st42" d="M141.14,253.57c0.04,0.03,0.05,0.07,0.07,0.11c0.01-0.04,0.03-0.08,0.07-0.11
				c4.06-3.11,5.8-5.25,6.61-5.98c-1.02-1.49-1.27-3.13-1.33-4.38c-0.34,0.09-0.68,0.15-1.03,0.18c-0.1,0.43-0.54,1.22-2.03,1.21
				c-0.31,0-0.57-0.04-0.78-0.1c-0.23,0.04-0.45,0.08-0.68,0.1c-0.69,0.07-1.4,0.05-2.09-0.06c-0.56-0.09-1.12-0.24-1.65-0.45
				c-0.6-0.23-1.16-0.54-1.69-0.89c-0.24-0.16-0.48-0.34-0.71-0.53c-0.01,1.29-0.17,3.22-1.35,4.94
				C135.37,248.35,137.11,250.48,141.14,253.57z"/>
			<path id="XMLID_193_" class="st42" d="M141.21,253.77c0,0.01,0,0.01,0,0.02h0.01C141.21,253.79,141.21,253.78,141.21,253.77z"/>
			<path id="XMLID_191_" class="st43" d="M138.3,244.09c0.53,0.21,1.08,0.36,1.65,0.45c0.69,0.11,1.4,0.13,2.09,0.06
				c0.23-0.02,0.46-0.06,0.68-0.1c-1-0.28-1.06-1.07-1.09-1.33c0.04-0.32,0.15-1.41,1.9-1.39c1.59,0.02,1.97,0.92,2.02,1.33
				c0.18-0.02,0.35-0.04,0.52-0.07c0.16-0.11,0.32-0.23,0.47-0.35c0.18-0.15,0.37-0.29,0.55-0.44c0.17-0.15,0.35-0.31,0.51-0.47
				c2.33-2.25,2.31-7.93,2.87-7.53c0.44,0.3,0.83,0.18,1.15-0.15c-0.27,0.1-0.53,0.1-0.73-0.02c-0.32-0.2,0.01-1.79,0.24-4.22
				c-0.03,0.01-0.07,0.02-0.1,0.05c-0.44,0.28-0.99-3.5-3.12-5.27c-2.13-1.77-2.3-2.96-2.3-2.96c-2.13,0.24-4.21,1.01-7.72,3.8
				c-2.78,2.21-5.25,4.41-6.37,4.71c-0.1,0.03-0.17-0.08-0.26-0.24c0.23,2.38,0.54,3.93,0.23,4.13c-0.18,0.11-0.43,0.11-0.68,0.03
				c0.32,0.32,0.7,0.43,1.14,0.14c0.56-0.4,0.54,5.28,2.87,7.53c0.34,0.32,0.69,0.63,1.06,0.92c0.23,0.18,0.46,0.36,0.71,0.53
				C137.14,243.55,137.7,243.86,138.3,244.09z"/>
			<path id="XMLID_189_" class="st41" d="M130.4,225.7c0.11-2.08,2.01-9.63,10.81-9.63c8.8,0,10.7,7.55,10.81,9.63
				c0.07,1.35-0.07,2.13,0.04,2.59c0.04-0.45,0.07-1.04,0.07-1.82c0-3.97-1.61-8.07-4.22-8.75c-1.25-0.33-1.41-1.54-4.19-2.38
				c-4.44-1.33-9.46,0.51-12.02,4.78c-1.79,2.99-1.89,7.18-1.7,8.63C130.62,228.43,130.3,227.67,130.4,225.7z"/>
			<path id="XMLID_174_" class="st41" d="M131.53,230.17c1.12-0.3,3.6-2.5,6.37-4.71c3.51-2.79,5.59-3.56,7.72-3.8
				c0,0,0.17,1.2,2.3,2.96c2.13,1.77,2.68,5.55,3.12,5.27c0.03-0.02,0.07-0.03,0.1-0.05c0.02-0.25,0.05-0.51,0.07-0.77
				c0.22-2.87,0.19-3.81-0.09-4.85c-2.17-8.01-9.91-7.44-9.91-7.44s-7.47-0.7-9.88,7.32c-0.32,1.06-0.35,2.11-0.13,4.98
				c0.02,0.3,0.05,0.59,0.07,0.86C131.36,230.08,131.43,230.19,131.53,230.17z"/>
			<path id="XMLID_173_" class="st96" d="M131.51,234.06c0.31-0.19,0-1.75-0.23-4.13c-0.03-0.28-0.05-0.56-0.07-0.86
				c-0.22-2.87-0.19-3.91,0.13-4.98c2.4-8.02,9.88-7.32,9.88-7.32s7.74-0.57,9.91,7.44c0.28,1.04,0.31,1.98,0.09,4.85
				c-0.02,0.27-0.04,0.52-0.07,0.77c-0.23,2.43-0.56,4.02-0.24,4.22c0.19,0.12,0.45,0.11,0.73,0.02c0.19-0.07,0.38-0.18,0.56-0.33
				c0.3-0.25,0.55-0.61,0.69-1.04c-0.11-0.03-0.27,0.07-0.36-0.13c-0.1-0.22-0.05-1.2,0.04-1.41c0.09-0.21,0.18-0.31,0.52-0.25
				c0.02,0,0.03,0.01,0.05,0.02c0.04-0.98-0.08-1.92-0.6-2.12c-0.28-0.11-0.4-0.27-0.46-0.53c-0.11-0.47,0.02-1.25-0.04-2.59
				c-0.11-2.08-2.01-9.63-10.81-9.63c-8.8,0-10.7,7.55-10.81,9.63c-0.1,1.97,0.23,2.73-0.4,3.06c-0.04,0.02-0.06,0.04-0.1,0.06
				c-0.79,0.3-0.66,2.34-0.44,3.6c0.12,0.7,0.56,1.24,1.03,1.52c0.12,0.07,0.23,0.12,0.35,0.16
				C131.08,234.17,131.32,234.17,131.51,234.06z"/>
			<path id="XMLID_172_" class="st97" d="M152.55,231.17c-0.09,0.21-0.14,1.19-0.04,1.41c0.09,0.19,0.25,0.09,0.36,0.13
				c0.01,0,0.03,0.01,0.04,0.02c0.11,0.09-0.13,1.31-0.05,1.43c0.02,0.03,0.06,0.06,0.11,0.07c-0.05,0.25-0.3,1.2-0.8,2.4
				c-0.27,0.65-0.61,1.38-1.03,2.11c-0.94,1.64-2.46,3.54-4.6,4.17c-0.16,0.05-0.31,0.08-0.48,0.12c-0.17,0.03-0.35,0.06-0.52,0.07
				c-0.05-0.41-0.43-1.31-2.02-1.33c-1.75-0.02-1.87,1.07-1.9,1.39c0.03,0.26,0.1,1.05,1.09,1.33c0.22,0.06,0.47,0.1,0.78,0.1
				c1.49,0.02,1.93-0.77,2.03-1.21c0.35-0.03,0.69-0.09,1.03-0.18c1.84-0.51,3.5-1.98,4.85-4.33c0.29-0.51,0.55-1.02,0.77-1.51
				c0.71-1.56,1.06-2.9,1.1-3.15c0.02-0.01,0.04-0.01,0.06-0.02c0.12-0.08,0.21-0.89,0.29-1.81c0.07-0.87-0.2-1.34-0.5-1.44
				c-0.02-0.01-0.03-0.01-0.05-0.02C152.73,230.86,152.64,230.96,152.55,231.17z"/>
			<path id="XMLID_171_" class="st44" d="M139.66,260.28c-0.64-1.43-1.35-2.24-1.41-3.42c-0.47,0.58-0.79,1.18-0.74,1.74
				c0.18,1.88-5.38-4.56-5.91-7.65c-0.1,0.59-0.1,1.83,1.61,4.26c1.16,1.64,3.88,6.33,5.86,10.54c0.39-2.54,0.71-4.49,0.84-5.22
				C139.81,260.46,139.71,260.38,139.66,260.28z"/>
			<path id="XMLID_170_" class="st44" d="M144.9,258.6c0.05-0.57-0.27-1.16-0.74-1.74c-0.07,1.19-0.78,2-1.41,3.42
				c-0.05,0.1-0.14,0.18-0.25,0.25c0.14,0.76,0.47,2.84,0.89,5.53c1.92-4.28,4.65-9.16,5.84-10.84c1.8-2.56,1.71-3.79,1.6-4.35
				C150.39,253.92,144.72,260.49,144.9,258.6z"/>
			<path id="XMLID_169_" class="st44" d="M132.5,257.03c0,0,0.01,0.01,0.01,0.01l0.02-0.01
				C132.53,257.03,132.52,257.03,132.5,257.03z"/>
			<path id="XMLID_168_" class="st98" d="M142.75,260.28c0.64-1.43,1.35-2.24,1.41-3.42c-1.04-1.29-2.82-2.49-2.95-3.06h-0.01
				c-0.13,0.57-1.91,1.77-2.95,3.06c0.07,1.19,0.78,2,1.41,3.42c0.05,0.1,0.14,0.18,0.25,0.25c-0.13,0.73-0.45,2.68-0.84,5.22
				c1.18,2.5,2.09,4.84,2.26,6.26c0.16-1.36,0.98-3.56,2.06-5.95c-0.42-2.68-0.75-4.76-0.89-5.53
				C142.6,260.46,142.7,260.38,142.75,260.28z"/>
			<path id="XMLID_167_" class="st57" d="M148.53,247.44c-0.12-0.21-0.31-0.14-0.65,0.16c-0.82,0.73-2.55,2.87-6.61,5.98
				c-0.04,0.03-0.05,0.07-0.07,0.11c-0.01-0.04-0.03-0.08-0.07-0.11c-4.03-3.09-5.77-5.22-6.6-5.96c-0.35-0.31-0.54-0.39-0.66-0.17
				c-0.52,0.88-1.06,1.47-1.48,1.9c0,0,0.01,0,0.01,0s-0.01,0-0.02,0.01c-0.16,0.16-0.29,0.29-0.41,0.4
				c-0.12,0.19-0.24,0.47-0.31,0.86c-0.01,0.07-0.04,0.18-0.07,0.32c0.53,3.09,6.09,9.53,5.91,7.65c-0.05-0.57,0.27-1.16,0.74-1.74
				c1.04-1.29,2.82-2.49,2.95-3.06c0-0.01,0-0.02,0-0.02c0,0.01,0,0.01,0,0.02c0.13,0.57,1.91,1.77,2.95,3.06
				c0.47,0.58,0.79,1.18,0.74,1.74c-0.18,1.9,5.48-4.68,5.93-7.74c-0.02-0.1-0.04-0.18-0.05-0.24c-0.06-0.35-0.16-0.61-0.27-0.79
				C150.07,249.39,149.29,248.71,148.53,247.44z"/>
			<path id="XMLID_166_" class="st97" d="M163.55,255.37c-0.34-0.47-7.85-3.06-10.29-3.95c0.25,0.27,0.48,0.58,0.68,0.93
				c1.08,1.92,1.13,3.1,1.89,3.67c0.76,0.57-5.93,1.01-5.93,1.01l4.21,3.18c0,0-4.72,5.4-7.91,7.72c-0.99,0.72-4.11,3.61-4.87,4.85
				c0.18,0.84,0.48,2.09,0.55,2.59c0.03,0.22,0.06,0.43,0.08,0.64c5.81-0.07,11.31-1.44,16.21-3.85c0.15-2.91-0.35-14.35,5.15-16.78
				c0.12-0.05,0.25,0.07,0.39,0.32c0,0,0-0.01,0-0.01C163.67,255.58,163.62,255.46,163.55,255.37z"/>
			<path id="XMLID_165_" class="st99" d="M141.35,272.78L141.35,272.78c-0.89-0.77-4.13-4.13-5.12-4.85
				c-3.19-2.33-7.91-7.72-7.91-7.72l4.2-3.17c0,0-0.01-0.01-0.01-0.01c-0.43-0.03-6.63-0.46-5.9-1c0.76-0.57,0.82-1.75,1.89-3.67
				c0.21-0.38,0.47-0.71,0.74-1c-2.55,0.93-9.84,3.45-10.17,3.91c5.88,0.3,5.3,13.39,5.4,16.71c5.13,2.59,10.91,4.05,17.05,4.05
				c0.15,0,0.31-0.01,0.46-0.01c-0.03-0.21-0.05-0.42-0.08-0.64C141.83,274.87,141.52,273.62,141.35,272.78z"/>
			<path id="XMLID_164_" class="st100" d="M128.49,252.35c-1.08,1.92-1.13,3.1-1.89,3.67c-0.73,0.55,5.47,0.98,5.9,1
				c0.02,0,0.03,0,0.03,0l-0.02,0.01l-4.2,3.17c0,0,4.72,5.4,7.91,7.72c0.99,0.72,4.23,4.08,5.12,4.85l0,0
				c0.76-1.25,3.88-4.13,4.87-4.85c3.19-2.33,7.91-7.72,7.91-7.72l-4.21-3.18c0,0,6.69-0.44,5.93-1.01
				c-0.76-0.57-0.82-1.75-1.89-3.67c-0.2-0.35-0.43-0.66-0.68-0.93c-0.24-0.27-0.5-0.5-0.74-0.71c-0.42-0.35-0.8-0.6-1.01-0.79
				c-0.93-0.79-1.47-0.58-1.47-0.58s0.25,0.1,0.47,0.48c0.11,0.19,0.21,0.44,0.27,0.79c0.01,0.06,0.03,0.14,0.05,0.24
				c0.11,0.55,0.2,1.79-1.6,4.35c-1.19,1.68-3.92,6.56-5.84,10.84c-1.07,2.38-1.89,4.59-2.06,5.95c-0.17-1.42-1.09-3.76-2.26-6.26
				c-1.98-4.21-4.7-8.89-5.86-10.54c-1.71-2.43-1.71-3.67-1.61-4.26c0.02-0.14,0.05-0.25,0.07-0.32c0.07-0.39,0.19-0.67,0.31-0.86
				c0.17-0.27,0.35-0.37,0.41-0.4c0.01-0.01,0.02-0.01,0.02-0.01s-0.01,0-0.01,0c-0.05-0.02-0.57-0.17-1.46,0.59
				c-0.17,0.14-0.44,0.33-0.75,0.57c-0.3,0.23-0.63,0.52-0.95,0.86C128.97,251.64,128.71,251.97,128.49,252.35z"/>
			<path id="XMLID_163_" class="st100" d="M119.07,255.26c-0.34-0.02-1.45,5.12-2.57,11.31c2.41,2.12,5.08,3.93,7.98,5.39
				C124.36,268.66,124.95,255.57,119.07,255.26z"/>
			<path id="XMLID_162_" class="st100" d="M163.33,255.39c-5.5,2.43-5,13.87-5.15,16.78c2.97-1.45,5.71-3.29,8.18-5.44
				c-0.94-5.28-1.94-9.8-2.64-11.02C163.58,255.46,163.45,255.34,163.33,255.39z"/>
		</g>
	</g>
</g>
</svg>
