<?xml version="1.0" encoding="utf-8"?>
<!-- Generator: Adobe Illustrator 23.0.0, SVG Export Plug-In . SVG Version: 6.00 Build 0)  -->
<svg version="1.1" id="Capa_1" xmlns="http://www.w3.org/2000/svg" xmlns:xlink="http://www.w3.org/1999/xlink" x="0px" y="0px"
	 viewBox="0 0 400 702" style="enable-background:new 0 0 400 702;" xml:space="preserve">
<style type="text/css">
	.st0{fill:#0085B0;}
	.st1{fill:#E0EF18;}
	.st2{fill:#CECECE;}
	.st3{fill:#FFFFFF;}
	.st4{fill:#F2F2F2;}
	.st5{fill:#EACCB0;}
	.st6{fill:#9B9B9B;}
	.st7{fill:#939393;}
	.st8{fill:#EFEFEF;}
	.st9{fill:#828282;}
	.st10{fill:#2C2A2D;}
	.st11{fill:#202021;}
	.st12{fill:#F2D4B6;}
	.st13{fill:#534D46;}
	.st14{fill:#E8D313;}
	.st15{fill:#2ACCFF;}
	.st16{fill:#4E4F4F;}
	.st17{fill:#003A94;}
	.st18{fill:#00D13C;}
	.st19{fill:#15682A;}
	.st20{fill:#D40000;}
	.st21{fill:#505050;}
	.st22{fill:#DFDFDF;}
	.st23{fill:none;}
	.st24{fill:#636363;}
	.st25{fill:#6C92D5;}
	.st26{fill:#22272F;}
	.st27{fill:#1B2538;}
	.st28{fill:#253452;}
	.st29{fill:#F9F9F9;}
	.st30{fill:#2D3543;}
	.st31{fill:#2A3D60;}
	.st32{fill:#587955;}
	.st33{fill:#CD7054;}
	.st34{fill:#F1CC4B;}
	.st35{fill:#ACACAC;}
	.st36{fill:#AAE528;}
	.st37{fill:#28CEBA;}
	.st38{fill:#DB143F;}
	.st39{fill:#53C2C9;}
	.st40{fill:#FFB412;}
	.st41{fill:#866A5E;}
	.st42{fill:#F7DDCB;}
	.st43{fill:#FFE6D4;}
	.st44{fill:#F5F5F5;}
	.st45{fill:#1A2830;}
	.st46{fill:#24353F;}
	.st47{fill:#132026;}
	.st48{fill:#F9FF03;}
	.st49{fill:#272728;}
	.st50{fill:#1E1D1E;}
	.st51{fill:#160423;}
	.st52{fill-rule:evenodd;clip-rule:evenodd;fill:#FFFFFF;}
	.st53{fill-rule:evenodd;clip-rule:evenodd;fill:#1996B8;}
	.st54{fill:#0C387D;}
	.st55{fill:#C69A81;}
	.st56{fill:#D1A385;}
	.st57{fill:#EAEAEA;}
	.st58{fill:#093E8C;}
	.st59{fill:#0B2A62;}
	.st60{fill:#D32A3B;}
	.st61{fill:#827C7D;}
	.st62{opacity:0.7;fill:#7F7F7F;}
	.st63{fill:#FDFDFD;}
	.st64{fill:#DAA449;}
	.st65{fill:#DD9225;}
	.st66{opacity:0.3;}
	.st67{fill:#425793;}
	.st68{opacity:0.8;}
	.st69{filter:url(#Adobe_OpacityMaskFilter);}
	.st70{opacity:0.15;mask:url(#SVGID_1_);}
	.st71{fill:#090B00;}
	.st72{opacity:0.1;}
	.st73{fill:#211915;}
	.st74{filter:url(#Adobe_OpacityMaskFilter_1_);}
	.st75{opacity:0.15;mask:url(#SVGID_2_);}
	.st76{fill:#AF3623;}
	.st77{filter:url(#Adobe_OpacityMaskFilter_2_);}
	.st78{opacity:0.15;mask:url(#SVGID_3_);}
	.st79{filter:url(#Adobe_OpacityMaskFilter_3_);}
	.st80{opacity:0.15;mask:url(#SVGID_4_);}
	.st81{fill:#456495;}
	.st82{filter:url(#Adobe_OpacityMaskFilter_4_);}
	.st83{opacity:0.15;mask:url(#SVGID_5_);}
	.st84{filter:url(#Adobe_OpacityMaskFilter_5_);}
	.st85{opacity:0.15;mask:url(#SVGID_6_);}
	.st86{fill:#76A9DA;}
	.st87{filter:url(#Adobe_OpacityMaskFilter_6_);}
	.st88{opacity:0.15;mask:url(#SVGID_7_);}
	.st89{filter:url(#Adobe_OpacityMaskFilter_7_);}
	.st90{opacity:0.15;mask:url(#SVGID_8_);}
	.st91{fill:#1F3642;}
	.st92{fill:#A9BDDA;}
	.st93{opacity:0.46;fill:#A6B4BC;}
	.st94{fill:#74C475;}
	.st95{fill:#221F21;}
	.st96{fill:#2D2D2D;}
	.st97{fill:#1C1B1A;}
	.st98{fill:#77181C;}
	.st99{fill:#262525;}
	.st100{fill:#11100F;}
	.st101{opacity:0.18;}
	.st102{opacity:0.38;}
	.st103{fill:#0A5B1F;}
	.st104{opacity:0.27;}
	.st105{opacity:0.48;}
	.st106{fill:#0A4654;}
	.st107{fill:#C2C6C6;}
	.st108{fill:#E5E5E5;stroke:#FFFFFF;stroke-miterlimit:10;}
	.st109{fill:#ACB4B5;}
	.st110{fill:#7F8384;}
	.st111{fill:#15772F;}
	.st112{fill:#F4F4F4;}
	.st113{fill:#53B8DB;}
	.st114{fill:#06EF42;}
	.st115{fill:#E7ED07;}
	.st116{fill:#CCCCCA;}
	.st117{fill:#EADF13;}
	.st118{fill:#C2C2C2;}
	.st119{fill:#85B681;}
	.st120{fill:#A1DC9B;}
	.st121{fill:#90C58B;}
	.st122{fill:#22241F;}
	.st123{opacity:0.5;}
	.st124{fill:#A2CADE;}
	.st125{fill:#E9E9E9;}
	.st126{fill:#D9D9D9;}
	.st127{fill:#CDCDCD;}
	.st128{opacity:0.34;fill:#F0F0F0;}
	.st129{fill:#5A5B5A;}
	.st130{fill:#FFE600;}
	.st131{fill:#DB1F59;}
	.st132{fill:#727272;}
	.st133{fill:#207235;}
	.st134{fill:#A3A3A3;}
	.st135{fill:#BCBCBC;}
	.st136{fill:#0A511C;}
	.st137{fill:#F9FF00;}
	.st138{fill:#D59F6D;}
	.st139{fill:#C0804A;}
	.st140{fill:#E6BA8A;}
	.st141{fill:#BE3ACC;}
	.st142{fill:#FFFFFF;stroke:#443F0C;stroke-width:9;stroke-miterlimit:10;}
	.st143{fill:none;stroke:#443F0C;stroke-width:9;stroke-miterlimit:10;}
	.st144{fill:#170623;}
	.st145{fill:#158231;}
	.st146{fill:#C89D76;}
	.st147{opacity:0.4;}
	.st148{fill:#ADADAD;}
	.st149{fill:#EDC3A6;}
	.st150{opacity:0.69;}
	.st151{fill:#E5D3D6;}
	.st152{opacity:0.44;}
	.st153{fill:#A5A5A5;}
	.st154{fill:#DDE5E4;}
	.st155{fill:#5C9169;}
	.st156{fill:#934215;}
	.st157{fill:#47413B;}
	.st158{fill:#601A1F;}
	.st159{fill:#044554;}
	.st160{opacity:0.7;}
	.st161{fill:#7F7F7F;}
	.st162{fill:#6B8A69;}
	.st163{opacity:0.24;fill:#848D90;}
	.st164{opacity:0.4;fill:#848D90;}
	.st165{fill:#F2D5D5;}
	.st166{fill:#485CC1;}
	.st167{fill:#C6CBE0;}
	.st168{fill:#8B909E;}
	.st169{fill:#53BC1B;}
	.st170{fill:#11565B;}
	.st171{fill:#67A06D;}
	.st172{fill:#FFEC00;}
	.st173{fill:#77A007;}
	.st174{fill:#E50731;}
	.st175{fill:#266472;}
	.st176{fill:#D4D4D4;}
	.st177{fill:#0E9932;}
	.st178{fill:#87DD24;}
	.st179{fill:#76A172;}
	.st180{fill:#62835F;}
	.st181{fill:#96D090;}
	.st182{fill:#D6D6D6;}
	.st183{fill:#606060;}
	.st184{fill:#494949;}
	.st185{fill:#29E55A;}
	.st186{fill:#2C703D;}
	.st187{fill:#DD0744;}
	.st188{fill:#EDEDED;}
	.st189{fill:#2A5936;}
	.st190{fill:#B9BBC1;}
	.st191{fill:#FFD79E;}
	.st192{fill:#FFE6C2;}
	.st193{fill:#2CBB55;}
	.st194{fill:#5C412D;}
	.st195{fill:#EC0000;}
	.st196{fill:#DD2626;}
	.st197{fill:#EA9334;}
	.st198{fill:#FCC232;}
	.st199{fill:#F9B234;}
	.st200{fill:#F7A037;}
	.st201{fill:#E0E0E0;}
</style>
<g>
	<g>
		<path class="st18" d="M9.5,209.36c0,22,13.29,27.86,29.54,13.03c0,0,156.99-143.3,353.09,26.97V55c0-22-18-40-40-40H49.5
			c-22,0-40,18-40,40V209.36z"/>
	</g>
	<g>
		<path class="st18" d="M391.66,647c0,22-18,40-40,40H49.98c-22,0-40-18-40-40v-46.27c0-22,18-40,40-40h301.68c22,0,40,18,40,40V647
			z"/>
	</g>
	<polygon class="st1" points="200.76,96.93 214.23,124.22 244.34,128.59 222.55,149.83 227.7,179.83 200.76,165.67 173.83,179.83 
		178.97,149.83 157.18,128.59 187.29,124.22 	"/>
	<polygon class="st1" points="138.58,180.15 147.32,197.86 166.86,200.7 152.72,214.48 156.06,233.94 138.58,224.75 121.11,233.94 
		124.45,214.48 110.31,200.7 129.85,197.86 	"/>
	<polygon class="st1" points="268.68,180.15 277.42,197.86 296.95,200.7 282.82,214.48 286.15,233.94 268.68,224.75 251.2,233.94 
		254.54,214.48 240.4,200.7 259.94,197.86 	"/>
	<circle class="st2" cx="201.77" cy="213.97" r="121.96"/>
	<circle class="st3" cx="200.82" cy="200.58" r="121.96"/>
	<g>
		<path class="st3" d="M183.41,643.85c-3.55-0.92-6.5-2.21-8.83-3.87c-0.58-0.44-0.88-0.92-0.88-1.46c0-0.44,0.22-1.05,0.66-1.83
			l3.65-6.28c0.44-0.73,0.9-1.1,1.39-1.1c0.24,0,0.8,0.22,1.68,0.66c3.55,2,7.69,2.99,12.41,2.99c2.38,0,4.26-0.51,5.62-1.53
			c1.36-1.02,2.04-2.53,2.04-4.53c0-3.89-2.09-5.84-6.28-5.84c-1.31,0-2.67,0.11-4.05,0.33c-1.39,0.22-2.54,0.5-3.47,0.84
			c-1.41,0.49-2.92,0.73-4.53,0.73c-2.24,0-4.05-0.54-5.44-1.61c-1.39-1.07-2.01-2.68-1.86-4.82l1.17-18.4
			c0.1-1.26,0.44-2.19,1.02-2.77s1.63-0.88,3.14-0.88h31.17c1.56,0,2.62,0.33,3.18,0.99c0.56,0.66,0.84,1.71,0.84,3.18v4.16
			c0,1.46-0.28,2.52-0.84,3.18c-0.56,0.66-1.62,0.99-3.18,0.99h-21.32l-0.22,3.5c0.78-0.19,1.93-0.35,3.47-0.47
			c1.53-0.12,2.76-0.18,3.69-0.18c6.67,0,11.83,1.3,15.48,3.91s5.48,7,5.48,13.18c0,3.8-1.04,7.08-3.1,9.85s-4.92,4.88-8.54,6.31
			c-3.63,1.43-7.73,2.15-12.3,2.15C190.71,645.24,186.96,644.77,183.41,643.85z"/>
	</g>
	<g>
		<path d="M150.95,391.57c-0.35-0.25-0.64-0.7-0.88-1.33l-10.75-26.96c-0.15-0.39-0.23-0.72-0.23-0.99c0-0.63,0.33-0.95,0.99-0.95
			h8.46c0.93,0,1.51,0.41,1.75,1.22l4.59,14.67l4.59-14.67c0.24-0.81,0.82-1.22,1.75-1.22h8.46c0.66,0,0.99,0.32,0.99,0.95
			c0,0.27-0.08,0.6-0.23,0.99l-10.71,26.96c-0.24,0.63-0.53,1.07-0.88,1.33c-0.35,0.26-0.85,0.38-1.51,0.38h-4.91
			C151.8,391.95,151.29,391.83,150.95,391.57z"/>
		<path d="M173.54,391.32c-0.41-0.42-0.61-1.06-0.61-1.94v-25.47c0-0.87,0.2-1.51,0.61-1.93c0.4-0.42,1.1-0.63,2.09-0.63h18.63
			c0.96,0,1.61,0.2,1.96,0.61c0.34,0.41,0.52,1.06,0.52,1.96v2.52c0,0.9-0.17,1.55-0.52,1.96c-0.35,0.41-1,0.61-1.96,0.61h-10.53
			v3.87h6.48c0.96,0,1.61,0.2,1.96,0.61c0.35,0.41,0.52,1.06,0.52,1.96v2.43c0,0.9-0.17,1.55-0.52,1.96c-0.34,0.41-1,0.61-1.96,0.61
			h-6.48v3.87h10.49c0.96,0,1.61,0.2,1.96,0.61c0.34,0.41,0.52,1.06,0.52,1.96v2.52c0,0.9-0.17,1.55-0.52,1.96
			c-0.35,0.41-1,0.61-1.96,0.61h-18.58C174.64,391.95,173.94,391.74,173.54,391.32z"/>
		<path d="M199.37,391.32c-0.41-0.42-0.61-1.06-0.61-1.94v-25.51c0-0.87,0.2-1.51,0.61-1.91c0.41-0.4,1.12-0.61,2.14-0.61h4.28
			c0.63,0,1.12,0.08,1.46,0.25c0.34,0.17,0.68,0.49,1.01,0.97l8.14,12.1v-10.75c0-0.87,0.2-1.51,0.61-1.93
			c0.41-0.42,1.1-0.63,2.09-0.63h5.35c1.02,0,1.73,0.2,2.14,0.61c0.4,0.41,0.61,1.06,0.61,1.96v25.52c0,0.87-0.2,1.51-0.61,1.91
			c-0.41,0.41-1.12,0.61-2.14,0.61h-4.27c-0.63,0-1.12-0.08-1.46-0.25c-0.35-0.17-0.68-0.49-1.01-0.97l-8.14-12.11v10.8
			c0,0.87-0.2,1.51-0.61,1.91c-0.41,0.41-1.12,0.61-2.14,0.61h-5.35C200.47,391.95,199.77,391.74,199.37,391.32z"/>
		<path d="M238.11,391.32c-0.41-0.42-0.61-1.06-0.61-1.94V369h-6.48c-0.96,0-1.61-0.2-1.96-0.61c-0.34-0.4-0.52-1.06-0.52-1.96
			v-2.52c0-0.9,0.17-1.55,0.52-1.96c0.34-0.4,1-0.61,1.96-0.61h23.76c0.96,0,1.61,0.2,1.96,0.61c0.34,0.41,0.52,1.06,0.52,1.96v2.52
			c0,0.9-0.17,1.55-0.52,1.96c-0.35,0.41-1,0.61-1.96,0.61h-6.48v20.38c0,0.87-0.2,1.52-0.61,1.94c-0.4,0.42-1.12,0.63-2.14,0.63
			h-5.36C239.21,391.95,238.52,391.74,238.11,391.32z"/>
		<path d="M252.08,391.01c0-0.27,0.08-0.6,0.23-0.99l11.21-26.96c0.27-0.63,0.58-1.07,0.92-1.33c0.34-0.25,0.83-0.38,1.46-0.38h4.9
			c0.63,0,1.12,0.13,1.46,0.38c0.34,0.26,0.65,0.7,0.92,1.33l11.16,26.96c0.15,0.39,0.22,0.72,0.22,0.99c0,0.63-0.33,0.95-0.99,0.95
			h-8.46c-0.93,0-1.52-0.41-1.76-1.21l-1.08-3.33h-7.96l-1.04,3.33c-0.24,0.81-0.82,1.21-1.75,1.21h-8.46
			C252.41,391.95,252.08,391.64,252.08,391.01z M270.08,380.3l-1.75-5.58l-1.76,5.58H270.08z"/>
		<path d="M185.51,445.32c-0.4-0.42-0.61-1.06-0.61-1.94v-25.47c0-0.87,0.2-1.51,0.61-1.93c0.41-0.42,1.1-0.63,2.09-0.63h10.35
			c10.59,0,15.88,5.1,15.88,15.3c0,5.04-1.36,8.85-4.07,11.43c-2.72,2.58-6.65,3.87-11.81,3.87H187.6
			C186.61,445.95,185.91,445.74,185.51,445.32z M198.36,438.3c1.68,0,2.89-0.55,3.62-1.67c0.73-1.11,1.1-3.1,1.1-5.98
			s-0.37-4.88-1.1-5.99c-0.74-1.11-1.94-1.67-3.62-1.67h-2.65v15.3H198.36z"/>
		<path d="M216.69,445.32c-0.41-0.42-0.61-1.06-0.61-1.94v-25.47c0-0.87,0.2-1.51,0.61-1.93c0.4-0.42,1.1-0.63,2.09-0.63h18.63
			c0.96,0,1.61,0.2,1.96,0.61c0.34,0.4,0.52,1.06,0.52,1.96v2.52c0,0.9-0.17,1.55-0.52,1.96c-0.35,0.41-1,0.61-1.96,0.61h-10.53
			v3.87h6.48c0.96,0,1.61,0.2,1.96,0.61c0.35,0.41,0.52,1.06,0.52,1.96v2.43c0,0.9-0.17,1.55-0.52,1.96c-0.34,0.41-1,0.61-1.96,0.61
			h-6.48v3.87h10.49c0.96,0,1.61,0.2,1.96,0.61c0.34,0.41,0.52,1.06,0.52,1.96v2.52c0,0.9-0.17,1.55-0.52,1.96
			c-0.35,0.41-1,0.61-1.96,0.61h-18.58C217.79,445.95,217.1,445.74,216.69,445.32z"/>
		<path d="M117.24,499.77c-2.34-0.57-4.23-1.37-5.67-2.39c-0.6-0.42-0.9-0.82-0.9-1.21c0-0.27,0.1-0.55,0.32-0.85l2.61-4.1
			c0.27-0.39,0.54-0.58,0.81-0.58c0.24,0,0.52,0.11,0.85,0.32c1.08,0.66,2.32,1.18,3.71,1.55c1.4,0.38,2.75,0.56,4.07,0.56
			c1.11,0,1.91-0.15,2.41-0.45s0.74-0.76,0.74-1.4c0-0.69-0.33-1.24-0.99-1.66s-1.8-0.95-3.42-1.58c-3.03-1.17-5.42-2.5-7.15-3.98
			c-1.74-1.49-2.61-3.46-2.61-5.92c0-3.12,1.09-5.47,3.26-7.04c2.17-1.58,5.11-2.36,8.8-2.36c2.58,0,4.78,0.23,6.59,0.68
			c1.81,0.45,3.4,1.16,4.75,2.11c0.6,0.42,0.9,0.83,0.9,1.22c0,0.27-0.11,0.55-0.31,0.85l-2.61,4.09c-0.27,0.42-0.54,0.63-0.81,0.63
			c-0.18,0-0.47-0.12-0.86-0.36c-0.72-0.48-1.57-0.88-2.56-1.19c-0.99-0.32-2.06-0.47-3.2-0.47c-1.05,0-1.85,0.15-2.38,0.45
			c-0.54,0.3-0.81,0.78-0.81,1.44c0,0.54,0.19,0.99,0.56,1.35c0.38,0.36,0.85,0.67,1.42,0.92c0.57,0.26,1.56,0.67,2.97,1.24
			c2.25,0.9,4.02,1.76,5.31,2.59c1.29,0.83,2.27,1.82,2.93,2.97c0.66,1.16,0.99,2.62,0.99,4.39c0,2.7-1.01,4.88-3.04,6.55
			s-5.05,2.5-9.07,2.5C122.12,500.63,119.58,500.34,117.24,499.77z"/>
		<path d="M139.81,499.32c-0.41-0.42-0.61-1.06-0.61-1.94v-25.47c0-0.87,0.2-1.51,0.61-1.93s1.1-0.63,2.09-0.63h18.63
			c0.96,0,1.61,0.2,1.96,0.61c0.34,0.4,0.52,1.06,0.52,1.96v2.52c0,0.9-0.17,1.55-0.52,1.96s-1,0.61-1.96,0.61H150v3.87h6.48
			c0.96,0,1.61,0.2,1.96,0.61c0.34,0.41,0.52,1.06,0.52,1.96v2.43c0,0.9-0.17,1.55-0.52,1.96c-0.35,0.41-1,0.61-1.96,0.61H150v3.87
			h10.48c0.96,0,1.61,0.2,1.96,0.61c0.34,0.41,0.52,1.06,0.52,1.96v2.52c0,0.9-0.17,1.55-0.52,1.96s-1,0.61-1.96,0.61H141.9
			C140.91,499.95,140.22,499.74,139.81,499.32z"/>
		<path d="M166.65,496.6c-3.03-2.68-4.55-6.67-4.55-11.95c0-5.25,1.51-9.23,4.55-11.92c3.03-2.7,7.26-4.05,12.69-4.05
			c2.46,0,4.66,0.24,6.62,0.72c1.95,0.48,3.57,1.16,4.86,2.02c0.36,0.27,0.54,0.57,0.54,0.9c0,0.27-0.13,0.65-0.41,1.13l-2.25,3.87
			c-0.24,0.42-0.53,0.63-0.85,0.63c-0.21,0-0.56-0.12-1.04-0.36c-1.8-0.9-3.78-1.35-5.94-1.35c-2.49,0-4.45,0.71-5.87,2.14
			s-2.14,3.52-2.14,6.28c0,2.85,0.6,4.96,1.8,6.32c1.2,1.37,2.98,2.05,5.35,2.05c0.42,0,0.89-0.04,1.42-0.11
			c0.53-0.07,0.95-0.16,1.28-0.25v-4.09h-2.88c-0.96,0-1.61-0.19-1.96-0.56c-0.35-0.38-0.52-1.01-0.52-1.91v-2.47
			c0-0.9,0.17-1.54,0.52-1.91c0.34-0.38,1-0.56,1.96-0.56h9.68c1.17,0,1.98,0.26,2.43,0.79c0.45,0.53,0.68,1.36,0.68,2.5v10.53
			c0,0.66-0.08,1.16-0.25,1.51c-0.17,0.34-0.49,0.7-0.97,1.06c-2.88,2.07-6.89,3.1-12.02,3.1
			C173.93,500.63,169.68,499.29,166.65,496.6z"/>
		<path d="M201.66,499.21c-2.22-0.95-3.95-2.31-5.18-4.1c-1.23-1.78-1.84-3.91-1.84-6.37v-16.83c0-0.87,0.2-1.51,0.61-1.93
			s1.1-0.63,2.09-0.63h5.35c1.02,0,1.73,0.2,2.14,0.61c0.4,0.4,0.61,1.06,0.61,1.96v16.96c0,1.41,0.35,2.46,1.06,3.15
			c0.7,0.69,1.67,1.04,2.9,1.04c1.23,0,2.2-0.34,2.9-1.04c0.7-0.69,1.06-1.74,1.06-3.15v-16.96c0-0.87,0.2-1.51,0.61-1.93
			c0.41-0.42,1.1-0.63,2.09-0.63h5.35c1.02,0,1.73,0.2,2.14,0.61c0.4,0.4,0.61,1.06,0.61,1.96v16.83c0,2.46-0.62,4.58-1.85,6.37
			c-1.23,1.79-2.96,3.15-5.17,4.1c-2.22,0.94-4.8,1.42-7.74,1.42S203.88,500.15,201.66,499.21z"/>
		<path d="M227.7,499.32c-0.41-0.42-0.61-1.06-0.61-1.94v-25.47c0-0.87,0.2-1.51,0.61-1.93c0.4-0.42,1.1-0.63,2.09-0.63h10.76
			c4.5,0,7.78,0.89,9.83,2.68c2.05,1.79,3.08,4.48,3.08,8.08c0,2.16-0.37,3.98-1.1,5.47c-0.74,1.49-1.87,2.65-3.4,3.49l4.19,8.96
			c0.12,0.24,0.18,0.51,0.18,0.81c0,0.33-0.11,0.6-0.34,0.81c-0.23,0.21-0.52,0.32-0.88,0.32h-7.6c-0.48,0-0.86-0.07-1.15-0.2
			c-0.29-0.14-0.49-0.37-0.61-0.7l-3.33-8.37h-1.53v6.7c0,0.87-0.2,1.52-0.61,1.94s-1.12,0.63-2.14,0.63h-5.36
			C228.8,499.95,228.1,499.74,227.7,499.32z M239.6,483.17c0.96,0,1.72-0.25,2.27-0.76c0.55-0.51,0.83-1.28,0.83-2.29
			c0-1.05-0.28-1.83-0.83-2.34c-0.56-0.51-1.31-0.77-2.27-0.77h-3.06v6.17H239.6z"/>
		<path d="M258.95,496.46c-2.76-2.77-4.14-6.71-4.14-11.81c0-5.1,1.38-9.04,4.14-11.81c2.76-2.77,6.81-4.16,12.15-4.16
			s9.39,1.39,12.15,4.16c2.76,2.78,4.14,6.71,4.14,11.81c0,5.1-1.38,9.04-4.14,11.81c-2.76,2.78-6.81,4.16-12.15,4.16
			S261.71,499.24,258.95,496.46z M275.33,490.97c0.87-1.39,1.31-3.5,1.31-6.32c0-2.85-0.44-4.96-1.31-6.34s-2.28-2.07-4.23-2.07
			c-1.95,0-3.36,0.69-4.23,2.07s-1.3,3.5-1.3,6.34c0,2.82,0.43,4.93,1.3,6.32c0.87,1.4,2.28,2.09,4.23,2.09
			C273.05,493.07,274.46,492.37,275.33,490.97z"/>
		<path d="M293.33,499.77c-2.34-0.57-4.23-1.37-5.67-2.39c-0.6-0.42-0.9-0.82-0.9-1.21c0-0.27,0.1-0.55,0.31-0.85l2.61-4.1
			c0.27-0.39,0.54-0.58,0.81-0.58c0.24,0,0.52,0.11,0.86,0.32c1.08,0.66,2.32,1.18,3.71,1.55s2.75,0.56,4.07,0.56
			c1.11,0,1.91-0.15,2.41-0.45c0.5-0.3,0.74-0.76,0.74-1.4c0-0.69-0.33-1.24-0.99-1.66c-0.66-0.42-1.8-0.95-3.42-1.58
			c-3.03-1.17-5.42-2.5-7.16-3.98c-1.74-1.49-2.61-3.46-2.61-5.92c0-3.12,1.09-5.47,3.26-7.04c2.18-1.58,5.11-2.36,8.8-2.36
			c2.58,0,4.78,0.23,6.59,0.68c1.81,0.45,3.4,1.16,4.75,2.11c0.6,0.42,0.9,0.83,0.9,1.22c0,0.27-0.11,0.55-0.32,0.85l-2.61,4.09
			c-0.27,0.42-0.54,0.63-0.81,0.63c-0.18,0-0.46-0.12-0.86-0.36c-0.72-0.48-1.57-0.88-2.56-1.19c-0.99-0.32-2.05-0.47-3.2-0.47
			c-1.05,0-1.84,0.15-2.38,0.45c-0.54,0.3-0.81,0.78-0.81,1.44c0,0.54,0.19,0.99,0.56,1.35c0.37,0.36,0.85,0.67,1.42,0.92
			c0.57,0.26,1.56,0.67,2.97,1.24c2.25,0.9,4.02,1.76,5.31,2.59s2.26,1.82,2.92,2.97c0.66,1.16,0.99,2.62,0.99,4.39
			c0,2.7-1.01,4.88-3.04,6.55c-2.03,1.67-5.05,2.5-9.07,2.5C298.2,500.63,295.67,500.34,293.33,499.77z"/>
	</g>
	<g>
		<path class="st3" d="M216.73,161.93c-0.8-0.8-1.2-1.77-1.2-2.9v-1.47c0-1.13,0.4-2.1,1.2-2.9c0.8-0.8,1.96-1.2,3.49-1.2h5.1
			c1.53,0,2.7,0.4,3.52,1.2c0.82,0.8,1.23,1.77,1.23,2.9v1.47c0,1.13-0.41,2.1-1.23,2.9c-0.82,0.8-2,1.2-3.52,1.2h-5.1
			C218.7,163.13,217.53,162.73,216.73,161.93z M216.55,192.53c-0.53-0.55-0.79-1.39-0.79-2.52v-21.47c0-1.13,0.26-1.97,0.79-2.52
			c0.53-0.55,1.44-0.82,2.73-0.82h6.98c1.33,0,2.26,0.26,2.79,0.79s0.79,1.38,0.79,2.55v21.47c0,1.13-0.26,1.98-0.79,2.52
			s-1.46,0.82-2.79,0.82h-6.98C217.99,193.35,217.08,193.08,216.55,192.53z"/>
	</g>
	<g>
		<path class="st62" d="M255.52,223.21c-0.18,0.01-0.35,0.02-0.53,0.03c7.92-22.61-4.05-53.38-27.85-61.98
			c11.04-5.31,13.74-16.23,13.74-16.23s-4.26-3.59-9.2-5.16c-4.94-1.57-2.02,4.94-6.73,3.14c-9.97-3.8-6.51,2.24-11.22,2.24
			c-4.71,0-8.52-5.38-8.52-5.38c-3.59,0-9.65,4.71-16.6,5.38c3.04,8.53,7.42,13.26,12.12,15.86c-23.77,8.3-35.92,38.63-28.53,61.29
			c-1.85-0.01-3.68-0.02-5.46-0.02v-3.7h-4.73v-3.98h-32.47v26.92v26.99v0.09h32.47v-0.09v-3.88h4.73v-2.46
			c6.69,2.21,13.24,4.73,20.39,6.74c6.91,1.88,15.8,3.03,22.71,3.03c7.95,0,15.59-2.61,23.34-4.08c3.55-0.63,7.74-0.21,10.46-2.93
			c2.09-1.88,3.35-5.24,5.23-7.33c4.18-4.6,11.42-12,12.77-14.02c0.84-1.27,1.45-7.96,2.09-11.93c0.48-3.86,1.31-8.2,1.63-12.97
			C260.76,218.78,257.79,218.94,255.52,223.21z"/>
		<g>
			<g>
				<path class="st146" d="M253.89,221.58c-0.2,0.37-0.39,0.78-0.58,1.22c-1.58,3.34-4.06,8.47-4.68,12.63
					c-2.32,1.84-4.59,3.44-6.62,5.16c-1.86,1.43-4.7,3.05-6.85,4.81h-24.3c0.41-0.12,0.82-0.23,1.22-0.32
					c2.61-0.52,5.34-1.15,7.95-1.67c3.6-0.64,7.7-2.01,11.52-2.46c1.7-1.2,3.54-2.22,5.33-3.18c2.1-1.17,3.8-2.75,5.61-4.25
					c0.87-2.9,1.54-6.15,3.18-8.52C247.47,222.54,250.82,221.68,253.89,221.58z"/>
			</g>
			<g class="st147">
				<g>
					<path class="st148" d="M253.89,221.58c-0.2,0.37-0.39,0.78-0.58,1.22c-1.58,3.34-4.06,8.47-4.68,12.63
						c-2.32,1.84-4.59,3.44-6.62,5.16c-1.86,1.43-4.7,3.05-6.85,4.81h-24.3c0.41-0.12,0.82-0.23,1.22-0.32
						c2.61-0.52,5.34-1.15,7.95-1.67c3.6-0.64,7.7-2.01,11.52-2.46c1.7-1.2,3.54-2.22,5.33-3.18c2.1-1.17,3.8-2.75,5.61-4.25
						c0.87-2.9,1.54-6.15,3.18-8.52C247.47,222.54,250.82,221.68,253.89,221.58z"/>
				</g>
			</g>
			<g>
				<path class="st179" d="M212.11,162.47c-8.52,0-19.3-2.47-25.13-18.84c6.95-0.67,13.01-5.38,16.6-5.38c0,0,3.81,5.38,8.52,5.38
					c4.71,0,1.25-6.04,11.22-2.24c4.71,1.8,1.79-4.71,6.73-3.14c4.93,1.57,9.2,5.16,9.2,5.16S234.55,162.47,212.11,162.47z"/>
				<path class="st180" d="M212.11,247.05c65.95,0,50.02-89.73,0-89.73C162.08,157.32,146.16,247.05,212.11,247.05z"/>
				<path class="st181" d="M212.11,239.87c-29.57,0-40.11-18.97-40.11-36.73c0-22.04,15.34-45.83,40.11-45.83
					c24.77,0,40.1,23.79,40.1,45.83c0,10.08-3.31,19.14-9.33,25.5C235.92,235.99,225.28,239.87,212.11,239.87z"/>
				<path class="st179" d="M254.02,204.93c0,10.55-3.5,20.05-9.84,26.74c-7.3,7.7-18.39,11.77-32.07,11.77
					c-30.89,0-41.91-19.89-41.91-38.52c0-22.9,16.02-47.63,41.91-47.63C237.99,157.31,254.02,182.04,254.02,204.93z"/>
				<path class="st121" d="M254.02,204.93c0,10.55-3.5,20.05-9.84,26.74c-7.3,7.7-18.39,11.77-32.07,11.77v-86.14
					C237.99,157.31,254.02,182.04,254.02,204.93z"/>
				<g>
					<path class="st3" d="M210.82,216.79v-4.31c-2.25-0.14-4.07-0.41-5.45-0.79c-1.39-0.38-2.54-0.74-3.45-1.08v-7.11h7.9
						c0,0.72,0.14,1.25,0.43,1.6c0.29,0.35,0.88,0.52,1.79,0.52c0.79,0,1.35-0.12,1.69-0.36c0.34-0.24,0.5-0.6,0.5-1.08
						c0-0.34-0.14-0.63-0.41-0.88c-0.27-0.25-0.83-0.55-1.67-0.88c-1.77-0.67-3.32-1.31-4.65-1.92c-1.33-0.61-2.43-1.29-3.3-2.03
						c-0.87-0.74-1.53-1.61-1.96-2.6c-0.43-0.99-0.65-2.2-0.65-3.61c0-1.17,0.16-2.24,0.48-3.21c0.32-0.97,0.84-1.82,1.56-2.55
						c0.72-0.73,1.66-1.33,2.83-1.79c1.17-0.47,2.62-0.78,4.34-0.95v-4.13h4.7v4.06c1.13,0.07,2.12,0.19,2.98,0.34
						c0.86,0.16,1.65,0.34,2.37,0.54c0.72,0.2,1.38,0.42,1.98,0.65c0.6,0.23,1.09,0.46,1.47,0.7v6.43h-7.54
						c0-0.69-0.19-1.17-0.57-1.42c-0.38-0.25-0.85-0.38-1.4-0.38c-0.79,0-1.36,0.1-1.71,0.31c-0.35,0.2-0.52,0.56-0.52,1.06
						c0,0.41,0.19,0.71,0.56,0.9c0.37,0.19,0.93,0.41,1.67,0.65c1.39,0.45,2.7,0.93,3.93,1.44c1.23,0.5,2.32,1.13,3.25,1.87
						c0.93,0.74,1.67,1.64,2.21,2.69c0.54,1.05,0.81,2.35,0.81,3.88c0,2.75-0.8,4.89-2.41,6.41c-1.6,1.52-3.96,2.42-7.07,2.71v4.34
						H210.82z"/>
				</g>
				<path class="st121" d="M239.25,143.41c0,0-4.26-3.59-9.2-5.16c-4.94-1.57-2.02,4.94-6.73,3.14c-9.97-3.8-6.51,2.24-11.22,2.24
					v18.84C234.55,162.47,239.25,143.41,239.25,143.41z"/>
			</g>
			<g>
				<path class="st149" d="M263.73,217.15c-0.32,4.77-1.15,9.11-1.63,12.97c-0.63,3.98-1.25,10.66-2.09,11.93
					c-1.35,2.02-8.59,9.41-12.77,14.02c-1.88,2.09-3.14,5.45-5.23,7.33c-2.72,2.72-6.91,2.3-10.46,2.93
					c-7.75,1.47-15.38,4.08-23.34,4.08c-6.91,0-15.81-1.15-22.71-3.03c-12.69-3.57-23.5-8.79-36.54-10.92v-35.48
					c11.4-0.57,46.05,0.15,52.66,0.15c5.11,0,13.83,0.97,19.62,1.22c7.73,17.49-19.48,11.71-32.21,15.44
					c3.82,6.53,12.11,7.62,19.5,7.62h26.64c2.15-1.76,4.99-3.38,6.85-4.81c2.03-1.72,4.3-3.32,6.62-5.16
					c0.62-4.16,3.1-9.29,4.68-12.63c0.19-0.44,0.39-0.85,0.58-1.22C256.16,217.31,259.13,217.15,263.73,217.15z"/>
			</g>
			<g class="st150">
				<g>
					<path class="st151" d="M221.94,226.86l-5.94,1.18c-1.47,0-3.59,0.47-4.61-0.54c-0.63-0.65-0.91-2.12-1.19-2.85
						c-0.42-0.97-1-2.06-1.34-3.18c4.03,0.31,8.37,0.69,11.73,0.84C221.15,222.74,222.03,225.28,221.94,226.86z"/>
				</g>
			</g>
			<g>
				<rect x="139.84" y="217.06" class="st3" width="25.27" height="46.04"/>
			</g>
			<g>
				<polygon class="st28" points="127.91,267.07 160.38,267.07 160.38,266.98 160.38,263.09 160.38,239.99 160.38,217.06 
					160.38,213.08 127.91,213.08 127.91,239.99 127.91,266.98 				"/>
			</g>
			<g class="st152">
				<rect x="127.91" y="239.99" class="st153" width="32.47" height="26.99"/>
			</g>
			<g>
				<path class="st154" d="M149.48,255.68c0,2.95-2.39,5.33-5.34,5.33c-2.95,0-5.34-2.39-5.34-5.33c0-2.95,2.39-5.34,5.34-5.34
					C147.09,250.34,149.48,252.73,149.48,255.68z"/>
			</g>
		</g>
	</g>
</g>
</svg>
