<?xml version="1.0" encoding="utf-8"?>
<!-- Generator: Adobe Illustrator 23.0.0, SVG Export Plug-In . SVG Version: 6.00 Build 0)  -->
<svg version="1.1" id="Capa_1" xmlns="http://www.w3.org/2000/svg" xmlns:xlink="http://www.w3.org/1999/xlink" x="0px" y="0px"
	 viewBox="0 0 400 702" style="enable-background:new 0 0 400 702;" xml:space="preserve">
<style type="text/css">
	.st0{fill:#0085B0;}
	.st1{fill:#E0EF18;}
	.st2{fill:#CECECE;}
	.st3{fill:#FFFFFF;}
	.st4{fill:#F2F2F2;}
	.st5{fill:#EACCB0;}
	.st6{fill:#9B9B9B;}
	.st7{fill:#939393;}
	.st8{fill:#EFEFEF;}
	.st9{fill:#828282;}
	.st10{fill:#2C2A2D;}
	.st11{fill:#202021;}
	.st12{fill:#F2D4B6;}
	.st13{fill:#534D46;}
	.st14{fill:#E8D313;}
	.st15{fill:#2ACCFF;}
	.st16{fill:#4E4F4F;}
	.st17{fill:#003A94;}
	.st18{fill:#00D13C;}
	.st19{fill:#15682A;}
	.st20{fill:#D40000;}
	.st21{fill:#505050;}
	.st22{fill:#DFDFDF;}
	.st23{fill:none;}
	.st24{fill:#636363;}
	.st25{fill:#6C92D5;}
	.st26{fill:#22272F;}
	.st27{fill:#1B2538;}
	.st28{fill:#253452;}
	.st29{fill:#F9F9F9;}
	.st30{fill:#2D3543;}
	.st31{fill:#2A3D60;}
	.st32{fill:#587955;}
	.st33{fill:#CD7054;}
	.st34{fill:#F1CC4B;}
	.st35{fill:#ACACAC;}
	.st36{fill:#AAE528;}
	.st37{fill:#28CEBA;}
	.st38{fill:#DB143F;}
	.st39{fill:#53C2C9;}
	.st40{fill:#FFB412;}
	.st41{fill:#866A5E;}
	.st42{fill:#F7DDCB;}
	.st43{fill:#FFE6D4;}
	.st44{fill:#F5F5F5;}
	.st45{fill:#1A2830;}
	.st46{fill:#24353F;}
	.st47{fill:#132026;}
	.st48{fill:#F9FF03;}
	.st49{fill:#272728;}
	.st50{fill:#1E1D1E;}
	.st51{fill:#160423;}
	.st52{fill-rule:evenodd;clip-rule:evenodd;fill:#FFFFFF;}
	.st53{fill-rule:evenodd;clip-rule:evenodd;fill:#1996B8;}
	.st54{fill:#0C387D;}
	.st55{fill:#C69A81;}
	.st56{fill:#D1A385;}
	.st57{fill:#EAEAEA;}
	.st58{fill:#093E8C;}
	.st59{fill:#0B2A62;}
	.st60{fill:#D32A3B;}
	.st61{fill:#827C7D;}
	.st62{opacity:0.7;fill:#7F7F7F;}
	.st63{fill:#FDFDFD;}
	.st64{fill:#DAA449;}
	.st65{fill:#DD9225;}
	.st66{opacity:0.3;}
	.st67{fill:#425793;}
	.st68{opacity:0.8;}
	.st69{filter:url(#Adobe_OpacityMaskFilter);}
	.st70{opacity:0.15;mask:url(#SVGID_1_);}
	.st71{fill:#090B00;}
	.st72{opacity:0.1;}
	.st73{fill:#211915;}
	.st74{filter:url(#Adobe_OpacityMaskFilter_1_);}
	.st75{opacity:0.15;mask:url(#SVGID_2_);}
	.st76{fill:#AF3623;}
	.st77{filter:url(#Adobe_OpacityMaskFilter_2_);}
	.st78{opacity:0.15;mask:url(#SVGID_3_);}
	.st79{filter:url(#Adobe_OpacityMaskFilter_3_);}
	.st80{opacity:0.15;mask:url(#SVGID_4_);}
	.st81{fill:#456495;}
	.st82{filter:url(#Adobe_OpacityMaskFilter_4_);}
	.st83{opacity:0.15;mask:url(#SVGID_5_);}
	.st84{filter:url(#Adobe_OpacityMaskFilter_5_);}
	.st85{opacity:0.15;mask:url(#SVGID_6_);}
	.st86{fill:#76A9DA;}
	.st87{filter:url(#Adobe_OpacityMaskFilter_6_);}
	.st88{opacity:0.15;mask:url(#SVGID_7_);}
	.st89{filter:url(#Adobe_OpacityMaskFilter_7_);}
	.st90{opacity:0.15;mask:url(#SVGID_8_);}
	.st91{fill:#1F3642;}
	.st92{fill:#A9BDDA;}
	.st93{opacity:0.46;fill:#A6B4BC;}
	.st94{fill:#74C475;}
	.st95{fill:#221F21;}
	.st96{fill:#2D2D2D;}
	.st97{fill:#1C1B1A;}
	.st98{fill:#77181C;}
	.st99{fill:#262525;}
	.st100{fill:#11100F;}
	.st101{opacity:0.18;}
	.st102{opacity:0.38;}
	.st103{fill:#0A5B1F;}
	.st104{opacity:0.27;}
	.st105{opacity:0.48;}
	.st106{fill:#0A4654;}
	.st107{fill:#C2C6C6;}
	.st108{fill:#E5E5E5;stroke:#FFFFFF;stroke-miterlimit:10;}
	.st109{fill:#ACB4B5;}
	.st110{fill:#7F8384;}
	.st111{fill:#15772F;}
	.st112{fill:#F4F4F4;}
	.st113{fill:#53B8DB;}
	.st114{fill:#06EF42;}
	.st115{fill:#E7ED07;}
	.st116{fill:#CCCCCA;}
	.st117{fill:#EADF13;}
	.st118{fill:#C2C2C2;}
	.st119{fill:#85B681;}
	.st120{fill:#A1DC9B;}
	.st121{fill:#90C58B;}
	.st122{fill:#22241F;}
	.st123{opacity:0.5;}
	.st124{fill:#A2CADE;}
	.st125{fill:#E9E9E9;}
	.st126{fill:#D9D9D9;}
	.st127{fill:#CDCDCD;}
	.st128{opacity:0.34;fill:#F0F0F0;}
	.st129{fill:#5A5B5A;}
	.st130{fill:#FFE600;}
	.st131{fill:#DB1F59;}
	.st132{fill:#727272;}
	.st133{fill:#207235;}
	.st134{fill:#A3A3A3;}
	.st135{fill:#BCBCBC;}
	.st136{fill:#0A511C;}
	.st137{fill:#F9FF00;}
	.st138{fill:#D59F6D;}
	.st139{fill:#C0804A;}
	.st140{fill:#E6BA8A;}
	.st141{fill:#BE3ACC;}
	.st142{fill:#FFFFFF;stroke:#443F0C;stroke-width:9;stroke-miterlimit:10;}
	.st143{fill:none;stroke:#443F0C;stroke-width:9;stroke-miterlimit:10;}
	.st144{fill:#170623;}
	.st145{fill:#158231;}
	.st146{fill:#C89D76;}
	.st147{opacity:0.4;}
	.st148{fill:#ADADAD;}
	.st149{fill:#EDC3A6;}
	.st150{opacity:0.69;}
	.st151{fill:#E5D3D6;}
	.st152{opacity:0.44;}
	.st153{fill:#A5A5A5;}
	.st154{fill:#DDE5E4;}
	.st155{fill:#5C9169;}
	.st156{fill:#934215;}
	.st157{fill:#47413B;}
	.st158{fill:#601A1F;}
	.st159{fill:#044554;}
	.st160{opacity:0.7;}
	.st161{fill:#7F7F7F;}
	.st162{fill:#6B8A69;}
	.st163{opacity:0.24;fill:#848D90;}
	.st164{opacity:0.4;fill:#848D90;}
	.st165{fill:#F2D5D5;}
	.st166{fill:#485CC1;}
	.st167{fill:#C6CBE0;}
	.st168{fill:#8B909E;}
	.st169{fill:#53BC1B;}
	.st170{fill:#11565B;}
	.st171{fill:#67A06D;}
	.st172{fill:#FFEC00;}
	.st173{fill:#77A007;}
	.st174{fill:#E50731;}
	.st175{fill:#266472;}
	.st176{fill:#D4D4D4;}
	.st177{fill:#0E9932;}
	.st178{fill:#87DD24;}
	.st179{fill:#76A172;}
	.st180{fill:#62835F;}
	.st181{fill:#96D090;}
	.st182{fill:#D6D6D6;}
	.st183{fill:#606060;}
	.st184{fill:#494949;}
	.st185{fill:#29E55A;}
	.st186{fill:#2C703D;}
	.st187{fill:#DD0744;}
	.st188{fill:#EDEDED;}
	.st189{fill:#2A5936;}
	.st190{fill:#B9BBC1;}
	.st191{fill:#FFD79E;}
	.st192{fill:#FFE6C2;}
	.st193{fill:#2CBB55;}
	.st194{fill:#5C412D;}
	.st195{fill:#EC0000;}
	.st196{fill:#DD2626;}
	.st197{fill:#EA9334;}
	.st198{fill:#FCC232;}
	.st199{fill:#F9B234;}
	.st200{fill:#F7A037;}
	.st201{fill:#E0E0E0;}
</style>
<g>
	<g>
		<path class="st0" d="M9.5,209.36c0,22,13.29,27.86,29.54,13.03c0,0,156.99-143.3,353.09,26.97V55c0-22-18-40-40-40H49.5
			c-22,0-40,18-40,40V209.36z"/>
	</g>
	<g>
		<path class="st0" d="M391.66,647c0,22-18,40-40,40H49.98c-22,0-40-18-40-40v-46.27c0-22,18-40,40-40h301.68c22,0,40,18,40,40V647z
			"/>
	</g>
	<g>
		<path d="M134.75,380.82c-1.66-0.41-3.01-0.97-4.03-1.7c-0.43-0.3-0.64-0.59-0.64-0.86c0-0.19,0.07-0.39,0.22-0.61l1.86-2.91
			c0.19-0.28,0.38-0.42,0.58-0.42c0.17,0,0.37,0.08,0.61,0.22c0.77,0.47,1.65,0.84,2.64,1.1s1.96,0.4,2.9,0.4
			c0.79,0,1.36-0.11,1.71-0.32s0.53-0.54,0.53-0.99c0-0.49-0.23-0.88-0.7-1.18c-0.47-0.3-1.28-0.67-2.43-1.12
			c-2.15-0.83-3.85-1.78-5.09-2.83c-1.24-1.06-1.86-2.46-1.86-4.21c0-2.22,0.77-3.89,2.32-5.01c1.55-1.12,3.63-1.68,6.26-1.68
			c1.83,0,3.4,0.16,4.69,0.48c1.29,0.32,2.42,0.82,3.38,1.5c0.43,0.3,0.64,0.59,0.64,0.86c0,0.19-0.08,0.39-0.22,0.61l-1.86,2.91
			c-0.19,0.3-0.38,0.45-0.58,0.45c-0.13,0-0.33-0.08-0.61-0.26c-0.51-0.34-1.12-0.62-1.82-0.85c-0.7-0.22-1.46-0.34-2.27-0.34
			c-0.75,0-1.31,0.11-1.7,0.32c-0.38,0.21-0.58,0.55-0.58,1.02c0,0.38,0.13,0.7,0.4,0.96c0.27,0.26,0.6,0.47,1.01,0.66
			c0.41,0.18,1.11,0.48,2.11,0.88c1.6,0.64,2.86,1.25,3.78,1.84c0.92,0.59,1.61,1.29,2.08,2.11c0.47,0.82,0.7,1.86,0.7,3.12
			c0,1.92-0.72,3.47-2.16,4.66c-1.44,1.18-3.59,1.78-6.45,1.78C138.21,381.43,136.41,381.23,134.75,380.82z"/>
		<path d="M152.67,378.47c-1.96-1.97-2.94-4.77-2.94-8.4s0.98-6.43,2.94-8.4c1.96-1.97,4.84-2.96,8.64-2.96
			c3.8,0,6.68,0.99,8.64,2.96c1.96,1.97,2.94,4.77,2.94,8.4s-0.98,6.43-2.94,8.4c-1.96,1.97-4.84,2.96-8.64,2.96
			C157.51,381.43,154.63,380.45,152.67,378.47z M164.31,374.57c0.62-0.99,0.93-2.49,0.93-4.5c0-2.03-0.31-3.53-0.93-4.51
			s-1.62-1.47-3.01-1.47c-1.39,0-2.39,0.49-3.01,1.47c-0.62,0.98-0.93,2.49-0.93,4.51c0,2.01,0.31,3.5,0.93,4.5
			c0.62,0.99,1.62,1.49,3.01,1.49C162.69,376.06,163.69,375.56,164.31,374.57z"/>
		<path d="M174.92,380.5c-0.29-0.3-0.43-0.76-0.43-1.38v-18.11c0-0.62,0.14-1.08,0.43-1.38c0.29-0.3,0.78-0.45,1.49-0.45h7.65
			c3.2,0,5.53,0.63,6.99,1.9c1.46,1.27,2.19,3.18,2.19,5.74c0,2.56-0.73,4.47-2.19,5.73c-1.46,1.26-3.78,1.89-6.96,1.89h-1.92v4.67
			c0,0.62-0.14,1.08-0.43,1.38c-0.29,0.3-0.79,0.45-1.52,0.45h-3.81C175.71,380.95,175.21,380.8,174.92,380.5z M183.39,369.02
			c0.68,0,1.22-0.18,1.62-0.54c0.39-0.36,0.59-0.91,0.59-1.63c0-0.75-0.2-1.3-0.59-1.66c-0.4-0.36-0.93-0.54-1.62-0.54h-2.18v4.38
			H183.39z"/>
		<path d="M195.71,378.47c-1.96-1.97-2.94-4.77-2.94-8.4s0.98-6.43,2.94-8.4c1.96-1.97,4.84-2.96,8.64-2.96
			c3.8,0,6.68,0.99,8.64,2.96c1.96,1.97,2.94,4.77,2.94,8.4s-0.98,6.43-2.94,8.4c-1.96,1.97-4.84,2.96-8.64,2.96
			C200.55,381.43,197.67,380.45,195.71,378.47z M207.35,374.57c0.62-0.99,0.93-2.49,0.93-4.5c0-2.03-0.31-3.53-0.93-4.51
			s-1.62-1.47-3.01-1.47c-1.39,0-2.39,0.49-3.01,1.47c-0.62,0.98-0.93,2.49-0.93,4.51c0,2.01,0.31,3.5,0.93,4.5
			c0.62,0.99,1.62,1.49,3.01,1.49C205.73,376.06,206.73,375.56,207.35,374.57z"/>
		<path d="M217.96,380.5c-0.29-0.3-0.43-0.76-0.43-1.38v-18.11c0-0.62,0.14-1.08,0.43-1.38c0.29-0.3,0.78-0.45,1.49-0.45h7.65
			c3.2,0,5.53,0.63,6.99,1.9c1.46,1.27,2.19,3.18,2.19,5.74c0,1.54-0.26,2.83-0.78,3.89c-0.52,1.06-1.33,1.88-2.42,2.48l2.98,6.37
			c0.08,0.17,0.13,0.36,0.13,0.58c0,0.23-0.08,0.43-0.24,0.58c-0.16,0.15-0.37,0.22-0.62,0.22h-5.41c-0.34,0-0.61-0.05-0.82-0.14
			c-0.2-0.1-0.35-0.26-0.43-0.5l-2.37-5.95h-1.09v4.77c0,0.62-0.14,1.08-0.43,1.38c-0.29,0.3-0.79,0.45-1.52,0.45h-3.81
			C218.75,380.95,218.25,380.8,217.96,380.5z M226.43,369.02c0.68,0,1.22-0.18,1.62-0.54c0.39-0.36,0.59-0.91,0.59-1.63
			c0-0.75-0.2-1.3-0.59-1.66c-0.4-0.36-0.93-0.54-1.62-0.54h-2.18v4.38H226.43z"/>
		<path d="M242.28,380.5c-0.29-0.3-0.43-0.76-0.43-1.38v-14.5h-4.61c-0.68,0-1.15-0.14-1.39-0.43s-0.37-0.75-0.37-1.39v-1.79
			c0-0.64,0.12-1.1,0.37-1.39s0.71-0.43,1.39-0.43h16.9c0.68,0,1.15,0.14,1.39,0.43c0.24,0.29,0.37,0.75,0.37,1.39v1.79
			c0,0.64-0.12,1.1-0.37,1.39c-0.25,0.29-0.71,0.43-1.39,0.43h-4.61v14.5c0,0.62-0.14,1.08-0.43,1.38c-0.29,0.3-0.79,0.45-1.52,0.45
			h-3.81C243.06,380.95,242.57,380.8,242.28,380.5z"/>
		<path d="M257.29,380.5c-0.29-0.3-0.43-0.76-0.43-1.38v-18.11c0-0.62,0.14-1.08,0.43-1.38c0.29-0.3,0.78-0.45,1.49-0.45h13.25
			c0.68,0,1.15,0.14,1.39,0.43c0.24,0.29,0.37,0.75,0.37,1.39v1.79c0,0.64-0.12,1.1-0.37,1.39c-0.25,0.29-0.71,0.43-1.39,0.43h-7.49
			v2.75h4.61c0.68,0,1.15,0.14,1.39,0.43s0.37,0.75,0.37,1.39v1.73c0,0.64-0.12,1.1-0.37,1.39s-0.71,0.43-1.39,0.43h-4.61v2.75h7.46
			c0.68,0,1.15,0.14,1.39,0.43c0.25,0.29,0.37,0.75,0.37,1.39v1.79c0,0.64-0.12,1.1-0.37,1.39c-0.25,0.29-0.71,0.43-1.39,0.43
			h-13.22C258.07,380.95,257.58,380.8,257.29,380.5z"/>
		<path d="M35.32,418.9c-0.29-0.3-0.43-0.76-0.43-1.38v-18.11c0-0.62,0.14-1.08,0.43-1.38c0.29-0.3,0.78-0.45,1.49-0.45h7.36
			c7.53,0,11.3,3.63,11.3,10.88c0,3.58-0.97,6.29-2.9,8.13s-4.73,2.75-8.4,2.75h-7.36C36.11,419.35,35.61,419.2,35.32,418.9z
			 M44.46,413.91c1.19,0,2.05-0.39,2.58-1.18c0.52-0.79,0.78-2.21,0.78-4.26s-0.26-3.47-0.78-4.26c-0.52-0.79-1.38-1.18-2.58-1.18
			h-1.89v10.88H44.46z"/>
		<path d="M57.5,418.9c-0.29-0.3-0.43-0.76-0.43-1.38v-18.11c0-0.62,0.14-1.08,0.43-1.38c0.29-0.3,0.78-0.45,1.49-0.45h13.25
			c0.68,0,1.15,0.14,1.39,0.43c0.24,0.29,0.37,0.75,0.37,1.39v1.79c0,0.64-0.12,1.1-0.37,1.39c-0.25,0.29-0.71,0.43-1.39,0.43h-7.49
			v2.75h4.61c0.68,0,1.15,0.14,1.39,0.43s0.37,0.75,0.37,1.39v1.73c0,0.64-0.12,1.1-0.37,1.39s-0.71,0.43-1.39,0.43h-4.61v2.75h7.46
			c0.68,0,1.15,0.14,1.39,0.43c0.25,0.29,0.37,0.75,0.37,1.39v1.79c0,0.64-0.12,1.1-0.37,1.39c-0.25,0.29-0.71,0.43-1.39,0.43H58.99
			C58.28,419.35,57.79,419.2,57.5,418.9z"/>
		<path d="M87.63,416.97c-2.15-1.91-3.23-4.74-3.23-8.5c0-3.78,1.04-6.61,3.12-8.51s5.05-2.85,8.91-2.85c1.75,0,3.31,0.17,4.67,0.51
			c1.36,0.34,2.51,0.82,3.42,1.44c0.26,0.19,0.38,0.41,0.38,0.64c0,0.19-0.1,0.46-0.29,0.8l-1.6,2.75c-0.17,0.3-0.37,0.45-0.61,0.45
			c-0.15,0-0.4-0.08-0.74-0.26c-0.6-0.3-1.22-0.53-1.87-0.7c-0.65-0.17-1.41-0.26-2.29-0.26c-1.77,0-3.13,0.51-4.06,1.54
			c-0.94,1.02-1.41,2.51-1.41,4.45c0,1.92,0.51,3.4,1.54,4.43c1.02,1.04,2.42,1.55,4.19,1.55c1.54,0,2.94-0.32,4.22-0.96
			c0.34-0.17,0.59-0.26,0.74-0.26c0.23,0,0.44,0.15,0.61,0.45l1.6,2.75c0.19,0.34,0.29,0.61,0.29,0.8c0,0.24-0.13,0.45-0.38,0.64
			c-0.92,0.62-2.07,1.1-3.46,1.44c-1.39,0.34-2.96,0.51-4.7,0.51C92.8,419.83,89.78,418.88,87.63,416.97z"/>
		<path d="M107.69,416.87c-1.96-1.97-2.94-4.77-2.94-8.4s0.98-6.43,2.94-8.4c1.96-1.97,4.84-2.96,8.64-2.96
			c3.8,0,6.68,0.99,8.64,2.96c1.96,1.97,2.94,4.77,2.94,8.4s-0.98,6.43-2.94,8.4c-1.96,1.97-4.84,2.96-8.64,2.96
			C112.53,419.83,109.65,418.85,107.69,416.87z M119.34,412.97c0.62-0.99,0.93-2.49,0.93-4.5c0-2.03-0.31-3.53-0.93-4.51
			s-1.62-1.47-3.01-1.47c-1.39,0-2.39,0.49-3.01,1.47c-0.62,0.98-0.93,2.49-0.93,4.51c0,2.01,0.31,3.5,0.93,4.5
			c0.62,0.99,1.62,1.49,3.01,1.49C117.72,414.46,118.72,413.96,119.34,412.97z"/>
		<path d="M129.95,418.9c-0.29-0.3-0.43-0.76-0.43-1.38v-18.14c0-0.62,0.14-1.07,0.43-1.36c0.29-0.29,0.79-0.43,1.52-0.43h3.04
			c0.45,0,0.79,0.06,1.04,0.18s0.49,0.35,0.72,0.69l5.79,8.61v-7.65c0-0.62,0.14-1.08,0.43-1.38c0.29-0.3,0.78-0.45,1.49-0.45h3.81
			c0.73,0,1.23,0.14,1.52,0.43s0.43,0.75,0.43,1.39v18.14c0,0.62-0.14,1.07-0.43,1.36s-0.79,0.43-1.52,0.43h-3.04
			c-0.45,0-0.79-0.06-1.04-0.18c-0.25-0.12-0.49-0.35-0.72-0.69l-5.79-8.61v7.68c0,0.62-0.14,1.07-0.43,1.36
			c-0.29,0.29-0.79,0.43-1.52,0.43h-3.81C130.73,419.35,130.23,419.2,129.95,418.9z"/>
		<path d="M159.77,419.08c-0.25-0.18-0.45-0.5-0.62-0.94l-7.65-19.17c-0.11-0.28-0.16-0.51-0.16-0.7c0-0.45,0.23-0.67,0.7-0.67h6.02
			c0.66,0,1.08,0.29,1.25,0.86l3.26,10.43l3.26-10.43c0.17-0.58,0.59-0.86,1.25-0.86h6.02c0.47,0,0.7,0.22,0.7,0.67
			c0,0.19-0.05,0.43-0.16,0.7l-7.62,19.17c-0.17,0.45-0.38,0.76-0.62,0.94c-0.25,0.18-0.6,0.27-1.07,0.27h-3.49
			C160.37,419.35,160.01,419.26,159.77,419.08z"/>
		<path d="M175.83,418.9c-0.29-0.3-0.43-0.76-0.43-1.38v-18.11c0-0.62,0.14-1.08,0.43-1.38c0.29-0.3,0.78-0.45,1.49-0.45h13.25
			c0.68,0,1.15,0.14,1.39,0.43c0.24,0.29,0.37,0.75,0.37,1.39v1.79c0,0.64-0.12,1.1-0.37,1.39c-0.25,0.29-0.71,0.43-1.39,0.43h-7.49
			v2.75h4.61c0.68,0,1.15,0.14,1.39,0.43s0.37,0.75,0.37,1.39v1.73c0,0.64-0.12,1.1-0.37,1.39s-0.71,0.43-1.39,0.43h-4.61v2.75h7.46
			c0.68,0,1.15,0.14,1.39,0.43c0.25,0.29,0.37,0.75,0.37,1.39v1.79c0,0.64-0.12,1.1-0.37,1.39c-0.25,0.29-0.71,0.43-1.39,0.43
			h-13.22C176.62,419.35,176.12,419.2,175.83,418.9z"/>
		<path d="M194.2,418.9c-0.29-0.3-0.43-0.76-0.43-1.38v-18.11c0-0.62,0.14-1.08,0.43-1.38c0.29-0.3,0.78-0.45,1.49-0.45h7.65
			c3.2,0,5.53,0.63,6.99,1.9c1.46,1.27,2.19,3.18,2.19,5.74c0,1.54-0.26,2.83-0.78,3.89c-0.52,1.06-1.33,1.88-2.42,2.48l2.98,6.37
			c0.08,0.17,0.13,0.36,0.13,0.58c0,0.23-0.08,0.43-0.24,0.58c-0.16,0.15-0.37,0.22-0.62,0.22h-5.41c-0.34,0-0.61-0.05-0.82-0.14
			c-0.2-0.1-0.35-0.26-0.43-0.5l-2.37-5.95h-1.09v4.77c0,0.62-0.14,1.08-0.43,1.38c-0.29,0.3-0.79,0.45-1.52,0.45h-3.81
			C194.98,419.35,194.49,419.2,194.2,418.9z M202.67,407.42c0.68,0,1.22-0.18,1.62-0.54c0.39-0.36,0.59-0.91,0.59-1.63
			c0-0.75-0.2-1.3-0.59-1.66c-0.4-0.36-0.93-0.54-1.62-0.54h-2.18v4.38H202.67z"/>
		<path d="M218.18,419.22c-1.66-0.41-3.01-0.97-4.03-1.7c-0.43-0.3-0.64-0.59-0.64-0.86c0-0.19,0.07-0.39,0.22-0.61l1.86-2.91
			c0.19-0.28,0.38-0.42,0.58-0.42c0.17,0,0.37,0.08,0.61,0.22c0.77,0.47,1.65,0.84,2.64,1.1s1.96,0.4,2.9,0.4
			c0.79,0,1.36-0.11,1.71-0.32s0.53-0.54,0.53-0.99c0-0.49-0.23-0.88-0.7-1.18c-0.47-0.3-1.28-0.67-2.43-1.12
			c-2.15-0.83-3.85-1.78-5.09-2.83c-1.24-1.06-1.86-2.46-1.86-4.21c0-2.22,0.77-3.89,2.32-5.01c1.55-1.12,3.63-1.68,6.26-1.68
			c1.83,0,3.4,0.16,4.69,0.48c1.29,0.32,2.42,0.82,3.38,1.5c0.43,0.3,0.64,0.59,0.64,0.86c0,0.19-0.08,0.39-0.22,0.61l-1.86,2.91
			c-0.19,0.3-0.38,0.45-0.58,0.45c-0.13,0-0.33-0.08-0.61-0.26c-0.51-0.34-1.12-0.62-1.82-0.85c-0.7-0.22-1.46-0.34-2.27-0.34
			c-0.75,0-1.31,0.11-1.7,0.32c-0.38,0.21-0.58,0.55-0.58,1.02c0,0.38,0.13,0.7,0.4,0.96c0.27,0.26,0.6,0.47,1.01,0.66
			c0.41,0.18,1.11,0.48,2.11,0.88c1.6,0.64,2.86,1.25,3.78,1.84c0.92,0.59,1.61,1.29,2.08,2.11c0.47,0.82,0.7,1.86,0.7,3.12
			c0,1.92-0.72,3.47-2.16,4.66c-1.44,1.18-3.59,1.78-6.45,1.78C221.65,419.83,219.85,419.63,218.18,419.22z"/>
		<path d="M231.72,418.68c0-0.19,0.05-0.43,0.16-0.7l7.97-19.17c0.19-0.45,0.41-0.76,0.66-0.94c0.24-0.18,0.59-0.27,1.04-0.27h3.49
			c0.45,0,0.79,0.09,1.04,0.27c0.25,0.18,0.46,0.5,0.66,0.94l7.94,19.17c0.11,0.28,0.16,0.51,0.16,0.7c0,0.45-0.23,0.67-0.7,0.67
			h-6.02c-0.66,0-1.08-0.29-1.25-0.86l-0.77-2.37h-5.66l-0.74,2.37c-0.17,0.58-0.59,0.86-1.25,0.86h-6.02
			C231.95,419.35,231.72,419.13,231.72,418.68z M244.52,411.06l-1.25-3.97l-1.25,3.97H244.52z"/>
		<path d="M257.26,416.97c-2.15-1.91-3.23-4.74-3.23-8.5c0-3.78,1.04-6.61,3.12-8.51s5.05-2.85,8.91-2.85
			c1.75,0,3.31,0.17,4.67,0.51c1.36,0.34,2.51,0.82,3.42,1.44c0.26,0.19,0.38,0.41,0.38,0.64c0,0.19-0.1,0.46-0.29,0.8l-1.6,2.75
			c-0.17,0.3-0.37,0.45-0.61,0.45c-0.15,0-0.4-0.08-0.74-0.26c-0.6-0.3-1.22-0.53-1.87-0.7c-0.65-0.17-1.41-0.26-2.29-0.26
			c-1.77,0-3.13,0.51-4.06,1.54c-0.94,1.02-1.41,2.51-1.41,4.45c0,1.92,0.51,3.4,1.54,4.43c1.02,1.04,2.42,1.55,4.19,1.55
			c1.54,0,2.94-0.32,4.22-0.96c0.34-0.17,0.59-0.26,0.74-0.26c0.23,0,0.44,0.15,0.61,0.45l1.6,2.75c0.19,0.34,0.29,0.61,0.29,0.8
			c0,0.24-0.13,0.45-0.38,0.64c-0.92,0.62-2.07,1.1-3.46,1.44c-1.39,0.34-2.96,0.51-4.7,0.51
			C262.43,419.83,259.41,418.88,257.26,416.97z"/>
		<path d="M276.89,418.9c-0.29-0.3-0.43-0.76-0.43-1.38v-18.11c0-0.62,0.14-1.08,0.43-1.38c0.29-0.3,0.78-0.45,1.49-0.45h3.81
			c0.73,0,1.23,0.14,1.52,0.43c0.29,0.29,0.43,0.75,0.43,1.39v18.11c0,0.62-0.14,1.08-0.43,1.38c-0.29,0.3-0.79,0.45-1.52,0.45
			h-3.81C277.67,419.35,277.18,419.2,276.89,418.9z"/>
		<path d="M288.68,416.87c-1.96-1.97-2.94-4.77-2.94-8.4s0.98-6.43,2.94-8.4c1.96-1.97,4.84-2.96,8.64-2.96
			c3.8,0,6.68,0.99,8.64,2.96c1.96,1.97,2.94,4.77,2.94,8.4s-0.98,6.43-2.94,8.4c-1.96,1.97-4.84,2.96-8.64,2.96
			C293.52,419.83,290.64,418.85,288.68,416.87z M300.33,412.97c0.62-0.99,0.93-2.49,0.93-4.5c0-2.03-0.31-3.53-0.93-4.51
			s-1.62-1.47-3.01-1.47c-1.39,0-2.39,0.49-3.01,1.47c-0.62,0.98-0.93,2.49-0.93,4.51c0,2.01,0.31,3.5,0.93,4.5
			c0.62,0.99,1.62,1.49,3.01,1.49C298.71,414.46,299.71,413.96,300.33,412.97z"/>
		<path d="M310.94,418.9c-0.29-0.3-0.43-0.76-0.43-1.38v-18.14c0-0.62,0.14-1.07,0.43-1.36c0.29-0.29,0.79-0.43,1.52-0.43h3.04
			c0.45,0,0.79,0.06,1.04,0.18s0.49,0.35,0.72,0.69l5.79,8.61v-7.65c0-0.62,0.14-1.08,0.43-1.38c0.29-0.3,0.78-0.45,1.49-0.45h3.81
			c0.73,0,1.23,0.14,1.52,0.43s0.43,0.75,0.43,1.39v18.14c0,0.62-0.14,1.07-0.43,1.36s-0.79,0.43-1.52,0.43h-3.04
			c-0.45,0-0.79-0.06-1.04-0.18c-0.25-0.12-0.49-0.35-0.72-0.69l-5.79-8.61v7.68c0,0.62-0.14,1.07-0.43,1.36
			c-0.29,0.29-0.79,0.43-1.52,0.43h-3.81C311.72,419.35,311.22,419.2,310.94,418.9z"/>
		<path d="M333.4,418.9c-0.29-0.3-0.43-0.76-0.43-1.38v-18.11c0-0.62,0.14-1.08,0.43-1.38c0.29-0.3,0.78-0.45,1.49-0.45h13.25
			c0.68,0,1.15,0.14,1.39,0.43c0.24,0.29,0.37,0.75,0.37,1.39v1.79c0,0.64-0.12,1.1-0.37,1.39c-0.25,0.29-0.71,0.43-1.39,0.43h-7.49
			v2.75h4.61c0.68,0,1.15,0.14,1.39,0.43s0.37,0.75,0.37,1.39v1.73c0,0.64-0.12,1.1-0.37,1.39s-0.71,0.43-1.39,0.43h-4.61v2.75h7.46
			c0.68,0,1.15,0.14,1.39,0.43c0.25,0.29,0.37,0.75,0.37,1.39v1.79c0,0.64-0.12,1.1-0.37,1.39c-0.25,0.29-0.71,0.43-1.39,0.43
			h-13.22C334.18,419.35,333.69,419.2,333.4,418.9z"/>
		<path d="M355.4,419.22c-1.66-0.41-3.01-0.97-4.03-1.7c-0.43-0.3-0.64-0.59-0.64-0.86c0-0.19,0.07-0.39,0.22-0.61l1.86-2.91
			c0.19-0.28,0.38-0.42,0.58-0.42c0.17,0,0.37,0.08,0.61,0.22c0.77,0.47,1.65,0.84,2.64,1.1s1.96,0.4,2.9,0.4
			c0.79,0,1.36-0.11,1.71-0.32s0.53-0.54,0.53-0.99c0-0.49-0.23-0.88-0.7-1.18c-0.47-0.3-1.28-0.67-2.43-1.12
			c-2.15-0.83-3.85-1.78-5.09-2.83c-1.24-1.06-1.86-2.46-1.86-4.21c0-2.22,0.77-3.89,2.32-5.01c1.55-1.12,3.63-1.68,6.26-1.68
			c1.83,0,3.4,0.16,4.69,0.48c1.29,0.32,2.42,0.82,3.38,1.5c0.43,0.3,0.64,0.59,0.64,0.86c0,0.19-0.08,0.39-0.22,0.61l-1.86,2.91
			c-0.19,0.3-0.38,0.45-0.58,0.45c-0.13,0-0.33-0.08-0.61-0.26c-0.51-0.34-1.12-0.62-1.82-0.85c-0.7-0.22-1.46-0.34-2.27-0.34
			c-0.75,0-1.31,0.11-1.7,0.32c-0.38,0.21-0.58,0.55-0.58,1.02c0,0.38,0.13,0.7,0.4,0.96c0.27,0.26,0.6,0.47,1.01,0.66
			c0.41,0.18,1.11,0.48,2.11,0.88c1.6,0.64,2.86,1.25,3.78,1.84c0.92,0.59,1.61,1.29,2.08,2.11c0.47,0.82,0.7,1.86,0.7,3.12
			c0,1.92-0.72,3.47-2.16,4.66c-1.44,1.18-3.59,1.78-6.45,1.78C358.87,419.83,357.06,419.63,355.4,419.22z"/>
		<path d="M90.31,457.3c-0.29-0.3-0.43-0.76-0.43-1.38v-18.11c0-0.62,0.14-1.08,0.43-1.38c0.29-0.3,0.78-0.45,1.49-0.45h13.25
			c0.68,0,1.15,0.14,1.39,0.43c0.24,0.29,0.37,0.75,0.37,1.39v1.79c0,0.64-0.12,1.1-0.37,1.39c-0.25,0.29-0.71,0.43-1.39,0.43h-7.49
			v2.75h4.61c0.68,0,1.15,0.14,1.39,0.43s0.37,0.75,0.37,1.39v1.73c0,0.64-0.12,1.1-0.37,1.39s-0.71,0.43-1.39,0.43h-4.61v2.75h7.46
			c0.68,0,1.15,0.14,1.39,0.43c0.25,0.29,0.37,0.75,0.37,1.39v1.79c0,0.64-0.12,1.1-0.37,1.39c-0.25,0.29-0.71,0.43-1.39,0.43H91.8
			C91.1,457.75,90.6,457.6,90.31,457.3z"/>
		<path d="M108.68,457.3c-0.29-0.3-0.43-0.76-0.43-1.38v-18.14c0-0.62,0.14-1.07,0.43-1.36c0.29-0.29,0.79-0.43,1.52-0.43h3.04
			c0.45,0,0.79,0.06,1.04,0.18s0.49,0.35,0.72,0.69l5.79,8.61v-7.65c0-0.62,0.14-1.08,0.43-1.38c0.29-0.3,0.78-0.45,1.49-0.45h3.81
			c0.73,0,1.23,0.14,1.52,0.43s0.43,0.75,0.43,1.39v18.14c0,0.62-0.14,1.07-0.43,1.36s-0.79,0.43-1.52,0.43h-3.04
			c-0.45,0-0.79-0.06-1.04-0.18c-0.25-0.12-0.49-0.35-0.72-0.69l-5.79-8.61v7.68c0,0.62-0.14,1.07-0.43,1.36
			c-0.29,0.29-0.79,0.43-1.52,0.43h-3.81C109.47,457.75,108.97,457.6,108.68,457.3z"/>
		<path d="M140.75,457.3c-0.29-0.3-0.43-0.76-0.43-1.38v-18.14c0-0.62,0.14-1.07,0.43-1.36c0.29-0.29,0.79-0.43,1.52-0.43h3.68
			c0.47,0,0.84,0.06,1.12,0.18c0.28,0.12,0.49,0.35,0.64,0.69l3.74,9.38l3.74-9.38c0.15-0.34,0.36-0.57,0.64-0.69
			c0.28-0.12,0.65-0.18,1.12-0.18h3.68c0.73,0,1.23,0.14,1.52,0.43s0.43,0.74,0.43,1.36v18.14c0,0.62-0.14,1.08-0.43,1.38
			c-0.29,0.3-0.78,0.45-1.49,0.45h-3.07c-0.7,0-1.21-0.15-1.5-0.45c-0.3-0.3-0.45-0.76-0.45-1.38v-8.74l-1.89,4.35
			c-0.26,0.62-0.53,1.06-0.83,1.33c-0.3,0.27-0.79,0.4-1.47,0.4s-1.17-0.13-1.47-0.4c-0.3-0.27-0.58-0.71-0.83-1.33l-1.89-4.35v8.74
			c0,0.62-0.14,1.08-0.43,1.38c-0.29,0.3-0.79,0.45-1.52,0.45h-3.07C141.53,457.75,141.03,457.6,140.75,457.3z"/>
		<path d="M170.62,457.22c-1.58-0.67-2.81-1.64-3.68-2.91c-0.88-1.27-1.31-2.78-1.31-4.53v-11.97c0-0.62,0.14-1.08,0.43-1.38
			s0.78-0.45,1.49-0.45h3.81c0.73,0,1.23,0.14,1.52,0.43s0.43,0.75,0.43,1.39v12.06c0,1,0.25,1.75,0.75,2.24
			c0.5,0.49,1.19,0.74,2.06,0.74c0.87,0,1.56-0.24,2.06-0.74c0.5-0.49,0.75-1.24,0.75-2.24v-12.06c0-0.62,0.14-1.08,0.43-1.38
			s0.78-0.45,1.49-0.45h3.81c0.73,0,1.23,0.14,1.52,0.43s0.43,0.75,0.43,1.39v11.97c0,1.75-0.44,3.26-1.31,4.53
			c-0.88,1.27-2.1,2.24-3.68,2.91c-1.58,0.67-3.41,1.01-5.5,1.01C174.03,458.23,172.2,457.9,170.62,457.22z M172.86,433.3
			c0-0.17,0.03-0.35,0.1-0.54l1.34-3.71c0.17-0.49,0.37-0.82,0.61-0.99c0.23-0.17,0.67-0.26,1.31-0.26h4.58
			c0.45,0,0.8,0.08,1.06,0.24s0.38,0.39,0.38,0.69c0,0.26-0.09,0.52-0.26,0.8l-2.05,3.46c-0.3,0.51-0.59,0.84-0.86,0.99
			c-0.28,0.15-0.78,0.22-1.5,0.22h-3.42C173.28,434.2,172.86,433.9,172.86,433.3z"/>
		<path d="M188.17,457.3c-0.29-0.3-0.43-0.76-0.43-1.38v-18.11c0-0.62,0.14-1.08,0.43-1.38c0.29-0.3,0.78-0.45,1.49-0.45h3.81
			c0.73,0,1.23,0.14,1.52,0.43c0.29,0.29,0.43,0.75,0.43,1.39v14.5h7.46c0.68,0,1.15,0.14,1.39,0.43c0.25,0.29,0.37,0.75,0.37,1.39
			v1.79c0,0.64-0.12,1.1-0.37,1.39c-0.25,0.29-0.71,0.43-1.39,0.43h-13.22C188.95,457.75,188.46,457.6,188.17,457.3z"/>
		<path d="M206.79,457.3c-0.29-0.3-0.43-0.76-0.43-1.38v-14.5h-4.61c-0.68,0-1.15-0.14-1.39-0.43s-0.37-0.75-0.37-1.39v-1.79
			c0-0.64,0.12-1.1,0.37-1.39s0.71-0.43,1.39-0.43h16.9c0.68,0,1.15,0.14,1.39,0.43c0.24,0.29,0.37,0.75,0.37,1.39v1.79
			c0,0.64-0.12,1.1-0.37,1.39c-0.25,0.29-0.71,0.43-1.39,0.43h-4.61v14.5c0,0.62-0.14,1.08-0.43,1.38c-0.29,0.3-0.79,0.45-1.52,0.45
			h-3.81C207.58,457.75,207.08,457.6,206.79,457.3z"/>
		<path d="M221.8,457.3c-0.29-0.3-0.43-0.76-0.43-1.38v-18.11c0-0.62,0.14-1.08,0.43-1.38c0.29-0.3,0.78-0.45,1.49-0.45h3.81
			c0.73,0,1.23,0.14,1.52,0.43c0.29,0.29,0.43,0.75,0.43,1.39v18.11c0,0.62-0.14,1.08-0.43,1.38c-0.29,0.3-0.79,0.45-1.52,0.45
			h-3.81C222.58,457.75,222.09,457.6,221.8,457.3z"/>
		<path d="M231.72,457.3c-0.29-0.3-0.43-0.76-0.43-1.38v-18.11c0-0.62,0.14-1.08,0.43-1.38c0.29-0.3,0.78-0.45,1.49-0.45h7.65
			c3.2,0,5.53,0.63,6.99,1.9c1.46,1.27,2.19,3.18,2.19,5.74c0,2.56-0.73,4.47-2.19,5.73c-1.46,1.26-3.78,1.89-6.96,1.89h-1.92v4.67
			c0,0.62-0.14,1.08-0.43,1.38c-0.29,0.3-0.79,0.45-1.52,0.45h-3.81C232.5,457.75,232.01,457.6,231.72,457.3z M240.19,445.82
			c0.68,0,1.22-0.18,1.62-0.54c0.39-0.36,0.59-0.91,0.59-1.63c0-0.75-0.2-1.3-0.59-1.66c-0.4-0.36-0.93-0.54-1.62-0.54h-2.18v4.38
			H240.19z"/>
		<path d="M251.43,457.3c-0.29-0.3-0.43-0.76-0.43-1.38v-18.11c0-0.62,0.14-1.08,0.43-1.38c0.29-0.3,0.78-0.45,1.49-0.45h3.81
			c0.73,0,1.23,0.14,1.52,0.43c0.29,0.29,0.43,0.75,0.43,1.39v14.5h7.46c0.68,0,1.15,0.14,1.39,0.43c0.25,0.29,0.37,0.75,0.37,1.39
			v1.79c0,0.64-0.12,1.1-0.37,1.39c-0.25,0.29-0.71,0.43-1.39,0.43h-13.22C252.22,457.75,251.72,457.6,251.43,457.3z"/>
		<path d="M268.81,457.3c-0.29-0.3-0.43-0.76-0.43-1.38v-18.11c0-0.62,0.14-1.08,0.43-1.38c0.29-0.3,0.78-0.45,1.49-0.45h13.25
			c0.68,0,1.15,0.14,1.39,0.43c0.24,0.29,0.37,0.75,0.37,1.39v1.79c0,0.64-0.12,1.1-0.37,1.39c-0.25,0.29-0.71,0.43-1.39,0.43h-7.49
			v2.75h4.61c0.68,0,1.15,0.14,1.39,0.43s0.37,0.75,0.37,1.39v1.73c0,0.64-0.12,1.1-0.37,1.39s-0.71,0.43-1.39,0.43h-4.61v2.75h7.46
			c0.68,0,1.15,0.14,1.39,0.43c0.25,0.29,0.37,0.75,0.37,1.39v1.79c0,0.64-0.12,1.1-0.37,1.39c-0.25,0.29-0.71,0.43-1.39,0.43H270.3
			C269.59,457.75,269.1,457.6,268.81,457.3z"/>
		<path d="M290.81,457.62c-1.66-0.41-3.01-0.97-4.03-1.7c-0.43-0.3-0.64-0.59-0.64-0.86c0-0.19,0.07-0.39,0.22-0.61l1.86-2.91
			c0.19-0.28,0.38-0.42,0.58-0.42c0.17,0,0.37,0.08,0.61,0.22c0.77,0.47,1.65,0.84,2.64,1.1s1.96,0.4,2.9,0.4
			c0.79,0,1.36-0.11,1.71-0.32s0.53-0.54,0.53-0.99c0-0.49-0.23-0.88-0.7-1.18c-0.47-0.3-1.28-0.67-2.43-1.12
			c-2.15-0.83-3.85-1.78-5.09-2.83c-1.24-1.06-1.86-2.46-1.86-4.21c0-2.22,0.77-3.89,2.32-5.01c1.55-1.12,3.63-1.68,6.26-1.68
			c1.83,0,3.4,0.16,4.69,0.48c1.29,0.32,2.42,0.82,3.38,1.5c0.43,0.3,0.64,0.59,0.64,0.86c0,0.19-0.08,0.39-0.22,0.61l-1.86,2.91
			c-0.19,0.3-0.38,0.45-0.58,0.45c-0.13,0-0.33-0.08-0.61-0.26c-0.51-0.34-1.12-0.62-1.82-0.85c-0.7-0.22-1.46-0.34-2.27-0.34
			c-0.75,0-1.31,0.11-1.7,0.32c-0.38,0.21-0.58,0.55-0.58,1.02c0,0.38,0.13,0.7,0.4,0.96c0.27,0.26,0.6,0.47,1.01,0.66
			c0.41,0.18,1.11,0.48,2.11,0.88c1.6,0.64,2.86,1.25,3.78,1.84c0.92,0.59,1.61,1.29,2.08,2.11c0.47,0.82,0.7,1.86,0.7,3.12
			c0,1.92-0.72,3.47-2.16,4.66c-1.44,1.18-3.59,1.78-6.45,1.78C294.27,458.23,292.47,458.03,290.81,457.62z"/>
		<path d="M137.87,495.7c-0.29-0.3-0.43-0.76-0.43-1.38v-18.11c0-0.62,0.14-1.08,0.43-1.38c0.29-0.3,0.78-0.45,1.49-0.45h3.81
			c0.73,0,1.23,0.14,1.52,0.43c0.29,0.29,0.43,0.75,0.43,1.39v18.11c0,0.62-0.14,1.08-0.43,1.38c-0.29,0.3-0.79,0.45-1.52,0.45
			h-3.81C138.65,496.15,138.15,496,137.87,495.7z"/>
		<path d="M147.79,495.7c-0.29-0.3-0.43-0.76-0.43-1.38v-18.11c0-0.62,0.14-1.08,0.43-1.38c0.29-0.3,0.78-0.45,1.49-0.45h7.36
			c7.53,0,11.3,3.63,11.3,10.88c0,3.58-0.97,6.29-2.9,8.13s-4.73,2.75-8.4,2.75h-7.36C148.57,496.15,148.07,496,147.79,495.7z
			 M156.92,490.71c1.19,0,2.05-0.39,2.58-1.18c0.52-0.79,0.78-2.21,0.78-4.26s-0.26-3.47-0.78-4.26c-0.52-0.79-1.38-1.18-2.58-1.18
			h-1.89v10.88H156.92z"/>
		<path d="M169.96,495.7c-0.29-0.3-0.43-0.76-0.43-1.38v-18.11c0-0.62,0.14-1.08,0.43-1.38c0.29-0.3,0.78-0.45,1.49-0.45h3.81
			c0.73,0,1.23,0.14,1.52,0.43c0.29,0.29,0.43,0.75,0.43,1.39v18.11c0,0.62-0.14,1.08-0.43,1.38c-0.29,0.3-0.79,0.45-1.52,0.45
			h-3.81C170.75,496.15,170.25,496,169.96,495.7z"/>
		<path d="M181.75,493.67c-1.96-1.97-2.94-4.77-2.94-8.4s0.98-6.43,2.94-8.4c1.96-1.97,4.84-2.96,8.64-2.96
			c3.8,0,6.68,0.99,8.64,2.96c1.96,1.97,2.94,4.77,2.94,8.4s-0.98,6.43-2.94,8.4c-1.96,1.97-4.84,2.96-8.64,2.96
			C186.6,496.63,183.72,495.65,181.75,493.67z M193.4,489.77c0.62-0.99,0.93-2.49,0.93-4.5c0-2.03-0.31-3.53-0.93-4.51
			s-1.62-1.47-3.01-1.47c-1.39,0-2.39,0.49-3.01,1.47c-0.62,0.98-0.93,2.49-0.93,4.51c0,2.01,0.31,3.5,0.93,4.5
			c0.62,0.99,1.62,1.49,3.01,1.49C191.78,491.26,192.78,490.76,193.4,489.77z"/>
		<path d="M202.89,495.7c-0.29-0.3-0.43-0.76-0.43-1.38v-18.14c0-0.62,0.14-1.07,0.43-1.36c0.29-0.29,0.79-0.43,1.52-0.43h3.68
			c0.47,0,0.84,0.06,1.12,0.18c0.28,0.12,0.49,0.35,0.64,0.69l3.74,9.38l3.74-9.38c0.15-0.34,0.36-0.57,0.64-0.69
			c0.28-0.12,0.65-0.18,1.12-0.18h3.68c0.73,0,1.23,0.14,1.52,0.43s0.43,0.74,0.43,1.36v18.14c0,0.62-0.14,1.08-0.43,1.38
			c-0.29,0.3-0.78,0.45-1.49,0.45h-3.07c-0.7,0-1.21-0.15-1.5-0.45c-0.3-0.3-0.45-0.76-0.45-1.38v-8.74l-1.89,4.35
			c-0.26,0.62-0.53,1.06-0.83,1.33c-0.3,0.27-0.79,0.4-1.47,0.4s-1.17-0.13-1.47-0.4c-0.3-0.27-0.58-0.71-0.83-1.33l-1.89-4.35v8.74
			c0,0.62-0.14,1.08-0.43,1.38c-0.29,0.3-0.79,0.45-1.52,0.45h-3.07C203.67,496.15,203.18,496,202.89,495.7z"/>
		<path d="M225.53,495.48c0-0.19,0.05-0.43,0.16-0.7l7.97-19.17c0.19-0.45,0.41-0.76,0.66-0.94c0.24-0.18,0.59-0.27,1.04-0.27h3.49
			c0.45,0,0.79,0.09,1.04,0.27c0.25,0.18,0.46,0.5,0.66,0.94l7.94,19.17c0.11,0.28,0.16,0.51,0.16,0.7c0,0.45-0.23,0.67-0.7,0.67
			h-6.02c-0.66,0-1.08-0.29-1.25-0.86l-0.77-2.37h-5.66l-0.74,2.37c-0.17,0.58-0.59,0.86-1.25,0.86h-6.02
			C225.76,496.15,225.53,495.93,225.53,495.48z M238.33,487.86l-1.25-3.97l-1.25,3.97H238.33z"/>
		<path d="M252.86,496.02c-1.66-0.41-3.01-0.97-4.03-1.7c-0.43-0.3-0.64-0.59-0.64-0.86c0-0.19,0.07-0.39,0.22-0.61l1.86-2.91
			c0.19-0.28,0.38-0.42,0.58-0.42c0.17,0,0.37,0.08,0.61,0.22c0.77,0.47,1.65,0.84,2.64,1.1s1.96,0.4,2.9,0.4
			c0.79,0,1.36-0.11,1.71-0.32s0.53-0.54,0.53-0.99c0-0.49-0.23-0.88-0.7-1.18c-0.47-0.3-1.28-0.67-2.43-1.12
			c-2.15-0.83-3.85-1.78-5.09-2.83c-1.24-1.06-1.86-2.46-1.86-4.21c0-2.22,0.77-3.89,2.32-5.01c1.55-1.12,3.63-1.68,6.26-1.68
			c1.83,0,3.4,0.16,4.69,0.48c1.29,0.32,2.42,0.82,3.38,1.5c0.43,0.3,0.64,0.59,0.64,0.86c0,0.19-0.08,0.39-0.22,0.61l-1.86,2.91
			c-0.19,0.3-0.38,0.45-0.58,0.45c-0.13,0-0.33-0.08-0.61-0.26c-0.51-0.34-1.12-0.62-1.82-0.85c-0.7-0.22-1.46-0.34-2.27-0.34
			c-0.75,0-1.31,0.11-1.7,0.32c-0.38,0.21-0.58,0.55-0.58,1.02c0,0.38,0.13,0.7,0.4,0.96c0.27,0.26,0.6,0.47,1.01,0.66
			c0.41,0.18,1.11,0.48,2.11,0.88c1.6,0.64,2.86,1.25,3.78,1.84c0.92,0.59,1.61,1.29,2.08,2.11c0.47,0.82,0.7,1.86,0.7,3.12
			c0,1.92-0.72,3.47-2.16,4.66c-1.44,1.18-3.59,1.78-6.45,1.78C256.32,496.63,254.52,496.43,252.86,496.02z"/>
	</g>
	<polygon class="st1" points="200.76,96.93 214.23,124.22 244.34,128.59 222.55,149.83 227.7,179.83 200.76,165.67 173.83,179.83 
		178.97,149.83 157.18,128.59 187.29,124.22 	"/>
	<polygon class="st1" points="138.58,180.15 147.32,197.86 166.86,200.7 152.72,214.48 156.06,233.94 138.58,224.75 121.11,233.94 
		124.45,214.48 110.31,200.7 129.85,197.86 	"/>
	<polygon class="st1" points="268.68,180.15 277.42,197.86 296.95,200.7 282.82,214.48 286.15,233.94 268.68,224.75 251.2,233.94 
		254.54,214.48 240.4,200.7 259.94,197.86 	"/>
	<circle class="st2" cx="201.77" cy="213.97" r="121.96"/>
	<circle class="st3" cx="200.82" cy="200.58" r="121.96"/>
	<g>
		<path class="st3" d="M195.05,643.3c-0.63-0.56-0.95-1.54-0.95-2.96v-5.69h-17.59c-1.75,0-2.63-0.85-2.63-2.55v-6.72
			c0-1.12,0.1-1.95,0.29-2.48c0.19-0.54,0.66-1.24,1.39-2.12l19.86-23.94c0.83-0.97,1.51-1.61,2.04-1.9
			c0.54-0.29,1.46-0.44,2.77-0.44h7.01c1.61,0,2.74,0.34,3.39,1.02c0.66,0.68,0.99,1.73,0.99,3.14v23.58h2.77
			c1.56,0,2.62,0.33,3.18,0.99c0.56,0.66,0.84,1.71,0.84,3.17v4.09c0,1.46-0.28,2.52-0.84,3.18c-0.56,0.66-1.62,0.99-3.18,0.99
			h-2.77v5.69c0,1.41-0.33,2.4-0.99,2.96c-0.66,0.56-1.81,0.84-3.47,0.84h-8.69C196.82,644.14,195.68,643.86,195.05,643.3z
			 M197.97,622.24v-9.56l-7.01,9.56H197.97z"/>
	</g>
	<g class="st101">
		<path class="st18" d="M282.26,190.49h-34.95h-74.57c-3.16,0-5.74-2.64-5.74-5.86v-52.77c0-3.22,2.58-5.86,5.74-5.86h109.52
			c3.16,0,5.74,2.64,5.74,5.86v52.77C288,187.86,285.42,190.49,282.26,190.49z"/>
		<polygon class="st18" points="249.77,182.48 261.01,182.12 272.24,181.77 266.92,191.88 261.61,202 255.69,192.24 		"/>
	</g>
	<g class="st102">
		<g>
			<path class="st103" d="M177.77,162.66c-1.21-1.23-1.81-2.98-1.81-5.25s0.6-4.02,1.81-5.25c1.21-1.23,2.97-1.85,5.29-1.85
				s4.08,0.62,5.29,1.85c1.21,1.23,1.81,2.98,1.81,5.25s-0.6,4.02-1.81,5.25c-1.21,1.23-2.97,1.85-5.29,1.85
				S178.98,163.9,177.77,162.66z M185.39,160.59c0.5-0.71,0.75-1.77,0.75-3.18c0-1.4-0.25-2.45-0.75-3.16s-1.28-1.06-2.33-1.06
				c-1.05,0-1.83,0.35-2.33,1.06s-0.75,1.76-0.75,3.16c0,1.41,0.25,2.47,0.75,3.18c0.5,0.71,1.28,1.06,2.33,1.06
				C184.12,161.65,184.89,161.3,185.39,160.59z"/>
			<path class="st103" d="M191.71,163.97c-0.15-0.16-0.23-0.41-0.23-0.76v-11.58c0-0.35,0.08-0.6,0.24-0.77
				c0.16-0.17,0.43-0.25,0.8-0.25h5.96c1.56,0,2.71,0.34,3.46,1.03c0.75,0.69,1.12,1.64,1.12,2.87c0,0.6-0.15,1.14-0.45,1.63
				c-0.3,0.49-0.69,0.83-1.17,1.03c1.32,0.43,1.98,1.39,1.98,2.9c0,1.21-0.42,2.21-1.27,2.98s-2.09,1.16-3.73,1.16h-5.9
				C192.14,164.21,191.87,164.13,191.71,163.97z M197.72,155.93c0.41,0,0.73-0.1,0.96-0.31c0.23-0.21,0.34-0.51,0.34-0.91
				c0-0.43-0.11-0.73-0.32-0.92c-0.21-0.19-0.54-0.28-0.98-0.28h-2.2v2.42H197.72z M198.06,161.31c0.43,0,0.76-0.12,0.99-0.37
				c0.23-0.25,0.35-0.57,0.35-0.97c0-0.45-0.13-0.79-0.38-1.02s-0.6-0.34-1.04-0.34h-2.46v2.7H198.06z"/>
			<path class="st103" d="M204.97,163.97c-0.15-0.16-0.23-0.41-0.23-0.76v-11.58c0-0.35,0.08-0.6,0.24-0.77
				c0.16-0.17,0.43-0.25,0.8-0.25h4.92c1.85,0,3.22,0.39,4.1,1.16c0.88,0.77,1.32,1.93,1.32,3.46c0,1.91-0.73,3.22-2.2,3.94
				l1.98,4.3c0.05,0.11,0.08,0.21,0.08,0.32c0,0.12-0.04,0.22-0.13,0.3c-0.09,0.08-0.2,0.12-0.35,0.12h-2.8
				c-0.2,0-0.36-0.03-0.47-0.08c-0.11-0.05-0.2-0.15-0.25-0.3l-1.66-4.06h-1.54v3.44c0,0.35-0.08,0.6-0.24,0.76
				c-0.16,0.16-0.43,0.24-0.82,0.24h-1.94C205.4,164.21,205.13,164.13,204.97,163.97z M210.26,156.91c1.21,0,1.82-0.56,1.82-1.68
				c0-1.13-0.57-1.7-1.72-1.7h-1.58v3.38H210.26z"/>
			<path class="st103" d="M217.67,163.97c-0.15-0.16-0.23-0.41-0.23-0.76v-11.58c0-0.35,0.08-0.6,0.24-0.77
				c0.16-0.17,0.43-0.25,0.8-0.25h1.94c0.39,0,0.66,0.08,0.82,0.25c0.16,0.17,0.24,0.42,0.24,0.77v11.58c0,0.35-0.08,0.6-0.24,0.76
				c-0.16,0.16-0.43,0.24-0.82,0.24h-1.94C218.1,164.21,217.83,164.13,217.67,163.97z"/>
			<path class="st103" d="M224.76,162.7c-1.31-1.21-1.96-2.97-1.96-5.29c0-2.32,0.66-4.08,1.97-5.29c1.31-1.21,3.15-1.81,5.51-1.81
				c1.03,0,1.96,0.1,2.8,0.31c0.84,0.21,1.54,0.5,2.1,0.87c0.15,0.09,0.22,0.21,0.22,0.34c0,0.08-0.05,0.21-0.14,0.4l-0.88,1.5
				c-0.08,0.17-0.19,0.26-0.32,0.26c-0.08,0-0.21-0.05-0.4-0.14c-0.85-0.44-1.8-0.66-2.84-0.66c-1.24,0-2.22,0.35-2.93,1.06
				s-1.07,1.76-1.07,3.16c0,1.43,0.32,2.49,0.96,3.18s1.55,1.04,2.74,1.04c0.29,0,0.6-0.03,0.93-0.08c0.33-0.05,0.59-0.12,0.79-0.2
				v-2.44h-1.72c-0.37,0-0.63-0.07-0.77-0.22c-0.14-0.15-0.21-0.4-0.21-0.76v-0.9c0-0.35,0.07-0.59,0.21-0.74
				c0.14-0.15,0.4-0.22,0.77-0.22h4.26c0.45,0,0.77,0.1,0.94,0.31c0.17,0.21,0.26,0.52,0.26,0.95v4.88c0,0.25-0.03,0.45-0.09,0.59
				c-0.06,0.14-0.18,0.28-0.37,0.41c-1.23,0.87-2.97,1.3-5.24,1.3C227.91,164.51,226.07,163.91,224.76,162.7z"/>
			<path class="st103" d="M236.9,163.85c0-0.11,0.03-0.24,0.1-0.4l5.08-12.16c0.11-0.25,0.22-0.43,0.35-0.53
				c0.13-0.1,0.32-0.15,0.57-0.15h1.82c0.25,0,0.44,0.05,0.57,0.15c0.13,0.1,0.24,0.28,0.35,0.53l5.08,12.16
				c0.07,0.16,0.1,0.29,0.1,0.38c0,0.12-0.04,0.21-0.11,0.28c-0.07,0.07-0.18,0.1-0.31,0.1h-3.1c-0.19,0-0.33-0.04-0.44-0.11
				c-0.11-0.07-0.19-0.2-0.26-0.37l-0.7-1.92h-4.2l-0.68,1.92c-0.07,0.17-0.15,0.3-0.26,0.37c-0.11,0.07-0.26,0.11-0.46,0.11h-3.08
				C237.04,164.21,236.9,164.09,236.9,163.85z M245.12,159.09l-1.22-3.4l-1.22,3.4H245.12z"/>
			<path class="st103" d="M252.47,163.97c-0.15-0.16-0.23-0.41-0.23-0.76v-11.58c0-0.35,0.08-0.6,0.24-0.77
				c0.16-0.17,0.43-0.25,0.8-0.25h4.4c2.29,0,4.04,0.55,5.23,1.65c1.19,1.1,1.79,2.82,1.79,5.15c0,2.28-0.6,3.98-1.8,5.11
				c-1.2,1.13-2.94,1.69-5.22,1.69h-4.4C252.9,164.21,252.63,164.13,252.47,163.97z M257.86,161.31c0.96,0,1.67-0.29,2.13-0.87
				c0.46-0.58,0.69-1.59,0.69-3.03c0-1.44-0.23-2.45-0.69-3.02c-0.46-0.57-1.17-0.86-2.13-0.86h-1.58v7.78H257.86z"/>
			<path class="st103" d="M267.43,162.66c-1.21-1.23-1.81-2.98-1.81-5.25s0.6-4.02,1.81-5.25c1.21-1.23,2.97-1.85,5.29-1.85
				s4.08,0.62,5.29,1.85c1.21,1.23,1.81,2.98,1.81,5.25s-0.6,4.02-1.81,5.25c-1.21,1.23-2.97,1.85-5.29,1.85
				S268.64,163.9,267.43,162.66z M275.05,160.59c0.5-0.71,0.75-1.77,0.75-3.18c0-1.4-0.25-2.45-0.75-3.16s-1.28-1.06-2.33-1.06
				c-1.05,0-1.83,0.35-2.33,1.06s-0.75,1.76-0.75,3.16c0,1.41,0.25,2.47,0.75,3.18c0.5,0.71,1.28,1.06,2.33,1.06
				C273.78,161.65,274.55,161.3,275.05,160.59z"/>
		</g>
	</g>
	<g class="st104">
		<g>
			<path class="st0" d="M125.93,262.56h36.1h77.04c3.26,0,5.93-2.52,5.93-5.6V206.6c0-3.08-2.67-5.6-5.93-5.6H125.93
				c-3.26,0-5.93,2.52-5.93,5.6v50.37C120,260.04,122.67,262.56,125.93,262.56z"/>
			<polygon class="st0" points="159.49,254.91 147.89,254.57 136.28,254.23 141.77,263.89 147.27,273.54 153.38,264.23 			"/>
		</g>
	</g>
	<g class="st105">
		<g>
			<path class="st106" d="M128.57,235.6c-0.16-0.16-0.24-0.42-0.24-0.76v-9.72h-3.09c-0.38,0-0.63-0.08-0.76-0.23
				c-0.13-0.15-0.2-0.4-0.2-0.75v-0.94c0-0.35,0.07-0.6,0.2-0.76c0.13-0.16,0.39-0.24,0.76-0.24h10.27c0.38,0,0.63,0.08,0.77,0.24
				c0.14,0.16,0.21,0.42,0.21,0.76v0.94c0,0.35-0.07,0.6-0.21,0.75c-0.14,0.15-0.4,0.23-0.77,0.23h-3.09v9.72
				c0,0.35-0.08,0.6-0.24,0.76c-0.16,0.16-0.44,0.24-0.82,0.24h-1.95C129.01,235.84,128.73,235.76,128.57,235.6z"/>
			<path class="st106" d="M137.64,235.6c-0.15-0.16-0.23-0.42-0.23-0.76V223.2c0-0.35,0.08-0.61,0.24-0.77
				c0.16-0.17,0.43-0.25,0.8-0.25h1.95c0.39,0,0.66,0.08,0.82,0.25c0.16,0.17,0.24,0.42,0.24,0.77v4.34h4.58v-4.34
				c0-0.35,0.08-0.61,0.24-0.77c0.16-0.17,0.44-0.25,0.82-0.25h1.95c0.39,0,0.66,0.08,0.82,0.25c0.16,0.17,0.24,0.42,0.24,0.77
				v11.63c0,0.35-0.08,0.6-0.24,0.76c-0.16,0.16-0.44,0.24-0.82,0.24h-1.95c-0.39,0-0.66-0.08-0.82-0.24
				c-0.16-0.16-0.24-0.42-0.24-0.76v-4.38h-4.58v4.38c0,0.35-0.08,0.6-0.24,0.76c-0.16,0.16-0.44,0.24-0.82,0.24h-1.95
				C138.07,235.84,137.8,235.76,137.64,235.6z"/>
			<path class="st106" d="M151.45,235.48c0-0.11,0.03-0.24,0.1-0.4l5.1-12.21c0.11-0.25,0.22-0.43,0.35-0.53s0.32-0.15,0.57-0.15
				h1.83c0.25,0,0.44,0.05,0.57,0.15s0.24,0.28,0.35,0.53l5.1,12.21c0.07,0.16,0.1,0.29,0.1,0.38c0,0.12-0.04,0.21-0.11,0.28
				c-0.07,0.07-0.18,0.1-0.31,0.1H162c-0.19,0-0.33-0.04-0.44-0.11c-0.11-0.07-0.19-0.2-0.26-0.37l-0.7-1.93h-4.22l-0.68,1.93
				c-0.07,0.17-0.15,0.3-0.26,0.37c-0.11,0.07-0.26,0.11-0.46,0.11h-3.09C151.6,235.84,151.45,235.72,151.45,235.48z M159.71,230.69
				l-1.23-3.42l-1.23,3.42H159.71z"/>
			<path class="st106" d="M167.09,235.6c-0.15-0.16-0.23-0.42-0.23-0.76v-11.65c0-0.35,0.08-0.6,0.24-0.76
				c0.16-0.16,0.44-0.24,0.82-0.24h1.59c0.24,0,0.43,0.03,0.57,0.1c0.14,0.07,0.28,0.2,0.41,0.4l4.64,6.67v-6.15
				c0-0.35,0.08-0.61,0.24-0.77c0.16-0.17,0.43-0.25,0.8-0.25h1.95c0.39,0,0.66,0.08,0.82,0.25c0.16,0.17,0.24,0.42,0.24,0.77v11.65
				c0,0.35-0.08,0.6-0.24,0.75c-0.16,0.15-0.44,0.23-0.82,0.23h-1.59c-0.25,0-0.45-0.03-0.58-0.09c-0.13-0.06-0.27-0.19-0.4-0.39
				l-4.64-6.67v6.17c0,0.35-0.08,0.6-0.24,0.75c-0.16,0.15-0.44,0.23-0.82,0.23h-1.95C167.52,235.84,167.25,235.76,167.09,235.6z"/>
			<path class="st106" d="M193.14,235.46c0,0.12-0.04,0.21-0.11,0.28c-0.07,0.07-0.18,0.1-0.31,0.1h-3.11
				c-0.19,0-0.33-0.02-0.42-0.05c-0.09-0.03-0.18-0.1-0.26-0.21l-3.94-5.67v4.92c0,0.35-0.08,0.6-0.24,0.76
				c-0.16,0.16-0.44,0.24-0.82,0.24h-1.95c-0.39,0-0.66-0.08-0.81-0.24c-0.15-0.16-0.23-0.42-0.23-0.76V223.2
				c0-0.35,0.08-0.61,0.24-0.77c0.16-0.17,0.43-0.25,0.8-0.25h1.95c0.39,0,0.66,0.08,0.82,0.25c0.16,0.17,0.24,0.42,0.24,0.77v4.82
				l3.78-5.57c0.07-0.11,0.15-0.18,0.25-0.22s0.25-0.06,0.45-0.06h3.09c0.13,0,0.24,0.03,0.31,0.1c0.07,0.07,0.11,0.16,0.11,0.28
				c0,0.15-0.05,0.28-0.14,0.38l-4.3,6.01l4.46,6.13C193.09,235.18,193.14,235.31,193.14,235.46z"/>
			<path class="st106" d="M205.51,235.6c-0.16-0.16-0.24-0.42-0.24-0.76v-3.72l-4.76-8.18c-0.08-0.12-0.12-0.24-0.12-0.36
				c0-0.12,0.04-0.22,0.11-0.29c0.07-0.07,0.18-0.11,0.33-0.11h3.09c0.19,0,0.33,0.04,0.42,0.11c0.09,0.07,0.19,0.2,0.28,0.37
				l2.69,4.74l2.67-4.74c0.09-0.17,0.19-0.3,0.28-0.37c0.09-0.07,0.23-0.11,0.42-0.11h3.11c0.28,0,0.42,0.13,0.42,0.4
				c0,0.11-0.03,0.23-0.1,0.36l-4.78,8.2v3.7c0,0.35-0.08,0.6-0.24,0.76c-0.16,0.16-0.44,0.24-0.82,0.24h-1.95
				C205.95,235.84,205.68,235.76,205.51,235.6z"/>
			<path class="st106" d="M215.49,234.28c-1.21-1.24-1.82-3-1.82-5.27c0-2.28,0.61-4.04,1.82-5.27c1.21-1.24,2.98-1.86,5.31-1.86
				s4.1,0.62,5.31,1.86c1.21,1.24,1.82,3,1.82,5.27c0,2.28-0.61,4.03-1.82,5.27c-1.21,1.24-2.98,1.86-5.31,1.86
				S216.7,235.52,215.49,234.28z M223.14,232.2c0.5-0.71,0.75-1.77,0.75-3.19c0-1.41-0.25-2.46-0.75-3.17
				c-0.5-0.71-1.28-1.06-2.34-1.06c-1.06,0-1.84,0.36-2.34,1.06c-0.5,0.71-0.75,1.77-0.75,3.17c0,1.42,0.25,2.48,0.75,3.19
				c0.5,0.71,1.28,1.06,2.34,1.06C221.86,233.27,222.64,232.91,223.14,232.2z"/>
			<path class="st106" d="M232.22,235.52c-0.97-0.42-1.72-1.02-2.26-1.81c-0.54-0.79-0.8-1.73-0.8-2.81v-7.69
				c0-0.35,0.08-0.61,0.24-0.77c0.16-0.17,0.43-0.25,0.8-0.25h1.95c0.39,0,0.66,0.08,0.82,0.25c0.16,0.17,0.24,0.42,0.24,0.77v7.75
				c0,0.75,0.21,1.32,0.63,1.72c0.42,0.4,1,0.59,1.74,0.59c0.74,0,1.31-0.2,1.73-0.59c0.42-0.39,0.62-0.97,0.62-1.72v-7.75
				c0-0.35,0.08-0.61,0.24-0.77c0.16-0.17,0.43-0.25,0.8-0.25h1.95c0.39,0,0.67,0.08,0.83,0.25c0.17,0.17,0.25,0.42,0.25,0.77v7.69
				c0,1.08-0.27,2.02-0.81,2.81c-0.54,0.79-1.3,1.39-2.26,1.81s-2.08,0.62-3.35,0.62S233.19,235.93,232.22,235.52z"/>
		</g>
	</g>
</g>
</svg>
