<?xml version="1.0" encoding="utf-8"?>
<!-- Generator: Adobe Illustrator 23.0.0, SVG Export Plug-In . SVG Version: 6.00 Build 0)  -->
<svg version="1.1" id="Capa_1" xmlns="http://www.w3.org/2000/svg" xmlns:xlink="http://www.w3.org/1999/xlink" x="0px" y="0px"
	 viewBox="0 0 400 702" style="enable-background:new 0 0 400 702;" xml:space="preserve">
<style type="text/css">
	.st0{fill:#0085B0;}
	.st1{fill:#E0EF18;}
	.st2{fill:#CECECE;}
	.st3{fill:#FFFFFF;}
	.st4{fill:#F2F2F2;}
	.st5{fill:#EACCB0;}
	.st6{fill:#9B9B9B;}
	.st7{fill:#939393;}
	.st8{fill:#EFEFEF;}
	.st9{fill:#828282;}
	.st10{fill:#2C2A2D;}
	.st11{fill:#202021;}
	.st12{fill:#F2D4B6;}
	.st13{fill:#534D46;}
	.st14{fill:#E8D313;}
	.st15{fill:#2ACCFF;}
	.st16{fill:#4E4F4F;}
	.st17{fill:#003A94;}
	.st18{fill:#00D13C;}
	.st19{fill:#15682A;}
	.st20{fill:#D40000;}
	.st21{fill:#505050;}
	.st22{fill:#DFDFDF;}
	.st23{fill:none;}
	.st24{fill:#636363;}
	.st25{fill:#6C92D5;}
	.st26{fill:#22272F;}
	.st27{fill:#1B2538;}
	.st28{fill:#253452;}
	.st29{fill:#F9F9F9;}
	.st30{fill:#2D3543;}
	.st31{fill:#2A3D60;}
	.st32{fill:#587955;}
	.st33{fill:#CD7054;}
	.st34{fill:#F1CC4B;}
	.st35{fill:#ACACAC;}
	.st36{fill:#AAE528;}
	.st37{fill:#28CEBA;}
	.st38{fill:#DB143F;}
	.st39{fill:#53C2C9;}
	.st40{fill:#FFB412;}
	.st41{fill:#866A5E;}
	.st42{fill:#F7DDCB;}
	.st43{fill:#FFE6D4;}
	.st44{fill:#F5F5F5;}
	.st45{fill:#1A2830;}
	.st46{fill:#24353F;}
	.st47{fill:#132026;}
	.st48{fill:#F9FF03;}
	.st49{fill:#272728;}
	.st50{fill:#1E1D1E;}
	.st51{fill:#160423;}
	.st52{fill-rule:evenodd;clip-rule:evenodd;fill:#FFFFFF;}
	.st53{fill-rule:evenodd;clip-rule:evenodd;fill:#1996B8;}
	.st54{fill:#0C387D;}
	.st55{fill:#C69A81;}
	.st56{fill:#D1A385;}
	.st57{fill:#EAEAEA;}
	.st58{fill:#093E8C;}
	.st59{fill:#0B2A62;}
	.st60{fill:#D32A3B;}
	.st61{fill:#827C7D;}
	.st62{opacity:0.7;fill:#7F7F7F;}
	.st63{fill:#FDFDFD;}
	.st64{fill:#DAA449;}
	.st65{fill:#DD9225;}
	.st66{opacity:0.3;}
	.st67{fill:#425793;}
	.st68{opacity:0.8;}
	.st69{filter:url(#Adobe_OpacityMaskFilter);}
	.st70{opacity:0.15;mask:url(#SVGID_1_);}
	.st71{fill:#090B00;}
	.st72{opacity:0.1;}
	.st73{fill:#211915;}
	.st74{filter:url(#Adobe_OpacityMaskFilter_1_);}
	.st75{opacity:0.15;mask:url(#SVGID_2_);}
	.st76{fill:#AF3623;}
	.st77{filter:url(#Adobe_OpacityMaskFilter_2_);}
	.st78{opacity:0.15;mask:url(#SVGID_3_);}
	.st79{filter:url(#Adobe_OpacityMaskFilter_3_);}
	.st80{opacity:0.15;mask:url(#SVGID_4_);}
	.st81{fill:#456495;}
	.st82{filter:url(#Adobe_OpacityMaskFilter_4_);}
	.st83{opacity:0.15;mask:url(#SVGID_5_);}
	.st84{filter:url(#Adobe_OpacityMaskFilter_5_);}
	.st85{opacity:0.15;mask:url(#SVGID_6_);}
	.st86{fill:#76A9DA;}
	.st87{filter:url(#Adobe_OpacityMaskFilter_6_);}
	.st88{opacity:0.15;mask:url(#SVGID_7_);}
	.st89{filter:url(#Adobe_OpacityMaskFilter_7_);}
	.st90{opacity:0.15;mask:url(#SVGID_8_);}
	.st91{fill:#1F3642;}
	.st92{fill:#A9BDDA;}
	.st93{opacity:0.46;fill:#A6B4BC;}
	.st94{fill:#74C475;}
	.st95{fill:#221F21;}
	.st96{fill:#2D2D2D;}
	.st97{fill:#1C1B1A;}
	.st98{fill:#77181C;}
	.st99{fill:#262525;}
	.st100{fill:#11100F;}
	.st101{opacity:0.18;}
	.st102{opacity:0.38;}
	.st103{fill:#0A5B1F;}
	.st104{opacity:0.27;}
	.st105{opacity:0.48;}
	.st106{fill:#0A4654;}
	.st107{fill:#C2C6C6;}
	.st108{fill:#E5E5E5;stroke:#FFFFFF;stroke-miterlimit:10;}
	.st109{fill:#ACB4B5;}
	.st110{fill:#7F8384;}
	.st111{fill:#15772F;}
	.st112{fill:#F4F4F4;}
	.st113{fill:#53B8DB;}
	.st114{fill:#06EF42;}
	.st115{fill:#E7ED07;}
	.st116{fill:#CCCCCA;}
	.st117{fill:#EADF13;}
	.st118{fill:#C2C2C2;}
	.st119{fill:#85B681;}
	.st120{fill:#A1DC9B;}
	.st121{fill:#90C58B;}
	.st122{fill:#22241F;}
	.st123{opacity:0.5;}
	.st124{fill:#A2CADE;}
	.st125{fill:#E9E9E9;}
	.st126{fill:#D9D9D9;}
	.st127{fill:#CDCDCD;}
	.st128{opacity:0.34;fill:#F0F0F0;}
	.st129{fill:#5A5B5A;}
	.st130{fill:#FFE600;}
	.st131{fill:#DB1F59;}
	.st132{fill:#727272;}
	.st133{fill:#207235;}
	.st134{fill:#A3A3A3;}
	.st135{fill:#BCBCBC;}
	.st136{fill:#0A511C;}
	.st137{fill:#F9FF00;}
	.st138{fill:#D59F6D;}
	.st139{fill:#C0804A;}
	.st140{fill:#E6BA8A;}
	.st141{fill:#BE3ACC;}
	.st142{fill:#FFFFFF;stroke:#443F0C;stroke-width:9;stroke-miterlimit:10;}
	.st143{fill:none;stroke:#443F0C;stroke-width:9;stroke-miterlimit:10;}
	.st144{fill:#170623;}
	.st145{fill:#158231;}
	.st146{fill:#C89D76;}
	.st147{opacity:0.4;}
	.st148{fill:#ADADAD;}
	.st149{fill:#EDC3A6;}
	.st150{opacity:0.69;}
	.st151{fill:#E5D3D6;}
	.st152{opacity:0.44;}
	.st153{fill:#A5A5A5;}
	.st154{fill:#DDE5E4;}
	.st155{fill:#5C9169;}
	.st156{fill:#934215;}
	.st157{fill:#47413B;}
	.st158{fill:#601A1F;}
	.st159{fill:#044554;}
	.st160{opacity:0.7;}
	.st161{fill:#7F7F7F;}
	.st162{fill:#6B8A69;}
	.st163{opacity:0.24;fill:#848D90;}
	.st164{opacity:0.4;fill:#848D90;}
	.st165{fill:#F2D5D5;}
	.st166{fill:#485CC1;}
	.st167{fill:#C6CBE0;}
	.st168{fill:#8B909E;}
	.st169{fill:#53BC1B;}
	.st170{fill:#11565B;}
	.st171{fill:#67A06D;}
	.st172{fill:#FFEC00;}
	.st173{fill:#77A007;}
	.st174{fill:#E50731;}
	.st175{fill:#266472;}
	.st176{fill:#D4D4D4;}
	.st177{fill:#0E9932;}
	.st178{fill:#87DD24;}
	.st179{fill:#76A172;}
	.st180{fill:#62835F;}
	.st181{fill:#96D090;}
	.st182{fill:#D6D6D6;}
	.st183{fill:#606060;}
	.st184{fill:#494949;}
	.st185{fill:#29E55A;}
	.st186{fill:#2C703D;}
	.st187{fill:#DD0744;}
	.st188{fill:#EDEDED;}
	.st189{fill:#2A5936;}
	.st190{fill:#B9BBC1;}
	.st191{fill:#FFD79E;}
	.st192{fill:#FFE6C2;}
	.st193{fill:#2CBB55;}
	.st194{fill:#5C412D;}
	.st195{fill:#EC0000;}
	.st196{fill:#DD2626;}
	.st197{fill:#EA9334;}
	.st198{fill:#FCC232;}
	.st199{fill:#F9B234;}
	.st200{fill:#F7A037;}
	.st201{fill:#E0E0E0;}
</style>
<g>
	<g>
		<path class="st18" d="M391.66,647c0,22-18,40-40,40H49.98c-22,0-40-18-40-40v-46.27c0-22,18-40,40-40h301.68c22,0,40,18,40,40V647
			z"/>
	</g>
	<g>
		<path d="M162.18,386.46c-0.31-0.33-0.47-0.83-0.47-1.5v-19.84c0-0.68,0.16-1.17,0.47-1.49c0.32-0.32,0.87-0.47,1.66-0.47h4.02
			c0.51,0,0.92,0.06,1.23,0.19s0.54,0.38,0.7,0.75l4.09,10.25l4.09-10.25c0.16-0.37,0.4-0.63,0.7-0.75c0.3-0.13,0.71-0.19,1.22-0.19
			h4.03c0.79,0,1.35,0.16,1.66,0.47c0.31,0.31,0.47,0.81,0.47,1.49v19.84c0,0.68-0.16,1.18-0.47,1.5c-0.32,0.33-0.86,0.49-1.63,0.49
			h-3.36c-0.77,0-1.32-0.16-1.64-0.49c-0.33-0.33-0.49-0.83-0.49-1.5v-9.55l-2.06,4.76c-0.28,0.68-0.58,1.16-0.91,1.45
			c-0.33,0.29-0.86,0.44-1.61,0.44s-1.28-0.15-1.61-0.44c-0.33-0.29-0.63-0.78-0.91-1.45l-2.06-4.76v9.55c0,0.68-0.16,1.18-0.47,1.5
			c-0.31,0.33-0.87,0.49-1.66,0.49h-3.36C163.04,386.95,162.49,386.79,162.18,386.46z"/>
		<path d="M186.94,386.22c0-0.21,0.06-0.47,0.17-0.77l8.71-20.96c0.21-0.49,0.45-0.83,0.72-1.03c0.27-0.2,0.65-0.3,1.14-0.3h3.82
			c0.49,0,0.87,0.1,1.14,0.3c0.27,0.2,0.51,0.54,0.72,1.03l8.68,20.96c0.12,0.3,0.17,0.56,0.17,0.77c0,0.49-0.26,0.74-0.77,0.74
			h-6.58c-0.72,0-1.18-0.32-1.37-0.95l-0.84-2.59h-6.2l-0.8,2.59c-0.19,0.63-0.64,0.95-1.37,0.95h-6.58
			C187.2,386.95,186.94,386.71,186.94,386.22z M195.83,361.05c0-0.19,0.04-0.39,0.1-0.6l1.47-4.06c0.19-0.54,0.41-0.9,0.66-1.08
			c0.26-0.19,0.74-0.28,1.44-0.28h5.01c0.49,0,0.88,0.09,1.15,0.26c0.28,0.17,0.42,0.43,0.42,0.75c0,0.28-0.09,0.57-0.28,0.88
			l-2.24,3.78c-0.33,0.56-0.64,0.92-0.95,1.08c-0.3,0.16-0.85,0.25-1.64,0.25h-3.75C196.3,362.03,195.83,361.71,195.83,361.05z
			 M200.94,377.89l-1.37-4.34l-1.37,4.34H200.94z"/>
		<path d="M216.83,386.81c-1.82-0.44-3.29-1.06-4.41-1.86c-0.47-0.33-0.7-0.64-0.7-0.95c0-0.21,0.08-0.43,0.25-0.67l2.03-3.18
			c0.21-0.3,0.42-0.46,0.63-0.46c0.19,0,0.41,0.08,0.67,0.25c0.84,0.51,1.8,0.92,2.89,1.21c1.08,0.29,2.14,0.44,3.17,0.44
			c0.86,0,1.49-0.12,1.87-0.35c0.38-0.23,0.58-0.59,0.58-1.08c0-0.54-0.26-0.97-0.77-1.29c-0.51-0.33-1.4-0.74-2.66-1.22
			c-2.36-0.91-4.21-1.94-5.57-3.1c-1.35-1.16-2.03-2.69-2.03-4.6c0-2.43,0.85-4.25,2.54-5.48s3.97-1.84,6.84-1.84
			c2.01,0,3.72,0.18,5.13,0.53c1.41,0.35,2.64,0.9,3.69,1.64c0.47,0.33,0.7,0.64,0.7,0.95c0,0.21-0.08,0.43-0.25,0.67l-2.03,3.18
			c-0.21,0.33-0.42,0.49-0.63,0.49c-0.14,0-0.36-0.09-0.66-0.28c-0.56-0.37-1.23-0.68-2-0.93c-0.77-0.25-1.6-0.37-2.48-0.37
			c-0.82,0-1.44,0.12-1.86,0.35s-0.63,0.61-0.63,1.12c0,0.42,0.14,0.77,0.44,1.05c0.29,0.28,0.66,0.52,1.1,0.72s1.21,0.52,2.31,0.96
			c1.75,0.7,3.13,1.37,4.13,2.01s1.76,1.41,2.27,2.31c0.51,0.9,0.77,2.04,0.77,3.41c0,2.1-0.79,3.8-2.36,5.09
			c-1.58,1.3-3.93,1.94-7.05,1.94C220.62,387.48,218.65,387.25,216.83,386.81z"/>
		<path d="M40.24,428.46c-0.31-0.33-0.47-0.83-0.47-1.5v-19.81c0-0.68,0.16-1.18,0.47-1.5c0.32-0.33,0.86-0.49,1.63-0.49h14.49
			c0.75,0,1.25,0.16,1.52,0.47c0.27,0.31,0.4,0.82,0.4,1.52v1.96c0,0.7-0.13,1.21-0.4,1.52c-0.27,0.31-0.78,0.47-1.52,0.47h-8.19
			v2.97h5.04c0.75,0,1.25,0.16,1.52,0.47c0.27,0.31,0.4,0.82,0.4,1.52v1.96c0,0.7-0.13,1.21-0.4,1.52
			c-0.27,0.32-0.78,0.47-1.52,0.47h-5.04v6.93c0,0.68-0.16,1.18-0.47,1.5c-0.31,0.33-0.87,0.49-1.66,0.49h-4.16
			C41.1,428.95,40.55,428.79,40.24,428.46z"/>
		<path d="M64.79,428.38c-1.73-0.74-3.07-1.8-4.03-3.19c-0.96-1.39-1.43-3.04-1.43-4.95v-13.09c0-0.68,0.16-1.18,0.47-1.5
			c0.32-0.33,0.86-0.49,1.63-0.49h4.16c0.79,0,1.35,0.16,1.66,0.47c0.32,0.31,0.47,0.82,0.47,1.52v13.19c0,1.1,0.27,1.91,0.82,2.45
			c0.55,0.54,1.3,0.8,2.26,0.8s1.71-0.27,2.26-0.8c0.55-0.54,0.82-1.35,0.82-2.45v-13.19c0-0.68,0.16-1.18,0.47-1.5
			c0.32-0.33,0.86-0.49,1.63-0.49h4.17c0.79,0,1.35,0.16,1.66,0.47c0.32,0.31,0.47,0.82,0.47,1.52v13.09c0,1.91-0.48,3.56-1.43,4.95
			c-0.96,1.39-2.3,2.45-4.03,3.19c-1.73,0.73-3.73,1.1-6.02,1.1C68.52,429.48,66.52,429.11,64.79,428.38z"/>
		<path d="M85.04,428.46c-0.32-0.33-0.47-0.83-0.47-1.5v-19.84c0-0.68,0.16-1.17,0.47-1.49c0.32-0.32,0.87-0.47,1.66-0.47h3.32
			c0.49,0,0.87,0.06,1.14,0.19c0.27,0.13,0.53,0.38,0.79,0.75l6.33,9.42v-8.36c0-0.68,0.16-1.18,0.47-1.5
			c0.32-0.33,0.86-0.49,1.63-0.49h4.17c0.79,0,1.35,0.16,1.66,0.47c0.32,0.31,0.47,0.82,0.47,1.52v19.84c0,0.68-0.16,1.17-0.47,1.49
			c-0.31,0.32-0.87,0.47-1.66,0.47h-3.33c-0.49,0-0.87-0.06-1.14-0.19c-0.27-0.13-0.53-0.38-0.79-0.75l-6.33-9.42v8.4
			c0,0.68-0.16,1.17-0.47,1.49c-0.32,0.32-0.87,0.47-1.66,0.47h-4.17C85.9,428.95,85.35,428.79,85.04,428.46z"/>
		<path d="M111.97,426.34c-2.36-2.09-3.54-5.19-3.54-9.29c0-4.13,1.14-7.23,3.41-9.31c2.28-2.08,5.52-3.12,9.75-3.12
			c1.91,0,3.62,0.19,5.11,0.56c1.49,0.37,2.74,0.9,3.75,1.57c0.28,0.21,0.42,0.44,0.42,0.7c0,0.21-0.11,0.5-0.32,0.88l-1.75,3.01
			c-0.19,0.33-0.41,0.49-0.67,0.49c-0.16,0-0.43-0.09-0.8-0.28c-0.65-0.33-1.34-0.58-2.05-0.77c-0.71-0.19-1.55-0.28-2.5-0.28
			c-1.94,0-3.42,0.56-4.44,1.68c-1.03,1.12-1.54,2.74-1.54,4.86c0,2.1,0.56,3.72,1.68,4.85c1.12,1.13,2.65,1.7,4.58,1.7
			c1.68,0,3.22-0.35,4.62-1.05c0.37-0.19,0.64-0.28,0.8-0.28c0.26,0,0.48,0.16,0.67,0.49l1.75,3.01c0.21,0.37,0.31,0.67,0.31,0.88
			c0,0.26-0.14,0.49-0.42,0.7c-1,0.68-2.26,1.2-3.78,1.58s-3.23,0.56-5.15,0.56C117.63,429.48,114.33,428.43,111.97,426.34z"/>
		<path d="M133.44,428.46c-0.32-0.33-0.47-0.83-0.47-1.5v-19.81c0-0.68,0.16-1.18,0.47-1.5c0.31-0.33,0.86-0.49,1.63-0.49h4.17
			c0.79,0,1.35,0.16,1.66,0.47c0.31,0.31,0.47,0.82,0.47,1.52v19.81c0,0.68-0.16,1.18-0.47,1.5c-0.32,0.33-0.87,0.49-1.66,0.49
			h-4.17C134.3,428.95,133.76,428.79,133.44,428.46z"/>
		<path d="M146.34,426.24c-2.15-2.16-3.22-5.22-3.22-9.19c0-3.97,1.07-7.03,3.22-9.19c2.15-2.16,5.3-3.24,9.45-3.24
			c4.15,0,7.3,1.08,9.45,3.24c2.15,2.16,3.22,5.22,3.22,9.19c0,3.97-1.07,7.03-3.22,9.19c-2.15,2.16-5.3,3.24-9.45,3.24
			C151.64,429.48,148.49,428.4,146.34,426.24z M159.08,421.97c0.68-1.08,1.02-2.72,1.02-4.92c0-2.22-0.34-3.86-1.02-4.93
			c-0.68-1.07-1.77-1.61-3.29-1.61c-1.52,0-2.61,0.54-3.29,1.61c-0.68,1.07-1.01,2.72-1.01,4.93c0,2.19,0.34,3.83,1.01,4.92
			c0.68,1.08,1.77,1.63,3.29,1.63C157.31,423.6,158.4,423.05,159.08,421.97z"/>
		<path d="M170.68,428.46c-0.32-0.33-0.47-0.83-0.47-1.5v-19.84c0-0.68,0.16-1.17,0.47-1.49c0.31-0.32,0.87-0.47,1.66-0.47h3.33
			c0.49,0,0.87,0.06,1.14,0.19c0.27,0.13,0.53,0.38,0.79,0.75l6.33,9.42v-8.36c0-0.68,0.16-1.18,0.47-1.5
			c0.32-0.33,0.86-0.49,1.63-0.49h4.16c0.79,0,1.35,0.16,1.66,0.47c0.32,0.31,0.47,0.82,0.47,1.52v19.84c0,0.68-0.16,1.17-0.47,1.49
			c-0.32,0.32-0.87,0.47-1.66,0.47h-3.32c-0.49,0-0.87-0.06-1.14-0.19s-0.53-0.38-0.79-0.75l-6.33-9.42v8.4
			c0,0.68-0.16,1.17-0.47,1.49c-0.32,0.32-0.87,0.47-1.66,0.47h-4.17C171.54,428.95,171,428.79,170.68,428.46z"/>
		<path d="M194.08,428.22c0-0.21,0.06-0.47,0.18-0.77l8.71-20.96c0.21-0.49,0.45-0.83,0.72-1.03c0.27-0.2,0.65-0.3,1.14-0.3h3.81
			c0.49,0,0.87,0.1,1.14,0.3c0.27,0.2,0.51,0.54,0.72,1.03l8.68,20.96c0.12,0.3,0.17,0.56,0.17,0.77c0,0.49-0.26,0.74-0.77,0.74H212
			c-0.72,0-1.18-0.32-1.36-0.95l-0.84-2.59h-6.2l-0.8,2.59c-0.19,0.63-0.64,0.95-1.37,0.95h-6.58
			C194.34,428.95,194.08,428.71,194.08,428.22z M208.08,419.89l-1.36-4.34l-1.37,4.34H208.08z"/>
		<path d="M221.57,428.46c-0.31-0.33-0.47-0.83-0.47-1.5v-19.81c0-0.68,0.16-1.18,0.47-1.5c0.32-0.33,0.86-0.49,1.63-0.49h4.16
			c0.79,0,1.35,0.16,1.66,0.47c0.32,0.31,0.47,0.82,0.47,1.52V423h8.16c0.75,0,1.25,0.16,1.52,0.47s0.4,0.82,0.4,1.52v1.96
			c0,0.7-0.13,1.21-0.4,1.52c-0.27,0.32-0.78,0.47-1.52,0.47H223.2C222.43,428.95,221.89,428.79,221.57,428.46z"/>
		<path d="M241.1,428.46c-0.32-0.33-0.47-0.83-0.47-1.5v-19.81c0-0.68,0.16-1.18,0.47-1.5c0.32-0.33,0.86-0.49,1.63-0.49h4.17
			c0.79,0,1.35,0.16,1.66,0.47c0.32,0.31,0.47,0.82,0.47,1.52v19.81c0,0.68-0.16,1.18-0.47,1.5c-0.32,0.33-0.87,0.49-1.66,0.49
			h-4.17C241.96,428.95,241.42,428.79,241.1,428.46z"/>
		<path d="M251.95,428.46c-0.32-0.33-0.47-0.83-0.47-1.5v-19.81c0-0.68,0.16-1.18,0.47-1.5c0.31-0.33,0.86-0.49,1.63-0.49h8.05
			c8.24,0,12.35,3.97,12.35,11.9c0,3.92-1.06,6.88-3.17,8.89c-2.11,2.01-5.17,3.01-9.19,3.01h-8.05
			C252.81,428.95,252.27,428.79,251.95,428.46z M261.95,423c1.31,0,2.25-0.43,2.82-1.29s0.86-2.42,0.86-4.66
			c0-2.24-0.29-3.79-0.86-4.65s-1.51-1.29-2.82-1.29h-2.06V423H261.95z"/>
		<path d="M273.46,428.22c0-0.21,0.06-0.47,0.17-0.77l8.71-20.96c0.21-0.49,0.45-0.83,0.72-1.03c0.27-0.2,0.65-0.3,1.14-0.3h3.81
			c0.49,0,0.87,0.1,1.14,0.3c0.27,0.2,0.51,0.54,0.72,1.03l8.68,20.96c0.12,0.3,0.18,0.56,0.18,0.77c0,0.49-0.26,0.74-0.77,0.74
			h-6.58c-0.72,0-1.18-0.32-1.36-0.95l-0.84-2.59h-6.2l-0.8,2.59c-0.19,0.63-0.64,0.95-1.37,0.95h-6.58
			C273.72,428.95,273.46,428.71,273.46,428.22z M287.46,419.89l-1.36-4.34l-1.37,4.34H287.46z"/>
		<path d="M300.95,428.46c-0.32-0.33-0.47-0.83-0.47-1.5v-19.81c0-0.68,0.16-1.18,0.47-1.5c0.32-0.33,0.86-0.49,1.63-0.49h8.05
			c8.24,0,12.35,3.97,12.35,11.9c0,3.92-1.06,6.88-3.17,8.89c-2.11,2.01-5.17,3.01-9.19,3.01h-8.05
			C301.81,428.95,301.27,428.79,300.95,428.46z M310.95,423c1.31,0,2.25-0.43,2.82-1.29c0.57-0.86,0.86-2.42,0.86-4.66
			c0-2.24-0.29-3.79-0.86-4.65c-0.57-0.86-1.51-1.29-2.82-1.29h-2.07V423H310.95z"/>
		<path d="M325.21,428.46c-0.31-0.33-0.47-0.83-0.47-1.5v-19.81c0-0.68,0.16-1.18,0.47-1.5c0.32-0.33,0.86-0.49,1.63-0.49h14.49
			c0.75,0,1.25,0.16,1.52,0.47c0.27,0.31,0.4,0.82,0.4,1.52v1.96c0,0.7-0.13,1.21-0.4,1.52c-0.27,0.31-0.78,0.47-1.52,0.47h-8.19
			v3.01h5.04c0.75,0,1.25,0.16,1.52,0.47c0.27,0.31,0.4,0.82,0.4,1.52V418c0,0.7-0.13,1.21-0.4,1.52c-0.27,0.32-0.78,0.47-1.52,0.47
			h-5.04V423h8.15c0.75,0,1.25,0.16,1.52,0.47c0.27,0.32,0.4,0.82,0.4,1.52v1.96c0,0.7-0.13,1.21-0.4,1.52
			c-0.27,0.32-0.78,0.47-1.52,0.47h-14.45C326.06,428.95,325.52,428.79,325.21,428.46z"/>
		<path d="M349.27,428.81c-1.82-0.44-3.29-1.06-4.41-1.86c-0.47-0.33-0.7-0.64-0.7-0.95c0-0.21,0.08-0.43,0.24-0.67l2.03-3.18
			c0.21-0.3,0.42-0.46,0.63-0.46c0.19,0,0.41,0.08,0.67,0.25c0.84,0.51,1.8,0.92,2.89,1.21c1.08,0.29,2.14,0.44,3.17,0.44
			c0.86,0,1.49-0.12,1.87-0.35c0.38-0.23,0.58-0.59,0.58-1.08c0-0.54-0.26-0.97-0.77-1.29c-0.51-0.33-1.4-0.74-2.66-1.22
			c-2.36-0.91-4.21-1.94-5.56-3.1c-1.35-1.16-2.03-2.69-2.03-4.6c0-2.43,0.85-4.25,2.54-5.48c1.69-1.23,3.97-1.84,6.84-1.84
			c2.01,0,3.71,0.17,5.13,0.53c1.41,0.35,2.64,0.9,3.69,1.64c0.47,0.33,0.7,0.64,0.7,0.95c0,0.21-0.08,0.43-0.24,0.67l-2.03,3.18
			c-0.21,0.33-0.42,0.49-0.63,0.49c-0.14,0-0.36-0.09-0.67-0.28c-0.56-0.37-1.22-0.68-1.99-0.93c-0.77-0.25-1.6-0.37-2.49-0.37
			c-0.82,0-1.43,0.12-1.85,0.35s-0.63,0.61-0.63,1.12c0,0.42,0.15,0.77,0.44,1.05c0.29,0.28,0.66,0.52,1.1,0.72
			c0.44,0.2,1.21,0.52,2.31,0.96c1.75,0.7,3.13,1.37,4.13,2.01c1,0.64,1.76,1.41,2.28,2.31c0.51,0.9,0.77,2.04,0.77,3.41
			c0,2.1-0.79,3.8-2.36,5.09c-1.58,1.3-3.93,1.94-7.05,1.94C353.06,429.48,351.09,429.25,349.27,428.81z"/>
		<path d="M48.71,470.81c-1.82-0.44-3.29-1.06-4.41-1.86c-0.47-0.33-0.7-0.64-0.7-0.95c0-0.21,0.08-0.43,0.25-0.67l2.03-3.18
			c0.21-0.3,0.42-0.46,0.63-0.46c0.19,0,0.41,0.08,0.67,0.25c0.84,0.51,1.8,0.92,2.89,1.21c1.08,0.29,2.14,0.44,3.17,0.44
			c0.86,0,1.49-0.12,1.87-0.35c0.38-0.23,0.58-0.59,0.58-1.08c0-0.54-0.26-0.97-0.77-1.29c-0.51-0.33-1.4-0.74-2.66-1.22
			c-2.36-0.91-4.21-1.94-5.57-3.1c-1.35-1.16-2.03-2.69-2.03-4.6c0-2.43,0.85-4.25,2.54-5.48c1.69-1.23,3.97-1.84,6.84-1.84
			c2.01,0,3.72,0.17,5.13,0.53c1.41,0.35,2.64,0.9,3.69,1.64c0.47,0.33,0.7,0.64,0.7,0.95c0,0.21-0.08,0.43-0.25,0.67l-2.03,3.18
			c-0.21,0.33-0.42,0.49-0.63,0.49c-0.14,0-0.36-0.09-0.66-0.28c-0.56-0.37-1.23-0.68-2-0.93c-0.77-0.25-1.6-0.37-2.48-0.37
			c-0.82,0-1.44,0.12-1.86,0.35s-0.63,0.61-0.63,1.12c0,0.42,0.14,0.77,0.44,1.05c0.29,0.28,0.66,0.52,1.1,0.72s1.21,0.52,2.31,0.96
			c1.75,0.7,3.13,1.37,4.13,2.01s1.76,1.41,2.27,2.31c0.51,0.9,0.77,2.04,0.77,3.41c0,2.1-0.79,3.8-2.36,5.09
			c-1.58,1.3-3.93,1.94-7.05,1.94C52.5,471.48,50.53,471.25,48.71,470.81z"/>
		<path d="M66.26,470.46c-0.31-0.33-0.47-0.83-0.47-1.5v-19.81c0-0.68,0.16-1.18,0.47-1.5c0.32-0.33,0.86-0.49,1.63-0.49h14.49
			c0.75,0,1.25,0.16,1.52,0.47c0.27,0.31,0.4,0.82,0.4,1.52v1.96c0,0.7-0.13,1.21-0.4,1.52c-0.27,0.31-0.78,0.47-1.52,0.47h-8.19
			v3.01h5.04c0.75,0,1.25,0.16,1.52,0.47c0.27,0.31,0.4,0.82,0.4,1.52V460c0,0.7-0.13,1.21-0.4,1.52c-0.27,0.32-0.78,0.47-1.52,0.47
			h-5.04V465h8.15c0.75,0,1.25,0.16,1.52,0.47c0.27,0.32,0.4,0.82,0.4,1.52v1.96c0,0.7-0.13,1.21-0.4,1.52
			c-0.27,0.32-0.78,0.47-1.52,0.47H67.89C67.12,470.95,66.58,470.79,66.26,470.46z"/>
		<path d="M87.14,468.34c-2.36-2.09-3.54-5.19-3.54-9.29c0-4.08,1.18-7.17,3.54-9.27c2.36-2.1,5.65-3.15,9.87-3.15
			c1.91,0,3.63,0.19,5.14,0.56s2.78,0.9,3.78,1.57c0.28,0.21,0.42,0.44,0.42,0.7c0,0.21-0.1,0.5-0.32,0.88l-1.75,3.01
			c-0.19,0.33-0.41,0.49-0.66,0.49c-0.16,0-0.43-0.09-0.8-0.28c-1.4-0.7-2.94-1.05-4.62-1.05c-1.94,0-3.46,0.55-4.57,1.66
			c-1.11,1.11-1.66,2.74-1.66,4.88c0,2.22,0.47,3.86,1.4,4.92s2.32,1.59,4.17,1.59c0.33,0,0.69-0.03,1.1-0.09
			c0.41-0.06,0.74-0.12,1-0.19v-3.19h-2.24c-0.75,0-1.25-0.14-1.52-0.44c-0.27-0.29-0.4-0.79-0.4-1.49v-1.92
			c0-0.7,0.13-1.2,0.4-1.49s0.78-0.44,1.52-0.44h7.53c0.91,0,1.54,0.2,1.89,0.61s0.52,1.06,0.52,1.94v8.19
			c0,0.51-0.06,0.9-0.19,1.17c-0.13,0.27-0.38,0.54-0.75,0.82c-2.24,1.61-5.35,2.42-9.34,2.42C92.8,471.48,89.5,470.43,87.14,468.34
			z"/>
		<path d="M115.42,470.38c-1.73-0.74-3.07-1.8-4.03-3.19c-0.96-1.39-1.44-3.04-1.44-4.95v-13.09c0-0.68,0.16-1.18,0.47-1.5
			c0.32-0.33,0.86-0.49,1.63-0.49h4.17c0.79,0,1.35,0.16,1.66,0.47c0.31,0.31,0.47,0.82,0.47,1.52v13.19c0,1.1,0.27,1.91,0.82,2.45
			c0.55,0.54,1.3,0.8,2.26,0.8s1.71-0.27,2.26-0.8c0.55-0.54,0.82-1.35,0.82-2.45v-13.19c0-0.68,0.16-1.18,0.47-1.5
			c0.31-0.33,0.86-0.49,1.63-0.49h4.17c0.79,0,1.35,0.16,1.66,0.47c0.31,0.31,0.47,0.82,0.47,1.52v13.09c0,1.91-0.48,3.56-1.44,4.95
			c-0.96,1.39-2.3,2.45-4.03,3.19c-1.73,0.73-3.73,1.1-6.02,1.1S117.15,471.11,115.42,470.38z M117.87,444.21
			c0-0.19,0.04-0.38,0.11-0.59l1.47-4.06c0.19-0.54,0.41-0.9,0.67-1.09c0.26-0.19,0.73-0.28,1.44-0.28h5c0.49,0,0.88,0.09,1.16,0.26
			c0.28,0.17,0.42,0.43,0.42,0.75c0,0.28-0.09,0.57-0.28,0.88l-2.24,3.78c-0.33,0.56-0.64,0.92-0.95,1.08s-0.85,0.25-1.65,0.25
			h-3.74C118.34,445.19,117.87,444.87,117.87,444.21z"/>
		<path d="M134.62,470.46c-0.32-0.33-0.47-0.83-0.47-1.5v-19.84c0-0.68,0.16-1.17,0.47-1.49c0.32-0.32,0.87-0.47,1.66-0.47h3.32
			c0.49,0,0.87,0.06,1.14,0.19c0.27,0.13,0.53,0.38,0.79,0.75l6.33,9.42v-8.36c0-0.68,0.16-1.18,0.47-1.5
			c0.32-0.33,0.86-0.49,1.63-0.49h4.17c0.79,0,1.35,0.16,1.66,0.47c0.32,0.31,0.47,0.82,0.47,1.52v19.84c0,0.68-0.16,1.17-0.47,1.49
			c-0.31,0.32-0.87,0.47-1.66,0.47h-3.33c-0.49,0-0.87-0.06-1.14-0.19c-0.27-0.13-0.53-0.38-0.79-0.75l-6.33-9.42v8.4
			c0,0.68-0.16,1.17-0.47,1.49c-0.32,0.32-0.87,0.47-1.66,0.47h-4.17C135.47,470.95,134.93,470.79,134.62,470.46z"/>
		<path d="M169.69,470.46c-0.31-0.33-0.47-0.83-0.47-1.5v-19.84c0-0.68,0.16-1.17,0.47-1.49c0.32-0.32,0.87-0.47,1.66-0.47h3.33
			c0.49,0,0.87,0.06,1.14,0.19c0.27,0.13,0.53,0.38,0.79,0.75l6.34,9.42v-8.36c0-0.68,0.16-1.18,0.47-1.5
			c0.31-0.33,0.86-0.49,1.63-0.49h4.17c0.79,0,1.35,0.16,1.66,0.47c0.31,0.31,0.47,0.82,0.47,1.52v19.84c0,0.68-0.16,1.17-0.47,1.49
			c-0.32,0.32-0.87,0.47-1.66,0.47h-3.33c-0.49,0-0.87-0.06-1.14-0.19c-0.27-0.13-0.53-0.38-0.79-0.75l-6.33-9.42v8.4
			c0,0.68-0.16,1.17-0.47,1.49c-0.31,0.32-0.87,0.47-1.66,0.47h-4.17C170.54,470.95,170,470.79,169.69,470.46z"/>
		<path d="M194.26,470.46c-0.32-0.33-0.47-0.83-0.47-1.5v-19.81c0-0.68,0.16-1.18,0.47-1.5c0.31-0.33,0.86-0.49,1.63-0.49h14.49
			c0.75,0,1.25,0.16,1.52,0.47c0.27,0.31,0.4,0.82,0.4,1.52v1.96c0,0.7-0.13,1.21-0.4,1.52c-0.27,0.31-0.78,0.47-1.52,0.47h-8.19
			v3.01h5.04c0.75,0,1.25,0.16,1.52,0.47c0.27,0.31,0.4,0.82,0.4,1.52V460c0,0.7-0.13,1.21-0.4,1.52c-0.27,0.32-0.78,0.47-1.52,0.47
			h-5.04V465h8.15c0.75,0,1.25,0.16,1.52,0.47c0.27,0.32,0.4,0.82,0.4,1.52v1.96c0,0.7-0.13,1.21-0.4,1.52
			c-0.27,0.32-0.78,0.47-1.52,0.47h-14.46C195.11,470.95,194.57,470.79,194.26,470.46z"/>
		<path d="M215.13,468.34c-2.36-2.09-3.54-5.19-3.54-9.29c0-4.13,1.14-7.23,3.41-9.31c2.28-2.08,5.52-3.12,9.75-3.12
			c1.91,0,3.62,0.19,5.11,0.56c1.49,0.37,2.74,0.9,3.75,1.57c0.28,0.21,0.42,0.44,0.42,0.7c0,0.21-0.11,0.5-0.32,0.88l-1.75,3.01
			c-0.19,0.33-0.41,0.49-0.67,0.49c-0.16,0-0.43-0.09-0.8-0.28c-0.65-0.33-1.34-0.58-2.05-0.77c-0.71-0.19-1.55-0.28-2.5-0.28
			c-1.94,0-3.42,0.56-4.44,1.68c-1.03,1.12-1.54,2.74-1.54,4.86c0,2.1,0.56,3.72,1.68,4.85c1.12,1.13,2.65,1.7,4.58,1.7
			c1.68,0,3.22-0.35,4.62-1.05c0.37-0.19,0.64-0.28,0.8-0.28c0.26,0,0.48,0.16,0.67,0.49l1.75,3.01c0.21,0.37,0.31,0.67,0.31,0.88
			c0,0.26-0.14,0.49-0.42,0.7c-1,0.68-2.26,1.2-3.78,1.58s-3.23,0.56-5.15,0.56C220.79,471.48,217.49,470.43,215.13,468.34z"/>
		<path d="M236.61,470.46c-0.32-0.33-0.47-0.83-0.47-1.5v-19.81c0-0.68,0.16-1.18,0.47-1.5c0.31-0.33,0.86-0.49,1.63-0.49h14.49
			c0.75,0,1.25,0.16,1.52,0.47c0.27,0.31,0.4,0.82,0.4,1.52v1.96c0,0.7-0.13,1.21-0.4,1.52c-0.27,0.31-0.78,0.47-1.52,0.47h-8.19
			v3.01h5.04c0.75,0,1.25,0.16,1.52,0.47c0.27,0.31,0.4,0.82,0.4,1.52V460c0,0.7-0.13,1.21-0.4,1.52c-0.27,0.32-0.78,0.47-1.52,0.47
			h-5.04V465h8.15c0.75,0,1.25,0.16,1.52,0.47c0.27,0.32,0.4,0.82,0.4,1.52v1.96c0,0.7-0.13,1.21-0.4,1.52
			c-0.27,0.32-0.78,0.47-1.52,0.47h-14.46C237.46,470.95,236.92,470.79,236.61,470.46z"/>
		<path d="M260.67,470.81c-1.82-0.44-3.29-1.06-4.41-1.86c-0.47-0.33-0.7-0.64-0.7-0.95c0-0.21,0.08-0.43,0.25-0.67l2.03-3.18
			c0.21-0.3,0.42-0.46,0.63-0.46c0.19,0,0.41,0.08,0.66,0.25c0.84,0.51,1.8,0.92,2.89,1.21c1.08,0.29,2.14,0.44,3.17,0.44
			c0.86,0,1.49-0.12,1.87-0.35c0.38-0.23,0.58-0.59,0.58-1.08c0-0.54-0.26-0.97-0.77-1.29c-0.51-0.33-1.4-0.74-2.66-1.22
			c-2.36-0.91-4.21-1.94-5.57-3.1c-1.35-1.16-2.03-2.69-2.03-4.6c0-2.43,0.85-4.25,2.54-5.48c1.69-1.23,3.97-1.84,6.84-1.84
			c2.01,0,3.71,0.17,5.13,0.53c1.41,0.35,2.64,0.9,3.69,1.64c0.47,0.33,0.7,0.64,0.7,0.95c0,0.21-0.08,0.43-0.25,0.67l-2.03,3.18
			c-0.21,0.33-0.42,0.49-0.63,0.49c-0.14,0-0.36-0.09-0.67-0.28c-0.56-0.37-1.22-0.68-2-0.93s-1.6-0.37-2.49-0.37
			c-0.82,0-1.43,0.12-1.85,0.35s-0.63,0.61-0.63,1.12c0,0.42,0.15,0.77,0.44,1.05c0.29,0.28,0.66,0.52,1.1,0.72
			c0.44,0.2,1.21,0.52,2.31,0.96c1.75,0.7,3.13,1.37,4.13,2.01c1,0.64,1.76,1.41,2.27,2.31c0.51,0.9,0.77,2.04,0.77,3.41
			c0,2.1-0.79,3.8-2.36,5.09c-1.57,1.3-3.93,1.94-7.05,1.94C264.46,471.48,262.49,471.25,260.67,470.81z"/>
		<path d="M278.22,470.46c-0.31-0.33-0.47-0.83-0.47-1.5v-19.81c0-0.68,0.16-1.18,0.47-1.5c0.32-0.33,0.86-0.49,1.63-0.49h4.16
			c0.79,0,1.35,0.16,1.66,0.47c0.32,0.31,0.47,0.82,0.47,1.52v19.81c0,0.68-0.16,1.18-0.47,1.5c-0.31,0.33-0.87,0.49-1.66,0.49
			h-4.16C279.08,470.95,278.54,470.79,278.22,470.46z"/>
		<path d="M289.07,470.46c-0.32-0.33-0.47-0.83-0.47-1.5v-19.81c0-0.68,0.16-1.18,0.47-1.5c0.32-0.33,0.86-0.49,1.63-0.49h8.05
			c8.24,0,12.35,3.97,12.35,11.9c0,3.92-1.06,6.88-3.17,8.89c-2.11,2.01-5.17,3.01-9.19,3.01h-8.05
			C289.93,470.95,289.38,470.79,289.07,470.46z M299.06,465c1.31,0,2.25-0.43,2.82-1.29c0.57-0.86,0.86-2.42,0.86-4.66
			c0-2.24-0.29-3.79-0.86-4.65c-0.57-0.86-1.51-1.29-2.82-1.29H297V465H299.06z"/>
		<path d="M310.58,470.22c0-0.21,0.06-0.47,0.18-0.77l8.71-20.96c0.21-0.49,0.45-0.83,0.72-1.03c0.27-0.2,0.65-0.3,1.14-0.3h3.81
			c0.49,0,0.87,0.1,1.14,0.3c0.27,0.2,0.51,0.54,0.72,1.03l8.68,20.96c0.12,0.3,0.17,0.56,0.17,0.77c0,0.49-0.26,0.74-0.77,0.74
			h-6.58c-0.72,0-1.18-0.32-1.36-0.95l-0.84-2.59h-6.2l-0.8,2.59c-0.19,0.63-0.64,0.95-1.37,0.95h-6.58
			C310.83,470.95,310.58,470.71,310.58,470.22z M324.58,461.89l-1.36-4.34l-1.37,4.34H324.58z"/>
		<path d="M338.07,470.46c-0.31-0.33-0.47-0.83-0.47-1.5v-19.81c0-0.68,0.16-1.18,0.47-1.5c0.32-0.33,0.86-0.49,1.63-0.49h8.05
			c8.24,0,12.36,3.97,12.36,11.9c0,3.92-1.06,6.88-3.17,8.89s-5.17,3.01-9.19,3.01h-8.05C338.93,470.95,338.38,470.79,338.07,470.46
			z M348.06,465c1.31,0,2.25-0.43,2.82-1.29s0.86-2.42,0.86-4.66c0-2.24-0.29-3.79-0.86-4.65s-1.51-1.29-2.82-1.29H346V465H348.06z"
			/>
		<path d="M95.87,512.46c-0.31-0.33-0.47-0.83-0.47-1.5v-19.81c0-0.68,0.16-1.18,0.47-1.5c0.32-0.33,0.86-0.49,1.63-0.49h8.05
			c8.24,0,12.36,3.97,12.36,11.9c0,3.92-1.06,6.88-3.17,8.89s-5.17,3.01-9.19,3.01H97.5C96.73,512.95,96.19,512.79,95.87,512.46z
			 M105.86,507c1.31,0,2.25-0.43,2.82-1.29s0.86-2.42,0.86-4.66c0-2.24-0.29-3.79-0.86-4.65s-1.51-1.29-2.82-1.29h-2.07V507H105.86z
			"/>
		<path d="M120.13,512.46c-0.32-0.33-0.47-0.83-0.47-1.5v-19.81c0-0.68,0.16-1.18,0.47-1.5c0.31-0.33,0.86-0.49,1.63-0.49h14.49
			c0.75,0,1.25,0.16,1.52,0.47c0.27,0.31,0.4,0.82,0.4,1.52v1.96c0,0.7-0.13,1.21-0.4,1.52c-0.27,0.31-0.78,0.47-1.52,0.47h-8.19
			v3.01h5.04c0.75,0,1.25,0.16,1.52,0.47c0.27,0.31,0.4,0.82,0.4,1.52V502c0,0.7-0.13,1.21-0.4,1.52c-0.27,0.32-0.78,0.47-1.52,0.47
			h-5.04V507h8.15c0.75,0,1.25,0.16,1.52,0.47c0.27,0.32,0.4,0.82,0.4,1.52v1.96c0,0.7-0.13,1.21-0.4,1.52
			c-0.27,0.32-0.78,0.47-1.52,0.47h-14.46C120.98,512.95,120.44,512.79,120.13,512.46z"/>
		<path d="M140.22,512.46c-0.32-0.33-0.47-0.83-0.47-1.5v-19.81c0-0.68,0.16-1.18,0.47-1.5c0.32-0.33,0.86-0.49,1.63-0.49h4.17
			c0.79,0,1.35,0.16,1.66,0.47c0.32,0.31,0.47,0.82,0.47,1.52V507h8.16c0.75,0,1.25,0.16,1.52,0.47c0.27,0.32,0.4,0.82,0.4,1.52
			v1.96c0,0.7-0.13,1.21-0.4,1.52c-0.27,0.32-0.78,0.47-1.52,0.47h-14.46C141.07,512.95,140.53,512.79,140.22,512.46z"/>
		<path d="M172.61,510.34c-2.36-2.09-3.54-5.19-3.54-9.29c0-4.13,1.14-7.23,3.41-9.31c2.27-2.08,5.52-3.12,9.75-3.12
			c1.91,0,3.62,0.19,5.11,0.56c1.49,0.37,2.74,0.9,3.74,1.57c0.28,0.21,0.42,0.44,0.42,0.7c0,0.21-0.1,0.5-0.31,0.88l-1.75,3.01
			c-0.19,0.33-0.41,0.49-0.67,0.49c-0.16,0-0.43-0.09-0.81-0.28c-0.65-0.33-1.34-0.58-2.05-0.77c-0.71-0.19-1.55-0.28-2.5-0.28
			c-1.94,0-3.42,0.56-4.45,1.68c-1.03,1.12-1.54,2.74-1.54,4.86c0,2.1,0.56,3.72,1.68,4.85c1.12,1.13,2.65,1.7,4.58,1.7
			c1.68,0,3.22-0.35,4.62-1.05c0.37-0.19,0.64-0.28,0.81-0.28c0.26,0,0.48,0.16,0.66,0.49l1.75,3.01c0.21,0.37,0.32,0.67,0.32,0.88
			c0,0.26-0.14,0.49-0.42,0.7c-1,0.68-2.26,1.2-3.78,1.58c-1.52,0.37-3.23,0.56-5.14,0.56
			C178.27,513.48,174.96,512.43,172.61,510.34z"/>
		<path d="M194.08,512.46c-0.31-0.33-0.47-0.83-0.47-1.5v-19.81c0-0.68,0.16-1.18,0.47-1.5c0.32-0.33,0.86-0.49,1.63-0.49h4.16
			c0.79,0,1.35,0.16,1.66,0.47c0.32,0.31,0.47,0.82,0.47,1.52V507h8.16c0.75,0,1.25,0.16,1.52,0.47s0.4,0.82,0.4,1.52v1.96
			c0,0.7-0.13,1.21-0.4,1.52c-0.27,0.32-0.78,0.47-1.52,0.47h-14.45C194.94,512.95,194.4,512.79,194.08,512.46z"/>
		<path d="M213.61,512.46c-0.32-0.33-0.47-0.83-0.47-1.5v-19.81c0-0.68,0.16-1.18,0.47-1.5c0.32-0.33,0.86-0.49,1.63-0.49h4.17
			c0.79,0,1.35,0.16,1.66,0.47c0.32,0.31,0.47,0.82,0.47,1.52v19.81c0,0.68-0.16,1.18-0.47,1.5c-0.32,0.33-0.87,0.49-1.66,0.49
			h-4.17C214.47,512.95,213.93,512.79,213.61,512.46z"/>
		<path d="M224.46,512.46c-0.32-0.33-0.47-0.83-0.47-1.5v-19.81c0-0.68,0.16-1.18,0.47-1.5c0.31-0.33,0.86-0.49,1.63-0.49h14.49
			c0.75,0,1.25,0.16,1.52,0.47c0.27,0.31,0.4,0.82,0.4,1.52v1.96c0,0.7-0.13,1.21-0.4,1.52c-0.27,0.31-0.78,0.47-1.52,0.47h-8.19
			v3.01h5.04c0.75,0,1.25,0.16,1.52,0.47c0.27,0.31,0.4,0.82,0.4,1.52V502c0,0.7-0.13,1.21-0.4,1.52c-0.27,0.32-0.78,0.47-1.52,0.47
			h-5.04V507h8.15c0.75,0,1.25,0.16,1.52,0.47c0.27,0.32,0.4,0.82,0.4,1.52v1.96c0,0.7-0.13,1.21-0.4,1.52
			c-0.27,0.32-0.78,0.47-1.52,0.47h-14.46C225.32,512.95,224.78,512.79,224.46,512.46z"/>
		<path d="M244.55,512.46c-0.32-0.33-0.47-0.83-0.47-1.5v-19.84c0-0.68,0.16-1.17,0.47-1.49c0.32-0.32,0.87-0.47,1.66-0.47h3.32
			c0.49,0,0.87,0.06,1.14,0.19c0.27,0.13,0.53,0.38,0.79,0.75l6.33,9.42v-8.36c0-0.68,0.16-1.18,0.47-1.5
			c0.32-0.33,0.86-0.49,1.63-0.49h4.17c0.79,0,1.35,0.16,1.66,0.47c0.32,0.31,0.47,0.82,0.47,1.52v19.84c0,0.68-0.16,1.17-0.47,1.49
			c-0.31,0.32-0.87,0.47-1.66,0.47h-3.33c-0.49,0-0.87-0.06-1.14-0.19c-0.27-0.13-0.53-0.38-0.79-0.75l-6.33-9.42v8.4
			c0,0.68-0.16,1.17-0.47,1.49c-0.32,0.32-0.87,0.47-1.66,0.47h-4.17C245.41,512.95,244.87,512.79,244.55,512.46z"/>
		<path d="M274.69,512.46c-0.32-0.33-0.47-0.83-0.47-1.5V495.1h-5.04c-0.75,0-1.25-0.16-1.52-0.47c-0.27-0.32-0.4-0.82-0.4-1.52
			v-1.96c0-0.7,0.13-1.21,0.4-1.52c0.27-0.32,0.78-0.47,1.52-0.47h18.48c0.75,0,1.25,0.16,1.52,0.47c0.27,0.31,0.4,0.82,0.4,1.52
			v1.96c0,0.7-0.13,1.21-0.4,1.52c-0.27,0.31-0.78,0.47-1.52,0.47h-5.04v15.85c0,0.68-0.16,1.18-0.47,1.5
			c-0.32,0.33-0.87,0.49-1.66,0.49h-4.17C275.54,512.95,275,512.79,274.69,512.46z"/>
		<path d="M291.1,512.46c-0.31-0.33-0.47-0.83-0.47-1.5v-19.81c0-0.68,0.16-1.18,0.47-1.5c0.32-0.33,0.86-0.49,1.63-0.49h14.49
			c0.75,0,1.25,0.16,1.52,0.47c0.27,0.31,0.4,0.82,0.4,1.52v1.96c0,0.7-0.13,1.21-0.4,1.52c-0.27,0.31-0.78,0.47-1.52,0.47h-8.19
			v3.01h5.04c0.75,0,1.25,0.16,1.52,0.47c0.27,0.31,0.4,0.82,0.4,1.52V502c0,0.7-0.13,1.21-0.4,1.52c-0.27,0.32-0.78,0.47-1.52,0.47
			h-5.04V507h8.15c0.75,0,1.25,0.16,1.52,0.47c0.27,0.32,0.4,0.82,0.4,1.52v1.96c0,0.7-0.13,1.21-0.4,1.52
			c-0.27,0.32-0.78,0.47-1.52,0.47h-14.45C291.96,512.95,291.42,512.79,291.1,512.46z"/>
	</g>
	<g>
		<path class="st3" d="M178.44,640.93c-0.58-0.44-0.88-0.92-0.88-1.46c0-0.44,0.22-1.05,0.66-1.83l3.5-6.06
			c0.39-0.68,0.85-1.02,1.39-1.02c0.34,0,0.9,0.2,1.68,0.58c2.29,1.22,5.23,1.83,8.83,1.83c2.77,0,4.91-0.52,6.42-1.57
			c1.51-1.05,2.63-2.59,3.36-4.64c-2.87,1.7-6.62,2.55-11.24,2.55c-4.09,0-7.52-0.74-10.29-2.23c-2.77-1.48-4.84-3.45-6.21-5.91
			c-1.36-2.46-2.04-5.17-2.04-8.14c0-6.62,1.97-11.55,5.91-14.78c3.94-3.24,9.56-4.85,16.86-4.85c6.62,0,11.98,1.91,16.1,5.73
			c4.11,3.82,6.17,9.72,6.17,17.7c0,6.52-1.08,11.9-3.25,16.13c-2.17,4.23-5.03,7.34-8.58,9.31c-3.55,1.97-7.5,2.96-11.83,2.96
			C188.2,645.24,182.67,643.8,178.44,640.93z M200.05,618.01c0.73-1.12,1.1-2.9,1.1-5.33c0-2.43-0.37-4.21-1.1-5.33
			c-0.73-1.12-1.97-1.68-3.72-1.68c-1.9,0-3.25,0.56-4.05,1.68c-0.8,1.12-1.2,2.9-1.2,5.33c0,2.43,0.4,4.21,1.2,5.33
			c0.8,1.12,2.15,1.68,4.05,1.68C198.08,619.69,199.32,619.13,200.05,618.01z"/>
	</g>
	<g>
		<path class="st18" d="M9.5,209.36c0,22,13.29,27.86,29.54,13.03c0,0,156.99-143.3,353.09,26.97V55c0-22-18-40-40-40H49.5
			c-22,0-40,18-40,40V209.36z"/>
	</g>
	<circle class="st2" cx="201.77" cy="213.97" r="121.96"/>
	<circle class="st3" cx="200.82" cy="200.58" r="121.96"/>
	<g>
		<circle id="XMLID_93_" class="st4" cx="199.73" cy="200.96" r="82.04"/>
		<path id="XMLID_91_" class="st5" d="M199.68,218.54c6.53,0,12.37-4.25,14.39-4.68c-0.17-1.44-0.2-2.74-0.19-3.81
			c-4.97,4.19-7.16,5.62-13.75,5.39c-6.85,0.24-8.95-1.32-14.35-5.9c0.02,1.16,0.02,2.67-0.19,4.37
			C187.76,214.55,193.36,218.53,199.68,218.54L199.68,218.54z"/>
		<path id="XMLID_89_" class="st49" d="M253.64,236.74c-1.29-1.35-11.06-3.18-17.37-5.87c-7.02-2.99-14.24-5.4-17.85-8.32h0
			c-0.05,0.07-0.1,0.14-0.17,0.2c-7.42,7.26-18.56,6.71-18.56,6.71v-0.01c0,0-11.05,0.56-18.47-6.7c-0.07-0.07-0.12-0.14-0.17-0.2h0
			c-3.62,2.93-10.83,5.33-17.85,8.32c-6.63,2.82-17.08,4.71-17.5,6.07c7.64-3.08,11.62,18.5,13.1,35.1
			C170.83,279,184.81,283,199.73,283c15.1,0,29.23-4.09,41.38-11.21C242.56,255.62,246.38,234.86,253.64,236.74z"/>
		<path id="XMLID_87_" class="st12" d="M200.13,215.44c6.59,0.23,8.78-1.21,13.75-5.39c0.39-0.33,0.78-0.66,1.21-1.02
			c6.16-5.23,3.06-16.15,6.8-15.46s8.02-9.67,5.08-11.94c-0.06-0.05-0.12-0.08-0.18-0.12l0,0c-1.47-0.51-2.63,0.77-3.71,2.59
			c-1.08,1.82-0.66,4.62-1.74,4.56c-1.45-4.92-1.13-9.3-0.84-14.41c-10.08,2.96-20.46,4.49-28.86-1.67
			c-1.72-1.26-3.39-2.92-5.99-2.88c-3.01,0.05-4.22,1.84-3.8,4.73c0.21,1.45,0.32,3.41,0.4,4.27c0.29,3.01-1.58,6.71-2.27,7.42
			c-0.45,0.46-1.54,2.38-2.2,2.54c-0.54,0.13-0.17-3.01-1.97-5.72c-1.02-1.53-1.63-1.72-1.91-1.71c-0.19,0.11-0.39,0.24-0.6,0.4
			c-2.94,2.27,1.34,12.62,5.08,11.94c3.74-0.68,0.64,10.23,6.8,15.46c0.21,0.18,0.4,0.34,0.6,0.51
			C191.18,214.12,193.28,215.68,200.13,215.44z"/>
		<path id="XMLID_85_" class="st50" d="M145.69,236.94c-0.11,0.05-0.23,0.07-0.34,0.13c-1.69,0.84-4.94,6.52-7.48,17.73
			c5.96,6.84,13.02,12.67,20.92,17.23C157.3,255.44,153.32,233.86,145.69,236.94z"/>
		<path id="XMLID_83_" class="st50" d="M254.52,237.07c-0.3-0.15-0.59-0.25-0.88-0.33c-7.25-1.88-11.08,18.88-12.54,35.05
			c7.87-4.61,14.9-10.49,20.81-17.36C259.39,243.47,256.19,237.9,254.52,237.07z"/>
		<path id="XMLID_81_" class="st50" d="M199.68,229.46v0.01c0,0,11.13,0.55,18.56-6.71c0.07-0.07,0.12-0.14,0.17-0.2
			c0.91-1.26-1.47-2.59-1.77-4.02c-0.32-1.52-0.54-5.01-2.46-4.7c-0.03,0.01-0.07,0.02-0.11,0.03c-2.02,0.43-7.85,4.68-14.39,4.68
			v-0.01c-6.33,0-11.92-3.97-14.1-4.62c-0.11-0.03-0.22-0.06-0.31-0.08c-1.92-0.31-2.14,3.18-2.46,4.7
			c-0.3,1.44-2.68,2.76-1.77,4.02c0.05,0.07,0.1,0.14,0.17,0.2C188.64,230.01,199.68,229.46,199.68,229.46z"/>
		<path id="XMLID_79_" class="st144" d="M175.8,182.93c1.79,2.71,1.43,5.85,1.97,5.72c0.65-0.16,1.75-2.08,2.2-2.54
			c0.69-0.71,2.56-4.41,2.27-7.42c-0.08-0.86-0.19-2.82-0.4-4.27c-0.42-2.89,0.79-4.68,3.8-4.73c2.61-0.04,4.27,1.62,5.99,2.88
			c8.4,6.17,18.78,4.63,28.86,1.67c-0.28,5.11-0.61,9.49,0.84,14.41c1.07,0.07,0.65-2.74,1.74-4.56c1.08-1.82,2.24-3.1,3.71-2.59
			l0,0c2.99-6.37,3.31-16.72,0.35-23.1c-2.96-6.38-7.69-9.37-12.37-14.69c0.43,1.44-1.52,3.6-3.36,3.77
			c-1.53,0.14-4.09-0.69-5.62-0.87c-7.75-0.94-12.18-1.29-18.52,0.94c-3.27,1.15-6.36,2.76-8.81,5.15
			c-3.17,3.08-5.8,8.67-6.32,12.99c-0.27,2.24-0.55,4.52-0.22,7.78c0.14,1.39,0.99,6.54,1.82,7.79c0,0,0.06-0.03,0.17-0.04
			C174.17,181.21,174.79,181.4,175.8,182.93z"/>
		<g>
			<circle class="st145" cx="269" cy="155" r="34"/>
			<g>
				<path class="st3" d="M262.55,171.09c-0.86-0.73-1.29-2.12-1.29-4.16v-4.59h-6.78c-2.04,0-3.42-0.43-4.16-1.29
					c-0.73-0.86-1.1-2.25-1.1-4.16v-5.35c0-1.91,0.37-3.3,1.1-4.16c0.73-0.86,2.12-1.29,4.16-1.29h6.78v-4.68
					c0-2.04,0.43-3.42,1.29-4.16c0.86-0.73,2.25-1.1,4.16-1.1h6.69c1.91,0,3.3,0.37,4.16,1.1c0.86,0.73,1.29,2.12,1.29,4.16v4.68
					h6.88c2.04,0,3.42,0.43,4.16,1.29c0.73,0.86,1.1,2.25,1.1,4.16v5.35c0,1.91-0.37,3.3-1.1,4.16c-0.73,0.86-2.12,1.29-4.16,1.29
					h-6.88v4.59c0,2.04-0.43,3.42-1.29,4.16c-0.86,0.73-2.25,1.1-4.16,1.1h-6.69C264.8,172.19,263.41,171.83,262.55,171.09z"/>
			</g>
		</g>
	</g>
</g>
</svg>
