<?xml version="1.0" encoding="utf-8"?>
<!-- Generator: Adobe Illustrator 23.0.0, SVG Export Plug-In . SVG Version: 6.00 Build 0)  -->
<svg version="1.1" id="Capa_1" xmlns="http://www.w3.org/2000/svg" xmlns:xlink="http://www.w3.org/1999/xlink" x="0px" y="0px"
	 viewBox="0 0 400 702" style="enable-background:new 0 0 400 702;" xml:space="preserve">
<style type="text/css">
	.st0{fill:#0085B0;}
	.st1{fill:#E0EF18;}
	.st2{fill:#CECECE;}
	.st3{fill:#FFFFFF;}
	.st4{fill:#F2F2F2;}
	.st5{fill:#EACCB0;}
	.st6{fill:#9B9B9B;}
	.st7{fill:#939393;}
	.st8{fill:#EFEFEF;}
	.st9{fill:#828282;}
	.st10{fill:#2C2A2D;}
	.st11{fill:#202021;}
	.st12{fill:#F2D4B6;}
	.st13{fill:#534D46;}
	.st14{fill:#E8D313;}
	.st15{fill:#2ACCFF;}
	.st16{fill:#4E4F4F;}
	.st17{fill:#003A94;}
	.st18{fill:#00D13C;}
	.st19{fill:#15682A;}
	.st20{fill:#D40000;}
	.st21{fill:#505050;}
	.st22{fill:#DFDFDF;}
	.st23{fill:none;}
	.st24{fill:#636363;}
	.st25{fill:#6C92D5;}
	.st26{fill:#22272F;}
	.st27{fill:#1B2538;}
	.st28{fill:#253452;}
	.st29{fill:#F9F9F9;}
	.st30{fill:#2D3543;}
	.st31{fill:#2A3D60;}
	.st32{fill:#587955;}
	.st33{fill:#CD7054;}
	.st34{fill:#F1CC4B;}
	.st35{fill:#ACACAC;}
	.st36{fill:#AAE528;}
	.st37{fill:#28CEBA;}
	.st38{fill:#DB143F;}
	.st39{fill:#53C2C9;}
	.st40{fill:#FFB412;}
	.st41{fill:#866A5E;}
	.st42{fill:#F7DDCB;}
	.st43{fill:#FFE6D4;}
	.st44{fill:#F5F5F5;}
	.st45{fill:#1A2830;}
	.st46{fill:#24353F;}
	.st47{fill:#132026;}
	.st48{fill:#F9FF03;}
	.st49{fill:#272728;}
	.st50{fill:#1E1D1E;}
	.st51{fill:#160423;}
	.st52{fill-rule:evenodd;clip-rule:evenodd;fill:#FFFFFF;}
	.st53{fill-rule:evenodd;clip-rule:evenodd;fill:#1996B8;}
	.st54{fill:#0C387D;}
	.st55{fill:#C69A81;}
	.st56{fill:#D1A385;}
	.st57{fill:#EAEAEA;}
	.st58{fill:#093E8C;}
	.st59{fill:#0B2A62;}
	.st60{fill:#D32A3B;}
	.st61{fill:#827C7D;}
	.st62{opacity:0.7;fill:#7F7F7F;}
	.st63{fill:#FDFDFD;}
	.st64{fill:#DAA449;}
	.st65{fill:#DD9225;}
	.st66{opacity:0.3;}
	.st67{fill:#425793;}
	.st68{opacity:0.8;}
	.st69{filter:url(#Adobe_OpacityMaskFilter);}
	.st70{opacity:0.15;mask:url(#SVGID_1_);}
	.st71{fill:#090B00;}
	.st72{opacity:0.1;}
	.st73{fill:#211915;}
	.st74{filter:url(#Adobe_OpacityMaskFilter_1_);}
	.st75{opacity:0.15;mask:url(#SVGID_2_);}
	.st76{fill:#AF3623;}
	.st77{filter:url(#Adobe_OpacityMaskFilter_2_);}
	.st78{opacity:0.15;mask:url(#SVGID_3_);}
	.st79{filter:url(#Adobe_OpacityMaskFilter_3_);}
	.st80{opacity:0.15;mask:url(#SVGID_4_);}
	.st81{fill:#456495;}
	.st82{filter:url(#Adobe_OpacityMaskFilter_4_);}
	.st83{opacity:0.15;mask:url(#SVGID_5_);}
	.st84{filter:url(#Adobe_OpacityMaskFilter_5_);}
	.st85{opacity:0.15;mask:url(#SVGID_6_);}
	.st86{fill:#76A9DA;}
	.st87{filter:url(#Adobe_OpacityMaskFilter_6_);}
	.st88{opacity:0.15;mask:url(#SVGID_7_);}
	.st89{filter:url(#Adobe_OpacityMaskFilter_7_);}
	.st90{opacity:0.15;mask:url(#SVGID_8_);}
	.st91{fill:#1F3642;}
	.st92{fill:#A9BDDA;}
	.st93{opacity:0.46;fill:#A6B4BC;}
	.st94{fill:#74C475;}
	.st95{fill:#221F21;}
	.st96{fill:#2D2D2D;}
	.st97{fill:#1C1B1A;}
	.st98{fill:#77181C;}
	.st99{fill:#262525;}
	.st100{fill:#11100F;}
	.st101{opacity:0.18;}
	.st102{opacity:0.38;}
	.st103{fill:#0A5B1F;}
	.st104{opacity:0.27;}
	.st105{opacity:0.48;}
	.st106{fill:#0A4654;}
	.st107{fill:#C2C6C6;}
	.st108{fill:#E5E5E5;stroke:#FFFFFF;stroke-miterlimit:10;}
	.st109{fill:#ACB4B5;}
	.st110{fill:#7F8384;}
	.st111{fill:#15772F;}
	.st112{fill:#F4F4F4;}
	.st113{fill:#53B8DB;}
	.st114{fill:#06EF42;}
	.st115{fill:#E7ED07;}
	.st116{fill:#CCCCCA;}
	.st117{fill:#EADF13;}
	.st118{fill:#C2C2C2;}
	.st119{fill:#85B681;}
	.st120{fill:#A1DC9B;}
	.st121{fill:#90C58B;}
	.st122{fill:#22241F;}
	.st123{opacity:0.5;}
	.st124{fill:#A2CADE;}
	.st125{fill:#E9E9E9;}
	.st126{fill:#D9D9D9;}
	.st127{fill:#CDCDCD;}
	.st128{opacity:0.34;fill:#F0F0F0;}
	.st129{fill:#5A5B5A;}
	.st130{fill:#FFE600;}
	.st131{fill:#DB1F59;}
	.st132{fill:#727272;}
	.st133{fill:#207235;}
	.st134{fill:#A3A3A3;}
	.st135{fill:#BCBCBC;}
	.st136{fill:#0A511C;}
	.st137{fill:#F9FF00;}
	.st138{fill:#D59F6D;}
	.st139{fill:#C0804A;}
	.st140{fill:#E6BA8A;}
	.st141{fill:#BE3ACC;}
	.st142{fill:#FFFFFF;stroke:#443F0C;stroke-width:9;stroke-miterlimit:10;}
	.st143{fill:none;stroke:#443F0C;stroke-width:9;stroke-miterlimit:10;}
	.st144{fill:#170623;}
	.st145{fill:#158231;}
	.st146{fill:#C89D76;}
	.st147{opacity:0.4;}
	.st148{fill:#ADADAD;}
	.st149{fill:#EDC3A6;}
	.st150{opacity:0.69;}
	.st151{fill:#E5D3D6;}
	.st152{opacity:0.44;}
	.st153{fill:#A5A5A5;}
	.st154{fill:#DDE5E4;}
	.st155{fill:#5C9169;}
	.st156{fill:#934215;}
	.st157{fill:#47413B;}
	.st158{fill:#601A1F;}
	.st159{fill:#044554;}
	.st160{opacity:0.7;}
	.st161{fill:#7F7F7F;}
	.st162{fill:#6B8A69;}
	.st163{opacity:0.24;fill:#848D90;}
	.st164{opacity:0.4;fill:#848D90;}
	.st165{fill:#F2D5D5;}
	.st166{fill:#485CC1;}
	.st167{fill:#C6CBE0;}
	.st168{fill:#8B909E;}
	.st169{fill:#53BC1B;}
	.st170{fill:#11565B;}
	.st171{fill:#67A06D;}
	.st172{fill:#FFEC00;}
	.st173{fill:#77A007;}
	.st174{fill:#E50731;}
	.st175{fill:#266472;}
	.st176{fill:#D4D4D4;}
	.st177{fill:#0E9932;}
	.st178{fill:#87DD24;}
	.st179{fill:#76A172;}
	.st180{fill:#62835F;}
	.st181{fill:#96D090;}
	.st182{fill:#D6D6D6;}
	.st183{fill:#606060;}
	.st184{fill:#494949;}
	.st185{fill:#29E55A;}
	.st186{fill:#2C703D;}
	.st187{fill:#DD0744;}
	.st188{fill:#EDEDED;}
	.st189{fill:#2A5936;}
	.st190{fill:#B9BBC1;}
	.st191{fill:#FFD79E;}
	.st192{fill:#FFE6C2;}
	.st193{fill:#2CBB55;}
	.st194{fill:#5C412D;}
	.st195{fill:#EC0000;}
	.st196{fill:#DD2626;}
	.st197{fill:#EA9334;}
	.st198{fill:#FCC232;}
	.st199{fill:#F9B234;}
	.st200{fill:#F7A037;}
	.st201{fill:#E0E0E0;}
</style>
<g>
	<g>
		<path class="st0" d="M9.5,209.36c0,22,13.29,27.86,29.54,13.03c0,0,156.99-143.3,353.09,26.97V55c0-22-18-40-40-40H49.5
			c-22,0-40,18-40,40V209.36z"/>
	</g>
	<g>
		<path class="st0" d="M391.66,647c0,22-18,40-40,40H49.98c-22,0-40-18-40-40v-46.27c0-22,18-40,40-40h301.68c22,0,40,18,40,40V647z
			"/>
	</g>
	<g>
		<path d="M109.58,393.38c-0.37-0.38-0.55-0.97-0.55-1.76v-23.21c0-0.79,0.18-1.38,0.55-1.76s1-0.57,1.91-0.57h9.8
			c4.1,0,7.09,0.81,8.96,2.44c1.87,1.63,2.81,4.08,2.81,7.36c0,3.28-0.94,5.73-2.81,7.34c-1.87,1.61-4.85,2.42-8.92,2.42h-2.46v5.99
			c0,0.79-0.18,1.38-0.55,1.76c-0.37,0.38-1.02,0.57-1.95,0.57h-4.88C110.59,393.95,109.95,393.76,109.58,393.38z M120.43,378.66
			c0.88,0,1.56-0.23,2.07-0.7c0.51-0.46,0.76-1.16,0.76-2.09c0-0.96-0.25-1.67-0.76-2.13s-1.2-0.7-2.07-0.7h-2.79v5.62H120.43z"/>
		<path d="M129.37,393.09c0-0.25,0.07-0.55,0.2-0.9l10.21-24.56c0.25-0.57,0.53-0.98,0.84-1.21c0.31-0.23,0.76-0.35,1.33-0.35h4.47
			c0.57,0,1.02,0.12,1.33,0.35c0.31,0.23,0.59,0.64,0.84,1.21l10.17,24.56c0.14,0.36,0.21,0.66,0.21,0.9c0,0.57-0.3,0.86-0.9,0.86
			h-7.71c-0.85,0-1.38-0.37-1.6-1.11l-0.98-3.03h-7.26l-0.94,3.03c-0.22,0.74-0.75,1.11-1.6,1.11h-7.71
			C129.67,393.95,129.37,393.67,129.37,393.09z M145.77,383.33l-1.6-5.08l-1.6,5.08H145.77z"/>
		<path d="M164.34,390.9c-2.76-2.45-4.14-6.07-4.14-10.89c0-4.78,1.38-8.4,4.14-10.87c2.76-2.46,6.61-3.69,11.56-3.69
			c2.24,0,4.25,0.22,6.03,0.66c1.78,0.44,3.25,1.05,4.43,1.84c0.33,0.25,0.49,0.52,0.49,0.82c0,0.25-0.12,0.59-0.37,1.02l-2.05,3.53
			c-0.22,0.38-0.48,0.57-0.78,0.57c-0.19,0-0.51-0.11-0.94-0.33c-1.64-0.82-3.44-1.23-5.41-1.23c-2.27,0-4.05,0.65-5.35,1.95
			c-1.3,1.3-1.95,3.21-1.95,5.72c0,2.6,0.55,4.52,1.64,5.76c1.09,1.24,2.72,1.87,4.88,1.87c0.38,0,0.81-0.03,1.29-0.1
			c0.48-0.07,0.87-0.14,1.17-0.23v-3.73h-2.62c-0.88,0-1.47-0.17-1.78-0.51c-0.31-0.34-0.47-0.92-0.47-1.74v-2.25
			c0-0.82,0.16-1.4,0.47-1.74c0.31-0.34,0.91-0.51,1.78-0.51h8.82c1.07,0,1.8,0.24,2.21,0.72c0.41,0.48,0.62,1.24,0.62,2.28v9.59
			c0,0.6-0.08,1.06-0.22,1.37c-0.15,0.31-0.45,0.64-0.88,0.96c-2.62,1.89-6.27,2.83-10.95,2.83
			C170.97,394.57,167.1,393.34,164.34,390.9z"/>
		<path d="M193,390.77c-2.51-2.53-3.77-6.12-3.77-10.76c0-4.65,1.26-8.23,3.77-10.76s6.21-3.79,11.07-3.79s8.55,1.26,11.07,3.79
			c2.51,2.53,3.77,6.12,3.77,10.76c0,4.65-1.26,8.24-3.77,10.76c-2.52,2.53-6.21,3.79-11.07,3.79S195.51,393.3,193,390.77z
			 M207.92,385.77c0.79-1.27,1.19-3.19,1.19-5.76c0-2.6-0.4-4.52-1.19-5.78s-2.08-1.89-3.85-1.89c-1.78,0-3.06,0.63-3.85,1.89
			c-0.79,1.26-1.19,3.18-1.19,5.78c0,2.57,0.4,4.49,1.19,5.76c0.79,1.27,2.08,1.91,3.85,1.91
			C205.84,387.68,207.13,387.04,207.92,385.77z"/>
		<path d="M233.81,393.38c-0.37-0.38-0.55-0.97-0.55-1.76v-23.21c0-0.79,0.18-1.38,0.55-1.76c0.37-0.38,1.01-0.57,1.91-0.57h9.43
			c9.65,0,14.47,4.65,14.47,13.94c0,4.59-1.24,8.06-3.71,10.41c-2.47,2.35-6.06,3.53-10.76,3.53h-9.43
			C234.82,393.95,234.18,393.76,233.81,393.38z M245.52,386.98c1.53,0,2.63-0.51,3.3-1.52c0.67-1.01,1-2.83,1-5.45
			s-0.34-4.44-1-5.45c-0.67-1.01-1.77-1.52-3.3-1.52h-2.42v13.94H245.52z"/>
		<path d="M262.23,393.38c-0.37-0.38-0.55-0.97-0.55-1.76v-23.21c0-0.79,0.19-1.38,0.55-1.76c0.37-0.38,1-0.57,1.91-0.57h16.97
			c0.87,0,1.47,0.18,1.78,0.55c0.31,0.37,0.47,0.96,0.47,1.78v2.3c0,0.82-0.16,1.41-0.47,1.78c-0.31,0.37-0.91,0.55-1.78,0.55h-9.59
			v3.53h5.9c0.88,0,1.47,0.18,1.78,0.55c0.31,0.37,0.47,0.96,0.47,1.78v2.21c0,0.82-0.16,1.41-0.47,1.78s-0.91,0.55-1.78,0.55h-5.9
			v3.53h9.55c0.87,0,1.47,0.18,1.78,0.55c0.31,0.37,0.47,0.96,0.47,1.78v2.3c0,0.82-0.16,1.41-0.47,1.78
			c-0.31,0.37-0.91,0.55-1.78,0.55h-16.93C263.23,393.95,262.59,393.76,262.23,393.38z"/>
		<path d="M103.58,442.99c-2.13-0.52-3.85-1.24-5.17-2.17c-0.55-0.38-0.82-0.75-0.82-1.11c0-0.25,0.1-0.5,0.29-0.78l2.38-3.73
			c0.25-0.35,0.49-0.53,0.74-0.53c0.22,0,0.48,0.1,0.78,0.29c0.98,0.6,2.11,1.07,3.38,1.42s2.51,0.51,3.71,0.51
			c1.01,0,1.74-0.14,2.19-0.41s0.68-0.7,0.68-1.27c0-0.63-0.3-1.13-0.9-1.52s-1.64-0.86-3.12-1.44c-2.76-1.07-4.93-2.28-6.52-3.63
			c-1.59-1.35-2.38-3.15-2.38-5.39c0-2.84,0.99-4.98,2.97-6.42c1.98-1.43,4.65-2.15,8.02-2.15c2.35,0,4.35,0.21,6.01,0.62
			c1.65,0.41,3.1,1.05,4.33,1.93c0.55,0.38,0.82,0.75,0.82,1.11c0,0.25-0.1,0.51-0.29,0.78l-2.38,3.73
			c-0.25,0.38-0.49,0.57-0.74,0.57c-0.16,0-0.42-0.11-0.78-0.33c-0.66-0.44-1.43-0.8-2.34-1.09c-0.9-0.29-1.87-0.43-2.91-0.43
			c-0.96,0-1.68,0.14-2.17,0.41c-0.49,0.27-0.74,0.71-0.74,1.31c0,0.49,0.17,0.9,0.51,1.23s0.77,0.61,1.29,0.84s1.42,0.61,2.71,1.13
			c2.05,0.82,3.66,1.61,4.84,2.36c1.17,0.75,2.06,1.65,2.67,2.71c0.6,1.05,0.9,2.38,0.9,4c0,2.46-0.92,4.45-2.77,5.97
			c-1.84,1.52-4.6,2.28-8.26,2.28C108.02,443.77,105.71,443.51,103.58,442.99z"/>
		<path d="M124.14,442.58c-0.37-0.38-0.55-0.97-0.55-1.76v-23.21c0-0.79,0.18-1.38,0.55-1.76s1-0.57,1.91-0.57h16.97
			c0.88,0,1.47,0.18,1.78,0.55s0.47,0.96,0.47,1.78v2.3c0,0.82-0.16,1.42-0.47,1.78c-0.31,0.37-0.91,0.55-1.78,0.55h-9.59v3.53h5.9
			c0.87,0,1.47,0.18,1.78,0.55c0.31,0.37,0.47,0.96,0.47,1.78v2.21c0,0.82-0.16,1.41-0.47,1.78c-0.31,0.37-0.91,0.55-1.78,0.55h-5.9
			v3.53h9.55c0.88,0,1.47,0.18,1.78,0.55c0.31,0.37,0.47,0.96,0.47,1.78v2.3c0,0.82-0.16,1.41-0.47,1.78s-0.91,0.55-1.78,0.55
			h-16.93C125.14,443.15,124.51,442.96,124.14,442.58z"/>
		<path d="M147.67,442.58c-0.37-0.38-0.55-0.97-0.55-1.76v-23.21c0-0.79,0.18-1.38,0.55-1.76s1-0.57,1.91-0.57h9.8
			c4.1,0,7.09,0.81,8.96,2.44c1.87,1.63,2.81,4.08,2.81,7.36c0,1.97-0.33,3.63-1,4.98c-0.67,1.35-1.7,2.41-3.1,3.18l3.81,8.16
			c0.11,0.22,0.16,0.46,0.16,0.74c0,0.3-0.1,0.55-0.31,0.74c-0.2,0.19-0.47,0.29-0.8,0.29h-6.93c-0.44,0-0.79-0.06-1.05-0.18
			s-0.44-0.33-0.55-0.64l-3.03-7.63h-1.39v6.11c0,0.79-0.19,1.38-0.55,1.76c-0.37,0.38-1.02,0.57-1.95,0.57h-4.88
			C148.68,443.15,148.04,442.96,147.67,442.58z M158.52,427.86c0.87,0,1.56-0.23,2.07-0.7c0.51-0.46,0.76-1.16,0.76-2.09
			c0-0.96-0.25-1.67-0.76-2.13s-1.2-0.7-2.07-0.7h-2.79v5.62H158.52z"/>
		<path d="M180.51,442.8c-0.31-0.23-0.58-0.64-0.8-1.21l-9.8-24.56c-0.14-0.35-0.2-0.66-0.2-0.9c0-0.57,0.3-0.86,0.9-0.86h7.71
			c0.85,0,1.38,0.37,1.6,1.11l4.18,13.37l4.18-13.37c0.22-0.74,0.75-1.11,1.6-1.11h7.71c0.6,0,0.9,0.29,0.9,0.86
			c0,0.25-0.07,0.55-0.21,0.9l-9.76,24.56c-0.22,0.57-0.49,0.98-0.8,1.21c-0.31,0.23-0.77,0.35-1.37,0.35h-4.47
			C181.29,443.15,180.83,443.04,180.51,442.8z"/>
		<path d="M201.09,442.58c-0.37-0.38-0.55-0.97-0.55-1.76v-23.21c0-0.79,0.19-1.38,0.55-1.76c0.37-0.38,1-0.57,1.91-0.57h4.88
			c0.93,0,1.58,0.18,1.95,0.55s0.55,0.96,0.55,1.78v23.21c0,0.79-0.18,1.38-0.55,1.76c-0.37,0.38-1.02,0.57-1.95,0.57H203
			C202.1,443.15,201.46,442.96,201.09,442.58z"/>
		<path d="M216.57,440.1c-2.76-2.45-4.14-6.07-4.14-10.89c0-4.84,1.33-8.47,4-10.91s6.47-3.65,11.42-3.65
			c2.24,0,4.24,0.22,5.99,0.66c1.75,0.44,3.21,1.05,4.39,1.84c0.33,0.25,0.49,0.52,0.49,0.82c0,0.25-0.12,0.59-0.37,1.02l-2.05,3.53
			c-0.22,0.38-0.48,0.57-0.78,0.57c-0.19,0-0.51-0.11-0.94-0.33c-0.77-0.38-1.57-0.68-2.4-0.9c-0.83-0.22-1.81-0.33-2.93-0.33
			c-2.27,0-4,0.66-5.21,1.97c-1.2,1.31-1.8,3.21-1.8,5.7c0,2.46,0.66,4.35,1.97,5.68c1.31,1.33,3.1,1.99,5.37,1.99
			c1.97,0,3.77-0.41,5.41-1.23c0.44-0.22,0.75-0.33,0.94-0.33c0.3,0,0.56,0.19,0.78,0.57l2.05,3.53c0.25,0.44,0.37,0.78,0.37,1.03
			c0,0.3-0.16,0.57-0.49,0.82c-1.18,0.79-2.65,1.41-4.43,1.84c-1.78,0.44-3.79,0.66-6.03,0.66
			C223.2,443.77,219.33,442.54,216.57,440.1z"/>
		<path d="M241.73,442.58c-0.37-0.38-0.55-0.97-0.55-1.76v-23.21c0-0.79,0.19-1.38,0.55-1.76c0.37-0.38,1-0.57,1.91-0.57h4.88
			c0.93,0,1.58,0.18,1.95,0.55s0.55,0.96,0.55,1.78v23.21c0,0.79-0.18,1.38-0.55,1.76c-0.37,0.38-1.02,0.57-1.95,0.57h-4.88
			C242.73,443.15,242.09,442.96,241.73,442.58z"/>
		<path d="M256.83,439.97c-2.51-2.53-3.77-6.12-3.77-10.76c0-4.65,1.26-8.23,3.77-10.76s6.21-3.79,11.07-3.79s8.55,1.26,11.07,3.79
			c2.51,2.53,3.77,6.12,3.77,10.76c0,4.65-1.26,8.24-3.77,10.76c-2.52,2.53-6.21,3.79-11.07,3.79S259.35,442.5,256.83,439.97z
			 M271.76,434.97c0.79-1.27,1.19-3.19,1.19-5.76c0-2.6-0.4-4.52-1.19-5.78s-2.08-1.89-3.85-1.89c-1.78,0-3.06,0.63-3.85,1.89
			c-0.79,1.26-1.19,3.18-1.19,5.78c0,2.57,0.4,4.49,1.19,5.76c0.79,1.27,2.08,1.91,3.85,1.91
			C269.68,436.88,270.96,436.24,271.76,434.97z"/>
		<path d="M288.16,442.99c-2.13-0.52-3.85-1.24-5.17-2.17c-0.55-0.38-0.82-0.75-0.82-1.11c0-0.25,0.1-0.5,0.29-0.78l2.38-3.73
			c0.25-0.35,0.49-0.53,0.74-0.53c0.22,0,0.48,0.1,0.78,0.29c0.98,0.6,2.11,1.07,3.38,1.42c1.27,0.34,2.51,0.51,3.71,0.51
			c1.01,0,1.74-0.14,2.19-0.41s0.68-0.7,0.68-1.27c0-0.63-0.3-1.13-0.9-1.52c-0.6-0.38-1.64-0.86-3.12-1.44
			c-2.76-1.07-4.93-2.28-6.52-3.63c-1.59-1.35-2.38-3.15-2.38-5.39c0-2.84,0.99-4.98,2.97-6.42c1.98-1.43,4.65-2.15,8.02-2.15
			c2.35,0,4.35,0.21,6.01,0.62s3.1,1.05,4.33,1.93c0.55,0.38,0.82,0.75,0.82,1.11c0,0.25-0.1,0.51-0.29,0.78l-2.38,3.73
			c-0.25,0.38-0.49,0.57-0.74,0.57c-0.16,0-0.42-0.11-0.78-0.33c-0.66-0.44-1.43-0.8-2.34-1.09s-1.87-0.43-2.91-0.43
			c-0.96,0-1.68,0.14-2.17,0.41c-0.49,0.27-0.74,0.71-0.74,1.31c0,0.49,0.17,0.9,0.51,1.23s0.77,0.61,1.29,0.84
			c0.52,0.23,1.42,0.61,2.71,1.13c2.05,0.82,3.66,1.61,4.84,2.36s2.06,1.65,2.67,2.71c0.6,1.05,0.9,2.38,0.9,4
			c0,2.46-0.92,4.45-2.77,5.97c-1.84,1.52-4.6,2.28-8.26,2.28C292.6,443.77,290.29,443.51,288.16,442.99z"/>
		<path d="M111.94,491.78c-0.37-0.38-0.55-0.97-0.55-1.76v-23.21c0-0.79,0.18-1.38,0.55-1.76s1-0.57,1.91-0.57h16.97
			c0.88,0,1.47,0.18,1.78,0.55s0.47,0.96,0.47,1.78v2.3c0,0.82-0.16,1.42-0.47,1.78c-0.31,0.37-0.91,0.55-1.78,0.55h-9.59v3.53h5.9
			c0.87,0,1.47,0.18,1.78,0.55c0.31,0.37,0.47,0.96,0.47,1.78v2.21c0,0.82-0.16,1.41-0.47,1.78c-0.31,0.37-0.91,0.55-1.78,0.55h-5.9
			v3.53h9.55c0.88,0,1.47,0.18,1.78,0.55c0.31,0.37,0.47,0.96,0.47,1.78v2.3c0,0.82-0.16,1.41-0.47,1.78s-0.91,0.55-1.78,0.55
			h-16.93C112.95,492.35,112.31,492.16,111.94,491.78z"/>
		<path d="M135.47,491.78c-0.37-0.38-0.55-0.97-0.55-1.76v-23.25c0-0.79,0.18-1.37,0.55-1.74c0.37-0.37,1.02-0.55,1.95-0.55h3.9
			c0.57,0,1.02,0.08,1.33,0.23s0.62,0.44,0.92,0.88l7.42,11.03v-9.8c0-0.79,0.18-1.38,0.55-1.76s1-0.57,1.91-0.57h4.88
			c0.93,0,1.58,0.18,1.95,0.55s0.55,0.96,0.55,1.78v23.25c0,0.79-0.18,1.37-0.55,1.74s-1.02,0.55-1.95,0.55h-3.9
			c-0.57,0-1.02-0.08-1.33-0.23c-0.31-0.15-0.62-0.44-0.92-0.88l-7.42-11.03v9.84c0,0.79-0.18,1.37-0.55,1.74
			c-0.37,0.37-1.02,0.55-1.95,0.55h-4.88C136.48,492.35,135.84,492.16,135.47,491.78z"/>
		<path d="M176.56,491.78c-0.37-0.38-0.55-0.97-0.55-1.76v-23.21c0-0.79,0.18-1.38,0.55-1.76s1-0.57,1.91-0.57h4.88
			c0.93,0,1.58,0.18,1.95,0.55s0.55,0.96,0.55,1.78v18.57h9.55c0.87,0,1.47,0.18,1.78,0.55c0.31,0.37,0.47,0.96,0.47,1.78v2.3
			c0,0.82-0.16,1.41-0.47,1.78c-0.31,0.37-0.91,0.55-1.78,0.55h-16.93C177.56,492.35,176.93,492.16,176.56,491.78z"/>
		<path d="M199.64,491.78c-0.37-0.38-0.55-0.97-0.55-1.76v-23.21c0-0.79,0.18-1.38,0.55-1.76c0.37-0.38,1.01-0.57,1.91-0.57h4.88
			c0.93,0,1.58,0.18,1.95,0.55c0.37,0.37,0.55,0.96,0.55,1.78v23.21c0,0.79-0.18,1.38-0.55,1.76c-0.37,0.38-1.02,0.57-1.95,0.57
			h-4.88C200.64,492.35,200.01,492.16,199.64,491.78z M200.03,461.03c0-0.22,0.04-0.45,0.12-0.7l1.72-4.76
			c0.22-0.63,0.48-1.05,0.78-1.27s0.86-0.33,1.68-0.33h5.86c0.57,0,1.02,0.1,1.35,0.31s0.49,0.5,0.49,0.88
			c0,0.33-0.11,0.67-0.33,1.02l-2.62,4.43c-0.38,0.66-0.75,1.08-1.11,1.27s-1,0.29-1.93,0.29h-4.39
			C200.58,462.18,200.03,461.79,200.03,461.03z"/>
		<path d="M212.55,491.78c-0.37-0.38-0.55-0.97-0.55-1.76v-23.25c0-0.79,0.19-1.37,0.55-1.74c0.37-0.37,1.02-0.55,1.95-0.55h3.89
			c0.57,0,1.02,0.08,1.33,0.23s0.62,0.44,0.92,0.88l7.42,11.03v-9.8c0-0.79,0.18-1.38,0.55-1.76s1-0.57,1.91-0.57h4.88
			c0.93,0,1.58,0.18,1.95,0.55s0.55,0.96,0.55,1.78v23.25c0,0.79-0.18,1.37-0.55,1.74s-1.02,0.55-1.95,0.55h-3.9
			c-0.57,0-1.02-0.08-1.33-0.23c-0.31-0.15-0.62-0.44-0.92-0.88l-7.42-11.03v9.84c0,0.79-0.18,1.37-0.55,1.74s-1.02,0.55-1.95,0.55
			h-4.88C213.56,492.35,212.92,492.16,212.55,491.78z"/>
		<path d="M241.34,491.78c-0.37-0.38-0.55-0.97-0.55-1.76v-23.21c0-0.79,0.18-1.38,0.55-1.76s1-0.57,1.91-0.57h16.97
			c0.88,0,1.47,0.18,1.78,0.55s0.47,0.96,0.47,1.78v2.3c0,0.82-0.16,1.42-0.47,1.78c-0.31,0.37-0.91,0.55-1.78,0.55h-9.59v3.53h5.9
			c0.87,0,1.47,0.18,1.78,0.55c0.31,0.37,0.47,0.96,0.47,1.78v2.21c0,0.82-0.16,1.41-0.47,1.78c-0.31,0.37-0.91,0.55-1.78,0.55h-5.9
			v3.53h9.55c0.88,0,1.47,0.18,1.78,0.55c0.31,0.37,0.47,0.96,0.47,1.78v2.3c0,0.82-0.16,1.41-0.47,1.78s-0.91,0.55-1.78,0.55
			h-16.93C242.34,492.35,241.71,492.16,241.34,491.78z"/>
		<path d="M263.5,491.49c0-0.25,0.07-0.55,0.21-0.9l10.21-24.56c0.25-0.57,0.53-0.98,0.84-1.21s0.76-0.35,1.33-0.35h4.47
			c0.57,0,1.02,0.12,1.33,0.35c0.31,0.23,0.59,0.63,0.84,1.21l10.17,24.56c0.14,0.36,0.21,0.66,0.21,0.9c0,0.57-0.3,0.86-0.9,0.86
			h-7.71c-0.85,0-1.38-0.37-1.6-1.11l-0.98-3.03h-7.26l-0.94,3.03c-0.22,0.74-0.75,1.11-1.6,1.11h-7.71
			C263.8,492.35,263.5,492.07,263.5,491.49z M279.9,481.73l-1.6-5.08l-1.6,5.08H279.9z"/>
	</g>
	<polygon class="st1" points="200.76,96.93 214.23,124.22 244.34,128.59 222.55,149.83 227.7,179.83 200.76,165.67 173.83,179.83 
		178.97,149.83 157.18,128.59 187.29,124.22 	"/>
	<polygon class="st1" points="138.58,180.15 147.32,197.86 166.86,200.7 152.72,214.48 156.06,233.94 138.58,224.75 121.11,233.94 
		124.45,214.48 110.31,200.7 129.85,197.86 	"/>
	<polygon class="st1" points="268.68,180.15 277.42,197.86 296.95,200.7 282.82,214.48 286.15,233.94 268.68,224.75 251.2,233.94 
		254.54,214.48 240.4,200.7 259.94,197.86 	"/>
	<circle class="st2" cx="201.77" cy="213.97" r="121.96"/>
	<circle class="st3" cx="200.82" cy="200.58" r="121.96"/>
	<g>
		<path class="st3" d="M179.79,639.51c-4.11-3.82-6.17-9.72-6.17-17.7c0-6.13,1.16-11.34,3.47-15.62c2.31-4.28,5.33-7.48,9.05-9.6
			s7.7-3.18,11.94-3.18c3.55,0,6.65,0.38,9.31,1.13c2.65,0.75,5.05,1.86,7.19,3.32c0.58,0.44,0.88,0.92,0.88,1.46
			c0,0.44-0.22,1.05-0.66,1.83l-3.5,6.06c-0.39,0.68-0.85,1.02-1.39,1.02c-0.34,0-0.9-0.19-1.68-0.58
			c-2.48-1.31-5.26-1.97-8.32-1.97c-2.43,0-4.46,0.54-6.1,1.61c-1.63,1.07-3.05,2.65-4.27,4.75c1.41-0.73,3.14-1.34,5.18-1.83
			c2.04-0.49,3.99-0.73,5.84-0.73c4.04,0,7.41,0.71,10.11,2.12c2.7,1.41,4.71,3.3,6.02,5.66c1.31,2.36,1.97,4.98,1.97,7.85
			c0,6.67-1.98,11.69-5.95,15.07c-3.97,3.38-9.58,5.07-16.83,5.07C189.27,645.24,183.9,643.33,179.79,639.51z M200.01,631.29
			c0.8-1.12,1.21-2.9,1.21-5.33s-0.4-4.21-1.21-5.33c-0.8-1.12-2.15-1.68-4.05-1.68c-1.7,0-2.93,0.56-3.69,1.68
			c-0.75,1.12-1.13,2.9-1.13,5.33s0.38,4.21,1.13,5.33c0.75,1.12,1.98,1.68,3.69,1.68C197.86,632.97,199.21,632.42,200.01,631.29z"
			/>
	</g>
	<g>
		<g>
			<circle class="st170" cx="201.5" cy="197.5" r="85.5"/>
		</g>
		<path class="st0" d="M250.1,196.25h-75.61c-6.6,0-12-5.4-12-12v-19.58c0-6.6,5.4-12,12-12h75.61c6.6,0,12,5.4,12,12v19.58
			C262.1,190.85,256.7,196.25,250.1,196.25z"/>
		<g>
			<path class="st3" d="M177.31,187.79c-0.37-0.39-0.56-0.98-0.56-1.79v-23.49c0-0.8,0.19-1.4,0.56-1.79
				c0.37-0.39,1.02-0.58,1.93-0.58h9.92c4.15,0,7.17,0.82,9.07,2.47c1.89,1.65,2.84,4.13,2.84,7.45s-0.95,5.8-2.84,7.43
				c-1.9,1.63-4.91,2.45-9.03,2.45h-2.49V186c0,0.8-0.19,1.4-0.56,1.79c-0.37,0.39-1.03,0.58-1.97,0.58h-4.94
				C178.32,188.37,177.68,188.18,177.31,187.79z M188.28,172.89c0.88,0,1.58-0.23,2.1-0.71c0.51-0.47,0.77-1.18,0.77-2.12
				c0-0.97-0.26-1.69-0.77-2.16c-0.51-0.47-1.21-0.71-2.1-0.71h-2.82v5.69H188.28z"/>
			<path class="st3" d="M197.33,187.5c0-0.25,0.07-0.55,0.21-0.91l10.33-24.86c0.25-0.58,0.53-0.99,0.85-1.22
				c0.32-0.24,0.77-0.35,1.35-0.35h4.52c0.58,0,1.03,0.12,1.35,0.35s0.6,0.64,0.85,1.22l10.29,24.86c0.14,0.36,0.21,0.66,0.21,0.91
				c0,0.58-0.3,0.87-0.91,0.87h-7.8c-0.86,0-1.4-0.37-1.62-1.12l-1-3.07h-7.35l-0.96,3.07c-0.22,0.75-0.76,1.12-1.62,1.12h-7.8
				C197.64,188.37,197.33,188.08,197.33,187.5z M213.93,177.62l-1.62-5.15l-1.62,5.15H213.93z"/>
			<path class="st3" d="M232.63,187.79c-0.37-0.39-0.56-0.98-0.56-1.79v-7.51l-9.67-16.56c-0.17-0.3-0.25-0.59-0.25-0.87
				c0-0.61,0.32-0.91,0.96-0.91h7.8c0.42,0,0.73,0.09,0.95,0.27s0.44,0.46,0.66,0.85l4.52,8.13l4.52-8.13
				c0.22-0.39,0.44-0.67,0.66-0.85s0.54-0.27,0.96-0.27h7.8c0.64,0,0.96,0.3,0.96,0.91c0,0.28-0.08,0.57-0.25,0.87l-9.67,16.56V186
				c0,0.8-0.19,1.4-0.56,1.79c-0.37,0.39-1.03,0.58-1.97,0.58h-4.94C233.65,188.37,233.01,188.18,232.63,187.79z"/>
		</g>
		<g>
			<polygon class="st3" points="184.18,201.46 206.64,193.35 202.44,216.86 198.23,240.36 179.98,224.97 161.72,209.58 			"/>
			
				<rect x="159" y="224.56" transform="matrix(0.6511 -0.759 0.759 0.6511 -116.456 212.1452)" class="st3" width="27.02" height="16.36"/>
		</g>
	</g>
</g>
</svg>
