<?xml version="1.0" encoding="utf-8"?>
<!-- Generator: Adobe Illustrator 23.0.0, SVG Export Plug-In . SVG Version: 6.00 Build 0)  -->
<svg version="1.1" id="Capa_1" xmlns="http://www.w3.org/2000/svg" xmlns:xlink="http://www.w3.org/1999/xlink" x="0px" y="0px"
	 viewBox="0 0 400 702" style="enable-background:new 0 0 400 702;" xml:space="preserve">
<style type="text/css">
	.st0{fill:#0085B0;}
	.st1{fill:#E0EF18;}
	.st2{fill:#CECECE;}
	.st3{fill:#FFFFFF;}
	.st4{fill:#F2F2F2;}
	.st5{fill:#EACCB0;}
	.st6{fill:#9B9B9B;}
	.st7{fill:#939393;}
	.st8{fill:#EFEFEF;}
	.st9{fill:#828282;}
	.st10{fill:#2C2A2D;}
	.st11{fill:#202021;}
	.st12{fill:#F2D4B6;}
	.st13{fill:#534D46;}
	.st14{fill:#E8D313;}
	.st15{fill:#2ACCFF;}
	.st16{fill:#4E4F4F;}
	.st17{fill:#003A94;}
	.st18{fill:#00D13C;}
	.st19{fill:#15682A;}
	.st20{fill:#D40000;}
	.st21{fill:#505050;}
	.st22{fill:#DFDFDF;}
	.st23{fill:none;}
	.st24{fill:#636363;}
	.st25{fill:#6C92D5;}
	.st26{fill:#22272F;}
	.st27{fill:#1B2538;}
	.st28{fill:#253452;}
	.st29{fill:#F9F9F9;}
	.st30{fill:#2D3543;}
	.st31{fill:#2A3D60;}
	.st32{fill:#587955;}
	.st33{fill:#CD7054;}
	.st34{fill:#F1CC4B;}
	.st35{fill:#ACACAC;}
	.st36{fill:#AAE528;}
	.st37{fill:#28CEBA;}
	.st38{fill:#DB143F;}
	.st39{fill:#53C2C9;}
	.st40{fill:#FFB412;}
	.st41{fill:#866A5E;}
	.st42{fill:#F7DDCB;}
	.st43{fill:#FFE6D4;}
	.st44{fill:#F5F5F5;}
	.st45{fill:#1A2830;}
	.st46{fill:#24353F;}
	.st47{fill:#132026;}
	.st48{fill:#F9FF03;}
	.st49{fill:#272728;}
	.st50{fill:#1E1D1E;}
	.st51{fill:#160423;}
	.st52{fill-rule:evenodd;clip-rule:evenodd;fill:#FFFFFF;}
	.st53{fill-rule:evenodd;clip-rule:evenodd;fill:#1996B8;}
	.st54{fill:#0C387D;}
	.st55{fill:#C69A81;}
	.st56{fill:#D1A385;}
	.st57{fill:#EAEAEA;}
	.st58{fill:#093E8C;}
	.st59{fill:#0B2A62;}
	.st60{fill:#D32A3B;}
	.st61{fill:#827C7D;}
	.st62{opacity:0.7;fill:#7F7F7F;}
	.st63{fill:#FDFDFD;}
	.st64{fill:#DAA449;}
	.st65{fill:#DD9225;}
	.st66{opacity:0.3;}
	.st67{fill:#425793;}
	.st68{opacity:0.8;}
	.st69{filter:url(#Adobe_OpacityMaskFilter);}
	.st70{opacity:0.15;mask:url(#SVGID_1_);}
	.st71{fill:#090B00;}
	.st72{opacity:0.1;}
	.st73{fill:#211915;}
	.st74{filter:url(#Adobe_OpacityMaskFilter_1_);}
	.st75{opacity:0.15;mask:url(#SVGID_2_);}
	.st76{fill:#AF3623;}
	.st77{filter:url(#Adobe_OpacityMaskFilter_2_);}
	.st78{opacity:0.15;mask:url(#SVGID_3_);}
	.st79{filter:url(#Adobe_OpacityMaskFilter_3_);}
	.st80{opacity:0.15;mask:url(#SVGID_4_);}
	.st81{fill:#456495;}
	.st82{filter:url(#Adobe_OpacityMaskFilter_4_);}
	.st83{opacity:0.15;mask:url(#SVGID_5_);}
	.st84{filter:url(#Adobe_OpacityMaskFilter_5_);}
	.st85{opacity:0.15;mask:url(#SVGID_6_);}
	.st86{fill:#76A9DA;}
	.st87{filter:url(#Adobe_OpacityMaskFilter_6_);}
	.st88{opacity:0.15;mask:url(#SVGID_7_);}
	.st89{filter:url(#Adobe_OpacityMaskFilter_7_);}
	.st90{opacity:0.15;mask:url(#SVGID_8_);}
	.st91{fill:#1F3642;}
	.st92{fill:#A9BDDA;}
	.st93{opacity:0.46;fill:#A6B4BC;}
	.st94{fill:#74C475;}
	.st95{fill:#221F21;}
	.st96{fill:#2D2D2D;}
	.st97{fill:#1C1B1A;}
	.st98{fill:#77181C;}
	.st99{fill:#262525;}
	.st100{fill:#11100F;}
	.st101{opacity:0.18;}
	.st102{opacity:0.38;}
	.st103{fill:#0A5B1F;}
	.st104{opacity:0.27;}
	.st105{opacity:0.48;}
	.st106{fill:#0A4654;}
	.st107{fill:#C2C6C6;}
	.st108{fill:#E5E5E5;stroke:#FFFFFF;stroke-miterlimit:10;}
	.st109{fill:#ACB4B5;}
	.st110{fill:#7F8384;}
	.st111{fill:#15772F;}
	.st112{fill:#F4F4F4;}
	.st113{fill:#53B8DB;}
	.st114{fill:#06EF42;}
	.st115{fill:#E7ED07;}
	.st116{fill:#CCCCCA;}
	.st117{fill:#EADF13;}
	.st118{fill:#C2C2C2;}
	.st119{fill:#85B681;}
	.st120{fill:#A1DC9B;}
	.st121{fill:#90C58B;}
	.st122{fill:#22241F;}
	.st123{opacity:0.5;}
	.st124{fill:#A2CADE;}
	.st125{fill:#E9E9E9;}
	.st126{fill:#D9D9D9;}
	.st127{fill:#CDCDCD;}
	.st128{opacity:0.34;fill:#F0F0F0;}
	.st129{fill:#5A5B5A;}
	.st130{fill:#FFE600;}
	.st131{fill:#DB1F59;}
	.st132{fill:#727272;}
	.st133{fill:#207235;}
	.st134{fill:#A3A3A3;}
	.st135{fill:#BCBCBC;}
	.st136{fill:#0A511C;}
	.st137{fill:#F9FF00;}
	.st138{fill:#D59F6D;}
	.st139{fill:#C0804A;}
	.st140{fill:#E6BA8A;}
	.st141{fill:#BE3ACC;}
	.st142{fill:#FFFFFF;stroke:#443F0C;stroke-width:9;stroke-miterlimit:10;}
	.st143{fill:none;stroke:#443F0C;stroke-width:9;stroke-miterlimit:10;}
	.st144{fill:#170623;}
	.st145{fill:#158231;}
	.st146{fill:#C89D76;}
	.st147{opacity:0.4;}
	.st148{fill:#ADADAD;}
	.st149{fill:#EDC3A6;}
	.st150{opacity:0.69;}
	.st151{fill:#E5D3D6;}
	.st152{opacity:0.44;}
	.st153{fill:#A5A5A5;}
	.st154{fill:#DDE5E4;}
	.st155{fill:#5C9169;}
	.st156{fill:#934215;}
	.st157{fill:#47413B;}
	.st158{fill:#601A1F;}
	.st159{fill:#044554;}
	.st160{opacity:0.7;}
	.st161{fill:#7F7F7F;}
	.st162{fill:#6B8A69;}
	.st163{opacity:0.24;fill:#848D90;}
	.st164{opacity:0.4;fill:#848D90;}
	.st165{fill:#F2D5D5;}
	.st166{fill:#485CC1;}
	.st167{fill:#C6CBE0;}
	.st168{fill:#8B909E;}
	.st169{fill:#53BC1B;}
	.st170{fill:#11565B;}
	.st171{fill:#67A06D;}
	.st172{fill:#FFEC00;}
	.st173{fill:#77A007;}
	.st174{fill:#E50731;}
	.st175{fill:#266472;}
	.st176{fill:#D4D4D4;}
	.st177{fill:#0E9932;}
	.st178{fill:#87DD24;}
	.st179{fill:#76A172;}
	.st180{fill:#62835F;}
	.st181{fill:#96D090;}
	.st182{fill:#D6D6D6;}
	.st183{fill:#606060;}
	.st184{fill:#494949;}
	.st185{fill:#29E55A;}
	.st186{fill:#2C703D;}
	.st187{fill:#DD0744;}
	.st188{fill:#EDEDED;}
	.st189{fill:#2A5936;}
	.st190{fill:#B9BBC1;}
	.st191{fill:#FFD79E;}
	.st192{fill:#FFE6C2;}
	.st193{fill:#2CBB55;}
	.st194{fill:#5C412D;}
	.st195{fill:#EC0000;}
	.st196{fill:#DD2626;}
	.st197{fill:#EA9334;}
	.st198{fill:#FCC232;}
	.st199{fill:#F9B234;}
	.st200{fill:#F7A037;}
	.st201{fill:#E0E0E0;}
</style>
<g>
	<g>
		<path class="st0" d="M9.5,209.36c0,22,13.29,27.86,29.54,13.03c0,0,156.99-143.3,353.09,26.97V55c0-22-18-40-40-40H49.5
			c-22,0-40,18-40,40V209.36z"/>
	</g>
	<g>
		<path class="st0" d="M391.66,647c0,22-18,40-40,40H49.98c-22,0-40-18-40-40v-46.27c0-22,18-40,40-40h301.68c22,0,40,18,40,40V647z
			"/>
	</g>
	<g>
		<path d="M73.85,406.79c-2.13-0.52-3.85-1.24-5.17-2.17c-0.55-0.38-0.82-0.75-0.82-1.11c0-0.25,0.1-0.5,0.29-0.78l2.38-3.73
			c0.25-0.35,0.49-0.53,0.74-0.53c0.22,0,0.48,0.1,0.78,0.29c0.98,0.6,2.11,1.07,3.38,1.42s2.51,0.51,3.71,0.51
			c1.01,0,1.74-0.14,2.19-0.41s0.68-0.7,0.68-1.27c0-0.63-0.3-1.13-0.9-1.52s-1.64-0.86-3.12-1.44c-2.76-1.07-4.93-2.28-6.52-3.63
			c-1.59-1.35-2.38-3.15-2.38-5.39c0-2.84,0.99-4.98,2.97-6.42c1.98-1.43,4.65-2.15,8.02-2.15c2.35,0,4.35,0.21,6.01,0.62
			c1.65,0.41,3.1,1.05,4.33,1.93c0.55,0.38,0.82,0.75,0.82,1.11c0,0.25-0.1,0.51-0.29,0.78l-2.38,3.73
			c-0.25,0.38-0.49,0.57-0.74,0.57c-0.16,0-0.42-0.11-0.78-0.33c-0.66-0.44-1.43-0.8-2.34-1.09c-0.9-0.29-1.87-0.43-2.91-0.43
			c-0.96,0-1.68,0.14-2.17,0.41c-0.49,0.27-0.74,0.71-0.74,1.31c0,0.49,0.17,0.9,0.51,1.23s0.77,0.61,1.29,0.84s1.42,0.61,2.71,1.13
			c2.05,0.82,3.66,1.61,4.84,2.36c1.17,0.75,2.06,1.65,2.67,2.71c0.6,1.05,0.9,2.38,0.9,4c0,2.46-0.92,4.45-2.77,5.97
			c-1.84,1.52-4.6,2.28-8.26,2.28C78.29,407.57,75.98,407.31,73.85,406.79z"/>
		<path d="M94.41,406.38c-0.37-0.38-0.55-0.97-0.55-1.76v-23.21c0-0.79,0.18-1.38,0.55-1.76s1-0.57,1.91-0.57h16.97
			c0.88,0,1.47,0.18,1.78,0.55c0.31,0.37,0.47,0.96,0.47,1.78v2.3c0,0.82-0.16,1.41-0.47,1.78s-0.91,0.55-1.78,0.55h-9.59v3.53h5.9
			c0.87,0,1.47,0.18,1.78,0.55c0.31,0.37,0.47,0.96,0.47,1.78v2.21c0,0.82-0.16,1.41-0.47,1.78c-0.31,0.37-0.91,0.55-1.78,0.55h-5.9
			v3.53h9.55c0.88,0,1.47,0.18,1.78,0.55c0.31,0.37,0.47,0.96,0.47,1.78v2.3c0,0.82-0.16,1.41-0.47,1.78s-0.91,0.55-1.78,0.55H96.32
			C95.42,406.95,94.78,406.76,94.41,406.38z"/>
		<path d="M118.87,403.9c-2.76-2.45-4.14-6.07-4.14-10.89c0-4.78,1.38-8.4,4.14-10.87c2.76-2.46,6.61-3.69,11.56-3.69
			c2.24,0,4.25,0.22,6.03,0.66s3.25,1.05,4.43,1.84c0.33,0.25,0.49,0.52,0.49,0.82c0,0.25-0.12,0.59-0.37,1.02l-2.05,3.53
			c-0.22,0.38-0.48,0.57-0.78,0.57c-0.19,0-0.51-0.11-0.94-0.33c-1.64-0.82-3.44-1.23-5.41-1.23c-2.27,0-4.05,0.65-5.35,1.95
			s-1.95,3.21-1.95,5.72c0,2.6,0.55,4.52,1.64,5.76c1.09,1.24,2.72,1.87,4.88,1.87c0.38,0,0.81-0.03,1.29-0.1
			c0.48-0.07,0.87-0.14,1.17-0.23v-3.73h-2.63c-0.88,0-1.47-0.17-1.78-0.51c-0.31-0.34-0.47-0.92-0.47-1.74v-2.25
			c0-0.82,0.16-1.4,0.47-1.74c0.31-0.34,0.91-0.51,1.78-0.51h8.82c1.07,0,1.8,0.24,2.21,0.72c0.41,0.48,0.62,1.24,0.62,2.28v9.59
			c0,0.6-0.08,1.06-0.23,1.37c-0.15,0.31-0.44,0.64-0.88,0.96c-2.62,1.89-6.27,2.83-10.95,2.83
			C125.5,407.57,121.63,406.34,118.87,403.9z"/>
		<path d="M150.77,406.28c-2.02-0.86-3.59-2.1-4.71-3.73s-1.68-3.56-1.68-5.8v-15.33c0-0.79,0.18-1.38,0.55-1.76s1-0.57,1.91-0.57
			h4.88c0.93,0,1.58,0.18,1.95,0.55c0.37,0.37,0.55,0.96,0.55,1.78v15.46c0,1.29,0.32,2.24,0.96,2.87c0.64,0.63,1.52,0.94,2.64,0.94
			c1.12,0,2-0.31,2.64-0.94c0.64-0.63,0.96-1.58,0.96-2.87v-15.46c0-0.79,0.19-1.38,0.55-1.76c0.37-0.38,1-0.57,1.91-0.57h4.88
			c0.93,0,1.58,0.18,1.95,0.55c0.37,0.37,0.55,0.96,0.55,1.78v15.33c0,2.24-0.56,4.18-1.68,5.8c-1.12,1.63-2.69,2.87-4.71,3.73
			c-2.02,0.86-4.37,1.29-7.05,1.29C155.14,407.57,152.79,407.14,150.77,406.28z"/>
		<path d="M174.49,406.38c-0.37-0.38-0.55-0.97-0.55-1.76v-23.21c0-0.79,0.18-1.38,0.55-1.76s1-0.57,1.91-0.57h4.88
			c0.93,0,1.58,0.18,1.95,0.55c0.37,0.37,0.55,0.96,0.55,1.78v23.21c0,0.79-0.18,1.38-0.55,1.76c-0.37,0.38-1.02,0.57-1.95,0.57
			h-4.88C175.49,406.95,174.86,406.76,174.49,406.38z"/>
		<path d="M187.2,406.38c-0.37-0.38-0.55-0.97-0.55-1.76v-23.25c0-0.79,0.18-1.37,0.55-1.74c0.37-0.37,1.02-0.55,1.95-0.55h4.71
			c0.6,0,1.08,0.08,1.43,0.23c0.36,0.15,0.63,0.44,0.82,0.88l4.8,12.01l4.8-12.01c0.19-0.44,0.46-0.73,0.82-0.88
			c0.36-0.15,0.83-0.23,1.44-0.23h4.71c0.93,0,1.58,0.18,1.95,0.55c0.37,0.37,0.55,0.95,0.55,1.74v23.25c0,0.79-0.18,1.38-0.55,1.76
			c-0.37,0.38-1,0.57-1.91,0.57h-3.94c-0.9,0-1.54-0.19-1.93-0.57c-0.38-0.38-0.57-0.97-0.57-1.76v-11.19l-2.42,5.58
			c-0.33,0.79-0.68,1.36-1.07,1.7c-0.38,0.34-1.01,0.51-1.89,0.51s-1.5-0.17-1.89-0.51c-0.38-0.34-0.74-0.91-1.07-1.7l-2.42-5.58
			v11.19c0,0.79-0.18,1.38-0.55,1.76c-0.37,0.38-1.02,0.57-1.95,0.57h-3.94C188.2,406.95,187.56,406.76,187.2,406.38z"/>
		<path d="M218.6,406.38c-0.37-0.38-0.55-0.97-0.55-1.76v-23.21c0-0.79,0.18-1.38,0.55-1.76s1-0.57,1.91-0.57h4.88
			c0.93,0,1.58,0.18,1.95,0.55c0.37,0.37,0.55,0.96,0.55,1.78v23.21c0,0.79-0.18,1.38-0.55,1.76c-0.37,0.38-1.02,0.57-1.95,0.57
			h-4.88C219.61,406.95,218.97,406.76,218.6,406.38z"/>
		<path d="M231.31,406.38c-0.37-0.38-0.55-0.97-0.55-1.76v-23.21c0-0.79,0.18-1.38,0.55-1.76c0.37-0.38,1.01-0.57,1.91-0.57h16.97
			c0.88,0,1.47,0.18,1.78,0.55c0.31,0.37,0.47,0.96,0.47,1.78v2.3c0,0.82-0.16,1.41-0.47,1.78s-0.91,0.55-1.78,0.55h-9.59v3.53h5.9
			c0.87,0,1.47,0.18,1.78,0.55c0.31,0.37,0.47,0.96,0.47,1.78v2.21c0,0.82-0.16,1.41-0.47,1.78s-0.91,0.55-1.78,0.55h-5.9v3.53h9.55
			c0.88,0,1.47,0.18,1.78,0.55c0.31,0.37,0.47,0.96,0.47,1.78v2.3c0,0.82-0.16,1.41-0.47,1.78s-0.91,0.55-1.78,0.55h-16.93
			C232.32,406.95,231.68,406.76,231.31,406.38z"/>
		<path d="M254.84,406.38c-0.37-0.38-0.55-0.97-0.55-1.76v-23.25c0-0.79,0.19-1.37,0.55-1.74c0.37-0.37,1.02-0.55,1.95-0.55h3.89
			c0.57,0,1.02,0.08,1.33,0.23c0.31,0.15,0.62,0.44,0.92,0.88l7.42,11.03v-9.8c0-0.79,0.18-1.38,0.55-1.76s1-0.57,1.91-0.57h4.88
			c0.93,0,1.58,0.18,1.95,0.55c0.37,0.37,0.55,0.96,0.55,1.78v23.25c0,0.79-0.18,1.37-0.55,1.74s-1.02,0.55-1.95,0.55h-3.9
			c-0.57,0-1.02-0.08-1.33-0.23c-0.31-0.15-0.62-0.44-0.92-0.88l-7.42-11.03v9.84c0,0.79-0.18,1.37-0.55,1.74s-1.02,0.55-1.95,0.55
			h-4.88C255.85,406.95,255.21,406.76,254.84,406.38z"/>
		<path d="M290.15,406.38c-0.37-0.38-0.55-0.97-0.55-1.76v-18.57h-5.9c-0.88,0-1.47-0.18-1.78-0.55c-0.31-0.37-0.47-0.96-0.47-1.78
			v-2.3c0-0.82,0.16-1.42,0.47-1.78c0.31-0.37,0.91-0.55,1.78-0.55h21.65c0.88,0,1.47,0.18,1.78,0.55c0.31,0.37,0.47,0.96,0.47,1.78
			v2.3c0,0.82-0.16,1.41-0.47,1.78s-0.91,0.55-1.78,0.55h-5.9v18.57c0,0.79-0.18,1.38-0.55,1.76c-0.37,0.38-1.02,0.57-1.95,0.57
			h-4.88C291.15,406.95,290.51,406.76,290.15,406.38z"/>
		<path d="M309.93,403.77c-2.51-2.53-3.77-6.12-3.77-10.76c0-4.65,1.26-8.23,3.77-10.76s6.21-3.79,11.07-3.79s8.55,1.26,11.07,3.79
			c2.51,2.53,3.77,6.12,3.77,10.76c0,4.65-1.26,8.24-3.77,10.76c-2.52,2.53-6.21,3.79-11.07,3.79S312.44,406.3,309.93,403.77z
			 M324.85,398.77c0.79-1.27,1.19-3.19,1.19-5.76c0-2.6-0.4-4.52-1.19-5.78s-2.08-1.89-3.85-1.89c-1.78,0-3.06,0.63-3.85,1.89
			c-0.79,1.26-1.19,3.18-1.19,5.78c0,2.57,0.4,4.49,1.19,5.76c0.79,1.27,2.08,1.91,3.85,1.91
			C322.77,400.68,324.06,400.04,324.85,398.77z"/>
		<path d="M104.01,455.58c-0.37-0.38-0.55-0.97-0.55-1.76v-23.21c0-0.79,0.18-1.38,0.55-1.76s1-0.57,1.91-0.57h9.43
			c9.65,0,14.47,4.65,14.47,13.94c0,4.59-1.24,8.06-3.71,10.41c-2.47,2.35-6.06,3.53-10.76,3.53h-9.43
			C105.01,456.15,104.38,455.96,104.01,455.58z M115.71,449.18c1.53,0,2.63-0.51,3.3-1.52c0.67-1.01,1-2.83,1-5.45
			s-0.33-4.44-1-5.45c-0.67-1.01-1.77-1.52-3.3-1.52h-2.42v13.94H115.71z"/>
		<path d="M132.42,455.58c-0.37-0.38-0.55-0.97-0.55-1.76v-23.21c0-0.79,0.18-1.38,0.55-1.76c0.37-0.38,1.01-0.57,1.91-0.57h16.97
			c0.88,0,1.47,0.18,1.78,0.55s0.47,0.96,0.47,1.78v2.3c0,0.82-0.16,1.42-0.47,1.78c-0.31,0.37-0.91,0.55-1.78,0.55h-9.59v3.53h5.9
			c0.87,0,1.47,0.18,1.78,0.55c0.31,0.37,0.47,0.96,0.47,1.78v2.21c0,0.82-0.16,1.41-0.47,1.78s-0.91,0.55-1.78,0.55h-5.9v3.53h9.55
			c0.88,0,1.47,0.18,1.78,0.55c0.31,0.37,0.47,0.96,0.47,1.78v2.3c0,0.82-0.16,1.41-0.47,1.78s-0.91,0.55-1.78,0.55h-16.93
			C133.43,456.15,132.79,455.96,132.42,455.58z"/>
		<path d="M171.02,453.1c-2.76-2.45-4.14-6.07-4.14-10.89c0-4.84,1.33-8.47,4-10.91c2.67-2.43,6.47-3.65,11.42-3.65
			c2.24,0,4.24,0.22,5.99,0.66s3.21,1.05,4.39,1.84c0.33,0.25,0.49,0.52,0.49,0.82c0,0.25-0.12,0.59-0.37,1.02l-2.05,3.53
			c-0.22,0.38-0.48,0.57-0.78,0.57c-0.19,0-0.51-0.11-0.94-0.33c-0.77-0.38-1.56-0.68-2.4-0.9c-0.83-0.22-1.81-0.33-2.93-0.33
			c-2.27,0-4,0.66-5.21,1.97c-1.2,1.31-1.8,3.21-1.8,5.7c0,2.46,0.66,4.35,1.97,5.68c1.31,1.33,3.1,1.99,5.37,1.99
			c1.97,0,3.77-0.41,5.41-1.23c0.44-0.22,0.75-0.33,0.94-0.33c0.3,0,0.56,0.19,0.78,0.57l2.05,3.53c0.25,0.44,0.37,0.78,0.37,1.03
			c0,0.3-0.16,0.57-0.49,0.82c-1.17,0.79-2.65,1.41-4.43,1.84c-1.78,0.44-3.79,0.66-6.03,0.66
			C177.65,456.77,173.78,455.54,171.02,453.1z"/>
		<path d="M193.78,455.29c0-0.25,0.07-0.55,0.2-0.9l10.21-24.56c0.25-0.57,0.53-0.98,0.84-1.21s0.76-0.35,1.33-0.35h4.47
			c0.57,0,1.02,0.12,1.33,0.35c0.31,0.23,0.59,0.63,0.84,1.21l10.17,24.56c0.14,0.36,0.21,0.66,0.21,0.9c0,0.57-0.3,0.86-0.9,0.86
			h-7.71c-0.85,0-1.38-0.37-1.6-1.11l-0.98-3.03h-7.26l-0.94,3.03c-0.22,0.74-0.75,1.11-1.6,1.11h-7.71
			C194.08,456.15,193.78,455.87,193.78,455.29z M210.18,445.53l-1.6-5.08l-1.6,5.08H210.18z"/>
		<path d="M228.79,455.99c-2.13-0.52-3.85-1.24-5.17-2.17c-0.55-0.38-0.82-0.75-0.82-1.11c0-0.25,0.1-0.5,0.29-0.78l2.38-3.73
			c0.25-0.35,0.49-0.53,0.74-0.53c0.22,0,0.48,0.1,0.78,0.29c0.98,0.6,2.11,1.07,3.38,1.42s2.51,0.51,3.71,0.51
			c1.01,0,1.74-0.14,2.19-0.41s0.68-0.7,0.68-1.27c0-0.63-0.3-1.13-0.9-1.52s-1.64-0.86-3.12-1.44c-2.76-1.07-4.93-2.28-6.52-3.63
			c-1.59-1.35-2.38-3.15-2.38-5.39c0-2.84,0.99-4.98,2.97-6.42c1.98-1.43,4.65-2.15,8.02-2.15c2.35,0,4.35,0.21,6.01,0.62
			c1.65,0.41,3.1,1.05,4.33,1.93c0.55,0.38,0.82,0.75,0.82,1.11c0,0.25-0.1,0.51-0.29,0.78l-2.38,3.73
			c-0.25,0.38-0.49,0.57-0.74,0.57c-0.16,0-0.42-0.11-0.78-0.33c-0.66-0.44-1.43-0.8-2.34-1.09c-0.9-0.29-1.87-0.43-2.91-0.43
			c-0.96,0-1.68,0.14-2.17,0.41c-0.49,0.27-0.74,0.71-0.74,1.31c0,0.49,0.17,0.9,0.51,1.23s0.77,0.61,1.29,0.84s1.42,0.61,2.71,1.13
			c2.05,0.82,3.66,1.61,4.84,2.36c1.17,0.75,2.06,1.65,2.67,2.71c0.6,1.05,0.9,2.38,0.9,4c0,2.46-0.92,4.45-2.77,5.97
			c-1.84,1.52-4.6,2.28-8.26,2.28C233.23,456.77,230.92,456.51,228.79,455.99z"/>
		<path d="M251.75,452.97c-2.51-2.53-3.77-6.12-3.77-10.76c0-4.65,1.26-8.23,3.77-10.76s6.21-3.79,11.07-3.79s8.55,1.26,11.07,3.79
			c2.51,2.53,3.77,6.12,3.77,10.76c0,4.65-1.26,8.24-3.77,10.76c-2.52,2.53-6.21,3.79-11.07,3.79S254.26,455.5,251.75,452.97z
			 M266.67,447.97c0.79-1.27,1.19-3.19,1.19-5.76c0-2.6-0.4-4.52-1.19-5.78s-2.08-1.89-3.85-1.89c-1.78,0-3.06,0.63-3.85,1.89
			c-0.79,1.26-1.19,3.18-1.19,5.78c0,2.57,0.4,4.49,1.19,5.76c0.79,1.27,2.08,1.91,3.85,1.91
			C264.6,449.88,265.88,449.24,266.67,447.97z"/>
		<path d="M283.07,455.99c-2.13-0.52-3.85-1.24-5.17-2.17c-0.55-0.38-0.82-0.75-0.82-1.11c0-0.25,0.1-0.5,0.29-0.78l2.38-3.73
			c0.25-0.35,0.49-0.53,0.74-0.53c0.22,0,0.48,0.1,0.78,0.29c0.98,0.6,2.11,1.07,3.38,1.42c1.27,0.34,2.51,0.51,3.71,0.51
			c1.01,0,1.74-0.14,2.19-0.41s0.68-0.7,0.68-1.27c0-0.63-0.3-1.13-0.9-1.52c-0.6-0.38-1.64-0.86-3.12-1.44
			c-2.76-1.07-4.93-2.28-6.52-3.63c-1.59-1.35-2.38-3.15-2.38-5.39c0-2.84,0.99-4.98,2.97-6.42c1.98-1.43,4.65-2.15,8.02-2.15
			c2.35,0,4.35,0.21,6.01,0.62s3.1,1.05,4.33,1.93c0.55,0.38,0.82,0.75,0.82,1.11c0,0.25-0.1,0.51-0.29,0.78l-2.38,3.73
			c-0.25,0.38-0.49,0.57-0.74,0.57c-0.16,0-0.42-0.11-0.78-0.33c-0.66-0.44-1.43-0.8-2.34-1.09s-1.87-0.43-2.91-0.43
			c-0.96,0-1.68,0.14-2.17,0.41c-0.49,0.27-0.74,0.71-0.74,1.31c0,0.49,0.17,0.9,0.51,1.23s0.77,0.61,1.29,0.84
			c0.52,0.23,1.42,0.61,2.71,1.13c2.05,0.82,3.66,1.61,4.84,2.36s2.06,1.65,2.67,2.71c0.6,1.05,0.9,2.38,0.9,4
			c0,2.46-0.92,4.45-2.77,5.97c-1.84,1.52-4.6,2.28-8.26,2.28C287.52,456.77,285.21,456.51,283.07,455.99z"/>
	</g>
	<polygon class="st1" points="200.76,96.93 214.23,124.22 244.34,128.59 222.55,149.83 227.7,179.83 200.76,165.67 173.83,179.83 
		178.97,149.83 157.18,128.59 187.29,124.22 	"/>
	<polygon class="st1" points="138.58,180.15 147.32,197.86 166.86,200.7 152.72,214.48 156.06,233.94 138.58,224.75 121.11,233.94 
		124.45,214.48 110.31,200.7 129.85,197.86 	"/>
	<polygon class="st1" points="268.68,180.15 277.42,197.86 296.95,200.7 282.82,214.48 286.15,233.94 268.68,224.75 251.2,233.94 
		254.54,214.48 240.4,200.7 259.94,197.86 	"/>
	<circle class="st2" cx="201.77" cy="213.97" r="121.96"/>
	<circle class="st3" cx="200.82" cy="200.58" r="121.96"/>
	<g>
		<path class="st3" d="M176.43,640.35v-4.31c0-2.87,0.97-5.57,2.92-8.1c1.95-2.53,5.35-5.5,10.22-8.91c1.7-1.17,2.75-1.87,3.14-2.12
			c1.75-1.17,2.97-2.04,3.65-2.63c0.68-0.58,1.19-1.22,1.53-1.9c0.34-0.68,0.51-1.56,0.51-2.63c0-1.22-0.45-2.2-1.35-2.96
			c-0.9-0.75-2.28-1.13-4.13-1.13c-3.12,0-6.28,0.8-9.49,2.41c-0.78,0.39-1.34,0.58-1.68,0.58c-0.54,0-1-0.34-1.39-1.02l-3.65-6.28
			c-0.44-0.78-0.66-1.39-0.66-1.82c0-0.54,0.29-1.02,0.88-1.46c2.09-1.41,4.79-2.54,8.1-3.39c3.31-0.85,6.93-1.28,10.88-1.28
			c6.13,0,10.99,1.28,14.56,3.83c3.58,2.55,5.37,6.17,5.37,10.84c0,3.6-1,6.66-2.99,9.16c-2,2.51-5.26,5.22-9.78,8.14
			c-4.82,3.12-7.71,5.21-8.69,6.28h17.81c1.56,0,2.62,0.33,3.18,0.99c0.56,0.66,0.84,1.71,0.84,3.17v4.16
			c0,1.46-0.28,2.52-0.84,3.18c-0.56,0.66-1.62,0.99-3.18,0.99h-32.12C177.65,644.14,176.43,642.88,176.43,640.35z"/>
	</g>
	<g>
		<circle id="XMLID_298_" class="st4" cx="200.26" cy="200.04" r="84.53"/>
		<g id="XMLID_274_">
			<path id="XMLID_297_" class="st23" d="M223.78,196.72c1.1-2.68,1.66-4.8,1.78-5.36c-0.1-0.03-0.19-0.08-0.24-0.16
				c-0.17-0.26,0.34-2.99,0.11-3.19c-0.03-0.02-0.06-0.04-0.09-0.05c-0.31,0.97-0.87,1.76-1.54,2.32
				C223.79,192.39,223.79,194.55,223.78,196.72z"/>
			<path id="XMLID_296_" class="st41" d="M219.97,191.36c-1.25-0.89-1.21,11.77-6.4,16.79c-0.37,0.36-0.75,0.71-1.14,1.05
				c-0.39,0.35-0.81,0.66-1.22,0.99c0,0.17,0,0.35,0.01,0.53c4.79-1.4,8.17-5.64,10.26-9.29c0.94-1.63,1.7-3.25,2.3-4.71
				c0.01-2.17,0.02-4.33,0.01-6.43c-0.4,0.34-0.82,0.59-1.24,0.73C221.82,191.77,220.96,192.03,219.97,191.36z"/>
			<path id="XMLID_295_" class="st41" d="M179.62,225.09c-0.13,0.07-0.53,0.3-0.91,0.9C178.97,225.73,179.28,225.44,179.62,225.09z"
				/>
			<path id="XMLID_294_" class="st41" d="M211.24,211.39c0.12,2.78,0.68,6.45,2.96,9.77c0.75-0.66,1.16-0.82,1.44-0.35
				c1.68,2.84,3.44,4.36,4.41,5.33c-0.49-0.85-1.05-1.08-1.05-1.08s1.2-0.47,3.28,1.3c0.48,0.41,1.33,0.99,2.26,1.76
				c-1.09-5.41-0.86-17.68-0.77-29.76c-0.5,1.1-1.07,2.24-1.72,3.38C219.04,206.97,215.35,210.25,211.24,211.39z"/>
			<path id="XMLID_293_" class="st41" d="M179.65,225.06c0.95-0.96,2.15-2.28,3.31-4.24c0.28-0.48,0.7-0.31,1.48,0.39
				c2.64-3.84,2.99-8.14,3.02-11.01c-0.82-0.64-1.61-1.32-2.36-2.04c-5.19-5.01-5.15-17.68-6.4-16.79
				c-0.97,0.65-1.82,0.41-2.54-0.31c-0.26-0.08-0.51-0.2-0.77-0.35c-0.05,13.83,0.54,30.06-0.66,36.94
				c0.69-0.53,1.29-0.96,1.66-1.28C178.37,224.69,179.54,225.02,179.65,225.06z"/>
			<path id="XMLID_292_" class="st42" d="M210.16,210.98c0.36-0.07,0.71-0.16,1.06-0.26c0-0.18-0.01-0.36-0.01-0.53
				C210.86,210.46,210.52,210.73,210.16,210.98z"/>
			<path id="XMLID_291_" class="st42" d="M199.15,234.5c0.09,0.07,0.12,0.15,0.15,0.24c0.03-0.09,0.06-0.17,0.15-0.24
				c9.06-6.94,12.92-11.71,14.75-13.33c-2.27-3.33-2.83-6.99-2.96-9.77c-0.75,0.21-1.51,0.34-2.29,0.41
				c-0.22,0.96-1.21,2.72-4.54,2.69c-0.7-0.01-1.27-0.09-1.75-0.23c-0.5,0.09-1.01,0.18-1.52,0.23c-1.54,0.16-3.12,0.11-4.65-0.13
				c-1.26-0.2-2.49-0.54-3.67-1c-1.33-0.52-2.59-1.2-3.78-2c-0.55-0.36-1.06-0.77-1.58-1.17c-0.02,2.87-0.37,7.17-3.02,11.01
				C186.29,222.87,190.16,227.61,199.15,234.5z"/>
			<path id="XMLID_290_" class="st42" d="M199.3,234.95c0,0.02-0.01,0.03-0.01,0.05h0.02C199.3,234.98,199.3,234.97,199.3,234.95z"
				/>
			<path id="XMLID_289_" class="st43" d="M192.81,213.36c1.18,0.47,2.42,0.8,3.67,1c1.53,0.24,3.11,0.29,4.65,0.13
				c0.51-0.05,1.02-0.14,1.52-0.23c-2.22-0.63-2.37-2.38-2.43-2.97c0.08-0.71,0.34-3.15,4.25-3.11c3.55,0.04,4.39,2.05,4.51,2.96
				c0.4-0.04,0.79-0.09,1.17-0.17c0.36-0.25,0.71-0.52,1.05-0.79c0.41-0.32,0.83-0.64,1.22-0.99c0.39-0.34,0.77-0.69,1.14-1.05
				c5.19-5.01,5.15-17.68,6.4-16.79c0.99,0.66,1.85,0.41,2.57-0.34c-0.6,0.21-1.19,0.23-1.62-0.03c-0.71-0.44,0.03-3.98,0.53-9.41
				c-0.08,0.02-0.15,0.05-0.23,0.1c-0.98,0.63-2.21-7.81-6.96-11.75c-4.74-3.94-5.13-6.6-5.13-6.6c-4.74,0.54-9.39,2.26-17.21,8.48
				c-6.19,4.93-11.72,9.84-14.21,10.5c-0.23,0.06-0.38-0.19-0.57-0.52c0.51,5.31,1.21,8.77,0.52,9.21
				c-0.41,0.25-0.95,0.24-1.51,0.07c0.72,0.72,1.57,0.96,2.54,0.31c1.25-0.89,1.21,11.77,6.4,16.79c0.75,0.72,1.54,1.4,2.36,2.04
				c0.51,0.41,1.03,0.81,1.58,1.17C190.22,212.16,191.48,212.84,192.81,213.36z"/>
			<path id="XMLID_288_" class="st41" d="M175.19,172.35c0.24-4.64,4.49-21.47,24.11-21.47c19.61,0,23.87,16.83,24.11,21.47
				c0.15,3.01-0.15,4.74,0.1,5.78c0.1-1.01,0.15-2.32,0.15-4.06c0-8.86-3.6-17.99-9.4-19.52c-2.79-0.73-3.15-3.44-9.35-5.3
				c-9.91-2.97-21.1,1.15-26.81,10.67c-4,6.67-4.21,16-3.79,19.24C175.7,178.43,174.97,176.74,175.19,172.35z"/>
			<path id="XMLID_287_" class="st41" d="M177.73,182.31c2.5-0.66,8.02-5.57,14.21-10.5c7.82-6.22,12.47-7.94,17.21-8.48
				c0,0,0.38,2.67,5.13,6.6c4.74,3.94,5.97,12.37,6.96,11.75c0.07-0.05,0.15-0.08,0.23-0.1c0.05-0.56,0.1-1.13,0.15-1.72
				c0.49-6.4,0.42-8.49-0.21-10.82c-4.84-17.87-22.1-16.6-22.1-16.6s-16.66-1.57-22.02,16.32c-0.71,2.37-0.77,4.69-0.29,11.09
				c0.05,0.67,0.11,1.31,0.17,1.93C177.34,182.12,177.5,182.37,177.73,182.31z"/>
			<path id="XMLID_286_" class="st96" d="M177.67,190.99c0.7-0.43-0.01-3.89-0.52-9.21c-0.06-0.62-0.12-1.26-0.17-1.93
				c-0.49-6.4-0.42-8.72,0.29-11.09c5.36-17.88,22.02-16.32,22.02-16.32s17.26-1.27,22.1,16.6c0.63,2.32,0.69,4.42,0.21,10.82
				c-0.05,0.6-0.1,1.17-0.15,1.72c-0.51,5.43-1.24,8.97-0.53,9.41c0.43,0.27,1.01,0.25,1.62,0.03c0.42-0.15,0.84-0.39,1.24-0.73
				c0.66-0.56,1.23-1.36,1.54-2.32c-0.24-0.07-0.61,0.15-0.81-0.28c-0.23-0.48-0.11-2.67,0.08-3.14c0.19-0.47,0.41-0.69,1.15-0.56
				c0.04,0.01,0.08,0.03,0.12,0.04c0.09-2.19-0.18-4.29-1.33-4.73c-0.62-0.24-0.9-0.61-1.03-1.17c-0.24-1.04,0.06-2.78-0.1-5.78
				c-0.24-4.64-4.49-21.47-24.11-21.47c-19.61,0-23.87,16.83-24.11,21.47c-0.22,4.39,0.51,6.08-0.9,6.83
				c-0.08,0.04-0.14,0.09-0.23,0.13c-1.75,0.68-1.46,5.22-0.97,8.02c0.27,1.56,1.25,2.76,2.29,3.38c0.26,0.16,0.52,0.28,0.77,0.35
				C176.72,191.24,177.26,191.24,177.67,190.99z"/>
			<path id="XMLID_285_" class="st97" d="M224.6,184.55c-0.19,0.47-0.32,2.65-0.08,3.14c0.2,0.43,0.57,0.21,0.81,0.28
				c0.03,0.01,0.06,0.02,0.09,0.05c0.24,0.19-0.28,2.93-0.11,3.19c0.05,0.08,0.14,0.12,0.24,0.16c-0.12,0.56-0.67,2.68-1.78,5.36
				c-0.6,1.46-1.36,3.08-2.3,4.71c-2.1,3.65-5.48,7.89-10.26,9.29c-0.35,0.1-0.7,0.19-1.06,0.26c-0.38,0.07-0.77,0.13-1.17,0.17
				c-0.12-0.91-0.96-2.92-4.51-2.96c-3.9-0.04-4.16,2.39-4.25,3.11c0.06,0.59,0.21,2.34,2.43,2.97c0.48,0.14,1.05,0.22,1.75,0.23
				c3.33,0.03,4.31-1.73,4.54-2.69c0.78-0.07,1.54-0.2,2.29-0.41c4.11-1.14,7.8-4.43,10.81-9.65c0.65-1.14,1.22-2.28,1.72-3.38
				c1.58-3.49,2.36-6.46,2.44-7.03c0.04-0.02,0.09-0.03,0.13-0.05c0.27-0.18,0.47-1.98,0.64-4.03c0.16-1.94-0.45-3-1.11-3.22
				c-0.04-0.01-0.08-0.03-0.12-0.04C225,183.86,224.79,184.08,224.6,184.55z"/>
			<path id="XMLID_284_" class="st44" d="M195.86,249.45c-1.42-3.18-3-4.99-3.15-7.63c-1.05,1.29-1.77,2.63-1.65,3.89
				c0.4,4.19-12-10.17-13.18-17.06c-0.22,1.32-0.22,4.08,3.6,9.5c2.59,3.67,8.65,14.11,13.06,23.49c0.88-5.66,1.58-10,1.88-11.63
				C196.18,249.86,195.97,249.68,195.86,249.45z"/>
			<path id="XMLID_283_" class="st44" d="M207.54,245.7c0.12-1.26-0.6-2.59-1.65-3.89c-0.15,2.65-1.73,4.46-3.15,7.63
				c-0.1,0.23-0.32,0.41-0.55,0.55c0.31,1.7,1.06,6.33,1.99,12.32c4.29-9.55,10.38-20.42,13.03-24.18c4.02-5.7,3.81-8.46,3.57-9.69
				C219.77,235.27,207.14,249.93,207.54,245.7z"/>
			<path id="XMLID_282_" class="st44" d="M179.89,242.2c0.01,0.01,0.01,0.02,0.02,0.03l0.03-0.03
				C179.95,242.21,179.93,242.2,179.89,242.2z"/>
			<path id="XMLID_281_" class="st98" d="M202.73,249.45c1.42-3.18,3-4.99,3.15-7.63c-2.33-2.88-6.29-5.55-6.58-6.81h-0.02
				c-0.29,1.27-4.25,3.94-6.58,6.81c0.15,2.65,1.73,4.46,3.15,7.63c0.1,0.23,0.32,0.41,0.55,0.55c-0.3,1.63-1,5.98-1.88,11.63
				c2.63,5.58,4.67,10.78,5.05,13.95c0.36-3.04,2.2-7.95,4.58-13.27c-0.93-5.99-1.68-10.62-1.99-12.32
				C202.42,249.86,202.63,249.68,202.73,249.45z"/>
			<path id="XMLID_280_" class="st57" d="M215.63,220.82c-0.28-0.47-0.69-0.32-1.44,0.35c-1.83,1.62-5.69,6.39-14.75,13.33
				c-0.09,0.07-0.12,0.15-0.15,0.24c-0.03-0.09-0.06-0.17-0.15-0.24c-8.99-6.88-12.86-11.63-14.71-13.29
				c-0.78-0.7-1.2-0.86-1.48-0.39c-1.16,1.96-2.36,3.28-3.31,4.24c0.01,0,0.02,0.01,0.02,0.01s-0.02,0.01-0.05,0.02
				c-0.35,0.35-0.65,0.64-0.91,0.9c-0.28,0.43-0.54,1.05-0.69,1.93c-0.03,0.17-0.09,0.4-0.15,0.72c1.18,6.9,13.58,21.26,13.18,17.06
				c-0.12-1.26,0.6-2.59,1.65-3.89c2.33-2.88,6.29-5.55,6.58-6.81c0-0.02,0.01-0.03,0.01-0.05c0,0.02,0.01,0.03,0.01,0.05
				c0.29,1.27,4.25,3.94,6.58,6.81c1.05,1.29,1.77,2.63,1.65,3.89c-0.4,4.23,12.23-10.43,13.22-17.25c-0.04-0.22-0.09-0.4-0.11-0.53
				c-0.13-0.79-0.36-1.35-0.61-1.77C219.07,225.18,217.32,223.66,215.63,220.82z"/>
			<path id="XMLID_279_" class="st97" d="M249.13,238.51c-0.76-1.04-17.5-6.81-22.94-8.81c0.55,0.61,1.08,1.3,1.52,2.08
				c2.4,4.29,2.53,6.92,4.22,8.18c1.69,1.26-13.22,2.24-13.22,2.24l9.39,7.09c0,0-10.52,12.03-17.64,17.22
				c-2.2,1.61-9.16,8.04-10.86,10.82c0.39,1.86,1.07,4.66,1.22,5.78c0.07,0.49,0.12,0.95,0.18,1.43
				c12.96-0.15,25.22-3.22,36.15-8.58c0.33-6.49-0.78-31.99,11.48-37.42c0.26-0.11,0.55,0.15,0.87,0.71c0,0,0-0.01,0.01-0.01
				C249.4,238.99,249.28,238.72,249.13,238.51z"/>
			<path id="XMLID_278_" class="st99" d="M199.61,277.34L199.61,277.34c-1.98-1.73-9.22-9.22-11.42-10.82
				c-7.12-5.19-17.64-17.22-17.64-17.22l9.36-7.06c-0.01-0.01-0.01-0.02-0.02-0.03c-0.96-0.06-14.8-1.02-13.16-2.24
				c1.69-1.26,1.82-3.89,4.22-8.18c0.47-0.85,1.05-1.58,1.66-2.23c-5.68,2.08-21.93,7.69-22.68,8.72
				c13.11,0.68,11.81,29.87,12.05,37.26c11.43,5.77,24.34,9.04,38.02,9.04c0.34,0,0.68-0.02,1.02-0.03
				c-0.06-0.47-0.12-0.94-0.18-1.43C200.69,282,200,279.2,199.61,277.34z"/>
			<path id="XMLID_277_" class="st100" d="M170.95,231.78c-2.4,4.29-2.53,6.92-4.22,8.18c-1.64,1.22,12.2,2.17,13.16,2.24
				c0.03,0,0.06,0,0.06,0l-0.03,0.03l-9.36,7.06c0,0,10.52,12.03,17.64,17.22c2.2,1.61,9.44,9.09,11.42,10.82l0,0
				c1.69-2.78,8.66-9.22,10.86-10.82c7.12-5.19,17.64-17.22,17.64-17.22l-9.39-7.09c0,0,14.91-0.98,13.22-2.24
				c-1.69-1.26-1.82-3.89-4.22-8.18c-0.44-0.78-0.96-1.47-1.52-2.08c-0.55-0.6-1.11-1.12-1.66-1.58c-0.93-0.77-1.78-1.35-2.26-1.76
				c-2.08-1.77-3.28-1.3-3.28-1.3s0.56,0.23,1.05,1.08c0.24,0.42,0.47,0.99,0.61,1.77c0.02,0.13,0.07,0.31,0.11,0.53
				c0.24,1.23,0.45,3.99-3.57,9.69c-2.65,3.76-8.74,14.63-13.03,24.18c-2.39,5.32-4.22,10.23-4.58,13.27
				c-0.38-3.17-2.42-8.37-5.05-13.95c-4.41-9.38-10.48-19.83-13.06-23.49c-3.82-5.42-3.82-8.19-3.6-9.5
				c0.05-0.32,0.12-0.55,0.15-0.72c0.15-0.88,0.42-1.5,0.69-1.93c0.38-0.6,0.78-0.84,0.91-0.9c0.03-0.01,0.05-0.02,0.05-0.02
				s-0.02,0-0.02-0.01c-0.11-0.04-1.28-0.37-3.26,1.31c-0.38,0.32-0.98,0.74-1.66,1.28c-0.66,0.52-1.4,1.15-2.11,1.91
				C172.01,230.2,171.43,230.93,170.95,231.78z"/>
			<path id="XMLID_276_" class="st100" d="M149.93,238.27c-0.76-0.04-3.23,11.43-5.73,25.23c5.37,4.72,11.34,8.77,17.79,12.03
				C161.74,268.14,163.04,238.95,149.93,238.27z"/>
			<path id="XMLID_275_" class="st100" d="M248.64,238.55c-12.26,5.43-11.14,30.93-11.48,37.42c6.62-3.24,12.74-7.34,18.24-12.12
				c-2.1-11.77-4.34-21.85-5.89-24.58C249.19,238.7,248.9,238.44,248.64,238.55z"/>
		</g>
	</g>
</g>
</svg>
