<?xml version="1.0" encoding="utf-8"?>
<!-- Generator: Adobe Illustrator 23.0.0, SVG Export Plug-In . SVG Version: 6.00 Build 0)  -->
<svg version="1.1" id="Capa_1" xmlns="http://www.w3.org/2000/svg" xmlns:xlink="http://www.w3.org/1999/xlink" x="0px" y="0px"
	 viewBox="0 0 400 702" style="enable-background:new 0 0 400 702;" xml:space="preserve">
<style type="text/css">
	.st0{fill:#0085B0;}
	.st1{fill:#E0EF18;}
	.st2{fill:#CECECE;}
	.st3{fill:#FFFFFF;}
	.st4{fill:#F2F2F2;}
	.st5{fill:#EACCB0;}
	.st6{fill:#9B9B9B;}
	.st7{fill:#939393;}
	.st8{fill:#EFEFEF;}
	.st9{fill:#828282;}
	.st10{fill:#2C2A2D;}
	.st11{fill:#202021;}
	.st12{fill:#F2D4B6;}
	.st13{fill:#534D46;}
	.st14{fill:#E8D313;}
	.st15{fill:#2ACCFF;}
	.st16{fill:#4E4F4F;}
	.st17{fill:#003A94;}
	.st18{fill:#00D13C;}
	.st19{fill:#15682A;}
	.st20{fill:#D40000;}
	.st21{fill:#505050;}
	.st22{fill:#DFDFDF;}
	.st23{fill:none;}
	.st24{fill:#636363;}
	.st25{fill:#6C92D5;}
	.st26{fill:#22272F;}
	.st27{fill:#1B2538;}
	.st28{fill:#253452;}
	.st29{fill:#F9F9F9;}
	.st30{fill:#2D3543;}
	.st31{fill:#2A3D60;}
	.st32{fill:#587955;}
	.st33{fill:#CD7054;}
	.st34{fill:#F1CC4B;}
	.st35{fill:#ACACAC;}
	.st36{fill:#AAE528;}
	.st37{fill:#28CEBA;}
	.st38{fill:#DB143F;}
	.st39{fill:#53C2C9;}
	.st40{fill:#FFB412;}
	.st41{fill:#866A5E;}
	.st42{fill:#F7DDCB;}
	.st43{fill:#FFE6D4;}
	.st44{fill:#F5F5F5;}
	.st45{fill:#1A2830;}
	.st46{fill:#24353F;}
	.st47{fill:#132026;}
	.st48{fill:#F9FF03;}
	.st49{fill:#272728;}
	.st50{fill:#1E1D1E;}
	.st51{fill:#160423;}
	.st52{fill-rule:evenodd;clip-rule:evenodd;fill:#FFFFFF;}
	.st53{fill-rule:evenodd;clip-rule:evenodd;fill:#1996B8;}
	.st54{fill:#0C387D;}
	.st55{fill:#C69A81;}
	.st56{fill:#D1A385;}
	.st57{fill:#EAEAEA;}
	.st58{fill:#093E8C;}
	.st59{fill:#0B2A62;}
	.st60{fill:#D32A3B;}
	.st61{fill:#827C7D;}
	.st62{opacity:0.7;fill:#7F7F7F;}
	.st63{fill:#FDFDFD;}
	.st64{fill:#DAA449;}
	.st65{fill:#DD9225;}
	.st66{opacity:0.3;}
	.st67{fill:#425793;}
	.st68{opacity:0.8;}
	.st69{filter:url(#Adobe_OpacityMaskFilter);}
	.st70{opacity:0.15;mask:url(#SVGID_1_);}
	.st71{fill:#090B00;}
	.st72{opacity:0.1;}
	.st73{fill:#211915;}
	.st74{filter:url(#Adobe_OpacityMaskFilter_1_);}
	.st75{opacity:0.15;mask:url(#SVGID_2_);}
	.st76{fill:#AF3623;}
	.st77{filter:url(#Adobe_OpacityMaskFilter_2_);}
	.st78{opacity:0.15;mask:url(#SVGID_3_);}
	.st79{filter:url(#Adobe_OpacityMaskFilter_3_);}
	.st80{opacity:0.15;mask:url(#SVGID_4_);}
	.st81{fill:#456495;}
	.st82{filter:url(#Adobe_OpacityMaskFilter_4_);}
	.st83{opacity:0.15;mask:url(#SVGID_5_);}
	.st84{filter:url(#Adobe_OpacityMaskFilter_5_);}
	.st85{opacity:0.15;mask:url(#SVGID_6_);}
	.st86{fill:#76A9DA;}
	.st87{filter:url(#Adobe_OpacityMaskFilter_6_);}
	.st88{opacity:0.15;mask:url(#SVGID_7_);}
	.st89{filter:url(#Adobe_OpacityMaskFilter_7_);}
	.st90{opacity:0.15;mask:url(#SVGID_8_);}
	.st91{fill:#1F3642;}
	.st92{fill:#A9BDDA;}
	.st93{opacity:0.46;fill:#A6B4BC;}
	.st94{fill:#74C475;}
	.st95{fill:#221F21;}
	.st96{fill:#2D2D2D;}
	.st97{fill:#1C1B1A;}
	.st98{fill:#77181C;}
	.st99{fill:#262525;}
	.st100{fill:#11100F;}
	.st101{opacity:0.18;}
	.st102{opacity:0.38;}
	.st103{fill:#0A5B1F;}
	.st104{opacity:0.27;}
	.st105{opacity:0.48;}
	.st106{fill:#0A4654;}
	.st107{fill:#C2C6C6;}
	.st108{fill:#E5E5E5;stroke:#FFFFFF;stroke-miterlimit:10;}
	.st109{fill:#ACB4B5;}
	.st110{fill:#7F8384;}
	.st111{fill:#15772F;}
	.st112{fill:#F4F4F4;}
	.st113{fill:#53B8DB;}
	.st114{fill:#06EF42;}
	.st115{fill:#E7ED07;}
	.st116{fill:#CCCCCA;}
	.st117{fill:#EADF13;}
	.st118{fill:#C2C2C2;}
	.st119{fill:#85B681;}
	.st120{fill:#A1DC9B;}
	.st121{fill:#90C58B;}
	.st122{fill:#22241F;}
	.st123{opacity:0.5;}
	.st124{fill:#A2CADE;}
	.st125{fill:#E9E9E9;}
	.st126{fill:#D9D9D9;}
	.st127{fill:#CDCDCD;}
	.st128{opacity:0.34;fill:#F0F0F0;}
	.st129{fill:#5A5B5A;}
	.st130{fill:#FFE600;}
	.st131{fill:#DB1F59;}
	.st132{fill:#727272;}
	.st133{fill:#207235;}
	.st134{fill:#A3A3A3;}
	.st135{fill:#BCBCBC;}
	.st136{fill:#0A511C;}
	.st137{fill:#F9FF00;}
	.st138{fill:#D59F6D;}
	.st139{fill:#C0804A;}
	.st140{fill:#E6BA8A;}
	.st141{fill:#BE3ACC;}
	.st142{fill:#FFFFFF;stroke:#443F0C;stroke-width:9;stroke-miterlimit:10;}
	.st143{fill:none;stroke:#443F0C;stroke-width:9;stroke-miterlimit:10;}
	.st144{fill:#170623;}
	.st145{fill:#158231;}
	.st146{fill:#C89D76;}
	.st147{opacity:0.4;}
	.st148{fill:#ADADAD;}
	.st149{fill:#EDC3A6;}
	.st150{opacity:0.69;}
	.st151{fill:#E5D3D6;}
	.st152{opacity:0.44;}
	.st153{fill:#A5A5A5;}
	.st154{fill:#DDE5E4;}
	.st155{fill:#5C9169;}
	.st156{fill:#934215;}
	.st157{fill:#47413B;}
	.st158{fill:#601A1F;}
	.st159{fill:#044554;}
	.st160{opacity:0.7;}
	.st161{fill:#7F7F7F;}
	.st162{fill:#6B8A69;}
	.st163{opacity:0.24;fill:#848D90;}
	.st164{opacity:0.4;fill:#848D90;}
	.st165{fill:#F2D5D5;}
	.st166{fill:#485CC1;}
	.st167{fill:#C6CBE0;}
	.st168{fill:#8B909E;}
	.st169{fill:#53BC1B;}
	.st170{fill:#11565B;}
	.st171{fill:#67A06D;}
	.st172{fill:#FFEC00;}
	.st173{fill:#77A007;}
	.st174{fill:#E50731;}
	.st175{fill:#266472;}
	.st176{fill:#D4D4D4;}
	.st177{fill:#0E9932;}
	.st178{fill:#87DD24;}
	.st179{fill:#76A172;}
	.st180{fill:#62835F;}
	.st181{fill:#96D090;}
	.st182{fill:#D6D6D6;}
	.st183{fill:#606060;}
	.st184{fill:#494949;}
	.st185{fill:#29E55A;}
	.st186{fill:#2C703D;}
	.st187{fill:#DD0744;}
	.st188{fill:#EDEDED;}
	.st189{fill:#2A5936;}
	.st190{fill:#B9BBC1;}
	.st191{fill:#FFD79E;}
	.st192{fill:#FFE6C2;}
	.st193{fill:#2CBB55;}
	.st194{fill:#5C412D;}
	.st195{fill:#EC0000;}
	.st196{fill:#DD2626;}
	.st197{fill:#EA9334;}
	.st198{fill:#FCC232;}
	.st199{fill:#F9B234;}
	.st200{fill:#F7A037;}
	.st201{fill:#E0E0E0;}
</style>
<g>
	<g>
		<path class="st0" d="M9.5,209.36c0,22,13.29,27.86,29.54,13.03c0,0,156.99-143.3,353.09,26.97V55c0-22-18-40-40-40H49.5
			c-22,0-40,18-40,40V209.36z"/>
	</g>
	<g>
		<path class="st0" d="M391.66,647c0,22-18,40-40,40H49.98c-22,0-40-18-40-40v-46.27c0-22,18-40,40-40h301.68c22,0,40,18,40,40V647z
			"/>
	</g>
	<g>
		<path d="M100.94,405.07c-0.57-0.59-0.85-1.49-0.85-2.71V366.7c0-1.22,0.28-2.12,0.85-2.71c0.57-0.59,1.54-0.88,2.93-0.88h15.06
			c6.3,0,10.89,1.25,13.77,3.75c2.88,2.5,4.31,6.27,4.31,11.31s-1.44,8.8-4.31,11.28c-2.88,2.48-7.45,3.72-13.7,3.72h-3.78v9.2
			c0,1.22-0.28,2.12-0.85,2.71c-0.57,0.59-1.56,0.88-2.99,0.88h-7.5C102.48,405.95,101.51,405.66,100.94,405.07z M117.6,382.45
			c1.34,0,2.4-0.36,3.18-1.07c0.78-0.71,1.17-1.79,1.17-3.21c0-1.47-0.39-2.56-1.17-3.28c-0.78-0.71-1.84-1.07-3.18-1.07h-4.28v8.63
			H117.6z"/>
		<path d="M131.34,404.63c0-0.38,0.11-0.84,0.32-1.39l15.69-37.74c0.38-0.88,0.81-1.5,1.29-1.86c0.48-0.36,1.17-0.54,2.05-0.54h6.87
			c0.88,0,1.56,0.18,2.05,0.54c0.48,0.36,0.91,0.98,1.29,1.86l15.62,37.74c0.21,0.55,0.31,1.01,0.31,1.39
			c0,0.88-0.46,1.32-1.39,1.32h-11.84c-1.3,0-2.12-0.57-2.46-1.7l-1.51-4.66h-11.15l-1.45,4.66c-0.34,1.13-1.16,1.7-2.46,1.7h-11.84
			C131.8,405.95,131.34,405.51,131.34,404.63z M156.54,389.63l-2.46-7.81l-2.46,7.81H156.54z"/>
		<path d="M185.08,401.26c-4.24-3.76-6.36-9.33-6.36-16.73c0-7.35,2.12-12.92,6.36-16.7c4.24-3.78,10.16-5.67,17.77-5.67
			c3.44,0,6.53,0.34,9.26,1.01c2.73,0.67,5,1.62,6.8,2.83c0.5,0.38,0.76,0.8,0.76,1.26c0,0.38-0.19,0.9-0.57,1.58l-3.15,5.42
			c-0.34,0.59-0.73,0.88-1.2,0.88c-0.29,0-0.78-0.17-1.45-0.5c-2.52-1.26-5.29-1.89-8.32-1.89c-3.49,0-6.23,1-8.22,2.99
			c-2,1.99-2.99,4.92-2.99,8.79c0,3.99,0.84,6.94,2.52,8.85s4.18,2.87,7.5,2.87c0.59,0,1.25-0.05,1.98-0.16
			c0.73-0.1,1.33-0.22,1.79-0.35v-5.73h-4.03c-1.35,0-2.26-0.26-2.74-0.79c-0.48-0.52-0.72-1.42-0.72-2.68v-3.46
			c0-1.26,0.24-2.15,0.72-2.68c0.48-0.53,1.4-0.79,2.74-0.79h13.54c1.64,0,2.77,0.37,3.4,1.1c0.63,0.74,0.95,1.9,0.95,3.5v14.74
			c0,0.92-0.12,1.63-0.35,2.11c-0.23,0.48-0.68,0.98-1.35,1.48c-4.03,2.9-9.64,4.35-16.82,4.35
			C195.26,406.9,189.32,405.02,185.08,401.26z"/>
		<path d="M229.11,401.07c-3.86-3.88-5.8-9.4-5.8-16.54c0-7.14,1.93-12.65,5.8-16.54c3.86-3.88,9.53-5.83,17.01-5.83
			s13.15,1.94,17.01,5.83c3.86,3.89,5.79,9.4,5.79,16.54c0,7.14-1.93,12.65-5.79,16.54c-3.87,3.89-9.54,5.83-17.01,5.83
			S232.98,404.96,229.11,401.07z M252.04,393.38c1.22-1.95,1.83-4.9,1.83-8.85c0-3.99-0.61-6.95-1.83-8.88
			c-1.22-1.93-3.19-2.9-5.92-2.9c-2.73,0-4.7,0.97-5.92,2.9c-1.22,1.93-1.83,4.89-1.83,8.88c0,3.95,0.61,6.9,1.83,8.85
			c1.22,1.95,3.19,2.93,5.92,2.93C248.85,396.31,250.83,395.34,252.04,393.38z"/>
		<path d="M277.24,405.7c-3.28-0.8-5.92-1.91-7.94-3.34c-0.84-0.59-1.26-1.16-1.26-1.7c0-0.38,0.15-0.78,0.44-1.2l3.65-5.73
			c0.38-0.55,0.76-0.82,1.13-0.82c0.34,0,0.73,0.15,1.2,0.44c1.51,0.92,3.24,1.65,5.2,2.17c1.95,0.53,3.85,0.79,5.7,0.79
			c1.55,0,2.68-0.21,3.37-0.63c0.69-0.42,1.04-1.07,1.04-1.95c0-0.97-0.46-1.74-1.39-2.33c-0.92-0.59-2.52-1.32-4.79-2.21
			c-4.24-1.64-7.58-3.5-10.02-5.58c-2.44-2.08-3.65-4.84-3.65-8.29c0-4.37,1.52-7.65,4.57-9.86c3.04-2.21,7.15-3.31,12.32-3.31
			c3.61,0,6.69,0.32,9.23,0.95c2.54,0.63,4.76,1.62,6.65,2.96c0.84,0.59,1.26,1.16,1.26,1.7c0,0.38-0.15,0.78-0.44,1.2l-3.65,5.73
			c-0.38,0.59-0.76,0.88-1.13,0.88c-0.25,0-0.65-0.17-1.2-0.5c-1.01-0.67-2.21-1.23-3.59-1.67c-1.39-0.44-2.88-0.66-4.47-0.66
			c-1.47,0-2.58,0.21-3.34,0.63c-0.76,0.42-1.13,1.09-1.13,2.02c0,0.76,0.26,1.39,0.79,1.89c0.52,0.5,1.19,0.94,1.98,1.29
			c0.8,0.36,2.18,0.94,4.16,1.73c3.15,1.26,5.63,2.47,7.43,3.62c1.8,1.16,3.17,2.54,4.09,4.16c0.92,1.62,1.39,3.67,1.39,6.14
			c0,3.78-1.42,6.83-4.25,9.17c-2.84,2.33-7.07,3.5-12.7,3.5C284.07,406.9,280.52,406.5,277.24,405.7z"/>
		<path d="M64.02,480.67c-0.57-0.59-0.85-1.49-0.85-2.71V442.3c0-1.22,0.28-2.12,0.85-2.71c0.57-0.59,1.54-0.88,2.93-0.88h26.08
			c1.34,0,2.26,0.28,2.74,0.85c0.48,0.57,0.72,1.48,0.72,2.74v3.53c0,1.26-0.24,2.17-0.72,2.74s-1.4,0.85-2.74,0.85H78.29v5.42h9.07
			c1.34,0,2.26,0.28,2.74,0.85c0.48,0.57,0.72,1.48,0.72,2.74v3.4c0,1.26-0.24,2.17-0.72,2.74s-1.4,0.85-2.74,0.85h-9.07v5.42h14.68
			c1.34,0,2.26,0.28,2.74,0.85c0.48,0.57,0.72,1.48,0.72,2.74v3.53c0,1.26-0.24,2.17-0.72,2.74c-0.48,0.57-1.4,0.85-2.74,0.85H66.95
			C65.57,481.55,64.59,481.26,64.02,480.67z"/>
		<path d="M100.18,480.67c-0.57-0.59-0.85-1.49-0.85-2.71v-35.72c0-1.22,0.28-2.11,0.85-2.68c0.57-0.57,1.56-0.85,2.99-0.85h5.98
			c0.88,0,1.56,0.12,2.05,0.35c0.48,0.23,0.95,0.68,1.42,1.35l11.4,16.95V442.3c0-1.22,0.28-2.12,0.85-2.71
			c0.57-0.59,1.54-0.88,2.93-0.88h7.5c1.43,0,2.42,0.28,2.99,0.85c0.57,0.57,0.85,1.48,0.85,2.74v35.72c0,1.22-0.28,2.11-0.85,2.68
			s-1.57,0.85-2.99,0.85h-5.99c-0.88,0-1.56-0.12-2.05-0.35c-0.48-0.23-0.96-0.68-1.42-1.35l-11.4-16.95v15.12
			c0,1.22-0.28,2.11-0.85,2.68c-0.57,0.57-1.56,0.85-2.99,0.85h-7.5C101.73,481.55,100.75,481.26,100.18,480.67z"/>
		<path d="M163.31,480.67c-0.57-0.59-0.85-1.49-0.85-2.71V442.3c0-1.22,0.28-2.12,0.85-2.71c0.57-0.59,1.54-0.88,2.93-0.88h7.5
			c1.43,0,2.43,0.28,2.99,0.85c0.57,0.57,0.85,1.48,0.85,2.74v28.54h14.68c1.34,0,2.26,0.28,2.74,0.85
			c0.48,0.57,0.72,1.48,0.72,2.74v3.53c0,1.26-0.24,2.17-0.72,2.74c-0.48,0.57-1.4,0.85-2.74,0.85h-26.02
			C164.85,481.55,163.88,481.26,163.31,480.67z"/>
		<path d="M198.46,480.67c-0.57-0.59-0.85-1.49-0.85-2.71V442.3c0-1.22,0.28-2.12,0.85-2.71c0.57-0.59,1.54-0.88,2.93-0.88h7.5
			c1.43,0,2.43,0.28,2.99,0.85c0.57,0.57,0.85,1.48,0.85,2.74v35.66c0,1.22-0.28,2.12-0.85,2.71c-0.57,0.59-1.56,0.88-2.99,0.88
			h-7.5C200.01,481.55,199.03,481.26,198.46,480.67z"/>
		<path d="M217.99,480.67c-0.57-0.59-0.85-1.49-0.85-2.71v-35.72c0-1.22,0.28-2.11,0.85-2.68c0.57-0.57,1.56-0.85,2.99-0.85h5.99
			c0.88,0,1.56,0.12,2.05,0.35c0.48,0.23,0.95,0.68,1.42,1.35l11.4,16.95V442.3c0-1.22,0.28-2.12,0.85-2.71
			c0.57-0.59,1.54-0.88,2.93-0.88h7.5c1.43,0,2.42,0.28,2.99,0.85c0.57,0.57,0.85,1.48,0.85,2.74v35.72c0,1.22-0.28,2.11-0.85,2.68
			c-0.57,0.57-1.57,0.85-2.99,0.85h-5.99c-0.88,0-1.56-0.12-2.05-0.35c-0.48-0.23-0.96-0.68-1.42-1.35l-11.4-16.95v15.12
			c0,1.22-0.28,2.11-0.85,2.68s-1.57,0.85-2.99,0.85h-7.5C219.54,481.55,218.56,481.26,217.99,480.67z"/>
		<path d="M262.22,480.67c-0.57-0.59-0.85-1.49-0.85-2.71V442.3c0-1.22,0.28-2.12,0.85-2.71c0.57-0.59,1.54-0.88,2.93-0.88h26.08
			c1.34,0,2.26,0.28,2.74,0.85c0.48,0.57,0.72,1.48,0.72,2.74v3.53c0,1.26-0.24,2.17-0.72,2.74c-0.48,0.57-1.4,0.85-2.74,0.85
			h-14.74v5.42h9.07c1.34,0,2.26,0.28,2.74,0.85c0.48,0.57,0.72,1.48,0.72,2.74v3.4c0,1.26-0.24,2.17-0.72,2.74
			c-0.48,0.57-1.4,0.85-2.74,0.85h-9.07v5.42h14.68c1.34,0,2.26,0.28,2.74,0.85c0.48,0.57,0.72,1.48,0.72,2.74v3.53
			c0,1.26-0.24,2.17-0.72,2.74s-1.4,0.85-2.74,0.85h-26.02C263.76,481.55,262.79,481.26,262.22,480.67z"/>
		<path d="M296.27,480.23c0-0.38,0.1-0.84,0.32-1.39l15.69-37.74c0.38-0.88,0.81-1.5,1.29-1.86c0.48-0.36,1.17-0.54,2.05-0.54h6.87
			c0.88,0,1.56,0.18,2.05,0.54c0.48,0.36,0.91,0.98,1.29,1.86l15.62,37.74c0.21,0.55,0.32,1.01,0.32,1.39
			c0,0.88-0.46,1.32-1.39,1.32h-11.84c-1.3,0-2.12-0.57-2.46-1.7l-1.51-4.66H313.4l-1.45,4.66c-0.34,1.13-1.15,1.7-2.46,1.7h-11.84
			C296.73,481.55,296.27,481.11,296.27,480.23z M321.47,465.23l-2.46-7.81l-2.46,7.81H321.47z"/>
	</g>
	<polygon class="st1" points="200.76,96.93 214.23,124.22 244.34,128.59 222.55,149.83 227.7,179.83 200.76,165.67 173.83,179.83 
		178.97,149.83 157.18,128.59 187.29,124.22 	"/>
	<polygon class="st1" points="138.58,180.15 147.32,197.86 166.86,200.7 152.72,214.48 156.06,233.94 138.58,224.75 121.11,233.94 
		124.45,214.48 110.31,200.7 129.85,197.86 	"/>
	<polygon class="st1" points="268.68,180.15 277.42,197.86 296.95,200.7 282.82,214.48 286.15,233.94 268.68,224.75 251.2,233.94 
		254.54,214.48 240.4,200.7 259.94,197.86 	"/>
	<circle class="st2" cx="201.77" cy="213.97" r="121.96"/>
	<circle class="st3" cx="200.82" cy="200.58" r="121.96"/>
	<g>
		<path class="st3" d="M195.05,643.3c-0.63-0.56-0.95-1.54-0.95-2.96v-5.69h-17.59c-1.75,0-2.63-0.85-2.63-2.55v-6.72
			c0-1.12,0.1-1.95,0.29-2.48c0.19-0.54,0.66-1.24,1.39-2.12l19.86-23.94c0.83-0.97,1.51-1.61,2.04-1.9
			c0.54-0.29,1.46-0.44,2.77-0.44h7.01c1.61,0,2.74,0.34,3.39,1.02c0.66,0.68,0.99,1.73,0.99,3.14v23.58h2.77
			c1.56,0,2.62,0.33,3.18,0.99c0.56,0.66,0.84,1.71,0.84,3.17v4.09c0,1.46-0.28,2.52-0.84,3.18c-0.56,0.66-1.62,0.99-3.18,0.99
			h-2.77v5.69c0,1.41-0.33,2.4-0.99,2.96c-0.66,0.56-1.81,0.84-3.47,0.84h-8.69C196.82,644.14,195.68,643.86,195.05,643.3z
			 M197.97,622.24v-9.56l-7.01,9.56H197.97z"/>
	</g>
	<path class="st129" d="M196.38,271.61H146c-6.6,0-12-5.4-12-12V142c0-6.6,5.4-12,12-12h50.38c6.6,0,12,5.4,12,12v117.61
		C208.38,266.21,202.98,271.61,196.38,271.61z"/>
	<rect x="134" y="143.98" class="st57" width="74.38" height="114.02"/>
	<rect x="161.97" y="134.41" class="st3" width="16.45" height="4.41"/>
	<g>
		<path class="st130" d="M267,241.25h-90.38c-6.6,0-12-5.4-12-12v-51.63c0-6.6,5.4-12,12-12H267c6.6,0,12,5.4,12,12v51.63
			C279,235.85,273.6,241.25,267,241.25z"/>
		<circle class="st131" cx="184.94" cy="202.81" r="12.19"/>
		<g>
			<path d="M172.36,232.79c-0.09-0.11-0.14-0.28-0.14-0.52v-0.67c0-0.24,0.05-0.41,0.14-0.52s0.26-0.16,0.52-0.16h0.75v-3.1
				l-0.49,0.31c-0.04,0.03-0.09,0.05-0.14,0.05c-0.07,0-0.13-0.04-0.18-0.11l-0.9-1.38c-0.03-0.04-0.05-0.08-0.05-0.13
				c0-0.08,0.04-0.14,0.13-0.19l2.25-1.35c0.09-0.05,0.19-0.09,0.27-0.12c0.09-0.02,0.21-0.04,0.38-0.04h0.87
				c0.26,0,0.45,0.06,0.55,0.17c0.11,0.11,0.16,0.28,0.16,0.51v5.38h0.76c0.25,0,0.43,0.05,0.52,0.16s0.14,0.28,0.14,0.52v0.67
				c0,0.24-0.05,0.41-0.14,0.52c-0.09,0.11-0.26,0.16-0.52,0.16h-4.36C172.63,232.95,172.45,232.89,172.36,232.79z"/>
			<path d="M178.07,232.33v-0.7c0-0.47,0.16-0.91,0.48-1.32c0.32-0.41,0.87-0.89,1.66-1.45c0.28-0.19,0.45-0.3,0.51-0.34
				c0.29-0.19,0.48-0.33,0.59-0.43c0.11-0.1,0.19-0.2,0.25-0.31c0.06-0.11,0.08-0.25,0.08-0.43c0-0.2-0.07-0.36-0.22-0.48
				c-0.15-0.12-0.37-0.18-0.67-0.18c-0.51,0-1.02,0.13-1.54,0.39c-0.13,0.06-0.22,0.09-0.27,0.09c-0.09,0-0.16-0.05-0.23-0.17
				l-0.59-1.02c-0.07-0.13-0.11-0.23-0.11-0.3c0-0.09,0.05-0.17,0.14-0.24c0.34-0.23,0.78-0.41,1.32-0.55s1.13-0.21,1.77-0.21
				c1,0,1.79,0.21,2.37,0.62c0.58,0.42,0.87,1,0.87,1.76c0,0.59-0.16,1.08-0.49,1.49c-0.32,0.41-0.85,0.85-1.59,1.32
				c-0.78,0.51-1.25,0.85-1.41,1.02h2.9c0.25,0,0.42,0.05,0.52,0.16c0.09,0.11,0.14,0.28,0.14,0.52v0.68c0,0.24-0.04,0.41-0.14,0.52
				c-0.09,0.11-0.26,0.16-0.52,0.16h-5.23C178.27,232.95,178.07,232.74,178.07,232.33z"/>
			<path d="M186.37,232.93c-0.56-0.13-1-0.3-1.34-0.53c-0.09-0.07-0.14-0.15-0.14-0.24c0-0.07,0.04-0.17,0.11-0.3l0.59-1.02
				c0.06-0.11,0.14-0.17,0.23-0.17c0.06,0,0.15,0.03,0.27,0.1c0.21,0.1,0.46,0.19,0.75,0.25s0.59,0.1,0.88,0.1
				c0.4,0,0.69-0.06,0.88-0.18c0.19-0.12,0.29-0.3,0.29-0.55c0-0.38-0.26-0.57-0.77-0.57h-0.91c-0.26,0-0.45-0.06-0.55-0.17
				c-0.11-0.11-0.16-0.28-0.16-0.51v-0.64c0-0.23,0.05-0.4,0.16-0.51c0.11-0.11,0.29-0.17,0.55-0.17h0.72
				c0.26,0,0.45-0.05,0.57-0.14c0.12-0.09,0.18-0.24,0.18-0.44c0-0.38-0.33-0.57-0.99-0.57c-0.53,0-1.03,0.12-1.51,0.36
				c-0.13,0.06-0.22,0.1-0.27,0.1c-0.09,0-0.16-0.06-0.23-0.17l-0.59-1.02c-0.07-0.13-0.11-0.23-0.11-0.3
				c0-0.09,0.05-0.17,0.14-0.24c0.34-0.23,0.76-0.41,1.27-0.54c0.51-0.13,1.08-0.19,1.73-0.19c0.69,0,1.29,0.1,1.8,0.3
				c0.51,0.2,0.9,0.49,1.18,0.86c0.27,0.37,0.41,0.81,0.41,1.32c0,0.7-0.24,1.24-0.72,1.62c0.63,0.36,0.94,0.94,0.94,1.73
				c0,0.8-0.3,1.43-0.92,1.9c-0.61,0.47-1.49,0.7-2.64,0.7C187.54,233.12,186.93,233.06,186.37,232.93z"/>
			<path d="M195.31,232.81c-0.1-0.09-0.15-0.25-0.15-0.48v-0.93h-2.86c-0.29,0-0.43-0.14-0.43-0.42v-1.09c0-0.18,0.02-0.32,0.05-0.4
				c0.03-0.09,0.11-0.2,0.23-0.34l3.23-3.9c0.13-0.16,0.25-0.26,0.33-0.31c0.09-0.05,0.24-0.07,0.45-0.07h1.14
				c0.26,0,0.45,0.06,0.55,0.17c0.11,0.11,0.16,0.28,0.16,0.51v3.84h0.45c0.25,0,0.43,0.05,0.52,0.16c0.09,0.11,0.14,0.28,0.14,0.52
				v0.67c0,0.24-0.05,0.41-0.14,0.52s-0.26,0.16-0.52,0.16H198v0.93c0,0.23-0.05,0.39-0.16,0.48c-0.11,0.09-0.29,0.14-0.56,0.14
				h-1.41C195.6,232.95,195.41,232.9,195.31,232.81z M195.78,229.38v-1.56l-1.14,1.56H195.78z"/>
			<path d="M204.37,232.9c-0.58-0.15-1.06-0.36-1.44-0.63c-0.09-0.07-0.14-0.15-0.14-0.24c0-0.07,0.04-0.17,0.11-0.3l0.59-1.02
				c0.07-0.12,0.15-0.18,0.23-0.18c0.04,0,0.13,0.04,0.27,0.11c0.58,0.32,1.25,0.49,2.02,0.49c0.39,0,0.69-0.08,0.91-0.25
				s0.33-0.41,0.33-0.74c0-0.63-0.34-0.95-1.02-0.95c-0.21,0-0.43,0.02-0.66,0.05c-0.23,0.04-0.41,0.08-0.56,0.14
				c-0.23,0.08-0.47,0.12-0.74,0.12c-0.36,0-0.66-0.09-0.88-0.26c-0.23-0.17-0.33-0.44-0.3-0.78l0.19-2.99
				c0.02-0.21,0.07-0.36,0.17-0.45s0.27-0.14,0.51-0.14h5.07c0.25,0,0.43,0.05,0.52,0.16c0.09,0.11,0.14,0.28,0.14,0.52v0.68
				c0,0.24-0.05,0.41-0.14,0.52c-0.09,0.11-0.26,0.16-0.52,0.16h-3.47l-0.04,0.57c0.13-0.03,0.31-0.06,0.56-0.08
				c0.25-0.02,0.45-0.03,0.6-0.03c1.08,0,1.92,0.21,2.52,0.63c0.59,0.42,0.89,1.14,0.89,2.14c0,0.62-0.17,1.15-0.5,1.6
				c-0.34,0.45-0.8,0.79-1.39,1.03s-1.26,0.35-2,0.35C205.56,233.12,204.95,233.05,204.37,232.9z"/>
			<path d="M211.45,232.19c-0.67-0.62-1-1.58-1-2.88c0-1,0.19-1.84,0.56-2.54s0.87-1.22,1.47-1.56c0.61-0.34,1.25-0.52,1.94-0.52
				c0.58,0,1.08,0.06,1.51,0.18c0.43,0.12,0.82,0.3,1.17,0.54c0.09,0.07,0.14,0.15,0.14,0.24c0,0.07-0.04,0.17-0.11,0.3l-0.57,0.99
				c-0.06,0.11-0.14,0.17-0.23,0.17c-0.06,0-0.15-0.03-0.27-0.09c-0.4-0.21-0.85-0.32-1.35-0.32c-0.4,0-0.73,0.09-0.99,0.26
				c-0.27,0.17-0.5,0.43-0.7,0.77c0.23-0.12,0.51-0.22,0.84-0.3c0.33-0.08,0.65-0.12,0.95-0.12c0.66,0,1.21,0.12,1.65,0.34
				s0.77,0.54,0.98,0.92s0.32,0.81,0.32,1.28c0,1.08-0.32,1.9-0.97,2.45c-0.65,0.55-1.56,0.83-2.74,0.83
				C213,233.12,212.12,232.81,211.45,232.19z M214.74,230.86c0.13-0.18,0.2-0.47,0.2-0.87c0-0.4-0.07-0.68-0.2-0.87
				c-0.13-0.18-0.35-0.27-0.66-0.27c-0.28,0-0.48,0.09-0.6,0.27c-0.12,0.18-0.18,0.47-0.18,0.87c0,0.4,0.06,0.68,0.18,0.87
				c0.12,0.18,0.32,0.27,0.6,0.27C214.39,231.13,214.61,231.04,214.74,230.86z"/>
			<path d="M219.71,232.9c-0.58-0.15-1.06-0.36-1.44-0.63c-0.09-0.07-0.14-0.15-0.14-0.24c0-0.07,0.04-0.17,0.11-0.3l0.59-1.02
				c0.07-0.12,0.15-0.18,0.23-0.18c0.04,0,0.13,0.04,0.27,0.11c0.58,0.32,1.25,0.49,2.02,0.49c0.39,0,0.69-0.08,0.91-0.25
				s0.33-0.41,0.33-0.74c0-0.63-0.34-0.95-1.02-0.95c-0.21,0-0.43,0.02-0.66,0.05c-0.23,0.04-0.41,0.08-0.56,0.14
				c-0.23,0.08-0.47,0.12-0.74,0.12c-0.36,0-0.66-0.09-0.88-0.26c-0.23-0.17-0.33-0.44-0.3-0.78l0.19-2.99
				c0.02-0.21,0.07-0.36,0.17-0.45s0.27-0.14,0.51-0.14h5.07c0.25,0,0.43,0.05,0.52,0.16c0.09,0.11,0.14,0.28,0.14,0.52v0.68
				c0,0.24-0.05,0.41-0.14,0.52c-0.09,0.11-0.26,0.16-0.52,0.16h-3.47l-0.04,0.57c0.13-0.03,0.31-0.06,0.56-0.08
				c0.25-0.02,0.45-0.03,0.6-0.03c1.08,0,1.92,0.21,2.52,0.63c0.59,0.42,0.89,1.14,0.89,2.14c0,0.62-0.17,1.15-0.5,1.6
				c-0.34,0.45-0.8,0.79-1.39,1.03s-1.26,0.35-2,0.35C220.9,233.12,220.29,233.05,219.71,232.9z"/>
			<path d="M226.8,232.19c-0.67-0.62-1-1.58-1-2.88c0-1,0.19-1.84,0.56-2.54s0.87-1.22,1.47-1.56c0.61-0.34,1.25-0.52,1.94-0.52
				c0.58,0,1.08,0.06,1.51,0.18c0.43,0.12,0.82,0.3,1.17,0.54c0.09,0.07,0.14,0.15,0.14,0.24c0,0.07-0.04,0.17-0.11,0.3l-0.57,0.99
				c-0.06,0.11-0.14,0.17-0.23,0.17c-0.06,0-0.15-0.03-0.27-0.09c-0.4-0.21-0.85-0.32-1.35-0.32c-0.4,0-0.73,0.09-0.99,0.26
				c-0.27,0.17-0.5,0.43-0.7,0.77c0.23-0.12,0.51-0.22,0.84-0.3c0.33-0.08,0.65-0.12,0.95-0.12c0.66,0,1.21,0.12,1.65,0.34
				s0.77,0.54,0.98,0.92s0.32,0.81,0.32,1.28c0,1.08-0.32,1.9-0.97,2.45c-0.65,0.55-1.56,0.83-2.74,0.83
				C228.34,233.12,227.46,232.81,226.8,232.19z M230.08,230.86c0.13-0.18,0.2-0.47,0.2-0.87c0-0.4-0.07-0.68-0.2-0.87
				c-0.13-0.18-0.35-0.27-0.66-0.27c-0.28,0-0.48,0.09-0.6,0.27c-0.12,0.18-0.18,0.47-0.18,0.87c0,0.4,0.06,0.68,0.18,0.87
				c0.12,0.18,0.32,0.27,0.6,0.27C229.74,231.13,229.95,231.04,230.08,230.86z"/>
			<path d="M235.05,232.9c-0.58-0.15-1.06-0.36-1.44-0.63c-0.09-0.07-0.14-0.15-0.14-0.24c0-0.07,0.04-0.17,0.11-0.3l0.59-1.02
				c0.07-0.12,0.15-0.18,0.23-0.18c0.04,0,0.13,0.04,0.27,0.11c0.58,0.32,1.25,0.49,2.02,0.49c0.39,0,0.69-0.08,0.91-0.25
				s0.33-0.41,0.33-0.74c0-0.63-0.34-0.95-1.02-0.95c-0.21,0-0.43,0.02-0.66,0.05c-0.23,0.04-0.41,0.08-0.56,0.14
				c-0.23,0.08-0.47,0.12-0.74,0.12c-0.36,0-0.66-0.09-0.88-0.26c-0.23-0.17-0.33-0.44-0.3-0.78l0.19-2.99
				c0.02-0.21,0.07-0.36,0.17-0.45s0.27-0.14,0.51-0.14h5.07c0.25,0,0.43,0.05,0.52,0.16c0.09,0.11,0.14,0.28,0.14,0.52v0.68
				c0,0.24-0.05,0.41-0.14,0.52c-0.09,0.11-0.26,0.16-0.52,0.16h-3.47l-0.04,0.57c0.13-0.03,0.31-0.06,0.56-0.08
				c0.25-0.02,0.45-0.03,0.6-0.03c1.08,0,1.92,0.21,2.52,0.63c0.59,0.42,0.89,1.14,0.89,2.14c0,0.62-0.17,1.15-0.5,1.6
				c-0.34,0.45-0.8,0.79-1.39,1.03s-1.26,0.35-2,0.35C236.24,233.12,235.63,233.05,235.05,232.9z"/>
			<path d="M245.7,232.19c-0.67-0.62-1-1.58-1-2.88c0-1,0.19-1.84,0.56-2.54s0.87-1.22,1.47-1.56c0.61-0.34,1.25-0.52,1.94-0.52
				c0.58,0,1.08,0.06,1.51,0.18c0.43,0.12,0.82,0.3,1.17,0.54c0.09,0.07,0.14,0.15,0.14,0.24c0,0.07-0.04,0.17-0.11,0.3l-0.57,0.99
				c-0.06,0.11-0.14,0.17-0.23,0.17c-0.06,0-0.15-0.03-0.27-0.09c-0.4-0.21-0.85-0.32-1.35-0.32c-0.4,0-0.73,0.09-0.99,0.26
				c-0.27,0.17-0.5,0.43-0.7,0.77c0.23-0.12,0.51-0.22,0.84-0.3c0.33-0.08,0.65-0.12,0.95-0.12c0.66,0,1.21,0.12,1.65,0.34
				s0.77,0.54,0.98,0.92s0.32,0.81,0.32,1.28c0,1.08-0.32,1.9-0.97,2.45c-0.65,0.55-1.56,0.83-2.74,0.83
				C247.24,233.12,246.37,232.81,245.7,232.19z M248.99,230.86c0.13-0.18,0.2-0.47,0.2-0.87c0-0.4-0.07-0.68-0.2-0.87
				c-0.13-0.18-0.35-0.27-0.66-0.27c-0.28,0-0.48,0.09-0.6,0.27c-0.12,0.18-0.18,0.47-0.18,0.87c0,0.4,0.06,0.68,0.18,0.87
				c0.12,0.18,0.32,0.27,0.6,0.27C248.64,231.13,248.86,231.04,248.99,230.86z"/>
			<path d="M253.96,232.9c-0.58-0.15-1.06-0.36-1.44-0.63c-0.09-0.07-0.14-0.15-0.14-0.24c0-0.07,0.04-0.17,0.11-0.3l0.59-1.02
				c0.07-0.12,0.15-0.18,0.23-0.18c0.04,0,0.13,0.04,0.27,0.11c0.58,0.32,1.25,0.49,2.02,0.49c0.39,0,0.69-0.08,0.91-0.25
				s0.33-0.41,0.33-0.74c0-0.63-0.34-0.95-1.02-0.95c-0.21,0-0.43,0.02-0.66,0.05c-0.23,0.04-0.41,0.08-0.56,0.14
				c-0.23,0.08-0.47,0.12-0.74,0.12c-0.36,0-0.66-0.09-0.88-0.26c-0.23-0.17-0.33-0.44-0.3-0.78l0.19-2.99
				c0.02-0.21,0.07-0.36,0.17-0.45s0.27-0.14,0.51-0.14h5.07c0.25,0,0.43,0.05,0.52,0.16c0.09,0.11,0.14,0.28,0.14,0.52v0.68
				c0,0.24-0.05,0.41-0.14,0.52c-0.09,0.11-0.26,0.16-0.52,0.16h-3.47l-0.04,0.57c0.13-0.03,0.31-0.06,0.56-0.08
				c0.25-0.02,0.45-0.03,0.6-0.03c1.08,0,1.92,0.21,2.52,0.63c0.59,0.42,0.89,1.14,0.89,2.14c0,0.62-0.17,1.15-0.5,1.6
				c-0.34,0.45-0.8,0.79-1.39,1.03s-1.26,0.35-2,0.35C255.15,233.12,254.54,233.05,253.96,232.9z"/>
			<path d="M261.04,232.19c-0.67-0.62-1-1.58-1-2.88c0-1,0.19-1.84,0.56-2.54s0.87-1.22,1.47-1.56c0.61-0.34,1.25-0.52,1.94-0.52
				c0.58,0,1.08,0.06,1.51,0.18c0.43,0.12,0.82,0.3,1.17,0.54c0.09,0.07,0.14,0.15,0.14,0.24c0,0.07-0.04,0.17-0.11,0.3l-0.57,0.99
				c-0.06,0.11-0.14,0.17-0.23,0.17c-0.06,0-0.15-0.03-0.27-0.09c-0.4-0.21-0.85-0.32-1.35-0.32c-0.4,0-0.73,0.09-0.99,0.26
				c-0.27,0.17-0.5,0.43-0.7,0.77c0.23-0.12,0.51-0.22,0.84-0.3c0.33-0.08,0.65-0.12,0.95-0.12c0.66,0,1.21,0.12,1.65,0.34
				s0.77,0.54,0.98,0.92s0.32,0.81,0.32,1.28c0,1.08-0.32,1.9-0.97,2.45c-0.65,0.55-1.56,0.83-2.74,0.83
				C262.58,233.12,261.71,232.81,261.04,232.19z M264.33,230.86c0.13-0.18,0.2-0.47,0.2-0.87c0-0.4-0.07-0.68-0.2-0.87
				c-0.13-0.18-0.35-0.27-0.66-0.27c-0.28,0-0.48,0.09-0.6,0.27c-0.12,0.18-0.18,0.47-0.18,0.87c0,0.4,0.06,0.68,0.18,0.87
				c0.12,0.18,0.32,0.27,0.6,0.27C263.98,231.13,264.2,231.04,264.33,230.86z"/>
		</g>
		<rect x="164.63" y="173.13" width="114.38" height="10.63"/>
	</g>
</g>
</svg>
