<?xml version="1.0" encoding="utf-8"?>
<!-- Generator: Adobe Illustrator 23.0.0, SVG Export Plug-In . SVG Version: 6.00 Build 0)  -->
<svg version="1.1" id="Capa_1" xmlns="http://www.w3.org/2000/svg" xmlns:xlink="http://www.w3.org/1999/xlink" x="0px" y="0px"
	 viewBox="0 0 500 500" style="enable-background:new 0 0 500 500;" xml:space="preserve">
<style type="text/css">
	.st0{fill:#0C2D44;}
	.st1{fill:#2C83AF;}
	.st2{fill:#FFFFFF;}
	.st3{fill:#00791D;}
	.st4{fill:#00D13C;}
	.st5{fill:#F2F2F2;}
	.st6{fill:#727272;}
	.st7{fill:#A3A3A3;}
	.st8{fill:#BCBCBC;}
	.st9{fill:none;}
	.st10{fill:#866A5E;}
	.st11{fill:#F7DDCB;}
	.st12{fill:#FFE6D4;}
	.st13{fill:#2D2D2D;}
	.st14{fill:#1C1B1A;}
	.st15{fill:#F5F5F5;}
	.st16{fill:#77181C;}
	.st17{fill:#EAEAEA;}
	.st18{fill:#262525;}
	.st19{fill:#11100F;}
	.st20{fill:#CCCDCE;}
	.st21{fill:#DFDFDF;}
	.st22{fill:#C2C2C2;}
	.st23{fill:#0085B0;}
	.st24{fill:#2A5936;}
	.st25{fill:#CD7054;}
	.st26{fill:#F1CC4B;}
	.st27{fill:#22272F;}
	.st28{fill:#1B2538;}
	.st29{fill:#253452;}
	.st30{fill:#F9F9F9;}
	.st31{fill:#2D3543;}
	.st32{fill:#2A3D60;}
	.st33{fill:#ACACAC;}
	.st34{fill:#6C92D5;}
	.st35{fill:#587955;}
	.st36{fill:#DAA449;}
	.st37{fill:#D4D4D4;}
	.st38{fill:#85B681;}
	.st39{fill:#A1DC9B;}
	.st40{fill:#90C58B;}
	.st41{fill:#81C378;}
	.st42{opacity:0.5;}
	.st43{fill:#A2CADE;}
	.st44{fill:#9BAEC9;}
	.st45{fill:#9D2B3B;}
	.st46{fill:#C1D4F2;}
	.st47{fill:#534D46;}
	.st48{fill:#191819;}
	.st49{fill:#222123;}
	.st50{fill:#F3FF00;}
	.st51{fill:none;stroke:#5A605A;stroke-width:4;stroke-miterlimit:10;}
	.st52{fill:#505050;}
	.st53{fill:#FFB412;}
	.st54{fill:#53C2C9;}
	.st55{fill:#008B9C;}
	.st56{fill:none;stroke:#00550B;stroke-width:4;stroke-miterlimit:10;}
</style>
<g>
	<g>
		<circle class="st3" cx="274.5" cy="144.4" r="112"/>
		<circle class="st3" cx="163" cy="299.4" r="111.9"/>
		<circle class="st3" cx="348" cy="339.7" r="112"/>
	</g>
</g>
<g>
	<circle class="st4" cx="270.4" cy="268.4" r="161.6"/>
</g>
<g>
	<path class="st2" d="M158.6,337.8c-0.3-0.3-0.4-0.7-0.4-1.2v-16.4c0-0.6,0.1-1,0.4-1.2c0.3-0.3,0.7-0.4,1.3-0.4h6.7
		c6.8,0,10.2,3.3,10.2,9.9c0,3.2-0.9,5.7-2.6,7.4c-1.8,1.7-4.3,2.5-7.6,2.5h-6.7C159.3,338.2,158.8,338.1,158.6,337.8z M166.8,333.3
		c1.1,0,1.9-0.4,2.3-1.1c0.5-0.7,0.7-2,0.7-3.9c0-1.9-0.2-3.1-0.7-3.9c-0.5-0.7-1.3-1.1-2.3-1.1h-1.7v9.9H166.8z"/>
	<path class="st2" d="M178.7,337.8c-0.3-0.3-0.4-0.7-0.4-1.2v-16.4c0-0.6,0.1-1,0.4-1.2c0.3-0.3,0.7-0.4,1.3-0.4h3.5
		c0.7,0,1.1,0.1,1.4,0.4c0.3,0.3,0.4,0.7,0.4,1.3v16.4c0,0.6-0.1,1-0.4,1.2c-0.3,0.3-0.7,0.4-1.4,0.4H180
		C179.4,338.2,178.9,338.1,178.7,337.8z"/>
	<path class="st2" d="M190.9,338.1c-1.5-0.4-2.7-0.9-3.7-1.5c-0.4-0.3-0.6-0.5-0.6-0.8c0-0.2,0.1-0.4,0.2-0.6l1.7-2.6
		c0.2-0.3,0.3-0.4,0.5-0.4c0.2,0,0.3,0.1,0.6,0.2c0.7,0.4,1.5,0.8,2.4,1c0.9,0.2,1.8,0.4,2.6,0.4c0.7,0,1.2-0.1,1.6-0.3
		c0.3-0.2,0.5-0.5,0.5-0.9c0-0.4-0.2-0.8-0.6-1.1c-0.4-0.3-1.2-0.6-2.2-1c-2-0.8-3.5-1.6-4.6-2.6c-1.1-1-1.7-2.2-1.7-3.8
		c0-2,0.7-3.5,2.1-4.5c1.4-1,3.3-1.5,5.7-1.5c1.7,0,3.1,0.1,4.2,0.4c1.2,0.3,2.2,0.7,3.1,1.4c0.4,0.3,0.6,0.5,0.6,0.8
		c0,0.2-0.1,0.4-0.2,0.6l-1.7,2.6c-0.2,0.3-0.3,0.4-0.5,0.4c-0.1,0-0.3-0.1-0.6-0.2c-0.5-0.3-1-0.6-1.7-0.8
		c-0.6-0.2-1.3-0.3-2.1-0.3c-0.7,0-1.2,0.1-1.5,0.3c-0.3,0.2-0.5,0.5-0.5,0.9c0,0.3,0.1,0.6,0.4,0.9c0.2,0.2,0.5,0.4,0.9,0.6
		c0.4,0.2,1,0.4,1.9,0.8c1.4,0.6,2.6,1.1,3.4,1.7c0.8,0.5,1.5,1.2,1.9,1.9c0.4,0.7,0.6,1.7,0.6,2.8c0,1.7-0.7,3.1-2,4.2
		c-1.3,1.1-3.3,1.6-5.8,1.6C194.1,338.7,192.5,338.5,190.9,338.1z"/>
	<path class="st2" d="M205.5,337.8c-0.3-0.3-0.4-0.7-0.4-1.2v-16.4c0-0.6,0.1-1,0.4-1.2c0.3-0.3,0.7-0.4,1.3-0.4h6.9
		c2.9,0,5,0.6,6.3,1.7s2,2.9,2,5.2s-0.7,4.1-2,5.2s-3.4,1.7-6.3,1.7h-1.7v4.2c0,0.6-0.1,1-0.4,1.2c-0.3,0.3-0.7,0.4-1.4,0.4h-3.5
		C206.2,338.2,205.7,338.1,205.5,337.8z M213.2,327.4c0.6,0,1.1-0.2,1.5-0.5c0.4-0.3,0.5-0.8,0.5-1.5c0-0.7-0.2-1.2-0.5-1.5
		c-0.4-0.3-0.8-0.5-1.5-0.5h-2v4H213.2z"/>
	<path class="st2" d="M224.3,336c-1.8-1.8-2.7-4.3-2.7-7.6c0-3.3,0.9-5.8,2.7-7.6c1.8-1.8,4.4-2.7,7.8-2.7c3.4,0,6.1,0.9,7.8,2.7
		c1.8,1.8,2.7,4.3,2.7,7.6c0,3.3-0.9,5.8-2.7,7.6c-1.8,1.8-4.4,2.7-7.8,2.7C228.7,338.7,226.1,337.8,224.3,336z M234.9,332.4
		c0.6-0.9,0.8-2.3,0.8-4.1c0-1.8-0.3-3.2-0.8-4.1c-0.6-0.9-1.5-1.3-2.7-1.3c-1.3,0-2.2,0.4-2.7,1.3c-0.6,0.9-0.8,2.3-0.8,4.1
		c0,1.8,0.3,3.2,0.8,4.1c0.6,0.9,1.5,1.3,2.7,1.3C233.4,333.8,234.3,333.3,234.9,332.4z"/>
	<path class="st2" d="M244.5,337.8c-0.3-0.3-0.4-0.7-0.4-1.2v-16.4c0-0.6,0.1-1,0.4-1.2c0.3-0.3,0.7-0.4,1.4-0.4h2.8
		c0.4,0,0.7,0.1,0.9,0.2c0.2,0.1,0.4,0.3,0.7,0.6l5.2,7.8v-6.9c0-0.6,0.1-1,0.4-1.2c0.3-0.3,0.7-0.4,1.3-0.4h3.5
		c0.7,0,1.1,0.1,1.4,0.4c0.3,0.3,0.4,0.7,0.4,1.3v16.4c0,0.6-0.1,1-0.4,1.2c-0.3,0.3-0.7,0.4-1.4,0.4h-2.8c-0.4,0-0.7-0.1-0.9-0.2
		c-0.2-0.1-0.4-0.3-0.7-0.6l-5.2-7.8v7c0,0.6-0.1,1-0.4,1.2s-0.7,0.4-1.4,0.4h-3.5C245.2,338.2,244.8,338.1,244.5,337.8z"/>
	<path class="st2" d="M264.9,337.8c-0.3-0.3-0.4-0.7-0.4-1.2v-16.4c0-0.6,0.1-1,0.4-1.2c0.3-0.3,0.7-0.4,1.3-0.4h3.5
		c0.7,0,1.1,0.1,1.4,0.4c0.3,0.3,0.4,0.7,0.4,1.3v16.4c0,0.6-0.1,1-0.4,1.2c-0.3,0.3-0.7,0.4-1.4,0.4h-3.5
		C265.6,338.2,265.1,338.1,264.9,337.8z"/>
	<path class="st2" d="M273.8,337.8c-0.3-0.3-0.4-0.7-0.4-1.2v-16.4c0-0.6,0.1-1,0.4-1.2c0.3-0.3,0.7-0.4,1.3-0.4h8.8
		c2.4,0,4.1,0.5,5.2,1.5c1.1,1,1.7,2.4,1.7,4.3c0,0.9-0.2,1.6-0.6,2.3s-0.9,1.1-1.5,1.4c1.7,0.6,2.6,1.9,2.6,4.1
		c0,1.8-0.6,3.3-1.9,4.4s-3.2,1.7-5.7,1.7h-8.6C274.6,338.2,274.1,338.1,273.8,337.8z M282.6,326c0.9,0,1.3-0.4,1.3-1.3
		s-0.4-1.3-1.3-1.3h-2.2v2.6H282.6z M283.1,333.3c0.4,0,0.7-0.1,1-0.4c0.3-0.3,0.4-0.6,0.4-1.1c0-0.5-0.1-0.8-0.4-1.1
		c-0.2-0.3-0.6-0.4-1-0.4h-2.7v2.9H283.1z"/>
	<path class="st2" d="M293.2,337.8c-0.3-0.3-0.4-0.7-0.4-1.2v-16.4c0-0.6,0.1-1,0.4-1.2c0.3-0.3,0.7-0.4,1.3-0.4h3.5
		c0.7,0,1.1,0.1,1.4,0.4c0.3,0.3,0.4,0.7,0.4,1.3v16.4c0,0.6-0.1,1-0.4,1.2c-0.3,0.3-0.7,0.4-1.4,0.4h-3.5
		C293.9,338.2,293.5,338.1,293.2,337.8z"/>
	<path class="st2" d="M302.2,337.8c-0.3-0.3-0.4-0.7-0.4-1.2v-16.4c0-0.6,0.1-1,0.4-1.2c0.3-0.3,0.7-0.4,1.3-0.4h3.5
		c0.7,0,1.1,0.1,1.4,0.4c0.3,0.3,0.4,0.7,0.4,1.3v13.1h6.8c0.6,0,1,0.1,1.3,0.4c0.2,0.3,0.3,0.7,0.3,1.3v1.6c0,0.6-0.1,1-0.3,1.3
		c-0.2,0.3-0.6,0.4-1.3,0.4h-12C302.9,338.2,302.5,338.1,302.2,337.8z"/>
	<path class="st2" d="M318.4,337.8c-0.3-0.3-0.4-0.7-0.4-1.2v-16.4c0-0.6,0.1-1,0.4-1.2c0.3-0.3,0.7-0.4,1.3-0.4h3.5
		c0.7,0,1.1,0.1,1.4,0.4c0.3,0.3,0.4,0.7,0.4,1.3v16.4c0,0.6-0.1,1-0.4,1.2c-0.3,0.3-0.7,0.4-1.4,0.4h-3.5
		C319.1,338.2,318.6,338.1,318.4,337.8z"/>
	<path class="st2" d="M327.4,337.8c-0.3-0.3-0.4-0.7-0.4-1.2v-16.4c0-0.6,0.1-1,0.4-1.2c0.3-0.3,0.7-0.4,1.3-0.4h6.7
		c6.8,0,10.2,3.3,10.2,9.9c0,3.2-0.9,5.7-2.6,7.4c-1.8,1.7-4.3,2.5-7.6,2.5h-6.7C328.1,338.2,327.6,338.1,327.4,337.8z M335.7,333.3
		c1.1,0,1.9-0.4,2.3-1.1c0.5-0.7,0.7-2,0.7-3.9c0-1.9-0.2-3.1-0.7-3.9c-0.5-0.7-1.3-1.1-2.3-1.1h-1.7v9.9H335.7z"/>
	<path class="st2" d="M345.2,337.6c0-0.2,0-0.4,0.1-0.6l7.2-17.4c0.2-0.4,0.4-0.7,0.6-0.9c0.2-0.2,0.5-0.2,0.9-0.2h3.2
		c0.4,0,0.7,0.1,0.9,0.2c0.2,0.2,0.4,0.4,0.6,0.9L366,337c0.1,0.3,0.1,0.5,0.1,0.6c0,0.4-0.2,0.6-0.6,0.6H360c-0.6,0-1-0.3-1.1-0.8
		l-0.7-2.1h-5.1l-0.7,2.1c-0.2,0.5-0.5,0.8-1.1,0.8h-5.5C345.4,338.2,345.2,338,345.2,337.6z M356.8,330.7l-1.1-3.6l-1.1,3.6H356.8z
		"/>
	<path class="st2" d="M368,337.8c-0.3-0.3-0.4-0.7-0.4-1.2v-16.4c0-0.6,0.1-1,0.4-1.2c0.3-0.3,0.7-0.4,1.3-0.4h6.7
		c6.8,0,10.2,3.3,10.2,9.9c0,3.2-0.9,5.7-2.6,7.4c-1.8,1.7-4.3,2.5-7.6,2.5h-6.7C368.7,338.2,368.2,338.1,368,337.8z M376.3,333.3
		c1.1,0,1.9-0.4,2.3-1.1c0.5-0.7,0.7-2,0.7-3.9c0-1.9-0.2-3.1-0.7-3.9c-0.5-0.7-1.3-1.1-2.3-1.1h-1.7v9.9H376.3z"/>
	<path class="st2" d="M184,372.6c-0.3-0.3-0.4-0.7-0.4-1.2V355c0-0.6,0.1-1,0.4-1.2c0.3-0.3,0.7-0.4,1.3-0.4h6.7
		c6.8,0,10.2,3.3,10.2,9.9c0,3.2-0.9,5.7-2.6,7.4c-1.8,1.7-4.3,2.5-7.6,2.5h-6.7C184.7,373,184.2,372.9,184,372.6z M192.3,368.1
		c1.1,0,1.9-0.4,2.3-1.1c0.5-0.7,0.7-2,0.7-3.9c0-1.9-0.2-3.1-0.7-3.9c-0.5-0.7-1.3-1.1-2.3-1.1h-1.7v9.9H192.3z"/>
	<path class="st2" d="M204.1,372.6c-0.3-0.3-0.4-0.7-0.4-1.2V355c0-0.6,0.1-1,0.4-1.2c0.3-0.3,0.7-0.4,1.3-0.4h12
		c0.6,0,1,0.1,1.3,0.4c0.2,0.3,0.3,0.7,0.3,1.3v1.6c0,0.6-0.1,1-0.3,1.3c-0.2,0.3-0.6,0.4-1.3,0.4h-6.8v2.5h4.2c0.6,0,1,0.1,1.3,0.4
		c0.2,0.3,0.3,0.7,0.3,1.3v1.6c0,0.6-0.1,1-0.3,1.3c-0.2,0.3-0.6,0.4-1.3,0.4h-4.2v2.5h6.8c0.6,0,1,0.1,1.3,0.4
		c0.2,0.3,0.3,0.7,0.3,1.3v1.6c0,0.6-0.1,1-0.3,1.3c-0.2,0.3-0.6,0.4-1.3,0.4h-12C204.8,373,204.3,372.9,204.1,372.6z"/>
	<path class="st2" d="M231.4,370.9c-2-1.7-2.9-4.3-2.9-7.7c0-3.4,0.9-6,2.8-7.7c1.9-1.7,4.6-2.6,8.1-2.6c1.6,0,3,0.2,4.2,0.5
		c1.2,0.3,2.3,0.7,3.1,1.3c0.2,0.2,0.3,0.4,0.3,0.6c0,0.2-0.1,0.4-0.3,0.7l-1.5,2.5c-0.2,0.3-0.3,0.4-0.6,0.4
		c-0.1,0-0.4-0.1-0.7-0.2c-0.5-0.3-1.1-0.5-1.7-0.6c-0.6-0.2-1.3-0.2-2.1-0.2c-1.6,0-2.8,0.5-3.7,1.4c-0.9,0.9-1.3,2.3-1.3,4
		c0,1.7,0.5,3.1,1.4,4c0.9,0.9,2.2,1.4,3.8,1.4c1.4,0,2.7-0.3,3.8-0.9c0.3-0.2,0.5-0.2,0.7-0.2c0.2,0,0.4,0.1,0.6,0.4l1.5,2.5
		c0.2,0.3,0.3,0.6,0.3,0.7c0,0.2-0.1,0.4-0.3,0.6c-0.8,0.6-1.9,1-3.1,1.3c-1.3,0.3-2.7,0.5-4.3,0.5
		C236.1,373.5,233.3,372.6,231.4,370.9z"/>
	<path class="st2" d="M247.5,372.4c0-0.2,0-0.4,0.1-0.6l7.2-17.4c0.2-0.4,0.4-0.7,0.6-0.9c0.2-0.2,0.5-0.2,0.9-0.2h3.2
		c0.4,0,0.7,0.1,0.9,0.2c0.2,0.2,0.4,0.4,0.6,0.9l7.2,17.4c0.1,0.3,0.1,0.5,0.1,0.6c0,0.4-0.2,0.6-0.6,0.6h-5.5
		c-0.6,0-1-0.3-1.1-0.8l-0.7-2.1h-5.1l-0.7,2.1c-0.2,0.5-0.5,0.8-1.1,0.8h-5.5C247.7,373,247.5,372.8,247.5,372.4z M259.1,365.5
		l-1.1-3.6l-1.1,3.6H259.1z"/>
	<path class="st2" d="M270.3,372.6c-0.3-0.3-0.4-0.7-0.4-1.2v-16.4c0-0.6,0.1-1,0.4-1.2c0.3-0.3,0.7-0.4,1.4-0.4h2.8
		c0.4,0,0.7,0.1,0.9,0.2c0.2,0.1,0.4,0.3,0.7,0.6l5.2,7.8V355c0-0.6,0.1-1,0.4-1.2c0.3-0.3,0.7-0.4,1.3-0.4h3.5
		c0.7,0,1.1,0.1,1.4,0.4c0.3,0.3,0.4,0.7,0.4,1.3v16.4c0,0.6-0.1,1-0.4,1.2c-0.3,0.3-0.7,0.4-1.4,0.4h-2.8c-0.4,0-0.7-0.1-0.9-0.2
		c-0.2-0.1-0.4-0.3-0.7-0.6l-5.2-7.8v7c0,0.6-0.1,1-0.4,1.2s-0.7,0.4-1.4,0.4h-3.5C271,373,270.5,372.9,270.3,372.6z"/>
	<path class="st2" d="M289.6,372.4c0-0.2,0-0.4,0.1-0.6l7.2-17.4c0.2-0.4,0.4-0.7,0.6-0.9c0.2-0.2,0.5-0.2,0.9-0.2h3.2
		c0.4,0,0.7,0.1,0.9,0.2c0.2,0.2,0.4,0.4,0.6,0.9l7.2,17.4c0.1,0.3,0.1,0.5,0.1,0.6c0,0.4-0.2,0.6-0.6,0.6h-5.5
		c-0.6,0-1-0.3-1.1-0.8l-0.7-2.1h-5.1l-0.7,2.1c-0.2,0.5-0.5,0.8-1.1,0.8h-5.5C289.9,373,289.6,372.8,289.6,372.4z M301.2,365.5
		l-1.1-3.6l-1.1,3.6H301.2z"/>
	<path class="st2" d="M312.4,372.6c-0.3-0.3-0.4-0.7-0.4-1.2V355c0-0.6,0.1-1,0.4-1.2c0.3-0.3,0.7-0.4,1.3-0.4h3.5
		c0.7,0,1.1,0.1,1.4,0.4c0.3,0.3,0.4,0.7,0.4,1.3v13.1h6.8c0.6,0,1,0.1,1.3,0.4c0.2,0.3,0.3,0.7,0.3,1.3v1.6c0,0.6-0.1,1-0.3,1.3
		c-0.2,0.3-0.6,0.4-1.3,0.4h-12C313.1,373,312.7,372.9,312.4,372.6z"/>
	<path class="st2" d="M328.2,372.6c-0.3-0.3-0.4-0.7-0.4-1.2V355c0-0.6,0.1-1,0.4-1.2c0.3-0.3,0.7-0.4,1.3-0.4h12
		c0.6,0,1,0.1,1.3,0.4c0.2,0.3,0.3,0.7,0.3,1.3v1.6c0,0.6-0.1,1-0.3,1.3c-0.2,0.3-0.6,0.4-1.3,0.4h-6.8v2.5h4.2c0.6,0,1,0.1,1.3,0.4
		c0.2,0.3,0.3,0.7,0.3,1.3v1.6c0,0.6-0.1,1-0.3,1.3c-0.2,0.3-0.6,0.4-1.3,0.4h-4.2v2.5h6.8c0.6,0,1,0.1,1.3,0.4
		c0.2,0.3,0.3,0.7,0.3,1.3v1.6c0,0.6-0.1,1-0.3,1.3c-0.2,0.3-0.6,0.4-1.3,0.4h-12C328.9,373,328.4,372.9,328.2,372.6z"/>
	<path class="st2" d="M348.1,372.9c-1.5-0.4-2.7-0.9-3.7-1.5c-0.4-0.3-0.6-0.5-0.6-0.8c0-0.2,0.1-0.4,0.2-0.6l1.7-2.6
		c0.2-0.3,0.3-0.4,0.5-0.4c0.2,0,0.3,0.1,0.6,0.2c0.7,0.4,1.5,0.8,2.4,1c0.9,0.2,1.8,0.4,2.6,0.4c0.7,0,1.2-0.1,1.6-0.3
		c0.3-0.2,0.5-0.5,0.5-0.9c0-0.4-0.2-0.8-0.6-1.1c-0.4-0.3-1.2-0.6-2.2-1c-2-0.8-3.5-1.6-4.6-2.6c-1.1-1-1.7-2.2-1.7-3.8
		c0-2,0.7-3.5,2.1-4.5c1.4-1,3.3-1.5,5.7-1.5c1.7,0,3.1,0.1,4.2,0.4c1.2,0.3,2.2,0.7,3.1,1.4c0.4,0.3,0.6,0.5,0.6,0.8
		c0,0.2-0.1,0.4-0.2,0.6l-1.7,2.6c-0.2,0.3-0.3,0.4-0.5,0.4c-0.1,0-0.3-0.1-0.6-0.2c-0.5-0.3-1-0.6-1.7-0.8
		c-0.6-0.2-1.3-0.3-2.1-0.3c-0.7,0-1.2,0.1-1.5,0.3c-0.3,0.2-0.5,0.5-0.5,0.9c0,0.3,0.1,0.6,0.4,0.9c0.2,0.2,0.5,0.4,0.9,0.6
		c0.4,0.2,1,0.4,1.9,0.8c1.4,0.6,2.6,1.1,3.4,1.7c0.8,0.5,1.5,1.2,1.9,1.9c0.4,0.7,0.6,1.7,0.6,2.8c0,1.7-0.7,3.1-2,4.2
		c-1.3,1.1-3.3,1.6-5.8,1.6C351.3,373.5,349.6,373.3,348.1,372.9z"/>
</g>
<g>
	<g>
		<ellipse id="XMLID_405_" class="st5" cx="222.6" cy="204.5" rx="60.9" ry="61.5"/>
		<g id="XMLID_381_">
			<path id="XMLID_404_" class="st9" d="M239.5,202.1c0.8-2,1.2-3.5,1.3-3.9c-0.1,0-0.1-0.1-0.2-0.1c-0.1-0.2,0.2-2.2,0.1-2.3
				c0,0,0,0-0.1,0c-0.2,0.7-0.6,1.3-1.1,1.7C239.5,198.9,239.5,200.5,239.5,202.1z"/>
			<path id="XMLID_403_" class="st10" d="M236.8,198.2c-0.9-0.7-0.9,8.6-4.6,12.2c-0.3,0.3-0.5,0.5-0.8,0.8
				c-0.3,0.3-0.6,0.5-0.9,0.7c0,0.1,0,0.3,0,0.4c3.4-1,5.9-4.1,7.4-6.8c0.7-1.2,1.2-2.4,1.7-3.4c0-1.6,0-3.1,0-4.7
				c-0.3,0.2-0.6,0.4-0.9,0.5C238.1,198.5,237.5,198.7,236.8,198.2z"/>
			<path id="XMLID_402_" class="st10" d="M207.7,222.7c-0.1,0-0.4,0.2-0.7,0.7C207.3,223.2,207.5,223,207.7,222.7z"/>
			<path id="XMLID_401_" class="st10" d="M230.5,212.7c0.1,2,0.5,4.7,2.1,7.1c0.5-0.5,0.8-0.6,1-0.3c1.2,2.1,2.5,3.2,3.2,3.9
				c-0.4-0.6-0.8-0.8-0.8-0.8s0.9-0.3,2.4,0.9c0.3,0.3,1,0.7,1.6,1.3c-0.8-3.9-0.6-12.9-0.6-21.6c-0.4,0.8-0.8,1.6-1.2,2.5
				C236.1,209.5,233.4,211.9,230.5,212.7z"/>
			<path id="XMLID_400_" class="st10" d="M207.7,222.7c0.7-0.7,1.5-1.7,2.4-3.1c0.2-0.3,0.5-0.2,1.1,0.3c1.9-2.8,2.2-5.9,2.2-8
				c-0.6-0.5-1.2-1-1.7-1.5c-3.7-3.6-3.7-12.9-4.6-12.2c-0.7,0.5-1.3,0.3-1.8-0.2c-0.2-0.1-0.4-0.1-0.6-0.3
				c0,10.1,0.4,21.9-0.5,26.9c0.5-0.4,0.9-0.7,1.2-0.9C206.8,222.4,207.7,222.7,207.7,222.7z"/>
			<path id="XMLID_399_" class="st11" d="M229.7,212.4c0.3-0.1,0.5-0.1,0.8-0.2c0-0.1,0-0.3,0-0.4
				C230.2,212.1,230,212.3,229.7,212.4z"/>
			<path id="XMLID_398_" class="st11" d="M221.8,229.5c0.1,0,0.1,0.1,0.1,0.2c0-0.1,0-0.1,0.1-0.2c6.5-5,9.3-8.5,10.6-9.7
				c-1.6-2.4-2-5.1-2.1-7.1c-0.5,0.2-1.1,0.2-1.6,0.3c-0.2,0.7-0.9,2-3.3,2c-0.5,0-0.9-0.1-1.3-0.2c-0.4,0.1-0.7,0.1-1.1,0.2
				c-1.1,0.1-2.2,0.1-3.4-0.1c-0.9-0.1-1.8-0.4-2.6-0.7c-1-0.4-1.9-0.9-2.7-1.5c-0.4-0.3-0.8-0.6-1.1-0.9c0,2.1-0.3,5.2-2.2,8
				C212.5,221.1,215.3,224.5,221.8,229.5z"/>
			<path id="XMLID_397_" class="st11" d="M221.9,229.9C221.9,229.9,221.9,229.9,221.9,229.9L221.9,229.9
				C221.9,229.9,221.9,229.9,221.9,229.9z"/>
			<path id="XMLID_396_" class="st12" d="M217.2,214.2c0.9,0.3,1.7,0.6,2.6,0.7c1.1,0.2,2.2,0.2,3.4,0.1c0.4,0,0.7-0.1,1.1-0.2
				c-1.6-0.5-1.7-1.7-1.8-2.2c0.1-0.5,0.2-2.3,3.1-2.3c2.6,0,3.2,1.5,3.2,2.2c0.3,0,0.6-0.1,0.8-0.1c0.3-0.2,0.5-0.4,0.8-0.6
				c0.3-0.2,0.6-0.5,0.9-0.7c0.3-0.2,0.6-0.5,0.8-0.8c3.7-3.6,3.7-12.9,4.6-12.2c0.7,0.5,1.3,0.3,1.9-0.2c-0.4,0.2-0.9,0.2-1.2,0
				c-0.5-0.3,0-2.9,0.4-6.8c-0.1,0-0.1,0-0.2,0.1c-0.7,0.5-1.6-5.7-5-8.5c-3.4-2.9-3.7-4.8-3.7-4.8c-3.4,0.4-6.8,1.6-12.4,6.2
				c-4.5,3.6-8.4,7.2-10.2,7.6c-0.2,0-0.3-0.1-0.4-0.4c0.4,3.9,0.9,6.4,0.4,6.7c-0.3,0.2-0.7,0.2-1.1,0c0.5,0.5,1.1,0.7,1.8,0.2
				c0.9-0.7,0.9,8.6,4.6,12.2c0.5,0.5,1.1,1,1.7,1.5c0.4,0.3,0.7,0.6,1.1,0.9C215.4,213.3,216.3,213.8,217.2,214.2z"/>
			<path id="XMLID_395_" class="st10" d="M204.5,184.3c0.2-3.4,3.2-15.6,17.4-15.6c14.1,0,17.2,12.2,17.4,15.6
				c0.1,2.2-0.1,3.4,0.1,4.2c0.1-0.7,0.1-1.7,0.1-2.9c0-6.4-2.6-13.1-6.8-14.2c-2-0.5-2.3-2.5-6.7-3.9c-7.1-2.2-15.2,0.8-19.3,7.8
				c-2.9,4.8-3,11.6-2.7,14C204.9,188.8,204.4,187.5,204.5,184.3z"/>
			<path id="XMLID_394_" class="st10" d="M206.4,191.6c1.8-0.5,5.8-4.1,10.2-7.6c5.6-4.5,9-5.8,12.4-6.2c0,0,0.3,1.9,3.7,4.8
				c3.4,2.9,4.3,9,5,8.5c0.1,0,0.1-0.1,0.2-0.1c0-0.4,0.1-0.8,0.1-1.3c0.4-4.7,0.3-6.2-0.1-7.9c-3.5-13-15.9-12.1-15.9-12.1
				s-12-1.1-15.9,11.9c-0.5,1.7-0.6,3.4-0.2,8.1c0,0.5,0.1,1,0.1,1.4C206.1,191.5,206.2,191.6,206.4,191.6z"/>
			<path id="XMLID_393_" class="st13" d="M206.3,197.9c0.5-0.3,0-2.8-0.4-6.7c0-0.5-0.1-0.9-0.1-1.4c-0.4-4.7-0.3-6.3,0.2-8.1
				c3.9-13,15.9-11.9,15.9-11.9s12.4-0.9,15.9,12.1c0.5,1.7,0.5,3.2,0.1,7.9c0,0.4-0.1,0.8-0.1,1.3c-0.4,3.9-0.9,6.5-0.4,6.8
				c0.3,0.2,0.7,0.2,1.2,0c0.3-0.1,0.6-0.3,0.9-0.5c0.5-0.4,0.9-1,1.1-1.7c-0.2-0.1-0.4,0.1-0.6-0.2c-0.2-0.4-0.1-1.9,0.1-2.3
				c0.1-0.3,0.3-0.5,0.8-0.4c0,0,0.1,0,0.1,0c0.1-1.6-0.1-3.1-1-3.4c-0.4-0.2-0.6-0.4-0.7-0.9c-0.2-0.8,0-2-0.1-4.2
				c-0.2-3.4-3.2-15.6-17.4-15.6c-14.1,0-17.2,12.2-17.4,15.6c-0.2,3.2,0.4,4.4-0.6,5c-0.1,0-0.1,0.1-0.2,0.1
				c-1.3,0.5-1.1,3.8-0.7,5.8c0.2,1.1,0.9,2,1.7,2.5c0.2,0.1,0.4,0.2,0.6,0.3C205.6,198.1,206,198.1,206.3,197.9z"/>
			<path id="XMLID_392_" class="st14" d="M240.1,193.2c-0.1,0.3-0.2,1.9-0.1,2.3c0.1,0.3,0.4,0.1,0.6,0.2c0,0,0,0,0.1,0
				c0.2,0.1-0.2,2.1-0.1,2.3c0,0.1,0.1,0.1,0.2,0.1c-0.1,0.4-0.5,1.9-1.3,3.9c-0.4,1.1-1,2.2-1.7,3.4c-1.5,2.7-3.9,5.7-7.4,6.8
				c-0.2,0.1-0.5,0.1-0.8,0.2c-0.3,0.1-0.6,0.1-0.8,0.1c-0.1-0.7-0.7-2.1-3.2-2.2c-2.8,0-3,1.7-3.1,2.3c0,0.4,0.2,1.7,1.8,2.2
				c0.3,0.1,0.8,0.2,1.3,0.2c2.4,0,3.1-1.3,3.3-2c0.6,0,1.1-0.1,1.6-0.3c3-0.8,5.6-3.2,7.8-7c0.5-0.8,0.9-1.7,1.2-2.5
				c1.1-2.5,1.7-4.7,1.8-5.1c0,0,0.1,0,0.1,0c0.2-0.1,0.3-1.4,0.5-2.9c0.1-1.4-0.3-2.2-0.8-2.3c0,0-0.1,0-0.1,0
				C240.4,192.7,240.2,192.9,240.1,193.2z"/>
			<path id="XMLID_391_" class="st15" d="M219.4,240.4c-1-2.3-2.2-3.6-2.3-5.6c-0.8,0.9-1.3,1.9-1.2,2.8c0.3,3-8.6-7.4-9.5-12.4
				c-0.2,1-0.2,3,2.6,6.9c1.9,2.7,6.2,10.3,9.4,17.1c0.6-4.1,1.1-7.3,1.4-8.5C219.6,240.7,219.5,240.6,219.4,240.4z"/>
			<path id="XMLID_390_" class="st15" d="M227.8,237.7c0.1-0.9-0.4-1.9-1.2-2.8c-0.1,1.9-1.2,3.2-2.3,5.6c-0.1,0.2-0.2,0.3-0.4,0.4
				c0.2,1.2,0.8,4.6,1.4,9c3.1-6.9,7.5-14.9,9.4-17.6c2.9-4.1,2.7-6.2,2.6-7C236.6,230.1,227.5,240.8,227.8,237.7z"/>
			<path id="XMLID_389_" class="st15" d="M207.9,235.2C207.9,235.2,207.9,235.2,207.9,235.2L207.9,235.2
				C208,235.2,207.9,235.2,207.9,235.2z"/>
			<path id="XMLID_388_" class="st16" d="M224.4,240.4c1-2.3,2.2-3.6,2.3-5.6c-1.7-2.1-4.5-4-4.7-5h0c-0.2,0.9-3.1,2.9-4.7,5
				c0.1,1.9,1.2,3.2,2.3,5.6c0.1,0.2,0.2,0.3,0.4,0.4c-0.2,1.2-0.7,4.3-1.4,8.5c1.9,4.1,3.4,7.8,3.6,10.1c0.3-2.2,1.6-5.8,3.3-9.6
				c-0.7-4.4-1.2-7.7-1.4-9C224.1,240.7,224.3,240.6,224.4,240.4z"/>
			<path id="XMLID_387_" class="st17" d="M233.6,219.6c-0.2-0.3-0.5-0.2-1,0.3c-1.3,1.2-4.1,4.6-10.6,9.7c-0.1,0-0.1,0.1-0.1,0.2
				c0-0.1,0-0.1-0.1-0.2c-6.5-5-9.3-8.5-10.6-9.7c-0.6-0.5-0.9-0.6-1.1-0.3c-0.8,1.4-1.7,2.4-2.4,3.1c0,0,0,0,0,0s0,0,0,0
				c-0.2,0.3-0.5,0.5-0.7,0.7c-0.2,0.3-0.4,0.8-0.5,1.4c0,0.1-0.1,0.3-0.1,0.5c0.9,5,9.8,15.5,9.5,12.4c-0.1-0.9,0.4-1.9,1.2-2.8
				c1.7-2.1,4.5-4,4.7-5c0,0,0,0,0,0c0,0,0,0,0,0c0.2,0.9,3.1,2.9,4.7,5c0.8,0.9,1.3,1.9,1.2,2.8c-0.3,3.1,8.8-7.6,9.5-12.5
				c0-0.2-0.1-0.3-0.1-0.4c-0.1-0.6-0.3-1-0.4-1.3C236.1,222.8,234.9,221.7,233.6,219.6z"/>
			<path id="XMLID_386_" class="st14" d="M257.8,232.5c-0.5-0.8-12.6-5-16.5-6.4c0.4,0.4,0.8,0.9,1.1,1.5c1.7,3.1,1.8,5,3,6
				c1.2,0.9-9.5,1.6-9.5,1.6l6.8,5.2c0,0-7.6,8.8-12.7,12.5c-1.6,1.2-6.6,5.8-7.8,7.9c0.3,1.4,0.8,3.4,0.9,4.2c0,0.4,0.1,0.7,0.1,1
				c9.3-0.1,18.2-2.3,26-6.2c0.2-4.7-0.6-23.3,8.3-27.2c0.2-0.1,0.4,0.1,0.6,0.5c0,0,0,0,0,0C258,232.8,257.9,232.6,257.8,232.5z"/>
			<path id="XMLID_385_" class="st18" d="M222.1,260.7L222.1,260.7c-1.4-1.3-6.6-6.7-8.2-7.9c-5.1-3.8-12.7-12.5-12.7-12.5l6.7-5.1
				c0,0,0,0,0,0c-0.7,0-10.7-0.7-9.5-1.6c1.2-0.9,1.3-2.8,3-6c0.3-0.6,0.8-1.1,1.2-1.6c-4.1,1.5-15.8,5.6-16.3,6.3
				c9.4,0.5,8.5,21.7,8.7,27.1c8.2,4.2,17.5,6.6,27.4,6.6c0.2,0,0.5,0,0.7,0c0-0.3-0.1-0.7-0.1-1
				C222.9,264.1,222.4,262.1,222.1,260.7z"/>
			<path id="XMLID_384_" class="st19" d="M201.5,227.6c-1.7,3.1-1.8,5-3,6c-1.2,0.9,8.8,1.6,9.5,1.6c0,0,0,0,0,0l0,0l-6.7,5.1
				c0,0,7.6,8.8,12.7,12.5c1.6,1.2,6.8,6.6,8.2,7.9l0,0c1.2-2,6.2-6.7,7.8-7.9c5.1-3.8,12.7-12.5,12.7-12.5l-6.8-5.2
				c0,0,10.7-0.7,9.5-1.6c-1.2-0.9-1.3-2.8-3-6c-0.3-0.6-0.7-1.1-1.1-1.5c-0.4-0.4-0.8-0.8-1.2-1.1c-0.7-0.6-1.3-1-1.6-1.3
				c-1.5-1.3-2.4-0.9-2.4-0.9s0.4,0.2,0.8,0.8c0.2,0.3,0.3,0.7,0.4,1.3c0,0.1,0,0.2,0.1,0.4c0.2,0.9,0.3,2.9-2.6,7
				c-1.9,2.7-6.3,10.6-9.4,17.6c-1.7,3.9-3,7.4-3.3,9.6c-0.3-2.3-1.7-6.1-3.6-10.1c-3.2-6.8-7.5-14.4-9.4-17.1
				c-2.8-3.9-2.8-6-2.6-6.9c0-0.2,0.1-0.4,0.1-0.5c0.1-0.6,0.3-1.1,0.5-1.4c0.3-0.4,0.6-0.6,0.7-0.7c0,0,0,0,0,0s0,0,0,0
				c-0.1,0-0.9-0.3-2.3,0.9c-0.3,0.2-0.7,0.5-1.2,0.9c-0.5,0.4-1,0.8-1.5,1.4C202.2,226.4,201.8,227,201.5,227.6z"/>
			<path id="XMLID_383_" class="st19" d="M186.4,232.3c-0.5,0-2.3,8.3-4.1,18.4c3.9,3.4,8.2,6.4,12.8,8.7
				C194.9,254,195.8,232.8,186.4,232.3z"/>
			<path id="XMLID_382_" class="st19" d="M257.4,232.5c-8.8,3.9-8,22.5-8.3,27.2c4.8-2.4,9.2-5.3,13.1-8.8
				c-1.5-8.6-3.1-15.9-4.2-17.9C257.8,232.6,257.6,232.4,257.4,232.5z"/>
		</g>
	</g>
	<g>
		<g>
			<polygon class="st52" points="339.3,199.7 339.3,219.6 336.2,219.6 336.2,214.7 330.2,214.7 330.2,219.6 327.3,219.6 
				327.3,214.6 321.3,214.6 321.3,219.6 318.3,219.6 318.3,214.6 312.3,214.6 312.3,219.6 305.8,219.6 305.8,209.2 313.9,209.2 
				313.9,200.1 312.6,200.1 312.6,207.9 304.5,207.9 304.5,220.9 313.6,220.9 313.6,215.7 317,215.7 317,220.9 322.6,220.9 
				322.6,215.8 326,215.8 326,220.9 331.5,220.9 331.5,216 334.9,216 334.9,220.9 340.6,220.9 340.6,199.7 			"/>
		</g>
		<g>
			<path class="st54" d="M382.6,159.8h-38.5h-1h-14h-0.8h-0.7c-0.7,0-1.2,0.6-1.2,1.2v44.2c0,0.7,0.6,1.2,1.2,1.2h0.7h0.8h14h1h38.5
				c0.7,0,1.2-0.6,1.2-1.2V161C383.8,160.4,383.2,159.8,382.6,159.8z"/>
			<rect x="346.2" y="164" class="st2" width="33.1" height="10.3"/>
			<rect x="346.2" y="180.4" class="st52" width="5.2" height="5.2"/>
			<rect x="354.6" y="180.4" class="st52" width="5.2" height="5.2"/>
			<rect x="363" y="180.4" class="st52" width="5.2" height="5.2"/>
			<rect x="346.2" y="188.7" class="st52" width="5.2" height="5.2"/>
			<rect x="354.6" y="188.7" class="st52" width="5.2" height="5.2"/>
			<rect x="363" y="188.7" class="st52" width="5.2" height="5.2"/>
			<rect x="346.2" y="197.1" class="st52" width="5.2" height="5.2"/>
			<rect x="354.6" y="197.1" class="st52" width="5.2" height="5.2"/>
			<rect x="363" y="197.1" class="st52" width="5.2" height="5.2"/>
			<rect x="372.3" y="180.4" class="st2" width="7" height="5.2"/>
			<rect x="372.3" y="188.7" class="st2" width="7" height="5.2"/>
			<rect x="372.3" y="197.1" class="st2" width="7" height="5.2"/>
			<path class="st55" d="M341.5,201h-10.7c-0.7,0-1.4-0.6-1.4-1.4v-34c0-0.8,0.6-1.4,1.4-1.4h10.7c0.7,0,1.4,0.6,1.4,1.4v34
				C342.8,200.4,342.2,201,341.5,201z"/>
		</g>
		<path class="st52" d="M318.2,160.6v-11.2c0-0.9-0.7-1.7-1.7-1.7h-3.7h-6.7h0c-0.9,0-1.7,0.8-1.7,1.7v50.3c0,0.9,0.7,1.7,1.7,1.7h0
			h6.7h3.7c0.9,0,1.7-0.8,1.7-1.7v-11.2c0-0.9-0.7-1.7-1.7-1.7h-2.1c-0.9,0-1.7-0.8-1.7-1.7v-21c0-0.9,0.7-1.7,1.7-1.7h2.1
			C317.5,162.3,318.2,161.6,318.2,160.6z"/>
	</g>
	<g>
		<g>
			<polygon class="st52" points="337.5,282.8 337.5,302.7 334.4,302.7 334.4,297.9 328.4,297.9 328.4,302.7 325.5,302.7 
				325.5,297.8 319.5,297.8 319.5,302.7 316.5,302.7 316.5,297.8 310.5,297.8 310.5,302.7 304,302.7 304,292.4 312.1,292.4 
				312.1,283.3 310.8,283.3 310.8,291.1 302.7,291.1 302.7,304 311.8,304 311.8,298.8 315.2,298.8 315.2,304 320.8,304 320.8,298.9 
				324.3,298.9 324.3,304 329.7,304 329.7,299.2 333.1,299.2 333.1,304 338.8,304 338.8,282.8 			"/>
		</g>
		<g>
			<path class="st54" d="M380.8,242.9h-38.5h-1h-14h-0.8h-0.7c-0.7,0-1.2,0.6-1.2,1.2v44.2c0,0.7,0.6,1.2,1.2,1.2h0.7h0.8h14h1h38.5
				c0.7,0,1.2-0.6,1.2-1.2v-44.2C382,243.5,381.5,242.9,380.8,242.9z"/>
			<rect x="344.4" y="247.1" class="st2" width="33.1" height="10.3"/>
			<rect x="344.4" y="263.5" class="st52" width="5.2" height="5.2"/>
			<rect x="352.8" y="263.5" class="st52" width="5.2" height="5.2"/>
			<rect x="361.2" y="263.5" class="st52" width="5.2" height="5.2"/>
			<rect x="344.4" y="271.9" class="st52" width="5.2" height="5.2"/>
			<rect x="352.8" y="271.9" class="st52" width="5.2" height="5.2"/>
			<rect x="361.2" y="271.9" class="st52" width="5.2" height="5.2"/>
			<rect x="344.4" y="280.2" class="st52" width="5.2" height="5.2"/>
			<rect x="352.8" y="280.2" class="st52" width="5.2" height="5.2"/>
			<rect x="361.2" y="280.2" class="st52" width="5.2" height="5.2"/>
			<rect x="370.5" y="263.5" class="st2" width="7" height="5.2"/>
			<rect x="370.5" y="271.9" class="st2" width="7" height="5.2"/>
			<rect x="370.5" y="280.2" class="st2" width="7" height="5.2"/>
			<path class="st55" d="M339.7,284.1H329c-0.7,0-1.4-0.6-1.4-1.4v-34c0-0.8,0.6-1.4,1.4-1.4h10.7c0.7,0,1.4,0.6,1.4,1.4v34
				C341.1,283.5,340.5,284.1,339.7,284.1z"/>
		</g>
		<path class="st52" d="M316.4,243.8v-11.2c0-0.9-0.7-1.7-1.7-1.7H311h-6.7h0c-0.9,0-1.7,0.8-1.7,1.7v50.3c0,0.9,0.7,1.7,1.7,1.7h0
			h6.7h3.7c0.9,0,1.7-0.8,1.7-1.7v-11.2c0-0.9-0.7-1.7-1.7-1.7h-2.1c-0.9,0-1.7-0.8-1.7-1.7v-21c0-0.9,0.7-1.7,1.7-1.7h2.1
			C315.7,245.5,316.4,244.7,316.4,243.8z"/>
	</g>
	<line class="st56" x1="294.6" y1="255.2" x2="276.7" y2="248"/>
	<line class="st56" x1="276.7" y1="182.9" x2="294.6" y2="175.7"/>
</g>
</svg>
