<?xml version="1.0" encoding="utf-8"?>
<!-- Generator: Adobe Illustrator 23.0.0, SVG Export Plug-In . SVG Version: 6.00 Build 0)  -->
<svg version="1.1" id="Capa_1" xmlns="http://www.w3.org/2000/svg" xmlns:xlink="http://www.w3.org/1999/xlink" x="0px" y="0px"
	 viewBox="0 0 500 500" style="enable-background:new 0 0 500 500;" xml:space="preserve">
<style type="text/css">
	.st0{fill:#0C2D44;}
	.st1{fill:#2C83AF;}
	.st2{fill:#FFFFFF;}
	.st3{fill:#00791D;}
	.st4{fill:#00D13C;}
	.st5{fill:#F2F2F2;}
	.st6{fill:#727272;}
	.st7{fill:#A3A3A3;}
	.st8{fill:#BCBCBC;}
	.st9{fill:none;}
	.st10{fill:#866A5E;}
	.st11{fill:#F7DDCB;}
	.st12{fill:#FFE6D4;}
	.st13{fill:#2D2D2D;}
	.st14{fill:#1C1B1A;}
	.st15{fill:#F5F5F5;}
	.st16{fill:#77181C;}
	.st17{fill:#EAEAEA;}
	.st18{fill:#262525;}
	.st19{fill:#11100F;}
	.st20{fill:#CCCDCE;}
	.st21{fill:#DFDFDF;}
	.st22{fill:#C2C2C2;}
	.st23{fill:#0085B0;}
	.st24{fill:#2A5936;}
	.st25{fill:#CD7054;}
	.st26{fill:#F1CC4B;}
	.st27{fill:#22272F;}
	.st28{fill:#1B2538;}
	.st29{fill:#253452;}
	.st30{fill:#F9F9F9;}
	.st31{fill:#2D3543;}
	.st32{fill:#2A3D60;}
	.st33{fill:#ACACAC;}
	.st34{fill:#6C92D5;}
	.st35{fill:#587955;}
	.st36{fill:#DAA449;}
	.st37{fill:#D4D4D4;}
	.st38{fill:#85B681;}
	.st39{fill:#A1DC9B;}
	.st40{fill:#90C58B;}
	.st41{fill:#81C378;}
	.st42{opacity:0.5;}
	.st43{fill:#A2CADE;}
	.st44{fill:#9BAEC9;}
	.st45{fill:#9D2B3B;}
	.st46{fill:#C1D4F2;}
	.st47{fill:#534D46;}
	.st48{fill:#191819;}
	.st49{fill:#222123;}
	.st50{fill:#F3FF00;}
	.st51{fill:none;stroke:#5A605A;stroke-width:4;stroke-miterlimit:10;}
	.st52{fill:#505050;}
	.st53{fill:#FFB412;}
	.st54{fill:#53C2C9;}
	.st55{fill:#008B9C;}
	.st56{fill:none;stroke:#00550B;stroke-width:4;stroke-miterlimit:10;}
</style>
<g>
	<circle class="st0" cx="267.5" cy="141.1" r="112"/>
	<circle class="st0" cx="156" cy="296.1" r="111.9"/>
	<circle class="st0" cx="341" cy="336.4" r="112"/>
</g>
<g>
	<circle class="st1" cx="263.4" cy="265.1" r="161.6"/>
</g>
<g>
	<path class="st2" d="M210.9,324.6c-0.2-0.2-0.3-0.6-0.3-1.1v-11.3h-3.6c-0.5,0-0.9-0.1-1.1-0.3c-0.2-0.2-0.3-0.6-0.3-1.1v-1.4
		c0-0.5,0.1-0.9,0.3-1.1s0.6-0.3,1.1-0.3h13.2c0.5,0,0.9,0.1,1.1,0.3s0.3,0.6,0.3,1.1v1.4c0,0.5-0.1,0.9-0.3,1.1
		c-0.2,0.2-0.6,0.3-1.1,0.3h-3.6v11.3c0,0.5-0.1,0.8-0.3,1.1c-0.2,0.2-0.6,0.3-1.2,0.3h-3C211.5,324.9,211.1,324.8,210.9,324.6z"/>
	<path class="st2" d="M222.6,324.6c-0.2-0.2-0.3-0.6-0.3-1.1v-14.2c0-0.5,0.1-0.8,0.3-1.1c0.2-0.2,0.6-0.3,1.2-0.3h6
		c2.5,0,4.3,0.5,5.5,1.5s1.7,2.5,1.7,4.5c0,1.2-0.2,2.2-0.6,3c-0.4,0.8-1,1.5-1.9,1.9l2.3,5c0.1,0.1,0.1,0.3,0.1,0.4
		c0,0.2-0.1,0.3-0.2,0.5c-0.1,0.1-0.3,0.2-0.5,0.2h-4.2c-0.3,0-0.5,0-0.6-0.1c-0.2-0.1-0.3-0.2-0.3-0.4l-1.9-4.7h-0.8v3.7
		c0,0.5-0.1,0.8-0.3,1.1c-0.2,0.2-0.6,0.3-1.2,0.3h-3C223.2,324.9,222.8,324.8,222.6,324.6z M229.2,315.6c0.5,0,1-0.1,1.3-0.4
		c0.3-0.3,0.5-0.7,0.5-1.3c0-0.6-0.2-1-0.5-1.3c-0.3-0.3-0.7-0.4-1.3-0.4h-1.7v3.4H229.2z"/>
	<path class="st2" d="M237.6,324.4c0-0.1,0-0.3,0.1-0.5l6.2-15c0.2-0.4,0.3-0.6,0.5-0.7c0.2-0.1,0.5-0.2,0.8-0.2h2.7
		c0.4,0,0.6,0.1,0.8,0.2c0.2,0.1,0.4,0.4,0.5,0.7l6.2,15c0.1,0.2,0.1,0.4,0.1,0.5c0,0.4-0.2,0.5-0.5,0.5h-4.7c-0.5,0-0.8-0.2-1-0.7
		l-0.6-1.9h-4.4l-0.6,1.9c-0.1,0.4-0.5,0.7-1,0.7h-4.7C237.8,324.9,237.6,324.8,237.6,324.4z M244,306.4c0-0.1,0-0.3,0.1-0.4
		l1.1-2.9c0.1-0.4,0.3-0.6,0.5-0.8c0.2-0.1,0.5-0.2,1-0.2h3.6c0.4,0,0.6,0.1,0.8,0.2c0.2,0.1,0.3,0.3,0.3,0.5c0,0.2-0.1,0.4-0.2,0.6
		l-1.6,2.7c-0.2,0.4-0.5,0.7-0.7,0.8s-0.6,0.2-1.2,0.2H245C244.3,307.1,244,306.9,244,306.4z M247.6,318.5l-1-3.1l-1,3.1H247.6z"/>
	<path class="st2" d="M257.3,324.6c-0.2-0.2-0.3-0.6-0.3-1.1v-14.2c0-0.5,0.1-0.8,0.3-1.1c0.2-0.2,0.6-0.3,1.2-0.3h10.4
		c0.5,0,0.9,0.1,1.1,0.3s0.3,0.6,0.3,1.1v1.4c0,0.5-0.1,0.9-0.3,1.1c-0.2,0.2-0.6,0.3-1.1,0.3h-5.9v2.1h3.6c0.5,0,0.9,0.1,1.1,0.3
		s0.3,0.6,0.3,1.1v1.4c0,0.5-0.1,0.9-0.3,1.1c-0.2,0.2-0.6,0.3-1.1,0.3h-3.6v5c0,0.5-0.1,0.8-0.3,1.1c-0.2,0.2-0.6,0.3-1.2,0.3h-3
		C257.9,324.9,257.5,324.8,257.3,324.6z"/>
	<path class="st2" d="M271.4,324.6c-0.2-0.2-0.3-0.6-0.3-1.1v-14.2c0-0.5,0.1-0.8,0.3-1.1c0.2-0.2,0.6-0.3,1.2-0.3h3
		c0.6,0,1,0.1,1.2,0.3c0.2,0.2,0.3,0.6,0.3,1.1v14.2c0,0.5-0.1,0.8-0.3,1.1c-0.2,0.2-0.6,0.3-1.2,0.3h-3
		C272,324.9,271.6,324.8,271.4,324.6z"/>
	<path class="st2" d="M280.8,323.1c-1.7-1.5-2.5-3.7-2.5-6.6c0-2.9,0.8-5.2,2.4-6.7c1.6-1.5,3.9-2.2,7-2.2c1.4,0,2.6,0.1,3.7,0.4
		c1.1,0.3,2,0.6,2.7,1.1c0.2,0.2,0.3,0.3,0.3,0.5c0,0.2-0.1,0.4-0.2,0.6l-1.3,2.2c-0.1,0.2-0.3,0.3-0.5,0.3c-0.1,0-0.3-0.1-0.6-0.2
		c-0.5-0.2-1-0.4-1.5-0.6s-1.1-0.2-1.8-0.2c-1.4,0-2.4,0.4-3.2,1.2c-0.7,0.8-1.1,2-1.1,3.5c0,1.5,0.4,2.7,1.2,3.5
		c0.8,0.8,1.9,1.2,3.3,1.2c1.2,0,2.3-0.3,3.3-0.8c0.3-0.1,0.5-0.2,0.6-0.2c0.2,0,0.3,0.1,0.5,0.4l1.3,2.1c0.2,0.3,0.2,0.5,0.2,0.6
		c0,0.2-0.1,0.4-0.3,0.5c-0.7,0.5-1.6,0.9-2.7,1.1c-1.1,0.3-2.3,0.4-3.7,0.4C284.9,325.3,282.5,324.6,280.8,323.1z"/>
	<path class="st2" d="M296.5,323c-1.5-1.5-2.3-3.7-2.3-6.6c0-2.8,0.8-5,2.3-6.6c1.5-1.5,3.8-2.3,6.8-2.3s5.2,0.8,6.8,2.3
		c1.5,1.5,2.3,3.7,2.3,6.6c0,2.8-0.8,5-2.3,6.6c-1.5,1.5-3.8,2.3-6.8,2.3S298,324.5,296.5,323z M305.6,319.9
		c0.5-0.8,0.7-1.9,0.7-3.5c0-1.6-0.2-2.8-0.7-3.5c-0.5-0.8-1.3-1.1-2.3-1.1c-1.1,0-1.9,0.4-2.3,1.1c-0.5,0.8-0.7,1.9-0.7,3.5
		c0,1.6,0.2,2.7,0.7,3.5c0.5,0.8,1.3,1.2,2.3,1.2C304.3,321.1,305.1,320.7,305.6,319.9z"/>
	<path class="st2" d="M216.7,354.6c-0.2-0.2-0.3-0.6-0.3-1.1v-14.2c0-0.5,0.1-0.8,0.3-1.1c0.2-0.2,0.6-0.3,1.2-0.3h2.9
		c0.4,0,0.7,0,0.9,0.1c0.2,0.1,0.4,0.3,0.5,0.5l2.9,7.3l2.9-7.3c0.1-0.3,0.3-0.4,0.5-0.5s0.5-0.1,0.9-0.1h2.9c0.6,0,1,0.1,1.2,0.3
		s0.3,0.6,0.3,1.1v14.2c0,0.5-0.1,0.8-0.3,1.1c-0.2,0.2-0.6,0.3-1.2,0.3h-2.4c-0.5,0-0.9-0.1-1.2-0.3c-0.2-0.2-0.4-0.6-0.4-1.1v-6.8
		l-1.5,3.4c-0.2,0.5-0.4,0.8-0.7,1c-0.2,0.2-0.6,0.3-1.1,0.3c-0.5,0-0.9-0.1-1.2-0.3c-0.2-0.2-0.5-0.6-0.6-1l-1.5-3.4v6.8
		c0,0.5-0.1,0.8-0.3,1.1c-0.2,0.2-0.6,0.3-1.2,0.3h-2.4C217.3,354.9,216.9,354.8,216.7,354.6z"/>
	<path class="st2" d="M234.4,354.4c0-0.1,0-0.3,0.1-0.5l6.2-15c0.2-0.4,0.3-0.6,0.5-0.7c0.2-0.1,0.5-0.2,0.8-0.2h2.7
		c0.4,0,0.6,0.1,0.8,0.2c0.2,0.1,0.4,0.4,0.5,0.7l6.2,15c0.1,0.2,0.1,0.4,0.1,0.5c0,0.4-0.2,0.5-0.5,0.5h-4.7c-0.5,0-0.8-0.2-1-0.7
		l-0.6-1.9h-4.4l-0.6,1.9c-0.1,0.4-0.5,0.7-1,0.7h-4.7C234.6,354.9,234.4,354.8,234.4,354.4z M244.4,348.5l-1-3.1l-1,3.1H244.4z"/>
	<path class="st2" d="M255.7,354.8c-1.3-0.3-2.3-0.8-3.2-1.3c-0.3-0.2-0.5-0.5-0.5-0.7c0-0.2,0.1-0.3,0.2-0.5l1.4-2.3
		c0.2-0.2,0.3-0.3,0.5-0.3c0.1,0,0.3,0.1,0.5,0.2c0.6,0.4,1.3,0.7,2.1,0.9s1.5,0.3,2.3,0.3c0.6,0,1.1-0.1,1.3-0.3s0.4-0.4,0.4-0.8
		c0-0.4-0.2-0.7-0.5-0.9c-0.4-0.2-1-0.5-1.9-0.9c-1.7-0.6-3-1.4-4-2.2c-1-0.8-1.5-1.9-1.5-3.3c0-1.7,0.6-3,1.8-3.9
		c1.2-0.9,2.8-1.3,4.9-1.3c1.4,0,2.7,0.1,3.7,0.4c1,0.3,1.9,0.6,2.6,1.2c0.3,0.2,0.5,0.5,0.5,0.7c0,0.2-0.1,0.3-0.2,0.5l-1.5,2.3
		c-0.1,0.2-0.3,0.4-0.4,0.4c-0.1,0-0.3-0.1-0.5-0.2c-0.4-0.3-0.9-0.5-1.4-0.7c-0.5-0.2-1.1-0.3-1.8-0.3c-0.6,0-1,0.1-1.3,0.3
		c-0.3,0.2-0.5,0.4-0.5,0.8c0,0.3,0.1,0.6,0.3,0.8c0.2,0.2,0.5,0.4,0.8,0.5c0.3,0.1,0.9,0.4,1.6,0.7c1.3,0.5,2.2,1,3,1.4
		c0.7,0.5,1.3,1,1.6,1.6c0.4,0.6,0.5,1.5,0.5,2.4c0,1.5-0.6,2.7-1.7,3.6c-1.1,0.9-2.8,1.4-5,1.4C258.4,355.3,257,355.1,255.7,354.8z
		"/>
	<path class="st2" d="M268.3,354.6c-0.2-0.2-0.3-0.6-0.3-1.1v-14.2c0-0.5,0.1-0.8,0.3-1.1c0.2-0.2,0.6-0.3,1.2-0.3h3
		c0.6,0,1,0.1,1.2,0.3s0.3,0.6,0.3,1.1v14.2c0,0.5-0.1,0.8-0.3,1.1c-0.2,0.2-0.6,0.3-1.2,0.3h-3
		C268.9,354.9,268.5,354.8,268.3,354.6z"/>
	<path class="st2" d="M281.8,354.7c-0.2-0.1-0.4-0.4-0.5-0.7l-6-15c-0.1-0.2-0.1-0.4-0.1-0.6c0-0.3,0.2-0.5,0.6-0.5h4.7
		c0.5,0,0.8,0.2,1,0.7l2.5,8.2l2.6-8.2c0.1-0.5,0.5-0.7,1-0.7h4.7c0.4,0,0.6,0.2,0.6,0.5c0,0.2,0,0.3-0.1,0.6l-6,15
		c-0.1,0.3-0.3,0.6-0.5,0.7c-0.2,0.1-0.5,0.2-0.8,0.2h-2.7C282.2,354.9,282,354.9,281.8,354.7z"/>
	<path class="st2" d="M294.2,353c-1.5-1.5-2.3-3.7-2.3-6.6c0-2.8,0.8-5,2.3-6.6c1.5-1.5,3.8-2.3,6.8-2.3s5.2,0.8,6.8,2.3
		c1.5,1.5,2.3,3.7,2.3,6.6c0,2.8-0.8,5-2.3,6.6c-1.5,1.5-3.8,2.3-6.8,2.3S295.7,354.5,294.2,353z M303.3,349.9
		c0.5-0.8,0.7-1.9,0.7-3.5c0-1.6-0.2-2.8-0.7-3.5c-0.5-0.8-1.3-1.1-2.4-1.1s-1.9,0.4-2.3,1.1c-0.5,0.8-0.7,1.9-0.7,3.5
		c0,1.6,0.2,2.7,0.7,3.5c0.5,0.8,1.3,1.2,2.3,1.2S302.8,350.7,303.3,349.9z"/>
	<path class="st2" d="M214.8,384.6c-0.2-0.2-0.3-0.6-0.3-1.1V379l-5.8-10c-0.1-0.2-0.2-0.4-0.2-0.5c0-0.4,0.2-0.6,0.6-0.6h4.7
		c0.3,0,0.4,0.1,0.6,0.2c0.1,0.1,0.3,0.3,0.4,0.5l2.7,4.9l2.7-4.9c0.1-0.2,0.3-0.4,0.4-0.5c0.1-0.1,0.3-0.2,0.6-0.2h4.7
		c0.4,0,0.6,0.2,0.6,0.6c0,0.2-0.1,0.3-0.2,0.5l-5.8,10v4.5c0,0.5-0.1,0.8-0.3,1.1c-0.2,0.2-0.6,0.3-1.2,0.3h-3
		C215.5,384.9,215.1,384.8,214.8,384.6z"/>
	<path class="st2" d="M235.6,384.6c-0.2-0.2-0.3-0.6-0.3-1.1v-14.2c0-0.5,0.1-0.8,0.3-1.1c0.2-0.2,0.6-0.3,1.2-0.3h6
		c2.5,0,4.3,0.5,5.5,1.5c1.1,1,1.7,2.5,1.7,4.5c0,1.2-0.2,2.2-0.6,3c-0.4,0.8-1,1.5-1.9,1.9l2.3,5c0.1,0.1,0.1,0.3,0.1,0.4
		c0,0.2-0.1,0.3-0.2,0.5c-0.1,0.1-0.3,0.2-0.5,0.2h-4.2c-0.3,0-0.5,0-0.6-0.1c-0.2-0.1-0.3-0.2-0.3-0.4l-1.9-4.7h-0.9v3.7
		c0,0.5-0.1,0.8-0.3,1.1c-0.2,0.2-0.6,0.3-1.2,0.3h-3C236.2,384.9,235.8,384.8,235.6,384.6z M242.2,375.6c0.5,0,1-0.1,1.3-0.4
		s0.5-0.7,0.5-1.3c0-0.6-0.2-1-0.5-1.3s-0.7-0.4-1.3-0.4h-1.7v3.4H242.2z"/>
	<path class="st2" d="M251.5,384.6c-0.2-0.2-0.3-0.6-0.3-1.1v-14.2c0-0.5,0.1-0.8,0.3-1.1c0.2-0.2,0.6-0.3,1.2-0.3H263
		c0.5,0,0.9,0.1,1.1,0.3s0.3,0.6,0.3,1.1v1.4c0,0.5-0.1,0.9-0.3,1.1c-0.2,0.2-0.6,0.3-1.1,0.3h-5.8v2.2h3.6c0.5,0,0.9,0.1,1.1,0.3
		s0.3,0.6,0.3,1.1v1.3c0,0.5-0.1,0.9-0.3,1.1c-0.2,0.2-0.6,0.3-1.1,0.3h-3.6v2.2h5.8c0.5,0,0.9,0.1,1.1,0.3s0.3,0.6,0.3,1.1v1.4
		c0,0.5-0.1,0.9-0.3,1.1c-0.2,0.2-0.6,0.3-1.1,0.3h-10.3C252.1,384.9,251.7,384.8,251.5,384.6z"/>
	<path class="st2" d="M269.8,384.6c-0.2-0.2-0.3-0.6-0.3-1.1v-11.3h-3.6c-0.5,0-0.9-0.1-1.1-0.3c-0.2-0.2-0.3-0.6-0.3-1.1v-1.4
		c0-0.5,0.1-0.9,0.3-1.1s0.6-0.3,1.1-0.3h13.2c0.5,0,0.9,0.1,1.1,0.3s0.3,0.6,0.3,1.1v1.4c0,0.5-0.1,0.9-0.3,1.1
		c-0.2,0.2-0.6,0.3-1.1,0.3h-3.6v11.3c0,0.5-0.1,0.8-0.3,1.1c-0.2,0.2-0.6,0.3-1.2,0.3h-3C270.4,384.9,270,384.8,269.8,384.6z"/>
	<path class="st2" d="M277.6,384.4c0-0.1,0-0.3,0.1-0.5l6.2-15c0.1-0.4,0.3-0.6,0.5-0.7c0.2-0.1,0.5-0.2,0.8-0.2h2.7
		c0.3,0,0.6,0.1,0.8,0.2c0.2,0.1,0.4,0.4,0.5,0.7l6.2,15c0.1,0.2,0.1,0.4,0.1,0.5c0,0.4-0.2,0.5-0.6,0.5h-4.7c-0.5,0-0.8-0.2-1-0.7
		l-0.6-1.9h-4.4l-0.6,1.9c-0.1,0.4-0.5,0.7-1,0.7h-4.7C277.8,384.9,277.6,384.8,277.6,384.4z M287.6,378.5l-1-3.1l-1,3.1H287.6z"/>
	<path class="st2" d="M297.2,384.6c-0.2-0.2-0.3-0.6-0.3-1.1v-14.2c0-0.5,0.1-0.8,0.3-1.1c0.2-0.2,0.6-0.3,1.2-0.3h3
		c0.6,0,1,0.1,1.2,0.3c0.2,0.2,0.3,0.6,0.3,1.1v14.2c0,0.5-0.1,0.8-0.3,1.1c-0.2,0.2-0.6,0.3-1.2,0.3h-3
		C297.8,384.9,297.4,384.8,297.2,384.6z"/>
	<path class="st2" d="M305,384.6c-0.2-0.2-0.3-0.6-0.3-1.1v-14.2c0-0.5,0.1-0.8,0.3-1.1c0.2-0.2,0.6-0.3,1.2-0.3h3
		c0.6,0,1,0.1,1.2,0.3c0.2,0.2,0.3,0.6,0.3,1.1v11.3h5.8c0.5,0,0.9,0.1,1.1,0.3s0.3,0.6,0.3,1.1v1.4c0,0.5-0.1,0.9-0.3,1.1
		c-0.2,0.2-0.6,0.3-1.1,0.3h-10.3C305.6,384.9,305.2,384.8,305,384.6z"/>
</g>
<circle class="st5" cx="263" cy="204" r="86"/>
<g>
	<g>
		<path class="st54" d="M248.8,197.2c0-18.5,12.9-30.6,29.9-30.6c22.8,0,29.3,16.9,31.2,26c3.2,5.5,13.8,16.9,7.5,17.6
			c-3.1,0.3-4.5,0.4-6.6,0.6c-0.1,2.1-0.2,3.5-0.4,6.1l-5.9,0.5l5.5,3.7c-0.3,2.6-0.6,5.4-1,8.3c-0.6,3.9-9.1,4.3-20,4.3v21.9
			l-37.5-10.3l7.6-23C254.3,216.2,248.8,205.6,248.8,197.2z"/>
		<path class="st54" d="M267.5,200c0,7.7,6.2,13.9,13.9,13.9c7.7,0,13.9-6.2,13.9-13.9c0-7.7-6.2-13.9-13.9-13.9
			C273.7,186.1,267.5,192.4,267.5,200z"/>
		
			<rect x="290.9" y="205.1" transform="matrix(0.6835 -0.73 0.73 0.6835 -64.5849 281.9177)" class="st54" width="3.9" height="20.7"/>
		<path class="st54" d="M299.3,224.7l2.9,0.6c1.1,0.2,2.2-0.6,2.5-1.8l0,0c0.3-1.2-0.4-2.4-1.6-2.7l-2.9-0.6
			c-1.1-0.2-2.2,0.6-2.5,1.8l0,0C297.5,223.3,298.2,224.4,299.3,224.7z"/>
		<path class="st54" d="M278.2,190.9l3.1-0.3c0.7-0.1,1.2-0.7,1.1-1.3l-2.3-23.5c-0.1-0.7-0.7-1.2-1.3-1.1l-3.1,0.3
			c-0.7,0.1-1.2,0.7-1.1,1.3l2.3,23.5C276.9,190.5,277.5,191,278.2,190.9z"/>
		<path class="st54" d="M270.9,200c0,5.8,4.7,10.5,10.5,10.5c5.8,0,10.5-4.7,10.5-10.5s-4.7-10.5-10.5-10.5
			C275.6,189.5,270.9,194.2,270.9,200z"/>
	</g>
	<g>
		<path class="st53" d="M235.5,192.6c0-19.3,13.4-31.9,31.2-31.9c23.8,0,30.5,17.6,32.6,27.1c3.4,5.8,14.4,17.7,7.8,18.3
			c-3.2,0.3-4.7,0.4-6.9,0.6c-0.1,2.2-0.2,3.7-0.4,6.4l-6.2,0.5l5.8,3.8c-0.3,2.7-0.6,5.6-1.1,8.7c-0.6,4.1-9.5,4.5-20.9,4.5v22.8
			l-39.1-10.8l7.9-24C241.3,212.5,235.5,201.4,235.5,192.6z"/>
		<circle class="st53" cx="269.6" cy="195.6" r="14.5"/>
		
			<rect x="279.4" y="200.9" transform="matrix(0.6835 -0.73 0.73 0.6835 -65.4017 272.4311)" class="st53" width="4.1" height="21.6"/>
		<path class="st53" d="M288.3,221.3l3,0.6c1.2,0.2,2.3-0.6,2.6-1.9l0,0c0.3-1.3-0.5-2.5-1.6-2.8l-3-0.6c-1.2-0.2-2.3,0.6-2.6,1.9
			l0,0C286.4,219.8,287.1,221,288.3,221.3z"/>
		<path class="st53" d="M266.2,186l3.2-0.3c0.7-0.1,1.2-0.7,1.1-1.4l-2.4-24.6c-0.1-0.7-0.7-1.2-1.4-1.1l-3.2,0.3
			c-0.7,0.1-1.2,0.7-1.1,1.4l2.4,24.6C264.9,185.6,265.5,186.1,266.2,186z"/>
		<path class="st53" d="M258.6,195.6c0,6.1,4.9,11,11,11c6.1,0,11-4.9,11-11c0-6.1-4.9-11-11-11
			C263.5,184.6,258.6,189.5,258.6,195.6z"/>
	</g>
	<g>
		<path class="st52" d="M220.2,187.9c0-20.2,14.1-33.4,32.7-33.4c24.9,0,32,18.5,34.1,28.4c3.5,6,15.1,18.5,8.2,19.2
			c-3.4,0.4-4.9,0.5-7.2,0.6c-0.1,2.3-0.2,3.8-0.4,6.7l-6.5,0.5l6,4c-0.3,2.8-0.7,5.9-1.1,9.1c-0.6,4.3-10,4.7-21.8,4.7v23.9
			l-41-11.3l8.3-25.2C226.3,208.7,220.2,197.1,220.2,187.9z"/>
		<path class="st54" d="M240.7,191c0,8.4,6.8,15.2,15.2,15.2c8.4,0,15.2-6.8,15.2-15.2c0-8.4-6.8-15.2-15.2-15.2
			C247.5,175.8,240.7,182.6,240.7,191z"/>
		
			<rect x="266.3" y="196.5" transform="matrix(0.6835 -0.7299 0.7299 0.6835 -66.7652 261.6675)" class="st54" width="4.2" height="22.6"/>
		<path class="st54" d="M275.5,217.9l3.2,0.7c1.2,0.3,2.4-0.6,2.7-2l0,0c0.3-1.3-0.5-2.6-1.7-2.9l-3.2-0.7c-1.2-0.3-2.4,0.6-2.7,2
			l0,0C273.5,216.4,274.3,217.7,275.5,217.9z"/>
		<path class="st54" d="M252.4,181l3.3-0.3c0.7-0.1,1.3-0.7,1.2-1.5l-2.5-25.7c-0.1-0.7-0.7-1.3-1.5-1.2l-3.3,0.3
			c-0.7,0.1-1.3,0.7-1.2,1.5l2.5,25.7C251,180.5,251.7,181.1,252.4,181z"/>
		<path class="st2" d="M244.4,191c0,6.4,5.1,11.5,11.5,11.5c6.4,0,11.5-5.1,11.5-11.5c0-6.4-5.1-11.5-11.5-11.5
			C249.6,179.5,244.4,184.6,244.4,191z"/>
	</g>
</g>
</svg>
