<?xml version="1.0" encoding="utf-8"?>
<!-- Generator: Adobe Illustrator 23.0.0, SVG Export Plug-In . SVG Version: 6.00 Build 0)  -->
<svg version="1.1" id="Capa_1" xmlns="http://www.w3.org/2000/svg" xmlns:xlink="http://www.w3.org/1999/xlink" x="0px" y="0px"
	 viewBox="0 0 500 500" style="enable-background:new 0 0 500 500;" xml:space="preserve">
<style type="text/css">
	.st0{fill:#0C2D44;}
	.st1{fill:#2C83AF;}
	.st2{fill:#FFFFFF;}
	.st3{fill:#00791D;}
	.st4{fill:#00D13C;}
	.st5{fill:#F2F2F2;}
	.st6{fill:#727272;}
	.st7{fill:#A3A3A3;}
	.st8{fill:#BCBCBC;}
	.st9{fill:none;}
	.st10{fill:#866A5E;}
	.st11{fill:#F7DDCB;}
	.st12{fill:#FFE6D4;}
	.st13{fill:#2D2D2D;}
	.st14{fill:#1C1B1A;}
	.st15{fill:#F5F5F5;}
	.st16{fill:#77181C;}
	.st17{fill:#EAEAEA;}
	.st18{fill:#262525;}
	.st19{fill:#11100F;}
	.st20{fill:#CCCDCE;}
	.st21{fill:#DFDFDF;}
	.st22{fill:#C2C2C2;}
	.st23{fill:#0085B0;}
	.st24{fill:#2A5936;}
	.st25{fill:#CD7054;}
	.st26{fill:#F1CC4B;}
	.st27{fill:#22272F;}
	.st28{fill:#1B2538;}
	.st29{fill:#253452;}
	.st30{fill:#F9F9F9;}
	.st31{fill:#2D3543;}
	.st32{fill:#2A3D60;}
	.st33{fill:#ACACAC;}
	.st34{fill:#6C92D5;}
	.st35{fill:#587955;}
	.st36{fill:#DAA449;}
	.st37{fill:#D4D4D4;}
	.st38{fill:#85B681;}
	.st39{fill:#A1DC9B;}
	.st40{fill:#90C58B;}
	.st41{fill:#81C378;}
	.st42{opacity:0.5;}
	.st43{fill:#A2CADE;}
	.st44{fill:#9BAEC9;}
	.st45{fill:#9D2B3B;}
	.st46{fill:#C1D4F2;}
	.st47{fill:#534D46;}
	.st48{fill:#191819;}
	.st49{fill:#222123;}
	.st50{fill:#F3FF00;}
	.st51{fill:none;stroke:#5A605A;stroke-width:4;stroke-miterlimit:10;}
	.st52{fill:#505050;}
	.st53{fill:#FFB412;}
	.st54{fill:#53C2C9;}
	.st55{fill:#008B9C;}
	.st56{fill:none;stroke:#00550B;stroke-width:4;stroke-miterlimit:10;}
</style>
<g>
	<g>
		<circle class="st3" cx="268.5" cy="139.4" r="112"/>
		<circle class="st3" cx="157" cy="294.4" r="111.9"/>
		<circle class="st3" cx="342" cy="334.7" r="112"/>
	</g>
</g>
<g>
	<circle class="st4" cx="264.4" cy="263.4" r="161.6"/>
</g>
<g>
	<path class="st2" d="M206.3,305.5c-1.5-1.4-2.3-3.4-2.3-6.1c0-2.7,0.8-4.7,2.3-6.1c1.5-1.4,3.7-2.1,6.5-2.1c1.3,0,2.4,0.1,3.4,0.4
		c1,0.2,1.8,0.6,2.5,1c0.2,0.1,0.3,0.3,0.3,0.5c0,0.1-0.1,0.3-0.2,0.6l-1.2,2c-0.1,0.2-0.3,0.3-0.4,0.3c-0.1,0-0.3-0.1-0.5-0.2
		c-0.9-0.5-1.9-0.7-3-0.7c-1.3,0-2.3,0.4-3,1.1s-1.1,1.8-1.1,3.2c0,1.5,0.3,2.5,0.9,3.2c0.6,0.7,1.5,1,2.7,1c0.2,0,0.5,0,0.7-0.1
		c0.3,0,0.5-0.1,0.7-0.1v-2.1h-1.5c-0.5,0-0.8-0.1-1-0.3c-0.2-0.2-0.3-0.5-0.3-1v-1.3c0-0.5,0.1-0.8,0.3-1c0.2-0.2,0.5-0.3,1-0.3
		h4.9c0.6,0,1,0.1,1.2,0.4c0.2,0.3,0.3,0.7,0.3,1.3v5.4c0,0.3,0,0.6-0.1,0.8c-0.1,0.2-0.3,0.4-0.5,0.5c-1.5,1.1-3.5,1.6-6.1,1.6
		C210,307.6,207.9,306.9,206.3,305.5z"/>
	<path class="st2" d="M221.1,306.9c-0.2-0.2-0.3-0.5-0.3-1v-13c0-0.4,0.1-0.8,0.3-1c0.2-0.2,0.6-0.3,1.1-0.3h9.5
		c0.5,0,0.8,0.1,1,0.3c0.2,0.2,0.3,0.5,0.3,1v1.3c0,0.5-0.1,0.8-0.3,1c-0.2,0.2-0.5,0.3-1,0.3h-5.4v2h3.3c0.5,0,0.8,0.1,1,0.3
		c0.2,0.2,0.3,0.5,0.3,1v1.2c0,0.5-0.1,0.8-0.3,1c-0.2,0.2-0.5,0.3-1,0.3h-3.3v2h5.4c0.5,0,0.8,0.1,1,0.3c0.2,0.2,0.3,0.5,0.3,1v1.3
		c0,0.5-0.1,0.8-0.3,1c-0.2,0.2-0.5,0.3-1,0.3h-9.5C221.6,307.2,221.3,307.1,221.1,306.9z"/>
	<path class="st2" d="M234.3,306.9c-0.2-0.2-0.3-0.5-0.3-1v-13c0-0.4,0.1-0.8,0.3-1c0.2-0.2,0.6-0.3,1.1-0.3h2.2
		c0.3,0,0.6,0,0.7,0.1c0.2,0.1,0.3,0.3,0.5,0.5l4.2,6.2v-5.5c0-0.4,0.1-0.8,0.3-1c0.2-0.2,0.6-0.3,1.1-0.3h2.7
		c0.5,0,0.9,0.1,1.1,0.3s0.3,0.5,0.3,1v13c0,0.4-0.1,0.8-0.3,1s-0.6,0.3-1.1,0.3h-2.2c-0.3,0-0.6,0-0.7-0.1
		c-0.2-0.1-0.3-0.2-0.5-0.5l-4.2-6.2v5.5c0,0.4-0.1,0.8-0.3,1s-0.6,0.3-1.1,0.3h-2.7C234.8,307.2,234.5,307.1,234.3,306.9z"/>
	<path class="st2" d="M250.4,306.9c-0.2-0.2-0.3-0.5-0.3-1v-13c0-0.4,0.1-0.8,0.3-1c0.2-0.2,0.6-0.3,1.1-0.3h9.5
		c0.5,0,0.8,0.1,1,0.3c0.2,0.2,0.3,0.5,0.3,1v1.3c0,0.5-0.1,0.8-0.3,1c-0.2,0.2-0.5,0.3-1,0.3h-5.4v2h3.3c0.5,0,0.8,0.1,1,0.3
		c0.2,0.2,0.3,0.5,0.3,1v1.2c0,0.5-0.1,0.8-0.3,1c-0.2,0.2-0.5,0.3-1,0.3h-3.3v2h5.4c0.5,0,0.8,0.1,1,0.3c0.2,0.2,0.3,0.5,0.3,1v1.3
		c0,0.5-0.1,0.8-0.3,1c-0.2,0.2-0.5,0.3-1,0.3h-9.5C251,307.2,250.6,307.1,250.4,306.9z"/>
	<path class="st2" d="M263.6,306.9c-0.2-0.2-0.3-0.5-0.3-1v-13c0-0.4,0.1-0.8,0.3-1c0.2-0.2,0.6-0.3,1.1-0.3h5.5c2.3,0,4,0.5,5,1.4
		c1,0.9,1.6,2.3,1.6,4.1c0,1.1-0.2,2-0.6,2.8c-0.4,0.8-1,1.4-1.7,1.8l2.1,4.6c0.1,0.1,0.1,0.3,0.1,0.4c0,0.2-0.1,0.3-0.2,0.4
		s-0.3,0.2-0.4,0.2h-3.9c-0.2,0-0.4,0-0.6-0.1c-0.1-0.1-0.3-0.2-0.3-0.4l-1.7-4.3h-0.8v3.4c0,0.4-0.1,0.8-0.3,1
		c-0.2,0.2-0.6,0.3-1.1,0.3h-2.7C264.2,307.2,263.8,307.1,263.6,306.9z M269.7,298.6c0.5,0,0.9-0.1,1.2-0.4s0.4-0.7,0.4-1.2
		c0-0.5-0.1-0.9-0.4-1.2s-0.7-0.4-1.2-0.4h-1.6v3.2H269.7z"/>
	<path class="st2" d="M276.4,306.7c0-0.1,0-0.3,0.1-0.5l5.7-13.8c0.1-0.3,0.3-0.5,0.5-0.7c0.2-0.1,0.4-0.2,0.7-0.2h2.5
		c0.3,0,0.6,0.1,0.7,0.2c0.2,0.1,0.3,0.4,0.5,0.7l5.7,13.8c0.1,0.2,0.1,0.4,0.1,0.5c0,0.3-0.2,0.5-0.5,0.5h-4.3
		c-0.5,0-0.8-0.2-0.9-0.6l-0.6-1.7h-4.1l-0.5,1.7c-0.1,0.4-0.4,0.6-0.9,0.6h-4.3C276.6,307.2,276.4,307.1,276.4,306.7z M285.6,301.3
		l-0.9-2.9l-0.9,2.9H285.6z"/>
	<path class="st2" d="M294.5,306.9c-0.2-0.2-0.3-0.5-0.3-1v-13c0-0.4,0.1-0.8,0.3-1c0.2-0.2,0.6-0.3,1.1-0.3h5.5c2.3,0,4,0.5,5,1.4
		c1,0.9,1.6,2.3,1.6,4.1c0,1.1-0.2,2-0.6,2.8c-0.4,0.8-1,1.4-1.7,1.8l2.1,4.6c0.1,0.1,0.1,0.3,0.1,0.4c0,0.2-0.1,0.3-0.2,0.4
		s-0.3,0.2-0.4,0.2h-3.9c-0.2,0-0.4,0-0.6-0.1c-0.1-0.1-0.3-0.2-0.3-0.4l-1.7-4.3h-0.8v3.4c0,0.4-0.1,0.8-0.3,1
		c-0.2,0.2-0.6,0.3-1.1,0.3h-2.7C295.1,307.2,294.7,307.1,294.5,306.9z M300.6,298.6c0.5,0,0.9-0.1,1.2-0.4s0.4-0.7,0.4-1.2
		c0-0.5-0.1-0.9-0.4-1.2s-0.7-0.4-1.2-0.4H299v3.2H300.6z"/>
	<path class="st2" d="M321.1,306.9c-0.2-0.2-0.3-0.5-0.3-1v-4.2l-5.4-9.2c-0.1-0.2-0.1-0.3-0.1-0.5c0-0.3,0.2-0.5,0.5-0.5h4.3
		c0.2,0,0.4,0,0.5,0.1c0.1,0.1,0.2,0.3,0.4,0.5l2.5,4.5l2.5-4.5c0.1-0.2,0.2-0.4,0.4-0.5c0.1-0.1,0.3-0.1,0.5-0.1h4.3
		c0.4,0,0.5,0.2,0.5,0.5c0,0.2,0,0.3-0.1,0.5l-5.4,9.2v4.2c0,0.4-0.1,0.8-0.3,1c-0.2,0.2-0.6,0.3-1.1,0.3h-2.7
		C321.7,307.2,321.3,307.1,321.1,306.9z"/>
	<path class="st2" d="M209.8,334.5c-0.2-0.2-0.3-0.5-0.3-1v-13c0-0.4,0.1-0.8,0.3-1c0.2-0.2,0.6-0.3,1.1-0.3h9.5
		c0.5,0,0.8,0.1,1,0.3s0.3,0.5,0.3,1v1.3c0,0.5-0.1,0.8-0.3,1c-0.2,0.2-0.5,0.3-1,0.3H215v2h3.3c0.5,0,0.8,0.1,1,0.3s0.3,0.5,0.3,1
		v1.2c0,0.5-0.1,0.8-0.3,1s-0.5,0.3-1,0.3H215v2h5.4c0.5,0,0.8,0.1,1,0.3s0.3,0.5,0.3,1v1.3c0,0.5-0.1,0.8-0.3,1s-0.5,0.3-1,0.3
		h-9.5C210.3,334.8,210,334.7,209.8,334.5z"/>
	<path class="st2" d="M221.8,334.7c-0.1-0.1-0.1-0.2-0.1-0.4c0-0.2,0.1-0.3,0.2-0.5l5.3-7.1l-4.9-6.6c-0.1-0.2-0.2-0.3-0.2-0.5
		c0-0.1,0.1-0.3,0.2-0.4s0.2-0.1,0.4-0.1h4.3c0.2,0,0.4,0,0.5,0.1c0.1,0.1,0.2,0.1,0.3,0.3l2.3,3.2l2.3-3.2c0.1-0.1,0.2-0.2,0.3-0.3
		s0.3-0.1,0.5-0.1h4.3c0.2,0,0.3,0,0.4,0.1s0.1,0.2,0.1,0.4c0,0.2-0.1,0.3-0.2,0.5l-4.9,6.6l5.3,7.1c0.1,0.2,0.2,0.3,0.2,0.5
		c0,0.1,0,0.3-0.1,0.4c-0.1,0.1-0.2,0.1-0.4,0.1h-4.3c-0.2,0-0.4,0-0.5-0.1s-0.2-0.1-0.3-0.3l-2.8-3.7l-2.7,3.7
		c-0.1,0.1-0.2,0.2-0.3,0.3c-0.1,0.1-0.3,0.1-0.5,0.1h-4.3C222,334.8,221.9,334.8,221.8,334.7z"/>
	<path class="st2" d="M240,334.5c-0.2-0.2-0.3-0.5-0.3-1v-13c0-0.4,0.1-0.8,0.3-1c0.2-0.2,0.6-0.3,1.1-0.3h5.5c2.3,0,4,0.5,5,1.4
		c1.1,0.9,1.6,2.3,1.6,4.1c0,1.8-0.5,3.2-1.6,4.1c-1,0.9-2.7,1.4-5,1.4h-1.4v3.4c0,0.4-0.1,0.8-0.3,1c-0.2,0.2-0.6,0.3-1.1,0.3h-2.7
		C240.6,334.8,240.2,334.7,240,334.5z M246.1,326.2c0.5,0,0.9-0.1,1.2-0.4s0.4-0.7,0.4-1.2c0-0.5-0.1-0.9-0.4-1.2s-0.7-0.4-1.2-0.4
		h-1.6v3.2H246.1z"/>
	<path class="st2" d="M255,333c-1.4-1.4-2.1-3.4-2.1-6c0-2.6,0.7-4.6,2.1-6s3.5-2.1,6.2-2.1c2.7,0,4.8,0.7,6.2,2.1s2.1,3.4,2.1,6
		c0,2.6-0.7,4.6-2.1,6s-3.5,2.1-6.2,2.1C258.5,335.2,256.4,334.5,255,333z M263.3,330.2c0.4-0.7,0.7-1.8,0.7-3.2
		c0-1.5-0.2-2.5-0.7-3.2c-0.4-0.7-1.2-1.1-2.2-1.1s-1.7,0.4-2.2,1.1c-0.4,0.7-0.7,1.8-0.7,3.2c0,1.4,0.2,2.5,0.7,3.2
		s1.2,1.1,2.2,1.1S262.9,330.9,263.3,330.2z"/>
	<path class="st2" d="M271,334.5c-0.2-0.2-0.3-0.5-0.3-1v-13c0-0.4,0.1-0.8,0.3-1c0.2-0.2,0.6-0.3,1.1-0.3h5.5c2.3,0,4,0.5,5,1.4
		s1.6,2.3,1.6,4.1c0,1.1-0.2,2-0.6,2.8c-0.4,0.8-1,1.4-1.7,1.8l2.1,4.6c0.1,0.1,0.1,0.3,0.1,0.4c0,0.2-0.1,0.3-0.2,0.4
		s-0.3,0.2-0.4,0.2h-3.9c-0.2,0-0.4,0-0.6-0.1c-0.1-0.1-0.3-0.2-0.3-0.4l-1.7-4.3h-0.8v3.4c0,0.4-0.1,0.8-0.3,1
		c-0.2,0.2-0.6,0.3-1.1,0.3H272C271.5,334.8,271.2,334.7,271,334.5z M277.1,326.2c0.5,0,0.9-0.1,1.2-0.4c0.3-0.3,0.4-0.7,0.4-1.2
		c0-0.5-0.1-0.9-0.4-1.2c-0.3-0.3-0.7-0.4-1.2-0.4h-1.6v3.2H277.1z"/>
	<path class="st2" d="M288.5,334.5c-0.2-0.2-0.3-0.5-0.3-1v-10.4h-3.3c-0.5,0-0.8-0.1-1-0.3c-0.2-0.2-0.3-0.5-0.3-1v-1.3
		c0-0.5,0.1-0.8,0.3-1c0.2-0.2,0.5-0.3,1-0.3H297c0.5,0,0.8,0.1,1,0.3c0.2,0.2,0.3,0.5,0.3,1v1.3c0,0.5-0.1,0.8-0.3,1
		c-0.2,0.2-0.5,0.3-1,0.3h-3.3v10.4c0,0.4-0.1,0.8-0.3,1c-0.2,0.2-0.6,0.3-1.1,0.3h-2.7C289,334.8,288.7,334.7,288.5,334.5z"/>
	<path class="st2" d="M295.6,334.3c0-0.1,0-0.3,0.1-0.5l5.7-13.8c0.1-0.3,0.3-0.5,0.5-0.7c0.2-0.1,0.4-0.2,0.7-0.2h2.5
		c0.3,0,0.6,0.1,0.7,0.2c0.2,0.1,0.3,0.4,0.5,0.7l5.7,13.8c0.1,0.2,0.1,0.4,0.1,0.5c0,0.3-0.2,0.5-0.5,0.5h-4.3
		c-0.5,0-0.8-0.2-0.9-0.6l-0.6-1.7h-4.1l-0.5,1.7c-0.1,0.4-0.4,0.6-0.9,0.6h-4.3C295.8,334.8,295.6,334.7,295.6,334.3z M304.8,328.9
		l-0.9-2.9l-0.9,2.9H304.8z"/>
	<path class="st2" d="M313.7,334.5c-0.2-0.2-0.3-0.5-0.3-1v-13c0-0.4,0.1-0.8,0.3-1c0.2-0.2,0.6-0.3,1.1-0.3h5.5c2.3,0,4,0.5,5,1.4
		s1.6,2.3,1.6,4.1c0,1.1-0.2,2-0.6,2.8c-0.4,0.8-1,1.4-1.7,1.8l2.1,4.6c0.1,0.1,0.1,0.3,0.1,0.4c0,0.2-0.1,0.3-0.2,0.4
		s-0.3,0.2-0.4,0.2h-3.9c-0.2,0-0.4,0-0.6-0.1c-0.1-0.1-0.3-0.2-0.3-0.4l-1.7-4.3h-0.8v3.4c0,0.4-0.1,0.8-0.3,1
		c-0.2,0.2-0.6,0.3-1.1,0.3h-2.7C314.2,334.8,313.9,334.7,313.7,334.5z M319.7,326.2c0.5,0,0.9-0.1,1.2-0.4c0.3-0.3,0.4-0.7,0.4-1.2
		c0-0.5-0.1-0.9-0.4-1.2c-0.3-0.3-0.7-0.4-1.2-0.4h-1.6v3.2H319.7z"/>
	<path class="st2" d="M193.8,362.1c-0.2-0.2-0.3-0.5-0.3-1v-13c0-0.4,0.1-0.8,0.3-1c0.2-0.2,0.6-0.3,1.1-0.3h5.5c2.3,0,4,0.5,5,1.4
		c1,0.9,1.6,2.3,1.6,4.1c0,1.1-0.2,2-0.6,2.8c-0.4,0.8-1,1.4-1.7,1.8l2.1,4.6c0.1,0.1,0.1,0.3,0.1,0.4c0,0.2-0.1,0.3-0.2,0.4
		s-0.3,0.2-0.4,0.2h-3.9c-0.2,0-0.4,0-0.6-0.1c-0.1-0.1-0.3-0.2-0.3-0.4l-1.7-4.3H199v3.4c0,0.4-0.1,0.8-0.3,1
		c-0.2,0.2-0.6,0.3-1.1,0.3h-2.7C194.4,362.4,194,362.3,193.8,362.1z M199.9,353.8c0.5,0,0.9-0.1,1.2-0.4s0.4-0.7,0.4-1.2
		c0-0.5-0.1-0.9-0.4-1.2s-0.7-0.4-1.2-0.4h-1.6v3.2H199.9z"/>
	<path class="st2" d="M208.4,362.1c-0.2-0.2-0.3-0.5-0.3-1v-13c0-0.4,0.1-0.8,0.3-1c0.2-0.2,0.6-0.3,1.1-0.3h9.5
		c0.5,0,0.8,0.1,1,0.3c0.2,0.2,0.3,0.5,0.3,1v1.3c0,0.5-0.1,0.8-0.3,1c-0.2,0.2-0.5,0.3-1,0.3h-5.4v2h3.3c0.5,0,0.8,0.1,1,0.3
		c0.2,0.2,0.3,0.5,0.3,1v1.2c0,0.5-0.1,0.8-0.3,1c-0.2,0.2-0.5,0.3-1,0.3h-3.3v2h5.4c0.5,0,0.8,0.1,1,0.3c0.2,0.2,0.3,0.5,0.3,1v1.3
		c0,0.5-0.1,0.8-0.3,1c-0.2,0.2-0.5,0.3-1,0.3h-9.5C209,362.4,208.7,362.3,208.4,362.1z"/>
	<path class="st2" d="M221.6,362.1c-0.2-0.2-0.3-0.5-0.3-1v-13c0-0.4,0.1-0.8,0.3-1c0.2-0.2,0.6-0.3,1.1-0.3h5.5c2.3,0,4,0.5,5,1.4
		s1.6,2.3,1.6,4.1c0,1.8-0.5,3.2-1.6,4.1c-1,0.9-2.7,1.4-5,1.4h-1.4v3.4c0,0.4-0.1,0.8-0.3,1c-0.2,0.2-0.6,0.3-1.1,0.3h-2.7
		C222.2,362.4,221.9,362.3,221.6,362.1z M227.7,353.8c0.5,0,0.9-0.1,1.2-0.4c0.3-0.3,0.4-0.7,0.4-1.2c0-0.5-0.1-0.9-0.4-1.2
		c-0.3-0.3-0.7-0.4-1.2-0.4h-1.6v3.2H227.7z"/>
	<path class="st2" d="M236.6,360.6c-1.4-1.4-2.1-3.4-2.1-6c0-2.6,0.7-4.6,2.1-6c1.4-1.4,3.5-2.1,6.2-2.1c2.7,0,4.8,0.7,6.2,2.1
		c1.4,1.4,2.1,3.4,2.1,6c0,2.6-0.7,4.6-2.1,6c-1.4,1.4-3.5,2.1-6.2,2.1C240.1,362.8,238,362.1,236.6,360.6z M245,357.8
		c0.4-0.7,0.7-1.8,0.7-3.2c0-1.5-0.2-2.5-0.7-3.2c-0.4-0.7-1.2-1.1-2.2-1.1c-1,0-1.7,0.4-2.2,1.1c-0.4,0.7-0.7,1.8-0.7,3.2
		c0,1.4,0.2,2.5,0.7,3.2c0.4,0.7,1.2,1.1,2.2,1.1C243.8,358.9,244.5,358.5,245,357.8z"/>
	<path class="st2" d="M252.6,362.1c-0.2-0.2-0.3-0.5-0.3-1v-13c0-0.4,0.1-0.8,0.3-1c0.2-0.2,0.6-0.3,1.1-0.3h5.5c2.3,0,4,0.5,5,1.4
		c1.1,0.9,1.6,2.3,1.6,4.1c0,1.1-0.2,2-0.6,2.8s-1,1.4-1.7,1.8l2.1,4.6c0.1,0.1,0.1,0.3,0.1,0.4c0,0.2-0.1,0.3-0.2,0.4
		s-0.3,0.2-0.4,0.2h-3.9c-0.2,0-0.4,0-0.6-0.1c-0.1-0.1-0.2-0.2-0.3-0.4l-1.7-4.3h-0.8v3.4c0,0.4-0.1,0.8-0.3,1
		c-0.2,0.2-0.6,0.3-1.1,0.3h-2.7C253.1,362.4,252.8,362.3,252.6,362.1z M258.7,353.8c0.5,0,0.9-0.1,1.2-0.4s0.4-0.7,0.4-1.2
		c0-0.5-0.1-0.9-0.4-1.2s-0.7-0.4-1.2-0.4h-1.6v3.2H258.7z"/>
	<path class="st2" d="M270.1,362.1c-0.2-0.2-0.3-0.5-0.3-1v-10.4h-3.3c-0.5,0-0.8-0.1-1-0.3c-0.2-0.2-0.3-0.5-0.3-1v-1.3
		c0-0.5,0.1-0.8,0.3-1s0.5-0.3,1-0.3h12.1c0.5,0,0.8,0.1,1,0.3s0.3,0.5,0.3,1v1.3c0,0.5-0.1,0.8-0.3,1c-0.2,0.2-0.5,0.3-1,0.3h-3.3
		v10.4c0,0.4-0.1,0.8-0.3,1c-0.2,0.2-0.6,0.3-1.1,0.3h-2.7C270.6,362.4,270.3,362.3,270.1,362.1z"/>
	<path class="st2" d="M280.9,362.1c-0.2-0.2-0.3-0.5-0.3-1v-13c0-0.4,0.1-0.8,0.3-1c0.2-0.2,0.6-0.3,1.1-0.3h9.5
		c0.5,0,0.8,0.1,1,0.3c0.2,0.2,0.3,0.5,0.3,1v1.3c0,0.5-0.1,0.8-0.3,1c-0.2,0.2-0.5,0.3-1,0.3h-5.4v2h3.3c0.5,0,0.8,0.1,1,0.3
		c0.2,0.2,0.3,0.5,0.3,1v1.2c0,0.5-0.1,0.8-0.3,1c-0.2,0.2-0.5,0.3-1,0.3h-3.3v2h5.4c0.5,0,0.8,0.1,1,0.3c0.2,0.2,0.3,0.5,0.3,1v1.3
		c0,0.5-0.1,0.8-0.3,1c-0.2,0.2-0.5,0.3-1,0.3h-9.5C281.4,362.4,281.1,362.3,280.9,362.1z"/>
	<path class="st2" d="M296.7,362.3c-1.2-0.3-2.2-0.7-2.9-1.2c-0.3-0.2-0.5-0.4-0.5-0.6c0-0.1,0.1-0.3,0.2-0.4l1.3-2.1
		c0.1-0.2,0.3-0.3,0.4-0.3c0.1,0,0.3,0.1,0.4,0.2c0.6,0.3,1.2,0.6,1.9,0.8c0.7,0.2,1.4,0.3,2.1,0.3c0.6,0,1-0.1,1.2-0.2
		s0.4-0.4,0.4-0.7c0-0.4-0.2-0.6-0.5-0.9c-0.3-0.2-0.9-0.5-1.7-0.8c-1.5-0.6-2.8-1.3-3.7-2s-1.3-1.8-1.3-3c0-1.6,0.6-2.8,1.7-3.6
		s2.6-1.2,4.5-1.2c1.3,0,2.4,0.1,3.4,0.3c0.9,0.2,1.7,0.6,2.4,1.1c0.3,0.2,0.5,0.4,0.5,0.6c0,0.1-0.1,0.3-0.2,0.4l-1.3,2.1
		c-0.1,0.2-0.3,0.3-0.4,0.3c-0.1,0-0.2-0.1-0.4-0.2c-0.4-0.2-0.8-0.4-1.3-0.6c-0.5-0.2-1.1-0.2-1.6-0.2c-0.5,0-0.9,0.1-1.2,0.2
		c-0.3,0.2-0.4,0.4-0.4,0.7c0,0.3,0.1,0.5,0.3,0.7c0.2,0.2,0.4,0.3,0.7,0.5c0.3,0.1,0.8,0.3,1.5,0.6c1.2,0.5,2.1,0.9,2.7,1.3
		c0.7,0.4,1.2,0.9,1.5,1.5c0.3,0.6,0.5,1.3,0.5,2.2c0,1.4-0.5,2.5-1.6,3.3c-1,0.9-2.6,1.3-4.6,1.3
		C299.2,362.8,297.9,362.6,296.7,362.3z"/>
	<path class="st2" d="M315.1,362.1c-0.2-0.2-0.3-0.5-0.3-1v-13c0-0.4,0.1-0.8,0.3-1c0.2-0.2,0.6-0.3,1.1-0.3h5.3
		c5.4,0,8.1,2.6,8.1,7.8c0,2.6-0.7,4.5-2.1,5.8c-1.4,1.3-3.4,2-6,2h-5.3C315.7,362.4,315.3,362.3,315.1,362.1z M321.7,358.5
		c0.9,0,1.5-0.3,1.9-0.9c0.4-0.6,0.6-1.6,0.6-3.1c0-1.5-0.2-2.5-0.6-3.1c-0.4-0.6-1-0.9-1.9-0.9h-1.4v7.8H321.7z"/>
	<path class="st2" d="M331,362.1c-0.2-0.2-0.3-0.5-0.3-1v-13c0-0.4,0.1-0.8,0.3-1c0.2-0.2,0.6-0.3,1.1-0.3h9.5c0.5,0,0.8,0.1,1,0.3
		s0.3,0.5,0.3,1v1.3c0,0.5-0.1,0.8-0.3,1c-0.2,0.2-0.5,0.3-1,0.3h-5.4v2h3.3c0.5,0,0.8,0.1,1,0.3c0.2,0.2,0.3,0.5,0.3,1v1.2
		c0,0.5-0.1,0.8-0.3,1c-0.2,0.2-0.5,0.3-1,0.3h-3.3v2h5.4c0.5,0,0.8,0.1,1,0.3c0.2,0.2,0.3,0.5,0.3,1v1.3c0,0.5-0.1,0.8-0.3,1
		c-0.2,0.2-0.5,0.3-1,0.3h-9.5C331.6,362.4,331.2,362.3,331,362.1z"/>
	<path class="st2" d="M214.7,389.7c-0.2-0.2-0.3-0.5-0.3-1v-13c0-0.4,0.1-0.8,0.3-1c0.2-0.2,0.6-0.3,1.1-0.3h2.7
		c0.5,0,0.9,0.1,1.1,0.3s0.3,0.5,0.3,1v10.4h5.4c0.5,0,0.8,0.1,1,0.3c0.2,0.2,0.3,0.5,0.3,1v1.3c0,0.5-0.1,0.8-0.3,1
		c-0.2,0.2-0.5,0.3-1,0.3h-9.5C215.3,390,214.9,389.9,214.7,389.7z"/>
	<path class="st2" d="M227.6,389.7c-0.2-0.2-0.3-0.5-0.3-1v-13c0-0.4,0.1-0.8,0.3-1c0.2-0.2,0.6-0.3,1.1-0.3h2.7
		c0.5,0,0.9,0.1,1.1,0.3s0.3,0.5,0.3,1v10.4h5.4c0.5,0,0.8,0.1,1,0.3c0.2,0.2,0.3,0.5,0.3,1v1.3c0,0.5-0.1,0.8-0.3,1
		c-0.2,0.2-0.5,0.3-1,0.3h-9.5C228.1,390,227.8,389.9,227.6,389.7z"/>
	<path class="st2" d="M239.3,389.5c0-0.1,0-0.3,0.1-0.5l5.7-13.8c0.1-0.3,0.3-0.5,0.5-0.7c0.2-0.1,0.4-0.2,0.7-0.2h2.5
		c0.3,0,0.6,0.1,0.7,0.2c0.2,0.1,0.3,0.4,0.5,0.7l5.7,13.8c0.1,0.2,0.1,0.4,0.1,0.5c0,0.3-0.2,0.5-0.5,0.5h-4.3
		c-0.5,0-0.8-0.2-0.9-0.6l-0.6-1.7h-4.1l-0.5,1.7c-0.1,0.4-0.4,0.6-0.9,0.6h-4.3C239.5,390,239.3,389.9,239.3,389.5z M248.5,384.1
		l-0.9-2.9l-0.9,2.9H248.5z"/>
	<path class="st2" d="M256.8,389.7c-0.2-0.2-0.3-0.5-0.3-1v-13c0-0.4,0.1-0.8,0.3-1s0.6-0.3,1.1-0.3h2.6c0.3,0,0.6,0,0.8,0.1
		c0.2,0.1,0.4,0.3,0.5,0.5l2.7,6.7l2.7-6.7c0.1-0.2,0.3-0.4,0.5-0.5c0.2-0.1,0.5-0.1,0.8-0.1h2.6c0.5,0,0.9,0.1,1.1,0.3
		s0.3,0.5,0.3,1v13c0,0.4-0.1,0.8-0.3,1c-0.2,0.2-0.6,0.3-1.1,0.3h-2.2c-0.5,0-0.9-0.1-1.1-0.3c-0.2-0.2-0.3-0.5-0.3-1v-6.3
		l-1.4,3.1c-0.2,0.4-0.4,0.8-0.6,1c-0.2,0.2-0.6,0.3-1.1,0.3c-0.5,0-0.8-0.1-1.1-0.3c-0.2-0.2-0.4-0.5-0.6-1l-1.4-3.1v6.3
		c0,0.4-0.1,0.8-0.3,1c-0.2,0.2-0.6,0.3-1.1,0.3h-2.2C257.3,390,257,389.9,256.8,389.7z"/>
	<path class="st2" d="M273.1,389.5c0-0.1,0-0.3,0.1-0.5l5.7-13.8c0.1-0.3,0.3-0.5,0.5-0.7c0.2-0.1,0.4-0.2,0.7-0.2h2.5
		c0.3,0,0.6,0.1,0.7,0.2c0.2,0.1,0.3,0.4,0.5,0.7l5.7,13.8c0.1,0.2,0.1,0.4,0.1,0.5c0,0.3-0.2,0.5-0.5,0.5h-4.3
		c-0.5,0-0.8-0.2-0.9-0.6l-0.6-1.7h-4.1l-0.5,1.7c-0.1,0.4-0.4,0.6-0.9,0.6h-4.3C273.2,390,273.1,389.9,273.1,389.5z M282.3,384.1
		l-0.9-2.9l-0.9,2.9H282.3z"/>
	<path class="st2" d="M291.1,389.7c-0.2-0.2-0.3-0.5-0.3-1v-13c0-0.4,0.1-0.8,0.3-1c0.2-0.2,0.6-0.3,1.1-0.3h5.3
		c5.4,0,8.1,2.6,8.1,7.8c0,2.6-0.7,4.5-2.1,5.8c-1.4,1.3-3.4,2-6,2h-5.3C291.7,390,291.3,389.9,291.1,389.7z M297.7,386.1
		c0.9,0,1.5-0.3,1.9-0.9s0.6-1.6,0.6-3.1c0-1.5-0.2-2.5-0.6-3.1s-1-0.9-1.9-0.9h-1.4v7.8H297.7z"/>
	<path class="st2" d="M305.3,389.5c0-0.1,0-0.3,0.1-0.5l5.7-13.8c0.1-0.3,0.3-0.5,0.5-0.7s0.4-0.2,0.7-0.2h2.5
		c0.3,0,0.6,0.1,0.7,0.2s0.3,0.4,0.5,0.7l5.7,13.8c0.1,0.2,0.1,0.4,0.1,0.5c0,0.3-0.2,0.5-0.5,0.5H317c-0.5,0-0.8-0.2-0.9-0.6
		l-0.6-1.7h-4.1l-0.5,1.7c-0.1,0.4-0.4,0.6-0.9,0.6h-4.3C305.4,390,305.3,389.9,305.3,389.5z M314.5,384.1l-0.9-2.9l-0.9,2.9H314.5z
		"/>
</g>
<g>
	<g>
		<g>
			<path class="st27" d="M355.5,257.2c0,4-3.2,7.2-7.2,7.2H202.8c-4,0-7.2-3.2-7.2-7.2v-84.3c0-3.9,3.2-7.2,7.2-7.2h145.6
				c4,0,7.2,3.2,7.2,7.2V257.2z"/>
			<path class="st28" d="M354.8,165.7h-72h-73.6c-4,0-7.2,3.2-7.2,7.2v84.3c0,4,3.2,7.2,7.2,7.2h73.6h72c4,0,7.2-3.2,7.2-7.2v-84.3
				C362,168.9,358.8,165.7,354.8,165.7z"/>
			<path class="st29" d="M348.3,165.7h-72h-73.6c-4,0-7.2,3.2-7.2,7.2v84.3c0,4,3.2,7.2,7.2,7.2h73.6h72c4,0,7.2-3.2,7.2-7.2v-84.3
				C355.5,168.9,352.3,165.7,348.3,165.7z"/>
			<path class="st30" d="M345.5,172.1h-69.1h-70.7c-2.4,0-4.3,2-4.3,4.3v77.2c0,2.4,1.9,4.3,4.3,4.3h70.7h69.1
				c2.4,0,4.3-1.9,4.3-4.3v-77.2C349.8,174.1,347.8,172.1,345.5,172.1z"/>
		</g>
		<g>
			<path class="st28" d="M280.4,264.4V279H360c7.2,0,13-5.8,13-13v-1.7H280.4z"/>
			<path class="st31" d="M182.2,264.4v1.7c0,7.2,5.8,13,13,13h81.2v-14.7H182.2z"/>
		</g>
		<path class="st32" d="M235.2,264.4h-94.2v1.7c0,7.2,5.8,13,13,13h81.2h79.6c7.2,0,13-5.8,13-13v-1.7H235.2z"/>
	</g>
	<g id="_x39__2_">
		<path class="st34" d="M315.8,225.5l-0.3,0l0.7,29.2c4-0.1,8-1,11.8-2.8c2-0.9,3.8-2.1,5.4-3.3c4.6-3.5,7.9-8.3,9.7-13.6
			L315.8,225.5z"/>
		<path class="st35" d="M337,205.7c-8.4-9.2-22.1-12.3-34-6.7c-2.4,1.1-4.6,2.6-6.5,4.2l19,22.2l0.2,0l21.6-19.4
			C337.1,206,337.1,205.8,337,205.7z"/>
		<path class="st25" d="M344.5,223c-0.3-3.4-1.2-6.7-2.7-10c-1.2-2.6-2.8-4.9-4.6-7l-21.6,19.4l0.1,0L343,235
			C344.3,231.2,344.9,227.1,344.5,223z"/>
		<path class="st26" d="M315.4,225.5l-19-22.2c-6.7,5.7-10.4,14.2-10.2,22.9c0.1,4,1,7.9,2.8,11.8c5.1,10.8,15.9,17,27.1,16.8
			L315.4,225.5z"/>
	</g>
	<rect x="205.8" y="196.9" class="st21" width="76" height="55.6"/>
	<g>
		<g>
			<rect x="208.8" y="200.5" class="st26" width="11.4" height="10"/>
			<rect x="223.8" y="200.5" class="st33" width="54.9" height="10"/>
		</g>
		<g>
			<rect x="208.8" y="213.3" class="st34" width="11.4" height="10"/>
			<rect x="223.8" y="213.3" class="st33" width="54.9" height="10"/>
		</g>
		<g>
			<rect x="208.8" y="226.1" class="st35" width="11.4" height="10"/>
			<rect x="223.8" y="226.1" class="st33" width="54.9" height="10"/>
		</g>
		<g>
			<rect x="208.8" y="238.9" class="st25" width="11.4" height="10"/>
			<rect x="223.8" y="238.9" class="st33" width="54.9" height="10"/>
		</g>
	</g>
	<g>
		<path class="st34" d="M218.5,191.9c-1.5-1.3-2.3-3.3-2.3-6c0-2.7,0.7-4.7,2.2-6c1.5-1.3,3.6-2,6.3-2c1.2,0,2.3,0.1,3.3,0.4
			c1,0.2,1.8,0.6,2.4,1c0.2,0.1,0.3,0.3,0.3,0.5c0,0.1-0.1,0.3-0.2,0.6l-1.1,1.9c-0.1,0.2-0.3,0.3-0.4,0.3c-0.1,0-0.3-0.1-0.5-0.2
			c-0.4-0.2-0.9-0.4-1.3-0.5c-0.5-0.1-1-0.2-1.6-0.2c-1.3,0-2.2,0.4-2.9,1.1c-0.7,0.7-1,1.8-1,3.1c0,1.4,0.4,2.4,1.1,3.1
			c0.7,0.7,1.7,1.1,3,1.1c1.1,0,2.1-0.2,3-0.7c0.2-0.1,0.4-0.2,0.5-0.2c0.2,0,0.3,0.1,0.4,0.3l1.1,1.9c0.1,0.2,0.2,0.4,0.2,0.6
			c0,0.2-0.1,0.3-0.3,0.5c-0.6,0.4-1.5,0.8-2.4,1c-1,0.2-2.1,0.4-3.3,0.4C222.1,193.9,220,193.2,218.5,191.9z"/>
		<path class="st34" d="M232.3,193.2c-0.2-0.2-0.3-0.5-0.3-1v-12.8c0-0.4,0.1-0.8,0.3-1c0.2-0.2,0.6-0.3,1.1-0.3h5.4
			c2.3,0,3.9,0.4,4.9,1.3c1,0.9,1.5,2.2,1.5,4.1c0,1.1-0.2,2-0.6,2.7s-0.9,1.3-1.7,1.8l2.1,4.5c0.1,0.1,0.1,0.3,0.1,0.4
			c0,0.2-0.1,0.3-0.2,0.4s-0.3,0.2-0.4,0.2h-3.8c-0.2,0-0.4,0-0.6-0.1c-0.1-0.1-0.2-0.2-0.3-0.4l-1.7-4.2h-0.8v3.4
			c0,0.4-0.1,0.8-0.3,1s-0.6,0.3-1.1,0.3h-2.7C232.9,193.5,232.5,193.4,232.3,193.2z M238.3,185.1c0.5,0,0.9-0.1,1.1-0.4
			c0.3-0.3,0.4-0.6,0.4-1.2c0-0.5-0.1-0.9-0.4-1.2c-0.3-0.3-0.7-0.4-1.1-0.4h-1.5v3.1H238.3z"/>
		<path class="st34" d="M246.7,193.2c-0.2-0.2-0.3-0.5-0.3-1v-12.8c0-0.4,0.1-0.8,0.3-1c0.2-0.2,0.6-0.3,1.1-0.3h2.6
			c0.3,0,0.6,0,0.8,0.1c0.2,0.1,0.3,0.2,0.5,0.5l2.6,6.6l2.6-6.6c0.1-0.2,0.3-0.4,0.5-0.5c0.2-0.1,0.5-0.1,0.8-0.1h2.6
			c0.5,0,0.9,0.1,1.1,0.3s0.3,0.5,0.3,1v12.8c0,0.4-0.1,0.8-0.3,1s-0.6,0.3-1.1,0.3h-2.2c-0.5,0-0.9-0.1-1.1-0.3
			c-0.2-0.2-0.3-0.5-0.3-1v-6.2l-1.3,3.1c-0.2,0.4-0.4,0.8-0.6,0.9s-0.6,0.3-1,0.3c-0.5,0-0.8-0.1-1-0.3s-0.4-0.5-0.6-0.9l-1.3-3.1
			v6.2c0,0.4-0.1,0.8-0.3,1c-0.2,0.2-0.6,0.3-1.1,0.3h-2.2C247.3,193.5,246.9,193.4,246.7,193.2z"/>
	</g>
</g>
</svg>
