<?xml version="1.0" encoding="utf-8"?>
<!-- Generator: Adobe Illustrator 23.0.0, SVG Export Plug-In . SVG Version: 6.00 Build 0)  -->
<svg version="1.1" id="Capa_1" xmlns="http://www.w3.org/2000/svg" xmlns:xlink="http://www.w3.org/1999/xlink" x="0px" y="0px"
	 viewBox="0 0 500 500" style="enable-background:new 0 0 500 500;" xml:space="preserve">
<style type="text/css">
	.st0{fill:#0C2D44;}
	.st1{fill:#2C83AF;}
	.st2{fill:#FFFFFF;}
	.st3{fill:#00791D;}
	.st4{fill:#00D13C;}
	.st5{fill:#F2F2F2;}
	.st6{fill:#727272;}
	.st7{fill:#A3A3A3;}
	.st8{fill:#BCBCBC;}
	.st9{fill:none;}
	.st10{fill:#866A5E;}
	.st11{fill:#F7DDCB;}
	.st12{fill:#FFE6D4;}
	.st13{fill:#2D2D2D;}
	.st14{fill:#1C1B1A;}
	.st15{fill:#F5F5F5;}
	.st16{fill:#77181C;}
	.st17{fill:#EAEAEA;}
	.st18{fill:#262525;}
	.st19{fill:#11100F;}
	.st20{fill:#CCCDCE;}
	.st21{fill:#DFDFDF;}
	.st22{fill:#C2C2C2;}
	.st23{fill:#0085B0;}
	.st24{fill:#2A5936;}
	.st25{fill:#CD7054;}
	.st26{fill:#F1CC4B;}
	.st27{fill:#22272F;}
	.st28{fill:#1B2538;}
	.st29{fill:#253452;}
	.st30{fill:#F9F9F9;}
	.st31{fill:#2D3543;}
	.st32{fill:#2A3D60;}
	.st33{fill:#ACACAC;}
	.st34{fill:#6C92D5;}
	.st35{fill:#587955;}
	.st36{fill:#DAA449;}
	.st37{fill:#D4D4D4;}
	.st38{fill:#85B681;}
	.st39{fill:#A1DC9B;}
	.st40{fill:#90C58B;}
	.st41{fill:#81C378;}
	.st42{opacity:0.5;}
	.st43{fill:#A2CADE;}
	.st44{fill:#9BAEC9;}
	.st45{fill:#9D2B3B;}
	.st46{fill:#C1D4F2;}
	.st47{fill:#534D46;}
	.st48{fill:#191819;}
	.st49{fill:#222123;}
	.st50{fill:#F3FF00;}
	.st51{fill:none;stroke:#5A605A;stroke-width:4;stroke-miterlimit:10;}
	.st52{fill:#505050;}
	.st53{fill:#FFB412;}
	.st54{fill:#53C2C9;}
	.st55{fill:#008B9C;}
	.st56{fill:none;stroke:#00550B;stroke-width:4;stroke-miterlimit:10;}
</style>
<g>
	<circle class="st0" cx="263.5" cy="144.1" r="112"/>
	<circle class="st0" cx="152" cy="299.1" r="111.9"/>
	<circle class="st0" cx="337" cy="339.4" r="112"/>
</g>
<g>
	<circle class="st1" cx="259.4" cy="268.1" r="161.6"/>
</g>
<g>
	<path class="st2" d="M212.6,327.6c-0.2-0.2-0.3-0.6-0.3-1.1v-14.2c0-0.5,0.1-0.8,0.3-1.1c0.2-0.2,0.6-0.3,1.2-0.3h6
		c2.5,0,4.3,0.5,5.5,1.5s1.7,2.5,1.7,4.5s-0.6,3.5-1.7,4.5c-1.1,1-3,1.5-5.4,1.5h-1.5v3.7c0,0.5-0.1,0.8-0.3,1.1
		c-0.2,0.2-0.6,0.3-1.2,0.3h-3C213.2,327.9,212.8,327.8,212.6,327.6z M219.2,318.6c0.5,0,1-0.1,1.3-0.4c0.3-0.3,0.5-0.7,0.5-1.3
		c0-0.6-0.2-1-0.5-1.3c-0.3-0.3-0.7-0.4-1.3-0.4h-1.7v3.4H219.2z"/>
	<path class="st2" d="M228,327.6c-0.2-0.2-0.3-0.6-0.3-1.1v-14.2c0-0.5,0.1-0.8,0.3-1.1c0.2-0.2,0.6-0.3,1.2-0.3h3
		c0.6,0,1,0.1,1.2,0.3s0.3,0.6,0.3,1.1v11.3h5.8c0.5,0,0.9,0.1,1.1,0.3c0.2,0.2,0.3,0.6,0.3,1.1v1.4c0,0.5-0.1,0.9-0.3,1.1
		c-0.2,0.2-0.6,0.3-1.1,0.3h-10.3C228.6,327.9,228.2,327.8,228,327.6z"/>
	<path class="st2" d="M240.7,327.4c0-0.1,0-0.3,0.1-0.5l6.2-15c0.1-0.4,0.3-0.6,0.5-0.7c0.2-0.1,0.5-0.2,0.8-0.2h2.7
		c0.4,0,0.6,0.1,0.8,0.2c0.2,0.1,0.4,0.4,0.5,0.7l6.2,15c0.1,0.2,0.1,0.4,0.1,0.5c0,0.4-0.2,0.5-0.5,0.5h-4.7c-0.5,0-0.8-0.2-1-0.7
		l-0.6-1.9h-4.4l-0.6,1.9c-0.1,0.4-0.5,0.7-1,0.7h-4.7C240.9,327.9,240.7,327.8,240.7,327.4z M250.7,321.5l-1-3.1l-1,3.1H250.7z"/>
	<path class="st2" d="M260.4,327.6c-0.2-0.2-0.3-0.6-0.3-1.1v-14.2c0-0.5,0.1-0.8,0.3-1.1s0.6-0.3,1.2-0.3h2.4c0.4,0,0.6,0,0.8,0.1
		c0.2,0.1,0.4,0.3,0.6,0.5l4.5,6.7v-6c0-0.5,0.1-0.8,0.3-1.1c0.2-0.2,0.6-0.3,1.2-0.3h3c0.6,0,1,0.1,1.2,0.3s0.3,0.6,0.3,1.1v14.2
		c0,0.5-0.1,0.8-0.3,1.1c-0.2,0.2-0.6,0.3-1.2,0.3h-2.4c-0.4,0-0.6,0-0.8-0.1c-0.2-0.1-0.4-0.3-0.6-0.5l-4.5-6.7v6
		c0,0.5-0.1,0.8-0.3,1.1c-0.2,0.2-0.6,0.3-1.2,0.3h-3C261,327.9,260.6,327.8,260.4,327.6z"/>
	<path class="st2" d="M277.9,327.6c-0.2-0.2-0.3-0.6-0.3-1.1v-14.2c0-0.5,0.1-0.8,0.3-1.1c0.2-0.2,0.6-0.3,1.2-0.3h10.4
		c0.5,0,0.9,0.1,1.1,0.3c0.2,0.2,0.3,0.6,0.3,1.1v1.4c0,0.5-0.1,0.9-0.3,1.1c-0.2,0.2-0.6,0.3-1.1,0.3h-5.9v2.2h3.6
		c0.5,0,0.9,0.1,1.1,0.3c0.2,0.2,0.3,0.6,0.3,1.1v1.3c0,0.5-0.1,0.9-0.3,1.1c-0.2,0.2-0.6,0.3-1.1,0.3h-3.6v2.2h5.8
		c0.5,0,0.9,0.1,1.1,0.3c0.2,0.2,0.3,0.6,0.3,1.1v1.4c0,0.5-0.1,0.9-0.3,1.1c-0.2,0.2-0.6,0.3-1.1,0.3h-10.3
		C278.5,327.9,278.2,327.8,277.9,327.6z"/>
	<path class="st2" d="M295.1,327.8c-1.3-0.3-2.3-0.8-3.1-1.3c-0.3-0.2-0.5-0.5-0.5-0.7c0-0.2,0.1-0.3,0.2-0.5l1.4-2.3
		c0.1-0.2,0.3-0.3,0.5-0.3c0.1,0,0.3,0.1,0.5,0.2c0.6,0.4,1.3,0.7,2.1,0.9c0.8,0.2,1.5,0.3,2.3,0.3c0.6,0,1.1-0.1,1.3-0.3
		c0.3-0.2,0.4-0.4,0.4-0.8c0-0.4-0.2-0.7-0.5-0.9c-0.4-0.2-1-0.5-1.9-0.9c-1.7-0.6-3-1.4-4-2.2c-1-0.8-1.5-1.9-1.5-3.3
		c0-1.7,0.6-3,1.8-3.9s2.8-1.3,4.9-1.3c1.4,0,2.7,0.1,3.7,0.4c1,0.3,1.9,0.6,2.6,1.2c0.3,0.2,0.5,0.5,0.5,0.7c0,0.2-0.1,0.3-0.2,0.5
		l-1.5,2.3c-0.1,0.2-0.3,0.4-0.4,0.4c-0.1,0-0.3-0.1-0.5-0.2c-0.4-0.3-0.9-0.5-1.4-0.7c-0.5-0.2-1.1-0.3-1.8-0.3
		c-0.6,0-1,0.1-1.3,0.3c-0.3,0.2-0.5,0.4-0.5,0.8c0,0.3,0.1,0.6,0.3,0.8c0.2,0.2,0.5,0.4,0.8,0.5c0.3,0.1,0.9,0.4,1.6,0.7
		c1.3,0.5,2.2,1,3,1.4c0.7,0.5,1.3,1,1.6,1.6c0.4,0.6,0.5,1.5,0.5,2.4c0,1.5-0.6,2.7-1.7,3.6c-1.1,0.9-2.8,1.4-5,1.4
		C297.8,328.3,296.4,328.1,295.1,327.8z"/>
	<path class="st2" d="M177.9,357.6c-0.2-0.2-0.3-0.6-0.3-1.1v-14.2c0-0.5,0.1-0.8,0.3-1.1c0.2-0.2,0.6-0.3,1.2-0.3h3
		c0.6,0,1,0.1,1.2,0.3s0.3,0.6,0.3,1.1v14.2c0,0.5-0.1,0.8-0.3,1.1c-0.2,0.2-0.6,0.3-1.2,0.3h-3
		C178.5,357.9,178.1,357.8,177.9,357.6z"/>
	<path class="st2" d="M185.6,357.6c-0.2-0.2-0.3-0.6-0.3-1.1v-14.2c0-0.5,0.1-0.8,0.3-1.1c0.2-0.2,0.6-0.3,1.2-0.3h3
		c0.6,0,1,0.1,1.2,0.3s0.3,0.6,0.3,1.1v11.3h5.8c0.5,0,0.9,0.1,1.1,0.3c0.2,0.2,0.3,0.6,0.3,1.1v1.4c0,0.5-0.1,0.9-0.3,1.1
		c-0.2,0.2-0.6,0.3-1.1,0.3h-10.3C186.2,357.9,185.9,357.8,185.6,357.6z"/>
	<path class="st2" d="M199.6,357.6c-0.2-0.2-0.3-0.6-0.3-1.1v-14.2c0-0.5,0.1-0.8,0.3-1.1c0.2-0.2,0.6-0.3,1.2-0.3h3
		c0.6,0,1,0.1,1.2,0.3s0.3,0.6,0.3,1.1v14.2c0,0.5-0.1,0.8-0.3,1.1c-0.2,0.2-0.6,0.3-1.2,0.3h-3
		C200.2,357.9,199.8,357.8,199.6,357.6z"/>
	<path class="st2" d="M207.3,357.6c-0.2-0.2-0.3-0.6-0.3-1.1v-14.2c0-0.5,0.1-0.8,0.3-1.1s0.6-0.3,1.2-0.3h2.9c0.4,0,0.7,0,0.9,0.1
		c0.2,0.1,0.4,0.3,0.5,0.5l2.9,7.3l2.9-7.3c0.1-0.3,0.3-0.4,0.5-0.5c0.2-0.1,0.5-0.1,0.9-0.1h2.9c0.6,0,1,0.1,1.2,0.3
		s0.3,0.6,0.3,1.1v14.2c0,0.5-0.1,0.8-0.3,1.1c-0.2,0.2-0.6,0.3-1.2,0.3h-2.4c-0.5,0-0.9-0.1-1.2-0.3c-0.2-0.2-0.4-0.6-0.4-1.1v-6.8
		l-1.5,3.4c-0.2,0.5-0.4,0.8-0.6,1c-0.2,0.2-0.6,0.3-1.1,0.3c-0.5,0-0.9-0.1-1.2-0.3c-0.2-0.2-0.4-0.6-0.6-1l-1.5-3.4v6.8
		c0,0.5-0.1,0.8-0.3,1.1c-0.2,0.2-0.6,0.3-1.2,0.3h-2.4C207.9,357.9,207.6,357.8,207.3,357.6z"/>
	<path class="st2" d="M226.5,357.6c-0.2-0.2-0.3-0.6-0.3-1.1v-14.2c0-0.5,0.1-0.8,0.3-1.1c0.2-0.2,0.6-0.3,1.2-0.3h3
		c0.6,0,1,0.1,1.2,0.3s0.3,0.6,0.3,1.1v14.2c0,0.5-0.1,0.8-0.3,1.1c-0.2,0.2-0.6,0.3-1.2,0.3h-3
		C227.1,357.9,226.7,357.8,226.5,357.6z"/>
	<path class="st2" d="M238.2,357.6c-0.2-0.2-0.3-0.6-0.3-1.1v-11.3h-3.6c-0.5,0-0.9-0.1-1.1-0.3c-0.2-0.2-0.3-0.6-0.3-1.1v-1.4
		c0-0.5,0.1-0.9,0.3-1.1s0.6-0.3,1.1-0.3h13.2c0.5,0,0.9,0.1,1.1,0.3c0.2,0.2,0.3,0.6,0.3,1.1v1.4c0,0.5-0.1,0.9-0.3,1.1
		c-0.2,0.2-0.6,0.3-1.1,0.3h-3.6v11.3c0,0.5-0.1,0.8-0.3,1.1c-0.2,0.2-0.6,0.3-1.2,0.3h-3C238.8,357.9,238.4,357.8,238.2,357.6z"/>
	<path class="st2" d="M246,357.4c0-0.1,0-0.3,0.1-0.5l6.2-15c0.1-0.4,0.3-0.6,0.5-0.7c0.2-0.1,0.5-0.2,0.8-0.2h2.7
		c0.4,0,0.6,0.1,0.8,0.2c0.2,0.1,0.4,0.4,0.5,0.7l6.2,15c0.1,0.2,0.1,0.4,0.1,0.5c0,0.4-0.2,0.5-0.5,0.5h-4.7c-0.5,0-0.8-0.2-1-0.7
		l-0.6-1.9h-4.4l-0.6,1.9c-0.1,0.4-0.5,0.7-1,0.7h-4.7C246.1,357.9,246,357.8,246,357.4z M256,351.5l-1-3.1l-1,3.1H256z"/>
	<path class="st2" d="M265.6,357.6c-0.2-0.2-0.3-0.6-0.3-1.1v-14.2c0-0.5,0.1-0.8,0.3-1.1c0.2-0.2,0.6-0.3,1.2-0.3h5.8
		c5.9,0,8.8,2.8,8.8,8.5c0,2.8-0.8,4.9-2.3,6.3c-1.5,1.4-3.7,2.2-6.6,2.2h-5.8C266.2,357.9,265.8,357.8,265.6,357.6z M272.7,353.7
		c0.9,0,1.6-0.3,2-0.9c0.4-0.6,0.6-1.7,0.6-3.3s-0.2-2.7-0.6-3.3s-1.1-0.9-2-0.9h-1.5v8.5H272.7z"/>
	<path class="st2" d="M284.4,356c-1.5-1.5-2.3-3.7-2.3-6.6c0-2.8,0.8-5,2.3-6.6c1.5-1.5,3.8-2.3,6.8-2.3s5.2,0.8,6.8,2.3
		c1.5,1.5,2.3,3.7,2.3,6.6c0,2.8-0.8,5-2.3,6.6c-1.5,1.5-3.8,2.3-6.8,2.3S285.9,357.5,284.4,356z M293.5,352.9
		c0.5-0.8,0.7-1.9,0.7-3.5c0-1.6-0.2-2.8-0.7-3.5c-0.5-0.8-1.3-1.1-2.4-1.1s-1.9,0.4-2.3,1.1c-0.5,0.8-0.7,1.9-0.7,3.5
		c0,1.6,0.2,2.7,0.7,3.5c0.5,0.8,1.3,1.2,2.3,1.2S293,353.7,293.5,352.9z"/>
	<path class="st2" d="M303.5,357.8c-1.3-0.3-2.3-0.8-3.1-1.3c-0.3-0.2-0.5-0.5-0.5-0.7c0-0.2,0.1-0.3,0.2-0.5l1.4-2.3
		c0.1-0.2,0.3-0.3,0.5-0.3c0.1,0,0.3,0.1,0.5,0.2c0.6,0.4,1.3,0.7,2.1,0.9c0.8,0.2,1.5,0.3,2.3,0.3c0.6,0,1.1-0.1,1.3-0.3
		c0.3-0.2,0.4-0.4,0.4-0.8c0-0.4-0.2-0.7-0.5-0.9c-0.4-0.2-1-0.5-1.9-0.9c-1.7-0.6-3-1.4-4-2.2c-1-0.8-1.5-1.9-1.5-3.3
		c0-1.7,0.6-3,1.8-3.9s2.8-1.3,4.9-1.3c1.4,0,2.7,0.1,3.7,0.4c1,0.3,1.9,0.6,2.6,1.2c0.3,0.2,0.5,0.5,0.5,0.7c0,0.2-0.1,0.3-0.2,0.5
		l-1.5,2.3c-0.1,0.2-0.3,0.4-0.4,0.4c-0.1,0-0.3-0.1-0.5-0.2c-0.4-0.3-0.9-0.5-1.4-0.7c-0.5-0.2-1.1-0.3-1.8-0.3
		c-0.6,0-1,0.1-1.3,0.3c-0.3,0.2-0.5,0.4-0.5,0.8c0,0.3,0.1,0.6,0.3,0.8c0.2,0.2,0.5,0.4,0.8,0.5c0.3,0.1,0.9,0.4,1.6,0.7
		c1.3,0.5,2.2,1,3,1.4c0.7,0.5,1.3,1,1.6,1.6c0.4,0.6,0.5,1.5,0.5,2.4c0,1.5-0.6,2.7-1.7,3.6c-1.1,0.9-2.8,1.4-5,1.4
		C306.2,358.3,304.8,358.1,303.5,357.8z"/>
	<path class="st2" d="M325,356c-1.5-1.5-2.3-3.7-2.3-6.6c0-2.8,0.8-5,2.3-6.6c1.5-1.5,3.8-2.3,6.8-2.3s5.2,0.8,6.8,2.3
		c1.5,1.5,2.3,3.7,2.3,6.6c0,2.8-0.8,5-2.3,6.6c-1.5,1.5-3.8,2.3-6.8,2.3S326.5,357.5,325,356z M334.1,352.9
		c0.5-0.8,0.7-1.9,0.7-3.5c0-1.6-0.2-2.8-0.7-3.5c-0.5-0.8-1.3-1.1-2.4-1.1s-1.9,0.4-2.3,1.1c-0.5,0.8-0.7,1.9-0.7,3.5
		c0,1.6,0.2,2.7,0.7,3.5c0.5,0.8,1.3,1.2,2.3,1.2S333.6,353.7,334.1,352.9z"/>
	<path class="st2" d="M170.3,387.6c-0.2-0.2-0.3-0.6-0.3-1.1v-14.2c0-0.5,0.1-0.8,0.3-1.1c0.2-0.2,0.6-0.3,1.2-0.3h6
		c2.5,0,4.3,0.5,5.5,1.5s1.7,2.5,1.7,4.5s-0.6,3.5-1.7,4.5c-1.1,1-3,1.5-5.4,1.5h-1.5v3.7c0,0.5-0.1,0.8-0.3,1.1
		c-0.2,0.2-0.6,0.3-1.2,0.3h-3C170.9,387.9,170.5,387.8,170.3,387.6z M176.9,378.6c0.5,0,1-0.1,1.3-0.4c0.3-0.3,0.5-0.7,0.5-1.3
		c0-0.6-0.2-1-0.5-1.3c-0.3-0.3-0.7-0.4-1.3-0.4h-1.7v3.4H176.9z"/>
	<path class="st2" d="M186.5,386c-1.5-1.5-2.3-3.7-2.3-6.6c0-2.8,0.8-5,2.3-6.6c1.5-1.5,3.8-2.3,6.8-2.3s5.2,0.8,6.8,2.3
		c1.5,1.5,2.3,3.7,2.3,6.6c0,2.8-0.8,5-2.3,6.6c-1.5,1.5-3.8,2.3-6.8,2.3S188,387.5,186.5,386z M195.6,382.9
		c0.5-0.8,0.7-1.9,0.7-3.5c0-1.6-0.2-2.8-0.7-3.5c-0.5-0.8-1.3-1.1-2.4-1.1s-1.9,0.4-2.3,1.1c-0.5,0.8-0.7,1.9-0.7,3.5
		c0,1.6,0.2,2.7,0.7,3.5c0.5,0.8,1.3,1.2,2.3,1.2S195.1,383.7,195.6,382.9z"/>
	<path class="st2" d="M203.9,387.6c-0.2-0.2-0.3-0.6-0.3-1.1v-14.2c0-0.5,0.1-0.8,0.3-1.1c0.2-0.2,0.6-0.3,1.2-0.3h6
		c2.5,0,4.3,0.5,5.5,1.5s1.7,2.5,1.7,4.5c0,1.2-0.2,2.2-0.6,3c-0.4,0.8-1,1.5-1.9,1.9l2.3,5c0.1,0.1,0.1,0.3,0.1,0.4
		c0,0.2-0.1,0.3-0.2,0.5c-0.1,0.1-0.3,0.2-0.5,0.2h-4.2c-0.3,0-0.5,0-0.6-0.1c-0.2-0.1-0.3-0.2-0.3-0.4l-1.9-4.7h-0.9v3.7
		c0,0.5-0.1,0.8-0.3,1.1c-0.2,0.2-0.6,0.3-1.2,0.3h-3C204.5,387.9,204.1,387.8,203.9,387.6z M210.5,378.6c0.5,0,1-0.1,1.3-0.4
		c0.3-0.3,0.5-0.7,0.5-1.3c0-0.6-0.2-1-0.5-1.3c-0.3-0.3-0.7-0.4-1.3-0.4h-1.7v3.4H210.5z"/>
	<path class="st2" d="M229,386.1c-1.7-1.5-2.5-3.7-2.5-6.6c0-2.9,0.8-5.2,2.4-6.7c1.6-1.5,3.9-2.2,7-2.2c1.4,0,2.6,0.1,3.6,0.4
		c1.1,0.3,2,0.6,2.7,1.1c0.2,0.2,0.3,0.3,0.3,0.5c0,0.2-0.1,0.4-0.2,0.6l-1.3,2.2c-0.1,0.2-0.3,0.3-0.5,0.3c-0.1,0-0.3-0.1-0.6-0.2
		c-0.5-0.2-1-0.4-1.5-0.6c-0.5-0.1-1.1-0.2-1.8-0.2c-1.4,0-2.4,0.4-3.2,1.2c-0.7,0.8-1.1,2-1.1,3.5c0,1.5,0.4,2.7,1.2,3.5
		c0.8,0.8,1.9,1.2,3.3,1.2c1.2,0,2.3-0.3,3.3-0.8c0.3-0.1,0.5-0.2,0.6-0.2c0.2,0,0.3,0.1,0.5,0.4l1.3,2.1c0.2,0.3,0.2,0.5,0.2,0.6
		c0,0.2-0.1,0.4-0.3,0.5c-0.7,0.5-1.6,0.9-2.7,1.1c-1.1,0.3-2.3,0.4-3.7,0.4C233,388.3,230.7,387.6,229,386.1z"/>
	<path class="st2" d="M244.7,386c-1.5-1.5-2.3-3.7-2.3-6.6c0-2.8,0.8-5,2.3-6.6c1.5-1.5,3.8-2.3,6.8-2.3s5.2,0.8,6.8,2.3
		c1.5,1.5,2.3,3.7,2.3,6.6c0,2.8-0.8,5-2.3,6.6c-1.5,1.5-3.8,2.3-6.8,2.3S246.2,387.5,244.7,386z M253.8,382.9
		c0.5-0.8,0.7-1.9,0.7-3.5c0-1.6-0.2-2.8-0.7-3.5c-0.5-0.8-1.3-1.1-2.4-1.1s-1.9,0.4-2.3,1.1c-0.5,0.8-0.7,1.9-0.7,3.5
		c0,1.6,0.2,2.7,0.7,3.5c0.5,0.8,1.3,1.2,2.3,1.2S253.3,383.7,253.8,382.9z"/>
	<path class="st2" d="M262,387.6c-0.2-0.2-0.3-0.6-0.3-1.1v-14.2c0-0.5,0.1-0.8,0.3-1.1s0.6-0.3,1.2-0.3h2.4c0.4,0,0.6,0,0.8,0.1
		c0.2,0.1,0.4,0.3,0.6,0.5l4.5,6.7v-6c0-0.5,0.1-0.8,0.3-1.1c0.2-0.2,0.6-0.3,1.2-0.3h3c0.6,0,1,0.1,1.2,0.3s0.3,0.6,0.3,1.1v14.2
		c0,0.5-0.1,0.8-0.3,1.1c-0.2,0.2-0.6,0.3-1.2,0.3h-2.4c-0.4,0-0.6,0-0.8-0.1c-0.2-0.1-0.4-0.3-0.6-0.5l-4.5-6.7v6
		c0,0.5-0.1,0.8-0.3,1.1c-0.2,0.2-0.6,0.3-1.2,0.3h-3C262.7,387.9,262.3,387.8,262,387.6z"/>
	<path class="st2" d="M282.4,387.8c-1.3-0.3-2.3-0.8-3.1-1.3c-0.3-0.2-0.5-0.5-0.5-0.7c0-0.2,0.1-0.3,0.2-0.5l1.4-2.3
		c0.1-0.2,0.3-0.3,0.5-0.3c0.1,0,0.3,0.1,0.5,0.2c0.6,0.4,1.3,0.7,2.1,0.9c0.8,0.2,1.5,0.3,2.3,0.3c0.6,0,1.1-0.1,1.3-0.3
		c0.3-0.2,0.4-0.4,0.4-0.8c0-0.4-0.2-0.7-0.5-0.9c-0.4-0.2-1-0.5-1.9-0.9c-1.7-0.6-3-1.4-4-2.2c-1-0.8-1.5-1.9-1.5-3.3
		c0-1.7,0.6-3,1.8-3.9s2.8-1.3,4.9-1.3c1.4,0,2.7,0.1,3.7,0.4c1,0.3,1.9,0.6,2.6,1.2c0.3,0.2,0.5,0.5,0.5,0.7c0,0.2-0.1,0.3-0.2,0.5
		l-1.5,2.3c-0.1,0.2-0.3,0.4-0.4,0.4c-0.1,0-0.3-0.1-0.5-0.2c-0.4-0.3-0.9-0.5-1.4-0.7c-0.5-0.2-1.1-0.3-1.8-0.3
		c-0.6,0-1,0.1-1.3,0.3c-0.3,0.2-0.5,0.4-0.5,0.8c0,0.3,0.1,0.6,0.3,0.8c0.2,0.2,0.5,0.4,0.8,0.5c0.3,0.1,0.9,0.4,1.6,0.7
		c1.3,0.5,2.2,1,3,1.4c0.7,0.5,1.3,1,1.6,1.6c0.4,0.6,0.5,1.5,0.5,2.4c0,1.5-0.6,2.7-1.7,3.6c-1.1,0.9-2.8,1.4-5,1.4
		C285.1,388.3,283.7,388.1,282.4,387.8z"/>
	<path class="st2" d="M298.4,387.5c-1.2-0.5-2.2-1.3-2.9-2.3c-0.7-1-1-2.2-1-3.5v-9.3c0-0.5,0.1-0.8,0.3-1.1
		c0.2-0.2,0.6-0.3,1.2-0.3h3c0.6,0,1,0.1,1.2,0.3s0.3,0.6,0.3,1.1v9.4c0,0.8,0.2,1.4,0.6,1.8c0.4,0.4,0.9,0.6,1.6,0.6
		c0.7,0,1.2-0.2,1.6-0.6c0.4-0.4,0.6-1,0.6-1.8v-9.4c0-0.5,0.1-0.8,0.3-1.1c0.2-0.2,0.6-0.3,1.2-0.3h3c0.6,0,1,0.1,1.2,0.3
		s0.3,0.6,0.3,1.1v9.3c0,1.4-0.3,2.5-1,3.5c-0.7,1-1.6,1.8-2.9,2.3s-2.7,0.8-4.3,0.8C301.1,388.3,299.6,388,298.4,387.5z"/>
	<path class="st2" d="M312.9,387.6c-0.2-0.2-0.3-0.6-0.3-1.1v-14.2c0-0.5,0.1-0.8,0.3-1.1s0.6-0.3,1.2-0.3h2.9c0.4,0,0.7,0,0.9,0.1
		c0.2,0.1,0.4,0.3,0.5,0.5l2.9,7.3l2.9-7.3c0.1-0.3,0.3-0.4,0.5-0.5c0.2-0.1,0.5-0.1,0.9-0.1h2.9c0.6,0,1,0.1,1.2,0.3
		s0.3,0.6,0.3,1.1v14.2c0,0.5-0.1,0.8-0.3,1.1c-0.2,0.2-0.6,0.3-1.2,0.3H326c-0.5,0-0.9-0.1-1.2-0.3c-0.2-0.2-0.4-0.6-0.4-1.1v-6.8
		l-1.5,3.4c-0.2,0.5-0.4,0.8-0.6,1c-0.2,0.2-0.6,0.3-1.1,0.3c-0.5,0-0.9-0.1-1.2-0.3c-0.2-0.2-0.4-0.6-0.6-1l-1.5-3.4v6.8
		c0,0.5-0.1,0.8-0.3,1.1c-0.2,0.2-0.6,0.3-1.2,0.3H314C313.5,387.9,313.1,387.8,312.9,387.6z"/>
	<path class="st2" d="M332.6,386c-1.5-1.5-2.3-3.7-2.3-6.6c0-2.8,0.8-5,2.3-6.6c1.5-1.5,3.8-2.3,6.8-2.3s5.2,0.8,6.8,2.3
		c1.5,1.5,2.3,3.7,2.3,6.6c0,2.8-0.8,5-2.3,6.6c-1.5,1.5-3.8,2.3-6.8,2.3S334.1,387.5,332.6,386z M341.7,382.9
		c0.5-0.8,0.7-1.9,0.7-3.5c0-1.6-0.2-2.8-0.7-3.5c-0.5-0.8-1.3-1.1-2.4-1.1s-1.9,0.4-2.3,1.1c-0.5,0.8-0.7,1.9-0.7,3.5
		c0,1.6,0.2,2.7,0.7,3.5c0.5,0.8,1.3,1.2,2.3,1.2S341.2,383.7,341.7,382.9z"/>
</g>
<g>
	<circle class="st5" cx="256" cy="209" r="88"/>
	<g>
		<path class="st52" d="M273.1,258.8l-16.9-21.9c-0.3-0.4-0.9-0.5-1.3-0.2l-8.6,6.7c-0.4,0.3-0.5,0.9-0.2,1.3l0.2,0.2
			c-6-0.5-16.9-8.1-23.3-16.2c-6.3-8.3-10.8-20.7-9.8-26.7l0.2,0.2c0.3,0.4,0.9,0.5,1.3,0.2l8.6-6.7c0.4-0.3,0.5-0.9,0.2-1.3
			l-16.9-21.9c-0.3-0.4-0.9-0.5-1.3-0.2l-8.7,6.7c-0.4,0.3-0.5,0.9-0.2,1.3l0,0c-4.6,4.8-6.1,10.3-4.5,18.1
			c0.8,3.9,2.8,19.6,18.4,39.9c15.7,20.2,30.4,26.2,34,28c7.2,3.5,12.9,3.4,18.7,0.2l0,0c0.3,0.4,0.9,0.5,1.3,0.2l8.7-6.7
			C273.4,259.8,273.4,259.2,273.1,258.8z"/>
		<path class="st53" d="M282.2,191.3c16,0,29,10.3,29,23.1c0,3.4-0.9,6.6-2.6,9.5c3.1,8.8,9.3,11.6,9.3,11.6
			c-10.5,0.6-14.5-2.5-15.9-4.3c-5.2,3.9-12.1,6.2-19.8,6.2c-16,0-29-10.3-29-23.1C253.2,201.7,266.2,191.3,282.2,191.3z"/>
		<path class="st54" d="M266.6,152.2c-20.3,0-36.7,13.1-36.7,29.2c0,4.3,1.2,8.4,3.3,12.1c-3.9,11.2-11.8,14.7-11.8,14.7
			c13.3,0.7,18.4-3.2,20.2-5.4c6.6,4.9,15.4,7.9,25,7.9c20.3,0,36.7-13.1,36.7-29.2C303.3,165.3,286.8,152.2,266.6,152.2z"/>
		<g>
			<path class="st2" d="M277.5,224.5c0,1.6-1.3,2.8-2.8,2.8s-2.8-1.3-2.8-2.8c0-1.5,1.3-2.8,2.8-2.8S277.5,223,277.5,224.5z"/>
			<path class="st2" d="M285.9,224.5c0,1.6-1.3,2.8-2.8,2.8c-1.6,0-2.8-1.3-2.8-2.8c0-1.5,1.3-2.8,2.8-2.8
				C284.6,221.7,285.9,223,285.9,224.5z"/>
			<path class="st2" d="M294.3,224.5c0,1.6-1.3,2.8-2.8,2.8c-1.5,0-2.8-1.3-2.8-2.8c0-1.5,1.3-2.8,2.8-2.8
				C293,221.7,294.3,223,294.3,224.5z"/>
		</g>
		<g>
			<path class="st2" d="M259.3,181.4c0,1.6-1.3,2.8-2.8,2.8s-2.8-1.3-2.8-2.8c0-1.5,1.3-2.8,2.8-2.8S259.3,179.9,259.3,181.4z"/>
			<path class="st2" d="M267.7,181.4c0,1.6-1.3,2.8-2.8,2.8c-1.6,0-2.8-1.3-2.8-2.8c0-1.5,1.3-2.8,2.8-2.8
				C266.4,178.6,267.7,179.9,267.7,181.4z"/>
			<path class="st2" d="M276.1,181.4c0,1.6-1.3,2.8-2.8,2.8c-1.5,0-2.8-1.3-2.8-2.8c0-1.5,1.3-2.8,2.8-2.8
				C274.8,178.6,276.1,179.9,276.1,181.4z"/>
		</g>
	</g>
</g>
</svg>
