<?xml version="1.0" encoding="utf-8"?>
<!-- Generator: Adobe Illustrator 23.0.0, SVG Export Plug-In . SVG Version: 6.00 Build 0)  -->
<svg version="1.1" id="Capa_1" xmlns="http://www.w3.org/2000/svg" xmlns:xlink="http://www.w3.org/1999/xlink" x="0px" y="0px"
	 viewBox="0 0 500 500" style="enable-background:new 0 0 500 500;" xml:space="preserve">
<style type="text/css">
	.st0{fill:#0C2D44;}
	.st1{fill:#2C83AF;}
	.st2{fill:#FFFFFF;}
	.st3{fill:#00791D;}
	.st4{fill:#00D13C;}
	.st5{fill:#F2F2F2;}
	.st6{fill:#727272;}
	.st7{fill:#A3A3A3;}
	.st8{fill:#BCBCBC;}
	.st9{fill:none;}
	.st10{fill:#866A5E;}
	.st11{fill:#F7DDCB;}
	.st12{fill:#FFE6D4;}
	.st13{fill:#2D2D2D;}
	.st14{fill:#1C1B1A;}
	.st15{fill:#F5F5F5;}
	.st16{fill:#77181C;}
	.st17{fill:#EAEAEA;}
	.st18{fill:#262525;}
	.st19{fill:#11100F;}
	.st20{fill:#CCCDCE;}
	.st21{fill:#DFDFDF;}
	.st22{fill:#C2C2C2;}
	.st23{fill:#0085B0;}
	.st24{fill:#2A5936;}
	.st25{fill:#CD7054;}
	.st26{fill:#F1CC4B;}
	.st27{fill:#22272F;}
	.st28{fill:#1B2538;}
	.st29{fill:#253452;}
	.st30{fill:#F9F9F9;}
	.st31{fill:#2D3543;}
	.st32{fill:#2A3D60;}
	.st33{fill:#ACACAC;}
	.st34{fill:#6C92D5;}
	.st35{fill:#587955;}
	.st36{fill:#DAA449;}
	.st37{fill:#D4D4D4;}
	.st38{fill:#85B681;}
	.st39{fill:#A1DC9B;}
	.st40{fill:#90C58B;}
	.st41{fill:#81C378;}
	.st42{opacity:0.5;}
	.st43{fill:#A2CADE;}
	.st44{fill:#9BAEC9;}
	.st45{fill:#9D2B3B;}
	.st46{fill:#C1D4F2;}
	.st47{fill:#534D46;}
	.st48{fill:#191819;}
	.st49{fill:#222123;}
	.st50{fill:#F3FF00;}
	.st51{fill:none;stroke:#5A605A;stroke-width:4;stroke-miterlimit:10;}
	.st52{fill:#505050;}
	.st53{fill:#FFB412;}
	.st54{fill:#53C2C9;}
	.st55{fill:#008B9C;}
	.st56{fill:none;stroke:#00550B;stroke-width:4;stroke-miterlimit:10;}
</style>
<g>
	<circle class="st0" cx="272.5" cy="138.1" r="112"/>
	<circle class="st0" cx="161" cy="293.1" r="111.9"/>
	<circle class="st0" cx="346" cy="333.4" r="112"/>
</g>
<g>
	<circle class="st1" cx="268.4" cy="262.1" r="161.6"/>
</g>
<g>
	<path class="st2" d="M199.1,320.1c-1.7-1.5-2.5-3.7-2.5-6.6c0-2.9,0.8-5.2,2.4-6.7c1.6-1.5,3.9-2.2,7-2.2c1.4,0,2.6,0.1,3.7,0.4
		c1.1,0.3,2,0.6,2.7,1.1c0.2,0.2,0.3,0.3,0.3,0.5c0,0.2-0.1,0.4-0.2,0.6l-1.3,2.2c-0.1,0.2-0.3,0.3-0.5,0.3c-0.1,0-0.3-0.1-0.6-0.2
		c-0.5-0.2-1-0.4-1.5-0.6s-1.1-0.2-1.8-0.2c-1.4,0-2.4,0.4-3.2,1.2c-0.7,0.8-1.1,2-1.1,3.5c0,1.5,0.4,2.7,1.2,3.5
		c0.8,0.8,1.9,1.2,3.3,1.2c1.2,0,2.3-0.3,3.3-0.8c0.3-0.1,0.5-0.2,0.6-0.2c0.2,0,0.3,0.1,0.5,0.4l1.3,2.1c0.2,0.3,0.2,0.5,0.2,0.6
		c0,0.2-0.1,0.4-0.3,0.5c-0.7,0.5-1.6,0.9-2.7,1.1c-1.1,0.3-2.3,0.4-3.7,0.4C203.1,322.3,200.7,321.6,199.1,320.1z"/>
	<path class="st2" d="M212.9,321.4c0-0.1,0-0.3,0.1-0.5l6.2-15c0.2-0.4,0.3-0.6,0.5-0.7c0.2-0.1,0.5-0.2,0.8-0.2h2.7
		c0.3,0,0.6,0.1,0.8,0.2c0.2,0.1,0.4,0.4,0.5,0.7l6.2,15c0.1,0.2,0.1,0.4,0.1,0.5c0,0.4-0.2,0.5-0.5,0.5h-4.7c-0.5,0-0.8-0.2-1-0.7
		l-0.6-1.9h-4.4l-0.6,1.9c-0.1,0.4-0.5,0.7-1,0.7h-4.7C213.1,321.9,212.9,321.8,212.9,321.4z M222.9,315.5l-1-3.1l-1,3.1H222.9z"/>
	<path class="st2" d="M231.9,321.6c-0.2-0.2-0.3-0.6-0.3-1.1v-14.2c0-0.5,0.1-0.8,0.3-1.1s0.6-0.3,1.2-0.3h2.9c0.4,0,0.7,0,0.9,0.1
		c0.2,0.1,0.4,0.3,0.5,0.5l2.9,7.3l2.9-7.3c0.1-0.3,0.3-0.4,0.5-0.5c0.2-0.1,0.5-0.1,0.9-0.1h2.9c0.6,0,1,0.1,1.2,0.3
		c0.2,0.2,0.3,0.6,0.3,1.1v14.2c0,0.5-0.1,0.8-0.3,1.1c-0.2,0.2-0.6,0.3-1.2,0.3h-2.4c-0.6,0-0.9-0.1-1.2-0.3
		c-0.2-0.2-0.3-0.6-0.3-1.1v-6.8l-1.5,3.4c-0.2,0.5-0.4,0.8-0.7,1c-0.2,0.2-0.6,0.3-1.2,0.3s-0.9-0.1-1.2-0.3
		c-0.2-0.2-0.4-0.6-0.6-1l-1.5-3.4v6.8c0,0.5-0.1,0.8-0.3,1.1c-0.2,0.2-0.6,0.3-1.2,0.3h-2.4C232.6,321.9,232.2,321.8,231.9,321.6z"
		/>
	<path class="st2" d="M251.1,321.6c-0.2-0.2-0.3-0.6-0.3-1.1v-14.2c0-0.5,0.1-0.8,0.3-1.1c0.2-0.2,0.6-0.3,1.2-0.3h6
		c2.5,0,4.3,0.5,5.5,1.5s1.7,2.5,1.7,4.5s-0.6,3.5-1.7,4.5c-1.1,1-3,1.5-5.4,1.5h-1.5v3.7c0,0.5-0.1,0.8-0.3,1.1
		c-0.2,0.2-0.6,0.3-1.2,0.3h-3C251.7,321.9,251.3,321.8,251.1,321.6z M257.7,312.6c0.5,0,1-0.1,1.3-0.4s0.5-0.7,0.5-1.3
		c0-0.6-0.2-1-0.5-1.3s-0.7-0.4-1.3-0.4H256v3.4H257.7z"/>
	<path class="st2" d="M263.2,321.4c0-0.1,0-0.3,0.1-0.5l6.2-15c0.1-0.4,0.3-0.6,0.5-0.7c0.2-0.1,0.5-0.2,0.8-0.2h2.7
		c0.3,0,0.6,0.1,0.8,0.2c0.2,0.1,0.4,0.4,0.5,0.7l6.2,15c0.1,0.2,0.1,0.4,0.1,0.5c0,0.4-0.2,0.5-0.6,0.5H276c-0.5,0-0.8-0.2-1-0.7
		l-0.6-1.9H270l-0.6,1.9c-0.1,0.4-0.5,0.7-1,0.7h-4.7C263.3,321.9,263.2,321.8,263.2,321.4z M273.2,315.5l-1-3.1l-1,3.1H273.2z"/>
	<path class="st2" d="M282.8,321.6c-0.2-0.2-0.3-0.6-0.3-1.1v-14.2c0-0.5,0.1-0.8,0.3-1.1c0.2-0.2,0.6-0.3,1.2-0.3h2.4
		c0.3,0,0.6,0,0.8,0.1c0.2,0.1,0.4,0.3,0.6,0.5l4.5,6.7v-6c0-0.5,0.1-0.8,0.3-1.1c0.2-0.2,0.6-0.3,1.2-0.3h3c0.6,0,1,0.1,1.2,0.3
		c0.2,0.2,0.3,0.6,0.3,1.1v14.2c0,0.5-0.1,0.8-0.3,1.1c-0.2,0.2-0.6,0.3-1.2,0.3h-2.4c-0.4,0-0.6,0-0.8-0.1
		c-0.2-0.1-0.4-0.3-0.6-0.5l-4.5-6.7v6c0,0.5-0.1,0.8-0.3,1.1c-0.2,0.2-0.6,0.3-1.2,0.3h-3C283.4,321.9,283,321.8,282.8,321.6z
		 M291.6,303.5c-0.3-0.1-0.7-0.3-1.1-0.5c-0.4-0.2-0.7-0.3-1-0.4c-0.2-0.1-0.5-0.1-0.7-0.1c-0.3,0-0.5,0.1-0.7,0.2
		c-0.2,0.1-0.4,0.3-0.7,0.7c-0.2,0.2-0.4,0.3-0.6,0.3c-0.3,0-0.8-0.3-1.5-0.8c-0.3-0.3-0.6-0.5-0.8-0.7c-0.1-0.2-0.2-0.4-0.2-0.5
		c0-0.2,0.1-0.5,0.4-0.9c0.6-0.8,1.1-1.4,1.6-1.8c0.5-0.4,1.1-0.5,1.8-0.5c0.5,0,0.9,0.1,1.3,0.2c0.4,0.1,0.8,0.3,1.2,0.6
		c0.3,0.2,0.6,0.3,0.8,0.4s0.4,0.1,0.6,0.1c0.3,0,0.5-0.1,0.7-0.2c0.2-0.1,0.4-0.3,0.7-0.6c0.2-0.2,0.4-0.3,0.6-0.3
		c0.3,0,0.8,0.3,1.5,0.8c0.3,0.2,0.6,0.4,0.7,0.6c0.1,0.2,0.2,0.4,0.2,0.6c0,0.2-0.1,0.5-0.4,0.9c-0.6,0.8-1.1,1.4-1.6,1.7
		c-0.5,0.3-1.1,0.5-1.8,0.5C292.2,303.7,291.9,303.7,291.6,303.5z"/>
	<path class="st2" d="M299.5,321.4c0-0.1,0-0.3,0.1-0.5l6.2-15c0.1-0.4,0.3-0.6,0.5-0.7c0.2-0.1,0.5-0.2,0.8-0.2h2.7
		c0.4,0,0.6,0.1,0.8,0.2c0.2,0.1,0.4,0.4,0.5,0.7l6.2,15c0.1,0.2,0.1,0.4,0.1,0.5c0,0.4-0.2,0.5-0.5,0.5h-4.7c-0.5,0-0.8-0.2-1-0.7
		l-0.6-1.9h-4.4l-0.6,1.9c-0.1,0.4-0.5,0.7-1,0.7h-4.7C299.7,321.9,299.5,321.8,299.5,321.4z M309.5,315.5l-1-3.1l-1,3.1H309.5z"/>
	<path class="st2" d="M320.9,321.8c-1.3-0.3-2.3-0.8-3.1-1.3c-0.3-0.2-0.5-0.5-0.5-0.7c0-0.2,0.1-0.3,0.2-0.5l1.5-2.3
		c0.1-0.2,0.3-0.3,0.4-0.3c0.1,0,0.3,0.1,0.5,0.2c0.6,0.4,1.3,0.7,2.1,0.9c0.8,0.2,1.5,0.3,2.3,0.3c0.6,0,1.1-0.1,1.3-0.3
		c0.3-0.2,0.4-0.4,0.4-0.8c0-0.4-0.2-0.7-0.6-0.9c-0.4-0.2-1-0.5-1.9-0.9c-1.7-0.6-3-1.4-4-2.2c-1-0.8-1.4-1.9-1.4-3.3
		c0-1.7,0.6-3,1.8-3.9c1.2-0.9,2.8-1.3,4.9-1.3c1.4,0,2.7,0.1,3.7,0.4c1,0.3,1.9,0.6,2.6,1.2c0.3,0.2,0.5,0.5,0.5,0.7
		c0,0.2-0.1,0.3-0.2,0.5l-1.4,2.3c-0.2,0.2-0.3,0.4-0.5,0.4c-0.1,0-0.3-0.1-0.5-0.2c-0.4-0.3-0.9-0.5-1.4-0.7s-1.1-0.3-1.8-0.3
		c-0.6,0-1,0.1-1.3,0.3c-0.3,0.2-0.5,0.4-0.5,0.8c0,0.3,0.1,0.6,0.3,0.8c0.2,0.2,0.5,0.4,0.8,0.5c0.3,0.1,0.9,0.4,1.7,0.7
		c1.3,0.5,2.2,1,3,1.4c0.7,0.5,1.3,1,1.6,1.6c0.4,0.6,0.5,1.5,0.5,2.4c0,1.5-0.6,2.7-1.7,3.6c-1.1,0.9-2.8,1.4-5,1.4
		C323.6,322.3,322.2,322.1,320.9,321.8z"/>
	<path class="st2" d="M183.5,351.6c-0.2-0.2-0.3-0.6-0.3-1.1v-14.2c0-0.5,0.1-0.8,0.3-1.1c0.2-0.2,0.6-0.3,1.2-0.3h5.8
		c5.9,0,8.8,2.8,8.8,8.5c0,2.8-0.8,4.9-2.3,6.3c-1.5,1.4-3.7,2.2-6.6,2.2h-5.8C184.1,351.9,183.7,351.8,183.5,351.6z M190.6,347.7
		c0.9,0,1.6-0.3,2-0.9c0.4-0.6,0.6-1.7,0.6-3.3s-0.2-2.7-0.6-3.3s-1.1-0.9-2-0.9h-1.5v8.5H190.6z"/>
	<path class="st2" d="M200.8,351.6c-0.2-0.2-0.3-0.6-0.3-1.1v-14.2c0-0.5,0.1-0.8,0.3-1.1c0.2-0.2,0.6-0.3,1.2-0.3h10.4
		c0.5,0,0.9,0.1,1.1,0.3s0.3,0.6,0.3,1.1v1.4c0,0.5-0.1,0.9-0.3,1.1c-0.2,0.2-0.6,0.3-1.1,0.3h-5.9v2.2h3.6c0.5,0,0.9,0.1,1.1,0.3
		s0.3,0.6,0.3,1.1v1.3c0,0.5-0.1,0.9-0.3,1.1c-0.2,0.2-0.6,0.3-1.1,0.3h-3.6v2.2h5.8c0.5,0,0.9,0.1,1.1,0.3c0.2,0.2,0.3,0.6,0.3,1.1
		v1.4c0,0.5-0.1,0.9-0.3,1.1c-0.2,0.2-0.6,0.3-1.1,0.3H202C201.4,351.9,201,351.8,200.8,351.6z"/>
	<path class="st2" d="M224.3,350.1c-1.7-1.5-2.5-3.7-2.5-6.6c0-2.9,0.8-5.2,2.4-6.7c1.6-1.5,3.9-2.2,7-2.2c1.4,0,2.6,0.1,3.7,0.4
		c1.1,0.3,2,0.6,2.7,1.1c0.2,0.2,0.3,0.3,0.3,0.5c0,0.2-0.1,0.4-0.2,0.6l-1.3,2.2c-0.1,0.2-0.3,0.3-0.5,0.3c-0.1,0-0.3-0.1-0.6-0.2
		c-0.5-0.2-1-0.4-1.5-0.6s-1.1-0.2-1.8-0.2c-1.4,0-2.4,0.4-3.2,1.2c-0.7,0.8-1.1,2-1.1,3.5c0,1.5,0.4,2.7,1.2,3.5
		c0.8,0.8,1.9,1.2,3.3,1.2c1.2,0,2.3-0.3,3.3-0.8c0.3-0.1,0.5-0.2,0.6-0.2c0.2,0,0.3,0.1,0.5,0.4l1.3,2.1c0.2,0.3,0.2,0.5,0.2,0.6
		c0,0.2-0.1,0.4-0.3,0.5c-0.7,0.5-1.6,0.9-2.7,1.1c-1.1,0.3-2.3,0.4-3.7,0.4C228.4,352.3,226,351.6,224.3,350.1z"/>
	<path class="st2" d="M240,350c-1.5-1.5-2.3-3.7-2.3-6.6c0-2.8,0.8-5,2.3-6.6c1.5-1.5,3.8-2.3,6.8-2.3s5.2,0.8,6.8,2.3
		c1.5,1.5,2.3,3.7,2.3,6.6c0,2.8-0.8,5-2.3,6.6c-1.5,1.5-3.8,2.3-6.8,2.3S241.5,351.5,240,350z M249.1,346.9
		c0.5-0.8,0.7-1.9,0.7-3.5c0-1.6-0.2-2.8-0.7-3.5c-0.5-0.8-1.3-1.1-2.4-1.1s-1.9,0.4-2.3,1.1c-0.5,0.8-0.7,1.9-0.7,3.5
		c0,1.6,0.2,2.7,0.7,3.5c0.5,0.8,1.3,1.2,2.3,1.2S248.6,347.7,249.1,346.9z"/>
	<path class="st2" d="M257.4,351.6c-0.2-0.2-0.3-0.6-0.3-1.1v-14.2c0-0.5,0.1-0.8,0.3-1.1s0.6-0.3,1.2-0.3h2.4c0.3,0,0.6,0,0.8,0.1
		s0.4,0.3,0.6,0.5l4.5,6.7v-6c0-0.5,0.1-0.8,0.3-1.1c0.2-0.2,0.6-0.3,1.2-0.3h3c0.6,0,1,0.1,1.2,0.3s0.3,0.6,0.3,1.1v14.2
		c0,0.5-0.1,0.8-0.3,1.1c-0.2,0.2-0.6,0.3-1.2,0.3H269c-0.3,0-0.6,0-0.8-0.1s-0.4-0.3-0.6-0.5l-4.5-6.7v6c0,0.5-0.1,0.8-0.3,1.1
		c-0.2,0.2-0.6,0.3-1.2,0.3h-3C258,351.9,257.6,351.8,257.4,351.6z"/>
	<path class="st2" d="M278.9,351.6c-0.2-0.2-0.3-0.6-0.3-1.1v-11.3H275c-0.5,0-0.9-0.1-1.1-0.3c-0.2-0.2-0.3-0.6-0.3-1.1v-1.4
		c0-0.5,0.1-0.9,0.3-1.1s0.6-0.3,1.1-0.3h13.2c0.5,0,0.9,0.1,1.1,0.3s0.3,0.6,0.3,1.1v1.4c0,0.5-0.1,0.9-0.3,1.1
		c-0.2,0.2-0.6,0.3-1.1,0.3h-3.6v11.3c0,0.5-0.1,0.8-0.3,1.1c-0.2,0.2-0.6,0.3-1.2,0.3h-3C279.5,351.9,279.2,351.8,278.9,351.6z"/>
	<path class="st2" d="M286.7,351.4c0-0.1,0-0.3,0.1-0.5l6.2-15c0.2-0.4,0.3-0.6,0.5-0.7c0.2-0.1,0.5-0.2,0.8-0.2h2.7
		c0.3,0,0.6,0.1,0.8,0.2c0.2,0.1,0.4,0.4,0.5,0.7l6.2,15c0.1,0.2,0.1,0.4,0.1,0.5c0,0.4-0.2,0.5-0.5,0.5h-4.7c-0.5,0-0.8-0.2-1-0.7
		l-0.6-1.9h-4.4l-0.6,1.9c-0.1,0.4-0.5,0.7-1,0.7h-4.7C286.9,351.9,286.7,351.8,286.7,351.4z M296.7,345.5l-1-3.1l-1,3.1H296.7z"/>
	<path class="st2" d="M306.6,350.1c-1.7-1.5-2.5-3.7-2.5-6.6c0-2.9,0.8-5.2,2.4-6.7c1.6-1.5,3.9-2.2,7-2.2c1.4,0,2.6,0.1,3.6,0.4
		c1.1,0.3,2,0.6,2.7,1.1c0.2,0.2,0.3,0.3,0.3,0.5c0,0.2-0.1,0.4-0.2,0.6l-1.3,2.2c-0.1,0.2-0.3,0.3-0.5,0.3c-0.1,0-0.3-0.1-0.6-0.2
		c-0.5-0.2-1-0.4-1.5-0.6c-0.5-0.1-1.1-0.2-1.8-0.2c-1.4,0-2.4,0.4-3.2,1.2s-1.1,2-1.1,3.5c0,1.5,0.4,2.7,1.2,3.5
		c0.8,0.8,1.9,1.2,3.3,1.2c1.2,0,2.3-0.3,3.3-0.8c0.3-0.1,0.5-0.2,0.6-0.2c0.2,0,0.3,0.1,0.5,0.4l1.3,2.1c0.2,0.3,0.2,0.5,0.2,0.6
		c0,0.2-0.1,0.4-0.3,0.5c-0.7,0.5-1.6,0.9-2.7,1.1c-1.1,0.3-2.3,0.4-3.7,0.4C310.7,352.3,308.3,351.6,306.6,350.1z"/>
	<path class="st2" d="M325.3,351.6c-0.2-0.2-0.3-0.6-0.3-1.1v-11.3h-3.6c-0.5,0-0.9-0.1-1.1-0.3c-0.2-0.2-0.3-0.6-0.3-1.1v-1.4
		c0-0.5,0.1-0.9,0.3-1.1s0.6-0.3,1.1-0.3h13.2c0.5,0,0.9,0.1,1.1,0.3c0.2,0.2,0.3,0.6,0.3,1.1v1.4c0,0.5-0.1,0.9-0.3,1.1
		c-0.2,0.2-0.6,0.3-1.1,0.3H331v11.3c0,0.5-0.1,0.8-0.3,1.1c-0.2,0.2-0.6,0.3-1.2,0.3h-3C325.9,351.9,325.6,351.8,325.3,351.6z"/>
	<path class="st2" d="M337.4,350c-1.5-1.5-2.3-3.7-2.3-6.6c0-2.8,0.8-5,2.3-6.6c1.5-1.5,3.8-2.3,6.8-2.3s5.2,0.8,6.8,2.3
		c1.5,1.5,2.3,3.7,2.3,6.6c0,2.8-0.8,5-2.3,6.6c-1.5,1.5-3.8,2.3-6.8,2.3S338.9,351.5,337.4,350z M346.5,346.9
		c0.5-0.8,0.7-1.9,0.7-3.5c0-1.6-0.2-2.8-0.7-3.5c-0.5-0.8-1.3-1.1-2.4-1.1s-1.9,0.4-2.3,1.1c-0.5,0.8-0.7,1.9-0.7,3.5
		c0,1.6,0.2,2.7,0.7,3.5c0.5,0.8,1.3,1.2,2.3,1.2S346,347.7,346.5,346.9z"/>
	<path class="st2" d="M221.7,381.6c-0.2-0.2-0.3-0.6-0.3-1.1v-14.2c0-0.5,0.1-0.8,0.3-1.1c0.2-0.2,0.6-0.3,1.2-0.3h2.9
		c0.4,0,0.7,0,0.9,0.1c0.2,0.1,0.4,0.3,0.5,0.5l2.9,7.3l2.9-7.3c0.1-0.3,0.3-0.4,0.5-0.5s0.5-0.1,0.9-0.1h2.9c0.6,0,1,0.1,1.2,0.3
		s0.3,0.6,0.3,1.1v14.2c0,0.5-0.1,0.8-0.3,1.1c-0.2,0.2-0.6,0.3-1.2,0.3h-2.4c-0.5,0-0.9-0.1-1.2-0.3c-0.2-0.2-0.4-0.6-0.4-1.1v-6.8
		l-1.5,3.4c-0.2,0.5-0.4,0.8-0.7,1c-0.2,0.2-0.6,0.3-1.1,0.3c-0.5,0-0.9-0.1-1.2-0.3c-0.2-0.2-0.5-0.6-0.6-1l-1.5-3.4v6.8
		c0,0.5-0.1,0.8-0.3,1.1c-0.2,0.2-0.6,0.3-1.2,0.3h-2.4C222.3,381.9,221.9,381.8,221.7,381.6z"/>
	<path class="st2" d="M239.4,381.4c0-0.1,0-0.3,0.1-0.5l6.2-15c0.2-0.4,0.3-0.6,0.5-0.7c0.2-0.1,0.5-0.2,0.8-0.2h2.7
		c0.4,0,0.6,0.1,0.8,0.2c0.2,0.1,0.4,0.4,0.5,0.7l6.2,15c0.1,0.2,0.1,0.4,0.1,0.5c0,0.4-0.2,0.5-0.5,0.5h-4.7c-0.5,0-0.8-0.2-1-0.7
		l-0.6-1.9h-4.4l-0.6,1.9c-0.1,0.4-0.5,0.7-1,0.7h-4.7C239.6,381.9,239.4,381.8,239.4,381.4z M249.4,375.5l-1-3.1l-1,3.1H249.4z"/>
	<path class="st2" d="M260.7,381.8c-1.3-0.3-2.3-0.8-3.2-1.3c-0.3-0.2-0.5-0.5-0.5-0.7c0-0.2,0.1-0.3,0.2-0.5l1.4-2.3
		c0.2-0.2,0.3-0.3,0.5-0.3c0.1,0,0.3,0.1,0.5,0.2c0.6,0.4,1.3,0.7,2.1,0.9s1.5,0.3,2.3,0.3c0.6,0,1.1-0.1,1.3-0.3s0.4-0.4,0.4-0.8
		c0-0.4-0.2-0.7-0.5-0.9c-0.4-0.2-1-0.5-1.9-0.9c-1.7-0.6-3-1.4-4-2.2c-1-0.8-1.5-1.9-1.5-3.3c0-1.7,0.6-3,1.8-3.9
		c1.2-0.9,2.8-1.3,4.9-1.3c1.4,0,2.7,0.1,3.7,0.4c1,0.3,1.9,0.6,2.6,1.2c0.3,0.2,0.5,0.5,0.5,0.7c0,0.2-0.1,0.3-0.2,0.5l-1.5,2.3
		c-0.1,0.2-0.3,0.4-0.4,0.4c-0.1,0-0.3-0.1-0.5-0.2c-0.4-0.3-0.9-0.5-1.4-0.7c-0.5-0.2-1.1-0.3-1.8-0.3c-0.6,0-1,0.1-1.3,0.3
		c-0.3,0.2-0.5,0.4-0.5,0.8c0,0.3,0.1,0.6,0.3,0.8c0.2,0.2,0.5,0.4,0.8,0.5c0.3,0.1,0.9,0.4,1.6,0.7c1.3,0.5,2.2,1,3,1.4
		c0.7,0.5,1.3,1,1.6,1.6c0.4,0.6,0.5,1.5,0.5,2.4c0,1.5-0.6,2.7-1.7,3.6c-1.1,0.9-2.8,1.4-5,1.4C263.4,382.3,262,382.1,260.7,381.8z
		"/>
	<path class="st2" d="M273.3,381.6c-0.2-0.2-0.3-0.6-0.3-1.1v-14.2c0-0.5,0.1-0.8,0.3-1.1c0.2-0.2,0.6-0.3,1.2-0.3h3
		c0.6,0,1,0.1,1.2,0.3s0.3,0.6,0.3,1.1v14.2c0,0.5-0.1,0.8-0.3,1.1c-0.2,0.2-0.6,0.3-1.2,0.3h-3
		C273.9,381.9,273.5,381.8,273.3,381.6z"/>
	<path class="st2" d="M286.8,381.7c-0.2-0.1-0.4-0.4-0.5-0.7l-6-15c-0.1-0.2-0.1-0.4-0.1-0.6c0-0.3,0.2-0.5,0.6-0.5h4.7
		c0.5,0,0.8,0.2,1,0.7l2.5,8.2l2.6-8.2c0.1-0.5,0.5-0.7,1-0.7h4.7c0.4,0,0.6,0.2,0.6,0.5c0,0.2,0,0.3-0.1,0.6l-6,15
		c-0.1,0.3-0.3,0.6-0.5,0.7c-0.2,0.1-0.5,0.2-0.8,0.2h-2.7C287.2,381.9,287,381.9,286.8,381.7z"/>
	<path class="st2" d="M299.2,380c-1.5-1.5-2.3-3.7-2.3-6.6c0-2.8,0.8-5,2.3-6.6c1.5-1.5,3.8-2.3,6.8-2.3s5.2,0.8,6.8,2.3
		c1.5,1.5,2.3,3.7,2.3,6.6c0,2.8-0.8,5-2.3,6.6c-1.5,1.5-3.8,2.3-6.8,2.3S300.7,381.5,299.2,380z M308.3,376.9
		c0.5-0.8,0.7-1.9,0.7-3.5c0-1.6-0.2-2.8-0.7-3.5c-0.5-0.8-1.3-1.1-2.4-1.1s-1.9,0.4-2.3,1.1c-0.5,0.8-0.7,1.9-0.7,3.5
		c0,1.6,0.2,2.7,0.7,3.5c0.5,0.8,1.3,1.2,2.3,1.2S307.8,377.7,308.3,376.9z"/>
</g>
<g>
	<g>
		<circle id="XMLID_484_" class="st5" cx="265.5" cy="154.5" r="40"/>
		<g id="XMLID_460_">
			<path id="XMLID_483_" class="st9" d="M276.7,152.9c0.5-1.3,0.8-2.3,0.8-2.5c0,0-0.1,0-0.1-0.1c-0.1-0.1,0.2-1.4,0.1-1.5
				c0,0,0,0,0,0c-0.1,0.5-0.4,0.8-0.7,1.1C276.7,150.9,276.7,151.9,276.7,152.9z"/>
			<path id="XMLID_482_" class="st10" d="M274.9,150.4c-0.6-0.4-0.6,5.6-3,7.9c-0.2,0.2-0.4,0.3-0.5,0.5c-0.2,0.2-0.4,0.3-0.6,0.5
				c0,0.1,0,0.2,0,0.3c2.3-0.7,3.9-2.7,4.9-4.4c0.4-0.8,0.8-1.5,1.1-2.2c0-1,0-2,0-3c-0.2,0.2-0.4,0.3-0.6,0.3
				C275.7,150.6,275.3,150.7,274.9,150.4z"/>
			<path id="XMLID_481_" class="st10" d="M255.8,166.3c-0.1,0-0.3,0.1-0.4,0.4C255.5,166.6,255.6,166.5,255.8,166.3z"/>
			<path id="XMLID_480_" class="st10" d="M270.7,159.8c0.1,1.3,0.3,3,1.4,4.6c0.4-0.3,0.5-0.4,0.7-0.2c0.8,1.3,1.6,2.1,2.1,2.5
				c-0.2-0.4-0.5-0.5-0.5-0.5s0.6-0.2,1.6,0.6c0.2,0.2,0.6,0.5,1.1,0.8c-0.5-2.6-0.4-8.4-0.4-14.1c-0.2,0.5-0.5,1.1-0.8,1.6
				C274.4,157.7,272.7,159.3,270.7,159.8z"/>
			<path id="XMLID_479_" class="st10" d="M255.8,166.3c0.5-0.5,1-1.1,1.6-2c0.1-0.2,0.3-0.1,0.7,0.2c1.2-1.8,1.4-3.8,1.4-5.2
				c-0.4-0.3-0.8-0.6-1.1-1c-2.5-2.4-2.4-8.4-3-7.9c-0.5,0.3-0.9,0.2-1.2-0.1c-0.1,0-0.2-0.1-0.4-0.2c0,6.5,0.3,14.2-0.3,17.5
				c0.3-0.3,0.6-0.5,0.8-0.6C255.2,166.1,255.7,166.3,255.8,166.3z"/>
			<path id="XMLID_478_" class="st11" d="M270.2,159.6c0.2,0,0.3-0.1,0.5-0.1c0-0.1,0-0.2,0-0.3
				C270.5,159.4,270.4,159.5,270.2,159.6z"/>
			<path id="XMLID_477_" class="st11" d="M265,170.8c0,0,0.1,0.1,0.1,0.1c0,0,0-0.1,0.1-0.1c4.3-3.3,6.1-5.5,7-6.3
				c-1.1-1.6-1.3-3.3-1.4-4.6c-0.4,0.1-0.7,0.2-1.1,0.2c-0.1,0.5-0.6,1.3-2.1,1.3c-0.3,0-0.6,0-0.8-0.1c-0.2,0-0.5,0.1-0.7,0.1
				c-0.7,0.1-1.5,0.1-2.2-0.1c-0.6-0.1-1.2-0.3-1.7-0.5c-0.6-0.2-1.2-0.6-1.8-0.9c-0.3-0.2-0.5-0.4-0.7-0.6c0,1.4-0.2,3.4-1.4,5.2
				C258.9,165.3,260.8,167.5,265,170.8z"/>
			<path id="XMLID_476_" class="st11" d="M265.1,171C265.1,171,265.1,171,265.1,171L265.1,171C265.1,171,265.1,171,265.1,171z"/>
			<path id="XMLID_475_" class="st12" d="M262,160.8c0.6,0.2,1.1,0.4,1.7,0.5c0.7,0.1,1.5,0.1,2.2,0.1c0.2,0,0.5-0.1,0.7-0.1
				c-1-0.3-1.1-1.1-1.1-1.4c0-0.3,0.2-1.5,2-1.5c1.7,0,2.1,1,2.1,1.4c0.2,0,0.4,0,0.6-0.1c0.2-0.1,0.3-0.2,0.5-0.4
				c0.2-0.2,0.4-0.3,0.6-0.5c0.2-0.2,0.4-0.3,0.5-0.5c2.5-2.4,2.4-8.4,3-7.9c0.5,0.3,0.9,0.2,1.2-0.2c-0.3,0.1-0.6,0.1-0.8,0
				c-0.3-0.2,0-1.9,0.3-4.4c0,0-0.1,0-0.1,0c-0.5,0.3-1-3.7-3.3-5.6c-2.2-1.9-2.4-3.1-2.4-3.1c-2.2,0.3-4.4,1.1-8.1,4
				c-2.9,2.3-5.5,4.7-6.7,5c-0.1,0-0.2-0.1-0.3-0.2c0.2,2.5,0.6,4.1,0.2,4.4c-0.2,0.1-0.4,0.1-0.7,0c0.3,0.3,0.7,0.5,1.2,0.1
				c0.6-0.4,0.6,5.6,3,7.9c0.4,0.3,0.7,0.7,1.1,1c0.2,0.2,0.5,0.4,0.7,0.6C260.8,160.2,261.4,160.5,262,160.8z"/>
			<path id="XMLID_474_" class="st10" d="M253.7,141.4c0.1-2.2,2.1-10.1,11.4-10.1c9.3,0,11.3,8,11.4,10.1c0.1,1.4-0.1,2.2,0,2.7
				c0-0.5,0.1-1.1,0.1-1.9c0-4.2-1.7-8.5-4.4-9.2c-1.3-0.3-1.5-1.6-4.4-2.5c-4.7-1.4-10,0.5-12.7,5c-1.9,3.2-2,7.6-1.8,9.1
				C253.9,144.3,253.6,143.5,253.7,141.4z"/>
			<path id="XMLID_473_" class="st10" d="M254.9,146.1c1.2-0.3,3.8-2.6,6.7-5c3.7-2.9,5.9-3.8,8.1-4c0,0,0.2,1.3,2.4,3.1
				c2.2,1.9,2.8,5.8,3.3,5.6c0,0,0.1,0,0.1,0c0-0.3,0-0.5,0.1-0.8c0.2-3,0.2-4-0.1-5.1c-2.3-8.4-10.4-7.8-10.4-7.8
				s-7.9-0.7-10.4,7.7c-0.3,1.1-0.4,2.2-0.1,5.2c0,0.3,0.1,0.6,0.1,0.9C254.7,146,254.8,146.1,254.9,146.1z"/>
			<path id="XMLID_472_" class="st13" d="M254.9,150.2c0.3-0.2,0-1.8-0.2-4.4c0-0.3-0.1-0.6-0.1-0.9c-0.2-3-0.2-4.1,0.1-5.2
				c2.5-8.5,10.4-7.7,10.4-7.7s8.2-0.6,10.4,7.8c0.3,1.1,0.3,2.1,0.1,5.1c0,0.3,0,0.6-0.1,0.8c-0.2,2.6-0.6,4.2-0.3,4.4
				c0.2,0.1,0.5,0.1,0.8,0c0.2-0.1,0.4-0.2,0.6-0.3c0.3-0.3,0.6-0.6,0.7-1.1c-0.1,0-0.3,0.1-0.4-0.1c-0.1-0.2-0.1-1.3,0-1.5
				c0.1-0.2,0.2-0.3,0.5-0.3c0,0,0,0,0.1,0c0-1-0.1-2-0.6-2.2c-0.3-0.1-0.4-0.3-0.5-0.6c-0.1-0.5,0-1.3,0-2.7
				c-0.1-2.2-2.1-10.1-11.4-10.1c-9.3,0-11.3,8-11.4,10.1c-0.1,2.1,0.2,2.9-0.4,3.2c0,0-0.1,0-0.1,0.1c-0.8,0.3-0.7,2.5-0.5,3.8
				c0.1,0.7,0.6,1.3,1.1,1.6c0.1,0.1,0.2,0.1,0.4,0.2C254.4,150.3,254.7,150.3,254.9,150.2z"/>
			<path id="XMLID_471_" class="st14" d="M277,147.2c-0.1,0.2-0.1,1.3,0,1.5c0.1,0.2,0.3,0.1,0.4,0.1c0,0,0,0,0,0
				c0.1,0.1-0.1,1.4-0.1,1.5c0,0,0.1,0.1,0.1,0.1c-0.1,0.3-0.3,1.3-0.8,2.5c-0.3,0.7-0.6,1.5-1.1,2.2c-1,1.7-2.6,3.7-4.9,4.4
				c-0.2,0-0.3,0.1-0.5,0.1c-0.2,0-0.4,0.1-0.6,0.1c-0.1-0.4-0.5-1.4-2.1-1.4c-1.8,0-2,1.1-2,1.5c0,0.3,0.1,1.1,1.1,1.4
				c0.2,0.1,0.5,0.1,0.8,0.1c1.6,0,2-0.8,2.1-1.3c0.4,0,0.7-0.1,1.1-0.2c1.9-0.5,3.7-2.1,5.1-4.6c0.3-0.5,0.6-1.1,0.8-1.6
				c0.7-1.6,1.1-3.1,1.2-3.3c0,0,0,0,0.1,0c0.1-0.1,0.2-0.9,0.3-1.9c0.1-0.9-0.2-1.4-0.5-1.5c0,0,0,0-0.1,0
				C277.2,146.8,277.1,146.9,277,147.2z"/>
			<path id="XMLID_470_" class="st15" d="M263.5,177.8c-0.7-1.5-1.4-2.4-1.5-3.6c-0.5,0.6-0.8,1.2-0.8,1.8c0.2,2-5.7-4.8-6.2-8.1
				c-0.1,0.6-0.1,1.9,1.7,4.5c1.2,1.7,4.1,6.7,6.2,11.1c0.4-2.7,0.7-4.7,0.9-5.5C263.6,178,263.5,177.9,263.5,177.8z"/>
			<path id="XMLID_469_" class="st15" d="M269,176.1c0.1-0.6-0.3-1.2-0.8-1.8c-0.1,1.3-0.8,2.1-1.5,3.6c0,0.1-0.2,0.2-0.3,0.3
				c0.1,0.8,0.5,3,0.9,5.8c2-4.5,4.9-9.7,6.2-11.4c1.9-2.7,1.8-4,1.7-4.6C274.8,171.1,268.8,178.1,269,176.1z"/>
			<path id="XMLID_468_" class="st15" d="M255.9,174.4C255.9,174.4,255.9,174.4,255.9,174.4L255.9,174.4
				C255.9,174.4,255.9,174.4,255.9,174.4z"/>
			<path id="XMLID_467_" class="st16" d="M266.7,177.8c0.7-1.5,1.4-2.4,1.5-3.6c-1.1-1.4-3-2.6-3.1-3.2h0c-0.1,0.6-2,1.9-3.1,3.2
				c0.1,1.3,0.8,2.1,1.5,3.6c0,0.1,0.2,0.2,0.3,0.3c-0.1,0.8-0.5,2.8-0.9,5.5c1.2,2.6,2.2,5.1,2.4,6.6c0.2-1.4,1-3.8,2.2-6.3
				c-0.4-2.8-0.8-5-0.9-5.8C266.6,178,266.7,177.9,266.7,177.8z"/>
			<path id="XMLID_466_" class="st17" d="M272.8,164.3c-0.1-0.2-0.3-0.1-0.7,0.2c-0.9,0.8-2.7,3-7,6.3c0,0-0.1,0.1-0.1,0.1
				c0,0,0-0.1-0.1-0.1c-4.2-3.3-6.1-5.5-7-6.3c-0.4-0.3-0.6-0.4-0.7-0.2c-0.5,0.9-1.1,1.6-1.6,2c0,0,0,0,0,0s0,0,0,0
				c-0.2,0.2-0.3,0.3-0.4,0.4c-0.1,0.2-0.3,0.5-0.3,0.9c0,0.1,0,0.2-0.1,0.3c0.6,3.3,6.4,10,6.2,8.1c-0.1-0.6,0.3-1.2,0.8-1.8
				c1.1-1.4,3-2.6,3.1-3.2c0,0,0,0,0,0c0,0,0,0,0,0c0.1,0.6,2,1.9,3.1,3.2c0.5,0.6,0.8,1.2,0.8,1.8c-0.2,2,5.8-4.9,6.2-8.2
				c0-0.1,0-0.2-0.1-0.3c-0.1-0.4-0.2-0.6-0.3-0.8C274.4,166.4,273.6,165.6,272.8,164.3z"/>
			<path id="XMLID_465_" class="st14" d="M288.6,172.7c-0.4-0.5-8.3-3.2-10.8-4.2c0.3,0.3,0.5,0.6,0.7,1c1.1,2,1.2,3.3,2,3.9
				c0.8,0.6-6.2,1.1-6.2,1.1l4.4,3.4c0,0-5,5.7-8.3,8.1c-1,0.8-4.3,3.8-5.1,5.1c0.2,0.9,0.5,2.2,0.6,2.7c0,0.2,0.1,0.5,0.1,0.7
				c6.1-0.1,11.9-1.5,17.1-4.1c0.2-3.1-0.4-15.1,5.4-17.7c0.1-0.1,0.3,0.1,0.4,0.3c0,0,0,0,0,0C288.8,172.9,288.7,172.8,288.6,172.7
				z"/>
			<path id="XMLID_464_" class="st18" d="M265.2,191L265.2,191c-0.9-0.8-4.4-4.4-5.4-5.1c-3.4-2.5-8.3-8.1-8.3-8.1l4.4-3.3
				c0,0,0,0,0,0c-0.5,0-7-0.5-6.2-1.1c0.8-0.6,0.9-1.8,2-3.9c0.2-0.4,0.5-0.7,0.8-1.1c-2.7,1-10.4,3.6-10.7,4.1
				c6.2,0.3,5.6,14.1,5.7,17.6c5.4,2.7,11.5,4.3,18,4.3c0.2,0,0.3,0,0.5,0c0-0.2-0.1-0.4-0.1-0.7C265.7,193.2,265.4,191.9,265.2,191
				z"/>
			<path id="XMLID_463_" class="st19" d="M251.7,169.5c-1.1,2-1.2,3.3-2,3.9c-0.8,0.6,5.8,1,6.2,1.1c0,0,0,0,0,0l0,0l-4.4,3.3
				c0,0,5,5.7,8.3,8.1c1,0.8,4.5,4.3,5.4,5.1l0,0c0.8-1.3,4.1-4.4,5.1-5.1c3.4-2.5,8.3-8.1,8.3-8.1l-4.4-3.4c0,0,7-0.5,6.2-1.1
				c-0.8-0.6-0.9-1.8-2-3.9c-0.2-0.4-0.5-0.7-0.7-1c-0.3-0.3-0.5-0.5-0.8-0.7c-0.4-0.4-0.8-0.6-1.1-0.8c-1-0.8-1.6-0.6-1.6-0.6
				s0.3,0.1,0.5,0.5c0.1,0.2,0.2,0.5,0.3,0.8c0,0.1,0,0.1,0.1,0.3c0.1,0.6,0.2,1.9-1.7,4.6c-1.3,1.8-4.1,6.9-6.2,11.4
				c-1.1,2.5-2,4.8-2.2,6.3c-0.2-1.5-1.1-4-2.4-6.6c-2.1-4.4-5-9.4-6.2-11.1c-1.8-2.6-1.8-3.9-1.7-4.5c0-0.2,0.1-0.3,0.1-0.3
				c0.1-0.4,0.2-0.7,0.3-0.9c0.2-0.3,0.4-0.4,0.4-0.4c0,0,0,0,0,0s0,0,0,0c-0.1,0-0.6-0.2-1.5,0.6c-0.2,0.2-0.5,0.4-0.8,0.6
				c-0.3,0.2-0.7,0.5-1,0.9C252.2,168.7,251.9,169.1,251.7,169.5z"/>
			<path id="XMLID_462_" class="st19" d="M241.7,172.5c-0.4,0-1.5,5.4-2.7,11.9c2.5,2.2,5.4,4.1,8.4,5.7
				C247.3,186.7,247.9,172.9,241.7,172.5z"/>
			<path id="XMLID_461_" class="st19" d="M288.4,172.7c-5.8,2.6-5.3,14.6-5.4,17.7c3.1-1.5,6-3.5,8.6-5.7c-1-5.6-2-10.3-2.8-11.6
				C288.7,172.7,288.5,172.6,288.4,172.7z"/>
		</g>
	</g>
	<g>
		<circle id="XMLID_459_" class="st5" cx="189.9" cy="198.9" r="31.3"/>
		<g id="XMLID_442_">
			<path id="XMLID_458_" class="st9" d="M198,206.8c0.1,0.1,0.1,0.1,0.2,0.2C198.1,206.9,198.1,206.9,198,206.8z"/>
			<path id="XMLID_457_" class="st9" d="M182.5,206.8c-0.1,0-0.2,0.1-0.3,0.3C182.3,207,182.4,206.9,182.5,206.8z"/>
			<path id="XMLID_456_" class="st11" d="M190.2,210.3C190.2,210.3,190.2,210.3,190.2,210.3c0.1,0,0.1,0,0.1,0
				c3.7-2.9,5.2-4.8,5.8-5.3c-0.4-1-0.6-1.9-0.7-2.7c-0.1,0.1-0.2,0.1-0.2,0.2c-0.4,0.4-0.9,0.8-1.4,1.1c-0.4,0.3-0.9,0.5-1.4,0.6
				c-0.4,0.1-0.9,0.2-1.4,0.3c-0.6,0.1-1.2,0-1.7,0c-0.5-0.1-0.9-0.2-1.4-0.4c-0.5-0.2-1-0.4-1.4-0.7c-0.5-0.3-1-0.8-1.5-1.2
				c0,0,0,0,0,0c-0.1,0.8-0.2,1.8-0.7,2.9C185,205.6,186.5,207.5,190.2,210.3z"/>
			<path id="XMLID_455_" class="st44" d="M189,215.6c-0.5-1.1-1.1-1.8-1.1-2.7c-0.5,0.6-0.9,1.2-0.8,1.7c0.2,1.6-4.5-3.8-5.1-6.5
				c-0.1,0.5-0.1,1.6,1.4,3.7c0.7,1.1,2.6,6.6,4.5,12.5c0.6-4,1.2-7.6,1.3-8.6C189.1,215.7,189,215.7,189,215.6z"/>
			<path id="XMLID_454_" class="st44" d="M191.5,215.6c0,0.1-0.1,0.1-0.2,0.2c0.2,1,0.8,4.8,1.4,8.9c1.6-5.5,3.6-11.5,4.5-12.8
				c1.4-2.1,1.4-3.2,1.4-3.7c-0.6,2.7-5.2,8-5.1,6.4c0.1-0.6-0.3-1.2-0.8-1.7C192.5,213.8,192,214.5,191.5,215.6z"/>
			<path id="XMLID_453_" class="st44" d="M197.7,213.5L197.7,213.5C197.8,213.5,197.8,213.5,197.7,213.5
				C197.7,213.4,197.7,213.5,197.7,213.5z"/>
			<path id="XMLID_452_" class="st45" d="M192.7,224.7c-0.6-4.1-1.2-7.9-1.4-8.9c0.1-0.1,0.2-0.1,0.2-0.2c0.5-1.1,1.1-1.8,1.1-2.7
				c-0.9-1-2.2-1.9-2.4-2.4c-0.1,0.5-1.5,1.4-2.4,2.4c0.1,0.9,0.6,1.6,1.1,2.7c0,0.1,0.1,0.1,0.2,0.2c-0.2,1-0.7,4.6-1.3,8.6
				c0.6,1.9,1.2,3.9,1.8,5.8c0.1,0,0.2,0,0.4,0c0.4,0,0.7,0,1.1,0C191.6,228.5,192.1,226.6,192.7,224.7z"/>
			<path id="XMLID_451_" class="st46" d="M182.5,206.8c-0.1,0.1-0.2,0.2-0.3,0.3c-0.1,0.2-0.2,0.4-0.2,0.8c0,0,0,0.1,0,0.2
				c0.6,2.7,5.2,8.1,5.1,6.5c-0.1-0.6,0.3-1.2,0.8-1.7c0.9-1,2.2-1.9,2.4-2.4c0.1,0.5,1.5,1.4,2.4,2.4c0.5,0.6,0.9,1.2,0.8,1.7
				c-0.1,1.6,4.4-3.7,5.1-6.4c0-0.1,0-0.2,0-0.3c0-0.4-0.1-0.7-0.3-0.9c-0.1-0.1-0.1-0.1-0.2-0.2c-0.1-0.1-0.1-0.1-0.1-0.1s0,0,0,0
				c-0.4-0.4-0.9-0.9-1.4-1.7c-0.1-0.2-0.2-0.1-0.4,0c-0.7,0.5-2.1,2.4-5.8,5.3c0,0,0,0-0.1,0.1c0,0,0-0.1-0.1-0.1
				c-3.7-2.8-5.2-4.7-5.8-5.3c-0.2-0.2-0.4-0.2-0.5,0C183.4,205.8,182.9,206.3,182.5,206.8C182.6,206.7,182.6,206.7,182.5,206.8
				C182.6,206.7,182.5,206.7,182.5,206.8z"/>
			<path id="XMLID_450_" class="st12" d="M186.6,203.3c0.4,0.3,0.9,0.5,1.4,0.7c0.4,0.2,0.9,0.3,1.4,0.4c0.6,0.1,1.2,0.1,1.7,0
				c0.5,0,0.9-0.1,1.4-0.3c0.5-0.2,0.9-0.4,1.4-0.6c0.5-0.3,1-0.7,1.4-1.1c0.1-0.1,0.2-0.1,0.2-0.2c0.1-0.1,0.1-0.1,0.2-0.2
				c1.9-1.9,1.9-6.5,2.4-6.2c1.1,0.7,1.7-1.4,1.9-2.7c0.1-1.1-0.3-1.6-0.7-1.4c-0.1,0.3-0.3,0.5-0.5,0.6c0,0-0.7,2.7-0.9,2.7
				c-0.3-0.1-0.2-2.6,0.3-5.4c0.5-3.1-3.3-1.7-6-1.8c-2.6-0.1-8.8-0.6-9.2,0.9c-0.5,1.5,0.5,5.8,0.1,6c-0.4,0.2-0.9-2-1.2-2.4
				c-0.1-0.1-0.1-0.2-0.2-0.5c-0.4,0-0.7,0.5-0.6,1.5c0.1,1.3,0.8,3.4,1.9,2.7c0.5-0.3,0.4,4.3,2.4,6.2c0,0,0,0,0,0
				C185.5,202.6,186,203,186.6,203.3z"/>
			<path id="XMLID_449_" class="st47" d="M182.9,194.7c0.4-0.2-0.5-4.6-0.1-6c0.5-1.5,6.6-0.9,9.2-0.9c2.6,0.1,6.4-1.3,6,1.8
				c-0.4,2.9-0.6,5.4-0.3,5.4c0.3,0.1,0.9-2.7,0.9-2.7c0.2-0.1,0.3-0.3,0.5-0.6c0.7-1.7,0.4-5.9,0.4-6.6c0-0.9-1.3-2.3-1.9-2.3
				c-0.6,0-0.1-2.4-4-3.4c-3.9-1-7.3-0.5-9.2,0.4c-1.9,0.9-3.3,2.6-4.2,2.8c-0.9,0.3,0.3,0.9-0.4,1.5c-0.7,0.6,0.5,1.4,0.7,2.6
				c0.2,1,0.5,3.9,0.9,5c0.1,0.2,0.1,0.4,0.2,0.5C182,192.7,182.5,194.9,182.9,194.7z"/>
			<path id="XMLID_448_" class="st48" d="M201.2,209.4c0.9,1.7,1,2.7,1.6,3.2c0.6,0.5-4.5,0.8-5.1,0.9c0,0,0,0,0,0l3.6,2.7
				c0,0-3.1,4.3-4.8,6.8c-0.6,0.9-2.1,3.4-2.9,4.9c-0.2,0.4-0.7,1.3-1.2,2.2c4.9-0.4,9.5-1.9,13.5-4.2c0.5-6.2,1.9-14.5,4.7-14
				c-1.1-0.5-4.2-1.1-6.3-1.9c-1.8-0.7-3.2-1.7-4.1-1.7C200.6,208.6,200.9,208.9,201.2,209.4z"/>
			<path id="XMLID_447_" d="M198,206.8c0.1,0,0.1,0.1,0.2,0.2c0.1,0.2,0.3,0.5,0.3,0.9c0,0.1,0,0.2,0,0.3c0.1,0.5,0,1.6-1.4,3.7
				c-0.9,1.3-2.9,7.3-4.5,12.8c-0.6,2-1.1,3.9-1.5,5.5c0.4,0,0.9,0,1.3-0.1c0.5-1,1-1.8,1.2-2.2c0.8-1.4,2.3-4,2.9-4.9
				c1.7-2.5,4.8-6.8,4.8-6.8l-3.6-2.7l0,0c0,0,0,0,0.1,0c0.6,0,5.7-0.4,5.1-0.9c-0.7-0.5-0.7-1.5-1.6-3.2c-0.3-0.5-0.6-0.9-1-1.2
				c-0.5-0.4-0.9-0.7-1.2-0.9C198.4,206.8,198.1,206.7,198,206.8c-0.1-0.1-0.1-0.1-0.1-0.1S198,206.8,198,206.8z"/>
			<path id="XMLID_446_" class="st49" d="M175,226.3c3.9,2.1,8.2,3.5,12.9,3.8c-0.5-1.1-0.9-2-1-2.2c-0.8-1.4-2.3-4-2.9-4.9
				c-1.7-2.5-4.8-6.8-4.8-6.8l3.6-2.8c0,0-5.8-0.4-5.1-0.9c0.7-0.5,0.7-1.5,1.6-3.2c0.3-0.5,0.6-0.9,1-1.2c-0.9,0.3-2.1,1-3.6,1.6
				c-2.3,0.9-5.8,1.6-6.5,2.1C173,211.2,174.5,220,175,226.3z"/>
			<path id="XMLID_445_" d="M179.2,209.4c-0.9,1.7-1,2.7-1.6,3.2c-0.7,0.5,5.1,0.9,5.1,0.9l-3.6,2.8c0,0,3.1,4.3,4.8,6.8
				c0.6,0.9,2.1,3.4,2.9,4.9c0.2,0.3,0.5,1.1,1,2.2c0.6,0,1.2,0.1,1.8,0.1c-0.6-1.9-1.2-3.9-1.8-5.8c-1.9-5.9-3.8-11.4-4.5-12.5
				c-1.5-2.2-1.4-3.3-1.4-3.7c0-0.1,0-0.2,0-0.2c0-0.4,0.1-0.7,0.2-0.8c0.1-0.2,0.2-0.2,0.3-0.3c0,0,0.1,0,0.1,0s0,0,0,0
				c-0.1,0-0.5,0-1.2,0.6c-0.2,0.2-0.7,0.5-1.1,0.9C179.9,208.5,179.5,208.9,179.2,209.4z"/>
			<path id="XMLID_444_" d="M175,226.3c-0.5-6.3-1.9-15.1-4.8-14.4c-0.1,0-0.2,0.1-0.4,0.1c-0.7,0.3-1.3,3.8-2.2,8.7
				C169.7,222.9,172.2,224.8,175,226.3z"/>
			<path id="XMLID_443_" d="M205.9,225.8c2.7-1.6,5.1-3.6,7.2-5.9c-0.8-4.5-1.4-7.6-2.1-8c-0.2-0.1-0.3-0.1-0.5-0.1
				C207.9,211.4,206.4,219.7,205.9,225.8z"/>
		</g>
	</g>
	<g>
		<circle id="XMLID_441_" class="st5" cx="242.1" cy="256.5" r="31.3"/>
		<g id="XMLID_424_">
			<path id="XMLID_440_" class="st9" d="M250.2,264.5c0.1,0.1,0.1,0.1,0.2,0.2C250.3,264.6,250.3,264.6,250.2,264.5z"/>
			<path id="XMLID_439_" class="st9" d="M234.7,264.5c-0.1,0-0.2,0.1-0.3,0.3C234.5,264.7,234.6,264.6,234.7,264.5z"/>
			<path id="XMLID_438_" class="st11" d="M242.4,268C242.4,268,242.4,268,242.4,268c0.1,0,0.1,0,0.1,0c3.7-2.9,5.2-4.8,5.8-5.3
				c-0.4-1-0.6-1.9-0.7-2.7c-0.1,0.1-0.2,0.1-0.2,0.2c-0.4,0.4-0.9,0.8-1.4,1.1c-0.4,0.3-0.9,0.5-1.4,0.6c-0.4,0.1-0.9,0.2-1.4,0.3
				c-0.6,0.1-1.2,0-1.7,0c-0.5-0.1-0.9-0.2-1.4-0.4c-0.5-0.2-1-0.4-1.4-0.7c-0.5-0.3-1-0.8-1.5-1.2c0,0,0,0,0,0
				c-0.1,0.8-0.2,1.8-0.7,2.9C237.2,263.3,238.7,265.2,242.4,268z"/>
			<path id="XMLID_437_" class="st44" d="M241.2,273.3c-0.5-1.1-1.1-1.8-1.1-2.7c-0.5,0.6-0.9,1.2-0.8,1.7c0.2,1.6-4.5-3.8-5.1-6.5
				c-0.1,0.5-0.1,1.6,1.4,3.7c0.7,1.1,2.6,6.6,4.5,12.5c0.6-4,1.2-7.6,1.3-8.6C241.3,273.4,241.2,273.4,241.2,273.3z"/>
			<path id="XMLID_436_" class="st44" d="M243.7,273.3c0,0.1-0.1,0.1-0.2,0.2c0.2,1,0.8,4.8,1.4,8.9c1.6-5.5,3.6-11.5,4.5-12.8
				c1.4-2.1,1.4-3.2,1.4-3.7c-0.6,2.7-5.2,8-5.1,6.4c0.1-0.6-0.3-1.2-0.8-1.7C244.7,271.5,244.2,272.2,243.7,273.3z"/>
			<path id="XMLID_435_" class="st44" d="M249.9,271.1L249.9,271.1C250,271.2,250,271.2,249.9,271.1
				C249.9,271.1,249.9,271.1,249.9,271.1z"/>
			<path id="XMLID_434_" class="st45" d="M244.9,282.3c-0.6-4.1-1.2-7.9-1.4-8.9c0.1-0.1,0.2-0.1,0.2-0.2c0.5-1.1,1.1-1.8,1.1-2.7
				c-0.9-1-2.2-1.9-2.4-2.4c-0.1,0.5-1.5,1.4-2.4,2.4c0.1,0.9,0.6,1.6,1.1,2.7c0,0.1,0.1,0.1,0.2,0.2c-0.2,1-0.7,4.6-1.3,8.6
				c0.6,1.9,1.2,3.9,1.8,5.8c0.1,0,0.2,0,0.4,0c0.4,0,0.7,0,1.1,0C243.8,286.2,244.3,284.3,244.9,282.3z"/>
			<path id="XMLID_433_" class="st46" d="M234.7,264.5c-0.1,0.1-0.2,0.2-0.3,0.3c-0.1,0.2-0.2,0.4-0.2,0.8c0,0,0,0.1,0,0.2
				c0.6,2.7,5.2,8.1,5.1,6.5c-0.1-0.6,0.3-1.2,0.8-1.7c0.9-1,2.2-1.9,2.4-2.4c0.1,0.5,1.5,1.4,2.4,2.4c0.5,0.6,0.9,1.2,0.8,1.7
				c-0.1,1.6,4.4-3.7,5.1-6.4c0-0.1,0-0.2,0-0.3c0-0.4-0.1-0.7-0.3-0.9c-0.1-0.1-0.1-0.1-0.2-0.2c-0.1-0.1-0.1-0.1-0.1-0.1s0,0,0,0
				c-0.4-0.4-0.9-0.9-1.4-1.7c-0.1-0.2-0.2-0.1-0.4,0c-0.7,0.5-2.1,2.4-5.8,5.3c0,0,0,0-0.1,0.1c0,0,0-0.1-0.1-0.1
				c-3.7-2.8-5.2-4.7-5.8-5.3c-0.2-0.2-0.4-0.2-0.5,0C235.6,263.5,235.1,264,234.7,264.5C234.8,264.4,234.8,264.4,234.7,264.5
				C234.8,264.4,234.7,264.4,234.7,264.5z"/>
			<path id="XMLID_432_" class="st12" d="M238.8,261c0.4,0.3,0.9,0.5,1.4,0.7c0.4,0.2,0.9,0.3,1.4,0.4c0.6,0.1,1.2,0.1,1.7,0
				c0.5,0,0.9-0.1,1.4-0.3c0.5-0.2,0.9-0.4,1.4-0.6c0.5-0.3,1-0.7,1.4-1.1c0.1-0.1,0.2-0.1,0.2-0.2c0.1-0.1,0.1-0.1,0.2-0.2
				c1.9-1.9,1.9-6.5,2.4-6.2c1.1,0.7,1.7-1.4,1.9-2.7c0.1-1.1-0.3-1.6-0.7-1.4c-0.1,0.3-0.3,0.5-0.5,0.6c0,0-0.7,2.7-0.9,2.7
				c-0.3-0.1-0.2-2.6,0.3-5.4c0.5-3.1-3.3-1.7-6-1.8c-2.6-0.1-8.8-0.6-9.2,0.9c-0.5,1.5,0.5,5.8,0.1,6c-0.4,0.2-0.9-2-1.2-2.4
				c-0.1-0.1-0.1-0.2-0.2-0.5c-0.4,0-0.7,0.5-0.6,1.5c0.1,1.3,0.8,3.4,1.9,2.7c0.5-0.3,0.4,4.3,2.4,6.2c0,0,0,0,0,0
				C237.7,260.3,238.2,260.7,238.8,261z"/>
			<path id="XMLID_431_" class="st47" d="M235.1,252.4c0.4-0.2-0.5-4.6-0.1-6c0.5-1.5,6.6-0.9,9.2-0.9c2.6,0.1,6.4-1.3,6,1.8
				c-0.4,2.9-0.6,5.4-0.3,5.4c0.3,0.1,0.9-2.7,0.9-2.7c0.2-0.1,0.3-0.3,0.5-0.6c0.7-1.7,0.4-5.9,0.4-6.6c0-0.9-1.3-2.3-1.9-2.3
				c-0.6,0-0.1-2.4-4-3.4c-3.9-1-7.3-0.5-9.2,0.4c-1.9,0.9-3.3,2.6-4.2,2.8c-0.9,0.3,0.3,0.9-0.4,1.5c-0.7,0.6,0.5,1.4,0.7,2.6
				c0.2,1,0.5,3.9,0.9,5c0.1,0.2,0.1,0.4,0.2,0.5C234.2,250.4,234.7,252.6,235.1,252.4z"/>
			<path id="XMLID_430_" class="st48" d="M253.4,267.1c0.9,1.7,1,2.7,1.6,3.2c0.6,0.5-4.5,0.8-5.1,0.9c0,0,0,0,0,0l3.6,2.7
				c0,0-3.1,4.3-4.8,6.8c-0.6,0.9-2.1,3.4-2.9,4.9c-0.2,0.4-0.7,1.3-1.2,2.2c4.9-0.4,9.5-1.9,13.5-4.2c0.5-6.2,1.9-14.5,4.7-14
				c-1.1-0.5-4.2-1.1-6.3-1.9c-1.8-0.7-3.2-1.7-4.1-1.7C252.8,266.2,253.1,266.6,253.4,267.1z"/>
			<path id="XMLID_429_" d="M250.2,264.5c0.1,0,0.1,0.1,0.2,0.2c0.1,0.2,0.3,0.5,0.3,0.9c0,0.1,0,0.2,0,0.3c0.1,0.5,0,1.6-1.4,3.7
				c-0.9,1.3-2.9,7.3-4.5,12.8c-0.6,2-1.1,3.9-1.5,5.5c0.4,0,0.9,0,1.3-0.1c0.5-1,1-1.8,1.2-2.2c0.8-1.4,2.3-4,2.9-4.9
				c1.7-2.5,4.8-6.8,4.8-6.8l-3.6-2.7l0,0c0,0,0,0,0.1,0c0.6,0,5.7-0.4,5.1-0.9c-0.7-0.5-0.7-1.5-1.6-3.2c-0.3-0.5-0.6-0.9-1-1.2
				c-0.5-0.4-0.9-0.7-1.2-0.9C250.6,264.4,250.3,264.4,250.2,264.5c-0.1-0.1-0.1-0.1-0.1-0.1S250.2,264.5,250.2,264.5z"/>
			<path id="XMLID_428_" class="st49" d="M227.2,284c3.9,2.1,8.2,3.5,12.9,3.8c-0.5-1.1-0.9-2-1-2.2c-0.8-1.4-2.3-4-2.9-4.9
				c-1.7-2.5-4.8-6.8-4.8-6.8l3.6-2.8c0,0-5.8-0.4-5.1-0.9c0.7-0.5,0.7-1.5,1.6-3.2c0.3-0.5,0.6-0.9,1-1.2c-0.9,0.3-2.1,1-3.6,1.6
				c-2.3,0.9-5.8,1.6-6.5,2.1C225.2,268.8,226.7,277.7,227.2,284z"/>
			<path id="XMLID_427_" d="M231.4,267.1c-0.9,1.7-1,2.7-1.6,3.2c-0.7,0.5,5.1,0.9,5.1,0.9l-3.6,2.8c0,0,3.1,4.3,4.8,6.8
				c0.6,0.9,2.1,3.4,2.9,4.9c0.2,0.3,0.5,1.1,1,2.2c0.6,0,1.2,0.1,1.8,0.1c-0.6-1.9-1.2-3.9-1.8-5.8c-1.9-5.9-3.8-11.4-4.5-12.5
				c-1.5-2.2-1.4-3.3-1.4-3.7c0-0.1,0-0.2,0-0.2c0-0.4,0.1-0.7,0.2-0.8c0.1-0.2,0.2-0.2,0.3-0.3c0,0,0.1,0,0.1,0s0,0,0,0
				c-0.1,0-0.5,0-1.2,0.6c-0.2,0.2-0.7,0.5-1.1,0.9C232.1,266.2,231.7,266.6,231.4,267.1z"/>
			<path id="XMLID_426_" d="M227.2,284c-0.5-6.3-1.9-15.1-4.8-14.4c-0.1,0-0.2,0.1-0.4,0.1c-0.7,0.3-1.3,3.8-2.2,8.7
				C221.9,280.6,224.4,282.5,227.2,284z"/>
			<path id="XMLID_425_" d="M258.1,283.5c2.7-1.6,5.1-3.6,7.2-5.9c-0.8-4.5-1.4-7.6-2.1-8c-0.2-0.1-0.3-0.1-0.5-0.1
				C260.1,269.1,258.6,277.4,258.1,283.5z"/>
		</g>
	</g>
	<g>
		<circle id="XMLID_423_" class="st5" cx="307.2" cy="256.5" r="31.3"/>
		<g id="XMLID_406_">
			<path id="XMLID_422_" class="st9" d="M315.3,264.5c0.1,0.1,0.1,0.1,0.2,0.2C315.4,264.6,315.3,264.6,315.3,264.5z"/>
			<path id="XMLID_421_" class="st9" d="M299.7,264.5c-0.1,0-0.2,0.1-0.3,0.3C299.5,264.7,299.6,264.6,299.7,264.5z"/>
			<path id="XMLID_420_" class="st11" d="M307.4,268C307.4,268,307.4,268,307.4,268c0.1,0,0.1,0,0.1,0c3.7-2.9,5.2-4.8,5.8-5.3
				c-0.4-1-0.6-1.9-0.7-2.7c-0.1,0.1-0.2,0.1-0.2,0.2c-0.4,0.4-0.9,0.8-1.4,1.1c-0.4,0.3-0.9,0.5-1.4,0.6c-0.4,0.1-0.9,0.2-1.4,0.3
				c-0.6,0.1-1.2,0-1.7,0c-0.5-0.1-0.9-0.2-1.4-0.4c-0.5-0.2-1-0.4-1.4-0.7c-0.5-0.3-1-0.8-1.5-1.2c0,0,0,0,0,0
				c-0.1,0.8-0.2,1.8-0.7,2.9C302.2,263.3,303.7,265.2,307.4,268z"/>
			<path id="XMLID_419_" class="st44" d="M306.2,273.3c-0.5-1.1-1.1-1.8-1.1-2.7c-0.5,0.6-0.9,1.2-0.8,1.7c0.2,1.6-4.5-3.8-5.1-6.5
				c-0.1,0.5-0.1,1.6,1.4,3.7c0.7,1.1,2.6,6.6,4.5,12.5c0.6-4,1.2-7.6,1.3-8.6C306.3,273.4,306.3,273.4,306.2,273.3z"/>
			<path id="XMLID_418_" class="st44" d="M308.7,273.3c0,0.1-0.1,0.1-0.2,0.2c0.2,1,0.8,4.8,1.4,8.9c1.6-5.5,3.6-11.5,4.5-12.8
				c1.4-2.1,1.4-3.2,1.4-3.7c-0.6,2.7-5.2,8-5.1,6.4c0.1-0.6-0.3-1.2-0.8-1.7C309.7,271.5,309.2,272.2,308.7,273.3z"/>
			<path id="XMLID_417_" class="st44" d="M314.9,271.1L314.9,271.1C315,271.2,315,271.2,314.9,271.1
				C315,271.1,314.9,271.1,314.9,271.1z"/>
			<path id="XMLID_416_" class="st45" d="M309.9,282.3c-0.6-4.1-1.2-7.9-1.4-8.9c0.1-0.1,0.2-0.1,0.2-0.2c0.5-1.1,1.1-1.8,1.1-2.7
				c-0.9-1-2.2-1.9-2.4-2.4c-0.1,0.5-1.5,1.4-2.4,2.4c0.1,0.9,0.6,1.6,1.1,2.7c0,0.1,0.1,0.1,0.2,0.2c-0.2,1-0.7,4.6-1.3,8.6
				c0.6,1.9,1.2,3.9,1.8,5.8c0.1,0,0.2,0,0.4,0c0.4,0,0.7,0,1.1,0C308.8,286.2,309.3,284.3,309.9,282.3z"/>
			<path id="XMLID_415_" class="st46" d="M299.7,264.5c-0.1,0.1-0.2,0.2-0.3,0.3c-0.1,0.2-0.2,0.4-0.2,0.8c0,0,0,0.1,0,0.2
				c0.6,2.7,5.2,8.1,5.1,6.5c-0.1-0.6,0.3-1.2,0.8-1.7c0.9-1,2.2-1.9,2.4-2.4c0.1,0.5,1.5,1.4,2.4,2.4c0.5,0.6,0.9,1.2,0.8,1.7
				c-0.1,1.6,4.4-3.7,5.1-6.4c0-0.1,0-0.2,0-0.3c0-0.4-0.1-0.7-0.3-0.9c-0.1-0.1-0.1-0.1-0.2-0.2c-0.1-0.1-0.1-0.1-0.1-0.1s0,0,0,0
				c-0.4-0.4-0.9-0.9-1.4-1.7c-0.1-0.2-0.2-0.1-0.4,0c-0.7,0.5-2.1,2.4-5.8,5.3c0,0,0,0-0.1,0.1c0,0,0-0.1-0.1-0.1
				c-3.7-2.8-5.2-4.7-5.8-5.3c-0.2-0.2-0.4-0.2-0.5,0C300.6,263.5,300.1,264,299.7,264.5C299.8,264.4,299.8,264.4,299.7,264.5
				C299.8,264.4,299.8,264.4,299.7,264.5z"/>
			<path id="XMLID_414_" class="st12" d="M303.8,261c0.4,0.3,0.9,0.5,1.4,0.7c0.4,0.2,0.9,0.3,1.4,0.4c0.6,0.1,1.2,0.1,1.7,0
				c0.5,0,0.9-0.1,1.4-0.3c0.5-0.2,0.9-0.4,1.4-0.6c0.5-0.3,1-0.7,1.4-1.1c0.1-0.1,0.2-0.1,0.2-0.2c0.1-0.1,0.1-0.1,0.2-0.2
				c1.9-1.9,1.9-6.5,2.4-6.2c1.1,0.7,1.7-1.4,1.9-2.7c0.1-1.1-0.3-1.6-0.7-1.4c-0.1,0.3-0.3,0.5-0.5,0.6c0,0-0.7,2.7-0.9,2.7
				c-0.3-0.1-0.2-2.6,0.3-5.4c0.5-3.1-3.3-1.7-6-1.8c-2.6-0.1-8.8-0.6-9.2,0.9c-0.5,1.5,0.5,5.8,0.1,6c-0.4,0.2-0.9-2-1.2-2.4
				c-0.1-0.1-0.1-0.2-0.2-0.5c-0.4,0-0.7,0.5-0.6,1.5c0.1,1.3,0.8,3.4,1.9,2.7c0.5-0.3,0.4,4.3,2.4,6.2c0,0,0,0,0,0
				C302.8,260.3,303.3,260.7,303.8,261z"/>
			<path id="XMLID_413_" class="st47" d="M300.1,252.4c0.4-0.2-0.5-4.6-0.1-6c0.5-1.5,6.6-0.9,9.2-0.9c2.6,0.1,6.4-1.3,6,1.8
				c-0.4,2.9-0.6,5.4-0.3,5.4c0.3,0.1,0.9-2.7,0.9-2.7c0.2-0.1,0.3-0.3,0.5-0.6c0.7-1.7,0.4-5.9,0.4-6.6c0-0.9-1.3-2.3-1.9-2.3
				c-0.6,0-0.1-2.4-4-3.4c-3.9-1-7.3-0.5-9.2,0.4c-1.9,0.9-3.3,2.6-4.2,2.8c-0.9,0.3,0.3,0.9-0.4,1.5c-0.7,0.6,0.5,1.4,0.7,2.6
				c0.2,1,0.5,3.9,0.9,5c0.1,0.2,0.1,0.4,0.2,0.5C299.2,250.4,299.7,252.6,300.1,252.4z"/>
			<path id="XMLID_412_" class="st48" d="M318.4,267.1c0.9,1.7,1,2.7,1.6,3.2c0.6,0.5-4.5,0.8-5.1,0.9c0,0,0,0,0,0l3.6,2.7
				c0,0-3.1,4.3-4.8,6.8c-0.6,0.9-2.1,3.4-2.9,4.9c-0.2,0.4-0.7,1.3-1.2,2.2c4.9-0.4,9.5-1.9,13.5-4.2c0.5-6.2,1.9-14.5,4.7-14
				c-1.1-0.5-4.2-1.1-6.3-1.9c-1.8-0.7-3.2-1.7-4.1-1.7C317.8,266.2,318.2,266.6,318.4,267.1z"/>
			<path id="XMLID_411_" d="M315.3,264.5c0.1,0,0.1,0.1,0.2,0.2c0.1,0.2,0.3,0.5,0.3,0.9c0,0.1,0,0.2,0,0.3c0.1,0.5,0,1.6-1.4,3.7
				c-0.9,1.3-2.9,7.3-4.5,12.8c-0.6,2-1.1,3.9-1.5,5.5c0.4,0,0.9,0,1.3-0.1c0.5-1,1-1.8,1.2-2.2c0.8-1.4,2.3-4,2.9-4.9
				c1.7-2.5,4.8-6.8,4.8-6.8l-3.6-2.7l0,0c0,0,0,0,0.1,0c0.6,0,5.7-0.4,5.1-0.9c-0.7-0.5-0.7-1.5-1.6-3.2c-0.3-0.5-0.6-0.9-1-1.2
				c-0.5-0.4-0.9-0.7-1.2-0.9C315.7,264.4,315.3,264.4,315.3,264.5c-0.1-0.1-0.1-0.1-0.1-0.1S315.2,264.5,315.3,264.5z"/>
			<path id="XMLID_410_" class="st49" d="M292.2,284c3.9,2.1,8.2,3.5,12.9,3.8c-0.5-1.1-0.9-2-1-2.2c-0.8-1.4-2.3-4-2.9-4.9
				c-1.7-2.5-4.8-6.8-4.8-6.8l3.6-2.8c0,0-5.8-0.4-5.1-0.9c0.7-0.5,0.7-1.5,1.6-3.2c0.3-0.5,0.6-0.9,1-1.2c-0.9,0.3-2.1,1-3.6,1.6
				c-2.3,0.9-5.8,1.6-6.5,2.1C290.3,268.8,291.7,277.7,292.2,284z"/>
			<path id="XMLID_409_" d="M296.5,267.1c-0.9,1.7-1,2.7-1.6,3.2c-0.7,0.5,5.1,0.9,5.1,0.9l-3.6,2.8c0,0,3.1,4.3,4.8,6.8
				c0.6,0.9,2.1,3.4,2.9,4.9c0.2,0.3,0.5,1.1,1,2.2c0.6,0,1.2,0.1,1.8,0.1c-0.6-1.9-1.2-3.9-1.8-5.8c-1.9-5.9-3.8-11.4-4.5-12.5
				c-1.5-2.2-1.4-3.3-1.4-3.7c0-0.1,0-0.2,0-0.2c0-0.4,0.1-0.7,0.2-0.8c0.1-0.2,0.2-0.2,0.3-0.3c0,0,0.1,0,0.1,0s0,0,0,0
				c-0.1,0-0.5,0-1.2,0.6c-0.2,0.2-0.7,0.5-1.1,0.9C297.1,266.2,296.7,266.6,296.5,267.1z"/>
			<path id="XMLID_408_" d="M292.2,284c-0.5-6.3-1.9-15.1-4.8-14.4c-0.1,0-0.2,0.1-0.4,0.1c-0.7,0.3-1.3,3.8-2.2,8.7
				C287,280.6,289.4,282.5,292.2,284z"/>
			<path id="XMLID_407_" d="M323.2,283.5c2.7-1.6,5.1-3.6,7.2-5.9c-0.8-4.5-1.4-7.6-2.1-8c-0.2-0.1-0.3-0.1-0.5-0.1
				C325.1,269.1,323.7,277.4,323.2,283.5z"/>
		</g>
	</g>
	<g>
		<circle id="XMLID_143_" class="st5" cx="355.7" cy="202.5" r="31.3"/>
		<g id="XMLID_126_">
			<path id="XMLID_142_" class="st9" d="M363.8,210.5c0.1,0.1,0.1,0.1,0.2,0.2C363.9,210.6,363.8,210.5,363.8,210.5z"/>
			<path id="XMLID_141_" class="st9" d="M348.2,210.4c-0.1,0-0.2,0.1-0.3,0.3C348,210.6,348.1,210.5,348.2,210.4z"/>
			<path id="XMLID_140_" class="st11" d="M355.9,214C356,214,356,214,355.9,214c0.1,0,0.1,0,0.1,0c3.7-2.9,5.2-4.8,5.8-5.3
				c-0.4-1-0.6-1.9-0.7-2.7c-0.1,0.1-0.2,0.1-0.2,0.2c-0.4,0.4-0.9,0.8-1.4,1.1c-0.4,0.3-0.9,0.5-1.4,0.6c-0.4,0.1-0.9,0.2-1.4,0.3
				c-0.6,0.1-1.2,0-1.7,0c-0.5-0.1-0.9-0.2-1.4-0.4c-0.5-0.2-1-0.4-1.4-0.7c-0.5-0.3-1-0.8-1.5-1.2c0,0,0,0,0,0
				c-0.1,0.8-0.2,1.8-0.7,2.9C350.8,209.2,352.2,211.1,355.9,214z"/>
			<path id="XMLID_139_" class="st44" d="M354.8,219.3c-0.5-1.1-1.1-1.8-1.1-2.7c-0.5,0.6-0.9,1.2-0.8,1.7c0.2,1.6-4.5-3.8-5.1-6.5
				c-0.1,0.5-0.1,1.6,1.4,3.7c0.7,1.1,2.6,6.6,4.5,12.5c0.6-4,1.2-7.6,1.3-8.6C354.9,219.4,354.8,219.3,354.8,219.3z"/>
			<path id="XMLID_138_" class="st44" d="M357.2,219.3c0,0.1-0.1,0.1-0.2,0.2c0.2,1,0.8,4.8,1.4,8.9c1.6-5.5,3.6-11.5,4.5-12.8
				c1.4-2.1,1.4-3.2,1.4-3.7c-0.6,2.7-5.2,8-5.1,6.4c0.1-0.6-0.3-1.2-0.8-1.7C358.3,217.5,357.7,218.1,357.2,219.3z"/>
			<path id="XMLID_137_" class="st44" d="M363.5,217.1L363.5,217.1C363.5,217.1,363.5,217.1,363.5,217.1
				C363.5,217.1,363.5,217.1,363.5,217.1z"/>
			<path id="XMLID_136_" class="st45" d="M358.4,228.3c-0.6-4.1-1.2-7.9-1.4-8.9c0.1-0.1,0.2-0.1,0.2-0.2c0.5-1.1,1.1-1.8,1.1-2.7
				c-0.9-1-2.2-1.9-2.4-2.4c-0.1,0.5-1.5,1.4-2.4,2.4c0.1,0.9,0.6,1.6,1.1,2.7c0,0.1,0.1,0.1,0.2,0.2c-0.2,1-0.7,4.6-1.3,8.6
				c0.6,1.9,1.2,3.9,1.8,5.8c0.1,0,0.2,0,0.4,0c0.4,0,0.7,0,1.1,0C357.3,232.2,357.8,230.3,358.4,228.3z"/>
			<path id="XMLID_135_" class="st46" d="M348.2,210.4c-0.1,0.1-0.2,0.2-0.3,0.3c-0.1,0.2-0.2,0.4-0.2,0.8c0,0,0,0.1,0,0.2
				c0.6,2.7,5.2,8.1,5.1,6.5c-0.1-0.6,0.3-1.2,0.8-1.7c0.9-1,2.2-1.9,2.4-2.4c0.1,0.5,1.5,1.4,2.4,2.4c0.5,0.6,0.9,1.2,0.8,1.7
				c-0.1,1.6,4.4-3.7,5.1-6.4c0-0.1,0-0.2,0-0.3c0-0.4-0.1-0.7-0.3-0.9c-0.1-0.1-0.1-0.1-0.2-0.2c-0.1-0.1-0.1-0.1-0.1-0.1s0,0,0,0
				c-0.4-0.4-0.9-0.9-1.4-1.7c-0.1-0.2-0.2-0.1-0.4,0c-0.7,0.5-2.1,2.4-5.8,5.3c0,0,0,0-0.1,0.1c0,0,0-0.1-0.1-0.1
				c-3.7-2.8-5.2-4.7-5.8-5.3c-0.2-0.2-0.4-0.2-0.5,0C349.2,209.5,348.7,210,348.2,210.4C348.3,210.4,348.3,210.4,348.2,210.4
				C348.3,210.4,348.3,210.4,348.2,210.4z"/>
			<path id="XMLID_134_" class="st12" d="M352.3,207c0.4,0.3,0.9,0.5,1.4,0.7c0.4,0.2,0.9,0.3,1.4,0.4c0.6,0.1,1.2,0.1,1.7,0
				c0.5,0,0.9-0.1,1.4-0.3c0.5-0.2,0.9-0.4,1.4-0.6c0.5-0.3,1-0.7,1.4-1.1c0.1-0.1,0.2-0.1,0.2-0.2c0.1-0.1,0.1-0.1,0.2-0.2
				c1.9-1.9,1.9-6.5,2.4-6.2c1.1,0.7,1.7-1.4,1.9-2.7c0.1-1.1-0.3-1.6-0.7-1.4c-0.1,0.3-0.3,0.5-0.5,0.6c0,0-0.7,2.7-0.9,2.7
				c-0.3-0.1-0.2-2.6,0.3-5.4c0.5-3.1-3.3-1.7-6-1.8c-2.6-0.1-8.8-0.6-9.2,0.9c-0.5,1.5,0.5,5.8,0.1,6c-0.4,0.2-0.9-2-1.2-2.4
				c-0.1-0.1-0.1-0.2-0.2-0.5c-0.4,0-0.7,0.5-0.6,1.5c0.1,1.3,0.8,3.4,1.9,2.7c0.5-0.3,0.4,4.3,2.4,6.2c0,0,0,0,0,0
				C351.3,206.3,351.8,206.7,352.3,207z"/>
			<path id="XMLID_133_" class="st47" d="M348.6,198.4c0.4-0.2-0.5-4.6-0.1-6c0.5-1.5,6.6-0.9,9.2-0.9c2.6,0.1,6.4-1.3,6,1.8
				c-0.4,2.9-0.6,5.4-0.3,5.4c0.3,0.1,0.9-2.7,0.9-2.7c0.2-0.1,0.3-0.3,0.5-0.6c0.7-1.7,0.4-5.9,0.4-6.6c0-0.9-1.3-2.3-1.9-2.3
				c-0.6,0-0.1-2.4-4-3.4c-3.9-1-7.3-0.5-9.2,0.4c-1.9,0.9-3.3,2.6-4.2,2.8c-0.9,0.3,0.3,0.9-0.4,1.5c-0.7,0.6,0.5,1.4,0.7,2.6
				c0.2,1,0.5,3.9,0.9,5c0.1,0.2,0.1,0.4,0.2,0.5C347.8,196.4,348.2,198.5,348.6,198.4z"/>
			<path id="XMLID_132_" class="st48" d="M367,213.1c0.9,1.7,1,2.7,1.6,3.2c0.6,0.5-4.5,0.8-5.1,0.9c0,0,0,0,0,0l3.6,2.7
				c0,0-3.1,4.3-4.8,6.8c-0.6,0.9-2.1,3.4-2.9,4.9c-0.2,0.4-0.7,1.3-1.2,2.2c4.9-0.4,9.5-1.9,13.5-4.2c0.5-6.2,1.9-14.5,4.7-14
				c-1.1-0.5-4.2-1.1-6.3-1.9c-1.8-0.7-3.2-1.7-4.1-1.7C366.4,212.2,366.7,212.6,367,213.1z"/>
			<path id="XMLID_131_" d="M363.8,210.5c0.1,0,0.1,0.1,0.2,0.2c0.1,0.2,0.3,0.5,0.3,0.9c0,0.1,0,0.2,0,0.3c0.1,0.5,0,1.6-1.4,3.7
				c-0.9,1.3-2.9,7.3-4.5,12.8c-0.6,2-1.1,3.9-1.5,5.5c0.4,0,0.9,0,1.3-0.1c0.5-1,1-1.8,1.2-2.2c0.8-1.4,2.3-4,2.9-4.9
				c1.7-2.5,4.8-6.8,4.8-6.8l-3.6-2.7l0,0c0,0,0,0,0.1,0c0.6,0,5.7-0.4,5.1-0.9c-0.7-0.5-0.7-1.5-1.6-3.2c-0.3-0.5-0.6-0.9-1-1.2
				c-0.5-0.4-0.9-0.7-1.2-0.9C364.2,210.4,363.8,210.4,363.8,210.5c-0.1-0.1-0.1-0.1-0.1-0.1S363.7,210.4,363.8,210.5z"/>
			<path id="XMLID_130_" class="st49" d="M340.7,230c3.9,2.1,8.2,3.5,12.9,3.8c-0.5-1.1-0.9-2-1-2.2c-0.8-1.4-2.3-4-2.9-4.9
				c-1.7-2.5-4.8-6.8-4.8-6.8l3.6-2.8c0,0-5.8-0.4-5.1-0.9c0.7-0.5,0.7-1.5,1.6-3.2c0.3-0.5,0.6-0.9,1-1.2c-0.9,0.3-2.1,1-3.6,1.6
				c-2.3,0.9-5.8,1.6-6.5,2.1C338.8,214.8,340.2,223.7,340.7,230z"/>
			<path id="XMLID_129_" d="M345,213.1c-0.9,1.7-1,2.7-1.6,3.2c-0.7,0.5,5.1,0.9,5.1,0.9l-3.6,2.8c0,0,3.1,4.3,4.8,6.8
				c0.6,0.9,2.1,3.4,2.9,4.9c0.2,0.3,0.5,1.1,1,2.2c0.6,0,1.2,0.1,1.8,0.1c-0.6-1.9-1.2-3.9-1.8-5.8c-1.9-5.9-3.8-11.4-4.5-12.5
				c-1.5-2.2-1.4-3.3-1.4-3.7c0-0.1,0-0.2,0-0.2c0-0.4,0.1-0.7,0.2-0.8c0.1-0.2,0.2-0.2,0.3-0.3c0,0,0.1,0,0.1,0s0,0,0,0
				c-0.1,0-0.5,0-1.2,0.6c-0.2,0.2-0.7,0.5-1.1,0.9C345.6,212.2,345.3,212.6,345,213.1z"/>
			<path id="XMLID_128_" d="M340.7,230c-0.5-6.3-1.9-15.1-4.8-14.4c-0.1,0-0.2,0.1-0.4,0.1c-0.7,0.3-1.3,3.8-2.2,8.7
				C335.5,226.5,338,228.4,340.7,230z"/>
			<path id="XMLID_127_" d="M371.7,229.5c2.7-1.6,5.1-3.6,7.2-5.9c-0.8-4.5-1.4-7.6-2.1-8c-0.2-0.1-0.3-0.1-0.5-0.1
				C373.6,215,372.2,223.3,371.7,229.5z"/>
		</g>
	</g>
	<line class="st51" x1="234.1" y1="185.7" x2="213" y2="205.8"/>
	<line class="st51" x1="254.2" y1="199.4" x2="246.9" y2="225"/>
	<line class="st51" x1="284.4" y1="199.4" x2="296.3" y2="225"/>
	<line class="st51" x1="299.1" y1="179.2" x2="326.6" y2="195.7"/>
</g>
</svg>
