<?xml version="1.0" encoding="utf-8"?>
<!-- Generator: Adobe Illustrator 23.0.0, SVG Export Plug-In . SVG Version: 6.00 Build 0)  -->
<svg version="1.1" id="Capa_1" xmlns="http://www.w3.org/2000/svg" xmlns:xlink="http://www.w3.org/1999/xlink" x="0px" y="0px"
	 viewBox="0 0 382.63 672" style="enable-background:new 0 0 382.63 672;" xml:space="preserve">
<style type="text/css">
	.st0{fill:#E2E2E2;}
	.st1{fill:#FFFFFF;}
	.st2{fill:#CCCDCE;}
	.st3{fill:#F2F2F2;}
	.st4{fill:none;}
	.st5{fill:#0085B0;}
	.st6{fill:#E0EF18;}
	.st7{fill:#CECECE;}
	.st8{fill:#22272F;}
	.st9{fill:#1B2538;}
	.st10{fill:#253452;}
	.st11{fill:#F9F9F9;}
	.st12{fill:#2D3543;}
	.st13{fill:#2A3D60;}
	.st14{fill:#6C92D5;}
	.st15{fill:#587955;}
	.st16{fill:#CD7054;}
	.st17{fill:#F1CC4B;}
	.st18{fill:#DFDFDF;}
	.st19{fill:#ACACAC;}
	.st20{fill:#00D13C;}
	.st21{fill:#866A5E;}
	.st22{fill:#F7DDCB;}
	.st23{fill:#FFE6D4;}
	.st24{fill:#2D2D2D;}
	.st25{fill:#1C1B1A;}
	.st26{fill:#F5F5F5;}
	.st27{fill:#77181C;}
	.st28{fill:#EAEAEA;}
	.st29{fill:#262525;}
	.st30{fill:#11100F;}
	.st31{fill:#FFFFFF;stroke:#000000;stroke-width:6;stroke-miterlimit:10;}
	.st32{fill:#D4D4D4;}
	.st33{fill:#C2C2C2;}
	.st34{fill:#505050;}
	.st35{fill:#53C2C9;}
	.st36{fill:#008B9C;}
	.st37{fill:none;stroke:#00550B;stroke-width:4;stroke-miterlimit:10;}
	.st38{fill:#CE2458;}
	.st39{fill:#155500;}
	.st40{fill:#1549FF;}
	.st41{fill:#606060;stroke:#C6C8CC;stroke-width:6;stroke-miterlimit:10;}
	.st42{fill:#727272;}
	.st43{fill:#207235;}
	.st44{fill:#A3A3A3;}
	.st45{fill:#BCBCBC;}
	.st46{fill:#2A5936;}
	.st47{opacity:0.7;fill:#7F7F7F;}
	.st48{fill:#DAA449;}
	.st49{fill:#85B681;}
	.st50{fill:#A1DC9B;}
	.st51{fill:#90C58B;}
	.st52{fill:#DD9225;}
	.st53{opacity:0.3;}
	.st54{fill:#81C378;}
	.st55{opacity:0.5;}
	.st56{fill:#A2CADE;}
	.st57{fill:#9BAEC9;}
	.st58{fill:#9D2B3B;}
	.st59{fill:#C1D4F2;}
	.st60{fill:#534D46;}
	.st61{fill:#191819;}
	.st62{fill:#222123;}
	.st63{fill:#F3FF00;}
	.st64{fill-rule:evenodd;clip-rule:evenodd;fill:#FFFFFF;}
	.st65{fill-rule:evenodd;clip-rule:evenodd;fill:#1996B8;}
	.st66{fill:none;stroke:#5A605A;stroke-width:4;stroke-miterlimit:10;}
	.st67{fill:#FFB412;}
	.st68{fill:#BACDD1;}
	.st69{fill:#1C4D59;}
	.st70{fill:#A14329;}
	.st71{fill:#FCC083;}
	.st72{fill:#E8AA63;}
	.st73{fill:#D40000;}
	.st74{opacity:0.35;fill:#7D7D7D;}
	.st75{fill:#E5E3E3;}
	.st76{fill:#121F5E;}
	.st77{fill:#A3ADAF;}
	.st78{fill:#C2C6C6;}
	.st79{fill:#E5E5E5;stroke:#FFFFFF;stroke-miterlimit:10;}
	.st80{fill:#ACB4B5;}
	.st81{fill:#7F8384;}
	.st82{fill:#282828;}
	.st83{fill:none;stroke:#46A508;stroke-width:6;stroke-miterlimit:10;}
	.st84{fill:none;stroke:#46A508;stroke-width:6;stroke-miterlimit:10;stroke-dasharray:11.7425,11.7425;}
	.st85{fill:#C89D76;}
	.st86{opacity:0.4;}
	.st87{fill:#ADADAD;}
	.st88{fill:#76A172;}
	.st89{fill:#62835F;}
	.st90{fill:#96D090;}
	.st91{fill:#EDC3A6;}
	.st92{opacity:0.69;}
	.st93{fill:#E5D3D6;}
	.st94{opacity:0.44;}
	.st95{fill:#A5A5A5;}
	.st96{fill:#DDE5E4;}
	.st97{fill:#FDFDFD;}
	.st98{fill:#E0C348;}
	.st99{fill:#606060;}
</style>
<g>
	<g>
		<path class="st5" d="M0,194.36c0,22,13.29,27.86,29.54,13.03c0,0,156.99-143.3,353.09,26.97V40c0-22-18-40-40-40H40
			C18,0,0,18,0,40V194.36z"/>
	</g>
	<g>
		<path class="st5" d="M382.16,632c0,22-18,40-40,40H40.48c-22,0-40-18-40-40v-46.27c0-22,18-40,40-40h301.68c22,0,40,18,40,40V632z
			"/>
	</g>
	<g>
		<path d="M123.24,363.82c-1.66-0.41-3.01-0.97-4.03-1.7c-0.43-0.3-0.64-0.59-0.64-0.86c0-0.19,0.07-0.39,0.22-0.61l1.86-2.91
			c0.19-0.28,0.38-0.42,0.58-0.42c0.17,0,0.37,0.08,0.61,0.22c0.77,0.47,1.65,0.84,2.64,1.1s1.96,0.4,2.9,0.4
			c0.79,0,1.36-0.11,1.71-0.32c0.35-0.21,0.53-0.54,0.53-0.99c0-0.49-0.23-0.88-0.7-1.18c-0.47-0.3-1.28-0.67-2.43-1.12
			c-2.16-0.83-3.85-1.78-5.09-2.83c-1.24-1.06-1.86-2.46-1.86-4.21c0-2.22,0.77-3.89,2.32-5.01c1.55-1.12,3.63-1.68,6.26-1.68
			c1.83,0,3.4,0.16,4.69,0.48c1.29,0.32,2.42,0.82,3.38,1.5c0.43,0.3,0.64,0.59,0.64,0.86c0,0.19-0.08,0.39-0.22,0.61l-1.86,2.91
			c-0.19,0.3-0.38,0.45-0.58,0.45c-0.13,0-0.33-0.08-0.61-0.26c-0.51-0.34-1.12-0.62-1.82-0.85c-0.7-0.22-1.46-0.34-2.27-0.34
			c-0.75,0-1.31,0.11-1.7,0.32c-0.38,0.21-0.58,0.55-0.58,1.02c0,0.38,0.13,0.7,0.4,0.96c0.27,0.26,0.6,0.47,1.01,0.66
			c0.4,0.18,1.11,0.48,2.11,0.88c1.6,0.64,2.86,1.25,3.78,1.84s1.61,1.29,2.08,2.11c0.47,0.82,0.7,1.86,0.7,3.12
			c0,1.92-0.72,3.47-2.16,4.66c-1.44,1.18-3.59,1.78-6.45,1.78C126.7,364.43,124.9,364.23,123.24,363.82z"/>
		<path d="M139.29,363.5c-0.29-0.3-0.43-0.76-0.43-1.38v-18.11c0-0.62,0.14-1.08,0.43-1.38c0.29-0.3,0.78-0.45,1.49-0.45h3.81
			c0.72,0,1.23,0.14,1.52,0.43c0.29,0.29,0.43,0.75,0.43,1.39v18.11c0,0.62-0.14,1.08-0.43,1.38c-0.29,0.3-0.79,0.45-1.52,0.45
			h-3.81C140.07,363.95,139.57,363.8,139.29,363.5z"/>
		<path d="M152.84,363.82c-1.66-0.41-3.01-0.97-4.03-1.7c-0.43-0.3-0.64-0.59-0.64-0.86c0-0.19,0.07-0.39,0.22-0.61l1.86-2.91
			c0.19-0.28,0.38-0.42,0.58-0.42c0.17,0,0.37,0.08,0.61,0.22c0.77,0.47,1.65,0.84,2.64,1.1s1.96,0.4,2.9,0.4
			c0.79,0,1.36-0.11,1.71-0.32c0.35-0.21,0.53-0.54,0.53-0.99c0-0.49-0.23-0.88-0.7-1.18c-0.47-0.3-1.28-0.67-2.43-1.12
			c-2.16-0.83-3.85-1.78-5.09-2.83c-1.24-1.06-1.86-2.46-1.86-4.21c0-2.22,0.77-3.89,2.32-5.01c1.55-1.12,3.63-1.68,6.26-1.68
			c1.83,0,3.4,0.16,4.69,0.48c1.29,0.32,2.42,0.82,3.38,1.5c0.43,0.3,0.64,0.59,0.64,0.86c0,0.19-0.08,0.39-0.22,0.61l-1.86,2.91
			c-0.19,0.3-0.38,0.45-0.58,0.45c-0.13,0-0.33-0.08-0.61-0.26c-0.51-0.34-1.12-0.62-1.82-0.85c-0.7-0.22-1.46-0.34-2.27-0.34
			c-0.75,0-1.31,0.11-1.7,0.32c-0.38,0.21-0.58,0.55-0.58,1.02c0,0.38,0.13,0.7,0.4,0.96c0.27,0.26,0.6,0.47,1.01,0.66
			c0.4,0.18,1.11,0.48,2.11,0.88c1.6,0.64,2.86,1.25,3.78,1.84s1.61,1.29,2.08,2.11c0.47,0.82,0.7,1.86,0.7,3.12
			c0,1.92-0.72,3.47-2.16,4.66c-1.44,1.18-3.59,1.78-6.45,1.78C156.3,364.43,154.5,364.23,152.84,363.82z"/>
		<path d="M173.17,363.5c-0.29-0.3-0.43-0.76-0.43-1.38v-14.5h-4.61c-0.68,0-1.15-0.14-1.39-0.43s-0.37-0.75-0.37-1.39v-1.79
			c0-0.64,0.12-1.1,0.37-1.39s0.71-0.43,1.39-0.43h16.9c0.68,0,1.15,0.14,1.39,0.43c0.24,0.29,0.37,0.75,0.37,1.39v1.79
			c0,0.64-0.12,1.1-0.37,1.39c-0.25,0.29-0.71,0.43-1.39,0.43h-4.61v14.5c0,0.62-0.14,1.08-0.43,1.38c-0.29,0.3-0.79,0.45-1.52,0.45
			h-3.81C173.96,363.95,173.46,363.8,173.17,363.5z"/>
		<path d="M188.18,363.5c-0.29-0.3-0.43-0.76-0.43-1.38v-18.11c0-0.62,0.14-1.08,0.43-1.38s0.78-0.45,1.49-0.45h13.25
			c0.68,0,1.15,0.14,1.39,0.43s0.37,0.75,0.37,1.39v1.79c0,0.64-0.12,1.1-0.37,1.39s-0.71,0.43-1.39,0.43h-7.49v2.75h4.61
			c0.68,0,1.15,0.14,1.39,0.43s0.37,0.75,0.37,1.39v1.73c0,0.64-0.12,1.1-0.37,1.39s-0.71,0.43-1.39,0.43h-4.61v2.75h7.46
			c0.68,0,1.15,0.14,1.39,0.43c0.24,0.29,0.37,0.75,0.37,1.39v1.79c0,0.64-0.12,1.1-0.37,1.39c-0.25,0.29-0.71,0.43-1.39,0.43
			h-13.22C188.96,363.95,188.47,363.8,188.18,363.5z"/>
		<path d="M206.55,363.5c-0.29-0.3-0.43-0.76-0.43-1.38v-18.14c0-0.62,0.14-1.07,0.43-1.36c0.29-0.29,0.79-0.43,1.52-0.43h3.68
			c0.47,0,0.84,0.06,1.12,0.18c0.28,0.12,0.49,0.35,0.64,0.69l3.74,9.38l3.74-9.38c0.15-0.34,0.36-0.57,0.64-0.69
			c0.28-0.12,0.65-0.18,1.12-0.18h3.68c0.73,0,1.23,0.14,1.52,0.43c0.29,0.29,0.43,0.74,0.43,1.36v18.14c0,0.62-0.14,1.08-0.43,1.38
			c-0.29,0.3-0.79,0.45-1.49,0.45h-3.07c-0.7,0-1.21-0.15-1.5-0.45c-0.3-0.3-0.45-0.76-0.45-1.38v-8.74l-1.89,4.35
			c-0.26,0.62-0.53,1.06-0.83,1.33s-0.79,0.4-1.47,0.4c-0.68,0-1.17-0.13-1.47-0.4c-0.3-0.27-0.58-0.71-0.83-1.33l-1.89-4.35v8.74
			c0,0.62-0.14,1.08-0.43,1.38c-0.29,0.3-0.79,0.45-1.52,0.45h-3.07C207.33,363.95,206.84,363.8,206.55,363.5z"/>
		<path d="M229.19,363.28c0-0.19,0.05-0.43,0.16-0.7l7.97-19.17c0.19-0.45,0.41-0.76,0.66-0.94c0.24-0.18,0.59-0.27,1.04-0.27h3.49
			c0.45,0,0.79,0.09,1.04,0.27c0.24,0.18,0.46,0.5,0.66,0.94l7.94,19.17c0.11,0.28,0.16,0.51,0.16,0.7c0,0.45-0.24,0.67-0.71,0.67
			h-6.02c-0.66,0-1.08-0.29-1.25-0.86l-0.77-2.37h-5.66l-0.74,2.37c-0.17,0.58-0.59,0.86-1.25,0.86h-6.02
			C229.42,363.95,229.19,363.73,229.19,363.28z M241.99,355.66l-1.25-3.97l-1.25,3.97H241.99z"/>
		<path d="M256.52,363.82c-1.66-0.41-3.01-0.97-4.03-1.7c-0.43-0.3-0.64-0.59-0.64-0.86c0-0.19,0.07-0.39,0.22-0.61l1.86-2.91
			c0.19-0.28,0.38-0.42,0.58-0.42c0.17,0,0.37,0.08,0.61,0.22c0.77,0.47,1.65,0.84,2.64,1.1s1.96,0.4,2.9,0.4
			c0.79,0,1.36-0.11,1.71-0.32s0.53-0.54,0.53-0.99c0-0.49-0.24-0.88-0.7-1.18c-0.47-0.3-1.28-0.67-2.43-1.12
			c-2.15-0.83-3.85-1.78-5.09-2.83c-1.24-1.06-1.86-2.46-1.86-4.21c0-2.22,0.77-3.89,2.32-5.01c1.55-1.12,3.63-1.68,6.26-1.68
			c1.83,0,3.4,0.16,4.69,0.48c1.29,0.32,2.42,0.82,3.38,1.5c0.43,0.3,0.64,0.59,0.64,0.86c0,0.19-0.07,0.39-0.22,0.61l-1.86,2.91
			c-0.19,0.3-0.38,0.45-0.58,0.45c-0.13,0-0.33-0.08-0.61-0.26c-0.51-0.34-1.12-0.62-1.82-0.85c-0.7-0.22-1.46-0.34-2.27-0.34
			c-0.75,0-1.31,0.11-1.7,0.32c-0.38,0.21-0.58,0.55-0.58,1.02c0,0.38,0.13,0.7,0.4,0.96c0.27,0.26,0.6,0.47,1.01,0.66
			c0.41,0.18,1.11,0.48,2.11,0.88c1.6,0.64,2.86,1.25,3.78,1.84c0.92,0.59,1.61,1.29,2.08,2.11c0.47,0.82,0.71,1.86,0.71,3.12
			c0,1.92-0.72,3.47-2.16,4.66c-1.44,1.18-3.59,1.78-6.45,1.78C259.98,364.43,258.18,364.23,256.52,363.82z"/>
		<path d="M112.84,401.9c-0.29-0.3-0.43-0.76-0.43-1.38v-18.11c0-0.62,0.14-1.08,0.43-1.38s0.78-0.45,1.49-0.45h7.65
			c3.2,0,5.53,0.63,6.99,1.9c1.46,1.27,2.19,3.18,2.19,5.74c0,2.56-0.73,4.47-2.19,5.73s-3.78,1.89-6.96,1.89h-1.92v4.67
			c0,0.62-0.14,1.08-0.43,1.38c-0.29,0.3-0.79,0.45-1.52,0.45h-3.81C113.62,402.35,113.13,402.2,112.84,401.9z M121.3,390.42
			c0.68,0,1.22-0.18,1.62-0.54c0.39-0.36,0.59-0.91,0.59-1.63c0-0.75-0.2-1.3-0.59-1.66c-0.4-0.36-0.93-0.54-1.62-0.54h-2.18v4.38
			H121.3z"/>
		<path d="M132.55,401.9c-0.29-0.3-0.43-0.76-0.43-1.38v-18.11c0-0.62,0.14-1.08,0.43-1.38c0.29-0.3,0.78-0.45,1.49-0.45h7.65
			c3.2,0,5.53,0.63,6.99,1.9c1.46,1.27,2.19,3.18,2.19,5.74c0,1.54-0.26,2.83-0.78,3.89c-0.52,1.06-1.33,1.88-2.42,2.48l2.98,6.37
			c0.09,0.17,0.13,0.36,0.13,0.58c0,0.23-0.08,0.43-0.24,0.58s-0.37,0.22-0.62,0.22h-5.41c-0.34,0-0.61-0.05-0.82-0.14
			c-0.2-0.1-0.35-0.26-0.43-0.5l-2.37-5.95h-1.09v4.77c0,0.62-0.14,1.08-0.43,1.38c-0.29,0.3-0.79,0.45-1.52,0.45h-3.81
			C133.33,402.35,132.84,402.2,132.55,401.9z M141.01,390.42c0.68,0,1.22-0.18,1.62-0.54c0.39-0.36,0.59-0.91,0.59-1.63
			c0-0.75-0.2-1.3-0.59-1.66c-0.39-0.36-0.93-0.54-1.62-0.54h-2.18v4.38H141.01z"/>
		<path d="M151.83,401.68c0-0.19,0.05-0.43,0.16-0.7l7.97-19.17c0.19-0.45,0.41-0.76,0.66-0.94c0.24-0.18,0.59-0.27,1.04-0.27h3.49
			c0.45,0,0.79,0.09,1.04,0.27c0.25,0.18,0.46,0.5,0.66,0.94l7.94,19.17c0.11,0.28,0.16,0.51,0.16,0.7c0,0.45-0.24,0.67-0.7,0.67
			h-6.02c-0.66,0-1.08-0.29-1.25-0.86l-0.77-2.37h-5.66l-0.74,2.37c-0.17,0.58-0.59,0.86-1.25,0.86h-6.02
			C152.06,402.35,151.83,402.13,151.83,401.68z M159.96,378.67c0-0.17,0.03-0.35,0.1-0.54l1.34-3.71c0.17-0.49,0.37-0.82,0.61-0.99
			c0.24-0.17,0.67-0.26,1.31-0.26h4.58c0.45,0,0.8,0.08,1.06,0.24c0.26,0.16,0.38,0.39,0.38,0.69c0,0.26-0.08,0.52-0.26,0.8
			l-2.05,3.46c-0.3,0.51-0.59,0.84-0.87,0.99s-0.78,0.22-1.5,0.22h-3.42C160.38,379.57,159.96,379.27,159.96,378.67z M164.63,394.06
			l-1.25-3.97l-1.25,3.97H164.63z"/>
		<path d="M177.37,399.97c-2.16-1.91-3.23-4.74-3.23-8.5c0-3.78,1.04-6.61,3.12-8.51s5.05-2.85,8.91-2.85
			c1.75,0,3.31,0.17,4.67,0.51c1.36,0.34,2.51,0.82,3.42,1.44c0.26,0.19,0.38,0.41,0.38,0.64c0,0.19-0.1,0.46-0.29,0.8l-1.6,2.75
			c-0.17,0.3-0.37,0.45-0.61,0.45c-0.15,0-0.39-0.08-0.74-0.26c-0.6-0.3-1.22-0.53-1.87-0.7c-0.65-0.17-1.41-0.26-2.29-0.26
			c-1.77,0-3.13,0.51-4.06,1.54c-0.94,1.02-1.41,2.51-1.41,4.45c0,1.92,0.51,3.4,1.54,4.43c1.02,1.04,2.42,1.55,4.19,1.55
			c1.54,0,2.94-0.32,4.22-0.96c0.34-0.17,0.59-0.26,0.74-0.26c0.23,0,0.44,0.15,0.61,0.45l1.6,2.75c0.19,0.34,0.29,0.61,0.29,0.8
			c0,0.24-0.13,0.45-0.38,0.64c-0.92,0.62-2.07,1.1-3.46,1.44s-2.96,0.51-4.7,0.51C182.54,402.83,179.52,401.88,177.37,399.97z"/>
		<path d="M201.29,401.9c-0.29-0.3-0.43-0.76-0.43-1.38v-14.5h-4.61c-0.68,0-1.15-0.14-1.39-0.43c-0.25-0.29-0.37-0.75-0.37-1.39
			v-1.79c0-0.64,0.12-1.1,0.37-1.39c0.24-0.29,0.71-0.43,1.39-0.43h16.9c0.68,0,1.15,0.14,1.39,0.43c0.24,0.29,0.37,0.75,0.37,1.39
			v1.79c0,0.64-0.12,1.1-0.37,1.39c-0.25,0.29-0.71,0.43-1.39,0.43h-4.61v14.5c0,0.62-0.14,1.08-0.43,1.38
			c-0.29,0.3-0.79,0.45-1.52,0.45h-3.81C202.07,402.35,201.57,402.2,201.29,401.9z"/>
		<path d="M216.29,401.9c-0.29-0.3-0.43-0.76-0.43-1.38v-18.11c0-0.62,0.14-1.08,0.43-1.38c0.29-0.3,0.78-0.45,1.49-0.45h3.81
			c0.73,0,1.23,0.14,1.52,0.43c0.29,0.29,0.43,0.75,0.43,1.39v18.11c0,0.62-0.14,1.08-0.43,1.38c-0.29,0.3-0.79,0.45-1.52,0.45
			h-3.81C217.08,402.35,216.58,402.2,216.29,401.9z"/>
		<path d="M228.37,399.97c-2.16-1.91-3.23-4.74-3.23-8.5c0-3.78,1.04-6.61,3.12-8.51s5.05-2.85,8.91-2.85
			c1.75,0,3.31,0.17,4.67,0.51c1.36,0.34,2.51,0.82,3.42,1.44c0.26,0.19,0.38,0.41,0.38,0.64c0,0.19-0.1,0.46-0.29,0.8l-1.6,2.75
			c-0.17,0.3-0.37,0.45-0.61,0.45c-0.15,0-0.39-0.08-0.74-0.26c-0.6-0.3-1.22-0.53-1.87-0.7c-0.65-0.17-1.41-0.26-2.29-0.26
			c-1.77,0-3.13,0.51-4.06,1.54c-0.94,1.02-1.41,2.51-1.41,4.45c0,1.92,0.51,3.4,1.54,4.43c1.02,1.04,2.42,1.55,4.19,1.55
			c1.54,0,2.94-0.32,4.22-0.96c0.34-0.17,0.59-0.26,0.74-0.26c0.23,0,0.44,0.15,0.61,0.45l1.6,2.75c0.19,0.34,0.29,0.61,0.29,0.8
			c0,0.24-0.13,0.45-0.38,0.64c-0.92,0.62-2.07,1.1-3.46,1.44s-2.96,0.51-4.7,0.51C233.54,402.83,230.53,401.88,228.37,399.97z"/>
		<path d="M248.44,399.87c-1.96-1.97-2.94-4.77-2.94-8.4s0.98-6.43,2.94-8.4c1.96-1.97,4.84-2.96,8.64-2.96s6.68,0.99,8.64,2.96
			c1.96,1.97,2.94,4.77,2.94,8.4s-0.98,6.43-2.94,8.4c-1.96,1.97-4.84,2.96-8.64,2.96S250.4,401.85,248.44,399.87z M260.08,395.97
			c0.62-0.99,0.93-2.49,0.93-4.5c0-2.03-0.31-3.53-0.93-4.51c-0.62-0.98-1.62-1.47-3.01-1.47s-2.39,0.49-3.01,1.47
			s-0.93,2.49-0.93,4.51c0,2.01,0.31,3.5,0.93,4.5s1.62,1.49,3.01,1.49S259.47,396.96,260.08,395.97z"/>
		<path d="M272.88,402.22c-1.66-0.41-3.01-0.97-4.03-1.7c-0.43-0.3-0.64-0.59-0.64-0.86c0-0.19,0.07-0.39,0.22-0.61l1.86-2.91
			c0.19-0.28,0.38-0.42,0.58-0.42c0.17,0,0.37,0.08,0.61,0.22c0.77,0.47,1.65,0.84,2.64,1.1s1.96,0.4,2.9,0.4
			c0.79,0,1.36-0.11,1.71-0.32s0.53-0.54,0.53-0.99c0-0.49-0.23-0.88-0.7-1.18c-0.47-0.3-1.28-0.67-2.43-1.12
			c-2.16-0.83-3.85-1.78-5.09-2.83c-1.24-1.06-1.86-2.46-1.86-4.21c0-2.22,0.77-3.89,2.32-5.01c1.55-1.12,3.63-1.68,6.26-1.68
			c1.83,0,3.4,0.16,4.69,0.48c1.29,0.32,2.42,0.82,3.38,1.5c0.43,0.3,0.64,0.59,0.64,0.86c0,0.19-0.08,0.39-0.22,0.61l-1.86,2.91
			c-0.19,0.3-0.38,0.45-0.58,0.45c-0.13,0-0.33-0.08-0.61-0.26c-0.51-0.34-1.12-0.62-1.82-0.85c-0.71-0.22-1.46-0.34-2.27-0.34
			c-0.75,0-1.31,0.11-1.7,0.32c-0.38,0.21-0.58,0.55-0.58,1.02c0,0.38,0.13,0.7,0.4,0.96c0.27,0.26,0.6,0.47,1.01,0.66
			c0.41,0.18,1.11,0.48,2.11,0.88c1.6,0.64,2.86,1.25,3.78,1.84c0.92,0.59,1.61,1.29,2.08,2.11c0.47,0.82,0.7,1.86,0.7,3.12
			c0,1.92-0.72,3.47-2.16,4.66c-1.44,1.18-3.59,1.78-6.45,1.78C276.35,402.83,274.55,402.63,272.88,402.22z"/>
		<path d="M70.04,440.3c-0.29-0.3-0.43-0.76-0.43-1.38v-18.11c0-0.62,0.14-1.08,0.43-1.38s0.78-0.45,1.49-0.45h13.25
			c0.68,0,1.15,0.14,1.39,0.43s0.37,0.75,0.37,1.39v1.79c0,0.64-0.12,1.1-0.37,1.39s-0.71,0.43-1.39,0.43h-7.49v2.75h4.61
			c0.68,0,1.15,0.14,1.39,0.43s0.37,0.75,0.37,1.39v1.73c0,0.64-0.12,1.1-0.37,1.39s-0.71,0.43-1.39,0.43h-4.61v2.75h7.46
			c0.68,0,1.15,0.14,1.39,0.43c0.24,0.29,0.37,0.75,0.37,1.39v1.79c0,0.64-0.12,1.1-0.37,1.39c-0.25,0.29-0.71,0.43-1.39,0.43H71.53
			C70.82,440.75,70.33,440.6,70.04,440.3z"/>
		<path d="M98.01,440.3c-0.29-0.3-0.43-0.76-0.43-1.38v-18.11c0-0.62,0.14-1.08,0.43-1.38c0.29-0.3,0.78-0.45,1.49-0.45h3.81
			c0.73,0,1.23,0.14,1.52,0.43c0.29,0.29,0.43,0.75,0.43,1.39v18.11c0,0.62-0.14,1.08-0.43,1.38c-0.29,0.3-0.79,0.45-1.52,0.45
			h-3.81C98.79,440.75,98.29,440.6,98.01,440.3z"/>
		<path d="M107.93,440.3c-0.29-0.3-0.43-0.76-0.43-1.38v-18.14c0-0.62,0.14-1.07,0.43-1.36c0.29-0.29,0.79-0.43,1.52-0.43h3.04
			c0.45,0,0.79,0.06,1.04,0.18s0.49,0.35,0.72,0.69l5.79,8.61v-7.65c0-0.62,0.14-1.08,0.43-1.38s0.78-0.45,1.49-0.45h3.81
			c0.72,0,1.23,0.14,1.52,0.43c0.29,0.29,0.43,0.75,0.43,1.39v18.14c0,0.62-0.14,1.07-0.43,1.36c-0.29,0.29-0.79,0.43-1.52,0.43
			h-3.04c-0.45,0-0.79-0.06-1.04-0.18c-0.25-0.12-0.49-0.35-0.72-0.69l-5.79-8.61v7.68c0,0.62-0.14,1.07-0.43,1.36
			c-0.29,0.29-0.79,0.43-1.52,0.43h-3.81C108.71,440.75,108.21,440.6,107.93,440.3z"/>
		<path d="M130.39,440.3c-0.29-0.3-0.43-0.76-0.43-1.38v-18.14c0-0.62,0.14-1.07,0.43-1.36c0.29-0.29,0.79-0.43,1.52-0.43h3.04
			c0.45,0,0.79,0.06,1.04,0.18s0.49,0.35,0.72,0.69l5.79,8.61v-7.65c0-0.62,0.14-1.08,0.43-1.38c0.29-0.3,0.78-0.45,1.49-0.45h3.81
			c0.73,0,1.23,0.14,1.52,0.43c0.29,0.29,0.43,0.75,0.43,1.39v18.14c0,0.62-0.14,1.07-0.43,1.36c-0.29,0.29-0.79,0.43-1.52,0.43
			h-3.04c-0.45,0-0.79-0.06-1.04-0.18s-0.49-0.35-0.72-0.69l-5.79-8.61v7.68c0,0.62-0.14,1.07-0.43,1.36
			c-0.29,0.29-0.79,0.43-1.52,0.43h-3.81C131.17,440.75,130.68,440.6,130.39,440.3z"/>
		<path d="M154.72,438.27c-1.96-1.97-2.94-4.77-2.94-8.4s0.98-6.43,2.94-8.4c1.96-1.97,4.84-2.96,8.64-2.96s6.68,0.99,8.64,2.96
			c1.96,1.97,2.94,4.77,2.94,8.4s-0.98,6.43-2.94,8.4c-1.96,1.97-4.84,2.96-8.64,2.96S156.69,440.25,154.72,438.27z M166.37,434.37
			c0.62-0.99,0.93-2.49,0.93-4.5c0-2.03-0.31-3.53-0.93-4.51s-1.62-1.47-3.01-1.47s-2.39,0.49-3.01,1.47
			c-0.62,0.98-0.93,2.49-0.93,4.51c0,2.01,0.31,3.5,0.93,4.5c0.62,0.99,1.62,1.49,3.01,1.49S165.75,435.36,166.37,434.37z"/>
		<path d="M182.26,440.48c-0.25-0.18-0.45-0.5-0.62-0.94l-7.65-19.17c-0.11-0.28-0.16-0.51-0.16-0.7c0-0.45,0.23-0.67,0.7-0.67h6.02
			c0.66,0,1.08,0.29,1.25,0.86l3.26,10.43l3.26-10.43c0.17-0.58,0.59-0.86,1.25-0.86h6.02c0.47,0,0.7,0.22,0.7,0.67
			c0,0.19-0.05,0.43-0.16,0.7l-7.62,19.17c-0.17,0.45-0.38,0.76-0.62,0.94c-0.25,0.18-0.6,0.27-1.07,0.27h-3.49
			C182.86,440.75,182.51,440.66,182.26,440.48z"/>
		<path d="M192.29,440.08c0-0.19,0.05-0.43,0.16-0.7l7.97-19.17c0.19-0.45,0.41-0.76,0.66-0.94c0.24-0.18,0.59-0.27,1.04-0.27h3.49
			c0.45,0,0.79,0.09,1.04,0.27c0.25,0.18,0.46,0.5,0.66,0.94l7.94,19.17c0.11,0.28,0.16,0.51,0.16,0.7c0,0.45-0.24,0.67-0.7,0.67
			h-6.02c-0.66,0-1.08-0.29-1.25-0.86l-0.77-2.37H201l-0.74,2.37c-0.17,0.58-0.59,0.86-1.25,0.86H193
			C192.53,440.75,192.29,440.53,192.29,440.08z M205.09,432.46l-1.25-3.97l-1.25,3.97H205.09z"/>
		<path d="M217.43,440.3c-0.29-0.3-0.43-0.76-0.43-1.38v-18.11c0-0.62,0.14-1.08,0.43-1.38c0.29-0.3,0.78-0.45,1.49-0.45h7.36
			c7.53,0,11.3,3.63,11.3,10.88c0,3.58-0.97,6.29-2.9,8.13c-1.93,1.83-4.73,2.75-8.4,2.75h-7.36
			C218.21,440.75,217.72,440.6,217.43,440.3z M226.57,435.31c1.19,0,2.05-0.39,2.58-1.18s0.78-2.21,0.78-4.26s-0.26-3.47-0.78-4.26
			s-1.38-1.18-2.58-1.18h-1.89v10.88H226.57z"/>
		<path d="M241.48,438.27c-1.96-1.97-2.94-4.77-2.94-8.4s0.98-6.43,2.94-8.4c1.96-1.97,4.84-2.96,8.64-2.96s6.68,0.99,8.64,2.96
			c1.96,1.97,2.94,4.77,2.94,8.4s-0.98,6.43-2.94,8.4c-1.96,1.97-4.84,2.96-8.64,2.96S243.44,440.25,241.48,438.27z M253.13,434.37
			c0.62-0.99,0.93-2.49,0.93-4.5c0-2.03-0.31-3.53-0.93-4.51s-1.62-1.47-3.01-1.47s-2.39,0.49-3.01,1.47
			c-0.62,0.98-0.93,2.49-0.93,4.51c0,2.01,0.31,3.5,0.93,4.5c0.62,0.99,1.62,1.49,3.01,1.49S252.51,435.36,253.13,434.37z"/>
		<path d="M263.73,440.3c-0.29-0.3-0.43-0.76-0.43-1.38v-18.11c0-0.62,0.14-1.08,0.43-1.38c0.29-0.3,0.79-0.45,1.49-0.45h7.65
			c3.2,0,5.53,0.63,6.99,1.9c1.46,1.27,2.19,3.18,2.19,5.74c0,1.54-0.26,2.83-0.78,3.89c-0.52,1.06-1.33,1.88-2.42,2.48l2.98,6.37
			c0.08,0.17,0.13,0.36,0.13,0.58c0,0.23-0.08,0.43-0.24,0.58s-0.37,0.22-0.62,0.22h-5.41c-0.34,0-0.61-0.05-0.82-0.14
			c-0.2-0.1-0.35-0.26-0.43-0.5l-2.37-5.95h-1.09v4.77c0,0.62-0.14,1.08-0.43,1.38c-0.29,0.3-0.79,0.45-1.52,0.45h-3.81
			C264.52,440.75,264.02,440.6,263.73,440.3z M272.2,428.82c0.68,0,1.22-0.18,1.62-0.54c0.39-0.36,0.59-0.91,0.59-1.63
			c0-0.75-0.2-1.3-0.59-1.66c-0.39-0.36-0.93-0.54-1.62-0.54h-2.18v4.38H272.2z"/>
		<path d="M284.08,440.3c-0.29-0.3-0.43-0.76-0.43-1.38v-18.11c0-0.62,0.14-1.08,0.43-1.38c0.29-0.3,0.79-0.45,1.49-0.45h13.25
			c0.68,0,1.15,0.14,1.39,0.43c0.24,0.29,0.37,0.75,0.37,1.39v1.79c0,0.64-0.12,1.1-0.37,1.39c-0.25,0.29-0.71,0.43-1.39,0.43h-7.49
			v2.75h4.61c0.68,0,1.15,0.14,1.39,0.43c0.25,0.29,0.37,0.75,0.37,1.39v1.73c0,0.64-0.12,1.1-0.37,1.39
			c-0.24,0.29-0.71,0.43-1.39,0.43h-4.61v2.75h7.46c0.68,0,1.15,0.14,1.39,0.43s0.37,0.75,0.37,1.39v1.79c0,0.64-0.12,1.1-0.37,1.39
			s-0.71,0.43-1.39,0.43h-13.22C284.87,440.75,284.37,440.6,284.08,440.3z"/>
		<path d="M306.08,440.62c-1.66-0.41-3.01-0.97-4.03-1.7c-0.43-0.3-0.64-0.59-0.64-0.86c0-0.19,0.07-0.39,0.22-0.61l1.86-2.91
			c0.19-0.28,0.38-0.42,0.58-0.42c0.17,0,0.37,0.08,0.61,0.22c0.77,0.47,1.65,0.84,2.64,1.1s1.96,0.4,2.9,0.4
			c0.79,0,1.36-0.11,1.71-0.32c0.35-0.21,0.53-0.54,0.53-0.99c0-0.49-0.24-0.88-0.7-1.18s-1.28-0.67-2.43-1.12
			c-2.15-0.83-3.85-1.78-5.09-2.83c-1.24-1.06-1.86-2.46-1.86-4.21c0-2.22,0.77-3.89,2.32-5.01c1.55-1.12,3.63-1.68,6.26-1.68
			c1.83,0,3.4,0.16,4.69,0.48c1.29,0.32,2.42,0.82,3.38,1.5c0.43,0.3,0.64,0.59,0.64,0.86c0,0.19-0.08,0.39-0.22,0.61l-1.86,2.91
			c-0.19,0.3-0.38,0.45-0.58,0.45c-0.13,0-0.33-0.08-0.61-0.26c-0.51-0.34-1.12-0.62-1.82-0.85c-0.7-0.22-1.46-0.34-2.27-0.34
			c-0.75,0-1.31,0.11-1.7,0.32c-0.38,0.21-0.58,0.55-0.58,1.02c0,0.38,0.13,0.7,0.4,0.96c0.27,0.26,0.6,0.47,1.01,0.66
			c0.41,0.18,1.11,0.48,2.11,0.88c1.6,0.64,2.86,1.25,3.78,1.84c0.92,0.59,1.61,1.29,2.08,2.11c0.47,0.82,0.7,1.86,0.7,3.12
			c0,1.92-0.72,3.47-2.16,4.66c-1.44,1.18-3.59,1.78-6.45,1.78C309.55,441.23,307.75,441.03,306.08,440.62z"/>
		<path d="M84.69,476.77c-2.16-1.91-3.23-4.74-3.23-8.5c0-3.78,1.04-6.61,3.12-8.51s5.05-2.85,8.91-2.85c1.75,0,3.31,0.17,4.67,0.51
			c1.37,0.34,2.51,0.82,3.42,1.44c0.26,0.19,0.38,0.41,0.38,0.64c0,0.19-0.1,0.46-0.29,0.8l-1.6,2.75c-0.17,0.3-0.37,0.45-0.61,0.45
			c-0.15,0-0.39-0.08-0.74-0.26c-0.6-0.3-1.22-0.53-1.87-0.7c-0.65-0.17-1.41-0.26-2.29-0.26c-1.77,0-3.13,0.51-4.06,1.54
			c-0.94,1.02-1.41,2.51-1.41,4.45c0,1.92,0.51,3.4,1.54,4.43c1.02,1.04,2.42,1.55,4.19,1.55c1.54,0,2.94-0.32,4.22-0.96
			c0.34-0.17,0.59-0.26,0.74-0.26c0.23,0,0.44,0.15,0.61,0.45l1.6,2.75c0.19,0.34,0.29,0.61,0.29,0.8c0,0.24-0.13,0.45-0.38,0.64
			c-0.92,0.62-2.07,1.1-3.46,1.44c-1.39,0.34-2.96,0.51-4.71,0.51C89.87,479.63,86.85,478.68,84.69,476.77z"/>
		<path d="M104.76,476.67c-1.96-1.97-2.94-4.77-2.94-8.4s0.98-6.43,2.94-8.4c1.96-1.97,4.84-2.96,8.64-2.96s6.68,0.99,8.64,2.96
			c1.96,1.97,2.94,4.77,2.94,8.4s-0.98,6.43-2.94,8.4c-1.96,1.97-4.84,2.96-8.64,2.96S106.72,478.65,104.76,476.67z M116.41,472.77
			c0.62-0.99,0.93-2.49,0.93-4.5c0-2.03-0.31-3.53-0.93-4.51s-1.62-1.47-3.01-1.47s-2.39,0.49-3.01,1.47
			c-0.62,0.98-0.93,2.49-0.93,4.51c0,2.01,0.31,3.5,0.93,4.5c0.62,0.99,1.62,1.49,3.01,1.49S115.79,473.76,116.41,472.77z"/>
		<path d="M127.01,478.7c-0.29-0.3-0.43-0.76-0.43-1.38v-18.14c0-0.62,0.14-1.07,0.43-1.36c0.29-0.29,0.79-0.43,1.52-0.43h3.04
			c0.45,0,0.79,0.06,1.04,0.18s0.49,0.35,0.72,0.69l5.79,8.61v-7.65c0-0.62,0.14-1.08,0.43-1.38c0.29-0.3,0.78-0.45,1.49-0.45h3.81
			c0.73,0,1.23,0.14,1.52,0.43c0.29,0.29,0.43,0.75,0.43,1.39v18.14c0,0.62-0.14,1.07-0.43,1.36c-0.29,0.29-0.79,0.43-1.52,0.43
			h-3.04c-0.45,0-0.79-0.06-1.04-0.18s-0.49-0.35-0.72-0.69l-5.79-8.61v7.68c0,0.62-0.14,1.07-0.43,1.36
			c-0.29,0.29-0.79,0.43-1.52,0.43h-3.81C127.8,479.15,127.3,479,127.01,478.7z"/>
		<path d="M159.08,478.7c-0.29-0.3-0.43-0.76-0.43-1.38v-18.11c0-0.62,0.14-1.08,0.43-1.38c0.29-0.3,0.78-0.45,1.49-0.45h13.25
			c0.68,0,1.15,0.14,1.39,0.43s0.37,0.75,0.37,1.39v1.79c0,0.64-0.12,1.1-0.37,1.39s-0.71,0.43-1.39,0.43h-7.49v2.75h4.61
			c0.68,0,1.15,0.14,1.39,0.43c0.24,0.29,0.37,0.75,0.37,1.39v1.73c0,0.64-0.12,1.1-0.37,1.39c-0.25,0.29-0.71,0.43-1.39,0.43h-4.61
			v2.75h7.46c0.68,0,1.15,0.14,1.39,0.43c0.25,0.29,0.37,0.75,0.37,1.39v1.79c0,0.64-0.12,1.1-0.37,1.39
			c-0.25,0.29-0.71,0.43-1.39,0.43h-13.21C159.86,479.15,159.37,479,159.08,478.7z"/>
		<path d="M177.45,478.7c-0.29-0.3-0.43-0.76-0.43-1.38v-18.14c0-0.62,0.14-1.07,0.43-1.36c0.29-0.29,0.79-0.43,1.52-0.43h3.04
			c0.45,0,0.79,0.06,1.04,0.18c0.25,0.12,0.49,0.35,0.72,0.69l5.79,8.61v-7.65c0-0.62,0.14-1.08,0.43-1.38
			c0.29-0.3,0.78-0.45,1.49-0.45h3.81c0.73,0,1.23,0.14,1.52,0.43s0.43,0.75,0.43,1.39v18.14c0,0.62-0.14,1.07-0.43,1.36
			s-0.79,0.43-1.52,0.43h-3.04c-0.45,0-0.79-0.06-1.04-0.18c-0.25-0.12-0.48-0.35-0.72-0.69l-5.79-8.61v7.68
			c0,0.62-0.14,1.07-0.43,1.36c-0.29,0.29-0.79,0.43-1.52,0.43h-3.81C178.23,479.15,177.73,479,177.45,478.7z"/>
		<path d="M205,478.7c-0.29-0.3-0.43-0.76-0.43-1.38v-14.5h-4.61c-0.68,0-1.15-0.14-1.39-0.43s-0.37-0.75-0.37-1.39v-1.79
			c0-0.64,0.12-1.1,0.37-1.39s0.71-0.43,1.39-0.43h16.9c0.68,0,1.15,0.14,1.39,0.43c0.24,0.29,0.37,0.75,0.37,1.39v1.79
			c0,0.64-0.12,1.1-0.37,1.39c-0.25,0.29-0.71,0.43-1.39,0.43h-4.61v14.5c0,0.62-0.14,1.08-0.43,1.38c-0.29,0.3-0.79,0.45-1.52,0.45
			h-3.81C205.78,479.15,205.29,479,205,478.7z"/>
		<path d="M220.44,476.67c-1.96-1.97-2.94-4.77-2.94-8.4s0.98-6.43,2.94-8.4c1.96-1.97,4.84-2.96,8.64-2.96
			c3.8,0,6.68,0.99,8.64,2.96c1.96,1.97,2.94,4.77,2.94,8.4s-0.98,6.43-2.94,8.4c-1.96,1.97-4.84,2.96-8.64,2.96
			C225.28,479.63,222.4,478.65,220.44,476.67z M232.08,472.77c0.62-0.99,0.93-2.49,0.93-4.5c0-2.03-0.31-3.53-0.93-4.51
			s-1.62-1.47-3.01-1.47c-1.39,0-2.39,0.49-3.01,1.47c-0.62,0.98-0.93,2.49-0.93,4.51c0,2.01,0.31,3.5,0.93,4.5
			c0.62,0.99,1.62,1.49,3.01,1.49C230.46,474.26,231.47,473.76,232.08,472.77z"/>
		<path d="M242.69,478.7c-0.29-0.3-0.43-0.76-0.43-1.38v-18.11c0-0.62,0.14-1.08,0.43-1.38c0.29-0.3,0.78-0.45,1.49-0.45h7.65
			c3.2,0,5.53,0.63,6.99,1.9c1.46,1.27,2.19,3.18,2.19,5.74c0,1.54-0.26,2.83-0.79,3.89c-0.52,1.06-1.33,1.88-2.42,2.48l2.98,6.37
			c0.08,0.17,0.13,0.36,0.13,0.58c0,0.23-0.08,0.43-0.24,0.58c-0.16,0.15-0.37,0.22-0.63,0.22h-5.41c-0.34,0-0.61-0.05-0.82-0.14
			c-0.2-0.1-0.35-0.26-0.43-0.5l-2.37-5.95h-1.09v4.77c0,0.62-0.14,1.08-0.43,1.38c-0.29,0.3-0.79,0.45-1.52,0.45h-3.81
			C243.48,479.15,242.98,479,242.69,478.7z M251.16,467.22c0.68,0,1.22-0.18,1.62-0.54c0.39-0.36,0.59-0.91,0.59-1.63
			c0-0.75-0.2-1.3-0.59-1.66c-0.4-0.36-0.93-0.54-1.62-0.54h-2.18v4.38H251.16z"/>
		<path d="M263.04,478.7c-0.29-0.3-0.43-0.76-0.43-1.38v-18.14c0-0.62,0.14-1.07,0.43-1.36c0.29-0.29,0.79-0.43,1.52-0.43h3.04
			c0.45,0,0.79,0.06,1.04,0.18s0.49,0.35,0.72,0.69l5.79,8.61v-7.65c0-0.62,0.14-1.08,0.43-1.38s0.78-0.45,1.49-0.45h3.81
			c0.72,0,1.23,0.14,1.52,0.43c0.29,0.29,0.43,0.75,0.43,1.39v18.14c0,0.62-0.14,1.07-0.43,1.36c-0.29,0.29-0.79,0.43-1.52,0.43
			h-3.04c-0.45,0-0.79-0.06-1.04-0.18c-0.25-0.12-0.49-0.35-0.72-0.69l-5.79-8.61v7.68c0,0.62-0.14,1.07-0.43,1.36
			c-0.29,0.29-0.79,0.43-1.52,0.43h-3.81C263.83,479.15,263.33,479,263.04,478.7z"/>
		<path d="M287.38,476.67c-1.96-1.97-2.94-4.77-2.94-8.4s0.98-6.43,2.94-8.4c1.96-1.97,4.84-2.96,8.64-2.96
			c3.8,0,6.68,0.99,8.64,2.96c1.96,1.97,2.94,4.77,2.94,8.4s-0.98,6.43-2.94,8.4c-1.96,1.97-4.84,2.96-8.64,2.96
			C292.22,479.63,289.34,478.65,287.38,476.67z M299.03,472.77c0.62-0.99,0.93-2.49,0.93-4.5c0-2.03-0.31-3.53-0.93-4.51
			s-1.62-1.47-3.01-1.47c-1.39,0-2.39,0.49-3.01,1.47c-0.62,0.98-0.93,2.49-0.93,4.51c0,2.01,0.31,3.5,0.93,4.5
			c0.62,0.99,1.62,1.49,3.01,1.49C297.41,474.26,298.41,473.76,299.03,472.77z"/>
		<path d="M119.04,516.88c0-0.19,0.05-0.43,0.16-0.7l7.97-19.17c0.19-0.45,0.41-0.76,0.66-0.94c0.24-0.18,0.59-0.27,1.04-0.27h3.49
			c0.45,0,0.79,0.09,1.04,0.27c0.25,0.18,0.46,0.5,0.66,0.94l7.94,19.17c0.11,0.28,0.16,0.51,0.16,0.7c0,0.45-0.24,0.67-0.7,0.67
			h-6.02c-0.66,0-1.08-0.29-1.25-0.86l-0.77-2.37h-5.66l-0.74,2.37c-0.17,0.58-0.59,0.86-1.25,0.86h-6.02
			C119.28,517.55,119.04,517.33,119.04,516.88z M131.85,509.26l-1.25-3.97l-1.25,3.97H131.85z"/>
		<path d="M143.38,517.1c-0.29-0.3-0.43-0.76-0.43-1.38v-18.14c0-0.62,0.14-1.07,0.43-1.36c0.29-0.29,0.79-0.43,1.52-0.43h3.68
			c0.47,0,0.84,0.06,1.12,0.18s0.49,0.35,0.64,0.69l3.74,9.38l3.74-9.38c0.15-0.34,0.36-0.57,0.64-0.69
			c0.28-0.12,0.65-0.18,1.12-0.18h3.68c0.72,0,1.23,0.14,1.52,0.43c0.29,0.29,0.43,0.74,0.43,1.36v18.14c0,0.62-0.14,1.08-0.43,1.38
			c-0.29,0.3-0.78,0.45-1.49,0.45h-3.07c-0.7,0-1.21-0.15-1.5-0.45c-0.3-0.3-0.45-0.76-0.45-1.38v-8.74l-1.89,4.35
			c-0.26,0.62-0.53,1.06-0.83,1.33c-0.3,0.27-0.79,0.4-1.47,0.4c-0.68,0-1.17-0.13-1.47-0.4s-0.58-0.71-0.83-1.33l-1.89-4.35v8.74
			c0,0.62-0.14,1.08-0.43,1.38c-0.29,0.3-0.79,0.45-1.52,0.45h-3.07C144.17,517.55,143.67,517.4,143.38,517.1z"/>
		<path d="M167.89,517.1c-0.29-0.3-0.43-0.76-0.43-1.38v-18.11c0-0.62,0.14-1.08,0.43-1.38c0.29-0.3,0.79-0.45,1.49-0.45h3.81
			c0.72,0,1.23,0.14,1.52,0.43c0.29,0.29,0.43,0.75,0.43,1.39v18.11c0,0.62-0.14,1.08-0.43,1.38c-0.29,0.3-0.79,0.45-1.52,0.45
			h-3.81C168.68,517.55,168.18,517.4,167.89,517.1z"/>
		<path d="M179.97,515.17c-2.15-1.91-3.23-4.74-3.23-8.5c0-3.73,1.08-6.56,3.23-8.48c2.16-1.92,5.16-2.88,9.02-2.88
			c1.75,0,3.32,0.17,4.7,0.51c1.39,0.34,2.54,0.82,3.46,1.44c0.26,0.19,0.38,0.41,0.38,0.64c0,0.19-0.1,0.46-0.29,0.8l-1.6,2.75
			c-0.17,0.3-0.37,0.45-0.61,0.45c-0.15,0-0.39-0.08-0.74-0.26c-1.28-0.64-2.69-0.96-4.22-0.96c-1.77,0-3.16,0.51-4.18,1.52
			c-1.01,1.01-1.52,2.5-1.52,4.46c0,2.03,0.43,3.53,1.28,4.5c0.85,0.97,2.12,1.46,3.81,1.46c0.3,0,0.63-0.03,1.01-0.08
			c0.37-0.05,0.68-0.11,0.91-0.18v-2.91h-2.05c-0.68,0-1.15-0.13-1.39-0.4c-0.25-0.27-0.37-0.72-0.37-1.36v-1.76
			c0-0.64,0.12-1.09,0.37-1.36s0.71-0.4,1.39-0.4h6.88c0.83,0,1.41,0.19,1.73,0.56c0.32,0.37,0.48,0.97,0.48,1.78V514
			c0,0.47-0.06,0.83-0.18,1.07c-0.12,0.25-0.35,0.5-0.69,0.75c-2.05,1.47-4.9,2.21-8.54,2.21
			C185.15,518.03,182.13,517.08,179.97,515.17z"/>
		<path d="M199.4,516.88c0-0.19,0.05-0.43,0.16-0.7l7.97-19.17c0.19-0.45,0.41-0.76,0.66-0.94c0.24-0.18,0.59-0.27,1.04-0.27h3.49
			c0.45,0,0.79,0.09,1.04,0.27c0.25,0.18,0.46,0.5,0.66,0.94l7.94,19.17c0.11,0.28,0.16,0.51,0.16,0.7c0,0.45-0.24,0.67-0.7,0.67
			h-6.02c-0.66,0-1.08-0.29-1.25-0.86l-0.77-2.37h-5.66l-0.74,2.37c-0.17,0.58-0.59,0.86-1.25,0.86h-6.02
			C199.63,517.55,199.4,517.33,199.4,516.88z M212.2,509.26l-1.25-3.97l-1.25,3.97H212.2z"/>
		<path d="M224.53,517.1c-0.29-0.3-0.43-0.76-0.43-1.38v-18.11c0-0.62,0.14-1.08,0.43-1.38c0.29-0.3,0.78-0.45,1.49-0.45h9.7
			c2.6,0,4.52,0.55,5.74,1.66s1.84,2.69,1.84,4.74c0,0.96-0.21,1.81-0.62,2.54c-0.42,0.74-0.97,1.25-1.65,1.55
			c1.9,0.64,2.85,2.13,2.85,4.48c0,2.01-0.71,3.64-2.13,4.9s-3.5,1.89-6.26,1.89h-9.47C225.32,517.55,224.82,517.4,224.53,517.1z
			 M234.18,504.02c0.98,0,1.47-0.47,1.47-1.41c0-0.94-0.49-1.41-1.47-1.41h-2.43v2.82H234.18z M234.72,512.14
			c0.45,0,0.81-0.14,1.09-0.43s0.42-0.68,0.42-1.17c0-0.51-0.13-0.91-0.4-1.18c-0.27-0.28-0.64-0.42-1.1-0.42h-2.98v3.2H234.72z"/>
		<path d="M245.91,517.1c-0.29-0.3-0.43-0.76-0.43-1.38v-18.11c0-0.62,0.14-1.08,0.43-1.38c0.29-0.3,0.79-0.45,1.49-0.45h3.81
			c0.72,0,1.23,0.14,1.52,0.43c0.29,0.29,0.43,0.75,0.43,1.39v14.5h7.46c0.68,0,1.15,0.14,1.39,0.43s0.37,0.75,0.37,1.39v1.79
			c0,0.64-0.12,1.1-0.37,1.39s-0.71,0.43-1.39,0.43H247.4C246.69,517.55,246.2,517.4,245.91,517.1z"/>
		<path d="M263.29,517.1c-0.29-0.3-0.43-0.76-0.43-1.38v-18.11c0-0.62,0.14-1.08,0.43-1.38c0.29-0.3,0.78-0.45,1.49-0.45h13.25
			c0.68,0,1.15,0.14,1.39,0.43s0.37,0.75,0.37,1.39v1.79c0,0.64-0.12,1.1-0.37,1.39s-0.71,0.43-1.39,0.43h-7.49v2.75h4.61
			c0.68,0,1.15,0.14,1.39,0.43c0.24,0.29,0.37,0.75,0.37,1.39v1.73c0,0.64-0.12,1.1-0.37,1.39c-0.25,0.29-0.71,0.43-1.39,0.43h-4.61
			v2.75h7.46c0.68,0,1.15,0.14,1.39,0.43c0.25,0.29,0.37,0.75,0.37,1.39v1.79c0,0.64-0.12,1.1-0.37,1.39
			c-0.25,0.29-0.71,0.43-1.39,0.43h-13.21C264.07,517.55,263.57,517.4,263.29,517.1z"/>
	</g>
	<polygon class="st6" points="191.26,81.93 204.73,109.22 234.84,113.59 213.05,134.83 218.2,164.83 191.26,150.67 164.33,164.83 
		169.47,134.83 147.68,113.59 177.79,109.22 	"/>
	<polygon class="st6" points="129.08,165.15 137.82,182.86 157.36,185.7 143.22,199.48 146.56,218.94 129.08,209.75 111.61,218.94 
		114.95,199.48 100.81,185.7 120.35,182.86 	"/>
	<polygon class="st6" points="259.18,165.15 267.92,182.86 287.45,185.7 273.32,199.48 276.65,218.94 259.18,209.75 241.7,218.94 
		245.04,199.48 230.9,185.7 250.44,182.86 	"/>
	<circle class="st7" cx="192.27" cy="198.97" r="121.96"/>
	<circle class="st1" cx="191.32" cy="185.58" r="121.96"/>
	<g>
		<path class="st1" d="M166.93,625.35v-4.31c0-2.87,0.97-5.57,2.92-8.1c1.95-2.53,5.35-5.5,10.22-8.91c1.7-1.17,2.75-1.87,3.14-2.12
			c1.75-1.17,2.97-2.04,3.65-2.63c0.68-0.58,1.19-1.22,1.53-1.9c0.34-0.68,0.51-1.56,0.51-2.63c0-1.22-0.45-2.2-1.35-2.96
			c-0.9-0.75-2.28-1.13-4.13-1.13c-3.12,0-6.28,0.8-9.49,2.41c-0.78,0.39-1.34,0.58-1.68,0.58c-0.54,0-1-0.34-1.39-1.02l-3.65-6.28
			c-0.44-0.78-0.66-1.39-0.66-1.82c0-0.54,0.29-1.02,0.88-1.46c2.09-1.41,4.79-2.54,8.1-3.39c3.31-0.85,6.93-1.28,10.88-1.28
			c6.13,0,10.99,1.28,14.56,3.83c3.58,2.55,5.37,6.17,5.37,10.84c0,3.6-1,6.66-2.99,9.16c-2,2.51-5.26,5.22-9.78,8.14
			c-4.82,3.12-7.71,5.21-8.69,6.28h17.81c1.56,0,2.62,0.33,3.18,0.99c0.56,0.66,0.84,1.71,0.84,3.17v4.16
			c0,1.46-0.28,2.52-0.84,3.18c-0.56,0.66-1.62,0.99-3.18,0.99h-32.12C168.15,629.14,166.93,627.88,166.93,625.35z"/>
	</g>
	<g>
		<g>
			<g>
				<g>
					<path class="st8" d="M270.08,211.53c0,3.27-2.68,5.94-5.94,5.94H143.92c-3.27,0-5.94-2.67-5.94-5.94v-69.61
						c0-3.25,2.67-5.93,5.94-5.93h120.22c3.27,0,5.94,2.67,5.94,5.93V211.53z"/>
					<path class="st9" d="M269.49,135.99h-59.48h-60.76c-3.27,0-5.94,2.67-5.94,5.93v69.61c0,3.27,2.67,5.94,5.94,5.94h60.76h59.48
						c3.26,0,5.94-2.67,5.94-5.94v-69.61C275.43,138.66,272.75,135.99,269.49,135.99z"/>
					<path class="st10" d="M264.14,135.99h-59.47h-60.76c-3.27,0-5.94,2.67-5.94,5.93v69.61c0,3.27,2.67,5.94,5.94,5.94h60.76h59.47
						c3.27,0,5.94-2.67,5.94-5.94v-69.61C270.08,138.66,267.41,135.99,264.14,135.99z"/>
					<path class="st11" d="M261.75,141.29h-57.08h-58.36c-1.96,0-3.56,1.62-3.56,3.57v63.74c0,1.97,1.61,3.57,3.56,3.57h58.36h57.08
						c1.95,0,3.56-1.6,3.56-3.57v-63.74C265.31,142.91,263.7,141.29,261.75,141.29z"/>
				</g>
				<g>
					<path class="st9" d="M208.03,217.47v12.11h65.77c5.91,0,10.7-4.79,10.7-10.7v-1.41H208.03z"/>
					<path class="st12" d="M126.91,217.47v1.41c0,5.91,4.8,10.7,10.71,10.7h67.06v-12.11H126.91z"/>
				</g>
				<path class="st13" d="M170.72,217.47H92.96v1.41c0,5.91,4.8,10.7,10.71,10.7h67.06h65.77c5.91,0,10.71-4.79,10.71-10.7v-1.41
					H170.72z"/>
			</g>
			<g>
				<g>
					<g>
						<rect x="144.37" y="163.76" class="st17" width="9.79" height="8.61"/>
						<rect x="157.29" y="163.76" class="st19" width="47.26" height="8.61"/>
					</g>
					<g>
						<rect x="144.37" y="174.75" class="st14" width="9.79" height="8.61"/>
						<rect x="157.29" y="174.75" class="st19" width="47.26" height="8.61"/>
					</g>
					<g>
						<rect x="144.37" y="185.74" class="st15" width="9.79" height="8.61"/>
						<rect x="157.29" y="185.74" class="st19" width="47.26" height="8.61"/>
					</g>
					<g>
						<rect x="144.37" y="196.73" class="st16" width="9.79" height="8.61"/>
						<rect x="157.29" y="196.73" class="st19" width="47.26" height="8.61"/>
					</g>
				</g>
				<g>
					<path class="st14" d="M144.65,157.55c-0.14-0.14-0.21-0.36-0.21-0.65v-8.59c0-0.29,0.07-0.51,0.21-0.65s0.37-0.21,0.71-0.21
						h3.63c1.52,0,2.62,0.3,3.32,0.9s1.04,1.51,1.04,2.73c0,1.21-0.35,2.12-1.04,2.72c-0.69,0.6-1.79,0.9-3.3,0.9h-0.91v2.22
						c0,0.29-0.07,0.51-0.2,0.65c-0.14,0.14-0.38,0.21-0.72,0.21h-1.81C145.02,157.76,144.78,157.69,144.65,157.55z M148.66,152.1
						c0.32,0,0.58-0.09,0.77-0.26c0.19-0.17,0.28-0.43,0.28-0.77c0-0.35-0.09-0.62-0.28-0.79c-0.19-0.17-0.44-0.26-0.77-0.26h-1.03
						v2.08H148.66z"/>
					<path class="st14" d="M151.97,157.44c0-0.09,0.03-0.2,0.08-0.33l3.78-9.09c0.09-0.21,0.2-0.36,0.31-0.45s0.28-0.13,0.49-0.13
						h1.66c0.21,0,0.38,0.04,0.49,0.13s0.22,0.24,0.31,0.45l3.77,9.09c0.05,0.13,0.08,0.24,0.08,0.33c0,0.21-0.11,0.32-0.33,0.32
						h-2.85c-0.31,0-0.51-0.14-0.59-0.41l-0.36-1.12h-2.69l-0.35,1.12c-0.08,0.27-0.28,0.41-0.59,0.41h-2.85
						C152.08,157.76,151.97,157.66,151.97,157.44z M158.04,153.83l-0.59-1.88l-0.59,1.88H158.04z"/>
					<path class="st14" d="M163.9,157.55c-0.14-0.14-0.21-0.36-0.21-0.65v-8.61c0-0.29,0.07-0.51,0.21-0.65s0.38-0.21,0.72-0.21
						h1.44c0.21,0,0.38,0.03,0.49,0.08c0.12,0.06,0.23,0.17,0.34,0.33l2.75,4.08v-3.63c0-0.29,0.07-0.51,0.21-0.65
						c0.14-0.14,0.37-0.21,0.71-0.21h1.81c0.34,0,0.58,0.07,0.72,0.21s0.21,0.36,0.21,0.66v8.61c0,0.29-0.07,0.51-0.21,0.65
						s-0.38,0.21-0.72,0.21h-1.44c-0.21,0-0.38-0.03-0.49-0.08c-0.12-0.05-0.23-0.16-0.34-0.33l-2.75-4.08v3.64
						c0,0.29-0.07,0.51-0.2,0.65s-0.38,0.21-0.72,0.21h-1.81C164.27,157.76,164.03,157.69,163.9,157.55z"/>
					<path class="st14" d="M174.56,157.55c-0.14-0.14-0.21-0.36-0.21-0.65v-8.59c0-0.29,0.07-0.51,0.21-0.65s0.37-0.21,0.71-0.21
						h6.29c0.32,0,0.54,0.07,0.66,0.21s0.17,0.36,0.17,0.66v0.85c0,0.3-0.06,0.52-0.17,0.66s-0.34,0.21-0.66,0.21h-3.55v1.31h2.19
						c0.32,0,0.54,0.07,0.66,0.21c0.12,0.14,0.17,0.36,0.17,0.66v0.82c0,0.3-0.06,0.52-0.17,0.66c-0.12,0.14-0.34,0.21-0.66,0.21
						h-2.19v1.31h3.54c0.32,0,0.54,0.07,0.66,0.21s0.17,0.36,0.17,0.66v0.85c0,0.3-0.06,0.52-0.17,0.66s-0.34,0.21-0.66,0.21h-6.27
						C174.93,157.76,174.69,157.69,174.56,157.55z"/>
					<path class="st14" d="M183.27,157.55c-0.14-0.14-0.21-0.36-0.21-0.65v-8.59c0-0.29,0.07-0.51,0.21-0.65s0.37-0.21,0.71-0.21
						h1.81c0.34,0,0.58,0.07,0.72,0.21s0.2,0.36,0.2,0.66v6.88h3.54c0.32,0,0.54,0.07,0.66,0.21s0.17,0.36,0.17,0.66v0.85
						c0,0.3-0.06,0.52-0.17,0.66s-0.34,0.21-0.66,0.21h-6.27C183.64,157.76,183.41,157.69,183.27,157.55z"/>
					<path class="st14" d="M197.32,156.63c-1.02-0.91-1.53-2.25-1.53-4.03c0-1.79,0.49-3.14,1.48-4.04c0.99-0.9,2.4-1.35,4.23-1.35
						c0.83,0,1.57,0.08,2.22,0.24c0.65,0.16,1.19,0.39,1.62,0.68c0.12,0.09,0.18,0.19,0.18,0.3c0,0.09-0.05,0.22-0.14,0.38
						l-0.76,1.31c-0.08,0.14-0.18,0.21-0.29,0.21c-0.07,0-0.19-0.04-0.35-0.12c-0.28-0.14-0.58-0.25-0.89-0.33s-0.67-0.12-1.08-0.12
						c-0.84,0-1.48,0.24-1.93,0.73c-0.45,0.49-0.67,1.19-0.67,2.11c0,0.91,0.24,1.61,0.73,2.1c0.49,0.49,1.15,0.74,1.99,0.74
						c0.73,0,1.4-0.15,2-0.46c0.16-0.08,0.28-0.12,0.35-0.12c0.11,0,0.21,0.07,0.29,0.21l0.76,1.31c0.09,0.16,0.14,0.29,0.14,0.38
						c0,0.11-0.06,0.21-0.18,0.3c-0.44,0.29-0.98,0.52-1.64,0.68c-0.66,0.16-1.4,0.24-2.23,0.24
						C199.78,157.99,198.34,157.54,197.32,156.63z"/>
					<path class="st14" d="M206.84,156.58c-0.93-0.94-1.4-2.26-1.4-3.99s0.47-3.05,1.4-3.99c0.93-0.94,2.3-1.4,4.1-1.4
						s3.17,0.47,4.1,1.4c0.93,0.94,1.4,2.26,1.4,3.99s-0.47,3.05-1.4,3.99c-0.93,0.94-2.3,1.4-4.1,1.4S207.77,157.52,206.84,156.58z
						 M212.37,154.73c0.29-0.47,0.44-1.18,0.44-2.13c0-0.96-0.15-1.67-0.44-2.14c-0.29-0.47-0.77-0.7-1.43-0.7s-1.13,0.23-1.43,0.7
						c-0.29,0.47-0.44,1.18-0.44,2.14c0,0.95,0.15,1.66,0.44,2.13c0.29,0.47,0.77,0.71,1.43,0.71S212.07,155.2,212.37,154.73z"/>
					<path class="st14" d="M217.4,157.55c-0.14-0.14-0.21-0.36-0.21-0.65v-8.61c0-0.29,0.07-0.51,0.21-0.65s0.38-0.21,0.72-0.21
						h1.44c0.21,0,0.38,0.03,0.49,0.08c0.12,0.06,0.23,0.17,0.34,0.33l2.75,4.08v-3.63c0-0.29,0.07-0.51,0.21-0.65
						c0.14-0.14,0.37-0.21,0.71-0.21h1.81c0.34,0,0.58,0.07,0.72,0.21s0.21,0.36,0.21,0.66v8.61c0,0.29-0.07,0.51-0.21,0.65
						s-0.38,0.21-0.72,0.21h-1.44c-0.21,0-0.38-0.03-0.49-0.08c-0.12-0.05-0.23-0.16-0.34-0.33l-2.75-4.08v3.64
						c0,0.29-0.07,0.51-0.2,0.65s-0.38,0.21-0.72,0.21h-1.81C217.77,157.76,217.54,157.69,217.4,157.55z"/>
					<path class="st14" d="M230.47,157.55c-0.14-0.14-0.21-0.36-0.21-0.65v-6.88h-2.19c-0.32,0-0.54-0.07-0.66-0.21
						s-0.17-0.36-0.17-0.66v-0.85c0-0.3,0.06-0.52,0.17-0.66s0.34-0.21,0.66-0.21h8.02c0.32,0,0.54,0.07,0.66,0.21
						c0.12,0.14,0.17,0.36,0.17,0.66v0.85c0,0.3-0.06,0.52-0.17,0.66c-0.12,0.14-0.34,0.21-0.66,0.21h-2.19v6.88
						c0,0.29-0.07,0.51-0.2,0.65c-0.14,0.14-0.38,0.21-0.72,0.21h-1.81C230.85,157.76,230.61,157.69,230.47,157.55z"/>
					<path class="st14" d="M237.59,157.55c-0.14-0.14-0.21-0.36-0.21-0.65v-8.59c0-0.29,0.07-0.51,0.21-0.65s0.37-0.21,0.71-0.21
						h3.63c1.52,0,2.62,0.3,3.32,0.9s1.04,1.51,1.04,2.73c0,0.73-0.12,1.34-0.37,1.84s-0.63,0.89-1.15,1.18l1.41,3.02
						c0.04,0.08,0.06,0.17,0.06,0.27c0,0.11-0.04,0.2-0.11,0.27c-0.08,0.07-0.17,0.11-0.3,0.11h-2.57c-0.16,0-0.29-0.02-0.39-0.07
						c-0.1-0.05-0.16-0.12-0.2-0.24l-1.12-2.82h-0.52v2.26c0,0.29-0.07,0.51-0.2,0.65c-0.14,0.14-0.38,0.21-0.72,0.21h-1.81
						C237.97,157.76,237.73,157.69,237.59,157.55z M241.61,152.1c0.32,0,0.58-0.09,0.77-0.26c0.19-0.17,0.28-0.43,0.28-0.77
						c0-0.35-0.09-0.62-0.28-0.79c-0.19-0.17-0.44-0.26-0.77-0.26h-1.03v2.08H241.61z"/>
					<path class="st14" d="M248.14,156.58c-0.93-0.94-1.4-2.26-1.4-3.99s0.47-3.05,1.4-3.99c0.93-0.94,2.3-1.4,4.1-1.4
						s3.17,0.47,4.1,1.4c0.93,0.94,1.4,2.26,1.4,3.99s-0.47,3.05-1.4,3.99c-0.93,0.94-2.3,1.4-4.1,1.4S249.07,157.52,248.14,156.58z
						 M253.67,154.73c0.29-0.47,0.44-1.18,0.44-2.13c0-0.96-0.15-1.67-0.44-2.14c-0.29-0.47-0.77-0.7-1.43-0.7s-1.13,0.23-1.43,0.7
						c-0.29,0.47-0.44,1.18-0.44,2.14c0,0.95,0.15,1.66,0.44,2.13c0.29,0.47,0.77,0.71,1.43,0.71S253.37,155.2,253.67,154.73z"/>
					<path class="st14" d="M258.7,157.55c-0.14-0.14-0.21-0.36-0.21-0.65v-8.59c0-0.29,0.07-0.51,0.21-0.65s0.37-0.21,0.71-0.21
						h1.81c0.34,0,0.58,0.07,0.72,0.21s0.2,0.36,0.2,0.66v6.88h3.54c0.32,0,0.54,0.07,0.66,0.21s0.17,0.36,0.17,0.66v0.85
						c0,0.3-0.06,0.52-0.17,0.66s-0.34,0.21-0.66,0.21h-6.27C259.07,157.76,258.83,157.69,258.7,157.55z"/>
				</g>
				<g>
					<circle id="XMLID_397_" class="st3" cx="239.76" cy="187.62" r="22.79"/>
					<g id="XMLID_373_">
						<path id="XMLID_396_" class="st4" d="M246.1,186.72c0.3-0.72,0.45-1.29,0.48-1.45c-0.03-0.01-0.05-0.02-0.07-0.04
							c-0.05-0.07,0.09-0.81,0.03-0.86c-0.01-0.01-0.02-0.01-0.02-0.01c-0.08,0.26-0.24,0.48-0.41,0.63
							C246.11,185.56,246.1,186.14,246.1,186.72z"/>
						<path id="XMLID_395_" class="st21" d="M245.07,185.28c-0.34-0.24-0.33,3.17-1.73,4.53c-0.1,0.1-0.2,0.19-0.31,0.28
							c-0.11,0.09-0.22,0.18-0.33,0.27c0,0.05,0,0.09,0,0.14c1.29-0.38,2.2-1.52,2.77-2.5c0.25-0.44,0.46-0.88,0.62-1.27
							c0-0.59,0.01-1.17,0-1.73c-0.11,0.09-0.22,0.16-0.33,0.2C245.57,185.39,245.34,185.46,245.07,185.28z"/>
						<path id="XMLID_394_" class="st21" d="M234.2,194.37c-0.04,0.02-0.14,0.08-0.25,0.24C234.02,194.55,234.1,194.47,234.2,194.37
							z"/>
						<path id="XMLID_393_" class="st21" d="M242.72,190.68c0.03,0.75,0.18,1.74,0.8,2.64c0.2-0.18,0.31-0.22,0.39-0.09
							c0.45,0.77,0.93,1.18,1.19,1.44c-0.13-0.23-0.28-0.29-0.28-0.29s0.32-0.13,0.89,0.35c0.13,0.11,0.36,0.27,0.61,0.47
							c-0.29-1.46-0.23-4.77-0.21-8.02c-0.13,0.3-0.29,0.6-0.46,0.91C244.82,189.49,243.83,190.37,242.72,190.68z"/>
						<path id="XMLID_392_" class="st21" d="M234.2,194.36c0.26-0.26,0.58-0.62,0.89-1.14c0.08-0.13,0.19-0.08,0.4,0.1
							c0.71-1.04,0.81-2.19,0.81-2.97c-0.22-0.17-0.44-0.36-0.64-0.55c-1.4-1.35-1.39-4.77-1.73-4.53
							c-0.26,0.18-0.49,0.11-0.68-0.08c-0.07-0.02-0.14-0.05-0.21-0.1c-0.01,3.73,0.15,8.1-0.18,9.96c0.18-0.14,0.35-0.26,0.45-0.34
							C233.86,194.26,234.17,194.35,234.2,194.36z"/>
						<path id="XMLID_391_" class="st22" d="M242.43,190.57c0.1-0.02,0.19-0.04,0.29-0.07c0-0.05,0-0.1,0-0.14
							C242.62,190.43,242.53,190.5,242.43,190.57z"/>
						<path id="XMLID_390_" class="st22" d="M239.46,196.91c0.02,0.02,0.03,0.04,0.04,0.06c0.01-0.02,0.02-0.05,0.04-0.06
							c2.44-1.87,3.48-3.16,3.98-3.59c-0.61-0.9-0.76-1.88-0.8-2.64c-0.2,0.06-0.41,0.09-0.62,0.11c-0.06,0.26-0.32,0.73-1.22,0.72
							c-0.19,0-0.34-0.03-0.47-0.06c-0.14,0.03-0.27,0.05-0.41,0.06c-0.42,0.04-0.84,0.03-1.25-0.04c-0.34-0.05-0.67-0.14-0.99-0.27
							c-0.36-0.14-0.7-0.32-1.02-0.54c-0.15-0.1-0.29-0.21-0.42-0.32c-0.01,0.77-0.1,1.93-0.81,2.97
							C235.99,193.77,237.04,195.05,239.46,196.91z"/>
						<path id="XMLID_389_" class="st22" d="M239.5,197.03c0,0,0,0.01,0,0.01h0C239.5,197.04,239.5,197.04,239.5,197.03z"/>
						<path id="XMLID_388_" class="st23" d="M237.75,191.21c0.32,0.13,0.65,0.22,0.99,0.27c0.41,0.07,0.84,0.08,1.25,0.04
							c0.14-0.01,0.27-0.04,0.41-0.06c-0.6-0.17-0.64-0.64-0.66-0.8c0.02-0.19,0.09-0.85,1.14-0.84c0.96,0.01,1.18,0.55,1.22,0.8
							c0.11-0.01,0.21-0.02,0.31-0.04c0.1-0.07,0.19-0.14,0.28-0.21c0.11-0.09,0.22-0.17,0.33-0.27c0.1-0.09,0.21-0.19,0.31-0.28
							c1.4-1.35,1.39-4.77,1.73-4.53c0.27,0.18,0.5,0.11,0.69-0.09c-0.16,0.06-0.32,0.06-0.44-0.01c-0.19-0.12,0.01-1.07,0.14-2.54
							c-0.02,0.01-0.04,0.01-0.06,0.03c-0.27,0.17-0.6-2.11-1.88-3.17c-1.28-1.06-1.38-1.78-1.38-1.78
							c-1.28,0.14-2.53,0.61-4.64,2.29c-1.67,1.33-3.16,2.65-3.83,2.83c-0.06,0.02-0.1-0.05-0.15-0.14
							c0.14,1.43,0.33,2.37,0.14,2.48c-0.11,0.07-0.26,0.07-0.41,0.02c0.19,0.19,0.42,0.26,0.68,0.08c0.34-0.24,0.33,3.17,1.73,4.53
							c0.2,0.2,0.42,0.38,0.64,0.55c0.14,0.11,0.28,0.22,0.42,0.32C237.05,190.89,237.39,191.07,237.75,191.21z"/>
						<path id="XMLID_387_" class="st21" d="M233,180.15c0.06-1.25,1.21-5.79,6.5-5.79c5.29,0,6.44,4.54,6.5,5.79
							c0.04,0.81-0.04,1.28,0.03,1.56c0.03-0.27,0.04-0.63,0.04-1.09c0-2.39-0.97-4.85-2.53-5.26c-0.75-0.2-0.85-0.93-2.52-1.43
							c-2.67-0.8-5.69,0.31-7.23,2.88c-1.08,1.8-1.13,4.31-1.02,5.19C233.14,181.79,232.94,181.34,233,180.15z"/>
						<path id="XMLID_386_" class="st21" d="M233.68,182.84c0.67-0.18,2.16-1.5,3.83-2.83c2.11-1.68,3.36-2.14,4.64-2.29
							c0,0,0.1,0.72,1.38,1.78c1.28,1.06,1.61,3.34,1.88,3.17c0.02-0.01,0.04-0.02,0.06-0.03c0.01-0.15,0.03-0.3,0.04-0.47
							c0.13-1.73,0.11-2.29-0.06-2.92c-1.31-4.82-5.96-4.47-5.96-4.47s-4.49-0.42-5.94,4.4c-0.19,0.64-0.21,1.27-0.08,2.99
							c0.01,0.18,0.03,0.35,0.04,0.52C233.58,182.79,233.62,182.85,233.68,182.84z"/>
						<path id="XMLID_385_" class="st24" d="M233.67,185.18c0.19-0.12,0-1.05-0.14-2.48c-0.02-0.17-0.03-0.34-0.04-0.52
							c-0.13-1.73-0.11-2.35,0.08-2.99c1.44-4.82,5.94-4.4,5.94-4.4s4.65-0.34,5.96,4.47c0.17,0.63,0.19,1.19,0.06,2.92
							c-0.01,0.16-0.03,0.31-0.04,0.47c-0.14,1.46-0.33,2.42-0.14,2.54c0.12,0.07,0.27,0.07,0.44,0.01c0.11-0.04,0.23-0.11,0.33-0.2
							c0.18-0.15,0.33-0.37,0.41-0.63c-0.07-0.02-0.16,0.04-0.22-0.08c-0.06-0.13-0.03-0.72,0.02-0.85
							c0.05-0.13,0.11-0.19,0.31-0.15c0.01,0,0.02,0.01,0.03,0.01c0.02-0.59-0.05-1.16-0.36-1.28c-0.17-0.06-0.24-0.16-0.28-0.32
							c-0.07-0.28,0.02-0.75-0.03-1.56c-0.06-1.25-1.21-5.79-6.5-5.79c-5.29,0-6.44,4.54-6.5,5.79c-0.06,1.18,0.14,1.64-0.24,1.84
							c-0.02,0.01-0.04,0.02-0.06,0.03c-0.47,0.18-0.39,1.41-0.26,2.16c0.07,0.42,0.34,0.74,0.62,0.91c0.07,0.04,0.14,0.07,0.21,0.1
							C233.41,185.24,233.56,185.25,233.67,185.18z"/>
						<path id="XMLID_384_" class="st25" d="M246.32,183.44c-0.05,0.13-0.09,0.71-0.02,0.85c0.06,0.12,0.15,0.06,0.22,0.08
							c0.01,0,0.02,0.01,0.02,0.01c0.06,0.05-0.08,0.79-0.03,0.86c0.01,0.02,0.04,0.03,0.07,0.04c-0.03,0.15-0.18,0.72-0.48,1.45
							c-0.16,0.39-0.37,0.83-0.62,1.27c-0.57,0.98-1.48,2.13-2.77,2.5c-0.09,0.03-0.19,0.05-0.29,0.07
							c-0.1,0.02-0.21,0.03-0.31,0.04c-0.03-0.24-0.26-0.79-1.22-0.8c-1.05-0.01-1.12,0.65-1.14,0.84c0.02,0.16,0.06,0.63,0.66,0.8
							c0.13,0.04,0.28,0.06,0.47,0.06c0.9,0.01,1.16-0.47,1.22-0.72c0.21-0.02,0.42-0.05,0.62-0.11c1.11-0.31,2.1-1.19,2.91-2.6
							c0.18-0.31,0.33-0.61,0.46-0.91c0.42-0.94,0.64-1.74,0.66-1.9c0.01,0,0.02-0.01,0.03-0.01c0.07-0.05,0.13-0.53,0.17-1.09
							c0.04-0.52-0.12-0.81-0.3-0.87c-0.01,0-0.02-0.01-0.03-0.01C246.43,183.26,246.37,183.32,246.32,183.44z"/>
						<path id="XMLID_383_" class="st26" d="M238.57,200.94c-0.38-0.86-0.81-1.34-0.85-2.06c-0.28,0.35-0.48,0.71-0.45,1.05
							c0.11,1.13-3.24-2.74-3.55-4.6c-0.06,0.35-0.06,1.1,0.97,2.56c0.7,0.99,2.33,3.81,3.52,6.33c0.24-1.52,0.43-2.7,0.51-3.14
							C238.66,201.05,238.6,201,238.57,200.94z"/>
						<path id="XMLID_382_" class="st26" d="M241.72,199.93c0.03-0.34-0.16-0.7-0.45-1.05c-0.04,0.71-0.47,1.2-0.85,2.06
							c-0.03,0.06-0.09,0.11-0.15,0.15c0.08,0.46,0.29,1.71,0.54,3.32c1.16-2.58,2.8-5.51,3.51-6.52c1.08-1.54,1.03-2.28,0.96-2.61
							C245.02,197.12,241.62,201.07,241.72,199.93z"/>
						<path id="XMLID_381_" class="st26" d="M234.27,198.99C234.27,198.99,234.27,198.99,234.27,198.99l0.02,0
							C234.28,198.99,234.28,198.99,234.27,198.99z"/>
						<path id="XMLID_380_" class="st27" d="M240.43,200.94c0.38-0.86,0.81-1.34,0.85-2.06c-0.63-0.78-1.7-1.5-1.77-1.84h0
							c-0.08,0.34-1.15,1.06-1.77,1.84c0.04,0.71,0.47,1.2,0.85,2.06c0.03,0.06,0.09,0.11,0.15,0.15c-0.08,0.44-0.27,1.61-0.51,3.14
							c0.71,1.5,1.26,2.91,1.36,3.76c0.1-0.82,0.59-2.14,1.24-3.58c-0.25-1.61-0.45-2.86-0.54-3.32
							C240.34,201.05,240.4,201,240.43,200.94z"/>
						<path id="XMLID_379_" class="st28" d="M243.91,193.22c-0.07-0.13-0.19-0.09-0.39,0.09c-0.49,0.44-1.53,1.72-3.98,3.59
							c-0.02,0.02-0.03,0.04-0.04,0.06c-0.01-0.02-0.02-0.05-0.04-0.06c-2.42-1.86-3.47-3.14-3.97-3.58
							c-0.21-0.19-0.32-0.23-0.4-0.1c-0.31,0.53-0.64,0.89-0.89,1.14c0,0,0.01,0,0.01,0s-0.01,0-0.01,0.01
							c-0.09,0.09-0.18,0.17-0.25,0.24c-0.07,0.12-0.15,0.28-0.19,0.52c-0.01,0.04-0.03,0.11-0.04,0.19
							c0.32,1.86,3.66,5.73,3.55,4.6c-0.03-0.34,0.16-0.7,0.45-1.05c0.63-0.78,1.7-1.5,1.77-1.84c0,0,0-0.01,0-0.01
							c0,0,0,0.01,0,0.01c0.08,0.34,1.15,1.06,1.77,1.84c0.28,0.35,0.48,0.71,0.45,1.05c-0.11,1.14,3.3-2.81,3.56-4.65
							c-0.01-0.06-0.02-0.11-0.03-0.14c-0.04-0.21-0.1-0.36-0.16-0.48C244.83,194.4,244.36,193.99,243.91,193.22z"/>
						<path id="XMLID_378_" class="st25" d="M252.94,197.99c-0.2-0.28-4.72-1.84-6.18-2.38c0.15,0.16,0.29,0.35,0.41,0.56
							c0.65,1.16,0.68,1.87,1.14,2.21c0.46,0.34-3.56,0.6-3.56,0.6l2.53,1.91c0,0-2.84,3.24-4.76,4.64
							c-0.59,0.43-2.47,2.17-2.93,2.92c0.11,0.5,0.29,1.26,0.33,1.56c0.02,0.13,0.03,0.26,0.05,0.38c3.49-0.04,6.8-0.87,9.75-2.31
							c0.09-1.75-0.21-8.62,3.09-10.09c0.07-0.03,0.15,0.04,0.24,0.19c0,0,0,0,0,0C253.01,198.12,252.98,198.05,252.94,197.99z"/>
						<path id="XMLID_377_" class="st29" d="M239.59,208.46L239.59,208.46c-0.53-0.47-2.49-2.49-3.08-2.92
							c-1.92-1.4-4.76-4.64-4.76-4.64l2.52-1.9c0,0,0-0.01-0.01-0.01c-0.26-0.02-3.99-0.28-3.55-0.6c0.46-0.34,0.49-1.05,1.14-2.21
							c0.13-0.23,0.28-0.43,0.45-0.6c-1.53,0.56-5.91,2.07-6.12,2.35c3.53,0.18,3.18,8.05,3.25,10.05
							c3.08,1.56,6.56,2.44,10.25,2.44c0.09,0,0.18-0.01,0.28-0.01c-0.02-0.13-0.03-0.25-0.05-0.38
							C239.87,209.72,239.69,208.96,239.59,208.46z"/>
						<path id="XMLID_376_" class="st30" d="M231.86,196.18c-0.65,1.16-0.68,1.87-1.14,2.21c-0.44,0.33,3.29,0.59,3.55,0.6
							c0.01,0,0.02,0,0.02,0l-0.01,0.01l-2.52,1.9c0,0,2.84,3.24,4.76,4.64c0.59,0.43,2.54,2.45,3.08,2.92l0,0
							c0.46-0.75,2.33-2.49,2.93-2.92c1.92-1.4,4.76-4.64,4.76-4.64l-2.53-1.91c0,0,4.02-0.26,3.56-0.6
							c-0.46-0.34-0.49-1.05-1.14-2.21c-0.12-0.21-0.26-0.4-0.41-0.56c-0.15-0.16-0.3-0.3-0.45-0.42c-0.25-0.21-0.48-0.36-0.61-0.47
							c-0.56-0.48-0.89-0.35-0.89-0.35s0.15,0.06,0.28,0.29c0.07,0.11,0.13,0.27,0.16,0.48c0.01,0.04,0.02,0.08,0.03,0.14
							c0.07,0.33,0.12,1.08-0.96,2.61c-0.71,1.01-2.36,3.94-3.51,6.52c-0.64,1.43-1.14,2.76-1.24,3.58
							c-0.1-0.85-0.65-2.26-1.36-3.76c-1.19-2.53-2.82-5.35-3.52-6.33c-1.03-1.46-1.03-2.21-0.97-2.56
							c0.01-0.09,0.03-0.15,0.04-0.19c0.04-0.24,0.11-0.4,0.19-0.52c0.1-0.16,0.21-0.23,0.25-0.24c0.01,0,0.01-0.01,0.01-0.01
							s0,0-0.01,0c-0.03-0.01-0.35-0.1-0.88,0.35c-0.1,0.09-0.26,0.2-0.45,0.34c-0.18,0.14-0.38,0.31-0.57,0.52
							C232.14,195.75,231.99,195.95,231.86,196.18z"/>
						<path id="XMLID_375_" class="st30" d="M226.19,197.93c-0.2-0.01-0.87,3.08-1.55,6.8c1.45,1.27,3.06,2.37,4.8,3.24
							C229.37,205.98,229.73,198.11,226.19,197.93z"/>
						<path id="XMLID_374_" class="st30" d="M252.8,198c-3.31,1.46-3,8.34-3.09,10.09c1.78-0.87,3.43-1.98,4.92-3.27
							c-0.57-3.17-1.17-5.89-1.59-6.63C252.95,198.04,252.87,197.97,252.8,198z"/>
					</g>
				</g>
			</g>
		</g>
		<g>
			<circle class="st31" cx="264.18" cy="218.27" r="12.72"/>
			<rect x="263.42" y="207.88" transform="matrix(0.9956 0.0942 -0.0942 0.9956 21.2942 -23.9608)" width="1.87" height="11.23"/>
			<rect x="261.16" y="217.36" transform="matrix(0.6191 0.7853 -0.7853 0.6191 272.662 -122.0292)" width="1.92" height="5.4"/>
		</g>
	</g>
</g>
</svg>
