<?xml version="1.0" encoding="utf-8"?>
<!-- Generator: Adobe Illustrator 23.0.0, SVG Export Plug-In . SVG Version: 6.00 Build 0)  -->
<svg version="1.1" id="Capa_1" xmlns="http://www.w3.org/2000/svg" xmlns:xlink="http://www.w3.org/1999/xlink" x="0px" y="0px"
	 viewBox="0 0 382.63 672" style="enable-background:new 0 0 382.63 672;" xml:space="preserve">
<style type="text/css">
	.st0{fill:#E2E2E2;}
	.st1{fill:#FFFFFF;}
	.st2{fill:#CCCDCE;}
	.st3{fill:#F2F2F2;}
	.st4{fill:none;}
	.st5{fill:#0085B0;}
	.st6{fill:#E0EF18;}
	.st7{fill:#CECECE;}
	.st8{fill:#22272F;}
	.st9{fill:#1B2538;}
	.st10{fill:#253452;}
	.st11{fill:#F9F9F9;}
	.st12{fill:#2D3543;}
	.st13{fill:#2A3D60;}
	.st14{fill:#6C92D5;}
	.st15{fill:#587955;}
	.st16{fill:#CD7054;}
	.st17{fill:#F1CC4B;}
	.st18{fill:#DFDFDF;}
	.st19{fill:#ACACAC;}
	.st20{fill:#00D13C;}
	.st21{fill:#866A5E;}
	.st22{fill:#F7DDCB;}
	.st23{fill:#FFE6D4;}
	.st24{fill:#2D2D2D;}
	.st25{fill:#1C1B1A;}
	.st26{fill:#F5F5F5;}
	.st27{fill:#77181C;}
	.st28{fill:#EAEAEA;}
	.st29{fill:#262525;}
	.st30{fill:#11100F;}
	.st31{fill:#FFFFFF;stroke:#000000;stroke-width:6;stroke-miterlimit:10;}
	.st32{fill:#D4D4D4;}
	.st33{fill:#C2C2C2;}
	.st34{fill:#505050;}
	.st35{fill:#53C2C9;}
	.st36{fill:#008B9C;}
	.st37{fill:none;stroke:#00550B;stroke-width:4;stroke-miterlimit:10;}
	.st38{fill:#CE2458;}
	.st39{fill:#155500;}
	.st40{fill:#1549FF;}
	.st41{fill:#606060;stroke:#C6C8CC;stroke-width:6;stroke-miterlimit:10;}
	.st42{fill:#727272;}
	.st43{fill:#207235;}
	.st44{fill:#A3A3A3;}
	.st45{fill:#BCBCBC;}
	.st46{fill:#2A5936;}
	.st47{opacity:0.7;fill:#7F7F7F;}
	.st48{fill:#DAA449;}
	.st49{fill:#85B681;}
	.st50{fill:#A1DC9B;}
	.st51{fill:#90C58B;}
	.st52{fill:#DD9225;}
	.st53{opacity:0.3;}
	.st54{fill:#81C378;}
	.st55{opacity:0.5;}
	.st56{fill:#A2CADE;}
	.st57{fill:#9BAEC9;}
	.st58{fill:#9D2B3B;}
	.st59{fill:#C1D4F2;}
	.st60{fill:#534D46;}
	.st61{fill:#191819;}
	.st62{fill:#222123;}
	.st63{fill:#F3FF00;}
	.st64{fill-rule:evenodd;clip-rule:evenodd;fill:#FFFFFF;}
	.st65{fill-rule:evenodd;clip-rule:evenodd;fill:#1996B8;}
	.st66{fill:none;stroke:#5A605A;stroke-width:4;stroke-miterlimit:10;}
	.st67{fill:#FFB412;}
	.st68{fill:#BACDD1;}
	.st69{fill:#1C4D59;}
	.st70{fill:#A14329;}
	.st71{fill:#FCC083;}
	.st72{fill:#E8AA63;}
	.st73{fill:#D40000;}
	.st74{opacity:0.35;fill:#7D7D7D;}
	.st75{fill:#E5E3E3;}
	.st76{fill:#121F5E;}
	.st77{fill:#A3ADAF;}
	.st78{fill:#C2C6C6;}
	.st79{fill:#E5E5E5;stroke:#FFFFFF;stroke-miterlimit:10;}
	.st80{fill:#ACB4B5;}
	.st81{fill:#7F8384;}
	.st82{fill:#282828;}
	.st83{fill:none;stroke:#46A508;stroke-width:6;stroke-miterlimit:10;}
	.st84{fill:none;stroke:#46A508;stroke-width:6;stroke-miterlimit:10;stroke-dasharray:11.7425,11.7425;}
	.st85{fill:#C89D76;}
	.st86{opacity:0.4;}
	.st87{fill:#ADADAD;}
	.st88{fill:#76A172;}
	.st89{fill:#62835F;}
	.st90{fill:#96D090;}
	.st91{fill:#EDC3A6;}
	.st92{opacity:0.69;}
	.st93{fill:#E5D3D6;}
	.st94{opacity:0.44;}
	.st95{fill:#A5A5A5;}
	.st96{fill:#DDE5E4;}
	.st97{fill:#FDFDFD;}
	.st98{fill:#E0C348;}
	.st99{fill:#606060;}
</style>
<g>
	<g>
		<path class="st5" d="M0,194.36c0,22,13.29,27.86,29.54,13.03c0,0,156.99-143.3,353.09,26.97V40c0-22-18-40-40-40H40
			C18,0,0,18,0,40V194.36z"/>
	</g>
	<g>
		<path class="st5" d="M382.16,632c0,22-18,40-40,40H40.48c-22,0-40-18-40-40v-46.27c0-22,18-40,40-40h301.68c22,0,40,18,40,40V632z
			"/>
	</g>
	<g>
		<path d="M51.08,352.84c-1.51-0.37-2.73-0.88-3.65-1.54c-0.39-0.27-0.58-0.53-0.58-0.78c0-0.17,0.07-0.36,0.2-0.55l1.68-2.64
			c0.17-0.25,0.35-0.38,0.52-0.38c0.15,0,0.34,0.07,0.55,0.2c0.7,0.42,1.49,0.76,2.39,1c0.9,0.24,1.77,0.36,2.63,0.36
			c0.71,0,1.23-0.1,1.55-0.29c0.32-0.19,0.48-0.49,0.48-0.9c0-0.44-0.21-0.8-0.64-1.07c-0.43-0.27-1.16-0.61-2.2-1.01
			c-1.95-0.75-3.49-1.61-4.61-2.57s-1.68-2.23-1.68-3.81c0-2.01,0.7-3.52,2.1-4.54c1.4-1.01,3.29-1.52,5.67-1.52
			c1.66,0,3.08,0.15,4.25,0.44c1.17,0.29,2.19,0.74,3.06,1.36c0.39,0.27,0.58,0.53,0.58,0.78c0,0.17-0.07,0.36-0.2,0.55l-1.68,2.64
			c-0.17,0.27-0.35,0.41-0.52,0.41c-0.12,0-0.3-0.08-0.55-0.23c-0.46-0.31-1.01-0.57-1.65-0.77c-0.64-0.2-1.32-0.3-2.06-0.3
			c-0.68,0-1.19,0.1-1.54,0.29c-0.35,0.19-0.52,0.5-0.52,0.93c0,0.35,0.12,0.64,0.36,0.87c0.24,0.23,0.55,0.43,0.91,0.59
			c0.37,0.17,1,0.43,1.91,0.8c1.45,0.58,2.59,1.14,3.42,1.67c0.83,0.53,1.46,1.17,1.88,1.91c0.43,0.75,0.64,1.69,0.64,2.83
			c0,1.74-0.65,3.15-1.96,4.22c-1.3,1.07-3.25,1.61-5.84,1.61C54.22,353.39,52.58,353.2,51.08,352.84z"/>
		<path d="M65.62,352.55c-0.26-0.27-0.39-0.69-0.39-1.25v-16.41c0-0.56,0.13-0.98,0.39-1.25c0.26-0.27,0.71-0.41,1.35-0.41h12.01
			c0.62,0,1.04,0.13,1.26,0.39c0.22,0.26,0.33,0.68,0.33,1.26v1.62c0,0.58-0.11,1-0.33,1.26s-0.64,0.39-1.26,0.39h-6.79v2.49h4.18
			c0.62,0,1.04,0.13,1.26,0.39c0.22,0.26,0.33,0.68,0.33,1.26v1.57c0,0.58-0.11,1-0.33,1.26c-0.22,0.26-0.64,0.39-1.26,0.39h-4.18
			v2.49h6.76c0.62,0,1.04,0.13,1.26,0.39c0.22,0.26,0.33,0.68,0.33,1.26v1.62c0,0.58-0.11,1-0.33,1.26s-0.64,0.39-1.26,0.39H66.97
			C66.33,352.95,65.88,352.82,65.62,352.55z"/>
		<path d="M82.26,352.55c-0.26-0.27-0.39-0.69-0.39-1.25v-16.41c0-0.56,0.13-0.98,0.39-1.25c0.26-0.27,0.71-0.41,1.35-0.41h6.93
			c2.9,0,5.01,0.58,6.34,1.73s1.99,2.88,1.99,5.21c0,1.39-0.24,2.57-0.71,3.52c-0.47,0.96-1.2,1.71-2.19,2.25l2.7,5.77
			c0.08,0.16,0.12,0.33,0.12,0.52c0,0.21-0.07,0.39-0.22,0.52c-0.15,0.14-0.33,0.2-0.57,0.2h-4.9c-0.31,0-0.56-0.04-0.74-0.13
			s-0.31-0.24-0.39-0.45l-2.15-5.39h-0.99v4.32c0,0.56-0.13,0.98-0.39,1.25c-0.26,0.27-0.72,0.41-1.38,0.41h-3.45
			C82.97,352.95,82.53,352.82,82.26,352.55z M89.93,342.13c0.62,0,1.11-0.16,1.46-0.49c0.36-0.33,0.54-0.82,0.54-1.48
			c0-0.68-0.18-1.18-0.54-1.51s-0.85-0.49-1.46-0.49h-1.97v3.97H89.93z"/>
		<path d="M105.49,352.71c-0.22-0.16-0.41-0.45-0.57-0.86L98,334.48c-0.1-0.25-0.14-0.46-0.14-0.64c0-0.41,0.21-0.61,0.64-0.61h5.45
			c0.6,0,0.98,0.26,1.13,0.78l2.96,9.45l2.96-9.45c0.15-0.52,0.53-0.78,1.13-0.78h5.45c0.42,0,0.64,0.2,0.64,0.61
			c0,0.17-0.05,0.39-0.14,0.64l-6.9,17.37c-0.15,0.41-0.34,0.69-0.56,0.86c-0.22,0.16-0.55,0.25-0.97,0.25h-3.16
			C106.04,352.95,105.71,352.87,105.49,352.71z"/>
		<path d="M120.05,352.55c-0.26-0.27-0.39-0.69-0.39-1.25v-16.41c0-0.56,0.13-0.98,0.39-1.25c0.26-0.27,0.71-0.41,1.35-0.41h3.45
			c0.66,0,1.12,0.13,1.38,0.39c0.26,0.26,0.39,0.68,0.39,1.26v16.41c0,0.56-0.13,0.98-0.39,1.25c-0.26,0.27-0.72,0.41-1.38,0.41
			h-3.45C120.76,352.95,120.31,352.82,120.05,352.55z"/>
		<path d="M131,350.79c-1.95-1.73-2.93-4.3-2.93-7.7c0-3.42,0.94-5.99,2.83-7.71s4.58-2.58,8.08-2.58c1.59,0,3,0.16,4.23,0.46
			c1.24,0.31,2.27,0.75,3.1,1.31c0.23,0.17,0.35,0.37,0.35,0.58c0,0.17-0.09,0.42-0.26,0.72l-1.45,2.49
			c-0.15,0.27-0.34,0.41-0.55,0.41c-0.14,0-0.36-0.08-0.67-0.23c-0.54-0.27-1.11-0.48-1.7-0.64c-0.59-0.15-1.28-0.23-2.07-0.23
			c-1.6,0-2.83,0.46-3.68,1.39c-0.85,0.93-1.28,2.27-1.28,4.03c0,1.74,0.46,3.08,1.39,4.02c0.93,0.94,2.19,1.41,3.8,1.41
			c1.39,0,2.67-0.29,3.83-0.87c0.31-0.16,0.53-0.23,0.67-0.23c0.21,0,0.4,0.14,0.55,0.41l1.45,2.49c0.17,0.31,0.26,0.55,0.26,0.72
			c0,0.21-0.12,0.41-0.35,0.58c-0.83,0.56-1.88,1-3.13,1.3c-1.26,0.31-2.68,0.46-4.26,0.46C135.69,353.39,132.95,352.52,131,350.79z
			"/>
		<path d="M148.79,352.55c-0.26-0.27-0.39-0.69-0.39-1.25v-16.41c0-0.56,0.13-0.98,0.39-1.25c0.26-0.27,0.71-0.41,1.35-0.41h3.45
			c0.66,0,1.12,0.13,1.38,0.39c0.26,0.26,0.39,0.68,0.39,1.26v16.41c0,0.56-0.13,0.98-0.39,1.25c-0.26,0.27-0.72,0.41-1.38,0.41
			h-3.45C149.5,352.95,149.05,352.82,148.79,352.55z"/>
		<path d="M159.48,350.71c-1.78-1.79-2.67-4.33-2.67-7.61c0-3.29,0.89-5.82,2.67-7.61c1.78-1.79,4.39-2.68,7.83-2.68
			c3.44,0,6.05,0.89,7.83,2.68c1.78,1.79,2.67,4.33,2.67,7.61c0,3.29-0.89,5.83-2.67,7.61c-1.78,1.79-4.39,2.68-7.83,2.68
			C163.87,353.39,161.25,352.49,159.48,350.71z M170.03,347.17c0.56-0.9,0.84-2.26,0.84-4.08c0-1.84-0.28-3.2-0.84-4.09
			c-0.56-0.89-1.47-1.33-2.73-1.33c-1.26,0-2.17,0.45-2.73,1.33c-0.56,0.89-0.84,2.25-0.84,4.09c0,1.82,0.28,3.18,0.84,4.08
			c0.56,0.9,1.47,1.35,2.73,1.35C168.56,348.52,169.47,348.07,170.03,347.17z"/>
		<path d="M181.63,352.84c-1.51-0.37-2.73-0.88-3.65-1.54c-0.39-0.27-0.58-0.53-0.58-0.78c0-0.17,0.07-0.36,0.2-0.55l1.68-2.64
			c0.17-0.25,0.35-0.38,0.52-0.38c0.15,0,0.34,0.07,0.55,0.2c0.7,0.42,1.49,0.76,2.39,1c0.9,0.24,1.77,0.36,2.63,0.36
			c0.71,0,1.23-0.1,1.55-0.29s0.48-0.49,0.48-0.9c0-0.44-0.21-0.8-0.64-1.07c-0.43-0.27-1.16-0.61-2.21-1.01
			c-1.95-0.75-3.49-1.61-4.61-2.57c-1.12-0.96-1.68-2.23-1.68-3.81c0-2.01,0.7-3.52,2.1-4.54c1.4-1.01,3.29-1.52,5.67-1.52
			c1.66,0,3.08,0.15,4.25,0.44c1.17,0.29,2.19,0.74,3.06,1.36c0.39,0.27,0.58,0.53,0.58,0.78c0,0.17-0.07,0.36-0.2,0.55l-1.68,2.64
			c-0.17,0.27-0.35,0.41-0.52,0.41c-0.12,0-0.3-0.08-0.55-0.23c-0.46-0.31-1.02-0.57-1.65-0.77c-0.64-0.2-1.32-0.3-2.06-0.3
			c-0.68,0-1.19,0.1-1.54,0.29c-0.35,0.19-0.52,0.5-0.52,0.93c0,0.35,0.12,0.64,0.36,0.87c0.24,0.23,0.55,0.43,0.91,0.59
			c0.37,0.17,1.01,0.43,1.91,0.8c1.45,0.58,2.59,1.14,3.42,1.67c0.83,0.53,1.46,1.17,1.89,1.91c0.42,0.75,0.64,1.69,0.64,2.83
			c0,1.74-0.65,3.15-1.96,4.22c-1.3,1.07-3.25,1.61-5.84,1.61C184.77,353.39,183.14,353.2,181.63,352.84z"/>
		<path d="M204.88,352.55c-0.26-0.27-0.39-0.69-0.39-1.25v-16.41c0-0.56,0.13-0.98,0.39-1.25c0.26-0.27,0.71-0.41,1.35-0.41h8.79
			c2.36,0,4.09,0.5,5.21,1.51c1.11,1.01,1.67,2.44,1.67,4.29c0,0.87-0.19,1.64-0.56,2.31s-0.88,1.14-1.49,1.41
			c1.72,0.58,2.58,1.93,2.58,4.06c0,1.82-0.64,3.3-1.93,4.44s-3.18,1.71-5.67,1.71h-8.58C205.59,352.95,205.14,352.82,204.88,352.55
			z M213.62,340.69c0.89,0,1.33-0.43,1.33-1.28s-0.44-1.28-1.33-1.28h-2.2v2.55H213.62z M214.11,348.05c0.41,0,0.73-0.13,0.99-0.39
			c0.25-0.26,0.38-0.61,0.38-1.06c0-0.46-0.12-0.82-0.36-1.07s-0.58-0.38-1-0.38h-2.7v2.9H214.11z"/>
		<path d="M221.39,352.34c0-0.17,0.05-0.39,0.14-0.64l7.22-17.37c0.17-0.41,0.37-0.69,0.6-0.86c0.22-0.16,0.54-0.25,0.94-0.25h3.16
			c0.41,0,0.72,0.08,0.94,0.25c0.22,0.17,0.42,0.45,0.6,0.86l7.19,17.37c0.1,0.25,0.14,0.46,0.14,0.64c0,0.41-0.21,0.61-0.64,0.61
			h-5.45c-0.6,0-0.98-0.26-1.13-0.78l-0.7-2.15h-5.13l-0.67,2.15c-0.15,0.52-0.53,0.78-1.13,0.78h-5.45
			C221.6,352.95,221.39,352.75,221.39,352.34z M232.99,345.44l-1.13-3.6l-1.13,3.6H232.99z"/>
		<path d="M246.16,352.84c-1.51-0.37-2.73-0.88-3.65-1.54c-0.39-0.27-0.58-0.53-0.58-0.78c0-0.17,0.07-0.36,0.2-0.55l1.68-2.64
			c0.17-0.25,0.35-0.38,0.52-0.38c0.15,0,0.34,0.07,0.55,0.2c0.7,0.42,1.49,0.76,2.39,1c0.9,0.24,1.77,0.36,2.63,0.36
			c0.71,0,1.23-0.1,1.55-0.29c0.32-0.19,0.48-0.49,0.48-0.9c0-0.44-0.21-0.8-0.64-1.07c-0.43-0.27-1.16-0.61-2.2-1.01
			c-1.95-0.75-3.49-1.61-4.61-2.57s-1.68-2.23-1.68-3.81c0-2.01,0.7-3.52,2.1-4.54c1.4-1.01,3.29-1.52,5.67-1.52
			c1.66,0,3.08,0.15,4.25,0.44c1.17,0.29,2.19,0.74,3.06,1.36c0.39,0.27,0.58,0.53,0.58,0.78c0,0.17-0.07,0.36-0.2,0.55l-1.68,2.64
			c-0.17,0.27-0.35,0.41-0.52,0.41c-0.12,0-0.3-0.08-0.55-0.23c-0.46-0.31-1.01-0.57-1.65-0.77c-0.64-0.2-1.32-0.3-2.06-0.3
			c-0.68,0-1.19,0.1-1.54,0.29c-0.35,0.19-0.52,0.5-0.52,0.93c0,0.35,0.12,0.64,0.36,0.87c0.24,0.23,0.55,0.43,0.91,0.59
			c0.37,0.17,1,0.43,1.91,0.8c1.45,0.58,2.59,1.14,3.42,1.67c0.83,0.53,1.46,1.17,1.88,1.91c0.43,0.75,0.64,1.69,0.64,2.83
			c0,1.74-0.65,3.15-1.96,4.22c-1.3,1.07-3.25,1.61-5.84,1.61C249.3,353.39,247.67,353.2,246.16,352.84z"/>
		<path d="M258.42,352.34c0-0.17,0.05-0.39,0.14-0.64l7.22-17.37c0.17-0.41,0.37-0.69,0.6-0.86c0.22-0.16,0.54-0.25,0.94-0.25h3.16
			c0.41,0,0.72,0.08,0.94,0.25c0.22,0.17,0.42,0.45,0.6,0.86l7.19,17.37c0.1,0.25,0.14,0.46,0.14,0.64c0,0.41-0.21,0.61-0.64,0.61
			h-5.45c-0.6,0-0.98-0.26-1.13-0.78l-0.7-2.15h-5.13l-0.67,2.15c-0.15,0.52-0.53,0.78-1.13,0.78h-5.45
			C258.64,352.95,258.42,352.75,258.42,352.34z M270.02,345.44l-1.13-3.6l-1.13,3.6H270.02z"/>
		<path d="M281.2,352.55c-0.26-0.27-0.39-0.69-0.39-1.25v-16.41c0-0.56,0.13-0.98,0.39-1.25c0.26-0.27,0.71-0.41,1.35-0.41h6.67
			c6.83,0,10.24,3.29,10.24,9.86c0,3.25-0.88,5.7-2.63,7.37c-1.75,1.66-4.29,2.49-7.61,2.49h-6.67
			C281.91,352.95,281.46,352.82,281.2,352.55z M289.48,348.02c1.08,0,1.86-0.36,2.33-1.07c0.47-0.71,0.71-2,0.71-3.86
			c0-1.86-0.24-3.14-0.71-3.86c-0.47-0.71-1.25-1.07-2.33-1.07h-1.71v9.86H289.48z"/>
		<path d="M303,350.71c-1.78-1.79-2.67-4.33-2.67-7.61c0-3.29,0.89-5.82,2.67-7.61c1.78-1.79,4.39-2.68,7.83-2.68
			s6.05,0.89,7.83,2.68c1.78,1.79,2.67,4.33,2.67,7.61c0,3.29-0.89,5.83-2.67,7.61c-1.78,1.79-4.39,2.68-7.83,2.68
			S304.77,352.49,303,350.71z M313.55,347.17c0.56-0.9,0.84-2.26,0.84-4.08c0-1.84-0.28-3.2-0.84-4.09
			c-0.56-0.89-1.47-1.33-2.73-1.33c-1.26,0-2.17,0.45-2.73,1.33c-0.56,0.89-0.84,2.25-0.84,4.09c0,1.82,0.28,3.18,0.84,4.08
			c0.56,0.9,1.47,1.35,2.73,1.35C312.08,348.52,312.99,348.07,313.55,347.17z"/>
		<path d="M325.15,352.84c-1.51-0.37-2.73-0.88-3.65-1.54c-0.39-0.27-0.58-0.53-0.58-0.78c0-0.17,0.07-0.36,0.2-0.55l1.68-2.64
			c0.17-0.25,0.35-0.38,0.52-0.38c0.15,0,0.34,0.07,0.55,0.2c0.7,0.42,1.49,0.76,2.39,1c0.9,0.24,1.77,0.36,2.62,0.36
			c0.71,0,1.23-0.1,1.55-0.29c0.32-0.19,0.48-0.49,0.48-0.9c0-0.44-0.21-0.8-0.64-1.07c-0.43-0.27-1.16-0.61-2.2-1.01
			c-1.95-0.75-3.49-1.61-4.61-2.57c-1.12-0.96-1.68-2.23-1.68-3.81c0-2.01,0.7-3.52,2.1-4.54c1.4-1.01,3.29-1.52,5.67-1.52
			c1.66,0,3.08,0.15,4.25,0.44s2.19,0.74,3.06,1.36c0.39,0.27,0.58,0.53,0.58,0.78c0,0.17-0.07,0.36-0.2,0.55l-1.68,2.64
			c-0.17,0.27-0.35,0.41-0.52,0.41c-0.12,0-0.3-0.08-0.55-0.23c-0.46-0.31-1.02-0.57-1.65-0.77s-1.32-0.3-2.06-0.3
			c-0.68,0-1.19,0.1-1.54,0.29c-0.35,0.19-0.52,0.5-0.52,0.93c0,0.35,0.12,0.64,0.36,0.87c0.24,0.23,0.54,0.43,0.91,0.59
			c0.37,0.17,1,0.43,1.91,0.8c1.45,0.58,2.59,1.14,3.42,1.67c0.83,0.53,1.46,1.17,1.89,1.91c0.42,0.75,0.64,1.69,0.64,2.83
			c0,1.74-0.65,3.15-1.96,4.22c-1.3,1.07-3.25,1.61-5.84,1.61C328.29,353.39,326.66,353.2,325.15,352.84z"/>
		<path d="M106.67,387.35c-0.26-0.27-0.39-0.69-0.39-1.25v-16.41c0-0.56,0.13-0.98,0.39-1.25c0.26-0.27,0.71-0.41,1.35-0.41h12.01
			c0.62,0,1.04,0.13,1.26,0.39c0.22,0.26,0.33,0.68,0.33,1.26v1.62c0,0.58-0.11,1-0.33,1.26c-0.22,0.26-0.64,0.39-1.26,0.39h-6.79
			v2.49h4.18c0.62,0,1.04,0.13,1.26,0.39s0.33,0.68,0.33,1.26v1.57c0,0.58-0.11,1-0.33,1.26s-0.64,0.39-1.26,0.39h-4.18v2.49h6.76
			c0.62,0,1.04,0.13,1.26,0.39c0.22,0.26,0.33,0.68,0.33,1.26v1.62c0,0.58-0.11,1-0.33,1.26c-0.22,0.26-0.64,0.39-1.26,0.39h-11.98
			C107.38,387.75,106.93,387.62,106.67,387.35z"/>
		<path d="M123.31,387.35c-0.26-0.27-0.39-0.69-0.39-1.25v-16.44c0-0.56,0.13-0.97,0.39-1.23c0.26-0.26,0.72-0.39,1.38-0.39h2.75
			c0.41,0,0.72,0.05,0.94,0.16s0.44,0.31,0.65,0.62l5.25,7.8v-6.93c0-0.56,0.13-0.98,0.39-1.25c0.26-0.27,0.71-0.41,1.35-0.41h3.45
			c0.66,0,1.12,0.13,1.38,0.39c0.26,0.26,0.39,0.68,0.39,1.26v16.44c0,0.56-0.13,0.97-0.39,1.23c-0.26,0.26-0.72,0.39-1.38,0.39
			h-2.75c-0.41,0-0.72-0.05-0.94-0.16s-0.44-0.31-0.65-0.62l-5.25-7.8v6.96c0,0.56-0.13,0.97-0.39,1.23
			c-0.26,0.26-0.72,0.39-1.38,0.39h-3.45C124.02,387.75,123.57,387.62,123.31,387.35z"/>
		<path d="M152.37,387.35c-0.26-0.27-0.39-0.69-0.39-1.25v-16.41c0-0.56,0.13-0.98,0.39-1.25c0.26-0.27,0.71-0.41,1.35-0.41h3.45
			c0.66,0,1.12,0.13,1.38,0.39c0.26,0.26,0.39,0.68,0.39,1.26v13.14h6.76c0.62,0,1.04,0.13,1.26,0.39c0.22,0.26,0.33,0.68,0.33,1.26
			v1.62c0,0.58-0.11,1-0.33,1.26c-0.22,0.26-0.64,0.39-1.26,0.39h-11.98C153.08,387.75,152.63,387.62,152.37,387.35z"/>
		<path d="M167.15,387.14c0-0.17,0.05-0.39,0.15-0.64l7.22-17.37c0.17-0.41,0.37-0.69,0.59-0.86c0.22-0.16,0.54-0.25,0.94-0.25h3.16
			c0.41,0,0.72,0.08,0.94,0.25c0.22,0.17,0.42,0.45,0.59,0.86l7.19,17.37c0.1,0.25,0.15,0.46,0.15,0.64c0,0.41-0.21,0.61-0.64,0.61
			H182c-0.6,0-0.98-0.26-1.13-0.78l-0.7-2.15h-5.13l-0.67,2.15c-0.15,0.52-0.53,0.78-1.13,0.78h-5.45
			C167.36,387.75,167.15,387.55,167.15,387.14z M178.75,380.24l-1.13-3.6l-1.13,3.6H178.75z"/>
		<path d="M198.63,387.35c-0.26-0.27-0.39-0.69-0.39-1.25v-16.44c0-0.56,0.13-0.97,0.39-1.23c0.26-0.26,0.72-0.39,1.38-0.39h2.75
			c0.41,0,0.72,0.05,0.94,0.16s0.44,0.31,0.65,0.62l5.25,7.8v-6.93c0-0.56,0.13-0.98,0.39-1.25c0.26-0.27,0.71-0.41,1.35-0.41h3.45
			c0.66,0,1.12,0.13,1.38,0.39c0.26,0.26,0.39,0.68,0.39,1.26v16.44c0,0.56-0.13,0.97-0.39,1.23c-0.26,0.26-0.72,0.39-1.38,0.39
			h-2.75c-0.41,0-0.72-0.05-0.94-0.16s-0.44-0.31-0.65-0.62l-5.25-7.8v6.96c0,0.56-0.13,0.97-0.39,1.23
			c-0.26,0.26-0.72,0.39-1.38,0.39h-3.45C199.34,387.75,198.89,387.62,198.63,387.35z"/>
		<path d="M222.97,387.27c-1.43-0.61-2.54-1.49-3.33-2.64s-1.19-2.52-1.19-4.1v-10.85c0-0.56,0.13-0.98,0.39-1.25
			c0.26-0.27,0.71-0.41,1.35-0.41h3.45c0.66,0,1.12,0.13,1.38,0.39c0.26,0.26,0.39,0.68,0.39,1.26v10.93c0,0.91,0.23,1.58,0.68,2.03
			c0.45,0.44,1.08,0.67,1.87,0.67s1.42-0.22,1.87-0.67c0.45-0.45,0.68-1.12,0.68-2.03v-10.93c0-0.56,0.13-0.98,0.39-1.25
			c0.26-0.27,0.71-0.41,1.35-0.41h3.45c0.66,0,1.12,0.13,1.38,0.39c0.26,0.26,0.39,0.68,0.39,1.26v10.85c0,1.58-0.4,2.95-1.19,4.1
			c-0.79,1.15-1.91,2.03-3.34,2.64s-3.09,0.91-4.99,0.91S224.4,387.88,222.97,387.27z"/>
		<path d="M239.75,387.35c-0.26-0.27-0.39-0.69-0.39-1.25v-16.41c0-0.56,0.13-0.98,0.39-1.25c0.26-0.27,0.71-0.41,1.35-0.41h8.79
			c2.36,0,4.09,0.5,5.21,1.51c1.11,1.01,1.67,2.44,1.67,4.29c0,0.87-0.19,1.64-0.56,2.31s-0.88,1.14-1.49,1.41
			c1.72,0.58,2.58,1.93,2.58,4.06c0,1.82-0.64,3.3-1.93,4.44s-3.18,1.71-5.67,1.71h-8.58C240.46,387.75,240.01,387.62,239.75,387.35
			z M248.49,375.49c0.89,0,1.33-0.43,1.33-1.28s-0.44-1.28-1.33-1.28h-2.2v2.55H248.49z M248.98,382.85c0.41,0,0.73-0.13,0.99-0.39
			c0.25-0.26,0.38-0.61,0.38-1.06c0-0.46-0.12-0.82-0.36-1.07s-0.58-0.38-1-0.38h-2.7v2.9H248.98z"/>
		<path d="M259.12,387.35c-0.26-0.27-0.39-0.69-0.39-1.25v-16.41c0-0.56,0.13-0.98,0.39-1.25c0.26-0.27,0.71-0.41,1.35-0.41h12.01
			c0.62,0,1.04,0.13,1.26,0.39c0.22,0.26,0.33,0.68,0.33,1.26v1.62c0,0.58-0.11,1-0.33,1.26c-0.22,0.26-0.64,0.39-1.26,0.39h-6.79
			v2.49h4.18c0.62,0,1.04,0.13,1.26,0.39s0.33,0.68,0.33,1.26v1.57c0,0.58-0.11,1-0.33,1.26s-0.64,0.39-1.26,0.39h-4.18v2.49h6.76
			c0.62,0,1.04,0.13,1.26,0.39c0.22,0.26,0.33,0.68,0.33,1.26v1.62c0,0.58-0.11,1-0.33,1.26c-0.22,0.26-0.64,0.39-1.26,0.39h-11.98
			C259.83,387.75,259.38,387.62,259.12,387.35z"/>
		<path d="M275.27,387.22c-0.32-0.36-0.48-0.78-0.48-1.26v-0.73c0-0.52,0.16-0.95,0.48-1.29c0.32-0.34,0.73-0.51,1.23-0.51h0.75
			c0.5,0,0.91,0.17,1.23,0.51c0.32,0.34,0.48,0.77,0.48,1.29v0.73c0,0.5-0.16,0.93-0.48,1.28c-0.32,0.35-0.73,0.52-1.23,0.52h-0.75
			C276,387.75,275.59,387.57,275.27,387.22z"/>
		<path d="M91.66,422.15c-0.26-0.27-0.39-0.69-0.39-1.25v-16.41c0-0.56,0.13-0.98,0.39-1.25c0.26-0.27,0.71-0.41,1.35-0.41h6.93
			c2.9,0,5.01,0.58,6.34,1.73s1.99,2.88,1.99,5.21s-0.66,4.05-1.99,5.19s-3.43,1.71-6.31,1.71h-1.74v4.23
			c0,0.56-0.13,0.98-0.39,1.25c-0.26,0.27-0.72,0.41-1.38,0.41h-3.45C92.37,422.55,91.92,422.42,91.66,422.15z M99.33,411.73
			c0.62,0,1.11-0.16,1.46-0.49c0.36-0.33,0.54-0.82,0.54-1.48c0-0.68-0.18-1.18-0.54-1.51s-0.85-0.49-1.46-0.49h-1.97v3.97H99.33z"
			/>
		<path d="M109.52,422.15c-0.26-0.27-0.39-0.69-0.39-1.25v-16.41c0-0.56,0.13-0.98,0.39-1.25c0.26-0.27,0.71-0.41,1.35-0.41h12.01
			c0.62,0,1.04,0.13,1.26,0.39c0.22,0.26,0.33,0.68,0.33,1.26v1.62c0,0.58-0.11,1-0.33,1.26c-0.22,0.26-0.64,0.39-1.26,0.39h-6.79
			v2.49h4.18c0.62,0,1.04,0.13,1.26,0.39c0.22,0.26,0.33,0.68,0.33,1.26v1.57c0,0.58-0.11,1-0.33,1.26
			c-0.22,0.26-0.64,0.39-1.26,0.39h-4.18v2.49h6.76c0.62,0,1.04,0.13,1.26,0.39c0.22,0.26,0.33,0.68,0.33,1.26v1.62
			c0,0.58-0.11,1-0.33,1.26c-0.22,0.26-0.64,0.39-1.26,0.39h-11.98C110.23,422.55,109.79,422.42,109.52,422.15z"/>
		<path d="M126.17,422.15c-0.26-0.27-0.39-0.69-0.39-1.25v-16.41c0-0.56,0.13-0.98,0.39-1.25c0.26-0.27,0.71-0.41,1.35-0.41h6.93
			c2.9,0,5.01,0.58,6.34,1.73s1.99,2.88,1.99,5.21c0,1.39-0.24,2.57-0.71,3.52c-0.47,0.96-1.2,1.71-2.19,2.25l2.7,5.77
			c0.08,0.16,0.12,0.33,0.12,0.52c0,0.21-0.07,0.39-0.22,0.52c-0.15,0.14-0.33,0.2-0.57,0.2H137c-0.31,0-0.56-0.04-0.74-0.13
			s-0.31-0.24-0.39-0.45l-2.15-5.39h-0.99v4.32c0,0.56-0.13,0.98-0.39,1.25c-0.26,0.27-0.72,0.41-1.38,0.41h-3.45
			C126.88,422.55,126.43,422.42,126.17,422.15z M133.84,411.73c0.62,0,1.11-0.16,1.46-0.49c0.36-0.33,0.54-0.82,0.54-1.48
			c0-0.68-0.18-1.18-0.54-1.51s-0.85-0.49-1.46-0.49h-1.97v3.97H133.84z"/>
		<path d="M144.61,422.15c-0.26-0.27-0.39-0.69-0.39-1.25v-16.44c0-0.56,0.13-0.97,0.39-1.23c0.26-0.26,0.72-0.39,1.38-0.39h3.33
			c0.42,0,0.76,0.05,1.01,0.16s0.44,0.31,0.58,0.62l3.39,8.5l3.39-8.5c0.13-0.31,0.33-0.52,0.58-0.62c0.25-0.11,0.59-0.16,1.02-0.16
			h3.33c0.66,0,1.12,0.13,1.38,0.39c0.26,0.26,0.39,0.67,0.39,1.23v16.44c0,0.56-0.13,0.98-0.39,1.25
			c-0.26,0.27-0.71,0.41-1.35,0.41h-2.78c-0.64,0-1.09-0.13-1.36-0.41c-0.27-0.27-0.41-0.69-0.41-1.25v-7.92l-1.71,3.94
			c-0.23,0.56-0.48,0.96-0.75,1.2c-0.27,0.24-0.72,0.36-1.33,0.36c-0.62,0-1.06-0.12-1.33-0.36c-0.27-0.24-0.52-0.64-0.75-1.2
			l-1.71-3.94v7.92c0,0.56-0.13,0.98-0.39,1.25c-0.26,0.27-0.72,0.41-1.38,0.41h-2.78C145.32,422.55,144.88,422.42,144.61,422.15z"
			/>
		<path d="M165.13,421.94c0-0.17,0.05-0.39,0.15-0.64l7.22-17.37c0.17-0.41,0.37-0.69,0.59-0.86c0.22-0.16,0.54-0.25,0.94-0.25h3.16
			c0.41,0,0.72,0.08,0.94,0.25c0.22,0.17,0.42,0.45,0.59,0.86l7.19,17.37c0.1,0.25,0.15,0.46,0.15,0.64c0,0.41-0.21,0.61-0.64,0.61
			h-5.45c-0.6,0-0.98-0.26-1.13-0.78l-0.7-2.15h-5.13l-0.67,2.15c-0.15,0.52-0.53,0.78-1.13,0.78h-5.45
			C165.34,422.55,165.13,422.35,165.13,421.94z M176.73,415.04l-1.13-3.6l-1.13,3.6H176.73z"/>
		<path d="M187.91,422.15c-0.26-0.27-0.39-0.69-0.39-1.25v-16.44c0-0.56,0.13-0.97,0.39-1.23c0.26-0.26,0.72-0.39,1.38-0.39h2.75
			c0.41,0,0.72,0.05,0.94,0.16c0.22,0.11,0.44,0.31,0.65,0.62l5.25,7.8v-6.93c0-0.56,0.13-0.98,0.39-1.25
			c0.26-0.27,0.71-0.41,1.35-0.41h3.45c0.66,0,1.12,0.13,1.38,0.39c0.26,0.26,0.39,0.68,0.39,1.26v16.44c0,0.56-0.13,0.97-0.39,1.23
			c-0.26,0.26-0.72,0.39-1.38,0.39h-2.76c-0.41,0-0.72-0.05-0.94-0.16c-0.22-0.11-0.44-0.31-0.65-0.62l-5.25-7.8v6.96
			c0,0.56-0.13,0.97-0.39,1.23c-0.26,0.26-0.72,0.39-1.38,0.39h-3.45C188.62,422.55,188.17,422.42,187.91,422.15z"/>
		<path d="M208.27,422.15c-0.26-0.27-0.39-0.69-0.39-1.25v-16.41c0-0.56,0.13-0.98,0.39-1.25c0.26-0.27,0.71-0.41,1.35-0.41h12.01
			c0.62,0,1.04,0.13,1.26,0.39c0.22,0.26,0.33,0.68,0.33,1.26v1.62c0,0.58-0.11,1-0.33,1.26c-0.22,0.26-0.64,0.39-1.26,0.39h-6.79
			v2.49h4.18c0.62,0,1.04,0.13,1.26,0.39c0.22,0.26,0.33,0.68,0.33,1.26v1.57c0,0.58-0.11,1-0.33,1.26
			c-0.22,0.26-0.64,0.39-1.26,0.39h-4.18v2.49h6.76c0.62,0,1.04,0.13,1.26,0.39c0.22,0.26,0.33,0.68,0.33,1.26v1.62
			c0,0.58-0.11,1-0.33,1.26c-0.22,0.26-0.64,0.39-1.26,0.39h-11.98C208.98,422.55,208.53,422.42,208.27,422.15z"/>
		<path d="M224.91,422.15c-0.26-0.27-0.39-0.69-0.39-1.25v-16.44c0-0.56,0.13-0.97,0.39-1.23c0.26-0.26,0.72-0.39,1.38-0.39h2.75
			c0.41,0,0.72,0.05,0.94,0.16c0.22,0.11,0.44,0.31,0.65,0.62l5.25,7.8v-6.93c0-0.56,0.13-0.98,0.39-1.25
			c0.26-0.27,0.71-0.41,1.35-0.41h3.45c0.66,0,1.12,0.13,1.38,0.39c0.26,0.26,0.39,0.68,0.39,1.26v16.44c0,0.56-0.13,0.97-0.39,1.23
			c-0.26,0.26-0.72,0.39-1.38,0.39h-2.76c-0.41,0-0.72-0.05-0.94-0.16c-0.22-0.11-0.44-0.31-0.65-0.62l-5.25-7.8v6.96
			c0,0.56-0.13,0.97-0.39,1.23c-0.26,0.26-0.72,0.39-1.38,0.39h-3.45C225.63,422.55,225.18,422.42,224.91,422.15z"/>
		<path d="M247.23,420.39c-1.95-1.73-2.93-4.3-2.93-7.7c0-3.42,0.94-5.99,2.83-7.71c1.88-1.72,4.58-2.58,8.08-2.58
			c1.58,0,3,0.16,4.23,0.46c1.24,0.31,2.27,0.75,3.1,1.31c0.23,0.17,0.35,0.37,0.35,0.58c0,0.17-0.09,0.42-0.26,0.72l-1.45,2.49
			c-0.16,0.27-0.34,0.41-0.55,0.41c-0.14,0-0.36-0.08-0.67-0.23c-0.54-0.27-1.11-0.48-1.7-0.64s-1.28-0.23-2.07-0.23
			c-1.61,0-2.83,0.46-3.68,1.39c-0.85,0.93-1.28,2.27-1.28,4.03c0,1.74,0.46,3.08,1.39,4.02c0.93,0.94,2.2,1.41,3.8,1.41
			c1.39,0,2.67-0.29,3.83-0.87c0.31-0.16,0.53-0.23,0.67-0.23c0.21,0,0.4,0.14,0.55,0.41l1.45,2.49c0.17,0.31,0.26,0.55,0.26,0.72
			c0,0.21-0.12,0.41-0.35,0.58c-0.83,0.56-1.88,1-3.13,1.3c-1.26,0.31-2.68,0.46-4.26,0.46
			C251.92,422.99,249.18,422.12,247.23,420.39z"/>
		<path d="M265.02,422.15c-0.26-0.27-0.39-0.69-0.39-1.25v-16.41c0-0.56,0.13-0.98,0.39-1.25c0.26-0.27,0.71-0.41,1.35-0.41h3.45
			c0.66,0,1.12,0.13,1.38,0.39c0.26,0.26,0.39,0.68,0.39,1.26v16.41c0,0.56-0.13,0.98-0.39,1.25c-0.26,0.27-0.72,0.41-1.38,0.41
			h-3.45C265.73,422.55,265.28,422.42,265.02,422.15z"/>
		<path d="M273.04,421.94c0-0.17,0.05-0.39,0.15-0.64l7.22-17.37c0.17-0.41,0.37-0.69,0.59-0.86c0.22-0.16,0.54-0.25,0.94-0.25h3.16
			c0.41,0,0.72,0.08,0.94,0.25c0.22,0.17,0.42,0.45,0.59,0.86l7.19,17.37c0.1,0.25,0.15,0.46,0.15,0.64c0,0.41-0.21,0.61-0.64,0.61
			h-5.45c-0.6,0-0.98-0.26-1.13-0.78l-0.7-2.15h-5.13l-0.67,2.15c-0.15,0.52-0.53,0.78-1.13,0.78h-5.45
			C273.25,422.55,273.04,422.35,273.04,421.94z M284.64,415.04l-1.13-3.6l-1.13,3.6H284.64z"/>
		<path d="M68.04,456.95c-0.26-0.27-0.39-0.69-0.39-1.25v-5.25l-6.76-11.57c-0.12-0.21-0.17-0.42-0.17-0.61
			c0-0.42,0.22-0.64,0.67-0.64h5.45c0.29,0,0.51,0.06,0.67,0.19c0.15,0.13,0.31,0.32,0.46,0.59l3.16,5.68l3.16-5.68
			c0.15-0.27,0.31-0.47,0.46-0.59c0.15-0.13,0.38-0.19,0.67-0.19h5.45c0.44,0,0.67,0.21,0.67,0.64c0,0.19-0.06,0.4-0.17,0.61
			l-6.76,11.57v5.25c0,0.56-0.13,0.98-0.39,1.25c-0.26,0.27-0.72,0.41-1.38,0.41h-3.45C68.75,457.35,68.3,457.22,68.04,456.95z"/>
		<path d="M91.14,456.74c0-0.17,0.05-0.39,0.14-0.64l7.22-17.37c0.17-0.41,0.37-0.69,0.59-0.86c0.22-0.16,0.54-0.25,0.94-0.25h3.16
			c0.41,0,0.72,0.08,0.94,0.25c0.22,0.17,0.42,0.45,0.59,0.86l7.19,17.37c0.1,0.25,0.14,0.46,0.14,0.64c0,0.41-0.21,0.61-0.64,0.61
			h-5.45c-0.6,0-0.98-0.26-1.13-0.78l-0.7-2.15h-5.13l-0.67,2.15c-0.16,0.52-0.53,0.78-1.13,0.78h-5.45
			C91.35,457.35,91.14,457.15,91.14,456.74z M102.74,449.84l-1.13-3.6l-1.13,3.6H102.74z"/>
		<path d="M113.92,456.95c-0.26-0.27-0.39-0.69-0.39-1.25v-16.41c0-0.56,0.13-0.98,0.39-1.25c0.26-0.27,0.71-0.41,1.35-0.41h3.45
			c0.66,0,1.12,0.13,1.38,0.39c0.26,0.26,0.39,0.68,0.39,1.26v13.14h6.76c0.62,0,1.04,0.13,1.26,0.39c0.22,0.26,0.33,0.68,0.33,1.26
			v1.62c0,0.58-0.11,1-0.33,1.26c-0.22,0.26-0.64,0.39-1.26,0.39h-11.98C114.63,457.35,114.18,457.22,113.92,456.95z"/>
		<path d="M130.17,455.19c-1.95-1.73-2.93-4.3-2.93-7.7c0-3.42,0.94-5.99,2.83-7.71c1.88-1.72,4.58-2.58,8.08-2.58
			c1.58,0,3,0.16,4.23,0.46c1.24,0.31,2.27,0.75,3.1,1.31c0.23,0.17,0.35,0.37,0.35,0.58c0,0.17-0.09,0.42-0.26,0.72l-1.45,2.49
			c-0.15,0.27-0.34,0.41-0.55,0.41c-0.13,0-0.36-0.08-0.67-0.23c-0.54-0.27-1.11-0.48-1.7-0.64s-1.28-0.23-2.07-0.23
			c-1.6,0-2.83,0.46-3.68,1.39c-0.85,0.93-1.28,2.27-1.28,4.03c0,1.74,0.46,3.08,1.39,4.02c0.93,0.94,2.19,1.41,3.8,1.41
			c1.39,0,2.67-0.29,3.83-0.87c0.31-0.16,0.53-0.23,0.67-0.23c0.21,0,0.4,0.14,0.55,0.41l1.45,2.49c0.17,0.31,0.26,0.55,0.26,0.72
			c0,0.21-0.12,0.41-0.35,0.58c-0.83,0.56-1.88,1-3.13,1.3c-1.26,0.31-2.68,0.46-4.26,0.46
			C134.86,457.79,132.13,456.92,130.17,455.19z"/>
		<path d="M146.27,456.74c0-0.17,0.05-0.39,0.14-0.64l7.22-17.37c0.17-0.41,0.37-0.69,0.6-0.86c0.22-0.16,0.54-0.25,0.94-0.25h3.16
			c0.41,0,0.72,0.08,0.94,0.25c0.22,0.17,0.42,0.45,0.6,0.86l7.19,17.37c0.1,0.25,0.14,0.46,0.14,0.64c0,0.41-0.21,0.61-0.64,0.61
			h-5.45c-0.6,0-0.98-0.26-1.13-0.78l-0.7-2.15h-5.13l-0.67,2.15c-0.15,0.52-0.53,0.78-1.13,0.78h-5.45
			C146.48,457.35,146.27,457.15,146.27,456.74z M157.87,449.84l-1.13-3.6l-1.13,3.6H157.87z"/>
		<path d="M169.05,456.95c-0.26-0.27-0.39-0.69-0.39-1.25v-16.44c0-0.56,0.13-0.97,0.39-1.23c0.26-0.26,0.72-0.39,1.38-0.39h2.75
			c0.41,0,0.72,0.05,0.94,0.16c0.22,0.11,0.44,0.31,0.65,0.62l5.25,7.8v-6.93c0-0.56,0.13-0.98,0.39-1.25
			c0.26-0.27,0.71-0.41,1.35-0.41h3.45c0.66,0,1.12,0.13,1.38,0.39c0.26,0.26,0.39,0.68,0.39,1.26v16.44c0,0.56-0.13,0.97-0.39,1.23
			c-0.26,0.26-0.72,0.39-1.38,0.39h-2.76c-0.41,0-0.72-0.05-0.94-0.16c-0.22-0.11-0.44-0.31-0.65-0.62l-5.25-7.8v6.96
			c0,0.56-0.13,0.97-0.39,1.23c-0.26,0.26-0.72,0.39-1.38,0.39h-3.45C169.76,457.35,169.31,457.22,169.05,456.95z"/>
		<path d="M191.36,455.19c-1.95-1.73-2.93-4.3-2.93-7.7c0-3.42,0.94-5.99,2.83-7.71c1.88-1.72,4.58-2.58,8.08-2.58
			c1.58,0,3,0.16,4.23,0.46c1.24,0.31,2.27,0.75,3.1,1.31c0.23,0.17,0.35,0.37,0.35,0.58c0,0.17-0.09,0.42-0.26,0.72l-1.45,2.49
			c-0.16,0.27-0.34,0.41-0.55,0.41c-0.14,0-0.36-0.08-0.67-0.23c-0.54-0.27-1.11-0.48-1.7-0.64s-1.28-0.23-2.07-0.23
			c-1.61,0-2.83,0.46-3.68,1.39c-0.85,0.93-1.28,2.27-1.28,4.03c0,1.74,0.46,3.08,1.39,4.02c0.93,0.94,2.2,1.41,3.8,1.41
			c1.39,0,2.67-0.29,3.83-0.87c0.31-0.16,0.53-0.23,0.67-0.23c0.21,0,0.4,0.14,0.55,0.41l1.45,2.49c0.17,0.31,0.26,0.55,0.26,0.72
			c0,0.21-0.12,0.41-0.35,0.58c-0.83,0.56-1.88,1-3.13,1.3c-1.26,0.31-2.68,0.46-4.26,0.46
			C196.05,457.79,193.31,456.92,191.36,455.19z"/>
		<path d="M209.15,456.95c-0.26-0.27-0.39-0.69-0.39-1.25v-16.41c0-0.56,0.13-0.98,0.39-1.25c0.26-0.27,0.71-0.41,1.35-0.41h12.01
			c0.62,0,1.04,0.13,1.26,0.39c0.22,0.26,0.33,0.68,0.33,1.26v1.62c0,0.58-0.11,1-0.33,1.26s-0.64,0.39-1.26,0.39h-6.79v2.49h4.18
			c0.62,0,1.04,0.13,1.26,0.39s0.33,0.68,0.33,1.26v1.57c0,0.58-0.11,1-0.33,1.26s-0.64,0.39-1.26,0.39h-4.18v2.49h6.76
			c0.62,0,1.04,0.13,1.26,0.39c0.22,0.26,0.33,0.68,0.33,1.26v1.62c0,0.58-0.11,1-0.33,1.26c-0.22,0.26-0.64,0.39-1.26,0.39H210.5
			C209.87,457.35,209.42,457.22,209.15,456.95z"/>
		<path d="M234.5,456.95c-0.26-0.27-0.39-0.69-0.39-1.25v-16.41c0-0.56,0.13-0.98,0.39-1.25c0.26-0.27,0.71-0.41,1.35-0.41h6.67
			c6.82,0,10.24,3.29,10.24,9.86c0,3.25-0.88,5.7-2.62,7.37c-1.75,1.66-4.29,2.49-7.61,2.49h-6.67
			C235.21,457.35,234.76,457.22,234.5,456.95z M242.78,452.42c1.08,0,1.86-0.36,2.33-1.07c0.47-0.71,0.71-2,0.71-3.86
			c0-1.86-0.24-3.14-0.71-3.86c-0.47-0.71-1.25-1.07-2.33-1.07h-1.71v9.86H242.78z"/>
		<path d="M254.6,456.95c-0.26-0.27-0.39-0.69-0.39-1.25v-16.41c0-0.56,0.13-0.98,0.39-1.25c0.26-0.27,0.71-0.41,1.35-0.41h12.01
			c0.62,0,1.04,0.13,1.26,0.39c0.22,0.26,0.33,0.68,0.33,1.26v1.62c0,0.58-0.11,1-0.33,1.26c-0.22,0.26-0.64,0.39-1.26,0.39h-6.79
			v2.49h4.18c0.62,0,1.04,0.13,1.26,0.39s0.33,0.68,0.33,1.26v1.57c0,0.58-0.11,1-0.33,1.26s-0.64,0.39-1.26,0.39h-4.18v2.49h6.76
			c0.62,0,1.04,0.13,1.26,0.39c0.22,0.26,0.33,0.68,0.33,1.26v1.62c0,0.58-0.11,1-0.33,1.26c-0.22,0.26-0.64,0.39-1.26,0.39h-11.98
			C255.31,457.35,254.86,457.22,254.6,456.95z"/>
		<path d="M274.53,457.24c-1.51-0.37-2.73-0.88-3.65-1.54c-0.39-0.27-0.58-0.53-0.58-0.78c0-0.17,0.07-0.36,0.2-0.55l1.68-2.64
			c0.17-0.25,0.35-0.38,0.52-0.38c0.15,0,0.34,0.07,0.55,0.2c0.7,0.42,1.49,0.76,2.39,1c0.9,0.24,1.77,0.36,2.62,0.36
			c0.71,0,1.23-0.1,1.55-0.29c0.32-0.19,0.48-0.49,0.48-0.9c0-0.44-0.21-0.8-0.64-1.07c-0.43-0.27-1.16-0.61-2.2-1.01
			c-1.95-0.75-3.49-1.61-4.61-2.57s-1.68-2.23-1.68-3.81c0-2.01,0.7-3.52,2.1-4.54c1.4-1.01,3.29-1.52,5.67-1.52
			c1.66,0,3.08,0.15,4.25,0.44s2.19,0.74,3.06,1.36c0.39,0.27,0.58,0.53,0.58,0.78c0,0.17-0.07,0.36-0.2,0.55l-1.68,2.64
			c-0.17,0.27-0.35,0.41-0.52,0.41c-0.12,0-0.3-0.08-0.55-0.23c-0.46-0.31-1.01-0.57-1.65-0.77c-0.64-0.2-1.32-0.3-2.06-0.3
			c-0.68,0-1.19,0.1-1.54,0.29c-0.35,0.19-0.52,0.5-0.52,0.93c0,0.35,0.12,0.64,0.36,0.87c0.24,0.23,0.55,0.43,0.91,0.59
			c0.37,0.17,1,0.43,1.91,0.8c1.45,0.58,2.59,1.14,3.42,1.67c0.83,0.53,1.46,1.17,1.88,1.91c0.42,0.75,0.64,1.69,0.64,2.83
			c0,1.74-0.65,3.15-1.96,4.22c-1.3,1.07-3.25,1.61-5.84,1.61C277.67,457.79,276.04,457.6,274.53,457.24z"/>
		<path d="M289.08,456.95c-0.26-0.27-0.39-0.69-0.39-1.25v-16.41c0-0.56,0.13-0.98,0.39-1.25c0.26-0.27,0.71-0.41,1.35-0.41h6.67
			c6.83,0,10.24,3.29,10.24,9.86c0,3.25-0.88,5.7-2.63,7.37c-1.75,1.66-4.29,2.49-7.61,2.49h-6.67
			C289.79,457.35,289.34,457.22,289.08,456.95z M297.36,452.42c1.08,0,1.86-0.36,2.33-1.07c0.47-0.71,0.71-2,0.71-3.86
			c0-1.86-0.24-3.14-0.71-3.86s-1.25-1.07-2.33-1.07h-1.71v9.86H297.36z"/>
		<path d="M309.17,456.95c-0.26-0.27-0.39-0.69-0.39-1.25v-16.41c0-0.56,0.13-0.98,0.39-1.25c0.26-0.27,0.71-0.41,1.35-0.41h12.01
			c0.62,0,1.04,0.13,1.26,0.39c0.22,0.26,0.33,0.68,0.33,1.26v1.62c0,0.58-0.11,1-0.33,1.26s-0.64,0.39-1.26,0.39h-6.79v2.49h4.18
			c0.62,0,1.04,0.13,1.26,0.39c0.22,0.26,0.33,0.68,0.33,1.26v1.57c0,0.58-0.11,1-0.33,1.26c-0.22,0.26-0.64,0.39-1.26,0.39h-4.18
			v2.49h6.76c0.62,0,1.04,0.13,1.26,0.39c0.22,0.26,0.33,0.68,0.33,1.26v1.62c0,0.58-0.11,1-0.33,1.26s-0.64,0.39-1.26,0.39h-11.98
			C309.88,457.35,309.43,457.22,309.17,456.95z"/>
		<path d="M61.33,489.99c-1.95-1.73-2.93-4.3-2.93-7.7c0-3.42,0.94-5.99,2.83-7.71c1.88-1.72,4.58-2.58,8.08-2.58
			c1.58,0,3,0.16,4.23,0.46c1.24,0.31,2.27,0.75,3.1,1.31c0.23,0.17,0.35,0.37,0.35,0.58c0,0.17-0.09,0.42-0.26,0.72l-1.45,2.49
			c-0.15,0.27-0.34,0.41-0.55,0.41c-0.13,0-0.36-0.08-0.67-0.23c-0.54-0.27-1.11-0.48-1.7-0.64s-1.28-0.23-2.07-0.23
			c-1.6,0-2.83,0.46-3.68,1.39c-0.85,0.93-1.28,2.27-1.28,4.03c0,1.74,0.46,3.08,1.39,4.02c0.93,0.94,2.19,1.41,3.8,1.41
			c1.39,0,2.67-0.29,3.83-0.87c0.31-0.16,0.53-0.23,0.67-0.23c0.21,0,0.4,0.14,0.55,0.41l1.45,2.49c0.17,0.31,0.26,0.55,0.26,0.72
			c0,0.21-0.12,0.41-0.35,0.58c-0.83,0.56-1.88,1-3.13,1.3c-1.26,0.31-2.68,0.46-4.26,0.46C66.02,492.59,63.28,491.72,61.33,489.99z
			"/>
		<path d="M83.11,491.67c-1.43-0.61-2.54-1.49-3.33-2.64c-0.79-1.15-1.19-2.52-1.19-4.1v-10.85c0-0.56,0.13-0.98,0.39-1.25
			c0.26-0.27,0.71-0.41,1.35-0.41h3.45c0.66,0,1.12,0.13,1.38,0.39c0.26,0.26,0.39,0.68,0.39,1.26v10.93c0,0.91,0.23,1.58,0.68,2.03
			c0.45,0.44,1.08,0.67,1.87,0.67s1.42-0.22,1.87-0.67c0.45-0.45,0.68-1.12,0.68-2.03v-10.93c0-0.56,0.13-0.98,0.39-1.25
			c0.26-0.27,0.71-0.41,1.35-0.41h3.45c0.66,0,1.12,0.13,1.38,0.39c0.26,0.26,0.39,0.68,0.39,1.26v10.85c0,1.58-0.4,2.95-1.19,4.1
			c-0.79,1.15-1.91,2.03-3.33,2.64c-1.43,0.61-3.09,0.91-4.99,0.91S84.54,492.28,83.11,491.67z"/>
		<path d="M97.03,491.54c0-0.17,0.05-0.39,0.15-0.64l7.22-17.37c0.17-0.41,0.37-0.69,0.59-0.86c0.22-0.16,0.54-0.25,0.94-0.25h3.16
			c0.41,0,0.72,0.08,0.94,0.25c0.22,0.17,0.42,0.45,0.59,0.86l7.19,17.37c0.1,0.25,0.15,0.46,0.15,0.64c0,0.41-0.21,0.61-0.64,0.61
			h-5.45c-0.6,0-0.98-0.26-1.13-0.78l-0.7-2.15h-5.13l-0.67,2.15c-0.15,0.52-0.53,0.78-1.13,0.78h-5.45
			C97.24,492.15,97.03,491.95,97.03,491.54z M108.63,484.64l-1.13-3.6l-1.13,3.6H108.63z"/>
		<path d="M119.81,491.75c-0.26-0.27-0.39-0.69-0.39-1.25v-16.41c0-0.56,0.13-0.98,0.39-1.25c0.26-0.27,0.71-0.41,1.35-0.41h3.45
			c0.66,0,1.12,0.13,1.38,0.39c0.26,0.26,0.39,0.68,0.39,1.26v13.14h6.76c0.62,0,1.04,0.13,1.26,0.39c0.22,0.26,0.33,0.68,0.33,1.26
			v1.62c0,0.58-0.11,1-0.33,1.26c-0.22,0.26-0.64,0.39-1.26,0.39h-11.98C120.52,492.15,120.07,492.02,119.81,491.75z"/>
		<path d="M145.09,496c-1.23-0.94-1.99-2.15-2.28-3.64c-2.57-0.42-4.51-1.5-5.83-3.23c-1.32-1.73-1.97-4.01-1.97-6.83
			c0-3.29,0.89-5.82,2.67-7.61c1.78-1.79,4.39-2.68,7.83-2.68s6.05,0.89,7.83,2.68c1.78,1.79,2.67,4.33,2.67,7.61
			c0,2.88-0.7,5.16-2.1,6.84c-1.4,1.68-3.5,2.73-6.28,3.13c0.15,0.31,0.44,0.54,0.84,0.7c0.41,0.16,0.83,0.23,1.28,0.23
			c0.89,0,1.63-0.2,2.23-0.61c0.17-0.12,0.31-0.17,0.41-0.17c0.15,0,0.27,0.09,0.35,0.26l1.57,2.46c0.1,0.15,0.15,0.27,0.15,0.35
			s-0.03,0.15-0.1,0.23c-0.07,0.08-0.15,0.16-0.25,0.26c-0.56,0.46-1.18,0.82-1.87,1.06c-0.69,0.24-1.51,0.36-2.48,0.36
			C147.87,497.4,146.32,496.93,145.09,496z M148.24,486.37c0.56-0.9,0.84-2.26,0.84-4.08c0-1.84-0.28-3.2-0.84-4.09
			c-0.56-0.89-1.47-1.33-2.73-1.33c-1.26,0-2.17,0.45-2.73,1.33c-0.56,0.89-0.84,2.25-0.84,4.09c0,1.82,0.28,3.18,0.84,4.08
			c0.56,0.9,1.47,1.35,2.73,1.35C146.77,487.72,147.68,487.27,148.24,486.37z"/>
		<path d="M161.84,491.67c-1.43-0.61-2.54-1.49-3.33-2.64s-1.19-2.52-1.19-4.1v-10.85c0-0.56,0.13-0.98,0.39-1.25
			c0.26-0.27,0.71-0.41,1.35-0.41h3.45c0.66,0,1.12,0.13,1.38,0.39c0.26,0.26,0.39,0.68,0.39,1.26v10.93c0,0.91,0.23,1.58,0.68,2.03
			c0.45,0.44,1.08,0.67,1.87,0.67s1.42-0.22,1.87-0.67c0.45-0.45,0.68-1.12,0.68-2.03v-10.93c0-0.56,0.13-0.98,0.39-1.25
			c0.26-0.27,0.71-0.41,1.35-0.41h3.45c0.66,0,1.12,0.13,1.38,0.39c0.26,0.26,0.39,0.68,0.39,1.26v10.85c0,1.58-0.4,2.95-1.19,4.1
			c-0.79,1.15-1.91,2.03-3.34,2.64s-3.09,0.91-4.99,0.91S163.27,492.28,161.84,491.67z"/>
		<path d="M178.62,491.75c-0.26-0.27-0.39-0.69-0.39-1.25v-16.41c0-0.56,0.13-0.98,0.39-1.25c0.26-0.27,0.71-0.41,1.35-0.41h3.45
			c0.66,0,1.12,0.13,1.38,0.39c0.26,0.26,0.39,0.68,0.39,1.26v16.41c0,0.56-0.13,0.98-0.39,1.25c-0.26,0.27-0.72,0.41-1.38,0.41
			h-3.45C179.33,492.15,178.88,492.02,178.62,491.75z"/>
		<path d="M187.61,491.75c-0.26-0.27-0.39-0.69-0.39-1.25v-16.41c0-0.56,0.13-0.98,0.39-1.25c0.26-0.27,0.71-0.41,1.35-0.41h12.01
			c0.62,0,1.04,0.13,1.26,0.39c0.22,0.26,0.33,0.68,0.33,1.26v1.62c0,0.58-0.11,1-0.33,1.26s-0.64,0.39-1.26,0.39h-6.79v2.49h4.18
			c0.62,0,1.04,0.13,1.26,0.39c0.22,0.26,0.33,0.68,0.33,1.26v1.57c0,0.58-0.11,1-0.33,1.26c-0.22,0.26-0.64,0.39-1.26,0.39h-4.18
			v2.49h6.76c0.62,0,1.04,0.13,1.26,0.39c0.22,0.26,0.33,0.68,0.33,1.26v1.62c0,0.58-0.11,1-0.33,1.26s-0.64,0.39-1.26,0.39h-11.98
			C188.32,492.15,187.87,492.02,187.61,491.75z"/>
		<path d="M204.25,491.75c-0.26-0.27-0.39-0.69-0.39-1.25v-16.41c0-0.56,0.13-0.98,0.39-1.25c0.26-0.27,0.71-0.41,1.35-0.41h6.93
			c2.9,0,5.01,0.58,6.34,1.73s1.99,2.88,1.99,5.21c0,1.39-0.24,2.57-0.71,3.52s-1.2,1.71-2.19,2.25l2.7,5.77
			c0.08,0.16,0.12,0.33,0.12,0.52c0,0.21-0.07,0.39-0.22,0.52c-0.14,0.14-0.33,0.2-0.57,0.2h-4.9c-0.31,0-0.56-0.04-0.74-0.13
			c-0.18-0.09-0.31-0.24-0.39-0.45l-2.15-5.39h-0.99v4.32c0,0.56-0.13,0.98-0.39,1.25c-0.26,0.27-0.72,0.41-1.38,0.41h-3.45
			C204.96,492.15,204.51,492.02,204.25,491.75z M211.92,481.33c0.62,0,1.11-0.16,1.46-0.49c0.36-0.33,0.54-0.82,0.54-1.48
			c0-0.68-0.18-1.18-0.54-1.51c-0.36-0.33-0.85-0.49-1.46-0.49h-1.97v3.97H211.92z"/>
		<path d="M231.4,491.75c-0.26-0.27-0.39-0.69-0.39-1.25v-16.41c0-0.56,0.13-0.98,0.39-1.25c0.26-0.27,0.71-0.41,1.35-0.41h3.45
			c0.66,0,1.12,0.13,1.38,0.39c0.26,0.26,0.39,0.68,0.39,1.26v13.14h6.76c0.62,0,1.04,0.13,1.26,0.39c0.22,0.26,0.33,0.68,0.33,1.26
			v1.62c0,0.58-0.11,1-0.33,1.26s-0.64,0.39-1.26,0.39h-11.98C232.11,492.15,231.66,492.02,231.4,491.75z"/>
		<path d="M250.55,491.67c-1.43-0.61-2.54-1.49-3.33-2.64c-0.79-1.15-1.19-2.52-1.19-4.1v-10.85c0-0.56,0.13-0.98,0.39-1.25
			c0.26-0.27,0.71-0.41,1.35-0.41h3.45c0.66,0,1.12,0.13,1.38,0.39c0.26,0.26,0.39,0.68,0.39,1.26v10.93c0,0.91,0.23,1.58,0.68,2.03
			c0.45,0.44,1.08,0.67,1.87,0.67c0.79,0,1.42-0.22,1.87-0.67c0.45-0.45,0.68-1.12,0.68-2.03v-10.93c0-0.56,0.13-0.98,0.39-1.25
			c0.26-0.27,0.71-0.41,1.35-0.41h3.45c0.66,0,1.12,0.13,1.38,0.39c0.26,0.26,0.39,0.68,0.39,1.26v10.85c0,1.58-0.4,2.95-1.19,4.1
			s-1.9,2.03-3.33,2.64c-1.43,0.61-3.09,0.91-4.99,0.91C253.64,492.59,251.98,492.28,250.55,491.67z"/>
		<path d="M269.28,489.99c-1.95-1.73-2.93-4.3-2.93-7.7c0-3.38,0.98-5.94,2.93-7.68s4.68-2.61,8.18-2.61c1.58,0,3.01,0.16,4.26,0.46
			c1.26,0.31,2.3,0.75,3.13,1.31c0.23,0.17,0.35,0.37,0.35,0.58c0,0.17-0.09,0.42-0.26,0.72l-1.45,2.49
			c-0.15,0.27-0.34,0.41-0.55,0.41c-0.13,0-0.36-0.08-0.67-0.23c-1.16-0.58-2.44-0.87-3.83-0.87c-1.6,0-2.87,0.46-3.78,1.38
			s-1.38,2.27-1.38,4.04c0,1.84,0.39,3.2,1.16,4.08c0.77,0.88,1.92,1.32,3.45,1.32c0.27,0,0.58-0.02,0.91-0.07
			c0.34-0.05,0.61-0.1,0.83-0.16v-2.64h-1.86c-0.62,0-1.04-0.12-1.26-0.36c-0.22-0.24-0.33-0.65-0.33-1.23v-1.6
			c0-0.58,0.11-0.99,0.33-1.23c0.22-0.24,0.64-0.36,1.26-0.36h6.24c0.75,0,1.28,0.17,1.57,0.51c0.29,0.34,0.44,0.88,0.44,1.61v6.79
			c0,0.42-0.05,0.75-0.16,0.97c-0.11,0.22-0.31,0.45-0.62,0.68c-1.86,1.33-4.44,2-7.74,2C273.97,492.59,271.24,491.72,269.28,489.99
			z"/>
		<path d="M286.89,491.54c0-0.17,0.05-0.39,0.15-0.64l7.22-17.37c0.17-0.41,0.37-0.69,0.59-0.86c0.22-0.16,0.54-0.25,0.94-0.25h3.16
			c0.41,0,0.72,0.08,0.94,0.25c0.22,0.17,0.42,0.45,0.59,0.86l7.19,17.37c0.1,0.25,0.15,0.46,0.15,0.64c0,0.41-0.21,0.61-0.64,0.61
			h-5.45c-0.6,0-0.98-0.26-1.13-0.78l-0.7-2.15h-5.13l-0.67,2.15c-0.15,0.52-0.53,0.78-1.13,0.78h-5.45
			C287.1,492.15,286.89,491.95,286.89,491.54z M298.49,484.64l-1.13-3.6l-1.13,3.6H298.49z"/>
		<path d="M309.67,491.75c-0.26-0.27-0.39-0.69-0.39-1.25v-16.41c0-0.56,0.13-0.98,0.39-1.25c0.26-0.27,0.71-0.41,1.35-0.41h6.93
			c2.9,0,5.01,0.58,6.34,1.73s1.99,2.88,1.99,5.21c0,1.39-0.24,2.57-0.71,3.52s-1.2,1.71-2.19,2.25l2.7,5.77
			c0.08,0.16,0.12,0.33,0.12,0.52c0,0.21-0.07,0.39-0.22,0.52c-0.14,0.14-0.33,0.2-0.57,0.2h-4.9c-0.31,0-0.56-0.04-0.74-0.13
			c-0.18-0.09-0.31-0.24-0.39-0.45l-2.15-5.39h-0.99v4.32c0,0.56-0.13,0.98-0.39,1.25c-0.26,0.27-0.72,0.41-1.38,0.41h-3.45
			C310.38,492.15,309.93,492.02,309.67,491.75z M317.34,481.33c0.62,0,1.11-0.16,1.46-0.49c0.36-0.33,0.54-0.82,0.54-1.48
			c0-0.68-0.18-1.18-0.54-1.51c-0.36-0.33-0.85-0.49-1.46-0.49h-1.97v3.97H317.34z"/>
		<path d="M159.39,525.44v-1.71c0-1.14,0.39-2.21,1.16-3.22c0.77-1,2.13-2.18,4.06-3.54c0.68-0.46,1.09-0.74,1.25-0.84
			c0.7-0.46,1.18-0.81,1.45-1.04c0.27-0.23,0.47-0.48,0.61-0.75c0.13-0.27,0.2-0.62,0.2-1.04c0-0.48-0.18-0.87-0.54-1.17
			c-0.36-0.3-0.9-0.45-1.64-0.45c-1.24,0-2.49,0.32-3.77,0.96c-0.31,0.16-0.53,0.23-0.67,0.23c-0.21,0-0.4-0.14-0.55-0.41
			l-1.45-2.49c-0.17-0.31-0.26-0.55-0.26-0.72c0-0.21,0.12-0.41,0.35-0.58c0.83-0.56,1.9-1.01,3.22-1.35
			c1.31-0.34,2.75-0.51,4.32-0.51c2.44,0,4.36,0.51,5.79,1.52c1.42,1.02,2.13,2.45,2.13,4.31c0,1.43-0.4,2.64-1.19,3.64
			c-0.79,1-2.09,2.07-3.89,3.23c-1.91,1.24-3.06,2.07-3.45,2.49h7.08c0.62,0,1.04,0.13,1.26,0.39c0.22,0.26,0.33,0.68,0.33,1.26
			v1.65c0,0.58-0.11,1-0.33,1.26c-0.22,0.26-0.64,0.39-1.26,0.39h-12.76C159.87,526.95,159.39,526.45,159.39,525.44z"/>
		<path d="M183.89,526.62c-0.25-0.22-0.38-0.61-0.38-1.17v-2.26h-6.99c-0.7,0-1.04-0.34-1.04-1.02v-2.67c0-0.44,0.04-0.77,0.12-0.99
			c0.08-0.21,0.26-0.49,0.55-0.84l7.89-9.51c0.33-0.39,0.6-0.64,0.81-0.75s0.58-0.17,1.1-0.17h2.78c0.64,0,1.09,0.13,1.35,0.41
			c0.26,0.27,0.39,0.69,0.39,1.25v9.37h1.1c0.62,0,1.04,0.13,1.26,0.39s0.33,0.68,0.33,1.26v1.62c0,0.58-0.11,1-0.33,1.26
			c-0.22,0.26-0.64,0.39-1.26,0.39h-1.1v2.26c0,0.56-0.13,0.95-0.39,1.17c-0.26,0.22-0.72,0.33-1.38,0.33h-3.45
			C184.6,526.95,184.15,526.84,183.89,526.62z M185.05,518.25v-3.8l-2.78,3.8H185.05z"/>
		<path d="M193.46,526.34c0-0.17,0.05-0.39,0.15-0.64l7.25-17.69c0.12-0.25,0.26-0.45,0.43-0.58c0.17-0.14,0.41-0.2,0.7-0.2h5.34
			c0.42,0,0.64,0.2,0.64,0.61c0,0.17-0.05,0.39-0.15,0.64l-7.25,17.69c-0.12,0.25-0.26,0.45-0.43,0.58c-0.17,0.14-0.41,0.2-0.7,0.2
			h-5.34C193.68,526.95,193.46,526.75,193.46,526.34z"/>
		<path d="M210.46,526.34c0-0.19,0.06-0.41,0.17-0.64l6.7-13.54h-7.19c-0.62,0-1.04-0.13-1.26-0.39s-0.33-0.68-0.33-1.26v-1.62
			c0-0.58,0.11-1,0.33-1.26c0.22-0.26,0.64-0.39,1.26-0.39h13.46c0.83,0,1.39,0.12,1.68,0.36c0.29,0.24,0.43,0.69,0.43,1.35
			c0,0.73-0.13,1.33-0.38,1.8l-7.63,15.43c-0.14,0.27-0.29,0.47-0.45,0.59s-0.39,0.19-0.68,0.19h-5.45
			C210.68,526.95,210.46,526.75,210.46,526.34z"/>
	</g>
	<polygon class="st6" points="191.26,81.93 204.73,109.22 234.84,113.59 213.05,134.83 218.2,164.83 191.26,150.67 164.33,164.83 
		169.47,134.83 147.68,113.59 177.79,109.22 	"/>
	<polygon class="st6" points="129.08,165.15 137.82,182.86 157.36,185.7 143.22,199.48 146.56,218.94 129.08,209.75 111.61,218.94 
		114.95,199.48 100.81,185.7 120.35,182.86 	"/>
	<polygon class="st6" points="259.18,165.15 267.92,182.86 287.45,185.7 273.32,199.48 276.65,218.94 259.18,209.75 241.7,218.94 
		245.04,199.48 230.9,185.7 250.44,182.86 	"/>
	<circle class="st7" cx="192.27" cy="198.97" r="121.96"/>
	<circle class="st1" cx="191.32" cy="185.58" r="121.96"/>
	<g>
		<path class="st1" d="M171.93,628.16c-0.56-0.66-0.84-1.72-0.84-3.18v-4.09c0-1.46,0.28-2.52,0.84-3.18
			c0.56-0.66,1.62-0.99,3.18-0.99h4.6v-19.05l-2.99,1.9c-0.24,0.2-0.54,0.29-0.88,0.29c-0.44,0-0.8-0.22-1.1-0.66l-5.55-8.47
			c-0.19-0.24-0.29-0.51-0.29-0.8c0-0.49,0.27-0.88,0.8-1.17l13.8-8.32c0.58-0.34,1.14-0.58,1.68-0.73
			c0.54-0.15,1.31-0.22,2.34-0.22h5.33c1.61,0,2.74,0.34,3.39,1.02c0.66,0.68,0.99,1.73,0.99,3.14v33.07h4.67
			c1.56,0,2.62,0.33,3.18,0.99c0.56,0.66,0.84,1.72,0.84,3.18v4.09c0,1.46-0.28,2.52-0.84,3.18c-0.56,0.66-1.62,0.99-3.18,0.99
			h-26.79C173.55,629.14,172.49,628.81,171.93,628.16z"/>
	</g>
	<g>
		<g>
			<path class="st73" d="M145.97,165.76c0,5.12-5.19,7.64-10.08,11.14h10.35v5.81h-19.6v-1.65c0-2.58,1.38-4.4,3.3-6.12
				c5.37-4.78,9.22-6.71,9.22-8.94c0-1.31-0.86-2.51-2.96-2.51c-2.13,0-3.34,1.38-3.34,3.23v0.69h-6.12
				c-0.03-0.28-0.03-0.52-0.03-0.76c0-4.85,3.37-8.02,10.15-8.02C142.47,158.64,145.97,161.46,145.97,165.76z"/>
			<path class="st73" d="M162.03,158.64c-0.52,3.75-5.37,10.83-8.63,14.17h6.81v-4.92c1.17-1.68,3.13-5.02,3.61-6.98h2.92v11.9h3.3
				v5.06h-3.3v4.85h-6.54v-4.85h-11.52v-5.12c2.24-3.27,5.06-8.7,6.6-14.1H162.03z"/>
		</g>
		<g>
			<path class="st34" d="M255.41,242.19l-3.88-22.48c-1.41-8.15-6.8-15.07-14.37-18.41l-14.54-6.18h-33.1l-14.54,6.18
				c-7.57,3.35-12.96,10.26-14.37,18.41l-3.88,22.48c-0.67,3.87,2.31,7.41,6.24,7.41h86.19
				C253.09,249.6,256.07,246.06,255.41,242.19z"/>
			
				<ellipse transform="matrix(0.7071 -0.7071 0.7071 0.7071 -64.3533 197.3673)" class="st67" cx="206.07" cy="176.36" rx="25.01" ry="25.01"/>
			<g>
				<path class="st34" d="M183.94,167.45c-0.16-5.05,0.48-11.28,3.67-16.19c3.61-5.55,9.83-8.39,18.45-8.39
					c8.62,0,14.84,2.84,18.45,8.39c3.19,4.91,3.84,11.14,3.67,16.19h2.89c0.2-5.59-0.53-12.56-4.19-18.23
					c-4.17-6.46-11.19-9.78-20.82-9.78c-9.63,0-16.65,3.32-20.82,9.78c-3.66,5.67-4.39,12.65-4.19,18.23H183.94z"/>
				<g>
					<path class="st34" d="M181.87,163.93c-0.62-0.3-1.29-0.47-1.99-0.47c-3.39,0-6.13,3.8-6.13,8.49c0,4.69,2.74,8.48,6.13,8.48
						c0.7,0,1.37-0.17,1.99-0.47V163.93z"/>
					<path class="st34" d="M184.09,161.76c-0.51-0.28-1.09-0.45-1.71-0.45h-0.07c-2,0-3.63,1.62-3.63,3.62v14.72
						c0,2,1.62,3.63,3.63,3.63h0.07c0.62,0,1.2-0.17,1.71-0.45V161.76z"/>
				</g>
				<path class="st34" d="M231.08,179.97l-1.62,0c0,0.61-0.24,14.14-16.92,15.54c-0.32-0.47-0.83-0.8-1.44-0.8h-6.36
					c-0.97,0-1.76,0.79-1.76,1.76v0.03c0,0.97,0.79,1.76,1.76,1.76h6.36c0.75,0,1.38-0.48,1.63-1.14
					C230.82,195.55,231.08,180.14,231.08,179.97z"/>
				<g>
					<path class="st34" d="M230.27,163.93c0.62-0.3,1.29-0.47,1.99-0.47c3.39,0,6.13,3.8,6.13,8.49c0,4.69-2.74,8.48-6.13,8.48
						c-0.7,0-1.37-0.17-1.99-0.47V163.93z"/>
					<path class="st34" d="M228.04,161.76c0.51-0.28,1.09-0.45,1.71-0.45h0.07c2,0,3.62,1.62,3.62,3.62v14.72
						c0,2-1.62,3.63-3.62,3.63h-0.07c-0.62,0-1.2-0.17-1.71-0.45V161.76z"/>
				</g>
			</g>
		</g>
		<path class="st35" d="M199.23,127.55l-14.25-14.82l-1.61,9.95c-4.89-1.36-10.03-2.13-15.35-2.13c-31.79,0-57.65,25.86-57.65,57.65
			c0,24.75,15.68,45.9,37.63,54.06l3.69-11.76c-19.6-7.58-32.62-20.45-32.62-42.69c0-28.87,20.08-51.97,48.95-51.97
			c5.03,0,9.9,0.73,14.5,2.08l-1.49,9.2L199.23,127.55z"/>
	</g>
</g>
</svg>
