<?xml version="1.0" encoding="utf-8"?>
<!-- Generator: Adobe Illustrator 23.0.0, SVG Export Plug-In . SVG Version: 6.00 Build 0)  -->
<svg version="1.1" id="Capa_1" xmlns="http://www.w3.org/2000/svg" xmlns:xlink="http://www.w3.org/1999/xlink" x="0px" y="0px"
	 viewBox="0 0 382.63 672" style="enable-background:new 0 0 382.63 672;" xml:space="preserve">
<style type="text/css">
	.st0{fill:#E2E2E2;}
	.st1{fill:#FFFFFF;}
	.st2{fill:#CCCDCE;}
	.st3{fill:#F2F2F2;}
	.st4{fill:none;}
	.st5{fill:#0085B0;}
	.st6{fill:#E0EF18;}
	.st7{fill:#CECECE;}
	.st8{fill:#22272F;}
	.st9{fill:#1B2538;}
	.st10{fill:#253452;}
	.st11{fill:#F9F9F9;}
	.st12{fill:#2D3543;}
	.st13{fill:#2A3D60;}
	.st14{fill:#6C92D5;}
	.st15{fill:#587955;}
	.st16{fill:#CD7054;}
	.st17{fill:#F1CC4B;}
	.st18{fill:#DFDFDF;}
	.st19{fill:#ACACAC;}
	.st20{fill:#00D13C;}
	.st21{fill:#866A5E;}
	.st22{fill:#F7DDCB;}
	.st23{fill:#FFE6D4;}
	.st24{fill:#2D2D2D;}
	.st25{fill:#1C1B1A;}
	.st26{fill:#F5F5F5;}
	.st27{fill:#77181C;}
	.st28{fill:#EAEAEA;}
	.st29{fill:#262525;}
	.st30{fill:#11100F;}
	.st31{fill:#FFFFFF;stroke:#000000;stroke-width:6;stroke-miterlimit:10;}
	.st32{fill:#D4D4D4;}
	.st33{fill:#C2C2C2;}
	.st34{fill:#505050;}
	.st35{fill:#53C2C9;}
	.st36{fill:#008B9C;}
	.st37{fill:none;stroke:#00550B;stroke-width:4;stroke-miterlimit:10;}
	.st38{fill:#CE2458;}
	.st39{fill:#155500;}
	.st40{fill:#1549FF;}
	.st41{fill:#606060;stroke:#C6C8CC;stroke-width:6;stroke-miterlimit:10;}
	.st42{fill:#727272;}
	.st43{fill:#207235;}
	.st44{fill:#A3A3A3;}
	.st45{fill:#BCBCBC;}
	.st46{fill:#2A5936;}
	.st47{opacity:0.7;fill:#7F7F7F;}
	.st48{fill:#DAA449;}
	.st49{fill:#85B681;}
	.st50{fill:#A1DC9B;}
	.st51{fill:#90C58B;}
	.st52{fill:#DD9225;}
	.st53{opacity:0.3;}
	.st54{fill:#81C378;}
	.st55{opacity:0.5;}
	.st56{fill:#A2CADE;}
	.st57{fill:#9BAEC9;}
	.st58{fill:#9D2B3B;}
	.st59{fill:#C1D4F2;}
	.st60{fill:#534D46;}
	.st61{fill:#191819;}
	.st62{fill:#222123;}
	.st63{fill:#F3FF00;}
	.st64{fill-rule:evenodd;clip-rule:evenodd;fill:#FFFFFF;}
	.st65{fill-rule:evenodd;clip-rule:evenodd;fill:#1996B8;}
	.st66{fill:none;stroke:#5A605A;stroke-width:4;stroke-miterlimit:10;}
	.st67{fill:#FFB412;}
	.st68{fill:#BACDD1;}
	.st69{fill:#1C4D59;}
	.st70{fill:#A14329;}
	.st71{fill:#FCC083;}
	.st72{fill:#E8AA63;}
	.st73{fill:#D40000;}
	.st74{opacity:0.35;fill:#7D7D7D;}
	.st75{fill:#E5E3E3;}
	.st76{fill:#121F5E;}
	.st77{fill:#A3ADAF;}
	.st78{fill:#C2C6C6;}
	.st79{fill:#E5E5E5;stroke:#FFFFFF;stroke-miterlimit:10;}
	.st80{fill:#ACB4B5;}
	.st81{fill:#7F8384;}
	.st82{fill:#282828;}
	.st83{fill:none;stroke:#46A508;stroke-width:6;stroke-miterlimit:10;}
	.st84{fill:none;stroke:#46A508;stroke-width:6;stroke-miterlimit:10;stroke-dasharray:11.7425,11.7425;}
	.st85{fill:#C89D76;}
	.st86{opacity:0.4;}
	.st87{fill:#ADADAD;}
	.st88{fill:#76A172;}
	.st89{fill:#62835F;}
	.st90{fill:#96D090;}
	.st91{fill:#EDC3A6;}
	.st92{opacity:0.69;}
	.st93{fill:#E5D3D6;}
	.st94{opacity:0.44;}
	.st95{fill:#A5A5A5;}
	.st96{fill:#DDE5E4;}
	.st97{fill:#FDFDFD;}
	.st98{fill:#E0C348;}
	.st99{fill:#606060;}
</style>
<g>
	<g>
		<path class="st5" d="M0,194.36c0,22,13.29,27.86,29.54,13.03c0,0,156.99-143.3,353.09,26.97V40c0-22-18-40-40-40H40
			C18,0,0,18,0,40V194.36z"/>
	</g>
	<g>
		<path class="st5" d="M382.16,632c0,22-18,40-40,40H40.48c-22,0-40-18-40-40v-46.27c0-22,18-40,40-40h301.68c22,0,40,18,40,40V632z
			"/>
	</g>
	<g>
		<path d="M100.04,356.62c-0.22-0.22-0.32-0.57-0.32-1.03V342c0-0.46,0.11-0.81,0.32-1.03c0.22-0.22,0.59-0.34,1.12-0.34h5.74
			c2.4,0,4.15,0.48,5.24,1.43c1.1,0.95,1.64,2.39,1.64,4.31s-0.55,3.35-1.64,4.3c-1.1,0.94-2.84,1.42-5.22,1.42h-1.44v3.5
			c0,0.46-0.11,0.81-0.32,1.03c-0.22,0.22-0.6,0.34-1.14,0.34h-2.86C100.63,356.95,100.26,356.84,100.04,356.62z M106.39,348
			c0.51,0,0.92-0.14,1.21-0.41c0.3-0.27,0.44-0.68,0.44-1.22c0-0.56-0.15-0.98-0.44-1.25c-0.3-0.27-0.7-0.41-1.21-0.41h-1.63V348
			H106.39z"/>
		<path d="M114.83,356.62c-0.22-0.22-0.32-0.57-0.32-1.03V342c0-0.46,0.11-0.81,0.32-1.03c0.22-0.22,0.59-0.34,1.12-0.34h5.74
			c2.4,0,4.15,0.48,5.24,1.43s1.64,2.39,1.64,4.31c0,1.15-0.2,2.12-0.59,2.92c-0.39,0.79-1,1.41-1.81,1.86l2.23,4.78
			c0.06,0.13,0.1,0.27,0.1,0.43c0,0.18-0.06,0.32-0.18,0.43c-0.12,0.11-0.28,0.17-0.47,0.17h-4.06c-0.26,0-0.46-0.04-0.61-0.11
			c-0.15-0.07-0.26-0.2-0.32-0.37l-1.78-4.46h-0.82v3.58c0,0.46-0.11,0.81-0.32,1.03c-0.21,0.22-0.6,0.34-1.14,0.34h-2.86
			C115.41,356.95,115.04,356.84,114.83,356.62z M121.17,348c0.51,0,0.92-0.14,1.21-0.41c0.29-0.27,0.44-0.68,0.44-1.22
			c0-0.56-0.15-0.98-0.44-1.25c-0.3-0.27-0.7-0.41-1.21-0.41h-1.63V348H121.17z"/>
		<path d="M131.49,355.09c-1.47-1.48-2.21-3.58-2.21-6.3c0-2.72,0.74-4.82,2.21-6.3c1.47-1.48,3.63-2.22,6.48-2.22
			c2.85,0,5.01,0.74,6.48,2.22c1.47,1.48,2.21,3.58,2.21,6.3c0,2.72-0.74,4.82-2.21,6.3c-1.47,1.48-3.63,2.22-6.48,2.22
			C135.13,357.31,132.97,356.57,131.49,355.09z M140.23,352.16c0.46-0.74,0.7-1.87,0.7-3.37c0-1.52-0.23-2.65-0.7-3.38
			c-0.46-0.74-1.22-1.1-2.26-1.1s-1.79,0.37-2.26,1.1c-0.46,0.74-0.7,1.86-0.7,3.38c0,1.5,0.23,2.63,0.7,3.37s1.22,1.12,2.26,1.12
			S139.77,352.91,140.23,352.16z"/>
		<path d="M150.92,356.62c-0.22-0.22-0.32-0.57-0.32-1.03v-10.87h-3.46c-0.51,0-0.86-0.11-1.04-0.32c-0.18-0.22-0.28-0.56-0.28-1.04
			V342c0-0.48,0.09-0.83,0.28-1.04s0.53-0.32,1.04-0.32h12.67c0.51,0,0.86,0.11,1.04,0.32s0.28,0.56,0.28,1.04v1.34
			c0,0.48-0.09,0.83-0.28,1.04c-0.18,0.22-0.53,0.32-1.04,0.32h-3.46v10.87c0,0.46-0.11,0.81-0.32,1.03
			c-0.22,0.22-0.6,0.34-1.14,0.34h-2.86C151.51,356.95,151.14,356.84,150.92,356.62z"/>
		<path d="M162.18,356.62c-0.22-0.22-0.32-0.57-0.32-1.03V342c0-0.46,0.11-0.81,0.32-1.03c0.21-0.22,0.59-0.34,1.12-0.34h9.94
			c0.51,0,0.86,0.11,1.04,0.32c0.18,0.22,0.28,0.56,0.28,1.04v1.34c0,0.48-0.09,0.83-0.28,1.04c-0.18,0.22-0.53,0.32-1.04,0.32
			h-5.62v2.06h3.46c0.51,0,0.86,0.11,1.04,0.32c0.18,0.22,0.28,0.56,0.28,1.04v1.3c0,0.48-0.09,0.83-0.28,1.04s-0.53,0.32-1.04,0.32
			h-3.46v2.06h5.59c0.51,0,0.86,0.11,1.04,0.32s0.28,0.56,0.28,1.04v1.34c0,0.48-0.09,0.83-0.28,1.04s-0.53,0.32-1.04,0.32h-9.91
			C162.77,356.95,162.39,356.84,162.18,356.62z"/>
		<path d="M176.49,355.16c-1.62-1.43-2.42-3.56-2.42-6.37c0-2.83,0.78-4.96,2.34-6.38s3.79-2.14,6.68-2.14
			c1.31,0,2.48,0.13,3.5,0.38c1.02,0.26,1.88,0.62,2.57,1.08c0.19,0.14,0.29,0.3,0.29,0.48c0,0.14-0.07,0.34-0.22,0.6l-1.2,2.06
			c-0.13,0.22-0.28,0.34-0.46,0.34c-0.11,0-0.3-0.06-0.55-0.19c-0.45-0.22-0.92-0.4-1.4-0.53s-1.06-0.19-1.72-0.19
			c-1.33,0-2.34,0.38-3.05,1.15c-0.71,0.77-1.06,1.88-1.06,3.34c0,1.44,0.38,2.55,1.15,3.32s1.82,1.16,3.14,1.16
			c1.15,0,2.21-0.24,3.17-0.72c0.26-0.13,0.44-0.19,0.55-0.19c0.18,0,0.33,0.11,0.46,0.34l1.2,2.06c0.14,0.26,0.22,0.46,0.22,0.6
			c0,0.18-0.1,0.34-0.29,0.48c-0.69,0.46-1.55,0.82-2.59,1.08c-1.04,0.26-2.22,0.38-3.53,0.38
			C180.37,357.31,178.11,356.6,176.49,355.16z"/>
		<path d="M192.24,355.16c-1.62-1.43-2.42-3.56-2.42-6.37c0-2.83,0.78-4.96,2.34-6.38s3.79-2.14,6.68-2.14
			c1.31,0,2.48,0.13,3.5,0.38c1.02,0.26,1.88,0.62,2.57,1.08c0.19,0.14,0.29,0.3,0.29,0.48c0,0.14-0.07,0.34-0.22,0.6l-1.2,2.06
			c-0.13,0.22-0.28,0.34-0.46,0.34c-0.11,0-0.3-0.06-0.55-0.19c-0.45-0.22-0.92-0.4-1.4-0.53s-1.06-0.19-1.72-0.19
			c-1.33,0-2.34,0.38-3.05,1.15c-0.71,0.77-1.06,1.88-1.06,3.34c0,1.44,0.38,2.55,1.15,3.32s1.82,1.16,3.14,1.16
			c1.15,0,2.21-0.24,3.17-0.72c0.26-0.13,0.44-0.19,0.55-0.19c0.18,0,0.33,0.11,0.46,0.34l1.2,2.06c0.14,0.26,0.22,0.46,0.22,0.6
			c0,0.18-0.1,0.34-0.29,0.48c-0.69,0.46-1.55,0.82-2.59,1.08c-1.04,0.26-2.22,0.38-3.53,0.38
			C196.12,357.31,193.85,356.6,192.24,355.16z"/>
		<path d="M206.96,356.62c-0.21-0.22-0.32-0.57-0.32-1.03V342c0-0.46,0.11-0.81,0.32-1.03c0.22-0.22,0.59-0.34,1.12-0.34h2.86
			c0.54,0,0.92,0.11,1.14,0.32s0.32,0.56,0.32,1.04v13.58c0,0.46-0.11,0.81-0.32,1.03c-0.22,0.22-0.6,0.34-1.14,0.34h-2.86
			C207.55,356.95,207.18,356.84,206.96,356.62z"/>
		<path d="M215.8,355.09c-1.47-1.48-2.21-3.58-2.21-6.3c0-2.72,0.74-4.82,2.21-6.3c1.47-1.48,3.63-2.22,6.48-2.22
			s5.01,0.74,6.48,2.22c1.47,1.48,2.21,3.58,2.21,6.3c0,2.72-0.74,4.82-2.21,6.3c-1.47,1.48-3.63,2.22-6.48,2.22
			S217.28,356.57,215.8,355.09z M224.54,352.16c0.46-0.74,0.7-1.87,0.7-3.37c0-1.52-0.23-2.65-0.7-3.38
			c-0.46-0.74-1.22-1.1-2.26-1.1s-1.79,0.37-2.26,1.1c-0.46,0.74-0.7,1.86-0.7,3.38c0,1.5,0.23,2.63,0.7,3.37
			c0.46,0.74,1.22,1.12,2.26,1.12S224.08,352.91,224.54,352.16z M219.74,338.62c0-0.13,0.02-0.26,0.07-0.41l1.01-2.78
			c0.13-0.37,0.28-0.62,0.46-0.74c0.18-0.13,0.5-0.19,0.98-0.19h3.43c0.34,0,0.6,0.06,0.79,0.18c0.19,0.12,0.29,0.29,0.29,0.52
			c0,0.19-0.06,0.39-0.19,0.6l-1.54,2.59c-0.22,0.38-0.44,0.63-0.65,0.74c-0.21,0.11-0.58,0.17-1.13,0.17h-2.57
			C220.06,339.29,219.74,339.06,219.74,338.62z"/>
		<path d="M232.5,356.62c-0.22-0.22-0.32-0.57-0.32-1.03v-13.61c0-0.46,0.11-0.8,0.32-1.02s0.6-0.32,1.14-0.32h2.28
			c0.34,0,0.6,0.04,0.78,0.13c0.18,0.09,0.36,0.26,0.54,0.52l4.34,6.46V342c0-0.46,0.11-0.81,0.32-1.03
			c0.22-0.22,0.59-0.34,1.12-0.34h2.86c0.54,0,0.92,0.11,1.14,0.32c0.21,0.22,0.32,0.56,0.32,1.04v13.61c0,0.46-0.11,0.8-0.32,1.02
			c-0.22,0.22-0.6,0.32-1.14,0.32h-2.28c-0.34,0-0.6-0.04-0.78-0.13c-0.18-0.09-0.36-0.26-0.54-0.52l-4.34-6.46v5.76
			c0,0.46-0.11,0.8-0.32,1.02c-0.22,0.22-0.6,0.32-1.14,0.32h-2.86C233.08,356.95,232.71,356.84,232.5,356.62z"/>
		<path d="M256.54,356.62c-0.22-0.22-0.32-0.57-0.32-1.03V342c0-0.46,0.11-0.81,0.32-1.03c0.22-0.22,0.59-0.34,1.12-0.34h5.52
			c5.65,0,8.47,2.72,8.47,8.16c0,2.69-0.72,4.72-2.17,6.1c-1.45,1.38-3.55,2.06-6.3,2.06h-5.52
			C257.13,356.95,256.76,356.84,256.54,356.62z M263.4,352.87c0.9,0,1.54-0.3,1.93-0.89c0.39-0.59,0.59-1.66,0.59-3.19
			s-0.2-2.6-0.59-3.19c-0.39-0.59-1.04-0.89-1.93-0.89h-1.42v8.16H263.4z"/>
		<path d="M273.18,356.62c-0.22-0.22-0.32-0.57-0.32-1.03V342c0-0.46,0.11-0.81,0.32-1.03c0.22-0.22,0.59-0.34,1.12-0.34h9.94
			c0.51,0,0.86,0.11,1.04,0.32s0.28,0.56,0.28,1.04v1.34c0,0.48-0.09,0.83-0.28,1.04c-0.18,0.22-0.53,0.32-1.04,0.32h-5.62v2.06
			h3.46c0.51,0,0.86,0.11,1.04,0.32c0.18,0.22,0.28,0.56,0.28,1.04v1.3c0,0.48-0.09,0.83-0.28,1.04c-0.18,0.22-0.53,0.32-1.04,0.32
			h-3.46v2.06h5.59c0.51,0,0.86,0.11,1.04,0.32c0.18,0.22,0.28,0.56,0.28,1.04v1.34c0,0.48-0.09,0.83-0.28,1.04
			c-0.18,0.22-0.53,0.32-1.04,0.32h-9.91C273.76,356.95,273.39,356.84,273.18,356.62z"/>
		<path d="M65.18,385.42c-0.21-0.22-0.32-0.57-0.32-1.03V370.8c0-0.46,0.11-0.81,0.32-1.03c0.22-0.22,0.59-0.34,1.12-0.34h5.52
			c5.65,0,8.47,2.72,8.47,8.16c0,2.69-0.72,4.72-2.17,6.1c-1.45,1.38-3.55,2.06-6.3,2.06H66.3
			C65.77,385.75,65.4,385.64,65.18,385.42z M72.03,381.67c0.9,0,1.54-0.3,1.93-0.89c0.39-0.59,0.59-1.66,0.59-3.19
			s-0.2-2.6-0.59-3.19c-0.39-0.59-1.04-0.89-1.93-0.89h-1.42v8.16H72.03z"/>
		<path d="M79.93,385.25c0-0.14,0.04-0.32,0.12-0.53l5.98-14.38c0.14-0.34,0.31-0.57,0.49-0.71c0.18-0.14,0.44-0.2,0.78-0.2h2.62
			c0.34,0,0.6,0.07,0.78,0.2c0.18,0.14,0.35,0.37,0.49,0.71l5.95,14.38c0.08,0.21,0.12,0.38,0.12,0.53c0,0.34-0.18,0.5-0.53,0.5
			h-4.51c-0.5,0-0.81-0.22-0.94-0.65l-0.58-1.78h-4.25l-0.55,1.78c-0.13,0.43-0.44,0.65-0.94,0.65h-4.51
			C80.11,385.75,79.93,385.58,79.93,385.25z M89.53,379.54l-0.94-2.98l-0.94,2.98H89.53z"/>
		<path d="M99.6,385.42c-0.21-0.22-0.32-0.57-0.32-1.03v-10.87h-3.46c-0.51,0-0.86-0.11-1.04-0.32c-0.18-0.22-0.28-0.56-0.28-1.04
			v-1.34c0-0.48,0.09-0.83,0.28-1.04c0.18-0.22,0.53-0.32,1.04-0.32h12.67c0.51,0,0.86,0.11,1.04,0.32
			c0.18,0.22,0.28,0.56,0.28,1.04v1.34c0,0.48-0.09,0.83-0.28,1.04c-0.18,0.22-0.53,0.32-1.04,0.32h-3.46v10.87
			c0,0.46-0.11,0.81-0.32,1.03c-0.22,0.22-0.6,0.34-1.14,0.34h-2.86C100.19,385.75,99.81,385.64,99.6,385.42z"/>
		<path d="M111.18,383.89c-1.47-1.48-2.21-3.58-2.21-6.3c0-2.72,0.74-4.82,2.21-6.3c1.47-1.48,3.63-2.22,6.48-2.22
			c2.85,0,5.01,0.74,6.48,2.22c1.47,1.48,2.21,3.58,2.21,6.3c0,2.72-0.74,4.82-2.21,6.3c-1.47,1.48-3.63,2.22-6.48,2.22
			C114.81,386.11,112.65,385.37,111.18,383.89z M119.91,380.96c0.46-0.74,0.7-1.87,0.7-3.37c0-1.52-0.23-2.65-0.7-3.38
			c-0.46-0.74-1.22-1.1-2.26-1.1c-1.04,0-1.79,0.37-2.26,1.1c-0.46,0.74-0.7,1.86-0.7,3.38c0,1.5,0.23,2.63,0.7,3.37
			c0.46,0.74,1.21,1.12,2.26,1.12C118.7,382.08,119.45,381.71,119.91,380.96z"/>
		<path d="M129.51,385.66c-1.25-0.3-2.26-0.73-3.02-1.27c-0.32-0.22-0.48-0.44-0.48-0.65c0-0.14,0.06-0.3,0.17-0.46l1.39-2.18
			c0.14-0.21,0.29-0.31,0.43-0.31c0.13,0,0.28,0.06,0.46,0.17c0.58,0.35,1.24,0.63,1.98,0.83s1.47,0.3,2.17,0.3
			c0.59,0,1.02-0.08,1.29-0.24c0.26-0.16,0.4-0.41,0.4-0.74c0-0.37-0.18-0.66-0.53-0.89c-0.35-0.22-0.96-0.5-1.82-0.84
			c-1.62-0.62-2.89-1.33-3.82-2.12c-0.93-0.79-1.39-1.84-1.39-3.16c0-1.66,0.58-2.92,1.74-3.76c1.16-0.84,2.72-1.26,4.69-1.26
			c1.38,0,2.55,0.12,3.52,0.36c0.97,0.24,1.81,0.62,2.53,1.13c0.32,0.22,0.48,0.44,0.48,0.65c0,0.14-0.06,0.3-0.17,0.46l-1.39,2.18
			c-0.14,0.22-0.29,0.34-0.43,0.34c-0.1,0-0.25-0.06-0.46-0.19c-0.38-0.26-0.84-0.47-1.37-0.64c-0.53-0.17-1.1-0.25-1.7-0.25
			c-0.56,0-0.98,0.08-1.27,0.24c-0.29,0.16-0.43,0.42-0.43,0.77c0,0.29,0.1,0.53,0.3,0.72c0.2,0.19,0.45,0.36,0.76,0.49
			c0.3,0.14,0.83,0.36,1.58,0.66c1.2,0.48,2.14,0.94,2.83,1.38s1.21,0.97,1.56,1.58s0.53,1.4,0.53,2.34c0,1.44-0.54,2.6-1.62,3.49
			c-1.08,0.89-2.69,1.33-4.84,1.33C132.11,386.11,130.76,385.96,129.51,385.66z"/>
		<path d="M150.37,383.96c-1.62-1.43-2.42-3.56-2.42-6.37c0-2.8,0.81-4.92,2.42-6.36c1.62-1.44,3.87-2.16,6.77-2.16
			c1.31,0,2.49,0.13,3.53,0.38s1.9,0.62,2.59,1.08c0.19,0.14,0.29,0.3,0.29,0.48c0,0.14-0.07,0.34-0.22,0.6l-1.2,2.06
			c-0.13,0.22-0.28,0.34-0.46,0.34c-0.11,0-0.3-0.06-0.55-0.19c-0.96-0.48-2.02-0.72-3.17-0.72c-1.33,0-2.37,0.38-3.13,1.14
			s-1.14,1.88-1.14,3.35c0,1.52,0.32,2.64,0.96,3.37c0.64,0.73,1.59,1.09,2.86,1.09c0.22,0,0.48-0.02,0.76-0.06s0.51-0.08,0.68-0.13
			v-2.18h-1.54c-0.51,0-0.86-0.1-1.04-0.3c-0.18-0.2-0.28-0.54-0.28-1.02v-1.32c0-0.48,0.09-0.82,0.28-1.02
			c0.18-0.2,0.53-0.3,1.04-0.3h5.16c0.63,0,1.06,0.14,1.3,0.42c0.24,0.28,0.36,0.72,0.36,1.33v5.62c0,0.35-0.04,0.62-0.13,0.8
			c-0.09,0.18-0.26,0.37-0.52,0.56c-1.54,1.1-3.67,1.66-6.41,1.66C154.25,386.11,151.98,385.4,150.37,383.96z"/>
		<path d="M164.94,385.25c0-0.14,0.04-0.32,0.12-0.53l5.98-14.38c0.14-0.34,0.31-0.57,0.49-0.71c0.18-0.14,0.44-0.2,0.78-0.2h2.62
			c0.34,0,0.6,0.07,0.78,0.2c0.18,0.14,0.35,0.37,0.49,0.71l5.95,14.38c0.08,0.21,0.12,0.38,0.12,0.53c0,0.34-0.18,0.5-0.53,0.5
			h-4.51c-0.5,0-0.81-0.22-0.94-0.65l-0.58-1.78h-4.25l-0.55,1.78c-0.13,0.43-0.44,0.65-0.94,0.65h-4.51
			C165.11,385.75,164.94,385.58,164.94,385.25z M174.54,379.54l-0.94-2.98l-0.94,2.98H174.54z"/>
		<path d="M183.79,385.42c-0.22-0.22-0.32-0.57-0.32-1.03V370.8c0-0.46,0.11-0.81,0.32-1.03c0.22-0.22,0.59-0.34,1.12-0.34h5.74
			c2.4,0,4.15,0.48,5.24,1.43s1.64,2.39,1.64,4.31c0,1.15-0.2,2.12-0.59,2.92c-0.39,0.79-1,1.41-1.81,1.86l2.23,4.78
			c0.06,0.13,0.1,0.27,0.1,0.43c0,0.18-0.06,0.32-0.18,0.43c-0.12,0.11-0.28,0.17-0.47,0.17h-4.06c-0.26,0-0.46-0.04-0.61-0.11
			c-0.15-0.07-0.26-0.2-0.32-0.37l-1.78-4.46h-0.82v3.58c0,0.46-0.11,0.81-0.32,1.03c-0.21,0.22-0.6,0.34-1.14,0.34h-2.86
			C184.38,385.75,184,385.64,183.79,385.42z M190.14,376.8c0.51,0,0.92-0.14,1.21-0.41c0.29-0.27,0.44-0.68,0.44-1.22
			c0-0.56-0.15-0.98-0.44-1.25c-0.3-0.27-0.7-0.41-1.21-0.41h-1.63v3.29H190.14z"/>
		<path d="M197.17,385.25c0-0.14,0.04-0.32,0.12-0.53l5.98-14.38c0.14-0.34,0.31-0.57,0.49-0.71c0.18-0.14,0.44-0.2,0.78-0.2h2.62
			c0.34,0,0.6,0.07,0.78,0.2c0.18,0.14,0.35,0.37,0.49,0.71l5.95,14.38c0.08,0.21,0.12,0.38,0.12,0.53c0,0.34-0.18,0.5-0.53,0.5
			h-4.51c-0.5,0-0.81-0.22-0.94-0.65l-0.58-1.78h-4.25l-0.55,1.78c-0.13,0.43-0.44,0.65-0.94,0.65h-4.51
			C197.34,385.75,197.17,385.58,197.17,385.25z M206.77,379.54l-0.94-2.98l-0.94,2.98H206.77z"/>
		<path d="M216.02,385.42c-0.22-0.22-0.32-0.57-0.32-1.03v-13.61c0-0.46,0.11-0.8,0.32-1.02s0.6-0.32,1.14-0.32h2.28
			c0.34,0,0.6,0.04,0.78,0.13c0.18,0.09,0.36,0.26,0.54,0.52l4.34,6.46v-5.74c0-0.46,0.11-0.81,0.32-1.03
			c0.22-0.22,0.59-0.34,1.12-0.34h2.86c0.54,0,0.92,0.11,1.14,0.32c0.21,0.22,0.32,0.56,0.32,1.04v13.61c0,0.46-0.11,0.8-0.32,1.02
			c-0.22,0.22-0.6,0.32-1.14,0.32h-2.28c-0.34,0-0.6-0.04-0.78-0.13c-0.18-0.09-0.36-0.26-0.54-0.52l-4.34-6.46v5.76
			c0,0.46-0.11,0.8-0.32,1.02c-0.22,0.22-0.6,0.32-1.14,0.32h-2.86C216.61,385.75,216.24,385.64,216.02,385.42z"/>
		<path d="M236.68,385.42c-0.22-0.22-0.32-0.57-0.32-1.03v-10.87h-3.46c-0.51,0-0.86-0.11-1.04-0.32c-0.18-0.22-0.28-0.56-0.28-1.04
			v-1.34c0-0.48,0.09-0.83,0.28-1.04c0.18-0.22,0.53-0.32,1.04-0.32h12.67c0.51,0,0.86,0.11,1.04,0.32
			c0.18,0.22,0.28,0.56,0.28,1.04v1.34c0,0.48-0.09,0.83-0.28,1.04c-0.18,0.22-0.53,0.32-1.04,0.32h-3.46v10.87
			c0,0.46-0.11,0.81-0.32,1.03c-0.22,0.22-0.6,0.34-1.14,0.34h-2.86C237.27,385.75,236.9,385.64,236.68,385.42z"/>
		<path d="M247.94,385.42c-0.22-0.22-0.32-0.57-0.32-1.03V370.8c0-0.46,0.11-0.81,0.32-1.03c0.22-0.22,0.59-0.34,1.12-0.34h2.86
			c0.54,0,0.92,0.11,1.14,0.32c0.22,0.22,0.32,0.56,0.32,1.04v13.58c0,0.46-0.11,0.81-0.32,1.03c-0.22,0.22-0.6,0.34-1.14,0.34
			h-2.86C248.53,385.75,248.16,385.64,247.94,385.42z"/>
		<path d="M254.82,385.48c-0.16-0.18-0.24-0.52-0.24-1.02c0-0.51,0.04-0.91,0.13-1.2c0.09-0.29,0.31-0.66,0.66-1.13l6.31-8.62h-5.54
			c-0.53,0-0.9-0.11-1.12-0.34c-0.22-0.22-0.32-0.57-0.32-1.03v-1.34c0-0.46,0.11-0.81,0.32-1.03c0.22-0.22,0.59-0.34,1.12-0.34
			h11.86c0.48,0,0.8,0.09,0.96,0.28c0.16,0.18,0.24,0.52,0.24,1.02c0,0.5-0.04,0.89-0.13,1.18s-0.31,0.67-0.66,1.15l-6.26,8.62h5.66
			c0.53,0,0.9,0.11,1.12,0.34c0.22,0.22,0.32,0.57,0.32,1.03v1.34c0,0.46-0.11,0.81-0.32,1.03c-0.22,0.22-0.59,0.34-1.12,0.34
			h-12.02C255.3,385.75,254.98,385.66,254.82,385.48z"/>
		<path d="M269.36,385.25c0-0.14,0.04-0.32,0.12-0.53l5.98-14.38c0.14-0.34,0.31-0.57,0.49-0.71c0.18-0.14,0.44-0.2,0.78-0.2h2.62
			c0.34,0,0.6,0.07,0.78,0.2c0.18,0.14,0.35,0.37,0.49,0.71l5.95,14.38c0.08,0.21,0.12,0.38,0.12,0.53c0,0.34-0.18,0.5-0.53,0.5
			h-4.51c-0.5,0-0.81-0.22-0.94-0.65l-0.58-1.78h-4.25l-0.55,1.78c-0.13,0.43-0.44,0.65-0.94,0.65h-4.51
			C269.54,385.75,269.36,385.58,269.36,385.25z M278.96,379.54l-0.94-2.98l-0.94,2.98H278.96z"/>
		<path d="M288.21,385.42c-0.22-0.22-0.32-0.57-0.32-1.03V370.8c0-0.46,0.11-0.81,0.32-1.03c0.21-0.22,0.59-0.34,1.12-0.34h5.52
			c5.65,0,8.47,2.72,8.47,8.16c0,2.69-0.72,4.72-2.17,6.1c-1.45,1.38-3.55,2.06-6.3,2.06h-5.52
			C288.8,385.75,288.43,385.64,288.21,385.42z M295.06,381.67c0.9,0,1.54-0.3,1.93-0.89s0.59-1.66,0.59-3.19s-0.2-2.6-0.59-3.19
			s-1.04-0.89-1.93-0.89h-1.42v8.16H295.06z"/>
		<path d="M302.96,385.25c0-0.14,0.04-0.32,0.12-0.53l5.98-14.38c0.14-0.34,0.31-0.57,0.49-0.71c0.18-0.14,0.44-0.2,0.78-0.2h2.62
			c0.34,0,0.6,0.07,0.78,0.2c0.18,0.14,0.35,0.37,0.49,0.71l5.95,14.38c0.08,0.21,0.12,0.38,0.12,0.53c0,0.34-0.18,0.5-0.53,0.5
			h-4.51c-0.5,0-0.81-0.22-0.94-0.65l-0.58-1.78h-4.25l-0.55,1.78c-0.13,0.43-0.44,0.65-0.94,0.65h-4.51
			C303.14,385.75,302.96,385.58,302.96,385.25z M312.56,379.54l-0.94-2.98l-0.94,2.98H312.56z"/>
		<path d="M111.42,412.76c-1.62-1.43-2.42-3.56-2.42-6.37c0-2.83,0.78-4.96,2.34-6.38c1.56-1.42,3.79-2.14,6.68-2.14
			c1.31,0,2.48,0.13,3.5,0.38s1.88,0.62,2.57,1.08c0.19,0.14,0.29,0.3,0.29,0.48c0,0.14-0.07,0.34-0.22,0.6l-1.2,2.06
			c-0.13,0.22-0.28,0.34-0.46,0.34c-0.11,0-0.3-0.06-0.55-0.19c-0.45-0.22-0.92-0.4-1.4-0.53c-0.49-0.13-1.06-0.19-1.72-0.19
			c-1.33,0-2.34,0.38-3.05,1.15c-0.7,0.77-1.05,1.88-1.05,3.34c0,1.44,0.38,2.55,1.15,3.32s1.82,1.16,3.14,1.16
			c1.15,0,2.21-0.24,3.17-0.72c0.26-0.13,0.44-0.19,0.55-0.19c0.18,0,0.33,0.11,0.46,0.34l1.2,2.06c0.14,0.26,0.21,0.46,0.21,0.6
			c0,0.18-0.1,0.34-0.29,0.48c-0.69,0.46-1.55,0.82-2.59,1.08c-1.04,0.26-2.22,0.38-3.53,0.38
			C115.3,414.91,113.03,414.2,111.42,412.76z"/>
		<path d="M126.47,412.69c-1.47-1.48-2.21-3.58-2.21-6.3c0-2.72,0.74-4.82,2.21-6.3c1.47-1.48,3.63-2.22,6.48-2.22
			s5.01,0.74,6.48,2.22c1.47,1.48,2.21,3.58,2.21,6.3c0,2.72-0.74,4.82-2.21,6.3c-1.47,1.48-3.63,2.22-6.48,2.22
			S127.94,414.17,126.47,412.69z M135.2,409.76c0.46-0.74,0.7-1.87,0.7-3.37c0-1.52-0.23-2.65-0.7-3.38
			c-0.46-0.74-1.22-1.1-2.26-1.1c-1.04,0-1.79,0.37-2.26,1.1c-0.46,0.74-0.7,1.86-0.7,3.38c0,1.5,0.23,2.63,0.7,3.37
			c0.46,0.74,1.22,1.12,2.26,1.12C133.99,410.88,134.74,410.51,135.2,409.76z"/>
		<path d="M143.16,414.22c-0.22-0.22-0.32-0.57-0.32-1.03v-13.61c0-0.46,0.11-0.8,0.32-1.02c0.21-0.22,0.6-0.32,1.14-0.32h2.28
			c0.34,0,0.6,0.04,0.78,0.13c0.18,0.09,0.36,0.26,0.54,0.52l4.34,6.46v-5.74c0-0.46,0.11-0.81,0.32-1.03
			c0.22-0.22,0.59-0.34,1.12-0.34h2.86c0.54,0,0.92,0.11,1.14,0.32c0.22,0.22,0.32,0.56,0.32,1.04v13.61c0,0.46-0.11,0.8-0.32,1.02
			c-0.22,0.22-0.6,0.32-1.14,0.32h-2.28c-0.34,0-0.6-0.04-0.78-0.13s-0.36-0.26-0.54-0.52l-4.34-6.46v5.76
			c0,0.46-0.11,0.8-0.32,1.02c-0.22,0.22-0.6,0.32-1.14,0.32h-2.86C143.75,414.55,143.37,414.44,143.16,414.22z"/>
		<path d="M171.02,414.22c-0.22-0.22-0.32-0.57-0.32-1.03v-10.87h-3.46c-0.51,0-0.86-0.11-1.04-0.32c-0.18-0.22-0.28-0.56-0.28-1.04
			v-1.34c0-0.48,0.09-0.83,0.28-1.04s0.53-0.32,1.04-0.32h12.67c0.51,0,0.86,0.11,1.04,0.32s0.28,0.56,0.28,1.04v1.34
			c0,0.48-0.09,0.83-0.28,1.04c-0.18,0.22-0.53,0.32-1.04,0.32h-3.46v10.87c0,0.46-0.11,0.81-0.32,1.03
			c-0.21,0.22-0.6,0.34-1.14,0.34h-2.86C171.61,414.55,171.24,414.44,171.02,414.22z"/>
		<path d="M182.28,414.22c-0.22-0.22-0.32-0.57-0.32-1.03V399.6c0-0.46,0.11-0.81,0.32-1.03c0.22-0.22,0.59-0.34,1.12-0.34h9.94
			c0.51,0,0.86,0.11,1.04,0.32s0.28,0.56,0.28,1.04v1.34c0,0.48-0.09,0.83-0.28,1.04c-0.18,0.22-0.53,0.32-1.04,0.32h-5.62v2.06
			h3.46c0.51,0,0.86,0.11,1.04,0.32c0.18,0.22,0.28,0.56,0.28,1.04v1.3c0,0.48-0.09,0.83-0.28,1.04s-0.53,0.32-1.04,0.32h-3.46v2.06
			h5.59c0.51,0,0.86,0.11,1.04,0.32c0.18,0.22,0.28,0.56,0.28,1.04v1.34c0,0.48-0.09,0.83-0.28,1.04c-0.18,0.22-0.53,0.32-1.04,0.32
			h-9.91C182.87,414.55,182.49,414.44,182.28,414.22z"/>
		<path d="M198.78,414.46c-1.25-0.3-2.26-0.73-3.03-1.27c-0.32-0.22-0.48-0.44-0.48-0.65c0-0.14,0.06-0.3,0.17-0.46l1.39-2.18
			c0.14-0.21,0.29-0.31,0.43-0.31c0.13,0,0.28,0.06,0.46,0.17c0.58,0.35,1.24,0.63,1.98,0.83s1.47,0.3,2.17,0.3
			c0.59,0,1.02-0.08,1.28-0.24c0.26-0.16,0.4-0.41,0.4-0.74c0-0.37-0.18-0.66-0.53-0.89c-0.35-0.22-0.96-0.5-1.82-0.84
			c-1.62-0.62-2.89-1.33-3.82-2.12s-1.39-1.84-1.39-3.16c0-1.66,0.58-2.92,1.74-3.76s2.72-1.26,4.69-1.26
			c1.38,0,2.55,0.12,3.52,0.36c0.97,0.24,1.81,0.62,2.53,1.13c0.32,0.22,0.48,0.44,0.48,0.65c0,0.14-0.06,0.3-0.17,0.46l-1.39,2.18
			c-0.14,0.22-0.29,0.34-0.43,0.34c-0.1,0-0.25-0.06-0.46-0.19c-0.38-0.26-0.84-0.47-1.37-0.64c-0.53-0.17-1.1-0.25-1.7-0.25
			c-0.56,0-0.98,0.08-1.27,0.24c-0.29,0.16-0.43,0.42-0.43,0.77c0,0.29,0.1,0.53,0.3,0.72c0.2,0.19,0.45,0.36,0.76,0.49
			c0.3,0.14,0.83,0.36,1.58,0.66c1.2,0.48,2.14,0.94,2.83,1.38c0.69,0.44,1.21,0.97,1.56,1.58c0.35,0.62,0.53,1.4,0.53,2.34
			c0,1.44-0.54,2.6-1.62,3.49c-1.08,0.89-2.69,1.33-4.84,1.33C201.38,414.91,200.03,414.76,198.78,414.46z"/>
		<path d="M214.03,414.22c-0.22-0.22-0.32-0.57-0.32-1.03v-10.87h-3.46c-0.51,0-0.86-0.11-1.04-0.32c-0.18-0.22-0.28-0.56-0.28-1.04
			v-1.34c0-0.48,0.09-0.83,0.28-1.04s0.53-0.32,1.04-0.32h12.67c0.51,0,0.86,0.11,1.04,0.32s0.28,0.56,0.28,1.04v1.34
			c0,0.48-0.09,0.83-0.28,1.04c-0.18,0.22-0.53,0.32-1.04,0.32h-3.46v10.87c0,0.46-0.11,0.81-0.32,1.03
			c-0.22,0.22-0.6,0.34-1.14,0.34h-2.86C214.62,414.55,214.24,414.44,214.03,414.22z"/>
		<path d="M225.29,414.22c-0.22-0.22-0.32-0.57-0.32-1.03V399.6c0-0.46,0.11-0.81,0.32-1.03c0.21-0.22,0.59-0.34,1.12-0.34h9.94
			c0.51,0,0.86,0.11,1.04,0.32c0.18,0.22,0.28,0.56,0.28,1.04v1.34c0,0.48-0.09,0.83-0.28,1.04c-0.18,0.22-0.53,0.32-1.04,0.32
			h-5.62v2.06h3.46c0.51,0,0.86,0.11,1.04,0.32c0.18,0.22,0.28,0.56,0.28,1.04v1.3c0,0.48-0.09,0.83-0.28,1.04s-0.53,0.32-1.04,0.32
			h-3.46v2.06h5.59c0.51,0,0.86,0.11,1.04,0.32s0.28,0.56,0.28,1.04v1.34c0,0.48-0.09,0.83-0.28,1.04s-0.53,0.32-1.04,0.32h-9.91
			C225.87,414.55,225.5,414.44,225.29,414.22z"/>
		<path d="M239.63,412.69c-1.47-1.48-2.21-3.58-2.21-6.3c0-2.72,0.74-4.82,2.21-6.3c1.47-1.48,3.63-2.22,6.48-2.22
			c2.85,0,5.01,0.74,6.48,2.22c1.47,1.48,2.21,3.58,2.21,6.3c0,2.72-0.74,4.82-2.21,6.3c-1.47,1.48-3.63,2.22-6.48,2.22
			C243.26,414.91,241.1,414.17,239.63,412.69z M248.36,409.76c0.46-0.74,0.7-1.87,0.7-3.37c0-1.52-0.23-2.65-0.7-3.38
			c-0.46-0.74-1.22-1.1-2.26-1.1s-1.79,0.37-2.26,1.1c-0.46,0.74-0.7,1.86-0.7,3.38c0,1.5,0.23,2.63,0.7,3.37s1.22,1.12,2.26,1.12
			S247.9,410.51,248.36,409.76z"/>
		<path d="M257.96,414.46c-1.25-0.3-2.26-0.73-3.02-1.27c-0.32-0.22-0.48-0.44-0.48-0.65c0-0.14,0.06-0.3,0.17-0.46l1.39-2.18
			c0.14-0.21,0.29-0.31,0.43-0.31c0.13,0,0.28,0.06,0.46,0.17c0.58,0.35,1.24,0.63,1.98,0.83s1.47,0.3,2.17,0.3
			c0.59,0,1.02-0.08,1.28-0.24c0.26-0.16,0.4-0.41,0.4-0.74c0-0.37-0.18-0.66-0.53-0.89c-0.35-0.22-0.96-0.5-1.82-0.84
			c-1.62-0.62-2.89-1.33-3.82-2.12s-1.39-1.84-1.39-3.16c0-1.66,0.58-2.92,1.74-3.76c1.16-0.84,2.72-1.26,4.69-1.26
			c1.38,0,2.55,0.12,3.52,0.36c0.97,0.24,1.81,0.62,2.53,1.13c0.32,0.22,0.48,0.44,0.48,0.65c0,0.14-0.06,0.3-0.17,0.46l-1.39,2.18
			c-0.14,0.22-0.29,0.34-0.43,0.34c-0.1,0-0.25-0.06-0.46-0.19c-0.38-0.26-0.84-0.47-1.37-0.64c-0.53-0.17-1.1-0.25-1.7-0.25
			c-0.56,0-0.98,0.08-1.27,0.24c-0.29,0.16-0.43,0.42-0.43,0.77c0,0.29,0.1,0.53,0.3,0.72c0.2,0.19,0.45,0.36,0.76,0.49
			c0.3,0.14,0.83,0.36,1.58,0.66c1.2,0.48,2.14,0.94,2.83,1.38s1.21,0.97,1.56,1.58c0.35,0.62,0.53,1.4,0.53,2.34
			c0,1.44-0.54,2.6-1.62,3.49c-1.08,0.89-2.69,1.33-4.84,1.33C260.56,414.91,259.21,414.76,257.96,414.46z"/>
		<path d="M117.65,441.56c-1.62-1.43-2.42-3.56-2.42-6.37c0-2.83,0.78-4.96,2.34-6.38c1.56-1.42,3.79-2.14,6.68-2.14
			c1.31,0,2.48,0.13,3.5,0.38c1.02,0.26,1.88,0.62,2.57,1.08c0.19,0.14,0.29,0.3,0.29,0.48c0,0.14-0.07,0.34-0.22,0.6l-1.2,2.06
			c-0.13,0.22-0.28,0.34-0.46,0.34c-0.11,0-0.3-0.06-0.55-0.19c-0.45-0.22-0.92-0.4-1.4-0.53s-1.06-0.19-1.71-0.19
			c-1.33,0-2.34,0.38-3.05,1.15c-0.7,0.77-1.06,1.88-1.06,3.34c0,1.44,0.38,2.55,1.15,3.32c0.77,0.78,1.82,1.16,3.14,1.16
			c1.15,0,2.21-0.24,3.17-0.72c0.26-0.13,0.44-0.19,0.55-0.19c0.18,0,0.33,0.11,0.46,0.34l1.2,2.06c0.14,0.26,0.22,0.46,0.22,0.6
			c0,0.18-0.1,0.34-0.29,0.48c-0.69,0.46-1.55,0.82-2.59,1.08c-1.04,0.26-2.22,0.38-3.53,0.38
			C121.53,443.71,119.26,443,117.65,441.56z"/>
		<path d="M132.69,441.49c-1.47-1.48-2.21-3.58-2.21-6.3c0-2.72,0.74-4.82,2.21-6.3c1.47-1.48,3.63-2.22,6.48-2.22
			s5.01,0.74,6.48,2.22c1.47,1.48,2.21,3.58,2.21,6.3c0,2.72-0.74,4.82-2.21,6.3c-1.47,1.48-3.63,2.22-6.48,2.22
			S134.17,442.97,132.69,441.49z M141.43,438.56c0.46-0.74,0.7-1.87,0.7-3.37c0-1.52-0.23-2.65-0.7-3.38
			c-0.46-0.74-1.22-1.1-2.26-1.1s-1.79,0.37-2.26,1.1c-0.46,0.74-0.7,1.86-0.7,3.38c0,1.5,0.23,2.63,0.7,3.37
			c0.46,0.74,1.22,1.12,2.26,1.12S140.97,439.31,141.43,438.56z"/>
		<path d="M149.39,443.02c-0.22-0.22-0.32-0.57-0.32-1.03v-13.61c0-0.46,0.11-0.8,0.32-1.02s0.6-0.32,1.14-0.32h2.28
			c0.34,0,0.6,0.04,0.78,0.13c0.18,0.09,0.36,0.26,0.54,0.52l4.34,6.46v-5.74c0-0.46,0.11-0.81,0.32-1.03
			c0.22-0.22,0.59-0.34,1.12-0.34h2.86c0.54,0,0.92,0.11,1.14,0.32c0.21,0.22,0.32,0.56,0.32,1.04v13.61c0,0.46-0.11,0.8-0.32,1.02
			c-0.22,0.22-0.6,0.32-1.14,0.32h-2.28c-0.34,0-0.6-0.04-0.78-0.13c-0.18-0.09-0.36-0.26-0.54-0.52l-4.34-6.46v5.76
			c0,0.46-0.11,0.8-0.32,1.02c-0.22,0.22-0.6,0.32-1.14,0.32h-2.86C149.97,443.35,149.6,443.24,149.39,443.02z"/>
		<path d="M168.96,443.26c-1.25-0.3-2.26-0.73-3.02-1.27c-0.32-0.22-0.48-0.44-0.48-0.65c0-0.14,0.06-0.3,0.17-0.46l1.39-2.18
			c0.14-0.21,0.29-0.31,0.43-0.31c0.13,0,0.28,0.06,0.46,0.17c0.58,0.35,1.24,0.63,1.98,0.83s1.47,0.3,2.17,0.3
			c0.59,0,1.02-0.08,1.28-0.24c0.26-0.16,0.4-0.41,0.4-0.74c0-0.37-0.18-0.66-0.53-0.89c-0.35-0.22-0.96-0.5-1.82-0.84
			c-1.62-0.62-2.89-1.33-3.82-2.12c-0.93-0.79-1.39-1.84-1.39-3.16c0-1.66,0.58-2.92,1.74-3.76s2.72-1.26,4.69-1.26
			c1.38,0,2.55,0.12,3.52,0.36c0.97,0.24,1.81,0.62,2.53,1.13c0.32,0.22,0.48,0.44,0.48,0.65c0,0.14-0.06,0.3-0.17,0.46l-1.39,2.18
			c-0.14,0.22-0.29,0.34-0.43,0.34c-0.1,0-0.25-0.06-0.46-0.19c-0.38-0.26-0.84-0.47-1.37-0.64c-0.53-0.17-1.1-0.25-1.71-0.25
			c-0.56,0-0.98,0.08-1.27,0.24c-0.29,0.16-0.43,0.42-0.43,0.77c0,0.29,0.1,0.53,0.3,0.72s0.45,0.36,0.76,0.49s0.83,0.36,1.58,0.66
			c1.2,0.48,2.14,0.94,2.83,1.38c0.69,0.44,1.21,0.97,1.56,1.58s0.53,1.4,0.53,2.34c0,1.44-0.54,2.6-1.62,3.49
			c-1.08,0.89-2.69,1.33-4.84,1.33C171.56,443.71,170.21,443.56,168.96,443.26z"/>
		<path d="M184.21,443.02c-0.21-0.22-0.32-0.57-0.32-1.03v-10.87h-3.46c-0.51,0-0.86-0.11-1.04-0.32c-0.18-0.22-0.28-0.56-0.28-1.04
			v-1.34c0-0.48,0.09-0.83,0.28-1.04c0.18-0.22,0.53-0.32,1.04-0.32h12.67c0.51,0,0.86,0.11,1.04,0.32
			c0.18,0.22,0.28,0.56,0.28,1.04v1.34c0,0.48-0.09,0.83-0.28,1.04c-0.18,0.22-0.53,0.32-1.04,0.32h-3.46v10.87
			c0,0.46-0.11,0.81-0.32,1.03c-0.22,0.22-0.6,0.34-1.14,0.34h-2.86C184.8,443.35,184.43,443.24,184.21,443.02z"/>
		<path d="M191.66,442.85c0-0.14,0.04-0.32,0.12-0.53l5.98-14.38c0.14-0.34,0.31-0.57,0.49-0.71c0.18-0.14,0.44-0.2,0.78-0.2h2.62
			c0.34,0,0.6,0.07,0.78,0.2c0.18,0.14,0.35,0.37,0.49,0.71l5.95,14.38c0.08,0.21,0.12,0.38,0.12,0.53c0,0.34-0.18,0.5-0.53,0.5
			h-4.51c-0.5,0-0.81-0.22-0.94-0.65l-0.58-1.78h-4.25l-0.55,1.78c-0.13,0.43-0.44,0.65-0.94,0.65h-4.51
			C191.84,443.35,191.66,443.18,191.66,442.85z M201.26,437.14l-0.94-2.98l-0.94,2.98H201.26z"/>
		<path d="M210.51,443.02c-0.22-0.22-0.32-0.57-0.32-1.03v-13.61c0-0.46,0.11-0.8,0.32-1.02s0.6-0.32,1.14-0.32h2.28
			c0.34,0,0.6,0.04,0.78,0.13c0.18,0.09,0.36,0.26,0.54,0.52l4.34,6.46v-5.74c0-0.46,0.11-0.81,0.32-1.03
			c0.22-0.22,0.59-0.34,1.12-0.34h2.86c0.54,0,0.92,0.11,1.14,0.32c0.22,0.22,0.32,0.56,0.32,1.04v13.61c0,0.46-0.11,0.8-0.32,1.02
			c-0.22,0.22-0.6,0.32-1.14,0.32h-2.28c-0.34,0-0.6-0.04-0.78-0.13c-0.18-0.09-0.36-0.26-0.54-0.52l-4.34-6.46v5.76
			c0,0.46-0.11,0.8-0.32,1.02c-0.21,0.22-0.6,0.32-1.14,0.32h-2.86C211.1,443.35,210.73,443.24,210.51,443.02z"/>
		<path d="M231.18,443.02c-0.22-0.22-0.32-0.57-0.32-1.03v-10.87h-3.46c-0.51,0-0.86-0.11-1.04-0.32c-0.18-0.22-0.28-0.56-0.28-1.04
			v-1.34c0-0.48,0.09-0.83,0.28-1.04s0.53-0.32,1.04-0.32h12.67c0.51,0,0.86,0.11,1.04,0.32s0.28,0.56,0.28,1.04v1.34
			c0,0.48-0.09,0.83-0.28,1.04c-0.18,0.22-0.53,0.32-1.04,0.32h-3.46v10.87c0,0.46-0.11,0.81-0.32,1.03
			c-0.22,0.22-0.6,0.34-1.14,0.34h-2.86C231.77,443.35,231.39,443.24,231.18,443.02z"/>
		<path d="M242.43,443.02c-0.22-0.22-0.32-0.57-0.32-1.03V428.4c0-0.46,0.11-0.81,0.32-1.03c0.21-0.22,0.59-0.34,1.12-0.34h9.94
			c0.51,0,0.86,0.11,1.04,0.32c0.18,0.22,0.28,0.56,0.28,1.04v1.34c0,0.48-0.09,0.83-0.28,1.04c-0.18,0.22-0.53,0.32-1.04,0.32
			h-5.62v2.06h3.46c0.51,0,0.86,0.11,1.04,0.32c0.18,0.22,0.28,0.56,0.28,1.04v1.3c0,0.48-0.09,0.83-0.28,1.04s-0.53,0.32-1.04,0.32
			h-3.46v2.06h5.59c0.51,0,0.86,0.11,1.04,0.32s0.28,0.56,0.28,1.04v1.34c0,0.48-0.09,0.83-0.28,1.04s-0.53,0.32-1.04,0.32h-9.91
			C243.02,443.35,242.65,443.24,242.43,443.02z"/>
		<path d="M258.93,443.26c-1.25-0.3-2.26-0.73-3.03-1.27c-0.32-0.22-0.48-0.44-0.48-0.65c0-0.14,0.06-0.3,0.17-0.46l1.39-2.18
			c0.14-0.21,0.29-0.31,0.43-0.31c0.13,0,0.28,0.06,0.46,0.17c0.58,0.35,1.24,0.63,1.98,0.83s1.47,0.3,2.17,0.3
			c0.59,0,1.02-0.08,1.28-0.24c0.26-0.16,0.4-0.41,0.4-0.74c0-0.37-0.18-0.66-0.53-0.89c-0.35-0.22-0.96-0.5-1.82-0.84
			c-1.62-0.62-2.89-1.33-3.82-2.12s-1.39-1.84-1.39-3.16c0-1.66,0.58-2.92,1.74-3.76s2.72-1.26,4.69-1.26
			c1.38,0,2.55,0.12,3.52,0.36c0.97,0.24,1.81,0.62,2.53,1.13c0.32,0.22,0.48,0.44,0.48,0.65c0,0.14-0.06,0.3-0.17,0.46l-1.39,2.18
			c-0.14,0.22-0.29,0.34-0.43,0.34c-0.1,0-0.25-0.06-0.46-0.19c-0.38-0.26-0.84-0.47-1.37-0.64c-0.53-0.17-1.1-0.25-1.7-0.25
			c-0.56,0-0.98,0.08-1.27,0.24c-0.29,0.16-0.43,0.42-0.43,0.77c0,0.29,0.1,0.53,0.3,0.72c0.2,0.19,0.45,0.36,0.76,0.49
			c0.3,0.14,0.83,0.36,1.58,0.66c1.2,0.48,2.14,0.94,2.83,1.38c0.69,0.44,1.21,0.97,1.56,1.58c0.35,0.62,0.53,1.4,0.53,2.34
			c0,1.44-0.54,2.6-1.62,3.49c-1.08,0.89-2.69,1.33-4.84,1.33C261.53,443.71,260.18,443.56,258.93,443.26z"/>
		<path d="M98.12,471.65c0-0.14,0.04-0.32,0.12-0.53l5.98-14.38c0.14-0.34,0.31-0.57,0.49-0.71c0.18-0.14,0.44-0.2,0.78-0.2h2.62
			c0.34,0,0.6,0.07,0.78,0.2c0.18,0.14,0.35,0.37,0.49,0.71l5.95,14.38c0.08,0.21,0.12,0.38,0.12,0.53c0,0.34-0.18,0.5-0.53,0.5
			h-4.51c-0.5,0-0.81-0.22-0.94-0.65l-0.58-1.78h-4.25l-0.55,1.78c-0.13,0.43-0.44,0.65-0.94,0.65h-4.51
			C98.3,472.15,98.12,471.98,98.12,471.65z M107.72,465.94l-0.94-2.98l-0.94,2.98H107.72z"/>
		<path d="M116.97,471.82c-0.22-0.22-0.32-0.57-0.32-1.03v-13.61c0-0.46,0.11-0.8,0.32-1.02s0.6-0.32,1.14-0.32h2.28
			c0.34,0,0.6,0.04,0.78,0.13c0.18,0.09,0.36,0.26,0.54,0.52l4.34,6.46v-5.74c0-0.46,0.11-0.81,0.32-1.03
			c0.22-0.22,0.59-0.34,1.12-0.34h2.86c0.54,0,0.92,0.11,1.14,0.32c0.21,0.22,0.32,0.56,0.32,1.04v13.61c0,0.46-0.11,0.8-0.32,1.02
			c-0.22,0.22-0.6,0.32-1.14,0.32h-2.28c-0.34,0-0.6-0.04-0.78-0.13c-0.18-0.09-0.36-0.26-0.54-0.52l-4.34-6.46v5.76
			c0,0.46-0.11,0.8-0.32,1.02c-0.22,0.22-0.6,0.32-1.14,0.32h-2.86C117.56,472.15,117.19,472.04,116.97,471.82z"/>
		<path d="M137.64,471.82c-0.22-0.22-0.32-0.57-0.32-1.03v-10.87h-3.46c-0.51,0-0.86-0.11-1.04-0.32c-0.18-0.22-0.28-0.56-0.28-1.04
			v-1.34c0-0.48,0.09-0.83,0.28-1.04c0.18-0.22,0.53-0.32,1.04-0.32h12.67c0.51,0,0.86,0.11,1.04,0.32
			c0.18,0.22,0.28,0.56,0.28,1.04v1.34c0,0.48-0.09,0.83-0.28,1.04c-0.18,0.22-0.53,0.32-1.04,0.32h-3.46v10.87
			c0,0.46-0.11,0.81-0.32,1.03c-0.22,0.22-0.6,0.34-1.14,0.34h-2.86C138.23,472.15,137.85,472.04,137.64,471.82z"/>
		<path d="M148.89,471.82c-0.22-0.22-0.32-0.57-0.32-1.03V457.2c0-0.46,0.11-0.81,0.32-1.03c0.22-0.22,0.59-0.34,1.12-0.34h9.94
			c0.51,0,0.86,0.11,1.04,0.32s0.28,0.56,0.28,1.04v1.34c0,0.48-0.09,0.83-0.28,1.04c-0.18,0.22-0.53,0.32-1.04,0.32h-5.62v2.06
			h3.46c0.51,0,0.86,0.11,1.04,0.32c0.18,0.22,0.28,0.56,0.28,1.04v1.3c0,0.48-0.09,0.83-0.28,1.04c-0.18,0.22-0.53,0.32-1.04,0.32
			h-3.46v2.06h5.59c0.51,0,0.86,0.11,1.04,0.32c0.18,0.22,0.28,0.56,0.28,1.04v1.34c0,0.48-0.09,0.83-0.28,1.04
			c-0.18,0.22-0.53,0.32-1.04,0.32h-9.91C149.48,472.15,149.11,472.04,148.89,471.82z"/>
		<path d="M177.07,471.82c-0.22-0.22-0.32-0.57-0.32-1.03V457.2c0-0.46,0.11-0.81,0.32-1.03c0.22-0.22,0.59-0.34,1.12-0.34h5.74
			c2.4,0,4.15,0.48,5.24,1.43s1.64,2.39,1.64,4.31s-0.55,3.35-1.64,4.3c-1.1,0.94-2.84,1.42-5.22,1.42h-1.44v3.5
			c0,0.46-0.11,0.81-0.32,1.03c-0.21,0.22-0.6,0.34-1.14,0.34h-2.86C177.66,472.15,177.28,472.04,177.07,471.82z M183.42,463.2
			c0.51,0,0.92-0.14,1.21-0.41c0.29-0.27,0.44-0.68,0.44-1.22c0-0.56-0.15-0.98-0.44-1.25c-0.3-0.27-0.7-0.41-1.21-0.41h-1.63v3.29
			H183.42z"/>
		<path d="M192.66,470.29c-1.47-1.48-2.21-3.58-2.21-6.3c0-2.72,0.74-4.82,2.21-6.3c1.47-1.48,3.63-2.22,6.48-2.22
			s5.01,0.74,6.48,2.22c1.47,1.48,2.21,3.58,2.21,6.3c0,2.72-0.74,4.82-2.21,6.3c-1.47,1.48-3.63,2.22-6.48,2.22
			S194.13,471.77,192.66,470.29z M201.39,467.36c0.46-0.74,0.7-1.87,0.7-3.37c0-1.52-0.23-2.65-0.7-3.38
			c-0.46-0.74-1.22-1.1-2.26-1.1s-1.79,0.37-2.26,1.1c-0.46,0.74-0.7,1.86-0.7,3.38c0,1.5,0.23,2.63,0.7,3.37
			c0.46,0.74,1.22,1.12,2.26,1.12S200.93,468.11,201.39,467.36z"/>
		<path d="M210.99,472.06c-1.25-0.3-2.26-0.73-3.02-1.27c-0.32-0.22-0.48-0.44-0.48-0.65c0-0.14,0.06-0.3,0.17-0.46l1.39-2.18
			c0.14-0.21,0.29-0.31,0.43-0.31c0.13,0,0.28,0.06,0.46,0.17c0.58,0.35,1.24,0.63,1.98,0.83s1.47,0.3,2.17,0.3
			c0.59,0,1.02-0.08,1.29-0.24c0.26-0.16,0.4-0.41,0.4-0.74c0-0.37-0.18-0.66-0.53-0.89c-0.35-0.22-0.96-0.5-1.82-0.84
			c-1.62-0.62-2.89-1.33-3.82-2.12c-0.93-0.79-1.39-1.84-1.39-3.16c0-1.66,0.58-2.92,1.74-3.76c1.16-0.84,2.72-1.26,4.69-1.26
			c1.38,0,2.55,0.12,3.52,0.36c0.97,0.24,1.81,0.62,2.53,1.13c0.32,0.22,0.48,0.44,0.48,0.65c0,0.14-0.06,0.3-0.17,0.46l-1.39,2.18
			c-0.14,0.22-0.29,0.34-0.43,0.34c-0.1,0-0.25-0.06-0.46-0.19c-0.38-0.26-0.84-0.47-1.37-0.64c-0.53-0.17-1.1-0.25-1.7-0.25
			c-0.56,0-0.98,0.08-1.27,0.24c-0.29,0.16-0.43,0.42-0.43,0.77c0,0.29,0.1,0.53,0.3,0.72c0.2,0.19,0.45,0.36,0.76,0.49
			c0.3,0.14,0.83,0.36,1.58,0.66c1.2,0.48,2.14,0.94,2.83,1.38s1.21,0.97,1.56,1.58s0.53,1.4,0.53,2.34c0,1.44-0.54,2.6-1.62,3.49
			c-1.08,0.89-2.69,1.33-4.84,1.33C213.59,472.51,212.24,472.36,210.99,472.06z"/>
		<path d="M223.03,471.82c-0.22-0.22-0.32-0.57-0.32-1.03V457.2c0-0.46,0.11-0.81,0.32-1.03c0.22-0.22,0.59-0.34,1.12-0.34H227
			c0.54,0,0.92,0.11,1.14,0.32c0.22,0.22,0.32,0.56,0.32,1.04v13.58c0,0.46-0.11,0.81-0.32,1.03c-0.22,0.22-0.6,0.34-1.14,0.34
			h-2.86C223.62,472.15,223.24,472.04,223.03,471.82z"/>
		<path d="M230.47,471.82c-0.22-0.22-0.32-0.57-0.32-1.03V457.2c0-0.46,0.11-0.81,0.32-1.03c0.21-0.22,0.59-0.34,1.12-0.34h7.27
			c1.95,0,3.39,0.42,4.31,1.25c0.92,0.83,1.38,2.02,1.38,3.55c0,0.72-0.16,1.36-0.47,1.91c-0.31,0.55-0.72,0.94-1.24,1.16
			c1.42,0.48,2.14,1.6,2.14,3.36c0,1.5-0.53,2.73-1.6,3.67c-1.06,0.94-2.63,1.42-4.69,1.42h-7.1
			C231.06,472.15,230.68,472.04,230.47,471.82z M237.7,462c0.74,0,1.1-0.35,1.1-1.06s-0.37-1.06-1.1-1.06h-1.82V462H237.7z
			 M238.11,468.1c0.34,0,0.61-0.11,0.82-0.32c0.21-0.22,0.31-0.51,0.31-0.88c0-0.38-0.1-0.68-0.3-0.89s-0.48-0.31-0.83-0.31h-2.23
			v2.4H238.11z"/>
		<path d="M246.5,471.82c-0.21-0.22-0.32-0.57-0.32-1.03V457.2c0-0.46,0.11-0.81,0.32-1.03c0.22-0.22,0.59-0.34,1.12-0.34h2.86
			c0.54,0,0.92,0.11,1.14,0.32s0.32,0.56,0.32,1.04v10.87h5.59c0.51,0,0.86,0.11,1.04,0.32s0.28,0.56,0.28,1.04v1.34
			c0,0.48-0.09,0.83-0.28,1.04s-0.53,0.32-1.04,0.32h-9.91C247.09,472.15,246.72,472.04,246.5,471.82z"/>
		<path d="M259.53,471.82c-0.22-0.22-0.32-0.57-0.32-1.03V457.2c0-0.46,0.11-0.81,0.32-1.03c0.22-0.22,0.59-0.34,1.12-0.34h9.94
			c0.51,0,0.86,0.11,1.04,0.32s0.28,0.56,0.28,1.04v1.34c0,0.48-0.09,0.83-0.28,1.04c-0.18,0.22-0.53,0.32-1.04,0.32h-5.62v2.06
			h3.46c0.51,0,0.86,0.11,1.04,0.32c0.18,0.22,0.28,0.56,0.28,1.04v1.3c0,0.48-0.09,0.83-0.28,1.04c-0.18,0.22-0.53,0.32-1.04,0.32
			h-3.46v2.06h5.59c0.51,0,0.86,0.11,1.04,0.32c0.18,0.22,0.28,0.56,0.28,1.04v1.34c0,0.48-0.09,0.83-0.28,1.04
			c-0.18,0.22-0.53,0.32-1.04,0.32h-9.91C260.12,472.15,259.75,472.04,259.53,471.82z"/>
		<path d="M276.03,472.06c-1.25-0.3-2.26-0.73-3.02-1.27c-0.32-0.22-0.48-0.44-0.48-0.65c0-0.14,0.06-0.3,0.17-0.46l1.39-2.18
			c0.14-0.21,0.29-0.31,0.43-0.31c0.13,0,0.28,0.06,0.46,0.17c0.58,0.35,1.24,0.63,1.98,0.83s1.47,0.3,2.17,0.3
			c0.59,0,1.02-0.08,1.28-0.24c0.26-0.16,0.4-0.41,0.4-0.74c0-0.37-0.18-0.66-0.53-0.89c-0.35-0.22-0.96-0.5-1.82-0.84
			c-1.62-0.62-2.89-1.33-3.82-2.12c-0.93-0.79-1.39-1.84-1.39-3.16c0-1.66,0.58-2.92,1.74-3.76s2.72-1.26,4.69-1.26
			c1.38,0,2.55,0.12,3.52,0.36c0.97,0.24,1.81,0.62,2.53,1.13c0.32,0.22,0.48,0.44,0.48,0.65c0,0.14-0.06,0.3-0.17,0.46l-1.39,2.18
			c-0.14,0.22-0.29,0.34-0.43,0.34c-0.1,0-0.25-0.06-0.46-0.19c-0.38-0.26-0.84-0.47-1.37-0.64c-0.53-0.17-1.1-0.25-1.71-0.25
			c-0.56,0-0.98,0.08-1.27,0.24c-0.29,0.16-0.43,0.42-0.43,0.77c0,0.29,0.1,0.53,0.3,0.72s0.45,0.36,0.76,0.49s0.83,0.36,1.58,0.66
			c1.2,0.48,2.14,0.94,2.83,1.38c0.69,0.44,1.21,0.97,1.56,1.58s0.53,1.4,0.53,2.34c0,1.44-0.54,2.6-1.62,3.49
			c-1.08,0.89-2.69,1.33-4.84,1.33C278.63,472.51,277.28,472.36,276.03,472.06z"/>
		<path d="M127.37,500.45c0-0.14,0.04-0.32,0.12-0.53l5.98-14.38c0.14-0.34,0.31-0.57,0.49-0.71c0.18-0.14,0.44-0.2,0.78-0.2h2.62
			c0.34,0,0.6,0.07,0.78,0.2c0.18,0.14,0.35,0.37,0.49,0.71l5.95,14.38c0.08,0.21,0.12,0.38,0.12,0.53c0,0.34-0.18,0.5-0.53,0.5
			h-4.51c-0.5,0-0.81-0.22-0.94-0.65l-0.58-1.78h-4.25l-0.55,1.78c-0.13,0.43-0.44,0.65-0.94,0.65h-4.51
			C127.54,500.95,127.37,500.78,127.37,500.45z M136.96,494.74l-0.94-2.98l-0.94,2.98H136.96z"/>
		<path d="M145.62,500.62c-0.21-0.22-0.32-0.57-0.32-1.03v-13.61c0-0.46,0.11-0.8,0.32-1.02c0.22-0.22,0.6-0.32,1.14-0.32h2.76
			c0.35,0,0.63,0.04,0.84,0.13c0.21,0.09,0.37,0.26,0.48,0.52l2.81,7.03l2.81-7.03c0.11-0.26,0.27-0.43,0.48-0.52
			c0.21-0.09,0.49-0.13,0.84-0.13h2.76c0.54,0,0.92,0.11,1.14,0.32c0.22,0.22,0.32,0.56,0.32,1.02v13.61c0,0.46-0.11,0.81-0.32,1.03
			c-0.22,0.22-0.59,0.34-1.12,0.34h-2.3c-0.53,0-0.9-0.11-1.13-0.34c-0.22-0.22-0.34-0.57-0.34-1.03v-6.55l-1.42,3.26
			c-0.19,0.46-0.4,0.8-0.62,1c-0.22,0.2-0.59,0.3-1.1,0.3s-0.88-0.1-1.1-0.3c-0.22-0.2-0.43-0.53-0.62-1l-1.42-3.26v6.55
			c0,0.46-0.11,0.81-0.32,1.03c-0.22,0.22-0.6,0.34-1.14,0.34h-2.3C146.21,500.95,145.83,500.84,145.62,500.62z"/>
		<path d="M164,500.62c-0.22-0.22-0.32-0.57-0.32-1.03V486c0-0.46,0.11-0.81,0.32-1.03c0.21-0.22,0.59-0.34,1.12-0.34h9.94
			c0.51,0,0.86,0.11,1.04,0.32c0.18,0.22,0.28,0.56,0.28,1.04v1.34c0,0.48-0.09,0.83-0.28,1.04c-0.18,0.22-0.53,0.32-1.04,0.32
			h-5.62v2.06h3.46c0.51,0,0.86,0.11,1.04,0.32c0.18,0.22,0.28,0.56,0.28,1.04v1.3c0,0.48-0.09,0.83-0.28,1.04s-0.53,0.32-1.04,0.32
			h-3.46v2.06h5.59c0.51,0,0.86,0.11,1.04,0.32s0.28,0.56,0.28,1.04v1.34c0,0.48-0.09,0.83-0.28,1.04s-0.53,0.32-1.04,0.32h-9.91
			C164.59,500.95,164.22,500.84,164,500.62z"/>
		<path d="M177.78,500.62c-0.22-0.22-0.32-0.57-0.32-1.03v-13.61c0-0.46,0.11-0.8,0.32-1.02s0.6-0.32,1.14-0.32h2.28
			c0.34,0,0.6,0.04,0.78,0.13c0.18,0.09,0.36,0.26,0.54,0.52l4.34,6.46V486c0-0.46,0.11-0.81,0.32-1.03
			c0.22-0.22,0.59-0.34,1.12-0.34h2.86c0.54,0,0.92,0.11,1.14,0.32c0.22,0.22,0.32,0.56,0.32,1.04v13.61c0,0.46-0.11,0.8-0.32,1.02
			c-0.22,0.22-0.6,0.32-1.14,0.32h-2.28c-0.34,0-0.6-0.04-0.78-0.13c-0.18-0.09-0.36-0.26-0.54-0.52l-4.34-6.46v5.76
			c0,0.46-0.11,0.8-0.32,1.02c-0.21,0.22-0.6,0.32-1.14,0.32h-2.86C178.37,500.95,177.99,500.84,177.78,500.62z"/>
		<path d="M193.82,500.45c0-0.14,0.04-0.32,0.12-0.53l5.98-14.38c0.14-0.34,0.31-0.57,0.49-0.71c0.18-0.14,0.44-0.2,0.78-0.2h2.62
			c0.34,0,0.6,0.07,0.78,0.2c0.18,0.14,0.35,0.37,0.49,0.71l5.95,14.38c0.08,0.21,0.12,0.38,0.12,0.53c0,0.34-0.18,0.5-0.53,0.5
			h-4.51c-0.5,0-0.81-0.22-0.94-0.65l-0.58-1.78h-4.25l-0.55,1.78c-0.13,0.43-0.44,0.65-0.94,0.65h-4.51
			C194,500.95,193.82,500.78,193.82,500.45z M203.42,494.74l-0.94-2.98l-0.94,2.98H203.42z"/>
		<path d="M211.75,500.68c-0.16-0.18-0.24-0.52-0.24-1.02c0-0.51,0.04-0.91,0.13-1.2s0.31-0.66,0.66-1.13l6.31-8.62h-5.54
			c-0.53,0-0.9-0.11-1.12-0.34c-0.22-0.22-0.32-0.57-0.32-1.03V486c0-0.46,0.11-0.81,0.32-1.03c0.22-0.22,0.59-0.34,1.12-0.34h11.86
			c0.48,0,0.8,0.09,0.96,0.28s0.24,0.52,0.24,1.02c0,0.5-0.04,0.89-0.13,1.18c-0.09,0.29-0.31,0.67-0.66,1.15l-6.26,8.62h5.66
			c0.53,0,0.9,0.11,1.12,0.34c0.21,0.22,0.32,0.57,0.32,1.03v1.34c0,0.46-0.11,0.81-0.32,1.03c-0.22,0.22-0.59,0.34-1.12,0.34
			h-12.02C212.23,500.95,211.91,500.86,211.75,500.68z"/>
		<path d="M226.29,500.45c0-0.14,0.04-0.32,0.12-0.53l5.98-14.38c0.14-0.34,0.31-0.57,0.49-0.71c0.18-0.14,0.44-0.2,0.78-0.2h2.62
			c0.34,0,0.6,0.07,0.78,0.2c0.18,0.14,0.35,0.37,0.49,0.71l5.95,14.38c0.08,0.21,0.12,0.38,0.12,0.53c0,0.34-0.18,0.5-0.53,0.5
			h-4.51c-0.5,0-0.81-0.22-0.94-0.65l-0.58-1.78h-4.25l-0.55,1.78c-0.13,0.43-0.44,0.65-0.94,0.65h-4.51
			C226.47,500.95,226.29,500.78,226.29,500.45z M235.89,494.74l-0.94-2.98l-0.94,2.98H235.89z"/>
		<path d="M246.79,500.86c-1.25-0.3-2.26-0.73-3.02-1.27c-0.32-0.22-0.48-0.44-0.48-0.65c0-0.14,0.06-0.3,0.17-0.46l1.39-2.18
			c0.14-0.21,0.29-0.31,0.43-0.31c0.13,0,0.28,0.06,0.46,0.17c0.58,0.35,1.24,0.63,1.98,0.83s1.47,0.3,2.17,0.3
			c0.59,0,1.02-0.08,1.28-0.24c0.26-0.16,0.4-0.41,0.4-0.74c0-0.37-0.18-0.66-0.53-0.89c-0.35-0.22-0.96-0.5-1.82-0.84
			c-1.62-0.62-2.89-1.33-3.82-2.12s-1.39-1.84-1.39-3.16c0-1.66,0.58-2.92,1.74-3.76c1.16-0.84,2.72-1.26,4.69-1.26
			c1.38,0,2.55,0.12,3.52,0.36c0.97,0.24,1.81,0.62,2.53,1.13c0.32,0.22,0.48,0.44,0.48,0.65c0,0.14-0.06,0.3-0.17,0.46l-1.39,2.18
			c-0.14,0.22-0.29,0.34-0.43,0.34c-0.1,0-0.25-0.06-0.46-0.19c-0.38-0.26-0.84-0.47-1.37-0.64c-0.53-0.17-1.1-0.25-1.7-0.25
			c-0.56,0-0.98,0.08-1.27,0.24c-0.29,0.16-0.43,0.42-0.43,0.77c0,0.29,0.1,0.53,0.3,0.72c0.2,0.19,0.45,0.36,0.76,0.49
			c0.3,0.14,0.83,0.36,1.58,0.66c1.2,0.48,2.14,0.94,2.83,1.38s1.21,0.97,1.56,1.58c0.35,0.62,0.53,1.4,0.53,2.34
			c0,1.44-0.54,2.6-1.62,3.49c-1.08,0.89-2.69,1.33-4.84,1.33C249.39,501.31,248.04,501.16,246.79,500.86z"/>
		<path d="M105.32,529.42c-0.22-0.22-0.32-0.57-0.32-1.03V514.8c0-0.46,0.11-0.81,0.32-1.03c0.22-0.22,0.59-0.34,1.12-0.34h5.52
			c5.65,0,8.47,2.72,8.47,8.16c0,2.69-0.72,4.72-2.17,6.1c-1.45,1.38-3.55,2.06-6.3,2.06h-5.52
			C105.91,529.75,105.54,529.64,105.32,529.42z M112.17,525.67c0.9,0,1.54-0.3,1.93-0.89c0.39-0.59,0.59-1.66,0.59-3.19
			s-0.2-2.6-0.59-3.19c-0.39-0.59-1.04-0.89-1.93-0.89h-1.42v8.16H112.17z"/>
		<path d="M121.95,529.42c-0.22-0.22-0.32-0.57-0.32-1.03V514.8c0-0.46,0.11-0.81,0.32-1.03c0.22-0.22,0.59-0.34,1.12-0.34h9.94
			c0.51,0,0.86,0.11,1.04,0.32s0.28,0.56,0.28,1.04v1.34c0,0.48-0.09,0.83-0.28,1.04c-0.18,0.22-0.53,0.32-1.04,0.32h-5.62v2.06
			h3.46c0.51,0,0.86,0.11,1.04,0.32c0.18,0.22,0.28,0.56,0.28,1.04v1.3c0,0.48-0.09,0.83-0.28,1.04c-0.18,0.22-0.53,0.32-1.04,0.32
			h-3.46v2.06h5.59c0.51,0,0.86,0.11,1.04,0.32c0.18,0.22,0.28,0.56,0.28,1.04v1.34c0,0.48-0.09,0.83-0.28,1.04
			c-0.18,0.22-0.53,0.32-1.04,0.32h-9.91C122.54,529.75,122.17,529.64,121.95,529.42z"/>
		<path d="M145.65,529.66c-1.25-0.3-2.26-0.73-3.03-1.27c-0.32-0.22-0.48-0.44-0.48-0.65c0-0.14,0.06-0.3,0.17-0.46l1.39-2.18
			c0.14-0.21,0.29-0.31,0.43-0.31c0.13,0,0.28,0.06,0.46,0.17c0.58,0.35,1.24,0.63,1.98,0.83s1.47,0.3,2.17,0.3
			c0.59,0,1.02-0.08,1.28-0.24c0.26-0.16,0.4-0.41,0.4-0.74c0-0.37-0.18-0.66-0.53-0.89c-0.35-0.22-0.96-0.5-1.82-0.84
			c-1.62-0.62-2.89-1.33-3.82-2.12s-1.39-1.84-1.39-3.16c0-1.66,0.58-2.92,1.74-3.76s2.72-1.26,4.69-1.26
			c1.38,0,2.55,0.12,3.52,0.36c0.97,0.24,1.81,0.62,2.53,1.13c0.32,0.22,0.48,0.44,0.48,0.65c0,0.14-0.06,0.3-0.17,0.46l-1.39,2.18
			c-0.14,0.22-0.29,0.34-0.43,0.34c-0.1,0-0.25-0.06-0.46-0.19c-0.38-0.26-0.84-0.47-1.37-0.64c-0.53-0.17-1.1-0.25-1.7-0.25
			c-0.56,0-0.98,0.08-1.27,0.24c-0.29,0.16-0.43,0.42-0.43,0.77c0,0.29,0.1,0.53,0.3,0.72c0.2,0.19,0.45,0.36,0.76,0.49
			c0.3,0.14,0.83,0.36,1.58,0.66c1.2,0.48,2.14,0.94,2.83,1.38c0.69,0.44,1.21,0.97,1.56,1.58c0.35,0.62,0.53,1.4,0.53,2.34
			c0,1.44-0.54,2.6-1.62,3.49c-1.08,0.89-2.69,1.33-4.84,1.33C148.25,530.11,146.9,529.96,145.65,529.66z"/>
		<path d="M157.69,529.42c-0.22-0.22-0.32-0.57-0.32-1.03V514.8c0-0.46,0.11-0.81,0.32-1.03c0.22-0.22,0.59-0.34,1.12-0.34h9.94
			c0.51,0,0.86,0.11,1.04,0.32s0.28,0.56,0.28,1.04v1.34c0,0.48-0.09,0.83-0.28,1.04c-0.18,0.22-0.53,0.32-1.04,0.32h-5.62v2.06
			h3.46c0.51,0,0.86,0.11,1.04,0.32c0.18,0.22,0.28,0.56,0.28,1.04v1.3c0,0.48-0.09,0.83-0.28,1.04s-0.53,0.32-1.04,0.32h-3.46v2.06
			h5.59c0.51,0,0.86,0.11,1.04,0.32c0.18,0.22,0.28,0.56,0.28,1.04v1.34c0,0.48-0.09,0.83-0.28,1.04c-0.18,0.22-0.53,0.32-1.04,0.32
			h-9.91C158.28,529.75,157.91,529.64,157.69,529.42z"/>
		<path d="M172.01,527.96c-1.62-1.43-2.42-3.56-2.42-6.37c0-2.8,0.81-4.92,2.42-6.36c1.62-1.44,3.87-2.16,6.77-2.16
			c1.31,0,2.49,0.13,3.53,0.38c1.04,0.26,1.9,0.62,2.59,1.08c0.19,0.14,0.29,0.3,0.29,0.48c0,0.14-0.07,0.34-0.22,0.6l-1.2,2.06
			c-0.13,0.22-0.28,0.34-0.46,0.34c-0.11,0-0.29-0.06-0.55-0.19c-0.96-0.48-2.02-0.72-3.17-0.72c-1.33,0-2.37,0.38-3.13,1.14
			s-1.14,1.88-1.14,3.35c0,1.52,0.32,2.64,0.96,3.37c0.64,0.73,1.59,1.09,2.86,1.09c0.22,0,0.48-0.02,0.76-0.06
			c0.28-0.04,0.51-0.08,0.68-0.13v-2.18h-1.54c-0.51,0-0.86-0.1-1.04-0.3c-0.18-0.2-0.28-0.54-0.28-1.02v-1.32
			c0-0.48,0.09-0.82,0.28-1.02c0.18-0.2,0.53-0.3,1.04-0.3h5.16c0.62,0,1.06,0.14,1.3,0.42c0.24,0.28,0.36,0.72,0.36,1.33v5.62
			c0,0.35-0.04,0.62-0.13,0.8c-0.09,0.18-0.26,0.37-0.52,0.56c-1.54,1.1-3.67,1.66-6.41,1.66
			C175.88,530.11,173.62,529.4,172.01,527.96z"/>
		<path d="M190.68,529.36c-1.18-0.5-2.1-1.23-2.76-2.18c-0.66-0.95-0.98-2.08-0.98-3.4v-8.98c0-0.46,0.11-0.81,0.32-1.03
			c0.22-0.22,0.59-0.34,1.12-0.34h2.86c0.54,0,0.92,0.11,1.14,0.32c0.22,0.22,0.32,0.56,0.32,1.04v9.05c0,0.75,0.19,1.31,0.56,1.68
			s0.89,0.55,1.55,0.55s1.17-0.18,1.55-0.55c0.38-0.37,0.56-0.93,0.56-1.68v-9.05c0-0.46,0.11-0.81,0.32-1.03
			c0.22-0.22,0.59-0.34,1.12-0.34h2.86c0.54,0,0.92,0.11,1.14,0.32c0.21,0.22,0.32,0.56,0.32,1.04v8.98c0,1.31-0.33,2.44-0.98,3.4
			c-0.66,0.95-1.58,1.68-2.76,2.18c-1.19,0.5-2.56,0.76-4.13,0.76S191.86,529.86,190.68,529.36z"/>
		<path d="M204.56,529.42c-0.22-0.22-0.32-0.57-0.32-1.03V514.8c0-0.46,0.11-0.81,0.32-1.03c0.22-0.22,0.59-0.34,1.12-0.34h5.74
			c2.4,0,4.15,0.48,5.24,1.43s1.64,2.39,1.64,4.31c0,1.15-0.2,2.12-0.59,2.92c-0.39,0.79-1,1.41-1.81,1.86l2.23,4.78
			c0.06,0.13,0.1,0.27,0.1,0.43c0,0.18-0.06,0.32-0.18,0.43c-0.12,0.11-0.28,0.17-0.47,0.17h-4.06c-0.26,0-0.46-0.04-0.61-0.11
			c-0.15-0.07-0.26-0.2-0.32-0.37l-1.78-4.46H210v3.58c0,0.46-0.11,0.81-0.32,1.03c-0.21,0.22-0.6,0.34-1.14,0.34h-2.86
			C205.15,529.75,204.78,529.64,204.56,529.42z M210.91,520.8c0.51,0,0.92-0.14,1.21-0.41c0.29-0.27,0.44-0.68,0.44-1.22
			c0-0.56-0.15-0.98-0.44-1.25c-0.3-0.27-0.7-0.41-1.21-0.41h-1.63v3.29H210.91z"/>
		<path d="M219.82,529.42c-0.22-0.22-0.32-0.57-0.32-1.03V514.8c0-0.46,0.11-0.81,0.32-1.03c0.22-0.22,0.59-0.34,1.12-0.34h2.86
			c0.54,0,0.92,0.11,1.14,0.32c0.22,0.22,0.32,0.56,0.32,1.04v13.58c0,0.46-0.11,0.81-0.32,1.03c-0.21,0.22-0.6,0.34-1.14,0.34
			h-2.86C220.41,529.75,220.04,529.64,219.82,529.42z"/>
		<path d="M227.26,529.42c-0.21-0.22-0.32-0.57-0.32-1.03V514.8c0-0.46,0.11-0.81,0.32-1.03c0.22-0.22,0.59-0.34,1.12-0.34h5.52
			c5.65,0,8.47,2.72,8.47,8.16c0,2.69-0.72,4.72-2.17,6.1c-1.45,1.38-3.55,2.06-6.3,2.06h-5.52
			C227.85,529.75,227.48,529.64,227.26,529.42z M234.12,525.67c0.9,0,1.54-0.3,1.93-0.89c0.39-0.59,0.59-1.66,0.59-3.19
			s-0.2-2.6-0.59-3.19c-0.39-0.59-1.04-0.89-1.93-0.89h-1.42v8.16H234.12z"/>
		<path d="M242.01,529.25c0-0.14,0.04-0.32,0.12-0.53l5.98-14.38c0.14-0.34,0.31-0.57,0.49-0.71c0.18-0.14,0.44-0.2,0.78-0.2H252
			c0.34,0,0.6,0.07,0.78,0.2c0.18,0.14,0.35,0.37,0.49,0.71l5.95,14.38c0.08,0.21,0.12,0.38,0.12,0.53c0,0.34-0.18,0.5-0.53,0.5
			h-4.51c-0.5,0-0.81-0.22-0.94-0.65l-0.58-1.78h-4.25l-0.55,1.78c-0.13,0.43-0.44,0.65-0.94,0.65h-4.51
			C242.19,529.75,242.01,529.58,242.01,529.25z M251.61,523.54l-0.94-2.98l-0.94,2.98H251.61z"/>
		<path d="M260.86,529.42c-0.22-0.22-0.32-0.57-0.32-1.03V514.8c0-0.46,0.11-0.81,0.32-1.03c0.22-0.22,0.59-0.34,1.12-0.34h5.52
			c5.65,0,8.47,2.72,8.47,8.16c0,2.69-0.72,4.72-2.17,6.1c-1.45,1.38-3.55,2.06-6.3,2.06h-5.52
			C261.45,529.75,261.08,529.64,260.86,529.42z M267.72,525.67c0.9,0,1.54-0.3,1.93-0.89c0.39-0.59,0.59-1.66,0.59-3.19
			s-0.2-2.6-0.59-3.19c-0.39-0.59-1.04-0.89-1.93-0.89h-1.42v8.16H267.72z"/>
		<path d="M277.09,529.31c-0.26-0.3-0.4-0.64-0.4-1.04v-0.6c0-0.43,0.13-0.79,0.4-1.07c0.26-0.28,0.6-0.42,1.02-0.42h0.63
			c0.42,0,0.76,0.14,1.02,0.42c0.26,0.28,0.4,0.64,0.4,1.07v0.6c0,0.42-0.13,0.77-0.4,1.06s-0.6,0.43-1.02,0.43h-0.63
			C277.69,529.75,277.35,529.6,277.09,529.31z"/>
	</g>
	<polygon class="st6" points="191.26,81.93 204.73,109.22 234.84,113.59 213.05,134.83 218.2,164.83 191.26,150.67 164.33,164.83 
		169.47,134.83 147.68,113.59 177.79,109.22 	"/>
	<polygon class="st6" points="129.08,165.15 137.82,182.86 157.36,185.7 143.22,199.48 146.56,218.94 129.08,209.75 111.61,218.94 
		114.95,199.48 100.81,185.7 120.35,182.86 	"/>
	<polygon class="st6" points="259.18,165.15 267.92,182.86 287.45,185.7 273.32,199.48 276.65,218.94 259.18,209.75 241.7,218.94 
		245.04,199.48 230.9,185.7 250.44,182.86 	"/>
	<circle class="st7" cx="192.27" cy="198.97" r="121.96"/>
	<circle class="st1" cx="191.32" cy="185.58" r="121.96"/>
	<g>
		<path class="st1" d="M174.67,629.07c-3.43-0.78-6.17-1.87-8.21-3.29c-0.58-0.44-0.88-0.92-0.88-1.46c0-0.44,0.22-1.05,0.66-1.82
			l3.65-6.28c0.39-0.68,0.85-1.02,1.39-1.02c0.34,0,0.9,0.2,1.68,0.58c1.27,0.63,2.81,1.16,4.64,1.57c1.82,0.41,3.64,0.62,5.44,0.62
			c2.43,0,4.25-0.37,5.44-1.09c1.19-0.73,1.79-1.85,1.79-3.36c0-2.34-1.58-3.5-4.75-3.5h-5.62c-1.61,0-2.74-0.34-3.39-1.02
			c-0.66-0.68-0.99-1.73-0.99-3.14v-3.94c0-1.41,0.33-2.46,0.99-3.14c0.66-0.68,1.79-1.02,3.39-1.02h4.45c1.61,0,2.77-0.29,3.5-0.88
			s1.1-1.48,1.1-2.7c0-2.34-2.02-3.5-6.06-3.5c-3.26,0-6.35,0.73-9.27,2.19c-0.78,0.39-1.34,0.58-1.68,0.58
			c-0.54,0-1-0.34-1.39-1.02l-3.65-6.28c-0.44-0.78-0.66-1.39-0.66-1.83c0-0.54,0.29-1.02,0.88-1.46c2.09-1.41,4.7-2.51,7.81-3.29
			c3.11-0.78,6.67-1.17,10.66-1.17c4.23,0,7.92,0.62,11.06,1.86c3.14,1.24,5.55,3,7.23,5.29c1.68,2.29,2.52,4.99,2.52,8.1
			c0,4.28-1.49,7.59-4.45,9.93c3.84,2.24,5.77,5.79,5.77,10.66c0,4.92-1.87,8.81-5.62,11.68c-3.75,2.87-9.15,4.31-16.21,4.31
			C181.84,630.24,178.1,629.85,174.67,629.07z"/>
	</g>
	<g>
		<path class="st98" d="M237.5,244h-95c-6.6,0-12-5.4-12-12v-70.08c0-6.6,5.4-12,12-12h95c6.6,0,12,5.4,12,12V232
			C249.5,238.6,244.1,244,237.5,244z"/>
		<path class="st99" d="M187.47,116.64c9.64,0,17.91,14.78,21.44,35.84h9.24C213.31,121.74,201.4,100,187.47,100
			s-25.83,21.74-30.68,52.48h9.24C169.56,131.42,177.83,116.64,187.47,116.64z"/>
		<rect x="183.32" y="176.8" class="st99" width="12.77" height="40.32"/>
		<circle class="st99" cx="189.5" cy="183" r="12"/>
	</g>
</g>
</svg>
