<?xml version="1.0" encoding="utf-8"?>
<!-- Generator: Adobe Illustrator 23.0.0, SVG Export Plug-In . SVG Version: 6.00 Build 0)  -->
<svg version="1.1" id="Capa_1" xmlns="http://www.w3.org/2000/svg" xmlns:xlink="http://www.w3.org/1999/xlink" x="0px" y="0px"
	 viewBox="0 0 400 689" style="enable-background:new 0 0 400 689;" xml:space="preserve">
<style type="text/css">
	.st0{fill:#E2E2E2;}
	.st1{fill:#FFFFFF;}
	.st2{fill:#CCCDCE;}
	.st3{fill:#F2F2F2;}
	.st4{fill:none;}
	.st5{fill:#0085B0;}
	.st6{fill:#E0EF18;}
	.st7{fill:#CECECE;}
	.st8{fill:#22272F;}
	.st9{fill:#1B2538;}
	.st10{fill:#253452;}
	.st11{fill:#F9F9F9;}
	.st12{fill:#2D3543;}
	.st13{fill:#2A3D60;}
	.st14{fill:#6C92D5;}
	.st15{fill:#587955;}
	.st16{fill:#CD7054;}
	.st17{fill:#F1CC4B;}
	.st18{fill:#DFDFDF;}
	.st19{fill:#ACACAC;}
	.st20{fill:#00D13C;}
	.st21{fill:#866A5E;}
	.st22{fill:#F7DDCB;}
	.st23{fill:#FFE6D4;}
	.st24{fill:#2D2D2D;}
	.st25{fill:#1C1B1A;}
	.st26{fill:#F5F5F5;}
	.st27{fill:#77181C;}
	.st28{fill:#EAEAEA;}
	.st29{fill:#262525;}
	.st30{fill:#11100F;}
	.st31{fill:#FFFFFF;stroke:#000000;stroke-width:6;stroke-miterlimit:10;}
	.st32{fill:#D4D4D4;}
	.st33{fill:#C2C2C2;}
	.st34{fill:#505050;}
	.st35{fill:#53C2C9;}
	.st36{fill:#008B9C;}
	.st37{fill:none;stroke:#00550B;stroke-width:4;stroke-miterlimit:10;}
	.st38{fill:#CE2458;}
	.st39{fill:#155500;}
	.st40{fill:#1549FF;}
	.st41{fill:#606060;stroke:#C6C8CC;stroke-width:6;stroke-miterlimit:10;}
	.st42{fill:#727272;}
	.st43{fill:#207235;}
	.st44{fill:#A3A3A3;}
	.st45{fill:#BCBCBC;}
	.st46{fill:#2A5936;}
	.st47{opacity:0.7;fill:#7F7F7F;}
	.st48{fill:#DAA449;}
	.st49{fill:#85B681;}
	.st50{fill:#A1DC9B;}
	.st51{fill:#90C58B;}
	.st52{fill:#DD9225;}
	.st53{opacity:0.3;}
	.st54{fill:#81C378;}
	.st55{opacity:0.5;}
	.st56{fill:#A2CADE;}
	.st57{fill:#9BAEC9;}
	.st58{fill:#9D2B3B;}
	.st59{fill:#C1D4F2;}
	.st60{fill:#534D46;}
	.st61{fill:#191819;}
	.st62{fill:#222123;}
	.st63{fill:#F3FF00;}
	.st64{fill-rule:evenodd;clip-rule:evenodd;fill:#FFFFFF;}
	.st65{fill-rule:evenodd;clip-rule:evenodd;fill:#1996B8;}
	.st66{fill:none;stroke:#5A605A;stroke-width:4;stroke-miterlimit:10;}
	.st67{fill:#FFB412;}
	.st68{fill:#BACDD1;}
	.st69{fill:#1C4D59;}
	.st70{fill:#A14329;}
	.st71{fill:#FCC083;}
	.st72{fill:#E8AA63;}
	.st73{fill:#D40000;}
	.st74{opacity:0.35;fill:#7D7D7D;}
	.st75{fill:#E5E3E3;}
	.st76{fill:#121F5E;}
	.st77{fill:#A3ADAF;}
	.st78{fill:#C2C6C6;}
	.st79{fill:#E5E5E5;stroke:#FFFFFF;stroke-miterlimit:10;}
	.st80{fill:#ACB4B5;}
	.st81{fill:#7F8384;}
	.st82{fill:#282828;}
	.st83{fill:none;stroke:#46A508;stroke-width:6;stroke-miterlimit:10;}
	.st84{fill:none;stroke:#46A508;stroke-width:6;stroke-miterlimit:10;stroke-dasharray:11.7425,11.7425;}
	.st85{fill:#C89D76;}
	.st86{opacity:0.4;}
	.st87{fill:#ADADAD;}
	.st88{fill:#76A172;}
	.st89{fill:#62835F;}
	.st90{fill:#96D090;}
	.st91{fill:#EDC3A6;}
	.st92{opacity:0.69;}
	.st93{fill:#E5D3D6;}
	.st94{opacity:0.44;}
	.st95{fill:#A5A5A5;}
	.st96{fill:#DDE5E4;}
	.st97{fill:#FDFDFD;}
	.st98{fill:#E0C348;}
	.st99{fill:#606060;}
</style>
<g>
	<g>
		<path class="st5" d="M8.5,199.36c0,22,13.29,27.86,29.54,13.03c0,0,156.99-143.3,353.09,26.97V45c0-22-18-40-40-40H48.5
			c-22,0-40,18-40,40V199.36z"/>
	</g>
	<g>
		<path class="st5" d="M390.66,637c0,22-18,40-40,40H48.98c-22,0-40-18-40-40v-46.27c0-22,18-40,40-40h301.68c22,0,40,18,40,40V637z
			"/>
	</g>
	<g>
		<path d="M41.27,383.41c-0.35-0.36-0.53-0.92-0.53-1.68v-22.07c0-0.75,0.18-1.31,0.53-1.68s0.96-0.55,1.81-0.55h4.64
			c0.88,0,1.5,0.18,1.85,0.53c0.35,0.35,0.53,0.92,0.53,1.7v22.07c0,0.75-0.18,1.31-0.53,1.68c-0.35,0.36-0.97,0.55-1.85,0.55h-4.64
			C42.22,383.95,41.62,383.77,41.27,383.41z"/>
		<path d="M53.35,383.41c-0.35-0.36-0.53-0.92-0.53-1.68v-22.11c0-0.75,0.18-1.31,0.53-1.66c0.35-0.35,0.97-0.53,1.85-0.53h3.71
			c0.55,0,0.97,0.07,1.27,0.21c0.3,0.14,0.59,0.42,0.88,0.84l7.06,10.49v-9.32c0-0.75,0.18-1.31,0.53-1.68
			c0.35-0.36,0.96-0.55,1.81-0.55h4.64c0.88,0,1.5,0.18,1.85,0.53c0.35,0.35,0.53,0.92,0.53,1.7v22.11c0,0.75-0.18,1.31-0.53,1.66
			c-0.35,0.35-0.97,0.53-1.85,0.53h-3.7c-0.55,0-0.97-0.07-1.27-0.21c-0.3-0.14-0.59-0.42-0.88-0.84l-7.06-10.49v9.36
			c0,0.75-0.18,1.31-0.53,1.66c-0.35,0.35-0.97,0.53-1.85,0.53h-4.64C54.31,383.95,53.71,383.77,53.35,383.41z"/>
		<path d="M83.37,381.05c-2.63-2.33-3.94-5.78-3.94-10.35c0-4.6,1.27-8.06,3.8-10.37c2.53-2.31,6.16-3.47,10.86-3.47
			c2.13,0,4.03,0.21,5.69,0.62c1.66,0.42,3.05,1,4.17,1.76c0.31,0.23,0.47,0.49,0.47,0.78c0,0.23-0.12,0.56-0.35,0.97l-1.95,3.35
			c-0.21,0.36-0.46,0.55-0.74,0.55c-0.18,0-0.48-0.1-0.9-0.31c-0.73-0.36-1.49-0.65-2.28-0.86c-0.79-0.21-1.72-0.31-2.79-0.31
			c-2.16,0-3.81,0.62-4.95,1.87c-1.14,1.25-1.72,3.05-1.72,5.42c0,2.34,0.62,4.14,1.87,5.4c1.25,1.26,2.95,1.89,5.11,1.89
			c1.87,0,3.59-0.39,5.15-1.17c0.42-0.21,0.71-0.31,0.9-0.31c0.29,0,0.53,0.18,0.74,0.55l1.95,3.35c0.23,0.42,0.35,0.74,0.35,0.97
			c0,0.29-0.16,0.55-0.47,0.78c-1.12,0.75-2.52,1.34-4.21,1.75c-1.69,0.42-3.6,0.62-5.73,0.62
			C89.67,384.54,85.99,383.37,83.37,381.05z"/>
		<path d="M107.29,383.41c-0.35-0.36-0.53-0.92-0.53-1.68v-22.07c0-0.75,0.18-1.31,0.53-1.68s0.96-0.55,1.81-0.55h4.64
			c0.88,0,1.5,0.18,1.85,0.53c0.35,0.35,0.53,0.92,0.53,1.7v17.67h9.09c0.83,0,1.4,0.18,1.7,0.53s0.45,0.92,0.45,1.7v2.18
			c0,0.78-0.15,1.34-0.45,1.7c-0.3,0.35-0.86,0.53-1.7,0.53h-16.11C108.25,383.95,107.64,383.77,107.29,383.41z"/>
		<path d="M133.05,383.31c-1.92-0.82-3.42-2-4.48-3.55c-1.07-1.55-1.6-3.39-1.6-5.52v-14.59c0-0.75,0.18-1.31,0.53-1.68
			c0.35-0.36,0.96-0.55,1.81-0.55h4.64c0.88,0,1.5,0.18,1.85,0.53c0.35,0.35,0.53,0.92,0.53,1.7v14.7c0,1.22,0.31,2.13,0.92,2.73
			c0.61,0.6,1.45,0.9,2.52,0.9c1.07,0,1.9-0.3,2.52-0.9c0.61-0.6,0.92-1.51,0.92-2.73v-14.7c0-0.75,0.18-1.31,0.53-1.68
			s0.96-0.55,1.81-0.55h4.64c0.88,0,1.5,0.18,1.85,0.53c0.35,0.35,0.53,0.92,0.53,1.7v14.59c0,2.13-0.53,3.97-1.6,5.52
			c-1.07,1.55-2.56,2.73-4.48,3.55c-1.92,0.82-4.16,1.23-6.71,1.23C137.21,384.54,134.98,384.13,133.05,383.31z"/>
		<path d="M162.83,383.41c-0.35-0.36-0.53-0.92-0.53-1.68v-7.06l-9.09-15.56c-0.16-0.29-0.23-0.56-0.23-0.82
			c0-0.57,0.3-0.86,0.9-0.86h7.33c0.39,0,0.69,0.09,0.9,0.25c0.21,0.17,0.42,0.44,0.62,0.8l4.25,7.64l4.25-7.64
			c0.21-0.36,0.42-0.63,0.62-0.8c0.21-0.17,0.51-0.25,0.9-0.25h7.33c0.6,0,0.9,0.29,0.9,0.86c0,0.26-0.08,0.53-0.23,0.82
			l-9.09,15.56v7.06c0,0.75-0.18,1.31-0.53,1.68c-0.35,0.36-0.97,0.55-1.85,0.55h-4.64C163.78,383.95,163.18,383.77,162.83,383.41z"
			/>
		<path d="M183.5,383.41c-0.35-0.36-0.53-0.92-0.53-1.68v-22.07c0-0.75,0.18-1.31,0.53-1.68s0.96-0.55,1.81-0.55h16.15
			c0.83,0,1.4,0.18,1.7,0.53c0.3,0.35,0.45,0.92,0.45,1.7v2.18c0,0.78-0.15,1.34-0.45,1.7c-0.3,0.35-0.86,0.53-1.7,0.53h-9.13v3.35
			h5.62c0.83,0,1.4,0.18,1.7,0.53c0.3,0.35,0.45,0.92,0.45,1.7v2.11c0,0.78-0.15,1.35-0.45,1.7c-0.3,0.35-0.86,0.53-1.7,0.53h-5.62
			v3.35h9.09c0.83,0,1.4,0.18,1.7,0.53s0.45,0.92,0.45,1.7v2.18c0,0.78-0.15,1.34-0.45,1.7c-0.3,0.35-0.86,0.53-1.7,0.53h-16.11
			C184.45,383.95,183.85,383.77,183.5,383.41z"/>
		<path d="M217.58,383.41c-0.35-0.36-0.53-0.92-0.53-1.68v-22.07c0-0.75,0.18-1.31,0.53-1.68s0.96-0.55,1.81-0.55h9.32
			c3.9,0,6.74,0.77,8.52,2.32c1.78,1.55,2.67,3.88,2.67,7s-0.89,5.45-2.67,6.98c-1.78,1.53-4.61,2.3-8.48,2.3h-2.34v5.69
			c0,0.75-0.18,1.31-0.53,1.68c-0.35,0.36-0.97,0.55-1.85,0.55h-4.64C218.54,383.95,217.93,383.77,217.58,383.41z M227.9,369.41
			c0.83,0,1.49-0.22,1.97-0.66c0.48-0.44,0.72-1.1,0.72-1.99c0-0.91-0.24-1.58-0.72-2.03s-1.14-0.66-1.97-0.66h-2.65v5.34H227.9z"/>
		<path d="M242.91,380.93c-2.39-2.4-3.59-5.82-3.59-10.24s1.2-7.83,3.59-10.24s5.9-3.61,10.53-3.61c4.63,0,8.14,1.2,10.53,3.61
			s3.59,5.82,3.59,10.24s-1.2,7.83-3.59,10.24c-2.39,2.41-5.9,3.61-10.53,3.61C248.82,384.54,245.31,383.33,242.91,380.93z
			 M257.11,376.17c0.75-1.21,1.13-3.04,1.13-5.48c0-2.47-0.38-4.3-1.13-5.5c-0.75-1.2-1.98-1.79-3.67-1.79
			c-1.69,0-2.91,0.6-3.67,1.79c-0.75,1.2-1.13,3.03-1.13,5.5c0,2.44,0.38,4.27,1.13,5.48c0.75,1.21,1.98,1.81,3.67,1.81
			C255.13,377.99,256.36,377.38,257.11,376.17z"/>
		<path d="M270.04,383.41c-0.35-0.36-0.53-0.92-0.53-1.68v-22.07c0-0.75,0.18-1.31,0.53-1.68s0.96-0.55,1.81-0.55h9.32
			c3.9,0,6.74,0.77,8.52,2.32c1.78,1.55,2.67,3.88,2.67,7c0,1.87-0.32,3.45-0.96,4.74c-0.64,1.29-1.62,2.29-2.94,3.02l3.63,7.76
			c0.1,0.21,0.16,0.44,0.16,0.7c0,0.29-0.1,0.52-0.29,0.7c-0.2,0.18-0.45,0.27-0.76,0.27h-6.59c-0.42,0-0.75-0.06-0.99-0.18
			s-0.42-0.32-0.53-0.6l-2.89-7.25h-1.33v5.81c0,0.75-0.18,1.31-0.53,1.68c-0.35,0.36-0.97,0.55-1.85,0.55h-4.64
			C270.99,383.95,270.39,383.77,270.04,383.41z M280.35,369.41c0.83,0,1.49-0.22,1.97-0.66c0.48-0.44,0.72-1.1,0.72-1.99
			c0-0.91-0.24-1.58-0.72-2.03s-1.14-0.66-1.97-0.66h-2.65v5.34H280.35z"/>
		<path d="M299.68,383.41c-0.35-0.36-0.53-0.92-0.53-1.68v-17.67h-5.62c-0.83,0-1.4-0.18-1.7-0.53c-0.3-0.35-0.45-0.92-0.45-1.7
			v-2.18c0-0.78,0.15-1.35,0.45-1.7c0.3-0.35,0.86-0.53,1.7-0.53h20.59c0.83,0,1.4,0.18,1.7,0.53c0.3,0.35,0.45,0.92,0.45,1.7v2.18
			c0,0.78-0.15,1.34-0.45,1.7c-0.3,0.35-0.86,0.53-1.7,0.53h-5.62v17.67c0,0.75-0.18,1.31-0.53,1.68s-0.97,0.55-1.85,0.55h-4.64
			C300.63,383.95,300.03,383.77,299.68,383.41z"/>
		<path d="M311.79,383.13c0-0.23,0.06-0.52,0.19-0.86l9.71-23.36c0.23-0.55,0.5-0.93,0.8-1.15c0.3-0.22,0.72-0.33,1.27-0.33h4.25
			c0.55,0,0.97,0.11,1.27,0.33c0.3,0.22,0.57,0.6,0.8,1.15l9.67,23.36c0.13,0.34,0.2,0.62,0.2,0.86c0,0.55-0.29,0.82-0.86,0.82
			h-7.33c-0.81,0-1.31-0.35-1.52-1.05l-0.94-2.89h-6.9l-0.9,2.89c-0.21,0.7-0.72,1.05-1.52,1.05h-7.33
			C312.07,383.95,311.79,383.68,311.79,383.13z M327.39,373.85l-1.52-4.84l-1.52,4.84H327.39z"/>
		<path d="M342.42,383.41c-0.35-0.36-0.53-0.92-0.53-1.68v-22.07c0-0.75,0.17-1.31,0.53-1.68s0.96-0.55,1.81-0.55h4.64
			c0.88,0,1.5,0.18,1.85,0.53c0.35,0.35,0.53,0.92,0.53,1.7v17.67h9.09c0.83,0,1.4,0.18,1.7,0.53s0.45,0.92,0.45,1.7v2.18
			c0,0.78-0.15,1.34-0.45,1.7c-0.3,0.35-0.87,0.53-1.7,0.53h-16.11C343.38,383.95,342.77,383.77,342.42,383.41z"/>
		<path d="M82.18,430.21c-0.35-0.36-0.53-0.92-0.53-1.68v-22.07c0-0.75,0.18-1.31,0.53-1.68s0.96-0.55,1.81-0.55h9.32
			c3.9,0,6.74,0.77,8.52,2.32c1.78,1.55,2.67,3.88,2.67,7s-0.89,5.45-2.67,6.98c-1.78,1.53-4.61,2.3-8.48,2.3h-2.34v5.69
			c0,0.75-0.18,1.31-0.53,1.68c-0.35,0.36-0.97,0.55-1.85,0.55h-4.64C83.13,430.75,82.53,430.57,82.18,430.21z M92.49,416.21
			c0.83,0,1.49-0.22,1.97-0.66c0.48-0.44,0.72-1.1,0.72-1.99c0-0.91-0.24-1.58-0.72-2.03s-1.14-0.66-1.97-0.66h-2.65v5.34H92.49z"/>
		<path d="M107.51,427.73c-2.39-2.4-3.59-5.82-3.59-10.24s1.2-7.83,3.59-10.24c2.39-2.41,5.9-3.61,10.53-3.61
			c4.63,0,8.14,1.2,10.53,3.61c2.39,2.4,3.59,5.82,3.59,10.24s-1.2,7.83-3.59,10.24c-2.39,2.41-5.9,3.61-10.53,3.61
			C113.41,431.34,109.9,430.13,107.51,427.73z M121.7,422.97c0.75-1.21,1.13-3.04,1.13-5.48c0-2.47-0.38-4.3-1.13-5.5
			c-0.75-1.2-1.98-1.79-3.67-1.79c-1.69,0-2.91,0.6-3.67,1.79c-0.75,1.2-1.13,3.03-1.13,5.5c0,2.44,0.38,4.27,1.13,5.48
			c0.75,1.21,1.98,1.81,3.67,1.81C119.73,424.79,120.95,424.18,121.7,422.97z"/>
		<path d="M134.63,430.21c-0.35-0.36-0.53-0.92-0.53-1.68v-22.07c0-0.75,0.18-1.31,0.53-1.68s0.96-0.55,1.81-0.55h9.32
			c3.9,0,6.74,0.77,8.52,2.32c1.78,1.55,2.67,3.88,2.67,7c0,1.87-0.32,3.45-0.96,4.74c-0.64,1.29-1.62,2.29-2.94,3.02l3.63,7.76
			c0.1,0.21,0.16,0.44,0.16,0.7c0,0.29-0.1,0.52-0.29,0.7c-0.2,0.18-0.45,0.27-0.76,0.27h-6.59c-0.42,0-0.75-0.06-0.99-0.18
			s-0.42-0.32-0.53-0.6l-2.89-7.25h-1.33v5.81c0,0.75-0.18,1.31-0.53,1.68c-0.35,0.36-0.97,0.55-1.85,0.55h-4.64
			C135.59,430.75,134.98,430.57,134.63,430.21z M144.95,416.21c0.83,0,1.49-0.22,1.97-0.66c0.48-0.44,0.72-1.1,0.72-1.99
			c0-0.91-0.24-1.58-0.72-2.03s-1.14-0.66-1.97-0.66h-2.65v5.34H144.95z"/>
		<path d="M169.83,429.93c0-0.23,0.06-0.52,0.19-0.86l9.71-23.36c0.23-0.55,0.5-0.93,0.8-1.15c0.3-0.22,0.72-0.33,1.27-0.33h4.25
			c0.55,0,0.97,0.11,1.27,0.33c0.3,0.22,0.57,0.6,0.8,1.15l9.67,23.36c0.13,0.34,0.2,0.62,0.2,0.86c0,0.55-0.29,0.82-0.86,0.82
			h-7.33c-0.81,0-1.31-0.35-1.52-1.05l-0.94-2.89h-6.9l-0.9,2.89c-0.21,0.7-0.72,1.05-1.52,1.05h-7.33
			C170.11,430.75,169.83,430.48,169.83,429.93z M185.43,420.65l-1.52-4.84l-1.52,4.84H185.43z"/>
		<path d="M203.13,430.6c-2.03-0.49-3.67-1.18-4.91-2.07c-0.52-0.36-0.78-0.71-0.78-1.05c0-0.23,0.09-0.48,0.27-0.74l2.26-3.55
			c0.23-0.34,0.47-0.51,0.7-0.51c0.21,0,0.45,0.09,0.74,0.27c0.94,0.57,2.01,1.02,3.22,1.35s2.39,0.49,3.53,0.49
			c0.96,0,1.66-0.13,2.09-0.39c0.43-0.26,0.64-0.66,0.64-1.21c0-0.6-0.29-1.08-0.86-1.44c-0.57-0.36-1.56-0.82-2.96-1.37
			c-2.63-1.01-4.69-2.16-6.2-3.45c-1.51-1.29-2.26-3-2.26-5.13c0-2.7,0.94-4.74,2.83-6.1c1.88-1.37,4.43-2.05,7.62-2.05
			c2.24,0,4.14,0.2,5.71,0.59c1.57,0.39,2.94,1,4.11,1.83c0.52,0.36,0.78,0.71,0.78,1.05c0,0.23-0.09,0.48-0.27,0.74l-2.26,3.55
			c-0.23,0.36-0.47,0.55-0.7,0.55c-0.16,0-0.4-0.1-0.74-0.31c-0.62-0.42-1.36-0.76-2.22-1.03c-0.86-0.27-1.78-0.41-2.77-0.41
			c-0.91,0-1.6,0.13-2.07,0.39c-0.47,0.26-0.7,0.68-0.7,1.25c0,0.47,0.16,0.86,0.49,1.17c0.32,0.31,0.73,0.58,1.23,0.8
			c0.49,0.22,1.35,0.58,2.57,1.07c1.95,0.78,3.48,1.53,4.6,2.24c1.12,0.72,1.96,1.57,2.54,2.57c0.57,1,0.86,2.27,0.86,3.8
			c0,2.34-0.88,4.23-2.63,5.67c-1.75,1.44-4.38,2.16-7.86,2.16C207.36,431.34,205.16,431.09,203.13,430.6z"/>
		<path d="M222.69,430.21c-0.35-0.36-0.53-0.92-0.53-1.68v-22.07c0-0.75,0.18-1.31,0.53-1.68s0.96-0.55,1.81-0.55h16.15
			c0.83,0,1.4,0.17,1.7,0.53c0.3,0.35,0.45,0.92,0.45,1.7v2.18c0,0.78-0.15,1.35-0.45,1.7c-0.3,0.35-0.86,0.53-1.7,0.53h-9.13v3.35
			h5.62c0.83,0,1.4,0.18,1.7,0.53c0.3,0.35,0.45,0.92,0.45,1.7v2.11c0,0.78-0.15,1.35-0.45,1.7c-0.3,0.35-0.86,0.53-1.7,0.53h-5.62
			v3.35h9.09c0.83,0,1.4,0.18,1.7,0.53s0.45,0.92,0.45,1.7v2.18c0,0.78-0.15,1.34-0.45,1.7c-0.3,0.35-0.86,0.53-1.7,0.53h-16.11
			C223.65,430.75,223.04,430.57,222.69,430.21z"/>
		<path d="M249.5,430.6c-2.03-0.49-3.67-1.18-4.91-2.07c-0.52-0.36-0.78-0.71-0.78-1.05c0-0.23,0.09-0.48,0.27-0.74l2.26-3.55
			c0.23-0.34,0.47-0.51,0.7-0.51c0.21,0,0.45,0.09,0.74,0.27c0.94,0.57,2.01,1.02,3.22,1.35s2.39,0.49,3.53,0.49
			c0.96,0,1.66-0.13,2.09-0.39c0.43-0.26,0.64-0.66,0.64-1.21c0-0.6-0.29-1.08-0.86-1.44c-0.57-0.36-1.56-0.82-2.96-1.37
			c-2.63-1.01-4.69-2.16-6.2-3.45c-1.51-1.29-2.26-3-2.26-5.13c0-2.7,0.94-4.74,2.83-6.1c1.88-1.37,4.43-2.05,7.62-2.05
			c2.24,0,4.14,0.2,5.71,0.59c1.57,0.39,2.94,1,4.11,1.83c0.52,0.36,0.78,0.71,0.78,1.05c0,0.23-0.09,0.48-0.27,0.74l-2.26,3.55
			c-0.23,0.36-0.47,0.55-0.7,0.55c-0.16,0-0.4-0.1-0.74-0.31c-0.62-0.42-1.36-0.76-2.22-1.03c-0.86-0.27-1.78-0.41-2.77-0.41
			c-0.91,0-1.6,0.13-2.07,0.39c-0.47,0.26-0.7,0.68-0.7,1.25c0,0.47,0.16,0.86,0.49,1.17c0.32,0.31,0.73,0.58,1.23,0.8
			c0.49,0.22,1.35,0.58,2.57,1.07c1.95,0.78,3.48,1.53,4.6,2.24c1.12,0.72,1.96,1.57,2.54,2.57c0.57,1,0.86,2.27,0.86,3.8
			c0,2.34-0.88,4.23-2.63,5.67c-1.75,1.44-4.38,2.16-7.86,2.16C253.73,431.34,251.53,431.09,249.5,430.6z"/>
		<path d="M271.34,427.73c-2.39-2.4-3.59-5.82-3.59-10.24s1.2-7.83,3.59-10.24c2.39-2.41,5.9-3.61,10.53-3.61
			c4.63,0,8.14,1.2,10.53,3.61c2.39,2.4,3.59,5.82,3.59,10.24s-1.2,7.83-3.59,10.24c-2.39,2.41-5.9,3.61-10.53,3.61
			C277.25,431.34,273.74,430.13,271.34,427.73z M285.54,422.97c0.75-1.21,1.13-3.04,1.13-5.48c0-2.47-0.38-4.3-1.13-5.5
			c-0.75-1.2-1.98-1.79-3.67-1.79c-1.69,0-2.91,0.6-3.67,1.79c-0.75,1.2-1.13,3.03-1.13,5.5c0,2.44,0.38,4.27,1.13,5.48
			c0.75,1.21,1.98,1.81,3.67,1.81C283.56,424.79,284.79,424.18,285.54,422.97z"/>
		<path d="M298.47,430.21c-0.35-0.36-0.53-0.92-0.53-1.68v-22.07c0-0.75,0.18-1.31,0.53-1.68s0.96-0.55,1.81-0.55h9.32
			c3.9,0,6.74,0.77,8.52,2.32c1.78,1.55,2.67,3.88,2.67,7c0,1.87-0.32,3.45-0.96,4.74c-0.64,1.29-1.62,2.29-2.94,3.02l3.63,7.76
			c0.1,0.21,0.16,0.44,0.16,0.7c0,0.29-0.1,0.52-0.29,0.7c-0.2,0.18-0.45,0.27-0.76,0.27h-6.59c-0.42,0-0.75-0.06-0.99-0.18
			s-0.42-0.32-0.53-0.6l-2.89-7.25h-1.33v5.81c0,0.75-0.18,1.31-0.53,1.68c-0.35,0.36-0.97,0.55-1.85,0.55h-4.64
			C299.42,430.75,298.82,430.57,298.47,430.21z M308.78,416.21c0.83,0,1.49-0.22,1.97-0.66c0.48-0.44,0.72-1.1,0.72-1.99
			c0-0.91-0.24-1.58-0.72-2.03s-1.14-0.66-1.97-0.66h-2.65v5.34H308.78z"/>
		<path d="M81.65,478.68c-1.39-1.66-2.47-3.67-3.24-6.01c-0.77-2.34-1.15-4.82-1.15-7.45c0-2.63,0.38-5.11,1.15-7.45
			c0.77-2.34,1.85-4.34,3.24-6.01c1.39-1.66,2.97-2.81,4.74-3.43c1.2-0.42,2.15-0.62,2.85-0.62c0.73,0,1.27,0.21,1.64,0.64
			c0.36,0.43,0.55,1.13,0.55,2.09c0,0.81-0.03,1.4-0.08,1.78c-0.05,0.38-0.18,0.71-0.39,0.99c-0.21,0.29-0.56,0.65-1.05,1.09
			c-1.27,1.12-2.15,2.52-2.61,4.21c-0.47,1.69-0.7,3.93-0.7,6.71c0,2.78,0.23,5.02,0.7,6.71c0.47,1.69,1.34,3.09,2.61,4.21
			c0.49,0.44,0.84,0.81,1.05,1.09c0.21,0.29,0.34,0.62,0.39,0.99c0.05,0.38,0.08,0.97,0.08,1.77c0,0.96-0.18,1.66-0.55,2.09
			c-0.36,0.43-0.91,0.64-1.64,0.64c-0.7,0-1.65-0.21-2.85-0.62C84.62,481.49,83.04,480.35,81.65,478.68z"/>
		<path d="M93.51,477.01c-0.35-0.36-0.53-0.92-0.53-1.68v-22.07c0-0.75,0.18-1.31,0.53-1.68s0.96-0.55,1.81-0.55h16.15
			c0.83,0,1.4,0.17,1.7,0.53c0.3,0.35,0.45,0.92,0.45,1.7v2.18c0,0.78-0.15,1.35-0.45,1.7c-0.3,0.35-0.86,0.53-1.7,0.53h-9.13v3.35
			h5.62c0.83,0,1.4,0.18,1.7,0.53c0.3,0.35,0.45,0.92,0.45,1.7v2.11c0,0.78-0.15,1.35-0.45,1.7c-0.3,0.35-0.86,0.53-1.7,0.53h-5.62
			v3.35h9.09c0.83,0,1.4,0.18,1.7,0.53s0.45,0.92,0.45,1.7v2.18c0,0.78-0.15,1.34-0.45,1.7c-0.3,0.35-0.86,0.53-1.7,0.53H95.32
			C94.46,477.55,93.86,477.37,93.51,477.01z"/>
		<path d="M113.86,477.3c-0.17-0.17-0.25-0.37-0.25-0.6c0-0.26,0.1-0.53,0.31-0.82l8.93-12.05l-8.23-11.12
			c-0.21-0.29-0.31-0.56-0.31-0.82c0-0.23,0.08-0.43,0.25-0.6c0.17-0.17,0.41-0.25,0.72-0.25h7.29c0.39,0,0.69,0.04,0.9,0.14
			c0.21,0.09,0.39,0.24,0.55,0.45l3.94,5.34l3.98-5.34c0.16-0.21,0.34-0.36,0.55-0.45c0.21-0.09,0.51-0.14,0.9-0.14h7.29
			c0.31,0,0.55,0.08,0.72,0.25c0.17,0.17,0.25,0.37,0.25,0.6c0,0.26-0.1,0.53-0.31,0.82l-8.27,11.12l8.97,12.05
			c0.21,0.29,0.31,0.56,0.31,0.82c0,0.23-0.08,0.44-0.25,0.6c-0.17,0.17-0.41,0.25-0.72,0.25h-7.29c-0.39,0-0.69-0.04-0.9-0.14
			c-0.21-0.09-0.39-0.24-0.55-0.45l-4.68-6.28l-4.64,6.28c-0.16,0.21-0.34,0.36-0.55,0.45c-0.21,0.09-0.51,0.14-0.9,0.14h-7.29
			C114.27,477.55,114.03,477.47,113.86,477.3z"/>
		<path d="M151.03,477.01c-0.35-0.36-0.53-0.92-0.53-1.68v-17.67h-5.62c-0.83,0-1.4-0.18-1.7-0.53c-0.3-0.35-0.45-0.92-0.45-1.7
			v-2.18c0-0.78,0.15-1.35,0.45-1.7c0.3-0.35,0.86-0.53,1.7-0.53h20.59c0.83,0,1.4,0.17,1.7,0.53c0.3,0.35,0.45,0.92,0.45,1.7v2.18
			c0,0.78-0.15,1.35-0.45,1.7c-0.3,0.35-0.86,0.53-1.7,0.53h-5.62v17.67c0,0.75-0.18,1.31-0.53,1.68s-0.97,0.55-1.85,0.55h-4.64
			C151.99,477.55,151.38,477.37,151.03,477.01z"/>
		<path d="M169.32,477.01c-0.35-0.36-0.53-0.92-0.53-1.68v-22.07c0-0.75,0.18-1.31,0.53-1.68s0.96-0.55,1.81-0.55h16.15
			c0.83,0,1.4,0.17,1.7,0.53c0.3,0.35,0.45,0.92,0.45,1.7v2.18c0,0.78-0.15,1.35-0.45,1.7c-0.3,0.35-0.86,0.53-1.7,0.53h-9.13v3.35
			h5.62c0.83,0,1.4,0.18,1.7,0.53c0.3,0.35,0.45,0.92,0.45,1.7v2.11c0,0.78-0.15,1.35-0.45,1.7c-0.3,0.35-0.86,0.53-1.7,0.53h-5.62
			v3.35h9.09c0.83,0,1.4,0.18,1.7,0.53s0.45,0.92,0.45,1.7v2.18c0,0.78-0.15,1.34-0.45,1.7c-0.3,0.35-0.86,0.53-1.7,0.53h-16.11
			C170.28,477.55,169.67,477.37,169.32,477.01z"/>
		<path d="M191.71,477.01c-0.35-0.36-0.53-0.92-0.53-1.68v-22.11c0-0.75,0.18-1.31,0.53-1.66c0.35-0.35,0.97-0.53,1.85-0.53h3.71
			c0.55,0,0.97,0.07,1.27,0.21c0.3,0.14,0.59,0.42,0.88,0.84l7.06,10.49v-9.32c0-0.75,0.18-1.31,0.53-1.68
			c0.35-0.36,0.96-0.55,1.81-0.55h4.64c0.88,0,1.5,0.17,1.85,0.53c0.35,0.35,0.53,0.92,0.53,1.7v22.11c0,0.75-0.18,1.31-0.53,1.66
			c-0.35,0.35-0.97,0.53-1.85,0.53h-3.7c-0.55,0-0.97-0.07-1.27-0.21c-0.3-0.14-0.59-0.42-0.88-0.84l-7.06-10.49v9.36
			c0,0.75-0.18,1.31-0.53,1.66c-0.35,0.35-0.97,0.53-1.85,0.53h-4.64C192.66,477.55,192.06,477.37,191.71,477.01z"/>
		<path d="M223.51,477.4c-2.03-0.49-3.67-1.18-4.91-2.07c-0.52-0.36-0.78-0.71-0.78-1.05c0-0.23,0.09-0.48,0.27-0.74l2.26-3.55
			c0.23-0.34,0.47-0.51,0.7-0.51c0.21,0,0.45,0.09,0.74,0.27c0.94,0.57,2.01,1.02,3.22,1.35s2.39,0.49,3.53,0.49
			c0.96,0,1.66-0.13,2.09-0.39c0.43-0.26,0.64-0.66,0.64-1.21c0-0.6-0.29-1.08-0.86-1.44c-0.57-0.36-1.56-0.82-2.96-1.37
			c-2.63-1.01-4.69-2.16-6.2-3.45c-1.51-1.29-2.26-3-2.26-5.13c0-2.7,0.94-4.74,2.83-6.1c1.88-1.37,4.43-2.05,7.62-2.05
			c2.24,0,4.14,0.2,5.71,0.59c1.57,0.39,2.94,1,4.11,1.83c0.52,0.36,0.78,0.71,0.78,1.05c0,0.23-0.09,0.48-0.27,0.74l-2.26,3.55
			c-0.23,0.36-0.47,0.55-0.7,0.55c-0.16,0-0.4-0.1-0.74-0.31c-0.62-0.42-1.36-0.76-2.22-1.03c-0.86-0.27-1.78-0.41-2.77-0.41
			c-0.91,0-1.6,0.13-2.07,0.39c-0.47,0.26-0.7,0.68-0.7,1.25c0,0.47,0.16,0.86,0.49,1.17c0.32,0.31,0.73,0.58,1.23,0.8
			c0.49,0.22,1.35,0.58,2.57,1.07c1.95,0.78,3.48,1.53,4.6,2.24c1.12,0.72,1.96,1.57,2.54,2.57c0.57,1,0.86,2.27,0.86,3.8
			c0,2.34-0.88,4.23-2.63,5.67c-1.75,1.44-4.38,2.16-7.86,2.16C227.74,478.14,225.54,477.89,223.51,477.4z"/>
		<path d="M243.07,477.01c-0.35-0.36-0.53-0.92-0.53-1.68v-22.07c0-0.75,0.18-1.31,0.53-1.68s0.96-0.55,1.81-0.55h4.64
			c0.88,0,1.5,0.17,1.85,0.53c0.35,0.35,0.53,0.92,0.53,1.7v22.07c0,0.75-0.18,1.31-0.53,1.68c-0.35,0.36-0.97,0.55-1.85,0.55h-4.64
			C244.03,477.55,243.42,477.37,243.07,477.01z"/>
		<path d="M257.44,474.53c-2.39-2.4-3.59-5.82-3.59-10.24s1.2-7.83,3.59-10.24c2.39-2.41,5.9-3.61,10.53-3.61
			c4.63,0,8.14,1.2,10.53,3.61c2.39,2.4,3.59,5.82,3.59,10.24s-1.2,7.83-3.59,10.24c-2.39,2.41-5.9,3.61-10.53,3.61
			C263.34,478.14,259.83,476.93,257.44,474.53z M271.64,469.77c0.75-1.21,1.13-3.04,1.13-5.48c0-2.47-0.38-4.3-1.13-5.5
			c-0.75-1.2-1.98-1.79-3.67-1.79c-1.69,0-2.91,0.6-3.67,1.79c-0.75,1.2-1.13,3.03-1.13,5.5c0,2.44,0.38,4.27,1.13,5.48
			c0.75,1.21,1.98,1.81,3.67,1.81C269.66,471.58,270.88,470.98,271.64,469.77z M263.84,447.76c0-0.21,0.04-0.43,0.12-0.66l1.64-4.52
			c0.21-0.6,0.45-1,0.74-1.21c0.29-0.21,0.82-0.31,1.6-0.31h5.58c0.55,0,0.97,0.1,1.29,0.29c0.31,0.2,0.47,0.48,0.47,0.84
			c0,0.31-0.1,0.64-0.31,0.97l-2.5,4.21c-0.36,0.62-0.72,1.03-1.05,1.21s-0.95,0.27-1.83,0.27h-4.17
			C264.36,448.85,263.84,448.48,263.84,447.76z"/>
		<path d="M284.57,477.01c-0.35-0.36-0.53-0.92-0.53-1.68v-22.11c0-0.75,0.18-1.31,0.53-1.66c0.35-0.35,0.97-0.53,1.85-0.53h3.71
			c0.55,0,0.97,0.07,1.27,0.21c0.3,0.14,0.59,0.42,0.88,0.84l7.06,10.49v-9.32c0-0.75,0.18-1.31,0.53-1.68
			c0.35-0.36,0.96-0.55,1.81-0.55h4.64c0.88,0,1.5,0.17,1.85,0.53c0.35,0.35,0.53,0.92,0.53,1.7v22.11c0,0.75-0.18,1.31-0.53,1.66
			c-0.35,0.35-0.97,0.53-1.85,0.53h-3.7c-0.55,0-0.97-0.07-1.27-0.21c-0.3-0.14-0.59-0.42-0.88-0.84l-7.06-10.49v9.36
			c0,0.75-0.18,1.31-0.53,1.66c-0.35,0.35-0.97,0.53-1.85,0.53h-4.64C285.52,477.55,284.92,477.37,284.57,477.01z"/>
		<path d="M312.43,482.74c-0.73,0-1.27-0.21-1.64-0.64c-0.36-0.43-0.55-1.13-0.55-2.09c0-0.81,0.03-1.4,0.08-1.77
			c0.05-0.38,0.18-0.71,0.39-0.99c0.21-0.29,0.56-0.65,1.05-1.09c1.27-1.12,2.15-2.52,2.61-4.21c0.47-1.69,0.7-3.93,0.7-6.71
			c0-2.78-0.23-5.02-0.7-6.71c-0.47-1.69-1.34-3.09-2.61-4.21c-0.49-0.44-0.85-0.81-1.05-1.09c-0.21-0.29-0.34-0.62-0.39-0.99
			c-0.05-0.38-0.08-0.97-0.08-1.78c0-0.96,0.18-1.66,0.55-2.09c0.36-0.43,0.91-0.64,1.64-0.64c0.7,0,1.65,0.21,2.85,0.62
			c1.77,0.62,3.35,1.77,4.74,3.43c1.39,1.66,2.47,3.67,3.24,6.01c0.77,2.34,1.15,4.82,1.15,7.45c0,2.63-0.38,5.11-1.15,7.45
			c-0.77,2.34-1.85,4.34-3.24,6.01c-1.39,1.66-2.97,2.81-4.74,3.43C314.08,482.53,313.13,482.74,312.43,482.74z"/>
	</g>
	<polygon class="st6" points="199.76,86.93 213.23,114.22 243.34,118.59 221.55,139.83 226.7,169.83 199.76,155.67 172.83,169.83 
		177.97,139.83 156.18,118.59 186.29,114.22 	"/>
	<polygon class="st6" points="137.58,170.15 146.32,187.86 165.86,190.7 151.72,204.48 155.06,223.94 137.58,214.75 120.11,223.94 
		123.45,204.48 109.31,190.7 128.85,187.86 	"/>
	<polygon class="st6" points="267.68,170.15 276.42,187.86 295.95,190.7 281.82,204.48 285.15,223.94 267.68,214.75 250.2,223.94 
		253.54,204.48 239.4,190.7 258.94,187.86 	"/>
	<circle class="st7" cx="200.77" cy="203.97" r="121.96"/>
	<circle class="st1" cx="199.82" cy="190.58" r="121.96"/>
	<g>
		<path class="st1" d="M180.43,633.16c-0.56-0.66-0.84-1.72-0.84-3.18v-4.09c0-1.46,0.28-2.52,0.84-3.18
			c0.56-0.66,1.62-0.99,3.18-0.99h4.6v-19.05l-2.99,1.9c-0.24,0.2-0.54,0.29-0.88,0.29c-0.44,0-0.8-0.22-1.1-0.66l-5.55-8.47
			c-0.19-0.24-0.29-0.51-0.29-0.8c0-0.49,0.27-0.88,0.8-1.17l13.8-8.32c0.58-0.34,1.14-0.58,1.68-0.73
			c0.54-0.15,1.31-0.22,2.34-0.22h5.33c1.61,0,2.74,0.34,3.39,1.02c0.66,0.68,0.99,1.73,0.99,3.14v33.07h4.67
			c1.56,0,2.62,0.33,3.18,0.99c0.56,0.66,0.84,1.72,0.84,3.18v4.09c0,1.46-0.28,2.52-0.84,3.18c-0.56,0.66-1.62,0.99-3.18,0.99
			h-26.79C182.05,634.14,180.99,633.81,180.43,633.16z"/>
	</g>
	<g>
		<path class="st70" d="M278.66,216.96c0,0-0.07-27.1-0.07-35.04c0-20.61-11.51-37.33-25.7-37.33c-14.19,0-25.7,16.71-25.7,37.33
			c0,7.94,0,35.04,0,35.04H278.66z"/>
		<g>
			<path class="st71" d="M258.87,196.65h-5.37h-1.14h-5.37c0,0,1.82,12.96-6.83,23.68l12.21,19.7h1.14l12.21-19.7
				C257.05,209.61,258.87,196.65,258.87,196.65z"/>
			<polygon class="st1" points="240.27,220.53 252.35,240.03 253.5,240.03 265.58,220.53 			"/>
			<g>
				<path class="st72" d="M258.87,196.65h-5.37h-1.14h-5.37c0,0,0.23,1.69,0.13,4.34c2.04,1.28,4.1,2.07,5.75,2.07
					c1.69,0,3.8-0.84,5.88-2.18C258.64,198.29,258.87,196.65,258.87,196.65z"/>
			</g>
		</g>
		<path class="st71" d="M272.54,172.15c-0.58-1.48-1.58-0.72-2.36,0.26c0.22-11.53-5.86-17.38-5.86-17.38l-11.43-3.77l-11.43,3.77
			c0,0-6.13,5.84-5.93,17.29c-0.77-0.94-1.74-1.62-2.29-0.18c-1.04,2.68,1.4,6.35,0.93,10.07c-0.32,2.52,1.67,2.26,2.93,1.56
			c0.47,1.9,1.18,4.15,2.31,6.77c2.39,5.56,9.25,10.62,13.45,10.62c4.21,0,10.96-5.1,13.45-10.62c1.14-2.54,1.86-4.64,2.31-6.81
			c1.25,0.73,3.31,1.03,2.99-1.53C271.14,178.51,273.58,174.83,272.54,172.15z"/>
		<g>
			<path class="st70" d="M265.62,153.72l-4.86,1.26c0.64,1.19,3.89,5.15,5.68,9.97c1.68,4.52,1.94,9.81,1.76,14.29l0.89-1.51
				c1.27-2.16,2.03-4.57,2.26-7.07C271.97,163.89,272.31,151.13,265.62,153.72z"/>
			<path class="st70" d="M236.7,177.74l0.89,1.51c-0.17-4.48,0.08-9.77,1.76-14.29c1.79-4.83,5.04-8.79,5.68-9.97l-4.86-1.26
				c-6.69-2.59-6.35,10.17-5.73,16.95C234.67,173.17,235.43,175.58,236.7,177.74z"/>
		</g>
		<path class="st70" d="M252.89,151.29c-16.96-3.83-18.57,14.19-18.57,14.19c14.2,3.44,17.76-4.23,18.57-9.57
			c0.82,5.34,4.37,13.01,18.57,9.57C271.46,165.48,269.85,147.46,252.89,151.29z"/>
		<g>
			<path class="st34" d="M236.3,172.6c-0.12-4.67,0.36-10.43,2.76-14.97c2.71-5.13,7.37-7.76,13.84-7.76s11.13,2.63,13.84,7.76
				c2.39,4.54,2.88,10.3,2.76,14.97h2.17c0.15-5.16-0.39-11.61-3.14-16.86c-3.13-5.97-8.39-9.04-15.62-9.04
				c-7.22,0-12.49,3.07-15.62,9.04c-2.75,5.25-3.29,11.7-3.14,16.86H236.3z"/>
			<g>
				<path class="st34" d="M235.14,171.08c-0.46-0.22-0.95-0.34-1.46-0.34c-2.48,0-4.5,2.79-4.5,6.22c0,3.44,2.01,6.22,4.5,6.22
					c0.51,0,1-0.12,1.46-0.34V171.08z"/>
				<path class="st35" d="M236.77,169.49c-0.38-0.2-0.8-0.33-1.26-0.33h-0.05c-1.47,0-2.66,1.19-2.66,2.66v10.8
					c0,1.47,1.19,2.66,2.66,2.66h0.05c0.46,0,0.88-0.13,1.26-0.33V169.49z"/>
			</g>
			<path class="st34" d="M271.24,182.85l-1.19,0c0,0.45-0.18,10.37-12.41,11.4c-0.23-0.35-0.61-0.59-1.06-0.59h-4.66
				c-0.71,0-1.29,0.58-1.29,1.29v0.03c0,0.71,0.58,1.29,1.29,1.29h4.66c0.55,0,1.01-0.35,1.2-0.83
				C271.05,194.27,271.24,182.97,271.24,182.85z"/>
			<g>
				<path class="st34" d="M270.64,171.08c0.46-0.22,0.95-0.34,1.46-0.34c2.48,0,4.5,2.79,4.5,6.22c0,3.44-2.01,6.22-4.5,6.22
					c-0.51,0-1-0.12-1.46-0.34V171.08z"/>
				<path class="st35" d="M269.01,169.49c0.38-0.2,0.8-0.33,1.26-0.33h0.05c1.47,0,2.66,1.19,2.66,2.66v10.8
					c0,1.47-1.19,2.66-2.66,2.66h-0.05c-0.46,0-0.88-0.13-1.26-0.33V169.49z"/>
			</g>
		</g>
		<path class="st34" d="M283.24,219.28c-1.57-3.34-4.87-5.88-8.95-6.87l-14.26-3.19l-7.14,26.59l-7.14-26.59l-14.18,3.19
			c-4.08,0.99-7.39,3.53-8.95,6.87c0,0-4.7,16.44-1.84,17.82c5.31,2.57,11.04,4.11,16.9,4.75c10.14,1.11,20.37,1.11,30.51,0
			c5.86-0.64,11.6-2.19,16.9-4.75C287.93,235.73,283.24,219.28,283.24,219.28z"/>
		<rect x="260.75" y="226.55" class="st1" width="12.05" height="2.63"/>
	</g>
	<g>
		<g>
			<path class="st71" d="M158.02,195.02h-6.71h-1.43h-6.71c0,0,2.27,12.9-8.53,23.57L149.88,237h1.43l15.24-18.42
				C155.75,207.92,158.02,195.02,158.02,195.02z"/>
			<path class="st1" d="M142.37,205.45c-1.1,4.07-3.33,8.79-7.73,13.13L149.88,237h1.43l15.24-18.42c-4.4-4.35-6.63-9.07-7.73-13.13
				l-8.15,4.5L142.37,205.45z"/>
			<path class="st73" d="M142.37,205.45c-1.1,4.07,7.18,10.44,7.18,10.44L145.41,237l5.18,3.11l5.17-3.11l-3.89-20.99
				c0,0,8.05-6.5,6.95-10.56l-8.15,4.5L142.37,205.45z"/>
			<g>
				<path class="st72" d="M158.02,195.02h-6.71h-1.43h-6.71c0,0,0.29,1.68,0.16,4.32c2.54,1.28,5.12,2.06,7.18,2.06
					c2.12,0,4.75-0.83,7.34-2.17C157.74,196.65,158.02,195.02,158.02,195.02z"/>
			</g>
		</g>
		<path class="st71" d="M170.15,170.64c-0.57-1.48-1.57-0.71-2.35,0.26c0.22-11.47-5.83-17.29-5.83-17.29H150.6h-11.37
			c0,0-6.1,5.81-5.9,17.21c-0.77-0.93-1.73-1.61-2.28-0.17c-1.03,2.67,1.4,6.32,0.93,10.02c-0.31,2.5,1.66,2.25,2.91,1.55
			c0.47,1.89,1.17,4.13,2.29,6.74c2.38,5.53,9.2,10.57,13.39,10.57c4.19,0,10.91-5.08,13.39-10.57c1.14-2.52,1.85-4.62,2.3-6.77
			c1.25,0.72,3.29,1.02,2.97-1.52C168.76,176.96,171.19,173.3,170.15,170.64z"/>
		<path class="st70" d="M164.29,152.42c0,0-20.84,18.67-34.33-4.99c0,0,3.75-0.15,15.14-4.25
			C155.54,139.43,162.61,144.91,164.29,152.42z"/>
		<g>
			<path class="st70" d="M163.01,152.29l-4.84,1.26c0.64,1.18,3.87,5.12,5.65,9.93c1.67,4.5,1.93,9.76,1.75,14.22l0.88-1.5
				c1.26-2.15,2.02-4.55,2.25-7.03C169.33,162.41,169.67,149.71,163.01,152.29z"/>
			<path class="st70" d="M134.23,176.2l0.88,1.5c-0.17-4.46,0.08-9.72,1.75-14.22c1.78-4.8,5.02-8.74,5.65-9.93l-4.84-1.26
				c-6.66-2.58-6.32,10.12-5.7,16.87C132.2,171.65,132.96,174.04,134.23,176.2z"/>
		</g>
		<polygon class="st74" points="162.59,207.82 158.26,205.29 150.67,209.95 143.08,205.29 138.75,207.82 146.21,218.39 
			150.67,211.76 155.13,218.39 		"/>
		<g>
			<path class="st34" d="M134.08,171.08c-0.12-4.65,0.36-10.38,2.74-14.9c2.69-5.1,7.34-7.72,13.77-7.72
				c6.44,0,11.08,2.62,13.77,7.72c2.38,4.52,2.87,10.25,2.74,14.9h2.16c0.15-5.14-0.39-11.56-3.13-16.78c-3.11-5.94-8.35-9-15.54-9
				c-7.19,0-12.43,3.05-15.54,9c-2.73,5.22-3.28,11.64-3.13,16.78H134.08z"/>
			<g>
				<path class="st34" d="M132.93,169.57c-0.46-0.22-0.94-0.34-1.45-0.34c-2.47,0-4.47,2.77-4.47,6.19c0,3.42,2,6.19,4.47,6.19
					c0.51,0,1-0.12,1.45-0.34V169.57z"/>
				<path class="st35" d="M134.55,167.98c-0.37-0.2-0.8-0.33-1.25-0.33h-0.05c-1.46,0-2.65,1.18-2.65,2.65v10.75
					c0,1.46,1.18,2.65,2.65,2.65h0.05c0.46,0,0.88-0.13,1.25-0.33V167.98z"/>
			</g>
			<path class="st34" d="M168.86,181.28l-1.19,0c0,0.44-0.18,10.32-12.35,11.34c-0.23-0.35-0.6-0.59-1.05-0.59h-4.64
				c-0.71,0-1.28,0.57-1.28,1.28v0.03c0,0.71,0.57,1.28,1.28,1.28h4.64c0.55,0,1.01-0.35,1.19-0.83
				C168.66,192.65,168.86,181.4,168.86,181.28z"/>
			<g>
				<path class="st34" d="M168.26,169.57c0.46-0.22,0.94-0.34,1.45-0.34c2.47,0,4.48,2.77,4.48,6.19c0,3.42-2,6.19-4.48,6.19
					c-0.51,0-1-0.12-1.45-0.34V169.57z"/>
				<path class="st35" d="M166.64,167.98c0.37-0.2,0.8-0.33,1.25-0.33h0.05c1.46,0,2.65,1.18,2.65,2.65v10.75
					c0,1.46-1.19,2.65-2.65,2.65h-0.05c-0.46,0-0.88-0.13-1.25-0.33V167.98z"/>
			</g>
		</g>
		<polygon class="st1" points="150.67,209.95 155.13,216.02 162.59,205.45 158.26,202.92 		"/>
		<polygon class="st1" points="150.67,209.95 146.21,216.02 138.75,205.45 143.08,202.92 		"/>
		<path class="st34" d="M185.5,215.74c-1.8-3.59-5.6-6.31-10.28-7.37l-15.61-4.56c0,0,0.73,7.29-2.67,17.72
			c-2.74,8.38-6.3,17.07-6.3,17.07s-3.76-8.62-6.31-17.08c-3.14-10.43-2.71-17.72-2.71-17.72l-15.48,4.56
			c-4.69,1.06-8.49,3.78-10.29,7.37c0,0-5.4,17.63-2.12,19.11c6.1,2.75,12.69,4.41,19.42,5.1c11.65,1.19,23.4,1.19,35.05,0
			c6.73-0.69,13.32-2.35,19.42-5.1C190.89,233.37,185.5,215.74,185.5,215.74z"/>
	</g>
</g>
</svg>
