<?xml version="1.0" encoding="utf-8"?>
<!-- Generator: Adobe Illustrator 23.0.0, SVG Export Plug-In . SVG Version: 6.00 Build 0)  -->
<svg version="1.1" id="Capa_1" xmlns="http://www.w3.org/2000/svg" xmlns:xlink="http://www.w3.org/1999/xlink" x="0px" y="0px"
	 viewBox="0 0 400 689" style="enable-background:new 0 0 400 689;" xml:space="preserve">
<style type="text/css">
	.st0{fill:#E2E2E2;}
	.st1{fill:#FFFFFF;}
	.st2{fill:#CCCDCE;}
	.st3{fill:#F2F2F2;}
	.st4{fill:none;}
	.st5{fill:#0085B0;}
	.st6{fill:#E0EF18;}
	.st7{fill:#CECECE;}
	.st8{fill:#22272F;}
	.st9{fill:#1B2538;}
	.st10{fill:#253452;}
	.st11{fill:#F9F9F9;}
	.st12{fill:#2D3543;}
	.st13{fill:#2A3D60;}
	.st14{fill:#6C92D5;}
	.st15{fill:#587955;}
	.st16{fill:#CD7054;}
	.st17{fill:#F1CC4B;}
	.st18{fill:#DFDFDF;}
	.st19{fill:#ACACAC;}
	.st20{fill:#00D13C;}
	.st21{fill:#866A5E;}
	.st22{fill:#F7DDCB;}
	.st23{fill:#FFE6D4;}
	.st24{fill:#2D2D2D;}
	.st25{fill:#1C1B1A;}
	.st26{fill:#F5F5F5;}
	.st27{fill:#77181C;}
	.st28{fill:#EAEAEA;}
	.st29{fill:#262525;}
	.st30{fill:#11100F;}
	.st31{fill:#FFFFFF;stroke:#000000;stroke-width:6;stroke-miterlimit:10;}
	.st32{fill:#D4D4D4;}
	.st33{fill:#C2C2C2;}
	.st34{fill:#505050;}
	.st35{fill:#53C2C9;}
	.st36{fill:#008B9C;}
	.st37{fill:none;stroke:#00550B;stroke-width:4;stroke-miterlimit:10;}
	.st38{fill:#CE2458;}
	.st39{fill:#155500;}
	.st40{fill:#1549FF;}
	.st41{fill:#606060;stroke:#C6C8CC;stroke-width:6;stroke-miterlimit:10;}
	.st42{fill:#727272;}
	.st43{fill:#207235;}
	.st44{fill:#A3A3A3;}
	.st45{fill:#BCBCBC;}
	.st46{fill:#2A5936;}
	.st47{opacity:0.7;fill:#7F7F7F;}
	.st48{fill:#DAA449;}
	.st49{fill:#85B681;}
	.st50{fill:#A1DC9B;}
	.st51{fill:#90C58B;}
	.st52{fill:#DD9225;}
	.st53{opacity:0.3;}
	.st54{fill:#81C378;}
	.st55{opacity:0.5;}
	.st56{fill:#A2CADE;}
	.st57{fill:#9BAEC9;}
	.st58{fill:#9D2B3B;}
	.st59{fill:#C1D4F2;}
	.st60{fill:#534D46;}
	.st61{fill:#191819;}
	.st62{fill:#222123;}
	.st63{fill:#F3FF00;}
	.st64{fill-rule:evenodd;clip-rule:evenodd;fill:#FFFFFF;}
	.st65{fill-rule:evenodd;clip-rule:evenodd;fill:#1996B8;}
	.st66{fill:none;stroke:#5A605A;stroke-width:4;stroke-miterlimit:10;}
	.st67{fill:#FFB412;}
	.st68{fill:#BACDD1;}
	.st69{fill:#1C4D59;}
	.st70{fill:#A14329;}
	.st71{fill:#FCC083;}
	.st72{fill:#E8AA63;}
	.st73{fill:#D40000;}
	.st74{opacity:0.35;fill:#7D7D7D;}
	.st75{fill:#E5E3E3;}
	.st76{fill:#121F5E;}
	.st77{fill:#A3ADAF;}
	.st78{fill:#C2C6C6;}
	.st79{fill:#E5E5E5;stroke:#FFFFFF;stroke-miterlimit:10;}
	.st80{fill:#ACB4B5;}
	.st81{fill:#7F8384;}
	.st82{fill:#282828;}
	.st83{fill:none;stroke:#46A508;stroke-width:6;stroke-miterlimit:10;}
	.st84{fill:none;stroke:#46A508;stroke-width:6;stroke-miterlimit:10;stroke-dasharray:11.7425,11.7425;}
	.st85{fill:#C89D76;}
	.st86{opacity:0.4;}
	.st87{fill:#ADADAD;}
	.st88{fill:#76A172;}
	.st89{fill:#62835F;}
	.st90{fill:#96D090;}
	.st91{fill:#EDC3A6;}
	.st92{opacity:0.69;}
	.st93{fill:#E5D3D6;}
	.st94{opacity:0.44;}
	.st95{fill:#A5A5A5;}
	.st96{fill:#DDE5E4;}
	.st97{fill:#FDFDFD;}
	.st98{fill:#E0C348;}
	.st99{fill:#606060;}
</style>
<g>
	<g>
		<path class="st20" d="M8.5,199.36c0,22,13.29,27.86,29.54,13.03c0,0,156.99-143.3,353.09,26.97V45c0-22-18-40-40-40H48.5
			c-22,0-40,18-40,40V199.36z"/>
	</g>
	<g>
		<path class="st20" d="M390.66,637c0,22-18,40-40,40H48.98c-22,0-40-18-40-40v-46.27c0-22,18-40,40-40h301.68c22,0,40,18,40,40V637
			z"/>
	</g>
	<g>
		<path d="M64.47,383.3c-3.3-2.92-4.95-7.26-4.95-13.01c0-5.72,1.65-10.04,4.95-12.99c3.3-2.94,7.9-4.41,13.82-4.41
			c2.68,0,5.08,0.26,7.2,0.79c2.12,0.52,3.89,1.26,5.29,2.21c0.39,0.29,0.59,0.62,0.59,0.98c0,0.29-0.15,0.7-0.44,1.23l-2.45,4.21
			c-0.26,0.46-0.57,0.69-0.93,0.69c-0.23,0-0.6-0.13-1.13-0.39c-1.96-0.98-4.12-1.47-6.47-1.47c-2.71,0-4.84,0.78-6.39,2.33
			s-2.33,3.83-2.33,6.83c0,3.1,0.65,5.4,1.96,6.88s3.25,2.23,5.83,2.23c0.46,0,0.97-0.04,1.54-0.12c0.57-0.08,1.04-0.17,1.4-0.27
			v-4.46h-3.14c-1.05,0-1.76-0.2-2.13-0.61c-0.38-0.41-0.56-1.1-0.56-2.08v-2.7c0-0.98,0.19-1.67,0.56-2.08s1.09-0.61,2.13-0.61
			h10.54c1.27,0,2.16,0.29,2.65,0.86s0.74,1.48,0.74,2.72v11.47c0,0.72-0.09,1.27-0.27,1.64c-0.18,0.38-0.53,0.76-1.05,1.15
			c-3.14,2.25-7.5,3.38-13.08,3.38C72.39,387.69,67.77,386.23,64.47,383.3z"/>
		<path d="M95.85,386.27c-0.44-0.46-0.66-1.16-0.66-2.11v-27.73c0-0.95,0.22-1.65,0.66-2.11c0.44-0.46,1.2-0.69,2.28-0.69h11.71
			c4.9,0,8.47,0.97,10.71,2.92c2.24,1.94,3.36,4.88,3.36,8.8c0,2.35-0.4,4.34-1.2,5.95c-0.8,1.62-2.03,2.88-3.7,3.8l4.56,9.75
			c0.13,0.26,0.2,0.56,0.2,0.88c0,0.36-0.12,0.65-0.37,0.88c-0.25,0.23-0.56,0.34-0.96,0.34h-8.28c-0.52,0-0.94-0.07-1.25-0.22
			c-0.31-0.15-0.53-0.4-0.66-0.76l-3.63-9.11h-1.67v7.3c0,0.95-0.22,1.65-0.66,2.11c-0.44,0.46-1.22,0.69-2.33,0.69h-5.83
			C97.05,386.95,96.29,386.72,95.85,386.27z M108.81,368.67c1.04,0,1.87-0.28,2.47-0.83c0.6-0.55,0.91-1.39,0.91-2.5
			c0-1.14-0.3-1.99-0.91-2.55c-0.61-0.55-1.43-0.83-2.47-0.83h-3.33v6.71H108.81z"/>
		<path d="M123.17,385.92c0-0.29,0.08-0.65,0.25-1.08l12.2-29.35c0.29-0.69,0.63-1.17,1-1.45s0.91-0.42,1.59-0.42h5.34
			c0.69,0,1.22,0.14,1.59,0.42c0.38,0.28,0.71,0.76,1,1.45l12.15,29.35c0.16,0.43,0.24,0.78,0.24,1.08c0,0.69-0.36,1.03-1.08,1.03
			h-9.21c-1.01,0-1.65-0.44-1.91-1.32l-1.18-3.63h-8.67l-1.13,3.63c-0.26,0.88-0.9,1.32-1.91,1.32h-9.21
			C123.53,386.95,123.17,386.61,123.17,385.92z M142.77,374.26l-1.91-6.08l-1.91,6.08H142.77z"/>
		<path d="M161.66,386.27c-0.44-0.46-0.66-1.16-0.66-2.11v-27.73c0-0.95,0.22-1.65,0.66-2.11c0.44-0.46,1.2-0.69,2.28-0.69h14.85
			c3.99,0,6.92,0.85,8.8,2.55c1.88,1.7,2.82,4.12,2.82,7.25c0,1.47-0.32,2.77-0.96,3.9c-0.64,1.13-1.48,1.92-2.52,2.38
			c2.91,0.98,4.36,3.27,4.36,6.86c0,3.07-1.09,5.57-3.26,7.5s-5.37,2.89-9.58,2.89h-14.5C162.86,386.95,162.1,386.72,161.66,386.27z
			 M176.43,366.23c1.5,0,2.25-0.72,2.25-2.16s-0.75-2.16-2.25-2.16h-3.72v4.31H176.43z M177.26,378.67c0.69,0,1.24-0.22,1.67-0.66
			c0.42-0.44,0.64-1.04,0.64-1.79c0-0.78-0.21-1.39-0.61-1.81c-0.41-0.42-0.97-0.64-1.69-0.64h-4.56v4.9H177.26z"/>
		<path d="M189.56,385.92c0-0.29,0.08-0.65,0.25-1.08l12.2-29.35c0.29-0.69,0.63-1.17,1-1.45c0.38-0.28,0.91-0.42,1.59-0.42h5.34
			c0.69,0,1.22,0.14,1.59,0.42c0.38,0.28,0.71,0.76,1,1.45l12.15,29.35c0.16,0.43,0.25,0.78,0.25,1.08c0,0.69-0.36,1.03-1.08,1.03
			h-9.21c-1.01,0-1.65-0.44-1.91-1.32l-1.18-3.63h-8.67l-1.13,3.63c-0.26,0.88-0.9,1.32-1.91,1.32h-9.21
			C189.92,386.95,189.56,386.61,189.56,385.92z M209.16,374.26l-1.91-6.08l-1.91,6.08H209.16z"/>
		<path d="M228.67,383.3c-3.3-2.92-4.95-7.26-4.95-13.01c0-5.78,1.59-10.13,4.78-13.03c3.18-2.91,7.73-4.36,13.65-4.36
			c2.68,0,5.06,0.26,7.15,0.79s3.84,1.26,5.24,2.21c0.39,0.29,0.59,0.62,0.59,0.98c0,0.29-0.15,0.7-0.44,1.23l-2.45,4.21
			c-0.26,0.46-0.57,0.69-0.93,0.69c-0.23,0-0.6-0.13-1.13-0.39c-0.91-0.46-1.87-0.82-2.87-1.08c-1-0.26-2.17-0.39-3.5-0.39
			c-2.71,0-4.79,0.78-6.22,2.35c-1.44,1.57-2.16,3.84-2.16,6.81c0,2.94,0.78,5.2,2.35,6.79c1.57,1.58,3.71,2.38,6.42,2.38
			c2.35,0,4.51-0.49,6.47-1.47c0.52-0.26,0.9-0.39,1.13-0.39c0.36,0,0.67,0.23,0.93,0.69l2.45,4.21c0.29,0.52,0.44,0.93,0.44,1.22
			c0,0.36-0.2,0.69-0.59,0.98c-1.41,0.95-3.17,1.68-5.29,2.21s-4.52,0.78-7.2,0.78C236.59,387.69,231.96,386.23,228.67,383.3z"/>
		<path d="M258.73,386.27c-0.44-0.46-0.66-1.16-0.66-2.11v-27.73c0-0.95,0.22-1.65,0.66-2.11s1.2-0.69,2.28-0.69h5.83
			c1.11,0,1.89,0.22,2.33,0.66c0.44,0.44,0.66,1.15,0.66,2.13v27.73c0,0.95-0.22,1.65-0.66,2.11c-0.44,0.46-1.22,0.69-2.33,0.69H261
			C259.93,386.95,259.17,386.72,258.73,386.27z"/>
		<path d="M276.78,383.15c-3.01-3.02-4.51-7.31-4.51-12.86c0-5.55,1.5-9.84,4.51-12.86c3-3.02,7.42-4.53,13.23-4.53
			c5.81,0,10.22,1.51,13.23,4.53c3,3.02,4.51,7.31,4.51,12.86c0,5.55-1.5,9.84-4.51,12.86c-3.01,3.02-7.42,4.53-13.23,4.53
			C284.2,387.69,279.79,386.18,276.78,383.15z M294.62,377.18c0.95-1.52,1.42-3.81,1.42-6.88c0-3.1-0.47-5.41-1.42-6.91
			c-0.95-1.5-2.48-2.25-4.61-2.25c-2.13,0-3.66,0.75-4.61,2.25c-0.95,1.5-1.42,3.81-1.42,6.91c0,3.07,0.47,5.37,1.42,6.88
			c0.95,1.52,2.48,2.28,4.61,2.28C292.14,379.46,293.67,378.7,294.62,377.18z M284.82,349.52c0-0.26,0.05-0.54,0.15-0.83l2.06-5.68
			c0.26-0.75,0.57-1.26,0.93-1.52s1.03-0.39,2.01-0.39h7.01c0.69,0,1.22,0.12,1.62,0.37c0.39,0.25,0.59,0.6,0.59,1.05
			c0,0.39-0.13,0.8-0.39,1.22l-3.14,5.29c-0.46,0.78-0.9,1.29-1.32,1.52c-0.42,0.23-1.19,0.34-2.3,0.34h-5.24
			C285.47,350.89,284.82,350.43,284.82,349.52z"/>
		<path d="M310.86,386.27c-0.44-0.46-0.66-1.16-0.66-2.11v-27.78c0-0.95,0.22-1.64,0.66-2.08c0.44-0.44,1.22-0.66,2.33-0.66h4.66
			c0.69,0,1.22,0.09,1.59,0.27c0.38,0.18,0.74,0.53,1.1,1.05l8.87,13.18v-11.71c0-0.95,0.22-1.65,0.66-2.11s1.2-0.69,2.28-0.69h5.83
			c1.11,0,1.89,0.22,2.33,0.66c0.44,0.44,0.66,1.15,0.66,2.13v27.78c0,0.95-0.22,1.64-0.66,2.08c-0.44,0.44-1.22,0.66-2.33,0.66
			h-4.65c-0.69,0-1.22-0.09-1.59-0.27c-0.38-0.18-0.74-0.53-1.1-1.05l-8.87-13.18v11.76c0,0.95-0.22,1.64-0.66,2.08
			c-0.44,0.44-1.22,0.66-2.33,0.66h-5.83C312.06,386.95,311.3,386.72,310.86,386.27z"/>
		<path d="M35.19,445.07c-0.44-0.46-0.66-1.16-0.66-2.11v-27.73c0-0.95,0.22-1.65,0.66-2.11c0.44-0.46,1.2-0.69,2.28-0.69h11.27
			c11.53,0,17.3,5.55,17.3,16.66c0,5.49-1.48,9.64-4.43,12.45c-2.96,2.81-7.25,4.21-12.86,4.21H37.47
			C36.39,445.75,35.63,445.52,35.19,445.07z M49.18,437.42c1.83,0,3.14-0.6,3.94-1.81s1.2-3.38,1.2-6.52s-0.4-5.31-1.2-6.52
			c-0.8-1.21-2.12-1.81-3.94-1.81h-2.89v16.66H49.18z"/>
		<path d="M69.15,445.07c-0.44-0.46-0.66-1.16-0.66-2.11v-27.73c0-0.95,0.22-1.65,0.66-2.11c0.44-0.46,1.2-0.69,2.28-0.69h20.29
			c1.04,0,1.76,0.22,2.13,0.66c0.38,0.44,0.56,1.15,0.56,2.13v2.74c0,0.98-0.19,1.69-0.56,2.13c-0.38,0.44-1.09,0.66-2.13,0.66
			H80.24v4.21h7.06c1.04,0,1.76,0.22,2.13,0.66c0.38,0.44,0.56,1.15,0.56,2.13v2.65c0,0.98-0.19,1.69-0.56,2.13
			c-0.38,0.44-1.09,0.66-2.13,0.66h-7.06v4.21h11.42c1.04,0,1.75,0.22,2.13,0.66c0.38,0.44,0.56,1.15,0.56,2.13v2.74
			c0,0.98-0.19,1.69-0.56,2.13c-0.38,0.44-1.09,0.66-2.13,0.66H71.42C70.35,445.75,69.59,445.52,69.15,445.07z"/>
		<path d="M111.97,445.07c-0.44-0.46-0.66-1.16-0.66-2.11v-27.73c0-0.95,0.22-1.65,0.66-2.11c0.44-0.46,1.2-0.69,2.28-0.69h5.83
			c1.11,0,1.89,0.22,2.33,0.66c0.44,0.44,0.66,1.15,0.66,2.13v22.2h11.42c1.04,0,1.76,0.22,2.13,0.66c0.38,0.44,0.56,1.15,0.56,2.13
			v2.74c0,0.98-0.19,1.69-0.56,2.13c-0.38,0.44-1.09,0.66-2.13,0.66h-20.24C113.17,445.75,112.41,445.52,111.97,445.07z"/>
		<path d="M139.31,445.07c-0.44-0.46-0.66-1.16-0.66-2.11v-27.73c0-0.95,0.22-1.65,0.66-2.11c0.44-0.46,1.2-0.69,2.28-0.69h5.83
			c1.11,0,1.89,0.22,2.33,0.66c0.44,0.44,0.66,1.15,0.66,2.13v22.2h11.42c1.04,0,1.76,0.22,2.13,0.66c0.38,0.44,0.56,1.15,0.56,2.13
			v2.74c0,0.98-0.19,1.69-0.56,2.13c-0.38,0.44-1.09,0.66-2.13,0.66h-20.24C140.51,445.75,139.75,445.52,139.31,445.07z"/>
		<path d="M164.28,444.72c0-0.29,0.08-0.65,0.25-1.08l12.2-29.35c0.29-0.69,0.63-1.17,1-1.45s0.91-0.42,1.59-0.42h5.34
			c0.69,0,1.22,0.14,1.59,0.42c0.38,0.28,0.71,0.76,1,1.45l12.15,29.35c0.16,0.43,0.24,0.78,0.24,1.08c0,0.69-0.36,1.03-1.08,1.03
			h-9.21c-1.01,0-1.65-0.44-1.91-1.32l-1.18-3.63h-8.67l-1.13,3.63c-0.26,0.88-0.9,1.32-1.91,1.32h-9.21
			C164.64,445.75,164.28,445.41,164.28,444.72z M183.88,433.06l-1.91-6.08l-1.91,6.08H183.88z"/>
		<path d="M201.54,445.07c-0.44-0.46-0.66-1.16-0.66-2.11v-27.78c0-0.95,0.22-1.64,0.66-2.08c0.44-0.44,1.22-0.66,2.33-0.66h5.63
			c0.72,0,1.29,0.09,1.71,0.27c0.42,0.18,0.75,0.53,0.98,1.05l5.73,14.36l5.73-14.36c0.23-0.52,0.56-0.87,0.98-1.05
			c0.42-0.18,1-0.27,1.71-0.27H232c1.11,0,1.89,0.22,2.33,0.66c0.44,0.44,0.66,1.13,0.66,2.08v27.78c0,0.95-0.22,1.65-0.66,2.11
			c-0.44,0.46-1.2,0.69-2.28,0.69h-4.7c-1.08,0-1.85-0.23-2.3-0.69c-0.46-0.46-0.69-1.16-0.69-2.11v-13.38l-2.89,6.66
			c-0.39,0.95-0.82,1.63-1.27,2.03c-0.46,0.41-1.21,0.61-2.25,0.61c-1.05,0-1.8-0.2-2.25-0.61c-0.46-0.41-0.88-1.09-1.27-2.03
			l-2.89-6.66v13.38c0,0.95-0.22,1.65-0.66,2.11c-0.44,0.46-1.22,0.69-2.33,0.69h-4.7C202.74,445.75,201.98,445.52,201.54,445.07z"
			/>
		<path d="M236.21,444.72c0-0.29,0.08-0.65,0.24-1.08l12.2-29.35c0.29-0.69,0.63-1.17,1-1.45c0.38-0.28,0.91-0.42,1.59-0.42h5.34
			c0.69,0,1.22,0.14,1.59,0.42c0.38,0.28,0.71,0.76,1,1.45l12.15,29.35c0.16,0.43,0.24,0.78,0.24,1.08c0,0.69-0.36,1.03-1.08,1.03
			h-9.21c-1.01,0-1.65-0.44-1.91-1.32l-1.18-3.63h-8.67l-1.13,3.63c-0.26,0.88-0.9,1.32-1.91,1.32h-9.21
			C236.57,445.75,236.21,445.41,236.21,444.72z M255.81,433.06l-1.91-6.08l-1.91,6.08H255.81z"/>
		<path d="M274.7,445.07c-0.44-0.46-0.66-1.16-0.66-2.11v-27.73c0-0.95,0.22-1.65,0.66-2.11c0.44-0.46,1.2-0.69,2.28-0.69h11.27
			c11.53,0,17.3,5.55,17.3,16.66c0,5.49-1.48,9.64-4.43,12.45c-2.96,2.81-7.24,4.21-12.86,4.21h-11.27
			C275.9,445.75,275.14,445.52,274.7,445.07z M288.69,437.42c1.83,0,3.14-0.6,3.95-1.81c0.8-1.21,1.2-3.38,1.2-6.52
			s-0.4-5.31-1.2-6.52c-0.8-1.21-2.12-1.81-3.95-1.81h-2.89v16.66H288.69z"/>
		<path d="M304.81,444.72c0-0.29,0.08-0.65,0.24-1.08l12.2-29.35c0.29-0.69,0.63-1.17,1-1.45c0.38-0.28,0.91-0.42,1.59-0.42h5.34
			c0.69,0,1.22,0.14,1.59,0.42c0.38,0.28,0.71,0.76,1,1.45l12.15,29.35c0.16,0.43,0.24,0.78,0.24,1.08c0,0.69-0.36,1.03-1.08,1.03
			h-9.21c-1.01,0-1.65-0.44-1.91-1.32l-1.18-3.63h-8.67l-1.13,3.63c-0.26,0.88-0.9,1.32-1.91,1.32h-9.21
			C305.17,445.75,304.81,445.41,304.81,444.72z M324.41,433.06l-1.91-6.08l-1.91,6.08H324.41z"/>
		<path d="M346.66,445.56c-2.55-0.62-4.61-1.49-6.17-2.6c-0.65-0.46-0.98-0.9-0.98-1.32c0-0.29,0.11-0.6,0.34-0.93l2.84-4.46
			c0.29-0.42,0.59-0.64,0.88-0.64c0.26,0,0.57,0.11,0.93,0.34c1.18,0.72,2.52,1.28,4.04,1.69c1.52,0.41,3,0.61,4.43,0.61
			c1.21,0,2.08-0.16,2.62-0.49c0.54-0.33,0.81-0.83,0.81-1.52c0-0.75-0.36-1.36-1.08-1.81c-0.72-0.46-1.96-1.03-3.72-1.71
			c-3.3-1.27-5.9-2.72-7.79-4.34c-1.89-1.62-2.84-3.76-2.84-6.44c0-3.4,1.18-5.95,3.55-7.67c2.37-1.71,5.56-2.57,9.58-2.57
			c2.81,0,5.2,0.25,7.18,0.73c1.98,0.49,3.7,1.26,5.17,2.3c0.65,0.46,0.98,0.9,0.98,1.32c0,0.29-0.11,0.61-0.34,0.93l-2.84,4.46
			c-0.29,0.46-0.59,0.69-0.88,0.69c-0.2,0-0.51-0.13-0.93-0.39c-0.78-0.52-1.71-0.96-2.79-1.3c-1.08-0.34-2.24-0.51-3.48-0.51
			c-1.14,0-2.01,0.16-2.6,0.49c-0.59,0.33-0.88,0.85-0.88,1.57c0,0.59,0.2,1.08,0.61,1.47c0.41,0.39,0.92,0.73,1.54,1
			c0.62,0.28,1.7,0.73,3.23,1.35c2.45,0.98,4.38,1.92,5.78,2.82c1.4,0.9,2.47,1.98,3.18,3.23c0.72,1.26,1.08,2.85,1.08,4.78
			c0,2.94-1.1,5.32-3.31,7.13c-2.21,1.81-5.5,2.72-9.87,2.72C351.96,446.49,349.2,446.18,346.66,445.56z"/>
	</g>
	<polygon class="st6" points="199.76,86.93 213.23,114.22 243.34,118.59 221.55,139.83 226.7,169.83 199.76,155.67 172.83,169.83 
		177.97,139.83 156.18,118.59 186.29,114.22 	"/>
	<polygon class="st6" points="137.58,170.15 146.32,187.86 165.86,190.7 151.72,204.48 155.06,223.94 137.58,214.75 120.11,223.94 
		123.45,204.48 109.31,190.7 128.85,187.86 	"/>
	<polygon class="st6" points="267.68,170.15 276.42,187.86 295.95,190.7 281.82,204.48 285.15,223.94 267.68,214.75 250.2,223.94 
		253.54,204.48 239.4,190.7 258.94,187.86 	"/>
	<circle class="st7" cx="200.77" cy="203.97" r="121.96"/>
	<circle class="st1" cx="199.82" cy="190.58" r="121.96"/>
	<g>
		<path class="st1" d="M175.43,630.35v-4.31c0-2.87,0.97-5.57,2.92-8.1c1.95-2.53,5.35-5.5,10.22-8.91c1.7-1.17,2.75-1.87,3.14-2.12
			c1.75-1.17,2.97-2.04,3.65-2.63c0.68-0.58,1.19-1.22,1.53-1.9c0.34-0.68,0.51-1.56,0.51-2.63c0-1.22-0.45-2.2-1.35-2.96
			c-0.9-0.75-2.28-1.13-4.13-1.13c-3.12,0-6.28,0.8-9.49,2.41c-0.78,0.39-1.34,0.58-1.68,0.58c-0.54,0-1-0.34-1.39-1.02l-3.65-6.28
			c-0.44-0.78-0.66-1.39-0.66-1.82c0-0.54,0.29-1.02,0.88-1.46c2.09-1.41,4.79-2.54,8.1-3.39c3.31-0.85,6.93-1.28,10.88-1.28
			c6.13,0,10.99,1.28,14.56,3.83c3.58,2.55,5.37,6.17,5.37,10.84c0,3.6-1,6.66-2.99,9.16c-2,2.51-5.26,5.22-9.78,8.14
			c-4.82,3.12-7.71,5.21-8.69,6.28h17.81c1.56,0,2.62,0.33,3.18,0.99c0.56,0.66,0.84,1.71,0.84,3.17v4.16
			c0,1.46-0.28,2.52-0.84,3.18c-0.56,0.66-1.62,0.99-3.18,0.99h-32.12C176.65,634.14,175.43,632.88,175.43,630.35z"/>
	</g>
	<g>
		<path class="st34" d="M206.2,219.47h-58.45c-7.91,0-14.35-6.44-14.35-14.35v-58.45c0-7.91,6.44-14.35,14.35-14.35h58.45
			c7.91,0,14.35,6.44,14.35,14.35v58.45C220.55,213.04,214.11,219.47,206.2,219.47z M147.75,137.64c-4.98,0-9.04,4.05-9.04,9.03
			v58.45c0,4.98,4.05,9.03,9.04,9.03h58.45c4.98,0,9.03-4.05,9.03-9.03v-58.45c0-4.98-4.05-9.03-9.03-9.03H147.75z"/>
	</g>
	<path class="st36" d="M181.34,235.54l-0.05-39.08l-3.32,2.11c-4.76,2.95-6.88,5.17-8.17,9.24c-0.75,2.39-1.17,5.07-1.2,7.88
		l-0.13,19.84H181.34z"/>
	<path class="st36" d="M233.56,235.54l-1-39.73l4.37,2.76c4.76,2.95,6.88,5.17,8.17,9.24c0.76,2.39,1.17,5.07,1.2,7.88l0.13,19.84
		H233.56z"/>
	<path class="st35" d="M235.08,203.3c0-6.5-1.69-6.97-1.69-6.97l-12.84-7.8c-13.02,0.45-15.54,0.32-25.64,0.3l-13.4,7.5
		c0,0-1.69,0.47-1.69,6.97l-0.18,32.24h27.82h27.82L235.08,203.3z"/>
	<g>
		<g>
			<g>
				<path class="st34" d="M169.73,171.79h1.85c-0.06-4.5-3.7-8.14-8.2-8.2v1.85C166.86,165.5,169.67,168.31,169.73,171.79z"/>
			</g>
			<g>
				<path class="st34" d="M175.51,171.79h1.85c-0.06-7.68-6.29-13.92-13.97-13.97v1.85C170.04,159.72,175.45,165.13,175.51,171.79z"
					/>
			</g>
			<g>
				<path class="st34" d="M181.2,171.79h1.85c-0.06-10.82-8.84-19.61-19.67-19.67v1.85C173.18,154.03,181.14,161.99,181.2,171.79z"
					/>
			</g>
		</g>
		<path class="st34" d="M180.1,187.7l-6.9-8.94c-0.13-0.16-0.36-0.19-0.52-0.07l-3.54,2.73c-0.16,0.13-0.19,0.36-0.07,0.52
			l0.06,0.08c-2.47-0.21-6.91-3.31-9.54-6.65c-2.57-3.38-4.43-8.47-4.02-10.91l0.06,0.08c0.13,0.16,0.36,0.19,0.52,0.07l3.54-2.73
			c0.16-0.13,0.19-0.36,0.07-0.52l-6.9-8.94c-0.13-0.16-0.36-0.19-0.52-0.07l-3.54,2.73c-0.16,0.13-0.19,0.36-0.07,0.52l0,0
			c-1.87,1.95-2.51,4.21-1.85,7.42c0.33,1.6,1.16,8.02,7.55,16.32c6.41,8.28,12.42,10.72,13.89,11.44c2.94,1.45,5.29,1.41,7.65,0.09
			l0,0c0.12,0.16,0.36,0.19,0.52,0.07l3.54-2.73C180.2,188.09,180.23,187.86,180.1,187.7z"/>
	</g>
	<path class="st67" d="M228.57,172c0,11.62-9.42,21.03-21.03,21.03c-11.62,0-21.03-9.42-21.03-21.03c0-11.62,9.42-21.03,21.03-21.03
		C219.15,150.96,228.57,160.38,228.57,172z"/>
	<circle class="st75" cx="244.46" cy="221.52" r="27.54"/>
	<path class="st73" d="M247.03,230.58h-4.98c-1.66,0-3.01-1.36-3.01-3.01v-22.54c0-1.66,1.36-3.01,3.01-3.01h4.98
		c1.66,0,3.01,1.36,3.01,3.01v22.54C250.04,229.23,248.69,230.58,247.03,230.58z"/>
	<path class="st73" d="M252.64,229.77c0,2.06-3.89,3.74-8.64,3.74s-8.64-1.69-8.64-3.74v-5.4H233v5.79c0,2.62,4.95,4.77,11,4.77
		s11-2.15,11-4.77v-5.79h-2.36V229.77z"/>
	<rect x="243.64" y="234.22" class="st73" width="1.7" height="7.72"/>
	<rect x="239.04" y="241.16" class="st73" width="11.01" height="1.84"/>
</g>
</svg>
