<?xml version="1.0" encoding="utf-8"?>
<!-- Generator: Adobe Illustrator 23.0.0, SVG Export Plug-In . SVG Version: 6.00 Build 0)  -->
<svg version="1.1" id="Capa_1" xmlns="http://www.w3.org/2000/svg" xmlns:xlink="http://www.w3.org/1999/xlink" x="0px" y="0px"
	 viewBox="0 0 400 689" style="enable-background:new 0 0 400 689;" xml:space="preserve">
<style type="text/css">
	.st0{fill:#E2E2E2;}
	.st1{fill:#FFFFFF;}
	.st2{fill:#CCCDCE;}
	.st3{fill:#F2F2F2;}
	.st4{fill:none;}
	.st5{fill:#0085B0;}
	.st6{fill:#E0EF18;}
	.st7{fill:#CECECE;}
	.st8{fill:#22272F;}
	.st9{fill:#1B2538;}
	.st10{fill:#253452;}
	.st11{fill:#F9F9F9;}
	.st12{fill:#2D3543;}
	.st13{fill:#2A3D60;}
	.st14{fill:#6C92D5;}
	.st15{fill:#587955;}
	.st16{fill:#CD7054;}
	.st17{fill:#F1CC4B;}
	.st18{fill:#DFDFDF;}
	.st19{fill:#ACACAC;}
	.st20{fill:#00D13C;}
	.st21{fill:#866A5E;}
	.st22{fill:#F7DDCB;}
	.st23{fill:#FFE6D4;}
	.st24{fill:#2D2D2D;}
	.st25{fill:#1C1B1A;}
	.st26{fill:#F5F5F5;}
	.st27{fill:#77181C;}
	.st28{fill:#EAEAEA;}
	.st29{fill:#262525;}
	.st30{fill:#11100F;}
	.st31{fill:#FFFFFF;stroke:#000000;stroke-width:6;stroke-miterlimit:10;}
	.st32{fill:#D4D4D4;}
	.st33{fill:#C2C2C2;}
	.st34{fill:#505050;}
	.st35{fill:#53C2C9;}
	.st36{fill:#008B9C;}
	.st37{fill:none;stroke:#00550B;stroke-width:4;stroke-miterlimit:10;}
	.st38{fill:#CE2458;}
	.st39{fill:#155500;}
	.st40{fill:#1549FF;}
	.st41{fill:#606060;stroke:#C6C8CC;stroke-width:6;stroke-miterlimit:10;}
	.st42{fill:#727272;}
	.st43{fill:#207235;}
	.st44{fill:#A3A3A3;}
	.st45{fill:#BCBCBC;}
	.st46{fill:#2A5936;}
	.st47{opacity:0.7;fill:#7F7F7F;}
	.st48{fill:#DAA449;}
	.st49{fill:#85B681;}
	.st50{fill:#A1DC9B;}
	.st51{fill:#90C58B;}
	.st52{fill:#DD9225;}
	.st53{opacity:0.3;}
	.st54{fill:#81C378;}
	.st55{opacity:0.5;}
	.st56{fill:#A2CADE;}
	.st57{fill:#9BAEC9;}
	.st58{fill:#9D2B3B;}
	.st59{fill:#C1D4F2;}
	.st60{fill:#534D46;}
	.st61{fill:#191819;}
	.st62{fill:#222123;}
	.st63{fill:#F3FF00;}
	.st64{fill-rule:evenodd;clip-rule:evenodd;fill:#FFFFFF;}
	.st65{fill-rule:evenodd;clip-rule:evenodd;fill:#1996B8;}
	.st66{fill:none;stroke:#5A605A;stroke-width:4;stroke-miterlimit:10;}
	.st67{fill:#FFB412;}
	.st68{fill:#BACDD1;}
	.st69{fill:#1C4D59;}
	.st70{fill:#A14329;}
	.st71{fill:#FCC083;}
	.st72{fill:#E8AA63;}
	.st73{fill:#D40000;}
	.st74{opacity:0.35;fill:#7D7D7D;}
	.st75{fill:#E5E3E3;}
	.st76{fill:#121F5E;}
	.st77{fill:#A3ADAF;}
	.st78{fill:#C2C6C6;}
	.st79{fill:#E5E5E5;stroke:#FFFFFF;stroke-miterlimit:10;}
	.st80{fill:#ACB4B5;}
	.st81{fill:#7F8384;}
	.st82{fill:#282828;}
	.st83{fill:none;stroke:#46A508;stroke-width:6;stroke-miterlimit:10;}
	.st84{fill:none;stroke:#46A508;stroke-width:6;stroke-miterlimit:10;stroke-dasharray:11.7425,11.7425;}
	.st85{fill:#C89D76;}
	.st86{opacity:0.4;}
	.st87{fill:#ADADAD;}
	.st88{fill:#76A172;}
	.st89{fill:#62835F;}
	.st90{fill:#96D090;}
	.st91{fill:#EDC3A6;}
	.st92{opacity:0.69;}
	.st93{fill:#E5D3D6;}
	.st94{opacity:0.44;}
	.st95{fill:#A5A5A5;}
	.st96{fill:#DDE5E4;}
	.st97{fill:#FDFDFD;}
	.st98{fill:#E0C348;}
	.st99{fill:#606060;}
</style>
<g>
	<g>
		<path class="st5" d="M8.5,199.36c0,22,13.29,27.86,29.54,13.03c0,0,156.99-143.3,353.09,26.97V45c0-22-18-40-40-40H48.5
			c-22,0-40,18-40,40V199.36z"/>
	</g>
	<g>
		<path class="st5" d="M390.66,637c0,22-18,40-40,40H48.98c-22,0-40-18-40-40v-46.27c0-22,18-40,40-40h301.68c22,0,40,18,40,40V637z
			"/>
	</g>
	<g>
		<path d="M74.11,383.81c-1.87-0.46-3.38-1.09-4.54-1.91c-0.48-0.34-0.72-0.66-0.72-0.97c0-0.22,0.08-0.44,0.25-0.68l2.09-3.28
			c0.22-0.31,0.43-0.47,0.65-0.47c0.19,0,0.42,0.08,0.68,0.25c0.86,0.53,1.85,0.94,2.97,1.24c1.12,0.3,2.2,0.45,3.26,0.45
			c0.89,0,1.53-0.12,1.93-0.36c0.4-0.24,0.59-0.61,0.59-1.12c0-0.55-0.26-1-0.79-1.33c-0.53-0.33-1.44-0.76-2.74-1.26
			c-2.42-0.94-4.33-2-5.72-3.19c-1.39-1.19-2.09-2.77-2.09-4.73c0-2.5,0.87-4.37,2.61-5.63c1.74-1.26,4.09-1.89,7.04-1.89
			c2.06,0,3.82,0.18,5.27,0.54c1.45,0.36,2.72,0.92,3.8,1.69c0.48,0.34,0.72,0.66,0.72,0.97c0,0.21-0.08,0.44-0.25,0.68l-2.09,3.28
			c-0.22,0.34-0.43,0.5-0.65,0.5c-0.14,0-0.37-0.1-0.68-0.29c-0.58-0.38-1.26-0.7-2.05-0.95s-1.64-0.38-2.56-0.38
			c-0.84,0-1.48,0.12-1.91,0.36c-0.43,0.24-0.65,0.63-0.65,1.15c0,0.43,0.15,0.79,0.45,1.08c0.3,0.29,0.68,0.53,1.13,0.74
			c0.46,0.2,1.25,0.53,2.38,0.99c1.8,0.72,3.22,1.41,4.25,2.07s1.81,1.45,2.34,2.38s0.79,2.09,0.79,3.51c0,2.16-0.81,3.91-2.43,5.24
			s-4.04,2-7.25,2C78.01,384.49,75.98,384.26,74.11,383.81z"/>
		<path d="M92.16,383.45c-0.32-0.34-0.49-0.85-0.49-1.55v-20.38c0-0.7,0.16-1.21,0.49-1.55s0.88-0.5,1.67-0.5h4.28
			c0.82,0,1.39,0.16,1.71,0.49c0.32,0.32,0.49,0.85,0.49,1.57v20.38c0,0.7-0.16,1.21-0.49,1.55s-0.89,0.5-1.71,0.5h-4.28
			C93.04,383.95,92.48,383.78,92.16,383.45z"/>
		<path d="M107.41,383.81c-1.87-0.46-3.38-1.09-4.54-1.91c-0.48-0.34-0.72-0.66-0.72-0.97c0-0.22,0.08-0.44,0.25-0.68l2.09-3.28
			c0.22-0.31,0.43-0.47,0.65-0.47c0.19,0,0.42,0.08,0.68,0.25c0.86,0.53,1.85,0.94,2.97,1.24c1.12,0.3,2.2,0.45,3.26,0.45
			c0.89,0,1.53-0.12,1.93-0.36c0.4-0.24,0.59-0.61,0.59-1.12c0-0.55-0.26-1-0.79-1.33c-0.53-0.33-1.44-0.76-2.74-1.26
			c-2.42-0.94-4.33-2-5.72-3.19c-1.39-1.19-2.09-2.77-2.09-4.73c0-2.5,0.87-4.37,2.61-5.63s4.09-1.89,7.04-1.89
			c2.06,0,3.82,0.18,5.27,0.54c1.45,0.36,2.72,0.92,3.8,1.69c0.48,0.34,0.72,0.66,0.72,0.97c0,0.21-0.08,0.44-0.25,0.68l-2.09,3.28
			c-0.22,0.34-0.43,0.5-0.65,0.5c-0.14,0-0.37-0.1-0.68-0.29c-0.58-0.38-1.26-0.7-2.05-0.95s-1.64-0.38-2.56-0.38
			c-0.84,0-1.48,0.12-1.91,0.36c-0.43,0.24-0.65,0.63-0.65,1.15c0,0.43,0.15,0.79,0.45,1.08s0.68,0.53,1.13,0.74
			s1.25,0.53,2.38,0.99c1.8,0.72,3.21,1.41,4.25,2.07s1.81,1.45,2.34,2.38c0.53,0.92,0.79,2.09,0.79,3.51
			c0,2.16-0.81,3.91-2.43,5.24s-4.04,2-7.25,2C111.31,384.49,109.28,384.26,107.41,383.81z"/>
		<path d="M130.28,383.45c-0.32-0.34-0.49-0.85-0.49-1.55v-16.31h-5.18c-0.77,0-1.29-0.16-1.57-0.49c-0.28-0.32-0.41-0.85-0.41-1.57
			v-2.02c0-0.72,0.14-1.24,0.41-1.57c0.28-0.32,0.8-0.49,1.57-0.49h19.01c0.77,0,1.29,0.16,1.57,0.49c0.28,0.32,0.41,0.85,0.41,1.57
			v2.02c0,0.72-0.14,1.24-0.41,1.57c-0.28,0.32-0.8,0.49-1.57,0.49h-5.18v16.31c0,0.7-0.16,1.21-0.49,1.55
			c-0.32,0.34-0.89,0.5-1.71,0.5h-4.28C131.17,383.95,130.61,383.78,130.28,383.45z"/>
		<path d="M147.17,383.45c-0.32-0.34-0.49-0.85-0.49-1.55v-20.38c0-0.7,0.16-1.21,0.49-1.55c0.32-0.34,0.88-0.5,1.67-0.5h14.9
			c0.77,0,1.29,0.16,1.57,0.49c0.28,0.32,0.41,0.85,0.41,1.57v2.02c0,0.72-0.14,1.24-0.41,1.57c-0.28,0.32-0.8,0.49-1.57,0.49h-8.42
			v3.1h5.18c0.77,0,1.29,0.16,1.57,0.49c0.28,0.32,0.41,0.85,0.41,1.57v1.94c0,0.72-0.14,1.24-0.41,1.57s-0.8,0.49-1.57,0.49h-5.18
			v3.1h8.39c0.77,0,1.29,0.16,1.57,0.49c0.28,0.32,0.41,0.85,0.41,1.57v2.02c0,0.72-0.14,1.24-0.41,1.57
			c-0.28,0.32-0.8,0.49-1.57,0.49h-14.87C148.05,383.95,147.49,383.78,147.17,383.45z"/>
		<path d="M167.83,383.45c-0.32-0.34-0.49-0.85-0.49-1.55v-20.41c0-0.7,0.16-1.21,0.49-1.53c0.32-0.32,0.89-0.49,1.71-0.49h4.14
			c0.53,0,0.95,0.07,1.26,0.2c0.31,0.13,0.55,0.39,0.72,0.77l4.21,10.55l4.21-10.55c0.17-0.38,0.41-0.64,0.72-0.77
			c0.31-0.13,0.73-0.2,1.26-0.2h4.14c0.82,0,1.39,0.16,1.71,0.49c0.32,0.32,0.49,0.83,0.49,1.53v20.41c0,0.7-0.16,1.21-0.49,1.55
			c-0.32,0.34-0.88,0.5-1.67,0.5h-3.46c-0.79,0-1.36-0.17-1.69-0.5c-0.34-0.34-0.5-0.85-0.5-1.55v-9.83l-2.12,4.9
			c-0.29,0.7-0.6,1.19-0.94,1.49c-0.34,0.3-0.89,0.45-1.66,0.45c-0.77,0-1.32-0.15-1.66-0.45c-0.34-0.3-0.65-0.8-0.94-1.49
			l-2.13-4.9v9.83c0,0.7-0.16,1.21-0.49,1.55c-0.32,0.34-0.89,0.5-1.71,0.5h-3.46C168.71,383.95,168.15,383.78,167.83,383.45z"/>
		<path d="M193.3,383.2c0-0.22,0.06-0.48,0.18-0.79l8.96-21.56c0.22-0.5,0.46-0.86,0.74-1.06c0.28-0.2,0.67-0.31,1.17-0.31h3.92
			c0.5,0,0.89,0.1,1.17,0.31c0.28,0.2,0.52,0.56,0.74,1.06l8.93,21.56c0.12,0.31,0.18,0.58,0.18,0.79c0,0.5-0.26,0.76-0.79,0.76
			h-6.77c-0.74,0-1.21-0.32-1.4-0.97l-0.86-2.66h-6.37l-0.83,2.66c-0.19,0.65-0.66,0.97-1.4,0.97h-6.77
			C193.56,383.95,193.3,383.7,193.3,383.2z M207.7,374.63l-1.4-4.46l-1.4,4.46H207.7z"/>
		<path d="M221.58,383.45c-0.32-0.34-0.49-0.85-0.49-1.55v-20.38c0-0.7,0.16-1.21,0.49-1.55c0.32-0.34,0.88-0.5,1.67-0.5h8.28
			c8.47,0,12.71,4.08,12.71,12.24c0,4.03-1.09,7.08-3.26,9.14s-5.32,3.1-9.45,3.1h-8.28C222.46,383.95,221.9,383.78,221.58,383.45z
			 M231.86,377.83c1.34,0,2.31-0.44,2.9-1.33c0.59-0.89,0.88-2.48,0.88-4.79c0-2.3-0.29-3.9-0.88-4.79
			c-0.59-0.89-1.55-1.33-2.9-1.33h-2.13v12.24H231.86z"/>
		<path d="M246.53,383.45c-0.32-0.34-0.49-0.85-0.49-1.55v-20.38c0-0.7,0.16-1.21,0.49-1.55c0.32-0.34,0.88-0.5,1.67-0.5h14.9
			c0.77,0,1.29,0.16,1.57,0.49c0.28,0.32,0.41,0.85,0.41,1.57v2.02c0,0.72-0.14,1.24-0.41,1.57c-0.28,0.32-0.8,0.49-1.57,0.49h-8.42
			v3.1h5.18c0.77,0,1.29,0.16,1.57,0.49c0.28,0.32,0.41,0.85,0.41,1.57v1.94c0,0.72-0.14,1.24-0.41,1.57s-0.8,0.49-1.57,0.49h-5.18
			v3.1h8.39c0.77,0,1.29,0.16,1.57,0.49c0.28,0.32,0.41,0.85,0.41,1.57v2.02c0,0.72-0.14,1.24-0.41,1.57
			c-0.28,0.32-0.8,0.49-1.57,0.49H248.2C247.41,383.95,246.85,383.78,246.53,383.45z"/>
		<path d="M277.99,383.45c-0.32-0.34-0.49-0.85-0.49-1.55v-20.38c0-0.7,0.16-1.21,0.49-1.55s0.88-0.5,1.67-0.5h4.28
			c0.82,0,1.39,0.16,1.71,0.49c0.32,0.32,0.49,0.85,0.49,1.57v20.38c0,0.7-0.16,1.21-0.49,1.55s-0.89,0.5-1.71,0.5h-4.28
			C278.87,383.95,278.31,383.78,277.99,383.45z"/>
		<path d="M297.43,383.65c-0.28-0.2-0.51-0.56-0.7-1.06l-8.6-21.56c-0.12-0.31-0.18-0.58-0.18-0.79c0-0.5,0.26-0.76,0.79-0.76h6.77
			c0.74,0,1.21,0.32,1.4,0.97l3.67,11.74l3.67-11.74c0.19-0.65,0.66-0.97,1.4-0.97h6.77c0.53,0,0.79,0.25,0.79,0.76
			c0,0.22-0.06,0.48-0.18,0.79l-8.57,21.56c-0.19,0.5-0.43,0.86-0.7,1.06s-0.68,0.31-1.21,0.31h-3.92
			C298.11,383.95,297.71,383.85,297.43,383.65z"/>
		<path d="M314.24,383.45c-0.32-0.34-0.49-0.85-0.49-1.55v-20.38c0-0.7,0.16-1.21,0.49-1.55s0.88-0.5,1.67-0.5h8.6
			c3.6,0,6.22,0.71,7.87,2.14c1.64,1.43,2.46,3.58,2.46,6.46c0,1.73-0.29,3.19-0.88,4.37c-0.59,1.19-1.49,2.12-2.72,2.79l3.35,7.16
			c0.1,0.19,0.14,0.41,0.14,0.65c0,0.26-0.09,0.48-0.27,0.65c-0.18,0.17-0.41,0.25-0.7,0.25h-6.08c-0.38,0-0.69-0.05-0.92-0.16
			c-0.23-0.11-0.39-0.29-0.49-0.56l-2.66-6.7h-1.22v5.36c0,0.7-0.16,1.21-0.49,1.55s-0.89,0.5-1.71,0.5h-4.28
			C315.12,383.95,314.57,383.78,314.24,383.45z M323.76,370.52c0.77,0,1.37-0.2,1.82-0.61c0.44-0.41,0.67-1.02,0.67-1.84
			c0-0.84-0.22-1.46-0.67-1.87c-0.44-0.41-1.05-0.61-1.82-0.61h-2.45v4.93H323.76z"/>
		<path d="M25.15,428.2c-1.28-1.54-2.28-3.38-2.99-5.54c-0.71-2.16-1.06-4.45-1.06-6.88c0-2.42,0.35-4.72,1.06-6.88
			c0.71-2.16,1.7-4.01,2.99-5.54c1.28-1.54,2.74-2.59,4.37-3.17c1.1-0.38,1.98-0.58,2.63-0.58c0.67,0,1.18,0.2,1.51,0.59
			c0.34,0.4,0.5,1.04,0.5,1.93c0,0.74-0.02,1.29-0.07,1.64s-0.17,0.65-0.36,0.92c-0.19,0.26-0.52,0.6-0.97,1.01
			c-1.18,1.03-1.98,2.33-2.41,3.89c-0.43,1.56-0.65,3.63-0.65,6.19c0,2.57,0.21,4.63,0.65,6.19c0.43,1.56,1.24,2.86,2.41,3.89
			c0.46,0.41,0.78,0.74,0.97,1.01c0.19,0.26,0.31,0.57,0.36,0.92s0.07,0.89,0.07,1.64c0,0.89-0.17,1.53-0.5,1.93
			c-0.34,0.4-0.84,0.59-1.51,0.59c-0.65,0-1.52-0.19-2.63-0.58C27.89,430.79,26.43,429.73,25.15,428.2z"/>
		<path d="M36.09,426.65c-0.32-0.34-0.49-0.85-0.49-1.55v-20.38c0-0.7,0.16-1.21,0.49-1.55c0.32-0.34,0.88-0.5,1.67-0.5h4.28
			c0.82,0,1.39,0.16,1.71,0.49c0.32,0.32,0.49,0.85,0.49,1.57v20.38c0,0.7-0.16,1.21-0.49,1.55c-0.32,0.34-0.89,0.5-1.71,0.5h-4.28
			C36.97,427.15,36.41,426.98,36.09,426.65z"/>
		<path d="M47.25,426.65c-0.32-0.34-0.49-0.85-0.49-1.55v-20.41c0-0.7,0.16-1.21,0.49-1.53s0.89-0.49,1.71-0.49h3.42
			c0.5,0,0.89,0.07,1.17,0.2c0.28,0.13,0.54,0.39,0.81,0.77l6.52,9.68v-8.6c0-0.7,0.16-1.21,0.49-1.55c0.32-0.34,0.88-0.5,1.67-0.5
			h4.28c0.82,0,1.39,0.16,1.71,0.49c0.32,0.32,0.49,0.85,0.49,1.57v20.41c0,0.7-0.16,1.21-0.49,1.53c-0.32,0.32-0.89,0.49-1.71,0.49
			H63.9c-0.5,0-0.89-0.07-1.17-0.2c-0.28-0.13-0.55-0.39-0.81-0.77l-6.52-9.68v8.64c0,0.7-0.16,1.21-0.49,1.53
			c-0.32,0.32-0.89,0.49-1.71,0.49h-4.29C48.13,427.15,47.57,426.98,47.25,426.65z"/>
		<path d="M78.25,426.65c-0.32-0.34-0.49-0.85-0.49-1.55v-16.31h-5.18c-0.77,0-1.29-0.16-1.57-0.49c-0.28-0.32-0.41-0.85-0.41-1.57
			v-2.02c0-0.72,0.14-1.24,0.41-1.57c0.28-0.32,0.8-0.49,1.57-0.49h19.01c0.77,0,1.29,0.16,1.57,0.49c0.28,0.32,0.41,0.85,0.41,1.57
			v2.02c0,0.72-0.14,1.24-0.41,1.57c-0.28,0.32-0.8,0.49-1.57,0.49H86.4v16.31c0,0.7-0.16,1.21-0.49,1.55s-0.89,0.5-1.71,0.5h-4.29
			C79.13,427.15,78.57,426.98,78.25,426.65z"/>
		<path d="M95.13,426.65c-0.32-0.34-0.49-0.85-0.49-1.55v-20.38c0-0.7,0.16-1.21,0.49-1.55c0.32-0.34,0.88-0.5,1.67-0.5h14.9
			c0.77,0,1.29,0.16,1.57,0.49s0.41,0.85,0.41,1.57v2.02c0,0.72-0.14,1.24-0.41,1.57c-0.28,0.32-0.8,0.49-1.57,0.49h-8.42v3.1h5.18
			c0.77,0,1.29,0.16,1.57,0.49c0.28,0.32,0.41,0.85,0.41,1.57v1.94c0,0.72-0.14,1.24-0.41,1.57c-0.28,0.32-0.8,0.49-1.57,0.49h-5.18
			v3.1h8.39c0.77,0,1.29,0.16,1.57,0.49c0.28,0.32,0.41,0.85,0.41,1.57v2.02c0,0.72-0.14,1.24-0.41,1.57
			c-0.28,0.32-0.8,0.49-1.57,0.49H96.8C96.01,427.15,95.45,426.98,95.13,426.65z"/>
		<path d="M115.79,426.65c-0.32-0.34-0.49-0.85-0.49-1.55v-20.38c0-0.7,0.16-1.21,0.49-1.55s0.88-0.5,1.67-0.5h8.6
			c3.6,0,6.22,0.71,7.87,2.14c1.64,1.43,2.47,3.58,2.47,6.46c0,1.73-0.29,3.19-0.88,4.37c-0.59,1.19-1.49,2.12-2.72,2.79l3.35,7.16
			c0.1,0.19,0.14,0.41,0.14,0.65c0,0.26-0.09,0.48-0.27,0.65s-0.41,0.25-0.7,0.25h-6.08c-0.38,0-0.69-0.05-0.92-0.16
			c-0.23-0.11-0.39-0.29-0.49-0.56l-2.66-6.7h-1.22v5.36c0,0.7-0.16,1.21-0.49,1.55s-0.89,0.5-1.71,0.5h-4.29
			C116.68,427.15,116.12,426.98,115.79,426.65z M125.32,413.72c0.77,0,1.37-0.2,1.82-0.61c0.44-0.41,0.67-1.02,0.67-1.84
			c0-0.84-0.22-1.46-0.67-1.87c-0.44-0.41-1.05-0.61-1.82-0.61h-2.45v4.93H125.32z"/>
		<path d="M135.86,426.4c0-0.22,0.06-0.48,0.18-0.79l8.96-21.56c0.21-0.5,0.46-0.86,0.74-1.06s0.67-0.31,1.17-0.31h3.92
			c0.5,0,0.89,0.1,1.17,0.31c0.28,0.2,0.52,0.56,0.74,1.06l8.93,21.56c0.12,0.31,0.18,0.58,0.18,0.79c0,0.5-0.26,0.76-0.79,0.76
			h-6.77c-0.74,0-1.21-0.32-1.4-0.97l-0.86-2.66h-6.37l-0.83,2.66c-0.19,0.65-0.66,0.97-1.4,0.97h-6.77
			C136.13,427.15,135.86,426.9,135.86,426.4z M150.26,417.83l-1.4-4.46l-1.4,4.46H150.26z"/>
		<path d="M164.59,424.47c-2.42-2.15-3.64-5.33-3.64-9.56c0-4.25,1.17-7.44,3.51-9.58c2.34-2.14,5.68-3.2,10.03-3.2
			c1.97,0,3.72,0.19,5.26,0.58c1.54,0.38,2.82,0.92,3.85,1.62c0.29,0.22,0.43,0.46,0.43,0.72c0,0.22-0.11,0.52-0.32,0.9l-1.8,3.1
			c-0.19,0.34-0.42,0.5-0.68,0.5c-0.17,0-0.44-0.1-0.83-0.29c-0.67-0.34-1.37-0.6-2.11-0.79s-1.59-0.29-2.57-0.29
			c-1.99,0-3.52,0.58-4.57,1.73c-1.06,1.15-1.58,2.82-1.58,5c0,2.16,0.58,3.82,1.73,4.99c1.15,1.16,2.72,1.75,4.72,1.75
			c1.73,0,3.31-0.36,4.75-1.08c0.38-0.19,0.66-0.29,0.83-0.29c0.26,0,0.49,0.17,0.68,0.5l1.8,3.1c0.22,0.38,0.32,0.68,0.32,0.9
			c0,0.26-0.14,0.5-0.43,0.72c-1.03,0.7-2.33,1.24-3.89,1.62s-3.32,0.58-5.29,0.58C170.41,427.69,167.02,426.62,164.59,424.47z"/>
		<path d="M191.5,426.65c-0.32-0.34-0.49-0.85-0.49-1.55v-16.31h-5.18c-0.77,0-1.29-0.16-1.57-0.49c-0.28-0.32-0.41-0.85-0.41-1.57
			v-2.02c0-0.72,0.14-1.24,0.41-1.57s0.8-0.49,1.57-0.49h19.01c0.77,0,1.29,0.16,1.57,0.49c0.28,0.32,0.41,0.85,0.41,1.57v2.02
			c0,0.72-0.14,1.24-0.41,1.57c-0.28,0.32-0.8,0.49-1.57,0.49h-5.18v16.31c0,0.7-0.16,1.21-0.49,1.55s-0.89,0.5-1.71,0.5h-4.28
			C192.38,427.15,191.83,426.98,191.5,426.65z"/>
		<path d="M208.38,426.65c-0.32-0.34-0.49-0.85-0.49-1.55v-20.38c0-0.7,0.16-1.21,0.49-1.55s0.88-0.5,1.67-0.5h4.29
			c0.81,0,1.38,0.16,1.71,0.49s0.49,0.85,0.49,1.57v20.38c0,0.7-0.16,1.21-0.49,1.55s-0.89,0.5-1.71,0.5h-4.29
			C209.27,427.15,208.71,426.98,208.38,426.65z"/>
		<path d="M227.83,426.85c-0.28-0.2-0.51-0.56-0.7-1.06l-8.6-21.56c-0.12-0.31-0.18-0.58-0.18-0.79c0-0.5,0.26-0.76,0.79-0.76h6.77
			c0.74,0,1.21,0.32,1.4,0.97l3.67,11.74l3.67-11.74c0.19-0.65,0.66-0.97,1.4-0.97h6.77c0.53,0,0.79,0.25,0.79,0.76
			c0,0.22-0.06,0.48-0.18,0.79l-8.57,21.56c-0.19,0.5-0.43,0.86-0.7,1.06s-0.68,0.31-1.21,0.31h-3.92
			C228.5,427.15,228.1,427.05,227.83,426.85z"/>
		<path d="M245.9,426.65c-0.32-0.34-0.49-0.85-0.49-1.55v-20.38c0-0.7,0.16-1.21,0.49-1.55s0.88-0.5,1.67-0.5h14.9
			c0.77,0,1.29,0.16,1.57,0.49c0.28,0.32,0.41,0.85,0.41,1.57v2.02c0,0.72-0.14,1.24-0.41,1.57c-0.28,0.32-0.8,0.49-1.57,0.49h-8.42
			v3.1h5.18c0.77,0,1.29,0.16,1.57,0.49c0.28,0.32,0.41,0.85,0.41,1.57v1.94c0,0.72-0.14,1.24-0.41,1.57s-0.8,0.49-1.57,0.49h-5.18
			v3.1h8.39c0.77,0,1.29,0.16,1.57,0.49c0.28,0.32,0.41,0.85,0.41,1.57v2.02c0,0.72-0.14,1.24-0.41,1.57
			c-0.28,0.32-0.8,0.49-1.57,0.49h-14.87C246.78,427.15,246.22,426.98,245.9,426.65z"/>
		<path d="M285.64,426.85c-0.28-0.2-0.51-0.56-0.7-1.06l-8.6-21.56c-0.12-0.31-0.18-0.58-0.18-0.79c0-0.5,0.26-0.76,0.79-0.76h6.77
			c0.74,0,1.21,0.32,1.4,0.97l3.67,11.74l3.67-11.74c0.19-0.65,0.66-0.97,1.4-0.97h6.77c0.53,0,0.79,0.25,0.79,0.76
			c0,0.22-0.06,0.48-0.18,0.79l-8.57,21.56c-0.19,0.5-0.43,0.86-0.7,1.06c-0.28,0.2-0.68,0.31-1.21,0.31h-3.92
			C286.32,427.15,285.92,427.05,285.64,426.85z"/>
		<path d="M303.48,424.36c-2.21-2.22-3.31-5.37-3.31-9.45c0-4.08,1.1-7.23,3.31-9.45c2.21-2.22,5.45-3.33,9.72-3.33
			s7.51,1.11,9.72,3.33c2.21,2.22,3.31,5.37,3.31,9.45c0,4.08-1.1,7.23-3.31,9.45c-2.21,2.22-5.45,3.33-9.72,3.33
			S305.69,426.58,303.48,424.36z M316.58,419.97c0.7-1.12,1.04-2.8,1.04-5.06c0-2.28-0.35-3.97-1.04-5.08
			c-0.7-1.1-1.82-1.66-3.38-1.66s-2.69,0.55-3.38,1.66c-0.7,1.1-1.04,2.8-1.04,5.08c0,2.26,0.35,3.94,1.04,5.06
			c0.7,1.12,1.82,1.67,3.38,1.67S315.89,421.09,316.58,419.97z"/>
		<path d="M328.52,426.65c-0.32-0.34-0.49-0.85-0.49-1.55v-20.38c0-0.7,0.16-1.21,0.49-1.55c0.32-0.34,0.88-0.5,1.67-0.5h4.28
			c0.82,0,1.39,0.16,1.71,0.49c0.32,0.32,0.49,0.85,0.49,1.57v20.38c0,0.7-0.16,1.21-0.49,1.55c-0.32,0.34-0.89,0.5-1.71,0.5h-4.28
			C329.4,427.15,328.84,426.98,328.52,426.65z"/>
		<path d="M342.11,424.47c-2.42-2.15-3.63-5.33-3.63-9.56c0-4.25,1.17-7.44,3.51-9.58c2.34-2.14,5.68-3.2,10.03-3.2
			c1.97,0,3.72,0.19,5.26,0.58c1.54,0.38,2.82,0.92,3.85,1.62c0.29,0.22,0.43,0.46,0.43,0.72c0,0.22-0.11,0.52-0.32,0.9l-1.8,3.1
			c-0.19,0.34-0.42,0.5-0.68,0.5c-0.17,0-0.44-0.1-0.83-0.29c-0.67-0.34-1.37-0.6-2.11-0.79c-0.73-0.19-1.59-0.29-2.57-0.29
			c-1.99,0-3.52,0.58-4.57,1.73c-1.06,1.15-1.58,2.82-1.58,5c0,2.16,0.58,3.82,1.73,4.99c1.15,1.16,2.72,1.75,4.71,1.75
			c1.73,0,3.31-0.36,4.75-1.08c0.38-0.19,0.66-0.29,0.83-0.29c0.26,0,0.49,0.17,0.68,0.5l1.8,3.1c0.22,0.38,0.32,0.68,0.32,0.9
			c0,0.26-0.14,0.5-0.43,0.72c-1.03,0.7-2.33,1.24-3.89,1.62s-3.32,0.58-5.29,0.58C347.93,427.69,344.53,426.62,342.11,424.47z"/>
		<path d="M364.19,426.65c-0.32-0.34-0.49-0.85-0.49-1.55v-20.38c0-0.7,0.16-1.21,0.49-1.55c0.32-0.34,0.88-0.5,1.67-0.5h14.9
			c0.77,0,1.29,0.16,1.57,0.49s0.41,0.85,0.41,1.57v2.02c0,0.72-0.14,1.24-0.41,1.57c-0.28,0.32-0.8,0.49-1.57,0.49h-8.42v3.1h5.18
			c0.77,0,1.29,0.16,1.57,0.49c0.28,0.32,0.41,0.85,0.41,1.57v1.94c0,0.72-0.14,1.24-0.41,1.57c-0.28,0.32-0.8,0.49-1.57,0.49h-5.18
			v3.1h8.39c0.77,0,1.29,0.16,1.57,0.49c0.28,0.32,0.41,0.85,0.41,1.57v2.02c0,0.72-0.14,1.24-0.41,1.57
			c-0.28,0.32-0.8,0.49-1.57,0.49h-14.87C365.07,427.15,364.52,426.98,364.19,426.65z"/>
		<path d="M105.59,469.85c-0.32-0.34-0.49-0.85-0.49-1.55v-20.38c0-0.7,0.16-1.21,0.49-1.55s0.88-0.5,1.67-0.5h8.6
			c3.6,0,6.22,0.71,7.87,2.14c1.64,1.43,2.47,3.58,2.47,6.46c0,1.73-0.29,3.19-0.88,4.37c-0.59,1.19-1.49,2.12-2.72,2.79l3.35,7.16
			c0.1,0.19,0.14,0.41,0.14,0.65c0,0.26-0.09,0.48-0.27,0.65s-0.41,0.25-0.7,0.25h-6.08c-0.38,0-0.69-0.05-0.92-0.16
			c-0.23-0.11-0.39-0.29-0.49-0.56l-2.66-6.7h-1.22v5.36c0,0.7-0.16,1.21-0.49,1.55s-0.89,0.5-1.71,0.5h-4.29
			C106.47,470.35,105.91,470.18,105.59,469.85z M115.11,456.92c0.77,0,1.37-0.2,1.82-0.61c0.44-0.41,0.67-1.02,0.67-1.84
			c0-0.84-0.22-1.46-0.67-1.87c-0.44-0.41-1.05-0.61-1.82-0.61h-2.45v4.93H115.11z"/>
		<path d="M128.48,469.85c-0.32-0.34-0.49-0.85-0.49-1.55v-20.38c0-0.7,0.16-1.21,0.49-1.55c0.32-0.34,0.88-0.5,1.67-0.5h14.9
			c0.77,0,1.29,0.16,1.57,0.49c0.28,0.32,0.41,0.85,0.41,1.57v2.02c0,0.72-0.14,1.24-0.41,1.57c-0.28,0.32-0.8,0.49-1.57,0.49h-8.42
			v3.1h5.18c0.77,0,1.29,0.16,1.57,0.49c0.28,0.32,0.41,0.85,0.41,1.57v1.94c0,0.72-0.14,1.24-0.41,1.57s-0.8,0.49-1.57,0.49h-5.18
			v3.1h8.39c0.77,0,1.29,0.16,1.57,0.49c0.28,0.32,0.41,0.85,0.41,1.57v2.02c0,0.72-0.14,1.24-0.41,1.57
			c-0.28,0.32-0.8,0.49-1.57,0.49h-14.87C129.37,470.35,128.81,470.18,128.48,469.85z"/>
		<path d="M153.23,470.21c-1.87-0.46-3.38-1.09-4.54-1.91c-0.48-0.34-0.72-0.66-0.72-0.97c0-0.22,0.08-0.44,0.25-0.68l2.09-3.28
			c0.22-0.31,0.43-0.47,0.65-0.47c0.19,0,0.42,0.08,0.68,0.25c0.86,0.53,1.85,0.94,2.97,1.24c1.12,0.3,2.2,0.45,3.26,0.45
			c0.89,0,1.53-0.12,1.93-0.36c0.4-0.24,0.59-0.61,0.59-1.12c0-0.55-0.26-1-0.79-1.33c-0.53-0.33-1.44-0.76-2.74-1.26
			c-2.42-0.94-4.33-2-5.72-3.19c-1.39-1.19-2.09-2.77-2.09-4.73c0-2.5,0.87-4.37,2.61-5.63c1.74-1.26,4.09-1.89,7.04-1.89
			c2.06,0,3.82,0.18,5.27,0.54c1.45,0.36,2.72,0.92,3.8,1.69c0.48,0.34,0.72,0.66,0.72,0.97c0,0.22-0.08,0.44-0.25,0.68l-2.09,3.28
			c-0.22,0.34-0.43,0.5-0.65,0.5c-0.14,0-0.37-0.1-0.68-0.29c-0.58-0.38-1.26-0.7-2.05-0.95s-1.64-0.38-2.56-0.38
			c-0.84,0-1.48,0.12-1.91,0.36c-0.43,0.24-0.65,0.63-0.65,1.15c0,0.43,0.15,0.79,0.45,1.08c0.3,0.29,0.68,0.53,1.13,0.74
			c0.46,0.2,1.25,0.53,2.38,0.99c1.8,0.72,3.22,1.41,4.25,2.07s1.81,1.45,2.34,2.38s0.79,2.09,0.79,3.51c0,2.16-0.81,3.91-2.43,5.24
			s-4.04,2-7.25,2C157.13,470.89,155.11,470.66,153.23,470.21z"/>
		<path d="M171.29,469.85c-0.32-0.34-0.49-0.85-0.49-1.55v-20.38c0-0.7,0.16-1.21,0.49-1.55s0.88-0.5,1.67-0.5h8.6
			c3.6,0,6.22,0.71,7.87,2.14c1.64,1.43,2.46,3.58,2.46,6.46s-0.82,5.03-2.46,6.44c-1.64,1.42-4.25,2.12-7.83,2.12h-2.16v5.26
			c0,0.7-0.16,1.21-0.49,1.55s-0.89,0.5-1.71,0.5h-4.28C172.17,470.35,171.61,470.18,171.29,469.85z M180.81,456.92
			c0.77,0,1.37-0.2,1.82-0.61c0.44-0.41,0.67-1.02,0.67-1.84c0-0.84-0.22-1.46-0.67-1.87c-0.44-0.41-1.05-0.61-1.82-0.61h-2.45v4.93
			H180.81z"/>
		<path d="M194.67,467.56c-2.21-2.22-3.31-5.37-3.31-9.45c0-4.08,1.1-7.23,3.31-9.45c2.21-2.22,5.45-3.33,9.72-3.33
			c4.27,0,7.51,1.11,9.72,3.33c2.21,2.22,3.31,5.37,3.31,9.45c0,4.08-1.1,7.23-3.31,9.45c-2.21,2.22-5.45,3.33-9.72,3.33
			C200.12,470.89,196.88,469.78,194.67,467.56z M207.77,463.17c0.7-1.12,1.04-2.8,1.04-5.06c0-2.28-0.35-3.97-1.04-5.08
			c-0.7-1.1-1.82-1.66-3.38-1.66c-1.56,0-2.69,0.55-3.38,1.66c-0.7,1.1-1.04,2.8-1.04,5.08c0,2.26,0.35,3.94,1.04,5.06
			c0.7,1.12,1.82,1.67,3.38,1.67C205.95,464.84,207.08,464.29,207.77,463.17z"/>
		<path d="M219.71,469.85c-0.32-0.34-0.49-0.85-0.49-1.55v-20.41c0-0.7,0.16-1.21,0.49-1.53s0.89-0.49,1.71-0.49h3.42
			c0.5,0,0.89,0.07,1.17,0.2c0.28,0.13,0.55,0.39,0.81,0.77l6.52,9.68v-8.6c0-0.7,0.16-1.21,0.49-1.55c0.32-0.34,0.88-0.5,1.67-0.5
			h4.28c0.82,0,1.39,0.16,1.71,0.49c0.32,0.32,0.49,0.85,0.49,1.57v20.41c0,0.7-0.16,1.21-0.49,1.53c-0.32,0.32-0.89,0.49-1.71,0.49
			h-3.42c-0.5,0-0.89-0.07-1.17-0.2c-0.28-0.13-0.55-0.39-0.81-0.77l-6.52-9.68v8.64c0,0.7-0.16,1.21-0.49,1.53
			c-0.32,0.32-0.89,0.49-1.71,0.49h-4.28C220.59,470.35,220.03,470.18,219.71,469.85z"/>
		<path d="M249.06,470.21c-1.87-0.46-3.38-1.09-4.54-1.91c-0.48-0.34-0.72-0.66-0.72-0.97c0-0.22,0.08-0.44,0.25-0.68l2.09-3.28
			c0.22-0.31,0.43-0.47,0.65-0.47c0.19,0,0.42,0.08,0.68,0.25c0.86,0.53,1.85,0.94,2.97,1.24c1.12,0.3,2.2,0.45,3.26,0.45
			c0.89,0,1.53-0.12,1.93-0.36c0.4-0.24,0.59-0.61,0.59-1.12c0-0.55-0.26-1-0.79-1.33c-0.53-0.33-1.44-0.76-2.74-1.26
			c-2.42-0.94-4.33-2-5.72-3.19c-1.39-1.19-2.09-2.77-2.09-4.73c0-2.5,0.87-4.37,2.61-5.63c1.74-1.26,4.09-1.89,7.04-1.89
			c2.06,0,3.82,0.18,5.27,0.54c1.45,0.36,2.72,0.92,3.8,1.69c0.48,0.34,0.72,0.66,0.72,0.97c0,0.22-0.08,0.44-0.25,0.68l-2.09,3.28
			c-0.21,0.34-0.43,0.5-0.65,0.5c-0.14,0-0.37-0.1-0.68-0.29c-0.58-0.38-1.26-0.7-2.05-0.95c-0.79-0.25-1.64-0.38-2.56-0.38
			c-0.84,0-1.48,0.12-1.91,0.36c-0.43,0.24-0.65,0.63-0.65,1.15c0,0.43,0.15,0.79,0.45,1.08c0.3,0.29,0.68,0.53,1.13,0.74
			s1.25,0.53,2.38,0.99c1.8,0.72,3.22,1.41,4.25,2.07c1.03,0.66,1.81,1.45,2.34,2.38c0.53,0.92,0.79,2.09,0.79,3.51
			c0,2.16-0.81,3.91-2.43,5.24c-1.62,1.33-4.04,2-7.25,2C252.96,470.89,250.94,470.66,249.06,470.21z"/>
		<path d="M267.12,469.85c-0.32-0.34-0.49-0.85-0.49-1.55v-20.38c0-0.7,0.16-1.21,0.49-1.55c0.32-0.34,0.88-0.5,1.67-0.5h14.9
			c0.77,0,1.29,0.16,1.57,0.49c0.28,0.32,0.41,0.85,0.41,1.57v2.02c0,0.72-0.14,1.24-0.41,1.57c-0.28,0.32-0.8,0.49-1.57,0.49h-8.42
			v3.1h5.18c0.77,0,1.29,0.16,1.57,0.49c0.28,0.32,0.41,0.85,0.41,1.57v1.94c0,0.72-0.14,1.24-0.41,1.57s-0.8,0.49-1.57,0.49h-5.18
			v3.1h8.39c0.77,0,1.29,0.16,1.57,0.49c0.28,0.32,0.41,0.85,0.41,1.57v2.02c0,0.72-0.14,1.24-0.41,1.57
			c-0.28,0.32-0.8,0.49-1.57,0.49h-14.87C268,470.35,267.44,470.18,267.12,469.85z"/>
		<path d="M288.23,475.14c-0.67,0-1.18-0.2-1.51-0.59c-0.34-0.4-0.5-1.04-0.5-1.93c0-0.74,0.02-1.29,0.07-1.64s0.17-0.65,0.36-0.92
			c0.19-0.26,0.52-0.6,0.97-1.01c1.18-1.03,1.98-2.33,2.41-3.89c0.43-1.56,0.65-3.62,0.65-6.19c0-2.57-0.21-4.63-0.65-6.19
			c-0.43-1.56-1.24-2.86-2.41-3.89c-0.46-0.41-0.78-0.74-0.97-1.01c-0.19-0.26-0.31-0.57-0.36-0.92s-0.07-0.89-0.07-1.64
			c0-0.89,0.17-1.53,0.5-1.93c0.34-0.4,0.84-0.59,1.51-0.59c0.65,0,1.52,0.19,2.63,0.58c1.63,0.58,3.09,1.63,4.37,3.17
			c1.28,1.54,2.28,3.38,2.99,5.54c0.71,2.16,1.06,4.45,1.06,6.88c0,2.42-0.35,4.72-1.06,6.88c-0.71,2.16-1.71,4.01-2.99,5.54
			c-1.29,1.54-2.74,2.59-4.37,3.17C289.76,474.95,288.88,475.14,288.23,475.14z"/>
	</g>
	<polygon class="st6" points="199.76,86.93 213.23,114.22 243.34,118.59 221.55,139.83 226.7,169.83 199.76,155.67 172.83,169.83 
		177.97,139.83 156.18,118.59 186.29,114.22 	"/>
	<polygon class="st6" points="137.58,170.15 146.32,187.86 165.86,190.7 151.72,204.48 155.06,223.94 137.58,214.75 120.11,223.94 
		123.45,204.48 109.31,190.7 128.85,187.86 	"/>
	<polygon class="st6" points="267.68,170.15 276.42,187.86 295.95,190.7 281.82,204.48 285.15,223.94 267.68,214.75 250.2,223.94 
		253.54,204.48 239.4,190.7 258.94,187.86 	"/>
	<circle class="st7" cx="200.77" cy="203.97" r="121.96"/>
	<circle class="st1" cx="199.82" cy="190.58" r="121.96"/>
	<g>
		<path class="st1" d="M183.17,634.07c-3.43-0.78-6.17-1.87-8.21-3.29c-0.58-0.44-0.88-0.92-0.88-1.46c0-0.44,0.22-1.05,0.66-1.82
			l3.65-6.28c0.39-0.68,0.85-1.02,1.39-1.02c0.34,0,0.9,0.2,1.68,0.58c1.27,0.63,2.81,1.16,4.64,1.57c1.82,0.41,3.64,0.62,5.44,0.62
			c2.43,0,4.25-0.37,5.44-1.09c1.19-0.73,1.79-1.85,1.79-3.36c0-2.34-1.58-3.5-4.75-3.5h-5.62c-1.61,0-2.74-0.34-3.39-1.02
			c-0.66-0.68-0.99-1.73-0.99-3.14v-3.94c0-1.41,0.33-2.46,0.99-3.14c0.66-0.68,1.79-1.02,3.39-1.02h4.45c1.61,0,2.77-0.29,3.5-0.88
			s1.1-1.48,1.1-2.7c0-2.34-2.02-3.5-6.06-3.5c-3.26,0-6.35,0.73-9.27,2.19c-0.78,0.39-1.34,0.58-1.68,0.58
			c-0.54,0-1-0.34-1.39-1.02l-3.65-6.28c-0.44-0.78-0.66-1.39-0.66-1.83c0-0.54,0.29-1.02,0.88-1.46c2.09-1.41,4.7-2.51,7.81-3.29
			c3.11-0.78,6.67-1.17,10.66-1.17c4.23,0,7.92,0.62,11.06,1.86c3.14,1.24,5.55,3,7.23,5.29c1.68,2.29,2.52,4.99,2.52,8.1
			c0,4.28-1.49,7.59-4.45,9.93c3.84,2.24,5.77,5.79,5.77,10.66c0,4.92-1.87,8.81-5.62,11.68c-3.75,2.87-9.15,4.31-16.21,4.31
			C190.34,635.24,186.6,634.85,183.17,634.07z"/>
	</g>
	<g>
		<g>
			<path class="st76" d="M212.02,211.28v4.06c9.88-0.13,17.88-8.13,18.01-18.01h-4.06C225.84,204.98,219.66,211.16,212.02,211.28z"
				/>
		</g>
		<g>
			<path class="st76" d="M212.02,223.98v4.06c16.88-0.13,30.58-13.82,30.7-30.7h-4.06C238.53,211.97,226.66,223.85,212.02,223.98z"
				/>
		</g>
		<g>
			<path class="st76" d="M212.02,236.49v4.06c23.78-0.13,43.09-19.44,43.21-43.21h-4.06C251.05,218.87,233.56,236.36,212.02,236.49z
				"/>
		</g>
	</g>
	<g>
		<g>
			<path class="st35" d="M188.22,151.08c0-21.2,19.02-38.44,42.39-38.44s42.39,17.24,42.39,38.44c0,19.76-16.31,36.03-37.65,38.16
				l0.02,0.25l-4.18,0.01c-0.37,0.02-0.59,0.03-1.23-0.01l-41.73,0.03V151.08z"/>
		</g>
		<g>
			<g>
				<path class="st1" d="M220.78,148.29c0,4.91-4.97,7.32-9.65,10.68h9.92v5.57h-18.78v-1.58c0-2.47,1.32-4.22,3.16-5.87
					c5.14-4.58,8.83-6.42,8.83-8.57c0-1.25-0.82-2.4-2.83-2.4c-2.04,0-3.2,1.32-3.2,3.1v0.66h-5.87c-0.03-0.26-0.03-0.5-0.03-0.72
					c0-4.65,3.23-7.68,9.72-7.68C217.42,141.47,220.78,144.18,220.78,148.29z"/>
				<path class="st1" d="M236.18,141.47c-0.49,3.59-5.14,10.38-8.27,13.57h6.52v-4.71c1.12-1.61,3-4.81,3.46-6.69h2.8v11.4h3.16
					v4.84h-3.16v4.65h-6.26v-4.65H223.4v-4.91c2.14-3.13,4.84-8.33,6.33-13.51H236.18z"/>
			</g>
			<g>
				<path class="st1" d="M250.15,154.86c0.86-0.86,2.09-1.37,3.38-1.37c2.56,0,3.76,1.5,3.76,4.05v7h-4.07v-6.51
					c0-0.9-0.47-1.54-1.37-1.54c-1.02,0-1.7,0.78-1.7,1.7v6.34h-4.07V149.7h4.07V154.86z"/>
			</g>
		</g>
	</g>
	<g>
		<path class="st34" d="M202.7,254h-59.3c-1.93,0-3.5-1.57-3.5-3.5v-95.07c0-1.93,1.57-3.5,3.5-3.5h59.3c1.93,0,3.5,1.57,3.5,3.5
			v95.07C206.2,252.43,204.63,254,202.7,254z"/>
		<rect x="147.12" y="162.89" class="st77" width="51.86" height="76.81"/>
		<circle class="st1" cx="173.05" cy="246.55" r="2.34"/>
		<path class="st1" d="M179.74,158.72h-13.38c-0.38,0-0.7-0.24-0.7-0.53v-0.94c0-0.3,0.31-0.53,0.7-0.53h13.38
			c0.39,0,0.7,0.24,0.7,0.53v0.94C180.44,158.48,180.13,158.72,179.74,158.72z"/>
		<path class="st34" d="M175.34,204.97h-2.9c-0.44,0-0.8-0.36-0.8-0.8v-0.02c0-0.44,0.36-0.8,0.8-0.8h2.9
			c0.28,0,0.51,0.15,0.66,0.37c5.39-0.45,7.01-3.68,7.5-5.62c-0.15-0.04-0.3-0.09-0.43-0.16v-8.4c-1.93-3.55-5.69-5.95-10.02-5.95
			c-4.32,0-8.08,2.41-10.02,5.95v8.4c-0.23,0.13-0.5,0.2-0.78,0.2h-0.03c-0.04,0-0.08-0.02-0.13-0.03
			c1.36,4.77,5.75,8.27,10.96,8.27c3.65,0,6.9-1.73,8.99-4.4c-1.24,1.21-3.1,2.21-5.95,2.46
			C175.97,204.75,175.69,204.97,175.34,204.97z"/>
		<path class="st34" d="M195.54,225l-1.77-10.25c-0.64-3.72-3.1-6.87-6.55-8.39l-5.14-2.27c-2.06,2.74-5.34,4.53-9.04,4.53
			c-3.7,0-6.97-1.78-9.04-4.53l-5.14,2.27c-3.45,1.53-5.91,4.68-6.55,8.39L150.56,225c-0.31,1.77,1.05,3.38,2.84,3.38h39.3
			C194.49,228.38,195.85,226.76,195.54,225z"/>
		<path class="st34" d="M162.25,188.13c0.28,0,0.55,0.08,0.78,0.2l0,0c0.16-1.74,0.61-3.25,1.61-4.79c1.64-2.53,4.48-3.82,8.41-3.82
			c3.93,0,6.77,1.3,8.41,3.82c1,1.54,1.45,3.05,1.61,4.79l0,0c0.23-0.13,0.5-0.2,0.78-0.2h0.03c0.17,0,0.33,0.05,0.48,0.1
			c-0.19-1.89-0.7-3.88-1.82-5.61c-1.9-2.94-5.1-4.46-9.49-4.46c-4.39,0-7.59,1.51-9.49,4.46c-1.12,1.73-1.63,3.72-1.82,5.61
			c0.15-0.05,0.31-0.1,0.48-0.1H162.25z"/>
		<path class="st34" d="M160.62,196.78c-0.02-0.1-0.06-0.19-0.06-0.29v-6.71c0-0.22,0.05-0.42,0.12-0.61
			c-1.34,0.28-2.37,1.87-2.37,3.81C158.32,194.88,159.31,196.46,160.62,196.78z"/>
		<path class="st34" d="M160.91,195.99c0,0.08,0.03,0.16,0.04,0.24c0.1,0.6,0.52,1.05,1.06,1.1c0.03,0,0.06,0.02,0.09,0.02h0.02
			c0.21,0,0.4-0.06,0.56-0.17v-6.9v-0.74v-0.25c-0.17-0.1-0.36-0.17-0.56-0.17h-0.02c-0.12,0-0.24,0.04-0.35,0.08
			c-0.34,0.12-0.62,0.4-0.76,0.78c-0.06,0.16-0.09,0.32-0.09,0.5V195.99z"/>
		<path class="st76" d="M183.88,198.14h-0.03c-0.12,0-0.24-0.02-0.35-0.05c-0.49,1.94-2.11,5.17-7.5,5.62
			c-0.14-0.22-0.38-0.37-0.66-0.37h-2.9c-0.44,0-0.8,0.36-0.8,0.8v0.02c0,0.44,0.36,0.8,0.8,0.8h2.9c0.34,0,0.63-0.22,0.74-0.52
			c2.85-0.25,4.71-1.25,5.95-2.46c1.34-1.3,1.94-2.83,2.2-3.92C184.12,198.1,184.01,198.14,183.88,198.14z"/>
		<path class="st34" d="M185.53,196.49c0,0.1-0.04,0.19-0.06,0.29c1.31-0.32,2.31-1.9,2.31-3.8c0-1.94-1.03-3.53-2.37-3.81
			c0.08,0.19,0.12,0.39,0.12,0.61V196.49z"/>
		<path class="st34" d="M183.97,189.11c-0.21,0-0.4,0.07-0.56,0.17v0.26v0.73v6.9c0.1,0.06,0.2,0.1,0.31,0.13
			c0.08,0.02,0.17,0.04,0.25,0.04H184c0.09,0,0.17-0.04,0.26-0.06c0.46-0.12,0.81-0.53,0.9-1.06c0.01-0.08,0.04-0.15,0.04-0.24
			v-5.51c0-0.18-0.03-0.35-0.09-0.5c-0.13-0.38-0.41-0.65-0.76-0.78c-0.11-0.04-0.22-0.08-0.35-0.08H183.97z"/>
	</g>
</g>
</svg>
