<?xml version="1.0" encoding="utf-8"?>
<!-- Generator: Adobe Illustrator 23.0.0, SVG Export Plug-In . SVG Version: 6.00 Build 0)  -->
<svg version="1.1" id="Capa_1" xmlns="http://www.w3.org/2000/svg" xmlns:xlink="http://www.w3.org/1999/xlink" x="0px" y="0px"
	 viewBox="0 0 400 689" style="enable-background:new 0 0 400 689;" xml:space="preserve">
<style type="text/css">
	.st0{fill:#E2E2E2;}
	.st1{fill:#FFFFFF;}
	.st2{fill:#CCCDCE;}
	.st3{fill:#F2F2F2;}
	.st4{fill:none;}
	.st5{fill:#0085B0;}
	.st6{fill:#E0EF18;}
	.st7{fill:#CECECE;}
	.st8{fill:#22272F;}
	.st9{fill:#1B2538;}
	.st10{fill:#253452;}
	.st11{fill:#F9F9F9;}
	.st12{fill:#2D3543;}
	.st13{fill:#2A3D60;}
	.st14{fill:#6C92D5;}
	.st15{fill:#587955;}
	.st16{fill:#CD7054;}
	.st17{fill:#F1CC4B;}
	.st18{fill:#DFDFDF;}
	.st19{fill:#ACACAC;}
	.st20{fill:#00D13C;}
	.st21{fill:#866A5E;}
	.st22{fill:#F7DDCB;}
	.st23{fill:#FFE6D4;}
	.st24{fill:#2D2D2D;}
	.st25{fill:#1C1B1A;}
	.st26{fill:#F5F5F5;}
	.st27{fill:#77181C;}
	.st28{fill:#EAEAEA;}
	.st29{fill:#262525;}
	.st30{fill:#11100F;}
	.st31{fill:#FFFFFF;stroke:#000000;stroke-width:6;stroke-miterlimit:10;}
	.st32{fill:#D4D4D4;}
	.st33{fill:#C2C2C2;}
	.st34{fill:#505050;}
	.st35{fill:#53C2C9;}
	.st36{fill:#008B9C;}
	.st37{fill:none;stroke:#00550B;stroke-width:4;stroke-miterlimit:10;}
	.st38{fill:#CE2458;}
	.st39{fill:#155500;}
	.st40{fill:#1549FF;}
	.st41{fill:#606060;stroke:#C6C8CC;stroke-width:6;stroke-miterlimit:10;}
	.st42{fill:#727272;}
	.st43{fill:#207235;}
	.st44{fill:#A3A3A3;}
	.st45{fill:#BCBCBC;}
	.st46{fill:#2A5936;}
	.st47{opacity:0.7;fill:#7F7F7F;}
	.st48{fill:#DAA449;}
	.st49{fill:#85B681;}
	.st50{fill:#A1DC9B;}
	.st51{fill:#90C58B;}
	.st52{fill:#DD9225;}
	.st53{opacity:0.3;}
	.st54{fill:#81C378;}
	.st55{opacity:0.5;}
	.st56{fill:#A2CADE;}
	.st57{fill:#9BAEC9;}
	.st58{fill:#9D2B3B;}
	.st59{fill:#C1D4F2;}
	.st60{fill:#534D46;}
	.st61{fill:#191819;}
	.st62{fill:#222123;}
	.st63{fill:#F3FF00;}
	.st64{fill-rule:evenodd;clip-rule:evenodd;fill:#FFFFFF;}
	.st65{fill-rule:evenodd;clip-rule:evenodd;fill:#1996B8;}
	.st66{fill:none;stroke:#5A605A;stroke-width:4;stroke-miterlimit:10;}
	.st67{fill:#FFB412;}
	.st68{fill:#BACDD1;}
	.st69{fill:#1C4D59;}
	.st70{fill:#A14329;}
	.st71{fill:#FCC083;}
	.st72{fill:#E8AA63;}
	.st73{fill:#D40000;}
	.st74{opacity:0.35;fill:#7D7D7D;}
	.st75{fill:#E5E3E3;}
	.st76{fill:#121F5E;}
	.st77{fill:#A3ADAF;}
	.st78{fill:#C2C6C6;}
	.st79{fill:#E5E5E5;stroke:#FFFFFF;stroke-miterlimit:10;}
	.st80{fill:#ACB4B5;}
	.st81{fill:#7F8384;}
	.st82{fill:#282828;}
	.st83{fill:none;stroke:#46A508;stroke-width:6;stroke-miterlimit:10;}
	.st84{fill:none;stroke:#46A508;stroke-width:6;stroke-miterlimit:10;stroke-dasharray:11.7425,11.7425;}
	.st85{fill:#C89D76;}
	.st86{opacity:0.4;}
	.st87{fill:#ADADAD;}
	.st88{fill:#76A172;}
	.st89{fill:#62835F;}
	.st90{fill:#96D090;}
	.st91{fill:#EDC3A6;}
	.st92{opacity:0.69;}
	.st93{fill:#E5D3D6;}
	.st94{opacity:0.44;}
	.st95{fill:#A5A5A5;}
	.st96{fill:#DDE5E4;}
	.st97{fill:#FDFDFD;}
	.st98{fill:#E0C348;}
	.st99{fill:#606060;}
</style>
<g>
	<g>
		<path class="st20" d="M8.5,199.36c0,22,13.29,27.86,29.54,13.03c0,0,156.99-143.3,353.09,26.97V45c0-22-18-40-40-40H48.5
			c-22,0-40,18-40,40V199.36z"/>
	</g>
	<g>
		<path class="st20" d="M390.66,637c0,22-18,40-40,40H48.98c-22,0-40-18-40-40v-46.27c0-22,18-40,40-40h301.68c22,0,40,18,40,40V637
			z"/>
	</g>
	<g>
		<path d="M119.23,383.78c-2.18-0.53-3.95-1.27-5.29-2.23c-0.56-0.39-0.84-0.77-0.84-1.13c0-0.25,0.1-0.52,0.29-0.8l2.44-3.82
			c0.25-0.36,0.5-0.55,0.76-0.55c0.22,0,0.49,0.1,0.8,0.29c1.01,0.62,2.16,1.1,3.46,1.45c1.3,0.35,2.57,0.53,3.8,0.53
			c1.04,0,1.78-0.14,2.25-0.42c0.46-0.28,0.69-0.71,0.69-1.3c0-0.64-0.31-1.16-0.92-1.55c-0.62-0.39-1.68-0.88-3.19-1.47
			c-2.83-1.09-5.05-2.33-6.68-3.72c-1.62-1.39-2.44-3.23-2.44-5.52c0-2.91,1.02-5.1,3.04-6.57c2.03-1.47,4.77-2.21,8.21-2.21
			c2.41,0,4.46,0.21,6.15,0.63s3.17,1.08,4.43,1.97c0.56,0.39,0.84,0.77,0.84,1.13c0,0.25-0.1,0.52-0.29,0.8l-2.44,3.82
			c-0.25,0.39-0.5,0.59-0.76,0.59c-0.17,0-0.43-0.11-0.8-0.34c-0.67-0.45-1.47-0.82-2.39-1.11c-0.92-0.29-1.92-0.44-2.98-0.44
			c-0.98,0-1.72,0.14-2.23,0.42c-0.5,0.28-0.76,0.73-0.76,1.34c0,0.5,0.17,0.92,0.52,1.26c0.35,0.34,0.79,0.62,1.32,0.86
			c0.53,0.24,1.46,0.62,2.77,1.16c2.1,0.84,3.75,1.64,4.96,2.42s2.11,1.69,2.73,2.77c0.62,1.08,0.92,2.44,0.92,4.1
			c0,2.52-0.95,4.56-2.83,6.11c-1.89,1.55-4.71,2.33-8.46,2.33C123.78,384.58,121.41,384.32,119.23,383.78z"/>
		<path d="M140.29,383.36c-0.38-0.39-0.57-0.99-0.57-1.81v-23.77c0-0.81,0.19-1.41,0.57-1.81c0.38-0.39,1.03-0.59,1.95-0.59h5
			c0.95,0,1.62,0.19,2,0.57s0.57,0.99,0.57,1.83v23.77c0,0.81-0.19,1.41-0.57,1.81c-0.38,0.39-1.04,0.59-2,0.59h-5
			C141.32,383.95,140.67,383.76,140.29,383.36z"/>
		<path d="M158.08,383.78c-2.18-0.53-3.95-1.27-5.29-2.23c-0.56-0.39-0.84-0.77-0.84-1.13c0-0.25,0.1-0.52,0.29-0.8l2.44-3.82
			c0.25-0.36,0.5-0.55,0.76-0.55c0.22,0,0.49,0.1,0.8,0.29c1.01,0.62,2.16,1.1,3.46,1.45c1.3,0.35,2.57,0.53,3.8,0.53
			c1.04,0,1.78-0.14,2.25-0.42c0.46-0.28,0.69-0.71,0.69-1.3c0-0.64-0.31-1.16-0.92-1.55c-0.62-0.39-1.68-0.88-3.19-1.47
			c-2.83-1.09-5.05-2.33-6.68-3.72c-1.62-1.39-2.44-3.23-2.44-5.52c0-2.91,1.02-5.1,3.04-6.57c2.03-1.47,4.77-2.21,8.21-2.21
			c2.41,0,4.46,0.21,6.15,0.63s3.17,1.08,4.43,1.97c0.56,0.39,0.84,0.77,0.84,1.13c0,0.25-0.1,0.52-0.29,0.8l-2.44,3.82
			c-0.25,0.39-0.5,0.59-0.76,0.59c-0.17,0-0.43-0.11-0.8-0.34c-0.67-0.45-1.47-0.82-2.39-1.11c-0.92-0.29-1.92-0.44-2.98-0.44
			c-0.98,0-1.72,0.14-2.23,0.42c-0.5,0.28-0.76,0.73-0.76,1.34c0,0.5,0.17,0.92,0.52,1.26c0.35,0.34,0.79,0.62,1.32,0.86
			c0.53,0.24,1.46,0.62,2.77,1.16c2.1,0.84,3.75,1.64,4.96,2.42s2.11,1.69,2.73,2.77c0.62,1.08,0.92,2.44,0.92,4.1
			c0,2.52-0.95,4.56-2.83,6.11c-1.89,1.55-4.71,2.33-8.46,2.33C162.63,384.58,160.26,384.32,158.08,383.78z"/>
		<path d="M184.77,383.36c-0.38-0.39-0.57-0.99-0.57-1.81v-19.03h-6.05c-0.9,0-1.5-0.19-1.83-0.57c-0.32-0.38-0.48-0.99-0.48-1.83
			v-2.35c0-0.84,0.16-1.45,0.48-1.83c0.32-0.38,0.93-0.57,1.83-0.57h22.18c0.9,0,1.5,0.19,1.83,0.57s0.48,0.99,0.48,1.83v2.35
			c0,0.84-0.16,1.45-0.48,1.83c-0.32,0.38-0.93,0.57-1.83,0.57h-6.05v19.03c0,0.81-0.19,1.41-0.57,1.81c-0.38,0.39-1.04,0.59-2,0.59
			h-5C185.8,383.95,185.15,383.76,184.77,383.36z"/>
		<path d="M204.47,383.36c-0.38-0.39-0.57-0.99-0.57-1.81v-23.77c0-0.81,0.19-1.41,0.57-1.81s1.03-0.59,1.95-0.59h17.39
			c0.9,0,1.5,0.19,1.83,0.57c0.32,0.38,0.48,0.99,0.48,1.83v2.35c0,0.84-0.16,1.45-0.48,1.83c-0.32,0.38-0.93,0.57-1.83,0.57h-9.83
			v3.61h6.05c0.89,0,1.5,0.19,1.83,0.57s0.48,0.99,0.48,1.83v2.27c0,0.84-0.16,1.45-0.48,1.83s-0.93,0.57-1.83,0.57h-6.05v3.61h9.79
			c0.9,0,1.5,0.19,1.83,0.57c0.32,0.38,0.48,0.99,0.48,1.83v2.35c0,0.84-0.16,1.45-0.48,1.83c-0.32,0.38-0.93,0.57-1.83,0.57h-17.35
			C205.49,383.95,204.84,383.76,204.47,383.36z"/>
		<path d="M228.57,383.36c-0.38-0.39-0.57-0.99-0.57-1.81v-23.81c0-0.81,0.19-1.41,0.57-1.79s1.04-0.57,2-0.57h4.83
			c0.62,0,1.11,0.08,1.47,0.23c0.36,0.15,0.64,0.46,0.84,0.9l4.91,12.31l4.91-12.31c0.2-0.45,0.48-0.75,0.84-0.9
			c0.36-0.15,0.85-0.23,1.47-0.23h4.83c0.95,0,1.62,0.19,2,0.57s0.57,0.97,0.57,1.79v23.81c0,0.81-0.19,1.41-0.57,1.81
			c-0.38,0.39-1.03,0.59-1.95,0.59h-4.03c-0.92,0-1.58-0.2-1.97-0.59c-0.39-0.39-0.59-0.99-0.59-1.81v-11.47l-2.48,5.71
			c-0.34,0.81-0.7,1.39-1.09,1.74c-0.39,0.35-1.04,0.53-1.93,0.53c-0.9,0-1.54-0.17-1.93-0.53c-0.39-0.35-0.76-0.93-1.09-1.74
			l-2.48-5.71v11.47c0,0.81-0.19,1.41-0.57,1.81c-0.38,0.39-1.04,0.59-1.99,0.59h-4.03C229.6,383.95,228.95,383.76,228.57,383.36z"
			/>
		<path d="M258.29,383.07c0-0.25,0.07-0.56,0.21-0.92l10.46-25.16c0.25-0.59,0.54-1,0.86-1.24c0.32-0.24,0.78-0.36,1.36-0.36h4.58
			c0.59,0,1.04,0.12,1.37,0.36c0.32,0.24,0.61,0.65,0.86,1.24l10.42,25.16c0.14,0.36,0.21,0.67,0.21,0.92
			c0,0.59-0.31,0.88-0.92,0.88h-7.9c-0.87,0-1.41-0.38-1.64-1.13l-1.01-3.11h-7.43l-0.97,3.11c-0.22,0.76-0.77,1.13-1.64,1.13h-7.9
			C258.6,383.95,258.29,383.66,258.29,383.07z M275.09,373.07l-1.64-5.21l-1.64,5.21H275.09z"/>
		<path d="M113.58,433.76c-0.38-0.39-0.57-0.99-0.57-1.81v-23.77c0-0.81,0.19-1.41,0.57-1.81c0.38-0.39,1.03-0.59,1.95-0.59h9.66
			c9.88,0,14.83,4.76,14.83,14.28c0,4.7-1.27,8.26-3.8,10.67c-2.54,2.41-6.21,3.61-11.03,3.61h-9.66
			C114.61,434.35,113.96,434.16,113.58,433.76z M125.57,427.21c1.57,0,2.69-0.52,3.38-1.55c0.69-1.04,1.03-2.9,1.03-5.59
			c0-2.69-0.34-4.55-1.03-5.59c-0.69-1.04-1.81-1.55-3.38-1.55h-2.48v14.28H125.57z"/>
		<path d="M142.68,433.76c-0.38-0.39-0.57-0.99-0.57-1.81v-23.77c0-0.81,0.19-1.41,0.57-1.81s1.03-0.59,1.95-0.59h17.39
			c0.9,0,1.5,0.19,1.83,0.57c0.32,0.38,0.48,0.99,0.48,1.83v2.35c0,0.84-0.16,1.45-0.48,1.83c-0.32,0.38-0.93,0.57-1.83,0.57h-9.83
			v3.61h6.05c0.89,0,1.5,0.19,1.83,0.57s0.48,0.99,0.48,1.83v2.27c0,0.84-0.16,1.45-0.48,1.83s-0.93,0.57-1.83,0.57h-6.05v3.61h9.79
			c0.9,0,1.5,0.19,1.83,0.57c0.32,0.38,0.48,0.99,0.48,1.83v2.35c0,0.84-0.16,1.45-0.48,1.83c-0.32,0.38-0.93,0.57-1.83,0.57h-17.35
			C143.71,434.35,143.06,434.16,142.68,433.76z"/>
		<path d="M182.23,431.22c-2.83-2.51-4.24-6.22-4.24-11.15c0-4.96,1.37-8.68,4.1-11.17c2.73-2.49,6.63-3.74,11.7-3.74
			c2.3,0,4.34,0.22,6.13,0.67s3.29,1.08,4.49,1.89c0.34,0.25,0.5,0.53,0.5,0.84c0,0.25-0.13,0.6-0.38,1.05l-2.1,3.61
			c-0.22,0.39-0.49,0.59-0.8,0.59c-0.2,0-0.52-0.11-0.97-0.34c-0.78-0.39-1.6-0.7-2.46-0.92c-0.85-0.22-1.86-0.34-3-0.34
			c-2.33,0-4.1,0.67-5.33,2.02c-1.23,1.34-1.85,3.29-1.85,5.84c0,2.52,0.67,4.46,2.02,5.82c1.34,1.36,3.18,2.04,5.5,2.04
			c2.02,0,3.86-0.42,5.54-1.26c0.45-0.22,0.77-0.34,0.97-0.34c0.31,0,0.57,0.2,0.8,0.59l2.1,3.61c0.25,0.45,0.38,0.8,0.38,1.05
			c0,0.31-0.17,0.59-0.5,0.84c-1.2,0.81-2.72,1.44-4.54,1.89c-1.82,0.45-3.88,0.67-6.17,0.67
			C189.02,434.98,185.05,433.73,182.23,431.22z"/>
		<path d="M208.56,431.1c-2.58-2.59-3.86-6.26-3.86-11.03c0-4.76,1.29-8.43,3.86-11.02s6.36-3.89,11.34-3.89
			c4.98,0,8.76,1.3,11.34,3.89s3.86,6.26,3.86,11.02c0,4.76-1.29,8.44-3.86,11.03s-6.36,3.88-11.34,3.88
			C214.92,434.98,211.14,433.69,208.56,431.1z M223.85,425.97c0.81-1.3,1.22-3.27,1.22-5.9c0-2.66-0.41-4.63-1.22-5.92
			c-0.81-1.29-2.13-1.93-3.95-1.93s-3.14,0.64-3.95,1.93c-0.81,1.29-1.22,3.26-1.22,5.92c0,2.63,0.41,4.6,1.22,5.9
			c0.81,1.3,2.13,1.95,3.95,1.95S223.04,427.28,223.85,425.97z"/>
		<path d="M237.77,433.76c-0.38-0.39-0.57-0.99-0.57-1.81v-23.77c0-0.81,0.19-1.41,0.57-1.81s1.03-0.59,1.95-0.59h5
			c0.95,0,1.62,0.19,1.99,0.57c0.38,0.38,0.57,0.99,0.57,1.83v19.03h9.79c0.9,0,1.5,0.19,1.83,0.57c0.32,0.38,0.48,0.99,0.48,1.83
			v2.35c0,0.84-0.16,1.45-0.48,1.83c-0.32,0.38-0.93,0.57-1.83,0.57h-17.35C238.8,434.35,238.15,434.16,237.77,433.76z"/>
		<path d="M259.17,433.47c0-0.25,0.07-0.56,0.21-0.92l10.46-25.16c0.25-0.59,0.54-1,0.86-1.24c0.32-0.24,0.78-0.36,1.37-0.36h4.58
			c0.59,0,1.04,0.12,1.36,0.36c0.32,0.24,0.61,0.65,0.86,1.24l10.42,25.16c0.14,0.36,0.21,0.67,0.21,0.92
			c0,0.59-0.31,0.88-0.92,0.88h-7.9c-0.87,0-1.41-0.38-1.64-1.13l-1.01-3.11h-7.43l-0.97,3.11c-0.22,0.76-0.77,1.13-1.64,1.13h-7.9
			C259.48,434.35,259.17,434.06,259.17,433.47z M275.97,423.47l-1.64-5.21l-1.64,5.21H275.97z"/>
		<path d="M58.85,484.16c-0.38-0.39-0.57-0.99-0.57-1.81v-23.77c0-0.81,0.19-1.41,0.57-1.81c0.38-0.39,1.03-0.59,1.95-0.59h9.66
			c9.88,0,14.83,4.76,14.83,14.28c0,4.7-1.27,8.26-3.8,10.67c-2.53,2.41-6.21,3.61-11.02,3.61h-9.66
			C59.88,484.75,59.23,484.56,58.85,484.16z M70.84,477.61c1.57,0,2.7-0.52,3.38-1.55c0.69-1.04,1.03-2.9,1.03-5.59
			c0-2.69-0.34-4.55-1.03-5.59c-0.69-1.04-1.81-1.55-3.38-1.55h-2.48v14.28H70.84z"/>
		<path d="M87.96,484.16c-0.38-0.39-0.57-0.99-0.57-1.81v-23.77c0-0.81,0.19-1.41,0.57-1.81s1.03-0.59,1.95-0.59h17.39
			c0.9,0,1.5,0.19,1.83,0.57c0.32,0.38,0.48,0.99,0.48,1.83v2.35c0,0.84-0.16,1.45-0.48,1.83c-0.32,0.38-0.93,0.57-1.83,0.57h-9.83
			v3.61h6.05c0.9,0,1.5,0.19,1.83,0.57c0.32,0.38,0.48,0.99,0.48,1.83v2.27c0,0.84-0.16,1.45-0.48,1.83
			c-0.32,0.38-0.93,0.57-1.83,0.57h-6.05v3.61h9.79c0.9,0,1.5,0.19,1.83,0.57c0.32,0.38,0.48,0.99,0.48,1.83v2.35
			c0,0.84-0.16,1.45-0.48,1.83c-0.32,0.38-0.93,0.57-1.83,0.57H89.91C88.99,484.75,88.34,484.56,87.96,484.16z"/>
		<path d="M124.67,484.16c-0.38-0.39-0.57-0.99-0.57-1.81v-23.77c0-0.81,0.19-1.41,0.57-1.81s1.03-0.59,1.95-0.59h5
			c0.95,0,1.62,0.19,1.99,0.57c0.38,0.38,0.57,0.99,0.57,1.83v19.03h9.79c0.9,0,1.5,0.19,1.83,0.57c0.32,0.38,0.48,0.99,0.48,1.83
			v2.35c0,0.84-0.16,1.45-0.48,1.83c-0.32,0.38-0.93,0.57-1.83,0.57h-17.35C125.7,484.75,125.04,484.56,124.67,484.16z"/>
		<path d="M148.1,484.16c-0.38-0.39-0.57-0.99-0.57-1.81v-23.77c0-0.81,0.19-1.41,0.57-1.81s1.03-0.59,1.95-0.59h5
			c0.95,0,1.62,0.19,1.99,0.57c0.38,0.38,0.57,0.99,0.57,1.83v19.03h9.79c0.9,0,1.5,0.19,1.83,0.57c0.32,0.38,0.48,0.99,0.48,1.83
			v2.35c0,0.84-0.16,1.45-0.48,1.83c-0.32,0.38-0.93,0.57-1.83,0.57h-17.35C149.13,484.75,148.48,484.56,148.1,484.16z"/>
		<path d="M169.5,483.87c0-0.25,0.07-0.56,0.21-0.92l10.46-25.16c0.25-0.59,0.54-1,0.86-1.24c0.32-0.24,0.78-0.36,1.37-0.36h4.58
			c0.59,0,1.04,0.12,1.37,0.36c0.32,0.24,0.61,0.65,0.86,1.24l10.42,25.16c0.14,0.36,0.21,0.67,0.21,0.92
			c0,0.59-0.31,0.88-0.92,0.88H191c-0.87,0-1.41-0.38-1.64-1.13l-1.01-3.11h-7.43l-0.97,3.11c-0.22,0.76-0.77,1.13-1.64,1.13h-7.9
			C169.81,484.75,169.5,484.46,169.5,483.87z M186.3,473.87l-1.64-5.21l-1.64,5.21H186.3z"/>
		<path d="M201.44,484.16c-0.38-0.39-0.57-0.99-0.57-1.81v-23.81c0-0.81,0.19-1.41,0.57-1.79c0.38-0.38,1.04-0.57,2-0.57h4.83
			c0.62,0,1.11,0.08,1.47,0.23c0.36,0.15,0.64,0.46,0.84,0.9l4.91,12.31l4.91-12.31c0.2-0.45,0.48-0.75,0.84-0.9
			c0.36-0.15,0.85-0.23,1.47-0.23h4.83c0.95,0,1.62,0.19,1.99,0.57c0.38,0.38,0.57,0.97,0.57,1.79v23.81c0,0.81-0.19,1.41-0.57,1.81
			c-0.38,0.39-1.03,0.59-1.95,0.59h-4.03c-0.92,0-1.58-0.2-1.97-0.59c-0.39-0.39-0.59-0.99-0.59-1.81v-11.47l-2.48,5.71
			c-0.34,0.81-0.7,1.39-1.09,1.74c-0.39,0.35-1.04,0.53-1.93,0.53s-1.54-0.17-1.93-0.53c-0.39-0.35-0.76-0.93-1.09-1.74l-2.48-5.71
			v11.47c0,0.81-0.19,1.41-0.57,1.81c-0.38,0.39-1.04,0.59-2,0.59h-4.03C202.47,484.75,201.82,484.56,201.44,484.16z"/>
		<path d="M231.16,483.87c0-0.25,0.07-0.56,0.21-0.92l10.46-25.16c0.25-0.59,0.54-1,0.86-1.24c0.32-0.24,0.78-0.36,1.37-0.36h4.58
			c0.59,0,1.04,0.12,1.37,0.36c0.32,0.24,0.61,0.65,0.86,1.24l10.42,25.16c0.14,0.36,0.21,0.67,0.21,0.92
			c0,0.59-0.31,0.88-0.92,0.88h-7.9c-0.87,0-1.41-0.38-1.64-1.13l-1.01-3.11h-7.43l-0.97,3.11c-0.22,0.76-0.77,1.13-1.64,1.13h-7.9
			C231.46,484.75,231.16,484.46,231.16,483.87z M247.96,473.87l-1.64-5.21l-1.64,5.21H247.96z"/>
		<path d="M264.15,484.16c-0.38-0.39-0.57-0.99-0.57-1.81v-23.77c0-0.81,0.19-1.41,0.57-1.81c0.38-0.39,1.03-0.59,1.95-0.59h9.66
			c9.88,0,14.83,4.76,14.83,14.28c0,4.7-1.27,8.26-3.8,10.67c-2.53,2.41-6.21,3.61-11.02,3.61h-9.66
			C265.18,484.75,264.53,484.56,264.15,484.16z M276.14,477.61c1.57,0,2.7-0.52,3.38-1.55c0.69-1.04,1.03-2.9,1.03-5.59
			c0-2.69-0.34-4.55-1.03-5.59c-0.69-1.04-1.81-1.55-3.38-1.55h-2.48v14.28H276.14z"/>
		<path d="M289.96,483.87c0-0.25,0.07-0.56,0.21-0.92l10.46-25.16c0.25-0.59,0.54-1,0.86-1.24c0.32-0.24,0.78-0.36,1.36-0.36h4.58
			c0.59,0,1.04,0.12,1.36,0.36c0.32,0.24,0.61,0.65,0.86,1.24l10.42,25.16c0.14,0.36,0.21,0.67,0.21,0.92
			c0,0.59-0.31,0.88-0.92,0.88h-7.9c-0.87,0-1.41-0.38-1.64-1.13l-1.01-3.11h-7.43l-0.97,3.11c-0.22,0.76-0.77,1.13-1.64,1.13h-7.9
			C290.26,484.75,289.96,484.46,289.96,483.87z M306.76,473.87l-1.64-5.21l-1.64,5.21H306.76z"/>
		<path d="M325.82,484.58c-2.18-0.53-3.95-1.27-5.29-2.23c-0.56-0.39-0.84-0.77-0.84-1.13c0-0.25,0.1-0.52,0.29-0.8l2.44-3.82
			c0.25-0.36,0.5-0.55,0.76-0.55c0.22,0,0.49,0.1,0.8,0.29c1.01,0.62,2.16,1.1,3.46,1.45c1.3,0.35,2.57,0.53,3.8,0.53
			c1.04,0,1.79-0.14,2.25-0.42c0.46-0.28,0.69-0.71,0.69-1.3c0-0.64-0.31-1.16-0.92-1.55c-0.62-0.39-1.68-0.88-3.19-1.47
			c-2.83-1.09-5.05-2.33-6.68-3.72c-1.63-1.39-2.44-3.23-2.44-5.52c0-2.91,1.01-5.1,3.04-6.57c2.03-1.47,4.77-2.21,8.21-2.21
			c2.41,0,4.46,0.21,6.15,0.63c1.69,0.42,3.17,1.08,4.43,1.97c0.56,0.39,0.84,0.77,0.84,1.13c0,0.25-0.1,0.52-0.29,0.8l-2.44,3.82
			c-0.25,0.39-0.5,0.59-0.76,0.59c-0.17,0-0.43-0.11-0.8-0.34c-0.67-0.45-1.47-0.82-2.39-1.11c-0.92-0.29-1.92-0.44-2.98-0.44
			c-0.98,0-1.72,0.14-2.23,0.42c-0.5,0.28-0.76,0.73-0.76,1.34c0,0.5,0.17,0.92,0.53,1.26c0.35,0.34,0.79,0.62,1.32,0.86
			c0.53,0.24,1.46,0.62,2.77,1.16c2.1,0.84,3.75,1.64,4.96,2.42c1.2,0.77,2.11,1.69,2.73,2.77c0.62,1.08,0.92,2.44,0.92,4.1
			c0,2.52-0.95,4.56-2.83,6.11s-4.71,2.33-8.46,2.33C330.38,485.38,328.01,485.12,325.82,484.58z"/>
	</g>
	<polygon class="st6" points="199.76,86.93 213.23,114.22 243.34,118.59 221.55,139.83 226.7,169.83 199.76,155.67 172.83,169.83 
		177.97,139.83 156.18,118.59 186.29,114.22 	"/>
	<polygon class="st6" points="137.58,170.15 146.32,187.86 165.86,190.7 151.72,204.48 155.06,223.94 137.58,214.75 120.11,223.94 
		123.45,204.48 109.31,190.7 128.85,187.86 	"/>
	<polygon class="st6" points="267.68,170.15 276.42,187.86 295.95,190.7 281.82,204.48 285.15,223.94 267.68,214.75 250.2,223.94 
		253.54,204.48 239.4,190.7 258.94,187.86 	"/>
	<circle class="st7" cx="200.77" cy="203.97" r="121.96"/>
	<circle class="st1" cx="199.82" cy="190.58" r="121.96"/>
	<g>
		<path class="st1" d="M194.05,633.3c-0.63-0.56-0.95-1.54-0.95-2.96v-5.69h-17.59c-1.75,0-2.63-0.85-2.63-2.55v-6.72
			c0-1.12,0.1-1.95,0.29-2.48c0.19-0.54,0.66-1.24,1.39-2.12l19.86-23.94c0.83-0.97,1.51-1.61,2.04-1.9
			c0.54-0.29,1.46-0.44,2.77-0.44h7.01c1.61,0,2.74,0.34,3.39,1.02c0.66,0.68,0.99,1.73,0.99,3.14v23.58h2.77
			c1.56,0,2.62,0.33,3.18,0.99c0.56,0.66,0.84,1.71,0.84,3.17v4.09c0,1.46-0.28,2.52-0.84,3.18c-0.56,0.66-1.62,0.99-3.18,0.99
			h-2.77v5.69c0,1.41-0.33,2.4-0.99,2.96c-0.66,0.56-1.81,0.84-3.47,0.84h-8.69C195.82,634.14,194.68,633.86,194.05,633.3z
			 M196.97,612.24v-9.56l-7.01,9.56H196.97z"/>
	</g>
	<g>
		<g>
			<circle id="XMLID_279_" class="st3" cx="174.76" cy="151.93" r="34.02"/>
			<g id="XMLID_255_">
				<path id="XMLID_278_" class="st4" d="M184.22,150.59c0.44-1.08,0.67-1.93,0.71-2.16c-0.04-0.01-0.08-0.03-0.1-0.06
					c-0.07-0.1,0.14-1.2,0.04-1.28c-0.01-0.01-0.02-0.01-0.04-0.02c-0.12,0.39-0.35,0.71-0.62,0.94
					C184.23,148.85,184.23,149.72,184.22,150.59z"/>
				<path id="XMLID_277_" class="st21" d="M182.69,148.44c-0.5-0.36-0.49,4.74-2.58,6.76c-0.15,0.14-0.3,0.29-0.46,0.42
					c-0.16,0.14-0.33,0.27-0.49,0.4c0,0.07,0,0.14,0,0.21c1.93-0.56,3.29-2.27,4.13-3.74c0.38-0.66,0.68-1.31,0.92-1.9
					c0.01-0.88,0.01-1.74,0-2.59c-0.16,0.14-0.33,0.24-0.5,0.29C183.43,148.6,183.09,148.7,182.69,148.44z"/>
				<path id="XMLID_276_" class="st21" d="M166.45,162.01c-0.05,0.03-0.21,0.12-0.37,0.36
					C166.19,162.27,166.31,162.15,166.45,162.01z"/>
				<path id="XMLID_275_" class="st21" d="M179.18,156.5c0.05,1.12,0.27,2.59,1.19,3.93c0.3-0.27,0.47-0.33,0.58-0.14
					c0.68,1.14,1.38,1.75,1.77,2.14c-0.2-0.34-0.42-0.44-0.42-0.44s0.48-0.19,1.32,0.52c0.19,0.17,0.54,0.4,0.91,0.71
					c-0.44-2.18-0.35-7.12-0.31-11.98c-0.2,0.44-0.43,0.9-0.69,1.36C182.32,154.72,180.83,156.04,179.18,156.5z"/>
				<path id="XMLID_274_" class="st21" d="M166.46,162c0.38-0.39,0.87-0.92,1.33-1.71c0.11-0.19,0.28-0.13,0.6,0.16
					c1.06-1.55,1.21-3.28,1.21-4.43c-0.33-0.26-0.65-0.53-0.95-0.82c-2.09-2.02-2.07-7.12-2.58-6.76c-0.39,0.26-0.73,0.17-1.02-0.12
					c-0.1-0.03-0.21-0.08-0.31-0.14c-0.02,5.57,0.22,12.1-0.26,14.87c0.28-0.21,0.52-0.38,0.67-0.51
					C165.94,161.85,166.42,161.98,166.46,162z"/>
				<path id="XMLID_273_" class="st22" d="M178.74,156.33c0.15-0.03,0.29-0.06,0.43-0.1c0-0.07,0-0.15,0-0.21
					C179.02,156.12,178.88,156.23,178.74,156.33z"/>
				<path id="XMLID_272_" class="st22" d="M174.31,165.8c0.03,0.03,0.05,0.06,0.06,0.1c0.01-0.04,0.02-0.07,0.06-0.1
					c3.65-2.79,5.2-4.71,5.94-5.36c-0.91-1.34-1.14-2.81-1.19-3.93c-0.3,0.08-0.61,0.14-0.92,0.16c-0.09,0.39-0.49,1.1-1.83,1.08
					c-0.28,0-0.51-0.04-0.7-0.09c-0.2,0.04-0.41,0.07-0.61,0.09c-0.62,0.06-1.26,0.04-1.87-0.05c-0.51-0.08-1-0.22-1.48-0.4
					c-0.54-0.21-1.04-0.48-1.52-0.8c-0.22-0.15-0.43-0.31-0.63-0.47c-0.01,1.16-0.15,2.89-1.21,4.43
					C169.13,161.12,170.69,163.03,174.31,165.8z"/>
				<path id="XMLID_271_" class="st22" d="M174.37,165.98c0,0.01,0,0.01,0,0.02h0.01C174.37,165.99,174.37,165.99,174.37,165.98z"/>
				<path id="XMLID_270_" class="st23" d="M171.76,157.29c0.48,0.19,0.97,0.32,1.48,0.4c0.62,0.1,1.25,0.12,1.87,0.05
					c0.21-0.02,0.41-0.06,0.61-0.09c-0.89-0.25-0.96-0.96-0.98-1.19c0.03-0.29,0.14-1.27,1.71-1.25c1.43,0.01,1.77,0.83,1.82,1.19
					c0.16-0.01,0.32-0.04,0.47-0.07c0.14-0.1,0.28-0.21,0.42-0.32c0.17-0.13,0.33-0.26,0.49-0.4c0.16-0.14,0.31-0.28,0.46-0.42
					c2.09-2.02,2.07-7.12,2.58-6.76c0.4,0.27,0.74,0.16,1.04-0.14c-0.24,0.09-0.48,0.09-0.65-0.01c-0.28-0.18,0.01-1.6,0.22-3.79
					c-0.03,0.01-0.06,0.02-0.09,0.04c-0.4,0.25-0.89-3.14-2.8-4.73c-1.91-1.59-2.06-2.66-2.06-2.66c-1.91,0.22-3.78,0.91-6.93,3.41
					c-2.49,1.98-4.72,3.96-5.72,4.23c-0.09,0.02-0.15-0.08-0.23-0.21c0.2,2.14,0.49,3.53,0.21,3.71c-0.16,0.1-0.38,0.1-0.61,0.03
					c0.29,0.29,0.63,0.39,1.02,0.12c0.5-0.36,0.49,4.74,2.58,6.76c0.3,0.29,0.62,0.56,0.95,0.82c0.21,0.16,0.41,0.33,0.63,0.47
					C170.71,156.81,171.22,157.08,171.76,157.29z"/>
				<path id="XMLID_269_" class="st21" d="M164.67,140.78c0.09-1.87,1.81-8.64,9.7-8.64c7.89,0,9.61,6.77,9.7,8.64
					c0.06,1.21-0.06,1.91,0.04,2.33c0.04-0.41,0.06-0.93,0.06-1.63c0-3.57-1.45-7.24-3.78-7.86c-1.12-0.29-1.27-1.39-3.76-2.13
					c-3.99-1.19-8.49,0.46-10.79,4.29c-1.61,2.68-1.69,6.44-1.53,7.75C164.87,143.23,164.58,142.55,164.67,140.78z"/>
				<path id="XMLID_268_" class="st21" d="M165.68,144.79c1-0.27,3.23-2.24,5.72-4.23c3.15-2.51,5.02-3.2,6.93-3.41
					c0,0,0.15,1.07,2.06,2.66c1.91,1.59,2.4,4.98,2.8,4.73c0.03-0.02,0.06-0.03,0.09-0.04c0.02-0.22,0.04-0.45,0.06-0.69
					c0.2-2.58,0.17-3.42-0.08-4.35c-1.95-7.19-8.9-6.68-8.9-6.68s-6.71-0.63-8.86,6.57c-0.29,0.95-0.31,1.89-0.12,4.47
					c0.02,0.27,0.04,0.53,0.07,0.78C165.53,144.72,165.59,144.82,165.68,144.79z"/>
				<path id="XMLID_267_" class="st24" d="M165.66,148.29c0.28-0.17,0-1.57-0.21-3.71c-0.02-0.25-0.05-0.51-0.07-0.78
					c-0.2-2.58-0.17-3.51,0.12-4.47c2.16-7.2,8.86-6.57,8.86-6.57s6.95-0.51,8.9,6.68c0.25,0.94,0.28,1.78,0.08,4.35
					c-0.02,0.24-0.04,0.47-0.06,0.69c-0.2,2.18-0.5,3.61-0.22,3.79c0.17,0.11,0.41,0.1,0.65,0.01c0.17-0.06,0.34-0.16,0.5-0.29
					c0.27-0.23,0.49-0.55,0.62-0.94c-0.1-0.03-0.24,0.06-0.33-0.11c-0.09-0.2-0.04-1.07,0.03-1.26c0.08-0.19,0.16-0.28,0.46-0.22
					c0.02,0,0.03,0.01,0.05,0.02c0.04-0.88-0.07-1.73-0.54-1.91c-0.25-0.1-0.36-0.24-0.42-0.47c-0.1-0.42,0.02-1.12-0.04-2.33
					c-0.09-1.87-1.81-8.64-9.7-8.64c-7.89,0-9.61,6.77-9.7,8.64c-0.09,1.77,0.21,2.45-0.36,2.75c-0.03,0.02-0.06,0.04-0.09,0.05
					c-0.71,0.27-0.59,2.1-0.39,3.23c0.11,0.63,0.5,1.11,0.92,1.36c0.1,0.06,0.21,0.11,0.31,0.14
					C165.28,148.38,165.5,148.39,165.66,148.29z"/>
				<path id="XMLID_266_" class="st25" d="M184.55,145.69c-0.08,0.19-0.13,1.07-0.03,1.26c0.08,0.17,0.23,0.08,0.33,0.11
					c0.01,0,0.03,0.01,0.04,0.02c0.1,0.08-0.11,1.18-0.04,1.28c0.02,0.03,0.06,0.05,0.1,0.06c-0.05,0.23-0.27,1.08-0.71,2.16
					c-0.24,0.59-0.55,1.24-0.92,1.9c-0.84,1.47-2.2,3.18-4.13,3.74c-0.14,0.04-0.28,0.08-0.43,0.1c-0.15,0.03-0.31,0.05-0.47,0.07
					c-0.05-0.36-0.39-1.18-1.82-1.19c-1.57-0.02-1.68,0.96-1.71,1.25c0.02,0.24,0.09,0.94,0.98,1.19c0.19,0.05,0.42,0.09,0.7,0.09
					c1.34,0.01,1.74-0.7,1.83-1.08c0.31-0.03,0.62-0.08,0.92-0.16c1.65-0.46,3.14-1.78,4.35-3.89c0.26-0.46,0.49-0.92,0.69-1.36
					c0.63-1.4,0.95-2.6,0.98-2.83c0.02-0.01,0.04-0.01,0.05-0.02c0.11-0.07,0.19-0.8,0.26-1.62c0.06-0.78-0.18-1.21-0.45-1.29
					c-0.02,0-0.03-0.01-0.05-0.02C184.71,145.42,184.63,145.51,184.55,145.69z"/>
				<path id="XMLID_265_" class="st26" d="M172.98,171.82c-0.57-1.28-1.21-2.01-1.27-3.07c-0.42,0.52-0.71,1.06-0.67,1.57
					c0.16,1.69-4.83-4.09-5.31-6.87c-0.09,0.53-0.09,1.64,1.45,3.83c1.04,1.48,3.48,5.68,5.26,9.46c0.35-2.28,0.64-4.03,0.76-4.68
					C173.11,171.98,173.03,171.91,172.98,171.82z"/>
				<path id="XMLID_264_" class="st26" d="M177.69,170.31c0.05-0.51-0.24-1.04-0.67-1.57c-0.06,1.07-0.7,1.79-1.27,3.07
					c-0.04,0.09-0.13,0.17-0.22,0.22c0.12,0.68,0.43,2.55,0.8,4.96c1.73-3.84,4.18-8.22,5.24-9.73c1.62-2.29,1.53-3.4,1.44-3.9
					C182.61,166.11,177.52,172.01,177.69,170.31z"/>
				<path id="XMLID_263_" class="st26" d="M166.56,168.9c0,0,0.01,0.01,0.01,0.01l0.01-0.01C166.58,168.9,166.57,168.9,166.56,168.9
					z"/>
				<path id="XMLID_262_" class="st27" d="M175.75,171.82c0.57-1.28,1.21-2.01,1.27-3.07c-0.94-1.16-2.53-2.23-2.65-2.74h-0.01
					c-0.12,0.51-1.71,1.59-2.65,2.74c0.06,1.07,0.7,1.79,1.27,3.07c0.04,0.09,0.13,0.17,0.22,0.22c-0.12,0.66-0.4,2.41-0.76,4.68
					c1.06,2.25,1.88,4.34,2.03,5.62c0.15-1.22,0.88-3.2,1.84-5.34c-0.37-2.41-0.68-4.28-0.8-4.96
					C175.62,171.98,175.71,171.91,175.75,171.82z"/>
				<path id="XMLID_261_" class="st28" d="M180.94,160.29c-0.11-0.19-0.28-0.13-0.58,0.14c-0.74,0.65-2.29,2.57-5.94,5.36
					c-0.03,0.03-0.05,0.06-0.06,0.1c-0.01-0.04-0.02-0.07-0.06-0.1c-3.62-2.77-5.18-4.68-5.92-5.35c-0.31-0.28-0.48-0.35-0.6-0.16
					c-0.47,0.79-0.95,1.32-1.33,1.71c0,0,0.01,0,0.01,0s-0.01,0-0.02,0.01c-0.14,0.14-0.26,0.26-0.37,0.36
					c-0.11,0.17-0.22,0.42-0.28,0.78c-0.01,0.07-0.04,0.16-0.06,0.29c0.48,2.78,5.47,8.56,5.31,6.87c-0.05-0.51,0.24-1.04,0.67-1.57
					c0.94-1.16,2.53-2.23,2.65-2.74c0-0.01,0-0.01,0-0.02c0,0.01,0,0.01,0,0.02c0.12,0.51,1.71,1.59,2.65,2.74
					c0.42,0.52,0.71,1.06,0.67,1.57c-0.16,1.7,4.92-4.2,5.32-6.94c-0.02-0.09-0.04-0.16-0.05-0.21c-0.05-0.32-0.15-0.54-0.24-0.71
					C182.33,162.05,181.62,161.44,180.94,160.29z"/>
				<path id="XMLID_260_" class="st25" d="M194.43,167.41c-0.31-0.42-7.04-2.74-9.23-3.55c0.22,0.25,0.43,0.52,0.61,0.84
					c0.96,1.73,1.02,2.79,1.7,3.29c0.68,0.51-5.32,0.9-5.32,0.9l3.78,2.85c0,0-4.24,4.84-7.1,6.93c-0.89,0.65-3.69,3.24-4.37,4.36
					c0.16,0.75,0.43,1.88,0.49,2.33c0.03,0.2,0.05,0.38,0.07,0.57c5.22-0.06,10.15-1.29,14.55-3.45c0.13-2.61-0.32-12.88,4.62-15.06
					c0.1-0.05,0.22,0.06,0.35,0.29c0,0,0,0,0-0.01C194.53,167.61,194.49,167.5,194.43,167.41z"/>
				<path id="XMLID_259_" class="st29" d="M174.5,183.04L174.5,183.04c-0.8-0.7-3.71-3.71-4.6-4.36c-2.86-2.09-7.1-6.93-7.1-6.93
					l3.77-2.84c0,0-0.01-0.01-0.01-0.01c-0.39-0.03-5.96-0.41-5.3-0.9c0.68-0.51,0.73-1.57,1.7-3.29c0.19-0.34,0.42-0.64,0.67-0.9
					c-2.29,0.84-8.83,3.1-9.13,3.51c5.28,0.27,4.75,12.02,4.85,15c4.6,2.32,9.8,3.64,15.3,3.64c0.14,0,0.27-0.01,0.41-0.01
					c-0.02-0.19-0.05-0.38-0.07-0.57C174.93,184.92,174.65,183.79,174.5,183.04z"/>
				<path id="XMLID_258_" class="st30" d="M162.96,164.7c-0.96,1.73-1.02,2.79-1.7,3.29c-0.66,0.49,4.91,0.88,5.3,0.9
					c0.01,0,0.02,0,0.02,0l-0.01,0.01l-3.77,2.84c0,0,4.24,4.84,7.1,6.93c0.89,0.65,3.8,3.66,4.6,4.36l0,0
					c0.68-1.12,3.48-3.71,4.37-4.36c2.86-2.09,7.1-6.93,7.1-6.93l-3.78-2.85c0,0,6-0.39,5.32-0.9c-0.68-0.51-0.73-1.57-1.7-3.29
					c-0.18-0.32-0.39-0.59-0.61-0.84c-0.22-0.24-0.45-0.45-0.67-0.63c-0.37-0.31-0.72-0.54-0.91-0.71
					c-0.84-0.71-1.32-0.52-1.32-0.52s0.22,0.09,0.42,0.44c0.1,0.17,0.19,0.4,0.24,0.71c0.01,0.05,0.03,0.12,0.05,0.21
					c0.1,0.5,0.18,1.61-1.44,3.9c-1.07,1.51-3.52,5.89-5.24,9.73c-0.96,2.14-1.7,4.12-1.84,5.34c-0.15-1.28-0.98-3.37-2.03-5.62
					c-1.78-3.78-4.22-7.98-5.26-9.46c-1.54-2.18-1.54-3.3-1.45-3.83c0.02-0.13,0.05-0.22,0.06-0.29c0.06-0.35,0.17-0.6,0.28-0.78
					c0.15-0.24,0.31-0.34,0.37-0.36c0.01-0.01,0.02-0.01,0.02-0.01s-0.01,0-0.01,0c-0.04-0.01-0.52-0.15-1.31,0.53
					c-0.15,0.13-0.39,0.3-0.67,0.51c-0.27,0.21-0.57,0.46-0.85,0.77C163.38,164.07,163.15,164.36,162.96,164.7z"/>
				<path id="XMLID_257_" class="st30" d="M154.5,167.32c-0.3-0.02-1.3,4.6-2.31,10.16c2.16,1.9,4.56,3.53,7.16,4.84
					C159.25,179.34,159.77,167.59,154.5,167.32z"/>
				<path id="XMLID_256_" class="st30" d="M194.23,167.43c-4.93,2.18-4.49,12.45-4.62,15.06c2.66-1.31,5.13-2.95,7.34-4.88
					c-0.85-4.74-1.74-8.8-2.37-9.89C194.45,167.49,194.33,167.38,194.23,167.43z"/>
			</g>
		</g>
		<g>
			<g>
				<polygon class="st34" points="242.03,132.28 242.03,143.28 240.27,143.28 240.27,140.6 236.95,140.6 236.95,143.28 
					235.33,143.28 235.33,140.55 231.95,140.55 231.95,143.28 230.29,143.28 230.29,140.55 226.9,140.55 226.9,143.28 
					223.27,143.28 223.27,137.55 227.8,137.55 227.8,132.52 227.08,132.52 227.08,136.83 222.55,136.83 222.55,144 227.62,144 
					227.62,141.15 229.57,141.15 229.57,144 232.67,144 232.67,141.18 234.61,141.18 234.61,144 237.67,144 237.67,141.32 
					239.55,141.32 239.55,144 242.75,144 242.75,132.28 				"/>
			</g>
			<g>
				<path class="st35" d="M266.21,110.2H244.7h-0.56h-7.85h-0.43h-0.37c-0.38,0-0.69,0.31-0.69,0.69v24.45
					c0,0.38,0.31,0.69,0.69,0.69h0.37h0.43h7.85h0.56h21.51c0.38,0,0.69-0.31,0.69-0.69v-24.45
					C266.9,110.5,266.59,110.2,266.21,110.2z"/>
				<rect x="245.88" y="112.51" class="st1" width="18.52" height="5.7"/>
				<rect x="245.88" y="121.6" class="st34" width="2.89" height="2.89"/>
				<rect x="250.58" y="121.6" class="st34" width="2.89" height="2.89"/>
				<rect x="255.28" y="121.6" class="st34" width="2.89" height="2.89"/>
				<rect x="245.88" y="126.21" class="st34" width="2.89" height="2.89"/>
				<rect x="250.58" y="126.21" class="st34" width="2.89" height="2.89"/>
				<rect x="255.28" y="126.21" class="st34" width="2.89" height="2.89"/>
				<rect x="245.88" y="130.83" class="st34" width="2.89" height="2.89"/>
				<rect x="250.58" y="130.83" class="st34" width="2.89" height="2.89"/>
				<rect x="255.28" y="130.83" class="st34" width="2.89" height="2.89"/>
				<rect x="260.49" y="121.6" class="st1" width="3.91" height="2.89"/>
				<rect x="260.49" y="126.21" class="st1" width="3.91" height="2.89"/>
				<rect x="260.49" y="130.83" class="st1" width="3.91" height="2.89"/>
				<path class="st36" d="M243.24,133.01h-5.99c-0.42,0-0.76-0.34-0.76-0.76v-18.8c0-0.42,0.34-0.76,0.76-0.76h5.99
					c0.42,0,0.75,0.34,0.75,0.76v18.8C244,132.67,243.66,133.01,243.24,133.01z"/>
			</g>
			<path class="st34" d="M230.24,110.67v-6.22c0-0.52-0.42-0.94-0.94-0.94h-2.08h-3.76h-0.01c-0.52,0-0.94,0.42-0.94,0.94v27.82
				c0,0.52,0.42,0.94,0.94,0.94h0.01h3.76h2.08c0.52,0,0.94-0.42,0.94-0.94v-6.22c0-0.52-0.42-0.94-0.94-0.94h-1.15
				c-0.52,0-0.94-0.42-0.94-0.94v-11.65c0-0.52,0.42-0.94,0.94-0.94h1.15C229.82,111.6,230.24,111.18,230.24,110.67z"/>
		</g>
		<g>
			<g>
				<polygon class="st34" points="241.03,178.28 241.03,189.28 239.27,189.28 239.27,186.6 235.95,186.6 235.95,189.28 
					234.33,189.28 234.33,186.55 230.95,186.55 230.95,189.28 229.29,189.28 229.29,186.55 225.9,186.55 225.9,189.28 
					222.27,189.28 222.27,183.55 226.8,183.55 226.8,178.52 226.08,178.52 226.08,182.83 221.55,182.83 221.55,190 226.62,190 
					226.62,187.15 228.57,187.15 228.57,190 231.67,190 231.67,187.18 233.61,187.18 233.61,190 236.67,190 236.67,187.32 
					238.55,187.32 238.55,190 241.75,190 241.75,178.28 				"/>
			</g>
			<g>
				<path class="st35" d="M265.21,156.2H243.7h-0.56h-7.85h-0.43h-0.37c-0.38,0-0.69,0.31-0.69,0.69v24.45
					c0,0.38,0.31,0.69,0.69,0.69h0.37h0.43h7.85h0.56h21.51c0.38,0,0.69-0.31,0.69-0.69v-24.45
					C265.9,156.5,265.59,156.2,265.21,156.2z"/>
				<rect x="244.88" y="158.51" class="st1" width="18.52" height="5.7"/>
				<rect x="244.88" y="167.6" class="st34" width="2.89" height="2.89"/>
				<rect x="249.58" y="167.6" class="st34" width="2.89" height="2.89"/>
				<rect x="254.28" y="167.6" class="st34" width="2.89" height="2.89"/>
				<rect x="244.88" y="172.21" class="st34" width="2.89" height="2.89"/>
				<rect x="249.58" y="172.21" class="st34" width="2.89" height="2.89"/>
				<rect x="254.28" y="172.21" class="st34" width="2.89" height="2.89"/>
				<rect x="244.88" y="176.83" class="st34" width="2.89" height="2.89"/>
				<rect x="249.58" y="176.83" class="st34" width="2.89" height="2.89"/>
				<rect x="254.28" y="176.83" class="st34" width="2.89" height="2.89"/>
				<rect x="259.49" y="167.6" class="st1" width="3.91" height="2.89"/>
				<rect x="259.49" y="172.21" class="st1" width="3.91" height="2.89"/>
				<rect x="259.49" y="176.83" class="st1" width="3.91" height="2.89"/>
				<path class="st36" d="M242.24,179.01h-5.99c-0.42,0-0.76-0.34-0.76-0.76v-18.8c0-0.42,0.34-0.76,0.76-0.76h5.99
					c0.42,0,0.75,0.34,0.75,0.76v18.8C243,178.67,242.66,179.01,242.24,179.01z"/>
			</g>
			<path class="st34" d="M229.24,156.67v-6.22c0-0.52-0.42-0.94-0.94-0.94h-2.08h-3.76h-0.01c-0.52,0-0.94,0.42-0.94,0.94v27.82
				c0,0.52,0.42,0.94,0.94,0.94h0.01h3.76h2.08c0.52,0,0.94-0.42,0.94-0.94v-6.22c0-0.52-0.42-0.94-0.94-0.94h-1.15
				c-0.52,0-0.94-0.42-0.94-0.94v-11.65c0-0.52,0.42-0.94,0.94-0.94h1.15C228.82,157.6,229.24,157.18,229.24,156.67z"/>
		</g>
		<line class="st37" x1="203" y1="128" x2="217" y2="122"/>
		<line class="st37" x1="217" y1="172" x2="207" y2="168"/>
		<g>
			<g>
				<circle id="XMLID_254_" class="st3" cx="176.76" cy="237.93" r="34.02"/>
				<g id="XMLID_230_">
					<path id="XMLID_253_" class="st4" d="M186.22,236.59c0.44-1.08,0.67-1.93,0.71-2.16c-0.04-0.01-0.08-0.03-0.1-0.06
						c-0.07-0.1,0.14-1.2,0.04-1.28c-0.01-0.01-0.02-0.01-0.04-0.02c-0.12,0.39-0.35,0.71-0.62,0.94
						C186.23,234.85,186.23,235.72,186.22,236.59z"/>
					<path id="XMLID_252_" class="st21" d="M184.69,234.44c-0.5-0.36-0.49,4.74-2.58,6.76c-0.15,0.14-0.3,0.29-0.46,0.42
						c-0.16,0.14-0.33,0.27-0.49,0.4c0,0.07,0,0.14,0,0.21c1.93-0.56,3.29-2.27,4.13-3.74c0.38-0.66,0.68-1.31,0.92-1.9
						c0.01-0.88,0.01-1.74,0-2.59c-0.16,0.14-0.33,0.24-0.5,0.29C185.43,234.6,185.09,234.7,184.69,234.44z"/>
					<path id="XMLID_251_" class="st21" d="M168.45,248.01c-0.05,0.03-0.21,0.12-0.37,0.36
						C168.19,248.27,168.31,248.15,168.45,248.01z"/>
					<path id="XMLID_250_" class="st21" d="M181.18,242.5c0.05,1.12,0.27,2.59,1.19,3.93c0.3-0.27,0.47-0.33,0.58-0.14
						c0.68,1.14,1.38,1.75,1.77,2.14c-0.2-0.34-0.42-0.44-0.42-0.44s0.48-0.19,1.32,0.52c0.19,0.17,0.54,0.4,0.91,0.71
						c-0.44-2.18-0.35-7.12-0.31-11.98c-0.2,0.44-0.43,0.9-0.69,1.36C184.32,240.72,182.83,242.04,181.18,242.5z"/>
					<path id="XMLID_249_" class="st21" d="M168.46,248c0.38-0.39,0.87-0.92,1.33-1.71c0.11-0.19,0.28-0.13,0.6,0.16
						c1.06-1.55,1.21-3.28,1.21-4.43c-0.33-0.26-0.65-0.53-0.95-0.82c-2.09-2.02-2.07-7.12-2.58-6.76
						c-0.39,0.26-0.73,0.17-1.02-0.12c-0.1-0.03-0.21-0.08-0.31-0.14c-0.02,5.57,0.22,12.1-0.26,14.87
						c0.28-0.21,0.52-0.38,0.67-0.51C167.94,247.85,168.42,247.98,168.46,248z"/>
					<path id="XMLID_248_" class="st22" d="M180.74,242.33c0.15-0.03,0.29-0.06,0.43-0.1c0-0.07,0-0.15,0-0.21
						C181.02,242.12,180.88,242.23,180.74,242.33z"/>
					<path id="XMLID_247_" class="st22" d="M176.31,251.8c0.03,0.03,0.05,0.06,0.06,0.1c0.01-0.04,0.02-0.07,0.06-0.1
						c3.65-2.79,5.2-4.71,5.94-5.36c-0.91-1.34-1.14-2.81-1.19-3.93c-0.3,0.08-0.61,0.14-0.92,0.16c-0.09,0.39-0.49,1.1-1.83,1.08
						c-0.28,0-0.51-0.04-0.7-0.09c-0.2,0.04-0.41,0.07-0.61,0.09c-0.62,0.06-1.26,0.04-1.87-0.05c-0.51-0.08-1-0.22-1.48-0.4
						c-0.54-0.21-1.04-0.48-1.52-0.8c-0.22-0.15-0.43-0.31-0.63-0.47c-0.01,1.16-0.15,2.89-1.21,4.43
						C171.13,247.12,172.69,249.03,176.31,251.8z"/>
					<path id="XMLID_246_" class="st22" d="M176.37,251.98c0,0.01,0,0.01,0,0.02h0.01C176.37,251.99,176.37,251.99,176.37,251.98z"
						/>
					<path id="XMLID_245_" class="st23" d="M173.76,243.29c0.48,0.19,0.97,0.32,1.48,0.4c0.62,0.1,1.25,0.12,1.87,0.05
						c0.21-0.02,0.41-0.06,0.61-0.09c-0.89-0.25-0.96-0.96-0.98-1.19c0.03-0.29,0.14-1.27,1.71-1.25c1.43,0.01,1.77,0.83,1.82,1.19
						c0.16-0.01,0.32-0.04,0.47-0.07c0.14-0.1,0.28-0.21,0.42-0.32c0.17-0.13,0.33-0.26,0.49-0.4c0.16-0.14,0.31-0.28,0.46-0.42
						c2.09-2.02,2.07-7.12,2.58-6.76c0.4,0.27,0.74,0.16,1.04-0.14c-0.24,0.09-0.48,0.09-0.65-0.01c-0.28-0.18,0.01-1.6,0.22-3.79
						c-0.03,0.01-0.06,0.02-0.09,0.04c-0.4,0.25-0.89-3.14-2.8-4.73c-1.91-1.59-2.06-2.66-2.06-2.66c-1.91,0.22-3.78,0.91-6.93,3.41
						c-2.49,1.98-4.72,3.96-5.72,4.23c-0.09,0.02-0.15-0.08-0.23-0.21c0.2,2.14,0.49,3.53,0.21,3.71c-0.16,0.1-0.38,0.1-0.61,0.03
						c0.29,0.29,0.63,0.39,1.02,0.12c0.5-0.36,0.49,4.74,2.58,6.76c0.3,0.29,0.62,0.56,0.95,0.82c0.21,0.16,0.41,0.33,0.63,0.47
						C172.71,242.81,173.22,243.08,173.76,243.29z"/>
					<path id="XMLID_244_" class="st21" d="M166.67,226.78c0.09-1.87,1.81-8.64,9.7-8.64c7.89,0,9.61,6.77,9.7,8.64
						c0.06,1.21-0.06,1.91,0.04,2.33c0.04-0.41,0.06-0.93,0.06-1.63c0-3.57-1.45-7.24-3.78-7.86c-1.12-0.29-1.27-1.39-3.76-2.13
						c-3.99-1.19-8.49,0.46-10.79,4.29c-1.61,2.68-1.69,6.44-1.53,7.75C166.87,229.23,166.58,228.55,166.67,226.78z"/>
					<path id="XMLID_243_" class="st21" d="M167.68,230.79c1-0.27,3.23-2.24,5.72-4.23c3.15-2.51,5.02-3.2,6.93-3.41
						c0,0,0.15,1.07,2.06,2.66c1.91,1.59,2.4,4.98,2.8,4.73c0.03-0.02,0.06-0.03,0.09-0.04c0.02-0.22,0.04-0.45,0.06-0.69
						c0.2-2.58,0.17-3.42-0.08-4.35c-1.95-7.19-8.9-6.68-8.9-6.68s-6.71-0.63-8.86,6.57c-0.29,0.95-0.31,1.89-0.12,4.47
						c0.02,0.27,0.04,0.53,0.07,0.78C167.53,230.72,167.59,230.82,167.68,230.79z"/>
					<path id="XMLID_242_" class="st24" d="M167.66,234.29c0.28-0.17,0-1.57-0.21-3.71c-0.02-0.25-0.05-0.51-0.07-0.78
						c-0.2-2.58-0.17-3.51,0.12-4.47c2.16-7.2,8.86-6.57,8.86-6.57s6.95-0.51,8.9,6.68c0.25,0.94,0.28,1.78,0.08,4.35
						c-0.02,0.24-0.04,0.47-0.06,0.69c-0.2,2.18-0.5,3.61-0.22,3.79c0.17,0.11,0.41,0.1,0.65,0.01c0.17-0.06,0.34-0.16,0.5-0.29
						c0.27-0.23,0.49-0.55,0.62-0.94c-0.1-0.03-0.24,0.06-0.33-0.11c-0.09-0.2-0.04-1.07,0.03-1.26c0.08-0.19,0.16-0.28,0.46-0.22
						c0.02,0,0.03,0.01,0.05,0.02c0.04-0.88-0.07-1.73-0.54-1.91c-0.25-0.1-0.36-0.24-0.42-0.47c-0.1-0.42,0.02-1.12-0.04-2.33
						c-0.09-1.87-1.81-8.64-9.7-8.64c-7.89,0-9.61,6.77-9.7,8.64c-0.09,1.77,0.21,2.45-0.36,2.75c-0.03,0.02-0.06,0.04-0.09,0.05
						c-0.71,0.27-0.59,2.1-0.39,3.23c0.11,0.63,0.5,1.11,0.92,1.36c0.1,0.06,0.21,0.11,0.31,0.14
						C167.28,234.38,167.5,234.39,167.66,234.29z"/>
					<path id="XMLID_241_" class="st25" d="M186.55,231.69c-0.08,0.19-0.13,1.07-0.03,1.26c0.08,0.17,0.23,0.08,0.33,0.11
						c0.01,0,0.03,0.01,0.04,0.02c0.1,0.08-0.11,1.18-0.04,1.28c0.02,0.03,0.06,0.05,0.1,0.06c-0.05,0.23-0.27,1.08-0.71,2.16
						c-0.24,0.59-0.55,1.24-0.92,1.9c-0.84,1.47-2.2,3.18-4.13,3.74c-0.14,0.04-0.28,0.08-0.43,0.1c-0.15,0.03-0.31,0.05-0.47,0.07
						c-0.05-0.36-0.39-1.18-1.82-1.19c-1.57-0.02-1.68,0.96-1.71,1.25c0.02,0.24,0.09,0.94,0.98,1.19c0.19,0.05,0.42,0.09,0.7,0.09
						c1.34,0.01,1.74-0.7,1.83-1.08c0.31-0.03,0.62-0.08,0.92-0.16c1.65-0.46,3.14-1.78,4.35-3.89c0.26-0.46,0.49-0.92,0.69-1.36
						c0.63-1.4,0.95-2.6,0.98-2.83c0.02-0.01,0.04-0.01,0.05-0.02c0.11-0.07,0.19-0.8,0.26-1.62c0.06-0.78-0.18-1.21-0.45-1.29
						c-0.02,0-0.03-0.01-0.05-0.02C186.71,231.42,186.63,231.51,186.55,231.69z"/>
					<path id="XMLID_240_" class="st26" d="M174.98,257.82c-0.57-1.28-1.21-2.01-1.27-3.07c-0.42,0.52-0.71,1.06-0.67,1.57
						c0.16,1.69-4.83-4.09-5.31-6.87c-0.09,0.53-0.09,1.64,1.45,3.83c1.04,1.48,3.48,5.68,5.26,9.46c0.35-2.28,0.64-4.03,0.76-4.68
						C175.11,257.98,175.03,257.91,174.98,257.82z"/>
					<path id="XMLID_239_" class="st26" d="M179.69,256.31c0.05-0.51-0.24-1.04-0.67-1.57c-0.06,1.07-0.7,1.79-1.27,3.07
						c-0.04,0.09-0.13,0.17-0.22,0.22c0.12,0.68,0.43,2.55,0.8,4.96c1.73-3.84,4.18-8.22,5.24-9.73c1.62-2.29,1.53-3.4,1.44-3.9
						C184.61,252.11,179.52,258.01,179.69,256.31z"/>
					<path id="XMLID_238_" class="st26" d="M168.56,254.9c0,0,0.01,0.01,0.01,0.01l0.01-0.01
						C168.58,254.9,168.57,254.9,168.56,254.9z"/>
					<path id="XMLID_237_" class="st27" d="M177.75,257.82c0.57-1.28,1.21-2.01,1.27-3.07c-0.94-1.16-2.53-2.23-2.65-2.74h-0.01
						c-0.12,0.51-1.71,1.59-2.65,2.74c0.06,1.07,0.7,1.79,1.27,3.07c0.04,0.09,0.13,0.17,0.22,0.22c-0.12,0.66-0.4,2.41-0.76,4.68
						c1.06,2.25,1.88,4.34,2.03,5.62c0.15-1.22,0.88-3.2,1.84-5.34c-0.37-2.41-0.68-4.28-0.8-4.96
						C177.62,257.98,177.71,257.91,177.75,257.82z"/>
					<path id="XMLID_236_" class="st28" d="M182.94,246.29c-0.11-0.19-0.28-0.13-0.58,0.14c-0.74,0.65-2.29,2.57-5.94,5.36
						c-0.03,0.03-0.05,0.06-0.06,0.1c-0.01-0.04-0.02-0.07-0.06-0.1c-3.62-2.77-5.18-4.68-5.92-5.35c-0.31-0.28-0.48-0.35-0.6-0.16
						c-0.47,0.79-0.95,1.32-1.33,1.71c0,0,0.01,0,0.01,0s-0.01,0-0.02,0.01c-0.14,0.14-0.26,0.26-0.37,0.36
						c-0.11,0.17-0.22,0.42-0.28,0.78c-0.01,0.07-0.04,0.16-0.06,0.29c0.48,2.78,5.47,8.56,5.31,6.87
						c-0.05-0.51,0.24-1.04,0.67-1.57c0.94-1.16,2.53-2.23,2.65-2.74c0-0.01,0-0.01,0-0.02c0,0.01,0,0.01,0,0.02
						c0.12,0.51,1.71,1.59,2.65,2.74c0.42,0.52,0.71,1.06,0.67,1.57c-0.16,1.7,4.92-4.2,5.32-6.94c-0.02-0.09-0.04-0.16-0.05-0.21
						c-0.05-0.32-0.15-0.54-0.24-0.71C184.33,248.05,183.62,247.44,182.94,246.29z"/>
					<path id="XMLID_235_" class="st25" d="M196.43,253.41c-0.31-0.42-7.04-2.74-9.23-3.55c0.22,0.25,0.43,0.52,0.61,0.84
						c0.96,1.73,1.02,2.79,1.7,3.29c0.68,0.51-5.32,0.9-5.32,0.9l3.78,2.85c0,0-4.24,4.84-7.1,6.93c-0.89,0.65-3.69,3.24-4.37,4.36
						c0.16,0.75,0.43,1.88,0.49,2.33c0.03,0.2,0.05,0.38,0.07,0.57c5.22-0.06,10.15-1.29,14.55-3.45
						c0.13-2.61-0.32-12.88,4.62-15.06c0.1-0.05,0.22,0.06,0.35,0.29c0,0,0,0,0-0.01C196.53,253.61,196.49,253.5,196.43,253.41z"/>
					<path id="XMLID_234_" class="st29" d="M176.5,269.04L176.5,269.04c-0.8-0.7-3.71-3.71-4.6-4.36c-2.86-2.09-7.1-6.93-7.1-6.93
						l3.77-2.84c0,0-0.01-0.01-0.01-0.01c-0.39-0.03-5.96-0.41-5.3-0.9c0.68-0.51,0.73-1.57,1.7-3.29c0.19-0.34,0.42-0.64,0.67-0.9
						c-2.29,0.84-8.83,3.1-9.13,3.51c5.28,0.27,4.75,12.02,4.85,15c4.6,2.32,9.8,3.64,15.3,3.64c0.14,0,0.27-0.01,0.41-0.01
						c-0.02-0.19-0.05-0.38-0.07-0.57C176.93,270.92,176.65,269.79,176.5,269.04z"/>
					<path id="XMLID_233_" class="st30" d="M164.96,250.7c-0.96,1.73-1.02,2.79-1.7,3.29c-0.66,0.49,4.91,0.88,5.3,0.9
						c0.01,0,0.02,0,0.02,0l-0.01,0.01l-3.77,2.84c0,0,4.24,4.84,7.1,6.93c0.89,0.65,3.8,3.66,4.6,4.36l0,0
						c0.68-1.12,3.48-3.71,4.37-4.36c2.86-2.09,7.1-6.93,7.1-6.93l-3.78-2.85c0,0,6-0.39,5.32-0.9c-0.68-0.51-0.73-1.57-1.7-3.29
						c-0.18-0.32-0.39-0.59-0.61-0.84c-0.22-0.24-0.45-0.45-0.67-0.63c-0.37-0.31-0.72-0.54-0.91-0.71
						c-0.84-0.71-1.32-0.52-1.32-0.52s0.22,0.09,0.42,0.44c0.1,0.17,0.19,0.4,0.24,0.71c0.01,0.05,0.03,0.12,0.05,0.21
						c0.1,0.5,0.18,1.61-1.44,3.9c-1.07,1.51-3.52,5.89-5.24,9.73c-0.96,2.14-1.7,4.12-1.84,5.34c-0.15-1.28-0.98-3.37-2.03-5.62
						c-1.78-3.78-4.22-7.98-5.26-9.46c-1.54-2.18-1.54-3.3-1.45-3.83c0.02-0.13,0.05-0.22,0.06-0.29c0.06-0.35,0.17-0.6,0.28-0.78
						c0.15-0.24,0.31-0.34,0.37-0.36c0.01-0.01,0.02-0.01,0.02-0.01s-0.01,0-0.01,0c-0.04-0.01-0.52-0.15-1.31,0.53
						c-0.15,0.13-0.39,0.3-0.67,0.51c-0.27,0.21-0.57,0.46-0.85,0.77C165.38,250.07,165.15,250.36,164.96,250.7z"/>
					<path id="XMLID_232_" class="st30" d="M156.5,253.32c-0.3-0.02-1.3,4.6-2.31,10.16c2.16,1.9,4.56,3.53,7.16,4.84
						C161.25,265.34,161.77,253.59,156.5,253.32z"/>
					<path id="XMLID_231_" class="st30" d="M196.23,253.43c-4.93,2.18-4.49,12.45-4.62,15.06c2.66-1.31,5.13-2.95,7.34-4.88
						c-0.85-4.74-1.74-8.8-2.37-9.89C196.45,253.49,196.33,253.38,196.23,253.43z"/>
				</g>
			</g>
			<g>
				<g>
					<polygon class="st34" points="242.03,235.28 242.03,246.28 240.27,246.28 240.27,243.6 236.95,243.6 236.95,246.28 
						235.33,246.28 235.33,243.55 231.95,243.55 231.95,246.28 230.29,246.28 230.29,243.55 226.9,243.55 226.9,246.28 
						223.27,246.28 223.27,240.55 227.8,240.55 227.8,235.52 227.08,235.52 227.08,239.83 222.55,239.83 222.55,247 227.62,247 
						227.62,244.15 229.57,244.15 229.57,247 232.67,247 232.67,244.18 234.61,244.18 234.61,247 237.67,247 237.67,244.32 
						239.55,244.32 239.55,247 242.75,247 242.75,235.28 					"/>
				</g>
				<g>
					<path class="st35" d="M266.21,213.2H244.7h-0.56h-7.85h-0.43h-0.37c-0.38,0-0.69,0.31-0.69,0.69v24.45
						c0,0.38,0.31,0.69,0.69,0.69h0.37h0.43h7.85h0.56h21.51c0.38,0,0.69-0.31,0.69-0.69v-24.45
						C266.9,213.5,266.59,213.2,266.21,213.2z"/>
					<rect x="245.88" y="215.51" class="st1" width="18.52" height="5.7"/>
					<rect x="245.88" y="224.6" class="st34" width="2.89" height="2.89"/>
					<rect x="250.58" y="224.6" class="st34" width="2.89" height="2.89"/>
					<rect x="255.28" y="224.6" class="st34" width="2.89" height="2.89"/>
					<rect x="245.88" y="229.21" class="st34" width="2.89" height="2.89"/>
					<rect x="250.58" y="229.21" class="st34" width="2.89" height="2.89"/>
					<rect x="255.28" y="229.21" class="st34" width="2.89" height="2.89"/>
					<rect x="245.88" y="233.83" class="st34" width="2.89" height="2.89"/>
					<rect x="250.58" y="233.83" class="st34" width="2.89" height="2.89"/>
					<rect x="255.28" y="233.83" class="st34" width="2.89" height="2.89"/>
					<rect x="260.49" y="224.6" class="st1" width="3.91" height="2.89"/>
					<rect x="260.49" y="229.21" class="st1" width="3.91" height="2.89"/>
					<rect x="260.49" y="233.83" class="st1" width="3.91" height="2.89"/>
					<path class="st36" d="M243.24,236.01h-5.99c-0.42,0-0.76-0.34-0.76-0.76v-18.8c0-0.42,0.34-0.76,0.76-0.76h5.99
						c0.42,0,0.75,0.34,0.75,0.76v18.8C244,235.67,243.66,236.01,243.24,236.01z"/>
				</g>
				<path class="st34" d="M230.24,213.67v-6.22c0-0.52-0.42-0.94-0.94-0.94h-2.08h-3.76h-0.01c-0.52,0-0.94,0.42-0.94,0.94v27.82
					c0,0.52,0.42,0.94,0.94,0.94h0.01h3.76h2.08c0.52,0,0.94-0.42,0.94-0.94v-6.22c0-0.52-0.42-0.94-0.94-0.94h-1.15
					c-0.52,0-0.94-0.42-0.94-0.94v-11.65c0-0.52,0.42-0.94,0.94-0.94h1.15C229.82,214.6,230.24,214.18,230.24,213.67z"/>
			</g>
			<g>
				<g>
					<polygon class="st34" points="241.03,281.28 241.03,292.28 239.27,292.28 239.27,289.6 235.95,289.6 235.95,292.28 
						234.33,292.28 234.33,289.55 230.95,289.55 230.95,292.28 229.29,292.28 229.29,289.55 225.9,289.55 225.9,292.28 
						222.27,292.28 222.27,286.55 226.8,286.55 226.8,281.52 226.08,281.52 226.08,285.83 221.55,285.83 221.55,293 226.62,293 
						226.62,290.15 228.57,290.15 228.57,293 231.67,293 231.67,290.18 233.61,290.18 233.61,293 236.67,293 236.67,290.32 
						238.55,290.32 238.55,293 241.75,293 241.75,281.28 					"/>
				</g>
				<g>
					<path class="st35" d="M265.21,259.2H243.7h-0.56h-7.85h-0.43h-0.37c-0.38,0-0.69,0.31-0.69,0.69v24.45
						c0,0.38,0.31,0.69,0.69,0.69h0.37h0.43h7.85h0.56h21.51c0.38,0,0.69-0.31,0.69-0.69v-24.45
						C265.9,259.5,265.59,259.2,265.21,259.2z"/>
					<rect x="244.88" y="261.51" class="st1" width="18.52" height="5.7"/>
					<rect x="244.88" y="270.6" class="st34" width="2.89" height="2.89"/>
					<rect x="249.58" y="270.6" class="st34" width="2.89" height="2.89"/>
					<rect x="254.28" y="270.6" class="st34" width="2.89" height="2.89"/>
					<rect x="244.88" y="275.21" class="st34" width="2.89" height="2.89"/>
					<rect x="249.58" y="275.21" class="st34" width="2.89" height="2.89"/>
					<rect x="254.28" y="275.21" class="st34" width="2.89" height="2.89"/>
					<rect x="244.88" y="279.83" class="st34" width="2.89" height="2.89"/>
					<rect x="249.58" y="279.83" class="st34" width="2.89" height="2.89"/>
					<rect x="254.28" y="279.83" class="st34" width="2.89" height="2.89"/>
					<rect x="259.49" y="270.6" class="st1" width="3.91" height="2.89"/>
					<rect x="259.49" y="275.21" class="st1" width="3.91" height="2.89"/>
					<rect x="259.49" y="279.83" class="st1" width="3.91" height="2.89"/>
					<path class="st36" d="M242.24,282.01h-5.99c-0.42,0-0.76-0.34-0.76-0.76v-18.8c0-0.42,0.34-0.76,0.76-0.76h5.99
						c0.42,0,0.75,0.34,0.75,0.76v18.8C243,281.67,242.66,282.01,242.24,282.01z"/>
				</g>
				<path class="st34" d="M229.24,259.67v-6.22c0-0.52-0.42-0.94-0.94-0.94h-2.08h-3.76h-0.01c-0.52,0-0.94,0.42-0.94,0.94v27.82
					c0,0.52,0.42,0.94,0.94,0.94h0.01h3.76h2.08c0.52,0,0.94-0.42,0.94-0.94v-6.22c0-0.52-0.42-0.94-0.94-0.94h-1.15
					c-0.52,0-0.94-0.42-0.94-0.94v-11.65c0-0.52,0.42-0.94,0.94-0.94h1.15C228.82,260.6,229.24,260.18,229.24,259.67z"/>
			</g>
			<line class="st37" x1="217" y1="266" x2="207" y2="262"/>
			<line class="st37" x1="207" y1="226" x2="217" y2="222"/>
		</g>
	</g>
</g>
</svg>
