<?xml version="1.0" encoding="utf-8"?>
<!-- Generator: Adobe Illustrator 23.0.0, SVG Export Plug-In . SVG Version: 6.00 Build 0)  -->
<svg version="1.1" id="Capa_1" xmlns="http://www.w3.org/2000/svg" xmlns:xlink="http://www.w3.org/1999/xlink" x="0px" y="0px"
	 viewBox="0 0 400 689" style="enable-background:new 0 0 400 689;" xml:space="preserve">
<style type="text/css">
	.st0{fill:#E2E2E2;}
	.st1{fill:#FFFFFF;}
	.st2{fill:#CCCDCE;}
	.st3{fill:#F2F2F2;}
	.st4{fill:none;}
	.st5{fill:#0085B0;}
	.st6{fill:#E0EF18;}
	.st7{fill:#CECECE;}
	.st8{fill:#22272F;}
	.st9{fill:#1B2538;}
	.st10{fill:#253452;}
	.st11{fill:#F9F9F9;}
	.st12{fill:#2D3543;}
	.st13{fill:#2A3D60;}
	.st14{fill:#6C92D5;}
	.st15{fill:#587955;}
	.st16{fill:#CD7054;}
	.st17{fill:#F1CC4B;}
	.st18{fill:#DFDFDF;}
	.st19{fill:#ACACAC;}
	.st20{fill:#00D13C;}
	.st21{fill:#866A5E;}
	.st22{fill:#F7DDCB;}
	.st23{fill:#FFE6D4;}
	.st24{fill:#2D2D2D;}
	.st25{fill:#1C1B1A;}
	.st26{fill:#F5F5F5;}
	.st27{fill:#77181C;}
	.st28{fill:#EAEAEA;}
	.st29{fill:#262525;}
	.st30{fill:#11100F;}
	.st31{fill:#FFFFFF;stroke:#000000;stroke-width:6;stroke-miterlimit:10;}
	.st32{fill:#D4D4D4;}
	.st33{fill:#C2C2C2;}
	.st34{fill:#505050;}
	.st35{fill:#53C2C9;}
	.st36{fill:#008B9C;}
	.st37{fill:none;stroke:#00550B;stroke-width:4;stroke-miterlimit:10;}
	.st38{fill:#CE2458;}
	.st39{fill:#155500;}
	.st40{fill:#1549FF;}
	.st41{fill:#606060;stroke:#C6C8CC;stroke-width:6;stroke-miterlimit:10;}
	.st42{fill:#727272;}
	.st43{fill:#207235;}
	.st44{fill:#A3A3A3;}
	.st45{fill:#BCBCBC;}
	.st46{fill:#2A5936;}
	.st47{opacity:0.7;fill:#7F7F7F;}
	.st48{fill:#DAA449;}
	.st49{fill:#85B681;}
	.st50{fill:#A1DC9B;}
	.st51{fill:#90C58B;}
	.st52{fill:#DD9225;}
	.st53{opacity:0.3;}
	.st54{fill:#81C378;}
	.st55{opacity:0.5;}
	.st56{fill:#A2CADE;}
	.st57{fill:#9BAEC9;}
	.st58{fill:#9D2B3B;}
	.st59{fill:#C1D4F2;}
	.st60{fill:#534D46;}
	.st61{fill:#191819;}
	.st62{fill:#222123;}
	.st63{fill:#F3FF00;}
	.st64{fill-rule:evenodd;clip-rule:evenodd;fill:#FFFFFF;}
	.st65{fill-rule:evenodd;clip-rule:evenodd;fill:#1996B8;}
	.st66{fill:none;stroke:#5A605A;stroke-width:4;stroke-miterlimit:10;}
	.st67{fill:#FFB412;}
	.st68{fill:#BACDD1;}
	.st69{fill:#1C4D59;}
	.st70{fill:#A14329;}
	.st71{fill:#FCC083;}
	.st72{fill:#E8AA63;}
	.st73{fill:#D40000;}
	.st74{opacity:0.35;fill:#7D7D7D;}
	.st75{fill:#E5E3E3;}
	.st76{fill:#121F5E;}
	.st77{fill:#A3ADAF;}
	.st78{fill:#C2C6C6;}
	.st79{fill:#E5E5E5;stroke:#FFFFFF;stroke-miterlimit:10;}
	.st80{fill:#ACB4B5;}
	.st81{fill:#7F8384;}
	.st82{fill:#282828;}
	.st83{fill:none;stroke:#46A508;stroke-width:6;stroke-miterlimit:10;}
	.st84{fill:none;stroke:#46A508;stroke-width:6;stroke-miterlimit:10;stroke-dasharray:11.7425,11.7425;}
	.st85{fill:#C89D76;}
	.st86{opacity:0.4;}
	.st87{fill:#ADADAD;}
	.st88{fill:#76A172;}
	.st89{fill:#62835F;}
	.st90{fill:#96D090;}
	.st91{fill:#EDC3A6;}
	.st92{opacity:0.69;}
	.st93{fill:#E5D3D6;}
	.st94{opacity:0.44;}
	.st95{fill:#A5A5A5;}
	.st96{fill:#DDE5E4;}
	.st97{fill:#FDFDFD;}
	.st98{fill:#E0C348;}
	.st99{fill:#606060;}
</style>
<g>
	<g>
		<path class="st5" d="M8.5,199.36c0,22,13.29,27.86,29.54,13.03c0,0,156.99-143.3,353.09,26.97V45c0-22-18-40-40-40H48.5
			c-22,0-40,18-40,40V199.36z"/>
	</g>
	<g>
		<path class="st5" d="M390.66,637c0,22-18,40-40,40H48.98c-22,0-40-18-40-40v-46.27c0-22,18-40,40-40h301.68c22,0,40,18,40,40V637z
			"/>
	</g>
	<g>
		<path d="M96.41,368.46c-0.32-0.33-0.47-0.83-0.47-1.5v-19.81c0-0.68,0.16-1.18,0.47-1.5c0.32-0.33,0.86-0.49,1.63-0.49h8.37
			c3.5,0,6.05,0.69,7.65,2.08c1.6,1.39,2.4,3.48,2.4,6.28c0,2.8-0.8,4.89-2.4,6.26c-1.6,1.38-4.13,2.06-7.61,2.06h-2.1v5.11
			c0,0.68-0.16,1.18-0.47,1.5c-0.32,0.33-0.87,0.49-1.66,0.49h-4.17C97.27,368.95,96.73,368.79,96.41,368.46z M105.67,355.9
			c0.75,0,1.33-0.2,1.77-0.6c0.43-0.4,0.65-0.99,0.65-1.78c0-0.82-0.22-1.42-0.65-1.82c-0.43-0.4-1.02-0.59-1.77-0.59h-2.38v4.79
			H105.67z"/>
		<path d="M119.14,366.24c-2.15-2.16-3.22-5.22-3.22-9.19c0-3.97,1.07-7.03,3.22-9.19c2.15-2.16,5.3-3.24,9.45-3.24
			s7.3,1.08,9.45,3.24c2.15,2.16,3.22,5.22,3.22,9.19c0,3.97-1.07,7.03-3.22,9.19c-2.15,2.16-5.3,3.24-9.45,3.24
			S121.29,368.4,119.14,366.24z M131.88,361.97c0.68-1.08,1.01-2.72,1.01-4.92c0-2.22-0.34-3.86-1.01-4.93s-1.77-1.61-3.29-1.61
			c-1.52,0-2.61,0.54-3.29,1.61s-1.01,2.72-1.01,4.93c0,2.19,0.34,3.83,1.01,4.92s1.77,1.63,3.29,1.63
			C130.11,363.6,131.21,363.05,131.88,361.97z"/>
		<path d="M145.88,368.81c-1.82-0.44-3.29-1.06-4.41-1.86c-0.47-0.33-0.7-0.64-0.7-0.95c0-0.21,0.08-0.43,0.25-0.67l2.03-3.18
			c0.21-0.3,0.42-0.46,0.63-0.46c0.19,0,0.41,0.08,0.67,0.25c0.84,0.51,1.8,0.92,2.89,1.21c1.08,0.29,2.14,0.44,3.17,0.44
			c0.86,0,1.49-0.12,1.87-0.35c0.38-0.23,0.58-0.59,0.58-1.08c0-0.54-0.26-0.97-0.77-1.29c-0.51-0.33-1.4-0.74-2.66-1.22
			c-2.36-0.91-4.21-1.94-5.57-3.1c-1.35-1.16-2.03-2.69-2.03-4.6c0-2.43,0.85-4.25,2.54-5.48s3.97-1.84,6.84-1.84
			c2.01,0,3.72,0.18,5.13,0.53c1.41,0.35,2.64,0.9,3.69,1.64c0.47,0.33,0.7,0.64,0.7,0.95c0,0.21-0.08,0.43-0.25,0.67l-2.03,3.18
			c-0.21,0.33-0.42,0.49-0.63,0.49c-0.14,0-0.36-0.09-0.66-0.28c-0.56-0.37-1.23-0.68-2-0.93c-0.77-0.25-1.6-0.37-2.48-0.37
			c-0.82,0-1.44,0.12-1.86,0.35s-0.63,0.61-0.63,1.12c0,0.42,0.14,0.77,0.44,1.05c0.29,0.28,0.66,0.52,1.1,0.72s1.21,0.52,2.31,0.96
			c1.75,0.7,3.13,1.37,4.13,2.01s1.76,1.41,2.27,2.31c0.51,0.9,0.77,2.04,0.77,3.41c0,2.1-0.79,3.8-2.36,5.09
			c-1.58,1.3-3.93,1.94-7.05,1.94C149.68,369.48,147.7,369.25,145.88,368.81z"/>
		<path d="M163.44,368.46c-0.31-0.33-0.47-0.83-0.47-1.5v-19.81c0-0.68,0.16-1.18,0.47-1.5c0.32-0.33,0.86-0.49,1.63-0.49h4.16
			c0.79,0,1.35,0.16,1.66,0.47c0.32,0.31,0.47,0.82,0.47,1.52v19.81c0,0.68-0.16,1.18-0.47,1.5c-0.31,0.33-0.87,0.49-1.66,0.49
			h-4.16C164.29,368.95,163.75,368.79,163.44,368.46z"/>
		<path d="M174.29,368.46c-0.31-0.33-0.47-0.83-0.47-1.5v-19.81c0-0.68,0.16-1.18,0.47-1.5c0.32-0.33,0.86-0.49,1.63-0.49h10.6
			c2.85,0,4.94,0.61,6.28,1.82s2.01,2.94,2.01,5.18c0,1.05-0.23,1.98-0.68,2.78s-1.06,1.37-1.8,1.7c2.08,0.7,3.12,2.33,3.12,4.9
			c0,2.19-0.78,3.98-2.33,5.35c-1.55,1.38-3.83,2.07-6.84,2.07h-10.36C175.14,368.95,174.6,368.79,174.29,368.46z M184.84,354.15
			c1.07,0,1.61-0.51,1.61-1.54s-0.54-1.54-1.61-1.54h-2.66v3.08H184.84z M185.43,363.04c0.49,0,0.89-0.16,1.19-0.47
			c0.3-0.31,0.46-0.74,0.46-1.28c0-0.56-0.15-0.99-0.44-1.29c-0.29-0.3-0.69-0.46-1.21-0.46h-3.26v3.5H185.43z"/>
		<path d="M197.67,368.46c-0.31-0.33-0.47-0.83-0.47-1.5v-19.81c0-0.68,0.16-1.18,0.47-1.5c0.32-0.33,0.86-0.49,1.63-0.49h4.17
			c0.79,0,1.35,0.16,1.66,0.47c0.31,0.31,0.47,0.82,0.47,1.52v19.81c0,0.68-0.16,1.18-0.47,1.5c-0.31,0.33-0.87,0.49-1.66,0.49
			h-4.17C198.52,368.95,197.98,368.79,197.67,368.46z"/>
		<path d="M208.52,368.46c-0.31-0.33-0.47-0.83-0.47-1.5v-19.81c0-0.68,0.16-1.18,0.47-1.5c0.32-0.33,0.86-0.49,1.63-0.49h4.17
			c0.79,0,1.35,0.16,1.66,0.47c0.31,0.31,0.47,0.82,0.47,1.52V363h8.15c0.75,0,1.25,0.16,1.52,0.47c0.27,0.32,0.4,0.82,0.4,1.52
			v1.96c0,0.7-0.13,1.21-0.4,1.52c-0.27,0.32-0.78,0.47-1.52,0.47h-14.45C209.37,368.95,208.83,368.79,208.52,368.46z"/>
		<path d="M228.05,368.46c-0.32-0.33-0.47-0.83-0.47-1.5v-19.81c0-0.68,0.16-1.18,0.47-1.5c0.32-0.33,0.86-0.49,1.63-0.49h4.17
			c0.79,0,1.35,0.16,1.66,0.47c0.32,0.31,0.47,0.82,0.47,1.52v19.81c0,0.68-0.16,1.18-0.47,1.5c-0.32,0.33-0.87,0.49-1.66,0.49
			h-4.17C228.9,368.95,228.36,368.79,228.05,368.46z"/>
		<path d="M238.9,368.46c-0.32-0.33-0.47-0.83-0.47-1.5v-19.81c0-0.68,0.16-1.18,0.47-1.5c0.32-0.33,0.86-0.49,1.63-0.49h8.05
			c8.24,0,12.35,3.97,12.35,11.9c0,3.92-1.06,6.88-3.17,8.89c-2.11,2.01-5.17,3.01-9.19,3.01h-8.05
			C239.75,368.95,239.21,368.79,238.9,368.46z M248.89,363c1.31,0,2.25-0.43,2.82-1.29c0.57-0.86,0.86-2.42,0.86-4.66
			c0-2.24-0.29-3.79-0.86-4.65c-0.57-0.86-1.51-1.29-2.82-1.29h-2.07V363H248.89z"/>
		<path d="M260.4,368.22c0-0.21,0.06-0.47,0.18-0.77l8.71-20.96c0.21-0.49,0.45-0.83,0.72-1.03c0.27-0.2,0.65-0.3,1.14-0.3h3.81
			c0.49,0,0.87,0.1,1.14,0.3c0.27,0.2,0.51,0.54,0.72,1.03l8.68,20.96c0.12,0.3,0.17,0.56,0.17,0.77c0,0.49-0.26,0.74-0.77,0.74
			h-6.58c-0.72,0-1.18-0.32-1.36-0.95l-0.84-2.59h-6.2l-0.8,2.59c-0.19,0.63-0.64,0.95-1.37,0.95h-6.58
			C260.66,368.95,260.4,368.71,260.4,368.22z M274.4,359.89l-1.36-4.34l-1.37,4.34H274.4z"/>
		<path d="M287.9,368.46c-0.32-0.33-0.47-0.83-0.47-1.5v-19.81c0-0.68,0.16-1.18,0.47-1.5c0.32-0.33,0.86-0.49,1.63-0.49h8.05
			c8.24,0,12.35,3.97,12.35,11.9c0,3.92-1.06,6.88-3.17,8.89c-2.11,2.01-5.17,3.01-9.19,3.01h-8.05
			C288.75,368.95,288.21,368.79,287.9,368.46z M297.89,363c1.31,0,2.25-0.43,2.82-1.29c0.57-0.86,0.86-2.42,0.86-4.66
			c0-2.24-0.29-3.79-0.86-4.65c-0.57-0.86-1.51-1.29-2.82-1.29h-2.07V363H297.89z"/>
		<path d="M21.34,410.46c-0.31-0.33-0.47-0.83-0.47-1.5v-19.81c0-0.68,0.16-1.18,0.47-1.5c0.32-0.33,0.86-0.49,1.63-0.49h8.05
			c8.24,0,12.36,3.97,12.36,11.9c0,3.92-1.06,6.88-3.17,8.89s-5.17,3.01-9.19,3.01h-8.05C22.2,410.95,21.65,410.79,21.34,410.46z
			 M31.33,405c1.31,0,2.25-0.43,2.82-1.29c0.57-0.86,0.86-2.42,0.86-4.66c0-2.24-0.29-3.79-0.86-4.65
			c-0.57-0.86-1.51-1.29-2.82-1.29h-2.06V405H31.33z"/>
		<path d="M45.59,410.46c-0.32-0.33-0.47-0.83-0.47-1.5v-19.81c0-0.68,0.16-1.18,0.47-1.5c0.32-0.33,0.86-0.49,1.63-0.49h14.49
			c0.75,0,1.25,0.16,1.52,0.47c0.27,0.31,0.4,0.82,0.4,1.52v1.96c0,0.7-0.13,1.21-0.4,1.52c-0.27,0.31-0.78,0.47-1.52,0.47h-8.19
			v3.01h5.04c0.75,0,1.25,0.16,1.52,0.47c0.27,0.31,0.4,0.82,0.4,1.52V400c0,0.7-0.13,1.21-0.4,1.52c-0.27,0.32-0.78,0.47-1.52,0.47
			h-5.04V405h8.16c0.75,0,1.25,0.16,1.52,0.47c0.27,0.32,0.4,0.82,0.4,1.52v1.96c0,0.7-0.13,1.21-0.4,1.52
			c-0.27,0.32-0.78,0.47-1.52,0.47H47.22C46.45,410.95,45.91,410.79,45.59,410.46z"/>
		<path d="M76.18,410.46c-0.31-0.33-0.47-0.83-0.47-1.5v-19.81c0-0.68,0.16-1.18,0.47-1.5c0.32-0.33,0.86-0.49,1.63-0.49h8.36
			c3.5,0,6.05,0.69,7.65,2.08c1.6,1.39,2.4,3.48,2.4,6.28c0,2.8-0.8,4.89-2.4,6.26c-1.6,1.38-4.14,2.06-7.61,2.06h-2.1v5.11
			c0,0.68-0.16,1.18-0.47,1.5c-0.31,0.33-0.87,0.49-1.66,0.49h-4.17C77.04,410.95,76.5,410.79,76.18,410.46z M85.44,397.9
			c0.75,0,1.34-0.2,1.77-0.6c0.43-0.4,0.65-0.99,0.65-1.78c0-0.82-0.22-1.42-0.65-1.82s-1.02-0.59-1.77-0.59h-2.38v4.79H85.44z"/>
		<path d="M98.92,408.24c-2.15-2.16-3.22-5.22-3.22-9.19c0-3.97,1.07-7.03,3.22-9.19c2.15-2.16,5.3-3.24,9.45-3.24
			c4.15,0,7.3,1.08,9.45,3.24c2.15,2.16,3.22,5.22,3.22,9.19c0,3.97-1.07,7.03-3.22,9.19c-2.15,2.16-5.3,3.24-9.45,3.24
			C104.21,411.48,101.06,410.4,98.92,408.24z M111.65,403.97c0.68-1.08,1.02-2.72,1.02-4.92c0-2.22-0.34-3.86-1.02-4.93
			c-0.68-1.07-1.77-1.61-3.29-1.61c-1.52,0-2.61,0.54-3.29,1.61c-0.68,1.07-1.01,2.72-1.01,4.93c0,2.19,0.34,3.83,1.01,4.92
			c0.68,1.08,1.77,1.63,3.29,1.63C109.88,405.6,110.98,405.05,111.65,403.97z"/>
		<path d="M123.26,410.46c-0.32-0.33-0.47-0.83-0.47-1.5v-19.84c0-0.68,0.16-1.17,0.47-1.49c0.32-0.32,0.87-0.47,1.66-0.47h3.32
			c0.49,0,0.87,0.06,1.14,0.19c0.27,0.13,0.53,0.38,0.79,0.75l6.33,9.42v-8.36c0-0.68,0.16-1.18,0.47-1.5
			c0.32-0.33,0.86-0.49,1.63-0.49h4.17c0.79,0,1.35,0.16,1.66,0.47c0.32,0.31,0.47,0.82,0.47,1.52v19.84c0,0.68-0.16,1.17-0.47,1.49
			c-0.31,0.32-0.87,0.47-1.66,0.47h-3.33c-0.49,0-0.87-0.06-1.14-0.19c-0.27-0.13-0.53-0.38-0.79-0.75l-6.33-9.42v8.4
			c0,0.68-0.16,1.17-0.47,1.49c-0.32,0.32-0.87,0.47-1.66,0.47h-4.17C124.12,410.95,123.57,410.79,123.26,410.46z"/>
		<path d="M147.83,410.46c-0.31-0.33-0.47-0.83-0.47-1.5v-19.81c0-0.68,0.16-1.18,0.47-1.5c0.32-0.33,0.86-0.49,1.63-0.49h14.49
			c0.75,0,1.25,0.16,1.52,0.47c0.27,0.31,0.4,0.82,0.4,1.52v1.96c0,0.7-0.13,1.21-0.4,1.52c-0.27,0.31-0.78,0.47-1.52,0.47h-8.19
			v3.01h5.04c0.75,0,1.25,0.16,1.52,0.47c0.27,0.31,0.4,0.82,0.4,1.52V400c0,0.7-0.13,1.21-0.4,1.52c-0.27,0.32-0.78,0.47-1.52,0.47
			h-5.04V405h8.16c0.75,0,1.25,0.16,1.52,0.47s0.4,0.82,0.4,1.52v1.96c0,0.7-0.13,1.21-0.4,1.52c-0.27,0.32-0.78,0.47-1.52,0.47
			h-14.45C148.68,410.95,148.14,410.79,147.83,410.46z"/>
		<path d="M167.92,410.46c-0.31-0.33-0.47-0.83-0.47-1.5v-19.81c0-0.68,0.16-1.18,0.47-1.5c0.32-0.33,0.86-0.49,1.63-0.49h8.36
			c3.5,0,6.05,0.69,7.65,2.08c1.6,1.39,2.4,3.48,2.4,6.28c0,1.68-0.29,3.1-0.86,4.25s-1.45,2.06-2.64,2.71l3.25,6.96
			c0.09,0.19,0.14,0.4,0.14,0.63c0,0.26-0.09,0.47-0.26,0.63c-0.17,0.16-0.4,0.25-0.68,0.25h-5.92c-0.37,0-0.67-0.05-0.89-0.16
			c-0.22-0.11-0.38-0.29-0.47-0.54l-2.59-6.51h-1.19v5.21c0,0.68-0.16,1.18-0.47,1.5c-0.31,0.33-0.87,0.49-1.66,0.49h-4.16
			C168.77,410.95,168.23,410.79,167.92,410.46z M177.17,397.9c0.75,0,1.34-0.2,1.77-0.6c0.43-0.4,0.65-0.99,0.65-1.78
			c0-0.82-0.22-1.42-0.65-1.82s-1.02-0.59-1.77-0.59h-2.38v4.79H177.17z"/>
		<path d="M206.24,410.46c-0.31-0.33-0.47-0.83-0.47-1.5V393.1h-5.04c-0.75,0-1.25-0.16-1.52-0.47c-0.27-0.32-0.4-0.82-0.4-1.52
			v-1.96c0-0.7,0.13-1.21,0.4-1.52c0.27-0.32,0.78-0.47,1.52-0.47h18.48c0.75,0,1.25,0.16,1.52,0.47c0.27,0.31,0.4,0.82,0.4,1.52
			v1.96c0,0.7-0.13,1.21-0.4,1.52c-0.27,0.31-0.78,0.47-1.52,0.47h-5.04v15.85c0,0.68-0.16,1.18-0.47,1.5
			c-0.31,0.33-0.87,0.49-1.66,0.49h-4.17C207.1,410.95,206.56,410.79,206.24,410.46z"/>
		<path d="M227.47,410.38c-1.73-0.74-3.07-1.8-4.02-3.19c-0.96-1.39-1.44-3.04-1.44-4.95v-13.09c0-0.68,0.16-1.18,0.47-1.5
			c0.31-0.33,0.86-0.49,1.63-0.49h4.17c0.79,0,1.35,0.16,1.66,0.47c0.31,0.31,0.47,0.82,0.47,1.52v13.19c0,1.1,0.27,1.91,0.82,2.45
			c0.55,0.54,1.3,0.8,2.26,0.8c0.96,0,1.71-0.27,2.26-0.8c0.55-0.54,0.82-1.35,0.82-2.45v-13.19c0-0.68,0.16-1.18,0.47-1.5
			c0.31-0.33,0.86-0.49,1.63-0.49h4.17c0.79,0,1.35,0.16,1.66,0.47c0.31,0.31,0.47,0.82,0.47,1.52v13.09c0,1.91-0.48,3.56-1.43,4.95
			c-0.96,1.39-2.3,2.45-4.03,3.19c-1.73,0.73-3.73,1.1-6.02,1.1C231.2,411.48,229.19,411.11,227.47,410.38z"/>
		<path d="M258.21,410.46c-0.32-0.33-0.47-0.83-0.47-1.5v-19.81c0-0.68,0.16-1.18,0.47-1.5c0.31-0.33,0.86-0.49,1.63-0.49h8.37
			c3.5,0,6.05,0.69,7.65,2.08c1.6,1.39,2.4,3.48,2.4,6.28c0,2.8-0.8,4.89-2.4,6.26s-4.14,2.06-7.61,2.06h-2.1v5.11
			c0,0.68-0.16,1.18-0.47,1.5c-0.32,0.33-0.87,0.49-1.66,0.49h-4.17C259.07,410.95,258.53,410.79,258.21,410.46z M267.47,397.9
			c0.75,0,1.33-0.2,1.77-0.6c0.43-0.4,0.65-0.99,0.65-1.78c0-0.82-0.22-1.42-0.65-1.82c-0.43-0.4-1.02-0.59-1.77-0.59h-2.38v4.79
			H267.47z"/>
		<path d="M279.77,410.46c-0.32-0.33-0.47-0.83-0.47-1.5v-19.81c0-0.68,0.16-1.18,0.47-1.5c0.32-0.33,0.86-0.49,1.63-0.49h8.37
			c3.5,0,6.05,0.69,7.65,2.08c1.6,1.39,2.4,3.48,2.4,6.28c0,1.68-0.29,3.1-0.86,4.25c-0.57,1.16-1.45,2.06-2.64,2.71l3.25,6.96
			c0.09,0.19,0.14,0.4,0.14,0.63c0,0.26-0.09,0.47-0.26,0.63c-0.18,0.16-0.4,0.25-0.68,0.25h-5.91c-0.37,0-0.67-0.05-0.89-0.16
			c-0.22-0.11-0.38-0.29-0.47-0.54l-2.59-6.51h-1.19v5.21c0,0.68-0.16,1.18-0.47,1.5c-0.32,0.33-0.87,0.49-1.66,0.49h-4.17
			C280.63,410.95,280.09,410.79,279.77,410.46z M289.03,397.9c0.75,0,1.33-0.2,1.77-0.6c0.43-0.4,0.65-0.99,0.65-1.78
			c0-0.82-0.22-1.42-0.65-1.82c-0.43-0.4-1.02-0.59-1.77-0.59h-2.38v4.79H289.03z"/>
		<path d="M304.08,408.24c-2.15-2.16-3.22-5.22-3.22-9.19c0-3.97,1.07-7.03,3.22-9.19c2.15-2.16,5.3-3.24,9.45-3.24
			s7.3,1.08,9.45,3.24c2.15,2.16,3.22,5.22,3.22,9.19c0,3.97-1.07,7.03-3.22,9.19c-2.15,2.16-5.3,3.24-9.45,3.24
			S306.23,410.4,304.08,408.24z M316.82,403.97c0.68-1.08,1.01-2.72,1.01-4.92c0-2.22-0.34-3.86-1.01-4.93s-1.77-1.61-3.29-1.61
			c-1.52,0-2.61,0.54-3.29,1.61s-1.01,2.72-1.01,4.93c0,2.19,0.34,3.83,1.01,4.92s1.77,1.63,3.29,1.63
			C315.05,405.6,316.14,405.05,316.82,403.97z"/>
		<path d="M328.42,410.46c-0.31-0.33-0.47-0.83-0.47-1.5v-19.81c0-0.68,0.16-1.18,0.47-1.5c0.32-0.33,0.86-0.49,1.63-0.49h8.36
			c3.5,0,6.05,0.69,7.65,2.08c1.6,1.39,2.4,3.48,2.4,6.28c0,2.8-0.8,4.89-2.4,6.26c-1.6,1.38-4.14,2.06-7.61,2.06h-2.1v5.11
			c0,0.68-0.16,1.18-0.47,1.5c-0.31,0.33-0.87,0.49-1.66,0.49h-4.17C329.28,410.95,328.74,410.79,328.42,410.46z M337.68,397.9
			c0.75,0,1.34-0.2,1.77-0.6c0.43-0.4,0.65-0.99,0.65-1.78c0-0.82-0.22-1.42-0.65-1.82s-1.02-0.59-1.77-0.59h-2.38v4.79H337.68z"/>
		<path d="M349.98,410.46c-0.32-0.33-0.47-0.83-0.47-1.5v-19.81c0-0.68,0.16-1.18,0.47-1.5c0.32-0.33,0.86-0.49,1.63-0.49h4.17
			c0.79,0,1.35,0.16,1.66,0.47c0.32,0.31,0.47,0.82,0.47,1.52v19.81c0,0.68-0.16,1.18-0.47,1.5c-0.32,0.33-0.87,0.49-1.66,0.49
			h-4.17C350.84,410.95,350.3,410.79,349.98,410.46z"/>
		<path d="M362.88,408.24c-2.15-2.16-3.22-5.22-3.22-9.19c0-3.97,1.07-7.03,3.22-9.19c2.15-2.16,5.3-3.24,9.45-3.24
			s7.3,1.08,9.45,3.24c2.15,2.16,3.22,5.22,3.22,9.19c0,3.97-1.07,7.03-3.22,9.19c-2.15,2.16-5.3,3.24-9.45,3.24
			S365.03,410.4,362.88,408.24z M375.62,403.97c0.68-1.08,1.02-2.72,1.02-4.92c0-2.22-0.34-3.86-1.02-4.93s-1.77-1.61-3.29-1.61
			s-2.61,0.54-3.29,1.61s-1.01,2.72-1.01,4.93c0,2.19,0.34,3.83,1.01,4.92s1.77,1.63,3.29,1.63S374.94,405.05,375.62,403.97z"/>
		<path d="M53.97,452.22c0-0.21,0.06-0.47,0.17-0.77l8.71-20.96c0.21-0.49,0.45-0.83,0.72-1.03c0.27-0.2,0.65-0.3,1.14-0.3h3.82
			c0.49,0,0.87,0.1,1.14,0.3c0.27,0.2,0.51,0.54,0.72,1.03l8.68,20.96c0.12,0.3,0.17,0.56,0.17,0.77c0,0.49-0.26,0.74-0.77,0.74
			h-6.58c-0.72,0-1.18-0.32-1.37-0.95l-0.84-2.59h-6.2l-0.8,2.59c-0.19,0.63-0.64,0.95-1.37,0.95h-6.58
			C54.23,452.95,53.97,452.71,53.97,452.22z M67.97,443.89l-1.37-4.34l-1.37,4.34H67.97z"/>
		<path d="M84,452.38c-1.73-0.74-3.07-1.8-4.02-3.19c-0.96-1.39-1.43-3.04-1.43-4.95v-13.09c0-0.68,0.16-1.18,0.47-1.5
			c0.31-0.33,0.86-0.49,1.63-0.49h4.17c0.79,0,1.35,0.16,1.66,0.47c0.31,0.31,0.47,0.82,0.47,1.52v13.19c0,1.1,0.27,1.91,0.82,2.45
			c0.55,0.54,1.3,0.8,2.26,0.8c0.96,0,1.71-0.27,2.26-0.8c0.55-0.54,0.82-1.35,0.82-2.45v-13.19c0-0.68,0.16-1.18,0.47-1.5
			c0.32-0.33,0.86-0.49,1.63-0.49h4.16c0.79,0,1.35,0.16,1.66,0.47c0.32,0.31,0.47,0.82,0.47,1.52v13.09c0,1.91-0.48,3.56-1.43,4.95
			c-0.96,1.39-2.3,2.45-4.03,3.19c-1.73,0.73-3.73,1.1-6.02,1.1S85.73,453.11,84,452.38z"/>
		<path d="M104.25,452.46c-0.32-0.33-0.47-0.83-0.47-1.5v-19.81c0-0.68,0.16-1.18,0.47-1.5c0.31-0.33,0.86-0.49,1.63-0.49h8.05
			c8.24,0,12.35,3.97,12.35,11.9c0,3.92-1.06,6.88-3.17,8.89c-2.11,2.01-5.17,3.01-9.19,3.01h-8.05
			C105.11,452.95,104.57,452.79,104.25,452.46z M114.24,447c1.31,0,2.25-0.43,2.82-1.29s0.86-2.42,0.86-4.66
			c0-2.24-0.29-3.79-0.86-4.65s-1.51-1.29-2.82-1.29h-2.06V447H114.24z"/>
		<path d="M128.51,452.46c-0.31-0.33-0.47-0.83-0.47-1.5v-19.81c0-0.68,0.16-1.18,0.47-1.5c0.32-0.33,0.86-0.49,1.63-0.49h4.16
			c0.79,0,1.35,0.16,1.66,0.47c0.32,0.31,0.47,0.82,0.47,1.52v19.81c0,0.68-0.16,1.18-0.47,1.5c-0.31,0.33-0.87,0.49-1.66,0.49
			h-4.16C129.36,452.95,128.82,452.79,128.51,452.46z"/>
		<path d="M141.4,450.24c-2.15-2.16-3.22-5.22-3.22-9.19c0-3.97,1.07-7.03,3.22-9.19c2.15-2.16,5.3-3.24,9.45-3.24
			s7.3,1.08,9.45,3.24c2.15,2.16,3.22,5.22,3.22,9.19c0,3.97-1.07,7.03-3.22,9.19c-2.15,2.16-5.3,3.24-9.45,3.24
			S143.55,452.4,141.4,450.24z M154.14,445.97c0.68-1.08,1.01-2.72,1.01-4.92c0-2.22-0.34-3.86-1.01-4.93s-1.77-1.61-3.29-1.61
			c-1.52,0-2.61,0.54-3.29,1.61s-1.01,2.72-1.01,4.93c0,2.19,0.34,3.83,1.01,4.92s1.77,1.63,3.29,1.63
			C152.37,447.6,153.47,447.05,154.14,445.97z"/>
		<path d="M178.29,450.24c-2.15-2.16-3.22-5.22-3.22-9.19c0-3.97,1.07-7.03,3.22-9.19c2.15-2.16,5.3-3.24,9.45-3.24
			s7.3,1.08,9.45,3.24c2.15,2.16,3.22,5.22,3.22,9.19c0,3.97-1.07,7.03-3.22,9.19c-2.15,2.16-5.3,3.24-9.45,3.24
			S180.44,452.4,178.29,450.24z M191.03,445.97c0.68-1.08,1.02-2.72,1.02-4.92c0-2.22-0.34-3.86-1.02-4.93s-1.77-1.61-3.29-1.61
			s-2.61,0.54-3.29,1.61s-1.01,2.72-1.01,4.93c0,2.19,0.34,3.83,1.01,4.92s1.77,1.63,3.29,1.63S190.36,447.05,191.03,445.97z"/>
		<path d="M217.11,452.81c-1.82-0.44-3.29-1.06-4.41-1.86c-0.47-0.33-0.7-0.64-0.7-0.95c0-0.21,0.08-0.43,0.25-0.67l2.03-3.18
			c0.21-0.3,0.42-0.46,0.63-0.46c0.19,0,0.41,0.08,0.67,0.25c0.84,0.51,1.8,0.92,2.89,1.21c1.09,0.29,2.14,0.44,3.17,0.44
			c0.86,0,1.49-0.12,1.87-0.35c0.38-0.23,0.58-0.59,0.58-1.08c0-0.54-0.26-0.97-0.77-1.29c-0.51-0.33-1.4-0.74-2.66-1.22
			c-2.36-0.91-4.21-1.94-5.56-3.1c-1.35-1.16-2.03-2.69-2.03-4.6c0-2.43,0.85-4.25,2.54-5.48c1.69-1.23,3.97-1.84,6.84-1.84
			c2.01,0,3.72,0.17,5.13,0.53c1.41,0.35,2.64,0.9,3.69,1.64c0.47,0.33,0.7,0.64,0.7,0.95c0,0.21-0.08,0.43-0.24,0.67l-2.03,3.18
			c-0.21,0.33-0.42,0.49-0.63,0.49c-0.14,0-0.36-0.09-0.67-0.28c-0.56-0.37-1.23-0.68-2-0.93s-1.6-0.37-2.48-0.37
			c-0.82,0-1.44,0.12-1.86,0.35s-0.63,0.61-0.63,1.12c0,0.42,0.15,0.77,0.44,1.05s0.66,0.52,1.1,0.72s1.21,0.52,2.31,0.96
			c1.75,0.7,3.13,1.37,4.13,2.01c1,0.64,1.76,1.41,2.28,2.31c0.51,0.9,0.77,2.04,0.77,3.41c0,2.1-0.79,3.8-2.36,5.09
			c-1.58,1.3-3.93,1.94-7.05,1.94C220.9,453.48,218.93,453.25,217.11,452.81z"/>
		<path d="M231.91,452.22c0-0.21,0.06-0.47,0.18-0.77l8.71-20.96c0.21-0.49,0.45-0.83,0.72-1.03c0.27-0.2,0.65-0.3,1.14-0.3h3.81
			c0.49,0,0.87,0.1,1.14,0.3c0.27,0.2,0.51,0.54,0.72,1.03l8.68,20.96c0.12,0.3,0.17,0.56,0.17,0.77c0,0.49-0.26,0.74-0.77,0.74
			h-6.58c-0.72,0-1.18-0.32-1.36-0.95l-0.84-2.59h-6.2l-0.8,2.59c-0.19,0.63-0.64,0.95-1.37,0.95h-6.58
			C232.17,452.95,231.91,452.71,231.91,452.22z M245.91,443.89l-1.36-4.34l-1.37,4.34H245.91z"/>
		<path d="M259.4,452.46c-0.31-0.33-0.47-0.83-0.47-1.5v-19.81c0-0.68,0.16-1.18,0.47-1.5c0.32-0.33,0.86-0.49,1.63-0.49h4.16
			c0.79,0,1.35,0.16,1.66,0.47c0.32,0.31,0.47,0.82,0.47,1.52V447h8.16c0.75,0,1.25,0.16,1.52,0.47s0.4,0.82,0.4,1.52v1.96
			c0,0.7-0.13,1.21-0.4,1.52c-0.27,0.32-0.78,0.47-1.52,0.47h-14.45C260.26,452.95,259.72,452.79,259.4,452.46z"/>
		<path d="M282.52,452.38c-1.73-0.74-3.07-1.8-4.02-3.19c-0.96-1.39-1.44-3.04-1.44-4.95v-13.09c0-0.68,0.16-1.18,0.47-1.5
			c0.31-0.33,0.86-0.49,1.63-0.49h4.17c0.79,0,1.35,0.16,1.66,0.47c0.31,0.31,0.47,0.82,0.47,1.52v13.19c0,1.1,0.27,1.91,0.82,2.45
			c0.55,0.54,1.3,0.8,2.26,0.8c0.96,0,1.71-0.27,2.26-0.8c0.55-0.54,0.82-1.35,0.82-2.45v-13.19c0-0.68,0.16-1.18,0.47-1.5
			c0.31-0.33,0.86-0.49,1.63-0.49h4.17c0.79,0,1.35,0.16,1.66,0.47c0.31,0.31,0.47,0.82,0.47,1.52v13.09c0,1.91-0.48,3.56-1.43,4.95
			c-0.96,1.39-2.3,2.45-4.03,3.19c-1.73,0.73-3.73,1.1-6.02,1.1C286.26,453.48,284.25,453.11,282.52,452.38z"/>
		<path d="M302.77,452.46c-0.31-0.33-0.47-0.83-0.47-1.5v-19.81c0-0.68,0.16-1.18,0.47-1.5c0.32-0.33,0.86-0.49,1.63-0.49h8.05
			c8.24,0,12.36,3.97,12.36,11.9c0,3.92-1.06,6.88-3.17,8.89s-5.17,3.01-9.19,3.01h-8.05C303.63,452.95,303.08,452.79,302.77,452.46
			z M312.76,447c1.31,0,2.25-0.43,2.82-1.29c0.57-0.86,0.86-2.42,0.86-4.66c0-2.24-0.29-3.79-0.86-4.65
			c-0.57-0.86-1.51-1.29-2.82-1.29h-2.06V447H312.76z"/>
		<path d="M329.07,450.24c-2.15-2.16-3.22-5.22-3.22-9.19c0-3.97,1.07-7.03,3.22-9.19c2.15-2.16,5.3-3.24,9.45-3.24
			c4.15,0,7.3,1.08,9.45,3.24c2.15,2.16,3.22,5.22,3.22,9.19c0,3.97-1.07,7.03-3.22,9.19c-2.15,2.16-5.3,3.24-9.45,3.24
			C334.37,453.48,331.22,452.4,329.07,450.24z M341.81,445.97c0.68-1.08,1.01-2.72,1.01-4.92c0-2.22-0.34-3.86-1.01-4.93
			c-0.68-1.07-1.77-1.61-3.29-1.61c-1.52,0-2.61,0.54-3.29,1.61c-0.68,1.07-1.02,2.72-1.02,4.93c0,2.19,0.34,3.83,1.02,4.92
			c0.68,1.08,1.77,1.63,3.29,1.63C340.04,447.6,341.13,447.05,341.81,445.97z"/>
		<path d="M90.3,492.34c-2.36-2.09-3.54-5.19-3.54-9.29c0-4.13,1.14-7.23,3.41-9.31c2.27-2.08,5.52-3.12,9.75-3.12
			c1.91,0,3.62,0.19,5.11,0.56c1.49,0.37,2.74,0.9,3.74,1.57c0.28,0.21,0.42,0.44,0.42,0.7c0,0.21-0.1,0.5-0.31,0.88l-1.75,3.01
			c-0.19,0.33-0.41,0.49-0.67,0.49c-0.16,0-0.43-0.09-0.81-0.28c-0.65-0.33-1.34-0.58-2.05-0.77c-0.71-0.19-1.55-0.28-2.5-0.28
			c-1.94,0-3.42,0.56-4.45,1.68c-1.03,1.12-1.54,2.74-1.54,4.86c0,2.1,0.56,3.72,1.68,4.85c1.12,1.13,2.65,1.7,4.58,1.7
			c1.68,0,3.22-0.35,4.62-1.05c0.37-0.19,0.64-0.28,0.81-0.28c0.26,0,0.48,0.16,0.66,0.49l1.75,3.01c0.21,0.37,0.32,0.67,0.32,0.88
			c0,0.26-0.14,0.49-0.42,0.7c-1,0.68-2.26,1.2-3.78,1.58c-1.52,0.37-3.23,0.56-5.14,0.56C95.96,495.48,92.66,494.43,90.3,492.34z"
			/>
		<path d="M112.25,492.24c-2.15-2.16-3.22-5.22-3.22-9.19c0-3.97,1.07-7.03,3.22-9.19c2.15-2.16,5.3-3.24,9.45-3.24
			c4.15,0,7.3,1.08,9.45,3.24c2.15,2.16,3.22,5.22,3.22,9.19c0,3.97-1.07,7.03-3.22,9.19c-2.15,2.16-5.3,3.24-9.45,3.24
			C117.54,495.48,114.4,494.4,112.25,492.24z M124.99,487.97c0.68-1.08,1.02-2.72,1.02-4.92c0-2.22-0.34-3.86-1.02-4.93
			c-0.68-1.07-1.77-1.61-3.29-1.61c-1.52,0-2.61,0.54-3.29,1.61c-0.68,1.07-1.01,2.72-1.01,4.93c0,2.19,0.34,3.83,1.01,4.92
			c0.68,1.08,1.77,1.63,3.29,1.63C123.21,489.6,124.31,489.05,124.99,487.97z"/>
		<path d="M136.59,494.46c-0.32-0.33-0.47-0.83-0.47-1.5v-19.81c0-0.68,0.16-1.18,0.47-1.5c0.32-0.33,0.86-0.49,1.63-0.49h8.37
			c3.5,0,6.05,0.69,7.65,2.08c1.6,1.39,2.4,3.48,2.4,6.28c0,1.68-0.29,3.1-0.86,4.25c-0.57,1.16-1.45,2.06-2.64,2.71l3.25,6.96
			c0.09,0.19,0.14,0.4,0.14,0.63c0,0.26-0.09,0.47-0.26,0.63c-0.18,0.16-0.4,0.25-0.68,0.25h-5.91c-0.37,0-0.67-0.05-0.89-0.16
			c-0.22-0.11-0.38-0.29-0.47-0.54l-2.59-6.51h-1.19v5.21c0,0.68-0.16,1.18-0.47,1.5c-0.32,0.33-0.87,0.49-1.66,0.49h-4.17
			C137.45,494.95,136.91,494.79,136.59,494.46z M145.85,481.9c0.75,0,1.33-0.2,1.77-0.6c0.43-0.4,0.65-0.99,0.65-1.78
			c0-0.82-0.22-1.42-0.65-1.82c-0.43-0.4-1.02-0.59-1.77-0.59h-2.38v4.79H145.85z"/>
		<path d="M158.85,494.46c-0.32-0.33-0.47-0.83-0.47-1.5v-19.81c0-0.68,0.16-1.18,0.47-1.5c0.32-0.33,0.86-0.49,1.63-0.49h8.37
			c3.5,0,6.05,0.69,7.65,2.08c1.6,1.39,2.4,3.48,2.4,6.28c0,2.8-0.8,4.89-2.4,6.26c-1.6,1.38-4.13,2.06-7.61,2.06h-2.1v5.11
			c0,0.68-0.16,1.18-0.47,1.5c-0.32,0.33-0.87,0.49-1.66,0.49h-4.17C159.71,494.95,159.17,494.79,158.85,494.46z M168.11,481.9
			c0.75,0,1.33-0.2,1.77-0.6c0.43-0.4,0.65-0.99,0.65-1.78c0-0.82-0.22-1.42-0.65-1.82c-0.43-0.4-1.02-0.59-1.77-0.59h-2.38v4.79
			H168.11z"/>
		<path d="M181.58,492.24c-2.15-2.16-3.22-5.22-3.22-9.19c0-3.97,1.07-7.03,3.22-9.19c2.15-2.16,5.3-3.24,9.45-3.24
			s7.3,1.08,9.45,3.24c2.15,2.16,3.22,5.22,3.22,9.19c0,3.97-1.07,7.03-3.22,9.19c-2.15,2.16-5.3,3.24-9.45,3.24
			S183.73,494.4,181.58,492.24z M194.32,487.97c0.68-1.08,1.01-2.72,1.01-4.92c0-2.22-0.34-3.86-1.01-4.93s-1.77-1.61-3.29-1.61
			c-1.52,0-2.61,0.54-3.29,1.61s-1.01,2.72-1.01,4.93c0,2.19,0.34,3.83,1.01,4.92s1.77,1.63,3.29,1.63
			C192.55,489.6,193.65,489.05,194.32,487.97z"/>
		<path d="M205.93,494.46c-0.32-0.33-0.47-0.83-0.47-1.5v-19.81c0-0.68,0.16-1.18,0.47-1.5c0.31-0.33,0.86-0.49,1.63-0.49h8.37
			c3.5,0,6.05,0.69,7.65,2.08c1.6,1.39,2.4,3.48,2.4,6.28c0,1.68-0.29,3.1-0.86,4.25s-1.45,2.06-2.64,2.71l3.26,6.96
			c0.09,0.19,0.14,0.4,0.14,0.63c0,0.26-0.09,0.47-0.26,0.63c-0.18,0.16-0.4,0.25-0.68,0.25H219c-0.37,0-0.67-0.05-0.89-0.16
			c-0.22-0.11-0.38-0.29-0.47-0.54l-2.59-6.51h-1.19v5.21c0,0.68-0.16,1.18-0.47,1.5c-0.32,0.33-0.87,0.49-1.66,0.49h-4.17
			C206.78,494.95,206.24,494.79,205.93,494.46z M215.18,481.9c0.75,0,1.33-0.2,1.77-0.6c0.43-0.4,0.65-0.99,0.65-1.78
			c0-0.82-0.22-1.42-0.65-1.82c-0.43-0.4-1.02-0.59-1.77-0.59h-2.38v4.79H215.18z"/>
		<path d="M225.44,494.22c0-0.21,0.06-0.47,0.18-0.77l8.71-20.96c0.21-0.49,0.45-0.83,0.72-1.03c0.27-0.2,0.65-0.3,1.14-0.3H240
			c0.49,0,0.87,0.1,1.14,0.3c0.27,0.2,0.51,0.54,0.72,1.03l8.68,20.96c0.12,0.3,0.17,0.56,0.17,0.77c0,0.49-0.26,0.74-0.77,0.74
			h-6.58c-0.72,0-1.18-0.32-1.37-0.95l-0.84-2.59h-6.2l-0.8,2.59c-0.19,0.63-0.64,0.95-1.37,0.95h-6.58
			C225.69,494.95,225.44,494.71,225.44,494.22z M239.44,485.89l-1.37-4.34l-1.37,4.34H239.44z"/>
		<path d="M254.12,494.46c-0.32-0.33-0.47-0.83-0.47-1.5V477.1h-5.04c-0.75,0-1.25-0.16-1.52-0.47c-0.27-0.32-0.4-0.82-0.4-1.52
			v-1.96c0-0.7,0.13-1.21,0.4-1.52c0.27-0.32,0.78-0.47,1.52-0.47h18.48c0.75,0,1.25,0.16,1.52,0.47c0.27,0.31,0.4,0.82,0.4,1.52
			v1.96c0,0.7-0.13,1.21-0.4,1.52c-0.27,0.31-0.78,0.47-1.52,0.47h-5.04v15.85c0,0.68-0.16,1.18-0.47,1.5
			c-0.32,0.33-0.87,0.49-1.66,0.49h-4.17C254.98,494.95,254.44,494.79,254.12,494.46z"/>
		<path d="M270.54,494.46c-0.32-0.33-0.47-0.83-0.47-1.5v-19.81c0-0.68,0.16-1.18,0.47-1.5c0.31-0.33,0.86-0.49,1.63-0.49h4.17
			c0.79,0,1.35,0.16,1.66,0.47c0.31,0.31,0.47,0.82,0.47,1.52v19.81c0,0.68-0.16,1.18-0.47,1.5c-0.32,0.33-0.87,0.49-1.66,0.49
			h-4.17C271.39,494.95,270.85,494.79,270.54,494.46z"/>
		<path d="M289.44,494.65c-0.27-0.2-0.5-0.54-0.68-1.03l-8.36-20.96c-0.12-0.3-0.17-0.56-0.17-0.77c0-0.49,0.26-0.73,0.77-0.73h6.58
			c0.72,0,1.18,0.31,1.37,0.94l3.57,11.41l3.57-11.41c0.19-0.63,0.64-0.94,1.37-0.94h6.58c0.51,0,0.77,0.25,0.77,0.73
			c0,0.21-0.06,0.47-0.18,0.77l-8.33,20.96c-0.19,0.49-0.41,0.83-0.68,1.03c-0.27,0.2-0.66,0.3-1.17,0.3h-3.81
			C290.09,494.95,289.7,494.85,289.44,494.65z"/>
		<path d="M306.78,492.24c-2.15-2.16-3.22-5.22-3.22-9.19c0-3.97,1.07-7.03,3.22-9.19c2.15-2.16,5.3-3.24,9.45-3.24
			s7.3,1.08,9.45,3.24c2.15,2.16,3.22,5.22,3.22,9.19c0,3.97-1.07,7.03-3.22,9.19c-2.15,2.16-5.3,3.24-9.45,3.24
			S308.92,494.4,306.78,492.24z M319.52,487.97c0.68-1.08,1.02-2.72,1.02-4.92c0-2.22-0.34-3.86-1.02-4.93s-1.77-1.61-3.29-1.61
			s-2.61,0.54-3.29,1.61s-1.01,2.72-1.01,4.93c0,2.19,0.34,3.83,1.01,4.92s1.77,1.63,3.29,1.63S318.84,489.05,319.52,487.97z"/>
	</g>
	<polygon class="st6" points="199.76,86.93 213.23,114.22 243.34,118.59 221.55,139.83 226.7,169.83 199.76,155.67 172.83,169.83 
		177.97,139.83 156.18,118.59 186.29,114.22 	"/>
	<polygon class="st6" points="137.58,170.15 146.32,187.86 165.86,190.7 151.72,204.48 155.06,223.94 137.58,214.75 120.11,223.94 
		123.45,204.48 109.31,190.7 128.85,187.86 	"/>
	<polygon class="st6" points="267.68,170.15 276.42,187.86 295.95,190.7 281.82,204.48 285.15,223.94 267.68,214.75 250.2,223.94 
		253.54,204.48 239.4,190.7 258.94,187.86 	"/>
	<circle class="st7" cx="200.77" cy="203.97" r="121.96"/>
	<circle class="st1" cx="199.82" cy="190.58" r="121.96"/>
	<g>
		<path class="st1" d="M182.41,633.85c-3.55-0.92-6.5-2.21-8.83-3.87c-0.58-0.44-0.88-0.92-0.88-1.46c0-0.44,0.22-1.05,0.66-1.83
			l3.65-6.28c0.44-0.73,0.9-1.1,1.39-1.1c0.24,0,0.8,0.22,1.68,0.66c3.55,2,7.69,2.99,12.41,2.99c2.38,0,4.26-0.51,5.62-1.53
			c1.36-1.02,2.04-2.53,2.04-4.53c0-3.89-2.09-5.84-6.28-5.84c-1.31,0-2.67,0.11-4.05,0.33c-1.39,0.22-2.54,0.5-3.47,0.84
			c-1.41,0.49-2.92,0.73-4.53,0.73c-2.24,0-4.05-0.54-5.44-1.61c-1.39-1.07-2.01-2.68-1.86-4.82l1.17-18.4
			c0.1-1.26,0.44-2.19,1.02-2.77s1.63-0.88,3.14-0.88h31.17c1.56,0,2.62,0.33,3.18,0.99c0.56,0.66,0.84,1.71,0.84,3.18v4.16
			c0,1.46-0.28,2.52-0.84,3.18c-0.56,0.66-1.62,0.99-3.18,0.99h-21.32l-0.22,3.5c0.78-0.19,1.93-0.35,3.47-0.47
			c1.53-0.12,2.76-0.18,3.69-0.18c6.67,0,11.83,1.3,15.48,3.91s5.48,7,5.48,13.18c0,3.8-1.04,7.08-3.1,9.85s-4.92,4.88-8.54,6.31
			c-3.63,1.43-7.73,2.15-12.3,2.15C189.71,635.24,185.96,634.77,182.41,633.85z"/>
	</g>
	<path class="st36" d="M173.46,220.39l-2.49-98.76l10.86,6.85c11.83,7.33,17.1,12.85,20.31,22.97c1.88,5.93,2.92,12.61,2.98,19.6
		l0.33,49.33H173.46z"/>
	<circle class="st75" cx="200.56" cy="185.52" r="68.48"/>
	<path class="st73" d="M211.44,205.07H190.1c-1.66,0-3.01-1.36-3.01-3.01v-64.98c0-1.66,1.36-3.01,3.01-3.01h21.34
		c1.66,0,3.01,1.36,3.01,3.01v64.98C214.45,203.71,213.09,205.07,211.44,205.07z"/>
	<path class="st73" d="M218.96,201.07c0,5.12-8.31,9.31-18.46,9.31s-18.46-4.19-18.46-9.31v-13.43H177v14.4
		c0,6.52,10.57,11.85,23.5,11.85s23.5-5.33,23.5-11.85v-14.4h-5.04V201.07z"/>
	<rect x="198.53" y="212.12" class="st73" width="4.23" height="19.19"/>
	<rect x="187.09" y="229.39" class="st73" width="27.36" height="4.58"/>
</g>
</svg>
