<?xml version="1.0" encoding="utf-8"?>
<!-- Generator: Adobe Illustrator 23.0.0, SVG Export Plug-In . SVG Version: 6.00 Build 0)  -->
<svg version="1.1" id="Capa_1" xmlns="http://www.w3.org/2000/svg" xmlns:xlink="http://www.w3.org/1999/xlink" x="0px" y="0px"
	 viewBox="0 0 400 689" style="enable-background:new 0 0 400 689;" xml:space="preserve">
<style type="text/css">
	.st0{fill:#E2E2E2;}
	.st1{fill:#FFFFFF;}
	.st2{fill:#CCCDCE;}
	.st3{fill:#F2F2F2;}
	.st4{fill:none;}
	.st5{fill:#0085B0;}
	.st6{fill:#E0EF18;}
	.st7{fill:#CECECE;}
	.st8{fill:#22272F;}
	.st9{fill:#1B2538;}
	.st10{fill:#253452;}
	.st11{fill:#F9F9F9;}
	.st12{fill:#2D3543;}
	.st13{fill:#2A3D60;}
	.st14{fill:#6C92D5;}
	.st15{fill:#587955;}
	.st16{fill:#CD7054;}
	.st17{fill:#F1CC4B;}
	.st18{fill:#DFDFDF;}
	.st19{fill:#ACACAC;}
	.st20{fill:#00D13C;}
	.st21{fill:#866A5E;}
	.st22{fill:#F7DDCB;}
	.st23{fill:#FFE6D4;}
	.st24{fill:#2D2D2D;}
	.st25{fill:#1C1B1A;}
	.st26{fill:#F5F5F5;}
	.st27{fill:#77181C;}
	.st28{fill:#EAEAEA;}
	.st29{fill:#262525;}
	.st30{fill:#11100F;}
	.st31{fill:#FFFFFF;stroke:#000000;stroke-width:6;stroke-miterlimit:10;}
	.st32{fill:#D4D4D4;}
	.st33{fill:#C2C2C2;}
	.st34{fill:#505050;}
	.st35{fill:#53C2C9;}
	.st36{fill:#008B9C;}
	.st37{fill:none;stroke:#00550B;stroke-width:4;stroke-miterlimit:10;}
	.st38{fill:#CE2458;}
	.st39{fill:#155500;}
	.st40{fill:#1549FF;}
	.st41{fill:#606060;stroke:#C6C8CC;stroke-width:6;stroke-miterlimit:10;}
	.st42{fill:#727272;}
	.st43{fill:#207235;}
	.st44{fill:#A3A3A3;}
	.st45{fill:#BCBCBC;}
	.st46{fill:#2A5936;}
	.st47{opacity:0.7;fill:#7F7F7F;}
	.st48{fill:#DAA449;}
	.st49{fill:#85B681;}
	.st50{fill:#A1DC9B;}
	.st51{fill:#90C58B;}
	.st52{fill:#DD9225;}
	.st53{opacity:0.3;}
	.st54{fill:#81C378;}
	.st55{opacity:0.5;}
	.st56{fill:#A2CADE;}
	.st57{fill:#9BAEC9;}
	.st58{fill:#9D2B3B;}
	.st59{fill:#C1D4F2;}
	.st60{fill:#534D46;}
	.st61{fill:#191819;}
	.st62{fill:#222123;}
	.st63{fill:#F3FF00;}
	.st64{fill-rule:evenodd;clip-rule:evenodd;fill:#FFFFFF;}
	.st65{fill-rule:evenodd;clip-rule:evenodd;fill:#1996B8;}
	.st66{fill:none;stroke:#5A605A;stroke-width:4;stroke-miterlimit:10;}
	.st67{fill:#FFB412;}
	.st68{fill:#BACDD1;}
	.st69{fill:#1C4D59;}
	.st70{fill:#A14329;}
	.st71{fill:#FCC083;}
	.st72{fill:#E8AA63;}
	.st73{fill:#D40000;}
	.st74{opacity:0.35;fill:#7D7D7D;}
	.st75{fill:#E5E3E3;}
	.st76{fill:#121F5E;}
	.st77{fill:#A3ADAF;}
	.st78{fill:#C2C6C6;}
	.st79{fill:#E5E5E5;stroke:#FFFFFF;stroke-miterlimit:10;}
	.st80{fill:#ACB4B5;}
	.st81{fill:#7F8384;}
	.st82{fill:#282828;}
	.st83{fill:none;stroke:#46A508;stroke-width:6;stroke-miterlimit:10;}
	.st84{fill:none;stroke:#46A508;stroke-width:6;stroke-miterlimit:10;stroke-dasharray:11.7425,11.7425;}
	.st85{fill:#C89D76;}
	.st86{opacity:0.4;}
	.st87{fill:#ADADAD;}
	.st88{fill:#76A172;}
	.st89{fill:#62835F;}
	.st90{fill:#96D090;}
	.st91{fill:#EDC3A6;}
	.st92{opacity:0.69;}
	.st93{fill:#E5D3D6;}
	.st94{opacity:0.44;}
	.st95{fill:#A5A5A5;}
	.st96{fill:#DDE5E4;}
	.st97{fill:#FDFDFD;}
	.st98{fill:#E0C348;}
	.st99{fill:#606060;}
</style>
<g>
	<g>
		<path class="st20" d="M8.5,199.36c0,22,13.29,27.86,29.54,13.03c0,0,156.99-143.3,353.09,26.97V45c0-22-18-40-40-40H48.5
			c-22,0-40,18-40,40V199.36z"/>
	</g>
	<g>
		<path class="st20" d="M390.66,637c0,22-18,40-40,40H48.98c-22,0-40-18-40-40v-46.27c0-22,18-40,40-40h301.68c22,0,40,18,40,40V637
			z"/>
	</g>
	<g>
		<path d="M105.12,383.36c-0.38-0.39-0.57-0.99-0.57-1.81v-23.77c0-0.81,0.19-1.41,0.57-1.81s1.03-0.59,1.95-0.59h10.04
			c4.2,0,7.26,0.83,9.18,2.5c1.92,1.67,2.88,4.18,2.88,7.54c0,3.36-0.96,5.87-2.88,7.52c-1.92,1.65-4.96,2.48-9.14,2.48h-2.52v6.13
			c0,0.81-0.19,1.41-0.57,1.81c-0.38,0.39-1.04,0.59-2,0.59h-5C106.14,383.95,105.49,383.76,105.12,383.36z M116.22,368.29
			c0.9,0,1.6-0.24,2.12-0.71c0.52-0.48,0.78-1.19,0.78-2.14c0-0.98-0.26-1.71-0.78-2.18c-0.52-0.48-1.23-0.71-2.12-0.71h-2.86v5.75
			H116.22z"/>
		<path d="M130.99,383.36c-0.38-0.39-0.57-0.99-0.57-1.81v-23.77c0-0.81,0.19-1.41,0.57-1.81s1.03-0.59,1.95-0.59h17.39
			c0.9,0,1.5,0.19,1.83,0.57c0.32,0.38,0.48,0.99,0.48,1.83v2.35c0,0.84-0.16,1.45-0.48,1.83c-0.32,0.38-0.93,0.57-1.83,0.57h-9.83
			v3.61h6.05c0.9,0,1.5,0.19,1.83,0.57c0.32,0.38,0.48,0.99,0.48,1.83v2.27c0,0.84-0.16,1.45-0.48,1.83
			c-0.32,0.38-0.93,0.57-1.83,0.57h-6.05v3.61h9.79c0.9,0,1.5,0.19,1.83,0.57c0.32,0.38,0.48,0.99,0.48,1.83v2.35
			c0,0.84-0.16,1.45-0.48,1.83c-0.32,0.38-0.93,0.57-1.83,0.57h-17.35C132.02,383.95,131.37,383.76,130.99,383.36z"/>
		<path d="M166.81,389.52c-1.78-1.36-2.88-3.12-3.3-5.27c-3.72-0.62-6.54-2.18-8.44-4.68c-1.9-2.51-2.86-5.8-2.86-9.89
			c0-4.76,1.29-8.43,3.86-11.03c2.58-2.59,6.36-3.88,11.34-3.88c4.98,0,8.76,1.3,11.34,3.88c2.58,2.59,3.86,6.27,3.86,11.03
			c0,4.17-1.02,7.48-3.04,9.91c-2.03,2.44-5.06,3.95-9.09,4.54c0.22,0.45,0.63,0.78,1.22,1.01c0.59,0.22,1.2,0.34,1.85,0.34
			c1.29,0,2.37-0.29,3.23-0.88c0.25-0.17,0.45-0.25,0.59-0.25c0.22,0,0.39,0.13,0.5,0.38l2.27,3.57c0.14,0.22,0.21,0.39,0.21,0.5
			c0,0.11-0.05,0.22-0.15,0.34c-0.1,0.11-0.22,0.24-0.36,0.38c-0.81,0.67-1.72,1.18-2.71,1.53c-0.99,0.35-2.19,0.52-3.59,0.52
			C170.84,391.55,168.59,390.88,166.81,389.52z M171.37,375.57c0.81-1.3,1.22-3.27,1.22-5.9c0-2.66-0.41-4.63-1.22-5.92
			c-0.81-1.29-2.13-1.93-3.95-1.93c-1.82,0-3.14,0.64-3.95,1.93c-0.81,1.29-1.22,3.26-1.22,5.92c0,2.63,0.41,4.6,1.22,5.9
			c0.81,1.3,2.13,1.95,3.95,1.95C169.24,377.53,170.56,376.88,171.37,375.57z"/>
		<path d="M191.07,383.26c-2.07-0.88-3.68-2.16-4.83-3.82c-1.15-1.67-1.72-3.65-1.72-5.94v-15.71c0-0.81,0.19-1.41,0.57-1.81
			s1.03-0.59,1.95-0.59h5c0.95,0,1.62,0.19,2,0.57s0.57,0.99,0.57,1.83v15.83c0,1.32,0.33,2.3,0.99,2.94
			c0.66,0.64,1.56,0.97,2.71,0.97c1.15,0,2.05-0.32,2.71-0.97c0.66-0.64,0.99-1.62,0.99-2.94v-15.83c0-0.81,0.19-1.41,0.57-1.81
			s1.03-0.59,1.95-0.59h5c0.95,0,1.62,0.19,2,0.57s0.57,0.99,0.57,1.83v15.71c0,2.3-0.57,4.28-1.72,5.94
			c-1.15,1.67-2.76,2.94-4.83,3.82c-2.07,0.88-4.48,1.32-7.22,1.32C195.55,384.58,193.14,384.14,191.07,383.26z"/>
		<path d="M215.37,383.36c-0.38-0.39-0.57-0.99-0.57-1.81v-23.77c0-0.81,0.19-1.41,0.57-1.81s1.03-0.59,1.95-0.59h17.39
			c0.9,0,1.5,0.19,1.83,0.57c0.32,0.38,0.48,0.99,0.48,1.83v2.35c0,0.84-0.16,1.45-0.48,1.83c-0.32,0.38-0.93,0.57-1.83,0.57h-9.83
			v3.61h6.05c0.9,0,1.5,0.19,1.83,0.57c0.32,0.38,0.48,0.99,0.48,1.83v2.27c0,0.84-0.16,1.45-0.48,1.83
			c-0.32,0.38-0.93,0.57-1.83,0.57h-6.05v3.61h9.79c0.9,0,1.5,0.19,1.83,0.57c0.32,0.38,0.48,0.99,0.48,1.83v2.35
			c0,0.84-0.16,1.45-0.48,1.83c-0.32,0.38-0.93,0.57-1.83,0.57h-17.35C216.39,383.95,215.74,383.76,215.37,383.36z"/>
		<path d="M239.47,383.36c-0.38-0.39-0.57-0.99-0.57-1.81v-23.81c0-0.81,0.19-1.41,0.57-1.79s1.04-0.57,2-0.57h3.99
			c0.59,0,1.04,0.08,1.37,0.23c0.32,0.15,0.64,0.46,0.94,0.9l7.6,11.3v-10.04c0-0.81,0.19-1.41,0.57-1.81s1.03-0.59,1.95-0.59h5
			c0.95,0,1.62,0.19,1.99,0.57c0.38,0.38,0.57,0.99,0.57,1.83v23.81c0,0.81-0.19,1.41-0.57,1.78c-0.38,0.38-1.04,0.57-1.99,0.57
			h-3.99c-0.59,0-1.04-0.08-1.36-0.23c-0.32-0.15-0.64-0.45-0.95-0.9l-7.6-11.3v10.08c0,0.81-0.19,1.41-0.57,1.78s-1.04,0.57-2,0.57
			h-5C240.5,383.95,239.85,383.76,239.47,383.36z M254.28,353.06c-0.5-0.18-1.12-0.47-1.85-0.86c-0.7-0.34-1.24-0.57-1.62-0.71
			s-0.78-0.21-1.2-0.21c-0.48,0-0.89,0.1-1.24,0.29c-0.35,0.2-0.73,0.56-1.15,1.09c-0.28,0.36-0.63,0.55-1.05,0.55
			c-0.53,0-1.39-0.43-2.56-1.3c-0.59-0.45-1.01-0.82-1.26-1.11s-0.38-0.59-0.38-0.9c0-0.39,0.21-0.88,0.63-1.47
			c0.95-1.37,1.84-2.36,2.67-2.96c0.83-0.6,1.84-0.9,3.04-0.9c0.84,0,1.57,0.11,2.18,0.34c0.62,0.22,1.3,0.53,2.06,0.92
			c0.56,0.28,1,0.48,1.32,0.61c0.32,0.13,0.65,0.19,0.99,0.19c0.45,0,0.82-0.1,1.11-0.29c0.29-0.2,0.67-0.56,1.11-1.09
			c0.28-0.36,0.63-0.55,1.05-0.55c0.53,0,1.39,0.44,2.56,1.3c0.56,0.39,0.96,0.75,1.2,1.07c0.24,0.32,0.36,0.65,0.36,0.99
			c0,0.36-0.21,0.87-0.63,1.51c-0.92,1.37-1.8,2.34-2.63,2.92c-0.83,0.57-1.85,0.86-3.09,0.86
			C255.33,353.33,254.78,353.24,254.28,353.06z"/>
		<path d="M271.41,380.7c-2.58-2.59-3.86-6.26-3.86-11.03c0-4.76,1.29-8.43,3.86-11.03c2.58-2.59,6.36-3.88,11.34-3.88
			c4.98,0,8.76,1.3,11.34,3.88c2.58,2.59,3.86,6.27,3.86,11.03c0,4.76-1.29,8.44-3.86,11.03s-6.36,3.88-11.34,3.88
			C277.77,384.58,273.99,383.29,271.41,380.7z M286.7,375.57c0.81-1.3,1.22-3.27,1.22-5.9c0-2.66-0.41-4.63-1.22-5.92
			c-0.81-1.29-2.13-1.93-3.95-1.93c-1.82,0-3.14,0.64-3.95,1.93c-0.81,1.29-1.22,3.26-1.22,5.92c0,2.63,0.41,4.6,1.22,5.9
			c0.81,1.3,2.13,1.95,3.95,1.95C284.57,377.53,285.89,376.88,286.7,375.57z"/>
		<path d="M98.52,433.76c-0.38-0.39-0.57-0.99-0.57-1.81v-23.77c0-0.81,0.19-1.41,0.57-1.81s1.03-0.59,1.95-0.59h10.04
			c4.2,0,7.26,0.83,9.18,2.5c1.92,1.67,2.88,4.18,2.88,7.54c0,3.36-0.96,5.87-2.88,7.52c-1.92,1.65-4.96,2.48-9.14,2.48h-2.52v6.13
			c0,0.81-0.19,1.41-0.57,1.81c-0.38,0.39-1.04,0.59-2,0.59h-5C99.55,434.35,98.9,434.16,98.52,433.76z M109.63,418.69
			c0.9,0,1.6-0.24,2.12-0.71c0.52-0.48,0.78-1.19,0.78-2.14c0-0.98-0.26-1.71-0.78-2.18c-0.52-0.48-1.23-0.71-2.12-0.71h-2.86v5.75
			H109.63z"/>
		<path d="M118.79,433.47c0-0.25,0.07-0.56,0.21-0.92l10.46-25.16c0.25-0.59,0.54-1,0.86-1.24c0.32-0.24,0.78-0.36,1.36-0.36h4.58
			c0.59,0,1.04,0.12,1.36,0.36c0.32,0.24,0.61,0.65,0.86,1.24l10.42,25.16c0.14,0.36,0.21,0.67,0.21,0.92
			c0,0.59-0.31,0.88-0.92,0.88h-7.9c-0.87,0-1.41-0.38-1.64-1.13l-1.01-3.11h-7.43l-0.97,3.11c-0.22,0.76-0.77,1.13-1.64,1.13h-7.9
			C119.1,434.35,118.79,434.06,118.79,433.47z M135.59,423.47l-1.64-5.21l-1.64,5.21H135.59z"/>
		<path d="M151.78,433.76c-0.38-0.39-0.57-0.99-0.57-1.81v-23.81c0-0.81,0.19-1.41,0.57-1.79s1.04-0.57,2-0.57h3.99
			c0.59,0,1.04,0.08,1.37,0.23c0.32,0.15,0.64,0.46,0.94,0.9l7.6,11.3v-10.04c0-0.81,0.19-1.41,0.57-1.81s1.03-0.59,1.95-0.59h5
			c0.95,0,1.62,0.19,1.99,0.57c0.38,0.38,0.57,0.99,0.57,1.83V432c0,0.81-0.19,1.41-0.57,1.78c-0.38,0.38-1.04,0.57-1.99,0.57h-3.99
			c-0.59,0-1.04-0.08-1.36-0.23c-0.32-0.15-0.64-0.45-0.95-0.9l-7.6-11.3V432c0,0.81-0.19,1.41-0.57,1.78s-1.04,0.57-2,0.57h-5
			C152.81,434.35,152.16,434.16,151.78,433.76z"/>
		<path d="M181.26,433.76c-0.38-0.39-0.57-0.99-0.57-1.81v-23.77c0-0.81,0.19-1.41,0.57-1.81s1.03-0.59,1.95-0.59h17.39
			c0.9,0,1.5,0.19,1.83,0.57c0.32,0.38,0.48,0.99,0.48,1.83v2.35c0,0.84-0.16,1.45-0.48,1.83c-0.32,0.38-0.93,0.57-1.83,0.57h-9.83
			v3.61h6.05c0.9,0,1.5,0.19,1.83,0.57c0.32,0.38,0.48,0.99,0.48,1.83v2.27c0,0.84-0.16,1.45-0.48,1.83
			c-0.32,0.38-0.93,0.57-1.83,0.57h-6.05v3.61h9.79c0.9,0,1.5,0.19,1.83,0.57c0.32,0.38,0.48,0.99,0.48,1.83v2.35
			c0,0.84-0.16,1.45-0.48,1.83c-0.32,0.38-0.93,0.57-1.83,0.57h-17.35C182.29,434.35,181.64,434.16,181.26,433.76z"/>
		<path d="M205.37,433.76c-0.38-0.39-0.57-0.99-0.57-1.81v-23.77c0-0.81,0.19-1.41,0.57-1.81s1.03-0.59,1.95-0.59h5
			c0.95,0,1.62,0.19,2,0.57s0.57,0.99,0.57,1.83v19.03h9.79c0.9,0,1.5,0.19,1.83,0.57c0.32,0.38,0.48,0.99,0.48,1.83v2.35
			c0,0.84-0.16,1.45-0.48,1.83c-0.32,0.38-0.93,0.57-1.83,0.57h-17.35C206.4,434.35,205.75,434.16,205.37,433.76z"/>
		<path d="M241.41,433.76c-0.38-0.39-0.57-0.99-0.57-1.81v-23.77c0-0.81,0.19-1.41,0.57-1.81s1.03-0.59,1.95-0.59h9.66
			c9.88,0,14.83,4.76,14.83,14.28c0,4.7-1.27,8.26-3.8,10.67c-2.53,2.41-6.21,3.61-11.02,3.61h-9.66
			C242.43,434.35,241.78,434.16,241.41,433.76z M253.4,427.21c1.57,0,2.69-0.52,3.38-1.55c0.69-1.04,1.03-2.9,1.03-5.59
			c0-2.69-0.34-4.55-1.03-5.59c-0.69-1.04-1.81-1.55-3.38-1.55h-2.48v14.28H253.4z"/>
		<path d="M270.51,433.76c-0.38-0.39-0.57-0.99-0.57-1.81v-23.77c0-0.81,0.19-1.41,0.57-1.81s1.03-0.59,1.95-0.59h17.39
			c0.9,0,1.5,0.19,1.83,0.57c0.32,0.38,0.48,0.99,0.48,1.83v2.35c0,0.84-0.16,1.45-0.48,1.83c-0.32,0.38-0.93,0.57-1.83,0.57h-9.83
			v3.61h6.05c0.9,0,1.5,0.19,1.83,0.57c0.32,0.38,0.48,0.99,0.48,1.83v2.27c0,0.84-0.16,1.45-0.48,1.83
			c-0.32,0.38-0.93,0.57-1.83,0.57h-6.05v3.61h9.79c0.9,0,1.5,0.19,1.83,0.57c0.32,0.38,0.48,0.99,0.48,1.83v2.35
			c0,0.84-0.16,1.45-0.48,1.83c-0.32,0.38-0.93,0.57-1.83,0.57h-17.35C271.54,434.35,270.89,434.16,270.51,433.76z"/>
		<path d="M59.23,484.16c-0.38-0.39-0.57-0.99-0.57-1.81v-23.77c0-0.81,0.19-1.41,0.57-1.81s1.03-0.59,1.95-0.59h10.04
			c4.2,0,7.26,0.83,9.18,2.5c1.92,1.67,2.88,4.18,2.88,7.54c0,2.02-0.34,3.72-1.03,5.1c-0.69,1.39-1.74,2.47-3.17,3.25l3.91,8.36
			c0.11,0.22,0.17,0.48,0.17,0.76c0,0.31-0.1,0.56-0.31,0.76c-0.21,0.2-0.48,0.29-0.82,0.29h-7.1c-0.45,0-0.81-0.06-1.07-0.19
			s-0.46-0.34-0.57-0.65l-3.11-7.81h-1.43v6.26c0,0.81-0.19,1.41-0.57,1.81c-0.38,0.39-1.04,0.59-2,0.59h-5
			C60.26,484.75,59.61,484.56,59.23,484.16z M70.34,469.09c0.9,0,1.6-0.24,2.12-0.71c0.52-0.48,0.78-1.19,0.78-2.14
			c0-0.98-0.26-1.71-0.78-2.18c-0.52-0.48-1.23-0.71-2.12-0.71h-2.86v5.75H70.34z"/>
		<path d="M85.94,484.16c-0.38-0.39-0.57-0.99-0.57-1.81v-23.77c0-0.81,0.19-1.41,0.57-1.81s1.03-0.59,1.95-0.59h17.39
			c0.9,0,1.5,0.19,1.83,0.57c0.32,0.38,0.48,0.99,0.48,1.83v2.35c0,0.84-0.16,1.45-0.48,1.83c-0.32,0.38-0.93,0.57-1.83,0.57h-9.83
			v3.61h6.05c0.9,0,1.5,0.19,1.83,0.57c0.32,0.38,0.48,0.99,0.48,1.83v2.27c0,0.84-0.16,1.45-0.48,1.83
			c-0.32,0.38-0.93,0.57-1.83,0.57h-6.05v3.61h9.79c0.9,0,1.5,0.19,1.83,0.57c0.32,0.38,0.48,0.99,0.48,1.83v2.35
			c0,0.84-0.16,1.45-0.48,1.83c-0.32,0.38-0.93,0.57-1.83,0.57H87.9C86.97,484.75,86.32,484.56,85.94,484.16z"/>
		<path d="M110.05,484.16c-0.38-0.39-0.57-0.99-0.57-1.81v-23.77c0-0.81,0.19-1.41,0.57-1.81s1.03-0.59,1.95-0.59h10.04
			c4.2,0,7.26,0.83,9.18,2.5c1.92,1.67,2.88,4.18,2.88,7.54c0,3.36-0.96,5.87-2.88,7.52c-1.92,1.65-4.96,2.48-9.14,2.48h-2.52v6.13
			c0,0.81-0.19,1.41-0.57,1.81c-0.38,0.39-1.04,0.59-2,0.59h-5C111.08,484.75,110.43,484.56,110.05,484.16z M121.16,469.09
			c0.9,0,1.6-0.24,2.12-0.71c0.52-0.48,0.78-1.19,0.78-2.14c0-0.98-0.26-1.71-0.78-2.18c-0.52-0.48-1.23-0.71-2.12-0.71h-2.86v5.75
			H121.16z"/>
		<path d="M137.33,481.5c-2.58-2.59-3.86-6.26-3.86-11.03c0-4.76,1.29-8.43,3.86-11.02c2.58-2.59,6.36-3.89,11.34-3.89
			c4.98,0,8.76,1.3,11.34,3.89s3.86,6.26,3.86,11.02c0,4.76-1.29,8.44-3.86,11.03s-6.36,3.88-11.34,3.88
			C143.69,485.38,139.91,484.09,137.33,481.5z M152.62,476.37c0.81-1.3,1.22-3.27,1.22-5.9c0-2.66-0.41-4.63-1.22-5.92
			c-0.81-1.29-2.13-1.93-3.95-1.93c-1.82,0-3.14,0.64-3.95,1.93c-0.81,1.29-1.22,3.26-1.22,5.92c0,2.63,0.41,4.6,1.22,5.9
			c0.81,1.3,2.13,1.95,3.95,1.95C150.49,478.33,151.81,477.67,152.62,476.37z"/>
		<path d="M166.54,484.16c-0.38-0.39-0.57-0.99-0.57-1.81v-23.77c0-0.81,0.19-1.41,0.57-1.81s1.03-0.59,1.95-0.59h10.04
			c4.2,0,7.26,0.83,9.18,2.5c1.92,1.67,2.88,4.18,2.88,7.54c0,2.02-0.34,3.72-1.03,5.1c-0.69,1.39-1.74,2.47-3.17,3.25l3.91,8.36
			c0.11,0.22,0.17,0.48,0.17,0.76c0,0.31-0.1,0.56-0.31,0.76c-0.21,0.2-0.48,0.29-0.82,0.29h-7.1c-0.45,0-0.81-0.06-1.07-0.19
			s-0.46-0.34-0.57-0.65l-3.11-7.81h-1.43v6.26c0,0.81-0.19,1.41-0.57,1.81c-0.38,0.39-1.04,0.59-2,0.59h-5
			C167.57,484.75,166.92,484.56,166.54,484.16z M177.65,469.09c0.9,0,1.6-0.24,2.12-0.71c0.52-0.48,0.78-1.19,0.78-2.14
			c0-0.98-0.26-1.71-0.78-2.18c-0.52-0.48-1.23-0.71-2.12-0.71h-2.86v5.75H177.65z"/>
		<path d="M198.46,484.16c-0.38-0.39-0.57-0.99-0.57-1.81v-19.03h-6.05c-0.9,0-1.51-0.19-1.83-0.57c-0.32-0.38-0.48-0.99-0.48-1.83
			v-2.35c0-0.84,0.16-1.45,0.48-1.83c0.32-0.38,0.93-0.57,1.83-0.57h22.18c0.9,0,1.5,0.19,1.83,0.57c0.32,0.38,0.48,0.99,0.48,1.83
			v2.35c0,0.84-0.16,1.45-0.48,1.83c-0.32,0.38-0.93,0.57-1.83,0.57h-6.05v19.03c0,0.81-0.19,1.41-0.57,1.81
			c-0.38,0.39-1.04,0.59-2,0.59h-5C199.49,484.75,198.84,484.56,198.46,484.16z"/>
		<path d="M218.16,484.16c-0.38-0.39-0.57-0.99-0.57-1.81v-23.77c0-0.81,0.19-1.41,0.57-1.81s1.03-0.59,1.95-0.59h17.39
			c0.9,0,1.5,0.19,1.83,0.57c0.32,0.38,0.48,0.99,0.48,1.83v2.35c0,0.84-0.16,1.45-0.48,1.83c-0.32,0.38-0.93,0.57-1.83,0.57h-9.83
			v3.61h6.05c0.9,0,1.5,0.19,1.83,0.57c0.32,0.38,0.48,0.99,0.48,1.83v2.27c0,0.84-0.16,1.45-0.48,1.83
			c-0.32,0.38-0.93,0.57-1.83,0.57h-6.05v3.61h9.79c0.9,0,1.5,0.19,1.83,0.57c0.32,0.38,0.48,0.99,0.48,1.83v2.35
			c0,0.84-0.16,1.45-0.48,1.83c-0.32,0.38-0.93,0.57-1.83,0.57h-17.35C219.19,484.75,218.54,484.56,218.16,484.16z"/>
		<path d="M247.03,484.58c-2.18-0.53-3.95-1.27-5.29-2.23c-0.56-0.39-0.84-0.77-0.84-1.13c0-0.25,0.1-0.52,0.29-0.8l2.44-3.82
			c0.25-0.36,0.5-0.55,0.76-0.55c0.22,0,0.49,0.1,0.8,0.29c1.01,0.62,2.16,1.1,3.46,1.45c1.3,0.35,2.57,0.53,3.8,0.53
			c1.04,0,1.78-0.14,2.25-0.42c0.46-0.28,0.69-0.71,0.69-1.3c0-0.64-0.31-1.16-0.92-1.55c-0.62-0.39-1.68-0.88-3.19-1.47
			c-2.83-1.09-5.05-2.33-6.68-3.72c-1.62-1.39-2.44-3.23-2.44-5.52c0-2.91,1.01-5.1,3.04-6.57c2.03-1.47,4.77-2.21,8.21-2.21
			c2.41,0,4.46,0.21,6.15,0.63c1.69,0.42,3.17,1.08,4.43,1.97c0.56,0.39,0.84,0.77,0.84,1.13c0,0.25-0.1,0.52-0.29,0.8l-2.44,3.82
			c-0.25,0.39-0.5,0.59-0.76,0.59c-0.17,0-0.43-0.11-0.8-0.34c-0.67-0.45-1.47-0.82-2.39-1.11c-0.92-0.29-1.92-0.44-2.98-0.44
			c-0.98,0-1.72,0.14-2.23,0.42c-0.5,0.28-0.76,0.73-0.76,1.34c0,0.5,0.17,0.92,0.52,1.26c0.35,0.34,0.79,0.62,1.32,0.86
			c0.53,0.24,1.46,0.62,2.77,1.16c2.1,0.84,3.75,1.64,4.96,2.42c1.2,0.77,2.11,1.69,2.73,2.77c0.62,1.08,0.92,2.44,0.92,4.1
			c0,2.52-0.95,4.56-2.83,6.11c-1.89,1.55-4.71,2.33-8.46,2.33C251.58,485.38,249.22,485.12,247.03,484.58z"/>
		<path d="M280.7,484.16c-0.38-0.39-0.57-0.99-0.57-1.81v-23.77c0-0.81,0.19-1.41,0.57-1.81s1.03-0.59,1.95-0.59h9.66
			c9.88,0,14.83,4.76,14.83,14.28c0,4.7-1.27,8.26-3.8,10.67c-2.53,2.41-6.21,3.61-11.02,3.61h-9.66
			C281.72,484.75,281.07,484.56,280.7,484.16z M292.69,477.61c1.57,0,2.69-0.52,3.38-1.55c0.69-1.04,1.03-2.9,1.03-5.59
			c0-2.69-0.34-4.55-1.03-5.59c-0.69-1.04-1.81-1.55-3.38-1.55h-2.48v14.28H292.69z"/>
		<path d="M309.8,484.16c-0.38-0.39-0.57-0.99-0.57-1.81v-23.77c0-0.81,0.19-1.41,0.57-1.81s1.03-0.59,1.95-0.59h17.39
			c0.9,0,1.5,0.19,1.83,0.57c0.32,0.38,0.48,0.99,0.48,1.83v2.35c0,0.84-0.16,1.45-0.48,1.83c-0.32,0.38-0.93,0.57-1.83,0.57h-9.83
			v3.61h6.05c0.9,0,1.5,0.19,1.83,0.57c0.32,0.38,0.48,0.99,0.48,1.83v2.27c0,0.84-0.16,1.45-0.48,1.83
			c-0.32,0.38-0.93,0.57-1.83,0.57h-6.05v3.61h9.79c0.9,0,1.5,0.19,1.83,0.57c0.32,0.38,0.48,0.99,0.48,1.83v2.35
			c0,0.84-0.16,1.45-0.48,1.83c-0.32,0.38-0.93,0.57-1.83,0.57h-17.35C310.83,484.75,310.18,484.56,309.8,484.16z"/>
		<path d="M91.76,534.56c-0.38-0.39-0.57-0.99-0.57-1.81v-23.77c0-0.81,0.19-1.41,0.57-1.81s1.03-0.59,1.95-0.59h5
			c0.95,0,1.62,0.19,2,0.57s0.57,0.99,0.57,1.83v19.03h9.79c0.9,0,1.5,0.19,1.83,0.57c0.32,0.38,0.48,0.99,0.48,1.83v2.35
			c0,0.84-0.16,1.45-0.48,1.83c-0.32,0.38-0.93,0.57-1.83,0.57H93.71C92.79,535.15,92.14,534.96,91.76,534.56z"/>
		<path d="M115.2,534.56c-0.38-0.39-0.57-0.99-0.57-1.81v-23.77c0-0.81,0.19-1.41,0.57-1.81s1.03-0.59,1.95-0.59h5
			c0.95,0,1.62,0.19,2,0.57s0.57,0.99,0.57,1.83v19.03h9.79c0.9,0,1.5,0.19,1.83,0.57c0.32,0.38,0.48,0.99,0.48,1.83v2.35
			c0,0.84-0.16,1.45-0.48,1.83c-0.32,0.38-0.93,0.57-1.83,0.57h-17.35C116.22,535.15,115.57,534.96,115.2,534.56z"/>
		<path d="M136.59,534.27c0-0.25,0.07-0.56,0.21-0.92l10.46-25.16c0.25-0.59,0.54-1,0.86-1.24c0.32-0.24,0.78-0.36,1.36-0.36h4.58
			c0.59,0,1.04,0.12,1.36,0.36c0.32,0.24,0.61,0.65,0.86,1.24l10.42,25.16c0.14,0.36,0.21,0.67,0.21,0.92
			c0,0.59-0.31,0.88-0.92,0.88h-7.9c-0.87,0-1.41-0.38-1.64-1.13l-1.01-3.11h-7.43l-0.97,3.11c-0.22,0.76-0.77,1.13-1.64,1.13h-7.9
			C136.9,535.15,136.59,534.86,136.59,534.27z M153.39,524.27l-1.64-5.21l-1.64,5.21H153.39z"/>
		<path d="M168.54,534.56c-0.38-0.39-0.57-0.99-0.57-1.81v-23.81c0-0.81,0.19-1.41,0.57-1.79s1.04-0.57,2-0.57h4.83
			c0.62,0,1.11,0.08,1.47,0.23c0.36,0.15,0.64,0.46,0.84,0.9l4.91,12.31l4.91-12.31c0.2-0.45,0.48-0.75,0.84-0.9
			c0.36-0.15,0.85-0.23,1.47-0.23h4.83c0.95,0,1.62,0.19,1.99,0.57c0.38,0.38,0.57,0.97,0.57,1.79v23.81c0,0.81-0.19,1.41-0.57,1.81
			c-0.38,0.39-1.03,0.59-1.95,0.59h-4.03c-0.92,0-1.58-0.2-1.97-0.59c-0.39-0.39-0.59-0.99-0.59-1.81v-11.47l-2.48,5.71
			c-0.34,0.81-0.7,1.39-1.09,1.74c-0.39,0.35-1.04,0.53-1.93,0.53c-0.9,0-1.54-0.17-1.93-0.53c-0.39-0.35-0.76-0.93-1.09-1.74
			l-2.48-5.71v11.47c0,0.81-0.19,1.41-0.57,1.81c-0.38,0.39-1.04,0.59-2,0.59h-4.03C169.56,535.15,168.91,534.96,168.54,534.56z"/>
		<path d="M198.25,534.27c0-0.25,0.07-0.56,0.21-0.92l10.46-25.16c0.25-0.59,0.54-1,0.86-1.24c0.32-0.24,0.78-0.36,1.36-0.36h4.58
			c0.59,0,1.04,0.12,1.36,0.36c0.32,0.24,0.61,0.65,0.86,1.24l10.42,25.16c0.14,0.36,0.21,0.67,0.21,0.92
			c0,0.59-0.31,0.88-0.92,0.88h-7.9c-0.87,0-1.41-0.38-1.64-1.13l-1.01-3.11h-7.43l-0.97,3.11c-0.22,0.76-0.77,1.13-1.64,1.13h-7.9
			C198.56,535.15,198.25,534.86,198.25,534.27z M215.05,524.27l-1.64-5.21l-1.64,5.21H215.05z"/>
		<path d="M231.24,534.56c-0.38-0.39-0.57-0.99-0.57-1.81v-23.77c0-0.81,0.19-1.41,0.57-1.81s1.03-0.59,1.95-0.59h9.66
			c9.88,0,14.83,4.76,14.83,14.28c0,4.7-1.27,8.26-3.8,10.67c-2.53,2.41-6.21,3.61-11.02,3.61h-9.66
			C232.27,535.15,231.62,534.96,231.24,534.56z M243.23,528.01c1.57,0,2.69-0.52,3.38-1.55c0.69-1.04,1.03-2.9,1.03-5.59
			c0-2.69-0.34-4.55-1.03-5.59c-0.69-1.04-1.81-1.55-3.38-1.55h-2.48v14.28H243.23z"/>
		<path d="M257.05,534.27c0-0.25,0.07-0.56,0.21-0.92l10.46-25.16c0.25-0.59,0.54-1,0.86-1.24c0.32-0.24,0.78-0.36,1.36-0.36h4.58
			c0.59,0,1.04,0.12,1.36,0.36c0.32,0.24,0.61,0.65,0.86,1.24l10.42,25.16c0.14,0.36,0.21,0.67,0.21,0.92
			c0,0.59-0.31,0.88-0.92,0.88h-7.9c-0.87,0-1.41-0.38-1.64-1.13l-1.01-3.11h-7.43l-0.97,3.11c-0.22,0.76-0.77,1.13-1.64,1.13h-7.9
			C257.36,535.15,257.05,534.86,257.05,534.27z M273.85,524.27l-1.64-5.21l-1.64,5.21H273.85z"/>
		<path d="M292.92,534.98c-2.18-0.53-3.95-1.27-5.29-2.23c-0.56-0.39-0.84-0.77-0.84-1.13c0-0.25,0.1-0.52,0.29-0.8l2.44-3.82
			c0.25-0.36,0.5-0.55,0.76-0.55c0.22,0,0.49,0.1,0.8,0.29c1.01,0.62,2.16,1.1,3.46,1.45c1.3,0.35,2.57,0.53,3.8,0.53
			c1.04,0,1.78-0.14,2.25-0.42c0.46-0.28,0.69-0.71,0.69-1.3c0-0.64-0.31-1.16-0.92-1.55c-0.62-0.39-1.68-0.88-3.19-1.47
			c-2.83-1.09-5.05-2.33-6.68-3.72c-1.62-1.39-2.44-3.23-2.44-5.52c0-2.91,1.01-5.1,3.04-6.57c2.03-1.47,4.77-2.21,8.21-2.21
			c2.41,0,4.46,0.21,6.15,0.63c1.69,0.42,3.17,1.08,4.43,1.97c0.56,0.39,0.84,0.77,0.84,1.13c0,0.25-0.1,0.52-0.29,0.8l-2.44,3.82
			c-0.25,0.39-0.5,0.59-0.76,0.59c-0.17,0-0.43-0.11-0.8-0.34c-0.67-0.45-1.47-0.82-2.39-1.11c-0.92-0.29-1.92-0.44-2.98-0.44
			c-0.98,0-1.72,0.14-2.23,0.42c-0.5,0.28-0.76,0.73-0.76,1.34c0,0.5,0.17,0.92,0.52,1.26c0.35,0.34,0.79,0.62,1.32,0.86
			c0.53,0.24,1.46,0.62,2.77,1.16c2.1,0.84,3.75,1.64,4.96,2.42c1.2,0.77,2.11,1.69,2.73,2.77c0.62,1.08,0.92,2.44,0.92,4.1
			c0,2.52-0.95,4.56-2.83,6.11c-1.89,1.55-4.71,2.33-8.46,2.33C297.47,535.78,295.1,535.52,292.92,534.98z"/>
	</g>
	<polygon class="st6" points="199.76,86.93 213.23,114.22 243.34,118.59 221.55,139.83 226.7,169.83 199.76,155.67 172.83,169.83 
		177.97,139.83 156.18,118.59 186.29,114.22 	"/>
	<polygon class="st6" points="137.58,170.15 146.32,187.86 165.86,190.7 151.72,204.48 155.06,223.94 137.58,214.75 120.11,223.94 
		123.45,204.48 109.31,190.7 128.85,187.86 	"/>
	<polygon class="st6" points="267.68,170.15 276.42,187.86 295.95,190.7 281.82,204.48 285.15,223.94 267.68,214.75 250.2,223.94 
		253.54,204.48 239.4,190.7 258.94,187.86 	"/>
	<circle class="st7" cx="200.77" cy="203.97" r="121.96"/>
	<circle class="st1" cx="199.82" cy="190.58" r="121.96"/>
	<g>
		<path class="st1" d="M178.79,629.51c-4.11-3.82-6.17-9.72-6.17-17.7c0-6.13,1.16-11.34,3.47-15.62c2.31-4.28,5.33-7.48,9.05-9.6
			c3.72-2.12,7.7-3.18,11.94-3.18c3.55,0,6.65,0.38,9.31,1.13c2.65,0.75,5.05,1.86,7.19,3.32c0.58,0.44,0.88,0.92,0.88,1.46
			c0,0.44-0.22,1.05-0.66,1.83l-3.5,6.06c-0.39,0.68-0.85,1.02-1.39,1.02c-0.34,0-0.9-0.19-1.68-0.58
			c-2.48-1.31-5.26-1.97-8.32-1.97c-2.43,0-4.47,0.54-6.1,1.61c-1.63,1.07-3.05,2.65-4.27,4.75c1.41-0.73,3.14-1.34,5.18-1.83
			c2.04-0.49,3.99-0.73,5.84-0.73c4.04,0,7.41,0.71,10.11,2.12c2.7,1.41,4.71,3.3,6.02,5.66c1.31,2.36,1.97,4.98,1.97,7.85
			c0,6.67-1.98,11.69-5.95,15.07c-3.97,3.38-9.58,5.07-16.83,5.07C188.27,635.24,182.9,633.33,178.79,629.51z M199.01,621.29
			c0.8-1.12,1.2-2.9,1.2-5.33s-0.4-4.21-1.2-5.33c-0.8-1.12-2.15-1.68-4.05-1.68c-1.7,0-2.93,0.56-3.69,1.68
			c-0.76,1.12-1.13,2.9-1.13,5.33s0.38,4.21,1.13,5.33c0.75,1.12,1.98,1.68,3.69,1.68C196.86,622.97,198.21,622.42,199.01,621.29z"
			/>
	</g>
	<g>
		<g>
			<g>
				<g>
					<path class="st8" d="M272.3,211.49c0,3.11-2.54,5.65-5.65,5.65H152.39c-3.11,0-5.65-2.54-5.65-5.65v-66.16
						c0-3.09,2.54-5.63,5.65-5.63h114.26c3.1,0,5.65,2.54,5.65,5.63V211.49z"/>
					<path class="st9" d="M271.74,139.7h-56.53h-57.74c-3.11,0-5.65,2.54-5.65,5.63v66.16c0,3.11,2.54,5.65,5.65,5.65h57.74h56.53
						c3.1,0,5.64-2.54,5.64-5.65v-66.16C277.38,142.24,274.84,139.7,271.74,139.7z"/>
					<path class="st10" d="M266.65,139.7h-56.52h-57.74c-3.11,0-5.65,2.54-5.65,5.63v66.16c0,3.11,2.54,5.65,5.65,5.65h57.74h56.52
						c3.1,0,5.65-2.54,5.65-5.65v-66.16C272.3,142.24,269.75,139.7,266.65,139.7z"/>
					<path class="st11" d="M264.38,144.74h-54.25h-55.47c-1.86,0-3.39,1.54-3.39,3.4v60.58c0,1.87,1.53,3.39,3.39,3.39h55.47h54.25
						c1.86,0,3.38-1.52,3.38-3.39v-60.58C267.76,146.28,266.23,144.74,264.38,144.74z"/>
				</g>
				<g>
					<path class="st9" d="M213.32,217.14v11.51h62.51c5.62,0,10.17-4.55,10.17-10.17v-1.34H213.32z"/>
					<path class="st12" d="M136.22,217.14v1.34c0,5.62,4.56,10.17,10.18,10.17h63.73v-11.51H136.22z"/>
				</g>
				<path class="st13" d="M177.87,217.14h-73.91v1.34c0,5.62,4.56,10.17,10.18,10.17h63.73h62.51c5.62,0,10.18-4.55,10.18-10.17
					v-1.34H177.87z"/>
			</g>
			<g>
				<g>
					<g>
						<rect x="152.82" y="166.1" class="st17" width="9.3" height="8.18"/>
						<rect x="165.09" y="166.1" class="st19" width="44.92" height="8.18"/>
					</g>
					<g>
						<rect x="152.82" y="176.54" class="st14" width="9.3" height="8.18"/>
						<rect x="165.09" y="176.54" class="st19" width="44.92" height="8.18"/>
					</g>
					<g>
						<rect x="152.82" y="186.99" class="st15" width="9.3" height="8.18"/>
						<rect x="165.09" y="186.99" class="st19" width="44.92" height="8.18"/>
					</g>
					<g>
						<rect x="152.82" y="197.43" class="st16" width="9.3" height="8.18"/>
						<rect x="165.09" y="197.43" class="st19" width="44.92" height="8.18"/>
					</g>
				</g>
				<g>
					<path class="st14" d="M153.08,160.19c-0.13-0.13-0.2-0.34-0.2-0.62v-8.17c0-0.28,0.07-0.49,0.2-0.62s0.35-0.2,0.67-0.2h3.45
						c1.44,0,2.49,0.29,3.15,0.86c0.66,0.57,0.99,1.44,0.99,2.59s-0.33,2.02-0.99,2.58c-0.66,0.57-1.71,0.85-3.14,0.85h-0.87v2.11
						c0,0.28-0.06,0.49-0.19,0.62s-0.36,0.2-0.69,0.2h-1.72C153.44,160.39,153.21,160.33,153.08,160.19z M156.9,155.01
						c0.31,0,0.55-0.08,0.73-0.25s0.27-0.41,0.27-0.74c0-0.34-0.09-0.59-0.27-0.75s-0.42-0.25-0.73-0.25h-0.98v1.98H156.9z"/>
					<path class="st14" d="M160.04,160.09c0-0.09,0.02-0.19,0.07-0.32l3.59-8.64c0.09-0.2,0.18-0.34,0.3-0.43
						c0.11-0.08,0.27-0.12,0.47-0.12h1.57c0.2,0,0.36,0.04,0.47,0.12c0.11,0.08,0.21,0.22,0.3,0.43l3.58,8.64
						c0.05,0.13,0.07,0.23,0.07,0.32c0,0.2-0.11,0.3-0.32,0.3h-2.71c-0.3,0-0.49-0.13-0.56-0.39l-0.35-1.07h-2.55l-0.33,1.07
						c-0.08,0.26-0.26,0.39-0.56,0.39h-2.71C160.15,160.39,160.04,160.29,160.04,160.09z M165.82,156.66l-0.56-1.79l-0.56,1.79
						H165.82z"/>
					<path class="st14" d="M171.38,160.19c-0.13-0.13-0.2-0.34-0.2-0.62v-8.18c0-0.28,0.07-0.48,0.2-0.61
						c0.13-0.13,0.36-0.19,0.69-0.19h1.37c0.2,0,0.36,0.03,0.47,0.08c0.11,0.05,0.22,0.16,0.33,0.31l2.61,3.88v-3.45
						c0-0.28,0.07-0.49,0.2-0.62s0.35-0.2,0.67-0.2h1.72c0.33,0,0.56,0.07,0.69,0.19c0.13,0.13,0.2,0.34,0.2,0.63v8.18
						c0,0.28-0.07,0.48-0.2,0.61s-0.36,0.19-0.69,0.19h-1.37c-0.2,0-0.36-0.03-0.47-0.08c-0.11-0.05-0.22-0.16-0.32-0.31l-2.61-3.88
						v3.46c0,0.28-0.06,0.48-0.19,0.61s-0.36,0.19-0.69,0.19h-1.72C171.73,160.39,171.51,160.33,171.38,160.19z"/>
					<path class="st14" d="M181.51,160.19c-0.13-0.13-0.2-0.34-0.2-0.62v-8.17c0-0.28,0.07-0.49,0.2-0.62s0.35-0.2,0.67-0.2h5.97
						c0.31,0,0.52,0.07,0.63,0.19c0.11,0.13,0.17,0.34,0.17,0.63v0.81c0,0.29-0.06,0.5-0.17,0.63c-0.11,0.13-0.32,0.19-0.63,0.19
						h-3.38v1.24h2.08c0.31,0,0.52,0.06,0.63,0.19s0.17,0.34,0.17,0.63v0.78c0,0.29-0.06,0.5-0.17,0.63
						c-0.11,0.13-0.32,0.2-0.63,0.2h-2.08v1.24h3.36c0.31,0,0.52,0.07,0.63,0.2s0.17,0.34,0.17,0.63v0.81c0,0.29-0.06,0.5-0.17,0.63
						s-0.32,0.19-0.63,0.19h-5.96C181.86,160.39,181.64,160.33,181.51,160.19z"/>
					<path class="st14" d="M189.79,160.19c-0.13-0.13-0.2-0.34-0.2-0.62v-8.17c0-0.28,0.07-0.49,0.2-0.62s0.35-0.2,0.67-0.2h1.72
						c0.33,0,0.56,0.07,0.69,0.19c0.13,0.13,0.19,0.34,0.19,0.63v6.54h3.36c0.31,0,0.52,0.07,0.63,0.2s0.17,0.34,0.17,0.63v0.81
						c0,0.29-0.06,0.5-0.17,0.63s-0.32,0.19-0.63,0.19h-5.96C190.14,160.39,189.92,160.33,189.79,160.19z"/>
					<path class="st14" d="M203.15,159.32c-0.97-0.86-1.46-2.14-1.46-3.83c0-1.7,0.47-2.98,1.41-3.84c0.94-0.86,2.28-1.28,4.02-1.28
						c0.79,0,1.49,0.08,2.11,0.23c0.62,0.15,1.13,0.37,1.54,0.65c0.12,0.09,0.17,0.18,0.17,0.29c0,0.09-0.04,0.21-0.13,0.36
						l-0.72,1.24c-0.08,0.13-0.17,0.2-0.27,0.2c-0.07,0-0.18-0.04-0.33-0.12c-0.27-0.13-0.55-0.24-0.84-0.32
						c-0.29-0.08-0.64-0.12-1.03-0.12c-0.8,0-1.41,0.23-1.83,0.69c-0.42,0.46-0.63,1.13-0.63,2c0,0.87,0.23,1.53,0.69,2
						c0.46,0.47,1.09,0.7,1.89,0.7c0.69,0,1.33-0.14,1.9-0.43c0.15-0.08,0.26-0.12,0.33-0.12c0.11,0,0.2,0.07,0.27,0.2l0.72,1.24
						c0.09,0.15,0.13,0.27,0.13,0.36c0,0.11-0.06,0.2-0.17,0.29c-0.41,0.28-0.93,0.5-1.56,0.65c-0.63,0.15-1.33,0.23-2.12,0.23
						C205.48,160.61,204.12,160.18,203.15,159.32z"/>
					<path class="st14" d="M212.19,159.28c-0.88-0.89-1.33-2.15-1.33-3.79c0-1.63,0.44-2.9,1.33-3.79s2.18-1.33,3.9-1.33
						c1.71,0,3.01,0.45,3.9,1.33s1.33,2.15,1.33,3.79c0,1.64-0.44,2.9-1.33,3.79c-0.88,0.89-2.18,1.33-3.9,1.33
						C214.38,160.61,213.08,160.17,212.19,159.28z M217.45,157.52c0.28-0.45,0.42-1.12,0.42-2.03c0-0.91-0.14-1.59-0.42-2.03
						c-0.28-0.44-0.73-0.66-1.36-0.66c-0.63,0-1.08,0.22-1.36,0.66c-0.28,0.44-0.42,1.12-0.42,2.03c0,0.9,0.14,1.58,0.42,2.03
						c0.28,0.45,0.73,0.67,1.36,0.67C216.71,158.19,217.17,157.96,217.45,157.52z"/>
					<path class="st14" d="M222.23,160.19c-0.13-0.13-0.2-0.34-0.2-0.62v-8.18c0-0.28,0.07-0.48,0.2-0.61
						c0.13-0.13,0.36-0.19,0.69-0.19h1.37c0.2,0,0.36,0.03,0.47,0.08c0.11,0.05,0.22,0.16,0.33,0.31l2.61,3.88v-3.45
						c0-0.28,0.07-0.49,0.2-0.62s0.35-0.2,0.67-0.2h1.72c0.33,0,0.56,0.07,0.69,0.19c0.13,0.13,0.2,0.34,0.2,0.63v8.18
						c0,0.28-0.07,0.48-0.2,0.61s-0.36,0.19-0.69,0.19h-1.37c-0.2,0-0.36-0.03-0.47-0.08c-0.11-0.05-0.22-0.16-0.32-0.31l-2.61-3.88
						v3.46c0,0.28-0.06,0.48-0.19,0.61s-0.36,0.19-0.69,0.19h-1.72C222.58,160.39,222.36,160.33,222.23,160.19z"/>
					<path class="st14" d="M234.65,160.19c-0.13-0.13-0.19-0.34-0.19-0.62v-6.54h-2.08c-0.31,0-0.52-0.06-0.63-0.19
						s-0.17-0.34-0.17-0.63v-0.81c0-0.29,0.06-0.5,0.17-0.63c0.11-0.13,0.32-0.19,0.63-0.19H240c0.31,0,0.52,0.07,0.63,0.19
						c0.11,0.13,0.17,0.34,0.17,0.63v0.81c0,0.29-0.06,0.5-0.17,0.63s-0.32,0.19-0.63,0.19h-2.08v6.54c0,0.28-0.07,0.49-0.2,0.62
						s-0.36,0.2-0.69,0.2h-1.72C235.01,160.39,234.78,160.33,234.65,160.19z"/>
					<path class="st14" d="M241.42,160.19c-0.13-0.13-0.2-0.34-0.2-0.62v-8.17c0-0.28,0.07-0.49,0.2-0.62s0.35-0.2,0.67-0.2h3.45
						c1.44,0,2.49,0.29,3.15,0.86c0.66,0.57,0.99,1.44,0.99,2.59c0,0.69-0.12,1.28-0.35,1.75c-0.24,0.48-0.6,0.85-1.09,1.12
						l1.34,2.87c0.04,0.08,0.06,0.16,0.06,0.26c0,0.11-0.04,0.19-0.11,0.26s-0.17,0.1-0.28,0.1h-2.44c-0.15,0-0.28-0.02-0.37-0.06
						c-0.09-0.04-0.16-0.12-0.2-0.22l-1.07-2.68h-0.49v2.15c0,0.28-0.06,0.49-0.19,0.62s-0.36,0.2-0.69,0.2h-1.72
						C241.77,160.39,241.55,160.33,241.42,160.19z M245.24,155.01c0.31,0,0.55-0.08,0.73-0.25s0.27-0.41,0.27-0.74
						c0-0.34-0.09-0.59-0.27-0.75s-0.42-0.25-0.73-0.25h-0.98v1.98H245.24z"/>
					<path class="st14" d="M251.44,159.28c-0.88-0.89-1.33-2.15-1.33-3.79c0-1.63,0.44-2.9,1.33-3.79s2.18-1.33,3.9-1.33
						c1.71,0,3.01,0.45,3.9,1.33s1.33,2.15,1.33,3.79c0,1.64-0.44,2.9-1.33,3.79c-0.88,0.89-2.18,1.33-3.9,1.33
						C253.63,160.61,252.33,160.17,251.44,159.28z M256.69,157.52c0.28-0.45,0.42-1.12,0.42-2.03c0-0.91-0.14-1.59-0.42-2.03
						c-0.28-0.44-0.73-0.66-1.36-0.66c-0.63,0-1.08,0.22-1.36,0.66c-0.28,0.44-0.42,1.12-0.42,2.03c0,0.9,0.14,1.58,0.42,2.03
						c0.28,0.45,0.73,0.67,1.36,0.67C255.96,158.19,256.42,157.96,256.69,157.52z"/>
					<path class="st14" d="M261.48,160.19c-0.13-0.13-0.2-0.34-0.2-0.62v-8.17c0-0.28,0.07-0.49,0.2-0.62s0.35-0.2,0.67-0.2h1.72
						c0.33,0,0.56,0.07,0.69,0.19c0.13,0.13,0.19,0.34,0.19,0.63v6.54h3.36c0.31,0,0.52,0.07,0.63,0.2s0.17,0.34,0.17,0.63v0.81
						c0,0.29-0.06,0.5-0.17,0.63s-0.32,0.19-0.63,0.19h-5.96C261.83,160.39,261.61,160.33,261.48,160.19z"/>
				</g>
				<g>
					<circle id="XMLID_304_" class="st3" cx="243.48" cy="188.77" r="21.66"/>
					<g id="XMLID_280_">
						<path id="XMLID_303_" class="st4" d="M249.5,187.92c0.28-0.69,0.42-1.23,0.45-1.37c-0.03-0.01-0.05-0.02-0.06-0.04
							c-0.04-0.07,0.09-0.77,0.03-0.82c-0.01-0.01-0.02-0.01-0.02-0.01c-0.08,0.25-0.22,0.45-0.39,0.6
							C249.51,186.81,249.51,187.36,249.5,187.92z"/>
						<path id="XMLID_302_" class="st21" d="M248.53,186.55c-0.32-0.23-0.31,3.02-1.64,4.3c-0.1,0.09-0.19,0.18-0.29,0.27
							c-0.1,0.09-0.21,0.17-0.31,0.25c0,0.04,0,0.09,0,0.14c1.23-0.36,2.09-1.45,2.63-2.38c0.24-0.42,0.43-0.83,0.59-1.21
							c0-0.56,0-1.11,0-1.65c-0.1,0.09-0.21,0.15-0.32,0.19C249,186.65,248.78,186.72,248.53,186.55z"/>
						<path id="XMLID_301_" class="st21" d="M238.19,195.19c-0.03,0.02-0.14,0.08-0.23,0.23
							C238.02,195.35,238.1,195.28,238.19,195.19z"/>
						<path id="XMLID_300_" class="st21" d="M246.29,191.68c0.03,0.71,0.17,1.65,0.76,2.5c0.19-0.17,0.3-0.21,0.37-0.09
							c0.43,0.73,0.88,1.12,1.13,1.37c-0.13-0.22-0.27-0.28-0.27-0.28s0.31-0.12,0.84,0.33c0.12,0.11,0.34,0.25,0.58,0.45
							c-0.28-1.39-0.22-4.53-0.2-7.63c-0.13,0.28-0.27,0.57-0.44,0.87C248.29,190.55,247.35,191.39,246.29,191.68z"/>
						<path id="XMLID_299_" class="st21" d="M238.2,195.18c0.24-0.25,0.55-0.58,0.85-1.09c0.07-0.12,0.18-0.08,0.38,0.1
							c0.68-0.98,0.77-2.09,0.77-2.82c-0.21-0.16-0.41-0.34-0.61-0.52c-1.33-1.28-1.32-4.53-1.64-4.3
							c-0.25,0.17-0.47,0.11-0.65-0.08c-0.07-0.02-0.13-0.05-0.2-0.09c-0.01,3.54,0.14,7.7-0.17,9.46c0.18-0.14,0.33-0.24,0.43-0.33
							C237.87,195.09,238.17,195.17,238.2,195.18z"/>
						<path id="XMLID_298_" class="st22" d="M246.01,191.57c0.09-0.02,0.18-0.04,0.27-0.07c0-0.05,0-0.09,0-0.14
							C246.2,191.44,246.11,191.51,246.01,191.57z"/>
						<path id="XMLID_297_" class="st22" d="M243.19,197.6c0.02,0.02,0.03,0.04,0.04,0.06c0.01-0.02,0.02-0.04,0.04-0.06
							c2.32-1.78,3.31-3,3.78-3.42c-0.58-0.85-0.73-1.79-0.76-2.5c-0.19,0.05-0.39,0.09-0.59,0.1c-0.06,0.25-0.31,0.7-1.16,0.69
							c-0.18,0-0.33-0.02-0.45-0.06c-0.13,0.02-0.26,0.05-0.39,0.06c-0.39,0.04-0.8,0.03-1.19-0.03c-0.32-0.05-0.64-0.14-0.94-0.26
							c-0.34-0.13-0.66-0.31-0.97-0.51c-0.14-0.09-0.27-0.2-0.4-0.3c-0.01,0.74-0.1,1.84-0.77,2.82
							C239.9,194.62,240.89,195.84,243.19,197.6z"/>
						<path id="XMLID_296_" class="st22" d="M243.23,197.72c0,0,0,0.01,0,0.01h0C243.23,197.72,243.23,197.72,243.23,197.72z"/>
						<path id="XMLID_295_" class="st23" d="M241.57,192.18c0.3,0.12,0.62,0.21,0.94,0.26c0.39,0.06,0.8,0.07,1.19,0.03
							c0.13-0.01,0.26-0.04,0.39-0.06c-0.57-0.16-0.61-0.61-0.62-0.76c0.02-0.18,0.09-0.81,1.09-0.8c0.91,0.01,1.13,0.53,1.16,0.76
							c0.1-0.01,0.2-0.02,0.3-0.04c0.09-0.07,0.18-0.13,0.27-0.2c0.11-0.08,0.21-0.16,0.31-0.25c0.1-0.09,0.2-0.18,0.29-0.27
							c1.33-1.28,1.32-4.53,1.64-4.3c0.25,0.17,0.47,0.1,0.66-0.09c-0.15,0.05-0.3,0.06-0.41-0.01c-0.18-0.11,0.01-1.02,0.14-2.41
							c-0.02,0.01-0.04,0.01-0.06,0.03c-0.25,0.16-0.57-2-1.78-3.01c-1.22-1.01-1.31-1.69-1.31-1.69c-1.22,0.14-2.41,0.58-4.41,2.17
							c-1.59,1.26-3,2.52-3.64,2.69c-0.06,0.02-0.1-0.05-0.15-0.13c0.13,1.36,0.31,2.25,0.13,2.36c-0.1,0.06-0.24,0.06-0.39,0.02
							c0.18,0.18,0.4,0.25,0.65,0.08c0.32-0.23,0.31,3.02,1.64,4.3c0.19,0.19,0.4,0.36,0.61,0.52c0.13,0.1,0.26,0.21,0.4,0.3
							C240.91,191.87,241.23,192.05,241.57,192.18z"/>
						<path id="XMLID_294_" class="st21" d="M237.06,181.67c0.06-1.19,1.15-5.5,6.18-5.5c5.03,0,6.12,4.31,6.18,5.5
							c0.04,0.77-0.04,1.22,0.02,1.48c0.02-0.26,0.04-0.6,0.04-1.04c0-2.27-0.92-4.61-2.41-5c-0.71-0.19-0.81-0.88-2.4-1.36
							c-2.54-0.76-5.41,0.29-6.87,2.73c-1.03,1.71-1.08,4.1-0.97,4.93C237.19,183.23,237,182.8,237.06,181.67z"/>
						<path id="XMLID_293_" class="st21" d="M237.7,184.23c0.64-0.17,2.05-1.43,3.64-2.69c2-1.59,3.19-2.03,4.41-2.17
							c0,0,0.1,0.68,1.31,1.69c1.22,1.01,1.53,3.17,1.78,3.01c0.02-0.01,0.04-0.02,0.06-0.03c0.01-0.14,0.03-0.29,0.04-0.44
							c0.12-1.64,0.11-2.18-0.05-2.77c-1.24-4.58-5.66-4.25-5.66-4.25s-4.27-0.4-5.64,4.18c-0.18,0.61-0.2,1.2-0.07,2.84
							c0.01,0.17,0.03,0.34,0.04,0.49C237.61,184.18,237.65,184.24,237.7,184.23z"/>
						<path id="XMLID_292_" class="st24" d="M237.69,186.45c0.18-0.11,0-1-0.13-2.36c-0.02-0.16-0.03-0.32-0.04-0.49
							c-0.12-1.64-0.11-2.24,0.07-2.84c1.37-4.58,5.64-4.18,5.64-4.18s4.42-0.33,5.66,4.25c0.16,0.6,0.18,1.13,0.05,2.77
							c-0.01,0.15-0.02,0.3-0.04,0.44c-0.13,1.39-0.32,2.3-0.14,2.41c0.11,0.07,0.26,0.06,0.41,0.01c0.11-0.04,0.22-0.1,0.32-0.19
							c0.17-0.14,0.31-0.35,0.39-0.6c-0.06-0.02-0.16,0.04-0.21-0.07c-0.06-0.12-0.03-0.68,0.02-0.8c0.05-0.12,0.1-0.18,0.3-0.14
							c0.01,0,0.02,0.01,0.03,0.01c0.02-0.56-0.05-1.1-0.34-1.21c-0.16-0.06-0.23-0.16-0.26-0.3c-0.06-0.27,0.01-0.71-0.02-1.48
							c-0.06-1.19-1.15-5.5-6.18-5.5c-5.03,0-6.12,4.31-6.18,5.5c-0.06,1.13,0.13,1.56-0.23,1.75c-0.02,0.01-0.04,0.02-0.06,0.03
							c-0.45,0.17-0.37,1.34-0.25,2.05c0.07,0.4,0.32,0.71,0.59,0.87c0.07,0.04,0.13,0.07,0.2,0.09
							C237.45,186.51,237.59,186.52,237.69,186.45z"/>
						<path id="XMLID_291_" class="st25" d="M249.71,184.8c-0.05,0.12-0.08,0.68-0.02,0.8c0.05,0.11,0.15,0.05,0.21,0.07
							c0.01,0,0.02,0.01,0.02,0.01c0.06,0.05-0.07,0.75-0.03,0.82c0.01,0.02,0.04,0.03,0.06,0.04c-0.03,0.14-0.17,0.69-0.45,1.37
							c-0.15,0.37-0.35,0.79-0.59,1.21c-0.54,0.93-1.4,2.02-2.63,2.38c-0.09,0.03-0.18,0.05-0.27,0.07c-0.1,0.02-0.2,0.03-0.3,0.04
							c-0.03-0.23-0.25-0.75-1.16-0.76c-1-0.01-1.07,0.61-1.09,0.8c0.01,0.15,0.05,0.6,0.62,0.76c0.12,0.03,0.27,0.06,0.45,0.06
							c0.85,0.01,1.11-0.44,1.16-0.69c0.2-0.02,0.39-0.05,0.59-0.1c1.05-0.29,2-1.13,2.77-2.47c0.17-0.29,0.31-0.58,0.44-0.87
							c0.4-0.89,0.61-1.66,0.63-1.8c0.01,0,0.02-0.01,0.03-0.01c0.07-0.05,0.12-0.51,0.16-1.03c0.04-0.5-0.11-0.77-0.29-0.82
							c-0.01,0-0.02-0.01-0.03-0.01C249.82,184.62,249.76,184.68,249.71,184.8z"/>
						<path id="XMLID_290_" class="st26" d="M242.35,201.43c-0.36-0.81-0.77-1.28-0.81-1.96c-0.27,0.33-0.45,0.67-0.42,1
							c0.1,1.07-3.08-2.61-3.38-4.37c-0.06,0.34-0.06,1.05,0.92,2.44c0.66,0.94,2.22,3.62,3.35,6.02c0.23-1.45,0.41-2.56,0.48-2.98
							C242.43,201.54,242.38,201.49,242.35,201.43z"/>
						<path id="XMLID_289_" class="st26" d="M245.34,200.47c0.03-0.32-0.15-0.66-0.42-1c-0.04,0.68-0.44,1.14-0.81,1.96
							c-0.03,0.06-0.08,0.11-0.14,0.14c0.08,0.44,0.27,1.62,0.51,3.16c1.1-2.45,2.66-5.23,3.34-6.2c1.03-1.46,0.98-2.17,0.91-2.48
							C248.48,197.8,245.24,201.55,245.34,200.47z"/>
						<path id="XMLID_288_" class="st26" d="M238.26,199.57C238.26,199.58,238.26,199.58,238.26,199.57l0.01,0
							C238.27,199.57,238.27,199.57,238.26,199.57z"/>
						<path id="XMLID_287_" class="st27" d="M244.11,201.43c0.36-0.81,0.77-1.28,0.81-1.96c-0.6-0.74-1.61-1.42-1.69-1.75h0
							c-0.07,0.32-1.09,1.01-1.69,1.75c0.04,0.68,0.44,1.14,0.81,1.96c0.03,0.06,0.08,0.11,0.14,0.14
							c-0.08,0.42-0.26,1.53-0.48,2.98c0.67,1.43,1.2,2.76,1.29,3.58c0.09-0.78,0.56-2.04,1.17-3.4c-0.24-1.53-0.43-2.72-0.51-3.16
							C244.03,201.54,244.09,201.49,244.11,201.43z"/>
						<path id="XMLID_286_" class="st28" d="M247.42,194.09c-0.07-0.12-0.18-0.08-0.37,0.09c-0.47,0.42-1.46,1.64-3.78,3.42
							c-0.02,0.02-0.03,0.04-0.04,0.06c-0.01-0.02-0.02-0.04-0.04-0.06c-2.3-1.76-3.3-2.98-3.77-3.41c-0.2-0.18-0.31-0.22-0.38-0.1
							c-0.3,0.5-0.6,0.84-0.85,1.09c0,0,0.01,0,0.01,0s-0.01,0-0.01,0.01c-0.09,0.09-0.17,0.16-0.23,0.23
							c-0.07,0.11-0.14,0.27-0.18,0.49c-0.01,0.04-0.02,0.1-0.04,0.18c0.3,1.77,3.48,5.45,3.38,4.37c-0.03-0.32,0.15-0.66,0.42-1
							c0.6-0.74,1.61-1.42,1.69-1.75c0,0,0-0.01,0-0.01c0,0,0,0.01,0,0.01c0.07,0.32,1.09,1.01,1.69,1.75
							c0.27,0.33,0.45,0.67,0.42,1c-0.1,1.08,3.13-2.67,3.39-4.42c-0.01-0.06-0.02-0.1-0.03-0.14c-0.03-0.2-0.09-0.35-0.16-0.45
							C248.3,195.21,247.85,194.82,247.42,194.09z"/>
						<path id="XMLID_285_" class="st25" d="M256,198.63c-0.19-0.27-4.48-1.75-5.88-2.26c0.14,0.16,0.28,0.33,0.39,0.53
							c0.61,1.1,0.65,1.77,1.08,2.1c0.43,0.32-3.39,0.57-3.39,0.57l2.41,1.82c0,0-2.7,3.08-4.52,4.41
							c-0.56,0.41-2.35,2.06-2.78,2.77c0.1,0.48,0.27,1.19,0.31,1.48c0.02,0.13,0.03,0.24,0.05,0.37c3.32-0.04,6.46-0.82,9.26-2.2
							c0.09-1.66-0.2-8.2,2.94-9.59c0.07-0.03,0.14,0.04,0.22,0.18c0,0,0,0,0,0C256.07,198.75,256.04,198.68,256,198.63z"/>
						<path id="XMLID_284_" class="st29" d="M243.31,208.58L243.31,208.58c-0.51-0.44-2.36-2.36-2.93-2.77
							c-1.82-1.33-4.52-4.41-4.52-4.41l2.4-1.81c0,0,0-0.01-0.01-0.01c-0.25-0.02-3.79-0.26-3.37-0.57c0.43-0.32,0.47-1,1.08-2.1
							c0.12-0.22,0.27-0.4,0.42-0.57c-1.46,0.53-5.62,1.97-5.81,2.23c3.36,0.17,3.03,7.65,3.09,9.55c2.93,1.48,6.24,2.32,9.74,2.32
							c0.09,0,0.17-0.01,0.26-0.01c-0.02-0.12-0.03-0.24-0.05-0.37C243.59,209.77,243.41,209.05,243.31,208.58z"/>
						<path id="XMLID_283_" class="st30" d="M235.97,196.9c-0.61,1.1-0.65,1.77-1.08,2.1c-0.42,0.31,3.13,0.56,3.37,0.57
							c0.01,0,0.01,0,0.01,0l-0.01,0.01l-2.4,1.81c0,0,2.7,3.08,4.52,4.41c0.56,0.41,2.42,2.33,2.93,2.77l0,0
							c0.43-0.71,2.22-2.36,2.78-2.77c1.82-1.33,4.52-4.41,4.52-4.41l-2.41-1.82c0,0,3.82-0.25,3.39-0.57
							c-0.43-0.32-0.47-1-1.08-2.1c-0.11-0.2-0.25-0.38-0.39-0.53c-0.14-0.15-0.29-0.29-0.42-0.4c-0.24-0.2-0.46-0.35-0.58-0.45
							c-0.53-0.45-0.84-0.33-0.84-0.33s0.14,0.06,0.27,0.28c0.06,0.11,0.12,0.25,0.16,0.45c0.01,0.03,0.02,0.08,0.03,0.14
							c0.06,0.32,0.12,1.02-0.91,2.48c-0.68,0.96-2.24,3.75-3.34,6.2c-0.61,1.36-1.08,2.62-1.17,3.4c-0.1-0.81-0.62-2.15-1.29-3.58
							c-1.13-2.4-2.68-5.08-3.35-6.02c-0.98-1.39-0.98-2.1-0.92-2.44c0.01-0.08,0.03-0.14,0.04-0.18c0.04-0.23,0.11-0.38,0.18-0.49
							c0.1-0.15,0.2-0.21,0.23-0.23c0.01,0,0.01-0.01,0.01-0.01s0,0-0.01,0c-0.03-0.01-0.33-0.1-0.84,0.33
							c-0.1,0.08-0.25,0.19-0.43,0.33c-0.17,0.13-0.36,0.3-0.54,0.49C236.24,196.5,236.09,196.69,235.97,196.9z"/>
						<path id="XMLID_282_" class="st30" d="M230.58,198.57c-0.19-0.01-0.83,2.93-1.47,6.47c1.38,1.21,2.91,2.25,4.56,3.08
							C233.61,206.22,233.94,198.74,230.58,198.57z"/>
						<path id="XMLID_281_" class="st30" d="M255.88,198.64c-3.14,1.39-2.86,7.93-2.94,9.59c1.7-0.83,3.26-1.88,4.67-3.11
							c-0.54-3.01-1.11-5.6-1.51-6.3C256.02,198.68,255.94,198.61,255.88,198.64z"/>
					</g>
				</g>
			</g>
		</g>
		<g>
			<circle class="st31" cx="266.69" cy="217.9" r="12.09"/>
			<rect x="265.97" y="208.03" transform="matrix(0.9956 0.0942 -0.0942 0.9956 21.2929 -24.1969)" width="1.78" height="10.67"/>
			<rect x="263.82" y="217.04" transform="matrix(0.6191 0.7853 -0.7853 0.6191 273.2968 -124.2529)" width="1.83" height="5.13"/>
		</g>
	</g>
</g>
</svg>
