<?xml version="1.0" encoding="utf-8"?>
<!-- Generator: Adobe Illustrator 23.0.0, SVG Export Plug-In . SVG Version: 6.00 Build 0)  -->
<svg version="1.1" id="Capa_1" xmlns="http://www.w3.org/2000/svg" xmlns:xlink="http://www.w3.org/1999/xlink" x="0px" y="0px"
	 viewBox="0 0 400 689" style="enable-background:new 0 0 400 689;" xml:space="preserve">
<style type="text/css">
	.st0{fill:#E2E2E2;}
	.st1{fill:#FFFFFF;}
	.st2{fill:#CCCDCE;}
	.st3{fill:#F2F2F2;}
	.st4{fill:none;}
	.st5{fill:#0085B0;}
	.st6{fill:#E0EF18;}
	.st7{fill:#CECECE;}
	.st8{fill:#22272F;}
	.st9{fill:#1B2538;}
	.st10{fill:#253452;}
	.st11{fill:#F9F9F9;}
	.st12{fill:#2D3543;}
	.st13{fill:#2A3D60;}
	.st14{fill:#6C92D5;}
	.st15{fill:#587955;}
	.st16{fill:#CD7054;}
	.st17{fill:#F1CC4B;}
	.st18{fill:#DFDFDF;}
	.st19{fill:#ACACAC;}
	.st20{fill:#00D13C;}
	.st21{fill:#866A5E;}
	.st22{fill:#F7DDCB;}
	.st23{fill:#FFE6D4;}
	.st24{fill:#2D2D2D;}
	.st25{fill:#1C1B1A;}
	.st26{fill:#F5F5F5;}
	.st27{fill:#77181C;}
	.st28{fill:#EAEAEA;}
	.st29{fill:#262525;}
	.st30{fill:#11100F;}
	.st31{fill:#FFFFFF;stroke:#000000;stroke-width:6;stroke-miterlimit:10;}
	.st32{fill:#D4D4D4;}
	.st33{fill:#C2C2C2;}
	.st34{fill:#505050;}
	.st35{fill:#53C2C9;}
	.st36{fill:#008B9C;}
	.st37{fill:none;stroke:#00550B;stroke-width:4;stroke-miterlimit:10;}
	.st38{fill:#CE2458;}
	.st39{fill:#155500;}
	.st40{fill:#1549FF;}
	.st41{fill:#606060;stroke:#C6C8CC;stroke-width:6;stroke-miterlimit:10;}
	.st42{fill:#727272;}
	.st43{fill:#207235;}
	.st44{fill:#A3A3A3;}
	.st45{fill:#BCBCBC;}
	.st46{fill:#2A5936;}
	.st47{opacity:0.7;fill:#7F7F7F;}
	.st48{fill:#DAA449;}
	.st49{fill:#85B681;}
	.st50{fill:#A1DC9B;}
	.st51{fill:#90C58B;}
	.st52{fill:#DD9225;}
	.st53{opacity:0.3;}
	.st54{fill:#81C378;}
	.st55{opacity:0.5;}
	.st56{fill:#A2CADE;}
	.st57{fill:#9BAEC9;}
	.st58{fill:#9D2B3B;}
	.st59{fill:#C1D4F2;}
	.st60{fill:#534D46;}
	.st61{fill:#191819;}
	.st62{fill:#222123;}
	.st63{fill:#F3FF00;}
	.st64{fill-rule:evenodd;clip-rule:evenodd;fill:#FFFFFF;}
	.st65{fill-rule:evenodd;clip-rule:evenodd;fill:#1996B8;}
	.st66{fill:none;stroke:#5A605A;stroke-width:4;stroke-miterlimit:10;}
	.st67{fill:#FFB412;}
	.st68{fill:#BACDD1;}
	.st69{fill:#1C4D59;}
	.st70{fill:#A14329;}
	.st71{fill:#FCC083;}
	.st72{fill:#E8AA63;}
	.st73{fill:#D40000;}
	.st74{opacity:0.35;fill:#7D7D7D;}
	.st75{fill:#E5E3E3;}
	.st76{fill:#121F5E;}
	.st77{fill:#A3ADAF;}
	.st78{fill:#C2C6C6;}
	.st79{fill:#E5E5E5;stroke:#FFFFFF;stroke-miterlimit:10;}
	.st80{fill:#ACB4B5;}
	.st81{fill:#7F8384;}
	.st82{fill:#282828;}
	.st83{fill:none;stroke:#46A508;stroke-width:6;stroke-miterlimit:10;}
	.st84{fill:none;stroke:#46A508;stroke-width:6;stroke-miterlimit:10;stroke-dasharray:11.7425,11.7425;}
	.st85{fill:#C89D76;}
	.st86{opacity:0.4;}
	.st87{fill:#ADADAD;}
	.st88{fill:#76A172;}
	.st89{fill:#62835F;}
	.st90{fill:#96D090;}
	.st91{fill:#EDC3A6;}
	.st92{opacity:0.69;}
	.st93{fill:#E5D3D6;}
	.st94{opacity:0.44;}
	.st95{fill:#A5A5A5;}
	.st96{fill:#DDE5E4;}
	.st97{fill:#FDFDFD;}
	.st98{fill:#E0C348;}
	.st99{fill:#606060;}
</style>
<g>
	<g>
		<path class="st5" d="M8.5,199.36c0,22,13.29,27.86,29.54,13.03c0,0,156.99-143.3,353.09,26.97V45c0-22-18-40-40-40H48.5
			c-22,0-40,18-40,40V199.36z"/>
	</g>
	<g>
		<path class="st5" d="M390.66,637c0,22-18,40-40,40H48.98c-22,0-40-18-40-40v-46.27c0-22,18-40,40-40h301.68c22,0,40,18,40,40V637z
			"/>
	</g>
	<g>
		<path d="M114.2,383.27c-0.44-0.46-0.66-1.16-0.66-2.11v-27.73c0-0.95,0.22-1.65,0.66-2.11c0.44-0.46,1.2-0.69,2.28-0.69h11.27
			c11.53,0,17.3,5.55,17.3,16.66c0,5.49-1.48,9.64-4.43,12.45c-2.96,2.81-7.25,4.21-12.86,4.21h-11.27
			C115.4,383.95,114.64,383.72,114.2,383.27z M128.19,375.62c1.83,0,3.14-0.6,3.94-1.81c0.8-1.21,1.2-3.38,1.2-6.52
			s-0.4-5.31-1.2-6.52c-0.8-1.21-2.12-1.81-3.94-1.81h-2.89v16.66H128.19z"/>
		<path d="M148.16,383.27c-0.44-0.46-0.66-1.16-0.66-2.11v-27.73c0-0.95,0.22-1.65,0.66-2.11s1.2-0.69,2.28-0.69h20.29
			c1.04,0,1.76,0.22,2.13,0.66c0.38,0.44,0.56,1.15,0.56,2.13v2.74c0,0.98-0.19,1.69-0.56,2.13c-0.38,0.44-1.09,0.66-2.13,0.66
			h-11.47v4.21h7.06c1.04,0,1.76,0.22,2.13,0.66c0.38,0.44,0.56,1.15,0.56,2.13v2.65c0,0.98-0.19,1.69-0.56,2.13
			c-0.38,0.44-1.09,0.66-2.13,0.66h-7.06v4.21h11.42c1.04,0,1.76,0.22,2.13,0.66c0.38,0.44,0.56,1.15,0.56,2.13v2.74
			c0,0.98-0.19,1.69-0.56,2.13c-0.38,0.44-1.09,0.66-2.13,0.66h-20.24C149.36,383.95,148.6,383.72,148.16,383.27z"/>
		<path d="M181.85,383.76c-2.55-0.62-4.61-1.49-6.17-2.6c-0.65-0.46-0.98-0.9-0.98-1.32c0-0.29,0.11-0.6,0.34-0.93l2.84-4.46
			c0.29-0.42,0.59-0.64,0.88-0.64c0.26,0,0.57,0.11,0.93,0.34c1.18,0.72,2.52,1.28,4.04,1.69c1.52,0.41,3,0.61,4.43,0.61
			c1.21,0,2.08-0.16,2.62-0.49c0.54-0.33,0.81-0.83,0.81-1.52c0-0.75-0.36-1.36-1.08-1.81c-0.72-0.46-1.96-1.03-3.72-1.71
			c-3.3-1.27-5.9-2.72-7.79-4.34c-1.9-1.62-2.84-3.77-2.84-6.44c0-3.4,1.18-5.95,3.55-7.67c2.37-1.71,5.56-2.57,9.58-2.57
			c2.81,0,5.2,0.25,7.18,0.74c1.98,0.49,3.7,1.26,5.17,2.3c0.65,0.46,0.98,0.9,0.98,1.32c0,0.29-0.12,0.61-0.34,0.93l-2.84,4.46
			c-0.29,0.46-0.59,0.69-0.88,0.69c-0.2,0-0.51-0.13-0.93-0.39c-0.78-0.52-1.71-0.96-2.79-1.3s-2.24-0.51-3.48-0.51
			c-1.14,0-2.01,0.16-2.6,0.49c-0.59,0.33-0.88,0.85-0.88,1.57c0,0.59,0.2,1.08,0.61,1.47s0.92,0.73,1.54,1
			c0.62,0.28,1.7,0.73,3.23,1.35c2.45,0.98,4.38,1.92,5.78,2.82c1.4,0.9,2.46,1.98,3.18,3.23c0.72,1.26,1.08,2.85,1.08,4.78
			c0,2.94-1.1,5.32-3.31,7.13c-2.21,1.81-5.5,2.72-9.87,2.72C187.15,384.69,184.39,384.38,181.85,383.76z"/>
		<path d="M215.48,383.54c-0.38-0.28-0.69-0.76-0.96-1.45l-11.71-29.35c-0.16-0.42-0.24-0.78-0.24-1.08c0-0.69,0.36-1.03,1.08-1.03
			h9.21c1.01,0,1.65,0.44,1.91,1.32l5,15.97l5-15.97c0.26-0.88,0.9-1.32,1.91-1.32h9.21c0.72,0,1.08,0.34,1.08,1.03
			c0,0.29-0.08,0.65-0.25,1.08l-11.66,29.35c-0.26,0.69-0.58,1.17-0.96,1.45c-0.38,0.28-0.92,0.42-1.64,0.42h-5.34
			C216.41,383.95,215.86,383.81,215.48,383.54z"/>
		<path d="M240.08,383.27c-0.44-0.46-0.66-1.16-0.66-2.11v-27.73c0-0.95,0.22-1.65,0.66-2.11s1.2-0.69,2.28-0.69h5.83
			c1.11,0,1.89,0.22,2.33,0.66c0.44,0.44,0.66,1.15,0.66,2.13v27.73c0,0.95-0.22,1.65-0.66,2.11c-0.44,0.46-1.22,0.69-2.33,0.69
			h-5.83C241.28,383.95,240.52,383.72,240.08,383.27z"/>
		<path d="M258.14,380.15c-3.01-3.02-4.51-7.31-4.51-12.86c0-5.55,1.5-9.84,4.51-12.86c3-3.02,7.42-4.53,13.23-4.53
			s10.22,1.51,13.23,4.53c3,3.02,4.51,7.31,4.51,12.86c0,5.55-1.5,9.84-4.51,12.86c-3.01,3.02-7.42,4.53-13.23,4.53
			S261.14,383.18,258.14,380.15z M275.97,374.18c0.95-1.52,1.42-3.81,1.42-6.88c0-3.1-0.47-5.41-1.42-6.91
			c-0.95-1.5-2.48-2.25-4.61-2.25s-3.66,0.75-4.61,2.25c-0.95,1.5-1.42,3.81-1.42,6.91c0,3.07,0.47,5.37,1.42,6.88
			c0.95,1.52,2.48,2.28,4.61,2.28S275.03,375.7,275.97,374.18z"/>
		<path d="M35.19,442.07c-0.44-0.46-0.66-1.16-0.66-2.11v-27.73c0-0.95,0.22-1.65,0.66-2.11c0.44-0.46,1.2-0.69,2.28-0.69h11.27
			c11.53,0,17.3,5.55,17.3,16.66c0,5.49-1.48,9.64-4.43,12.45c-2.96,2.81-7.25,4.21-12.86,4.21H37.47
			C36.39,442.75,35.63,442.52,35.19,442.07z M49.18,434.42c1.83,0,3.14-0.6,3.94-1.81s1.2-3.38,1.2-6.52s-0.4-5.31-1.2-6.52
			c-0.8-1.21-2.12-1.81-3.94-1.81h-2.89v16.66H49.18z"/>
		<path d="M69.15,442.07c-0.44-0.46-0.66-1.16-0.66-2.11v-27.73c0-0.95,0.22-1.65,0.66-2.11c0.44-0.46,1.2-0.69,2.28-0.69h20.29
			c1.04,0,1.76,0.22,2.13,0.66c0.38,0.44,0.56,1.15,0.56,2.13v2.74c0,0.98-0.19,1.69-0.56,2.13c-0.38,0.44-1.09,0.66-2.13,0.66
			H80.24v4.21h7.06c1.04,0,1.76,0.22,2.13,0.66c0.38,0.44,0.56,1.15,0.56,2.13v2.65c0,0.98-0.19,1.69-0.56,2.13
			c-0.38,0.44-1.09,0.66-2.13,0.66h-7.06v4.21h11.42c1.04,0,1.75,0.22,2.13,0.66c0.38,0.44,0.56,1.15,0.56,2.13v2.74
			c0,0.98-0.19,1.69-0.56,2.13c-0.38,0.44-1.09,0.66-2.13,0.66H71.42C70.35,442.75,69.59,442.52,69.15,442.07z"/>
		<path d="M111.97,442.07c-0.44-0.46-0.66-1.16-0.66-2.11v-27.73c0-0.95,0.22-1.65,0.66-2.11c0.44-0.46,1.2-0.69,2.28-0.69h5.83
			c1.11,0,1.89,0.22,2.33,0.66c0.44,0.44,0.66,1.15,0.66,2.13v22.2h11.42c1.04,0,1.76,0.22,2.13,0.66c0.38,0.44,0.56,1.15,0.56,2.13
			v2.74c0,0.98-0.19,1.69-0.56,2.13c-0.38,0.44-1.09,0.66-2.13,0.66h-20.24C113.17,442.75,112.41,442.52,111.97,442.07z"/>
		<path d="M139.31,442.07c-0.44-0.46-0.66-1.16-0.66-2.11v-27.73c0-0.95,0.22-1.65,0.66-2.11c0.44-0.46,1.2-0.69,2.28-0.69h5.83
			c1.11,0,1.89,0.22,2.33,0.66c0.44,0.44,0.66,1.15,0.66,2.13v22.2h11.42c1.04,0,1.76,0.22,2.13,0.66c0.38,0.44,0.56,1.15,0.56,2.13
			v2.74c0,0.98-0.19,1.69-0.56,2.13c-0.38,0.44-1.09,0.66-2.13,0.66h-20.24C140.51,442.75,139.75,442.52,139.31,442.07z"/>
		<path d="M164.28,441.72c0-0.29,0.08-0.65,0.25-1.08l12.2-29.35c0.29-0.69,0.63-1.17,1-1.45s0.91-0.42,1.59-0.42h5.34
			c0.69,0,1.22,0.14,1.59,0.42c0.38,0.28,0.71,0.76,1,1.45l12.15,29.35c0.16,0.43,0.24,0.78,0.24,1.08c0,0.69-0.36,1.03-1.08,1.03
			h-9.21c-1.01,0-1.65-0.44-1.91-1.32l-1.18-3.63h-8.67l-1.13,3.63c-0.26,0.88-0.9,1.32-1.91,1.32h-9.21
			C164.64,442.75,164.28,442.41,164.28,441.72z M183.88,430.06l-1.91-6.08l-1.91,6.08H183.88z"/>
		<path d="M201.54,442.07c-0.44-0.46-0.66-1.16-0.66-2.11v-27.78c0-0.95,0.22-1.64,0.66-2.08c0.44-0.44,1.22-0.66,2.33-0.66h5.63
			c0.72,0,1.29,0.09,1.71,0.27c0.42,0.18,0.75,0.53,0.98,1.05l5.73,14.36l5.73-14.36c0.23-0.52,0.56-0.87,0.98-1.05
			c0.42-0.18,1-0.27,1.71-0.27H232c1.11,0,1.89,0.22,2.33,0.66c0.44,0.44,0.66,1.13,0.66,2.08v27.78c0,0.95-0.22,1.65-0.66,2.11
			c-0.44,0.46-1.2,0.69-2.28,0.69h-4.7c-1.08,0-1.85-0.23-2.3-0.69c-0.46-0.46-0.69-1.16-0.69-2.11v-13.38l-2.89,6.66
			c-0.39,0.95-0.82,1.63-1.27,2.03c-0.46,0.41-1.21,0.61-2.25,0.61c-1.05,0-1.8-0.2-2.25-0.61c-0.46-0.41-0.88-1.09-1.27-2.03
			l-2.89-6.66v13.38c0,0.95-0.22,1.65-0.66,2.11c-0.44,0.46-1.22,0.69-2.33,0.69h-4.7C202.74,442.75,201.98,442.52,201.54,442.07z"
			/>
		<path d="M236.21,441.72c0-0.29,0.08-0.65,0.24-1.08l12.2-29.35c0.29-0.69,0.63-1.17,1-1.45c0.38-0.28,0.91-0.42,1.59-0.42h5.34
			c0.69,0,1.22,0.14,1.59,0.42c0.38,0.28,0.71,0.76,1,1.45l12.15,29.35c0.16,0.43,0.24,0.78,0.24,1.08c0,0.69-0.36,1.03-1.08,1.03
			h-9.21c-1.01,0-1.65-0.44-1.91-1.32l-1.18-3.63h-8.67l-1.13,3.63c-0.26,0.88-0.9,1.32-1.91,1.32h-9.21
			C236.57,442.75,236.21,442.41,236.21,441.72z M255.81,430.06l-1.91-6.08l-1.91,6.08H255.81z"/>
		<path d="M274.7,442.07c-0.44-0.46-0.66-1.16-0.66-2.11v-27.73c0-0.95,0.22-1.65,0.66-2.11c0.44-0.46,1.2-0.69,2.28-0.69h11.27
			c11.53,0,17.3,5.55,17.3,16.66c0,5.49-1.48,9.64-4.43,12.45c-2.96,2.81-7.24,4.21-12.86,4.21h-11.27
			C275.9,442.75,275.14,442.52,274.7,442.07z M288.69,434.42c1.83,0,3.14-0.6,3.95-1.81c0.8-1.21,1.2-3.38,1.2-6.52
			s-0.4-5.31-1.2-6.52c-0.8-1.21-2.12-1.81-3.95-1.81h-2.89v16.66H288.69z"/>
		<path d="M304.81,441.72c0-0.29,0.08-0.65,0.24-1.08l12.2-29.35c0.29-0.69,0.63-1.17,1-1.45c0.38-0.28,0.91-0.42,1.59-0.42h5.34
			c0.69,0,1.22,0.14,1.59,0.42c0.38,0.28,0.71,0.76,1,1.45l12.15,29.35c0.16,0.43,0.24,0.78,0.24,1.08c0,0.69-0.36,1.03-1.08,1.03
			h-9.21c-1.01,0-1.65-0.44-1.91-1.32l-1.18-3.63h-8.67l-1.13,3.63c-0.26,0.88-0.9,1.32-1.91,1.32h-9.21
			C305.17,442.75,304.81,442.41,304.81,441.72z M324.41,430.06l-1.91-6.08l-1.91,6.08H324.41z"/>
		<path d="M346.66,442.56c-2.55-0.62-4.61-1.49-6.17-2.6c-0.65-0.46-0.98-0.9-0.98-1.32c0-0.29,0.11-0.6,0.34-0.93l2.84-4.46
			c0.29-0.42,0.59-0.64,0.88-0.64c0.26,0,0.57,0.11,0.93,0.34c1.18,0.72,2.52,1.28,4.04,1.69c1.52,0.41,3,0.61,4.43,0.61
			c1.21,0,2.08-0.16,2.62-0.49c0.54-0.33,0.81-0.83,0.81-1.52c0-0.75-0.36-1.36-1.08-1.81c-0.72-0.46-1.96-1.03-3.72-1.71
			c-3.3-1.27-5.9-2.72-7.79-4.34c-1.89-1.62-2.84-3.76-2.84-6.44c0-3.4,1.18-5.95,3.55-7.67c2.37-1.71,5.56-2.57,9.58-2.57
			c2.81,0,5.2,0.25,7.18,0.73c1.98,0.49,3.7,1.26,5.17,2.3c0.65,0.46,0.98,0.9,0.98,1.32c0,0.29-0.11,0.61-0.34,0.93l-2.84,4.46
			c-0.29,0.46-0.59,0.69-0.88,0.69c-0.2,0-0.51-0.13-0.93-0.39c-0.78-0.52-1.71-0.96-2.79-1.3c-1.08-0.34-2.24-0.51-3.48-0.51
			c-1.14,0-2.01,0.16-2.6,0.49c-0.59,0.33-0.88,0.85-0.88,1.57c0,0.59,0.2,1.08,0.61,1.47c0.41,0.39,0.92,0.73,1.54,1
			c0.62,0.28,1.7,0.73,3.23,1.35c2.45,0.98,4.38,1.92,5.78,2.82c1.4,0.9,2.47,1.98,3.18,3.23c0.72,1.26,1.08,2.85,1.08,4.78
			c0,2.94-1.1,5.32-3.31,7.13c-2.21,1.81-5.5,2.72-9.87,2.72C351.96,443.49,349.2,443.18,346.66,442.56z"/>
	</g>
	<polygon class="st6" points="199.76,86.93 213.23,114.22 243.34,118.59 221.55,139.83 226.7,169.83 199.76,155.67 172.83,169.83 
		177.97,139.83 156.18,118.59 186.29,114.22 	"/>
	<polygon class="st6" points="137.58,170.15 146.32,187.86 165.86,190.7 151.72,204.48 155.06,223.94 137.58,214.75 120.11,223.94 
		123.45,204.48 109.31,190.7 128.85,187.86 	"/>
	<polygon class="st6" points="267.68,170.15 276.42,187.86 295.95,190.7 281.82,204.48 285.15,223.94 267.68,214.75 250.2,223.94 
		253.54,204.48 239.4,190.7 258.94,187.86 	"/>
	<circle class="st7" cx="200.77" cy="203.97" r="121.96"/>
	<circle class="st1" cx="199.82" cy="190.58" r="121.96"/>
	<g>
		<path class="st1" d="M178.35,632.61c0-0.49,0.15-1.02,0.44-1.61l16.86-34.09h-18.1c-1.56,0-2.62-0.33-3.18-0.99
			c-0.56-0.66-0.84-1.71-0.84-3.17v-4.09c0-1.46,0.28-2.52,0.84-3.18c0.56-0.66,1.62-0.99,3.18-0.99h33.87c2.09,0,3.5,0.3,4.23,0.91
			c0.73,0.61,1.1,1.74,1.1,3.39c0,1.85-0.32,3.36-0.95,4.53l-19.2,38.84c-0.34,0.68-0.72,1.18-1.13,1.5
			c-0.41,0.32-0.99,0.47-1.72,0.47h-13.72C178.91,634.14,178.35,633.63,178.35,632.61z"/>
	</g>
	<rect x="225.5" y="172.64" class="st5" width="26.98" height="47.97"/>
	<polygon class="st5" points="296,197.35 274.24,218.17 252.48,239 252.48,197.35 252.48,155.7 274.24,176.52 	"/>
	<g>
		<path class="st34" d="M237.61,256.87h-74.32c-2.42,0-4.39-1.96-4.39-4.39V133.31c0-2.42,1.97-4.39,4.39-4.39h74.32
			c2.42,0,4.39,1.96,4.39,4.39v119.16C242,254.9,240.04,256.87,237.61,256.87z"/>
		<rect x="167.95" y="142.67" class="st77" width="65" height="96.27"/>
		<circle class="st1" cx="200.45" cy="247.53" r="2.93"/>
		<path class="st1" d="M208.84,137.44h-16.78c-0.48,0-0.87-0.3-0.87-0.67v-1.18c0-0.37,0.39-0.67,0.87-0.67h16.78
			c0.48,0,0.87,0.3,0.87,0.67v1.18C209.71,137.14,209.32,137.44,208.84,137.44z"/>
		<path class="st34" d="M203.32,195.41h-3.63c-0.55,0-1.01-0.45-1.01-1.01v-0.02c0-0.56,0.45-1.01,1.01-1.01h3.63
			c0.35,0,0.64,0.19,0.82,0.46c6.76-0.57,8.79-4.61,9.4-7.04c-0.19-0.04-0.37-0.11-0.54-0.2v-10.53c-2.42-4.44-7.14-7.46-12.55-7.46
			c-5.42,0-10.13,3.02-12.56,7.46v10.53c-0.29,0.16-0.62,0.26-0.98,0.26h-0.04c-0.06,0-0.1-0.03-0.16-0.03
			c1.71,5.98,7.2,10.37,13.74,10.37c4.58,0,8.65-2.16,11.26-5.51c-1.55,1.51-3.89,2.77-7.46,3.08
			C204.11,195.14,203.75,195.41,203.32,195.41z"/>
		<path class="st34" d="M228.64,220.51l-2.22-12.85c-0.8-4.66-3.89-8.61-8.21-10.52l-6.44-2.85c-2.59,3.44-6.69,5.67-11.32,5.67
			c-4.64,0-8.74-2.23-11.33-5.67l-6.44,2.85c-4.32,1.91-7.41,5.86-8.21,10.52l-2.22,12.85c-0.38,2.21,1.32,4.24,3.57,4.24h49.25
			C227.32,224.75,229.02,222.73,228.64,220.51z"/>
		<path class="st34" d="M186.92,174.3c0.36,0,0.69,0.1,0.98,0.26l0,0c0.2-2.18,0.76-4.07,2.01-6c2.06-3.17,5.62-4.79,10.54-4.79
			c4.92,0,8.48,1.63,10.54,4.79c1.26,1.93,1.81,3.82,2.01,6l0,0c0.29-0.16,0.62-0.26,0.98-0.26h0.04c0.21,0,0.41,0.06,0.6,0.12
			c-0.24-2.37-0.88-4.87-2.28-7.04c-2.38-3.69-6.4-5.59-11.9-5.59c-5.5,0-9.52,1.9-11.9,5.59c-1.4,2.17-2.04,4.66-2.28,7.04
			c0.19-0.06,0.39-0.12,0.6-0.12H186.92z"/>
		<path class="st34" d="M184.88,185.15c-0.02-0.12-0.07-0.23-0.07-0.36v-8.41c0-0.27,0.06-0.53,0.15-0.77
			c-1.68,0.35-2.97,2.35-2.97,4.77C181.98,182.77,183.23,184.74,184.88,185.15z"/>
		<path class="st34" d="M185.23,184.15c0,0.1,0.04,0.2,0.05,0.3c0.12,0.75,0.65,1.32,1.33,1.38c0.04,0,0.07,0.03,0.11,0.03h0.03
			c0.26,0,0.5-0.08,0.71-0.21v-8.65v-0.92v-0.32c-0.21-0.13-0.45-0.21-0.71-0.21h-0.03c-0.16,0-0.3,0.05-0.44,0.1
			c-0.43,0.15-0.78,0.5-0.95,0.97c-0.07,0.19-0.11,0.41-0.11,0.63V184.15z"/>
		<path class="st76" d="M214.03,186.86h-0.04c-0.15,0-0.3-0.03-0.44-0.06c-0.61,2.43-2.64,6.48-9.4,7.04
			c-0.18-0.27-0.47-0.46-0.82-0.46h-3.63c-0.55,0-1.01,0.45-1.01,1.01v0.02c0,0.55,0.45,1.01,1.01,1.01h3.63
			c0.43,0,0.79-0.27,0.93-0.65c3.57-0.31,5.9-1.57,7.46-3.08c1.67-1.63,2.43-3.54,2.76-4.92
			C214.33,186.8,214.19,186.86,214.03,186.86z"/>
		<path class="st34" d="M216.1,184.78c0,0.13-0.05,0.24-0.07,0.36c1.64-0.4,2.89-2.38,2.89-4.76c0-2.43-1.29-4.42-2.97-4.77
			c0.09,0.24,0.15,0.49,0.15,0.77V184.78z"/>
		<path class="st34" d="M214.14,175.54c-0.26,0-0.5,0.08-0.71,0.21v0.33v0.92v8.65c0.12,0.07,0.25,0.13,0.39,0.16
			c0.1,0.03,0.21,0.05,0.32,0.05h0.03c0.11,0,0.21-0.05,0.32-0.07c0.58-0.15,1.01-0.66,1.12-1.33c0.01-0.1,0.05-0.19,0.05-0.3v-6.91
			c0-0.22-0.04-0.43-0.11-0.63c-0.17-0.47-0.52-0.82-0.95-0.97c-0.14-0.05-0.28-0.1-0.44-0.1H214.14z"/>
	</g>
</g>
</svg>
