<?xml version="1.0" encoding="utf-8"?>
<!-- Generator: Adobe Illustrator 23.0.0, SVG Export Plug-In . SVG Version: 6.00 Build 0)  -->
<svg version="1.1" id="Capa_1" xmlns="http://www.w3.org/2000/svg" xmlns:xlink="http://www.w3.org/1999/xlink" x="0px" y="0px"
	 viewBox="0 0 400 689" style="enable-background:new 0 0 400 689;" xml:space="preserve">
<style type="text/css">
	.st0{fill:#E2E2E2;}
	.st1{fill:#FFFFFF;}
	.st2{fill:#CCCDCE;}
	.st3{fill:#F2F2F2;}
	.st4{fill:none;}
	.st5{fill:#0085B0;}
	.st6{fill:#E0EF18;}
	.st7{fill:#CECECE;}
	.st8{fill:#22272F;}
	.st9{fill:#1B2538;}
	.st10{fill:#253452;}
	.st11{fill:#F9F9F9;}
	.st12{fill:#2D3543;}
	.st13{fill:#2A3D60;}
	.st14{fill:#6C92D5;}
	.st15{fill:#587955;}
	.st16{fill:#CD7054;}
	.st17{fill:#F1CC4B;}
	.st18{fill:#DFDFDF;}
	.st19{fill:#ACACAC;}
	.st20{fill:#00D13C;}
	.st21{fill:#866A5E;}
	.st22{fill:#F7DDCB;}
	.st23{fill:#FFE6D4;}
	.st24{fill:#2D2D2D;}
	.st25{fill:#1C1B1A;}
	.st26{fill:#F5F5F5;}
	.st27{fill:#77181C;}
	.st28{fill:#EAEAEA;}
	.st29{fill:#262525;}
	.st30{fill:#11100F;}
	.st31{fill:#FFFFFF;stroke:#000000;stroke-width:6;stroke-miterlimit:10;}
	.st32{fill:#D4D4D4;}
	.st33{fill:#C2C2C2;}
	.st34{fill:#505050;}
	.st35{fill:#53C2C9;}
	.st36{fill:#008B9C;}
	.st37{fill:none;stroke:#00550B;stroke-width:4;stroke-miterlimit:10;}
	.st38{fill:#CE2458;}
	.st39{fill:#155500;}
	.st40{fill:#1549FF;}
	.st41{fill:#606060;stroke:#C6C8CC;stroke-width:6;stroke-miterlimit:10;}
	.st42{fill:#727272;}
	.st43{fill:#207235;}
	.st44{fill:#A3A3A3;}
	.st45{fill:#BCBCBC;}
	.st46{fill:#2A5936;}
	.st47{opacity:0.7;fill:#7F7F7F;}
	.st48{fill:#DAA449;}
	.st49{fill:#85B681;}
	.st50{fill:#A1DC9B;}
	.st51{fill:#90C58B;}
	.st52{fill:#DD9225;}
	.st53{opacity:0.3;}
	.st54{fill:#81C378;}
	.st55{opacity:0.5;}
	.st56{fill:#A2CADE;}
	.st57{fill:#9BAEC9;}
	.st58{fill:#9D2B3B;}
	.st59{fill:#C1D4F2;}
	.st60{fill:#534D46;}
	.st61{fill:#191819;}
	.st62{fill:#222123;}
	.st63{fill:#F3FF00;}
	.st64{fill-rule:evenodd;clip-rule:evenodd;fill:#FFFFFF;}
	.st65{fill-rule:evenodd;clip-rule:evenodd;fill:#1996B8;}
	.st66{fill:none;stroke:#5A605A;stroke-width:4;stroke-miterlimit:10;}
	.st67{fill:#FFB412;}
	.st68{fill:#BACDD1;}
	.st69{fill:#1C4D59;}
	.st70{fill:#A14329;}
	.st71{fill:#FCC083;}
	.st72{fill:#E8AA63;}
	.st73{fill:#D40000;}
	.st74{opacity:0.35;fill:#7D7D7D;}
	.st75{fill:#E5E3E3;}
	.st76{fill:#121F5E;}
	.st77{fill:#A3ADAF;}
	.st78{fill:#C2C6C6;}
	.st79{fill:#E5E5E5;stroke:#FFFFFF;stroke-miterlimit:10;}
	.st80{fill:#ACB4B5;}
	.st81{fill:#7F8384;}
	.st82{fill:#282828;}
	.st83{fill:none;stroke:#46A508;stroke-width:6;stroke-miterlimit:10;}
	.st84{fill:none;stroke:#46A508;stroke-width:6;stroke-miterlimit:10;stroke-dasharray:11.7425,11.7425;}
	.st85{fill:#C89D76;}
	.st86{opacity:0.4;}
	.st87{fill:#ADADAD;}
	.st88{fill:#76A172;}
	.st89{fill:#62835F;}
	.st90{fill:#96D090;}
	.st91{fill:#EDC3A6;}
	.st92{opacity:0.69;}
	.st93{fill:#E5D3D6;}
	.st94{opacity:0.44;}
	.st95{fill:#A5A5A5;}
	.st96{fill:#DDE5E4;}
	.st97{fill:#FDFDFD;}
	.st98{fill:#E0C348;}
	.st99{fill:#606060;}
</style>
<g>
	<g>
		<path class="st20" d="M8.5,199.36c0,22,13.29,27.86,29.54,13.03c0,0,156.99-143.3,353.09,26.97V45c0-22-18-40-40-40H48.5
			c-22,0-40,18-40,40V199.36z"/>
	</g>
	<g>
		<path class="st20" d="M390.66,637c0,22-18,40-40,40H48.98c-22,0-40-18-40-40v-46.27c0-22,18-40,40-40h301.68c22,0,40,18,40,40V637
			z"/>
	</g>
	<g>
		<path d="M60.81,364.2c-2.49-2.21-3.74-5.48-3.74-9.82c0-4.37,1.2-7.65,3.61-9.84c2.41-2.2,5.84-3.29,10.3-3.29
			c2.02,0,3.82,0.2,5.4,0.59c1.58,0.4,2.9,0.95,3.96,1.67c0.3,0.22,0.44,0.47,0.44,0.74c0,0.22-0.11,0.53-0.33,0.92l-1.85,3.18
			c-0.2,0.35-0.43,0.52-0.7,0.52c-0.17,0-0.46-0.1-0.85-0.3c-0.69-0.35-1.41-0.62-2.16-0.81c-0.75-0.2-1.63-0.3-2.65-0.3
			c-2.05,0-3.61,0.59-4.7,1.78c-1.08,1.18-1.63,2.9-1.63,5.14c0,2.22,0.59,3.93,1.78,5.13s2.8,1.79,4.85,1.79
			c1.78,0,3.4-0.37,4.88-1.11c0.39-0.2,0.68-0.3,0.85-0.3c0.27,0,0.51,0.17,0.7,0.52l1.85,3.18c0.22,0.4,0.33,0.7,0.33,0.92
			c0,0.27-0.15,0.52-0.44,0.74c-1.06,0.72-2.39,1.27-4,1.67c-1.6,0.39-3.42,0.59-5.44,0.59C66.79,367.51,63.3,366.4,60.81,364.2z"/>
		<path d="M84.01,364.08c-2.27-2.28-3.4-5.52-3.4-9.71s1.13-7.43,3.4-9.71c2.27-2.28,5.6-3.42,9.99-3.42c4.39,0,7.72,1.14,9.99,3.42
			s3.4,5.52,3.4,9.71s-1.13,7.43-3.4,9.71s-5.6,3.42-9.99,3.42C89.61,367.51,86.28,366.37,84.01,364.08z M97.48,359.57
			c0.71-1.15,1.07-2.88,1.07-5.2c0-2.34-0.36-4.08-1.07-5.22s-1.88-1.7-3.48-1.7c-1.6,0-2.76,0.57-3.48,1.7
			c-0.72,1.13-1.07,2.87-1.07,5.22c0,2.32,0.36,4.05,1.07,5.2c0.71,1.15,1.87,1.72,3.48,1.72
			C95.61,361.29,96.77,360.72,97.48,359.57z"/>
		<path d="M109.75,366.43c-0.33-0.35-0.5-0.88-0.5-1.59v-20.98c0-0.72,0.17-1.24,0.5-1.57c0.33-0.33,0.92-0.5,1.76-0.5h3.51
			c0.52,0,0.92,0.07,1.2,0.2c0.28,0.13,0.56,0.4,0.83,0.79l6.7,9.95v-8.84c0-0.72,0.17-1.25,0.5-1.59s0.91-0.52,1.72-0.52h4.4
			c0.84,0,1.43,0.17,1.76,0.5c0.33,0.33,0.5,0.87,0.5,1.61v20.98c0,0.72-0.17,1.24-0.5,1.57c-0.33,0.33-0.92,0.5-1.76,0.5h-3.51
			c-0.52,0-0.92-0.07-1.2-0.2c-0.28-0.14-0.56-0.4-0.83-0.8l-6.7-9.95v8.88c0,0.72-0.17,1.24-0.5,1.57s-0.92,0.5-1.76,0.5h-4.4
			C110.65,366.95,110.08,366.78,109.75,366.43z"/>
		<path d="M135.72,366.43c-0.33-0.35-0.5-0.88-0.5-1.59V343.9c0-0.72,0.17-1.25,0.5-1.59s0.91-0.52,1.72-0.52h15.32
			c0.79,0,1.33,0.17,1.61,0.5c0.28,0.33,0.43,0.87,0.43,1.61v2.07c0,0.74-0.14,1.28-0.43,1.61s-0.82,0.5-1.61,0.5h-8.66v3.15h5.33
			c0.79,0,1.33,0.17,1.61,0.5c0.28,0.33,0.43,0.87,0.43,1.61v2.07c0,0.74-0.14,1.28-0.43,1.61c-0.28,0.33-0.82,0.5-1.61,0.5h-5.33
			v7.33c0,0.72-0.17,1.25-0.5,1.59s-0.92,0.52-1.76,0.52h-4.4C136.63,366.95,136.05,366.78,135.72,366.43z"/>
		<path d="M156.59,366.43c-0.33-0.35-0.5-0.88-0.5-1.59V343.9c0-0.72,0.17-1.25,0.5-1.59c0.33-0.35,0.91-0.52,1.72-0.52h4.4
			c0.84,0,1.42,0.17,1.76,0.5c0.33,0.33,0.5,0.87,0.5,1.61v20.94c0,0.72-0.17,1.25-0.5,1.59c-0.33,0.35-0.92,0.52-1.76,0.52h-4.4
			C157.49,366.95,156.92,366.78,156.59,366.43z"/>
		<path d="M170.55,364.2c-2.49-2.21-3.74-5.48-3.74-9.82c0-4.32,1.25-7.58,3.74-9.8c2.49-2.22,5.97-3.33,10.43-3.33
			c2.02,0,3.83,0.2,5.44,0.59c1.6,0.4,2.94,0.95,4,1.67c0.3,0.22,0.44,0.47,0.44,0.74c0,0.22-0.11,0.53-0.33,0.92l-1.85,3.18
			c-0.2,0.35-0.43,0.52-0.7,0.52c-0.17,0-0.46-0.1-0.85-0.3c-1.48-0.74-3.11-1.11-4.88-1.11c-2.05,0-3.66,0.59-4.83,1.76
			s-1.76,2.89-1.76,5.16c0,2.34,0.49,4.08,1.48,5.2c0.99,1.12,2.46,1.68,4.4,1.68c0.34,0,0.73-0.03,1.17-0.09s0.78-0.13,1.05-0.2
			v-3.37h-2.37c-0.79,0-1.33-0.15-1.61-0.46c-0.28-0.31-0.43-0.83-0.43-1.57v-2.03c0-0.74,0.14-1.26,0.43-1.57
			c0.28-0.31,0.82-0.46,1.61-0.46h7.96c0.96,0,1.63,0.22,2,0.65c0.37,0.43,0.55,1.12,0.55,2.05v8.66c0,0.54-0.07,0.96-0.2,1.24
			c-0.14,0.28-0.4,0.57-0.8,0.87c-2.37,1.7-5.66,2.55-9.88,2.55C176.54,367.51,173.05,366.4,170.55,364.2z"/>
		<path d="M199.34,366.34c-1.83-0.78-3.24-1.9-4.25-3.37c-1.01-1.47-1.52-3.21-1.52-5.24V343.9c0-0.72,0.17-1.25,0.5-1.59
			s0.91-0.52,1.72-0.52h4.4c0.84,0,1.43,0.17,1.76,0.5c0.33,0.33,0.5,0.87,0.5,1.61v13.95c0,1.16,0.29,2.02,0.87,2.59
			s1.38,0.85,2.39,0.85s1.81-0.28,2.39-0.85c0.58-0.57,0.87-1.43,0.87-2.59V343.9c0-0.72,0.17-1.25,0.5-1.59
			c0.33-0.35,0.91-0.52,1.72-0.52h4.4c0.84,0,1.42,0.17,1.76,0.5c0.33,0.33,0.5,0.87,0.5,1.61v13.84c0,2.02-0.51,3.77-1.52,5.24
			c-1.01,1.47-2.43,2.59-4.26,3.37c-1.83,0.78-3.95,1.17-6.36,1.17C203.29,367.51,201.17,367.12,199.34,366.34z"/>
		<path d="M220.74,366.43c-0.33-0.35-0.5-0.88-0.5-1.59V343.9c0-0.72,0.17-1.25,0.5-1.59c0.33-0.35,0.91-0.52,1.72-0.52h8.84
			c3.7,0,6.39,0.73,8.08,2.2c1.69,1.47,2.54,3.68,2.54,6.64c0,1.78-0.3,3.27-0.91,4.5c-0.6,1.22-1.54,2.18-2.79,2.87l3.44,7.36
			c0.1,0.2,0.15,0.42,0.15,0.67c0,0.27-0.09,0.49-0.28,0.67c-0.19,0.17-0.43,0.26-0.72,0.26h-6.25c-0.39,0-0.71-0.06-0.94-0.17
			c-0.24-0.11-0.4-0.3-0.5-0.57l-2.74-6.88h-1.26v5.51c0,0.72-0.17,1.25-0.5,1.59c-0.33,0.35-0.92,0.52-1.76,0.52h-4.4
			C221.65,366.95,221.08,366.78,220.74,366.43z M230.53,353.15c0.79,0,1.41-0.21,1.87-0.63c0.46-0.42,0.68-1.05,0.68-1.89
			c0-0.86-0.23-1.5-0.68-1.92c-0.46-0.42-1.08-0.63-1.87-0.63h-2.52v5.07H230.53z"/>
		<path d="M241.37,366.17c0-0.22,0.06-0.49,0.18-0.81l9.21-22.16c0.22-0.52,0.47-0.88,0.76-1.09c0.28-0.21,0.68-0.31,1.2-0.31h4.03
			c0.52,0,0.92,0.11,1.2,0.31c0.28,0.21,0.54,0.57,0.76,1.09l9.18,22.16c0.12,0.32,0.19,0.59,0.19,0.81c0,0.52-0.27,0.78-0.81,0.78
			h-6.96c-0.77,0-1.25-0.33-1.44-1l-0.89-2.74h-6.55l-0.85,2.74c-0.2,0.67-0.68,1-1.44,1h-6.96
			C241.64,366.95,241.37,366.69,241.37,366.17z M256.17,357.37l-1.44-4.59l-1.44,4.59H256.17z"/>
		<path d="M270.9,364.2c-2.49-2.21-3.74-5.48-3.74-9.82c0-4.37,1.2-7.65,3.61-9.84s5.84-3.29,10.3-3.29c2.02,0,3.82,0.2,5.4,0.59
			c1.58,0.4,2.9,0.95,3.96,1.67c0.3,0.22,0.44,0.47,0.44,0.74c0,0.22-0.11,0.53-0.33,0.92l-1.85,3.18c-0.2,0.35-0.43,0.52-0.7,0.52
			c-0.17,0-0.46-0.1-0.85-0.3c-0.69-0.35-1.41-0.62-2.16-0.81c-0.75-0.2-1.63-0.3-2.65-0.3c-2.05,0-3.61,0.59-4.7,1.78
			c-1.08,1.18-1.63,2.9-1.63,5.14c0,2.22,0.59,3.93,1.78,5.13c1.18,1.2,2.8,1.79,4.85,1.79c1.78,0,3.4-0.37,4.88-1.11
			c0.39-0.2,0.68-0.3,0.85-0.3c0.27,0,0.51,0.17,0.7,0.52l1.85,3.18c0.22,0.4,0.33,0.7,0.33,0.92c0,0.27-0.15,0.52-0.44,0.74
			c-1.06,0.72-2.39,1.27-4,1.67c-1.6,0.39-3.42,0.59-5.44,0.59C276.88,367.51,273.39,366.4,270.9,364.2z"/>
		<path d="M293.6,366.43c-0.33-0.35-0.5-0.88-0.5-1.59V343.9c0-0.72,0.17-1.25,0.5-1.59s0.91-0.52,1.72-0.52h4.4
			c0.84,0,1.42,0.17,1.76,0.5c0.33,0.33,0.5,0.87,0.5,1.61v20.94c0,0.72-0.17,1.25-0.5,1.59s-0.92,0.52-1.76,0.52h-4.4
			C294.5,366.95,293.93,366.78,293.6,366.43z"/>
		<path d="M307.23,364.08c-2.27-2.28-3.4-5.52-3.4-9.71s1.13-7.43,3.4-9.71c2.27-2.28,5.6-3.42,9.99-3.42
			c4.39,0,7.72,1.14,9.99,3.42c2.27,2.28,3.4,5.52,3.4,9.71s-1.13,7.43-3.4,9.71c-2.27,2.28-5.6,3.42-9.99,3.42
			C312.83,367.51,309.5,366.37,307.23,364.08z M320.7,359.57c0.72-1.15,1.07-2.88,1.07-5.2c0-2.34-0.36-4.08-1.07-5.22
			c-0.71-1.13-1.87-1.7-3.48-1.7c-1.6,0-2.76,0.57-3.48,1.7c-0.72,1.13-1.07,2.87-1.07,5.22c0,2.32,0.36,4.05,1.07,5.2
			c0.71,1.15,1.87,1.72,3.48,1.72C318.83,361.29,319.98,360.72,320.7,359.57z M313.3,338.68c0-0.2,0.04-0.41,0.11-0.63l1.55-4.29
			c0.2-0.57,0.43-0.95,0.7-1.15c0.27-0.2,0.78-0.3,1.52-0.3h5.29c0.52,0,0.92,0.09,1.22,0.28c0.3,0.19,0.44,0.45,0.44,0.79
			c0,0.3-0.1,0.61-0.3,0.93l-2.37,4c-0.35,0.59-0.68,0.97-1,1.15c-0.32,0.17-0.9,0.26-1.74,0.26h-3.96
			C313.79,339.72,313.3,339.38,313.3,338.68z"/>
		<path d="M332.96,366.43c-0.33-0.35-0.5-0.88-0.5-1.59v-20.98c0-0.72,0.17-1.24,0.5-1.57c0.33-0.33,0.92-0.5,1.76-0.5h3.52
			c0.52,0,0.92,0.07,1.2,0.2c0.28,0.13,0.56,0.4,0.83,0.79l6.7,9.95v-8.84c0-0.72,0.17-1.25,0.5-1.59c0.33-0.35,0.91-0.52,1.72-0.52
			h4.4c0.84,0,1.42,0.17,1.76,0.5c0.33,0.33,0.5,0.87,0.5,1.61v20.98c0,0.72-0.17,1.24-0.5,1.57s-0.92,0.5-1.76,0.5h-3.51
			c-0.52,0-0.92-0.07-1.2-0.2s-0.56-0.4-0.83-0.8l-6.7-9.95v8.88c0,0.72-0.17,1.24-0.5,1.57c-0.33,0.33-0.92,0.5-1.76,0.5h-4.4
			C333.87,366.95,333.3,366.78,332.96,366.43z"/>
		<path d="M85.38,410.83c-0.33-0.35-0.5-0.88-0.5-1.59V388.3c0-0.72,0.17-1.25,0.5-1.59s0.91-0.52,1.72-0.52h8.51
			c8.71,0,13.06,4.19,13.06,12.58c0,4.14-1.12,7.28-3.35,9.4s-5.47,3.18-9.71,3.18H87.1C86.29,411.35,85.71,411.18,85.38,410.83z
			 M95.95,405.06c1.38,0,2.37-0.46,2.98-1.37c0.6-0.91,0.91-2.55,0.91-4.92s-0.3-4.01-0.91-4.92c-0.6-0.91-1.6-1.37-2.98-1.37h-2.18
			v12.58H95.95z"/>
		<path d="M111.02,410.83c-0.33-0.35-0.5-0.88-0.5-1.59V388.3c0-0.72,0.17-1.25,0.5-1.59s0.91-0.52,1.72-0.52h15.32
			c0.79,0,1.33,0.17,1.61,0.5s0.43,0.87,0.43,1.61v2.07c0,0.74-0.14,1.28-0.43,1.61s-0.82,0.5-1.61,0.5h-8.66v3.18h5.33
			c0.79,0,1.33,0.17,1.61,0.5c0.28,0.33,0.43,0.87,0.43,1.61v2c0,0.74-0.14,1.28-0.43,1.61c-0.28,0.33-0.82,0.5-1.61,0.5h-5.33v3.18
			h8.62c0.79,0,1.33,0.17,1.61,0.5c0.28,0.33,0.43,0.87,0.43,1.61v2.07c0,0.74-0.14,1.28-0.43,1.61c-0.28,0.33-0.82,0.5-1.61,0.5
			h-15.28C111.93,411.35,111.36,411.18,111.02,410.83z"/>
		<path d="M143.36,410.83c-0.33-0.35-0.5-0.88-0.5-1.59V388.3c0-0.72,0.17-1.25,0.5-1.59c0.33-0.35,0.91-0.52,1.72-0.52h4.4
			c0.84,0,1.42,0.17,1.76,0.5c0.33,0.33,0.5,0.87,0.5,1.61v7.33h6.59v-7.33c0-0.72,0.17-1.25,0.5-1.59
			c0.33-0.35,0.91-0.52,1.72-0.52h4.4c0.84,0,1.42,0.17,1.76,0.5s0.5,0.87,0.5,1.61v20.94c0,0.72-0.17,1.25-0.5,1.59
			s-0.92,0.52-1.76,0.52h-4.4c-0.81,0-1.39-0.17-1.72-0.52c-0.33-0.35-0.5-0.88-0.5-1.59v-7.33h-6.59v7.33
			c0,0.72-0.17,1.25-0.5,1.59c-0.33,0.35-0.92,0.52-1.76,0.52h-4.4C144.27,411.35,143.69,411.18,143.36,410.83z"/>
		<path d="M172.46,408.49c-2.27-2.28-3.4-5.52-3.4-9.71s1.13-7.43,3.4-9.71c2.27-2.28,5.6-3.42,9.99-3.42
			c4.39,0,7.72,1.14,9.99,3.42c2.27,2.28,3.4,5.52,3.4,9.71s-1.13,7.43-3.4,9.71s-5.6,3.42-9.99,3.42
			C178.06,411.91,174.73,410.77,172.46,408.49z M185.93,403.97c0.71-1.15,1.07-2.88,1.07-5.2c0-2.34-0.36-4.08-1.07-5.22
			s-1.88-1.7-3.48-1.7c-1.6,0-2.76,0.57-3.48,1.7c-0.72,1.13-1.07,2.87-1.07,5.22c0,2.32,0.36,4.05,1.07,5.2
			c0.71,1.15,1.87,1.72,3.48,1.72C184.05,405.69,185.21,405.12,185.93,403.97z"/>
		<path d="M198.19,410.83c-0.33-0.35-0.5-0.88-0.5-1.59V388.3c0-0.72,0.17-1.25,0.5-1.59s0.91-0.52,1.72-0.52h8.84
			c3.7,0,6.39,0.73,8.08,2.2c1.69,1.47,2.53,3.68,2.53,6.64c0,1.78-0.3,3.27-0.91,4.5c-0.6,1.22-1.54,2.18-2.79,2.87l3.44,7.36
			c0.1,0.2,0.15,0.42,0.15,0.67c0,0.27-0.09,0.49-0.28,0.67s-0.42,0.26-0.72,0.26h-6.25c-0.39,0-0.71-0.06-0.94-0.17
			c-0.24-0.11-0.4-0.3-0.5-0.57l-2.74-6.88h-1.26v5.51c0,0.72-0.17,1.25-0.5,1.59s-0.92,0.52-1.76,0.52h-4.4
			C199.1,411.35,198.53,411.18,198.19,410.83z M207.98,397.55c0.79,0,1.41-0.21,1.87-0.63c0.46-0.42,0.68-1.05,0.68-1.89
			c0-0.86-0.23-1.5-0.68-1.92c-0.46-0.42-1.08-0.63-1.87-0.63h-2.52v5.07H207.98z"/>
		<path d="M218.82,410.58c0-0.22,0.06-0.49,0.19-0.81l9.21-22.16c0.22-0.52,0.47-0.88,0.76-1.09c0.28-0.21,0.69-0.31,1.2-0.31h4.03
			c0.52,0,0.92,0.11,1.2,0.31c0.28,0.21,0.54,0.57,0.76,1.09l9.18,22.16c0.12,0.32,0.19,0.59,0.19,0.81c0,0.52-0.27,0.78-0.81,0.78
			h-6.96c-0.76,0-1.25-0.33-1.44-1l-0.89-2.74h-6.55l-0.85,2.74c-0.2,0.67-0.68,1-1.44,1h-6.96
			C219.09,411.35,218.82,411.09,218.82,410.58z M233.62,401.77l-1.44-4.59l-1.44,4.59H233.62z"/>
		<path d="M247.88,410.83c-0.33-0.35-0.5-0.88-0.5-1.59V388.3c0-0.72,0.17-1.25,0.5-1.59c0.33-0.35,0.91-0.52,1.72-0.52h8.84
			c3.7,0,6.39,0.73,8.08,2.2c1.69,1.47,2.53,3.68,2.53,6.64c0,1.78-0.3,3.27-0.91,4.5c-0.6,1.22-1.54,2.18-2.79,2.87l3.44,7.36
			c0.1,0.2,0.15,0.42,0.15,0.67c0,0.27-0.09,0.49-0.28,0.67c-0.18,0.17-0.42,0.26-0.72,0.26h-6.25c-0.39,0-0.71-0.06-0.94-0.17
			c-0.23-0.11-0.4-0.3-0.5-0.57l-2.74-6.88h-1.26v5.51c0,0.72-0.17,1.25-0.5,1.59c-0.33,0.35-0.92,0.52-1.76,0.52h-4.4
			C248.79,411.35,248.22,411.18,247.88,410.83z M257.67,397.55c0.79,0,1.41-0.21,1.87-0.63c0.46-0.42,0.68-1.05,0.68-1.89
			c0-0.86-0.23-1.5-0.68-1.92c-0.46-0.42-1.08-0.63-1.87-0.63h-2.52v5.07H257.67z"/>
		<path d="M271.42,410.83c-0.33-0.35-0.5-0.88-0.5-1.59V388.3c0-0.72,0.17-1.25,0.5-1.59c0.33-0.35,0.91-0.52,1.72-0.52h4.4
			c0.84,0,1.42,0.17,1.76,0.5c0.33,0.33,0.5,0.87,0.5,1.61v20.94c0,0.72-0.17,1.25-0.5,1.59c-0.33,0.35-0.92,0.52-1.76,0.52h-4.4
			C272.32,411.35,271.75,411.18,271.42,410.83z"/>
		<path d="M285.05,408.49c-2.27-2.28-3.4-5.52-3.4-9.71s1.13-7.43,3.4-9.71c2.27-2.28,5.6-3.42,9.99-3.42
			c4.39,0,7.72,1.14,9.99,3.42c2.27,2.28,3.4,5.52,3.4,9.71s-1.13,7.43-3.4,9.71s-5.6,3.42-9.99,3.42
			C290.65,411.91,287.32,410.77,285.05,408.49z M298.52,403.97c0.71-1.15,1.07-2.88,1.07-5.2c0-2.34-0.36-4.08-1.07-5.22
			s-1.88-1.7-3.48-1.7c-1.6,0-2.76,0.57-3.48,1.7c-0.72,1.13-1.07,2.87-1.07,5.22c0,2.32,0.36,4.05,1.07,5.2
			c0.71,1.15,1.87,1.72,3.48,1.72C296.64,405.69,297.8,405.12,298.52,403.97z"/>
		<path d="M313.32,411.2c-1.92-0.47-3.48-1.12-4.66-1.96c-0.49-0.34-0.74-0.68-0.74-1c0-0.22,0.09-0.46,0.26-0.7l2.15-3.37
			c0.22-0.32,0.44-0.48,0.67-0.48c0.2,0,0.43,0.09,0.7,0.26c0.89,0.54,1.91,0.97,3.05,1.28c1.15,0.31,2.26,0.46,3.35,0.46
			c0.91,0,1.57-0.12,1.98-0.37c0.41-0.25,0.61-0.63,0.61-1.15c0-0.57-0.27-1.02-0.81-1.37s-1.48-0.78-2.81-1.29
			c-2.49-0.96-4.45-2.05-5.88-3.27c-1.43-1.22-2.15-2.84-2.15-4.87c0-2.56,0.89-4.5,2.68-5.79c1.79-1.29,4.2-1.94,7.23-1.94
			c2.12,0,3.93,0.18,5.42,0.55c1.49,0.37,2.79,0.95,3.9,1.74c0.49,0.35,0.74,0.68,0.74,1c0,0.22-0.09,0.46-0.26,0.7L326.6,393
			c-0.22,0.35-0.44,0.52-0.67,0.52c-0.15,0-0.38-0.1-0.7-0.3c-0.59-0.39-1.29-0.72-2.11-0.98s-1.69-0.39-2.63-0.39
			c-0.86,0-1.52,0.12-1.96,0.37c-0.44,0.25-0.67,0.64-0.67,1.18c0,0.44,0.15,0.81,0.46,1.11c0.31,0.3,0.7,0.55,1.17,0.76
			c0.47,0.21,1.28,0.55,2.44,1.02c1.85,0.74,3.3,1.45,4.37,2.13c1.06,0.68,1.86,1.49,2.41,2.44c0.54,0.95,0.81,2.15,0.81,3.61
			c0,2.22-0.83,4.01-2.5,5.38c-1.67,1.37-4.15,2.05-7.46,2.05C317.33,411.91,315.24,411.67,313.32,411.2z"/>
		<path d="M87.55,455.23c-0.33-0.35-0.5-0.88-0.5-1.59V432.7c0-0.72,0.17-1.25,0.5-1.59s0.91-0.52,1.72-0.52h8.51
			c8.71,0,13.06,4.19,13.06,12.58c0,4.14-1.12,7.28-3.35,9.4s-5.47,3.18-9.71,3.18h-8.51C88.45,455.75,87.88,455.58,87.55,455.23z
			 M98.11,449.46c1.38,0,2.37-0.46,2.98-1.37c0.6-0.91,0.91-2.55,0.91-4.92s-0.3-4.01-0.91-4.92c-0.6-0.91-1.6-1.37-2.98-1.37h-2.18
			v12.58H98.11z"/>
		<path d="M113.19,455.23c-0.33-0.35-0.5-0.88-0.5-1.59V432.7c0-0.72,0.17-1.25,0.5-1.59s0.91-0.52,1.72-0.52h15.32
			c0.79,0,1.33,0.17,1.61,0.5s0.43,0.87,0.43,1.61v2.07c0,0.74-0.14,1.28-0.43,1.61s-0.82,0.5-1.61,0.5h-8.66v3.18h5.33
			c0.79,0,1.33,0.17,1.61,0.5c0.28,0.33,0.43,0.87,0.43,1.61v2c0,0.74-0.14,1.28-0.43,1.61c-0.28,0.33-0.82,0.5-1.61,0.5h-5.33v3.18
			h8.62c0.79,0,1.33,0.17,1.61,0.5c0.28,0.33,0.43,0.87,0.43,1.61v2.07c0,0.74-0.14,1.28-0.43,1.61c-0.28,0.33-0.82,0.5-1.61,0.5
			h-15.28C114.09,455.75,113.52,455.58,113.19,455.23z"/>
		<path d="M144.29,454.97c0-0.22,0.06-0.49,0.18-0.81l9.21-22.16c0.22-0.52,0.47-0.88,0.76-1.09c0.28-0.21,0.68-0.31,1.2-0.31h4.03
			c0.52,0,0.92,0.11,1.2,0.31c0.28,0.21,0.54,0.57,0.76,1.09l9.18,22.16c0.12,0.32,0.18,0.59,0.18,0.81c0,0.52-0.27,0.78-0.81,0.78
			h-6.96c-0.76,0-1.25-0.33-1.44-1l-0.89-2.74h-6.55l-0.85,2.74c-0.2,0.67-0.68,1-1.44,1h-6.96
			C144.56,455.75,144.29,455.49,144.29,454.97z M159.08,446.17l-1.44-4.59l-1.44,4.59H159.08z"/>
		<path d="M174.61,455.23c-0.33-0.35-0.5-0.88-0.5-1.59v-16.76h-5.33c-0.79,0-1.33-0.17-1.61-0.5c-0.28-0.33-0.43-0.87-0.43-1.61
			v-2.07c0-0.74,0.14-1.28,0.43-1.61c0.28-0.33,0.82-0.5,1.61-0.5h19.54c0.79,0,1.33,0.17,1.61,0.5c0.28,0.33,0.43,0.87,0.43,1.61
			v2.07c0,0.74-0.14,1.28-0.43,1.61c-0.28,0.33-0.82,0.5-1.61,0.5h-5.33v16.76c0,0.72-0.17,1.25-0.5,1.59
			c-0.33,0.35-0.92,0.52-1.76,0.52h-4.4C175.51,455.75,174.94,455.58,174.61,455.23z"/>
		<path d="M191.96,455.23c-0.33-0.35-0.5-0.88-0.5-1.59V432.7c0-0.72,0.17-1.25,0.5-1.59c0.33-0.35,0.91-0.52,1.72-0.52H209
			c0.79,0,1.33,0.17,1.61,0.5c0.28,0.33,0.43,0.87,0.43,1.61v2.07c0,0.74-0.14,1.28-0.43,1.61c-0.28,0.33-0.82,0.5-1.61,0.5h-8.66
			v3.18h5.33c0.79,0,1.33,0.17,1.61,0.5s0.43,0.87,0.43,1.61v2c0,0.74-0.14,1.28-0.43,1.61s-0.82,0.5-1.61,0.5h-5.33v3.18h8.62
			c0.79,0,1.33,0.17,1.61,0.5s0.43,0.87,0.43,1.61v2.07c0,0.74-0.14,1.28-0.43,1.61s-0.82,0.5-1.61,0.5h-15.28
			C192.87,455.75,192.29,455.58,191.96,455.23z"/>
		<path d="M213.2,455.23c-0.33-0.35-0.5-0.88-0.5-1.59v-20.98c0-0.71,0.17-1.24,0.5-1.57s0.92-0.5,1.76-0.5h3.52
			c0.52,0,0.92,0.07,1.2,0.2c0.28,0.14,0.56,0.4,0.83,0.79l6.7,9.95v-8.84c0-0.72,0.17-1.25,0.5-1.59s0.91-0.52,1.72-0.52h4.4
			c0.84,0,1.42,0.17,1.76,0.5c0.33,0.33,0.5,0.87,0.5,1.61v20.98c0,0.72-0.17,1.24-0.5,1.57c-0.33,0.33-0.92,0.5-1.76,0.5h-3.52
			c-0.52,0-0.92-0.07-1.2-0.2c-0.28-0.14-0.56-0.4-0.83-0.8l-6.7-9.95v8.88c0,0.72-0.17,1.24-0.5,1.57s-0.92,0.5-1.76,0.5h-4.4
			C214.1,455.75,213.53,455.58,213.2,455.23z"/>
		<path d="M241.67,453c-2.49-2.21-3.74-5.48-3.74-9.82c0-4.37,1.2-7.65,3.61-9.84s5.84-3.29,10.3-3.29c2.02,0,3.82,0.2,5.4,0.59
			s2.9,0.95,3.96,1.67c0.3,0.22,0.44,0.47,0.44,0.74c0,0.22-0.11,0.53-0.33,0.92l-1.85,3.18c-0.2,0.35-0.43,0.52-0.7,0.52
			c-0.17,0-0.46-0.1-0.85-0.3c-0.69-0.35-1.41-0.62-2.16-0.81c-0.75-0.2-1.63-0.3-2.65-0.3c-2.05,0-3.61,0.59-4.7,1.78
			c-1.08,1.18-1.63,2.9-1.63,5.14c0,2.22,0.59,3.93,1.78,5.13c1.18,1.2,2.8,1.79,4.85,1.79c1.78,0,3.4-0.37,4.88-1.11
			c0.39-0.2,0.68-0.3,0.85-0.3c0.27,0,0.51,0.17,0.7,0.52l1.85,3.18c0.22,0.4,0.33,0.7,0.33,0.92c0,0.27-0.15,0.52-0.44,0.74
			c-1.06,0.72-2.39,1.27-4,1.67c-1.6,0.39-3.42,0.59-5.44,0.59C247.65,456.31,244.16,455.2,241.67,453z"/>
		<path d="M264.37,455.23c-0.33-0.35-0.5-0.88-0.5-1.59V432.7c0-0.72,0.17-1.25,0.5-1.59c0.33-0.35,0.91-0.52,1.72-0.52h4.4
			c0.84,0,1.42,0.17,1.76,0.5c0.33,0.33,0.5,0.87,0.5,1.61v20.94c0,0.72-0.17,1.25-0.5,1.59c-0.33,0.35-0.92,0.52-1.76,0.52h-4.4
			C265.27,455.75,264.7,455.58,264.37,455.23z"/>
		<path d="M278,452.88c-2.27-2.28-3.4-5.52-3.4-9.71s1.13-7.43,3.4-9.71c2.27-2.28,5.6-3.42,9.99-3.42c4.39,0,7.72,1.14,9.99,3.42
			c2.27,2.28,3.4,5.52,3.4,9.71s-1.13,7.43-3.4,9.71c-2.27,2.28-5.6,3.42-9.99,3.42C283.6,456.31,280.27,455.17,278,452.88z
			 M291.47,448.37c0.72-1.15,1.07-2.88,1.07-5.2c0-2.34-0.36-4.08-1.07-5.22c-0.71-1.13-1.87-1.7-3.48-1.7
			c-1.6,0-2.76,0.57-3.48,1.7c-0.72,1.13-1.07,2.87-1.07,5.22c0,2.32,0.36,4.05,1.07,5.2c0.71,1.15,1.87,1.72,3.48,1.72
			C289.59,450.09,290.75,449.52,291.47,448.37z M284.07,427.48c0-0.2,0.04-0.41,0.11-0.63l1.55-4.29c0.2-0.57,0.43-0.95,0.7-1.15
			s0.78-0.3,1.52-0.3h5.29c0.52,0,0.92,0.09,1.22,0.28c0.3,0.18,0.44,0.45,0.44,0.8c0,0.3-0.1,0.6-0.3,0.92l-2.37,4
			c-0.35,0.59-0.68,0.97-1,1.15c-0.32,0.17-0.9,0.26-1.74,0.26h-3.96C284.56,428.52,284.07,428.17,284.07,427.48z"/>
		<path d="M303.73,455.23c-0.33-0.35-0.5-0.88-0.5-1.59v-20.98c0-0.71,0.17-1.24,0.5-1.57c0.33-0.33,0.92-0.5,1.76-0.5h3.52
			c0.52,0,0.92,0.07,1.2,0.2c0.28,0.14,0.56,0.4,0.83,0.79l6.7,9.95v-8.84c0-0.72,0.17-1.25,0.5-1.59c0.33-0.35,0.91-0.52,1.72-0.52
			h4.4c0.84,0,1.42,0.17,1.76,0.5s0.5,0.87,0.5,1.61v20.98c0,0.72-0.17,1.24-0.5,1.57s-0.92,0.5-1.76,0.5h-3.51
			c-0.52,0-0.92-0.07-1.2-0.2s-0.56-0.4-0.83-0.8l-6.7-9.95v8.88c0,0.72-0.17,1.24-0.5,1.57c-0.33,0.33-0.92,0.5-1.76,0.5h-4.4
			C304.64,455.75,304.07,455.58,303.73,455.23z"/>
		<path d="M105.05,499.63c-0.33-0.35-0.5-0.88-0.5-1.59v-6.7l-8.62-14.76c-0.15-0.27-0.22-0.53-0.22-0.78
			c0-0.54,0.28-0.81,0.85-0.81h6.96c0.37,0,0.65,0.08,0.85,0.24c0.2,0.16,0.39,0.41,0.59,0.76l4.03,7.25l4.03-7.25
			c0.2-0.34,0.39-0.6,0.59-0.76c0.2-0.16,0.48-0.24,0.85-0.24h6.96c0.57,0,0.85,0.27,0.85,0.81c0,0.25-0.07,0.51-0.22,0.78
			l-8.62,14.76v6.7c0,0.72-0.17,1.25-0.5,1.59c-0.33,0.35-0.92,0.52-1.76,0.52h-4.4C105.95,500.15,105.38,499.98,105.05,499.63z"/>
		<path d="M134.52,499.38c0-0.22,0.06-0.49,0.18-0.81l9.21-22.16c0.22-0.52,0.47-0.88,0.76-1.09c0.28-0.21,0.68-0.31,1.2-0.31h4.03
			c0.52,0,0.92,0.11,1.2,0.31c0.28,0.21,0.54,0.57,0.76,1.09l9.18,22.16c0.12,0.32,0.19,0.59,0.19,0.81c0,0.52-0.27,0.78-0.81,0.78
			h-6.96c-0.77,0-1.25-0.33-1.44-1l-0.89-2.74h-6.55l-0.85,2.74c-0.2,0.67-0.68,1-1.44,1h-6.96
			C134.79,500.15,134.52,499.89,134.52,499.38z M149.32,490.57l-1.44-4.59l-1.44,4.59H149.32z"/>
		<path d="M164.04,497.4c-2.49-2.21-3.74-5.48-3.74-9.82c0-4.37,1.2-7.65,3.61-9.84s5.84-3.29,10.3-3.29c2.02,0,3.82,0.2,5.4,0.59
			s2.9,0.95,3.96,1.67c0.3,0.22,0.44,0.47,0.44,0.74c0,0.22-0.11,0.53-0.33,0.92l-1.85,3.18c-0.2,0.35-0.43,0.52-0.7,0.52
			c-0.17,0-0.46-0.1-0.85-0.3c-0.69-0.35-1.41-0.62-2.16-0.81c-0.75-0.2-1.63-0.3-2.65-0.3c-2.05,0-3.61,0.59-4.7,1.78
			c-1.08,1.18-1.63,2.9-1.63,5.14c0,2.22,0.59,3.93,1.78,5.13c1.18,1.2,2.8,1.79,4.85,1.79c1.78,0,3.4-0.37,4.88-1.11
			c0.39-0.2,0.68-0.3,0.85-0.3c0.27,0,0.51,0.17,0.7,0.52l1.85,3.18c0.22,0.4,0.33,0.7,0.33,0.92c0,0.27-0.15,0.52-0.44,0.74
			c-1.06,0.72-2.39,1.27-4,1.67c-1.6,0.39-3.42,0.59-5.44,0.59C170.02,500.71,166.53,499.6,164.04,497.4z"/>
		<path d="M188.31,497.4c-2.49-2.21-3.74-5.48-3.74-9.82c0-4.37,1.2-7.65,3.61-9.84c2.4-2.2,5.84-3.29,10.3-3.29
			c2.02,0,3.82,0.2,5.4,0.59c1.58,0.39,2.9,0.95,3.96,1.67c0.29,0.22,0.44,0.47,0.44,0.74c0,0.22-0.11,0.53-0.33,0.92l-1.85,3.18
			c-0.2,0.35-0.43,0.52-0.7,0.52c-0.17,0-0.46-0.1-0.85-0.3c-0.69-0.35-1.41-0.62-2.17-0.81c-0.75-0.2-1.63-0.3-2.65-0.3
			c-2.05,0-3.61,0.59-4.7,1.78c-1.09,1.18-1.63,2.9-1.63,5.14c0,2.22,0.59,3.93,1.78,5.13s2.8,1.79,4.85,1.79
			c1.78,0,3.4-0.37,4.88-1.11c0.39-0.2,0.68-0.3,0.85-0.3c0.27,0,0.5,0.17,0.7,0.52l1.85,3.18c0.22,0.4,0.33,0.7,0.33,0.92
			c0,0.27-0.15,0.52-0.44,0.74c-1.06,0.72-2.39,1.27-4,1.67s-3.42,0.59-5.44,0.59C194.3,500.71,190.81,499.6,188.31,497.4z"/>
		<path d="M211.01,499.63c-0.33-0.35-0.5-0.88-0.5-1.59V477.1c0-0.72,0.17-1.25,0.5-1.59c0.33-0.35,0.91-0.52,1.72-0.52h4.4
			c0.84,0,1.42,0.17,1.76,0.5c0.33,0.33,0.5,0.87,0.5,1.61v20.94c0,0.72-0.17,1.25-0.5,1.59c-0.33,0.35-0.92,0.52-1.76,0.52h-4.4
			C211.92,500.15,211.35,499.98,211.01,499.63z"/>
		<path d="M224.65,497.29c-2.27-2.28-3.4-5.52-3.4-9.71s1.13-7.43,3.4-9.71c2.27-2.28,5.6-3.42,9.99-3.42s7.72,1.14,9.99,3.42
			c2.27,2.28,3.4,5.52,3.4,9.71s-1.13,7.43-3.4,9.71s-5.6,3.42-9.99,3.42S226.92,499.57,224.65,497.29z M238.12,492.77
			c0.71-1.15,1.07-2.88,1.07-5.2c0-2.34-0.36-4.08-1.07-5.22c-0.72-1.13-1.88-1.7-3.48-1.7s-2.76,0.57-3.48,1.7
			c-0.72,1.13-1.07,2.87-1.07,5.22c0,2.32,0.36,4.05,1.07,5.2c0.71,1.15,1.87,1.72,3.48,1.72S237.4,493.92,238.12,492.77z"/>
		<path d="M250.38,499.63c-0.33-0.35-0.5-0.88-0.5-1.59v-20.98c0-0.71,0.17-1.24,0.5-1.57s0.92-0.5,1.76-0.5h3.52
			c0.52,0,0.92,0.07,1.2,0.2c0.28,0.14,0.56,0.4,0.83,0.79l6.7,9.95v-8.84c0-0.72,0.17-1.25,0.5-1.59s0.91-0.52,1.72-0.52h4.4
			c0.84,0,1.42,0.17,1.76,0.5c0.33,0.33,0.5,0.87,0.5,1.61v20.98c0,0.72-0.17,1.24-0.5,1.57c-0.33,0.33-0.92,0.5-1.76,0.5h-3.52
			c-0.52,0-0.92-0.07-1.2-0.2c-0.28-0.14-0.56-0.4-0.83-0.8l-6.7-9.95v8.88c0,0.72-0.17,1.24-0.5,1.57s-0.92,0.5-1.76,0.5h-4.4
			C251.29,500.15,250.71,499.98,250.38,499.63z"/>
		<path d="M276.36,499.63c-0.33-0.35-0.5-0.88-0.5-1.59V477.1c0-0.72,0.17-1.25,0.5-1.59c0.33-0.35,0.91-0.52,1.72-0.52h15.32
			c0.79,0,1.33,0.17,1.61,0.5s0.43,0.87,0.43,1.61v2.07c0,0.74-0.14,1.28-0.43,1.61s-0.82,0.5-1.61,0.5h-8.66v3.18h5.33
			c0.79,0,1.33,0.17,1.61,0.5s0.43,0.87,0.43,1.61v2c0,0.74-0.14,1.28-0.43,1.61s-0.82,0.5-1.61,0.5h-5.33v3.18h8.62
			c0.79,0,1.33,0.17,1.61,0.5s0.43,0.87,0.43,1.61v2.07c0,0.74-0.14,1.28-0.43,1.61s-0.82,0.5-1.61,0.5h-15.28
			C277.26,500.15,276.69,499.98,276.36,499.63z"/>
		<path d="M301.79,500c-1.92-0.47-3.48-1.12-4.66-1.96c-0.49-0.34-0.74-0.68-0.74-1c0-0.22,0.09-0.46,0.26-0.7l2.15-3.37
			c0.22-0.32,0.44-0.48,0.67-0.48c0.2,0,0.43,0.09,0.7,0.26c0.89,0.54,1.9,0.97,3.05,1.28s2.26,0.46,3.35,0.46
			c0.91,0,1.57-0.12,1.98-0.37c0.41-0.25,0.61-0.63,0.61-1.15c0-0.57-0.27-1.02-0.81-1.37s-1.48-0.78-2.81-1.29
			c-2.49-0.96-4.45-2.05-5.88-3.27c-1.43-1.22-2.15-2.84-2.15-4.87c0-2.56,0.89-4.5,2.68-5.79s4.2-1.94,7.23-1.94
			c2.12,0,3.93,0.18,5.42,0.55s2.79,0.95,3.9,1.74c0.49,0.35,0.74,0.68,0.74,1c0,0.22-0.09,0.46-0.26,0.7l-2.15,3.37
			c-0.22,0.35-0.44,0.52-0.67,0.52c-0.15,0-0.38-0.1-0.7-0.3c-0.59-0.39-1.29-0.72-2.11-0.98c-0.81-0.26-1.69-0.39-2.63-0.39
			c-0.86,0-1.52,0.12-1.96,0.37c-0.44,0.25-0.67,0.64-0.67,1.18c0,0.44,0.15,0.81,0.46,1.11s0.7,0.55,1.17,0.76
			c0.47,0.21,1.28,0.55,2.44,1.02c1.85,0.74,3.3,1.45,4.37,2.13c1.06,0.68,1.86,1.49,2.41,2.44c0.54,0.95,0.81,2.15,0.81,3.61
			c0,2.22-0.83,4.01-2.5,5.38c-1.67,1.37-4.15,2.05-7.46,2.05C305.8,500.71,303.72,500.47,301.79,500z"/>
	</g>
	<polygon class="st6" points="199.76,86.93 213.23,114.22 243.34,118.59 221.55,139.83 226.7,169.83 199.76,155.67 172.83,169.83 
		177.97,139.83 156.18,118.59 186.29,114.22 	"/>
	<polygon class="st6" points="137.58,170.15 146.32,187.86 165.86,190.7 151.72,204.48 155.06,223.94 137.58,214.75 120.11,223.94 
		123.45,204.48 109.31,190.7 128.85,187.86 	"/>
	<polygon class="st6" points="267.68,170.15 276.42,187.86 295.95,190.7 281.82,204.48 285.15,223.94 267.68,214.75 250.2,223.94 
		253.54,204.48 239.4,190.7 258.94,187.86 	"/>
	<circle class="st7" cx="200.77" cy="203.97" r="121.96"/>
	<circle class="st1" cx="199.82" cy="190.58" r="121.96"/>
	<g>
		<path class="st1" d="M178.5,630.97c-3.99-2.85-5.99-6.87-5.99-12.08c0-2.14,0.54-4.16,1.61-6.06c1.07-1.9,2.58-3.41,4.53-4.53
			c-1.66-1.07-2.88-2.38-3.69-3.94c-0.8-1.56-1.21-3.24-1.21-5.04c0-5.11,1.84-9.04,5.51-11.79c3.67-2.75,8.97-4.13,15.88-4.13
			c6.91,0,12.2,1.38,15.88,4.13c3.67,2.75,5.51,6.68,5.51,11.79c0,1.8-0.4,3.48-1.2,5.04c-0.8,1.56-2.03,2.87-3.69,3.94
			c1.95,1.12,3.45,2.63,4.53,4.53c1.07,1.9,1.61,3.92,1.61,6.06c0,5.21-2,9.23-5.99,12.08c-3.99,2.85-9.54,4.27-16.64,4.27
			C188.04,635.24,182.49,633.81,178.5,630.97z M200.4,618.74c0-1.41-0.44-2.48-1.31-3.21c-0.88-0.73-2.19-1.09-3.94-1.09
			c-3.46,0-5.18,1.44-5.18,4.31c0,2.82,1.73,4.23,5.18,4.23C198.65,622.97,200.4,621.56,200.4,618.74z M199.09,599.39
			c0-1.31-0.32-2.26-0.95-2.85c-0.63-0.58-1.63-0.88-2.99-0.88c-1.36,0-2.36,0.29-2.99,0.88c-0.63,0.58-0.95,1.53-0.95,2.85
			c0,2.14,1.31,3.21,3.94,3.21S199.09,601.54,199.09,599.39z"/>
	</g>
	<g>
		<path class="st46" d="M293,148.47v85.32c0,4.16-3.38,7.57-7.56,7.57H149.61c-4.16,0-7.57-3.4-7.57-7.57v-85.32H293z"/>
		<path class="st1" d="M293,133.77v14.7H142.04v-14.7c0-4.18,3.4-7.56,7.57-7.56h135.83C289.62,126.21,293,129.59,293,133.77z"/>
		<rect x="198.29" y="162.93" class="st1" width="17.33" height="17.34"/>
		<rect x="221.61" y="162.93" class="st1" width="17.33" height="17.34"/>
		<rect x="244.93" y="162.93" class="st1" width="17.33" height="17.34"/>
		<rect x="268.26" y="162.93" class="st1" width="17.33" height="17.34"/>
		<rect x="174.96" y="186.25" class="st1" width="17.33" height="17.34"/>
		<rect x="198.29" y="186.25" class="st1" width="17.33" height="17.34"/>
		<rect x="221.61" y="186.25" class="st1" width="17.33" height="17.34"/>
		<rect x="244.93" y="186.25" class="st1" width="17.33" height="17.34"/>
		<rect x="268.26" y="186.25" class="st1" width="17.33" height="17.34"/>
		<rect x="174.96" y="209.58" class="st1" width="17.33" height="17.33"/>
		<rect x="198.29" y="209.58" class="st1" width="17.33" height="17.33"/>
		<rect x="221.61" y="209.58" class="st1" width="17.33" height="17.33"/>
		<rect x="244.93" y="209.58" class="st1" width="17.33" height="17.33"/>
		<rect x="268.26" y="209.58" class="st1" width="17.33" height="17.33"/>
		<g>
			<path class="st16" d="M266.7,209.34c-3.53,5.2-7.49,10.09-11.27,15.13c-0.88,1.16-2.72,1.31-3.91,0.68
				c-3.28-1.69-5.12-5.55-7.46-7.92c-2.04-2.62,1.54-3.17,3.28-1.94c2.22,1.59,3.78,3.86,5.8,5.6c3.53-4.08,7.79-7.76,10.79-12.2
				C265.16,206.84,268.44,206.77,266.7,209.34z"/>
		</g>
		<path class="st17" d="M164.89,136.86c0,2.65-2.15,4.8-4.8,4.8l0,0c-2.65,0-4.79-2.15-4.79-4.8v-17.83c0-2.65,2.15-4.8,4.79-4.8
			l0,0c2.65,0,4.8,2.15,4.8,4.8V136.86z"/>
		<path class="st17" d="M222.32,136.86c0,2.65-2.15,4.8-4.79,4.8l0,0c-2.65,0-4.8-2.15-4.8-4.8v-17.83c0-2.65,2.14-4.8,4.8-4.8l0,0
			c2.65,0,4.79,2.15,4.79,4.8V136.86z"/>
		<path class="st17" d="M279.75,136.86c0,2.65-2.15,4.8-4.8,4.8l0,0c-2.65,0-4.8-2.15-4.8-4.8v-17.83c0-2.65,2.15-4.8,4.8-4.8l0,0
			c2.65,0,4.8,2.15,4.8,4.8V136.86z"/>
		<g>
			<circle id="XMLID_329_" class="st3" cx="145.64" cy="227.12" r="37.91"/>
			<g id="XMLID_305_">
				<path id="XMLID_328_" class="st4" d="M156.18,225.63c0.49-1.2,0.74-2.15,0.8-2.4c-0.05-0.02-0.09-0.04-0.11-0.07
					c-0.08-0.12,0.15-1.34,0.05-1.43c-0.01-0.01-0.03-0.02-0.04-0.02c-0.14,0.43-0.39,0.79-0.69,1.04
					C156.19,223.69,156.19,224.66,156.18,225.63z"/>
				<path id="XMLID_327_" class="st21" d="M154.48,223.23c-0.56-0.4-0.54,5.28-2.87,7.53c-0.17,0.16-0.34,0.32-0.51,0.47
					c-0.18,0.15-0.36,0.3-0.55,0.44c0,0.08,0,0.16,0,0.24c2.15-0.63,3.66-2.53,4.6-4.17c0.42-0.73,0.76-1.46,1.03-2.11
					c0.01-0.97,0.01-1.94,0-2.88c-0.18,0.15-0.37,0.26-0.56,0.33C155.31,223.41,154.92,223.53,154.48,223.23z"/>
				<path id="XMLID_326_" class="st21" d="M136.38,238.35c-0.06,0.03-0.24,0.14-0.41,0.4C136.09,238.64,136.23,238.51,136.38,238.35
					z"/>
				<path id="XMLID_325_" class="st21" d="M150.56,232.21c0.05,1.25,0.31,2.89,1.33,4.38c0.34-0.3,0.52-0.37,0.65-0.16
					c0.75,1.28,1.54,1.95,1.98,2.39c-0.22-0.38-0.47-0.48-0.47-0.48s0.54-0.21,1.47,0.58c0.22,0.18,0.6,0.44,1.01,0.79
					c-0.49-2.43-0.39-7.93-0.35-13.35c-0.22,0.49-0.48,1-0.77,1.51C154.06,230.23,152.4,231.7,150.56,232.21z"/>
				<path id="XMLID_324_" class="st21" d="M136.4,238.34c0.43-0.43,0.96-1.02,1.48-1.9c0.13-0.21,0.32-0.14,0.66,0.17
					c1.18-1.72,1.34-3.65,1.35-4.94c-0.37-0.29-0.72-0.59-1.06-0.92c-2.33-2.25-2.31-7.93-2.87-7.53c-0.44,0.29-0.82,0.19-1.14-0.14
					c-0.12-0.04-0.23-0.09-0.35-0.16c-0.02,6.2,0.24,13.48-0.29,16.56c0.31-0.24,0.58-0.43,0.75-0.57
					C135.82,238.17,136.35,238.32,136.4,238.34z"/>
				<path id="XMLID_323_" class="st22" d="M150.07,232.03c0.16-0.03,0.32-0.07,0.48-0.12c0-0.08,0-0.16,0-0.24
					C150.39,231.79,150.24,231.91,150.07,232.03z"/>
				<path id="XMLID_322_" class="st22" d="M145.14,242.57c0.04,0.03,0.05,0.07,0.07,0.11c0.01-0.04,0.03-0.08,0.07-0.11
					c4.06-3.11,5.8-5.25,6.61-5.98c-1.02-1.49-1.27-3.13-1.33-4.38c-0.34,0.09-0.68,0.15-1.03,0.18c-0.1,0.43-0.54,1.22-2.03,1.21
					c-0.31,0-0.57-0.04-0.78-0.1c-0.23,0.04-0.45,0.08-0.68,0.1c-0.69,0.07-1.4,0.05-2.09-0.06c-0.56-0.09-1.12-0.24-1.65-0.45
					c-0.6-0.23-1.16-0.54-1.69-0.89c-0.24-0.16-0.48-0.34-0.71-0.53c-0.01,1.29-0.17,3.22-1.35,4.94
					C139.37,237.35,141.11,239.48,145.14,242.57z"/>
				<path id="XMLID_321_" class="st22" d="M145.21,242.77c0,0.01,0,0.01,0,0.02h0.01C145.21,242.79,145.21,242.78,145.21,242.77z"/>
				<path id="XMLID_320_" class="st23" d="M142.3,233.09c0.53,0.21,1.08,0.36,1.65,0.45c0.69,0.11,1.4,0.13,2.09,0.06
					c0.23-0.02,0.46-0.06,0.68-0.1c-1-0.28-1.06-1.07-1.09-1.33c0.04-0.32,0.15-1.41,1.9-1.39c1.59,0.02,1.97,0.92,2.02,1.33
					c0.18-0.02,0.35-0.04,0.52-0.07c0.16-0.11,0.32-0.23,0.47-0.35c0.18-0.15,0.37-0.29,0.55-0.44c0.17-0.15,0.35-0.31,0.51-0.47
					c2.33-2.25,2.31-7.93,2.87-7.53c0.44,0.3,0.83,0.18,1.15-0.15c-0.27,0.1-0.53,0.1-0.73-0.02c-0.32-0.2,0.01-1.79,0.24-4.22
					c-0.03,0.01-0.07,0.02-0.1,0.05c-0.44,0.28-0.99-3.5-3.12-5.27c-2.13-1.77-2.3-2.96-2.3-2.96c-2.13,0.24-4.21,1.01-7.72,3.8
					c-2.78,2.21-5.25,4.41-6.37,4.71c-0.1,0.03-0.17-0.08-0.26-0.24c0.23,2.38,0.54,3.93,0.23,4.13c-0.18,0.11-0.43,0.11-0.68,0.03
					c0.32,0.32,0.7,0.43,1.14,0.14c0.56-0.4,0.54,5.28,2.87,7.53c0.34,0.32,0.69,0.63,1.06,0.92c0.23,0.18,0.46,0.36,0.71,0.53
					C141.14,232.55,141.7,232.86,142.3,233.09z"/>
				<path id="XMLID_319_" class="st21" d="M134.4,214.7c0.11-2.08,2.01-9.63,10.81-9.63c8.8,0,10.7,7.55,10.81,9.63
					c0.07,1.35-0.07,2.13,0.04,2.59c0.04-0.45,0.07-1.04,0.07-1.82c0-3.97-1.61-8.07-4.22-8.75c-1.25-0.33-1.41-1.54-4.19-2.38
					c-4.44-1.33-9.46,0.51-12.02,4.78c-1.79,2.99-1.89,7.18-1.7,8.63C134.62,217.43,134.3,216.67,134.4,214.7z"/>
				<path id="XMLID_318_" class="st21" d="M135.53,219.17c1.12-0.3,3.6-2.5,6.37-4.71c3.51-2.79,5.59-3.56,7.72-3.8
					c0,0,0.17,1.2,2.3,2.96c2.13,1.77,2.68,5.55,3.12,5.27c0.03-0.02,0.07-0.03,0.1-0.05c0.02-0.25,0.05-0.51,0.07-0.77
					c0.22-2.87,0.19-3.81-0.09-4.85c-2.17-8.01-9.91-7.44-9.91-7.44s-7.47-0.7-9.88,7.32c-0.32,1.06-0.35,2.11-0.13,4.98
					c0.02,0.3,0.05,0.59,0.07,0.86C135.36,219.08,135.43,219.19,135.53,219.17z"/>
				<path id="XMLID_317_" class="st24" d="M135.51,223.06c0.31-0.19,0-1.75-0.23-4.13c-0.03-0.28-0.05-0.56-0.07-0.86
					c-0.22-2.87-0.19-3.91,0.13-4.98c2.4-8.02,9.88-7.32,9.88-7.32s7.74-0.57,9.91,7.44c0.28,1.04,0.31,1.98,0.09,4.85
					c-0.02,0.27-0.04,0.52-0.07,0.77c-0.23,2.43-0.56,4.02-0.24,4.22c0.19,0.12,0.45,0.11,0.73,0.02c0.19-0.07,0.38-0.18,0.56-0.33
					c0.3-0.25,0.55-0.61,0.69-1.04c-0.11-0.03-0.27,0.07-0.36-0.13c-0.1-0.22-0.05-1.2,0.04-1.41c0.09-0.21,0.18-0.31,0.52-0.25
					c0.02,0,0.03,0.01,0.05,0.02c0.04-0.98-0.08-1.92-0.6-2.12c-0.28-0.11-0.4-0.27-0.46-0.53c-0.11-0.47,0.02-1.25-0.04-2.59
					c-0.11-2.08-2.01-9.63-10.81-9.63c-8.8,0-10.7,7.55-10.81,9.63c-0.1,1.97,0.23,2.73-0.4,3.06c-0.04,0.02-0.06,0.04-0.1,0.06
					c-0.79,0.3-0.66,2.34-0.44,3.6c0.12,0.7,0.56,1.24,1.03,1.52c0.12,0.07,0.23,0.12,0.35,0.16
					C135.08,223.17,135.32,223.17,135.51,223.06z"/>
				<path id="XMLID_316_" class="st25" d="M156.55,220.17c-0.09,0.21-0.14,1.19-0.04,1.41c0.09,0.19,0.25,0.09,0.36,0.13
					c0.01,0,0.03,0.01,0.04,0.02c0.11,0.09-0.13,1.31-0.05,1.43c0.02,0.03,0.06,0.06,0.11,0.07c-0.05,0.25-0.3,1.2-0.8,2.4
					c-0.27,0.65-0.61,1.38-1.03,2.11c-0.94,1.64-2.46,3.54-4.6,4.17c-0.16,0.05-0.31,0.08-0.48,0.12c-0.17,0.03-0.35,0.06-0.52,0.07
					c-0.05-0.41-0.43-1.31-2.02-1.33c-1.75-0.02-1.87,1.07-1.9,1.39c0.03,0.26,0.1,1.05,1.09,1.33c0.22,0.06,0.47,0.1,0.78,0.1
					c1.49,0.02,1.93-0.77,2.03-1.21c0.35-0.03,0.69-0.09,1.03-0.18c1.84-0.51,3.5-1.98,4.85-4.33c0.29-0.51,0.55-1.02,0.77-1.51
					c0.71-1.56,1.06-2.9,1.1-3.15c0.02-0.01,0.04-0.01,0.06-0.02c0.12-0.08,0.21-0.89,0.29-1.81c0.07-0.87-0.2-1.34-0.5-1.44
					c-0.02-0.01-0.03-0.01-0.05-0.02C156.73,219.86,156.64,219.96,156.55,220.17z"/>
				<path id="XMLID_315_" class="st26" d="M143.66,249.28c-0.64-1.43-1.35-2.24-1.41-3.42c-0.47,0.58-0.79,1.18-0.74,1.74
					c0.18,1.88-5.38-4.56-5.91-7.65c-0.1,0.59-0.1,1.83,1.61,4.26c1.16,1.64,3.88,6.33,5.86,10.54c0.39-2.54,0.71-4.49,0.84-5.22
					C143.81,249.46,143.71,249.38,143.66,249.28z"/>
				<path id="XMLID_314_" class="st26" d="M148.9,247.6c0.05-0.57-0.27-1.16-0.74-1.74c-0.07,1.19-0.78,2-1.41,3.42
					c-0.05,0.1-0.14,0.18-0.25,0.25c0.14,0.76,0.47,2.84,0.89,5.53c1.92-4.28,4.65-9.16,5.84-10.84c1.8-2.56,1.71-3.79,1.6-4.35
					C154.39,242.92,148.72,249.49,148.9,247.6z"/>
				<path id="XMLID_313_" class="st26" d="M136.5,246.03c0,0,0.01,0.01,0.01,0.01l0.02-0.01
					C136.53,246.03,136.52,246.03,136.5,246.03z"/>
				<path id="XMLID_312_" class="st27" d="M146.75,249.28c0.64-1.43,1.35-2.24,1.41-3.42c-1.04-1.29-2.82-2.49-2.95-3.06h-0.01
					c-0.13,0.57-1.91,1.77-2.95,3.06c0.07,1.19,0.78,2,1.41,3.42c0.05,0.1,0.14,0.18,0.25,0.25c-0.13,0.73-0.45,2.68-0.84,5.22
					c1.18,2.5,2.09,4.84,2.26,6.26c0.16-1.36,0.98-3.56,2.06-5.95c-0.42-2.68-0.75-4.76-0.89-5.53
					C146.6,249.46,146.7,249.38,146.75,249.28z"/>
				<path id="XMLID_311_" class="st28" d="M152.53,236.44c-0.12-0.21-0.31-0.14-0.65,0.16c-0.82,0.73-2.55,2.87-6.61,5.98
					c-0.04,0.03-0.05,0.07-0.07,0.11c-0.01-0.04-0.03-0.08-0.07-0.11c-4.03-3.09-5.77-5.22-6.6-5.96c-0.35-0.31-0.54-0.39-0.66-0.17
					c-0.52,0.88-1.06,1.47-1.48,1.9c0,0,0.01,0,0.01,0s-0.01,0-0.02,0.01c-0.16,0.16-0.29,0.29-0.41,0.4
					c-0.12,0.19-0.24,0.47-0.31,0.86c-0.01,0.07-0.04,0.18-0.07,0.32c0.53,3.09,6.09,9.53,5.91,7.65c-0.05-0.57,0.27-1.16,0.74-1.74
					c1.04-1.29,2.82-2.49,2.95-3.06c0-0.01,0-0.02,0-0.02c0,0.01,0,0.01,0,0.02c0.13,0.57,1.91,1.77,2.95,3.06
					c0.47,0.58,0.79,1.18,0.74,1.74c-0.18,1.9,5.48-4.68,5.93-7.74c-0.02-0.1-0.04-0.18-0.05-0.24c-0.06-0.35-0.16-0.61-0.27-0.79
					C154.07,238.39,153.29,237.71,152.53,236.44z"/>
				<path id="XMLID_310_" class="st25" d="M167.55,244.37c-0.34-0.47-7.85-3.06-10.29-3.95c0.25,0.27,0.48,0.58,0.68,0.93
					c1.08,1.92,1.13,3.1,1.89,3.67c0.76,0.57-5.93,1.01-5.93,1.01l4.21,3.18c0,0-4.72,5.4-7.91,7.72c-0.99,0.72-4.11,3.61-4.87,4.85
					c0.18,0.84,0.48,2.09,0.55,2.59c0.03,0.22,0.06,0.43,0.08,0.64c5.81-0.07,11.31-1.44,16.21-3.85
					c0.15-2.91-0.35-14.35,5.15-16.78c0.12-0.05,0.25,0.07,0.39,0.32c0,0,0-0.01,0-0.01C167.67,244.58,167.62,244.46,167.55,244.37z
					"/>
				<path id="XMLID_309_" class="st29" d="M145.35,261.78L145.35,261.78c-0.89-0.77-4.13-4.13-5.12-4.85
					c-3.19-2.33-7.91-7.72-7.91-7.72l4.2-3.17c0,0-0.01-0.01-0.01-0.01c-0.43-0.03-6.63-0.46-5.9-1c0.76-0.57,0.82-1.75,1.89-3.67
					c0.21-0.38,0.47-0.71,0.74-1c-2.55,0.93-9.84,3.45-10.17,3.91c5.88,0.3,5.3,13.39,5.4,16.71c5.13,2.59,10.91,4.05,17.05,4.05
					c0.15,0,0.31-0.01,0.46-0.01c-0.03-0.21-0.05-0.42-0.08-0.64C145.83,263.87,145.52,262.62,145.35,261.78z"/>
				<path id="XMLID_308_" class="st30" d="M132.49,241.35c-1.08,1.92-1.13,3.1-1.89,3.67c-0.73,0.55,5.47,0.98,5.9,1
					c0.02,0,0.03,0,0.03,0l-0.02,0.01l-4.2,3.17c0,0,4.72,5.4,7.91,7.72c0.99,0.72,4.23,4.08,5.12,4.85l0,0
					c0.76-1.25,3.88-4.13,4.87-4.85c3.19-2.33,7.91-7.72,7.91-7.72l-4.21-3.18c0,0,6.69-0.44,5.93-1.01
					c-0.76-0.57-0.82-1.75-1.89-3.67c-0.2-0.35-0.43-0.66-0.68-0.93c-0.24-0.27-0.5-0.5-0.74-0.71c-0.42-0.35-0.8-0.6-1.01-0.79
					c-0.93-0.79-1.47-0.58-1.47-0.58s0.25,0.1,0.47,0.48c0.11,0.19,0.21,0.44,0.27,0.79c0.01,0.06,0.03,0.14,0.05,0.24
					c0.11,0.55,0.2,1.79-1.6,4.35c-1.19,1.68-3.92,6.56-5.84,10.84c-1.07,2.38-1.89,4.59-2.06,5.95c-0.17-1.42-1.09-3.76-2.26-6.26
					c-1.98-4.21-4.7-8.89-5.86-10.54c-1.71-2.43-1.71-3.67-1.61-4.26c0.02-0.14,0.05-0.25,0.07-0.32c0.07-0.39,0.19-0.67,0.31-0.86
					c0.17-0.27,0.35-0.37,0.41-0.4c0.01-0.01,0.02-0.01,0.02-0.01s-0.01,0-0.01,0c-0.05-0.02-0.57-0.17-1.46,0.59
					c-0.17,0.14-0.44,0.33-0.75,0.57c-0.3,0.23-0.63,0.52-0.95,0.86C132.97,240.64,132.71,240.97,132.49,241.35z"/>
				<path id="XMLID_307_" class="st30" d="M123.07,244.26c-0.34-0.02-1.45,5.12-2.57,11.31c2.41,2.12,5.08,3.93,7.98,5.39
					C128.36,257.66,128.95,244.57,123.07,244.26z"/>
				<path id="XMLID_306_" class="st30" d="M167.33,244.39c-5.5,2.43-5,13.87-5.15,16.78c2.97-1.45,5.71-3.29,8.18-5.44
					c-0.94-5.28-1.94-9.8-2.64-11.02C167.58,244.46,167.45,244.34,167.33,244.39z"/>
			</g>
		</g>
	</g>
</g>
</svg>
