<?xml version="1.0" encoding="utf-8"?>
<!-- Generator: Adobe Illustrator 23.0.0, SVG Export Plug-In . SVG Version: 6.00 Build 0)  -->
<svg version="1.1" xmlns="http://www.w3.org/2000/svg" xmlns:xlink="http://www.w3.org/1999/xlink" x="0px" y="0px"
	 viewBox="0 0 1000 1000" style="enable-background:new 0 0 1000 1000;" xml:space="preserve">
<style type="text/css">
	.st0{fill:#1F3642;}
	.st1{fill:#A9BDDA;}
	.st2{opacity:0.46;fill:#A6B4BC;}
	.st3{fill:#638FBD;}
	.st4{fill:#C6D9E5;}
	.st5{fill:#192A33;}
	.st6{fill:#A6B4BC;}
	.st7{fill:#688092;}
	.st8{fill:#74C475;}
	.st9{fill:#221F21;}
</style>
<g id="Capa_1">
	<g>
		<rect x="474.15" y="588.54" class="st0" width="45.02" height="81.91"/>
		<g>
			<g>
				<path class="st0" d="M439.35,860.49c-7.88-0.93-13.52-8.07-12.6-15.95l20.64-175.76c0.92-7.88,8.05-13.53,15.95-12.6
					c7.88,0.93,13.52,8.07,12.6,15.95L455.3,847.89C454.37,855.81,447.2,861.42,439.35,860.49z"/>
			</g>
			<g>
				<path class="st0" d="M560.06,855.66l-26.73-183.12c-1.15-7.86,4.29-15.15,12.15-16.3c7.85-1.15,15.15,4.29,16.3,12.15
					l26.73,183.12c1.15,7.85-4.29,15.15-12.15,16.3C568.46,868.95,561.2,863.47,560.06,855.66z"/>
			</g>
			<g>
				<path class="st1" d="M463.3,781.25l2.44,159.99l-88.05-3.38L416.39,781c2.03-8.23,6.28-15.9,11.63-18.58
					c5.78-2.9,14.13-2.35,20.2-0.6C455.01,763.78,463.3,773.93,463.3,781.25z"/>
				<path class="st2" d="M463.3,781.25c0-1.72-0.46-3.59-1.24-5.47c-6.93,61.46-26.91,154.64-84.37,162.08l88.05,3.38L463.3,781.25z
					"/>
				<path class="st3" d="M421.82,939.55l4.65-54.3l38.47,4.06l-0.04-2.55l-38.22-4.03l10.48-122.33c-0.85,0.02-1.7,0.08-2.54,0.18
					l-7.74,90.36h-27.75l-0.27,1.1c-0.12,0.48-0.24,0.96-0.35,1.44h28.16l-7.36,85.99L421.82,939.55z"/>
				<path class="st3" d="M429.7,879.25c0,0.61,0.49,1.11,1.1,1.11c0.61,0,1.1-0.5,1.1-1.11c0-0.61-0.49-1.11-1.1-1.11
					C430.19,878.15,429.7,878.64,429.7,879.25z"/>
				<path class="st3" d="M423.72,847.24c0,0.73,0.59,1.32,1.31,1.32c0.72,0,1.31-0.59,1.31-1.32c0-0.73-0.59-1.32-1.31-1.32
					C424.31,845.92,423.72,846.51,423.72,847.24z"/>
				<path class="st4" d="M472.03,962.8c0,0-106.49,1.27-114.46-2.54c-7.97-3.8,20.93-28.41,36.06-32.97
					c28.09-8.45,68.76,2.11,75.47,17.75C475.8,960.69,472.03,962.8,472.03,962.8z"/>
				<path class="st0" d="M462.02,954.34c0,0,3.77-2.11-2.93-17.75c-0.37-0.86-0.84-1.71-1.41-2.53c5.58,3.15,9.66,6.89,11.41,10.99
					c6.71,15.64,2.93,17.75,2.93,17.75s-106.49,1.27-114.46-2.54c-2.18-1.04-1.6-3.65,0.72-6.98
					C387.18,955.24,462.02,954.34,462.02,954.34z"/>
			</g>
			<g>
				<path class="st1" d="M545.74,775.31l-2.46,160.15l88.85-3.38l-39.05-157.01c-2.05-8.24-6.34-15.92-11.73-18.6
					c-5.83-2.9-14.26-2.35-20.38-0.6C554.12,757.82,545.74,767.98,545.74,775.31z"/>
				<path class="st2" d="M545.74,775.31c0-1.72,0.46-3.59,1.25-5.47c7,61.53,27.16,154.8,85.14,162.24l-88.85,3.38L545.74,775.31z"
					/>
				<path class="st3" d="M582.71,847.6h28.41c-0.19-0.78-0.38-1.55-0.58-2.32l-0.05-0.22h-28l-7.81-90.45
					c-0.84-0.1-1.7-0.16-2.56-0.18l10.57,122.46l-38.57,4.04l0,0.14c0,0.09,0,0.18,0,0.27l-0.03,2.15l38.83-4.07l4.69,54.36
					l0.87-0.03l1.67-0.06L582.71,847.6z"/>
				<path class="st3" d="M579.66,873.41c0,0.61-0.5,1.11-1.11,1.11c-0.61,0-1.11-0.5-1.11-1.11c0-0.61,0.5-1.11,1.11-1.11
					C579.16,872.3,579.66,872.8,579.66,873.41z"/>
				<path class="st3" d="M585.69,841.36c0,0.73-0.59,1.32-1.32,1.32c-0.73,0-1.32-0.59-1.32-1.32c0-0.73,0.59-1.32,1.32-1.32
					C585.1,840.04,585.69,840.63,585.69,841.36z"/>
				<path class="st4" d="M536.94,957.04c0,0,107.47,1.27,115.5-2.54c8.04-3.81-21.12-28.44-36.39-33
					c-28.35-8.46-69.39,2.12-76.16,17.77C533.13,954.92,536.94,957.04,536.94,957.04z"/>
				<path class="st0" d="M547.04,948.57c0,0-3.81-2.12,2.96-17.77c0.37-0.86,0.85-1.71,1.42-2.54c-5.63,3.15-9.75,6.9-11.52,11
					c-6.77,15.65-2.96,17.77-2.96,17.77s107.47,1.27,115.5-2.54c2.2-1.04,1.61-3.65-0.72-6.99
					C622.56,949.46,547.04,948.57,547.04,948.57z"/>
			</g>
			<g>
				<g>
					<path class="st1" d="M433.66,648.48c-34.12,0,22.4,87.24,69.4,87.24c39.05,0,99.7-86.65,65.57-86.65L433.66,648.48z"/>
					<path class="st2" d="M568.64,649.07l-15.31-0.07c-13.09,25.31-45.59,58.59-69.79,58.59c-19.12,0-39.81-14.43-55.33-31.55
						c12.34,25.56,45.46,59.68,74.86,59.68C542.12,735.72,602.77,649.07,568.64,649.07z"/>
				</g>
				<path class="st0" d="M573.96,673.11H428.47c-6.62,0-11.99-5.37-11.99-11.99v-7.56c0-6.62,5.37-11.99,11.99-11.99h145.49
					c6.62,0,11.99,5.37,11.99,11.99v7.56C585.95,667.75,580.58,673.11,573.96,673.11z"/>
			</g>
		</g>
	</g>
	<g>
		<g>
			<g>
				<path class="st1" d="M431.25,620.36h125.27c22.2-23.53,47.9-53.01,51.96-82.52c2-15.18,3.77-36.04-1.36-48.68
					c-10.42-25.67-44.7-40.6-58.01-42.18c-34.71-4.12-69.76-5.14-104.73-3.02c-4.25,0.26-8.07,2.18-12.02,3.81
					c-20.72,8.53-42.56,26.14-49.98,43.59c-5.74,13.49-1.63,36.01,0.35,51.06C386.8,571.92,409.05,596.83,431.25,620.36z"/>
				<ellipse class="st5" cx="495.5" cy="458.36" rx="44.8" ry="15.47"/>
				<path class="st6" d="M495.5,442.89c-1.15,0-2.3,0.02-3.43,0.04c23.14,0.6,41.37,7.28,41.37,15.43
					c0,8.15-18.23,14.82-41.37,15.43c1.13,0.03,2.27,0.05,3.43,0.05c24.74,0,44.8-6.93,44.8-15.47
					C540.3,449.82,520.24,442.89,495.5,442.89z"/>
				<path class="st3" d="M519.19,620.36c5.49-58.36,15.26-119.45,52.85-165.37c-3.46-1.78-6.85-3.27-10.01-4.48
					c-15.21,19.21-25.93,40.83-33.67,63.71c-21.95-1.92-43.86-0.1-65.75,2.02c-6.51-24.21-15.8-47.37-30.94-68.18
					c-3.21,1.35-6.43,2.91-9.63,4.66c36.15,47.71,38.59,110.6,49.21,167.63h10.76c-5.96-30.89-9.53-63-16.79-93.75
					c19.93-1.91,39.87-3.45,59.86-2.03c-9.15,30.87-13.46,63.68-16.49,95.78H519.19z"/>
				<path class="st2" d="M607.12,489.16c-5.84-14.4-19.19-25.42-32.14-32.6c5.68,13.25,3.59,35.04,1.69,49.46
					c-5.7,41.45-47.74,82.52-102.52,82.52h-70.44c8.18,11.04,17.87,21.56,27.54,31.81h125.27c22.2-23.53,47.9-53.01,51.96-82.52
					C610.48,522.66,612.25,501.8,607.12,489.16z"/>
			</g>
			<path class="st0" d="M519.08,406.82c-1.05,51.08,2.46,55.73-3.48,65.37c-6.05,1.06-12.87,1.65-20.09,1.65
				c-7.23,0-14.06-0.58-20.11-1.65c-2.21-3.59-3.48-7.8-3.48-12.32v-53.05H519.08z"/>
			<path class="st7" d="M519.08,445.2l0.01,1.8c29.04,9.29,11.2,25.78-27.01,26.78c1.13,0.03,2.27,0.05,3.43,0.05
				C539.97,473.84,557.66,453.47,519.08,445.2z"/>
		</g>
		<path class="st5" d="M602.26,485.5c-8.43-1.41-18.58,17.22-22.67,41.62c-4.1,24.4-0.58,45.33,7.84,46.74
			c8.43,1.41,18.58-17.22,22.67-41.62C614.2,507.84,610.69,486.92,602.26,485.5z"/>
		<path class="st7" d="M610.11,532.24c-0.19,1.14-0.39,2.26-0.61,3.37c3.23-22.92-0.33-42.01-8.37-43.35
			c-8.03-1.35-17.64,15.53-22.06,38.25c0.16-1.12,0.33-2.25,0.52-3.39c4.1-24.4,14.25-43.03,22.67-41.62
			C610.69,486.92,614.2,507.84,610.11,532.24z"/>
		<path class="st5" d="M389.01,490.03c8.43-1.42,18.58,17.22,22.67,41.62c4.1,24.4,0.58,45.33-7.84,46.74
			c-8.43,1.42-18.58-17.22-22.67-41.62C377.07,512.37,380.58,491.44,389.01,490.03z"/>
		<path class="st7" d="M381.17,536.77c0.19,1.14,0.39,2.26,0.61,3.37c-3.23-22.92,0.33-42.01,8.37-43.35
			c8.04-1.35,17.64,15.53,22.06,38.25c-0.16-1.12-0.33-2.25-0.52-3.39c-4.1-24.4-14.25-43.03-22.67-41.62
			C380.58,491.44,377.07,512.37,381.17,536.77z"/>
	</g>
</g>
<g id="Capa_2">
	<g>
		<g>
			<g>
				<ellipse class="st0" cx="496.91" cy="253.3" rx="245.79" ry="110.39"/>
				<g>
					<path class="st1" d="M279.81,305.11c4.36,3.68,9.17,7.23,14.4,10.65c-12.73-36.63-18.25-77.3-16.92-112.07
						c-4.02,3.58-7.61,7.27-10.76,11.05C266.64,243.41,270.99,275.07,279.81,305.11z"/>
					<path class="st1" d="M727.21,214.65c-3.16-3.8-6.77-7.49-10.81-11.08c2.06,35.1-4.97,76.47-19.01,113.6
						c5.44-3.44,10.46-7.03,15.01-10.74C722.24,275.82,727.36,243.62,727.21,214.65z"/>
				</g>
			</g>
			<path class="st1" d="M563.71,409.66c-45.53-6.32-91.71-7.29-137.61-2.83c-105.57,10.26-143.13-147.86-128.08-227.44
				c7.68-40.58,52.9-69.66,91.09-78.69c69.2-16.37,143.14-17.4,212.7-2.8c37.33,7.95,74.24,33.27,88.78,69.66
				C720.94,243.59,666.83,423.97,563.71,409.66z"/>
			<path class="st2" d="M690.58,167.57c-7.18-17.99-19.84-33.27-35.31-45.09c5.2,6.92,9.53,14.45,12.75,22.54
				c30.36,76.03-23.75,256.41-126.87,242.1c-45.53-6.32-91.71-7.29-137.62-2.83c-25.04,2.43-46.26-4.61-63.86-17.83
				c20.94,27,49.52,43.97,86.41,40.38c45.9-4.46,92.09-3.49,137.61,2.83C666.83,423.97,720.94,243.59,690.58,167.57z"/>
			<path class="st0" d="M597.76,335.5c-17.59,6.83-36.42,11.02-53.77,13.4c-55.22,7.56-121.54,3.61-169.93-26.38
				c-21.73-13.47-38.62-33.58-42.7-59.38c-0.33-2.08-0.66-4.15-0.99-6.23c-7.81-49.3,28.21-94.56,77.98-98.42
				c60.02-4.66,120.31-4.66,180.33,0c49.77,3.87,85.79,49.12,77.98,98.42c-0.31,1.96-0.62,3.91-0.93,5.87
				C659.82,300.21,631.01,322.58,597.76,335.5z"/>
			<path class="st8" d="M545.09,299.58c0,9.52-19.79,26.09-44.21,26.09c-24.42,0-44.21-16.57-44.21-26.09
				c0-9.52,19.79-8.39,44.21-8.39C525.3,291.19,545.09,290.06,545.09,299.58z"/>
			<path class="st8" d="M437.22,239.39c0,7.85-6.36,14.22-14.22,14.22c-7.85,0-14.22-6.37-14.22-14.22
				c0-7.85,6.36-14.22,14.22-14.22C430.86,225.17,437.22,231.54,437.22,239.39z"/>
			<path class="st8" d="M584.88,234.84c0,7.85-6.36,14.22-14.22,14.22c-7.85,0-14.22-6.37-14.22-14.22
				c0-7.85,6.36-14.22,14.22-14.22C578.51,220.62,584.88,226.99,584.88,234.84z"/>
		</g>
		<g>
			<g>
				<polygon points="492.05,100.27 497,100.37 497.44,77.55 520.02,70.53 488.32,60.84 497.87,55.81 498.34,31.56 493.4,31.46 
					492.98,52.79 475.41,62.06 503.24,70.57 492.57,73.89 				"/>
			</g>
			<path d="M485.37,20.59c-0.11,5.92,4.59,10.8,10.5,10.92c5.91,0.12,10.8-4.59,10.92-10.5c0.12-5.91-4.59-10.8-10.5-10.92
				C490.37,9.97,485.48,14.67,485.37,20.59z"/>
			<path class="st9" d="M469.77,107.07c-0.14,7.08,11.9,13.06,26.88,13.35c14.99,0.29,27.25-5.21,27.39-12.29
				c0.14-7.08-11.9-13.06-26.88-13.35C482.17,94.49,469.91,99.99,469.77,107.07z"/>
		</g>
	</g>
</g>
<g id="Capa_3">
	<g>
		<g>
			<path class="st0" d="M668.8,574.22c-43.47,0-68.71-35.7-69.91-37.43c-4.51-6.53-2.88-15.48,3.65-20
				c6.51-4.5,15.43-2.89,19.96,3.6c1.02,1.44,23.24,32,59.13,23.53c12.89-3.04,27.24-23.06,39.36-54.91
				c2.82-7.42,11.11-11.15,18.54-8.32c7.42,2.82,11.15,11.13,8.32,18.54c-16.25,42.72-36.31,67.17-59.63,72.67
				C681.4,573.51,674.92,574.22,668.8,574.22z"/>
		</g>
		<path class="st1" d="M761.47,454.17c0,0-13.21,88.53-31.08,105.26c-17.87,16.73-58.36-14.11-55.64-26.04
			c2.23-9.79,64.67-91.75,64.67-91.75L761.47,454.17z"/>
		<path class="st3" d="M725.17,497.63l23.85-50.52l-3.08-1.75l-52.4,111.01c1,0.62,2.03,1.22,3.06,1.8l27.05-57.31
			c9.74,5.92,19.37,7.39,26.54,7.39c0.21,0,0.41,0,0.61,0c0.29-1.2,0.59-2.41,0.87-3.61C744.79,504.81,734.95,503.66,725.17,497.63z
			"/>
		<path class="st0" d="M719.71,401.11c-2.86,0.34-4.08,3.89-2.22,6.09c2.86,3.37,7.1,8.91,8.93,13.95
			c2.87,7.93,5.62,25.52,14.11,29.5c8.49,3.97,18.01,6.08,26.1-0.48c8.09-6.56,11.45-21.46,15.61-22.96
			c4.16-1.51,18.39-18.52,14.73-22.43c-2.52-2.7-17.68,16.66-21.02,15.1c-3.35-1.57,12.51-25.04,11-29.2
			c-1.51-4.15-5.46-4.75-7.69,0.01c-2.23,4.76-11.38,21.96-13.31,21.06c-1.93-0.9,7.05-27.13,7.02-30.74
			c-0.03-3.62-5.28-5.14-6.6-2.31c-1.32,2.83-9.13,27.88-11.2,28.63c-2.08,0.75-0.84-26.48-0.7-29.66c0.13-3.12-5.42-5.51-8.08-2.84
			c-2.66,2.67,0.71,34.99-2.65,37.49c-3.37,2.5-6.56,4.3-8.96,0.04C732.89,409,726.16,400.36,719.71,401.11z"/>
	</g>
</g>
<g id="Capa_4">
	<g>
		<g>
			<path class="st0" d="M330.6,688.97c-13.01-80.66,25.51-157.68,47.64-181.14c5.44-5.78,14.54-6.05,20.32-0.61
				c5.76,5.43,6.05,14.49,0.65,20.27c-0.43,0.48-25.71,28.55-38.6,87.32c-4.91,22.41-5.46,45.82-1.63,69.58
				c1.26,7.84-4.06,15.22-11.9,16.48C339.24,702.13,331.87,696.8,330.6,688.97z"/>
		</g>
		<path class="st1" d="M332.61,708.73c0,0-29.5-84.52-21.47-107.64c8.03-23.12,58.23-14.66,61.37-2.84
			c2.58,9.71-14.55,111.3-14.55,111.3L332.61,708.73z"/>
		<path class="st3" d="M344.51,653.38l2.4,55.82l3.55,0.11l-5.26-122.64c-1.18-0.09-2.36-0.14-3.55-0.17l2.72,63.32
			c-11.37-0.71-20.58,2.47-26.93,5.81c-0.18,0.09-0.36,0.19-0.54,0.29c0.3,1.2,0.6,2.4,0.91,3.6
			C323.8,656.15,333.05,652.59,344.51,653.38z"/>
		<path class="st0" d="M328.07,711.25c0,0,6.38-13,24.04-9.01c17.66,3.99,12.29,21.68,17.35,29.7c5.06,8.02,10.44,19.2,6.83,21.48
			c-3.61,2.28-16.98-10.03-19.77-14.44c-2.78-4.41-11.2,19.13-12.75,25.99c-1.55,6.87,9.97,27.35,5.56,30.13
			c-4.41,2.78-22.84-25.96-25.24-29.77C321.69,761.54,326.59,717.79,328.07,711.25z"/>
	</g>
	<g>
	</g>
	<g>
	</g>
	<g>
	</g>
	<g>
	</g>
	<g>
	</g>
	<g>
	</g>
	<g>
	</g>
	<g>
	</g>
	<g>
	</g>
	<g>
	</g>
	<g>
	</g>
	<g>
	</g>
	<g>
	</g>
	<g>
	</g>
	<g>
	</g>
</g>
</svg>
