<?xml version="1.0" encoding="utf-8"?>
<!-- Generator: Adobe Illustrator 23.0.0, SVG Export Plug-In . SVG Version: 6.00 Build 0)  -->
<svg version="1.1" id="Capa_1" xmlns="http://www.w3.org/2000/svg" xmlns:xlink="http://www.w3.org/1999/xlink" x="0px" y="0px"
	 viewBox="0 0 400 702" style="enable-background:new 0 0 400 702;" xml:space="preserve">
<style type="text/css">
	.st0{fill:#00D13C;}
	.st1{fill:#E0EF18;}
	.st2{fill:#CECECE;}
	.st3{fill:#FFFFFF;}
	.st4{fill:#0085B0;}
	.st5{fill:#F2F2F2;}
	.st6{fill:#EACCB0;}
	.st7{fill:#9B9B9B;}
	.st8{fill:#939393;}
	.st9{fill:#EFEFEF;}
	.st10{fill:#828282;}
	.st11{fill:#2C2A2D;}
	.st12{fill:#202021;}
	.st13{fill:#F2D4B6;}
	.st14{fill:#534D46;}
	.st15{fill:#E8D313;}
	.st16{fill:#2ACCFF;}
	.st17{fill:#4E4F4F;}
	.st18{fill:#003A94;}
	.st19{fill:#15682A;}
	.st20{fill:#D40000;}
	.st21{fill:#505050;}
	.st22{fill:none;}
	.st23{fill:#636363;}
	.st24{fill:#DFDFDF;}
	.st25{fill:#6C92D5;}
	.st26{fill:#22272F;}
	.st27{fill:#1B2538;}
	.st28{fill:#253452;}
	.st29{fill:#F9F9F9;}
	.st30{fill:#2D3543;}
	.st31{fill:#2A3D60;}
	.st32{fill:#587955;}
	.st33{fill:#CD7054;}
	.st34{fill:#F1CC4B;}
	.st35{fill:#ACACAC;}
	.st36{fill:#AAE528;}
	.st37{fill:#28CEBA;}
	.st38{fill:#DB143F;}
	.st39{fill:#53C2C9;}
	.st40{fill:#FFB412;}
	.st41{fill:#866A5E;}
	.st42{fill:#F7DDCB;}
	.st43{fill:#FFE6D4;}
	.st44{fill:#F5F5F5;}
	.st45{fill:#1A2830;}
	.st46{fill:#24353F;}
	.st47{fill:#132026;}
	.st48{fill:#F9FF03;}
	.st49{fill:#272728;}
	.st50{fill:#1E1D1E;}
	.st51{fill:#160423;}
	.st52{fill-rule:evenodd;clip-rule:evenodd;fill:#FFFFFF;}
	.st53{fill-rule:evenodd;clip-rule:evenodd;fill:#1996B8;}
	.st54{fill:#0C387D;}
	.st55{fill:#C69A81;}
	.st56{fill:#D1A385;}
	.st57{fill:#EAEAEA;}
	.st58{fill:#093E8C;}
	.st59{fill:#0B2A62;}
	.st60{fill:#D32A3B;}
	.st61{fill:#827C7D;}
	.st62{opacity:0.7;fill:#7F7F7F;}
	.st63{fill:#FDFDFD;}
	.st64{fill:#DAA449;}
	.st65{fill:#DD9225;}
	.st66{opacity:0.3;}
</style>
<g>
	<g>
		<path d="M20.04,404.47c-1.96-1.97-2.94-4.77-2.94-8.4s0.98-6.43,2.94-8.4c1.96-1.97,4.84-2.96,8.64-2.96
			c3.8,0,6.68,0.99,8.64,2.96c1.96,1.97,2.94,4.77,2.94,8.4s-0.98,6.43-2.94,8.4c-1.96,1.97-4.84,2.96-8.64,2.96
			C24.88,407.43,22,406.45,20.04,404.47z M31.68,400.57c0.62-0.99,0.93-2.49,0.93-4.5c0-2.03-0.31-3.53-0.93-4.51
			s-1.62-1.47-3.01-1.47c-1.39,0-2.39,0.49-3.01,1.47c-0.62,0.98-0.93,2.49-0.93,4.51c0,2.01,0.31,3.5,0.93,4.5
			c0.62,0.99,1.62,1.49,3.01,1.49C30.06,402.06,31.06,401.56,31.68,400.57z"/>
		<path d="M42.29,406.5c-0.29-0.3-0.43-0.76-0.43-1.38v-18.11c0-0.62,0.14-1.08,0.43-1.38c0.29-0.3,0.78-0.45,1.49-0.45h7.65
			c3.2,0,5.53,0.63,6.99,1.9c1.46,1.27,2.19,3.18,2.19,5.74c0,2.56-0.73,4.47-2.19,5.73c-1.46,1.26-3.78,1.89-6.96,1.89h-1.92v4.67
			c0,0.62-0.14,1.08-0.43,1.38c-0.29,0.3-0.79,0.45-1.52,0.45h-3.81C43.07,406.95,42.58,406.8,42.29,406.5z M50.75,395.02
			c0.68,0,1.22-0.18,1.62-0.54c0.39-0.36,0.59-0.91,0.59-1.63c0-0.75-0.2-1.3-0.59-1.66c-0.4-0.36-0.93-0.54-1.62-0.54h-2.18v4.38
			H50.75z"/>
		<path d="M66.29,406.5c-0.29-0.3-0.43-0.76-0.43-1.38v-14.5h-4.61c-0.68,0-1.15-0.14-1.39-0.43c-0.25-0.29-0.37-0.75-0.37-1.39
			v-1.79c0-0.64,0.12-1.1,0.37-1.39c0.24-0.29,0.71-0.43,1.39-0.43h16.9c0.68,0,1.15,0.14,1.39,0.43c0.24,0.29,0.37,0.75,0.37,1.39
			v1.79c0,0.64-0.12,1.1-0.37,1.39c-0.25,0.29-0.71,0.43-1.39,0.43h-4.61v14.5c0,0.62-0.14,1.08-0.43,1.38
			c-0.29,0.3-0.79,0.45-1.52,0.45h-3.81C67.07,406.95,66.58,406.8,66.29,406.5z"/>
		<path d="M81.3,406.5c-0.29-0.3-0.43-0.76-0.43-1.38v-18.11c0-0.62,0.14-1.08,0.43-1.38c0.29-0.3,0.78-0.45,1.49-0.45h3.81
			c0.73,0,1.23,0.14,1.52,0.43c0.29,0.29,0.43,0.75,0.43,1.39v18.11c0,0.62-0.14,1.08-0.43,1.38c-0.29,0.3-0.79,0.45-1.52,0.45
			h-3.81C82.08,406.95,81.59,406.8,81.3,406.5z"/>
		<path d="M91.22,406.5c-0.29-0.3-0.43-0.76-0.43-1.38v-18.14c0-0.62,0.14-1.07,0.43-1.36c0.29-0.29,0.79-0.43,1.52-0.43h3.68
			c0.47,0,0.84,0.06,1.12,0.18c0.28,0.12,0.49,0.35,0.64,0.69l3.74,9.38l3.74-9.38c0.15-0.34,0.36-0.57,0.64-0.69
			c0.28-0.12,0.65-0.18,1.12-0.18h3.68c0.73,0,1.23,0.14,1.52,0.43c0.29,0.29,0.43,0.74,0.43,1.36v18.14c0,0.62-0.14,1.08-0.43,1.38
			c-0.29,0.3-0.79,0.45-1.49,0.45h-3.07c-0.7,0-1.21-0.15-1.5-0.45c-0.3-0.3-0.45-0.76-0.45-1.38v-8.74l-1.89,4.35
			c-0.26,0.62-0.53,1.06-0.83,1.33s-0.79,0.4-1.47,0.4c-0.68,0-1.17-0.13-1.47-0.4c-0.3-0.27-0.58-0.71-0.83-1.33l-1.89-4.35v8.74
			c0,0.62-0.14,1.08-0.43,1.38c-0.29,0.3-0.79,0.45-1.52,0.45h-3.07C92,406.95,91.51,406.8,91.22,406.5z"/>
		<path d="M115.73,406.5c-0.29-0.3-0.43-0.76-0.43-1.38v-18.11c0-0.62,0.14-1.08,0.43-1.38c0.29-0.3,0.78-0.45,1.49-0.45h3.81
			c0.73,0,1.23,0.14,1.52,0.43c0.29,0.29,0.43,0.75,0.43,1.39v18.11c0,0.62-0.14,1.08-0.43,1.38c-0.29,0.3-0.79,0.45-1.52,0.45
			h-3.81C116.51,406.95,116.02,406.8,115.73,406.5z"/>
		<path d="M124.9,406.58c-0.21-0.25-0.32-0.7-0.32-1.36c0-0.68,0.06-1.22,0.18-1.6s0.41-0.88,0.88-1.5l8.42-11.49h-7.39
			c-0.7,0-1.2-0.15-1.49-0.45c-0.29-0.3-0.43-0.76-0.43-1.38v-1.79c0-0.62,0.14-1.08,0.43-1.38c0.29-0.3,0.78-0.45,1.49-0.45h15.81
			c0.64,0,1.07,0.12,1.28,0.37c0.21,0.25,0.32,0.7,0.32,1.36c0,0.66-0.06,1.18-0.18,1.57c-0.12,0.38-0.41,0.9-0.88,1.54l-8.35,11.49
			h7.55c0.7,0,1.2,0.15,1.49,0.45c0.29,0.3,0.43,0.76,0.43,1.38v1.79c0,0.62-0.14,1.08-0.43,1.38c-0.29,0.3-0.78,0.45-1.49,0.45
			h-16.03C125.54,406.95,125.11,406.83,124.9,406.58z"/>
		<path d="M144.29,406.28c0-0.19,0.05-0.43,0.16-0.7l7.97-19.17c0.19-0.45,0.41-0.76,0.66-0.94c0.24-0.18,0.59-0.27,1.04-0.27h3.49
			c0.45,0,0.79,0.09,1.04,0.27c0.24,0.18,0.46,0.5,0.66,0.94l7.94,19.17c0.11,0.28,0.16,0.51,0.16,0.7c0,0.45-0.24,0.67-0.71,0.67
			h-6.02c-0.66,0-1.08-0.29-1.25-0.86l-0.77-2.37h-5.66l-0.74,2.37c-0.17,0.58-0.59,0.86-1.25,0.86h-6.02
			C144.52,406.95,144.29,406.73,144.29,406.28z M157.09,398.66l-1.25-3.97l-1.25,3.97H157.09z"/>
		<path d="M169.43,406.5c-0.29-0.3-0.43-0.76-0.43-1.38v-18.11c0-0.62,0.14-1.08,0.43-1.38c0.29-0.3,0.78-0.45,1.49-0.45h7.65
			c3.2,0,5.53,0.63,6.99,1.9c1.46,1.27,2.19,3.18,2.19,5.74c0,1.54-0.26,2.83-0.78,3.89c-0.52,1.06-1.33,1.88-2.42,2.48l2.98,6.37
			c0.09,0.17,0.13,0.36,0.13,0.58c0,0.23-0.08,0.43-0.24,0.58s-0.37,0.22-0.62,0.22h-5.41c-0.34,0-0.61-0.05-0.82-0.14
			c-0.2-0.1-0.35-0.26-0.43-0.5l-2.37-5.95h-1.09v4.77c0,0.62-0.14,1.08-0.43,1.38c-0.29,0.3-0.79,0.45-1.52,0.45h-3.81
			C170.21,406.95,169.71,406.8,169.43,406.5z M177.89,395.02c0.68,0,1.22-0.18,1.62-0.54c0.39-0.36,0.59-0.91,0.59-1.63
			c0-0.75-0.2-1.3-0.59-1.66c-0.39-0.36-0.93-0.54-1.62-0.54h-2.18v4.38H177.89z"/>
		<path d="M204.46,406.5c-0.29-0.3-0.43-0.76-0.43-1.38v-14.5h-4.61c-0.68,0-1.15-0.14-1.39-0.43s-0.37-0.75-0.37-1.39v-1.79
			c0-0.64,0.12-1.1,0.37-1.39s0.71-0.43,1.39-0.43h16.9c0.68,0,1.15,0.14,1.39,0.43s0.37,0.75,0.37,1.39v1.79
			c0,0.64-0.12,1.1-0.37,1.39s-0.71,0.43-1.39,0.43h-4.61v14.5c0,0.62-0.14,1.08-0.43,1.38c-0.29,0.3-0.79,0.45-1.52,0.45h-3.81
			C205.25,406.95,204.75,406.8,204.46,406.5z"/>
		<path d="M223.87,406.42c-1.58-0.67-2.81-1.64-3.68-2.91c-0.88-1.27-1.31-2.78-1.31-4.53v-11.97c0-0.62,0.14-1.08,0.43-1.38
			c0.29-0.3,0.78-0.45,1.49-0.45h3.81c0.72,0,1.23,0.14,1.52,0.43s0.43,0.75,0.43,1.39v12.06c0,1,0.25,1.75,0.75,2.24
			c0.5,0.49,1.19,0.74,2.06,0.74s1.56-0.24,2.06-0.74c0.5-0.49,0.75-1.24,0.75-2.24v-12.06c0-0.62,0.14-1.08,0.43-1.38
			s0.78-0.45,1.49-0.45h3.81c0.73,0,1.23,0.14,1.52,0.43c0.29,0.29,0.43,0.75,0.43,1.39v11.97c0,1.75-0.44,3.26-1.31,4.53
			c-0.88,1.27-2.1,2.24-3.68,2.91c-1.58,0.67-3.41,1.01-5.5,1.01C227.29,407.43,225.45,407.1,223.87,406.42z"/>
		<path d="M246.02,406.82c-1.66-0.41-3.01-0.97-4.03-1.7c-0.43-0.3-0.64-0.59-0.64-0.86c0-0.19,0.07-0.39,0.22-0.61l1.86-2.91
			c0.19-0.28,0.38-0.42,0.58-0.42c0.17,0,0.37,0.08,0.61,0.22c0.77,0.47,1.65,0.84,2.64,1.1s1.96,0.4,2.9,0.4
			c0.79,0,1.36-0.11,1.71-0.32s0.53-0.54,0.53-0.99c0-0.49-0.24-0.88-0.7-1.18c-0.47-0.3-1.28-0.67-2.43-1.12
			c-2.15-0.83-3.85-1.78-5.09-2.83c-1.24-1.06-1.86-2.46-1.86-4.21c0-2.22,0.77-3.89,2.32-5.01c1.55-1.12,3.63-1.68,6.26-1.68
			c1.83,0,3.4,0.16,4.69,0.48c1.29,0.32,2.42,0.82,3.38,1.5c0.43,0.3,0.64,0.59,0.64,0.86c0,0.19-0.07,0.39-0.22,0.61l-1.86,2.91
			c-0.19,0.3-0.38,0.45-0.58,0.45c-0.13,0-0.33-0.08-0.61-0.26c-0.51-0.34-1.12-0.62-1.82-0.85c-0.7-0.22-1.46-0.34-2.27-0.34
			c-0.75,0-1.31,0.11-1.7,0.32c-0.38,0.21-0.58,0.55-0.58,1.02c0,0.38,0.13,0.7,0.4,0.96c0.27,0.26,0.6,0.47,1.01,0.66
			c0.41,0.18,1.11,0.48,2.11,0.88c1.6,0.64,2.86,1.25,3.78,1.84c0.92,0.59,1.61,1.29,2.08,2.11c0.47,0.82,0.71,1.86,0.71,3.12
			c0,1.92-0.72,3.47-2.16,4.66c-1.44,1.18-3.59,1.78-6.45,1.78C249.48,407.43,247.68,407.23,246.02,406.82z"/>
		<path d="M273.82,404.57c-2.16-1.91-3.23-4.74-3.23-8.5c0-3.78,1.04-6.61,3.12-8.51s5.05-2.85,8.91-2.85
			c1.75,0,3.31,0.17,4.67,0.51c1.36,0.34,2.51,0.82,3.42,1.44c0.26,0.19,0.38,0.41,0.38,0.64c0,0.19-0.1,0.46-0.29,0.8l-1.6,2.75
			c-0.17,0.3-0.37,0.45-0.61,0.45c-0.15,0-0.39-0.08-0.74-0.26c-0.6-0.3-1.22-0.53-1.87-0.7c-0.65-0.17-1.41-0.26-2.29-0.26
			c-1.77,0-3.13,0.51-4.06,1.54c-0.94,1.02-1.41,2.51-1.41,4.45c0,1.92,0.51,3.4,1.54,4.43c1.02,1.04,2.42,1.55,4.19,1.55
			c1.54,0,2.94-0.32,4.22-0.96c0.34-0.17,0.59-0.26,0.74-0.26c0.23,0,0.44,0.15,0.61,0.45l1.6,2.75c0.19,0.34,0.29,0.61,0.29,0.8
			c0,0.24-0.13,0.45-0.38,0.64c-0.92,0.62-2.07,1.1-3.46,1.44s-2.96,0.51-4.7,0.51C279,407.43,275.98,406.48,273.82,404.57z"/>
		<path d="M293.89,404.47c-1.96-1.97-2.94-4.77-2.94-8.4s0.98-6.43,2.94-8.4c1.96-1.97,4.84-2.96,8.64-2.96s6.68,0.99,8.64,2.96
			c1.96,1.97,2.94,4.77,2.94,8.4s-0.98,6.43-2.94,8.4c-1.96,1.97-4.84,2.96-8.64,2.96S295.85,406.45,293.89,404.47z M305.54,400.57
			c0.62-0.99,0.93-2.49,0.93-4.5c0-2.03-0.31-3.53-0.93-4.51c-0.62-0.98-1.62-1.47-3.01-1.47s-2.39,0.49-3.01,1.47
			s-0.93,2.49-0.93,4.51c0,2.01,0.31,3.5,0.93,4.5s1.62,1.49,3.01,1.49S304.92,401.56,305.54,400.57z"/>
		<path d="M318.34,406.82c-1.66-0.41-3.01-0.97-4.03-1.7c-0.43-0.3-0.64-0.59-0.64-0.86c0-0.19,0.07-0.39,0.22-0.61l1.86-2.91
			c0.19-0.28,0.38-0.42,0.58-0.42c0.17,0,0.37,0.08,0.61,0.22c0.77,0.47,1.65,0.84,2.64,1.1s1.96,0.4,2.9,0.4
			c0.79,0,1.36-0.11,1.71-0.32s0.53-0.54,0.53-0.99c0-0.49-0.23-0.88-0.7-1.18c-0.47-0.3-1.28-0.67-2.43-1.12
			c-2.16-0.83-3.85-1.78-5.09-2.83c-1.24-1.06-1.86-2.46-1.86-4.21c0-2.22,0.77-3.89,2.32-5.01c1.55-1.12,3.63-1.68,6.26-1.68
			c1.83,0,3.4,0.16,4.69,0.48c1.29,0.32,2.42,0.82,3.38,1.5c0.43,0.3,0.64,0.59,0.64,0.86c0,0.19-0.08,0.39-0.22,0.61l-1.86,2.91
			c-0.19,0.3-0.38,0.45-0.58,0.45c-0.13,0-0.33-0.08-0.61-0.26c-0.51-0.34-1.12-0.62-1.82-0.85c-0.71-0.22-1.46-0.34-2.27-0.34
			c-0.75,0-1.31,0.11-1.7,0.32c-0.38,0.21-0.58,0.55-0.58,1.02c0,0.38,0.13,0.7,0.4,0.96c0.27,0.26,0.6,0.47,1.01,0.66
			c0.41,0.18,1.11,0.48,2.11,0.88c1.6,0.64,2.86,1.25,3.78,1.84c0.92,0.59,1.61,1.29,2.08,2.11c0.47,0.82,0.7,1.86,0.7,3.12
			c0,1.92-0.72,3.47-2.16,4.66c-1.44,1.18-3.59,1.78-6.45,1.78C321.8,407.43,320,407.23,318.34,406.82z"/>
		<path d="M338.67,406.5c-0.29-0.3-0.43-0.76-0.43-1.38v-14.5h-4.61c-0.68,0-1.15-0.14-1.39-0.43c-0.25-0.29-0.37-0.75-0.37-1.39
			v-1.79c0-0.64,0.12-1.1,0.37-1.39c0.24-0.29,0.71-0.43,1.39-0.43h16.9c0.68,0,1.15,0.14,1.39,0.43c0.24,0.29,0.37,0.75,0.37,1.39
			v1.79c0,0.64-0.12,1.1-0.37,1.39c-0.25,0.29-0.71,0.43-1.39,0.43h-4.61v14.5c0,0.62-0.14,1.08-0.43,1.38
			c-0.29,0.3-0.79,0.45-1.52,0.45h-3.81C339.46,406.95,338.96,406.8,338.67,406.5z"/>
		<path d="M354.11,404.47c-1.96-1.97-2.94-4.77-2.94-8.4s0.98-6.43,2.94-8.4c1.96-1.97,4.84-2.96,8.64-2.96
			c3.8,0,6.68,0.99,8.64,2.96c1.96,1.97,2.94,4.77,2.94,8.4s-0.98,6.43-2.94,8.4c-1.96,1.97-4.84,2.96-8.64,2.96
			C358.95,407.43,356.07,406.45,354.11,404.47z M365.76,400.57c0.62-0.99,0.93-2.49,0.93-4.5c0-2.03-0.31-3.53-0.93-4.51
			c-0.62-0.98-1.62-1.47-3.01-1.47c-1.39,0-2.39,0.49-3.01,1.47c-0.62,0.98-0.93,2.49-0.93,4.51c0,2.01,0.31,3.5,0.93,4.5
			c0.62,0.99,1.62,1.49,3.01,1.49C364.14,402.06,365.14,401.56,365.76,400.57z"/>
		<path d="M378.56,406.82c-1.66-0.41-3.01-0.97-4.03-1.7c-0.43-0.3-0.64-0.59-0.64-0.86c0-0.19,0.07-0.39,0.22-0.61l1.86-2.91
			c0.19-0.28,0.38-0.42,0.58-0.42c0.17,0,0.37,0.08,0.61,0.22c0.77,0.47,1.65,0.84,2.64,1.1s1.96,0.4,2.9,0.4
			c0.79,0,1.36-0.11,1.71-0.32s0.53-0.54,0.53-0.99c0-0.49-0.24-0.88-0.7-1.18c-0.47-0.3-1.28-0.67-2.43-1.12
			c-2.15-0.83-3.85-1.78-5.09-2.83c-1.24-1.06-1.86-2.46-1.86-4.21c0-2.22,0.77-3.89,2.32-5.01c1.55-1.12,3.63-1.68,6.26-1.68
			c1.83,0,3.4,0.16,4.69,0.48c1.29,0.32,2.42,0.82,3.38,1.5c0.43,0.3,0.64,0.59,0.64,0.86c0,0.19-0.07,0.39-0.22,0.61l-1.86,2.91
			c-0.19,0.3-0.38,0.45-0.58,0.45c-0.13,0-0.33-0.08-0.61-0.26c-0.51-0.34-1.12-0.62-1.82-0.85c-0.7-0.22-1.46-0.34-2.27-0.34
			c-0.75,0-1.31,0.11-1.7,0.32c-0.38,0.21-0.58,0.55-0.58,1.02c0,0.38,0.13,0.7,0.4,0.96c0.27,0.26,0.6,0.47,1.01,0.66
			c0.41,0.18,1.11,0.48,2.11,0.88c1.6,0.64,2.86,1.25,3.78,1.84c0.92,0.59,1.61,1.29,2.08,2.11c0.47,0.82,0.71,1.86,0.71,3.12
			c0,1.92-0.72,3.47-2.16,4.66c-1.44,1.18-3.59,1.78-6.45,1.78C382.03,407.43,380.22,407.23,378.56,406.82z"/>
		<path d="M83.03,444.9c-0.29-0.3-0.43-0.76-0.43-1.38v-18.11c0-0.62,0.14-1.08,0.43-1.38s0.78-0.45,1.49-0.45h13.25
			c0.68,0,1.15,0.14,1.39,0.43s0.37,0.75,0.37,1.39v1.79c0,0.64-0.12,1.1-0.37,1.39s-0.71,0.43-1.39,0.43h-7.49v2.75h4.61
			c0.68,0,1.15,0.14,1.39,0.43s0.37,0.75,0.37,1.39v1.73c0,0.64-0.12,1.1-0.37,1.39s-0.71,0.43-1.39,0.43h-4.61v2.75h7.46
			c0.68,0,1.15,0.14,1.39,0.43c0.24,0.29,0.37,0.75,0.37,1.39v1.79c0,0.64-0.12,1.1-0.37,1.39c-0.25,0.29-0.71,0.43-1.39,0.43H84.51
			C83.81,445.35,83.31,445.2,83.03,444.9z"/>
		<path d="M110.99,444.9c-0.29-0.3-0.43-0.76-0.43-1.38v-18.11c0-0.62,0.14-1.08,0.43-1.38c0.29-0.3,0.78-0.45,1.49-0.45h3.81
			c0.73,0,1.23,0.14,1.52,0.43c0.29,0.29,0.43,0.75,0.43,1.39v18.11c0,0.62-0.14,1.08-0.43,1.38c-0.29,0.3-0.79,0.45-1.52,0.45
			h-3.81C111.78,445.35,111.28,445.2,110.99,444.9z"/>
		<path d="M120.91,444.9c-0.29-0.3-0.43-0.76-0.43-1.38v-18.14c0-0.62,0.14-1.07,0.43-1.36c0.29-0.29,0.79-0.43,1.52-0.43h3.04
			c0.45,0,0.79,0.06,1.04,0.18s0.49,0.35,0.72,0.69l5.79,8.61v-7.65c0-0.62,0.14-1.08,0.43-1.38s0.78-0.45,1.49-0.45h3.81
			c0.72,0,1.23,0.14,1.52,0.43c0.29,0.29,0.43,0.75,0.43,1.39v18.14c0,0.62-0.14,1.07-0.43,1.36c-0.29,0.29-0.79,0.43-1.52,0.43
			h-3.04c-0.45,0-0.79-0.06-1.04-0.18c-0.25-0.12-0.49-0.35-0.72-0.69l-5.79-8.61v7.68c0,0.62-0.14,1.07-0.43,1.36
			c-0.29,0.29-0.79,0.43-1.52,0.43h-3.81C121.7,445.35,121.2,445.2,120.91,444.9z"/>
		<path d="M145.54,442.97c-2.15-1.91-3.23-4.74-3.23-8.5c0-3.78,1.04-6.61,3.12-8.51s5.05-2.85,8.91-2.85
			c1.75,0,3.31,0.17,4.67,0.51c1.37,0.34,2.51,0.82,3.42,1.44c0.26,0.19,0.38,0.41,0.38,0.64c0,0.19-0.1,0.46-0.29,0.8l-1.6,2.75
			c-0.17,0.3-0.37,0.45-0.61,0.45c-0.15,0-0.4-0.08-0.74-0.26c-0.6-0.3-1.22-0.53-1.87-0.7c-0.65-0.17-1.41-0.26-2.29-0.26
			c-1.77,0-3.13,0.51-4.06,1.54c-0.94,1.02-1.41,2.51-1.41,4.45c0,1.92,0.51,3.4,1.54,4.43c1.02,1.04,2.42,1.55,4.19,1.55
			c1.54,0,2.94-0.32,4.22-0.96c0.34-0.17,0.59-0.26,0.74-0.26c0.23,0,0.44,0.15,0.61,0.45l1.6,2.75c0.19,0.34,0.29,0.61,0.29,0.8
			c0,0.24-0.13,0.45-0.38,0.64c-0.92,0.62-2.07,1.1-3.46,1.44c-1.39,0.34-2.96,0.51-4.7,0.51
			C150.71,445.83,147.69,444.88,145.54,442.97z"/>
		<path d="M165.17,444.9c-0.29-0.3-0.43-0.76-0.43-1.38v-18.11c0-0.62,0.14-1.08,0.43-1.38c0.29-0.3,0.78-0.45,1.49-0.45h7.65
			c3.2,0,5.53,0.63,6.99,1.9c1.46,1.27,2.19,3.18,2.19,5.74c0,1.54-0.26,2.83-0.79,3.89c-0.52,1.06-1.33,1.88-2.42,2.48l2.98,6.37
			c0.08,0.17,0.13,0.36,0.13,0.58c0,0.23-0.08,0.43-0.24,0.58c-0.16,0.15-0.37,0.22-0.63,0.22h-5.41c-0.34,0-0.61-0.05-0.82-0.14
			c-0.2-0.1-0.35-0.26-0.43-0.5l-2.37-5.95h-1.09v4.77c0,0.62-0.14,1.08-0.43,1.38c-0.29,0.3-0.79,0.45-1.52,0.45h-3.81
			C165.95,445.35,165.46,445.2,165.17,444.9z M173.63,433.42c0.68,0,1.22-0.18,1.62-0.54c0.39-0.36,0.59-0.91,0.59-1.63
			c0-0.75-0.2-1.3-0.59-1.66c-0.4-0.36-0.93-0.54-1.62-0.54h-2.18v4.38H173.63z"/>
		<path d="M185.52,444.9c-0.29-0.3-0.43-0.76-0.43-1.38v-18.11c0-0.62,0.14-1.08,0.43-1.38c0.29-0.3,0.78-0.45,1.49-0.45h13.25
			c0.68,0,1.15,0.14,1.39,0.43s0.37,0.75,0.37,1.39v1.79c0,0.64-0.12,1.1-0.37,1.39s-0.71,0.43-1.39,0.43h-7.49v2.75h4.61
			c0.68,0,1.15,0.14,1.39,0.43c0.24,0.29,0.37,0.75,0.37,1.39v1.73c0,0.64-0.12,1.1-0.37,1.39c-0.25,0.29-0.71,0.43-1.39,0.43h-4.61
			v2.75h7.46c0.68,0,1.15,0.14,1.39,0.43c0.25,0.29,0.37,0.75,0.37,1.39v1.79c0,0.64-0.12,1.1-0.37,1.39
			c-0.25,0.29-0.71,0.43-1.39,0.43h-13.21C186.3,445.35,185.81,445.2,185.52,444.9z"/>
		<path d="M203.89,444.9c-0.29-0.3-0.43-0.76-0.43-1.38v-18.14c0-0.62,0.14-1.07,0.43-1.36c0.29-0.29,0.79-0.43,1.52-0.43h3.68
			c0.47,0,0.84,0.06,1.12,0.18s0.49,0.35,0.64,0.69l3.74,9.38l3.74-9.38c0.15-0.34,0.36-0.57,0.64-0.69s0.65-0.18,1.12-0.18h3.68
			c0.72,0,1.23,0.14,1.52,0.43s0.43,0.74,0.43,1.36v18.14c0,0.62-0.14,1.08-0.43,1.38c-0.29,0.3-0.78,0.45-1.49,0.45h-3.07
			c-0.7,0-1.21-0.15-1.5-0.45c-0.3-0.3-0.45-0.76-0.45-1.38v-8.74l-1.89,4.35c-0.26,0.62-0.53,1.06-0.83,1.33s-0.79,0.4-1.47,0.4
			s-1.17-0.13-1.47-0.4s-0.58-0.71-0.83-1.33l-1.89-4.35v8.74c0,0.62-0.14,1.08-0.43,1.38c-0.29,0.3-0.79,0.45-1.52,0.45h-3.07
			C204.67,445.35,204.18,445.2,203.89,444.9z"/>
		<path d="M228.4,444.9c-0.29-0.3-0.43-0.76-0.43-1.38v-18.11c0-0.62,0.14-1.08,0.43-1.38c0.29-0.3,0.78-0.45,1.49-0.45h13.25
			c0.68,0,1.15,0.14,1.39,0.43c0.24,0.29,0.37,0.75,0.37,1.39v1.79c0,0.64-0.12,1.1-0.37,1.39c-0.25,0.29-0.71,0.43-1.39,0.43h-7.49
			v2.75h4.61c0.68,0,1.15,0.14,1.39,0.43s0.37,0.75,0.37,1.39v1.73c0,0.64-0.12,1.1-0.37,1.39s-0.71,0.43-1.39,0.43h-4.61v2.75h7.46
			c0.68,0,1.15,0.14,1.39,0.43c0.25,0.29,0.37,0.75,0.37,1.39v1.79c0,0.64-0.12,1.1-0.37,1.39c-0.25,0.29-0.71,0.43-1.39,0.43
			h-13.22C229.18,445.35,228.69,445.2,228.4,444.9z"/>
		<path d="M246.77,444.9c-0.29-0.3-0.43-0.76-0.43-1.38v-18.14c0-0.62,0.14-1.07,0.43-1.36c0.29-0.29,0.79-0.43,1.52-0.43h3.04
			c0.45,0,0.79,0.06,1.04,0.18s0.49,0.35,0.72,0.69l5.79,8.61v-7.65c0-0.62,0.14-1.08,0.43-1.38c0.29-0.3,0.78-0.45,1.49-0.45h3.81
			c0.73,0,1.23,0.14,1.52,0.43c0.29,0.29,0.43,0.75,0.43,1.39v18.14c0,0.62-0.14,1.07-0.43,1.36c-0.29,0.29-0.79,0.43-1.52,0.43
			h-3.04c-0.45,0-0.79-0.06-1.04-0.18s-0.49-0.35-0.72-0.69l-5.79-8.61v7.68c0,0.62-0.14,1.07-0.43,1.36
			c-0.29,0.29-0.79,0.43-1.52,0.43h-3.81C247.55,445.35,247.06,445.2,246.77,444.9z"/>
		<path d="M274.32,444.9c-0.29-0.3-0.43-0.76-0.43-1.38v-14.5h-4.61c-0.68,0-1.15-0.14-1.39-0.43c-0.25-0.29-0.37-0.75-0.37-1.39
			v-1.79c0-0.64,0.12-1.1,0.37-1.39c0.24-0.29,0.71-0.43,1.39-0.43h16.9c0.68,0,1.15,0.14,1.39,0.43c0.24,0.29,0.37,0.75,0.37,1.39
			v1.79c0,0.64-0.12,1.1-0.37,1.39c-0.25,0.29-0.71,0.43-1.39,0.43h-4.61v14.5c0,0.62-0.14,1.08-0.43,1.38
			c-0.29,0.3-0.79,0.45-1.52,0.45h-3.81C275.1,445.35,274.61,445.2,274.32,444.9z"/>
		<path d="M284.26,444.68c0-0.19,0.05-0.43,0.16-0.7l7.97-19.17c0.19-0.45,0.41-0.76,0.66-0.94c0.25-0.18,0.59-0.27,1.04-0.27h3.49
			c0.45,0,0.79,0.09,1.04,0.27c0.25,0.18,0.46,0.5,0.66,0.94l7.94,19.17c0.11,0.28,0.16,0.51,0.16,0.7c0,0.45-0.23,0.67-0.7,0.67
			h-6.02c-0.66,0-1.08-0.29-1.25-0.86l-0.77-2.37h-5.66l-0.74,2.37c-0.17,0.58-0.59,0.86-1.25,0.86h-6.02
			C284.49,445.35,284.26,445.13,284.26,444.68z M297.06,437.06l-1.25-3.97l-1.25,3.97H297.06z"/>
		<path d="M309.39,444.9c-0.29-0.3-0.43-0.76-0.43-1.38v-18.11c0-0.62,0.14-1.08,0.43-1.38s0.78-0.45,1.49-0.45h7.65
			c3.2,0,5.53,0.63,6.99,1.9c1.46,1.27,2.19,3.18,2.19,5.74c0,1.54-0.26,2.83-0.78,3.89c-0.52,1.06-1.33,1.88-2.42,2.48l2.98,6.37
			c0.08,0.17,0.13,0.36,0.13,0.58c0,0.23-0.08,0.43-0.24,0.58c-0.16,0.15-0.37,0.22-0.62,0.22h-5.41c-0.34,0-0.61-0.05-0.82-0.14
			c-0.2-0.1-0.35-0.26-0.43-0.5l-2.37-5.95h-1.09v4.77c0,0.62-0.14,1.08-0.43,1.38c-0.29,0.3-0.79,0.45-1.52,0.45h-3.81
			C310.18,445.35,309.68,445.2,309.39,444.9z M317.86,433.42c0.68,0,1.22-0.18,1.62-0.54c0.39-0.36,0.59-0.91,0.59-1.63
			c0-0.75-0.2-1.3-0.59-1.66c-0.4-0.36-0.93-0.54-1.62-0.54h-2.18v4.38H317.86z"/>
		<path d="M107.27,483.3c-0.29-0.3-0.43-0.76-0.43-1.38v-14.5h-4.61c-0.68,0-1.15-0.14-1.39-0.43c-0.24-0.29-0.37-0.75-0.37-1.39
			v-1.79c0-0.64,0.12-1.1,0.37-1.39c0.25-0.29,0.71-0.43,1.39-0.43h16.9c0.68,0,1.15,0.14,1.39,0.43s0.37,0.75,0.37,1.39v1.79
			c0,0.64-0.12,1.1-0.37,1.39s-0.71,0.43-1.39,0.43h-4.61v14.5c0,0.62-0.14,1.08-0.43,1.38c-0.29,0.3-0.79,0.45-1.52,0.45h-3.81
			C108.05,483.75,107.55,483.6,107.27,483.3z"/>
		<path d="M126.67,483.22c-1.58-0.67-2.8-1.64-3.68-2.91c-0.88-1.27-1.31-2.78-1.31-4.53v-11.97c0-0.62,0.14-1.08,0.43-1.38
			s0.78-0.45,1.49-0.45h3.81c0.72,0,1.23,0.14,1.52,0.43c0.29,0.29,0.43,0.75,0.43,1.39v12.06c0,1,0.25,1.75,0.75,2.24
			c0.5,0.49,1.19,0.74,2.06,0.74s1.56-0.24,2.06-0.74c0.5-0.49,0.75-1.24,0.75-2.24v-12.06c0-0.62,0.14-1.08,0.43-1.38
			c0.29-0.3,0.78-0.45,1.49-0.45h3.81c0.72,0,1.23,0.14,1.52,0.43s0.43,0.75,0.43,1.39v11.97c0,1.75-0.44,3.26-1.31,4.53
			c-0.88,1.27-2.1,2.24-3.68,2.91c-1.58,0.67-3.41,1.01-5.5,1.01C130.09,484.23,128.25,483.9,126.67,483.22z"/>
		<path d="M154.79,483.3c-0.29-0.3-0.43-0.76-0.43-1.38v-18.11c0-0.62,0.14-1.08,0.43-1.38c0.29-0.3,0.78-0.45,1.49-0.45h3.81
			c0.72,0,1.23,0.14,1.52,0.43c0.29,0.29,0.43,0.75,0.43,1.39v18.11c0,0.62-0.14,1.08-0.43,1.38c-0.29,0.3-0.79,0.45-1.52,0.45
			h-3.81C155.57,483.75,155.07,483.6,154.79,483.3z"/>
		<path d="M164.71,483.3c-0.29-0.3-0.43-0.76-0.43-1.38v-18.14c0-0.62,0.14-1.07,0.43-1.36c0.29-0.29,0.79-0.43,1.52-0.43h3.04
			c0.45,0,0.79,0.06,1.04,0.18c0.25,0.12,0.49,0.35,0.72,0.69l5.79,8.61v-7.65c0-0.62,0.14-1.08,0.43-1.38
			c0.29-0.3,0.78-0.45,1.49-0.45h3.81c0.73,0,1.23,0.14,1.52,0.43s0.43,0.75,0.43,1.39v18.14c0,0.62-0.14,1.07-0.43,1.36
			s-0.79,0.43-1.52,0.43h-3.04c-0.45,0-0.79-0.06-1.04-0.18c-0.25-0.12-0.48-0.35-0.72-0.69l-5.79-8.61v7.68
			c0,0.62-0.14,1.07-0.43,1.36c-0.29,0.29-0.79,0.43-1.52,0.43h-3.81C165.49,483.75,164.99,483.6,164.71,483.3z"/>
		<path d="M189.33,481.37c-2.16-1.91-3.23-4.74-3.23-8.5c0-3.73,1.08-6.56,3.23-8.48s5.16-2.88,9.02-2.88c1.75,0,3.32,0.17,4.7,0.51
			c1.39,0.34,2.54,0.82,3.46,1.44c0.26,0.19,0.38,0.41,0.38,0.64c0,0.19-0.1,0.46-0.29,0.8l-1.6,2.75c-0.17,0.3-0.37,0.45-0.61,0.45
			c-0.15,0-0.4-0.08-0.74-0.26c-1.28-0.64-2.69-0.96-4.22-0.96c-1.77,0-3.16,0.51-4.18,1.52c-1.01,1.01-1.52,2.5-1.52,4.46
			c0,2.03,0.43,3.53,1.28,4.5s2.12,1.46,3.81,1.46c0.3,0,0.63-0.03,1.01-0.08c0.37-0.05,0.68-0.11,0.91-0.18v-2.91h-2.05
			c-0.68,0-1.15-0.13-1.39-0.4c-0.24-0.27-0.37-0.72-0.37-1.36v-1.76c0-0.64,0.12-1.09,0.37-1.36c0.25-0.27,0.71-0.4,1.39-0.4h6.88
			c0.83,0,1.41,0.19,1.73,0.56c0.32,0.37,0.48,0.97,0.48,1.78v7.49c0,0.47-0.06,0.83-0.18,1.07c-0.12,0.25-0.35,0.5-0.69,0.75
			c-2.05,1.47-4.9,2.21-8.54,2.21C194.5,484.23,191.48,483.28,189.33,481.37z"/>
		<path d="M209.82,483.3c-0.29-0.3-0.43-0.76-0.43-1.38v-18.11c0-0.62,0.14-1.08,0.43-1.38c0.29-0.3,0.79-0.45,1.49-0.45h7.65
			c3.2,0,5.53,0.63,6.99,1.9c1.46,1.27,2.19,3.18,2.19,5.74c0,1.54-0.26,2.83-0.78,3.89c-0.52,1.06-1.33,1.88-2.42,2.48l2.98,6.37
			c0.08,0.17,0.13,0.36,0.13,0.58c0,0.23-0.08,0.43-0.24,0.58s-0.37,0.22-0.62,0.22h-5.41c-0.34,0-0.61-0.05-0.82-0.14
			c-0.2-0.1-0.35-0.26-0.43-0.5l-2.37-5.95h-1.09v4.77c0,0.62-0.14,1.08-0.43,1.38c-0.29,0.3-0.79,0.45-1.52,0.45h-3.81
			C210.61,483.75,210.11,483.6,209.82,483.3z M218.29,471.82c0.68,0,1.22-0.18,1.62-0.54c0.39-0.36,0.59-0.91,0.59-1.63
			c0-0.75-0.2-1.3-0.59-1.66c-0.39-0.36-0.93-0.54-1.62-0.54h-2.18v4.38H218.29z"/>
		<path d="M230.18,483.3c-0.29-0.3-0.43-0.76-0.43-1.38v-18.11c0-0.62,0.14-1.08,0.43-1.38c0.29-0.3,0.79-0.45,1.49-0.45h13.25
			c0.68,0,1.15,0.14,1.39,0.43c0.24,0.29,0.37,0.75,0.37,1.39v1.79c0,0.64-0.12,1.1-0.37,1.39c-0.25,0.29-0.71,0.43-1.39,0.43h-7.49
			v2.75h4.61c0.68,0,1.15,0.14,1.39,0.43c0.25,0.29,0.37,0.75,0.37,1.39v1.73c0,0.64-0.12,1.1-0.37,1.39
			c-0.24,0.29-0.71,0.43-1.39,0.43h-4.61v2.75h7.46c0.68,0,1.15,0.14,1.39,0.43s0.37,0.75,0.37,1.39v1.79c0,0.64-0.12,1.1-0.37,1.39
			s-0.71,0.43-1.39,0.43h-13.22C230.96,483.75,230.46,483.6,230.18,483.3z"/>
		<path d="M252.18,483.62c-1.66-0.41-3.01-0.97-4.03-1.7c-0.43-0.3-0.64-0.59-0.64-0.86c0-0.19,0.07-0.39,0.22-0.61l1.86-2.91
			c0.19-0.28,0.38-0.42,0.58-0.42c0.17,0,0.37,0.08,0.61,0.22c0.77,0.47,1.65,0.84,2.64,1.1s1.96,0.4,2.9,0.4
			c0.79,0,1.36-0.11,1.71-0.32c0.35-0.21,0.53-0.54,0.53-0.99c0-0.49-0.24-0.88-0.7-1.18s-1.28-0.67-2.43-1.12
			c-2.15-0.83-3.85-1.78-5.09-2.83c-1.24-1.06-1.86-2.46-1.86-4.21c0-2.22,0.77-3.89,2.32-5.01c1.55-1.12,3.63-1.68,6.26-1.68
			c1.83,0,3.4,0.16,4.69,0.48c1.29,0.32,2.42,0.82,3.38,1.5c0.43,0.3,0.64,0.59,0.64,0.86c0,0.19-0.08,0.39-0.22,0.61l-1.86,2.91
			c-0.19,0.3-0.38,0.45-0.58,0.45c-0.13,0-0.33-0.08-0.61-0.26c-0.51-0.34-1.12-0.62-1.82-0.85c-0.7-0.22-1.46-0.34-2.27-0.34
			c-0.75,0-1.31,0.11-1.7,0.32c-0.38,0.21-0.58,0.55-0.58,1.02c0,0.38,0.13,0.7,0.4,0.96c0.27,0.26,0.6,0.47,1.01,0.66
			c0.41,0.18,1.11,0.48,2.11,0.88c1.6,0.64,2.86,1.25,3.78,1.84c0.92,0.59,1.61,1.29,2.08,2.11c0.47,0.82,0.7,1.86,0.7,3.12
			c0,1.92-0.72,3.47-2.16,4.66c-1.44,1.18-3.59,1.78-6.45,1.78C255.64,484.23,253.84,484.03,252.18,483.62z"/>
		<path d="M270.1,481.27c-1.96-1.97-2.94-4.77-2.94-8.4s0.98-6.43,2.94-8.4c1.96-1.97,4.84-2.96,8.64-2.96
			c3.8,0,6.68,0.99,8.64,2.96c1.96,1.97,2.94,4.77,2.94,8.4s-0.98,6.43-2.94,8.4c-1.96,1.97-4.84,2.96-8.64,2.96
			C274.94,484.23,272.06,483.25,270.1,481.27z M281.74,477.37c0.62-0.99,0.93-2.49,0.93-4.5c0-2.03-0.31-3.53-0.93-4.51
			c-0.62-0.98-1.62-1.47-3.01-1.47c-1.39,0-2.39,0.49-3.01,1.47c-0.62,0.98-0.93,2.49-0.93,4.51c0,2.01,0.31,3.5,0.93,4.5
			c0.62,0.99,1.62,1.49,3.01,1.49C280.12,478.86,281.13,478.36,281.74,477.37z"/>
		<path d="M294.54,483.62c-1.66-0.41-3.01-0.97-4.03-1.7c-0.43-0.3-0.64-0.59-0.64-0.86c0-0.19,0.07-0.39,0.22-0.61l1.86-2.91
			c0.19-0.28,0.38-0.42,0.58-0.42c0.17,0,0.37,0.08,0.61,0.22c0.77,0.47,1.65,0.84,2.64,1.1s1.96,0.4,2.9,0.4
			c0.79,0,1.36-0.11,1.71-0.32s0.53-0.54,0.53-0.99c0-0.49-0.24-0.88-0.7-1.18c-0.47-0.3-1.28-0.67-2.43-1.12
			c-2.15-0.83-3.85-1.78-5.09-2.83c-1.24-1.06-1.86-2.46-1.86-4.21c0-2.22,0.77-3.89,2.32-5.01c1.55-1.12,3.63-1.68,6.26-1.68
			c1.83,0,3.4,0.16,4.69,0.48c1.29,0.32,2.42,0.82,3.38,1.5c0.43,0.3,0.64,0.59,0.64,0.86c0,0.19-0.07,0.39-0.22,0.61l-1.86,2.91
			c-0.19,0.3-0.38,0.45-0.58,0.45c-0.13,0-0.33-0.08-0.61-0.26c-0.51-0.34-1.12-0.62-1.82-0.85c-0.7-0.22-1.46-0.34-2.27-0.34
			c-0.75,0-1.31,0.11-1.7,0.32c-0.38,0.21-0.58,0.55-0.58,1.02c0,0.38,0.13,0.7,0.4,0.96c0.27,0.26,0.6,0.47,1.01,0.66
			c0.41,0.18,1.11,0.48,2.11,0.88c1.6,0.64,2.86,1.25,3.78,1.84c0.92,0.59,1.61,1.29,2.08,2.11c0.47,0.82,0.71,1.86,0.71,3.12
			c0,1.92-0.72,3.47-2.16,4.66c-1.44,1.18-3.59,1.78-6.45,1.78C298.01,484.23,296.21,484.03,294.54,483.62z"/>
	</g>
	<polygon class="st1" points="200.76,96.93 214.23,124.22 244.34,128.59 222.55,149.83 227.7,179.83 200.76,165.67 173.83,179.83 
		178.97,149.83 157.18,128.59 187.29,124.22 	"/>
	<polygon class="st1" points="138.58,180.15 147.32,197.86 166.86,200.7 152.72,214.48 156.06,233.94 138.58,224.75 121.11,233.94 
		124.45,214.48 110.31,200.7 129.85,197.86 	"/>
	<g>
		<path class="st3" d="M179.79,639.51c-4.11-3.82-6.17-9.72-6.17-17.7c0-6.13,1.16-11.34,3.47-15.62c2.31-4.28,5.33-7.48,9.05-9.6
			s7.7-3.18,11.94-3.18c3.55,0,6.65,0.38,9.31,1.13c2.65,0.75,5.05,1.86,7.19,3.32c0.58,0.44,0.88,0.92,0.88,1.46
			c0,0.44-0.22,1.05-0.66,1.83l-3.5,6.06c-0.39,0.68-0.85,1.02-1.39,1.02c-0.34,0-0.9-0.19-1.68-0.58
			c-2.48-1.31-5.26-1.97-8.32-1.97c-2.43,0-4.46,0.54-6.1,1.61c-1.63,1.07-3.05,2.65-4.27,4.75c1.41-0.73,3.14-1.34,5.18-1.83
			c2.04-0.49,3.99-0.73,5.84-0.73c4.04,0,7.41,0.71,10.11,2.12c2.7,1.41,4.71,3.3,6.02,5.66c1.31,2.36,1.97,4.98,1.97,7.85
			c0,6.67-1.98,11.69-5.95,15.07c-3.97,3.38-9.58,5.07-16.83,5.07C189.27,645.24,183.9,643.33,179.79,639.51z M200.01,631.29
			c0.8-1.12,1.21-2.9,1.21-5.33s-0.4-4.21-1.21-5.33c-0.8-1.12-2.15-1.68-4.05-1.68c-1.7,0-2.93,0.56-3.69,1.68
			c-0.75,1.12-1.13,2.9-1.13,5.33s0.38,4.21,1.13,5.33c0.75,1.12,1.98,1.68,3.69,1.68C197.86,632.97,199.21,632.42,200.01,631.29z"
			/>
	</g>
	<g>
		<path class="st0" d="M10.5,210.36c0,22,13.29,27.86,29.54,13.03c0,0,156.99-143.3,353.09,26.97V56c0-22-18-40-40-40H50.5
			c-22,0-40,18-40,40V210.36z"/>
	</g>
	<g>
		<path class="st0" d="M392.66,640c0,22-18,40-40,40H50.98c-22,0-40-18-40-40v-46.27c0-22,18-40,40-40h301.68c22,0,40,18,40,40V640z
			"/>
	</g>
	<polygon class="st1" points="268.68,180.15 277.42,197.86 296.95,200.7 282.82,214.48 286.15,233.94 268.68,224.75 251.2,233.94 
		254.54,214.48 240.4,200.7 259.94,197.86 	"/>
	<circle class="st2" cx="201.77" cy="213.97" r="121.96"/>
	<circle class="st3" cx="200.82" cy="200.58" r="121.96"/>
	<g>
		<path class="st62" d="M257.48,159.8c-2.51-30.32-25.29-51.56-55.81-51.56c-0.07,0-0.13,0-0.2,0h-0.01c-0.06,0-0.12,0-0.2,0
			c-30.51,0-53.31,21.23-55.8,51.56c-1.23,14.87-1.49,28.33,22.95,56.99c2.68,3.14,4.36,7.94,5.44,12.81h-2.02h-2.81v7.74h2.81v7.86
			h-2.81v7.73h2.81v7.85h-2.81v7.75h3.26c0.41,0.49,1.08,1.03,2.11,1.6l20.23,11.29c1.88,1.05,4.37,1.58,6.85,1.58
			c2.48,0,4.97-0.54,6.85-1.58l20.22-11.29c1.02-0.57,1.69-1.11,2.1-1.6h3.27v-7.75h-2.81v-7.85h2.81v-7.73h-2.81v-7.86h2.81v-7.74
			h-2.81h-2.02c1.08-4.87,2.76-9.67,5.43-12.81C258.97,188.13,258.7,174.67,257.48,159.8z"/>
		<g>
			<g>
				<path class="st63" d="M199.34,106.12c-0.06,0-0.12,0-0.2,0c-30.51,0-53.31,21.23-55.8,51.56c-1.23,14.87-1.49,28.33,22.95,56.99
					c5.11,6,6.62,18.01,7.18,25.09c0.31,3.85,18.93,6.36,25.88,6.87h0.01L199.34,106.12L199.34,106.12z"/>
				<path class="st63" d="M255.36,157.68c-2.51-30.32-25.29-51.56-55.81-51.56c-0.07,0-0.13,0-0.2,0v140.5
					c6.96-0.51,25.56-3.02,25.88-6.87c0.57-7.08,2.08-19.09,7.18-25.09C256.85,186,256.58,172.54,255.36,157.68z"/>
			</g>
			<path class="st28" d="M199.35,227.48h-29.64v38.09h0.01c0.05,0.66,0.9,1.52,2.55,2.44l20.23,11.29c1.88,1.05,4.37,1.58,6.85,1.58
				c2.48,0,4.97-0.54,6.85-1.58l20.22-11.29c1.65-0.93,2.49-1.78,2.56-2.44l0,0v-38.09H199.35z"/>
			<g>
				<g>
					<g>
						<g>
							<path class="st64" d="M157.42,159.81c0,25.82,20.93,46.75,46.75,46.75v-93.5C178.35,113.06,157.42,133.98,157.42,159.81z"/>
							<path class="st64" d="M250.91,159.81c0,4.89-0.76,9.6-2.14,14.02c-2,6.37-5.33,12.15-9.67,17.02
								c-6.7,7.54-15.8,12.89-26.1,14.87c-2.86,0.55-5.81,0.83-8.84,0.83v-93.5c1.06,0,2.11,0.04,3.15,0.11
								C231.67,114.79,250.91,135.05,250.91,159.81z"/>
						</g>
						<path class="st34" d="M195.09,113.06c-25.82,0-46.75,20.92-46.75,46.75c0,25.82,20.92,46.75,46.75,46.75
							c25.82,0,46.75-20.93,46.75-46.75C241.85,133.98,220.91,113.06,195.09,113.06z"/>
						<g>
							<path class="st64" d="M156.21,159.81c0,21.47,17.41,38.88,38.88,38.88v-77.77C173.62,120.93,156.21,138.33,156.21,159.81z"/>
							<path class="st65" d="M195.09,120.93v77.77c21.48,0,38.89-17.41,38.89-38.88C233.98,138.33,216.57,120.93,195.09,120.93z"/>
						</g>
						<path class="st34" d="M195.09,192.8c-18.2,0-32.99-14.8-32.99-32.99c0-18.19,14.79-32.99,32.99-32.99
							c18.19,0,32.98,14.8,32.98,32.99C228.08,178,213.29,192.8,195.09,192.8z M195.09,128.28c-17.39,0-31.52,14.14-31.52,31.52
							c0,17.39,14.14,31.52,31.52,31.52c17.39,0,31.51-14.14,31.51-31.52C226.61,142.42,212.48,128.28,195.09,128.28z"/>
						<g>
							<path class="st34" d="M180.81,149.43c0.06-8.3,5.19-10.96,11.58-11.13l0.02-4.98l5.54,0.03l-0.03,5.03
								c4.08,0.22,7.18,0.89,10.05,1.78l-0.03,7.41c-3.5-0.32-9.73-0.61-12.59-0.63c-3.37-0.05-5.02,0.21-5.04,3.41l-0.01,1.43
								c-0.01,2.51,1.03,3.51,4.1,3.53l4.66,0.02c8.61,0.05,10.38,7.09,10.36,11.76l-0.02,2.42c-0.04,9.86-5.93,12.08-11.69,12.05
								l-0.03,4.75l-5.53-0.02l0.03-4.83c-4.74-0.16-6.41-0.62-10.18-1.81l0.05-7.36c2.32,0.18,8.02,0.6,13.4,0.63
								c2.46,0.01,4.44-0.56,4.45-3.06l0.01-1.68c0-2.09-0.63-3.33-3.48-3.35l-4.5-0.02c-10.39-0.05-11.15-8.57-11.13-11.76
								L180.81,149.43z"/>
						</g>
					</g>
					<g class="st66">
						<path class="st34" d="M183.82,114.44l-34.1,34.1c-0.89,3.58-1.36,7.33-1.37,11.18l46.64-46.66
							C191.14,113.07,187.4,113.54,183.82,114.44z"/>
						<path class="st34" d="M211.38,115.97l-60.12,60.12c3.03,8.13,8.25,15.19,14.94,20.46l65.65-65.65
							C226.57,124.22,219.52,118.99,211.38,115.97z"/>
					</g>
				</g>
			</g>
			<g>
				<rect x="166.9" y="227.48" class="st31" width="64.9" height="7.74"/>
				<rect x="166.9" y="243.08" class="st31" width="64.9" height="7.73"/>
				<rect x="166.9" y="258.66" class="st31" width="64.9" height="7.75"/>
			</g>
		</g>
	</g>
	<g>
		<path class="st3" d="M184.79,631.51c-4.11-3.82-6.17-9.72-6.17-17.7c0-6.13,1.16-11.34,3.47-15.62c2.31-4.28,5.33-7.48,9.05-9.6
			s7.7-3.18,11.94-3.18c3.55,0,6.65,0.38,9.31,1.13c2.65,0.75,5.05,1.86,7.19,3.32c0.58,0.44,0.88,0.92,0.88,1.46
			c0,0.44-0.22,1.05-0.66,1.83l-3.5,6.06c-0.39,0.68-0.85,1.02-1.39,1.02c-0.34,0-0.9-0.19-1.68-0.58
			c-2.48-1.31-5.26-1.97-8.32-1.97c-2.43,0-4.46,0.54-6.1,1.61c-1.63,1.07-3.05,2.65-4.27,4.75c1.41-0.73,3.14-1.34,5.18-1.83
			c2.04-0.49,3.99-0.73,5.84-0.73c4.04,0,7.41,0.71,10.11,2.12c2.7,1.41,4.71,3.3,6.02,5.66c1.31,2.36,1.97,4.98,1.97,7.85
			c0,6.67-1.98,11.69-5.95,15.07c-3.97,3.38-9.58,5.07-16.83,5.07C194.27,637.24,188.9,635.33,184.79,631.51z M205.01,623.29
			c0.8-1.12,1.21-2.9,1.21-5.33s-0.4-4.21-1.21-5.33c-0.8-1.12-2.15-1.68-4.05-1.68c-1.7,0-2.93,0.56-3.69,1.68
			c-0.75,1.12-1.13,2.9-1.13,5.33s0.38,4.21,1.13,5.33c0.75,1.12,1.98,1.68,3.69,1.68C202.86,624.97,204.21,624.42,205.01,623.29z"
			/>
	</g>
</g>
</svg>
