<?xml version="1.0" encoding="utf-8"?>
<!-- Generator: Adobe Illustrator 23.0.0, SVG Export Plug-In . SVG Version: 6.00 Build 0)  -->
<svg version="1.1" id="Capa_1" xmlns="http://www.w3.org/2000/svg" xmlns:xlink="http://www.w3.org/1999/xlink" x="0px" y="0px"
	 viewBox="0 0 400 702" style="enable-background:new 0 0 400 702;" xml:space="preserve">
<style type="text/css">
	.st0{fill:#0085B0;}
	.st1{fill:#CECECE;}
	.st2{fill:#FFFFFF;}
	.st3{fill:#2ACCFF;}
	.st4{fill:#00D13C;}
	.st5{fill:#E0EF18;}
	.st6{fill:#F2F2F2;}
	.st7{fill:#EACCB0;}
	.st8{fill:#9B9B9B;}
	.st9{fill:#939393;}
	.st10{fill:#EFEFEF;}
	.st11{fill:#828282;}
	.st12{fill:#2C2A2D;}
	.st13{fill:#202021;}
	.st14{fill:#F2D4B6;}
	.st15{fill:#534D46;}
	.st16{fill:#E8D313;}
	.st17{fill:#4E4F4F;}
	.st18{fill:#003A94;}
	.st19{fill:#15682A;}
	.st20{fill:#D40000;}
	.st21{fill:#505050;}
	.st22{fill:none;}
	.st23{fill:#636363;}
	.st24{fill:#DFDFDF;}
	.st25{fill:#6C92D5;}
	.st26{fill:#22272F;}
	.st27{fill:#1B2538;}
	.st28{fill:#253452;}
	.st29{fill:#F9F9F9;}
	.st30{fill:#2D3543;}
	.st31{fill:#2A3D60;}
	.st32{fill:#587955;}
	.st33{fill:#CD7054;}
	.st34{fill:#F1CC4B;}
	.st35{fill:#ACACAC;}
	.st36{fill:#AAE528;}
	.st37{fill:#28CEBA;}
	.st38{fill:#DB143F;}
	.st39{opacity:0.7;fill:#7F7F7F;}
	.st40{fill:#FDFDFD;}
	.st41{fill:#DAA449;}
	.st42{fill:#DD9225;}
	.st43{opacity:0.3;}
	.st44{fill:#53C2C9;}
	.st45{fill:#FFB412;}
	.st46{fill:#866A5E;}
	.st47{fill:#F7DDCB;}
	.st48{fill:#FFE6D4;}
	.st49{fill:#F5F5F5;}
	.st50{fill:#1A2830;}
	.st51{fill:#24353F;}
	.st52{fill:#132026;}
	.st53{fill:#F9FF03;}
	.st54{fill:#272728;}
	.st55{fill:#1E1D1E;}
	.st56{fill:#160423;}
	.st57{fill-rule:evenodd;clip-rule:evenodd;fill:#FFFFFF;}
	.st58{fill-rule:evenodd;clip-rule:evenodd;fill:#1996B8;}
	.st59{fill:#0C387D;}
	.st60{fill:#C69A81;}
	.st61{fill:#D1A385;}
	.st62{fill:#EAEAEA;}
	.st63{fill:#093E8C;}
	.st64{fill:#0B2A62;}
	.st65{fill:#D32A3B;}
	.st66{fill:#827C7D;}
</style>
<g>
	<g>
		<path class="st4" d="M9.5,209.36c0,22,13.29,27.86,29.54,13.03c0,0,156.99-143.3,353.09,26.97V55c0-22-18-40-40-40H49.5
			c-22,0-40,18-40,40V209.36z"/>
	</g>
	<g>
		<path class="st4" d="M391.66,647c0,22-18,40-40,40H49.98c-22,0-40-18-40-40v-46.27c0-22,18-40,40-40h301.68c22,0,40,18,40,40V647z
			"/>
	</g>
	<g>
		<path d="M132.03,396.24c-2.15-2.16-3.22-5.22-3.22-9.19c0-3.97,1.07-7.03,3.22-9.19c2.15-2.16,5.3-3.24,9.45-3.24
			c4.15,0,7.3,1.08,9.45,3.24c2.15,2.16,3.22,5.22,3.22,9.19c0,3.97-1.07,7.03-3.22,9.19c-2.15,2.16-5.3,3.24-9.45,3.24
			C137.33,399.48,134.18,398.4,132.03,396.24z M144.77,391.97c0.68-1.08,1.02-2.72,1.02-4.92c0-2.22-0.34-3.86-1.02-4.93
			c-0.68-1.07-1.77-1.61-3.29-1.61c-1.52,0-2.61,0.54-3.29,1.61c-0.68,1.07-1.01,2.72-1.01,4.93c0,2.19,0.34,3.83,1.01,4.92
			c0.68,1.08,1.77,1.63,3.29,1.63C143,393.6,144.1,393.05,144.77,391.97z"/>
		<path d="M156.38,398.46c-0.32-0.33-0.47-0.83-0.47-1.5v-19.81c0-0.68,0.16-1.18,0.47-1.5c0.31-0.33,0.86-0.49,1.63-0.49h14.49
			c0.75,0,1.25,0.16,1.52,0.47s0.4,0.82,0.4,1.52v1.96c0,0.7-0.13,1.21-0.4,1.52c-0.27,0.31-0.78,0.47-1.52,0.47h-8.19v2.97h5.04
			c0.75,0,1.25,0.16,1.52,0.47c0.27,0.31,0.4,0.82,0.4,1.52v1.96c0,0.7-0.13,1.21-0.4,1.52c-0.27,0.32-0.78,0.47-1.52,0.47h-5.04
			v6.93c0,0.68-0.16,1.18-0.47,1.5c-0.32,0.33-0.87,0.49-1.66,0.49H158C157.23,398.95,156.69,398.79,156.38,398.46z"/>
		<path d="M176.12,398.46c-0.32-0.33-0.47-0.83-0.47-1.5v-19.81c0-0.68,0.16-1.18,0.47-1.5c0.32-0.33,0.86-0.49,1.63-0.49h8.37
			c3.5,0,6.05,0.69,7.65,2.08c1.6,1.39,2.4,3.48,2.4,6.28c0,1.68-0.29,3.1-0.86,4.25c-0.57,1.16-1.45,2.06-2.64,2.71l3.25,6.96
			c0.09,0.19,0.14,0.4,0.14,0.63c0,0.26-0.09,0.47-0.26,0.63c-0.18,0.16-0.4,0.25-0.68,0.25h-5.91c-0.37,0-0.67-0.05-0.89-0.16
			c-0.22-0.11-0.38-0.29-0.47-0.54l-2.59-6.51h-1.19v5.21c0,0.68-0.16,1.18-0.47,1.5c-0.32,0.33-0.87,0.49-1.66,0.49h-4.17
			C176.97,398.95,176.43,398.79,176.12,398.46z M185.37,385.9c0.75,0,1.33-0.2,1.77-0.6c0.43-0.4,0.65-0.99,0.65-1.78
			c0-0.82-0.22-1.42-0.65-1.82c-0.43-0.4-1.02-0.59-1.77-0.59h-2.38v4.79H185.37z"/>
		<path d="M198.38,398.46c-0.31-0.33-0.47-0.83-0.47-1.5v-19.81c0-0.68,0.16-1.18,0.47-1.5c0.32-0.33,0.86-0.49,1.63-0.49h14.49
			c0.75,0,1.25,0.16,1.52,0.47c0.27,0.31,0.4,0.82,0.4,1.52v1.96c0,0.7-0.13,1.21-0.4,1.52c-0.27,0.31-0.78,0.47-1.52,0.47h-8.19
			v3.01h5.04c0.75,0,1.25,0.16,1.52,0.47c0.27,0.31,0.4,0.82,0.4,1.52V388c0,0.7-0.13,1.21-0.4,1.52c-0.27,0.32-0.78,0.47-1.52,0.47
			h-5.04V393h8.16c0.75,0,1.25,0.16,1.52,0.47s0.4,0.82,0.4,1.52v1.96c0,0.7-0.13,1.21-0.4,1.52c-0.27,0.32-0.78,0.47-1.52,0.47H200
			C199.23,398.95,198.69,398.79,198.38,398.46z"/>
		<path d="M219.25,396.34c-2.36-2.09-3.54-5.19-3.54-9.29c0-4.13,1.14-7.23,3.41-9.31c2.27-2.08,5.52-3.12,9.75-3.12
			c1.91,0,3.62,0.19,5.11,0.56c1.49,0.37,2.74,0.9,3.74,1.58c0.28,0.21,0.42,0.44,0.42,0.7c0,0.21-0.1,0.5-0.31,0.88l-1.75,3.01
			c-0.19,0.33-0.41,0.49-0.67,0.49c-0.16,0-0.43-0.09-0.81-0.28c-0.65-0.33-1.34-0.58-2.05-0.77c-0.71-0.19-1.55-0.28-2.5-0.28
			c-1.94,0-3.42,0.56-4.45,1.68c-1.03,1.12-1.54,2.74-1.54,4.86c0,2.1,0.56,3.72,1.68,4.85c1.12,1.13,2.65,1.7,4.58,1.7
			c1.68,0,3.22-0.35,4.62-1.05c0.37-0.19,0.64-0.28,0.81-0.28c0.26,0,0.48,0.16,0.66,0.49l1.75,3.01c0.21,0.37,0.32,0.67,0.32,0.88
			c0,0.26-0.14,0.49-0.42,0.7c-1,0.68-2.26,1.2-3.78,1.58c-1.52,0.37-3.23,0.56-5.14,0.56
			C224.91,399.48,221.61,398.43,219.25,396.34z"/>
		<path d="M240.72,398.46c-0.31-0.33-0.47-0.83-0.47-1.5v-19.81c0-0.68,0.16-1.18,0.47-1.5c0.32-0.33,0.86-0.49,1.63-0.49h14.49
			c0.75,0,1.25,0.16,1.52,0.47c0.27,0.31,0.4,0.82,0.4,1.52v1.96c0,0.7-0.13,1.21-0.4,1.52c-0.27,0.31-0.78,0.47-1.52,0.47h-8.19
			v3.01h5.04c0.75,0,1.25,0.16,1.52,0.47c0.27,0.31,0.4,0.82,0.4,1.52V388c0,0.7-0.13,1.21-0.4,1.52c-0.27,0.32-0.78,0.47-1.52,0.47
			h-5.04V393h8.16c0.75,0,1.25,0.16,1.52,0.47s0.4,0.82,0.4,1.52v1.96c0,0.7-0.13,1.21-0.4,1.52c-0.27,0.32-0.78,0.47-1.52,0.47
			h-14.45C241.58,398.95,241.04,398.79,240.72,398.46z"/>
		<path d="M260.81,398.46c-0.31-0.33-0.47-0.83-0.47-1.5v-19.81c0-0.68,0.16-1.18,0.47-1.5c0.32-0.33,0.86-0.49,1.63-0.49h8.36
			c3.5,0,6.05,0.69,7.65,2.08c1.6,1.39,2.4,3.48,2.4,6.28c0,1.68-0.29,3.1-0.86,4.25s-1.45,2.06-2.64,2.71l3.25,6.96
			c0.09,0.19,0.14,0.4,0.14,0.63c0,0.26-0.09,0.47-0.26,0.63c-0.17,0.16-0.4,0.25-0.68,0.25h-5.92c-0.37,0-0.67-0.05-0.89-0.16
			c-0.22-0.11-0.38-0.29-0.47-0.54l-2.59-6.51h-1.19v5.21c0,0.68-0.16,1.18-0.47,1.5c-0.31,0.33-0.87,0.49-1.66,0.49h-4.16
			C261.67,398.95,261.13,398.79,260.81,398.46z M270.07,385.9c0.75,0,1.34-0.2,1.77-0.6c0.43-0.4,0.65-0.99,0.65-1.78
			c0-0.82-0.22-1.42-0.65-1.82s-1.02-0.59-1.77-0.59h-2.38v4.79H270.07z"/>
		<path d="M68.04,440.46c-0.32-0.33-0.47-0.83-0.47-1.5v-19.81c0-0.68,0.16-1.18,0.47-1.5c0.32-0.33,0.86-0.49,1.63-0.49h8.05
			c8.24,0,12.35,3.97,12.35,11.9c0,3.92-1.06,6.88-3.17,8.89c-2.11,2.01-5.17,3.01-9.19,3.01h-8.05
			C68.89,440.95,68.35,440.79,68.04,440.46z M78.03,435c1.31,0,2.25-0.43,2.82-1.29c0.57-0.86,0.86-2.42,0.86-4.66
			c0-2.24-0.29-3.79-0.86-4.65c-0.57-0.86-1.51-1.29-2.82-1.29h-2.07V435H78.03z"/>
		<path d="M92.29,440.46c-0.31-0.33-0.47-0.83-0.47-1.5v-19.81c0-0.68,0.16-1.18,0.47-1.5c0.32-0.33,0.86-0.49,1.63-0.49h4.17
			c0.79,0,1.35,0.16,1.66,0.47c0.31,0.31,0.47,0.82,0.47,1.52v19.81c0,0.68-0.16,1.18-0.47,1.5c-0.31,0.33-0.87,0.49-1.66,0.49
			h-4.17C93.15,440.95,92.61,440.79,92.29,440.46z"/>
		<path d="M107.11,440.81c-1.82-0.44-3.29-1.06-4.41-1.86c-0.47-0.33-0.7-0.64-0.7-0.95c0-0.21,0.08-0.43,0.24-0.67l2.03-3.18
			c0.21-0.3,0.42-0.46,0.63-0.46c0.19,0,0.41,0.08,0.67,0.25c0.84,0.51,1.8,0.92,2.89,1.21c1.08,0.29,2.14,0.44,3.17,0.44
			c0.86,0,1.49-0.12,1.87-0.35c0.38-0.23,0.58-0.59,0.58-1.08c0-0.54-0.26-0.97-0.77-1.29c-0.51-0.33-1.4-0.74-2.66-1.22
			c-2.36-0.91-4.21-1.94-5.56-3.1c-1.35-1.16-2.03-2.69-2.03-4.6c0-2.43,0.85-4.25,2.54-5.48c1.69-1.23,3.97-1.84,6.84-1.84
			c2.01,0,3.71,0.17,5.13,0.53c1.41,0.35,2.64,0.9,3.69,1.64c0.47,0.33,0.7,0.64,0.7,0.95c0,0.21-0.08,0.43-0.24,0.67l-2.03,3.18
			c-0.21,0.33-0.42,0.49-0.63,0.49c-0.14,0-0.36-0.09-0.67-0.28c-0.56-0.37-1.22-0.68-1.99-0.93c-0.77-0.25-1.6-0.37-2.49-0.37
			c-0.82,0-1.43,0.12-1.85,0.35s-0.63,0.61-0.63,1.12c0,0.42,0.15,0.77,0.44,1.05c0.29,0.28,0.66,0.52,1.1,0.72
			c0.44,0.2,1.21,0.52,2.31,0.96c1.75,0.7,3.13,1.37,4.13,2.01c1,0.64,1.76,1.41,2.28,2.31c0.51,0.9,0.77,2.04,0.77,3.41
			c0,2.1-0.79,3.8-2.36,5.09c-1.58,1.3-3.93,1.94-7.05,1.94C110.9,441.48,108.93,441.25,107.11,440.81z"/>
		<path d="M124.67,440.46c-0.32-0.33-0.47-0.83-0.47-1.5v-19.81c0-0.68,0.16-1.18,0.47-1.5c0.31-0.33,0.86-0.49,1.63-0.49h8.37
			c3.5,0,6.05,0.69,7.65,2.08c1.6,1.39,2.4,3.48,2.4,6.28c0,2.8-0.8,4.89-2.4,6.26s-4.14,2.06-7.61,2.06h-2.1v5.11
			c0,0.68-0.16,1.18-0.47,1.5c-0.32,0.33-0.87,0.49-1.66,0.49h-4.17C125.52,440.95,124.98,440.79,124.67,440.46z M133.92,427.9
			c0.75,0,1.33-0.2,1.77-0.6c0.43-0.4,0.65-0.99,0.65-1.78c0-0.82-0.22-1.42-0.65-1.82c-0.43-0.4-1.02-0.59-1.77-0.59h-2.38v4.79
			H133.92z"/>
		<path d="M147.4,438.24c-2.15-2.16-3.22-5.22-3.22-9.19c0-3.97,1.07-7.03,3.22-9.19c2.15-2.16,5.3-3.24,9.45-3.24
			c4.15,0,7.3,1.08,9.45,3.24c2.15,2.16,3.22,5.22,3.22,9.19c0,3.97-1.07,7.03-3.22,9.19c-2.15,2.16-5.3,3.24-9.45,3.24
			C152.7,441.48,149.54,440.4,147.4,438.24z M160.14,433.97c0.68-1.08,1.01-2.72,1.01-4.92c0-2.22-0.34-3.86-1.01-4.93
			c-0.68-1.07-1.77-1.61-3.29-1.61c-1.52,0-2.61,0.54-3.29,1.61c-0.68,1.07-1.02,2.72-1.02,4.93c0,2.19,0.34,3.83,1.02,4.92
			c0.68,1.08,1.77,1.63,3.29,1.63C158.37,435.6,159.46,435.05,160.14,433.97z"/>
		<path d="M171.74,440.46c-0.31-0.33-0.47-0.83-0.47-1.5v-19.84c0-0.68,0.16-1.17,0.47-1.49c0.32-0.32,0.87-0.47,1.66-0.47h3.33
			c0.49,0,0.87,0.06,1.14,0.19c0.27,0.13,0.53,0.38,0.79,0.75l6.33,9.42v-8.36c0-0.68,0.16-1.18,0.47-1.5
			c0.31-0.33,0.86-0.49,1.63-0.49h4.17c0.79,0,1.35,0.16,1.66,0.47c0.31,0.31,0.47,0.82,0.47,1.52v19.84c0,0.68-0.16,1.17-0.47,1.49
			c-0.31,0.32-0.87,0.47-1.66,0.47h-3.33c-0.49,0-0.87-0.06-1.14-0.19c-0.27-0.13-0.53-0.38-0.79-0.75l-6.34-9.42v8.4
			c0,0.68-0.16,1.17-0.47,1.49c-0.31,0.32-0.87,0.47-1.66,0.47h-4.16C172.6,440.95,172.06,440.79,171.74,440.46z"/>
		<path d="M196.31,440.46c-0.31-0.33-0.47-0.83-0.47-1.5v-19.81c0-0.68,0.16-1.18,0.47-1.5c0.32-0.33,0.86-0.49,1.63-0.49h4.17
			c0.79,0,1.35,0.16,1.66,0.47c0.31,0.31,0.47,0.82,0.47,1.52v19.81c0,0.68-0.16,1.18-0.47,1.5c-0.31,0.33-0.87,0.49-1.66,0.49
			h-4.17C197.17,440.95,196.63,440.79,196.31,440.46z"/>
		<path d="M207.16,440.46c-0.31-0.33-0.47-0.83-0.47-1.5v-19.81c0-0.68,0.16-1.18,0.47-1.5c0.32-0.33,0.86-0.49,1.63-0.49h10.6
			c2.85,0,4.94,0.61,6.28,1.82c1.34,1.21,2.01,2.94,2.01,5.18c0,1.05-0.23,1.98-0.68,2.78s-1.06,1.37-1.8,1.7
			c2.08,0.7,3.12,2.33,3.12,4.9c0,2.19-0.78,3.98-2.33,5.35c-1.55,1.38-3.83,2.07-6.84,2.07h-10.36
			C208.02,440.95,207.48,440.79,207.16,440.46z M217.71,426.15c1.07,0,1.61-0.51,1.61-1.54s-0.54-1.54-1.61-1.54h-2.66v3.08H217.71z
			 M218.31,435.04c0.49,0,0.89-0.16,1.19-0.47c0.3-0.31,0.46-0.74,0.46-1.28c0-0.56-0.15-0.99-0.44-1.29
			c-0.29-0.3-0.7-0.46-1.21-0.46h-3.26v3.5H218.31z"/>
		<path d="M230.54,440.46c-0.32-0.33-0.47-0.83-0.47-1.5v-19.81c0-0.68,0.16-1.18,0.47-1.5c0.32-0.33,0.86-0.49,1.63-0.49h4.17
			c0.79,0,1.35,0.16,1.66,0.47c0.32,0.31,0.47,0.82,0.47,1.52v19.81c0,0.68-0.16,1.18-0.47,1.5c-0.32,0.33-0.87,0.49-1.66,0.49
			h-4.17C231.4,440.95,230.86,440.79,230.54,440.46z"/>
		<path d="M241.39,440.46c-0.32-0.33-0.47-0.83-0.47-1.5v-19.81c0-0.68,0.16-1.18,0.47-1.5c0.31-0.33,0.86-0.49,1.63-0.49h4.17
			c0.79,0,1.35,0.16,1.66,0.47c0.31,0.31,0.47,0.82,0.47,1.52V435h8.15c0.75,0,1.25,0.16,1.52,0.47c0.27,0.32,0.4,0.82,0.4,1.52
			v1.96c0,0.7-0.13,1.21-0.4,1.52c-0.27,0.32-0.78,0.47-1.52,0.47h-14.46C242.25,440.95,241.71,440.79,241.39,440.46z"/>
		<path d="M260.92,440.46c-0.31-0.33-0.47-0.83-0.47-1.5v-19.81c0-0.68,0.16-1.18,0.47-1.5c0.32-0.33,0.86-0.49,1.63-0.49h4.17
			c0.79,0,1.35,0.16,1.66,0.47c0.31,0.31,0.47,0.82,0.47,1.52v19.81c0,0.68-0.16,1.18-0.47,1.5c-0.31,0.33-0.87,0.49-1.66,0.49
			h-4.17C261.78,440.95,261.24,440.79,260.92,440.46z"/>
		<path d="M271.77,440.46c-0.31-0.33-0.47-0.83-0.47-1.5v-19.81c0-0.68,0.16-1.18,0.47-1.5c0.32-0.33,0.86-0.49,1.63-0.49h8.05
			c8.24,0,12.36,3.97,12.36,11.9c0,3.92-1.06,6.88-3.17,8.89s-5.17,3.01-9.19,3.01h-8.05C272.63,440.95,272.09,440.79,271.77,440.46
			z M281.76,435c1.31,0,2.25-0.43,2.82-1.29s0.86-2.42,0.86-4.66c0-2.24-0.29-3.79-0.86-4.65s-1.51-1.29-2.82-1.29h-2.07V435H281.76
			z"/>
		<path d="M293.28,440.22c0-0.21,0.06-0.47,0.18-0.77l8.71-20.96c0.21-0.49,0.45-0.83,0.72-1.03c0.27-0.2,0.65-0.3,1.14-0.3h3.82
			c0.49,0,0.87,0.1,1.14,0.3c0.27,0.2,0.51,0.54,0.72,1.03l8.68,20.96c0.12,0.3,0.17,0.56,0.17,0.77c0,0.49-0.26,0.74-0.77,0.74
			h-6.58c-0.72,0-1.18-0.32-1.37-0.95l-0.84-2.59h-6.2l-0.8,2.59c-0.19,0.63-0.64,0.95-1.37,0.95h-6.58
			C293.53,440.95,293.28,440.71,293.28,440.22z M307.28,431.89l-1.37-4.34l-1.37,4.34H307.28z"/>
		<path d="M320.77,440.46c-0.31-0.33-0.47-0.83-0.47-1.5v-19.81c0-0.68,0.16-1.18,0.47-1.5c0.32-0.33,0.86-0.49,1.63-0.49h8.05
			c8.24,0,12.36,3.97,12.36,11.9c0,3.92-1.06,6.88-3.17,8.89s-5.17,3.01-9.19,3.01h-8.05C321.63,440.95,321.09,440.79,320.77,440.46
			z M330.76,435c1.31,0,2.25-0.43,2.82-1.29s0.86-2.42,0.86-4.66c0-2.24-0.29-3.79-0.86-4.65s-1.51-1.29-2.82-1.29h-2.07V435H330.76
			z"/>
		<path d="M165.07,481.13v-2.06c0-1.38,0.47-2.67,1.4-3.88c0.93-1.21,2.57-2.64,4.9-4.27c0.82-0.56,1.32-0.9,1.51-1.01
			c0.84-0.56,1.42-0.98,1.75-1.26c0.33-0.28,0.57-0.58,0.73-0.91c0.16-0.33,0.25-0.75,0.25-1.26c0-0.58-0.22-1.05-0.65-1.42
			c-0.43-0.36-1.09-0.54-1.98-0.54c-1.49,0-3.01,0.39-4.55,1.16c-0.37,0.19-0.64,0.28-0.8,0.28c-0.26,0-0.48-0.16-0.67-0.49
			l-1.75-3.01c-0.21-0.37-0.31-0.67-0.31-0.88c0-0.26,0.14-0.49,0.42-0.7c1-0.68,2.3-1.22,3.88-1.63c1.59-0.41,3.33-0.61,5.21-0.61
			c2.94,0,5.27,0.61,6.98,1.84c1.72,1.22,2.57,2.96,2.57,5.2c0,1.73-0.48,3.19-1.43,4.39c-0.96,1.2-2.52,2.5-4.69,3.9
			c-2.31,1.49-3.7,2.5-4.17,3.01h8.54c0.75,0,1.25,0.16,1.52,0.47c0.27,0.32,0.4,0.82,0.4,1.52v2c0,0.7-0.13,1.21-0.4,1.52
			c-0.27,0.32-0.78,0.47-1.52,0.47h-15.4C165.66,482.95,165.07,482.35,165.07,481.13z"/>
		<path d="M194.65,482.55c-0.3-0.27-0.46-0.74-0.46-1.42v-2.73h-8.44c-0.84,0-1.26-0.41-1.26-1.23v-3.22c0-0.54,0.05-0.93,0.14-1.19
			s0.32-0.6,0.67-1.02l9.52-11.48c0.4-0.47,0.72-0.77,0.98-0.91c0.26-0.14,0.7-0.21,1.33-0.21h3.36c0.77,0,1.31,0.16,1.63,0.49
			c0.32,0.33,0.47,0.83,0.47,1.5v11.3h1.33c0.75,0,1.25,0.16,1.52,0.47c0.27,0.31,0.4,0.82,0.4,1.52v1.96c0,0.7-0.13,1.21-0.4,1.52
			c-0.27,0.32-0.78,0.47-1.52,0.47h-1.33v2.73c0,0.68-0.16,1.15-0.47,1.42s-0.87,0.4-1.66,0.4h-4.17
			C195.5,482.95,194.95,482.82,194.65,482.55z M196.05,472.45v-4.58l-3.36,4.58H196.05z"/>
		<path d="M206.2,482.22c0-0.21,0.06-0.47,0.18-0.77l8.75-21.35c0.14-0.3,0.31-0.54,0.53-0.7c0.21-0.16,0.49-0.25,0.84-0.25h6.44
			c0.51,0,0.77,0.25,0.77,0.73c0,0.21-0.06,0.47-0.17,0.77l-8.75,21.35c-0.14,0.3-0.32,0.54-0.53,0.7
			c-0.21,0.16-0.49,0.25-0.84,0.25h-6.44C206.45,482.95,206.2,482.71,206.2,482.22z"/>
		<path d="M226.71,482.22c0-0.23,0.07-0.49,0.21-0.77L235,465.1h-8.68c-0.75,0-1.25-0.16-1.52-0.47c-0.27-0.32-0.4-0.82-0.4-1.52
			v-1.96c0-0.7,0.13-1.21,0.4-1.52c0.27-0.32,0.78-0.47,1.52-0.47h16.24c1,0,1.68,0.15,2.03,0.44s0.52,0.83,0.52,1.63
			c0,0.89-0.15,1.61-0.46,2.17l-9.21,18.62c-0.16,0.33-0.34,0.57-0.54,0.72c-0.2,0.15-0.47,0.23-0.82,0.23h-6.58
			C226.98,482.95,226.71,482.71,226.71,482.22z"/>
	</g>
	<polygon class="st5" points="200.76,96.93 214.23,124.22 244.34,128.59 222.55,149.83 227.7,179.83 200.76,165.67 173.83,179.83 
		178.97,149.83 157.18,128.59 187.29,124.22 	"/>
	<polygon class="st5" points="138.58,180.15 147.32,197.86 166.86,200.7 152.72,214.48 156.06,233.94 138.58,224.75 121.11,233.94 
		124.45,214.48 110.31,200.7 129.85,197.86 	"/>
	<polygon class="st5" points="268.68,180.15 277.42,197.86 296.95,200.7 282.82,214.48 286.15,233.94 268.68,224.75 251.2,233.94 
		254.54,214.48 240.4,200.7 259.94,197.86 	"/>
	<circle class="st1" cx="201.77" cy="213.97" r="121.96"/>
	<circle class="st2" cx="200.82" cy="200.58" r="121.96"/>
	<g>
		<path class="st2" d="M176.43,640.35v-4.31c0-2.87,0.97-5.57,2.92-8.1c1.95-2.53,5.35-5.5,10.22-8.91c1.7-1.17,2.75-1.87,3.14-2.12
			c1.75-1.17,2.97-2.04,3.65-2.63c0.68-0.58,1.19-1.22,1.53-1.9c0.34-0.68,0.51-1.56,0.51-2.63c0-1.22-0.45-2.2-1.35-2.96
			c-0.9-0.75-2.28-1.13-4.13-1.13c-3.12,0-6.28,0.8-9.49,2.41c-0.78,0.39-1.34,0.58-1.68,0.58c-0.54,0-1-0.34-1.39-1.02l-3.65-6.28
			c-0.44-0.78-0.66-1.39-0.66-1.82c0-0.54,0.29-1.02,0.88-1.46c2.09-1.41,4.79-2.54,8.1-3.39c3.31-0.85,6.93-1.28,10.88-1.28
			c6.13,0,10.99,1.28,14.56,3.83c3.58,2.55,5.37,6.17,5.37,10.84c0,3.6-1,6.66-2.99,9.16c-2,2.51-5.26,5.22-9.78,8.14
			c-4.82,3.12-7.71,5.21-8.69,6.28h17.81c1.56,0,2.62,0.33,3.18,0.99c0.56,0.66,0.84,1.71,0.84,3.17v4.16
			c0,1.46-0.28,2.52-0.84,3.18c-0.56,0.66-1.62,0.99-3.18,0.99h-32.12C177.65,644.14,176.43,642.88,176.43,640.35z"/>
	</g>
	<g>
		<g>
			<circle class="st19" cx="202.84" cy="193.18" r="45.69"/>
		</g>
	</g>
	<g>
		
			<ellipse transform="matrix(0.0227 -0.9997 0.9997 0.0227 5.1066 391.5803)" class="st2" cx="202.84" cy="193.18" rx="38.47" ry="38.47"/>
	</g>
	<g>
		<path class="st20" d="M201.14,188.37c0,4.43-4.49,6.6-8.71,9.63h8.94v5.02h-16.94v-1.43c0-2.23,1.19-3.8,2.85-5.29
			c4.64-4.13,7.97-5.79,7.97-7.73c0-1.13-0.74-2.17-2.56-2.17c-1.84,0-2.88,1.19-2.88,2.8v0.59h-5.29
			c-0.03-0.24-0.03-0.45-0.03-0.66c0-4.19,2.91-6.92,8.77-6.92C198.11,182.22,201.14,184.66,201.14,188.37z"/>
		<path class="st20" d="M215.01,182.22c-0.45,3.24-4.64,9.36-7.46,12.24h5.88v-4.25c1.01-1.46,2.7-4.34,3.12-6.03h2.53v10.28h2.85
			v4.37h-2.85v4.19h-5.65v-4.19h-9.96v-4.43c1.93-2.82,4.37-7.52,5.71-12.18H215.01z"/>
	</g>
	<g>
		<g>
			<path class="st21" d="M202.85,163.9h-0.02c-0.58,0-1.05-0.47-1.05-1.05v-3.35c0-0.58,0.47-1.05,1.05-1.05h0.02
				c0.58,0,1.05,0.47,1.05,1.05v3.35C203.9,163.43,203.43,163.9,202.85,163.9z"/>
		</g>
		<g>
			<path class="st21" d="M202.85,228.12h-0.02c-0.58,0-1.05-0.47-1.05-1.05v-3.36c0-0.58,0.47-1.05,1.05-1.05h0.02
				c0.58,0,1.05,0.47,1.05,1.05v3.36C203.9,227.65,203.43,228.12,202.85,228.12z"/>
		</g>
		<g>
			<path class="st21" d="M182.07,172.5l-0.01,0.02c-0.41,0.41-1.08,0.41-1.49,0l-2.37-2.37c-0.41-0.41-0.41-1.08,0-1.49l0.02-0.02
				c0.41-0.41,1.08-0.41,1.48,0l2.37,2.37C182.48,171.42,182.48,172.09,182.07,172.5z"/>
		</g>
		<g>
			<path class="st21" d="M227.48,217.91l-0.02,0.01c-0.41,0.41-1.08,0.41-1.48,0l-2.37-2.37c-0.41-0.41-0.41-1.07,0-1.48l0.01-0.02
				c0.41-0.41,1.08-0.41,1.49,0l2.37,2.37C227.89,216.83,227.89,217.5,227.48,217.91z"/>
		</g>
		<g>
			<path class="st21" d="M173.46,193.27v0.02c0,0.58-0.47,1.05-1.05,1.05h-3.36c-0.58,0-1.05-0.47-1.05-1.05v-0.02
				c0-0.58,0.47-1.05,1.05-1.05h3.36C172.99,192.22,173.46,192.69,173.46,193.27z"/>
		</g>
		<g>
			<path class="st21" d="M237.67,193.27v0.02c0,0.58-0.47,1.05-1.05,1.05h-3.36c-0.58,0-1.05-0.47-1.05-1.05v-0.02
				c0-0.58,0.47-1.05,1.05-1.05h3.36C237.2,192.22,237.67,192.69,237.67,193.27z"/>
		</g>
		<g>
			<path class="st21" d="M182.06,214.05l0.01,0.02c0.41,0.41,0.41,1.08,0,1.48l-2.37,2.37c-0.41,0.41-1.07,0.41-1.48,0l-0.02-0.01
				c-0.41-0.41-0.41-1.08,0-1.49l2.37-2.37C180.98,213.64,181.65,213.64,182.06,214.05z"/>
		</g>
		<g>
			<path class="st21" d="M227.46,168.64l0.02,0.02c0.41,0.41,0.41,1.07,0,1.49l-2.37,2.37c-0.41,0.41-1.08,0.41-1.49,0l-0.01-0.02
				c-0.41-0.41-0.41-1.07,0-1.48l2.37-2.37C226.39,168.23,227.05,168.23,227.46,168.64z"/>
		</g>
	</g>
	<g>
		<g>
			<path class="st21" d="M151.42,190.4c-0.38-11.74,1.12-26.21,8.54-37.63c8.38-12.89,22.84-19.5,42.88-19.5
				c20.04,0,34.49,6.61,42.88,19.5c7.42,11.41,8.92,25.89,8.54,37.63h6.71c0.47-12.98-1.22-29.19-9.73-42.38
				c-9.69-15.01-26.01-22.72-48.39-22.72c-22.38,0-38.7,7.71-48.39,22.72c-8.51,13.18-10.2,29.4-9.74,42.38H151.42z"/>
		</g>
		<g>
			<g>
				<path class="st21" d="M146.59,182.24c-1.45-0.69-3-1.08-4.62-1.08c-7.87,0-14.25,8.83-14.25,19.72
					c0,10.89,6.38,19.72,14.25,19.72c1.62,0,3.17-0.39,4.62-1.08V182.24z"/>
			</g>
			<g>
				<path class="st21" d="M151.77,177.19c-1.19-0.65-2.54-1.04-3.99-1.04h-0.17c-4.65,0-8.43,3.77-8.43,8.43v34.21
					c0,4.65,3.77,8.43,8.43,8.43h0.17c1.45,0,2.79-0.4,3.99-1.04V177.19z"/>
			</g>
		</g>
		<g>
			<path class="st21" d="M260.97,219.51l-3.77-0.01c0,1.41-0.56,32.87-39.33,36.11c-0.73-1.1-1.92-1.87-3.35-1.87h-14.78
				c-2.26,0-4.08,1.83-4.08,4.09v0.08c0,2.26,1.83,4.09,4.08,4.09h14.78c1.75,0,3.21-1.1,3.8-2.64
				C260.36,255.71,260.97,219.89,260.97,219.51z"/>
		</g>
		<g>
			<g>
				<path class="st21" d="M259.08,182.24c1.45-0.69,3-1.08,4.62-1.08c7.87,0,14.25,8.83,14.25,19.72c0,10.89-6.38,19.72-14.25,19.72
					c-1.62,0-3.17-0.39-4.62-1.08V182.24z"/>
			</g>
			<g>
				<path class="st21" d="M253.9,177.19c1.19-0.65,2.54-1.04,3.99-1.04h0.17c4.65,0,8.43,3.77,8.43,8.43v34.21
					c0,4.65-3.77,8.43-8.43,8.43h-0.17c-1.45,0-2.79-0.4-3.99-1.04V177.19z"/>
			</g>
		</g>
	</g>
</g>
</svg>
