<?xml version="1.0" encoding="utf-8"?>
<!-- Generator: Adobe Illustrator 23.0.0, SVG Export Plug-In . SVG Version: 6.00 Build 0)  -->
<svg version="1.1" id="Capa_1" xmlns="http://www.w3.org/2000/svg" xmlns:xlink="http://www.w3.org/1999/xlink" x="0px" y="0px"
	 viewBox="0 0 400 702" style="enable-background:new 0 0 400 702;" xml:space="preserve">
<style type="text/css">
	.st0{fill:#0085B0;}
	.st1{fill:#E0EF18;}
	.st2{fill:#CECECE;}
	.st3{fill:#FFFFFF;}
	.st4{fill:#F2F2F2;}
	.st5{fill:#EACCB0;}
	.st6{fill:#9B9B9B;}
	.st7{fill:#939393;}
	.st8{fill:#EFEFEF;}
	.st9{fill:#828282;}
	.st10{fill:#2C2A2D;}
	.st11{fill:#202021;}
	.st12{fill:#F2D4B6;}
	.st13{fill:#534D46;}
	.st14{fill:#E8D313;}
</style>
<g>
	<g>
		<g>
			<g>
				<path class="st0" d="M9.5,209.36c0,22,13.29,27.86,29.54,13.03c0,0,156.99-143.3,353.09,26.97V55c0-22-18-40-40-40H49.5
					c-22,0-40,18-40,40V209.36z"/>
			</g>
			<g>
				<path class="st0" d="M391.66,647c0,22-18,40-40,40H49.98c-22,0-40-18-40-40v-46.27c0-22,18-40,40-40h301.68c22,0,40,18,40,40
					V647z"/>
			</g>
			<g>
				<g>
					<path d="M41.28,407.6c-0.22-0.23-0.22-0.23-0.22-0.23c-0.06-0.46-0.11-4.01-0.11-7.89s0.05-7.43,0.11-7.88c0,0,0,0,0.22-0.22
						c0.22-0.22,0.22-0.22,0.22-0.22c0.53-0.06,1.6-0.11,2.39-0.11s1.72,0.02,2.08,0.05c0,0,0,0,0.22,0.09s0.22,0.09,0.22,0.09
						c0.16,0.24,0.94,2.08,1.74,4.09s2.11,2,2.91,0s1.58-3.84,1.74-4.09c0,0,0,0,0.22-0.09c0.22-0.09,0.22-0.09,0.22-0.09
						c0.36-0.03,1.3-0.05,2.09-0.05s1.86,0.05,2.39,0.11c0,0,0,0,0.22,0.22c0.22,0.22,0.22,0.22,0.22,0.22
						c0.06,0.46,0.11,4.01,0.11,7.88s-0.05,7.43-0.11,7.89c0,0,0,0-0.22,0.23c-0.22,0.23-0.22,0.23-0.22,0.23
						c-0.51,0.06-1.47,0.12-2.13,0.12s-1.62-0.05-2.13-0.12c0,0,0,0-0.23-0.23c-0.23-0.23-0.23-0.23-0.23-0.23
						c-0.06-0.46-0.12-2.37-0.12-4.23s-0.33-2.63-0.73-1.7s-0.92,2.06-1.15,2.52c0,0,0,0-0.23,0.21c-0.23,0.21-0.61,0.31-1.14,0.31
						c-0.53,0-0.91-0.1-1.14-0.31c-0.23-0.21-0.23-0.21-0.23-0.21c-0.23-0.45-0.74-1.59-1.15-2.52s-0.73-0.16-0.73,1.7
						s-0.05,3.77-0.11,4.23c0,0,0,0-0.22,0.23c-0.22,0.23-0.22,0.23-0.22,0.23c-0.53,0.06-1.49,0.12-2.15,0.12s-1.61-0.05-2.13-0.12
						C41.51,407.84,41.51,407.84,41.28,407.6z"/>
				</g>
				<g>
					<path d="M60.33,407.6c-0.22-0.23-0.22-0.23-0.22-0.23c-0.06-0.46-0.11-4.01-0.11-7.88s0.05-7.42,0.11-7.88c0,0,0,0,0.22-0.23
						c0.22-0.23,0.22-0.23,0.22-0.23c0.51-0.06,3.25-0.12,6.08-0.12s5.55,0.05,6.04,0.11c0,0,0,0,0.19,0.22
						c0.19,0.22,0.19,0.22,0.19,0.22c0.05,0.47,0.1,1.17,0.1,1.55s-0.04,1.08-0.1,1.55c0,0,0,0-0.19,0.22
						c-0.19,0.22-0.19,0.22-0.19,0.22c-0.49,0.06-2.2,0.11-3.8,0.11s-2.91,0.48-2.91,1.07s0.81,1.07,1.79,1.07s2.19,0.05,2.68,0.11
						c0,0,0,0,0.19,0.22c0.19,0.22,0.19,0.22,0.19,0.22c0.05,0.47,0.1,1.16,0.1,1.53s-0.04,1.06-0.1,1.53c0,0,0,0-0.19,0.22
						c-0.19,0.22-0.19,0.22-0.19,0.22c-0.49,0.06-1.7,0.11-2.68,0.11s-1.79,0.48-1.79,1.07s1.3,1.07,2.9,1.07s3.3,0.05,3.79,0.11
						c0,0,0,0,0.19,0.22s0.19,0.22,0.19,0.22c0.05,0.47,0.1,1.17,0.1,1.55s-0.04,1.08-0.1,1.55c0,0,0,0-0.19,0.22
						s-0.19,0.22-0.19,0.22c-0.49,0.06-3.2,0.11-6.03,0.11s-5.56-0.05-6.07-0.12C60.56,407.84,60.56,407.84,60.33,407.6z"/>
				</g>
				<g>
					<path d="M76.62,408.33c-1.88-0.9-3.55-1.78-3.71-1.96c0,0,0,0,0-0.18c0-0.15,0-0.15,0-0.15c0.12-0.26,0.5-0.95,0.85-1.54
						s0.77-1.25,0.96-1.47c0,0,0,0,0.18,0c0.12,0,0.12,0,0.12,0c0.21,0.12,1.08,0.63,1.94,1.12c0,0,0,0,0.73,0c1.13,0,1.13,0,1.13,0
						c0.31-0.89,0.56-3.88,0.56-6.65s0.05-5.41,0.11-5.87c0,0,0,0,0.22-0.23c0.22-0.23,0.22-0.23,0.22-0.23
						c0.51-0.06,1.6-0.12,2.41-0.12s1.91,0.05,2.44,0.11c0,0,0,0,0.22,0.22c0.22,0.22,0.22,0.22,0.22,0.22
						c0.06,0.47,0.11,3.14,0.11,5.92s-0.25,6.48-0.55,8.22c0,0,0,0-1.09,1.04c-1.09,1.04-2.67,1.55-4.73,1.55
						C76.62,408.33,76.62,408.33,76.62,408.33z"/>
				</g>
				<g>
					<path d="M88.75,406.02c-1.53-1.53-2.29-3.71-2.29-6.53c0-2.82,0.76-5,2.29-6.53c1.53-1.53,3.76-2.3,6.72-2.3
						c2.95,0,5.19,0.77,6.72,2.3c1.53,1.53,2.29,3.71,2.29,6.53c0,2.82-0.76,5-2.29,6.53c-1.53,1.53-3.76,2.3-6.72,2.3
						C92.51,408.33,90.27,407.56,88.75,406.02z M97.8,402.99c0.48-0.77,0.72-1.94,0.72-3.49c0-1.58-0.24-2.74-0.72-3.51
						c-0.48-0.76-1.26-1.14-2.34-1.14c-1.08,0-1.86,0.38-2.34,1.14c-0.48,0.76-0.72,1.93-0.72,3.51c0,1.56,0.24,2.72,0.72,3.49
						c0.48,0.77,1.26,1.16,2.34,1.16C96.54,404.15,97.32,403.76,97.8,402.99z"/>
				</g>
				<g>
					<path d="M106.05,407.6c-0.22-0.23-0.22-0.23-0.22-0.23c-0.06-0.46-0.11-4.01-0.11-7.88s0.05-7.42,0.11-7.88c0,0,0,0,0.22-0.23
						c0.22-0.23,0.22-0.23,0.22-0.23c0.51-0.06,2.27-0.12,3.9-0.12s4.91,0.22,7.27,0.49c0,0,0,0,1.14,0.99s1.7,2.47,1.7,4.46
						c0,1.19-0.2,2.2-0.61,3.02s-0.41,0.82-0.41,0.82c-0.81,0.61-0.95,2.22-0.31,3.58s1.2,2.6,1.26,2.76c0,0,0,0,0,0.17
						c0,0.18-0.06,0.33-0.19,0.45c-0.12,0.12-0.12,0.12-0.12,0.12c-0.2,0.03-1.31,0.06-2.46,0.06s-2.32-0.02-2.58-0.04
						c0,0,0,0-0.16-0.08c-0.16-0.07-0.16-0.07-0.16-0.07c-0.1-0.17-0.59-1.35-1.1-2.62s-1.11-2.31-1.34-2.31s-0.42,0.83-0.42,1.85
						s-0.05,2.23-0.11,2.69c0,0,0,0-0.22,0.23c-0.22,0.23-0.22,0.23-0.22,0.23c-0.53,0.06-1.62,0.12-2.44,0.12s-1.9-0.05-2.41-0.12
						C106.27,407.84,106.27,407.84,106.05,407.6z M111.78,398.67c0.47,0,1.27-0.06,1.79-0.14c0,0,0,0,0.31-0.28
						c0.31-0.28,0.46-0.7,0.46-1.27c0-0.58-0.15-1.01-0.46-1.29c-0.31-0.28-0.31-0.28-0.31-0.28c-0.52-0.08-1.33-0.14-1.79-0.14
						s-0.85,0.77-0.85,1.7S111.31,398.67,111.78,398.67z"/>
				</g>
				<g>
					<path d="M119.91,407.43c0-0.15,0-0.15,0-0.15c0.07-0.22,1.52-3.75,3.22-7.85s3.24-7.72,3.42-8.04c0,0,0,0,0.19-0.14
						c0.19-0.14,0.19-0.14,0.19-0.14c0.34-0.04,1.23-0.07,1.97-0.07s1.63,0.03,1.97,0.07c0,0,0,0,0.19,0.14
						c0.19,0.14,0.19,0.14,0.19,0.14c0.18,0.33,1.71,3.94,3.4,8.04s3.14,7.63,3.21,7.85c0,0,0,0,0,0.15c0,0.35,0,0.35,0,0.35
						c-0.3,0.1-1.6,0.17-2.89,0.17s-2.53-0.05-2.76-0.11s-0.69-0.97-0.85-1.48s-1.29-0.92-2.5-0.92s-2.33,0.41-2.49,0.92
						s-0.39,1.07-0.51,1.26s-1.79,0.34-3.08,0.34s-2.58-0.08-2.89-0.17C119.91,407.78,119.91,407.78,119.91,407.43z M128.89,401.51
						c0.53,0,0.75-0.69,0.49-1.54s-0.7-0.85-0.97,0S128.36,401.51,128.89,401.51z"/>
				</g>
				<g>
					<path d="M139.45,407.6c-0.22-0.23-0.22-0.23-0.22-0.23c-0.06-0.46-0.11-4.01-0.11-7.88s0.05-7.42,0.11-7.88c0,0,0,0,0.22-0.23
						c0.22-0.23,0.22-0.23,0.22-0.23c0.51-0.06,2.27-0.12,3.9-0.12s4.91,0.22,7.27,0.49c0,0,0,0,1.14,0.99s1.7,2.47,1.7,4.46
						c0,1.19-0.2,2.2-0.61,3.02s-0.41,0.82-0.41,0.82c-0.81,0.61-0.95,2.22-0.31,3.58s1.2,2.6,1.26,2.76c0,0,0,0,0,0.17
						c0,0.18-0.06,0.33-0.19,0.45c-0.12,0.12-0.12,0.12-0.12,0.12c-0.2,0.03-1.31,0.06-2.46,0.06s-2.32-0.02-2.58-0.04
						c0,0,0,0-0.16-0.08c-0.16-0.07-0.16-0.07-0.16-0.07c-0.1-0.17-0.59-1.35-1.1-2.62s-1.11-2.31-1.34-2.31s-0.42,0.83-0.42,1.85
						s-0.05,2.23-0.11,2.69c0,0,0,0-0.22,0.23c-0.22,0.23-0.22,0.23-0.22,0.23c-0.53,0.06-1.62,0.12-2.44,0.12s-1.9-0.05-2.41-0.12
						C139.67,407.84,139.67,407.84,139.45,407.6z M145.18,398.67c0.47,0,1.27-0.06,1.79-0.14c0,0,0,0,0.31-0.28
						c0.31-0.28,0.46-0.7,0.46-1.27c0-0.58-0.15-1.01-0.46-1.29c-0.31-0.28-0.31-0.28-0.31-0.28c-0.52-0.08-1.33-0.14-1.79-0.14
						s-0.85,0.77-0.85,1.7S144.72,398.67,145.18,398.67z"/>
				</g>
				<g>
					<path d="M162.73,407.6c-0.22-0.23-0.22-0.23-0.22-0.23c-0.06-0.46-0.11-4.01-0.11-7.88s0.05-7.42,0.11-7.88c0,0,0,0,0.22-0.23
						c0.22-0.23,0.22-0.23,0.22-0.23c0.51-0.06,1.6-0.12,2.41-0.12s1.91,0.05,2.44,0.11c0,0,0,0,0.22,0.22
						c0.22,0.22,0.22,0.22,0.22,0.22c0.06,0.47,0.11,3.39,0.11,6.49s1.3,5.63,2.9,5.63s3.3,0.05,3.79,0.11c0,0,0,0,0.19,0.22
						s0.19,0.22,0.19,0.22c0.05,0.47,0.1,1.17,0.1,1.55s-0.04,1.08-0.1,1.55c0,0,0,0-0.19,0.22s-0.19,0.22-0.19,0.22
						c-0.49,0.06-3.2,0.11-6.03,0.11s-5.56-0.05-6.07-0.12C162.95,407.84,162.95,407.84,162.73,407.6z"/>
				</g>
				<g>
					<path d="M175.4,407.43c0-0.15,0-0.15,0-0.15c0.07-0.22,1.52-3.75,3.22-7.85s3.24-7.72,3.42-8.04c0,0,0,0,0.19-0.14
						c0.19-0.14,0.19-0.14,0.19-0.14c0.34-0.04,1.23-0.07,1.97-0.07s1.63,0.03,1.97,0.07c0,0,0,0,0.19,0.14
						c0.19,0.14,0.19,0.14,0.19,0.14c0.18,0.33,1.71,3.94,3.4,8.04s3.14,7.63,3.21,7.85c0,0,0,0,0,0.15c0,0.35,0,0.35,0,0.35
						c-0.3,0.1-1.6,0.17-2.89,0.17s-2.53-0.05-2.76-0.11s-0.69-0.97-0.85-1.48s-1.29-0.92-2.5-0.92s-2.33,0.41-2.49,0.92
						s-0.39,1.07-0.51,1.26s-1.79,0.34-3.08,0.34s-2.58-0.08-2.89-0.17C175.4,407.78,175.4,407.78,175.4,407.43z M184.38,401.51
						c0.53,0,0.75-0.69,0.49-1.54s-0.7-0.85-0.97,0S183.84,401.51,184.38,401.51z"/>
				</g>
				<g>
					<path d="M202.4,407.6c-0.22-0.23-0.22-0.23-0.22-0.23c-0.06-0.46-0.11-4.01-0.11-7.88s0.05-7.42,0.11-7.88c0,0,0,0,0.22-0.23
						c0.22-0.23,0.22-0.23,0.22-0.23c0.51-0.06,3.25-0.12,6.08-0.12s5.55,0.05,6.04,0.11c0,0,0,0,0.19,0.22
						c0.19,0.22,0.19,0.22,0.19,0.22c0.05,0.47,0.1,1.17,0.1,1.55s-0.04,1.08-0.1,1.55c0,0,0,0-0.19,0.22
						c-0.19,0.22-0.19,0.22-0.19,0.22c-0.49,0.06-2.2,0.11-3.8,0.11s-2.91,0.48-2.91,1.07s0.81,1.07,1.79,1.07s2.19,0.05,2.68,0.11
						c0,0,0,0,0.19,0.22c0.19,0.22,0.19,0.22,0.19,0.22c0.05,0.47,0.1,1.16,0.1,1.53s-0.04,1.06-0.1,1.53c0,0,0,0-0.19,0.22
						c-0.19,0.22-0.19,0.22-0.19,0.22c-0.49,0.06-1.7,0.11-2.68,0.11s-1.79,0.48-1.79,1.07s1.3,1.07,2.9,1.07s3.3,0.05,3.79,0.11
						c0,0,0,0,0.19,0.22s0.19,0.22,0.19,0.22c0.05,0.47,0.1,1.17,0.1,1.55s-0.04,1.08-0.1,1.55c0,0,0,0-0.19,0.22
						s-0.19,0.22-0.19,0.22c-0.49,0.06-3.2,0.11-6.03,0.11s-5.56-0.05-6.07-0.12C202.62,407.84,202.62,407.84,202.4,407.6z"/>
				</g>
				<g>
					<path d="M215.38,407.79c-0.11-0.11-0.16-0.24-0.16-0.38c0-0.17,0-0.17,0-0.17c0.11-0.2,1.48-2.09,3.05-4.2s1.67-5.44,0.22-7.39
						s-2.71-3.7-2.82-3.9c0,0,0,0,0-0.17c0-0.15,0.05-0.28,0.16-0.39c0.11-0.11,0.11-0.11,0.11-0.11c0.19-0.03,1.4-0.05,2.68-0.05
						s2.52,0.01,2.76,0.03c0,0,0,0,0.13,0.06c0.13,0.06,0.13,0.06,0.13,0.06c0.12,0.13,0.78,0.99,1.47,1.93s1.83,0.94,2.52,0
						s1.37-1.81,1.48-1.93c0,0,0,0,0.13-0.06c0.13-0.06,0.13-0.06,0.13-0.06c0.24-0.02,1.49-0.03,2.76-0.03s2.48,0.02,2.68,0.05
						c0,0,0,0,0.11,0.11c0.11,0.11,0.16,0.24,0.16,0.39c0,0.17,0,0.17,0,0.17c-0.11,0.2-1.39,1.95-2.84,3.9s-1.35,5.27,0.22,7.39
						s2.95,4,3.06,4.2c0,0,0,0,0,0.17c0,0.15-0.05,0.28-0.16,0.38c-0.11,0.11-0.11,0.11-0.11,0.11c-0.19,0.03-1.4,0.05-2.68,0.05
						s-2.52-0.01-2.77-0.03c0,0,0,0-0.13-0.06c-0.13-0.06-0.13-0.06-0.13-0.06c-0.12-0.13-0.89-1.13-1.71-2.23s-2.16-1.1-2.97,0
						s-1.58,2.1-1.7,2.23c0,0,0,0-0.13,0.06c-0.13,0.06-0.13,0.06-0.13,0.06c-0.24,0.02-1.49,0.03-2.76,0.03s-2.48-0.02-2.68-0.05
						C215.49,407.9,215.49,407.9,215.38,407.79z"/>
				</g>
				<g>
					<path d="M235.13,407.6c-0.22-0.23-0.22-0.23-0.22-0.23c-0.06-0.46-0.11-4.01-0.11-7.88s0.05-7.42,0.11-7.88c0,0,0,0,0.22-0.23
						c0.22-0.23,0.22-0.23,0.22-0.23c0.51-0.06,2.27-0.12,3.9-0.12s4.91,0.22,7.27,0.49c0,0,0,0,1.14,0.99s1.7,2.47,1.7,4.46
						c0,1.99-0.57,3.47-1.7,4.45c-1.14,0.98-1.14,0.98-1.14,0.98c-2.35,0.27-4.61,0.49-5.02,0.49s-0.75,0.82-0.75,1.82
						s-0.05,2.19-0.11,2.65c0,0,0,0-0.22,0.23c-0.22,0.23-0.22,0.23-0.22,0.23c-0.53,0.06-1.62,0.12-2.44,0.12s-1.9-0.05-2.41-0.12
						C235.35,407.84,235.35,407.84,235.13,407.6z M240.86,398.67c0.47,0,1.27-0.06,1.79-0.14c0,0,0,0,0.31-0.28
						c0.31-0.28,0.46-0.7,0.46-1.27c0-0.58-0.15-1.01-0.46-1.29c-0.31-0.28-0.31-0.28-0.31-0.28c-0.52-0.08-1.33-0.14-1.79-0.14
						s-0.85,0.77-0.85,1.7S240.39,398.67,240.86,398.67z"/>
				</g>
				<g>
					<path d="M250.45,407.6c-0.22-0.23-0.22-0.23-0.22-0.23c-0.06-0.46-0.11-4.01-0.11-7.88s0.05-7.42,0.11-7.88c0,0,0,0,0.22-0.23
						c0.22-0.23,0.22-0.23,0.22-0.23c0.51-0.06,3.25-0.12,6.08-0.12s5.55,0.05,6.04,0.11c0,0,0,0,0.19,0.22
						c0.19,0.22,0.19,0.22,0.19,0.22c0.05,0.47,0.1,1.17,0.1,1.55s-0.04,1.08-0.1,1.55c0,0,0,0-0.19,0.22
						c-0.19,0.22-0.19,0.22-0.19,0.22c-0.49,0.06-2.2,0.11-3.8,0.11s-2.91,0.48-2.91,1.07s0.81,1.07,1.79,1.07s2.19,0.05,2.68,0.11
						c0,0,0,0,0.19,0.22c0.19,0.22,0.19,0.22,0.19,0.22c0.05,0.47,0.1,1.16,0.1,1.53s-0.04,1.06-0.1,1.53c0,0,0,0-0.19,0.22
						c-0.19,0.22-0.19,0.22-0.19,0.22c-0.49,0.06-1.7,0.11-2.68,0.11s-1.79,0.48-1.79,1.07s1.3,1.07,2.9,1.07s3.3,0.05,3.79,0.11
						c0,0,0,0,0.19,0.22s0.19,0.22,0.19,0.22c0.05,0.47,0.1,1.17,0.1,1.55s-0.04,1.08-0.1,1.55c0,0,0,0-0.19,0.22
						s-0.19,0.22-0.19,0.22c-0.49,0.06-3.2,0.11-6.03,0.11s-5.56-0.05-6.07-0.12C250.67,407.84,250.67,407.84,250.45,407.6z"/>
				</g>
				<g>
					<path d="M264.72,407.6c-0.22-0.23-0.22-0.23-0.22-0.23c-0.06-0.46-0.11-4.01-0.11-7.88s0.05-7.42,0.11-7.88c0,0,0,0,0.22-0.23
						c0.22-0.23,0.22-0.23,0.22-0.23c0.51-0.06,2.27-0.12,3.9-0.12s4.91,0.22,7.27,0.49c0,0,0,0,1.14,0.99s1.7,2.47,1.7,4.46
						c0,1.19-0.2,2.2-0.61,3.02s-0.41,0.82-0.41,0.82c-0.81,0.61-0.95,2.22-0.31,3.58s1.2,2.6,1.26,2.76c0,0,0,0,0,0.17
						c0,0.18-0.06,0.33-0.19,0.45c-0.12,0.12-0.12,0.12-0.12,0.12c-0.2,0.03-1.31,0.06-2.46,0.06s-2.32-0.02-2.58-0.04
						c0,0,0,0-0.16-0.08c-0.16-0.07-0.16-0.07-0.16-0.07c-0.1-0.17-0.59-1.35-1.1-2.62s-1.11-2.31-1.34-2.31s-0.42,0.83-0.42,1.85
						s-0.05,2.23-0.11,2.69c0,0,0,0-0.22,0.23c-0.22,0.23-0.22,0.23-0.22,0.23c-0.53,0.06-1.62,0.12-2.44,0.12s-1.9-0.05-2.41-0.12
						C264.95,407.84,264.95,407.84,264.72,407.6z M270.45,398.67c0.47,0,1.27-0.06,1.79-0.14c0,0,0,0,0.31-0.28
						c0.31-0.28,0.46-0.7,0.46-1.27c0-0.58-0.15-1.01-0.46-1.29c-0.31-0.28-0.31-0.28-0.31-0.28c-0.52-0.08-1.33-0.14-1.79-0.14
						s-0.85,0.77-0.85,1.7S269.99,398.67,270.45,398.67z"/>
				</g>
				<g>
					<path d="M280.54,407.6c-0.22-0.23-0.22-0.23-0.22-0.23c-0.06-0.46-0.11-4.01-0.11-7.88s0.05-7.42,0.11-7.88c0,0,0,0,0.22-0.23
						c0.22-0.23,0.22-0.23,0.22-0.23c0.51-0.06,1.6-0.12,2.41-0.12s1.91,0.05,2.44,0.11c0,0,0,0,0.22,0.22
						c0.22,0.22,0.22,0.22,0.22,0.22c0.06,0.47,0.11,4.02,0.11,7.9s-0.05,7.42-0.11,7.88c0,0,0,0-0.22,0.23
						c-0.22,0.23-0.22,0.23-0.22,0.23c-0.53,0.06-1.62,0.12-2.44,0.12s-1.9-0.05-2.41-0.12
						C280.76,407.84,280.76,407.84,280.54,407.6z"/>
				</g>
				<g>
					<path d="M288.25,407.6c-0.22-0.23-0.22-0.23-0.22-0.23c-0.06-0.46-0.11-4.01-0.11-7.88s0.05-7.42,0.11-7.88c0,0,0,0,0.22-0.23
						c0.22-0.23,0.22-0.23,0.22-0.23c0.51-0.06,3.25-0.12,6.08-0.12s5.55,0.05,6.04,0.11c0,0,0,0,0.19,0.22
						c0.19,0.22,0.19,0.22,0.19,0.22c0.05,0.47,0.1,1.17,0.1,1.55s-0.04,1.08-0.1,1.55c0,0,0,0-0.19,0.22
						c-0.19,0.22-0.19,0.22-0.19,0.22c-0.49,0.06-2.2,0.11-3.8,0.11s-2.91,0.48-2.91,1.07s0.81,1.07,1.79,1.07s2.19,0.05,2.68,0.11
						c0,0,0,0,0.19,0.22c0.19,0.22,0.19,0.22,0.19,0.22c0.05,0.47,0.1,1.16,0.1,1.53s-0.04,1.06-0.1,1.53c0,0,0,0-0.19,0.22
						c-0.19,0.22-0.19,0.22-0.19,0.22c-0.49,0.06-1.7,0.11-2.68,0.11s-1.79,0.48-1.79,1.07s1.3,1.07,2.9,1.07s3.3,0.05,3.79,0.11
						c0,0,0,0,0.19,0.22s0.19,0.22,0.19,0.22c0.05,0.47,0.1,1.17,0.1,1.55s-0.04,1.08-0.1,1.55c0,0,0,0-0.19,0.22
						s-0.19,0.22-0.19,0.22c-0.49,0.06-3.2,0.11-6.03,0.11s-5.56-0.05-6.07-0.12C288.47,407.84,288.47,407.84,288.25,407.6z"/>
				</g>
				<g>
					<path d="M302.53,407.6c-0.22-0.23-0.22-0.23-0.22-0.23c-0.06-0.46-0.11-4.01-0.11-7.89s0.05-7.43,0.11-7.88c0,0,0,0,0.22-0.22
						c0.22-0.22,0.22-0.22,0.22-0.22c0.53-0.06,1.49-0.11,2.14-0.11s1.46,0.02,1.8,0.05c0,0,0,0,0.19,0.09
						c0.19,0.09,0.19,0.09,0.19,0.09c0.2,0.24,1.38,1.95,2.62,3.79s2.25,2.01,2.25,0.37s0.05-3.35,0.11-3.81c0,0,0,0,0.22-0.23
						c0.22-0.23,0.22-0.23,0.22-0.23c0.51-0.06,1.6-0.12,2.41-0.12s1.91,0.05,2.44,0.11c0,0,0,0,0.22,0.22
						c0.22,0.22,0.22,0.22,0.22,0.22c0.06,0.47,0.11,4.03,0.11,7.91s-0.05,7.43-0.11,7.88c0,0,0,0-0.22,0.22
						c-0.22,0.22-0.22,0.22-0.22,0.22c-0.53,0.06-1.49,0.11-2.14,0.11s-1.46-0.02-1.8-0.05c0,0,0,0-0.19-0.09
						c-0.19-0.09-0.19-0.09-0.19-0.09c-0.2-0.24-1.38-1.95-2.62-3.79s-2.25-2-2.25-0.36s-0.05,3.36-0.11,3.82c0,0,0,0-0.22,0.22
						c-0.22,0.22-0.22,0.22-0.22,0.22c-0.53,0.06-1.62,0.11-2.44,0.11s-1.9-0.05-2.41-0.12
						C302.75,407.84,302.75,407.84,302.53,407.6z"/>
				</g>
				<g>
					<path d="M321.66,406.1c-1.68-1.48-2.51-3.69-2.51-6.6c0-2.93,0.81-5.14,2.42-6.62c1.62-1.48,3.93-2.21,6.93-2.21
						c1.36,0,2.57,0.13,3.63,0.4c1.06,0.27,1.06,0.27,1.06,0.27c0.88,0.47,1.73,1,1.9,1.17c0,0,0,0,0,0.18c0,0.15,0,0.15,0,0.15
						c-0.12,0.26-0.5,0.95-0.85,1.54s-0.75,1.23-0.91,1.42c0,0,0,0-0.18,0c-0.12,0-0.12,0-0.12,0c-0.25-0.11-0.88-0.39-1.41-0.61
						c0,0,0,0-0.51-0.13c-0.51-0.13-1.1-0.2-1.78-0.2c-1.38,0-2.43,0.4-3.16,1.19c-0.73,0.8-1.09,1.95-1.09,3.46
						c0,1.49,0.4,2.64,1.19,3.44c0.8,0.8,1.88,1.21,3.26,1.21c1.19,0,1.19,0,1.19,0c1.15-0.41,2.29-0.84,2.54-0.94c0,0,0,0,0.12,0
						c0.18,0,0.18,0,0.18,0c0.16,0.19,0.57,0.83,0.91,1.42s0.72,1.28,0.85,1.54c0,0,0,0,0,0.15c0,0.18,0,0.18,0,0.18
						c-0.16,0.17-1.02,0.7-1.91,1.17c0,0,0,0-1.08,0.27c-1.08,0.26-2.3,0.4-3.66,0.4C325.68,408.33,323.34,407.58,321.66,406.1z"/>
				</g>
				<g>
					<path d="M336.92,407.6c-0.22-0.23-0.22-0.23-0.22-0.23c-0.06-0.46-0.11-4.01-0.11-7.88s0.05-7.42,0.11-7.88c0,0,0,0,0.22-0.23
						c0.22-0.23,0.22-0.23,0.22-0.23c0.51-0.06,1.6-0.12,2.41-0.12s1.91,0.05,2.44,0.11c0,0,0,0,0.22,0.22
						c0.22,0.22,0.22,0.22,0.22,0.22c0.06,0.47,0.11,4.02,0.11,7.9s-0.05,7.42-0.11,7.88c0,0,0,0-0.22,0.23
						c-0.22,0.23-0.22,0.23-0.22,0.23c-0.53,0.06-1.62,0.12-2.44,0.12s-1.9-0.05-2.41-0.12
						C337.15,407.84,337.15,407.84,336.92,407.6z"/>
				</g>
				<g>
					<path d="M343.8,407.43c0-0.15,0-0.15,0-0.15c0.07-0.22,1.52-3.75,3.22-7.85s3.24-7.72,3.42-8.04c0,0,0,0,0.19-0.14
						c0.19-0.14,0.19-0.14,0.19-0.14c0.34-0.04,1.23-0.07,1.97-0.07s1.63,0.03,1.97,0.07c0,0,0,0,0.19,0.14
						c0.19,0.14,0.19,0.14,0.19,0.14c0.18,0.33,1.71,3.94,3.4,8.04s3.14,7.63,3.21,7.85c0,0,0,0,0,0.15c0,0.35,0,0.35,0,0.35
						c-0.3,0.1-1.6,0.17-2.89,0.17s-2.53-0.05-2.76-0.11s-0.69-0.97-0.85-1.48s-1.29-0.92-2.5-0.92s-2.33,0.41-2.49,0.92
						s-0.39,1.07-0.51,1.26s-1.79,0.34-3.08,0.34s-2.58-0.08-2.89-0.17C343.8,407.78,343.8,407.78,343.8,407.43z M352.78,401.51
						c0.53,0,0.75-0.69,0.49-1.54s-0.7-0.85-0.97,0S352.24,401.51,352.78,401.51z"/>
				</g>
				<g>
					<path d="M131.41,437.45c-0.22-0.23-0.22-0.23-0.22-0.23c-0.06-0.46-0.11-4.01-0.11-7.88s0.05-7.42,0.11-7.88c0,0,0,0,0.22-0.23
						c0.22-0.23,0.22-0.23,0.22-0.23c0.51-0.06,2.22-0.12,3.79-0.12s6.81,1.27,11.64,2.82c0,0,0,0,0,5.64
						c0,2.79-0.75,4.89-2.25,6.32c-1.5,1.43-1.5,1.43-1.5,1.43c-2.77,0.39-6.31,0.71-7.89,0.71s-3.28-0.05-3.79-0.12
						C131.64,437.68,131.64,437.68,131.41,437.45z M137.78,433.57c0.4,0,1.45-0.14,2.33-0.31c0,0,0,0,0.41-0.61s0.61-1.72,0.61-3.31
						s-0.2-2.69-0.61-3.31s-0.41-0.61-0.41-0.61c-0.88-0.17-1.93-0.31-2.33-0.31s-0.73,1.9-0.73,4.23S137.38,433.57,137.78,433.57z"
						/>
				</g>
				<g>
					<path d="M148.65,437.45c-0.22-0.23-0.22-0.23-0.22-0.23c-0.06-0.46-0.11-4.01-0.11-7.88s0.05-7.42,0.11-7.88c0,0,0,0,0.22-0.23
						c0.22-0.23,0.22-0.23,0.22-0.23c0.51-0.06,3.25-0.12,6.08-0.12s5.55,0.05,6.04,0.11c0,0,0,0,0.19,0.22
						c0.19,0.22,0.19,0.22,0.19,0.22c0.05,0.47,0.1,1.17,0.1,1.55s-0.04,1.08-0.1,1.55c0,0,0,0-0.19,0.22
						c-0.19,0.22-0.19,0.22-0.19,0.22c-0.49,0.06-2.2,0.11-3.8,0.11s-2.91,0.48-2.91,1.07s0.81,1.07,1.79,1.07s2.19,0.05,2.68,0.11
						c0,0,0,0,0.19,0.22c0.19,0.22,0.19,0.22,0.19,0.22c0.05,0.47,0.1,1.16,0.1,1.53s-0.04,1.06-0.1,1.53c0,0,0,0-0.19,0.22
						c-0.19,0.22-0.19,0.22-0.19,0.22c-0.49,0.06-1.7,0.11-2.68,0.11s-1.79,0.48-1.79,1.07s1.3,1.07,2.9,1.07s3.3,0.05,3.79,0.11
						c0,0,0,0,0.19,0.22s0.19,0.22,0.19,0.22c0.05,0.47,0.1,1.17,0.1,1.55s-0.04,1.08-0.1,1.55c0,0,0,0-0.19,0.22
						s-0.19,0.22-0.19,0.22c-0.49,0.06-3.2,0.11-6.03,0.11s-5.56-0.05-6.07-0.12C148.87,437.68,148.87,437.68,148.65,437.45z"/>
				</g>
				<g>
					<path d="M173.81,437.39c-1.23-0.52-2.18-1.28-2.86-2.26c-0.68-0.99-0.68-0.99-0.68-0.99c-0.19-1.39-0.34-4.63-0.34-7.18
						s0.05-5.03,0.11-5.49c0,0,0,0,0.22-0.23c0.22-0.23,0.22-0.23,0.22-0.23c0.51-0.06,1.6-0.12,2.41-0.12s1.91,0.05,2.44,0.11
						c0,0,0,0,0.22,0.22c0.22,0.22,0.22,0.22,0.22,0.22c0.06,0.47,0.11,2.97,0.11,5.55s0.09,5.3,0.19,6.05c0,0,0,0,0.39,0.38
						c0.39,0.38,0.92,0.57,1.6,0.57c0.68,0,1.21-0.19,1.6-0.57c0.39-0.38,0.39-0.38,0.39-0.38c0.11-0.75,0.2-3.47,0.2-6.05
						s0.05-5.07,0.11-5.53c0,0,0,0,0.22-0.23c0.22-0.23,0.22-0.23,0.22-0.23c0.51-0.06,1.6-0.12,2.41-0.12s1.91,0.05,2.44,0.11
						c0,0,0,0,0.22,0.22c0.22,0.22,0.22,0.22,0.22,0.22c0.06,0.47,0.11,2.95,0.11,5.51s-0.15,5.79-0.34,7.18c0,0,0,0-0.68,0.99
						c-0.68,0.99-1.63,1.74-2.86,2.26s-2.65,0.78-4.28,0.78S175.03,437.91,173.81,437.39z"/>
				</g>
				<g>
					<path d="M191.02,437.7c-1.29-0.31-1.29-0.31-1.29-0.31c-1.01-0.55-2.06-1.21-2.34-1.46c0,0,0,0,0-0.22c0-0.15,0-0.15,0-0.15
						c0.1-0.18,0.5-0.83,0.9-1.46s0.86-1.28,1.02-1.46c0,0,0,0,0.15,0c0.13,0,0.13,0,0.13,0c0.19,0.1,0.92,0.47,1.62,0.83
						c0,0,0,0,0.77,0.21c0.77,0.21,1.52,0.31,2.25,0.31c0.61,0,1.06-0.08,1.33-0.25c0.27-0.17,0.41-0.42,0.41-0.77
						c0-0.38-0.18-0.69-0.55-0.92s-0.36-0.23-0.36-0.23c-0.84-0.35-2.87-1.26-4.52-2.02c0,0,0,0-0.96-0.82
						c-0.96-0.82-1.44-1.91-1.44-3.27c0-1.72,0.6-3.02,1.8-3.89c1.2-0.87,2.82-1.31,4.86-1.31c1.43,0,2.64,0.12,3.64,0.37
						c1,0.25,1,0.25,1,0.25c0.89,0.51,1.85,1.13,2.12,1.38c0,0,0,0,0,0.21c0,0.15,0,0.15,0,0.15c-0.1,0.18-0.5,0.83-0.9,1.46
						s-0.86,1.29-1.02,1.48c0,0,0,0-0.15,0c-0.1,0-0.1,0-0.1,0c-0.21-0.11-0.76-0.42-1.24-0.68c0,0,0,0-0.55-0.17
						c-0.55-0.17-1.14-0.26-1.77-0.26c-0.58,0-1.02,0.08-1.32,0.25c-0.3,0.17-0.45,0.43-0.45,0.8c0,0.3,0.1,0.55,0.31,0.75
						c0.21,0.2,0.47,0.37,0.78,0.51c0.31,0.14,0.31,0.14,0.31,0.14c0.73,0.3,2.33,0.98,3.55,1.52c0,0,0,0,0.71,0.46
						s1.25,1,1.62,1.64s0.55,1.45,0.55,2.42c0,1.49-0.56,2.7-1.68,3.62c-1.12,0.92-2.79,1.38-5.01,1.38
						C193.71,438.17,192.31,438.01,191.02,437.7z"/>
				</g>
				<g>
					<path d="M206.91,437.39c-1.23-0.52-2.18-1.28-2.86-2.26c-0.68-0.99-0.68-0.99-0.68-0.99c-0.19-1.39-0.34-4.63-0.34-7.18
						s0.05-5.03,0.11-5.49c0,0,0,0,0.22-0.23c0.22-0.23,0.22-0.23,0.22-0.23c0.51-0.06,1.6-0.12,2.41-0.12s1.91,0.05,2.44,0.11
						c0,0,0,0,0.22,0.22c0.22,0.22,0.22,0.22,0.22,0.22c0.06,0.47,0.11,2.97,0.11,5.55s0.09,5.3,0.19,6.05c0,0,0,0,0.39,0.38
						c0.39,0.38,0.92,0.57,1.6,0.57c0.68,0,1.21-0.19,1.6-0.57c0.39-0.38,0.39-0.38,0.39-0.38c0.11-0.75,0.2-3.47,0.2-6.05
						s0.05-5.07,0.11-5.53c0,0,0,0,0.22-0.23c0.22-0.23,0.22-0.23,0.22-0.23c0.51-0.06,1.6-0.12,2.41-0.12s1.91,0.05,2.44,0.11
						c0,0,0,0,0.22,0.22c0.22,0.22,0.22,0.22,0.22,0.22c0.06,0.47,0.11,2.95,0.11,5.51s-0.15,5.79-0.34,7.18c0,0,0,0-0.68,0.99
						c-0.68,0.99-1.63,1.74-2.86,2.26s-2.65,0.78-4.28,0.78S208.14,437.91,206.91,437.39z"/>
				</g>
				<g>
					<path d="M218.85,437.28c0-0.15,0-0.15,0-0.15c0.07-0.22,1.52-3.75,3.22-7.85s3.24-7.72,3.42-8.04c0,0,0,0,0.19-0.14
						c0.19-0.14,0.19-0.14,0.19-0.14c0.34-0.04,1.23-0.07,1.97-0.07s1.63,0.03,1.97,0.07c0,0,0,0,0.19,0.14
						c0.19,0.14,0.19,0.14,0.19,0.14c0.18,0.33,1.71,3.94,3.4,8.04s3.14,7.63,3.21,7.85c0,0,0,0,0,0.15c0,0.35,0,0.35,0,0.35
						c-0.3,0.1-1.6,0.17-2.89,0.17s-2.53-0.05-2.76-0.11s-0.69-0.97-0.85-1.48s-1.29-0.92-2.5-0.92s-2.33,0.41-2.49,0.92
						s-0.39,1.07-0.51,1.26s-1.79,0.34-3.08,0.34s-2.58-0.08-2.89-0.17C218.85,437.62,218.85,437.62,218.85,437.28z M227.83,431.36
						c0.53,0,0.75-0.69,0.49-1.54s-0.7-0.85-0.97,0S227.29,431.36,227.83,431.36z"/>
				</g>
				<g>
					<path d="M238.38,437.45c-0.22-0.23-0.22-0.23-0.22-0.23c-0.06-0.46-0.11-4.01-0.11-7.88s0.05-7.42,0.11-7.88c0,0,0,0,0.22-0.23
						c0.22-0.23,0.22-0.23,0.22-0.23c0.51-0.06,2.27-0.12,3.9-0.12s4.91,0.22,7.27,0.49c0,0,0,0,1.14,0.99s1.7,2.47,1.7,4.46
						c0,1.19-0.2,2.2-0.61,3.02s-0.41,0.82-0.41,0.82c-0.81,0.61-0.95,2.22-0.31,3.58s1.2,2.6,1.26,2.76c0,0,0,0,0,0.17
						c0,0.18-0.06,0.33-0.19,0.45c-0.12,0.12-0.12,0.12-0.12,0.12c-0.2,0.03-1.31,0.06-2.46,0.06s-2.32-0.02-2.58-0.04
						c0,0,0,0-0.16-0.08c-0.16-0.07-0.16-0.07-0.16-0.07c-0.1-0.17-0.59-1.35-1.1-2.62s-1.11-2.31-1.34-2.31s-0.42,0.83-0.42,1.85
						s-0.05,2.23-0.11,2.69c0,0,0,0-0.22,0.23c-0.22,0.23-0.22,0.23-0.22,0.23c-0.53,0.06-1.62,0.12-2.44,0.12s-1.9-0.05-2.41-0.12
						C238.61,437.68,238.61,437.68,238.38,437.45z M244.12,428.52c0.47,0,1.27-0.06,1.79-0.14c0,0,0,0,0.31-0.28
						c0.31-0.28,0.46-0.7,0.46-1.27c0-0.58-0.15-1.01-0.46-1.29c-0.31-0.28-0.31-0.28-0.31-0.28c-0.52-0.08-1.33-0.14-1.79-0.14
						s-0.85,0.77-0.85,1.7S243.65,428.52,244.12,428.52z"/>
				</g>
				<g>
					<path d="M254.2,437.45c-0.22-0.23-0.22-0.23-0.22-0.23c-0.06-0.46-0.11-4.01-0.11-7.88s0.05-7.42,0.11-7.88c0,0,0,0,0.22-0.23
						c0.22-0.23,0.22-0.23,0.22-0.23c0.51-0.06,1.6-0.12,2.41-0.12s1.91,0.05,2.44,0.11c0,0,0,0,0.22,0.22
						c0.22,0.22,0.22,0.22,0.22,0.22c0.06,0.47,0.11,4.02,0.11,7.9s-0.05,7.42-0.11,7.88c0,0,0,0-0.22,0.23
						c-0.22,0.23-0.22,0.23-0.22,0.23c-0.53,0.06-1.62,0.12-2.44,0.12s-1.9-0.05-2.41-0.12
						C254.43,437.68,254.43,437.68,254.2,437.45z"/>
				</g>
				<g>
					<path d="M263.37,435.87c-1.53-1.53-2.29-3.71-2.29-6.53c0-2.82,0.76-5,2.29-6.53c1.53-1.53,3.76-2.3,6.72-2.3
						c2.95,0,5.19,0.77,6.72,2.3c1.53,1.53,2.29,3.71,2.29,6.53c0,2.82-0.76,5-2.29,6.53c-1.53,1.53-3.76,2.3-6.72,2.3
						C267.13,438.17,264.89,437.4,263.37,435.87z M272.42,432.84c0.48-0.77,0.72-1.94,0.72-3.49c0-1.58-0.24-2.74-0.72-3.51
						c-0.48-0.76-1.26-1.14-2.34-1.14c-1.08,0-1.86,0.38-2.34,1.14c-0.48,0.76-0.72,1.93-0.72,3.51c0,1.56,0.24,2.72,0.72,3.49
						c0.48,0.77,1.26,1.16,2.34,1.16C271.16,433.99,271.94,433.61,272.42,432.84z"/>
				</g>
				<g>
					<path d="M100.74,467.29c-0.22-0.23-0.22-0.23-0.22-0.23c-0.06-0.46-0.11-4.01-0.11-7.88s0.05-7.42,0.11-7.88c0,0,0,0,0.22-0.23
						c0.22-0.23,0.22-0.23,0.22-0.23c0.51-0.06,2.22-0.12,3.79-0.12s6.81,1.27,11.64,2.82c0,0,0,0,0,5.64
						c0,2.79-0.75,4.89-2.25,6.32c-1.5,1.43-1.5,1.43-1.5,1.43c-2.77,0.39-6.31,0.71-7.89,0.71s-3.28-0.05-3.79-0.12
						C100.96,467.53,100.96,467.53,100.74,467.29z M107.1,463.41c0.4,0,1.45-0.14,2.33-0.31c0,0,0,0,0.41-0.61s0.61-1.72,0.61-3.31
						s-0.2-2.69-0.61-3.31s-0.41-0.61-0.41-0.61c-0.88-0.17-1.93-0.31-2.33-0.31s-0.73,1.9-0.73,4.23S106.7,463.41,107.1,463.41z"/>
				</g>
				<g>
					<path d="M117.97,467.29c-0.22-0.23-0.22-0.23-0.22-0.23c-0.06-0.46-0.11-4.01-0.11-7.88s0.05-7.42,0.11-7.88c0,0,0,0,0.22-0.23
						c0.22-0.23,0.22-0.23,0.22-0.23c0.51-0.06,3.25-0.12,6.08-0.12s5.55,0.05,6.04,0.11c0,0,0,0,0.19,0.22
						c0.19,0.22,0.19,0.22,0.19,0.22c0.05,0.47,0.1,1.17,0.1,1.55s-0.04,1.08-0.1,1.55c0,0,0,0-0.19,0.22
						c-0.19,0.22-0.19,0.22-0.19,0.22c-0.49,0.06-2.2,0.11-3.8,0.11s-2.91,0.48-2.91,1.07s0.81,1.07,1.79,1.07s2.19,0.05,2.68,0.11
						c0,0,0,0,0.19,0.22c0.19,0.22,0.19,0.22,0.19,0.22c0.05,0.47,0.1,1.16,0.1,1.53s-0.04,1.06-0.1,1.53c0,0,0,0-0.19,0.22
						c-0.19,0.22-0.19,0.22-0.19,0.22c-0.49,0.06-1.7,0.11-2.68,0.11s-1.79,0.48-1.79,1.07s1.3,1.07,2.9,1.07s3.3,0.05,3.79,0.11
						c0,0,0,0,0.19,0.22s0.19,0.22,0.19,0.22c0.05,0.47,0.1,1.17,0.1,1.55s-0.04,1.08-0.1,1.55c0,0,0,0-0.19,0.22
						s-0.19,0.22-0.19,0.22c-0.49,0.06-3.2,0.11-6.03,0.11s-5.56-0.05-6.07-0.12C118.2,467.53,118.2,467.53,117.97,467.29z"/>
				</g>
				<g>
					<path d="M143.66,467.29c-0.22-0.23-0.22-0.23-0.22-0.23c-0.06-0.46-0.11-3.37-0.11-6.47s-0.81-5.63-1.79-5.63
						s-2.19-0.05-2.68-0.11c0,0,0,0-0.19-0.22c-0.19-0.22-0.19-0.22-0.19-0.22c-0.05-0.47-0.1-1.17-0.1-1.55s0.04-1.08,0.1-1.55
						c0,0,0,0,0.19-0.22c0.19-0.22,0.19-0.22,0.19-0.22c0.49-0.06,3.85-0.11,7.46-0.11s6.97,0.05,7.46,0.11c0,0,0,0,0.19,0.22
						c0.19,0.22,0.19,0.22,0.19,0.22c0.05,0.47,0.1,1.17,0.1,1.55s-0.04,1.08-0.1,1.55c0,0,0,0-0.19,0.22
						c-0.19,0.22-0.19,0.22-0.19,0.22c-0.49,0.06-1.7,0.11-2.68,0.11s-1.79,2.53-1.79,5.63s-0.05,6.01-0.11,6.47c0,0,0,0-0.22,0.23
						c-0.22,0.23-0.22,0.23-0.22,0.23c-0.53,0.06-1.62,0.12-2.44,0.12s-1.9-0.05-2.41-0.12
						C143.89,467.53,143.89,467.53,143.66,467.29z"/>
				</g>
				<g>
					<path d="M158.75,467.23c-1.23-0.52-2.18-1.28-2.86-2.26c-0.68-0.99-0.68-0.99-0.68-0.99c-0.19-1.39-0.34-4.63-0.34-7.18
						s0.05-5.03,0.11-5.49c0,0,0,0,0.22-0.23c0.22-0.23,0.22-0.23,0.22-0.23c0.51-0.06,1.6-0.12,2.41-0.12s1.91,0.05,2.44,0.11
						c0,0,0,0,0.22,0.22c0.22,0.22,0.22,0.22,0.22,0.22c0.06,0.47,0.11,2.97,0.11,5.55s0.09,5.3,0.19,6.05c0,0,0,0,0.39,0.38
						c0.39,0.38,0.92,0.57,1.6,0.57c0.68,0,1.21-0.19,1.6-0.57c0.39-0.38,0.39-0.38,0.39-0.38c0.11-0.75,0.2-3.47,0.2-6.05
						s0.05-5.07,0.11-5.53c0,0,0,0,0.22-0.23c0.22-0.23,0.22-0.23,0.22-0.23c0.51-0.06,1.6-0.12,2.41-0.12s1.91,0.05,2.44,0.11
						c0,0,0,0,0.22,0.22c0.22,0.22,0.22,0.22,0.22,0.22c0.06,0.47,0.11,2.95,0.11,5.51s-0.15,5.79-0.34,7.18c0,0,0,0-0.68,0.99
						c-0.68,0.99-1.63,1.74-2.86,2.26s-2.65,0.78-4.28,0.78S159.97,467.75,158.75,467.23z"/>
				</g>
				<g>
					<path d="M175.96,467.54c-1.29-0.31-1.29-0.31-1.29-0.31c-1.01-0.55-2.06-1.21-2.34-1.46c0,0,0,0,0-0.22c0-0.15,0-0.15,0-0.15
						c0.1-0.18,0.5-0.83,0.9-1.46s0.86-1.28,1.02-1.46c0,0,0,0,0.15,0c0.13,0,0.13,0,0.13,0c0.19,0.1,0.92,0.47,1.62,0.83
						c0,0,0,0,0.77,0.21c0.77,0.21,1.52,0.31,2.25,0.31c0.61,0,1.06-0.08,1.33-0.25c0.27-0.17,0.41-0.42,0.41-0.77
						c0-0.38-0.18-0.69-0.55-0.92s-0.36-0.23-0.36-0.23c-0.84-0.35-2.87-1.26-4.52-2.02c0,0,0,0-0.96-0.82
						c-0.96-0.82-1.44-1.91-1.44-3.27c0-1.72,0.6-3.02,1.8-3.89c1.2-0.87,2.82-1.31,4.86-1.31c1.43,0,2.64,0.12,3.64,0.37
						c1,0.25,1,0.25,1,0.25c0.89,0.51,1.85,1.13,2.12,1.38c0,0,0,0,0,0.21c0,0.15,0,0.15,0,0.15c-0.1,0.18-0.5,0.83-0.9,1.46
						s-0.86,1.29-1.02,1.48c0,0,0,0-0.15,0c-0.1,0-0.1,0-0.1,0c-0.21-0.11-0.76-0.42-1.24-0.68c0,0,0,0-0.55-0.17
						c-0.55-0.17-1.14-0.26-1.77-0.26c-0.58,0-1.02,0.08-1.32,0.25c-0.3,0.17-0.45,0.43-0.45,0.8c0,0.3,0.1,0.55,0.31,0.75
						c0.21,0.2,0.47,0.37,0.78,0.51c0.31,0.14,0.31,0.14,0.31,0.14c0.73,0.3,2.33,0.98,3.55,1.52c0,0,0,0,0.71,0.46
						s1.25,1,1.62,1.64s0.55,1.45,0.55,2.42c0,1.49-0.56,2.7-1.68,3.62c-1.12,0.92-2.79,1.38-5.01,1.38
						C178.65,468.02,177.25,467.86,175.96,467.54z"/>
				</g>
				<g>
					<path d="M197.57,465.79c-1.68-1.48-2.51-3.69-2.51-6.6c0-2.93,0.81-5.14,2.42-6.62c1.62-1.48,3.93-2.21,6.93-2.21
						c1.36,0,2.57,0.13,3.63,0.4c1.06,0.27,1.06,0.27,1.06,0.27c0.88,0.47,1.73,1,1.9,1.17c0,0,0,0,0,0.18c0,0.15,0,0.15,0,0.15
						c-0.12,0.26-0.5,0.95-0.85,1.54s-0.75,1.23-0.91,1.42c0,0,0,0-0.18,0c-0.12,0-0.12,0-0.12,0c-0.25-0.11-0.88-0.39-1.41-0.61
						c0,0,0,0-0.51-0.13c-0.51-0.13-1.1-0.2-1.78-0.2c-1.38,0-2.43,0.4-3.16,1.19c-0.73,0.8-1.09,1.95-1.09,3.46
						c0,1.49,0.4,2.64,1.19,3.44c0.8,0.8,1.88,1.21,3.26,1.21c1.19,0,1.19,0,1.19,0c1.15-0.41,2.29-0.84,2.54-0.94c0,0,0,0,0.12,0
						c0.18,0,0.18,0,0.18,0c0.16,0.19,0.57,0.83,0.91,1.42s0.72,1.28,0.85,1.54c0,0,0,0,0,0.15c0,0.18,0,0.18,0,0.18
						c-0.16,0.17-1.02,0.7-1.91,1.17c0,0,0,0-1.08,0.27c-1.08,0.26-2.3,0.4-3.66,0.4C201.59,468.02,199.25,467.27,197.57,465.79z"/>
				</g>
				<g>
					<path d="M212.83,467.29c-0.22-0.23-0.22-0.23-0.22-0.23c-0.06-0.46-0.11-4.01-0.11-7.88s0.05-7.42,0.11-7.88c0,0,0,0,0.22-0.23
						c0.22-0.23,0.22-0.23,0.22-0.23c0.51-0.06,1.6-0.12,2.41-0.12s1.91,0.05,2.44,0.11c0,0,0,0,0.22,0.22
						c0.22,0.22,0.22,0.22,0.22,0.22c0.06,0.47,0.11,3.39,0.11,6.49s1.3,5.63,2.9,5.63s3.3,0.05,3.79,0.11c0,0,0,0,0.19,0.22
						s0.19,0.22,0.19,0.22c0.05,0.47,0.1,1.17,0.1,1.55s-0.04,1.08-0.1,1.55c0,0,0,0-0.19,0.22s-0.19,0.22-0.19,0.22
						c-0.49,0.06-3.2,0.11-6.03,0.11s-5.56-0.05-6.07-0.12C213.05,467.53,213.05,467.53,212.83,467.29z"/>
				</g>
				<g>
					<path d="M226.71,467.29c-0.22-0.23-0.22-0.23-0.22-0.23c-0.06-0.46-0.11-4.01-0.11-7.88s0.05-7.42,0.11-7.88c0,0,0,0,0.22-0.23
						c0.22-0.23,0.22-0.23,0.22-0.23c0.51-0.06,1.6-0.12,2.41-0.12s1.91,0.05,2.44,0.11c0,0,0,0,0.22,0.22
						c0.22,0.22,0.22,0.22,0.22,0.22c0.06,0.47,0.11,4.02,0.11,7.9s-0.05,7.42-0.11,7.88c0,0,0,0-0.22,0.23
						c-0.22,0.23-0.22,0.23-0.22,0.23c-0.53,0.06-1.62,0.12-2.44,0.12s-1.9-0.05-2.41-0.12
						C226.93,467.53,226.93,467.53,226.71,467.29z"/>
				</g>
				<g>
					<path d="M234.42,467.29c-0.22-0.23-0.22-0.23-0.22-0.23c-0.06-0.46-0.11-4.01-0.11-7.88s0.05-7.42,0.11-7.88c0,0,0,0,0.22-0.23
						c0.22-0.23,0.22-0.23,0.22-0.23c0.51-0.06,3.25-0.12,6.08-0.12s5.55,0.05,6.04,0.11c0,0,0,0,0.19,0.22
						c0.19,0.22,0.19,0.22,0.19,0.22c0.05,0.47,0.1,1.17,0.1,1.55s-0.04,1.08-0.1,1.55c0,0,0,0-0.19,0.22
						c-0.19,0.22-0.19,0.22-0.19,0.22c-0.49,0.06-2.2,0.11-3.8,0.11s-2.91,0.48-2.91,1.07s0.81,1.07,1.79,1.07s2.19,0.05,2.68,0.11
						c0,0,0,0,0.19,0.22c0.19,0.22,0.19,0.22,0.19,0.22c0.05,0.47,0.1,1.16,0.1,1.53s-0.04,1.06-0.1,1.53c0,0,0,0-0.19,0.22
						c-0.19,0.22-0.19,0.22-0.19,0.22c-0.49,0.06-1.7,0.11-2.68,0.11s-1.79,0.48-1.79,1.07s1.3,1.07,2.9,1.07s3.3,0.05,3.79,0.11
						c0,0,0,0,0.19,0.22s0.19,0.22,0.19,0.22c0.05,0.47,0.1,1.17,0.1,1.55s-0.04,1.08-0.1,1.55c0,0,0,0-0.19,0.22
						s-0.19,0.22-0.19,0.22c-0.49,0.06-3.2,0.11-6.03,0.11s-5.56-0.05-6.07-0.12C234.64,467.53,234.64,467.53,234.42,467.29z"/>
				</g>
				<g>
					<path d="M248.69,467.29c-0.22-0.23-0.22-0.23-0.22-0.23c-0.06-0.46-0.11-4.01-0.11-7.89s0.05-7.43,0.11-7.88c0,0,0,0,0.22-0.22
						c0.22-0.22,0.22-0.22,0.22-0.22c0.53-0.06,1.49-0.11,2.14-0.11s1.46,0.02,1.8,0.05c0,0,0,0,0.19,0.09
						c0.19,0.09,0.19,0.09,0.19,0.09c0.2,0.24,1.38,1.95,2.62,3.79s2.25,2.01,2.25,0.37s0.05-3.35,0.11-3.81c0,0,0,0,0.22-0.23
						c0.22-0.23,0.22-0.23,0.22-0.23c0.51-0.06,1.6-0.12,2.41-0.12s1.91,0.05,2.44,0.11c0,0,0,0,0.22,0.22
						c0.22,0.22,0.22,0.22,0.22,0.22c0.06,0.47,0.11,4.03,0.11,7.91s-0.05,7.43-0.11,7.88c0,0,0,0-0.22,0.22
						c-0.22,0.22-0.22,0.22-0.22,0.22c-0.53,0.06-1.49,0.11-2.14,0.11s-1.46-0.02-1.8-0.05c0,0,0,0-0.19-0.09
						c-0.19-0.09-0.19-0.09-0.19-0.09c-0.2-0.24-1.38-1.95-2.62-3.79s-2.25-2-2.25-0.36s-0.05,3.36-0.11,3.82c0,0,0,0-0.22,0.22
						c-0.22,0.22-0.22,0.22-0.22,0.22c-0.53,0.06-1.62,0.11-2.44,0.11s-1.9-0.05-2.41-0.12
						C248.92,467.53,248.92,467.53,248.69,467.29z"/>
				</g>
				<g>
					<path d="M270.11,467.29c-0.22-0.23-0.22-0.23-0.22-0.23c-0.06-0.46-0.11-3.37-0.11-6.47s-0.81-5.63-1.79-5.63
						s-2.19-0.05-2.68-0.11c0,0,0,0-0.19-0.22c-0.19-0.22-0.19-0.22-0.19-0.22c-0.05-0.47-0.1-1.17-0.1-1.55s0.04-1.08,0.1-1.55
						c0,0,0,0,0.19-0.22c0.19-0.22,0.19-0.22,0.19-0.22c0.49-0.06,3.85-0.11,7.46-0.11s6.97,0.05,7.46,0.11c0,0,0,0,0.19,0.22
						c0.19,0.22,0.19,0.22,0.19,0.22c0.05,0.47,0.1,1.17,0.1,1.55s-0.04,1.08-0.1,1.55c0,0,0,0-0.19,0.22
						c-0.19,0.22-0.19,0.22-0.19,0.22c-0.49,0.06-1.7,0.11-2.68,0.11s-1.79,2.53-1.79,5.63s-0.05,6.01-0.11,6.47c0,0,0,0-0.22,0.23
						c-0.22,0.23-0.22,0.23-0.22,0.23c-0.53,0.06-1.62,0.12-2.44,0.12s-1.9-0.05-2.41-0.12
						C270.33,467.53,270.33,467.53,270.11,467.29z"/>
				</g>
				<g>
					<path d="M281.77,467.29c-0.22-0.23-0.22-0.23-0.22-0.23c-0.06-0.46-0.11-4.01-0.11-7.88s0.05-7.42,0.11-7.88c0,0,0,0,0.22-0.23
						c0.22-0.23,0.22-0.23,0.22-0.23c0.51-0.06,3.25-0.12,6.08-0.12s5.55,0.05,6.04,0.11c0,0,0,0,0.19,0.22
						c0.19,0.22,0.19,0.22,0.19,0.22c0.05,0.47,0.1,1.17,0.1,1.55s-0.04,1.08-0.1,1.55c0,0,0,0-0.19,0.22
						c-0.19,0.22-0.19,0.22-0.19,0.22c-0.49,0.06-2.2,0.11-3.8,0.11s-2.91,0.48-2.91,1.07s0.81,1.07,1.79,1.07s2.19,0.05,2.68,0.11
						c0,0,0,0,0.19,0.22c0.19,0.22,0.19,0.22,0.19,0.22c0.05,0.47,0.1,1.16,0.1,1.53s-0.04,1.06-0.1,1.53c0,0,0,0-0.19,0.22
						c-0.19,0.22-0.19,0.22-0.19,0.22c-0.49,0.06-1.7,0.11-2.68,0.11s-1.79,0.48-1.79,1.07s1.3,1.07,2.9,1.07s3.3,0.05,3.79,0.11
						c0,0,0,0,0.19,0.22s0.19,0.22,0.19,0.22c0.05,0.47,0.1,1.17,0.1,1.55s-0.04,1.08-0.1,1.55c0,0,0,0-0.19,0.22
						s-0.19,0.22-0.19,0.22c-0.49,0.06-3.2,0.11-6.03,0.11s-5.56-0.05-6.07-0.12C282,467.53,282,467.53,281.77,467.29z"/>
				</g>
				<g>
					<path d="M298.87,467.54c-1.29-0.31-1.29-0.31-1.29-0.31c-1.01-0.55-2.06-1.21-2.34-1.46c0,0,0,0,0-0.22c0-0.15,0-0.15,0-0.15
						c0.1-0.18,0.5-0.83,0.9-1.46s0.86-1.28,1.02-1.46c0,0,0,0,0.15,0c0.13,0,0.13,0,0.13,0c0.19,0.1,0.92,0.47,1.62,0.83
						c0,0,0,0,0.77,0.21c0.77,0.21,1.52,0.31,2.25,0.31c0.61,0,1.06-0.08,1.33-0.25c0.27-0.17,0.41-0.42,0.41-0.77
						c0-0.38-0.18-0.69-0.55-0.92s-0.36-0.23-0.36-0.23c-0.84-0.35-2.87-1.26-4.52-2.02c0,0,0,0-0.96-0.82
						c-0.96-0.82-1.44-1.91-1.44-3.27c0-1.72,0.6-3.02,1.8-3.89c1.2-0.87,2.82-1.31,4.86-1.31c1.43,0,2.64,0.12,3.64,0.37
						c1,0.25,1,0.25,1,0.25c0.89,0.51,1.85,1.13,2.12,1.38c0,0,0,0,0,0.21c0,0.15,0,0.15,0,0.15c-0.1,0.18-0.5,0.83-0.9,1.46
						s-0.86,1.29-1.02,1.48c0,0,0,0-0.15,0c-0.1,0-0.1,0-0.1,0c-0.21-0.11-0.76-0.42-1.24-0.68c0,0,0,0-0.55-0.17
						c-0.55-0.17-1.14-0.26-1.77-0.26c-0.58,0-1.02,0.08-1.32,0.25c-0.3,0.17-0.45,0.43-0.45,0.8c0,0.3,0.1,0.55,0.31,0.75
						c0.21,0.2,0.47,0.37,0.78,0.51c0.31,0.14,0.31,0.14,0.31,0.14c0.73,0.3,2.33,0.98,3.55,1.52c0,0,0,0,0.71,0.46
						s1.25,1,1.62,1.64s0.55,1.45,0.55,2.42c0,1.49-0.56,2.7-1.68,3.62c-1.12,0.92-2.79,1.38-5.01,1.38
						C301.56,468.02,300.16,467.86,298.87,467.54z"/>
				</g>
			</g>
			<g>
				<path class="st1" d="M194.03,110.58c3.7-7.5,9.76-7.5,13.47,0c3.7,7.5,13.51,14.63,21.79,15.83s10.15,6.97,4.16,12.81
					c-5.99,5.84-9.74,17.37-8.32,25.62c1.41,8.25-3.49,11.81-10.9,7.92c-7.41-3.89-19.53-3.89-26.93,0
					c-7.41,3.89-12.31,0.33-10.9-7.92c1.41-8.25-2.33-19.77-8.32-25.62c-5.99-5.84-4.12-11.6,4.16-12.81
					C180.52,125.2,190.32,118.08,194.03,110.58z"/>
			</g>
			<g>
				<path class="st1" d="M134.21,189.01c2.4-4.87,6.33-4.87,8.74,0c2.4,4.87,8.76,9.49,14.14,10.27c5.37,0.78,6.59,4.52,2.7,8.31
					c-3.89,3.79-6.32,11.27-5.4,16.62c0.92,5.35-2.26,7.66-7.07,5.14c-4.81-2.53-12.67-2.53-17.47,0c-4.81,2.53-7.99,0.22-7.07-5.14
					c0.92-5.35-1.51-12.83-5.4-16.62c-3.89-3.79-2.67-7.53,2.7-8.31C125.45,198.5,131.81,193.88,134.21,189.01z"/>
			</g>
			<g>
				<path class="st1" d="M264.31,189.01c2.4-4.87,6.33-4.87,8.74,0c2.4,4.87,8.76,9.49,14.14,10.27c5.37,0.78,6.59,4.52,2.7,8.31
					c-3.89,3.79-6.32,11.27-5.4,16.62c0.92,5.35-2.26,7.66-7.07,5.14c-4.81-2.53-12.67-2.53-17.47,0c-4.81,2.53-7.99,0.22-7.07-5.14
					c0.92-5.35-1.51-12.83-5.4-16.62c-3.89-3.79-2.67-7.53,2.7-8.31C255.55,198.5,261.91,193.88,264.31,189.01z"/>
			</g>
			<g>
				<circle class="st2" cx="201.77" cy="213.97" r="121.96"/>
			</g>
			<g>
				<circle class="st3" cx="200.82" cy="200.58" r="121.96"/>
			</g>
			<g id="XMLID_482_">
				<circle class="st4" cx="196.46" cy="171.11" r="64.33"/>
			</g>
			<g id="XMLID_414_">
				<g id="XMLID_481_">
					<polygon class="st5" points="193.81,205.46 193.81,205.46 193.81,205.46 					"/>
				</g>
				<g id="XMLID_480_">
					<path class="st5" d="M190.84,188.11c2.9,2.7,7.64,2.7,10.53,0c2.9-2.7,6.31-6.26,6.14-7.04s-1.59-1.66-3.1-0.48
						s-10.92,1.48-14.75,0.88c0,0,0,0-4.5-3.82c-0.03-0.02-0.03-0.02-0.03-0.02c-0.03-0.03-0.08,0.65-0.12,1.5
						C184.97,179.98,187.94,185.41,190.84,188.11z"/>
				</g>
				<g id="XMLID_479_">
					<path class="st6" d="M184.73,210.12c3.46,7.17,6.43,12.16,6.59,11.1c0.16-1.06,0.57-3.72,0.57-3.72c0,0,0-0.03,0.01-0.07
						c0,0,0,0,0.01-0.03c0.89-5.78,0.89-5.78,0.89-5.78c0.56-3.39,1.02-6.16,1.02-6.16c0,0-0.06-0.04-0.13-0.1
						c-0.07-0.05-0.22-0.22-0.22-0.22s-0.03-0.03-0.07-0.07c0,0,0,0-0.02-0.05c0,0,0,0,0,0c0,0-0.14-0.3-0.31-0.66c0,0,0,0-0.15-0.3
						c-0.03-0.07-0.07-0.13-0.1-0.19c-0.83-1.61-1.6-2.81-1.87-4.24c-0.03-0.14-0.05-0.29-0.06-0.44c0-0.02,0-0.02,0-0.02
						c0-0.02-0.45,0.74-1,1.68c0,0,0,0,0.08,0.82c0.32,3.4,0.32,3.4,0.32,3.4c-5.78-9.55-11.04-17.09-11.7-16.76
						c-0.66,0.33-2.62,1.21-2.62,1.21S181.26,202.96,184.73,210.12z"/>
				</g>
				<g id="XMLID_478_">
					<path class="st6" d="M154.73,196.77c0-0.01,0.01-0.01,0.01-0.01C154.74,196.76,154.74,196.76,154.73,196.77
						c-0.02,0-0.06,0.02-0.05,0.02S154.73,196.77,154.73,196.77z"/>
				</g>
				<g id="XMLID_477_">
					<path class="st6" d="M202.25,201.67c0.08-0.82,0.08-0.82,0.08-0.82c-0.55-0.94-1-1.69-1-1.68c0,0,0,0,0,0.01
						c-0.02,0.15-0.04,0.3-0.06,0.44c-0.05,0.3-0.05,0.3-0.05,0.3c-0.09,0.31-0.17,0.57-0.17,0.57s-0.44,0.94-0.99,2.09
						c0,0,0,0-0.65,1.27c-0.03,0.07-0.07,0.13-0.1,0.2c-0.15,0.3-0.31,0.62-0.46,0.96c-0.02,0.05-0.02,0.05-0.02,0.05
						c-0.04,0.04-0.07,0.08-0.07,0.08c0,0-0.05,0.05-0.1,0.12c-0.06,0.06,0.21,2.94,0.76,6.28c0,0,0,0,0.88,5.71
						c0.01,0.08,0.01,0.08,0.01,0.08c0.01,0.09,0.03,0.17,0.03,0.17s0.1,0.68,0.23,1.51c0.13,0.83,3.28-2.69,6.72-9.77
						s8.53-19.83,8.53-19.83s-0.54-0.24-1.19-0.53c-0.66-0.29-6.9,6.69-12.68,16.17C201.93,205.05,201.93,205.05,202.25,201.67z"/>
				</g>
				<g id="XMLID_476_">
					<path class="st6" d="M237.05,196.73c0.01,0.04,0.11,0.08,0.22,0.1c0.11,0.02,0.31,0.04,0.19-0.01
						c-0.12-0.05-0.48-0.18-0.48-0.18S237.04,196.69,237.05,196.73z"/>
				</g>
				<g id="XMLID_475_">
					<path class="st7" d="M161.14,215.4c-3.53-10.24-6.44-18.62-6.45-18.62c0,0,0,0-0.02,0c-0.26,0.02-0.52,0.07-0.8,0.14
						c-2.89,0.77-2.89,0.77-2.89,0.77c-2.07,8.13-1.6,16.97,1.03,19.64s10.53,7.05,10.44,5.31c0,0,0,0-0.23-1.27
						C161.14,215.4,161.14,215.4,161.14,215.4z"/>
				</g>
				<g id="XMLID_474_">
					<path class="st7" d="M237.76,196.93c-0.03-0.01-0.05-0.01-0.08-0.01c-0.21-0.05-0.21-0.05-0.21-0.05
						c-0.22-0.03-3.33,8.4-6.92,18.74c0,0,0,0-1.05,5.78c-0.26,1.46-0.26,1.46-0.26,1.46c-0.08,2.04,2.34,1.96,5.4-0.19
						c3.05-2.14,8.28-16.13,6.15-24.9C240.79,197.74,240.79,197.74,237.76,196.93z"/>
				</g>
				<g id="XMLID_460_">
					<path class="st8" d="M200.33,219.08c0,0.87-0.35,1.59-0.79,1.59s-0.79-0.8-0.79-1.78c0-0.98,0.34-1.78,0.76-1.78
						c0.42,0,0.76,0.04,0.77,0.09c0,0,0,0,0.01,0.05c-0.88-5.71-0.88-5.71-0.88-5.71c-0.55-3.34-1.04-6.06-1.07-6.03
						c0,0,0,0-0.03,0.02c-0.08,0.04-0.08,0.04-0.08,0.04c-0.1,0.02-0.18,0.06-0.18,0.08s-0.18,0.04-0.41,0.04
						c-0.22,0-0.6,0.01-0.83,0.03s-0.42,0.03-0.42,0.04c0,0.01-0.06,0.01-0.13,0.01c-0.07,0-0.2,0-0.27,0s-0.13,0-0.13-0.01
						c0-0.01-0.19-0.03-0.42-0.04c-0.23-0.01-0.61-0.03-0.83-0.03c-0.22,0-0.41-0.02-0.41-0.04c0-0.02-0.08-0.06-0.18-0.08
						c0,0,0,0-0.08-0.04c-0.04-0.02-0.04-0.02-0.04-0.02c-0.03-0.03-0.06-0.05-0.06-0.05c0,0-0.46,2.77-1.02,6.16c0,0,0,0-0.89,5.78
						c0.02-0.1,0.02-0.1,0.02-0.1c0.02-0.11,0.37-0.2,0.79-0.2c0.42,0,0.76,0.8,0.76,1.78c0,0.98-0.35,1.78-0.79,1.78
						c-0.43,0-0.79-0.71-0.79-1.59s-0.13-0.75-0.28,0.26s-0.58,3.81-0.58,3.81c0,0,0.02-0.15,0.05-0.33s0.1-0.37,0.1-0.04
						s0.11,0.79,0.24,1.02s0.48,0.23,0.48-0.46s0.35-1.25,0.79-1.25c0.43,0,0.79,0.8,0.79,1.78s-0.21,1.78-0.46,1.78
						s-0.21,0.38,0.09,0.85c0.3,0.47,1.08,1.38,1.08,1.1s0.35-0.52,0.79-0.52c0.43,0,0.79,0.61,0.79,1.35
						c0,0.74,0.11,1.22,0.24,1.06s0.48-1,0.48-1.5c0-0.5,0.31-0.91,0.68-0.91s0.83-0.21,1.01-0.47c0.18-0.26,0.64-0.96,0.63-0.96
						c-0.01,0-0.03-0.8-0.03-1.78s0.35-1.78,0.79-1.78s0.79,0.26,0.79,0.59s0.11,0.41,0.23,0.2c0.13-0.21,0.36-1.49,0.23-2.35
						S200.33,218.21,200.33,219.08z M198.75,209.1c0-0.87,0.07-1.14,0.16-0.61c0.09,0.53,0.24,2.19,0.1,2.19
						S198.75,209.97,198.75,209.1z M198.75,213.89c0-0.98,0.17-1.78,0.37-1.78s0.45,0.52,0.55,1.15c0.1,0.63,0.09,2.42-0.27,2.42
						C199.04,215.68,198.75,214.87,198.75,213.89z M194.96,207.12c0.43,0,0.79,0.8,0.79,1.78c0,0.98-0.35,1.78-0.79,1.78
						c-0.43,0-0.79-0.8-0.79-1.78C194.17,207.92,194.53,207.12,194.96,207.12z M193.46,213.89c0,0.98-0.29,1.78-0.65,1.78
						c-0.36,0-0.56-0.55-0.46-1.23c0.11-0.68,0.53-2.34,0.73-2.34C193.29,212.11,193.46,212.91,193.46,213.89z M193.46,209.1
						c0,0.87-0.12,1.58-0.26,1.58c-0.14,0-0.17-0.52-0.07-1.15C193.23,208.9,193.46,208.23,193.46,209.1z M195.75,223.88
						c0,0.98-0.35,1.78-0.79,1.78c-0.43,0-0.79-0.8-0.79-1.78s0.35-1.78,0.79-1.78C195.39,222.1,195.75,222.9,195.75,223.88z
						 M195.75,218.89c0,0.98-0.35,1.78-0.79,1.78c-0.43,0-0.79-0.8-0.79-1.78c0-0.98,0.35-1.78,0.79-1.78
						C195.39,217.1,195.75,217.91,195.75,218.89z M195.75,213.89c0,0.98-0.35,1.78-0.79,1.78c-0.43,0-0.79-0.8-0.79-1.78
						c0-0.98,0.35-1.78,0.79-1.78C195.39,212.11,195.75,212.91,195.75,213.89z M198.04,223.88c0,0.98-0.35,1.78-0.79,1.78
						s-0.79-0.8-0.79-1.78s0.35-1.78,0.79-1.78S198.04,222.9,198.04,223.88z M198.04,218.89c0,0.98-0.35,1.78-0.79,1.78
						s-0.79-0.8-0.79-1.78c0-0.98,0.35-1.78,0.79-1.78S198.04,217.91,198.04,218.89z M198.04,213.89c0,0.98-0.35,1.78-0.79,1.78
						s-0.79-0.8-0.79-1.78c0-0.98,0.35-1.78,0.79-1.78S198.04,212.91,198.04,213.89z M198.04,208.9c0,0.98-0.35,1.78-0.79,1.78
						s-0.79-0.8-0.79-1.78c0-0.98,0.35-1.78,0.79-1.78S198.04,207.92,198.04,208.9z"/>
				</g>
				<g id="XMLID_459_">
					<path class="st3" d="M192.91,204.06c0.15,0.3,0.15,0.3,0.15,0.3c0.17,0.36,0.31,0.66,0.31,0.66c0,0,0,0,0,0c0,0,0,0,0,0
						c0,0-0.14-0.3-0.31-0.66C193.06,204.36,193.06,204.36,192.91,204.06z"/>
				</g>
				<g id="XMLID_458_">
					<path class="st3" d="M190.88,199.14c0,0,0,0.01,0,0.03c0,0,0,0,0,0.02c0-0.02,0-0.02,0-0.02
						C190.88,199.15,190.88,199.14,190.88,199.14z"/>
				</g>
				<g id="XMLID_457_">
					<path class="st3" d="M201.26,199.62c-0.06,0.3-0.13,0.59-0.22,0.87C201.14,200.21,201.21,199.92,201.26,199.62z"/>
				</g>
				<g id="XMLID_456_">
					<path class="st3" d="M201.33,199.17c0-0.02,0-0.03,0-0.03C201.33,199.14,201.33,199.15,201.33,199.17c0,0,0,0,0,0.01
						C201.33,199.17,201.33,199.17,201.33,199.17z"/>
				</g>
				<g id="XMLID_455_">
					<path class="st3" d="M199.3,204.06c-0.15,0.3-0.31,0.62-0.46,0.96C198.99,204.68,199.15,204.36,199.3,204.06z"/>
				</g>
				<g id="XMLID_451_">
					<path class="st3" d="M193.91,205.52c0.08,0.04,0.08,0.04,0.08,0.04c0.1,0.02,0.18-0.74,0.18-1.7s0.35-1.74,0.79-1.74
						c0.43,0,0.79,0.8,0.79,1.78c0,0.98-0.17,1.78-0.38,1.78s-0.19,0.01,0.04,0.03c0.23,0.01,0.42,0.03,0.42,0.04
						c0,0.01,0.06,0.01,0.13,0.01s0.2,0,0.27,0c0.07,0,0.13,0,0.13-0.01c0-0.01,0.19-0.03,0.42-0.04s0.25-0.03,0.04-0.03
						s-0.38-0.8-0.38-1.78c0-0.98,0.35-1.78,0.79-1.78s0.79,0.78,0.79,1.74c0,0.96,0.08,1.72,0.18,1.7c0,0,0,0,0.08-0.04
						c0.03-0.02,0.06-0.04,0.1-0.06c0.14-0.08,0.14-0.08,0.14-0.08c0.11-0.13,0.21-0.91,0.21-1.74c0-0.83,0.35-1.51,0.78-1.51
						c0.43,0,0.52,0.5,0.19,1.11c0,0,0,0-0.32,0.63c0.65-1.27,0.65-1.27,0.65-1.27c0.54-1.15,0.98-2.48,0.98-2.96
						s-0.1-0.99-0.23-1.15c-0.13-0.15-0.48,0.08-0.48,0.84c0,0.76-0.35,1.38-0.79,1.38s-0.79-0.8-0.79-1.78
						c0-0.98,0.18-1.78,0.39-1.78s0.15-0.22-0.14-0.49s-1.37-0.94-1.79-0.94c-0.42,0-0.76-0.32-0.76-0.72s-0.06-0.79-0.13-0.87
						c-0.07-0.09-0.27-0.23-0.33-0.15c-0.06,0.08-0.25,0.63-0.25,1.02s-0.34,0.72-0.76,0.72c-0.42,0-0.99,0.21-1.28,0.46
						s-0.86,0.96-0.65,0.96c0.22,0,0.39,0.8,0.39,1.78c0,0.98-0.35,1.78-0.79,1.78c-0.43,0-0.79-0.62-0.79-1.38
						s-0.11-1.26-0.25-1.11s-0.47,0.94-0.47,1.42c0,0.48-0.08,0.61-0.17,0.3c0,0,0,0-0.06-0.3c0.26,1.44,1.04,2.63,1.87,4.24
						c-0.32-0.63-0.32-0.63-0.32-0.63c-0.33-0.61-0.25-1.11,0.19-1.11c0.43,0,0.79,0.68,0.79,1.51c0,0.83,0.05,1.56,0.1,1.62
						c0.06,0.06,0.25,0.2,0.25,0.2c0,0,0.03,0.02,0.06,0.05C193.87,205.51,193.87,205.51,193.91,205.52z M196.46,198.91
						c0-0.98,0.35-1.78,0.79-1.78s0.79,0.8,0.79,1.78c0,0.98-0.35,1.78-0.79,1.78S196.46,199.89,196.46,198.91z M194.17,198.91
						c0-0.98,0.35-1.78,0.79-1.78c0.43,0,0.79,0.8,0.79,1.78c0,0.98-0.35,1.78-0.79,1.78C194.53,200.7,194.17,199.89,194.17,198.91z
						"/>
				</g>
				<g id="XMLID_450_">
					<path d="M195.75,203.91c0-0.98-0.35-1.78-0.79-1.78c-0.43,0-0.79,0.78-0.79,1.74s0,1.76,0,1.78c0,0.02,0.18,0.04,0.41,0.04
						c0.22,0,0.58,0,0.79,0S195.75,204.89,195.75,203.91z"/>
				</g>
				<g id="XMLID_449_">
					<ellipse cx="194.96" cy="208.9" rx="0.79" ry="1.78"/>
				</g>
				<g id="XMLID_448_">
					<ellipse cx="194.96" cy="198.91" rx="0.79" ry="1.78"/>
				</g>
				<g id="XMLID_447_">
					<ellipse cx="194.96" cy="213.89" rx="0.79" ry="1.78"/>
				</g>
				<g id="XMLID_446_">
					<path d="M194.96,227.09c-0.43,0-0.79,0.23-0.79,0.52s0.21,0.81,0.47,1.17c0.26,0.36,0.95,1.19,0.98,1.15
						c0.03-0.04,0.13-0.75,0.13-1.49C195.75,227.7,195.39,227.09,194.96,227.09z"/>
				</g>
				<g id="XMLID_445_">
					<ellipse cx="194.96" cy="223.88" rx="0.79" ry="1.78"/>
				</g>
				<g id="XMLID_444_">
					<ellipse cx="194.96" cy="218.89" rx="0.79" ry="1.78"/>
				</g>
				<g id="XMLID_443_">
					<path d="M191.07,222.83c-0.03,0.18-0.03,0.37,0,0.41c0.03,0.05,0.1-0.11,0.1-0.45S191.1,222.64,191.07,222.83z"/>
				</g>
				<g id="XMLID_442_">
					<path d="M191.88,199.31c0,0.76,0.35,1.38,0.79,1.38c0.43,0,0.79-0.8,0.79-1.78c0-0.98-0.18-1.78-0.39-1.78
						c-0.22,0-0.51,0.12-0.66,0.26C192.26,197.54,191.88,198.55,191.88,199.31z"/>
				</g>
				<g id="XMLID_441_">
					<path d="M191.17,199.62c0-0.48-0.04-0.81-0.1-0.74c-0.05,0.07-0.19,0.27-0.19,0.29c0,0,0,0,0,0.02
						c0.02,0.15,0.04,0.29,0.06,0.44c0.06,0.3,0.06,0.3,0.06,0.3C191.09,200.24,191.17,200.1,191.17,199.62z"/>
				</g>
				<g id="XMLID_440_">
					<path d="M193.46,203.63c0-0.83-0.35-1.51-0.79-1.51c-0.43,0-0.52,0.5-0.19,1.11c0,0,0,0,0.32,0.63
						c0.03,0.06,0.07,0.13,0.1,0.19c0.15,0.31,0.15,0.31,0.15,0.31c0.17,0.36,0.31,0.66,0.31,0.66c0,0,0,0,0,0
						c0.02,0.05,0.02,0.05,0.02,0.05c0.04,0.04,0.07,0.08,0.07,0.07S193.46,204.46,193.46,203.63z"/>
				</g>
				<g id="XMLID_439_">
					<path d="M193.46,223.88c0-0.98-0.35-1.78-0.79-1.78c-0.43,0-0.79,0.56-0.79,1.25s0.1,1.41,0.22,1.61s0.65,0.71,0.9,0.71
						S193.46,224.86,193.46,223.88z"/>
				</g>
				<g id="XMLID_438_">
					<path d="M192.67,220.67c0.43,0,0.79-0.8,0.79-1.78c0-0.98-0.34-1.78-0.76-1.78c-0.42,0-0.77,0.09-0.79,0.2c0,0,0,0-0.02,0.1
						c-0.01,0.03-0.01,0.03-0.01,0.03c-0.01,0.04-0.01,0.07-0.01,0.07c0,0,0,0.71,0,1.59S192.24,220.67,192.67,220.67z"/>
				</g>
				<g id="XMLID_437_">
					<path d="M193.2,210.68c0.14,0,0.26-0.71,0.26-1.58c0-0.87-0.07-1.15-0.16-0.61C193.21,209.02,193.06,210.68,193.2,210.68z"/>
				</g>
				<g id="XMLID_436_">
					<path d="M192.36,214.44c-0.11,0.68,0.1,1.23,0.46,1.23c0.36,0,0.65-0.8,0.65-1.78c0-0.98-0.17-1.78-0.37-1.78
						C192.89,212.11,192.46,213.77,192.36,214.44z"/>
				</g>
				<g id="XMLID_435_">
					<path d="M199.54,222.1c-0.43,0-0.79,0.8-0.79,1.78s0.01,1.78,0.03,1.78c0.01,0,0.25-0.35,0.53-0.78
						c0.28-0.43,1.02-1.88,1.02-2.2S199.97,222.1,199.54,222.1z"/>
				</g>
				<g id="XMLID_434_">
					<path d="M199.51,217.1c-0.42,0-0.76,0.8-0.76,1.78c0,0.98,0.35,1.78,0.79,1.78s0.79-0.71,0.79-1.59s0-1.59,0-1.59
						s-0.01-0.08-0.03-0.17c0,0,0,0-0.01-0.08c-0.01-0.05-0.01-0.05-0.01-0.05C200.27,217.14,199.93,217.1,199.51,217.1z"/>
				</g>
				<g id="XMLID_433_">
					<path d="M195.75,194.98c0-0.4-0.21-0.52-0.46-0.27c-0.25,0.25-0.72,0.99-0.3,0.99C195.41,195.7,195.75,195.38,195.75,194.98z"
						/>
				</g>
				<g id="XMLID_432_">
					<path d="M197.22,195.7c0.42,0,0.5-0.23,0.19-0.51c-0.31-0.28-0.95-0.6-0.95-0.21S196.8,195.7,197.22,195.7z"/>
				</g>
				<g id="XMLID_431_">
					<ellipse cx="197.25" cy="213.89" rx="0.79" ry="1.78"/>
				</g>
				<g id="XMLID_430_">
					<ellipse cx="197.25" cy="223.88" rx="0.79" ry="1.78"/>
				</g>
				<g id="XMLID_429_">
					<ellipse cx="197.25" cy="218.89" rx="0.79" ry="1.78"/>
				</g>
				<g id="XMLID_428_">
					<path d="M198.04,203.86c0-0.96-0.35-1.74-0.79-1.74s-0.79,0.8-0.79,1.78c0,0.98,0.17,1.78,0.38,1.78s0.56,0,0.79,0
						c0.22,0,0.41-0.02,0.41-0.04S198.04,204.82,198.04,203.86z"/>
				</g>
				<g id="XMLID_427_">
					<ellipse cx="197.25" cy="208.9" rx="0.79" ry="1.78"/>
				</g>
				<g id="XMLID_426_">
					<path d="M196.46,228c0,0.5,0.2,0.65,0.45,0.32s0.6-1.24,0.23-1.24S196.46,227.5,196.46,228z"/>
				</g>
				<g id="XMLID_425_">
					<ellipse cx="197.25" cy="198.91" rx="0.79" ry="1.78"/>
				</g>
				<g id="XMLID_424_">
					<path d="M198.91,208.49c-0.09-0.53-0.16-0.26-0.16,0.61c0,0.87,0.11,1.58,0.26,1.58S199,209.03,198.91,208.49z"/>
				</g>
				<g id="XMLID_423_">
					<path d="M199.54,202.12c-0.43,0-0.78,0.68-0.78,1.51c0,0.83,0,1.51,0,1.51c0,0,0.03-0.03,0.07-0.08c0,0,0,0,0.02-0.05
						c0.15-0.34,0.3-0.65,0.46-0.96c0.03-0.07,0.07-0.13,0.1-0.2c0.32-0.63,0.32-0.63,0.32-0.63
						C200.05,202.62,199.97,202.12,199.54,202.12z"/>
				</g>
				<g id="XMLID_422_">
					<path d="M201.04,199.63c0,0.48,0,0.87,0,0.87c0,0,0.08-0.26,0.17-0.58c0,0,0,0,0.06-0.3c0.03-0.14,0.05-0.29,0.06-0.44
						c0-0.02,0-0.02,0-0.02c0-0.02-0.04-0.09-0.09-0.16S201.04,199.15,201.04,199.63z"/>
				</g>
				<g id="XMLID_421_">
					<path d="M198.75,198.91c0,0.98,0.35,1.78,0.79,1.78s0.79-0.62,0.79-1.38c0-0.76-0.12-1.5-0.26-1.65
						c-0.14-0.15-0.71-0.53-0.92-0.53S198.75,197.93,198.75,198.91z"/>
				</g>
				<g id="XMLID_420_">
					<path d="M199.67,213.26c-0.1-0.63-0.35-1.15-0.55-1.15s-0.37,0.8-0.37,1.78c0,0.98,0.29,1.78,0.65,1.78
						C199.75,215.68,199.77,213.89,199.67,213.26z"/>
				</g>
				<g id="XMLID_419_">
					<path class="st9" d="M189.96,201.67c-0.08-0.82-0.08-0.82-0.08-0.82c0.55-0.94,1-1.71,1-1.71c0,0,0.09-0.12,0.19-0.26
						c0,0,0,0,0.1-0.13c0.22-0.28,0.46-0.55,0.71-0.82c0.26-0.27,0.52-0.54,0.79-0.8c0.52-0.5,1.06-0.98,1.56-1.43
						c0.6-0.54,1.14-1.03,1.52-1.44c0.15-0.16,0.15-0.16,0.15-0.16c0.11-0.16,0.3-0.15,0.42,0c0,0,0,0,0.15,0.16
						c0.38,0.41,0.92,0.9,1.52,1.43c0.5,0.45,1.03,0.92,1.56,1.43c0.27,0.26,0.54,0.53,0.79,0.8c0.25,0.27,0.49,0.54,0.71,0.82
						c0.1,0.13,0.1,0.13,0.1,0.13c0.1,0.14,0.19,0.26,0.19,0.26c0,0,0.45,0.77,1,1.71c0,0,0,0-0.08,0.82
						c-0.32,3.38,10.21-8.97,10.19-13.86c0-0.12,0-0.24-0.01-0.35c-0.08-0.69-2.1-1.74-3.96-4.89c-0.15-0.25-0.35-0.26-0.65-0.08
						c-1.18,0.72-1.18,0.72-1.18,0.72c-5.79,5.4-15.27,5.39-21.06-0.01c0,0,0,0-1.18-0.71c-0.3-0.18-0.5-0.17-0.65,0.08
						c-1.86,3.15-3.88,4.2-3.96,4.89c-0.01,0.08-0.01,0.17-0.01,0.25C179.6,192.53,190.28,205.07,189.96,201.67z"/>
				</g>
				<g id="XMLID_418_">
					<path class="st10" d="M191.92,233.16c1.13-0.58,1.13-0.58,1.13-0.58c1.38-1.42,2.1-3.12,1.59-3.78c0,0,0,0-0.47-0.67
						c-0.54-0.77-1.08-1.6-1.63-2.47c-0.22-0.35-0.44-0.7-0.66-1.06c-0.24-0.39-0.48-0.79-0.71-1.2c-0.05-0.08-0.05-0.08-0.05-0.08
						c-0.05-0.09-0.1-0.17-0.1-0.17s-2.83-5.86-6.3-13.03c-3.46-7.17-8.77-20.6-8.77-20.6c0,0,0,0,0,0
						c-0.46-1.19-20.06,6.72-21.21,7.23c0,0,0,0,0,0c0,0-0.01,0.01-0.02,0.02c0,0,0,0-0.01,0.01c-0.91,0.8,6.42,18.62,7.5,24.59
						c0.23,1.27,0.23,1.27,0.23,1.27c0.09,1.74,4.29,5.1,9.33,7.46c5.04,2.37,19.81,4.22,19.95,3.14
						C191.73,233.25,191.73,233.25,191.92,233.16z"/>
				</g>
				<g id="XMLID_417_">
					<path class="st11" d="M237.07,196.8c-0.02-0.08-0.02-0.08-0.02-0.08c-0.04-0.04-0.07-0.08-0.07-0.08c0,0-9.34-3.81-20.76-8.45
						c0,0,0,0-0.42,1.22c0,0,0,0,0,0c0,0-3.83,9.94-8.52,22.08c0,0,0,0-6.26,10.61c-0.23,0.4-0.47,0.79-0.7,1.17
						c-0.51,0.84-1.02,1.63-1.53,2.4c-0.33,0.49-0.65,0.97-0.98,1.43c-0.46,0.65-0.91,1.26-1.36,1.82c-0.24,0.3-0.48,0.6-0.71,0.87
						c-0.06,0.07-0.13,0.14-0.19,0.22c-1.28,1.48-2.51,2.58-3.64,3.15c-0.18,0.09-0.18,0.09-0.18,0.09
						c-0.15,1.08,1.22,2.07,3.05,2.18c0,0,0,0,1.68,0c11.91,0,11.91,0,11.91,0c11.39-4.89,20.78-10.56,20.87-12.6c0,0,0,0,0.26-1.46
						C230.55,215.6,237.44,198.63,237.07,196.8z"/>
				</g>
				<g id="XMLID_416_">
					<path class="st12" d="M189.65,181.47c3.83,0.6,9.99,0.68,13.69,0.18c0,0,0,0,3.8-3.2c0.3-0.25,0.61-0.51,0.93-0.79
						c4.72-4.01,2.34-12.37,5.21-11.85c2.82,0.51,2.82,0.51,2.82,0.51c0.65-5.25,0.37-9.17-0.61-8.72c0,0,0,0-0.75,1.27
						c-0.85,1.42-0.85,1.42-0.85,1.42c-0.28,1.18-0.71,0.51-0.95-1.5s-7.44-6.07-16.26-4.13c0,0,0,0-6.58-4.83
						c-1.35-0.99-2.65-2.29-4.7-2.26c-2.36,0.04-3.31,1.44-2.98,3.71c0.17,1.14,0.25,2.67,0.31,3.35c0.23,2.36-1.24,5.26-1.78,5.82
						c-0.35,0.36-1.21,1.87-1.72,2c-0.42,0.1-0.14-2.36-1.54-4.48c-1.11-1.68-1.11-1.68-1.11-1.68c-0.28,0.2-0.05,4.72,0.51,10.04
						c0,0,0,0,2.87-0.52c2.85-0.52,0.52,7.74,5.14,11.78c0.03,0.02,0.05,0.05,0.07,0.07C189.65,181.47,189.65,181.47,189.65,181.47z
						"/>
				</g>
				<g id="XMLID_415_">
					<path class="st13" d="M177.68,157.96c1.41,2.12,1.12,4.59,1.54,4.48c0.51-0.13,1.37-1.63,1.72-2c0.54-0.56,2.01-3.46,1.78-5.82
						c-0.07-0.68-0.15-2.21-0.31-3.35c-0.33-2.27,0.62-3.67,2.98-3.71c2.05-0.03,3.35,1.27,4.7,2.26c6.58,4.83,6.58,4.83,6.58,4.83
						c8.82-1.94,15.94-1.85,15.8,0.2c-0.13,2.05,1.13,6.61,1.41,5.43c0,0,0,0,0.85-1.42c0.75-1.27,1.56-2.2,2.54-2.1
						c0.12,0.01,0.12,0.01,0.12,0.01c0.14,0.03,1.42-5.84,2.85-13.05c0,0,0,0-2.32-5c-2.32-5-2.32-5-2.32-5
						c-4.06-3.58-7.92-5.24-8.57-3.69c0,0,0,0-1.44,0.13c-1.2,0.11-3.21-0.54-4.41-0.68c-6.08-0.73-9.55-1.01-14.52,0.73
						c-2.56,0.9-4.98,2.17-6.91,4.04c-2.48,2.42-4.55,6.8-4.96,10.19c-0.21,1.76-0.43,3.54-0.17,6.1c0.11,1.09,0.11,1.09,0.11,1.09
						c0.72,2.76,1.55,4.85,1.83,4.65C176.57,156.28,176.57,156.28,177.68,157.96z"/>
				</g>
			</g>
			<g>
				<path class="st14" d="M191.19,250.11c2.67-5.4,7.03-5.4,9.7,0s9.73,10.53,15.69,11.4c5.96,0.87,7.31,5.02,3,9.22
					s-7.01,12.5-5.99,18.44c1.02,5.94-2.51,8.5-7.84,5.7c-5.33-2.8-14.06-2.8-19.39,0c-5.33,2.8-8.86,0.24-7.84-5.7
					c1.02-5.94-1.68-14.24-5.99-18.44c-4.31-4.21-2.97-8.36,3-9.22C181.46,260.64,188.52,255.51,191.19,250.11z"/>
			</g>
			<g>
				<path class="st14" d="M248.62,225.54c1.71-3.46,4.51-3.46,6.21,0c1.71,3.46,6.23,6.75,10.06,7.31s4.69,3.21,1.92,5.91
					c-2.77,2.7-4.49,8.01-3.84,11.82c0.65,3.81-1.61,5.45-5.03,3.65c-3.42-1.8-9.01-1.8-12.43,0c-3.42,1.8-5.68,0.15-5.03-3.65
					c0.65-3.81-1.08-9.13-3.84-11.82c-2.77-2.7-1.9-5.36,1.92-5.91S246.91,229,248.62,225.54z"/>
			</g>
			<g>
				<path class="st14" d="M129.05,231.28c1.71-3.46,4.51-3.46,6.21,0c1.71,3.46,6.23,6.75,10.06,7.31s4.69,3.21,1.92,5.91
					c-2.77,2.7-4.49,8.01-3.84,11.82c0.65,3.81-1.61,5.45-5.03,3.65s-9.01-1.8-12.43,0c-3.42,1.8-5.68,0.15-5.03-3.65
					c0.65-3.81-1.08-9.13-3.84-11.82c-2.77-2.7-1.9-5.36,1.92-5.91C122.81,238.03,127.34,234.74,129.05,231.28z"/>
			</g>
		</g>
	</g>
	<g>
		<path class="st3" d="M181.43,643.16c-0.56-0.66-0.84-1.72-0.84-3.18v-4.09c0-1.46,0.28-2.52,0.84-3.18
			c0.56-0.66,1.62-0.99,3.18-0.99h4.6v-19.05l-2.99,1.9c-0.24,0.2-0.54,0.29-0.88,0.29c-0.44,0-0.8-0.22-1.1-0.66l-5.55-8.47
			c-0.19-0.24-0.29-0.51-0.29-0.8c0-0.49,0.27-0.88,0.8-1.17l13.8-8.32c0.58-0.34,1.14-0.58,1.68-0.73
			c0.54-0.15,1.31-0.22,2.34-0.22h5.33c1.61,0,2.74,0.34,3.39,1.02c0.66,0.68,0.99,1.73,0.99,3.14v33.07h4.67
			c1.56,0,2.62,0.33,3.18,0.99c0.56,0.66,0.84,1.72,0.84,3.18v4.09c0,1.46-0.28,2.52-0.84,3.18c-0.56,0.66-1.62,0.99-3.18,0.99
			h-26.79C183.05,644.14,181.99,643.81,181.43,643.16z"/>
	</g>
</g>
</svg>
