<?xml version="1.0" encoding="utf-8"?>
<!-- Generator: Adobe Illustrator 23.0.0, SVG Export Plug-In . SVG Version: 6.00 Build 0)  -->
<svg version="1.1" id="Capa_1" xmlns="http://www.w3.org/2000/svg" xmlns:xlink="http://www.w3.org/1999/xlink" x="0px" y="0px"
	 viewBox="0 0 400 702" style="enable-background:new 0 0 400 702;" xml:space="preserve">
<style type="text/css">
	.st0{fill:#00D13C;}
	.st1{fill:#E0EF18;}
	.st2{fill:#CECECE;}
	.st3{fill:#FFFFFF;}
	.st4{fill:#0085B0;}
	.st5{fill:#F2F2F2;}
	.st6{fill:#EACCB0;}
	.st7{fill:#9B9B9B;}
	.st8{fill:#939393;}
	.st9{fill:#EFEFEF;}
	.st10{fill:#828282;}
	.st11{fill:#2C2A2D;}
	.st12{fill:#202021;}
	.st13{fill:#F2D4B6;}
	.st14{fill:#534D46;}
	.st15{fill:#E8D313;}
	.st16{fill:#2ACCFF;}
	.st17{fill:#4E4F4F;}
	.st18{fill:#003A94;}
	.st19{fill:#15682A;}
	.st20{fill:#D40000;}
	.st21{fill:#505050;}
	.st22{fill:none;}
	.st23{fill:#636363;}
	.st24{fill:#DFDFDF;}
	.st25{fill:#6C92D5;}
	.st26{fill:#22272F;}
	.st27{fill:#1B2538;}
	.st28{fill:#253452;}
	.st29{fill:#F9F9F9;}
	.st30{fill:#2D3543;}
	.st31{fill:#2A3D60;}
	.st32{fill:#587955;}
	.st33{fill:#CD7054;}
	.st34{fill:#F1CC4B;}
	.st35{fill:#ACACAC;}
	.st36{fill:#AAE528;}
	.st37{fill:#28CEBA;}
	.st38{fill:#DB143F;}
	.st39{fill:#53C2C9;}
	.st40{fill:#FFB412;}
	.st41{fill:#866A5E;}
	.st42{fill:#F7DDCB;}
	.st43{fill:#FFE6D4;}
	.st44{fill:#F5F5F5;}
	.st45{fill:#1A2830;}
	.st46{fill:#24353F;}
	.st47{fill:#132026;}
	.st48{fill:#F9FF03;}
	.st49{fill:#272728;}
	.st50{fill:#1E1D1E;}
	.st51{fill:#160423;}
	.st52{fill-rule:evenodd;clip-rule:evenodd;fill:#FFFFFF;}
	.st53{fill-rule:evenodd;clip-rule:evenodd;fill:#1996B8;}
	.st54{fill:#0C387D;}
	.st55{fill:#C69A81;}
	.st56{fill:#D1A385;}
	.st57{fill:#EAEAEA;}
	.st58{fill:#093E8C;}
	.st59{fill:#0B2A62;}
	.st60{fill:#D32A3B;}
	.st61{fill:#827C7D;}
	.st62{opacity:0.7;fill:#7F7F7F;}
	.st63{fill:#FDFDFD;}
	.st64{fill:#DAA449;}
	.st65{fill:#DD9225;}
	.st66{opacity:0.3;}
</style>
<g>
	<g>
		<path class="st4" d="M9.5,209.36c0,22,13.29,27.86,29.54,13.03c0,0,156.99-143.3,353.09,26.97V55c0-22-18-40-40-40H49.5
			c-22,0-40,18-40,40V209.36z"/>
	</g>
	<g>
		<path class="st4" d="M391.66,647c0,22-18,40-40,40H49.98c-22,0-40-18-40-40v-46.27c0-22,18-40,40-40h301.68c22,0,40,18,40,40V647z
			"/>
	</g>
	<g>
		<path d="M103.73,404.42c-0.34-0.35-0.51-0.9-0.51-1.63v-21.51c0-0.74,0.17-1.28,0.51-1.63c0.34-0.36,0.93-0.53,1.77-0.53h15.73
			c0.81,0,1.36,0.17,1.65,0.51c0.29,0.34,0.44,0.89,0.44,1.65v2.13c0,0.76-0.15,1.31-0.44,1.65c-0.29,0.34-0.84,0.51-1.65,0.51
			h-8.89v3.23h5.47c0.81,0,1.36,0.17,1.65,0.51c0.29,0.34,0.44,0.89,0.44,1.65v2.13c0,0.76-0.15,1.31-0.44,1.65
			c-0.29,0.34-0.84,0.51-1.65,0.51h-5.47v7.52c0,0.74-0.17,1.28-0.51,1.63c-0.34,0.36-0.94,0.53-1.8,0.53h-4.52
			C104.66,404.95,104.07,404.78,103.73,404.42z"/>
		<path d="M125.16,404.42c-0.34-0.35-0.51-0.9-0.51-1.63v-21.51c0-0.74,0.17-1.28,0.51-1.63c0.34-0.36,0.93-0.53,1.77-0.53h4.52
			c0.86,0,1.46,0.17,1.8,0.51s0.51,0.89,0.51,1.65v21.51c0,0.74-0.17,1.28-0.51,1.63c-0.34,0.36-0.94,0.53-1.8,0.53h-4.52
			C126.09,404.95,125.5,404.78,125.16,404.42z"/>
		<path d="M136.94,404.42c-0.34-0.35-0.51-0.9-0.51-1.63v-21.51c0-0.74,0.17-1.28,0.51-1.63c0.34-0.36,0.93-0.53,1.77-0.53h8.74
			c8.94,0,13.41,4.31,13.41,12.92c0,4.26-1.15,7.47-3.44,9.65s-5.62,3.27-9.97,3.27h-8.74
			C137.87,404.95,137.28,404.78,136.94,404.42z M147.79,398.49c1.42,0,2.44-0.47,3.06-1.41c0.62-0.94,0.93-2.62,0.93-5.05
			s-0.31-4.12-0.93-5.05s-1.64-1.41-3.06-1.41h-2.24v12.92H147.79z"/>
		<path d="M163.28,404.42c-0.34-0.35-0.51-0.9-0.51-1.63v-21.51c0-0.74,0.17-1.28,0.51-1.63c0.34-0.36,0.93-0.53,1.77-0.53h15.73
			c0.81,0,1.36,0.17,1.65,0.51s0.44,0.89,0.44,1.65v2.13c0,0.76-0.15,1.31-0.44,1.65c-0.29,0.34-0.84,0.51-1.65,0.51h-8.89v3.27
			h5.47c0.81,0,1.36,0.17,1.65,0.51c0.29,0.34,0.44,0.89,0.44,1.65v2.05c0,0.76-0.15,1.31-0.44,1.65s-0.84,0.51-1.65,0.51h-5.47
			v3.27h8.85c0.81,0,1.36,0.17,1.65,0.51c0.29,0.34,0.44,0.89,0.44,1.65v2.13c0,0.76-0.15,1.31-0.44,1.65
			c-0.29,0.34-0.84,0.51-1.65,0.51h-15.69C164.21,404.95,163.62,404.78,163.28,404.42z"/>
		<path d="M185.09,404.42c-0.34-0.35-0.51-0.9-0.51-1.63v-21.51c0-0.74,0.17-1.28,0.51-1.63c0.34-0.36,0.93-0.53,1.77-0.53h4.52
			c0.86,0,1.46,0.17,1.81,0.51s0.51,0.89,0.51,1.65v17.21h8.85c0.81,0,1.36,0.17,1.65,0.51s0.44,0.89,0.44,1.65v2.13
			c0,0.76-0.15,1.31-0.44,1.65c-0.29,0.34-0.84,0.51-1.65,0.51h-15.7C186.02,404.95,185.43,404.78,185.09,404.42z"/>
		<path d="M206.29,404.42c-0.34-0.35-0.51-0.9-0.51-1.63v-21.51c0-0.74,0.17-1.28,0.51-1.63c0.34-0.36,0.93-0.53,1.77-0.53h4.52
			c0.86,0,1.46,0.17,1.8,0.51s0.51,0.89,0.51,1.65v21.51c0,0.74-0.17,1.28-0.51,1.63c-0.34,0.36-0.94,0.53-1.8,0.53h-4.52
			C207.22,404.95,206.63,404.78,206.29,404.42z"/>
		<path d="M217.18,404.52c-0.25-0.29-0.38-0.83-0.38-1.62c0-0.81,0.07-1.44,0.21-1.9s0.49-1.05,1.05-1.79l9.99-13.64h-8.78
			c-0.84,0-1.42-0.18-1.77-0.53c-0.34-0.35-0.51-0.9-0.51-1.63v-2.13c0-0.74,0.17-1.28,0.51-1.63c0.34-0.36,0.93-0.53,1.77-0.53
			h18.77c0.76,0,1.27,0.15,1.52,0.44c0.25,0.29,0.38,0.83,0.38,1.62s-0.07,1.41-0.21,1.86c-0.14,0.46-0.49,1.06-1.04,1.82
			l-9.92,13.64h8.97c0.84,0,1.42,0.18,1.77,0.53c0.34,0.35,0.51,0.9,0.51,1.63v2.13c0,0.74-0.17,1.28-0.51,1.63
			c-0.34,0.36-0.93,0.53-1.77,0.53H218.7C217.94,404.95,217.43,404.81,217.18,404.52z"/>
		<path d="M240.21,404.15c0-0.23,0.06-0.51,0.19-0.84l9.46-22.76c0.23-0.53,0.49-0.91,0.78-1.12s0.7-0.32,1.24-0.32h4.14
			c0.53,0,0.94,0.11,1.24,0.32c0.29,0.21,0.55,0.59,0.78,1.12l9.42,22.76c0.13,0.33,0.19,0.61,0.19,0.84c0,0.53-0.28,0.8-0.84,0.8
			h-7.14c-0.79,0-1.28-0.34-1.48-1.03l-0.91-2.81h-6.73l-0.87,2.81c-0.2,0.68-0.7,1.03-1.48,1.03h-7.14
			C240.48,404.95,240.21,404.69,240.21,404.15z M255.41,395.11l-1.48-4.71l-1.48,4.71H255.41z"/>
		<path d="M270.05,404.42c-0.34-0.35-0.51-0.9-0.51-1.63v-21.51c0-0.74,0.17-1.28,0.51-1.63c0.34-0.36,0.93-0.53,1.77-0.53h9.08
			c3.8,0,6.57,0.75,8.3,2.26c1.73,1.51,2.6,3.78,2.6,6.82c0,1.82-0.31,3.36-0.93,4.62s-1.58,2.24-2.87,2.94l3.53,7.56
			c0.1,0.2,0.15,0.43,0.15,0.68c0,0.28-0.09,0.51-0.28,0.68c-0.19,0.18-0.44,0.27-0.74,0.27h-6.42c-0.41,0-0.73-0.06-0.97-0.17
			c-0.24-0.11-0.41-0.31-0.51-0.59l-2.81-7.07h-1.29v5.66c0,0.74-0.17,1.28-0.51,1.63c-0.34,0.36-0.94,0.53-1.8,0.53h-4.52
			C270.99,404.95,270.4,404.78,270.05,404.42z M280.11,390.78c0.81,0,1.45-0.21,1.92-0.65c0.47-0.43,0.7-1.08,0.7-1.94
			c0-0.89-0.24-1.54-0.7-1.98c-0.47-0.43-1.11-0.65-1.92-0.65h-2.58v5.21H280.11z"/>
		<path d="M52.3,449.75c0-0.23,0.06-0.51,0.19-0.84l9.46-22.76c0.23-0.53,0.49-0.91,0.78-1.12c0.29-0.22,0.7-0.32,1.24-0.32h4.14
			c0.53,0,0.94,0.11,1.24,0.32c0.29,0.21,0.55,0.59,0.78,1.12l9.42,22.76c0.13,0.33,0.19,0.61,0.19,0.84c0,0.53-0.28,0.8-0.84,0.8
			h-7.14c-0.79,0-1.28-0.34-1.48-1.03l-0.91-2.81h-6.73l-0.87,2.81c-0.2,0.68-0.7,1.03-1.48,1.03h-7.14
			C52.58,450.55,52.3,450.29,52.3,449.75z M67.5,440.71L66.02,436l-1.48,4.71H67.5z"/>
		<path d="M99.59,450.02c-0.34-0.35-0.51-0.9-0.51-1.63v-17.21H93.6c-0.81,0-1.36-0.17-1.65-0.51c-0.29-0.34-0.44-0.89-0.44-1.65
			v-2.13c0-0.76,0.15-1.31,0.44-1.65s0.84-0.51,1.65-0.51h20.06c0.81,0,1.36,0.17,1.65,0.51s0.44,0.89,0.44,1.65v2.13
			c0,0.76-0.15,1.31-0.44,1.65c-0.29,0.34-0.84,0.51-1.65,0.51h-5.47v17.21c0,0.74-0.17,1.28-0.51,1.63
			c-0.34,0.36-0.94,0.53-1.81,0.53h-4.52C100.52,450.55,99.93,450.38,99.59,450.02z"/>
		<path d="M122.63,449.92c-1.88-0.8-3.33-1.95-4.37-3.46c-1.04-1.51-1.56-3.3-1.56-5.38v-14.21c0-0.73,0.17-1.28,0.51-1.63
			s0.93-0.53,1.77-0.53h4.52c0.86,0,1.46,0.17,1.8,0.51s0.51,0.89,0.51,1.65v14.33c0,1.19,0.3,2.08,0.89,2.66
			c0.59,0.58,1.41,0.87,2.45,0.87c1.04,0,1.86-0.29,2.45-0.87c0.59-0.58,0.89-1.47,0.89-2.66v-14.33c0-0.73,0.17-1.28,0.51-1.63
			c0.34-0.35,0.93-0.53,1.77-0.53h4.52c0.86,0,1.46,0.17,1.81,0.51c0.34,0.34,0.51,0.89,0.51,1.65v14.21c0,2.08-0.52,3.87-1.56,5.38
			c-1.04,1.51-2.5,2.66-4.37,3.46s-4.05,1.2-6.54,1.2C126.69,451.12,124.51,450.72,122.63,449.92z"/>
		<path d="M148.93,450.4c-1.98-0.48-3.57-1.15-4.79-2.01c-0.51-0.35-0.76-0.7-0.76-1.03c0-0.23,0.09-0.47,0.27-0.72l2.21-3.46
			c0.23-0.33,0.46-0.49,0.68-0.49c0.2,0,0.44,0.09,0.72,0.27c0.91,0.56,1.96,0.99,3.14,1.31c1.18,0.32,2.32,0.47,3.44,0.47
			c0.94,0,1.61-0.13,2.03-0.38c0.42-0.25,0.63-0.65,0.63-1.18c0-0.58-0.28-1.05-0.84-1.41c-0.56-0.35-1.52-0.8-2.89-1.33
			c-2.56-0.99-4.57-2.11-6.04-3.36s-2.2-2.92-2.2-5c0-2.63,0.92-4.62,2.75-5.95c1.84-1.33,4.31-2,7.43-2c2.18,0,4.03,0.19,5.57,0.57
			s2.87,0.98,4.01,1.79c0.51,0.35,0.76,0.7,0.76,1.03c0,0.23-0.09,0.47-0.27,0.72l-2.21,3.46c-0.23,0.35-0.46,0.53-0.68,0.53
			c-0.15,0-0.39-0.1-0.72-0.3c-0.61-0.41-1.33-0.74-2.17-1.01s-1.74-0.4-2.7-0.4c-0.89,0-1.56,0.13-2.01,0.38
			c-0.46,0.25-0.68,0.66-0.68,1.22c0,0.46,0.16,0.84,0.47,1.14c0.32,0.3,0.71,0.56,1.2,0.78c0.48,0.21,1.32,0.56,2.51,1.04
			c1.9,0.76,3.39,1.49,4.48,2.18c1.09,0.7,1.91,1.53,2.47,2.51c0.56,0.98,0.84,2.21,0.84,3.71c0,2.28-0.85,4.12-2.56,5.53
			s-4.26,2.11-7.66,2.11C153.05,451.12,150.91,450.88,148.93,450.4z"/>
		<path d="M181.95,447.72c-2.56-2.27-3.84-5.63-3.84-10.09c0-4.48,1.24-7.85,3.71-10.11c2.47-2.25,6-3.38,10.58-3.38
			c2.08,0,3.93,0.2,5.55,0.61s2.98,0.98,4.07,1.71c0.3,0.23,0.46,0.48,0.46,0.76c0,0.23-0.12,0.54-0.34,0.95l-1.9,3.27
			c-0.2,0.36-0.44,0.53-0.72,0.53c-0.18,0-0.47-0.1-0.87-0.3c-0.71-0.35-1.45-0.63-2.22-0.84c-0.77-0.2-1.68-0.3-2.72-0.3
			c-2.1,0-3.71,0.61-4.83,1.82c-1.12,1.22-1.67,2.98-1.67,5.28c0,2.28,0.61,4.03,1.82,5.26c1.22,1.23,2.88,1.84,4.98,1.84
			c1.82,0,3.5-0.38,5.02-1.14c0.41-0.2,0.7-0.3,0.88-0.3c0.28,0,0.52,0.18,0.72,0.53l1.9,3.27c0.23,0.41,0.34,0.72,0.34,0.95
			c0,0.28-0.15,0.53-0.46,0.76c-1.09,0.74-2.46,1.3-4.1,1.71c-1.65,0.41-3.51,0.61-5.59,0.61
			C188.09,451.12,184.51,449.99,181.95,447.72z"/>
		<path d="M205.26,450.02c-0.34-0.35-0.51-0.9-0.51-1.63v-21.51c0-0.73,0.17-1.28,0.51-1.63c0.34-0.35,0.93-0.53,1.77-0.53h4.52
			c0.86,0,1.46,0.17,1.81,0.51s0.51,0.89,0.51,1.65v17.21h8.85c0.81,0,1.36,0.17,1.65,0.51s0.44,0.89,0.44,1.65v2.13
			c0,0.76-0.15,1.31-0.44,1.65c-0.29,0.34-0.84,0.51-1.65,0.51h-15.7C206.2,450.55,205.61,450.38,205.26,450.02z"/>
		<path d="M226.47,450.02c-0.34-0.35-0.51-0.9-0.51-1.63v-21.51c0-0.73,0.17-1.28,0.51-1.63s0.93-0.53,1.77-0.53h4.52
			c0.86,0,1.46,0.17,1.8,0.51s0.51,0.89,0.51,1.65v21.51c0,0.74-0.17,1.28-0.51,1.63c-0.34,0.36-0.94,0.53-1.8,0.53h-4.52
			C227.4,450.55,226.81,450.38,226.47,450.02z"/>
		<path d="M238.25,450.02c-0.34-0.35-0.51-0.9-0.51-1.63v-21.51c0-0.73,0.17-1.28,0.51-1.63c0.34-0.35,0.93-0.53,1.77-0.53h15.73
			c0.81,0,1.36,0.17,1.65,0.51s0.44,0.89,0.44,1.65v2.13c0,0.76-0.15,1.31-0.44,1.65c-0.29,0.34-0.84,0.51-1.65,0.51h-8.89v3.27
			h5.47c0.81,0,1.36,0.17,1.65,0.51c0.29,0.34,0.44,0.89,0.44,1.65v2.05c0,0.76-0.15,1.31-0.44,1.65s-0.84,0.51-1.65,0.51h-5.47
			v3.27h8.85c0.81,0,1.36,0.17,1.65,0.51c0.29,0.34,0.44,0.89,0.44,1.65v2.13c0,0.76-0.15,1.31-0.44,1.65
			c-0.29,0.34-0.84,0.51-1.65,0.51h-15.69C239.18,450.55,238.59,450.38,238.25,450.02z"/>
		<path d="M260.06,450.02c-0.34-0.35-0.51-0.9-0.51-1.63v-21.55c0-0.73,0.17-1.27,0.51-1.62s0.94-0.51,1.8-0.51h3.61
			c0.53,0,0.94,0.07,1.24,0.21c0.29,0.14,0.58,0.41,0.85,0.82l6.88,10.22v-9.08c0-0.73,0.17-1.28,0.51-1.63
			c0.34-0.35,0.93-0.53,1.77-0.53h4.52c0.86,0,1.46,0.17,1.81,0.51s0.51,0.89,0.51,1.65v21.55c0,0.74-0.17,1.27-0.51,1.62
			c-0.34,0.34-0.94,0.51-1.81,0.51h-3.61c-0.53,0-0.94-0.07-1.23-0.21c-0.29-0.14-0.58-0.41-0.86-0.82l-6.88-10.22v9.12
			c0,0.74-0.17,1.27-0.51,1.62c-0.34,0.34-0.94,0.51-1.8,0.51h-4.52C260.99,450.55,260.4,450.38,260.06,450.02z"/>
		<path d="M292.78,450.02c-0.34-0.35-0.51-0.9-0.51-1.63v-17.21h-5.47c-0.81,0-1.36-0.17-1.65-0.51c-0.29-0.34-0.44-0.89-0.44-1.65
			v-2.13c0-0.76,0.15-1.31,0.44-1.65s0.84-0.51,1.65-0.51h20.06c0.81,0,1.36,0.17,1.65,0.51s0.44,0.89,0.44,1.65v2.13
			c0,0.76-0.15,1.31-0.44,1.65c-0.29,0.34-0.84,0.51-1.65,0.51h-5.47v17.21c0,0.74-0.17,1.28-0.51,1.63
			c-0.34,0.36-0.94,0.53-1.81,0.53h-4.52C293.71,450.55,293.12,450.38,292.78,450.02z"/>
		<path d="M310.6,450.02c-0.34-0.35-0.51-0.9-0.51-1.63v-21.51c0-0.73,0.17-1.28,0.51-1.63s0.93-0.53,1.77-0.53h15.73
			c0.81,0,1.36,0.17,1.65,0.51s0.44,0.89,0.44,1.65v2.13c0,0.76-0.15,1.31-0.44,1.65c-0.29,0.34-0.84,0.51-1.65,0.51h-8.89v3.27
			h5.47c0.81,0,1.36,0.17,1.65,0.51c0.29,0.34,0.44,0.89,0.44,1.65v2.05c0,0.76-0.15,1.31-0.44,1.65s-0.84,0.51-1.65,0.51h-5.47
			v3.27h8.85c0.81,0,1.36,0.17,1.65,0.51c0.29,0.34,0.44,0.89,0.44,1.65v2.13c0,0.76-0.15,1.31-0.44,1.65
			c-0.29,0.34-0.84,0.51-1.65,0.51h-15.69C311.53,450.55,310.94,450.38,310.6,450.02z"/>
		<path d="M336.72,450.4c-1.98-0.48-3.57-1.15-4.79-2.01c-0.51-0.35-0.76-0.7-0.76-1.03c0-0.23,0.09-0.47,0.27-0.72l2.2-3.46
			c0.23-0.33,0.46-0.49,0.68-0.49c0.2,0,0.44,0.09,0.72,0.27c0.91,0.56,1.96,0.99,3.13,1.31c1.18,0.32,2.32,0.47,3.44,0.47
			c0.94,0,1.61-0.13,2.03-0.38c0.42-0.25,0.63-0.65,0.63-1.18c0-0.58-0.28-1.05-0.84-1.41c-0.56-0.35-1.52-0.8-2.89-1.33
			c-2.56-0.99-4.57-2.11-6.04-3.36c-1.47-1.25-2.2-2.92-2.2-5c0-2.63,0.92-4.62,2.75-5.95s4.31-2,7.43-2c2.18,0,4.03,0.19,5.57,0.57
			c1.53,0.38,2.87,0.98,4.01,1.79c0.51,0.35,0.76,0.7,0.76,1.03c0,0.23-0.09,0.47-0.27,0.72l-2.2,3.46
			c-0.23,0.35-0.46,0.53-0.68,0.53c-0.15,0-0.39-0.1-0.72-0.3c-0.61-0.41-1.33-0.74-2.17-1.01s-1.74-0.4-2.7-0.4
			c-0.89,0-1.56,0.13-2.01,0.38c-0.46,0.25-0.68,0.66-0.68,1.22c0,0.46,0.16,0.84,0.47,1.14s0.72,0.56,1.2,0.78
			c0.48,0.21,1.32,0.56,2.51,1.04c1.9,0.76,3.39,1.49,4.48,2.18c1.09,0.7,1.91,1.53,2.47,2.51c0.56,0.98,0.84,2.21,0.84,3.71
			c0,2.28-0.85,4.12-2.57,5.53c-1.71,1.41-4.26,2.11-7.66,2.11C340.84,451.12,338.7,450.88,336.72,450.4z"/>
	</g>
	<polygon class="st1" points="200.76,96.93 214.23,124.22 244.34,128.59 222.55,149.83 227.7,179.83 200.76,165.67 173.83,179.83 
		178.97,149.83 157.18,128.59 187.29,124.22 	"/>
	<polygon class="st1" points="138.58,180.15 147.32,197.86 166.86,200.7 152.72,214.48 156.06,233.94 138.58,224.75 121.11,233.94 
		124.45,214.48 110.31,200.7 129.85,197.86 	"/>
	<polygon class="st1" points="268.68,180.15 277.42,197.86 296.95,200.7 282.82,214.48 286.15,233.94 268.68,224.75 251.2,233.94 
		254.54,214.48 240.4,200.7 259.94,197.86 	"/>
	<circle class="st2" cx="201.77" cy="213.97" r="121.96"/>
	<circle class="st3" cx="200.82" cy="200.58" r="121.96"/>
	<g>
		<path class="st3" d="M178.44,640.93c-0.58-0.44-0.88-0.92-0.88-1.46c0-0.44,0.22-1.05,0.66-1.83l3.5-6.06
			c0.39-0.68,0.85-1.02,1.39-1.02c0.34,0,0.9,0.2,1.68,0.58c2.29,1.22,5.23,1.83,8.83,1.83c2.77,0,4.91-0.52,6.42-1.57
			c1.51-1.05,2.63-2.59,3.36-4.64c-2.87,1.7-6.62,2.55-11.24,2.55c-4.09,0-7.52-0.74-10.29-2.23c-2.77-1.48-4.84-3.45-6.21-5.91
			c-1.36-2.46-2.04-5.17-2.04-8.14c0-6.62,1.97-11.55,5.91-14.78c3.94-3.24,9.56-4.85,16.86-4.85c6.62,0,11.98,1.91,16.1,5.73
			c4.11,3.82,6.17,9.72,6.17,17.7c0,6.52-1.08,11.9-3.25,16.13c-2.17,4.23-5.03,7.34-8.58,9.31c-3.55,1.97-7.5,2.96-11.83,2.96
			C188.2,645.24,182.67,643.8,178.44,640.93z M200.05,618.01c0.73-1.12,1.1-2.9,1.1-5.33c0-2.43-0.37-4.21-1.1-5.33
			c-0.73-1.12-1.97-1.68-3.72-1.68c-1.9,0-3.25,0.56-4.05,1.68c-0.8,1.12-1.2,2.9-1.2,5.33c0,2.43,0.4,4.21,1.2,5.33
			c0.8,1.12,2.15,1.68,4.05,1.68C198.08,619.69,199.32,619.13,200.05,618.01z"/>
	</g>
	<g>
		<circle id="XMLID_8249_" class="st5" cx="202.73" cy="179.96" r="82.04"/>
		<g id="XMLID_7171_">
			<path id="XMLID_7178_" class="st6" d="M202.68,197.54c6.53,0,12.37-4.25,14.39-4.68c-0.17-1.44-0.2-2.74-0.19-3.81
				c-4.97,4.19-7.16,5.62-13.75,5.39c-6.85,0.24-8.95-1.32-14.35-5.9c0.02,1.16,0.02,2.67-0.19,4.37
				C190.76,193.55,196.36,197.53,202.68,197.54L202.68,197.54z"/>
			<path id="XMLID_7177_" class="st49" d="M256.64,215.74c-1.29-1.35-11.06-3.18-17.37-5.87c-7.02-2.99-14.24-5.4-17.85-8.32h0
				c-0.05,0.07-0.1,0.14-0.17,0.2c-7.42,7.26-18.56,6.71-18.56,6.71v-0.01c0,0-11.05,0.56-18.47-6.7c-0.07-0.07-0.12-0.14-0.17-0.2
				h0c-3.62,2.93-10.83,5.33-17.85,8.32c-6.63,2.82-17.08,4.71-17.5,6.07c7.64-3.08,11.62,18.5,13.1,35.1
				C173.83,258,187.81,262,202.73,262c15.1,0,29.23-4.09,41.38-11.21C245.56,234.62,249.38,213.86,256.64,215.74z"/>
			<path id="XMLID_7176_" class="st13" d="M203.13,194.44c6.59,0.23,8.78-1.21,13.75-5.39c0.39-0.33,0.78-0.66,1.21-1.02
				c6.16-5.23,3.06-16.15,6.8-15.46s8.02-9.67,5.08-11.94c-0.06-0.05-0.12-0.08-0.18-0.12l0,0c-1.47-0.51-2.63,0.77-3.71,2.59
				c-1.08,1.82-0.66,4.62-1.74,4.56c-1.45-4.92-1.13-9.3-0.84-14.41c-10.08,2.96-20.46,4.49-28.86-1.67
				c-1.72-1.26-3.39-2.92-5.99-2.88c-3.01,0.05-4.22,1.84-3.8,4.73c0.21,1.45,0.32,3.41,0.4,4.27c0.29,3.01-1.58,6.71-2.27,7.42
				c-0.45,0.46-1.54,2.38-2.2,2.54c-0.54,0.13-0.17-3.01-1.97-5.72c-1.02-1.53-1.63-1.72-1.91-1.71c-0.19,0.11-0.39,0.24-0.6,0.4
				c-2.94,2.27,1.34,12.62,5.08,11.94c3.74-0.68,0.64,10.23,6.8,15.46c0.21,0.18,0.4,0.34,0.6,0.51
				C194.18,193.12,196.28,194.68,203.13,194.44z"/>
			<path id="XMLID_7175_" class="st50" d="M148.69,215.94c-0.11,0.05-0.23,0.07-0.34,0.13c-1.69,0.84-4.94,6.52-7.48,17.73
				c5.96,6.84,13.02,12.67,20.92,17.23C160.3,234.44,156.32,212.86,148.69,215.94z"/>
			<path id="XMLID_7174_" class="st50" d="M257.52,216.07c-0.3-0.15-0.59-0.25-0.88-0.33c-7.25-1.88-11.08,18.88-12.54,35.05
				c7.87-4.61,14.9-10.49,20.81-17.36C262.39,222.47,259.19,216.9,257.52,216.07z"/>
			<path id="XMLID_7173_" class="st50" d="M202.68,208.46v0.01c0,0,11.13,0.55,18.56-6.71c0.07-0.07,0.12-0.14,0.17-0.2
				c0.91-1.26-1.47-2.59-1.77-4.02c-0.32-1.52-0.54-5.01-2.46-4.7c-0.03,0.01-0.07,0.02-0.11,0.03c-2.02,0.43-7.85,4.68-14.39,4.68
				v-0.01c-6.33,0-11.92-3.97-14.1-4.62c-0.11-0.03-0.22-0.06-0.31-0.08c-1.92-0.31-2.14,3.18-2.46,4.7
				c-0.3,1.44-2.68,2.76-1.77,4.02c0.05,0.07,0.1,0.14,0.17,0.2C191.64,209.01,202.68,208.46,202.68,208.46z"/>
			<path id="XMLID_7172_" class="st51" d="M178.8,161.93c1.79,2.71,1.43,5.85,1.97,5.72c0.65-0.16,1.75-2.08,2.2-2.54
				c0.69-0.71,2.56-4.41,2.27-7.42c-0.08-0.86-0.19-2.82-0.4-4.27c-0.42-2.89,0.79-4.68,3.8-4.73c2.61-0.04,4.27,1.62,5.99,2.88
				c8.4,6.17,18.78,4.63,28.86,1.67c-0.28,5.11-0.61,9.49,0.84,14.41c1.07,0.07,0.65-2.74,1.74-4.56c1.08-1.82,2.24-3.1,3.71-2.59
				l0,0c2.99-6.37,3.31-16.72,0.35-23.1c-2.96-6.38-7.69-9.37-12.37-14.69c0.43,1.44-1.52,3.6-3.36,3.77
				c-1.53,0.14-4.09-0.69-5.62-0.87c-7.75-0.94-12.18-1.29-18.52,0.94c-3.27,1.15-6.36,2.76-8.81,5.15
				c-3.17,3.08-5.8,8.67-6.32,12.99c-0.27,2.24-0.55,4.52-0.22,7.78c0.14,1.39,0.99,6.54,1.82,7.79c0,0,0.06-0.03,0.17-0.04
				C177.17,160.21,177.79,160.4,178.8,161.93z"/>
		</g>
	</g>
	<g>
		<circle class="st52" cx="157.5" cy="249.5" r="43.5"/>
		<path class="st53" d="M169.38,235.18h11.25c2.89,0,5.26,2.36,5.26,5.26l0,0c0,2.12-1.28,3.97-3.1,4.79
			c1.01,0.93,1.65,2.27,1.65,3.74l0,0c0,1.76-0.91,3.32-2.28,4.23c1.17,0.93,1.92,2.37,1.92,3.97l0,0c0,1.76-0.91,3.32-2.28,4.23
			c1.17,0.93,1.92,2.37,1.92,3.97v0c0,2.8-2.29,5.08-5.08,5.08h-13.85l-0.35,0.07l-13.53-0.58l-1.22-1.87l0.21-30.17
			c0-0.04,5.32-5.14,8.83-8.6c2.74-2.7,6.24-12.95,6.29-12.96c8.62-1.12,7.55,12.24,4.89,17.34
			C169.67,234.14,169.5,234.66,169.38,235.18L169.38,235.18z M135.67,235h8.64c1.43,0,2.59,1.17,2.59,2.59v29.66
			c0,1.43-1.17,2.59-2.59,2.59h-8.64c-1.43,0-2.59-1.17-2.59-2.59V237.6C133.08,236.17,134.25,235,135.67,235z"/>
	</g>
</g>
</svg>
