<?xml version="1.0" encoding="utf-8"?>
<!-- Generator: Adobe Illustrator 23.0.0, SVG Export Plug-In . SVG Version: 6.00 Build 0)  -->
<svg version="1.1" id="Capa_1" xmlns="http://www.w3.org/2000/svg" xmlns:xlink="http://www.w3.org/1999/xlink" x="0px" y="0px"
	 viewBox="0 0 400 702" style="enable-background:new 0 0 400 702;" xml:space="preserve">
<style type="text/css">
	.st0{fill:#00D13C;}
	.st1{fill:#E0EF18;}
	.st2{fill:#CECECE;}
	.st3{fill:#FFFFFF;}
	.st4{fill:#0085B0;}
	.st5{fill:#F2F2F2;}
	.st6{fill:#EACCB0;}
	.st7{fill:#9B9B9B;}
	.st8{fill:#939393;}
	.st9{fill:#EFEFEF;}
	.st10{fill:#828282;}
	.st11{fill:#2C2A2D;}
	.st12{fill:#202021;}
	.st13{fill:#F2D4B6;}
	.st14{fill:#534D46;}
	.st15{fill:#E8D313;}
	.st16{fill:#2ACCFF;}
	.st17{fill:#4E4F4F;}
	.st18{fill:#003A94;}
	.st19{fill:#15682A;}
	.st20{fill:#D40000;}
	.st21{fill:#505050;}
	.st22{fill:none;}
	.st23{fill:#636363;}
	.st24{fill:#DFDFDF;}
	.st25{fill:#6C92D5;}
	.st26{fill:#22272F;}
	.st27{fill:#1B2538;}
	.st28{fill:#253452;}
	.st29{fill:#F9F9F9;}
	.st30{fill:#2D3543;}
	.st31{fill:#2A3D60;}
	.st32{fill:#587955;}
	.st33{fill:#CD7054;}
	.st34{fill:#F1CC4B;}
	.st35{fill:#ACACAC;}
	.st36{fill:#AAE528;}
	.st37{fill:#28CEBA;}
	.st38{fill:#DB143F;}
	.st39{opacity:0.7;fill:#7F7F7F;}
	.st40{fill:#FDFDFD;}
	.st41{fill:#DAA449;}
	.st42{fill:#DD9225;}
	.st43{opacity:0.3;}
	.st44{fill:#53C2C9;}
	.st45{fill:#FFB412;}
	.st46{fill:#866A5E;}
	.st47{fill:#F7DDCB;}
	.st48{fill:#FFE6D4;}
	.st49{fill:#F5F5F5;}
	.st50{fill:#1A2830;}
	.st51{fill:#24353F;}
	.st52{fill:#132026;}
	.st53{fill:#F9FF03;}
	.st54{fill:#272728;}
	.st55{fill:#1E1D1E;}
	.st56{fill:#160423;}
	.st57{fill-rule:evenodd;clip-rule:evenodd;fill:#FFFFFF;}
	.st58{fill-rule:evenodd;clip-rule:evenodd;fill:#1996B8;}
	.st59{fill:#0C387D;}
	.st60{fill:#C69A81;}
	.st61{fill:#D1A385;}
	.st62{fill:#EAEAEA;}
	.st63{fill:#093E8C;}
	.st64{fill:#0B2A62;}
	.st65{fill:#D32A3B;}
	.st66{fill:#827C7D;}
</style>
<g>
	<g>
		<path class="st4" d="M9.5,209.36c0,22,13.29,27.86,29.54,13.03c0,0,156.99-143.3,353.09,26.97V55c0-22-18-40-40-40H49.5
			c-22,0-40,18-40,40V209.36z"/>
	</g>
	<g>
		<path class="st4" d="M391.66,647c0,22-18,40-40,40H49.98c-22,0-40-18-40-40v-46.27c0-22,18-40,40-40h301.68c22,0,40,18,40,40V647z
			"/>
	</g>
	<g>
		<path d="M123.19,389.01c-2.33-2.34-3.5-5.67-3.5-9.97s1.16-7.63,3.5-9.98c2.33-2.34,5.75-3.51,10.26-3.51
			c4.51,0,7.93,1.17,10.26,3.51c2.33,2.34,3.5,5.67,3.5,9.98s-1.17,7.63-3.5,9.97c-2.33,2.34-5.75,3.52-10.26,3.52
			C128.94,392.52,125.52,391.35,123.19,389.01z M137.02,384.37c0.73-1.18,1.1-2.96,1.1-5.34c0-2.41-0.37-4.19-1.1-5.36
			c-0.74-1.17-1.93-1.75-3.57-1.75c-1.65,0-2.84,0.58-3.57,1.75c-0.73,1.17-1.1,2.95-1.1,5.36c0,2.38,0.37,4.16,1.1,5.34
			s1.92,1.77,3.57,1.77C135.1,386.14,136.29,385.55,137.02,384.37z"/>
		<path d="M149.62,391.42c-0.34-0.35-0.51-0.9-0.51-1.63v-21.51c0-0.74,0.17-1.28,0.51-1.63c0.34-0.36,0.93-0.53,1.77-0.53h11.51
			c3.09,0,5.36,0.66,6.82,1.98c1.46,1.32,2.18,3.19,2.18,5.62c0,1.14-0.25,2.15-0.74,3.02s-1.15,1.49-1.96,1.84
			c2.25,0.76,3.38,2.53,3.38,5.32c0,2.38-0.84,4.32-2.53,5.81c-1.69,1.5-4.16,2.24-7.43,2.24h-11.25
			C150.55,391.95,149.96,391.78,149.62,391.42z M161.08,375.88c1.17,0,1.75-0.56,1.75-1.67c0-1.11-0.58-1.67-1.75-1.67h-2.89v3.34
			H161.08z M161.72,385.53c0.53,0,0.96-0.17,1.29-0.51c0.33-0.34,0.49-0.8,0.49-1.39c0-0.61-0.16-1.08-0.48-1.41
			s-0.75-0.49-1.31-0.49h-3.53v3.8H161.72z"/>
		<path d="M180.1,391.42c-0.34-0.35-0.51-0.9-0.51-1.63v-17.21h-5.47c-0.81,0-1.36-0.17-1.65-0.51c-0.29-0.34-0.44-0.89-0.44-1.65
			v-2.13c0-0.76,0.15-1.31,0.44-1.65s0.84-0.51,1.65-0.51h20.06c0.81,0,1.36,0.17,1.65,0.51s0.44,0.89,0.44,1.65v2.13
			c0,0.76-0.15,1.31-0.44,1.65c-0.29,0.34-0.84,0.51-1.65,0.51h-5.47v17.21c0,0.74-0.17,1.28-0.51,1.63
			c-0.34,0.36-0.94,0.53-1.8,0.53h-4.52C181.03,391.95,180.44,391.78,180.1,391.42z"/>
		<path d="M197.92,391.42c-0.34-0.35-0.51-0.9-0.51-1.63v-21.51c0-0.74,0.17-1.28,0.51-1.63c0.34-0.36,0.93-0.53,1.77-0.53h15.73
			c0.81,0,1.36,0.17,1.65,0.51c0.29,0.34,0.44,0.89,0.44,1.65v2.13c0,0.76-0.15,1.31-0.44,1.65c-0.29,0.34-0.84,0.51-1.65,0.51
			h-8.89v3.27H212c0.81,0,1.36,0.17,1.65,0.51c0.29,0.34,0.44,0.89,0.44,1.65v2.05c0,0.76-0.15,1.31-0.44,1.65
			c-0.29,0.34-0.84,0.51-1.65,0.51h-5.47v3.27h8.85c0.81,0,1.36,0.17,1.65,0.51s0.44,0.89,0.44,1.65v2.13
			c0,0.76-0.15,1.31-0.44,1.65c-0.29,0.34-0.84,0.51-1.65,0.51h-15.69C198.85,391.95,198.26,391.78,197.92,391.42z"/>
		<path d="M219.73,391.42c-0.34-0.35-0.51-0.9-0.51-1.63v-21.55c0-0.73,0.17-1.27,0.51-1.62c0.34-0.34,0.94-0.51,1.81-0.51h3.61
			c0.53,0,0.94,0.07,1.23,0.21s0.58,0.41,0.86,0.82l6.88,10.22v-9.08c0-0.74,0.17-1.28,0.51-1.63c0.34-0.36,0.93-0.53,1.77-0.53
			h4.52c0.86,0,1.46,0.17,1.8,0.51s0.51,0.89,0.51,1.65v21.55c0,0.74-0.17,1.27-0.51,1.62c-0.34,0.34-0.94,0.51-1.8,0.51h-3.61
			c-0.53,0-0.94-0.07-1.24-0.21c-0.29-0.14-0.58-0.41-0.85-0.82l-6.88-10.22v9.12c0,0.74-0.17,1.27-0.51,1.62
			c-0.34,0.34-0.94,0.51-1.81,0.51h-4.52C220.66,391.95,220.07,391.78,219.73,391.42z"/>
		<path d="M246.4,391.42c-0.34-0.35-0.51-0.9-0.51-1.63v-21.51c0-0.74,0.17-1.28,0.51-1.63c0.34-0.36,0.93-0.53,1.77-0.53h15.73
			c0.81,0,1.36,0.17,1.65,0.51s0.44,0.89,0.44,1.65v2.13c0,0.76-0.15,1.31-0.44,1.65c-0.29,0.34-0.84,0.51-1.65,0.51h-8.89v3.27
			h5.47c0.81,0,1.36,0.17,1.65,0.51c0.29,0.34,0.44,0.89,0.44,1.65v2.05c0,0.76-0.15,1.31-0.44,1.65s-0.84,0.51-1.65,0.51h-5.47
			v3.27h8.85c0.81,0,1.36,0.17,1.65,0.51c0.29,0.34,0.44,0.89,0.44,1.65v2.13c0,0.76-0.15,1.31-0.44,1.65
			c-0.29,0.34-0.84,0.51-1.65,0.51h-15.69C247.34,391.95,246.75,391.78,246.4,391.42z"/>
		<path d="M268.22,391.42c-0.34-0.35-0.51-0.9-0.51-1.63v-21.51c0-0.74,0.17-1.28,0.51-1.63c0.34-0.36,0.93-0.53,1.77-0.53h9.08
			c3.8,0,6.57,0.75,8.3,2.26c1.73,1.51,2.6,3.78,2.6,6.82c0,1.82-0.31,3.36-0.93,4.62s-1.58,2.24-2.87,2.94l3.53,7.56
			c0.1,0.2,0.15,0.43,0.15,0.68c0,0.28-0.09,0.51-0.28,0.68c-0.19,0.18-0.44,0.27-0.74,0.27h-6.42c-0.41,0-0.73-0.06-0.97-0.17
			c-0.24-0.11-0.41-0.31-0.51-0.59l-2.81-7.07h-1.29v5.66c0,0.74-0.17,1.28-0.51,1.63c-0.34,0.36-0.94,0.53-1.8,0.53h-4.52
			C269.15,391.95,268.56,391.78,268.22,391.42z M278.27,377.78c0.81,0,1.45-0.21,1.92-0.65c0.47-0.43,0.7-1.08,0.7-1.94
			c0-0.89-0.24-1.54-0.7-1.98c-0.47-0.43-1.11-0.65-1.92-0.65h-2.58v5.21H278.27z"/>
		<path d="M112.19,437.02c-0.34-0.35-0.51-0.9-0.51-1.63v-21.51c0-0.73,0.17-1.28,0.51-1.63c0.34-0.35,0.93-0.53,1.77-0.53h9.08
			c3.8,0,6.57,0.75,8.3,2.26c1.74,1.51,2.6,3.78,2.6,6.82c0,1.82-0.31,3.36-0.93,4.62s-1.58,2.24-2.87,2.94l3.54,7.56
			c0.1,0.2,0.15,0.43,0.15,0.68c0,0.28-0.09,0.51-0.28,0.68c-0.19,0.18-0.44,0.27-0.74,0.27h-6.42c-0.41,0-0.73-0.06-0.97-0.17
			s-0.41-0.31-0.51-0.59l-2.81-7.07h-1.29v5.66c0,0.74-0.17,1.28-0.51,1.63c-0.34,0.36-0.94,0.53-1.81,0.53h-4.52
			C113.12,437.55,112.53,437.38,112.19,437.02z M122.24,423.38c0.81,0,1.45-0.21,1.92-0.65c0.47-0.43,0.7-1.08,0.7-1.94
			c0-0.89-0.23-1.54-0.7-1.98c-0.47-0.43-1.11-0.65-1.92-0.65h-2.58v5.21H122.24z"/>
		<path d="M136.36,437.02c-0.34-0.35-0.51-0.9-0.51-1.63v-21.51c0-0.73,0.17-1.28,0.51-1.63s0.93-0.53,1.77-0.53h15.73
			c0.81,0,1.36,0.17,1.65,0.51s0.44,0.89,0.44,1.65v2.13c0,0.76-0.15,1.31-0.44,1.65c-0.29,0.34-0.84,0.51-1.65,0.51h-8.89v3.27
			h5.47c0.81,0,1.36,0.17,1.65,0.51c0.29,0.34,0.44,0.89,0.44,1.65v2.05c0,0.76-0.15,1.31-0.44,1.65s-0.84,0.51-1.65,0.51h-5.47
			v3.27h8.85c0.81,0,1.36,0.17,1.65,0.51c0.29,0.34,0.44,0.89,0.44,1.65v2.13c0,0.76-0.15,1.31-0.44,1.65
			c-0.29,0.34-0.84,0.51-1.65,0.51h-15.69C137.29,437.55,136.7,437.38,136.36,437.02z"/>
		<path d="M158.17,437.02c-0.34-0.35-0.51-0.9-0.51-1.63v-21.51c0-0.73,0.17-1.28,0.51-1.63c0.34-0.35,0.93-0.53,1.77-0.53h9.08
			c3.8,0,6.57,0.75,8.3,2.26c1.74,1.51,2.6,3.78,2.6,6.82s-0.87,5.31-2.6,6.8c-1.74,1.5-4.49,2.24-8.26,2.24h-2.28v5.55
			c0,0.74-0.17,1.28-0.51,1.63c-0.34,0.36-0.94,0.53-1.81,0.53h-4.52C159.1,437.55,158.51,437.38,158.17,437.02z M168.22,423.38
			c0.81,0,1.45-0.21,1.92-0.65c0.47-0.43,0.7-1.08,0.7-1.94c0-0.89-0.23-1.54-0.7-1.98c-0.47-0.43-1.11-0.65-1.92-0.65h-2.58v5.21
			H168.22z"/>
		<path d="M182.85,434.61c-2.33-2.34-3.5-5.67-3.5-9.97s1.17-7.63,3.5-9.97c2.33-2.34,5.75-3.52,10.26-3.52
			c4.51,0,7.93,1.17,10.26,3.52c2.33,2.34,3.5,5.67,3.5,9.97s-1.17,7.63-3.5,9.97c-2.33,2.34-5.75,3.52-10.26,3.52
			C188.6,438.12,185.18,436.95,182.85,434.61z M196.68,429.97c0.73-1.18,1.1-2.96,1.1-5.34c0-2.41-0.37-4.19-1.1-5.36
			c-0.73-1.17-1.92-1.75-3.57-1.75c-1.65,0-2.84,0.58-3.57,1.75c-0.74,1.17-1.1,2.95-1.1,5.36c0,2.38,0.37,4.16,1.1,5.34
			c0.73,1.18,1.92,1.77,3.57,1.77C194.76,431.74,195.95,431.15,196.68,429.97z"/>
		<path d="M209.28,437.02c-0.34-0.35-0.51-0.9-0.51-1.63v-21.51c0-0.73,0.17-1.28,0.51-1.63s0.93-0.53,1.77-0.53h9.08
			c3.8,0,6.57,0.75,8.3,2.26c1.73,1.51,2.6,3.78,2.6,6.82c0,1.82-0.31,3.36-0.93,4.62s-1.58,2.24-2.87,2.94l3.53,7.56
			c0.1,0.2,0.15,0.43,0.15,0.68c0,0.28-0.09,0.51-0.28,0.68c-0.19,0.18-0.44,0.27-0.74,0.27h-6.42c-0.41,0-0.73-0.06-0.97-0.17
			c-0.24-0.11-0.41-0.31-0.51-0.59l-2.81-7.07h-1.29v5.66c0,0.74-0.17,1.28-0.51,1.63c-0.34,0.36-0.94,0.53-1.8,0.53h-4.52
			C210.21,437.55,209.62,437.38,209.28,437.02z M219.33,423.38c0.81,0,1.45-0.21,1.92-0.65c0.47-0.43,0.7-1.08,0.7-1.94
			c0-0.89-0.24-1.54-0.7-1.98c-0.47-0.43-1.11-0.65-1.92-0.65h-2.58v5.21H219.33z"/>
		<path d="M238.16,437.02c-0.34-0.35-0.51-0.9-0.51-1.63v-17.21h-5.47c-0.81,0-1.36-0.17-1.65-0.51c-0.29-0.34-0.44-0.89-0.44-1.65
			v-2.13c0-0.76,0.15-1.31,0.44-1.65s0.84-0.51,1.65-0.51h20.06c0.81,0,1.36,0.17,1.65,0.51c0.29,0.34,0.44,0.89,0.44,1.65v2.13
			c0,0.76-0.15,1.31-0.44,1.65c-0.29,0.34-0.84,0.51-1.65,0.51h-5.47v17.21c0,0.74-0.17,1.28-0.51,1.63
			c-0.34,0.36-0.94,0.53-1.81,0.53h-4.52C239.09,437.55,238.5,437.38,238.16,437.02z"/>
		<path d="M255.98,437.02c-0.34-0.35-0.51-0.9-0.51-1.63v-21.51c0-0.73,0.17-1.28,0.51-1.63s0.93-0.53,1.77-0.53h15.73
			c0.81,0,1.36,0.17,1.65,0.51s0.44,0.89,0.44,1.65v2.13c0,0.76-0.15,1.31-0.44,1.65c-0.29,0.34-0.84,0.51-1.65,0.51h-8.89v3.27
			h5.47c0.81,0,1.36,0.17,1.65,0.51c0.29,0.34,0.44,0.89,0.44,1.65v2.05c0,0.76-0.15,1.31-0.44,1.65s-0.84,0.51-1.65,0.51h-5.47
			v3.27h8.85c0.81,0,1.36,0.17,1.65,0.51c0.29,0.34,0.44,0.89,0.44,1.65v2.13c0,0.76-0.15,1.31-0.44,1.65
			c-0.29,0.34-0.84,0.51-1.65,0.51h-15.69C256.91,437.55,256.32,437.38,255.98,437.02z"/>
		<path d="M282.11,437.4c-1.98-0.48-3.57-1.15-4.79-2.01c-0.51-0.35-0.76-0.7-0.76-1.03c0-0.23,0.09-0.47,0.27-0.72l2.2-3.46
			c0.23-0.33,0.46-0.49,0.68-0.49c0.2,0,0.44,0.09,0.72,0.27c0.91,0.56,1.96,0.99,3.13,1.31c1.18,0.32,2.32,0.47,3.44,0.47
			c0.94,0,1.62-0.13,2.03-0.38c0.42-0.25,0.63-0.65,0.63-1.18c0-0.58-0.28-1.05-0.84-1.41c-0.56-0.35-1.52-0.8-2.89-1.33
			c-2.56-0.99-4.57-2.11-6.04-3.36c-1.47-1.25-2.21-2.92-2.21-5c0-2.63,0.92-4.62,2.76-5.95c1.84-1.33,4.31-2,7.43-2
			c2.18,0,4.03,0.19,5.57,0.57c1.53,0.38,2.87,0.98,4.01,1.79c0.51,0.35,0.76,0.7,0.76,1.03c0,0.23-0.09,0.47-0.27,0.72l-2.2,3.46
			c-0.23,0.35-0.46,0.53-0.68,0.53c-0.15,0-0.39-0.1-0.72-0.3c-0.61-0.41-1.33-0.74-2.17-1.01s-1.74-0.4-2.7-0.4
			c-0.89,0-1.56,0.13-2.01,0.38c-0.46,0.25-0.68,0.66-0.68,1.22c0,0.46,0.16,0.84,0.48,1.14c0.32,0.3,0.72,0.56,1.2,0.78
			c0.48,0.21,1.32,0.56,2.51,1.04c1.9,0.76,3.39,1.49,4.48,2.18c1.09,0.7,1.91,1.53,2.47,2.51c0.56,0.98,0.84,2.21,0.84,3.71
			c0,2.28-0.86,4.12-2.57,5.53s-4.26,2.11-7.66,2.11C286.22,438.12,284.08,437.88,282.11,437.4z"/>
		<path d="M102.14,482.62c-0.34-0.35-0.51-0.9-0.51-1.63v-6.88l-8.85-15.16c-0.15-0.28-0.23-0.54-0.23-0.8
			c0-0.56,0.29-0.84,0.87-0.84h7.14c0.38,0,0.67,0.08,0.87,0.25s0.41,0.42,0.61,0.78l4.14,7.45l4.14-7.45
			c0.2-0.35,0.4-0.61,0.61-0.78s0.49-0.25,0.88-0.25h7.14c0.58,0,0.87,0.28,0.87,0.84c0,0.25-0.08,0.52-0.23,0.8l-8.85,15.16v6.88
			c0,0.74-0.17,1.28-0.51,1.63c-0.34,0.36-0.94,0.53-1.8,0.53h-4.52C103.07,483.15,102.48,482.98,102.14,482.62z"/>
		<path d="M133.68,482.62c-0.34-0.35-0.51-0.9-0.51-1.63v-21.55c0-0.73,0.17-1.27,0.51-1.62c0.34-0.34,0.94-0.51,1.81-0.51h4.37
			c0.56,0,1,0.07,1.33,0.21c0.33,0.14,0.58,0.41,0.76,0.82l4.45,11.13l4.45-11.13c0.18-0.4,0.43-0.68,0.76-0.82
			c0.33-0.14,0.77-0.21,1.33-0.21h4.37c0.86,0,1.46,0.17,1.81,0.51c0.34,0.34,0.51,0.88,0.51,1.62v21.55c0,0.74-0.17,1.28-0.51,1.63
			c-0.34,0.36-0.93,0.53-1.77,0.53h-3.65c-0.84,0-1.43-0.18-1.79-0.53c-0.35-0.35-0.53-0.9-0.53-1.63v-10.37l-2.24,5.17
			c-0.3,0.74-0.63,1.26-0.99,1.58c-0.35,0.32-0.94,0.47-1.75,0.47c-0.81,0-1.39-0.16-1.75-0.47c-0.35-0.32-0.68-0.84-0.99-1.58
			l-2.24-5.17v10.37c0,0.74-0.17,1.28-0.51,1.63c-0.34,0.36-0.94,0.53-1.8,0.53h-3.65C134.61,483.15,134.02,482.98,133.68,482.62z"
			/>
		<path d="M162.79,482.62c-0.34-0.35-0.51-0.9-0.51-1.63v-21.51c0-0.73,0.17-1.28,0.51-1.63c0.34-0.35,0.93-0.53,1.77-0.53h15.73
			c0.81,0,1.36,0.17,1.65,0.51c0.29,0.34,0.44,0.89,0.44,1.65v2.13c0,0.76-0.15,1.31-0.44,1.65c-0.29,0.34-0.84,0.51-1.65,0.51
			h-8.89v3.27h5.47c0.81,0,1.36,0.17,1.65,0.51c0.29,0.34,0.44,0.89,0.44,1.65v2.05c0,0.76-0.15,1.31-0.44,1.65
			c-0.29,0.34-0.84,0.51-1.65,0.51h-5.47v3.27h8.85c0.81,0,1.36,0.17,1.65,0.51s0.44,0.89,0.44,1.65v2.13
			c0,0.76-0.15,1.31-0.44,1.65c-0.29,0.34-0.84,0.51-1.65,0.51h-15.7C163.72,483.15,163.13,482.98,162.79,482.62z"/>
		<path d="M190.64,482.62c-0.34-0.35-0.51-0.9-0.51-1.63v-17.21h-5.47c-0.81,0-1.36-0.17-1.65-0.51c-0.29-0.34-0.44-0.89-0.44-1.65
			v-2.13c0-0.76,0.15-1.31,0.44-1.65s0.84-0.51,1.65-0.51h20.06c0.81,0,1.36,0.17,1.65,0.51c0.29,0.34,0.44,0.89,0.44,1.65v2.13
			c0,0.76-0.15,1.31-0.44,1.65c-0.29,0.34-0.84,0.51-1.65,0.51h-5.47v17.21c0,0.74-0.17,1.28-0.51,1.63
			c-0.34,0.36-0.94,0.53-1.81,0.53h-4.52C191.57,483.15,190.98,482.98,190.64,482.62z"/>
		<path d="M208.46,482.62c-0.34-0.35-0.51-0.9-0.51-1.63v-21.51c0-0.73,0.17-1.28,0.51-1.63c0.34-0.35,0.93-0.53,1.77-0.53h9.08
			c3.8,0,6.57,0.75,8.3,2.26c1.74,1.51,2.6,3.78,2.6,6.82c0,1.82-0.31,3.36-0.93,4.62s-1.58,2.24-2.87,2.94l3.54,7.56
			c0.1,0.2,0.15,0.43,0.15,0.68c0,0.28-0.09,0.51-0.28,0.68c-0.19,0.18-0.44,0.27-0.74,0.27h-6.42c-0.41,0-0.73-0.06-0.97-0.17
			s-0.41-0.31-0.51-0.59l-2.81-7.07h-1.29v5.66c0,0.74-0.17,1.28-0.51,1.63c-0.34,0.36-0.94,0.53-1.81,0.53h-4.52
			C209.39,483.15,208.8,482.98,208.46,482.62z M218.51,468.98c0.81,0,1.45-0.21,1.92-0.65c0.47-0.43,0.7-1.08,0.7-1.94
			c0-0.89-0.23-1.54-0.7-1.98c-0.47-0.43-1.11-0.65-1.92-0.65h-2.58v5.21H218.51z"/>
		<path d="M232.63,482.62c-0.34-0.35-0.51-0.9-0.51-1.63v-21.51c0-0.73,0.17-1.28,0.51-1.63s0.93-0.53,1.77-0.53h4.52
			c0.86,0,1.46,0.17,1.8,0.51s0.51,0.89,0.51,1.65v21.51c0,0.74-0.17,1.28-0.51,1.63c-0.34,0.36-0.94,0.53-1.8,0.53h-4.52
			C233.56,483.15,232.97,482.98,232.63,482.62z"/>
		<path d="M246.97,480.32c-2.56-2.27-3.84-5.63-3.84-10.09c0-4.48,1.24-7.85,3.71-10.11c2.47-2.25,6-3.38,10.58-3.38
			c2.08,0,3.93,0.2,5.55,0.61s2.98,0.98,4.07,1.71c0.3,0.23,0.46,0.48,0.46,0.76c0,0.23-0.11,0.54-0.34,0.95l-1.9,3.27
			c-0.2,0.36-0.44,0.53-0.72,0.53c-0.18,0-0.47-0.1-0.87-0.3c-0.71-0.35-1.45-0.63-2.22-0.84c-0.77-0.2-1.68-0.3-2.72-0.3
			c-2.1,0-3.71,0.61-4.83,1.82c-1.12,1.22-1.67,2.98-1.67,5.28c0,2.28,0.61,4.03,1.82,5.26c1.22,1.23,2.88,1.84,4.98,1.84
			c1.82,0,3.5-0.38,5.02-1.14c0.41-0.2,0.7-0.3,0.87-0.3c0.28,0,0.52,0.18,0.72,0.53l1.9,3.27c0.23,0.41,0.34,0.72,0.34,0.95
			c0,0.28-0.15,0.53-0.46,0.76c-1.09,0.74-2.46,1.3-4.1,1.71c-1.65,0.41-3.51,0.61-5.59,0.61
			C253.12,483.72,249.53,482.59,246.97,480.32z"/>
		<path d="M268.06,482.35c0-0.23,0.06-0.51,0.19-0.84l9.46-22.76c0.23-0.53,0.49-0.91,0.78-1.12c0.29-0.22,0.7-0.32,1.24-0.32h4.14
			c0.53,0,0.94,0.11,1.24,0.32c0.29,0.21,0.55,0.59,0.78,1.12l9.42,22.76c0.13,0.33,0.19,0.61,0.19,0.84c0,0.53-0.28,0.8-0.84,0.8
			h-7.14c-0.79,0-1.28-0.34-1.48-1.03l-0.91-2.81h-6.73l-0.87,2.81c-0.2,0.68-0.7,1.03-1.48,1.03h-7.14
			C268.34,483.15,268.06,482.89,268.06,482.35z M283.26,473.31l-1.48-4.71l-1.48,4.71H283.26z"/>
		<path d="M300.52,483c-1.97-0.48-3.57-1.15-4.79-2.01c-0.51-0.35-0.76-0.7-0.76-1.03c0-0.23,0.09-0.47,0.27-0.72l2.2-3.46
			c0.23-0.33,0.46-0.49,0.68-0.49c0.2,0,0.44,0.09,0.72,0.27c0.91,0.56,1.96,0.99,3.14,1.31c1.18,0.32,2.32,0.47,3.44,0.47
			c0.94,0,1.62-0.13,2.03-0.38c0.42-0.25,0.63-0.65,0.63-1.18c0-0.58-0.28-1.05-0.84-1.41c-0.56-0.35-1.52-0.8-2.89-1.33
			c-2.56-0.99-4.57-2.11-6.04-3.36c-1.47-1.25-2.2-2.92-2.2-5c0-2.63,0.92-4.62,2.75-5.95c1.84-1.33,4.31-2,7.43-2
			c2.18,0,4.03,0.19,5.57,0.57c1.53,0.38,2.87,0.98,4.01,1.79c0.51,0.35,0.76,0.7,0.76,1.03c0,0.23-0.09,0.47-0.27,0.72l-2.2,3.46
			c-0.23,0.35-0.46,0.53-0.68,0.53c-0.15,0-0.39-0.1-0.72-0.3c-0.61-0.41-1.33-0.74-2.17-1.01s-1.74-0.4-2.7-0.4
			c-0.89,0-1.56,0.13-2.01,0.38c-0.46,0.25-0.68,0.66-0.68,1.22c0,0.46,0.16,0.84,0.48,1.14c0.32,0.3,0.71,0.56,1.2,0.78
			s1.32,0.56,2.51,1.04c1.9,0.76,3.39,1.49,4.48,2.18c1.09,0.7,1.91,1.53,2.47,2.51c0.56,0.98,0.84,2.21,0.84,3.71
			c0,2.28-0.86,4.12-2.56,5.53c-1.71,1.41-4.26,2.11-7.66,2.11C304.63,483.72,302.49,483.48,300.52,483z"/>
	</g>
	<polygon class="st1" points="200.76,96.93 214.23,124.22 244.34,128.59 222.55,149.83 227.7,179.83 200.76,165.67 173.83,179.83 
		178.97,149.83 157.18,128.59 187.29,124.22 	"/>
	<polygon class="st1" points="138.58,180.15 147.32,197.86 166.86,200.7 152.72,214.48 156.06,233.94 138.58,224.75 121.11,233.94 
		124.45,214.48 110.31,200.7 129.85,197.86 	"/>
	<polygon class="st1" points="268.68,180.15 277.42,197.86 296.95,200.7 282.82,214.48 286.15,233.94 268.68,224.75 251.2,233.94 
		254.54,214.48 240.4,200.7 259.94,197.86 	"/>
	<circle class="st2" cx="201.77" cy="213.97" r="121.96"/>
	<circle class="st3" cx="200.82" cy="200.58" r="121.96"/>
	<g>
		<path class="st3" d="M183.41,643.85c-3.55-0.92-6.5-2.21-8.83-3.87c-0.58-0.44-0.88-0.92-0.88-1.46c0-0.44,0.22-1.05,0.66-1.83
			l3.65-6.28c0.44-0.73,0.9-1.1,1.39-1.1c0.24,0,0.8,0.22,1.68,0.66c3.55,2,7.69,2.99,12.41,2.99c2.38,0,4.26-0.51,5.62-1.53
			c1.36-1.02,2.04-2.53,2.04-4.53c0-3.89-2.09-5.84-6.28-5.84c-1.31,0-2.67,0.11-4.05,0.33c-1.39,0.22-2.54,0.5-3.47,0.84
			c-1.41,0.49-2.92,0.73-4.53,0.73c-2.24,0-4.05-0.54-5.44-1.61c-1.39-1.07-2.01-2.68-1.86-4.82l1.17-18.4
			c0.1-1.26,0.44-2.19,1.02-2.77s1.63-0.88,3.14-0.88h31.17c1.56,0,2.62,0.33,3.18,0.99c0.56,0.66,0.84,1.71,0.84,3.18v4.16
			c0,1.46-0.28,2.52-0.84,3.18c-0.56,0.66-1.62,0.99-3.18,0.99h-21.32l-0.22,3.5c0.78-0.19,1.93-0.35,3.47-0.47
			c1.53-0.12,2.76-0.18,3.69-0.18c6.67,0,11.83,1.3,15.48,3.91s5.48,7,5.48,13.18c0,3.8-1.04,7.08-3.1,9.85s-4.92,4.88-8.54,6.31
			c-3.63,1.43-7.73,2.15-12.3,2.15C190.71,645.24,186.96,644.77,183.41,643.85z"/>
	</g>
	<g>
		<rect x="127" y="178.15" class="st36" width="44.28" height="63.88"/>
		<rect x="177.55" y="137" class="st37" width="44.28" height="105.03"/>
		<rect x="227.72" y="155.42" class="st38" width="44.28" height="87"/>
	</g>
</g>
</svg>
