<?xml version="1.0" encoding="utf-8"?>
<!-- Generator: Adobe Illustrator 23.0.0, SVG Export Plug-In . SVG Version: 6.00 Build 0)  -->
<svg version="1.1" id="Capa_1" xmlns="http://www.w3.org/2000/svg" xmlns:xlink="http://www.w3.org/1999/xlink" x="0px" y="0px"
	 viewBox="0 0 400 702" style="enable-background:new 0 0 400 702;" xml:space="preserve">
<style type="text/css">
	.st0{fill:#00D13C;}
	.st1{fill:#E0EF18;}
	.st2{fill:#CECECE;}
	.st3{fill:#FFFFFF;}
	.st4{fill:#0085B0;}
	.st5{fill:#F2F2F2;}
	.st6{fill:#EACCB0;}
	.st7{fill:#9B9B9B;}
	.st8{fill:#939393;}
	.st9{fill:#EFEFEF;}
	.st10{fill:#828282;}
	.st11{fill:#2C2A2D;}
	.st12{fill:#202021;}
	.st13{fill:#F2D4B6;}
	.st14{fill:#534D46;}
	.st15{fill:#E8D313;}
	.st16{fill:#2ACCFF;}
	.st17{fill:#4E4F4F;}
	.st18{fill:#003A94;}
	.st19{fill:#15682A;}
	.st20{fill:#D40000;}
	.st21{fill:#505050;}
	.st22{fill:none;}
	.st23{fill:#636363;}
	.st24{fill:#DFDFDF;}
	.st25{fill:#6C92D5;}
	.st26{fill:#22272F;}
	.st27{fill:#1B2538;}
	.st28{fill:#253452;}
	.st29{fill:#F9F9F9;}
	.st30{fill:#2D3543;}
	.st31{fill:#2A3D60;}
	.st32{fill:#587955;}
	.st33{fill:#CD7054;}
	.st34{fill:#F1CC4B;}
	.st35{fill:#ACACAC;}
	.st36{fill:#AAE528;}
	.st37{fill:#28CEBA;}
	.st38{fill:#DB143F;}
	.st39{opacity:0.7;fill:#7F7F7F;}
	.st40{fill:#FDFDFD;}
	.st41{fill:#DAA449;}
	.st42{fill:#DD9225;}
	.st43{opacity:0.3;}
	.st44{fill:#53C2C9;}
	.st45{fill:#FFB412;}
	.st46{fill:#866A5E;}
	.st47{fill:#F7DDCB;}
	.st48{fill:#FFE6D4;}
	.st49{fill:#F5F5F5;}
	.st50{fill:#1A2830;}
	.st51{fill:#24353F;}
	.st52{fill:#132026;}
	.st53{fill:#F9FF03;}
	.st54{fill:#272728;}
	.st55{fill:#1E1D1E;}
	.st56{fill:#160423;}
	.st57{fill-rule:evenodd;clip-rule:evenodd;fill:#FFFFFF;}
	.st58{fill-rule:evenodd;clip-rule:evenodd;fill:#1996B8;}
	.st59{fill:#0C387D;}
	.st60{fill:#C69A81;}
	.st61{fill:#D1A385;}
	.st62{fill:#EAEAEA;}
	.st63{fill:#093E8C;}
	.st64{fill:#0B2A62;}
	.st65{fill:#D32A3B;}
	.st66{fill:#827C7D;}
</style>
<g>
	<g>
		<path class="st0" d="M9.5,209.36c0,22,13.29,27.86,29.54,13.03c0,0,156.99-143.3,353.09,26.97V55c0-22-18-40-40-40H49.5
			c-22,0-40,18-40,40V209.36z"/>
	</g>
	<g>
		<path class="st0" d="M391.66,647c0,22-18,40-40,40H49.98c-22,0-40-18-40-40v-46.27c0-22,18-40,40-40h301.68c22,0,40,18,40,40V647z
			"/>
	</g>
	<g>
		<path d="M101.82,389.12c-2.56-2.27-3.84-5.63-3.84-10.09c0-4.43,1.28-7.79,3.84-10.07c2.56-2.28,6.13-3.42,10.72-3.42
			c2.08,0,3.94,0.2,5.59,0.61c1.65,0.41,3.01,0.97,4.1,1.71c0.3,0.23,0.46,0.48,0.46,0.76c0,0.23-0.11,0.54-0.34,0.95l-1.9,3.27
			c-0.2,0.36-0.44,0.53-0.72,0.53c-0.18,0-0.47-0.1-0.87-0.3c-1.52-0.76-3.19-1.14-5.02-1.14c-2.1,0-3.76,0.6-4.96,1.81
			c-1.2,1.2-1.81,2.97-1.81,5.3c0,2.41,0.51,4.19,1.52,5.34c1.01,1.15,2.52,1.73,4.52,1.73c0.35,0,0.75-0.03,1.2-0.1
			c0.44-0.06,0.8-0.13,1.08-0.21v-3.46h-2.43c-0.81,0-1.36-0.16-1.65-0.47c-0.29-0.32-0.44-0.86-0.44-1.62v-2.09
			c0-0.76,0.15-1.3,0.44-1.62c0.29-0.32,0.84-0.47,1.65-0.47h8.17c0.99,0,1.67,0.22,2.05,0.67c0.38,0.44,0.57,1.15,0.57,2.11v8.89
			c0,0.56-0.07,0.98-0.21,1.27c-0.14,0.29-0.41,0.59-0.82,0.89c-2.43,1.75-5.81,2.62-10.15,2.62
			C107.96,392.52,104.37,391.39,101.82,389.12z"/>
		<path d="M126.15,391.42c-0.34-0.35-0.51-0.9-0.51-1.63v-21.51c0-0.74,0.17-1.28,0.51-1.63c0.34-0.36,0.93-0.53,1.77-0.53h15.73
			c0.81,0,1.36,0.17,1.65,0.51c0.29,0.34,0.44,0.89,0.44,1.65v2.13c0,0.76-0.15,1.31-0.44,1.65c-0.29,0.34-0.84,0.51-1.65,0.51
			h-8.89v3.27h5.47c0.81,0,1.36,0.17,1.65,0.51c0.29,0.34,0.44,0.89,0.44,1.65v2.05c0,0.76-0.15,1.31-0.44,1.65
			c-0.29,0.34-0.84,0.51-1.65,0.51h-5.47v3.27h8.85c0.81,0,1.36,0.17,1.65,0.51c0.29,0.34,0.44,0.89,0.44,1.65v2.13
			c0,0.76-0.15,1.31-0.44,1.65c-0.29,0.34-0.84,0.51-1.65,0.51h-15.69C127.09,391.95,126.5,391.78,126.15,391.42z"/>
		<path d="M152.28,391.8c-1.98-0.48-3.57-1.15-4.79-2.01c-0.51-0.35-0.76-0.7-0.76-1.03c0-0.23,0.09-0.47,0.27-0.72l2.2-3.46
			c0.23-0.33,0.46-0.49,0.68-0.49c0.2,0,0.44,0.09,0.72,0.27c0.91,0.56,1.96,0.99,3.14,1.31c1.18,0.32,2.32,0.47,3.44,0.47
			c0.94,0,1.61-0.13,2.03-0.38c0.42-0.25,0.63-0.65,0.63-1.18c0-0.58-0.28-1.05-0.84-1.41c-0.56-0.35-1.52-0.8-2.89-1.33
			c-2.56-0.99-4.57-2.11-6.04-3.36c-1.47-1.25-2.2-2.92-2.2-5c0-2.63,0.92-4.62,2.75-5.95c1.84-1.33,4.31-2,7.43-2
			c2.18,0,4.03,0.19,5.57,0.57c1.53,0.38,2.87,0.98,4.01,1.79c0.51,0.36,0.76,0.7,0.76,1.03c0,0.23-0.09,0.47-0.27,0.72l-2.2,3.46
			c-0.23,0.35-0.46,0.53-0.68,0.53c-0.15,0-0.39-0.1-0.72-0.3c-0.61-0.41-1.33-0.74-2.17-1.01s-1.74-0.4-2.7-0.4
			c-0.89,0-1.56,0.13-2.01,0.38c-0.46,0.25-0.68,0.66-0.68,1.22c0,0.46,0.16,0.84,0.48,1.14c0.32,0.3,0.72,0.56,1.2,0.78
			c0.48,0.21,1.32,0.56,2.51,1.04c1.9,0.76,3.39,1.49,4.48,2.18c1.09,0.7,1.91,1.53,2.47,2.51c0.56,0.98,0.84,2.21,0.84,3.71
			c0,2.28-0.85,4.12-2.56,5.53s-4.26,2.11-7.66,2.11C156.4,392.52,154.26,392.28,152.28,391.8z"/>
		<path d="M176.43,391.42c-0.34-0.35-0.51-0.9-0.51-1.63v-17.21h-5.47c-0.81,0-1.36-0.17-1.65-0.51c-0.29-0.34-0.44-0.89-0.44-1.65
			v-2.13c0-0.76,0.15-1.31,0.44-1.65s0.84-0.51,1.65-0.51h20.06c0.81,0,1.36,0.17,1.65,0.51c0.29,0.34,0.44,0.89,0.44,1.65v2.13
			c0,0.76-0.15,1.31-0.44,1.65c-0.29,0.34-0.84,0.51-1.65,0.51h-5.47v17.21c0,0.74-0.17,1.28-0.51,1.63
			c-0.34,0.36-0.94,0.53-1.81,0.53h-4.52C177.36,391.95,176.77,391.78,176.43,391.42z"/>
		<path d="M194.25,391.42c-0.34-0.35-0.51-0.9-0.51-1.63v-21.51c0-0.74,0.17-1.28,0.51-1.63c0.34-0.36,0.93-0.53,1.77-0.53h4.52
			c0.86,0,1.46,0.17,1.81,0.51s0.51,0.89,0.51,1.65v21.51c0,0.74-0.17,1.28-0.51,1.63c-0.34,0.36-0.94,0.53-1.81,0.53h-4.52
			C195.18,391.95,194.59,391.78,194.25,391.42z"/>
		<path d="M208.25,389.01c-2.33-2.34-3.5-5.67-3.5-9.97s1.17-7.63,3.5-9.98c2.33-2.34,5.75-3.51,10.26-3.51
			c4.51,0,7.93,1.17,10.26,3.51c2.33,2.34,3.5,5.67,3.5,9.98s-1.17,7.63-3.5,9.97c-2.33,2.34-5.75,3.52-10.26,3.52
			C214,392.52,210.58,391.35,208.25,389.01z M222.08,384.37c0.73-1.18,1.1-2.96,1.1-5.34c0-2.41-0.37-4.19-1.1-5.36
			c-0.73-1.17-1.93-1.75-3.57-1.75c-1.65,0-2.84,0.58-3.57,1.75c-0.73,1.17-1.1,2.95-1.1,5.36c0,2.38,0.37,4.16,1.1,5.34
			c0.73,1.18,1.92,1.77,3.57,1.77C220.16,386.14,221.35,385.55,222.08,384.37z"/>
		<path d="M234.68,391.42c-0.34-0.35-0.51-0.9-0.51-1.63v-21.55c0-0.73,0.17-1.27,0.51-1.62c0.34-0.34,0.94-0.51,1.81-0.51h3.61
			c0.53,0,0.94,0.07,1.24,0.21c0.29,0.14,0.58,0.41,0.85,0.82l6.88,10.22v-9.08c0-0.74,0.17-1.28,0.51-1.63
			c0.34-0.36,0.93-0.53,1.77-0.53h4.52c0.86,0,1.46,0.17,1.81,0.51s0.51,0.89,0.51,1.65v21.55c0,0.74-0.17,1.27-0.51,1.62
			c-0.34,0.34-0.94,0.51-1.81,0.51h-3.61c-0.53,0-0.94-0.07-1.23-0.21c-0.29-0.14-0.58-0.41-0.85-0.82l-6.88-10.22v9.12
			c0,0.74-0.17,1.27-0.51,1.62c-0.34,0.34-0.94,0.51-1.81,0.51h-4.52C235.61,391.95,235.02,391.78,234.68,391.42z"/>
		<path d="M260.08,391.15c0-0.23,0.06-0.51,0.19-0.84l9.46-22.76c0.23-0.53,0.49-0.91,0.78-1.12c0.29-0.21,0.7-0.32,1.23-0.32h4.14
			c0.53,0,0.94,0.11,1.23,0.32c0.29,0.21,0.55,0.59,0.78,1.12l9.42,22.76c0.13,0.33,0.19,0.61,0.19,0.84c0,0.53-0.28,0.8-0.84,0.8
			h-7.14c-0.79,0-1.28-0.34-1.48-1.03l-0.91-2.81h-6.73l-0.87,2.81c-0.2,0.68-0.7,1.03-1.48,1.03h-7.14
			C260.36,391.95,260.08,391.69,260.08,391.15z M275.28,382.11l-1.48-4.71l-1.48,4.71H275.28z"/>
		<path d="M289.93,391.42c-0.34-0.35-0.51-0.9-0.51-1.63v-21.51c0-0.74,0.17-1.28,0.51-1.63c0.34-0.36,0.93-0.53,1.77-0.53h9.08
			c3.8,0,6.57,0.75,8.3,2.26c1.73,1.51,2.6,3.78,2.6,6.82c0,1.82-0.31,3.36-0.93,4.62c-0.62,1.25-1.58,2.24-2.87,2.94l3.53,7.56
			c0.1,0.2,0.15,0.43,0.15,0.68c0,0.28-0.09,0.51-0.28,0.68c-0.19,0.18-0.44,0.27-0.74,0.27h-6.42c-0.41,0-0.73-0.06-0.97-0.17
			s-0.41-0.31-0.51-0.59l-2.81-7.07h-1.29v5.66c0,0.74-0.17,1.28-0.51,1.63c-0.34,0.36-0.94,0.53-1.81,0.53h-4.52
			C290.86,391.95,290.28,391.78,289.93,391.42z M299.98,377.78c0.81,0,1.45-0.21,1.92-0.65c0.47-0.43,0.7-1.08,0.7-1.94
			c0-0.89-0.23-1.54-0.7-1.98c-0.47-0.43-1.11-0.65-1.92-0.65h-2.58v5.21H299.98z"/>
		<path d="M128.3,437.02c-0.34-0.35-0.51-0.9-0.51-1.63v-17.21h-5.47c-0.81,0-1.36-0.17-1.65-0.51c-0.29-0.34-0.44-0.89-0.44-1.65
			v-2.13c0-0.76,0.15-1.31,0.44-1.65s0.84-0.51,1.65-0.51h20.06c0.81,0,1.36,0.17,1.65,0.51c0.29,0.34,0.44,0.89,0.44,1.65v2.13
			c0,0.76-0.15,1.31-0.44,1.65c-0.29,0.34-0.84,0.51-1.65,0.51h-5.47v17.21c0,0.74-0.17,1.28-0.51,1.63
			c-0.34,0.36-0.94,0.53-1.81,0.53h-4.52C129.23,437.55,128.64,437.38,128.3,437.02z"/>
		<path d="M151.35,436.92c-1.88-0.8-3.33-1.95-4.37-3.46c-1.04-1.51-1.56-3.3-1.56-5.38v-14.21c0-0.73,0.17-1.28,0.51-1.63
			c0.34-0.35,0.93-0.53,1.77-0.53h4.52c0.86,0,1.46,0.17,1.81,0.51c0.34,0.34,0.51,0.89,0.51,1.65v14.33c0,1.19,0.3,2.08,0.89,2.66
			c0.6,0.58,1.41,0.87,2.45,0.87c1.04,0,1.86-0.29,2.45-0.87c0.59-0.58,0.89-1.47,0.89-2.66v-14.33c0-0.73,0.17-1.28,0.51-1.63
			c0.34-0.35,0.93-0.53,1.77-0.53h4.52c0.86,0,1.46,0.17,1.81,0.51c0.34,0.34,0.51,0.89,0.51,1.65v14.21c0,2.08-0.52,3.87-1.56,5.38
			c-1.04,1.51-2.5,2.66-4.37,3.46c-1.88,0.8-4.05,1.2-6.54,1.2C155.4,438.12,153.22,437.72,151.35,436.92z"/>
		<path d="M184.73,437.02c-0.34-0.35-0.51-0.9-0.51-1.63v-21.51c0-0.73,0.17-1.28,0.51-1.63c0.34-0.35,0.93-0.53,1.77-0.53h11.51
			c3.09,0,5.36,0.66,6.82,1.98c1.46,1.32,2.19,3.19,2.19,5.62c0,1.14-0.25,2.15-0.74,3.02c-0.49,0.87-1.15,1.49-1.96,1.84
			c2.25,0.76,3.38,2.53,3.38,5.32c0,2.38-0.84,4.32-2.53,5.81c-1.69,1.5-4.16,2.24-7.43,2.24H186.5
			C185.66,437.55,185.07,437.38,184.73,437.02z M196.19,421.48c1.17,0,1.75-0.56,1.75-1.67c0-1.11-0.58-1.67-1.75-1.67h-2.89v3.34
			H196.19z M196.83,431.13c0.53,0,0.96-0.17,1.29-0.51c0.33-0.34,0.49-0.8,0.49-1.39c0-0.61-0.16-1.08-0.48-1.41
			c-0.32-0.33-0.75-0.49-1.31-0.49h-3.53v3.8H196.83z"/>
		<path d="M206.37,436.75c0-0.23,0.06-0.51,0.19-0.84l9.46-22.76c0.23-0.53,0.49-0.91,0.78-1.12c0.29-0.22,0.7-0.32,1.23-0.32h4.14
			c0.53,0,0.94,0.11,1.23,0.32c0.29,0.21,0.55,0.59,0.78,1.12l9.42,22.76c0.13,0.33,0.19,0.61,0.19,0.84c0,0.53-0.28,0.8-0.84,0.8
			h-7.14c-0.79,0-1.28-0.34-1.48-1.03l-0.91-2.81h-6.73l-0.87,2.81c-0.2,0.68-0.7,1.03-1.48,1.03h-7.14
			C206.65,437.55,206.37,437.29,206.37,436.75z M221.57,427.71l-1.48-4.71l-1.48,4.71H221.57z"/>
		<path d="M238.82,437.4c-1.98-0.48-3.57-1.15-4.79-2.01c-0.51-0.35-0.76-0.7-0.76-1.03c0-0.23,0.09-0.47,0.27-0.72l2.2-3.46
			c0.23-0.33,0.46-0.49,0.68-0.49c0.2,0,0.44,0.09,0.72,0.27c0.91,0.56,1.96,0.99,3.14,1.31c1.18,0.32,2.32,0.47,3.44,0.47
			c0.94,0,1.61-0.13,2.03-0.38c0.42-0.25,0.63-0.65,0.63-1.18c0-0.58-0.28-1.05-0.84-1.41c-0.56-0.35-1.52-0.8-2.89-1.33
			c-2.56-0.99-4.57-2.11-6.04-3.36c-1.47-1.25-2.2-2.92-2.2-5c0-2.63,0.92-4.62,2.75-5.95c1.84-1.33,4.31-2,7.43-2
			c2.18,0,4.03,0.19,5.57,0.57c1.53,0.38,2.87,0.98,4.01,1.79c0.51,0.35,0.76,0.7,0.76,1.03c0,0.23-0.09,0.47-0.27,0.72l-2.2,3.46
			c-0.23,0.35-0.46,0.53-0.68,0.53c-0.15,0-0.39-0.1-0.72-0.3c-0.61-0.41-1.33-0.74-2.17-1.01s-1.74-0.4-2.7-0.4
			c-0.89,0-1.56,0.13-2.01,0.38c-0.46,0.25-0.68,0.66-0.68,1.22c0,0.46,0.16,0.84,0.48,1.14c0.32,0.3,0.72,0.56,1.2,0.78
			c0.48,0.21,1.32,0.56,2.51,1.04c1.9,0.76,3.39,1.49,4.48,2.18c1.09,0.7,1.91,1.53,2.47,2.51c0.56,0.98,0.84,2.21,0.84,3.71
			c0,2.28-0.85,4.12-2.56,5.53s-4.26,2.11-7.66,2.11C242.94,438.12,240.8,437.88,238.82,437.4z"/>
		<path d="M257.88,437.02c-0.34-0.35-0.51-0.9-0.51-1.63v-21.51c0-0.73,0.17-1.28,0.51-1.63c0.34-0.35,0.93-0.53,1.77-0.53h15.73
			c0.81,0,1.36,0.17,1.65,0.51c0.29,0.34,0.44,0.89,0.44,1.65v2.13c0,0.76-0.15,1.31-0.44,1.65c-0.29,0.34-0.84,0.51-1.65,0.51
			h-8.89v3.27h5.47c0.81,0,1.36,0.17,1.65,0.51c0.29,0.34,0.44,0.89,0.44,1.65v2.05c0,0.76-0.15,1.31-0.44,1.65
			c-0.29,0.34-0.84,0.51-1.65,0.51h-5.47v3.27h8.85c0.81,0,1.36,0.17,1.65,0.51c0.29,0.34,0.44,0.89,0.44,1.65v2.13
			c0,0.76-0.15,1.31-0.44,1.65c-0.29,0.34-0.84,0.51-1.65,0.51h-15.69C258.81,437.55,258.22,437.38,257.88,437.02z"/>
		<path d="M116.45,482.62c-0.34-0.35-0.51-0.9-0.51-1.63v-21.51c0-0.73,0.17-1.28,0.51-1.63c0.34-0.35,0.93-0.53,1.77-0.53h8.74
			c8.94,0,13.41,4.31,13.41,12.92c0,4.26-1.15,7.47-3.44,9.65c-2.29,2.18-5.62,3.27-9.98,3.27h-8.74
			C117.38,483.15,116.79,482.98,116.45,482.62z M127.29,476.69c1.42,0,2.44-0.47,3.06-1.41c0.62-0.94,0.93-2.62,0.93-5.05
			s-0.31-4.12-0.93-5.05c-0.62-0.94-1.64-1.41-3.06-1.41h-2.24v12.92H127.29z"/>
		<path d="M142.78,482.62c-0.34-0.35-0.51-0.9-0.51-1.63v-21.51c0-0.73,0.17-1.28,0.51-1.63c0.34-0.35,0.93-0.53,1.77-0.53h15.73
			c0.81,0,1.36,0.17,1.65,0.51c0.29,0.34,0.44,0.89,0.44,1.65v2.13c0,0.76-0.15,1.31-0.44,1.65c-0.29,0.34-0.84,0.51-1.65,0.51
			h-8.89v3.27h5.47c0.81,0,1.36,0.17,1.65,0.51c0.29,0.34,0.44,0.89,0.44,1.65v2.05c0,0.76-0.15,1.31-0.44,1.65
			c-0.29,0.34-0.84,0.51-1.65,0.51h-5.47v3.27h8.85c0.81,0,1.36,0.17,1.65,0.51c0.29,0.34,0.44,0.89,0.44,1.65v2.13
			c0,0.76-0.15,1.31-0.44,1.65c-0.29,0.34-0.84,0.51-1.65,0.51h-15.69C143.71,483.15,143.12,482.98,142.78,482.62z"/>
		<path d="M175.99,482.62c-0.34-0.35-0.51-0.9-0.51-1.63v-21.51c0-0.73,0.17-1.28,0.51-1.63c0.34-0.35,0.93-0.53,1.77-0.53h8.74
			c8.94,0,13.41,4.31,13.41,12.92c0,4.26-1.15,7.47-3.44,9.65c-2.29,2.18-5.62,3.27-9.98,3.27h-8.74
			C176.92,483.15,176.33,482.98,175.99,482.62z M186.84,476.69c1.42,0,2.44-0.47,3.06-1.41c0.62-0.94,0.93-2.62,0.93-5.05
			s-0.31-4.12-0.93-5.05c-0.62-0.94-1.64-1.41-3.06-1.41h-2.24v12.92H186.84z"/>
		<path d="M199.34,482.35c0-0.23,0.06-0.51,0.19-0.84l9.46-22.76c0.23-0.53,0.49-0.91,0.78-1.12c0.29-0.22,0.7-0.32,1.23-0.32h4.14
			c0.53,0,0.94,0.11,1.23,0.32c0.29,0.21,0.55,0.59,0.78,1.12l9.42,22.76c0.13,0.33,0.19,0.61,0.19,0.84c0,0.53-0.28,0.8-0.84,0.8
			h-7.14c-0.79,0-1.28-0.34-1.48-1.03l-0.91-2.81h-6.73l-0.87,2.81c-0.2,0.68-0.7,1.03-1.48,1.03h-7.14
			C199.62,483.15,199.34,482.89,199.34,482.35z M214.54,473.31l-1.48-4.71l-1.48,4.71H214.54z"/>
		<path d="M230.48,482.62c-0.34-0.35-0.51-0.9-0.51-1.63v-17.21h-5.47c-0.81,0-1.36-0.17-1.65-0.51c-0.29-0.34-0.44-0.89-0.44-1.65
			v-2.13c0-0.76,0.15-1.31,0.44-1.65s0.84-0.51,1.65-0.51h20.06c0.81,0,1.36,0.17,1.65,0.51c0.29,0.34,0.44,0.89,0.44,1.65v2.13
			c0,0.76-0.15,1.31-0.44,1.65c-0.29,0.34-0.84,0.51-1.65,0.51h-5.47v17.21c0,0.74-0.17,1.28-0.51,1.63
			c-0.34,0.36-0.94,0.53-1.81,0.53h-4.52C231.41,483.15,230.82,482.98,230.48,482.62z"/>
		<path d="M248.82,480.21c-2.33-2.34-3.5-5.67-3.5-9.97s1.17-7.63,3.5-9.97c2.33-2.34,5.75-3.52,10.26-3.52
			c4.51,0,7.93,1.17,10.26,3.52c2.33,2.34,3.5,5.67,3.5,9.97s-1.17,7.63-3.5,9.97c-2.33,2.34-5.75,3.52-10.26,3.52
			C254.57,483.72,251.15,482.55,248.82,480.21z M262.65,475.57c0.73-1.18,1.1-2.96,1.1-5.34c0-2.41-0.37-4.19-1.1-5.36
			c-0.73-1.17-1.93-1.75-3.57-1.75c-1.65,0-2.84,0.58-3.57,1.75c-0.73,1.17-1.1,2.95-1.1,5.36c0,2.38,0.37,4.16,1.1,5.34
			c0.73,1.18,1.92,1.77,3.57,1.77C260.72,477.34,261.91,476.75,262.65,475.57z"/>
		<path d="M277.85,483c-1.98-0.48-3.57-1.15-4.79-2.01c-0.51-0.35-0.76-0.7-0.76-1.03c0-0.23,0.09-0.47,0.27-0.72l2.2-3.46
			c0.23-0.33,0.46-0.49,0.68-0.49c0.2,0,0.44,0.09,0.72,0.27c0.91,0.56,1.96,0.99,3.14,1.31c1.18,0.32,2.32,0.47,3.44,0.47
			c0.94,0,1.61-0.13,2.03-0.38c0.42-0.25,0.63-0.65,0.63-1.18c0-0.58-0.28-1.05-0.84-1.41c-0.56-0.35-1.52-0.8-2.89-1.33
			c-2.56-0.99-4.57-2.11-6.04-3.36c-1.47-1.25-2.2-2.92-2.2-5c0-2.63,0.92-4.62,2.75-5.95c1.84-1.33,4.31-2,7.43-2
			c2.18,0,4.03,0.19,5.57,0.57c1.53,0.38,2.87,0.98,4.01,1.79c0.51,0.35,0.76,0.7,0.76,1.03c0,0.23-0.09,0.47-0.27,0.72l-2.2,3.46
			c-0.23,0.35-0.46,0.53-0.68,0.53c-0.15,0-0.39-0.1-0.72-0.3c-0.61-0.41-1.33-0.74-2.17-1.01s-1.74-0.4-2.7-0.4
			c-0.89,0-1.56,0.13-2.01,0.38c-0.46,0.25-0.68,0.66-0.68,1.22c0,0.46,0.16,0.84,0.48,1.14c0.32,0.3,0.72,0.56,1.2,0.78
			c0.48,0.21,1.32,0.56,2.51,1.04c1.9,0.76,3.39,1.49,4.48,2.18c1.09,0.7,1.91,1.53,2.47,2.51c0.56,0.98,0.84,2.21,0.84,3.71
			c0,2.28-0.85,4.12-2.56,5.53s-4.26,2.11-7.66,2.11C281.97,483.72,279.83,483.48,277.85,483z"/>
	</g>
	<polygon class="st1" points="200.76,96.93 214.23,124.22 244.34,128.59 222.55,149.83 227.7,179.83 200.76,165.67 173.83,179.83 
		178.97,149.83 157.18,128.59 187.29,124.22 	"/>
	<polygon class="st1" points="138.58,180.15 147.32,197.86 166.86,200.7 152.72,214.48 156.06,233.94 138.58,224.75 121.11,233.94 
		124.45,214.48 110.31,200.7 129.85,197.86 	"/>
	<polygon class="st1" points="268.68,180.15 277.42,197.86 296.95,200.7 282.82,214.48 286.15,233.94 268.68,224.75 251.2,233.94 
		254.54,214.48 240.4,200.7 259.94,197.86 	"/>
	<circle class="st2" cx="201.77" cy="213.97" r="121.96"/>
	<circle class="st3" cx="200.82" cy="200.58" r="121.96"/>
	<g>
		<path class="st3" d="M195.05,643.3c-0.63-0.56-0.95-1.54-0.95-2.96v-5.69h-17.59c-1.75,0-2.63-0.85-2.63-2.55v-6.72
			c0-1.12,0.1-1.95,0.29-2.48c0.19-0.54,0.66-1.24,1.39-2.12l19.86-23.94c0.83-0.97,1.51-1.61,2.04-1.9
			c0.54-0.29,1.46-0.44,2.77-0.44h7.01c1.61,0,2.74,0.34,3.39,1.02c0.66,0.68,0.99,1.73,0.99,3.14v23.58h2.77
			c1.56,0,2.62,0.33,3.18,0.99c0.56,0.66,0.84,1.71,0.84,3.17v4.09c0,1.46-0.28,2.52-0.84,3.18c-0.56,0.66-1.62,0.99-3.18,0.99
			h-2.77v5.69c0,1.41-0.33,2.4-0.99,2.96c-0.66,0.56-1.81,0.84-3.47,0.84h-8.69C196.82,644.14,195.68,643.86,195.05,643.3z
			 M197.97,622.24v-9.56l-7.01,9.56H197.97z"/>
	</g>
	<g>
		<path class="st23" d="M148.81,134.8c-13.69,0-24.79,11.1-24.79,24.79c0,13.69,11.1,24.79,24.79,24.79
			c13.69,0,24.79-11.1,24.79-24.79C173.59,145.89,162.5,134.8,148.81,134.8z M149.16,175.93c-8.83,0-16-7.16-16-16s7.16-16,16-16
			c8.83,0,16,7.16,16,16S157.99,175.93,149.16,175.93z"/>
		
			<rect x="157.42" y="129.87" transform="matrix(0.866 0.5 -0.5 0.866 89.1477 -63.1116)" class="st23" width="9.84" height="9.84"/>
		<rect x="130" y="177.69" transform="matrix(0.866 0.5 -0.5 0.866 109.3814 -42.9937)" class="st23" width="9.84" height="9.84"/>
		
			<rect x="160.23" y="176.28" transform="matrix(0.9098 -0.415 0.415 0.9098 -60.311 84.8896)" class="st23" width="9.84" height="9.84"/>
		
			<rect x="128.24" y="130.93" transform="matrix(0.8315 -0.5555 0.5555 0.8315 -53.0306 96.8628)" class="st23" width="9.84" height="9.84"/>
		
			<rect x="170.43" y="153.08" transform="matrix(0.0419 0.9991 -0.9991 0.0419 325.8689 -23.8128)" class="st23" width="9.84" height="9.84"/>
		
			<rect x="115.93" y="154.48" transform="matrix(0.0419 0.9991 -0.9991 0.0419 275.0605 31.9826)" class="st23" width="9.84" height="9.84"/>
	</g>
	<rect x="150.53" y="176.2" class="st24" width="62.97" height="46.02"/>
	<g>
		<path class="st25" d="M182.92,284.36c-1.29,0.64-4.19,1.33-7.96,1.33c-10.72,0-16.24-6.67-16.24-15.5
			c0-10.58,7.54-16.47,16.93-16.47c3.63,0,6.4,0.74,7.64,1.38l-1.43,5.57c-1.43-0.6-3.4-1.15-5.89-1.15
			c-5.57,0-9.89,3.36-9.89,10.26c0,6.21,3.68,10.12,9.94,10.12c2.12,0,4.46-0.46,5.84-1.01L182.92,284.36z"/>
		<path class="st25" d="M187.51,254.64c2.25-0.37,5.61-0.64,9.34-0.64c4.6,0,7.82,0.69,10.03,2.44c1.84,1.47,2.85,3.63,2.85,6.49
			c0,3.96-2.81,6.67-5.47,7.64v0.14c2.16,0.88,3.36,2.94,4.14,5.8c0.97,3.5,1.93,7.54,2.53,8.74h-7.18
			c-0.51-0.87-1.24-3.4-2.16-7.22c-0.83-3.86-2.16-4.92-5.01-4.97h-2.12v12.19h-6.95V254.64z M194.46,267.98h2.76
			c3.5,0,5.57-1.75,5.57-4.46c0-2.85-1.93-4.28-5.15-4.32c-1.7,0-2.67,0.14-3.17,0.23V267.98z"/>
		<path class="st25" d="M241.02,273.36c-0.14-3.73-0.28-8.24-0.28-12.74h-0.14c-0.97,3.96-2.25,8.37-3.45,12.01l-3.77,12.1h-5.47
			l-3.31-12.01c-1.01-3.63-2.07-8.05-2.81-12.1h-0.09c-0.18,4.19-0.32,8.97-0.55,12.84l-0.55,11.78h-6.49l1.98-31.01h9.34
			l3.04,10.35c0.97,3.59,1.93,7.45,2.62,11.09h0.14c0.87-3.59,1.93-7.68,2.94-11.13l3.31-10.31h9.16l1.7,31.01h-6.85L241.02,273.36z
			"/>
	</g>
	<g>
		<g>
			<polygon class="st22" points="270.58,164.17 270.58,164.17 270,162.68 270,162.68 			"/>
		</g>
		<path class="st23" d="M191.36,111.09c-15.03,5.92-22.41,22.9-16.49,37.93c5.92,15.03,22.9,22.41,37.93,16.49
			c15.03-5.92,22.41-22.9,16.49-37.93C223.37,112.55,206.39,105.17,191.36,111.09z M209.54,156.09c-9.7,3.82-20.66-0.94-24.48-10.64
			s0.94-20.66,10.64-24.48s20.66,0.94,24.48,10.64S219.24,152.27,209.54,156.09z"/>
		
			<rect x="200.41" y="99.43" transform="matrix(0.989 0.1477 -0.1477 0.989 17.8048 -29.3035)" class="st23" width="11.61" height="11.61"/>
		
			<rect x="190.99" y="163.77" transform="matrix(0.989 0.1477 -0.1477 0.989 27.205 -27.2065)" class="st23" width="11.61" height="11.61"/>
		
			<rect x="223.57" y="149.15" transform="matrix(0.6943 -0.7197 0.7197 0.6943 -41.4023 212.45)" class="st23" width="11.61" height="11.61"/>
		
			<rect x="168.84" y="113.21" transform="matrix(0.57 -0.8217 0.8217 0.57 -22.6881 194.6821)" class="st23" width="11.61" height="11.61"/>
		
			<rect x="224.73" y="119.27" transform="matrix(0.4052 0.9142 -0.9142 0.4052 251.4588 -136.3626)" class="st23" width="11.61" height="11.61"/>
		
			<rect x="165.52" y="144.39" transform="matrix(0.4052 0.9142 -0.9142 0.4052 239.204 -67.2982)" class="st23" width="11.61" height="11.61"/>
	</g>
	<g>
		<g>
			<path class="st26" d="M274.55,226.1c0,3.28-2.68,5.96-5.96,5.96H148.05c-3.28,0-5.96-2.68-5.96-5.96v-69.8
				c0-3.26,2.68-5.94,5.96-5.94h120.54c3.27,0,5.96,2.68,5.96,5.94V226.1z"/>
			<path class="st27" d="M273.95,150.36h-59.63h-60.91c-3.28,0-5.96,2.68-5.96,5.94v69.8c0,3.28,2.68,5.96,5.96,5.96h60.91h59.63
				c3.27,0,5.95-2.68,5.95-5.96v-69.8C279.9,153.05,277.22,150.36,273.95,150.36z"/>
			<path class="st28" d="M268.59,150.36h-59.62h-60.92c-3.28,0-5.96,2.68-5.96,5.94v69.8c0,3.28,2.68,5.96,5.96,5.96h60.92h59.62
				c3.27,0,5.96-2.68,5.96-5.96v-69.8C274.55,153.05,271.86,150.36,268.59,150.36z"/>
			<path class="st29" d="M266.19,155.68h-57.23h-58.52c-1.96,0-3.57,1.63-3.57,3.58v63.9c0,1.97,1.61,3.57,3.57,3.57h58.52h57.23
				c1.96,0,3.57-1.6,3.57-3.57v-63.9C269.76,157.3,268.15,155.68,266.19,155.68z"/>
		</g>
		<g>
			<path class="st27" d="M212.33,232.06v12.14h65.94c5.93,0,10.73-4.8,10.73-10.73v-1.41H212.33z"/>
			<path class="st30" d="M130.99,232.06v1.41c0,5.93,4.81,10.73,10.73,10.73h67.23v-12.14H130.99z"/>
		</g>
		<path class="st31" d="M174.93,232.06H96.95v1.41c0,5.93,4.81,10.73,10.74,10.73h67.23h65.94c5.93,0,10.74-4.8,10.74-10.73v-1.41
			H174.93z"/>
	</g>
	<g id="_x39_">
		<path class="st25" d="M241.6,199.85l-0.27,0.02l0.54,24.18c3.28-0.08,6.6-0.81,9.75-2.29c1.63-0.77,3.14-1.7,4.51-2.76
			c3.79-2.93,6.54-6.87,8.05-11.24L241.6,199.85z"/>
		<path class="st32" d="M259.16,183.52c-6.96-7.6-18.3-10.15-28.12-5.54c-2,0.95-3.81,2.13-5.42,3.5l15.71,18.38l0.15-0.01
			l17.9-16.07C259.31,183.7,259.24,183.61,259.16,183.52z"/>
		<path class="st33" d="M265.44,197.85c-0.23-2.79-0.95-5.59-2.22-8.27c-1.02-2.16-2.32-4.09-3.83-5.79l-17.9,16.07l0.11-0.01
			l22.58,7.9C265.27,204.6,265.72,201.23,265.44,197.85z"/>
		<path class="st34" d="M241.34,199.87l-15.71-18.38c-5.56,4.74-8.63,11.75-8.47,18.94c0.07,3.27,0.81,6.58,2.29,9.74
			c4.2,8.93,13.16,14.08,22.42,13.89L241.34,199.87z"/>
	</g>
	<g>
		<g>
			<rect x="153.05" y="179.19" class="st34" width="9.42" height="8.29"/>
			<rect x="165.48" y="179.19" class="st35" width="45.5" height="8.29"/>
		</g>
		<g>
			<rect x="153.05" y="189.78" class="st25" width="9.42" height="8.29"/>
			<rect x="165.48" y="189.78" class="st35" width="45.5" height="8.29"/>
		</g>
		<g>
			<rect x="153.05" y="200.35" class="st32" width="9.42" height="8.29"/>
			<rect x="165.48" y="200.35" class="st35" width="45.5" height="8.29"/>
		</g>
		<g>
			<rect x="153.05" y="210.94" class="st33" width="9.42" height="8.29"/>
			<rect x="165.48" y="210.94" class="st35" width="45.5" height="8.29"/>
		</g>
	</g>
	<g>
		<path class="st25" d="M173.85,171.9c-0.49,0.25-1.6,0.51-3.05,0.51c-4.11,0-6.23-2.56-6.23-5.94c0-4.06,2.89-6.32,6.49-6.32
			c1.39,0,2.45,0.28,2.93,0.53l-0.55,2.13c-0.55-0.23-1.31-0.44-2.26-0.44c-2.13,0-3.79,1.29-3.79,3.93c0,2.38,1.41,3.88,3.81,3.88
			c0.81,0,1.71-0.18,2.24-0.39L173.85,171.9z"/>
		<path class="st25" d="M175.61,160.5c0.86-0.14,2.15-0.25,3.58-0.25c1.76,0,3,0.26,3.85,0.93c0.71,0.56,1.09,1.39,1.09,2.49
			c0,1.52-1.08,2.56-2.1,2.93v0.05c0.83,0.33,1.29,1.13,1.59,2.22c0.37,1.34,0.74,2.89,0.97,3.35h-2.75
			c-0.19-0.33-0.48-1.31-0.83-2.77c-0.32-1.48-0.83-1.89-1.92-1.91h-0.81v4.67h-2.66V160.5z M178.27,165.62h1.06
			c1.34,0,2.13-0.67,2.13-1.71c0-1.09-0.74-1.64-1.98-1.66c-0.65,0-1.02,0.05-1.22,0.09V165.62z"/>
		<path class="st25" d="M196.12,167.68c-0.05-1.43-0.11-3.16-0.11-4.89h-0.05c-0.37,1.52-0.86,3.21-1.32,4.6l-1.45,4.64h-2.1
			l-1.27-4.6c-0.39-1.39-0.79-3.09-1.08-4.64h-0.04c-0.07,1.6-0.12,3.44-0.21,4.92l-0.21,4.52h-2.49l0.76-11.89h3.58l1.16,3.97
			c0.37,1.38,0.74,2.86,1.01,4.25h0.05c0.33-1.38,0.74-2.95,1.13-4.27l1.27-3.95h3.51l0.65,11.89h-2.63L196.12,167.68z"/>
	</g>
</g>
</svg>
