<?xml version="1.0" encoding="utf-8"?>
<!-- Generator: Adobe Illustrator 23.0.0, SVG Export Plug-In . SVG Version: 6.00 Build 0)  -->
<svg version="1.1" id="Capa_1" xmlns="http://www.w3.org/2000/svg" xmlns:xlink="http://www.w3.org/1999/xlink" x="0px" y="0px"
	 viewBox="0 0 400 702" style="enable-background:new 0 0 400 702;" xml:space="preserve">
<style type="text/css">
	.st0{fill:#00D13C;}
	.st1{fill:#E0EF18;}
	.st2{fill:#CECECE;}
	.st3{fill:#FFFFFF;}
	.st4{fill:#0085B0;}
	.st5{fill:#F2F2F2;}
	.st6{fill:#EACCB0;}
	.st7{fill:#9B9B9B;}
	.st8{fill:#939393;}
	.st9{fill:#EFEFEF;}
	.st10{fill:#828282;}
	.st11{fill:#2C2A2D;}
	.st12{fill:#202021;}
	.st13{fill:#F2D4B6;}
	.st14{fill:#534D46;}
	.st15{fill:#E8D313;}
	.st16{fill:#2ACCFF;}
	.st17{fill:#4E4F4F;}
	.st18{fill:#003A94;}
	.st19{fill:#15682A;}
	.st20{fill:#D40000;}
	.st21{fill:#505050;}
	.st22{fill:none;}
	.st23{fill:#636363;}
	.st24{fill:#DFDFDF;}
	.st25{fill:#6C92D5;}
	.st26{fill:#22272F;}
	.st27{fill:#1B2538;}
	.st28{fill:#253452;}
	.st29{fill:#F9F9F9;}
	.st30{fill:#2D3543;}
	.st31{fill:#2A3D60;}
	.st32{fill:#587955;}
	.st33{fill:#CD7054;}
	.st34{fill:#F1CC4B;}
	.st35{fill:#ACACAC;}
	.st36{fill:#AAE528;}
	.st37{fill:#28CEBA;}
	.st38{fill:#DB143F;}
	.st39{opacity:0.7;fill:#7F7F7F;}
	.st40{fill:#FDFDFD;}
	.st41{fill:#DAA449;}
	.st42{fill:#DD9225;}
	.st43{opacity:0.3;}
	.st44{fill:#53C2C9;}
	.st45{fill:#FFB412;}
	.st46{fill:#866A5E;}
	.st47{fill:#F7DDCB;}
	.st48{fill:#FFE6D4;}
	.st49{fill:#F5F5F5;}
	.st50{fill:#1A2830;}
	.st51{fill:#24353F;}
	.st52{fill:#132026;}
	.st53{fill:#F9FF03;}
	.st54{fill:#272728;}
	.st55{fill:#1E1D1E;}
	.st56{fill:#160423;}
	.st57{fill-rule:evenodd;clip-rule:evenodd;fill:#FFFFFF;}
	.st58{fill-rule:evenodd;clip-rule:evenodd;fill:#1996B8;}
	.st59{fill:#0C387D;}
	.st60{fill:#C69A81;}
	.st61{fill:#D1A385;}
	.st62{fill:#EAEAEA;}
	.st63{fill:#093E8C;}
	.st64{fill:#0B2A62;}
	.st65{fill:#D32A3B;}
	.st66{fill:#827C7D;}
</style>
<g>
	<g>
		<path class="st4" d="M9.5,209.36c0,22,13.29,27.86,29.54,13.03c0,0,156.99-143.3,353.09,26.97V55c0-22-18-40-40-40H49.5
			c-22,0-40,18-40,40V209.36z"/>
	</g>
	<circle class="st2" cx="201.77" cy="213.97" r="121.96"/>
	<circle class="st3" cx="200.82" cy="200.58" r="121.96"/>
	<g>
		<path class="st16" d="M174.12,182.97H123.8c-1.92,0-3.48-1.57-3.48-3.48l0,0c0-1.92,1.57-3.48,3.48-3.48h50.32
			c1.92,0,3.48,1.57,3.48,3.48l0,0C177.6,181.4,176.04,182.97,174.12,182.97z"/>
		<path class="st16" d="M159.8,199.81h-50.32c-1.92,0-3.48-1.57-3.48-3.48v0c0-1.92,1.57-3.48,3.48-3.48h50.32
			c1.92,0,3.48,1.57,3.48,3.48v0C163.28,198.24,161.72,199.81,159.8,199.81z"/>
		<path class="st16" d="M160.7,216.06h-50.32c-1.92,0-3.48-1.57-3.48-3.48l0,0c0-1.92,1.57-3.48,3.48-3.48h50.32
			c1.92,0,3.48,1.57,3.48,3.48l0,0C164.18,214.5,162.61,216.06,160.7,216.06z"/>
		<path class="st16" d="M172.33,230h-50.32c-1.92,0-3.48-1.57-3.48-3.48l0,0c0-1.92,1.57-3.48,3.48-3.48h50.32
			c1.92,0,3.48,1.57,3.48,3.48l0,0C175.81,228.43,174.25,230,172.33,230z"/>
	</g>
	<circle class="st3" cx="200" cy="201" r="48"/>
	<g>
		<path class="st4" d="M391.66,647c0,22-18,40-40,40H49.98c-22,0-40-18-40-40v-46.27c0-22,18-40,40-40h301.68c22,0,40,18,40,40V647z
			"/>
	</g>
	<g>
		<path d="M123.99,400.42c-0.34-0.35-0.51-0.9-0.51-1.63v-21.51c0-0.73,0.17-1.28,0.51-1.63c0.34-0.35,0.93-0.53,1.77-0.53h11.51
			c3.09,0,5.36,0.66,6.82,1.98c1.46,1.32,2.18,3.19,2.18,5.62c0,1.14-0.25,2.15-0.74,3.02s-1.15,1.49-1.96,1.84
			c2.25,0.76,3.38,2.53,3.38,5.32c0,2.38-0.84,4.32-2.53,5.81c-1.69,1.5-4.16,2.24-7.43,2.24h-11.25
			C124.92,400.95,124.33,400.78,123.99,400.42z M135.45,384.88c1.17,0,1.75-0.56,1.75-1.67c0-1.11-0.58-1.67-1.75-1.67h-2.89v3.34
			H135.45z M136.09,394.53c0.53,0,0.96-0.17,1.29-0.51c0.33-0.34,0.49-0.8,0.49-1.39c0-0.61-0.16-1.08-0.48-1.41
			s-0.75-0.49-1.31-0.49h-3.53v3.8H136.09z"/>
		<path d="M149.37,400.42c-0.34-0.35-0.51-0.9-0.51-1.63v-21.51c0-0.73,0.17-1.28,0.51-1.63c0.34-0.35,0.93-0.53,1.77-0.53h9.08
			c3.8,0,6.57,0.75,8.3,2.26c1.73,1.51,2.6,3.78,2.6,6.82c0,1.82-0.31,3.36-0.93,4.62c-0.62,1.25-1.58,2.24-2.87,2.94l3.53,7.56
			c0.1,0.2,0.15,0.43,0.15,0.68c0,0.28-0.09,0.51-0.29,0.68c-0.19,0.18-0.44,0.27-0.74,0.27h-6.42c-0.41,0-0.73-0.06-0.97-0.17
			s-0.41-0.31-0.51-0.59l-2.81-7.07h-1.29v5.66c0,0.74-0.17,1.28-0.51,1.63c-0.34,0.36-0.94,0.53-1.8,0.53h-4.52
			C150.3,400.95,149.71,400.78,149.37,400.42z M159.42,386.78c0.81,0,1.45-0.21,1.92-0.65c0.47-0.43,0.7-1.08,0.7-1.94
			c0-0.89-0.24-1.54-0.7-1.98c-0.47-0.43-1.11-0.65-1.92-0.65h-2.58v5.21H159.42z"/>
		<path d="M173.54,400.42c-0.34-0.35-0.51-0.9-0.51-1.63v-21.51c0-0.73,0.17-1.28,0.51-1.63c0.34-0.35,0.93-0.53,1.77-0.53h4.52
			c0.86,0,1.46,0.17,1.81,0.51c0.34,0.34,0.51,0.89,0.51,1.65v21.51c0,0.74-0.17,1.28-0.51,1.63c-0.34,0.36-0.94,0.53-1.81,0.53
			h-4.52C174.47,400.95,173.88,400.78,173.54,400.42z"/>
		<path d="M185.32,400.42c-0.34-0.35-0.51-0.9-0.51-1.63v-21.55c0-0.73,0.17-1.27,0.51-1.62c0.34-0.34,0.94-0.51,1.8-0.51h3.61
			c0.53,0,0.94,0.07,1.24,0.21s0.58,0.41,0.86,0.82l6.88,10.22v-9.08c0-0.73,0.17-1.28,0.51-1.63c0.34-0.35,0.93-0.53,1.77-0.53
			h4.52c0.86,0,1.46,0.17,1.8,0.51c0.34,0.34,0.51,0.89,0.51,1.65v21.55c0,0.74-0.17,1.27-0.51,1.62c-0.34,0.34-0.94,0.51-1.8,0.51
			h-3.61c-0.53,0-0.94-0.07-1.24-0.21c-0.29-0.14-0.58-0.41-0.85-0.82l-6.88-10.22v9.12c0,0.74-0.17,1.27-0.51,1.62
			c-0.34,0.34-0.94,0.51-1.8,0.51h-4.52C186.25,400.95,185.66,400.78,185.32,400.42z"/>
		<path d="M212,400.42c-0.34-0.35-0.51-0.9-0.51-1.63v-21.51c0-0.73,0.17-1.28,0.51-1.63c0.34-0.35,0.93-0.53,1.77-0.53h8.74
			c8.94,0,13.41,4.31,13.41,12.92c0,4.26-1.15,7.47-3.44,9.65s-5.62,3.27-9.97,3.27h-8.74C212.93,400.95,212.34,400.78,212,400.42z
			 M222.85,394.49c1.42,0,2.44-0.47,3.06-1.41c0.62-0.94,0.93-2.62,0.93-5.05s-0.31-4.12-0.93-5.05s-1.64-1.41-3.06-1.41h-2.24
			v12.92H222.85z"/>
		<path d="M235.35,400.15c0-0.23,0.06-0.51,0.19-0.84l9.46-22.76c0.23-0.53,0.49-0.91,0.78-1.12c0.29-0.21,0.7-0.32,1.24-0.32h4.14
			c0.53,0,0.94,0.11,1.24,0.32c0.29,0.22,0.55,0.59,0.78,1.12l9.42,22.76c0.13,0.33,0.19,0.61,0.19,0.84c0,0.53-0.28,0.8-0.84,0.8
			h-7.14c-0.79,0-1.28-0.34-1.48-1.03l-0.91-2.81h-6.73l-0.87,2.81c-0.2,0.68-0.7,1.03-1.48,1.03h-7.14
			C235.63,400.95,235.35,400.69,235.35,400.15z M250.55,391.11l-1.48-4.71l-1.48,4.71H250.55z"/>
		<path d="M265.2,400.42c-0.34-0.35-0.51-0.9-0.51-1.63v-21.51c0-0.73,0.17-1.28,0.51-1.63c0.34-0.35,0.93-0.53,1.77-0.53h9.08
			c3.8,0,6.57,0.75,8.3,2.26c1.74,1.51,2.6,3.78,2.6,6.82c0,1.82-0.31,3.36-0.93,4.62s-1.58,2.24-2.87,2.94l3.54,7.56
			c0.1,0.2,0.15,0.43,0.15,0.68c0,0.28-0.09,0.51-0.28,0.68c-0.19,0.18-0.44,0.27-0.74,0.27h-6.42c-0.41,0-0.73-0.06-0.97-0.17
			s-0.41-0.31-0.51-0.59l-2.81-7.07h-1.29v5.66c0,0.74-0.17,1.28-0.51,1.63c-0.34,0.36-0.94,0.53-1.81,0.53h-4.52
			C266.13,400.95,265.54,400.78,265.2,400.42z M275.25,386.78c0.81,0,1.45-0.21,1.92-0.65c0.47-0.43,0.7-1.08,0.7-1.94
			c0-0.89-0.23-1.54-0.7-1.98c-0.47-0.43-1.11-0.65-1.92-0.65h-2.58v5.21H275.25z"/>
		<path d="M105.12,445.75c0-0.23,0.06-0.51,0.19-0.84l9.46-22.76c0.23-0.53,0.49-0.91,0.78-1.12c0.29-0.22,0.7-0.32,1.23-0.32h4.14
			c0.53,0,0.94,0.11,1.23,0.32c0.29,0.21,0.55,0.59,0.78,1.12l9.42,22.76c0.13,0.33,0.19,0.61,0.19,0.84c0,0.53-0.28,0.8-0.84,0.8
			h-7.14c-0.79,0-1.28-0.34-1.48-1.03l-0.91-2.81h-6.73l-0.87,2.81c-0.2,0.68-0.7,1.03-1.48,1.03h-7.14
			C105.4,446.55,105.12,446.29,105.12,445.75z M120.32,436.71l-1.48-4.71l-1.48,4.71H120.32z"/>
		<path d="M136.26,446.02c-0.34-0.35-0.51-0.9-0.51-1.63v-17.21h-5.47c-0.81,0-1.36-0.17-1.65-0.51c-0.29-0.34-0.44-0.89-0.44-1.65
			v-2.13c0-0.76,0.15-1.31,0.44-1.65s0.84-0.51,1.65-0.51h20.06c0.81,0,1.36,0.17,1.65,0.51c0.29,0.34,0.44,0.89,0.44,1.65v2.13
			c0,0.76-0.15,1.31-0.44,1.65c-0.29,0.34-0.84,0.51-1.65,0.51h-5.47v17.21c0,0.74-0.17,1.28-0.51,1.63
			c-0.34,0.36-0.94,0.53-1.81,0.53h-4.52C137.19,446.55,136.61,446.38,136.26,446.02z"/>
		<path d="M154.08,446.02c-0.34-0.35-0.51-0.9-0.51-1.63v-21.51c0-0.73,0.17-1.28,0.51-1.63s0.93-0.53,1.77-0.53h15.73
			c0.81,0,1.36,0.17,1.65,0.51s0.44,0.89,0.44,1.65v2.13c0,0.76-0.15,1.31-0.44,1.65c-0.29,0.34-0.84,0.51-1.65,0.51h-8.89v3.27
			h5.47c0.81,0,1.36,0.17,1.65,0.51c0.29,0.34,0.44,0.89,0.44,1.65v2.05c0,0.76-0.15,1.31-0.44,1.65s-0.84,0.51-1.65,0.51h-5.47
			v3.27h8.85c0.81,0,1.36,0.17,1.65,0.51c0.29,0.34,0.44,0.89,0.44,1.65v2.13c0,0.76-0.15,1.31-0.44,1.65
			c-0.29,0.34-0.84,0.51-1.65,0.51h-15.69C155.02,446.55,154.43,446.38,154.08,446.02z"/>
		<path d="M175.9,446.02c-0.34-0.35-0.51-0.9-0.51-1.63v-21.55c0-0.73,0.17-1.27,0.51-1.62c0.34-0.34,0.94-0.51,1.81-0.51h3.61
			c0.53,0,0.94,0.07,1.24,0.21c0.29,0.14,0.58,0.41,0.85,0.82l6.88,10.22v-9.08c0-0.73,0.17-1.28,0.51-1.63
			c0.34-0.35,0.93-0.53,1.77-0.53h4.52c0.86,0,1.46,0.17,1.81,0.51s0.51,0.89,0.51,1.65v21.55c0,0.74-0.17,1.27-0.51,1.62
			c-0.34,0.34-0.94,0.51-1.81,0.51h-3.61c-0.53,0-0.94-0.07-1.23-0.21c-0.29-0.14-0.58-0.41-0.86-0.82l-6.88-10.22v9.12
			c0,0.74-0.17,1.27-0.51,1.62c-0.34,0.34-0.94,0.51-1.81,0.51h-4.52C176.83,446.55,176.24,446.38,175.9,446.02z"/>
		<path d="M205.14,443.72c-2.56-2.27-3.84-5.63-3.84-10.09c0-4.48,1.24-7.85,3.71-10.11c2.47-2.25,6-3.38,10.58-3.38
			c2.08,0,3.93,0.2,5.55,0.61s2.98,0.98,4.07,1.71c0.3,0.23,0.46,0.48,0.46,0.76c0,0.23-0.11,0.54-0.34,0.95l-1.9,3.27
			c-0.2,0.36-0.44,0.53-0.72,0.53c-0.18,0-0.47-0.1-0.88-0.3c-0.71-0.35-1.45-0.63-2.22-0.84s-1.68-0.3-2.72-0.3
			c-2.1,0-3.71,0.61-4.83,1.82s-1.67,2.98-1.67,5.28c0,2.28,0.61,4.03,1.82,5.26c1.22,1.23,2.88,1.84,4.98,1.84
			c1.82,0,3.5-0.38,5.02-1.14c0.4-0.2,0.7-0.3,0.87-0.3c0.28,0,0.52,0.18,0.72,0.53l1.9,3.27c0.23,0.41,0.34,0.72,0.34,0.95
			c0,0.28-0.15,0.53-0.46,0.76c-1.09,0.74-2.46,1.3-4.1,1.71s-3.51,0.61-5.59,0.61C211.28,447.12,207.7,445.99,205.14,443.72z"/>
		<path d="M228.45,446.02c-0.34-0.35-0.51-0.9-0.51-1.63v-21.51c0-0.73,0.17-1.28,0.51-1.63c0.34-0.35,0.93-0.53,1.77-0.53h4.52
			c0.86,0,1.46,0.17,1.81,0.51s0.51,0.89,0.51,1.65v21.51c0,0.74-0.17,1.28-0.51,1.63c-0.34,0.36-0.94,0.53-1.81,0.53h-4.52
			C229.38,446.55,228.79,446.38,228.45,446.02z"/>
		<path d="M242.45,443.61c-2.33-2.34-3.5-5.67-3.5-9.97s1.16-7.63,3.5-9.97c2.33-2.34,5.75-3.52,10.26-3.52
			c4.51,0,7.93,1.17,10.26,3.52c2.33,2.34,3.5,5.67,3.5,9.97s-1.17,7.63-3.5,9.97c-2.33,2.34-5.75,3.52-10.26,3.52
			C248.2,447.12,244.78,445.95,242.45,443.61z M256.29,438.97c0.73-1.18,1.1-2.96,1.1-5.34c0-2.41-0.37-4.19-1.1-5.36
			c-0.74-1.17-1.93-1.75-3.57-1.75c-1.65,0-2.84,0.58-3.57,1.75c-0.73,1.17-1.1,2.95-1.1,5.36c0,2.38,0.37,4.16,1.1,5.34
			s1.92,1.77,3.57,1.77C254.36,440.74,255.55,440.15,256.29,438.97z M248.68,417.52c0-0.2,0.04-0.42,0.11-0.65l1.6-4.41
			c0.2-0.58,0.44-0.97,0.72-1.18c0.28-0.2,0.8-0.3,1.56-0.3h5.43c0.53,0,0.95,0.1,1.25,0.29c0.3,0.19,0.46,0.46,0.46,0.82
			c0,0.3-0.1,0.62-0.3,0.95l-2.43,4.1c-0.35,0.61-0.7,1-1.03,1.18c-0.33,0.18-0.92,0.27-1.79,0.27h-4.07
			C249.19,418.58,248.68,418.23,248.68,417.52z"/>
		<path d="M268.88,446.02c-0.34-0.35-0.51-0.9-0.51-1.63v-21.55c0-0.73,0.17-1.27,0.51-1.62c0.34-0.34,0.94-0.51,1.81-0.51h3.61
			c0.53,0,0.94,0.07,1.23,0.21c0.29,0.14,0.58,0.41,0.86,0.82l6.88,10.22v-9.08c0-0.73,0.17-1.28,0.51-1.63s0.93-0.53,1.77-0.53
			h4.52c0.86,0,1.46,0.17,1.8,0.51s0.51,0.89,0.51,1.65v21.55c0,0.74-0.17,1.27-0.51,1.62c-0.34,0.34-0.94,0.51-1.8,0.51h-3.61
			c-0.53,0-0.94-0.07-1.24-0.21c-0.29-0.14-0.58-0.41-0.85-0.82l-6.88-10.22v9.12c0,0.74-0.17,1.27-0.51,1.62
			c-0.34,0.34-0.94,0.51-1.81,0.51h-4.52C269.81,446.55,269.22,446.38,268.88,446.02z"/>
		<path d="M107.17,491.62c-0.34-0.35-0.51-0.9-0.51-1.63v-21.51c0-0.73,0.17-1.28,0.51-1.63s0.93-0.53,1.77-0.53h4.52
			c0.86,0,1.46,0.17,1.8,0.51s0.51,0.89,0.51,1.65v21.51c0,0.74-0.17,1.28-0.51,1.63c-0.34,0.36-0.94,0.53-1.8,0.53h-4.52
			C108.11,492.15,107.52,491.98,107.17,491.62z"/>
		<path d="M118.95,491.62c-0.34-0.35-0.51-0.9-0.51-1.63v-21.55c0-0.73,0.17-1.27,0.51-1.62c0.34-0.34,0.94-0.51,1.81-0.51h3.61
			c0.53,0,0.94,0.07,1.23,0.21c0.29,0.14,0.58,0.41,0.86,0.82l6.88,10.22v-9.08c0-0.73,0.17-1.28,0.51-1.63s0.93-0.53,1.77-0.53
			h4.52c0.86,0,1.46,0.17,1.8,0.51s0.51,0.89,0.51,1.65v21.55c0,0.74-0.17,1.27-0.51,1.62c-0.34,0.34-0.94,0.51-1.8,0.51h-3.61
			c-0.53,0-0.94-0.07-1.24-0.21c-0.29-0.14-0.58-0.41-0.85-0.82l-6.88-10.22v9.12c0,0.74-0.17,1.27-0.51,1.62
			c-0.34,0.34-0.94,0.51-1.81,0.51h-4.52C119.88,492.15,119.3,491.98,118.95,491.62z"/>
		<path d="M145.63,491.62c-0.34-0.35-0.51-0.9-0.51-1.63v-21.55c0-0.73,0.17-1.27,0.51-1.62c0.34-0.34,0.94-0.51,1.81-0.51h4.37
			c0.56,0,1,0.07,1.33,0.21c0.33,0.14,0.58,0.41,0.76,0.82l4.45,11.13l4.45-11.13c0.18-0.4,0.43-0.68,0.76-0.82
			c0.33-0.14,0.77-0.21,1.33-0.21h4.37c0.86,0,1.46,0.17,1.81,0.51c0.34,0.34,0.51,0.88,0.51,1.62v21.55c0,0.74-0.17,1.28-0.51,1.63
			c-0.34,0.36-0.93,0.53-1.77,0.53h-3.65c-0.84,0-1.43-0.18-1.79-0.53c-0.35-0.35-0.53-0.9-0.53-1.63v-10.37l-2.24,5.17
			c-0.3,0.74-0.63,1.26-0.99,1.58c-0.35,0.32-0.94,0.47-1.75,0.47c-0.81,0-1.39-0.16-1.75-0.47c-0.35-0.32-0.68-0.84-0.99-1.58
			l-2.24-5.17v10.37c0,0.74-0.17,1.28-0.51,1.63c-0.34,0.36-0.94,0.53-1.8,0.53h-3.65C146.56,492.15,145.97,491.98,145.63,491.62z"
			/>
		<path d="M174.74,491.62c-0.34-0.35-0.51-0.9-0.51-1.63v-21.51c0-0.73,0.17-1.28,0.51-1.63c0.34-0.35,0.93-0.53,1.77-0.53h15.73
			c0.81,0,1.36,0.17,1.65,0.51c0.29,0.34,0.44,0.89,0.44,1.65v2.13c0,0.76-0.15,1.31-0.44,1.65c-0.29,0.34-0.84,0.51-1.65,0.51
			h-8.89v3.27h5.47c0.81,0,1.36,0.17,1.65,0.51c0.29,0.34,0.44,0.89,0.44,1.65v2.05c0,0.76-0.15,1.31-0.44,1.65
			c-0.29,0.34-0.84,0.51-1.65,0.51h-5.47v3.27h8.85c0.81,0,1.36,0.17,1.65,0.51s0.44,0.89,0.44,1.65v2.13
			c0,0.76-0.15,1.31-0.44,1.65c-0.29,0.34-0.84,0.51-1.65,0.51h-15.7C175.67,492.15,175.08,491.98,174.74,491.62z"/>
		<path d="M196.55,491.62c-0.34-0.35-0.51-0.9-0.51-1.63v-21.51c0-0.73,0.17-1.28,0.51-1.63s0.93-0.53,1.77-0.53h8.74
			c8.94,0,13.41,4.31,13.41,12.92c0,4.26-1.15,7.47-3.44,9.65s-5.62,3.27-9.97,3.27h-8.74
			C197.48,492.15,196.89,491.98,196.55,491.62z M207.4,485.69c1.42,0,2.44-0.47,3.06-1.41c0.62-0.94,0.93-2.62,0.93-5.05
			s-0.31-4.12-0.93-5.05s-1.64-1.41-3.06-1.41h-2.24v12.92H207.4z"/>
		<path d="M222.88,491.62c-0.34-0.35-0.51-0.9-0.51-1.63v-21.51c0-0.73,0.17-1.28,0.51-1.63s0.93-0.53,1.77-0.53h4.52
			c0.86,0,1.46,0.17,1.8,0.51s0.51,0.89,0.51,1.65v21.51c0,0.74-0.17,1.28-0.51,1.63c-0.34,0.36-0.94,0.53-1.8,0.53h-4.52
			C223.81,492.15,223.22,491.98,222.88,491.62z"/>
		<path d="M233.39,491.35c0-0.23,0.06-0.51,0.19-0.84l9.46-22.76c0.23-0.53,0.49-0.91,0.78-1.12c0.29-0.22,0.7-0.32,1.24-0.32h4.14
			c0.53,0,0.94,0.11,1.24,0.32c0.29,0.21,0.55,0.59,0.78,1.12l9.42,22.76c0.13,0.33,0.19,0.61,0.19,0.84c0,0.53-0.28,0.8-0.84,0.8
			h-7.14c-0.79,0-1.28-0.34-1.48-1.03l-0.91-2.81h-6.73l-0.87,2.81c-0.2,0.68-0.7,1.03-1.48,1.03h-7.14
			C233.67,492.15,233.39,491.89,233.39,491.35z M248.59,482.31l-1.48-4.71l-1.48,4.71H248.59z"/>
		<path d="M264.53,491.62c-0.34-0.35-0.51-0.9-0.51-1.63v-17.21h-5.47c-0.81,0-1.36-0.17-1.65-0.51c-0.29-0.34-0.44-0.89-0.44-1.65
			v-2.13c0-0.76,0.15-1.31,0.44-1.65s0.84-0.51,1.65-0.51h20.06c0.81,0,1.36,0.17,1.65,0.51c0.29,0.34,0.44,0.89,0.44,1.65v2.13
			c0,0.76-0.15,1.31-0.44,1.65c-0.29,0.34-0.84,0.51-1.65,0.51h-5.47v17.21c0,0.74-0.17,1.28-0.51,1.63
			c-0.34,0.36-0.94,0.53-1.81,0.53h-4.52C265.46,492.15,264.87,491.98,264.53,491.62z"/>
		<path d="M276.33,491.35c0-0.23,0.06-0.51,0.19-0.84l9.46-22.76c0.23-0.53,0.49-0.91,0.78-1.12c0.29-0.22,0.7-0.32,1.24-0.32h4.14
			c0.53,0,0.94,0.11,1.24,0.32c0.29,0.21,0.55,0.59,0.78,1.12l9.42,22.76c0.13,0.33,0.19,0.61,0.19,0.84c0,0.53-0.28,0.8-0.84,0.8
			h-7.14c-0.79,0-1.28-0.34-1.48-1.03l-0.91-2.81h-6.73l-0.87,2.81c-0.2,0.68-0.7,1.03-1.48,1.03h-7.14
			C276.61,492.15,276.33,491.89,276.33,491.35z M291.53,482.31l-1.48-4.71l-1.48,4.71H291.53z"/>
	</g>
	<g>
		<path class="st3" d="M184.17,644.07c-3.43-0.78-6.17-1.87-8.21-3.29c-0.58-0.44-0.88-0.92-0.88-1.46c0-0.44,0.22-1.05,0.66-1.82
			l3.65-6.28c0.39-0.68,0.85-1.02,1.39-1.02c0.34,0,0.9,0.2,1.68,0.58c1.27,0.63,2.81,1.16,4.64,1.57c1.82,0.41,3.64,0.62,5.44,0.62
			c2.43,0,4.25-0.37,5.44-1.09c1.19-0.73,1.79-1.85,1.79-3.36c0-2.34-1.58-3.5-4.75-3.5h-5.62c-1.61,0-2.74-0.34-3.39-1.02
			c-0.66-0.68-0.99-1.73-0.99-3.14v-3.94c0-1.41,0.33-2.46,0.99-3.14c0.66-0.68,1.79-1.02,3.39-1.02h4.45c1.61,0,2.77-0.29,3.5-0.88
			s1.1-1.48,1.1-2.7c0-2.34-2.02-3.5-6.06-3.5c-3.26,0-6.35,0.73-9.27,2.19c-0.78,0.39-1.34,0.58-1.68,0.58
			c-0.54,0-1-0.34-1.39-1.02l-3.65-6.28c-0.44-0.78-0.66-1.39-0.66-1.83c0-0.54,0.29-1.02,0.88-1.46c2.09-1.41,4.7-2.51,7.81-3.29
			c3.11-0.78,6.67-1.17,10.66-1.17c4.23,0,7.92,0.62,11.06,1.86c3.14,1.24,5.55,3,7.23,5.29c1.68,2.29,2.52,4.99,2.52,8.1
			c0,4.28-1.49,7.59-4.45,9.93c3.84,2.24,5.77,5.79,5.77,10.66c0,4.92-1.87,8.81-5.62,11.68c-3.75,2.87-9.15,4.31-16.21,4.31
			C191.34,645.24,187.6,644.85,184.17,644.07z"/>
	</g>
	<path class="st17" d="M203.57,143.06L203.57,143.06c-3.45,0-6.27-2.82-6.27-6.27v-12.53c0-3.45,2.82-6.27,6.27-6.27l0,0
		c3.45,0,6.27,2.82,6.27,6.27v12.53C209.83,140.24,207.01,143.06,203.57,143.06z"/>
	<g>
		<rect x="197.88" y="161.86" class="st17" width="9.85" height="14.32"/>
		<rect x="197.88" y="222.72" class="st17" width="9.85" height="14.32"/>
		
			<rect x="162.53" y="192.74" transform="matrix(-1.836970e-16 1 -1 -1.836970e-16 367.3488 32.4475)" class="st17" width="9.85" height="14.32"/>
		
			<rect x="229.66" y="192.74" transform="matrix(-1.836970e-16 1 -1 -1.836970e-16 434.4784 -34.6821)" class="st17" width="9.85" height="14.32"/>
		
			<rect x="188.04" y="186.92" transform="matrix(0.5 -0.866 0.866 0.5 -77.532 265.5069)" class="st17" width="6.27" height="25.96"/>
		<rect x="197.88" y="187.81" class="st17" width="6.27" height="17.01"/>
		<path class="st17" d="M168.7,147.25l-10.01,7.54c-2.16,1.63-5.26,1.19-6.89-0.97l0,0c-1.63-2.16-1.19-5.26,0.97-6.89l10.01-7.54
			c2.16-1.63,5.26-1.19,6.89,0.97h0C171.3,142.52,170.87,145.62,168.7,147.25z"/>
		<path class="st17" d="M244.72,156.68l-9.6-8.06c-2.07-1.74-2.35-4.86-0.61-6.94h0c1.74-2.07,4.86-2.35,6.94-0.61l9.6,8.06
			c2.07,1.74,2.35,4.86,0.61,6.94v0C249.91,158.15,246.79,158.42,244.72,156.68z"/>
		<path class="st17" d="M213.5,124h-24c-3.57,0-6.5-2.92-6.5-6.5v0c0-3.57,2.93-6.5,6.5-6.5h24c3.57,0,6.5,2.92,6.5,6.5v0
			C220,121.08,217.07,124,213.5,124z"/>
		<path class="st18" d="M200.12,138.59c-34.36,0-62.21,27.85-62.21,62.21S165.76,263,200.12,263s62.21-27.85,62.21-62.21
			S234.48,138.59,200.12,138.59z M200.44,247.53c-25.63,0-46.41-20.78-46.41-46.41c0-25.63,20.78-46.41,46.41-46.41
			c25.63,0,46.41,20.78,46.41,46.41C246.86,226.75,226.08,247.53,200.44,247.53z"/>
	</g>
</g>
</svg>
