<?xml version="1.0" encoding="utf-8"?>
<!-- Generator: Adobe Illustrator 23.0.0, SVG Export Plug-In . SVG Version: 6.00 Build 0)  -->
<svg version="1.1" id="Capa_1" xmlns="http://www.w3.org/2000/svg" xmlns:xlink="http://www.w3.org/1999/xlink" x="0px" y="0px"
	 viewBox="0 0 400 702" style="enable-background:new 0 0 400 702;" xml:space="preserve">
<style type="text/css">
	.st0{fill:#00D13C;}
	.st1{fill:#E0EF18;}
	.st2{fill:#CECECE;}
	.st3{fill:#FFFFFF;}
	.st4{fill:#0085B0;}
	.st5{fill:#F2F2F2;}
	.st6{fill:#EACCB0;}
	.st7{fill:#9B9B9B;}
	.st8{fill:#939393;}
	.st9{fill:#EFEFEF;}
	.st10{fill:#828282;}
	.st11{fill:#2C2A2D;}
	.st12{fill:#202021;}
	.st13{fill:#F2D4B6;}
	.st14{fill:#534D46;}
	.st15{fill:#E8D313;}
	.st16{fill:#2ACCFF;}
	.st17{fill:#4E4F4F;}
	.st18{fill:#003A94;}
	.st19{fill:#15682A;}
	.st20{fill:#D40000;}
	.st21{fill:#505050;}
	.st22{fill:none;}
	.st23{fill:#636363;}
	.st24{fill:#DFDFDF;}
	.st25{fill:#6C92D5;}
	.st26{fill:#22272F;}
	.st27{fill:#1B2538;}
	.st28{fill:#253452;}
	.st29{fill:#F9F9F9;}
	.st30{fill:#2D3543;}
	.st31{fill:#2A3D60;}
	.st32{fill:#587955;}
	.st33{fill:#CD7054;}
	.st34{fill:#F1CC4B;}
	.st35{fill:#ACACAC;}
	.st36{fill:#AAE528;}
	.st37{fill:#28CEBA;}
	.st38{fill:#DB143F;}
	.st39{fill:#53C2C9;}
	.st40{fill:#FFB412;}
	.st41{fill:#866A5E;}
	.st42{fill:#F7DDCB;}
	.st43{fill:#FFE6D4;}
	.st44{fill:#F5F5F5;}
	.st45{fill:#1A2830;}
	.st46{fill:#24353F;}
	.st47{fill:#132026;}
	.st48{fill:#F9FF03;}
	.st49{fill:#272728;}
	.st50{fill:#1E1D1E;}
	.st51{fill:#160423;}
	.st52{fill-rule:evenodd;clip-rule:evenodd;fill:#FFFFFF;}
	.st53{fill-rule:evenodd;clip-rule:evenodd;fill:#1996B8;}
	.st54{fill:#0C387D;}
	.st55{fill:#C69A81;}
	.st56{fill:#D1A385;}
	.st57{fill:#EAEAEA;}
	.st58{fill:#093E8C;}
	.st59{fill:#0B2A62;}
	.st60{fill:#D32A3B;}
	.st61{fill:#827C7D;}
	.st62{opacity:0.7;fill:#7F7F7F;}
	.st63{fill:#FDFDFD;}
	.st64{fill:#DAA449;}
	.st65{fill:#DD9225;}
	.st66{opacity:0.3;}
</style>
<g>
	<g>
		<path d="M47.12,397.5c-0.29-0.3-0.43-0.76-0.43-1.38v-18.14c0-0.62,0.14-1.07,0.43-1.36c0.29-0.29,0.79-0.43,1.52-0.43h3.68
			c0.47,0,0.84,0.06,1.12,0.18c0.28,0.12,0.49,0.35,0.64,0.69l3.74,9.38l3.74-9.38c0.15-0.34,0.36-0.57,0.64-0.69
			c0.28-0.12,0.65-0.18,1.12-0.18h3.68c0.72,0,1.23,0.14,1.52,0.43s0.43,0.74,0.43,1.36v18.14c0,0.62-0.14,1.08-0.43,1.38
			c-0.29,0.3-0.78,0.45-1.49,0.45h-3.07c-0.7,0-1.21-0.15-1.5-0.45c-0.3-0.3-0.45-0.76-0.45-1.38v-8.74l-1.89,4.35
			c-0.26,0.62-0.53,1.06-0.83,1.33s-0.79,0.4-1.47,0.4s-1.17-0.13-1.47-0.4s-0.58-0.71-0.83-1.33l-1.89-4.35v8.74
			c0,0.62-0.14,1.08-0.43,1.38c-0.29,0.3-0.79,0.45-1.52,0.45h-3.07C47.91,397.95,47.41,397.8,47.12,397.5z"/>
		<path d="M71.63,397.5c-0.29-0.3-0.43-0.76-0.43-1.38v-18.11c0-0.62,0.14-1.08,0.43-1.38c0.29-0.3,0.78-0.45,1.49-0.45h13.25
			c0.68,0,1.15,0.14,1.39,0.43c0.24,0.29,0.37,0.75,0.37,1.39v1.79c0,0.64-0.12,1.1-0.37,1.39c-0.25,0.29-0.71,0.43-1.39,0.43h-7.49
			v2.75h4.61c0.68,0,1.15,0.14,1.39,0.43s0.37,0.75,0.37,1.39v1.73c0,0.64-0.12,1.1-0.37,1.39s-0.71,0.43-1.39,0.43h-4.61v2.75h7.46
			c0.68,0,1.15,0.14,1.39,0.43c0.25,0.29,0.37,0.75,0.37,1.39v1.79c0,0.64-0.12,1.1-0.37,1.39c-0.25,0.29-0.71,0.43-1.39,0.43H73.12
			C72.42,397.95,71.92,397.8,71.63,397.5z"/>
		<path d="M90,397.5c-0.29-0.3-0.43-0.76-0.43-1.38v-18.11c0-0.62,0.14-1.08,0.43-1.38c0.29-0.3,0.79-0.45,1.49-0.45h7.36
			c7.53,0,11.3,3.63,11.3,10.88c0,3.58-0.96,6.29-2.9,8.13c-1.93,1.83-4.73,2.75-8.4,2.75h-7.36C90.79,397.95,90.29,397.8,90,397.5z
			 M99.14,392.51c1.19,0,2.05-0.39,2.58-1.18c0.52-0.79,0.78-2.21,0.78-4.26s-0.26-3.47-0.78-4.26c-0.52-0.79-1.38-1.18-2.58-1.18
			h-1.89v10.88H99.14z"/>
		<path d="M112.18,397.5c-0.29-0.3-0.43-0.76-0.43-1.38v-18.11c0-0.62,0.14-1.08,0.43-1.38c0.29-0.3,0.79-0.45,1.49-0.45h3.81
			c0.72,0,1.23,0.14,1.52,0.43c0.29,0.29,0.43,0.75,0.43,1.39v18.11c0,0.62-0.14,1.08-0.43,1.38c-0.29,0.3-0.79,0.45-1.52,0.45
			h-3.81C112.96,397.95,112.47,397.8,112.18,397.5z"/>
		<path d="M122.1,397.5c-0.29-0.3-0.43-0.76-0.43-1.38v-18.11c0-0.62,0.14-1.08,0.43-1.38c0.29-0.3,0.79-0.45,1.49-0.45h7.65
			c3.2,0,5.53,0.63,6.99,1.9c1.46,1.27,2.19,3.18,2.19,5.74c0,1.54-0.26,2.83-0.78,3.89c-0.52,1.06-1.33,1.88-2.42,2.48l2.98,6.37
			c0.08,0.17,0.13,0.36,0.13,0.58c0,0.23-0.08,0.43-0.24,0.58s-0.37,0.22-0.62,0.22h-5.41c-0.34,0-0.61-0.05-0.82-0.14
			c-0.2-0.1-0.35-0.26-0.43-0.5l-2.37-5.95h-1.09v4.77c0,0.62-0.14,1.08-0.43,1.38c-0.29,0.3-0.79,0.45-1.52,0.45h-3.81
			C122.88,397.95,122.39,397.8,122.1,397.5z M130.56,386.02c0.68,0,1.22-0.18,1.62-0.54c0.39-0.36,0.59-0.91,0.59-1.63
			c0-0.75-0.2-1.3-0.59-1.66c-0.39-0.36-0.93-0.54-1.62-0.54h-2.18v4.38H130.56z"/>
		<path d="M152.05,397.5c-0.29-0.3-0.43-0.76-0.43-1.38v-18.11c0-0.62,0.14-1.08,0.43-1.38c0.29-0.3,0.79-0.45,1.49-0.45h13.25
			c0.68,0,1.15,0.14,1.39,0.43c0.24,0.29,0.37,0.75,0.37,1.39v1.79c0,0.64-0.12,1.1-0.37,1.39c-0.25,0.29-0.71,0.43-1.39,0.43h-7.49
			v2.75h4.61c0.68,0,1.15,0.14,1.39,0.43c0.25,0.29,0.37,0.75,0.37,1.39v1.73c0,0.64-0.12,1.1-0.37,1.39
			c-0.24,0.29-0.71,0.43-1.39,0.43h-4.61v2.75h7.46c0.68,0,1.15,0.14,1.39,0.43s0.37,0.75,0.37,1.39v1.79c0,0.64-0.12,1.1-0.37,1.39
			s-0.71,0.43-1.39,0.43h-13.22C152.83,397.95,152.34,397.8,152.05,397.5z"/>
		<path d="M170.42,397.5c-0.29-0.3-0.43-0.76-0.43-1.38v-18.11c0-0.62,0.14-1.08,0.43-1.38s0.78-0.45,1.49-0.45h3.81
			c0.73,0,1.23,0.14,1.52,0.43s0.43,0.75,0.43,1.39v14.5h7.46c0.68,0,1.15,0.14,1.39,0.43c0.24,0.29,0.37,0.75,0.37,1.39v1.79
			c0,0.64-0.12,1.1-0.37,1.39c-0.25,0.29-0.71,0.43-1.39,0.43h-13.22C171.2,397.95,170.71,397.8,170.42,397.5z"/>
		<path d="M197.87,397.5c-0.29-0.3-0.43-0.76-0.43-1.38v-18.14c0-0.62,0.14-1.07,0.43-1.36c0.29-0.29,0.79-0.43,1.52-0.43h3.04
			c0.45,0,0.79,0.06,1.04,0.18c0.25,0.12,0.49,0.35,0.72,0.69l5.79,8.61v-7.65c0-0.62,0.14-1.08,0.43-1.38s0.78-0.45,1.49-0.45h3.81
			c0.72,0,1.23,0.14,1.52,0.43c0.29,0.29,0.43,0.75,0.43,1.39v18.14c0,0.62-0.14,1.07-0.43,1.36c-0.29,0.29-0.79,0.43-1.52,0.43
			h-3.04c-0.45,0-0.79-0.06-1.04-0.18c-0.25-0.12-0.49-0.35-0.72-0.69l-5.79-8.61v7.68c0,0.62-0.14,1.07-0.43,1.36
			c-0.29,0.29-0.79,0.43-1.52,0.43h-3.81C198.66,397.95,198.16,397.8,197.87,397.5z"/>
		<path d="M220.34,397.5c-0.29-0.3-0.43-0.76-0.43-1.38v-18.11c0-0.62,0.14-1.08,0.43-1.38c0.29-0.3,0.79-0.45,1.49-0.45h3.81
			c0.72,0,1.23,0.14,1.52,0.43c0.29,0.29,0.43,0.75,0.43,1.39v18.11c0,0.62-0.14,1.08-0.43,1.38c-0.29,0.3-0.79,0.45-1.52,0.45
			h-3.81C221.12,397.95,220.63,397.8,220.34,397.5z"/>
		<path d="M237.62,397.68c-0.25-0.18-0.45-0.5-0.63-0.94l-7.65-19.17c-0.11-0.28-0.16-0.51-0.16-0.7c0-0.45,0.23-0.67,0.7-0.67h6.02
			c0.66,0,1.08,0.29,1.25,0.86l3.26,10.43l3.26-10.43c0.17-0.58,0.59-0.86,1.25-0.86h6.02c0.47,0,0.7,0.22,0.7,0.67
			c0,0.19-0.05,0.43-0.16,0.7l-7.62,19.17c-0.17,0.45-0.38,0.76-0.63,0.94c-0.25,0.18-0.6,0.27-1.07,0.27h-3.49
			C238.22,397.95,237.86,397.86,237.62,397.68z"/>
		<path d="M253.68,397.5c-0.29-0.3-0.43-0.76-0.43-1.38v-18.11c0-0.62,0.14-1.08,0.43-1.38c0.29-0.3,0.79-0.45,1.49-0.45h13.25
			c0.68,0,1.15,0.14,1.39,0.43c0.24,0.29,0.37,0.75,0.37,1.39v1.79c0,0.64-0.12,1.1-0.37,1.39c-0.25,0.29-0.71,0.43-1.39,0.43h-7.49
			v2.75h4.61c0.68,0,1.15,0.14,1.39,0.43c0.25,0.29,0.37,0.75,0.37,1.39v1.73c0,0.64-0.12,1.1-0.37,1.39
			c-0.24,0.29-0.71,0.43-1.39,0.43h-4.61v2.75h7.46c0.68,0,1.15,0.14,1.39,0.43s0.37,0.75,0.37,1.39v1.79c0,0.64-0.12,1.1-0.37,1.39
			s-0.71,0.43-1.39,0.43h-13.22C254.46,397.95,253.97,397.8,253.68,397.5z"/>
		<path d="M272.05,397.5c-0.29-0.3-0.43-0.76-0.43-1.38v-18.11c0-0.62,0.14-1.08,0.43-1.38s0.78-0.45,1.49-0.45h3.81
			c0.73,0,1.23,0.14,1.52,0.43s0.43,0.75,0.43,1.39v14.5h7.46c0.68,0,1.15,0.14,1.39,0.43c0.24,0.29,0.37,0.75,0.37,1.39v1.79
			c0,0.64-0.12,1.1-0.37,1.39c-0.25,0.29-0.71,0.43-1.39,0.43h-13.22C272.83,397.95,272.34,397.8,272.05,397.5z"/>
		<path d="M299.5,397.5c-0.29-0.3-0.43-0.76-0.43-1.38v-18.11c0-0.62,0.14-1.08,0.43-1.38c0.29-0.3,0.78-0.45,1.49-0.45h7.36
			c7.53,0,11.3,3.63,11.3,10.88c0,3.58-0.97,6.29-2.9,8.13c-1.93,1.83-4.73,2.75-8.4,2.75h-7.36
			C300.29,397.95,299.79,397.8,299.5,397.5z M308.64,392.51c1.19,0,2.05-0.39,2.58-1.18s0.78-2.21,0.78-4.26s-0.26-3.47-0.78-4.26
			s-1.38-1.18-2.58-1.18h-1.89v10.88H308.64z"/>
		<path d="M321.68,397.5c-0.29-0.3-0.43-0.76-0.43-1.38v-18.11c0-0.62,0.14-1.08,0.43-1.38c0.29-0.3,0.78-0.45,1.49-0.45h13.25
			c0.68,0,1.15,0.14,1.39,0.43s0.37,0.75,0.37,1.39v1.79c0,0.64-0.12,1.1-0.37,1.39s-0.71,0.43-1.39,0.43h-7.49v2.75h4.61
			c0.68,0,1.15,0.14,1.39,0.43c0.24,0.29,0.37,0.75,0.37,1.39v1.73c0,0.64-0.12,1.1-0.37,1.39c-0.25,0.29-0.71,0.43-1.39,0.43h-4.61
			v2.75h7.46c0.68,0,1.15,0.14,1.39,0.43c0.25,0.29,0.37,0.75,0.37,1.39v1.79c0,0.64-0.12,1.1-0.37,1.39
			c-0.25,0.29-0.71,0.43-1.39,0.43h-13.21C322.46,397.95,321.97,397.8,321.68,397.5z"/>
		<path d="M90.35,436.22c-1.66-0.41-3.01-0.97-4.03-1.7c-0.43-0.3-0.64-0.59-0.64-0.86c0-0.19,0.07-0.39,0.22-0.61l1.86-2.91
			c0.19-0.28,0.38-0.42,0.58-0.42c0.17,0,0.37,0.08,0.61,0.22c0.77,0.47,1.65,0.84,2.64,1.1s1.96,0.4,2.9,0.4
			c0.79,0,1.36-0.11,1.71-0.32s0.53-0.54,0.53-0.99c0-0.49-0.23-0.88-0.7-1.18c-0.47-0.3-1.28-0.67-2.43-1.12
			c-2.16-0.83-3.85-1.78-5.09-2.83c-1.24-1.06-1.86-2.46-1.86-4.21c0-2.22,0.77-3.89,2.32-5.01c1.55-1.12,3.63-1.68,6.26-1.68
			c1.83,0,3.4,0.16,4.69,0.48c1.29,0.32,2.42,0.82,3.38,1.5c0.43,0.3,0.64,0.59,0.64,0.86c0,0.19-0.08,0.39-0.22,0.61l-1.86,2.91
			c-0.19,0.3-0.38,0.45-0.58,0.45c-0.13,0-0.33-0.08-0.61-0.26c-0.51-0.34-1.12-0.62-1.82-0.85c-0.71-0.22-1.46-0.34-2.27-0.34
			c-0.75,0-1.31,0.11-1.7,0.32c-0.38,0.21-0.58,0.55-0.58,1.02c0,0.38,0.13,0.7,0.4,0.96c0.27,0.26,0.6,0.47,1.01,0.66
			c0.41,0.18,1.11,0.48,2.11,0.88c1.6,0.64,2.86,1.25,3.78,1.84c0.92,0.59,1.61,1.29,2.08,2.11c0.47,0.82,0.7,1.86,0.7,3.12
			c0,1.92-0.72,3.47-2.16,4.66c-1.44,1.18-3.59,1.78-6.45,1.78C93.82,436.83,92.02,436.63,90.35,436.22z"/>
		<path d="M103.89,435.68c0-0.19,0.05-0.43,0.16-0.7l7.97-19.17c0.19-0.45,0.41-0.76,0.66-0.94c0.24-0.18,0.59-0.27,1.04-0.27h3.49
			c0.45,0,0.79,0.09,1.04,0.27c0.25,0.18,0.46,0.5,0.66,0.94l7.94,19.17c0.11,0.28,0.16,0.51,0.16,0.7c0,0.45-0.24,0.67-0.7,0.67
			h-6.02c-0.66,0-1.08-0.29-1.25-0.86l-0.77-2.37h-5.66l-0.74,2.37c-0.17,0.58-0.59,0.86-1.25,0.86h-6.02
			C104.12,436.35,103.89,436.13,103.89,435.68z M116.69,428.06l-1.25-3.97l-1.25,3.97H116.69z"/>
		<path d="M130.11,435.9c-0.29-0.3-0.43-0.76-0.43-1.38v-14.5h-4.61c-0.68,0-1.15-0.14-1.39-0.43c-0.25-0.29-0.37-0.75-0.37-1.39
			v-1.79c0-0.64,0.12-1.1,0.37-1.39c0.24-0.29,0.71-0.43,1.39-0.43h16.9c0.68,0,1.15,0.14,1.39,0.43c0.24,0.29,0.37,0.75,0.37,1.39
			v1.79c0,0.64-0.12,1.1-0.37,1.39c-0.25,0.29-0.71,0.43-1.39,0.43h-4.61v14.5c0,0.62-0.14,1.08-0.43,1.38
			c-0.29,0.3-0.79,0.45-1.52,0.45h-3.81C130.9,436.35,130.4,436.2,130.11,435.9z"/>
		<path d="M145.12,435.9c-0.29-0.3-0.43-0.76-0.43-1.38v-18.11c0-0.62,0.14-1.08,0.43-1.38c0.29-0.3,0.78-0.45,1.49-0.45h3.81
			c0.73,0,1.23,0.14,1.52,0.43c0.29,0.29,0.43,0.75,0.43,1.39v18.11c0,0.62-0.14,1.08-0.43,1.38c-0.29,0.3-0.79,0.45-1.52,0.45
			h-3.81C145.9,436.35,145.41,436.2,145.12,435.9z"/>
		<path d="M158.67,436.22c-1.66-0.41-3.01-0.97-4.03-1.7c-0.43-0.3-0.64-0.59-0.64-0.86c0-0.19,0.07-0.39,0.22-0.61l1.86-2.91
			c0.19-0.28,0.38-0.42,0.58-0.42c0.17,0,0.37,0.08,0.61,0.22c0.77,0.47,1.65,0.84,2.64,1.1s1.96,0.4,2.9,0.4
			c0.79,0,1.36-0.11,1.71-0.32s0.53-0.54,0.53-0.99c0-0.49-0.24-0.88-0.7-1.18c-0.47-0.3-1.28-0.67-2.43-1.12
			c-2.15-0.83-3.85-1.78-5.09-2.83c-1.24-1.06-1.86-2.46-1.86-4.21c0-2.22,0.77-3.89,2.32-5.01c1.55-1.12,3.63-1.68,6.26-1.68
			c1.83,0,3.4,0.16,4.69,0.48c1.29,0.32,2.42,0.82,3.38,1.5c0.43,0.3,0.64,0.59,0.64,0.86c0,0.19-0.07,0.39-0.22,0.61l-1.86,2.91
			c-0.19,0.3-0.38,0.45-0.58,0.45c-0.13,0-0.33-0.08-0.61-0.26c-0.51-0.34-1.12-0.62-1.82-0.85c-0.7-0.22-1.46-0.34-2.27-0.34
			c-0.75,0-1.31,0.11-1.7,0.32c-0.38,0.21-0.58,0.55-0.58,1.02c0,0.38,0.13,0.7,0.4,0.96c0.27,0.26,0.6,0.47,1.01,0.66
			c0.41,0.18,1.11,0.48,2.11,0.88c1.6,0.64,2.86,1.25,3.78,1.84c0.92,0.59,1.61,1.29,2.08,2.11c0.47,0.82,0.71,1.86,0.71,3.12
			c0,1.92-0.72,3.47-2.16,4.66c-1.44,1.18-3.59,1.78-6.45,1.78C162.14,436.83,160.34,436.63,158.67,436.22z"/>
		<path d="M174.72,435.9c-0.29-0.3-0.43-0.76-0.43-1.38v-18.11c0-0.62,0.14-1.08,0.43-1.38c0.29-0.3,0.78-0.45,1.49-0.45h13.25
			c0.68,0,1.15,0.14,1.39,0.43s0.37,0.75,0.37,1.39v1.79c0,0.64-0.12,1.1-0.37,1.39s-0.71,0.43-1.39,0.43h-7.49v2.72h4.61
			c0.68,0,1.15,0.14,1.39,0.43c0.24,0.29,0.37,0.75,0.37,1.39v1.79c0,0.64-0.12,1.1-0.37,1.39c-0.25,0.29-0.71,0.43-1.39,0.43h-4.61
			v6.34c0,0.62-0.14,1.08-0.43,1.38c-0.29,0.3-0.79,0.45-1.52,0.45h-3.81C175.5,436.35,175.01,436.2,174.72,435.9z"/>
		<path d="M187.38,435.68c0-0.19,0.05-0.43,0.16-0.7l7.97-19.17c0.19-0.45,0.41-0.76,0.66-0.94c0.25-0.18,0.59-0.27,1.04-0.27h3.49
			c0.45,0,0.79,0.09,1.04,0.27c0.25,0.18,0.46,0.5,0.66,0.94l7.94,19.17c0.11,0.28,0.16,0.51,0.16,0.7c0,0.45-0.23,0.67-0.7,0.67
			h-6.02c-0.66,0-1.08-0.29-1.25-0.86l-0.77-2.37h-5.66l-0.74,2.37c-0.17,0.58-0.59,0.86-1.25,0.86h-6.02
			C187.61,436.35,187.38,436.13,187.38,435.68z M200.18,428.06l-1.25-3.97l-1.25,3.97H200.18z"/>
		<path d="M212.91,433.97c-2.15-1.91-3.23-4.74-3.23-8.5c0-3.78,1.04-6.61,3.12-8.51s5.05-2.85,8.91-2.85
			c1.75,0,3.31,0.17,4.67,0.51c1.37,0.34,2.51,0.82,3.42,1.44c0.26,0.19,0.38,0.41,0.38,0.64c0,0.19-0.1,0.46-0.29,0.8l-1.6,2.75
			c-0.17,0.3-0.37,0.45-0.61,0.45c-0.15,0-0.4-0.08-0.74-0.26c-0.6-0.3-1.22-0.53-1.87-0.7c-0.65-0.17-1.41-0.26-2.29-0.26
			c-1.77,0-3.13,0.51-4.06,1.54c-0.94,1.02-1.41,2.51-1.41,4.45c0,1.92,0.51,3.4,1.54,4.43c1.02,1.04,2.42,1.55,4.19,1.55
			c1.54,0,2.94-0.32,4.22-0.96c0.34-0.17,0.59-0.26,0.74-0.26c0.23,0,0.44,0.15,0.61,0.45l1.6,2.75c0.19,0.34,0.29,0.61,0.29,0.8
			c0,0.24-0.13,0.45-0.38,0.64c-0.92,0.62-2.07,1.1-3.46,1.44c-1.39,0.34-2.96,0.51-4.7,0.51
			C218.09,436.83,215.07,435.88,212.91,433.97z"/>
		<path d="M233.9,433.97c-2.15-1.91-3.23-4.74-3.23-8.5c0-3.78,1.04-6.61,3.12-8.51s5.05-2.85,8.91-2.85c1.75,0,3.31,0.17,4.67,0.51
			c1.37,0.34,2.51,0.82,3.42,1.44c0.26,0.19,0.38,0.41,0.38,0.64c0,0.19-0.1,0.46-0.29,0.8l-1.6,2.75c-0.17,0.3-0.37,0.45-0.61,0.45
			c-0.15,0-0.4-0.08-0.74-0.26c-0.6-0.3-1.22-0.53-1.87-0.7c-0.65-0.17-1.41-0.26-2.29-0.26c-1.77,0-3.13,0.51-4.06,1.54
			c-0.94,1.02-1.41,2.51-1.41,4.45c0,1.92,0.51,3.4,1.54,4.43c1.02,1.04,2.42,1.55,4.19,1.55c1.54,0,2.94-0.32,4.22-0.96
			c0.34-0.17,0.59-0.26,0.74-0.26c0.23,0,0.44,0.15,0.61,0.45l1.6,2.75c0.19,0.34,0.29,0.61,0.29,0.8c0,0.24-0.13,0.45-0.38,0.64
			c-0.92,0.62-2.07,1.1-3.46,1.44c-1.39,0.34-2.96,0.51-4.7,0.51C239.08,436.83,236.06,435.88,233.9,433.97z"/>
		<path d="M253.54,435.9c-0.29-0.3-0.43-0.76-0.43-1.38v-18.11c0-0.62,0.14-1.08,0.43-1.38c0.29-0.3,0.78-0.45,1.49-0.45h3.81
			c0.73,0,1.23,0.14,1.52,0.43c0.29,0.29,0.43,0.75,0.43,1.39v18.11c0,0.62-0.14,1.08-0.43,1.38c-0.29,0.3-0.79,0.45-1.52,0.45
			h-3.81C254.32,436.35,253.82,436.2,253.54,435.9z"/>
		<path d="M265.33,433.87c-1.96-1.97-2.94-4.77-2.94-8.4s0.98-6.43,2.94-8.4c1.96-1.97,4.84-2.96,8.64-2.96s6.68,0.99,8.64,2.96
			c1.96,1.97,2.94,4.77,2.94,8.4s-0.98,6.43-2.94,8.4c-1.96,1.97-4.84,2.96-8.64,2.96S267.29,435.85,265.33,433.87z M276.98,429.97
			c0.62-0.99,0.93-2.49,0.93-4.5c0-2.03-0.31-3.53-0.93-4.51s-1.62-1.47-3.01-1.47s-2.39,0.49-3.01,1.47
			c-0.62,0.98-0.93,2.49-0.93,4.51c0,2.01,0.31,3.5,0.93,4.5c0.62,0.99,1.62,1.49,3.01,1.49S276.36,430.96,276.98,429.97z
			 M270.58,411.9c0-0.17,0.03-0.35,0.1-0.54l1.34-3.71c0.17-0.49,0.37-0.82,0.61-0.99c0.23-0.17,0.67-0.26,1.31-0.26h4.58
			c0.45,0,0.8,0.08,1.06,0.24s0.38,0.39,0.38,0.69c0,0.26-0.09,0.52-0.26,0.8l-2.05,3.46c-0.3,0.51-0.59,0.84-0.86,0.99
			c-0.28,0.15-0.78,0.22-1.5,0.22h-3.42C271,412.8,270.58,412.5,270.58,411.9z"/>
		<path d="M287.58,435.9c-0.29-0.3-0.43-0.76-0.43-1.38v-18.14c0-0.62,0.14-1.07,0.43-1.36c0.29-0.29,0.79-0.43,1.52-0.43h3.04
			c0.45,0,0.79,0.06,1.04,0.18s0.49,0.35,0.72,0.69l5.79,8.61v-7.65c0-0.62,0.14-1.08,0.43-1.38c0.29-0.3,0.78-0.45,1.49-0.45h3.81
			c0.73,0,1.23,0.14,1.52,0.43c0.29,0.29,0.43,0.75,0.43,1.39v18.14c0,0.62-0.14,1.07-0.43,1.36c-0.29,0.29-0.79,0.43-1.52,0.43
			h-3.04c-0.45,0-0.79-0.06-1.04-0.18s-0.49-0.35-0.72-0.69l-5.79-8.61v7.68c0,0.62-0.14,1.07-0.43,1.36
			c-0.29,0.29-0.79,0.43-1.52,0.43h-3.81C288.37,436.35,287.87,436.2,287.58,435.9z"/>
		<path d="M62.9,474.3c-0.29-0.3-0.43-0.76-0.43-1.38v-18.11c0-0.62,0.14-1.08,0.43-1.38c0.29-0.3,0.78-0.45,1.49-0.45h7.36
			c7.53,0,11.3,3.63,11.3,10.88c0,3.58-0.97,6.29-2.9,8.13s-4.73,2.75-8.4,2.75h-7.36C63.68,474.75,63.19,474.6,62.9,474.3z
			 M72.04,469.31c1.19,0,2.05-0.39,2.58-1.18c0.52-0.79,0.78-2.21,0.78-4.26s-0.26-3.47-0.78-4.26c-0.52-0.79-1.38-1.18-2.58-1.18
			h-1.89v10.88H72.04z"/>
		<path d="M85.07,474.3c-0.29-0.3-0.43-0.76-0.43-1.38v-18.11c0-0.62,0.14-1.08,0.43-1.38c0.29-0.3,0.78-0.45,1.49-0.45h13.25
			c0.68,0,1.15,0.14,1.39,0.43c0.24,0.29,0.37,0.75,0.37,1.39v1.79c0,0.64-0.12,1.1-0.37,1.39c-0.25,0.29-0.71,0.43-1.39,0.43h-7.49
			v2.75h4.61c0.68,0,1.15,0.14,1.39,0.43s0.37,0.75,0.37,1.39v1.73c0,0.64-0.12,1.1-0.37,1.39s-0.71,0.43-1.39,0.43h-4.61v2.75h7.46
			c0.68,0,1.15,0.14,1.39,0.43c0.25,0.29,0.37,0.75,0.37,1.39v1.79c0,0.64-0.12,1.1-0.37,1.39c-0.25,0.29-0.71,0.43-1.39,0.43H86.56
			C85.86,474.75,85.36,474.6,85.07,474.3z"/>
		<path d="M118.13,474.3c-0.29-0.3-0.43-0.76-0.43-1.38v-14.5h-4.61c-0.68,0-1.15-0.14-1.39-0.43c-0.24-0.29-0.37-0.75-0.37-1.39
			v-1.79c0-0.64,0.12-1.1,0.37-1.39c0.25-0.29,0.71-0.43,1.39-0.43h16.9c0.68,0,1.15,0.14,1.39,0.43s0.37,0.75,0.37,1.39v1.79
			c0,0.64-0.12,1.1-0.37,1.39s-0.71,0.43-1.39,0.43h-4.61v14.5c0,0.62-0.14,1.08-0.43,1.38c-0.29,0.3-0.79,0.45-1.52,0.45h-3.81
			C118.91,474.75,118.42,474.6,118.13,474.3z"/>
		<path d="M137.54,474.22c-1.58-0.67-2.8-1.64-3.68-2.91c-0.88-1.27-1.31-2.78-1.31-4.53v-11.97c0-0.62,0.14-1.08,0.43-1.38
			s0.78-0.45,1.49-0.45h3.81c0.72,0,1.23,0.14,1.52,0.43c0.29,0.29,0.43,0.75,0.43,1.39v12.06c0,1,0.25,1.75,0.75,2.24
			c0.5,0.49,1.19,0.74,2.06,0.74s1.56-0.24,2.06-0.74c0.5-0.49,0.75-1.24,0.75-2.24v-12.06c0-0.62,0.14-1.08,0.43-1.38
			c0.29-0.3,0.78-0.45,1.49-0.45h3.81c0.72,0,1.23,0.14,1.52,0.43s0.43,0.75,0.43,1.39v11.97c0,1.75-0.44,3.26-1.31,4.53
			c-0.88,1.27-2.1,2.24-3.68,2.91c-1.58,0.67-3.41,1.01-5.5,1.01C140.95,475.23,139.12,474.9,137.54,474.22z"/>
		<path d="M159.68,474.62c-1.66-0.41-3.01-0.97-4.03-1.7c-0.43-0.3-0.64-0.59-0.64-0.86c0-0.19,0.07-0.39,0.22-0.61l1.86-2.91
			c0.19-0.28,0.38-0.42,0.58-0.42c0.17,0,0.37,0.08,0.61,0.22c0.77,0.47,1.65,0.84,2.64,1.1s1.96,0.4,2.9,0.4
			c0.79,0,1.36-0.11,1.71-0.32c0.35-0.21,0.53-0.54,0.53-0.99c0-0.49-0.23-0.88-0.7-1.18c-0.47-0.3-1.28-0.67-2.43-1.12
			c-2.16-0.83-3.85-1.78-5.09-2.83c-1.24-1.06-1.86-2.46-1.86-4.21c0-2.22,0.77-3.89,2.32-5.01c1.55-1.12,3.63-1.68,6.26-1.68
			c1.83,0,3.4,0.16,4.69,0.48c1.29,0.32,2.42,0.82,3.38,1.5c0.43,0.3,0.64,0.59,0.64,0.86c0,0.19-0.08,0.39-0.22,0.61l-1.86,2.91
			c-0.19,0.3-0.38,0.45-0.58,0.45c-0.13,0-0.33-0.08-0.61-0.26c-0.51-0.34-1.12-0.62-1.82-0.85c-0.7-0.22-1.46-0.34-2.27-0.34
			c-0.75,0-1.31,0.11-1.7,0.32c-0.38,0.21-0.58,0.55-0.58,1.02c0,0.38,0.13,0.7,0.4,0.96c0.27,0.26,0.6,0.47,1.01,0.66
			c0.4,0.18,1.11,0.48,2.11,0.88c1.6,0.64,2.86,1.25,3.78,1.84s1.61,1.29,2.08,2.11c0.47,0.82,0.7,1.86,0.7,3.12
			c0,1.92-0.72,3.47-2.16,4.66c-1.44,1.18-3.59,1.78-6.45,1.78C163.15,475.23,161.35,475.03,159.68,474.62z"/>
		<path d="M187.49,472.37c-2.15-1.91-3.23-4.74-3.23-8.5c0-3.78,1.04-6.61,3.12-8.51s5.05-2.85,8.91-2.85
			c1.75,0,3.31,0.17,4.67,0.51c1.36,0.34,2.51,0.82,3.42,1.44c0.26,0.19,0.38,0.41,0.38,0.64c0,0.19-0.1,0.46-0.29,0.8l-1.6,2.75
			c-0.17,0.3-0.37,0.45-0.61,0.45c-0.15,0-0.4-0.08-0.74-0.26c-0.6-0.3-1.22-0.53-1.87-0.7c-0.65-0.17-1.41-0.26-2.29-0.26
			c-1.77,0-3.13,0.51-4.06,1.54c-0.94,1.02-1.41,2.51-1.41,4.45c0,1.92,0.51,3.4,1.54,4.43c1.02,1.04,2.42,1.55,4.19,1.55
			c1.54,0,2.94-0.32,4.22-0.96c0.34-0.17,0.59-0.26,0.74-0.26c0.23,0,0.44,0.15,0.61,0.45l1.6,2.75c0.19,0.34,0.29,0.61,0.29,0.8
			c0,0.24-0.13,0.45-0.38,0.64c-0.92,0.62-2.07,1.1-3.46,1.44s-2.96,0.51-4.7,0.51C192.66,475.23,189.64,474.28,187.49,472.37z"/>
		<path d="M207.12,474.3c-0.29-0.3-0.43-0.76-0.43-1.38v-18.11c0-0.62,0.14-1.08,0.43-1.38s0.78-0.45,1.49-0.45h3.81
			c0.73,0,1.23,0.14,1.52,0.43s0.43,0.75,0.43,1.39v14.5h7.46c0.68,0,1.15,0.14,1.39,0.43c0.24,0.29,0.37,0.75,0.37,1.39v1.79
			c0,0.64-0.12,1.1-0.37,1.39c-0.25,0.29-0.71,0.43-1.39,0.43h-13.22C207.9,474.75,207.41,474.6,207.12,474.3z"/>
		<path d="M224.98,474.3c-0.29-0.3-0.43-0.76-0.43-1.38v-18.11c0-0.62,0.14-1.08,0.43-1.38c0.29-0.3,0.78-0.45,1.49-0.45h3.81
			c0.73,0,1.23,0.14,1.52,0.43c0.29,0.29,0.43,0.75,0.43,1.39v18.11c0,0.62-0.14,1.08-0.43,1.38c-0.29,0.3-0.79,0.45-1.52,0.45
			h-3.81C225.76,474.75,225.26,474.6,224.98,474.3z"/>
		<path d="M234.9,474.3c-0.29-0.3-0.43-0.76-0.43-1.38v-18.11c0-0.62,0.14-1.08,0.43-1.38c0.29-0.3,0.78-0.45,1.49-0.45h13.25
			c0.68,0,1.15,0.14,1.39,0.43s0.37,0.75,0.37,1.39v1.79c0,0.64-0.12,1.1-0.37,1.39s-0.71,0.43-1.39,0.43h-7.49v2.75h4.61
			c0.68,0,1.15,0.14,1.39,0.43c0.24,0.29,0.37,0.75,0.37,1.39v1.73c0,0.64-0.12,1.1-0.37,1.39c-0.25,0.29-0.71,0.43-1.39,0.43h-4.61
			v2.75h7.46c0.68,0,1.15,0.14,1.39,0.43c0.25,0.29,0.37,0.75,0.37,1.39v1.79c0,0.64-0.12,1.1-0.37,1.39
			c-0.25,0.29-0.71,0.43-1.39,0.43h-13.21C235.68,474.75,235.18,474.6,234.9,474.3z"/>
		<path d="M253.26,474.3c-0.29-0.3-0.43-0.76-0.43-1.38v-18.14c0-0.62,0.14-1.07,0.43-1.36c0.29-0.29,0.79-0.43,1.52-0.43h3.04
			c0.45,0,0.79,0.06,1.04,0.18c0.25,0.12,0.49,0.35,0.72,0.69l5.79,8.61v-7.65c0-0.62,0.14-1.08,0.43-1.38
			c0.29-0.3,0.78-0.45,1.49-0.45h3.81c0.73,0,1.23,0.14,1.52,0.43s0.43,0.75,0.43,1.39v18.14c0,0.62-0.14,1.07-0.43,1.36
			s-0.79,0.43-1.52,0.43h-3.04c-0.45,0-0.79-0.06-1.04-0.18c-0.25-0.12-0.48-0.35-0.72-0.69l-5.79-8.61v7.68
			c0,0.62-0.14,1.07-0.43,1.36c-0.29,0.29-0.79,0.43-1.52,0.43h-3.81C254.05,474.75,253.55,474.6,253.26,474.3z"/>
		<path d="M280.82,474.3c-0.29-0.3-0.43-0.76-0.43-1.38v-14.5h-4.61c-0.68,0-1.15-0.14-1.39-0.43s-0.37-0.75-0.37-1.39v-1.79
			c0-0.64,0.12-1.1,0.37-1.39s0.71-0.43,1.39-0.43h16.9c0.68,0,1.15,0.14,1.39,0.43c0.24,0.29,0.37,0.75,0.37,1.39v1.79
			c0,0.64-0.12,1.1-0.37,1.39c-0.25,0.29-0.71,0.43-1.39,0.43h-4.61v14.5c0,0.62-0.14,1.08-0.43,1.38c-0.29,0.3-0.79,0.45-1.52,0.45
			h-3.81C281.6,474.75,281.1,474.6,280.82,474.3z"/>
		<path d="M295.82,474.3c-0.29-0.3-0.43-0.76-0.43-1.38v-18.11c0-0.62,0.14-1.08,0.43-1.38s0.78-0.45,1.49-0.45h13.25
			c0.68,0,1.15,0.14,1.39,0.43s0.37,0.75,0.37,1.39v1.79c0,0.64-0.12,1.1-0.37,1.39s-0.71,0.43-1.39,0.43h-7.49v2.75h4.61
			c0.68,0,1.15,0.14,1.39,0.43s0.37,0.75,0.37,1.39v1.73c0,0.64-0.12,1.1-0.37,1.39s-0.71,0.43-1.39,0.43h-4.61v2.75h7.46
			c0.68,0,1.15,0.14,1.39,0.43c0.24,0.29,0.37,0.75,0.37,1.39v1.79c0,0.64-0.12,1.1-0.37,1.39c-0.25,0.29-0.71,0.43-1.39,0.43
			h-13.22C296.61,474.75,296.11,474.6,295.82,474.3z"/>
		<path d="M317.82,474.62c-1.66-0.41-3.01-0.97-4.03-1.7c-0.43-0.3-0.64-0.59-0.64-0.86c0-0.19,0.07-0.39,0.22-0.61l1.86-2.91
			c0.19-0.28,0.38-0.42,0.58-0.42c0.17,0,0.37,0.08,0.61,0.22c0.77,0.47,1.65,0.84,2.64,1.1s1.96,0.4,2.9,0.4
			c0.79,0,1.36-0.11,1.71-0.32s0.53-0.54,0.53-0.99c0-0.49-0.24-0.88-0.7-1.18c-0.47-0.3-1.28-0.67-2.43-1.12
			c-2.15-0.83-3.85-1.78-5.09-2.83c-1.24-1.06-1.86-2.46-1.86-4.21c0-2.22,0.77-3.89,2.32-5.01c1.55-1.12,3.63-1.68,6.26-1.68
			c1.83,0,3.4,0.16,4.69,0.48c1.29,0.32,2.42,0.82,3.38,1.5c0.43,0.3,0.64,0.59,0.64,0.86c0,0.19-0.07,0.39-0.22,0.61l-1.86,2.91
			c-0.19,0.3-0.38,0.45-0.58,0.45c-0.13,0-0.33-0.08-0.61-0.26c-0.51-0.34-1.12-0.62-1.82-0.85c-0.7-0.22-1.46-0.34-2.27-0.34
			c-0.75,0-1.31,0.11-1.7,0.32c-0.38,0.21-0.58,0.55-0.58,1.02c0,0.38,0.13,0.7,0.4,0.96c0.27,0.26,0.6,0.47,1.01,0.66
			c0.41,0.18,1.11,0.48,2.11,0.88c1.6,0.64,2.86,1.25,3.78,1.84c0.92,0.59,1.61,1.29,2.08,2.11c0.47,0.82,0.71,1.86,0.71,3.12
			c0,1.92-0.72,3.47-2.16,4.66c-1.44,1.18-3.59,1.78-6.45,1.78C321.29,475.23,319.49,475.03,317.82,474.62z"/>
	</g>
	<g>
		<path class="st0" d="M9.5,209.36c0,22,13.29,27.86,29.54,13.03c0,0,156.99-143.3,353.09,26.97V55c0-22-18-40-40-40H49.5
			c-22,0-40,18-40,40V209.36z"/>
	</g>
	<g>
		<path class="st0" d="M391.66,647c0,22-18,40-40,40H49.98c-22,0-40-18-40-40v-46.27c0-22,18-40,40-40h301.68c22,0,40,18,40,40V647z
			"/>
	</g>
	<polygon class="st1" points="200.76,96.93 214.23,124.22 244.34,128.59 222.55,149.83 227.7,179.83 200.76,165.67 173.83,179.83 
		178.97,149.83 157.18,128.59 187.29,124.22 	"/>
	<polygon class="st1" points="138.58,180.15 147.32,197.86 166.86,200.7 152.72,214.48 156.06,233.94 138.58,224.75 121.11,233.94 
		124.45,214.48 110.31,200.7 129.85,197.86 	"/>
	<polygon class="st1" points="268.68,180.15 277.42,197.86 296.95,200.7 282.82,214.48 286.15,233.94 268.68,224.75 251.2,233.94 
		254.54,214.48 240.4,200.7 259.94,197.86 	"/>
	<circle class="st2" cx="201.77" cy="213.97" r="121.96"/>
	<circle class="st3" cx="200.82" cy="200.58" r="121.96"/>
	<g>
		<path class="st3" d="M179.5,640.97c-3.99-2.85-5.99-6.87-5.99-12.08c0-2.14,0.54-4.16,1.61-6.06c1.07-1.9,2.58-3.41,4.53-4.53
			c-1.66-1.07-2.88-2.38-3.69-3.94c-0.8-1.56-1.21-3.24-1.21-5.04c0-5.11,1.84-9.04,5.51-11.79c3.67-2.75,8.97-4.13,15.88-4.13
			c6.91,0,12.2,1.38,15.88,4.13c3.67,2.75,5.51,6.68,5.51,11.79c0,1.8-0.4,3.48-1.2,5.04c-0.8,1.56-2.03,2.87-3.69,3.94
			c1.95,1.12,3.45,2.63,4.53,4.53c1.07,1.9,1.61,3.92,1.61,6.06c0,5.21-2,9.23-5.99,12.08c-3.99,2.85-9.54,4.27-16.64,4.27
			C189.04,645.24,183.49,643.81,179.5,640.97z M201.4,628.74c0-1.41-0.44-2.48-1.31-3.21c-0.88-0.73-2.19-1.09-3.94-1.09
			c-3.46,0-5.18,1.44-5.18,4.31c0,2.82,1.73,4.23,5.18,4.23C199.65,632.97,201.4,631.56,201.4,628.74z M200.09,609.39
			c0-1.31-0.32-2.26-0.95-2.85c-0.63-0.58-1.63-0.88-2.99-0.88c-1.36,0-2.36,0.29-2.99,0.88c-0.63,0.58-0.95,1.53-0.95,2.85
			c0,2.14,1.31,3.21,3.94,3.21S200.09,611.54,200.09,609.39z"/>
	</g>
	<g>
		<g>
			<circle id="XMLID_8256_" class="st5" cx="197.28" cy="172.18" r="60.25"/>
			<g id="XMLID_7217_">
				<path id="XMLID_7228_" class="st41" d="M181.52,191.97c1.48-1.26,2.34-0.93,2.34-0.93s-0.15,0.06-0.34,0.24
					c0.04-0.03,0.08-0.05,0.12-0.07c5.23-3.14,5.74-8.24,5.77-11.2c-0.58-0.46-1.15-0.94-1.68-1.46c-3.7-3.57-3.67-12.6-4.56-11.96
					c-2.04,1.37-3.35-2.71-3.61-5.14c-0.16-1.49,0.2-2.44,0.74-2.72c0.29-0.06,0.53-0.05,0.73,0.01c0.13,0.07,0.27,0.16,0.4,0.29
					c0.15,0.15,0.27,0.24,0.38,0.3c0.29,0.42,0.41,0.87,0.66,0.8c1.78-0.47,5.72-3.97,10.13-7.48c5.58-4.44,8.89-5.66,12.27-6.04
					c0,0,0.27,1.9,3.66,4.71c3.38,2.81,4.26,8.82,4.96,8.37c0.43-0.27,0.98,0.11,1.34-0.98c0.84-0.3,1.58,0.72,1.37,2.75
					c-0.26,2.42-1.56,6.51-3.61,5.14c-0.89-0.64-0.86,8.39-4.56,11.96c-0.27,0.26-0.54,0.51-0.81,0.75
					c-0.28,0.25-0.58,0.47-0.87,0.7c0.02,2.96,0.53,8.06,5.77,11.2c0.04,0.02,0.08,0.05,0.12,0.07c-0.19-0.18-0.34-0.24-0.34-0.24
					s0.86-0.33,2.34,0.93c0.43,0.37,1.26,0.91,2.11,1.69c0.93,0.36,2.99,1.09,5.38,1.94c1.29-2.07,1.72-4.51-0.48-6.85
					c-6.25-6.68,0.77-5.73,0.48-13.05c-0.19-4.66-5.19-6.41-3.6-11.39c2.52-7.93-1.27-21.8-7.24-24.13
					c-14.14-9.53-27.81-4.42-32.55,8.47c-4.97,13.49,3.58,15.32-2.61,21.51c-2.04,2.04-2.76,5.26-1.94,7.34
					c1.58,4.03,5.4,8.14,2.73,10.68c-2.67,2.53-4.48,4.74-3.11,7.59c2.64-0.95,5.02-1.79,6.15-2.21
					C180.33,192.83,181.11,192.32,181.52,191.97z"/>
				<path id="XMLID_7227_" class="st42" d="M211.69,203.26l0.02,0.01c0.01-0.01,0.01-0.01,0.02-0.02
					C211.7,203.26,211.69,203.26,211.69,203.26z"/>
				<path id="XMLID_7226_" class="st42" d="M185.14,200.36c0.84,1.19,2.19,3.37,3.69,6c3.22,1.69,6.5,2.73,9.04,2.73
					c2.51,0,5.81-1.06,9.06-2.77c1.5-2.62,2.83-4.78,3.67-5.96c3.38-4.8,2.56-6.68,2.46-7.29c-0.17-1.01-0.56-1.53-0.84-1.8
					c-0.04-0.03-0.08-0.05-0.12-0.07c-5.23-3.14-5.74-8.24-5.77-11.2c-0.61,0.48-1.23,0.93-1.9,1.32c-0.84,0.49-1.74,0.9-2.67,1.2
					c-0.85,0.27-1.72,0.45-2.61,0.54c-1.1,0.11-2.23,0.08-3.32-0.1c-0.9-0.14-1.77-0.38-2.62-0.71c-0.95-0.37-1.85-0.86-2.69-1.42
					c-0.39-0.26-0.76-0.55-1.12-0.84c-0.02,2.96-0.53,8.06-5.77,11.2c-0.04,0.03-0.08,0.05-0.12,0.07
					c-0.28,0.26-0.67,0.79-0.84,1.79C182.57,193.68,181.76,195.57,185.14,200.36z"/>
				<path id="XMLID_7225_" class="st43" d="M193.22,182.27c0.84,0.33,1.72,0.57,2.62,0.71c1.09,0.17,2.22,0.21,3.32,0.1
					c0.88-0.09,1.76-0.27,2.61-0.54c0.93-0.3,1.82-0.71,2.67-1.2c0.67-0.39,1.29-0.85,1.9-1.32c0.29-0.23,0.59-0.46,0.87-0.7
					c0.28-0.24,0.55-0.49,0.81-0.75c3.7-3.57,3.67-12.6,4.56-11.96c2.04,1.37,3.35-2.71,3.61-5.14c0.21-2.02-0.52-3.05-1.37-2.75
					c-0.36,1.1-0.91,0.71-1.34,0.98c-0.7,0.45-1.58-5.57-4.96-8.37c-3.38-2.81-3.66-4.71-3.66-4.71c-3.38,0.38-6.69,1.61-12.27,6.04
					c-4.41,3.51-8.35,7.01-10.13,7.48c-0.25,0.07-0.38-0.39-0.66-0.8c-0.11-0.06-0.23-0.15-0.38-0.3c-0.13-0.13-0.27-0.23-0.4-0.29
					c-0.2-0.05-0.44-0.06-0.73-0.01c-0.53,0.28-0.89,1.24-0.74,2.72c0.26,2.42,1.56,6.51,3.61,5.14c0.89-0.64,0.86,8.39,4.56,11.96
					c0.53,0.52,1.1,1,1.68,1.46c0.37,0.29,0.73,0.58,1.12,0.84C191.38,181.41,192.28,181.9,193.22,182.27z"/>
				<path id="XMLID_7224_" class="st44" d="M211.71,203.27l0.07,0.05c0.02-0.03,0.04-0.05,0.05-0.07c-0.04,0-0.08,0.01-0.1,0.01
					C211.72,203.26,211.71,203.27,211.71,203.27z"/>
				<path id="XMLID_7223_" class="st44" d="M188.83,206.36c3.76,6.56,8.52,15.99,9.04,20.31c0.52-4.33,5.3-13.79,9.06-20.35
					c-3.25,1.71-6.55,2.77-9.06,2.77C195.34,209.09,192.05,208.05,188.83,206.36z"/>
				<path id="XMLID_7222_" class="st45" d="M233.02,200.05c0.05-0.02,0.1-0.02,0.15-0.01c-1.16-0.73-6.89-2.81-11.45-4.44
					c-2.39-0.85-4.45-1.59-5.38-1.94c0.63,0.58,1.27,1.29,1.76,2.17c1.71,3.06,1.8,4.93,3.01,5.83c1.13,0.84-8.04,1.5-9.28,1.59
					c-0.02,0.02-0.04,0.05-0.05,0.07l6.61,4.99c0,0-7.5,8.58-12.57,12.27c-1.57,1.14-3.12,3.26-4.41,4.71
					c-1.49,1.67-1.68,2.61-2.88,4.59c0,0,0,0,0,0c0.19,0.86,0.37,1.66,0.43,2.1c0.02,0.14,0.03,0.26,0.05,0.39
					c9.31-0.26,18.09-2.63,25.88-6.65C225.01,219.94,224.81,203.68,233.02,200.05z"/>
				<path id="XMLID_7221_" class="st46" d="M198.52,229.89c-1.41-1.23-2.68-2.92-4.17-4.59c-1.29-1.45-2.84-3.56-4.41-4.71
					c-5.07-3.7-12.57-12.27-12.57-12.27l6.69-5.05c0,0-10.63-0.7-9.42-1.6c1.21-0.9,1.3-2.77,3.01-5.83
					c0.52-0.93,1.21-1.68,1.89-2.28c-1.12,0.42-3.51,1.27-6.15,2.21c-4.77,1.71-10.36,3.76-10.72,4.26
					c-0.05,0.06-0.09,0.14-0.13,0.21c0.15-0.17,0.29-0.24,0.42-0.19c8.58,3.8,7.97,21.41,8.17,26.41
					c7.91,3.82,16.79,5.96,26.16,5.96c0.57,0,1.14-0.03,1.71-0.04c-0.02-0.13-0.03-0.26-0.05-0.39
					C198.88,231.55,198.71,230.74,198.52,229.89z"/>
				<path id="XMLID_7220_" class="st47" d="M211.88,191.04c0,0,0.15,0.06,0.34,0.24c0.28,0.26,0.67,0.78,0.84,1.8
					c0.1,0.61,0.92,2.49-2.46,7.29c-0.84,1.19-2.17,3.35-3.67,5.96c-3.76,6.56-8.54,16.02-9.06,20.35
					c-0.52-4.32-5.28-13.75-9.04-20.31c-1.51-2.63-2.85-4.81-3.69-6c-3.38-4.8-2.56-6.68-2.46-7.29c0.17-1.01,0.56-1.53,0.84-1.79
					c0.19-0.18,0.34-0.24,0.34-0.24s-0.86-0.33-2.34,0.93c-0.41,0.35-1.18,0.86-1.99,1.58c-0.67,0.6-1.36,1.34-1.89,2.28
					c-1.71,3.06-1.8,4.93-3.01,5.83c-1.21,0.9,9.42,1.6,9.42,1.6l-6.69,5.05c0,0,7.5,8.58,12.57,12.27
					c1.57,1.14,3.12,3.26,4.41,4.71c1.49,1.67,2.76,3.36,4.17,4.59c0,0,0,0,0,0c1.21-1.98,1.39-2.92,2.88-4.59
					c1.29-1.45,2.84-3.56,4.41-4.71c5.07-3.7,12.57-12.27,12.57-12.27l-6.61-4.99l-0.07-0.05l-0.02-0.01c0,0,0.02,0,0.04,0
					c0.02,0,0.06,0,0.1-0.01c1.24-0.09,10.41-0.75,9.28-1.59c-1.21-0.9-1.3-2.77-3.01-5.83c-0.49-0.88-1.13-1.58-1.76-2.17
					c-0.85-0.78-1.68-1.33-2.11-1.69C212.74,190.71,211.88,191.04,211.88,191.04z"/>
				<path id="XMLID_7219_" class="st47" d="M233.16,200.04c-0.05-0.01-0.1-0.01-0.15,0.01c-8.21,3.63-8,19.88-8.14,25.68
					c4.85-2.5,9.32-5.64,13.29-9.31C236.21,207.5,234.22,200.29,233.16,200.04z"/>
				<path id="XMLID_7218_" class="st47" d="M162.95,200.05c-0.12-0.05-0.26,0.02-0.42,0.19c-1.15,1.27-3.09,8.55-4.96,17.23
					c4.07,3.57,8.61,6.61,13.54,8.99C170.92,221.46,171.53,203.85,162.95,200.05z"/>
			</g>
		</g>
		<path class="st4" d="M264,278.64H133c-6.6,0-12-5.4-12-12v-18.11c0-6.6,5.4-12,12-12h131c6.6,0,12,5.4,12,12v18.11
			C276,273.24,270.6,278.64,264,278.64z"/>
		<polygon class="st48" points="161.71,269.35 152.27,264.84 143.2,270.06 144.57,259.69 136.8,252.68 147.09,250.78 151.35,241.22 
			156.34,250.42 166.75,251.52 159.54,259.11 		"/>
		<polygon class="st48" points="211.88,268.45 202.44,263.94 193.37,269.17 194.74,258.79 186.97,251.78 197.26,249.88 
			201.53,240.32 206.52,249.52 216.92,250.63 209.72,258.21 		"/>
		<polygon class="st48" points="260.26,269.35 250.82,264.84 241.75,270.06 243.12,259.69 235.35,252.68 245.64,250.78 
			249.91,241.22 254.9,250.42 265.3,251.52 258.1,259.11 		"/>
	</g>
</g>
</svg>
