<?xml version="1.0" encoding="utf-8"?>
<!-- Generator: Adobe Illustrator 23.0.0, SVG Export Plug-In . SVG Version: 6.00 Build 0)  -->
<svg version="1.1" id="Capa_1" xmlns="http://www.w3.org/2000/svg" xmlns:xlink="http://www.w3.org/1999/xlink" x="0px" y="0px"
	 viewBox="0 0 400 702" style="enable-background:new 0 0 400 702;" xml:space="preserve">
<style type="text/css">
	.st0{fill:#00D13C;}
	.st1{fill:#E0EF18;}
	.st2{fill:#CECECE;}
	.st3{fill:#FFFFFF;}
	.st4{fill:#0085B0;}
	.st5{fill:#F2F2F2;}
	.st6{fill:#EACCB0;}
	.st7{fill:#9B9B9B;}
	.st8{fill:#939393;}
	.st9{fill:#EFEFEF;}
	.st10{fill:#828282;}
	.st11{fill:#2C2A2D;}
	.st12{fill:#202021;}
	.st13{fill:#F2D4B6;}
	.st14{fill:#534D46;}
	.st15{fill:#E8D313;}
	.st16{fill:#2ACCFF;}
	.st17{fill:#4E4F4F;}
	.st18{fill:#003A94;}
	.st19{fill:#15682A;}
	.st20{fill:#D40000;}
	.st21{fill:#505050;}
	.st22{fill:none;}
	.st23{fill:#636363;}
	.st24{fill:#DFDFDF;}
	.st25{fill:#6C92D5;}
	.st26{fill:#22272F;}
	.st27{fill:#1B2538;}
	.st28{fill:#253452;}
	.st29{fill:#F9F9F9;}
	.st30{fill:#2D3543;}
	.st31{fill:#2A3D60;}
	.st32{fill:#587955;}
	.st33{fill:#CD7054;}
	.st34{fill:#F1CC4B;}
	.st35{fill:#ACACAC;}
	.st36{fill:#AAE528;}
	.st37{fill:#28CEBA;}
	.st38{fill:#DB143F;}
	.st39{fill:#53C2C9;}
	.st40{fill:#FFB412;}
	.st41{fill:#866A5E;}
	.st42{fill:#F7DDCB;}
	.st43{fill:#FFE6D4;}
	.st44{fill:#F5F5F5;}
	.st45{fill:#1A2830;}
	.st46{fill:#24353F;}
	.st47{fill:#132026;}
	.st48{fill:#F9FF03;}
	.st49{fill:#272728;}
	.st50{fill:#1E1D1E;}
	.st51{fill:#160423;}
	.st52{fill-rule:evenodd;clip-rule:evenodd;fill:#FFFFFF;}
	.st53{fill-rule:evenodd;clip-rule:evenodd;fill:#1996B8;}
	.st54{fill:#0C387D;}
	.st55{fill:#C69A81;}
	.st56{fill:#D1A385;}
	.st57{fill:#EAEAEA;}
	.st58{fill:#093E8C;}
	.st59{fill:#0B2A62;}
	.st60{fill:#D32A3B;}
	.st61{fill:#827C7D;}
	.st62{opacity:0.7;fill:#7F7F7F;}
	.st63{fill:#FDFDFD;}
	.st64{fill:#DAA449;}
	.st65{fill:#DD9225;}
	.st66{opacity:0.3;}
</style>
<g>
	<g>
		<path class="st4" d="M9.5,209.36c0,22,13.29,27.86,29.54,13.03c0,0,156.99-143.3,353.09,26.97V55c0-22-18-40-40-40H49.5
			c-22,0-40,18-40,40V209.36z"/>
	</g>
	<g>
		<path class="st4" d="M391.66,647c0,22-18,40-40,40H49.98c-22,0-40-18-40-40v-46.27c0-22,18-40,40-40h301.68c22,0,40,18,40,40V647z
			"/>
	</g>
	<g>
		<path d="M66.69,396.5c-0.29-0.3-0.43-0.76-0.43-1.38v-18.11c0-0.62,0.14-1.08,0.43-1.38c0.29-0.3,0.78-0.45,1.49-0.45h3.81
			c0.73,0,1.23,0.14,1.52,0.43c0.29,0.29,0.43,0.75,0.43,1.39v18.11c0,0.62-0.14,1.08-0.43,1.38c-0.29,0.3-0.79,0.45-1.52,0.45
			h-3.81C67.47,396.95,66.98,396.8,66.69,396.5z"/>
		<path d="M76.61,396.5c-0.29-0.3-0.43-0.76-0.43-1.38v-18.14c0-0.62,0.14-1.07,0.43-1.36c0.29-0.29,0.79-0.43,1.52-0.43h3.04
			c0.45,0,0.79,0.06,1.04,0.18c0.25,0.12,0.49,0.35,0.72,0.69l5.79,8.61v-7.65c0-0.62,0.14-1.08,0.43-1.38
			c0.29-0.3,0.78-0.45,1.49-0.45h3.81c0.73,0,1.23,0.14,1.52,0.43s0.43,0.75,0.43,1.39v18.14c0,0.62-0.14,1.07-0.43,1.36
			s-0.79,0.43-1.52,0.43h-3.04c-0.45,0-0.79-0.06-1.04-0.18c-0.25-0.12-0.49-0.35-0.72-0.69l-5.79-8.61v7.68
			c0,0.62-0.14,1.07-0.43,1.36c-0.29,0.29-0.79,0.43-1.52,0.43H78.1C77.39,396.95,76.9,396.8,76.61,396.5z"/>
		<path d="M101.23,394.57c-2.15-1.91-3.23-4.74-3.23-8.5c0-3.78,1.04-6.61,3.12-8.51s5.05-2.85,8.91-2.85
			c1.75,0,3.31,0.17,4.67,0.51c1.36,0.34,2.51,0.82,3.42,1.44c0.26,0.19,0.38,0.41,0.38,0.64c0,0.19-0.1,0.46-0.29,0.8l-1.6,2.75
			c-0.17,0.3-0.37,0.45-0.61,0.45c-0.15,0-0.4-0.08-0.74-0.26c-0.6-0.3-1.22-0.53-1.87-0.7c-0.65-0.17-1.41-0.26-2.29-0.26
			c-1.77,0-3.13,0.51-4.06,1.54c-0.94,1.02-1.41,2.51-1.41,4.45c0,1.92,0.51,3.4,1.54,4.43c1.02,1.04,2.42,1.55,4.19,1.55
			c1.54,0,2.94-0.32,4.22-0.96c0.34-0.17,0.59-0.26,0.74-0.26c0.23,0,0.44,0.15,0.61,0.45l1.6,2.75c0.19,0.34,0.29,0.61,0.29,0.8
			c0,0.24-0.13,0.45-0.38,0.64c-0.92,0.62-2.07,1.1-3.46,1.44c-1.39,0.34-2.96,0.51-4.7,0.51
			C106.41,397.43,103.39,396.48,101.23,394.57z"/>
		<path d="M120.87,396.5c-0.29-0.3-0.43-0.76-0.43-1.38v-18.11c0-0.62,0.14-1.08,0.43-1.38c0.29-0.3,0.78-0.45,1.49-0.45H130
			c3.2,0,5.53,0.63,6.99,1.9c1.46,1.27,2.19,3.18,2.19,5.74c0,1.54-0.26,2.83-0.78,3.89c-0.52,1.06-1.33,1.88-2.42,2.48l2.98,6.37
			c0.08,0.17,0.13,0.36,0.13,0.58c0,0.23-0.08,0.43-0.24,0.58c-0.16,0.15-0.37,0.22-0.62,0.22h-5.41c-0.34,0-0.61-0.05-0.82-0.14
			c-0.2-0.1-0.35-0.26-0.43-0.5l-2.37-5.95h-1.09v4.77c0,0.62-0.14,1.08-0.43,1.38c-0.29,0.3-0.79,0.45-1.52,0.45h-3.81
			C121.65,396.95,121.15,396.8,120.87,396.5z M129.33,385.02c0.68,0,1.22-0.18,1.62-0.54c0.39-0.36,0.59-0.91,0.59-1.63
			c0-0.75-0.2-1.3-0.59-1.66c-0.4-0.36-0.93-0.54-1.62-0.54h-2.18v4.38H129.33z"/>
		<path d="M141.22,396.5c-0.29-0.3-0.43-0.76-0.43-1.38v-18.11c0-0.62,0.14-1.08,0.43-1.38c0.29-0.3,0.78-0.45,1.49-0.45h13.25
			c0.68,0,1.15,0.14,1.39,0.43c0.24,0.29,0.37,0.75,0.37,1.39v1.79c0,0.64-0.12,1.1-0.37,1.39c-0.25,0.29-0.71,0.43-1.39,0.43h-7.49
			v2.75h4.61c0.68,0,1.15,0.14,1.39,0.43s0.37,0.75,0.37,1.39v1.73c0,0.64-0.12,1.1-0.37,1.39s-0.71,0.43-1.39,0.43h-4.61v2.75h7.46
			c0.68,0,1.15,0.14,1.39,0.43c0.25,0.29,0.37,0.75,0.37,1.39v1.79c0,0.64-0.12,1.1-0.37,1.39c-0.25,0.29-0.71,0.43-1.39,0.43
			h-13.22C142,396.95,141.51,396.8,141.22,396.5z"/>
		<path d="M159.59,396.5c-0.29-0.3-0.43-0.76-0.43-1.38v-18.14c0-0.62,0.14-1.07,0.43-1.36c0.29-0.29,0.79-0.43,1.52-0.43h3.68
			c0.47,0,0.84,0.06,1.12,0.18c0.28,0.12,0.49,0.35,0.64,0.69l3.74,9.38l3.74-9.38c0.15-0.34,0.36-0.57,0.64-0.69
			c0.28-0.12,0.65-0.18,1.12-0.18h3.68c0.73,0,1.23,0.14,1.52,0.43s0.43,0.74,0.43,1.36v18.14c0,0.62-0.14,1.08-0.43,1.38
			c-0.29,0.3-0.78,0.45-1.49,0.45h-3.07c-0.7,0-1.21-0.15-1.5-0.45c-0.3-0.3-0.45-0.76-0.45-1.38v-8.74l-1.89,4.35
			c-0.26,0.62-0.53,1.06-0.83,1.33c-0.3,0.27-0.79,0.4-1.47,0.4s-1.17-0.13-1.47-0.4c-0.3-0.27-0.58-0.71-0.83-1.33l-1.89-4.35v8.74
			c0,0.62-0.14,1.08-0.43,1.38c-0.29,0.3-0.79,0.45-1.52,0.45h-3.07C160.37,396.95,159.87,396.8,159.59,396.5z"/>
		<path d="M184.1,396.5c-0.29-0.3-0.43-0.76-0.43-1.38v-18.11c0-0.62,0.14-1.08,0.43-1.38c0.29-0.3,0.78-0.45,1.49-0.45h13.25
			c0.68,0,1.15,0.14,1.39,0.43c0.24,0.29,0.37,0.75,0.37,1.39v1.79c0,0.64-0.12,1.1-0.37,1.39c-0.25,0.29-0.71,0.43-1.39,0.43h-7.49
			v2.75h4.61c0.68,0,1.15,0.14,1.39,0.43s0.37,0.75,0.37,1.39v1.73c0,0.64-0.12,1.1-0.37,1.39s-0.71,0.43-1.39,0.43h-4.61v2.75h7.46
			c0.68,0,1.15,0.14,1.39,0.43c0.25,0.29,0.37,0.75,0.37,1.39v1.79c0,0.64-0.12,1.1-0.37,1.39c-0.25,0.29-0.71,0.43-1.39,0.43
			h-13.22C184.88,396.95,184.39,396.8,184.1,396.5z"/>
		<path d="M202.46,396.5c-0.29-0.3-0.43-0.76-0.43-1.38v-18.14c0-0.62,0.14-1.07,0.43-1.36c0.29-0.29,0.79-0.43,1.52-0.43h3.04
			c0.45,0,0.79,0.06,1.04,0.18c0.25,0.12,0.49,0.35,0.72,0.69l5.79,8.61v-7.65c0-0.62,0.14-1.08,0.43-1.38
			c0.29-0.3,0.78-0.45,1.49-0.45h3.81c0.73,0,1.23,0.14,1.52,0.43s0.43,0.75,0.43,1.39v18.14c0,0.62-0.14,1.07-0.43,1.36
			s-0.79,0.43-1.52,0.43h-3.04c-0.45,0-0.79-0.06-1.04-0.18c-0.25-0.12-0.49-0.35-0.72-0.69l-5.79-8.61v7.68
			c0,0.62-0.14,1.07-0.43,1.36c-0.29,0.29-0.79,0.43-1.52,0.43h-3.81C203.25,396.95,202.75,396.8,202.46,396.5z"/>
		<path d="M230.02,396.5c-0.29-0.3-0.43-0.76-0.43-1.38v-14.5h-4.61c-0.68,0-1.15-0.14-1.39-0.43s-0.37-0.75-0.37-1.39v-1.79
			c0-0.64,0.12-1.1,0.37-1.39s0.71-0.43,1.39-0.43h16.9c0.68,0,1.15,0.14,1.39,0.43c0.24,0.29,0.37,0.75,0.37,1.39v1.79
			c0,0.64-0.12,1.1-0.37,1.39c-0.25,0.29-0.71,0.43-1.39,0.43h-4.61v14.5c0,0.62-0.14,1.08-0.43,1.38c-0.29,0.3-0.79,0.45-1.52,0.45
			h-3.81C230.8,396.95,230.31,396.8,230.02,396.5z"/>
		<path d="M239.95,396.28c0-0.19,0.05-0.43,0.16-0.7l7.97-19.17c0.19-0.45,0.41-0.76,0.66-0.94c0.24-0.18,0.59-0.27,1.04-0.27h3.49
			c0.45,0,0.79,0.09,1.04,0.27c0.25,0.18,0.46,0.5,0.66,0.94l7.94,19.17c0.11,0.28,0.16,0.51,0.16,0.7c0,0.45-0.23,0.67-0.7,0.67
			h-6.02c-0.66,0-1.08-0.29-1.25-0.86l-0.77-2.37h-5.66l-0.74,2.37c-0.17,0.58-0.59,0.86-1.25,0.86h-6.02
			C240.19,396.95,239.95,396.73,239.95,396.28z M252.75,388.66l-1.25-3.97l-1.25,3.97H252.75z"/>
		<path d="M265.09,396.5c-0.29-0.3-0.43-0.76-0.43-1.38v-18.11c0-0.62,0.14-1.08,0.43-1.38c0.29-0.3,0.78-0.45,1.49-0.45h7.65
			c3.2,0,5.53,0.63,6.99,1.9c1.46,1.27,2.19,3.18,2.19,5.74c0,1.54-0.26,2.83-0.78,3.89c-0.52,1.06-1.33,1.88-2.42,2.48l2.98,6.37
			c0.08,0.17,0.13,0.36,0.13,0.58c0,0.23-0.08,0.43-0.24,0.58c-0.16,0.15-0.37,0.22-0.62,0.22h-5.41c-0.34,0-0.61-0.05-0.82-0.14
			c-0.2-0.1-0.35-0.26-0.43-0.5l-2.37-5.95h-1.09v4.77c0,0.62-0.14,1.08-0.43,1.38c-0.29,0.3-0.79,0.45-1.52,0.45h-3.81
			C265.87,396.95,265.38,396.8,265.09,396.5z M273.55,385.02c0.68,0,1.22-0.18,1.62-0.54c0.39-0.36,0.59-0.91,0.59-1.63
			c0-0.75-0.2-1.3-0.59-1.66c-0.4-0.36-0.93-0.54-1.62-0.54h-2.18v4.38H273.55z"/>
		<path d="M295.04,396.5c-0.29-0.3-0.43-0.76-0.43-1.38v-18.11c0-0.62,0.14-1.08,0.43-1.38c0.29-0.3,0.78-0.45,1.49-0.45h3.81
			c0.73,0,1.23,0.14,1.52,0.43c0.29,0.29,0.43,0.75,0.43,1.39v14.5h7.46c0.68,0,1.15,0.14,1.39,0.43c0.25,0.29,0.37,0.75,0.37,1.39
			v1.79c0,0.64-0.12,1.1-0.37,1.39c-0.25,0.29-0.71,0.43-1.39,0.43h-13.22C295.82,396.95,295.33,396.8,295.04,396.5z"/>
		<path d="M311.34,396.28c0-0.19,0.05-0.43,0.16-0.7l7.97-19.17c0.19-0.45,0.41-0.76,0.66-0.94c0.24-0.18,0.59-0.27,1.04-0.27h3.49
			c0.45,0,0.79,0.09,1.04,0.27c0.25,0.18,0.46,0.5,0.66,0.94l7.94,19.17c0.11,0.28,0.16,0.51,0.16,0.7c0,0.45-0.23,0.67-0.7,0.67
			h-6.02c-0.66,0-1.08-0.29-1.25-0.86l-0.77-2.37h-5.66l-0.74,2.37c-0.17,0.58-0.59,0.86-1.25,0.86h-6.02
			C311.58,396.95,311.34,396.73,311.34,396.28z M324.14,388.66l-1.25-3.97l-1.25,3.97H324.14z"/>
		<path d="M46.21,434.9c-0.29-0.3-0.43-0.76-0.43-1.38v-18.11c0-0.62,0.14-1.08,0.43-1.38c0.29-0.3,0.78-0.45,1.49-0.45h7.65
			c3.2,0,5.53,0.63,6.99,1.9c1.46,1.27,2.19,3.18,2.19,5.74c0,2.56-0.73,4.47-2.19,5.73c-1.46,1.26-3.78,1.89-6.96,1.89h-1.92v4.67
			c0,0.62-0.14,1.08-0.43,1.38c-0.29,0.3-0.79,0.45-1.52,0.45H47.7C46.99,435.35,46.5,435.2,46.21,434.9z M54.67,423.42
			c0.68,0,1.22-0.18,1.62-0.54c0.39-0.36,0.59-0.91,0.59-1.63c0-0.75-0.2-1.3-0.59-1.66c-0.4-0.36-0.93-0.54-1.62-0.54H52.5v4.38
			H54.67z"/>
		<path d="M65.92,434.9c-0.29-0.3-0.43-0.76-0.43-1.38v-18.11c0-0.62,0.14-1.08,0.43-1.38c0.29-0.3,0.78-0.45,1.49-0.45h7.65
			c3.2,0,5.53,0.63,6.99,1.9c1.46,1.27,2.19,3.18,2.19,5.74c0,1.54-0.26,2.83-0.78,3.89c-0.52,1.06-1.33,1.88-2.42,2.48l2.98,6.37
			c0.08,0.17,0.13,0.36,0.13,0.58c0,0.23-0.08,0.43-0.24,0.58c-0.16,0.15-0.37,0.22-0.62,0.22h-5.41c-0.34,0-0.61-0.05-0.82-0.14
			c-0.2-0.1-0.35-0.26-0.43-0.5l-2.37-5.95h-1.09v4.77c0,0.62-0.14,1.08-0.43,1.38c-0.29,0.3-0.79,0.45-1.52,0.45h-3.81
			C66.71,435.35,66.21,435.2,65.92,434.9z M74.39,423.42c0.68,0,1.22-0.18,1.62-0.54c0.39-0.36,0.59-0.91,0.59-1.63
			c0-0.75-0.2-1.3-0.59-1.66c-0.4-0.36-0.93-0.54-1.62-0.54h-2.18v4.38H74.39z"/>
		<path d="M88.15,432.87c-1.96-1.97-2.94-4.77-2.94-8.4s0.98-6.43,2.94-8.4c1.96-1.97,4.84-2.96,8.64-2.96
			c3.8,0,6.68,0.99,8.64,2.96c1.96,1.97,2.94,4.77,2.94,8.4s-0.98,6.43-2.94,8.4c-1.96,1.97-4.84,2.96-8.64,2.96
			C92.99,435.83,90.11,434.85,88.15,432.87z M99.79,428.97c0.62-0.99,0.93-2.49,0.93-4.5c0-2.03-0.31-3.53-0.93-4.51
			s-1.62-1.47-3.01-1.47c-1.39,0-2.39,0.49-3.01,1.47c-0.62,0.98-0.93,2.49-0.93,4.51c0,2.01,0.31,3.5,0.93,4.5
			c0.62,0.99,1.62,1.49,3.01,1.49C98.17,430.46,99.18,429.96,99.79,428.97z"/>
		<path d="M110.4,434.9c-0.29-0.3-0.43-0.76-0.43-1.38v-18.11c0-0.62,0.14-1.08,0.43-1.38c0.29-0.3,0.78-0.45,1.49-0.45h7.36
			c7.53,0,11.3,3.63,11.3,10.88c0,3.58-0.97,6.29-2.9,8.13s-4.73,2.75-8.4,2.75h-7.36C111.19,435.35,110.69,435.2,110.4,434.9z
			 M119.54,429.91c1.19,0,2.05-0.39,2.58-1.18c0.52-0.79,0.78-2.21,0.78-4.26s-0.26-3.47-0.78-4.26c-0.52-0.79-1.38-1.18-2.58-1.18
			h-1.89v10.88H119.54z"/>
		<path d="M136.98,434.82c-1.58-0.67-2.81-1.64-3.68-2.91c-0.88-1.27-1.31-2.78-1.31-4.53v-11.97c0-0.62,0.14-1.08,0.43-1.38
			s0.78-0.45,1.49-0.45h3.81c0.73,0,1.23,0.14,1.52,0.43s0.43,0.75,0.43,1.39v12.06c0,1,0.25,1.75,0.75,2.24
			c0.5,0.49,1.19,0.74,2.06,0.74c0.87,0,1.56-0.24,2.06-0.74c0.5-0.49,0.75-1.24,0.75-2.24v-12.06c0-0.62,0.14-1.08,0.43-1.38
			s0.78-0.45,1.49-0.45h3.81c0.73,0,1.23,0.14,1.52,0.43s0.43,0.75,0.43,1.39v11.97c0,1.75-0.44,3.26-1.31,4.53
			c-0.88,1.27-2.1,2.24-3.68,2.91c-1.58,0.67-3.41,1.01-5.5,1.01C140.39,435.83,138.56,435.5,136.98,434.82z"/>
		<path d="M157.65,432.97c-2.15-1.91-3.23-4.74-3.23-8.5c0-3.78,1.04-6.61,3.12-8.51s5.05-2.85,8.91-2.85
			c1.75,0,3.31,0.17,4.67,0.51c1.36,0.34,2.51,0.82,3.42,1.44c0.26,0.19,0.38,0.41,0.38,0.64c0,0.19-0.1,0.46-0.29,0.8l-1.6,2.75
			c-0.17,0.3-0.37,0.45-0.61,0.45c-0.15,0-0.4-0.08-0.74-0.26c-0.6-0.3-1.22-0.53-1.87-0.7c-0.65-0.17-1.41-0.26-2.29-0.26
			c-1.77,0-3.13,0.51-4.06,1.54c-0.94,1.02-1.41,2.51-1.41,4.45c0,1.92,0.51,3.4,1.54,4.43c1.02,1.04,2.42,1.55,4.19,1.55
			c1.54,0,2.94-0.32,4.22-0.96c0.34-0.17,0.59-0.26,0.74-0.26c0.23,0,0.44,0.15,0.61,0.45l1.6,2.75c0.19,0.34,0.29,0.61,0.29,0.8
			c0,0.24-0.13,0.45-0.38,0.64c-0.92,0.62-2.07,1.1-3.46,1.44c-1.39,0.34-2.96,0.51-4.7,0.51
			C162.82,435.83,159.8,434.88,157.65,432.97z"/>
		<path d="M181.57,434.9c-0.29-0.3-0.43-0.76-0.43-1.38v-14.5h-4.61c-0.68,0-1.15-0.14-1.39-0.43s-0.37-0.75-0.37-1.39v-1.79
			c0-0.64,0.12-1.1,0.37-1.39s0.71-0.43,1.39-0.43h16.9c0.68,0,1.15,0.14,1.39,0.43c0.24,0.29,0.37,0.75,0.37,1.39v1.79
			c0,0.64-0.12,1.1-0.37,1.39c-0.25,0.29-0.71,0.43-1.39,0.43h-4.61v14.5c0,0.62-0.14,1.08-0.43,1.38c-0.29,0.3-0.79,0.45-1.52,0.45
			h-3.81C182.35,435.35,181.86,435.2,181.57,434.9z"/>
		<path d="M196.58,434.9c-0.29-0.3-0.43-0.76-0.43-1.38v-18.11c0-0.62,0.14-1.08,0.43-1.38c0.29-0.3,0.78-0.45,1.49-0.45h3.81
			c0.73,0,1.23,0.14,1.52,0.43c0.29,0.29,0.43,0.75,0.43,1.39v18.11c0,0.62-0.14,1.08-0.43,1.38c-0.29,0.3-0.79,0.45-1.52,0.45
			h-3.81C197.36,435.35,196.87,435.2,196.58,434.9z"/>
		<path d="M213.86,435.08c-0.25-0.18-0.45-0.5-0.62-0.94l-7.65-19.17c-0.11-0.28-0.16-0.51-0.16-0.7c0-0.45,0.23-0.67,0.7-0.67h6.02
			c0.66,0,1.08,0.29,1.25,0.86l3.26,10.43l3.26-10.43c0.17-0.58,0.59-0.86,1.25-0.86h6.02c0.47,0,0.7,0.22,0.7,0.67
			c0,0.19-0.05,0.43-0.16,0.7l-7.62,19.17c-0.17,0.45-0.38,0.76-0.62,0.94c-0.25,0.18-0.6,0.27-1.07,0.27h-3.49
			C214.46,435.35,214.1,435.26,213.86,435.08z"/>
		<path d="M229.92,434.9c-0.29-0.3-0.43-0.76-0.43-1.38v-18.11c0-0.62,0.14-1.08,0.43-1.38c0.29-0.3,0.78-0.45,1.49-0.45h3.81
			c0.73,0,1.23,0.14,1.52,0.43c0.29,0.29,0.43,0.75,0.43,1.39v18.11c0,0.62-0.14,1.08-0.43,1.38c-0.29,0.3-0.79,0.45-1.52,0.45
			h-3.81C230.71,435.35,230.21,435.2,229.92,434.9z"/>
		<path d="M239.84,434.9c-0.29-0.3-0.43-0.76-0.43-1.38v-18.11c0-0.62,0.14-1.08,0.43-1.38c0.29-0.3,0.78-0.45,1.49-0.45h7.36
			c7.53,0,11.3,3.63,11.3,10.88c0,3.58-0.97,6.29-2.9,8.13s-4.73,2.75-8.4,2.75h-7.36C240.63,435.35,240.13,435.2,239.84,434.9z
			 M248.98,429.91c1.19,0,2.05-0.39,2.58-1.18c0.52-0.79,0.78-2.21,0.78-4.26s-0.26-3.47-0.78-4.26c-0.52-0.79-1.38-1.18-2.58-1.18
			h-1.89v10.88H248.98z"/>
		<path d="M259.5,434.68c0-0.19,0.05-0.43,0.16-0.7l7.97-19.17c0.19-0.45,0.41-0.76,0.66-0.94c0.24-0.18,0.59-0.27,1.04-0.27h3.49
			c0.45,0,0.79,0.09,1.04,0.27c0.25,0.18,0.46,0.5,0.66,0.94l7.94,19.17c0.11,0.28,0.16,0.51,0.16,0.7c0,0.45-0.23,0.67-0.7,0.67
			h-6.02c-0.66,0-1.08-0.29-1.25-0.86l-0.77-2.37h-5.66l-0.74,2.37c-0.17,0.58-0.59,0.86-1.25,0.86h-6.02
			C259.74,435.35,259.5,435.13,259.5,434.68z M272.3,427.06l-1.25-3.97l-1.25,3.97H272.3z"/>
		<path d="M284.64,434.9c-0.29-0.3-0.43-0.76-0.43-1.38v-18.11c0-0.62,0.14-1.08,0.43-1.38c0.29-0.3,0.78-0.45,1.49-0.45h7.36
			c7.53,0,11.3,3.63,11.3,10.88c0,3.58-0.97,6.29-2.9,8.13s-4.73,2.75-8.4,2.75h-7.36C285.42,435.35,284.93,435.2,284.64,434.9z
			 M293.78,429.91c1.19,0,2.05-0.39,2.58-1.18c0.52-0.79,0.78-2.21,0.78-4.26s-0.26-3.47-0.78-4.26c-0.52-0.79-1.38-1.18-2.58-1.18
			h-1.89v10.88H293.78z"/>
		<path d="M316.42,434.9c-0.29-0.3-0.43-0.76-0.43-1.38v-18.11c0-0.62,0.14-1.08,0.43-1.38c0.29-0.3,0.78-0.45,1.49-0.45h7.36
			c7.53,0,11.3,3.63,11.3,10.88c0,3.58-0.97,6.29-2.9,8.13s-4.73,2.75-8.4,2.75h-7.36C317.2,435.35,316.7,435.2,316.42,434.9z
			 M325.55,429.91c1.19,0,2.05-0.39,2.58-1.18c0.52-0.79,0.78-2.21,0.78-4.26s-0.26-3.47-0.78-4.26c-0.52-0.79-1.38-1.18-2.58-1.18
			h-1.89v10.88H325.55z"/>
		<path d="M338.59,434.9c-0.29-0.3-0.43-0.76-0.43-1.38v-18.11c0-0.62,0.14-1.08,0.43-1.38c0.29-0.3,0.78-0.45,1.49-0.45h13.25
			c0.68,0,1.15,0.14,1.39,0.43c0.24,0.29,0.37,0.75,0.37,1.39v1.79c0,0.64-0.12,1.1-0.37,1.39c-0.25,0.29-0.71,0.43-1.39,0.43h-7.49
			v2.75h4.61c0.68,0,1.15,0.14,1.39,0.43s0.37,0.75,0.37,1.39v1.73c0,0.64-0.12,1.1-0.37,1.39s-0.71,0.43-1.39,0.43h-4.61v2.75h7.46
			c0.68,0,1.15,0.14,1.39,0.43c0.25,0.29,0.37,0.75,0.37,1.39v1.79c0,0.64-0.12,1.1-0.37,1.39c-0.25,0.29-0.71,0.43-1.39,0.43
			h-13.22C339.38,435.35,338.88,435.2,338.59,434.9z"/>
		<path d="M31.63,473.3c-0.29-0.3-0.43-0.76-0.43-1.38v-14.5h-4.61c-0.68,0-1.15-0.14-1.39-0.43s-0.37-0.75-0.37-1.39v-1.79
			c0-0.64,0.12-1.1,0.37-1.39s0.71-0.43,1.39-0.43h16.9c0.68,0,1.15,0.14,1.39,0.43c0.24,0.29,0.37,0.75,0.37,1.39v1.79
			c0,0.64-0.12,1.1-0.37,1.39c-0.25,0.29-0.71,0.43-1.39,0.43h-4.61v14.5c0,0.62-0.14,1.08-0.43,1.38c-0.29,0.3-0.79,0.45-1.52,0.45
			h-3.81C32.42,473.75,31.92,473.6,31.63,473.3z"/>
		<path d="M51.04,473.22c-1.58-0.67-2.81-1.64-3.68-2.91c-0.88-1.27-1.31-2.78-1.31-4.53v-11.97c0-0.62,0.14-1.08,0.43-1.38
			s0.78-0.45,1.49-0.45h3.81c0.73,0,1.23,0.14,1.52,0.43s0.43,0.75,0.43,1.39v12.06c0,1,0.25,1.75,0.75,2.24
			c0.5,0.49,1.19,0.74,2.06,0.74c0.87,0,1.56-0.24,2.06-0.74c0.5-0.49,0.75-1.24,0.75-2.24v-12.06c0-0.62,0.14-1.08,0.43-1.38
			s0.78-0.45,1.49-0.45h3.81c0.73,0,1.23,0.14,1.52,0.43s0.43,0.75,0.43,1.39v11.97c0,1.75-0.44,3.26-1.31,4.53
			c-0.88,1.27-2.1,2.24-3.68,2.91c-1.58,0.67-3.41,1.01-5.5,1.01C54.46,474.23,52.62,473.9,51.04,473.22z"/>
		<path d="M79.15,473.3c-0.29-0.3-0.43-0.76-0.43-1.38v-18.11c0-0.62,0.14-1.08,0.43-1.38c0.29-0.3,0.78-0.45,1.49-0.45h13.25
			c0.68,0,1.15,0.14,1.39,0.43c0.24,0.29,0.37,0.75,0.37,1.39v1.79c0,0.64-0.12,1.1-0.37,1.39c-0.25,0.29-0.71,0.43-1.39,0.43H86.4
			v2.75h4.61c0.68,0,1.15,0.14,1.39,0.43s0.37,0.75,0.37,1.39v1.73c0,0.64-0.12,1.1-0.37,1.39s-0.71,0.43-1.39,0.43H86.4v2.75h7.46
			c0.68,0,1.15,0.14,1.39,0.43c0.25,0.29,0.37,0.75,0.37,1.39v1.79c0,0.64-0.12,1.1-0.37,1.39c-0.25,0.29-0.71,0.43-1.39,0.43H80.64
			C79.94,473.75,79.44,473.6,79.15,473.3z"/>
		<path d="M106.45,477.99c-1.35-1.04-2.19-2.37-2.51-4.02c-2.84-0.47-4.98-1.66-6.43-3.57s-2.18-4.42-2.18-7.54
			c0-3.63,0.98-6.43,2.94-8.4c1.96-1.97,4.84-2.96,8.64-2.96c3.8,0,6.68,0.99,8.64,2.96c1.96,1.97,2.94,4.77,2.94,8.4
			c0,3.18-0.77,5.7-2.32,7.55c-1.55,1.86-3.86,3.01-6.93,3.46c0.17,0.34,0.48,0.6,0.93,0.77c0.45,0.17,0.92,0.26,1.41,0.26
			c0.98,0,1.8-0.22,2.46-0.67c0.19-0.13,0.34-0.19,0.45-0.19c0.17,0,0.3,0.1,0.38,0.29l1.73,2.72c0.11,0.17,0.16,0.3,0.16,0.38
			s-0.04,0.17-0.11,0.26c-0.08,0.09-0.17,0.18-0.27,0.29c-0.62,0.51-1.31,0.9-2.06,1.17c-0.76,0.27-1.67,0.4-2.74,0.4
			C109.52,479.54,107.8,479.03,106.45,477.99z M109.92,467.37c0.62-0.99,0.93-2.49,0.93-4.5c0-2.03-0.31-3.53-0.93-4.51
			s-1.62-1.47-3.01-1.47c-1.39,0-2.39,0.49-3.01,1.47c-0.62,0.98-0.93,2.49-0.93,4.51c0,2.01,0.31,3.5,0.93,4.5
			c0.62,0.99,1.62,1.49,3.01,1.49C108.3,468.86,109.3,468.36,109.92,467.37z"/>
		<path d="M124.93,473.22c-1.58-0.67-2.81-1.64-3.68-2.91c-0.88-1.27-1.31-2.78-1.31-4.53v-11.97c0-0.62,0.14-1.08,0.43-1.38
			s0.78-0.45,1.49-0.45h3.81c0.73,0,1.23,0.14,1.52,0.43s0.43,0.75,0.43,1.39v12.06c0,1,0.25,1.75,0.75,2.24
			c0.5,0.49,1.19,0.74,2.06,0.74c0.87,0,1.56-0.24,2.06-0.74c0.5-0.49,0.75-1.24,0.75-2.24v-12.06c0-0.62,0.14-1.08,0.43-1.38
			s0.78-0.45,1.49-0.45h3.81c0.73,0,1.23,0.14,1.52,0.43s0.43,0.75,0.43,1.39v11.97c0,1.75-0.44,3.26-1.31,4.53
			c-0.88,1.27-2.1,2.24-3.68,2.91c-1.58,0.67-3.41,1.01-5.5,1.01C128.34,474.23,126.51,473.9,124.93,473.22z"/>
		<path d="M143.44,473.3c-0.29-0.3-0.43-0.76-0.43-1.38v-18.11c0-0.62,0.14-1.08,0.43-1.38c0.29-0.3,0.78-0.45,1.49-0.45h3.81
			c0.73,0,1.23,0.14,1.52,0.43c0.29,0.29,0.43,0.75,0.43,1.39v18.11c0,0.62-0.14,1.08-0.43,1.38c-0.29,0.3-0.79,0.45-1.52,0.45
			h-3.81C144.22,473.75,143.73,473.6,143.44,473.3z"/>
		<path d="M153.36,473.3c-0.29-0.3-0.43-0.76-0.43-1.38v-18.11c0-0.62,0.14-1.08,0.43-1.38c0.29-0.3,0.78-0.45,1.49-0.45h7.65
			c3.2,0,5.53,0.63,6.99,1.9c1.46,1.27,2.19,3.18,2.19,5.74c0,2.56-0.73,4.47-2.19,5.73c-1.46,1.26-3.78,1.89-6.96,1.89h-1.92v4.67
			c0,0.62-0.14,1.08-0.43,1.38c-0.29,0.3-0.79,0.45-1.52,0.45h-3.81C154.14,473.75,153.65,473.6,153.36,473.3z M161.82,461.82
			c0.68,0,1.22-0.18,1.62-0.54c0.39-0.36,0.59-0.91,0.59-1.63c0-0.75-0.2-1.3-0.59-1.66c-0.4-0.36-0.93-0.54-1.62-0.54h-2.18v4.38
			H161.82z"/>
		<path d="M174.14,471.27c-1.96-1.97-2.94-4.77-2.94-8.4s0.98-6.43,2.94-8.4c1.96-1.97,4.84-2.96,8.64-2.96
			c3.8,0,6.68,0.99,8.64,2.96c1.96,1.97,2.94,4.77,2.94,8.4s-0.98,6.43-2.94,8.4c-1.96,1.97-4.84,2.96-8.64,2.96
			C178.99,474.23,176.11,473.25,174.14,471.27z M185.79,467.37c0.62-0.99,0.93-2.49,0.93-4.5c0-2.03-0.31-3.53-0.93-4.51
			s-1.62-1.47-3.01-1.47c-1.39,0-2.39,0.49-3.01,1.47c-0.62,0.98-0.93,2.49-0.93,4.51c0,2.01,0.31,3.5,0.93,4.5
			c0.62,0.99,1.62,1.49,3.01,1.49C184.17,468.86,185.17,468.36,185.79,467.37z"/>
		<path d="M208.16,471.37c-2.15-1.91-3.23-4.74-3.23-8.5c0-3.78,1.04-6.61,3.12-8.51s5.05-2.85,8.91-2.85
			c1.75,0,3.31,0.17,4.67,0.51c1.36,0.34,2.51,0.82,3.42,1.44c0.26,0.19,0.38,0.41,0.38,0.64c0,0.19-0.1,0.46-0.29,0.8l-1.6,2.75
			c-0.17,0.3-0.37,0.45-0.61,0.45c-0.15,0-0.4-0.08-0.74-0.26c-0.6-0.3-1.22-0.53-1.87-0.7c-0.65-0.17-1.41-0.26-2.29-0.26
			c-1.77,0-3.13,0.51-4.06,1.54c-0.94,1.02-1.41,2.51-1.41,4.45c0,1.92,0.51,3.4,1.54,4.43c1.02,1.04,2.42,1.55,4.19,1.55
			c1.54,0,2.94-0.32,4.22-0.96c0.34-0.17,0.59-0.26,0.74-0.26c0.23,0,0.44,0.15,0.61,0.45l1.6,2.75c0.19,0.34,0.29,0.61,0.29,0.8
			c0,0.24-0.13,0.45-0.38,0.64c-0.92,0.62-2.07,1.1-3.46,1.44c-1.39,0.34-2.96,0.51-4.7,0.51
			C213.33,474.23,210.31,473.28,208.16,471.37z"/>
		<path d="M228.22,471.27c-1.96-1.97-2.94-4.77-2.94-8.4s0.98-6.43,2.94-8.4c1.96-1.97,4.84-2.96,8.64-2.96
			c3.8,0,6.68,0.99,8.64,2.96c1.96,1.97,2.94,4.77,2.94,8.4s-0.98,6.43-2.94,8.4c-1.96,1.97-4.84,2.96-8.64,2.96
			C233.07,474.23,230.19,473.25,228.22,471.27z M239.87,467.37c0.62-0.99,0.93-2.49,0.93-4.5c0-2.03-0.31-3.53-0.93-4.51
			s-1.62-1.47-3.01-1.47c-1.39,0-2.39,0.49-3.01,1.47c-0.62,0.98-0.93,2.49-0.93,4.51c0,2.01,0.31,3.5,0.93,4.5
			c0.62,0.99,1.62,1.49,3.01,1.49C238.25,468.86,239.25,468.36,239.87,467.37z"/>
		<path d="M249.36,473.3c-0.29-0.3-0.43-0.76-0.43-1.38v-18.14c0-0.62,0.14-1.07,0.43-1.36c0.29-0.29,0.79-0.43,1.52-0.43h3.68
			c0.47,0,0.84,0.06,1.12,0.18c0.28,0.12,0.49,0.35,0.64,0.69l3.74,9.38l3.74-9.38c0.15-0.34,0.36-0.57,0.64-0.69
			c0.28-0.12,0.65-0.18,1.12-0.18h3.68c0.73,0,1.23,0.14,1.52,0.43s0.43,0.74,0.43,1.36v18.14c0,0.62-0.14,1.08-0.43,1.38
			c-0.29,0.3-0.78,0.45-1.49,0.45h-3.07c-0.7,0-1.21-0.15-1.5-0.45c-0.3-0.3-0.45-0.76-0.45-1.38v-8.74l-1.89,4.35
			c-0.26,0.62-0.53,1.06-0.83,1.33c-0.3,0.27-0.79,0.4-1.47,0.4s-1.17-0.13-1.47-0.4c-0.3-0.27-0.58-0.71-0.83-1.33l-1.89-4.35v8.74
			c0,0.62-0.14,1.08-0.43,1.38c-0.29,0.3-0.79,0.45-1.52,0.45h-3.07C250.14,473.75,249.65,473.6,249.36,473.3z"/>
		<path d="M273.87,473.3c-0.29-0.3-0.43-0.76-0.43-1.38v-18.11c0-0.62,0.14-1.08,0.43-1.38c0.29-0.3,0.78-0.45,1.49-0.45h13.25
			c0.68,0,1.15,0.14,1.39,0.43c0.24,0.29,0.37,0.75,0.37,1.39v1.79c0,0.64-0.12,1.1-0.37,1.39c-0.25,0.29-0.71,0.43-1.39,0.43h-7.49
			v2.75h4.61c0.68,0,1.15,0.14,1.39,0.43s0.37,0.75,0.37,1.39v1.73c0,0.64-0.12,1.1-0.37,1.39s-0.71,0.43-1.39,0.43h-4.61v2.75h7.46
			c0.68,0,1.15,0.14,1.39,0.43c0.25,0.29,0.37,0.75,0.37,1.39v1.79c0,0.64-0.12,1.1-0.37,1.39c-0.25,0.29-0.71,0.43-1.39,0.43
			h-13.22C274.66,473.75,274.16,473.6,273.87,473.3z"/>
		<path d="M292.24,473.3c-0.29-0.3-0.43-0.76-0.43-1.38v-18.11c0-0.62,0.14-1.08,0.43-1.38c0.29-0.3,0.78-0.45,1.49-0.45h7.65
			c3.2,0,5.53,0.63,6.99,1.9c1.46,1.27,2.19,3.18,2.19,5.74c0,1.54-0.26,2.83-0.78,3.89c-0.52,1.06-1.33,1.88-2.42,2.48l2.98,6.37
			c0.08,0.17,0.13,0.36,0.13,0.58c0,0.23-0.08,0.43-0.24,0.58c-0.16,0.15-0.37,0.22-0.62,0.22h-5.41c-0.34,0-0.61-0.05-0.82-0.14
			c-0.2-0.1-0.35-0.26-0.43-0.5l-2.37-5.95h-1.09v4.77c0,0.62-0.14,1.08-0.43,1.38c-0.29,0.3-0.79,0.45-1.52,0.45h-3.81
			C293.02,473.75,292.53,473.6,292.24,473.3z M300.7,461.82c0.68,0,1.22-0.18,1.62-0.54c0.39-0.36,0.59-0.91,0.59-1.63
			c0-0.75-0.2-1.3-0.59-1.66c-0.4-0.36-0.93-0.54-1.62-0.54h-2.18v4.38H300.7z"/>
		<path d="M314.75,471.37c-2.15-1.91-3.23-4.74-3.23-8.5c0-3.78,1.04-6.61,3.12-8.51s5.05-2.85,8.91-2.85
			c1.75,0,3.31,0.17,4.67,0.51c1.36,0.34,2.51,0.82,3.42,1.44c0.26,0.19,0.38,0.41,0.38,0.64c0,0.19-0.1,0.46-0.29,0.8l-1.6,2.75
			c-0.17,0.3-0.37,0.45-0.61,0.45c-0.15,0-0.4-0.08-0.74-0.26c-0.6-0.3-1.22-0.53-1.87-0.7c-0.65-0.17-1.41-0.26-2.29-0.26
			c-1.77,0-3.13,0.51-4.06,1.54c-0.94,1.02-1.41,2.51-1.41,4.45c0,1.92,0.51,3.4,1.54,4.43c1.02,1.04,2.42,1.55,4.19,1.55
			c1.54,0,2.94-0.32,4.22-0.96c0.34-0.17,0.59-0.26,0.74-0.26c0.23,0,0.44,0.15,0.61,0.45l1.6,2.75c0.19,0.34,0.29,0.61,0.29,0.8
			c0,0.24-0.13,0.45-0.38,0.64c-0.92,0.62-2.07,1.1-3.46,1.44c-1.39,0.34-2.96,0.51-4.7,0.51
			C319.92,474.23,316.91,473.28,314.75,471.37z"/>
		<path d="M334.38,473.3c-0.29-0.3-0.43-0.76-0.43-1.38v-18.11c0-0.62,0.14-1.08,0.43-1.38c0.29-0.3,0.78-0.45,1.49-0.45h3.81
			c0.73,0,1.23,0.14,1.52,0.43c0.29,0.29,0.43,0.75,0.43,1.39v18.11c0,0.62-0.14,1.08-0.43,1.38c-0.29,0.3-0.79,0.45-1.52,0.45
			h-3.81C335.17,473.75,334.67,473.6,334.38,473.3z"/>
		<path d="M343.23,473.08c0-0.19,0.05-0.43,0.16-0.7l7.97-19.17c0.19-0.45,0.41-0.76,0.66-0.94c0.24-0.18,0.59-0.27,1.04-0.27h3.49
			c0.45,0,0.79,0.09,1.04,0.27c0.25,0.18,0.46,0.5,0.66,0.94l7.94,19.17c0.11,0.28,0.16,0.51,0.16,0.7c0,0.45-0.23,0.67-0.7,0.67
			h-6.02c-0.66,0-1.08-0.29-1.25-0.86l-0.77-2.37h-5.66l-0.74,2.37c-0.17,0.58-0.59,0.86-1.25,0.86h-6.02
			C343.47,473.75,343.23,473.53,343.23,473.08z M356.03,465.46l-1.25-3.97l-1.25,3.97H356.03z"/>
		<path d="M368.37,473.3c-0.29-0.3-0.43-0.76-0.43-1.38v-18.11c0-0.62,0.14-1.08,0.43-1.38c0.29-0.3,0.78-0.45,1.49-0.45h3.81
			c0.73,0,1.23,0.14,1.52,0.43c0.29,0.29,0.43,0.75,0.43,1.39v14.5h7.46c0.68,0,1.15,0.14,1.39,0.43c0.25,0.29,0.37,0.75,0.37,1.39
			v1.79c0,0.64-0.12,1.1-0.37,1.39c-0.25,0.29-0.71,0.43-1.39,0.43h-13.22C369.15,473.75,368.66,473.6,368.37,473.3z"/>
	</g>
	<polygon class="st1" points="200.76,96.93 214.23,124.22 244.34,128.59 222.55,149.83 227.7,179.83 200.76,165.67 173.83,179.83 
		178.97,149.83 157.18,128.59 187.29,124.22 	"/>
	<polygon class="st1" points="138.58,180.15 147.32,197.86 166.86,200.7 152.72,214.48 156.06,233.94 138.58,224.75 121.11,233.94 
		124.45,214.48 110.31,200.7 129.85,197.86 	"/>
	<polygon class="st1" points="268.68,180.15 277.42,197.86 296.95,200.7 282.82,214.48 286.15,233.94 268.68,224.75 251.2,233.94 
		254.54,214.48 240.4,200.7 259.94,197.86 	"/>
	<circle class="st2" cx="201.77" cy="213.97" r="121.96"/>
	<circle class="st3" cx="200.82" cy="200.58" r="121.96"/>
	<g>
		<path class="st3" d="M179.35,642.61c0-0.49,0.15-1.02,0.44-1.61l16.86-34.09h-18.1c-1.56,0-2.62-0.33-3.18-0.99
			c-0.56-0.66-0.84-1.71-0.84-3.17v-4.09c0-1.46,0.28-2.52,0.84-3.18c0.56-0.66,1.62-0.99,3.18-0.99h33.87c2.09,0,3.5,0.3,4.23,0.91
			c0.73,0.61,1.1,1.74,1.1,3.39c0,1.85-0.32,3.36-0.95,4.53l-19.2,38.84c-0.34,0.68-0.72,1.18-1.13,1.5
			c-0.41,0.32-0.99,0.47-1.72,0.47h-13.72C179.91,644.14,179.35,643.63,179.35,642.61z"/>
	</g>
	<g>
		<g>
			<path class="st39" d="M181.97,199.43c0-22.08,15.35-36.51,35.71-36.51c27.2,0,34.92,20.16,37.23,31.02
				c3.84,6.59,16.48,20.18,8.96,20.97c-3.71,0.39-5.37,0.49-7.91,0.66c-0.12,2.54-0.21,4.19-0.48,7.28l-7.05,0.55l6.59,4.39
				c-0.32,3.1-0.73,6.42-1.25,9.95c-0.69,4.71-10.91,5.14-23.85,5.15V269l-44.74-12.33l9.08-27.49
				C188.61,222.15,181.97,209.49,181.97,199.43z"/>
			<path class="st39" d="M204.34,202.82c0,9.16,7.42,16.58,16.58,16.58c9.16,0,16.58-7.42,16.58-16.58
				c0-9.16-7.42-16.58-16.58-16.58C211.77,186.24,204.34,193.66,204.34,202.82z"/>
			
				<rect x="232.21" y="208.87" transform="matrix(0.6835 -0.73 0.73 0.6835 -87.2361 241.204)" class="st39" width="4.64" height="24.66"/>
			<path class="st39" d="M242.34,232.23l3.47,0.73c1.34,0.28,2.67-0.68,2.98-2.15l0.01-0.05c0.31-1.47-0.53-2.89-1.86-3.17
				l-3.47-0.73c-1.34-0.28-2.67,0.68-2.98,2.15l-0.01,0.05C240.17,230.53,241,231.95,242.34,232.23z"/>
			<path class="st39" d="M217.06,191.91l3.66-0.35c0.8-0.08,1.39-0.79,1.31-1.59l-2.7-28.08c-0.08-0.8-0.79-1.39-1.59-1.31
				l-3.66,0.35c-0.8,0.08-1.39,0.79-1.31,1.59l2.7,28.08C215.55,191.4,216.26,191.98,217.06,191.91z"/>
			<path class="st39" d="M208.37,202.82c0,6.93,5.62,12.55,12.55,12.55c6.93,0,12.55-5.62,12.55-12.55
				c0-6.93-5.62-12.55-12.55-12.55C213.99,190.26,208.37,195.88,208.37,202.82z"/>
		</g>
		<g>
			<path class="st40" d="M166.11,193.93c0-23.06,16.03-38.12,37.28-38.12c28.4,0,36.46,21.05,38.87,32.39
				c4.01,6.88,17.21,21.07,9.36,21.9c-3.87,0.41-5.6,0.52-8.26,0.69c-0.12,2.65-0.22,4.38-0.5,7.61l-7.36,0.57l6.88,4.59
				c-0.34,3.24-0.76,6.7-1.3,10.39c-0.72,4.92-11.39,5.36-24.9,5.38v27.24l-46.71-12.88l9.48-28.7
				C173.04,217.66,166.11,204.43,166.11,193.93z"/>
			<circle class="st40" cx="206.78" cy="197.47" r="17.31"/>
			
				<rect x="218.56" y="203.79" transform="matrix(0.6835 -0.73 0.73 0.6835 -88.2109 229.8797)" class="st40" width="4.84" height="25.74"/>
			<path class="st40" d="M229.14,228.18l3.62,0.76c1.4,0.29,2.79-0.72,3.11-2.25l0.01-0.06c0.32-1.53-0.55-3.02-1.95-3.31
				l-3.62-0.76c-1.4-0.29-2.79,0.72-3.11,2.25l-0.01,0.06C226.87,226.41,227.74,227.89,229.14,228.18z"/>
			<path class="st40" d="M202.75,186.08l3.82-0.37c0.84-0.08,1.45-0.82,1.37-1.66l-2.82-29.31c-0.08-0.84-0.82-1.45-1.66-1.37
				l-3.82,0.37c-0.84,0.08-1.45,0.82-1.37,1.66l2.82,29.31C201.17,185.55,201.91,186.16,202.75,186.08z"/>
			<path class="st40" d="M193.67,197.47c0,7.24,5.87,13.11,13.11,13.11c7.24,0,13.11-5.87,13.11-13.11
				c0-7.24-5.87-13.11-13.11-13.11C199.54,184.36,193.67,190.23,193.67,197.47z"/>
		</g>
		<g>
			<path class="st21" d="M147.92,188.32c0-24.14,16.78-39.91,39.04-39.91c29.74,0,38.18,22.05,40.7,33.91
				c4.19,7.2,18.02,22.06,9.8,22.93c-4.05,0.43-5.87,0.54-8.65,0.72c-0.13,2.78-0.23,4.59-0.52,7.96l-7.7,0.6l7.2,4.8
				c-0.35,3.39-0.8,7.02-1.36,10.88c-0.76,5.15-11.93,5.62-26.08,5.63v28.53l-48.92-13.49l9.93-30.05
				C155.18,213.16,147.92,199.32,147.92,188.32z"/>
			<path class="st39" d="M172.37,192.02c0,10.01,8.12,18.13,18.13,18.13c10.01,0,18.13-8.12,18.13-18.13
				c0-10.01-8.12-18.13-18.13-18.13C180.49,173.9,172.37,182.01,172.37,192.02z"/>
			
				<rect x="202.84" y="198.64" transform="matrix(0.6835 -0.7299 0.7299 0.6835 -89.8359 217.0355)" class="st39" width="5.07" height="26.96"/>
			<path class="st39" d="M213.91,224.18l3.79,0.79c1.46,0.31,2.92-0.75,3.26-2.36l0.01-0.06c0.34-1.61-0.58-3.16-2.04-3.46
				l-3.79-0.79c-1.46-0.31-2.92,0.75-3.26,2.36l-0.01,0.06C211.54,222.33,212.45,223.88,213.91,224.18z"/>
			<path class="st39" d="M186.28,180.09l4-0.38c0.88-0.08,1.52-0.86,1.44-1.74l-2.95-30.69c-0.09-0.88-0.86-1.52-1.74-1.44l-4,0.38
				c-0.88,0.09-1.52,0.86-1.43,1.74l2.95,30.69C184.62,179.54,185.4,180.18,186.28,180.09z"/>
			<path class="st3" d="M176.78,192.02c0,7.58,6.15,13.73,13.72,13.73c7.58,0,13.73-6.14,13.73-13.73c0-7.58-6.15-13.73-13.73-13.73
				C182.92,178.3,176.78,184.44,176.78,192.02z"/>
		</g>
	</g>
</g>
</svg>
